<?xml version="1.0" standalone="no"?>
<!DOCTYPE svg PUBLIC "-//W3C//DTD SVG 1.1//EN" "http://www.w3.org/Graphics/SVG/1.1/DTD/svg11.dtd" >
<svg xmlns="http://www.w3.org/2000/svg">
<metadata></metadata>
<defs>
<font id="ge_dinar_oneregular" horiz-adv-x="0" >
<font-face units-per-em="2048" ascent="1638" descent="-410" />
<missing-glyph horiz-adv-x="331" />
<glyph unicode="&#x627;&#x653;" horiz-adv-x="370" d="M-82 1479l90 -64q56 53 121 53q33 0 96 -32q70 -31 123 -31q81 0 197 84l-90 65q-59 -53 -107 -53q-31 0 -104 31q-67 33 -129 33q-82 0 -197 -86zM100 0h195v1321l-195 -61v-1260z" />
<glyph unicode="&#x627;&#x654;" horiz-adv-x="370" d="M23 1399h337v69h-161v41q0 72 49 72q33 0 55 -31l45 58q-43 43 -94 43q-131 0 -131 -142v-41h-57zM100 0h195v1321l-195 -61v-1260z" />
<glyph unicode="&#x648;&#x654;" horiz-adv-x="972" d="M100 430q0 -189 84 -311q103 -148 316 -148q106 0 194 49q-24 -231 -245 -243q-155 -9 -326 71l86 -188q86 -53 240 -53q216 0 331 139q106 121 109 334q0 30 6 129q2 59 2 149q0 236 -68 363q-94 168 -329 168q-213 0 -316 -146q-84 -122 -84 -313zM158 1008h585v106 h-297v51q0 125 105 125q53 0 94 -53l80 80q-76 76 -160 76q-106 0 -167.5 -69t-61.5 -175v-35h-92zM293 430q0 291 207 291q205 0 205 -291q0 -289 -205 -289q-207 0 -207 289z" />
<glyph unicode="&#x627;&#x655;" horiz-adv-x="370" d="M2 -399h338v71h-162v39q0 72 49 72q34 0 56 -31l45 58q-43 43 -95 43q-129 0 -129 -142v-39h-59zM100 0h195v1321l-195 -61v-1260z" />
<glyph unicode="&#x64a;&#x654;" horiz-adv-x="1323" d="M-221 393h657v119h-336v59q0 140 119 140q61 0 107 -58l88 88q-84 84 -183 84q-119 0 -187.5 -77t-68.5 -197v-39h-102zM100 238q27 -316 142 -455q135 -176 452 -176q228 0 371 90q172 114 172 338v411h-506v101q0 209 203 209q142 0 250 -166l63 188q-134 146 -323 146 q-178 0 -282.5 -98.5t-104.5 -264.5v-285h507v-241q0 -132 -114 -197q-89 -53 -236 -53q-213 0 -305 115t-92 397z" />
<glyph unicode="&#x64c;&#x651;" arabic-form="isolated" d="M41 1763q0 4 20 45q12 35 33 50q23 17 39.5 -2t16.5 -48q0 -47 -60 -122q173 38 256 133q38 -31 100 -45l-8 90q-35 21 -35 53q0 7 15.5 51.5t15.5 61.5q0 19 -8 38q-22 54 -98 54q-109 -53 -109 -187q21 -43 68 -84q-52 -49 -92 -59q3 93 -7 123q-21 68 -79 59 q-47 -21 -62 -92q-2 -41 -6 -119zM90 1419q18 -59 96 -59q11 4 21.5 11t17.5 13t15.5 18t12 17.5t12.5 21t11 19.5l17 -8q66 -16 105.5 22t39.5 103q0 49 -28 141l-37 -12q3 -31 -13 -111q-9 -38 -32 -22q-26 11 -39 35q0 1 -2 6t-7 18t-10 25l-28 -10q0 -60 -27 -131 q-18 -37 -43 -37q-10 0 -16 2q-6 3 -10.5 8.5t-8 14t-5.5 16t-4.5 19t-3.5 18.5t-2.5 20t-2.5 18l-29 -18q-15 -117 0 -158zM303 2019q0 11 2 17q23 10 41 -31q7 -17 4 -47q-47 44 -47 61z" />
<glyph unicode="&#x64d;&#x651;" arabic-form="isolated" d="M66 1360q199 88 284 129q74 41 74 123l-285 -146q-64 -12 -73 -106zM68 1491l290 141q58 21 58 105l-250 -135q-52 -25 -66 -39q-22 -20 -32 -72zM78 1747q18 -55 98 -55q7 2 13.5 4.5t13 7.5t11 8.5t10.5 12t9 12t9.5 14t8 13t8 15t7.5 13.5l17 -10q64 -16 103.5 22.5 t39.5 102.5q0 49 -25 141l-39 -14q2 -26 -14 -109q-9 -34 -31 -24q-24 12 -36 36q-5 5 -25 52l-27 -13q0 -59 -28 -129q-15 -41 -39 -41q-8 0 -17 6q-22 9 -28 50q-1 9 -4 30t-4 33l-31 -18q-15 -120 0 -160z" />
<glyph unicode="&#x64e;&#x651;" arabic-form="isolated" d="M66 1626q226 95 286 127q74 38 74 125l-285 -149q-63 -9 -75 -103zM90 1417q18 -59 96 -59q11 4 21.5 11t17.5 13t15.5 18t12 17.5t12.5 21t11 19.5l17 -8q66 -16 105.5 22t39.5 103q0 49 -28 141l-37 -12q3 -31 -13 -111q-9 -38 -32 -22q-26 11 -39 35q0 1 -2 6t-7 18 t-10 25l-28 -10q0 -61 -27 -132q-17 -36 -43 -36q-10 0 -16 2q-6 3 -10.5 8.5t-8 14t-5.5 16t-4.5 19t-3.5 18.5t-2.5 20t-2.5 18l-29 -18q-15 -117 0 -158z" />
<glyph unicode="&#x64f;&#x651;" arabic-form="isolated" d="M76 1671q28 -4 43 -4q71 0 133 41q33 22 121 107l80 -52v86q-25 9 -25 27q0 2 21 49q14 32 -3 66q-15 47 -71 47q-54 0 -80 -33q-53 -35 -53 -90q12 -34 67 -74q-75 -84 -233 -170zM106 1419q15 -59 99 -59q12 5 23 12.5t21 20t15.5 20.5t16 25.5t14.5 23.5l14 -8 q65 -17 104.5 21.5t39.5 103.5q0 49 -25 141l-37 -14q3 -31 -16 -111q-6 -32 -29 -22q-26 9 -39 37q-2 0 -22 51l-29 -12q0 -61 -27 -129q-15 -41 -41 -41q-5 0 -14 6q-22 10 -31 49q-4 40 -8 63l-29 -18q-18 -117 0 -160zM309 1948q0 18 21 30q30 3 41 -28q6 -14 -6 -47 q-46 21 -56 45z" />
<glyph unicode="&#x650;&#x651;" arabic-form="isolated" d="M90 1602q18 -58 96 -58q16 6 31 19t22.5 23.5t20 31.5t16.5 27l17 -11q67 -12 106 25.5t39 103.5q0 48 -28 140l-37 -13q3 -30 -13 -110q-9 -35 -32 -25q-22 10 -30 22.5t-28 63.5l-28 -10q0 -63 -27 -127q-18 -41 -43 -41q-4 0 -16 4q-6 3 -10.5 8t-8 13.5t-5.5 15.5 t-4.5 19t-3.5 19t-2.5 20t-2.5 18l-29 -17q-15 -118 0 -161zM106 1360q210 92 285 129q76 40 76 123l-289 -146q-63 -12 -72 -106z" />
<glyph unicode="&#xfedf;&#xfee0;&#xfeea;" horiz-adv-x="2514" arabic-form="isolated" d="M100 469q0 -469 392 -469q193 0 301 123q108 -123 305 -123h92h92q188 0 293 111q105 -111 285 -111h196q174 0 279 102q104 104 104 260v955l-192 -57v-879q0 -209 -203 -209h-172q-205 0 -205 199v950l-190 -61v-879q0 -209 -205 -209q-79 0 -115 -4h-49 q-201 0 -201 209v547h-415q-392 0 -392 -455zM295 469q0 152 41 217q47 80 168 80h209v-297q0 -151 -41 -219q-46 -82 -168 -82t-168 82q-41 68 -41 219zM1348 1419q18 -59 98 -59q20 8 39 27.5t26.5 31.5t26.5 43l12 -10q66 -16 106 22.5t40 102.5q0 49 -25 141l-39 -12 q2 -27 -14 -111q-9 -35 -31 -22q-24 9 -37 35q-5 5 -22 51l-29 -10q0 -66 -26 -131q-14 -39 -41 -39q-11 0 -17 2q-32 19 -37 114l-30 -18q-15 -114 0 -158z" />
<glyph unicode="&#xfedf;&#xfe82;" horiz-adv-x="1140" arabic-form="isolated" d="M100 0h582q174 0 279 102q104 101 104 260v973l-193 -57v-901q0 -205 -202 -205h-78v1065l-195 -57v-1008h-207zM147 1430l91 -64q56 53 120 53q32 0 97 -33q67 -30 123 -30q80 0 196 84l-90 65q-59 -53 -106 -53q-32 0 -105 31q-67 33 -129 33q-82 0 -197 -86z" />
<glyph unicode="&#xfee0;&#xfe82;" horiz-adv-x="1368" arabic-form="final" d="M100 0h402h180q185 0 291 109q103 -109 284 -109h152v172h-139q-205 0 -205 199v954q-144 -38 -193 -47v-901q0 -205 -202 -205h-78v1065l-195 -57v-1008h-207zM147 1430l91 -64q56 53 120 53q32 0 97 -33q67 -30 123 -30q80 0 196 84l-90 65q-59 -53 -106 -53 q-32 0 -105 31q-67 33 -129 33q-82 0 -197 -86z" />
<glyph unicode="&#xfedf;&#xfe84;" horiz-adv-x="1140" arabic-form="isolated" d="M100 0h582q174 0 279 102q104 101 104 260v973l-193 -57v-901q0 -205 -202 -205h-78v1065l-195 -57v-1008h-207zM281 1360h337v70h-161v40q0 72 49 72q33 0 55 -31l45 58q-43 43 -94 43q-131 0 -131 -142v-40h-57z" />
<glyph unicode="&#xfee0;&#xfe84;" horiz-adv-x="1368" arabic-form="final" d="M100 0h402h180q185 0 291 109q103 -109 284 -109h152v172h-139q-205 0 -205 199v954q-144 -38 -193 -47v-901q0 -205 -202 -205h-78v1065l-195 -57v-1008h-207zM281 1360h337v70h-161v40q0 72 49 72q33 0 55 -31l45 58q-43 43 -94 43q-131 0 -131 -142v-40h-57z" />
<glyph unicode="&#xfedf;&#xfe88;" horiz-adv-x="1140" arabic-form="isolated" d="M100 0h582q174 0 279 102q104 101 104 260v973l-193 -57v-901q0 -205 -202 -205h-78v1065l-195 -57v-1008h-207zM256 -399h338v71h-162v39q0 72 49 72q34 0 56 -31l45 58q-43 43 -95 43q-129 0 -129 -142v-39h-59z" />
<glyph unicode="&#xfee0;&#xfe88;" horiz-adv-x="1368" arabic-form="final" d="M100 0h402h180q185 0 291 109q103 -109 284 -109h152v172h-139q-205 0 -205 199v954q-144 -38 -193 -47v-901q0 -205 -202 -205h-78v1065l-195 -57v-1008h-207zM256 -399h338v71h-162v39q0 72 49 72q34 0 56 -31l45 58q-43 43 -95 43q-129 0 -129 -142v-39h-59z" />
<glyph unicode="&#xfedf;&#xfe8e;" horiz-adv-x="1140" arabic-form="isolated" d="M100 0h582q174 0 279 102q104 101 104 260v973l-193 -57v-901q0 -205 -202 -205h-78v1065l-195 -57v-1008h-207z" />
<glyph unicode="&#xfee0;&#xfe8e;" horiz-adv-x="1368" arabic-form="final" d="M100 0h402h180q185 0 291 109q103 -109 284 -109h152v172h-139q-205 0 -205 199v954q-144 -38 -193 -47v-901q0 -205 -202 -205h-78v1065l-195 -57v-1008h-207z" />
<glyph unicode="&#x671;" horiz-adv-x="370" arabic-form="isolated" d="M-86 1438q35 -12 55 2l78 -43h279q100 0 100 129q-53 90 -139 90q-109 -70 -152 -113q-61 -15 -100 -12q-2 2 -11 11.5t-13 13t-11.5 9.5t-12.5 7.5t-10 -0.5q-19 -23 -28 -37q-7 -12 -19.5 -31.5t-15.5 -25.5zM100 0h195v1321l-195 -61v-1260zM209 1491q63 54 96 45 q68 -21 68 -35q0 -19 -164 -10z" />
<glyph unicode="&#x671;" horiz-adv-x="561" arabic-form="final" d="M-86 1438q35 -12 55 2l78 -43h279q100 0 100 129q-53 90 -139 90q-109 -70 -152 -113q-61 -15 -100 -12q-2 2 -11 11.5t-13 13t-11.5 9.5t-12.5 7.5t-10 -0.5q-19 -23 -28 -37q-7 -12 -19.5 -31.5t-15.5 -25.5zM100 264q0 -121 71.5 -192.5t199.5 -71.5h217v172h-193 q-100 0 -100 98v1051l-195 -61v-996zM209 1491q63 54 96 45q68 -21 68 -35q0 -19 -164 -10z" />
<glyph unicode="&#x67e;" horiz-adv-x="1892" arabic-form="final" d="M100 352q0 -158 101.5 -255t267.5 -97h727q225 0 328 152q90 -152 297 -152h96v172h-84q-252 0 -252 264v488l-190 -52v-499q0 -201 -205 -201h-690q-203 0 -203 201v383l-193 -197v-207zM600 -287q0 -43 31 -74.5t74 -31.5t74.5 31.5t31.5 74.5t-31.5 74t-74.5 31 t-74 -31t-31 -74zM737 -526q0 -43 32 -75t75 -32t74.5 32t31.5 75t-31.5 74.5t-74.5 31.5t-75 -31.5t-32 -74.5zM874 -287q0 -43 32 -74.5t73 -31.5q43 0 74.5 31.5t31.5 74.5t-31.5 74t-74.5 31q-42 0 -73.5 -31.5t-31.5 -73.5z" />
<glyph unicode="&#x67e;" horiz-adv-x="593" arabic-form="initial" d="M-25 0h158q176 0 281 102q104 101 104 260v562l-192 -58v-489q0 -209 -203 -209h-148v-168zM29 -287q0 -43 30 -74.5t74 -31.5q43 0 75 31.5t32 74.5t-32 74t-75 31q-44 0 -74 -31t-30 -74zM166 -526q0 -43 31.5 -75t74.5 -32t74 32t31 75q0 44 -31 75t-74 31t-74.5 -31 t-31.5 -75zM303 -287q0 -43 31 -74.5t74 -31.5t74.5 31.5t31.5 74.5t-31.5 74t-74.5 31t-74 -31t-31 -74z" />
<glyph unicode="&#x67e;" horiz-adv-x="796" arabic-form="medial" d="M-25 0h148q185 0 291 109q106 -109 284 -109h123v168h-110q-203 0 -203 203v553l-193 -58v-489q0 -209 -204 -209h-136v-168zM166 -287q0 -43 31.5 -74.5t74.5 -31.5t74 31.5t31 74.5t-31 74t-74 31t-74.5 -31t-31.5 -74zM305 -526q0 -43 32 -75t73 -32q43 0 74.5 32 t31.5 75t-31.5 74.5t-74.5 31.5q-42 0 -73.5 -32t-31.5 -74zM440 -287q0 -43 32.5 -74.5t76.5 -31.5q43 0 74.5 31.5t31.5 74.5t-31.5 74t-74.5 31q-44 0 -76.5 -31t-32.5 -74z" />
<glyph unicode="&#x6a4;" horiz-adv-x="1716" arabic-form="final" d="M100 352q0 -158 101.5 -255t267.5 -97h590q59 0 121 12q58 -12 116 -12h445v168h-291q126 138 129 291q6 195 -82 317q-106 148 -321 148q-212 0 -318 -148q-88 -122 -82 -317q3 -152 129 -287h-409q-203 0 -203 201v383l-193 -197v-207zM934 1212q0 -43 31 -74.5 t75 -31.5q43 0 75 31.5t32 74.5t-32 74t-75 31q-44 0 -75 -31t-31 -74zM965 508q0 107 57 175.5t158 68.5q100 0 156.5 -68t56.5 -176q0 -100 -54 -191q-60 -98 -159 -131q-102 33 -162 131q-53 89 -53 191zM1073 1450q0 -44 32 -74t75 -30t73.5 30t30.5 74q0 43 -30.5 74.5 t-73.5 31.5t-75 -31.5t-32 -74.5zM1208 1212q0 -43 32 -74.5t75 -31.5t74.5 31.5t31.5 74.5t-31.5 74t-74.5 31t-75 -31t-32 -74z" />
<glyph unicode="&#x6a4;" horiz-adv-x="1011" arabic-form="initial" d="M-25 0h584q186 0 270 63q109 77 109 259v313q0 133 -96 223q-108 105 -316 105q-184 0 -290.5 -89t-106.5 -239q0 -165 66 -240q76 -88 272 -88h276q0 -96 -65 -123q-34 -12 -143 -12h-560v-172zM285 1212q0 -43 31 -74.5t75 -31.5q43 0 74 31.5t31 74.5t-31 74t-74 31 q-44 0 -75 -31t-31 -74zM322 629q0 162 204 162q217 0 217 -162v-158h-237q-123 0 -154 25q-30 27 -30 133zM424 1450q0 -44 30.5 -74t73.5 -30t75 30t32 74q0 43 -32 74.5t-75 31.5t-73.5 -31.5t-30.5 -74.5zM559 1212q0 -43 32 -74.5t75 -31.5t73.5 31.5t30.5 74.5 t-30.5 74t-73.5 31t-75 -31t-32 -74z" />
<glyph unicode="&#x6a4;" horiz-adv-x="1087" arabic-form="medial" d="M-25 0h453q62 0 121 12q61 -12 121 -12h444v168h-293q125 137 131 291q3 192 -84 317q-106 148 -319 148q-211 0 -320 -148q-85 -122 -79 -317q3 -156 126 -291h-301v-168zM307 1212q0 -43 32 -74.5t75 -31.5t73.5 31.5t30.5 74.5t-30.5 74t-73.5 31t-75 -31t-32 -74z M336 508q0 106 58 175t155 69q101 0 158 -68t57 -176q0 -102 -53 -191q-60 -98 -162 -131q-98 33 -162 131q-51 86 -51 191zM446 1450q0 -44 31 -74t74 -30t74.5 30t31.5 74q0 43 -31.5 74.5t-74.5 31.5t-74 -31.5t-31 -74.5zM582 1212q0 -43 32 -74.5t76 -31.5 q43 0 75 31.5t32 74.5t-32 74t-75 31q-44 0 -76 -31t-32 -74z" />
<glyph unicode="&#x686;" horiz-adv-x="1468" arabic-form="final" d="M100 98q0 -212 150 -350q150 -141 377 -141q179 0 317 78v206q-138 -114 -317 -114q-145 0 -238 90q-90 90 -90 231q0 151 88.5 243.5t239.5 92.5h278q92 -434 512 -434h76v172h-55q-222 0 -310 193l-135 362q-117 197 -411 197q-129 0 -232 -47q-89 -44 -207 -150 l138 -127q91 85 149 115q62 33 152 33q188 0 270 -144h-225q-238 0 -381 -143q-146 -146 -146 -363zM414 190q0 -44 30.5 -74t73.5 -30t75 30t32 74q0 43 -32 75t-75 32q-42 0 -73 -32t-31 -75zM551 -47q0 -43 31.5 -75t74.5 -32t75 32t32 75q0 42 -32 73t-75 31 t-74.5 -30.5t-31.5 -73.5zM688 190q0 -44 32 -74t77 -30q43 0 73.5 30t30.5 74q0 43 -31 75t-73 32q-44 0 -76.5 -32t-32.5 -75z" />
<glyph unicode="&#x686;" horiz-adv-x="1140" arabic-form="initial" d="M-25 0h1090v242q0 299 -80 456q-121 226 -430 226q-246 0 -453 -201l140 -129q146 158 313 158q201 0 268 -172q43 -104 43 -338v-74h-891v-168zM307 -287q0 -43 32 -74.5t75 -31.5t73.5 31.5t30.5 74.5t-30.5 74t-73.5 31t-75 -31t-32 -74zM446 -526q0 -43 31 -75 t74 -32t74.5 32t31.5 75t-31.5 74.5t-74.5 31.5t-74 -31.5t-31 -74.5zM582 -287q0 -43 31.5 -74.5t74.5 -31.5t74 31.5t31 74.5t-31 74t-74 31t-74.5 -31t-31.5 -74z" />
<glyph unicode="&#x686;" horiz-adv-x="1323" arabic-form="medial" d="M-25 0h1373v172h-254v70q0 301 -82 456q-121 226 -430 226q-244 0 -451 -201l139 -129q146 158 312 158q203 0 270 -172q43 -104 43 -338v-74h-920v-168zM358 -287q0 -43 31 -74.5t74 -31.5q44 0 75 31.5t31 74.5t-31 74t-75 31q-43 0 -74 -31t-31 -74zM496 -526 q0 -43 31.5 -75t74.5 -32q44 0 76.5 32t32.5 75t-32.5 74.5t-76.5 31.5q-43 0 -74.5 -31.5t-31.5 -74.5zM635 -287q0 -43 31.5 -74.5t74.5 -31.5t74 31.5t31 74.5t-31 74t-74 31t-74.5 -31t-31.5 -74z" />
<glyph unicode="&#x698;" horiz-adv-x="985" arabic-form="final" d="M-51 -145l92 -193q88 -55 219 -55q196 0 317 106t142 287h291v172h-289v752l-195 -58v-811q0 -129 -71 -203.5t-195 -74.5q-170 0 -311 78zM223 1212q0 -43 32 -74.5t75 -31.5t73.5 31.5t30.5 74.5t-30.5 74t-73.5 31t-75 -31t-32 -74zM362 1450q0 -44 31 -74t74 -30 t74.5 30t31.5 74q0 43 -31.5 74.5t-74.5 31.5t-74 -31.5t-31 -74.5zM498 1212q0 -43 32 -74.5t76 -31.5q43 0 75 31.5t32 74.5t-32 74t-75 31q-44 0 -76 -31t-32 -74z" />
<glyph unicode="&#x6cc;" horiz-adv-x="593" arabic-form="initial" d="M-25 0h158q176 0 281 102q104 101 104 260v562l-192 -58v-489q0 -209 -203 -209h-148v-168zM-12 -287q0 -43 31.5 -74.5t74.5 -31.5q42 0 73.5 31.5t31.5 74.5q0 42 -31.5 73.5t-73.5 31.5q-43 0 -74.5 -31t-31.5 -74zM262 -287q0 -43 32.5 -74.5t76.5 -31.5 q43 0 73.5 31.5t30.5 74.5t-30.5 74t-73.5 31q-44 0 -76.5 -31t-32.5 -74z" />
<glyph unicode="&#x6cc;" horiz-adv-x="796" arabic-form="medial" d="M-25 0h148q185 0 291 109q106 -109 284 -109h123v168h-110q-203 0 -203 203v553l-193 -58v-489q0 -209 -204 -209h-136v-168zM172 -287q0 -43 30 -74.5t74 -31.5q43 0 75 31.5t32 74.5t-32 74t-75 31q-44 0 -74 -31t-30 -74zM446 -287q0 -43 31 -74.5t74 -31.5t74.5 31.5 t31.5 74.5t-31.5 74t-74.5 31t-74 -31t-31 -74z" />
<glyph unicode="&#xfd3c;" horiz-adv-x="561" arabic-form="final" d="M8 1395q216 13 311 26q83 9 111 95l-317 -48q-62 9 -105 -73zM45 1493l320 41q64 0 92 78l-283 -45q-53 -9 -74 -19q-32 -13 -55 -55zM100 264q0 -121 71.5 -192.5t199.5 -71.5h217v172h-193q-100 0 -100 98v1051l-195 -61v-996z" />
<glyph unicode="&#xfd3d;" horiz-adv-x="370" arabic-form="isolated" d="M8 1395q216 13 311 26q83 9 111 95l-317 -48q-62 9 -105 -73zM45 1493l320 41q64 0 92 78l-283 -45q-53 -9 -74 -19q-32 -13 -55 -55zM100 0h195v1321l-195 -61v-1260z" />
<glyph unicode="&#x622;" horiz-adv-x="561" arabic-form="final" d="M-82 1479l90 -64q56 53 121 53q33 0 96 -32q70 -31 123 -31q81 0 197 84l-90 65q-59 -53 -107 -53q-31 0 -104 31q-67 33 -129 33q-82 0 -197 -86zM100 264q0 -121 71.5 -192.5t199.5 -71.5h217v172h-193q-100 0 -100 98v1051l-195 -61v-996z" />
<glyph unicode="&#x623;" horiz-adv-x="561" arabic-form="final" d="M23 1399h337v69h-161v41q0 72 49 72q33 0 55 -31l45 58q-43 43 -94 43q-131 0 -131 -142v-41h-57zM100 264q0 -121 71.5 -192.5t199.5 -71.5h217v172h-193q-100 0 -100 98v1051l-195 -61v-996z" />
<glyph unicode="&#x624;" horiz-adv-x="1093" arabic-form="final" d="M100 418q0 -184 105 -295q111 -120 317 -123h160q-12 -93 -78.5 -157.5t-161.5 -65.5q-148 -6 -321 71l86 -188q83 -53 239 -53q181 0 297 119q107 107 134 274h241v168h-223q4 204 4 250q0 479 -391 479q-209 0 -318 -152q-90 -128 -90 -327zM158 1008h585v106h-297v51 q0 125 105 125q53 0 94 -53l80 80q-76 76 -160 76q-106 0 -167.5 -69t-61.5 -175v-35h-92zM295 418q0 309 213 309q126 0 170 -102q27 -64 27 -207l-3 -250h-180q-227 0 -227 250z" />
<glyph unicode="&#x625;" horiz-adv-x="561" arabic-form="final" d="M23 -399h337v71h-161v39q0 72 49 72q33 0 55 -31l45 58q-43 43 -94 43q-129 0 -129 -142v-39h-59zM100 264q0 -121 71.5 -192.5t199.5 -71.5h217v172h-193q-100 0 -100 98v1051l-195 -61v-996z" />
<glyph unicode="&#x626;" horiz-adv-x="1136" arabic-form="final" d="M-106 727h661v117h-338v63q0 135 119 135q62 0 104 -57l92 90q-83 86 -182 86q-119 0 -187.5 -77t-68.5 -199v-41h-102zM100 119q0 -229 123 -361q139 -151 410 -151q230 0 364 94q152 106 140 299v168h-84q-97 0 -147 37t-89 135l-90 -184q61 -141 252 -156 q-12 -143 -135 -190q-64 -27 -211 -27q-169 -1 -258.5 96.5t-89.5 276.5q0 210 121 479l-224 -135q-82 -195 -82 -381z" />
<glyph unicode="&#x626;" horiz-adv-x="495" arabic-form="initial" d="M-84 1063h580v119h-295v59q0 137 116 137q65 0 107 -57l90 90q-83 86 -182 86q-118 0 -187 -77.5t-69 -196.5v-41h-62zM-23 0h60q173 0 278 102t105 260v562l-193 -58v-489q0 -209 -202 -209h-48v-168z" />
<glyph unicode="&#x626;" horiz-adv-x="796" arabic-form="medial" d="M-25 0h148q185 0 291 109q106 -109 284 -109h123v168h-110q-203 0 -203 203v553l-193 -58v-489q0 -209 -204 -209h-136v-168zM-12 1063h600v119h-305v59q0 137 114 137q65 0 107 -57l90 90q-83 86 -180 86q-119 0 -188.5 -77.5t-69.5 -196.5v-41h-70z" />
<glyph unicode="&#x627;" horiz-adv-x="561" arabic-form="final" d="M100 264q0 -121 71.5 -192.5t199.5 -71.5h217v172h-193q-100 0 -100 98v1051l-195 -61v-996z" />
<glyph unicode="&#x628;" horiz-adv-x="1892" arabic-form="final" d="M100 352q0 -158 101.5 -255t267.5 -97h727q225 0 328 152q90 -152 297 -152h96v172h-84q-252 0 -252 264v488l-190 -52v-499q0 -201 -205 -201h-690q-203 0 -203 201v383l-193 -197v-207zM764 -289q0 -43 30.5 -74.5t73.5 -31.5t75 31.5t32 74.5q0 41 -32 73t-75 32 q-42 0 -73 -31.5t-31 -73.5z" />
<glyph unicode="&#x628;" horiz-adv-x="593" arabic-form="initial" d="M-25 0h158q176 0 281 102q104 101 104 260v562l-192 -58v-489q0 -209 -203 -209h-148v-168zM184 -287q0 -43 32 -74.5t73 -31.5q43 0 74.5 31.5t31.5 74.5t-31.5 74t-74.5 31q-42 0 -73.5 -31.5t-31.5 -73.5z" />
<glyph unicode="&#x628;" horiz-adv-x="796" arabic-form="medial" d="M-25 0h148q185 0 291 109q106 -109 284 -109h123v168h-110q-203 0 -203 203v553l-193 -58v-489q0 -209 -204 -209h-136v-168zM317 -289q0 -43 32 -74.5t75 -31.5t73.5 31.5t30.5 74.5q0 42 -31 73.5t-73 31.5q-43 0 -75 -32t-32 -73z" />
<glyph unicode="&#x629;" horiz-adv-x="1206" arabic-form="final" d="M100 469q0 -469 392 -469q231 0 301 143q64 -143 305 -143h133v168h-123q-201 0 -201 209v547h-415q-392 0 -392 -455zM295 469q0 152 41 217q47 80 168 80h209v-297q0 -151 -41 -219q-46 -82 -168 -82t-168 82q-41 68 -41 219zM319 1212q0 -43 32 -74.5t75 -31.5 q44 0 76.5 31.5t32.5 74.5t-32.5 74t-76.5 31q-43 0 -75 -31t-32 -74zM598 1212q0 -43 30.5 -74.5t73.5 -31.5t75 31.5t32 74.5t-32 74t-75 31t-73.5 -31t-30.5 -74z" />
<glyph unicode="&#x62a;" horiz-adv-x="1892" arabic-form="final" d="M100 352q0 -158 101.5 -255t267.5 -97h727q225 0 328 152q90 -152 297 -152h96v172h-84q-252 0 -252 264v488l-190 -52v-499q0 -201 -205 -201h-690q-203 0 -203 201v383l-193 -197v-207zM600 899q0 -44 31 -75t74 -31t74.5 31t31.5 75q0 43 -31.5 75t-74.5 32t-74 -32 t-31 -75zM874 899q0 -44 31.5 -75t73.5 -31q43 0 74.5 31t31.5 75q0 43 -31.5 75t-74.5 32q-41 0 -73 -32t-32 -75z" />
<glyph unicode="&#x62a;" horiz-adv-x="593" arabic-form="initial" d="M-25 0h158q176 0 281 102q104 101 104 260v562l-192 -58v-489q0 -209 -203 -209h-148v-168zM45 1212q0 -43 32 -74.5t75 -31.5t73.5 31.5t30.5 74.5t-30.5 74t-73.5 31t-75 -31t-32 -74zM319 1212q0 -43 32 -74.5t75 -31.5q44 0 75 31.5t31 74.5t-31 74t-75 31 q-43 0 -75 -31t-32 -74z" />
<glyph unicode="&#x62a;" horiz-adv-x="796" arabic-form="medial" d="M-25 0h148q185 0 291 109q106 -109 284 -109h123v168h-110q-203 0 -203 203v553l-193 -58v-489q0 -209 -204 -209h-136v-168zM162 1212q0 -43 30 -74.5t74 -31.5q43 0 75 31.5t32 74.5t-32 74t-75 31q-44 0 -74 -31t-30 -74zM436 1212q0 -42 32 -74t73 -32 q43 0 74.5 31.5t31.5 74.5t-31.5 74t-74.5 31q-42 0 -73.5 -31.5t-31.5 -73.5z" />
<glyph unicode="&#x62b;" horiz-adv-x="1892" arabic-form="final" d="M100 352q0 -158 101.5 -255t267.5 -97h727q225 0 328 152q90 -152 297 -152h96v172h-84q-252 0 -252 264v488l-190 -52v-499q0 -201 -205 -201h-690q-203 0 -203 201v383l-193 -197v-207zM600 899q0 -44 31 -75t74 -31t74.5 31t31.5 75q0 43 -31.5 75t-74.5 32t-74 -32 t-31 -75zM737 1137q0 -43 32 -75t75 -32t74.5 32t31.5 75t-31.5 73.5t-74.5 30.5t-75 -31t-32 -73zM874 899q0 -44 31.5 -75t73.5 -31q43 0 74.5 31t31.5 75q0 43 -31.5 75t-74.5 32q-41 0 -73 -32t-32 -75z" />
<glyph unicode="&#x62b;" horiz-adv-x="593" arabic-form="initial" d="M-25 0h158q176 0 281 102q104 101 104 260v562l-192 -58v-489q0 -209 -203 -209h-148v-168zM70 1212q0 -43 31.5 -74.5t74.5 -31.5t75 31.5t32 74.5t-32 74t-75 31t-74.5 -31t-31.5 -74zM209 1450q0 -44 31.5 -74t74.5 -30q44 0 74.5 30t30.5 74q0 43 -30.5 74.5 t-74.5 31.5q-43 0 -74.5 -31.5t-31.5 -74.5zM348 1212q0 -43 30.5 -74.5t74.5 -31.5q43 0 74.5 31.5t31.5 74.5t-31.5 74t-74.5 31q-44 0 -74.5 -31t-30.5 -74z" />
<glyph unicode="&#x62b;" horiz-adv-x="796" arabic-form="medial" d="M-25 0h148q185 0 291 109q106 -109 284 -109h123v168h-110q-203 0 -203 203v553l-193 -58v-489q0 -209 -204 -209h-136v-168zM166 1212q0 -43 31 -74.5t75 -31.5q43 0 74 31.5t31 74.5t-31 74t-74 31q-44 0 -75 -31t-31 -74zM305 1450q0 -43 31.5 -73.5t73.5 -30.5 q43 0 74.5 30t31.5 74q0 43 -31.5 74.5t-74.5 31.5q-42 0 -73.5 -32t-31.5 -74zM440 1212q0 -43 32 -74.5t75 -31.5t74.5 31.5t31.5 74.5t-31.5 74t-74.5 31t-75 -31t-32 -74z" />
<glyph unicode="&#x62c;" horiz-adv-x="1468" arabic-form="final" d="M100 98q0 -215 154 -354q152 -137 373 -137q179 0 317 78v206q-135 -114 -317 -114q-143 0 -235.5 89.5t-92.5 231.5q0 150 90.5 243t237.5 93h278q92 -434 504 -434h84v172h-55q-230 0 -332 205q-30 76 -86.5 221.5t-65.5 169.5q-114 209 -383 215q-211 3 -428 -205 l117 -108q156 147 311 147q189 0 281 -213h-225q-228 0 -379 -139q-148 -139 -148 -367zM532 117q0 -43 31 -75t74 -32t74.5 32t31.5 75q0 41 -31.5 72.5t-74.5 31.5t-74 -31.5t-31 -72.5z" />
<glyph unicode="&#x62c;" horiz-adv-x="1140" arabic-form="initial" d="M-25 0h1090v242q0 299 -80 456q-121 226 -430 226q-246 0 -453 -201l140 -129q146 158 313 158q201 0 268 -172q43 -104 43 -338v-74h-891v-168zM446 -287q0 -43 31 -74.5t74 -31.5t74.5 31.5t31.5 74.5t-31.5 74t-74.5 31t-74 -31t-31 -74z" />
<glyph unicode="&#x62c;" horiz-adv-x="1323" arabic-form="medial" d="M-25 0h1373v172h-254v70q0 301 -82 456q-121 226 -430 226q-244 0 -451 -201l139 -129q146 158 312 158q203 0 270 -172q43 -104 43 -338v-74h-920v-168zM473 -287q0 -43 32 -74.5t75 -31.5t74.5 31.5t31.5 74.5t-31.5 74t-74.5 31t-75 -31t-32 -74z" />
<glyph unicode="&#x62d;" horiz-adv-x="1468" arabic-form="final" d="M100 98q0 -215 154 -354q152 -137 373 -137q179 0 317 78v206q-135 -114 -317 -114q-143 0 -235.5 89.5t-92.5 231.5q0 150 90.5 243t237.5 93h278q92 -434 504 -434h84v172h-55q-230 0 -332 205q-30 76 -86.5 221.5t-65.5 169.5q-114 209 -383 215q-211 3 -428 -205 l117 -108q156 147 311 147q189 0 281 -213h-225q-228 0 -379 -139q-148 -139 -148 -367z" />
<glyph unicode="&#x62d;" horiz-adv-x="1140" arabic-form="initial" d="M-25 0h1090v242q0 299 -80 456q-121 226 -430 226q-246 0 -453 -201l140 -129q146 158 313 158q201 0 268 -172q43 -104 43 -338v-74h-891v-168z" />
<glyph unicode="&#x62d;" horiz-adv-x="1323" arabic-form="medial" d="M-25 0h1373v172h-254v70q0 301 -82 456q-121 226 -430 226q-244 0 -451 -201l139 -129q146 158 312 158q203 0 270 -172q43 -104 43 -338v-74h-920v-168z" />
<glyph unicode="&#x62e;" horiz-adv-x="1468" arabic-form="final" d="M100 98q0 -215 154 -354q152 -137 373 -137q179 0 317 78v206q-135 -114 -317 -114q-143 0 -235.5 89.5t-92.5 231.5q0 150 90.5 243t237.5 93h278q92 -434 504 -434h84v172h-55q-230 0 -332 205q-30 76 -86.5 221.5t-65.5 169.5q-114 209 -383 215q-211 3 -428 -205 l117 -108q156 147 311 147q189 0 281 -213h-225q-228 0 -379 -139q-148 -139 -148 -367zM475 1272q0 -43 32.5 -75t76.5 -32q43 0 74.5 32t31.5 75t-31.5 74.5t-74.5 31.5q-44 0 -76.5 -31.5t-32.5 -74.5z" />
<glyph unicode="&#x62e;" horiz-adv-x="1140" arabic-form="initial" d="M-25 0h1090v242q0 299 -80 456q-121 226 -430 226q-246 0 -453 -201l140 -129q146 158 313 158q201 0 268 -172q43 -104 43 -338v-74h-891v-168zM449 1212q0 -43 32 -74.5t76 -31.5q43 0 74 31.5t31 74.5t-31 74t-74 31q-44 0 -76 -31t-32 -74z" />
<glyph unicode="&#x62e;" horiz-adv-x="1323" arabic-form="medial" d="M-25 0h1373v172h-254v70q0 301 -82 456q-121 226 -430 226q-244 0 -451 -201l139 -129q146 158 312 158q203 0 270 -172q43 -104 43 -338v-74h-920v-168zM475 1212q0 -43 32.5 -74.5t76.5 -31.5q43 0 74.5 31.5t31.5 74.5t-31.5 74t-74.5 31q-44 0 -76.5 -31t-32.5 -74z " />
<glyph unicode="&#x62f;" horiz-adv-x="1165" arabic-form="final" d="M100 0h1092v172h-279v399q0 161 -112 254q-117 97 -293 97q-138 0 -277 -121v-221q102 178 277 178q213 0 213 -201v-389h-504z" />
<glyph unicode="&#x630;" horiz-adv-x="1165" arabic-form="final" d="M100 0h1092v172h-279v399q0 161 -112 254q-117 97 -293 97q-138 0 -277 -121v-221q102 178 277 178q213 0 213 -201v-389h-504zM428 1212q0 -43 32 -74.5t75 -31.5t73.5 31.5t30.5 74.5q0 44 -30.5 76.5t-73.5 32.5t-75 -32.5t-32 -76.5z" />
<glyph unicode="&#x631;" horiz-adv-x="985" arabic-form="final" d="M-51 -145l92 -193q88 -55 219 -55q196 0 317 106t142 287h291v172h-289v752l-195 -58v-811q0 -129 -71 -203.5t-195 -74.5q-170 0 -311 78z" />
<glyph unicode="&#x632;" horiz-adv-x="985" arabic-form="final" d="M-51 -145l92 -193q88 -55 219 -55q196 0 317 106t142 287h291v172h-289v752l-195 -58v-811q0 -129 -71 -203.5t-195 -74.5q-170 0 -311 78zM504 1212q0 -43 31.5 -74.5t74.5 -31.5t74 31.5t31 74.5q0 44 -31 76.5t-74 32.5t-74.5 -32.5t-31.5 -76.5z" />
<glyph unicode="&#x633;" horiz-adv-x="2643" arabic-form="final" d="M100 348q-6 -351 88 -514q131 -227 500 -227q523 0 547 393h1431v172h-221v752l-194 -58v-694h-410v662l-194 -58v-604h-410v559l-195 -59v-611q0 -278 -352 -278q-215 0 -306 102t-91 342v179z" />
<glyph unicode="&#x633;" horiz-adv-x="1697" arabic-form="initial" d="M-20 0h1251q176 0 280.5 96.5t104.5 255.5v576l-195 -60v-495q0 -201 -200 -201h-209v664l-195 -58v-610h-401v577l-195 -55v-518h-241v-172z" />
<glyph unicode="&#x633;" horiz-adv-x="1822" arabic-form="medial" d="M-20 0h1861v172h-221v752l-195 -58v-694h-409v662l-195 -58v-604h-405v573l-195 -55v-518h-241v-172z" />
<glyph unicode="&#x634;" horiz-adv-x="2643" arabic-form="final" d="M100 348q-6 -351 88 -514q131 -227 500 -227q523 0 547 393h1431v172h-221v752l-194 -58v-694h-410v662l-194 -58v-604h-410v559l-195 -59v-611q0 -278 -352 -278q-215 0 -306 102t-91 342v179zM1491 1212q0 -43 30.5 -74.5t73.5 -31.5t75 31.5t32 74.5q0 44 -32 76.5 t-75 32.5t-73.5 -32.5t-30.5 -76.5zM1628 1450q0 -41 32 -72.5t75 -31.5t74.5 31.5t31.5 72.5q0 43 -31.5 74.5t-74.5 31.5t-75 -31.5t-32 -74.5zM1765 1212q0 -43 31.5 -74.5t75.5 -31.5q43 0 74.5 31.5t31.5 74.5q0 44 -31.5 76.5t-74.5 32.5q-44 0 -75.5 -32.5 t-31.5 -76.5z" />
<glyph unicode="&#x634;" horiz-adv-x="1697" arabic-form="initial" d="M-20 0h1251q176 0 280.5 96.5t104.5 255.5v576l-195 -60v-495q0 -201 -200 -201h-209v664l-195 -58v-610h-401v577l-195 -55v-518h-241v-172zM662 1212q0 -43 30 -74.5t74 -31.5q43 0 74.5 31.5t31.5 74.5q0 44 -31.5 76.5t-74.5 32.5q-44 0 -74 -32t-30 -77zM799 1450 q0 -41 31.5 -72.5t74.5 -31.5t75 31.5t32 72.5q0 43 -32 74.5t-75 31.5t-74.5 -31.5t-31.5 -74.5zM936 1212q0 -43 30.5 -74.5t73.5 -31.5t75 31.5t32 74.5q0 44 -32 76.5t-75 32.5t-73.5 -32.5t-30.5 -76.5z" />
<glyph unicode="&#x634;" horiz-adv-x="1822" arabic-form="medial" d="M-20 0h1861v172h-221v752l-195 -58v-694h-409v662l-195 -58v-604h-405v573l-195 -55v-518h-241v-172zM666 1212q0 -43 30.5 -74.5t73.5 -31.5t75 31.5t32 74.5q0 44 -32 76.5t-75 32.5t-73.5 -32.5t-30.5 -76.5zM803 1450q0 -41 31.5 -72.5t74.5 -31.5t75 31.5t32 72.5 q0 43 -32 74.5t-75 31.5t-74.5 -31.5t-31.5 -74.5zM940 1212q0 -43 31.5 -74.5t75.5 -31.5q43 0 74.5 31.5t31.5 74.5q0 44 -31.5 76.5t-74.5 32.5q-44 0 -75.5 -32.5t-31.5 -76.5z" />
<glyph unicode="&#x635;" horiz-adv-x="2609" arabic-form="final" d="M100 348q-6 -351 88 -514q131 -227 500 -227q523 0 547 393h1393v172h-174q12 331 -93 506q-151 244 -450 235q-343 -9 -535 -303q-98 -146 -139 -319v440l-195 -59v-611q0 -278 -352 -278q-215 0 -306 102t-91 342v179zM1343 172q12 173 175 354q182 209 397 209 q177 0 272 -147q76 -125 76 -316q0 -50 -6 -100h-914z" />
<glyph unicode="&#x635;" horiz-adv-x="1720" arabic-form="initial" d="M-20 0h1638l12 260q0 266 -94 418q-151 244 -451 235q-341 -9 -534 -303q-95 -142 -135 -303v438l-195 -55v-518h-241v-172zM518 172q12 174 174 354q182 209 398 209q177 0 272 -147q76 -125 76 -316q0 -50 -6 -100h-914z" />
<glyph unicode="&#x635;" horiz-adv-x="1779" arabic-form="medial" d="M-20 0h1818v172h-174q12 332 -92 506q-151 244 -451 235q-341 -9 -534 -303q-91 -136 -131 -286v421l-195 -55v-518h-241v-172zM514 172q12 174 174 354q182 209 397 209q179 0 273 -147q76 -125 76 -316q0 -42 -7 -100h-913z" />
<glyph unicode="&#x636;" horiz-adv-x="2609" arabic-form="final" d="M100 348q-6 -351 88 -514q131 -227 500 -227q523 0 547 393h1393v172h-174q12 331 -93 506q-151 244 -450 235q-343 -9 -535 -303q-98 -146 -139 -319v440l-195 -59v-611q0 -278 -352 -278q-215 0 -306 102t-91 342v179zM1343 172q12 173 175 354q182 209 397 209 q177 0 272 -147q76 -125 76 -316q0 -50 -6 -100h-914zM1815 1214q0 -44 32.5 -75t79.5 -31q45 0 78 31t33 75q0 43 -33.5 75t-77.5 32q-47 0 -79.5 -32t-32.5 -75z" />
<glyph unicode="&#x636;" horiz-adv-x="1720" arabic-form="initial" d="M-20 0h1638l12 260q0 266 -94 418q-151 244 -451 235q-341 -9 -534 -303q-95 -142 -135 -303v438l-195 -55v-518h-241v-172zM518 172q12 174 174 354q182 209 398 209q177 0 272 -147q76 -125 76 -316q0 -50 -6 -100h-914zM989 1214q0 -44 33 -75t80 -31q45 0 77.5 31 t32.5 75q0 43 -33 75t-77 32q-47 0 -80 -32t-33 -75z" />
<glyph unicode="&#x636;" horiz-adv-x="1779" arabic-form="medial" d="M-20 0h1818v172h-174q12 332 -92 506q-151 244 -451 235q-341 -9 -534 -303q-91 -136 -131 -286v421l-195 -55v-518h-241v-172zM514 172q12 174 174 354q182 209 397 209q179 0 273 -147q76 -125 76 -316q0 -42 -7 -100h-913zM985 1214q0 -44 33 -75t80 -31q45 0 77.5 31 t32.5 75q0 43 -33 75t-77 32q-47 0 -80 -32t-33 -75z" />
<glyph unicode="&#x637;" horiz-adv-x="1806" arabic-form="final" d="M100 0h1731v172h-203q15 338 -88 506q-151 244 -453 235q-357 -9 -555 -329v700l-194 -59v-1053h-154zM524 172q47 197 191 367q183 207 387 198q170 -9 260 -137q82 -143 82 -336q0 -46 -6 -92h-914z" />
<glyph unicode="&#x637;" horiz-adv-x="1587" arabic-form="initial" d="M-33 0h1536q0 15 4 141t4 142q0 242 -90 395q-151 244 -450 235q-359 -9 -557 -329v700l-195 -59v-1053h-252v-172zM406 172q47 200 192 367q180 207 385 198q169 -9 262 -137q80 -145 80 -336q0 -30 -4 -92h-915z" />
<glyph unicode="&#x637;" horiz-adv-x="1685" arabic-form="medial" d="M-33 0h1743v172h-201q12 341 -92 506q-148 244 -446 235q-362 -9 -557 -329v700l-195 -59v-1053h-252v-172zM406 172q44 200 192 367q177 207 381 198q173 -9 266 -137q80 -145 80 -336q0 -51 -8 -92h-911z" />
<glyph unicode="&#x638;" horiz-adv-x="1806" arabic-form="final" d="M100 0h1731v172h-203q15 338 -88 506q-151 244 -453 235q-357 -9 -555 -329v700l-194 -59v-1053h-154zM524 172q47 197 191 367q183 207 387 198q170 -9 260 -137q82 -143 82 -336q0 -46 -6 -92h-914zM973 1212q0 -43 31.5 -74.5t72.5 -31.5q43 0 75 31.5t32 74.5 q0 44 -32 76.5t-75 32.5q-41 0 -72.5 -32.5t-31.5 -76.5z" />
<glyph unicode="&#x638;" horiz-adv-x="1587" arabic-form="initial" d="M-33 0h1536q0 15 4 141t4 142q0 242 -90 395q-151 244 -450 235q-359 -9 -557 -329v700l-195 -59v-1053h-252v-172zM406 172q47 200 192 367q177 207 385 198q169 -9 262 -137q80 -145 80 -336q0 -30 -4 -92h-915zM854 1212q0 -43 32 -74.5t75 -31.5t73.5 31.5t30.5 74.5 q0 44 -30.5 76.5t-73.5 32.5t-75 -32.5t-32 -76.5z" />
<glyph unicode="&#x638;" horiz-adv-x="1685" arabic-form="medial" d="M-33 0h1743v172h-201q12 341 -92 506q-148 244 -446 235q-362 -9 -557 -329v700l-195 -59v-1053h-252v-172zM406 172q44 200 192 367q177 207 381 198q173 -9 266 -137q80 -145 80 -336q0 -51 -8 -92h-911zM852 1212q0 -43 30.5 -74.5t73.5 -31.5q46 0 76.5 31t30.5 75 q0 45 -30.5 77t-76.5 32q-43 0 -73.5 -32.5t-30.5 -76.5z" />
<glyph unicode="&#x639;" horiz-adv-x="1105" arabic-form="final" d="M100 78q0 -210 148 -340q149 -131 379 -131q180 0 319 80l-2 211q-104 -83 -170 -103q-56 -16 -147 -16q-153 0 -240.5 79.5t-87.5 219.5q0 154 89 250t239 96h59v-186q0 -238 219 -238h225v172h-112q-141 0 -141 150v102h165l-100 170h-362v43q0 139 120 139 q84 0 134 -71l129 126q-98 113 -244 113q-157 0 -244 -96q-84 -96 -84 -234v-67q-137 -62 -214 -186t-77 -283z" />
<glyph unicode="&#x639;" horiz-adv-x="1148" arabic-form="initial" d="M-20 0h1093l-145 172h-527v383q0 90 53.5 147.5t143.5 57.5q93 0 166 -88l145 131q-124 121 -288 121q-195 0 -306 -117q-108 -114 -108 -285v-350h-227v-172z" />
<glyph unicode="&#x639;" horiz-adv-x="1085" arabic-form="medial" d="M-25 0h1135v172h-707v383q0 89 55 147t142 58q95 0 168 -88l143 131q-124 121 -288 121q-194 0 -306 -115q-108 -114 -108 -287v-350h-234v-172z" />
<glyph unicode="&#x63a;" horiz-adv-x="1105" arabic-form="final" d="M100 78q0 -210 148 -340q149 -131 379 -131q180 0 319 80l-2 211q-104 -83 -170 -103q-56 -16 -147 -16q-153 0 -240.5 79.5t-87.5 219.5q0 154 89 250t239 96h59v-186q0 -238 219 -238h225v172h-112q-141 0 -141 150v102h165l-100 170h-362v43q0 139 120 139 q84 0 134 -71l129 126q-98 113 -244 113q-157 0 -244 -96q-84 -96 -84 -234v-67q-137 -62 -214 -186t-77 -283zM606 1212q0 -43 32 -74.5t75 -31.5t74.5 31.5t31.5 74.5t-31.5 74t-74.5 31t-75 -31t-32 -74z" />
<glyph unicode="&#x63a;" horiz-adv-x="1148" arabic-form="initial" d="M-20 0h1093l-145 172h-527v383q0 90 53.5 147.5t143.5 57.5q93 0 166 -88l145 131q-124 121 -288 121q-195 0 -306 -117q-108 -114 -108 -285v-350h-227v-172zM500 1212q0 -43 30.5 -74.5t73.5 -31.5t75 31.5t32 74.5q0 44 -32 76.5t-75 32.5t-73.5 -32.5t-30.5 -76.5z " />
<glyph unicode="&#x63a;" horiz-adv-x="1085" arabic-form="medial" d="M-25 0h1135v172h-707v383q0 89 55 147t142 58q95 0 168 -88l143 131q-124 121 -288 121q-194 0 -306 -115q-108 -114 -108 -287v-350h-234v-172zM502 1212q0 -43 31.5 -74.5t72.5 -31.5q43 0 75 31.5t32 74.5q0 44 -32 76.5t-75 32.5q-41 0 -72.5 -32.5t-31.5 -76.5z" />
<glyph unicode="&#x641;" horiz-adv-x="1716" arabic-form="final" d="M100 352q0 -158 101.5 -255t267.5 -97h590q59 0 121 12q58 -12 116 -12h445v168h-291q126 138 129 291q6 195 -82 317q-106 148 -321 148q-212 0 -318 -148q-88 -122 -82 -317q3 -152 129 -287h-409q-203 0 -203 201v383l-193 -197v-207zM965 508q0 107 57 175.5 t158 68.5q100 0 156.5 -68t56.5 -176q0 -100 -54 -191q-60 -98 -159 -131q-102 33 -162 131q-53 89 -53 191zM1073 1212q0 -43 32 -74.5t75 -31.5t73.5 31.5t30.5 74.5q0 44 -30.5 76.5t-73.5 32.5t-75 -32.5t-32 -76.5z" />
<glyph unicode="&#x641;" horiz-adv-x="1011" arabic-form="initial" d="M-25 0h584q186 0 270 63q109 77 109 259v313q0 133 -96 223q-108 105 -316 105q-184 0 -290.5 -89t-106.5 -239q0 -165 66 -240q76 -88 272 -88h276q0 -96 -65 -123q-34 -12 -143 -12h-560v-172zM322 629q0 162 204 162q217 0 217 -162v-158h-237q-123 0 -154 25 q-30 27 -30 133zM420 1212q0 -43 31.5 -74.5t74.5 -31.5t75 31.5t32 74.5t-32 74t-75 31t-74.5 -31t-31.5 -74z" />
<glyph unicode="&#x641;" horiz-adv-x="1087" arabic-form="medial" d="M-25 0h453q62 0 121 12q61 -12 121 -12h444v168h-293q125 137 131 291q3 192 -84 317q-106 148 -319 148q-211 0 -320 -148q-85 -122 -79 -317q3 -156 126 -291h-301v-168zM336 500q0 108 58 180t155 72q101 0 158 -71.5t57 -180.5q0 -108 -53 -197q-59 -103 -162 -137 q-100 34 -162 137q-51 86 -51 197zM442 1212q0 -43 32 -74.5t75 -31.5t74.5 31.5t31.5 74.5q0 44 -31.5 76.5t-74.5 32.5t-75 -32.5t-32 -76.5z" />
<glyph unicode="&#x642;" horiz-adv-x="1400" arabic-form="final" d="M100 244q24 -331 133 -467q135 -170 457 -170q518 0 545 393h190v168h-188v266q0 199 -84 330q-103 160 -317 160q-211 0 -320 -160q-82 -131 -82 -330q0 -434 443 -434h167q-3 -214 -352 -211q-226 0 -321 115q-97 117 -97 403zM602 1212q0 -43 32 -74.5t75 -31.5 q44 0 76 31.5t32 74.5t-32 74t-76 31q-43 0 -75 -31t-32 -74zM627 434q0 320 209 320q208 0 208 -320v-262h-163q-135 0 -189 51q-65 62 -65 211zM879 1212q0 -43 31.5 -74.5t74.5 -31.5t75 31.5t32 74.5t-32 74t-75 31t-74.5 -31t-31.5 -74z" />
<glyph unicode="&#x642;" horiz-adv-x="1011" arabic-form="initial" d="M-25 0h584q186 0 270 63q109 77 109 259v313q0 133 -96 223q-108 105 -316 105q-184 0 -290.5 -89t-106.5 -239q0 -165 66 -240q76 -88 272 -88h276q0 -96 -65 -123q-34 -12 -143 -12h-560v-172zM270 1212q0 -43 31 -74.5t74 -31.5q44 0 76 31.5t32 74.5t-32 74t-76 31 q-43 0 -74 -31t-31 -74zM322 629q0 162 204 162q217 0 217 -162v-158h-237q-123 0 -154 25q-30 27 -30 133zM547 1212q0 -43 31.5 -74.5t74.5 -31.5q41 0 73 32t32 74t-31.5 73.5t-73.5 31.5q-43 0 -74.5 -31t-31.5 -74z" />
<glyph unicode="&#x642;" horiz-adv-x="1087" arabic-form="medial" d="M-25 0h453q62 0 121 12q61 -12 121 -12h444v168h-293q125 137 131 291q3 192 -84 317q-106 148 -319 148q-211 0 -320 -148q-85 -122 -79 -317q3 -156 126 -291h-301v-168zM297 1212q0 -43 31.5 -74.5t74.5 -31.5q44 0 76.5 31.5t32.5 74.5t-32.5 74t-76.5 31 q-43 0 -74.5 -31t-31.5 -74zM336 500q0 108 58 180t155 72q101 0 158 -71.5t57 -180.5q0 -108 -53 -197q-59 -103 -162 -137q-100 34 -162 137q-51 86 -51 197zM573 1212q0 -43 32 -74.5t75 -31.5t74.5 31.5t31.5 74.5t-31.5 74t-74.5 31t-75 -31t-32 -74z" />
<glyph unicode="&#x643;" horiz-adv-x="1882" arabic-form="final" d="M100 352q0 -158 101.5 -255t267.5 -97h727q223 0 324 143q94 -143 301 -143h86v172h-74q-252 0 -252 262v887l-190 -57v-891q0 -201 -205 -201h-690q-203 0 -203 201v383l-193 -197v-207zM496 614h657v119h-334v60q0 139 119 139q58 0 104 -58l91 89q-83 86 -181 86 q-118 0 -188 -78t-70 -197v-41h-100z" />
<glyph unicode="&#x643;" horiz-adv-x="1212" arabic-form="initial" d="M-25 0h1162q0 340 -7 391q-24 211 -169 338q-144 129 -357 129q-44 0 -90 -6l442 465h-254l-636 -664l133 -125q139 160 358 160q170 0 274 -98q78 -72 99 -199q11 -77 8 -223h-963v-168z" />
<glyph unicode="&#x643;" horiz-adv-x="1361" arabic-form="medial" d="M-25 0h1414v172h-250q2 83 -2 174q-18 226 -158 369q-143 143 -375 143q-44 0 -90 -6l442 465h-254l-636 -664l133 -125q139 160 358 160q170 0 274 -98q78 -72 99 -199q11 -77 8 -223h-963v-168z" />
<glyph unicode="&#x644;" horiz-adv-x="1501" arabic-form="final" d="M100 244q27 -319 144 -467q138 -170 446 -170q510 0 545 393h291v172h-289v1145l-195 -60v-1206q0 -147 -96 -213q-79 -49 -254 -49q-220 0 -309 115q-88 113 -88 403z" />
<glyph unicode="&#x644;" horiz-adv-x="567" arabic-form="initial" d="M-25 0h131q176 0 281 102q105 105 105 260v955l-195 -57v-879q0 -209 -201 -209h-121v-172z" />
<glyph unicode="&#x644;" horiz-adv-x="823" arabic-form="medial" d="M-25 0h166q187 0 289 111q108 -111 285 -111h135v172h-123q-201 0 -201 199v950l-194 -61v-879q0 -209 -203 -209h-154v-172z" />
<glyph unicode="&#x645;" horiz-adv-x="1695" arabic-form="final" d="M100 -397l195 57v854q0 141 65 188q58 43 224 43h110q-59 -103 -59 -272q0 -186 84 -305q101 -137 311 -137t313 145q83 -176 320 -176h57v172h-45q-142 0 -200 82q-52 70 -52 219q0 192 -80 307q-102 144 -313 144h-483q-219 0 -326 -84q-121 -100 -121 -326v-911z M829 473q0 281 201 281t201 -281q0 -272 -201 -272t-201 272z" />
<glyph unicode="&#x645;" horiz-adv-x="1124" arabic-form="initial" d="M-25 0h93q201 0 301 109q109 -109 284 -109q209 0 312 139q84 116 84 299q0 184 -84 303q-102 138 -312 138q-211 0 -313 -138q-84 -119 -84 -303v-65q0 -205 -201 -205h-80v-168zM451 438q0 275 202 275q201 0 201 -275q0 -272 -201 -272q-202 0 -202 272z" />
<glyph unicode="&#x645;" horiz-adv-x="1361" arabic-form="medial" d="M-35 0h66q165 0 254 102q41 -116 145.5 -180.5t245.5 -64.5q149 0 254.5 72t142.5 200q99 -129 281 -129h26v172l-41 -4q-217 0 -252 201q-28 185 -114 266q-100 92 -297 92q-362 0 -414 -358q-24 -197 -244 -197h-53v-172zM459 293q0 272 217 272q215 0 215 -272 q0 -273 -215 -273q-217 0 -217 273z" />
<glyph unicode="&#x646;" horiz-adv-x="1544" arabic-form="final" d="M100 348q-6 -351 88 -514q131 -227 500 -227q520 0 547 393h334v172h-332v559l-195 -59v-611q0 -278 -352 -278q-215 0 -306 102t-91 342v179zM565 578q0 -43 31 -75t74 -32t74.5 32t31.5 75t-31.5 73.5t-74.5 30.5t-74 -30.5t-31 -73.5z" />
<glyph unicode="&#x646;" horiz-adv-x="593" arabic-form="initial" d="M-25 0h158q176 0 281 102q104 101 104 260v562l-192 -58v-489q0 -209 -203 -209h-148v-168zM184 1212q0 -42 32 -74t73 -32q43 0 74.5 31.5t31.5 74.5q0 44 -31.5 76.5t-74.5 32.5q-42 0 -73.5 -32.5t-31.5 -76.5z" />
<glyph unicode="&#x646;" horiz-adv-x="796" arabic-form="medial" d="M-25 0h148q185 0 291 109q106 -109 284 -109h123v168h-110q-203 0 -203 203v553l-193 -58v-489q0 -209 -204 -209h-136v-168zM299 1212q0 -43 32 -74.5t75 -31.5t74.5 31.5t31.5 74.5t-31.5 74t-74.5 31t-75 -31t-32 -74z" />
<glyph unicode="&#x647;" horiz-adv-x="1206" arabic-form="final" d="M100 469q0 -469 392 -469q231 0 301 143q64 -143 305 -143h133v168h-123q-201 0 -201 209v547h-415q-392 0 -392 -455zM295 469q0 152 41 217q47 80 168 80h209v-297q0 -151 -41 -219q-46 -82 -168 -82t-168 82q-41 68 -41 219z" />
<glyph unicode="&#x647;" horiz-adv-x="1130" arabic-form="initial" d="M-31 0h1086v338q0 298 -80 446q-120 211 -436 211h-246l-223 -172h444q219 0 289 -137q53 -100 53 -348v-166h-184q55 67 55 219q0 131 -57 211q-70 107 -217 107t-220 -107q-57 -80 -57 -211q0 -192 64 -219h-271v-172zM332 391q0 178 121 178q120 0 120 -178 q0 -223 -120 -223q-121 0 -121 223z" />
<glyph unicode="&#x647;" horiz-adv-x="1421" arabic-form="medial" d="M-25 0h1471v172h-211v88q0 237 -23 352q-27 140 -120 224q-141 129 -369 129t-373 -177q-142 -177 -139 -428q3 -114 39 -188h-275v-172zM385 371q0 88 41 159q44 72 111 72q66 0 110 -72q43 -70 43 -159q0 -88 -40 -143.5t-113 -55.5t-112.5 55.5t-39.5 143.5zM545 760 q65 33 178 33q228 3 289 -177q32 -82 32 -356v-88h-243q63 45 63 197q0 153 -73 260q-88 131 -246 131z" />
<glyph unicode="&#x648;" horiz-adv-x="1093" arabic-form="final" d="M100 418q0 -184 105 -295q111 -120 317 -123h160q-12 -93 -78.5 -157.5t-161.5 -65.5q-148 -6 -321 71l86 -188q83 -53 239 -53q181 0 297 119q107 107 134 274h241v168h-223q4 204 4 250q0 479 -391 479q-209 0 -318 -152q-90 -128 -90 -327zM295 418q0 309 213 309 q126 0 170 -102q27 -64 27 -207l-3 -250h-180q-227 0 -227 250z" />
<glyph unicode="&#x649;" horiz-adv-x="1136" arabic-form="final" d="M100 119q0 -229 123 -361q139 -151 410 -151q230 0 364 94q152 106 140 299v168h-84q-97 0 -147 37t-89 135l-90 -184q61 -141 252 -156q-12 -143 -135 -190q-64 -27 -211 -27q-169 -1 -258.5 96.5t-89.5 276.5q0 210 121 479l-224 -135q-82 -195 -82 -381z" />
<glyph unicode="&#x64a;" horiz-adv-x="1136" arabic-form="final" d="M100 119q0 -229 123 -361q139 -151 410 -151q230 0 364 94q152 106 140 299v168h-84q-97 0 -147 37t-89 135l-90 -184q61 -141 252 -156q-12 -143 -135 -190q-64 -27 -211 -27q-169 -1 -258.5 96.5t-89.5 276.5q0 210 121 479l-224 -135q-82 -195 -82 -381zM385 -662 q0 -43 32 -74.5t75 -31.5q44 0 75 31.5t31 74.5q0 42 -31 73.5t-75 31.5q-43 0 -75 -32t-32 -73zM662 -662q0 -43 31 -74.5t75 -31.5q43 0 74.5 31.5t31.5 74.5q0 42 -32 73.5t-74 31.5q-44 0 -75 -31.5t-31 -73.5z" />
<glyph unicode="&#x64a;" horiz-adv-x="593" arabic-form="initial" d="M-25 0h158q176 0 281 102q104 101 104 260v562l-192 -58v-489q0 -209 -203 -209h-148v-168zM-12 -287q0 -43 31.5 -74.5t74.5 -31.5q42 0 73.5 31.5t31.5 74.5q0 42 -31.5 73.5t-73.5 31.5q-43 0 -74.5 -31t-31.5 -74zM262 -287q0 -43 32.5 -74.5t76.5 -31.5 q43 0 73.5 31.5t30.5 74.5t-30.5 74t-73.5 31q-44 0 -76.5 -31t-32.5 -74z" />
<glyph unicode="&#x64a;" horiz-adv-x="796" arabic-form="medial" d="M-25 0h148q185 0 291 109q106 -109 284 -109h123v168h-110q-203 0 -203 203v553l-193 -58v-489q0 -209 -204 -209h-136v-168zM172 -287q0 -43 30 -74.5t74 -31.5q43 0 75 31.5t32 74.5t-32 74t-75 31q-44 0 -74 -31t-30 -74zM446 -287q0 -43 31 -74.5t74 -31.5t74.5 31.5 t31.5 74.5t-31.5 74t-74.5 31t-74 -31t-31 -74z" />
<glyph unicode=" "  horiz-adv-x="331" />
<glyph unicode="&#x09;" horiz-adv-x="331" />
<glyph unicode="&#xa0;" horiz-adv-x="331" />
<glyph unicode="!" horiz-adv-x="436" d="M100 1317l43 -944h152l41 944h-236zM113 0h213v207h-213v-207z" />
<glyph unicode="&#x22;" horiz-adv-x="598" d="M63 1251q0 -10 29 -202q9 -62 70 -62q46 0 61 49q37 104 37 215q0 117 -98 117q-99 0 -99 -117zM324 1251q0 -17 28 -202q9 -62 70 -62q46 0 61 49q37 104 37 215q0 117 -98 117t-98 -117z" />
<glyph unicode="$" horiz-adv-x="1196" d="M100 176q164 -167 432 -176v-205h156v209q187 19 297.5 123t110.5 268q0 181 -111 275q-85 76 -252 100l-63 10v410q152 -15 248 -105l131 129q-149 140 -361 152v168h-156v-172q-179 -13 -283 -118.5t-104 -270.5q0 -160 95.5 -254t259.5 -113l49 -4v-418 q-194 6 -311 129zM346 979q0 186 203 207v-393q-99 14 -151 61t-52 125zM670 186v402q122 -18 170 -60q51 -45 51 -141q0 -180 -221 -201z" />
<glyph unicode="'" d="M23 1251q0 -17 28 -202q9 -62 70 -62q46 0 61 49q37 104 37 215q0 117 -98 117t-98 -117z" />
<glyph unicode="(" horiz-adv-x="628" d="M176 94q0 -142 43 -221q22 -43 68 -92l86 -86l131 129q-88 88 -107 125q-26 51 -26 157v879q0 103 26 156q61 84 107 123l-131 131q-120 -119 -154 -178q-43 -76 -43 -220v-903z" />
<glyph unicode=")" horiz-adv-x="628" d="M125 -176l131 -129q120 119 154 178q43 79 43 221v903q0 144 -43 220q-25 45 -70 90q-1 1 -84 88l-131 -131q88 -88 106 -123q29 -60 29 -156v-879q0 -101 -29 -157q-70 -91 -106 -125z" />
<glyph unicode="*" horiz-adv-x="798" d="M100 197l41 -72l221 137l-4 -262h82l-4 262l221 -137l41 72l-227 125l227 127l-41 69l-221 -135l4 262h-82l4 -262l-221 135l-41 -69l228 -127z" />
<glyph unicode="+" horiz-adv-x="1015" d="M100 317h318v-317h180v317h315v179h-315v317h-180v-317h-318v-179z" />
<glyph unicode="-" horiz-adv-x="954" d="M100 408h754v153h-754v-153z" />
<glyph unicode="." horiz-adv-x="755" d="M317 133q0 -57 40 -97t96 -40q59 0 99 40t40 97q0 56 -40 96.5t-99 40.5q-55 0 -95.5 -40.5t-40.5 -96.5z" />
<glyph unicode="/" horiz-adv-x="481" d="M-186 0h190l662 1317h-193z" />
<glyph unicode="0" horiz-adv-x="477" d="M135 209l207 -55v254l-207 55v-254z" />
<glyph unicode="1" horiz-adv-x="462" d="M135 61l193 -61v1317h-193v-1256z" />
<glyph unicode="2" horiz-adv-x="1060" d="M135 61l193 -61v1083q0 64 55 70h543v164h-557q-67 0 -125 -25q-109 -53 -109 -188v-1043z" />
<glyph unicode="3" horiz-adv-x="1212" d="M135 61l193 -61v709q56 -33 112 -33q122 -3 191 90q63 -90 182 -90q264 0 264 309v336h-196v-324q0 -72 -7 -100q-15 -43 -61 -43q-90 0 -111 129v338h-196v-324q-3 -87 -4 -90q-15 -53 -62 -53q-97 0 -112 125v342h-193v-1260z" />
<glyph unicode="4" horiz-adv-x="1116" d="M135 381q0 -177 117 -279q120 -102 295 -102h434l-84 172h-350q-100 0 -161.5 56t-61.5 153q0 223 231 223h205v164h-205q-207 0 -207 195q0 194 199 194h297v160h-297q-169 0 -279 -96q-108 -95 -108 -258q0 -177 129 -269q-154 -95 -154 -313z" />
<glyph unicode="5" horiz-adv-x="1101" d="M135 446q0 -191 107 -313q115 -133 309 -133q200 0 315 133q101 122 101 313q0 297 -414 582q-418 -264 -418 -582zM330 446q0 207 221 377q221 -170 221 -377q0 -280 -221 -280t-221 280z" />
<glyph unicode="6" horiz-adv-x="1060" d="M135 1153h545q55 -6 55 -70v-1022l191 -61v1104q0 135 -109 188q-58 25 -125 25h-557v-164z" />
<glyph unicode="7" horiz-adv-x="1363" d="M135 1317l459 -1317h174l461 1317h-209l-338 -1030l-338 1030h-209z" />
<glyph unicode="8" horiz-adv-x="1363" d="M135 0h209l338 1032l338 -1032h209l-461 1317h-174z" />
<glyph unicode="9" horiz-adv-x="1067" d="M135 858q0 -192 82 -311q106 -146 315 -146q116 0 205 50v-451l195 61v820q0 182 -94 301q-108 135 -306 135q-209 0 -315 -146q-82 -119 -82 -313zM326 858q0 291 206 291q207 0 207 -291q0 -289 -207 -289q-206 0 -206 289z" />
<glyph unicode=":" horiz-adv-x="753" d="M317 133q0 -57 40 -97t96 -40q59 0 98 39.5t39 97.5q0 57 -39 97t-98 40q-55 0 -95.5 -40.5t-40.5 -96.5zM317 655q0 -56 40.5 -96.5t95.5 -40.5q59 0 98 40t39 97q0 58 -39 98t-98 40q-56 0 -96 -40.5t-40 -97.5z" />
<glyph unicode="&#x3c;" horiz-adv-x="888" d="M111 457l479 -477h182l-479 477l479 479h-182z" />
<glyph unicode="=" horiz-adv-x="1015" d="M100 426h813v178h-813v-178zM100 793h813v180h-813v-180z" />
<glyph unicode="&#x3e;" horiz-adv-x="823" d="M74 -20h182l479 477l-479 479h-182l479 -479z" />
<glyph unicode="[" horiz-adv-x="675" d="M178 -172h414v170h-223v1286h223v170h-414v-1626z" />
<glyph unicode="\" horiz-adv-x="894" d="M0 1487l535 -1610h184l-533 1610h-186z" />
<glyph unicode="]" horiz-adv-x="675" d="M84 -2v-170h412v1626h-412v-170h223v-1286h-223z" />
<glyph unicode="_" horiz-adv-x="479" d="M-74 -117v-84h625v84h-625z" />
<glyph unicode="{" horiz-adv-x="784" d="M94 557h70q57 0 90 -37.5t33 -113.5v-316q0 -132 66 -197t204 -65h135v172h-76q-73 0 -100 18q-35 27 -35 132v301q0 135 -127 188q127 56 127 190v304q0 92 26.5 120.5t108.5 28.5h76v172h-135q-270 0 -270 -262v-318q0 -75 -33 -112t-90 -37h-70v-168z" />
<glyph unicode="|" horiz-adv-x="321" d="M90 -133h150v1597h-150v-1597z" />
<glyph unicode="}" horiz-adv-x="784" d="M94 0v-172h133q269 0 269 262v316q0 76 34.5 113.5t92.5 37.5h69v168h-69q-58 0 -92.5 37t-34.5 112v318q0 262 -269 262h-133v-172h72q77 0 100 -20q39 -26 39 -129v-304q0 -135 123 -190q-123 -53 -123 -188v-301q0 -93 -27 -121.5t-112 -28.5h-72z" />
<glyph unicode="&#xab;" horiz-adv-x="931" d="M287 377q0 -188 137 -377h137q-110 219 -110 375q0 155 110 381h-137q-137 -183 -137 -379zM565 377q0 -187 135 -377h140q-113 219 -113 375q0 155 113 381h-140q-135 -184 -135 -379z" />
<glyph unicode="&#xad;" horiz-adv-x="954" d="M100 408h754v153h-754v-153z" />
<glyph unicode="&#xbb;" horiz-adv-x="931" d="M94 -2h137q138 194 138 379q0 191 -138 379h-137q111 -231 111 -381q0 -152 -111 -377zM369 756q110 -229 110 -381t-108 -377h137q137 192 137 379q0 190 -139 379h-137z" />
<glyph unicode="&#xd7;" horiz-adv-x="993" d="M100 119l121 -119l275 274l274 -274l121 119l-275 276l275 275l-121 121l-274 -275l-275 275l-121 -121l277 -275z" />
<glyph unicode="&#xf7;" horiz-adv-x="1007" d="M100 410h807v157h-807v-157zM414 111h180v170h-180v-170zM414 694h180v170h-180v-170z" />
<glyph unicode="&#x60c;" horiz-adv-x="471" d="M125 -2h221v510l-221 -178v-332z" />
<glyph unicode="&#x61b;" horiz-adv-x="753" d="M317 135q0 -56 39.5 -95.5t96.5 -39.5q56 0 96.5 40t40.5 95q0 59 -40.5 99t-96.5 40q-57 0 -96.5 -39.5t-39.5 -99.5zM342 573h219v512l-219 -178v-334z" />
<glyph unicode="&#x61f;" horiz-adv-x="954" d="M100 950q0 -98 88 -235q132 -175 150 -201q33 -44 33 -160h194q0 104 -8 135q-9 53 -57 117q-58 76 -117 150q-88 125 -88 194q0 81 51.5 135t132.5 54q84 0 133.5 -54.5t49.5 -138.5h192q0 159 -109 262t-266 103q-159 0 -270 -99q-109 -100 -109 -262zM385 0h170v168 h-170v-168z" />
<glyph unicode="&#x621;" horiz-adv-x="1155" d="M82 0h960v174h-489v86q0 88 47.5 144.5t122.5 56.5q90 0 156 -84l131 129q-120 129 -267 129q-174 0 -276 -123q-96 -113 -96 -283v-55h-142z" />
<glyph unicode="&#x627;" horiz-adv-x="370" d="M100 0h195v1321l-195 -61v-1260z" />
<glyph unicode="&#x628;" horiz-adv-x="1656" d="M100 352q0 -158 101.5 -255t267.5 -97h727q179 0 282 95t103 257v572l-190 -52v-499q0 -201 -205 -201h-690q-203 0 -203 201v383l-193 -197v-207zM764 -289q0 -43 30.5 -74.5t73.5 -31.5t75 31.5t32 74.5q0 41 -32 73t-75 32q-42 0 -73 -31.5t-31 -73.5z" />
<glyph unicode="&#x629;" horiz-adv-x="1007" d="M100 469q0 -200 88 -319q108 -150 328 -150q222 0 330 150q86 121 86 319q0 196 -86 317q-109 148 -330 148q-219 0 -328 -148q-88 -119 -88 -317zM270 1212q0 -43 31 -74.5t74 -31.5q44 0 76 31.5t32 74.5t-32 74t-76 31q-43 0 -74 -31t-31 -74zM295 469q0 301 221 301 q225 0 225 -301q0 -305 -225 -305q-221 0 -221 305zM547 1212q0 -43 31.5 -74.5t74.5 -31.5q41 0 73 32t32 74t-31.5 73.5t-73.5 31.5q-43 0 -74.5 -31t-31.5 -74z" />
<glyph unicode="&#x62a;" horiz-adv-x="1656" d="M100 352q0 -158 101.5 -255t267.5 -97h727q179 0 282 95t103 257v572l-190 -52v-499q0 -201 -205 -201h-690q-203 0 -203 201v383l-193 -197v-207zM600 899q0 -44 31 -75t74 -31t74.5 31t31.5 75q0 43 -31.5 75t-74.5 32t-74 -32t-31 -75zM874 899q0 -44 31.5 -75 t73.5 -31q43 0 74.5 31t31.5 75q0 43 -31.5 75t-74.5 32q-41 0 -73 -32t-32 -75z" />
<glyph unicode="&#x62b;" horiz-adv-x="1656" d="M100 352q0 -158 101.5 -255t267.5 -97h727q179 0 282 95t103 257v572l-190 -52v-499q0 -201 -205 -201h-690q-203 0 -203 201v383l-193 -197v-207zM600 899q0 -44 31 -75t74 -31t74.5 31t31.5 75q0 43 -31.5 75t-74.5 32t-74 -32t-31 -75zM737 1137q0 -43 32 -75t75 -32 t74.5 32t31.5 75t-31.5 73.5t-74.5 30.5t-75 -31t-32 -73zM874 899q0 -44 31.5 -75t73.5 -31q43 0 74.5 31t31.5 75q0 43 -31.5 75t-74.5 32q-41 0 -73 -32t-32 -75z" />
<glyph unicode="&#x62c;" horiz-adv-x="1165" d="M100 98q0 -212 150 -350q150 -141 377 -141q179 0 317 78v206q-84 -78 -164 -98q-56 -16 -153 -16q-145 0 -238 90q-90 90 -90 231q0 151 88.5 243.5t239.5 92.5h465q-27 237 -158 377q-137 143 -352 143q-129 0 -232 -47q-96 -47 -209 -149l125 -129q95 86 160 116 q62 33 156 33q79 0 159 -53q70 -49 111 -121h-225q-238 0 -381 -143q-146 -146 -146 -363zM539 109q0 -44 31.5 -76.5t74.5 -32.5t75 32.5t32 76.5q0 43 -32 74.5t-75 31.5t-74.5 -31.5t-31.5 -74.5z" />
<glyph unicode="&#x62d;" horiz-adv-x="1165" d="M100 98q0 -212 150 -350q150 -141 377 -141q179 0 317 78v206q-84 -78 -164 -98q-56 -16 -153 -16q-145 0 -238 90q-90 90 -90 231q0 151 88.5 243.5t239.5 92.5h465q-27 237 -158 377q-137 143 -352 143q-129 0 -232 -47q-96 -47 -209 -149l125 -129q95 86 160 116 q62 33 156 33q79 0 159 -53q70 -49 111 -121h-225q-238 0 -381 -143q-146 -146 -146 -363z" />
<glyph unicode="&#x62e;" horiz-adv-x="1165" d="M100 98q0 -212 150 -350q150 -141 377 -141q179 0 317 78v206q-84 -78 -164 -98q-56 -16 -153 -16q-145 0 -238 90q-90 90 -90 231q0 151 88.5 243.5t239.5 92.5h465q-27 237 -158 377q-137 143 -352 143q-129 0 -232 -47q-96 -47 -209 -149l125 -129q95 86 160 116 q62 33 156 33q79 0 159 -53q70 -49 111 -121h-225q-238 0 -381 -143q-146 -146 -146 -363zM475 1212q0 -43 32.5 -74.5t76.5 -31.5q43 0 74.5 31.5t31.5 74.5t-31.5 74t-74.5 31q-44 0 -76.5 -31t-32.5 -74z" />
<glyph unicode="&#x62f;" horiz-adv-x="989" d="M100 0h813v571q0 161 -112 254q-117 97 -293 97q-138 0 -277 -121v-221q102 178 277 178q213 0 213 -201v-389h-504z" />
<glyph unicode="&#x630;" horiz-adv-x="989" d="M100 0h813v571q0 161 -112 254q-117 97 -293 97q-138 0 -277 -121v-221q102 178 277 178q213 0 213 -201v-389h-504zM428 1212q0 -43 32 -74.5t75 -31.5t73.5 31.5t30.5 74.5q0 44 -30.5 76.5t-73.5 32.5t-75 -32.5t-32 -76.5z" />
<glyph unicode="&#x631;" horiz-adv-x="796" d="M-51 -145l92 -193q88 -55 219 -55q214 0 336 125q125 125 125 329v863l-195 -58v-811q0 -129 -71 -203.5t-195 -74.5q-170 0 -311 78z" />
<glyph unicode="&#x632;" horiz-adv-x="796" d="M-51 -145l92 -193q88 -55 219 -55q214 0 336 125q125 125 125 329v863l-195 -58v-811q0 -129 -71 -203.5t-195 -74.5q-170 0 -311 78zM504 1212q0 -43 31.5 -74.5t74.5 -31.5t74 31.5t31 74.5q0 44 -31 76.5t-74 32.5t-74.5 -32.5t-31.5 -76.5z" />
<glyph unicode="&#x633;" horiz-adv-x="2525" d="M100 348q-6 -351 88 -514q131 -227 500 -227q523 0 547 393h811q176 0 280.5 96.5t104.5 255.5v576l-195 -60v-495q0 -201 -200 -201h-209v664l-195 -58v-610h-395v563l-195 -59v-611q0 -278 -352 -278q-215 0 -306 102t-91 342v179z" />
<glyph unicode="&#x634;" horiz-adv-x="2525" d="M100 348q-6 -351 88 -514q131 -227 500 -227q523 0 547 393h811q176 0 280.5 96.5t104.5 255.5v576l-195 -60v-495q0 -201 -200 -201h-209v664l-195 -58v-610h-395v563l-195 -59v-611q0 -278 -352 -278q-215 0 -306 102t-91 342v179zM1477 1212q0 -43 30 -74.5t74 -31.5 q43 0 75 31.5t32 74.5q0 44 -32 76.5t-75 32.5q-44 0 -74 -32t-30 -77zM1614 1450q0 -41 31.5 -72.5t74.5 -31.5t75 31.5t32 72.5q0 43 -32 74.5t-75 31.5t-74.5 -31.5t-31.5 -74.5zM1751 1212q0 -43 30.5 -74.5t73.5 -31.5t75 31.5t32 74.5q0 44 -32 76.5t-75 32.5 t-73.5 -32.5t-30.5 -76.5z" />
<glyph unicode="&#x635;" horiz-adv-x="2557" d="M100 348q-6 -351 88 -514q131 -227 500 -227q523 0 547 393h1208l13 263v-3q0 264 -95 418q-151 244 -450 235q-343 -9 -535 -303q-98 -146 -139 -319v440l-195 -59v-611q0 -278 -352 -278q-215 0 -306 102t-91 342v179zM1343 172q12 173 175 354q182 209 397 209 q177 0 272 -147q76 -125 76 -316q0 -50 -6 -100h-914z" />
<glyph unicode="&#x636;" horiz-adv-x="2557" d="M100 348q-6 -351 88 -514q131 -227 500 -227q523 0 547 393h1208l13 263v-3q0 264 -95 418q-151 244 -450 235q-343 -9 -535 -303q-98 -146 -139 -319v440l-195 -59v-611q0 -278 -352 -278q-215 0 -306 102t-91 342v179zM1343 172q12 173 175 354q182 209 397 209 q177 0 272 -147q76 -125 76 -316q0 -50 -6 -100h-914zM1815 1214q0 -44 32.5 -75t79.5 -31q45 0 78 31t33 75q0 43 -33.5 75t-77.5 32q-47 0 -79.5 -32t-32.5 -75z" />
<glyph unicode="&#x637;" horiz-adv-x="1705" d="M100 0h1522q0 15 4 141t4 142q0 242 -90 395q-151 244 -453 235q-357 -9 -555 -329v700l-194 -59v-1053h-154zM524 172q47 197 191 367q183 207 387 198q170 -9 260 -137q82 -143 82 -336q0 -46 -6 -92h-914z" />
<glyph unicode="&#x638;" horiz-adv-x="1705" d="M100 0h1522q0 15 4 141t4 142q0 242 -90 395q-151 244 -453 235q-357 -9 -555 -329v700l-194 -59v-1053h-154zM524 172q47 197 191 367q183 207 387 198q170 -9 260 -137q82 -143 82 -336q0 -46 -6 -92h-914zM973 1212q0 -43 31.5 -74.5t72.5 -31.5q43 0 75 31.5t32 74.5 q0 44 -32 76.5t-75 32.5q-41 0 -72.5 -32.5t-31.5 -76.5z" />
<glyph unicode="&#x639;" horiz-adv-x="1118" d="M100 78q0 -210 148 -340q149 -131 379 -131q180 0 319 80l-2 211q-104 -83 -170 -103q-56 -16 -147 -16q-153 0 -240.5 79.5t-87.5 219.5q0 154 89 250t239 96h207h208l-100 170h-362v43q0 139 120 139q84 0 134 -71l129 126q-98 113 -244 113q-157 0 -244 -96 q-84 -96 -84 -234v-67q-137 -62 -214 -186t-77 -283z" />
<glyph unicode="&#x63a;" horiz-adv-x="1118" d="M100 78q0 -210 148 -340q149 -131 379 -131q180 0 319 80l-2 211q-104 -83 -170 -103q-56 -16 -147 -16q-153 0 -240.5 79.5t-87.5 219.5q0 154 89 250t239 96h207h208l-100 170h-362v43q0 139 120 139q84 0 134 -71l129 126q-98 113 -244 113q-157 0 -244 -96 q-84 -96 -84 -234v-67q-137 -62 -214 -186t-77 -283zM606 1212q0 -43 32 -74.5t75 -31.5t74.5 31.5t31.5 74.5t-31.5 74t-74.5 31t-75 -31t-32 -74z" />
<glyph unicode="&#x640;" horiz-adv-x="163" d="M-25 0h230v168h-230v-168z" />
<glyph unicode="&#x641;" horiz-adv-x="1654" d="M100 352q0 -158 101.5 -255t267.5 -97h733q187 0 273 63q104 76 104 259v313q0 134 -92 223q-111 105 -318 105q-183 0 -289 -89t-106 -239q0 -166 62 -240q76 -88 272 -88h276q0 -97 -63 -123q-37 -12 -145 -12h-680q-203 0 -203 201v383l-193 -197v-207zM967 629 q0 162 202 162q215 0 215 -162v-158h-233q-125 0 -156 25q-28 28 -28 133zM1063 1212q0 -43 31.5 -74.5t74.5 -31.5q44 0 76.5 31.5t32.5 74.5t-32.5 74t-76.5 31q-43 0 -74.5 -31t-31.5 -74z" />
<glyph unicode="&#x642;" horiz-adv-x="1325" d="M100 244q24 -331 133 -467q135 -170 457 -170q541 0 547 426q0 10 0.5 29.5t1.5 55.5t2 66q8 96 8 176q0 551 -403 551q-212 0 -314 -147q-83 -121 -83 -318q0 -194 83 -321q103 -148 314 -148q126 0 198 66v-8q3 -146 -116 -207q-83 -42 -236 -39q-226 0 -321 115 q-97 117 -97 403zM602 1212q0 -43 32 -74.5t75 -31.5q44 0 76 31.5t32 74.5t-32 74t-76 31q-43 0 -75 -31t-32 -74zM639 446q0 295 207 295t207 -295q0 -294 -207 -294t-207 294zM879 1212q0 -43 31.5 -74.5t74.5 -31.5t75 31.5t32 74.5t-32 74t-75 31t-74.5 -31t-31.5 -74z " />
<glyph unicode="&#x643;" horiz-adv-x="1656" d="M100 352q0 -158 101.5 -255t267.5 -97h727q179 0 282 95t103 257v969l-190 -57v-891q0 -201 -205 -201h-690q-203 0 -203 201v383l-193 -197v-207zM496 614h657v119h-334v60q0 139 119 139q58 0 104 -58l91 89q-83 86 -181 86q-118 0 -188 -78t-70 -197v-41h-100z" />
<glyph unicode="&#x644;" horiz-adv-x="1312" d="M100 244q27 -319 144 -467q138 -170 446 -170q549 0 549 448l-2 1262l-195 -60v-1206q0 -147 -96 -213q-79 -49 -254 -49q-220 0 -309 115q-88 113 -88 403z" />
<glyph unicode="&#x645;" horiz-adv-x="1499" d="M100 -395l195 59v850q0 141 65 188q58 43 224 43h110q-59 -103 -59 -276q0 -189 84 -311q103 -146 311 -146q206 0 309 146q84 122 84 311q0 187 -84 309q-103 146 -309 146h-483q-219 0 -326 -84q-121 -100 -121 -326v-909zM829 469q0 285 201 285t201 -285t-201 -285 t-201 285z" />
<glyph unicode="&#x646;" horiz-adv-x="1312" d="M100 348q-6 -351 88 -514q131 -227 500 -227q549 0 549 434v690l-195 -59v-611q0 -278 -352 -278q-215 0 -306 102t-91 342v179zM549 637q0 -43 31.5 -74t74.5 -31q44 0 74.5 31t30.5 74t-30.5 74.5t-74.5 31.5q-43 0 -74.5 -31.5t-31.5 -74.5z" />
<glyph unicode="&#x647;" horiz-adv-x="1007" d="M100 469q0 -200 88 -319q108 -150 328 -150q222 0 330 150q86 121 86 319q0 196 -86 317q-109 148 -330 148q-219 0 -328 -148q-88 -119 -88 -317zM295 469q0 301 221 301q225 0 225 -301q0 -305 -225 -305q-221 0 -221 305z" />
<glyph unicode="&#x648;" horiz-adv-x="972" d="M100 430q0 -189 84 -311q103 -148 316 -148q106 0 194 49q-24 -231 -245 -243q-155 -9 -326 71l86 -188q86 -53 240 -53q216 0 331 139q106 121 109 334q0 30 6 129q2 59 2 149q0 236 -68 363q-94 168 -329 168q-213 0 -316 -146q-84 -122 -84 -313zM293 430 q0 291 207 291q205 0 205 -291q0 -289 -205 -289q-207 0 -207 289z" />
<glyph unicode="&#x649;" horiz-adv-x="1323" d="M100 238q27 -316 142 -455q135 -176 452 -176q228 0 371 90q172 114 172 338v411h-506v101q0 209 203 209q142 0 250 -166l63 188q-134 146 -323 146q-178 0 -282.5 -98.5t-104.5 -264.5v-285h507v-241q0 -132 -114 -197q-89 -53 -236 -53q-213 0 -305 115t-92 397z" />
<glyph unicode="&#x64a;" horiz-adv-x="1323" d="M100 238q27 -316 142 -455q135 -176 452 -176q228 0 371 90q172 114 172 338v411h-506v101q0 209 203 209q142 0 250 -166l63 188q-134 146 -323 146q-178 0 -282.5 -98.5t-104.5 -264.5v-285h507v-241q0 -132 -114 -197q-89 -53 -236 -53q-213 0 -305 115t-92 397z M463 -662q0 -43 31 -74.5t75 -31.5q43 0 75 31.5t32 74.5q0 41 -32 73t-75 32q-44 0 -75 -31.5t-31 -73.5zM737 -662q0 -43 32 -74.5t75 -31.5t74.5 31.5t31.5 74.5q0 42 -32 73.5t-74 31.5q-43 0 -75 -32t-32 -73z" />
<glyph unicode="&#x64b;" d="M8 1356q216 13 311 26q83 9 111 95l-317 -47q-61 9 -105 -74zM45 1454l320 41q64 0 92 78l-283 -45q-53 -9 -74 -19q-32 -13 -55 -55z" />
<glyph unicode="&#x64c;" d="M121 1438q0 4 20 45q11 31 33 47q23 19 39 0.5t16 -47.5q0 -54 -57 -123q171 38 254 133q38 -30 102 -45l-10 90q-35 21 -35 53q0 7 15.5 51.5t15.5 61.5q0 23 -8 39q-20 51 -98 51q-109 -53 -109 -186q20 -41 70 -82q-56 -53 -95 -62q3 94 -4 125q-18 69 -82 60 q-43 -20 -59 -93q-1 -21 -4 -60t-4 -58zM383 1696q0 8 2 14q26 10 41 -31q10 -23 4 -49q-47 44 -47 66z" />
<glyph unicode="&#x64d;" d="M-98 -635q217 19 313 31q84 9 111 92l-318 -47q-63 9 -106 -76zM-61 -537l321 41q64 3 90 78l-282 -43q-58 -9 -72 -18q-30 -15 -57 -58z" />
<glyph unicode="&#x64e;" d="M45 1358q157 66 285 125q73 40 73 127l-284 -150q-65 -12 -74 -102z" />
<glyph unicode="&#x64f;" d="M25 1360q28 -4 45 -4q74 0 135 43q24 14 121 104l80 -49v86q-25 9 -25 27q0 1 1.5 6t6 18t8.5 25q15 35 0 65q-15 48 -69 48q-55 0 -84 -33q-49 -37 -49 -94q12 -35 67 -72q-78 -84 -237 -170zM262 1638q0 18 21 27q24 9 36 -27q10 -16 -2 -49q-45 26 -55 49z" />
<glyph unicode="&#x650;" d="M-29 -670q228 96 285 125q74 41 74 127l-285 -149q-65 -12 -74 -103z" />
<glyph unicode="&#x651;" d="M156 1419q18 -59 98 -59q20 8 39 27.5t26.5 31.5t26.5 43l12 -10q66 -16 106 22.5t40 102.5q0 49 -25 141l-39 -12q2 -27 -14 -111q-9 -35 -31 -22q-24 9 -37 35q-5 5 -22 51l-29 -10q0 -66 -26 -131q-14 -39 -41 -39q-11 0 -17 2q-32 19 -37 114l-30 -18 q-15 -114 0 -158z" />
<glyph unicode="&#x652;" d="M41 1491q0 -22 6 -49q57 -84 143 -84q74 0 132 55q38 32 38 88q0 68 -53 127q-54 60 -117 60q-149 -64 -149 -197zM154 1501q-9 59 32 92q65 -21 80 -125q-34 -18 -59 -18q-44 0 -53 51z" />
<glyph unicode="&#x653;" d="M147 1430l91 -64q56 53 120 53q32 0 97 -33q67 -30 123 -30q80 0 196 84l-90 65q-59 -53 -106 -53q-32 0 -105 31q-67 33 -129 33q-82 0 -197 -86z" />
<glyph unicode="&#x654;" d="M281 1360h337v70h-161v40q0 72 49 72q33 0 55 -31l45 58q-43 43 -94 43q-131 0 -131 -142v-40h-57z" />
<glyph unicode="&#x655;" d="M256 -399h338v71h-162v39q0 72 49 72q34 0 56 -31l45 58q-43 43 -95 43q-129 0 -129 -142v-39h-59z" />
<glyph unicode="&#x660;" horiz-adv-x="477" d="M135 209l207 -55v254l-207 55v-254z" />
<glyph unicode="&#x661;" horiz-adv-x="462" d="M135 61l193 -61v1317h-193v-1256z" />
<glyph unicode="&#x662;" horiz-adv-x="1060" d="M135 61l193 -61v1083q0 64 55 70h543v164h-557q-67 0 -125 -25q-109 -53 -109 -188v-1043z" />
<glyph unicode="&#x663;" horiz-adv-x="1212" d="M135 61l193 -61v709q56 -33 112 -33q122 -3 191 90q63 -90 182 -90q264 0 264 309v336h-196v-324q0 -72 -7 -100q-15 -43 -61 -43q-90 0 -111 129v338h-196v-324q-3 -87 -4 -90q-15 -53 -62 -53q-97 0 -112 125v342h-193v-1260z" />
<glyph unicode="&#x664;" horiz-adv-x="1116" d="M135 381q0 -177 117 -279q120 -102 295 -102h434l-84 172h-350q-100 0 -161.5 56t-61.5 153q0 223 231 223h205v164h-205q-207 0 -207 195q0 194 199 194h297v160h-297q-169 0 -279 -96q-108 -95 -108 -258q0 -177 129 -269q-154 -95 -154 -313z" />
<glyph unicode="&#x665;" horiz-adv-x="1101" d="M135 446q0 -191 107 -313q115 -133 309 -133q200 0 315 133q101 122 101 313q0 297 -414 582q-418 -264 -418 -582zM330 446q0 207 221 377q221 -170 221 -377q0 -280 -221 -280t-221 280z" />
<glyph unicode="&#x666;" horiz-adv-x="1060" d="M135 1153h545q55 -6 55 -70v-1022l191 -61v1104q0 135 -109 188q-58 25 -125 25h-557v-164z" />
<glyph unicode="&#x667;" horiz-adv-x="1363" d="M135 1317l459 -1317h174l461 1317h-209l-338 -1030l-338 1030h-209z" />
<glyph unicode="&#x668;" horiz-adv-x="1363" d="M135 0h209l338 1032l338 -1032h209l-461 1317h-174z" />
<glyph unicode="&#x669;" horiz-adv-x="1067" d="M135 858q0 -192 82 -311q106 -146 315 -146q116 0 205 50v-451l195 61v820q0 182 -94 301q-108 135 -306 135q-209 0 -315 -146q-82 -119 -82 -313zM326 858q0 291 206 291q207 0 207 -291q0 -289 -207 -289q-206 0 -206 289z" />
<glyph unicode="&#x66a;" horiz-adv-x="976" d="M100 0h140l637 1368h-140zM315 1094l154 -43v186l-154 45v-188zM514 121l154 -45v186l-154 45v-186z" />
<glyph unicode="&#x66b;" horiz-adv-x="471" d="M125 -2h221v510l-221 -178v-332z" />
<glyph unicode="&#x66c;" horiz-adv-x="471" d="M125 -2h221v510l-221 -178v-332z" />
<glyph unicode="&#x66d;" horiz-adv-x="1024" d="M115 502l239 -191l-106 -284l35 -27l233 193l232 -193l34 31l-104 282l237 189l-18 41l-283 -41l-77 293h-41l-80 -293l-283 43z" />
<glyph unicode="&#x670;" d="M47 1401h111v479h-111v-479z" />
<glyph unicode="&#x67e;" horiz-adv-x="1656" d="M100 352q0 -158 101.5 -255t267.5 -97h727q179 0 282 95t103 257v572l-190 -52v-499q0 -201 -205 -201h-690q-203 0 -203 201v383l-193 -197v-207zM600 -287q0 -43 31 -74.5t74 -31.5t74.5 31.5t31.5 74.5t-31.5 74t-74.5 31t-74 -31t-31 -74zM737 -526q0 -43 32 -75 t75 -32t74.5 32t31.5 75t-31.5 74.5t-74.5 31.5t-75 -31.5t-32 -74.5zM874 -287q0 -43 32 -74.5t73 -31.5q43 0 74.5 31.5t31.5 74.5t-31.5 74t-74.5 31q-42 0 -73.5 -31.5t-31.5 -73.5z" />
<glyph unicode="&#x686;" horiz-adv-x="1165" d="M100 98q0 -212 150 -350q150 -141 377 -141q179 0 317 78v206q-84 -78 -164 -98q-56 -16 -153 -16q-145 0 -238 90q-90 90 -90 231q0 151 88.5 243.5t239.5 92.5h465q-23 232 -157 361t-353 129q-129 0 -232 -47q-93 -46 -209 -150l135 -127q97 87 152 115q62 33 154 33 q188 0 270 -144h-225q-238 0 -381 -143q-146 -146 -146 -363zM414 190q0 -44 30.5 -74t73.5 -30t75 30t32 74q0 43 -32 75t-75 32q-42 0 -73 -32t-31 -75zM551 -47q0 -43 31.5 -75t74.5 -32t75 32t32 75q0 42 -32 73t-75 31t-74.5 -30.5t-31.5 -73.5zM688 190q0 -44 32 -74 t77 -30q43 0 73.5 30t30.5 74q0 43 -31 75t-73 32q-44 0 -76.5 -32t-32.5 -75z" />
<glyph unicode="&#x698;" horiz-adv-x="796" d="M-51 -145l92 -193q88 -55 219 -55q214 0 336 125q125 125 125 329v863l-195 -58v-811q0 -129 -71 -203.5t-195 -74.5q-170 0 -311 78zM223 1212q0 -43 32 -74.5t75 -31.5t73.5 31.5t30.5 74.5t-30.5 74t-73.5 31t-75 -31t-32 -74zM362 1450q0 -44 31 -74t74 -30t74.5 30 t31.5 74q0 43 -31.5 74.5t-74.5 31.5t-74 -31.5t-31 -74.5zM498 1212q0 -43 32 -74.5t76 -31.5q43 0 75 31.5t32 74.5t-32 74t-75 31q-44 0 -76 -31t-32 -74z" />
<glyph unicode="&#x6a4;" horiz-adv-x="1654" d="M100 352q0 -158 101.5 -255t267.5 -97h733q187 0 273 63q104 76 104 259v313q0 134 -92 223q-111 105 -318 105q-183 0 -289 -89t-106 -239q0 -166 62 -240q76 -88 272 -88h276q0 -97 -63 -123q-37 -12 -145 -12h-680q-203 0 -203 201v383l-193 -197v-207zM934 1212 q0 -43 31 -74.5t75 -31.5q43 0 75 31.5t32 74.5t-32 74t-75 31q-44 0 -75 -31t-31 -74zM967 629q0 162 202 162q215 0 215 -162v-158h-233q-125 0 -156 25q-28 28 -28 133zM1073 1450q0 -44 32 -74t75 -30t73.5 30t30.5 74q0 43 -30.5 74.5t-73.5 31.5t-75 -31.5t-32 -74.5z M1208 1212q0 -43 32 -74.5t75 -31.5t74.5 31.5t31.5 74.5t-31.5 74t-74.5 31t-75 -31t-32 -74z" />
<glyph unicode="&#x6f0;" horiz-adv-x="477" d="M135 209l207 -55v254l-207 55v-254z" />
<glyph unicode="&#x6f1;" horiz-adv-x="462" d="M135 61l193 -61v1317h-193v-1256z" />
<glyph unicode="&#x6f2;" horiz-adv-x="1060" d="M135 61l193 -61v1083q0 64 55 70h543v164h-557q-67 0 -125 -25q-109 -53 -109 -188v-1043z" />
<glyph unicode="&#x6f3;" horiz-adv-x="1212" d="M135 61l193 -61v709q56 -33 112 -33q122 -3 191 90q63 -90 182 -90q264 0 264 309v336h-196v-324q0 -72 -7 -100q-15 -43 -61 -43q-90 0 -111 129v338h-196v-324q-3 -87 -4 -90q-15 -53 -62 -53q-97 0 -112 125v342h-193v-1260z" />
<glyph unicode="&#x6f4;" horiz-adv-x="1116" d="M135 381q0 -177 117 -279q120 -102 295 -102h434l-84 172h-350q-100 0 -161.5 56t-61.5 153q0 223 231 223h205v164h-205q-207 0 -207 195q0 194 199 194h297v160h-297q-169 0 -279 -96q-108 -95 -108 -258q0 -177 129 -269q-154 -95 -154 -313z" />
<glyph unicode="&#x6f5;" horiz-adv-x="1101" d="M135 446q0 -191 107 -313q115 -133 309 -133q200 0 315 133q101 122 101 313q0 297 -414 582q-418 -264 -418 -582zM330 446q0 207 221 377q221 -170 221 -377q0 -280 -221 -280t-221 280z" />
<glyph unicode="&#x6f6;" horiz-adv-x="1060" d="M135 1153h545q55 -6 55 -70v-1022l191 -61v1104q0 135 -109 188q-58 25 -125 25h-557v-164z" />
<glyph unicode="&#x6f7;" horiz-adv-x="1363" d="M135 1317l459 -1317h174l461 1317h-209l-338 -1030l-338 1030h-209z" />
<glyph unicode="&#x6f8;" horiz-adv-x="1363" d="M135 0h209l338 1032l338 -1032h209l-461 1317h-174z" />
<glyph unicode="&#x6f9;" horiz-adv-x="1067" d="M135 858q0 -192 82 -311q106 -146 315 -146q116 0 205 50v-451l195 61v820q0 182 -94 301q-108 135 -306 135q-209 0 -315 -146q-82 -119 -82 -313zM326 858q0 291 206 291q207 0 207 -291q0 -289 -207 -289q-206 0 -206 289z" />
<glyph unicode="&#x2000;" horiz-adv-x="1061" />
<glyph unicode="&#x2001;" horiz-adv-x="2122" />
<glyph unicode="&#x2002;" horiz-adv-x="1061" />
<glyph unicode="&#x2003;" horiz-adv-x="2122" />
<glyph unicode="&#x2004;" horiz-adv-x="707" />
<glyph unicode="&#x2005;" horiz-adv-x="530" />
<glyph unicode="&#x2006;" horiz-adv-x="353" />
<glyph unicode="&#x2007;" horiz-adv-x="353" />
<glyph unicode="&#x2008;" horiz-adv-x="265" />
<glyph unicode="&#x2009;" horiz-adv-x="424" />
<glyph unicode="&#x200a;" horiz-adv-x="117" />
<glyph unicode="&#x200c;" horiz-adv-x="40" d="M0 0h41v1479h-41v-1479z" />
<glyph unicode="&#x200d;" horiz-adv-x="40" d="M-104 1358l28 -27l76 76v-1407h41v1407l76 -76l28 27l-96 98l96 96l-28 29l-97 -98l-96 98l-28 -29l98 -96z" />
<glyph unicode="&#x200e;" horiz-adv-x="40" d="M0 0h41v1438h160l-78 -78l29 -29l122 125l-122 125l-29 -29l74 -73h-197v-1479z" />
<glyph unicode="&#x200f;" horiz-adv-x="40" d="M-233 1456l122 -125l29 29l-78 78h160v-1438h41v1479h-197l74 73l-29 29z" />
<glyph unicode="&#x2010;" horiz-adv-x="929" d="M49 393h862v80h-862v-80z" />
<glyph unicode="&#x2011;" horiz-adv-x="954" d="M100 408h754v153h-754v-153z" />
<glyph unicode="&#x2012;" horiz-adv-x="954" d="M100 408h754v153h-754v-153z" />
<glyph unicode="&#x2013;" horiz-adv-x="1224" d="M100 408h1024v153h-1024v-153z" />
<glyph unicode="&#x2014;" horiz-adv-x="2248" d="M100 408h2048v153h-2048v-153z" />
<glyph unicode="&#x201c;" horiz-adv-x="598" d="M61 1104q0 -117 99 -117q98 0 98 117q0 11 -29 203q-9 61 -69 61q-47 0 -62 -49q-37 -104 -37 -215zM322 1104q0 -117 98 -117t98 117q0 11 -29 203q-9 61 -69 61q-47 0 -62 -49q-36 -101 -36 -215z" />
<glyph unicode="&#x201d;" horiz-adv-x="598" d="M63 1251q0 -10 29 -202q9 -62 70 -62q46 0 61 49q37 104 37 215q0 117 -98 117q-99 0 -99 -117zM324 1251q0 -17 28 -202q9 -62 70 -62q46 0 61 49q37 104 37 215q0 117 -98 117t-98 -117z" />
<glyph unicode="&#x202f;" horiz-adv-x="424" />
<glyph unicode="&#x205f;" horiz-adv-x="530" />
<glyph unicode="&#x2421;" horiz-adv-x="1452" d="M78 117h194q42 0 84 10q162 40 162 260q0 217 -162 254q-27 8 -94 8h-184v-532zM150 180v406h112q57 0 90 -11q94 -37 94 -188q0 -114 -53 -170q-40 -37 -129 -37h-114zM582 117h399v63h-326v180h293v64h-293v162h314v63h-387v-532zM1047 117h333v63h-260v469h-73v-532z " />
<glyph unicode="&#xe000;" horiz-adv-x="1024" d="M0 0z" />
<glyph unicode="&#xfd3e;" horiz-adv-x="628" d="M176 94q0 -142 43 -221q22 -43 68 -92l86 -86l131 129q-88 88 -107 125q-26 51 -26 157v879q0 103 26 156q61 84 107 123l-131 131q-120 -119 -154 -178q-43 -76 -43 -220v-903z" />
<glyph unicode="&#xfd3f;" horiz-adv-x="628" d="M125 -176l131 -129q120 119 154 178q43 79 43 221v903q0 144 -43 220q-25 45 -70 90q-1 1 -84 88l-131 -131q88 -88 106 -123q29 -60 29 -156v-879q0 -101 -29 -157q-70 -91 -106 -125z" />
<glyph unicode="&#xfeff;" />
<glyph horiz-adv-x="681" />
<glyph horiz-adv-x="573" />
<glyph horiz-adv-x="559" />
<glyph />
</font>
</defs>
</svg>
