<?xml version="1.0" standalone="no"?>
<!DOCTYPE svg PUBLIC "-//W3C//DTD SVG 1.1//EN" "http://www.w3.org/Graphics/SVG/1.1/DTD/svg11.dtd" >
<svg xmlns="http://www.w3.org/2000/svg">
<metadata></metadata>
<defs>
<font id="hacen_saudi_arabiaregular" horiz-adv-x="991" >
<font-face units-per-em="2048" ascent="1638" descent="-410" />
<missing-glyph horiz-adv-x="435" />
<glyph unicode="&#x651;&#x64b;" horiz-adv-x="425" d="M50 1838l17 91l340 193l-17 -91zM61 1710l17 91l340 193l-17 -91zM66 1591q0 21 4.5 39.5t9.5 29.5q0 -3 4.5 1.5t9.5 10.5t10 10.5t5 1.5q-5 -21 -7 -40t2 -32.5t17 -19t38 -0.5q28 5 41 23t17.5 40.5t5.5 46t6 39.5q1 -3 4.5 1t7.5 9t8 9.5t6 1.5q-3 -30 6.5 -54 t26 -36.5t38 -11.5t42.5 21q4 10 2 23t-8.5 25.5t-15.5 24.5t-18 21q5 10 14.5 15.5t20 10t20 9.5t15.5 13q5 -8 5.5 -12.5t-0.5 -8.5t-1.5 -8.5t3.5 -13.5q12 -32 14.5 -66t-5 -63.5t-25.5 -50.5t-47 -26q-25 -4 -39 3t-31 18q-4 -11 -10.5 -25.5t-18 -28.5t-27 -25.5 t-37.5 -16.5q-34 -9 -56 -3.5t-35 20t-17.5 35t-4.5 40.5z" />
<glyph unicode="&#x651;&#x64c;" horiz-adv-x="484" arabic-form="isolated" d="M43 1917q20 23 46.5 37.5t53 18.5t49.5 -1.5t35.5 -20.5t10.5 -40.5t-24 -61.5q48 17 89.5 38t75.5 53q-43 9 -63 27t-23.5 40t8 45t31.5 41.5t46 30t52 10.5q22 -2 29.5 -21t7 -43t-6 -46.5t-9.5 -31.5l40 -10l-18 -65l-48 11q-7 -12 -21 -28.5t-33 -34t-42 -33t-48 -26 t-50 -13t-48 6.5q-23 10 -25 27t3 36t11 36t-2 26.5t-36.5 9t-90.5 -17.5zM87.5 1630.5q-0.5 26.5 3.5 49t9 33.5q1 -2 5.5 3t10 10.5t10 9.5t4.5 1q-5 -21 -6.5 -47.5t4 -49.5t19.5 -37.5t40 -9.5q28 5 41 23t18 40.5t6.5 45.5t6.5 39q1 -3 4.5 1t8 9t8 9.5t5.5 1.5 q-3 -30 6 -54t25.5 -37t38 -12.5t43.5 20.5q4 10 2 23t-8.5 26t-15 25t-17.5 21q11 20 19.5 37.5t17.5 34.5q13 -15 22.5 -33t17.5 -36q11 -32 13 -66t-6 -63.5t-26.5 -50t-47.5 -24.5q-25 -4 -38.5 3t-30.5 19q-4 -11 -11 -25t-18.5 -28t-27.5 -25.5t-38 -16.5 q-34 -8 -56.5 1.5t-36 29.5t-19 46.5t-6 53zM346 2048q-2 -10 3.5 -16.5t14.5 -11.5t21.5 -9.5t25.5 -9.5q2 17 2 30q0 11 -2 21.5t-8 14.5v-2q-5 5 -12 6.5t-12 1.5q-14 1 -23.5 -7t-9.5 -18z" />
<glyph unicode="&#x651;&#x64d;" horiz-adv-x="425" arabic-form="isolated" d="M31 1438l33 75l350 141l-33 -75zM41 1543l33 75l350 141l-33 -75zM56.5 1844.5q0.5 26.5 4.5 49t10 32.5q0 -3 4.5 1.5l10.5 10.5t10.5 10t4.5 1q-6 -21 -8 -48t3 -50t18.5 -37.5t39.5 -10.5q29 4 42.5 21t19 39.5t7 46t7.5 39.5q1 -3 5 0.5t8.5 9t8 9.5t5.5 1 q-4 -29 4 -53.5t24 -38t37 -13.5q22 0 45 20q5 10 3 22.5t-8 25.5t-14.5 25.5t-16.5 21.5q11 20 20 37t19 34q12 -15 21.5 -33.5t16.5 -36.5q10 -32 11 -66t-7.5 -63t-27.5 -49t-48 -24q-25 -3 -38.5 4t-30.5 20q-4 -11 -11.5 -25t-19 -27.5t-28 -24.5t-38.5 -16 q-34 -7 -56.5 3t-35 31t-17.5 48t-4.5 53.5z" />
<glyph unicode="&#x651;&#x64e;" horiz-adv-x="425" arabic-form="isolated" d="M61 1710l17 91l340 193l-17 -91zM66 1591q0 21 4.5 39.5t9.5 29.5q0 -3 4.5 1.5t9.5 10.5t10 10.5t5 1.5q-5 -21 -7 -40t2 -32.5t17 -19t38 -0.5q28 5 41 23t17.5 40.5t5.5 46t6 39.5q1 -3 4.5 1t7.5 9t8 9.5t6 1.5q-3 -30 6.5 -54t26 -36.5t38 -11.5t42.5 21q4 10 2 23 t-8.5 25.5t-15.5 24.5t-18 21q5 10 14.5 15.5t20 10t20 9.5t15.5 13q5 -8 5.5 -12.5t-0.5 -8.5t-1.5 -8.5t3.5 -13.5q12 -32 14.5 -66t-5 -63.5t-25.5 -50.5t-47 -26q-25 -4 -39 3t-31 18q-4 -11 -10.5 -25.5t-18 -28.5t-27 -25.5t-37.5 -16.5q-34 -9 -56 -3.5t-35 20 t-17.5 35t-4.5 40.5z" />
<glyph unicode="&#x651;&#x64f;" horiz-adv-x="437" arabic-form="isolated" d="M2 1791q60 20 103 34t77 28t61.5 31t54.5 43q-46 8 -67.5 26.5t-25 40.5t8.5 45t33 42t48.5 30.5t55.5 10.5q23 -1 31 -20t7.5 -43.5t-6.5 -47.5t-10 -33l43 -10l-19 -63l-50 10q-11 -18 -37 -41t-61.5 -43.5t-76.5 -34t-83 -11.5q-57 4 -75 4q-17 0 -12 2zM63.5 1632.5 q-0.5 26.5 3.5 48.5t9 33q0 -3 5 1.5t10.5 10.5t10 10t4.5 1q-5 -21 -6.5 -47.5t4 -49.5t19.5 -37.5t40 -9.5q28 5 41 23t18 40.5t6.5 45.5t6.5 39q1 -3 4.5 1t8 9t8 9.5t5.5 1.5q-3 -30 6 -54t25.5 -37t38 -12.5t43.5 20.5q4 10 2 23t-8.5 26t-15 25t-17.5 21 q11 20 19.5 37.5t17.5 34.5q13 -15 22.5 -33t17.5 -36q11 -32 13 -66t-6 -63.5t-26.5 -50t-47.5 -24.5q-25 -4 -38.5 3t-30.5 19q-4 -11 -11 -25t-18.5 -28t-27.5 -25.5t-38 -16.5q-34 -8 -56.5 1.5t-36 29.5t-19 47.5t-6 54zM262 2036q-2 -20 19 -29.5t50 -17.5q2 16 2 30 q0 11 -2 22t-9 14v-1q-5 5 -11.5 6.5t-11.5 1.5q-17 1 -26.5 -7t-10.5 -19z" />
<glyph unicode="&#x651;&#x650;" horiz-adv-x="425" arabic-form="isolated" d="M71.5 1766.5q0.5 26.5 4.5 48.5t10 33q0 -3 4.5 1.5l10.5 10.5t10.5 10t4.5 1q-6 -21 -8 -48t3 -50t18.5 -37.5t39.5 -10.5q29 4 42.5 21t19 39.5t7 46t7.5 39.5q1 -3 5 0.5t8.5 9t8 9.5t5.5 1q-4 -29 4 -53.5t24 -38t37 -13.5q22 0 45 20q5 10 3 22.5t-8 25.5 t-14.5 25.5t-16.5 21.5q11 20 20 37t19 34q12 -15 21.5 -33.5t16.5 -36.5q10 -32 11 -66t-7.5 -63t-27.5 -49t-48 -24q-25 -3 -38.5 4t-30.5 20q-4 -11 -11.5 -25t-19 -27.5t-28 -24.5t-38.5 -16q-34 -7 -56.5 3t-35 31t-17.5 48t-4.5 53.5zM82 1397l17 91l340 193l-17 -91z " />
<glyph unicode="&#x640;&#x651;&#x64e;" horiz-adv-x="375" arabic-form="medial" d="M-39 1077l17 91l340 193l-17 -91zM-34 958q0 21 4.5 39.5t9.5 29.5q0 -3 4.5 1.5t9.5 10.5t10 10.5t5 1.5q-5 -21 -7 -40t2 -32.5t17 -19t38 -0.5q28 5 41 23t17.5 40.5t5.5 46t6 39.5q1 -3 4.5 1t7.5 9t8 9.5t6 1.5q-3 -30 6.5 -54t26 -36.5t38 -11.5t42.5 21q4 10 2 23 t-8.5 25.5t-15.5 24.5t-18 21q5 10 14.5 15.5t20 10t20 9.5t15.5 13q5 -8 5.5 -12.5t-0.5 -8.5t-1.5 -8.5t3.5 -13.5q12 -32 14.5 -66t-5 -63.5t-25.5 -50.5t-47 -26q-25 -4 -39 3t-31 18q-4 -11 -10.5 -25.5t-18 -28.5t-27 -25.5t-37.5 -16.5q-34 -9 -56 -3.5t-35 20 t-17.5 35t-4.5 40.5z" />
<glyph unicode="&#x640;&#x651;&#x64f;" horiz-adv-x="480" arabic-form="medial" d="M-5 1183q60 20 103 34t77 28t61.5 31t54.5 43q-46 8 -67.5 26.5t-25 40.5t8.5 45t33 42t48.5 30.5t55.5 10.5q23 -1 31 -20t7.5 -43.5t-6.5 -47.5t-10 -33l43 -10l-19 -63l-50 10q-11 -18 -37 -41t-61.5 -43.5t-76.5 -34t-83 -11.5q-57 4 -75 4q-17 0 -12 2zM56.5 1024.5 q-0.5 26.5 3.5 48.5t9 33q0 -3 5 1.5t10.5 10.5t10 10t4.5 1q-5 -21 -6.5 -47.5t4 -49.5t19.5 -37.5t40 -9.5q28 5 41 23t18 40.5t6.5 45.5t6.5 39q1 -3 4.5 1t8 9t8 9.5t5.5 1.5q-3 -30 6 -54t25.5 -37t38 -12.5t43.5 20.5q4 10 2 23t-8.5 26t-15 25t-17.5 21 q11 20 19.5 37.5t17.5 34.5q13 -15 22.5 -33t17.5 -36q11 -32 13 -66t-6 -63.5t-26.5 -50t-47.5 -24.5q-25 -4 -38.5 3t-30.5 19q-4 -11 -11 -25t-18.5 -28t-27.5 -25.5t-38 -16.5q-34 -8 -56.5 1.5t-36 29.5t-19 47.5t-6 54zM255 1428q-2 -20 19 -29.5t50 -17.5q2 16 2 30 q0 11 -2 22t-9 14v-1q-5 5 -11.5 6.5t-11.5 1.5q-17 1 -26.5 -7t-10.5 -19z" />
<glyph unicode="&#xfedf;&#xfee0;&#xfeea;" horiz-adv-x="2550" arabic-form="isolated" d="M53 559q0 43 2.5 90.5t11.5 95t25.5 93.5t44.5 86q39 57 89 89.5t100.5 48.5t97 19.5t78.5 3.5h321v125h240v-1026l241 1q67 0 107 15t66 50q27 38 35.5 85t9.5 99q0 2 0 -9t-0.5 -22t-0.5 -15t0 12v57q0 42 0.5 122.5t0.5 205.5v310h239v-634l5 -148q12 -43 38 -68.5 t59 -39t70 -17.5t70 -4l27 1q67 0 107 15t66 50q29 39 37 89t8 104v991h239v-1063q0 -56 -8.5 -100t-23 -78t-34 -59.5t-40.5 -44.5q-33 -30 -68.5 -47.5t-73.5 -26.5t-78 -11.5t-83 -2.5l-147 -1q-35 0 -71.5 2.5t-73.5 10.5t-72.5 24.5t-66.5 44.5q-32 -28 -66.5 -44 t-71.5 -24.5t-76 -10.5t-81 -2h-38l1 -1h-862q-42 0 -89.5 7t-94.5 30t-89.5 65t-73.5 113q-10 24 -19.5 55.5t-17 73t-12 94.5t-4.5 121zM301 551q0 -64 3.5 -107.5t8 -71.5t9.5 -43t8 -22q18 -41 44.5 -65t56.5 -37t60.5 -17t57.5 -4h273q0 14 0.5 29.5t0.5 28.5v23v11 v625h-274q-24 0 -51 -3t-54 -13.5t-52 -29.5t-44 -50q-9 -15 -17.5 -35.5t-15 -51t-10.5 -71.5t-4 -96zM1370 1254v318h121v-255q0 -16 4 -21q4 -4 9 -4.5t9 -0.5h73v281h121v-281h72q5 0 9.5 0.5t8.5 4.5q4 5 4 21v255h121v-318q0 -10 -3 -21t-12 -20q-15 -15 -43 -15h-435 q-16 0 -27 4.5t-16 10.5q-11 9 -13.5 20t-2.5 21z" />
<glyph unicode="&#x640;&#x64e;" horiz-adv-x="448" arabic-form="medial" d="M13 952q5 24 8 39.5t7 37.5q99 52 191.5 101.5t191.5 102.5l-15 -76q-97 -52 -191.5 -102.5t-191.5 -102.5z" />
<glyph unicode="&#x640;&#x64f;" horiz-adv-x="490" arabic-form="medial" d="M7 1064q61 25 105.5 43t79 36t62.5 39.5t56 54.5q-47 11 -69 34t-25.5 51t9 57.5t34 53.5t49.5 39t56 13q16 -1 25 -12.5t12.5 -29t2.5 -39t-3.5 -41.5t-6.5 -36.5t-7 -24.5l44 -13l-19 -80l-52 12q-11 -23 -37.5 -52.5t-62.5 -55t-78.5 -42.5t-85.5 -15q-29 2 -47.5 3 t-28.5 2t-12.5 1.5t-0.5 1.5zM273 1375q-2 -25 20 -37t51 -23q2 20 2 38q0 15 -2 28.5t-9 18.5v-2q-5 6 -12 8t-12 2q-17 2 -27 -8.5t-11 -24.5z" />
<glyph unicode="&#x640;&#x650;" horiz-adv-x="669" arabic-form="medial" d="M9 301q5 23 8 39t7 38q99 52 191.5 101.5t191.5 102.5l-15 -76q-97 -52 -191.5 -102.5t-191.5 -102.5z" />
<glyph unicode="&#x640;&#x651;" horiz-adv-x="448" arabic-form="medial" d="M47.5 1073.5q-1.5 27.5 2 53.5t10.5 47.5t14 31.5q0 -3 5 1t11.5 9t11.5 8.5t5 0.5q-8 -20 -13.5 -46.5t-3 -50t14 -39.5t37.5 -15q28 0 43.5 15.5t24 37t13 44.5t12.5 38q1 -3 5.5 0.5t9 8t9 8t5.5 0.5q-8 -29 -2.5 -54t19.5 -40t35.5 -18t46.5 14q6 9 5.5 22t-4.5 26.5 t-11 27t-14 23.5q13 18 24.5 34t22.5 32q11 -17 17.5 -36t11.5 -38q6 -33 3 -67t-15 -62t-33 -45.5t-51 -17.5q-25 0 -37.5 9t-27.5 23q-6 -10 -15 -23t-22 -25t-31 -21t-40 -11q-35 -3 -56 10t-31 35t-11.5 49.5z" />
<glyph unicode="&#xfedf;&#xfe82;" horiz-adv-x="1220" arabic-form="isolated" d="M55 1528v108h377v-108h-377zM75 1v184h321l-284 1249h240l284 -1249h54q67 0 107 15t66 50q29 39 37 89t8 104v990h239v-1062q0 -56 -8.5 -100t-23 -78t-34 -59.5t-40.5 -44.5q-33 -30 -68.5 -47.5t-73.5 -26.5t-78 -11.5t-83 -2.5h-663z" />
<glyph unicode="&#xfee0;&#xfe82;" horiz-adv-x="1255" arabic-form="final" d="M55 1528v108h377v-108h-377zM75 1v184h321l-284 1249h240l284 -1249h54q67 0 107 15t66 50q29 39 37 89t8 104v990h239v-1062q0 -60 -9.5 -106t-26.5 -81h154v-184z" />
<glyph unicode="&#xfedf;&#xfe84;" horiz-adv-x="1220" arabic-form="isolated" d="M75 1v184h321l-284 1249h240l284 -1249h54q67 0 107 15t66 50q29 39 37 89t8 104v990h239v-1062q0 -56 -8.5 -100t-23 -78t-34 -59.5t-40.5 -44.5q-33 -30 -68.5 -47.5t-73.5 -26.5t-78 -11.5t-83 -2.5h-663zM121 1695q0 34 17 47.5t45 13.5h149v-57h-121q-2 0 -7.5 0.5 t-5.5 -4.5q0 -2 3.5 -4.5t12 -5.5t23.5 -8t38 -13q32 -11 47.5 -27t15.5 -46q0 -26 -14.5 -42t-40.5 -16h-159v60h121q7 0 7 6q0 2 -0.5 3t-7.5 3.5t-23 7.5t-46 15q-29 10 -41.5 25.5t-12.5 41.5z" />
<glyph unicode="&#xfee0;&#xfe84;" horiz-adv-x="1255" arabic-form="final" d="M75 1v184h321l-284 1249h240l284 -1249h54q67 0 107 15t66 50q29 39 37 89t8 104v990h239v-1062q0 -60 -9.5 -106t-26.5 -81h154v-184zM121 1695q0 34 17 47.5t45 13.5h149v-57h-121q-2 0 -7.5 0.5t-5.5 -4.5q0 -2 3.5 -4.5t12 -5.5t23.5 -8t38 -13q32 -11 47.5 -27 t15.5 -46q0 -26 -14.5 -42t-40.5 -16h-159v60h121q7 0 7 6q0 2 -0.5 3t-7.5 3.5t-23 7.5t-46 15q-29 10 -41.5 25.5t-12.5 41.5z" />
<glyph unicode="&#xfedf;&#xfe88;" horiz-adv-x="1220" arabic-form="isolated" d="M75 1v184h321l-284 1249h240l284 -1249h54q67 0 107 15t66 50q29 39 37 89t8 104v990h239v-1062q0 -56 -8.5 -100t-23 -78t-34 -59.5t-40.5 -44.5q-33 -30 -68.5 -47.5t-73.5 -26.5t-78 -11.5t-83 -2.5h-663zM290 -155q0 34 17 47.5t45 13.5h149v-57h-121q-2 0 -7.5 0.5 t-5.5 -4.5q0 -2 3.5 -4.5t12 -5.5t23.5 -8t38 -13q32 -11 47.5 -27t15.5 -46q0 -26 -14.5 -42t-40.5 -16h-159v60h121q7 0 7 6q0 2 -0.5 3t-7.5 3.5t-23 7.5t-46 15q-29 10 -41.5 25.5t-12.5 41.5z" />
<glyph unicode="&#xfee0;&#xfe88;" horiz-adv-x="1255" arabic-form="final" d="M75 1v184h321l-284 1249h240l284 -1249h54q67 0 107 15t66 50q29 39 37 89t8 104v990h239v-1062q0 -60 -9.5 -106t-26.5 -81h154v-184zM290 -155q0 34 17 47.5t45 13.5h149v-57h-121q-2 0 -7.5 0.5t-5.5 -4.5q0 -2 3.5 -4.5t12 -5.5t23.5 -8t38 -13q32 -11 47.5 -27 t15.5 -46q0 -26 -14.5 -42t-40.5 -16h-159v60h121q7 0 7 6q0 2 -0.5 3t-7.5 3.5t-23 7.5t-46 15q-29 10 -41.5 25.5t-12.5 41.5z" />
<glyph unicode="&#xfedf;&#xfe8e;" horiz-adv-x="1220" arabic-form="isolated" d="M75 1v184h321l-284 1249h240l284 -1249h54q67 0 107 15t66 50q29 39 37 89t8 104v990h239v-1062q0 -56 -8.5 -100t-23 -78t-34 -59.5t-40.5 -44.5q-33 -30 -68.5 -47.5t-73.5 -26.5t-78 -11.5t-83 -2.5h-663z" />
<glyph unicode="&#xfee0;&#xfe8e;" horiz-adv-x="1255" arabic-form="final" d="M75 1v184h321l-284 1249h240l284 -1249h54q67 0 107 15t66 50q29 39 37 89t8 104v990h239v-1062q0 -60 -9.5 -106t-26.5 -81h154v-184z" />
<glyph unicode="&#xfcf4;" horiz-adv-x="532" arabic-form="medial" d="M71 1021q61 25 105.5 43t79 36t62.5 39.5t56 54.5q-47 11 -69 34t-25.5 51t9 57.5t34 53.5t49.5 38.5t56 13.5q16 -1 25 -12.5t12.5 -29t2.5 -39t-3.5 -41.5t-6.5 -36.5t-7 -24.5l44 -13l-19 -80l-52 12q-11 -23 -37.5 -52.5t-62.5 -55t-78.5 -42.5t-85.5 -15 q-29 2 -47.5 3t-28.5 2t-12.5 1.5t-0.5 1.5zM337 1332q-2 -25 20 -37t51 -23q2 20 2 38q0 15 -2 28.5t-9 18.5v-2q-5 6 -12 8t-12 2q-17 2 -27 -8.5t-11 -24.5z" />
<glyph unicode="&#xfe70;" horiz-adv-x="408" arabic-form="isolated" d="M49 1482l17 91l340 193l-17 -91zM63 1649l17 91l340 193l-17 -91z" />
<glyph unicode="&#xfe71;" horiz-adv-x="669" arabic-form="medial" d="M1 949q5 23 8 39t7 38q99 52 191.5 101.5t191.5 102.5l-16 -76q-97 -52 -191 -102.5t-191 -102.5zM33 1140q5 23 8.5 38.5t7.5 38.5q99 52 191 101.5t191 102.5l-15 -76q-97 -52 -191.5 -102.5t-191.5 -102.5z" />
<glyph unicode="&#xfe72;" horiz-adv-x="469" arabic-form="isolated" d="M45 1619q19 27 44.5 43.5t50.5 22t47 -1t34 -24.5t10.5 -48t-23.5 -72q46 20 85.5 44t71.5 62q-41 10 -60.5 31.5t-22 47.5t8 53t30 49.5t44 36t49.5 12.5q21 -2 28 -24.5t6.5 -51t-6 -55.5t-8.5 -37l38 -12l-17 -76l-46 13q-6 -14 -19.5 -33.5t-32 -40t-40.5 -39.5 t-45.5 -31t-47.5 -15t-46 8t-24 31.5t3 42t10.5 42t-2 32t-34.5 10.5t-86 -20zM334 1773q-2 -11 3 -19t14 -14t20.5 -11.5t24.5 -11.5q2 19 2 35q0 14 -2.5 26.5t-7.5 16.5v-2q-10 10 -23 10q-14 1 -22.5 -8.5t-8.5 -21.5z" />
<glyph unicode="&#xfe74;" horiz-adv-x="408" arabic-form="isolated" d="M1 -288q5 23 8 38.5t7 38.5q99 52 191.5 101.5t191.5 102.5l-15 -76q-97 -52 -191.5 -102.5t-191.5 -102.5zM33 -98q5 24 8.5 39.5t7.5 38.5q99 52 191 101t191 102l-15 -76q-97 -52 -191.5 -102.5t-191.5 -102.5z" />
<glyph unicode="&#xfe76;" horiz-adv-x="408" arabic-form="isolated" d="M13 1378q5 24 8 39.5t7 37.5q99 52 191.5 101.5t191.5 102.5l-15 -76q-97 -52 -191.5 -102.5t-191.5 -102.5z" />
<glyph unicode="&#xfe78;" horiz-adv-x="414" arabic-form="isolated" d="M13 1507q61 25 105.5 43t79 36t62.5 39.5t56 54.5q-47 11 -69 34t-25.5 51t9 57.5t34 53.5t49.5 38.5t56 13.5q16 -1 25 -12.5t12.5 -29t2.5 -39t-3.5 -41.5t-6.5 -36.5t-7 -24.5l44 -13l-19 -80l-52 12q-11 -23 -37.5 -52.5t-62.5 -55t-78.5 -42.5t-85.5 -15 q-29 2 -47.5 3t-28.5 2t-12.5 1.5t-0.5 1.5zM279 1818q-2 -25 20 -37t51 -23q2 20 2 38q0 15 -2 28.5t-9 18.5v-2q-5 6 -12 8t-12 2q-17 2 -27 -8.5t-11 -24.5z" />
<glyph unicode="&#xfe7a;" horiz-adv-x="408" arabic-form="isolated" d="M9 -568q5 23 8 39t7 38q99 52 191.5 101.5t191.5 102.5l-15 -76q-97 -52 -191.5 -102.5t-191.5 -102.5z" />
<glyph unicode="&#xfe7c;" horiz-adv-x="425" arabic-form="isolated" d="M59.5 1603.5q-1.5 27.5 2 53.5t10.5 47.5t14 31.5q0 -3 5 1t11.5 9t11.5 8.5t5 0.5q-8 -20 -13.5 -46.5t-3 -50t14 -39.5t37.5 -15q28 0 43.5 15.5t24 37t13 44.5t12.5 38q1 -3 5.5 0.5t9 8t9 8t5.5 0.5q-8 -29 -2.5 -54t19.5 -40t35.5 -18t46.5 14q6 9 5.5 22t-4.5 26.5 t-11 27t-14 23.5q13 18 24.5 34t22.5 32q11 -17 17.5 -36t11.5 -38q6 -33 3 -67t-15 -62t-33 -45.5t-51 -17.5q-25 0 -37.5 9t-27.5 23q-6 -10 -15 -23t-22 -25t-31 -21t-40 -11q-35 -3 -56 10t-31 35t-11.5 49.5z" />
<glyph unicode="&#xfe7e;" horiz-adv-x="328" arabic-form="isolated" d="M59 1556q-5 33 3.5 75.5t27 81.5t46 67t59.5 33q28 4 54 -6.5t46.5 -28.5t34.5 -40.5t17 -41.5q5 -34 -10 -71.5t-41 -87.5v1q0 1 1 2l-3 -5h1h-1q-24 -14 -61.5 -26.5t-74 -15t-65 11t-34.5 51.5zM123 1643q3 -22 21 -32.5t42 -11t50 6.5t46 21l1 1q-3 14 -13.5 30 t-25 29.5t-31.5 22t-35 5.5q-30 -5 -44 -27t-11 -45zM295 1536h1h-1z" />
<glyph unicode="&#xfe7f;" horiz-adv-x="2797" arabic-form="medial" d="M90 223v504h2611v-504h-2611zM161 1054q0 34 16.5 56.5t54.5 22.5q6 0 12 -0.5t13 -1.5q46 -5 92.5 -10t94.5 -5l80 179q8 37 25.5 64t46.5 27q10 0 19.5 -3.5t9.5 -17.5q0 -9 -8 -24.5t-17 -28.5l-97 -192q105 5 209 36t189 97q35 31 61.5 43.5t43.5 12.5q25 0 25 -21 q0 -19 -23 -47.5t-73 -54.5q-33 -34 -63 -72t-54 -82t-40 -96t-20 -115q0 -19 -15 -19q-12 0 -18 13.5t-6 45.5q0 73 22.5 140.5t56.5 124.5q-76 -25 -155 -36.5t-161 -11.5l-80 -160q-15 -31 -39 -54t-56 -23q-24 0 -50 18.5t-47 49t-35 68.5t-14 77zM200 1066 q0 -23 9.5 -52.5t25.5 -56t36 -45t40 -18.5q15 0 29 12t26 40l61 134q-108 3 -214 21q-13 -10 -13 -35zM879 873q0 7 2.5 15t6.5 17q18 40 49 76.5t68.5 64t77.5 44t76 16.5q27 0 48 -16t21 -52q0 -14 -9.5 -30.5t-27.5 -36.5q-20 -20 -35 -44.5t-15 -46.5q0 -15 9 -21.5 t23 -6.5q21 0 49.5 10t56.5 23t51.5 25.5t33.5 18.5q8 37 32.5 68.5t55.5 54.5t63.5 36.5t57.5 13.5q14 0 20 -5t6 -13q0 -10 -11 -20.5t-30 -12.5q-19 -7 -44 -19t-47.5 -30t-38 -41t-15.5 -52q0 -32 16.5 -45t42.5 -13t59 10t64.5 23.5t58 27.5t41.5 21q0 36 19 71 t48.5 62.5t66.5 44t73 16.5q22 0 36.5 -4.5t22 -11t10.5 -15t3 -15.5q0 -26 -29 -52t-67 -49t-74.5 -40.5t-52.5 -25.5q16 -23 41 -33.5t57 -10.5q30 0 64.5 8.5t70 23.5t70 35.5t64.5 43.5q19 14 38 32t40 33q4 3 13 8t19.5 10.5t21.5 9t20 3.5q15 0 15 -13q0 -5 -4 -16.5 t-10 -22.5q-16 -45 -25.5 -75t-11.5 -47q0 -5 6 -5q7 0 20 6.5t29.5 16t34 22t32.5 24.5q4 2 23 15t43 27.5t48 26.5t38 12q12 0 12 -12q-3 -29 -3 -57q0 -12 1 -24.5t4.5 -22t10 -15.5t17.5 -6q17 0 31 5.5t27 13.5t25.5 18t27.5 19l8 -21q-12 -9 -30 -25t-38.5 -31.5 t-42.5 -27t-42 -11.5q-15 0 -25 6t-15 15t-7 19t-2 19t1 18.5t1 17.5q0 11 -3.5 21t-14.5 10q-10 0 -27.5 -9.5t-38.5 -24t-45 -31t-48 -31t-46 -24.5t-40 -10q-11 2 -22 8t-11 19q0 23 4.5 44.5t18.5 62.5q0 1 -15.5 -10t-43 -28t-64 -37t-77 -37.5t-83 -29t-82.5 -11.5 q-41 0 -76.5 16.5t-49.5 46.5q-19 -8 -47.5 -22t-62 -27.5t-68.5 -23t-66 -9.5q-35 0 -61.5 16.5t-35.5 60.5q-21 -12 -45 -26t-49.5 -25.5t-50.5 -19.5t-49 -8q-31 0 -55.5 20.5t-43.5 65.5q-17 -12 -30 -20.5t-25.5 -15.5t-25.5 -12t-30 -11q-18 -6 -32 -6q-17 0 -33 11.5 t-16 33.5zM880 265h126v125h-126v-125zM928 880q41 0 77.5 16.5t68.5 42t59 57.5t50 63q-5 1 -10 1h-10q-36 0 -70.5 -17t-65 -43.5t-56 -58.5t-43.5 -61zM1103 265h91v320l318 -320h109v421h-91v-320l-313 320h-114v-421zM1709 265h430v76h-331v108h299v75h-299v87h322v75 h-421v-421zM1737 954q40 17 73.5 34t58.5 33t39 30t14 25q0 10 -8 15q-50 -5 -99 -38t-78 -99zM2202 609h183v-344h89v344h183v77h-455v-77z" />
<glyph unicode="&#x621;" horiz-adv-x="1079" arabic-form="isolated" d="M53 807q0 42 9.5 90.5t41.5 93.5q25 34 56 53t64.5 28t69 11t71.5 2h612v-184h-576q-20 0 -42 -1.5t-42 -18.5q-23 -17 -26.5 -36t-3.5 -42t5 -43.5t30 -40.5q11 -9 30 -18t39 -16.5t38 -13t28 -7.5l233 -66q49 -15 89.5 -28t74 -27t60 -30.5t47.5 -37.5 q21 -22 33.5 -47.5t19.5 -51.5t9.5 -52t2.5 -48q0 -49 -8.5 -86.5t-21.5 -65.5t-29 -47.5t-31 -31.5q-21 -15 -43.5 -24t-45 -13.5t-44.5 -6t-41 -1.5h-694v184h610q18 0 40.5 5.5t39.5 25.5q17 17 18.5 36t1.5 32q0 23 -5 43t-25 39q-6 6 -17 11.5t-32 13t-56.5 18 t-91.5 26.5l-209 58q-87 23 -146.5 54.5t-91.5 76.5t-41.5 93.5t-9.5 90.5z" />
<glyph unicode="&#x622;" horiz-adv-x="403" arabic-form="isolated" d="M10 1528v108h377v-108h-377zM82 0v1434h240v-1434h-240z" />
<glyph unicode="&#x622;" horiz-adv-x="640" arabic-form="final" d="M55 1528v108h377v-108h-377zM76 371v1063h239v-991q0 -54 8 -104t37 -89q26 -35 66 -50t107 -15h117v-184h-165q-43 0 -83 2.5t-78 11.5t-73.5 26.5t-68.5 47.5q-21 19 -40.5 44.5t-34 59.5t-23 78t-8.5 100z" />
<glyph unicode="&#x623;" horiz-adv-x="403" arabic-form="isolated" d="M82 0v1434h240v-1434h-240zM96 1695q0 34 17 47.5t45 13.5h149v-57h-121q-2 0 -7.5 0.5t-5.5 -4.5q0 -2 3.5 -4.5t12 -5.5t23.5 -8t38 -13q32 -11 47.5 -27t15.5 -46q0 -26 -14.5 -42t-40.5 -16h-159v60h121q7 0 7 6q0 2 -0.5 3t-7.5 3.5t-23 7.5t-46 15 q-29 10 -41.5 25.5t-12.5 41.5z" />
<glyph unicode="&#x623;" horiz-adv-x="640" arabic-form="final" d="M76 371v1063h239v-991q0 -54 8 -104t37 -89q26 -35 66 -50t107 -15h117v-184h-165q-43 0 -83 2.5t-78 11.5t-73.5 26.5t-68.5 47.5q-21 19 -40.5 44.5t-34 59.5t-23 78t-8.5 100zM96 1695q0 34 17 47.5t45 13.5h149v-57h-121q-2 0 -7.5 0.5t-5.5 -4.5q0 -2 3.5 -4.5 t12 -5.5t23.5 -8t38 -13q32 -11 47.5 -27t15.5 -46q0 -26 -14.5 -42t-40.5 -16h-159v60h121q7 0 7 6q0 2 -0.5 3t-7.5 3.5t-23 7.5t-46 15q-29 10 -41.5 25.5t-12.5 41.5z" />
<glyph unicode="&#x624;" horiz-adv-x="1176" arabic-form="isolated" d="M53 559q0 128 21 229q23 102 94 179q38 42 79.5 66t84.5 35.5t86 14t84 2.5h350q48 0 92.5 -6t83.5 -37q42 -36 52 -78q12 -44 12 -79v-762q0 -105 -17.5 -195t-70.5 -155q-38 -45 -88.5 -71t-102 -39t-97.5 -17t-75 -4h-512v184h457q20 0 44.5 1.5t53.5 5.5q58 7 102 42 q53 46 64 125h-385q-41 0 -86 3.5t-88.5 17.5t-83 41.5t-70.5 76.5q-84 130 -84 420zM301 541q0 -72 6 -123t15 -85.5t19.5 -54.5t20.5 -30q41 -47 96 -56q28 -4 55.5 -6t53.5 -2h285v631q0 23 -5 39t-26 31q-16 10 -31.5 13t-31.5 3h-205q-60 0 -109 -17.5t-77 -49.5 q-25 -29 -38.5 -71t-19.5 -85t-7 -80.5t-1 -56.5zM403 1470q0 59 30 83t79 24h262v-101h-213q-5 0 -14 0.5t-9 -7.5q0 -4 6 -7.5t21 -9t41.5 -14t67.5 -22.5q55 -19 83 -47.5t28 -81.5q0 -45 -25.5 -73.5t-71.5 -28.5h-281v105h214q4 0 8.5 2t4.5 8q0 4 -1.5 5.5t-13.5 6 t-40 13.5t-81 27q-51 17 -73 44t-22 74z" />
<glyph unicode="&#x624;" horiz-adv-x="1220" arabic-form="final" d="M53 559q0 128 21 229q23 102 94 179q38 42 79.5 66t84.5 35.5t86 14t84 2.5h350q48 0 92.5 -6t83.5 -37q42 -36 52 -78q12 -44 12 -79v-701h140v-184h-146q-7 -67 -26 -124t-56 -103q-38 -45 -88.5 -71t-102 -39t-97.5 -17t-75 -4h-512v184h457q20 0 44.5 1.5t53.5 5.5 q58 7 102 42q53 46 64 125h-385q-41 0 -86 3.5t-88.5 17.5t-83 41.5t-70.5 76.5q-84 130 -84 420zM301 541q0 -72 6 -123t15 -85.5t19.5 -54.5t20.5 -30q41 -47 96 -56q28 -4 55.5 -6t53.5 -2h285v631q0 23 -5 39t-26 31q-16 10 -31.5 13t-31.5 3h-205q-60 0 -109 -17.5 t-77 -49.5q-25 -29 -38.5 -71t-19.5 -85t-7 -80.5t-1 -56.5zM403 1470q0 59 30 83t79 24h262v-101h-213q-5 0 -14 0.5t-9 -7.5q0 -4 6 -7.5t21 -9t41.5 -14t67.5 -22.5q55 -19 83 -47.5t28 -81.5q0 -45 -25.5 -73.5t-71.5 -28.5h-281v105h214q4 0 8.5 2t4.5 8q0 4 -1.5 5.5 t-13.5 6t-40 13.5t-81 27q-51 17 -73 44t-22 74z" />
<glyph unicode="&#x625;" horiz-adv-x="403" arabic-form="isolated" d="M82 0v1434h240v-1434h-240zM87 -155q0 34 17 47.5t45 13.5h149v-57h-121q-2 0 -7.5 0.5t-5.5 -4.5q0 -2 3.5 -4.5t12 -5.5t23.5 -8t38 -13q32 -11 47.5 -27t15.5 -46q0 -26 -14.5 -42t-40.5 -16h-159v60h121q7 0 7 6q0 2 -0.5 3t-7.5 3.5t-23 7.5t-46 15 q-29 10 -41.5 25.5t-12.5 41.5z" />
<glyph unicode="&#x625;" horiz-adv-x="640" arabic-form="final" d="M76 371v1063h239v-991q0 -54 8 -104t37 -89q26 -35 66 -50t107 -15h117v-184h-165q-43 0 -83 2.5t-78 11.5t-73.5 26.5t-68.5 47.5q-21 19 -40.5 44.5t-34 59.5t-23 78t-8.5 100zM87 -155q0 34 17 47.5t45 13.5h149v-57h-121q-2 0 -7.5 0.5t-5.5 -4.5q0 -2 3.5 -4.5 t12 -5.5t23.5 -8t38 -13q32 -11 47.5 -27t15.5 -46q0 -26 -14.5 -42t-40.5 -16h-159v60h121q7 0 7 6q0 2 -0.5 3t-7.5 3.5t-23 7.5t-46 15q-29 10 -41.5 25.5t-12.5 41.5z" />
<glyph unicode="&#x626;" horiz-adv-x="1511" arabic-form="isolated" d="M51 402v401h240v-358q0 -72 8.5 -115.5t31.5 -74.5q33 -44 81 -57t114 -13l584 -1q18 0 40.5 5.5t39.5 25.5q16 16 18 35.5t2 32.5q0 54 -31.5 88.5t-79.5 57t-104.5 36.5t-106.5 27q-87 22 -146 54t-92 77q-32 45 -41.5 93.5t-9.5 90.5t9.5 90.5t41.5 93.5q25 34 56 53 t64.5 28t69 11t71.5 2h498v-184h-462q-20 0 -41.5 -2t-42.5 -18q-22 -17 -26 -36.5t-4 -41.5q0 -23 5 -43.5t30 -40.5q11 -9 29.5 -18.5t38.5 -17t38 -12.5t29 -7l233 -66q56 -20 97.5 -53t69.5 -76t41.5 -92.5t13.5 -100.5q0 -98 -30 -152q-28 -53 -60 -79 q-21 -15 -43.5 -24t-45 -13.5t-44.5 -6t-41 -1.5l-750 1q-94 0 -160.5 17t-121.5 65q-34 30 -55.5 65t-34 74.5t-17 84.5t-4.5 95zM51 1207q0 59 30 83t79 24h262v-101h-213q-5 0 -14 0.5t-9 -7.5q0 -4 6 -7.5t21 -9t41.5 -14t67.5 -22.5q55 -19 83 -47.5t28 -81.5 q0 -45 -25.5 -73.5t-71.5 -28.5h-281v105h214q4 0 8.5 2t4.5 8q0 4 -1.5 5.5t-13.5 6t-40 13.5t-81 27q-51 17 -73 44t-22 74z" />
<glyph unicode="&#x626;" horiz-adv-x="1677" arabic-form="final" d="M41 402v326h240v-283q0 -72 8.5 -115.5t31.5 -74.5q33 -44 81 -57t114 -13h48q66 0 114 13t81 57q23 31 31.5 74.5t8.5 115.5l-3 319q0 29 3 62t10 68q14 72 67 124q28 28 72.5 48.5t113.5 20.5l260 -2q13 0 30.5 -0.5t35.5 -4.5t36 -11.5t33 -21.5q36 -33 44 -85 q4 -25 5.5 -43.5t1.5 -31.5v-555q0 -48 11 -75.5t26 -41.5q22 -22 52 -26.5t60 -4.5h30v-184h-118q-53 0 -111 9q-56 9 -106 54q-15 15 -30 36t-27 50.5t-19.5 67.5t-7.5 86v8v22v49v88t0.5 140.5t0.5 206.5q1 6 0 15.5t-3 19.5t-5.5 19t-8.5 14q-12 12 -32.5 14t-36.5 2 h-29q-28 0 -52.5 -10t-39.5 -27q-18 -22 -22 -54t-4 -60l-2 -348q0 -50 -4.5 -95t-17 -84.5t-34 -74.5t-55.5 -65q-55 -48 -121.5 -65t-160.5 -17h-207q-94 0 -160.5 17t-121.5 65q-34 30 -55.5 65t-34 74.5t-17 84.5t-4.5 95zM42 1143q0 59 30 83t79 24h262v-101h-213 q-5 0 -14 0.5t-9 -7.5q0 -4 6 -7.5t21 -9t41.5 -14t67.5 -22.5q55 -19 83 -47.5t28 -81.5q0 -45 -25.5 -73.5t-71.5 -28.5h-281v105h214q4 0 8.5 2t4.5 8q0 4 -1.5 5.5t-13.5 6t-40 13.5t-81 27q-51 17 -73 44t-22 74z" />
<glyph unicode="&#x626;" horiz-adv-x="660" arabic-form="initial" d="M-10 1v184h117q67 0 107 15t66 50q29 39 37 89t8 104v266h239v-338q0 -56 -8.5 -100t-23 -78t-34 -59.5t-40.5 -44.5q-33 -30 -68.5 -47.5t-73.5 -26.5t-78 -11.5t-83 -2.5h-165zM98 1194q0 79 40.5 112t107.5 33h354v-136h-288q-3 0 -8.5 0.5t-10.5 0t-9 -2.5t-4 -8 q0 -5 8 -10t28.5 -12.5t56.5 -19t92 -30.5q37 -12 64.5 -27.5t46.5 -36t28.5 -47.5t9.5 -63q0 -61 -34 -99.5t-97 -38.5h-379v142h289q5 0 11 3t6 11q0 5 -1.5 7.5t-18 8l-54 18l-109.5 36.5q-69 23 -99 59.5t-30 99.5z" />
<glyph unicode="&#x626;" horiz-adv-x="729" arabic-form="medial" d="M-9 1v184h24q67 0 107 15t66 50q27 38 35.5 85t9.5 99q-1 7 -1 13v14h1v271h239v-271l5 -148q12 -43 38 -68.5t59 -39t70 -17.5t70 -4h26v-184h-98q-35 0 -71.5 2.5t-73.5 10.5t-72.5 24.5t-66.5 44.5q-32 -28 -66.5 -44t-71.5 -24.5t-76 -10.5t-81 -2h-72zM98 1194 q0 79 40.5 112t107.5 33h354v-136h-288q-3 0 -8.5 0.5t-10.5 0t-9 -2.5t-4 -8q0 -5 8 -10t28.5 -12.5t56.5 -19t92 -30.5q37 -12 64.5 -27.5t46.5 -36t28.5 -47.5t9.5 -63q0 -61 -34 -99.5t-97 -38.5h-379v142h289q5 0 11 3t6 11q0 5 -1.5 7.5t-18 8l-54 18l-109.5 36.5 q-69 23 -99 59.5t-30 99.5z" />
<glyph unicode="&#x627;" horiz-adv-x="403" arabic-form="isolated" d="M82 0v1434h240v-1434h-240z" />
<glyph unicode="&#x627;" horiz-adv-x="640" arabic-form="final" d="M76 371v1063h239v-991q0 -54 8 -104t37 -89q26 -35 66 -50t107 -15h117v-184h-165q-43 0 -83 2.5t-78 11.5t-73.5 26.5t-68.5 47.5q-21 19 -40.5 44.5t-34 59.5t-23 78t-8.5 100z" />
<glyph unicode="&#x628;" horiz-adv-x="1649" arabic-form="isolated" d="M54 531v319h248l-1 -324q0 -69 6 -132t37 -113q15 -27 36.5 -45.5t50.5 -30t67.5 -16.5t87.5 -5h477q49 0 87 5t67.5 16.5t51 30t36.5 45.5q31 51 37 114.5t7 135.5v555h248l-2 -560q0 -54 -2.5 -104t-12 -97t-27.5 -91t-48 -87q-39 -53 -83.5 -82.5t-90 -44t-90.5 -17.5 t-84 -3h-665q-38 0 -82.5 3t-90.5 17.5t-91.5 44t-84.5 82.5q-30 40 -48 85.5t-27 94.5t-11.5 100.5t-2.5 103.5zM685 -166h239v-191h-239v191z" />
<glyph unicode="&#x628;" horiz-adv-x="1855" arabic-form="final" d="M62 531v319h248l-1 -324q0 -69 6 -132t37 -113q15 -27 36.5 -45.5t50.5 -30t67.5 -16.5t87.5 -5l547 1q67 0 107 15t66 50q27 38 35.5 85t9.5 99q0 2 -0.5 7.5t-0.5 24.5v59v112t0.5 181.5t0.5 267.5h239v-625l5 -148q12 -43 38 -68.5t59 -39t70 -17.5t70 -4h26v-184h-98 q-35 0 -71.5 2.5t-73.5 10.5t-72.5 24.5t-66.5 44.5q-32 -28 -66.5 -44t-71.5 -24.5t-76 -10.5t-81 -2l-689 -1q-38 0 -82.5 3t-90.5 17.5t-91.5 44t-84.5 82.5q-30 40 -48 85.5t-27 94.5t-11.5 100.5t-2.5 103.5zM685 -166h239v-191h-239v191z" />
<glyph unicode="&#x628;" horiz-adv-x="660" arabic-form="initial" d="M-10 1v184h117q67 0 107 15t66 50q29 39 37 89t8 104v643h239v-715q0 -56 -8.5 -100t-23 -78t-34 -59.5t-40.5 -44.5q-33 -30 -68.5 -47.5t-73.5 -26.5t-78 -11.5t-83 -2.5h-165zM173 -166h239v-191h-239v191z" />
<glyph unicode="&#x628;" horiz-adv-x="729" arabic-form="medial" d="M-9 1v184h24q67 0 107 15t66 50q27 38 35.5 85t9.5 99q-1 7 -1 13v14h1v625h239v-625l5 -148q12 -43 38 -68.5t59 -39t70 -17.5t70 -4h26v-184h-98q-35 0 -71.5 2.5t-73.5 10.5t-72.5 24.5t-66.5 44.5q-32 -28 -66.5 -44t-71.5 -24.5t-76 -10.5t-81 -2h-72zM228 -166h239 v-191h-239v191z" />
<glyph unicode="&#x629;" horiz-adv-x="1262" arabic-form="isolated" d="M53 539q0 45 4 104t18.5 120t42 119t75.5 101q45 42 100.5 65t114 34t116.5 13.5t107 2.5t106.5 -2.5t116 -13.5t114.5 -34t101 -65q48 -43 75.5 -101t41.5 -118.5t18 -117.5t4 -99q0 -87 -10.5 -156.5t-29 -123.5t-44 -94.5t-55.5 -68.5q-43 -41 -99.5 -64t-116.5 -34.5 t-118 -14.5t-104 -3q-49 0 -107 3t-116.5 14.5t-114 34.5t-100.5 64q-49 45 -77 102.5t-42 117.5t-17.5 116.5t-3.5 98.5zM301 541q0 -34 1.5 -70.5t8 -73t20.5 -71t40 -64.5q27 -30 58.5 -48t65 -27t68.5 -12t68 -3q34 0 68.5 3t67.5 12t64 27t58 48t41.5 63.5t21.5 69.5 t8 73t1 73v65q0 27 -3 56.5t-11 59t-21.5 56.5t-34.5 49q-27 29 -58.5 46t-65.5 26t-68.5 11.5t-67.5 2.5q-29 0 -64.5 -2.5t-71 -11.5t-68.5 -26t-58 -46q-26 -29 -39.5 -67.5t-20 -78.5t-7.5 -77t-1 -63zM348 1305v191h239v-191h-239zM670 1305v191h239v-191h-239z" />
<glyph unicode="&#x629;" horiz-adv-x="1265" arabic-form="final" d="M53 559q0 43 2.5 90.5t11.5 95t25.5 93.5t44.5 86q39 57 89 89.5t100.5 48.5t97 19.5t78.5 3.5h321v125h240v-1026h217v-184h-827q-42 0 -89.5 7t-94.5 30t-89.5 65t-73.5 113q-10 24 -19.5 55.5t-17 73t-12 94.5t-4.5 121zM301 551q0 -64 3.5 -107.5t8 -71.5t9.5 -43 t8 -22q18 -41 44.5 -65t56.5 -37t60.5 -17t57.5 -4h273q0 14 0.5 29.5t0.5 28.5v23v11v625h-274q-24 0 -51 -3t-54 -13.5t-52 -29.5t-44 -50q-9 -15 -17.5 -35.5t-15 -51t-10.5 -71.5t-4 -96zM353 1396v191h239v-191h-239zM675 1396v191h239v-191h-239z" />
<glyph unicode="&#x62a;" horiz-adv-x="1649" arabic-form="isolated" d="M54 531v319h248l-1 -324q0 -69 6 -132t37 -113q15 -27 36.5 -45.5t50.5 -30t67.5 -16.5t87.5 -5h477q49 0 87 5t67.5 16.5t51 30t36.5 45.5q31 51 37 114.5t7 135.5v555h248l-2 -560q0 -54 -2.5 -104t-12 -97t-27.5 -91t-48 -87q-39 -53 -83.5 -82.5t-90 -44t-90.5 -17.5 t-84 -3h-665q-38 0 -82.5 3t-90.5 17.5t-91.5 44t-84.5 82.5q-30 40 -48 85.5t-27 94.5t-11.5 100.5t-2.5 103.5zM604 1247v191h239v-191h-239zM926 1247v191h239v-191h-239z" />
<glyph unicode="&#x62a;" horiz-adv-x="1855" arabic-form="final" d="M62 531v319h248l-1 -324q0 -69 6 -132t37 -113q15 -27 36.5 -45.5t50.5 -30t67.5 -16.5t87.5 -5l547 1q67 0 107 15t66 50q27 38 35.5 85t9.5 99q0 2 -0.5 7.5t-0.5 24.5v59v112t0.5 181.5t0.5 267.5h239v-625l5 -148q12 -43 38 -68.5t59 -39t70 -17.5t70 -4h26v-184h-98 q-35 0 -71.5 2.5t-73.5 10.5t-72.5 24.5t-66.5 44.5q-32 -28 -66.5 -44t-71.5 -24.5t-76 -10.5t-81 -2l-689 -1q-38 0 -82.5 3t-90.5 17.5t-91.5 44t-84.5 82.5q-30 40 -48 85.5t-27 94.5t-11.5 100.5t-2.5 103.5zM604 1247v191h239v-191h-239zM926 1247v191h239v-191h-239z " />
<glyph unicode="&#x62a;" horiz-adv-x="799" arabic-form="initial" d="M-15 1v184h261q67 0 107 15t66 50q29 39 37 89t8 104v643h239v-715q0 -56 -8.5 -100t-23 -78t-34 -59.5t-40.5 -44.5q-33 -30 -68.5 -47.5t-73.5 -26.5t-78 -11.5t-83 -2.5h-309zM144 1247v191h239v-191h-239zM466 1247v191h239v-191h-239z" />
<glyph unicode="&#x62a;" horiz-adv-x="729" arabic-form="medial" d="M-9 1v184h24q67 0 107 15t66 50q27 38 35.5 85t9.5 99q-1 7 -1 13v14h1v625h239v-625l5 -148q12 -43 38 -68.5t59 -39t70 -17.5t70 -4h26v-184h-98q-35 0 -71.5 2.5t-73.5 10.5t-72.5 24.5t-66.5 44.5q-32 -28 -66.5 -44t-71.5 -24.5t-76 -10.5t-81 -2h-72zM68 1247v191 h239v-191h-239zM390 1247v191h239v-191h-239z" />
<glyph unicode="&#x62b;" horiz-adv-x="1649" arabic-form="isolated" d="M54 531v319h248l-1 -324q0 -69 6 -132t37 -113q15 -27 36.5 -45.5t50.5 -30t67.5 -16.5t87.5 -5h477q49 0 87 5t67.5 16.5t51 30t36.5 45.5q31 51 37 114.5t7 135.5v555h248l-2 -560q0 -54 -2.5 -104t-12 -97t-27.5 -91t-48 -87q-39 -53 -83.5 -82.5t-90 -44t-90.5 -17.5 t-84 -3h-665q-38 0 -82.5 3t-90.5 17.5t-91.5 44t-84.5 82.5q-30 40 -48 85.5t-27 94.5t-11.5 100.5t-2.5 103.5zM510 1116v191h239v-191h-239zM697 1396v191h239v-191h-239zM862 1116v191h239v-191h-239z" />
<glyph unicode="&#x62b;" horiz-adv-x="1855" arabic-form="final" d="M62 531v319h248l-1 -324q0 -69 6 -132t37 -113q15 -27 36.5 -45.5t50.5 -30t67.5 -16.5t87.5 -5l547 1q67 0 107 15t66 50q27 38 35.5 85t9.5 99q0 2 -0.5 7.5t-0.5 24.5v59v112t0.5 181.5t0.5 267.5h239v-625l5 -148q12 -43 38 -68.5t59 -39t70 -17.5t70 -4h26v-184h-98 q-35 0 -71.5 2.5t-73.5 10.5t-72.5 24.5t-66.5 44.5q-32 -28 -66.5 -44t-71.5 -24.5t-76 -10.5t-81 -2l-689 -1q-38 0 -82.5 3t-90.5 17.5t-91.5 44t-84.5 82.5q-30 40 -48 85.5t-27 94.5t-11.5 100.5t-2.5 103.5zM510 1116v191h239v-191h-239zM697 1396v191h239v-191h-239z M862 1116v191h239v-191h-239z" />
<glyph unicode="&#x62b;" horiz-adv-x="769" arabic-form="initial" d="M-10 1v184h226q67 0 107 15t66 50q29 39 37 89t8 104v410h239v-482q0 -56 -8.5 -100t-23 -78t-34 -59.5t-40.5 -44.5q-33 -30 -68.5 -47.5t-73.5 -26.5t-78 -11.5t-83 -2.5h-274zM79 967v191h239v-191h-239zM266 1247v191h239v-191h-239zM431 967v191h239v-191h-239z" />
<glyph unicode="&#x62b;" horiz-adv-x="729" arabic-form="medial" d="M-9 1v184h24q67 0 107 15t66 50q27 38 35.5 85t9.5 99q-1 7 -1 13v14h1v394h239v-394l5 -148q12 -43 38 -68.5t59 -39t70 -17.5t70 -4h26v-184h-98q-35 0 -71.5 2.5t-73.5 10.5t-72.5 24.5t-66.5 44.5q-32 -28 -66.5 -44t-71.5 -24.5t-76 -10.5t-81 -2h-72zM54 967v191 h239v-191h-239zM241 1247v191h239v-191h-239zM406 967v191h239v-191h-239z" />
<glyph unicode="&#x62c;" horiz-adv-x="1220" arabic-form="isolated" d="M44 -54q0 75 16 120.5t39 70.5q36 49 85.5 79.5t105.5 48t116.5 24t119 8t111.5 -0.5t95 -2h87v458q0 24 -5 50.5t-26 51.5q-24 31 -56 39t-60 8h-535v184h617q69 0 128.5 -22.5t96.5 -61.5q35 -34 57.5 -98t22.5 -158v-451h92v-184l-584 -1q-36 0 -71 -3t-66.5 -9 t-58 -15.5t-44.5 -21.5q-24 -16 -39.5 -35.5t-21 -43.5t1.5 -52.5t30 -62.5q11 -12 29 -19.5t38.5 -12t40.5 -6t35 -1.5h105v-184h-201q-27 0 -55 1.5t-56 8t-54.5 19t-51.5 34.5q-15 15 -30 36t-27 50t-19.5 67.5t-7.5 86.5zM689 -173h224v-184h-224v184z" />
<glyph unicode="&#x62c;" horiz-adv-x="1309" arabic-form="final" d="M47 -164q0 75 16 120.5t39 70.5q36 49 85.5 79.5t105.5 48t116.5 24t119 8t111.5 -0.5t95 -2h87v458q0 24 -5 50.5t-26 51.5q-24 31 -56 39t-60 8h-535v184h617q69 0 128.5 -22.5t96.5 -61.5q35 -34 57.5 -98t22.5 -158v-451h257v-184l-749 -1q-36 0 -71 -3t-66.5 -9 t-58 -15.5t-44.5 -21.5q-24 -16 -39.5 -35.5t-21 -43.5t1.5 -52.5t30 -62.5q11 -12 29 -19.5t38.5 -12t40.5 -6t35 -1.5h186v-184h-282q-27 0 -55 1.5t-56 8t-54.5 19t-51.5 34.5q-15 15 -30 36t-27 50t-19.5 67.5t-7.5 86.5zM739 -283h224v-184h-224v184z" />
<glyph unicode="&#x62c;" horiz-adv-x="1319" arabic-form="initial" d="M-27 0v184h772q11 0 26 1t28 12q12 10 14 21t2 24v510q0 24 -5 50.5t-26 51.5q-24 31 -56 39t-60 8h-535v184h617q69 0 128.5 -22.5t96.5 -61.5q35 -34 57.5 -98t22.5 -158v-561h160v-184h-1242zM451 -166h239v-191h-239v191z" />
<glyph unicode="&#x62c;" horiz-adv-x="1240" arabic-form="medial" d="M-27 0v184h772q11 0 26 1t28 12q12 10 14 21t2 24v510q0 24 -5 50.5t-26 51.5q-24 31 -56 39t-60 8h-535v184h617q69 0 128.5 -22.5t96.5 -61.5q35 -34 57.5 -98t22.5 -158v-561h195v-184h-1277zM451 -166h239v-191h-239v191z" />
<glyph unicode="&#x62d;" horiz-adv-x="1220" arabic-form="isolated" d="M44 -54q0 75 16 120.5t39 70.5q36 49 85.5 79.5t105.5 48t116.5 24t119 8t111.5 -0.5t95 -2h87v458q0 24 -5 50.5t-26 51.5q-24 31 -56 39t-60 8h-535v184h617q69 0 128.5 -22.5t96.5 -61.5q35 -34 57.5 -98t22.5 -158v-451h92v-184l-584 -1q-36 0 -71 -3t-66.5 -9 t-58 -15.5t-44.5 -21.5q-24 -16 -39.5 -35.5t-21 -43.5t1.5 -52.5t30 -62.5q11 -12 29 -19.5t38.5 -12t40.5 -6t35 -1.5h741v-184h-837q-27 0 -55 1.5t-56 8t-54.5 19t-51.5 34.5q-15 15 -30 36t-27 50t-19.5 67.5t-7.5 86.5z" />
<glyph unicode="&#x62d;" horiz-adv-x="1309" arabic-form="final" d="M47 -164q0 75 16 120.5t39 70.5q36 49 85.5 79.5t105.5 48t116.5 24t119 8t111.5 -0.5t95 -2h87v458q0 24 -5 50.5t-26 51.5q-24 31 -56 39t-60 8h-535v184h617q69 0 128.5 -22.5t96.5 -61.5q35 -34 57.5 -98t22.5 -158v-451h257v-184l-749 -1q-36 0 -71 -3t-66.5 -9 t-58 -15.5t-44.5 -21.5q-24 -16 -39.5 -35.5t-21 -43.5t1.5 -52.5t30 -62.5q11 -12 29 -19.5t38.5 -12t40.5 -6t35 -1.5h741v-184h-837q-27 0 -55 1.5t-56 8t-54.5 19t-51.5 34.5q-15 15 -30 36t-27 50t-19.5 67.5t-7.5 86.5z" />
<glyph unicode="&#x62d;" horiz-adv-x="1319" arabic-form="initial" d="M-27 0v184h772q11 0 26 1t28 12q12 10 14 21t2 24v510q0 24 -5 50.5t-26 51.5q-24 31 -56 39t-60 8h-535v184h617q69 0 128.5 -22.5t96.5 -61.5q35 -34 57.5 -98t22.5 -158v-561h160v-184h-1242z" />
<glyph unicode="&#x62d;" horiz-adv-x="1240" arabic-form="medial" d="M-27 0v184h772q11 0 26 1t28 12q12 10 14 21t2 24v510q0 24 -5 50.5t-26 51.5q-24 31 -56 39t-60 8h-535v184h617q69 0 128.5 -22.5t96.5 -61.5q35 -34 57.5 -98t22.5 -158v-561h195v-184h-1277z" />
<glyph unicode="&#x62e;" horiz-adv-x="1220" arabic-form="isolated" d="M44 -54q0 75 16 120.5t39 70.5q36 49 85.5 79.5t105.5 48t116.5 24t119 8t111.5 -0.5t95 -2h87v458q0 24 -5 50.5t-26 51.5q-24 31 -56 39t-60 8h-535v184h617q69 0 128.5 -22.5t96.5 -61.5q35 -34 57.5 -98t22.5 -158v-451h92v-184l-584 -1q-36 0 -71 -3t-66.5 -9 t-58 -15.5t-44.5 -21.5q-24 -16 -39.5 -35.5t-21 -43.5t1.5 -52.5t30 -62.5q11 -12 29 -19.5t38.5 -12t40.5 -6t35 -1.5h741v-184h-837q-27 0 -55 1.5t-56 8t-54.5 19t-51.5 34.5q-15 15 -30 36t-27 50t-19.5 67.5t-7.5 86.5zM377 1243v191h239v-191h-239z" />
<glyph unicode="&#x62e;" horiz-adv-x="1309" arabic-form="final" d="M47 -164q0 75 16 120.5t39 70.5q36 49 85.5 79.5t105.5 48t116.5 24t119 8t111.5 -0.5t95 -2h87v458q0 24 -5 50.5t-26 51.5q-24 31 -56 39t-60 8h-535v184h617q69 0 128.5 -22.5t96.5 -61.5q35 -34 57.5 -98t22.5 -158v-451h257v-184l-749 -1q-36 0 -71 -3t-66.5 -9 t-58 -15.5t-44.5 -21.5q-24 -16 -39.5 -35.5t-21 -43.5t1.5 -52.5t30 -62.5q11 -12 29 -19.5t38.5 -12t40.5 -6t35 -1.5h741v-184h-837q-27 0 -55 1.5t-56 8t-54.5 19t-51.5 34.5q-15 15 -30 36t-27 50t-19.5 67.5t-7.5 86.5zM351 1161v191h239v-191h-239z" />
<glyph unicode="&#x62e;" horiz-adv-x="1319" arabic-form="initial" d="M-27 0v184h772q11 0 26 1t28 12q12 10 14 21t2 24v510q0 24 -5 50.5t-26 51.5q-24 31 -56 39t-60 8h-535v184h617q69 0 128.5 -22.5t96.5 -61.5q35 -34 57.5 -98t22.5 -158v-561h160v-184h-1242zM377 1243v191h239v-191h-239z" />
<glyph unicode="&#x62e;" horiz-adv-x="1240" arabic-form="medial" d="M-27 0v184h772q11 0 26 1t28 12q12 10 14 21t2 24v510q0 24 -5 50.5t-26 51.5q-24 31 -56 39t-60 8h-535v184h617q69 0 128.5 -22.5t96.5 -61.5q35 -34 57.5 -98t22.5 -158v-561h195v-184h-1277zM377 1243v191h239v-191h-239z" />
<glyph unicode="&#x62f;" horiz-adv-x="1051" arabic-form="isolated" d="M53 0v184h389q37 0 76.5 3.5t76 15.5t67.5 35t52 61q11 21 18 50t10.5 60t5 61t1.5 54q0 13 -0.5 38.5t-2.5 55t-5.5 59.5t-9.5 52q-10 34 -30.5 65.5t-52.5 55t-77.5 37.5t-106.5 14h-387v184h465q73 0 128 -12t95 -30t66.5 -38t42.5 -36q45 -47 70 -103.5t37 -115 t14 -116t2 -106.5q0 -58 -2.5 -112t-12.5 -103.5t-30 -94.5t-54 -85q-38 -44 -81 -70t-86.5 -40t-84 -18.5t-71.5 -4.5h-522z" />
<glyph unicode="&#x62f;" horiz-adv-x="1131" arabic-form="final" d="M53 0v184h389q37 0 76.5 3.5t76 15.5t67.5 35t52 61q11 21 18 50t10.5 60t5 61t1.5 54q0 13 -0.5 38.5t-2.5 55t-5.5 59.5t-9.5 52q-10 34 -30.5 65.5t-52.5 55t-77.5 37.5t-106.5 14h-387v184h465q73 0 128 -12t95 -30t66.5 -38t42.5 -36q45 -47 70 -103.5t37 -115 t14 -116t2 -106.5q0 -50 -2 -96t-8.5 -89t-19 -83t-33.5 -76h207v-184h-1088z" />
<glyph unicode="&#x630;" horiz-adv-x="1051" arabic-form="isolated" d="M53 0v184h389q37 0 76.5 3.5t76 15.5t67.5 35t52 61q11 21 18 50t10.5 60t5 61t1.5 54q0 13 -0.5 38.5t-2.5 55t-5.5 59.5t-9.5 52q-10 34 -30.5 65.5t-52.5 55t-77.5 37.5t-106.5 14h-387v184h465q73 0 128 -12t95 -30t66.5 -38t42.5 -36q45 -47 70 -103.5t37 -115 t14 -116t2 -106.5q0 -58 -2.5 -112t-12.5 -103.5t-30 -94.5t-54 -85q-38 -44 -81 -70t-86.5 -40t-84 -18.5t-71.5 -4.5h-522zM283 1243v191h239v-191h-239z" />
<glyph unicode="&#x630;" horiz-adv-x="1131" arabic-form="final" d="M53 0v184h389q37 0 76.5 3.5t76 15.5t67.5 35t52 61q11 21 18 50t10.5 60t5 61t1.5 54q0 13 -0.5 38.5t-2.5 55t-5.5 59.5t-9.5 52q-10 34 -30.5 65.5t-52.5 55t-77.5 37.5t-106.5 14h-387v184h465q73 0 128 -12t95 -30t66.5 -38t42.5 -36q45 -47 70 -103.5t37 -115 t14 -116t2 -106.5q0 -50 -2 -96t-8.5 -89t-19 -83t-33.5 -76h207v-184h-1088zM248 1243v191h239v-191h-239z" />
<glyph unicode="&#x631;" horiz-adv-x="670" arabic-form="isolated" d="M43 -180q49 -1 85 0.5t63.5 7t49 15t42.5 24.5t36.5 33t26 42.5t16 57t5.5 76.5v1009h239v-1058q0 -72 -15 -124.5t-37 -89.5t-45.5 -60.5t-41.5 -37.5q-66 -47 -168 -66.5t-256 -13.5v185z" />
<glyph unicode="&#x631;" horiz-adv-x="769" arabic-form="final" d="M43 -180q49 -1 85 0.5t63.5 7t49 15t42.5 24.5t36.5 33t26 42.5t16 57t5.5 76.5v1009h239v-901h178v-184h-179q-3 -65 -19 -112.5t-37 -81.5t-43.5 -56t-38.5 -35q-66 -47 -168 -66.5t-256 -13.5v185z" />
<glyph unicode="&#x632;" horiz-adv-x="670" arabic-form="isolated" d="M43 -180q49 -1 85 0.5t63.5 7t49 15t42.5 24.5t36.5 33t26 42.5t16 57t5.5 76.5v1009h239v-1058q0 -72 -15 -124.5t-37 -89.5t-45.5 -60.5t-41.5 -37.5q-66 -47 -168 -66.5t-256 -13.5v185zM367 1243v191h239v-191h-239z" />
<glyph unicode="&#x632;" horiz-adv-x="769" arabic-form="final" d="M43 -180q49 -1 85 0.5t63.5 7t49 15t42.5 24.5t36.5 33t26 42.5t16 57t5.5 76.5v1009h239v-901h178v-184h-179q-3 -65 -19 -112.5t-37 -81.5t-43.5 -56t-38.5 -35q-66 -47 -168 -66.5t-256 -13.5v185zM367 1243v191h239v-191h-239z" />
<glyph unicode="&#x633;" horiz-adv-x="2588" arabic-form="isolated" d="M50 119v684h240v-641q0 -72 8.5 -115.5t31.5 -74.5q33 -44 81 -57t114 -13h199q66 0 114 13t81 57q23 31 31.5 74.5t8.5 115.5v924h240v-903h414v901h240v-901h223q16 0 35 1.5t38.5 6.5t38 15t33.5 28q15 16 24 35.5t14 40t6.5 40.5t1.5 38v696h239v-733 q0 -82 -25 -151.5t-73 -114.5q-30 -27 -66 -44t-72.5 -26t-72.5 -12.5t-66 -3.5h-940q-10 -59 -33.5 -108.5t-69.5 -90.5q-55 -48 -121.5 -65t-160.5 -17h-363q-94 0 -160.5 17t-121.5 65q-34 30 -55.5 65t-34 74.5t-17 84.5t-4.5 95z" />
<glyph unicode="&#x633;" horiz-adv-x="2619" arabic-form="final" d="M50 119v684h240v-641q0 -72 8.5 -115.5t31.5 -74.5q33 -44 81 -57t114 -13h199q66 0 114 13t81 57q23 31 31.5 74.5t8.5 115.5v924h240v-903h414v901h240v-901h223q16 0 35 1.5t38.5 6.5t38 15t33.5 28q15 16 24 35.5t14 40t6.5 40.5t1.5 38v696h239v-733q0 -92 -32 -167 h155v-184l-1438 -1q-10 -59 -33.5 -108.5t-69.5 -90.5q-55 -48 -121.5 -65t-160.5 -17h-363q-94 0 -160.5 17t-121.5 65q-34 30 -55.5 65t-34 74.5t-17 84.5t-4.5 95z" />
<glyph unicode="&#x633;" horiz-adv-x="1789" arabic-form="initial" d="M-15 -1v184h176v901h240v-901h413v901h240v-901h223q16 0 35 1.5t38.5 6.5t38 15t33.5 28q15 16 24 35.5t14 40t6.5 40.5t1.5 38v696h239v-733q0 -82 -25 -151.5t-73 -114.5q-30 -27 -66 -44t-72.5 -26t-72.5 -12.5t-66 -3.5h-1347z" />
<glyph unicode="&#x633;" horiz-adv-x="1820" arabic-form="medial" d="M-15 -1v184h176v901h240v-901h413v901h240v-901h223q16 0 35 1.5t38.5 6.5t38 15t33.5 28q15 16 24 35.5t14 40t6.5 40.5t1.5 38v696h239v-733q0 -92 -32 -167h154v-184z" />
<glyph unicode="&#x634;" horiz-adv-x="2588" arabic-form="isolated" d="M50 119v684h240v-641q0 -72 8.5 -115.5t31.5 -74.5q33 -44 81 -57t114 -13h199q66 0 114 13t81 57q23 31 31.5 74.5t8.5 115.5v924h240v-903h414v901h240v-901h223q16 0 35 1.5t38.5 6.5t38 15t33.5 28q15 16 24 35.5t14 40t6.5 40.5t1.5 38v696h239v-733 q0 -82 -25 -151.5t-73 -114.5q-30 -27 -66 -44t-72.5 -26t-72.5 -12.5t-66 -3.5h-940q-10 -59 -33.5 -108.5t-69.5 -90.5q-55 -48 -121.5 -65t-160.5 -17h-363q-94 0 -160.5 17t-121.5 65q-34 30 -55.5 65t-34 74.5t-17 84.5t-4.5 95zM1284 1396v191h239v-191h-239z M1606 1396v191h239v-191h-239zM1931 1396v191h239v-191h-239z" />
<glyph unicode="&#x634;" horiz-adv-x="2619" arabic-form="final" d="M50 119v684h240v-641q0 -72 8.5 -115.5t31.5 -74.5q33 -44 81 -57t114 -13h199q66 0 114 13t81 57q23 31 31.5 74.5t8.5 115.5v924h240v-903h414v901h240v-901h223q16 0 35 1.5t38.5 6.5t38 15t33.5 28q15 16 24 35.5t14 40t6.5 40.5t1.5 38v696h239v-733q0 -92 -32 -167 h155v-184l-1438 -1q-10 -59 -33.5 -108.5t-69.5 -90.5q-55 -48 -121.5 -65t-160.5 -17h-363q-94 0 -160.5 17t-121.5 65q-34 30 -55.5 65t-34 74.5t-17 84.5t-4.5 95zM1284 1396v191h239v-191h-239zM1606 1396v191h239v-191h-239zM1931 1396v191h239v-191h-239z" />
<glyph unicode="&#x634;" horiz-adv-x="1789" arabic-form="initial" d="M-15 -1v184h176v901h240v-901h413v901h240v-901h223q16 0 35 1.5t38.5 6.5t38 15t33.5 28q15 16 24 35.5t14 40t6.5 40.5t1.5 38v696h239v-733q0 -82 -25 -151.5t-73 -114.5q-30 -27 -66 -44t-72.5 -26t-72.5 -12.5t-66 -3.5h-1347zM446 1396v191h239v-191h-239z M768 1396v191h239v-191h-239zM1093 1396v191h239v-191h-239z" />
<glyph unicode="&#x634;" horiz-adv-x="1820" arabic-form="medial" d="M-15 -1v184h176v901h240v-901h413v901h240v-901h223q16 0 35 1.5t38.5 6.5t38 15t33.5 28q15 16 24 35.5t14 40t6.5 40.5t1.5 38v696h239v-733q0 -92 -32 -167h154v-184zM491 1396v191h239v-191h-239zM813 1396v191h239v-191h-239zM1138 1396v191h239v-191h-239z" />
<glyph unicode="&#x635;" horiz-adv-x="2560" arabic-form="isolated" d="M60 119v684h240v-641q0 -72 8.5 -115.5t31.5 -74.5q33 -44 81 -57t114 -13h199q66 0 114 13t81 57q23 31 31.5 74.5t8.5 115.5l-3 924h240l-1 -144q26 36 62.5 60.5t77 40.5t82 24.5t77.5 12.5t64.5 4.5t42.5 0.5h467q44 0 92 -6t94.5 -24t90 -51.5t78.5 -88.5 q28 -46 43.5 -94.5t22.5 -97.5t8 -98t1 -95q0 -55 -2.5 -105.5t-11.5 -98t-27 -92t-49 -87.5q-39 -53 -83.5 -82.5t-90 -44t-90.5 -17.5t-84 -3h-869q-9 -60 -32.5 -109t-70.5 -91q-55 -48 -121.5 -65t-160.5 -17h-363q-94 0 -160.5 17t-121.5 65q-34 30 -55.5 65t-34 74.5 t-17 84.5t-4.5 95zM1204 576l2 -392h770q49 0 87 5t67.5 16.5t51 30t36.5 45.5q31 51 37 114.5t6 132.5q0 104 -10.5 174t-41.5 113q-22 30 -51 47t-60 26t-62 11t-56 2h-442q-143 -5 -228.5 -88t-105.5 -237z" />
<glyph unicode="&#x635;" horiz-adv-x="2604" arabic-form="final" d="M60 119v684h240v-641q0 -72 8.5 -115.5t31.5 -74.5q33 -44 81 -57t114 -13h199q66 0 114 13t81 57q23 31 31.5 74.5t8.5 115.5l-3 924h240l-1 -144q26 36 62.5 60.5t77 40.5t82 24.5t77.5 12.5t64.5 4.5t42.5 0.5h467q44 0 92 -6t94.5 -24t90 -51.5t78.5 -88.5 q28 -46 43.5 -94.5t22.5 -97.5t8 -98t1 -95q0 -50 -2 -95.5t-9 -88t-20 -83t-35 -79.5h172v-184h-1413q-9 -60 -32.5 -109t-70.5 -91q-55 -48 -121.5 -65t-160.5 -17h-363q-94 0 -160.5 17t-121.5 65q-34 30 -55.5 65t-34 74.5t-17 84.5t-4.5 95zM1204 576l2 -392h770 q49 0 87 5t67.5 16.5t51 30t36.5 45.5q31 51 37 114.5t6 132.5q0 104 -10.5 174t-41.5 113q-22 30 -51 47t-60 26t-62 11t-56 2h-442q-143 -5 -228.5 -88t-105.5 -237z" />
<glyph unicode="&#x635;" horiz-adv-x="1771" arabic-form="initial" d="M-10 0v184h187v902h240l-1 -144q26 36 62.5 60.5t77 40.5t82 24.5t77.5 12.5t64.5 4.5t42.5 0.5h467q44 0 92 -6t94.5 -24t90 -51.5t78.5 -88.5q28 -46 43.5 -94.5t22.5 -97.5t8 -98t1 -95q0 -55 -2.5 -105.5t-11.5 -98t-27 -92t-49 -87.5q-39 -53 -83.5 -82.5t-90 -44 t-90.5 -17.5t-84 -3h-1291zM414 184h773q49 0 87 5t67.5 16.5t51 30t36.5 45.5q31 51 37 114.5t6 132.5q0 104 -10.5 174t-41.5 113q-22 30 -51 47t-60 26t-62 11t-56 2h-442q-143 -5 -228.5 -88t-105.5 -237z" />
<glyph unicode="&#x635;" horiz-adv-x="1806" arabic-form="medial" d="M-10 0v184h187v902h240l-1 -144q26 36 62.5 60.5t77 40.5t82 24.5t77.5 12.5t64.5 4.5t42.5 0.5h467q44 0 92 -6t94.5 -24t90 -51.5t78.5 -88.5q28 -46 43.5 -94.5t22.5 -97.5t8 -98t1 -95q0 -50 -2 -95.5t-9 -88t-20 -83t-35 -79.5h162v-184h-1825zM414 184h773 q49 0 87 5t67.5 16.5t51 30t36.5 45.5q31 51 37 114.5t6 132.5q0 104 -10.5 174t-41.5 113q-22 30 -51 47t-60 26t-62 11t-56 2h-442q-143 -5 -228.5 -88t-105.5 -237z" />
<glyph unicode="&#x636;" horiz-adv-x="2560" arabic-form="isolated" d="M60 119v684h240v-641q0 -72 8.5 -115.5t31.5 -74.5q33 -44 81 -57t114 -13h199q66 0 114 13t81 57q23 31 31.5 74.5t8.5 115.5l-3 924h240l-1 -144q26 36 62.5 60.5t77 40.5t82 24.5t77.5 12.5t64.5 4.5t42.5 0.5h467q44 0 92 -6t94.5 -24t90 -51.5t78.5 -88.5 q28 -46 43.5 -94.5t22.5 -97.5t8 -98t1 -95q0 -55 -2.5 -105.5t-11.5 -98t-27 -92t-49 -87.5q-39 -53 -83.5 -82.5t-90 -44t-90.5 -17.5t-84 -3h-869q-9 -60 -32.5 -109t-70.5 -91q-55 -48 -121.5 -65t-160.5 -17h-363q-94 0 -160.5 17t-121.5 65q-34 30 -55.5 65t-34 74.5 t-17 84.5t-4.5 95zM1204 576l2 -392h770q49 0 87 5t67.5 16.5t51 30t36.5 45.5q31 51 37 114.5t6 132.5q0 104 -10.5 174t-41.5 113q-22 30 -51 47t-60 26t-62 11t-56 2h-442q-143 -5 -228.5 -88t-105.5 -237zM1482 1243v191h239v-191h-239z" />
<glyph unicode="&#x636;" horiz-adv-x="2604" arabic-form="final" d="M60 119v684h240v-641q0 -72 8.5 -115.5t31.5 -74.5q33 -44 81 -57t114 -13h199q66 0 114 13t81 57q23 31 31.5 74.5t8.5 115.5l-3 924h240l-1 -144q26 36 62.5 60.5t77 40.5t82 24.5t77.5 12.5t64.5 4.5t42.5 0.5h467q44 0 92 -6t94.5 -24t90 -51.5t78.5 -88.5 q28 -46 43.5 -94.5t22.5 -97.5t8 -98t1 -95q0 -50 -2 -95.5t-9 -88t-20 -83t-35 -79.5h172v-184h-1413q-9 -60 -32.5 -109t-70.5 -91q-55 -48 -121.5 -65t-160.5 -17h-363q-94 0 -160.5 17t-121.5 65q-34 30 -55.5 65t-34 74.5t-17 84.5t-4.5 95zM1204 576l2 -392h770 q49 0 87 5t67.5 16.5t51 30t36.5 45.5q31 51 37 114.5t6 132.5q0 104 -10.5 174t-41.5 113q-22 30 -51 47t-60 26t-62 11t-56 2h-442q-143 -5 -228.5 -88t-105.5 -237zM1482 1243v191h239v-191h-239z" />
<glyph unicode="&#x636;" horiz-adv-x="1771" arabic-form="initial" d="M-10 0v184h187v902h240l-1 -144q26 36 62.5 60.5t77 40.5t82 24.5t77.5 12.5t64.5 4.5t42.5 0.5h467q44 0 92 -6t94.5 -24t90 -51.5t78.5 -88.5q28 -46 43.5 -94.5t22.5 -97.5t8 -98t1 -95q0 -55 -2.5 -105.5t-11.5 -98t-27 -92t-49 -87.5q-39 -53 -83.5 -82.5t-90 -44 t-90.5 -17.5t-84 -3h-1291zM414 184h773q49 0 87 5t67.5 16.5t51 30t36.5 45.5q31 51 37 114.5t6 132.5q0 104 -10.5 174t-41.5 113q-22 30 -51 47t-60 26t-62 11t-56 2h-442q-143 -5 -228.5 -88t-105.5 -237zM769 1243v191h239v-191h-239z" />
<glyph unicode="&#x636;" horiz-adv-x="1806" arabic-form="medial" d="M-10 0v184h187v902h240l-1 -144q26 36 62.5 60.5t77 40.5t82 24.5t77.5 12.5t64.5 4.5t42.5 0.5h467q44 0 92 -6t94.5 -24t90 -51.5t78.5 -88.5q28 -46 43.5 -94.5t22.5 -97.5t8 -98t1 -95q0 -50 -2 -95.5t-9 -88t-20 -83t-35 -79.5h162v-184h-1825zM414 184h773 q49 0 87 5t67.5 16.5t51 30t36.5 45.5q31 51 37 114.5t6 132.5q0 104 -10.5 174t-41.5 113q-22 30 -51 47t-60 26t-62 11t-56 2h-442q-143 -5 -228.5 -88t-105.5 -237zM769 1243v191h239v-191h-239z" />
<glyph unicode="&#x637;" horiz-adv-x="1865" arabic-form="isolated" d="M119 0v184h152v1250h240l-1 -492q26 36 62.5 60.5t77 40.5t82 24.5t77.5 12.5t64.5 4.5t42.5 0.5h467q44 0 92 -6t94.5 -24t90 -51.5t78.5 -88.5q28 -46 43.5 -94.5t22.5 -97.5t8 -98t1 -95q0 -55 -2.5 -105.5t-11.5 -98t-27 -92t-49 -87.5q-39 -53 -83.5 -82.5t-90 -44 t-90.5 -17.5t-84 -3h-1256zM508 184h773q49 0 87 5t67.5 16.5t51 30t36.5 45.5q31 51 37 114.5t6 132.5q0 104 -10.5 174t-41.5 113q-22 30 -51 47t-60 26t-62 11t-56 2h-442q-143 -5 -228.5 -88t-105.5 -237z" />
<glyph unicode="&#x637;" horiz-adv-x="1915" arabic-form="final" d="M119 0v184h152v1250h240l-1 -492q26 36 62.5 60.5t77 40.5t82 24.5t77.5 12.5t64.5 4.5t42.5 0.5h467q44 0 92 -6t94.5 -24t90 -51.5t78.5 -88.5q28 -46 43.5 -94.5t22.5 -97.5t8 -98t1 -95q0 -50 -2 -95.5t-9 -88t-20 -83t-35 -79.5h178v-184h-1806zM508 184h773 q49 0 87 5t67.5 16.5t51 30t36.5 45.5q31 51 37 114.5t6 132.5q0 104 -10.5 174t-41.5 113q-22 30 -51 47t-60 26t-62 11t-56 2h-442q-143 -5 -228.5 -88t-105.5 -237z" />
<glyph unicode="&#x637;" horiz-adv-x="1771" arabic-form="initial" d="M-10 0v184h187v1250h240l-1 -492q26 36 62.5 60.5t77 40.5t82 24.5t77.5 12.5t64.5 4.5t42.5 0.5h467q44 0 92 -6t94.5 -24t90 -51.5t78.5 -88.5q28 -46 43.5 -94.5t22.5 -97.5t8 -98t1 -95q0 -55 -2.5 -105.5t-11.5 -98t-27 -92t-49 -87.5q-39 -53 -83.5 -82.5t-90 -44 t-90.5 -17.5t-84 -3h-1291zM414 184h773q49 0 87 5t67.5 16.5t51 30t36.5 45.5q31 51 37 114.5t6 132.5q0 104 -10.5 174t-41.5 113q-22 30 -51 47t-60 26t-62 11t-56 2h-442q-143 -5 -228.5 -88t-105.5 -237z" />
<glyph unicode="&#x637;" horiz-adv-x="1815" arabic-form="medial" d="M-10 0v184h187v1250h240l-1 -492q26 36 62.5 60.5t77 40.5t82 24.5t77.5 12.5t64.5 4.5t42.5 0.5h467q44 0 92 -6t94.5 -24t90 -51.5t78.5 -88.5q28 -46 43.5 -94.5t22.5 -97.5t8 -98t1 -95q0 -50 -2 -95.5t-9 -88t-20 -83t-35 -79.5h172v-184h-1835zM414 184h773 q49 0 87 5t67.5 16.5t51 30t36.5 45.5q31 51 37 114.5t6 132.5q0 104 -10.5 174t-41.5 113q-22 30 -51 47t-60 26t-62 11t-56 2h-442q-143 -5 -228.5 -88t-105.5 -237z" />
<glyph unicode="&#x638;" horiz-adv-x="1865" arabic-form="isolated" d="M119 0v184h152v1250h240l-1 -492q26 36 62.5 60.5t77 40.5t82 24.5t77.5 12.5t64.5 4.5t42.5 0.5h467q44 0 92 -6t94.5 -24t90 -51.5t78.5 -88.5q28 -46 43.5 -94.5t22.5 -97.5t8 -98t1 -95q0 -55 -2.5 -105.5t-11.5 -98t-27 -92t-49 -87.5q-39 -53 -83.5 -82.5t-90 -44 t-90.5 -17.5t-84 -3h-1256zM508 184h773q49 0 87 5t67.5 16.5t51 30t36.5 45.5q31 51 37 114.5t6 132.5q0 104 -10.5 174t-41.5 113q-22 30 -51 47t-60 26t-62 11t-56 2h-442q-143 -5 -228.5 -88t-105.5 -237zM842 1243v191h239v-191h-239z" />
<glyph unicode="&#x638;" horiz-adv-x="1915" arabic-form="final" d="M119 0v184h152v1250h240l-1 -492q26 36 62.5 60.5t77 40.5t82 24.5t77.5 12.5t64.5 4.5t42.5 0.5h467q44 0 92 -6t94.5 -24t90 -51.5t78.5 -88.5q28 -46 43.5 -94.5t22.5 -97.5t8 -98t1 -95q0 -50 -2 -95.5t-9 -88t-20 -83t-35 -79.5h178v-184h-1806zM508 184h773 q49 0 87 5t67.5 16.5t51 30t36.5 45.5q31 51 37 114.5t6 132.5q0 104 -10.5 174t-41.5 113q-22 30 -51 47t-60 26t-62 11t-56 2h-442q-143 -5 -228.5 -88t-105.5 -237zM842 1243v191h239v-191h-239z" />
<glyph unicode="&#x638;" horiz-adv-x="1771" arabic-form="initial" d="M-10 0v184h187v1250h240l-1 -492q26 36 62.5 60.5t77 40.5t82 24.5t77.5 12.5t64.5 4.5t42.5 0.5h467q44 0 92 -6t94.5 -24t90 -51.5t78.5 -88.5q28 -46 43.5 -94.5t22.5 -97.5t8 -98t1 -95q0 -55 -2.5 -105.5t-11.5 -98t-27 -92t-49 -87.5q-39 -53 -83.5 -82.5t-90 -44 t-90.5 -17.5t-84 -3h-1291zM414 184h773q49 0 87 5t67.5 16.5t51 30t36.5 45.5q31 51 37 114.5t6 132.5q0 104 -10.5 174t-41.5 113q-22 30 -51 47t-60 26t-62 11t-56 2h-442q-143 -5 -228.5 -88t-105.5 -237zM804 1243v191h239v-191h-239z" />
<glyph unicode="&#x638;" horiz-adv-x="1815" arabic-form="medial" d="M-10 0v184h187v1250h240l-1 -492q26 36 62.5 60.5t77 40.5t82 24.5t77.5 12.5t64.5 4.5t42.5 0.5h467q44 0 92 -6t94.5 -24t90 -51.5t78.5 -88.5q28 -46 43.5 -94.5t22.5 -97.5t8 -98t1 -95q0 -50 -2 -95.5t-9 -88t-20 -83t-35 -79.5h172v-184h-1835zM414 184h773 q49 0 87 5t67.5 16.5t51 30t36.5 45.5q31 51 37 114.5t6 132.5q0 104 -10.5 174t-41.5 113q-22 30 -51 47t-60 26t-62 11t-56 2h-442q-143 -5 -228.5 -88t-105.5 -237zM804 1243v191h239v-191h-239z" />
<glyph unicode="&#x639;" horiz-adv-x="1220" arabic-form="isolated" d="M44 -54q0 75 16 120.5t39 70.5q21 30 48.5 52t58 38.5t62.5 27.5t61 19q-28 35 -50 67t-37.5 66.5t-23.5 76t-8 95.5q0 49 1.5 98.5t13 98.5t36 97.5t69.5 95.5q16 16 42.5 36t66.5 38t95 30t128 12h465v-184h-387q-61 0 -106.5 -14t-77.5 -37.5t-52.5 -55t-30.5 -65.5 q-12 -45 -13.5 -86.5t-1.5 -67.5q0 -24 1 -42.5t4 -35.5t9.5 -34.5t17.5 -38.5q19 -35 46 -58.5t59 -39t67 -23t70 -9.5h419v-184l-584 -1q-30 -1 -66.5 -2.5t-70 -4.5t-59 -8t-34.5 -11q-31 -23 -38 -51t-7 -57q0 -48 11.5 -75.5t25.5 -41.5q23 -23 52 -27t60 -4h741v-184 h-837q-27 0 -55 1.5t-56 8t-54.5 19t-51.5 34.5q-15 15 -30 36t-27 50t-19.5 67.5t-7.5 86.5z" />
<glyph unicode="&#x639;" horiz-adv-x="1309" arabic-form="final" d="M60 -164q0 75 16 120.5t39 70.5q21 30 48.5 52t58 38.5t62.5 27.5t61 19q13 2 24 3l22 2q-17 24 -34.5 48.5t-33 47t-28.5 41.5t-20 32q-27 43 -51 90t-42 98.5t-29 109t-12 122.5q-1 34 1 69t9.5 68t22.5 63.5t41 56.5q25 24 52.5 38.5t55 22t53.5 10t48 2.5h530 q22 0 48 -2.5t53.5 -10t55 -22t52.5 -38.5q26 -26 41 -56.5t22.5 -63.5t9.5 -68t1 -69q-2 -95 -24 -175.5t-56.5 -150t-77 -130.5t-84.5 -118h324v-184h-521l-215 -1q-30 -1 -66.5 -2.5t-70 -4.5t-59 -8t-34.5 -11q-31 -23 -38 -51t-7 -57q0 -48 11.5 -75.5t25.5 -41.5 q23 -23 52 -27t60 -4h741v-184h-837q-27 0 -55 1.5t-56 8t-54.5 19t-51.5 34.5q-15 15 -30 36t-27 50t-19.5 67.5t-7.5 86.5zM389 738q1 -26 3 -49q4 -37 21.5 -81t43 -91t57 -95t62.5 -92t60 -81.5t49 -64.5h7q20 27 49 64.5t60.5 81.5t62.5 92t57 95t43.5 91.5t21.5 80.5 q2 23 3 49t-0.5 49.5t-5.5 42.5t-11 28q-36 44 -126 44h-314q-90 0 -126 -44q-8 -9 -11.5 -28t-5 -42.5t-0.5 -49.5z" />
<glyph unicode="&#x639;" horiz-adv-x="1115" arabic-form="initial" d="M-15 0v184h195q-21 36 -33.5 76t-19 83t-8.5 89t-2 96q0 49 2 106.5t14 116t37 115t70 103.5q16 16 42.5 36t66.5 38t95 30t128 12h465v-184h-387q-61 0 -106.5 -14t-77.5 -37.5t-52.5 -55t-30.5 -65.5q-6 -22 -9.5 -52t-5.5 -59.5t-2.5 -55t-0.5 -38.5q0 -24 1.5 -54 t5 -61t10.5 -60t18 -50q21 -38 52 -61t67.5 -35t75.5 -15.5t77 -3.5h389v-184h-1076z" />
<glyph unicode="&#x639;" horiz-adv-x="1225" arabic-form="medial" d="M-15 0v184h314q-42 57 -84.5 118t-77 130.5t-56.5 150t-24 175.5q-1 34 1 69t9.5 68t22.5 63.5t41 56.5q25 24 52.5 38.5t55 22t53.5 10t48 2.5h530q22 0 48 -2.5t53.5 -10t55 -22t52.5 -38.5q26 -26 41 -56.5t22.5 -63.5t9.5 -68t1 -69q-2 -95 -24 -175.5t-56.5 -150 t-77 -130.5t-84.5 -118h324v-184h-1250zM305 738q1 -26 3 -49q4 -37 21.5 -81t43 -91t57 -95t62.5 -92t60 -81.5t49 -64.5h7q20 27 49 64.5t60.5 81.5t62.5 92t57 95t43.5 91.5t21.5 80.5q2 23 3 49t-0.5 49.5t-5.5 42.5t-11 28q-36 44 -126 44h-314q-90 0 -126 -44 q-8 -9 -11.5 -28t-5 -42.5t-0.5 -49.5z" />
<glyph unicode="&#x63a;" horiz-adv-x="1220" arabic-form="isolated" d="M44 -54q0 75 16 120.5t39 70.5q21 30 48.5 52t58 38.5t62.5 27.5t61 19q-28 35 -50 67t-37.5 66.5t-23.5 76t-8 95.5q0 49 1.5 98.5t13 98.5t36 97.5t69.5 95.5q16 16 42.5 36t66.5 38t95 30t128 12h465v-184h-387q-61 0 -106.5 -14t-77.5 -37.5t-52.5 -55t-30.5 -65.5 q-12 -45 -13.5 -86.5t-1.5 -67.5q0 -24 1 -42.5t4 -35.5t9.5 -34.5t17.5 -38.5q19 -35 46 -58.5t59 -39t67 -23t70 -9.5h419v-184l-584 -1q-30 -1 -66.5 -2.5t-70 -4.5t-59 -8t-34.5 -11q-31 -23 -38 -51t-7 -57q0 -48 11.5 -75.5t25.5 -41.5q23 -23 52 -27t60 -4h741v-184 h-837q-27 0 -55 1.5t-56 8t-54.5 19t-51.5 34.5q-15 15 -30 36t-27 50t-19.5 67.5t-7.5 86.5zM541 1243v191h239v-191h-239z" />
<glyph unicode="&#x63a;" horiz-adv-x="1309" arabic-form="final" d="M60 -164q0 75 16 120.5t39 70.5q21 30 48.5 52t58 38.5t62.5 27.5t61 19q13 2 24 3l22 2q-17 24 -34.5 48.5t-33 47t-28.5 41.5t-20 32q-27 43 -51 90t-42 98.5t-29 109t-12 122.5q-1 34 1 69t9.5 68t22.5 63.5t41 56.5q25 24 52.5 38.5t55 22t53.5 10t48 2.5h530 q22 0 48 -2.5t53.5 -10t55 -22t52.5 -38.5q26 -26 41 -56.5t22.5 -63.5t9.5 -68t1 -69q-2 -95 -24 -175.5t-56.5 -150t-77 -130.5t-84.5 -118h324v-184h-521l-215 -1q-30 -1 -66.5 -2.5t-70 -4.5t-59 -8t-34.5 -11q-31 -23 -38 -51t-7 -57q0 -48 11.5 -75.5t25.5 -41.5 q23 -23 52 -27t60 -4h741v-184h-837q-27 0 -55 1.5t-56 8t-54.5 19t-51.5 34.5q-15 15 -30 36t-27 50t-19.5 67.5t-7.5 86.5zM389 738q1 -26 3 -49q4 -37 21.5 -81t43 -91t57 -95t62.5 -92t60 -81.5t49 -64.5h7q20 27 49 64.5t60.5 81.5t62.5 92t57 95t43.5 91.5t21.5 80.5 q2 23 3 49t-0.5 49.5t-5.5 42.5t-11 28q-36 44 -126 44h-314q-90 0 -126 -44q-8 -9 -11.5 -28t-5 -42.5t-0.5 -49.5zM541 1243v191h239v-191h-239z" />
<glyph unicode="&#x63a;" horiz-adv-x="1115" arabic-form="initial" d="M-15 0v184h195q-21 36 -33.5 76t-19 83t-8.5 89t-2 96q0 49 2 106.5t14 116t37 115t70 103.5q16 16 42.5 36t66.5 38t95 30t128 12h465v-184h-387q-61 0 -106.5 -14t-77.5 -37.5t-52.5 -55t-30.5 -65.5q-6 -22 -9.5 -52t-5.5 -59.5t-2.5 -55t-0.5 -38.5q0 -24 1.5 -54 t5 -61t10.5 -60t18 -50q21 -38 52 -61t67.5 -35t75.5 -15.5t77 -3.5h389v-184h-1076zM451 1243v191h239v-191h-239z" />
<glyph unicode="&#x63a;" horiz-adv-x="1225" arabic-form="medial" d="M-15 0v184h314q-42 57 -84.5 118t-77 130.5t-56.5 150t-24 175.5q-1 34 1 69t9.5 68t22.5 63.5t41 56.5q25 24 52.5 38.5t55 22t53.5 10t48 2.5h530q22 0 48 -2.5t53.5 -10t55 -22t52.5 -38.5q26 -26 41 -56.5t22.5 -63.5t9.5 -68t1 -69q-2 -95 -24 -175.5t-56.5 -150 t-77 -130.5t-84.5 -118h324v-184h-1250zM305 738q1 -26 3 -49q4 -37 21.5 -81t43 -91t57 -95t62.5 -92t60 -81.5t49 -64.5h7q20 27 49 64.5t60.5 81.5t62.5 92t57 95t43.5 91.5t21.5 80.5q2 23 3 49t-0.5 49.5t-5.5 42.5t-11 28q-36 44 -126 44h-314q-90 0 -126 -44 q-8 -9 -11.5 -28t-5 -42.5t-0.5 -49.5zM461 1243v191h239v-191h-239z" />
<glyph unicode="&#x641;" horiz-adv-x="1746" arabic-form="isolated" d="M39 531v319h248l-1 -324q0 -69 6 -132t37 -113q15 -27 36.5 -45.5t50.5 -30t67.5 -16.5t87.5 -5h141q-59 132 -59 375q0 128 21 229q23 102 94 179q38 42 79.5 66t84.5 35.5t86 14t84 2.5h350q48 0 92.5 -6t83.5 -37q42 -36 52 -78q12 -44 12 -79v-514q0 -56 -8.5 -100 t-23 -78t-34 -59.5t-40.5 -44.5q-33 -30 -68.5 -47.5t-73.5 -26.5t-78 -11.5t-83 -2.5l-633 -1h-173q-38 0 -82.5 3t-90.5 17.5t-91.5 44t-84.5 82.5q-30 40 -48 85.5t-27 94.5t-11.5 100.5t-2.5 103.5zM901 541q0 -72 6 -123t15 -85.5t19.5 -54.5t20.5 -30q41 -47 96 -56 q28 -4 55.5 -6t53.5 -2l68 1q67 0 107 15t66 50q23 31 32.5 69.5t11.5 80.5v415q0 23 -5 39t-26 31q-16 10 -31.5 13t-31.5 3h-205q-60 0 -109 -17.5t-77 -49.5q-25 -29 -38.5 -71t-19.5 -85t-7 -80.5t-1 -56.5zM1080 1243v191h239v-191h-239z" />
<glyph unicode="&#x641;" horiz-adv-x="1801" arabic-form="final" d="M39 531v319h248l-1 -324q0 -69 6 -132t37 -113q15 -27 36.5 -45.5t50.5 -30t67.5 -16.5t87.5 -5h141q-59 132 -59 375q0 128 21 229q23 102 94 179q38 42 79.5 66t84.5 35.5t86 14t84 2.5h350q48 0 92.5 -6t83.5 -37q42 -36 52 -78q12 -44 12 -79v-701h118v-184h-1333 q-38 0 -82.5 3t-90.5 17.5t-91.5 44t-84.5 82.5q-30 40 -48 85.5t-27 94.5t-11.5 100.5t-2.5 103.5zM901 541q0 -72 6 -123t15 -85.5t19.5 -54.5t20.5 -30q41 -47 96 -56q28 -4 55.5 -6t53.5 -2h285v631q0 23 -5 39t-26 31q-16 10 -31.5 13t-31.5 3h-205q-60 0 -109 -17.5 t-77 -49.5q-25 -29 -38.5 -71t-19.5 -85t-7 -80.5t-1 -56.5zM1080 1243v191h239v-191h-239z" />
<glyph unicode="&#x641;" horiz-adv-x="1215" arabic-form="initial" d="M-9 0v184h190q-59 132 -59 375q0 128 21 229q23 102 94 179q38 42 79.5 66t84.5 35.5t86 14t84 2.5h350q48 0 92.5 -6t83.5 -37q42 -36 52 -78q12 -44 12 -79v-514q0 -56 -8.5 -100t-23 -78t-34 -59.5t-40.5 -44.5q-33 -30 -68.5 -47.5t-73.5 -26.5t-78 -11.5t-83 -2.5z M370 541q0 -72 6 -123t15 -85.5t19.5 -54.5t20.5 -30q41 -47 96 -56q28 -4 55.5 -6t53.5 -2l68 1q67 0 107 15t66 50q23 31 32.5 69.5t11.5 80.5v415q0 23 -5 39t-26 31q-16 10 -31.5 13t-31.5 3h-205q-60 0 -109 -17.5t-77 -49.5q-25 -29 -38.5 -71t-19.5 -85t-7 -80.5 t-1 -56.5zM560 1243v191h239v-191h-239z" />
<glyph unicode="&#x641;" horiz-adv-x="1320" arabic-form="medial" d="M-10 0v184h175q-29 43 -45 91t-24.5 95t-10.5 90.5t-2 78.5q0 45 4 104t18.5 120t42 119t75.5 101q45 42 100.5 65t114 34t116.5 13.5t107 2.5t106.5 -2.5t116 -13.5t114.5 -34t101 -65q48 -43 75.5 -101t41.5 -118.5t18 -117.5t4 -99q0 -130 -23.5 -217.5t-60.5 -145.5 h176v-184h-1340zM331 541q0 -34 1 -68.5t8 -68.5t20.5 -67t39.5 -63q24 -28 53 -45.5t60 -27t63.5 -13.5t63.5 -4h20q34 0 68.5 3t67.5 12t64 27t58 48t42 62t21.5 65.5t8 68.5t1.5 71v65q0 27 -3 56.5t-11 59t-21.5 56.5t-34.5 49q-27 29 -58.5 46t-65.5 26t-68.5 11.5 t-67.5 2.5q-29 0 -64.5 -2.5t-71 -11.5t-68.5 -26t-58 -46q-26 -29 -39.5 -67.5t-20 -78.5t-7.5 -77t-1 -63zM541 1243v191h239v-191h-239z" />
<glyph unicode="&#x642;" horiz-adv-x="1488" arabic-form="isolated" d="M59 5l179 89q5 -37 29 -83.5t68 -87.5t110 -69t156 -28h297q20 0 44.5 1.5t53.5 5.5q58 7 102 42q53 46 64 125h-385q-41 0 -86 3.5t-88.5 17.5t-83 41.5t-70.5 76.5q-84 130 -84 420q0 128 21 229q23 102 94 179q38 42 79.5 66t84.5 35.5t86 14t84 2.5h350q48 0 92.5 -6 t83.5 -37q42 -36 52 -78q12 -44 12 -79v-762q0 -105 -17.5 -195t-70.5 -155q-38 -45 -88.5 -71t-102 -39t-97.5 -17t-75 -4h-398q-111 0 -197.5 31.5t-148.5 83t-99.5 116.5t-50.5 132zM604 1247v191h239v-191h-239zM613 541q0 -72 6 -123t15 -85.5t19.5 -54.5t20.5 -30 q41 -47 96 -56q28 -4 55.5 -6t53.5 -2h285v631q0 23 -5 39t-26 31q-16 10 -31.5 13t-31.5 3h-205q-60 0 -109 -17.5t-77 -49.5q-25 -29 -38.5 -71t-19.5 -85t-7 -80.5t-1 -56.5zM926 1247v191h239v-191h-239z" />
<glyph unicode="&#x642;" horiz-adv-x="1523" arabic-form="final" d="M59 5l179 89q5 -37 29 -83.5t68 -87.5t110 -69t156 -28h297q20 0 44.5 1.5t53.5 5.5q58 7 102 42q53 46 64 125h-385q-41 0 -86 3.5t-88.5 17.5t-83 41.5t-70.5 76.5q-84 130 -84 420q0 128 21 229q23 102 94 179q38 42 79.5 66t84.5 35.5t86 14t84 2.5h350q48 0 92.5 -6 t83.5 -37q42 -36 52 -78q12 -44 12 -79v-701h129v-184h-135q-7 -67 -26 -124t-56 -103q-38 -45 -88.5 -71t-102 -39t-97.5 -17t-75 -4h-398q-111 0 -197.5 31.5t-148.5 83t-99.5 116.5t-50.5 132zM604 1247v191h239v-191h-239zM613 541q0 -72 6 -123t15 -85.5t19.5 -54.5 t20.5 -30q41 -47 96 -56q28 -4 55.5 -6t53.5 -2h285v631q0 23 -5 39t-26 31q-16 10 -31.5 13t-31.5 3h-205q-60 0 -109 -17.5t-77 -49.5q-25 -29 -38.5 -71t-19.5 -85t-7 -80.5t-1 -56.5zM926 1247v191h239v-191h-239z" />
<glyph unicode="&#x642;" horiz-adv-x="1168" arabic-form="initial" d="M-11 0v184h631q20 0 44.5 1.5t53.5 5.5q58 7 102 42q53 46 64 125l-406 1q-41 0 -88 5.5t-92.5 22t-87 46t-72.5 78.5q-13 18 -24.5 58.5t-18 93.5t-6.5 114q0 62 10 121.5t31.5 112.5t57.5 90q41 48 88.5 75t97 39.5t97.5 15t89 2.5l326 4q48 0 92.5 -6t83.5 -37 q42 -36 52 -78q12 -44 12 -79v-556q0 -105 -17.5 -195t-70.5 -155q-38 -45 -88.5 -71t-102 -39t-97.5 -17t-75 -4h-686zM322.5 767q0.5 -43 6 -79.5t17 -62t27.5 -30.5q19 -18 36.5 -28t40 -14.5t53 -6.5t77.5 -3l306 -1v425q0 23 -5 39t-26 31q-16 10 -31.5 13t-31.5 3 l-233 -3q-60 0 -109 -18t-77 -50q-18 -20 -29 -55t-16.5 -76t-5 -84zM353 1396v191h239v-191h-239zM675 1396v191h239v-191h-239z" />
<glyph unicode="&#x642;" horiz-adv-x="1320" arabic-form="medial" d="M-10 0v184h175q-29 43 -45 91t-24.5 95t-10.5 90.5t-2 78.5q0 45 4 104t18.5 120t42 119t75.5 101q45 42 100.5 65t114 34t116.5 13.5t107 2.5t106.5 -2.5t116 -13.5t114.5 -34t101 -65q48 -43 75.5 -101t41.5 -118.5t18 -117.5t4 -99q0 -130 -23.5 -217.5t-60.5 -145.5 h176v-184h-1340zM331 541q0 -34 1 -68.5t8 -68.5t20.5 -67t39.5 -63q24 -28 53 -45.5t60 -27t63.5 -13.5t63.5 -4h20q34 0 68.5 3t67.5 12t64 27t58 48t42 62t21.5 65.5t8 68.5t1.5 71v65q0 27 -3 56.5t-11 59t-21.5 56.5t-34.5 49q-27 29 -58.5 46t-65.5 26t-68.5 11.5 t-67.5 2.5q-29 0 -64.5 -2.5t-71 -11.5t-68.5 -26t-58 -46q-26 -29 -39.5 -67.5t-20 -78.5t-7.5 -77t-1 -63zM381 1247v191h239v-191h-239zM703 1247v191h239v-191h-239z" />
<glyph unicode="&#x643;" horiz-adv-x="1649" arabic-form="isolated" d="M54 531v319h248l-1 -324q0 -69 6 -132t37 -113q15 -27 36.5 -45.5t50.5 -30t67.5 -16.5t87.5 -5h477q49 0 87.5 5t67.5 16.5t50 30t37 45.5q31 51 37 114.5t7 135.5v902h248l-2 -907q0 -54 -2.5 -104t-12 -97t-27.5 -91.5t-48 -86.5q-39 -53 -83.5 -82.5t-90 -44 t-90.5 -17.5t-84 -3h-665q-38 0 -82.5 3t-90.5 17.5t-91.5 44t-84.5 82.5q-30 40 -48 85.5t-27 94.5t-11.5 100.5t-2.5 103.5zM557 941q0 79 40.5 112t107.5 33h354v-136h-288q-3 0 -8.5 0.5t-10.5 0t-9 -2.5t-4 -8q0 -5 8 -10t28.5 -12.5t56.5 -19t92 -30.5 q37 -12 64.5 -27.5t46.5 -36t28.5 -47.5t9.5 -63q0 -61 -34 -99.5t-97 -38.5h-379v142h289q5 0 11 3t6 11q0 5 -1.5 7.5t-18 8l-54 18l-109.5 36.5q-69 23 -99 59.5t-30 99.5z" />
<glyph unicode="&#x643;" horiz-adv-x="1691" arabic-form="final" d="M54 531v319h248l-1 -324q0 -69 6 -132t37 -113q15 -27 36.5 -45.5t50.5 -30t67.5 -16.5t87.5 -5h477q49 0 87.5 5t67.5 16.5t50 30t37 45.5q31 51 37 114.5t7 135.5v902h248l-2 -907q0 -48 -2 -93.5t-9 -88t-20.5 -82.5t-35.5 -78h173v-184h-1209q-38 0 -82.5 3 t-90.5 17.5t-91.5 44t-84.5 82.5q-30 40 -48 85.5t-27 94.5t-11.5 100.5t-2.5 103.5zM557 941q0 79 40.5 112t107.5 33h354v-136h-288q-3 0 -8.5 0.5t-10.5 0t-9 -2.5t-4 -8q0 -5 8 -10t28.5 -12.5t56.5 -19t92 -30.5q37 -12 64.5 -27.5t46.5 -36t28.5 -47.5t9.5 -63 q0 -61 -34 -99.5t-97 -38.5h-379v142h289q5 0 11 3t6 11q0 5 -1.5 7.5t-18 8l-54 18l-109.5 36.5q-69 23 -99 59.5t-30 99.5z" />
<glyph unicode="&#x643;" horiz-adv-x="1493" arabic-form="initial" d="M-15 0v184h1065q45 0 73 16.5t44.5 45.5t22.5 67.5t8 83.5q-2 45 -8 83t-22.5 65.5t-44.5 43.5t-73 16h-607q-105 0 -172.5 29.5t-106.5 76t-52.5 103t-10.5 109.5q3 54 15.5 108.5t43 101.5t83 83.5t134.5 55.5l714 164v-186l-634 -164q-42 -11 -69.5 -28.5t-44 -39 t-24 -45t-8.5 -45.5q-3 -51 27.5 -89.5t104.5 -49.5h703q82 0 138.5 -25.5t92 -74.5t51.5 -121.5t19 -165.5q0 -2 -0.5 -3t-0.5 -2v-9v-16v-17v-8q-2 -93 -18.5 -159t-51.5 -108t-91.5 -61t-138.5 -19h-1161z" />
<glyph unicode="&#x643;" horiz-adv-x="1518" arabic-form="medial" d="M-15 0v184h1065q45 0 73 16.5t44.5 45.5t22.5 67.5t8 83.5q-2 45 -8 83t-22.5 65.5t-44.5 43.5t-73 16h-607q-105 0 -172.5 29.5t-106.5 76t-52.5 103t-10.5 109.5q3 54 15.5 108.5t43 101.5t83 83.5t134.5 55.5l714 164v-186l-634 -164q-42 -11 -69.5 -28.5t-44 -39 t-24 -45t-8.5 -45.5q-3 -51 27.5 -89.5t104.5 -49.5h703q82 0 138.5 -25.5t92 -74.5t51.5 -121.5t19 -165.5q0 -2 -0.5 -3t-0.5 -2v-9v-16v-17v-8q-2 -48 -6.5 -88.5t-13.5 -74.5h102v-184h-1543z" />
<glyph unicode="&#x644;" horiz-adv-x="1265" arabic-form="isolated" d="M50 119v684h240v-641q0 -72 8.5 -115.5t31.5 -74.5q33 -44 81 -57t114 -13h199q66 0 114 13t81 57q23 31 31.5 74.5t8.5 115.5v1272h240v-1315q0 -50 -4.5 -95t-17 -84.5t-34 -74.5t-55.5 -65q-55 -48 -121.5 -65t-160.5 -17h-363q-94 0 -160.5 17t-121.5 65 q-34 30 -55.5 65t-34 74.5t-17 84.5t-4.5 95z" />
<glyph unicode="&#x644;" horiz-adv-x="1354" arabic-form="final" d="M50 119v684h240v-641q0 -72 8.5 -115.5t31.5 -74.5q33 -44 81 -57t114 -13h199q66 0 114 13t81 57q23 31 31.5 74.5t8.5 115.5v1271h240v-1249h164v-184h-172q-9 -60 -32.5 -109t-70.5 -91q-55 -48 -121.5 -65t-160.5 -17h-363q-94 0 -160.5 17t-121.5 65 q-34 30 -55.5 65t-34 74.5t-17 84.5t-4.5 95z" />
<glyph unicode="&#x644;" horiz-adv-x="660" arabic-form="initial" d="M-10 1v184h117q67 0 107 15t66 50q29 39 37 89t8 104v991h239v-1063q0 -56 -8.5 -100t-23 -78t-34 -59.5t-40.5 -44.5q-33 -30 -68.5 -47.5t-73.5 -26.5t-78 -11.5t-83 -2.5h-165z" />
<glyph unicode="&#x644;" horiz-adv-x="729" arabic-form="medial" d="M-9 1v184h24q67 0 107 15t66 50q27 38 35.5 85t9.5 99q0 2 -0.5 9t-0.5 36v90v171t0.5 279t0.5 414h239v-972l5 -148q12 -43 38 -68.5t59 -39t70 -17.5t70 -4h26v-184h-98q-35 0 -71.5 2.5t-73.5 10.5t-72.5 24.5t-66.5 44.5q-32 -28 -66.5 -44t-71.5 -24.5t-76 -10.5 t-81 -2h-72z" />
<glyph unicode="&#x645;" horiz-adv-x="1565" arabic-form="isolated" d="M45 -225q0 92 22 173q21 84 91 142q27 25 59 42t65 27.5t66 15.5t63 7h10q6 0 11 1q-26 44 -41.5 92.5t-23 96t-9.5 91t-2 76.5q0 45 4 104t18.5 119.5t42 118.5t75.5 102q45 41 100.5 64t114 34.5t116 14t107.5 2.5q49 0 106.5 -2.5t116 -14t114.5 -34.5t101 -64 q47 -44 74.5 -101.5t42 -117.5t18.5 -117t4 -100q0 -175 -40 -280q-40 -104 -99 -163q-43 -41 -99.5 -64.5t-116.5 -35t-118 -14t-104 -2.5q-63 0 -139.5 2.5t-149.5 9.5h-100q-47 0 -105 -12q-57 -12 -100 -64q-35 -42 -45 -96t-10 -117v-241h-240v305zM604 541 q0 -68 9 -144t61 -135t123 -75q70 -15 137 -15t136 15q70 17 122 75q53 61 62 133q5 37 7.5 73.5t2.5 72.5v65q0 26 -3 56t-11 59t-21.5 56.5t-34.5 49.5q-27 30 -58.5 47t-65.5 25.5t-68.5 11t-67.5 2.5q-29 0 -64.5 -2t-71 -11t-68.5 -26t-58 -47q-26 -29 -39.5 -67.5 t-20 -78.5t-7.5 -77t-1 -63z" />
<glyph unicode="&#x645;" horiz-adv-x="1622" arabic-form="final" d="M45 -225q0 92 22 173q21 84 91 142q27 25 59 42t65 27.5t66 15.5t63 7h10q6 0 11 1q-26 44 -41.5 92.5t-23 96t-9.5 91t-2 76.5q0 45 4 104t18.5 119.5t42 118.5t75.5 102q45 41 100.5 64t114 34.5t116 14t107.5 2.5q49 0 106.5 -2.5t116 -14t114.5 -34.5t101 -64 q47 -44 74.5 -101.5t42 -117.5t18.5 -117t4 -100q0 -175 -40 -280q-19 -48 -39 -83h200v-184h-427l-271 -12q-63 0 -139.5 2.5t-149.5 9.5h-100q-47 0 -105 -12q-57 -12 -100 -64q-35 -42 -45 -96t-10 -117v-241h-240v305zM604 541q0 -68 9 -144t61 -135t123 -75 q70 -15 137 -15t136 15q70 17 122 75q53 61 62 133q5 37 7.5 73.5t2.5 72.5v65q0 26 -3 56t-11 59t-21.5 56.5t-34.5 49.5q-27 30 -58.5 47t-65.5 25.5t-68.5 11t-67.5 2.5q-29 0 -64.5 -2t-71 -11t-68.5 -26t-58 -47q-26 -29 -39.5 -67.5t-20 -78.5t-7.5 -77t-1 -63z" />
<glyph unicode="&#x645;" horiz-adv-x="1495" arabic-form="initial" d="M-15 0v184h40q24 0 55 2t62.5 12.5t60.5 33t49 63.5q9 19 20 58t15 116q-1 20 -1 37v33q0 45 4 104t18.5 120t42 119t75.5 101q45 42 100.5 65t114 34t116.5 13.5t107 2.5t106.5 -2.5t116 -13.5t114.5 -34t101 -65q48 -43 75.5 -101t41.5 -118.5t18 -117.5t4 -99 q0 -87 -10.5 -156.5t-29 -123.5t-44 -94.5t-55.5 -68.5q-43 -41 -99.5 -64t-116.5 -34.5t-118 -14.5t-104 -3q-49 0 -107 3t-116.5 14.5t-114 34.5t-100.5 64q-3 2 -9 8q-34 -36 -74.5 -58t-83 -34t-85.5 -16t-82 -4h-107zM535 467q3 -54 17 -107t52 -98q27 -30 58.5 -48 t65 -27t68.5 -12t68 -3q34 0 68.5 3t67.5 12t64 27t58 48t41.5 63.5t21.5 69.5t8 73t1 73v65q0 27 -3 56.5t-11 59t-21.5 56.5t-34.5 49q-27 29 -58.5 46t-65.5 26t-68.5 11.5t-67.5 2.5q-29 0 -64.5 -2.5t-71 -11.5t-68.5 -26t-58 -46q-31 -38 -44.5 -83t-18 -93t-3.5 -95 t-1 -89z" />
<glyph unicode="&#x645;" horiz-adv-x="1548" arabic-form="medial" d="M-15 0v184h40q24 0 55 2t62.5 12.5t60.5 33t49 63.5q9 19 20 58t15 116q-1 20 -1 37v33q0 45 4 104t18.5 120t42 119t75.5 101q45 42 100.5 65t114 34t116.5 13.5t107 2.5t106.5 -2.5t116 -13.5t114.5 -34t101 -65q48 -43 75.5 -101t41.5 -118.5t18 -117.5t4 -99 q0 -125 -21 -214t-56 -149h192v-184h-375l-317 -12q-49 0 -107 3t-116.5 14.5t-114 34.5t-100.5 64q-3 2 -9 8q-34 -36 -74.5 -58t-83 -34t-85.5 -16t-82 -4h-107zM535 467q3 -54 17 -107t52 -98q27 -30 58.5 -48t65 -27t68.5 -12t68 -3q34 0 68.5 3t67.5 12t64 27t58 48 t41.5 63.5t21.5 69.5t8 73t1 73v65q0 27 -3 56.5t-11 59t-21.5 56.5t-34.5 49q-27 29 -58.5 46t-65.5 26t-68.5 11.5t-67.5 2.5q-29 0 -64.5 -2.5t-71 -11.5t-68.5 -26t-58 -46q-31 -38 -44.5 -83t-18 -93t-3.5 -95t-1 -89z" />
<glyph unicode="&#x646;" horiz-adv-x="1265" arabic-form="isolated" d="M50 119v684h240v-641q0 -72 8.5 -115.5t31.5 -74.5q33 -44 81 -57t114 -13h199q66 0 114 13t81 57q23 31 31.5 74.5t8.5 115.5v924h240v-967q0 -50 -4.5 -95t-17 -84.5t-34 -74.5t-55.5 -65q-55 -48 -121.5 -65t-160.5 -17h-363q-94 0 -160.5 17t-121.5 65 q-34 30 -55.5 65t-34 74.5t-17 84.5t-4.5 95zM503 1243v191h239v-191h-239z" />
<glyph unicode="&#x646;" horiz-adv-x="1354" arabic-form="final" d="M50 119v684h240v-641q0 -72 8.5 -115.5t31.5 -74.5q33 -44 81 -57t114 -13h199q66 0 114 13t81 57q23 31 31.5 74.5t8.5 115.5v924h240v-902h164v-184h-172q-9 -60 -32.5 -109t-70.5 -91q-55 -48 -121.5 -65t-160.5 -17h-363q-94 0 -160.5 17t-121.5 65q-34 30 -55.5 65 t-34 74.5t-17 84.5t-4.5 95zM503 1243v191h239v-191h-239z" />
<glyph unicode="&#x646;" horiz-adv-x="660" arabic-form="initial" d="M-10 1v184h117q67 0 107 15t66 50q29 39 37 89t8 104v643h239v-715q0 -56 -8.5 -100t-23 -78t-34 -59.5t-40.5 -44.5q-33 -30 -68.5 -47.5t-73.5 -26.5t-78 -11.5t-83 -2.5h-165zM326 1243v191h239v-191h-239z" />
<glyph unicode="&#x646;" horiz-adv-x="729" arabic-form="medial" d="M-9 1v184h24q67 0 107 15t66 50q27 38 35.5 85t9.5 99q-1 7 -1 13v14h1v625h239v-625l5 -148q12 -43 38 -68.5t59 -39t70 -17.5t70 -4h26v-184h-98q-35 0 -71.5 2.5t-73.5 10.5t-72.5 24.5t-66.5 44.5q-32 -28 -66.5 -44t-71.5 -24.5t-76 -10.5t-81 -2h-72zM230 1243v191 h239v-191h-239z" />
<glyph unicode="&#x647;" horiz-adv-x="1262" arabic-form="isolated" d="M53 539q0 45 4 104t18.5 120t42 119t75.5 101q45 42 100.5 65t114 34t116.5 13.5t107 2.5t106.5 -2.5t116 -13.5t114.5 -34t101 -65q48 -43 75.5 -101t41.5 -118.5t18 -117.5t4 -99q0 -87 -10.5 -156.5t-29 -123.5t-44 -94.5t-55.5 -68.5q-43 -41 -99.5 -64t-116.5 -34.5 t-118 -14.5t-104 -3q-49 0 -107 3t-116.5 14.5t-114 34.5t-100.5 64q-49 45 -77 102.5t-42 117.5t-17.5 116.5t-3.5 98.5zM301 541q0 -34 1.5 -70.5t8 -73t20.5 -71t40 -64.5q27 -30 58.5 -48t65 -27t68.5 -12t68 -3q34 0 68.5 3t67.5 12t64 27t58 48t41.5 63.5t21.5 69.5 t8 73t1 73v65q0 27 -3 56.5t-11 59t-21.5 56.5t-34.5 49q-27 29 -58.5 46t-65.5 26t-68.5 11.5t-67.5 2.5q-29 0 -64.5 -2.5t-71 -11.5t-68.5 -26t-58 -46q-26 -29 -39.5 -67.5t-20 -78.5t-7.5 -77t-1 -63z" />
<glyph unicode="&#x647;" horiz-adv-x="1265" arabic-form="final" d="M53 559q0 43 2.5 90.5t11.5 95t25.5 93.5t44.5 86q39 57 89 89.5t100.5 48.5t97 19.5t78.5 3.5h321v125h240v-1026h217v-184h-827q-42 0 -89.5 7t-94.5 30t-89.5 65t-73.5 113q-10 24 -19.5 55.5t-17 73t-12 94.5t-4.5 121zM301 551q0 -64 3.5 -107.5t8 -71.5t9.5 -43 t8 -22q18 -41 44.5 -65t56.5 -37t60.5 -17t57.5 -4h273q0 14 0.5 29.5t0.5 28.5v23v11v625h-274q-24 0 -51 -3t-54 -13.5t-52 -29.5t-44 -50q-9 -15 -17.5 -35.5t-15 -51t-10.5 -71.5t-4 -96z" />
<glyph unicode="&#x647;" horiz-adv-x="1704" arabic-form="initial" d="M-14 0v184h188q-39 64 -51 143q-15 100 -15 203q0 43 1.5 92t9 100t23 100.5t42.5 92.5q33 56 77 89.5t92 51.5t96 23.5t89 5.5h222v150h239v-150h221q44 0 92 -6t94.5 -24t90 -51.5t78.5 -88.5q57 -92 66 -192q9 -101 9 -193q0 -55 -3.5 -105.5t-10.5 -98.5 q-13 -92 -76 -179q-39 -53 -83.5 -82.5t-90 -44t-90 -17.5t-84.5 -3h-1226zM356 528q0 -69 6 -132.5t37 -114.5q15 -27 36.5 -45.5t50.5 -30t67 -16.5t88 -5h119v717h-123q-25 0 -55.5 -2t-62 -10.5t-61 -26t-51.5 -47.5q-26 -38 -39 -103q-12 -65 -12 -184zM999 184h119 q49 0 87 5t67.5 16.5t51 30t36.5 45.5q30 51 36.5 114.5t6.5 132.5q0 103 -10.5 173.5t-41.5 113.5q-21 30 -50 47.5t-60.5 26t-62.5 10.5t-56 2h-123v-717z" />
<glyph unicode="&#x647;" horiz-adv-x="1751" arabic-form="medial" d="M-14 0v184h188q-39 64 -51 143q-15 100 -15 203q0 43 1.5 92t9 100t23 100.5t42.5 92.5q33 56 77 89.5t92 51.5t96 23.5t89 5.5h222v150h239v-150h221q44 0 92 -6t94.5 -24t90 -51.5t78.5 -88.5q57 -92 66 -192q9 -101 9 -193q0 -55 -3.5 -105.5t-10.5 -98.5 q-10 -73 -52 -142h176v-184h-1774zM356 528q0 -69 6 -132.5t37 -114.5q15 -27 36.5 -45.5t50.5 -30t67 -16.5t88 -5h119v717h-123q-25 0 -55.5 -2t-62 -10.5t-61 -26t-51.5 -47.5q-26 -38 -39 -103q-12 -65 -12 -184zM999 184h119q49 0 87 5t67.5 16.5t51 30t36.5 45.5 q30 51 36.5 114.5t6.5 132.5q0 103 -10.5 173.5t-41.5 113.5q-21 30 -50 47.5t-60.5 26t-62.5 10.5t-56 2h-123v-717z" />
<glyph unicode="&#x648;" horiz-adv-x="1176" arabic-form="isolated" d="M53 559q0 128 21 229q23 102 94 179q38 42 79.5 66t84.5 35.5t86 14t84 2.5h350q48 0 92.5 -6t83.5 -37q42 -36 52 -78q12 -44 12 -79v-762q0 -105 -17.5 -195t-70.5 -155q-38 -45 -88.5 -71t-102 -39t-97.5 -17t-75 -4h-512v184h457q20 0 44.5 1.5t53.5 5.5q58 7 102 42 q53 46 64 125h-385q-41 0 -86 3.5t-88.5 17.5t-83 41.5t-70.5 76.5q-84 130 -84 420zM301 541q0 -72 6 -123t15 -85.5t19.5 -54.5t20.5 -30q41 -47 96 -56q28 -4 55.5 -6t53.5 -2h285v631q0 23 -5 39t-26 31q-16 10 -31.5 13t-31.5 3h-205q-60 0 -109 -17.5t-77 -49.5 q-25 -29 -38.5 -71t-19.5 -85t-7 -80.5t-1 -56.5z" />
<glyph unicode="&#x648;" horiz-adv-x="1220" arabic-form="final" d="M53 559q0 128 21 229q23 102 94 179q38 42 79.5 66t84.5 35.5t86 14t84 2.5h350q48 0 92.5 -6t83.5 -37q42 -36 52 -78q12 -44 12 -79v-701h140v-184h-146q-7 -67 -26 -124t-56 -103q-38 -45 -88.5 -71t-102 -39t-97.5 -17t-75 -4h-512v184h457q20 0 44.5 1.5t53.5 5.5 q58 7 102 42q53 46 64 125h-385q-41 0 -86 3.5t-88.5 17.5t-83 41.5t-70.5 76.5q-84 130 -84 420zM301 541q0 -72 6 -123t15 -85.5t19.5 -54.5t20.5 -30q41 -47 96 -56q28 -4 55.5 -6t53.5 -2h285v631q0 23 -5 39t-26 31q-16 10 -31.5 13t-31.5 3h-205q-60 0 -109 -17.5 t-77 -49.5q-25 -29 -38.5 -71t-19.5 -85t-7 -80.5t-1 -56.5z" />
<glyph unicode="&#x649;" horiz-adv-x="1511" arabic-form="isolated" d="M51 402v401h240v-358q0 -72 8.5 -115.5t31.5 -74.5q33 -44 81 -57t114 -13l584 -1q18 0 40.5 5.5t39.5 25.5q16 16 18 35.5t2 32.5q0 54 -31.5 88.5t-79.5 57t-104.5 36.5t-106.5 27q-87 22 -146 54t-92 77q-32 45 -41.5 93.5t-9.5 90.5t9.5 90.5t41.5 93.5q25 34 56 53 t64.5 28t69 11t71.5 2h498v-184h-462q-20 0 -41.5 -2t-42.5 -18q-22 -17 -26 -36.5t-4 -41.5q0 -23 5 -43.5t30 -40.5q11 -9 29.5 -18.5t38.5 -17t38 -12.5t29 -7l233 -66q56 -20 97.5 -53t69.5 -76t41.5 -92.5t13.5 -100.5q0 -98 -30 -152q-28 -53 -60 -79 q-21 -15 -43.5 -24t-45 -13.5t-44.5 -6t-41 -1.5l-750 1q-94 0 -160.5 17t-121.5 65q-34 30 -55.5 65t-34 74.5t-17 84.5t-4.5 95z" />
<glyph unicode="&#x649;" horiz-adv-x="1677" arabic-form="final" d="M41 402v326h240v-283q0 -72 8.5 -115.5t31.5 -74.5q33 -44 81 -57t114 -13h48q66 0 114 13t81 57q23 31 31.5 74.5t8.5 115.5l-3 319q0 29 3 62t10 68q14 72 67 124q28 28 72.5 48.5t113.5 20.5l260 -2q13 0 30.5 -0.5t35.5 -4.5t36 -11.5t33 -21.5q36 -33 44 -85 q4 -25 5.5 -43.5t1.5 -31.5v-555q0 -48 11 -75.5t26 -41.5q22 -22 52 -26.5t60 -4.5h30v-184h-118q-53 0 -111 9q-56 9 -106 54q-15 15 -30 36t-27 50.5t-19.5 67.5t-7.5 86v8v22v49v88t0.5 140.5t0.5 206.5q1 6 0 15.5t-3 19.5t-5.5 19t-8.5 14q-12 12 -32.5 14t-36.5 2 h-29q-28 0 -52.5 -10t-39.5 -27q-18 -22 -22 -54t-4 -60l-2 -348q0 -50 -4.5 -95t-17 -84.5t-34 -74.5t-55.5 -65q-55 -48 -121.5 -65t-160.5 -17h-207q-94 0 -160.5 17t-121.5 65q-34 30 -55.5 65t-34 74.5t-17 84.5t-4.5 95z" />
<glyph unicode="&#x64a;" horiz-adv-x="1511" arabic-form="isolated" d="M51 402v401h240v-358q0 -72 8.5 -115.5t31.5 -74.5q33 -44 81 -57t114 -13l584 -1q18 0 40.5 5.5t39.5 25.5q16 16 18 35.5t2 32.5q0 54 -31.5 88.5t-79.5 57t-104.5 36.5t-106.5 27q-87 22 -146 54t-92 77q-32 45 -41.5 93.5t-9.5 90.5t9.5 90.5t41.5 93.5q25 34 56 53 t64.5 28t69 11t71.5 2h498v-184h-462q-20 0 -41.5 -2t-42.5 -18q-22 -17 -26 -36.5t-4 -41.5q0 -23 5 -43.5t30 -40.5q11 -9 29.5 -18.5t38.5 -17t38 -12.5t29 -7l233 -66q56 -20 97.5 -53t69.5 -76t41.5 -92.5t13.5 -100.5q0 -98 -30 -152q-28 -53 -60 -79 q-21 -15 -43.5 -24t-45 -13.5t-44.5 -6t-41 -1.5l-750 1q-94 0 -160.5 17t-121.5 65q-34 30 -55.5 65t-34 74.5t-17 84.5t-4.5 95zM466 -166h239v-191h-239v191zM788 -166h239v-191h-239v191z" />
<glyph unicode="&#x64a;" horiz-adv-x="1677" arabic-form="final" d="M41 402v326h240v-283q0 -72 8.5 -115.5t31.5 -74.5q33 -44 81 -57t114 -13h48q66 0 114 13t81 57q23 31 31.5 74.5t8.5 115.5l-3 319q0 29 3 62t10 68q14 72 67 124q28 28 72.5 48.5t113.5 20.5l260 -2q13 0 30.5 -0.5t35.5 -4.5t36 -11.5t33 -21.5q36 -33 44 -85 q4 -25 5.5 -43.5t1.5 -31.5v-555q0 -48 11 -75.5t26 -41.5q22 -22 52 -26.5t60 -4.5h30v-184h-118q-53 0 -111 9q-56 9 -106 54q-15 15 -30 36t-27 50.5t-19.5 67.5t-7.5 86v8v22v49v88t0.5 140.5t0.5 206.5q1 6 0 15.5t-3 19.5t-5.5 19t-8.5 14q-12 12 -32.5 14t-36.5 2 h-29q-28 0 -52.5 -10t-39.5 -27q-18 -22 -22 -54t-4 -60l-2 -348q0 -50 -4.5 -95t-17 -84.5t-34 -74.5t-55.5 -65q-55 -48 -121.5 -65t-160.5 -17h-207q-94 0 -160.5 17t-121.5 65q-34 30 -55.5 65t-34 74.5t-17 84.5t-4.5 95zM263 -166h239v-191h-239v191zM585 -166h239 v-191h-239v191z" />
<glyph unicode="&#x64a;" horiz-adv-x="819" arabic-form="initial" d="M-10 1v184h276q67 0 107 15t66 50q29 39 37 89t8 104v643h239v-715q0 -56 -8.5 -100t-23 -78t-34 -59.5t-40.5 -44.5q-33 -30 -68.5 -47.5t-73.5 -26.5t-78 -11.5t-83 -2.5h-324zM129 -166h239v-191h-239v191zM451 -166h239v-191h-239v191z" />
<glyph unicode="&#x64a;" horiz-adv-x="729" arabic-form="medial" d="M-9 1v184h24q67 0 107 15t66 50q27 38 35.5 85t9.5 99q-1 7 -1 13v14h1v625h239v-625l5 -148q12 -43 38 -68.5t59 -39t70 -17.5t70 -4h26v-184h-98q-35 0 -71.5 2.5t-73.5 10.5t-72.5 24.5t-66.5 44.5q-32 -28 -66.5 -44t-71.5 -24.5t-76 -10.5t-81 -2h-72zM88 -166h239 v-191h-239v191zM410 -166h239v-191h-239v191z" />
<glyph unicode=" "  horiz-adv-x="435" />
<glyph unicode="&#x09;" horiz-adv-x="435" />
<glyph unicode="&#xa0;" horiz-adv-x="435" />
<glyph unicode="!" horiz-adv-x="528" d="M123 1434h283l-19 -1035h-246zM139 0v254h250v-254h-250z" />
<glyph unicode="&#x22;" horiz-adv-x="797" d="M123 1434h223l-10 -510h-201zM451 1434h223l-10 -510h-201z" />
<glyph unicode="#" horiz-adv-x="1790" d="M82 369l70 176h272l145 360h-272l72 176h272l141 353h205l-141 -353h385l141 353h205l-141 -353h272l-72 -176h-272l-145 -360h272l-72 -176h-272l-148 -369h-204l147 369h-385l-147 -369h-203l145 369h-270zM629 545h385l145 360h-385z" />
<glyph unicode="$" horiz-adv-x="1372" d="M82 1094q0 32 3 63.5t8 63.5q11 65 57 116q28 33 63.5 52.5t74 29t77 12.5t71.5 3h166v139h160v-139h438v-215h-438v-410l242 -78q56 -18 113 -43q59 -24 110 -92q45 -58 54 -118q9 -59 9 -128q0 -38 -2 -77.5t-11.5 -76.5t-29.5 -70.5t-55 -59.5q-31 -25 -68 -38.5 t-75.5 -19.5t-77.5 -7t-74 -1h-135v-139h-160v139h-467v215h467v432l-274 88q-29 10 -55.5 20.5t-51.5 23.5q-50 25 -90 93q-33 57 -41 114t-8 108zM360 1047q0 -39 11.5 -65t28 -42t35 -24.5t32.5 -12.5l135 -43v359h-55q-58 0 -94.5 -12.5t-55.5 -30.5q-11 -12 -18 -28 t-11.5 -33.5t-6 -35t-1.5 -32.5zM762 215h49q17 0 37 1.5t45 5.5q49 7 76 30q18 16 30.5 46t12.5 73q0 58 -29 111q-28 52 -119 81l-102 33v-381z" />
<glyph unicode="%" horiz-adv-x="1673" d="M123 1102q0 30 2 67t9.5 74.5t23.5 72t45 60.5q51 48 114 58q66 12 123 12q56 0 121 -12q64 -10 115 -58q26 -26 42 -60.5t25 -71t12 -73.5t3 -69q0 -33 -3 -70t-12 -73.5t-25 -70.5t-42 -61q-51 -48 -115 -58q-32 -5 -62.5 -8t-58.5 -3q-29 0 -59.5 3t-63.5 8 q-63 10 -114 58q-29 27 -45 60.5t-23.5 69.5t-9.5 73.5t-2 71.5zM291 1102q0 -68 9 -106t26 -58q22 -29 54 -36t60 -7q27 0 57.5 7t55.5 36q28 33 33 81q2 24 3 45t1 38t-1 38t-3 45q-5 48 -33 81q-25 28 -55.5 35.5t-57.5 7.5q-28 0 -60 -7.5t-54 -35.5q-17 -21 -26 -59 t-9 -105zM385 0l731 1434h180l-731 -1434h-180zM915 332q0 30 2 67t10.5 74.5t24.5 72t43 60.5q51 48 115 58q66 12 123 12q55 0 120 -12q64 -10 115 -58q27 -26 43 -60t25 -71t11.5 -74.5t2.5 -68.5q0 -33 -2.5 -70t-11.5 -73.5t-25 -70.5t-43 -61q-51 -48 -115 -58 q-32 -5 -62 -8t-58 -3q-29 0 -59.5 3t-63.5 8q-64 10 -115 58q-28 27 -44 60.5t-24 69.5t-10 73.5t-2 71.5zM1083 332q0 -68 9.5 -106t25.5 -58q23 -29 54.5 -36t60.5 -7q27 0 57.5 7t55.5 36q27 32 32 81q2 24 3 45t1 38t-1 38t-3 45q-5 49 -32 81q-25 28 -55.5 35.5 t-57.5 7.5q-29 0 -60.5 -7.5t-54.5 -35.5q-16 -21 -25.5 -59t-9.5 -105z" />
<glyph unicode="&#x26;" horiz-adv-x="1526" d="M123 401q0 24 1.5 51t5.5 57q8 61 46 114q20 25 58 54q40 29 106 40v4q-42 4 -78.5 23t-66.5 61q-43 55 -56.5 119.5t-13.5 130.5q0 29 2 66t11 76.5t27.5 78.5t51.5 72q58 58 134 72q38 7 76 10.5t77 3.5h749v-213h-645q-20 0 -42 -2t-45 -6q-47 -8 -70 -25t-37.5 -54.5 t-14.5 -107.5q0 -11 1.5 -33t7 -46.5t16 -48.5t29.5 -40q18 -16 42 -25t48 -13.5t46.5 -5.5t37.5 -1h858v-192h-215v-349q0 -26 -2.5 -54t-7.5 -59q-9 -61 -50 -102q-22 -22 -52.5 -33.5t-62.5 -17t-62 -6t-50 -0.5h-477q-34 0 -73 1.5t-78.5 11.5t-78 31.5t-71.5 61.5 q-58 67 -70 146q-12 78 -12 149zM397 412q0 -75 14 -108q8 -16 12.5 -25.5t6.5 -12.5q28 -37 76 -45q23 -4 44 -6t38 -2h321q29 0 50.5 3t31.5 13q10 11 12.5 27t2.5 33v329h-447q-67 0 -98 -24q-30 -21 -41 -39q-13 -22 -18 -56.5t-5 -62.5v-24z" />
<glyph unicode="'" horiz-adv-x="471" d="M123 1434h225l-12 -510h-201z" />
<glyph unicode="(" horiz-adv-x="760" d="M123 326v471q0 66 2 132t18 138q17 66 46.5 122t84.5 107q60 55 159 101q104 48 245 49v-172q-114 -1 -196 -50q-82 -48 -122 -114q-41 -67 -47 -138t-6 -134v-555q0 -60 6 -133q6 -71 47 -138q39 -63 121 -112q83 -50 197 -54v-172q-43 0 -92 5.5t-100.5 22t-105 46.5 t-106.5 80q-60 57 -88 111q-29 55 -45 129q-14 66 -16 127.5t-2 130.5z" />
<glyph unicode=")" horiz-adv-x="762" d="M82 -154q115 5 196 53q84 48 123 113q23 39 38.5 102.5t15.5 168.5v555q0 183 -54 272q-39 66 -123 114q-83 48 -196 50v172q124 -2 229.5 -43t177.5 -107q50 -45 80.5 -98t48.5 -131q9 -37 13 -71t6 -66.5t2 -65.5v-67v-471q0 -68 -2 -128.5t-16 -129.5 q-17 -74 -45 -129q-27 -56 -87 -111q-108 -99 -214 -127q-107 -29 -193 -27v172z" />
<glyph unicode="*" horiz-adv-x="1040" d="M82 922l291 168l-291 167l74 127l290 -167v335h148v-335l291 167l73 -127l-290 -167l290 -168l-77 -136l-287 166v-334h-148v334l-286 -166z" />
<glyph unicode="+" horiz-adv-x="1186" d="M123 549v174h377v377h186v-377h377v-174h-377v-377h-186v377h-377z" />
<glyph unicode="," horiz-adv-x="569" d="M0 -129l250 416l196 -117l-264 -408z" />
<glyph unicode="-" horiz-adv-x="895" d="M82 446v211h731v-211h-731z" />
<glyph unicode="." horiz-adv-x="496" d="M123 0v264h250v-264h-250z" />
<glyph unicode="/" horiz-adv-x="1038" d="M0 -340l897 1856h141l-897 -1856h-141z" />
<glyph unicode="0" horiz-adv-x="1319" d="M82 518v412q0 88 14.5 155t36 116.5t48 83.5t50.5 56q43 37 93.5 58.5t105.5 32.5t112.5 13.5t116.5 2.5t117 -3t112.5 -13.5t104.5 -32t94 -58.5q25 -22 51.5 -56t48.5 -84t36 -117t14 -154v-412q0 -102 -15.5 -179t-40 -132.5t-55 -91t-61.5 -56.5q-32 -23 -71 -36.5 t-80.5 -20.5t-83.5 -9.5t-80 -2.5h-91h-92q-37 0 -78.5 2.5t-83 9.5t-80.5 20.5t-71 36.5q-59 41 -93 100.5t-51.5 124t-22.5 127t-5 107.5zM352 549q0 -100 13.5 -166t46.5 -104q24 -29 55 -44t64.5 -21.5t67 -7.5t60.5 -1q28 0 61.5 1t66.5 7.5t63.5 21.5t54.5 44 q43 50 52 128q5 39 7.5 74.5t2.5 67.5v369q0 25 -2 58t-11.5 68t-28 69t-51.5 61q-40 34 -104 46q-61 13 -111 13q-49 0 -111 -13q-64 -12 -104 -46q-32 -27 -50.5 -61t-27.5 -68.5t-11.5 -68t-2.5 -58.5v-369z" />
<glyph unicode="1" horiz-adv-x="618" d="M0 1219v215h309q83 0 133 -39q18 -15 29 -33t16.5 -37t7 -37.5t1.5 -34.5v-1253h-271v1120q0 19 -2 40.5t-12 35.5q-10 16 -23.5 19.5t-29.5 3.5h-158z" />
<glyph unicode="2" horiz-adv-x="1284" d="M82 172q0 85 27 126q28 39 61 62l664 455q63 43 76 94q14 54 14 113q0 54 -6.5 89.5t-22.5 57.5q-39 50 -145 50h-572v215h696q26 0 56 -2.5t61.5 -11.5t63.5 -25.5t61 -44.5q59 -60 73 -139q7 -39 10 -78.5t3 -79.5q0 -60 -9 -138q-9 -76 -56 -147q-29 -41 -61 -66.5 t-64 -48.5l-578 -401q-4 -4 -13 -10t-9 -15q0 -4 3 -8t13 -4h713v-215h-908q-10 0 -34.5 3t-50.5 19.5t-46 51.5t-20 98z" />
<glyph unicode="3" horiz-adv-x="1268" d="M82 0v215h575q69 0 113.5 3t73.5 22q45 28 54 75q9 46 9 95q0 25 -2 48t-6 46q-8 45 -51 78q-34 25 -74 29q-20 2 -35.5 3.5t-25.5 1.5h-594v215h577q33 0 77 6q43 7 75 42q13 14 21 32t12 38t5 40.5t1 38.5q0 39 -6.5 79t-32.5 69q-29 28 -63.5 35.5t-65.5 7.5h-613v215 h719q30 0 64.5 -2t70.5 -12.5t71.5 -32t66.5 -60.5q47 -62 57 -137q5 -38 7.5 -71t2.5 -62q0 -32 -2.5 -65t-7.5 -67q-11 -68 -57 -120q-11 -12 -25 -24t-32.5 -22.5t-41 -18t-49.5 -9.5v-6q49 -2 89 -20.5t67 -42.5q28 -29 44.5 -63t24 -69.5t9.5 -70t2 -64.5 q0 -92 -16 -169q-15 -79 -78 -142q-55 -55 -119 -70q-64 -14 -125 -14h-766z" />
<glyph unicode="4" horiz-adv-x="1419" d="M41 440q0 43 13 85t67 102l692 741q50 54 107 68q59 14 92 14q30 0 65 -8t64 -37q14 -15 21 -29t10 -27.5t3.5 -27.5t0.5 -27v-837h182v-215h-182v-242h-271v242h-688q-15 0 -30.5 0.5t-31.5 4.5t-32.5 12.5t-32.5 25.5q-18 20 -33.5 57t-15.5 98zM299 481q0 -6 6 -15 t31 -9h569v680q0 8 -8 8q-4 0 -8 -3t-17 -18l-548 -608q-9 -8 -17 -17.5t-8 -17.5z" />
<glyph unicode="5" horiz-adv-x="1266" d="M82 887v362q0 54 14.5 85.5t30.5 47.5q18 18 38.5 28.5t41 16t37.5 6.5t28 1h865v-215h-717q-17 0 -32 -4.5t-23 -14.5q-11 -10 -12 -26.5t-1 -28.5v-178q0 -23 3 -49.5t20 -45.5q16 -16 45 -21t51 -5h395q66 0 128 -21q63 -19 116 -88q53 -68 63 -143q5 -38 8 -75.5 t3 -74.5q0 -49 -3 -99t-13 -97.5t-29.5 -89.5t-53.5 -76q-30 -31 -66 -48t-72.5 -24.5t-71.5 -8.5t-62 -1h-723v215h639q30 0 74 9q43 9 71 52q17 26 24 71q4 23 5.5 45t1.5 42q0 14 -1.5 32t-3.5 40q-4 43 -26 72q-5 8 -14 17t-24 17t-36.5 13.5t-49.5 5.5h-381 q-21 1 -48 1q-26 0 -54 3.5t-55 11.5t-48 25q-31 20 -47.5 49.5t-24 60.5t-9 59.5t-1.5 45.5z" />
<glyph unicode="6" horiz-adv-x="1309" d="M123 395v666q0 64 12 113t31 85t40.5 61t41.5 42q59 47 130 59q68 13 120 13h657v-215h-561q-14 0 -32.5 -1.5t-41.5 -5.5q-45 -6 -80 -41q-33 -33 -41 -76q-6 -42 -6 -63v-153h461q61 0 130 -12q68 -10 130 -66q40 -36 62.5 -79.5t33.5 -88.5t14 -88.5t3 -79.5 q0 -25 -2 -64t-8.5 -83.5t-18.5 -89.5t-33 -81q-26 -47 -63.5 -75.5t-81 -44.5t-89 -21.5t-87.5 -5.5h-359q-73 0 -133 19.5t-102 50.5q-78 57 -103 142q-24 85 -24 183zM393 408q0 -11 0.5 -30.5t4.5 -40.5t12 -42t22 -35q9 -8 20.5 -16t29 -14.5t41.5 -10.5t57 -4h174 q14 0 31.5 2t38.5 6q42 8 77 47q35 40 41 90q6 52 6 89q0 19 -1 40t-6 42t-14.5 41t-27.5 38q-35 37 -81 45q-47 9 -87 9h-338v-256z" />
<glyph unicode="7" horiz-adv-x="1102" d="M-20 1219v215h985q51 0 82 -13t47.5 -34.5t22 -48.5t5.5 -54q0 -51 -12 -89t-37 -77l-706 -1118h-301l739 1139q14 22 18 32.5t4 20.5q0 20 -15 23.5t-28 3.5h-804z" />
<glyph unicode="8" horiz-adv-x="1296" d="M82 379q0 33 2 71t10 76.5t25.5 74.5t48.5 65q29 26 68.5 41.5t74.5 19.5v4q-66 7 -118 64q-57 57 -68 122q-5 32 -7.5 62t-2.5 59q0 27 2 68t11 85t28.5 87t54.5 74q33 30 78 46.5t91.5 24.5t89 9.5t71.5 1.5h213q41 0 86 -2.5t89 -10.5t84 -24.5t70 -44.5 q36 -33 56 -75t29.5 -85.5t11.5 -84t2 -69.5t-3 -59t-8 -62q-11 -64 -67 -122q-52 -57 -119 -64v-4q42 -6 80.5 -22.5t62.5 -38.5q31 -29 48.5 -65t25.5 -74.5t10 -76.5t2 -71q0 -36 -2 -69.5t-6 -64.5q-7 -60 -55 -120q-35 -47 -76.5 -72t-87 -37t-92.5 -14t-92 -2h-309 q-45 0 -92 2t-93 14t-88 37t-76 72q-21 30 -33.5 60.5t-19 62t-8.5 64.5t-2 67zM360 422q0 -29 6 -77q8 -49 31 -77q17 -18 50.5 -35.5t93.5 -17.5h215q59 0 93 17.5t50 35.5q25 28 31 77q6 48 6 77q0 28 -9 78q-9 49 -50 84q-32 25 -70 29q-20 2 -34.5 3.5t-24.5 1.5h-199 q-11 0 -25.5 -1.5t-34.5 -3.5q-37 -4 -69 -29q-41 -35 -51 -84q-9 -50 -9 -78zM393 1024q0 -98 27 -137q29 -41 70 -47q42 -6 71 -6h174q33 0 72 6q38 6 67 47t29 137q0 16 -2 35.5t-6 44.5q-7 47 -43 80q-29 26 -66.5 30.5t-72.5 4.5h-131q-35 0 -71 -4.5t-67 -30.5 q-37 -33 -45 -80q-6 -47 -6 -80z" />
<glyph unicode="9" horiz-adv-x="1264" d="M82 995q0 37 2.5 83.5t13.5 94t32.5 93t59.5 82.5q65 58 143 71q79 15 146 15h289q42 0 89.5 -3.5t94.5 -18t90 -42.5t76 -76q42 -60 52 -126q12 -66 12 -119v-578q0 -78 -8.5 -153.5t-40.5 -141.5q-33 -65 -78 -101t-92.5 -52.5t-92 -19.5t-77.5 -3h-646v215h555 q35 0 80 6t80 41q34 34 42 87q4 26 5.5 48t1.5 39v121h-495q-19 0 -48.5 3t-64 14t-70.5 32t-67 58q-60 69 -72 155q-12 85 -12 176zM360 989q0 -24 3 -48.5t9.5 -47.5t16.5 -43t25 -35q16 -14 38.5 -22.5t45.5 -13t45 -6t37 -1.5h331v256q0 25 -6 67q-6 43 -39 74 q-18 19 -51.5 34.5t-87.5 15.5h-166q-55 0 -89 -14.5t-54 -35.5q-23 -20 -40.5 -62t-17.5 -118z" />
<glyph unicode=":" horiz-adv-x="496" d="M123 0v258h250v-258h-250zM123 827v258h250v-258h-250z" />
<glyph unicode=";" horiz-adv-x="580" d="M0 -129l250 416l196 -117l-264 -408zM207 827v258h250v-258h-250z" />
<glyph unicode="&#x3c;" horiz-adv-x="1190" d="M123 827l944 476v-189l-608 -287l608 -286v-189z" />
<glyph unicode="=" horiz-adv-x="1188" d="M123 403v175h942v-175h-942zM123 713v174h942v-174h-942z" />
<glyph unicode="&#x3e;" horiz-adv-x="1190" d="M123 352v189l608 286l-608 287v189l944 -476z" />
<glyph unicode="?" d="M41 1219v215h539q22 0 54.5 -2t68 -10.5t71 -27t64.5 -51.5q47 -56 59 -129q12 -74 12 -133q0 -46 -4.5 -91t-22.5 -87.5t-53 -83t-96 -76.5l-158 -96q-18 -10 -38.5 -28.5t-30.5 -30.5q-14 -19 -17.5 -38.5t-3.5 -37.5v-113h-249v119q0 42 8 76.5t32 69.5 q23 28 53.5 53.5t61.5 44.5l133 80q26 13 47.5 28.5t36.5 37.5t23 53t8 77q0 37 -6 74t-37 68q-18 16 -35 24t-34.5 11.5t-34.5 3.5h-35h-416zM236 0v254h249v-254h-249z" />
<glyph unicode="@" horiz-adv-x="2081" d="M123 573q0 103 3.5 192t17 167.5t41.5 147.5t77 132q62 78 135 123t151.5 68t159 29t158.5 6h398q53 0 131 -6q76 -4 160 -32q42 -13 83 -32.5t80 -47.5t74.5 -66t65.5 -87q36 -61 56 -126.5t30 -134t12 -139t2 -142.5t-2 -136.5t-8.5 -122t-19.5 -108t-34 -94.5 q-39 -81 -104.5 -125.5t-171.5 -44.5q-45 0 -89.5 11t-82 34t-66 59t-41.5 86q-35 -64 -83 -102t-99 -57.5t-100.5 -25t-87.5 -5.5q-36 0 -84 5.5t-97.5 23.5t-97 53t-82.5 94q-30 53 -47.5 137t-17.5 215q0 142 18 219q10 39 20 69.5t21 53.5q45 85 137 144t234 59h297 q37 0 74.5 -6t70.5 -39q16 -18 24.5 -35t11.5 -34.5t3 -34.5v-33v-510q0 -69 17.5 -110.5t42 -63.5t52 -28.5t48.5 -6.5q86 0 125 98q8 21 14 48t10.5 69.5t6.5 106t2 157.5q0 103 -7 177.5t-18 126.5t-24.5 85.5t-26.5 55.5q-39 63 -92.5 98.5t-111.5 52.5t-115.5 21 t-104.5 4h-412q-65 0 -139 -7.5t-143.5 -33t-128 -74.5t-93.5 -133q-9 -22 -18 -55t-16 -88.5t-11 -138.5t-4 -204q0 -36 1.5 -95t7 -125.5t15 -133.5t25.5 -119q19 -53 50 -104t84 -91t134 -64.5t201 -24.5h621v-172h-653q-43 0 -109 5.5t-139.5 28.5t-148 69.5 t-134.5 127.5q-44 61 -71.5 138t-42.5 170t-20 201t-5 230zM748 526q0 -66 5 -128t31 -111q16 -31 36.5 -51t44.5 -31.5t51 -16t57 -4.5q39 0 71 8t58 21t46.5 29.5t35.5 33.5q47 56 59 121q12 66 12 115v293q0 33 -18 51q-12 12 -31.5 17.5t-36.5 5.5h-153 q-17 0 -39.5 -2.5t-48 -10t-52 -21.5t-51.5 -38q-53 -56 -65 -131q-12 -77 -12 -150z" />
<glyph unicode="A" horiz-adv-x="1287" d="M36 300l452 1279h310l453 -1279h-284l-86 260h-485l-85 -260h-275zM470 780h340l-171 514z" />
<glyph unicode="B" horiz-adv-x="1287" d="M136 300v1279h619q185 0 289 -86q105 -86 105 -238q0 -160 -117 -242q-10 -7 -20.5 -13.5t-22.5 -11.5q46 -17 80 -42q123 -84 123 -246q0 -197 -120.5 -298.5t-355.5 -101.5h-580zM391 522h325q209 0 209 182q0 159 -214 159h-320v-341zM391 1078h306q199 0 199 150 q0 131 -210 131h-295v-281z" />
<glyph unicode="C" horiz-adv-x="1287" d="M78 932q0 313 159 498q159 184 429 184q228 0 377 -124q151 -123 176 -333h-268q-13 103 -89 164t-194 61q-149 0 -233 -119t-84 -329q0 -206 84 -321q84 -116 233 -116q118 0 194 67q75 66 89 184h268q-24 -223 -174 -353q-148 -130 -379 -130q-270 0 -429 180t-159 487 z" />
<glyph unicode="D" horiz-adv-x="1287" d="M136 300v1279h547q264 0 401 -155t137 -453q0 -329 -142.5 -500t-417.5 -171h-525zM403 520h225q326 0 326 440q0 399 -304 399h-247v-839z" />
<glyph unicode="E" horiz-adv-x="1188" d="M136 300v1279h941v-227h-674v-272h625v-220h-625v-333h704v-227h-971z" />
<glyph unicode="F" horiz-adv-x="1088" d="M136 300v1279h910v-227h-643v-291h560v-220h-560v-541h-267z" />
<glyph unicode="G" horiz-adv-x="1386" d="M78 932q0 313 170 498q171 184 462 184q232 0 384 -117q150 -115 176 -315h-268q-11 84 -94 147t-184 63q-174 0 -273 -121q-98 -121 -98 -334q0 -219 94 -332q95 -113 276 -113q155 0 242 119q47 67 70 157v3h-301v220h536v-690h-178l-26 165l-16 -21 q-135 -180 -364 -180q-281 0 -444 180q-164 181 -164 487z" />
<glyph unicode="H" horiz-adv-x="1287" d="M126 300v1279h267v-479h500v479h268v-1279h-268v579h-500v-579h-267z" />
<glyph unicode="I" horiz-adv-x="495" d="M114 300v1279h267v-1279h-267z" />
<glyph unicode="J" d="M39 713v77h254v-77v-17q0 -104 34 -156q37 -56 121 -56q79 0 113.5 41t34.5 134v920h267v-920q0 -196 -104 -295t-308 -99q-217 0 -318 109q-94 103 -94 310v29z" />
<glyph unicode="K" horiz-adv-x="1287" d="M155 300v1279h267v-530l490 530h341l-511 -523l545 -756h-350l-385 563l-130 -133v-430h-267z" />
<glyph unicode="L" horiz-adv-x="1088" d="M136 300v1279h267v-1052h636v-227h-903z" />
<glyph unicode="M" horiz-adv-x="1484" d="M123 300v1279h391l233 -1014l230 1014h386v-1279h-249v1075l-240 -1075h-262l-240 1099v-1099h-249z" />
<glyph unicode="N" horiz-adv-x="1287" d="M123 300v1279h280l513 -897v897h250v-1279h-266l-528 921v-921h-249z" />
<glyph unicode="O" horiz-adv-x="1386" d="M78 932q0 314 166 498t449 184t449 -184t166 -498q0 -308 -166 -487q-167 -180 -449 -180q-283 0 -449 180q-166 179 -166 487zM345 934q0 -207 92 -325q91 -117 256 -117q163 0 255 117q93 117 93 325q0 213 -93 333q-92 120 -255 120t-256 -120q-92 -121 -92 -333z" />
<glyph unicode="P" horiz-adv-x="1188" d="M136 300v1279h535q220 0 333 -102t113 -298q0 -208 -113 -315t-333 -107q-52 1 -99 1h-46q-66 0 -123 -3v-455h-267zM403 977h223q224 0 224 199q0 183 -224 183h-223v-382z" />
<glyph unicode="Q" horiz-adv-x="1386" d="M78 932q0 314 166 498t449 184t449 -184t166 -498q0 -278 -135 -450l139 -131l-136 -144l-153 142q-137 -84 -330 -84q-283 0 -449 180q-166 179 -166 487zM345 934q0 -207 92 -325q91 -117 256 -117h5q76 0 138 29l-131 121l135 143l140 -127q61 106 61 276 q0 213 -93 333q-92 120 -255 120t-256 -120q-92 -121 -92 -333z" />
<glyph unicode="R" horiz-adv-x="1287" d="M136 300v1279h644q182 0 295 -98q112 -97 112 -258q0 -184 -125 -270q-17 -11 -35.5 -20.5t-39.5 -17.5q23 -9 43 -21q109 -65 114 -219l6 -210q1 -31 4.5 -53t8.5 -36q11 -26 44 -41v-34h-295q-5 10 -10 31.5t-9 53.5q-4 33 -5.5 68.5t-2.5 73.5l-2 118 q-1 43 -13.5 73.5t-38 49.5t-65.5 27.5t-97 8.5h-266v-505h-267zM403 1020h310q207 0 207 170q0 169 -197 169h-320v-339z" />
<glyph unicode="S" horiz-adv-x="1188" d="M70 697h257q4 -103 73.5 -157.5t194.5 -54.5q129 0 200.5 41.5t71.5 114.5q0 72 -52 106q-25 17 -78.5 34.5t-137.5 36.5q-303 67 -407 147q-102 78 -102 244q0 185 135 295q136 110 365 110q215 0 349 -114q135 -112 150 -305h-260q-3 46 -24 83t-56 62.5t-83.5 39.5 t-106.5 14q-103 0 -160 -44.5t-57 -125.5q0 -58 60 -89q29 -16 91.5 -34t159.5 -40q279 -61 374 -144q94 -81 94 -260q0 -180 -142 -286t-384 -106q-122 0 -217.5 28.5t-162 84t-104 135.5t-41.5 184z" />
<glyph unicode="T" horiz-adv-x="1088" d="M25 1352v227h1040v-227h-386v-1052h-267v1052h-387z" />
<glyph unicode="U" horiz-adv-x="1287" d="M128 782v797h267v-806q0 -275 250 -275q134 0 191 63q57 64 57 212v806h268v-797q0 -275 -121 -396t-395 -121q-263 0 -389.5 126.5t-127.5 390.5z" />
<glyph unicode="V" horiz-adv-x="1188" d="M34 1579h284l281 -977l280 977h275l-433 -1279h-254z" />
<glyph unicode="W" horiz-adv-x="1682" d="M29 1579h278l213 -936l183 936h284l186 -928l212 928h270l-356 -1279h-254l-205 1007l-201 -1007h-254z" />
<glyph unicode="X" horiz-adv-x="1188" d="M25 300l414 647l-386 632h316l225 -413l233 413h308l-389 -612l417 -667h-319l-251 440l-252 -440h-316z" />
<glyph unicode="Y" horiz-adv-x="1188" d="M27 1579h318l266 -555l249 555h303l-423 -793v-486h-267v481z" />
<glyph unicode="Z" horiz-adv-x="1088" d="M44 300v224l663 828h-641v227h978v-211l-675 -841h673v-227h-998z" />
<glyph unicode="[" horiz-adv-x="593" d="M112 -52v1640h439v-172h-216v-1297h216v-171h-439z" />
<glyph unicode="\" horiz-adv-x="495" d="M-58 1614h209l402 -1349h-208z" />
<glyph unicode="]" horiz-adv-x="593" d="M43 -52v171h215v1297h-215v172h438v-1640h-438z" />
<glyph unicode="^" horiz-adv-x="1041" d="M110 878l320 663h181l319 -663h-198l-212 464l-211 -464h-199z" />
<glyph unicode="_" d="M0 77v92h991v-92h-991z" />
<glyph unicode="`" horiz-adv-x="593" d="M-40 1635h273l168 -258h-180z" />
<glyph unicode="a" d="M51 549q0 130 72 207.5t211 97.5l165 23q32 5 58.5 12t48.5 17q18 9 28 31.5t7 46.5q-4 39 -41 62q-42 27 -122 27q-72 0 -112 -34.5t-42 -98.5h-240q17 332 422 332q177 0 279 -75q102 -74 102 -203v-529q0 -65 10 -89q11 -26 43 -40v-35h-270q-8 29 -14 56.5t-8 55.5 l-1 2q-117 -139 -304 -139q-133 0 -212 75q-80 75 -80 198zM303 575q0 -57 30.5 -89t84.5 -32q121 0 192 84q14 17 23 49q10 30 10 63v108q-43 -24 -115 -39l-92 -17q-133 -24 -133 -127z" />
<glyph unicode="b" horiz-adv-x="1088" d="M109 300v1279h249v-456l6 7q100 142 266 142q180 0 289 -133q110 -134 110 -351q0 -229 -110 -371q-110 -141 -289 -141q-166 0 -266 132l-11 14v-122h-244zM346 757q0 -130 57 -203q55 -73 156 -73q100 0 157 74.5t57 209.5q0 69 -14.5 123t-42.5 91.5t-67.5 57 t-89.5 19.5q-100 0 -156.5 -79t-56.5 -220z" />
<glyph unicode="c" d="M61 768q0 231 121 367q122 137 328 137q183 0 299 -101q117 -101 125 -265h-255q-2 35 -14.5 64t-35 49.5t-53 32t-66.5 11.5q-94 0 -143 -75t-49 -220q0 -142 49 -215t143 -73q68 0 115 47q46 46 54 124h255q-20 -177 -132 -276q-113 -99 -292 -99q-215 0 -332 127 t-117 365z" />
<glyph unicode="d" horiz-adv-x="1088" d="M61 788q0 217 110 351q111 133 291 133q162 0 259 -136l11 -14v457h249v-1279h-242v121l-4 -6q-103 -139 -271 -139q-181 0 -292 141t-111 371zM318 765q0 -135 56 -209.5t156 -74.5q102 0 158 78.5t56 220.5q0 130 -56.5 203t-156.5 73t-156.5 -76.5t-56.5 -214.5z" />
<glyph unicode="e" d="M41 788q0 227 119 355q118 129 331 129q216 0 333 -131t117 -373q1 -8 1 -15q0 -22 -5 -41h-645q9 -112 50 -168q52 -70 174 -70q55 0 104 32q48 31 59 78h254q-33 -144 -150 -227q-117 -81 -292 -81q-108 0 -192 34t-141 99t-87 160.5t-30 218.5zM295 871h386 q-7 85 -45 133q-48 63 -149 63q-96 0 -147 -74q-31 -46 -45 -122z" />
<glyph unicode="f" horiz-adv-x="593" d="M17 1072v175h139v79q0 270 293 270h16q56 0 101 -6v-199h-79q-49 0 -66 -20q-16 -19 -16 -82v-42h161v-175h-161v-772h-249v772h-139z" />
<glyph unicode="g" horiz-adv-x="1088" d="M71 778q0 221 110 358q111 136 291 136q160 0 247 -116q8 -11 16 -23t15 -25v139h235v-897q0 -224 -111 -330.5t-346 -106.5q-193 0 -307 75q-115 75 -122 208h272q3 -48 44 -70.5t128 -22.5q105 0 151 51t46 169v116l-20 -30q-83 -114 -237 -114q-185 0 -299 132 q-113 134 -113 351zM328 775q0 -131 54.5 -203t151.5 -72q49 0 88 19t66 55t41 87.5t14 116.5q0 132 -55.5 205t-152.5 73t-152 -74.5t-55 -206.5z" />
<glyph unicode="h" horiz-adv-x="1088" d="M116 300v1279h249v-453l20 28q93 118 268 118q149 0 235 -89q85 -88 85 -246v-637h-250v592q0 172 -154 172q-99 0 -151.5 -59t-52.5 -171v-534h-249z" />
<glyph unicode="i" horiz-adv-x="495" d="M123 1357v231h254v-231h-254zM125 300v947h250v-947h-250z" />
<glyph unicode="j" horiz-adv-x="495" d="M5 -80v199l31 -1q25 0 41.5 3.5t26 12.5t13.5 24t4 38v1051h250v-1051q0 -154 -67 -215q-67 -62 -231 -62zM119 1357v231h254v-231h-254z" />
<glyph unicode="k" d="M123 300v1279h249v-691l312 359h308l-342 -359l350 -588h-296l-228 407l-104 -109v-298h-249z" />
<glyph unicode="l" horiz-adv-x="495" d="M123 300v1279h249v-1279h-249z" />
<glyph unicode="m" horiz-adv-x="1584" d="M114 300v947h237v-153q16 40 42 72q82 106 240 106q127 0 206 -85q30 -30 49 -71l31 50q76 106 225 106q154 0 241 -92t87 -253v-627h-250v556q0 106 -34.5 157t-107.5 51q-79 0 -120 -48t-41 -139v-577h-250v597q0 167 -149 167q-75 0 -115.5 -48t-40.5 -139v-577h-250z " />
<glyph unicode="n" horiz-adv-x="1088" d="M116 300v947h237v-141q8 13 16 25t16 23q93 118 268 118q149 0 235 -89q85 -88 85 -246v-637h-250v592q0 172 -154 172q-99 0 -151.5 -59t-52.5 -171v-534h-249z" />
<glyph unicode="o" horiz-adv-x="1088" d="M61 768q0 230 131 367t353 137t353 -137t131 -367q0 -225 -131 -359q-130 -133 -353 -133t-353 133q-131 134 -131 359zM318 771q0 -141 57.5 -214t169.5 -73t170 73t58 214q0 144 -58 218t-170 74t-169.5 -74t-57.5 -218z" />
<glyph unicode="p" horiz-adv-x="1088" d="M110 -71v1318h238v-141l17 24q100 142 266 142q180 0 289 -133t109 -351q0 -231 -109 -371q-110 -141 -289 -141q-166 0 -266 132l-5 7v-486h-250zM348 757q0 -131 55.5 -203.5t155.5 -72.5t157 74.5t57 209.5q0 138 -56.5 214.5t-156.5 76.5t-156 -79t-56 -220z" />
<glyph unicode="q" horiz-adv-x="1088" d="M61 758q0 233 115 373q115 141 302 141q154 0 248 -136q16 -23 27 -45v156h230v-1318h-250v482q-100 -135 -263 -135h-5q-181 0 -293 132q-111 133 -111 350zM318 765q0 -135 56.5 -209.5t156.5 -74.5q102 0 158.5 78.5t56.5 220.5q0 130 -57 203t-157 73 q-102 0 -158 -76.5t-56 -214.5z" />
<glyph unicode="r" horiz-adv-x="693" d="M114 300v947h237v-170q13 28 30 54q88 141 227 141l57 -1v-255q-33 3 -75 3q-226 0 -226 -227v-492h-250z" />
<glyph unicode="s" d="M53 603h254q3 -66 57.5 -102.5t150.5 -36.5q75 0 117 25.5t42 71.5q0 32 -41 55q-20 11 -56 22t-87 22q-240 54 -321 114q-81 58 -81 184q0 141 105 227q105 87 276 87q193 0 311 -85q119 -86 119 -224h-247q0 55 -45.5 88t-120.5 33q-72 0 -112.5 -24.5t-40.5 -69.5 q0 -32 46 -54q47 -23 161 -48q232 -51 307 -112q78 -62 78 -192q0 -138 -113 -224q-113 -84 -297 -84q-220 0 -337 83t-125 244z" />
<glyph unicode="t" horiz-adv-x="593" d="M17 1072v175h132v254h249v-254h153v-175h-153v-538q0 -17 4.5 -27.5t15.5 -16.5t31 -8t50 -2h52v-185q-32 -2 -70 -3.5t-84 -1.5q-66 0 -113 11.5t-77 35.5t-44 62.5t-14 92.5v580h-132z" />
<glyph unicode="u" horiz-adv-x="1088" d="M117 609v638h250v-593q0 -88 37 -129t115 -41q99 0 150.5 58.5t51.5 170.5v534h250v-947h-238v142q-7 -13 -14.5 -25.5t-16.5 -23.5q-92 -117 -267 -117q-75 0 -134 22.5t-100 65.5t-62.5 105t-21.5 140z" />
<glyph unicode="v" d="M23 1247h276l202 -706l204 706h262l-341 -947h-261z" />
<glyph unicode="w" horiz-adv-x="1386" d="M17 1247h265l151 -696l142 696h250l140 -697l154 697h251l-274 -947h-255l-145 705l-149 -705h-255z" />
<glyph unicode="x" d="M27 300l322 484l-309 463h301l159 -280l159 280h292l-308 -468l321 -479h-307l-165 289l-164 -289h-301z" />
<glyph unicode="y" d="M17 1247h276l206 -703l200 703h261l-339 -967q-83 -240 -140 -300q-58 -61 -208 -61l-119 3v200q8 -4 48 -4q100 0 130 41q19 25 39 108z" />
<glyph unicode="z" horiz-adv-x="891" d="M36 300v194l479 548l6 7h-450v198h762v-205l-473 -538h495v-204h-819z" />
<glyph unicode="{" horiz-adv-x="693" d="M85 689v158q115 15 141 50t26 175v231q0 161 96 229.5t303 55.5v-160q-122 6 -150 -22t-28 -155v-232q0 -139 -83 -201q-39 -29 -106 -51q68 -20 106 -49q83 -62 83 -201v-232q0 -127 28 -155q28 -29 150 -21v-160q-207 -14 -303 54.5t-96 229.5v231q0 140 -26 175 t-141 50z" />
<glyph unicode="|" horiz-adv-x="499" d="M150 -145v1781h199v-1781h-199z" />
<glyph unicode="}" horiz-adv-x="693" d="M43 -51v160q121 -7 149 21t28 155v232q0 139 84 201q37 29 105 49q-68 22 -105 51q-84 61 -84 201v232q0 127 -28 155t-149 22v160q207 13 302.5 -55.5t95.5 -229.5v-231q0 -140 26 -175t141 -50v-158q-115 -15 -141 -50t-26 -175v-231q0 -161 -96 -230q-95 -68 -302 -54 z" />
<glyph unicode="~" horiz-adv-x="1041" d="M109 748q15 36 38 64.5t52 49t62.5 31.5t69.5 11q22 0 45.5 -3.5t50.5 -12t59 -21.5t72 -31q54 -25 95.5 -40.5t58.5 -15.5q42 0 78.5 31.5t76.5 100.5l65 -159q-20 -36 -45 -64.5t-54 -48.5t-60.5 -31t-62.5 -11q-24 0 -48 4t-51 13.5t-58 24.5t-70 38q-36 20 -79 31.5 t-81 11.5q-41 0 -85 -38q-43 -37 -64 -93z" />
<glyph horiz-adv-x="1392" d="M76 412v510h175q62 0 91 -7q97 -22 136 -123q20 -55 20 -122q0 -110 -49 -177q-41 -56 -107 -72q-36 -9 -83 -9h-183zM143 472h109q89 0 125 36q51 51 51 163q0 146 -90 181q-26 10 -87 10h-108v-390zM559 412v510h368v-60h-301v-156h282v-60h-282v-174h314v-60h-381z M1004 412v510h68v-450h250v-60h-318z" />
<glyph unicode="&#xa9;" horiz-adv-x="1313" d="M-19 939q0 292 192 484q193 193 484 193q290 0 483 -193q194 -192 194 -484q0 -290 -193 -483t-484 -193q-292 0 -484 193t-192 483zM176 939q0 -220 137 -368q138 -147 344 -147q207 0 344 147q138 147 138 368t-137 369q-136 148 -345 148q-208 0 -344 -148 q-137 -148 -137 -369zM312 936q0 180 100 284q100 106 269 106q132 0 219 -75q87 -73 102 -200h-159q-7 55 -50 87t-112 32q-88 0 -136.5 -62t-48.5 -171q0 -53 13 -95t37 -71t58.5 -45t76.5 -16q64 0 107.5 33.5t54.5 93.5h159q-26 -131 -112 -207q-85 -76 -209 -76 q-166 0 -268 105q-101 106 -101 277z" />
<glyph unicode="&#xab;" horiz-adv-x="985" d="M55 575q0 45 14.5 75t28.5 50l280 392l164 -123l-231 -332q-6 -11 -15.5 -26.5t-9.5 -35.5q0 -17 7 -33t18 -28l231 -332l-164 -123l-280 392q-14 20 -28.5 49.5t-14.5 74.5zM477 575q0 26 13 54t30 51l225 289l164 -123l-170 -221q-25 -33 -25 -50q0 -14 9.5 -26 t15.5 -23l170 -245l-164 -123l-225 313q-13 17 -28 45.5t-15 58.5z" />
<glyph unicode="&#xad;" horiz-adv-x="895" d="M82 446v211h731v-211h-731z" />
<glyph unicode="&#xae;" horiz-adv-x="1313" d="M-19 939q0 291 192 483q193 193 483 193q291 0 483 -193q193 -192 193 -483q0 -290 -193 -483q-192 -192 -483 -192t-483 192q-192 193 -192 483zM173 939q0 -222 138 -370q138 -147 345 -147q208 0 346 147q138 148 138 370t-138 371q-136 148 -346 148 q-208 0 -346 -148q-137 -149 -137 -371zM367 576v728h283q140 0 212 -52t72 -155q0 -117 -67 -169q-37 -28 -100 -42l179 -310h-180l-168 300h-72v-300h-159zM526 1001h124q124 0 124 94q0 85 -124 85h-124v-179z" />
<glyph unicode="&#xb0;" horiz-adv-x="1024" d="M52 787l457 457l456 -457l-456 -456zM128 787l381 -380l380 380l-380 381zM292 787l217 218l217 -218l-217 -217z" />
<glyph unicode="&#xb1;" horiz-adv-x="901" d="M48 902l201 145l201 146l201 -146l201 -145l-77 -237l-76 -236h-497l-77 236zM167 683l142 -103l141 -102l142 102l141 103l-54 167l-54 166h-350l-54 -166zM294 821l78 56l78 57l78 -57l79 -56l-31 -92l-29 -92h-193z" />
<glyph unicode="&#xb6;" horiz-adv-x="891" d="M61 1288q0 65 24.5 120t66.5 97q47 40 109 61.5t137 21.5h432v-59h-106v-1229h-80v1229h-173v-1229h-82v690q-155 6 -242 87q-86 81 -86 211z" />
<glyph unicode="&#xb7;" horiz-adv-x="1082" d="M74 731l212 198l198 -198l-198 -198zM351 467l198 199l201 -199l-201 -219zM351 991l198 215l196 -215l-196 -198zM613 731l198 198l214 -198l-214 -205z" />
<glyph unicode="&#xba;" horiz-adv-x="983" d="M26 804l113 196l114 197h454l114 -197l113 -196l-113 -197l-114 -197h-454l-114 197zM116 804l91 -158l91 -157h364l90 157l91 158l-91 157l-90 157h-364zM243 804l59 103l59 102h238l59 -102l59 -103l-118 -206h-238z" />
<glyph unicode="&#xbb;" horiz-adv-x="985" d="M73 281l170 245q6 11 15.5 23t9.5 26q0 17 -25 50l-170 221l164 123l225 -289q17 -23 30 -51t13 -54q0 -30 -15 -58.5t-28 -45.5l-225 -313zM440 182l231 332q11 12 18 28t7 33q0 20 -9.5 35.5t-15.5 26.5l-231 332l164 123l280 -392q14 -20 28.5 -50t14.5 -75 t-14.5 -74.5t-28.5 -49.5l-280 -392z" />
<glyph unicode="&#xbf;" horiz-adv-x="774" d="M77 454v675h675v-675h-675z" />
<glyph unicode="&#xd7;" horiz-adv-x="1041" d="M71 447l305 305l-305 304l145 144l304 -304l305 304l144 -144l-304 -304l304 -305l-144 -144l-305 304l-304 -304z" />
<glyph unicode="&#xe0;" d="M51 549q0 130 72 207.5t211 97.5l165 23q32 5 58.5 12t48.5 17q18 9 28 31.5t7 46.5q-4 39 -41 62q-42 27 -122 27q-72 0 -112 -34.5t-42 -98.5h-240q17 332 422 332q177 0 279 -75q102 -74 102 -203v-529q0 -65 10 -89q11 -26 43 -40v-35h-270q-8 29 -14 56.5t-8 55.5 l-1 2q-117 -139 -304 -139q-133 0 -212 75q-80 75 -80 198zM168 1635h273l168 -258h-180zM303 575q0 -57 30.5 -89t84.5 -32q121 0 192 84q14 17 23 49q10 30 10 63v108q-43 -24 -115 -39l-92 -17q-133 -24 -133 -127z" />
<glyph unicode="&#xe1;" d="M51 549q0 130 72 207.5t211 97.5l165 23q32 5 58.5 12t48.5 17q18 9 28 31.5t7 46.5q-4 39 -41 62q-42 27 -122 27q-72 0 -112 -34.5t-42 -98.5h-240q17 332 422 332q177 0 279 -75q102 -74 102 -203v-529q0 -65 10 -89q11 -26 43 -40v-35h-270q-8 29 -14 56.5t-8 55.5 l-1 2q-117 -139 -304 -139q-133 0 -212 75q-80 75 -80 198zM303 575q0 -57 30.5 -89t84.5 -32q121 0 192 84q14 17 23 49q10 30 10 63v108q-43 -24 -115 -39l-92 -17q-133 -24 -133 -127zM319 1377l191 258h273l-284 -258h-180z" />
<glyph unicode="&#xe7;" d="M61 768q0 231 121 367q122 137 328 137q183 0 299 -101q117 -101 125 -265h-255q-2 35 -14.5 64t-35 49.5t-53 32t-66.5 11.5q-94 0 -143 -75t-49 -220q0 -142 49 -215t143 -73q68 0 115 47q46 46 54 124h255q-20 -177 -132 -276q-110 -98 -285 -99l-47 -72l49 6 q72 0 114.5 -38.5t42.5 -101.5q0 -41 -15.5 -73.5t-44.5 -55t-70 -35t-92 -12.5q-49 0 -104 12.5t-100 34.5l39 83q43 -14 79.5 -21.5t57.5 -7.5q35 0 59.5 20.5t24.5 49.5t-19.5 46.5t-50.5 17.5q-29 0 -71 -14l-38 36l87 131q-151 23 -240 121q-117 127 -117 365z" />
<glyph unicode="&#xe8;" d="M41 788q0 227 119 355q118 129 331 129q216 0 333 -131t117 -373q2 -30 -4 -56h-645q9 -112 50 -168q52 -70 174 -70q55 0 104 32q48 31 59 78h254q-33 -144 -150 -227q-117 -81 -292 -81q-108 0 -192 34t-141 99t-87 160.5t-30 218.5zM183 1635h273l168 -258h-180z M295 871h386q-7 85 -45 133q-48 63 -149 63q-96 0 -147 -74q-31 -46 -45 -122z" />
<glyph unicode="&#xe9;" d="M41 788q0 227 119 355q118 129 331 129q216 0 333 -131t117 -373q2 -30 -4 -56h-645q9 -112 50 -168q52 -70 174 -70q55 0 104 32q48 31 59 78h254q-33 -144 -150 -227q-117 -81 -292 -81q-108 0 -192 34t-141 99t-87 160.5t-30 218.5zM295 871h386q-7 85 -45 133 q-48 63 -149 63q-96 0 -147 -74q-31 -46 -45 -122zM403 1377l168 258h273l-261 -258h-180z" />
<glyph unicode="&#xea;" d="M41 788q0 227 119 355q118 129 331 129q216 0 333 -131t117 -373q2 -30 -4 -56h-645q9 -112 50 -168q52 -70 174 -70q55 0 104 32q48 31 59 78h254q-33 -144 -150 -227q-117 -81 -292 -81q-108 0 -192 34t-141 99t-87 160.5t-30 218.5zM196 1377l202 258h222l202 -258 h-200l-113 145l-113 -145h-200zM295 871h386q-7 85 -45 133q-48 63 -149 63q-96 0 -147 -74q-31 -46 -45 -122z" />
<glyph unicode="&#xf4;" horiz-adv-x="1088" d="M61 768q0 230 131 367t353 137t353 -137t131 -367q0 -225 -131 -359q-130 -133 -353 -133t-353 133q-131 134 -131 359zM231 1377l202 258h223l202 -258h-200l-113 145l-113 -145h-201zM318 771q0 -141 57.5 -214t169.5 -73t170 73t58 214q0 144 -58 218t-170 74 t-169.5 -74t-57.5 -218z" />
<glyph unicode="&#xf7;" horiz-adv-x="1041" d="M71 648v207h898v-207h-898zM362 380q0 66 46 112t112 46t112 -46q47 -47 47 -112t-47 -112q-46 -46 -112 -46t-112 46t-46 112zM362 1123q0 66 46 112t112 46t112 -46q47 -47 47 -112t-47 -112q-46 -46 -112 -46t-112 46t-46 112z" />
<glyph unicode="&#x153;" horiz-adv-x="1682" d="M61 768q0 231 125 368q124 136 339 136q202 -2 324 -121q118 119 325 121q216 0 333 -131t117 -373q2 -30 -4 -56h-630q9 -113 51 -168q52 -70 175 -70q49 0 93 32q42 31 53 78h254q-33 -144 -150 -227q-117 -81 -292 -81q-206 -2 -322 121q-126 -122 -327 -121 q-215 0 -339 133q-125 134 -125 359zM318 771q0 -141 55 -214t161 -73t161.5 73t55.5 214q0 142 -56 218q-56 74 -161 74q-106 0 -161 -74t-55 -218zM994 871h388q-7 85 -45 133q-50 63 -150 63q-98 0 -149 -74q-32 -47 -44 -122z" />
<glyph unicode="&#x60c;" horiz-adv-x="569" d="M0 170l196 117l250 -416l-182 -109z" />
<glyph unicode="&#x61b;" horiz-adv-x="496" d="M0 824l196 117l250 -416l-182 -109zM123 0v264h250v-264h-250z" />
<glyph unicode="&#x61f;" d="M41 1081q0 59 12 133q12 73 59 129q29 33 64.5 51.5t71 27t67.5 10.5t55 2h539v-215h-416h-35t-34.5 -3.5t-34.5 -11.5t-35 -24q-31 -31 -37 -68t-6 -74q0 -46 8 -77t23 -53t36.5 -37.5t47.5 -28.5l133 -80q31 -19 61.5 -44.5t53.5 -53.5q24 -35 32 -69.5t8 -76.5v-119 h-249v113q0 18 -3.5 37.5t-17.5 38.5q-10 12 -30.5 30.5t-38.5 28.5l-158 96q-61 36 -96 76.5t-53 83t-22.5 87.5t-4.5 91zM465 0v254h249v-254h-249z" />
<glyph unicode="&#x621;" horiz-adv-x="1079" d="M53 807q0 42 9.5 90.5t41.5 93.5q25 34 56 53t64.5 28t69 11t71.5 2h612v-184h-576q-20 0 -42 -1.5t-42 -18.5q-23 -17 -26.5 -36t-3.5 -42t5 -43.5t30 -40.5q11 -9 30 -18t39 -16.5t38 -13t28 -7.5l233 -66q49 -15 89.5 -28t74 -27t60 -30.5t47.5 -37.5 q21 -22 33.5 -47.5t19.5 -51.5t9.5 -52t2.5 -48q0 -49 -8.5 -86.5t-21.5 -65.5t-29 -47.5t-31 -31.5q-21 -15 -43.5 -24t-45 -13.5t-44.5 -6t-41 -1.5h-694v184h610q18 0 40.5 5.5t39.5 25.5q17 17 18.5 36t1.5 32q0 23 -5 43t-25 39q-6 6 -17 11.5t-32 13t-56.5 18 t-91.5 26.5l-209 58q-87 23 -146.5 54.5t-91.5 76.5t-41.5 93.5t-9.5 90.5z" />
<glyph unicode="&#x622;" horiz-adv-x="403" d="M10 1528v108h377v-108h-377zM82 0v1434h240v-1434h-240z" />
<glyph unicode="&#x623;" horiz-adv-x="403" d="M82 0v1434h240v-1434h-240zM96 1695q0 34 17 47.5t45 13.5h149v-57h-121q-2 0 -7.5 0.5t-5.5 -4.5q0 -2 3.5 -4.5t12 -5.5t23.5 -8t38 -13q32 -11 47.5 -27t15.5 -46q0 -26 -14.5 -42t-40.5 -16h-159v60h121q7 0 7 6q0 2 -0.5 3t-7.5 3.5t-23 7.5t-46 15 q-29 10 -41.5 25.5t-12.5 41.5z" />
<glyph unicode="&#x624;" horiz-adv-x="1176" d="M53 559q0 128 21 229q23 102 94 179q38 42 79.5 66t84.5 35.5t86 14t84 2.5h350q48 0 92.5 -6t83.5 -37q42 -36 52 -78q12 -44 12 -79v-762q0 -105 -17.5 -195t-70.5 -155q-38 -45 -88.5 -71t-102 -39t-97.5 -17t-75 -4h-512v184h457q20 0 44.5 1.5t53.5 5.5q58 7 102 42 q53 46 64 125h-385q-41 0 -86 3.5t-88.5 17.5t-83 41.5t-70.5 76.5q-84 130 -84 420zM301 541q0 -72 6 -123t15 -85.5t19.5 -54.5t20.5 -30q41 -47 96 -56q28 -4 55.5 -6t53.5 -2h285v631q0 23 -5 39t-26 31q-16 10 -31.5 13t-31.5 3h-205q-60 0 -109 -17.5t-77 -49.5 q-25 -29 -38.5 -71t-19.5 -85t-7 -80.5t-1 -56.5zM403 1470q0 59 30 83t79 24h262v-101h-213q-5 0 -14 0.5t-9 -7.5q0 -4 6 -7.5t21 -9t41.5 -14t67.5 -22.5q55 -19 83 -47.5t28 -81.5q0 -45 -25.5 -73.5t-71.5 -28.5h-281v105h214q4 0 8.5 2t4.5 8q0 4 -1.5 5.5t-13.5 6 t-40 13.5t-81 27q-51 17 -73 44t-22 74z" />
<glyph unicode="&#x625;" horiz-adv-x="403" d="M82 0v1434h240v-1434h-240zM87 -155q0 34 17 47.5t45 13.5h149v-57h-121q-2 0 -7.5 0.5t-5.5 -4.5q0 -2 3.5 -4.5t12 -5.5t23.5 -8t38 -13q32 -11 47.5 -27t15.5 -46q0 -26 -14.5 -42t-40.5 -16h-159v60h121q7 0 7 6q0 2 -0.5 3t-7.5 3.5t-23 7.5t-46 15 q-29 10 -41.5 25.5t-12.5 41.5z" />
<glyph unicode="&#x626;" horiz-adv-x="1511" d="M51 402v401h240v-358q0 -72 8.5 -115.5t31.5 -74.5q33 -44 81 -57t114 -13l584 -1q18 0 40.5 5.5t39.5 25.5q16 16 18 35.5t2 32.5q0 54 -31.5 88.5t-79.5 57t-104.5 36.5t-106.5 27q-87 22 -146 54t-92 77q-32 45 -41.5 93.5t-9.5 90.5t9.5 90.5t41.5 93.5q25 34 56 53 t64.5 28t69 11t71.5 2h498v-184h-462q-20 0 -41.5 -2t-42.5 -18q-22 -17 -26 -36.5t-4 -41.5q0 -23 5 -43.5t30 -40.5q11 -9 29.5 -18.5t38.5 -17t38 -12.5t29 -7l233 -66q56 -20 97.5 -53t69.5 -76t41.5 -92.5t13.5 -100.5q0 -98 -30 -152q-28 -53 -60 -79 q-21 -15 -43.5 -24t-45 -13.5t-44.5 -6t-41 -1.5l-750 1q-94 0 -160.5 17t-121.5 65q-34 30 -55.5 65t-34 74.5t-17 84.5t-4.5 95zM51 1207q0 59 30 83t79 24h262v-101h-213q-5 0 -14 0.5t-9 -7.5q0 -4 6 -7.5t21 -9t41.5 -14t67.5 -22.5q55 -19 83 -47.5t28 -81.5 q0 -45 -25.5 -73.5t-71.5 -28.5h-281v105h214q4 0 8.5 2t4.5 8q0 4 -1.5 5.5t-13.5 6t-40 13.5t-81 27q-51 17 -73 44t-22 74z" />
<glyph unicode="&#x627;" horiz-adv-x="403" d="M82 0v1434h240v-1434h-240z" />
<glyph unicode="&#x628;" horiz-adv-x="1649" d="M54 531v319h248l-1 -324q0 -69 6 -132t37 -113q15 -27 36.5 -45.5t50.5 -30t67.5 -16.5t87.5 -5h477q49 0 87 5t67.5 16.5t51 30t36.5 45.5q31 51 37 114.5t7 135.5v555h248l-2 -560q0 -54 -2.5 -104t-12 -97t-27.5 -91t-48 -87q-39 -53 -83.5 -82.5t-90 -44t-90.5 -17.5 t-84 -3h-665q-38 0 -82.5 3t-90.5 17.5t-91.5 44t-84.5 82.5q-30 40 -48 85.5t-27 94.5t-11.5 100.5t-2.5 103.5zM685 -166h239v-191h-239v191z" />
<glyph unicode="&#x629;" horiz-adv-x="1262" d="M53 539q0 45 4 104t18.5 120t42 119t75.5 101q45 42 100.5 65t114 34t116.5 13.5t107 2.5t106.5 -2.5t116 -13.5t114.5 -34t101 -65q48 -43 75.5 -101t41.5 -118.5t18 -117.5t4 -99q0 -87 -10.5 -156.5t-29 -123.5t-44 -94.5t-55.5 -68.5q-43 -41 -99.5 -64t-116.5 -34.5 t-118 -14.5t-104 -3q-49 0 -107 3t-116.5 14.5t-114 34.5t-100.5 64q-49 45 -77 102.5t-42 117.5t-17.5 116.5t-3.5 98.5zM301 541q0 -34 1.5 -70.5t8 -73t20.5 -71t40 -64.5q27 -30 58.5 -48t65 -27t68.5 -12t68 -3q34 0 68.5 3t67.5 12t64 27t58 48t41.5 63.5t21.5 69.5 t8 73t1 73v65q0 27 -3 56.5t-11 59t-21.5 56.5t-34.5 49q-27 29 -58.5 46t-65.5 26t-68.5 11.5t-67.5 2.5q-29 0 -64.5 -2.5t-71 -11.5t-68.5 -26t-58 -46q-26 -29 -39.5 -67.5t-20 -78.5t-7.5 -77t-1 -63zM348 1305v191h239v-191h-239zM670 1305v191h239v-191h-239z" />
<glyph unicode="&#x62a;" horiz-adv-x="1649" d="M54 531v319h248l-1 -324q0 -69 6 -132t37 -113q15 -27 36.5 -45.5t50.5 -30t67.5 -16.5t87.5 -5h477q49 0 87 5t67.5 16.5t51 30t36.5 45.5q31 51 37 114.5t7 135.5v555h248l-2 -560q0 -54 -2.5 -104t-12 -97t-27.5 -91t-48 -87q-39 -53 -83.5 -82.5t-90 -44t-90.5 -17.5 t-84 -3h-665q-38 0 -82.5 3t-90.5 17.5t-91.5 44t-84.5 82.5q-30 40 -48 85.5t-27 94.5t-11.5 100.5t-2.5 103.5zM604 1247v191h239v-191h-239zM926 1247v191h239v-191h-239z" />
<glyph unicode="&#x62b;" horiz-adv-x="1649" d="M54 531v319h248l-1 -324q0 -69 6 -132t37 -113q15 -27 36.5 -45.5t50.5 -30t67.5 -16.5t87.5 -5h477q49 0 87 5t67.5 16.5t51 30t36.5 45.5q31 51 37 114.5t7 135.5v555h248l-2 -560q0 -54 -2.5 -104t-12 -97t-27.5 -91t-48 -87q-39 -53 -83.5 -82.5t-90 -44t-90.5 -17.5 t-84 -3h-665q-38 0 -82.5 3t-90.5 17.5t-91.5 44t-84.5 82.5q-30 40 -48 85.5t-27 94.5t-11.5 100.5t-2.5 103.5zM510 1116v191h239v-191h-239zM697 1396v191h239v-191h-239zM862 1116v191h239v-191h-239z" />
<glyph unicode="&#x62c;" horiz-adv-x="1220" d="M44 -54q0 75 16 120.5t39 70.5q36 49 85.5 79.5t105.5 48t116.5 24t119 8t111.5 -0.5t95 -2h87v458q0 24 -5 50.5t-26 51.5q-24 31 -56 39t-60 8h-535v184h617q69 0 128.5 -22.5t96.5 -61.5q35 -34 57.5 -98t22.5 -158v-451h92v-184l-584 -1q-36 0 -71 -3t-66.5 -9 t-58 -15.5t-44.5 -21.5q-24 -16 -39.5 -35.5t-21 -43.5t1.5 -52.5t30 -62.5q11 -12 29 -19.5t38.5 -12t40.5 -6t35 -1.5h105v-184h-201q-27 0 -55 1.5t-56 8t-54.5 19t-51.5 34.5q-15 15 -30 36t-27 50t-19.5 67.5t-7.5 86.5zM689 -173h224v-184h-224v184z" />
<glyph unicode="&#x62d;" horiz-adv-x="1220" d="M44 -54q0 75 16 120.5t39 70.5q36 49 85.5 79.5t105.5 48t116.5 24t119 8t111.5 -0.5t95 -2h87v458q0 24 -5 50.5t-26 51.5q-24 31 -56 39t-60 8h-535v184h617q69 0 128.5 -22.5t96.5 -61.5q35 -34 57.5 -98t22.5 -158v-451h92v-184l-584 -1q-36 0 -71 -3t-66.5 -9 t-58 -15.5t-44.5 -21.5q-24 -16 -39.5 -35.5t-21 -43.5t1.5 -52.5t30 -62.5q11 -12 29 -19.5t38.5 -12t40.5 -6t35 -1.5h741v-184h-837q-27 0 -55 1.5t-56 8t-54.5 19t-51.5 34.5q-15 15 -30 36t-27 50t-19.5 67.5t-7.5 86.5z" />
<glyph unicode="&#x62e;" horiz-adv-x="1220" d="M44 -54q0 75 16 120.5t39 70.5q36 49 85.5 79.5t105.5 48t116.5 24t119 8t111.5 -0.5t95 -2h87v458q0 24 -5 50.5t-26 51.5q-24 31 -56 39t-60 8h-535v184h617q69 0 128.5 -22.5t96.5 -61.5q35 -34 57.5 -98t22.5 -158v-451h92v-184l-584 -1q-36 0 -71 -3t-66.5 -9 t-58 -15.5t-44.5 -21.5q-24 -16 -39.5 -35.5t-21 -43.5t1.5 -52.5t30 -62.5q11 -12 29 -19.5t38.5 -12t40.5 -6t35 -1.5h741v-184h-837q-27 0 -55 1.5t-56 8t-54.5 19t-51.5 34.5q-15 15 -30 36t-27 50t-19.5 67.5t-7.5 86.5zM377 1243v191h239v-191h-239z" />
<glyph unicode="&#x62f;" horiz-adv-x="1051" d="M53 0v184h389q37 0 76.5 3.5t76 15.5t67.5 35t52 61q11 21 18 50t10.5 60t5 61t1.5 54q0 13 -0.5 38.5t-2.5 55t-5.5 59.5t-9.5 52q-10 34 -30.5 65.5t-52.5 55t-77.5 37.5t-106.5 14h-387v184h465q73 0 128 -12t95 -30t66.5 -38t42.5 -36q45 -47 70 -103.5t37 -115 t14 -116t2 -106.5q0 -58 -2.5 -112t-12.5 -103.5t-30 -94.5t-54 -85q-38 -44 -81 -70t-86.5 -40t-84 -18.5t-71.5 -4.5h-522z" />
<glyph unicode="&#x630;" horiz-adv-x="1051" d="M53 0v184h389q37 0 76.5 3.5t76 15.5t67.5 35t52 61q11 21 18 50t10.5 60t5 61t1.5 54q0 13 -0.5 38.5t-2.5 55t-5.5 59.5t-9.5 52q-10 34 -30.5 65.5t-52.5 55t-77.5 37.5t-106.5 14h-387v184h465q73 0 128 -12t95 -30t66.5 -38t42.5 -36q45 -47 70 -103.5t37 -115 t14 -116t2 -106.5q0 -58 -2.5 -112t-12.5 -103.5t-30 -94.5t-54 -85q-38 -44 -81 -70t-86.5 -40t-84 -18.5t-71.5 -4.5h-522zM283 1243v191h239v-191h-239z" />
<glyph unicode="&#x631;" horiz-adv-x="670" d="M43 -180q49 -1 85 0.5t63.5 7t49 15t42.5 24.5t36.5 33t26 42.5t16 57t5.5 76.5v1009h239v-1058q0 -72 -15 -124.5t-37 -89.5t-45.5 -60.5t-41.5 -37.5q-66 -47 -168 -66.5t-256 -13.5v185z" />
<glyph unicode="&#x632;" horiz-adv-x="670" d="M43 -180q49 -1 85 0.5t63.5 7t49 15t42.5 24.5t36.5 33t26 42.5t16 57t5.5 76.5v1009h239v-1058q0 -72 -15 -124.5t-37 -89.5t-45.5 -60.5t-41.5 -37.5q-66 -47 -168 -66.5t-256 -13.5v185zM367 1243v191h239v-191h-239z" />
<glyph unicode="&#x633;" horiz-adv-x="2588" d="M50 119v684h240v-641q0 -72 8.5 -115.5t31.5 -74.5q33 -44 81 -57t114 -13h199q66 0 114 13t81 57q23 31 31.5 74.5t8.5 115.5v924h240v-903h414v901h240v-901h223q16 0 35 1.5t38.5 6.5t38 15t33.5 28q15 16 24 35.5t14 40t6.5 40.5t1.5 38v696h239v-733 q0 -82 -25 -151.5t-73 -114.5q-30 -27 -66 -44t-72.5 -26t-72.5 -12.5t-66 -3.5h-940q-10 -59 -33.5 -108.5t-69.5 -90.5q-55 -48 -121.5 -65t-160.5 -17h-363q-94 0 -160.5 17t-121.5 65q-34 30 -55.5 65t-34 74.5t-17 84.5t-4.5 95z" />
<glyph unicode="&#x634;" horiz-adv-x="2588" d="M50 119v684h240v-641q0 -72 8.5 -115.5t31.5 -74.5q33 -44 81 -57t114 -13h199q66 0 114 13t81 57q23 31 31.5 74.5t8.5 115.5v924h240v-903h414v901h240v-901h223q16 0 35 1.5t38.5 6.5t38 15t33.5 28q15 16 24 35.5t14 40t6.5 40.5t1.5 38v696h239v-733 q0 -82 -25 -151.5t-73 -114.5q-30 -27 -66 -44t-72.5 -26t-72.5 -12.5t-66 -3.5h-940q-10 -59 -33.5 -108.5t-69.5 -90.5q-55 -48 -121.5 -65t-160.5 -17h-363q-94 0 -160.5 17t-121.5 65q-34 30 -55.5 65t-34 74.5t-17 84.5t-4.5 95zM1284 1396v191h239v-191h-239z M1606 1396v191h239v-191h-239zM1931 1396v191h239v-191h-239z" />
<glyph unicode="&#x635;" horiz-adv-x="2560" d="M60 119v684h240v-641q0 -72 8.5 -115.5t31.5 -74.5q33 -44 81 -57t114 -13h199q66 0 114 13t81 57q23 31 31.5 74.5t8.5 115.5l-3 924h240l-1 -144q26 36 62.5 60.5t77 40.5t82 24.5t77.5 12.5t64.5 4.5t42.5 0.5h467q44 0 92 -6t94.5 -24t90 -51.5t78.5 -88.5 q28 -46 43.5 -94.5t22.5 -97.5t8 -98t1 -95q0 -55 -2.5 -105.5t-11.5 -98t-27 -92t-49 -87.5q-39 -53 -83.5 -82.5t-90 -44t-90.5 -17.5t-84 -3h-869q-9 -60 -32.5 -109t-70.5 -91q-55 -48 -121.5 -65t-160.5 -17h-363q-94 0 -160.5 17t-121.5 65q-34 30 -55.5 65t-34 74.5 t-17 84.5t-4.5 95zM1204 576l2 -392h770q49 0 87 5t67.5 16.5t51 30t36.5 45.5q31 51 37 114.5t6 132.5q0 104 -10.5 174t-41.5 113q-22 30 -51 47t-60 26t-62 11t-56 2h-442q-143 -5 -228.5 -88t-105.5 -237z" />
<glyph unicode="&#x636;" horiz-adv-x="2560" d="M60 119v684h240v-641q0 -72 8.5 -115.5t31.5 -74.5q33 -44 81 -57t114 -13h199q66 0 114 13t81 57q23 31 31.5 74.5t8.5 115.5l-3 924h240l-1 -144q26 36 62.5 60.5t77 40.5t82 24.5t77.5 12.5t64.5 4.5t42.5 0.5h467q44 0 92 -6t94.5 -24t90 -51.5t78.5 -88.5 q28 -46 43.5 -94.5t22.5 -97.5t8 -98t1 -95q0 -55 -2.5 -105.5t-11.5 -98t-27 -92t-49 -87.5q-39 -53 -83.5 -82.5t-90 -44t-90.5 -17.5t-84 -3h-869q-9 -60 -32.5 -109t-70.5 -91q-55 -48 -121.5 -65t-160.5 -17h-363q-94 0 -160.5 17t-121.5 65q-34 30 -55.5 65t-34 74.5 t-17 84.5t-4.5 95zM1204 576l2 -392h770q49 0 87 5t67.5 16.5t51 30t36.5 45.5q31 51 37 114.5t6 132.5q0 104 -10.5 174t-41.5 113q-22 30 -51 47t-60 26t-62 11t-56 2h-442q-143 -5 -228.5 -88t-105.5 -237zM1482 1243v191h239v-191h-239z" />
<glyph unicode="&#x637;" horiz-adv-x="1865" d="M119 0v184h152v1250h240l-1 -492q26 36 62.5 60.5t77 40.5t82 24.5t77.5 12.5t64.5 4.5t42.5 0.5h467q44 0 92 -6t94.5 -24t90 -51.5t78.5 -88.5q28 -46 43.5 -94.5t22.5 -97.5t8 -98t1 -95q0 -55 -2.5 -105.5t-11.5 -98t-27 -92t-49 -87.5q-39 -53 -83.5 -82.5t-90 -44 t-90.5 -17.5t-84 -3h-1256zM508 184h773q49 0 87 5t67.5 16.5t51 30t36.5 45.5q31 51 37 114.5t6 132.5q0 104 -10.5 174t-41.5 113q-22 30 -51 47t-60 26t-62 11t-56 2h-442q-143 -5 -228.5 -88t-105.5 -237z" />
<glyph unicode="&#x638;" horiz-adv-x="1865" d="M119 0v184h152v1250h240l-1 -492q26 36 62.5 60.5t77 40.5t82 24.5t77.5 12.5t64.5 4.5t42.5 0.5h467q44 0 92 -6t94.5 -24t90 -51.5t78.5 -88.5q28 -46 43.5 -94.5t22.5 -97.5t8 -98t1 -95q0 -55 -2.5 -105.5t-11.5 -98t-27 -92t-49 -87.5q-39 -53 -83.5 -82.5t-90 -44 t-90.5 -17.5t-84 -3h-1256zM508 184h773q49 0 87 5t67.5 16.5t51 30t36.5 45.5q31 51 37 114.5t6 132.5q0 104 -10.5 174t-41.5 113q-22 30 -51 47t-60 26t-62 11t-56 2h-442q-143 -5 -228.5 -88t-105.5 -237zM842 1243v191h239v-191h-239z" />
<glyph unicode="&#x639;" horiz-adv-x="1220" d="M44 -54q0 75 16 120.5t39 70.5q21 30 48.5 52t58 38.5t62.5 27.5t61 19q-28 35 -50 67t-37.5 66.5t-23.5 76t-8 95.5q0 49 1.5 98.5t13 98.5t36 97.5t69.5 95.5q16 16 42.5 36t66.5 38t95 30t128 12h465v-184h-387q-61 0 -106.5 -14t-77.5 -37.5t-52.5 -55t-30.5 -65.5 q-12 -45 -13.5 -86.5t-1.5 -67.5q0 -24 1 -42.5t4 -35.5t9.5 -34.5t17.5 -38.5q19 -35 46 -58.5t59 -39t67 -23t70 -9.5h419v-184l-584 -1q-30 -1 -66.5 -2.5t-70 -4.5t-59 -8t-34.5 -11q-31 -23 -38 -51t-7 -57q0 -48 11.5 -75.5t25.5 -41.5q23 -23 52 -27t60 -4h741v-184 h-837q-27 0 -55 1.5t-56 8t-54.5 19t-51.5 34.5q-15 15 -30 36t-27 50t-19.5 67.5t-7.5 86.5z" />
<glyph unicode="&#x63a;" horiz-adv-x="1220" d="M44 -54q0 75 16 120.5t39 70.5q21 30 48.5 52t58 38.5t62.5 27.5t61 19q-28 35 -50 67t-37.5 66.5t-23.5 76t-8 95.5q0 49 1.5 98.5t13 98.5t36 97.5t69.5 95.5q16 16 42.5 36t66.5 38t95 30t128 12h465v-184h-387q-61 0 -106.5 -14t-77.5 -37.5t-52.5 -55t-30.5 -65.5 q-12 -45 -13.5 -86.5t-1.5 -67.5q0 -24 1 -42.5t4 -35.5t9.5 -34.5t17.5 -38.5q19 -35 46 -58.5t59 -39t67 -23t70 -9.5h419v-184l-584 -1q-30 -1 -66.5 -2.5t-70 -4.5t-59 -8t-34.5 -11q-31 -23 -38 -51t-7 -57q0 -48 11.5 -75.5t25.5 -41.5q23 -23 52 -27t60 -4h741v-184 h-837q-27 0 -55 1.5t-56 8t-54.5 19t-51.5 34.5q-15 15 -30 36t-27 50t-19.5 67.5t-7.5 86.5zM541 1243v191h239v-191h-239z" />
<glyph unicode="&#x640;" horiz-adv-x="432" d="M-9 1v184l450 -1v-184z" />
<glyph unicode="&#x641;" horiz-adv-x="1746" d="M39 531v319h248l-1 -324q0 -69 6 -132t37 -113q15 -27 36.5 -45.5t50.5 -30t67.5 -16.5t87.5 -5h141q-59 132 -59 375q0 128 21 229q23 102 94 179q38 42 79.5 66t84.5 35.5t86 14t84 2.5h350q48 0 92.5 -6t83.5 -37q42 -36 52 -78q12 -44 12 -79v-514q0 -56 -8.5 -100 t-23 -78t-34 -59.5t-40.5 -44.5q-33 -30 -68.5 -47.5t-73.5 -26.5t-78 -11.5t-83 -2.5l-633 -1h-173q-38 0 -82.5 3t-90.5 17.5t-91.5 44t-84.5 82.5q-30 40 -48 85.5t-27 94.5t-11.5 100.5t-2.5 103.5zM901 541q0 -72 6 -123t15 -85.5t19.5 -54.5t20.5 -30q41 -47 96 -56 q28 -4 55.5 -6t53.5 -2l68 1q67 0 107 15t66 50q23 31 32.5 69.5t11.5 80.5v415q0 23 -5 39t-26 31q-16 10 -31.5 13t-31.5 3h-205q-60 0 -109 -17.5t-77 -49.5q-25 -29 -38.5 -71t-19.5 -85t-7 -80.5t-1 -56.5zM1080 1243v191h239v-191h-239z" />
<glyph unicode="&#x642;" horiz-adv-x="1488" d="M59 5l179 89q5 -37 29 -83.5t68 -87.5t110 -69t156 -28h297q20 0 44.5 1.5t53.5 5.5q58 7 102 42q53 46 64 125h-385q-41 0 -86 3.5t-88.5 17.5t-83 41.5t-70.5 76.5q-84 130 -84 420q0 128 21 229q23 102 94 179q38 42 79.5 66t84.5 35.5t86 14t84 2.5h350q48 0 92.5 -6 t83.5 -37q42 -36 52 -78q12 -44 12 -79v-762q0 -105 -17.5 -195t-70.5 -155q-38 -45 -88.5 -71t-102 -39t-97.5 -17t-75 -4h-398q-111 0 -197.5 31.5t-148.5 83t-99.5 116.5t-50.5 132zM604 1247v191h239v-191h-239zM613 541q0 -72 6 -123t15 -85.5t19.5 -54.5t20.5 -30 q41 -47 96 -56q28 -4 55.5 -6t53.5 -2h285v631q0 23 -5 39t-26 31q-16 10 -31.5 13t-31.5 3h-205q-60 0 -109 -17.5t-77 -49.5q-25 -29 -38.5 -71t-19.5 -85t-7 -80.5t-1 -56.5zM926 1247v191h239v-191h-239z" />
<glyph unicode="&#x643;" horiz-adv-x="1649" d="M54 531v319h248l-1 -324q0 -69 6 -132t37 -113q15 -27 36.5 -45.5t50.5 -30t67.5 -16.5t87.5 -5h477q49 0 87.5 5t67.5 16.5t50 30t37 45.5q31 51 37 114.5t7 135.5v902h248l-2 -907q0 -54 -2.5 -104t-12 -97t-27.5 -91.5t-48 -86.5q-39 -53 -83.5 -82.5t-90 -44 t-90.5 -17.5t-84 -3h-665q-38 0 -82.5 3t-90.5 17.5t-91.5 44t-84.5 82.5q-30 40 -48 85.5t-27 94.5t-11.5 100.5t-2.5 103.5zM557 941q0 79 40.5 112t107.5 33h354v-136h-288q-3 0 -8.5 0.5t-10.5 0t-9 -2.5t-4 -8q0 -5 8 -10t28.5 -12.5t56.5 -19t92 -30.5 q37 -12 64.5 -27.5t46.5 -36t28.5 -47.5t9.5 -63q0 -61 -34 -99.5t-97 -38.5h-379v142h289q5 0 11 3t6 11q0 5 -1.5 7.5t-18 8l-54 18l-109.5 36.5q-69 23 -99 59.5t-30 99.5z" />
<glyph unicode="&#x644;" horiz-adv-x="1265" d="M50 119v684h240v-641q0 -72 8.5 -115.5t31.5 -74.5q33 -44 81 -57t114 -13h199q66 0 114 13t81 57q23 31 31.5 74.5t8.5 115.5v1272h240v-1315q0 -50 -4.5 -95t-17 -84.5t-34 -74.5t-55.5 -65q-55 -48 -121.5 -65t-160.5 -17h-363q-94 0 -160.5 17t-121.5 65 q-34 30 -55.5 65t-34 74.5t-17 84.5t-4.5 95z" />
<glyph unicode="&#x645;" horiz-adv-x="1565" d="M45 -225q0 92 22 173q21 84 91 142q27 25 59 42t65 27.5t66 15.5t63 7h10q6 0 11 1q-26 44 -41.5 92.5t-23 96t-9.5 91t-2 76.5q0 45 4 104t18.5 119.5t42 118.5t75.5 102q45 41 100.5 64t114 34.5t116 14t107.5 2.5q49 0 106.5 -2.5t116 -14t114.5 -34.5t101 -64 q47 -44 74.5 -101.5t42 -117.5t18.5 -117t4 -100q0 -175 -40 -280q-40 -104 -99 -163q-43 -41 -99.5 -64.5t-116.5 -35t-118 -14t-104 -2.5q-63 0 -139.5 2.5t-149.5 9.5h-100q-47 0 -105 -12q-57 -12 -100 -64q-35 -42 -45 -96t-10 -117v-241h-240v305zM604 541 q0 -68 9 -144t61 -135t123 -75q70 -15 137 -15t136 15q70 17 122 75q53 61 62 133q5 37 7.5 73.5t2.5 72.5v65q0 26 -3 56t-11 59t-21.5 56.5t-34.5 49.5q-27 30 -58.5 47t-65.5 25.5t-68.5 11t-67.5 2.5q-29 0 -64.5 -2t-71 -11t-68.5 -26t-58 -47q-26 -29 -39.5 -67.5 t-20 -78.5t-7.5 -77t-1 -63z" />
<glyph unicode="&#x646;" horiz-adv-x="1265" d="M50 119v684h240v-641q0 -72 8.5 -115.5t31.5 -74.5q33 -44 81 -57t114 -13h199q66 0 114 13t81 57q23 31 31.5 74.5t8.5 115.5v924h240v-967q0 -50 -4.5 -95t-17 -84.5t-34 -74.5t-55.5 -65q-55 -48 -121.5 -65t-160.5 -17h-363q-94 0 -160.5 17t-121.5 65 q-34 30 -55.5 65t-34 74.5t-17 84.5t-4.5 95zM503 1243v191h239v-191h-239z" />
<glyph unicode="&#x647;" horiz-adv-x="1262" d="M53 539q0 45 4 104t18.5 120t42 119t75.5 101q45 42 100.5 65t114 34t116.5 13.5t107 2.5t106.5 -2.5t116 -13.5t114.5 -34t101 -65q48 -43 75.5 -101t41.5 -118.5t18 -117.5t4 -99q0 -87 -10.5 -156.5t-29 -123.5t-44 -94.5t-55.5 -68.5q-43 -41 -99.5 -64t-116.5 -34.5 t-118 -14.5t-104 -3q-49 0 -107 3t-116.5 14.5t-114 34.5t-100.5 64q-49 45 -77 102.5t-42 117.5t-17.5 116.5t-3.5 98.5zM301 541q0 -34 1.5 -70.5t8 -73t20.5 -71t40 -64.5q27 -30 58.5 -48t65 -27t68.5 -12t68 -3q34 0 68.5 3t67.5 12t64 27t58 48t41.5 63.5t21.5 69.5 t8 73t1 73v65q0 27 -3 56.5t-11 59t-21.5 56.5t-34.5 49q-27 29 -58.5 46t-65.5 26t-68.5 11.5t-67.5 2.5q-29 0 -64.5 -2.5t-71 -11.5t-68.5 -26t-58 -46q-26 -29 -39.5 -67.5t-20 -78.5t-7.5 -77t-1 -63z" />
<glyph unicode="&#x648;" horiz-adv-x="1176" d="M53 559q0 128 21 229q23 102 94 179q38 42 79.5 66t84.5 35.5t86 14t84 2.5h350q48 0 92.5 -6t83.5 -37q42 -36 52 -78q12 -44 12 -79v-762q0 -105 -17.5 -195t-70.5 -155q-38 -45 -88.5 -71t-102 -39t-97.5 -17t-75 -4h-512v184h457q20 0 44.5 1.5t53.5 5.5q58 7 102 42 q53 46 64 125h-385q-41 0 -86 3.5t-88.5 17.5t-83 41.5t-70.5 76.5q-84 130 -84 420zM301 541q0 -72 6 -123t15 -85.5t19.5 -54.5t20.5 -30q41 -47 96 -56q28 -4 55.5 -6t53.5 -2h285v631q0 23 -5 39t-26 31q-16 10 -31.5 13t-31.5 3h-205q-60 0 -109 -17.5t-77 -49.5 q-25 -29 -38.5 -71t-19.5 -85t-7 -80.5t-1 -56.5z" />
<glyph unicode="&#x649;" horiz-adv-x="1511" d="M51 402v401h240v-358q0 -72 8.5 -115.5t31.5 -74.5q33 -44 81 -57t114 -13l584 -1q18 0 40.5 5.5t39.5 25.5q16 16 18 35.5t2 32.5q0 54 -31.5 88.5t-79.5 57t-104.5 36.5t-106.5 27q-87 22 -146 54t-92 77q-32 45 -41.5 93.5t-9.5 90.5t9.5 90.5t41.5 93.5q25 34 56 53 t64.5 28t69 11t71.5 2h498v-184h-462q-20 0 -41.5 -2t-42.5 -18q-22 -17 -26 -36.5t-4 -41.5q0 -23 5 -43.5t30 -40.5q11 -9 29.5 -18.5t38.5 -17t38 -12.5t29 -7l233 -66q56 -20 97.5 -53t69.5 -76t41.5 -92.5t13.5 -100.5q0 -98 -30 -152q-28 -53 -60 -79 q-21 -15 -43.5 -24t-45 -13.5t-44.5 -6t-41 -1.5l-750 1q-94 0 -160.5 17t-121.5 65q-34 30 -55.5 65t-34 74.5t-17 84.5t-4.5 95z" />
<glyph unicode="&#x64a;" horiz-adv-x="1511" d="M51 402v401h240v-358q0 -72 8.5 -115.5t31.5 -74.5q33 -44 81 -57t114 -13l584 -1q18 0 40.5 5.5t39.5 25.5q16 16 18 35.5t2 32.5q0 54 -31.5 88.5t-79.5 57t-104.5 36.5t-106.5 27q-87 22 -146 54t-92 77q-32 45 -41.5 93.5t-9.5 90.5t9.5 90.5t41.5 93.5q25 34 56 53 t64.5 28t69 11t71.5 2h498v-184h-462q-20 0 -41.5 -2t-42.5 -18q-22 -17 -26 -36.5t-4 -41.5q0 -23 5 -43.5t30 -40.5q11 -9 29.5 -18.5t38.5 -17t38 -12.5t29 -7l233 -66q56 -20 97.5 -53t69.5 -76t41.5 -92.5t13.5 -100.5q0 -98 -30 -152q-28 -53 -60 -79 q-21 -15 -43.5 -24t-45 -13.5t-44.5 -6t-41 -1.5l-750 1q-94 0 -160.5 17t-121.5 65q-34 30 -55.5 65t-34 74.5t-17 84.5t-4.5 95zM466 -166h239v-191h-239v191zM788 -166h239v-191h-239v191z" />
<glyph unicode="&#x64b;" horiz-adv-x="408" d="M49 1482l17 91l340 193l-17 -91zM63 1649l17 91l340 193l-17 -91z" />
<glyph unicode="&#x64c;" horiz-adv-x="469" d="M45 1619q19 27 44.5 43.5t50.5 22t47 -1t34 -24.5t10.5 -48t-23.5 -72q46 20 85.5 44t71.5 62q-41 10 -60.5 31.5t-22 47.5t8 53t30 49.5t44 36t49.5 12.5q21 -2 28 -24.5t6.5 -51t-6 -55.5t-8.5 -37l38 -12l-17 -76l-46 13q-6 -14 -19.5 -33.5t-32 -40t-40.5 -39.5 t-45.5 -31t-47.5 -15t-46 8t-24 31.5t3 42t10.5 42t-2 32t-34.5 10.5t-86 -20zM334 1773q-2 -11 3 -19t14 -14t20.5 -11.5t24.5 -11.5q2 19 2 35q0 14 -2.5 26.5t-7.5 16.5v-2q-10 10 -23 10q-14 1 -22.5 -8.5t-8.5 -21.5z" />
<glyph unicode="&#x64d;" horiz-adv-x="408" d="M38 -509l17 91l340 193l-17 -91zM65 -341l17 91l340 193l-17 -91z" />
<glyph unicode="&#x64e;" horiz-adv-x="408" d="M49 1482l17 91l340 193l-17 -91z" />
<glyph unicode="&#x64f;" horiz-adv-x="414" d="M13 1507q61 25 105.5 43t79 36t62.5 39.5t56 54.5q-47 11 -69 34t-25.5 51t9 57.5t34 53.5t49.5 38.5t56 13.5q16 -1 25 -12.5t12.5 -29t2.5 -39t-3.5 -41.5t-6.5 -36.5t-7 -24.5l44 -13l-19 -80l-52 12q-11 -23 -37.5 -52.5t-62.5 -55t-78.5 -42.5t-85.5 -15 q-29 2 -47.5 3t-28.5 2t-12.5 1.5t-0.5 1.5zM279 1818q-2 -25 20 -37t51 -23q2 20 2 38q0 15 -2 28.5t-9 18.5v-2q-5 6 -12 8t-12 2q-17 2 -27 -8.5t-11 -24.5z" />
<glyph unicode="&#x650;" horiz-adv-x="408" d="M55 -341l17 91l340 193l-17 -91z" />
<glyph unicode="&#x651;" horiz-adv-x="425" d="M59.5 1603.5q-1.5 27.5 2 53.5t10.5 47.5t14 31.5q0 -3 5 1t11.5 9t11.5 8.5t5 0.5q-8 -20 -13.5 -46.5t-3 -50t14 -39.5t37.5 -15q28 0 43.5 15.5t24 37t13 44.5t12.5 38q1 -3 5.5 0.5t9 8t9 8t5.5 0.5q-8 -29 -2.5 -54t19.5 -40t35.5 -18t46.5 14q6 9 5.5 22t-4.5 26.5 t-11 27t-14 23.5q13 18 24.5 34t22.5 32q11 -17 17.5 -36t11.5 -38q6 -33 3 -67t-15 -62t-33 -45.5t-51 -17.5q-25 0 -37.5 9t-27.5 23q-6 -10 -15 -23t-22 -25t-31 -21t-40 -11q-35 -3 -56 10t-31 35t-11.5 49.5z" />
<glyph unicode="&#x652;" horiz-adv-x="328" d="M59 1556q-5 33 3.5 75.5t27 81.5t46 67t59.5 33q28 4 54 -6.5t46.5 -28.5t34.5 -40.5t17 -41.5q5 -34 -10 -71.5t-41 -87.5v1q0 1 1 2l-3 -5h1h-1q-24 -14 -61.5 -26.5t-74 -15t-65 11t-34.5 51.5zM123 1643q3 -22 21 -32.5t42 -11t50 6.5t46 21l1 1q-3 14 -13.5 30 t-25 29.5t-31.5 22t-35 5.5q-30 -5 -44 -27t-11 -45zM295 1536h1h-1z" />
<glyph unicode="&#x660;" horiz-adv-x="1402" d="M520 580v310q0 10 8 18t19 8h309q11 0 18.5 -8t7.5 -18v-310q0 -10 -7.5 -17t-18.5 -7h-309q-11 0 -19 7t-8 17z" />
<glyph unicode="&#x661;" horiz-adv-x="795" d="M290 29v1403q0 10 8.5 17t18.5 7h173q11 0 18 -7t7 -17v-1403q0 -11 -7 -18t-18 -7h-173q-10 0 -18.5 7t-8.5 18z" />
<glyph unicode="&#x662;" horiz-adv-x="1402" d="M282 984q0 127 42 216t112 145t159.5 82.5t184.5 28.5h19q16 0 38 1t47 1.5t49 2.5q23 0 45 1t40 1.5t30.5 1t16.5 0.5q10 0 21.5 -1.5t21.5 -5.5t16.5 -9.5t6.5 -13.5v-172q0 -11 -7.5 -18.5t-18.5 -7.5h-47l-283 1q-60 -7 -109 -20.5t-83.5 -38t-53.5 -62.5t-19 -93 q0 -34 6 -68q53 -235 108 -471.5t109 -471.5q-2 -5 -8 -9.5t-13 -4.5h-197q-4 0 -5.5 5.5t-3.5 13.5q-53 207 -106 415t-107 416l1 -3q-7 38 -9.5 72.5t-2.5 65.5z" />
<glyph unicode="&#x663;" horiz-adv-x="1402" d="M154 29v1403q0 10 7.5 17t17.5 7h174q11 0 18 -7t7 -17v-414h222v413q0 11 6.5 18t16.5 7h175q10 0 17 -7t7 -18l-1 -381l1 -32h222v413q0 11 7 18t18 7h174q11 0 18 -7t7 -18v-340q0 -79 -17 -135t-50.5 -92t-82.5 -52.5t-113 -16.5h-627v-766q0 -11 -7 -18t-18 -7h-174 q-10 0 -17.5 7t-7.5 18z" />
<glyph unicode="&#x664;" horiz-adv-x="1402" d="M239 391q0 49 13.5 100.5t42 103t74 103t110.5 99.5l-60 74t-56.5 76.5t-47 83t-30.5 93.5q1 78 27 140.5t69 107t99.5 68t119.5 23.5h494q11 0 19 -7.5t8 -18.5v-174q0 -9 -8 -16t-19 -7h-513q-36 -22 -52.5 -47t-16.5 -52t13.5 -58t37 -64.5t54 -69.5t65.5 -74h292 q11 0 18.5 -7t7.5 -18v-172q0 -11 -7.5 -18.5t-18.5 -7.5l-302 -1q-48 -12 -86.5 -37t-65.5 -58t-41.5 -71t-14.5 -77q0 -58 33 -108t106 -76h491q11 0 19 -7.5t8 -16.5v-174q0 -11 -8 -18t-19 -7h-494q-74 0 -139.5 31.5t-114.5 85t-78 124t-29 149.5z" />
<glyph unicode="&#x665;" horiz-adv-x="1402" d="M138 440q0 101 22 210t61.5 213.5t93 199t116.5 167t132.5 117t140.5 49.5q71 -5 140.5 -49.5t132.5 -117t116.5 -167t93 -199t61.5 -213.5t22 -210q0 -89 -20 -166.5t-63 -136.5t-109 -95t-158 -40h-432q-95 3 -161.5 38t-108.5 94.5t-61 138t-19 167.5zM356 476 q0 -54 11 -99.5t35.5 -79.5t63 -53t94.5 -19h288q55 0 94 19t63.5 53t35.5 79.5t11 99.5q0 68 -16.5 144.5t-43.5 151.5t-62.5 143.5t-74.5 121t-78 83.5t-73 31t-73 -31t-78 -83.5t-74.5 -121t-62.5 -143.5t-43.5 -151.5t-16.5 -144.5z" />
<glyph unicode="&#x666;" horiz-adv-x="1402" d="M215 1263v172q0 8 6.5 13.5t16.5 9.5t21.5 5.5t21.5 1.5t33 -0.5t52.5 -2t62.5 -2.5t62.5 -2t52 -1.5t31.5 -0.5q108 -21 197.5 -71t153.5 -127.5t99.5 -182t35.5 -233.5q2 -207 3 -412.5t2 -411.5q-1 -8 -2.5 -13.5t-5.5 -5.5h-198q-8 0 -14.5 5t-6.5 13v945 q-17 68 -47.5 115t-69 77t-83 46.5t-91.5 24t-93.5 9t-87.5 1.5h-42t-37 2h-48q-10 0 -17.5 7.5t-7.5 18.5z" />
<glyph unicode="&#x667;" horiz-adv-x="1402" d="M162 1437q0 8 7 13.5t16 5.5h174q12 0 19.5 -9.5t8.5 -20.5l227 -1011q19 -86 43.5 -136t52.5 -49t50.5 51t39.5 138l226 1007q1 11 8.5 20.5t19.5 9.5h173q10 0 16.5 -5.5t6.5 -13.5q-62 -282 -123.5 -561.5t-123.5 -560.5q-17 -68 -42 -120.5t-60.5 -90t-83.5 -60.5 t-111 -31q-110 12 -186 87t-109 214q-31 141 -62 281l-62 280q-32 140 -62.5 281t-62.5 281z" />
<glyph unicode="&#x668;" horiz-adv-x="1402" d="M162 34q32 140 62.5 280t62.5 281q31 140 62 279.5t62 281.5q33 139 109 213.5t186 86.5q63 -8 111 -30.5t83.5 -60t60.5 -90t42 -120.5q60 -277 123 -560t124 -561q0 -10 -6.5 -15.5t-16.5 -5.5h-173q-12 0 -19.5 9.5t-8.5 22.5q-56 247 -113 503t-113 503 q-9 43 -19 79.5t-21 62.5t-23.5 41t-26.5 15t-27 -14t-25.5 -40t-23.5 -62t-20 -78l-227 -1010q-1 -13 -8.5 -22.5t-19.5 -9.5h-174q-9 0 -16 5.5t-7 15.5z" />
<glyph unicode="&#x669;" horiz-adv-x="1402" d="M273 714v448q0 79 17 134.5t50.5 91t82.5 52t113 16.5h308q64 0 113 -16.5t82.5 -52t50.5 -91t17 -134.5v-33t-0.5 -47t-0.5 -75q0 -45 -0.5 -115.5t-0.5 -171.5v-240l-2 -451q0 -11 -7.5 -18t-18.5 -7h-172q-11 0 -19 7t-8 18v390h-342q-128 0 -195.5 69t-67.5 226z M497 642h381l4 592h-385v-592z" />
<glyph unicode="&#x66a;" horiz-adv-x="1673" d="M123 1102q0 30 2 67t9.5 74.5t23.5 72t45 60.5q51 48 114 58q66 12 123 12q56 0 121 -12q64 -10 115 -58q26 -26 42 -60.5t25 -71t12 -73.5t3 -69q0 -33 -3 -70t-12 -73.5t-25 -70.5t-42 -61q-51 -48 -115 -58q-32 -5 -62.5 -8t-58.5 -3q-29 0 -59.5 3t-63.5 8 q-63 10 -114 58q-29 27 -45 60.5t-23.5 69.5t-9.5 73.5t-2 71.5zM291 1102q0 -68 9 -106t26 -58q22 -29 54 -36t60 -7q27 0 57.5 7t55.5 36q28 33 33 81q2 24 3 45t1 38t-1 38t-3 45q-5 48 -33 81q-25 28 -55.5 35.5t-57.5 7.5q-28 0 -60 -7.5t-54 -35.5q-17 -21 -26 -59 t-9 -105zM385 0l731 1434h180l-731 -1434h-180zM915 332q0 30 2 67t10.5 74.5t24.5 72t43 60.5q51 48 115 58q66 12 123 12q55 0 120 -12q64 -10 115 -58q27 -26 43 -60t25 -71t11.5 -74.5t2.5 -68.5q0 -33 -2.5 -70t-11.5 -73.5t-25 -70.5t-43 -61q-51 -48 -115 -58 q-32 -5 -62 -8t-58 -3q-29 0 -59.5 3t-63.5 8q-64 10 -115 58q-28 27 -44 60.5t-24 69.5t-10 73.5t-2 71.5zM1083 332q0 -68 9.5 -106t25.5 -58q23 -29 54.5 -36t60.5 -7q27 0 57.5 7t55.5 36q27 32 32 81q2 24 3 45t1 38t-1 38t-3 45q-5 49 -32 81q-25 28 -55.5 35.5 t-57.5 7.5q-29 0 -60.5 -7.5t-54.5 -35.5q-16 -21 -25.5 -59t-9.5 -105z" />
<glyph unicode="&#x66d;" horiz-adv-x="815" d="M71 1224v68l214 18l-139 162l47 49l164 -139l17 213h68l17 -213l163 139l49 -49l-140 -162l214 -18v-68l-214 -17l140 -163l-49 -48l-163 139l-17 -214h-68l-17 214l-164 -139l-47 48l139 163z" />
<glyph unicode="&#x6f9;" horiz-adv-x="1033" d="M93 325v934h934v-934h-934zM223 454h675v675h-675v-675z" />
<glyph unicode="&#x2000;" horiz-adv-x="1067" />
<glyph unicode="&#x2001;" horiz-adv-x="2134" />
<glyph unicode="&#x2002;" horiz-adv-x="1067" />
<glyph unicode="&#x2003;" horiz-adv-x="2134" />
<glyph unicode="&#x2004;" horiz-adv-x="711" />
<glyph unicode="&#x2005;" horiz-adv-x="533" />
<glyph unicode="&#x2006;" horiz-adv-x="355" />
<glyph unicode="&#x2007;" horiz-adv-x="355" />
<glyph unicode="&#x2008;" horiz-adv-x="266" />
<glyph unicode="&#x2009;" horiz-adv-x="426" />
<glyph unicode="&#x200a;" horiz-adv-x="118" />
<glyph unicode="&#x200c;" horiz-adv-x="45" d="M10 -80v1631h25v-1631h-25z" />
<glyph unicode="&#x200d;" horiz-adv-x="45" d="M-102 1427l109 109l-109 108l16 16l109 -108l109 108l16 -16l-109 -108l109 -109l-16 -16l-97 96v-1587h-25v1586l-96 -95z" />
<glyph unicode="&#x200e;" horiz-adv-x="45" d="M8 -80v1631h234l-93 93l17 17l125 -124q-32 -33 -62.5 -63.5l-62.5 -62.5l-17 17l97 97h-213v-1605h-25z" />
<glyph unicode="&#x200f;" horiz-adv-x="45" d="M-246 1537l125 124l17 -17l-93 -93h234v-1631h-25v1605h-213l97 -97l-17 -17q-32 32 -62.5 63t-62.5 63z" />
<glyph unicode="&#x2010;" horiz-adv-x="895" d="M82 446v211h731v-211h-731z" />
<glyph unicode="&#x2011;" horiz-adv-x="895" d="M82 446v211h731v-211h-731z" />
<glyph unicode="&#x2012;" horiz-adv-x="895" d="M82 446v211h731v-211h-731z" />
<glyph unicode="&#x2013;" horiz-adv-x="1126" d="M68 703v192h990v-192h-990z" />
<glyph unicode="&#x2014;" horiz-adv-x="2200" d="M123 446v211h1980v-211h-1980z" />
<glyph unicode="&#x2018;" horiz-adv-x="594" d="M72 1403l178 108l274 -401l-194 -119z" />
<glyph unicode="&#x2019;" horiz-adv-x="594" d="M68 1110l274 401l178 -108l-258 -412z" />
<glyph unicode="&#x201a;" horiz-adv-x="495" d="M123 300v226h249v-169q0 -135 -59 -211t-184 -102v90q78 24 107 72q18 33 24 94h-137z" />
<glyph unicode="&#x201c;" horiz-adv-x="1043" d="M82 1403l179 108l272 -401l-192 -119zM500 1403l178 108l275 -401l-193 -119z" />
<glyph unicode="&#x201d;" horiz-adv-x="1043" d="M81 1110l275 401l178 -108l-260 -412zM501 1110l272 401l179 -108l-259 -412z" />
<glyph unicode="&#x2022;" horiz-adv-x="923" d="M78 715q0 78 30 147.5t81.5 121.5t121.5 82t150 30q78 0 147.5 -30t121.5 -81.5t82 -121t30 -148.5q0 -78 -30 -147.5t-82 -122t-121.5 -83t-147.5 -30.5q-80 0 -150 30.5t-121.5 83t-81.5 122t-30 147.5z" />
<glyph unicode="&#x202f;" horiz-adv-x="426" />
<glyph unicode="&#x205f;" horiz-adv-x="533" />
<glyph unicode="&#x2122;" horiz-adv-x="1782" d="M78 1426v153h610v-153h-205v-576h-200v576h-205zM826 850v729h271l170 -605l165 605h271v-729h-187v664l-176 -664h-150l-177 661v-661h-187z" />
<glyph unicode="&#xe000;" horiz-adv-x="1245" d="M0 0v1245h1245v-1245h-1245z" />
<glyph unicode="&#xe820;" horiz-adv-x="408" d="M61 1032l17 91l340 193l-17 -91z" />
<glyph unicode="&#xe821;" horiz-adv-x="414" d="M-7 1047q61 25 105.5 43t79 36t62.5 39.5t56 54.5q-47 11 -69 34t-25.5 51t9 57.5t34 53.5t49.5 38.5t56 13.5q16 -1 25 -12.5t12.5 -29t2.5 -39t-3.5 -41.5t-6.5 -36.5t-7 -24.5l44 -13l-19 -80l-52 12q-11 -23 -37.5 -52.5t-62.5 -55t-78.5 -42.5t-85.5 -15 q-29 2 -47.5 3t-28.5 2t-12.5 1.5t-0.5 1.5zM259 1358q-2 -25 20 -37t51 -23q2 20 2 38q0 15 -2 28.5t-9 18.5v-2q-5 6 -12 8t-12 2q-17 2 -27 -8.5t-11 -24.5z" />
<glyph unicode="&#xe822;" horiz-adv-x="328" d="M56 1109q-5 33 3.5 75.5t27 81.5t46 67t59.5 33q28 4 54 -6.5t46.5 -28.5t34.5 -40.5t17 -41.5q5 -34 -10 -71.5t-41 -87.5v1q0 1 1 2l-3 -5h1h-1q-24 -14 -61.5 -26.5t-74 -15t-65 11t-34.5 51.5zM120 1196q3 -22 21 -32.5t42 -11t50 6.5t46 21l1 1q-3 14 -13.5 30 t-25 29.5t-31.5 22t-35 5.5q-30 -5 -44 -27t-11 -45zM292 1089h1h-1z" />
<glyph unicode="&#xe823;" horiz-adv-x="408" d="M51 1029l17 91l340 193l-17 -91zM65 1196l17 91l340 193l-17 -91z" />
<glyph unicode="&#xe824;" horiz-adv-x="469" d="M44 1194q19 27 44.5 43.5t50.5 22t47 -1t34 -24.5t10.5 -48t-23.5 -72q46 20 85.5 44t71.5 62q-41 10 -60.5 31.5t-22 47.5t8 53t30 49.5t44 36t49.5 12.5q21 -2 28 -24.5t6.5 -51t-6 -55.5t-8.5 -37l38 -12l-17 -76l-46 13q-6 -14 -19.5 -33.5t-32 -40t-40.5 -39.5 t-45.5 -31t-47.5 -15t-46 8t-24 31.5t3 42t10.5 42t-2 32t-34.5 10.5t-86 -20zM333 1348q-2 -11 3 -19t14 -14t20.5 -11.5t24.5 -11.5q2 19 2 35q0 14 -2.5 26.5t-7.5 16.5v-2q-10 10 -23 10q-14 1 -22.5 -8.5t-8.5 -21.5z" />
<glyph unicode="&#xe825;" horiz-adv-x="425" d="M57.5 1144.5q-1.5 27.5 2 53.5t10.5 47.5t14 31.5q0 -3 5 1t11.5 9t11.5 8.5t5 0.5q-8 -20 -13.5 -46.5t-3 -50t14 -39.5t37.5 -15q28 0 43.5 15.5t24 37t13 44.5t12.5 38q1 -3 5.5 0.5t9 8t9 8t5.5 0.5q-8 -29 -2.5 -54t19.5 -40t35.5 -18t46.5 14q6 9 5.5 22t-4.5 26.5 t-11 27t-14 23.5q13 18 24.5 34t22.5 32q11 -17 17.5 -36t11.5 -38q6 -33 3 -67t-15 -62t-33 -45.5t-51 -17.5q-25 0 -37.5 9t-27.5 23q-6 -10 -15 -23t-22 -25t-31 -21t-40 -11q-35 -3 -56 10t-31 35t-11.5 49.5z" />
<glyph unicode="&#xe826;" horiz-adv-x="408" d="M55 -341l17 91l340 193l-17 -91z" />
<glyph unicode="&#xe827;" horiz-adv-x="408" d="M38 -509l17 91l340 193l-17 -91zM65 -341l17 91l340 193l-17 -91z" />
<glyph unicode="&#xe828;" horiz-adv-x="425" d="M60 1259l17 91l340 193l-17 -91zM65 1140q0 21 4.5 39.5t9.5 29.5q0 -3 4.5 1.5t9.5 10.5t10 10.5t5 1.5q-5 -21 -7 -40t2 -32.5t17 -19t38 -0.5q28 5 41 23t17.5 40.5t5.5 46t6 39.5q1 -3 4.5 1t7.5 9t8 9.5t6 1.5q-3 -30 6.5 -54t26 -36.5t38 -11.5t42.5 21q4 10 2 23 t-8.5 25.5t-15.5 24.5t-18 21q5 10 14.5 15.5t20 10t20 9.5t15.5 13q5 -8 5.5 -12.5t-0.5 -8.5t-1.5 -8.5t3.5 -13.5q12 -32 14.5 -66t-5 -63.5t-25.5 -50.5t-47 -26q-25 -4 -39 3t-31 18q-4 -11 -10.5 -25.5t-18 -28.5t-27 -25.5t-37.5 -16.5q-34 -9 -56 -3.5t-35 20 t-17.5 35t-4.5 40.5z" />
<glyph unicode="&#xe829;" horiz-adv-x="425" d="M11 1347q60 20 103 34t77 28t61.5 31t54.5 43q-46 8 -67.5 26.5t-25 40.5t8.5 45t33 42t48.5 30.5t55.5 10.5q23 -1 31 -20t7.5 -43.5t-6.5 -47.5t-10 -33l43 -10l-19 -63l-50 10q-11 -18 -37 -41t-61.5 -43.5t-76.5 -34t-83 -11.5q-57 4 -75 4q-17 0 -12 2zM72.5 1188.5 q-0.5 26.5 3.5 48.5t9 33q0 -3 5 1.5t10.5 10.5t10 10t4.5 1q-5 -21 -6.5 -47.5t4 -49.5t19.5 -37.5t40 -9.5q28 5 41 23t18 40.5t6.5 45.5t6.5 39q1 -3 4.5 1t8 9t8 9.5t5.5 1.5q-3 -30 6 -54t25.5 -37t38 -12.5t43.5 20.5q4 10 2 23t-8.5 26t-15 25t-17.5 21 q11 20 19.5 37.5t17.5 34.5q13 -15 22.5 -33t17.5 -36q11 -32 13 -66t-6 -63.5t-26.5 -50t-47.5 -24.5q-25 -4 -38.5 3t-30.5 19q-4 -11 -11 -25t-18.5 -28t-27.5 -25.5t-38 -16.5q-34 -8 -56.5 1.5t-36 29.5t-19 47.5t-6 54zM271 1592q-2 -20 19 -29.5t50 -17.5q2 16 2 30 q0 11 -2 22t-9 14v-1q-5 5 -11.5 6.5t-11.5 1.5q-17 1 -26.5 -7t-10.5 -19z" />
<glyph unicode="&#xe82a;" horiz-adv-x="425" d="M70 1154q0 31 22 101l23 4q0 -111 39 -111q28 0 57 48q28 48 33 114l19 6q24 -98 61 -98q24 0 44 42q20 45 20 105l22 11q15 -51 15 -99q0 -76 -29.5 -121t-75.5 -45q-21 0 -64 21q-38 -87 -108 -87q-78 0 -78 109zM74 1283q0 45 12 65q12 16 54 42l272 160q0 -46 -8 -65 q-7 -16 -41 -36zM74 1433q0 45 12 65t54 44l272 159q0 -46 -8 -65q-7 -17 -41 -37z" />
<glyph unicode="&#xe82b;" horiz-adv-x="468" d="M40 1475q20 23 46.5 37.5t53 18.5t49.5 -1.5t35.5 -20.5t11 -40.5t-24.5 -61.5q48 17 89.5 38t75.5 53q-43 9 -63 27t-23.5 40t8 45t31.5 41.5t46 30t52 10.5q22 -2 29.5 -21t7 -43t-6 -46.5t-9.5 -31.5l40 -10l-18 -65l-48 11q-7 -12 -21 -28.5t-33 -34t-42 -33t-48 -26 t-50 -13t-48 6.5q-23 10 -25 27t3 36t11 36t-2 26.5t-36 9t-91 -17.5zM84.5 1188.5q-0.5 26.5 3.5 49t9 33.5q1 -2 5.5 3t10 10.5t10 9.5t4.5 1q-5 -21 -6.5 -47.5t4 -49.5t19.5 -37.5t40 -9.5q28 5 41 23t18 40.5t6.5 45.5t6.5 39q1 -3 4.5 1t8 9t8 9.5t5.5 1.5 q-3 -30 6 -54t25.5 -37t38 -12.5t43.5 20.5q4 10 2 23t-8.5 26t-15 25t-17.5 21q11 20 19.5 37.5t17.5 34.5q13 -15 22.5 -33t17.5 -36q11 -32 13 -66t-6 -63.5t-26.5 -50t-47.5 -24.5q-25 -4 -38.5 3t-30.5 19q-4 -11 -11 -25t-18.5 -28t-27.5 -25.5t-38 -16.5 q-34 -8 -56.5 1.5t-36 29.5t-19 46.5t-6 53zM343 1606q-2 -10 3.5 -16.5t14.5 -11.5t21.5 -9.5t25.5 -9.5q2 17 2 30q0 11 -2 21.5t-8 14.5v-2q-5 5 -12 6.5t-12 1.5q-14 1 -23.5 -7t-9.5 -18z" />
<glyph unicode="&#xe82c;" horiz-adv-x="425" d="M61.5 1400.5q0.5 26.5 4.5 49t10 32.5q0 -3 4.5 1.5l10.5 10.5t10.5 10t4.5 1q-6 -21 -8 -48t3 -50t18.5 -37.5t39.5 -10.5q29 4 42.5 21t19 39.5t7 46t7.5 39.5q1 -3 5 0.5t8.5 9t8 9.5t5.5 1q-4 -29 4 -53.5t24 -38t37 -13.5q22 0 45 20q5 10 3 22.5t-8 25.5 t-14.5 25.5t-16.5 21.5q11 20 20 37t19 34q12 -15 21.5 -33.5t16.5 -36.5q10 -32 11 -66t-7.5 -63t-27.5 -49t-48 -24q-25 -3 -38.5 4t-30.5 20q-4 -11 -11.5 -25t-19 -27.5t-28 -24.5t-38.5 -16q-34 -7 -56.5 3t-35 31t-17.5 48t-4.5 53.5zM72 1031l17 91l340 193l-17 -91z " />
<glyph unicode="&#xe82d;" horiz-adv-x="425" d="M35 1007l33 75l350 141l-33 -75zM45 1112l33 75l350 141l-33 -75zM60.5 1413.5q0.5 26.5 5 49t9.5 32.5q0 -3 4.5 1.5l10.5 10.5t10.5 10t4.5 1q-6 -21 -8 -48t3 -50t18.5 -37.5t39.5 -10.5q29 4 42.5 21t19 39.5t7 46t7.5 39.5q1 -3 5 0.5t8.5 9t8 9.5t5.5 1 q-4 -29 4 -53.5t24 -38t37 -13.5q22 0 45 20q5 10 3 22.5t-8 25.5t-14.5 25.5t-16.5 21.5q11 20 20 37t19 34q12 -15 21.5 -33.5t16.5 -36.5q10 -32 11 -66t-7.5 -63t-27.5 -49t-48 -24q-25 -3 -38.5 4t-30.5 20q-4 -11 -11.5 -25t-19 -27.5t-28 -24.5t-38.5 -16 q-34 -7 -56.5 3t-35 31t-17.5 48t-4.5 53.5z" />
<glyph unicode="&#xe832;" horiz-adv-x="408" d="M10 1222q5 23 8 38.5t7 38.5q99 52 191.5 101.5t191.5 102.5l-14 -77q-97 -51 -192 -101.5t-192 -102.5z" />
<glyph unicode="&#xe833;" horiz-adv-x="408" d="M5 967q5 23 8 38.5t7 38.5q99 52 191.5 101.5t191.5 102.5l-14 -77q-97 -51 -192 -101.5t-192 -102.5z" />
<glyph unicode="&#xe834;" horiz-adv-x="566" d="M-32 1437q-5 35 4 80.5t28.5 86.5t48 71.5t62.5 35.5q28 4 55 -6.5t48.5 -29.5t36 -42.5t17.5 -44.5q6 -33 -11 -74t-44 -93q-14 -8 -32.5 -16t-39.5 -15t-43 -11t-42 -4q-32 0 -57.5 14t-30.5 48zM20 1531q5 -30 29.5 -43.5t56.5 -13.5l112 38q-4 17 -17 37.5t-31 38 t-39 27.5t-42 7q-19 -3 -33 -12.5t-23 -22t-12 -27.5t-1 -29z" />
<glyph unicode="&#xe835;" horiz-adv-x="420" d="M26.5 1068.5q-1.5 27.5 2 53.5t10.5 47.5t14 31.5q0 -3 5 1t11.5 9t11.5 8.5t5 0.5q-8 -20 -13.5 -46.5t-3 -50t14 -39.5t37.5 -15q28 0 43.5 15.5t24 37t13 44.5t12.5 38q1 -3 5.5 0.5t9 8t9 8t5.5 0.5q-8 -29 -2.5 -54t19.5 -40t35.5 -18t46.5 14q6 9 5.5 22t-4.5 26.5 t-11 27t-14 23.5q13 18 24.5 34t22.5 32q11 -17 17.5 -36t11.5 -38q6 -33 3 -67t-15 -62t-33 -45.5t-51 -17.5q-25 0 -37.5 9t-27.5 23q-6 -10 -15 -23t-22 -25t-31 -21t-40 -11q-35 -3 -56 10t-31 35t-11.5 49.5z" />
<glyph unicode="&#xe836;" horiz-adv-x="381" d="M-41.5 1495.5q-1.5 27.5 2 53.5t10.5 47.5t14 31.5q0 -3 5 1t11.5 9t11.5 8.5t5 0.5q-8 -20 -13.5 -46.5t-3 -50t14 -39.5t37.5 -15q28 0 43.5 15.5t24 37t13 44.5t12.5 38q1 -3 5.5 0.5t9 8t9 8t5.5 0.5q-8 -29 -2.5 -54t19.5 -40t35.5 -18t46.5 14q6 9 5.5 22 t-4.5 26.5t-11 27t-14 23.5q13 18 24.5 34t22.5 32q11 -17 17.5 -36t11.5 -38q6 -33 3 -67t-15 -62t-33 -45.5t-51 -17.5q-25 0 -37.5 9t-27.5 23q-6 -10 -15 -23t-22 -25t-31 -21t-40 -11q-35 -3 -56 10t-31 35t-11.5 49.5z" />
<glyph unicode="&#xfd3e;" horiz-adv-x="593" d="M112 98v1640h439v-172h-216v-1297h216v-171h-439z" />
<glyph unicode="&#xfd3f;" horiz-adv-x="593" d="M43 98v171h215v1297h-215v172h438v-1640h-438z" />
<glyph unicode="&#xfeff;" horiz-adv-x="744" />
</font>
</defs>
</svg>
