<?xml version="1.0" standalone="no"?>
<!DOCTYPE svg PUBLIC "-//W3C//DTD SVG 1.1//EN" "http://www.w3.org/Graphics/SVG/1.1/DTD/svg11.dtd" >
<svg xmlns="http://www.w3.org/2000/svg">
<metadata></metadata>
<defs>
<font id="hacen_sudanregular" horiz-adv-x="991" >
<font-face units-per-em="2048" ascent="1638" descent="-410" />
<missing-glyph horiz-adv-x="435" />
<glyph unicode="&#x651;&#x64b;" horiz-adv-x="425" d="M50 1838l17 91l340 193l-17 -91zM61 1710l17 91l340 193l-17 -91zM66 1591q0 21 4.5 39.5t9.5 29.5q0 -3 4.5 1.5t9.5 10.5t10 10.5t5 1.5q-5 -21 -7 -40t2 -32.5t17 -19t38 -0.5q28 5 41 23t17.5 40.5t5.5 46t6 39.5q1 -3 4.5 1t7.5 9t8 9.5t6 1.5q-3 -30 6.5 -54 t26 -36.5t38 -11.5t42.5 21q4 10 2 23t-8.5 25.5t-15.5 24.5t-18 21q5 10 14.5 15.5t20 10t20 9.5t15.5 13q5 -8 5.5 -12.5t-0.5 -8.5t-1.5 -8.5t3.5 -13.5q12 -32 14.5 -66t-5 -63.5t-25.5 -50.5t-47 -26q-25 -4 -39 3t-31 18q-4 -11 -10.5 -25.5t-18 -28.5t-27 -25.5 t-37.5 -16.5q-34 -9 -56 -3.5t-35 20t-17.5 35t-4.5 40.5z" />
<glyph unicode="&#x651;&#x64c;" horiz-adv-x="484" arabic-form="isolated" d="M43 1917q20 23 46.5 37.5t53 18.5t49.5 -1.5t35.5 -20.5t10.5 -40.5t-24 -61.5q48 17 89.5 38t75.5 53q-43 9 -63 27t-23.5 40t8 45t31.5 41.5t46 30t52 10.5q22 -2 29.5 -21t7 -43t-6 -46.5t-9.5 -31.5l40 -10l-18 -65l-48 11q-7 -12 -21 -28.5t-33 -34t-42 -33t-48 -26 t-50 -13t-48 6.5q-23 10 -25 27t3 36t11 36t-2 26.5t-36.5 9t-90.5 -17.5zM87.5 1630.5q-0.5 26.5 3.5 49t9 33.5q1 -2 5.5 3t10 10.5t10 9.5t4.5 1q-5 -21 -6.5 -47.5t4 -49.5t19.5 -37.5t40 -9.5q28 5 41 23t18 40.5t6.5 45.5t6.5 39q1 -3 4.5 1t8 9t8 9.5t5.5 1.5 q-3 -30 6 -54t25.5 -37t38 -12.5t43.5 20.5q4 10 2 23t-8.5 26t-15 25t-17.5 21q11 20 19.5 37.5t17.5 34.5q13 -15 22.5 -33t17.5 -36q11 -32 13 -66t-6 -63.5t-26.5 -50t-47.5 -24.5q-25 -4 -38.5 3t-30.5 19q-4 -11 -11 -25t-18.5 -28t-27.5 -25.5t-38 -16.5 q-34 -8 -56.5 1.5t-36 29.5t-19 46.5t-6 53zM346 2048q-2 -10 3.5 -16.5t14.5 -11.5t21.5 -9.5t25.5 -9.5q2 17 2 30q0 11 -2 21.5t-8 14.5v-2q-5 5 -12 6.5t-12 1.5q-14 1 -23.5 -7t-9.5 -18z" />
<glyph unicode="&#x651;&#x64d;" horiz-adv-x="425" arabic-form="isolated" d="M31 1438l33 75l350 141l-33 -75zM41 1543l33 75l350 141l-33 -75zM56.5 1844.5q0.5 26.5 4.5 49t10 32.5q0 -3 4.5 1.5l10.5 10.5t10.5 10t4.5 1q-6 -21 -8 -48t3 -50t18.5 -37.5t39.5 -10.5q29 4 42.5 21t19 39.5t7 46t7.5 39.5q1 -3 5 0.5t8.5 9t8 9.5t5.5 1 q-4 -29 4 -53.5t24 -38t37 -13.5q22 0 45 20q5 10 3 22.5t-8 25.5t-14.5 25.5t-16.5 21.5q11 20 20 37t19 34q12 -15 21.5 -33.5t16.5 -36.5q10 -32 11 -66t-7.5 -63t-27.5 -49t-48 -24q-25 -3 -38.5 4t-30.5 20q-4 -11 -11.5 -25t-19 -27.5t-28 -24.5t-38.5 -16 q-34 -7 -56.5 3t-35 31t-17.5 48t-4.5 53.5z" />
<glyph unicode="&#x651;&#x64e;" horiz-adv-x="425" arabic-form="isolated" d="M61 1710l17 91l340 193l-17 -91zM66 1591q0 21 4.5 39.5t9.5 29.5q0 -3 4.5 1.5t9.5 10.5t10 10.5t5 1.5q-5 -21 -7 -40t2 -32.5t17 -19t38 -0.5q28 5 41 23t17.5 40.5t5.5 46t6 39.5q1 -3 4.5 1t7.5 9t8 9.5t6 1.5q-3 -30 6.5 -54t26 -36.5t38 -11.5t42.5 21q4 10 2 23 t-8.5 25.5t-15.5 24.5t-18 21q5 10 14.5 15.5t20 10t20 9.5t15.5 13q5 -8 5.5 -12.5t-0.5 -8.5t-1.5 -8.5t3.5 -13.5q12 -32 14.5 -66t-5 -63.5t-25.5 -50.5t-47 -26q-25 -4 -39 3t-31 18q-4 -11 -10.5 -25.5t-18 -28.5t-27 -25.5t-37.5 -16.5q-34 -9 -56 -3.5t-35 20 t-17.5 35t-4.5 40.5z" />
<glyph unicode="&#x651;&#x64f;" horiz-adv-x="437" arabic-form="isolated" d="M2 1791q60 20 103 34t77 28t61.5 31t54.5 43q-46 8 -67.5 26.5t-25 40.5t8.5 45t33 42t48.5 30.5t55.5 10.5q23 -1 31 -20t7.5 -43.5t-6.5 -47.5t-10 -33l43 -10l-19 -63l-50 10q-11 -18 -37 -41t-61.5 -43.5t-76.5 -34t-83 -11.5q-57 4 -75 4q-17 0 -12 2zM63.5 1632.5 q-0.5 26.5 3.5 48.5t9 33q0 -3 5 1.5t10.5 10.5t10 10t4.5 1q-5 -21 -6.5 -47.5t4 -49.5t19.5 -37.5t40 -9.5q28 5 41 23t18 40.5t6.5 45.5t6.5 39q1 -3 4.5 1t8 9t8 9.5t5.5 1.5q-3 -30 6 -54t25.5 -37t38 -12.5t43.5 20.5q4 10 2 23t-8.5 26t-15 25t-17.5 21 q11 20 19.5 37.5t17.5 34.5q13 -15 22.5 -33t17.5 -36q11 -32 13 -66t-6 -63.5t-26.5 -50t-47.5 -24.5q-25 -4 -38.5 3t-30.5 19q-4 -11 -11 -25t-18.5 -28t-27.5 -25.5t-38 -16.5q-34 -8 -56.5 1.5t-36 29.5t-19 47.5t-6 54zM262 2036q-2 -20 19 -29.5t50 -17.5q2 16 2 30 q0 11 -2 22t-9 14v-1q-5 5 -11.5 6.5t-11.5 1.5q-17 1 -26.5 -7t-10.5 -19z" />
<glyph unicode="&#x651;&#x650;" horiz-adv-x="425" arabic-form="isolated" d="M71.5 1766.5q0.5 26.5 4.5 48.5t10 33q0 -3 4.5 1.5l10.5 10.5t10.5 10t4.5 1q-6 -21 -8 -48t3 -50t18.5 -37.5t39.5 -10.5q29 4 42.5 21t19 39.5t7 46t7.5 39.5q1 -3 5 0.5t8.5 9t8 9.5t5.5 1q-4 -29 4 -53.5t24 -38t37 -13.5q22 0 45 20q5 10 3 22.5t-8 25.5 t-14.5 25.5t-16.5 21.5q11 20 20 37t19 34q12 -15 21.5 -33.5t16.5 -36.5q10 -32 11 -66t-7.5 -63t-27.5 -49t-48 -24q-25 -3 -38.5 4t-30.5 20q-4 -11 -11.5 -25t-19 -27.5t-28 -24.5t-38.5 -16q-34 -7 -56.5 3t-35 31t-17.5 48t-4.5 53.5zM82 1397l17 91l340 193l-17 -91z " />
<glyph unicode="&#x640;&#x651;&#x64e;" horiz-adv-x="375" arabic-form="medial" d="M-39 1077l17 91l340 193l-17 -91zM-34 958q0 21 4.5 39.5t9.5 29.5q0 -3 4.5 1.5t9.5 10.5t10 10.5t5 1.5q-5 -21 -7 -40t2 -32.5t17 -19t38 -0.5q28 5 41 23t17.5 40.5t5.5 46t6 39.5q1 -3 4.5 1t7.5 9t8 9.5t6 1.5q-3 -30 6.5 -54t26 -36.5t38 -11.5t42.5 21q4 10 2 23 t-8.5 25.5t-15.5 24.5t-18 21q5 10 14.5 15.5t20 10t20 9.5t15.5 13q5 -8 5.5 -12.5t-0.5 -8.5t-1.5 -8.5t3.5 -13.5q12 -32 14.5 -66t-5 -63.5t-25.5 -50.5t-47 -26q-25 -4 -39 3t-31 18q-4 -11 -10.5 -25.5t-18 -28.5t-27 -25.5t-37.5 -16.5q-34 -9 -56 -3.5t-35 20 t-17.5 35t-4.5 40.5z" />
<glyph unicode="&#x640;&#x651;&#x64f;" horiz-adv-x="480" arabic-form="medial" d="M-5 1183q60 20 103 34t77 28t61.5 31t54.5 43q-46 8 -67.5 26.5t-25 40.5t8.5 45t33 42t48.5 30.5t55.5 10.5q23 -1 31 -20t7.5 -43.5t-6.5 -47.5t-10 -33l43 -10l-19 -63l-50 10q-11 -18 -37 -41t-61.5 -43.5t-76.5 -34t-83 -11.5q-57 4 -75 4q-17 0 -12 2zM56.5 1024.5 q-0.5 26.5 3.5 48.5t9 33q0 -3 5 1.5t10.5 10.5t10 10t4.5 1q-5 -21 -6.5 -47.5t4 -49.5t19.5 -37.5t40 -9.5q28 5 41 23t18 40.5t6.5 45.5t6.5 39q1 -3 4.5 1t8 9t8 9.5t5.5 1.5q-3 -30 6 -54t25.5 -37t38 -12.5t43.5 20.5q4 10 2 23t-8.5 26t-15 25t-17.5 21 q11 20 19.5 37.5t17.5 34.5q13 -15 22.5 -33t17.5 -36q11 -32 13 -66t-6 -63.5t-26.5 -50t-47.5 -24.5q-25 -4 -38.5 3t-30.5 19q-4 -11 -11 -25t-18.5 -28t-27.5 -25.5t-38 -16.5q-34 -8 -56.5 1.5t-36 29.5t-19 47.5t-6 54zM255 1428q-2 -20 19 -29.5t50 -17.5q2 16 2 30 q0 11 -2 22t-9 14v-1q-5 5 -11.5 6.5t-11.5 1.5q-17 1 -26.5 -7t-10.5 -19z" />
<glyph unicode="&#xfedf;&#xfee0;&#xfeea;" horiz-adv-x="2570" arabic-form="isolated" d="M25 810q0 79 21.5 151.5t60 135.5t92.5 114t119 85.5t139 51t153 10.5q114 -12 197.5 -48t142.5 -91t97.5 -125t64 -149t41.5 -164t30 -170q5 -30 10 -59l10 -58l74 -1v1h250q72 88 108.5 214.5t36.5 282.5q0 99 -15 207q-5 32 -11 56t-14 57l208 76q9 -39 16.5 -78.5 t12.5 -79.5q8 -62 13 -121t5 -116q-1 -143 -27.5 -268t-78.5 -230h334q72 88 108.5 214.5t36.5 282.5q0 99 -15 207q-16 103 -44 206.5t-67 203.5l200 77h1q43 -115 74.5 -226.5t47.5 -229.5q8 -62 13 -121t5 -116q0 -106 -15.5 -204t-45 -184.5t-73.5 -160.5t-102 -132 l-32 -32h-930l-161 1q-37 0 -66 22.5t-38 59.5q-13 54 -22 107t-18 108q-11 65 -23 130.5t-30 126t-44.5 114t-65.5 95t-93 68.5t-128 35q-72 2 -135 -23.5t-110.5 -71.5t-75 -108.5t-27.5 -132.5q0 -69 26.5 -130t72 -106.5t106.5 -72t130 -26.5q63 0 115.5 20.5t98.5 56.5 l137 -165v-1q-77 -60 -163.5 -93t-187.5 -33q-114 0 -214.5 43.5t-175 118t-117.5 174.5t-43 214zM1378 1618l94 26q8 -42 25.5 -65t37.5 -31t39.5 -3t31.5 20.5t14 39t-12 52.5q11 6 25.5 14.5t28 16t23.5 13t11 7.5q12 -41 28 -62t31.5 -25.5t29 4.5t19 26.5t2 42 t-20.5 50.5l86 60q22 -27 32.5 -66.5t7.5 -80.5t-18.5 -78t-44.5 -59t-71.5 -24.5t-98.5 26.5q-27 -56 -60.5 -83.5t-68 -32.5t-66.5 10t-56.5 44t-38 70t-10.5 88z" />
<glyph unicode="&#x640;&#x64e;" horiz-adv-x="448" arabic-form="medial" d="M13 952q5 24 8 39.5t7 37.5q99 52 191.5 101.5t191.5 102.5l-15 -76q-97 -52 -191.5 -102.5t-191.5 -102.5z" />
<glyph unicode="&#x640;&#x64f;" horiz-adv-x="490" arabic-form="medial" d="M7 1064q61 25 105.5 43t79 36t62.5 39.5t56 54.5q-47 11 -69 34t-25.5 51t9 57.5t34 53.5t49.5 39t56 13q16 -1 25 -12.5t12.5 -29t2.5 -39t-3.5 -41.5t-6.5 -36.5t-7 -24.5l44 -13l-19 -80l-52 12q-11 -23 -37.5 -52.5t-62.5 -55t-78.5 -42.5t-85.5 -15q-29 2 -47.5 3 t-28.5 2t-12.5 1.5t-0.5 1.5zM273 1375q-2 -25 20 -37t51 -23q2 20 2 38q0 15 -2 28.5t-9 18.5v-2q-5 6 -12 8t-12 2q-17 2 -27 -8.5t-11 -24.5z" />
<glyph unicode="&#x640;&#x650;" horiz-adv-x="669" arabic-form="medial" d="M9 301q5 23 8 39t7 38q99 52 191.5 101.5t191.5 102.5l-15 -76q-97 -52 -191.5 -102.5t-191.5 -102.5z" />
<glyph unicode="&#x640;&#x651;" horiz-adv-x="448" arabic-form="medial" d="M47.5 1073.5q-1.5 27.5 2 53.5t10.5 47.5t14 31.5q0 -3 5 1t11.5 9t11.5 8.5t5 0.5q-8 -20 -13.5 -46.5t-3 -50t14 -39.5t37.5 -15q28 0 43.5 15.5t24 37t13 44.5t12.5 38q1 -3 5.5 0.5t9 8t9 8t5.5 0.5q-8 -29 -2.5 -54t19.5 -40t35.5 -18t46.5 14q6 9 5.5 22t-4.5 26.5 t-11 27t-14 23.5q13 18 24.5 34t22.5 32q11 -17 17.5 -36t11.5 -38q6 -33 3 -67t-15 -62t-33 -45.5t-51 -17.5q-25 0 -37.5 9t-27.5 23q-6 -10 -15 -23t-22 -25t-31 -21t-40 -11q-35 -3 -56 10t-31 35t-11.5 49.5z" />
<glyph unicode="&#xfedf;&#xfe82;" horiz-adv-x="1314" arabic-form="isolated" d="M-2 1412q-7 94 59.5 183.5t271.5 27.5t302 77q-32 -283 -279 -206.5t-354 -81.5zM109 1433q35 18 65.5 22t59 -0.5t56.5 -13.5t58 -15.5t63 -8t72 9.5q88 -86 161.5 -191.5t130.5 -220t96.5 -234.5t59.5 -234q47 75 76 175q48 175 25.5 402t-122.5 484l200 77 q113 -291 136.5 -551.5t-33.5 -468.5q-48 -178 -153 -304q-108 -131 -268 -194q-118 -45 -260.5 -48.5t-311.5 42.5l58 207q133 -37 241.5 -35.5t195.5 34.5q5 2 9 4t9 4q-3 108 -32.5 229t-81.5 240.5t-124 230.5t-162 200q-50 48 -105.5 88.5t-118.5 69.5z" />
<glyph unicode="&#xfee0;&#xfe82;" horiz-adv-x="1371" arabic-form="final" d="M-2 1412q-7 94 59.5 183.5t271.5 27.5t302 77q-32 -283 -279 -206.5t-354 -81.5zM109 1433q35 18 65.5 22t59 -0.5t56.5 -13.5t58 -15.5t63 -8t72 9.5q88 -86 161.5 -191.5t130.5 -220t96.5 -234.5t59.5 -234q47 75 76 175q48 175 25.5 402t-122.5 484l200 77 q113 -291 136.5 -551.5t-33.5 -468.5q-26 -93 -66 -171h229v-215h-397q-42 -35 -88 -63.5t-99 -48.5q-118 -45 -260.5 -48.5t-311.5 42.5l58 207q133 -37 241.5 -35.5t195.5 34.5q5 2 9 4t9 4q-3 108 -32.5 229t-81.5 240.5t-124 230.5t-162 200q-50 48 -105.5 88.5 t-118.5 69.5z" />
<glyph unicode="&#xfedf;&#xfe84;" horiz-adv-x="1314" arabic-form="isolated" d="M25 1464l58 207q116 -33 214.5 -96t185.5 -148q88 -86 161.5 -191.5t130.5 -220t96.5 -234.5t59.5 -234q47 75 76 175q48 175 25.5 402t-122.5 484l200 77q113 -291 136.5 -551.5t-33.5 -468.5q-48 -178 -153 -304q-108 -131 -268 -194q-118 -45 -260.5 -48.5 t-311.5 42.5l58 207q133 -37 241.5 -35.5t195.5 34.5q5 2 9 4t9 4q-3 108 -32.5 229t-81.5 240.5t-124 230.5t-162 200q-66 65 -143 114.5t-165 74.5zM87 1751v88h48q-5 11 -8 25t-3 26q0 29 11 54.5t30.5 44.5t45.5 30t55 11q24 0 46 -8.5t40.5 -23.5t32 -35.5t20.5 -44.5 l-83 -23q-7 20 -22 33.5t-34 13.5q-22 0 -38 -15t-16 -37q0 -20 14.5 -35t35.5 -16h145v-88h-320z" />
<glyph unicode="&#xfee0;&#xfe84;" horiz-adv-x="1361" arabic-form="final" d="M25 1464l58 207q116 -33 214.5 -96t185.5 -148q88 -86 161.5 -191.5t130.5 -220t96.5 -234.5t59.5 -234q47 75 76 175q48 175 25.5 402t-122.5 484l200 77q113 -291 136.5 -551.5t-33.5 -468.5q-26 -93 -66 -171h219v-215h-387q-42 -35 -88 -63.5t-99 -48.5 q-118 -45 -260.5 -48.5t-311.5 42.5l58 207q133 -37 241.5 -35.5t195.5 34.5q5 2 9 4t9 4q-3 108 -32.5 229t-81.5 240.5t-124 230.5t-162 200q-66 65 -143 114.5t-165 74.5zM87 1751v88h48q-5 11 -8 25t-3 26q0 29 11 54.5t30.5 44.5t45.5 30t55 11q24 0 46 -8.5 t40.5 -23.5t32 -35.5t20.5 -44.5l-83 -23q-7 20 -22 33.5t-34 13.5q-22 0 -38 -15t-16 -37q0 -20 14.5 -35t35.5 -16h145v-88h-320z" />
<glyph unicode="&#xfedf;&#xfe88;" horiz-adv-x="1314" arabic-form="isolated" d="M25 1464l58 207q116 -33 214.5 -96t185.5 -148q88 -86 161.5 -191.5t130.5 -220t96.5 -234.5t59.5 -234q47 75 76 175q48 175 25.5 402t-122.5 484l200 77q113 -291 136.5 -551.5t-33.5 -468.5q-48 -178 -153 -304q-108 -131 -268 -194q-118 -45 -260.5 -48.5 t-311.5 42.5l58 207q133 -37 241.5 -35.5t195.5 34.5q5 2 9 4t9 4q-3 108 -32.5 229t-81.5 240.5t-124 230.5t-162 200q-66 65 -143 114.5t-165 74.5zM81 -162h48q-5 11 -8 25t-3 26q0 29 11 54.5t30.5 44.5t45.5 30t55 11q24 0 46 -8.5t40.5 -23.5t32 -35.5t20.5 -44.5 l-83 -23q-7 20 -22 33.5t-34 13.5q-22 0 -38 -15t-16 -37q0 -20 14.5 -35t35.5 -16h145v-88h-320v88z" />
<glyph unicode="&#xfee0;&#xfe88;" horiz-adv-x="1361" arabic-form="final" d="M25 1464l58 207q116 -33 214.5 -96t185.5 -148q88 -86 161.5 -191.5t130.5 -220t96.5 -234.5t59.5 -234q47 75 76 175q48 175 25.5 402t-122.5 484l200 77q113 -291 136.5 -551.5t-33.5 -468.5q-26 -93 -66 -171h219v-215h-387q-42 -35 -88 -63.5t-99 -48.5 q-118 -45 -260.5 -48.5t-311.5 42.5l58 207q133 -37 241.5 -35.5t195.5 34.5q5 2 9 4t9 4q-3 108 -32.5 229t-81.5 240.5t-124 230.5t-162 200q-66 65 -143 114.5t-165 74.5zM81 -162h48q-5 11 -8 25t-3 26q0 29 11 54.5t30.5 44.5t45.5 30t55 11q24 0 46 -8.5t40.5 -23.5 t32 -35.5t20.5 -44.5l-83 -23q-7 20 -22 33.5t-34 13.5q-22 0 -38 -15t-16 -37q0 -20 14.5 -35t35.5 -16h145v-88h-320v88z" />
<glyph unicode="&#xfedf;&#xfe8e;" horiz-adv-x="1314" arabic-form="isolated" d="M25 1464l58 207q116 -33 214.5 -96t185.5 -148q88 -86 161.5 -191.5t130.5 -220t96.5 -234.5t59.5 -234q47 75 76 175q48 175 25.5 402t-122.5 484l200 77q113 -291 136.5 -551.5t-33.5 -468.5q-48 -178 -153 -304q-108 -131 -268 -194q-118 -45 -260.5 -48.5 t-311.5 42.5l58 207q133 -37 241.5 -35.5t195.5 34.5q5 2 9 4t9 4q-3 108 -32.5 229t-81.5 240.5t-124 230.5t-162 200q-66 65 -143 114.5t-165 74.5z" />
<glyph unicode="&#xfee0;&#xfe8e;" horiz-adv-x="1361" arabic-form="final" d="M25 1464l58 207q116 -33 214.5 -96t185.5 -148q88 -86 161.5 -191.5t130.5 -220t96.5 -234.5t59.5 -234q47 75 76 175q48 175 25.5 402t-122.5 484l200 77q113 -291 136.5 -551.5t-33.5 -468.5q-26 -93 -66 -171h219v-215h-387q-42 -35 -88 -63.5t-99 -48.5 q-118 -45 -260.5 -48.5t-311.5 42.5l58 207q133 -37 241.5 -35.5t195.5 34.5q5 2 9 4t9 4q-3 108 -32.5 229t-81.5 240.5t-124 230.5t-162 200q-66 65 -143 114.5t-165 74.5z" />
<glyph unicode="&#xfcf4;" horiz-adv-x="532" arabic-form="medial" d="M71 1021q61 25 105.5 43t79 36t62.5 39.5t56 54.5q-47 11 -69 34t-25.5 51t9 57.5t34 53.5t49.5 38.5t56 13.5q16 -1 25 -12.5t12.5 -29t2.5 -39t-3.5 -41.5t-6.5 -36.5t-7 -24.5l44 -13l-19 -80l-52 12q-11 -23 -37.5 -52.5t-62.5 -55t-78.5 -42.5t-85.5 -15 q-29 2 -47.5 3t-28.5 2t-12.5 1.5t-0.5 1.5zM337 1332q-2 -25 20 -37t51 -23q2 20 2 38q0 15 -2 28.5t-9 18.5v-2q-5 6 -12 8t-12 2q-17 2 -27 -8.5t-11 -24.5z" />
<glyph unicode="&#xfe70;" horiz-adv-x="408" arabic-form="isolated" d="M49 1482l17 91l340 193l-17 -91zM63 1649l17 91l340 193l-17 -91z" />
<glyph unicode="&#xfe71;" horiz-adv-x="669" arabic-form="medial" d="M1 949q5 23 8 39t7 38q99 52 191.5 101.5t191.5 102.5l-16 -76q-97 -52 -191 -102.5t-191 -102.5zM33 1140q5 23 8.5 38.5t7.5 38.5q99 52 191 101.5t191 102.5l-15 -76q-97 -52 -191.5 -102.5t-191.5 -102.5z" />
<glyph unicode="&#xfe72;" horiz-adv-x="469" arabic-form="isolated" d="M45 1619q19 27 44.5 43.5t50.5 22t47 -1t34 -24.5t10.5 -48t-23.5 -72q46 20 85.5 44t71.5 62q-41 10 -60.5 31.5t-22 47.5t8 53t30 49.5t44 36t49.5 12.5q21 -2 28 -24.5t6.5 -51t-6 -55.5t-8.5 -37l38 -12l-17 -76l-46 13q-6 -14 -19.5 -33.5t-32 -40t-40.5 -39.5 t-45.5 -31t-47.5 -15t-46 8t-24 31.5t3 42t10.5 42t-2 32t-34.5 10.5t-86 -20zM334 1773q-2 -11 3 -19t14 -14t20.5 -11.5t24.5 -11.5q2 19 2 35q0 14 -2.5 26.5t-7.5 16.5v-2q-10 10 -23 10q-14 1 -22.5 -8.5t-8.5 -21.5z" />
<glyph unicode="&#xfe74;" horiz-adv-x="408" arabic-form="isolated" d="M1 -288q5 23 8 38.5t7 38.5q99 52 191.5 101.5t191.5 102.5l-15 -76q-97 -52 -191.5 -102.5t-191.5 -102.5zM33 -98q5 24 8.5 39.5t7.5 38.5q99 52 191 101t191 102l-15 -76q-97 -52 -191.5 -102.5t-191.5 -102.5z" />
<glyph unicode="&#xfe76;" horiz-adv-x="408" arabic-form="isolated" d="M13 1378q5 24 8 39.5t7 37.5q99 52 191.5 101.5t191.5 102.5l-15 -76q-97 -52 -191.5 -102.5t-191.5 -102.5z" />
<glyph unicode="&#xfe78;" horiz-adv-x="414" arabic-form="isolated" d="M13 1507q61 25 105.5 43t79 36t62.5 39.5t56 54.5q-47 11 -69 34t-25.5 51t9 57.5t34 53.5t49.5 38.5t56 13.5q16 -1 25 -12.5t12.5 -29t2.5 -39t-3.5 -41.5t-6.5 -36.5t-7 -24.5l44 -13l-19 -80l-52 12q-11 -23 -37.5 -52.5t-62.5 -55t-78.5 -42.5t-85.5 -15 q-29 2 -47.5 3t-28.5 2t-12.5 1.5t-0.5 1.5zM279 1818q-2 -25 20 -37t51 -23q2 20 2 38q0 15 -2 28.5t-9 18.5v-2q-5 6 -12 8t-12 2q-17 2 -27 -8.5t-11 -24.5z" />
<glyph unicode="&#xfe7a;" horiz-adv-x="408" arabic-form="isolated" d="M9 -568q5 23 8 39t7 38q99 52 191.5 101.5t191.5 102.5l-15 -76q-97 -52 -191.5 -102.5t-191.5 -102.5z" />
<glyph unicode="&#xfe7c;" horiz-adv-x="425" arabic-form="isolated" d="M59.5 1603.5q-1.5 27.5 2 53.5t10.5 47.5t14 31.5q0 -3 5 1t11.5 9t11.5 8.5t5 0.5q-8 -20 -13.5 -46.5t-3 -50t14 -39.5t37.5 -15q28 0 43.5 15.5t24 37t13 44.5t12.5 38q1 -3 5.5 0.5t9 8t9 8t5.5 0.5q-8 -29 -2.5 -54t19.5 -40t35.5 -18t46.5 14q6 9 5.5 22t-4.5 26.5 t-11 27t-14 23.5q13 18 24.5 34t22.5 32q11 -17 17.5 -36t11.5 -38q6 -33 3 -67t-15 -62t-33 -45.5t-51 -17.5q-25 0 -37.5 9t-27.5 23q-6 -10 -15 -23t-22 -25t-31 -21t-40 -11q-35 -3 -56 10t-31 35t-11.5 49.5z" />
<glyph unicode="&#xfe7e;" horiz-adv-x="328" arabic-form="isolated" d="M59 1556q-5 33 3.5 75.5t27 81.5t46 67t59.5 33q28 4 54 -6.5t46.5 -28.5t34.5 -40.5t17 -41.5q5 -34 -10 -71.5t-41 -87.5v1q0 1 1 2l-3 -5h1h-1q-24 -14 -61.5 -26.5t-74 -15t-65 11t-34.5 51.5zM123 1643q3 -22 21 -32.5t42 -11t50 6.5t46 21l1 1q-3 14 -13.5 30 t-25 29.5t-31.5 22t-35 5.5q-30 -5 -44 -27t-11 -45zM295 1536h1h-1z" />
<glyph unicode="&#xfe7f;" horiz-adv-x="2797" arabic-form="medial" d="M90 223v504h2611v-504h-2611zM161 1054q0 34 16.5 56.5t54.5 22.5q6 0 12 -0.5t13 -1.5q46 -5 92.5 -10t94.5 -5l80 179q8 37 25.5 64t46.5 27q10 0 19.5 -3.5t9.5 -17.5q0 -9 -8 -24.5t-17 -28.5l-97 -192q105 5 209 36t189 97q35 31 61.5 43.5t43.5 12.5q25 0 25 -21 q0 -19 -23 -47.5t-73 -54.5q-33 -34 -63 -72t-54 -82t-40 -96t-20 -115q0 -19 -15 -19q-12 0 -18 13.5t-6 45.5q0 73 22.5 140.5t56.5 124.5q-76 -25 -155 -36.5t-161 -11.5l-80 -160q-15 -31 -39 -54t-56 -23q-24 0 -50 18.5t-47 49t-35 68.5t-14 77zM200 1066 q0 -23 9.5 -52.5t25.5 -56t36 -45t40 -18.5q15 0 29 12t26 40l61 134q-108 3 -214 21q-13 -10 -13 -35zM879 873q0 7 2.5 15t6.5 17q18 40 49 76.5t68.5 64t77.5 44t76 16.5q27 0 48 -16t21 -52q0 -14 -9.5 -30.5t-27.5 -36.5q-20 -20 -35 -44.5t-15 -46.5q0 -15 9 -21.5 t23 -6.5q21 0 49.5 10t56.5 23t51.5 25.5t33.5 18.5q8 37 32.5 68.5t55.5 54.5t63.5 36.5t57.5 13.5q14 0 20 -5t6 -13q0 -10 -11 -20.5t-30 -12.5q-19 -7 -44 -19t-47.5 -30t-38 -41t-15.5 -52q0 -32 16.5 -45t42.5 -13t59 10t64.5 23.5t58 27.5t41.5 21q0 36 19 71 t48.5 62.5t66.5 44t73 16.5q22 0 36.5 -4.5t22 -11t10.5 -15t3 -15.5q0 -26 -29 -52t-67 -49t-74.5 -40.5t-52.5 -25.5q16 -23 41 -33.5t57 -10.5q30 0 64.5 8.5t70 23.5t70 35.5t64.5 43.5q19 14 38 32t40 33q4 3 13 8t19.5 10.5t21.5 9t20 3.5q15 0 15 -13q0 -5 -4 -16.5 t-10 -22.5q-16 -45 -25.5 -75t-11.5 -47q0 -5 6 -5q7 0 20 6.5t29.5 16t34 22t32.5 24.5q4 2 23 15t43 27.5t48 26.5t38 12q12 0 12 -12q-3 -29 -3 -57q0 -12 1 -24.5t4.5 -22t10 -15.5t17.5 -6q17 0 31 5.5t27 13.5t25.5 18t27.5 19l8 -21q-12 -9 -30 -25t-38.5 -31.5 t-42.5 -27t-42 -11.5q-15 0 -25 6t-15 15t-7 19t-2 19t1 18.5t1 17.5q0 11 -3.5 21t-14.5 10q-10 0 -27.5 -9.5t-38.5 -24t-45 -31t-48 -31t-46 -24.5t-40 -10q-11 2 -22 8t-11 19q0 23 4.5 44.5t18.5 62.5q0 1 -15.5 -10t-43 -28t-64 -37t-77 -37.5t-83 -29t-82.5 -11.5 q-41 0 -76.5 16.5t-49.5 46.5q-19 -8 -47.5 -22t-62 -27.5t-68.5 -23t-66 -9.5q-35 0 -61.5 16.5t-35.5 60.5q-21 -12 -45 -26t-49.5 -25.5t-50.5 -19.5t-49 -8q-31 0 -55.5 20.5t-43.5 65.5q-17 -12 -30 -20.5t-25.5 -15.5t-25.5 -12t-30 -11q-18 -6 -32 -6q-17 0 -33 11.5 t-16 33.5zM880 265h126v125h-126v-125zM928 880q41 0 77.5 16.5t68.5 42t59 57.5t50 63q-5 1 -10 1h-10q-36 0 -70.5 -17t-65 -43.5t-56 -58.5t-43.5 -61zM1103 265h91v320l318 -320h109v421h-91v-320l-313 320h-114v-421zM1709 265h430v76h-331v108h299v75h-299v87h322v75 h-421v-421zM1737 954q40 17 73.5 34t58.5 33t39 30t14 25q0 10 -8 15q-50 -5 -99 -38t-78 -99zM2202 609h183v-344h89v344h183v77h-455v-77z" />
<glyph unicode="&#x621;" horiz-adv-x="1147" arabic-form="isolated" d="M83 279v215h175q-26 45 -39.5 95.5t-13.5 105.5q0 85 33 161t90.5 132.5t134.5 89.5t165 33q71 0 136 -22.5t118.5 -62.5t93 -95.5t58.5 -121.5l-206 -59q-9 32 -28.5 59t-45.5 46.5t-58 30t-68 10.5q-43 0 -81 -16t-66.5 -43t-45 -63.5t-16.5 -78.5q0 -41 15.5 -76.5 t42 -62.5t62 -43.5t75.5 -18.5h434v-215h-965z" />
<glyph unicode="&#x622;" horiz-adv-x="500" arabic-form="isolated" d="M-34 1667q-7 94 59.5 183.5t271.5 27.5t302 77q-32 -283 -279 -206.5t-354 -81.5zM30 300q84 155 128.5 306.5t51.5 309.5q7 161 -26.5 331t-107.5 361l200 77q82 -212 119 -403t29 -374q-8 -185 -59 -359t-146 -350z" />
<glyph unicode="&#x622;" horiz-adv-x="532" arabic-form="final" d="M-34 1667q-7 94 59.5 183.5t271.5 27.5t302 77q-32 -283 -279 -206.5t-354 -81.5zM29 1613l204 67q34 -103 60 -194.5t44.5 -175t30.5 -161t19 -152.5q6 -62 8 -123t1 -123t-4 -125.5t-8 -131.5h158v-215h-391l10 116q7 84 12 160.5t7.5 147.5t0.5 139.5t-8 136.5 t-17 139t-28.5 148.5t-42 163t-56.5 183.5z" />
<glyph unicode="&#x623;" horiz-adv-x="500" arabic-form="isolated" d="M30 300q84 155 128.5 306.5t51.5 309.5q7 161 -26.5 331t-107.5 361l200 77q82 -212 119 -403t29 -374q-8 -185 -59 -359t-146 -350zM87 1751v88h48q-5 11 -8 25t-3 26q0 29 11 54.5t30.5 44.5t45.5 30t55 11q24 0 46 -8.5t40.5 -23.5t32 -35.5t20.5 -44.5l-83 -23 q-7 20 -22 33.5t-34 13.5q-22 0 -38 -15t-16 -37q0 -20 14.5 -35t35.5 -16h145v-88h-320z" />
<glyph unicode="&#x623;" horiz-adv-x="532" arabic-form="final" d="M29 1613l204 67q34 -103 60 -194.5t44.5 -175t30.5 -161t19 -152.5q6 -62 8 -123t1 -123t-4 -125.5t-8 -131.5h158v-215h-391l10 116q7 84 12 160.5t7.5 147.5t0.5 139.5t-8 136.5t-17 139t-28.5 148.5t-42 163t-56.5 183.5zM87 1751v88h48q-5 11 -8 25t-3 26 q0 29 11 54.5t30.5 44.5t45.5 30t55 11q24 0 46 -8.5t40.5 -23.5t32 -35.5t20.5 -44.5l-83 -23q-7 20 -22 33.5t-34 13.5q-22 0 -38 -15t-16 -37q0 -20 14.5 -35t35.5 -16h145v-88h-320z" />
<glyph unicode="&#x624;" horiz-adv-x="1194" arabic-form="isolated" d="M46 810q0 115 42.5 214.5t117.5 174.5t175 118t215 43t214 -43t174 -118t118 -174.5t43 -214.5q0 -141 -20.5 -258.5t-58 -213t-90 -170.5t-116.5 -131q-65 -57 -139 -95.5t-155 -62.5t-167.5 -34.5t-175.5 -10.5v215q71 0 139.5 7.5t132 25t120 46t104.5 70.5 q53 45 92 106q-50 -21 -104 -32.5t-111 -11.5q-115 0 -215 43t-175 118t-117.5 174.5t-42.5 214.5zM260 810q0 -69 26 -130t72 -107t107 -72t131 -26q69 0 130 26t106 72q46 46 72.5 107t26.5 130q0 70 -26.5 130.5t-72.5 106.5q-45 46 -106 72.5t-130 26.5 q-70 0 -131 -26.5t-107 -72.5t-72 -106.5t-26 -130.5zM348 1458v123h68q-6 16 -10.5 36t-4.5 37q0 40 16 76t43 63t63 42.5t77 15.5q34 0 65.5 -12t57 -33t45 -49.5t29.5 -62.5l-118 -33q-9 28 -30.5 47.5t-48.5 19.5q-31 0 -53 -22t-22 -52q0 -29 20 -50t51 -23h203v-123 h-451z" />
<glyph unicode="&#x624;" horiz-adv-x="1241" arabic-form="final" d="M39 810q0 114 43.5 214.5t118 175t174.5 117.5t214 43t214 -43t175 -117.5t118 -174.5t43 -215q0 -176 -32 -316h139v-215h-211q-35 -75 -80.5 -134.5t-100.5 -107.5q-65 -57 -139 -95.5t-155 -62.5t-167.5 -34.5t-175.5 -10.5v215q71 0 139.5 7.5t132 25t120 46 t104.5 70.5q42 36 74 81h-198q-114 0 -214 40t-175 111.5t-118 168.5t-43 211zM254 810q0 -69 26.5 -127t72 -100.5t106.5 -66t130 -23.5v1h298q18 66 27.5 144t10.5 172q0 69 -26.5 130t-72.5 107t-107 72.5t-130 26.5t-130 -26.5t-106.5 -72t-72 -107t-26.5 -130.5z M348 1458v123h68q-6 16 -10.5 36t-4.5 37q0 40 16 76t43 63t63 42.5t77 15.5q34 0 65.5 -12t57 -33t45 -49.5t29.5 -62.5l-118 -33q-9 28 -30.5 47.5t-48.5 19.5q-31 0 -53 -22t-22 -52q0 -29 20 -50t51 -23h203v-123h-451z" />
<glyph unicode="&#x625;" horiz-adv-x="500" arabic-form="isolated" d="M30 300q84 155 128.5 306.5t51.5 309.5q7 161 -26.5 331t-107.5 361l200 77q82 -212 119 -403t29 -374q-8 -185 -59 -359t-146 -350zM56 -76h48q-5 11 -8 25t-3 26q0 29 11 54.5t30.5 44.5t45.5 30t55 11q24 0 46 -8.5t40.5 -23.5t32 -35.5t20.5 -44.5l-83 -23 q-7 20 -22 33.5t-34 13.5q-22 0 -38 -15t-16 -37q0 -20 14.5 -35t35.5 -16h145v-88h-320v88z" />
<glyph unicode="&#x625;" horiz-adv-x="532" arabic-form="final" d="M29 1613l204 67q34 -103 60 -194.5t44.5 -175t30.5 -161t19 -152.5q6 -62 8 -123t1 -123t-4 -125.5t-8 -131.5h158v-215h-391l10 116q7 84 12 160.5t7.5 147.5t0.5 139.5t-8 136.5t-17 139t-28.5 148.5t-42 163t-56.5 183.5zM92 -35h48q-5 11 -8 25t-3 26q0 29 11 54.5 t30.5 44.5t45.5 30t55 11q24 0 46 -8.5t40.5 -23.5t32 -35.5t20.5 -44.5l-83 -23q-7 20 -22 33.5t-34 13.5q-22 0 -38 -15t-16 -37q0 -20 14.5 -35t35.5 -16h145v-88h-320v88z" />
<glyph unicode="&#x626;" horiz-adv-x="1496" arabic-form="isolated" d="M33.5 529q2.5 46 14 96.5t33.5 104t58 107.5q31 47 64 85t78 77l142 -161q-29 -26 -56.5 -56.5t-47.5 -62.5q-48 -72 -61.5 -138.5t-8.5 -117.5q9 -94 50 -157.5t104 -102.5q55 -35 121.5 -53t138.5 -23q75 -5 149.5 4t141.5 30q88 28 150 69.5t77 91.5q11 38 -6 66.5 t-51 50.5t-79 39t-88 32q-44 15 -84.5 30.5t-75 35t-60.5 44.5t-41 61q-27 66 -27.5 137.5t24.5 141.5q34 96 107 174q36 38 81.5 69.5t99.5 54.5q49 20 104 31.5t116.5 12.5t128 -10t137.5 -36l-71 -203q-102 35 -185 34t-147 -27q-33 -14 -60 -32.5t-48 -41.5 q-43 -44 -61 -96q-11 -34 -12 -66.5t11 -60.5q1 -2 12 -6.5t29.5 -11t42 -14.5t49.5 -17q51 -18 104 -37.5t100.5 -45t86 -58.5t61 -77.5t26 -102t-18.5 -132.5q-16 -53 -50 -99t-82 -84.5t-108 -69.5t-128 -52q-85 -26 -179 -38t-189 -6q-97 7 -189.5 33t-171.5 76 q-51 33 -94.5 75t-76.5 94t-54.5 115t-28.5 138q-4 40 -1.5 86zM81 1126v123h68q-6 16 -10.5 36t-4.5 37q0 40 16 76t43 63t63 42.5t77 15.5q34 0 65.5 -12t57 -33t45 -49.5t29.5 -62.5l-118 -33q-9 28 -30.5 47.5t-48.5 19.5q-31 0 -53 -22t-22 -52q0 -29 20 -50t51 -23 h203v-123h-451z" />
<glyph unicode="&#x626;" horiz-adv-x="1658" arabic-form="final" d="M49 443q-6 71 4 140q7 48 24 99.5t45.5 104.5t71 106.5t101.5 105.5l142 -161q-42 -37 -72.5 -74.5t-51 -74.5t-32 -72t-16.5 -67q-4 -22 -4.5 -43.5t1.5 -43.5q7 -72 35.5 -127.5t72 -95t99 -65t117.5 -37.5q55 -11 112 -13t113.5 4t110 19t100.5 32q39 16 71.5 35.5 t56 41t36.5 44.5t12 47q-2 39 -37.5 86t-116.5 102l-78 50l122 175q27 -15 45 -27.5t46 -28.5q31 -19 69 -42.5t77 -47t76.5 -45.5t67.5 -39t50 -27.5t25 -10.5h119v-214h-120q-19 0 -53 13t-78 34q-4 -57 -28 -107.5t-65 -94t-96 -79.5t-120 -63q-61 -25 -129.5 -42 t-140.5 -24.5t-145.5 -4.5t-143.5 17q-94 19 -179 58t-151.5 102t-110 151t-54.5 204zM81 1126v123h68q-6 16 -10.5 36t-4.5 37q0 40 16 76t43 63t63 42.5t77 15.5q34 0 65.5 -12t57 -33t45 -49.5t29.5 -62.5l-118 -33q-9 28 -30.5 47.5t-48.5 19.5q-31 0 -53 -22t-22 -52 q0 -29 20 -50t51 -23h203v-123h-451z" />
<glyph unicode="&#x626;" horiz-adv-x="652" arabic-form="initial" d="M-10 279v215l198 3q39 -2 70.5 16.5t54 47t36 63t18.5 66.5q8 63 -10.5 136t-66.5 155q-8 15 -17.5 30t-20.5 31l177 120q13 -18 24 -36.5t22 -36.5q66 -103 91.5 -220.5t7.5 -226.5q-11 -69 -40.5 -131t-77.5 -110t-114.5 -79.5t-153.5 -40.5zM107 1284v123h68 q-6 16 -10.5 36t-4.5 37q0 40 16 76t43 63t63 42.5t77 15.5q34 0 65.5 -12t57 -33t45 -49.5t29.5 -62.5l-118 -33q-9 28 -30.5 47.5t-48.5 19.5q-31 0 -53 -22t-22 -52q0 -29 20 -50t51 -23h203v-123h-451z" />
<glyph unicode="&#x626;" horiz-adv-x="725" arabic-form="medial" d="M-5 279v215h243l15 9q105 73 119 187q8 63 -10.5 136t-66.5 155q-8 15 -17.5 30t-20.5 31l177 120q13 -18 24 -36.5t22 -36.5q66 -114 91.5 -221.5t13.5 -204.5q-12 -94 -55 -169h199v-215h-734zM107 1284v123h68q-6 16 -10.5 36t-4.5 37q0 40 16 76t43 63t63 42.5 t77 15.5q34 0 65.5 -12t57 -33t45 -49.5t29.5 -62.5l-118 -33q-9 28 -30.5 47.5t-48.5 19.5q-31 0 -53 -22t-22 -52q0 -29 20 -50t51 -23h203v-123h-451z" />
<glyph unicode="&#x627;" horiz-adv-x="500" arabic-form="isolated" d="M30 300q84 155 128.5 306.5t51.5 309.5q7 161 -26.5 331t-107.5 361l200 77q82 -212 119 -403t29 -374q-8 -185 -59 -359t-146 -350z" />
<glyph unicode="&#x627;" horiz-adv-x="532" arabic-form="final" d="M29 1613l204 67q34 -103 60 -194.5t44.5 -175t30.5 -161t19 -152.5q6 -62 8 -123t1 -123t-4 -125.5t-8 -131.5h158v-215h-391l10 116q7 84 12 160.5t7.5 147.5t0.5 139.5t-8 136.5t-17 139t-28.5 148.5t-42 163t-56.5 183.5z" />
<glyph unicode="&#x628;" horiz-adv-x="1819" arabic-form="isolated" d="M43 845q0 99 47.5 184.5t131 147.5t197 97.5t244.5 35.5q71 0 148 -12l-32 -212q-60 9 -116 9q-86 0 -160 -20t-128.5 -54t-85.5 -79t-31 -94q0 -29 10 -60.5t33 -64.5q43 -65 120.5 -111.5t174.5 -76.5t207 -44.5t219 -14.5q78 0 151.5 7t144.5 23q125 27 182 86t57 144 q0 67 -30.5 145t-86.5 161l177 120q53 -77 88 -153.5t52 -151.5q13 -59 13 -120q0 -77 -24 -146.5t-73.5 -127t-126 -100.5t-181.5 -66q-41 -10 -85.5 -16.5t-92.5 -11.5q-40 -4 -81.5 -5.5t-83.5 -1.5q-132 0 -266.5 19.5t-255 61t-219.5 106.5t-159 155q-41 61 -60 121.5 t-19 119.5zM794 -34l160 143l164 -183l-161 -144z" />
<glyph unicode="&#x628;" horiz-adv-x="1746" arabic-form="final" d="M38 782l213 22q7 -61 31 -117t71.5 -98.5t123 -68.5t185.5 -27l598 1l15 9q105 73 119 187q8 63 -10.5 136t-66.5 155q-8 15 -17.5 30t-20.5 31l177 120q13 -18 24 -36.5t22 -36.5q66 -114 91.5 -221.5t13.5 -204.5q-12 -94 -55 -169h199v-215h-1090q-114 1 -204.5 23.5 t-159.5 62t-118.5 93.5t-81.5 117q-24 47 -39 100t-20 107zM794 -34l160 143l164 -183l-161 -144z" />
<glyph unicode="&#x628;" horiz-adv-x="652" arabic-form="initial" d="M-10 279v215l198 3q39 -2 70.5 16.5t54 47t36 63t18.5 66.5q8 63 -10.5 136t-66.5 155q-8 15 -17.5 30t-20.5 31l177 120q13 -18 24 -36.5t22 -36.5q66 -103 91.5 -220.5t7.5 -226.5q-11 -69 -40.5 -131t-77.5 -110t-114.5 -79.5t-153.5 -40.5zM163 -34l160 143l164 -183 l-161 -144z" />
<glyph unicode="&#x628;" horiz-adv-x="725" arabic-form="medial" d="M-5 279v215h243l15 9q105 73 119 187q8 63 -10.5 136t-66.5 155q-8 15 -17.5 30t-20.5 31l177 120q13 -18 24 -36.5t22 -36.5q66 -114 91.5 -221.5t13.5 -204.5q-12 -94 -55 -169h199v-215h-734zM189 -34l160 143l164 -183l-161 -144z" />
<glyph unicode="&#x629;" horiz-adv-x="1194" arabic-form="isolated" d="M36 810q0 114 43 214t117.5 175t175 118t214.5 43q76 0 146 -19.5t131 -55t111 -85.5t86 -111.5t55.5 -131.5t19.5 -147q0 -114 -43 -214t-117.5 -175t-174.5 -118t-214 -43q-115 0 -215 43.5t-174.5 118.5t-117.5 175t-43 213zM250 810q0 -69 26.5 -130t72.5 -106.5 t107 -72t130 -26.5t130 26.5t106.5 72t72 106.5t26.5 130q0 70 -26.5 131t-72.5 106.5t-106.5 72t-129.5 26.5t-130 -26.5t-107 -72t-72.5 -107t-26.5 -130.5zM273 1671l160 143l120 -135l151 135l164 -183l-161 -144l-120 135l-151 -135z" />
<glyph unicode="&#x629;" horiz-adv-x="1355" arabic-form="final" d="M25 810q0 79 21.5 151.5t60 135.5t92.5 114t119 85.5t139 51t153 10.5q114 -12 197.5 -48t142.5 -91t97.5 -125t64 -149t41.5 -164t30 -170q5 -30 10 -59l10 -58l159 -1v-214l-246 1q-37 0 -66 22.5t-38 59.5q-13 54 -22 107t-18 108q-11 65 -23 130.5t-30 126t-44.5 114 t-65.5 95t-93 68.5t-128 35q-72 2 -135 -23.5t-110.5 -71.5t-75 -108.5t-27.5 -132.5q0 -69 26.5 -130t72 -106.5t106.5 -72t130 -26.5q63 0 115.5 20.5t98.5 56.5l137 -165v-1q-77 -60 -163.5 -93t-187.5 -33q-114 0 -214.5 43.5t-175 118t-117.5 174.5t-43 214zM273 1671 l160 143l120 -135l151 135l164 -183l-161 -144l-120 135l-151 -135z" />
<glyph unicode="&#x62a;" horiz-adv-x="1819" arabic-form="isolated" d="M43 845q0 99 47.5 184.5t131 147.5t197 97.5t244.5 35.5q71 0 148 -12l-32 -212q-60 9 -116 9q-86 0 -160 -20t-128.5 -54t-85.5 -79t-31 -94q0 -29 10 -60.5t33 -64.5q43 -65 120.5 -111.5t174.5 -76.5t207 -44.5t219 -14.5q78 0 151.5 7t144.5 23q125 27 182 86t57 144 q0 67 -30.5 145t-86.5 161l177 120q53 -77 88 -153.5t52 -151.5q13 -59 13 -120q0 -77 -24 -146.5t-73.5 -127t-126 -100.5t-181.5 -66q-41 -10 -85.5 -16.5t-92.5 -11.5q-40 -4 -81.5 -5.5t-83.5 -1.5q-132 0 -266.5 19.5t-255 61t-219.5 106.5t-159 155q-41 61 -60 121.5 t-19 119.5zM917 1364l160 143l120 -135l151 135l164 -183l-161 -144l-120 135l-151 -135z" />
<glyph unicode="&#x62a;" horiz-adv-x="1746" arabic-form="final" d="M38 782l213 22q7 -61 31 -117t71.5 -98.5t123 -68.5t185.5 -27l598 1l15 9q105 73 119 187q8 63 -10.5 136t-66.5 155q-8 15 -17.5 30t-20.5 31l177 120q13 -18 24 -36.5t22 -36.5q66 -114 91.5 -221.5t13.5 -204.5q-12 -94 -55 -169h199v-215h-1090q-114 1 -204.5 23.5 t-159.5 62t-118.5 93.5t-81.5 117q-24 47 -39 100t-20 107zM453 1270l160 143l120 -135l151 135l164 -183l-161 -144l-120 135l-151 -135z" />
<glyph unicode="&#x62a;" horiz-adv-x="652" arabic-form="initial" d="M-10 279v215l198 3q39 -2 70.5 16.5t54 47t36 63t18.5 66.5q8 63 -10.5 136t-66.5 155q-8 15 -17.5 30t-20.5 31l177 120q13 -18 24 -36.5t22 -36.5q66 -103 91.5 -220.5t7.5 -226.5q-11 -69 -40.5 -131t-77.5 -110t-114.5 -79.5t-153.5 -40.5zM51 1498l160 143l120 -135 l151 135l164 -183l-161 -144l-120 135l-151 -135z" />
<glyph unicode="&#x62a;" horiz-adv-x="725" arabic-form="medial" d="M-5 279v215h243l15 9q105 73 119 187q8 63 -10.5 136t-66.5 155q-8 15 -17.5 30t-20.5 31l177 120q13 -18 24 -36.5t22 -36.5q66 -114 91.5 -221.5t13.5 -204.5q-12 -94 -55 -169h199v-215h-734zM51 1498l160 143l120 -135l151 135l164 -183l-161 -144l-120 135 l-151 -135z" />
<glyph unicode="&#x62b;" horiz-adv-x="1819" arabic-form="isolated" d="M43 845q0 99 47.5 184.5t131 147.5t197 97.5t244.5 35.5q71 0 148 -12l-32 -212q-60 9 -116 9q-86 0 -160 -20t-128.5 -54t-85.5 -79t-31 -94q0 -29 10 -60.5t33 -64.5q43 -65 120.5 -111.5t174.5 -76.5t207 -44.5t219 -14.5q78 0 151.5 7t144.5 23q125 27 182 86t57 144 q0 67 -30.5 145t-86.5 161l177 120q53 -77 88 -153.5t52 -151.5q13 -59 13 -120q0 -77 -24 -146.5t-73.5 -127t-126 -100.5t-181.5 -66q-41 -10 -85.5 -16.5t-92.5 -11.5q-40 -4 -81.5 -5.5t-83.5 -1.5q-132 0 -266.5 19.5t-255 61t-219.5 106.5t-159 155q-41 61 -60 121.5 t-19 119.5zM930 1334l160 143l120 -135l151 135l164 -183l-161 -144l-120 135l-151 -135zM1040 1652l160 143l164 -183l-161 -144z" />
<glyph unicode="&#x62b;" horiz-adv-x="1746" arabic-form="final" d="M38 782l213 22q7 -61 31 -117t71.5 -98.5t123 -68.5t185.5 -27l598 1l15 9q105 73 119 187q8 63 -10.5 136t-66.5 155q-8 15 -17.5 30t-20.5 31l177 120q13 -18 24 -36.5t22 -36.5q66 -114 91.5 -221.5t13.5 -204.5q-12 -94 -55 -169h199v-215h-1090q-114 1 -204.5 23.5 t-159.5 62t-118.5 93.5t-81.5 117q-24 47 -39 100t-20 107zM457 1258l160 143l120 -135l151 135l164 -183l-161 -144l-120 135l-151 -135zM567 1576l160 143l164 -183l-161 -144z" />
<glyph unicode="&#x62b;" horiz-adv-x="777" arabic-form="initial" d="M-5 279v215l318 3q39 -2 70.5 16.5t54 47t36 63t18.5 66.5q8 63 -10.5 136t-66.5 155q-8 15 -17.5 30t-20.5 31l177 120q13 -18 24 -36.5t22 -36.5q66 -103 91.5 -220.5t7.5 -226.5q-11 -69 -40.5 -131t-77.5 -110t-114.5 -79.5t-153.5 -40.5zM98 1456l160 143l120 -135 l151 135l164 -183l-161 -144l-120 135l-151 -135zM208 1774l160 143l164 -183l-161 -144z" />
<glyph unicode="&#x62b;" horiz-adv-x="772" arabic-form="medial" d="M-10 279v215h295l15 9q105 73 119 187q8 63 -10.5 136t-66.5 155q-8 15 -17.5 30t-20.5 31l177 120q13 -18 24 -36.5t22 -36.5q66 -114 91.5 -221.5t13.5 -204.5q-12 -94 -55 -169h199v-215h-786zM98 1456l160 143l120 -135l151 135l164 -183l-161 -144l-120 135 l-151 -135zM208 1774l160 143l164 -183l-161 -144z" />
<glyph unicode="&#x62c;" horiz-adv-x="1361" arabic-form="isolated" d="M43 254q0 82 25.5 160.5t74 148t120 126.5t163.5 97.5t203.5 60.5t240.5 14h179q-59 80 -139.5 137.5t-184 95t-229.5 55.5t-277 18h-39l34 215q141 0 273 -19t248.5 -55t215.5 -89t173.5 -121t122 -150t61.5 -178v-124h-448q-137 4 -248.5 -25t-190 -82t-121 -126.5 t-42.5 -157.5q0 -65 24.5 -126t72 -108t118 -75t162.5 -28q98 0 218.5 36t264.5 120l108 -186q-170 -98 -318 -141t-273 -43q-97 0 -177.5 22t-146.5 61q-102 60 -165.5 149.5t-88.5 193.5q-8 31 -11 61.5t-3 62.5zM502 290l160 143l164 -183l-161 -144z" />
<glyph unicode="&#x62c;" horiz-adv-x="1423" arabic-form="final" d="M43 254q0 82 25.5 160.5t74 148t120 126.5t163.5 97.5t203.5 60.5t240.5 14h179q-59 80 -139.5 137.5t-184 95t-229.5 55.5t-277 18h-39l34 215q141 0 273 -19t248.5 -55t215.5 -89t173.5 -121t122 -150t61.5 -178v-124h-199q8 -41 24.5 -69.5t47 -47t78.5 -27t119 -9.5 h50v-214h-50q-128 1 -217.5 29t-148.5 76.5t-92 115t-48 146.5h-12q-137 4 -248.5 -25t-190 -82t-121 -126.5t-42.5 -157.5q0 -65 24.5 -126t72 -108t118 -75t162.5 -28q98 0 218.5 36t264.5 120l108 -186q-170 -98 -318 -141t-273 -43q-97 0 -177.5 22t-146.5 61 q-102 60 -165.5 149.5t-88.5 193.5q-8 31 -11 61.5t-3 62.5zM492 290l160 143l164 -183l-161 -144z" />
<glyph unicode="&#x62c;" horiz-adv-x="1512" arabic-form="initial" d="M-6 279v215h1170q-16 134 -73 245.5t-157 196.5q-121 102 -306 159t-438 57h-37q10 81 16.5 124.5t10.5 63.5t6.5 23.5t3.5 3.5q293 0 513 -70.5t369 -196.5q155 -131 231.5 -307t80.5 -387v-127h-1390zM518 -34l160 143l164 -183l-161 -144z" />
<glyph unicode="&#x62c;" horiz-adv-x="1548" arabic-form="medial" d="M-6 279v215h1170q-16 134 -73 245.5t-157 196.5q-121 102 -306 159t-438 57h-37q10 81 16.5 124.5t10.5 63.5t6.5 23.5t3.5 3.5q293 0 513 -70.5t369 -196.5q138 -117 214 -270t93 -336h174v-215h-1559zM518 -34l160 143l164 -183l-161 -144z" />
<glyph unicode="&#x62d;" horiz-adv-x="1361" arabic-form="isolated" d="M43 254q0 82 25.5 160.5t74 148t120 126.5t163.5 97.5t203.5 60.5t240.5 14h179q-59 80 -139.5 137.5t-184 95t-229.5 55.5t-277 18h-39l34 215q141 0 273 -19t248.5 -55t215.5 -89t173.5 -121t122 -150t61.5 -178v-124h-448q-137 4 -248.5 -25t-190 -82t-121 -126.5 t-42.5 -157.5q0 -65 24.5 -126t72 -108t118 -75t162.5 -28q98 0 218.5 36t264.5 120l108 -186q-170 -98 -318 -141t-273 -43q-97 0 -177.5 22t-146.5 61q-102 60 -165.5 149.5t-88.5 193.5q-8 31 -11 61.5t-3 62.5z" />
<glyph unicode="&#x62d;" horiz-adv-x="1423" arabic-form="final" d="M43 254q0 82 25.5 160.5t74 148t120 126.5t163.5 97.5t203.5 60.5t240.5 14h179q-59 80 -139.5 137.5t-184 95t-229.5 55.5t-277 18h-39l34 215q141 0 273 -19t248.5 -55t215.5 -89t173.5 -121t122 -150t61.5 -178v-124h-199q8 -41 24.5 -69.5t47 -47t78.5 -27t119 -9.5 h50v-214h-50q-128 1 -217.5 29t-148.5 76.5t-92 115t-48 146.5h-12q-137 4 -248.5 -25t-190 -82t-121 -126.5t-42.5 -157.5q0 -65 24.5 -126t72 -108t118 -75t162.5 -28q98 0 218.5 36t264.5 120l108 -186q-170 -98 -318 -141t-273 -43q-97 0 -177.5 22t-146.5 61 q-102 60 -165.5 149.5t-88.5 193.5q-8 31 -11 61.5t-3 62.5z" />
<glyph unicode="&#x62d;" horiz-adv-x="1512" arabic-form="initial" d="M-6 279v215h1170q-16 134 -73 245.5t-157 196.5q-121 102 -306 159t-438 57h-37q10 81 16.5 124.5t10.5 63.5t6.5 23.5t3.5 3.5q293 0 513 -70.5t369 -196.5q155 -131 231.5 -307t80.5 -387v-127h-1390z" />
<glyph unicode="&#x62d;" horiz-adv-x="1548" arabic-form="medial" d="M-6 279v215h1170q-16 134 -73 245.5t-157 196.5q-121 102 -306 159t-438 57h-37q10 81 16.5 124.5t10.5 63.5t6.5 23.5t3.5 3.5q293 0 513 -70.5t369 -196.5q138 -117 214 -270t93 -336h174v-215h-1559z" />
<glyph unicode="&#x62e;" horiz-adv-x="1361" arabic-form="isolated" d="M43 254q0 82 25.5 160.5t74 148t120 126.5t163.5 97.5t203.5 60.5t240.5 14h179q-59 80 -139.5 137.5t-184 95t-229.5 55.5t-277 18h-39l34 215q141 0 273 -19t248.5 -55t215.5 -89t173.5 -121t122 -150t61.5 -178v-124h-448q-137 4 -248.5 -25t-190 -82t-121 -126.5 t-42.5 -157.5q0 -65 24.5 -126t72 -108t118 -75t162.5 -28q98 0 218.5 36t264.5 120l108 -186q-170 -98 -318 -141t-273 -43q-97 0 -177.5 22t-146.5 61q-102 60 -165.5 149.5t-88.5 193.5q-8 31 -11 61.5t-3 62.5zM479 1682l160 143l164 -183l-161 -144z" />
<glyph unicode="&#x62e;" horiz-adv-x="1423" arabic-form="final" d="M43 254q0 82 25.5 160.5t74 148t120 126.5t163.5 97.5t203.5 60.5t240.5 14h179q-59 80 -139.5 137.5t-184 95t-229.5 55.5t-277 18h-39l34 215q141 0 273 -19t248.5 -55t215.5 -89t173.5 -121t122 -150t61.5 -178v-124h-199q8 -41 24.5 -69.5t47 -47t78.5 -27t119 -9.5 h50v-214h-50q-128 1 -217.5 29t-148.5 76.5t-92 115t-48 146.5h-12q-137 4 -248.5 -25t-190 -82t-121 -126.5t-42.5 -157.5q0 -65 24.5 -126t72 -108t118 -75t162.5 -28q98 0 218.5 36t264.5 120l108 -186q-170 -98 -318 -141t-273 -43q-97 0 -177.5 22t-146.5 61 q-102 60 -165.5 149.5t-88.5 193.5q-8 31 -11 61.5t-3 62.5zM252 1692l160 143l164 -183l-161 -144z" />
<glyph unicode="&#x62e;" horiz-adv-x="1512" arabic-form="initial" d="M-6 279v215h1170q-16 134 -73 245.5t-157 196.5q-121 102 -306 159t-438 57h-37q10 81 16.5 124.5t10.5 63.5t6.5 23.5t3.5 3.5q293 0 513 -70.5t369 -196.5q155 -131 231.5 -307t80.5 -387v-127h-1390zM252 1692l160 143l164 -183l-161 -144z" />
<glyph unicode="&#x62e;" horiz-adv-x="1548" arabic-form="medial" d="M-6 279v215h1170q-16 134 -73 245.5t-157 196.5q-121 102 -306 159t-438 57h-37q10 81 16.5 124.5t10.5 63.5t6.5 23.5t3.5 3.5q293 0 513 -70.5t369 -196.5q138 -117 214 -270t93 -336h174v-215h-1559zM252 1692l160 143l164 -183l-161 -144z" />
<glyph unicode="&#x62f;" horiz-adv-x="1204" arabic-form="isolated" d="M20 443l149 154q47 -45 125 -74.5t194 -29.5l430 1q-11 151 -54 272.5t-120.5 207t-191.5 132t-268 46.5l-5 215q213 0 374 -71t268 -200.5t161 -310t54 -399.5v-107h-648q-45 0 -85.5 4t-76.5 10q-100 18 -175.5 57.5t-130.5 92.5z" />
<glyph unicode="&#x62f;" horiz-adv-x="1282" arabic-form="final" d="M20 443l149 154q47 -45 125 -74.5t194 -29.5l430 1q-11 151 -54 272.5t-120.5 207t-191.5 132t-268 46.5l-5 215q200 0 353.5 -62.5t260 -177.5t166.5 -276t73 -357h156v-215h-800q-45 0 -85.5 4t-76.5 10q-100 18 -175.5 57.5t-130.5 92.5z" />
<glyph unicode="&#x630;" horiz-adv-x="1204" arabic-form="isolated" d="M20 443l149 154q47 -45 125 -74.5t194 -29.5l430 1q-11 151 -54 272.5t-120.5 207t-191.5 132t-268 46.5l-5 215q213 0 374 -71t268 -200.5t161 -310t54 -399.5v-107h-648q-45 0 -85.5 4t-76.5 10q-100 18 -175.5 57.5t-130.5 92.5zM252 1692l160 143l164 -183l-161 -144 z" />
<glyph unicode="&#x630;" horiz-adv-x="1282" arabic-form="final" d="M20 443l149 154q47 -45 125 -74.5t194 -29.5l430 1q-11 151 -54 272.5t-120.5 207t-191.5 132t-268 46.5l-5 215q200 0 353.5 -62.5t260 -177.5t166.5 -276t73 -357h156v-215h-800q-45 0 -85.5 4t-76.5 10q-100 18 -175.5 57.5t-130.5 92.5zM252 1692l160 143l164 -183 l-161 -144z" />
<glyph unicode="&#x631;" horiz-adv-x="865" arabic-form="isolated" d="M-105 -103l93 194q54 -26 124 -37t145 -2q58 8 112 30t98 63q45 41 75.5 103t41.5 152q7 63 3 138.5t-22 165t-50.5 193.5t-81.5 223l198 82q55 -134 91.5 -251.5t56 -220t23.5 -191.5t-5 -164q-16 -131 -64.5 -226t-119.5 -161t-155.5 -101.5t-173.5 -46.5 q-53 -7 -105.5 -6t-102.5 8.5t-96 21.5t-85 33z" />
<glyph unicode="&#x631;" horiz-adv-x="959" arabic-form="final" d="M-105 -103l93 194q54 -26 124 -37t145 -2q58 8 112 30t98 63q45 41 75.5 103t41.5 152q7 63 3 138.5t-22 165t-50.5 193.5t-81.5 223l198 82q90 -218 130.5 -393.5t41.5 -314.5h167v-215h-191q-23 -95 -66 -166.5t-100 -124.5q-71 -66 -155.5 -101.5t-173.5 -46.5 q-53 -7 -105.5 -6t-102.5 8.5t-96 21.5t-85 33z" />
<glyph unicode="&#x632;" horiz-adv-x="865" arabic-form="isolated" d="M-105 -103l93 194q54 -26 124 -37t145 -2q58 8 112 30t98 63q45 41 75.5 103t41.5 152q7 63 3 138.5t-22 165t-50.5 193.5t-81.5 223l198 82q55 -134 91.5 -251.5t56 -220t23.5 -191.5t-5 -164q-16 -131 -64.5 -226t-119.5 -161t-155.5 -101.5t-173.5 -46.5 q-53 -7 -105.5 -6t-102.5 8.5t-96 21.5t-85 33zM189 1483l160 143l164 -183l-161 -144z" />
<glyph unicode="&#x632;" horiz-adv-x="959" arabic-form="final" d="M-105 -103l93 194q54 -26 124 -37t145 -2q58 8 112 30t98 63q45 41 75.5 103t41.5 152q7 63 3 138.5t-22 165t-50.5 193.5t-81.5 223l198 82q90 -218 130.5 -393.5t41.5 -314.5h167v-215h-191q-23 -95 -66 -166.5t-100 -124.5q-71 -66 -155.5 -101.5t-173.5 -46.5 q-53 -7 -105.5 -6t-102.5 8.5t-96 21.5t-85 33zM189 1483l160 143l164 -183l-161 -144z" />
<glyph unicode="&#x633;" horiz-adv-x="2518" arabic-form="isolated" d="M46 566q0 95 29 201t107 215l173 -127q-54 -74 -74 -148t-20 -140q0 -101 32 -174.5t84.5 -121t119.5 -70t138 -22.5q82 0 160.5 26t140.5 75.5t100 121t38 161.5q0 97 -48 214.5t-160 257.5l167 134q136 -170 195.5 -322.5t59.5 -283.5q0 -18 -1 -35t-3 -34h231l15 9 q105 73 119 187q8 63 -10.5 136t-66.5 155q-8 15 -17.5 30t-20.5 31l177 120q13 -18 24 -36.5t22 -36.5q66 -114 91.5 -221.5t13.5 -204.5q-12 -94 -55 -169l247 3q39 -2 70.5 16.5t54 47t36 63t18.5 66.5q8 63 -10.5 136t-66.5 155q-8 15 -17.5 30t-20.5 31l177 120 q13 -18 24 -36.5t22 -36.5q66 -103 91.5 -220.5t7.5 -226.5q-11 -69 -40.5 -131t-77.5 -110t-114.5 -79.5t-153.5 -40.5l-839 -1q-48 -85 -120.5 -148t-160.5 -102q-70 -32 -145.5 -48.5t-152.5 -16.5q-73 0 -145 16t-137.5 48t-121.5 81t-97.5 116t-65 152t-23.5 188z" />
<glyph unicode="&#x633;" horiz-adv-x="2554" arabic-form="final" d="M40 566q0 95 29 201t107 215l173 -127q-54 -74 -74 -148t-20 -140q0 -101 32 -174.5t84.5 -121t119.5 -70t138 -22.5q82 0 160.5 26t140.5 75.5t100 121t38 161.5q0 97 -48 214.5t-160 257.5l167 134q136 -170 195.5 -322.5t59.5 -283.5q0 -18 -1 -35t-3 -34h237l15 9 q105 73 119 187q8 63 -10.5 136t-66.5 155q-8 15 -17.5 30t-20.5 31l177 120q13 -18 24 -36.5t22 -36.5q66 -114 91.5 -221.5t13.5 -204.5q-12 -94 -55 -169h288l15 9q105 73 119 187q8 63 -10.5 136t-66.5 155q-8 15 -17.5 30t-20.5 31l177 120q13 -18 24 -36.5t22 -36.5 q66 -114 91.5 -221.5t13.5 -204.5q-12 -94 -55 -169h173v-215h-1352q-48 -85 -120.5 -147.5t-159.5 -101.5q-70 -32 -145.5 -48.5t-152.5 -16.5q-73 0 -145 16t-137.5 48t-121.5 81t-97.5 116t-65 152t-23.5 188z" />
<glyph unicode="&#x633;" horiz-adv-x="1809" arabic-form="initial" d="M-12 279v215h243l15 9q105 73 119 187q8 63 -10.5 136t-66.5 155q-8 15 -17.5 30t-20.5 31l177 120q13 -18 24 -36.5t22 -36.5q66 -114 91.5 -221.5t13.5 -204.5q-12 -94 -55 -169h283l15 9q105 73 119 187q8 63 -10.5 136t-66.5 155q-8 15 -17.5 30t-20.5 31l177 120 q13 -18 24 -36.5t22 -36.5q66 -114 91.5 -221.5t13.5 -204.5q-12 -94 -55 -169l247 3q39 -2 70.5 16.5t54 47t36 63t18.5 66.5q8 63 -10.5 136t-66.5 155q-8 15 -17.5 30t-20.5 31l177 120q13 -18 24 -36.5t22 -36.5q66 -103 91.5 -220.5t7.5 -226.5q-11 -69 -40.5 -131 t-77.5 -110t-114.5 -79.5t-153.5 -40.5z" />
<glyph unicode="&#x633;" horiz-adv-x="1845" arabic-form="medial" d="M-12 279v215h243l15 9q105 73 119 187q8 63 -10.5 136t-66.5 155q-8 15 -17.5 30t-20.5 31l177 120q13 -18 24 -36.5t22 -36.5q66 -114 91.5 -221.5t13.5 -204.5q-12 -94 -55 -169h283l15 9q105 73 119 187q8 63 -10.5 136t-66.5 155q-8 15 -17.5 30t-20.5 31l177 120 q13 -18 24 -36.5t22 -36.5q66 -114 91.5 -221.5t13.5 -204.5q-12 -94 -55 -169h288l15 9q105 73 119 187q8 63 -10.5 136t-66.5 155q-8 15 -17.5 30t-20.5 31l177 120q13 -18 24 -36.5t22 -36.5q66 -114 91.5 -221.5t13.5 -204.5q-12 -94 -55 -169h173v-215h-1863z" />
<glyph unicode="&#x634;" horiz-adv-x="2518" arabic-form="isolated" d="M46 566q0 95 29 201t107 215l173 -127q-54 -74 -74 -148t-20 -140q0 -101 32 -174.5t84.5 -121t119.5 -70t138 -22.5q82 0 160.5 26t140.5 75.5t100 121t38 161.5q0 97 -48 214.5t-160 257.5l167 134q136 -170 195.5 -322.5t59.5 -283.5q0 -18 -1 -35t-3 -34h231l15 9 q105 73 119 187q8 63 -10.5 136t-66.5 155q-8 15 -17.5 30t-20.5 31l177 120q13 -18 24 -36.5t22 -36.5q66 -114 91.5 -221.5t13.5 -204.5q-12 -94 -55 -169l247 3q39 -2 70.5 16.5t54 47t36 63t18.5 66.5q8 63 -10.5 136t-66.5 155q-8 15 -17.5 30t-20.5 31l177 120 q13 -18 24 -36.5t22 -36.5q66 -103 91.5 -220.5t7.5 -226.5q-11 -69 -40.5 -131t-77.5 -110t-114.5 -79.5t-153.5 -40.5l-839 -1q-48 -85 -120.5 -148t-160.5 -102q-70 -32 -145.5 -48.5t-152.5 -16.5q-73 0 -145 16t-137.5 48t-121.5 81t-97.5 116t-65 152t-23.5 188z M1401 1505l160 143l120 -135l151 135l164 -183l-161 -144l-120 135l-151 -135zM1511 1823l160 143l164 -183l-161 -144z" />
<glyph unicode="&#x634;" horiz-adv-x="2554" arabic-form="final" d="M40 566q0 95 29 201t107 215l173 -127q-54 -74 -74 -148t-20 -140q0 -101 32 -174.5t84.5 -121t119.5 -70t138 -22.5q82 0 160.5 26t140.5 75.5t100 121t38 161.5q0 97 -48 214.5t-160 257.5l167 134q136 -170 195.5 -322.5t59.5 -283.5q0 -18 -1 -35t-3 -34h237l15 9 q105 73 119 187q8 63 -10.5 136t-66.5 155q-8 15 -17.5 30t-20.5 31l177 120q13 -18 24 -36.5t22 -36.5q66 -114 91.5 -221.5t13.5 -204.5q-12 -94 -55 -169h288l15 9q105 73 119 187q8 63 -10.5 136t-66.5 155q-8 15 -17.5 30t-20.5 31l177 120q13 -18 24 -36.5t22 -36.5 q66 -114 91.5 -221.5t13.5 -204.5q-12 -94 -55 -169h173v-215h-1352q-48 -85 -120.5 -147.5t-159.5 -101.5q-70 -32 -145.5 -48.5t-152.5 -16.5q-73 0 -145 16t-137.5 48t-121.5 81t-97.5 116t-65 152t-23.5 188zM1401 1505l160 143l120 -135l151 135l164 -183l-161 -144 l-120 135l-151 -135zM1511 1823l160 143l164 -183l-161 -144z" />
<glyph unicode="&#x634;" horiz-adv-x="1809" arabic-form="initial" d="M-12 279v215h243l15 9q105 73 119 187q8 63 -10.5 136t-66.5 155q-8 15 -17.5 30t-20.5 31l177 120q13 -18 24 -36.5t22 -36.5q66 -114 91.5 -221.5t13.5 -204.5q-12 -94 -55 -169h283l15 9q105 73 119 187q8 63 -10.5 136t-66.5 155q-8 15 -17.5 30t-20.5 31l177 120 q13 -18 24 -36.5t22 -36.5q66 -114 91.5 -221.5t13.5 -204.5q-12 -94 -55 -169l247 3q39 -2 70.5 16.5t54 47t36 63t18.5 66.5q8 63 -10.5 136t-66.5 155q-8 15 -17.5 30t-20.5 31l177 120q13 -18 24 -36.5t22 -36.5q66 -103 91.5 -220.5t7.5 -226.5q-11 -69 -40.5 -131 t-77.5 -110t-114.5 -79.5t-153.5 -40.5zM579 1505l160 143l120 -135l151 135l164 -183l-161 -144l-120 135l-151 -135zM689 1823l160 143l164 -183l-161 -144z" />
<glyph unicode="&#x634;" horiz-adv-x="1845" arabic-form="medial" d="M-12 279v215h243l15 9q105 73 119 187q8 63 -10.5 136t-66.5 155q-8 15 -17.5 30t-20.5 31l177 120q13 -18 24 -36.5t22 -36.5q66 -114 91.5 -221.5t13.5 -204.5q-12 -94 -55 -169h283l15 9q105 73 119 187q8 63 -10.5 136t-66.5 155q-8 15 -17.5 30t-20.5 31l177 120 q13 -18 24 -36.5t22 -36.5q66 -114 91.5 -221.5t13.5 -204.5q-12 -94 -55 -169h288l15 9q105 73 119 187q8 63 -10.5 136t-66.5 155q-8 15 -17.5 30t-20.5 31l177 120q13 -18 24 -36.5t22 -36.5q66 -114 91.5 -221.5t13.5 -204.5q-12 -94 -55 -169h173v-215h-1863zM579 1505 l160 143l120 -135l151 135l164 -183l-161 -144l-120 135l-151 -135zM689 1823l160 143l164 -183l-161 -144z" />
<glyph unicode="&#x635;" horiz-adv-x="2570" arabic-form="isolated" d="M40 566q0 97 30 203.5t105 212.5l173 -127q-54 -74 -74 -148t-20 -140q0 -102 32 -175t85 -120.5t120 -70t138 -22.5q84 0 163 29t140 80.5t98 122t37 154.5q0 96 -48 213t-160 257l168 134q72 -90 121.5 -174t80.5 -164q81 127 164 220t166 156t163.5 98.5t157.5 47.5 q23 4 45.5 5.5t44.5 1.5q119 0 220 -47.5t174 -125.5t114 -177.5t41 -203.5q0 -102 -41.5 -197t-131 -168.5t-229.5 -117.5t-338 -44h-572q-48 -85 -120 -147t-159 -102q-70 -32 -146 -48.5t-153 -16.5q-109 0 -214.5 35.5t-189 109.5t-134.5 187.5t-51 268.5zM1285 494 l495 -1q142 0 242 25t163 68t91.5 100.5t28.5 120.5q0 62 -25 122.5t-70 108.5t-107 77.5t-135 29.5q-14 0 -27 -1t-27 -3q-71 -11 -147.5 -51.5t-156.5 -118t-162 -195t-163 -282.5z" />
<glyph unicode="&#x635;" horiz-adv-x="2632" arabic-form="final" d="M40 566q0 97 30 203.5t105 212.5l173 -127q-54 -74 -74 -148t-20 -140q0 -102 32 -175t85 -120.5t120 -70t138 -22.5q84 0 163 29t140 80.5t98 122t37 154.5q0 96 -48 213t-160 257l168 134q72 -90 121.5 -174t80.5 -164q81 127 164 220t166 156t163.5 98.5t157.5 47.5 q23 4 45.5 5.5t44.5 1.5q119 0 220 -47.5t174 -125.5t114 -177.5t41 -203.5q0 -85 -28.5 -164.5t-88.5 -147.5h239v-215h-1434q-48 -85 -120 -147t-159 -102q-70 -32 -146 -48.5t-153 -16.5q-109 0 -214.5 35.5t-189 109.5t-134.5 187.5t-51 268.5zM1285 494l495 -1 q142 0 242 25t163 68t91.5 100.5t28.5 120.5q0 62 -25 122.5t-70 108.5t-107 77.5t-135 29.5q-14 0 -27 -1t-27 -3q-71 -11 -147.5 -51.5t-156.5 -118t-162 -195t-163 -282.5z" />
<glyph unicode="&#x635;" horiz-adv-x="1835" arabic-form="initial" d="M-5 279v215h322q5 19 6 38.5t1 39.5q0 95 -49.5 210.5t-158.5 252.5l167 134q75 -94 126 -181t81 -170q81 129 164 224t166 159.5t164 101t158 49.5q51 9 98 9q79 0 150.5 -22t132.5 -60.5t110.5 -91t84 -114.5t53 -130t18.5 -137q0 -96 -38.5 -188.5t-122 -166 t-214 -120.5t-314.5 -52h-1105zM554 494h545q130 3 220.5 30.5t147 70.5t82 98t25.5 113q0 62 -25.5 123t-70.5 109t-107 78t-135 30q-14 0 -28.5 -1.5t-29.5 -3.5q-70 -12 -146 -53.5t-155.5 -119t-161 -194.5t-161.5 -280z" />
<glyph unicode="&#x635;" horiz-adv-x="1877" arabic-form="medial" d="M-5 279v215h322q5 19 6 38.5t1 39.5q0 95 -49.5 210.5t-158.5 252.5l167 134q75 -94 126 -181t81 -170q81 129 164 224t166 159.5t164 101t158 49.5q51 9 98 9q79 0 150.5 -22t132.5 -60.5t110.5 -91t84 -114.5t53 -130t18.5 -137q0 -83 -28.5 -163t-89.5 -149h216v-215 h-1892zM554 494h545q130 3 220.5 30.5t147 70.5t82 98t25.5 113q0 62 -25.5 123t-70.5 109t-107 78t-135 30q-14 0 -28.5 -1.5t-29.5 -3.5q-70 -12 -146 -53.5t-155.5 -119t-161 -194.5t-161.5 -280z" />
<glyph unicode="&#x636;" horiz-adv-x="2570" arabic-form="isolated" d="M40 566q0 97 30 203.5t105 212.5l173 -127q-54 -74 -74 -148t-20 -140q0 -102 32 -175t85 -120.5t120 -70t138 -22.5q84 0 163 29t140 80.5t98 122t37 154.5q0 96 -48 213t-160 257l168 134q72 -90 121.5 -174t80.5 -164q81 127 164 220t166 156t163.5 98.5t157.5 47.5 q23 4 45.5 5.5t44.5 1.5q119 0 220 -47.5t174 -125.5t114 -177.5t41 -203.5q0 -102 -41.5 -197t-131 -168.5t-229.5 -117.5t-338 -44h-572q-48 -85 -120 -147t-159 -102q-70 -32 -146 -48.5t-153 -16.5q-109 0 -214.5 35.5t-189 109.5t-134.5 187.5t-51 268.5zM1224 1546 l160 143l164 -183l-161 -144zM1285 494l495 -1q142 0 242 25t163 68t91.5 100.5t28.5 120.5q0 62 -25 122.5t-70 108.5t-107 77.5t-135 29.5q-14 0 -27 -1t-27 -3q-71 -11 -147.5 -51.5t-156.5 -118t-162 -195t-163 -282.5z" />
<glyph unicode="&#x636;" horiz-adv-x="2632" arabic-form="final" d="M40 566q0 97 30 203.5t105 212.5l173 -127q-54 -74 -74 -148t-20 -140q0 -102 32 -175t85 -120.5t120 -70t138 -22.5q84 0 163 29t140 80.5t98 122t37 154.5q0 96 -48 213t-160 257l168 134q72 -90 121.5 -174t80.5 -164q81 127 164 220t166 156t163.5 98.5t157.5 47.5 q23 4 45.5 5.5t44.5 1.5q119 0 220 -47.5t174 -125.5t114 -177.5t41 -203.5q0 -85 -28.5 -164.5t-88.5 -147.5h239v-215h-1434q-48 -85 -120 -147t-159 -102q-70 -32 -146 -48.5t-153 -16.5q-109 0 -214.5 35.5t-189 109.5t-134.5 187.5t-51 268.5zM1167 1541l160 143 l164 -183l-161 -144zM1285 494l495 -1q142 0 242 25t163 68t91.5 100.5t28.5 120.5q0 62 -25 122.5t-70 108.5t-107 77.5t-135 29.5q-14 0 -27 -1t-27 -3q-71 -11 -147.5 -51.5t-156.5 -118t-162 -195t-163 -282.5z" />
<glyph unicode="&#x636;" horiz-adv-x="1835" arabic-form="initial" d="M-5 279v215h322q5 19 6 38.5t1 39.5q0 95 -49.5 210.5t-158.5 252.5l167 134q75 -94 126 -181t81 -170q81 129 164 224t166 159.5t164 101t158 49.5q51 9 98 9q79 0 150.5 -22t132.5 -60.5t110.5 -91t84 -114.5t53 -130t18.5 -137q0 -96 -38.5 -188.5t-122 -166 t-214 -120.5t-314.5 -52h-1105zM460 1541l160 143l164 -183l-161 -144zM554 494h545q130 3 220.5 30.5t147 70.5t82 98t25.5 113q0 62 -25.5 123t-70.5 109t-107 78t-135 30q-14 0 -28.5 -1.5t-29.5 -3.5q-70 -12 -146 -53.5t-155.5 -119t-161 -194.5t-161.5 -280z" />
<glyph unicode="&#x636;" horiz-adv-x="1877" arabic-form="medial" d="M-5 279v215h322q5 19 6 38.5t1 39.5q0 95 -49.5 210.5t-158.5 252.5l167 134q75 -94 126 -181t81 -170q81 129 164 224t166 159.5t164 101t158 49.5q51 9 98 9q79 0 150.5 -22t132.5 -60.5t110.5 -91t84 -114.5t53 -130t18.5 -137q0 -83 -28.5 -163t-89.5 -149h216v-215 h-1892zM460 1541l160 143l164 -183l-161 -144zM554 494h545q130 3 220.5 30.5t147 70.5t82 98t25.5 113q0 62 -25.5 123t-70.5 109t-107 78t-135 30q-14 0 -28.5 -1.5t-29.5 -3.5q-70 -12 -146 -53.5t-155.5 -119t-161 -194.5t-161.5 -280z" />
<glyph unicode="&#x637;" horiz-adv-x="1783" arabic-form="isolated" d="M120 279v214h127q73 87 110.5 211.5t37.5 279.5q0 101 -15.5 207.5t-44.5 206.5q-14 51 -31 103.5t-38 106.5l200 77q23 -59 41.5 -116.5t34.5 -114.5q29 -108 45.5 -209.5t21.5 -208.5q125 146 250.5 221t241.5 95q51 9 99 9q79 0 150.5 -22t132 -60.5t110 -91t84 -114 t53 -130t18.5 -137.5q0 -102 -41.5 -197t-130.5 -168.5t-229.5 -117.5t-338.5 -44h-888zM514 493h495q142 0 242 25t163 67.5t91.5 99.5t28.5 121q0 63 -25.5 124t-70.5 109t-107 77.5t-135 29.5q-14 0 -28.5 -1.5t-29.5 -3.5q-70 -12 -146.5 -53.5t-156 -119t-160.5 -195 t-161 -280.5z" />
<glyph unicode="&#x637;" horiz-adv-x="1856" arabic-form="final" d="M120 279v214h127q73 87 110.5 211.5t37.5 279.5q0 101 -15.5 207.5t-44.5 206.5q-14 51 -31 103.5t-38 106.5l200 77q23 -59 41.5 -116.5t34.5 -114.5q29 -108 45.5 -209.5t21.5 -208.5q125 146 250.5 221t241.5 95q51 9 99 9q79 0 150.5 -22t132 -60.5t110 -91t84 -114 t53 -130t18.5 -137.5q0 -85 -28.5 -164.5t-88.5 -147.5h230v-215h-1741zM514 493h495q142 0 242 25t163 67.5t91.5 99.5t28.5 121q0 63 -25.5 124t-70.5 109t-107 77.5t-135 29.5q-14 0 -28.5 -1.5t-29.5 -3.5q-70 -12 -146.5 -53.5t-156 -119t-160.5 -195t-161 -280.5z" />
<glyph unicode="&#x637;" horiz-adv-x="1658" arabic-form="initial" d="M-5 279v214h127q73 87 110.5 211.5t37.5 279.5q0 101 -15.5 207.5t-44.5 206.5q-14 51 -31 103.5t-38 106.5l200 77q23 -59 41.5 -116.5t34.5 -114.5q29 -108 45.5 -209.5t21.5 -208.5q125 146 250.5 221t241.5 95q51 9 99 9q79 0 150.5 -22t132 -60.5t110 -91t84 -114 t53 -130t18.5 -137.5q0 -102 -41.5 -197t-130.5 -168.5t-229.5 -117.5t-338.5 -44h-888zM389 493h495q142 0 242 25t163 67.5t91.5 99.5t28.5 121q0 63 -25.5 124t-70.5 109t-107 77.5t-135 29.5q-14 0 -28.5 -1.5t-29.5 -3.5q-70 -12 -146.5 -53.5t-156 -119t-160.5 -195 t-161 -280.5z" />
<glyph unicode="&#x637;" horiz-adv-x="1683" arabic-form="medial" d="M-11 279v214h127q73 87 110.5 211.5t37.5 279.5q0 101 -15.5 207.5t-44.5 206.5q-14 51 -31 103.5t-38 106.5l200 77q23 -59 41.5 -116.5t34.5 -114.5q29 -108 45.5 -209.5t21.5 -208.5q125 146 250.5 221t241.5 95q51 9 99 9q79 0 150.5 -22t132 -60.5t110 -91t84 -114 t53 -130t18.5 -137.5q0 -85 -28.5 -164.5t-88.5 -147.5h195v-215h-1706zM383 493h495q142 0 242 25t163 67.5t91.5 99.5t28.5 121q0 63 -25.5 124t-70.5 109t-107 77.5t-135 29.5q-14 0 -28.5 -1.5t-29.5 -3.5q-70 -12 -146.5 -53.5t-156 -119t-160.5 -195t-161 -280.5z" />
<glyph unicode="&#x638;" horiz-adv-x="1783" arabic-form="isolated" d="M120 279v214h127q73 87 110.5 211.5t37.5 279.5q0 101 -15.5 207.5t-44.5 206.5q-14 51 -31 103.5t-38 106.5l200 77q23 -59 41.5 -116.5t34.5 -114.5q29 -108 45.5 -209.5t21.5 -208.5q125 146 250.5 221t241.5 95q51 9 99 9q79 0 150.5 -22t132 -60.5t110 -91t84 -114 t53 -130t18.5 -137.5q0 -102 -41.5 -197t-130.5 -168.5t-229.5 -117.5t-338.5 -44h-888zM514 493h495q142 0 242 25t163 67.5t91.5 99.5t28.5 121q0 63 -25.5 124t-70.5 109t-107 77.5t-135 29.5q-14 0 -28.5 -1.5t-29.5 -3.5q-70 -12 -146.5 -53.5t-156 -119t-160.5 -195 t-161 -280.5zM682 1614l160 143l164 -183l-161 -144z" />
<glyph unicode="&#x638;" horiz-adv-x="1856" arabic-form="final" d="M120 279v214h127q73 87 110.5 211.5t37.5 279.5q0 101 -15.5 207.5t-44.5 206.5q-14 51 -31 103.5t-38 106.5l200 77q23 -59 41.5 -116.5t34.5 -114.5q29 -108 45.5 -209.5t21.5 -208.5q125 146 250.5 221t241.5 95q51 9 99 9q79 0 150.5 -22t132 -60.5t110 -91t84 -114 t53 -130t18.5 -137.5q0 -85 -28.5 -164.5t-88.5 -147.5h230v-215h-1741zM514 493h495q142 0 242 25t163 67.5t91.5 99.5t28.5 121q0 63 -25.5 124t-70.5 109t-107 77.5t-135 29.5q-14 0 -28.5 -1.5t-29.5 -3.5q-70 -12 -146.5 -53.5t-156 -119t-160.5 -195t-161 -280.5z M682 1614l160 143l164 -183l-161 -144z" />
<glyph unicode="&#x638;" horiz-adv-x="1658" arabic-form="initial" d="M-5 279v214h127q73 87 110.5 211.5t37.5 279.5q0 101 -15.5 207.5t-44.5 206.5q-14 51 -31 103.5t-38 106.5l200 77q23 -59 41.5 -116.5t34.5 -114.5q29 -108 45.5 -209.5t21.5 -208.5q125 146 250.5 221t241.5 95q51 9 99 9q79 0 150.5 -22t132 -60.5t110 -91t84 -114 t53 -130t18.5 -137.5q0 -102 -41.5 -197t-130.5 -168.5t-229.5 -117.5t-338.5 -44h-888zM389 493h495q142 0 242 25t163 67.5t91.5 99.5t28.5 121q0 63 -25.5 124t-70.5 109t-107 77.5t-135 29.5q-14 0 -28.5 -1.5t-29.5 -3.5q-70 -12 -146.5 -53.5t-156 -119t-160.5 -195 t-161 -280.5zM539 1614l160 143l164 -183l-161 -144z" />
<glyph unicode="&#x638;" horiz-adv-x="1683" arabic-form="medial" d="M-11 279v214h127q73 87 110.5 211.5t37.5 279.5q0 101 -15.5 207.5t-44.5 206.5q-14 51 -31 103.5t-38 106.5l200 77q23 -59 41.5 -116.5t34.5 -114.5q29 -108 45.5 -209.5t21.5 -208.5q125 146 250.5 221t241.5 95q51 9 99 9q79 0 150.5 -22t132 -60.5t110 -91t84 -114 t53 -130t18.5 -137.5q0 -85 -28.5 -164.5t-88.5 -147.5h195v-215h-1706zM383 493h495q142 0 242 25t163 67.5t91.5 99.5t28.5 121q0 63 -25.5 124t-70.5 109t-107 77.5t-135 29.5q-14 0 -28.5 -1.5t-29.5 -3.5q-70 -12 -146.5 -53.5t-156 -119t-160.5 -195t-161 -280.5z M539 1614l160 143l164 -183l-161 -144z" />
<glyph unicode="&#x639;" horiz-adv-x="1225" arabic-form="isolated" d="M39 255q0 75 20 148.5t62 141.5q54 87 145 157q-43 31 -78 70.5t-59.5 85.5t-37.5 98t-13 108q0 91 35 171t95.5 140t141.5 95t173 35q74 0 140.5 -22.5t121.5 -62.5t96 -95.5t64 -121.5l-203 -67q-12 34 -33.5 62.5t-50 49t-63.5 32t-72 11.5q-48 0 -90 -18t-73.5 -49 t-49.5 -72.5t-18 -87.5q0 -47 18 -88.5t49.5 -72.5t73.5 -49t90 -18q56 2 118 8t131 6q24 0 48.5 -1t50.5 -3l-16 -215q-45 3 -86 3q-134 0 -231.5 -32.5t-160.5 -86t-93.5 -122t-30.5 -140.5q0 -65 25 -125.5t73 -107t118.5 -74.5t161.5 -28q98 0 218.5 36t264.5 120 l107 -186q-169 -98 -317.5 -141t-272.5 -43q-122 0 -229.5 41t-188 114t-127.5 174t-47 222z" />
<glyph unicode="&#x639;" horiz-adv-x="1225" arabic-form="final" d="M39 255q0 75 20 148.5t62 141.5q54 87 145 157q-43 31 -78 70.5t-59.5 85.5t-37.5 98t-13 108q0 91 35 171t95.5 140t141.5 95t173 35q74 0 140.5 -22.5t121.5 -62.5t96 -95.5t64 -121.5l-203 -67q-12 34 -33.5 62.5t-50 49t-63.5 32t-72 11.5q-48 0 -90 -18t-73.5 -49 t-49.5 -72.5t-18 -87.5q0 -47 18 -88.5t49.5 -72.5t73.5 -49t90 -18q56 2 118 8t131 6q24 0 48.5 -1t50.5 -3q5 -40 9 -81.5t13.5 -80.5t28 -73.5t53 -60.5t89 -41.5t135.5 -15.5h31v-214h-31q-125 1 -211.5 26.5t-144 72t-92 111t-55.5 142.5q-115 -9 -198.5 -44.5 t-138 -87.5t-80.5 -116t-26 -130q0 -65 25 -125.5t73 -107t118.5 -74.5t161.5 -28q98 0 218.5 36t264.5 120l107 -186q-169 -98 -317.5 -141t-272.5 -43q-122 0 -229.5 41t-188 114t-127.5 174t-47 222z" />
<glyph unicode="&#x639;" horiz-adv-x="1319" arabic-form="initial" d="M-6 279v215h232q-53 68 -82 150.5t-29 174.5q0 113 43 211.5t117.5 172t174.5 115.5t214 42q64 0 120.5 -12.5t111.5 -37.5q108 -49 186 -138.5t111 -203.5l-206 -60q-15 52 -45.5 95.5t-73.5 75t-95 49.5t-109 18q-70 0 -131 -26t-106.5 -70.5t-71.5 -104t-26 -126.5 q0 -65 25 -123t68 -102t101 -70.5t124 -29.5h560v-215h-1213z" />
<glyph unicode="&#x639;" horiz-adv-x="1402" arabic-form="medial" d="M-5 279v215h442l-294 419q-29 40 -28 91q0 52 35.5 113.5t108.5 114.5t184 88.5t261 35.5q74 0 139 -9.5t120 -26t100.5 -39t81.5 -47.5q75 -52 111.5 -113t36.5 -117q0 -51 -28 -91l-294 -419h436v-215h-1412zM336 1010l363 -516h10l363 516q-17 24 -49 47.5t-79 42 t-109 30t-137 11.5q-72 0 -132 -12t-105.5 -30.5t-77 -42t-47.5 -46.5z" />
<glyph unicode="&#x63a;" horiz-adv-x="1225" arabic-form="isolated" d="M39 255q0 75 20 148.5t62 141.5q54 87 145 157q-43 31 -78 70.5t-59.5 85.5t-37.5 98t-13 108q0 91 35 171t95.5 140t141.5 95t173 35q74 0 140.5 -22.5t121.5 -62.5t96 -95.5t64 -121.5l-203 -67q-12 34 -33.5 62.5t-50 49t-63.5 32t-72 11.5q-48 0 -90 -18t-73.5 -49 t-49.5 -72.5t-18 -87.5q0 -47 18 -88.5t49.5 -72.5t73.5 -49t90 -18q56 2 118 8t131 6q24 0 48.5 -1t50.5 -3l-16 -215q-45 3 -86 3q-134 0 -231.5 -32.5t-160.5 -86t-93.5 -122t-30.5 -140.5q0 -65 25 -125.5t73 -107t118.5 -74.5t161.5 -28q98 0 218.5 36t264.5 120 l107 -186q-169 -98 -317.5 -141t-272.5 -43q-122 0 -229.5 41t-188 114t-127.5 174t-47 222zM338 1786l160 143l164 -183l-161 -144z" />
<glyph unicode="&#x63a;" horiz-adv-x="1225" arabic-form="final" d="M39 255q0 75 20 148.5t62 141.5q54 87 145 157q-43 31 -78 70.5t-59.5 85.5t-37.5 98t-13 108q0 91 35 171t95.5 140t141.5 95t173 35q74 0 140.5 -22.5t121.5 -62.5t96 -95.5t64 -121.5l-203 -67q-12 34 -33.5 62.5t-50 49t-63.5 32t-72 11.5q-48 0 -90 -18t-73.5 -49 t-49.5 -72.5t-18 -87.5q0 -47 18 -88.5t49.5 -72.5t73.5 -49t90 -18q56 2 118 8t131 6q24 0 48.5 -1t50.5 -3q5 -40 9 -81.5t13.5 -80.5t28 -73.5t53 -60.5t89 -41.5t135.5 -15.5h31v-214h-31q-125 1 -211.5 26.5t-144 72t-92 111t-55.5 142.5q-115 -9 -198.5 -44.5 t-138 -87.5t-80.5 -116t-26 -130q0 -65 25 -125.5t73 -107t118.5 -74.5t161.5 -28q98 0 218.5 36t264.5 120l107 -186q-169 -98 -317.5 -141t-272.5 -43q-122 0 -229.5 41t-188 114t-127.5 174t-47 222zM338 1786l160 143l164 -183l-161 -144z" />
<glyph unicode="&#x63a;" horiz-adv-x="1319" arabic-form="initial" d="M-6 279v215h232q-53 68 -82 150.5t-29 174.5q0 113 43 211.5t117.5 172t174.5 115.5t214 42q64 0 120.5 -12.5t111.5 -37.5q108 -49 186 -138.5t111 -203.5l-206 -60q-15 52 -45.5 95.5t-73.5 75t-95 49.5t-109 18q-70 0 -131 -26t-106.5 -70.5t-71.5 -104t-26 -126.5 q0 -65 25 -123t68 -102t101 -70.5t124 -29.5h560v-215h-1213zM445 1671l160 143l164 -183l-161 -144z" />
<glyph unicode="&#x63a;" horiz-adv-x="1402" arabic-form="medial" d="M-5 279v215h442l-294 419q-29 40 -28 91q0 52 35.5 113.5t108.5 114.5t184 88.5t261 35.5q74 0 139 -9.5t120 -26t100.5 -39t81.5 -47.5q75 -52 111.5 -113t36.5 -117q0 -51 -28 -91l-294 -419h436v-215h-1412zM336 1010l363 -516h10l363 516q-17 24 -49 47.5t-79 42 t-109 30t-137 11.5q-72 0 -132 -12t-105.5 -30.5t-77 -42t-47.5 -46.5zM445 1671l160 143l164 -183l-161 -144z" />
<glyph unicode="&#x641;" horiz-adv-x="1783" arabic-form="isolated" d="M27 782v1l214 21q5 -60 28.5 -115.5t72 -98.5t124 -69.5t185.5 -27.5l93 1q-53 68 -82 150.5t-29 174.5q0 113 43 211.5t117.5 172t174.5 115.5t214 42q113 0 213 -42t175 -115t118.5 -172t43.5 -212t-43.5 -211t-118 -171.5t-174.5 -115.5t-214 -42h-531 q-114 1 -204.5 23.5t-159.5 62t-118.5 93.5t-81.5 117q-25 48 -40 100.5t-20 106.5zM742 1640l160 143l164 -183l-161 -144zM847 819q0 -65 25 -123t68 -102t101 -70.5t124 -29.5q76 0 141 25.5t112 70t73.5 103.5t26.5 126t-26 126.5t-71.5 104t-107 70.5t-131.5 26 t-131 -26t-106.5 -70.5t-71.5 -104t-26 -126.5z" />
<glyph unicode="&#x641;" horiz-adv-x="1845" arabic-form="final" d="M27 782v1l214 21q5 -60 28.5 -115.5t72 -98.5t124 -69.5t185.5 -27.5l93 1q-53 68 -82 150.5t-29 174.5q0 113 43 211.5t117.5 172t174.5 115.5t214 42q113 0 213 -42t175 -115t118.5 -172t43.5 -212q0 -93 -29 -175t-82 -150h235v-215h-1205q-114 1 -204.5 23.5 t-159.5 62t-118.5 93.5t-81.5 117q-25 48 -40 100.5t-20 106.5zM847 819q0 -65 25 -123t68 -102t101 -70.5t124 -29.5q76 0 141 25.5t112 70t73.5 103.5t26.5 126t-26 126.5t-71.5 104t-107 70.5t-131.5 26t-131 -26t-106.5 -70.5t-71.5 -104t-26 -126.5zM924 1655l160 143 l164 -183l-161 -144z" />
<glyph unicode="&#x641;" horiz-adv-x="1267" arabic-form="initial" d="M-5 279v215h232q-53 68 -82 150.5t-29 174.5q0 112 43 210.5t117.5 172t174.5 116t215 42.5q114 0 214 -42.5t174.5 -115.5t118 -172t43.5 -211t-43.5 -210t-118 -171.5t-174.5 -116t-214 -42.5h-671zM331 819q0 -68 26 -127t71.5 -103.5t106.5 -70t131 -25.5 q69 0 130.5 25.5t107 70t72 103.5t26.5 127q0 67 -26.5 127t-72 104t-106.5 70t-131 26t-131 -26t-106.5 -70t-71.5 -104t-26 -127zM445 1671l160 143l164 -183l-161 -144z" />
<glyph unicode="&#x641;" horiz-adv-x="1324" arabic-form="medial" d="M-5 279v215h232q-53 68 -82 150.5t-29 174.5q0 112 43 210.5t117.5 172t174.5 116t215 42.5q114 0 214 -42.5t174.5 -115.5t118 -172t43.5 -211q0 -92 -29.5 -174.5t-81.5 -150.5h224v-215h-1334zM331 819q0 -68 26 -127t71.5 -103.5t106.5 -70t131 -25.5 q69 0 130.5 25.5t107 70t72 103.5t26.5 127q0 67 -26.5 127t-72 104t-106.5 70t-131 26t-131 -26t-106.5 -70t-71.5 -104t-26 -127zM445 1671l160 143l164 -183l-161 -144z" />
<glyph unicode="&#x642;" horiz-adv-x="1465" arabic-form="isolated" d="M22 270l170 130q76 -99 158.5 -157.5t167.5 -83.5q32 -10 64 -14t64 -4q91 0 175.5 33.5t156.5 95.5q-26 -5 -52 -7.5t-53 -2.5q-114 0 -214.5 43.5t-175 118t-117.5 174.5t-43 214t43 214.5t118 175t175 117.5t214 43q113 0 213 -43t175 -117.5t118.5 -175t43.5 -214.5 v-1q0 -170 -51.5 -316.5t-137.5 -259.5q-69 -91 -156.5 -157.5t-187.5 -104.5q-116 -45 -243 -45q-94 0 -188 27q-117 33 -227.5 110.5t-209.5 206.5zM537 810q0 -69 26.5 -130t72.5 -106.5t107 -72t130 -26.5t130 26.5t106.5 72t72 106.5t26.5 130t-26.5 130.5t-72 107 t-106.5 72t-130 26.5t-130 -26.5t-107 -72t-72.5 -107t-26.5 -130.5zM548 1659l160 143l120 -135l151 135l164 -183l-161 -144l-120 135l-151 -135z" />
<glyph unicode="&#x642;" horiz-adv-x="1517" arabic-form="final" d="M-4 270l170 130q76 -99 159 -157.5t168 -83.5q64 -18 127 -18q44 0 86 8t83 23q47 17 90 44.5t82 62.5h-132q-114 0 -211 40.5t-168.5 111.5t-112 168.5t-40.5 210.5q0 114 43 214.5t118 175t175 117.5t214 43t214 -43t175 -118t118 -175t43 -214q0 -85 -14 -164.5 t-37 -151.5h181v-215h-286q-68 -109 -167 -187.5t-210 -120.5q-58 -23 -119 -33.5t-124 -11.5q-94 0 -188 27q-116 33 -227 110.5t-210 206.5zM512 810q0 -69 23.5 -127.5t66 -100.5t100.5 -65.5t127 -23.5v1h287q32 69 49 148.5t18 167.5q0 69 -27 130.5t-72.5 107 t-106.5 72t-130 26.5t-130 -26.5t-106.5 -72t-72 -107t-26.5 -130.5zM548 1659l160 143l120 -135l151 135l164 -183l-161 -144l-120 135l-151 -135z" />
<glyph unicode="&#x642;" horiz-adv-x="1267" arabic-form="initial" d="M-5 279v215h232q-53 68 -82 150.5t-29 174.5q0 112 43 210.5t117.5 172t174.5 116t215 42.5q114 0 214 -42.5t174.5 -115.5t118 -172t43.5 -211t-43.5 -210t-118 -171.5t-174.5 -116t-214 -42.5h-671zM283 1676l160 143l120 -135l151 135l164 -183l-161 -144l-120 135 l-151 -135zM331 819q0 -68 26 -127t71.5 -103.5t106.5 -70t131 -25.5q69 0 130.5 25.5t107 70t72 103.5t26.5 127q0 67 -26.5 127t-72 104t-106.5 70t-131 26t-131 -26t-106.5 -70t-71.5 -104t-26 -127z" />
<glyph unicode="&#x642;" horiz-adv-x="1324" arabic-form="medial" d="M-5 279v215h232q-53 68 -82 150.5t-29 174.5q0 112 43 210.5t117.5 172t174.5 116t215 42.5q114 0 214 -42.5t174.5 -115.5t118 -172t43.5 -211q0 -92 -29.5 -174.5t-81.5 -150.5h224v-215h-1334zM283 1676l160 143l120 -135l151 135l164 -183l-161 -144l-120 135 l-151 -135zM331 819q0 -68 26 -127t71.5 -103.5t106.5 -70t131 -25.5q69 0 130.5 25.5t107 70t72 103.5t26.5 127q0 67 -26.5 127t-72 104t-106.5 70t-131 26t-131 -26t-106.5 -70t-71.5 -104t-26 -127z" />
<glyph unicode="&#x643;" horiz-adv-x="1689" arabic-form="isolated" d="M40 782l213 22q7 -61 31 -117t71.5 -98.5t123 -68.5t185.5 -27l582 1q73 86 110.5 211t37.5 280q0 51 -4.5 104t-12.5 110q-17 107 -45 206.5t-67 202.5l200 77q43 -110 75 -226t49 -228q10 -64 14.5 -125t4.5 -120q0 -210 -58.5 -380t-173.5 -287l-36 -38l-677 -2 q-114 1 -204.5 23.5t-159.5 62t-118.5 93.5t-81.5 117q-24 47 -39 100t-20 107zM507 938l292 167q-47 22 -90.5 41.5t-76.5 41t-52.5 47.5t-19.5 61q0 43 50 80l328 234l104 -146l-235 -167q49 -17 93 -38.5t77.5 -47.5t53 -55t19.5 -60q0 -53 -65 -91l-389 -222z" />
<glyph unicode="&#x643;" horiz-adv-x="1741" arabic-form="final" d="M40 782l213 22q7 -61 31 -117t71.5 -98.5t123 -68.5t185.5 -27l582 1q73 86 110.5 211t37.5 280q0 51 -4.5 104t-12.5 110q-17 107 -45 206.5t-67 202.5l200 77q43 -110 75 -226t49 -228q10 -64 14.5 -125t4.5 -120q0 -142 -27 -265.5t-80 -226.5h250v-215h-1088 q-114 1 -204.5 23.5t-159.5 62t-118.5 93.5t-81.5 117q-24 47 -39 100t-20 107zM507 938l292 167q-47 22 -90.5 41.5t-76.5 41t-52.5 47.5t-19.5 61q0 43 50 80l328 234l104 -146l-235 -167q49 -17 93 -38.5t77.5 -47.5t53 -55t19.5 -60q0 -53 -65 -91l-389 -222z" />
<glyph unicode="&#x643;" horiz-adv-x="1517" arabic-form="initial" d="M-5 279v215l954 -1q80 0 137 16.5t93 43.5t53 62.5t17 74.5t-17 75t-53 63t-93 43.5t-137 16.5h-784l-66 192l840 657l132 -169l-595 -465l473 -1q136 0 233.5 -36.5t160 -94.5t92 -131.5t29.5 -148.5t-29.5 -149t-92 -132.5t-160 -94.5t-233.5 -36h-954z" />
<glyph unicode="&#x643;" horiz-adv-x="1585" arabic-form="medial" d="M-5 279v215l954 -1q80 0 137 16.5t93 43.5t53 62.5t17 74.5t-17 75t-53 63t-93 43.5t-137 16.5h-784l-66 192l840 657l132 -169l-595 -465l473 -1q136 0 233.5 -36.5t160 -94.5t92 -131.5t29.5 -148.5q0 -51 -13.5 -101t-40.5 -96h179v-215h-1594z" />
<glyph unicode="&#x644;" horiz-adv-x="1303" arabic-form="isolated" d="M49 650q0 78 22.5 158.5t72.5 165.5l184 -110q-34 -57 -49.5 -111t-15.5 -103q0 -75 30 -139.5t78.5 -112.5t109.5 -75t122 -27q93 0 169.5 27.5t131 89t84.5 160.5t30 243q0 151 -38 349t-121 448l203 67q90 -269 130 -485t40 -385q0 -145 -27 -257t-78 -197 q-42 -72 -99.5 -124t-125 -86t-143.5 -49.5t-156 -14.5q-75 1 -145.5 22.5t-132 59.5t-112.5 90.5t-87.5 115t-56.5 134t-20 146.5z" />
<glyph unicode="&#x644;" horiz-adv-x="1366" arabic-form="final" d="M49 650q0 78 22.5 158.5t72.5 165.5l184 -110q-34 -57 -49.5 -111t-15.5 -103q0 -75 30 -139.5t78.5 -112.5t109.5 -75t122 -27q93 0 169.5 27.5t131 89t84.5 160.5t30 243q0 151 -38 349t-121 448l203 67q90 -269 130 -485t40 -385q0 -181 -44 -316h188v-215h-304 q-88 -103 -210 -151t-259 -46q-75 1 -145.5 22.5t-132 59.5t-112.5 90.5t-87.5 115t-56.5 134t-20 146.5z" />
<glyph unicode="&#x644;" horiz-adv-x="667" arabic-form="initial" d="M-10 279v215h250q72 88 108.5 214.5t36.5 282.5q0 99 -15 207q-16 103 -44 206.5t-67 203.5l200 77h1q43 -115 74.5 -226.5t47.5 -229.5q8 -62 13 -121t5 -116q0 -106 -15.5 -204t-45 -184.5t-73.5 -160.5t-102 -132l-32 -32h-342z" />
<glyph unicode="&#x644;" horiz-adv-x="730" arabic-form="medial" d="M-10 279v215h250q72 88 108.5 214.5t36.5 282.5q0 99 -15 207q-16 103 -44 206.5t-67 203.5l200 77h1q43 -115 74.5 -226.5t47.5 -229.5q8 -62 13 -121t5 -116q-1 -143 -27.5 -268t-78.5 -230h246v-215h-750z" />
<glyph unicode="&#x645;" horiz-adv-x="1517" arabic-form="isolated" d="M37 270q0 114 45 206q41 85 116 144t184 89q-9 49 -9 101q0 114 43 214t117.5 175t175 118t214.5 43q76 0 146 -19.5t131 -55t111 -85.5t86 -111.5t55.5 -131.5t19.5 -147q0 -114 -43 -214t-117.5 -175t-174.5 -118t-214 -43q-115 0 -214.5 43t-174.5 118 q-20 20 -37.5 42t-33.5 45q-109 -23 -160.5 -82t-51.5 -157q0 -72 28 -161.5t84 -194.5l-189 -101q-70 131 -103.5 245.5t-33.5 212.5zM587 810q0 -69 26.5 -130t72.5 -106.5t107 -72t130 -26.5t130 26.5t106.5 72t72 106.5t26.5 130q0 70 -26.5 131t-72.5 106.5t-106.5 72 t-129.5 26.5t-130 -26.5t-107 -72t-72.5 -107t-26.5 -130.5z" />
<glyph unicode="&#x645;" horiz-adv-x="1564" arabic-form="final" d="M41 242q0 108 45 194q39 76 110.5 127.5t168.5 82.5l6 164q0 114 43 214t117.5 175t175 118t214.5 43q76 0 146 -19.5t131 -55t111 -85.5t86 -111.5t55.5 -131.5t19.5 -147q0 -91 -30.5 -171t-84.5 -145h214v-215h-730l15 215h54q67 3 130 28t111.5 67t77.5 98.5 t29 122.5q0 70 -26.5 131t-72.5 106.5t-106.5 72t-129.5 26.5t-130 -26.5t-107 -72t-72.5 -107t-26.5 -130.5l-29 -342q-301 -25 -301 -228q0 -64 26 -145.5t80 -181.5l-189 -101q-67 127 -99 233t-32 197z" />
<glyph unicode="&#x645;" horiz-adv-x="1361" arabic-form="initial" d="M-5 279v214l137 1q1 5 4 22t6 36t6 36t4 23q14 85 30 170t41.5 164t64.5 149t98 125t142.5 91t197.5 48q7 2 15 2h20q113 0 213 -43t175 -118t118.5 -175t43.5 -214t-43.5 -214t-118 -175t-174.5 -118t-214 -43q-102 0 -188 33.5t-163 92.5v1l137 165q47 -37 99 -57 t115 -20q73 0 135 27.5t106 75.5t69 112t25 136q-3 66 -30.5 124t-73 101.5t-105 68.5t-126.5 25q-3 1 -13 1q-74 -8 -128 -35t-93.5 -68.5t-65.5 -95t-44 -114t-30 -126t-23 -130.5q-9 -55 -18 -108t-23 -107q-9 -37 -37.5 -59.5t-65.5 -22.5z" />
<glyph unicode="&#x645;" horiz-adv-x="1402" arabic-form="medial" d="M-9 279v214l135 1q1 5 4 22t6 36t6 36t4 23q14 85 30 170t41.5 164t64 149t97.5 125t142 91t198 48q6 2 14 2h21q113 0 213 -43.5t175 -118t118.5 -174.5t43.5 -214q0 -91 -27 -170.5t-75 -145.5h205v-215h-918v215h290q66 3 123 28t99 67t65.5 98.5t23.5 122.5 q0 68 -26.5 129t-72 106.5t-106.5 72.5t-131 27q-3 1 -12 1q-74 -8 -128 -35t-93.5 -68.5t-65.5 -95t-44 -114t-30 -126t-23 -130.5q-9 -55 -18.5 -108t-22.5 -107q-9 -37 -38 -59.5t-66 -22.5z" />
<glyph unicode="&#x646;" horiz-adv-x="1334" arabic-form="isolated" d="M40 566q0 95 29 201t107 215l173 -127q-54 -74 -74 -148t-20 -140q0 -101 32 -174.5t84.5 -121t119.5 -70t138 -22.5q82 0 160.5 26t140.5 75.5t100 121t38 161.5q0 97 -48 214.5t-160 257.5l167 134q136 -170 195.5 -322.5t59.5 -283.5q0 -65 -13 -123.5t-36 -111.5 q-46 -103 -125.5 -178t-179.5 -120q-70 -32 -145.5 -48.5t-152.5 -16.5q-73 0 -145 16t-137.5 48t-121.5 81t-97.5 116t-65 152t-23.5 188zM411 1312l160 143l164 -183l-161 -144z" />
<glyph unicode="&#x646;" horiz-adv-x="1418" arabic-form="final" d="M40 566q0 95 29 201t107 215l173 -127q-54 -74 -74 -148t-20 -140q0 -101 32 -174.5t84.5 -121t119.5 -70t138 -22.5q82 0 160.5 26t140.5 75.5t100 121t38 161.5q0 97 -48 214.5t-160 257.5l167 134q136 -170 195.5 -322.5t59.5 -283.5q0 -18 -1 -35t-3 -34h145v-215 h-215q-48 -85 -120.5 -147.5t-159.5 -101.5q-70 -32 -145.5 -48.5t-152.5 -16.5q-73 0 -145 16t-137.5 48t-121.5 81t-97.5 116t-65 152t-23.5 188zM411 1312l160 143l164 -183l-161 -144z" />
<glyph unicode="&#x646;" horiz-adv-x="652" arabic-form="initial" d="M-10 279v215l198 3q39 -2 70.5 16.5t54 47t36 63t18.5 66.5q8 63 -10.5 136t-66.5 155q-8 15 -17.5 30t-20.5 31l177 120q13 -18 24 -36.5t22 -36.5q66 -103 91.5 -220.5t7.5 -226.5q-11 -69 -40.5 -131t-77.5 -110t-114.5 -79.5t-153.5 -40.5zM124 1447l160 143 l164 -183l-161 -144z" />
<glyph unicode="&#x646;" horiz-adv-x="725" arabic-form="medial" d="M-5 279v215h243l15 9q105 73 119 187q8 63 -10.5 136t-66.5 155q-8 15 -17.5 30t-20.5 31l177 120q13 -18 24 -36.5t22 -36.5q66 -114 91.5 -221.5t13.5 -204.5q-12 -94 -55 -169h199v-215h-734zM124 1447l160 143l164 -183l-161 -144z" />
<glyph unicode="&#x647;" horiz-adv-x="1194" arabic-form="isolated" d="M36 810q0 114 43 214t117.5 175t175 118t214.5 43q76 0 146 -19.5t131 -55t111 -85.5t86 -111.5t55.5 -131.5t19.5 -147q0 -114 -43 -214t-117.5 -175t-174.5 -118t-214 -43q-115 0 -215 43.5t-174.5 118.5t-117.5 175t-43 213zM250 810q0 -69 26.5 -130t72.5 -106.5 t107 -72t130 -26.5t130 26.5t106.5 72t72 106.5t26.5 130q0 70 -26.5 131t-72.5 106.5t-106.5 72t-129.5 26.5t-130 -26.5t-107 -72t-72.5 -107t-26.5 -130.5z" />
<glyph unicode="&#x647;" horiz-adv-x="1355" arabic-form="final" d="M25 810q0 79 21.5 151.5t60 135.5t92.5 114t119 85.5t139 51t153 10.5q114 -12 197.5 -48t142.5 -91t97.5 -125t64 -149t41.5 -164t30 -170q5 -30 10 -59l10 -58l159 -1v-214l-246 1q-37 0 -66 22.5t-38 59.5q-13 54 -22 107t-18 108q-11 65 -23 130.5t-30 126t-44.5 114 t-65.5 95t-93 68.5t-128 35q-72 2 -135 -23.5t-110.5 -71.5t-75 -108.5t-27.5 -132.5q0 -69 26.5 -130t72 -106.5t106.5 -72t130 -26.5q63 0 115.5 20.5t98.5 56.5l137 -165v-1q-77 -60 -163.5 -93t-187.5 -33q-114 0 -214.5 43.5t-175 118t-117.5 174.5t-43 214z" />
<glyph unicode="&#x647;" horiz-adv-x="1637" arabic-form="initial" d="M-5 279v215h153q-28 74 -28 164q0 65 14.5 133t45.5 137q22 50 56 104q109 166 253 245l69 190q221 -80 389 -170.5t288.5 -185t196 -188t111.5 -178.5q40 -93 38 -174q0 -69 -24.5 -126.5t-69.5 -99t-108.5 -65t-142.5 -23.5q-97 0 -214.5 37t-250.5 122 q-77 -67 -160.5 -102t-164.5 -35q-5 0 -9 0.5t-9 0.5v-1h-433zM334 653q0 -71 29 -115t89 -44q32 0 68.5 14t73.5 40.5t71.5 63.5t63.5 83q42 64 63 134t21 131q0 48 -13.5 85.5t-42.5 57.5h-1q-1 0 -2 1q-24 15 -57 15t-70 -14t-74 -40.5t-72 -63.5t-63 -82l-1 -1 q-42 -70 -62.5 -138t-20.5 -127zM912 581q97 -59 177 -85t141 -26q137 0 137 101q0 39 -21 90q-32 78 -110 164.5t-210 176.5q1 -11 1.5 -23t0.5 -24q0 -100 -29.5 -190t-86.5 -184z" />
<glyph unicode="&#x647;" horiz-adv-x="1215" arabic-form="medial" d="M-11 279v214h158q9 114 39.5 223t71.5 207q41 99 91.5 170.5t106 119t114 73t116.5 31.5q55 6 107 -4t98 -32.5t85.5 -56.5t68.5 -77q28 -43 45.5 -92.5t21.5 -103.5t-7.5 -110.5t-40.5 -113.5q-32 -63 -88.5 -123.5t-141.5 -114.5t-201 -99.5t-267 -77.5v-1 q8 -47 24.5 -91t42.5 -84q29 -45 66.5 -74.5t79 -46t84.5 -20.5t84 3q54 9 102 36t74 74q18 38 7.5 89.5t-63.5 114.5l82 182h275v-215h-93q24 -72 19 -138.5t-34 -125.5q-23 -48 -58.5 -86.5t-79.5 -67.5t-94 -47.5t-102 -26.5q-69 -11 -141.5 -4.5t-142 33.5t-132 76.5 t-111.5 124.5q-41 60 -64.5 124t-35.5 134q-1 1 -1 4h-165zM367 531q112 26 197 59t146.5 71t101.5 79.5t62 83.5q29 57 24 109.5t-32 93.5q-26 38 -67.5 60t-89.5 17q-32 -3 -64.5 -19.5t-65 -48t-63.5 -80t-59 -115.5q-30 -72 -54 -150.5t-36 -159.5z" />
<glyph unicode="&#x648;" horiz-adv-x="1194" arabic-form="isolated" d="M46 810q0 115 42.5 214.5t117.5 174.5t175 118t215 43t214 -43t174 -118t118 -174.5t43 -214.5q0 -141 -20.5 -258.5t-58 -213t-90 -170.5t-116.5 -131q-65 -57 -139 -95.5t-155 -62.5t-167.5 -34.5t-175.5 -10.5v215q71 0 139.5 7.5t132 25t120 46t104.5 70.5 q53 45 92 106q-50 -21 -104 -32.5t-111 -11.5q-115 0 -215 43t-175 118t-117.5 174.5t-42.5 214.5zM260 810q0 -69 26 -130t72 -107t107 -72t131 -26q69 0 130 26t106 72q46 46 72.5 107t26.5 130q0 70 -26.5 130.5t-72.5 106.5q-45 46 -106 72.5t-130 26.5 q-70 0 -131 -26.5t-107 -72.5t-72 -106.5t-26 -130.5z" />
<glyph unicode="&#x648;" horiz-adv-x="1241" arabic-form="final" d="M39 810q0 114 43.5 214.5t118 175t174.5 117.5t214 43t214 -43t175 -117.5t118 -174.5t43 -215q0 -176 -32 -316h139v-215h-211q-35 -75 -80.5 -134.5t-100.5 -107.5q-65 -57 -139 -95.5t-155 -62.5t-167.5 -34.5t-175.5 -10.5v215q71 0 139.5 7.5t132 25t120 46 t104.5 70.5q42 36 74 81h-198q-114 0 -214 40t-175 111.5t-118 168.5t-43 211zM254 810q0 -69 26.5 -127t72 -100.5t106.5 -66t130 -23.5v1h298q18 66 27.5 144t10.5 172q0 69 -26.5 130t-72.5 107t-107 72.5t-130 26.5t-130 -26.5t-106.5 -72t-72 -107t-26.5 -130.5z" />
<glyph unicode="&#x649;" horiz-adv-x="1496" arabic-form="isolated" d="M33.5 708q2.5 46 14 96.5t33.5 104t58 107.5q31 47 64 85t78 77l142 -161q-29 -26 -56.5 -56.5t-47.5 -62.5q-48 -72 -61.5 -138.5t-8.5 -117.5q9 -94 50 -157.5t104 -102.5q55 -35 121.5 -53t138.5 -23q75 -5 149.5 4t141.5 30q88 28 150 69.5t77 91.5q11 38 -6 66.5 t-51 50.5t-79 39t-88 32q-44 15 -84.5 30.5t-75 35t-60.5 44.5t-41 61q-27 66 -27.5 137.5t24.5 141.5q34 96 107 174q36 38 81.5 69.5t99.5 54.5q49 20 104 31.5t116.5 12.5t128 -10t137.5 -36l-71 -203q-102 35 -185 34t-147 -27q-33 -14 -60 -32.5t-48 -41.5 q-43 -44 -61 -96q-11 -34 -12 -66.5t11 -60.5q1 -2 12 -6.5t29.5 -11t42 -14.5t49.5 -17q51 -18 104 -37.5t100.5 -45t86 -58.5t61 -77.5t26 -102.5t-18.5 -132q-16 -53 -50 -99t-82 -84.5t-108 -69.5t-128 -52q-85 -26 -179 -38t-189 -6q-97 7 -189.5 33t-171.5 76 q-51 33 -94.5 75t-76.5 94t-54.5 115t-28.5 138q-4 40 -1.5 86z" />
<glyph unicode="&#x649;" horiz-adv-x="1866" arabic-form="final" d="M49 761q0 97 32.5 203.5t98.5 216.5l184 -110q-52 -88 -76.5 -167t-24.5 -150q0 -122 85.5 -191.5t251.5 -69.5h435l-205 342q-29 58 -45 106t-16 99q0 69 26 128.5t70 102.5t101.5 67.5t121.5 24.5q41 0 82.5 -11t80.5 -34.5t74.5 -60t65.5 -87.5l391 -676h89v-215 l-151 1q-32 0 -56.5 15.5t-38.5 40.5l-419 727q-26 45 -58 65t-62 20q-20 0 -38.5 -8t-32.5 -22t-22.5 -33.5t-8.5 -43.5q0 -43 29 -94q1 -1 1 -2l302 -504q15 -26 15 -54q0 -20 -8 -39.5t-22 -34.5t-33.5 -24.5t-42.5 -9.5h-5h-620q-103 0 -186 21.5t-149 60.5 q-108 65 -163 171q-55 101 -53 229z" />
<glyph unicode="&#x64a;" horiz-adv-x="1496" arabic-form="isolated" d="M33.5 708q2.5 46 14 96.5t33.5 104t58 107.5q31 47 64 85t78 77l142 -161q-29 -26 -56.5 -56.5t-47.5 -62.5q-48 -72 -61.5 -138.5t-8.5 -117.5q9 -94 50 -157.5t104 -102.5q55 -35 121.5 -53t138.5 -23q75 -5 149.5 4t141.5 30q88 28 150 69.5t77 91.5q11 38 -6 66.5 t-51 50.5t-79 39t-88 32q-44 15 -84.5 30.5t-75 35t-60.5 44.5t-41 61q-27 66 -27.5 137.5t24.5 141.5q34 96 107 174q36 38 81.5 69.5t99.5 54.5q49 20 104 31.5t116.5 12.5t128 -10t137.5 -36l-71 -203q-102 35 -185 34t-147 -27q-33 -14 -60 -32.5t-48 -41.5 q-43 -44 -61 -96q-11 -34 -12 -66.5t11 -60.5q1 -2 12 -6.5t29.5 -11t42 -14.5t49.5 -17q51 -18 104 -37.5t100.5 -45t86 -58.5t61 -77.5t26 -102.5t-18.5 -132q-16 -53 -50 -99t-82 -84.5t-108 -69.5t-128 -52q-85 -26 -179 -38t-189 -6q-97 7 -189.5 33t-171.5 76 q-51 33 -94.5 75t-76.5 94t-54.5 115t-28.5 138q-4 40 -1.5 86zM466 -183l160 143l120 -135l151 135l164 -183l-161 -144l-120 135l-151 -135z" />
<glyph unicode="&#x64a;" horiz-adv-x="1866" arabic-form="final" d="M49 761q0 97 32.5 203.5t98.5 216.5l184 -110q-52 -88 -76.5 -167t-24.5 -150q0 -122 85.5 -191.5t251.5 -69.5h435l-205 342q-29 58 -45 106t-16 99q0 69 26 128.5t70 102.5t101.5 67.5t121.5 24.5q41 0 82.5 -11t80.5 -34.5t74.5 -60t65.5 -87.5l391 -676h89v-215 l-151 1q-32 0 -56.5 15.5t-38.5 40.5l-419 727q-26 45 -58 65t-62 20q-20 0 -38.5 -8t-32.5 -22t-22.5 -33.5t-8.5 -43.5q0 -43 29 -94q1 -1 1 -2l302 -504q15 -26 15 -54q0 -20 -8 -39.5t-22 -34.5t-33.5 -24.5t-42.5 -9.5h-5h-620q-103 0 -186 21.5t-149 60.5 q-108 65 -163 171q-55 101 -53 229zM513 -33l160 143l120 -135l151 135l164 -183l-161 -144l-120 135l-151 -135z" />
<glyph unicode="&#x64a;" horiz-adv-x="652" arabic-form="initial" d="M-10 279v215l198 3q39 -2 70.5 16.5t54 47t36 63t18.5 66.5q8 63 -10.5 136t-66.5 155q-8 15 -17.5 30t-20.5 31l177 120q13 -18 24 -36.5t22 -36.5q66 -103 91.5 -220.5t7.5 -226.5q-11 -69 -40.5 -131t-77.5 -110t-114.5 -79.5t-153.5 -40.5zM51 -33l160 143l120 -135 l151 135l164 -183l-161 -144l-120 135l-151 -135z" />
<glyph unicode="&#x64a;" horiz-adv-x="725" arabic-form="medial" d="M-5 279v215h243l15 9q105 73 119 187q8 63 -10.5 136t-66.5 155q-8 15 -17.5 30t-20.5 31l177 120q13 -18 24 -36.5t22 -36.5q66 -114 91.5 -221.5t13.5 -204.5q-12 -94 -55 -169h199v-215h-734zM51 -33l160 143l120 -135l151 135l164 -183l-161 -144l-120 135l-151 -135 z" />
<glyph unicode=" "  horiz-adv-x="435" />
<glyph unicode="&#x09;" horiz-adv-x="435" />
<glyph unicode="&#xa0;" horiz-adv-x="435" />
<glyph unicode="!" horiz-adv-x="481" d="M63 458l182 183l183 -183l-183 -183zM66 1413l251 102q8 -128 18.5 -246.5t10.5 -222.5t-18 -190t-66 -150l-81 67q19 64 12.5 138t-27 155.5t-48.5 169t-52 177.5z" />
<glyph unicode="&#x22;" horiz-adv-x="603" d="M107 1030v485h144v-485h-144zM352 1030v485h145v-485h-145z" />
<glyph unicode="#" d="M32 651l23 163h168l31 218h-169l23 163h170l49 348h170l-50 -348h173l50 348h170l-50 -348h168l-23 -163h-169l-31 -218h170l-23 -163h-169l-51 -353h-170l51 353h-173l-51 -353h-169l50 353h-168zM392 814h174l31 218h-173z" />
<glyph unicode="$" d="M53 649l1 31h242q-5 -114 43 -169q39 -41 108 -52v373q-189 60 -275 137q-92 84 -92 224q0 170 111 270q98 87 256 97v125h81v-123q173 -8 271 -94q108 -96 108 -272h-228q0 98 -43 141q-34 34 -108 40v-337l22 -7q209 -60 296 -147t87 -238q0 -176 -120 -279 q-108 -95 -285 -103v-173h-81v172q-189 12 -291.5 107.5t-102.5 276.5zM306 1220q0 -62 57 -106q31 -24 84 -46v307q-56 -8 -91 -38q-50 -42 -50 -117zM528 458q69 7 112 46q53 46 53 127q0 69 -47 114q-37 35 -118 61v-348z" />
<glyph unicode="%" horiz-adv-x="1026" d="M32 1364l183 183l183 -183l-183 -184zM285 149l255 1373l180 160l-270 -1392zM606 562l183 183l183 -183l-183 -185z" />
<glyph unicode="&#x26;" horiz-adv-x="1287" d="M97 631q0 141 84 239q59 70 187 147l-7 8q-48 57 -75.5 123t-27.5 121q0 142 90 225.5t245 83.5q143 0 227 -81.5t84 -219.5q0 -103 -71 -185q-49 -59 -142 -116l189 -230l17 34q43 92 52 183h220q-12 -128 -75 -261q-33 -69 -73 -127l228 -275h-295l-87 104 q-73 -63 -134 -92q-89 -41 -231 -41q-186 0 -295.5 97t-109.5 263zM347 645q0 -80 51 -125q50 -44 139 -44q60 0 117 33q36 21 79 58l-78 94l-160 198q-48 -34 -81 -67q-67 -68 -67 -147zM485 1288q0 -27 10.5 -56t30.5 -52l51 -63q35 25 62 51q55 56 55 110 q0 52 -27.5 81.5t-76.5 29.5q-50 0 -78 -27q-27 -26 -27 -74z" />
<glyph unicode="'" horiz-adv-x="352" d="M107 1030v485h144v-485h-144z" />
<glyph unicode="(" horiz-adv-x="416" d="M48 940q0 194 39 387t122 402h151q-73 -182 -109.5 -380.5t-36.5 -408.5q0 -211 36.5 -409.5t109.5 -381.5h-153q-81 209 -120 401.5t-39 389.5z" />
<glyph unicode=")" horiz-adv-x="416" d="M47 149q73 183 109.5 381.5t36.5 409.5q0 210 -36.5 408.5t-109.5 380.5h151q82 -209 121 -402t39 -387q0 -197 -39 -389.5t-120 -401.5h-152z" />
<glyph unicode="*" horiz-adv-x="891" d="M95 1269l44 138l239 -82v257h134v-257l236 82l48 -138l-251 -68l173 -211l-119 -88l-155 224l-152 -219l-121 81l171 213z" />
<glyph unicode="+" horiz-adv-x="1041" d="M71 649v205h347v346h205v-346h346v-205h-346v-346h-205v346h-347z" />
<glyph unicode="," horiz-adv-x="495" d="M114 0v96q90 30 121 88q23 40 27 116h-148v259h267v-223q0 -139 -65 -221t-202 -115z" />
<glyph unicode="-" horiz-adv-x="810" d="M60 745l66 206l621 -3l-66 -205z" />
<glyph unicode="." horiz-adv-x="505" d="M63 458l182 183l183 -183l-183 -183z" />
<glyph unicode="/" horiz-adv-x="559" d="M65 149l254 1373l180 160l-269 -1392z" />
<glyph unicode="0" horiz-adv-x="1019" d="M59 871q-1 78 8.5 157.5t32 152.5t57.5 136.5t85.5 110t116.5 73.5t150 27t150 -27t116 -73.5t85 -110t57 -136.5t32 -152t10 -158q0 -78 -10 -157t-32 -152t-57 -137t-85 -111t-116 -74t-150 -27t-150 27t-116.5 73.5t-85.5 110t-57.5 137t-32 152.5t-8.5 158zM339 871 q0 -225 42 -331.5t128 -106.5q87 0 129 107.5t42 330.5q0 224 -42 332t-129 108q-86 0 -128 -107t-42 -333z" />
<glyph unicode="1" horiz-adv-x="1019" d="M154 1260l295 247h276v-1270h-268v986q-54 -36 -113.5 -78t-109.5 -76z" />
<glyph unicode="2" horiz-adv-x="1019" d="M80 1404q101 66 198 96t201 30q94 0 171 -32t131.5 -86.5t84.5 -126t30 -150.5q0 -67 -22 -130t-59.5 -122t-85.5 -114t-100.5 -106t-104.5 -97t-97 -88h508v-241h-805l-29 212q43 45 96 95.5t107.5 104.5t107 110.5t94.5 114t70 114t33 111.5q-4 62 -27.5 102.5 t-59.5 62.5t-81 27t-93 -4.5t-94.5 -31t-84.5 -53.5z" />
<glyph unicode="3" horiz-adv-x="1019" d="M90 296l58 182q37 -27 87 -41t103 -16t104 7t91 29.5t65 51t25 71.5q0 36 -22 72.5t-66.5 65.5t-112 48t-157.5 20l-10 187q46 6 102.5 21.5t107 41.5t86 61.5t38.5 82.5q-4 44 -25 74t-53 47.5t-72 23t-81.5 2t-81.5 -15.5t-71 -30l-73 183q58 31 134.5 48.5t156 18 t156.5 -17t137.5 -56t97.5 -99t37 -146.5q0 -85 -52 -163t-157 -133q125 -57 184.5 -139t59.5 -197q0 -98 -40.5 -168.5t-107 -115t-151 -65t-173 -19.5t-173.5 22.5t-151 61.5z" />
<glyph unicode="4" horiz-adv-x="1019" d="M33 525v235l613 763h173v-750h122v-248h-122v-288h-254v288h-532zM279 773h287l4 353z" />
<glyph unicode="5" horiz-adv-x="1019" d="M138 260l74 185q80 -29 160.5 -26t144.5 30.5t103.5 75.5t39.5 108q0 70 -33 109.5t-89 59t-130.5 24t-158.5 4.5h-67l-2 677h673v-231h-441v-204q122 -2 218 -32t162.5 -86t101 -137t33.5 -184q1 -99 -36 -173.5t-100 -126t-144.5 -81t-169.5 -38t-176 3.5t-163 42z" />
<glyph unicode="6" horiz-adv-x="1019" d="M87 679q0 113 37.5 231t106.5 230t166.5 211.5t217.5 175.5q12 -14 30 -37.5t37 -48t36.5 -46.5t26.5 -33q-223 -145 -312 -316q23 6 49 9.5t51 3.5q75 0 147.5 -27t130.5 -79.5t93.5 -130.5t35.5 -179q0 -94 -31.5 -172.5t-88 -135.5t-134.5 -88.5t-172 -31.5 q-103 0 -182.5 34t-134 95.5t-82.5 147t-28 187.5zM338.5 671.5q5.5 -59.5 29.5 -109t67 -81.5t103 -30q40 0 71.5 18t53 45t33 58t11.5 58q-5 43 -27 78t-54.5 60.5t-72.5 39.5t-82 14q-32 0 -63.5 -9t-59.5 -28q-15 -54 -9.5 -113.5z" />
<glyph unicode="7" horiz-adv-x="1019" d="M82 1281v226h814l-9 -212l-417 -1094l-234 88l375 992h-529z" />
<glyph unicode="8" horiz-adv-x="1019" d="M67 590q0 50 14 95.5t39.5 84.5t61.5 71.5t79 55.5q-77 54 -113 128.5t-36 152.5q0 67 26 130t76 112t124.5 78.5t170.5 29.5q86 0 156 -31.5t119.5 -82t76.5 -114.5t27 -130q0 -75 -37 -143.5t-119 -116.5q115 -56 167 -136t52 -184q0 -85 -31.5 -154t-89.5 -120 q-60 -50 -140.5 -76.5t-180.5 -26.5q-103 0 -183.5 26.5t-140.5 74.5q-57 51 -87.5 121.5t-30.5 154.5zM330 590q0 -30 9.5 -59t29 -52t48.5 -37.5t68 -15.5q44 -1 80 7t61.5 28.5t39.5 55t14 87.5q0 7 -2.5 21.5t-9 32.5t-18.5 37t-32 34.5t-48.5 25.5t-67.5 10 q-43 0 -75.5 -15.5t-54 -40t-32 -56t-10.5 -63.5zM352 1166q0 -32 19 -62.5t45 -54t53.5 -36t45.5 -6.5h-1q21 8 44.5 21.5t43 33t32.5 44.5t13 55q0 32 -13 58t-34.5 44t-50 28t-58.5 10q-27 0 -52 -8.5t-44.5 -25t-31 -42t-11.5 -59.5z" />
<glyph unicode="9" horiz-adv-x="1019" d="M73 1092q0 94 31.5 173t87.5 136t134.5 88.5t171.5 31.5q103 0 183 -34.5t134.5 -96t82.5 -146.5t28 -187q0 -113 -38 -231t-107 -229.5t-167 -211t-218 -175.5q-43 58 -78.5 100t-50.5 62q222 146 311 317q-23 -6 -48.5 -9.5t-49.5 -3.5q-75 0 -147.5 27t-130.5 80 t-93.5 130.5t-35.5 178.5zM306 1106q4 -43 25.5 -78.5t54 -60.5t73 -39t82.5 -14q66 0 123 37q5 20 7.5 42t2.5 44q0 49 -13.5 94t-39 79t-62.5 54.5t-85 20.5q-42 0 -74.5 -18t-54 -44.5t-31.5 -58t-8 -58.5z" />
<glyph unicode=":" horiz-adv-x="505" d="M63 458l182 183l183 -183l-183 -183zM63 951l182 182l183 -182l-183 -185z" />
<glyph unicode=";" horiz-adv-x="593" d="M164 300v260h267v-194q0 -156 -64 -244.5t-197 -116.5v96q84 26 114 83q20 39 25 116h-145zM164 954v259h266v-259h-266z" />
<glyph unicode="&#x3c;" horiz-adv-x="1041" d="M68 666v171l905 383v-197l-643 -271l643 -272v-197z" />
<glyph unicode="=" horiz-adv-x="810" d="M60 289l66 205l621 -3l-66 -205zM60 665l66 205l621 -3l-66 -205z" />
<glyph unicode="&#x3e;" horiz-adv-x="1041" d="M68 283v197l643 272l-643 271v197l905 -383v-171z" />
<glyph unicode="?" horiz-adv-x="1088" d="M107 1173q6 201 123 314.5t319 113.5q203 0 322 -102t119 -275q0 -92 -55 -173.5t-184 -178.5q-51 -38 -70.5 -82t-16.5 -115h-232q-3 123 41.5 207t153.5 161q52 37 74 77.5t22 103.5q0 76 -47 122q-47 44 -127 44q-96 0 -143.5 -53t-50.5 -164h-248zM418 300v249h261 v-249h-261z" />
<glyph unicode="@" horiz-adv-x="1737" d="M211 938q0 283 198 479.5t485 196.5q266 0 448.5 -165t182.5 -403q0 -201 -136.5 -351.5t-317.5 -150.5q-57 0 -85 52q-12 20 -14 42q-87 -94 -190 -94q-126 0 -208 93t-81 235q-1 174 114.5 300t275.5 126q123 -1 196 -108l18 83h173l-116 -519q-5 -22 0 -37t16 -15 q89 0 150.5 99.5t61.5 244.5q0 178 -139 301.5t-340 123.5q-217 0 -367.5 -155t-150.5 -378q0 -224 146 -379t358 -155q132 0 245.5 43t167.5 112h157q-77 -134 -231 -215.5t-331 -81.5q-289 0 -487.5 196t-198.5 480zM688 879q0 -75 38 -115.5t107 -40.5q71 0 128 56 t76 144t-20 143.5t-120 55.5q-84 0 -146.5 -73t-62.5 -170z" />
<glyph unicode="A" horiz-adv-x="1287" d="M36 300l452 1279h310l453 -1279h-284l-86 260h-485l-85 -260h-275zM470 780h340l-171 514z" />
<glyph unicode="B" horiz-adv-x="1287" d="M136 300v1279h619q185 0 289.5 -85.5t104.5 -238.5q0 -159 -117 -242q-19 -14 -43 -25q45 -17 80 -42q123 -84 123 -246q0 -196 -121.5 -298t-354.5 -102h-580zM391 522h325q104 0 156.5 45t52.5 137q0 80 -53.5 119.5t-160.5 39.5h-320v-341zM391 1078h306 q100 0 149.5 37.5t49.5 112.5q0 66 -52 98.5t-158 32.5h-295v-281z" />
<glyph unicode="C" horiz-adv-x="1287" d="M78 932q0 314 159 498t429 184q227 0 377 -123.5t176 -333.5h-268q-13 103 -89 164t-194 61q-149 0 -233 -118.5t-84 -329.5q0 -205 84 -321t233 -116q118 0 194 67.5t89 183.5h268q-24 -222 -173.5 -352.5t-379.5 -130.5q-270 0 -429 180t-159 487z" />
<glyph unicode="D" horiz-adv-x="1287" d="M136 300v1279h547q264 0 401 -155t137 -453q0 -329 -142.5 -500t-417.5 -171h-525zM403 520h225q163 0 244.5 110t81.5 330q0 200 -76 299.5t-228 99.5h-247v-839z" />
<glyph unicode="E" horiz-adv-x="1188" d="M136 300v1279h941v-227h-674v-272h625v-220h-625v-333h704v-227h-971z" />
<glyph unicode="F" horiz-adv-x="1088" d="M136 300v1279h910v-227h-643v-291h560v-220h-560v-541h-267z" />
<glyph unicode="G" horiz-adv-x="1386" d="M78 932q0 314 170.5 498t461.5 184q233 0 384 -116.5t176 -315.5h-268q-10 84 -93.5 147t-184.5 63q-174 0 -272.5 -120.5t-98.5 -334.5q0 -218 94 -332q94 -113 276 -113q155 0 242 119q48 67 70 157v3h-301v220h536v-690h-178l-26 165l-16 -21q-135 -180 -364 -180 q-280 0 -444 180t-164 487z" />
<glyph unicode="H" horiz-adv-x="1287" d="M126 300v1279h267v-479h500v479h268v-1279h-268v579h-500v-579h-267z" />
<glyph unicode="I" horiz-adv-x="495" d="M114 300v1279h267v-1279h-267z" />
<glyph unicode="J" d="M39 713v77h254v-77v-17q0 -103 35 -156q37 -56 120 -56q79 0 113.5 41t34.5 134v920h267v-920q0 -195 -104.5 -294.5t-307.5 -99.5q-217 0 -318 109q-94 103 -94 310v29z" />
<glyph unicode="K" horiz-adv-x="1287" d="M155 300v1279h267v-530l490 530h341l-511 -523l545 -756h-350l-385 563l-130 -133v-430h-267z" />
<glyph unicode="L" horiz-adv-x="1088" d="M136 300v1279h267v-1052h636v-227h-903z" />
<glyph unicode="M" horiz-adv-x="1484" d="M123 300v1279h391l233 -1014l230 1014h386v-1279h-249v1075l-240 -1075h-262l-240 1099v-1099h-249z" />
<glyph unicode="N" horiz-adv-x="1287" d="M123 300v1279h280l513 -897v897h250v-1279h-266l-528 921v-921h-249z" />
<glyph unicode="O" horiz-adv-x="1386" d="M78 932q0 314 166.5 498t448.5 184q283 0 449 -184t166 -498q0 -307 -166 -487t-449 -180q-282 0 -448.5 180t-166.5 487zM345 934q0 -208 92 -325t256 -117q163 0 255.5 117t92.5 325q0 213 -92.5 333t-255.5 120t-255.5 -120t-92.5 -333z" />
<glyph unicode="P" horiz-adv-x="1188" d="M136 300v1279h535q218 0 332 -102.5t114 -297.5q0 -207 -114 -314.5t-332 -107.5h-75q-108 0 -193 -2v-455h-267zM403 977h223q112 0 168 49.5t56 149.5q0 91 -56 137t-168 46h-223v-382z" />
<glyph unicode="Q" horiz-adv-x="1386" d="M78 932q0 314 166.5 498t448.5 184q283 0 449 -184t166 -498q0 -277 -135 -450l139 -131l-136 -144l-153 142q-137 -84 -330 -84q-282 0 -448.5 180t-166.5 487zM345 934q0 -208 92 -325t256 -117h5q77 0 138 29l-131 121l135 143l140 -127q61 107 61 276 q0 213 -92.5 333t-255.5 120t-255.5 -120t-92.5 -333z" />
<glyph unicode="R" horiz-adv-x="1287" d="M136 300v1279h644q183 0 295 -98t112 -258q0 -184 -125 -270q-33 -22 -75 -38q24 -9 43 -21q110 -65 114 -219l6 -210q2 -62 13 -88.5t44 -41.5v-34h-295q-11 20 -18.5 85.5t-8.5 141.5l-2 118q-2 86 -51 122.5t-163 36.5h-266v-505h-267zM403 1020h310q103 0 155 42.5 t52 127.5q0 84 -49.5 126.5t-147.5 42.5h-320v-339z" />
<glyph unicode="S" horiz-adv-x="1188" d="M70 697h257q4 -102 74 -157t194 -55q128 0 200 41.5t72 114.5q0 72 -52 106q-50 34 -216 71q-304 68 -407 147q-102 78 -102 244q0 186 135 295.5t365 109.5q215 0 349.5 -113.5t149.5 -305.5h-260q-7 92 -80 145.5t-190 53.5q-102 0 -159.5 -45t-57.5 -125q0 -57 60 -89 q59 -31 251 -74q280 -62 374 -144q94 -81 94 -260q0 -180 -142 -286t-384 -106q-243 0 -379.5 112.5t-145.5 319.5z" />
<glyph unicode="T" horiz-adv-x="1088" d="M25 1352v227h1040v-227h-386v-1052h-267v1052h-387z" />
<glyph unicode="U" horiz-adv-x="1287" d="M128 782v797h267v-806q0 -137 62 -206t188 -69q134 0 191 63.5t57 211.5v806h268v-797q0 -274 -121 -395.5t-395 -121.5q-263 0 -389.5 126.5t-127.5 390.5z" />
<glyph unicode="V" horiz-adv-x="1188" d="M34 1579h284l281 -977l280 977h275l-433 -1279h-254z" />
<glyph unicode="W" horiz-adv-x="1682" d="M29 1579h278l213 -936l183 936h284l186 -928l212 928h270l-356 -1279h-254l-205 1007l-201 -1007h-254z" />
<glyph unicode="X" horiz-adv-x="1188" d="M25 300l414 647l-386 632h316l225 -413l233 413h308l-389 -612l417 -667h-319l-251 440l-252 -440h-316z" />
<glyph unicode="Y" horiz-adv-x="1188" d="M27 1579h318l266 -555l249 555h303l-423 -793v-486h-267v481z" />
<glyph unicode="Z" horiz-adv-x="1088" d="M44 300v224l663 828h-641v227h978v-211l-675 -841h673v-227h-998z" />
<glyph unicode="[" horiz-adv-x="593" d="M112 -52v1640h439v-172h-216v-1297h216v-171h-439z" />
<glyph unicode="\" horiz-adv-x="495" d="M-58 1614h209l402 -1349h-208z" />
<glyph unicode="]" horiz-adv-x="593" d="M43 -52v171h215v1297h-215v172h438v-1640h-438z" />
<glyph unicode="^" horiz-adv-x="1041" d="M110 878l320 663h181l319 -663h-198l-212 464l-211 -464h-199z" />
<glyph unicode="_" d="M0 77v92h991v-92h-991z" />
<glyph unicode="`" horiz-adv-x="593" d="M-40 1635h273l168 -258h-180z" />
<glyph unicode="a" d="M51 549q0 129 72.5 207t210.5 98l165 23q64 9 107 29q18 9 28 31.5t7 46.5q-5 40 -41 62q-42 27 -122 27q-72 0 -112 -34.5t-42 -98.5h-240q8 166 113.5 249t308.5 83q177 0 279 -74.5t102 -203.5v-529q0 -63 10.5 -89t42.5 -40v-35h-270q-17 57 -22 112l-1 2 q-117 -139 -304 -139q-132 0 -212 75t-80 198zM303 575q0 -57 30.5 -89t84.5 -32q121 0 192 84q14 17 23 49q10 32 10 63v108q-44 -24 -115 -39l-92 -17q-65 -12 -99 -44.5t-34 -82.5z" />
<glyph unicode="b" horiz-adv-x="1088" d="M109 300v1279h249v-456l6 7q101 142 266 142q180 0 289.5 -133t109.5 -351q0 -230 -109.5 -371t-289.5 -141q-165 0 -266 132l-11 14v-122h-244zM346 757q0 -130 57 -203q55 -73 156 -73q100 0 157 75t57 209q0 137 -57 214t-157 77t-156.5 -79t-56.5 -220z" />
<glyph unicode="c" d="M61 768q0 231 121.5 367.5t327.5 136.5q183 0 299.5 -101t124.5 -265h-255q-3 70 -49.5 113.5t-119.5 43.5q-94 0 -143 -75.5t-49 -219.5q0 -141 49 -214.5t143 -73.5q68 0 115 47t54 124h255q-20 -177 -132 -276t-292 -99q-215 0 -332 127.5t-117 364.5z" />
<glyph unicode="d" horiz-adv-x="1088" d="M61 788q0 218 110.5 351t290.5 133q161 0 259 -136l11 -14v457h249v-1279h-242v121l-4 -6q-103 -139 -271 -139q-181 0 -292 141t-111 371zM318 765q0 -134 56 -209t156 -75q101 0 157.5 79t56.5 220q0 130 -56.5 203t-156.5 73t-156.5 -77t-56.5 -214z" />
<glyph unicode="e" d="M41 788q0 227 119 355.5t331 128.5q216 0 333 -131t117 -373q1 -7 1 -14q0 -21 -5 -42h-645q9 -113 50 -168q52 -70 174 -70q56 0 104.5 32t58.5 78h254q-33 -145 -150 -226.5t-292 -81.5q-216 0 -333 133t-117 379zM295 871h386q-8 85 -45 133q-48 63 -149 63 q-96 0 -147 -74q-31 -47 -45 -122z" />
<glyph unicode="f" horiz-adv-x="593" d="M17 1072v175h139v79q0 136 72.5 203t220.5 67h16q56 0 101 -6v-199h-79q-49 0 -65.5 -20t-16.5 -82v-42h161v-175h-161v-772h-249v772h-139z" />
<glyph unicode="g" horiz-adv-x="1088" d="M71 778q0 222 110.5 358t290.5 136q160 0 247 -116q17 -22 31 -48v139h235v-897q0 -224 -111 -330.5t-346 -106.5q-193 0 -307 75t-122 208h272q3 -48 44.5 -70.5t127.5 -22.5q105 0 151 51t46 169v116l-20 -30q-82 -114 -237 -114q-185 0 -298.5 132.5t-113.5 350.5z M328 775q0 -130 55 -202.5t151 -72.5q98 0 153.5 74t55.5 204q0 131 -55.5 204.5t-152.5 73.5t-152 -74.5t-55 -206.5z" />
<glyph unicode="h" horiz-adv-x="1088" d="M116 300v1279h249v-453l20 28q93 118 268 118q150 0 235 -89t85 -246v-637h-250v592q0 87 -38 129.5t-116 42.5q-98 0 -151 -59t-53 -171v-534h-249z" />
<glyph unicode="i" horiz-adv-x="495" d="M123 1357v231h254v-231h-254zM125 300v947h250v-947h-250z" />
<glyph unicode="j" horiz-adv-x="495" d="M5 -80v199l31 -1q50 0 67.5 16t17.5 62v1051h250v-1051q0 -154 -66.5 -215.5t-231.5 -61.5zM119 1357v231h254v-231h-254z" />
<glyph unicode="k" d="M123 300v1279h249v-691l312 359h308l-342 -359l350 -588h-296l-228 407l-104 -109v-298h-249z" />
<glyph unicode="l" horiz-adv-x="495" d="M123 300v1279h249v-1279h-249z" />
<glyph unicode="m" horiz-adv-x="1584" d="M114 300v947h237v-153q17 40 42 72q83 106 240 106q126 0 206 -85q31 -32 49 -71l31 50q77 106 225 106q154 0 241 -91.5t87 -253.5v-627h-250v556q0 106 -34.5 157t-107.5 51q-79 0 -120 -48.5t-41 -138.5v-577h-250v597q0 85 -36.5 126t-112.5 41q-75 0 -115.5 -48.5 t-40.5 -138.5v-577h-250z" />
<glyph unicode="n" horiz-adv-x="1088" d="M116 300v947h237v-141q15 26 32 48q93 118 268 118q150 0 235 -89t85 -246v-637h-250v592q0 87 -38 129.5t-116 42.5q-98 0 -151 -59t-53 -171v-534h-249z" />
<glyph unicode="o" horiz-adv-x="1088" d="M61 768q0 231 131 367.5t353 136.5q223 0 353.5 -136.5t130.5 -367.5q0 -226 -130.5 -359t-353.5 -133q-222 0 -353 133t-131 359zM318 771q0 -140 57.5 -213.5t169.5 -73.5q111 0 169.5 73.5t58.5 213.5q0 143 -58.5 217.5t-169.5 74.5q-112 0 -169.5 -74.5 t-57.5 -217.5z" />
<glyph unicode="p" horiz-adv-x="1088" d="M110 -71v1318h238v-141l17 24q100 142 266 142q180 0 289 -133t109 -351q0 -230 -109 -371t-289 -141q-165 0 -266 132l-5 7v-486h-250zM348 757q0 -130 56 -203t155 -73q100 0 157 75t57 209q0 137 -56.5 214t-156.5 77t-156 -79t-56 -220z" />
<glyph unicode="q" horiz-adv-x="1088" d="M61 758q0 232 115 373t302 141q154 0 248 -136q16 -22 27 -45v156h230v-1318h-250v482q-100 -135 -266 -135h-2q-181 0 -292.5 132.5t-111.5 349.5zM318 765q0 -134 56.5 -209t156.5 -75q101 0 158 79t57 220q0 130 -57 203t-157 73q-101 0 -157.5 -77t-56.5 -214z" />
<glyph unicode="r" horiz-adv-x="693" d="M114 300v947h237v-170q14 28 30 54q88 141 227 141l57 -1v-255q-33 3 -75 3q-114 0 -170 -56.5t-56 -170.5v-492h-250z" />
<glyph unicode="s" d="M53 603h254q3 -65 58 -102t150 -37q75 0 117 25.5t42 71.5q0 32 -41 55q-41 22 -143 44q-240 54 -321 114q-81 59 -81 184q0 141 105 227.5t276 86.5q193 0 311.5 -85t118.5 -224h-247q0 55 -45.5 88t-120.5 33q-72 0 -112.5 -25t-40.5 -69q0 -31 46 -54q46 -22 161 -48 q230 -51 307 -112q78 -61 78 -192q0 -139 -113 -223.5t-297 -84.5q-218 0 -336 83.5t-126 243.5z" />
<glyph unicode="t" horiz-adv-x="593" d="M17 1072v175h132v254h249v-254h153v-175h-153v-538q0 -33 20 -43.5t81 -10.5h52v-185q-63 -5 -154 -5q-133 0 -190.5 47t-57.5 155v580h-132z" />
<glyph unicode="u" horiz-adv-x="1088" d="M117 609v638h250v-593q0 -87 37.5 -128.5t114.5 -41.5q98 0 150 59t52 170v534h250v-947h-238v142q-13 -26 -31 -49q-92 -117 -267 -117q-150 0 -234 88t-84 245z" />
<glyph unicode="v" d="M23 1247h276l202 -706l204 706h262l-341 -947h-261z" />
<glyph unicode="w" horiz-adv-x="1386" d="M17 1247h265l151 -696l142 696h250l140 -697l154 697h251l-274 -947h-255l-145 705l-149 -705h-255z" />
<glyph unicode="x" d="M27 300l322 484l-309 463h301l159 -280l159 280h292l-308 -468l321 -479h-307l-165 289l-164 -289h-301z" />
<glyph unicode="y" d="M17 1247h276l206 -703l200 703h261l-339 -967q-82 -239 -140 -300t-208 -61l-119 3v200q9 -4 48 -4q100 0 130 41q19 26 39 108z" />
<glyph unicode="z" horiz-adv-x="891" d="M36 300v194l479 548l6 7h-450v198h762v-205l-473 -538h495v-204h-819z" />
<glyph unicode="{" horiz-adv-x="693" d="M85 689v158q115 15 141 50t26 175v231q0 161 96 229.5t303 55.5v-160q-121 6 -149.5 -22t-28.5 -155v-232q0 -139 -83 -201q-39 -29 -106 -51q67 -19 106 -49q83 -62 83 -201v-232q0 -127 28.5 -155t149.5 -21v-160q-207 -14 -303 54.5t-96 229.5v231q0 140 -26 175 t-141 50z" />
<glyph unicode="|" horiz-adv-x="499" d="M150 -145v1781h199v-1781h-199z" />
<glyph unicode="}" horiz-adv-x="693" d="M43 -51v160q121 -7 149 21t28 155v232q0 139 84 201q38 30 105 49q-67 22 -105 51q-84 62 -84 201v232q0 127 -28 155t-149 22v160q207 13 302.5 -55.5t95.5 -229.5v-231q0 -140 26 -175t141 -50v-158q-115 -15 -141 -50t-26 -175v-231q0 -161 -96 -230q-95 -68 -302 -54 z" />
<glyph unicode="~" horiz-adv-x="1041" d="M109 748q30 71 90 113.5t132 42.5q45 0 96 -15.5t131 -52.5q54 -25 95.5 -40.5t58.5 -15.5q41 0 78 31.5t77 100.5l65 -159q-39 -71 -99 -113t-123 -42q-48 0 -99 17.5t-128 62.5q-36 20 -79 31.5t-81 11.5q-42 0 -85 -38t-64 -93z" />
<glyph horiz-adv-x="1392" d="M76 412v510h175q60 0 91 -7q97 -23 136 -123q20 -54 20 -122q0 -110 -49 -177q-40 -56 -107 -72q-36 -9 -83 -9h-183zM143 472h109q89 0 125 36q51 51 51 163q0 146 -90 181q-27 10 -87 10h-108v-390zM559 412v510h368v-60h-301v-156h282v-60h-282v-174h314v-60h-381z M1004 412v510h68v-450h250v-60h-318z" />
<glyph unicode="&#xa9;" horiz-adv-x="1313" d="M-19 939q0 292 192.5 484.5t483.5 192.5q290 0 483.5 -192.5t193.5 -484.5q0 -290 -193 -483t-484 -193q-292 0 -484 193t-192 483zM176 939q0 -221 137.5 -368t343.5 -147q207 0 344.5 147t137.5 368q0 222 -137 369.5t-345 147.5q-207 0 -344 -147.5t-137 -369.5z M312 936q0 179 100 284.5t269 105.5q132 0 219 -74.5t102 -200.5h-159q-7 55 -50.5 87t-111.5 32q-87 0 -136 -62t-49 -171q0 -105 50 -166t135 -61q64 0 107.5 34t54.5 93h159q-25 -131 -111.5 -207t-209.5 -76q-166 0 -267.5 105t-101.5 277z" />
<glyph unicode="&#xab;" horiz-adv-x="880" d="M66 557q84 97 164.5 189.5t165.5 189.5h65l-219 -378l219 -386h-68q-82 97 -163 192.5t-164 192.5zM363 557q84 97 164.5 189.5t164.5 189.5h64l-217 -378l224 -386h-72q-82 97 -164 192.5t-164 192.5z" />
<glyph unicode="&#xad;" horiz-adv-x="810" d="M60 745l66 206l621 -3l-66 -205z" />
<glyph unicode="&#xae;" horiz-adv-x="1313" d="M-19 939q0 291 192.5 483.5t482.5 192.5q291 0 483.5 -192.5t192.5 -483.5q0 -290 -192.5 -482.5t-483.5 -192.5t-483 192.5t-192 482.5zM173 939q0 -222 138 -369.5t345 -147.5q208 0 346 147.5t138 369.5q0 223 -137.5 371t-346.5 148q-208 0 -345.5 -148t-137.5 -371z M367 576v728h283q139 0 211.5 -52.5t72.5 -154.5q0 -117 -67 -169q-38 -29 -100 -42l179 -310h-180l-168 300h-72v-300h-159zM526 1001h124q63 0 93.5 23.5t30.5 70.5q0 43 -30.5 64t-93.5 21h-124v-179z" />
<glyph unicode="&#xb0;" horiz-adv-x="1024" d="M52 787l457 457l456 -457l-456 -456zM128 787l381 -380l380 380l-380 381zM292 787l217 218l217 -218l-217 -217z" />
<glyph unicode="&#xb1;" horiz-adv-x="901" d="M48 902l201 145l201 146l201 -146l201 -145l-77 -237l-76 -236h-497l-77 236zM167 683l142 -103l141 -102l142 102l141 103l-54 167l-54 166h-350l-54 -166zM294 821l78 56l78 57l78 -57l79 -56l-31 -92l-29 -92h-193z" />
<glyph unicode="&#xb6;" horiz-adv-x="891" d="M61 1288q0 65 24.5 120t66.5 97q47 40 109 61.5t137 21.5h432v-59h-106v-1229h-80v1229h-173v-1229h-82v690q-155 6 -242 87q-86 81 -86 211z" />
<glyph unicode="&#xb7;" horiz-adv-x="1082" d="M74 731l212 198l198 -198l-198 -198zM351 467l198 199l201 -199l-201 -219zM351 991l198 215l196 -215l-196 -198zM613 731l198 198l214 -198l-214 -205z" />
<glyph unicode="&#xba;" horiz-adv-x="983" d="M26 804l113 196l114 197h454l114 -197l113 -196l-113 -197l-114 -197h-454l-114 197zM116 804l91 -158l91 -157h364l90 157l91 158l-91 157l-90 157h-364zM243 804l59 103l59 102h238l59 -102l59 -103l-118 -206h-238z" />
<glyph unicode="&#xbb;" horiz-adv-x="880" d="M110 172l225 386q-54 94 -108 189t-109 189h65q81 -95 163.5 -189.5t165.5 -189.5q-84 -99 -165 -193t-163 -192h-74zM413 172l219 386q-54 94 -109.5 189t-109.5 189h65q83 -95 165.5 -189.5t164.5 -189.5q-83 -99 -163 -193t-164 -192h-68z" />
<glyph unicode="&#xbf;" horiz-adv-x="774" d="M77 454v675h675v-675h-675z" />
<glyph unicode="&#xd7;" horiz-adv-x="1041" d="M71 447l305 305l-305 304l145 144l304 -304l305 304l144 -144l-304 -304l304 -305l-144 -144l-305 304l-304 -304z" />
<glyph unicode="&#xe0;" d="M51 549q0 129 72.5 207t210.5 98l165 23q64 9 107 29q18 9 28 31.5t7 46.5q-5 40 -41 62q-42 27 -122 27q-72 0 -112 -34.5t-42 -98.5h-240q8 166 113.5 249t308.5 83q177 0 279 -74.5t102 -203.5v-529q0 -63 10.5 -89t42.5 -40v-35h-270q-17 57 -22 112l-1 2 q-117 -139 -304 -139q-132 0 -212 75t-80 198zM168 1635h273l168 -258h-180zM303 575q0 -57 30.5 -89t84.5 -32q121 0 192 84q14 17 23 49q10 32 10 63v108q-44 -24 -115 -39l-92 -17q-65 -12 -99 -44.5t-34 -82.5z" />
<glyph unicode="&#xe1;" d="M51 549q0 129 72.5 207t210.5 98l165 23q64 9 107 29q18 9 28 31.5t7 46.5q-5 40 -41 62q-42 27 -122 27q-72 0 -112 -34.5t-42 -98.5h-240q8 166 113.5 249t308.5 83q177 0 279 -74.5t102 -203.5v-529q0 -63 10.5 -89t42.5 -40v-35h-270q-17 57 -22 112l-1 2 q-117 -139 -304 -139q-132 0 -212 75t-80 198zM303 575q0 -57 30.5 -89t84.5 -32q121 0 192 84q14 17 23 49q10 32 10 63v108q-44 -24 -115 -39l-92 -17q-65 -12 -99 -44.5t-34 -82.5zM319 1377l191 258h273l-284 -258h-180z" />
<glyph unicode="&#xe7;" d="M61 768q0 231 121.5 367.5t327.5 136.5q183 0 299.5 -101t124.5 -265h-255q-3 70 -49.5 113.5t-119.5 43.5q-94 0 -143 -75.5t-49 -219.5q0 -141 49 -214.5t143 -73.5q68 0 115 47t54 124h255q-20 -177 -132 -276q-110 -97 -285 -99l-47 -72l49 6q71 0 114 -38.5 t43 -101.5q0 -81 -60 -128.5t-162 -47.5q-49 0 -104 12.5t-100 34.5l39 83q43 -14 79.5 -21.5t57.5 -7.5q35 0 59.5 20.5t24.5 49.5t-19.5 46.5t-50.5 17.5q-14 0 -32.5 -3.5t-38.5 -10.5l-38 36l87 131q-150 22 -240 121q-117 128 -117 365z" />
<glyph unicode="&#xe8;" d="M41 788q0 227 119 355.5t331 128.5q216 0 333 -131t117 -373q2 -28 -4 -56h-645q9 -113 50 -168q52 -70 174 -70q56 0 104.5 32t58.5 78h254q-33 -145 -150 -226.5t-292 -81.5q-216 0 -333 133t-117 379zM183 1635h273l168 -258h-180zM295 871h386q-8 85 -45 133 q-48 63 -149 63q-96 0 -147 -74q-31 -47 -45 -122z" />
<glyph unicode="&#xe9;" d="M41 788q0 227 119 355.5t331 128.5q216 0 333 -131t117 -373q2 -28 -4 -56h-645q9 -113 50 -168q52 -70 174 -70q56 0 104.5 32t58.5 78h254q-33 -145 -150 -226.5t-292 -81.5q-216 0 -333 133t-117 379zM295 871h386q-8 85 -45 133q-48 63 -149 63q-96 0 -147 -74 q-31 -47 -45 -122zM403 1377l168 258h273l-261 -258h-180z" />
<glyph unicode="&#xea;" d="M41 788q0 227 119 355.5t331 128.5q216 0 333 -131t117 -373q2 -28 -4 -56h-645q9 -113 50 -168q52 -70 174 -70q56 0 104.5 32t58.5 78h254q-33 -145 -150 -226.5t-292 -81.5q-216 0 -333 133t-117 379zM196 1377l202 258h222l202 -258h-200l-113 145l-113 -145h-200z M295 871h386q-8 85 -45 133q-48 63 -149 63q-96 0 -147 -74q-31 -47 -45 -122z" />
<glyph unicode="&#xf4;" horiz-adv-x="1088" d="M61 768q0 231 131 367.5t353 136.5q223 0 353.5 -136.5t130.5 -367.5q0 -226 -130.5 -359t-353.5 -133q-222 0 -353 133t-131 359zM231 1377l202 258h223l202 -258h-200l-113 145l-113 -145h-201zM318 771q0 -140 57.5 -213.5t169.5 -73.5q111 0 169.5 73.5t58.5 213.5 q0 143 -58.5 217.5t-169.5 74.5q-112 0 -169.5 -74.5t-57.5 -217.5z" />
<glyph unicode="&#xf7;" horiz-adv-x="1041" d="M71 648v207h898v-207h-898zM362 380q0 66 46 112t112 46t112.5 -46t46.5 -112t-46.5 -112t-112.5 -46t-112 46t-46 112zM362 1123q0 66 46 112t112 46t112.5 -46t46.5 -112t-46.5 -112t-112.5 -46t-112 46t-46 112z" />
<glyph unicode="&#x153;" horiz-adv-x="1682" d="M61 768q0 231 125 368q125 136 339 136q201 -1 324 -121q119 120 325 121q216 0 333 -131t117 -373q2 -28 -4 -56h-630q9 -113 51 -168q52 -70 175 -70q50 0 93 32t53 78h254q-33 -145 -150 -226.5t-292 -81.5q-206 -1 -322 121q-124 -122 -327 -121q-214 0 -339 133 t-125 359zM318 771q0 -140 55 -213.5t161 -73.5t161.5 73.5t55.5 213.5q0 143 -56 218q-55 74 -161 74t-161 -74.5t-55 -217.5zM994 871h388q-8 85 -45 133q-49 63 -150 63q-98 0 -149 -74q-32 -47 -44 -122z" />
<glyph unicode="&#x60c;" horiz-adv-x="431" d="M55 500q-2 34 6.5 83.5t24 100.5t34.5 96t38.5 71t36.5 26t28 -40q3 -10 -2.5 -28t-14 -41.5t-17 -50.5t-11 -54.5t3 -53.5t25 -47.5t56 -36.5t95.5 -20q9 0 4.5 -22t-13.5 -49.5t-18.5 -52t-11.5 -30.5q-17 -42 -42.5 -56.5t-54.5 -9.5t-57.5 26.5t-52.5 52t-39.5 66.5 t-17.5 70z" />
<glyph unicode="&#x61b;" horiz-adv-x="505" d="M63 458l182 183l183 -183l-183 -183zM94 969q-2 34 6.5 83.5t24 100t34.5 96t38.5 71.5t36.5 26t28 -40q4 -13 -6.5 -40.5t-21.5 -62t-16 -72t8.5 -70t53.5 -56.5t118 -31q6 0 5.5 -10.5t-4.5 -26.5t-10.5 -34.5t-13 -35.5t-11.5 -30t-6 -17q-17 -42 -42.5 -57 t-54.5 -9.5t-57.5 27t-52.5 52t-39.5 66.5t-17.5 70z" />
<glyph unicode="&#x61f;" horiz-adv-x="635" d="M67.5 1173.5q-6.5 61.5 3.5 119t43.5 104.5t93 80t150.5 46q26 4 57.5 -2.5t61 -21t52.5 -34.5t33 -44l-63 -203q-18 23 -40 41.5t-46 30t-48.5 14.5t-47.5 -4q-29 -9 -38 -35.5t-4 -63.5t20 -82t35 -91t41 -90t37.5 -79.5t25 -58.5t3.5 -28l-52 -46q-19 -17 -48 -7.5 t-62 38.5t-67 75t-63 101.5t-50 117t-27.5 123zM167 458l184 183l182 -183l-182 -183z" />
<glyph unicode="&#x621;" horiz-adv-x="1147" d="M83 279v215h175q-26 45 -39.5 95.5t-13.5 105.5q0 85 33 161t90.5 132.5t134.5 89.5t165 33q71 0 136 -22.5t118.5 -62.5t93 -95.5t58.5 -121.5l-206 -59q-9 32 -28.5 59t-45.5 46.5t-58 30t-68 10.5q-43 0 -81 -16t-66.5 -43t-45 -63.5t-16.5 -78.5q0 -41 15.5 -76.5 t42 -62.5t62 -43.5t75.5 -18.5h434v-215h-965z" />
<glyph unicode="&#x622;" horiz-adv-x="500" d="M-34 1667q-7 94 59.5 183.5t271.5 27.5t302 77q-32 -283 -279 -206.5t-354 -81.5zM30 300q84 155 128.5 306.5t51.5 309.5q7 161 -26.5 331t-107.5 361l200 77q82 -212 119 -403t29 -374q-8 -185 -59 -359t-146 -350z" />
<glyph unicode="&#x623;" horiz-adv-x="500" d="M30 300q84 155 128.5 306.5t51.5 309.5q7 161 -26.5 331t-107.5 361l200 77q82 -212 119 -403t29 -374q-8 -185 -59 -359t-146 -350zM87 1751v88h48q-5 11 -8 25t-3 26q0 29 11 54.5t30.5 44.5t45.5 30t55 11q24 0 46 -8.5t40.5 -23.5t32 -35.5t20.5 -44.5l-83 -23 q-7 20 -22 33.5t-34 13.5q-22 0 -38 -15t-16 -37q0 -20 14.5 -35t35.5 -16h145v-88h-320z" />
<glyph unicode="&#x624;" horiz-adv-x="1194" d="M46 810q0 115 42.5 214.5t117.5 174.5t175 118t215 43t214 -43t174 -118t118 -174.5t43 -214.5q0 -141 -20.5 -258.5t-58 -213t-90 -170.5t-116.5 -131q-65 -57 -139 -95.5t-155 -62.5t-167.5 -34.5t-175.5 -10.5v215q71 0 139.5 7.5t132 25t120 46t104.5 70.5 q53 45 92 106q-50 -21 -104 -32.5t-111 -11.5q-115 0 -215 43t-175 118t-117.5 174.5t-42.5 214.5zM260 810q0 -69 26 -130t72 -107t107 -72t131 -26q69 0 130 26t106 72q46 46 72.5 107t26.5 130q0 70 -26.5 130.5t-72.5 106.5q-45 46 -106 72.5t-130 26.5 q-70 0 -131 -26.5t-107 -72.5t-72 -106.5t-26 -130.5zM348 1458v123h68q-6 16 -10.5 36t-4.5 37q0 40 16 76t43 63t63 42.5t77 15.5q34 0 65.5 -12t57 -33t45 -49.5t29.5 -62.5l-118 -33q-9 28 -30.5 47.5t-48.5 19.5q-31 0 -53 -22t-22 -52q0 -29 20 -50t51 -23h203v-123 h-451z" />
<glyph unicode="&#x625;" horiz-adv-x="500" d="M30 300q84 155 128.5 306.5t51.5 309.5q7 161 -26.5 331t-107.5 361l200 77q82 -212 119 -403t29 -374q-8 -185 -59 -359t-146 -350zM56 -76h48q-5 11 -8 25t-3 26q0 29 11 54.5t30.5 44.5t45.5 30t55 11q24 0 46 -8.5t40.5 -23.5t32 -35.5t20.5 -44.5l-83 -23 q-7 20 -22 33.5t-34 13.5q-22 0 -38 -15t-16 -37q0 -20 14.5 -35t35.5 -16h145v-88h-320v88z" />
<glyph unicode="&#x626;" horiz-adv-x="1496" d="M33.5 529q2.5 46 14 96.5t33.5 104t58 107.5q31 47 64 85t78 77l142 -161q-29 -26 -56.5 -56.5t-47.5 -62.5q-48 -72 -61.5 -138.5t-8.5 -117.5q9 -94 50 -157.5t104 -102.5q55 -35 121.5 -53t138.5 -23q75 -5 149.5 4t141.5 30q88 28 150 69.5t77 91.5q11 38 -6 66.5 t-51 50.5t-79 39t-88 32q-44 15 -84.5 30.5t-75 35t-60.5 44.5t-41 61q-27 66 -27.5 137.5t24.5 141.5q34 96 107 174q36 38 81.5 69.5t99.5 54.5q49 20 104 31.5t116.5 12.5t128 -10t137.5 -36l-71 -203q-102 35 -185 34t-147 -27q-33 -14 -60 -32.5t-48 -41.5 q-43 -44 -61 -96q-11 -34 -12 -66.5t11 -60.5q1 -2 12 -6.5t29.5 -11t42 -14.5t49.5 -17q51 -18 104 -37.5t100.5 -45t86 -58.5t61 -77.5t26 -102t-18.5 -132.5q-16 -53 -50 -99t-82 -84.5t-108 -69.5t-128 -52q-85 -26 -179 -38t-189 -6q-97 7 -189.5 33t-171.5 76 q-51 33 -94.5 75t-76.5 94t-54.5 115t-28.5 138q-4 40 -1.5 86zM81 1126v123h68q-6 16 -10.5 36t-4.5 37q0 40 16 76t43 63t63 42.5t77 15.5q34 0 65.5 -12t57 -33t45 -49.5t29.5 -62.5l-118 -33q-9 28 -30.5 47.5t-48.5 19.5q-31 0 -53 -22t-22 -52q0 -29 20 -50t51 -23 h203v-123h-451z" />
<glyph unicode="&#x627;" horiz-adv-x="500" d="M30 300q84 155 128.5 306.5t51.5 309.5q7 161 -26.5 331t-107.5 361l200 77q82 -212 119 -403t29 -374q-8 -185 -59 -359t-146 -350z" />
<glyph unicode="&#x628;" horiz-adv-x="1819" d="M43 845q0 99 47.5 184.5t131 147.5t197 97.5t244.5 35.5q71 0 148 -12l-32 -212q-60 9 -116 9q-86 0 -160 -20t-128.5 -54t-85.5 -79t-31 -94q0 -29 10 -60.5t33 -64.5q43 -65 120.5 -111.5t174.5 -76.5t207 -44.5t219 -14.5q78 0 151.5 7t144.5 23q125 27 182 86t57 144 q0 67 -30.5 145t-86.5 161l177 120q53 -77 88 -153.5t52 -151.5q13 -59 13 -120q0 -77 -24 -146.5t-73.5 -127t-126 -100.5t-181.5 -66q-41 -10 -85.5 -16.5t-92.5 -11.5q-40 -4 -81.5 -5.5t-83.5 -1.5q-132 0 -266.5 19.5t-255 61t-219.5 106.5t-159 155q-41 61 -60 121.5 t-19 119.5zM794 -34l160 143l164 -183l-161 -144z" />
<glyph unicode="&#x629;" horiz-adv-x="1194" d="M36 810q0 114 43 214t117.5 175t175 118t214.5 43q76 0 146 -19.5t131 -55t111 -85.5t86 -111.5t55.5 -131.5t19.5 -147q0 -114 -43 -214t-117.5 -175t-174.5 -118t-214 -43q-115 0 -215 43.5t-174.5 118.5t-117.5 175t-43 213zM250 810q0 -69 26.5 -130t72.5 -106.5 t107 -72t130 -26.5t130 26.5t106.5 72t72 106.5t26.5 130q0 70 -26.5 131t-72.5 106.5t-106.5 72t-129.5 26.5t-130 -26.5t-107 -72t-72.5 -107t-26.5 -130.5zM273 1671l160 143l120 -135l151 135l164 -183l-161 -144l-120 135l-151 -135z" />
<glyph unicode="&#x62a;" horiz-adv-x="1819" d="M43 845q0 99 47.5 184.5t131 147.5t197 97.5t244.5 35.5q71 0 148 -12l-32 -212q-60 9 -116 9q-86 0 -160 -20t-128.5 -54t-85.5 -79t-31 -94q0 -29 10 -60.5t33 -64.5q43 -65 120.5 -111.5t174.5 -76.5t207 -44.5t219 -14.5q78 0 151.5 7t144.5 23q125 27 182 86t57 144 q0 67 -30.5 145t-86.5 161l177 120q53 -77 88 -153.5t52 -151.5q13 -59 13 -120q0 -77 -24 -146.5t-73.5 -127t-126 -100.5t-181.5 -66q-41 -10 -85.5 -16.5t-92.5 -11.5q-40 -4 -81.5 -5.5t-83.5 -1.5q-132 0 -266.5 19.5t-255 61t-219.5 106.5t-159 155q-41 61 -60 121.5 t-19 119.5zM917 1364l160 143l120 -135l151 135l164 -183l-161 -144l-120 135l-151 -135z" />
<glyph unicode="&#x62b;" horiz-adv-x="1819" d="M43 845q0 99 47.5 184.5t131 147.5t197 97.5t244.5 35.5q71 0 148 -12l-32 -212q-60 9 -116 9q-86 0 -160 -20t-128.5 -54t-85.5 -79t-31 -94q0 -29 10 -60.5t33 -64.5q43 -65 120.5 -111.5t174.5 -76.5t207 -44.5t219 -14.5q78 0 151.5 7t144.5 23q125 27 182 86t57 144 q0 67 -30.5 145t-86.5 161l177 120q53 -77 88 -153.5t52 -151.5q13 -59 13 -120q0 -77 -24 -146.5t-73.5 -127t-126 -100.5t-181.5 -66q-41 -10 -85.5 -16.5t-92.5 -11.5q-40 -4 -81.5 -5.5t-83.5 -1.5q-132 0 -266.5 19.5t-255 61t-219.5 106.5t-159 155q-41 61 -60 121.5 t-19 119.5zM930 1334l160 143l120 -135l151 135l164 -183l-161 -144l-120 135l-151 -135zM1040 1652l160 143l164 -183l-161 -144z" />
<glyph unicode="&#x62c;" horiz-adv-x="1361" d="M43 254q0 82 25.5 160.5t74 148t120 126.5t163.5 97.5t203.5 60.5t240.5 14h179q-59 80 -139.5 137.5t-184 95t-229.5 55.5t-277 18h-39l34 215q141 0 273 -19t248.5 -55t215.5 -89t173.5 -121t122 -150t61.5 -178v-124h-448q-137 4 -248.5 -25t-190 -82t-121 -126.5 t-42.5 -157.5q0 -65 24.5 -126t72 -108t118 -75t162.5 -28q98 0 218.5 36t264.5 120l108 -186q-170 -98 -318 -141t-273 -43q-97 0 -177.5 22t-146.5 61q-102 60 -165.5 149.5t-88.5 193.5q-8 31 -11 61.5t-3 62.5zM502 290l160 143l164 -183l-161 -144z" />
<glyph unicode="&#x62d;" horiz-adv-x="1361" d="M43 254q0 82 25.5 160.5t74 148t120 126.5t163.5 97.5t203.5 60.5t240.5 14h179q-59 80 -139.5 137.5t-184 95t-229.5 55.5t-277 18h-39l34 215q141 0 273 -19t248.5 -55t215.5 -89t173.5 -121t122 -150t61.5 -178v-124h-448q-137 4 -248.5 -25t-190 -82t-121 -126.5 t-42.5 -157.5q0 -65 24.5 -126t72 -108t118 -75t162.5 -28q98 0 218.5 36t264.5 120l108 -186q-170 -98 -318 -141t-273 -43q-97 0 -177.5 22t-146.5 61q-102 60 -165.5 149.5t-88.5 193.5q-8 31 -11 61.5t-3 62.5z" />
<glyph unicode="&#x62e;" horiz-adv-x="1361" d="M43 254q0 82 25.5 160.5t74 148t120 126.5t163.5 97.5t203.5 60.5t240.5 14h179q-59 80 -139.5 137.5t-184 95t-229.5 55.5t-277 18h-39l34 215q141 0 273 -19t248.5 -55t215.5 -89t173.5 -121t122 -150t61.5 -178v-124h-448q-137 4 -248.5 -25t-190 -82t-121 -126.5 t-42.5 -157.5q0 -65 24.5 -126t72 -108t118 -75t162.5 -28q98 0 218.5 36t264.5 120l108 -186q-170 -98 -318 -141t-273 -43q-97 0 -177.5 22t-146.5 61q-102 60 -165.5 149.5t-88.5 193.5q-8 31 -11 61.5t-3 62.5zM479 1682l160 143l164 -183l-161 -144z" />
<glyph unicode="&#x62f;" horiz-adv-x="1204" d="M20 443l149 154q47 -45 125 -74.5t194 -29.5l430 1q-11 151 -54 272.5t-120.5 207t-191.5 132t-268 46.5l-5 215q213 0 374 -71t268 -200.5t161 -310t54 -399.5v-107h-648q-45 0 -85.5 4t-76.5 10q-100 18 -175.5 57.5t-130.5 92.5z" />
<glyph unicode="&#x630;" horiz-adv-x="1204" d="M20 443l149 154q47 -45 125 -74.5t194 -29.5l430 1q-11 151 -54 272.5t-120.5 207t-191.5 132t-268 46.5l-5 215q213 0 374 -71t268 -200.5t161 -310t54 -399.5v-107h-648q-45 0 -85.5 4t-76.5 10q-100 18 -175.5 57.5t-130.5 92.5zM252 1692l160 143l164 -183l-161 -144 z" />
<glyph unicode="&#x631;" horiz-adv-x="865" d="M-105 -103l93 194q54 -26 124 -37t145 -2q58 8 112 30t98 63q45 41 75.5 103t41.5 152q7 63 3 138.5t-22 165t-50.5 193.5t-81.5 223l198 82q55 -134 91.5 -251.5t56 -220t23.5 -191.5t-5 -164q-16 -131 -64.5 -226t-119.5 -161t-155.5 -101.5t-173.5 -46.5 q-53 -7 -105.5 -6t-102.5 8.5t-96 21.5t-85 33z" />
<glyph unicode="&#x632;" horiz-adv-x="865" d="M-105 -103l93 194q54 -26 124 -37t145 -2q58 8 112 30t98 63q45 41 75.5 103t41.5 152q7 63 3 138.5t-22 165t-50.5 193.5t-81.5 223l198 82q55 -134 91.5 -251.5t56 -220t23.5 -191.5t-5 -164q-16 -131 -64.5 -226t-119.5 -161t-155.5 -101.5t-173.5 -46.5 q-53 -7 -105.5 -6t-102.5 8.5t-96 21.5t-85 33zM189 1483l160 143l164 -183l-161 -144z" />
<glyph unicode="&#x633;" horiz-adv-x="2518" d="M46 566q0 95 29 201t107 215l173 -127q-54 -74 -74 -148t-20 -140q0 -101 32 -174.5t84.5 -121t119.5 -70t138 -22.5q82 0 160.5 26t140.5 75.5t100 121t38 161.5q0 97 -48 214.5t-160 257.5l167 134q136 -170 195.5 -322.5t59.5 -283.5q0 -18 -1 -35t-3 -34h231l15 9 q105 73 119 187q8 63 -10.5 136t-66.5 155q-8 15 -17.5 30t-20.5 31l177 120q13 -18 24 -36.5t22 -36.5q66 -114 91.5 -221.5t13.5 -204.5q-12 -94 -55 -169l247 3q39 -2 70.5 16.5t54 47t36 63t18.5 66.5q8 63 -10.5 136t-66.5 155q-8 15 -17.5 30t-20.5 31l177 120 q13 -18 24 -36.5t22 -36.5q66 -103 91.5 -220.5t7.5 -226.5q-11 -69 -40.5 -131t-77.5 -110t-114.5 -79.5t-153.5 -40.5l-839 -1q-48 -85 -120.5 -148t-160.5 -102q-70 -32 -145.5 -48.5t-152.5 -16.5q-73 0 -145 16t-137.5 48t-121.5 81t-97.5 116t-65 152t-23.5 188z" />
<glyph unicode="&#x634;" horiz-adv-x="2518" d="M46 566q0 95 29 201t107 215l173 -127q-54 -74 -74 -148t-20 -140q0 -101 32 -174.5t84.5 -121t119.5 -70t138 -22.5q82 0 160.5 26t140.5 75.5t100 121t38 161.5q0 97 -48 214.5t-160 257.5l167 134q136 -170 195.5 -322.5t59.5 -283.5q0 -18 -1 -35t-3 -34h231l15 9 q105 73 119 187q8 63 -10.5 136t-66.5 155q-8 15 -17.5 30t-20.5 31l177 120q13 -18 24 -36.5t22 -36.5q66 -114 91.5 -221.5t13.5 -204.5q-12 -94 -55 -169l247 3q39 -2 70.5 16.5t54 47t36 63t18.5 66.5q8 63 -10.5 136t-66.5 155q-8 15 -17.5 30t-20.5 31l177 120 q13 -18 24 -36.5t22 -36.5q66 -103 91.5 -220.5t7.5 -226.5q-11 -69 -40.5 -131t-77.5 -110t-114.5 -79.5t-153.5 -40.5l-839 -1q-48 -85 -120.5 -148t-160.5 -102q-70 -32 -145.5 -48.5t-152.5 -16.5q-73 0 -145 16t-137.5 48t-121.5 81t-97.5 116t-65 152t-23.5 188z M1401 1505l160 143l120 -135l151 135l164 -183l-161 -144l-120 135l-151 -135zM1511 1823l160 143l164 -183l-161 -144z" />
<glyph unicode="&#x635;" horiz-adv-x="2570" d="M40 566q0 97 30 203.5t105 212.5l173 -127q-54 -74 -74 -148t-20 -140q0 -102 32 -175t85 -120.5t120 -70t138 -22.5q84 0 163 29t140 80.5t98 122t37 154.5q0 96 -48 213t-160 257l168 134q72 -90 121.5 -174t80.5 -164q81 127 164 220t166 156t163.5 98.5t157.5 47.5 q23 4 45.5 5.5t44.5 1.5q119 0 220 -47.5t174 -125.5t114 -177.5t41 -203.5q0 -102 -41.5 -197t-131 -168.5t-229.5 -117.5t-338 -44h-572q-48 -85 -120 -147t-159 -102q-70 -32 -146 -48.5t-153 -16.5q-109 0 -214.5 35.5t-189 109.5t-134.5 187.5t-51 268.5zM1285 494 l495 -1q142 0 242 25t163 68t91.5 100.5t28.5 120.5q0 62 -25 122.5t-70 108.5t-107 77.5t-135 29.5q-14 0 -27 -1t-27 -3q-71 -11 -147.5 -51.5t-156.5 -118t-162 -195t-163 -282.5z" />
<glyph unicode="&#x636;" horiz-adv-x="2570" d="M40 566q0 97 30 203.5t105 212.5l173 -127q-54 -74 -74 -148t-20 -140q0 -102 32 -175t85 -120.5t120 -70t138 -22.5q84 0 163 29t140 80.5t98 122t37 154.5q0 96 -48 213t-160 257l168 134q72 -90 121.5 -174t80.5 -164q81 127 164 220t166 156t163.5 98.5t157.5 47.5 q23 4 45.5 5.5t44.5 1.5q119 0 220 -47.5t174 -125.5t114 -177.5t41 -203.5q0 -102 -41.5 -197t-131 -168.5t-229.5 -117.5t-338 -44h-572q-48 -85 -120 -147t-159 -102q-70 -32 -146 -48.5t-153 -16.5q-109 0 -214.5 35.5t-189 109.5t-134.5 187.5t-51 268.5zM1224 1546 l160 143l164 -183l-161 -144zM1285 494l495 -1q142 0 242 25t163 68t91.5 100.5t28.5 120.5q0 62 -25 122.5t-70 108.5t-107 77.5t-135 29.5q-14 0 -27 -1t-27 -3q-71 -11 -147.5 -51.5t-156.5 -118t-162 -195t-163 -282.5z" />
<glyph unicode="&#x637;" horiz-adv-x="1783" d="M120 279v214h127q73 87 110.5 211.5t37.5 279.5q0 101 -15.5 207.5t-44.5 206.5q-14 51 -31 103.5t-38 106.5l200 77q23 -59 41.5 -116.5t34.5 -114.5q29 -108 45.5 -209.5t21.5 -208.5q125 146 250.5 221t241.5 95q51 9 99 9q79 0 150.5 -22t132 -60.5t110 -91t84 -114 t53 -130t18.5 -137.5q0 -102 -41.5 -197t-130.5 -168.5t-229.5 -117.5t-338.5 -44h-888zM514 493h495q142 0 242 25t163 67.5t91.5 99.5t28.5 121q0 63 -25.5 124t-70.5 109t-107 77.5t-135 29.5q-14 0 -28.5 -1.5t-29.5 -3.5q-70 -12 -146.5 -53.5t-156 -119t-160.5 -195 t-161 -280.5z" />
<glyph unicode="&#x638;" horiz-adv-x="1783" d="M120 279v214h127q73 87 110.5 211.5t37.5 279.5q0 101 -15.5 207.5t-44.5 206.5q-14 51 -31 103.5t-38 106.5l200 77q23 -59 41.5 -116.5t34.5 -114.5q29 -108 45.5 -209.5t21.5 -208.5q125 146 250.5 221t241.5 95q51 9 99 9q79 0 150.5 -22t132 -60.5t110 -91t84 -114 t53 -130t18.5 -137.5q0 -102 -41.5 -197t-130.5 -168.5t-229.5 -117.5t-338.5 -44h-888zM514 493h495q142 0 242 25t163 67.5t91.5 99.5t28.5 121q0 63 -25.5 124t-70.5 109t-107 77.5t-135 29.5q-14 0 -28.5 -1.5t-29.5 -3.5q-70 -12 -146.5 -53.5t-156 -119t-160.5 -195 t-161 -280.5zM682 1614l160 143l164 -183l-161 -144z" />
<glyph unicode="&#x639;" horiz-adv-x="1225" d="M39 255q0 75 20 148.5t62 141.5q54 87 145 157q-43 31 -78 70.5t-59.5 85.5t-37.5 98t-13 108q0 91 35 171t95.5 140t141.5 95t173 35q74 0 140.5 -22.5t121.5 -62.5t96 -95.5t64 -121.5l-203 -67q-12 34 -33.5 62.5t-50 49t-63.5 32t-72 11.5q-48 0 -90 -18t-73.5 -49 t-49.5 -72.5t-18 -87.5q0 -47 18 -88.5t49.5 -72.5t73.5 -49t90 -18q56 2 118 8t131 6q24 0 48.5 -1t50.5 -3l-16 -215q-45 3 -86 3q-134 0 -231.5 -32.5t-160.5 -86t-93.5 -122t-30.5 -140.5q0 -65 25 -125.5t73 -107t118.5 -74.5t161.5 -28q98 0 218.5 36t264.5 120 l107 -186q-169 -98 -317.5 -141t-272.5 -43q-122 0 -229.5 41t-188 114t-127.5 174t-47 222z" />
<glyph unicode="&#x63a;" horiz-adv-x="1225" d="M39 255q0 75 20 148.5t62 141.5q54 87 145 157q-43 31 -78 70.5t-59.5 85.5t-37.5 98t-13 108q0 91 35 171t95.5 140t141.5 95t173 35q74 0 140.5 -22.5t121.5 -62.5t96 -95.5t64 -121.5l-203 -67q-12 34 -33.5 62.5t-50 49t-63.5 32t-72 11.5q-48 0 -90 -18t-73.5 -49 t-49.5 -72.5t-18 -87.5q0 -47 18 -88.5t49.5 -72.5t73.5 -49t90 -18q56 2 118 8t131 6q24 0 48.5 -1t50.5 -3l-16 -215q-45 3 -86 3q-134 0 -231.5 -32.5t-160.5 -86t-93.5 -122t-30.5 -140.5q0 -65 25 -125.5t73 -107t118.5 -74.5t161.5 -28q98 0 218.5 36t264.5 120 l107 -186q-169 -98 -317.5 -141t-272.5 -43q-122 0 -229.5 41t-188 114t-127.5 174t-47 222zM338 1786l160 143l164 -183l-161 -144z" />
<glyph unicode="&#x640;" horiz-adv-x="469" d="M-5 279v215h485v-215h-485z" />
<glyph unicode="&#x641;" horiz-adv-x="1783" d="M27 782v1l214 21q5 -60 28.5 -115.5t72 -98.5t124 -69.5t185.5 -27.5l93 1q-53 68 -82 150.5t-29 174.5q0 113 43 211.5t117.5 172t174.5 115.5t214 42q113 0 213 -42t175 -115t118.5 -172t43.5 -212t-43.5 -211t-118 -171.5t-174.5 -115.5t-214 -42h-531 q-114 1 -204.5 23.5t-159.5 62t-118.5 93.5t-81.5 117q-25 48 -40 100.5t-20 106.5zM742 1640l160 143l164 -183l-161 -144zM847 819q0 -65 25 -123t68 -102t101 -70.5t124 -29.5q76 0 141 25.5t112 70t73.5 103.5t26.5 126t-26 126.5t-71.5 104t-107 70.5t-131.5 26 t-131 -26t-106.5 -70.5t-71.5 -104t-26 -126.5z" />
<glyph unicode="&#x642;" horiz-adv-x="1465" d="M22 270l170 130q76 -99 158.5 -157.5t167.5 -83.5q32 -10 64 -14t64 -4q91 0 175.5 33.5t156.5 95.5q-26 -5 -52 -7.5t-53 -2.5q-114 0 -214.5 43.5t-175 118t-117.5 174.5t-43 214t43 214.5t118 175t175 117.5t214 43q113 0 213 -43t175 -117.5t118.5 -175t43.5 -214.5 v-1q0 -170 -51.5 -316.5t-137.5 -259.5q-69 -91 -156.5 -157.5t-187.5 -104.5q-116 -45 -243 -45q-94 0 -188 27q-117 33 -227.5 110.5t-209.5 206.5zM537 810q0 -69 26.5 -130t72.5 -106.5t107 -72t130 -26.5t130 26.5t106.5 72t72 106.5t26.5 130t-26.5 130.5t-72 107 t-106.5 72t-130 26.5t-130 -26.5t-107 -72t-72.5 -107t-26.5 -130.5zM548 1659l160 143l120 -135l151 135l164 -183l-161 -144l-120 135l-151 -135z" />
<glyph unicode="&#x643;" horiz-adv-x="1689" d="M40 782l213 22q7 -61 31 -117t71.5 -98.5t123 -68.5t185.5 -27l582 1q73 86 110.5 211t37.5 280q0 51 -4.5 104t-12.5 110q-17 107 -45 206.5t-67 202.5l200 77q43 -110 75 -226t49 -228q10 -64 14.5 -125t4.5 -120q0 -210 -58.5 -380t-173.5 -287l-36 -38l-677 -2 q-114 1 -204.5 23.5t-159.5 62t-118.5 93.5t-81.5 117q-24 47 -39 100t-20 107zM507 938l292 167q-47 22 -90.5 41.5t-76.5 41t-52.5 47.5t-19.5 61q0 43 50 80l328 234l104 -146l-235 -167q49 -17 93 -38.5t77.5 -47.5t53 -55t19.5 -60q0 -53 -65 -91l-389 -222z" />
<glyph unicode="&#x644;" horiz-adv-x="1303" d="M49 650q0 78 22.5 158.5t72.5 165.5l184 -110q-34 -57 -49.5 -111t-15.5 -103q0 -75 30 -139.5t78.5 -112.5t109.5 -75t122 -27q93 0 169.5 27.5t131 89t84.5 160.5t30 243q0 151 -38 349t-121 448l203 67q90 -269 130 -485t40 -385q0 -145 -27 -257t-78 -197 q-42 -72 -99.5 -124t-125 -86t-143.5 -49.5t-156 -14.5q-75 1 -145.5 22.5t-132 59.5t-112.5 90.5t-87.5 115t-56.5 134t-20 146.5z" />
<glyph unicode="&#x645;" horiz-adv-x="1517" d="M37 270q0 114 45 206q41 85 116 144t184 89q-9 49 -9 101q0 114 43 214t117.5 175t175 118t214.5 43q76 0 146 -19.5t131 -55t111 -85.5t86 -111.5t55.5 -131.5t19.5 -147q0 -114 -43 -214t-117.5 -175t-174.5 -118t-214 -43q-115 0 -214.5 43t-174.5 118 q-20 20 -37.5 42t-33.5 45q-109 -23 -160.5 -82t-51.5 -157q0 -72 28 -161.5t84 -194.5l-189 -101q-70 131 -103.5 245.5t-33.5 212.5zM587 810q0 -69 26.5 -130t72.5 -106.5t107 -72t130 -26.5t130 26.5t106.5 72t72 106.5t26.5 130q0 70 -26.5 131t-72.5 106.5t-106.5 72 t-129.5 26.5t-130 -26.5t-107 -72t-72.5 -107t-26.5 -130.5z" />
<glyph unicode="&#x646;" horiz-adv-x="1334" d="M40 566q0 95 29 201t107 215l173 -127q-54 -74 -74 -148t-20 -140q0 -101 32 -174.5t84.5 -121t119.5 -70t138 -22.5q82 0 160.5 26t140.5 75.5t100 121t38 161.5q0 97 -48 214.5t-160 257.5l167 134q136 -170 195.5 -322.5t59.5 -283.5q0 -65 -13 -123.5t-36 -111.5 q-46 -103 -125.5 -178t-179.5 -120q-70 -32 -145.5 -48.5t-152.5 -16.5q-73 0 -145 16t-137.5 48t-121.5 81t-97.5 116t-65 152t-23.5 188zM411 1312l160 143l164 -183l-161 -144z" />
<glyph unicode="&#x647;" horiz-adv-x="1194" d="M36 810q0 114 43 214t117.5 175t175 118t214.5 43q76 0 146 -19.5t131 -55t111 -85.5t86 -111.5t55.5 -131.5t19.5 -147q0 -114 -43 -214t-117.5 -175t-174.5 -118t-214 -43q-115 0 -215 43.5t-174.5 118.5t-117.5 175t-43 213zM250 810q0 -69 26.5 -130t72.5 -106.5 t107 -72t130 -26.5t130 26.5t106.5 72t72 106.5t26.5 130q0 70 -26.5 131t-72.5 106.5t-106.5 72t-129.5 26.5t-130 -26.5t-107 -72t-72.5 -107t-26.5 -130.5z" />
<glyph unicode="&#x648;" horiz-adv-x="1194" d="M46 810q0 115 42.5 214.5t117.5 174.5t175 118t215 43t214 -43t174 -118t118 -174.5t43 -214.5q0 -141 -20.5 -258.5t-58 -213t-90 -170.5t-116.5 -131q-65 -57 -139 -95.5t-155 -62.5t-167.5 -34.5t-175.5 -10.5v215q71 0 139.5 7.5t132 25t120 46t104.5 70.5 q53 45 92 106q-50 -21 -104 -32.5t-111 -11.5q-115 0 -215 43t-175 118t-117.5 174.5t-42.5 214.5zM260 810q0 -69 26 -130t72 -107t107 -72t131 -26q69 0 130 26t106 72q46 46 72.5 107t26.5 130q0 70 -26.5 130.5t-72.5 106.5q-45 46 -106 72.5t-130 26.5 q-70 0 -131 -26.5t-107 -72.5t-72 -106.5t-26 -130.5z" />
<glyph unicode="&#x649;" horiz-adv-x="1496" d="M33.5 708q2.5 46 14 96.5t33.5 104t58 107.5q31 47 64 85t78 77l142 -161q-29 -26 -56.5 -56.5t-47.5 -62.5q-48 -72 -61.5 -138.5t-8.5 -117.5q9 -94 50 -157.5t104 -102.5q55 -35 121.5 -53t138.5 -23q75 -5 149.5 4t141.5 30q88 28 150 69.5t77 91.5q11 38 -6 66.5 t-51 50.5t-79 39t-88 32q-44 15 -84.5 30.5t-75 35t-60.5 44.5t-41 61q-27 66 -27.5 137.5t24.5 141.5q34 96 107 174q36 38 81.5 69.5t99.5 54.5q49 20 104 31.5t116.5 12.5t128 -10t137.5 -36l-71 -203q-102 35 -185 34t-147 -27q-33 -14 -60 -32.5t-48 -41.5 q-43 -44 -61 -96q-11 -34 -12 -66.5t11 -60.5q1 -2 12 -6.5t29.5 -11t42 -14.5t49.5 -17q51 -18 104 -37.5t100.5 -45t86 -58.5t61 -77.5t26 -102.5t-18.5 -132q-16 -53 -50 -99t-82 -84.5t-108 -69.5t-128 -52q-85 -26 -179 -38t-189 -6q-97 7 -189.5 33t-171.5 76 q-51 33 -94.5 75t-76.5 94t-54.5 115t-28.5 138q-4 40 -1.5 86z" />
<glyph unicode="&#x64a;" horiz-adv-x="1496" d="M33.5 708q2.5 46 14 96.5t33.5 104t58 107.5q31 47 64 85t78 77l142 -161q-29 -26 -56.5 -56.5t-47.5 -62.5q-48 -72 -61.5 -138.5t-8.5 -117.5q9 -94 50 -157.5t104 -102.5q55 -35 121.5 -53t138.5 -23q75 -5 149.5 4t141.5 30q88 28 150 69.5t77 91.5q11 38 -6 66.5 t-51 50.5t-79 39t-88 32q-44 15 -84.5 30.5t-75 35t-60.5 44.5t-41 61q-27 66 -27.5 137.5t24.5 141.5q34 96 107 174q36 38 81.5 69.5t99.5 54.5q49 20 104 31.5t116.5 12.5t128 -10t137.5 -36l-71 -203q-102 35 -185 34t-147 -27q-33 -14 -60 -32.5t-48 -41.5 q-43 -44 -61 -96q-11 -34 -12 -66.5t11 -60.5q1 -2 12 -6.5t29.5 -11t42 -14.5t49.5 -17q51 -18 104 -37.5t100.5 -45t86 -58.5t61 -77.5t26 -102.5t-18.5 -132q-16 -53 -50 -99t-82 -84.5t-108 -69.5t-128 -52q-85 -26 -179 -38t-189 -6q-97 7 -189.5 33t-171.5 76 q-51 33 -94.5 75t-76.5 94t-54.5 115t-28.5 138q-4 40 -1.5 86zM466 -183l160 143l120 -135l151 135l164 -183l-161 -144l-120 135l-151 -135z" />
<glyph unicode="&#x64b;" horiz-adv-x="408" d="M49 1482l17 91l340 193l-17 -91zM63 1649l17 91l340 193l-17 -91z" />
<glyph unicode="&#x64c;" horiz-adv-x="469" d="M45 1619q19 27 44.5 43.5t50.5 22t47 -1t34 -24.5t10.5 -48t-23.5 -72q46 20 85.5 44t71.5 62q-41 10 -60.5 31.5t-22 47.5t8 53t30 49.5t44 36t49.5 12.5q21 -2 28 -24.5t6.5 -51t-6 -55.5t-8.5 -37l38 -12l-17 -76l-46 13q-6 -14 -19.5 -33.5t-32 -40t-40.5 -39.5 t-45.5 -31t-47.5 -15t-46 8t-24 31.5t3 42t10.5 42t-2 32t-34.5 10.5t-86 -20zM334 1773q-2 -11 3 -19t14 -14t20.5 -11.5t24.5 -11.5q2 19 2 35q0 14 -2.5 26.5t-7.5 16.5v-2q-10 10 -23 10q-14 1 -22.5 -8.5t-8.5 -21.5z" />
<glyph unicode="&#x64d;" horiz-adv-x="408" d="M38 -509l17 91l340 193l-17 -91zM65 -341l17 91l340 193l-17 -91z" />
<glyph unicode="&#x64e;" horiz-adv-x="408" d="M49 1482l17 91l340 193l-17 -91z" />
<glyph unicode="&#x64f;" horiz-adv-x="414" d="M13 1507q61 25 105.5 43t79 36t62.5 39.5t56 54.5q-47 11 -69 34t-25.5 51t9 57.5t34 53.5t49.5 38.5t56 13.5q16 -1 25 -12.5t12.5 -29t2.5 -39t-3.5 -41.5t-6.5 -36.5t-7 -24.5l44 -13l-19 -80l-52 12q-11 -23 -37.5 -52.5t-62.5 -55t-78.5 -42.5t-85.5 -15 q-29 2 -47.5 3t-28.5 2t-12.5 1.5t-0.5 1.5zM279 1818q-2 -25 20 -37t51 -23q2 20 2 38q0 15 -2 28.5t-9 18.5v-2q-5 6 -12 8t-12 2q-17 2 -27 -8.5t-11 -24.5z" />
<glyph unicode="&#x650;" horiz-adv-x="408" d="M55 -341l17 91l340 193l-17 -91z" />
<glyph unicode="&#x651;" horiz-adv-x="425" d="M59.5 1603.5q-1.5 27.5 2 53.5t10.5 47.5t14 31.5q0 -3 5 1t11.5 9t11.5 8.5t5 0.5q-8 -20 -13.5 -46.5t-3 -50t14 -39.5t37.5 -15q28 0 43.5 15.5t24 37t13 44.5t12.5 38q1 -3 5.5 0.5t9 8t9 8t5.5 0.5q-8 -29 -2.5 -54t19.5 -40t35.5 -18t46.5 14q6 9 5.5 22t-4.5 26.5 t-11 27t-14 23.5q13 18 24.5 34t22.5 32q11 -17 17.5 -36t11.5 -38q6 -33 3 -67t-15 -62t-33 -45.5t-51 -17.5q-25 0 -37.5 9t-27.5 23q-6 -10 -15 -23t-22 -25t-31 -21t-40 -11q-35 -3 -56 10t-31 35t-11.5 49.5z" />
<glyph unicode="&#x652;" horiz-adv-x="328" d="M59 1556q-5 33 3.5 75.5t27 81.5t46 67t59.5 33q28 4 54 -6.5t46.5 -28.5t34.5 -40.5t17 -41.5q5 -34 -10 -71.5t-41 -87.5v1q0 1 1 2l-3 -5h1h-1q-24 -14 -61.5 -26.5t-74 -15t-65 11t-34.5 51.5zM123 1643q3 -22 21 -32.5t42 -11t50 6.5t46 21l1 1q-3 14 -13.5 30 t-25 29.5t-31.5 22t-35 5.5q-30 -5 -44 -27t-11 -45zM295 1536h1h-1z" />
<glyph unicode="&#x660;" horiz-adv-x="1131" d="M381 605l104 353l248 -233l-87 -344z" />
<glyph unicode="&#x661;" horiz-adv-x="1131" d="M300 1262l118 256q30 -30 65 -99.5t68.5 -167t62.5 -216.5t47.5 -248.5t23 -263t-11.5 -258.5h-70q-14 102 -31.5 208.5t-50 227t-85 258.5t-136.5 303z" />
<glyph unicode="&#x662;" horiz-adv-x="1131" d="M164 1229l111 257q32 -43 76.5 -85t94 -73t99.5 -45t93 -2t74 55.5t43 129.5h64q22 -73 23.5 -141.5t-14.5 -126t-47 -100.5t-74.5 -65.5t-97.5 -21t-115 33.5q25 -99 48 -201.5t35 -203t8 -196t-35 -179.5h-74q8 55 0.5 129.5t-27 159t-49.5 176t-67 180t-80 170.5 t-89 149z" />
<glyph unicode="&#x663;" horiz-adv-x="1131" d="M125 1229q20 64 39 126t39 126h37q24 -65 60 -110.5t78 -69.5t86 -25t83.5 24.5t71.5 78.5t49 137h65q1 -21 2.5 -37t2.5 -30t2.5 -28.5t3.5 -33.5q45 -23 75 -33.5t52 0.5t39 49t37 113q33 -59 45 -117.5t6 -109t-29.5 -89t-62 -57t-90.5 -12t-116 45.5 q-32 -104 -97.5 -138.5t-153.5 -8.5q28 -101 52.5 -201t36.5 -197t7.5 -189.5t-33.5 -177.5h-74q8 55 0.5 129.5t-27 159t-49 176t-67 180t-81 170.5t-89.5 149z" />
<glyph unicode="&#x664;" horiz-adv-x="1131" d="M303 980q1 88 28 156.5t62 115.5q27 35 61.5 66.5t71.5 58.5t74.5 49.5t70 40t57.5 29.5t38 17q-12 -63 -20.5 -122.5t-19.5 -120.5q-26 -6 -59.5 -20t-67.5 -32t-64.5 -38.5t-51.5 -38.5t-28.5 -32t5.5 -20q76 -25 159 -38t169 -32l-76 -225q-18 -14 -41 -27t-48 -32.5 t-52 -49.5t-53 -79q1 -22 18.5 -37t45.5 -25.5t64 -17t74.5 -10t76.5 -4.5t71 -1l-71 -244q-45 8 -99 14.5t-108 15.5t-105.5 22t-90.5 35t-63 54t-24 78q0 9 4.5 35t27 69.5t69.5 105t132 141.5q6 6 -11.5 15.5t-46.5 21.5t-63.5 25.5t-63 27.5t-44.5 27.5t-8 25.5z" />
<glyph unicode="&#x665;" horiz-adv-x="1131" d="M186.5 805.5q9.5 70.5 36 140.5t67.5 135t92.5 114.5t111.5 79.5t123 30q64 0 124.5 -34t108 -89.5t75 -125.5t25.5 -142q-2 -68 -32.5 -132.5t-79.5 -120.5t-112 -100.5t-130.5 -71t-133.5 -32.5t-121.5 14t-95.5 69.5t-55 134.5q-13 60 -3.5 130.5zM345 872 q-5 -40 5.5 -69t31 -47.5t49 -28t61 -11t66 4.5t63.5 18q36 12 64 27.5t48.5 33t34 35.5t22.5 34q-21 42 -43 77t-48 60t-58 38.5t-72 13.5q-44 0 -84.5 -19.5t-72 -48t-50 -61t-17.5 -57.5z" />
<glyph unicode="&#x666;" horiz-adv-x="1131" d="M154 1151l84 268q0 -29 32 -40t83 -11q43 0 93 6t102.5 13.5t104.5 15.5t98 13q-14 -110 -21.5 -202t-7.5 -168q0 -197 44.5 -318.5t125.5 -182.5q-11 -69 -22.5 -138t-22.5 -140q-80 66 -132 146t-82.5 167.5t-42.5 178.5t-12 179q0 63 4.5 122.5t10.5 113.5 q-50 -13 -109.5 -23.5t-119 -15t-114.5 -1.5t-96 17z" />
<glyph unicode="&#x667;" horiz-adv-x="1131" d="M85 1207l59 337q111 -144 193.5 -265.5t142 -226.5t99.5 -196t66 -175q21 94 52 196t77 211.5t109.5 224.5t149.5 234v-359q-73 -92 -124 -192t-86 -193t-56.5 -172.5t-33.5 -130.5q-5 -11 -14 -33t-21 -48.5t-25 -54t-26 -48t-24.5 -31.5t-19.5 -4q-30 119 -83.5 241.5 t-122.5 242t-149 232t-163 210.5z" />
<glyph unicode="&#x668;" horiz-adv-x="1131" d="M154 240v359q73 92 124 192t86 193t56.5 172t33.5 130q4 17 17 51.5t31.5 69.5t39.5 64t42 35q30 -118 73 -238t99 -236.5t126 -226.5t154 -208l-59 -338q-113 146 -187 265t-122 220.5t-76.5 188.5t-50.5 169q-21 -93 -52 -195t-77 -210.5t-109.5 -223t-148.5 -233.5z " />
<glyph unicode="&#x669;" horiz-adv-x="1131" d="M204.5 1015.5q-1.5 72.5 14 144.5t47 138t75 116.5t97.5 80.5t116 30q34 0 60 -12.5t45 -30t32 -37t21 -34.5q27 -63 39 -123.5t15.5 -120t3.5 -119.5q0 -59 3 -119v1q18 -230 125 -435l-71 -251q-147 90 -171 248q-11 71 -15.5 169t-5.5 225q-103 -30 -179 -48t-127 -18 q-39 0 -65 16t-36 43q-22 64 -23.5 136.5zM360 1114q8 -17 23 -26.5t40 -9.5l179 32q-3 25 -7.5 55t-13.5 55.5t-25 43t-43 17.5q-44 -10 -73 -30t-46.5 -44.5t-25 -49t-8.5 -43.5z" />
<glyph unicode="&#x66a;" horiz-adv-x="1026" d="M32 1364l183 183l183 -183l-183 -184zM285 149l255 1373l180 160l-270 -1392zM606 562l183 183l183 -183l-183 -185z" />
<glyph unicode="&#x66d;" horiz-adv-x="815" d="M71 1224v68l214 18l-139 162l47 49l164 -139l17 213h68l17 -213l163 139l49 -49l-140 -162l214 -18v-68l-214 -17l140 -163l-49 -48l-163 139l-17 -214h-68l-17 214l-164 -139l-47 48l139 163z" />
<glyph unicode="&#x6f9;" horiz-adv-x="1033" d="M93 325v934h934v-934h-934zM223 454h675v675h-675v-675z" />
<glyph unicode="&#x2000;" horiz-adv-x="1067" />
<glyph unicode="&#x2001;" horiz-adv-x="2134" />
<glyph unicode="&#x2002;" horiz-adv-x="1067" />
<glyph unicode="&#x2003;" horiz-adv-x="2134" />
<glyph unicode="&#x2004;" horiz-adv-x="711" />
<glyph unicode="&#x2005;" horiz-adv-x="533" />
<glyph unicode="&#x2006;" horiz-adv-x="355" />
<glyph unicode="&#x2007;" horiz-adv-x="355" />
<glyph unicode="&#x2008;" horiz-adv-x="266" />
<glyph unicode="&#x2009;" horiz-adv-x="426" />
<glyph unicode="&#x200a;" horiz-adv-x="118" />
<glyph unicode="&#x200c;" horiz-adv-x="45" d="M10 -80v1631h25v-1631h-25z" />
<glyph unicode="&#x200d;" horiz-adv-x="45" d="M-102 1427l109 109l-109 108l16 16l109 -108l109 108l16 -16l-109 -108l109 -109l-16 -16l-97 96v-1587h-25v1586l-96 -95z" />
<glyph unicode="&#x200e;" horiz-adv-x="45" d="M8 -80v1631h234l-93 93l17 17l125 -124q-32 -33 -62.5 -63.5l-62.5 -62.5l-17 17l97 97h-213v-1605h-25z" />
<glyph unicode="&#x200f;" horiz-adv-x="45" d="M-246 1537l125 124l17 -17l-93 -93h234v-1631h-25v1605h-213l97 -97l-17 -17q-32 32 -62.5 63t-62.5 63z" />
<glyph unicode="&#x2010;" horiz-adv-x="810" d="M60 745l66 206l621 -3l-66 -205z" />
<glyph unicode="&#x2011;" horiz-adv-x="810" d="M60 745l66 206l621 -3l-66 -205z" />
<glyph unicode="&#x2012;" horiz-adv-x="810" d="M60 745l66 206l621 -3l-66 -205z" />
<glyph unicode="&#x2013;" d="M0 703v192h990v-192h-990z" />
<glyph unicode="&#x2014;" horiz-adv-x="1782" d="M0 703v192h1782v-192h-1782z" />
<glyph unicode="&#x2018;" horiz-adv-x="391" d="M64 1516h143l119 -483h-143z" />
<glyph unicode="&#x2019;" horiz-adv-x="391" d="M64 1033l119 483h143l-119 -483h-143z" />
<glyph unicode="&#x201a;" horiz-adv-x="495" d="M123 300v226h249v-169q0 -134 -59.5 -210.5t-183.5 -102.5v90q79 24 107 72q18 33 24 94h-137z" />
<glyph unicode="&#x201c;" horiz-adv-x="643" d="M64 1516h143l119 -483h-143zM309 1516h143l120 -483h-144z" />
<glyph unicode="&#x201d;" horiz-adv-x="643" d="M64 1033l119 483h143l-119 -483h-143zM309 1033l119 483h144l-120 -483h-143z" />
<glyph unicode="&#x2022;" horiz-adv-x="613" d="M-1 665q0 129 88 217t216 88q127 0 215 -88t88 -217q0 -127 -88 -214.5t-215 -87.5q-128 0 -216 87.5t-88 214.5z" />
<glyph unicode="&#x202f;" horiz-adv-x="426" />
<glyph unicode="&#x205f;" horiz-adv-x="533" />
<glyph unicode="&#x2122;" horiz-adv-x="1782" d="M78 1426v153h610v-153h-205v-576h-200v576h-205zM826 850v729h271l170 -605l165 605h271v-729h-187v664l-176 -664h-150l-177 661v-661h-187z" />
<glyph unicode="&#xe000;" horiz-adv-x="1245" d="M0 0v1245h1245v-1245h-1245z" />
<glyph unicode="&#xe820;" horiz-adv-x="408" d="M61 1032l17 91l340 193l-17 -91z" />
<glyph unicode="&#xe821;" horiz-adv-x="414" d="M-7 1047q61 25 105.5 43t79 36t62.5 39.5t56 54.5q-47 11 -69 34t-25.5 51t9 57.5t34 53.5t49.5 38.5t56 13.5q16 -1 25 -12.5t12.5 -29t2.5 -39t-3.5 -41.5t-6.5 -36.5t-7 -24.5l44 -13l-19 -80l-52 12q-11 -23 -37.5 -52.5t-62.5 -55t-78.5 -42.5t-85.5 -15 q-29 2 -47.5 3t-28.5 2t-12.5 1.5t-0.5 1.5zM259 1358q-2 -25 20 -37t51 -23q2 20 2 38q0 15 -2 28.5t-9 18.5v-2q-5 6 -12 8t-12 2q-17 2 -27 -8.5t-11 -24.5z" />
<glyph unicode="&#xe822;" horiz-adv-x="328" d="M56 1109q-5 33 3.5 75.5t27 81.5t46 67t59.5 33q28 4 54 -6.5t46.5 -28.5t34.5 -40.5t17 -41.5q5 -34 -10 -71.5t-41 -87.5v1q0 1 1 2l-3 -5h1h-1q-24 -14 -61.5 -26.5t-74 -15t-65 11t-34.5 51.5zM120 1196q3 -22 21 -32.5t42 -11t50 6.5t46 21l1 1q-3 14 -13.5 30 t-25 29.5t-31.5 22t-35 5.5q-30 -5 -44 -27t-11 -45zM292 1089h1h-1z" />
<glyph unicode="&#xe823;" horiz-adv-x="408" d="M51 1029l17 91l340 193l-17 -91zM65 1196l17 91l340 193l-17 -91z" />
<glyph unicode="&#xe824;" horiz-adv-x="469" d="M44 1194q19 27 44.5 43.5t50.5 22t47 -1t34 -24.5t10.5 -48t-23.5 -72q46 20 85.5 44t71.5 62q-41 10 -60.5 31.5t-22 47.5t8 53t30 49.5t44 36t49.5 12.5q21 -2 28 -24.5t6.5 -51t-6 -55.5t-8.5 -37l38 -12l-17 -76l-46 13q-6 -14 -19.5 -33.5t-32 -40t-40.5 -39.5 t-45.5 -31t-47.5 -15t-46 8t-24 31.5t3 42t10.5 42t-2 32t-34.5 10.5t-86 -20zM333 1348q-2 -11 3 -19t14 -14t20.5 -11.5t24.5 -11.5q2 19 2 35q0 14 -2.5 26.5t-7.5 16.5v-2q-10 10 -23 10q-14 1 -22.5 -8.5t-8.5 -21.5z" />
<glyph unicode="&#xe825;" horiz-adv-x="425" d="M57.5 1144.5q-1.5 27.5 2 53.5t10.5 47.5t14 31.5q0 -3 5 1t11.5 9t11.5 8.5t5 0.5q-8 -20 -13.5 -46.5t-3 -50t14 -39.5t37.5 -15q28 0 43.5 15.5t24 37t13 44.5t12.5 38q1 -3 5.5 0.5t9 8t9 8t5.5 0.5q-8 -29 -2.5 -54t19.5 -40t35.5 -18t46.5 14q6 9 5.5 22t-4.5 26.5 t-11 27t-14 23.5q13 18 24.5 34t22.5 32q11 -17 17.5 -36t11.5 -38q6 -33 3 -67t-15 -62t-33 -45.5t-51 -17.5q-25 0 -37.5 9t-27.5 23q-6 -10 -15 -23t-22 -25t-31 -21t-40 -11q-35 -3 -56 10t-31 35t-11.5 49.5z" />
<glyph unicode="&#xe826;" horiz-adv-x="408" d="M55 -341l17 91l340 193l-17 -91z" />
<glyph unicode="&#xe827;" horiz-adv-x="408" d="M38 -509l17 91l340 193l-17 -91zM65 -341l17 91l340 193l-17 -91z" />
<glyph unicode="&#xe828;" horiz-adv-x="425" d="M60 1259l17 91l340 193l-17 -91zM65 1140q0 21 4.5 39.5t9.5 29.5q0 -3 4.5 1.5t9.5 10.5t10 10.5t5 1.5q-5 -21 -7 -40t2 -32.5t17 -19t38 -0.5q28 5 41 23t17.5 40.5t5.5 46t6 39.5q1 -3 4.5 1t7.5 9t8 9.5t6 1.5q-3 -30 6.5 -54t26 -36.5t38 -11.5t42.5 21q4 10 2 23 t-8.5 25.5t-15.5 24.5t-18 21q5 10 14.5 15.5t20 10t20 9.5t15.5 13q5 -8 5.5 -12.5t-0.5 -8.5t-1.5 -8.5t3.5 -13.5q12 -32 14.5 -66t-5 -63.5t-25.5 -50.5t-47 -26q-25 -4 -39 3t-31 18q-4 -11 -10.5 -25.5t-18 -28.5t-27 -25.5t-37.5 -16.5q-34 -9 -56 -3.5t-35 20 t-17.5 35t-4.5 40.5z" />
<glyph unicode="&#xe829;" horiz-adv-x="425" d="M11 1347q60 20 103 34t77 28t61.5 31t54.5 43q-46 8 -67.5 26.5t-25 40.5t8.5 45t33 42t48.5 30.5t55.5 10.5q23 -1 31 -20t7.5 -43.5t-6.5 -47.5t-10 -33l43 -10l-19 -63l-50 10q-11 -18 -37 -41t-61.5 -43.5t-76.5 -34t-83 -11.5q-57 4 -75 4q-17 0 -12 2zM72.5 1188.5 q-0.5 26.5 3.5 48.5t9 33q0 -3 5 1.5t10.5 10.5t10 10t4.5 1q-5 -21 -6.5 -47.5t4 -49.5t19.5 -37.5t40 -9.5q28 5 41 23t18 40.5t6.5 45.5t6.5 39q1 -3 4.5 1t8 9t8 9.5t5.5 1.5q-3 -30 6 -54t25.5 -37t38 -12.5t43.5 20.5q4 10 2 23t-8.5 26t-15 25t-17.5 21 q11 20 19.5 37.5t17.5 34.5q13 -15 22.5 -33t17.5 -36q11 -32 13 -66t-6 -63.5t-26.5 -50t-47.5 -24.5q-25 -4 -38.5 3t-30.5 19q-4 -11 -11 -25t-18.5 -28t-27.5 -25.5t-38 -16.5q-34 -8 -56.5 1.5t-36 29.5t-19 47.5t-6 54zM271 1592q-2 -20 19 -29.5t50 -17.5q2 16 2 30 q0 11 -2 22t-9 14v-1q-5 5 -11.5 6.5t-11.5 1.5q-17 1 -26.5 -7t-10.5 -19z" />
<glyph unicode="&#xe82a;" horiz-adv-x="425" d="M70 1154q0 29 22 101l23 4q0 -111 39 -111q29 0 57.5 48t32.5 114l19 6q24 -98 61 -98q24 0 44 42.5t20 104.5l22 11q15 -51 15 -99q0 -76 -29.5 -121t-75.5 -45q-21 0 -64 21q-38 -87 -108 -87q-78 0 -78 109zM74 1283q0 45 12 65q12 17 54 42l272 160q0 -47 -8 -64.5 t-41 -36.5zM74 1433q0 45 12 65t54 44l272 159q0 -47 -8 -65t-41 -37z" />
<glyph unicode="&#xe82b;" horiz-adv-x="468" d="M40 1475q20 23 46.5 37.5t53 18.5t49.5 -1.5t35.5 -20.5t11 -40.5t-24.5 -61.5q48 17 89.5 38t75.5 53q-43 9 -63 27t-23.5 40t8 45t31.5 41.5t46 30t52 10.5q22 -2 29.5 -21t7 -43t-6 -46.5t-9.5 -31.5l40 -10l-18 -65l-48 11q-7 -12 -21 -28.5t-33 -34t-42 -33t-48 -26 t-50 -13t-48 6.5q-23 10 -25 27t3 36t11 36t-2 26.5t-36 9t-91 -17.5zM84.5 1188.5q-0.5 26.5 3.5 49t9 33.5q1 -2 5.5 3t10 10.5t10 9.5t4.5 1q-5 -21 -6.5 -47.5t4 -49.5t19.5 -37.5t40 -9.5q28 5 41 23t18 40.5t6.5 45.5t6.5 39q1 -3 4.5 1t8 9t8 9.5t5.5 1.5 q-3 -30 6 -54t25.5 -37t38 -12.5t43.5 20.5q4 10 2 23t-8.5 26t-15 25t-17.5 21q11 20 19.5 37.5t17.5 34.5q13 -15 22.5 -33t17.5 -36q11 -32 13 -66t-6 -63.5t-26.5 -50t-47.5 -24.5q-25 -4 -38.5 3t-30.5 19q-4 -11 -11 -25t-18.5 -28t-27.5 -25.5t-38 -16.5 q-34 -8 -56.5 1.5t-36 29.5t-19 46.5t-6 53zM343 1606q-2 -10 3.5 -16.5t14.5 -11.5t21.5 -9.5t25.5 -9.5q2 17 2 30q0 11 -2 21.5t-8 14.5v-2q-5 5 -12 6.5t-12 1.5q-14 1 -23.5 -7t-9.5 -18z" />
<glyph unicode="&#xe82c;" horiz-adv-x="425" d="M61.5 1400.5q0.5 26.5 4.5 49t10 32.5q0 -3 4.5 1.5l10.5 10.5t10.5 10t4.5 1q-6 -21 -8 -48t3 -50t18.5 -37.5t39.5 -10.5q29 4 42.5 21t19 39.5t7 46t7.5 39.5q1 -3 5 0.5t8.5 9t8 9.5t5.5 1q-4 -29 4 -53.5t24 -38t37 -13.5q22 0 45 20q5 10 3 22.5t-8 25.5 t-14.5 25.5t-16.5 21.5q11 20 20 37t19 34q12 -15 21.5 -33.5t16.5 -36.5q10 -32 11 -66t-7.5 -63t-27.5 -49t-48 -24q-25 -3 -38.5 4t-30.5 20q-4 -11 -11.5 -25t-19 -27.5t-28 -24.5t-38.5 -16q-34 -7 -56.5 3t-35 31t-17.5 48t-4.5 53.5zM72 1031l17 91l340 193l-17 -91z " />
<glyph unicode="&#xe82d;" horiz-adv-x="425" d="M35 1007l33 75l350 141l-33 -75zM45 1112l33 75l350 141l-33 -75zM60.5 1413.5q0.5 26.5 5 49t9.5 32.5q0 -3 4.5 1.5l10.5 10.5t10.5 10t4.5 1q-6 -21 -8 -48t3 -50t18.5 -37.5t39.5 -10.5q29 4 42.5 21t19 39.5t7 46t7.5 39.5q1 -3 5 0.5t8.5 9t8 9.5t5.5 1 q-4 -29 4 -53.5t24 -38t37 -13.5q22 0 45 20q5 10 3 22.5t-8 25.5t-14.5 25.5t-16.5 21.5q11 20 20 37t19 34q12 -15 21.5 -33.5t16.5 -36.5q10 -32 11 -66t-7.5 -63t-27.5 -49t-48 -24q-25 -3 -38.5 4t-30.5 20q-4 -11 -11.5 -25t-19 -27.5t-28 -24.5t-38.5 -16 q-34 -7 -56.5 3t-35 31t-17.5 48t-4.5 53.5z" />
<glyph unicode="&#xe832;" horiz-adv-x="408" d="M10 1222q5 23 8 38.5t7 38.5q99 52 191.5 101.5t191.5 102.5l-14 -77q-97 -51 -192 -101.5t-192 -102.5z" />
<glyph unicode="&#xe833;" horiz-adv-x="408" d="M5 967q5 23 8 38.5t7 38.5q99 52 191.5 101.5t191.5 102.5l-14 -77q-97 -51 -192 -101.5t-192 -102.5z" />
<glyph unicode="&#xe834;" horiz-adv-x="566" d="M-32 1437q-5 35 4 80.5t28.5 86.5t48 71.5t62.5 35.5q28 4 55 -6.5t48.5 -29.5t36 -42.5t17.5 -44.5q6 -33 -11 -74t-44 -93q-14 -8 -32.5 -16t-39.5 -15t-43 -11t-42 -4q-32 0 -57.5 14t-30.5 48zM20 1531q5 -30 29.5 -43.5t56.5 -13.5l112 38q-4 17 -17 37.5t-31 38 t-39 27.5t-42 7q-19 -3 -33 -12.5t-23 -22t-12 -27.5t-1 -29z" />
<glyph unicode="&#xe835;" horiz-adv-x="420" d="M26.5 1068.5q-1.5 27.5 2 53.5t10.5 47.5t14 31.5q0 -3 5 1t11.5 9t11.5 8.5t5 0.5q-8 -20 -13.5 -46.5t-3 -50t14 -39.5t37.5 -15q28 0 43.5 15.5t24 37t13 44.5t12.5 38q1 -3 5.5 0.5t9 8t9 8t5.5 0.5q-8 -29 -2.5 -54t19.5 -40t35.5 -18t46.5 14q6 9 5.5 22t-4.5 26.5 t-11 27t-14 23.5q13 18 24.5 34t22.5 32q11 -17 17.5 -36t11.5 -38q6 -33 3 -67t-15 -62t-33 -45.5t-51 -17.5q-25 0 -37.5 9t-27.5 23q-6 -10 -15 -23t-22 -25t-31 -21t-40 -11q-35 -3 -56 10t-31 35t-11.5 49.5z" />
<glyph unicode="&#xe836;" horiz-adv-x="381" d="M-41.5 1495.5q-1.5 27.5 2 53.5t10.5 47.5t14 31.5q0 -3 5 1t11.5 9t11.5 8.5t5 0.5q-8 -20 -13.5 -46.5t-3 -50t14 -39.5t37.5 -15q28 0 43.5 15.5t24 37t13 44.5t12.5 38q1 -3 5.5 0.5t9 8t9 8t5.5 0.5q-8 -29 -2.5 -54t19.5 -40t35.5 -18t46.5 14q6 9 5.5 22 t-4.5 26.5t-11 27t-14 23.5q13 18 24.5 34t22.5 32q11 -17 17.5 -36t11.5 -38q6 -33 3 -67t-15 -62t-33 -45.5t-51 -17.5q-25 0 -37.5 9t-27.5 23q-6 -10 -15 -23t-22 -25t-31 -21t-40 -11q-35 -3 -56 10t-31 35t-11.5 49.5z" />
<glyph unicode="&#xfd3e;" horiz-adv-x="593" d="M112 98v1640h439v-172h-216v-1297h216v-171h-439z" />
<glyph unicode="&#xfd3f;" horiz-adv-x="593" d="M43 98v171h215v1297h-215v172h438v-1640h-438z" />
<glyph unicode="&#xfeff;" horiz-adv-x="744" />
</font>
</defs>
</svg>
