<?xml version="1.0" standalone="no"?>
<!DOCTYPE svg PUBLIC "-//W3C//DTD SVG 1.1//EN" "http://www.w3.org/Graphics/SVG/1.1/DTD/svg11.dtd" >
<svg xmlns="http://www.w3.org/2000/svg">
<metadata></metadata>
<defs>
<font id="ge_ss_tvbold" horiz-adv-x="0" >
<font-face units-per-em="2048" ascent="1638" descent="-410" />
<missing-glyph horiz-adv-x="380" />
<glyph unicode="&#x627;&#x653;" horiz-adv-x="432" d="M43 1507l61 -59l19 18q23 23 39 23q10 0 28 -6q70 -31 86 -31q30 0 66 33l45 43l-61 61l-35 -35q-13 -10 -25 -10q-11 0 -26 6q-63 35 -88 35q-40 0 -68 -35zM92 0h244v1323h-244v-1323z" />
<glyph unicode="&#x627;&#x654;" horiz-adv-x="432" d="M57 1452h316v94h-117q-66 0 -66 56q0 67 60 67h82v94h-70q-71 0 -117.5 -46t-46.5 -118q0 -24 13 -53h-54v-94zM92 0h244v1323h-244v-1323z" />
<glyph unicode="&#x648;&#x654;" horiz-adv-x="870" d="M92 -154v-247h314q180 0 276 93.5t96 268.5v967h-301q-170 0 -277.5 -103.5t-107.5 -267.5v-184q0 -167 107 -270t278 -103h55v-70q0 -30 -14 -51q-17 -33 -90 -33h-336zM281 1055h315v96h-117q-63 0 -63 55q0 68 59 68h82v92h-72q-71 0 -117 -45t-46 -117q0 -26 12 -53 h-53v-96zM336 395v140q0 149 133 149h63v-440h-63q-133 0 -133 151z" />
<glyph unicode="&#x627;&#x655;" horiz-adv-x="432" d="M57 -414v-94h318v94h-115q-67 0 -67 58q0 65 59 65h82v96h-72q-71 0 -117.5 -46.5t-46.5 -118.5q0 -25 13 -54h-54zM92 0h244v1323h-244v-1323z" />
<glyph unicode="&#x64a;&#x654;" horiz-adv-x="1243" d="M57 727h318v92h-115q-67 0 -67 58q0 65 59 65h82v96h-70q-71 0 -117.5 -47t-46.5 -119q0 -16 13 -53h-56v-92zM92 -39q0 -175 96.5 -268.5t276.5 -93.5h307q180 0 276.5 93.5t96.5 268.5v283h-406v291q0 149 133 149h279v244h-270q-170 0 -277.5 -103.5t-107.5 -267.5 v-557h405v-70q0 -84 -104 -84h-355q-58 0 -78.5 16t-27.5 68v668h-244v-637z" />
<glyph unicode="&#x64c;&#x651;" arabic-form="isolated" d="M-33 1798l80 -43l43 90q1 0 17.5 -24.5t41 -49t46.5 -24.5q4 0 16 4l29 14q65 41 90 62l51 -51l78 59l-47 47q73 49 73 113q0 53 -39.5 92t-93.5 39q-55 0 -94 -40t-39 -97q0 -49 39 -97q-6 -3 -51 -28q-5 0 -20.5 26.5t-38 53t-44.5 26.5q-50 0 -88 -74zM10 1452 q0 -74 60 -74h323q60 0 60 74v170h-95v-147q0 -17 -18 -17h-59v164h-95v-164h-59q-21 0 -21 17v147h-96v-170zM319 1995q0 35 33 35q35 0 35 -33q0 -24 -43 -51l-8 10q-17 17 -17 39z" />
<glyph unicode="&#x64d;&#x651;" arabic-form="isolated" d="M8 1374h445v94h-445v-94zM8 1563h445v98h-445v-98zM8 1864q0 -74 62 -74h321q62 0 62 74v170h-99v-148q0 -16 -16 -16h-59v164h-97v-164h-57q-21 0 -21 16v148h-96v-170z" />
<glyph unicode="&#x64e;&#x651;" arabic-form="isolated" d="M6 1460q0 -76 62 -76h321q62 0 62 76v168h-99v-145q0 -19 -16 -19h-60v164h-96v-164h-57q-21 0 -21 19v145h-96v-168zM6 1757h445v98h-445v-98z" />
<glyph unicode="&#x64f;&#x651;" arabic-form="isolated" d="M4 1460q0 -76 62 -76h321q59 0 59 76v168h-98v-145q0 -19 -14 -19h-60v164h-96v-164h-57q-21 0 -21 19v145h-96v-168zM14 1835l54 -76q49 23 145 86q58 42 70 51l51 -51l74 60l-48 45q78 54 78 112q0 52 -40.5 90.5t-94.5 38.5q-56 0 -93.5 -39.5t-37.5 -95.5 q0 -48 37 -94q-84 -66 -195 -127zM272 2062q0 37 31 37q35 0 35 -37q0 -22 -43 -49l-8 10q-15 24 -15 39z" />
<glyph unicode="&#x650;&#x651;" arabic-form="isolated" d="M10 1380h445v97h-445v-97zM10 1679q0 -73 62 -73h321q62 0 62 73v170h-99v-145q0 -18 -16 -18h-59v163h-97v-163h-57q-21 0 -21 18v145h-96v-170z" />
<glyph unicode="&#xfe8e;&#x64b;" horiz-adv-x="335" arabic-form="final" d="M-27 1399h443v96h-443v-96zM-27 1587h443v99h-443v-99zM92 0h260v244h-16v1079h-244v-1323z" />
<glyph unicode="&#x627;&#x64b;" horiz-adv-x="432" arabic-form="isolated" d="M-27 1399h443v96h-443v-96zM-27 1587h443v99h-443v-99zM92 0h244v1323h-244v-1323z" />
<glyph unicode="&#xfedf;&#xfee0;&#xfeea;" horiz-adv-x="2146" arabic-form="isolated" d="M92 0h250q48 254 145 419.5t228 209.5v-629h1339v1323h-244v-1079h-303v1079h-245v-1079h-304v684q-365 -24 -596.5 -266t-269.5 -662zM1163 1548q0 -75 60 -75h323q60 0 60 75v170h-97v-147q0 -21 -16 -21h-59v168h-99v-168h-59q-19 0 -19 21v147h-94v-170zM1335 1847 h99v416h-99v-416z" />
<glyph unicode="&#xfedf;&#xfe82;" horiz-adv-x="1220" arabic-form="isolated" d="M92 0h1036v1323h-247v-1079h-244v815h-244v-815h-301v-244zM344 1243l62 -61l18 20q20 23 39 23q11 0 24 -8q70 -31 88 -31q35 0 66 31l47 47l-61 59l-23 -20q-20 -25 -37 -25q-8 0 -28 8q-67 31 -86 31q-35 0 -68 -33z" />
<glyph unicode="&#xfee0;&#xfe82;" horiz-adv-x="1128" arabic-form="final" d="M92 0h1049v244h-13v1079h-247v-1079h-244v815h-244v-815h-301v-244zM344 1243l62 -61l18 20q20 23 39 23q11 0 24 -8q70 -31 88 -31q35 0 66 31l47 47l-61 59l-23 -20q-20 -25 -37 -25q-8 0 -28 8q-67 31 -86 31q-35 0 -68 -33z" />
<glyph unicode="&#xfedf;&#xfe84;" horiz-adv-x="1220" arabic-form="isolated" d="M92 0h1036v1323h-247v-1079h-244v639h-244v-639h-301v-244zM356 1012h320v94h-117q-65 0 -65 57q0 68 59 68h82v92h-72q-72 0 -119 -46t-47 -116q0 -21 15 -55h-56v-94z" />
<glyph unicode="&#xfee0;&#xfe84;" horiz-adv-x="1128" arabic-form="final" d="M92 0h1049v244h-13v1079h-247v-1079h-244v639h-244v-639h-301v-244zM356 1012h320v94h-117q-65 0 -65 57q0 68 59 68h82v92h-72q-72 0 -119 -46t-47 -116q0 -21 15 -55h-56v-94z" />
<glyph unicode="&#xfedf;&#xfe88;" horiz-adv-x="1220" arabic-form="isolated" d="M92 0h1036v1323h-247v-1079h-244v1079h-244v-1079h-301v-244zM92 -414v-94h316v94h-113q-66 0 -66 58q0 65 58 65h84v96h-74q-71 0 -117.5 -46.5t-46.5 -118.5q0 -18 12 -54h-53z" />
<glyph unicode="&#xfee0;&#xfe88;" horiz-adv-x="1128" arabic-form="final" d="M92 0h1049v244h-13v1079h-247v-1079h-244v1079h-244v-1079h-301v-244zM92 -414v-94h316v94h-113q-66 0 -66 58q0 65 58 65h84v96h-74q-71 0 -117.5 -46.5t-46.5 -118.5q0 -18 12 -54h-53z" />
<glyph unicode="&#xfedf;&#xfe8e;" horiz-adv-x="1220" arabic-form="isolated" d="M92 0h1036v1323h-247v-1079h-244v1079h-244v-1079h-301v-244z" />
<glyph unicode="&#xfee0;&#xfe8e;" horiz-adv-x="1128" arabic-form="final" d="M92 0h1049v244h-13v1079h-247v-1079h-244v1079h-244v-1079h-301v-244z" />
<glyph unicode="&#x671;" horiz-adv-x="432" arabic-form="isolated" d="M-29 1397h453v147q0 42 -28 69t-72 27h-172v-178h-181v-65zM92 0h244v1323h-244v-1323zM215 1462v115h109q20 0 28 -9t8 -30v-76h-145z" />
<glyph unicode="&#x671;" horiz-adv-x="335" arabic-form="final" d="M-29 1397h453v147q0 42 -28 69t-72 27h-172v-178h-181v-65zM92 0h260v244h-16v1079h-244v-1323zM215 1462v115h109q20 0 28 -9t8 -30v-76h-145z" />
<glyph unicode="&#x67e;" horiz-adv-x="1722" arabic-form="final" d="M92 385q0 -172 103 -278.5t270 -106.5h1274v244h-17v684h-243v-684h-992q-151 0 -151 133v454h-244v-446zM625 -154v-243h243v243h-243zM797 -502v-243h245v243h-245zM971 -154v-243h243v243h-243z" />
<glyph unicode="&#x67e;" horiz-adv-x="739" arabic-form="initial" d="M-27 0h674v928h-244v-684h-430v-244zM57 -154v-243h244v243h-244zM229 -502v-243h246v243h-246zM403 -154v-243h244v243h-244z" />
<glyph unicode="&#x67e;" horiz-adv-x="647" arabic-form="medial" d="M-27 0h686v244h-12v684h-244v-684h-430v-244zM57 -154v-243h244v243h-244zM229 -502v-243h246v243h-246zM403 -154v-243h244v243h-244z" />
<glyph unicode="&#x6a4;" horiz-adv-x="1722" arabic-form="final" d="M92 385q0 -172 103 -278.5t270 -106.5h1274v244h-17v684h-288q-143 0 -222 -37q-98 -45 -155.5 -143.5t-57.5 -215.5q0 -131 84 -247q7 -8 18 -22t15 -19h-629q-151 0 -151 133v454h-244v-446zM903 1081h246v244h-246v-244zM1075 1427h248v244h-248v-244zM1245 537 q0 147 174 147h60v-410q-234 76 -234 263zM1251 1081h244v244h-244v-244z" />
<glyph unicode="&#x6a4;" horiz-adv-x="1122" arabic-form="initial" d="M0 0h1030v928h-291q-155 0 -237 -45q-199 -112 -199 -351q0 -137 84 -247q23 -20 37 -41h-424v-244zM209 1081h244v244h-244v-244zM381 1427h246v244h-246v-244zM549 537q0 147 176 147h61v-410q-237 82 -237 263zM555 1081h244v244h-244v-244z" />
<glyph unicode="&#x6a4;" horiz-adv-x="1030" arabic-form="medial" d="M0 0h1042v244h-12v684h-291q-155 0 -237 -45q-199 -112 -199 -351q0 -137 84 -247q23 -20 37 -41h-424v-244zM209 1081h244v244h-244v-244zM381 1427h246v244h-246v-244zM549 537q0 147 176 147h61v-410q-237 82 -237 263zM555 1081h244v244h-244v-244z" />
<glyph unicode="&#x686;" horiz-adv-x="997" arabic-form="final" d="M92 -72q0 -100 57.5 -186t143.5 -117q71 -26 205 -26h141v247h-213q-92 0 -92 76q0 78 92 78h584v244h-13v313q0 164 -107.5 267.5t-279.5 103.5h-354v-244h362q134 0 134 -149v-291h-365q-115 0 -205 -97t-90 -219zM748 -154v-102h102v102h-102zM819 -301v-102h105v102 h-105zM893 -154v-102h104v102h-104z" />
<glyph unicode="&#x686;" horiz-adv-x="1132" arabic-form="initial" d="M0 0h1040v557q0 164 -107.5 267.5t-277.5 103.5h-354v-244h363q129 0 129 -149v-291h-793v-244zM297 -154v-243h246v243h-246zM469 -502v-243h248v243h-248zM645 -154v-243h244v243h-244z" />
<glyph unicode="&#x686;" horiz-adv-x="1040" arabic-form="medial" d="M0 0h1053v244h-13v313q0 164 -107.5 267.5t-277.5 103.5h-354v-244h363q129 0 129 -149v-291h-793v-244zM297 -154v-243h246v243h-246zM469 -502v-243h248v243h-248zM645 -154v-243h244v243h-244z" />
<glyph unicode="&#x698;" horiz-adv-x="505" arabic-form="final" d="M-84 1081h244v244h-244v-244zM51 -162v-239h33q407 0 422 401h12v244h-12v684h-244v-922q0 -168 -180 -168h-31zM88 1427h246v244h-246v-244zM262 1081h244v244h-244v-244z" />
<glyph unicode="&#x6cc;" horiz-adv-x="849" arabic-form="initial" d="M0 0h758v928h-244v-684h-514v-244zM168 -154v-247h244v247h-244zM514 -154v-247h244v247h-244z" />
<glyph unicode="&#x6cc;" horiz-adv-x="757" arabic-form="medial" d="M0 0h770v244h-12v684h-244v-684h-514v-244zM168 -154v-247h244v247h-244zM514 -154v-247h244v247h-244z" />
<glyph unicode="&#x622;" horiz-adv-x="339" arabic-form="final" d="M43 1507l61 -59l19 18q23 23 39 23q10 0 28 -6q70 -31 86 -31q30 0 66 33l45 43l-61 61l-35 -35q-13 -10 -25 -10q-11 0 -26 6q-63 35 -88 35q-40 0 -68 -35zM92 0h260v244h-16v1079h-244v-1323z" />
<glyph unicode="&#x623;" horiz-adv-x="335" arabic-form="final" d="M53 1452h320v94h-117q-66 0 -66 56q0 67 60 67h82v94h-72q-72 0 -119 -46t-47 -118q0 -19 15 -53h-56v-94zM92 0h260v244h-16v1079h-244v-1323z" />
<glyph unicode="&#x624;" horiz-adv-x="778" arabic-form="final" d="M92 -154v-247h314q180 0 276 93.5t96 268.5v39h13v244h-13v684h-301q-170 0 -277.5 -103.5t-107.5 -267.5v-184q0 -167 107 -270t278 -103h55v-70q0 -30 -14 -51q-17 -33 -90 -33h-336zM281 1055h315v96h-117q-63 0 -63 55q0 68 59 68h82v92h-72q-71 0 -117 -45t-46 -117 q0 -26 12 -53h-53v-96zM336 395v140q0 149 133 149h63v-440h-63q-133 0 -133 151z" />
<glyph unicode="&#x625;" horiz-adv-x="335" arabic-form="final" d="M57 -414v-94h318v94h-115q-67 0 -67 58q0 65 59 65h82v96h-72q-71 0 -117.5 -46.5t-46.5 -118.5q0 -25 13 -54h-54zM92 0h260v244h-16v1079h-244v-1323z" />
<glyph unicode="&#x626;" horiz-adv-x="1144" arabic-form="final" d="M57 727h318v92h-115q-67 0 -67 58q0 65 59 65h82v96h-70q-71 0 -117.5 -47t-46.5 -119q0 -16 13 -53h-56v-92zM92 -39q0 -175 96.5 -268.5t276.5 -93.5h307q180 0 276.5 93.5t96.5 268.5v39h14v244h-504v-244h246v-70q-7 -52 -27.5 -68t-76.5 -16h-355q-58 0 -78.5 16 t-27.5 68v668h-244v-637z" />
<glyph unicode="&#x626;" horiz-adv-x="636" arabic-form="initial" d="M0 0h545v928h-244v-684h-301v-244zM262 1055h318v96h-115q-68 0 -68 55q0 68 60 68h82v92h-72q-71 0 -117.5 -45.5t-46.5 -116.5q0 -26 12 -53h-53v-96z" />
<glyph unicode="&#x626;" horiz-adv-x="548" arabic-form="medial" d="M0 0h557v244h-12v684h-244v-684h-301v-244zM262 1055h318v96h-115q-68 0 -68 55q0 68 60 68h82v92h-72q-71 0 -117.5 -45.5t-46.5 -116.5q0 -26 12 -53h-53v-96z" />
<glyph unicode="&#x627;" horiz-adv-x="335" arabic-form="final" d="M92 0h260v244h-16v1079h-244v-1323z" />
<glyph unicode="&#x628;" horiz-adv-x="1722" arabic-form="final" d="M92 385q0 -172 103 -278.5t270 -106.5h1274v244h-17v684h-243v-684h-992q-151 0 -151 133v454h-244v-446zM786 -154v-247h244v247h-244z" />
<glyph unicode="&#x628;" horiz-adv-x="636" arabic-form="initial" d="M0 0h545v928h-244v-684h-301v-244zM301 -154v-247h244v247h-244z" />
<glyph unicode="&#x628;" horiz-adv-x="544" arabic-form="medial" d="M0 0h557v244h-12v684h-244v-684h-301v-244zM301 -154v-247h244v247h-244z" />
<glyph unicode="&#x629;" horiz-adv-x="958" arabic-form="final" d="M92 0h250q48 254 145 419.5t228 209.5v-629h258v244h-15v684q-365 -24 -596.5 -266t-269.5 -662zM367 1079h247v244h-247v-244zM715 1079h243v244h-243v-244z" />
<glyph unicode="&#x62a;" horiz-adv-x="1722" arabic-form="final" d="M92 385q0 -172 103 -278.5t270 -106.5h1274v244h-17v684h-243v-684h-992q-151 0 -151 133v454h-244v-446zM610 684h248v244h-248v-244zM958 684h244v244h-244v-244z" />
<glyph unicode="&#x62a;" horiz-adv-x="849" arabic-form="initial" d="M0 0h758v928h-244v-684h-514v-244zM168 1079h244v244h-244v-244zM514 1079h244v244h-244v-244z" />
<glyph unicode="&#x62a;" horiz-adv-x="757" arabic-form="medial" d="M0 0h770v244h-12v684h-244v-684h-514v-244zM168 1079h244v244h-244v-244zM514 1079h244v244h-244v-244z" />
<glyph unicode="&#x62b;" horiz-adv-x="1722" arabic-form="final" d="M92 385q0 -172 103 -278.5t270 -106.5h1274v244h-17v684h-243v-684h-992q-151 0 -151 133v454h-244v-446zM610 684h248v244h-248v-244zM786 1030h244v244h-244v-244zM958 684h244v244h-244v-244z" />
<glyph unicode="&#x62b;" horiz-adv-x="849" arabic-form="initial" d="M0 0h758v928h-244v-684h-514v-244zM168 1079h244v244h-244v-244zM340 1425h246v244h-246v-244zM514 1079h244v244h-244v-244z" />
<glyph unicode="&#x62b;" horiz-adv-x="757" arabic-form="medial" d="M0 0h770v244h-12v684h-244v-684h-514v-244zM168 1079h244v244h-244v-244zM340 1425h246v244h-246v-244zM514 1079h244v244h-244v-244z" />
<glyph unicode="&#x62c;" horiz-adv-x="997" arabic-form="final" d="M92 -72q0 -100 57.5 -186t143.5 -117q71 -26 205 -26h141v247h-213q-92 0 -92 76q0 78 92 78h584v244h-13v313q0 164 -107.5 267.5t-279.5 103.5h-354v-244h362q134 0 134 -149v-291h-365q-115 0 -205 -97t-90 -219zM752 -154v-247h245v247h-245z" />
<glyph unicode="&#x62c;" horiz-adv-x="1132" arabic-form="initial" d="M0 0h1040v557q0 164 -107.5 267.5t-277.5 103.5h-354v-244h363q129 0 129 -149v-291h-793v-244zM469 -154v-247h246v247h-246z" />
<glyph unicode="&#x62c;" horiz-adv-x="1040" arabic-form="medial" d="M0 0h1053v244h-13v313q0 164 -107.5 267.5t-277.5 103.5h-354v-244h363q129 0 129 -149v-291h-793v-244zM469 -154v-247h246v247h-246z" />
<glyph unicode="&#x62d;" horiz-adv-x="997" arabic-form="final" d="M92 -72q0 -100 57.5 -186t143.5 -117q71 -26 205 -26h499v247h-571q-92 0 -92 76q0 78 92 78h584v244h-13v313q0 164 -107.5 267.5t-279.5 103.5h-354v-244h362q134 0 134 -149v-291h-365q-115 0 -205 -97t-90 -219z" />
<glyph unicode="&#x62d;" horiz-adv-x="1132" arabic-form="initial" d="M0 0h1040v557q0 164 -107.5 267.5t-277.5 103.5h-354v-244h363q129 0 129 -149v-291h-793v-244z" />
<glyph unicode="&#x62d;" horiz-adv-x="1040" arabic-form="medial" d="M0 0h1053v244h-13v313q0 164 -107.5 267.5t-277.5 103.5h-354v-244h363q129 0 129 -149v-291h-793v-244z" />
<glyph unicode="&#x62e;" horiz-adv-x="997" arabic-form="final" d="M92 -72q0 -100 57.5 -186t143.5 -117q71 -26 205 -26h499v247h-571q-92 0 -92 76q0 78 92 78h584v244h-13v313q0 164 -107.5 267.5t-279.5 103.5h-354v-244h362q134 0 134 -149v-291h-365q-115 0 -205 -97t-90 -219zM432 1079h244v244h-244v-244z" />
<glyph unicode="&#x62e;" horiz-adv-x="1132" arabic-form="initial" d="M0 0h1040v557q0 164 -107.5 267.5t-277.5 103.5h-354v-244h363q129 0 129 -149v-291h-793v-244zM469 1079h246v244h-246v-244z" />
<glyph unicode="&#x62e;" horiz-adv-x="1040" arabic-form="medial" d="M0 0h1053v244h-13v313q0 164 -107.5 267.5t-277.5 103.5h-354v-244h363q129 0 129 -149v-291h-793v-244zM469 1079h246v244h-246v-244z" />
<glyph unicode="&#x62f;" horiz-adv-x="876" arabic-form="final" d="M92 0h797v244h-12v149q0 299 -201 438q-138 99 -334 99h-80v-244q135 -3 187 -20q58 -18 106 -60q76 -64 76 -215v-147h-539v-244z" />
<glyph unicode="&#x630;" horiz-adv-x="876" arabic-form="final" d="M92 0h797v244h-12v149q0 299 -201 438q-138 99 -334 99h-80v-244q135 -3 187 -20q58 -18 106 -60q76 -64 76 -215v-147h-539v-244zM262 1079h244v244h-244v-244z" />
<glyph unicode="&#x631;" horiz-adv-x="505" arabic-form="final" d="M51 -162v-239h33q407 0 422 401h12v244h-12v684h-244v-922q0 -168 -180 -168h-31z" />
<glyph unicode="&#x632;" horiz-adv-x="505" arabic-form="final" d="M51 -162v-239h33q407 0 422 401h12v244h-12v684h-244v-922q0 -168 -180 -168h-31zM262 1079h244v244h-244v-244z" />
<glyph unicode="&#x633;" horiz-adv-x="2160" arabic-form="final" d="M92 -39q0 -175 96.5 -268.5t276.5 -93.5h285q180 0 276 93.5t96 268.5v39h1051v244h-12v684h-246v-684h-275v518h-243v-518h-275v354h-245v-668q0 -29 -11 -51q-26 -33 -94 -33h-330q-58 0 -78.5 16t-27.5 68v668h-244v-637z" />
<glyph unicode="&#x633;" horiz-adv-x="2013" arabic-form="initial" d="M-20 0h1939v928h-244v-684h-272v518h-244v-518h-278v354h-244v-354h-657v-244z" />
<glyph unicode="&#x633;" horiz-adv-x="1918" arabic-form="medial" d="M0 0h1933v244h-14v684h-244v-684h-272v518h-244v-518h-278v354h-244v-354h-637v-244z" />
<glyph unicode="&#x634;" horiz-adv-x="2160" arabic-form="final" d="M92 -39q0 -175 96.5 -268.5t276.5 -93.5h285q180 0 276 93.5t96 268.5v39h1051v244h-12v684h-246v-684h-275v518h-243v-518h-275v354h-245v-668q0 -29 -11 -51q-26 -33 -94 -33h-330q-58 0 -78.5 16t-27.5 68v668h-244v-637zM1223 1063h245v248h-245v-248zM1397 1409h243 v248h-243v-248zM1569 1063h248v248h-248v-248z" />
<glyph unicode="&#x634;" horiz-adv-x="2013" arabic-form="initial" d="M0 0h1919v928h-244v-684h-272v518h-244v-518h-278v354h-244v-354h-637v-244zM983 1063h244v248h-244v-248zM1159 1409h244v248h-244v-248zM1331 1063h244v248h-244v-248z" />
<glyph unicode="&#x634;" horiz-adv-x="1918" arabic-form="medial" d="M0 0h1933v244h-14v684h-244v-684h-272v518h-244v-518h-278v354h-244v-354h-637v-244zM983 1063h244v248h-244v-248zM1159 1409h244v248h-244v-248zM1331 1063h244v248h-244v-248z" />
<glyph unicode="&#x635;" horiz-adv-x="1918" arabic-form="final" d="M92 -39q0 -175 96.5 -268.5t276.5 -93.5h285q180 0 276 93.5t96 268.5v39h809v244h-12v313q0 164 -108 267.5t-277 103.5h-657v-998q0 -29 -11 -51q-26 -33 -94 -33h-330q-58 0 -78.5 16t-27.5 68v668h-244v-637zM1122 244v440h416q133 0 133 -149v-291h-549z" />
<glyph unicode="&#x635;" horiz-adv-x="1812" arabic-form="initial" d="M0 0h1720v557q0 165 -107 268t-278 103h-655v-684h-137v397h-248v-397h-295v-244zM924 244v440h419q134 0 134 -149v-291h-553z" />
<glyph unicode="&#x635;" horiz-adv-x="1720" arabic-form="medial" d="M0 0h1733v244h-13v313q0 165 -107 268t-278 103h-655v-684h-137v397h-248v-397h-295v-244zM924 244v440h419q134 0 134 -149v-291h-553z" />
<glyph unicode="&#x636;" horiz-adv-x="1918" arabic-form="final" d="M92 -39q0 -175 96.5 -268.5t276.5 -93.5h285q180 0 276 93.5t96 268.5v39h809v244h-12v313q0 164 -108 267.5t-277 103.5h-657v-998q0 -29 -11 -51q-26 -33 -94 -33h-330q-58 0 -78.5 16t-27.5 68v668h-244v-637zM1122 244v440h416q133 0 133 -149v-291h-549zM1262 1079 h245v244h-245v-244z" />
<glyph unicode="&#x636;" horiz-adv-x="1812" arabic-form="initial" d="M0 0h1720v557q0 165 -107 268t-278 103h-655v-684h-137v397h-248v-397h-295v-244zM924 244v440h419q134 0 134 -149v-291h-553zM969 1079h243v244h-243v-244z" />
<glyph unicode="&#x636;" horiz-adv-x="1720" arabic-form="medial" d="M0 0h1733v244h-13v313q0 165 -107 268t-278 103h-655v-684h-137v397h-248v-397h-295v-244zM924 244v440h419q134 0 134 -149v-291h-553zM969 1079h243v244h-243v-244z" />
<glyph unicode="&#x637;" horiz-adv-x="1427" arabic-form="final" d="M92 0h1348v244h-13v313q0 165 -107 268t-278 103h-411v395h-244v-1079h-295v-244zM631 244v440h420q133 0 133 -149v-291h-553z" />
<glyph unicode="&#x637;" horiz-adv-x="1427" arabic-form="initial" d="M0 0h1335v557q0 165 -107 268t-278 103h-411v395h-244v-1079h-295v-244zM539 244v440h419q132 0 132 -149v-291h-551z" />
<glyph unicode="&#x637;" horiz-adv-x="1335" arabic-form="medial" d="M0 0h1348v244h-13v313q0 165 -107 268t-278 103h-411v395h-244v-1079h-295v-244zM539 244v440h419q132 0 132 -149v-291h-551z" />
<glyph unicode="&#x638;" horiz-adv-x="1427" arabic-form="final" d="M92 0h1348v244h-13v313q0 165 -107 268t-278 103h-411v395h-244v-1079h-295v-244zM631 244v440h420q133 0 133 -149v-291h-553zM831 1079h244v244h-244v-244z" />
<glyph unicode="&#x638;" horiz-adv-x="1427" arabic-form="initial" d="M0 0h1335v557q0 165 -107 268t-278 103h-411v395h-244v-1079h-295v-244zM539 244v440h419q132 0 132 -149v-291h-551zM737 1079h246v244h-246v-244z" />
<glyph unicode="&#x638;" horiz-adv-x="1335" arabic-form="medial" d="M0 0h1348v244h-13v313q0 165 -107 268t-278 103h-411v395h-244v-1079h-295v-244zM539 244v440h419q132 0 132 -149v-291h-551zM737 1079h246v244h-246v-244z" />
<glyph unicode="&#x639;" horiz-adv-x="960" arabic-form="final" d="M92 -72q0 -100 57.5 -186t143.5 -117q71 -26 205 -26h495v247h-567q-92 0 -92 76q0 33 24 51.5t53.5 22t71 7.5t60.5 9l37 17q53 -23 84 -23q18 -6 124 -6h183v244h-191q88 100 134.5 202.5t46.5 192.5q0 289 -381 289q-86 0 -250 -21l-117 -293q5 -5 36 -32.5t37 -34 l30 -32.5t33.5 -44.5t28 -52t33.5 -73.5t31 -91q-173 -19 -261.5 -110t-88.5 -216zM477 686l82 4q168 -3 168 -92q0 -63 -109 -184q-13 81 -42.5 142t-98.5 130z" />
<glyph unicode="&#x639;" horiz-adv-x="1130" arabic-form="initial" d="M0 0h1038v244h-229q-113 0 -164 28q-100 60 -100 187q0 103 63.5 164t169.5 61h125v244h-137q-197 0 -334 -137q-135 -135 -135 -338q0 -111 65 -209h-362v-244z" />
<glyph unicode="&#x639;" horiz-adv-x="1021" arabic-form="medial" d="M0 0h436q104 0 140.5 5t68.5 24q47 -20 79 -24.5t128 -4.5h182v244h-188q178 218 178 395q0 289 -379 289q-87 0 -252 -21l-119 -293q161 -132 230 -358q-6 -2 -15 -4.5t-14.5 -4t-17.5 -2.5t-29 -1h-428v-244zM543 686l82 4q163 -3 163 -92q0 -65 -104 -184 q-11 76 -40 135t-101 137z" />
<glyph unicode="&#x63a;" horiz-adv-x="962" arabic-form="final" d="M92 -72q0 -100 57.5 -186t143.5 -117q71 -26 205 -26h495v247h-567q-92 0 -92 76q0 33 24 51.5t53.5 22t71 7.5t60.5 9l37 17q53 -23 84 -23q18 -6 124 -6h183v244h-191q88 100 134.5 202.5t46.5 192.5q0 289 -381 289q-86 0 -250 -21l-117 -293q5 -5 36 -32.5t37 -34 l30 -32.5t33.5 -44.5t28 -52t33.5 -73.5t31 -91q-173 -19 -261.5 -110t-88.5 -216zM477 686l82 4q168 -3 168 -92q0 -63 -109 -184q-13 81 -42.5 142t-98.5 130zM512 1079h244v244h-244v-244z" />
<glyph unicode="&#x63a;" horiz-adv-x="1130" arabic-form="initial" d="M0 0h1038v244h-229q-113 0 -164 28q-100 60 -100 187q0 103 63.5 164t169.5 61h125v244h-137q-197 0 -334 -137q-135 -135 -135 -338q0 -111 65 -209h-362v-244zM506 1079h244v244h-244v-244z" />
<glyph unicode="&#x63a;" horiz-adv-x="1021" arabic-form="medial" d="M0 0h436q104 0 140.5 5t68.5 24q47 -20 79 -24.5t128 -4.5h182v244h-188q178 218 178 395q0 289 -379 289q-87 0 -252 -21l-119 -293q161 -132 230 -358q-6 -2 -15 -4.5t-14.5 -4t-17.5 -2.5t-29 -1h-428v-244zM543 686l82 4q163 -3 163 -92q0 -65 -104 -184 q-11 76 -40 135t-101 137zM575 1079h244v244h-244v-244z" />
<glyph unicode="&#x641;" horiz-adv-x="1722" arabic-form="final" d="M92 385q0 -172 103 -278.5t270 -106.5h1274v244h-17v684h-288q-143 0 -222 -37q-98 -45 -155.5 -143.5t-57.5 -215.5q0 -131 84 -247q7 -8 18 -22t15 -19h-629q-151 0 -151 133v454h-244v-446zM1245 537q0 147 174 147h60v-410q-234 76 -234 263zM1251 1079h244v244h-244 v-244z" />
<glyph unicode="&#x641;" horiz-adv-x="1122" arabic-form="initial" d="M0 0h1030v928h-291q-155 0 -237 -45q-199 -112 -199 -351q0 -137 84 -247q23 -20 37 -41h-424v-244zM549 537q0 147 176 147h61v-410q-237 82 -237 263zM557 1079h244v244h-244v-244z" />
<glyph unicode="&#x641;" horiz-adv-x="1030" arabic-form="medial" d="M0 0h1042v244h-12v684h-291q-155 0 -237 -45q-199 -112 -199 -351q0 -137 84 -247q23 -20 37 -41h-424v-244zM549 537q0 147 176 147h61v-410q-237 82 -237 263zM557 1079h244v244h-244v-244z" />
<glyph unicode="&#x642;" horiz-adv-x="1181" arabic-form="final" d="M92 -39q0 -175 96.5 -268.5t276.5 -93.5h344q180 0 276.5 93.5t96.5 268.5v39h12v244h-12v684h-285q-221 0 -322.5 -103.5t-101.5 -279.5q0 -205 130.5 -355.5t334.5 -187.5v-72q-7 -52 -28 -68t-79 -16h-389q-58 0 -78.5 16t-27.5 68v668h-244v-637zM532 1079h246v244 h-246v-244zM725 543q0 141 156 141h57v-440q-92 45 -152.5 129t-60.5 170zM879 1079h245v244h-245v-244z" />
<glyph unicode="&#x642;" horiz-adv-x="1122" arabic-form="initial" d="M0 0h1030v928h-291q-155 0 -237 -45q-199 -112 -199 -351q0 -137 84 -247q23 -20 37 -41h-424v-244zM371 1079h245v244h-245v-244zM549 537q0 147 176 147h61v-410q-237 82 -237 263zM717 1079h246v244h-246v-244z" />
<glyph unicode="&#x642;" horiz-adv-x="1030" arabic-form="medial" d="M0 0h1042v244h-12v684h-291q-155 0 -237 -45q-199 -112 -199 -351q0 -137 84 -247q23 -20 37 -41h-424v-244zM371 1079h245v244h-245v-244zM549 537q0 147 176 147h61v-410q-237 82 -237 263zM717 1079h246v244h-246v-244z" />
<glyph unicode="&#x643;" horiz-adv-x="1722" arabic-form="final" d="M92 385q0 -172 103 -278.5t270 -106.5h1274v244h-17v1079h-243v-1079h-992q-151 0 -151 133v454h-244v-446zM741 698h318v95h-117q-63 0 -63 57q0 68 59 68h82v94h-72q-72 0 -119 -46.5t-47 -117.5q0 -12 15 -55h-56v-95z" />
<glyph unicode="&#x643;" horiz-adv-x="1406" arabic-form="initial" d="M0 0h1315v371q0 163 -108 266.5t-277 103.5h-387v58l688 518h-404l-532 -399v-422h639q135 0 135 -150v-102h-1069v-244z" />
<glyph unicode="&#x643;" horiz-adv-x="1314" arabic-form="medial" d="M0 0h1327v244h-12v127q0 163 -108 266.5t-277 103.5h-387v58l688 518h-404l-532 -399v-422h639q135 0 135 -150v-102h-1069v-244z" />
<glyph unicode="&#x644;" horiz-adv-x="1122" arabic-form="final" d="M92 -39q0 -175 96.5 -268.5t276.5 -93.5h285q180 0 276 93.5t96 268.5v39h13v244h-13v1079h-245v-1393q0 -29 -11 -51q-26 -33 -94 -33h-330q-58 0 -78.5 16t-27.5 68v668h-244v-637z" />
<glyph unicode="&#x644;" horiz-adv-x="636" arabic-form="initial" d="M0 0h545v1323h-244v-1079h-301v-244z" />
<glyph unicode="&#x644;" horiz-adv-x="544" arabic-form="medial" d="M0 0h557v244h-12v1079h-244v-1079h-301v-244z" />
<glyph unicode="&#x645;" horiz-adv-x="892" arabic-form="final" d="M68 -555v-246q116 3 186 43q66 33 119 101q80 106 80 311v153h51q230 0 344 193h55v244h-10v684h-299q-171 0 -278 -103t-107 -268v-934q0 -94 -28 -129t-113 -49zM453 53v482q0 149 133 149h63v-481q0 -150 -133 -150h-63z" />
<glyph unicode="&#x645;" horiz-adv-x="1081" arabic-form="initial" d="M0 0h303v-193h301q175 0 280 105.5t105 280.5v735h-301q-171 0 -278 -103t-107 -268v-313h-303v-244zM547 53v482q0 149 133 149h61v-481q0 -150 -133 -150h-61z" />
<glyph unicode="&#x645;" horiz-adv-x="989" arabic-form="medial" d="M0 0h303v-193h293q235 0 346 193h57v244h-10v684h-301q-171 0 -278 -103t-107 -268v-313h-303v-244zM547 53v482q0 149 133 149h61v-481q0 -150 -133 -150h-61z" />
<glyph unicode="&#x646;" horiz-adv-x="1122" arabic-form="final" d="M92 -39q0 -175 96.5 -268.5t276.5 -93.5h285q180 0 276 93.5t96 268.5v39h13v244h-13v684h-245v-998q0 -29 -11 -51q-26 -33 -94 -33h-330q-58 0 -78.5 16t-27.5 68v668h-244v-637zM492 1079h243v244h-243v-244z" />
<glyph unicode="&#x646;" horiz-adv-x="636" arabic-form="initial" d="M0 0h545v928h-244v-684h-301v-244zM301 1079h244v244h-244v-244z" />
<glyph unicode="&#x646;" horiz-adv-x="544" arabic-form="medial" d="M0 0h557v244h-12v684h-244v-684h-301v-244zM301 1079h244v244h-244v-244z" />
<glyph unicode="&#x647;" horiz-adv-x="958" arabic-form="final" d="M92 0h250q48 254 145 419.5t228 209.5v-629h258v244h-15v684q-365 -24 -596.5 -266t-269.5 -662z" />
<glyph unicode="&#x647;" horiz-adv-x="1433" arabic-form="initial" d="M0 0h1341v557q0 164 -108 267.5t-279 103.5h-456v-330q-120 -46 -166 -149q-35 -63 -35 -166v-39h-297v-244zM543 244v67q0 82 73 82q80 0 80 -76v-73h-153zM741 598v86h220q133 0 133 -149v-291h-154v39q0 99 -33 166q-23 50 -60 85t-106 64z" />
<glyph unicode="&#x647;" horiz-adv-x="1341" arabic-form="medial" d="M0 0h1354v244h-13v313q0 164 -108 267.5t-279 103.5h-456v-330q-120 -46 -166 -149q-35 -63 -35 -166v-39h-297v-244zM543 244v67q0 82 73 82q80 0 80 -76v-73h-153zM741 598v86h220q133 0 133 -149v-291h-154v39q0 99 -33 166q-23 50 -60 85t-106 64z" />
<glyph unicode="&#x648;" horiz-adv-x="778" arabic-form="final" d="M92 -154v-247h314q180 0 276 93.5t96 268.5v39h13v244h-13v684h-301q-170 0 -277.5 -103.5t-107.5 -267.5v-184q0 -167 107 -270t278 -103h55v-70q0 -30 -14 -51q-17 -33 -90 -33h-336zM336 395v140q0 149 133 149h63v-440h-63q-133 0 -133 151z" />
<glyph unicode="&#x649;" horiz-adv-x="1144" arabic-form="final" d="M92 -39q0 -175 96.5 -268.5t276.5 -93.5h307q180 0 276.5 93.5t96.5 268.5v39h14v244h-504v-244h246v-70q-7 -52 -27.5 -68t-76.5 -16h-355q-58 0 -78.5 16t-27.5 68v668h-244v-637z" />
<glyph unicode="&#x64a;" horiz-adv-x="1144" arabic-form="final" d="M92 -39q0 -175 96.5 -268.5t276.5 -93.5h307q180 0 276.5 93.5t96.5 268.5v39h14v244h-504v-244h246v-70q-7 -52 -27.5 -68t-76.5 -16h-355q-58 0 -78.5 16t-27.5 68v668h-244v-637zM330 -555v-246h243v246h-243zM676 -555v-246h244v246h-244z" />
<glyph unicode="&#x64a;" horiz-adv-x="849" arabic-form="initial" d="M0 0h758v928h-244v-684h-514v-244zM168 -154v-247h244v247h-244zM514 -154v-247h244v247h-244z" />
<glyph unicode="&#x64a;" horiz-adv-x="757" arabic-form="medial" d="M0 0h770v244h-12v684h-244v-684h-514v-244zM168 -154v-247h244v247h-244zM514 -154v-247h244v247h-244z" />
<glyph unicode=" "  horiz-adv-x="380" />
<glyph unicode="&#x09;" horiz-adv-x="380" />
<glyph unicode="&#xa0;" horiz-adv-x="380" />
<glyph unicode="!" horiz-adv-x="432" d="M92 0h244v244h-244v-244zM92 401h244v922h-244v-922z" />
<glyph unicode="&#x22;" horiz-adv-x="473" d="M92 909h96v414h-96v-414zM283 909h98v414h-98v-414z" />
<glyph unicode="$" horiz-adv-x="1054" d="M47 408q3 -107 25 -177t78 -122q125 -111 313 -111v-191h100v191q40 2 85 9.5t109.5 33t113.5 64.5t84.5 111.5t35.5 166.5q0 57 -12.5 104.5t-31.5 82t-52 64t-64.5 48.5t-78.5 37t-83.5 29t-90.5 24v338q70 -7 108.5 -43.5t38.5 -132.5h254q0 36 -2 60t-10.5 61 t-29.5 72.5t-54 68.5q-59 59 -133.5 83.5t-169.5 31.5v155h-105v-161q-36 -2 -64 -6.5t-73 -17t-88 -40.5t-80 -70q-98 -110 -98 -251q0 -74 22.5 -133t56.5 -97.5t89 -70t105 -49t120 -35.5v-336q-17 0 -34 3t-41.5 15.5t-42.5 33.5t-31 61.5t-13 95.5h-256zM332 958 q0 64 35.5 104t107.5 44v-305q-66 18 -104.5 52.5t-38.5 104.5zM567 193v321q83 -23 118.5 -60.5t35.5 -99.5q0 -71 -44 -112t-110 -49z" />
<glyph unicode="'" horiz-adv-x="452" d="M98 1323l52 -471h147l53 471h-252z" />
<glyph unicode="(" horiz-adv-x="755" d="M92 659q0 -222 98 -448q59 -139 246 -356l39 -45l189 151q-153 148 -236.5 330.5t-83.5 372.5q0 189 68 337q38 80 111.5 186.5t140.5 170.5l-189 151l-39 -43q-179 -196 -254 -366q-90 -212 -90 -441z" />
<glyph unicode=")" horiz-adv-x="755" d="M92 -39l184 -151l41 45q178 196 248 356q99 222 99 448q0 231 -91 441q-78 179 -256 366l-41 43l-184 -151q176 -176 248 -340t72 -352q0 -187 -81.5 -370.5t-238.5 -334.5z" />
<glyph unicode="*" horiz-adv-x="1054" d="M129 883l285 37l-178 -232l172 -102l110 270l111 -268l176 98l-178 234l284 -43v198l-290 -33l188 224l-178 106l-113 -270l-104 262l-178 -96l180 -226l-287 41v-200z" />
<glyph unicode="+" horiz-adv-x="1114" d="M92 342h342v-342h244v342h342v244h-342v342h-244v-342h-342v-244z" />
<glyph unicode="-" horiz-adv-x="1114" d="M92 342h928v244h-928v-244z" />
<glyph unicode="." horiz-adv-x="432" d="M92 0h244v244h-244v-244z" />
<glyph unicode="/" horiz-adv-x="1007" d="M92 0h268l553 1323h-266z" />
<glyph unicode="0" horiz-adv-x="720" d="M123 575l239 -235l236 233l-238 238z" />
<glyph unicode="1" horiz-adv-x="489" d="M123 0h244v1323h-244v-1323z" />
<glyph unicode="2" horiz-adv-x="968" d="M123 0h244v930q0 149 133 149h346v244h-338q-170 0 -277.5 -103.5t-107.5 -267.5v-952z" />
<glyph unicode="3" horiz-adv-x="1353" d="M123 0h244v610h493q177 0 274 94.5t97 268.5v350h-246v-383q0 -40 -21.5 -61.5t-80.5 -22.5h-84v467h-244v-473h-188v473h-244v-1323z" />
<glyph unicode="4" horiz-adv-x="972" d="M123 387q0 -80 28.5 -149t84.5 -122.5t149 -84.5t213 -31h252v244h-270q-120 0 -163.5 34t-43.5 115q0 152 196 152h281v243h-281q-196 0 -196 146q0 81 52.5 113t154.5 32h270v244h-252q-124 0 -217 -30t-148.5 -83.5t-82.5 -122.5t-27 -153q0 -131 119 -277 q-119 -119 -119 -270z" />
<glyph unicode="5" horiz-adv-x="1036" d="M123 365q0 -164 109 -264.5t286 -100.5q178 0 286.5 99.5t108.5 262.5q0 64 -4 117l-28 455q-7 111 -36 189t-78.5 121.5t-110 63t-138.5 19.5q-160 0 -254.5 -90.5t-107.5 -302.5l-27 -455q-1 -26 -3.5 -64t-2.5 -50zM373 403l24 521q9 159 121 159q115 0 121 -159 l23 -533q-1 -64 -41.5 -105.5t-102.5 -41.5q-63 0 -104 45t-41 114z" />
<glyph unicode="6" horiz-adv-x="968" d="M123 1079h344q133 0 133 -149v-930h246v952q0 164 -107.5 267.5t-279.5 103.5h-336v-244z" />
<glyph unicode="7" horiz-adv-x="1132" d="M123 1323l149 -932q63 -391 301 -391q120 0 202 110.5t97 280.5l138 932h-252l-133 -961q-15 -118 -52 -118q-33 0 -51 116l-145 963h-254z" />
<glyph unicode="8" horiz-adv-x="1132" d="M123 0h254l145 967q18 112 51 112q37 0 52 -116l133 -963h252l-138 932q-35 223 -131 319q-69 72 -168 72q-171 0 -249 -190q-36 -92 -52 -201z" />
<glyph unicode="9" horiz-adv-x="962" d="M123 930q0 -167 113 -283q112 -112 278 -112h80v-535h246v1323h-326q-198 0 -305 -137q-86 -111 -86 -256zM369 930q0 67 42 108t111 41h72v-299h-62q-163 0 -163 150z" />
<glyph unicode=":" horiz-adv-x="432" d="M92 0h244v244h-244v-244zM92 360h244v244h-244v-244z" />
<glyph unicode="&#x3c;" horiz-adv-x="1110" d="M49 381l1010 -393v266l-707 252l707 254v264l-1010 -389v-254z" />
<glyph unicode="=" horiz-adv-x="1114" d="M92 150h930v243h-930v-243zM92 535h930v243h-930v-243z" />
<glyph unicode="&#x3e;" horiz-adv-x="1110" d="M49 -12l1012 393v254l-1012 389v-264l707 -254l-707 -252v-266z" />
<glyph unicode="O" horiz-adv-x="1024" />
<glyph unicode="[" horiz-adv-x="628" d="M92 -190h443v243h-199v1213h199v243h-443v-1699z" />
<glyph unicode="\" horiz-adv-x="526" d="M53 1364l512 -1364h223l-516 1364h-219z" />
<glyph unicode="]" horiz-adv-x="628" d="M92 53v-243h443v1699h-443v-243h199v-1213h-199z" />
<glyph unicode="_" horiz-adv-x="782" d="M33 -33v-295h715v295h-715z" />
<glyph unicode="y" horiz-adv-x="1024" />
<glyph unicode="{" horiz-adv-x="630" d="M-29 432q46 -7 82 -20.5t59 -28t39.5 -36.5t25 -39.5t13 -44t5 -42.5t0.5 -43v-67q0 -154 22.5 -220.5t73.5 -113.5q61 -59 147.5 -87t220.5 -34v156q-43 2 -77 13t-56 25.5t-37.5 39.5t-23 45t-11.5 53t-4.5 52t-0.5 52v76q0 57 -3.5 93.5t-21 82.5t-51.5 80 q-33 33 -78.5 53.5t-72 25.5t-72.5 11q91 7 153 38t92.5 82t42 104.5t11.5 123.5v68q0 31 0.5 46.5t2.5 45.5t8 47t15 41.5t25 39.5t37 30.5t52 24t70 12.5v155q-130 -6 -221 -36.5t-137.5 -69t-71.5 -105t-29.5 -114.5t-4.5 -127v-68q0 -70 -22 -122t-58 -79t-71 -39.5 t-73 -15.5v-164z" />
<glyph unicode="|" horiz-adv-x="526" d="M139 -475h248v1898h-248v-1898z" />
<glyph unicode="}" horiz-adv-x="630" d="M-29 -188q43 2 77 13t56 25.5t37.5 39.5t23.5 45.5t12 53t4.5 51.5t0.5 52v76q0 57 3.5 93.5t21 82.5t51.5 80q33 33 78.5 53.5t72 25.5t72.5 11q-91 7 -153 38t-92.5 82t-42 104.5t-11.5 123.5v68q0 31 -0.5 47t-2.5 45.5t-8 47t-15.5 41.5t-25 39t-37 30.5t-52.5 24 t-70 12.5v155q74 -3 135 -14t106 -26.5t80 -39.5t58.5 -47t40 -57.5t25 -61.5t13.5 -67.5t6 -68.5t1 -70v-68q0 -57 15 -102t38 -72.5t54 -46t59 -26t57 -9.5v-164q-63 -10 -107.5 -31.5t-66.5 -44t-34 -59t-13.5 -58.5t-1.5 -61v-67q0 -154 -22.5 -220.5t-73.5 -113.5 q-61 -59 -148 -87t-221 -34v156z" />
<glyph unicode="&#xab;" horiz-adv-x="1253" d="M92 477q0 -94 107 -201l276 -276l172 170l-272 272q-15 15 -15 33q0 20 33 53l254 254l-172 172l-274 -274q-109 -109 -109 -203zM606 479q0 -98 105 -203l278 -276l172 170l-272 272q-17 17 -17 33q0 21 35 53l254 254l-174 172l-276 -276q-105 -105 -105 -199z" />
<glyph unicode="&#xad;" horiz-adv-x="1114" d="M92 342h928v244h-928v-244z" />
<glyph unicode="&#xbb;" horiz-adv-x="1253" d="M92 170l172 -170l279 276q104 104 104 203q0 95 -104 199l-277 276l-174 -172l254 -254q35 -35 35 -47v-2q0 -21 -16 -37zM606 170l172 -170l277 276q106 106 106 201t-108 203l-275 274l-172 -172l254 -254q33 -33 33 -53q0 -19 -14 -33z" />
<glyph unicode="&#xd7;" horiz-adv-x="1013" d="M92 221l174 -172l242 242l242 -242l172 172l-242 242l242 242l-172 174l-242 -242l-242 242l-174 -174l242 -242z" />
<glyph unicode="&#xf7;" horiz-adv-x="1110" d="M41 383h1010v246h-1010v-246zM403 8h285v279h-285v-279zM403 725h285v279h-285v-279z" />
<glyph unicode="&#x60c;" horiz-adv-x="464" d="M90 156q0 -44 64 -99l71 -57l148 180l-80 66l80 96l-101 82l-141 -172q-41 -50 -41 -96z" />
<glyph unicode="&#x61b;" horiz-adv-x="432" d="M74 506q0 -50 65 -100l70 -54l147 180l-80 64l78 98l-98 82l-104 -131l-37 -41q-41 -47 -41 -98zM92 0h244v244h-244v-244z" />
<glyph unicode="&#x61f;" horiz-adv-x="897" d="M88 920q0 -164 115 -273q118 -112 276 -112h80v-134h246v379h-307q-164 0 -164 150q0 67 42 108t111 41h318v244h-326q-167 0 -280 -113q-111 -111 -111 -290zM559 0h246v244h-246v-244z" />
<glyph unicode="&#x621;" horiz-adv-x="921" d="M88 535q0 -247 229 -332q-78 -66 -112 -99q-20 -20 -46.5 -45t-42 -40.5t-24.5 -26.5l168 -166q85 88 189 166q85 64 167 108q116 64 213 90v244q-95 -34 -180 -51q-60 -6 -69 -6q-112 0 -178 44t-66 116q0 149 190 149q54 0 142 -18v235q-98 25 -160 25 q-183 0 -303 -111q-117 -111 -117 -282z" />
<glyph unicode="&#x627;" horiz-adv-x="432" d="M92 0h244v1323h-244v-1323z" />
<glyph unicode="&#x628;" horiz-adv-x="1818" d="M92 385q0 -172 103 -278.5t270 -106.5h1257v928h-243v-684h-992q-151 0 -151 133v454h-244v-446zM786 -154v-247h244v247h-244z" />
<glyph unicode="&#x629;" horiz-adv-x="1050" d="M92 0h866v928q-365 -24 -596.5 -266t-269.5 -662zM367 1079h247v244h-247v-244zM406 244q40 132 118 235t191 150v-385h-309zM715 1079h243v244h-243v-244z" />
<glyph unicode="&#x62a;" horiz-adv-x="1818" d="M92 385q0 -172 103 -278.5t270 -106.5h1257v928h-243v-684h-992q-151 0 -151 133v454h-244v-446zM610 684h248v244h-248v-244zM958 684h244v244h-244v-244z" />
<glyph unicode="&#x62b;" horiz-adv-x="1818" d="M92 385q0 -172 103 -278.5t270 -106.5h1257v928h-243v-684h-992q-151 0 -151 133v454h-244v-446zM610 684h248v244h-248v-244zM786 1030h244v244h-244v-244zM958 684h244v244h-244v-244z" />
<glyph unicode="&#x62c;" horiz-adv-x="1089" d="M92 -72q0 -100 57.5 -186t143.5 -117q71 -26 205 -26h141v247h-213q-92 0 -92 76q0 78 92 78h571v557q0 164 -107.5 267.5t-279.5 103.5h-354v-244h362q134 0 134 -149v-291h-365q-115 0 -205 -97t-90 -219zM752 -154v-247h245v247h-245z" />
<glyph unicode="&#x62d;" horiz-adv-x="1089" d="M92 -72q0 -100 57.5 -186t143.5 -117q71 -26 205 -26h499v247h-571q-92 0 -92 76q0 78 92 78h571v557q0 164 -107.5 267.5t-279.5 103.5h-354v-244h362q134 0 134 -149v-291h-365q-115 0 -205 -97t-90 -219z" />
<glyph unicode="&#x62e;" horiz-adv-x="1089" d="M92 -72q0 -100 57.5 -186t143.5 -117q71 -26 205 -26h499v247h-571q-92 0 -92 76q0 78 92 78h571v557q0 164 -107.5 267.5t-279.5 103.5h-354v-244h362q134 0 134 -149v-291h-365q-115 0 -205 -97t-90 -219zM432 1079h244v244h-244v-244z" />
<glyph unicode="&#x62f;" horiz-adv-x="968" d="M92 0h785v393q0 299 -201 438q-138 99 -334 99h-80v-244q135 -3 187 -20q58 -18 106 -60q76 -64 76 -215v-147h-539v-244z" />
<glyph unicode="&#x630;" horiz-adv-x="968" d="M92 0h785v393q0 299 -201 438q-138 99 -334 99h-80v-244q135 -3 187 -20q58 -18 106 -60q76 -64 76 -215v-147h-539v-244zM262 1079h244v244h-244v-244z" />
<glyph unicode="&#x631;" horiz-adv-x="598" d="M51 -162v-239h33q28 0 115 6q144 18 233 139q60 83 72 225q2 23 2 84v875h-244v-922q0 -168 -180 -168h-31z" />
<glyph unicode="&#x632;" horiz-adv-x="598" d="M51 -162v-239h33q28 0 115 6q144 18 233 139q60 83 72 225q2 23 2 84v875h-244v-922q0 -168 -180 -168h-31zM262 1079h244v244h-244v-244z" />
<glyph unicode="&#x633;" horiz-adv-x="2252" d="M92 -39q0 -175 96.5 -268.5t276.5 -93.5h285q180 0 276 93.5t96 268.5v39h1039v928h-246v-684h-275v518h-243v-518h-275v354h-245v-668q0 -29 -11 -51q-26 -33 -94 -33h-330q-58 0 -78.5 16t-27.5 68v668h-244v-637z" />
<glyph unicode="&#x634;" horiz-adv-x="2252" d="M92 -39q0 -175 96.5 -268.5t276.5 -93.5h285q180 0 276 93.5t96 268.5v39h1039v928h-246v-684h-275v518h-243v-518h-275v354h-245v-668q0 -29 -11 -51q-26 -33 -94 -33h-330q-58 0 -78.5 16t-27.5 68v668h-244v-637zM1223 1063h245v248h-245v-248zM1397 1409h243v248 h-243v-248zM1569 1063h248v248h-248v-248z" />
<glyph unicode="&#x635;" horiz-adv-x="2011" d="M92 -39q0 -175 96.5 -268.5t276.5 -93.5h285q180 0 276 93.5t96 268.5v39h797v557q0 164 -108 267.5t-277 103.5h-657v-998q0 -29 -11 -51q-26 -33 -94 -33h-330q-58 0 -78.5 16t-27.5 68v668h-244v-637zM1122 244v440h416q133 0 133 -149v-291h-549z" />
<glyph unicode="&#x636;" horiz-adv-x="2011" d="M92 -39q0 -175 96.5 -268.5t276.5 -93.5h285q180 0 276 93.5t96 268.5v39h797v557q0 164 -108 267.5t-277 103.5h-657v-998q0 -29 -11 -51q-26 -33 -94 -33h-330q-58 0 -78.5 16t-27.5 68v668h-244v-637zM1122 244v440h416q133 0 133 -149v-291h-549zM1262 1079h245v244 h-245v-244z" />
<glyph unicode="&#x637;" horiz-adv-x="1519" d="M92 0h1335v557q0 165 -107 268t-278 103h-411v395h-244v-1079h-295v-244zM631 244v440h420q133 0 133 -149v-291h-553z" />
<glyph unicode="&#x638;" horiz-adv-x="1519" d="M92 0h1335v557q0 165 -107 268t-278 103h-411v395h-244v-1079h-295v-244zM631 244v440h420q133 0 133 -149v-291h-553zM831 1079h244v244h-244v-244z" />
<glyph unicode="&#x639;" horiz-adv-x="1089" d="M92 -72q0 -100 57.5 -186t143.5 -117q71 -26 205 -26h499v247h-571q-92 0 -92 76q0 78 92 78h508v244h-225q-129 0 -177 39q-88 64 -88 176q0 103 63 164t169 61h262v244h-272q-197 0 -334 -137q-133 -133 -133 -338q0 -133 82 -234q-189 -94 -189 -291z" />
<glyph unicode="&#x63a;" horiz-adv-x="1089" d="M92 -72q0 -100 57.5 -186t143.5 -117q71 -26 205 -26h499v247h-571q-92 0 -92 76q0 78 92 78h508v244h-225q-129 0 -177 39q-88 64 -88 176q0 103 63 164t169 61h262v244h-272q-197 0 -334 -137q-133 -133 -133 -338q0 -133 82 -234q-189 -94 -189 -291zM506 1079h244 v244h-244v-244z" />
<glyph unicode="&#x640;" horiz-adv-x="292" d="M-20 0h346v244h-346v-244z" />
<glyph unicode="&#x641;" horiz-adv-x="1818" d="M92 385q0 -172 103 -278.5t270 -106.5h1257v928h-288q-143 0 -222 -37q-98 -45 -155.5 -143.5t-57.5 -215.5q0 -131 84 -247q7 -8 18 -22t15 -19h-629q-151 0 -151 133v454h-244v-446zM1245 537q0 147 174 147h60v-410q-234 76 -234 263zM1251 1079h244v244h-244v-244z " />
<glyph unicode="&#x642;" horiz-adv-x="1273" d="M92 -39q0 -175 96.5 -268.5t276.5 -93.5h344q180 0 276.5 93.5t96.5 268.5v967h-285q-221 0 -322.5 -103.5t-101.5 -279.5q0 -205 130.5 -355.5t334.5 -187.5v-72q-7 -52 -28 -68t-79 -16h-389q-58 0 -78.5 16t-27.5 68v668h-244v-637zM532 1079h246v244h-246v-244z M725 543q0 141 156 141h57v-440q-92 45 -152.5 129t-60.5 170zM879 1079h245v244h-245v-244z" />
<glyph unicode="&#x643;" horiz-adv-x="1818" d="M92 385q0 -172 103 -278.5t270 -106.5h1257v1323h-243v-1079h-992q-151 0 -151 133v454h-244v-446zM741 698h318v95h-117q-63 0 -63 57q0 68 59 68h82v94h-72q-72 0 -119 -46.5t-47 -117.5q0 -12 15 -55h-56v-95z" />
<glyph unicode="&#x644;" horiz-adv-x="1214" d="M92 -39q0 -175 96.5 -268.5t276.5 -93.5h285q180 0 276 93.5t96 268.5v1362h-245v-1393q0 -29 -11 -51q-26 -33 -94 -33h-330q-58 0 -78.5 16t-27.5 68v668h-244v-637z" />
<glyph unicode="&#x645;" horiz-adv-x="987" d="M68 -555v-246q194 3 289.5 120t95.5 335v153h55q175 0 280 105.5t105 280.5v735h-299q-171 0 -278 -103t-107 -268v-934q0 -94 -28 -129t-113 -49zM453 53v482q0 149 133 149h63v-481q0 -150 -133 -150h-63z" />
<glyph unicode="&#x646;" horiz-adv-x="1214" d="M92 -39q0 -175 96.5 -268.5t276.5 -93.5h285q180 0 276 93.5t96 268.5v967h-245v-998q0 -29 -11 -51q-26 -33 -94 -33h-330q-58 0 -78.5 16t-27.5 68v668h-244v-637zM492 1079h243v244h-243v-244z" />
<glyph unicode="&#x647;" horiz-adv-x="1050" d="M92 0h866v928q-365 -24 -596.5 -266t-269.5 -662zM406 244q40 132 118 235t191 150v-385h-309z" />
<glyph unicode="&#x648;" horiz-adv-x="870" d="M92 -154v-247h314q180 0 276 93.5t96 268.5v967h-301q-170 0 -277.5 -103.5t-107.5 -267.5v-184q0 -167 107 -270t278 -103h55v-70q0 -30 -14 -51q-17 -33 -90 -33h-336zM336 395v140q0 149 133 149h63v-440h-63q-133 0 -133 151z" />
<glyph unicode="&#x649;" horiz-adv-x="1243" d="M92 -39q0 -175 96.5 -268.5t276.5 -93.5h307q180 0 276.5 93.5t96.5 268.5v283h-406v291q0 149 133 149h279v244h-270q-170 0 -277.5 -103.5t-107.5 -267.5v-557h405v-70q0 -84 -104 -84h-355q-58 0 -78.5 16t-27.5 68v668h-244v-637z" />
<glyph unicode="&#x64a;" horiz-adv-x="1243" d="M92 -39q0 -175 96.5 -268.5t276.5 -93.5h307q180 0 276.5 93.5t96.5 268.5v283h-406v291q0 149 133 149h279v244h-270q-170 0 -277.5 -103.5t-107.5 -267.5v-557h405v-70q0 -84 -104 -84h-355q-58 0 -78.5 16t-27.5 68v668h-244v-637zM330 -555v-246h243v246h-243z M676 -555v-246h244v246h-244z" />
<glyph unicode="&#x64b;" d="M4 1376h440v94h-440v-94zM4 1563h440v98h-440v-98z" />
<glyph unicode="&#x64c;" d="M14 1423l78 -45l33 60l8 22q2 4 2 8q1 0 16 -24.5t39.5 -49t47.5 -24.5q16 0 18 4l31 12q18 13 39 28t32 22.5t17 11.5l51 -51l80 61l-49 43q73 52 73 117q0 49 -39 90t-92 41q-55 0 -95 -41.5t-40 -97.5q0 -46 39 -94l-37 -27q-4 0 -12 -2h-2q-4 0 -19.5 27t-39 54 t-46.5 27q-46 0 -84 -75zM365 1618q0 33 34 33q35 0 35 -31q0 -24 -43 -51l-6 10q-20 17 -20 39z" />
<glyph unicode="&#x64d;" d="M0 -496v-98h442v98h-442zM0 -688v-94h442v94h-442z" />
<glyph unicode="&#x64e;" d="M4 1380h445v99h-445v-99z" />
<glyph unicode="&#x64f;" d="M8 1454l55 -76q59 27 142 86q18 13 41.5 30.5t29.5 21.5l52 -52l73 60l-45 45q76 55 76 112q0 52 -40 90.5t-93 38.5q-55 0 -94 -39.5t-39 -95.5q0 -45 35 -92q-77 -67 -193 -129zM266 1681q0 37 31 37q35 0 35 -37q0 -23 -43 -47l-4 11q-19 19 -19 36z" />
<glyph unicode="&#x650;" d="M4 -494v-98h442v98h-442z" />
<glyph unicode="&#x651;" d="M4 1452q0 -72 62 -72h321q62 0 62 72v172h-99v-147q0 -21 -16 -21h-60v168h-96v-168h-57q-21 0 -21 21v147h-96v-172z" />
<glyph unicode="&#x652;" d="M0 1518q0 -55 39.5 -94.5t97.5 -39.5q56 0 95.5 39.5t39.5 94.5q0 57 -39.5 97t-95.5 40q-55 0 -95 -40t-42 -97zM98 1522q0 34 35 34q39 0 39 -38q0 -35 -39 -35q-35 0 -35 39z" />
<glyph unicode="&#x653;" d="M4 1438l62 -60l14 19q24 24 39 24q13 0 31 -6q66 -35 83 -35q26 0 66 37l45 43l-61 62l-35 -39q-15 -6 -25 -6q-2 0 -26 4q-72 37 -86 37q-40 0 -66 -37z" />
<glyph unicode="&#x654;" d="M0 1378h319v95h-116q-66 0 -66 57q0 65 60 65h79v97h-67q-71 0 -117.5 -47t-46.5 -119q0 -30 10 -53h-55v-95z" />
<glyph unicode="&#x655;" d="M0 -727v-94h319v94h-116q-66 0 -66 57q0 66 60 66h79v96h-67q-71 0 -117.5 -47t-46.5 -119q0 -30 10 -53h-55z" />
<glyph unicode="&#x660;" horiz-adv-x="720" d="M123 575l239 -235l236 233l-238 238z" />
<glyph unicode="&#x661;" horiz-adv-x="489" d="M123 0h244v1323h-244v-1323z" />
<glyph unicode="&#x662;" horiz-adv-x="968" d="M123 0h244v930q0 149 133 149h346v244h-338q-170 0 -277.5 -103.5t-107.5 -267.5v-952z" />
<glyph unicode="&#x663;" horiz-adv-x="1353" d="M123 0h244v610h493q177 0 274 94.5t97 268.5v350h-246v-383q0 -40 -22 -62t-80 -22h-84v467h-244v-473h-188v473h-244v-1323z" />
<glyph unicode="&#x664;" horiz-adv-x="972" d="M123 387q0 -80 28.5 -149t84.5 -122.5t149 -84.5t213 -31h252v244h-270q-120 0 -163.5 34t-43.5 115q0 152 196 152h281v243h-281q-196 0 -196 146q0 81 52.5 113t154.5 32h270v244h-252q-124 0 -217 -30t-148.5 -83.5t-82.5 -122.5t-27 -153q0 -131 119 -277 q-119 -119 -119 -270z" />
<glyph unicode="&#x665;" horiz-adv-x="1036" d="M123 365q0 -164 109 -264.5t286 -100.5q178 0 286.5 99.5t108.5 262.5q0 64 -4 117l-28 455q-7 111 -36 189t-78.5 121.5t-110 63t-138.5 19.5q-160 0 -254.5 -90.5t-107.5 -302.5l-27 -455q-1 -26 -3.5 -64t-2.5 -50zM373 403l24 521q9 159 121 159q115 0 121 -159 l23 -533q-1 -64 -41.5 -105.5t-102.5 -41.5q-63 0 -104 45t-41 114z" />
<glyph unicode="&#x666;" horiz-adv-x="968" d="M123 1079h344q133 0 133 -149v-930h246v952q0 164 -107.5 267.5t-279.5 103.5h-336v-244z" />
<glyph unicode="&#x667;" horiz-adv-x="1132" d="M123 1323l149 -932q63 -391 301 -391q120 0 202 110.5t97 280.5l138 932h-252l-133 -961q-15 -118 -52 -118q-33 0 -51 116l-145 963h-254z" />
<glyph unicode="&#x668;" horiz-adv-x="1132" d="M123 0h254l145 967q18 112 51 112q37 0 52 -116l133 -963h252l-138 932q-35 223 -131 319q-69 72 -168 72q-171 0 -249 -190q-36 -92 -52 -201z" />
<glyph unicode="&#x669;" horiz-adv-x="962" d="M123 930q0 -167 113 -283q112 -112 278 -112h80v-535h246v1323h-326q-198 0 -305 -137q-86 -111 -86 -256zM369 930q0 67 42 108t111 41h72v-299h-62q-163 0 -163 150z" />
<glyph unicode="&#x66a;" horiz-adv-x="1007" d="M92 0h268l553 1323h-266zM131 997h223v213h-223v-213zM649 113h223v213h-223v-213z" />
<glyph unicode="&#x66b;" horiz-adv-x="464" d="M90 76l80 -66l-80 -96l100 -82l142 172q41 47 41 96q0 50 -64 99l-71 57z" />
<glyph unicode="&#x66c;" horiz-adv-x="464" d="M90 76l80 -66l-80 -96l100 -82l142 172q41 47 41 96q0 50 -64 99l-71 57z" />
<glyph unicode="&#x66d;" horiz-adv-x="1024" d="M115 502l239 -191l-106 -284l35 -27l233 193l232 -193l34 31l-104 282l237 189l-18 41l-283 -41l-77 293h-41l-80 -293l-283 43z" />
<glyph unicode="&#x670;" d="M59 1389h140v507h-140v-507z" />
<glyph unicode="&#x67e;" horiz-adv-x="1818" d="M92 385q0 -172 103 -278.5t270 -106.5h1257v928h-243v-684h-992q-151 0 -151 133v454h-244v-446zM616 -154v-243h244v243h-244zM788 -502v-243h246v243h-246zM963 -154v-243h243v243h-243z" />
<glyph unicode="&#x686;" horiz-adv-x="1089" d="M92 -72q0 -100 57.5 -186t143.5 -117q71 -26 205 -26h141v247h-213q-92 0 -92 76q0 78 92 78h571v557q0 164 -107.5 267.5t-279.5 103.5h-354v-244h362q134 0 134 -149v-291h-365q-115 0 -205 -97t-90 -219zM748 -154v-102h102v102h-102zM819 -301v-102h105v102h-105z M893 -154v-102h104v102h-104z" />
<glyph unicode="&#x698;" horiz-adv-x="598" d="M-84 1081h244v244h-244v-244zM51 -162v-239h33q28 0 115 6q144 18 233 139q60 83 72 225q2 23 2 84v875h-244v-922q0 -168 -180 -168h-31zM88 1427h246v244h-246v-244zM262 1081h244v244h-244v-244z" />
<glyph unicode="&#x6a4;" horiz-adv-x="1818" d="M92 385q0 -172 103 -278.5t270 -106.5h1257v928h-288q-143 0 -222 -37q-98 -45 -155.5 -143.5t-57.5 -215.5q0 -131 84 -247q7 -8 18 -22t15 -19h-629q-151 0 -151 133v454h-244v-446zM903 1081h246v244h-246v-244zM1075 1427h248v244h-248v-244zM1245 537q0 147 174 147 h60v-410q-234 76 -234 263zM1251 1081h244v244h-244v-244z" />
<glyph unicode="&#x6f0;" horiz-adv-x="720" d="M123 575l239 -235l236 233l-238 238z" />
<glyph unicode="&#x6f1;" horiz-adv-x="489" d="M123 0h244v1323h-244v-1323z" />
<glyph unicode="&#x6f2;" horiz-adv-x="968" d="M123 0h244v930q0 149 133 149h346v244h-338q-170 0 -277.5 -103.5t-107.5 -267.5v-952z" />
<glyph unicode="&#x6f3;" horiz-adv-x="1353" d="M123 0h244v610h493q177 0 274 94.5t97 268.5v350h-246v-383q0 -40 -21.5 -61.5t-80.5 -22.5h-84v467h-244v-473h-188v473h-244v-1323z" />
<glyph unicode="&#x6f4;" horiz-adv-x="972" d="M123 387q0 -80 28.5 -149t84.5 -122.5t149 -84.5t213 -31h252v244h-270q-120 0 -163.5 34t-43.5 115q0 152 196 152h281v243h-281q-196 0 -196 146q0 81 52.5 113t154.5 32h270v244h-252q-124 0 -217 -30t-148.5 -83.5t-82.5 -122.5t-27 -153q0 -131 119 -277 q-119 -119 -119 -270z" />
<glyph unicode="&#x6f5;" horiz-adv-x="1036" d="M123 365q0 -164 109 -264.5t286 -100.5q178 0 286.5 99.5t108.5 262.5q0 64 -4 117l-28 455q-7 111 -36 189t-78.5 121.5t-110 63t-138.5 19.5q-160 0 -254.5 -90.5t-107.5 -302.5l-27 -455q-1 -26 -3.5 -64t-2.5 -50zM373 403l24 521q9 159 121 159q115 0 121 -159 l23 -533q-1 -64 -41.5 -105.5t-102.5 -41.5q-63 0 -104 45t-41 114z" />
<glyph unicode="&#x6f6;" horiz-adv-x="968" d="M123 1079h344q133 0 133 -149v-930h246v952q0 164 -107.5 267.5t-279.5 103.5h-336v-244z" />
<glyph unicode="&#x6f7;" horiz-adv-x="1132" d="M123 1323l149 -932q63 -391 301 -391q120 0 202 110.5t97 280.5l138 932h-252l-133 -961q-15 -118 -52 -118q-33 0 -51 116l-145 963h-254z" />
<glyph unicode="&#x6f8;" horiz-adv-x="1132" d="M123 0h254l145 967q18 112 51 112q37 0 52 -116l133 -963h252l-138 932q-35 223 -131 319q-69 72 -168 72q-171 0 -249 -190q-36 -92 -52 -201z" />
<glyph unicode="&#x6f9;" horiz-adv-x="962" d="M123 930q0 -167 113 -283q112 -112 278 -112h80v-535h246v1323h-326q-198 0 -305 -137q-86 -111 -86 -256zM369 930q0 67 42 108t111 41h72v-299h-62q-163 0 -163 150z" />
<glyph unicode="&#x2000;" horiz-adv-x="1131" />
<glyph unicode="&#x2001;" horiz-adv-x="2263" />
<glyph unicode="&#x2002;" horiz-adv-x="1131" />
<glyph unicode="&#x2003;" horiz-adv-x="2263" />
<glyph unicode="&#x2004;" horiz-adv-x="754" />
<glyph unicode="&#x2005;" horiz-adv-x="565" />
<glyph unicode="&#x2006;" horiz-adv-x="377" />
<glyph unicode="&#x2007;" horiz-adv-x="377" />
<glyph unicode="&#x2008;" horiz-adv-x="282" />
<glyph unicode="&#x2009;" horiz-adv-x="452" />
<glyph unicode="&#x200a;" horiz-adv-x="125" />
<glyph unicode="&#x200c;" horiz-adv-x="40" d="M0 0h41v1479h-41v-1479z" />
<glyph unicode="&#x200d;" horiz-adv-x="40" d="M-104 1358l28 -27l76 76v-1407h41v1407l76 -76l28 27l-96 98l96 96l-28 29l-97 -98l-96 98l-28 -29l98 -96z" />
<glyph unicode="&#x200e;" horiz-adv-x="40" d="M0 0h41v1438h160l-78 -78l29 -29l122 125l-122 125l-29 -29l74 -73h-197v-1479z" />
<glyph unicode="&#x200f;" horiz-adv-x="40" d="M-233 1456l122 -125l29 29l-78 78h160v-1438h41v1479h-197l74 73l-29 29z" />
<glyph unicode="&#x2010;" horiz-adv-x="929" d="M49 393h862v80h-862v-80z" />
<glyph unicode="&#x2011;" horiz-adv-x="1114" d="M92 342h928v244h-928v-244z" />
<glyph unicode="&#x2012;" horiz-adv-x="1114" d="M92 342h928v244h-928v-244z" />
<glyph unicode="&#x2013;" horiz-adv-x="1210" d="M92 342h1024v244h-1024v-244z" />
<glyph unicode="&#x2014;" horiz-adv-x="2234" d="M92 342h2048v244h-2048v-244z" />
<glyph unicode="&#x201c;" horiz-adv-x="851" d="M90 1411q0 -49 64 -98l71 -56l148 181l-80 63l80 98l-101 82l-104 -131l-37 -41q-41 -44 -41 -98zM477 1411q0 -44 66 -98l71 -58l146 181l-80 65l80 96l-101 82l-141 -172q-41 -50 -41 -96z" />
<glyph unicode="&#x201d;" horiz-adv-x="851" d="M92 1348l101 -82l104 131l37 41q41 44 41 94q0 57 -64 104l-71 54l-148 -181l80 -63zM479 1346l101 -82l141 172q41 44 41 96q0 51 -64 100l-71 58l-148 -183l80 -63z" />
<glyph unicode="&#x202f;" horiz-adv-x="452" />
<glyph unicode="&#x205f;" horiz-adv-x="565" />
<glyph unicode="&#x2421;" horiz-adv-x="1452" d="M78 117h194q42 0 84 10q162 40 162 260q0 217 -162 254q-27 8 -94 8h-184v-532zM150 180v406h112q57 0 90 -11q94 -37 94 -188q0 -114 -53 -170q-40 -37 -129 -37h-114zM582 117h399v63h-326v180h293v64h-293v162h314v63h-387v-532zM1047 117h333v63h-260v469h-73v-532z " />
<glyph unicode="&#xe000;" horiz-adv-x="1024" d="M0 0z" />
<glyph unicode="&#xfd3e;" horiz-adv-x="1296" d="M92 625l168 -70v-211l215 215l-98 100l98 101l-215 217v-215l-168 -66v-71zM336 270h182q77 -165 100 -202q31 -50 170 -213l39 -45l187 151q-31 31 -59 62.5t-49.5 60t-39 53.5t-31.5 48.5t-22 38t-16 29.5t-9 17h181l-219 215l-97 -98l-100 98zM336 1051l217 -215 l100 96l97 -96l219 215h-181q79 168 226 307l-187 151l-39 -43q-89 -101 -131.5 -158t-65.5 -101t-73 -156h-182zM508 659l139 -137l141 137l-141 140zM819 559l219 -215v211l166 70v71l-170 66v215l-215 -217l99 -101z" />
<glyph unicode="&#xfd3f;" horiz-adv-x="1296" d="M92 625l168 -70v-211l215 215l-98 100l98 101l-215 217v-215l-168 -66v-71zM283 -39l186 -151l39 45q118 129 170 213q37 60 98 202h185l-216 215l-100 -98l-98 98l-217 -215h178q-45 -92 -113 -180q-42 -59 -112 -129zM283 1358q56 -54 104.5 -117t67.5 -96 q42 -72 53 -94h-178l217 -215l98 96l100 -96l216 215h-185q-57 132 -98 200q-46 76 -170 215l-39 43zM508 659l139 -137l141 137l-141 140zM819 559l219 -215v211l166 70v71l-166 66v215l-219 -217l101 -101z" />
<glyph unicode="&#xfeff;" />
<glyph horiz-adv-x="681" />
<glyph horiz-adv-x="573" />
<glyph horiz-adv-x="559" />
<glyph />
</font>
</defs>
</svg>
