<?xml version="1.0" standalone="no"?>
<!DOCTYPE svg PUBLIC "-//W3C//DTD SVG 1.1//EN" "http://www.w3.org/Graphics/SVG/1.1/DTD/svg11.dtd" >
<svg xmlns="http://www.w3.org/2000/svg">
<metadata></metadata>
<defs>
<font id="hacen_samraregular" horiz-adv-x="991" >
<font-face units-per-em="2048" ascent="1638" descent="-410" />
<missing-glyph horiz-adv-x="435" />
<glyph unicode="&#x651;&#x64b;" horiz-adv-x="425" d="M50 1838l17 91l340 193l-17 -91zM61 1710l17 91l340 193l-17 -91zM66 1591q0 21 4.5 39.5t9.5 29.5q0 -3 4.5 1.5t9.5 10.5t10 10.5t5 1.5q-5 -21 -7 -40t2 -32.5t17 -19t38 -0.5q28 5 41 23t17.5 40.5t5.5 46t6 39.5q1 -3 4.5 1t7.5 9t8 9.5t6 1.5q-3 -30 6.5 -54 t26 -36.5t38 -11.5t42.5 21q4 10 2 23t-8.5 25.5t-15.5 24.5t-18 21q5 10 14.5 15.5t20 10t20 9.5t15.5 13q5 -8 5.5 -12.5t-0.5 -8.5t-1.5 -8.5t3.5 -13.5q12 -32 14.5 -66t-5 -63.5t-25.5 -50.5t-47 -26q-25 -4 -39 3t-31 18q-4 -11 -10.5 -25.5t-18 -28.5t-27 -25.5 t-37.5 -16.5q-34 -9 -56 -3.5t-35 20t-17.5 35t-4.5 40.5z" />
<glyph unicode="&#x651;&#x64c;" horiz-adv-x="484" arabic-form="isolated" d="M43 1917q20 23 46.5 37.5t53 18.5t49.5 -1.5t35.5 -20.5t10.5 -40.5t-24 -61.5q48 17 89.5 38t75.5 53q-43 9 -63 27t-23.5 40t8 45t31.5 41.5t46 30t52 10.5q22 -2 29.5 -21t7 -43t-6 -46.5t-9.5 -31.5l40 -10l-18 -65l-48 11q-7 -12 -21 -28.5t-33 -34t-42 -33t-48 -26 t-50 -13t-48 6.5q-23 10 -25 27t3 36t11 36t-2 26.5t-36.5 9t-90.5 -17.5zM87.5 1632.5q-0.5 26.5 3.5 48.5t9 33q0 -3 5 1.5t10.5 10.5t10 10t4.5 1q-5 -21 -6.5 -47.5t4 -49.5t19.5 -37.5t40 -9.5q28 5 41 23t18 40.5t6.5 45.5t6.5 39q1 -3 4.5 1t8 9t8 9.5t5.5 1.5 q-3 -30 6 -54t25.5 -37t38 -12.5t43.5 20.5q4 10 2 23t-8.5 26t-15 25t-17.5 21q11 20 19.5 37.5t17.5 34.5q13 -15 22.5 -33t17.5 -36q11 -32 13 -66t-6 -63.5t-26.5 -50t-47.5 -24.5q-25 -4 -38.5 3t-30.5 19q-4 -11 -11 -25t-18.5 -28t-27.5 -25.5t-38 -16.5 q-34 -8 -56.5 1.5t-36 29.5t-19 47.5t-6 54zM346 2048q-2 -10 3.5 -16.5t14.5 -11.5t21.5 -9.5t25.5 -9.5q2 17 2 30q0 11 -2 21.5t-8 14.5v-2q-5 5 -12 6.5t-12 1.5q-14 1 -23.5 -7t-9.5 -18z" />
<glyph unicode="&#x651;&#x64d;" horiz-adv-x="425" arabic-form="isolated" d="M31 1438l33 75l350 141l-33 -75zM41 1543l33 75l350 141l-33 -75zM56.5 1844.5q0.5 26.5 4.5 49t10 32.5q0 -3 4.5 1.5l10.5 10.5t10.5 10t4.5 1q-6 -21 -8 -48t3 -50t18.5 -37.5t39.5 -10.5q29 4 42.5 21t19 39.5t7 46t7.5 39.5q1 -3 5 0.5t8.5 9t8 9.5t5.5 1 q-4 -29 4 -53.5t24 -38t37 -13.5q22 0 45 20q5 10 3 22.5t-8 25.5t-14.5 25.5t-16.5 21.5q11 20 20 37t19 34q12 -15 21.5 -33.5t16.5 -36.5q10 -32 11 -66t-7.5 -63t-27.5 -49t-48 -24q-25 -3 -38.5 4t-30.5 20q-4 -11 -11.5 -25t-19 -27.5t-28 -24.5t-38.5 -16 q-34 -7 -56.5 3t-35 31t-17.5 48t-4.5 53.5z" />
<glyph unicode="&#x651;&#x64e;" horiz-adv-x="425" arabic-form="isolated" d="M61 1710l17 91l340 193l-17 -91zM66 1591q0 21 4.5 39.5t9.5 29.5q0 -3 4.5 1.5t9.5 10.5t10 10.5t5 1.5q-5 -21 -7 -40t2 -32.5t17 -19t38 -0.5q28 5 41 23t17.5 40.5t5.5 46t6 39.5q1 -3 4.5 1t7.5 9t8 9.5t6 1.5q-3 -30 6.5 -54t26 -36.5t38 -11.5t42.5 21q4 10 2 23 t-8.5 25.5t-15.5 24.5t-18 21q5 10 14.5 15.5t20 10t20 9.5t15.5 13q5 -8 5.5 -12.5t-0.5 -8.5t-1.5 -8.5t3.5 -13.5q12 -32 14.5 -66t-5 -63.5t-25.5 -50.5t-47 -26q-25 -4 -39 3t-31 18q-4 -11 -10.5 -25.5t-18 -28.5t-27 -25.5t-37.5 -16.5q-34 -9 -56 -3.5t-35 20 t-17.5 35t-4.5 40.5z" />
<glyph unicode="&#x651;&#x64f;" horiz-adv-x="437" arabic-form="isolated" d="M2 1791q60 20 103 34t77 28t61.5 31t54.5 43q-46 8 -67.5 26.5t-25 40.5t8.5 45t33 42t48.5 30.5t55.5 10.5q23 -1 31 -20t7.5 -43.5t-6.5 -47.5t-10 -33l43 -10l-19 -63l-50 10q-11 -18 -37 -41t-61.5 -43.5t-76.5 -34t-83 -11.5q-57 4 -75 4q-17 0 -12 2zM63.5 1632.5 q-0.5 26.5 3.5 48.5t9 33q0 -3 5 1.5t10.5 10.5t10 10t4.5 1q-5 -21 -6.5 -47.5t4 -49.5t19.5 -37.5t40 -9.5q28 5 41 23t18 40.5t6.5 45.5t6.5 39q1 -3 4.5 1t8 9t8 9.5t5.5 1.5q-3 -30 6 -54t25.5 -37t38 -12.5t43.5 20.5q4 10 2 23t-8.5 26t-15 25t-17.5 21 q11 20 19.5 37.5t17.5 34.5q13 -15 22.5 -33t17.5 -36q11 -32 13 -66t-6 -63.5t-26.5 -50t-47.5 -24.5q-25 -4 -38.5 3t-30.5 19q-4 -11 -11 -25t-18.5 -28t-27.5 -25.5t-38 -16.5q-34 -8 -56.5 1.5t-36 29.5t-19 47.5t-6 54zM262 2036q-2 -20 19 -29.5t50 -17.5q2 16 2 30 q0 11 -2 22t-9 14v-1q-5 5 -11.5 6.5t-11.5 1.5q-17 1 -26.5 -7t-10.5 -19z" />
<glyph unicode="&#x651;&#x650;" horiz-adv-x="425" arabic-form="isolated" d="M71.5 1766.5q0.5 26.5 4.5 48.5t10 33q0 -3 4.5 1.5l10.5 10.5t10.5 10t4.5 1q-6 -21 -8 -48t3 -50t18.5 -37.5t39.5 -10.5q29 4 42.5 21t19 39.5t7 46t7.5 39.5q1 -3 5 0.5t8.5 9t8 9.5t5.5 1q-4 -29 4 -53.5t24 -38t37 -13.5q22 0 45 20q5 10 3 22.5t-8 25.5 t-14.5 25.5t-16.5 21.5q11 20 20 37t19 34q12 -15 21.5 -33.5t16.5 -36.5q10 -32 11 -66t-7.5 -63t-27.5 -49t-48 -24q-25 -3 -38.5 4t-30.5 20q-4 -11 -11.5 -25t-19 -27.5t-28 -24.5t-38.5 -16q-34 -7 -56.5 3t-35 31t-17.5 48t-4.5 53.5zM82 1397l17 91l340 193l-17 -91z " />
<glyph unicode="&#x640;&#x651;&#x64e;" horiz-adv-x="375" arabic-form="medial" d="M-39 1077l17 91l340 193l-17 -91zM-34 958q0 21 4.5 39.5t9.5 29.5q0 -3 4.5 1.5t9.5 10.5t10 10.5t5 1.5q-5 -21 -7 -40t2 -32.5t17 -19t38 -0.5q28 5 41 23t17.5 40.5t5.5 46t6 39.5q1 -3 4.5 1t7.5 9t8 9.5t6 1.5q-3 -30 6.5 -54t26 -36.5t38 -11.5t42.5 21q4 10 2 23 t-8.5 25.5t-15.5 24.5t-18 21q5 10 14.5 15.5t20 10t20 9.5t15.5 13q5 -8 5.5 -12.5t-0.5 -8.5t-1.5 -8.5t3.5 -13.5q12 -32 14.5 -66t-5 -63.5t-25.5 -50.5t-47 -26q-25 -4 -39 3t-31 18q-4 -11 -10.5 -25.5t-18 -28.5t-27 -25.5t-37.5 -16.5q-34 -9 -56 -3.5t-35 20 t-17.5 35t-4.5 40.5z" />
<glyph unicode="&#x640;&#x651;&#x64f;" horiz-adv-x="480" arabic-form="medial" d="M-5 1183q60 20 103 34t77 28t61.5 31t54.5 43q-46 8 -67.5 26.5t-25 40.5t8.5 45t33 42t48.5 30.5t55.5 10.5q23 -1 31 -20t7.5 -43.5t-6.5 -47.5t-10 -33l43 -10l-19 -63l-50 10q-11 -18 -37 -41t-61.5 -43.5t-76.5 -34t-83 -11.5q-57 4 -75 4q-17 0 -12 2zM56.5 1024.5 q-0.5 26.5 3.5 48.5t9 33q0 -3 5 1.5t10.5 10.5t10 10t4.5 1q-5 -21 -6.5 -47.5t4 -49.5t19.5 -37.5t40 -9.5q28 5 41 23t18 40.5t6.5 45.5t6.5 39q1 -3 4.5 1t8 9t8 9.5t5.5 1.5q-3 -30 6 -54t25.5 -37t38 -12.5t43.5 20.5q4 10 2 23t-8.5 26t-15 25t-17.5 21 q11 20 19.5 37.5t17.5 34.5q13 -15 22.5 -33t17.5 -36q11 -32 13 -66t-6 -63.5t-26.5 -50t-47.5 -24.5q-25 -4 -38.5 3t-30.5 19q-4 -11 -11 -25t-18.5 -28t-27.5 -25.5t-38 -16.5q-34 -8 -56.5 1.5t-36 29.5t-19 47.5t-6 54zM255 1428q-2 -20 19 -29.5t50 -17.5q2 16 2 30 q0 11 -2 22t-9 14v-1q-5 5 -11.5 6.5t-11.5 1.5q-17 1 -26.5 -7t-10.5 -19z" />
<glyph unicode="&#xfedf;&#xfee0;&#xfeea;" horiz-adv-x="1810" arabic-form="isolated" d="M49 461v381q0 24 9 44.5t24.5 36.5t36 25t44.5 9h513q24 0 45 -9t36.5 -25t24.5 -36.5t9 -44.5l1 -431h215v632q0 24 9 44.5t24.5 36t36.5 24.5t44 9h148v-746h218v933h148q23 0 44 -9.5t36.5 -25t25 -36.5t9.5 -45v-965q0 -24 -9.5 -44.5t-25 -36.5t-36.5 -25t-44 -9 h-993q-24 0 -44.5 9t-35.5 25t-23.5 36.5t-8.5 44.5l-2 430h-217v-106q1 -37 5 -59.5t11.5 -41t20 -38t30.5 -50.5q31 -50 49.5 -106t18.5 -115q1 -29 -2.5 -51.5t-9.5 -35.5t-13.5 -14.5t-13.5 10.5q-11 22 -31 41.5t-46 38t-56 37t-60 38.5q-32 21 -61.5 44t-52.5 49.5 t-37 57.5t-14 69zM863 1360l27 64l192 84q0 33 -3 61.5t-13.5 55t-31 51t-55.5 49.5l21 75q43 -25 71 -57.5t40.5 -70t10.5 -77t-19 -78.5l265 116l-27 -62zM954.5 1261.5q-0.5 37.5 10.5 93.5l77 34l-12 -64q-1 -6 -3 -15t-1.5 -18.5t5.5 -18t19 -11.5q9 -3 18.5 5.5t17 21 t12.5 25t5 18.5l10 84v2q1 0 1 2l74 33q0 -15 0.5 -40.5t4 -49.5t12 -40t25.5 -12q17 3 24.5 17.5t9.5 30.5q2 17 -2.5 32.5t-13.5 29.5l-29 46l66 29q17 -26 30.5 -55t16.5 -59q2 -17 -0.5 -33t-8.5 -31t-15 -30.5t-21 -28t-27 -20t-33 -7.5q-22 0 -40 12.5t-29 31.5l-2 4 q-16 -29 -40.5 -53.5t-56.5 -34.5q-20 -6 -42 -4.5t-39 15.5q-23 21 -23.5 58.5z" />
<glyph unicode="&#x640;&#x64e;" horiz-adv-x="448" arabic-form="medial" d="M13 952q5 24 8 39.5t7 37.5q99 52 191.5 101.5t191.5 102.5l-15 -76q-97 -52 -191.5 -102.5t-191.5 -102.5z" />
<glyph unicode="&#x640;&#x64f;" horiz-adv-x="490" arabic-form="medial" d="M7 1064q61 25 105.5 43t79 36t62.5 39.5t56 54.5q-47 11 -69 34t-25.5 51t9 57.5t34 53.5t49.5 39t56 13q16 -1 25 -12.5t12.5 -29t2.5 -39t-3.5 -41.5t-6.5 -36.5t-7 -24.5l44 -13l-19 -80l-52 12q-11 -23 -37.5 -52.5t-62.5 -55t-78.5 -42.5t-85.5 -15q-29 2 -47.5 3 t-28.5 2t-12.5 1.5t-0.5 1.5zM273 1375q-2 -25 20 -37t51 -23q2 20 2 38q0 15 -2 28.5t-9 18.5v-2q-5 6 -12 8t-12 2q-17 2 -27 -8.5t-11 -24.5z" />
<glyph unicode="&#x640;&#x650;" horiz-adv-x="669" arabic-form="medial" d="M9 301q5 23 8 39t7 38q99 52 191.5 101.5t191.5 102.5l-15 -76q-97 -52 -191.5 -102.5t-191.5 -102.5z" />
<glyph unicode="&#x640;&#x651;" horiz-adv-x="448" arabic-form="medial" d="M47.5 1073.5q-1.5 27.5 2 53.5t10.5 47.5t14 31.5q0 -3 5 1t11.5 9t11.5 8.5t5 0.5q-8 -20 -13.5 -46.5t-3 -50t14 -39.5t37.5 -15q29 0 44.5 16t23.5 37.5t12.5 44.5t12.5 38q1 -3 5 0t9 7.5t9.5 8t5.5 0.5q-8 -29 -2.5 -54t19.5 -40t35.5 -18t46.5 14q6 9 5.5 22 t-4.5 26.5t-11 27t-14 23.5q13 18 24.5 34t22.5 32q11 -17 17.5 -36t11.5 -38q6 -33 3 -67t-15 -62t-33 -45.5t-51 -17.5q-25 0 -37.5 9t-27.5 23q-6 -10 -15 -23t-22 -25t-31 -21t-40 -11q-35 -3 -56 10t-31 35t-11.5 49.5z" />
<glyph unicode="&#xfedf;&#xfe82;" horiz-adv-x="1090" arabic-form="isolated" d="M41 348q1 47 21 93q16 33 26.5 44t19.5 -8q9 -18 27.5 -30.5t43 -20t53 -11t55.5 -4.5v817q0 24 9 45t25 36.5t37 25t45 9.5h147v-933h217v933h148q24 0 44.5 -9.5t36 -25t24.5 -36.5t9 -45v-965q0 -24 -9 -44.5t-24.5 -36.5t-36 -25t-44.5 -9h-649q-82 2 -132.5 33 t-73.5 78q-20 42 -19 89zM186 1401q-1 71 38.5 109t83.5 42q53 4 122 -18t91 -25q87 -11 151 54q-26 -131 -126 -140q-40 -4 -110 18.5t-92 23.5q-88 9 -158 -64z" />
<glyph unicode="&#xfee0;&#xfe82;" horiz-adv-x="1109" arabic-form="final" d="M38.5 338q-1.5 52 21.5 103q15 33 25.5 44t19.5 -8q9 -18 28 -30.5t44 -20t53 -11t55 -4.5v817q0 24 9 45t25 36.5t36.5 25t44.5 9.5h148v-933h218v933h147q23 0 44 -9.5t36.5 -25t24.5 -36.5t9 -45v-817h95v-263h-858q-75 2 -123 28t-74 67q-27 43 -28.5 95zM186 1401 q-1 71 38.5 109t83.5 42q53 4 122 -18t91 -25q87 -11 151 54q-26 -131 -126 -140q-40 -4 -110 18.5t-92 23.5q-88 9 -158 -64z" />
<glyph unicode="&#xfedf;&#xfe84;" horiz-adv-x="1090" arabic-form="isolated" d="M41 348q1 47 21 93q16 33 26.5 44t19.5 -8q9 -18 27.5 -30.5t43 -20t53 -11t55.5 -4.5v817q0 24 9 45t25 36.5t37 25t45 9.5h147v-933h217v933h148q24 0 44.5 -9.5t36 -25t24.5 -36.5t9 -45v-965q0 -24 -9 -44.5t-24.5 -36.5t-36 -25t-44.5 -9h-649q-82 2 -132.5 33 t-73.5 78q-20 42 -19 89zM243 1438q18 29 39.5 53.5t55.5 34.5v139q0 19 13 32t31 13h91h25q11 0 21 0.5t20 3t25 8.5q5 3 8.5 -3.5t3.5 -18.5q0 -11 -4.5 -26t-14.5 -28q-12 -16 -32.5 -27t-52.5 -12h-32v-74h145v-57q0 -18 -13 -31t-33 -13h-174q-20 1 -45 -4.5t-45 -16.5 z" />
<glyph unicode="&#xfee0;&#xfe84;" horiz-adv-x="1109" arabic-form="final" d="M38.5 338q-1.5 52 21.5 103q15 33 25.5 44t19.5 -8q9 -18 28 -30.5t44 -20t53 -11t55 -4.5v817q0 24 9 45t25 36.5t36.5 25t44.5 9.5h148v-933h218v933h147q23 0 44 -9.5t36.5 -25t24.5 -36.5t9 -45v-817h95v-263h-858q-75 2 -123 28t-74 67q-27 43 -28.5 95zM243 1438 q18 29 39.5 53.5t55.5 34.5v139q0 19 13 32t31 13h91h25q11 0 21 0.5t20 3t25 8.5q5 3 8.5 -3.5t3.5 -18.5q0 -11 -4.5 -26t-14.5 -28q-12 -16 -32.5 -27t-52.5 -12h-32v-74h145v-57q0 -18 -13 -31t-33 -13h-174q-20 1 -45 -4.5t-45 -16.5z" />
<glyph unicode="&#xfedf;&#xfe88;" horiz-adv-x="1090" arabic-form="isolated" d="M41 348q1 47 21 93q16 33 26.5 44t19.5 -8q9 -18 27.5 -30.5t43 -20t53 -11t55.5 -4.5v817q0 24 9 45t25 36.5t37 25t45 9.5h147v-933h217v933h148q24 0 44.5 -9.5t36 -25t24.5 -36.5t9 -45v-965q0 -24 -9 -44.5t-24.5 -36.5t-36 -25t-44.5 -9h-649q-82 2 -132.5 33 t-73.5 78q-20 42 -19 89zM197 -227q18 29 39.5 53.5t55.5 34.5v138q0 20 12.5 33t31.5 13h91h25q11 0 21 0.5t20 3t25 8.5q5 3 8.5 -3.5t3.5 -18.5t-4.5 -26.5t-14.5 -28.5q-12 -16 -32.5 -26.5t-52.5 -11.5h-32v-74h145v-57q0 -19 -13 -32t-33 -13h-174q-20 2 -45 -3.5 t-45 -16.5z" />
<glyph unicode="&#xfee0;&#xfe88;" horiz-adv-x="1109" arabic-form="final" d="M38.5 338q-1.5 52 21.5 103q15 33 25.5 44t19.5 -8q9 -18 28 -30.5t44 -20t53 -11t55 -4.5v817q0 24 9 45t25 36.5t36.5 25t44.5 9.5h148v-933h218v933h147q23 0 44 -9.5t36.5 -25t24.5 -36.5t9 -45v-817h95v-263h-858q-75 2 -123 28t-74 67q-27 43 -28.5 95zM197 -227 q18 29 39.5 53.5t55.5 34.5v138q0 20 12.5 33t31.5 13h91h25q11 0 21 0.5t20 3t25 8.5q5 3 8.5 -3.5t3.5 -18.5t-4.5 -26.5t-14.5 -28.5q-12 -16 -32.5 -26.5t-52.5 -11.5h-32v-74h145v-57q0 -19 -13 -32t-33 -13h-174q-20 2 -45 -3.5t-45 -16.5z" />
<glyph unicode="&#xfedf;&#xfe8e;" horiz-adv-x="1090" arabic-form="isolated" d="M41 348q1 47 21 93q16 33 26.5 44t19.5 -8q9 -18 27.5 -30.5t43 -20t53 -11t55.5 -4.5v817q0 24 9 45t25 36.5t37 25t45 9.5h147v-933h217v933h148q24 0 44.5 -9.5t36 -25t24.5 -36.5t9 -45v-965q0 -24 -9 -44.5t-24.5 -36.5t-36 -25t-44.5 -9h-649q-82 2 -132.5 33 t-73.5 78q-20 42 -19 89z" />
<glyph unicode="&#xfee0;&#xfe8e;" horiz-adv-x="1109" arabic-form="final" d="M38.5 338q-1.5 52 21.5 103q15 33 25.5 44t19.5 -8q9 -18 28 -30.5t44 -20t53 -11t55 -4.5v817q0 24 9 45t25 36.5t36.5 25t44.5 9.5h148v-933h218v933h147q23 0 44 -9.5t36.5 -25t24.5 -36.5t9 -45v-817h95v-263h-858q-75 2 -123 28t-74 67q-27 43 -28.5 95z" />
<glyph unicode="&#xfcf4;" horiz-adv-x="532" arabic-form="medial" d="M71 1021q61 25 105.5 43t79 36t62.5 39.5t56 54.5q-47 11 -69 34t-25.5 51t9 57.5t34 53.5t49.5 38.5t56 13.5q16 -1 25 -12.5t12.5 -29t2.5 -39t-3.5 -41.5t-6.5 -36.5t-7 -24.5l44 -13l-19 -80l-52 12q-11 -23 -37.5 -52.5t-62.5 -55t-78.5 -42.5t-85.5 -15 q-29 2 -47.5 3t-28.5 2t-12.5 1.5t-0.5 1.5zM337 1332q-2 -25 20 -37t51 -23q2 20 2 38q0 15 -2 28.5t-9 18.5v-2q-5 6 -12 8t-12 2q-17 2 -27 -8.5t-11 -24.5z" />
<glyph unicode="&#xfe70;" horiz-adv-x="408" arabic-form="isolated" d="M49 1482l17 91l340 193l-17 -91zM63 1649l17 91l340 193l-17 -91z" />
<glyph unicode="&#xfe71;" horiz-adv-x="669" arabic-form="medial" d="M1 949q5 23 8 39t7 38q99 52 191.5 101.5t191.5 102.5l-16 -76q-97 -52 -191 -102.5t-191 -102.5zM33 1140q5 23 8.5 38.5t7.5 38.5q99 52 191 101.5t191 102.5l-15 -76q-97 -52 -191.5 -102.5t-191.5 -102.5z" />
<glyph unicode="&#xfe72;" horiz-adv-x="469" arabic-form="isolated" d="M45 1619q19 27 44.5 43.5t50.5 22t47 -1t34 -24.5t10.5 -48t-23.5 -72q46 20 85.5 44t71.5 62q-41 10 -60.5 31.5t-22 47.5t8 53t30 49.5t44 36t49.5 12.5q21 -2 28 -24.5t6.5 -51t-6 -55.5t-8.5 -37l38 -12l-17 -76l-46 13q-6 -14 -19.5 -33.5t-32 -40t-40.5 -39.5 t-45.5 -31t-47.5 -15t-46 8t-24 31.5t3 42t10.5 42t-2 32t-34.5 10.5t-86 -20zM334 1773q-2 -11 3 -19t14 -14t20.5 -11.5t24.5 -11.5q2 19 2 35q0 14 -2.5 26.5t-7.5 16.5v-2q-10 10 -23 10q-14 1 -22.5 -8.5t-8.5 -21.5z" />
<glyph unicode="&#xfe74;" horiz-adv-x="408" arabic-form="isolated" d="M1 -288q5 23 8 38.5t7 38.5q99 52 191.5 101.5t191.5 102.5l-15 -76q-97 -52 -191.5 -102.5t-191.5 -102.5zM33 -98q5 24 8.5 39.5t7.5 38.5q99 52 191 101t191 102l-15 -76q-97 -52 -191.5 -102.5t-191.5 -102.5z" />
<glyph unicode="&#xfe76;" horiz-adv-x="408" arabic-form="isolated" d="M13 1378q5 24 8 39.5t7 37.5q99 52 191.5 101.5t191.5 102.5l-15 -76q-97 -52 -191.5 -102.5t-191.5 -102.5z" />
<glyph unicode="&#xfe78;" horiz-adv-x="414" arabic-form="isolated" d="M13 1507q61 25 105.5 43t79 36t62.5 39.5t56 54.5q-47 11 -69 34t-25.5 51t9 57.5t34 53.5t49.5 38.5t56 13.5q16 -1 25 -12.5t12.5 -29t2.5 -39t-3.5 -41.5t-6.5 -36.5t-7 -24.5l44 -13l-19 -80l-52 12q-11 -23 -37.5 -52.5t-62.5 -55t-78.5 -42.5t-85.5 -15 q-29 2 -47.5 3t-28.5 2t-12.5 1.5t-0.5 1.5zM279 1818q-2 -25 20 -37t51 -23q2 20 2 38q0 15 -2 28.5t-9 18.5v-2q-5 6 -12 8t-12 2q-17 2 -27 -8.5t-11 -24.5z" />
<glyph unicode="&#xfe7a;" horiz-adv-x="408" arabic-form="isolated" d="M9 -568q5 23 8 39t7 38q99 52 191.5 101.5t191.5 102.5l-15 -76q-97 -52 -191.5 -102.5t-191.5 -102.5z" />
<glyph unicode="&#xfe7c;" horiz-adv-x="425" arabic-form="isolated" d="M59.5 1603.5q-1.5 27.5 2 53.5t10.5 47.5t14 31.5q0 -3 5 1t11.5 9t11.5 8.5t5 0.5q-8 -20 -13.5 -46.5t-3 -50t14 -39.5t37.5 -15q29 0 44.5 16t23.5 37.5t12.5 44.5t12.5 38q1 -3 5 0t9 7.5t9.5 8t5.5 0.5q-8 -29 -2.5 -54t19.5 -40t35.5 -18t46.5 14q6 9 5.5 22 t-4.5 26.5t-11 27t-14 23.5q13 18 24.5 34t22.5 32q11 -17 17.5 -36t11.5 -38q6 -33 3 -67t-15 -62t-33 -45.5t-51 -17.5q-25 0 -37.5 9t-27.5 23q-6 -10 -15 -23t-22 -25t-31 -21t-40 -11q-35 -3 -56 10t-31 35t-11.5 49.5z" />
<glyph unicode="&#xfe7e;" horiz-adv-x="328" arabic-form="isolated" d="M59 1556q-5 33 3.5 75.5t27 81.5t46 67t59.5 33q28 4 54 -6.5t46.5 -28.5t34.5 -40.5t17 -41.5q5 -34 -10 -71.5t-41 -87.5v1q0 1 1 2l-3 -5q-24 -14 -61.5 -26.5t-74 -15t-65 11t-34.5 51.5zM123 1643q3 -22 21 -32.5t42 -11t50 6.5t46 21l1 1q-3 14 -13.5 30t-25 29.5 t-31.5 22t-35 5.5q-30 -5 -44 -27t-11 -45zM294 1535q1 0 1 1q0 -1 -1 -1zM295 1536l1 1q0 -1 -1 -1z" />
<glyph unicode="&#xfe7f;" horiz-adv-x="2797" arabic-form="medial" d="M90 223v504h2611v-504h-2611zM161 1054q0 34 16.5 56.5t54.5 22.5q6 0 12 -0.5t13 -1.5q46 -5 92.5 -10t94.5 -5l80 179q8 37 25.5 64t46.5 27q10 0 19.5 -3.5t9.5 -17.5q0 -9 -8 -24.5t-17 -28.5l-97 -192q105 5 209 36t189 97q35 31 61.5 43.5t43.5 12.5q25 0 25 -21 q0 -19 -23 -47.5t-73 -54.5q-33 -34 -63 -72t-54 -82t-40 -96t-20 -115q0 -19 -15 -19q-12 0 -18 13.5t-6 45.5q0 73 22.5 140.5t56.5 124.5q-76 -25 -155 -36.5t-161 -11.5l-80 -160q-15 -31 -39 -54t-56 -23q-24 0 -50 18.5t-47 49t-35 68.5t-14 77zM200 1066 q0 -23 9.5 -52.5t25.5 -56t36 -45t40 -18.5q15 0 29 12t26 40l61 134q-108 3 -214 21q-13 -10 -13 -35zM879 873q0 7 2.5 15t6.5 17q18 40 49 76.5t68.5 64t77.5 44t76 16.5q27 0 48 -16t21 -52q0 -14 -9.5 -30.5t-27.5 -36.5q-20 -20 -35 -44.5t-15 -46.5q0 -15 9 -21.5 t23 -6.5q21 0 49.5 10t56.5 23t51.5 25.5t33.5 18.5q8 37 32.5 68.5t55.5 54.5t63.5 36.5t57.5 13.5q14 0 20 -5t6 -13q0 -10 -11 -20.5t-30 -12.5q-19 -7 -44 -19t-47.5 -30t-38 -41t-15.5 -52q0 -32 16.5 -45t42.5 -13t59 10t64.5 23.5t58 27.5t41.5 21q0 36 19 71 t48.5 62.5t66.5 44t73 16.5q22 0 36.5 -4.5t22 -11t10.5 -15t3 -15.5q0 -26 -29 -52t-67 -49t-74.5 -40.5t-52.5 -25.5q16 -23 41 -33.5t57 -10.5q30 0 64.5 8.5t70 23.5t70 35.5t64.5 43.5q19 14 38 32t40 33q4 3 13 8t19.5 10.5t21.5 9t20 3.5q15 0 15 -13q0 -5 -4 -16.5 t-10 -22.5q-16 -45 -25.5 -75t-11.5 -47q0 -5 6 -5q7 0 20 6.5t29.5 16t34 22t32.5 24.5q4 2 23 15t43 27.5t48 26.5t38 12q12 0 12 -12q-3 -29 -3 -57q0 -12 1 -24.5t4.5 -22t10 -15.5t17.5 -6q17 0 31 5.5t27 13.5t25.5 18t27.5 19l8 -21q-12 -9 -30 -25t-38.5 -31.5 t-42.5 -27t-42 -11.5q-15 0 -25 6t-15 15t-7 19t-2 19t1 18.5t1 17.5q0 11 -3.5 21t-14.5 10q-10 0 -27.5 -9.5t-38.5 -24t-45 -31t-48 -31t-46 -24.5t-40 -10q-11 2 -22 8t-11 19q0 23 4.5 44.5t18.5 62.5q0 1 -15.5 -10t-43 -28t-64 -37t-77 -37.5t-83 -29t-82.5 -11.5 q-41 0 -76.5 16.5t-49.5 46.5q-19 -8 -47.5 -22t-62 -27.5t-68.5 -23t-66 -9.5q-35 0 -61.5 16.5t-35.5 60.5q-21 -12 -45 -26t-49.5 -25.5t-50.5 -19.5t-49 -8q-31 0 -55.5 20.5t-43.5 65.5q-17 -12 -30 -20.5t-25.5 -15.5t-25.5 -12t-30 -11q-18 -6 -32 -6q-17 0 -33 11.5 t-16 33.5zM880 265h126v125h-126v-125zM928 880q41 0 77.5 16.5t68.5 42t59 57.5t50 63q-5 1 -10 1h-10q-36 0 -70.5 -17t-65 -43.5t-56 -58.5t-43.5 -61zM1103 265h91v320l318 -320h109v421h-91v-320l-313 320h-114v-421zM1709 265h430v76h-331v108h299v75h-299v87h322v75 h-421v-421zM1737 954q40 17 73.5 34t58.5 33t39 30t14 25q0 10 -8 15q-50 -5 -99 -38t-78 -99zM2202 609h183v-344h89v344h183v77h-455v-77z" />
<glyph unicode="&#x621;" horiz-adv-x="974" arabic-form="isolated" d="M35.5 108.5q-4.5 14.5 1.5 41.5t22 63q13 25 32 50t45 48.5t61.5 44.5t81.5 38v355q0 24 9 44.5t24.5 36.5t36.5 25t44 9h235q39 1 66.5 0.5t52 2t50.5 9t63 22.5q14 6 23 -11t8.5 -47t-12 -68t-38.5 -73q-31 -40 -83 -68t-134 -30h-83v-190h372v-148q0 -24 -9 -44.5 t-24.5 -36.5t-36 -25t-44.5 -9h-449q-27 2 -59.5 1.5t-66.5 -4.5t-67 -12.5t-59 -22.5q-27 -17 -42.5 -16.5t-20 15z" />
<glyph unicode="&#x622;" horiz-adv-x="456" arabic-form="isolated" d="M64 1401q-1 71 38.5 109t82.5 42q53 4 122.5 -18t90.5 -25q87 -11 151 54q-26 -131 -125 -140q-40 -4 -110 18.5t-93 23.5q-88 9 -157 -64zM133 148v1080q0 24 9 45t25 36.5t36.5 25t44.5 9.5h147v-1081q0 -24 -9 -44.5t-24 -36.5t-36 -25t-45 -9h-148z" />
<glyph unicode="&#x622;" horiz-adv-x="401" arabic-form="final" d="M3 1401q-1 71 38.5 109t82.5 42q53 4 122.5 -18t91.5 -25q87 -11 150 54q-26 -131 -125 -140q-40 -4 -110 18.5t-93 23.5q-88 9 -157 -64zM60 263v965q0 24 9 45t24.5 36.5t36.5 25t45 9.5h148v-933h91v-263h-239q-24 0 -45 9t-36.5 25t-24.5 36.5t-9 44.5z" />
<glyph unicode="&#x623;" horiz-adv-x="456" arabic-form="isolated" d="M62 1438q18 29 39.5 53.5t55.5 34.5v139q0 19 13 32t31 13h91h25q11 0 21 0.5t20.5 3t24.5 8.5q5 3 8.5 -3.5t3.5 -18.5q0 -11 -4.5 -26t-14.5 -28q-12 -16 -32.5 -27t-52.5 -12h-32v-74h145v-57q0 -18 -13 -31t-33 -13h-174q-20 1 -45 -4.5t-45 -16.5zM133 148v1080 q0 24 9 45t25 36.5t36.5 25t44.5 9.5h147v-1081q0 -24 -9 -44.5t-24 -36.5t-36 -25t-45 -9h-148z" />
<glyph unicode="&#x623;" horiz-adv-x="401" arabic-form="final" d="M21 1438q18 29 39.5 53.5t56.5 34.5v139q0 19 12.5 32t30.5 13h91h25q11 0 21 0.5t20.5 3t24.5 8.5q5 3 8.5 -3.5t3.5 -18.5q0 -11 -4.5 -26t-14.5 -28q-12 -16 -32.5 -27t-51.5 -12h-33v-74h145v-57q0 -18 -13 -31t-32 -13h-174q-20 1 -45.5 -4.5t-45.5 -16.5zM60 263 v965q0 24 9 45t24.5 36.5t36.5 25t45 9.5h148v-933h91v-263h-239q-24 0 -45 9t-36.5 25t-24.5 36.5t-9 44.5z" />
<glyph unicode="&#x624;" horiz-adv-x="853" arabic-form="isolated" d="M50 263v579q0 24 9 44.5t24.5 36.5t36 25t44.5 9h513q24 0 44.5 -9t36.5 -25t25 -36.5t9 -44.5v-481q0 -94 -16.5 -161.5t-45.5 -115.5t-68.5 -79.5t-86 -53.5t-97 -37.5t-102.5 -31t-102 -35.5t-95 -50q-11 -8 -16.5 -3t-4.5 19.5t9 35.5t24 47q19 31 44 54t52.5 42 t56.5 36t56.5 34.5t52 38t44.5 47.5h-333q-24 0 -44.5 9t-36 25t-24.5 36.5t-9 44.5zM185 1057q23 36 50.5 66.5t69.5 44.5v173q0 23 16.5 40t39.5 17h115q19 0 32 -0.5t25 0.5t25 4.5t31 11.5q7 3 11.5 -6t4.5 -24t-6 -33.5t-20 -35.5q-15 -19 -40.5 -32t-64.5 -14h-41v-93 h182v-72q0 -23 -16.5 -39.5t-39.5 -16.5h-219q-26 2 -57.5 -4.5t-57.5 -20.5zM312 411h218v282h-218v-282z" />
<glyph unicode="&#x624;" horiz-adv-x="885" arabic-form="final" d="M59 263v579q0 24 9 44.5t24.5 36.5t36.5 25t45 9h512q24 0 45 -9t36.5 -25t24.5 -36.5t9 -44.5v-431h97v-263h-128q-24 -66 -62.5 -108t-86.5 -70t-103 -46t-111.5 -35t-112.5 -38t-105 -54q-12 -8 -17.5 -3t-4.5 19.5t9 35.5t24 47q19 31 44 54t52.5 42t56.5 36 t56.5 34.5t52 38t44.5 47.5h-332q-24 0 -45 9t-36.5 25t-24.5 36.5t-9 44.5zM185 1057q23 36 50.5 66.5t69.5 44.5v173q0 23 16.5 40t39.5 17h115q19 0 32 -0.5t25 0.5t25 4.5t31 11.5q7 3 11.5 -6t4.5 -24t-6 -33.5t-20 -35.5q-15 -19 -40.5 -32t-64.5 -14h-41v-93h182v-72 q0 -23 -16.5 -39.5t-39.5 -16.5h-219q-26 2 -57.5 -4.5t-57.5 -20.5zM322 411h217v282h-217v-282z" />
<glyph unicode="&#x625;" horiz-adv-x="456" arabic-form="isolated" d="M23 -227q19 29 40.5 53.5t55.5 34.5v138q0 20 12.5 33t31.5 13h91h25q11 0 21 0.5t20 3t25 8.5q5 3 8 -3.5t3 -18.5t-4 -26.5t-14 -28.5q-12 -16 -32.5 -26.5t-52.5 -11.5h-32v-74h144v-57q0 -19 -13 -32t-32 -13h-174q-20 2 -45 -3.5t-45 -16.5zM133 148v1080q0 24 9 45 t25 36.5t36.5 25t44.5 9.5h147v-1081q0 -24 -9 -44.5t-24 -36.5t-36 -25t-45 -9h-148z" />
<glyph unicode="&#x625;" horiz-adv-x="401" arabic-form="final" d="M23 -227q19 29 40.5 53.5t55.5 34.5v138q0 20 12.5 33t31.5 13h91h25q11 0 21 0.5t20 3t25 8.5q5 3 8 -3.5t3 -18.5t-4 -26.5t-14 -28.5q-12 -16 -32.5 -26.5t-52.5 -11.5h-32v-74h144v-57q0 -19 -13 -32t-32 -13h-174q-20 2 -45 -3.5t-45 -16.5zM60 263v965q0 24 9 45 t24.5 36.5t36.5 25t45 9.5h148v-933h91v-263h-239q-24 0 -45 9t-36.5 25t-24.5 36.5t-9 44.5z" />
<glyph unicode="&#x626;" horiz-adv-x="1222" arabic-form="isolated" d="M6 891q23 37 50.5 67.5t69.5 44.5v173q0 23 16.5 39.5t39.5 16.5h115h32t25 1t25 4.5t31 11.5q7 3 11.5 -6t4.5 -24t-6 -33.5t-20 -35.5q-15 -20 -40.5 -33t-64.5 -13h-41v-94h182v-72q0 -23 -16.5 -39t-40.5 -16h-218q-26 2 -57.5 -5t-57.5 -21zM157 267v408q0 24 9 45 t24.5 36.5t36 24.5t44.5 9h147v-376h481v153h-165q-29 -1 -57.5 4t-52 19.5t-38 40t-14.5 65.5v153q0 48 22.5 86.5t58 70t78 58t82 52t72 51.5t46.5 56q8 16 18 8.5t16 -33t6 -66.5q0 -40 -12.5 -89.5t-40 -104.5t-76.5 -109h205q23 0 44 -9.5t36.5 -25t24.5 -36.5t9 -44 v-447q0 -24 -9 -44.5t-24.5 -36.5t-36.5 -25t-44 -9h-776q-24 0 -44.5 9t-36 25t-24.5 36.5t-9 44.5z" />
<glyph unicode="&#x626;" horiz-adv-x="1583" arabic-form="final" d="M43 807q23 37 50.5 67.5t70.5 43.5v173q0 24 16 40.5t39 16.5h115h32q14 0 26 1t24.5 4t30.5 11q7 3 11.5 -6t4.5 -24t-6 -33.5t-19 -35.5q-15 -19 -40.5 -32t-65.5 -14h-41v-93h182v-72q0 -23 -16.5 -39.5t-39.5 -16.5h-219q-26 2 -57 -4.5t-57 -20.5zM52 567q0 23 9 44 t25 36.5t36.5 25t44.5 9.5h147v-182q-4 -57 11.5 -102t44 -77t67 -51t79.5 -24.5t82 2t75 29.5t58 58t31 86l-1 421q0 24 9 44.5t24.5 36.5t36.5 25t44 9h514q24 0 44.5 -9t36.5 -25t25 -36.5t9 -44.5v-431h92v-263h-241q-24 0 -44.5 9t-36 25t-24 36.5t-8.5 44.5l-1 430 h-218l1 -272q-6 -102 -48.5 -182.5t-109.5 -137t-152 -87t-175 -31t-178.5 30t-163.5 96.5q-56 49 -85.5 101.5t-43 109t-15 118t-1.5 128.5z" />
<glyph unicode="&#x626;" horiz-adv-x="532" arabic-form="initial" d="M-3 148v263h212v546h147q24 0 44.5 -9t36.5 -25t25 -36.5t9 -44.5v-579q0 -24 -9 -44.5t-25 -36.5t-36.5 -25t-44.5 -9h-359zM27 1038q23 37 50 67.5t70 44.5v173q0 23 16.5 39.5t39.5 16.5h115h32t25 1t25 4.5t31 11.5q7 3 11.5 -6t4.5 -24t-6 -33.5t-20 -35.5 q-15 -20 -40.5 -33t-64.5 -13h-41v-94h182v-72q0 -23 -16.5 -39t-40.5 -16h-218q-26 2 -57.5 -5t-57.5 -21z" />
<glyph unicode="&#x626;" horiz-adv-x="522" arabic-form="medial" d="M0 148v263h147v431q0 24 9 44.5t25 36.5t37 25t45 9h147v-546h125v-263h-535zM36 1038q23 37 50 67.5t71 44.5v173q0 23 15.5 39.5t38.5 16.5h115h32q14 0 26 1t25 4.5t31 11.5q7 3 11 -5.5t4 -23.5q0 -14 -5.5 -32.5t-17.5 -35.5q-15 -20 -41 -34t-66 -14h-41v-94h182 v-72q0 -23 -16.5 -39t-40.5 -16h-218q-26 2 -57.5 -5t-56.5 -21z" />
<glyph unicode="&#x627;" horiz-adv-x="456" arabic-form="isolated" d="M133 148v1080q0 24 9 45t25 36.5t36.5 25t44.5 9.5h147v-1081q0 -24 -9 -44.5t-24 -36.5t-36 -25t-45 -9h-148z" />
<glyph unicode="&#x627;" horiz-adv-x="401" arabic-form="final" d="M60 263v965q0 24 9 45t24.5 36.5t36.5 25t45 9.5h148v-933h91v-263h-239q-24 0 -45 9t-36.5 25t-24.5 36.5t-9 44.5z" />
<glyph unicode="&#x628;" horiz-adv-x="1096" arabic-form="isolated" d="M30.5 340.5q-0.5 50.5 21.5 100.5q15 33 25 44t21 -8q14 -26 47 -39.5t72.5 -19.5t79.5 -6.5t67 -0.5h409v546h148q24 0 44.5 -9t36 -25t24.5 -36.5t9 -44.5v-579q0 -24 -9 -44.5t-24.5 -36.5t-36 -25t-44.5 -9h-665q-77 2 -126 29.5t-74 69.5q-25 43 -25.5 93.5z M402 -114q0 28 10.5 53t29 43.5t43.5 29.5t53 11t52.5 -11t43 -29.5t29.5 -43.5t11 -53t-11 -53t-29.5 -43.5t-43 -29t-52.5 -10.5t-53 10.5t-43.5 29t-29 43.5t-10.5 53z" />
<glyph unicode="&#x628;" horiz-adv-x="1122" arabic-form="final" d="M39 343q0 50 21 98q15 33 25 44t21 -8q14 -26 47 -39.5t73 -19.5t79.5 -6.5t66.5 -0.5h411v431q0 24 9 44.5t24.5 36.5t36 25t44.5 9h148v-546h90v-263h-871q-78 2 -128 30.5t-74 72.5q-23 42 -23 92zM438 -114q0 28 10.5 53t29 43.5t43.5 29.5t53 11t53 -11t43.5 -29.5 t29 -43.5t10.5 -53t-10.5 -53t-29 -43.5t-43.5 -29t-53 -10.5t-53 10.5t-43.5 29t-29 43.5t-10.5 53z" />
<glyph unicode="&#x628;" horiz-adv-x="405" arabic-form="initial" d="M-5 148v263h88v546h148q23 0 44 -9t36.5 -25t24.5 -36.5t9 -44.5v-579q0 -24 -9 -44.5t-24.5 -36.5t-36.5 -25t-44 -9h-236zM49 -114q0 28 10.5 53t29 43.5t43 29.5t52.5 11t53 -11t43.5 -29.5t29.5 -43.5t11 -53t-11 -53t-29.5 -43.5t-43.5 -29t-53 -10.5t-52.5 10.5 t-43 29t-29 43.5t-10.5 53z" />
<glyph unicode="&#x628;" horiz-adv-x="432" arabic-form="medial" d="M0 148v263h92v431q0 24 9 44.5t25 36.5t36.5 25t44.5 9h148v-546h90v-263h-445zM91 -114q0 28 10.5 53t29 43.5t43.5 29.5t53 11t53 -11t43.5 -29.5t29.5 -43.5t11 -53t-11 -53t-29.5 -43.5t-43.5 -29t-53 -10.5t-53 10.5t-43.5 29t-29 43.5t-10.5 53z" />
<glyph unicode="&#x629;" horiz-adv-x="857" arabic-form="isolated" d="M53 263v579q0 24 9 44.5t25 36.5t36.5 25t44.5 9h513q24 0 45 -9t36.5 -25t24.5 -36.5t9 -44.5v-579q0 -24 -9 -44.5t-24.5 -36.5t-36.5 -25t-45 -9h-513q-24 0 -44.5 9t-36.5 25t-25 36.5t-9 44.5zM141 1216q0 28 10.5 53t29 43.5t43.5 29t53 10.5t52.5 -10.5t43 -29 t29.5 -43.5t11 -53t-11 -53t-29.5 -43.5t-43 -29.5t-52.5 -11t-53 11t-43.5 29.5t-29 43.5t-10.5 53zM317 411h216v282h-216v-282zM449 1216q0 28 11 53t29.5 43.5t43.5 29t53 10.5t52.5 -10.5t43 -29t29 -43.5t10.5 -53t-10.5 -53t-29 -43.5t-43 -29.5t-52.5 -11t-53 11 t-43.5 29.5t-29.5 43.5t-11 53z" />
<glyph unicode="&#x629;" horiz-adv-x="873" arabic-form="final" d="M50 461v381q0 24 9 44.5t24.5 36.5t36.5 25t44 9h514q24 0 44.5 -9t36.5 -25t25 -36.5t9 -44.5v-431h93v-263h-242q-24 0 -44.5 9t-35.5 25t-23.5 36.5t-8.5 44.5l-1 430h-219v-106q1 -37 5 -59.5t12 -41t20.5 -38t31.5 -50.5q30 -50 48 -106t20 -115q1 -29 -3 -51.5 t-10 -35.5t-13.5 -14.5t-13.5 10.5q-11 23 -33 43.5t-50 40t-60 39t-63 40.5q-30 20 -57.5 42.5t-49 48.5t-34 56t-12.5 65zM141 1216q0 28 10.5 53t29 43.5t43.5 29t53 10.5t52.5 -10.5t43 -29t29.5 -43.5t11 -53t-11 -53t-29.5 -43.5t-43 -29.5t-52.5 -11t-53 11 t-43.5 29.5t-29 43.5t-10.5 53zM449 1216q0 28 11 53t29.5 43.5t43.5 29t53 10.5t52.5 -10.5t43 -29t29 -43.5t10.5 -53t-10.5 -53t-29 -43.5t-43 -29.5t-52.5 -11t-53 11t-43.5 29.5t-29.5 43.5t-11 53z" />
<glyph unicode="&#x62a;" horiz-adv-x="1096" arabic-form="isolated" d="M31 334q-2 54 21 107q15 33 25 44t21 -8q14 -26 47 -39.5t72.5 -19.5t79.5 -6.5t67 -0.5h409v546h148q24 0 44.5 -9t36 -25t24.5 -36.5t9 -44.5v-579q0 -24 -9 -44.5t-24.5 -36.5t-36 -25t-44.5 -9h-665q-72 2 -119.5 26.5t-73.5 62.5q-30 43 -32 97zM98 971 q0 28 10.5 53.5t29 44t43.5 29.5t53 11t53 -11t43.5 -29.5t29.5 -44t11 -53.5t-11 -52.5t-29.5 -43t-43.5 -29t-53 -10.5t-53 10.5t-43.5 29t-29 43t-10.5 52.5zM406 971q0 28 10.5 53.5t29 44t43.5 29.5t53 11t53 -11t43.5 -29.5t29.5 -44t11 -53.5t-11 -52.5t-29.5 -43 t-43.5 -29t-53 -10.5t-53 10.5t-43.5 29t-29 43t-10.5 52.5z" />
<glyph unicode="&#x62a;" horiz-adv-x="1122" arabic-form="final" d="M39 335q-2 54 21 106q15 33 25 44t21 -8q14 -26 47 -39.5t73 -19.5t79.5 -6.5t66.5 -0.5h411v431q0 24 9 44.5t24.5 36.5t36 25t44.5 9h148v-546h90v-263h-871q-72 2 -120 27t-74 63q-29 43 -31 97zM125 971q0 28 10.5 53.5t29 44t43.5 29.5t53 11t53 -11t43.5 -29.5 t29.5 -44t11 -53.5t-11 -52.5t-29.5 -43t-43.5 -29t-53 -10.5t-53 10.5t-43.5 29t-29 43t-10.5 52.5zM433 971q0 28 10.5 53.5t29 44t43.5 29.5t53 11t53 -11t43.5 -29.5t29.5 -44t11 -53.5t-11 -52.5t-29.5 -43t-43.5 -29t-53 -10.5t-53 10.5t-43.5 29t-29 43t-10.5 52.5z " />
<glyph unicode="&#x62a;" horiz-adv-x="677" arabic-form="initial" d="M-5 148v263h339v546h148q24 0 44.5 -9t36 -25t24.5 -36.5t9 -44.5v-579q0 -24 -9 -44.5t-24.5 -36.5t-36 -25t-44.5 -9h-487zM35 1216q0 28 11 53t29.5 43.5t43 29t52.5 10.5t53 -10.5t43.5 -29t29 -43.5t10.5 -53t-10.5 -53t-29 -43.5t-43.5 -29.5t-53 -11t-52.5 11 t-43 29.5t-29.5 43.5t-11 53zM344 1216q0 28 10.5 53t29 43.5t43 29t52.5 10.5t53 -10.5t43.5 -29t29.5 -43.5t11 -53t-11 -53t-29.5 -43.5t-43.5 -29.5t-53 -11t-52.5 11t-43 29.5t-29 43.5t-10.5 53z" />
<glyph unicode="&#x62a;" horiz-adv-x="631" arabic-form="medial" d="M-3 148v263h186v431q0 24 9 44.5t24.5 36.5t36.5 25t45 9h147v-546h199v-263h-647zM31 1216q0 28 11 53t29.5 43.5t43.5 29t53 10.5t53 -10.5t43.5 -29t29 -43.5t10.5 -53t-10.5 -53t-29 -43.5t-43.5 -29.5t-53 -11t-53 11t-43.5 29.5t-29.5 43.5t-11 53zM339 1216 q0 28 11 53t29.5 43.5t43.5 29t53 10.5t53 -10.5t43.5 -29t29 -43.5t10.5 -53t-10.5 -53t-29 -43.5t-43.5 -29.5t-53 -11t-53 11t-43.5 29.5t-29.5 43.5t-11 53z" />
<glyph unicode="&#x62b;" horiz-adv-x="1096" arabic-form="isolated" d="M31 333.5q-2 54.5 21 107.5q15 33 25 44t21 -8q14 -26 47 -39.5t72.5 -19.5t79.5 -6.5t67 -0.5h409v546h148q24 0 44.5 -9t36 -25t24.5 -36.5t9 -44.5v-579q0 -24 -9 -44.5t-24.5 -36.5t-36 -25t-44.5 -9h-665q-71 2 -118.5 26t-73.5 61q-31 44 -33 98.5zM102 932 q0 28 10.5 53t29 43.5t43.5 29.5t53 11t52.5 -11t43 -29.5t29.5 -43.5t11 -53t-11 -53t-29.5 -43.5t-43 -29t-52.5 -10.5t-53 10.5t-43.5 29t-29 43.5t-10.5 53zM253 1211q0 28 10.5 52.5t29 43t43.5 29.5t53 11t53 -11t43.5 -29.5t29 -43t10.5 -52.5t-10.5 -53t-29 -43.5 t-43.5 -29.5t-53 -11t-53 11t-43.5 29.5t-29 43.5t-10.5 53zM410 932q0 28 11 53t29.5 43.5t43 29.5t52.5 11t53 -11t43.5 -29.5t29 -43.5t10.5 -53t-10.5 -53t-29 -43.5t-43.5 -29t-53 -10.5t-52.5 10.5t-43 29t-29.5 43.5t-11 53z" />
<glyph unicode="&#x62b;" horiz-adv-x="1122" arabic-form="final" d="M38.5 350.5q1.5 45.5 21.5 90.5q15 33 25 44t21 -8q14 -26 47 -39.5t73 -19.5t79.5 -6.5t66.5 -0.5h411v431q0 24 9 44.5t24.5 36.5t36 25t44.5 9h148v-546h90v-263h-871q-84 2 -135.5 35t-73.5 82q-18 40 -16.5 85.5zM125 932q0 28 10.5 53t29 43.5t43.5 29.5t53 11 t53 -11t43.5 -29.5t29.5 -43.5t11 -53t-11 -53t-29.5 -43.5t-43.5 -29t-53 -10.5t-53 10.5t-43.5 29t-29 43.5t-10.5 53zM276 1211q0 28 11 52.5t29.5 43t43 29.5t52.5 11t53 -11t43.5 -29.5t29 -43t10.5 -52.5t-10.5 -53t-29 -43.5t-43.5 -29.5t-53 -11t-52.5 11t-43 29.5 t-29.5 43.5t-11 53zM433 932q0 28 10.5 53t29 43.5t43.5 29.5t53 11t53 -11t43.5 -29.5t29.5 -43.5t11 -53t-11 -53t-29.5 -43.5t-43.5 -29t-53 -10.5t-53 10.5t-43.5 29t-29 43.5t-10.5 53z" />
<glyph unicode="&#x62b;" horiz-adv-x="681" arabic-form="initial" d="M-4 148v263h362v546h147q24 0 45 -9t36.5 -25t24.5 -36.5t9 -44.5v-579q0 -24 -9 -44.5t-24.5 -36.5t-36.5 -25t-45 -9h-509zM35 1216q0 28 11 53t29.5 43.5t43 29t52.5 10.5t53 -10.5t43.5 -29t29 -43.5t10.5 -53t-10.5 -53t-29 -43.5t-43.5 -29.5t-53 -11t-52.5 11 t-43 29.5t-29.5 43.5t-11 53zM186 1493q0 28 11 53.5t29.5 44t43.5 29.5t53 11t52.5 -11t43 -29.5t29 -44t10.5 -53.5t-10.5 -52.5t-29 -43t-43 -29t-52.5 -10.5t-53 10.5t-43.5 29t-29.5 43t-11 52.5zM344 1216q0 28 10.5 53t29 43.5t43 29t52.5 10.5t53 -10.5t43.5 -29 t29.5 -43.5t11 -53t-11 -53t-29.5 -43.5t-43.5 -29.5t-53 -11t-52.5 11t-43 29.5t-29 43.5t-10.5 53z" />
<glyph unicode="&#x62b;" horiz-adv-x="687" arabic-form="medial" d="M-3 148v263h214v431q0 24 9 44.5t24.5 36.5t36 25t44.5 9h148v-546h227v-263h-703zM72 1216q0 28 11 53t29.5 43.5t43.5 29t53 10.5t53 -10.5t43.5 -29t29 -43.5t10.5 -53t-10.5 -53t-29 -43.5t-43.5 -29.5t-53 -11t-53 11t-43.5 29.5t-29.5 43.5t-11 53zM224 1493 q0 28 10.5 53.5t29 44t43.5 29.5t53 11t53 -11t43.5 -29.5t29 -44t10.5 -53.5t-10.5 -52.5t-29 -43t-43.5 -29t-53 -10.5t-53 10.5t-43.5 29t-29 43t-10.5 52.5zM381 1216q0 28 10.5 53t29 43.5t43.5 29t53 10.5t53 -10.5t43.5 -29t29 -43.5t10.5 -53t-10.5 -53t-29 -43.5 t-43.5 -29.5t-53 -11t-53 11t-43.5 29.5t-29 43.5t-10.5 53z" />
<glyph unicode="&#x62c;" horiz-adv-x="974" arabic-form="isolated" d="M39 148q-7 50 5.5 97.5t47.5 88.5q21 25 46 39.5t52 22t56 10.5t59 5h339q0 61 -17.5 101t-47.5 66t-69 42t-81.5 28.5t-85.5 26.5t-80.5 36t-66.5 56.5t-44 88.5q-9 30 -8.5 57t6.5 46t16 27.5t20 2.5q49 -32 101.5 -49t105 -27.5t104.5 -19.5t102 -25q67 -23 118 -61 t87.5 -86t59.5 -104.5t35 -116t13.5 -120t-5.5 -117.5q-3 -24 -12 -44.5t-24 -36.5t-34.5 -25t-43.5 -9h-431q-33 -1 -39.5 -15t0 -33.5t19.5 -40t19 -33.5q21 -42 33 -88t13 -93q1 -30 -3 -52.5t-10.5 -35.5t-14 -14t-13.5 11q-14 30 -44.5 59t-66.5 56q-38 29 -73.5 56.5 t-65 59.5t-50 71.5t-27.5 91.5zM501 -114q0 28 11 53t29.5 43.5t43.5 29.5t53 11t52.5 -11t43 -29.5t29 -43.5t10.5 -53t-10.5 -53t-29 -43.5t-43 -29t-52.5 -10.5t-53 10.5t-43.5 29t-29.5 43.5t-11 53z" />
<glyph unicode="&#x62c;" horiz-adv-x="987" arabic-form="final" d="M48 148q-6 50 6 97.5t46 88.5q21 25 46 39.5t52.5 22t56.5 10.5t59 5h339q-2 65 -20.5 107.5t-49 69.5t-69.5 43t-81.5 28t-84.5 25t-79 33.5t-65.5 53.5t-43.5 85q-9 30 -8 57t7 46t16 27.5t20 2.5q49 -32 101 -48.5t104.5 -27t104.5 -19.5t101 -26q75 -26 128 -73 t89 -108t56 -132t28 -144h93v-263h-629q-33 -1 -39.5 -15t-0.5 -33.5t19 -40t20 -33.5q43 -86 46 -181q1 -30 -3 -52.5t-10.5 -35.5t-13.5 -14t-13 11q-15 30 -45.5 59t-66.5 56q-38 29 -74 56.5t-65 59.5t-49.5 71.5t-27.5 91.5zM534 -114q0 28 11 53t29.5 43.5t43.5 29.5 t53 11t52.5 -11t43 -29.5t29 -43.5t10.5 -53t-10.5 -53t-29 -43.5t-43 -29t-52.5 -10.5t-53 10.5t-43.5 29t-29.5 43.5t-11 53z" />
<glyph unicode="&#x62c;" horiz-adv-x="1054" arabic-form="initial" d="M-3 148v263h586q-13 66 -38.5 108.5t-59.5 70t-73.5 43.5t-80 28.5t-79.5 25t-72 33t-57 52.5t-34 84q-6 31 -5.5 58t6.5 45.5t15 27t19 2.5q49 -32 101 -48.5t105 -27t105 -19.5t101.5 -26t95 -47t85.5 -82.5t73 -132t57 -195.5h147v-148q0 -24 -9 -44.5t-25 -36.5 t-36.5 -25t-44.5 -9h-882zM277 -114q0 28 10.5 53t29 43.5t43.5 29.5t53 11t53 -11t43.5 -29.5t29 -43.5t10.5 -53t-10.5 -53t-29 -43.5t-43.5 -29t-53 -10.5t-53 10.5t-43.5 29t-29 43.5t-10.5 53z" />
<glyph unicode="&#x62c;" horiz-adv-x="924" arabic-form="medial" d="M-3 148v263h586q-3 62 -23 102t-51 66t-70 42t-80.5 29t-83.5 26.5t-78 36t-64.5 56.5t-42.5 87q-8 30 -7.5 57t6.5 46t16 27.5t20 2.5q49 -32 101 -48.5t104.5 -27t104.5 -19.5t101.5 -26t95.5 -47t85.5 -82.5t72.5 -132t57 -195.5h90v-263h-940zM277 -114q0 28 10.5 53 t29 43.5t43.5 29.5t53 11t53 -11t43.5 -29.5t29 -43.5t10.5 -53t-10.5 -53t-29 -43.5t-43.5 -29t-53 -10.5t-53 10.5t-43.5 29t-29 43.5t-10.5 53z" />
<glyph unicode="&#x62d;" horiz-adv-x="974" arabic-form="isolated" d="M39 148q-7 50 5.5 97.5t47.5 88.5q21 25 46 39.5t52 22t56 10.5t59 5h339q0 61 -17.5 101t-47.5 66t-69 42t-81.5 28.5t-85.5 26.5t-80.5 36t-66.5 56.5t-44 88.5q-9 30 -8.5 57t6.5 46t16 27.5t20 2.5q49 -32 101.5 -49t105 -27.5t104.5 -19.5t102 -25q67 -23 118 -61 t87.5 -86t59.5 -104.5t35 -116t13.5 -120t-5.5 -117.5q-3 -24 -12 -44.5t-24 -36.5t-34.5 -25t-43.5 -9h-431q-33 -1 -39.5 -15t0 -33.5t19.5 -40t19 -33.5q21 -42 33 -88t13 -93q1 -30 -3 -52.5t-10.5 -35.5t-14 -14t-13.5 11q-14 30 -44.5 59t-66.5 56q-38 29 -73.5 56.5 t-65 59.5t-50 71.5t-27.5 91.5z" />
<glyph unicode="&#x62d;" horiz-adv-x="987" arabic-form="final" d="M48 148q-6 50 6 97.5t46 88.5q21 25 46 39.5t52.5 22t56.5 10.5t59 5h339q-2 65 -20.5 107.5t-49 69.5t-69.5 43t-81.5 28t-84.5 25t-79 33.5t-65.5 53.5t-43.5 85q-9 30 -8 57t7 46t16 27.5t20 2.5q49 -32 101 -48.5t104.5 -27t104.5 -19.5t101 -26q75 -26 128 -73 t89 -108t56 -132t28 -144h93v-263h-629q-33 -1 -39.5 -15t-0.5 -33.5t19 -40t20 -33.5q43 -86 46 -181q1 -30 -3 -52.5t-10.5 -35.5t-13.5 -14t-13 11q-15 30 -45.5 59t-66.5 56q-38 29 -74 56.5t-65 59.5t-49.5 71.5t-27.5 91.5z" />
<glyph unicode="&#x62d;" horiz-adv-x="1054" arabic-form="initial" d="M-3 148v263h586q-13 66 -38.5 108.5t-59.5 70t-73.5 43.5t-80 28.5t-79.5 25t-72 33t-57 52.5t-34 84q-6 31 -5.5 58t6.5 45.5t15 27t19 2.5q49 -32 101 -48.5t105 -27t105 -19.5t101.5 -26t95 -47t85.5 -82.5t73 -132t57 -195.5h147v-148q0 -24 -9 -44.5t-25 -36.5 t-36.5 -25t-44.5 -9h-882z" />
<glyph unicode="&#x62d;" horiz-adv-x="924" arabic-form="medial" d="M-3 148v263h586q-3 62 -23 102t-51 66t-70 42t-80.5 29t-83.5 26.5t-78 36t-64.5 56.5t-42.5 87q-8 30 -7.5 57t6.5 46t16 27.5t20 2.5q49 -32 101 -48.5t104.5 -27t104.5 -19.5t101.5 -26t95.5 -47t85.5 -82.5t72.5 -132t57 -195.5h90v-263h-940z" />
<glyph unicode="&#x62e;" horiz-adv-x="974" arabic-form="isolated" d="M39 148q-7 50 5.5 97.5t47.5 88.5q21 25 46 39.5t52 22t56 10.5t59 5h339q0 61 -17.5 101t-47.5 66t-69 42t-81.5 28.5t-85.5 26.5t-80.5 36t-66.5 56.5t-44 88.5q-9 30 -8.5 57t6.5 46t16 27.5t20 2.5q49 -32 101.5 -49t105 -27.5t104.5 -19.5t102 -25q67 -23 118 -61 t87.5 -86t59.5 -104.5t35 -116t13.5 -120t-5.5 -117.5q-3 -24 -12 -44.5t-24 -36.5t-34.5 -25t-43.5 -9h-431q-33 -1 -39.5 -15t0 -33.5t19.5 -40t19 -33.5q21 -42 33 -88t13 -93q1 -30 -3 -52.5t-10.5 -35.5t-14 -14t-13.5 11q-14 30 -44.5 59t-66.5 56q-38 29 -73.5 56.5 t-65 59.5t-50 71.5t-27.5 91.5zM260 1216q0 28 11 53t29.5 43.5t43.5 29t53 10.5t52.5 -10.5t43 -29t29 -43.5t10.5 -53t-10.5 -53t-29 -43.5t-43 -29.5t-52.5 -11t-53 11t-43.5 29.5t-29.5 43.5t-11 53z" />
<glyph unicode="&#x62e;" horiz-adv-x="987" arabic-form="final" d="M48 148q-6 50 6 97.5t46 88.5q21 25 46 39.5t52.5 22t56.5 10.5t59 5h339q-2 65 -20.5 107.5t-49 69.5t-69.5 43t-81.5 28t-84.5 25t-79 33.5t-65.5 53.5t-43.5 85q-9 30 -8 57t7 46t16 27.5t20 2.5q49 -32 101 -48.5t104.5 -27t104.5 -19.5t101 -26q75 -26 128 -73 t89 -108t56 -132t28 -144h93v-263h-629q-33 -1 -39.5 -15t-0.5 -33.5t19 -40t20 -33.5q43 -86 46 -181q1 -30 -3 -52.5t-10.5 -35.5t-13.5 -14t-13 11q-15 30 -45.5 59t-66.5 56q-38 29 -74 56.5t-65 59.5t-49.5 71.5t-27.5 91.5zM253 1216q0 28 10.5 53t29 43.5t43.5 29 t53 10.5t53 -10.5t43.5 -29t29 -43.5t10.5 -53t-10.5 -53t-29 -43.5t-43.5 -29.5t-53 -11t-53 11t-43.5 29.5t-29 43.5t-10.5 53z" />
<glyph unicode="&#x62e;" horiz-adv-x="1054" arabic-form="initial" d="M-3 148v263h586q-13 66 -38.5 108.5t-59.5 70t-73.5 43.5t-80 28.5t-79.5 25t-72 33t-57 52.5t-34 84q-6 31 -5.5 58t6.5 45.5t15 27t19 2.5q49 -32 101 -48.5t105 -27t105 -19.5t101.5 -26t95 -47t85.5 -82.5t73 -132t57 -195.5h147v-148q0 -24 -9 -44.5t-25 -36.5 t-36.5 -25t-44.5 -9h-882zM174 1216q0 28 10.5 53t29 43.5t43.5 29t53 10.5t53 -10.5t43.5 -29t29 -43.5t10.5 -53t-10.5 -53t-29 -43.5t-43.5 -29.5t-53 -11t-53 11t-43.5 29.5t-29 43.5t-10.5 53z" />
<glyph unicode="&#x62e;" horiz-adv-x="924" arabic-form="medial" d="M-3 148v263h586q-3 62 -23 102t-51 66t-70 42t-80.5 29t-83.5 26.5t-78 36t-64.5 56.5t-42.5 87q-8 30 -7.5 57t6.5 46t16 27.5t20 2.5q49 -32 101 -48.5t104.5 -27t104.5 -19.5t101.5 -26t95.5 -47t85.5 -82.5t72.5 -132t57 -195.5h90v-263h-940zM171 1216q0 28 10.5 53 t29 43.5t43.5 29t53 10.5t53 -10.5t43.5 -29t29 -43.5t10.5 -53t-10.5 -53t-29 -43.5t-43.5 -29.5t-53 -11t-53 11t-43.5 29.5t-29 43.5t-10.5 53z" />
<glyph unicode="&#x62f;" horiz-adv-x="868" arabic-form="isolated" d="M34 263v148h511v282h-145q-78 2 -137 28t-101 64q-39 35 -63.5 74t-35.5 70.5t-8.5 50t16.5 11.5q37 -16 87 -23t103.5 -9t105.5 -1.5t91 -0.5h235q24 0 44.5 -9t36 -25t24.5 -36.5t9 -44.5v-579q0 -24 -9 -44.5t-24.5 -36.5t-36 -25t-44.5 -9h-545q-24 0 -44.5 9t-36 25 t-24.5 36.5t-9 44.5z" />
<glyph unicode="&#x62f;" horiz-adv-x="900" arabic-form="final" d="M43 263v148h512v282h-144q-77 2 -135 27t-100 62q-40 35 -65 74.5t-36 72t-9 51t17 11.5q36 -16 86 -23t103.5 -9t105.5 -1.5t91 -0.5h234q24 0 44.5 -9t36.5 -25t25 -36.5t9 -44.5v-431h95v-263h-755q-23 0 -44 9t-37 25t-25 36.5t-9 44.5z" />
<glyph unicode="&#x630;" horiz-adv-x="868" arabic-form="isolated" d="M34 263v148h511v282h-145q-78 2 -137 28t-101 64q-39 35 -63.5 74t-35.5 70.5t-8.5 50t16.5 11.5q37 -16 87 -23t103.5 -9t105.5 -1.5t91 -0.5h235q24 0 44.5 -9t36 -25t24.5 -36.5t9 -44.5v-579q0 -24 -9 -44.5t-24.5 -36.5t-36 -25t-44.5 -9h-545q-24 0 -44.5 9t-36 25 t-24.5 36.5t-9 44.5zM147 1216q0 28 10.5 53t29 43.5t43.5 29t53 10.5t53 -10.5t43.5 -29t29 -43.5t10.5 -53t-10.5 -53t-29 -43.5t-43.5 -29.5t-53 -11t-53 11t-43.5 29.5t-29 43.5t-10.5 53z" />
<glyph unicode="&#x630;" horiz-adv-x="900" arabic-form="final" d="M43 263v148h512v282h-144q-77 2 -135 27t-100 62q-40 35 -65 74.5t-36 72t-9 51t17 11.5q36 -16 86 -23t103.5 -9t105.5 -1.5t91 -0.5h234q24 0 44.5 -9t36.5 -25t25 -36.5t9 -44.5v-431h95v-263h-755q-23 0 -44 9t-37 25t-25 36.5t-9 44.5zM147 1216q0 28 10.5 53 t29 43.5t43.5 29t53 10.5t53 -10.5t43.5 -29t29 -43.5t10.5 -53t-10.5 -53t-29 -43.5t-43.5 -29.5t-53 -11t-53 11t-43.5 29.5t-29 43.5t-10.5 53z" />
<glyph unicode="&#x631;" horiz-adv-x="704" arabic-form="isolated" d="M3 -186.5q1 14.5 9 35.5t24 47q19 31 43.5 54t52 42.5t56 37t55.5 35.5q23 16 44 34t37.5 41.5t28 52t16.5 65.5q4 33 6 71t0 82v546h148q24 0 44.5 -9t36.5 -25t25 -36.5t9 -44.5v-481q0 -77 -11.5 -136t-32 -104t-48.5 -77.5t-62 -56.5q-49 -34 -107 -54.5t-119 -38.5 t-121 -39.5t-113 -57.5q-11 -8 -16.5 -3t-4.5 19.5z" />
<glyph unicode="&#x631;" horiz-adv-x="713" arabic-form="final" d="M1 -186.5q1 14.5 9 35.5t24 47q19 31 44.5 54.5t53.5 43t56.5 37t55.5 36.5q22 16 42.5 34.5t37 41t27.5 51t15 64.5q4 33 6 71t0 82v546h149q24 0 44.5 -9t36 -25t24.5 -36.5t9 -44.5v-431h91v-263h-122q-17 -46 -41 -80t-54 -59.5t-64.5 -44t-71.5 -32.5 q-43 -17 -88 -30t-90 -27.5t-88.5 -33t-83.5 -44.5q-12 -8 -17.5 -3t-4.5 19.5z" />
<glyph unicode="&#x632;" horiz-adv-x="704" arabic-form="isolated" d="M3 -186.5q1 14.5 9 35.5t24 47q19 31 43.5 54t52 42.5t56 37t55.5 35.5q23 16 44 34t37.5 41.5t28 52t16.5 65.5q4 33 6 71t0 82v546h148q24 0 44.5 -9t36.5 -25t25 -36.5t9 -44.5v-481q0 -77 -11.5 -136t-32 -104t-48.5 -77.5t-62 -56.5q-49 -34 -107 -54.5t-119 -38.5 t-121 -39.5t-113 -57.5q-11 -8 -16.5 -3t-4.5 19.5zM371 1216q0 28 10.5 53t29 43.5t43 29t52.5 10.5t53 -10.5t43.5 -29t29.5 -43.5t11 -53t-11 -53t-29.5 -43.5t-43.5 -29.5t-53 -11t-52.5 11t-43 29.5t-29 43.5t-10.5 53z" />
<glyph unicode="&#x632;" horiz-adv-x="713" arabic-form="final" d="M1 -186.5q1 14.5 9 35.5t24 47q19 31 44.5 54.5t53.5 43t56.5 37t55.5 36.5q22 16 42.5 34.5t37 41t27.5 51t15 64.5q4 33 6 71t0 82v546h149q24 0 44.5 -9t36 -25t24.5 -36.5t9 -44.5v-431h91v-263h-122q-17 -46 -41 -80t-54 -59.5t-64.5 -44t-71.5 -32.5 q-43 -17 -88 -30t-90 -27.5t-88.5 -33t-83.5 -44.5q-12 -8 -17.5 -3t-4.5 19.5zM371 1216q0 28 10.5 53t29 43.5t43 29t52.5 10.5t53 -10.5t43.5 -29t29.5 -43.5t11 -53t-11 -53t-29.5 -43.5t-43.5 -29.5t-53 -11t-52.5 11t-43 29.5t-29 43.5t-10.5 53z" />
<glyph unicode="&#x633;" horiz-adv-x="1757" arabic-form="isolated" d="M40.5 299.5q4.5 7.5 13.5 8t20 -4t19 -10.5q25 -17 62 -35t80.5 -25t90.5 2t92 45q23 19 35 43.5t17 51.5t5.5 56t0.5 57v354q0 24 9 44.5t24.5 36.5t36.5 25t45 9h148v-546h215v431q0 24 9.5 44.5t25 36.5t36.5 25t45 9h147v-546h218v546h148q23 0 43.5 -9t36 -25 t24.5 -36.5t9 -44.5v-579q0 -24 -9 -44.5t-24.5 -36.5t-36 -25t-43.5 -9h-917q-23 -32 -57 -56.5t-75 -40t-87 -22t-92 -3.5q-51 4 -100 20.5t-91 47t-74 75.5t-49 105q-5 18 -0.5 25.5z" />
<glyph unicode="&#x633;" horiz-adv-x="1765" arabic-form="final" d="M34.5 299.5q4.5 7.5 13.5 8t20 -4t19 -10.5q24 -17 61 -35t80.5 -25t90.5 2t92 45q23 19 35 43.5t17.5 51.5t6 56t0.5 57v354q0 24 9 44.5t24.5 36.5t36.5 25t45 9h148v-546h215v431q0 24 9 44.5t25 36.5t36.5 25t44.5 9h147v-546h219v546h147q24 0 44.5 -9t36.5 -25 t25 -36.5t9 -44.5v-431h87v-263h-1118q-23 -32 -56.5 -55.5t-74 -39.5t-85.5 -23t-91 -4q-51 3 -100.5 19.5t-92 47t-75.5 75.5t-50 106q-5 18 -0.5 25.5z" />
<glyph unicode="&#x633;" horiz-adv-x="1363" arabic-form="initial" d="M-3 148v263h85v431q0 24 9 44.5t24.5 36.5t36.5 25t45 9h148v-546h215v431q0 24 9 44.5t25 36.5t37 25t45 9h147v-546h218v546h147q24 0 44.5 -9t36 -25t24.5 -36.5t9 -44.5v-579q0 -24 -9 -44.5t-24.5 -36.5t-36 -25t-44.5 -9h-1191z" />
<glyph unicode="&#x633;" horiz-adv-x="1383" arabic-form="medial" d="M0 148v263h86v431q0 24 9 44.5t24.5 36.5t36 25t44.5 9h149v-546h216v431q0 24 9 44.5t24.5 36.5t36.5 25t44 9h148v-546h218v546h148q23 0 44 -9t36.5 -25t24.5 -36.5t9 -44.5v-431h89v-263h-1396z" />
<glyph unicode="&#x634;" horiz-adv-x="1757" arabic-form="isolated" d="M40.5 299.5q4.5 7.5 13.5 8t20 -4t19 -10.5q25 -17 62 -35t80.5 -25t90.5 2t92 45q23 19 35 43.5t17 51.5t5.5 56t0.5 57v354q0 24 9 44.5t24.5 36.5t36.5 25t45 9h148v-546h215v431q0 24 9.5 44.5t25 36.5t36.5 25t45 9h147v-546h218v546h148q23 0 43.5 -9t36 -25 t24.5 -36.5t9 -44.5v-579q0 -24 -9 -44.5t-24.5 -36.5t-36 -25t-43.5 -9h-917q-23 -32 -57 -56.5t-75 -40t-87 -22t-92 -3.5q-51 4 -100 20.5t-91 47t-74 75.5t-49 105q-5 18 -0.5 25.5zM801 1216q0 28 11 53t29.5 43.5t43.5 29t53 10.5t53 -10.5t43.5 -29t29 -43.5 t10.5 -53t-10.5 -53t-29 -43.5t-43.5 -29.5t-53 -11t-53 11t-43.5 29.5t-29.5 43.5t-11 53zM953 1493q0 28 10.5 53.5t29 44t43 29.5t52.5 11t53 -11t43.5 -29.5t29.5 -44t11 -53.5t-11 -52.5t-29.5 -43t-43.5 -29t-53 -10.5t-52.5 10.5t-43 29t-29 43t-10.5 52.5z M1109 1216q0 28 11 53t29.5 43.5t43.5 29t53 10.5t53 -10.5t43.5 -29t29 -43.5t10.5 -53t-10.5 -53t-29 -43.5t-43.5 -29.5t-53 -11t-53 11t-43.5 29.5t-29.5 43.5t-11 53z" />
<glyph unicode="&#x634;" horiz-adv-x="1765" arabic-form="final" d="M34.5 299.5q4.5 7.5 13.5 8t20 -4t19 -10.5q24 -17 61 -35t80.5 -25t90.5 2t92 45q23 19 35 43.5t17.5 51.5t6 56t0.5 57v354q0 24 9 44.5t24.5 36.5t36.5 25t45 9h148v-546h215v431q0 24 9 44.5t25 36.5t36.5 25t44.5 9h147v-546h219v546h147q24 0 44.5 -9t36.5 -25 t25 -36.5t9 -44.5v-431h87v-263h-1118q-23 -32 -56.5 -55.5t-74 -39.5t-85.5 -23t-91 -4q-51 3 -100.5 19.5t-92 47t-75.5 75.5t-50 106q-5 18 -0.5 25.5zM801 1216q0 28 11 53t29.5 43.5t43.5 29t53 10.5t53 -10.5t43.5 -29t29 -43.5t10.5 -53t-10.5 -53t-29 -43.5 t-43.5 -29.5t-53 -11t-53 11t-43.5 29.5t-29.5 43.5t-11 53zM953 1493q0 28 10.5 53.5t29 44t43 29.5t52.5 11t53 -11t43.5 -29.5t29.5 -44t11 -53.5t-11 -52.5t-29.5 -43t-43.5 -29t-53 -10.5t-52.5 10.5t-43 29t-29 43t-10.5 52.5zM1109 1216q0 28 11 53t29.5 43.5 t43.5 29t53 10.5t53 -10.5t43.5 -29t29 -43.5t10.5 -53t-10.5 -53t-29 -43.5t-43.5 -29.5t-53 -11t-53 11t-43.5 29.5t-29.5 43.5t-11 53z" />
<glyph unicode="&#x634;" horiz-adv-x="1363" arabic-form="initial" d="M-3 148v263h85v431q0 24 9 44.5t24.5 36.5t36.5 25t45 9h148v-546h215v431q0 24 9 44.5t25 36.5t37 25t45 9h147v-546h218v546h147q24 0 44.5 -9t36 -25t24.5 -36.5t9 -44.5v-579q0 -24 -9 -44.5t-24.5 -36.5t-36 -25t-44.5 -9h-1191zM419 1216q0 28 11 53t29.5 43.5 t43.5 29t53 10.5t53 -10.5t43.5 -29t29 -43.5t10.5 -53t-10.5 -53t-29 -43.5t-43.5 -29.5t-53 -11t-53 11t-43.5 29.5t-29.5 43.5t-11 53zM571 1493q0 28 10.5 53.5t29 44t43.5 29.5t53 11t53 -11t43.5 -29.5t29 -44t10.5 -53.5t-10.5 -52.5t-29 -43t-43.5 -29t-53 -10.5 t-53 10.5t-43.5 29t-29 43t-10.5 52.5zM728 1216q0 28 10.5 53t29 43.5t43.5 29t53 10.5t53 -10.5t43.5 -29t29 -43.5t10.5 -53t-10.5 -53t-29 -43.5t-43.5 -29.5t-53 -11t-53 11t-43.5 29.5t-29 43.5t-10.5 53z" />
<glyph unicode="&#x634;" horiz-adv-x="1383" arabic-form="medial" d="M0 148v263h86v431q0 24 9 44.5t24.5 36.5t36 25t44.5 9h149v-546h216v431q0 24 9 44.5t24.5 36.5t36.5 25t44 9h148v-546h218v546h148q23 0 44 -9t36.5 -25t24.5 -36.5t9 -44.5v-431h89v-263h-1396zM419 1216q0 28 11 53t29.5 43.5t43.5 29t53 10.5t53 -10.5t43.5 -29 t29 -43.5t10.5 -53t-10.5 -53t-29 -43.5t-43.5 -29.5t-53 -11t-53 11t-43.5 29.5t-29.5 43.5t-11 53zM571 1493q0 28 10.5 53.5t29 44t43.5 29.5t53 11t53 -11t43.5 -29.5t29 -44t10.5 -53.5t-10.5 -52.5t-29 -43t-43.5 -29t-53 -10.5t-53 10.5t-43.5 29t-29 43t-10.5 52.5z M728 1216q0 28 10.5 53t29 43.5t43.5 29t53 10.5t53 -10.5t43.5 -29t29 -43.5t10.5 -53t-10.5 -53t-29 -43.5t-43.5 -29.5t-53 -11t-53 11t-43.5 29.5t-29 43.5t-10.5 53z" />
<glyph unicode="&#x635;" horiz-adv-x="1749" arabic-form="isolated" d="M39 299.5q4 7.5 13 8t20 -4t19 -10.5q25 -17 62 -35t80.5 -25t90.5 2t92 45q15 12 25.5 37t17 57t9.5 67.5t4.5 69t1.5 61.5v47v230q0 24 9 45t25 36.5t37 24.5t45 9h146v-140q21 43 48 69.5t60.5 40.5t73 18.5t85.5 4.5h570q24 0 44.5 -9t36.5 -24.5t25 -36.5t9 -45 v-579q0 -24 -9 -44.5t-25 -36.5t-36.5 -25t-44.5 -9h-940q-24 -33 -58.5 -57.5t-75 -40t-85 -21.5t-89.5 -1q-46 5 -90 22t-82 47t-67.5 74t-45.5 103q-5 18 -1 25.5zM736 411h688v284h-447q-64 -1 -111 -29t-77 -70t-43.5 -91.5t-9.5 -93.5z" />
<glyph unicode="&#x635;" horiz-adv-x="1772" arabic-form="final" d="M44 299.5q4 7.5 13 8t20.5 -4t19.5 -10.5q25 -17 62 -35t80.5 -25t90 2t91.5 45q16 12 26.5 37t16.5 57t9.5 67.5t4.5 69t1 61.5v47v230q0 24 9.5 45t25 36.5t36.5 24.5t45 9h147v-140q21 43 48 69.5t60 40.5t72.5 18.5t85.5 4.5h570q24 0 45 -9t36.5 -24.5t24.5 -36.5 t9 -45v-431h92v-263h-1146q-25 -33 -60 -58t-76.5 -40.5t-87.5 -21t-91 0.5t-88.5 23.5t-80.5 47.5t-65.5 73t-44.5 101q-5 18 -1 25.5zM742 411h688v284h-448q-57 1 -103 -26t-77 -69t-47 -92.5t-13 -96.5z" />
<glyph unicode="&#x635;" horiz-adv-x="1362" arabic-form="initial" d="M-5 148v263h92v438q0 24 9 45t24.5 36.5t36.5 24.5t45 9h148v-140q20 43 47 69.5t60.5 40.5t73 18.5t86.5 4.5h568q24 0 45 -9t36.5 -24.5t25 -36.5t9.5 -45v-579q0 -24 -9.5 -44.5t-25 -36.5t-36.5 -25t-45 -9h-1190zM350 411h688v284h-448q-60 -3 -105 -32.5 t-75.5 -71.5t-45.5 -90.5t-14 -89.5z" />
<glyph unicode="&#x635;" horiz-adv-x="1381" arabic-form="medial" d="M-3 148v263h92v438q0 24 9 45t24.5 36.5t36.5 24.5t45 9h147v-140q21 43 47.5 69.5t60 40.5t73 18.5t86.5 4.5h570q23 0 44 -9t36.5 -24.5t24.5 -36.5t9 -45v-431h92v-263h-1397zM351 411h689v284h-448q-69 -3 -115.5 -32t-74.5 -71t-40 -90.5t-11 -90.5z" />
<glyph unicode="&#x636;" horiz-adv-x="1749" arabic-form="isolated" d="M39 299.5q4 7.5 13 8t20 -4t19 -10.5q25 -17 62 -35t80.5 -25t90.5 2t92 45q15 12 25.5 37t17 57t9.5 67.5t4.5 69t1.5 61.5v47v230q0 24 9 45t25 36.5t37 24.5t45 9h146v-140q21 43 48 69.5t60.5 40.5t73 18.5t85.5 4.5h570q24 0 44.5 -9t36.5 -24.5t25 -36.5t9 -45 v-579q0 -24 -9 -44.5t-25 -36.5t-36.5 -25t-44.5 -9h-940q-24 -33 -58.5 -57.5t-75 -40t-85 -21.5t-89.5 -1q-46 5 -90 22t-82 47t-67.5 74t-45.5 103q-5 18 -1 25.5zM736 411h688v284h-447q-64 -1 -111 -29t-77 -70t-43.5 -91.5t-9.5 -93.5zM913 1216q0 28 11 53t29.5 43.5 t43.5 29t53 10.5t53 -10.5t43.5 -29t29 -43.5t10.5 -53t-10.5 -53t-29 -43.5t-43.5 -29.5t-53 -11t-53 11t-43.5 29.5t-29.5 43.5t-11 53z" />
<glyph unicode="&#x636;" horiz-adv-x="1772" arabic-form="final" d="M44 299.5q4 7.5 13 8t20.5 -4t19.5 -10.5q25 -17 62 -35t80.5 -25t90 2t91.5 45q16 12 26.5 37t16.5 57t9.5 67.5t4.5 69t1 61.5v47v230q0 24 9.5 45t25 36.5t36.5 24.5t45 9h147v-140q21 43 48 69.5t60 40.5t72.5 18.5t85.5 4.5h570q24 0 45 -9t36.5 -24.5t24.5 -36.5 t9 -45v-431h92v-263h-1146q-25 -33 -60 -58t-76.5 -40.5t-87.5 -21t-91 0.5t-88.5 23.5t-80.5 47.5t-65.5 73t-44.5 101q-5 18 -1 25.5zM742 411h688v284h-448q-57 1 -103 -26t-77 -69t-47 -92.5t-13 -96.5zM913 1216q0 28 10.5 53t29 43.5t43.5 29t53 10.5t53 -10.5 t43.5 -29t29 -43.5t10.5 -53t-10.5 -53t-29 -43.5t-43.5 -29.5t-53 -11t-53 11t-43.5 29.5t-29 43.5t-10.5 53z" />
<glyph unicode="&#x636;" horiz-adv-x="1362" arabic-form="initial" d="M-5 148v263h92v438q0 24 9 45t24.5 36.5t36.5 24.5t45 9h148v-140q20 43 47 69.5t60.5 40.5t73 18.5t86.5 4.5h568q24 0 45 -9t36.5 -24.5t25 -36.5t9.5 -45v-579q0 -24 -9.5 -44.5t-25 -36.5t-36.5 -25t-45 -9h-1190zM350 411h688v284h-448q-60 -3 -105 -32.5 t-75.5 -71.5t-45.5 -90.5t-14 -89.5zM516 1216q0 28 11 53t29.5 43.5t43 29t52.5 10.5t53 -10.5t43.5 -29t29 -43.5t10.5 -53t-10.5 -53t-29 -43.5t-43.5 -29.5t-53 -11t-52.5 11t-43 29.5t-29.5 43.5t-11 53z" />
<glyph unicode="&#x636;" horiz-adv-x="1381" arabic-form="medial" d="M-3 148v263h92v438q0 24 9 45t24.5 36.5t36.5 24.5t45 9h147v-140q21 43 47.5 69.5t60 40.5t73 18.5t86.5 4.5h570q23 0 44 -9t36.5 -24.5t24.5 -36.5t9 -45v-431h92v-263h-1397zM351 411h689v284h-448q-69 -3 -115.5 -32t-74.5 -71t-40 -90.5t-11 -90.5zM542 1216 q0 28 11 53t29.5 43.5t43.5 29t53 10.5t52.5 -10.5t43 -29t29.5 -43.5t11 -53t-11 -53t-29.5 -43.5t-43 -29.5t-52.5 -11t-53 11t-43.5 29.5t-29.5 43.5t-11 53z" />
<glyph unicode="&#x637;" horiz-adv-x="1616" arabic-form="isolated" d="M31 345.5q1 48.5 22 95.5q15 33 25 44t21 -8q12 -23 40.5 -36.5t64 -20t72 -8t65.5 -1.5v817q0 24 9 45t24.5 36.5t37 25t45.5 9.5h147v-387h836q24 0 44.5 -9t36.5 -24.5t25 -36.5t9 -45v-579q0 -24 -9 -44.5t-25 -36.5t-36.5 -25t-44.5 -9h-1182q-81 2 -131.5 32 t-74.5 75q-22 42 -21 90.5zM604 411h688v284h-688v-284z" />
<glyph unicode="&#x637;" horiz-adv-x="1637" arabic-form="final" d="M38.5 332q-2.5 55 20.5 109q15 33 25 44t21 -8q13 -23 41.5 -36.5t63.5 -20t72 -8t66 -1.5v817q0 24 9 45t24.5 36.5t36 25t44.5 9.5h148v-387h836q24 0 44.5 -9t36.5 -24.5t25 -36.5t9 -45v-431h89v-263h-1386q-70 2 -117 25.5t-74 59.5q-32 44 -34.5 99zM610 411h688 v284h-688v-284z" />
<glyph unicode="&#x637;" horiz-adv-x="1362" arabic-form="initial" d="M-5 148v263h92v817q0 24 9 45t24.5 36.5t36.5 25t45 9.5h148v-387h835q24 0 45 -9t36.5 -24.5t25 -36.5t9.5 -45v-579q0 -24 -9.5 -44.5t-25 -36.5t-36.5 -25t-45 -9h-1190zM350 411h688v284h-688v-284z" />
<glyph unicode="&#x637;" horiz-adv-x="1381" arabic-form="medial" d="M-4 148v263h92v817q0 24 9 45t24.5 36.5t36.5 25t45 9.5h147v-387h837q23 0 44 -9t36.5 -24.5t25 -36.5t9.5 -45v-431h92v-263h-1398zM350 411h689v284h-689v-284z" />
<glyph unicode="&#x638;" horiz-adv-x="1616" arabic-form="isolated" d="M31.5 336.5q-1.5 53.5 21.5 104.5q15 33 25 44t21 -8q12 -23 40.5 -36.5t64 -20t72 -8t65.5 -1.5v817q0 24 9 45t24.5 36.5t37 25t45.5 9.5h147v-387h836q24 0 44.5 -9t36.5 -24.5t25 -36.5t9 -45v-579q0 -24 -9 -44.5t-25 -36.5t-36.5 -25t-44.5 -9h-1182q-74 2 -122 27 t-74 65q-29 43 -30.5 96.5zM604 411h688v284h-688v-284zM835 1216q0 28 10.5 53t29 43.5t43.5 29t53 10.5t53 -10.5t43.5 -29t29.5 -43.5t11 -53t-11 -53t-29.5 -43.5t-43.5 -29.5t-53 -11t-53 11t-43.5 29.5t-29 43.5t-10.5 53z" />
<glyph unicode="&#x638;" horiz-adv-x="1637" arabic-form="final" d="M37.5 340.5q-0.5 50.5 21.5 100.5q15 33 25 44t21 -8q13 -23 41.5 -36.5t63.5 -20t72 -8t66 -1.5v817q0 24 9 45t24.5 36.5t36 25t44.5 9.5h148v-387h836q24 0 44.5 -9t36.5 -24.5t25 -36.5t9 -45v-431h89v-263h-1386q-77 2 -126 29.5t-74 69.5q-26 43 -26.5 93.5z M610 411h688v284h-688v-284zM835 1216q0 28 10.5 53t29 43.5t43.5 29t53 10.5t53 -10.5t43.5 -29t29.5 -43.5t11 -53t-11 -53t-29.5 -43.5t-43.5 -29.5t-53 -11t-53 11t-43.5 29.5t-29 43.5t-10.5 53z" />
<glyph unicode="&#x638;" horiz-adv-x="1362" arabic-form="initial" d="M-5 148v263h92v817q0 24 9 45t24.5 36.5t36.5 25t45 9.5h148v-387h835q24 0 45 -9t36.5 -24.5t25 -36.5t9.5 -45v-579q0 -24 -9.5 -44.5t-25 -36.5t-36.5 -25t-45 -9h-1190zM350 411h688v284h-688v-284zM567 1216q0 28 10.5 53t29 43.5t43.5 29t53 10.5t53 -10.5 t43.5 -29t29.5 -43.5t11 -53t-11 -53t-29.5 -43.5t-43.5 -29.5t-53 -11t-53 11t-43.5 29.5t-29 43.5t-10.5 53z" />
<glyph unicode="&#x638;" horiz-adv-x="1381" arabic-form="medial" d="M-4 148v263h92v817q0 24 9 45t24.5 36.5t36.5 25t45 9.5h147v-387h837q23 0 44 -9t36.5 -24.5t25 -36.5t9.5 -45v-431h92v-263h-1398zM350 411h689v284h-689v-284zM567 1216q0 28 10.5 53t29 43.5t43.5 29t53 10.5t53 -10.5t43.5 -29t29.5 -43.5t11 -53t-11 -53 t-29.5 -43.5t-43.5 -29.5t-53 -11t-53 11t-43.5 29.5t-29 43.5t-10.5 53z" />
<glyph unicode="&#x639;" horiz-adv-x="1072" arabic-form="isolated" d="M45 148q-6 50 5.5 97.5t46.5 88.5q23 26 54 44t87 29v435q0 24 9 44.5t24.5 36.5t36 25t43.5 9h235q40 1 91.5 0.5t105 1.5t104 9t87.5 23q14 6 16 -13t-10 -51.5t-37.5 -72.5t-67 -75.5t-99 -59.5t-132.5 -26h-145v-282h512v-148q0 -24 -9 -44.5t-24.5 -36.5t-36.5 -25 t-45 -9h-528q-33 -1 -39.5 -15t-0.5 -33.5t19 -40t19 -33.5q21 -42 33.5 -88t13.5 -93q0 -30 -4 -52.5t-10.5 -35.5t-14 -14t-13.5 11q-14 30 -44 59t-66 56q-38 29 -74 56.5t-65.5 59.5t-50 71.5t-26.5 91.5z" />
<glyph unicode="&#x639;" horiz-adv-x="1041" arabic-form="final" d="M39 148q-7 50 5 97.5t47 88.5q29 34 69 51.5t84 21.5q-28 49 -48.5 116.5t-32.5 139t-16 139.5t1 119t19 77t37 13q35 -20 85 -30.5t104 -15.5t106 -6t92 -2h183q55 0 91 -12t59 -35q28 -28 36 -68.5t2 -87.5t-23 -96.5t-37.5 -95.5t-41.5 -85.5t-35 -65.5h229v-263h-692 q-22 -1 -31.5 -7.5t-11 -17t3 -23.5t12 -26.5t15 -26t11.5 -21.5q20 -42 32 -88t14 -93q1 -30 -3 -52.5t-10.5 -35.5t-14 -14t-13.5 11q-14 30 -44.5 59t-66.5 56q-38 29 -74 56.5t-65.5 59.5t-50 71.5t-26.5 91.5zM420 712q-2 -41 8.5 -83.5t28 -82t38.5 -74t39 -61.5 q44 61 81.5 129t60.5 153h-144q-30 1 -58 6t-54 13z" />
<glyph unicode="&#x639;" horiz-adv-x="929" arabic-form="initial" d="M0 148v263h95v431q0 24 9 44.5t25 36.5t37 25t45 9h233q39 1 90.5 0.5t105.5 1.5t104.5 9t86.5 23q14 6 16.5 -13t-9 -51.5t-37.5 -72.5t-67.5 -75.5t-99 -59.5t-132.5 -26h-144v-282h510v-148q0 -24 -9 -44.5t-24 -36.5t-36 -25t-45 -9h-754z" />
<glyph unicode="&#x639;" horiz-adv-x="981" arabic-form="medial" d="M-4 148v263h188q-28 49 -48.5 116t-32.5 138t-16 138.5t0.5 118t18.5 76.5t37 13q35 -20 85 -30.5t104 -15.5t106.5 -6t92.5 -2h183q63 0 102 -16t60 -44q23 -30 27.5 -70.5t-3 -86.5t-24.5 -93.5t-37 -91.5t-40 -81.5t-34 -62.5h229v-263h-998zM361 712 q-2 -41 8.5 -83.5t27.5 -82t38 -74t39 -61.5q44 61 82 129t61 153h-145q-31 1 -59 6t-52 13z" />
<glyph unicode="&#x63a;" horiz-adv-x="1072" arabic-form="isolated" d="M45 148q-6 50 5.5 97.5t46.5 88.5q23 26 54 44t87 29v435q0 24 9 44.5t24.5 36.5t36 25t43.5 9h235q40 1 91.5 0.5t105 1.5t104 9t87.5 23q14 6 16 -13t-10 -51.5t-37.5 -72.5t-67 -75.5t-99 -59.5t-132.5 -26h-145v-282h512v-148q0 -24 -9 -44.5t-24.5 -36.5t-36.5 -25 t-45 -9h-528q-33 -1 -39.5 -15t-0.5 -33.5t19 -40t19 -33.5q21 -42 33.5 -88t13.5 -93q0 -30 -4 -52.5t-10.5 -35.5t-14 -14t-13.5 11q-14 30 -44 59t-66 56q-38 29 -74 56.5t-65.5 59.5t-50 71.5t-26.5 91.5zM449 1216q0 28 11 53t29.5 43.5t43.5 29t53 10.5t52.5 -10.5 t43 -29t29 -43.5t10.5 -53t-10.5 -53t-29 -43.5t-43 -29.5t-52.5 -11t-53 11t-43.5 29.5t-29.5 43.5t-11 53z" />
<glyph unicode="&#x63a;" horiz-adv-x="1041" arabic-form="final" d="M39 148q-7 50 5 97.5t47 88.5q29 34 69 51.5t84 21.5q-28 49 -48.5 116.5t-32.5 139t-16 139.5t1 119t19 77t37 13q35 -20 85 -30.5t104 -15.5t106 -6t92 -2h183q55 0 91 -12t59 -35q28 -28 36 -68.5t2 -87.5t-23 -96.5t-37.5 -95.5t-41.5 -85.5t-35 -65.5h229v-263h-692 q-22 -1 -31.5 -7.5t-11 -17t3 -23.5t12 -26.5t15 -26t11.5 -21.5q20 -42 32 -88t14 -93q1 -30 -3 -52.5t-10.5 -35.5t-14 -14t-13.5 11q-14 30 -44.5 59t-66.5 56q-38 29 -74 56.5t-65.5 59.5t-50 71.5t-26.5 91.5zM398 1216q0 28 10.5 53t29 43.5t43.5 29t53 10.5t53 -10.5 t43.5 -29t29.5 -43.5t11 -53t-11 -53t-29.5 -43.5t-43.5 -29.5t-53 -11t-53 11t-43.5 29.5t-29 43.5t-10.5 53zM420 712q-2 -41 8.5 -83.5t28 -82t38.5 -74t39 -61.5q44 61 81.5 129t60.5 153h-144q-30 1 -58 6t-54 13z" />
<glyph unicode="&#x63a;" horiz-adv-x="929" arabic-form="initial" d="M0 148v263h95v431q0 24 9 44.5t25 36.5t37 25t45 9h233q39 1 90.5 0.5t105.5 1.5t104.5 9t86.5 23q14 6 16.5 -13t-9 -51.5t-37.5 -72.5t-67.5 -75.5t-99 -59.5t-132.5 -26h-144v-282h510v-148q0 -24 -9 -44.5t-24 -36.5t-36 -25t-45 -9h-754zM324 1216q0 28 10.5 53 t29 43.5t43 29t52.5 10.5t53 -10.5t43.5 -29t29.5 -43.5t11 -53t-11 -53t-29.5 -43.5t-43.5 -29.5t-53 -11t-52.5 11t-43 29.5t-29 43.5t-10.5 53z" />
<glyph unicode="&#x63a;" horiz-adv-x="981" arabic-form="medial" d="M-4 148v263h188q-28 49 -48.5 116t-32.5 138t-16 138.5t0.5 118t18.5 76.5t37 13q35 -20 85 -30.5t104 -15.5t106.5 -6t92.5 -2h183q63 0 102 -16t60 -44q23 -30 27.5 -70.5t-3 -86.5t-24.5 -93.5t-37 -91.5t-40 -81.5t-34 -62.5h229v-263h-998zM339 1216q0 28 10.5 53 t29 43.5t43.5 29t53 10.5t53 -10.5t43.5 -29t29.5 -43.5t11 -53t-11 -53t-29.5 -43.5t-43.5 -29.5t-53 -11t-53 11t-43.5 29.5t-29 43.5t-10.5 53zM361 712q-2 -41 8.5 -83.5t27.5 -82t38 -74t39 -61.5q44 61 82 129t61 153h-145q-31 1 -59 6t-52 13z" />
<glyph unicode="&#x641;" horiz-adv-x="1294" arabic-form="isolated" d="M38.5 341q-0.5 51 21.5 100q14 33 24.5 44t20.5 -8q14 -26 47.5 -39.5t73 -19.5t79 -6.5t66.5 -0.5h120v431q0 24 9 44.5t24.5 36.5t36.5 25t45 9h513q23 0 44 -9t36.5 -25t24.5 -36.5t9 -44.5v-579q0 -24 -9 -44.5t-24.5 -36.5t-36.5 -25t-44 -9h-855q-77 2 -126.5 29.5 t-74 70t-25 93.5zM728 1216q0 28 10.5 53t29 43.5t43.5 29t53 10.5t53 -10.5t43.5 -29t29 -43.5t10.5 -53t-10.5 -53t-29 -43.5t-43.5 -29.5t-53 -11t-53 11t-43.5 29.5t-29 43.5t-10.5 53zM753 411h217v282h-217v-282z" />
<glyph unicode="&#x641;" horiz-adv-x="1311" arabic-form="final" d="M32.5 341q-0.5 51 21.5 100q15 33 25 44t21 -8q14 -26 47 -39.5t73 -19.5t79.5 -6.5t66.5 -0.5h119v431q0 24 9 44.5t25 36.5t36.5 25t44.5 9h513q23 0 44 -9t36.5 -25t25 -36.5t9.5 -44.5v-431h96v-263h-1066q-77 2 -126.5 29.5t-74 70t-25 93.5zM724 1216q0 28 11 53 t29.5 43.5t43 29t52.5 10.5t53 -10.5t43.5 -29t29.5 -43.5t11 -53t-11 -53t-29.5 -43.5t-43.5 -29.5t-53 -11t-52.5 11t-43 29.5t-29.5 43.5t-11 53zM747 411h218v282h-218v-282z" />
<glyph unicode="&#x641;" horiz-adv-x="892" arabic-form="initial" d="M-3 148v263h92v431q0 24 9 44.5t25 36.5t36.5 25t44.5 9h512q24 0 45 -9t36.5 -25t24.5 -36.5t9 -44.5v-579q0 -24 -9 -44.5t-24.5 -36.5t-36.5 -25t-45 -9h-719zM326 1216q0 28 10.5 53t29 43.5t43.5 29t53 10.5t53 -10.5t43.5 -29t29.5 -43.5t11 -53t-11 -53 t-29.5 -43.5t-43.5 -29.5t-53 -11t-53 11t-43.5 29.5t-29 43.5t-10.5 53zM351 411h218v282h-218v-282z" />
<glyph unicode="&#x641;" horiz-adv-x="909" arabic-form="medial" d="M0 148v263h90v431q0 24 9 44.5t25 36.5t36.5 25t44.5 9h514q23 0 44 -9t36.5 -25t24.5 -36.5t9 -44.5v-431h89v-263h-922zM326 1216q0 28 10.5 53t29 43.5t43.5 29t53 10.5t53 -10.5t43.5 -29t29.5 -43.5t11 -53t-11 -53t-29.5 -43.5t-43.5 -29.5t-53 -11t-53 11 t-43.5 29.5t-29 43.5t-10.5 53zM353 411h217v282h-217v-282z" />
<glyph unicode="&#x642;" horiz-adv-x="1107" arabic-form="isolated" d="M35.5 341q-0.5 51 21.5 100q15 33 25.5 44t21.5 -8q10 -20 31.5 -32t49.5 -19t59 -10t60 -4v430q0 24 9 44.5t24.5 36.5t36 25t44.5 9h513q24 0 44.5 -9t36.5 -25t25 -36.5t9 -44.5v-579q0 -24 -9 -44.5t-25 -36.5t-36.5 -25t-44.5 -9h-669q-77 2 -126.5 29.5t-74.5 70 t-25.5 93.5zM374 1216q0 28 11 53t29.5 43.5t43.5 29t53 10.5t52.5 -10.5t43 -29t29 -43.5t10.5 -53t-10.5 -53t-29 -43.5t-43 -29.5t-52.5 -11t-53 11t-43.5 29.5t-29.5 43.5t-11 53zM565 411h218v282h-218v-282zM682 1216q0 28 11 53t29.5 43.5t43.5 29t53 10.5 t52.5 -10.5t43 -29t29 -43.5t10.5 -53t-10.5 -53t-29 -43.5t-43 -29.5t-52.5 -11t-53 11t-43.5 29.5t-29.5 43.5t-11 53z" />
<glyph unicode="&#x642;" horiz-adv-x="1131" arabic-form="final" d="M37.5 341q-0.5 51 20.5 100q15 33 25 44t21 -8q10 -20 32 -32t50 -19t58.5 -10t59.5 -4v430q0 24 9 44.5t25 36.5t36.5 25t44.5 9h513q23 0 44 -9t36.5 -25t25 -36.5t9.5 -44.5v-431h97v-263h-881q-77 2 -126.5 29.5t-74 70t-25 93.5zM388 1216q0 28 11 53t29.5 43.5 t43.5 29t53 10.5t52.5 -10.5t43 -29t29 -43.5t10.5 -53t-10.5 -53t-29 -43.5t-43 -29.5t-52.5 -11t-53 11t-43.5 29.5t-29.5 43.5t-11 53zM566 411h218v282h-218v-282zM697 1216q0 28 10.5 53t29 43.5t43.5 29t53 10.5t52.5 -10.5t43 -29t29.5 -43.5t11 -53t-11 -53 t-29.5 -43.5t-43 -29.5t-52.5 -11t-53 11t-43.5 29.5t-29 43.5t-10.5 53z" />
<glyph unicode="&#x642;" horiz-adv-x="892" arabic-form="initial" d="M-3 148v263h92v431q0 24 9 44.5t25 36.5t36.5 25t44.5 9h512q24 0 45 -9t36.5 -25t24.5 -36.5t9 -44.5v-579q0 -24 -9 -44.5t-24.5 -36.5t-36.5 -25t-45 -9h-719zM184 1216q0 28 10.5 53t29 43.5t43.5 29t53 10.5t53 -10.5t43.5 -29t29.5 -43.5t11 -53t-11 -53 t-29.5 -43.5t-43.5 -29.5t-53 -11t-53 11t-43.5 29.5t-29 43.5t-10.5 53zM351 411h218v282h-218v-282zM492 1216q0 28 10.5 53t29 43.5t43.5 29t53 10.5t53 -10.5t43.5 -29t29.5 -43.5t11 -53t-11 -53t-29.5 -43.5t-43.5 -29.5t-53 -11t-53 11t-43.5 29.5t-29 43.5t-10.5 53 z" />
<glyph unicode="&#x642;" horiz-adv-x="909" arabic-form="medial" d="M0 148v263h90v431q0 24 9 44.5t25 36.5t36.5 25t44.5 9h514q23 0 44 -9t36.5 -25t24.5 -36.5t9 -44.5v-431h89v-263h-922zM168 1216q0 28 11 53t29.5 43.5t43 29t52.5 10.5t53 -10.5t43.5 -29t29.5 -43.5t11 -53t-11 -53t-29.5 -43.5t-43.5 -29.5t-53 -11t-52.5 11 t-43 29.5t-29.5 43.5t-11 53zM353 411h217v282h-217v-282zM477 1216q0 28 10.5 53t29 43.5t43 29t52.5 10.5t53 -10.5t43.5 -29t29.5 -43.5t11 -53t-11 -53t-29.5 -43.5t-43.5 -29.5t-53 -11t-52.5 11t-43 29.5t-29 43.5t-10.5 53z" />
<glyph unicode="&#x643;" horiz-adv-x="1308" arabic-form="isolated" d="M32.5 341q-0.5 51 21.5 100q15 33 25 44t20 -8q14 -26 47.5 -39.5t73 -19.5t79.5 -6.5t67 -0.5h618v209h-572q-29 -1 -57.5 4t-51.5 19.5t-37.5 40.5t-14.5 66v153q0 48 22.5 86t57.5 69.5t77.5 58.5t82 52.5t71.5 51.5t46 56q8 16 18 8.5t16.5 -33t6.5 -66.5 q0 -40 -12.5 -89.5t-40.5 -104.5t-76 -109h612q24 0 44.5 -9t36.5 -25t25 -37t9 -45v-504q0 -24 -9 -44.5t-25 -36.5t-36.5 -25t-44.5 -9h-874q-77 2 -126.5 29.5t-74 70t-25 93.5z" />
<glyph unicode="&#x643;" horiz-adv-x="1336" arabic-form="final" d="M40.5 341q-0.5 51 21.5 100q16 33 26 44t21 -8q13 -26 46 -39.5t73 -19.5t79.5 -6.5t66.5 -0.5h618v209h-572q-28 -1 -56.5 4t-52 19.5t-38 40.5t-14.5 66v153q0 48 22.5 86t57.5 69.5t77.5 58.5t82.5 52.5t72 51.5t46 56q8 16 18 8.5t16.5 -33t6 -66t-13 -90t-40 -104.5 t-76.5 -109h612q24 0 44.5 -9t36.5 -25t25 -37t9 -45v-356h94v-263h-1083q-77 2 -126.5 29.5t-74 70t-25 93.5z" />
<glyph unicode="&#x643;" horiz-adv-x="1143" arabic-form="initial" d="M-6 148v263h826v209h-571q-29 -1 -58 4t-52 19.5t-37.5 40.5t-14.5 66v153q0 48 22.5 86t57.5 69.5t77.5 58.5t82 52.5t72 51.5t46.5 56q8 16 18 8.5t16 -33t6 -66.5q0 -40 -12.5 -89.5t-40 -104.5t-76.5 -109h611q24 0 44.5 -9t36.5 -25t25 -37t9 -45v-504 q0 -24 -9 -44.5t-25 -36.5t-36.5 -25t-44.5 -9h-973z" />
<glyph unicode="&#x643;" horiz-adv-x="1161" arabic-form="medial" d="M-4 148v263h824v209h-571q-29 -1 -58 4t-52 19.5t-37.5 40.5t-14.5 66v153q0 48 22.5 86t57.5 69.5t77.5 58.5t82 52.5t72 51.5t46.5 56q8 16 18 8.5t16.5 -33t6 -66t-13 -90t-40 -104.5t-76.5 -109h612q24 0 44.5 -9t36 -25t24.5 -37t9 -45v-356h92v-263h-1178z" />
<glyph unicode="&#x644;" horiz-adv-x="847" arabic-form="isolated" d="M43 263v579q0 24 9 44.5t25 36.5t37 25t44 9h148v-546h218v933h147q24 0 44.5 -9.5t36.5 -25t25 -36.5t9 -45v-965q0 -24 -9 -44.5t-25 -36.5t-36.5 -25t-44.5 -9h-513q-23 0 -44 9t-37 25t-25 36.5t-9 44.5z" />
<glyph unicode="&#x644;" horiz-adv-x="865" arabic-form="final" d="M41 263v579q0 24 9 44.5t25 36.5t36.5 25t44.5 9h148v-546h217v933h148q24 0 44.5 -9.5t36 -25t24.5 -36.5t9 -45v-817h95v-263h-722q-24 0 -44.5 9t-36.5 25t-25 36.5t-9 44.5z" />
<glyph unicode="&#x644;" horiz-adv-x="416" arabic-form="initial" d="M-3 148v263h96v933h148q24 0 44.5 -9.5t36 -25t24.5 -36.5t9 -45v-965q0 -24 -9 -44.5t-24.5 -36.5t-36 -25t-44.5 -9h-244z" />
<glyph unicode="&#x644;" horiz-adv-x="432" arabic-form="medial" d="M-3 148v263h96v817q0 24 9 45t24.5 36.5t36 25t44.5 9.5h148v-933h90v-263h-448z" />
<glyph unicode="&#x645;" horiz-adv-x="1057" arabic-form="isolated" d="M30 148q-5 50 6.5 97.5t46.5 88.5q13 15 27.5 27t34.5 21.5t46.5 16.5t62.5 12v431q0 24 9 44.5t24.5 36.5t36 25t44.5 9h513q24 0 44.5 -9t36.5 -25t25 -36.5t9 -44.5v-579q0 -24 -9 -44.5t-25 -36.5t-36.5 -25t-44.5 -9h-527q-33 -1 -40 -15t-1 -33.5t19 -40t20 -33.5 q20 -42 33 -88t13 -93q1 -30 -3 -52.5t-10.5 -35.5t-13.5 -14t-13 11q-14 30 -45 59t-66 56q-38 29 -74 56.5t-65.5 59.5t-50 71.5t-27.5 91.5zM516 411h217v282h-217v-282z" />
<glyph unicode="&#x645;" horiz-adv-x="1079" arabic-form="final" d="M33 148q-7 50 5.5 97.5t47.5 88.5q13 15 27.5 27t34.5 21.5t46.5 16.5t62.5 12v431q0 24 9 44.5t24 36.5t36 25t45 9h514q23 0 44 -9t36.5 -25t24.5 -36.5t9 -44.5v-431h93v-263h-736q-22 -1 -31.5 -7.5t-11 -17t3 -23.5t12 -26.5t15 -26t11.5 -21.5q20 -42 32.5 -88 t13.5 -93q1 -30 -3 -52.5t-10 -35.5t-13.5 -14t-13.5 11q-15 30 -45.5 59t-65.5 56q-38 29 -74 56.5t-66 59.5t-50.5 71.5t-26.5 91.5zM519 411h217v282h-217v-282z" />
<glyph unicode="&#x645;" horiz-adv-x="892" arabic-form="initial" d="M-3 148v263h92v431q0 24 9 44.5t25 36.5t36.5 25t44.5 9h512q24 0 45 -9t36.5 -25t24.5 -36.5t9 -44.5v-579q0 -24 -9 -44.5t-24.5 -36.5t-36.5 -25t-45 -9h-719zM351 411h218v282h-218v-282z" />
<glyph unicode="&#x645;" horiz-adv-x="909" arabic-form="medial" d="M0 148v263h90v431q0 24 9 44.5t25 36.5t36.5 25t44.5 9h514q23 0 44 -9t36.5 -25t24.5 -36.5t9 -44.5v-431h89v-263h-922zM353 411h217v282h-217v-282z" />
<glyph unicode="&#x646;" horiz-adv-x="852" arabic-form="isolated" d="M49 263v579q0 24 9 44.5t24.5 36.5t36.5 25t45 9h148v-546h217v546h148q24 0 44.5 -9t36 -25t24.5 -36.5t9 -44.5v-579q0 -24 -9 -44.5t-24.5 -36.5t-36 -25t-44.5 -9h-513q-24 0 -45 9t-36.5 25t-24.5 36.5t-9 44.5zM284 1216q0 28 10.5 53t29 43.5t43.5 29t53 10.5 t53 -10.5t43.5 -29t29.5 -43.5t11 -53t-11 -53t-29.5 -43.5t-43.5 -29.5t-53 -11t-53 11t-43.5 29.5t-29 43.5t-10.5 53z" />
<glyph unicode="&#x646;" horiz-adv-x="869" arabic-form="final" d="M52 263v579q0 24 9 44.5t25 36.5t37 25t45 9h148v-546h216v546h149q24 0 44.5 -9t35.5 -25t24 -36.5t9 -44.5v-431h88v-263h-714q-24 0 -45 9t-37 25t-25 36.5t-9 44.5zM288 1216q0 28 11 53t29.5 43.5t43.5 29t53 10.5t52.5 -10.5t43 -29t29 -43.5t10.5 -53t-10.5 -53 t-29 -43.5t-43 -29.5t-52.5 -11t-53 11t-43.5 29.5t-29.5 43.5t-11 53z" />
<glyph unicode="&#x646;" horiz-adv-x="405" arabic-form="initial" d="M-5 148v263h88v546h148q23 0 44 -9t36.5 -25t24.5 -36.5t9 -44.5v-579q0 -24 -9 -44.5t-24.5 -36.5t-36.5 -25t-44 -9h-236zM64 1216q0 28 10.5 53t29 43.5t43.5 29t53 10.5t53 -10.5t43.5 -29t29.5 -43.5t11 -53t-11 -53t-29.5 -43.5t-43.5 -29.5t-53 -11t-53 11 t-43.5 29.5t-29 43.5t-10.5 53z" />
<glyph unicode="&#x646;" horiz-adv-x="432" arabic-form="medial" d="M0 148v263h92v431q0 24 9 44.5t25 36.5t36.5 25t44.5 9h148v-546h90v-263h-445zM84 1216q0 28 10.5 53t29 43.5t43.5 29t53 10.5t53 -10.5t43.5 -29t29 -43.5t10.5 -53t-10.5 -53t-29 -43.5t-43.5 -29.5t-53 -11t-53 11t-43.5 29.5t-29 43.5t-10.5 53z" />
<glyph unicode="&#x647;" horiz-adv-x="857" arabic-form="isolated" d="M53 263v579q0 24 9 44.5t25 36.5t36.5 25t44.5 9h513q24 0 45 -9t36.5 -25t24.5 -36.5t9 -44.5v-579q0 -24 -9 -44.5t-24.5 -36.5t-36.5 -25t-45 -9h-513q-24 0 -44.5 9t-36.5 25t-25 36.5t-9 44.5zM317 411h216v282h-216v-282z" />
<glyph unicode="&#x647;" horiz-adv-x="873" arabic-form="final" d="M50 461v381q0 24 9 44.5t24.5 36.5t36.5 25t44 9h514q24 0 44.5 -9t36.5 -25t25 -36.5t9 -44.5v-431h93v-263h-242q-24 0 -44.5 9t-35.5 25t-23.5 36.5t-8.5 44.5l-1 430h-219v-106q1 -37 5 -59.5t12 -41t20.5 -38t31.5 -50.5q30 -50 48 -106t20 -115q1 -29 -3 -51.5 t-10 -35.5t-13.5 -14.5t-13.5 10.5q-11 23 -33 43.5t-50 40t-60 39t-63 40.5q-30 20 -57.5 42.5t-49 48.5t-34 56t-12.5 65z" />
<glyph unicode="&#x647;" horiz-adv-x="1525" arabic-form="initial" d="M-3 148v263h94v431q0 24 9 44.5t25 36.5t37 25t44 9h363q-3 27 -0.5 49t8.5 37t14 21.5t17 0.5q49 -32 100.5 -52t103.5 -35.5t102.5 -31.5t99 -40t93 -61t83.5 -94.5t71 -140.5t56 -199h147v-148q0 -24 -9 -44.5t-24.5 -36.5t-36.5 -25t-45 -9h-1352zM354 411h218v282 h-218v-282zM834 411h220q-12 60 -34 103.5t-51.5 75.5t-64 55t-70.5 42v-276z" />
<glyph unicode="&#x647;" horiz-adv-x="1395" arabic-form="medial" d="M-3 148v263h94v431q0 24 9 44.5t25 36.5t37 25t44 9h363q-3 27 -0.5 49t8.5 37t14 21.5t17 0.5q49 -32 100.5 -52t103.5 -35.5t102.5 -31.5t99 -40t93 -61t83.5 -94.5t71 -140.5t56 -199h92v-263h-1412zM354 411h218v282h-218v-282zM834 411h220q-12 60 -34 103.5 t-51.5 75.5t-64 55t-70.5 42v-276z" />
<glyph unicode="&#x648;" horiz-adv-x="853" arabic-form="isolated" d="M50 263v579q0 24 9 44.5t24.5 36.5t36 25t44.5 9h513q24 0 44.5 -9t36.5 -25t25 -36.5t9 -44.5v-481q0 -94 -16.5 -161.5t-45.5 -115.5t-68.5 -79.5t-86 -53.5t-97 -37.5t-102.5 -31t-102 -35.5t-95 -50q-11 -8 -16.5 -3t-4.5 19.5t9 35.5t24 47q19 31 44 54t52.5 42 t56.5 36t56.5 34.5t52 38t44.5 47.5h-333q-24 0 -44.5 9t-36 25t-24.5 36.5t-9 44.5zM312 411h218v282h-218v-282z" />
<glyph unicode="&#x648;" horiz-adv-x="885" arabic-form="final" d="M59 263v579q0 24 9 44.5t24.5 36.5t36.5 25t45 9h512q24 0 45 -9t36.5 -25t24.5 -36.5t9 -44.5v-431h97v-263h-128q-24 -66 -62.5 -108t-86.5 -70t-103 -46t-111.5 -35t-112.5 -38t-105 -54q-12 -8 -17.5 -3t-4.5 19.5t9 35.5t24 47q19 31 44 54t52.5 42t56.5 36 t56.5 34.5t52 38t44.5 47.5h-332q-24 0 -45 9t-36.5 25t-24.5 36.5t-9 44.5zM322 411h217v282h-217v-282z" />
<glyph unicode="&#x649;" horiz-adv-x="1115" arabic-form="isolated" d="M50 267v408q0 24 9 45t24.5 36.5t36 24.5t44.5 9h147v-376h481v153h-165q-29 -1 -57.5 4t-52 19.5t-38 40t-14.5 65.5v153q0 48 22.5 86.5t58 70t78 58t82 52t72 51.5t46.5 56q8 16 18 8.5t16 -33t6 -66.5q0 -40 -12.5 -89.5t-40 -104.5t-76.5 -109h205q23 0 44 -9.5 t36.5 -25t24.5 -36.5t9 -44v-447q0 -24 -9 -44.5t-24.5 -36.5t-36.5 -25t-44 -9h-776q-24 0 -44.5 9t-36 25t-24.5 36.5t-9 44.5z" />
<glyph unicode="&#x649;" horiz-adv-x="1583" arabic-form="final" d="M52 567q0 23 9 44t25 36.5t36.5 25t44.5 9.5h147v-182q-4 -57 11.5 -102t44 -77t67 -51t79.5 -24.5t82 2t75 29.5t58 58t31 86l-1 421q0 24 9 44.5t24.5 36.5t36.5 25t44 9h514q24 0 44.5 -9t36.5 -25t25 -36.5t9 -44.5v-431h92v-263h-241q-24 0 -44.5 9t-36 25t-24 36.5 t-8.5 44.5l-1 430h-218l1 -272q-6 -101 -48.5 -182t-109.5 -137.5t-152 -87t-175 -31t-178.5 30t-163.5 96.5q-56 49 -85.5 101.5t-43 109t-15 118t-1.5 128.5z" />
<glyph unicode="&#x64a;" horiz-adv-x="1115" arabic-form="isolated" d="M50 267v408q0 24 9 45t24.5 36.5t36 24.5t44.5 9h147v-376h481v153h-165q-29 -1 -57.5 4t-52 19.5t-38 40t-14.5 65.5v153q0 48 22.5 86.5t58 70t78 58t82 52t72 51.5t46.5 56q8 16 18 8.5t16 -33t6 -66.5q0 -40 -12.5 -89.5t-40 -104.5t-76.5 -109h205q23 0 44 -9.5 t36.5 -25t24.5 -36.5t9 -44v-447q0 -24 -9 -44.5t-24.5 -36.5t-36.5 -25t-44 -9h-776q-24 0 -44.5 9t-36 25t-24.5 36.5t-9 44.5zM252 -89q0 28 11 53t29.5 43.5t43.5 29.5t53 11t53 -11t43.5 -29.5t29 -43.5t10.5 -53t-10.5 -53t-29 -43.5t-43.5 -29t-53 -10.5t-53 10.5 t-43.5 29t-29.5 43.5t-11 53zM561 -89q0 28 10.5 53t29 43.5t43.5 29.5t53 11t53 -11t43.5 -29.5t29 -43.5t10.5 -53t-10.5 -53t-29 -43.5t-43.5 -29t-53 -10.5t-53 10.5t-43.5 29t-29 43.5t-10.5 53z" />
<glyph unicode="&#x64a;" horiz-adv-x="1583" arabic-form="final" d="M52 567q0 23 9 44t25 36.5t36.5 25t44.5 9.5h147v-182q-4 -57 11.5 -102t44 -77t67 -51t79.5 -24.5t82 2t75 29.5t58 58t31 86l-1 421q0 24 9 44.5t24.5 36.5t36.5 25t44 9h514q24 0 44.5 -9t36.5 -25t25 -36.5t9 -44.5v-431h92v-263h-241q-24 0 -44.5 9t-36 25t-24 36.5 t-8.5 44.5l-1 430h-218l1 -272q-6 -101 -48.5 -182t-109.5 -137.5t-152 -87t-175 -31t-178.5 30t-163.5 96.5q-56 49 -85.5 101.5t-43 109t-15 118t-1.5 128.5zM247 -216q0 28 10.5 53t29 43.5t43.5 29t53 10.5t53 -10.5t43.5 -29t29 -43.5t10.5 -53t-10.5 -53t-29 -43.5 t-43.5 -29.5t-53 -11t-53 11t-43.5 29.5t-29 43.5t-10.5 53zM555 -216q0 28 11 53t29.5 43.5t43.5 29t53 10.5t52.5 -10.5t43 -29t29 -43.5t10.5 -53t-10.5 -53t-29 -43.5t-43 -29.5t-52.5 -11t-53 11t-43.5 29.5t-29.5 43.5t-11 53z" />
<glyph unicode="&#x64a;" horiz-adv-x="676" arabic-form="initial" d="M-8 148v263h351v546h147q24 0 44.5 -9t36.5 -25t25 -36.5t9 -44.5v-579q0 -24 -9 -44.5t-25 -36.5t-36.5 -25t-44.5 -9h-498zM35 -114q0 28 10.5 53t29 43.5t43.5 29.5t53 11t52.5 -11t43 -29.5t29.5 -43.5t11 -53t-11 -53t-29.5 -43.5t-43 -29t-52.5 -10.5t-53 10.5 t-43.5 29t-29 43.5t-10.5 53zM343 -114q0 28 10.5 53t29 43.5t43 29.5t52.5 11t53 -11t43.5 -29.5t29.5 -43.5t11 -53t-11 -53t-29.5 -43.5t-43.5 -29t-53 -10.5t-52.5 10.5t-43 29t-29 43.5t-10.5 53z" />
<glyph unicode="&#x64a;" horiz-adv-x="673" arabic-form="medial" d="M-3 148v263h236v431q0 24 9 44.5t25 36.5t37 25t45 9h147v-546h190v-263h-689zM46 -114q0 28 11 53t29.5 43.5t43.5 29.5t53 11t52.5 -11t43 -29.5t29 -43.5t10.5 -53t-10.5 -53t-29 -43.5t-43 -29t-52.5 -10.5t-53 10.5t-43.5 29t-29.5 43.5t-11 53zM355 -114 q0 28 10.5 53t29 43.5t43.5 29.5t53 11t52.5 -11t43 -29.5t29.5 -43.5t11 -53t-11 -53t-29.5 -43.5t-43 -29t-52.5 -10.5t-53 10.5t-43.5 29t-29 43.5t-10.5 53z" />
<glyph unicode=" "  horiz-adv-x="435" />
<glyph unicode="&#x09;" horiz-adv-x="435" />
<glyph unicode="&#xa0;" horiz-adv-x="435" />
<glyph unicode="!" horiz-adv-x="560" d="M118 1204q0 24 9 44.5t24.5 36.5t36.5 25t44 9h148v-721q0 -24 -9 -44.5t-24.5 -36.5t-36.5 -25t-45 -9zM163 261q0 28 10.5 53t29 44t43 29.5t52.5 10.5t53 -10.5t43.5 -29.5t29.5 -44t11 -53t-11 -52.5t-29.5 -43t-43.5 -29t-53 -10.5t-52.5 10.5t-43 29t-29 43 t-10.5 52.5z" />
<glyph unicode="&#x22;" horiz-adv-x="620" d="M84 1248q0 19 7.5 36.5t20 30.5t29.5 20.5t37 7.5h78l10 -384q0 -19 -10.5 -33t-27 -23.5t-37 -14t-39.5 -4.5zM334 1248q0 19 7.5 36.5t20.5 30.5t30 20.5t36 7.5h77l11 -384q0 -19 -10.5 -33t-27 -23.5t-37 -14t-39.5 -4.5z" />
<glyph unicode="#" d="M32 501l23 163h168l31 218h-169l23 163h170l49 348h170l-50 -348h173l50 348h170l-50 -348h168l-23 -163h-169l-31 -218h170l-23 -163h-169l-51 -353h-170l51 353h-173l-51 -353h-169l50 353h-168zM392 664h174l31 218h-173z" />
<glyph unicode="$" d="M53 499l1 31h242q-5 -114 43 -169q39 -41 108 -52v373q-189 60 -275 137q-92 84 -92 224q0 170 111 270q98 87 256 97v125h81v-123q173 -8 271 -94q108 -96 108 -272h-228q0 98 -43 141q-34 34 -108 40v-337l22 -7q209 -60 296 -147t87 -238q0 -176 -120 -279 q-108 -95 -285 -103v-173h-81v172q-189 12 -291.5 107.5t-102.5 276.5zM306 1070q0 -62 57 -106q31 -24 84 -46v307q-56 -8 -91 -38q-50 -42 -50 -117zM528 308q69 7 112 46q53 46 53 127q0 69 -47 114q-37 35 -118 61v-348z" />
<glyph unicode="%" horiz-adv-x="1026" d="M32 1214l183 183l183 -183l-183 -184zM285 -1l255 1373l180 160l-270 -1392zM606 412l183 183l183 -183l-183 -185z" />
<glyph unicode="&#x26;" horiz-adv-x="1287" d="M97 481q0 141 84 239q59 70 187 147l-7 8q-48 57 -75.5 123t-27.5 121q0 142 90 225.5t245 83.5q143 0 227 -81.5t84 -219.5q0 -103 -71 -185q-49 -59 -142 -116l189 -230l17 34q43 92 52 183h220q-12 -128 -75 -261q-33 -69 -73 -127l228 -275h-295l-87 104 q-73 -63 -134 -92q-89 -41 -231 -41q-186 0 -295.5 97t-109.5 263zM347 495q0 -80 51 -125q50 -44 139 -44q60 0 117 33q36 21 79 58l-78 94l-160 198q-48 -34 -81 -67q-67 -68 -67 -147zM485 1138q0 -27 10.5 -56t30.5 -52l51 -63q35 25 62 51q55 56 55 110 q0 52 -27.5 81.5t-76.5 29.5q-50 0 -78 -27q-27 -26 -27 -74z" />
<glyph unicode="'" horiz-adv-x="359" d="M84 1248q0 19 7.5 36.5t20 30.5t29.5 20.5t37 7.5h78l10 -384q0 -19 -10.5 -33t-27 -23.5t-37 -14t-39.5 -4.5z" />
<glyph unicode="(" horiz-adv-x="612" d="M64 577q0 216 79.5 420t256.5 449h178q-132 -212 -189.5 -416t-57.5 -453q1 -249 58.5 -453t188.5 -415h-178q-177 244 -256 449q-80 203 -80 419z" />
<glyph unicode=")" horiz-adv-x="612" d="M35 -291q131 212 189 416t57 452q-1 249 -58.5 453.5t-187.5 415.5h176q179 -245 257 -449q80 -204 80 -420t-79 -420t-258 -448h-176z" />
<glyph unicode="*" horiz-adv-x="891" d="M95 1119l44 138l239 -82v257h134v-257l236 82l48 -138l-251 -68l173 -211l-119 -88l-155 224l-152 -219l-121 81l171 213z" />
<glyph unicode="+" horiz-adv-x="1041" d="M71 499v205h347v346h205v-346h346v-205h-346v-346h-205v346h-347z" />
<glyph unicode="," horiz-adv-x="495" d="M114 -54q90 30 121 88q23 40 27 116h-68h-80v130v129h134h133v-223q0 -139 -65 -221t-202 -115v96z" />
<glyph unicode="-" horiz-adv-x="593" d="M48 532v235h497v-235h-497z" />
<glyph unicode="." horiz-adv-x="497" d="M118 261q0 28 10.5 53t29 44t43.5 29.5t53 10.5t53 -10.5t43.5 -29.5t29.5 -44t11 -53t-11 -52.5t-29.5 -43t-43.5 -29t-53 -10.5t-53 10.5t-43.5 29t-29 43t-10.5 52.5z" />
<glyph unicode="/" horiz-adv-x="658" d="M0 -72l419 1391l239 127l-420 -1391z" />
<glyph unicode="0" horiz-adv-x="1019" d="M52 725q-1 79 9 158.5t32 152.5t58 136.5t87 110.5t118.5 74t152.5 27t152.5 -27t118 -74t86 -110t58 -136.5t32.5 -153t10 -158.5q0 -78 -10 -157t-32.5 -152.5t-58 -137.5t-86 -111.5t-117.5 -74.5t-153 -27q-85 0 -152.5 27t-118.5 74t-87 110.5t-58 137t-32 153 t-9 158.5zM363 725q0 -209 36 -308t110 -99q75 0 111 100t36 307q0 206 -36.5 307.5t-110.5 101.5t-110 -100t-36 -309z" />
<glyph unicode="1" horiz-adv-x="1019" d="M138 1109l304 254h295v-1274h-300v941l-206 -142z" />
<glyph unicode="2" horiz-adv-x="1019" d="M67 1251q108 70 208.5 102.5t204.5 32.5q96 0 174.5 -33t134 -88.5t86 -128.5t30.5 -154q0 -62 -19 -121t-51.5 -114t-75 -107t-90 -100.5t-96.5 -93t-94 -84.5h464v-273h-820l-31 232q42 44 93 93t103.5 101.5t102.5 107.5t91 110t69 109.5t36 105.5q-3 45 -18.5 76.5 t-39 52t-53.5 30t-64 9.5q-57 0 -121 -26.5t-121 -73.5z" />
<glyph unicode="3" horiz-adv-x="1019" d="M77 157l69 217q49 -25 101.5 -40t103 -21t95.5 -1t79.5 20.5t54.5 43t20 66.5q0 31 -21.5 63t-64.5 58t-108.5 42.5t-152.5 17.5l-12 219q45 6 100 20t104 37t83.5 54.5t38.5 71.5q-4 32 -20 55.5t-39.5 39t-53.5 23t-61 7.5q-46 0 -96 -14t-94 -40l-70 223 q60 32 138 49.5t160 17.5q81 0 158 -18.5t137.5 -58.5t97.5 -102t37 -150q0 -81 -45 -155.5t-136 -131.5q215 -113 215 -328q0 -102 -42 -174.5t-110.5 -118.5t-156 -66.5t-178.5 -18t-177.5 26t-153.5 66.5z" />
<glyph unicode="4" horiz-adv-x="1019" d="M26 369v256l606 754h197v-730h119v-280h-119v-280h-286v280h-517zM326 649h218q0 40 0.5 72t1.5 62.5t1.5 63t0.5 73.5q-29 -35 -55.5 -68t-53 -65.5t-54.5 -66.5t-59 -71z" />
<glyph unicode="5" horiz-adv-x="1019" d="M123 119l86 217q44 -17 83 -24t73 -7q55 0 104.5 14t87 39t59 59.5t21.5 75.5q0 61 -30.5 95.5t-82.5 52t-120.5 21.5t-146.5 4h-85l-2 697h694v-264h-429v-160q118 -5 212 -36.5t159 -88t98.5 -137.5t31.5 -184q1 -111 -44.5 -192.5t-120.5 -134t-170.5 -78 t-194.5 -25.5q-71 0 -143 14.5t-140 41.5z" />
<glyph unicode="6" horiz-adv-x="1019" d="M79 538q0 112 38 230t108.5 230t169.5 212.5t221 177.5q14 -16 34.5 -42t42 -54t41.5 -53.5t34 -40.5q-103 -68 -177 -135.5t-118 -139.5q85 11 170 -11t152.5 -75.5t110 -137.5t42.5 -196q0 -96 -32 -176t-89.5 -138t-137 -90t-175.5 -32q-105 0 -186 35t-136.5 97 t-84 148.5t-28.5 190.5zM362.5 530.5q5.5 -52.5 26.5 -96t58 -72t89 -26.5h1q34 0 61 15t45.5 38t28 50t10.5 50q-6 51 -39.5 90t-80 59.5t-99 19.5t-95.5 -29q-11 -46 -5.5 -98.5z" />
<glyph unicode="7" horiz-adv-x="1019" d="M74 1104v259h831l-9 -230l-414 -1085l-264 99l361 957h-505z" />
<glyph unicode="8" horiz-adv-x="1019" d="M60 452q0 47 13 90.5t36 81.5t54.5 70.5t69.5 57.5q-66 55 -98 126.5t-32 145.5q0 69 26.5 134t78 115t127 80.5t174.5 30.5q88 0 159.5 -32.5t122.5 -84t78.5 -117.5t27.5 -134q0 -71 -31.5 -136.5t-100.5 -114.5q102 -57 147.5 -135t45.5 -178q0 -95 -36 -167.5 t-97 -121t-143 -73.5t-173 -25q-94 0 -176 24.5t-142.5 73t-95.5 121t-35 168.5zM354 452q0 -26 8.5 -51t25 -44.5t41.5 -32t58 -13.5q38 0 69 7t53.5 24.5t34.5 47.5t12 75q0 9 -5 32t-21.5 46t-46.5 41t-81 18q-37 0 -65 -13.5t-46.5 -34.5t-27.5 -47.5t-9 -54.5z M376 1012q0 -27 15.5 -53t36.5 -46t43.5 -31t36.5 -6h-1q19 7 39.5 18.5t37.5 28t28.5 37.5t11.5 47q0 27 -11 48.5t-29.5 36.5t-42.5 23.5t-50 8.5q-22 0 -43 -7t-37 -20.5t-25.5 -35t-9.5 -49.5z" />
<glyph unicode="9" horiz-adv-x="1019" d="M65 940q0 96 32 176.5t89.5 138.5t137 90t174.5 32q105 0 186.5 -35t137 -97t84 -149t28.5 -190q0 -113 -38.5 -231t-109 -230t-170.5 -212t-222 -177q-23 31 -41.5 54.5t-35.5 44.5l-34 42t-37 48q103 68 176 136t116 139q-85 -11 -169.5 11.5t-152 76t-109.5 137.5 t-42 195zM331 956q6 -51 39 -90t79 -60t98 -20t95 29q12 47 7 99.5t-26.5 96t-58.5 71t-89 26.5q-35 0 -61.5 -15.5t-44.5 -38t-28 -49.5t-10 -49z" />
<glyph unicode=":" horiz-adv-x="538" d="M136 342q0 28 10.5 53t29 44t43 29.5t52.5 10.5t53 -10.5t43.5 -29.5t29.5 -44t11 -53t-11 -53t-29.5 -43.5t-43.5 -29t-53 -10.5t-52.5 10.5t-43 29t-29 43.5t-10.5 53zM136 730q0 28 10.5 53.5t29 44t43 29.5t52.5 11t53 -11t43.5 -29.5t29.5 -44t11 -53.5t-11 -52.5 t-29.5 -43t-43.5 -29t-53 -10.5t-52.5 10.5t-43 29t-29 43t-10.5 52.5z" />
<glyph unicode=";" horiz-adv-x="593" d="M164 150v130v130h134h133v-194q0 -156 -64 -244.5t-197 -116.5v96q84 26 114 83q20 39 25 116h-65h-80zM164 804v259h266v-259h-266z" />
<glyph unicode="&#x3c;" horiz-adv-x="1041" d="M68 516v86v85l905 383v-197l-643 -271l643 -272v-197z" />
<glyph unicode="=" horiz-adv-x="810" d="M60 139l66 205l621 -3l-66 -205zM60 515l66 205l621 -3l-66 -205z" />
<glyph unicode="&#x3e;" horiz-adv-x="1041" d="M68 133v197l643 272l-643 271v197l905 -383v-85v-86z" />
<glyph unicode="?" horiz-adv-x="1088" d="M107 1023q6 201 123 314.5t319 113.5q203 0 322 -102t119 -275q0 -92 -55 -173.5t-184 -178.5q-51 -38 -70.5 -82t-16.5 -115h-232q-3 123 41.5 207t153.5 161q52 37 74 77.5t22 103.5q0 76 -47 122q-47 44 -127 44q-96 0 -143.5 -53t-50.5 -164h-248zM418 150v249h261 v-249h-261z" />
<glyph unicode="@" horiz-adv-x="1737" d="M211 788q0 283 198 479.5t485 196.5q266 0 448.5 -165t182.5 -403q0 -201 -136.5 -351.5t-317.5 -150.5q-57 0 -85 52q-12 20 -14 42q-87 -94 -190 -94q-126 0 -208 93t-81 235q-1 174 114.5 300t275.5 126q123 -1 196 -108l18 83h173l-116 -519q-5 -22 0 -37t16 -15 q89 0 150.5 99.5t61.5 244.5q0 178 -139 301.5t-340 123.5q-217 0 -367.5 -155t-150.5 -378q0 -224 146 -379t358 -155q132 0 245.5 43t167.5 112h157q-77 -134 -231 -215.5t-331 -81.5q-289 0 -487.5 196t-198.5 480zM688 729q0 -75 38 -115.5t107 -40.5q71 0 128 56 t76 144t-20 143.5t-120 55.5q-84 0 -146.5 -73t-62.5 -170z" />
<glyph unicode="A" horiz-adv-x="1287" d="M36 150l452 1279h155h155l453 -1279h-142h-142l-86 260h-485l-85 -260h-137h-138zM470 630h340l-171 514z" />
<glyph unicode="B" horiz-adv-x="1287" d="M136 150v1279h128h491q185 0 289.5 -85.5t104.5 -238.5q0 -159 -117 -242q-19 -14 -43 -25q45 -17 80 -42q123 -84 123 -246q0 -196 -121.5 -298t-354.5 -102h-452h-128zM391 372h325q104 0 156.5 45t52.5 137q0 80 -53.5 119.5t-160.5 39.5h-320v-341zM391 928h306 q100 0 149.5 37.5t49.5 112.5q0 66 -52 98.5t-158 32.5h-295v-281z" />
<glyph unicode="C" horiz-adv-x="1287" d="M78 782q0 314 159 498t429 184q227 0 377 -123.5t176 -333.5h-268q-13 103 -89 164t-194 61q-149 0 -233 -118.5t-84 -329.5q0 -205 84 -321t233 -116q118 0 194 67.5t89 183.5h268q-24 -222 -173.5 -352.5t-379.5 -130.5q-270 0 -429 180t-159 487z" />
<glyph unicode="D" horiz-adv-x="1287" d="M136 150v1279h133h414q264 0 401 -155t137 -453q0 -329 -142.5 -500t-417.5 -171h-392h-133zM403 370h225q163 0 244.5 110t81.5 330q0 200 -76 299.5t-228 99.5h-247v-839z" />
<glyph unicode="E" horiz-adv-x="1188" d="M136 150v1279h941v-113v-114h-674v-272h625v-109v-111h-625v-333h704v-113v-114h-971z" />
<glyph unicode="F" horiz-adv-x="1088" d="M136 150v1279h910v-113v-114h-643v-291h560v-109v-111h-560v-541h-133h-134z" />
<glyph unicode="G" horiz-adv-x="1386" d="M78 782q0 314 170.5 498t461.5 184q233 0 384 -116.5t176 -315.5h-268q-10 84 -93.5 147t-184.5 63q-174 0 -272.5 -120.5t-98.5 -334.5q0 -218 94.5 -331.5t276.5 -113.5h-1q155 0 242 119q48 67 70 157v3h-301v220h536v-690h-178l-26 165l-16 -21q-135 -180 -365 -180 h1q-280 0 -444 180t-164 487z" />
<glyph unicode="H" horiz-adv-x="1287" d="M126 150v1279h133h134v-479h500v479h134h134v-1279h-134h-134v579h-500v-579h-133h-134z" />
<glyph unicode="I" horiz-adv-x="495" d="M114 150v1279h133h134v-1279h-133h-134z" />
<glyph unicode="J" d="M39 563v77h254v-77v-17q0 -103 35 -156q37 -56 120 -56q79 0 113.5 41t34.5 134v920h133h134v-920q0 -195 -104.5 -294.5t-307.5 -99.5q-217 0 -318 109q-94 103 -94 310v29z" />
<glyph unicode="K" horiz-adv-x="1287" d="M155 150v1279h133h134v-530l490 530h170h171l-511 -523l545 -756h-175h-175l-385 563l-130 -133v-430h-133h-134z" />
<glyph unicode="L" horiz-adv-x="1088" d="M136 150v1279h133h134v-1052h636v-113v-114h-903z" />
<glyph unicode="M" horiz-adv-x="1484" d="M123 150v1279h195h196l233 -1014l230 1014h193h193v-1279h-124h-125v1075l-240 -1075h-131h-131l-240 1099v-1099h-124h-125z" />
<glyph unicode="N" horiz-adv-x="1287" d="M123 150v1279h140h140l513 -897v897h125h125v-1279h-133h-133l-528 921v-921h-124h-125z" />
<glyph unicode="O" horiz-adv-x="1386" d="M78 782q0 314 166.5 498t448.5 184q283 0 449 -184t166 -498q0 -307 -166 -487t-449 -180q-282 0 -448.5 180t-166.5 487zM345 784q0 -208 92 -325t256 -117q163 0 255.5 117t92.5 325q0 213 -92.5 333t-255.5 120t-255.5 -120t-92.5 -333z" />
<glyph unicode="P" horiz-adv-x="1188" d="M136 150v1279h133h402q218 0 332 -102.5t114 -297.5q0 -207 -114 -314.5t-332 -107.5h-75q-108 0 -193 -2v-455h-133h-134zM403 827h223q112 0 168 49.5t56 149.5q0 91 -56 137t-168 46h-223v-382z" />
<glyph unicode="Q" horiz-adv-x="1386" d="M78 782q0 314 166.5 498t448.5 184q283 0 449 -184t166 -498q0 -277 -135 -450l139 -131l-136 -144l-153 142q-137 -84 -330 -84q-282 0 -448.5 180t-166.5 487zM345 784q0 -208 92 -325t256 -117h5q77 0 138 29l-131 121l135 143l140 -127q61 107 61 276 q0 213 -92.5 333t-255.5 120t-255.5 -120t-92.5 -333z" />
<glyph unicode="R" horiz-adv-x="1287" d="M136 150v1279h133h511q183 0 295 -98t112 -258q0 -184 -125 -270q-33 -22 -75 -38q24 -9 43 -21q110 -65 114 -219l6 -210q2 -62 13 -88.5t44 -41.5v-34h-295q-11 20 -18.5 85.5t-8.5 141.5l-2 118q-2 86 -51 122.5t-163 36.5h-266v-505h-133h-134zM403 870h310 q103 0 155 42.5t52 127.5q0 84 -49.5 126.5t-147.5 42.5h-320v-339z" />
<glyph unicode="S" horiz-adv-x="1188" d="M70 547h257q4 -102 74 -157t194 -55q128 0 200 41.5t72 114.5q0 72 -52 106q-50 34 -216 71q-304 68 -407 147q-102 78 -102 244q0 186 135 295.5t365 109.5q215 0 349.5 -113.5t149.5 -305.5h-260q-7 92 -80 145.5t-190 53.5q-102 0 -159.5 -45t-57.5 -125q0 -57 60 -89 q59 -31 251 -74q280 -62 374 -144q94 -81 94 -260q0 -180 -142 -286t-384 -106q-243 0 -379.5 112.5t-145.5 319.5z" />
<glyph unicode="T" horiz-adv-x="1088" d="M25 1202v113v114h1040v-113v-114h-386v-1052h-134h-133v1052h-387z" />
<glyph unicode="U" horiz-adv-x="1287" d="M128 632v797h133h134v-806q0 -137 62 -206t188 -69q134 0 191 63.5t57 211.5v806h134h134v-797q0 -274 -121 -395.5t-395 -121.5q-263 0 -389.5 126.5t-127.5 390.5z" />
<glyph unicode="V" horiz-adv-x="1188" d="M34 1429h142h142l281 -977l280 977h137h138l-433 -1279h-127h-127z" />
<glyph unicode="W" horiz-adv-x="1682" d="M29 1429h139h139l213 -936l183 936h142h142l186 -928l212 928h135h135l-356 -1279h-127h-127l-205 1007l-201 -1007h-127h-127z" />
<glyph unicode="X" horiz-adv-x="1188" d="M25 150l414 647l-386 632h158h158l225 -413l233 413h154h154l-389 -612l417 -667h-159h-160l-251 440l-252 -440h-157h-159z" />
<glyph unicode="Y" horiz-adv-x="1188" d="M27 1429h158h160l266 -555l249 555h152h151l-423 -793v-486h-133h-134v481z" />
<glyph unicode="Z" horiz-adv-x="1088" d="M44 150v112v112l663 828h-641v113v114h978v-105v-106l-675 -841h673v-113v-114h-998z" />
<glyph unicode="[" horiz-adv-x="593" d="M112 -202v1640h439v-172h-216v-1297h216v-171h-439z" />
<glyph unicode="\" horiz-adv-x="495" d="M-58 1464h209l402 -1349h-208z" />
<glyph unicode="]" horiz-adv-x="593" d="M43 -31h215v1297h-215v172h438v-1640h-438v171z" />
<glyph unicode="^" horiz-adv-x="1041" d="M110 728l320 663h90h91l319 -663h-198l-212 464l-211 -464h-199z" />
<glyph unicode="_" d="M0 19h991v-92h-991v92z" />
<glyph unicode="`" horiz-adv-x="593" d="M-40 1485h273l168 -258h-180z" />
<glyph unicode="a" d="M51 399q0 129 72.5 207t210.5 98l165 23q64 9 107 29q18 9 28 31.5t7 46.5q-5 40 -41 62q-42 27 -122 27q-72 0 -112 -34.5t-42 -98.5h-240q8 166 113.5 249t308.5 83q177 0 279 -74.5t102 -203.5v-529q0 -63 10.5 -89t42.5 -40v-1v-34h-135h-135q-17 57 -22 112l-1 2 q-117 -139 -304 -139q-132 0 -212 75t-80 198zM303 425q0 -57 30.5 -89t84.5 -32q121 0 192 84q14 17 23 49q10 32 10 63v108q-44 -24 -115 -39l-92 -17q-65 -12 -99 -44.5t-34 -82.5z" />
<glyph unicode="b" horiz-adv-x="1088" d="M109 150v1279h124h125v-456l6 7q101 142 266 142q180 0 289.5 -133t109.5 -351q0 -230 -109.5 -371t-289.5 -141q-165 0 -266 132l-11 14v-122h-244zM346 607q0 -130 57 -203q55 -73 156 -73q100 0 157 75t57 209q0 137 -57 214t-157 77t-156.5 -79t-56.5 -220z" />
<glyph unicode="c" d="M61 618q0 231 121.5 367.5t327.5 136.5q183 0 299.5 -101t124.5 -265h-255q-3 70 -49.5 113.5t-119.5 43.5q-94 0 -143 -75.5t-49 -219.5q0 -141 49 -214.5t143 -73.5q68 0 115 47t54 124h255q-20 -177 -132 -276t-292 -99q-215 0 -332 127.5t-117 364.5z" />
<glyph unicode="d" horiz-adv-x="1088" d="M61 638q0 218 110.5 351t290.5 133q161 0 259 -136l11 -14v457h124h125v-1279h-121h-121v121l-4 -6q-103 -139 -271 -139q-181 0 -292 141t-111 371zM318 615q0 -134 56 -209t156 -75q101 0 157.5 79t56.5 220q0 130 -56.5 203t-156.5 73t-156.5 -77t-56.5 -214z" />
<glyph unicode="e" d="M41 638q0 227 119 355.5t331 128.5q216 0 333 -131t117 -373q1 -7 1 -14q0 -21 -5 -42h-645q9 -113 50 -168q52 -70 174 -70q56 0 104.5 32t58.5 78h254q-33 -145 -150 -226.5t-292 -81.5q-216 0 -333 133t-117 379zM295 721h386q-8 85 -45 133q-48 63 -149 63 q-96 0 -147 -74q-31 -47 -45 -122z" />
<glyph unicode="f" horiz-adv-x="593" d="M17 922v175h139v79q0 136 72.5 203t220.5 67h16q56 0 101 -6v-199h-79q-49 0 -65.5 -20t-16.5 -82v-42h161v-175h-161v-772h-124h-125v772h-139z" />
<glyph unicode="g" horiz-adv-x="1088" d="M71 628q0 222 110.5 358t290.5 136q160 0 247 -116q17 -22 31 -48v139h235v-897q0 -224 -111 -330.5t-346 -106.5q-193 0 -307 75t-122 208h272q3 -48 44.5 -70.5t127.5 -22.5q105 0 151 51t46 169v116l-20 -30q-82 -114 -237 -114q-185 0 -298.5 132.5t-113.5 350.5z M328 625q0 -130 55 -202.5t151 -72.5q98 0 153.5 74t55.5 204q0 131 -55.5 204.5t-152.5 73.5t-152 -74.5t-55 -206.5z" />
<glyph unicode="h" horiz-adv-x="1088" d="M116 150v1279h124h125v-453l20 28q93 118 268 118q150 0 235 -89t85 -246v-637h-125h-125v592q0 87 -38 129.5t-116 42.5q-98 0 -151 -59t-53 -171v-534h-124h-125z" />
<glyph unicode="i" horiz-adv-x="495" d="M123 1207v231h254v-231h-254zM125 150v947h125h125v-947h-124h-126z" />
<glyph unicode="j" horiz-adv-x="495" d="M5 -31l31 -1q50 0 67.5 16t17.5 62v1051h124h126v-1051q0 -154 -66.5 -215.5t-231.5 -61.5l-68 1v199zM119 1207v231h254v-231h-254z" />
<glyph unicode="k" d="M123 150v1279h124h125v-691l312 359h154h154l-342 -359l350 -588h-147h-149l-228 407l-104 -109v-298h-124h-125z" />
<glyph unicode="l" horiz-adv-x="495" d="M123 150v1279h124h125v-1279h-124h-125z" />
<glyph unicode="m" horiz-adv-x="1584" d="M114 150v947h118h119v-153q17 40 42 72q83 106 240 106q126 0 206 -85q31 -32 49 -71l31 50q77 106 225 106q154 0 241 -91.5t87 -253.5v-627h-124h-126v556q0 106 -34.5 157t-107.5 51q-79 0 -120 -48.5t-41 -138.5v-577h-125h-125v597q0 85 -36.5 126t-112.5 41 q-75 0 -115.5 -48.5t-40.5 -138.5v-577h-125h-125z" />
<glyph unicode="n" horiz-adv-x="1088" d="M116 150v947h118h119v-141q15 26 32 48q93 118 268 118q150 0 235 -89t85 -246v-637h-125h-125v592q0 87 -38 129.5t-116 42.5q-98 0 -151 -59t-53 -171v-534h-124h-125z" />
<glyph unicode="o" horiz-adv-x="1088" d="M61 618q0 231 131 367.5t353 136.5q223 0 353.5 -136.5t130.5 -367.5q0 -226 -130.5 -359t-353.5 -133q-222 0 -353 133t-131 359zM318 621q0 -140 57.5 -213.5t169.5 -73.5q111 0 169.5 73.5t58.5 213.5q0 143 -58.5 217.5t-169.5 74.5q-112 0 -169.5 -74.5 t-57.5 -217.5z" />
<glyph unicode="p" horiz-adv-x="1088" d="M110 -221v1318h119h119v-141l17 24q100 142 266 142q180 0 289 -133t109 -351q0 -230 -109 -371t-289 -141q-165 0 -266 132l-5 7v-486h-124h-126zM348 607q0 -130 56 -203t155 -73q100 0 157 75t57 209q0 137 -56.5 214t-156.5 77t-156 -79t-56 -220z" />
<glyph unicode="q" horiz-adv-x="1088" d="M61 608q0 232 115 373t302 141q154 0 248 -136q16 -22 27 -45v156h230v-1318h-124h-126v482q-100 -135 -266 -135h-2q-181 0 -292.5 132.5t-111.5 349.5zM318 615q0 -134 56.5 -209t156.5 -75q101 0 158 79t57 220q0 130 -57 203t-157 73q-101 0 -157.5 -77t-56.5 -214z " />
<glyph unicode="r" horiz-adv-x="693" d="M114 150v947h118h119v-170q14 28 30 54q88 141 227 141l57 -1v-255q-33 3 -75 3q-114 0 -170 -56.5t-56 -170.5v-492h-125h-125z" />
<glyph unicode="s" d="M53 453h254q3 -65 58 -102t150 -37q75 0 117 25.5t42 71.5q0 32 -41 55q-41 22 -143 44q-240 54 -321 114q-81 59 -81 184q0 141 105 227.5t276 86.5q193 0 311.5 -85t118.5 -224h-247q0 55 -45.5 88t-120.5 33q-72 0 -112.5 -25t-40.5 -69q0 -31 46 -54q46 -22 161 -48 q230 -51 307 -112q78 -61 78 -192q0 -139 -113 -223.5t-297 -84.5q-218 0 -336 83.5t-126 243.5z" />
<glyph unicode="t" horiz-adv-x="593" d="M17 922v175h132v254h249v-254h153v-175h-153v-538q0 -33 20 -43.5t81 -10.5h52v-185q-63 -5 -154 -5q-133 0 -190.5 47t-57.5 155v580h-132z" />
<glyph unicode="u" horiz-adv-x="1088" d="M117 459v638h125h125v-593q0 -87 37.5 -128.5t114.5 -41.5q98 0 150 59t52 170v534h125h125v-947h-118h-120v142q-13 -26 -31 -49q-92 -117 -267 -117q-150 0 -234 88t-84 245z" />
<glyph unicode="v" d="M23 1097h138h138l202 -706l204 706h131h131l-341 -947h-130h-131z" />
<glyph unicode="w" horiz-adv-x="1386" d="M17 1097h133h132l151 -696l142 696h124h126l140 -697l154 697h125h126l-274 -947h-127h-128l-145 705l-149 -705h-127h-128z" />
<glyph unicode="x" d="M27 150l322 484l-309 463h151h150l159 -280l159 280h146h146l-308 -468l321 -479h-153h-154l-165 289l-164 -289h-151h-150z" />
<glyph unicode="y" d="M17 1097h138h138l206 -703l200 703h131h130l-339 -967q-82 -239 -140 -300t-208 -61l-119 3v200q9 -4 48 -4q100 0 130 41q19 26 39 108z" />
<glyph unicode="z" horiz-adv-x="891" d="M36 150v97v97l479 548l6 7h-450v98v100h762v-102v-103l-473 -538h495v-101v-103h-819z" />
<glyph unicode="{" horiz-adv-x="693" d="M85 539v158q115 15 141 50t26 175v231q0 161 96 229.5t303 55.5v-160q-121 6 -149.5 -22t-28.5 -155v-232q0 -139 -83 -201q-39 -29 -106 -51q67 -19 106 -49q83 -62 83 -201v-232q0 -127 28.5 -155t149.5 -21v-160q-207 -14 -303 54.5t-96 229.5v231q0 140 -26 175 t-141 50z" />
<glyph unicode="|" horiz-adv-x="499" d="M150 -295v1781h199v-1781h-199z" />
<glyph unicode="}" horiz-adv-x="693" d="M43 -41q121 -7 149 21t28 155v232q0 139 84 201q38 30 105 49q-67 22 -105 51q-84 62 -84 201v232q0 127 -28 155t-149 22v160q207 13 302.5 -55.5t95.5 -229.5v-231q0 -140 26 -175t141 -50v-158q-115 -15 -141 -50t-26 -175v-231q0 -161 -96 -230q-95 -68 -302 -54v160 z" />
<glyph unicode="~" horiz-adv-x="1041" d="M109 598q30 71 90 113.5t132 42.5q45 0 96 -15.5t131 -52.5q54 -25 95.5 -40.5t58.5 -15.5q41 0 78 31.5t77 100.5l65 -159q-39 -71 -99 -113t-123 -42q-48 0 -99 17.5t-128 62.5q-36 20 -79 31.5t-81 11.5q-42 0 -85 -38t-64 -93z" />
<glyph horiz-adv-x="1392" d="M76 262v510h175q60 0 91 -7q97 -23 136 -123q20 -54 20 -122q0 -110 -49 -177q-40 -56 -107 -72q-36 -9 -83 -9h-183zM143 322h109q89 0 125 36q51 51 51 163q0 146 -90 181q-27 10 -87 10h-108v-390zM559 262v510h368v-60h-301v-156h282v-60h-282v-174h314v-60h-381z M1004 262v510h68v-450h250v-60h-318z" />
<glyph unicode="&#xa9;" horiz-adv-x="1313" d="M-19 789q0 292 192.5 484.5t483.5 192.5q290 0 483.5 -192.5t193.5 -484.5q0 -290 -193 -483t-484 -193q-292 0 -484 193t-192 483zM176 789q0 -221 137.5 -368t343.5 -147q207 0 344.5 147t137.5 368q0 222 -137 369.5t-345 147.5q-207 0 -344 -147.5t-137 -369.5z M312 786q0 179 100 284.5t269 105.5q132 0 219 -74.5t102 -200.5h-159q-7 55 -50.5 87t-111.5 32q-87 0 -136 -62t-49 -171q0 -105 50 -166t135 -61q64 0 107.5 34t54.5 93h159q-25 -131 -111.5 -207t-209.5 -76q-166 0 -267.5 105t-101.5 277z" />
<glyph unicode="&#xab;" horiz-adv-x="880" d="M66 407q84 97 164.5 189.5t165.5 189.5h65l-219 -378l219 -386h-68q-82 97 -163 192.5t-164 192.5zM363 407q84 97 164.5 189.5t164.5 189.5h64l-217 -378l224 -386h-72q-82 97 -164 192.5t-164 192.5z" />
<glyph unicode="&#xad;" horiz-adv-x="593" d="M48 532v235h497v-235h-497z" />
<glyph unicode="&#xae;" horiz-adv-x="1313" d="M-19 789q0 291 192.5 483.5t482.5 192.5q291 0 483.5 -192.5t192.5 -483.5q0 -290 -192.5 -482.5t-483.5 -192.5t-483 192.5t-192 482.5zM173 789q0 -222 138 -369.5t345 -147.5q208 0 346 147.5t138 369.5q0 223 -137.5 371t-346.5 148q-208 0 -345.5 -148t-137.5 -371z M367 426v728h79h204q139 0 211.5 -52.5t72.5 -154.5q0 -117 -67 -169q-38 -29 -100 -42l179 -310h-90h-90l-168 300h-72v-300h-79h-80zM526 851h124q63 0 93.5 23.5t30.5 70.5q0 43 -30.5 64t-93.5 21h-124v-179z" />
<glyph unicode="&#xb0;" horiz-adv-x="1024" d="M52 637l457 457l456 -457l-456 -456zM128 637l381 -380l380 380l-380 381zM292 637l217 218l217 -218l-217 -217z" />
<glyph unicode="&#xb1;" horiz-adv-x="901" d="M48 752l201 145l201 146l201 -146l201 -145l-77 -237l-76 -236h-497l-77 236zM167 533l142 -103l141 -102l142 102l141 103l-54 167l-54 166h-350l-54 -166zM294 671l78 56l78 57l78 -57l79 -56l-31 -92l-29 -92h-193z" />
<glyph unicode="&#xb6;" horiz-adv-x="891" d="M61 1138q0 65 24.5 120t66.5 97q47 40 109 61.5t137 21.5h432v-59h-106v-1229h-80v1229h-173v-1229h-82v690q-155 6 -242 87q-86 81 -86 211z" />
<glyph unicode="&#xb7;" horiz-adv-x="1082" d="M74 581l212 198l198 -198l-198 -198zM351 317l198 199l201 -199l-201 -219zM351 841l198 215l196 -215l-196 -198zM613 581l198 198l214 -198l-214 -205z" />
<glyph unicode="&#xba;" horiz-adv-x="983" d="M26 654l113 196l114 197h454l114 -197l113 -196l-113 -197l-114 -197h-454l-114 197zM116 654l91 -158l91 -157h364l90 157l91 158l-91 157l-90 157h-364zM243 654l59 103l59 102h238l59 -102l59 -103l-118 -206h-238z" />
<glyph unicode="&#xbb;" horiz-adv-x="880" d="M110 22l225 386q-54 94 -108 189t-109 189h65q81 -95 163.5 -189.5t165.5 -189.5q-84 -99 -165 -193t-163 -192h-74zM413 22l219 386q-54 94 -109.5 189t-109.5 189h65q83 -95 165.5 -189.5t164.5 -189.5q-83 -99 -163 -193t-164 -192h-68z" />
<glyph unicode="&#xbf;" horiz-adv-x="774" d="M77 304v675h675v-675h-675z" />
<glyph unicode="&#xd7;" horiz-adv-x="1041" d="M71 297l305 305l-305 304l145 144l304 -304l305 304l144 -144l-304 -304l304 -305l-144 -144l-305 304l-304 -304z" />
<glyph unicode="&#xe0;" d="M51 399q0 129 72.5 207t210.5 98l165 23q64 9 107 29q18 9 28 31.5t7 46.5q-5 40 -41 62q-42 27 -122 27q-72 0 -112 -34.5t-42 -98.5h-240q8 166 113.5 249t308.5 83q177 0 279 -74.5t102 -203.5v-529q0 -63 10.5 -89t42.5 -40v-1v-34h-135h-135q-17 57 -22 112l-1 2 q-117 -139 -304 -139q-132 0 -212 75t-80 198zM168 1485h273l168 -258h-180zM303 425q0 -57 30.5 -89t84.5 -32q121 0 192 84q14 17 23 49q10 32 10 63v108q-44 -24 -115 -39l-92 -17q-65 -12 -99 -44.5t-34 -82.5z" />
<glyph unicode="&#xe1;" d="M51 399q0 129 72.5 207t210.5 98l165 23q64 9 107 29q18 9 28 31.5t7 46.5q-5 40 -41 62q-42 27 -122 27q-72 0 -112 -34.5t-42 -98.5h-240q8 166 113.5 249t308.5 83q177 0 279 -74.5t102 -203.5v-529q0 -63 10.5 -89t42.5 -40v-1v-34h-135h-135q-17 57 -22 112l-1 2 q-117 -139 -304 -139q-132 0 -212 75t-80 198zM303 425q0 -57 30.5 -89t84.5 -32q121 0 192 84q14 17 23 49q10 32 10 63v108q-44 -24 -115 -39l-92 -17q-65 -12 -99 -44.5t-34 -82.5zM347 1227l138 258h273l-231 -258h-180z" />
<glyph unicode="&#xe7;" d="M61 618q0 231 121.5 367.5t327.5 136.5q183 0 299.5 -101t124.5 -265h-255q-3 70 -49.5 113.5t-119.5 43.5q-94 0 -143 -75.5t-49 -219.5q0 -141 49 -214.5t143 -73.5q68 0 115 47t54 124h255q-20 -177 -132 -276t-292 -99q-215 0 -332 127.5t-117 364.5zM250 -209l39 83 q43 -14 79.5 -21.5t57.5 -7.5q35 0 59.5 20.5t24.5 49.5t-19.5 46.5t-50.5 17.5q-14 0 -32.5 -3.5t-38.5 -10.5l-38 36l98 148h103l-62 -95l49 6q71 0 114 -38.5t43 -101.5q0 -81 -60 -128.5t-162 -47.5q-49 0 -104 12.5t-100 34.5z" />
<glyph unicode="&#xe8;" d="M41 638q0 227 119 355.5t331 128.5q216 0 333 -131t117 -373q2 -28 -4 -56h-645q9 -113 50 -168q52 -70 174 -70q56 0 104.5 32t58.5 78h254q-33 -145 -150 -226.5t-292 -81.5q-216 0 -333 133t-117 379zM183 1485h273l168 -258h-180zM295 721h386q-8 85 -45 133 q-48 63 -149 63q-96 0 -147 -74q-31 -47 -45 -122z" />
<glyph unicode="&#xe9;" d="M41 638q0 227 119 355.5t331 128.5q216 0 333 -131t117 -373q2 -28 -4 -56h-645q9 -113 50 -168q52 -70 174 -70q56 0 104.5 32t58.5 78h254q-33 -145 -150 -226.5t-292 -81.5q-216 0 -333 133t-117 379zM295 721h386q-8 85 -45 133q-48 63 -149 63q-96 0 -147 -74 q-31 -47 -45 -122zM403 1227l168 258h273l-261 -258h-180z" />
<glyph unicode="&#xea;" d="M41 638q0 227 119 355.5t331 128.5q216 0 333 -131t117 -373q2 -28 -4 -56h-645q9 -113 50 -168q52 -70 174 -70q56 0 104.5 32t58.5 78h254q-33 -145 -150 -226.5t-292 -81.5q-216 0 -333 133t-117 379zM196 1227l202 258h111h111l202 -258h-200l-113 145l-113 -145 h-200zM295 721h386q-8 85 -45 133q-48 63 -149 63q-96 0 -147 -74q-31 -47 -45 -122z" />
<glyph unicode="&#xf4;" horiz-adv-x="1088" d="M61 618q0 231 131 367.5t353 136.5q223 0 353.5 -136.5t130.5 -367.5q0 -226 -130.5 -359t-353.5 -133q-222 0 -353 133t-131 359zM231 1227l202 258h112h111l202 -258h-200l-113 145l-113 -145h-201zM318 621q0 -140 57.5 -213.5t169.5 -73.5q111 0 169.5 73.5 t58.5 213.5q0 143 -58.5 217.5t-169.5 74.5q-112 0 -169.5 -74.5t-57.5 -217.5z" />
<glyph unicode="&#xf7;" horiz-adv-x="1041" d="M71 498v207h898v-207h-898zM362 230q0 66 46 112t112 46t112.5 -46t46.5 -112t-46.5 -112t-112.5 -46t-112 46t-46 112zM362 973q0 66 46 112t112 46t112.5 -46t46.5 -112t-46.5 -112t-112.5 -46t-112 46t-46 112z" />
<glyph unicode="&#x153;" horiz-adv-x="1682" d="M61 618q0 231 125 368q125 136 339 136q201 -1 324 -121q119 120 325 121q216 0 333 -131t117 -373q2 -28 -4 -56h-630q9 -113 51 -168q52 -70 175 -70q50 0 93 32t53 78h254q-33 -145 -150 -226.5t-292 -81.5q-206 -1 -322 121q-124 -122 -327 -121q-214 0 -339 133 t-125 359zM318 621q0 -140 55 -213.5t161 -73.5t161.5 73.5t55.5 213.5q0 143 -56 218q-55 74 -161 74t-161 -74.5t-55 -217.5zM994 721h388q-8 85 -45 133q-49 63 -150 63q-98 0 -149 -74q-32 -47 -44 -122z" />
<glyph unicode="&#x60c;" horiz-adv-x="471" d="M118.5 263.5q-42.5 103.5 27.5 235.5t205 157q-190 -265 27 -342l-111 -167q-106 13 -148.5 116.5z" />
<glyph unicode="&#x61b;" horiz-adv-x="497" d="M114 583q-43 104 27 235.5t206 157.5q-190 -267 27 -343l-111 -166q-106 12 -149 116zM118 261q0 28 10.5 53t29 44t43.5 29.5t53 10.5t53 -10.5t43.5 -29.5t29.5 -44t11 -53t-11 -52.5t-29.5 -43t-43.5 -29t-53 -10.5t-53 10.5t-43.5 29t-29 43t-10.5 52.5z" />
<glyph unicode="&#x61f;" horiz-adv-x="961" d="M107 772v461q0 24 9.5 45.5t26 37.5t38 25t45.5 9q70 0 153 -5t168 -6t166 8t147 38q12 6 14 -5q6 -14 2.5 -32t-11.5 -37t-18.5 -36t-17.5 -28q-36 -54 -87.5 -92t-111.5 -58q-30 -10 -62 -14t-64.5 -4.5t-64.5 0.5t-63 1v-152q68 6 126 1t100.5 -28t66.5 -67t24 -116 q0 -33 -10 -68t-25.5 -65t-34 -52.5t-35.5 -29.5t-29.5 3.5t-16.5 45.5q-5 46 -21.5 71.5t-41 36.5t-55 12t-64 -3t-68 -9t-66.5 -5q-24 0 -45.5 9.5t-38 25.5t-26 37t-9.5 45zM436 286q0 28 11 53t29.5 43.5t43 29t52.5 10.5t53 -10.5t43.5 -29t29 -43.5t10.5 -53 t-10.5 -53t-29 -43.5t-43.5 -29.5t-53 -11t-52.5 11t-43 29.5t-29.5 43.5t-11 53z" />
<glyph unicode="&#x621;" horiz-adv-x="974" d="M35.5 108.5q-4.5 14.5 1.5 41.5t22 63q13 25 32 50t45 48.5t61.5 44.5t81.5 38v355q0 24 9 44.5t24.5 36.5t36.5 25t44 9h235q39 1 66.5 0.5t52 2t50.5 9t63 22.5q14 6 23 -11t8.5 -47t-12 -68t-38.5 -73q-31 -40 -83 -68t-134 -30h-83v-190h372v-148q0 -24 -9 -44.5 t-24.5 -36.5t-36 -25t-44.5 -9h-449q-27 2 -59.5 1.5t-66.5 -4.5t-67 -12.5t-59 -22.5q-27 -17 -42.5 -16.5t-20 15z" />
<glyph unicode="&#x622;" horiz-adv-x="456" d="M64 1401q-1 71 38.5 109t82.5 42q53 4 122.5 -18t90.5 -25q87 -11 151 54q-26 -131 -125 -140q-40 -4 -110 18.5t-93 23.5q-88 9 -157 -64zM133 148v1080q0 24 9 45t25 36.5t36.5 25t44.5 9.5h147v-1081q0 -24 -9 -44.5t-24 -36.5t-36 -25t-45 -9h-148z" />
<glyph unicode="&#x623;" horiz-adv-x="456" d="M62 1438q18 29 39.5 53.5t55.5 34.5v139q0 19 13 32t31 13h91h25q11 0 21 0.5t20.5 3t24.5 8.5q5 3 8.5 -3.5t3.5 -18.5q0 -11 -4.5 -26t-14.5 -28q-12 -16 -32.5 -27t-52.5 -12h-32v-74h145v-57q0 -18 -13 -31t-33 -13h-174q-20 1 -45 -4.5t-45 -16.5zM133 148v1080 q0 24 9 45t25 36.5t36.5 25t44.5 9.5h147v-1081q0 -24 -9 -44.5t-24 -36.5t-36 -25t-45 -9h-148z" />
<glyph unicode="&#x624;" horiz-adv-x="853" d="M50 263v579q0 24 9 44.5t24.5 36.5t36 25t44.5 9h513q24 0 44.5 -9t36.5 -25t25 -36.5t9 -44.5v-481q0 -94 -16.5 -161.5t-45.5 -115.5t-68.5 -79.5t-86 -53.5t-97 -37.5t-102.5 -31t-102 -35.5t-95 -50q-11 -8 -16.5 -3t-4.5 19.5t9 35.5t24 47q19 31 44 54t52.5 42 t56.5 36t56.5 34.5t52 38t44.5 47.5h-333q-24 0 -44.5 9t-36 25t-24.5 36.5t-9 44.5zM185 1057q23 36 50.5 66.5t69.5 44.5v173q0 23 16.5 40t39.5 17h115q19 0 32 -0.5t25 0.5t25 4.5t31 11.5q7 3 11.5 -6t4.5 -24t-6 -33.5t-20 -35.5q-15 -19 -40.5 -32t-64.5 -14h-41v-93 h182v-72q0 -23 -16.5 -39.5t-39.5 -16.5h-219q-26 2 -57.5 -4.5t-57.5 -20.5zM312 411h218v282h-218v-282z" />
<glyph unicode="&#x625;" horiz-adv-x="456" d="M23 -227q19 29 40.5 53.5t55.5 34.5v138q0 20 12.5 33t31.5 13h91h25q11 0 21 0.5t20 3t25 8.5q5 3 8 -3.5t3 -18.5t-4 -26.5t-14 -28.5q-12 -16 -32.5 -26.5t-52.5 -11.5h-32v-74h144v-57q0 -19 -13 -32t-32 -13h-174q-20 2 -45 -3.5t-45 -16.5zM133 148v1080q0 24 9 45 t25 36.5t36.5 25t44.5 9.5h147v-1081q0 -24 -9 -44.5t-24 -36.5t-36 -25t-45 -9h-148z" />
<glyph unicode="&#x626;" horiz-adv-x="1222" d="M6 891q23 37 50.5 67.5t69.5 44.5v173q0 23 16.5 39.5t39.5 16.5h115h32t25 1t25 4.5t31 11.5q7 3 11.5 -6t4.5 -24t-6 -33.5t-20 -35.5q-15 -20 -40.5 -33t-64.5 -13h-41v-94h182v-72q0 -23 -16.5 -39t-40.5 -16h-218q-26 2 -57.5 -5t-57.5 -21zM157 267v408q0 24 9 45 t24.5 36.5t36 24.5t44.5 9h147v-376h481v153h-165q-29 -1 -57.5 4t-52 19.5t-38 40t-14.5 65.5v153q0 48 22.5 86.5t58 70t78 58t82 52t72 51.5t46.5 56q8 16 18 8.5t16 -33t6 -66.5q0 -40 -12.5 -89.5t-40 -104.5t-76.5 -109h205q23 0 44 -9.5t36.5 -25t24.5 -36.5t9 -44 v-447q0 -24 -9 -44.5t-24.5 -36.5t-36.5 -25t-44 -9h-776q-24 0 -44.5 9t-36 25t-24.5 36.5t-9 44.5z" />
<glyph unicode="&#x627;" horiz-adv-x="456" d="M133 148v1080q0 24 9 45t25 36.5t36.5 25t44.5 9.5h147v-1081q0 -24 -9 -44.5t-24 -36.5t-36 -25t-45 -9h-148z" />
<glyph unicode="&#x628;" horiz-adv-x="1096" d="M30.5 340.5q-0.5 50.5 21.5 100.5q15 33 25 44t21 -8q14 -26 47 -39.5t72.5 -19.5t79.5 -6.5t67 -0.5h409v546h148q24 0 44.5 -9t36 -25t24.5 -36.5t9 -44.5v-579q0 -24 -9 -44.5t-24.5 -36.5t-36 -25t-44.5 -9h-665q-77 2 -126 29.5t-74 69.5q-25 43 -25.5 93.5z M402 -114q0 28 10.5 53t29 43.5t43.5 29.5t53 11t52.5 -11t43 -29.5t29.5 -43.5t11 -53t-11 -53t-29.5 -43.5t-43 -29t-52.5 -10.5t-53 10.5t-43.5 29t-29 43.5t-10.5 53z" />
<glyph unicode="&#x629;" horiz-adv-x="857" d="M53 263v579q0 24 9 44.5t25 36.5t36.5 25t44.5 9h513q24 0 45 -9t36.5 -25t24.5 -36.5t9 -44.5v-579q0 -24 -9 -44.5t-24.5 -36.5t-36.5 -25t-45 -9h-513q-24 0 -44.5 9t-36.5 25t-25 36.5t-9 44.5zM141 1216q0 28 10.5 53t29 43.5t43.5 29t53 10.5t52.5 -10.5t43 -29 t29.5 -43.5t11 -53t-11 -53t-29.5 -43.5t-43 -29.5t-52.5 -11t-53 11t-43.5 29.5t-29 43.5t-10.5 53zM317 411h216v282h-216v-282zM449 1216q0 28 11 53t29.5 43.5t43.5 29t53 10.5t52.5 -10.5t43 -29t29 -43.5t10.5 -53t-10.5 -53t-29 -43.5t-43 -29.5t-52.5 -11t-53 11 t-43.5 29.5t-29.5 43.5t-11 53z" />
<glyph unicode="&#x62a;" horiz-adv-x="1096" d="M31 334q-2 54 21 107q15 33 25 44t21 -8q14 -26 47 -39.5t72.5 -19.5t79.5 -6.5t67 -0.5h409v546h148q24 0 44.5 -9t36 -25t24.5 -36.5t9 -44.5v-579q0 -24 -9 -44.5t-24.5 -36.5t-36 -25t-44.5 -9h-665q-72 2 -119.5 26.5t-73.5 62.5q-30 43 -32 97zM98 971 q0 28 10.5 53.5t29 44t43.5 29.5t53 11t53 -11t43.5 -29.5t29.5 -44t11 -53.5t-11 -52.5t-29.5 -43t-43.5 -29t-53 -10.5t-53 10.5t-43.5 29t-29 43t-10.5 52.5zM406 971q0 28 10.5 53.5t29 44t43.5 29.5t53 11t53 -11t43.5 -29.5t29.5 -44t11 -53.5t-11 -52.5t-29.5 -43 t-43.5 -29t-53 -10.5t-53 10.5t-43.5 29t-29 43t-10.5 52.5z" />
<glyph unicode="&#x62b;" horiz-adv-x="1096" d="M31 333.5q-2 54.5 21 107.5q15 33 25 44t21 -8q14 -26 47 -39.5t72.5 -19.5t79.5 -6.5t67 -0.5h409v546h148q24 0 44.5 -9t36 -25t24.5 -36.5t9 -44.5v-579q0 -24 -9 -44.5t-24.5 -36.5t-36 -25t-44.5 -9h-665q-71 2 -118.5 26t-73.5 61q-31 44 -33 98.5zM102 932 q0 28 10.5 53t29 43.5t43.5 29.5t53 11t52.5 -11t43 -29.5t29.5 -43.5t11 -53t-11 -53t-29.5 -43.5t-43 -29t-52.5 -10.5t-53 10.5t-43.5 29t-29 43.5t-10.5 53zM253 1211q0 28 10.5 52.5t29 43t43.5 29.5t53 11t53 -11t43.5 -29.5t29 -43t10.5 -52.5t-10.5 -53t-29 -43.5 t-43.5 -29.5t-53 -11t-53 11t-43.5 29.5t-29 43.5t-10.5 53zM410 932q0 28 11 53t29.5 43.5t43 29.5t52.5 11t53 -11t43.5 -29.5t29 -43.5t10.5 -53t-10.5 -53t-29 -43.5t-43.5 -29t-53 -10.5t-52.5 10.5t-43 29t-29.5 43.5t-11 53z" />
<glyph unicode="&#x62c;" horiz-adv-x="974" d="M39 148q-7 50 5.5 97.5t47.5 88.5q21 25 46 39.5t52 22t56 10.5t59 5h339q0 61 -17.5 101.5t-47.5 66.5t-69 41.5t-81 28.5q-42 12 -85 26t-80.5 36t-67 56.5t-44.5 88.5q-9 30 -8.5 57t6.5 46t16 27.5t20 2.5q49 -32 101.5 -49t105 -27.5t104.5 -19.5t102 -25 q101 -35 166 -101t100 -151q35 -84 43.5 -175.5t-1.5 -177.5q-3 -24 -12 -44.5t-24 -36.5t-34.5 -25t-43.5 -9h-431q-33 -1 -39.5 -15t0 -33.5t19.5 -40t19 -33.5q21 -42 33 -88t13 -93q1 -30 -3 -52.5t-10.5 -35.5t-14 -14t-13.5 11q-14 30 -44.5 59t-66.5 56 q-38 29 -73.5 56.5t-65 59.5t-50 71.5t-27.5 91.5zM501 -114q0 28 11 53t29.5 43.5t43.5 29.5t53 11t52.5 -11t43 -29.5t29 -43.5t10.5 -53t-10.5 -53t-29 -43.5t-43 -29t-52.5 -10.5t-53 10.5t-43.5 29t-29.5 43.5t-11 53z" />
<glyph unicode="&#x62d;" horiz-adv-x="974" d="M39 148q-7 50 5.5 97.5t47.5 88.5q21 25 46 39.5t52 22t56 10.5t59 5h339q0 61 -17.5 101t-47.5 66t-69 42t-81.5 28.5t-85.5 26.5t-80.5 36t-66.5 56.5t-44 88.5q-9 30 -8.5 57t6.5 46t16 27.5t20 2.5q49 -32 101.5 -49t105 -27.5t104.5 -19.5t102 -25q67 -23 118 -61 t87.5 -86t59.5 -104.5t35 -116t13.5 -120t-5.5 -117.5q-3 -24 -12 -44.5t-24 -36.5t-34.5 -25t-43.5 -9h-431q-33 -1 -39.5 -15t0 -33.5t19.5 -40t19 -33.5q21 -42 33 -88t13 -93q1 -30 -3 -52.5t-10.5 -35.5t-14 -14t-13.5 11q-14 30 -44.5 59t-66.5 56q-38 29 -73.5 56.5 t-65 59.5t-50 71.5t-27.5 91.5z" />
<glyph unicode="&#x62e;" horiz-adv-x="974" d="M39 148q-7 50 5.5 97.5t47.5 88.5q21 25 46 39.5t52 22t56 10.5t59 5h339q0 61 -17.5 101t-47.5 66t-69 42t-81.5 28.5t-85.5 26.5t-80.5 36t-66.5 56.5t-44 88.5q-9 30 -8.5 57t6.5 46t16 27.5t20 2.5q49 -32 101.5 -49t105 -27.5t104.5 -19.5t102 -25q67 -23 118 -61 t87.5 -86t59.5 -104.5t35 -116t13.5 -120t-5.5 -117.5q-3 -24 -12 -44.5t-24 -36.5t-34.5 -25t-43.5 -9h-431q-33 -1 -39.5 -15t0 -33.5t19.5 -40t19 -33.5q21 -42 33 -88t13 -93q1 -30 -3 -52.5t-10.5 -35.5t-14 -14t-13.5 11q-14 30 -44.5 59t-66.5 56q-38 29 -73.5 56.5 t-65 59.5t-50 71.5t-27.5 91.5zM260 1216q0 28 11 53t29.5 43.5t43.5 29t53 10.5t52.5 -10.5t43 -29t29 -43.5t10.5 -53t-10.5 -53t-29 -43.5t-43 -29.5t-52.5 -11t-53 11t-43.5 29.5t-29.5 43.5t-11 53z" />
<glyph unicode="&#x62f;" horiz-adv-x="868" d="M34 263v148h511v282h-145q-78 2 -137 28t-101 64q-39 35 -63.5 74t-35.5 70.5t-8.5 50t16.5 11.5q37 -16 87 -23t103.5 -9t105.5 -1.5t91 -0.5h235q24 0 44.5 -9t36 -25t24.5 -36.5t9 -44.5v-579q0 -24 -9 -44.5t-24.5 -36.5t-36 -25t-44.5 -9h-545q-24 0 -44.5 9t-36 25 t-24.5 36.5t-9 44.5z" />
<glyph unicode="&#x630;" horiz-adv-x="868" d="M34 263v148h511v282h-145q-78 2 -137 28t-101 64q-39 35 -63.5 74t-35.5 70.5t-8.5 50t16.5 11.5q37 -16 87 -23t103.5 -9t105.5 -1.5t91 -0.5h235q24 0 44.5 -9t36 -25t24.5 -36.5t9 -44.5v-579q0 -24 -9 -44.5t-24.5 -36.5t-36 -25t-44.5 -9h-545q-24 0 -44.5 9t-36 25 t-24.5 36.5t-9 44.5zM147 1216q0 28 10.5 53t29 43.5t43.5 29t53 10.5t53 -10.5t43.5 -29t29 -43.5t10.5 -53t-10.5 -53t-29 -43.5t-43.5 -29.5t-53 -11t-53 11t-43.5 29.5t-29 43.5t-10.5 53z" />
<glyph unicode="&#x631;" horiz-adv-x="704" d="M3 -186.5q1 14.5 9 35.5t24 47q19 31 43.5 54t52 42.5t56 37t55.5 35.5q23 16 44 34t37.5 41.5t28 52t16.5 65.5q4 33 6 71t0 82v546h148q24 0 44.5 -9t36.5 -25t25 -36.5t9 -44.5v-481q0 -77 -11.5 -136t-32 -104t-48.5 -77.5t-62 -56.5q-49 -34 -107 -54.5t-119 -38.5 t-121 -39.5t-113 -57.5q-11 -8 -16.5 -3t-4.5 19.5z" />
<glyph unicode="&#x632;" horiz-adv-x="704" d="M3 -186.5q1 14.5 9 35.5t24 47q19 31 43.5 54t52 42.5t56 37t55.5 35.5q23 16 44 34t37.5 41.5t28 52t16.5 65.5q4 33 6 71t0 82v546h148q24 0 44.5 -9t36.5 -25t25 -36.5t9 -44.5v-481q0 -77 -11.5 -136t-32 -104t-48.5 -77.5t-62 -56.5q-49 -34 -107 -54.5t-119 -38.5 t-121 -39.5t-113 -57.5q-11 -8 -16.5 -3t-4.5 19.5zM371 1216q0 28 10.5 53t29 43.5t43 29t52.5 10.5t53 -10.5t43.5 -29t29.5 -43.5t11 -53t-11 -53t-29.5 -43.5t-43.5 -29.5t-53 -11t-52.5 11t-43 29.5t-29 43.5t-10.5 53z" />
<glyph unicode="&#x633;" horiz-adv-x="1757" d="M40.5 299.5q4.5 7.5 13.5 8t20 -4t19 -10.5q25 -17 62 -35t80.5 -25t90.5 2t92 45q23 19 35 43.5t17 51.5t5.5 56t0.5 57v354q0 24 9 44.5t24.5 36.5t36.5 25t45 9h148v-546h215v431q0 24 9.5 44.5t25 36.5t36.5 25t45 9h147v-546h218v546h148q23 0 43.5 -9t36 -25 t24.5 -36.5t9 -44.5v-579q0 -24 -9 -44.5t-24.5 -36.5t-36 -25t-43.5 -9h-917q-23 -32 -57 -56.5t-75 -40t-87 -22t-92 -3.5q-51 4 -100 20.5t-91 47t-74 75.5t-49 105q-5 18 -0.5 25.5z" />
<glyph unicode="&#x634;" horiz-adv-x="1757" d="M40.5 299.5q4.5 7.5 13.5 8t20 -4t19 -10.5q25 -17 62 -35t80.5 -25t90.5 2t92 45q23 19 35 43.5t17 51.5t5.5 56t0.5 57v354q0 24 9 44.5t24.5 36.5t36.5 25t45 9h148v-546h215v431q0 24 9.5 44.5t25 36.5t36.5 25t45 9h147v-546h218v546h148q23 0 43.5 -9t36 -25 t24.5 -36.5t9 -44.5v-579q0 -24 -9 -44.5t-24.5 -36.5t-36 -25t-43.5 -9h-917q-23 -32 -57 -56.5t-75 -40t-87 -22t-92 -3.5q-51 4 -100 20.5t-91 47t-74 75.5t-49 105q-5 18 -0.5 25.5zM801 1216q0 28 11 53t29.5 43.5t43.5 29t53 10.5t53 -10.5t43.5 -29t29 -43.5 t10.5 -53t-10.5 -53t-29 -43.5t-43.5 -29.5t-53 -11t-53 11t-43.5 29.5t-29.5 43.5t-11 53zM953 1493q0 28 10.5 53.5t29 44t43 29.5t52.5 11t53 -11t43.5 -29.5t29.5 -44t11 -53.5t-11 -52.5t-29.5 -43t-43.5 -29t-53 -10.5t-52.5 10.5t-43 29t-29 43t-10.5 52.5z M1109 1216q0 28 11 53t29.5 43.5t43.5 29t53 10.5t53 -10.5t43.5 -29t29 -43.5t10.5 -53t-10.5 -53t-29 -43.5t-43.5 -29.5t-53 -11t-53 11t-43.5 29.5t-29.5 43.5t-11 53z" />
<glyph unicode="&#x635;" horiz-adv-x="1749" d="M39 299.5q4 7.5 13 8t20 -4t19 -10.5q25 -17 62 -35t80.5 -25t90.5 2t92 45q15 12 25.5 37t17 57t9.5 67.5t4.5 69t1.5 61.5v47v230q0 24 9 45t25 36.5t37 24.5t45 9h146v-140q21 43 48 69.5t60.5 40.5t73 18.5t85.5 4.5h570q24 0 44.5 -9t36.5 -24.5t25 -36.5t9 -45 v-579q0 -24 -9 -44.5t-25 -36.5t-36.5 -25t-44.5 -9h-940q-24 -33 -58.5 -57.5t-75 -40t-85 -21.5t-89.5 -1q-46 5 -90 22t-82 47t-67.5 74t-45.5 103q-5 18 -1 25.5zM736 411h688v284h-447q-64 -1 -111 -29t-77 -70t-43.5 -91.5t-9.5 -93.5z" />
<glyph unicode="&#x636;" horiz-adv-x="1749" d="M39 299.5q4 7.5 13 8t20 -4t19 -10.5q25 -17 62 -35t80.5 -25t90.5 2t92 45q15 12 25.5 37t17 57t9.5 67.5t4.5 69t1.5 61.5v47v230q0 24 9 45t25 36.5t37 24.5t45 9h146v-140q21 43 48 69.5t60.5 40.5t73 18.5t85.5 4.5h570q24 0 44.5 -9t36.5 -24.5t25 -36.5t9 -45 v-579q0 -24 -9 -44.5t-25 -36.5t-36.5 -25t-44.5 -9h-940q-24 -33 -58.5 -57.5t-75 -40t-85 -21.5t-89.5 -1q-46 5 -90 22t-82 47t-67.5 74t-45.5 103q-5 18 -1 25.5zM736 411h688v284h-447q-64 -1 -111 -29t-77 -70t-43.5 -91.5t-9.5 -93.5zM913 1216q0 28 11 53t29.5 43.5 t43.5 29t53 10.5t53 -10.5t43.5 -29t29 -43.5t10.5 -53t-10.5 -53t-29 -43.5t-43.5 -29.5t-53 -11t-53 11t-43.5 29.5t-29.5 43.5t-11 53z" />
<glyph unicode="&#x637;" horiz-adv-x="1616" d="M31 345.5q1 48.5 22 95.5q15 33 25 44t21 -8q12 -23 40.5 -36.5t64 -20t72 -8t65.5 -1.5v817q0 24 9 45t24.5 36.5t37 25t45.5 9.5h147v-387h836q24 0 44.5 -9t36.5 -24.5t25 -36.5t9 -45v-579q0 -24 -9 -44.5t-25 -36.5t-36.5 -25t-44.5 -9h-1182q-81 2 -131.5 32 t-74.5 75q-22 42 -21 90.5zM604 411h688v284h-688v-284z" />
<glyph unicode="&#x638;" horiz-adv-x="1616" d="M31.5 336.5q-1.5 53.5 21.5 104.5q15 33 25 44t21 -8q12 -23 40.5 -36.5t64 -20t72 -8t65.5 -1.5v817q0 24 9 45t24.5 36.5t37 25t45.5 9.5h147v-387h836q24 0 44.5 -9t36.5 -24.5t25 -36.5t9 -45v-579q0 -24 -9 -44.5t-25 -36.5t-36.5 -25t-44.5 -9h-1182q-74 2 -122 27 t-74 65q-29 43 -30.5 96.5zM604 411h688v284h-688v-284zM835 1216q0 28 10.5 53t29 43.5t43.5 29t53 10.5t53 -10.5t43.5 -29t29.5 -43.5t11 -53t-11 -53t-29.5 -43.5t-43.5 -29.5t-53 -11t-53 11t-43.5 29.5t-29 43.5t-10.5 53z" />
<glyph unicode="&#x639;" horiz-adv-x="1072" d="M45 148q-6 50 5.5 97.5t46.5 88.5q23 26 54 44t87 29v435q0 24 9 44.5t24.5 36.5t36 25t43.5 9h235q40 1 91.5 0.5t105 1.5t104 9t87.5 23q14 6 16 -13t-10 -51.5t-37.5 -72.5t-67 -75.5t-99 -59.5t-132.5 -26h-145v-282h512v-148q0 -24 -9 -44.5t-24.5 -36.5t-36.5 -25 t-45 -9h-528q-33 -1 -39.5 -15t-0.5 -33.5t19 -40t19 -33.5q21 -42 33.5 -88t13.5 -93q0 -30 -4 -52.5t-10.5 -35.5t-14 -14t-13.5 11q-14 30 -44 59t-66 56q-38 29 -74 56.5t-65.5 59.5t-50 71.5t-26.5 91.5z" />
<glyph unicode="&#x63a;" horiz-adv-x="1072" d="M45 148q-6 50 5.5 97.5t46.5 88.5q23 26 54 44t87 29v435q0 24 9 44.5t24.5 36.5t36 25t43.5 9h235q40 1 91.5 0.5t105 1.5t104 9t87.5 23q14 6 16 -13t-10 -51.5t-37.5 -72.5t-67 -75.5t-99 -59.5t-132.5 -26h-145v-282h512v-148q0 -24 -9 -44.5t-24.5 -36.5t-36.5 -25 t-45 -9h-528q-33 -1 -39.5 -15t-0.5 -33.5t19 -40t19 -33.5q21 -42 33.5 -88t13.5 -93q0 -30 -4 -52.5t-10.5 -35.5t-14 -14t-13.5 11q-14 30 -44 59t-66 56q-38 29 -74 56.5t-65.5 59.5t-50 71.5t-26.5 91.5zM449 1216q0 28 11 53t29.5 43.5t43.5 29t53 10.5t52.5 -10.5 t43 -29t29 -43.5t10.5 -53t-10.5 -53t-29 -43.5t-43 -29.5t-52.5 -11t-53 11t-43.5 29.5t-29.5 43.5t-11 53z" />
<glyph unicode="&#x640;" horiz-adv-x="432" d="M-3 148v263h448v-263h-448z" />
<glyph unicode="&#x641;" horiz-adv-x="1294" d="M38.5 341q-0.5 51 21.5 100q14 33 24.5 44t20.5 -8q14 -26 47.5 -39.5t73 -19.5t79 -6.5t66.5 -0.5h120v431q0 24 9 44.5t24.5 36.5t36.5 25t45 9h513q23 0 44 -9t36.5 -25t24.5 -36.5t9 -44.5v-579q0 -24 -9 -44.5t-24.5 -36.5t-36.5 -25t-44 -9h-855q-77 2 -126.5 29.5 t-74 70t-25 93.5zM728 1216q0 28 10.5 53t29 43.5t43.5 29t53 10.5t53 -10.5t43.5 -29t29 -43.5t10.5 -53t-10.5 -53t-29 -43.5t-43.5 -29.5t-53 -11t-53 11t-43.5 29.5t-29 43.5t-10.5 53zM753 411h217v282h-217v-282z" />
<glyph unicode="&#x642;" horiz-adv-x="1107" d="M35.5 341q-0.5 51 21.5 100q15 33 25.5 44t21.5 -8q10 -20 31.5 -32t49.5 -19t59 -10t60 -4v430q0 24 9 44.5t24.5 36.5t36 25t44.5 9h513q24 0 44.5 -9t36.5 -25t25 -36.5t9 -44.5v-579q0 -24 -9 -44.5t-25 -36.5t-36.5 -25t-44.5 -9h-669q-77 2 -126.5 29.5t-74.5 70 t-25.5 93.5zM374 1216q0 28 11 53t29.5 43.5t43.5 29t53 10.5t52.5 -10.5t43 -29t29 -43.5t10.5 -53t-10.5 -53t-29 -43.5t-43 -29.5t-52.5 -11t-53 11t-43.5 29.5t-29.5 43.5t-11 53zM565 411h218v282h-218v-282zM682 1216q0 28 11 53t29.5 43.5t43.5 29t53 10.5 t52.5 -10.5t43 -29t29 -43.5t10.5 -53t-10.5 -53t-29 -43.5t-43 -29.5t-52.5 -11t-53 11t-43.5 29.5t-29.5 43.5t-11 53z" />
<glyph unicode="&#x643;" horiz-adv-x="1308" d="M32.5 341q-0.5 51 21.5 100q15 33 25 44t20 -8q14 -26 47.5 -39.5t73 -19.5t79.5 -6.5t67 -0.5h618v209h-572q-29 -1 -57.5 4t-51.5 19.5t-37.5 40.5t-14.5 66v153q0 48 22.5 86t57.5 69.5t77.5 58.5t82 52.5t71.5 51.5t46 56q8 16 18 8.5t16.5 -33t6.5 -66.5 q0 -40 -12.5 -89.5t-40.5 -104.5t-76 -109h612q24 0 44.5 -9t36.5 -25t25 -37t9 -45v-504q0 -24 -9 -44.5t-25 -36.5t-36.5 -25t-44.5 -9h-874q-77 2 -126.5 29.5t-74 70t-25 93.5z" />
<glyph unicode="&#x644;" horiz-adv-x="847" d="M43 263v579q0 24 9 44.5t25 36.5t37 25t44 9h148v-546h218v933h147q24 0 44.5 -9.5t36.5 -25t25 -36.5t9 -45v-965q0 -24 -9 -44.5t-25 -36.5t-36.5 -25t-44.5 -9h-513q-23 0 -44 9t-37 25t-25 36.5t-9 44.5z" />
<glyph unicode="&#x645;" horiz-adv-x="1057" d="M30 148q-5 50 6.5 97.5t46.5 88.5q13 15 27.5 27t34.5 21.5t46.5 16.5t62.5 12v431q0 24 9 44.5t24.5 36.5t36 25t44.5 9h513q24 0 44.5 -9t36.5 -25t25 -36.5t9 -44.5v-579q0 -24 -9 -44.5t-25 -36.5t-36.5 -25t-44.5 -9h-527q-33 -1 -40 -15t-1 -33.5t19 -40t20 -33.5 q20 -42 33 -88t13 -93q1 -30 -3 -52.5t-10.5 -35.5t-13.5 -14t-13 11q-14 30 -45 59t-66 56q-38 29 -74 56.5t-65.5 59.5t-50 71.5t-27.5 91.5zM516 411h217v282h-217v-282z" />
<glyph unicode="&#x646;" horiz-adv-x="852" d="M49 263v579q0 24 9 44.5t24.5 36.5t36.5 25t45 9h148v-546h217v546h148q24 0 44.5 -9t36 -25t24.5 -36.5t9 -44.5v-579q0 -24 -9 -44.5t-24.5 -36.5t-36 -25t-44.5 -9h-513q-24 0 -45 9t-36.5 25t-24.5 36.5t-9 44.5zM284 1216q0 28 10.5 53t29 43.5t43.5 29t53 10.5 t53 -10.5t43.5 -29t29.5 -43.5t11 -53t-11 -53t-29.5 -43.5t-43.5 -29.5t-53 -11t-53 11t-43.5 29.5t-29 43.5t-10.5 53z" />
<glyph unicode="&#x647;" horiz-adv-x="857" d="M53 263v579q0 24 9 44.5t25 36.5t36.5 25t44.5 9h513q24 0 45 -9t36.5 -25t24.5 -36.5t9 -44.5v-579q0 -24 -9 -44.5t-24.5 -36.5t-36.5 -25t-45 -9h-513q-24 0 -44.5 9t-36.5 25t-25 36.5t-9 44.5zM317 411h216v282h-216v-282z" />
<glyph unicode="&#x648;" horiz-adv-x="853" d="M50 263v579q0 24 9 44.5t24.5 36.5t36 25t44.5 9h513q24 0 44.5 -9t36.5 -25t25 -36.5t9 -44.5v-481q0 -94 -16.5 -161.5t-45.5 -115.5t-68.5 -79.5t-86 -53.5t-97 -37.5t-102.5 -31t-102 -35.5t-95 -50q-11 -8 -16.5 -3t-4.5 19.5t9 35.5t24 47q19 31 44 54t52.5 42 t56.5 36t56.5 34.5t52 38t44.5 47.5h-333q-24 0 -44.5 9t-36 25t-24.5 36.5t-9 44.5zM312 411h218v282h-218v-282z" />
<glyph unicode="&#x649;" horiz-adv-x="1115" d="M50 267v408q0 24 9 45t24.5 36.5t36 24.5t44.5 9h147v-376h481v153h-165q-29 -1 -57.5 4t-52 19.5t-38 40t-14.5 65.5v153q0 48 22.5 86.5t58 70t78 58t82 52t72 51.5t46.5 56q8 16 18 8.5t16 -33t6 -66.5q0 -40 -12.5 -89.5t-40 -104.5t-76.5 -109h205q23 0 44 -9.5 t36.5 -25t24.5 -36.5t9 -44v-447q0 -24 -9 -44.5t-24.5 -36.5t-36.5 -25t-44 -9h-776q-24 0 -44.5 9t-36 25t-24.5 36.5t-9 44.5z" />
<glyph unicode="&#x64a;" horiz-adv-x="1115" d="M50 267v408q0 24 9 45t24.5 36.5t36 24.5t44.5 9h147v-376h481v153h-165q-29 -1 -57.5 4t-52 19.5t-38 40t-14.5 65.5v153q0 48 22.5 86.5t58 70t78 58t82 52t72 51.5t46.5 56q8 16 18 8.5t16 -33t6 -66.5q0 -40 -12.5 -89.5t-40 -104.5t-76.5 -109h205q23 0 44 -9.5 t36.5 -25t24.5 -36.5t9 -44v-447q0 -24 -9 -44.5t-24.5 -36.5t-36.5 -25t-44 -9h-776q-24 0 -44.5 9t-36 25t-24.5 36.5t-9 44.5zM252 -89q0 28 11 53t29.5 43.5t43.5 29.5t53 11t53 -11t43.5 -29.5t29 -43.5t10.5 -53t-10.5 -53t-29 -43.5t-43.5 -29t-53 -10.5t-53 10.5 t-43.5 29t-29.5 43.5t-11 53zM561 -89q0 28 10.5 53t29 43.5t43.5 29.5t53 11t53 -11t43.5 -29.5t29 -43.5t10.5 -53t-10.5 -53t-29 -43.5t-43.5 -29t-53 -10.5t-53 10.5t-43.5 29t-29 43.5t-10.5 53z" />
<glyph unicode="&#x64b;" horiz-adv-x="408" d="M49 1482l17 91l340 193l-17 -91zM63 1649l17 91l340 193l-17 -91z" />
<glyph unicode="&#x64c;" horiz-adv-x="469" d="M45 1619q19 27 44.5 43.5t50.5 22t47 -1t34 -24.5t10.5 -48t-23.5 -72q46 20 85.5 44t71.5 62q-41 10 -60.5 31.5t-22 47.5t8 53t30 49.5t44 36t49.5 12.5q21 -2 28 -24.5t6.5 -51t-6 -55.5t-8.5 -37l38 -12l-17 -76l-46 13q-6 -14 -19.5 -33.5t-32 -40t-40.5 -39.5 t-45.5 -31t-47.5 -15t-46 8t-24 31.5t3 42t10.5 42t-2 32t-34.5 10.5t-86 -20zM334 1773q-2 -11 3 -19t14 -14t20.5 -11.5t24.5 -11.5q2 19 2 35q0 14 -2.5 26.5t-7.5 16.5v-2q-10 10 -23 10q-14 1 -22.5 -8.5t-8.5 -21.5z" />
<glyph unicode="&#x64d;" horiz-adv-x="408" d="M38 -509l17 91l340 193l-17 -91zM65 -341l17 91l340 193l-17 -91z" />
<glyph unicode="&#x64e;" horiz-adv-x="408" d="M49 1482l17 91l340 193l-17 -91z" />
<glyph unicode="&#x64f;" horiz-adv-x="414" d="M13 1507q61 25 105.5 43t79 36t62.5 39.5t56 54.5q-47 11 -69 34t-25.5 51t9 57.5t34 53.5t49.5 38.5t56 13.5q16 -1 25 -12.5t12.5 -29t2.5 -39t-3.5 -41.5t-6.5 -36.5t-7 -24.5l44 -13l-19 -80l-52 12q-11 -23 -37.5 -52.5t-62.5 -55t-78.5 -42.5t-85.5 -15 q-29 2 -47.5 3t-28.5 2t-12.5 1.5t-0.5 1.5zM279 1818q-2 -25 20 -37t51 -23q2 20 2 38q0 15 -2 28.5t-9 18.5v-2q-5 6 -12 8t-12 2q-17 2 -27 -8.5t-11 -24.5z" />
<glyph unicode="&#x650;" horiz-adv-x="408" d="M55 -341l17 91l340 193l-17 -91z" />
<glyph unicode="&#x651;" horiz-adv-x="425" d="M59.5 1603.5q-1.5 27.5 2 53.5t10.5 47.5t14 31.5q0 -3 5 1t11.5 9t11.5 8.5t5 0.5q-8 -20 -13.5 -46.5t-3 -50t14 -39.5t37.5 -15q29 0 44.5 16t23.5 37.5t12.5 44.5t12.5 38q1 -3 5 0t9 7.5t9.5 8t5.5 0.5q-8 -29 -2.5 -54t19.5 -40t35.5 -18t46.5 14q6 9 5.5 22 t-4.5 26.5t-11 27t-14 23.5q13 18 24.5 34t22.5 32q11 -17 17.5 -36t11.5 -38q6 -33 3 -67t-15 -62t-33 -45.5t-51 -17.5q-25 0 -37.5 9t-27.5 23q-6 -10 -15 -23t-22 -25t-31 -21t-40 -11q-35 -3 -56 10t-31 35t-11.5 49.5z" />
<glyph unicode="&#x652;" horiz-adv-x="328" d="M59 1556q-5 33 3.5 75.5t27 81.5t46 67t59.5 33q28 4 54 -6.5t46.5 -28.5t34.5 -40.5t17 -41.5q5 -34 -10 -71.5t-41 -87.5v1q0 1 1 2l-3 -5q-24 -14 -61.5 -26.5t-74 -15t-65 11t-34.5 51.5zM123 1643q3 -22 21 -32.5t42 -11t50 6.5t46 21l1 1q-3 14 -13.5 30t-25 29.5 t-31.5 22t-35 5.5q-30 -5 -44 -27t-11 -45zM294 1535q1 0 1 1q0 -1 -1 -1zM295 1536l1 1q0 -1 -1 -1z" />
<glyph unicode="&#x660;" horiz-adv-x="1131" d="M363 459l110 373l278 -261l-92 -362z" />
<glyph unicode="&#x661;" horiz-adv-x="1131" d="M282 1112l128 278q26 -22 55 -71t58 -118t57 -154t51 -179t41 -193.5t27 -197t8 -190t-14 -172.5h-110q-14 103 -31.5 210.5t-49.5 228t-84.5 258t-135.5 300.5z" />
<glyph unicode="&#x662;" horiz-adv-x="1131" d="M147 1081l123 284q35 -46 80 -92t92 -81.5t94 -54.5t86.5 -9t69.5 54t43 134h103q13 -42 18.5 -81t5.5 -74q0 -80 -27.5 -144t-75 -103.5t-110 -50t-132.5 16.5q22 -98 45 -194t35 -191.5t8 -190.5t-36 -189h-113q6 67 -2 146t-28 164t-49.5 173t-66 173t-78 164 t-85.5 146z" />
<glyph unicode="&#x663;" horiz-adv-x="1131" d="M107 1082q19 62 31.5 102.5t21 67.5t14 45t10.5 34h75q18 -49 42 -87t51 -64.5t56 -40t58 -13.5q28 0 55 14t51 43.5t43.5 74.5t32.5 108q13 -18 25.5 -38t27 -39.5t31 -36t37.5 -26.5q26 -12 54.5 -11.5t53 21t42 62.5t20.5 112q42 -75 61.5 -134t19.5 -101 q0 -63 -27.5 -108t-71 -67.5t-98 -20t-108.5 33.5q-15 -45 -40 -75t-57 -47t-70 -21t-78 4q27 -100 51 -195.5t36.5 -188.5t8 -186t-34.5 -189h-113q6 67 -2 146t-28 164t-50 173.5t-66.5 173.5t-78.5 164t-86 146z" />
<glyph unicode="&#x664;" horiz-adv-x="1131" d="M283 830q1 86 29 154t65 118q26 34 62.5 65.5t77 59.5t82 52.5t78.5 43.5t66.5 32.5t44.5 19.5q-12 -64 -21 -126.5t-20 -125.5q-27 -6 -61.5 -20t-70 -33t-67.5 -39.5t-54 -39t-30.5 -33t4.5 -19.5h-2q25 -8 52.5 -15t65.5 -15.5t91.5 -18.5t130.5 -24l-73 -215 q-27 -23 -49.5 -38.5t-45 -34.5t-46.5 -47t-54 -75q1 -22 18 -37t45 -25.5t64 -17t74.5 -10t76.5 -4.5t71 -1l-72 -248q-118 8 -215.5 18.5t-167 33t-107.5 63t-38 108.5q0 9 4.5 34.5t27.5 68.5t71.5 104.5t135.5 143.5q-47 11 -89.5 21.5t-75.5 25.5t-54 38t-24 58z" />
<glyph unicode="&#x665;" horiz-adv-x="1131" d="M163 598q0 60 17 124.5t47.5 126.5t72.5 117.5t92.5 97.5t107.5 66.5t117 24.5q66 0 128.5 -35t112 -90.5t80.5 -125.5t32 -140q-4 -58 -29 -114.5t-66 -107.5t-94 -94.5t-111 -75t-119 -49t-118 -17.5q-58 0 -107.5 20t-85.5 58t-56.5 92t-20.5 122zM365 722 q-5 -42 5 -72.5t29.5 -50t47 -27.5t57.5 -6q60 4 106 22.5t78.5 42t53 48t30.5 40.5q-21 40 -42.5 75t-45.5 60t-52.5 39.5t-62.5 14.5q-40 0 -77 -19.5t-65.5 -48t-45.5 -61t-16 -57.5z" />
<glyph unicode="&#x666;" horiz-adv-x="1131" d="M136 1005l85 264q36 -33 82.5 -43.5t96.5 -8.5t100 12t93 16q20 3 43.5 6.5t47.5 6.5t46.5 5.5l40.5 4.5q-12 -68 -20 -151t-9 -171t7 -174.5t27.5 -161.5t52.5 -132.5t82 -87.5q-11 -73 -23.5 -147.5t-23.5 -149.5q-117 102 -182.5 212.5t-94.5 227t-29 237.5 q0 122 14 247q-49 -11 -104.5 -20.5t-112.5 -13t-113 1t-106 20.5z" />
<glyph unicode="&#x667;" horiz-adv-x="1131" d="M66 1062l64 370q109 -141 192 -260t144.5 -221t104 -189t70.5 -163q22 88 55.5 184.5t82.5 202.5t116.5 221t157.5 240v-404q-73 -92 -124.5 -192.5t-86.5 -194.5t-56.5 -174t-33.5 -132q-6 -18 -16.5 -44t-24.5 -53.5t-30 -53.5t-33 -43.5t-33.5 -23.5t-32.5 6 q-30 119 -83.5 242t-122 242t-148 230.5t-162.5 209.5z" />
<glyph unicode="&#x668;" horiz-adv-x="1131" d="M134 40v404q71 90 122 189t86.5 193t57.5 175.5t35 134.5q5 18 21 52.5t38.5 70.5t50 65.5t56.5 38.5q30 -121 73.5 -243.5t100.5 -240.5t127 -229t153 -208l-64 -371q-111 144 -187 260t-127 213t-82 178t-52 154q-23 -86 -57 -182t-83 -201t-115.5 -218.5 t-153.5 -234.5z" />
<glyph unicode="&#x669;" horiz-adv-x="1131" d="M184 881q0 59 12.5 118.5t36 114t56.5 102.5t74 83t89 55.5t102 20.5q40 0 70 -13t51 -32t35 -40t23 -37q27 -62 38 -121t15 -116.5t4 -116.5q0 -58 3 -119q10 -116 41 -226t83 -210l-75 -265q-183 113 -206 263q-11 70 -15.5 166t-5.5 220q-93 -26 -164 -42t-122 -16 t-80 18.5t-43.5 48.5t-18 68t-3.5 76zM380 964q6 -15 15.5 -24.5t23.5 -11.5l180 32q-9 23 -17 51.5t-16.5 54t-20 44t-28.5 21.5q-38 -9 -63.5 -29t-41.5 -44.5t-23.5 -49.5t-8.5 -44z" />
<glyph unicode="&#x66a;" horiz-adv-x="1026" d="M32 1214l183 183l183 -183l-183 -184zM285 -1l255 1373l180 160l-270 -1392zM606 412l183 183l183 -183l-183 -185z" />
<glyph unicode="&#x66d;" horiz-adv-x="815" d="M71 1074v68l214 18l-139 162l47 49l164 -139l17 213h68l17 -213l163 139l49 -49l-140 -162l214 -18v-68l-214 -17l140 -163l-49 -48l-163 139l-17 -214h-68l-17 214l-164 -139l-47 48l139 163z" />
<glyph unicode="&#x6f9;" horiz-adv-x="1033" d="M93 175v934h934v-934h-934zM223 304h675v675h-675v-675z" />
<glyph unicode="&#x2000;" horiz-adv-x="1067" />
<glyph unicode="&#x2001;" horiz-adv-x="2134" />
<glyph unicode="&#x2002;" horiz-adv-x="1067" />
<glyph unicode="&#x2003;" horiz-adv-x="2134" />
<glyph unicode="&#x2004;" horiz-adv-x="711" />
<glyph unicode="&#x2005;" horiz-adv-x="533" />
<glyph unicode="&#x2006;" horiz-adv-x="355" />
<glyph unicode="&#x2007;" horiz-adv-x="355" />
<glyph unicode="&#x2008;" horiz-adv-x="266" />
<glyph unicode="&#x2009;" horiz-adv-x="426" />
<glyph unicode="&#x200a;" horiz-adv-x="118" />
<glyph unicode="&#x200c;" horiz-adv-x="45" d="M10 -80v1631h25v-1631h-25z" />
<glyph unicode="&#x200d;" horiz-adv-x="45" d="M-102 1427l109 109l-109 108l16 16l109 -108l109 108l16 -16l-109 -108l109 -109l-16 -16l-97 96v-1587h-25v1586l-96 -95z" />
<glyph unicode="&#x200e;" horiz-adv-x="45" d="M8 -80v1631h234l-93 93l17 17l125 -124q-32 -33 -62.5 -63.5l-62.5 -62.5l-17 17l97 97h-213v-1605h-25z" />
<glyph unicode="&#x200f;" horiz-adv-x="45" d="M-246 1537l125 124l17 -17l-93 -93h234v-1631h-25v1605h-213l97 -97l-17 -17q-32 32 -62.5 63t-62.5 63z" />
<glyph unicode="&#x2010;" horiz-adv-x="593" d="M48 532v235h497v-235h-497z" />
<glyph unicode="&#x2011;" horiz-adv-x="593" d="M48 532v235h497v-235h-497z" />
<glyph unicode="&#x2012;" horiz-adv-x="593" d="M48 532v235h497v-235h-497z" />
<glyph unicode="&#x2013;" d="M0 553v192h990v-192h-990z" />
<glyph unicode="&#x2014;" horiz-adv-x="1782" d="M0 553v192h1782v-192h-1782z" />
<glyph unicode="&#x2018;" horiz-adv-x="359" d="M84 1248q0 19 7.5 36.5t20 30.5t29.5 20.5t37 7.5h78l10 -384q0 -19 -10.5 -33t-27 -23.5t-37 -14t-39.5 -4.5z" />
<glyph unicode="&#x2019;" horiz-adv-x="359" d="M104 959l10 384h77q19 0 36.5 -7.5t30 -20.5t20 -30.5t7.5 -36.5l-68 -364q-19 0 -39 4.5t-36.5 14t-27 23.5t-10.5 33z" />
<glyph unicode="&#x201a;" horiz-adv-x="447" d="M137 -25q40 5 63.5 42t23.5 96v37h-87v177h173v-206q0 -93 -44.5 -151.5t-128.5 -76.5v82z" />
<glyph unicode="&#x201c;" horiz-adv-x="620" d="M84 1248q0 19 7.5 36.5t20 30.5t29.5 20.5t37 7.5h78l10 -384q0 -19 -10.5 -33t-27 -23.5t-37 -14t-39.5 -4.5zM334 1248q0 19 7.5 36.5t20.5 30.5t30 20.5t36 7.5h77l11 -384q0 -19 -10.5 -33t-27 -23.5t-37 -14t-39.5 -4.5z" />
<glyph unicode="&#x201d;" horiz-adv-x="637" d="M97 959l11 384h77q19 0 36.5 -7.5t30 -20.5t20 -30.5t7.5 -36.5l-68 -364q-20 0 -40 4.5t-36.5 14t-27 23.5t-10.5 33zM347 959l11 384h78q19 0 36 -7.5t29.5 -20.5t20 -30.5t7.5 -36.5l-67 -364q-20 0 -40 4.5t-37 14t-27.5 23.5t-10.5 33z" />
<glyph unicode="&#x2022;" horiz-adv-x="613" d="M-1 515q0 129 88 217t216 88q127 0 215 -88t88 -217q0 -127 -88 -214.5t-215 -87.5q-128 0 -216 87.5t-88 214.5z" />
<glyph unicode="&#x202f;" horiz-adv-x="426" />
<glyph unicode="&#x205f;" horiz-adv-x="533" />
<glyph unicode="&#x2122;" horiz-adv-x="1782" d="M78 1276v76v77h610v-77v-76h-205v-576h-100h-100v576h-205zM826 700v729h135h136l170 -605l165 605h136h135v-729h-93h-94v664l-176 -664h-75h-75l-177 661v-661h-93h-94z" />
<glyph unicode="&#xe000;" horiz-adv-x="1095" d="M0 0v1095h1095v-1095h-1095z" />
<glyph unicode="&#xe820;" horiz-adv-x="408" d="M61 1032l17 91l340 193l-17 -91z" />
<glyph unicode="&#xe821;" horiz-adv-x="414" d="M-7 1047q61 25 105.5 43t79 36t62.5 39.5t56 54.5q-47 11 -69 34t-25.5 51t9 57.5t34 53.5t49.5 38.5t56 13.5q16 -1 25 -12.5t12.5 -29t2.5 -39t-3.5 -41.5t-6.5 -36.5t-7 -24.5l44 -13l-19 -80l-52 12q-11 -23 -37.5 -52.5t-62.5 -55t-78.5 -42.5t-85.5 -15 q-29 2 -47.5 3t-28.5 2t-12.5 1.5t-0.5 1.5zM259 1358q-2 -25 20 -37t51 -23q2 20 2 38q0 15 -2 28.5t-9 18.5v-2q-5 6 -12 8t-12 2q-17 2 -27 -8.5t-11 -24.5z" />
<glyph unicode="&#xe822;" horiz-adv-x="328" d="M56 1109q-5 33 3.5 75.5t27 81.5t46 67t59.5 33q28 4 54 -6.5t46.5 -28.5t34.5 -40.5t17 -41.5q5 -34 -10 -71.5t-41 -87.5v1q0 1 1 2l-3 -5q-24 -14 -61.5 -26.5t-74 -15t-65 11t-34.5 51.5zM120 1196q3 -22 21 -32.5t42 -11t50 6.5t46 21l1 1q-3 14 -13.5 30t-25 29.5 t-31.5 22t-35 5.5q-30 -5 -44 -27t-11 -45zM291 1088q1 0 1 1q0 -1 -1 -1zM292 1089l1 1q0 -1 -1 -1z" />
<glyph unicode="&#xe823;" horiz-adv-x="408" d="M51 1029l17 91l340 193l-17 -91zM65 1196l17 91l340 193l-17 -91z" />
<glyph unicode="&#xe824;" horiz-adv-x="469" d="M44 1194q19 27 44.5 43.5t50.5 22t47 -1t34 -24.5t10.5 -48t-23.5 -72q46 20 85.5 44t71.5 62q-41 10 -60.5 31.5t-22 47.5t8 53t30 49.5t44 36t49.5 12.5q21 -2 28 -24.5t6.5 -51t-6 -55.5t-8.5 -37l38 -12l-17 -76l-46 13q-6 -14 -19.5 -33.5t-32 -40t-40.5 -39.5 t-45.5 -31t-47.5 -15t-46 8t-24 31.5t3 42t10.5 42t-2 32t-34.5 10.5t-86 -20zM333 1348q-2 -11 3 -19t14 -14t20.5 -11.5t24.5 -11.5q2 19 2 35q0 14 -2.5 26.5t-7.5 16.5v-2q-10 10 -23 10q-14 1 -22.5 -8.5t-8.5 -21.5z" />
<glyph unicode="&#xe825;" horiz-adv-x="425" d="M57.5 1144.5q-1.5 27.5 2 53.5t10.5 47.5t14 31.5q0 -3 5 1t11.5 9t11.5 8.5t5 0.5q-8 -20 -13.5 -46.5t-3 -50t14 -39.5t37.5 -15q29 0 44.5 16t23.5 37.5t12.5 44.5t12.5 38q1 -3 5 0t9 7.5t9.5 8t5.5 0.5q-8 -29 -2.5 -54t19.5 -40t35.5 -18t46.5 14q6 9 5.5 22 t-4.5 26.5t-11 27t-14 23.5q13 18 24.5 34t22.5 32q11 -17 17.5 -36t11.5 -38q6 -33 3 -67t-15 -62t-33 -45.5t-51 -17.5q-25 0 -37.5 9t-27.5 23q-6 -10 -15 -23t-22 -25t-31 -21t-40 -11q-35 -3 -56 10t-31 35t-11.5 49.5z" />
<glyph unicode="&#xe826;" horiz-adv-x="408" d="M55 -341l17 91l340 193l-17 -91z" />
<glyph unicode="&#xe827;" horiz-adv-x="408" d="M38 -509l17 91l340 193l-17 -91zM65 -341l17 91l340 193l-17 -91z" />
<glyph unicode="&#xe828;" horiz-adv-x="425" d="M60 1259l17 91l340 193l-17 -91zM65 1140q0 21 4.5 39.5t9.5 29.5q0 -3 4.5 1.5t9.5 10.5t10 10.5t5 1.5q-5 -21 -7 -40t2 -32.5t17 -19t38 -0.5q28 5 41 23t17.5 40.5t5.5 46t6 39.5q1 -3 4.5 1t7.5 9t8 9.5t6 1.5q-3 -30 6.5 -54t26 -36.5t38 -11.5t42.5 21q4 10 2 23 t-8.5 25.5t-15.5 24.5t-18 21q5 10 14.5 15.5t20 10t20 9.5t15.5 13q5 -8 5.5 -12.5t-0.5 -8.5t-1.5 -8.5t3.5 -13.5q12 -32 14.5 -66t-5 -63.5t-25.5 -50.5t-47 -26q-25 -4 -39 3t-31 18q-4 -11 -10.5 -25.5t-18 -28.5t-27 -25.5t-37.5 -16.5q-34 -9 -56 -3.5t-35 20 t-17.5 35t-4.5 40.5z" />
<glyph unicode="&#xe829;" horiz-adv-x="425" d="M11 1347q60 20 103 34t77 28t61.5 31t54.5 43q-46 8 -67.5 26.5t-25 40.5t8.5 45t33 42t48.5 30.5t55.5 10.5q23 -1 31 -20t7.5 -43.5t-6.5 -47.5t-10 -33l43 -10l-19 -63l-50 10q-11 -18 -37 -41t-61.5 -43.5t-76.5 -34t-83 -11.5q-57 4 -75 4q-17 0 -12 2zM72.5 1188.5 q-0.5 26.5 3.5 48.5t9 33q0 -3 5 1.5t10.5 10.5t10 10t4.5 1q-5 -21 -6.5 -47.5t4 -49.5t19.5 -37.5t40 -9.5q28 5 41 23t18 40.5t6.5 45.5t6.5 39q1 -3 4.5 1t8 9t8 9.5t5.5 1.5q-3 -30 6 -54t25.5 -37t38 -12.5t43.5 20.5q4 10 2 23t-8.5 26t-15 25t-17.5 21 q11 20 19.5 37.5t17.5 34.5q13 -15 22.5 -33t17.5 -36q11 -32 13 -66t-6 -63.5t-26.5 -50t-47.5 -24.5q-25 -4 -38.5 3t-30.5 19q-4 -11 -11 -25t-18.5 -28t-27.5 -25.5t-38 -16.5q-34 -8 -56.5 1.5t-36 29.5t-19 47.5t-6 54zM271 1592q-2 -20 19 -29.5t50 -17.5q2 16 2 30 q0 11 -2 22t-9 14v-1q-5 5 -11.5 6.5t-11.5 1.5q-17 1 -26.5 -7t-10.5 -19z" />
<glyph unicode="&#xe82a;" horiz-adv-x="425" d="M70 1154q0 29 22 101l23 4q0 -111 39 -111q29 0 57.5 48t32.5 114l19 6q24 -98 61 -98q24 0 44 42.5t20 104.5l22 11q15 -51 15 -99q0 -76 -29.5 -121t-75.5 -45q-21 0 -64 21q-38 -87 -108 -87q-78 0 -78 109zM74 1283q0 45 12 65q12 17 54 42l272 160q0 -47 -8 -64.5 t-41 -36.5zM74 1433q0 45 12 65t54 44l272 159q0 -47 -8 -65t-41 -37z" />
<glyph unicode="&#xe82b;" horiz-adv-x="468" d="M40 1475q20 23 46.5 37.5t53 18.5t49.5 -1.5t35.5 -20.5t11 -40.5t-24.5 -61.5q48 17 89.5 38t75.5 53q-43 9 -63 27t-23.5 40t8 45t31.5 41.5t46 30t52 10.5q22 -2 29.5 -21t7 -43t-6 -46.5t-9.5 -31.5l40 -10l-18 -65l-48 11q-7 -12 -21 -28.5t-33 -34t-42 -33t-48 -26 t-50 -13t-48 6.5q-23 10 -25 27t3 36t11 36t-2 26.5t-36 9t-91 -17.5zM84.5 1190.5q-0.5 26.5 3.5 48.5t9 33q0 -3 5 1.5t10.5 10.5t10 10t4.5 1q-5 -21 -6.5 -47.5t4 -49.5t19.5 -37.5t40 -9.5q28 5 41 23t18 40.5t6.5 45.5t6.5 39q1 -3 4.5 1t8 9t8 9.5t5.5 1.5 q-3 -30 6 -54t25.5 -37t38 -12.5t43.5 20.5q4 10 2 23t-8.5 26t-15 25t-17.5 21q11 20 19.5 37.5t17.5 34.5q13 -15 22.5 -33t17.5 -36q11 -32 13 -66t-6 -63.5t-26.5 -50t-47.5 -24.5q-25 -4 -38.5 3t-30.5 19q-4 -11 -11 -25t-18.5 -28t-27.5 -25.5t-38 -16.5 q-34 -8 -56.5 1.5t-36 29.5t-19 47.5t-6 54zM343 1606q-2 -10 3.5 -16.5t14.5 -11.5t21.5 -9.5t25.5 -9.5q2 17 2 30q0 11 -2 21.5t-8 14.5v-2q-5 5 -12 6.5t-12 1.5q-14 1 -23.5 -7t-9.5 -18z" />
<glyph unicode="&#xe82c;" horiz-adv-x="425" d="M61.5 1400.5q0.5 26.5 4.5 49t10 32.5q0 -3 4.5 1.5l10.5 10.5t10.5 10t4.5 1q-6 -21 -8 -48t3 -50t18.5 -37.5t39.5 -10.5q29 4 42.5 21t19 39.5t7 46t7.5 39.5q1 -3 5 0.5t8.5 9t8 9.5t5.5 1q-4 -29 4 -53.5t24 -38t37 -13.5q22 0 45 20q5 10 3 22.5t-8 25.5 t-14.5 25.5t-16.5 21.5q11 20 20 37t19 34q12 -15 21.5 -33.5t16.5 -36.5q10 -32 11 -66t-7.5 -63t-27.5 -49t-48 -24q-25 -3 -38.5 4t-30.5 20q-4 -11 -11.5 -25t-19 -27.5t-28 -24.5t-38.5 -16q-34 -7 -56.5 3t-35 31t-17.5 48t-4.5 53.5zM72 1031l17 91l340 193l-17 -91z " />
<glyph unicode="&#xe82d;" horiz-adv-x="425" d="M35 1007l33 75l350 141l-33 -75zM45 1112l33 75l350 141l-33 -75zM60.5 1413.5q0.5 26.5 5 49t9.5 32.5q0 -3 4.5 1.5l10.5 10.5t10.5 10t4.5 1q-6 -21 -8 -48t3 -50t18.5 -37.5t39.5 -10.5q29 4 42.5 21t19 39.5t7 46t7.5 39.5q1 -3 5 0.5t8.5 9t8 9.5t5.5 1 q-4 -29 4 -53.5t24 -38t37 -13.5q22 0 45 20q5 10 3 22.5t-8 25.5t-14.5 25.5t-16.5 21.5q11 20 20 37t19 34q12 -15 21.5 -33.5t16.5 -36.5q10 -32 11 -66t-7.5 -63t-27.5 -49t-48 -24q-25 -3 -38.5 4t-30.5 20q-4 -11 -11.5 -25t-19 -27.5t-28 -24.5t-38.5 -16 q-34 -7 -56.5 3t-35 31t-17.5 48t-4.5 53.5z" />
<glyph unicode="&#xe832;" horiz-adv-x="408" d="M10 1222q5 23 8 38.5t7 38.5q99 52 191.5 101.5t191.5 102.5l-14 -77q-97 -51 -192 -101.5t-192 -102.5z" />
<glyph unicode="&#xe833;" horiz-adv-x="408" d="M5 967q5 23 8 38.5t7 38.5q99 52 191.5 101.5t191.5 102.5l-14 -77q-97 -51 -192 -101.5t-192 -102.5z" />
<glyph unicode="&#xe834;" horiz-adv-x="566" d="M-32 1437q-5 35 4 80.5t28.5 86.5t48 71.5t62.5 35.5q28 4 55 -6.5t48.5 -29.5t36 -42.5t17.5 -44.5q6 -33 -11 -74t-44 -93q-14 -8 -32.5 -16t-39.5 -15t-43 -11t-42 -4q-32 0 -57.5 14t-30.5 48zM20 1531q5 -30 29.5 -43.5t56.5 -13.5l112 38q-4 17 -17 37.5t-31 38 t-39 27.5t-42 7q-19 -3 -33 -12.5t-23 -22t-12 -27.5t-1 -29z" />
<glyph unicode="&#xe835;" horiz-adv-x="420" d="M26.5 1068.5q-1.5 27.5 2 53.5t10.5 47.5t14 31.5q0 -3 5 1t11.5 9t11.5 8.5t5 0.5q-8 -20 -13.5 -46.5t-3 -50t14 -39.5t37.5 -15q29 0 44.5 16t23.5 37.5t12.5 44.5t12.5 38q1 -3 5 0t9 7.5t9.5 8t5.5 0.5q-8 -29 -2.5 -54t19.5 -40t35.5 -18t46.5 14q6 9 5.5 22 t-4.5 26.5t-11 27t-14 23.5q13 18 24.5 34t22.5 32q11 -17 17.5 -36t11.5 -38q6 -33 3 -67t-15 -62t-33 -45.5t-51 -17.5q-25 0 -37.5 9t-27.5 23q-6 -10 -15 -23t-22 -25t-31 -21t-40 -11q-35 -3 -56 10t-31 35t-11.5 49.5z" />
<glyph unicode="&#xe836;" horiz-adv-x="381" d="M-41.5 1495.5q-1.5 27.5 2 53.5t10.5 47.5t14 31.5q0 -3 5 1t11.5 9t11.5 8.5t5 0.5q-8 -20 -13.5 -46.5t-3 -50t14 -39.5t37.5 -15q29 0 44.5 16t23.5 37.5t12.5 44.5t12.5 38q1 -3 5 0t9 7.5t9.5 8t5.5 0.5q-8 -29 -2.5 -54t19.5 -40t35.5 -18t46.5 14q6 9 5.5 22 t-4.5 26.5t-11 27t-14 23.5q13 18 24.5 34t22.5 32q11 -17 17.5 -36t11.5 -38q6 -33 3 -67t-15 -62t-33 -45.5t-51 -17.5q-25 0 -37.5 9t-27.5 23q-6 -10 -15 -23t-22 -25t-31 -21t-40 -11q-35 -3 -56 10t-31 35t-11.5 49.5z" />
<glyph unicode="&#xfd3e;" horiz-adv-x="593" d="M112 -52v1640h439v-172h-216v-1297h216v-171h-439z" />
<glyph unicode="&#xfd3f;" horiz-adv-x="593" d="M43 -52v171h215v1297h-215v172h438v-1640h-438z" />
<glyph unicode="&#xfeff;" horiz-adv-x="744" />
</font>
</defs>
</svg>
