<?xml version="1.0" standalone="no"?>
<!DOCTYPE svg PUBLIC "-//W3C//DTD SVG 1.1//EN" "http://www.w3.org/Graphics/SVG/1.1/DTD/svg11.dtd" >
<svg xmlns="http://www.w3.org/2000/svg">
<metadata></metadata>
<defs>
<font id="hacen_newspaperregular" horiz-adv-x="1025" >
<font-face units-per-em="2048" ascent="1638" descent="-410" />
<missing-glyph horiz-adv-x="500" />
<glyph unicode="&#x651;&#x64b;" horiz-adv-x="425" d="M50 1838l17 91l340 193l-17 -91zM61 1710l17 91l340 193l-17 -91zM66 1591q0 21 4.5 39.5t9.5 29.5q0 -3 4.5 1.5t9.5 10.5t10 10.5t5 1.5q-5 -21 -7 -40t2 -32.5t17 -19t38 -0.5q28 5 41 23t17.5 40.5t5.5 46t6 39.5q1 -3 4.5 1t7.5 9t8 9.5t6 1.5q-3 -30 6.5 -54 t26 -36.5t38 -11.5t42.5 21q4 10 2 23t-8.5 25.5t-15.5 24.5t-18 21q5 10 14.5 15.5t20 10t20 9.5t15.5 13q5 -8 5.5 -12.5t-0.5 -8.5t-1.5 -8.5t3.5 -13.5q12 -32 14.5 -66t-5 -63.5t-25.5 -50.5t-47 -26q-25 -4 -39 3t-31 18q-4 -11 -10.5 -25.5t-18 -28.5t-27 -25.5 t-37.5 -16.5q-34 -9 -56 -3.5t-35 20t-17.5 35t-4.5 40.5z" />
<glyph unicode="&#xfef4;&#xfeae;" horiz-adv-x="1515" d="M-65 101l5 42q65 -37 133.5 -63.5t138.5 -35t141 4t140.5 51.5t137 109t131.5 176l-3 2v7l-181 216l123 287q17 -33 39 -69.5t48.5 -70.5t58.5 -63t69.5 -46.5t80.5 -21.5t92 13l-37 139l189 171q14 -41 23 -87t17.5 -92.5t19.5 -90t29.5 -78.5t47 -59.5t72.5 -32.5 l81 -1l1 -389h-178q-63 0 -120.5 88.5t-94.5 267.5q-16 -28 -37 -54t-50.5 -48t-69 -37.5t-93.5 -22.5q-13 -69 -38 -137t-61.5 -128t-84 -108.5t-105 -79t-125.5 -39.5t-145.5 10.5t-164 70t-181.5 139.5q-9 9 -16 15t-12.5 12.5t-10.5 14t-10 18.5zM863.5 -146 q-1.5 13 7.5 24l102 126q9 11 22 12t24 -7l126 -103q2 -1 4 -5l84 103q8 11 21.5 12t23.5 -7l127 -103q10 -8 11 -21t-7 -24l-102 -126q-8 -11 -21.5 -12t-23.5 7l-127 103l-5 5l-83 -103q-9 -11 -22 -12t-24 7l-126 103q-10 8 -11.5 21z" />
<glyph unicode="&#xfe98;&#xfeae;" horiz-adv-x="1515" d="M-65 101l5 42q65 -37 133.5 -63.5t138.5 -35t141 4t140.5 51.5t137 109t131.5 176l-3 2v7l-181 216l123 287q17 -33 39 -69.5t48.5 -70.5t58.5 -63t69.5 -46.5t80.5 -21.5t92 13l-37 139l189 171q14 -41 23 -87t17.5 -92.5t19.5 -90t29.5 -78.5t47 -59.5t72.5 -32.5 l81 -1l1 -389h-178q-63 0 -120.5 88.5t-94.5 267.5q-16 -28 -37 -54t-50.5 -48t-69 -37.5t-93.5 -22.5q-13 -69 -38 -137t-61.5 -128t-84 -108.5t-105 -79t-125.5 -39.5t-145.5 10.5t-164 70t-181.5 139.5q-9 9 -16 15t-12.5 12.5t-10.5 14t-10 18.5zM746.5 1206 q-1.5 13 7.5 24l102 126q9 11 22 12t24 -7l126 -103q2 -1 4 -5l84 103q8 11 21.5 12t23.5 -7l127 -103q10 -8 11 -21t-7 -24l-102 -126q-8 -11 -21.5 -12t-23.5 7l-127 103l-5 5l-83 -103q-9 -11 -22 -12t-24 7l-126 103q-10 8 -11.5 21z" />
<glyph unicode="&#xfe92;&#xfeae;" horiz-adv-x="1515" d="M-65 101l5 42q65 -37 133.5 -63.5t138.5 -35t141 4t140.5 51.5t137 109t131.5 176l-3 2v7l-181 216l123 287q17 -33 39 -69.5t48.5 -70.5t58.5 -63t69.5 -46.5t80.5 -21.5t92 13l-37 139l189 171q14 -41 23 -87t17.5 -92.5t19.5 -90t29.5 -78.5t47 -59.5t72.5 -32.5 l81 -1l1 -389h-178q-63 0 -120.5 88.5t-94.5 267.5q-16 -28 -37 -54t-50.5 -48t-69 -37.5t-93.5 -22.5q-13 -69 -38 -137t-61.5 -128t-84 -108.5t-105 -79t-125.5 -39.5t-145.5 10.5t-164 70t-181.5 139.5q-9 9 -16 15t-12.5 12.5t-10.5 14t-10 18.5zM915 -126q-1 13 7 23 l103 127q8 10 21 11t24 -7l126 -102q10 -8 11.5 -21.5t-7.5 -23.5l-102 -127q-8 -10 -21.5 -11t-23.5 7l-126 102q-11 9 -12 22z" />
<glyph unicode="&#xfef4;&#xfee6;" horiz-adv-x="1646" d="M81.5 94.5q-19.5 128.5 18.5 302.5q5 22 16 52t24 56t24.5 42.5t17.5 11.5q13 -10 19 -16t1 -25q-28 -114 -16.5 -202t50.5 -149.5t99 -96t128.5 -43t139 9.5t131 63t105 117t59.5 170l-173 297l176 250q17 -32 36 -70t40.5 -75.5t47 -71t56 -55.5t67 -29.5t80.5 6.5 l-37 139l189 171q23 -113 42.5 -191.5t42 -129.5t52 -79t72.5 -40l81 -1l1 -389h-178q-63 0 -120.5 88.5t-94.5 267.5q-16 -28 -37 -54.5t-51 -48t-70 -37.5t-94 -22q-3 -149 -52.5 -262t-127 -189.5t-173 -115t-191.5 -37t-181.5 44t-142.5 127.5t-76.5 213.5zM386 1001 q-1 13 7 23l103 127q8 10 21 11t24 -7l126 -102q10 -8 11.5 -21.5t-7.5 -23.5l-102 -127q-8 -10 -21.5 -11t-23.5 7l-126 102q-11 9 -12 22zM1043.5 -180q-1.5 13 7.5 24l102 126q9 11 22 12t24 -7l126 -103q2 -1 4 -5l84 103q8 11 21.5 12t23.5 -7l127 -103q10 -8 11 -21 t-7 -24l-102 -126q-8 -11 -21.5 -12t-23.5 7l-127 103l-5 5l-83 -103q-9 -11 -22 -12t-24 7l-126 103q-10 8 -11.5 21z" />
<glyph unicode="&#xfe92;&#xfee6;" horiz-adv-x="1646" d="M81.5 94.5q-19.5 128.5 18.5 302.5q5 22 16 52t24 56t24.5 42.5t17.5 11.5q13 -10 19 -16t1 -25q-28 -114 -16.5 -202t50.5 -149.5t99 -96t128.5 -43t139 9.5t131 63t105 117t59.5 170l-173 297l176 250q17 -32 36 -70t40.5 -75.5t47 -71t56 -55.5t67 -29.5t80.5 6.5 l-37 139l189 171q23 -113 42.5 -191.5t42 -129.5t52 -79t72.5 -40l81 -1l1 -389h-178q-63 0 -120.5 88.5t-94.5 267.5q-16 -28 -37 -54.5t-51 -48t-70 -37.5t-94 -22q-3 -149 -52.5 -262t-127 -189.5t-173 -115t-191.5 -37t-181.5 44t-142.5 127.5t-76.5 213.5zM386 1001 q-1 13 7 23l103 127q8 10 21 11t24 -7l126 -102q10 -8 11.5 -21.5t-7.5 -23.5l-102 -127q-8 -10 -21.5 -11t-23.5 7l-126 102q-11 9 -12 22zM1087 -199q-1 13 7 23l103 127q8 10 21 11t24 -7l126 -102q10 -8 11.5 -21.5t-7.5 -23.5l-102 -127q-8 -10 -21.5 -11t-23.5 7 l-126 102q-11 9 -12 22z" />
<glyph unicode="&#x651;&#x64c;" horiz-adv-x="484" arabic-form="isolated" d="M43 1917q20 23 46.5 37.5t53 18.5t49.5 -1.5t35.5 -20.5t10.5 -40.5t-24 -61.5q48 17 89.5 38t75.5 53q-43 9 -63 27t-23.5 40t8 45t31.5 41.5t46 30t52 10.5q22 -2 29.5 -21t7 -43t-6 -46.5t-9.5 -31.5l40 -10l-18 -65l-48 11q-7 -12 -21 -28.5t-33 -34t-42 -33t-48 -26 t-50 -13t-48 6.5q-23 10 -25 27t3 36t11 36t-2 26.5t-36.5 9t-90.5 -17.5zM87.5 1632.5q-0.5 26.5 3.5 48.5t9 33q0 -3 5 1.5t10.5 10.5t10 10t4.5 1q-5 -21 -6.5 -47.5t4 -49.5t19.5 -37.5t40 -9.5q28 5 41 23t18 40.5t6.5 45.5t6.5 39q1 -3 4.5 1t8 9t8 9.5t5.5 1.5 q-3 -30 6 -54t25.5 -37t38 -12.5t43.5 20.5q4 10 2 23t-8.5 26t-15 25t-17.5 21q11 20 19.5 37.5t17.5 34.5q13 -15 22.5 -33t17.5 -36q11 -32 13 -66t-6 -63.5t-26.5 -50t-47.5 -24.5q-25 -4 -38.5 3t-30.5 19q-4 -11 -11 -25t-18.5 -28t-27.5 -25.5t-38 -16.5 q-34 -8 -56.5 1.5t-36 29.5t-19 47.5t-6 54zM346 2048q-2 -10 3.5 -16.5t14.5 -11.5t21.5 -9.5t25.5 -9.5q2 17 2 30q0 11 -2 21.5t-8 14.5v-2q-5 5 -12 6.5t-12 1.5q-14 1 -23.5 -7t-9.5 -18z" />
<glyph unicode="&#x651;&#x64d;" horiz-adv-x="425" arabic-form="isolated" d="M31 1438l33 75l350 141l-33 -75zM41 1543l33 75l350 141l-33 -75zM56.5 1844.5q0.5 26.5 4.5 49t10 32.5q0 -3 4.5 1.5l10.5 10.5t10.5 10t4.5 1q-6 -21 -8 -48t3 -50t18.5 -37.5t39.5 -10.5q29 4 42.5 21t19 39.5t7 46t7.5 39.5q1 -3 5 0.5t8.5 9t8 9.5t5.5 1 q-4 -29 4 -53.5t24 -38t37 -13.5q22 0 45 20q5 10 3 22.5t-8 25.5t-14.5 25.5t-16.5 21.5q11 20 20 37t19 34q12 -15 21.5 -33.5t16.5 -36.5q10 -32 11 -66t-7.5 -63t-27.5 -49t-48 -24q-25 -3 -38.5 4t-30.5 20q-4 -11 -11.5 -25t-19 -27.5t-28 -24.5t-38.5 -16 q-34 -7 -56.5 3t-35 31t-17.5 48t-4.5 53.5z" />
<glyph unicode="&#x651;&#x64e;" horiz-adv-x="425" arabic-form="isolated" d="M61 1710l17 91l340 193l-17 -91zM66 1591q0 21 4.5 39.5t9.5 29.5q0 -3 4.5 1.5t9.5 10.5t10 10.5t5 1.5q-5 -21 -7 -40t2 -32.5t17 -19t38 -0.5q28 5 41 23t17.5 40.5t5.5 46t6 39.5q1 -3 4.5 1t7.5 9t8 9.5t6 1.5q-3 -30 6.5 -54t26 -36.5t38 -11.5t42.5 21q4 10 2 23 t-8.5 25.5t-15.5 24.5t-18 21q5 10 14.5 15.5t20 10t20 9.5t15.5 13q5 -8 5.5 -12.5t-0.5 -8.5t-1.5 -8.5t3.5 -13.5q12 -32 14.5 -66t-5 -63.5t-25.5 -50.5t-47 -26q-25 -4 -39 3t-31 18q-4 -11 -10.5 -25.5t-18 -28.5t-27 -25.5t-37.5 -16.5q-34 -9 -56 -3.5t-35 20 t-17.5 35t-4.5 40.5z" />
<glyph unicode="&#x651;&#x64f;" horiz-adv-x="437" arabic-form="isolated" d="M2 1791q60 20 103 34t77 28t61.5 31t54.5 43q-46 8 -67.5 26.5t-25 40.5t8.5 45t33 42t48.5 30.5t55.5 10.5q23 -1 31 -20t7.5 -43.5t-6.5 -47.5t-10 -33l43 -10l-19 -63l-50 10q-11 -18 -37 -41t-61.5 -43.5t-76.5 -34t-83 -11.5q-57 4 -75 4q-17 0 -12 2zM63.5 1632.5 q-0.5 26.5 3.5 48.5t9 33q0 -3 5 1.5t10.5 10.5t10 10t4.5 1q-5 -21 -6.5 -47.5t4 -49.5t19.5 -37.5t40 -9.5q28 5 41 23t18 40.5t6.5 45.5t6.5 39q1 -3 4.5 1t8 9t8 9.5t5.5 1.5q-3 -30 6 -54t25.5 -37t38 -12.5t43.5 20.5q4 10 2 23t-8.5 26t-15 25t-17.5 21 q11 20 19.5 37.5t17.5 34.5q13 -15 22.5 -33t17.5 -36q11 -32 13 -66t-6 -63.5t-26.5 -50t-47.5 -24.5q-25 -4 -38.5 3t-30.5 19q-4 -11 -11 -25t-18.5 -28t-27.5 -25.5t-38 -16.5q-34 -8 -56.5 1.5t-36 29.5t-19 47.5t-6 54zM262 2036q-2 -20 19 -29.5t50 -17.5q2 16 2 30 q0 11 -2 22t-9 14v-1q-5 5 -11.5 6.5t-11.5 1.5q-17 1 -26.5 -7t-10.5 -19z" />
<glyph unicode="&#x651;&#x650;" horiz-adv-x="425" arabic-form="isolated" d="M71.5 1766.5q0.5 26.5 4.5 48.5t10 33q0 -3 4.5 1.5l10.5 10.5t10.5 10t4.5 1q-6 -21 -8 -48t3 -50t18.5 -37.5t39.5 -10.5q29 4 42.5 21t19 39.5t7 46t7.5 39.5q1 -3 5 0.5t8.5 9t8 9.5t5.5 1q-4 -29 4 -53.5t24 -38t37 -13.5q22 0 45 20q5 10 3 22.5t-8 25.5 t-14.5 25.5t-16.5 21.5q11 20 20 37t19 34q12 -15 21.5 -33.5t16.5 -36.5q10 -32 11 -66t-7.5 -63t-27.5 -49t-48 -24q-25 -3 -38.5 4t-30.5 20q-4 -11 -11.5 -25t-19 -27.5t-28 -24.5t-38.5 -16q-34 -7 -56.5 3t-35 31t-17.5 48t-4.5 53.5zM82 1397l17 91l340 193l-17 -91z " />
<glyph unicode="&#xfed3;&#xfef2;" horiz-adv-x="1737" arabic-form="medial" d="M89 -21q0 68 17.5 148t49.5 157.5t77.5 145.5t101.5 112q29 0 34 -6.5t-3 -19.5q-79 -130 -98.5 -229.5t7 -167t92.5 -102t159 -35.5t205.5 33t232.5 103q-24 54 -63 79.5t-86 35.5t-99 10.5t-103 5.5l94 259l805 3q-2 97 -42 195q-18 -21 -39.5 -40.5t-46.5 -34.5 t-51.5 -24.5t-54.5 -9.5q-76 0 -120.5 24.5t-64 64t-17 90.5t21.5 103.5t51.5 103.5t73 90.5t85.5 64t90 24.5q40 0 75.5 -29t66 -79t55 -116.5t42 -141.5t28.5 -154t13.5 -154t-3 -141.5t-20.5 -116.5t-39.5 -79t-59.5 -29l-429 -2q-6 -20 -13 -40.5t-16 -42.5 q-30 -72 -89.5 -135t-136 -112.5t-164.5 -83t-175 -47t-167 -3.5t-141.5 47.5t-98.5 105t-37 170.5zM546.5 -618q-1.5 13 7.5 24l102 126q9 11 22 12t24 -7l126 -103q2 -1 4 -5l84 103q8 11 21.5 12t23.5 -7l127 -103q10 -8 11 -21t-7 -24l-102 -126q-8 -11 -21.5 -12 t-23.5 7l-127 103l-5 5l-83 -103q-9 -11 -22 -12t-24 7l-126 103q-10 8 -11.5 21zM1131 1378q-1 13 7 23l103 127q8 10 21 11t24 -7l126 -102q10 -8 11.5 -21.5t-7.5 -23.5l-102 -127q-8 -10 -21.5 -11t-23.5 7l-126 102q-11 9 -12 22zM1236 912q63 -63 106 -63q35 0 69 17 q-64 109 -106 109q-23 0 -69 -63z" />
<glyph unicode="&#xfedf;&#xfef0;" horiz-adv-x="1622" arabic-form="medial" d="M89 -21q0 68 17.5 148t49.5 157.5t77.5 145.5t101.5 112q29 0 34 -6.5t-3 -19.5q-79 -130 -98.5 -229.5t7 -167t92.5 -102t159 -35.5t205.5 33t232.5 103q-24 54 -63 79.5t-86 35.5t-99 10.5t-103 5.5l94 259h661l-65 611q0 16 -0.5 36.5t1 41.5t7 41.5t17.5 36.5 l103 143q6 -39 23 -68.5t37 -52.5t39.5 -42.5t32 -38t15 -39t-12.5 -45.5l-63 -104q-12 -21 -13 -71t4 -117.5t13.5 -147.5t14 -160t6 -154.5t-10 -132t-35 -92t-68.5 -34.5l-286 1q-6 -20 -13 -40.5t-16 -42.5q-30 -72 -89.5 -135t-136 -112.5t-164.5 -83t-175 -47 t-167 -3.5t-141.5 47.5t-98.5 105t-37 170.5z" />
<glyph unicode="&#xfedf;&#xfee4;" horiz-adv-x="795" arabic-form="medial" d="M-43 119v390l272 -1l62 127l-42 484q0 16 -0.5 36.5t1 41.5t7 41.5t17.5 36.5l103 143q6 -39 23 -68.5t37 -52.5t39.5 -42.5t32 -38t15 -39t-12.5 -45.5l-63 -104q-14 -23 -14.5 -60.5t4.5 -90.5t13 -122.5t12 -156.5q0 -13 21 -30t51.5 -36t66 -39t66 -38.5t50.5 -34.5 t19 -27q1 -41 -10.5 -97t-29.5 -112.5t-38.5 -108t-35.5 -83.5q-5 -3 -28 16.5t-59 44t-82 45.5t-95 21h-402z" />
<glyph unicode="&#xfedf;&#xfee0;&#xfeea;" horiz-adv-x="1760" arabic-form="isolated" d="M68 431.5q9 87.5 70 221.5q16 36 49 62.5t73 47.5t81.5 38.5t74.5 35.5q-2 7 -3.5 17.5t-2.5 21.5l-2 22t-1 18q0 1 9 10t24.5 28.5t37 50.5t46.5 76q16 -41 28 -98.5t22.5 -120.5t20.5 -125t23.5 -113t31.5 -84t44 -37l346 6l-65 610q0 16 -1.5 37t0 42.5t6.5 41.5 t19 35l128 143q17 -99 26.5 -188t15 -176.5t8.5 -176.5t7 -187q1 -21 3 -43.5t10 -45t24 -46t45 -47.5h220l-65 611q0 16 -0.5 36.5t1 41.5t7 41.5t17.5 36.5l103 143q6 -39 23 -68.5t37 -52.5t39.5 -42.5t32 -38t15 -39t-12.5 -45.5l-63 -104q-12 -21 -13 -71t4 -117.5 t13.5 -147.5t14.5 -160t6 -155q0 -74 -10.5 -131.5t-35 -92t-68.5 -34.5h-250q-17 -5 -34 -2.5t-32 8.5t-26 15.5t-16 18.5l-62 81q-12 -42 -32.5 -71.5t-46.5 -49.5h-364q-44 6 -73 30.5t-49 58.5t-34 74t-26 78q-7 -13 -19 -41.5t-27.5 -57.5t-33 -51t-35.5 -22 q-100 4 -172 27t-106 76t-25 140.5zM278 613q38 -13 69 -25t54 -18.5t37.5 -4t19.5 19t0 50t-20 89.5q-19 -24 -39 -38.5t-40.5 -25l-41 -21t-39.5 -26.5zM843 1593.5q-20 83.5 76 233.5q25 -16 3 -92t40.5 -84.5t52.5 109.5l59 97q41 -77 26 -162q82 -53 100.5 7t-17.5 110 l62 70q62 -157 -1 -265.5t-190 -35.5q-43 -60 -117 -65.5t-94 78z" />
<glyph unicode="&#xfedf;&#xfe82;" horiz-adv-x="1098" arabic-form="isolated" d="M21 1417q-2 84 69.5 160t266.5 7t297 48q-48 -249 -285 -165t-348 -50zM69 1155q0 9 4 27.5t10.5 42t14.5 48t17 44.5t18 33.5t17 13.5q34 1 78 -22t93 -61t101 -86.5t101 -99t92.5 -98t76.5 -84.5t53 -58t21 -18q3 9 7 12.5t7.5 5.5t6 6t3.5 14q1 20 -0.5 40.5 t-3.5 41.5q-5 42 -12 83t-11 79q0 16 -0.5 36.5t1 41.5t6.5 41.5t17 36.5l103 143q7 -39 23.5 -68.5t36.5 -52.5t40 -42.5t32.5 -38t14.5 -39t-13 -45.5l-62 -104q-14 -23 -20.5 -42t-11 -38t-9 -39t-14 -45t-26.5 -57t-46 -74q15 -23 31.5 -50.5t30 -55.5t22.5 -52.5 t10 -41.5q6 -80 6 -155t-10.5 -132.5t-35 -92t-68.5 -34.5h-604l1 390q72 10 123.5 28t96 44.5t89.5 63t104 84.5q-29 29 -54 54.5t-50 48.5t-52.5 46t-61.5 47q-14 -17 -30 -37.5t-30 -37.5q-33 17 -81.5 50t-93.5 75t-77 88.5t-32 91.5zM567 509q33 -3 74 -6t77 -2t59 7 t19 20q6 8 3.5 17.5t-12 22.5t-25.5 31t-37 44z" />
<glyph unicode="&#xfee0;&#xfe82;" horiz-adv-x="1220" arabic-form="final" d="M21 1417q-2 84 69.5 160t266.5 7t297 48q-48 -249 -285 -165t-348 -50zM66 1155q0 9 4 28.5t10.5 43.5t15 49t18 45.5t18 32.5t16.5 10q48 -14 115 -52t140.5 -94t147 -127.5t134.5 -152.5t102.5 -169t51.5 -177q14 18 27.5 37.5t27.5 39.5l-30 450q0 16 -1 37t0 42.5 t6.5 41.5t18.5 35l128 143q21 -120 31 -227t15 -214t8.5 -220.5t12.5 -248.5h65h23t-8 0h-26h-33h-28h-12t16 0h55h106l2 -389h-312l-21 305q-32 -89 -80.5 -150.5t-109 -102.5t-131.5 -64.5t-148 -35t-158 -14.5t-162 -3l10 69q64 33 120.5 58t107 47.5t96 45.5t89.5 50.5 t86.5 62.5t87.5 83q-15 32 -38 73t-52 84.5t-61.5 87t-65 81.5t-63 67t-55.5 44q-7 -9 -10.5 -15.5t-6 -13t-6 -13t-10.5 -15.5q-33 17 -81.5 50t-93.5 75t-77 88.5t-32 91.5z" />
<glyph unicode="&#xfedf;&#xfe84;" horiz-adv-x="1098" arabic-form="isolated" d="M69 1155q0 9 4 27.5t10.5 42t14.5 48t17 44.5t18 33.5t17 13.5q34 1 78 -22t93 -61t101 -86.5t101 -99t92.5 -98t76.5 -84.5t53 -58t21 -18q3 9 7 12.5t7.5 5.5t6 6t3.5 14q1 20 -0.5 40.5t-3.5 41.5q-5 42 -12 83t-11 79q0 16 -0.5 36.5t1 41.5t6.5 41.5t17 36.5 l103 143q7 -39 23.5 -68.5t36.5 -52.5t40 -42.5t32.5 -38t14.5 -39t-13 -45.5l-62 -104q-14 -23 -20.5 -42t-11 -38t-9 -39t-14 -45t-26.5 -57t-46 -74q15 -23 31.5 -50.5t30 -55.5t22.5 -52.5t10 -41.5q6 -80 6 -155t-10.5 -132.5t-35 -92t-68.5 -34.5h-604l1 390 q72 10 123.5 28t96 44.5t89.5 63t104 84.5q-29 29 -54 54.5t-50 48.5t-52.5 46t-61.5 47q-14 -17 -30 -37.5t-30 -37.5q-33 17 -81.5 50t-93.5 75t-77 88.5t-32 91.5zM69.5 1593.5q-6.5 35.5 1 70t26 62t43.5 37t54 -6t56 -67.5q-39 14 -77 8t-67 -51q12 -15 27.5 -23 t32.5 -10.5t34.5 -1.5t34.5 4l87 30l-20 -100l-106 -30q-39 -14 -66.5 -34t-44.5 -43q-16 29 -10.5 49t26.5 47q-25 24 -31.5 59.5zM567 509q33 -3 74 -6t77 -2t59 7t19 20q6 8 3.5 17.5t-12 22.5t-25.5 31t-37 44z" />
<glyph unicode="&#xfee0;&#xfe84;" horiz-adv-x="1212" arabic-form="final" d="M66 1155q0 9 4 28.5t10.5 43.5t15 49t18 45.5t18 32.5t16.5 10q48 -14 115 -52t140.5 -94t147 -127.5t134.5 -152.5t102.5 -169t51.5 -177q14 18 27.5 37.5t27.5 39.5l-30 450q0 16 -1 37t0 42.5t6.5 41.5t18.5 35l128 143q21 -120 31 -227t15 -214t8.5 -220.5 t12.5 -248.5h65h23t-8 0h-26h-33h-28h-12t16 0h55h106l2 -389h-312l-21 305q-32 -89 -80.5 -150.5t-109 -102.5t-131.5 -64.5t-148 -35t-158 -14.5t-162 -3l10 69q64 33 120.5 58t107 47.5t96 45.5t89.5 50.5t86.5 62.5t87.5 83q-15 32 -38 73t-52 84.5t-61.5 87t-65 81.5 t-63 67t-55.5 44q-7 -9 -10.5 -15.5t-6 -13t-6 -13t-10.5 -15.5q-33 17 -81.5 50t-93.5 75t-77 88.5t-32 91.5zM69.5 1593.5q-6.5 35.5 1 70t26 62t43.5 37t54 -6t56 -67.5q-39 14 -77 8t-67 -51q12 -15 27.5 -23t32.5 -10.5t34.5 -1.5t34.5 4l87 30l-20 -100l-106 -30 q-39 -14 -66.5 -34t-44.5 -43q-16 29 -10.5 49t26.5 47q-25 24 -31.5 59.5z" />
<glyph unicode="&#xfedf;&#xfe88;" horiz-adv-x="1098" arabic-form="isolated" d="M60.5 -192.5q-6.5 35.5 1 70t26 62t43.5 37t53.5 -6t56.5 -67.5q-39 14 -77 8t-67 -51q12 -15 27.5 -23t32.5 -10.5t34.5 -1.5t34.5 4l87 30l-20 -100l-106 -30q-39 -14 -66.5 -34t-44.5 -43q-16 29 -10.5 49t26.5 47q-25 24 -31.5 59.5zM69 1155q0 9 4 27.5t10.5 42 t14.5 48t17 44.5t18 33.5t17 13.5q34 1 78 -22t93 -61t101 -86.5t101 -99t92.5 -98t76.5 -84.5t53 -58t21 -18q3 9 7 12.5t7.5 5.5t6 6t3.5 14q1 20 -0.5 40.5t-3.5 41.5q-5 42 -12 83t-11 79q0 16 -0.5 36.5t1 41.5t6.5 41.5t17 36.5l103 143q7 -39 23.5 -68.5t36.5 -52.5 t40 -42.5t32.5 -38t14.5 -39t-13 -45.5l-62 -104q-14 -23 -20.5 -42t-11 -38t-9 -39t-14 -45t-26.5 -57t-46 -74q15 -23 31.5 -50.5t30 -55.5t22.5 -52.5t10 -41.5q6 -80 6 -155t-10.5 -132.5t-35 -92t-68.5 -34.5h-604l1 390q72 10 123.5 28t96 44.5t89.5 63t104 84.5 q-29 29 -54 54.5t-50 48.5t-52.5 46t-61.5 47q-14 -17 -30 -37.5t-30 -37.5q-33 17 -81.5 50t-93.5 75t-77 88.5t-32 91.5zM567 509q33 -3 74 -6t77 -2t59 7t19 20q6 8 3.5 17.5t-12 22.5t-25.5 31t-37 44z" />
<glyph unicode="&#xfee0;&#xfe88;" horiz-adv-x="1212" arabic-form="final" d="M60.5 -192.5q-6.5 35.5 1 70t26 62t43.5 37t53.5 -6t56.5 -67.5q-39 14 -77 8t-67 -51q12 -15 27.5 -23t32.5 -10.5t34.5 -1.5t34.5 4l87 30l-20 -100l-106 -30q-39 -14 -66.5 -34t-44.5 -43q-16 29 -10.5 49t26.5 47q-25 24 -31.5 59.5zM66 1155q0 9 4 28.5t10.5 43.5 t15 49t18 45.5t18 32.5t16.5 10q48 -14 115 -52t140.5 -94t147 -127.5t134.5 -152.5t102.5 -169t51.5 -177q14 18 27.5 37.5t27.5 39.5l-30 450q0 16 -1 37t0 42.5t6.5 41.5t18.5 35l128 143q21 -120 31 -227t15 -214t8.5 -220.5t12.5 -248.5h65h23t-8 0h-26h-33h-28h-12 t16 0h55h106l2 -389h-312l-21 305q-32 -89 -80.5 -150.5t-109 -102.5t-131.5 -64.5t-148 -35t-158 -14.5t-162 -3l10 69q64 33 120.5 58t107 47.5t96 45.5t89.5 50.5t86.5 62.5t87.5 83q-15 32 -38 73t-52 84.5t-61.5 87t-65 81.5t-63 67t-55.5 44q-7 -9 -10.5 -15.5t-6 -13 t-6 -13t-10.5 -15.5q-33 17 -81.5 50t-93.5 75t-77 88.5t-32 91.5z" />
<glyph unicode="&#xfedf;&#xfe8e;" horiz-adv-x="1098" arabic-form="isolated" d="M69 1155q0 9 4 27.5t10.5 42t14.5 48t17 44.5t18 33.5t17 13.5q34 1 78 -22t93 -61t101 -86.5t101 -99t92.5 -98t76.5 -84.5t53 -58t21 -18q3 9 7 12.5t7.5 5.5t6 6t3.5 14q1 20 -0.5 40.5t-3.5 41.5q-5 42 -12 83t-11 79q0 16 -0.5 36.5t1 41.5t6.5 41.5t17 36.5 l103 143q7 -39 23.5 -68.5t36.5 -52.5t40 -42.5t32.5 -38t14.5 -39t-13 -45.5l-62 -104q-14 -23 -20.5 -42t-11 -38t-9 -39t-14 -45t-26.5 -57t-46 -74q15 -23 31.5 -50.5t30 -55.5t22.5 -52.5t10 -41.5q6 -80 6 -155t-10.5 -132.5t-35 -92t-68.5 -34.5h-604l1 390 q72 10 123.5 28t96 44.5t89.5 63t104 84.5q-29 29 -54 54.5t-50 48.5t-52.5 46t-61.5 47q-14 -17 -30 -37.5t-30 -37.5q-33 17 -81.5 50t-93.5 75t-77 88.5t-32 91.5zM567 509q33 -3 74 -6t77 -2t59 7t19 20q6 8 3.5 17.5t-12 22.5t-25.5 31t-37 44z" />
<glyph unicode="&#xfee0;&#xfe8e;" horiz-adv-x="1220" arabic-form="final" d="M66 1155q0 9 4 28.5t10.5 43.5t15 49t18 45.5t18 32.5t16.5 10q48 -14 115 -52t140.5 -94t147 -127.5t134.5 -152.5t102.5 -169t51.5 -177q14 18 27.5 37.5t27.5 39.5l-30 450q0 16 -1 37t0 42.5t6.5 41.5t18.5 35l128 143q21 -120 31 -227t15 -214t8.5 -220.5 t12.5 -248.5h65h23t-8 0h-26h-33h-28h-12t16 0h55h106l2 -389h-312l-21 305q-32 -89 -80.5 -150.5t-109 -102.5t-131.5 -64.5t-148 -35t-158 -14.5t-162 -3l10 69q64 33 120.5 58t107 47.5t96 45.5t89.5 50.5t86.5 62.5t87.5 83q-15 32 -38 73t-52 84.5t-61.5 87t-65 81.5 t-63 67t-55.5 44q-7 -9 -10.5 -15.5t-6 -13t-6 -13t-10.5 -15.5q-33 17 -81.5 50t-93.5 75t-77 88.5t-32 91.5z" />
<glyph unicode="&#xfe70;" horiz-adv-x="408" arabic-form="isolated" d="M49 1482l17 91l340 193l-17 -91zM63 1649l17 91l340 193l-17 -91z" />
<glyph unicode="&#xfe71;" horiz-adv-x="408" arabic-form="medial" d="M51 1029l17 91l340 193l-17 -91zM65 1196l17 91l340 193l-17 -91z" />
<glyph unicode="&#xfe72;" horiz-adv-x="469" arabic-form="isolated" d="M45 1619q19 27 44.5 43.5t50.5 22t47 -1t34 -24.5t10.5 -48t-23.5 -72q46 20 85.5 44t71.5 62q-41 10 -60.5 31.5t-22 47.5t8 53t30 49.5t44 36t49.5 12.5q21 -2 28 -24.5t6.5 -51t-6 -55.5t-8.5 -37l38 -12l-17 -76l-46 13q-6 -14 -19.5 -33.5t-32 -40t-40.5 -39.5 t-45.5 -31t-47.5 -15t-46 8t-24 31.5t3 42t10.5 42t-2 32t-34.5 10.5t-86 -20zM334 1773q-2 -11 3 -19t14 -14t20.5 -11.5t24.5 -11.5q2 19 2 35q0 14 -2.5 26.5t-7.5 16.5v-2q-10 10 -23 10q-14 1 -22.5 -8.5t-8.5 -21.5z" />
<glyph unicode="&#xfe74;" horiz-adv-x="408" arabic-form="isolated" d="M1 -288q5 23 8 38.5t7 38.5q99 52 191.5 101.5t191.5 102.5l-15 -76q-97 -52 -191.5 -102.5t-191.5 -102.5zM33 -98q5 24 8.5 39.5t7.5 38.5q99 52 191 101t191 102l-15 -76q-97 -52 -191.5 -102.5t-191.5 -102.5z" />
<glyph unicode="&#xfe76;" horiz-adv-x="408" arabic-form="isolated" d="M13 1378q5 24 8 39.5t7 37.5q99 52 191.5 101.5t191.5 102.5l-15 -76q-97 -52 -191.5 -102.5t-191.5 -102.5z" />
<glyph unicode="&#xfe77;" horiz-adv-x="448" arabic-form="medial" d="M13 952q5 24 8 39.5t7 37.5q99 52 191.5 101.5t191.5 102.5l-15 -76q-97 -52 -191.5 -102.5t-191.5 -102.5z" />
<glyph unicode="&#xfe78;" horiz-adv-x="414" arabic-form="isolated" d="M13 1507q61 25 105.5 43t79 36t62.5 39.5t56 54.5q-47 11 -69 34t-25.5 51t9 57.5t34 53.5t49.5 38.5t56 13.5q16 -1 25 -12.5t12.5 -29t2.5 -39t-3.5 -41.5t-6.5 -36.5t-7 -24.5l44 -13l-19 -80l-52 12q-11 -23 -37.5 -52.5t-62.5 -55t-78.5 -42.5t-85.5 -15 q-29 2 -47.5 3t-28.5 2t-12.5 1.5t-0.5 1.5zM279 1818q-2 -25 20 -37t51 -23q2 20 2 38q0 15 -2 28.5t-9 18.5v-2q-5 6 -12 8t-12 2q-17 2 -27 -8.5t-11 -24.5z" />
<glyph unicode="&#xfe79;" horiz-adv-x="490" arabic-form="medial" d="M7 1064q61 25 105.5 43t79 36t62.5 39.5t56 54.5q-47 11 -69 34t-25.5 51t9 57.5t34 53.5t49.5 39t56 13q16 -1 25 -12.5t12.5 -29t2.5 -39t-3.5 -41.5t-6.5 -36.5t-7 -24.5l44 -13l-19 -80l-52 12q-11 -23 -37.5 -52.5t-62.5 -55t-78.5 -42.5t-85.5 -15q-29 2 -47.5 3 t-28.5 2t-12.5 1.5t-0.5 1.5zM273 1375q-2 -25 20 -37t51 -23q2 20 2 38q0 15 -2 28.5t-9 18.5v-2q-5 6 -12 8t-12 2q-17 2 -27 -8.5t-11 -24.5z" />
<glyph unicode="&#xfe7a;" horiz-adv-x="408" arabic-form="isolated" d="M9 -568q5 23 8 39t7 38q99 52 191.5 101.5t191.5 102.5l-15 -76q-97 -52 -191.5 -102.5t-191.5 -102.5z" />
<glyph unicode="&#xfe7b;" horiz-adv-x="669" arabic-form="medial" d="M9 301q5 23 8 39t7 38q99 52 191.5 101.5t191.5 102.5l-15 -76q-97 -52 -191.5 -102.5t-191.5 -102.5z" />
<glyph unicode="&#xfe7c;" horiz-adv-x="425" arabic-form="isolated" d="M59.5 1603.5q-1.5 27.5 2 53.5t10.5 47.5t14 31.5q0 -3 5 1t11.5 9t11.5 8.5t5 0.5q-8 -20 -13.5 -46.5t-3 -50t14 -39.5t37.5 -15q29 0 44.5 16t23.5 37.5t12.5 44.5t12.5 38q1 -3 5 0t9 7.5t9.5 8t5.5 0.5q-8 -29 -2.5 -54t19.5 -40t35.5 -18t46.5 14q6 9 5.5 22 t-4.5 26.5t-11 27t-14 23.5q13 18 24.5 34t22.5 32q11 -17 17.5 -36t11.5 -38q6 -33 3 -67t-15 -62t-33 -45.5t-51 -17.5q-25 0 -37.5 9t-27.5 23q-6 -10 -15 -23t-22 -25t-31 -21t-40 -11q-35 -3 -56 10t-31 35t-11.5 49.5z" />
<glyph unicode="&#xfe7d;" horiz-adv-x="425" arabic-form="medial" d="M57.5 1144.5q-1.5 27.5 2 53.5t10.5 47.5t14 31.5q0 -3 5 1t11.5 9t11.5 8.5t5 0.5q-8 -20 -13.5 -46.5t-3 -50t14 -39.5t37.5 -15q29 0 44.5 16t23.5 37.5t12.5 44.5t12.5 38q1 -3 5 0t9 7.5t9.5 8t5.5 0.5q-8 -29 -2.5 -54t19.5 -40t35.5 -18t46.5 14q6 9 5.5 22 t-4.5 26.5t-11 27t-14 23.5q13 18 24.5 34t22.5 32q11 -17 17.5 -36t11.5 -38q6 -33 3 -67t-15 -62t-33 -45.5t-51 -17.5q-25 0 -37.5 9t-27.5 23q-6 -10 -15 -23t-22 -25t-31 -21t-40 -11q-35 -3 -56 10t-31 35t-11.5 49.5z" />
<glyph unicode="&#xfe7e;" horiz-adv-x="328" arabic-form="isolated" d="M59 1556q-5 33 3.5 75.5t27 81.5t46 67t59.5 33q28 4 54 -6.5t46.5 -28.5t34.5 -40.5t17 -41.5q5 -34 -10 -71.5t-41 -87.5v1q0 1 1 2l-3 -5q-24 -14 -61.5 -26.5t-74 -15t-65 11t-34.5 51.5zM123 1643q3 -22 21 -32.5t42 -11t50 6.5t46 21l1 1q-3 14 -13.5 30t-25 29.5 t-31.5 22t-35 5.5q-30 -5 -44 -27t-11 -45zM294 1535l1 1q0 -1 -1 -1zM295 1536l1 1q0 -1 -1 -1z" />
<glyph unicode="&#xfe7f;" horiz-adv-x="328" arabic-form="medial" d="M69 994q-5 33 3.5 75.5t27 81.5t46 67t59.5 33q28 4 54 -6.5t46.5 -28.5t34.5 -40.5t17 -41.5q5 -34 -10 -71.5t-41 -87.5v1q0 1 1 2l-3 -5q-24 -14 -61.5 -26.5t-74 -15t-65 11t-34.5 51.5zM133 1081q3 -22 21 -32.5t42 -11t50 6.5t46 21l1 1q-3 14 -13.5 30t-25 29.5 t-31.5 22t-35 5.5q-30 -5 -44 -27t-11 -45zM304 973l1 1q0 -1 -1 -1zM305 974l1 1q0 -1 -1 -1z" />
<glyph unicode="&#x621;" horiz-adv-x="726" arabic-form="isolated" d="M49.5 525q1.5 66 22 130t54.5 113.5t78.5 78t95.5 23t104.5 -50.5t105.5 -142q-49 18 -98 24t-95 -4.5t-88.5 -41t-79.5 -85.5q30 -39 69 -58t81.5 -25.5t86.5 -3.5t86 10l216 73l-51 -248l-262 -75q-98 -35 -167.5 -85t-111.5 -109q-20 36 -26 65.5t-0.5 57t22.5 55.5 t43 62q-47 46 -67 108t-18.5 128z" />
<glyph unicode="&#x622;" horiz-adv-x="399" arabic-form="isolated" d="M-61 1464q-2 84 69.5 160t266.5 7t297 48q-48 -249 -285 -165t-348 -50zM118.5 1210q0.5 22 6 42t20.5 34l143 132q5 -131 9 -269t6 -271t1.5 -255.5t-4 -223.5t-10.5 -174t-18 -106q-44 7 -71 48t-34 128l-46 834q0 16 -1.5 37.5t-1 43.5z" />
<glyph unicode="&#x622;" horiz-adv-x="434" arabic-form="final" d="M-62 1440q-2 84 69.5 160t266.5 7t297 48q-48 -249 -285 -165t-348 -50zM46.5 1210q0.5 22 6 42t20.5 34l143 132q12 -231 18.5 -455.5t11.5 -453.5h217v-390h-263q-44 7 -71 48t-34 128l-46 834q0 16 -1.5 37.5t-1 43.5z" />
<glyph unicode="&#x623;" horiz-adv-x="416" arabic-form="isolated" d="M76.5 1550.5q-6.5 35.5 1 70t26 62t43.5 37t54 -6t56 -67.5q-39 14 -77 8t-67 -51q12 -15 27.5 -23t32.5 -10.5t34.5 -1.5t34.5 4l87 30l-20 -100l-106 -30q-39 -14 -66.5 -34t-44.5 -43q-16 29 -10.5 49t26.5 47q-25 24 -31.5 59.5zM118.5 1210q0.5 22 6 42t20.5 34 l143 132q5 -131 9 -269t6 -271t1.5 -255.5t-4 -223.5t-10.5 -174t-18 -106q-44 7 -71 48t-34 128l-46 834q0 16 -1.5 37.5t-1 43.5z" />
<glyph unicode="&#x623;" horiz-adv-x="434" arabic-form="final" d="M46.5 1210q0.5 22 6 42t20.5 34l143 132q12 -231 18.5 -455.5t11.5 -453.5h217v-390h-263q-44 7 -71 48t-34 128l-46 834q0 16 -1.5 37.5t-1 43.5zM46.5 1583.5q-6.5 35.5 1 70t26 62t43.5 37t54 -6t56 -67.5q-39 14 -77 8t-67 -51q12 -15 27.5 -23t32.5 -10.5t34.5 -1.5 t34.5 4l87 30l-20 -100l-106 -30q-39 -14 -66.5 -34t-44.5 -43q-16 29 -10.5 49t26.5 47q-25 24 -31.5 59.5z" />
<glyph unicode="&#x624;" horiz-adv-x="803" arabic-form="isolated" d="M-131 -19l5 42q31 -16 88 -32.5t127.5 -20.5t148 10.5t151 60t136 129t102.5 216.5q-92 -136 -188.5 -167.5t-188.5 27.5q-35 22 -55 64t-24.5 96.5t8 117.5t43.5 127q40 83 84 141t88 92.5t87 47t82 4.5q72 -53 114.5 -131t60.5 -169t12 -190.5t-31.5 -195.5t-69 -183 t-102 -154t-129.5 -108.5t-151.5 -46t-168.5 33.5t-180 129q-9 9 -16 15.5t-12.5 12.5t-10.5 13.5t-10 18.5zM245.5 1113.5q-7.5 40.5 1 80t30 71.5t50.5 42.5t62.5 -7t65.5 -77.5q-23 8 -45.5 11t-44 -1.5t-41.5 -18.5t-37 -40q15 -18 33 -27t37.5 -12t40 -1.5t40.5 4.5 l101 35l-23 -116l-124 -34q-45 -16 -77 -39t-52 -50q-9 17 -12 30.5t0 26t11 25.5t20 29q-29 28 -36.5 68.5zM324 543q21 -34 55 -45t70 -6.5t67 21t45 36.5q0 32 -14 58.5t-33 45t-38.5 29t-29.5 10.5q-20 0 -43 -14t-42 -35.5t-30 -48t-7 -51.5z" />
<glyph unicode="&#x624;" horiz-adv-x="858" arabic-form="final" d="M-119 -17l5 42q76 -44 165.5 -67t179 -16.5t171 48.5t140.5 129h-126q-84 -9 -140 28.5t-79 106.5t-11 163t64 197q84 168 162 241.5t143 57.5t115.5 -118t79.5 -286h118v-390h-134q-79 -174 -174.5 -271.5t-204 -116.5t-228 43.5t-246.5 208.5zM245.5 1113.5 q-7.5 40.5 1 80t30 71.5t50.5 42.5t62.5 -7t65.5 -77.5q-23 8 -45.5 11t-44 -1.5t-41.5 -18.5t-37 -40q15 -18 33 -27t37.5 -12t40 -1.5t40.5 4.5l101 35l-23 -116l-124 -34q-45 -16 -77 -39t-52 -50q-9 17 -12 30.5t0 26t11 25.5t20 29q-29 28 -36.5 68.5zM336 529 q16 -16 29.5 -23.5t25.5 -10.5t23 -2.5t22 0.5q21 0 47 -1t47.5 0.5t34.5 7t8 19.5q-10 53 -29 84.5t-42 44t-48.5 9t-48.5 -20t-41.5 -44.5t-27.5 -63z" />
<glyph unicode="&#x625;" horiz-adv-x="399" arabic-form="isolated" d="M82.5 -132.5q-6.5 35.5 1 70t26 62t43.5 37t54 -6t56 -67.5q-39 14 -77 8t-67 -51q12 -15 27.5 -23t32.5 -10.5t34.5 -1.5t34.5 4l87 30l-20 -100l-106 -30q-39 -14 -66.5 -34t-44.5 -43q-16 29 -10.5 49t26.5 47q-25 24 -31.5 59.5zM118.5 1210q0.5 22 6 42t20.5 34 l143 132q5 -131 9 -269t6 -271t1.5 -255.5t-4 -223.5t-10.5 -174t-18 -106q-44 7 -71 48t-34 128l-46 834q0 16 -1.5 37.5t-1 43.5z" />
<glyph unicode="&#x625;" horiz-adv-x="434" arabic-form="final" d="M37.5 -130.5q-6.5 35.5 1 70t26 62t43.5 37t54 -6t56 -67.5q-39 14 -77 8t-67 -51q12 -15 27.5 -23t32.5 -10.5t34.5 -1.5t34.5 4l87 30l-20 -100l-106 -30q-39 -14 -66.5 -34t-44.5 -43q-16 29 -10.5 49t26.5 47q-25 24 -31.5 59.5zM46.5 1210q0.5 22 6 42t20.5 34 l143 132q12 -231 18.5 -455.5t11.5 -453.5h217v-390h-263q-44 7 -71 48t-34 128l-46 834q0 16 -1.5 37.5t-1 43.5z" />
<glyph unicode="&#x626;" horiz-adv-x="1171" arabic-form="isolated" d="M90.5 247q5.5 104 56.5 238q8 21 19.5 51t23 56t22 43t16.5 12q7 -5 18 -10t20.5 -11t14.5 -13t1 -15q-46 -83 -54.5 -150t11 -117.5t63 -84.5t101.5 -52t126 -19.5t136.5 13t133.5 45t117 77.5q-46 11 -96 21.5t-98 24.5t-90 34t-71 51t-42 75t-2.5 106t47.5 144 t108 189q31 47 74 84.5t88 60t86 27t68 -16t35 -69t-14 -130.5q-2 -6 -5.5 -19t-8 -27t-10.5 -26.5t-11.5 -18t-11 -1.5t-9.5 24q-9 43 -30 60t-47 15.5t-54.5 -17.5t-53.5 -38.5t-43 -48.5t-23 -47q-6 -25 6 -44.5t34.5 -35t53.5 -28t62.5 -22.5t61.5 -18.5t51 -15.5 q43 -6 70 -32t39.5 -65.5t11 -89t-16 -101.5t-42 -103t-65.5 -94q-63 -79 -143 -134.5t-165.5 -86t-171 -36t-159 15t-130.5 68t-85.5 123t-23 179.5zM130.5 924.5q-7.5 40.5 1 80t30 71.5t50.5 42.5t62.5 -7t65.5 -77.5q-23 8 -45.5 11t-44 -1.5t-41.5 -18.5t-37 -40 q15 -18 33 -27t37.5 -12t40 -1.5t40.5 4.5l101 35l-23 -116l-124 -34q-45 -16 -77 -39t-52 -50q-9 17 -12 30.5t0 26t11 25.5t20 29q-29 28 -36.5 68.5z" />
<glyph unicode="&#x626;" horiz-adv-x="1261" arabic-form="final" d="M89 -21q0 68 17.5 148t49.5 157.5t77.5 145.5t101.5 112q29 0 34 -6.5t-3 -19.5q-79 -130 -98.5 -229.5t7 -167t92.5 -102t159 -35.5t205.5 33t232.5 103q-24 54 -63 79.5t-86 35.5t-99 10.5t-103 5.5l94 259h584v-389l-164 1q-6 -20 -13 -40.5t-16 -42.5 q-30 -72 -89.5 -135t-136 -112.5t-164.5 -83t-175 -47t-167 -3.5t-141.5 47.5t-98.5 105t-37 170.5zM153.5 770.5q-7.5 40.5 1 80t30 71.5t50.5 42.5t62.5 -7t65.5 -77.5q-23 8 -45.5 11t-44 -1.5t-41.5 -18.5t-37 -40q15 -18 33 -27t37.5 -12t40 -1.5t40.5 4.5l101 35 l-23 -116l-124 -34q-45 -16 -77 -39t-52 -50q-9 17 -12 30.5t0 26t11 25.5t20 29q-29 28 -36.5 68.5z" />
<glyph unicode="&#x626;" horiz-adv-x="690" arabic-form="initial" d="M-29 121v390l493 -1l-107 270l156 171q17 19 35.5 -7t35 -80.5t30 -131t19.5 -159t4 -163.5t-16 -145t-41 -104t-71 -40h-538zM249.5 1183.5q-7.5 40.5 1 80t30 71.5t50.5 42.5t62.5 -7t65.5 -77.5q-23 8 -45.5 11t-44 -1.5t-41.5 -18.5t-37 -40q15 -18 33 -27t37.5 -12 t40 -1.5t40.5 4.5l101 35l-23 -116l-124 -34q-45 -16 -77 -39t-52 -50q-9 17 -12 30.5t0 26t11 25.5t20 29q-29 28 -36.5 68.5z" />
<glyph unicode="&#x626;" horiz-adv-x="629" arabic-form="medial" d="M-31 509l356 -1l-107 270l156 171q12 13 25.5 2.5t26.5 -39t25 -72.5t21.5 -97.5t16 -113.5t9.5 -120l163 -1l1 -389h-690zM153.5 1157.5q-7.5 40.5 1 80t30 71.5t50.5 42.5t62.5 -7t65.5 -77.5q-23 8 -45.5 11t-44 -1.5t-41.5 -18.5t-37 -40q15 -18 33 -27t37.5 -12 t40 -1.5t40.5 4.5l101 35l-23 -116l-124 -34q-45 -16 -77 -39t-52 -50q-9 17 -12 30.5t0 26t11 25.5t20 29q-29 28 -36.5 68.5z" />
<glyph unicode="&#x627;" horiz-adv-x="399" arabic-form="isolated" d="M118.5 1210q0.5 22 6 42t20.5 34l143 132q5 -131 9 -269t6 -271t1.5 -255.5t-4 -223.5t-10.5 -174t-18 -106q-44 7 -71 48t-34 128l-46 834q0 16 -1.5 37.5t-1 43.5z" />
<glyph unicode="&#x627;" horiz-adv-x="434" arabic-form="final" d="M46.5 1210q0.5 22 6 42t20.5 34l143 132q12 -231 18.5 -455.5t11.5 -453.5h217v-390h-263q-44 7 -71 48t-34 128l-46 834q0 16 -1.5 37.5t-1 43.5z" />
<glyph unicode="&#x628;" horiz-adv-x="1616" arabic-form="isolated" d="M69 520q4 76 29.5 149.5t74.5 132.5q15 19 29 30t22 13t10 -4.5t-7 -22.5t-11.5 -43t2.5 -59.5t18 -66.5t36 -63t56.5 -50t79.5 -28q482 1 965 0l-107 270l156 171q17 19 35.5 -7t35 -80.5t30 -131t19.5 -159t4 -163.5t-16 -145t-41 -104t-71 -40h-1054q-75 0 -132 34 t-94.5 90.5t-55 128.5t-13.5 148zM830 -235q-1 13 7 23l103 127q8 10 21 11t24 -7l126 -102q10 -8 11.5 -21.5t-7.5 -23.5l-102 -127q-8 -10 -21.5 -11t-23.5 7l-126 102q-11 9 -12 22z" />
<glyph unicode="&#x628;" horiz-adv-x="1657" arabic-form="final" d="M60 520q4 76 29.5 149.5t74.5 132.5q15 19 29 30t22 13t10 -4.5t-7 -22.5q-8 -16 -10.5 -43t2 -59.5t17.5 -66.5t36 -63t57 -50t80 -28h964l-107 270l156 171q12 14 25.5 3.5t26.5 -39.5t25 -73t21.5 -97.5t16 -113.5t9.5 -120l163 -1l2 -389h-1347q-75 0 -132 34 t-94.5 90.5t-55 128.5t-13.5 148zM846 -255q-1 13 7 23l103 127q8 10 21 11t24 -7l126 -102q10 -8 11.5 -21.5t-7.5 -23.5l-102 -127q-8 -10 -21.5 -11t-23.5 7l-126 102q-11 9 -12 22z" />
<glyph unicode="&#x628;" horiz-adv-x="703" arabic-form="initial" d="M-29 121v390l493 -1l-107 270l156 171q17 19 35.5 -7t35 -80.5t30 -131t19.5 -159t4 -163.5t-16 -145t-41 -104t-71 -40h-538zM287 -239q-1 13 7 23l103 127q8 10 21 11t24 -7l126 -102q10 -8 11.5 -21.5t-7.5 -23.5l-102 -127q-8 -10 -21.5 -11t-23.5 7l-126 102 q-11 9 -12 22z" />
<glyph unicode="&#x628;" horiz-adv-x="627" arabic-form="medial" d="M-31 509l356 -1l-107 270l156 171q12 13 25.5 2.5t26.5 -39t25 -72.5t21.5 -97.5t16 -113.5t9.5 -120l163 -1l1 -389h-690zM156 -229q-1 13 7 23l103 127q8 10 21 11t24 -7l126 -102q10 -8 11.5 -21.5t-7.5 -23.5l-102 -127q-8 -10 -21.5 -11t-23.5 7l-126 102 q-11 9 -12 22z" />
<glyph unicode="&#x629;" horiz-adv-x="721" arabic-form="isolated" d="M73 296q19 176 59.5 301t93 203t111.5 111.5t113.5 27t100 -51.5t70.5 -123t25 -188q0 -109 -36 -245q-14 -54 -62 -100t-110.5 -77t-130.5 -43t-123 2t-87.5 58t-23.5 125zM104.5 1234q-1.5 13 7.5 24l102 126q9 11 22 12t24 -7l126 -103q2 -1 4 -5l84 103q8 11 21.5 12 t23.5 -7l127 -103q10 -8 11 -21t-7 -24l-102 -126q-8 -11 -21.5 -12t-23.5 7l-127 103l-5 5l-83 -103q-9 -11 -22 -12t-24 7l-126 103q-10 8 -11.5 21zM219 514q32 -32 63.5 -49.5t53.5 -17.5q21 0 51.5 11t58 27.5t45.5 34t13 31.5q-16 27 -34 48.5t-35 36.5t-32 23t-25 8 q-20 0 -49 -14.5t-54.5 -37t-42.5 -49.5t-13 -52z" />
<glyph unicode="&#x629;" horiz-adv-x="792" arabic-form="final" d="M51.5 1290q-1.5 13 7.5 24l102 126q9 11 22 12t24 -7l126 -103q2 -1 4 -5l84 103q8 11 21.5 12t23.5 -7l127 -103q10 -8 11 -21t-7 -24l-102 -126q-8 -11 -21.5 -12t-23.5 7l-127 103l-5 5l-83 -103q-9 -11 -22 -12t-24 7l-126 103q-10 8 -11.5 21zM68 431.5 q9 87.5 70 221.5q16 36 49 62.5t73 47.5t81.5 38.5t74.5 35.5q-2 7 -3.5 17.5t-2.5 21.5l-2 22t-1 18q0 1 9 10t24.5 28.5t37 50.5t46.5 76q16 -41 28 -98.5t22.5 -120.5t20.5 -125t23.5 -113t31.5 -84t44 -37l148 3v-387h-174q-44 6 -73 30.5t-49 58.5t-34 74t-26 78 q-7 -13 -19 -41.5t-27.5 -57.5t-33 -51t-35.5 -22q-100 4 -172 27t-106 76t-25 140.5zM278 613q38 -13 69 -25t54 -18.5t37.5 -4t19.5 19t0 50t-20 89.5q-19 -24 -39 -38.5t-40.5 -25l-41 -21t-39.5 -26.5z" />
<glyph unicode="&#x62a;" horiz-adv-x="1616" arabic-form="isolated" d="M69 520q4 76 29.5 149.5t74.5 132.5q15 19 29 30t22 13t10 -4.5t-7 -22.5t-11.5 -43t2.5 -59.5t18 -66.5t36 -63t56.5 -50t79.5 -28q482 1 965 0l-107 270l156 171q17 19 35.5 -7t35 -80.5t30 -131t19.5 -159t4 -163.5t-16 -145t-41 -104t-71 -40h-1054q-75 0 -132 34 t-94.5 90.5t-55 128.5t-13.5 148zM581.5 1101q-1.5 13 7.5 24l102 126q9 11 22 12t24 -7l126 -103q2 -1 4 -5l84 103q8 11 21.5 12t23.5 -7l127 -103q10 -8 11 -21t-7 -24l-102 -126q-8 -11 -21.5 -12t-23.5 7l-127 103l-5 5l-83 -103q-9 -11 -22 -12t-24 7l-126 103 q-10 8 -11.5 21z" />
<glyph unicode="&#x62a;" horiz-adv-x="1657" arabic-form="final" d="M60 520q4 76 29.5 149.5t74.5 132.5q15 19 29 30t22 13t10 -4.5t-7 -22.5q-8 -16 -10.5 -43t2 -59.5t17.5 -66.5t36 -63t57 -50t80 -28h964l-107 270l156 171q12 14 25.5 3.5t26.5 -39.5t25 -73t21.5 -97.5t16 -113.5t9.5 -120l163 -1l2 -389h-1347q-75 0 -132 34 t-94.5 90.5t-55 128.5t-13.5 148zM548.5 1109q-1.5 13 7.5 24l102 126q9 11 22 12t24 -7l126 -103q2 -1 4 -5l84 103q8 11 21.5 12t23.5 -7l127 -103q10 -8 11 -21t-7 -24l-102 -126q-8 -11 -21.5 -12t-23.5 7l-127 103l-5 5l-83 -103q-9 -11 -22 -12t-24 7l-126 103 q-10 8 -11.5 21z" />
<glyph unicode="&#x62a;" horiz-adv-x="703" arabic-form="initial" d="M-29 121v390l493 -1l-107 270l156 171q17 19 35.5 -7t35 -80.5t30 -131t19.5 -159t4 -163.5t-16 -145t-41 -104t-71 -40h-538zM36.5 1225q-1.5 13 7.5 24l102 126q9 11 22 12t24 -7l126 -103q2 -1 4 -5l84 103q8 11 21.5 12t23.5 -7l127 -103q10 -8 11 -21t-7 -24 l-102 -126q-8 -11 -21.5 -12t-23.5 7l-127 103l-5 5l-83 -103q-9 -11 -22 -12t-24 7l-126 103q-10 8 -11.5 21z" />
<glyph unicode="&#x62a;" horiz-adv-x="627" arabic-form="medial" d="M-31 509l356 -1l-107 270l156 171q12 13 25.5 2.5t26.5 -39t25 -72.5t21.5 -97.5t16 -113.5t9.5 -120l163 -1l1 -389h-690zM42.5 1233q-1.5 13 7.5 24l102 126q9 11 22 12t24 -7l126 -103q2 -1 4 -5l84 103q8 11 21.5 12t23.5 -7l127 -103q10 -8 11 -21t-7 -24l-102 -126 q-8 -11 -21.5 -12t-23.5 7l-127 103l-5 5l-83 -103q-9 -11 -22 -12t-24 7l-126 103q-10 8 -11.5 21z" />
<glyph unicode="&#x62b;" horiz-adv-x="1616" arabic-form="isolated" d="M69 520q4 76 29.5 149.5t74.5 132.5q15 19 29 30t22 13t10 -4.5t-7 -22.5t-11.5 -43t2.5 -59.5t18 -66.5t36 -63t56.5 -50t79.5 -28q482 1 965 0l-107 270l156 171q17 19 35.5 -7t35 -80.5t30 -131t19.5 -159t4 -163.5t-16 -145t-41 -104t-71 -40h-1054q-75 0 -132 34 t-94.5 90.5t-55 128.5t-13.5 148zM581.5 1101q-1.5 13 7.5 24l102 126q9 11 22 12t24 -7l126 -103q2 -1 4 -5l84 103q8 11 21.5 12t23.5 -7l127 -103q10 -8 11 -21t-7 -24l-102 -126q-8 -11 -21.5 -12t-23.5 7l-127 103l-5 5l-83 -103q-9 -11 -22 -12t-24 7l-126 103 q-10 8 -11.5 21zM692 1398q-1 13 7 23l103 127q8 10 21 11t24 -7l126 -102q10 -8 11.5 -21.5t-7.5 -23.5l-102 -127q-8 -10 -21.5 -11t-23.5 7l-126 102q-11 9 -12 22z" />
<glyph unicode="&#x62b;" horiz-adv-x="1657" arabic-form="final" d="M60 520q4 76 29.5 149.5t74.5 132.5q15 19 29 30t22 13t10 -4.5t-7 -22.5q-8 -16 -10.5 -43t2 -59.5t17.5 -66.5t36 -63t57 -50t80 -28h964l-107 270l156 171q12 14 25.5 3.5t26.5 -39.5t25 -73t21.5 -97.5t16 -113.5t9.5 -120l163 -1l2 -389h-1347q-75 0 -132 34 t-94.5 90.5t-55 128.5t-13.5 148zM548.5 1109q-1.5 13 7.5 24l102 126q9 11 22 12t24 -7l126 -103q2 -1 4 -5l84 103q8 11 21.5 12t23.5 -7l127 -103q10 -8 11 -21t-7 -24l-102 -126q-8 -11 -21.5 -12t-23.5 7l-127 103l-5 5l-83 -103q-9 -11 -22 -12t-24 7l-126 103 q-10 8 -11.5 21zM659 1406q-1 13 7 23l103 127q8 10 21 11t24 -7l126 -102q10 -8 11.5 -21.5t-7.5 -23.5l-102 -127q-8 -10 -21.5 -11t-23.5 7l-126 102q-11 9 -12 22z" />
<glyph unicode="&#x62b;" horiz-adv-x="703" arabic-form="initial" d="M-29 121v390l493 -1l-107 270l156 171q17 19 35.5 -7t35 -80.5t30 -131t19.5 -159t4 -163.5t-16 -145t-41 -104t-71 -40h-538zM36.5 1225q-1.5 13 7.5 24l102 126q9 11 22 12t24 -7l126 -103q2 -1 4 -5l84 103q8 11 21.5 12t23.5 -7l127 -103q10 -8 11 -21t-7 -24 l-102 -126q-8 -11 -21.5 -12t-23.5 7l-127 103l-5 5l-83 -103q-9 -11 -22 -12t-24 7l-126 103q-10 8 -11.5 21zM147 1522q-1 13 7 23l103 127q8 10 21 11t24 -7l126 -102q10 -8 11.5 -21.5t-7.5 -23.5l-102 -127q-8 -10 -21.5 -11t-23.5 7l-126 102q-11 9 -12 22z" />
<glyph unicode="&#x62b;" horiz-adv-x="627" arabic-form="medial" d="M-31 509l356 -1l-107 270l156 171q12 13 25.5 2.5t26.5 -39t25 -72.5t21.5 -97.5t16 -113.5t9.5 -120l163 -1l1 -389h-690zM42.5 1233q-1.5 13 7.5 24l102 126q9 11 22 12t24 -7l126 -103q2 -1 4 -5l84 103q8 11 21.5 12t23.5 -7l127 -103q10 -8 11 -21t-7 -24l-102 -126 q-8 -11 -21.5 -12t-23.5 7l-127 103l-5 5l-83 -103q-9 -11 -22 -12t-24 7l-126 103q-10 8 -11.5 21zM153 1530q-1 13 7 23l103 127q8 10 21 11t24 -7l126 -102q10 -8 11.5 -21.5t-7.5 -23.5l-102 -127q-8 -10 -21.5 -11t-23.5 7l-126 102q-11 9 -12 22z" />
<glyph unicode="&#x62c;" horiz-adv-x="1125" arabic-form="isolated" d="M68 -23q-1 102 25.5 204t78 191t126.5 157t171 101q23 8 40.5 15t16.5 15.5t-26 20.5t-86 31q-37 11 -75.5 9.5t-74.5 -11.5t-67.5 -26t-55 -34t-36.5 -35t-12 -29l-20 48q38 112 80 180.5t86.5 104t91.5 43.5t95 -1t98 -29t100.5 -41t101.5 -37t101 -17l177 -19 l-59 -263q-4 -18 -24 -21t-50 -2.5t-67 0.5q-36 0 -73 -12q-140 -25 -245.5 -75t-173.5 -115t-98.5 -138.5t-20 -144t62.5 -133t148 -105t238 -59.5t331 3q64 7 133 10t123 3q39 0 47 -9t-3.5 -24.5t-34.5 -36t-45 -42.5q-51 -51 -92 -86.5t-80.5 -59.5t-81.5 -37.5 t-93.5 -20t-116.5 -7t-152 1.5q-131 3 -226.5 48t-158 118.5t-93 168.5t-31.5 197zM494 150q-1 13 7 23l103 127q8 10 21 11t24 -7l126 -102q10 -8 11.5 -21.5t-7.5 -23.5l-102 -127q-8 -10 -21.5 -11t-23.5 7l-126 102q-11 9 -12 22z" />
<glyph unicode="&#x62c;" horiz-adv-x="1183" arabic-form="final" d="M61.5 -10.5q-0.5 104.5 26.5 209.5t79 195.5t127 159.5t171 103q24 8 40 10.5t14 6t-28.5 11.5t-87.5 27q-37 11 -75.5 9.5t-74.5 -11.5t-67 -26t-54.5 -34t-36.5 -35t-12 -29l-20 48q38 112 78.5 182.5t82.5 108.5t86 49.5t89 6.5t92 -22t95 -35t97.5 -32.5t100.5 -14.5 l223 -13l-66 -223q-4 -13 -14 -19.5t-26 -10t-36 -5t-44 -4.5q10 -29 40.5 -54.5t93.5 -38.5h119h44t-7 -0.5t-32 -0.5h-31q-12 0 -3 0h48h128l2 -389h-276q-61 -3 -104 16t-72 53t-45 80.5t-22.5 98.5t-4.5 106.5t10 105.5q-133 -29 -233.5 -83.5t-165.5 -124.5t-93.5 -148 t-18 -153.5t61.5 -141.5t145 -111.5t233 -64.5t325 1q64 7 133 10t123 3q39 0 47 -9t-3.5 -24.5t-34.5 -36t-45 -42.5q-51 -51 -92 -86.5t-80.5 -59.5t-81.5 -37.5t-93.5 -20t-117 -7t-152.5 1.5q-131 3 -226 49.5t-157 121.5t-91.5 172t-30 201.5zM362 91q-1 13 7 23 l103 127q8 10 21 11t24 -7l126 -102q10 -8 11.5 -21.5t-7.5 -23.5l-102 -127q-8 -10 -21.5 -11t-23.5 7l-126 102q-11 9 -12 22z" />
<glyph unicode="&#x62c;" horiz-adv-x="1133" arabic-form="initial" d="M-30 119l2 390l407 -1q41 6 73 14t60 20t53.5 30t54.5 45q18 17 24 30t-6.5 25.5t-46.5 26.5t-95 33q-37 11 -75.5 8t-74.5 -15t-67.5 -31t-55 -39t-36.5 -38.5t-12 -30.5l-20 48q39 112 80.5 180.5t86 104t91.5 43.5t95 -1t98 -29t100.5 -41t101 -37t101.5 -17l177 -19 l-59 -263q-4 -18 -20.5 -26.5t-42.5 -13.5t-59 -10.5t-70 -18.5q-45 -16 -81.5 -49.5t-67.5 -74t-59 -84t-57 -79t-61.5 -58t-71.5 -22.5h-467zM390 -176q-1 13 7 23l103 127q8 10 21 11t24 -7l126 -102q10 -8 11.5 -21.5t-7.5 -23.5l-102 -127q-8 -10 -21.5 -11t-23.5 7 l-126 102q-11 9 -12 22z" />
<glyph unicode="&#x62c;" horiz-adv-x="1110" arabic-form="medial" d="M-31 119v390l344 -1q24 2 45.5 3t44.5 6t49 18.5t61 42.5q19 15 27 29.5t-2.5 29t-43.5 30.5t-94 35q-56 17 -108.5 8t-94 -31t-66 -48.5t-22.5 -44.5l-20 48q39 112 79.5 179t83 99.5t87 36.5t90.5 -8.5t93.5 -36.5t96 -48t98 -41.5t100.5 -18.5l180 -11l-78 -276h227 v-390h-306l-119 317q-35 -23 -65 -55.5t-57 -68t-53 -70t-53 -62t-56.5 -44.5t-64.5 -17h-403zM322 -192q-1 13 7 23l103 127q8 10 21 11t24 -7l126 -102q10 -8 11.5 -21.5t-7.5 -23.5l-102 -127q-8 -10 -21.5 -11t-23.5 7l-126 102q-11 9 -12 22z" />
<glyph unicode="&#x62d;" horiz-adv-x="1125" arabic-form="isolated" d="M68 -23q-1 102 25.5 204t78 191t126.5 157t171 101q23 8 40.5 15t16.5 15.5t-26 20.5t-86 31q-37 11 -75.5 9.5t-74.5 -11.5t-67.5 -26t-55 -34t-36.5 -35t-12 -29l-20 48q38 112 80 180.5t86.5 104t91.5 43.5t95 -1t98 -29t100.5 -41t101.5 -37t101 -17l177 -19 l-59 -263q-4 -18 -24 -21t-50 -2.5t-67 0.5q-36 0 -73 -12q-140 -25 -245.5 -75t-173.5 -115t-98.5 -138.5t-20 -144t62.5 -133t148 -105t238 -59.5t331 3q64 7 133 10t123 3q39 0 47 -9t-3.5 -24.5t-34.5 -36t-45 -42.5q-51 -51 -92 -86.5t-80.5 -59.5t-81.5 -37.5 t-93.5 -20t-116.5 -7t-152 1.5q-131 3 -226.5 48t-158 118.5t-93 168.5t-31.5 197z" />
<glyph unicode="&#x62d;" horiz-adv-x="1183" arabic-form="final" d="M61.5 -10.5q-0.5 104.5 26.5 209.5t79 195.5t127 159.5t171 103q24 8 40 10.5t14 6t-28.5 11.5t-87.5 27q-37 11 -75.5 9.5t-74.5 -11.5t-67 -26t-54.5 -34t-36.5 -35t-12 -29l-20 48q38 112 78.5 182.5t82.5 108.5t86 49.5t89 6.5t92 -22t95 -35t97.5 -32.5t100.5 -14.5 l223 -13l-66 -223q-4 -13 -14 -19.5t-26 -10t-36 -5t-44 -4.5q10 -29 40.5 -54.5t93.5 -38.5h119h44t-7 -0.5t-32 -0.5h-31q-12 0 -3 0h48h128l2 -389h-276q-61 -3 -104 16t-72 53t-45 80.5t-22.5 98.5t-4.5 106.5t10 105.5q-133 -29 -233.5 -83.5t-165.5 -124.5t-93.5 -148 t-18 -153.5t61.5 -141.5t145 -111.5t233 -64.5t325 1q64 7 133 10t123 3q39 0 47 -9t-3.5 -24.5t-34.5 -36t-45 -42.5q-51 -51 -92 -86.5t-80.5 -59.5t-81.5 -37.5t-93.5 -20t-117 -7t-152.5 1.5q-131 3 -226 49.5t-157 121.5t-91.5 172t-30 201.5z" />
<glyph unicode="&#x62d;" horiz-adv-x="1133" arabic-form="initial" d="M-30 119l2 390l407 -1q41 6 73 14t60 20t53.5 30t54.5 45q18 17 24 30t-6.5 25.5t-46.5 26.5t-95 33q-37 11 -75.5 8t-74.5 -15t-67.5 -31t-55 -39t-36.5 -38.5t-12 -30.5l-20 48q39 112 80.5 180.5t86 104t91.5 43.5t95 -1t98 -29t100.5 -41t101 -37t101.5 -17l177 -19 l-59 -263q-4 -18 -20.5 -26.5t-42.5 -13.5t-59 -10.5t-70 -18.5q-45 -16 -81.5 -49.5t-67.5 -74t-59 -84t-57 -79t-61.5 -58t-71.5 -22.5h-467z" />
<glyph unicode="&#x62d;" horiz-adv-x="1110" arabic-form="medial" d="M-31 119v390l344 -1q24 2 45.5 3t44.5 6t49 18.5t61 42.5q19 15 27 29.5t-2.5 29t-43.5 30.5t-94 35q-56 17 -108.5 8t-94 -31t-66 -48.5t-22.5 -44.5l-20 48q39 112 79.5 179t83 99.5t87 36.5t90.5 -8.5t93.5 -36.5t96 -48t98 -41.5t100.5 -18.5l180 -11l-78 -276h227 v-390h-306l-119 317q-35 -23 -65 -55.5t-57 -68t-53 -70t-53 -62t-56.5 -44.5t-64.5 -17h-403z" />
<glyph unicode="&#x62e;" horiz-adv-x="1125" arabic-form="isolated" d="M68 -23q-1 102 25.5 204t78 191t126.5 157t171 101q23 8 40.5 15t16.5 15.5t-26 20.5t-86 31q-37 11 -75.5 9.5t-74.5 -11.5t-67.5 -26t-55 -34t-36.5 -35t-12 -29l-20 48q38 112 80 180.5t86.5 104t91.5 43.5t95 -1t98 -29t100.5 -41t101.5 -37t101 -17l177 -19 l-59 -263q-4 -18 -24 -21t-50 -2.5t-67 0.5q-36 0 -73 -12q-140 -25 -245.5 -75t-173.5 -115t-98.5 -138.5t-20 -144t62.5 -133t148 -105t238 -59.5t331 3q64 7 133 10t123 3q39 0 47 -9t-3.5 -24.5t-34.5 -36t-45 -42.5q-51 -51 -92 -86.5t-80.5 -59.5t-81.5 -37.5 t-93.5 -20t-116.5 -7t-152 1.5q-131 3 -226.5 48t-158 118.5t-93 168.5t-31.5 197zM223 1250q-1 13 7 23l103 127q8 10 21 11t24 -7l126 -102q10 -8 11.5 -21.5t-7.5 -23.5l-102 -127q-8 -10 -21.5 -11t-23.5 7l-126 102q-11 9 -12 22z" />
<glyph unicode="&#x62e;" horiz-adv-x="1183" arabic-form="final" d="M61.5 -10.5q-0.5 104.5 26.5 209.5t79 195.5t127 159.5t171 103q24 8 40 10.5t14 6t-28.5 11.5t-87.5 27q-37 11 -75.5 9.5t-74.5 -11.5t-67 -26t-54.5 -34t-36.5 -35t-12 -29l-20 48q38 112 78.5 182.5t82.5 108.5t86 49.5t89 6.5t92 -22t95 -35t97.5 -32.5t100.5 -14.5 l223 -13l-66 -223q-4 -13 -14 -19.5t-26 -10t-36 -5t-44 -4.5q10 -29 40.5 -54.5t93.5 -38.5h119h44t-7 -0.5t-32 -0.5h-31q-12 0 -3 0h48h128l2 -389h-276q-61 -3 -104 16t-72 53t-45 80.5t-22.5 98.5t-4.5 106.5t10 105.5q-133 -29 -233.5 -83.5t-165.5 -124.5t-93.5 -148 t-18 -153.5t61.5 -141.5t145 -111.5t233 -64.5t325 1q64 7 133 10t123 3q39 0 47 -9t-3.5 -24.5t-34.5 -36t-45 -42.5q-51 -51 -92 -86.5t-80.5 -59.5t-81.5 -37.5t-93.5 -20t-117 -7t-152.5 1.5q-131 3 -226 49.5t-157 121.5t-91.5 172t-30 201.5zM341 1258q-1 13 7 23 l103 127q8 10 21 11t24 -7l126 -102q10 -8 11.5 -21.5t-7.5 -23.5l-102 -127q-8 -10 -21.5 -11t-23.5 7l-126 102q-11 9 -12 22z" />
<glyph unicode="&#x62e;" horiz-adv-x="1133" arabic-form="initial" d="M-30 119l2 390l407 -1q41 6 73 14t60 20t53.5 30t54.5 45q18 17 24 30t-6.5 25.5t-46.5 26.5t-95 33q-37 11 -75.5 8t-74.5 -15t-67.5 -31t-55 -39t-36.5 -38.5t-12 -30.5l-20 48q39 112 80.5 180.5t86 104t91.5 43.5t95 -1t98 -29t100.5 -41t101 -37t101.5 -17l177 -19 l-59 -263q-4 -18 -20.5 -26.5t-42.5 -13.5t-59 -10.5t-70 -18.5q-45 -16 -81.5 -49.5t-67.5 -74t-59 -84t-57 -79t-61.5 -58t-71.5 -22.5h-467zM246 1229q-1 13 7 23l103 127q8 10 21 11t24 -7l126 -102q10 -8 11.5 -21.5t-7.5 -23.5l-102 -127q-8 -10 -21.5 -11t-23.5 7 l-126 102q-11 9 -12 22z" />
<glyph unicode="&#x62e;" horiz-adv-x="1110" arabic-form="medial" d="M-31 119v390l344 -1q24 2 45.5 3t44.5 6t49 18.5t61 42.5q19 15 27 29.5t-2.5 29t-43.5 30.5t-94 35q-56 17 -108.5 8t-94 -31t-66 -48.5t-22.5 -44.5l-20 48q39 112 79.5 179t83 99.5t87 36.5t90.5 -8.5t93.5 -36.5t96 -48t98 -41.5t100.5 -18.5l180 -11l-78 -276h227 v-390h-306l-119 317q-35 -23 -65 -55.5t-57 -68t-53 -70t-53 -62t-56.5 -44.5t-64.5 -17h-403zM224 1230q-1 13 7 23l103 127q8 10 21 11t24 -7l126 -102q10 -8 11.5 -21.5t-7.5 -23.5l-102 -127q-8 -10 -21.5 -11t-23.5 7l-126 102q-11 9 -12 22z" />
<glyph unicode="&#x62f;" horiz-adv-x="819" arabic-form="isolated" d="M60 119v390h116t121 -0.5t121 -0.5h116q3 21 -3.5 55t-22.5 72t-42.5 75.5t-63 67t-84 46t-105.5 11.5l82 169q15 34 37 49.5t49 17.5t57 -8t59 -27q57 -27 100.5 -80.5t74 -123t48 -149t21.5 -159t-6 -153t-33.5 -129.5t-60.5 -89.5t-89 -33.5h-492z" />
<glyph unicode="&#x62f;" horiz-adv-x="949" arabic-form="final" d="M93.5 360q-1.5 46 3 91t12 86.5t13.5 73.5q4 24 12.5 36.5t17 14t15.5 -7.5t9 -27q4 -32 11.5 -54.5t25 -37t47 -20.5t77.5 -6h243l-128 412l179 174l178 -586h99h41q9 0 -2 0q-10 0 -30 -0.5t-44.5 0t-43.5 0t-29 -0.5q-9 0 2 0h46h106l2 -389h-166q-19 2 -40 7.5 t-40.5 17.5t-36 32t-25.5 52l-31 -109h-304q-29 0 -55.5 1t-47.5 13q-42 24 -66.5 60t-36.5 78.5t-13.5 88.5z" />
<glyph unicode="&#x630;" horiz-adv-x="819" arabic-form="isolated" d="M60 119v390h116t121 -0.5t121 -0.5h116q3 21 -3.5 55t-22.5 72t-42.5 75.5t-63 67t-84 46t-105.5 11.5l82 169q15 34 37 49.5t49 17.5t57 -8t59 -27q57 -27 100.5 -80.5t74 -123t48 -149t21.5 -159t-6 -153t-33.5 -129.5t-60.5 -89.5t-89 -33.5h-492zM187 1299 q-1 13 7 23l103 127q8 10 21 11t24 -7l126 -102q10 -8 11.5 -21.5t-7.5 -23.5l-102 -127q-8 -10 -21.5 -11t-23.5 7l-126 102q-11 9 -12 22z" />
<glyph unicode="&#x630;" horiz-adv-x="949" arabic-form="final" d="M93.5 360q-1.5 46 3 91t12 86.5t13.5 73.5q4 24 12.5 36.5t17 14t15.5 -7.5t9 -27q4 -32 11.5 -54.5t25 -37t47 -20.5t77.5 -6h243l-128 412l179 174l178 -586h99h41q9 0 -2 0q-10 0 -30 -0.5t-44.5 0t-43.5 0t-29 -0.5q-9 0 2 0h46h106l2 -389h-166q-19 2 -40 7.5 t-40.5 17.5t-36 32t-25.5 52l-31 -109h-304q-29 0 -55.5 1t-47.5 13q-42 24 -66.5 60t-36.5 78.5t-13.5 88.5zM266 1219q-1 13 7 23l103 127q8 10 21 11t24 -7l126 -102q10 -8 11.5 -21.5t-7.5 -23.5l-102 -127q-8 -10 -21.5 -11t-23.5 7l-126 102q-11 9 -12 22z" />
<glyph unicode="&#x631;" horiz-adv-x="847" arabic-form="isolated" d="M-102 -17l5 42q65 -38 141 -60.5t153 -24.5t151.5 20.5t136.5 75.5t107 139.5t64 212.5l-222 347l95 211q6 13 16 12t23 -14t29 -36.5t33 -54.5q23 -34 45 -73t41 -87.5t34.5 -109.5t26.5 -139q10 -77 3 -162t-30 -167t-62.5 -155.5t-93 -128t-122 -84t-150 -23.5 t-175.5 53t-200 146q-9 9 -16 15t-12.5 12.5t-10.5 14t-10 18.5z" />
<glyph unicode="&#x631;" horiz-adv-x="847" arabic-form="final" d="M-196 -17l5 42q65 -38 141 -60.5t153 -24.5t151.5 20.5t136.5 75.5t107 139.5t64 212.5l-222 347l95 211q6 13 16 12t23 -14t28.5 -36.5t33.5 -54.5q23 -28 44.5 -64t41.5 -74.5t39 -75.5t38 -65.5t38 -46.5t39 -18l105 -1l1 -389h-165l-43 73q-17 -90 -53 -175 t-89 -150.5t-123 -104.5t-156 -39q-85 0 -185.5 46.5t-214.5 153.5q-9 9 -16 15t-12.5 12.5t-10.5 14t-10 18.5z" />
<glyph unicode="&#x632;" horiz-adv-x="847" arabic-form="isolated" d="M-102 -17l5 42q65 -38 141 -60.5t153 -24.5t151.5 20.5t136.5 75.5t107 139.5t64 212.5l-222 347l95 211q6 13 16 12t23 -14t29 -36.5t33 -54.5q23 -34 45 -73t41 -87.5t34.5 -109.5t26.5 -139q10 -77 3 -162t-30 -167t-62.5 -155.5t-93 -128t-122 -84t-150 -23.5 t-175.5 53t-200 146q-9 9 -16 15t-12.5 12.5t-10.5 14t-10 18.5zM240 1219q-1 13 7 23l103 127q8 10 21 11t24 -7l126 -102q10 -8 11.5 -21.5t-7.5 -23.5l-102 -127q-8 -10 -21.5 -11t-23.5 7l-126 102q-11 9 -12 22z" />
<glyph unicode="&#x632;" horiz-adv-x="847" arabic-form="final" d="M-196 -17l5 42q65 -38 141 -60.5t153 -24.5t151.5 20.5t136.5 75.5t107 139.5t64 212.5l-222 347l95 211q6 13 16 12t23 -14t28.5 -36.5t33.5 -54.5q23 -28 44.5 -64t41.5 -74.5t39 -75.5t38 -65.5t38 -46.5t39 -18l105 -1l1 -389h-165l-43 73q-17 -90 -53 -175 t-89 -150.5t-123 -104.5t-156 -39q-85 0 -185.5 46.5t-214.5 153.5q-9 9 -16 15t-12.5 12.5t-10.5 14t-10 18.5zM250 1229q-1 13 7 23l103 127q8 10 21 11t24 -7l126 -102q10 -8 11.5 -21.5t-7.5 -23.5l-102 -127q-8 -10 -21.5 -11t-23.5 7l-126 102q-11 9 -12 22z" />
<glyph unicode="&#x633;" horiz-adv-x="2033" arabic-form="isolated" d="M54.5 119q-13.5 121 21.5 279q4 22 15 52t24 56t24.5 42.5t17.5 11.5q13 -10 19 -16t1 -25q-28 -114 -16 -202t51 -149.5t99 -96.5t128 -43q69 -8 140 8.5t130 64.5q67 54 101 99t43.5 86t-2 79.5t-35 80t-54.5 88t-61 102.5q3 12 11.5 36.5t20.5 53t26.5 56.5t30 48.5 t30 28t27.5 -5.5q62 -64 89.5 -125.5t38 -109.5t14.5 -78t19 -31l296 -1l-19 181l169 155q3 3 3.5 -10t1 -38t3.5 -59t12 -72t25.5 -78.5t45.5 -77.5h133t133 -1l-107 270l156 171q17 19 35.5 -7t35 -80.5t30 -131t19.5 -159t4 -163.5t-16 -145t-41 -104t-71 -40h-319 q-19 2 -40 7.5t-40.5 17.5t-36 32t-25.5 52l-30 -109h-393q-33 -112 -96 -194.5t-143 -133.5t-169.5 -70t-174 -4t-157 63.5t-118.5 133t-59.5 205.5z" />
<glyph unicode="&#x633;" horiz-adv-x="2081" arabic-form="final" d="M58.5 119q-13.5 121 21.5 279q5 22 16 52t23.5 56t24 42.5t17.5 11.5q14 -10 19.5 -16t1.5 -25q-28 -114 -16.5 -202t50.5 -149.5t99 -96.5t128 -43q69 -8 140 8.5t130 64.5q67 54 101 99t43.5 86t-2 79.5t-35 80t-54.5 88t-61 102.5q3 12 11.5 36.5t20.5 53t27 56.5 t30 48.5t30 28t27 -5.5q62 -64 89.5 -125.5t38 -109.5t14.5 -78t19 -31l270 -1l-19 181l169 155q3 3 3.5 -10t1 -38t3.5 -59t12 -72t26 -78.5t45 -77.5h129v-1h95l-19 181l169 155q3 3 3 -10t1 -38t4 -59t12 -72t26 -78.5t45 -77.5h129v-390h-137q-19 2 -40 7.5t-40.5 17.5 t-36 32t-25.5 52l-30 -109h-294q-18 2 -39 7.5t-40.5 17.5t-35.5 32t-25 52l-31 -109h-367q-33 -112 -96 -194.5t-143 -133.5t-169.5 -70t-174 -4t-157 63.5t-118.5 133t-59.5 205.5z" />
<glyph unicode="&#x633;" horiz-adv-x="1601" arabic-form="initial" d="M-43 119v390l284 -1l-19 181l169 155q3 3 3.5 -10t1 -38t3.5 -59t12 -72t26 -78.5t45 -77.5l378 -1l-19 181l169 155q3 3 3.5 -10t1 -38t3.5 -59t12 -72t25.5 -78.5t45.5 -77.5h133t134 -1l-108 270l156 171q17 19 35.5 -7t35 -80.5t30 -131t19.5 -159t4 -163.5t-16 -145 t-41 -104t-71 -40h-319q-18 2 -39 7.5t-40.5 17.5t-36 32t-25.5 52l-31 -109h-447q-19 2 -40 7.5t-40.5 17.5t-36 32t-25.5 52l-30 -109h-345z" />
<glyph unicode="&#x633;" horiz-adv-x="1673" arabic-form="medial" d="M-41 119l1 390l284 -1l-19 181l169 155q3 3 3.5 -10t1 -38t3.5 -59t12 -72t25.5 -78.5t45.5 -77.5l378 -1l-19 181l170 155q3 3 3 -10t1 -38t4 -59t12 -72t26 -78.5t45 -77.5l266 -1l-108 270l157 171q12 13 25.5 2.5t26.5 -39t25 -72.5t21.5 -97.5t16 -113.5t8.5 -120 l163 -1l2 -389h-611q-19 2 -40 7.5t-40.5 17.5t-36 32t-25.5 52l-31 -109h-447q-18 2 -39.5 7.5t-41 17.5t-36 32t-25.5 52l-30 -109h-346z" />
<glyph unicode="&#x634;" horiz-adv-x="2033" arabic-form="isolated" d="M54.5 119q-13.5 121 21.5 279q4 22 15 52t24 56t24.5 42.5t17.5 11.5q13 -10 19 -16t1 -25q-28 -114 -16 -202t51 -149.5t99 -96.5t128 -43q69 -8 140 8.5t130 64.5q67 54 101 99t43.5 86t-2 79.5t-35 80t-54.5 88t-61 102.5q3 12 11.5 36.5t20.5 53t26.5 56.5t30 48.5 t30 28t27.5 -5.5q62 -64 89.5 -125.5t38 -109.5t14.5 -78t19 -31l296 -1l-19 181l169 155q3 3 3.5 -10t1 -38t3.5 -59t12 -72t25.5 -78.5t45.5 -77.5h133t133 -1l-107 270l156 171q17 19 35.5 -7t35 -80.5t30 -131t19.5 -159t4 -163.5t-16 -145t-41 -104t-71 -40h-319 q-19 2 -40 7.5t-40.5 17.5t-36 32t-25.5 52l-30 -109h-393q-33 -112 -96 -194.5t-143 -133.5t-169.5 -70t-174 -4t-157 63.5t-118.5 133t-59.5 205.5zM1063.5 1127q-1.5 13 7.5 24l102 126q9 11 22 12t24 -7l126 -103q2 -1 4 -5l84 103q8 11 21.5 12t23.5 -7l127 -103 q10 -8 11 -21t-7 -24l-102 -126q-8 -11 -21.5 -12t-23.5 7l-127 103l-5 5l-83 -103q-9 -11 -22 -12t-24 7l-126 103q-10 8 -11.5 21zM1174 1424q-1 13 7 23l103 127q8 10 21 11t24 -7l126 -102q10 -8 11.5 -21.5t-7.5 -23.5l-102 -127q-8 -10 -21.5 -11t-23.5 7l-126 102 q-11 9 -12 22z" />
<glyph unicode="&#x634;" horiz-adv-x="2081" arabic-form="final" d="M58.5 119q-13.5 121 21.5 279q5 22 16 52t23.5 56t24 42.5t17.5 11.5q14 -10 19.5 -16t1.5 -25q-28 -114 -16.5 -202t50.5 -149.5t99 -96.5t128 -43q69 -8 140 8.5t130 64.5q67 54 101 99t43.5 86t-2 79.5t-35 80t-54.5 88t-61 102.5q3 12 11.5 36.5t20.5 53t27 56.5 t30 48.5t30 28t27 -5.5q62 -64 89.5 -125.5t38 -109.5t14.5 -78t19 -31l270 -1l-19 181l169 155q3 3 3.5 -10t1 -38t3.5 -59t12 -72t26 -78.5t45 -77.5h129v-1h95l-19 181l169 155q3 3 3 -10t1 -38t4 -59t12 -72t26 -78.5t45 -77.5h129v-390h-137q-19 2 -40 7.5t-40.5 17.5 t-36 32t-25.5 52l-30 -109h-294q-18 2 -39 7.5t-40.5 17.5t-35.5 32t-25 52l-31 -109h-367q-33 -112 -96 -194.5t-143 -133.5t-169.5 -70t-174 -4t-157 63.5t-118.5 133t-59.5 205.5zM1083.5 1121q-1.5 13 7.5 24l102 126q9 11 22 12t24 -7l126 -103q2 -1 4 -5l84 103 q8 11 21.5 12t23.5 -7l127 -103q10 -8 11 -21t-7 -24l-102 -126q-8 -11 -21.5 -12t-23.5 7l-127 103l-5 5l-83 -103q-9 -11 -22 -12t-24 7l-126 103q-10 8 -11.5 21zM1194 1418q-1 13 7 23l103 127q8 10 21 11t24 -7l126 -102q10 -8 11.5 -21.5t-7.5 -23.5l-102 -127 q-8 -10 -21.5 -11t-23.5 7l-126 102q-11 9 -12 22z" />
<glyph unicode="&#x634;" horiz-adv-x="1601" arabic-form="initial" d="M-43 119v390l284 -1l-19 181l169 155q3 3 3.5 -10t1 -38t3.5 -59t12 -72t26 -78.5t45 -77.5l378 -1l-19 181l169 155q3 3 3.5 -10t1 -38t3.5 -59t12 -72t25.5 -78.5t45.5 -77.5h133t134 -1l-108 270l156 171q17 19 35.5 -7t35 -80.5t30 -131t19.5 -159t4 -163.5t-16 -145 t-41 -104t-71 -40h-319q-18 2 -39 7.5t-40.5 17.5t-36 32t-25.5 52l-31 -109h-447q-19 2 -40 7.5t-40.5 17.5t-36 32t-25.5 52l-30 -109h-345zM600.5 1155q-1.5 13 7.5 24l102 126q9 11 22 12t24 -7l126 -103q2 -1 4 -5l84 103q8 11 21.5 12t23.5 -7l127 -103q10 -8 11 -21 t-7 -24l-102 -126q-8 -11 -21.5 -12t-23.5 7l-127 103l-5 5l-83 -103q-9 -11 -22 -12t-24 7l-126 103q-10 8 -11.5 21zM711 1452q-1 13 7 23l103 127q8 10 21 11t24 -7l126 -102q10 -8 11.5 -21.5t-7.5 -23.5l-102 -127q-8 -10 -21.5 -11t-23.5 7l-126 102q-11 9 -12 22z " />
<glyph unicode="&#x634;" horiz-adv-x="1673" arabic-form="medial" d="M-41 119l1 390l284 -1l-19 181l169 155q3 3 3.5 -10t1 -38t3.5 -59t12 -72t25.5 -78.5t45.5 -77.5l378 -1l-19 181l170 155q3 3 3 -10t1 -38t4 -59t12 -72t26 -78.5t45 -77.5l266 -1l-108 270l157 171q12 13 25.5 2.5t26.5 -39t25 -72.5t21.5 -97.5t16 -113.5t8.5 -120 l163 -1l2 -389h-611q-19 2 -40 7.5t-40.5 17.5t-36 32t-25.5 52l-31 -109h-447q-18 2 -39.5 7.5t-41 17.5t-36 32t-25.5 52l-30 -109h-346zM608.5 1144q-1.5 13 7.5 24l102 126q9 11 22 12t24 -7l126 -103q2 -1 4 -5l84 103q8 11 21.5 12t23.5 -7l127 -103q10 -8 11 -21 t-7 -24l-102 -126q-8 -11 -21.5 -12t-23.5 7l-127 103l-5 5l-83 -103q-9 -11 -22 -12t-24 7l-126 103q-10 8 -11.5 21zM719 1441q-1 13 7 23l103 127q8 10 21 11t24 -7l126 -102q10 -8 11.5 -21.5t-7.5 -23.5l-102 -127q-8 -10 -21.5 -11t-23.5 7l-126 102q-11 9 -12 22z " />
<glyph unicode="&#x635;" horiz-adv-x="2135" arabic-form="isolated" d="M63.5 119q-13.5 121 21.5 279q4 22 15 52t24 56t24.5 42.5t17.5 11.5q13 -10 19 -16t1 -25q-28 -114 -16 -202t51 -149.5t99 -96.5t128 -43q69 -8 139.5 10t130.5 63q73 54 107 106.5t39.5 104t-12.5 103.5t-48.5 104.5t-69 106t-74.5 109.5l96 211q6 13 15 11.5t21 -15 t28 -36.5t36 -53q45 -66 68.5 -126.5t38 -108t26.5 -77.5t34.5 -35t61 19t106.5 86q37 27 83 63t97.5 74.5t106.5 76.5t109.5 67.5t107 48t98.5 18.5q33 0 66.5 -19.5t64.5 -50.5t58.5 -71t49 -80.5t35.5 -79t18 -66.5l-5 -473h-1099q-33 -112 -96 -194.5t-143 -133.5 t-169.5 -70t-174 -4t-157 63.5t-118.5 133t-59.5 205.5zM1292 509h568q-11 25 -31.5 56t-47 57t-57 44t-60.5 18q-162 0 -372 -175z" />
<glyph unicode="&#x635;" horiz-adv-x="2158" arabic-form="final" d="M57 119q-13 121 21 279q5 22 16 52t23.5 56t24.5 42.5t18 11.5q13 -10 19 -16t1 -25q-28 -114 -16.5 -202t50.5 -149.5t99 -96.5t129 -43t139 10t131 63q72 54 106 106.5t39.5 104t-12 103.5t-48.5 104.5t-69 106t-74 109.5l95 211q6 13 15 11.5t21.5 -15t28.5 -36.5 t36 -53q45 -66 68.5 -126.5t38 -108t26.5 -77.5t34.5 -35t61 19t106.5 86q37 27 83 63t97.5 74.5t106.5 76.5t109.5 67.5t106.5 48t98 18.5q33 0 66.5 -19.5t64.5 -50.5t58.5 -71t49 -80.5t35.5 -79t18 -66.5v-83l107 -1l2 -389h-1212q-33 -112 -96.5 -194.5t-143.5 -133.5 t-169 -70t-173.5 -4t-157 63.5t-119 133t-59.5 205.5zM1285 509h569q-11 25 -31.5 56t-47 57t-57 44t-60.5 18q-162 0 -373 -175z" />
<glyph unicode="&#x635;" horiz-adv-x="1589" arabic-form="initial" d="M-31 119l1 390l206 -1l-19 181l170 155q3 3 3 -10t1 -38t3.5 -59t11.5 -72t26 -78.5t45 -77.5h87l147 102q37 27 83 63t97.5 74.5t106.5 76.5t109.5 67.5t106.5 48t98 18.5q33 0 66.5 -19.5t64.5 -50.5t58.5 -71t49 -80.5t35.5 -79t18 -66.5l-5 -473h-1129q-19 2 -40 7.5 t-40.5 17.5t-36 32t-25.5 52l-31 -109h-268zM751 509h568q-11 25 -31.5 56t-46.5 57t-56.5 44t-60.5 18q-163 0 -373 -175z" />
<glyph unicode="&#x635;" horiz-adv-x="1679" arabic-form="medial" d="M-39 119v390l207 -1l-18 181l169 155q3 3 3 -10t1 -38t4 -59t12 -72t25.5 -78.5t45.5 -77.5h87l146 102q37 27 83 63t97.5 74.5t106.5 76.5t109.5 67.5t106.5 48t98 18.5q33 0 66.5 -19.5t64.5 -50.5t58.5 -71t49 -80.5t36 -79t18.5 -66.5l-1 -83l181 -1l-1 -389h-1314 q-19 2 -40 7.5t-40.5 17.5t-36 32t-25.5 52l-31 -109h-268zM743 509h569q-11 25 -31.5 56t-47 57t-57 44t-60.5 18q-162 0 -373 -175z" />
<glyph unicode="&#x636;" horiz-adv-x="2135" arabic-form="isolated" d="M63.5 119q-13.5 121 21.5 279q4 22 15 52t24 56t24.5 42.5t17.5 11.5q13 -10 19 -16t1 -25q-28 -114 -16 -202t51 -149.5t99 -96.5t128 -43q69 -8 139.5 10t130.5 63q73 54 107 106.5t39.5 104t-12.5 103.5t-48.5 104.5t-69 106t-74.5 109.5l96 211q6 13 15 11.5t21 -15 t28 -36.5t36 -53q45 -66 68.5 -126.5t38 -108t26.5 -77.5t34.5 -35t61 19t106.5 86q37 27 83 63t97.5 74.5t106.5 76.5t109.5 67.5t107 48t98.5 18.5q33 0 66.5 -19.5t64.5 -50.5t58.5 -71t49 -80.5t35.5 -79t18 -66.5l-5 -473h-1099q-33 -112 -96 -194.5t-143 -133.5 t-169.5 -70t-174 -4t-157 63.5t-118.5 133t-59.5 205.5zM1114 1101q-1 13 7 23l103 127q8 10 21 11t24 -7l126 -102q10 -8 11.5 -21.5t-7.5 -23.5l-102 -127q-8 -10 -21.5 -11t-23.5 7l-126 102q-11 9 -12 22zM1292 509h568q-11 25 -31.5 56t-47 57t-57 44t-60.5 18 q-162 0 -372 -175z" />
<glyph unicode="&#x636;" horiz-adv-x="2158" arabic-form="final" d="M57 119q-13 121 21 279q5 22 16 52t23.5 56t24.5 42.5t18 11.5q13 -10 19 -16t1 -25q-28 -114 -16.5 -202t50.5 -149.5t99 -96.5t129 -43t139 10t131 63q72 54 106 106.5t39.5 104t-12 103.5t-48.5 104.5t-69 106t-74 109.5l95 211q6 13 15 11.5t21.5 -15t28.5 -36.5 t36 -53q45 -66 68.5 -126.5t38 -108t26.5 -77.5t34.5 -35t61 19t106.5 86q37 27 83 63t97.5 74.5t106.5 76.5t109.5 67.5t106.5 48t98 18.5q33 0 66.5 -19.5t64.5 -50.5t58.5 -71t49 -80.5t35.5 -79t18 -66.5v-83l107 -1l2 -389h-1212q-33 -112 -96.5 -194.5t-143.5 -133.5 t-169 -70t-173.5 -4t-157 63.5t-119 133t-59.5 205.5zM1133 1099q-1 13 7 23l103 127q8 10 21 11t24 -7l126 -102q10 -8 11.5 -21.5t-7.5 -23.5l-102 -127q-8 -10 -21.5 -11t-23.5 7l-126 102q-11 9 -12 22zM1285 509h569q-11 25 -31.5 56t-47 57t-57 44t-60.5 18 q-162 0 -373 -175z" />
<glyph unicode="&#x636;" horiz-adv-x="1589" arabic-form="initial" d="M-31 119l1 390l206 -1l-19 181l170 155q3 3 3 -10t1 -38t3.5 -59t11.5 -72t26 -78.5t45 -77.5h87l147 102q37 27 83 63t97.5 74.5t106.5 76.5t109.5 67.5t106.5 48t98 18.5q33 0 66.5 -19.5t64.5 -50.5t58.5 -71t49 -80.5t35.5 -79t18 -66.5l-5 -473h-1129q-19 2 -40 7.5 t-40.5 17.5t-36 32t-25.5 52l-31 -109h-268zM577 1110q-1 13 7 23l103 127q8 10 21 11t24 -7l126 -102q10 -8 11.5 -21.5t-7.5 -23.5l-102 -127q-8 -10 -21.5 -11t-23.5 7l-126 102q-11 9 -12 22zM751 509h568q-11 25 -31.5 56t-46.5 57t-56.5 44t-60.5 18q-163 0 -373 -175 z" />
<glyph unicode="&#x636;" horiz-adv-x="1679" arabic-form="medial" d="M-39 119v390l207 -1l-18 181l169 155q3 3 3 -10t1 -38t4 -59t12 -72t25.5 -78.5t45.5 -77.5h87l146 102q37 27 83 63t97.5 74.5t106.5 76.5t109.5 67.5t106.5 48t98 18.5q33 0 66.5 -19.5t64.5 -50.5t58.5 -71t49 -80.5t36 -79t18.5 -66.5l-1 -83l181 -1l-1 -389h-1314 q-19 2 -40 7.5t-40.5 17.5t-36 32t-25.5 52l-31 -109h-268zM583 1121q-1 13 7 23l103 127q8 10 21 11t24 -7l126 -102q10 -8 11.5 -21.5t-7.5 -23.5l-102 -127q-8 -10 -21.5 -11t-23.5 7l-126 102q-11 9 -12 22zM743 509h569q-11 25 -31.5 56t-47 57t-57 44t-60.5 18 q-162 0 -373 -175z" />
<glyph unicode="&#x637;" horiz-adv-x="1616" arabic-form="isolated" d="M62 397q-1 54 7 105.5t23 95.5t31 74q12 21 24 33t20.5 14t12 -5.5t-2.5 -25.5q-9 -29 -5 -60.5t24.5 -58.5t60 -44t102.5 -17l138 -1l-64 612q0 16 -0.5 36.5t1 41.5t6.5 41.5t17 36.5l103 143q7 -39 23.5 -68.5t36.5 -52.5t40 -42.5t32.5 -38t14.5 -39t-13 -45.5 l-63 -104q-11 -18 -12.5 -59t2 -97t10.5 -123.5t13 -137.5q36 27 82 63t97.5 74.5t106.5 76.5t109.5 67.5t107 48t98.5 18.5q33 0 66.5 -19.5t64.5 -50.5t58.5 -71t49 -80.5t35.5 -79t18 -66.5l-5 -473h-1218q-28 0 -54.5 1.5t-47.5 12.5q-54 26 -86 68t-47.5 92t-16.5 104z M744 509h568q-11 25 -31.5 56t-46.5 57t-56.5 44t-60.5 18q-163 0 -373 -175z" />
<glyph unicode="&#x637;" horiz-adv-x="1664" arabic-form="final" d="M67 397q-1 54 7 105.5t22.5 95.5t31.5 74q12 21 24 33t20.5 14t12 -5.5t-2.5 -25.5q-9 -29 -5 -60.5t24.5 -58.5t60 -44t102.5 -17l138 -1l-64 612q0 16 -0.5 36.5t1 41.5t6.5 41.5t17 36.5l103 143q7 -39 23.5 -68.5t36.5 -52.5t40 -42.5t32.5 -38t14.5 -39t-13 -45.5 l-63 -104q-11 -18 -12.5 -59t2 -97t10.5 -123.5t13 -137.5q36 27 82 63t97.5 74.5t106.5 76.5t109.5 67.5t107 48t98.5 18.5q33 0 66.5 -19.5t64.5 -50.5t58.5 -71t49 -80.5t35.5 -79t18 -66.5l-1 -83h167v-390h-1389q-28 0 -54.5 1.5t-47.5 12.5q-54 26 -86 68t-47.5 92 t-16.5 104zM749 509h568q-11 25 -31.5 56t-46.5 57t-56.5 44t-60.5 18q-163 0 -373 -175z" />
<glyph unicode="&#x637;" horiz-adv-x="1283" arabic-form="initial" d="M-36 509h226l-64 610q0 16 -0.5 36.5t1 41.5t6.5 41.5t17 36.5l103 143q7 -39 23.5 -68.5t36.5 -52.5t40 -42.5t32.5 -38t14.5 -39t-13 -45.5l-62 -104q-11 -18 -13 -59t1.5 -97t10.5 -123.5t13 -137.5q36 27 82 63t97.5 74.5t106.5 76.5t109.5 67.5t107 48t98.5 18.5 q33 0 66.5 -19.5t64.5 -50.5t58.5 -71t49 -80.5t35.5 -79t18 -66.5l-5 -473h-1259zM437 509h569q-11 25 -31.5 56t-47 57t-57 44t-60.5 18q-163 0 -373 -175z" />
<glyph unicode="&#x637;" horiz-adv-x="1395" arabic-form="medial" d="M-43 119v390h248q13 -1 20.5 -0.5t13 2t9.5 4t10 6.5l-64 598q0 16 -0.5 36.5t1 41.5t7 41.5t17.5 36.5l103 143q6 -39 23 -68.5t37 -52.5t39.5 -42.5t32.5 -38t15 -39t-13 -45.5l-63 -104q-11 -18 -12.5 -59t2 -97t10 -123.5t12.5 -137.5q37 27 83 63t97.5 74.5 t106.5 76.5t109.5 67.5t106.5 48t98 18.5q33 0 66.5 -19.5t64.5 -50.5t58.5 -71t49 -80.5t35.5 -79t19 -66.5l-1 -83h123v-2t0.5 -12.5t0.5 -34.5v-67q0 -43 0.5 -110t1.5 -164h-1467zM505 509h569q-11 25 -31.5 56t-47 57t-57 44t-60.5 18q-162 0 -373 -175z" />
<glyph unicode="&#x638;" horiz-adv-x="1616" arabic-form="isolated" d="M62 397q-1 54 7 105.5t23 95.5t31 74q12 21 24 33t20.5 14t12 -5.5t-2.5 -25.5q-9 -29 -5 -60.5t24.5 -58.5t60 -44t102.5 -17l138 -1l-64 612q0 16 -0.5 36.5t1 41.5t6.5 41.5t17 36.5l103 143q7 -39 23.5 -68.5t36.5 -52.5t40 -42.5t32.5 -38t14.5 -39t-13 -45.5 l-63 -104q-11 -18 -12.5 -59t2 -97t10.5 -123.5t13 -137.5q36 27 82 63t97.5 74.5t106.5 76.5t109.5 67.5t107 48t98.5 18.5q33 0 66.5 -19.5t64.5 -50.5t58.5 -71t49 -80.5t35.5 -79t18 -66.5l-5 -473h-1218q-28 0 -54.5 1.5t-47.5 12.5q-54 26 -86 68t-47.5 92t-16.5 104z M744 509h568q-11 25 -31.5 56t-46.5 57t-56.5 44t-60.5 18q-163 0 -373 -175zM796 1114q-1 13 7 23l103 127q8 10 21 11t24 -7l126 -102q10 -8 11.5 -21.5t-7.5 -23.5l-102 -127q-8 -10 -21.5 -11t-23.5 7l-126 102q-11 9 -12 22z" />
<glyph unicode="&#x638;" horiz-adv-x="1664" arabic-form="final" d="M67 397q-1 54 7 105.5t22.5 95.5t31.5 74q12 21 24 33t20.5 14t12 -5.5t-2.5 -25.5q-9 -29 -5 -60.5t24.5 -58.5t60 -44t102.5 -17l138 -1l-64 612q0 16 -0.5 36.5t1 41.5t6.5 41.5t17 36.5l103 143q7 -39 23.5 -68.5t36.5 -52.5t40 -42.5t32.5 -38t14.5 -39t-13 -45.5 l-63 -104q-11 -18 -12.5 -59t2 -97t10.5 -123.5t13 -137.5q36 27 82 63t97.5 74.5t106.5 76.5t109.5 67.5t107 48t98.5 18.5q33 0 66.5 -19.5t64.5 -50.5t58.5 -71t49 -80.5t35.5 -79t18 -66.5l-1 -83h167v-390h-1389q-28 0 -54.5 1.5t-47.5 12.5q-54 26 -86 68t-47.5 92 t-16.5 104zM749 509h568q-11 25 -31.5 56t-46.5 57t-56.5 44t-60.5 18q-163 0 -373 -175zM806 1099q-1 13 7 23l103 127q8 10 21 11t24 -7l126 -102q10 -8 11.5 -21.5t-7.5 -23.5l-102 -127q-8 -10 -21.5 -11t-23.5 7l-126 102q-11 9 -12 22z" />
<glyph unicode="&#x638;" horiz-adv-x="1283" arabic-form="initial" d="M-36 509h226l-64 610q0 16 -0.5 36.5t1 41.5t6.5 41.5t17 36.5l103 143q7 -39 23.5 -68.5t36.5 -52.5t40 -42.5t32.5 -38t14.5 -39t-13 -45.5l-62 -104q-11 -18 -13 -59t1.5 -97t10.5 -123.5t13 -137.5q36 27 82 63t97.5 74.5t106.5 76.5t109.5 67.5t107 48t98.5 18.5 q33 0 66.5 -19.5t64.5 -50.5t58.5 -71t49 -80.5t35.5 -79t18 -66.5l-5 -473h-1259zM437 509h569q-11 25 -31.5 56t-47 57t-57 44t-60.5 18q-163 0 -373 -175zM520 1151q-1 13 7 23l103 127q8 10 21 11t24 -7l126 -102q10 -8 11.5 -21.5t-7.5 -23.5l-102 -127 q-8 -10 -21.5 -11t-23.5 7l-126 102q-11 9 -12 22z" />
<glyph unicode="&#x638;" horiz-adv-x="1395" arabic-form="medial" d="M-43 119v390h248q13 -1 20.5 -0.5t13 2t9.5 4t10 6.5l-64 598q0 16 -0.5 36.5t1 41.5t7 41.5t17.5 36.5l103 143q6 -39 23 -68.5t37 -52.5t39.5 -42.5t32.5 -38t15 -39t-13 -45.5l-63 -104q-11 -18 -12.5 -59t2 -97t10 -123.5t12.5 -137.5q37 27 83 63t97.5 74.5 t106.5 76.5t109.5 67.5t106.5 48t98 18.5q33 0 66.5 -19.5t64.5 -50.5t58.5 -71t49 -80.5t35.5 -79t19 -66.5l-1 -83h123v-2t0.5 -12.5t0.5 -34.5v-67q0 -43 0.5 -110t1.5 -164h-1467zM505 509h569q-11 25 -31.5 56t-47 57t-57 44t-60.5 18q-162 0 -373 -175zM605 1165 q-1 13 7 23l103 127q8 10 21 11t24 -7l126 -102q10 -8 11.5 -21.5t-7.5 -23.5l-102 -127q-8 -10 -21.5 -11t-23.5 7l-126 102q-11 9 -12 22z" />
<glyph unicode="&#x639;" horiz-adv-x="973" arabic-form="isolated" d="M64.5 52q8.5 91 36.5 177t75.5 163t112.5 135q-52 50 -74 118.5t-20.5 142t24 144t60 125t87 85.5t105.5 25.5t115.5 -55.5t116.5 -157q-54 19 -108 26.5t-105 -4.5t-98 -45.5t-87 -94.5q33 -43 76 -64.5t90 -28.5t95.5 -3.5t94.5 11.5l240 81l-56 -275l-291 -82 q-107 -38 -184.5 -93.5t-122.5 -119.5t-57.5 -131.5t9.5 -130t79.5 -116t152.5 -89t228.5 -48.5t307.5 5q64 7 132.5 10t123.5 3q39 0 47 -9t-3.5 -24.5t-34.5 -36t-45 -42.5q-51 -51 -92.5 -86.5t-81 -59.5t-81.5 -37.5t-93.5 -20t-116.5 -7t-152 1.5q-115 3 -202 38 t-148.5 93.5t-98.5 135t-51 163t-5.5 177.5z" />
<glyph unicode="&#x639;" horiz-adv-x="964" arabic-form="final" d="M79 -94q-4 91 18 185.5t65.5 181t107.5 160.5t145 125q-42 40 -92 43t-111 -11q76 217 117 270q38 51 91.5 75.5t111 26t114 -18t101.5 -56.5t72.5 -89.5t27.5 -117.5q0 -23 -6.5 -45t-16 -43t-20.5 -42t-21 -41h38h10h3h17t50.5 -0.5t104.5 -0.5l1 -389h-276 q-18 2 -39.5 7.5t-41 17.5t-36 32t-25.5 52l-65 137q-131 -54 -210 -126.5t-103.5 -148.5t8.5 -147t127 -121t251.5 -71.5t382.5 2.5q64 7 132.5 10t123.5 3q39 0 47 -9t-3.5 -24.5t-35 -36t-45.5 -42.5q-51 -51 -92 -86.5t-80.5 -59.5t-81.5 -37.5t-93.5 -20t-116.5 -7 t-152 1.5q-129 3 -222.5 41.5t-155 101.5t-92 145t-34.5 173z" />
<glyph unicode="&#x639;" horiz-adv-x="919" arabic-form="initial" d="M-40 119l1 390h209q-18 74 -6.5 147.5t44 138.5t81.5 117t105 83.5t115.5 38t112.5 -20t96 -90.5t67 -174q-45 37 -100 59t-115 25.5t-122 -15t-120 -62.5q-2 -5 1.5 -35.5t15.5 -69.5t33.5 -78.5t56.5 -63.5q34 0 84.5 0.5t112.5 0.5h135h150l-57 -389h-196 q-81 0 -146 -0.5t-121 -0.5q-55 0 -117 -0.5t-138 -0.5h-182z" />
<glyph unicode="&#x639;" horiz-adv-x="873" arabic-form="medial" d="M-37 119l1 390h395q-24 38 -50.5 59t-56.5 29t-63.5 5t-71.5 -12q76 217 117 270q38 51 91.5 75.5t111 26t114 -18t101.5 -56.5t72.5 -89.5t27.5 -117.5q0 -23 -6.5 -45t-16.5 -43t-21 -42t-21 -41h39h10h3h17t50 -0.5t104 -0.5l2 -389h-276q-19 2 -40 7.5t-40.5 17.5 t-36 32t-25.5 52l-57 -109h-474z" />
<glyph unicode="&#x63a;" horiz-adv-x="973" arabic-form="isolated" d="M64.5 52q8.5 91 36.5 177t75.5 163t112.5 135q-52 50 -74 118.5t-20.5 142t24 144t60 125t87 85.5t105.5 25.5t115.5 -55.5t116.5 -157q-54 19 -108 26.5t-105 -4.5t-98 -45.5t-87 -94.5q33 -43 76 -64.5t90 -28.5t95.5 -3.5t94.5 11.5l240 81l-56 -275l-291 -82 q-107 -38 -184.5 -93.5t-122.5 -119.5t-57.5 -131.5t9.5 -130t79.5 -116t152.5 -89t228.5 -48.5t307.5 5q64 7 132.5 10t123.5 3q39 0 47 -9t-3.5 -24.5t-34.5 -36t-45 -42.5q-51 -51 -92.5 -86.5t-81 -59.5t-81.5 -37.5t-93.5 -20t-116.5 -7t-152 1.5q-115 3 -202 38 t-148.5 93.5t-98.5 135t-51 163t-5.5 177.5zM191 1372q-1 13 7 23l103 127q8 10 21 11t24 -7l126 -102q10 -8 11.5 -21.5t-7.5 -23.5l-102 -127q-8 -10 -21.5 -11t-23.5 7l-126 102q-11 9 -12 22z" />
<glyph unicode="&#x63a;" horiz-adv-x="964" arabic-form="final" d="M79 -94q-4 91 18 185.5t65.5 181t107.5 160.5t145 125q-42 40 -92 43t-111 -11q76 217 117 270q38 51 91.5 75.5t111 26t114 -18t101.5 -56.5t72.5 -89.5t27.5 -117.5q0 -23 -6.5 -45t-16 -43t-20.5 -42t-21 -41h38h10h3h17t50.5 -0.5t104.5 -0.5l1 -389h-276 q-18 2 -39.5 7.5t-41 17.5t-36 32t-25.5 52l-65 137q-131 -54 -210 -126.5t-103.5 -148.5t8.5 -147t127 -121t251.5 -71.5t382.5 2.5q64 7 132.5 10t123.5 3q39 0 47 -9t-3.5 -24.5t-35 -36t-45.5 -42.5q-51 -51 -92 -86.5t-80.5 -59.5t-81.5 -37.5t-93.5 -20t-116.5 -7 t-152 1.5q-129 3 -222.5 41.5t-155 101.5t-92 145t-34.5 173zM362 1226q-1 13 7 23l103 127q8 10 21 11t24 -7l126 -102q10 -8 11.5 -21.5t-7.5 -23.5l-102 -127q-8 -10 -21.5 -11t-23.5 7l-126 102q-11 9 -12 22z" />
<glyph unicode="&#x63a;" horiz-adv-x="919" arabic-form="initial" d="M-40 119l1 390h209q-18 74 -6.5 147.5t44 138.5t81.5 117t105 83.5t115.5 38t112.5 -20t96 -90.5t67 -174q-45 37 -100 59t-115 25.5t-122 -15t-120 -62.5q-2 -5 1.5 -35.5t15.5 -69.5t33.5 -78.5t56.5 -63.5q34 0 84.5 0.5t112.5 0.5h135h150l-57 -389h-196 q-81 0 -146 -0.5t-121 -0.5q-55 0 -117 -0.5t-138 -0.5h-182zM229 1240q-1 13 7 23l103 127q8 10 21 11t24 -7l126 -102q10 -8 11.5 -21.5t-7.5 -23.5l-102 -127q-8 -10 -21.5 -11t-23.5 7l-126 102q-11 9 -12 22z" />
<glyph unicode="&#x63a;" horiz-adv-x="873" arabic-form="medial" d="M-37 119l1 390h395q-24 38 -50.5 59t-56.5 29t-63.5 5t-71.5 -12q76 217 117 270q38 51 91.5 75.5t111 26t114 -18t101.5 -56.5t72.5 -89.5t27.5 -117.5q0 -23 -6.5 -45t-16.5 -43t-21 -42t-21 -41h39h10h3h17t50 -0.5t104 -0.5l2 -389h-276q-19 2 -40 7.5t-40.5 17.5 t-36 32t-25.5 52l-57 -109h-474zM290 1227q-1 13 7 23l103 127q8 10 21 11t24 -7l126 -102q10 -8 11.5 -21.5t-7.5 -23.5l-102 -127q-8 -10 -21.5 -11t-23.5 7l-126 102q-11 9 -12 22z" />
<glyph unicode="&#x641;" horiz-adv-x="1611" arabic-form="isolated" d="M65.5 520q3.5 76 29.5 149.5t75 132.5q15 19 28.5 30t22 13t10 -4.5t-7.5 -22.5q-8 -16 -10.5 -43t2 -59.5t17.5 -66.5t36 -63t57 -50t80 -28h965q-2 97 -42 195q-18 -21 -39.5 -40.5t-46.5 -34.5t-51.5 -24.5t-54.5 -9.5q-76 0 -120.5 24.5t-64 64t-17 90.5t21.5 103.5 t51.5 103.5t73 90.5t85.5 64t90 24.5q40 0 75.5 -29t66 -79t55 -116.5t42 -141.5t28.5 -154t13.5 -154t-3 -141.5t-20.5 -116.5t-39.5 -79t-59.5 -29h-1053q-75 0 -132 34t-94.5 90.5t-55 128.5t-14 148zM954 1378q-1 13 7 23l103 127q8 10 21 11t24 -7l126 -102 q10 -8 11.5 -21.5t-7.5 -23.5l-102 -127q-8 -10 -21.5 -11t-23.5 7l-126 102q-11 9 -12 22zM1094 909q63 -63 106 -63q35 0 69 17q-64 109 -106 109q-23 0 -69 -63z" />
<glyph unicode="&#x641;" horiz-adv-x="1750" arabic-form="final" d="M74 520q4 76 29.5 149.5t74.5 132.5q16 19 29.5 30t22 13t10 -4.5t-7.5 -22.5q-8 -16 -10.5 -43t2 -59.5t17.5 -66.5t36 -63t57 -50t80 -28q132 0 226 0.5t159 0.5h106h67h41h30q-2 19 3 49.5t20 68.5q15 36 46.5 86.5t73.5 101t91.5 92t99.5 58.5q36 13 67.5 -1.5 t56 -43.5t41.5 -65.5t24 -66.5q3 -14 1 -36t-7 -48.5t-12.5 -55t-15 -55t-14 -48.5t-10.5 -36h47h29h24h33t56.5 -0.5t93.5 -0.5v-389h-403q-15 1 -31.5 5t-33 11.5t-31.5 20t-27 30.5l-49 -67h-847q-75 0 -132 34t-94.5 90.5t-55 128.5t-13.5 148zM1149 1220q-1 13 7 23 l103 127q8 10 21 11t24 -7l126 -102q10 -8 11.5 -21.5t-7.5 -23.5l-102 -127q-8 -10 -21.5 -11t-23.5 7l-126 102q-11 9 -12 22zM1196 621q-5 -16 2.5 -34t22 -34t32 -28.5t32.5 -16.5q10 9 27.5 21.5t36.5 29t36.5 37t27.5 45.5q11 29 2.5 49t-28.5 30t-48 9.5t-56 -12.5 t-52 -35.5t-35 -60.5z" />
<glyph unicode="&#x641;" horiz-adv-x="763" arabic-form="initial" d="M-36 122v390l582 -1q-2 97 -42 195q-18 -21 -39.5 -40.5t-46.5 -34.5t-51.5 -24.5t-54.5 -9.5q-76 0 -120.5 24.5t-64 64t-17 90.5t21.5 103.5t51.5 103.5t73 90.5t85.5 64t90 24.5q40 0 75.5 -29t66 -79t55 -116.5t42 -141.5t28.5 -154t13.5 -154t-3 -141.5 t-20.5 -116.5t-39.5 -79t-59.5 -29h-626zM165 1378q-1 13 7 23l103 127q8 10 21 11t24 -7l126 -102q10 -8 11.5 -21.5t-7.5 -23.5l-102 -127q-8 -10 -21.5 -11t-23.5 7l-126 102q-11 9 -12 22zM270 912q63 -63 106 -63q35 0 69 17q-64 109 -106 109q-23 0 -69 -63z" />
<glyph unicode="&#x641;" horiz-adv-x="810" arabic-form="medial" d="M-28 119l1 390h172q-2 19 3 49.5t21 68.5q15 36 46.5 86.5t73.5 101t91 92t99 58.5q36 13 67.5 -1.5t56.5 -43.5t42 -65.5t24 -66.5q3 -14 1 -36t-7.5 -48.5t-13 -55t-15 -55t-14 -48.5t-10.5 -36h43h20h13h23t48 -0.5t90 -0.5l1 -389h-358q-15 1 -31.5 5t-33 11.5 t-31.5 20t-27 30.5l-49 -67h-346zM225 1223q-1 13 7 23l103 127q8 10 21 11t24 -7l126 -102q10 -8 11.5 -21.5t-7.5 -23.5l-102 -127q-8 -10 -21.5 -11t-23.5 7l-126 102q-11 9 -12 22zM298 621q-5 -16 2.5 -34t22 -34t32 -28.5t32.5 -16.5q10 9 27.5 21.5t36.5 29t36.5 37 t27.5 45.5q11 29 2.5 49t-28.5 30t-48 9.5t-56 -12.5t-52 -35.5t-35 -60.5z" />
<glyph unicode="&#x642;" horiz-adv-x="1085" arabic-form="isolated" d="M71 130.5q-10 115.5 22 267.5q4 22 15 52t24 56t25 42.5t18 11.5q13 -10 18.5 -16t1.5 -25q-27 -118 -13 -207.5t55.5 -150t104.5 -93.5t133 -39.5t141 13.5t130 65.5t98.5 116t46.5 164.5q-38 -44 -81.5 -74.5t-89 -45t-90.5 -13.5t-85 20q-37 17 -64.5 42.5t-39.5 65.5 t-4.5 96t40.5 135q82 168 162 236.5t150.5 44t127.5 -138.5t94 -312q22 -125 3.5 -230.5t-64.5 -190.5t-114 -147t-147 -99t-163 -48t-160.5 7.5t-141 67t-104 130t-49.5 197zM347.5 1148q-1.5 13 7.5 24l102 126q9 11 22 12t24 -7l126 -103q2 -1 4 -5l84 103q8 11 21.5 12 t23.5 -7l127 -103q10 -8 11 -21t-7 -24l-102 -126q-8 -11 -21.5 -12t-23.5 7l-127 103l-5 5l-83 -103q-9 -11 -22 -12t-24 7l-126 103q-10 8 -11.5 21zM596 583q32 -32 63.5 -49.5t53.5 -17.5q9 0 27.5 7.5t38.5 17t38.5 19t26.5 13.5q-16 27 -34 48.5t-35 36.5t-32 23 t-25 8q-20 0 -43 -7t-42 -20.5t-30 -33.5t-7 -45z" />
<glyph unicode="&#x642;" horiz-adv-x="1122" arabic-form="final" d="M45.5 41.5q-2.5 100.5 24.5 230.5q4 22 15 52t24 56t24.5 42.5t17.5 11.5q14 -10 19.5 -16t1.5 -25q-21 -91 -13 -163.5t37 -126.5t75.5 -90t103.5 -53.5t120.5 -16t125.5 21.5t119.5 58.5t103.5 96.5h-161q-88 0 -141.5 35t-79 92t-26 130.5t18 150.5t52.5 151.5t77 134 t92.5 98t99.5 43.5q14 13 39 -16t56 -86q21 -30 40 -64t36 -75.5t31.5 -92t27.5 -112.5h146v-390h-153q-36 -87 -88.5 -159.5t-116.5 -129.5t-134.5 -96.5t-142 -59.5t-140.5 -20q-68 0 -127 23.5t-104.5 70.5t-71.5 120t-28.5 173.5zM229.5 1189q-1.5 13 7.5 24l102 126 q9 11 22 12t24 -7l126 -103q2 -1 4 -5l84 103q8 11 21.5 12t23.5 -7l127 -103q10 -8 11 -21t-7 -24l-102 -126q-8 -11 -21.5 -12t-23.5 7l-127 103l-5 5l-83 -103q-9 -11 -22 -12t-24 7l-126 103q-10 8 -11.5 21zM600 529q32 -32 66 -42t56 -10q9 0 26.5 5t37 12t37 14 t25.5 11q-16 27 -34 48.5t-35 36.5t-32 23t-25 8q-20 0 -43 -7t-42 -20.5t-30 -33.5t-7 -45z" />
<glyph unicode="&#x642;" horiz-adv-x="763" arabic-form="initial" d="M-36 122v390l582 -1q-2 97 -42 195q-18 -21 -39.5 -40.5t-46.5 -34.5t-51.5 -24.5t-54.5 -9.5q-76 0 -120.5 24.5t-64 64t-17 90.5t21.5 103.5t51.5 103.5t73 90.5t85.5 64t90 24.5q40 0 75.5 -29t66 -79t55 -116.5t42 -141.5t28.5 -154t13.5 -154t-3 -141.5 t-20.5 -116.5t-39.5 -79t-59.5 -29h-626zM54.5 1399q-1.5 13 7.5 24l102 126q9 11 22 12t24 -7l126 -103q2 -1 4 -5l84 103q8 11 21.5 12t23.5 -7l127 -103q10 -8 11 -21t-7 -24l-102 -126q-8 -11 -21.5 -12t-23.5 7l-127 103l-5 5l-83 -103q-9 -11 -22 -12t-24 7l-126 103 q-10 8 -11.5 21zM270 912q63 -63 106 -63q35 0 69 17q-64 109 -106 109q-23 0 -69 -63z" />
<glyph unicode="&#x642;" horiz-adv-x="810" arabic-form="medial" d="M-28 119l1 390h172q-2 19 3 49.5t21 68.5q15 36 46.5 86.5t73.5 101t91 92t99 58.5q36 13 67.5 -1.5t56.5 -43.5t42 -65.5t24 -66.5q3 -14 1 -36t-7.5 -48.5t-13 -55t-15 -55t-14 -48.5t-10.5 -36h43h20h13h23t48 -0.5t90 -0.5l1 -389h-358q-15 1 -31.5 5t-33 11.5 t-31.5 20t-27 30.5l-49 -67h-346zM120.5 1207q-1.5 13 7.5 24l102 126q9 11 22 12t24 -7l126 -103q2 -1 4 -5l84 103q8 11 21.5 12t23.5 -7l127 -103q10 -8 11 -21t-7 -24l-102 -126q-8 -11 -21.5 -12t-23.5 7l-127 103l-5 5l-83 -103q-9 -11 -22 -12t-24 7l-126 103 q-10 8 -11.5 21zM298 621q-5 -16 2.5 -34t22 -34t32 -28.5t32.5 -16.5q10 9 27.5 21.5t36.5 29t36.5 37t27.5 45.5q11 29 2.5 49t-28.5 30t-48 9.5t-56 -12.5t-52 -35.5t-35 -60.5z" />
<glyph unicode="&#x643;" horiz-adv-x="1653" arabic-form="isolated" d="M57 520q4 76 29.5 149.5t74.5 132.5q15 19 29 30t22 13t10 -4.5t-7 -22.5t-11.5 -43t2.5 -59.5t18 -66.5t36 -63t56.5 -50t79.5 -28h991l-65 611q0 16 -0.5 36.5t1 41.5t7 41.5t17.5 36.5l102 143q7 -39 23.5 -68.5t36.5 -52.5t40 -42.5t32.5 -38t14.5 -39t-13 -45.5 l-62 -104q-12 -21 -13 -71t4 -117.5t13.5 -147.5t14 -160t6 -154.5t-10.5 -132t-35.5 -92t-68.5 -34.5h-1079q-75 0 -132 34t-94.5 90.5t-55 128.5t-13.5 148zM509 766q32 13 83.5 31t107 38t106 40.5t80.5 38.5q-21 3 -58.5 7.5t-71 13.5t-52.5 25t-4 43q35 61 77.5 110.5 t87 86.5t88.5 62t81 37t64 10.5t39 -15.5q-9 -26 -16.5 -43t-14.5 -29.5t-14.5 -23t-16.5 -22.5q-26 -6 -53 -11.5t-53.5 -12.5t-51.5 -17t-48 -25q15 -21 37.5 -26t47.5 -4.5t49.5 2t44.5 -7.5q23 -10 25 -30.5t-10 -45.5t-33.5 -53t-45.5 -53t-46 -44.5t-34 -28.5 q-31 -23 -84.5 -44.5t-112 -32.5t-112.5 -7t-86 31z" />
<glyph unicode="&#x643;" horiz-adv-x="1671" arabic-form="final" d="M56 520q4 76 29.5 149.5t74.5 132.5q16 19 29.5 30t22 13t10 -4.5t-7.5 -22.5q-8 -16 -10.5 -43t2 -59.5t17.5 -66.5t36 -63t57 -50t80 -28h292q125 0 216.5 0.5t154.5 0.5h106h71h52h45h53l-64 610q0 16 -1.5 37t0 42.5t6.5 41.5t19 35l128 143q21 -120 30.5 -227 t15 -214t9 -220.5t11.5 -248.5h74t13 0h-26h-41h-33t-4 0h49h124h2v-389h-1347q-75 0 -132 34t-94.5 90.5t-55 128.5t-13.5 148zM512 766q21 9 52 20t66 23.5t72.5 25.5t72.5 26.5t65 27t50 25.5q-14 2 -36.5 4.5t-46.5 6.5t-47 10t-39 15.5t-22 22t4 30.5q35 61 77.5 110.5 t87.5 86.5t88.5 62t81 37t64.5 10.5t39 -15.5q-9 -26 -17 -43t-15 -29.5t-14.5 -23t-16.5 -22.5q-26 -6 -53 -11.5t-53 -12.5t-51.5 -17t-48.5 -25q15 -21 37.5 -26t47.5 -4.5t50 2t45 -7.5q23 -10 24.5 -30.5t-10.5 -45.5t-33.5 -53t-45.5 -53t-46 -44.5t-34 -28.5 q-21 -15 -52 -30t-68 -27t-76.5 -19.5t-76.5 -8.5t-69 6.5t-53 25.5z" />
<glyph unicode="&#x643;" horiz-adv-x="808" arabic-form="initial" d="M-33 119v390h570q-34 51 -65 85.5t-61.5 62t-62 51.5t-65.5 54q-5 -7 -10 -15.5t-12.5 -15t-17.5 -8.5t-23 4q-9 4 -23.5 16t-30.5 25.5t-30 27t-21 20.5q-22 22 -20.5 67t13.5 96t28.5 98t25.5 73l598 279l-82 -261l-403 -179q30 -29 72 -64t87 -73.5t90 -80.5t80.5 -86 t59 -89t25.5 -89q1 -22 3.5 -59t2.5 -80t-4 -87.5t-16.5 -80.5t-34.5 -58.5t-58 -22.5h-615z" />
<glyph unicode="&#x643;" horiz-adv-x="865" arabic-form="medial" d="M-35 119v390l559 -1q-54 71 -114.5 134t-128.5 120q-4 -7 -9.5 -15.5t-13 -15t-17 -8.5t-22.5 4q-9 4 -23.5 16t-30.5 25.5t-30.5 27t-21.5 20.5q-22 22 -21.5 66.5t11 95t26 97t24.5 72.5l606 282l-82 -269l-393 -165q130 -110 243 -229t212 -257h156v-390h-156 q-25 67 -54 128q-5 -27 -13 -50t-20.5 -40.5t-30 -27.5t-41.5 -10h-615z" />
<glyph unicode="&#x644;" horiz-adv-x="990" arabic-form="isolated" d="M73 150.5q-3 109.5 27 247.5q5 22 16 52t23.5 56t24.5 42.5t18 11.5q13 -10 19 -16t1 -25q-35 -143 -17.5 -244.5t67.5 -161.5t122 -79t146.5 3.5t140.5 87t104 170.5l-89 824q0 16 -0.5 36.5t1 41.5t7 41.5t17.5 36.5l102 143q7 -39 23.5 -68.5t36.5 -52.5t40 -42.5 t32.5 -38t14.5 -39t-13 -45.5l-62 -104q-12 -19 -13.5 -64t3 -106.5t12 -134.5t13.5 -148t9 -147.5t-3 -132.5q-5 -116 -35.5 -210t-78.5 -165t-109.5 -118t-128 -70t-133.5 -21t-126.5 30t-107 82.5t-74.5 136t-30 191z" />
<glyph unicode="&#x644;" horiz-adv-x="1050" arabic-form="final" d="M54.5 112q-8.5 121 25.5 279q5 22 16 52t23.5 56t24.5 42.5t18 11.5q13 -10 19 -16t1 -25q-26 -107 -22 -191t29.5 -144.5t69 -98t96 -51.5t109.5 -5t110 41.5t98 88.5t73 136l-89 824q0 16 -1.5 37t0 42.5t7 41.5t19.5 35l129 139q6 -115 16 -228t20.5 -225t19 -224.5 t11.5 -227.5h217v-390h-244q-29 -112 -85.5 -194.5t-127 -133.5t-148.5 -70t-151.5 -4t-135.5 63.5t-100.5 133t-47 205.5z" />
<glyph unicode="&#x644;" horiz-adv-x="586" arabic-form="initial" d="M-43 119v390l357 -1l-65 611q0 16 -0.5 36.5t1 41.5t7 41.5t17.5 36.5l103 143q6 -39 23 -68.5t37 -52.5t39.5 -42.5t32 -38t15 -39t-12.5 -45.5l-63 -104q-12 -21 -13 -71t4 -117.5t13.5 -147.5t14 -160t6 -154.5t-10 -132t-35 -92t-68.5 -34.5h-402z" />
<glyph unicode="&#x644;" horiz-adv-x="552" arabic-form="medial" d="M-17 119v390h224l-65 610q0 16 -1.5 37t0 42.5t6.5 41.5t19 35l128 143q21 -120 30.5 -227t15 -214t9 -220.5t11.5 -248.5h76t18 0h-18h-32h-25q-8 0 4 0h54h127l1 -389h-582z" />
<glyph unicode="&#x645;" horiz-adv-x="815" arabic-form="isolated" d="M53.5 342.5q8.5 62.5 35.5 111.5t67.5 84.5t86.5 59.5t92.5 35.5t84.5 11.5q-43 60 -83.5 83t-77.5 21t-69.5 -24t-58.5 -53q28 88 59 147t64.5 95t71 51.5t78.5 15.5q34 0 68.5 -19t68 -50t65.5 -69.5t61 -77t54 -73.5t45 -59l-78 -368q-126 50 -247.5 54t-242.5 -54 q37 -141 57.5 -246.5t24.5 -190t-10 -155t-47 -141.5l-160 672q-18 76 -9.5 138.5z" />
<glyph unicode="&#x645;" horiz-adv-x="1098" arabic-form="final" d="M73 459q17 85 65 155t122 126.5t164.5 99.5t192.5 74t206 51q-1 -2 0.5 -22.5t5 -53.5t10 -74t16 -83.5t22.5 -83t30 -72t37.5 -50t46.5 -17.5h117v-390h-143l-51 -83q-43 21 -94 38.5t-103.5 34t-102.5 33.5t-91.5 37.5t-71.5 46t-42 58.5q-19 32 -25 66t-5 66t7 60 t12 48.5t10.5 32t1.5 10.5q-45 -20 -90.5 -48.5t-93.5 -77.5l99 -442q3 -12 5 -42t2 -72q0 -43 -3 -95t-10 -108.5t-19.5 -114.5t-31.5 -111l-189 817q-23 101 -6 186zM547 563q16 -18 44.5 -31t61.5 -23.5l66 -21t59 -25.5q-6 27 -19 54t-26.5 54.5t-24.5 55.5t-14 56 q-27 -2 -57 -9.5t-53 -21.5t-34.5 -36t-2.5 -52z" />
<glyph unicode="&#x645;" horiz-adv-x="852" arabic-form="initial" d="M-24 119v390l246 -1q19 56 37 110t39.5 103t49 91.5t66 75.5t91 55t122.5 30q27 3 52.5 -21.5t46.5 -66.5t37.5 -96.5t27 -110t14 -107.5t-1.5 -90q-7 -52 -17.5 -99t-25.5 -81t-36 -50.5t-49 -7.5q-57 17 -144 45t-193 68q-6 -42 -18 -84.5t-29 -76t-39 -55t-48 -21.5 h-228zM428 693l189 -81q-11 49 -25.5 78.5t-36.5 39.5t-53 1t-74 -38z" />
<glyph unicode="&#x645;" horiz-adv-x="862" arabic-form="medial" d="M-30 119v390h190q7 14 17 34.5t18 48.5t31 70.5t56 87t73.5 86t84.5 68t89.5 32t88.5 -20.5q14 -9 22.5 -29.5t12.5 -47t5.5 -56.5t2.5 -59t3 -53.5t7 -40.5q14 -43 38.5 -75.5t55.5 -44.5h134v-390h-223q-8 -16 -13.5 -36.5t-13 -41t-18 -38t-26.5 -26.5l-361 256 l-45 -114h-229zM357 591q6 -5 20.5 -19t33 -31t38.5 -32.5t37 -24t29 -6t14 22.5q10 88 -6.5 131t-45.5 50.5t-62.5 -17.5t-57.5 -74z" />
<glyph unicode="&#x646;" horiz-adv-x="1091" arabic-form="isolated" d="M77 136.5q-9 114.5 23 260.5q5 22 16 52t24 56t24.5 42.5t17.5 11.5q13 -10 19 -16t1 -25q-28 -114 -16.5 -202t50.5 -149.5t99 -96t128.5 -43t139 9.5t131 63t105 117t59.5 170l-222 347l96 211q6 13 15.5 12t22.5 -14t29 -36.5t33 -54.5q23 -34 45.5 -73t42 -87.5 t35 -109.5t24.5 -139q17 -137 -4 -250t-69 -200t-116.5 -148t-147 -94.5t-160.5 -39.5t-157.5 17t-138 75.5t-101.5 135.5t-48 197.5zM384 1088q-1 13 7 23l103 127q8 10 21 11t24 -7l126 -102q10 -8 11.5 -21.5t-7.5 -23.5l-102 -127q-8 -10 -21.5 -11t-23.5 7l-126 102 q-11 9 -12 22z" />
<glyph unicode="&#x646;" horiz-adv-x="1120" arabic-form="final" d="M68 119q-13 121 21 279q5 22 16 52t23.5 56t24.5 42.5t18 11.5q13 -10 19 -16t1 -25q-28 -114 -16.5 -202t50.5 -149.5t99 -96.5t128 -43q69 -8 139.5 10t131.5 63q69 51 101.5 103.5t37 105.5t-13 106t-47 106.5t-66 106.5t-70.5 106l95 211q6 13 16 12t23 -14t29 -36.5 t33 -54.5q21 -30 40.5 -64t37.5 -75.5t33 -91.5t26 -113l158 -1l2 -389h-172q-33 -112 -96.5 -194.5t-143.5 -133.5t-169 -70t-173.5 -4t-157 63.5t-119 133t-59.5 205.5zM347 1101q-1 13 7 23l103 127q8 10 21 11t24 -7l126 -102q10 -8 11.5 -21.5t-7.5 -23.5l-102 -127 q-8 -10 -21.5 -11t-23.5 7l-126 102q-11 9 -12 22z" />
<glyph unicode="&#x646;" horiz-adv-x="704" arabic-form="initial" d="M-29 121v390l493 -1l-107 270l156 171q17 19 35.5 -7t35 -80.5t30 -131t19.5 -159t4 -163.5t-16 -145t-41 -104t-71 -40h-538zM195 1168q-1 13 7 23l103 127q8 10 21 11t24 -7l126 -102q10 -8 11.5 -21.5t-7.5 -23.5l-102 -127q-8 -10 -21.5 -11t-23.5 7l-126 102 q-11 9 -12 22z" />
<glyph unicode="&#x646;" horiz-adv-x="630" arabic-form="medial" d="M-31 509l356 -1l-107 270l156 171q12 13 25.5 2.5t26.5 -39t25 -72.5t21.5 -97.5t16 -113.5t9.5 -120l163 -1l1 -389h-690zM114 1186q-1 13 7 23l103 127q8 10 21 11t24 -7l126 -102q10 -8 11.5 -21.5t-7.5 -23.5l-102 -127q-8 -10 -21.5 -11t-23.5 7l-126 102 q-11 9 -12 22z" />
<glyph unicode="&#x647;" horiz-adv-x="721" arabic-form="isolated" d="M73 296q19 176 59.5 301t93 203t111.5 111.5t113.5 27t100 -51.5t70.5 -123t25 -188q0 -109 -36 -245q-14 -54 -62 -100t-110.5 -77t-130.5 -43t-123 2t-87.5 58t-23.5 125zM219 514q32 -32 63.5 -49.5t53.5 -17.5q21 0 51.5 11t58 27.5t45.5 34t13 31.5q-16 27 -34 48.5 t-35 36.5t-32 23t-25 8q-20 0 -49 -14.5t-54.5 -37t-42.5 -49.5t-13 -52z" />
<glyph unicode="&#x647;" horiz-adv-x="792" arabic-form="final" d="M68 431.5q9 87.5 70 221.5q16 36 49 62.5t73 47.5t81.5 38.5t74.5 35.5q-2 7 -3.5 17.5t-2.5 21.5l-2 22t-1 18q0 1 9 10t24.5 28.5t37 50.5t46.5 76q16 -41 28 -98.5t22.5 -120.5t20.5 -125t23.5 -113t31.5 -84t44 -37l148 3v-387h-174q-44 6 -73 30.5t-49 58.5t-34 74 t-26 78q-7 -13 -19 -41.5t-27.5 -57.5t-33 -51t-35.5 -22q-100 4 -172 27t-106 76t-25 140.5zM278 613q38 -13 69 -25t54 -18.5t37.5 -4t19.5 19t0 50t-20 89.5q-19 -24 -39 -38.5t-40.5 -25l-41 -21t-39.5 -26.5z" />
<glyph unicode="&#x647;" horiz-adv-x="1204" arabic-form="initial" d="M-33 119v390h212q14 69 37.5 127.5t53 109t63.5 93t69 78.5q17 94 58 133t97 38.5t122 -34.5t133 -87t130 -118t112 -128.5t79.5 -118t33.5 -86.5q4 -50 -6 -98t-31 -96.5t-50.5 -98.5t-63.5 -104h-1049zM323.5 534.5q10.5 -20.5 36 -32t60 -12.5t68.5 10.5t62 37.5 t40 68q11 39 4.5 67t-25.5 42.5t-47.5 15.5t-61 -14.5t-67 -48.5t-65.5 -86q-15 -27 -4.5 -47.5zM688 508l295 -33q-15 40 -39 75t-49 62.5t-48 47t-36 28.5q-5 0 -15.5 -17.5t-26.5 -44t-36 -58t-45 -60.5z" />
<glyph unicode="&#x647;" horiz-adv-x="887" arabic-form="medial" d="M-44 119v390h66h48q21 0 37 -0.5t32 -0.5h36h46q19 46 52.5 97t74.5 100.5t87.5 94.5t92 79t86.5 54.5t72 20.5q32 0 50.5 -23t18.5 -76t-22 -138.5t-72 -209.5q41 0 69 0.5t55 0.5t59.5 0.5t82.5 0.5v-390h-183q7 -40 -2 -85.5t-30 -91t-52 -88t-68 -75.5t-77 -53.5 t-80 -21.5q-44 -2 -87 18t-81 54.5t-70.5 78.5t-55.5 91t-34.5 92t-9.5 81h-141zM291 119q15 -35 43 -63.5t61 -49t67.5 -34t62.5 -18.5t46 -2t18 15q-17 38 -51.5 66.5t-76.5 47.5t-86.5 28.5t-83.5 9.5zM360 508q12 0 32 -1.5t41 -2t40 0t30 4.5q30 16 49.5 42.5t29 58 t9.5 65.5t-10 65q-51 -27 -108 -84t-113 -148z" />
<glyph unicode="&#x648;" horiz-adv-x="803" arabic-form="isolated" d="M-131 -19l5 42q31 -16 88 -32.5t127.5 -20.5t148 10.5t151 60t136 129t102.5 216.5q-92 -136 -188.5 -167.5t-188.5 27.5q-35 22 -55 64t-24.5 96.5t8 117.5t43.5 127q40 83 84 141t88 92.5t87 47t82 4.5q72 -53 114.5 -131t60.5 -169t12 -190.5t-31.5 -195.5t-69 -183 t-102 -154t-129.5 -108.5t-151.5 -46t-168.5 33.5t-180 129q-9 9 -16 15.5t-12.5 12.5t-10.5 13.5t-10 18.5zM324 543q21 -34 55 -45t70 -6.5t67 21t45 36.5q0 32 -14 58.5t-33 45t-38.5 29t-29.5 10.5q-20 0 -43 -14t-42 -35.5t-30 -48t-7 -51.5z" />
<glyph unicode="&#x648;" horiz-adv-x="858" arabic-form="final" d="M-119 -17l5 42q76 -44 165.5 -67t179 -16.5t171 48.5t140.5 129h-126q-84 -9 -140 28.5t-79 106.5t-11 163t64 197q84 168 162 241.5t143 57.5t115.5 -118t79.5 -286h118v-390h-134q-79 -174 -174.5 -271.5t-204 -116.5t-228 43.5t-246.5 208.5zM336 529 q16 -16 29.5 -23.5t25.5 -10.5t23 -2.5t22 0.5q21 0 47 -1t47.5 0.5t34.5 7t8 19.5q-10 53 -29 84.5t-42 44t-48.5 9t-48.5 -20t-41.5 -44.5t-27.5 -63z" />
<glyph unicode="&#x649;" horiz-adv-x="1171" arabic-form="isolated" d="M90.5 247q5.5 104 56.5 238q8 21 19.5 51t23 56t22 43t16.5 12q7 -5 18 -10t20.5 -11t14.5 -13t1 -15q-46 -83 -54.5 -150t11 -117.5t63 -84.5t101.5 -52t126 -19.5t136.5 13t133.5 45t117 77.5q-46 11 -96 21.5t-98 24.5t-90 34t-71 51t-42 75t-2.5 106t47.5 144 t108 189q31 47 74 84.5t88 60t86 27t68 -16t35 -69t-14 -130.5q-2 -6 -5.5 -19t-8 -27t-10.5 -26.5t-11.5 -18t-11 -1.5t-9.5 24q-9 43 -30 60t-47 15.5t-54.5 -17.5t-53.5 -38.5t-43 -48.5t-23 -47q-6 -25 6 -44.5t34.5 -35t53.5 -28t62.5 -22.5t61.5 -18.5t51 -15.5 q43 -6 70 -32t39.5 -65.5t11 -89t-16 -101.5t-42 -103t-65.5 -94q-63 -79 -143 -134.5t-165.5 -86t-171 -36t-159 15t-130.5 68t-85.5 123t-23 179.5z" />
<glyph unicode="&#x649;" horiz-adv-x="1255" arabic-form="final" d="M89 -21q0 68 17.5 148t49.5 157.5t77.5 145.5t101.5 112q29 0 34 -6.5t-3 -19.5q-79 -130 -98.5 -229.5t7 -167t92.5 -102t159 -35.5t205.5 33t232.5 103q-24 54 -63 79.5t-86 35.5t-99 10.5t-103 5.5l94 259h584v-389l-164 1q-6 -20 -13 -40.5t-16 -42.5 q-30 -72 -89.5 -135t-136 -112.5t-164.5 -83t-175 -47t-167 -3.5t-141.5 47.5t-98.5 105t-37 170.5z" />
<glyph unicode="&#x64a;" horiz-adv-x="1171" arabic-form="isolated" d="M90.5 247q5.5 104 56.5 238q8 21 19.5 51t23 56t22 43t16.5 12q7 -5 18 -10t20.5 -11t14.5 -13t1 -15q-46 -83 -54.5 -150t11 -117.5t63 -84.5t101.5 -52t126 -19.5t136.5 13t133.5 45t117 77.5q-46 11 -96 21.5t-98 24.5t-90 34t-71 51t-42 75t-2.5 106t47.5 144 t108 189q31 47 74 84.5t88 60t86 27t68 -16t35 -69t-14 -130.5q-2 -6 -5.5 -19t-8 -27t-10.5 -26.5t-11.5 -18t-11 -1.5t-9.5 24q-9 43 -30 60t-47 15.5t-54.5 -17.5t-53.5 -38.5t-43 -48.5t-23 -47q-6 -25 6 -44.5t34.5 -35t53.5 -28t62.5 -22.5t61.5 -18.5t51 -15.5 q43 -6 70 -32t39.5 -65.5t11 -89t-16 -101.5t-42 -103t-65.5 -94q-63 -79 -143 -134.5t-165.5 -86t-171 -36t-159 15t-130.5 68t-85.5 123t-23 179.5zM195.5 -438q-1.5 13 7.5 24l102 126q9 11 22 12t24 -7l126 -103q2 -1 4 -5l84 103q8 11 21.5 12t23.5 -7l127 -103 q10 -8 11 -21t-7 -24l-102 -126q-8 -11 -21.5 -12t-23.5 7l-127 103l-5 5l-83 -103q-9 -11 -22 -12t-24 7l-126 103q-10 8 -11.5 21z" />
<glyph unicode="&#x64a;" horiz-adv-x="1255" arabic-form="final" d="M89 -21q0 68 17.5 148t49.5 157.5t77.5 145.5t101.5 112q29 0 34 -6.5t-3 -19.5q-79 -130 -98.5 -229.5t7 -167t92.5 -102t159 -35.5t205.5 33t232.5 103q-24 54 -63 79.5t-86 35.5t-99 10.5t-103 5.5l94 259h584v-389l-164 1q-6 -20 -13 -40.5t-16 -42.5 q-30 -72 -89.5 -135t-136 -112.5t-164.5 -83t-175 -47t-167 -3.5t-141.5 47.5t-98.5 105t-37 170.5zM546.5 -618q-1.5 13 7.5 24l102 126q9 11 22 12t24 -7l126 -103q2 -1 4 -5l84 103q8 11 21.5 12t23.5 -7l127 -103q10 -8 11 -21t-7 -24l-102 -126q-8 -11 -21.5 -12 t-23.5 7l-127 103l-5 5l-83 -103q-9 -11 -22 -12t-24 7l-126 103q-10 8 -11.5 21z" />
<glyph unicode="&#x64a;" horiz-adv-x="721" arabic-form="initial" d="M-29 121v390l493 -1l-107 270l156 171q17 19 35.5 -7t35 -80.5t30 -131t19.5 -159t4 -163.5t-16 -145t-41 -104t-71 -40h-538zM67.5 -205q-1.5 13 7.5 24l102 126q9 11 22 12t24 -7l126 -103q2 -1 4 -5l84 103q8 11 21.5 12t23.5 -7l127 -103q10 -8 11 -21t-7 -24 l-102 -126q-8 -11 -21.5 -12t-23.5 7l-127 103l-5 5l-83 -103q-9 -11 -22 -12t-24 7l-126 103q-10 8 -11.5 21z" />
<glyph unicode="&#x64a;" horiz-adv-x="629" arabic-form="medial" d="M-31 509l356 -1l-107 270l156 171q12 13 25.5 2.5t26.5 -39t25 -72.5t21.5 -97.5t16 -113.5t9.5 -120l163 -1l1 -389h-690zM40.5 -212q-1.5 13 7.5 24l102 126q9 11 22 12t24 -7l126 -103q2 -1 4 -5l84 103q8 11 21.5 12t23.5 -7l127 -103q10 -8 11 -21t-7 -24l-102 -126 q-8 -11 -21.5 -12t-23.5 7l-127 103l-5 5l-83 -103q-9 -11 -22 -12t-24 7l-126 103q-10 8 -11.5 21z" />
<glyph unicode=" "  horiz-adv-x="500" />
<glyph unicode="&#x09;" horiz-adv-x="500" />
<glyph unicode="&#xa0;" horiz-adv-x="500" />
<glyph unicode="!" horiz-adv-x="516" d="M38 1207l117 170q29 42 63.5 41t67.5 -36t62.5 -97t50 -141.5t28.5 -171t-1 -184t-39 -181t-85 -161.5l-99 30q40 106 56 191.5t-0.5 167.5t-69.5 170.5t-151 201.5zM62 240q-1 13 7 23l103 127q8 10 21 11t24 -7l126 -102q10 -8 11.5 -21.5t-7.5 -23.5l-102 -127 q-8 -10 -21.5 -11t-23.5 7l-126 102q-11 9 -12 22z" />
<glyph unicode="&#x22;" horiz-adv-x="678" d="M89 903v559h192v-559h-192zM415 903v559h192v-559h-192z" />
<glyph unicode="#" d="M33 423l24 169h173l33 225h-175l24 169h175l51 360h176l-51 -360h179l51 360h175l-51 -360h174l-24 -169h-174l-33 -225h176l-23 -169h-176l-52 -365h-176l53 365h-180l-52 -365h-175l52 365h-174zM406 592h180l31 225h-179z" />
<glyph unicode="$" d="M55 421l1 32h250q-5 -118 45 -174q40 -44 112 -54v385q-197 62 -285 142q-95 87 -95 231q0 177 115 280q101 90 265 100v130h83v-127q179 -9 280 -98q112 -99 112 -281h-236q0 102 -44 146q-35 35 -112 41v-348l23 -7q216 -62 306 -153q90 -90 90 -246q0 -182 -124 -289 q-112 -98 -295 -106v-179h-83v178q-196 12 -302 111t-106 286zM317 1012q0 -65 58 -110q33 -25 88 -47v317q-58 -8 -95 -39q-51 -43 -51 -121zM546 224q71 7 116 47q55 47 55 132q0 71 -49 117q-38 37 -122 64v-360z" />
<glyph unicode="%" horiz-adv-x="1024" d="M51 1099q-1 13 7 23l103 127q8 10 21 11t24 -7l126 -102q10 -8 11.5 -21.5t-7.5 -23.5l-102 -127q-8 -10 -21.5 -11t-23.5 7l-126 102q-11 9 -12 22zM254 -162l306 1583l216 186l-324 -1607zM706 288q-1 13 7 23l103 127q8 10 21 11t24 -7l126 -102q10 -8 11.5 -21.5 t-7.5 -23.5l-102 -127q-8 -10 -21.5 -11t-23.5 7l-126 102q-11 9 -12 22z" />
<glyph unicode="&#x26;" horiz-adv-x="1331" d="M100 402q0 146 87 247q61 73 194 153l-8 8q-49 59 -78 127.5t-29 125.5q0 146 94 232.5t254 86.5q147 0 234 -84t87 -227q0 -107 -73 -192q-51 -61 -147 -120l195 -237l18 35q45 94 54 189h228q-13 -133 -79 -270q-33 -71 -75 -132l236 -284h-306l-90 108 q-74 -66 -138 -95q-92 -43 -239 -43q-192 0 -305.5 100.5t-113.5 271.5zM359 416q0 -82 52 -128t144 -46q62 0 122 34q37 22 82 60l-81 97l-166 205q-49 -35 -84 -69q-69 -71 -69 -153zM501 1082q0 -28 11.5 -58t31.5 -54l53 -65q37 26 64 53q57 58 57 114q0 54 -28.5 84.5 t-79.5 30.5t-80 -28q-29 -27 -29 -77z" />
<glyph unicode="'" horiz-adv-x="359" d="M89 903v559h192v-559h-192z" />
<glyph unicode="(" horiz-adv-x="532" d="M112 730q0 185 37.5 370t116.5 387h145q-70 -175 -105 -365t-35 -392q0 -204 35 -394.5t105 -365.5h-146q-78 200 -115.5 385t-37.5 375z" />
<glyph unicode=")" horiz-adv-x="532" d="M113 -30q70 175 105 365.5t35 394.5q0 202 -35 392t-105 365h145q79 -202 116.5 -387t37.5 -370q0 -190 -37.5 -375t-115.5 -385h-146z" />
<glyph unicode="*" horiz-adv-x="815" d="M71 1074v68l214 18l-139 162l47 49l164 -139l17 213h68l17 -213l163 139l49 -49l-140 -162l214 -18v-68l-214 -17l140 -163l-49 -48l-163 139l-17 -214h-68l-17 214l-164 -139l-47 48l139 163z" />
<glyph unicode="+" horiz-adv-x="1076" d="M74 421v212h358v358h212v-358h359v-212h-359v-358h-212v358h-358z" />
<glyph unicode="," horiz-adv-x="512" d="M118 60v134v134h138h138v-231q0 -143 -67.5 -228t-208.5 -120v99q93 32 125 92q23 42 28 120h-70h-83z" />
<glyph unicode="-" horiz-adv-x="684" d="M67 514l69 254l476 -2l-69 -254z" />
<glyph unicode="." horiz-adv-x="594" d="M91 300l199 200l199 -200l-199 -198z" />
<glyph unicode="/" horiz-adv-x="654" d="M85 -163l306 1583l216 186l-324 -1607z" />
<glyph unicode="0" d="M59 692q1 347 112 513.5t341 166.5q232 0 343 -166.5t111 -507.5v-6q1 -340 -110.5 -503t-343.5 -163q-230 0 -341 163t-112 503zM325 694q0 -252 42 -355.5t145 -103.5q104 0 146 103.5t42 355.5q1 258 -41.5 363.5t-146.5 105.5q-103 0 -144.5 -105.5t-42.5 -363.5z " />
<glyph unicode="1" d="M127 964v185q120 -6 216 53t146 170h211v-1312h-129h-129v904h-315z" />
<glyph unicode="2" d="M48 60q0 180 90.5 308.5t342.5 305.5q112 78 158 143.5t46 145.5q0 87 -50.5 140t-133.5 53q-88 0 -137.5 -66.5t-45.5 -180.5h-253q-7 213 111.5 338t326.5 125q194 0 317 -115q122 -115 122 -297q0 -149 -69.5 -247.5t-261.5 -220.5q-177 -113 -242 -203l-1 -2h574 v-227h-894z" />
<glyph unicode="3" d="M49 457h252q1 -111 49.5 -169t139.5 -58q88 0 142 58.5t54 153.5q0 84 -54 135q-48 45 -121 50q-40 3 -75 3.5t-45 -2.5v191q11 -2 46 -0.5t75 5.5q61 7 97 42q45 44 45 124q0 76 -44 123.5t-117 47.5q-84 0 -130.5 -53.5t-48.5 -152.5h-238q3 200 116 308.5t318 108.5 q177 0 289.5 -102.5t112.5 -263.5q0 -140 -117 -229l-35 -23q45 -17 79 -45q112 -87 112 -263q0 -193 -122 -306.5t-329 -113.5q-213 0 -330.5 112t-120.5 319z" />
<glyph unicode="4" d="M49 349v111v112l486 799h144h144v-817h147v-205h-147v-289h-254v289h-520zM240 554h329v545l-318 -527z" />
<glyph unicode="5" d="M49 408h260q10 -87 57.5 -132.5t130.5 -45.5q84 0 136.5 65.5t52.5 173.5q0 109 -53 176t-140 67q-54 0 -100.5 -24t-71.5 -66l-227 11l86 713h717v-219h-532l-45 -278q108 68 234 68q175 0 287 -119q110 -119 110 -305q0 -215 -129 -341t-350 -126q-175 0 -289.5 103 t-133.5 279z" />
<glyph unicode="6" d="M57 677q0 352 127 530q117 166 342 166l27 -1q162 0 266.5 -94.5t111.5 -248.5h-254q1 61 -35.5 98t-97.5 37h-11q-116 1 -171 -111q-43 -88 -52 -255q104 110 252 110q174 0 285 -120.5t111 -308.5q0 -199 -126 -326t-324 -127q-222 0 -336.5 166t-114.5 485zM314 473 q0 -103 55.5 -171.5t138.5 -68.5q94 0 143.5 61t49.5 179q0 103 -53 165.5t-140 62.5q-88 0 -141 -63q-53 -62 -53 -165z" />
<glyph unicode="7" d="M46 1119v227h928v-97v-98q-200 -218 -326 -508q-126 -289 -151 -583h-266q29 295 160 584q123 269 306 475h-651z" />
<glyph unicode="8" d="M59 435q0 168 125 270q36 31 80 51l-51 33q-113 85 -113 225q0 161 113.5 259.5t298.5 98.5t298.5 -98.5t113.5 -259.5q0 -140 -113 -225q-24 -18 -51 -32q44 -22 81 -53q125 -101 125 -269q0 -184 -125 -296.5t-329 -112.5q-203 0 -328 112.5t-125 296.5zM325 436 q0 -93 50.5 -147t136.5 -54t137 54t51 147q0 95 -51 150q-51 56 -137 56t-136.5 -55.5t-50.5 -150.5zM349 997q0 -75 44 -119q44 -43 119 -43t119 43.5t44 118.5q0 76 -44 121t-119 45t-119 -45t-44 -121z" />
<glyph unicode="9" d="M55 919q0 199 127 326t326 127q223 0 338.5 -166t115.5 -485q0 -352 -128 -530q-119 -166 -344 -166l-27 1q-164 0 -269 94.5t-112 248.5h255q-1 -62 36 -98.5t99 -36.5h13q115 -1 171 110q43 88 54 257q-107 -111 -256 -111q-175 0 -287 120t-112 309zM312 925 q0 -103 54 -165.5t142 -62.5q89 0 143 63q54 62 54 165t-56 171.5t-141 68.5q-96 0 -146 -61t-50 -179z" />
<glyph unicode=":" horiz-adv-x="436" d="M62 240q-1 13 7 23l103 127q8 10 21 11t24 -7l126 -102q10 -8 11.5 -21.5t-7.5 -23.5l-102 -127q-8 -10 -21.5 -11t-23.5 7l-126 102q-11 9 -12 22zM62 655q-1 13 7 23l103 127q8 10 21 11t24 -7l126 -102q10 -8 11.5 -21.5t-7.5 -23.5l-102 -127q-8 -10 -21.5 -11 t-23.5 7l-126 102q-11 9 -12 22z" />
<glyph unicode=";" horiz-adv-x="614" d="M169 60v135v134h139h137v-201q0 -162 -66 -253t-204 -120v99q88 27 118 86q22 41 26 120h-67h-83zM169 737v268h276v-268h-276z" />
<glyph unicode="&#x3c;" horiz-adv-x="1076" d="M70 439v88v88l936 397v-204l-665 -280l665 -282v-204z" />
<glyph unicode="=" horiz-adv-x="956" d="M78 155l59 234h712l-59 -234h-712zM106 487l59 234h712l-59 -234h-712z" />
<glyph unicode="&#x3e;" horiz-adv-x="1076" d="M70 42v204l665 282l-665 280v204l936 -397v-88v-88z" />
<glyph unicode="?" horiz-adv-x="1126" d="M111 964q6 207 127 324t330 117q210 0 333 -105t123 -284q0 -96 -57 -180t-190 -184q-53 -39 -73 -84.5t-17 -119.5h-240q-3 127 42.5 214t159.5 167q54 37 76.5 79.5t22.5 107.5q0 79 -49 126q-48 46 -131 46q-99 0 -148 -55t-53 -169h-256zM432 60v257h270v-257h-270z " />
<glyph unicode="@" horiz-adv-x="1797" d="M218 720q0 293 205 496t502 203q275 0 464 -170.5t189 -417.5q0 -207 -141.5 -362.5t-328.5 -155.5q-60 0 -88 53q-12 21 -15 43q-90 -96 -196 -96q-130 0 -215 96t-84 243q-1 180 118.5 310t284.5 130q127 -1 203 -111l19 85h179l-120 -536q-5 -23 0 -38.5t16 -15.5 q92 0 156 103t64 252q0 185 -144 312.5t-352 127.5q-225 0 -380.5 -160t-155.5 -391q0 -232 151 -392t371 -160q136 0 253.5 44t172.5 116h163q-79 -138 -238.5 -223t-342.5 -85q-299 0 -504.5 203t-205.5 497zM712 658q0 -77 39 -119t111 -42q73 0 132 58t79 149 t-20.5 148.5t-124.5 57.5q-87 0 -151.5 -75.5t-64.5 -176.5z" />
<glyph unicode="A" horiz-adv-x="1331" d="M37 60l468 1323h160h160l469 -1323h-147h-146l-89 269h-503l-87 -269h-142h-143zM486 557h352l-177 532z" />
<glyph unicode="B" horiz-adv-x="1331" d="M140 60v1323h133h508q192 0 300 -88.5t108 -246.5q0 -165 -122 -250q-19 -14 -44 -26q47 -18 83 -43q127 -88 127 -255q0 -203 -125.5 -308.5t-366.5 -105.5h-468h-133zM405 289h336q108 0 162 47t54 142q0 82 -55.5 123t-166.5 41h-330v-353zM405 865h316 q103 0 154.5 38.5t51.5 116.5q0 68 -54 101.5t-163 33.5h-305v-290z" />
<glyph unicode="C" horiz-adv-x="1331" d="M81 714q0 324 164 514.5t443 190.5q236 0 391 -127.5t182 -345.5h-277q-14 108 -92.5 171t-200.5 63q-154 0 -241 -123t-87 -341q0 -212 86.5 -332.5t241.5 -120.5q122 0 200.5 70.5t92.5 189.5h277q-25 -229 -179.5 -364t-393.5 -135q-279 0 -443 186.5t-164 503.5z" />
<glyph unicode="D" horiz-adv-x="1331" d="M140 60v1323h138h428q273 0 415 -160t142 -469q0 -340 -147.5 -517t-431.5 -177h-406h-138zM417 288h233q168 0 252 113.5t84 341.5q0 206 -78 309t-236 103h-255v-867z" />
<glyph unicode="E" horiz-adv-x="1229" d="M140 60v1323h974v-117v-118h-697v-281h647v-113v-114h-647v-345h728v-117v-118h-1005z" />
<glyph unicode="F" horiz-adv-x="1126" d="M140 60v1323h942v-117v-118h-665v-301h579v-113v-114h-579v-560h-138h-139z" />
<glyph unicode="G" horiz-adv-x="1434" d="M81 714q0 324 176.5 514.5t476.5 190.5q242 0 398 -120.5t182 -325.5h-277q-11 86 -97.5 151t-190.5 65q-180 0 -282 -124.5t-102 -345.5q0 -225 98 -342.5t286 -117.5h-1q160 0 250 122q50 70 73 163v3h-311v228h554v-714h-185l-27 171l-16 -22q-139 -186 -378 -186h1 q-289 0 -458.5 186.5t-169.5 503.5z" />
<glyph unicode="H" horiz-adv-x="1331" d="M130 60v1323h138h139v-496h517v496h138h139v-1323h-138h-139v599h-517v-599h-138h-139z" />
<glyph unicode="I" horiz-adv-x="512" d="M118 60v1323h138h138v-1323h-138h-138z" />
<glyph unicode="J" d="M40 487v80h263v-80v-17q0 -107 36 -161q39 -58 124 -58q82 0 117.5 42t35.5 139v951h138h139v-951q0 -202 -108 -305t-319 -103q-224 0 -328 114q-98 106 -98 320v29z" />
<glyph unicode="K" horiz-adv-x="1331" d="M160 60v1323h138h138v-548l507 548h177h176l-528 -541l563 -782h-181h-181l-398 582l-135 -137v-445h-137h-139z" />
<glyph unicode="L" horiz-adv-x="1126" d="M140 60v1323h138h139v-1088h658v-117v-118h-935z" />
<glyph unicode="M" horiz-adv-x="1535" d="M127 60v1323h202h203l241 -1049l238 1049h199h200v-1323h-128h-130v1112l-248 -1112h-135h-136l-248 1137v-1137h-129h-129z" />
<glyph unicode="N" horiz-adv-x="1331" d="M127 60v1323h145h145l531 -928v928h128h130v-1323h-138h-137l-546 953v-953h-129h-129z" />
<glyph unicode="O" horiz-adv-x="1434" d="M81 714q0 324 172 514.5t463 190.5q294 0 465.5 -190.5t171.5 -514.5q0 -317 -171.5 -503.5t-465.5 -186.5q-291 0 -463 186.5t-172 503.5zM357 716q0 -215 95 -336t264 -121q170 0 265 121t95 336q0 220 -95 344t-265 124q-168 0 -263.5 -124t-95.5 -344z" />
<glyph unicode="P" horiz-adv-x="1229" d="M140 60v1323h138h416q226 0 344 -106t118 -308q0 -214 -118 -325.5t-344 -111.5h-102q-97 0 -175 -1v-471h-138h-139zM417 760h230q116 0 174 51.5t58 154.5q0 95 -58 142t-174 47h-230v-395z" />
<glyph unicode="Q" horiz-adv-x="1434" d="M81 714q0 324 172 514.5t463 190.5q294 0 465.5 -190.5t171.5 -514.5q0 -287 -140 -466l144 -135l-140 -149l-159 146q-142 -86 -342 -86q-291 0 -463 186.5t-172 503.5zM357 716q0 -215 95 -336t264 -121h5q80 0 144 30l-136 125l139 148l145 -132q63 111 63 286 q0 220 -95 344t-265 124q-168 0 -263.5 -124t-95.5 -344z" />
<glyph unicode="R" horiz-adv-x="1331" d="M140 60v1323h138h529q189 0 305 -101.5t116 -266.5q0 -191 -129 -279q-34 -24 -78 -40q25 -10 45 -21q113 -68 117 -227l7 -217q2 -65 13.5 -92t44.5 -43v-35h-305q-11 21 -19 88.5t-9 146.5l-2 122q-1 89 -52 127t-169 38h-275v-523h-138h-139zM417 805h320 q107 0 160.5 43.5t53.5 132.5q0 87 -50.5 130.5t-152.5 43.5h-331v-350z" />
<glyph unicode="S" horiz-adv-x="1229" d="M72 470h266q5 -105 77 -161.5t201 -56.5q132 0 206 42.5t74 118.5q0 74 -53 110q-52 35 -223 72q-315 71 -421 153q-105 81 -105 252q0 193 139.5 306t376.5 113q222 0 361.5 -117t155.5 -316h-269q-8 95 -83.5 150t-196.5 55q-106 0 -165 -46t-59 -129q0 -60 62 -92 q61 -32 260 -77q289 -64 386 -149q97 -84 97 -269q0 -186 -146.5 -295.5t-396.5 -109.5q-252 0 -393 116t-151 330z" />
<glyph unicode="T" horiz-adv-x="1126" d="M26 1148v117v118h1076v-117v-118h-400v-1088h-138h-138v1088h-400z" />
<glyph unicode="U" horiz-adv-x="1331" d="M132 559v824h138h139v-833q0 -143 64 -214t194 -71q138 0 197.5 65.5t59.5 219.5v833h138h139v-824q0 -284 -125.5 -409.5t-408.5 -125.5q-272 0 -403 131t-132 404z" />
<glyph unicode="V" horiz-adv-x="1229" d="M35 1383h147h146l291 -1011l290 1011h142h143l-448 -1323h-131h-132z" />
<glyph unicode="W" horiz-adv-x="1740" d="M30 1383h144h144l220 -968l189 968h147h147l192 -960l220 960h139h140l-368 -1323h-132h-131l-213 1041l-207 -1041h-132h-131z" />
<glyph unicode="X" horiz-adv-x="1229" d="M26 60l428 670l-399 653h163h164l233 -428l241 428h159h159l-403 -633l432 -690h-164h-166l-259 455l-261 -455h-163h-164z" />
<glyph unicode="Y" horiz-adv-x="1229" d="M28 1383h164h164l276 -574l258 574h157h156l-437 -820v-503h-138h-138v498z" />
<glyph unicode="Z" horiz-adv-x="1126" d="M46 60v116v116l686 856h-664v117v118h1012v-109v-109l-698 -870h696v-117v-118h-1032z" />
<glyph unicode="[" horiz-adv-x="614" d="M116 -305v1697h454v-177h-224v-1342h224v-178h-454z" />
<glyph unicode="\" horiz-adv-x="512" d="M-60 1419h216l416 -1395h-216z" />
<glyph unicode="]" horiz-adv-x="614" d="M44 -127h223v1342h-223v177h454v-1697h-454v178z" />
<glyph unicode="_" d="M0 -76h1025v-94h-1025v94z" />
<glyph unicode="`" horiz-adv-x="614" d="M-41 1441h282l174 -267h-186z" />
<glyph unicode="a" d="M53 317q0 134 74.5 215t218.5 101l170 24q66 9 110 30q19 9 29.5 32.5t7.5 47.5q-5 42 -42 65q-44 28 -127 28q-74 0 -115.5 -36t-43.5 -102h-248q8 172 117 257.5t320 85.5q182 0 288 -77t106 -210v-547q0 -66 11 -92.5t43 -41.5v-1v-35h-140h-139q-17 59 -23 116v2 q-122 -144 -315 -144q-136 0 -219 77.5t-83 204.5zM313 344q0 -58 31.5 -91.5t88.5 -33.5q124 0 198 88q14 17 24 50t10 65v112q-45 -25 -119 -40l-95 -18q-68 -13 -103 -46.5t-35 -85.5z" />
<glyph unicode="b" horiz-adv-x="1126" d="M112 60v1323h129h130v-472l5 8q105 146 276 146q186 0 299.5 -137.5t113.5 -362.5q0 -239 -113.5 -384.5t-299.5 -145.5q-171 0 -276 137l-11 14v-126h-253zM358 532q0 -134 59 -209q57 -76 161 -76t162.5 78t58.5 216q0 142 -58.5 221.5t-161.5 79.5q-104 0 -162.5 -82 t-58.5 -228z" />
<glyph unicode="c" d="M63 544q0 240 125.5 380.5t338.5 140.5q189 0 310 -104.5t129 -274.5h-263q-4 73 -52 118t-124 45q-97 0 -148 -77.5t-51 -227.5q0 -146 51 -222t148 -76q71 0 119.5 48.5t56.5 128.5h263q-20 -183 -136 -285.5t-303 -102.5q-222 0 -343 132t-121 377z" />
<glyph unicode="d" horiz-adv-x="1126" d="M63 565q0 225 114.5 362.5t300.5 137.5q166 0 268 -140l11 -15v473h129h129v-1323h-125h-125v125l-5 -6q-107 -144 -280 -144q-188 0 -302.5 145.5t-114.5 384.5zM328 541q0 -138 58.5 -216t161.5 -78q104 0 162.5 82t58.5 228q0 134 -58.5 209.5t-161.5 75.5 q-104 0 -162.5 -79.5t-58.5 -221.5z" />
<glyph unicode="e" d="M42 565q0 235 123.5 367.5t342.5 132.5q224 0 345 -135.5t121 -385.5v-13q0 -23 -5 -45h-667q9 -116 52 -174q54 -72 180 -72q58 0 108 33.5t60 79.5h263q-34 -149 -155 -233.5t-302 -84.5q-224 0 -345 137.5t-121 392.5zM305 650h400q-9 89 -47 138q-50 66 -154 66 q-100 0 -152 -77q-33 -48 -47 -127z" />
<glyph unicode="f" horiz-adv-x="614" d="M18 858v181h143v82q0 141 75 210.5t228 69.5h17q59 0 105 -6v-206h-82q-51 0 -68 -21t-17 -85v-44h167v-181h-167v-798h-128h-130v798h-143z" />
<glyph unicode="g" horiz-adv-x="1126" d="M74 554q0 230 114 370.5t301 140.5q164 0 255 -119q17 -23 32 -50v143h243v-927q0 -232 -115 -342.5t-358 -110.5q-200 0 -317.5 78t-125.5 216h280q4 -51 46.5 -73.5t132.5 -22.5q108 0 156 52.5t48 173.5v121l-21 -32q-85 -117 -246 -117q-190 0 -307.5 137t-117.5 362 zM339 551q0 -134 57 -209t157 -75q101 0 158.5 76.5t57.5 211.5t-57.5 211t-158.5 76q-100 0 -157 -77t-57 -214z" />
<glyph unicode="h" horiz-adv-x="1126" d="M120 60v1323h128h130v-468l21 29q95 121 277 121q155 0 242.5 -91.5t87.5 -254.5v-659h-129h-129v612q0 91 -39 134.5t-120 43.5q-102 0 -156.5 -61t-54.5 -176v-553h-129h-129z" />
<glyph unicode="i" horiz-adv-x="512" d="M127 1153v240h263v-240h-263zM130 60v979h128h130v-979h-129h-129z" />
<glyph unicode="j" horiz-adv-x="512" d="M5 -127l32 -1q52 0 70 16.5t18 64.5v1086h129h129v-1086q0 -159 -68.5 -223t-238.5 -64l-71 1v206zM123 1153v240h263v-240h-263z" />
<glyph unicode="k" d="M127 60v1323h129h129v-715l322 371h160h159l-354 -371l363 -608h-153h-154l-236 421l-107 -112v-309h-129h-129z" />
<glyph unicode="l" horiz-adv-x="512" d="M127 60v1323h129h129v-1323h-129h-129z" />
<glyph unicode="m" horiz-adv-x="1639" d="M118 60v979h122h124v-157q17 41 43 73q85 110 248 110q130 0 213 -87q32 -33 51 -74l31 51q80 110 233 110q160 0 250 -94.5t90 -261.5v-649h-129h-130v575q0 110 -36 162.5t-111 52.5q-81 0 -124 -50t-43 -143v-597h-128h-130v617q0 89 -38 131t-116 42t-120 -50 t-42 -143v-597h-129h-129z" />
<glyph unicode="n" horiz-adv-x="1126" d="M120 60v979h122h123v-145q16 26 34 50q95 121 277 121q155 0 242.5 -91.5t87.5 -254.5v-659h-129h-129v612q0 91 -39 134.5t-120 43.5q-102 0 -156.5 -61t-54.5 -176v-553h-129h-129z" />
<glyph unicode="o" horiz-adv-x="1126" d="M63 544q0 240 135.5 380.5t364.5 140.5q232 0 367 -140.5t135 -380.5q0 -234 -135 -371.5t-367 -137.5q-229 0 -364.5 137.5t-135.5 371.5zM328 547q0 -145 60 -220.5t175 -75.5q116 0 176 75.5t60 220.5q0 148 -60 225t-176 77q-115 0 -175 -77t-60 -225z" />
<glyph unicode="p" horiz-adv-x="1126" d="M114 -323v1362h123h123v-145l17 25q104 146 275 146q187 0 300 -137.5t113 -362.5q0 -239 -113 -384.5t-300 -145.5q-170 0 -274 137l-5 7v-502h-129h-130zM360 532q0 -134 58 -209.5t161 -75.5t161.5 78t58.5 216q0 142 -58 221.5t-161 79.5q-104 0 -162 -82t-58 -228z " />
<glyph unicode="q" horiz-adv-x="1126" d="M63 534q0 240 119 385.5t313 145.5q159 0 256 -140q17 -23 28 -47v161h238v-1362h-129h-129v498q-105 -140 -276 -140h-2q-188 0 -303 137t-115 362zM328 541q0 -138 58.5 -216t162.5 -78t163 82t59 228q0 134 -58.5 209.5t-162.5 75.5q-105 0 -163.5 -79.5t-58.5 -221.5 z" />
<glyph unicode="r" horiz-adv-x="717" d="M118 60v979h122h124v-175q13 28 30 55q91 146 235 146l59 -1v-263q-35 3 -78 3q-118 0 -176 -58.5t-58 -177.5v-508h-129h-129z" />
<glyph unicode="s" d="M55 373h263q2 -67 59.5 -105.5t155.5 -38.5q77 0 120.5 26.5t43.5 74.5q0 33 -42 57q-42 22 -148 46q-249 55 -332 117q-84 62 -84 190q0 146 108.5 235.5t285.5 89.5q200 0 322.5 -87.5t122.5 -231.5h-256q0 56 -47 90.5t-124 34.5q-75 0 -116.5 -25.5t-41.5 -71.5 q0 -33 47 -56t167 -50q237 -53 318 -116q80 -63 80 -198q0 -144 -116.5 -231.5t-307.5 -87.5q-226 0 -348 86.5t-130 251.5z" />
<glyph unicode="t" horiz-adv-x="614" d="M18 858v181h136v264h258v-264h158v-181h-158v-556q0 -34 20.5 -45t84.5 -11h53v-191q-65 -6 -160 -6q-136 0 -196 49t-60 161v599h-136z" />
<glyph unicode="u" horiz-adv-x="1126" d="M121 379v660h129h130v-613q0 -90 38.5 -133t118.5 -43q101 0 155 61t54 176v552h129h129v-979h-122h-123v147q-14 -27 -33 -51q-95 -121 -276 -121q-155 0 -242 91t-87 253z" />
<glyph unicode="v" d="M24 1039h142h144l208 -730l211 730h136h136l-354 -979h-134h-135z" />
<glyph unicode="w" horiz-adv-x="1434" d="M18 1039h137h137l156 -719l147 719h129h129l145 -721l159 721h130h130l-283 -979h-131h-133l-150 729l-154 -729h-131h-133z" />
<glyph unicode="x" d="M28 60l333 500l-320 479h156h156l164 -289l165 289h150h152l-319 -483l332 -496h-158h-160l-170 299l-170 -299h-155h-156z" />
<glyph unicode="y" d="M18 1039h142h143l214 -726l207 726h135h135l-351 -1000q-85 -247 -145.5 -310t-214.5 -63l-124 2v207q9 -3 50 -3q103 0 135 42q20 27 39 112z" />
<glyph unicode="z" horiz-adv-x="922" d="M37 60v100v101l496 567l6 7h-465v102v102h788v-105v-106l-489 -557h512v-105v-106h-848z" />
<glyph unicode="{" horiz-adv-x="717" d="M88 462v164q119 15 146 51t27 181v240q0 166 99 236.5t313 57.5v-166q-125 8 -154 -21.5t-29 -160.5v-240q0 -144 -87 -209q-39 -29 -109 -52q70 -20 109 -50q87 -65 87 -209v-239q0 -132 29 -161t154 -22v-166q-214 -13 -313 57.5t-99 237.5v239q0 145 -27 181t-146 51z " />
<glyph unicode="|" horiz-adv-x="516" d="M155 -401v1843h206v-1843h-206z" />
<glyph unicode="}" horiz-adv-x="717" d="M44 -138q125 -7 154.5 22t29.5 161v239q0 144 86 209q40 30 109 50q-69 23 -109 52q-86 65 -86 209v240q0 131 -29.5 160.5t-154.5 21.5v166q214 13 313 -57.5t99 -236.5v-240q0 -145 27 -181t146 -51v-164q-119 -15 -146 -51t-27 -181v-239q0 -167 -99 -238 q-99 -70 -313 -57v166z" />
<glyph unicode="~" horiz-adv-x="1076" d="M112 523q32 74 94 118t136 44q47 0 100 -16t135 -55q56 -26 99 -41.5t60 -15.5q43 0 81.5 32.5t78.5 103.5l68 -164q-41 -74 -103 -117.5t-127 -43.5q-49 0 -101.5 18.5t-133.5 64.5q-36 20 -81 32.5t-84 12.5q-43 0 -87.5 -40t-66.5 -96z" />
<glyph horiz-adv-x="1600" d="M87 129v586h202q68 0 104 -8q112 -26 156 -142q23 -61 23 -140q0 -126 -56 -203q-46 -64 -123 -83q-41 -10 -95 -10h-211zM164 198h126q102 0 143 41q59 59 59 188q0 167 -104 207q-31 12 -100 12h-124v-448zM642 129v586h424v-69h-346v-179h324v-69h-324v-200h360v-69 h-438zM1154 129v586h78v-517h288v-69h-366z" />
<glyph unicode="&#xa9;" horiz-adv-x="1484" d="M102 782q0 126 50.5 244.5t139.5 211.5q91 90 206 138t243 48q134 0 249 -47.5t207 -139.5q91 -90 139 -207.5t48 -247.5q0 -127 -49 -243.5t-136 -204.5q-95 -90 -214.5 -141.5t-243.5 -51.5q-127 0 -242.5 48.5t-207.5 142.5q-93 92 -141 207t-48 243zM169 782 q0 -113 43.5 -216.5t126.5 -186.5q83 -82 186 -125.5t218 -43.5q113 0 217 43.5t191 127.5q81 79 122.5 181t41.5 220t-42 222t-122 185q-84 82 -187.5 125t-220.5 43q-116 0 -218 -42t-183 -123q-84 -84 -128.5 -189.5t-44.5 -220.5zM407 788q0 174 93 278q93 105 246 105 q123 0 203 -64q38 -31 61.5 -68.5t28.5 -88.5h-112q-13 70 -61.5 105.5t-127.5 35.5q-48 0 -86.5 -21t-65.5 -61t-41 -97.5t-14 -129.5q0 -71 14.5 -127t42.5 -94.5t67.5 -59t90.5 -20.5q76 0 125.5 40.5t63.5 114.5h111q-5 -54 -28 -95t-64 -75q-83 -70 -213 -70 q-156 0 -245 104q-89 102 -89 288z" />
<glyph unicode="&#xab;" horiz-adv-x="782" d="M96 450l286 405h102q-24 -47 -50.5 -98.5t-53 -104t-53 -104t-50.5 -98.5l202 -390h-105zM323 450l283 405h102q-11 -21 -26 -50.5t-39 -76.5t-58 -114.5t-82 -163.5l200 -390h-106z" />
<glyph unicode="&#xad;" horiz-adv-x="684" d="M67 514l69 254l476 -2l-69 -254z" />
<glyph unicode="&#xae;" horiz-adv-x="1484" d="M102 782q0 128 50 246.5t144 214.5q88 89 201 135t244 46q132 0 249 -48.5t209 -142.5q90 -91 137.5 -207t47.5 -244q0 -131 -47.5 -246t-139.5 -204q-95 -93 -212.5 -142t-243.5 -49q-128 0 -243.5 49t-208.5 144q-92 92 -139.5 207t-47.5 241zM169 782 q0 -112 43.5 -215t124.5 -186t185 -127t216 -44q117 0 220.5 42.5t190.5 126.5q81 78 123.5 180.5t42.5 217.5q0 121 -41 225t-121 185q-84 84 -187.5 127t-222.5 43q-115 0 -218.5 -43t-180.5 -120q-81 -85 -128 -192.5t-47 -219.5zM490 436v719h269q299 0 299 -193 q0 -76 -45.5 -126t-127.5 -67q40 -81 82 -166t82 -167h-136l-151 314h-150v-314h-122zM612 821h126q104 0 149.5 29.5t45.5 96.5q0 72 -47 104t-152 32h-122v-262z" />
<glyph unicode="&#xb0;" horiz-adv-x="1006" d="M64 591l457 457l456 -457l-456 -456zM140 591l381 -380l380 380l-380 381zM304 591l217 218l217 -218l-217 -217z" />
<glyph unicode="&#xb1;" horiz-adv-x="1011" d="M46 700l237 171l236 172l237 -172l236 -171l-90 -279l-90 -277h-585l-90 277zM186 443l167 -122l166 -120l167 120l166 122l-63 196l-64 196h-412l-63 -196zM336 605l91 66l92 67l92 -67l93 -66l-36 -108l-35 -109h-227z" />
<glyph unicode="&#xb6;" horiz-adv-x="891" d="M61 1138q0 65 24.5 120t66.5 97q47 40 109 61.5t137 21.5h432v-59h-106v-1229h-80v1229h-173v-1229h-82v690q-155 6 -242 87q-86 81 -86 211z" />
<glyph unicode="&#xb7;" horiz-adv-x="996" d="M62 592l202 189l190 -189l-190 -189zM327 340l189 190l192 -190l-192 -210zM327 840l189 205l187 -205l-187 -189zM577 592l189 189l205 -189l-205 -197z" />
<glyph unicode="&#xba;" horiz-adv-x="983" d="M59 534l111 193l112 194h447l113 -194l111 -193l-111 -194l-113 -194h-447l-112 194zM148 534l89 -156l90 -154h358l89 154l89 156l-89 155l-89 154h-358zM273 534l57 101l59 101h234l58 -101l59 -101l-117 -203h-234z" />
<glyph unicode="&#xbb;" horiz-adv-x="782" d="M96 855h102l283 -405l-274 -390h-106l200 390q-48 96 -82 163.5t-58 114.5t-39 76.5t-26 50.5zM320 855h102l286 -405l-278 -390h-105l202 390q-24 47 -50.5 98.5t-53 104t-53 104t-50.5 98.5z" />
<glyph unicode="&#xbf;" horiz-adv-x="774" d="M81 146v675h675v-675h-675z" />
<glyph unicode="&#xd7;" horiz-adv-x="1076" d="M74 212l315 315l-315 315l149 149l315 -315l315 315l150 -149l-315 -315l315 -315l-150 -149l-315 315l-315 -315z" />
<glyph unicode="&#xe0;" d="M53 377q0 134 74.5 215t218.5 101l170 24q66 9 110 30q19 9 29.5 32.5t7.5 47.5q-5 42 -42 65q-44 28 -127 28q-74 0 -115.5 -36t-43.5 -102h-248q8 172 117 257.5t320 85.5q182 0 288 -77t106 -210v-547q0 -66 11 -92.5t43 -41.5v-1v-35h-140h-139q-17 59 -23 116v2 q-122 -144 -315 -144q-136 0 -219 77.5t-83 204.5zM173 1501h283l174 -267h-187zM313 404q0 -58 31.5 -91.5t88.5 -33.5q124 0 198 88q14 17 24 50t10 65v112q-45 -25 -119 -40l-95 -18q-68 -13 -103 -46.5t-35 -85.5z" />
<glyph unicode="&#xe1;" d="M53 377q0 134 74.5 215t218.5 101l170 24q66 9 110 30q19 9 29.5 32.5t7.5 47.5q-5 42 -42 65q-44 28 -127 28q-74 0 -115.5 -36t-43.5 -102h-248q8 172 117 257.5t320 85.5q182 0 288 -77t106 -210v-547q0 -66 11 -92.5t43 -41.5v-1v-35h-140h-139q-17 59 -23 116v2 q-122 -144 -315 -144q-136 0 -219 77.5t-83 204.5zM313 404q0 -58 31.5 -91.5t88.5 -33.5q124 0 198 88q14 17 24 50t10 65v112q-45 -25 -119 -40l-95 -18q-68 -13 -103 -46.5t-35 -85.5zM323 1234l152 267h283l-248 -267h-187z" />
<glyph unicode="&#xe7;" d="M63 604q0 240 125.5 380.5t338.5 140.5q189 0 310 -104.5t129 -274.5h-263q-4 73 -52 118t-124 45q-97 0 -148 -77.5t-51 -227.5q0 -146 51 -222t148 -76q71 0 119.5 48.5t56.5 128.5h263q-20 -183 -136 -285.5t-303 -102.5q-222 0 -343 132t-121 377zM258 -252l40 87 q45 -15 83 -22.5t60 -7.5q36 0 61 20.5t25 51.5q0 30 -20.5 48.5t-51.5 18.5q-14 0 -33.5 -4.5t-40.5 -11.5l-39 38l101 153h107l-64 -98l51 5q73 0 117.5 -39.5t44.5 -104.5q0 -83 -62 -132.5t-168 -49.5q-50 0 -107 13t-104 35z" />
<glyph unicode="&#xe8;" d="M42 625q0 235 123.5 367.5t342.5 132.5q224 0 345 -135.5t121 -385.5q2 -29 -5 -58h-667q9 -116 52 -174q54 -72 180 -72q58 0 108 33.5t60 79.5h263q-34 -149 -155 -233.5t-302 -84.5q-224 0 -345 137.5t-121 392.5zM188 1501h283l174 -267h-187zM305 710h400 q-9 89 -47 138q-50 66 -154 66q-100 0 -152 -77q-33 -48 -47 -127z" />
<glyph unicode="&#xe9;" d="M42 625q0 235 123.5 367.5t342.5 132.5q224 0 345 -135.5t121 -385.5q2 -29 -5 -58h-667q9 -116 52 -174q54 -72 180 -72q58 0 108 33.5t60 79.5h263q-34 -149 -155 -233.5t-302 -84.5q-224 0 -345 137.5t-121 392.5zM305 710h400q-9 89 -47 138q-50 66 -154 66 q-100 0 -152 -77q-33 -48 -47 -127zM416 1234l174 267h282l-270 -267h-186z" />
<glyph unicode="&#xea;" d="M42 625q0 235 123.5 367.5t342.5 132.5q224 0 345 -135.5t121 -385.5q2 -29 -5 -58h-667q9 -116 52 -174q54 -72 180 -72q58 0 108 33.5t60 79.5h263q-34 -149 -155 -233.5t-302 -84.5q-224 0 -345 137.5t-121 392.5zM202 1234l209 267h115h115l209 -267h-207l-117 150 l-117 -150h-207zM305 710h400q-9 89 -47 138q-50 66 -154 66q-100 0 -152 -77q-33 -48 -47 -127z" />
<glyph unicode="&#xf4;" horiz-adv-x="1126" d="M63 604q0 240 135.5 380.5t364.5 140.5q232 0 367 -140.5t135 -380.5q0 -234 -135 -371.5t-367 -137.5q-229 0 -364.5 137.5t-135.5 371.5zM239 1234l209 267h115h115l209 -267h-207l-117 150l-117 -150h-207zM328 607q0 -145 60 -220.5t175 -75.5q116 0 176 75.5 t60 220.5q0 148 -60 225t-176 77q-115 0 -175 -77t-60 -225z" />
<glyph unicode="&#xf7;" horiz-adv-x="1076" d="M74 420v214h929v-214h-929zM374 143q0 68 48 116t116 48q69 0 116.5 -48t47.5 -116q0 -69 -47.5 -116.5t-116.5 -47.5q-68 0 -116 47.5t-48 116.5zM374 911q0 69 48 116.5t116 47.5q69 0 116.5 -47.5t47.5 -116.5q0 -68 -47.5 -115.5t-116.5 -47.5q-68 0 -116 47.5 t-48 115.5z" />
<glyph unicode="&#x153;" horiz-adv-x="1740" d="M63 544q0 240 130 381q129 140 350 140q208 -1 335 -125q124 124 336 125q224 0 345 -135.5t121 -385.5q2 -29 -4 -58h-652q9 -116 52 -174q54 -72 182 -72q51 0 96 33.5t54 79.5h263q-33 -149 -154 -233.5t-303 -84.5q-212 -1 -333 125q-128 -126 -338 -125 q-221 0 -350.5 137.5t-129.5 371.5zM328 547q0 -145 57.5 -220.5t167.5 -75.5q109 0 166.5 75.5t57.5 220.5q0 148 -58 226q-57 76 -166 76q-110 0 -167.5 -77t-57.5 -225zM1028 650h402q-9 89 -47 138q-50 66 -155 66q-101 0 -154 -77q-34 -48 -46 -127z" />
<glyph unicode="&#x60c;" horiz-adv-x="556" d="M70 380q-3 41 9 100t32.5 119.5t47 114.5t53.5 85.5t50 31.5q24 0 39 -48q4 -12 -4 -34t-19.5 -50t-23 -60.5t-15.5 -65t4 -63.5t35 -56.5t77 -43.5t131 -24q8 -1 8 -14q0 -12 -5.5 -30.5t-14.5 -41t-17.5 -43t-15.5 -36t-8 -20.5q-24 -50 -59.5 -67.5t-75 -11.5t-79 32 t-72 62.5t-54 79.5t-23.5 84z" />
<glyph unicode="&#x61b;" horiz-adv-x="565" d="M91 300l199 200l199 -200l-199 -198zM103 775q-12 58 2 121.5t41.5 125t61.5 117.5t63 99q-8 -108 -10 -175.5t10 -110.5t41 -68.5t83 -48.5l-106 -251q-88 33 -131 83t-55 108z" />
<glyph unicode="&#x61f;" horiz-adv-x="768" d="M104 1073q9 95 39.5 163t76 110t103.5 58t122 7.5t130.5 -40.5t129.5 -86l-157 -188l-58 50q-24 17 -47.5 21.5t-44 -1t-36 -18.5t-22.5 -32t-3.5 -41.5t20.5 -45.5q30 -42 64.5 -73.5t67 -57t61.5 -48t48.5 -48t26.5 -56.5t-3 -73t-40.5 -97.5t-85.5 -130.5l-99 30 q30 47 31.5 85.5t-15 71.5t-47.5 62t-67.5 59t-73.5 61.5t-65.5 69.5t-45 84t-10.5 104zM239 240q-1 13 7 23l103 127q8 10 21 11t24 -7l126 -102q10 -8 11.5 -21.5t-7.5 -23.5l-102 -127q-8 -10 -21.5 -11t-23.5 7l-126 102q-11 9 -12 22z" />
<glyph unicode="&#x621;" horiz-adv-x="726" d="M42.5 451.5q-6.5 51.5 1 107.5t27 111t49.5 104.5t67 87t80.5 59.5t90.5 22t96 -26t97 -85l-41 -155q-49 18 -91.5 32t-81.5 13t-75.5 -23.5t-73.5 -77.5q61 -78 130.5 -110t153.5 -18l216 73l-51 -248l-262 -75q-98 -35 -167.5 -85t-111.5 -109q-20 36 -26 65.5t-0.5 57 t22.5 55.5t43 62q-41 27 -63.5 69t-29 93.5z" />
<glyph unicode="&#x622;" horiz-adv-x="399" d="M-61 1464q-2 84 69.5 160t266.5 7t297 48q-48 -249 -285 -165t-348 -50zM118.5 1210q0.5 22 6 42t20.5 34l143 132q5 -131 9 -269t6 -271t1.5 -255.5t-4 -223.5t-10.5 -174t-18 -106q-44 7 -71 48t-34 128l-46 834q0 16 -1.5 37.5t-1 43.5z" />
<glyph unicode="&#x623;" horiz-adv-x="416" d="M76.5 1550.5q-6.5 35.5 1 70t26 62t43.5 37t54 -6t56 -67.5q-39 14 -77 8t-67 -51q12 -15 27.5 -23t32.5 -10.5t34.5 -1.5t34.5 4l87 30l-20 -100l-106 -30q-39 -14 -66.5 -34t-44.5 -43q-16 29 -10.5 49t26.5 47q-25 24 -31.5 59.5zM118.5 1210q0.5 22 6 42t20.5 34 l143 132q5 -131 9 -269t6 -271t1.5 -255.5t-4 -223.5t-10.5 -174t-18 -106q-44 7 -71 48t-34 128l-46 834q0 16 -1.5 37.5t-1 43.5z" />
<glyph unicode="&#x624;" horiz-adv-x="803" d="M-131 -19l5 42q31 -16 88 -32.5t127.5 -20.5t148 10.5t151 60t136 129t102.5 216.5q-92 -136 -188.5 -167.5t-188.5 27.5q-35 22 -55 64t-24.5 96.5t8 117.5t43.5 127q40 83 84 141t88 92.5t87 47t82 4.5q72 -53 114.5 -131t60.5 -169t12 -190.5t-31.5 -195.5t-69 -183 t-102 -154t-129.5 -108.5t-151.5 -46t-168.5 33.5t-180 129q-9 9 -16 15.5t-12.5 12.5t-10.5 13.5t-10 18.5zM245.5 1113.5q-7.5 40.5 1 80t30 71.5t50.5 42.5t62.5 -7t65.5 -77.5q-23 8 -45.5 11t-44 -1.5t-41.5 -18.5t-37 -40q15 -18 33 -27t37.5 -12t40 -1.5t40.5 4.5 l101 35l-23 -116l-124 -34q-45 -16 -77 -39t-52 -50q-9 17 -12 30.5t0 26t11 25.5t20 29q-29 28 -36.5 68.5zM324 543q21 -34 55 -45t70 -6.5t67 21t45 36.5q0 32 -14 58.5t-33 45t-38.5 29t-29.5 10.5q-20 0 -43 -14t-42 -35.5t-30 -48t-7 -51.5z" />
<glyph unicode="&#x625;" horiz-adv-x="399" d="M82.5 -132.5q-6.5 35.5 1 70t26 62t43.5 37t54 -6t56 -67.5q-39 14 -77 8t-67 -51q12 -15 27.5 -23t32.5 -10.5t34.5 -1.5t34.5 4l87 30l-20 -100l-106 -30q-39 -14 -66.5 -34t-44.5 -43q-16 29 -10.5 49t26.5 47q-25 24 -31.5 59.5zM118.5 1210q0.5 22 6 42t20.5 34 l143 132q5 -131 9 -269t6 -271t1.5 -255.5t-4 -223.5t-10.5 -174t-18 -106q-44 7 -71 48t-34 128l-46 834q0 16 -1.5 37.5t-1 43.5z" />
<glyph unicode="&#x626;" horiz-adv-x="1171" d="M90.5 247q5.5 104 56.5 238q8 21 19.5 51t23 56t22 43t16.5 12q7 -5 18 -10t20.5 -11t14.5 -13t1 -15q-46 -83 -54.5 -150t11 -117.5t63 -84.5t101.5 -52t126 -19.5t136.5 13t133.5 45t117 77.5q-46 11 -96 21.5t-98 24.5t-90 34t-71 51t-42 75t-2.5 106t47.5 144 t108 189q31 47 74 84.5t88 60t86 27t68 -16t35 -69t-14 -130.5q-2 -6 -5.5 -19t-8 -27t-10.5 -26.5t-11.5 -18t-11 -1.5t-9.5 24q-9 43 -30 60t-47 15.5t-54.5 -17.5t-53.5 -38.5t-43 -48.5t-23 -47q-6 -25 6 -44.5t34.5 -35t53.5 -28t62.5 -22.5t61.5 -18.5t51 -15.5 q43 -6 70 -32t39.5 -65.5t11 -89t-16 -101.5t-42 -103t-65.5 -94q-63 -79 -143 -134.5t-165.5 -86t-171 -36t-159 15t-130.5 68t-85.5 123t-23 179.5zM130.5 924.5q-7.5 40.5 1 80t30 71.5t50.5 42.5t62.5 -7t65.5 -77.5q-23 8 -45.5 11t-44 -1.5t-41.5 -18.5t-37 -40 q15 -18 33 -27t37.5 -12t40 -1.5t40.5 4.5l101 35l-23 -116l-124 -34q-45 -16 -77 -39t-52 -50q-9 17 -12 30.5t0 26t11 25.5t20 29q-29 28 -36.5 68.5z" />
<glyph unicode="&#x627;" horiz-adv-x="399" d="M118.5 1210q0.5 22 6 42t20.5 34l143 132q5 -131 9 -269t6 -271t1.5 -255.5t-4 -223.5t-10.5 -174t-18 -106q-44 7 -71 48t-34 128l-46 834q0 16 -1.5 37.5t-1 43.5z" />
<glyph unicode="&#x628;" horiz-adv-x="1616" d="M69 520q4 76 29.5 149.5t74.5 132.5q15 19 29 30t22 13t10 -4.5t-7 -22.5t-11.5 -43t2.5 -59.5t18 -66.5t36 -63t56.5 -50t79.5 -28q482 1 965 0l-107 270l156 171q17 19 35.5 -7t35 -80.5t30 -131t19.5 -159t4 -163.5t-16 -145t-41 -104t-71 -40h-1054q-75 0 -132 34 t-94.5 90.5t-55 128.5t-13.5 148zM830 -235q-1 13 7 23l103 127q8 10 21 11t24 -7l126 -102q10 -8 11.5 -21.5t-7.5 -23.5l-102 -127q-8 -10 -21.5 -11t-23.5 7l-126 102q-11 9 -12 22z" />
<glyph unicode="&#x629;" horiz-adv-x="721" d="M73 296q19 176 59.5 301t93 203t111.5 111.5t113.5 27t100 -51.5t70.5 -123t25 -188q0 -109 -36 -245q-14 -54 -62 -100t-110.5 -77t-130.5 -43t-123 2t-87.5 58t-23.5 125zM104.5 1234q-1.5 13 7.5 24l102 126q9 11 22 12t24 -7l126 -103q2 -1 4 -5l84 103q8 11 21.5 12 t23.5 -7l127 -103q10 -8 11 -21t-7 -24l-102 -126q-8 -11 -21.5 -12t-23.5 7l-127 103l-5 5l-83 -103q-9 -11 -22 -12t-24 7l-126 103q-10 8 -11.5 21zM219 514q32 -32 63.5 -49.5t53.5 -17.5q21 0 51.5 11t58 27.5t45.5 34t13 31.5q-16 27 -34 48.5t-35 36.5t-32 23t-25 8 q-20 0 -49 -14.5t-54.5 -37t-42.5 -49.5t-13 -52z" />
<glyph unicode="&#x62a;" horiz-adv-x="1616" d="M69 520q4 76 29.5 149.5t74.5 132.5q15 19 29 30t22 13t10 -4.5t-7 -22.5t-11.5 -43t2.5 -59.5t18 -66.5t36 -63t56.5 -50t79.5 -28q482 1 965 0l-107 270l156 171q17 19 35.5 -7t35 -80.5t30 -131t19.5 -159t4 -163.5t-16 -145t-41 -104t-71 -40h-1054q-75 0 -132 34 t-94.5 90.5t-55 128.5t-13.5 148zM581.5 1101q-1.5 13 7.5 24l102 126q9 11 22 12t24 -7l126 -103q2 -1 4 -5l84 103q8 11 21.5 12t23.5 -7l127 -103q10 -8 11 -21t-7 -24l-102 -126q-8 -11 -21.5 -12t-23.5 7l-127 103l-5 5l-83 -103q-9 -11 -22 -12t-24 7l-126 103 q-10 8 -11.5 21z" />
<glyph unicode="&#x62b;" horiz-adv-x="1616" d="M69 520q4 76 29.5 149.5t74.5 132.5q15 19 29 30t22 13t10 -4.5t-7 -22.5t-11.5 -43t2.5 -59.5t18 -66.5t36 -63t56.5 -50t79.5 -28q482 1 965 0l-107 270l156 171q17 19 35.5 -7t35 -80.5t30 -131t19.5 -159t4 -163.5t-16 -145t-41 -104t-71 -40h-1054q-75 0 -132 34 t-94.5 90.5t-55 128.5t-13.5 148zM581.5 1101q-1.5 13 7.5 24l102 126q9 11 22 12t24 -7l126 -103q2 -1 4 -5l84 103q8 11 21.5 12t23.5 -7l127 -103q10 -8 11 -21t-7 -24l-102 -126q-8 -11 -21.5 -12t-23.5 7l-127 103l-5 5l-83 -103q-9 -11 -22 -12t-24 7l-126 103 q-10 8 -11.5 21zM692 1398q-1 13 7 23l103 127q8 10 21 11t24 -7l126 -102q10 -8 11.5 -21.5t-7.5 -23.5l-102 -127q-8 -10 -21.5 -11t-23.5 7l-126 102q-11 9 -12 22z" />
<glyph unicode="&#x62c;" horiz-adv-x="1125" d="M68 -23q-1 102 25.5 204t78 191t126.5 157t171 101q23 8 40.5 15t16.5 15.5t-26 20.5t-86 31q-37 11 -75.5 9.5t-74.5 -11.5t-67.5 -26t-55 -34t-36.5 -35t-12 -29l-20 48q38 112 80 180.5t86.5 104t91.5 43.5t95 -1t98 -29t100.5 -41t101.5 -37t101 -17l177 -19 l-59 -263q-4 -18 -24 -21t-50 -2.5t-67 0.5q-36 0 -73 -12q-140 -25 -245.5 -75t-173.5 -115t-98.5 -138.5t-20 -144t62.5 -133t148 -105t238 -59.5t331 3q64 7 133 10t123 3q39 0 47 -9t-3.5 -24.5t-34.5 -36t-45 -42.5q-51 -51 -92 -86.5t-80.5 -59.5t-81.5 -37.5 t-93.5 -20t-116.5 -7t-152 1.5q-131 3 -226.5 48t-158 118.5t-93 168.5t-31.5 197zM494 150q-1 13 7 23l103 127q8 10 21 11t24 -7l126 -102q10 -8 11.5 -21.5t-7.5 -23.5l-102 -127q-8 -10 -21.5 -11t-23.5 7l-126 102q-11 9 -12 22z" />
<glyph unicode="&#x62d;" horiz-adv-x="1125" d="M68 -23q-1 102 25.5 204t78 191t126.5 157t171 101q23 8 40.5 15t16.5 15.5t-26 20.5t-86 31q-37 11 -75.5 9.5t-74.5 -11.5t-67.5 -26t-55 -34t-36.5 -35t-12 -29l-20 48q38 112 80 180.5t86.5 104t91.5 43.5t95 -1t98 -29t100.5 -41t101.5 -37t101 -17l177 -19 l-59 -263q-4 -18 -24 -21t-50 -2.5t-67 0.5q-36 0 -73 -12q-140 -25 -245.5 -75t-173.5 -115t-98.5 -138.5t-20 -144t62.5 -133t148 -105t238 -59.5t331 3q64 7 133 10t123 3q39 0 47 -9t-3.5 -24.5t-34.5 -36t-45 -42.5q-51 -51 -92 -86.5t-80.5 -59.5t-81.5 -37.5 t-93.5 -20t-116.5 -7t-152 1.5q-131 3 -226.5 48t-158 118.5t-93 168.5t-31.5 197z" />
<glyph unicode="&#x62e;" horiz-adv-x="1125" d="M68 -23q-1 102 25.5 204t78 191t126.5 157t171 101q23 8 40.5 15t16.5 15.5t-26 20.5t-86 31q-37 11 -75.5 9.5t-74.5 -11.5t-67.5 -26t-55 -34t-36.5 -35t-12 -29l-20 48q38 112 80 180.5t86.5 104t91.5 43.5t95 -1t98 -29t100.5 -41t101.5 -37t101 -17l177 -19 l-59 -263q-4 -18 -24 -21t-50 -2.5t-67 0.5q-36 0 -73 -12q-140 -25 -245.5 -75t-173.5 -115t-98.5 -138.5t-20 -144t62.5 -133t148 -105t238 -59.5t331 3q64 7 133 10t123 3q39 0 47 -9t-3.5 -24.5t-34.5 -36t-45 -42.5q-51 -51 -92 -86.5t-80.5 -59.5t-81.5 -37.5 t-93.5 -20t-116.5 -7t-152 1.5q-131 3 -226.5 48t-158 118.5t-93 168.5t-31.5 197zM223 1250q-1 13 7 23l103 127q8 10 21 11t24 -7l126 -102q10 -8 11.5 -21.5t-7.5 -23.5l-102 -127q-8 -10 -21.5 -11t-23.5 7l-126 102q-11 9 -12 22z" />
<glyph unicode="&#x62f;" horiz-adv-x="819" d="M60 119v390h116t121 -0.5t121 -0.5h116q3 21 -3.5 55t-22.5 72t-42.5 75.5t-63 67t-84 46t-105.5 11.5l82 169q15 34 37 49.5t49 17.5t57 -8t59 -27q57 -27 100.5 -80.5t74 -123t48 -149t21.5 -159t-6 -153t-33.5 -129.5t-60.5 -89.5t-89 -33.5h-492z" />
<glyph unicode="&#x630;" horiz-adv-x="819" d="M60 119v390h116t121 -0.5t121 -0.5h116q3 21 -3.5 55t-22.5 72t-42.5 75.5t-63 67t-84 46t-105.5 11.5l82 169q15 34 37 49.5t49 17.5t57 -8t59 -27q57 -27 100.5 -80.5t74 -123t48 -149t21.5 -159t-6 -153t-33.5 -129.5t-60.5 -89.5t-89 -33.5h-492zM187 1299 q-1 13 7 23l103 127q8 10 21 11t24 -7l126 -102q10 -8 11.5 -21.5t-7.5 -23.5l-102 -127q-8 -10 -21.5 -11t-23.5 7l-126 102q-11 9 -12 22z" />
<glyph unicode="&#x631;" horiz-adv-x="847" d="M-102 -17l5 42q65 -38 141 -60.5t153 -24.5t151.5 20.5t136.5 75.5t107 139.5t64 212.5l-222 347l95 211q6 13 16 12t23 -14t29 -36.5t33 -54.5q23 -34 45 -73t41 -87.5t34.5 -109.5t26.5 -139q10 -77 3 -162t-30 -167t-62.5 -155.5t-93 -128t-122 -84t-150 -23.5 t-175.5 53t-200 146q-9 9 -16 15t-12.5 12.5t-10.5 14t-10 18.5z" />
<glyph unicode="&#x632;" horiz-adv-x="847" d="M-102 -17l5 42q65 -38 141 -60.5t153 -24.5t151.5 20.5t136.5 75.5t107 139.5t64 212.5l-222 347l95 211q6 13 16 12t23 -14t29 -36.5t33 -54.5q23 -34 45 -73t41 -87.5t34.5 -109.5t26.5 -139q10 -77 3 -162t-30 -167t-62.5 -155.5t-93 -128t-122 -84t-150 -23.5 t-175.5 53t-200 146q-9 9 -16 15t-12.5 12.5t-10.5 14t-10 18.5zM240 1219q-1 13 7 23l103 127q8 10 21 11t24 -7l126 -102q10 -8 11.5 -21.5t-7.5 -23.5l-102 -127q-8 -10 -21.5 -11t-23.5 7l-126 102q-11 9 -12 22z" />
<glyph unicode="&#x633;" horiz-adv-x="2033" d="M54.5 119q-13.5 121 21.5 279q4 22 15 52t24 56t24.5 42.5t17.5 11.5q13 -10 19 -16t1 -25q-28 -114 -16 -202t51 -149.5t99 -96.5t128 -43q69 -8 140 8.5t130 64.5q67 54 101 99t43.5 86t-2 79.5t-35 80t-54.5 88t-61 102.5q3 12 11.5 36.5t20.5 53t26.5 56.5t30 48.5 t30 28t27.5 -5.5q62 -64 89.5 -125.5t38 -109.5t14.5 -78t19 -31l296 -1l-19 181l169 155q3 3 3.5 -10t1 -38t3.5 -59t12 -72t25.5 -78.5t45.5 -77.5h133t133 -1l-107 270l156 171q17 19 35.5 -7t35 -80.5t30 -131t19.5 -159t4 -163.5t-16 -145t-41 -104t-71 -40h-319 q-19 2 -40 7.5t-40.5 17.5t-36 32t-25.5 52l-30 -109h-393q-33 -112 -96 -194.5t-143 -133.5t-169.5 -70t-174 -4t-157 63.5t-118.5 133t-59.5 205.5z" />
<glyph unicode="&#x634;" horiz-adv-x="2033" d="M54.5 119q-13.5 121 21.5 279q4 22 15 52t24 56t24.5 42.5t17.5 11.5q13 -10 19 -16t1 -25q-28 -114 -16 -202t51 -149.5t99 -96.5t128 -43q69 -8 140 8.5t130 64.5q67 54 101 99t43.5 86t-2 79.5t-35 80t-54.5 88t-61 102.5q3 12 11.5 36.5t20.5 53t26.5 56.5t30 48.5 t30 28t27.5 -5.5q62 -64 89.5 -125.5t38 -109.5t14.5 -78t19 -31l296 -1l-19 181l169 155q3 3 3.5 -10t1 -38t3.5 -59t12 -72t25.5 -78.5t45.5 -77.5h133t133 -1l-107 270l156 171q17 19 35.5 -7t35 -80.5t30 -131t19.5 -159t4 -163.5t-16 -145t-41 -104t-71 -40h-319 q-19 2 -40 7.5t-40.5 17.5t-36 32t-25.5 52l-30 -109h-393q-33 -112 -96 -194.5t-143 -133.5t-169.5 -70t-174 -4t-157 63.5t-118.5 133t-59.5 205.5zM1063.5 1127q-1.5 13 7.5 24l102 126q9 11 22 12t24 -7l126 -103q2 -1 4 -5l84 103q8 11 21.5 12t23.5 -7l127 -103 q10 -8 11 -21t-7 -24l-102 -126q-8 -11 -21.5 -12t-23.5 7l-127 103l-5 5l-83 -103q-9 -11 -22 -12t-24 7l-126 103q-10 8 -11.5 21zM1174 1424q-1 13 7 23l103 127q8 10 21 11t24 -7l126 -102q10 -8 11.5 -21.5t-7.5 -23.5l-102 -127q-8 -10 -21.5 -11t-23.5 7l-126 102 q-11 9 -12 22z" />
<glyph unicode="&#x635;" horiz-adv-x="2135" d="M63.5 119q-13.5 121 21.5 279q4 22 15 52t24 56t24.5 42.5t17.5 11.5q13 -10 19 -16t1 -25q-28 -114 -16 -202t51 -149.5t99 -96.5t128 -43q69 -8 139.5 10t130.5 63q73 54 107 106.5t39.5 104t-12.5 103.5t-48.5 104.5t-69 106t-74.5 109.5l96 211q6 13 15 11.5t21 -15 t28 -36.5t36 -53q45 -66 68.5 -126.5t38 -108t26.5 -77.5t34.5 -35t61 19t106.5 86q37 27 83 63t97.5 74.5t106.5 76.5t109.5 67.5t107 48t98.5 18.5q33 0 66.5 -19.5t64.5 -50.5t58.5 -71t49 -80.5t35.5 -79t18 -66.5l-5 -473h-1099q-33 -112 -96 -194.5t-143 -133.5 t-169.5 -70t-174 -4t-157 63.5t-118.5 133t-59.5 205.5zM1292 509h568q-11 25 -31.5 56t-47 57t-57 44t-60.5 18q-162 0 -372 -175z" />
<glyph unicode="&#x636;" horiz-adv-x="2135" d="M63.5 119q-13.5 121 21.5 279q4 22 15 52t24 56t24.5 42.5t17.5 11.5q13 -10 19 -16t1 -25q-28 -114 -16 -202t51 -149.5t99 -96.5t128 -43q69 -8 139.5 10t130.5 63q73 54 107 106.5t39.5 104t-12.5 103.5t-48.5 104.5t-69 106t-74.5 109.5l96 211q6 13 15 11.5t21 -15 t28 -36.5t36 -53q45 -66 68.5 -126.5t38 -108t26.5 -77.5t34.5 -35t61 19t106.5 86q37 27 83 63t97.5 74.5t106.5 76.5t109.5 67.5t107 48t98.5 18.5q33 0 66.5 -19.5t64.5 -50.5t58.5 -71t49 -80.5t35.5 -79t18 -66.5l-5 -473h-1099q-33 -112 -96 -194.5t-143 -133.5 t-169.5 -70t-174 -4t-157 63.5t-118.5 133t-59.5 205.5zM1114 1101q-1 13 7 23l103 127q8 10 21 11t24 -7l126 -102q10 -8 11.5 -21.5t-7.5 -23.5l-102 -127q-8 -10 -21.5 -11t-23.5 7l-126 102q-11 9 -12 22zM1292 509h568q-11 25 -31.5 56t-47 57t-57 44t-60.5 18 q-162 0 -372 -175z" />
<glyph unicode="&#x637;" horiz-adv-x="1616" d="M62 397q-1 54 7 105.5t23 95.5t31 74q12 21 24 33t20.5 14t12 -5.5t-2.5 -25.5q-9 -29 -5 -60.5t24.5 -58.5t60 -44t102.5 -17l138 -1l-64 612q0 16 -0.5 36.5t1 41.5t6.5 41.5t17 36.5l103 143q7 -39 23.5 -68.5t36.5 -52.5t40 -42.5t32.5 -38t14.5 -39t-13 -45.5 l-63 -104q-11 -18 -12.5 -59t2 -97t10.5 -123.5t13 -137.5q36 27 82 63t97.5 74.5t106.5 76.5t109.5 67.5t107 48t98.5 18.5q33 0 66.5 -19.5t64.5 -50.5t58.5 -71t49 -80.5t35.5 -79t18 -66.5l-5 -473h-1218q-28 0 -54.5 1.5t-47.5 12.5q-54 26 -86 68t-47.5 92t-16.5 104z M744 509h568q-11 25 -31.5 56t-46.5 57t-56.5 44t-60.5 18q-163 0 -373 -175z" />
<glyph unicode="&#x638;" horiz-adv-x="1616" d="M62 397q-1 54 7 105.5t23 95.5t31 74q12 21 24 33t20.5 14t12 -5.5t-2.5 -25.5q-9 -29 -5 -60.5t24.5 -58.5t60 -44t102.5 -17l138 -1l-64 612q0 16 -0.5 36.5t1 41.5t6.5 41.5t17 36.5l103 143q7 -39 23.5 -68.5t36.5 -52.5t40 -42.5t32.5 -38t14.5 -39t-13 -45.5 l-63 -104q-11 -18 -12.5 -59t2 -97t10.5 -123.5t13 -137.5q36 27 82 63t97.5 74.5t106.5 76.5t109.5 67.5t107 48t98.5 18.5q33 0 66.5 -19.5t64.5 -50.5t58.5 -71t49 -80.5t35.5 -79t18 -66.5l-5 -473h-1218q-28 0 -54.5 1.5t-47.5 12.5q-54 26 -86 68t-47.5 92t-16.5 104z M744 509h568q-11 25 -31.5 56t-46.5 57t-56.5 44t-60.5 18q-163 0 -373 -175zM796 1114q-1 13 7 23l103 127q8 10 21 11t24 -7l126 -102q10 -8 11.5 -21.5t-7.5 -23.5l-102 -127q-8 -10 -21.5 -11t-23.5 7l-126 102q-11 9 -12 22z" />
<glyph unicode="&#x639;" horiz-adv-x="973" d="M64.5 52q8.5 91 36.5 177t75.5 163t112.5 135q-52 50 -74 118.5t-20.5 142t24 144t60 125t87 85.5t105.5 25.5t115.5 -55.5t116.5 -157q-54 19 -108 26.5t-105 -4.5t-98 -45.5t-87 -94.5q33 -43 76 -64.5t90 -28.5t95.5 -3.5t94.5 11.5l240 81l-56 -275l-291 -82 q-107 -38 -184.5 -93.5t-122.5 -119.5t-57.5 -131.5t9.5 -130t79.5 -116t152.5 -89t228.5 -48.5t307.5 5q64 7 132.5 10t123.5 3q39 0 47 -9t-3.5 -24.5t-34.5 -36t-45 -42.5q-51 -51 -92.5 -86.5t-81 -59.5t-81.5 -37.5t-93.5 -20t-116.5 -7t-152 1.5q-115 3 -202 38 t-148.5 93.5t-98.5 135t-51 163t-5.5 177.5z" />
<glyph unicode="&#x63a;" horiz-adv-x="973" d="M64.5 52q8.5 91 36.5 177t75.5 163t112.5 135q-52 50 -74 118.5t-20.5 142t24 144t60 125t87 85.5t105.5 25.5t115.5 -55.5t116.5 -157q-54 19 -108 26.5t-105 -4.5t-98 -45.5t-87 -94.5q33 -43 76 -64.5t90 -28.5t95.5 -3.5t94.5 11.5l240 81l-56 -275l-291 -82 q-107 -38 -184.5 -93.5t-122.5 -119.5t-57.5 -131.5t9.5 -130t79.5 -116t152.5 -89t228.5 -48.5t307.5 5q64 7 132.5 10t123.5 3q39 0 47 -9t-3.5 -24.5t-34.5 -36t-45 -42.5q-51 -51 -92.5 -86.5t-81 -59.5t-81.5 -37.5t-93.5 -20t-116.5 -7t-152 1.5q-115 3 -202 38 t-148.5 93.5t-98.5 135t-51 163t-5.5 177.5zM191 1372q-1 13 7 23l103 127q8 10 21 11t24 -7l126 -102q10 -8 11.5 -21.5t-7.5 -23.5l-102 -127q-8 -10 -21.5 -11t-23.5 7l-126 102q-11 9 -12 22z" />
<glyph unicode="&#x640;" horiz-adv-x="430" d="M-39 119v390l503 -1l-1 -389h-502z" />
<glyph unicode="&#x641;" horiz-adv-x="1611" d="M65.5 520q3.5 76 29.5 149.5t75 132.5q15 19 28.5 30t22 13t10 -4.5t-7.5 -22.5q-8 -16 -10.5 -43t2 -59.5t17.5 -66.5t36 -63t57 -50t80 -28h965q-2 97 -42 195q-18 -21 -39.5 -40.5t-46.5 -34.5t-51.5 -24.5t-54.5 -9.5q-76 0 -120.5 24.5t-64 64t-17 90.5t21.5 103.5 t51.5 103.5t73 90.5t85.5 64t90 24.5q40 0 75.5 -29t66 -79t55 -116.5t42 -141.5t28.5 -154t13.5 -154t-3 -141.5t-20.5 -116.5t-39.5 -79t-59.5 -29h-1053q-75 0 -132 34t-94.5 90.5t-55 128.5t-14 148zM954 1378q-1 13 7 23l103 127q8 10 21 11t24 -7l126 -102 q10 -8 11.5 -21.5t-7.5 -23.5l-102 -127q-8 -10 -21.5 -11t-23.5 7l-126 102q-11 9 -12 22zM1094 909q63 -63 106 -63q35 0 69 17q-64 109 -106 109q-23 0 -69 -63z" />
<glyph unicode="&#x642;" horiz-adv-x="1085" d="M71 130.5q-10 115.5 22 267.5q4 22 15 52t24 56t25 42.5t18 11.5q13 -10 18.5 -16t1.5 -25q-27 -118 -13 -207.5t55.5 -150t104.5 -93.5t133 -39.5t141 13.5t130 65.5t98.5 116t46.5 164.5q-38 -44 -81.5 -74.5t-89 -45t-90.5 -13.5t-85 20q-37 17 -64.5 42.5t-39.5 65.5 t-4.5 96t40.5 135q82 168 162 236.5t150.5 44t127.5 -138.5t94 -312q22 -125 3.5 -230.5t-64.5 -190.5t-114 -147t-147 -99t-163 -48t-160.5 7.5t-141 67t-104 130t-49.5 197zM347.5 1148q-1.5 13 7.5 24l102 126q9 11 22 12t24 -7l126 -103q2 -1 4 -5l84 103q8 11 21.5 12 t23.5 -7l127 -103q10 -8 11 -21t-7 -24l-102 -126q-8 -11 -21.5 -12t-23.5 7l-127 103l-5 5l-83 -103q-9 -11 -22 -12t-24 7l-126 103q-10 8 -11.5 21zM596 583q32 -32 63.5 -49.5t53.5 -17.5q9 0 27.5 7.5t38.5 17t38.5 19t26.5 13.5q-16 27 -34 48.5t-35 36.5t-32 23 t-25 8q-20 0 -43 -7t-42 -20.5t-30 -33.5t-7 -45z" />
<glyph unicode="&#x643;" horiz-adv-x="1653" d="M57 520q4 76 29.5 149.5t74.5 132.5q15 19 29 30t22 13t10 -4.5t-7 -22.5t-11.5 -43t2.5 -59.5t18 -66.5t36 -63t56.5 -50t79.5 -28h991l-65 611q0 16 -0.5 36.5t1 41.5t7 41.5t17.5 36.5l102 143q7 -39 23.5 -68.5t36.5 -52.5t40 -42.5t32.5 -38t14.5 -39t-13 -45.5 l-62 -104q-12 -21 -13 -71t4 -117.5t13.5 -147.5t14 -160t6 -154.5t-10.5 -132t-35.5 -92t-68.5 -34.5h-1079q-75 0 -132 34t-94.5 90.5t-55 128.5t-13.5 148zM509 766q32 13 83.5 31t107 38t106 40.5t80.5 38.5q-21 3 -58.5 7.5t-71 13.5t-52.5 25t-4 43q35 61 77.5 110.5 t87 86.5t88.5 62t81 37t64 10.5t39 -15.5q-9 -26 -16.5 -43t-14.5 -29.5t-14.5 -23t-16.5 -22.5q-26 -6 -53 -11.5t-53.5 -12.5t-51.5 -17t-48 -25q15 -21 37.5 -26t47.5 -4.5t49.5 2t44.5 -7.5q23 -10 25 -30.5t-10 -45.5t-33.5 -53t-45.5 -53t-46 -44.5t-34 -28.5 q-31 -23 -84.5 -44.5t-112 -32.5t-112.5 -7t-86 31z" />
<glyph unicode="&#x644;" horiz-adv-x="990" d="M73 150.5q-3 109.5 27 247.5q5 22 16 52t23.5 56t24.5 42.5t18 11.5q13 -10 19 -16t1 -25q-35 -143 -17.5 -244.5t67.5 -161.5t122 -79t146.5 3.5t140.5 87t104 170.5l-89 824q0 16 -0.5 36.5t1 41.5t7 41.5t17.5 36.5l102 143q7 -39 23.5 -68.5t36.5 -52.5t40 -42.5 t32.5 -38t14.5 -39t-13 -45.5l-62 -104q-12 -19 -13.5 -64t3 -106.5t12 -134.5t13.5 -148t9 -147.5t-3 -132.5q-5 -116 -35.5 -210t-78.5 -165t-109.5 -118t-128 -70t-133.5 -21t-126.5 30t-107 82.5t-74.5 136t-30 191z" />
<glyph unicode="&#x645;" horiz-adv-x="815" d="M53.5 342.5q8.5 62.5 35.5 111.5t67.5 84.5t86.5 59.5t92.5 35.5t84.5 11.5q-43 60 -83.5 83t-77.5 21t-69.5 -24t-58.5 -53q28 88 59 147t64.5 95t71 51.5t78.5 15.5q34 0 68.5 -19t68 -50t65.5 -69.5t61 -77t54 -73.5t45 -59l-78 -368q-126 50 -247.5 54t-242.5 -54 q37 -141 57.5 -246.5t24.5 -190t-10 -155t-47 -141.5l-160 672q-18 76 -9.5 138.5z" />
<glyph unicode="&#x646;" horiz-adv-x="1091" d="M77 136.5q-9 114.5 23 260.5q5 22 16 52t24 56t24.5 42.5t17.5 11.5q13 -10 19 -16t1 -25q-28 -114 -16.5 -202t50.5 -149.5t99 -96t128.5 -43t139 9.5t131 63t105 117t59.5 170l-222 347l96 211q6 13 15.5 12t22.5 -14t29 -36.5t33 -54.5q23 -34 45.5 -73t42 -87.5 t35 -109.5t24.5 -139q17 -137 -4 -250t-69 -200t-116.5 -148t-147 -94.5t-160.5 -39.5t-157.5 17t-138 75.5t-101.5 135.5t-48 197.5zM384 1088q-1 13 7 23l103 127q8 10 21 11t24 -7l126 -102q10 -8 11.5 -21.5t-7.5 -23.5l-102 -127q-8 -10 -21.5 -11t-23.5 7l-126 102 q-11 9 -12 22z" />
<glyph unicode="&#x647;" horiz-adv-x="721" d="M73 296q19 176 59.5 301t93 203t111.5 111.5t113.5 27t100 -51.5t70.5 -123t25 -188q0 -109 -36 -245q-14 -54 -62 -100t-110.5 -77t-130.5 -43t-123 2t-87.5 58t-23.5 125zM219 514q32 -32 63.5 -49.5t53.5 -17.5q21 0 51.5 11t58 27.5t45.5 34t13 31.5q-16 27 -34 48.5 t-35 36.5t-32 23t-25 8q-20 0 -49 -14.5t-54.5 -37t-42.5 -49.5t-13 -52z" />
<glyph unicode="&#x648;" horiz-adv-x="803" d="M-131 -19l5 42q31 -16 88 -32.5t127.5 -20.5t148 10.5t151 60t136 129t102.5 216.5q-92 -136 -188.5 -167.5t-188.5 27.5q-35 22 -55 64t-24.5 96.5t8 117.5t43.5 127q40 83 84 141t88 92.5t87 47t82 4.5q72 -53 114.5 -131t60.5 -169t12 -190.5t-31.5 -195.5t-69 -183 t-102 -154t-129.5 -108.5t-151.5 -46t-168.5 33.5t-180 129q-9 9 -16 15.5t-12.5 12.5t-10.5 13.5t-10 18.5zM324 543q21 -34 55 -45t70 -6.5t67 21t45 36.5q0 32 -14 58.5t-33 45t-38.5 29t-29.5 10.5q-20 0 -43 -14t-42 -35.5t-30 -48t-7 -51.5z" />
<glyph unicode="&#x649;" horiz-adv-x="1171" d="M90.5 247q5.5 104 56.5 238q8 21 19.5 51t23 56t22 43t16.5 12q7 -5 18 -10t20.5 -11t14.5 -13t1 -15q-46 -83 -54.5 -150t11 -117.5t63 -84.5t101.5 -52t126 -19.5t136.5 13t133.5 45t117 77.5q-46 11 -96 21.5t-98 24.5t-90 34t-71 51t-42 75t-2.5 106t47.5 144 t108 189q31 47 74 84.5t88 60t86 27t68 -16t35 -69t-14 -130.5q-2 -6 -5.5 -19t-8 -27t-10.5 -26.5t-11.5 -18t-11 -1.5t-9.5 24q-9 43 -30 60t-47 15.5t-54.5 -17.5t-53.5 -38.5t-43 -48.5t-23 -47q-6 -25 6 -44.5t34.5 -35t53.5 -28t62.5 -22.5t61.5 -18.5t51 -15.5 q43 -6 70 -32t39.5 -65.5t11 -89t-16 -101.5t-42 -103t-65.5 -94q-63 -79 -143 -134.5t-165.5 -86t-171 -36t-159 15t-130.5 68t-85.5 123t-23 179.5z" />
<glyph unicode="&#x64a;" horiz-adv-x="1171" d="M90.5 247q5.5 104 56.5 238q8 21 19.5 51t23 56t22 43t16.5 12q7 -5 18 -10t20.5 -11t14.5 -13t1 -15q-46 -83 -54.5 -150t11 -117.5t63 -84.5t101.5 -52t126 -19.5t136.5 13t133.5 45t117 77.5q-46 11 -96 21.5t-98 24.5t-90 34t-71 51t-42 75t-2.5 106t47.5 144 t108 189q31 47 74 84.5t88 60t86 27t68 -16t35 -69t-14 -130.5q-2 -6 -5.5 -19t-8 -27t-10.5 -26.5t-11.5 -18t-11 -1.5t-9.5 24q-9 43 -30 60t-47 15.5t-54.5 -17.5t-53.5 -38.5t-43 -48.5t-23 -47q-6 -25 6 -44.5t34.5 -35t53.5 -28t62.5 -22.5t61.5 -18.5t51 -15.5 q43 -6 70 -32t39.5 -65.5t11 -89t-16 -101.5t-42 -103t-65.5 -94q-63 -79 -143 -134.5t-165.5 -86t-171 -36t-159 15t-130.5 68t-85.5 123t-23 179.5zM195.5 -438q-1.5 13 7.5 24l102 126q9 11 22 12t24 -7l126 -103q2 -1 4 -5l84 103q8 11 21.5 12t23.5 -7l127 -103 q10 -8 11 -21t-7 -24l-102 -126q-8 -11 -21.5 -12t-23.5 7l-127 103l-5 5l-83 -103q-9 -11 -22 -12t-24 7l-126 103q-10 8 -11.5 21z" />
<glyph unicode="&#x64b;" horiz-adv-x="408" d="M49 1482l17 91l340 193l-17 -91zM63 1649l17 91l340 193l-17 -91z" />
<glyph unicode="&#x64c;" horiz-adv-x="469" d="M45 1619q19 27 44.5 43.5t50.5 22t47 -1t34 -24.5t10.5 -48t-23.5 -72q46 20 85.5 44t71.5 62q-41 10 -60.5 31.5t-22 47.5t8 53t30 49.5t44 36t49.5 12.5q21 -2 28 -24.5t6.5 -51t-6 -55.5t-8.5 -37l38 -12l-17 -76l-46 13q-6 -14 -19.5 -33.5t-32 -40t-40.5 -39.5 t-45.5 -31t-47.5 -15t-46 8t-24 31.5t3 42t10.5 42t-2 32t-34.5 10.5t-86 -20zM334 1773q-2 -11 3 -19t14 -14t20.5 -11.5t24.5 -11.5q2 19 2 35q0 14 -2.5 26.5t-7.5 16.5v-2q-10 10 -23 10q-14 1 -22.5 -8.5t-8.5 -21.5z" />
<glyph unicode="&#x64d;" horiz-adv-x="408" d="M38 -509l17 91l340 193l-17 -91zM65 -341l17 91l340 193l-17 -91z" />
<glyph unicode="&#x64e;" horiz-adv-x="408" d="M49 1482l17 91l340 193l-17 -91z" />
<glyph unicode="&#x64f;" horiz-adv-x="414" d="M13 1507q61 25 105.5 43t79 36t62.5 39.5t56 54.5q-47 11 -69 34t-25.5 51t9 57.5t34 53.5t49.5 38.5t56 13.5q16 -1 25 -12.5t12.5 -29t2.5 -39t-3.5 -41.5t-6.5 -36.5t-7 -24.5l44 -13l-19 -80l-52 12q-11 -23 -37.5 -52.5t-62.5 -55t-78.5 -42.5t-85.5 -15 q-29 2 -47.5 3t-28.5 2t-12.5 1.5t-0.5 1.5zM279 1818q-2 -25 20 -37t51 -23q2 20 2 38q0 15 -2 28.5t-9 18.5v-2q-5 6 -12 8t-12 2q-17 2 -27 -8.5t-11 -24.5z" />
<glyph unicode="&#x650;" horiz-adv-x="408" d="M55 -341l17 91l340 193l-17 -91z" />
<glyph unicode="&#x651;" horiz-adv-x="425" d="M59.5 1603.5q-1.5 27.5 2 53.5t10.5 47.5t14 31.5q0 -3 5 1t11.5 9t11.5 8.5t5 0.5q-8 -20 -13.5 -46.5t-3 -50t14 -39.5t37.5 -15q29 0 44.5 16t23.5 37.5t12.5 44.5t12.5 38q1 -3 5 0t9 7.5t9.5 8t5.5 0.5q-8 -29 -2.5 -54t19.5 -40t35.5 -18t46.5 14q6 9 5.5 22 t-4.5 26.5t-11 27t-14 23.5q13 18 24.5 34t22.5 32q11 -17 17.5 -36t11.5 -38q6 -33 3 -67t-15 -62t-33 -45.5t-51 -17.5q-25 0 -37.5 9t-27.5 23q-6 -10 -15 -23t-22 -25t-31 -21t-40 -11q-35 -3 -56 10t-31 35t-11.5 49.5z" />
<glyph unicode="&#x652;" horiz-adv-x="328" d="M59 1556q-5 33 3.5 75.5t27 81.5t46 67t59.5 33q28 4 54 -6.5t46.5 -28.5t34.5 -40.5t17 -41.5q5 -34 -10 -71.5t-41 -87.5v1q0 1 1 2l-3 -5q-24 -14 -61.5 -26.5t-74 -15t-65 11t-34.5 51.5zM123 1643q3 -22 21 -32.5t42 -11t50 6.5t46 21l1 1q-3 14 -13.5 30t-25 29.5 t-31.5 22t-35 5.5q-30 -5 -44 -27t-11 -45zM294 1535l1 1q0 -1 -1 -1zM295 1536l1 1q0 -1 -1 -1z" />
<glyph unicode="&#x660;" horiz-adv-x="1279" d="M428 569l111 386l311 -193l-110 -380z" />
<glyph unicode="&#x661;" horiz-adv-x="1279" d="M411 1065v21q0 42 48.5 186.5t76.5 144.5q29 0 71 -74q262 -439 262 -979q0 -361 -80 -361q-40 0 -91 262q-31 165 -66 330q-71 218 -221 470z" />
<glyph unicode="&#x662;" horiz-adv-x="1279" d="M253 1170q0 21 55 116t78 119q34 -3 110 -87q101 -110 108 -117h57q124 -2 194 55q23 20 73 102q32 53 80 47q18 -28 18 -116q0 -429 -283 -476l-8 -5q83 -256 83 -548q0 -250 -75 -250q-32 12 -41 23q-24 28 -35 101q-9 55 -20 110q-94 433 -267 733q-5 9 -70 100 q-57 85 -57 93z" />
<glyph unicode="&#x663;" horiz-adv-x="1279" d="M105 1113q0 18 69.5 124t87.5 115q65 -69 127 -135q98 -92 143 -92q63 0 151.5 136.5t114.5 136.5q16 0 31 -9l16 -28q14 -94 24 -115q25 -50 107 -50q38 0 74.5 81t73.5 81q51 0 51 -93q0 -131 -60 -255q-74 -152 -187 -152q-50 0 -125 33t-84 33q-82 -75 -187 -125 q65 -279 65 -522q0 -274 -82 -274q-57 0 -80 152q-9 101 -19 203.5t-92 314.5q-74 199 -140 309q-23 32 -44 69q-35 55 -35 62z" />
<glyph unicode="&#x664;" horiz-adv-x="1279" d="M318 869v43q-8 148 163 342.5t319 192.5l-42 -274q-119 -22 -178 -72q-12 -2 -12 -17q0 -27 122 -84q133 -62 145.5 -80t12.5 -37q0 -94 -124 -218q-134 -138 -151 -204q72 -45 185 -82q99 -27 196 -54q6 -3 6 -17q0 -39 -94 -292h-23q-145 0 -311 68q-203 84 -203 202 q0 80 85 206q8 14 137 181q-9 15 -102 73t-131 123z" />
<glyph unicode="&#x665;" horiz-adv-x="1279" d="M246 525q0 180 126 436q145 295 303 295q108 0 235 -177q126 -161 126 -271q0 -283 -100 -423q-115 -167 -385 -167q-305 0 -305 307zM443 677q0 -131 198 -131q159 0 225 73q-164 301 -313 305q-38 -36 -74 -116.5t-36 -130.5z" />
<glyph unicode="&#x666;" horiz-adv-x="1279" d="M210 1091q0 57 54 241q216 -111 366 -111q48 0 134 20t130 20q8 -15 8 -33q0 -55 -21.5 -165t-21.5 -167q0 -321 206 -566q2 -8 2 -22q0 -43 -35 -165q-42 -133 -67 -133q-79 0 -167 220q-81 196 -81 290v279q0 25 11 94q-143 -12 -192 -12q-326 0 -326 210z" />
<glyph unicode="&#x667;" horiz-adv-x="1279" d="M122 1029q0 34 54 151t79 141q96 -35 244 -368q94 -224 184 -449q84 223 167 445q102 259 251 403h20q42 -124 36 -221l-3 -47q-262 -382 -399 -869q-60 -205 -101 -205q-38 0 -110 208q-41 134 -86 265q-78 202 -208 386q-4 7 -71 84q-57 71 -57 76z" />
<glyph unicode="&#x668;" horiz-adv-x="1279" d="M131 284q138 132 249 395q42 103 150 455q60 187 102 187q43 0 115 -208q44 -133 92.5 -267t132.5 -271q7 -12 95 -137q81 -116 81 -122q0 -32 -53.5 -163t-75.5 -131q-105 0 -415 806l-9 -6q-85 -230 -169 -456q-137 -318 -253 -385q-28 38 -37 146q-3 77 -5 157z" />
<glyph unicode="&#x669;" horiz-adv-x="1279" d="M230 867q0 145 121 350q134 230 267 230q131 0 194 -191q38 -116 66 -396q27 -268 56 -340q5 -16 60.5 -121.5t55.5 -112.5q0 -49 -31 -158t-59 -161h-21q-104 100 -167 298q-5 12 -85 340q-457 -5 -457 262zM460 1012q120 -80 203 -78q-18 57 -33 112q-33 79 -71 79 q-60 0 -99 -113z" />
<glyph unicode="&#x66a;" horiz-adv-x="1024" d="M51 1099q-1 13 7 23l103 127q8 10 21 11t24 -7l126 -102q10 -8 11.5 -21.5t-7.5 -23.5l-102 -127q-8 -10 -21.5 -11t-23.5 7l-126 102q-11 9 -12 22zM254 -162l306 1583l216 186l-324 -1607zM706 288q-1 13 7 23l103 127q8 10 21 11t24 -7l126 -102q10 -8 11.5 -21.5 t-7.5 -23.5l-102 -127q-8 -10 -21.5 -11t-23.5 7l-126 102q-11 9 -12 22z" />
<glyph unicode="&#x66d;" horiz-adv-x="815" d="M71 1074v68l214 18l-139 162l47 49l164 -139l17 213h68l17 -213l163 139l49 -49l-140 -162l214 -18v-68l-214 -17l140 -163l-49 -48l-163 139l-17 -214h-68l-17 214l-164 -139l-47 48l139 163z" />
<glyph unicode="&#x6f9;" horiz-adv-x="1033" d="M93 175v934h934v-934h-934zM223 304h675v675h-675v-675z" />
<glyph unicode="&#x2000;" horiz-adv-x="1067" />
<glyph unicode="&#x2001;" horiz-adv-x="2134" />
<glyph unicode="&#x2002;" horiz-adv-x="1067" />
<glyph unicode="&#x2003;" horiz-adv-x="2134" />
<glyph unicode="&#x2004;" horiz-adv-x="711" />
<glyph unicode="&#x2005;" horiz-adv-x="533" />
<glyph unicode="&#x2006;" horiz-adv-x="355" />
<glyph unicode="&#x2007;" horiz-adv-x="355" />
<glyph unicode="&#x2008;" horiz-adv-x="266" />
<glyph unicode="&#x2009;" horiz-adv-x="426" />
<glyph unicode="&#x200a;" horiz-adv-x="118" />
<glyph unicode="&#x200c;" horiz-adv-x="45" d="M10 -80v1631h25v-1631h-25z" />
<glyph unicode="&#x200d;" horiz-adv-x="45" d="M-102 1427l109 109l-109 108l16 16l109 -108l109 108l16 -16l-109 -108l109 -109l-16 -16l-97 96v-1587h-25v1586l-96 -95z" />
<glyph unicode="&#x200e;" horiz-adv-x="45" d="M8 -80v1631h234l-93 93l17 17l125 -124q-32 -33 -62.5 -63.5l-62.5 -62.5l-17 17l97 97h-213v-1605h-25z" />
<glyph unicode="&#x200f;" horiz-adv-x="45" d="M-246 1537l125 124l17 -17l-93 -93h234v-1631h-25v1605h-213l97 -97l-17 -17q-32 32 -62.5 63t-62.5 63z" />
<glyph unicode="&#x2010;" horiz-adv-x="684" d="M67 514l69 254l476 -2l-69 -254z" />
<glyph unicode="&#x2011;" horiz-adv-x="684" d="M67 514l69 254l476 -2l-69 -254z" />
<glyph unicode="&#x2012;" horiz-adv-x="684" d="M67 514l69 254l476 -2l-69 -254z" />
<glyph unicode="&#x2013;" d="M0 477v199h1024v-199h-1024z" />
<glyph unicode="&#x2014;" horiz-adv-x="1843" d="M0 477v199h1843v-199h-1843z" />
<glyph unicode="&#x2018;" horiz-adv-x="351" d="M72 1284l152 -91l86 -425h-86q-12 20 -38.5 71.5t-52.5 122.5t-44.5 154.5t-16.5 167.5z" />
<glyph unicode="&#x2019;" horiz-adv-x="363" d="M66 768l86 425l152 91q-5 -101 -27.5 -190t-48 -157.5t-48 -112.5t-28.5 -56h-86z" />
<glyph unicode="&#x201a;" horiz-adv-x="512" d="M127 60v117v117h129h129v-175q0 -138 -61.5 -217.5t-190.5 -106.5v93q82 25 111 75q19 34 25 97h-65h-77z" />
<glyph unicode="&#x201c;" horiz-adv-x="668" d="M78 1374l178 -107l100 -499h-100q-10 15 -27.5 48t-37.5 78.5t-41 101.5t-37.5 118t-26.5 128t-8 132zM321 1374l178 -107l101 -499h-101q-5 9 -19 35.5t-32 67.5t-39 95t-39 118.5t-31.5 137.5t-17.5 152z" />
<glyph unicode="&#x201d;" horiz-adv-x="668" d="M72 768l101 499l178 107q-4 -79 -17.5 -152t-31.5 -137.5t-39 -118.5t-39 -95t-32 -67.5t-19 -35.5h-101zM316 768l100 499l178 107q2 -66 -8 -132t-26.5 -128t-37.5 -118t-41 -101.5t-37.5 -78t-27.5 -48.5h-100z" />
<glyph unicode="&#x2022;" horiz-adv-x="854" d="M108 531q0 74 28.5 139.5t77.5 114.5t115 77.5t141 28.5t140.5 -28.5t114 -77.5t77 -114.5t28.5 -139.5q0 -75 -28.5 -140.5t-77 -114.5t-114 -77.5t-140.5 -28.5t-141 28.5t-115 77.5t-77.5 114.5t-28.5 140.5z" />
<glyph unicode="&#x202f;" horiz-adv-x="426" />
<glyph unicode="&#x205f;" horiz-adv-x="533" />
<glyph unicode="&#x2122;" horiz-adv-x="1484" d="M212 1366v52h381v-52h-151v-404h-78v404h-152zM716 962v456h117l140 -354q31 84 64.5 177t64.5 177h119v-456h-69v385l-16 3q-36 -98 -72 -194.5t-73 -193.5h-37l-154 389l-15 -3v-386h-69z" />
<glyph unicode="&#xe000;" horiz-adv-x="1040" d="M0 0v1040h1040v-1040h-1040z" />
<glyph unicode="&#xe820;" horiz-adv-x="408" d="M61 1032l17 91l340 193l-17 -91z" />
<glyph unicode="&#xe821;" horiz-adv-x="414" d="M-7 1047q61 25 105.5 43t79 36t62.5 39.5t56 54.5q-47 11 -69 34t-25.5 51t9 57.5t34 53.5t49.5 38.5t56 13.5q16 -1 25 -12.5t12.5 -29t2.5 -39t-3.5 -41.5t-6.5 -36.5t-7 -24.5l44 -13l-19 -80l-52 12q-11 -23 -37.5 -52.5t-62.5 -55t-78.5 -42.5t-85.5 -15 q-29 2 -47.5 3t-28.5 2t-12.5 1.5t-0.5 1.5zM259 1358q-2 -25 20 -37t51 -23q2 20 2 38q0 15 -2 28.5t-9 18.5v-2q-5 6 -12 8t-12 2q-17 2 -27 -8.5t-11 -24.5z" />
<glyph unicode="&#xe822;" horiz-adv-x="328" d="M56 1109q-5 33 3.5 75.5t27 81.5t46 67t59.5 33q28 4 54 -6.5t46.5 -28.5t34.5 -40.5t17 -41.5q5 -34 -10 -71.5t-41 -87.5v1q0 1 1 2l-3 -5q-24 -14 -61.5 -26.5t-74 -15t-65 11t-34.5 51.5zM120 1196q3 -22 21 -32.5t42 -11t50 6.5t46 21l1 1q-3 14 -13.5 30t-25 29.5 t-31.5 22t-35 5.5q-30 -5 -44 -27t-11 -45zM291 1088l1 1q0 -1 -1 -1zM292 1089l1 1q0 -1 -1 -1z" />
<glyph unicode="&#xe823;" horiz-adv-x="408" d="M51 1029l17 91l340 193l-17 -91zM65 1196l17 91l340 193l-17 -91z" />
<glyph unicode="&#xe824;" horiz-adv-x="469" d="M44 1194q19 27 44.5 43.5t50.5 22t47 -1t34 -24.5t10.5 -48t-23.5 -72q46 20 85.5 44t71.5 62q-41 10 -60.5 31.5t-22 47.5t8 53t30 49.5t44 36t49.5 12.5q21 -2 28 -24.5t6.5 -51t-6 -55.5t-8.5 -37l38 -12l-17 -76l-46 13q-6 -14 -19.5 -33.5t-32 -40t-40.5 -39.5 t-45.5 -31t-47.5 -15t-46 8t-24 31.5t3 42t10.5 42t-2 32t-34.5 10.5t-86 -20zM333 1348q-2 -11 3 -19t14 -14t20.5 -11.5t24.5 -11.5q2 19 2 35q0 14 -2.5 26.5t-7.5 16.5v-2q-10 10 -23 10q-14 1 -22.5 -8.5t-8.5 -21.5z" />
<glyph unicode="&#xe825;" horiz-adv-x="425" d="M57.5 1144.5q-1.5 27.5 2 53.5t10.5 47.5t14 31.5q0 -3 5 1t11.5 9t11.5 8.5t5 0.5q-8 -20 -13.5 -46.5t-3 -50t14 -39.5t37.5 -15q29 0 44.5 16t23.5 37.5t12.5 44.5t12.5 38q1 -3 5 0t9 7.5t9.5 8t5.5 0.5q-8 -29 -2.5 -54t19.5 -40t35.5 -18t46.5 14q6 9 5.5 22 t-4.5 26.5t-11 27t-14 23.5q13 18 24.5 34t22.5 32q11 -17 17.5 -36t11.5 -38q6 -33 3 -67t-15 -62t-33 -45.5t-51 -17.5q-25 0 -37.5 9t-27.5 23q-6 -10 -15 -23t-22 -25t-31 -21t-40 -11q-35 -3 -56 10t-31 35t-11.5 49.5z" />
<glyph unicode="&#xe826;" horiz-adv-x="408" d="M55 -341l17 91l340 193l-17 -91z" />
<glyph unicode="&#xe827;" horiz-adv-x="408" d="M38 -509l17 91l340 193l-17 -91zM65 -341l17 91l340 193l-17 -91z" />
<glyph unicode="&#xe828;" horiz-adv-x="425" d="M60 1259l17 91l340 193l-17 -91zM65 1140q0 21 4.5 39.5t9.5 29.5q0 -3 4.5 1.5t9.5 10.5t10 10.5t5 1.5q-5 -21 -7 -40t2 -32.5t17 -19t38 -0.5q28 5 41 23t17.5 40.5t5.5 46t6 39.5q1 -3 4.5 1t7.5 9t8 9.5t6 1.5q-3 -30 6.5 -54t26 -36.5t38 -11.5t42.5 21q4 10 2 23 t-8.5 25.5t-15.5 24.5t-18 21q5 10 14.5 15.5t20 10t20 9.5t15.5 13q5 -8 5.5 -12.5t-0.5 -8.5t-1.5 -8.5t3.5 -13.5q12 -32 14.5 -66t-5 -63.5t-25.5 -50.5t-47 -26q-25 -4 -39 3t-31 18q-4 -11 -10.5 -25.5t-18 -28.5t-27 -25.5t-37.5 -16.5q-34 -9 -56 -3.5t-35 20 t-17.5 35t-4.5 40.5z" />
<glyph unicode="&#xe829;" horiz-adv-x="425" d="M11 1347q60 20 103 34t77 28t61.5 31t54.5 43q-46 8 -67.5 26.5t-25 40.5t8.5 45t33 42t48.5 30.5t55.5 10.5q23 -1 31 -20t7.5 -43.5t-6.5 -47.5t-10 -33l43 -10l-19 -63l-50 10q-11 -18 -37 -41t-61.5 -43.5t-76.5 -34t-83 -11.5q-57 4 -75 4q-17 0 -12 2zM72.5 1188.5 q-0.5 26.5 3.5 48.5t9 33q0 -3 5 1.5t10.5 10.5t10 10t4.5 1q-5 -21 -6.5 -47.5t4 -49.5t19.5 -37.5t40 -9.5q28 5 41 23t18 40.5t6.5 45.5t6.5 39q1 -3 4.5 1t8 9t8 9.5t5.5 1.5q-3 -30 6 -54t25.5 -37t38 -12.5t43.5 20.5q4 10 2 23t-8.5 26t-15 25t-17.5 21 q11 20 19.5 37.5t17.5 34.5q13 -15 22.5 -33t17.5 -36q11 -32 13 -66t-6 -63.5t-26.5 -50t-47.5 -24.5q-25 -4 -38.5 3t-30.5 19q-4 -11 -11 -25t-18.5 -28t-27.5 -25.5t-38 -16.5q-34 -8 -56.5 1.5t-36 29.5t-19 47.5t-6 54zM271 1592q-2 -20 19 -29.5t50 -17.5q2 16 2 30 q0 11 -2 22t-9 14v-1q-5 5 -11.5 6.5t-11.5 1.5q-17 1 -26.5 -7t-10.5 -19z" />
<glyph unicode="&#xe82a;" horiz-adv-x="425" d="M70 1154q0 29 22 101l23 4q0 -111 39 -111q29 0 57.5 48t32.5 114l19 6q24 -98 61 -98q24 0 44 42.5t20 104.5l22 11q15 -51 15 -99q0 -76 -29.5 -121t-75.5 -45q-21 0 -64 21q-38 -87 -108 -87q-78 0 -78 109zM74 1283q0 45 12 65q12 17 54 42l272 160q0 -47 -8 -64.5 t-41 -36.5zM74 1433q0 45 12 65t54 44l272 159q0 -47 -8 -65t-41 -37z" />
<glyph unicode="&#xe82b;" horiz-adv-x="468" d="M40 1475q20 23 46.5 37.5t53 18.5t49.5 -1.5t35.5 -20.5t11 -40.5t-24.5 -61.5q48 17 89.5 38t75.5 53q-43 9 -63 27t-23.5 40t8 45t31.5 41.5t46 30t52 10.5q22 -2 29.5 -21t7 -43t-6 -46.5t-9.5 -31.5l40 -10l-18 -65l-48 11q-7 -12 -21 -28.5t-33 -34t-42 -33t-48 -26 t-50 -13t-48 6.5q-23 10 -25 27t3 36t11 36t-2 26.5t-36 9t-91 -17.5zM84.5 1190.5q-0.5 26.5 3.5 48.5t9 33q0 -3 5 1.5t10.5 10.5t10 10t4.5 1q-5 -21 -6.5 -47.5t4 -49.5t19.5 -37.5t40 -9.5q28 5 41 23t18 40.5t6.5 45.5t6.5 39q1 -3 4.5 1t8 9t8 9.5t5.5 1.5 q-3 -30 6 -54t25.5 -37t38 -12.5t43.5 20.5q4 10 2 23t-8.5 26t-15 25t-17.5 21q11 20 19.5 37.5t17.5 34.5q13 -15 22.5 -33t17.5 -36q11 -32 13 -66t-6 -63.5t-26.5 -50t-47.5 -24.5q-25 -4 -38.5 3t-30.5 19q-4 -11 -11 -25t-18.5 -28t-27.5 -25.5t-38 -16.5 q-34 -8 -56.5 1.5t-36 29.5t-19 47.5t-6 54zM343 1606q-2 -10 3.5 -16.5t14.5 -11.5t21.5 -9.5t25.5 -9.5q2 17 2 30q0 11 -2 21.5t-8 14.5v-2q-5 5 -12 6.5t-12 1.5q-14 1 -23.5 -7t-9.5 -18z" />
<glyph unicode="&#xe82c;" horiz-adv-x="425" d="M61.5 1400.5q0.5 26.5 4.5 49t10 32.5q0 -3 4.5 1.5l10.5 10.5t10.5 10t4.5 1q-6 -21 -8 -48t3 -50t18.5 -37.5t39.5 -10.5q29 4 42.5 21t19 39.5t7 46t7.5 39.5q1 -3 5 0.5t8.5 9t8 9.5t5.5 1q-4 -29 4 -53.5t24 -38t37 -13.5q22 0 45 20q5 10 3 22.5t-8 25.5 t-14.5 25.5t-16.5 21.5q11 20 20 37t19 34q12 -15 21.5 -33.5t16.5 -36.5q10 -32 11 -66t-7.5 -63t-27.5 -49t-48 -24q-25 -3 -38.5 4t-30.5 20q-4 -11 -11.5 -25t-19 -27.5t-28 -24.5t-38.5 -16q-34 -7 -56.5 3t-35 31t-17.5 48t-4.5 53.5zM72 1031l17 91l340 193l-17 -91z " />
<glyph unicode="&#xe82d;" horiz-adv-x="425" d="M35 1007l33 75l350 141l-33 -75zM45 1112l33 75l350 141l-33 -75zM60.5 1413.5q0.5 26.5 5 49t9.5 32.5q0 -3 4.5 1.5l10.5 10.5t10.5 10t4.5 1q-6 -21 -8 -48t3 -50t18.5 -37.5t39.5 -10.5q29 4 42.5 21t19 39.5t7 46t7.5 39.5q1 -3 5 0.5t8.5 9t8 9.5t5.5 1 q-4 -29 4 -53.5t24 -38t37 -13.5q22 0 45 20q5 10 3 22.5t-8 25.5t-14.5 25.5t-16.5 21.5q11 20 20 37t19 34q12 -15 21.5 -33.5t16.5 -36.5q10 -32 11 -66t-7.5 -63t-27.5 -49t-48 -24q-25 -3 -38.5 4t-30.5 20q-4 -11 -11.5 -25t-19 -27.5t-28 -24.5t-38.5 -16 q-34 -7 -56.5 3t-35 31t-17.5 48t-4.5 53.5z" />
<glyph unicode="&#xfd3e;" horiz-adv-x="614" d="M116 -305v1697h454v-177h-224v-1342h224v-178h-454z" />
<glyph unicode="&#xfd3f;" horiz-adv-x="614" d="M44 -127h223v1342h-223v177h454v-1697h-454v178z" />
<glyph unicode="&#xfeff;" horiz-adv-x="2789" d="M90 223v504h2611v-504h-2611zM161 1054q0 34 16.5 56.5t54.5 22.5q6 0 12 -0.5t13 -1.5q46 -5 92.5 -10t94.5 -5l80 179q8 37 25.5 64t46.5 27q10 0 19.5 -3.5t9.5 -17.5q0 -9 -8 -24.5t-17 -28.5l-97 -192q105 5 209 36t189 97q35 31 61.5 43.5t43.5 12.5q25 0 25 -21 q0 -19 -23 -47.5t-73 -54.5q-33 -34 -63 -72t-54 -82t-40 -96t-20 -115q0 -19 -15 -19q-12 0 -18 13.5t-6 45.5q0 73 22.5 140.5t56.5 124.5q-76 -25 -155 -36.5t-161 -11.5l-80 -160q-15 -31 -39 -54t-56 -23q-24 0 -50 18.5t-47 49t-35 68.5t-14 77zM200 1066 q0 -23 9.5 -52.5t25.5 -56t36 -45t40 -18.5q15 0 29 12t26 40l61 134q-108 3 -214 21q-13 -10 -13 -35zM879 873q0 7 2.5 15t6.5 17q18 40 49 76.5t68.5 64t77.5 44t76 16.5q27 0 48 -16t21 -52q0 -14 -9.5 -30.5t-27.5 -36.5q-20 -20 -35 -44.5t-15 -46.5q0 -15 9 -21.5 t23 -6.5q21 0 49.5 10t56.5 23t51.5 25.5t33.5 18.5q8 37 32.5 68.5t55.5 54.5t63.5 36.5t57.5 13.5q14 0 20 -5t6 -13q0 -10 -11 -20.5t-30 -12.5q-19 -7 -44 -19t-47.5 -30t-38 -41t-15.5 -52q0 -32 16.5 -45t42.5 -13t59 10t64.5 23.5t58 27.5t41.5 21q0 36 19 71 t48.5 62.5t66.5 44t73 16.5q22 0 36.5 -4.5t22 -11t10.5 -15t3 -15.5q0 -26 -29 -52t-67 -49t-74.5 -40.5t-52.5 -25.5q16 -23 41 -33.5t57 -10.5q30 0 64.5 8.5t70 23.5t70 35.5t64.5 43.5q19 14 38 32t40 33q4 3 13 8t19.5 10.5t21.5 9t20 3.5q15 0 15 -13q0 -5 -4 -16.5 t-10 -22.5q-16 -45 -25.5 -75t-11.5 -47q0 -5 6 -5q7 0 20 6.5t29.5 16t34 22t32.5 24.5q4 2 23 15t43 27.5t48 26.5t38 12q12 0 12 -12q-3 -29 -3 -57q0 -12 1 -24.5t4.5 -22t10 -15.5t17.5 -6q17 0 31 5.5t27 13.5t25.5 18t27.5 19l8 -21q-12 -9 -30 -25t-38.5 -31.5 t-42.5 -27t-42 -11.5q-15 0 -25 6t-15 15t-7 19t-2 19t1 18.5t1 17.5q0 11 -3.5 21t-14.5 10q-10 0 -27.5 -9.5t-38.5 -24t-45 -31t-48 -31t-46 -24.5t-40 -10q-11 2 -22 8t-11 19q0 23 4.5 44.5t18.5 62.5q0 1 -15.5 -10t-43 -28t-64 -37t-77 -37.5t-83 -29t-82.5 -11.5 q-41 0 -76.5 16.5t-49.5 46.5q-19 -8 -47.5 -22t-62 -27.5t-68.5 -23t-66 -9.5q-35 0 -61.5 16.5t-35.5 60.5q-21 -12 -45 -26t-49.5 -25.5t-50.5 -19.5t-49 -8q-31 0 -55.5 20.5t-43.5 65.5q-17 -12 -30 -20.5t-25.5 -15.5t-25.5 -12t-30 -11q-18 -6 -32 -6q-17 0 -33 11.5 t-16 33.5zM880 265h126v125h-126v-125zM928 880q41 0 77.5 16.5t68.5 42t59 57.5t50 63q-5 1 -10 1h-10q-36 0 -70.5 -17t-65 -43.5t-56 -58.5t-43.5 -61zM1103 265h91v320l318 -320h109v421h-91v-320l-313 320h-114v-421zM1709 265h430v76h-331v108h299v75h-299v87h322v75 h-421v-421zM1737 954q40 17 73.5 34t58.5 33t39 30t14 25q0 10 -8 15q-50 -5 -99 -38t-78 -99zM2202 609h183v-344h89v344h183v77h-455v-77z" />
</font>
</defs>
</svg>
