<?xml version="1.0" encoding="utf-8"?>
<!-- Generator: Adobe Illustrator 14.0.0, SVG Export Plug-In . SVG Version: 6.00 Build 43363)  -->
<!DOCTYPE svg PUBLIC "-//W3C//DTD SVG 1.1//EN" "http://www.w3.org/Graphics/SVG/1.1/DTD/svg11.dtd">
<svg version="1.1" id="Layer_1" xmlns="http://www.w3.org/2000/svg" xmlns:xlink="http://www.w3.org/1999/xlink" x="0px" y="0px"
	 width="28px" height="28px" viewBox="0 0 28 28" enable-background="new 0 0 28 28" xml:space="preserve">
<path d="M13.971,1.571c-7.031,0-12.734,5.702-12.734,12.74c0,5.621,3.636,10.392,8.717,12.083c0.637,0.129,0.869-0.277,0.869-0.615
	c0-0.301-0.012-1.102-0.018-2.164c-3.542,0.77-4.29-1.707-4.29-1.707c-0.579-1.473-1.414-1.863-1.414-1.863
	c-1.155-0.791,0.088-0.775,0.088-0.775c1.277,0.104,1.96,1.316,1.96,1.312c1.136,1.936,2.991,1.393,3.713,1.059
	c0.116-0.822,0.445-1.383,0.81-1.703c-2.829-0.32-5.802-1.414-5.802-6.293c0-1.391,0.496-2.527,1.312-3.418
	C7.05,9.905,6.612,8.61,7.305,6.856c0,0,1.069-0.342,3.508,1.306c1.016-0.282,2.105-0.424,3.188-0.429
	c1.081,0,2.166,0.155,3.197,0.438c2.431-1.648,3.498-1.306,3.498-1.306c0.695,1.754,0.258,3.043,0.129,3.371
	c0.816,0.902,1.315,2.037,1.315,3.43c0,4.892-2.978,5.968-5.814,6.285c0.458,0.387,0.876,1.16,0.876,2.357
	c0,1.703-0.016,3.076-0.016,3.482c0,0.334,0.232,0.748,0.877,0.611c5.056-1.688,8.701-6.457,8.701-12.082
	C26.708,7.262,21.012,1.563,13.971,1.571L13.971,1.571z"/>
</svg>
