<?xml version="1.0" encoding="utf-8"?>
<!-- Generator: Adobe Illustrator 14.0.0, SVG Export Plug-In . SVG Version: 6.00 Build 43363)  -->
<!DOCTYPE svg PUBLIC "-//W3C//DTD SVG 1.1//EN" "http://www.w3.org/Graphics/SVG/1.1/DTD/svg11.dtd">
<svg version="1.1" id="Layer_1" xmlns="http://www.w3.org/2000/svg" xmlns:xlink="http://www.w3.org/1999/xlink" x="0px" y="0px"
	 width="28px" height="28px" viewBox="0 0 28 28" enable-background="new 0 0 28 28" xml:space="preserve">
<path d="M4.066,0.636h19.867c1.887,0,3.431,1.543,3.431,3.431v19.867c0,1.888-1.544,3.431-3.431,3.431H4.066
	c-1.887,0-3.431-1.543-3.431-3.431V4.066C0.636,2.179,2.18,0.636,4.066,0.636L4.066,0.636z M20.107,3.605
	c-0.662,0-1.204,0.542-1.204,1.203v2.88c0,0.662,0.542,1.203,1.204,1.203h3.021c0.662,0,1.203-0.541,1.203-1.203v-2.88
	c0-0.662-0.541-1.203-1.203-1.203H20.107L20.107,3.605z M24.344,11.939h-2.353c0.223,0.727,0.343,1.496,0.343,2.293
	c0,4.446-3.72,8.05-8.308,8.05s-8.309-3.604-8.309-8.05c0-0.797,0.121-1.566,0.343-2.293H3.606v11.29
	c0,0.585,0.479,1.062,1.062,1.062h18.612c0.585,0,1.062-0.478,1.062-1.062V11.939L24.344,11.939z M14.025,8.741
	c-2.964,0-5.368,2.329-5.368,5.201c0,2.873,2.404,5.202,5.368,5.202c2.965,0,5.368-2.329,5.368-5.202
	C19.394,11.07,16.99,8.741,14.025,8.741z"/>
</svg>
