<?xml version="1.0" encoding="utf-8"?>
<!-- Generator: Adobe Illustrator 14.0.0, SVG Export Plug-In . SVG Version: 6.00 Build 43363)  -->
<!DOCTYPE svg PUBLIC "-//W3C//DTD SVG 1.1//EN" "http://www.w3.org/Graphics/SVG/1.1/DTD/svg11.dtd">
<svg version="1.1" id="Layer_1" xmlns="http://www.w3.org/2000/svg" xmlns:xlink="http://www.w3.org/1999/xlink" x="0px" y="0px"
	 width="28px" height="28px" viewBox="0 0 28 28" enable-background="new 0 0 28 28" xml:space="preserve">
<path d="M25.424,15.887v8.447h-4.896v-7.882c0-1.979-0.709-3.331-2.48-3.331c-1.354,0-2.158,0.911-2.514,1.803
	c-0.129,0.315-0.162,0.753-0.162,1.194v8.216h-4.899c0,0,0.066-13.349,0-14.731h4.899v2.088c-0.01,0.016-0.023,0.032-0.033,0.048
	h0.033V11.69c0.65-1.002,1.812-2.435,4.414-2.435C23.008,9.254,25.424,11.361,25.424,15.887z M5.348,2.501
	c-1.676,0-2.772,1.092-2.772,2.539c0,1.421,1.066,2.538,2.717,2.546h0.032c1.709,0,2.771-1.132,2.771-2.546
	C8.054,3.593,7.019,2.501,5.343,2.501H5.348z M2.867,24.334h4.897V9.603H2.867V24.334z"/>
</svg>
