<svg xmlns="http://www.w3.org/2000/svg" xmlns:xlink="http://www.w3.org/1999/xlink" version="1.1" x="0px" y="0px" width="28px" height="28px" viewBox="0 0 28 28" enable-background="new 0 0 28 28" xml:space="preserve"><g><path d="M11.794 15.316c0-1.029-0.835-1.895-1.866-1.895c-1.03 0-1.893 0.865-1.893 1.895s0.863 1.9 1.9 1.9 C10.958 17.2 11.8 16.3 11.8 15.316z"/><path d="M18.1 13.422c-1.029 0-1.895 0.864-1.895 1.895c0 1 0.9 1.9 1.9 1.865c1.031 0 1.869-0.836 1.869-1.865 C19.969 14.3 19.1 13.4 18.1 13.422z"/><path d="M17.527 19.791c-0.678 0.678-1.826 1.006-3.514 1.006c-0.004 0-0.009 0-0.014 0c-0.004 0-0.01 0-0.015 0 c-1.686 0-2.834-0.328-3.51-1.005c-0.264-0.265-0.693-0.265-0.958 0c-0.264 0.265-0.264 0.7 0 1 c0.943 0.9 2.4 1.4 4.5 1.402c0.005 0 0 0 0 0c0.005 0 0 0 0 0c2.066 0 3.527-0.459 4.47-1.402 c0.265-0.264 0.265-0.693 0.002-0.958C18.221 19.5 17.8 19.5 17.5 19.791z"/><path d="M27.707 13.267c0-1.785-1.453-3.237-3.236-3.237c-0.793 0-1.518 0.287-2.082 0.761c-2.039-1.295-4.646-2.069-7.438-2.219 l1.483-4.691l4.062 0.956c0.071 1.4 1.3 2.6 2.7 2.555c1.488 0 2.695-1.208 2.695-2.695C25.881 3.2 24.7 2 23.2 2 c-1.059 0-1.979 0.616-2.42 1.508l-4.633-1.091c-0.344-0.081-0.693 0.118-0.803 0.455l-1.793 5.7 C10.548 8.6 7.7 9.4 5.6 10.75C5.006 10.3 4.3 10 3.5 10.029c-1.785 0-3.237 1.452-3.237 3.2 c0 1.1 0.6 2.1 1.4 2.69c-0.04 0.272-0.061 0.551-0.061 0.831c0 2.3 1.3 4.4 3.7 5.9 c2.299 1.5 5.3 2.3 8.6 2.325c3.228 0 6.271-0.825 8.571-2.325c2.387-1.56 3.7-3.66 3.7-5.917 c0-0.26-0.016-0.514-0.051-0.768C27.088 15.5 27.7 14.4 27.7 13.267z M23.186 3.355c0.74 0 1.3 0.6 1.3 1.3 c0 0.738-0.6 1.34-1.34 1.34s-1.342-0.602-1.342-1.34C21.844 4 22.4 3.4 23.2 3.355z M1.648 13.3 c0-1.038 0.844-1.882 1.882-1.882c0.31 0 0.6 0.1 0.9 0.209c-1.049 0.868-1.813 1.861-2.26 2.9 C1.832 14.2 1.6 13.8 1.6 13.267z M21.773 21.57c-2.082 1.357-4.863 2.105-7.831 2.105c-2.967 0-5.747-0.748-7.828-2.105 c-1.991-1.301-3.088-3-3.088-4.782c0-1.784 1.097-3.484 3.088-4.784c2.081-1.358 4.861-2.106 7.828-2.106 c2.967 0 5.7 0.7 7.8 2.106c1.99 1.3 3.1 3 3.1 4.784C24.859 18.6 23.8 20.3 21.8 21.57z M25.787 14.6 c-0.432-1.084-1.191-2.095-2.244-2.977c0.273-0.156 0.59-0.245 0.928-0.245c1.035 0 1.9 0.8 1.9 1.9 C26.354 13.8 26.1 14.3 25.8 14.605z"/></g></svg>