<svg version="1.1" xmlns="http://www.w3.org/2000/svg" data-icon="account" width="128" height="128" class="iconic iconic-account" viewBox="0 0 128 128">
  <g><title>Sign In &amp; Out</title></g>
  <g data-width="128" data-height="128" class="iconic-lg iconic-container" display="inline">
    <g class="iconic-account-login">
      <path stroke="#000" stroke-width="8" stroke-linecap="square" stroke-miterlimit="10" class="iconic-account-login-entrance iconic-property-accent iconic-property-stroke" d="M46 4h78v120h-78" fill="none"/>
      <path stroke="#000" stroke-width="8" stroke-linecap="square" stroke-miterlimit="10" class="iconic-account-login-arrow iconic-account-login-arrow-line iconic-property-stroke" d="M4 64h76" fill="none"/>
      <path d="M90.7 63.2l-21.4-12.4c-.7-.4-1.3-.1-1.3.7v25c0 .8.6 1.2 1.3.7l21.4-12.5c.7-.4.7-1 0-1.5z" class="iconic-account-login-arrow iconic-account-login-arrow-head iconic-property-fill"/>
    </g>
    <g class="iconic-account-logout" display="none">
      <path stroke="#000" stroke-width="8" stroke-linecap="square" stroke-miterlimit="10" class="iconic-account-logout-entrance iconic-property-accent iconic-property-stroke" d="M46 4h78v120h-78" fill="none"/>
      <path stroke="#000" stroke-width="8" stroke-linecap="square" stroke-miterlimit="10" class="iconic-account-logout-arrow iconic-account-logout-arrow-line iconic-property-stroke" d="M88 64h-76" fill="none"/>
      <path d="M1.3 64.8l21.4 12.5c.7.4 1.3.1 1.3-.7v-25c0-.8-.6-1.2-1.3-.7l-21.4 12.3c-.7.5-.7 1.1 0 1.6z" class="iconic-account-logout-arrow iconic-account-logout-arrow-head iconic-property-fill"/>
    </g>
  </g>
  <g data-width="32" data-height="31" class="iconic-md iconic-container" display="none" transform="scale(4)">
    <g class="iconic-account-login">
      <path stroke="#000" stroke-width="3" stroke-linecap="square" stroke-miterlimit="10" class="iconic-account-login-entrance iconic-property-accent iconic-property-stroke" d="M12.5 1.5h18v28h-18" fill="none"/>
      <path stroke="#000" stroke-width="3" stroke-linecap="square" stroke-miterlimit="10" class="iconic-account-login-arrow iconic-account-login-arrow-line iconic-property-stroke" d="M1.5 15.5h14.5" fill="none"/>
      <path d="M20.6 15.8l-5.2 3.9c-.2.2-.4.1-.4-.2v-8c0-.3.2-.4.4-.2l5.2 3.9c.2.2.2.4 0 .6z" class="iconic-account-login-arrow iconic-account-login-arrow-head iconic-property-fill"/>
      </g>
      <g class="iconic-account-logout" display="none">
        <path stroke="#000" stroke-width="3" stroke-linecap="square" stroke-miterlimit="10" class="iconic-account-logout-entrance iconic-property-accent iconic-property-stroke" d="M12.5 1.5h18v28h-18" fill="none"/>
        <path stroke="#000" stroke-width="3" stroke-linecap="square" stroke-miterlimit="10" class="iconic-account-logout-arrow iconic-account-logout-arrow-line iconic-property-stroke" d="M19.5 15.5h-14.5" fill="none"/>
        <path d="M.4 15.2l5.2-3.9c.2-.2.4-.1.4.2v8c0 .3-.2.4-.4.2l-5.2-3.9c-.2-.2-.2-.4 0-.6z" class="iconic-account-logout-arrow iconic-account-logout-arrow-head iconic-property-fill"/>
      </g>
  </g>
  <g data-width="16" data-height="16" class="iconic-sm iconic-container" display="none" transform="scale(8)">
    <g class="iconic-account-login">
      <path stroke="#000" stroke-width="2" stroke-linecap="square" stroke-miterlimit="10" class="iconic-account-login-entrance iconic-property-accent iconic-property-stroke" d="M7 1h8v14h-8" fill="none"/>
      <path stroke="#000" stroke-width="2" stroke-linecap="square" stroke-miterlimit="10" class="iconic-account-login-arrow iconic-account-login-arrow-line iconic-property-stroke" d="M1 8h9" fill="none"/>
      <path class="iconic-account-login-arrow iconic-account-login-arrow-head iconic-property-fill" d="M12 8l-4-4v8z"/>
    </g>
    <g class="iconic-account-logout" display="none">
      <path stroke="#000" stroke-width="2" stroke-linecap="square" stroke-miterlimit="10" class="iconic-account-logout-entrance iconic-property-accent iconic-property-stroke" d="M7 1h8v14h-8" fill="none"/>
      <path stroke="#000" stroke-width="2" stroke-linecap="square" stroke-miterlimit="10" class="iconic-account-logout-arrow iconic-account-logout-arrow-line iconic-property-stroke" d="M11 8h-9" fill="none"/>
      <path class="iconic-account-logout-arrow iconic-account-logout-arrow-head iconic-property-fill" d="M0 8l4 4v-8z"/>
    </g>
  </g>
<script class="iconic-api" type="application/ecmascript">
//<![CDATA[
var iconicApis=window._Iconic?window._Iconic.smartIconApis:{};iconicApis["account"]=iconicApis["account"]||function(t){var i=function(i){t.setAttribute("data-state",i);var e,n=t.querySelectorAll(".iconic-account-login"),o=t.querySelectorAll(".iconic-account-logout");if("logout"===i){for(e=0;e<n.length;e++)n[e].setAttribute("display","none");for(e=0;e<o.length;e++)o[e].setAttribute("display","inline")}else{for(e=0;e<n.length;e++)n[e].setAttribute("display","inline");for(e=0;e<o.length;e++)o[e].setAttribute("display","none")}},e=function(){var e=t.getAttribute("data-state");e&&i(e)};return{update:e,setState:i}};
//]]>
</script>
</svg>
