<?xml version="1.0" standalone="no"?>
<!DOCTYPE svg PUBLIC "-//W3C//DTD SVG 1.1//EN" "http://www.w3.org/Graphics/SVG/1.1/DTD/svg11.dtd" >
<svg xmlns="http://www.w3.org/2000/svg">
<metadata>Syncfusion</metadata>
<defs>
<font id="ejmmobilefonts" horiz-adv-x="1024">
<font-face units-per-em="1024" ascent="960" descent="-64" />
<missing-glyph horiz-adv-x="1024" />
<glyph unicode="&#x20;" horiz-adv-x="512" d="" />
<glyph unicode="&#xe900;" glyph-name="Icon_24-7Support" d="M480 838.4h64v-121.6h-64v121.6zM153.6 508.8h118.4v-64h-118.4v64zM512 960c-265.6 0-480-217.6-480-483.2 0-185.6 102.4-348.8 265.6-432l28.8 57.6c-144 70.4-230.4 214.4-230.4 374.4 0 230.4 185.6 419.2 416 419.2s416-188.8 416-419.2h64c0 265.6-214.4 483.2-480 483.2z" />
<glyph unicode="&#xe901;" glyph-name="Icon_Agreement" d="M96 896h668.8v-256h64v256c0 35.2-28.8 64-64 64h-668.8c-35.2 0-64-28.8-64-64v-896c0-35.2 28.8-64 64-64h416v64h-416v896zM160 800h256v-64h-256v64zM160 672h384v-64h-384v64zM160 544h384v-64h-384v64zM160 320h256v-64h-256v64zM160 192h384v-64h-384v64zM960 368c0 115.2-92.8 208-208 208s-208-92.8-208-208c0-57.6 25.6-112 64-150.4v-281.6h64l80 80 80-80h64v281.6c38.4 38.4 64 92.8 64 150.4zM832 25.6l-60.8 60.8-22.4 19.2-76.8-76.8v147.2c25.6-9.6 51.2-16 80-16s54.4 6.4 80 16v-150.4zM752 224c-80 0-144 64-144 144s64 144 144 144c80 0 144-64 144-144s-64-144-144-144z" />
<glyph unicode="&#xe902;" glyph-name="Icon_Archive" d="M1024 960h-1024v-256h64v-768h896v768h64v256zM896 0h-768v704h768v-704zM960 768h-896v128h896v-128zM704 640h-384v-192h384v192zM640 512h-256v64h256v-64z" />
<glyph unicode="&#xe903;" glyph-name="Icon_AudioMixer" d="M160 764.8v195.2h-64v-195.2c-54.4-12.8-96-64-96-124.8s41.6-108.8 96-124.8v-579.2h64v579.2c54.4 12.8 96 64 96 124.8s-41.6 108.8-96 124.8zM128 576c-35.2 0-64 28.8-64 64s28.8 64 64 64 64-28.8 64-64c0-35.2-28.8-64-64-64zM544 572.8v387.2h-64v-387.2c-54.4-12.8-96-64-96-124.8s41.6-108.8 96-124.8v-387.2h64v387.2c54.4 12.8 96 64 96 124.8s-41.6 108.8-96 124.8zM512 384c-35.2 0-64 28.8-64 64s28.8 64 64 64 64-28.8 64-64c0-35.2-28.8-64-64-64zM1024 288c0 60.8-41.6 108.8-96 124.8v547.2h-64v-547.2c-54.4-12.8-96-64-96-124.8s41.6-108.8 96-124.8v-227.2h64v227.2c54.4 16 96 64 96 124.8zM896 224c-35.2 0-64 28.8-64 64s28.8 64 64 64 64-28.8 64-64c0-35.2-28.8-64-64-64z" />
<glyph unicode="&#xe904;" glyph-name="Icon_Battery" d="M736-64h-448c-35.2 0-64 28.8-64 64v800c0 35.2 28.8 64 64 64h448c35.2 0 64-28.8 64-64v-800c0-35.2-28.8-64-64-64zM288 800v-800h448v800h-448zM416 960h192v-64h-192v64zM352 160h320v-64h-320v64zM352 288h320v-64h-320v64zM352 416h320v-64h-320v64zM352 544h320v-64h-320v64z" />
<glyph unicode="&#xe905;" glyph-name="Icon_Bell" d="M851.2 320c-54.4 108.8-108.8 224-115.2 313.6-6.4 96-57.6 176-131.2 208 0 6.4 3.2 16 3.2 25.6 0 51.2-44.8 92.8-96 92.8-54.4 0-96-41.6-96-89.6 0-9.6 3.2-19.2 6.4-25.6-73.6-35.2-124.8-108.8-134.4-198.4-12.8-144-64-233.6-105.6-313.6l-3.2-9.6c-22.4-38.4-22.4-89.6 0-128 22.4-41.6 64-67.2 105.6-67.2h73.6c-3.2-12.8-6.4-25.6-6.4-38.4 0-86.4 70.4-153.6 160-153.6s160 67.2 160 153.6c0 12.8-3.2 25.6-6.4 38.4h73.6c41.6 0 83.2 25.6 105.6 67.2 22.4 38.4 25.6 86.4 6.4 124.8zM512 896c19.2 0 32-16 32-28.8 0 0 0-3.2 0-3.2h-60.8c0 3.2 0 3.2-3.2 6.4 0 12.8 12.8 25.6 32 25.6zM608 89.6c0-51.2-41.6-89.6-96-89.6s-96 38.4-96 89.6c0 12.8 3.2 25.6 9.6 38.4h172.8c6.4-12.8 9.6-25.6 9.6-38.4zM790.4 224c-12.8-19.2-28.8-32-51.2-32h-457.6c-19.2 0-38.4 12.8-51.2 35.2-12.8 19.2-9.6 48 0 67.2l3.2 9.6c48 80 102.4 179.2 118.4 336 9.6 89.6 76.8 160 156.8 160 3.2 0 6.4 0 9.6 0 12.8 0 25.6-3.2 38.4-6.4 64-19.2 108.8-83.2 115.2-163.2 6.4-102.4 64-220.8 121.6-336 9.6-22.4 9.6-48-3.2-70.4z" />
<glyph unicode="&#xe906;" glyph-name="Icon_BiometricReader1" d="M208 704c19.2 0 32 12.8 32 32v19.2c0 76.8 64 140.8 144 140.8s144-64 144-140.8v-19.2c0-19.2 12.8-32 32-32s32 12.8 32 32v19.2c0 112-92.8 204.8-208 204.8s-208-92.8-208-204.8v-19.2c0-16 12.8-32 32-32zM768 640c-16 0-35.2-6.4-48-12.8-16 25.6-48 44.8-80 44.8-16 0-35.2-6.4-48-12.8-16 25.6-48 44.8-80 44.8-12.8 0-22.4-3.2-32-6.4v57.6c0 51.2-41.6 92.8-96 92.8s-96-41.6-96-92.8v-236.8c-12.8 6.4-25.6 9.6-38.4 9.6-48 0-89.6-35.2-89.6-80v-224l134.4-166.4c6.4-6.4 16-12.8 25.6-12.8 6.4 0 12.8 3.2 19.2 6.4 12.8 12.8 16 32 3.2 44.8l-118.4 150.4v201.6c0 9.6 9.6 16 25.6 16s25.6-9.6 25.6-16v-105.6c0-16 12.8-28.8 28.8-32 3.2-3.2 9.6-3.2 16-3.2 19.2 0 32 12.8 32 32v416c0 16 12.8 28.8 32 28.8s32-12.8 32-28.8v-275.2c0-19.2 12.8-32 32-32s32 12.8 32 32v121.6c0 22.4 12.8 38.4 32 38.4s32-16 32-38.4v-121.6c0-19.2 12.8-32 32-32s32 12.8 32 32v89.6c0 22.4 12.8 38.4 32 38.4s32-16 32-38.4v-89.6c0-19.2 12.8-32 32-32s32 12.8 32 32v0 57.6c0 22.4 12.8 38.4 32 38.4s32-16 32-38.4v-371.2l-60.8-188.8c-6.4-16 3.2-35.2 19.2-41.6 3.2 0 6.4-3.2 9.6-3.2 12.8 0 25.6 9.6 28.8 22.4l67.2 198.4v384c0 57.6-41.6 102.4-96 102.4z" />
<glyph unicode="&#xe907;" glyph-name="Icon_BLog" d="M944 364.8l-150.4 153.6-390.4-380.8-35.2-201.6 192 51.2 384 377.6zM860.8 364.8l-35.2-35.2-67.2 67.2 35.2 35.2 67.2-67.2zM713.6 358.4l67.2-67.2-224-220.8-70.4 67.2 227.2 220.8zM441.6 16l12.8 70.4 54.4-54.4-67.2-16zM140.8 115.2v598.4c22.4-16 48-22.4 76.8-22.4h512v-144h60.8v204.8h-572.8c-41.6 0-76.8 32-76.8 73.6s35.2 73.6 76.8 73.6h572.8v60.8h-572.8c-76.8 0-137.6-60.8-137.6-134.4 0-3.2 0-6.4 0-9.6v0-700.8c0-48 41.6-86.4 89.6-86.4h150.4v57.6h-150.4c-16 3.2-28.8 16-28.8 28.8z" />
<glyph unicode="&#xe908;" glyph-name="Icon_Blub" d="M512 960c-195.2 0-352-160-352-352 0-54.4 12.8-105.6 35.2-153.6 19.2-54.4 99.2-156.8 115.2-176 38.4-64 38.4-115.2 38.4-115.2l-3.2-35.2h332.8v32c0 0 0 51.2 38.4 115.2 9.6 12.8 80 102.4 105.6 156.8 28.8 51.2 44.8 112 44.8 172.8-3.2 195.2-160 355.2-355.2 355.2zM761.6 464c-25.6-54.4-99.2-147.2-99.2-147.2l-3.2-3.2c-28.8-48-41.6-92.8-44.8-118.4h-208c-3.2 28.8-16 70.4-44.8 118.4l-3.2 3.2c-25.6 32-92.8 118.4-105.6 160v3.2c-19.2 38.4-28.8 83.2-28.8 128 0 160 128 288 288 288s288-131.2 288-288c0-51.2-12.8-99.2-38.4-144zM640 96h-256c-19.2 0-32-12.8-32-32s12.8-32 32-32h256c19.2 0 32 12.8 32 32s-12.8 32-32 32zM608 0h-192c-19.2 0-32-12.8-32-32s12.8-32 32-32h192c19.2 0 32 12.8 32 32s-12.8 32-32 32z" />
<glyph unicode="&#xe909;" glyph-name="Icon_CDDisc" d="M960 960h-896l124.8-412.8-124.8-611.2h896l-124.8 611.2 124.8 412.8zM873.6 896l-96-320h-531.2l-96 320h723.2zM144 0l102.4 512h531.2l102.4-512h-736zM512 441.6c-112 0-201.6-89.6-201.6-198.4s89.6-198.4 201.6-198.4 201.6 89.6 201.6 198.4-89.6 198.4-201.6 198.4zM512 112c-76.8 0-137.6 60.8-137.6 134.4s60.8 134.4 137.6 134.4 137.6-60.8 137.6-134.4-60.8-134.4-137.6-134.4zM592 246.4c0-44.183-35.817-80-80-80s-80 35.817-80 80c0 44.183 35.817 80 80 80s80-35.817 80-80z" />
<glyph unicode="&#xe90a;" glyph-name="Icon_Certificate" d="M812.8 390.4c0 60.8-48 108.8-108.8 108.8s-108.8-48-108.8-108.8c0-44.8 28.8-83.2 67.2-102.4l-64-160 60.8-22.4 48 121.6 48-121.6 60.8 22.4-64 160c32 19.2 60.8 57.6 60.8 102.4zM704 345.6c-25.6 0-44.8 19.2-44.8 44.8s19.2 44.8 44.8 44.8c25.6 0 44.8-19.2 44.8-44.8s-19.2-44.8-44.8-44.8zM64 960v-1024h896v1024h-896zM896 0h-768v896h768v-896zM192 800h640v-64h-640v64zM192 672h640v-64h-640v64zM192 512h320v-64h-320v64zM192 352h320v-64h-320v64zM192 192h320v-64h-320v64z" />
<glyph unicode="&#xe90b;" glyph-name="Icon_Clipboard1" d="M832 864h-96c-3.2 19.2-16 32-35.2 32h-60.8v28.8c0 9.6-3.2 19.2-9.6 25.6l-12.8 9.6h-198.4c-19.2 0-35.2-16-35.2-35.2v-28.8h-60.8c-19.2 0-32-12.8-35.2-32h-96c-35.2 0-64-28.8-64-64v-800c0-35.2 28.8-64 64-64h640c35.2 0 64 28.8 64 64v800c0 35.2-28.8 64-64 64zM352 832h60.8c19.2 0 35.2 16 35.2 35.2v28.8h128v-44.8l22.4-19.2h73.6v-64h-320v64zM832 0h-640v800h96v-60.8c0-19.2 16-35.2 35.2-35.2h377.6c19.2 0 35.2 16 35.2 35.2v60.8h96v-800zM288 576c-19.2 0-32-12.8-32-32s12.8-32 32-32h448c19.2 0 32 12.8 32 32s-12.8 32-32 32h-448zM736 384h-448c-19.2 0-32-12.8-32-32s12.8-32 32-32h448c19.2 0 32 12.8 32 32s-12.8 32-32 32zM736 192h-448c-19.2 0-32-12.8-32-32s12.8-32 32-32h448c19.2 0 32 12.8 32 32s-12.8 32-32 32z" />
<glyph unicode="&#xe90c;" glyph-name="Icon_Connector" d="M736 672v256c0 19.2-12.8 32-32 32s-32-12.8-32-32v-256h-320v256c0 19.2-12.8 32-32 32s-32-12.8-32-32v-256h-224v-32c0-220.8 185.6-400 416-416 0 0 0-3.2 0-3.2v-256c0-19.2 12.8-32 32-32s32 12.8 32 32v256c0 0 0 3.2 0 3.2 230.4 16 416 192 416 416v32h-224zM512 288c-198.4 0-364.8 140.8-384 320h768c-19.2-179.2-182.4-320-384-320z" />
<glyph unicode="&#xe90d;" glyph-name="Icon_CPU" d="M224 960v-1024h576v1024h-576zM736 0h-448v896h448v-896zM672 832h-320v-192h320v192zM608 704h-192v64h192v-64zM352 544h320v-64h-320v64zM352 416h320v-64h-320v64zM576 96c0-35.346-28.654-64-64-64s-64 28.654-64 64c0 35.346 28.654 64 64 64s64-28.654 64-64z" />
<glyph unicode="&#xe90e;" glyph-name="Icon_Delete" d="M800-48h-576c-35.2 0-64 28.8-64 64v832h704v-832c0-35.2-28.8-64-64-64zM224 784v-768h576v768h-576zM128 848h768v-64h-768v64zM640 688h64v-576h-64v576zM480 688h64v-576h-64v576zM320 688h64v-576h-64v576zM640 784h-64v76.8c0 12.8-6.4 19.2-6.4 19.2h-115.2c0 0-6.4-6.4-6.4-19.2v-76.8h-64v76.8c0 48 32 83.2 70.4 83.2h115.2c38.4 0 70.4-35.2 70.4-83.2v-76.8z" />
<glyph unicode="&#xe90f;" glyph-name="Icon_DeviceBell" d="M592 227.2c201.6 0 368 163.2 368 364.8s-163.2 368-368 368c-201.6 0-364.8-163.2-364.8-364.8s163.2-368 364.8-368zM592 896c166.4 0 304-134.4 304-300.8s-134.4-300.8-304-300.8c-166.4 0-304 134.4-304 300.8s137.6 300.8 304 300.8zM208 332.8c-60.8 102.4-57.6 230.4-51.2 345.6 25.6 9.6 41.6 32 41.6 60.8 0 35.2-28.8 67.2-67.2 67.2s-67.2-32-67.2-67.2c0-22.4 9.6-41.6 25.6-54.4v-3.2c-3.2-118.4-9.6-265.6 60.8-384 9.6-19.2 51.2-89.6 99.2-137.6v-224h640v256h-576c-25.6 16-73.6 83.2-105.6 140.8zM131.2 771.2c19.2 0 35.2-16 35.2-35.2 0-16-12.8-32-28.8-32h-9.6c-19.2 3.2-32 19.2-32 35.2 0 19.2 16 32 35.2 32zM828.8 0h-512v128h512v-128zM598.4 486.4c64 0 118.4 51.2 118.4 118.4s-51.2 118.4-118.4 118.4c-64 0-118.4-51.2-118.4-118.4s54.4-118.4 118.4-118.4zM598.4 659.2c28.8 0 54.4-22.4 54.4-54.4 0-28.8-25.6-54.4-54.4-54.4s-54.4 22.4-54.4 54.4c0 28.8 25.6 54.4 54.4 54.4z" />
<glyph unicode="&#xe910;" glyph-name="Icon_DeviceWalkieTalkie" d="M704 960v-128h-448v-896h512v1024h-64zM704 768v-384h-384v384h384zM400 256h-80v64h80v-64zM464 320h96v-64h-96v64zM400 192v-64h-80v64h80zM464 192h96v-64h-96v64zM624 192h80v-64h-80v64zM624 256v64h80v-64h-80zM320 0v64h80v-64h-80zM464 0v64h96v-64h-96zM624 0v64h80v-64h-80z" />
<glyph unicode="&#xe911;" glyph-name="Icon_DirectionNorth" d="M508.8 960l-428.8-1024 432 358.4 432-358.4-435.2 1024zM240 150.4l268.8 643.2 272-643.2-272 224-268.8-224z" />
<glyph unicode="&#xe912;" glyph-name="Icon_DirectionSouth" d="M512 601.6l-432 358.4 435.2-1024 428.8 1024-432-358.4zM515.2 99.2l-275.2 643.2 272-224 272 224-268.8-643.2z" />
<glyph unicode="&#xe913;" glyph-name="Icon_Edit" d="M771.2 947.2c-73.6 38.4-150.4-12.8-153.6-12.8l-432-694.4-6.4-304 246.4 169.6 9.6 12.8 3.2 3.2v3.2l406.4 672 3.2 6.4c-3.2 3.2 3.2 102.4-76.8 144zM649.6 899.2c12.8 6.4 54.4 28.8 96 12.8l-419.2-672c-28.8 12.8-57.6 16-80 16l403.2 643.2zM224 19.2l6.4 185.6c25.6 6.4 102.4 9.6 153.6-76.8l-160-108.8zM412.8 163.2c-19.2 28.8-41.6 48-64 60.8l416 672c32-25.6 35.2-70.4 35.2-86.4l-387.2-646.4z" />
<glyph unicode="&#xe914;" glyph-name="Icon_FireHydrant" d="M512 608c-105.6 0-192-86.4-192-192s86.4-192 192-192 192 86.4 192 192-86.4 192-192 192zM512 288c-70.4 0-128 57.6-128 128s57.6 128 128 128 128-57.6 128-128-57.6-128-128-128zM512 512c-54.4 0-96-41.6-96-96s41.6-96 96-96 96 41.6 96 96-41.6 96-96 96zM512 384c-19.2 0-32 12.8-32 32s12.8 32 32 32 32-12.8 32-32-12.8-32-32-32zM928 544h-128c-19.2 0-32 12.8-32 32v64h32c19.2 0 32 12.8 32 32s-12.8 32-32 32h-41.6c-25.6 99.2-112 176-214.4 188.8v35.2c0 19.2-12.8 32-32 32s-32-12.8-32-32v-35.2c-105.6-12.8-188.8-89.6-214.4-188.8h-41.6c-16 0-32-12.8-32-32s12.8-32 32-32h32v-64c0-19.2-12.8-32-32-32h-128c-35.2 0-64-28.8-64-64v-128c0-35.2 28.8-64 64-64h128c19.2 0 32-12.8 32-32v-256h-32c-19.2 0-32-12.8-32-32s12.8-32 32-32h576c19.2 0 32 12.8 32 32s-12.8 32-32 32h-32v256c0 19.2 12.8 32 32 32h128c35.2 0 64 28.8 64 64v128c0 35.2-28.8 64-64 64zM512 832c83.2 0 153.6-54.4 179.2-128h-358.4c25.6 73.6 96 128 179.2 128zM96 480h64v-128h-64v128zM704 256v-256h-384v256c0 54.4-41.6 96-96 96v128c54.4 0 96 41.6 96 96v64h384v-64c0-54.4 41.6-96 96-96v0-128c-54.4 0-96-41.6-96-96zM928 352h-64v128h64v-128z" />
<glyph unicode="&#xe915;" glyph-name="Icon_FireHydrant1" d="M800 518.4h-64v124.8h32c19.2 0 32 12.8 32 32s-12.8 32-32 32h-32c-6.4 105.6-89.6 188.8-192 204.8v48h-64v-51.2c-102.4-12.8-182.4-96-192-201.6v0h-32c-19.2 0-32-12.8-32-32s12.8-32 32-32h32v-124.8h-64c-54.4 0-96-41.6-96-96s41.6-96 96-96h64v-313.6c0 0 0 0 0 0v0 0c0-12.8 6.4-22.4 16-28.8 6.4-6.4 86.4-48 208-48 60.8 0 128 9.6 204.8 38.4 12.8 6.4 22.4 19.2 19.2 35.2v0 316.8h64c54.4 0 96 41.6 96 96s-41.6 96-96 96zM512 848c83.2 0 150.4-60.8 156.8-140.8h-316.8c9.6 80 76.8 140.8 160 140.8zM224 390.4c-19.2 0-32 12.8-32 32 0 16 12.8 32 32 32h64v-64h-64zM352 28.8v614.4h320v-614.4c-150.4-54.4-275.2-16-320 0zM800 390.4h-64v64h64c19.2 0 32-12.8 32-32s-16-32-32-32zM624 422.4c0-61.856-50.144-112-112-112s-112 50.144-112 112c0 61.856 50.144 112 112 112s112-50.144 112-112z" />
<glyph unicode="&#xe916;" glyph-name="Icon_Flag" d="M156.8 960v-1024h60.8v476.8l6.4-16 643.2 275.2-710.4 288zM217.6 460.8v409.6l492.8-198.4-492.8-211.2z" />
<glyph unicode="&#xe917;" glyph-name="Icon_FlashOn" d="M588.8 134.4l150.4 454.4h-348.8l128 345.6-70.4 25.6-163.2-444.8h352l-128-393.6-48 140.8-70.4-22.4 99.2-304 246.4 240-51.2 51.2z" />
<glyph unicode="&#xe918;" glyph-name="Icon_Globe1" d="M281.6 294.4c76.8-76.8 176-115.2 278.4-115.2s201.6 38.4 278.4 115.2c73.6 73.6 115.2 172.8 115.2 275.2 0 105.6-41.6 201.6-115.2 275.2-153.6 150.4-400 150.4-553.6 0-73.6-73.6-115.2-172.8-115.2-275.2-3.2-102.4 38.4-201.6 112-275.2zM243.2 486.4c32 16 76.8 38.4 128 73.6 19.2-28.8 44.8-57.6 70.4-86.4l-121.6-124.8c-38.4 38.4-64 86.4-76.8 137.6zM464 448c22.4-22.4 48-44.8 73.6-64-25.6-38.4-51.2-80-73.6-128-44.8 12.8-86.4 35.2-124.8 70.4l124.8 121.6zM489.6 470.4l176 176c22.4-25.6 41.6-48 60.8-70.4-51.2-38.4-112-89.6-166.4-163.2-28.8 16-51.2 38.4-70.4 57.6zM662.4 691.2c-25.6 25.6-51.2 48-83.2 70.4 25.6 35.2 48 76.8 67.2 121.6 48-12.8 96-38.4 134.4-73.6l-118.4-118.4zM640 668.8l-176-176c-25.6 28.8-48 54.4-67.2 83.2 54.4 41.6 112 92.8 163.2 160 32-22.4 57.6-44.8 80-67.2zM499.2 249.6c19.2 41.6 41.6 80 67.2 115.2 44.8-32 96-57.6 153.6-80-67.2-35.2-147.2-48-220.8-35.2zM755.2 310.4c-64 19.2-121.6 48-169.6 83.2 51.2 67.2 108.8 118.4 160 156.8 51.2-73.6 73.6-134.4 83.2-163.2-9.6-16-22.4-28.8-35.2-44.8-12.8-12.8-25.6-22.4-38.4-32zM848 419.2c-12.8 35.2-38.4 89.6-80 147.2 54.4 35.2 96 54.4 112 60.8 3.2-19.2 6.4-35.2 6.4-54.4 0-57.6-12.8-108.8-38.4-153.6zM873.6 656c-16-6.4-64-25.6-124.8-64-19.2 25.6-38.4 51.2-64 76.8l118.4 118.4c35.2-38.4 57.6-83.2 70.4-131.2zM614.4 889.6c-16-41.6-38.4-76.8-60.8-108.8-41.6 28.8-89.6 57.6-144 80 48 22.4 99.2 35.2 150.4 35.2 19.2 0 38.4-3.2 54.4-6.4zM374.4 838.4c60.8-25.6 115.2-54.4 160-86.4-48-64-102.4-112-156.8-150.4-44.8 70.4-73.6 131.2-83.2 160 9.6 12.8 19.2 25.6 32 35.2 16 19.2 32 32 48 41.6zM275.2 732.8c16-35.2 41.6-89.6 80-147.2-44.8-32-86.4-51.2-118.4-67.2-3.2 16-3.2 35.2-3.2 51.2-3.2 57.6 12.8 115.2 41.6 163.2zM918.4 297.6l-22.4-28.8c-86.4-102.4-214.4-163.2-348.8-163.2-249.6 0-451.2 201.6-451.2 448 0 112 41.6 220.8 118.4 304l22.4 25.6-80 64-38.4-51.2 25.6-22.4c-73.6-89.6-112-201.6-112-320 0-272 217.6-496 486.4-512v-41.6h-156.8v-64h387.2v64h-166.4v44.8c128 9.6 249.6 64 339.2 156.8l25.6-25.6 44.8 44.8-73.6 76.8z" />
<glyph unicode="&#xe919;" glyph-name="Icon_HorizontalAlignleft" d="M64 960h64v-1024h-64v1024zM256 384v-320h704v320h-704zM896 128h-576v192h576v-192zM704 832h-448v-320h448v320zM640 576h-320v192h320v-192z" />
<glyph unicode="&#xe91a;" glyph-name="Icon_Horizontalalignright" d="M896 960h64v-1024h-64v1024zM64 64h704v320h-704v-320zM128 320h576v-192h-576v192zM320 512h448v320h-448v-320zM384 768h320v-192h-320v192z" />
<glyph unicode="&#xe91b;" glyph-name="Icon_Hourglass" d="M752 534.4c12.8 22.4 22.4 41.6 28.8 60.8 25.6 67.2 35.2 131.2 35.2 172.8h80v192h-768v-192h80c0-44.8 9.6-105.6 35.2-172.8 6.4-19.2 16-38.4 28.8-60.8 19.2-35.2 48-64 83.2-86.4-35.2-22.4-64-51.2-83.2-86.4-12.8-22.4-22.4-41.6-28.8-60.8-25.6-67.2-35.2-128-35.2-172.8h-80v-192h768v192h-80c0 44.8-9.6 105.6-35.2 172.8-6.4 19.2-16 38.4-28.8 60.8-19.2 35.2-48 64-83.2 86.4 35.2 22.4 64 51.2 83.2 86.4zM579.2 480c0 0-3.2 0-3.2-3.2-3.2 0-3.2-3.2-6.4-3.2s-3.2-3.2-3.2-3.2c0 0-3.2-3.2-3.2-3.2 0-3.2-3.2-3.2-3.2-6.4 0 0 0-3.2-3.2-3.2 0 0 0 0 0-3.2s0-3.2 0-6.4 0-3.2 0-6.4c0 0 0 0 0-3.2s0-3.2 3.2-3.2c0 0 0-3.2 3.2-3.2 0-3.2 3.2-3.2 6.4-6.4 0 0 0 0 3.2-3.2s6.4-3.2 9.6-6.4c0 0 0 0 0 0 54.4-16 92.8-41.6 115.2-86.4 12.8-22.4 19.2-38.4 25.6-54.4 22.4-60.8 28.8-115.2 32-153.6-9.6-6.4-19.2-16-19.2-28.8 0-19.2 12.8-32 32-32h64v-64h-640v64h67.2c19.2 0 32 12.8 32 32 0 12.8-6.4 22.4-19.2 28.8 0 38.4 6.4 92.8 32 153.6 6.4 16 12.8 32 25.6 54.4 22.4 41.6 60.8 70.4 115.2 86.4 0 0 0 0 0 0 3.2 0 6.4 3.2 9.6 6.4 0 0 0 0 3.2 3.2s3.2 3.2 6.4 6.4c0 0 0 3.2 3.2 3.2 0 0 3.2 3.2 3.2 3.2s0 0 0 3.2 0 3.2 0 6.4 0 3.2 0 6.4c0 0 0 0 0 3.2 0 0 0 3.2-3.2 3.2 0 3.2-3.2 3.2-3.2 6.4s-3.2 3.2-3.2 3.2c0 0-3.2 3.2-3.2 3.2-3.2 0-3.2 3.2-6.4 3.2 0 0-3.2 0-3.2 3.2-54.4 16-92.8 41.6-115.2 86.4-12.8 22.4-19.2 38.4-25.6 54.4-22.4 60.8-28.8 115.2-32 153.6 6.4 3.2 16 12.8 16 25.6 0 19.2-12.8 32-32 32h-67.2v64h640v-64h-67.2c-19.2 0-32-12.8-32-32 0-12.8 6.4-22.4 19.2-28.8 0-38.4-6.4-92.8-32-153.6-6.4-16-12.8-32-25.6-54.4-22.4-41.6-60.8-70.4-115.2-83.2z" />
<glyph unicode="&#xe91c;" glyph-name="Icon_HourGlass1" d="M153.6 832l358.4-380.8 355.2 380.8h-713.6zM512 544l-211.2 224h419.2l-208-224zM153.6 64h713.6l-355.2 384-358.4-384zM300.8 128l208 224 208-224h-416zM160 896h704c19.2 0 32 12.8 32 32s-12.8 32-32 32h-704c-19.2 0-32-12.8-32-32s12.8-32 32-32zM864 0h-704c-19.2 0-32-12.8-32-32s12.8-32 32-32h704c19.2 0 32 12.8 32 32s-12.8 32-32 32z" />
<glyph unicode="&#xe91d;" glyph-name="Icon_HourGlass3" d="M224 896h576c19.2 0 32 12.8 32 32s-12.8 32-32 32h-576c-19.2 0-32-12.8-32-32s12.8-32 32-32zM800 0h-576c-19.2 0-32-12.8-32-32s12.8-32 32-32h576c19.2 0 32 12.8 32 32s-12.8 32-32 32zM204.8 86.4c-6.4-9.6-6.4-25.6 0-35.2l12.8-19.2h566.4c12.8 0 25.6 6.4 28.8 16l9.6 19.2-211.2 380.8 201.6 364.8c6.4 9.6 6.4 25.6 0 35.2l-12.8 16h-566.4c-9.6 0-22.4-6.4-28.8-16l-9.6-19.2 211.2-380.8-201.6-361.6zM470.4 428.8l9.6 19.2-195.2 352h451.2l-185.6-332.8-12.8-19.2 195.2-352h-448l185.6 332.8zM688 134.4l-172.8 249.6c0 3.2-3.2 3.2-6.4 0l-172.8-249.6c0-3.2 0-6.4 3.2-6.4h345.6c3.2 0 3.2 3.2 3.2 6.4zM515.2 464l76.8 121.6c0 3.2 0 3.2-3.2 3.2h-153.6c-3.2 0-3.2-3.2-3.2-3.2l76.8-121.6c3.2 0 6.4 0 6.4 0z" />
<glyph unicode="&#xe91e;" glyph-name="Icon_HydroelectricPower" d="M777.6 601.6c-6.4 6.4-118.4 188.8-329.6 294.4l-124.8 64 48-128c3.2-6.4 57.6-179.2-160-412.8 0-3.2-153.6-166.4-3.2-361.6 3.2-6.4 89.6-121.6 297.6-121.6 6.4 0 12.8 0 16 0 9.6 0 246.4 3.2 336 211.2 3.2 9.6 83.2 208-80 454.4zM796.8 172.8c-73.6-169.6-268.8-172.8-275.2-172.8-185.6-6.4-256 89.6-259.2 96-115.2 150.4-3.2 272 0 278.4 198.4 214.4 188.8 393.6 179.2 454.4 182.4-99.2 281.6-259.2 284.8-262.4 144-217.6 73.6-387.2 70.4-393.6z" />
<glyph unicode="&#xe91f;" glyph-name="Icon_IncomingCalls" d="M371.2 950.4c-73.6 6.4-169.6 12.8-188.8 9.6-9.6 0-19.2-6.4-25.6-12.8-121.6-118.4-128-352-131.2-451.2v-16c0-22.4 0-51.2 3.2-80 19.2-300.8 105.6-428.8 121.6-451.2 6.4-9.6 19.2-16 32-16 3.2 0 3.2 0 6.4 0l188.8 25.6c9.6 0 22.4 6.4 28.8 16s9.6 19.2 6.4 32l-51.2 220.8c-3.2 16-16 25.6-28.8 28.8-44.8 9.6-80 19.2-96 22.4-28.8 156.8-9.6 281.6 0 323.2l108.8 35.2c12.8 3.2 22.4 16 25.6 28.8l44.8 227.2c3.2 9.6 0 22.4-6.4 32-16 19.2-25.6 25.6-38.4 25.6zM304 700.8l-128-44.8-6.4-12.8c-3.2-6.4-44.8-169.6 0-387.2 3.2-22.4 9.6-28.8 128-54.4l41.6-179.2-147.2-19.2c-25.6 38.4-86.4 156.8-102.4 403.2-3.2 25.6-3.2 51.2-3.2 73.6v19.2c6.4 86.4 9.6 291.2 108.8 396.8 19.2 0 67.2-3.2 144-9.6l-35.2-185.6zM937.6 576h-272v60.8c0 16-9.6 28.8-22.4 32-12.8 6.4-28.8 3.2-38.4-6.4l-185.6-188.8c-12.8-12.8-12.8-35.2 0-48l185.6-188.8c6.4-6.4 16-9.6 25.6-9.6 3.2 0 9.6 0 12.8 3.2 12.8 6.4 22.4 19.2 22.4 32v57.6h272c35.2 0 64 25.6 64 60.8v137.6c0 32-28.8 57.6-64 57.6zM937.6 384h-336v-54.4l-118.4 118.4 115.2 118.4v-54.4h336v-128z" />
<glyph unicode="&#xe920;" glyph-name="Icon_InstrumentScissors" d="M764.8 240c-38.4 12.8-83.2 6.4-118.4-12.8-6.4-3.2-9.6-6.4-16-9.6l-80 147.2 240 432 38.4-131.2-198.4-275.2 51.2-38.4 217.6 300.8-92.8 307.2-294.4-531.2-294.4 531.2-92.8-304 217.6-300.8 51.2 38.4-198.4 272 38.4 131.2 240-432-80-144c-3.2 3.2-6.4 6.4-12.8 9.6-35.2 19.2-80 25.6-118.4 12.8s-70.4-38.4-89.6-76.8c-41.6-73.6-12.8-169.6 60.8-211.2 22.4-12.8 48-19.2 73.6-19.2 16 0 28.8 3.2 41.6 6.4 38.4 12.8 73.6 38.4 92.8 73.6 28.8 51.2 25.6 108.8-3.2 156.8v0l70.4 128 70.4-128 9.6 3.2c-28.8-48-35.2-108.8-6.4-160 19.2-35.2 54.4-64 92.8-73.6 12.8-3.2 28.8-6.4 41.6-6.4 25.6 0 51.2 6.4 76.8 19.2 73.6 41.6 102.4 137.6 60.8 211.2-19.2 38.4-51.2 64-89.6 73.6zM387.2 48v0c-12.8-22.4-32-38.4-54.4-44.8s-48-3.2-70.4 6.4c-44.8 25.6-60.8 80-35.2 124.8 12.8 22.4 32 38.4 54.4 44.8 9.6 3.2 16 3.2 25.6 3.2 16 0 32-3.2 44.8-12.8 44.8-22.4 60.8-76.8 35.2-121.6zM764.8 12.8c-22.4-12.8-44.8-16-70.4-6.4-22.4 6.4-41.6 22.4-54.4 44.8-25.6 44.8-9.6 99.2 35.2 124.8 12.8 6.4 28.8 12.8 44.8 12.8 9.6 0 16 0 25.6-3.2 22.4-6.4 41.6-22.4 54.4-44.8v0c25.6-48 9.6-105.6-35.2-128z" />
<glyph unicode="&#xe921;" glyph-name="Icon_Internet" d="M512 800c-70.4 0-128-57.6-128-128 0-60.8 41.6-108.8 96-124.8 0 0 0-3.2 0-3.2v-576c0-19.2 12.8-32 32-32s32 12.8 32 32v576c0 0 0 3.2 0 3.2 54.4 12.8 96 64 96 124.8 0 70.4-57.6 128-128 128zM512 608c-35.2 0-64 28.8-64 64s28.8 64 64 64c35.2 0 64-28.8 64-64s-28.8-64-64-64zM128 659.2c0 89.6 32 179.2 92.8 246.4 12.8 12.8 9.6 32-3.2 44.8s-32 9.6-44.8-3.2c-70.4-80-108.8-182.4-108.8-288 0-108.8 41.6-214.4 115.2-294.4 6.4-6.4 16-9.6 22.4-9.6s16 3.2 22.4 9.6c12.8 12.8 12.8 32 3.2 44.8-64 67.2-99.2 156.8-99.2 249.6zM851.2 950.4c-12.8 12.8-32 16-44.8 3.2s-16-32-3.2-44.8c60.8-70.4 92.8-156.8 92.8-249.6s-35.2-182.4-99.2-252.8c-12.8-12.8-9.6-32 3.2-44.8 6.4-6.4 12.8-9.6 22.4-9.6s16 3.2 22.4 9.6c73.6 86.4 115.2 188.8 115.2 297.6 0 105.6-38.4 208-108.8 291.2zM281.6 659.2c0 51.2 19.2 102.4 51.2 144 12.8 12.8 9.6 35.2-3.2 44.8-12.8 12.8-35.2 9.6-44.8-3.2-41.6-51.2-67.2-118.4-67.2-185.6s25.6-134.4 70.4-185.6c6.4-6.4 16-12.8 25.6-12.8 6.4 0 16 3.2 19.2 6.4 12.8 12.8 16 32 3.2 44.8-35.2 44.8-54.4 96-54.4 147.2zM739.2 844.8c-9.6 12.8-32 16-44.8 3.2s-16-32-3.2-44.8c35.2-41.6 51.2-89.6 51.2-144s-19.2-105.6-54.4-144c-12.8-12.8-9.6-35.2 3.2-44.8 6.4-6.4 12.8-6.4 19.2-6.4 9.6 0 19.2 3.2 25.6 12.8 44.8 51.2 70.4 118.4 70.4 185.6 0 64-25.6 131.2-67.2 182.4z" />
<glyph unicode="&#xe922;" glyph-name="Icon_KeyHash" d="M944 576v64h-172.8l38.4 313.6-64 6.4-38.4-320h-329.6l38.4 313.6-64 6.4-41.6-320h-230.4v-64h224l-35.2-288h-188.8v-64h179.2l-35.2-281.6 64-6.4 35.2 288h332.8l-35.2-281.6 64-6.4 35.2 288h224v64h-214.4l35.2 288h179.2zM700.8 576l-35.2-288h-332.8l35.2 288h332.8z" />
<glyph unicode="&#xe923;" glyph-name="Icon_Location1" d="M37.458-10.831l127.846 327.958 59.629-23.245-127.846-327.958-59.629 23.245zM795.41 296.104l59.629 23.245 127.846-327.958-59.629-23.245-127.846 327.958zM854.995 318.298v-64h-688v64h688zM19.2-64l25.6 64h934.4l25.6-64zM515.2 960c-131.2 0-240-105.6-240-240 0-131.2 105.6-240 240-240 131.2 0 240 105.6 240 240s-108.8 240-240 240zM515.2 547.2c-96 0-176 80-176 176s80 172.8 176 172.8 176-80 176-176-80-172.8-176-172.8zM483.2 752h64v-64h-64v64zM480 508.8h64v-384h-64v384zM480 128h64v-64h-64v64z" />
<glyph unicode="&#xe924;" glyph-name="Icon_LockOpen" d="M256 480v192c0 131.2 115.2 227.2 256 227.2s256-105.6 256-236.8h60.8c0 163.2-140.8 297.6-316.8 297.6s-316.8-134.4-316.8-297.6l-3.2-182.4h-128v-544h896v544h-704zM896 0h-768v416h768v-416z" />
<glyph unicode="&#xe925;" glyph-name="Icon_Lock" d="M832 480l-3.2 182.4c0 163.2-140.8 297.6-316.8 297.6s-316.8-134.4-316.8-297.6l-3.2-182.4h-128v-544h896v544h-128zM256 672c0 131.2 115.2 227.2 256 227.2s256-96 256-227.2v-192h-512v192zM896 0h-768v416h768v-416z" />
<glyph unicode="&#xe926;" glyph-name="Icon_MemoryCard" d="M912 716.8l-208 224c-9.6 12.8-28.8 19.2-48 19.2h-496c-35.2 0-64-28.8-64-60.8v-899.2c0-35.2 28.8-64 64-64h704c35.2 0 64 28.8 64 60.8v678.4c0 16-6.4 32-16 41.6zM288 0v320c0 35.2 28.8 64 64 64h320c35.2 0 64-28.8 64-64v-320h-448zM864 0h-64v320c0 70.4-57.6 128-128 128h-320c-70.4 0-128-57.6-128-128v-323.2h-64v899.2h64v-128c0-19.2 12.8-32 32-32s32 12.8 32 32v128h64v-128c0-19.2 12.8-32 32-32s32 12.8 32 32v128h64v-128c0-19.2 12.8-32 32-32s32 12.8 32 32v128h64v-128c0-19.2 12.8-32 32-32s32 12.8 32 32v112l192-204.8v-675.2c0 0 0 0 0 0z" />
<glyph unicode="&#xe927;" glyph-name="Icon_Mobile" d="M800 960h-576c-35.2 0-64-28.8-64-64v-896c0-35.2 28.8-64 64-64h576c35.2 0 64 28.8 64 64v896c0 35.2-28.8 64-64 64zM800 0h-576v896h576v-896zM320 192h384c19.2 0 32 12.8 32 32v576c0 19.2-12.8 32-32 32h-384c-19.2 0-32-12.8-32-32v-576c0-19.2 12.8-32 32-32zM352 768h320v-512h-320v512zM560 96h-96c-9.6 0-16-6.4-16-16v-32c0-9.6 6.4-16 16-16h96c9.6 0 16 6.4 16 16v32c0 9.6-6.4 16-16 16z" />
<glyph unicode="&#xe928;" glyph-name="Icon_Mobile1" d="M704 960h-384c-70.4 0-128-57.6-128-128v-768c0-70.4 57.6-128 128-128h384c70.4 0 128 57.6 128 128v768c0 70.4-57.6 128-128 128zM320 896h384c35.2 0 64-28.8 64-64v-96h-512v96c0 35.2 28.8 64 64 64zM768 672v-448h-512v448h512zM704 0h-384c-35.2 0-64 28.8-64 64v96h512v-96c0-35.2-28.8-64-64-64zM544 144h-64c-19.2 0-32-12.8-32-32v-32c0-19.2 12.8-32 32-32h64c19.2 0 32 12.8 32 32v32c0 19.2-12.8 32-32 32z" />
<glyph unicode="&#xe929;" glyph-name="Icon_Mobile2" d="M704 960h-384c-70.4 0-128-57.6-128-128v-768c0-70.4 57.6-128 128-128h384c70.4 0 128 57.6 128 128v768c0 70.4-57.6 128-128 128zM768 64c0-35.2-28.8-64-64-64h-384c-35.2 0-64 28.8-64 64v768c0 35.2 28.8 64 64 64h384c35.2 0 64-28.8 64-64v-768zM672 832h-320c-19.2 0-32-12.8-32-32v-377.6c0-19.2 12.8-32 32-32h320c19.2 0 32 12.8 32 32v377.6c0 19.2-12.8 32-32 32zM640 454.4h-256v313.6h256v-313.6zM640 320h64v-64h-64v64zM531.2 320h64v-64h-64v64zM422.4 320h64v-64h-64v64zM320 320h64v-64h-64v64zM640 224h64v-64h-64v64zM531.2 224h64v-64h-64v64zM422.4 224h64v-64h-64v64zM320 224h64v-64h-64v64zM640 128h64v-64h-64v64zM531.2 128h64v-64h-64v64zM422.4 128h64v-64h-64v64zM320 128h64v-64h-64v64z" />
<glyph unicode="&#xe92a;" glyph-name="Icon_MSSystemsetting1" d="M256 960c-89.6 0-160-70.4-160-160v-480h128v-256h-32l64-128 64 128h-32v256h128v480c0 89.6-70.4 160-160 160zM352 384h-192v416c0 54.4 41.6 96 96 96s96-41.6 96-96v-416zM256 832c-19.2 0-32-12.8-32-32v-352c0-19.2 12.8-32 32-32s32 12.8 32 32v352c0 19.2-12.8 32-32 32zM809.6 358.4l19.2 464c0 38.4-12.8 73.6-38.4 99.2-48 48-124.8 48-172.8 0-25.6-25.6-38.4-64-38.4-99.2l19.2-464c-70.4-38.4-118.4-112-118.4-198.4 0-89.6 54.4-169.6 137.6-204.8l44.8-19.2v192c0 9.6 9.6 19.2 19.2 19.2h48c9.6 0 19.2-9.6 19.2-19.2v-192l44.8 19.2c83.2 35.2 137.6 115.2 137.6 204.8-3.2 86.4-51.2 160-121.6 198.4zM662.4 876.8c22.4 22.4 57.6 22.4 80 0 12.8-12.8 19.2-32 19.2-54.4l-16-444.8c-12.8 6.4-25.6 6.4-41.6 6.4s-28.8 0-41.6-3.2l-19.2 444.8c0 19.2 6.4 38.4 19.2 51.2zM809.6 41.6v86.4c0 44.8-38.4 83.2-83.2 83.2h-48c-44.8 0-83.2-38.4-83.2-83.2v-86.4c-32 28.8-54.4 73.6-54.4 118.4 0 86.4 70.4 160 160 160s160-70.4 160-160c3.2-44.8-16-89.6-51.2-118.4zM736 832c0-17.673-14.327-32-32-32s-32 14.327-32 32c0 17.673 14.327 32 32 32s32-14.327 32-32z" />
<glyph unicode="&#xe92b;" glyph-name="Icon_Next" d="M979.2 441.6l-428.8 518.4v-339.2h-508.8v-358.4h508.8v-326.4l428.8 505.6zM99.2 316.8v249.6h508.8v240l304-368-304-355.2v230.4h-508.8z" />
<glyph unicode="&#xe92c;" glyph-name="Icon_Noise" d="M521.6 956.8c-12.8 6.4-28.8 3.2-38.4-6.4l-278.4-275.2h-169.6c-19.2 0-35.2-16-35.2-35.2v-412.8c0-19.2 16-35.2 35.2-35.2h176l275.2-246.4c6.4-6.4 16-9.6 25.6-9.6 3.2 0 9.6 0 12.8 3.2 12.8 6.4 22.4 19.2 22.4 32v953.6c-3.2 12.8-12.8 25.6-25.6 32zM480 35.2l-233.6 211.2-12.8 9.6h-169.6v355.2h169.6l246.4 243.2v-819.2zM704 640c3.2 0 6.4 0 6.4 0l192 48c16 3.2 28.8 22.4 22.4 38.4-3.2 16-22.4 28.8-38.4 22.4l-192-48c-16-3.2-28.8-22.4-22.4-38.4 3.2-12.8 19.2-22.4 32-22.4zM902.4 208l-192 48c-16 3.2-35.2-6.4-38.4-22.4s6.4-35.2 22.4-38.4l192-48c3.2 0 6.4 0 6.4 0 12.8 0 28.8 9.6 32 25.6 6.4 12.8-3.2 28.8-22.4 35.2zM992 480v0h-192c-19.2 0-32-12.8-32-32s12.8-32 32-32v0h192c19.2 0 32 12.8 32 32s-12.8 32-32 32z" />
<glyph unicode="&#xe92d;" glyph-name="Icon_Noise1" d="M521.6 956.8c-12.8 6.4-28.8 3.2-38.4-6.4l-278.4-275.2h-169.6c-19.2 0-35.2-16-35.2-35.2v-412.8c0-19.2 16-35.2 35.2-35.2h176l275.2-246.4c6.4-6.4 16-9.6 25.6-9.6 3.2 0 9.6 0 12.8 3.2 12.8 6.4 22.4 19.2 22.4 32v953.6c-3.2 12.8-12.8 25.6-25.6 32zM480 35.2l-233.6 211.2-12.8 9.6h-169.6v355.2h169.6l246.4 243.2v-819.2zM672 800c3.2 0 9.6 0 12.8 3.2l192 96c16 6.4 22.4 25.6 12.8 41.6-6.4 16-25.6 22.4-41.6 12.8l-192-96c-16-6.4-22.4-25.6-12.8-41.6 6.4-9.6 16-16 28.8-16zM736 633.6c3.2-16 16-25.6 32-25.6 3.2 0 6.4 0 6.4 0l192 48c16 3.2 28.8 22.4 22.4 38.4-3.2 16-22.4 28.8-38.4 22.4l-192-48c-16-3.2-25.6-19.2-22.4-35.2zM876.8-3.2l-192 96c-16 6.4-35.2 0-41.6-12.8-6.4-16 0-35.2 12.8-41.6l192-96c6.4-6.4 12.8-6.4 16-6.4 12.8 0 22.4 6.4 28.8 19.2s0 32-16 41.6zM966.4 240l-192 48c-16 3.2-35.2-6.4-38.4-22.4s6.4-35.2 22.4-38.4l192-48c3.2 0 6.4 0 6.4 0 12.8 0 28.8 9.6 32 25.6 6.4 12.8-3.2 28.8-22.4 35.2zM992 480c0 0 0 0 0 0h-192c-19.2 0-32-12.8-32-32s12.8-32 32-32c0 0 0 0 0 0h192c19.2 0 32 12.8 32 32s-12.8 32-32 32z" />
<glyph unicode="&#xe92e;" glyph-name="Icon_Paragraph" d="M470.4 960v0c-163.2 0-294.4-134.4-294.4-297.6 0-150.4 112-272 252.8-294.4v-432h64v960h195.2v-960h64v960h96v64h-377.6zM240 662.4c0 112 83.2 208 188.8 227.2v-457.6c-105.6 22.4-188.8 118.4-188.8 230.4z" />
<glyph unicode="&#xe92f;" glyph-name="Icon_Pencil" d="M608 582.4v0l128 236.8-259.2 140.8-96-179.2-281.6-531.2v-313.6l259.2 176 249.6 470.4zM553.6 614.4l-240-454.4-147.2 76.8 243.2 454.4 70.4-38.4 73.6-38.4zM438.4 748.8l67.2 124.8 147.2-80-67.2-124.8-73.6 38.4-73.6 41.6zM163.2 201.6l121.6-64-121.6-83.2v147.2zM279.486 276.096l115.734 217.522 28.25-15.030-115.734-217.522-28.25 15.030zM252.8 0h672v-64h-672v64z" />
<glyph unicode="&#xe930;" glyph-name="Icon_ProductBox" d="M508.8-64l-444.8 259.2v508.8l444.8 256 451.2-259.2v-505.6l-451.2-259.2zM128 233.6l380.8-220.8 387.2 224v425.6l-387.2 224-380.8-220.8v-432zM508.8 409.6l-425.6 246.4 32 54.4 393.6-224 396.8 224 32-54.4zM476.8 448h64v-473.6h-64v473.6zM300.589 784.072l31.68 55.61 417.072-237.6-31.68-55.61-417.072 237.6z" />
<glyph unicode="&#xe931;" glyph-name="Icon_ReminderRing" d="M441.6 323.2c3.2-35.2 32-60.8 67.2-60.8s64 25.6 67.2 60.8h249.6l3.2 44.8c0 0-35.2 6.4-60.8 28.8-25.6 28.8-25.6 64-16 185.6 6.4 73.6 9.6 137.6-35.2 217.6-41.6 57.6-96 76.8-124.8 83.2v0c0 41.6-32 76.8-73.6 76.8h-19.2c-41.6 0-73.6-35.2-73.6-76.8v0c-32-6.4-83.2-25.6-124.8-83.2-44.8-76.8-41.6-140.8-35.2-214.4 12.8-121.6 9.6-156.8-12.8-185.6-28.8-25.6-64-32-64-32l3.2-44.8h249.6zM508.8 307.2c-9.6 0-19.2 6.4-19.2 16h41.6c-3.2-9.6-12.8-16-22.4-16zM284.8 371.2c41.6 44.8 38.4 96 25.6 217.6-6.4 70.4-9.6 121.6 28.8 188.8 28.8 41.6 67.2 57.6 89.6 64h38.4v41.6c0 16 12.8 32 28.8 32h19.2c16 0 28.8-16 28.8-32v-44.8h38.4c22.4-6.4 60.8-19.2 92.8-64 38.4-67.2 35.2-121.6 28.8-188.8-12.8-121.6-16-172.8 28.8-220.8l-448 6.4c0-3.2 0-3.2 0 0zM512 102.4c-121.6 0-220.8 70.4-220.8 160h-64c0-121.6 128-224 284.8-224s284.8 99.2 284.8 224h-64c0-86.4-99.2-160-220.8-160zM844.8 265.6c0-147.2-147.2-265.6-332.8-265.6s-332.8 118.4-332.8 265.6h-64c0-182.4 179.2-329.6 396.8-329.6s396.8 147.2 396.8 329.6h-64z" />
<glyph unicode="&#xe932;" glyph-name="Icon_Remote" d="M672 768h-320c-54.4 0-96-41.6-96-96v-640c0-54.4 41.6-96 96-96h320c54.4 0 96 41.6 96 96v640c0 54.4-41.6 96-96 96zM704 32c0-19.2-12.8-32-32-32h-320c-19.2 0-32 12.8-32 32v640c0 19.2 12.8 32 32 32h320c19.2 0 32-12.8 32-32v-640zM448 288c0-17.673-14.327-32-32-32s-32 14.327-32 32c0 17.673 14.327 32 32 32s32-14.327 32-32zM544 288c0-17.673-14.327-32-32-32s-32 14.327-32 32c0 17.673 14.327 32 32 32s32-14.327 32-32zM640 288c0-17.673-14.327-32-32-32s-32 14.327-32 32c0 17.673 14.327 32 32 32s32-14.327 32-32zM448 416c0-17.673-14.327-32-32-32s-32 14.327-32 32c0 17.673 14.327 32 32 32s32-14.327 32-32zM544 416c0-17.673-14.327-32-32-32s-32 14.327-32 32c0 17.673 14.327 32 32 32s32-14.327 32-32zM640 416c0-17.673-14.327-32-32-32s-32 14.327-32 32c0 17.673 14.327 32 32 32s32-14.327 32-32zM448 544c0-17.673-14.327-32-32-32s-32 14.327-32 32c0 17.673 14.327 32 32 32s32-14.327 32-32zM544 544c0-17.673-14.327-32-32-32s-32 14.327-32 32c0 17.673 14.327 32 32 32s32-14.327 32-32zM640 544c0-17.673-14.327-32-32-32s-32 14.327-32 32c0 17.673 14.327 32 32 32s32-14.327 32-32zM592 656c0 9.6-6.4 16-16 16h-128c-9.6 0-16-6.4-16-16s6.4-16 16-16h128c9.6 0 16 6.4 16 16zM560 96c0-26.51-21.49-48-48-48s-48 21.49-48 48c0 26.51 21.49 48 48 48s48-21.49 48-48zM422.4 828.8c-6.4-6.4-6.4-16 0-22.4 0-3.2 6.4-6.4 9.6-6.4s9.6 0 9.6 3.2c35.2 35.2 102.4 35.2 137.6 0 6.4-6.4 16-6.4 22.4 0s6.4 16 0 22.4c-22.4 25.6-54.4 38.4-89.6 38.4s-67.2-12.8-89.6-35.2zM380.8 870.4c35.2 38.4 83.2 57.6 131.2 57.6s96-22.4 134.4-57.6c0-3.2 6.4-6.4 9.6-6.4s9.6 0 9.6 3.2c6.4 6.4 6.4 16 0 22.4-41.6 44.8-96 70.4-153.6 70.4s-112-22.4-153.6-67.2c-6.4-6.4-6.4-16 0-22.4 3.2-6.4 16-6.4 22.4 0z" />
<glyph unicode="&#xe933;" glyph-name="Icon_SetFlag" d="M160-64h-64v1024h448v-576h-384v-448zM160 448h320v448h-320v-448zM928 256h-448v160h64v-96h320v448h-352v64h416z" />
<glyph unicode="&#xe934;" glyph-name="Icon_Signature" d="M300.8 0h672v-64h-672v64zM592 326.4l6.4 265.6 19.2 41.6-57.6 28.8-22.4-54.4-6.4-249.6-329.6-278.4c-3.2 3.2-9.6 9.6-12.8 12.8l131.2 278.4c3.2 0 3.2 0 6.4 0 19.2 0 38.4 9.6 48 28.8v0c6.4 12.8 6.4 25.6 3.2 38.4-6.4 12.8-16 22.4-28.8 28.8-28.8 12.8-60.8 0-73.6-25.6-6.4-12.8-6.4-25.6-3.2-38.4 3.2-6.4 6.4-16 12.8-19.2l-131.2-278.4c-6.4 3.2-16 3.2-22.4 3.2v428.8l188.8 169.6 32 51.2-57.6 25.6-19.2-41.6-201.6-179.2v-486.4c-3.2-6.4-9.6-12.8-12.8-19.2-9.6-19.2-9.6-44.8-3.2-64 6.4-22.4 22.4-38.4 44.8-48 9.6-6.4 22.4-9.6 35.2-9.6 32 0 64 19.2 76.8 48 3.2 9.6 6.4 19.2 6.4 28.8l371.2 313.6zM304 428.8c3.2 6.4 9.6 12.8 19.2 12.8 3.2 0 6.4 0 9.6-3.2 6.4-3.2 9.6-6.4 9.6-12.8 3.2-6.4 0-9.6 0-16-6.4-9.6-16-16-28.8-9.6-6.4 3.2-9.6 6.4-9.6 12.8s0 9.6 0 16zM156.8 12.8c-6.4-9.6-19.2-16-28.8-9.6-6.4 3.2-9.6 6.4-12.8 12.8s-3.2 9.6 0 16c3.2 6.4 12.8 12.8 19.2 12.8 3.2 0 6.4 0 9.6-3.2 6.4-3.2 9.6-6.4 12.8-12.8s3.2-9.6 0-16zM707.2 809.6l-329.6 150.4-67.2-147.2 329.6-150.4 67.2 147.2zM608 748.8l-214.4 96 16 32 214.4-96-16-32z" />
<glyph unicode="&#xe935;" glyph-name="Icon_SpyCamera" d="M316.8 358.4c83.2 0 150.4 67.2 150.4 150.4s-67.2 150.4-150.4 150.4c-83.2 0-150.4-67.2-150.4-150.4s67.2-150.4 150.4-150.4zM316.8 595.2c48 0 86.4-38.4 86.4-86.4s-38.4-86.4-86.4-86.4c-48 0-86.4 38.4-86.4 86.4s38.4 86.4 86.4 86.4zM950.4 480h-265.6c-32 0-57.6-25.6-57.6-57.6v-12.8h-25.6c12.8 32 19.2 64 19.2 99.2 0 64-22.4 124.8-57.6 172.8v144c0 73.6-54.4 134.4-121.6 134.4h-240c-67.2 0-121.6-60.8-121.6-134.4v-131.2c-38.4-51.2-64-115.2-64-185.6s25.6-134.4 64-185.6v-252.8c0-73.6 54.4-134.4 121.6-134.4h236.8c67.2 0 121.6 60.8 121.6 134.4v99.2h64v-12.8c0-32 25.6-57.6 57.6-57.6h265.6c32 0 57.6 25.6 57.6 57.6v265.6c3.2 32-22.4 57.6-54.4 57.6zM201.6 896h236.8c32 0 57.6-32 57.6-70.4v-76.8c-51.2 35.2-112 57.6-179.2 57.6-64 0-124.8-19.2-172.8-54.4v73.6c0 38.4 25.6 70.4 57.6 70.4zM316.8 742.4c131.2 0 236.8-105.6 236.8-236.8s-105.6-236.8-236.8-236.8-236.8 105.6-236.8 236.8 105.6 236.8 236.8 236.8zM438.4 0h-236.8c-32 0-57.6 32-57.6 70.4v192c48-35.2 108.8-54.4 172.8-54.4 67.2 0 131.2 22.4 179.2 60.8v-198.4c0-38.4-25.6-70.4-57.6-70.4zM944 160h-256v12.8c0 32-25.6 57.6-57.6 57.6h-70.4v102.4c6.4 9.6 12.8 19.2 19.2 28.8v-19.2h51.2c32 0 57.6 25.6 57.6 57.6v16h256v-256z" />
<glyph unicode="&#xe936;" glyph-name="Icon_Stationary" d="M416.363 310.871l114.182 214.721 28.253-15.024-114.182-214.721-28.253 15.024zM944 124.8l-275.2 374.4 44.8 83.2 124.8 236.8-259.2 140.8-96-179.2-9.6-16-137.6 188.8-256-192 230.4-313.6-105.6-198.4v-313.6l259.2 172.8 41.6 76.8 182.4-249.6 256 188.8zM540.8 748.8l67.2 124.8 147.2-80-67.2-124.8-73.6 38.4-73.6 41.6zM300.8 566.4l51.2 38.4-19.2 25.6-51.2-38.4-35.2 51.2 51.2 38.4-19.2 25.6-51.2-38.4-57.6 80 153.6 112 118.4-160-99.2-188.8-41.6 54.4zM268.8 220.8l137.6-70.4-137.6-92.8v163.2zM422.4 176l-147.2 76.8 236.8 438.4 147.2-76.8-236.8-438.4zM547.2 268.8l86.4 64-19.2 25.6-32-22.4 54.4 102.4 217.6-297.6-153.6-112-57.6 76.8 51.2 38.4-19.2 25.6-51.2-41.6-38.4 51.2 51.2 38.4-19.2 25.6-51.2-38.4-32 41.6 12.8 22.4z" />
<glyph unicode="&#xe937;" glyph-name="Icon_Thunder" d="M924.8 940.8c-6.4 12.8-19.2 19.2-32 19.2h-409.6l-300.8-428.8c-6.4-9.6-9.6-25.6-3.2-35.2 6.4-12.8 19.2-19.2 32-19.2h153.6l-265.6-489.6c-6.4-16-3.2-32 9.6-44.8 6.4-3.2 16-6.4 22.4-6.4s16 3.2 22.4 6.4l662.4 531.2c12.8 9.6 16 25.6 9.6 38.4s-19.2 22.4-32 22.4h-172.8l300.8 364.8c6.4 12.8 9.6 28.8 3.2 41.6zM531.2 531.2c-9.6-9.6-9.6-25.6-3.2-38.4s19.2-19.2 32-19.2h153.6l-489.6-390.4 217.6 403.2c6.4 9.6 6.4 25.6 0 35.2s-19.2 16-28.8 16h-147.2l252.8 358.4h313.6l-300.8-364.8z" />
<glyph unicode="&#xe938;" glyph-name="Icon_TImer1" d="M780.8 604.8c-51.2 51.2-112 86.4-179.2 102.4v41.6c25.6 9.6 44.8 32 44.8 60.8v86.4c0 35.2-28.8 64-64 64h-140.8c-35.2 0-64-28.8-64-64v-86.4c0-28.8 19.2-51.2 44.8-60.8v-41.6c-67.2-16-128-51.2-179.2-99.2-73.6-73.6-115.2-172.8-115.2-281.6 0-105.6 41.6-204.8 115.2-281.6 73.6-70.4 166.4-108.8 268.8-108.8 0 0 0 0 0 0 208 0 380.8 172.8 384 387.2 0 105.6-38.4 208-115.2 281.6zM441.6 896h140.8v-86.4h-140.8v86.4zM486.4 745.6h54.4v-28.8c-9.6 0-16 0-25.6 0 0 0 0 0 0 0-9.6 0-19.2 0-25.6 0v28.8zM512 0c0 0 0 0 0 0-83.2 0-163.2 32-224 92.8-64 60.8-96 147.2-96 236.8s35.2 172.8 96 236.8c60.8 60.8 137.6 92.8 224 92.8 0 0 0 0 0 0 83.2 0 163.2-35.2 224-96 60.8-64 96-150.4 96-236.8-3.2-182.4-147.2-326.4-320-326.4zM678.4 499.2c-44.8 44.8-102.4 70.4-166.4 70.4 0 0 0 0 0 0-60.8 0-121.6-25.6-166.4-70.4s-70.4-108.8-70.4-172.8c0-67.2 25.6-128 70.4-172.8s102.4-67.2 166.4-67.2c0 0 0 0 0 0 128 0 236.8 108.8 236.8 240 0 64-25.6 128-70.4 172.8zM512 150.4c-44.8 0-86.4 19.2-121.6 51.2-35.2 35.2-51.2 80-51.2 128s19.2 92.8 51.2 128c32 32 76.8 51.2 121.6 51.2 0 0 0 0 0 0 44.8 0 89.6-19.2 121.6-51.2 32-35.2 51.2-80 51.2-128 0-99.2-80-179.2-172.8-179.2zM576 441.6l-115.2-121.6c-12.8-12.8-12.8-32 0-44.8 6.4-6.4 12.8-9.6 22.4-9.6s16 3.2 22.4 9.6l118.4 121.6c12.8 12.8 12.8 32 0 44.8s-35.2 12.8-48 0z" />
<glyph unicode="&#xe939;" glyph-name="Icon_USBPlug" d="M956.8 566.4c-6.4 16-25.6 22.4-41.6 16-89.6-41.6-147.2-131.2-147.2-224v-182.4c-6.4-99.2-83.2-172.8-179.2-172.8h-28.8c-96 0-172.8 67.2-182.4 160h19.2c35.2 0 60.8 28.8 60.8 60.8v38.4h28.8c67.2 0 121.6 54.4 121.6 121.6v262.4c0 44.8-25.6 86.4-64 105.6v208h-416v-208c-38.4-19.2-64-57.6-64-105.6v-265.6c0-67.2 54.4-121.6 121.6-121.6l28.8 3.2v-38.4c0-35.2 28.8-60.8 60.8-60.8h38.4c12.8-128 118.4-224 246.4-224h28.8c128 0 233.6 99.2 243.2 233.6v185.6c0 70.4 41.6 134.4 108.8 166.4 16 6.4 22.4 25.6 16 41.6zM480 768h-112v128h112v-128zM192 896h112v-128h-112v128zM214.4 323.2h-28.8c-32 0-57.6 25.6-57.6 57.6v265.6c0 32 25.6 57.6 57.6 57.6h300.8c32 0 57.6-25.6 57.6-57.6v-265.6c0-32-25.6-57.6-57.6-57.6h-28.8c-35.2 0-60.8-28.8-60.8-60.8v0l3.2-38.4-118.4-3.2v38.4c-3.2 38.4-32 64-67.2 64z" />
<glyph unicode="&#xe93a;" glyph-name="Icon_VolumeHigh" d="M876.8 416c0 121.6-83.2 233.6-201.6 272v182.4c0 35.2-19.2 64-48 80-32 16-67.2 16-99.2-6.4l-300.8-240h-128c-54.4 0-96-41.6-96-96v-320c0-54.4 41.6-96 96-96h131.2l300.8-240c16-12.8 35.2-16 54.4-16 16 0 28.8 3.2 44.8 9.6 28.8 16 48 44.8 48 80v118.4c115.2 38.4 198.4 150.4 198.4 272zM812.8 416c0-86.4-54.4-166.4-137.6-204.8v409.6c80-38.4 137.6-118.4 137.6-204.8zM67.2 288v320c0 19.2 12.8 32 32 32h128v-384h-128c-16 0-32 12.8-32 32zM611.2 25.6c0-9.6-6.4-19.2-12.8-22.4-3.2-3.2-16-6.4-32 0l-275.2 220.8v448l275.2 217.6c16 9.6 28.8 6.4 32 3.2 9.6-3.2 12.8-12.8 12.8-22.4v-844.8zM780.8 796.8c-16 6.4-35.2 3.2-44.8-12.8s-3.2-35.2 12.8-44.8c131.2-76.8 208-195.2 208-323.2s-76.8-246.4-208-323.2c-16-9.6-19.2-28.8-12.8-44.8 6.4-9.6 16-16 28.8-16 6.4 0 9.6 0 16 3.2 150.4 89.6 240 230.4 240 380.8s-89.6 291.2-240 380.8z" />
<glyph unicode="&#xe93b;" glyph-name="Icon_VolumeLow" d="M800 694.4v176c0 32-19.2 64-48 80-32 19.2-73.6 16-105.6-3.2l-313.6-211.2h-204.8c-54.4 0-96-41.6-96-96v-384c0-54.4 41.6-96 96-96h208l310.4-208c16-12.8 35.2-16 57.6-16 16 0 32 3.2 48 12.8 32 16 48 44.8 48 80v137.6c115.2 38.4 192 144 192 265.6s-76.8 224-192 262.4zM288 224h-160c-19.2 0-32 12.8-32 32v384c0 19.2 12.8 32 32 32h160v-448zM736 710.4v-681.6c0-12.8-9.6-19.2-16-22.4-9.6-6.4-25.6-6.4-38.4 3.2l-329.6 217.6v444.8l329.6 217.6c12.8 9.6 28.8 6.4 38.4 0 6.4 0 16-9.6 16-19.2v-160zM800 233.6v393.6c76.8-35.2 128-108.8 128-195.2s-51.2-163.2-128-198.4z" />
<glyph unicode="&#xe93c;" glyph-name="Icon_Addreminder" d="M963.2 86.4c0 0-48 6.4-89.6 44.8-35.2 41.6-35.2 96-19.2 272 9.6 108.8 12.8 201.6-48 316.8l-3.2 3.2c-60.8 83.2-134.4 112-176 121.6v0c0 60.8-48 112-105.6 112h-25.6c-57.6 0-105.6-51.2-105.6-112-38.4-6.4-112-35.2-169.6-118.4l-3.2-3.2c-60.8-115.2-57.6-208-48-316.8 16-179.2 16-230.4-19.2-272-41.6-38.4-89.6-44.8-89.6-44.8l3.2-64h352c3.2-51.2 44.8-89.6 92.8-89.6 51.2 0 92.8 38.4 92.8 89.6h352l9.6 60.8zM512 0c-16 0-25.6 9.6-28.8 25.6h57.6c-3.2-16-16-25.6-28.8-25.6zM195.2 89.6c0 0 0 0 0 0v0c60.8 70.4 54.4 144 38.4 323.2-9.6 102.4-12.8 182.4 41.6 278.4 41.6 60.8 92.8 83.2 124.8 92.8h57.6v64c0 25.6 19.2 48 41.6 48h25.6c22.4 0 41.6-22.4 41.6-48v-64h54.4c32-9.6 86.4-32 134.4-96 51.2-99.2 51.2-176 41.6-278.4-16-179.2-22.4-256 35.2-320l3.2-3.2-640 3.2zM544 576h-64v-128h-131.2v-64h131.2v-131.2h64v131.2h131.2v64h-131.2z" />
<glyph unicode="&#xe93d;" glyph-name="Icon_AlignCenter" d="M80 960h864v-64h-864v64zM240 704h544v-64h-544v64zM80 480h864v-64h-864v64zM80 0h864v-64h-864v64zM240 224h544v-64h-544v64z" />
<glyph unicode="&#xe93e;" glyph-name="Icon_alignJustify" d="M96 960h832v-64h-832v64zM96 704h832v-64h-832v64zM96 480h832v-64h-832v64zM96 0h832v-64h-832v64zM96 224h832v-64h-832v64z" />
<glyph unicode="&#xe93f;" glyph-name="Icon_ALignleft" d="M96 960h832v-64h-832v64zM96 480h832v-64h-832v64zM96 0h832v-64h-832v64zM96 704h576v-64h-576v64zM96 224h576v-64h-576v64z" />
<glyph unicode="&#xe940;" glyph-name="Icon_AlignRight" d="M96 960h832v-64h-832v64zM96 480h832v-64h-832v64zM96 0h832v-64h-832v64zM352 736h576v-64h-576v64zM352 256h576v-64h-576v64z" />
<glyph unicode="&#xe941;" glyph-name="Icon_AntennaNew" d="M739.2-64l60.8 19.2-217.6 700.8c54.4 28.8 89.6 80 89.6 144 0 89.6-70.4 160-160 160s-160-70.4-160-160c0-64 35.2-115.2 89.6-144l-172.8-556.8-9.6-3.2 3.2-12.8-38.4-128 60.8-19.2 32 102.4 403.2-41.6 19.2-60.8zM585.6 435.2l41.6-137.6-182.4 48 140.8 89.6zM432 416l28.8 92.8 76.8-25.6-105.6-67.2zM512 896c54.4 0 96-41.6 96-96s-41.6-96-96-96-96 41.6-96 96c0 54.4 41.6 96 96 96zM512 640c3.2 0 6.4 0 9.6 0l28.8-92.8-70.4 22.4 22.4 70.4c3.2 0 6.4 0 9.6 0zM393.6 291.2l195.2-51.2-246.4-108.8 51.2 160zM416 92.8l240 105.6 41.6-134.4-281.6 28.8z" />
<glyph unicode="&#xe942;" glyph-name="Icon_Antenna" d="M512 960c-211.2 0-384-172.8-384-387.2 0-134.4 67.2-259.2 182.4-329.6 6.4-3.2 9.6-6.4 16-6.4 9.6 0 22.4 6.4 25.6 16 9.6 16 3.2 35.2-9.6 44.8-96 60.8-153.6 163.2-153.6 275.2 3.2 176 147.2 323.2 323.2 323.2s320-147.2 320-323.2c0-112-57.6-217.6-153.6-275.2-16-9.6-19.2-28.8-9.6-44.8s28.8-19.2 44.8-9.6c115.2 70.4 182.4 195.2 182.4 329.6 0 214.4-172.8 387.2-384 387.2zM646.4 396.8c-12.8-9.6-16-32-6.4-44.8 6.4-6.4 16-12.8 25.6-12.8 6.4 0 12.8 3.2 19.2 6.4 67.2 54.4 108.8 134.4 108.8 224 0 156.8-124.8 284.8-281.6 284.8s-281.6-128-281.6-284.8c0-86.4 38.4-169.6 108.8-224 12.8-9.6 35.2-9.6 44.8 6.4 9.6 12.8 9.6 35.2-6.4 44.8-54.4 41.6-83.2 105.6-83.2 172.8 0 121.6 96 220.8 217.6 220.8s217.6-99.2 217.6-220.8c0-67.2-32-128-83.2-172.8zM595.2 444.8c38.4 25.6 60.8 70.4 60.8 121.6 0 83.2-67.2 150.4-147.2 150.4s-147.2-67.2-147.2-150.4c0-54.4 28.8-102.4 70.4-128l-160-460.8c-6.4-16 3.2-35.2 19.2-41.6 9.6 0 12.8 0 16 0 12.8 0 25.6 9.6 28.8 22.4l44.8 128h265.6l41.6-128c6.4-16 22.4-25.6 41.6-19.2 16 6.4 25.6 22.4 19.2 41.6l-153.6 464zM512 652.8c44.8 0 83.2-38.4 83.2-86.4s-38.4-86.4-83.2-86.4c-44.8 0-83.2 38.4-83.2 86.4s38.4 86.4 83.2 86.4zM403.2 150.4l86.4 252.8c16-3.2 35.2-3.2 51.2 0l83.2-252.8h-220.8zM435.2 208c0-19.2 12.8-32 32-32h86.4c19.2 0 32 12.8 32 32s-12.8 32-32 32h-86.4c-16 0-32-12.8-32-32z" />
<glyph unicode="&#xe943;" glyph-name="Icon_ArrowheadLeft" d="M211.2 448l588.8-512v1024l-588.8-512zM736 76.8l-428.8 371.2 428.8 371.2v-742.4z" />
<glyph unicode="&#xe944;" glyph-name="Icon_ArrowheadRight" d="M224 960v-1024l588.8 512-588.8 512zM288 819.2l428.8-371.2-428.8-371.2v742.4z" />
<glyph unicode="&#xe945;" glyph-name="Icon_Attach" d="M649.6 960h-275.2c-73.6 0-134.4-57.6-134.4-128v-768c0-70.4 60.8-128 134.4-128h137.6c73.6 0 134.4 57.6 134.4 128v640c0 70.4-60.8 128-134.4 128s-134.4-57.6-134.4-128v-512h64v512c0 35.2 32 64 70.4 64s70.4-28.8 70.4-64v-640c0-35.2-32-64-70.4-64h-137.6c-38.4 0-70.4 28.8-70.4 64v768c0 35.2 32 64 70.4 64h275.2c38.4 0 70.4-28.8 70.4-64v-640h64v640c0 70.4-60.8 128-134.4 128z" />
<glyph unicode="&#xe946;" glyph-name="Icon_Audit" d="M998.4-6.4l-172.8 147.2c19.2 28.8 32 64 32 102.4 0 102.4-80 182.4-182.4 182.4-99.2 0-182.4-83.2-182.4-182.4 0-102.4 80-182.4 182.4-182.4 38.4 0 73.6 12.8 105.6 32l179.2-150.4 38.4 51.2zM672 124.8c-64 0-118.4 54.4-118.4 118.4s54.4 118.4 118.4 118.4c64 0 118.4-54.4 118.4-118.4s-51.2-118.4-118.4-118.4zM256 768h352v-192h224v-160h64v204.8l-211.2 211.2h-492.8v-896h416v64h-352v768zM787.2 640h-115.2v115.2l115.2-115.2zM576 960h-544v-928h64v864h480z" />
<glyph unicode="&#xe947;" glyph-name="Icon_Backward" d="M323.2 448l464 467.2-44.8 44.8-508.8-512 512-512 44.8 44.8z" />
<glyph unicode="&#xe948;" glyph-name="Icon_Bin" d="M512 960c-236.8 0-409.6-70.4-409.6-166.4 0-16 6.4-32 16-48l70.4-678.4v-9.6l9.6-6.4c0 0 134.4-115.2 323.2-115.2 108.8 0 214.4 38.4 310.4 112l6.4 6.4 3.2 9.6c9.6 35.2 57.6 576 67.2 688 9.6 12.8 12.8 28.8 12.8 41.6 0 96-172.8 166.4-409.6 166.4zM809.6 243.2c0 0 0 0 0 0 0-12.8-3.2-25.6-3.2-35.2 0 0 0 0 0-3.2 0-6.4 0-16-3.2-22.4 0-3.2 0-9.6 0-12.8 0-6.4 0-12.8-3.2-19.2 0-3.2 0-6.4 0-9.6 0-12.8-3.2-25.6-3.2-35.2 0-3.2 0-6.4 0-6.4 0-6.4 0-9.6-3.2-12.8-265.6-195.2-499.2-41.6-550.4 0l-64 608c3.2 0 6.4-3.2 9.6-3.2 3.2-6.4 6.4-6.4 12.8-9.6 3.2-3.2 9.6-6.4 16-9.6 6.4 0 12.8-3.2 16-3.2 9.6-3.2 16-6.4 22.4-9.6s9.6-3.2 16-6.4c9.6 0 16-3.2 25.6-3.2 6.4 0 12.8-3.2 19.2-3.2 9.6-3.2 19.2-3.2 25.6-6.4 6.4 0 12.8-3.2 19.2-3.2 9.6 0 19.2-3.2 28.8-3.2 6.4 0 12.8-3.2 19.2-3.2 9.6 0 22.4-3.2 35.2-3.2 6.4 0 9.6 0 16 0 16 0 35.2 0 51.2 0 19.2 0 35.2 0 54.4 0 6.4 0 12.8 0 16 0 12.8 0 22.4 0 35.2 3.2 6.4 0 12.8 3.2 19.2 3.2 9.6 0 19.2 3.2 28.8 3.2 6.4 0 12.8 3.2 19.2 3.2 9.6 0 16 3.2 25.6 6.4 6.4 0 12.8 3.2 19.2 3.2 6.4 3.2 16 3.2 22.4 6.4s12.8 3.2 19.2 6.4c6.4 3.2 12.8 3.2 22.4 6.4 6.4 3.2 9.6 3.2 16 6.4s12.8 6.4 19.2 9.6c3.2 3.2 9.6 3.2 12.8 6.4 3.2 0 6.4 3.2 9.6 3.2-16-153.6-32-326.4-41.6-451.2zM860.8 771.2v0l-6.4-3.2c-38.4-41.6-160-89.6-342.4-89.6-179.2 0-304 44.8-342.4 86.4v3.2c-9.6 6.4-12.8 16-12.8 25.6 0 48 134.4 115.2 355.2 115.2s355.2-67.2 355.2-115.2c0-6.4-3.2-16-6.4-22.4z" />
<glyph unicode="&#xe949;" glyph-name="Icon_Bluetooth" d="M844.8 233.6l-291.2 230.4 281.6 224-380.8 272v-419.2l-217.6 176-41.6-32 262.4-208v-22.4l-275.2-220.8 41.6-32 233.6 185.6v-451.2l387.2 297.6zM515.2 854.4l236.8-169.6-236.8-185.6v355.2zM515.2 428.8l246.4-195.2-246.4-188.8v384z" />
<glyph unicode="&#xe94a;" glyph-name="Icon_Bookmark" d="M192 960v-1008l313.6 326.4 326.4-339.2v1020.8h-640zM768 99.2l-262.4 272-249.6-262.4v787.2h512v-796.8z" />
<glyph unicode="&#xe94b;" glyph-name="Icon_Bookmark1" d="M864 809.6c-6.4 51.2-54.4 150.4-185.6 150.4h-518.4l67.2-41.6c0 0 99.2-60.8 99.2-153.6 0-108.8 3.2-774.4 3.2-774.4v-51.2l275.2 265.6 262.4-265.6-3.2 870.4zM819.2 44.8l-217.6 217.6-230.4-224c0 160-3.2 633.6-3.2 723.2 0 67.2-35.2 118.4-70.4 150.4h380.8c121.6 0 140.8-108.8 140.8-108.8v-758.4z" />
<glyph unicode="&#xe94c;" glyph-name="Icon_Broadband" d="M800 960v-1024h192v1024h-192zM928 0h-64v896h64v-896zM544-64h192v832h-192v-832zM608 704h64v-704h-64v704zM288-64h192v640h-192v-640zM352 512h64v-512h-64v512zM32-64h192v448h-192v-448zM96 320h64v-320h-64v320z" />
<glyph unicode="&#xe94d;" glyph-name="Icon_BurnDisc" d="M790.4 412.8c3.2 9.6 6.4 22.4 6.4 32 6.4 41.6 3.2 83.2-6.4 124.8-12.8 54.4-41.6 105.6-76.8 147.2l-41.6 44.8-16-57.6c0-6.4-3.2-9.6-6.4-16-3.2-9.6-9.6-16-19.2-22.4-9.6 60.8-22.4 105.6-44.8 147.2-19.2 32-44.8 60.8-76.8 86.4l-76.8 60.8 28.8-96c32-108.8 19.2-169.6-44.8-208-19.2 12.8-32 25.6-38.4 41.6-3.2 9.6-6.4 19.2-9.6 32l-9.6 83.2-48-67.2c-32-44.8-54.4-92.8-70.4-140.8-16-54.4-19.2-108.8-12.8-156.8 3.2-9.6 3.2-19.2 6.4-32-25.6-44.8-41.6-102.4-41.6-160 0-176 144-320 320-320s320 144 320 320c0 57.6-16 112-41.6 156.8zM300.8 585.6c6.4 22.4 16 44.8 25.6 67.2 16-25.6 41.6-44.8 57.6-54.4s38.4-9.6 54.4 0c73.6 41.6 96 105.6 99.2 163.2 16-32 25.6-70.4 28.8-121.6 3.2-28.8 28.8-48 57.6-44.8 6.4 0 12.8 3.2 19.2 6.4 19.2 9.6 32 22.4 44.8 35.2 16-25.6 28.8-51.2 35.2-80 6.4-22.4 9.6-48 9.6-70.4-57.6 57.6-137.6 92.8-224 92.8s-166.4-35.2-224-92.8c3.2 28.8 6.4 64 16 99.2zM512 0c-140.8 0-256 115.2-256 256s115.2 256 256 256 256-115.2 256-256-115.2-256-256-256zM512 368c-60.8 0-112-51.2-112-112s51.2-112 112-112 112 51.2 112 112-51.2 112-112 112zM512 208c-25.6 0-48 22.4-48 48s22.4 48 48 48 48-22.4 48-48-22.4-48-48-48z" />
<glyph unicode="&#xe94e;" glyph-name="Icon_Calculator" d="M96 960v-1024h800v1024h-800zM832 0h-672v896h672v-896zM768 832h-512v-224h512v224zM704 672h-384v96h384v-96zM368 476.8c0-26.51-21.49-48-48-48s-48 21.49-48 48c0 26.51 21.49 48 48 48s48-21.49 48-48zM752 476.8c0-26.51-21.49-48-48-48s-48 21.49-48 48c0 26.51 21.49 48 48 48s48-21.49 48-48zM560 476.8c0-26.51-21.49-48-48-48s-48 21.49-48 48c0 26.51 21.49 48 48 48s48-21.49 48-48zM368 300.8c0-26.51-21.49-48-48-48s-48 21.49-48 48c0 26.51 21.49 48 48 48s48-21.49 48-48zM752 300.8c0-26.51-21.49-48-48-48s-48 21.49-48 48c0 26.51 21.49 48 48 48s48-21.49 48-48zM560 300.8c0-26.51-21.49-48-48-48s-48 21.49-48 48c0 26.51 21.49 48 48 48s48-21.49 48-48zM368 121.6c0-26.51-21.49-48-48-48s-48 21.49-48 48c0 26.51 21.49 48 48 48s48-21.49 48-48zM752 121.6c0-26.51-21.49-48-48-48s-48 21.49-48 48c0 26.51 21.49 48 48 48s48-21.49 48-48zM560 121.6c0-26.51-21.49-48-48-48s-48 21.49-48 48c0 26.51 21.49 48 48 48s48-21.49 48-48z" />
<glyph unicode="&#xe94f;" glyph-name="Icon_Calender" d="M928 896h-96v64h-64v-64h-512v64h-64v-64h-96c-35.2 0-64-28.8-64-64v-832c0-35.2 28.8-64 64-64h832c35.2 0 64 28.8 64 64v832c0 35.2-28.8 64-64 64zM928 832v-192h-832v192h832zM96 0v576h832v-576h-832zM928-32v0zM224 768h576v-64h-576v64zM224 480h96v-64h-96v64zM224 320h96v-64h-96v64zM224 160h96v-64h-96v64zM464 480h96v-64h-96v64zM464 320h96v-64h-96v64zM464 160h96v-64h-96v64zM704 480h96v-64h-96v64zM704 320h96v-64h-96v64zM704 160h96v-64h-96v64z" />
<glyph unicode="&#xe950;" glyph-name="Icon_ClipboardNextdown" d="M832 64l-214.4 217.6-44.8-44.8 233.6-236.8h-182.4v-64h272v288h-64zM768 832v41.6h-140.8c-12.8 51.2-60.8 86.4-118.4 86.4s-102.4-35.2-118.4-86.4h-134.4v-41.6h-128v-896h396.8l-64 64h-268.8v768h64v-128h512v128h64v-377.6l64-64v505.6h-128zM704 704h-384v96h131.2v41.6c0 32 25.6 54.4 57.6 54.4s57.6-25.6 57.6-54.4v-41.6h137.6v-96z" />
<glyph unicode="&#xe951;" glyph-name="Icon_Clipboard" d="M736 800v64h-105.6c-12.8 54.4-60.8 96-118.4 96s-102.4-41.6-118.4-96h-105.6v-64h-160v-864h768v864h-160zM352 800h102.4v32c0 32 28.8 64 57.6 64s57.6-32 57.6-64v-32h102.4v-96h-320v96zM832 0h-640v736h96v-96h448v96h96v-736z" />
<glyph unicode="&#xe952;" glyph-name="Icon_ClosedBook" d="M896 729.6h-57.6v230.4h-563.2c-80 0-147.2-67.2-147.2-147.2 0-3.2 0-6.4 0-9.6v0-771.2c0-51.2 44.8-96 96-96h592c41.6 0 76.8 32 76.8 73.6v720zM275.2 896h496v-166.4h-76.8v115.2h-419.2c-19.2 0-32-16-32-32 0-19.2 16-32 32-32h355.2v-51.2h-355.2c-44.8 0-80 38.4-80 83.2s35.2 83.2 80 83.2zM828.8 9.6c0-6.4-6.4-9.6-12.8-9.6h-588.8c-19.2 0-32 12.8-32 32v659.2c22.4-16 51.2-25.6 83.2-25.6h553.6v-656z" />
<glyph unicode="&#xe953;" glyph-name="Icon_Compass" d="M585.6 867.2c-16 73.6-41.6 92.8-64 92.8 0 0-3.2 0-3.2 0-38.4-3.2-64-51.2-70.4-89.6-230.4-35.2-406.4-230.4-406.4-464 0-259.2 211.2-470.4 470.4-470.4s470.4 211.2 470.4 470.4c0 233.6-172.8 425.6-396.8 460.8zM521.6 918.4v0c3.2 0 12.8-9.6 22.4-48-9.6 0-19.2 0-32 0-6.4 0-16 0-22.4 0 6.4 28.8 22.4 48 32 48zM512-12.8c-230.4 0-416 185.6-416 416s185.6 416 416 416c230.4 0 416-185.6 416-416 0-227.2-185.6-416-416-416zM281.6 192l323.2 121.6h3.2l134.4 336-329.6-144-131.2-313.6zM646.4 550.4l-67.2-166.4-102.4 92.8 169.6 73.6zM544 345.6l-166.4-64 64 156.8 102.4-92.8z" />
<glyph unicode="&#xe954;" glyph-name="Icon_Contacts" d="M723.2 416c0 80-44.8 147.2-115.2 179.2 25.6 22.4 41.6 57.6 41.6 92.8 0 70.4-57.6 124.8-128 124.8s-128-57.6-128-124.8c0-38.4 16-70.4 41.6-92.8-67.2-32-115.2-99.2-115.2-179.2v-32h393.6v32zM528 752c35.2 0 64-28.8 64-60.8 0-35.2-28.8-60.8-64-60.8s-64 28.8-64 60.8c0 32 28.8 60.8 64 60.8zM396.8 448c12.8 60.8 64 102.4 131.2 102.4s115.2-41.6 131.2-102.4h-262.4zM128 960v-1024h768v1024h-768zM832 0h-640v896h640v-896zM608 256h-192c-19.2 0-32-12.8-32-32s12.8-32 32-32h192c19.2 0 32 12.8 32 32s-12.8 32-32 32zM608 128h-192c-19.2 0-32-12.8-32-32s12.8-32 32-32h192c19.2 0 32 12.8 32 32s-12.8 32-32 32z" />
<glyph unicode="&#xe955;" glyph-name="Icon_Copy" d="M832 672h-64v192c0 54.4-41.6 96-96 96h-268.8l-307.2-339.2v-428.8c0-54.4 41.6-96 96-96h128v-64c0-54.4 41.6-96 96-96h416c54.4 0 96 41.6 96 96v544c0 54.4-41.6 96-96 96zM384 844.8v-172.8c0-19.2-12.8-32-32-32h-153.6l185.6 204.8zM192 160c-19.2 0-32 12.8-32 32v384h192c54.4 0 96 41.6 96 96v224h224c19.2 0 32-12.8 32-32v-192h-144l-240-275.2v-236.8h-128zM576 592v-144c0-19.2-12.8-32-32-32h-121.6l153.6 176zM864 32c0-19.2-12.8-32-32-32h-416c-19.2 0-32 12.8-32 32v320h160c54.4 0 96 41.6 96 96v160h192c19.2 0 32-12.8 32-32v-544z" />
<glyph unicode="&#xe956;" glyph-name="Icon_Cursor" d="M992 102.4l-361.6 364.8c60.8 38.4 134.4 70.4 230.4 92.8 16 3.2 28.8 16 32 35.2 3.2 16-6.4 35.2-25.6 41.6l-780.8 320c-12.8 6.4-28.8 3.2-41.6-6.4-12.8-12.8-16-28.8-9.6-41.6l288-844.8c6.4-16 19.2-25.6 38.4-25.6 3.2 0 3.2 0 6.4 0 19.2 3.2 32 19.2 32 38.4s9.6 121.6 73.6 230.4l358.4-371.2 160 166.4zM352 179.2l-240 697.6 662.4-272c-294.4-89.6-390.4-297.6-422.4-425.6zM508.8 358.4c19.2 25.6 41.6 48 70.4 73.6l323.2-329.6-70.4-73.6-323.2 329.6z" />
<glyph unicode="&#xe957;" glyph-name="Icon_Database" d="M960 752c0 118.4-192 208-448 208-249.6 0-438.4-86.4-448-201.6v0-617.6c6.4-118.4 195.2-204.8 448-204.8s444.8 89.6 448 204.8v0 604.8c0 0 0 3.2 0 6.4zM512 896c227.2 0 384-76.8 384-144s-156.8-144-384-144-384 73.6-384 144 156.8 144 384 144zM512 0c-227.2 0-384 76.8-384 144v92.8c76.8-60.8 217.6-99.2 384-99.2s307.2 38.4 384 99.2v-92.8c0-67.2-156.8-144-384-144zM512 201.6c-227.2 0-384 76.8-384 144v92.8c76.8-60.8 217.6-99.2 384-99.2s307.2 38.4 384 99.2v-92.8c0-67.2-156.8-144-384-144zM512 403.2c-227.2 0-384 76.8-384 144v92.8c76.8-60.8 217.6-99.2 384-99.2s307.2 38.4 384 99.2v-92.8c0-67.2-156.8-144-384-144z" />
<glyph unicode="&#xe958;" glyph-name="Icon_DataFiles" d="M832 768h-32v32c0 35.2-28.8 64-64 64h-32v32c0 35.2-28.8 64-64 64h-268.8l-243.2-243.2v-524.8c0-35.2 28.8-64 64-64h32v-32c0-35.2 28.8-64 64-64h32v-32c0-35.2 28.8-64 64-64h448c35.2 0 64 28.8 64 64v704c0 35.2-28.8 64-64 64zM352 851.2v-115.2h-115.2l115.2 115.2zM192 192v480h224v224h224v-704h-448zM288 96v32h352c35.2 0 64 28.8 64 64v608h32v-704h-448zM832 0h-448v32h352c35.2 0 64 28.8 64 64v608h32v-704z" />
<glyph unicode="&#xe959;" glyph-name="Icon_DataMerge" d="M633.6 960c-19.2 0-32-12.8-32-32s12.8-32 32-32h243.2l-368-368-368 368h243.2c19.2 0 32 12.8 32 32s-12.8 32-32 32h-320c0 0 0 0 0 0h-32v-352c0-19.2 12.8-32 32-32s32 12.8 32 32v243.2l384-384v-499.2c0-19.2 12.8-32 32-32s32 12.8 32 32v505.6l384 384v-249.6c0-19.2 12.8-32 32-32s32 12.8 32 32v352h-358.4z" />
<glyph unicode="&#xe95a;" glyph-name="Icon_DataMerge1" d="M982.4-9.6l-435.2 428.8v419.2l179.2-176c6.4-6.4 12.8-9.6 22.4-9.6s16 3.2 22.4 9.6c12.8 12.8 12.8 32 0 44.8l-256 252.8-249.6-246.4c-12.8-12.8-12.8-32 0-44.8s32-12.8 44.8 0l172.8 169.6v-409.6l-441.6-438.4c-12.8-12.8-12.8-32 0-44.8 6.4-6.4 12.8-9.6 22.4-9.6s16 3.2 22.4 9.6l425.6 419.2 425.6-419.2c6.4-6.4 12.8-9.6 22.4-9.6s16 3.2 22.4 9.6c12.8 12.8 12.8 32 0 44.8z" />
<glyph unicode="&#xe95b;" glyph-name="Icon_DeviceTablet" d="M128 960v-1024h768v1024h-768zM832 0h-640v896h640v-896zM768 800h-512v-640h512v640zM704 224h-384v512h384v-512zM560 80c0-26.51-21.49-48-48-48s-48 21.49-48 48c0 26.51 21.49 48 48 48s48-21.49 48-48z" />
<glyph unicode="&#xe95c;" glyph-name="Icon_Device" d="M784 960h-544c-35.2 0-64-28.8-64-64v-896c0-35.2 28.8-64 64-64h544c35.2 0 64 28.8 64 64v896c0 35.2-28.8 64-64 64zM240 0v896h544v-896h-544zM444.8 832h134.4v-64h-134.4v64zM377.6 128h268.8v-64h-268.8v64z" />
<glyph unicode="&#xe95d;" glyph-name="Icon_DocumentEdit" d="M832 960h-460.8l-243.2-243.2v-716.8c0-35.2 28.8-64 64-64h640c35.2 0 64 28.8 64 64v896c0 35.2-28.8 64-64 64zM352 851.2v-115.2h-115.2l115.2 115.2zM832 0h-640v672h224v224h416v-896zM326.4 281.6l-6.4-6.4-60.8-163.2-6.4-22.4 12.8-16c6.4-6.4 16-9.6 25.6-9.6 3.2 0 6.4 0 6.4 0l172.8 38.4 9.6 3.2 275.2 262.4c6.4 6.4 9.6 16 9.6 25.6v16l-128 124.8c-12.8 12.8-35.2 12.8-48 0l-262.4-252.8zM396.8 259.2l131.2 128 76.8-73.6-134.4-128-73.6 73.6zM361.6 204.8l51.2-51.2-76.8-16 25.6 67.2zM691.2 393.6l-38.4-35.2-76.8 73.6 38.4 35.2 76.8-73.6z" />
<glyph unicode="&#xe95e;" glyph-name="Icon_Document" d="M832 960h-460.8l-243.2-243.2v-716.8c0-35.2 28.8-64 64-64h640c35.2 0 64 28.8 64 64v896c0 35.2-28.8 64-64 64zM352 851.2v-115.2h-115.2l115.2 115.2zM832 0h-640v672h224v224h416v-896z" />
<glyph unicode="&#xe95f;" glyph-name="Icon_DownArrow" d="M883.2 400l-339.2-339.2v899.2h-64v-899.2l-339.2 339.2-44.8-48 416-416 416 416-44.8 48zM508.8 32h9.6l-6.4-3.2-3.2 3.2z" />
<glyph unicode="&#xe960;" glyph-name="Icon_Ear" d="M512 960c-188.8 0-342.4-153.6-342.4-345.6 0-19.2 12.8-32 32-32s32 12.8 32 32c0 156.8 124.8 281.6 278.4 281.6s278.4-124.8 278.4-281.6c0-70.4-32-115.2-70.4-172.8-51.2-73.6-105.6-156.8-105.6-307.2 0-76.8-60.8-137.6-134.4-137.6s-134.4 60.8-134.4 137.6c0 19.2-12.8 32-32 32s-32-12.8-32-32c0-112 89.6-201.6 198.4-201.6s198.4 89.6 198.4 201.6c0 131.2 48 201.6 92.8 272 38.4 57.6 80 118.4 80 208 3.2 192-150.4 345.6-339.2 345.6zM585.6 499.2c-16-9.6-19.2-28.8-9.6-44.8s28.8-19.2 44.8-9.6c54.4 38.4 86.4 99.2 86.4 166.4 0 108.8-89.6 198.4-198.4 198.4-112 0-198.4-105.6-198.4-198.4-3.2-44.8 9.6-83.2 22.4-115.2 22.4-54.4 41.6-102.4-19.2-192-9.6-16-6.4-35.2 9.6-44.8 6.4-3.2 12.8-6.4 16-6.4 9.6 0 19.2 6.4 25.6 16 76.8 118.4 48 192 25.6 249.6-6.4 32-16 57.6-12.8 89.6v3.2c0 60.8 64 134.4 134.4 134.4 73.6 0 134.4-60.8 134.4-134.4 0-44.8-22.4-86.4-60.8-112z" />
<glyph unicode="&#xe961;" glyph-name="Icon_Edit2" d="M771.2 947.2c-73.6 38.4-150.4-12.8-153.6-12.8l-432-694.4-6.4-304 246.4 169.6 9.6 12.8 3.2 3.2v3.2l406.4 672 3.2 6.4c-3.2 3.2 3.2 102.4-76.8 144zM649.6 899.2c12.8 6.4 54.4 28.8 96 12.8l-419.2-672c-28.8 12.8-57.6 16-80 16l403.2 643.2zM224 19.2l6.4 185.6c25.6 6.4 102.4 9.6 153.6-76.8l-160-108.8zM412.8 163.2c-19.2 28.8-41.6 48-64 60.8l416 672c32-25.6 35.2-70.4 35.2-86.4l-387.2-646.4z" />
<glyph unicode="&#xe962;" glyph-name="Icon_Euro-Tag" d="M579.2 832l-41.6-51.2 134.4-105.6v-675.2h-448v675.2l134.4 108.8-41.6 48-134.4-108.8c-12.8-9.6-22.4-28.8-22.4-48v-675.2c0-35.2 28.8-64 64-64h448c35.2 0 64 28.8 64 64v675.2c0 19.2-9.6 38.4-22.4 51.2l-134.4 105.6zM787.2 896c-57.6 57.6-134.4 64-185.6 64-35.2 0-86.4-12.8-128-54.4-38.4-41.6-57.6-96-57.6-169.6 0-19.2 16-32 32-32 0 0 0 0 0 0 19.2 0 32 16 32 32 0 54.4 12.8 96 41.6 124.8 25.6 25.6 60.8 35.2 80 35.2 67.2 0 108.8-12.8 140.8-44.8 38.4-38.4 57.6-108.8 57.6-211.2 0-19.2 12.8-32 32-32 0 0 0 0 0 0 16 0 32 12.8 32 32 0 121.6-25.6 204.8-76.8 256zM540.8 512c16 0 22.4 0 35.2-3.2 16-6.4 35.2 3.2 38.4 22.4s-3.2 35.2-22.4 38.4c-22.4 6.4-32 6.4-54.4 6.4-99.2 0-182.4-60.8-217.6-144h-32c-19.2 0-32-12.8-32-32s12.8-32 32-32h19.2c0-6.4 0-9.6 0-16s0-9.6 0-16h-19.2c-19.2 0-32-12.8-32-32s12.8-32 32-32h35.2c32-83.2 118.4-144 214.4-144 25.6 0 41.6 0 67.2 9.6 16 6.4 25.6 22.4 19.2 41.6-6.4 16-22.4 25.6-41.6 19.2-16-6.4-22.4-6.4-44.8-6.4-60.8 0-115.2 32-144 80h118.4c19.2 0 32 12.8 32 32s-12.8 32-32 32h-140.8c0 6.4-3.2 9.6-3.2 16s0 9.6 3.2 16h172.8c19.2 0 32 12.8 32 32s-12.8 32-32 32h-150.4c28.8 48 83.2 80 147.2 80z" />
<glyph unicode="&#xe963;" glyph-name="Icon_Flag2" d="M96 896h64v-960h-64v960zM880 940.8c-44.8-19.2-105.6-32-163.2-35.2-48-3.2-76.8 3.2-166.4 25.6-25.6 6.4-54.4 12.8-86.4 19.2-182.4 41.6-240-57.6-240-60.8l-6.4-6.4v-454.4l48 28.8c38.4 22.4 112 35.2 198.4 35.2 41.6 0 128-25.6 188.8-44.8 22.4-6.4 44.8-12.8 64-19.2s38.4-6.4 54.4-6.4c73.6 0 134.4 38.4 137.6 38.4l12.8 9.6v486.4l-41.6-16zM860.8 505.6c-22.4-12.8-73.6-32-124.8-16-16 3.2-38.4 9.6-60.8 19.2-67.2 22.4-153.6 48-208 48-38.4 0-118.4-3.2-185.6-25.6v332.8c12.8 16 57.6 51.2 169.6 25.6 35.2-6.4 64-12.8 86.4-19.2 92.8-22.4 128-28.8 182.4-25.6 48 3.2 96 12.8 137.6 25.6v-364.8z" />
<glyph unicode="&#xe964;" glyph-name="Icon_Flashdrive" d="M256 640v-704h480v704h-480zM672 0h-352v576h352v-576zM672 960h-352v-256h352v256zM608 768h-224v128h224v-128zM464 835.2c0-10.604-8.596-19.2-19.2-19.2s-19.2 8.596-19.2 19.2c0 10.604 8.596 19.2 19.2 19.2s19.2-8.596 19.2-19.2zM569.6 835.2c0-10.604-8.596-19.2-19.2-19.2s-19.2 8.596-19.2 19.2c0 10.604 8.596 19.2 19.2 19.2s19.2-8.596 19.2-19.2zM400 128h192v-64h-192v64z" />
<glyph unicode="&#xe965;" glyph-name="Icon_Forward" d="M278.4 960l-44.8-44.8 467.2-467.2-464-467.2 44.8-44.8 508.8 512z" />
<glyph unicode="&#xe966;" glyph-name="Icon_Gift" d="M896 704h-179.2c41.6 25.6 67.2 57.6 76.8 89.6 12.8 51.2-16 89.6-25.6 102.4-44.8 48-89.6 67.2-131.2 60.8-38.4-6.4-70.4-32-99.2-83.2-9.6-16-19.2-41.6-25.6-67.2-6.4 25.6-16 48-25.6 67.2-28.8 51.2-60.8 80-99.2 83.2-41.6 6.4-86.4-16-131.2-64-19.2-22.4-32-60.8-22.4-102.4 9.6-32 35.2-64 76.8-89.6h-182.4c-35.2 0-64-28.8-64-64v-128c0-35.2 28.8-64 64-64v-448c0-35.2 28.8-64 64-64h640c35.2 0 64 28.8 64 64v451.2c35.2 0 64 28.8 64 64v128c0 35.2-28.8 64-64 64zM672 512h-320v128h108.8c0 0 0 0 0 0s0 0 0 0h105.6c0 0 0 0 0 0s0 0 0 0h105.6v-128zM576 448v-448h-128v448h128zM595.2 844.8c16 32 35.2 48 51.2 51.2 0 0 3.2 0 3.2 0 19.2 0 41.6-16 70.4-41.6 3.2-3.2 16-22.4 9.6-44.8s-38.4-64-169.6-105.6h-9.6c9.6 44.8 28.8 108.8 44.8 140.8zM294.4 812.8c-6.4 22.4 6.4 38.4 6.4 38.4 28.8 28.8 51.2 44.8 70.4 44.8 0 0 3.2 0 3.2 0 16-3.2 35.2-19.2 51.2-51.2 16-28.8 32-92.8 41.6-140.8h-6.4c-128 41.6-160 86.4-166.4 108.8zM128 640h160v-128h-160v128zM192 448h192v-448h-192v448zM832 0h-192v448h192v-448zM896 512h-160v128h160v-128z" />
<glyph unicode="&#xe967;" glyph-name="Icon_Globe" d="M819.2 0h-300.8v105.6c259.2 22.4 460.8 233.6 460.8 489.6 0 124.8-48 246.4-137.6 336l-22.4 22.4-89.6-89.6c-67.2 60.8-156.8 96-256 96-204.8 0-374.4-163.2-374.4-364.8 0-92.8 38.4-179.2 96-246.4l-89.6-89.6 25.6-22.4c89.6-80 204.8-128 323.2-131.2v-105.6h-323.2c-19.2 0-32-12.8-32-32s12.8-32 32-32h688c19.2 0 32 12.8 32 32s-12.8 32-32 32zM476.8 896c172.8 0 313.6-134.4 313.6-300.8s-140.8-300.8-313.6-300.8-313.6 134.4-313.6 300.8c0 166.4 140.8 300.8 313.6 300.8zM243.2 307.2c64-48 144-76.8 230.4-76.8 208 0 377.6 163.2 377.6 364.8 0 83.2-28.8 160-76.8 220.8l44.8 48c64-76.8 99.2-169.6 99.2-268.8 0-236.8-198.4-425.6-441.6-425.6-102.4 0-198.4 32-275.2 92.8l41.6 44.8z" />
<glyph unicode="&#xe968;" glyph-name="Icon_HardDrive" d="M905.6 960h-787.2c-48 0-86.4-35.2-86.4-80v-864c0-44.8 38.4-80 86.4-80h787.2c48 0 86.4 35.2 86.4 80v864c0 44.8-38.4 80-86.4 80zM947.2 16c0-19.2-19.2-38.4-41.6-38.4h-787.2c-22.4 0-41.6 16-41.6 38.4v864c0 19.2 19.2 38.4 41.6 38.4h787.2c22.4 0 41.6-16 41.6-38.4v-864zM515.2 572.8c-48 0-86.4-38.4-86.4-86.4s38.4-86.4 86.4-86.4c48 0 86.4 38.4 86.4 86.4s-38.4 86.4-86.4 86.4zM515.2 441.6c-25.6 0-44.8 19.2-44.8 44.8s19.2 44.8 44.8 44.8c25.6 0 44.8-19.2 44.8-44.8s-22.4-44.8-44.8-44.8zM515.2 806.4c-176 0-320-144-320-320s144-320 320-320c28.8 0 57.6 3.2 86.4 12.8l22.4 6.4-32 35.2-9.6-3.2c-22.4-6.4-48-9.6-70.4-9.6-153.6 0-278.4 124.8-278.4 278.4s124.8 278.4 278.4 278.4c153.6 0 278.4-124.8 278.4-278.4 0-76.8-28.8-147.2-83.2-198.4l-19.2-19.2 44.8-12.8 6.4 6.4c60.8 60.8 92.8 140.8 92.8 224 3.2 176-140.8 320-316.8 320zM624 307.2l-25.6-12.8 70.4-150.4 147.2-35.2 9.6 32-134.4 32z" />
<glyph unicode="&#xe969;" glyph-name="Icon_Hook" d="M848 832c0 70.4-57.6 128-128 128s-128-57.6-128-128c0-60.8 41.6-108.8 96-124.8v-531.2c0-99.2-80-176-176-176s-176 80-176 176v48h96l-131.2 256-124.8-256h96v-48c0-134.4 108.8-240 240-240s240 108.8 240 240v531.2c54.4 16 96 64 96 124.8zM304 336l25.6-48h-51.2l25.6 48zM720 768c-35.2 0-64 28.8-64 64s28.8 64 64 64 64-28.8 64-64-28.8-64-64-64z" />
<glyph unicode="&#xe96a;" glyph-name="Icon_keyaccess" d="M768 704c0 140.8-115.2 256-256 256s-256-115.2-256-256c0-131.2 99.2-236.8 224-252.8v-227.2h-128c-19.2 0-32-12.8-32-32s12.8-32 32-32h128v-32h-128c-19.2 0-32-12.8-32-32s12.8-32 32-32h128v-96c0-19.2 12.8-32 32-32s32 12.8 32 32v483.2c124.8 16 224 121.6 224 252.8zM512 512c-105.6 0-192 86.4-192 192s86.4 192 192 192 192-86.4 192-192-86.4-192-192-192z" />
<glyph unicode="&#xe96b;" glyph-name="Icon_Key" d="M953.6 313.6c-38.4 48-96 76.8-156.8 83.2-51.2 6.4-102.4-6.4-144-35.2l-486.4 598.4-48-41.6 51.2-64-150.4-118.4 41.6-51.2 150.4 121.6 44.8-54.4-76.8-64 41.6-48 76.8 64 310.4-380.8c-76.8-83.2-83.2-211.2-9.6-300.8 38.4-48 96-76.8 156.8-83.2 9.6 0 16 0 22.4 0 54.4 0 105.6 19.2 147.2 51.2 96 80 108.8 224 28.8 323.2zM880 38.4c-35.2-28.8-76.8-41.6-121.6-38.4s-83.2 25.6-112 60.8v0c-57.6 70.4-48 176 25.6 236.8 28.8 25.6 67.2 38.4 105.6 38.4 6.4 0 12.8 0 16 0 44.8-3.2 83.2-25.6 112-60.8 57.6-73.6 44.8-179.2-25.6-236.8zM777.6 259.2c-54.4 0-96-44.8-96-96s44.8-96 96-96 96 44.8 96 96-44.8 96-96 96zM777.6 96c-35.2 0-64 28.8-64 64s28.8 64 64 64 64-28.8 64-64-28.8-64-64-64z" />
<glyph unicode="&#xe96c;" glyph-name="Icon_Link" d="M512 960c-124.8 0-224-115.2-224-252.8v-614.4c0-86.4 70.4-156.8 160-156.8s160 70.4 160 156.8v582.4c0 51.2-41.6 92.8-96 92.8s-96-41.6-96-92.8v-451.2c0-19.2 12.8-32 32-32s32 12.8 32 32v451.2c0 16 12.8 28.8 32 28.8s32-12.8 32-28.8v-582.4c0-51.2-41.6-92.8-96-92.8s-96 41.6-96 92.8v614.4c0 102.4 70.4 188.8 160 188.8s160-86.4 160-188.8v-396.8c0-19.2 12.8-32 32-32s32 12.8 32 32v396.8c0 137.6-99.2 252.8-224 252.8z" />
<glyph unicode="&#xe96d;" glyph-name="Icon_link1" d="M921.6 246.4l-272 268.8c0 0 0 0 0 0l-220.8 217.6c-41.6 38.4-108.8 38.4-150.4-3.2-22.4-19.2-32-48-32-76.8s9.6-51.2 28.8-70.4l384-377.6c6.4-6.4 12.8-9.6 22.4-9.6s16 3.2 22.4 9.6c12.8 12.8 12.8 32 0 44.8l-384 377.6c-6.4 6.4-9.6 16-9.6 25.6 0 12.8 6.4 22.4 12.8 32 19.2 16 48 19.2 60.8 3.2l355.2-352c0 0 0 0 0 0l137.6-134.4c22.4-22.4 35.2-51.2 35.2-83.2s-12.8-60.8-35.2-83.2c-48-48-124.8-48-169.6 0l-163.2 163.2-355.2 345.6c-48 48-76.8 112-76.8 172.8 0 48 19.2 96 51.2 128 76.8 76.8 214.4 64 304-25.6l336-332.8c12.8-12.8 32-12.8 44.8 0s12.8 32 0 44.8l-336 336c-115.2 112-291.2 124.8-393.6 22.4-44.8-44.8-70.4-105.6-70.4-172.8 0-80 35.2-160 96-217.6l518.4-512c35.2-35.2 83.2-51.2 128-51.2 48 0 96 19.2 131.2 54.4s54.4 80 54.4 131.2c0 48-19.2 92.8-54.4 124.8z" />
<glyph unicode="&#xe96e;" glyph-name="Icon_link2" d="M534.4 960h-44.8c-92.8 0-169.6-76.8-169.6-169.6v-192c0-19.2 12.8-32 32-32s32 12.8 32 32v192c0 57.6 48 105.6 105.6 105.6h44.8c57.6 0 105.6-48 105.6-105.6v-297.6c0-54.4-41.6-99.2-92.8-105.6-3.2 0-6.4 0-12.8 0-19.2 0-32-12.8-32-32s12.8-32 32-32c6.4 0 12.8 0 19.2 0 86.4 9.6 150.4 80 150.4 169.6v297.6c0 92.8-76.8 169.6-169.6 169.6zM672 339.2c-19.2 0-32-12.8-32-32v-201.6c0-57.6-48-105.6-105.6-105.6h-44.8c-57.6 0-105.6 48-105.6 105.6v297.6c0 57.6 48 105.6 105.6 105.6h44.8c19.2 0 32 12.8 32 32s-12.8 32-32 32h-44.8c-92.8 0-169.6-76.8-169.6-169.6v-297.6c0-92.8 76.8-169.6 169.6-169.6h44.8c92.8 0 169.6 76.8 169.6 169.6v201.6c0 16-12.8 32-32 32z" />
<glyph unicode="&#xe96f;" glyph-name="Icon_link3" d="M608 480c54.4 0 96 41.6 96 96v288c0 54.4-41.6 96-96 96h-192c-54.4 0-96-41.6-96-96v-288c0-54.4 41.6-96 96-96h64v-64h-64c-54.4 0-96-41.6-96-96v-288c0-54.4 41.6-96 96-96h192c54.4 0 96 41.6 96 96v288c0 54.4-41.6 96-96 96h-64v64h64zM608 352c19.2 0 32-12.8 32-32v-288c0-19.2-12.8-32-32-32h-192c-19.2 0-32 12.8-32 32v288c0 19.2 12.8 32 32 32h64v-160c0-19.2 12.8-32 32-32s32 12.8 32 32v160h64zM416 544c-19.2 0-32 12.8-32 32v288c0 19.2 12.8 32 32 32h192c19.2 0 32-12.8 32-32v-288c0-19.2-12.8-32-32-32h-64v160c0 19.2-12.8 32-32 32s-32-12.8-32-32v-160h-64z" />
<glyph unicode="&#xe970;" glyph-name="Icon_link4" d="M576 512c54.4 0 96 41.6 96 96v256c0 54.4-41.6 96-96 96h-128c-54.4 0-96-41.6-96-96v-256c0-54.4 41.6-96 96-96h32v-128h-32c-54.4 0-96-41.6-96-96v-256c0-54.4 41.6-96 96-96h128c54.4 0 96 41.6 96 96v256c0 54.4-41.6 96-96 96h-32v128h32zM576 320c19.2 0 32-12.8 32-32v-256c0-19.2-12.8-32-32-32h-128c-19.2 0-32 12.8-32 32v256c0 19.2 12.8 32 32 32h32v-64c0-19.2 12.8-32 32-32s32 12.8 32 32v64h32zM448 576c-19.2 0-32 12.8-32 32v256c0 19.2 12.8 32 32 32h128c19.2 0 32-12.8 32-32v-256c0-19.2-12.8-32-32-32h-32v64c0 19.2-12.8 32-32 32s-32-12.8-32-32v-64h-32z" />
<glyph unicode="&#xe971;" glyph-name="Icon_LocationPin" d="M256 960v-1024l544 547.2v476.8h-544zM736 512l-416-416v800h416v-384z" />
<glyph unicode="&#xe972;" glyph-name="Icon_Location" d="M512 800c-92.8 0-166.4-83.2-166.4-182.4 0-102.4 73.6-182.4 166.4-182.4s166.4 83.2 166.4 182.4c0 99.2-73.6 182.4-166.4 182.4zM512 480c-67.2 0-121.6 60.8-121.6 137.6s54.4 137.6 121.6 137.6 121.6-60.8 121.6-137.6-54.4-137.6-121.6-137.6zM512 960c-172.8 0-313.6-160-313.6-358.4 0-182.4 80-358.4 128-448 28.8-54.4 64-108.8 96-147.2 57.6-70.4 76.8-70.4 89.6-70.4s35.2 0 89.6 70.4c32 41.6 67.2 92.8 96 147.2 48 89.6 128 262.4 128 448 0 198.4-140.8 358.4-313.6 358.4zM512-3.2c-28.8 9.6-259.2 300.8-259.2 604.8 0 163.2 115.2 294.4 259.2 294.4 140.8 0 259.2-134.4 259.2-294.4 0-300.8-230.4-595.2-259.2-604.8z" />
<glyph unicode="&#xe973;" glyph-name="Icon_Login" d="M1024 105.6v3.2c-16 80-96 96-268.8 99.2 0 0-3.2 0-6.4 0-16 0-44.8 3.2-64 32-12.8 16-22.4 76.8 0 108.8l22.4 32c6.4 9.6 12.8 16 19.2 25.6 32 41.6 67.2 86.4 67.2 140.8v140.8c0 67.2-22.4 131.2-60.8 179.2-51.2 60.8-121.6 92.8-198.4 92.8 0 0 0 0-3.2 0-112 0-176-57.6-211.2-105.6-32-44.8-48-99.2-48-160v-150.4c0-51.2 35.2-92.8 64-131.2 6.4-9.6 16-19.2 22.4-28.8s12.8-19.2 16-25.6c12.8-25.6 12.8-89.6-6.4-108.8-9.6-9.6-22.4-19.2-35.2-25.6-16-6.4-32-9.6-54.4-9.6-153.6-6.4-230.4-22.4-249.6-99.2l3.2-179.2h995.2v163.2l-3.2 6.4zM960 0h-864v99.2c6.4 22.4 28.8 41.6 188.8 44.8 28.8 0 54.4 6.4 76.8 16s44.8 25.6 57.6 41.6c38.4 41.6 38.4 134.4 12.8 182.4-6.4 9.6-12.8 19.2-19.2 32-6.4 9.6-16 19.2-22.4 32-22.4 28.8-51.2 64-51.2 92.8v153.6c0 48 12.8 89.6 35.2 124.8 35.2 51.2 89.6 76.8 156.8 76.8 0 0 0 0 3.2 0 60.8 0 108.8-22.4 147.2-67.2 28.8-38.4 48-86.4 48-140.8v-140.8c0-32-28.8-70.4-54.4-102.4-6.4-9.6-12.8-19.2-19.2-28.8l-22.4-32c-41.6-60.8-19.2-153.6 3.2-182.4 38.4-51.2 89.6-54.4 112-57.6h6.4c160-3.2 198.4-19.2 208-44.8v-99.2z" />
<glyph unicode="&#xe974;" glyph-name="Icon_MIcrophone" d="M800 480c-19.2 0-32-12.8-32-32v-28.8c0-144-115.2-259.2-256-259.2s-256 115.2-256 259.2v28.8c0 19.2-12.8 32-32 32s-32-12.8-32-32v-28.8c0-166.4 128-304 288-320v-99.2h-160c-19.2 0-32-12.8-32-32s12.8-32 32-32h384c19.2 0 32 12.8 32 32s-12.8 32-32 32h-160v99.2c160 16 288 153.6 288 320v28.8c0 19.2-12.8 32-32 32zM512 192c124.8 0 224 99.2 224 224v320c0 124.8-99.2 224-224 224s-224-99.2-224-224v-320c0-124.8 99.2-224 224-224zM512 896c89.6 0 160-70.4 160-160v-128h-320v128c0 89.6 70.4 160 160 160zM352 544h320v-128c0-89.6-70.4-160-160-160s-160 70.4-160 160v128z" />
<glyph unicode="&#xe975;" glyph-name="Icon_MoneyGold" d="M857.6 265.6c-28.8 144-134.4 294.4-233.6 374.4l60.8 150.4v6.4c0 9.6-3.2 51.2-32 67.2-12.8 6.4-35.2 12.8-60.8-6.4-3.2-3.2-6.4-3.2-9.6-6.4l-70.4 108.8-70.4-102.4c-3.2 3.2-6.4 3.2-9.6 6.4-28.8 16-48 12.8-60.8 6.4-32-16-32-60.8-32-67.2v-6.4l60.8-153.6c-105.6-96-198.4-243.2-230.4-371.2-22.4-86.4-9.6-160 35.2-214.4 83.2-108.8 249.6-121.6 316.8-121.6 118.4 0 227.2 44.8 288 121.6 48 57.6 64 131.2 48 208zM403.2 806.4c9.6-6.4 16-9.6 19.2-12.8 9.6-6.4 19.2-9.6 32-9.6s22.4 6.4 28.8 19.2l28.8 41.6 28.8-44.8c6.4-9.6 16-16 28.8-16s22.4 0 32 9.6c3.2 3.2 9.6 6.4 19.2 12.8 0 0 0 0 0 0l-44.8-118.4h-128l-44.8 118.4c0 0 0 0 0 0zM761.6 96c-48-60.8-140.8-96-240-96-121.6 0-220.8 35.2-265.6 92.8-32 41.6-38.4 96-22.4 160 32 131.2 137.6 288 249.6 371.2h60.8c86.4-48 220.8-211.2 256-368 6.4-64-3.2-115.2-38.4-160zM585.6 310.4c-9.6 6.4-19.2 9.6-32 16-22.4 9.6-41.6 16-64 25.6-16 6.4-22.4 19.2-19.2 35.2s16 28.8 28.8 32c22.4 3.2 38.4-6.4 51.2-22.4 6.4-6.4 9.6-16 12.8-25.6 19.2 6.4 38.4 16 57.6 25.6-6.4 19.2-12.8 35.2-25.6 48-19.2 19.2-41.6 28.8-67.2 32 0 12.8 0 25.6 0 38.4-16 0-28.8 0-41.6 0 0-12.8 0-25.6 0-38.4-3.2 0-6.4 0-9.6-3.2-32-6.4-54.4-19.2-70.4-48-6.4-12.8-12.8-28.8-12.8-44.8-6.4-44.8 16-80 54.4-102.4 12.8-6.4 28.8-12.8 41.6-19.2 16-6.4 32-12.8 48-19.2 12.8-6.4 19.2-19.2 19.2-32 0-16-6.4-28.8-22.4-35.2-32-16-70.4 0-83.2 35.2-3.2 6.4-3.2 9.6-3.2 16-12.8-3.2-22.4-6.4-32-9.6s-22.4-6.4-32-9.6c12.8-54.4 44.8-92.8 105.6-99.2 0-16 0-35.2 0-51.2 16 0 28.8 0 41.6 0 0 16 0 35.2 0 51.2 3.2 0 6.4 0 6.4 0 57.6 6.4 92.8 44.8 96 102.4 6.4 48-9.6 83.2-48 102.4z" />
<glyph unicode="&#xe976;" glyph-name="Icon_Mouse" d="M537.6 768c-6.4 38.4-9.6 92.8 16 102.4 19.2 6.4 32 0 57.6-12.8 19.2-12.8 44.8-25.6 76.8-32 28.8-3.2 51.2 3.2 70.4 22.4 41.6 35.2 41.6 105.6 41.6 112h-64c0-16-6.4-51.2-19.2-67.2-3.2-3.2-9.6-6.4-19.2-6.4-19.2 3.2-35.2 12.8-51.2 22.4-28.8 16-64 38.4-112 19.2-67.2-25.6-64-112-54.4-163.2-147.2-19.2-256-137.6-256-284.8v-256c0-160 128-288 288-288s288 128 288 288v256c0 150.4-115.2 275.2-262.4 288zM512 704v0c0 0 0 0 0 0s0 0 0 0zM288 480c0 112 83.2 204.8 192 220.8v-252.8h-192v32zM736 224c0-124.8-99.2-224-224-224s-224 99.2-224 224v160h448v-160zM736 448h-192v252.8c108.8-16 192-108.8 192-220.8v-32z" />
<glyph unicode="&#xe977;" glyph-name="Icon_Move" d="M512-64l480 480h-960l480-480zM512 25.6l-326.4 326.4h649.6l-323.2-326.4zM992 960h-960l480-480 480 480zM185.6 896h649.6l-323.2-326.4-326.4 326.4z" />
<glyph unicode="&#xe978;" glyph-name="Icon_MSSystemsetting" d="M918.4 355.2c-67.2 67.2-163.2 86.4-249.6 60.8l-96 102.4 272 265.6c19.2 19.2 32 44.8 32 73.6s-9.6 54.4-32 73.6c-41.6 38.4-105.6 38.4-147.2 0l-265.6-262.4-118.4 124.8c-28.8 28.8-67.2 48-105.6 48s-70.4-12.8-96-38.4c-25.6-25.6-38.4-57.6-38.4-96s19.2-76.8 48-105.6l176-160-243.2-236.8-22.4-73.6 76.8 25.6 243.2 240 156.8-140.8c-6.4-22.4-12.8-48-12.8-73.6 0-64 25.6-128 73.6-172.8 48-48 108.8-70.4 176-70.4 32 0 64 6.4 92.8 19.2l44.8 19.2-147.2 147.2c-3.2 3.2-6.4 9.6-6.4 16s3.2 12.8 6.4 16l38.4 38.4c9.6 9.6 25.6 9.6 35.2 0l147.2-144 19.2 44.8c35.2 83.2 12.8 188.8-57.6 259.2zM473.6 620.8l265.6 262.4c16 16 41.6 16 57.6 0 6.4-6.4 12.8-16 12.8-28.8 0-9.6-3.2-19.2-12.8-28.8l-268.8-265.6-32 32-22.4 28.8zM166.4 652.8c-19.2 16-28.8 35.2-28.8 57.6 0 19.2 6.4 35.2 19.2 48s32 19.2 48 19.2c22.4 0 44.8-9.6 60.8-28.8l342.4-364.8c-12.8-9.6-28.8-19.2-38.4-32-12.8-12.8-22.4-25.6-32-38.4l-371.2 339.2zM928 163.2l-73.6 73.6c-35.2 35.2-89.6 35.2-124.8 0l-38.4-38.4c-16-16-25.6-38.4-25.6-64 0-22.4 9.6-44.8 25.6-60.8l73.6-70.4c-54.4-6.4-108.8 12.8-147.2 51.2-35.2 35.2-54.4 80-54.4 128s19.2 92.8 54.4 128c35.2 35.2 83.2 54.4 131.2 54.4s92.8-16 131.2-51.2c35.2-44.8 51.2-99.2 48-150.4zM185.6 732.8c-12.8-12.8-12.8-35.2 0-51.2 12.8-12.8 38.4-12.8 51.2 0s12.8 35.2 0 51.2c-16 12.8-38.4 12.8-51.2 0z" />
<glyph unicode="&#xe979;" glyph-name="Icon_MSSystemsetting12" d="M489.6 435.2l352 348.8c19.2 19.2 32 44.8 32 73.6s-9.6 54.4-32 73.6c-41.6 38.4-105.6 38.4-147.2 0l-352-348.8 147.2-147.2zM742.4 883.2c16 16 41.6 16 57.6 0 6.4-6.4 12.8-16 12.8-28.8 0-9.6-3.2-19.2-12.8-28.8l-307.2-304-57.6 54.4 307.2 307.2zM361.6 505.6l-304-300.8-25.6-73.6 76.8 22.4 304 300.8zM918.4 355.2c-67.2 67.2-163.2 86.4-249.6 60.8l-67.2 73.6-48-44.8 54.4-60.8c-12.8-9.6-28.8-19.2-38.4-32-12.8-12.8-22.4-25.6-32-38.4l-115.2 102.4-41.6-48 128-115.2c-6.4-22.4-12.8-48-12.8-73.6 0-64 25.6-128 73.6-172.8 48-48 108.8-70.4 176-70.4 32 0 64 6.4 92.8 19.2l44.8 19.2-147.2 147.2c-3.2 3.2-6.4 9.6-6.4 16s3.2 12.8 6.4 16l38.4 38.4c9.6 9.6 25.6 9.6 35.2 0l147.2-144 19.2 44.8c35.2 86.4 12.8 192-57.6 262.4zM928 163.2l-73.6 73.6c-35.2 35.2-89.6 35.2-124.8 0l-38.4-38.4c-16-16-25.6-38.4-25.6-64 0-22.4 9.6-44.8 25.6-60.8l73.6-70.4c-54.4-6.4-108.8 12.8-147.2 51.2-35.2 35.2-54.4 80-54.4 128s19.2 92.8 54.4 128c35.2 35.2 83.2 54.4 131.2 54.4s92.8-16 131.2-51.2c35.2-44.8 51.2-99.2 48-150.4zM275.2 467.2l41.6 48-150.4 137.6c-19.2 16-28.8 35.2-28.8 57.6 0 19.2 6.4 35.2 19.2 48s32 19.2 48 19.2c22.4 0 44.8-9.6 60.8-28.8l92.8-99.2 48 44.8-92.8 99.2c-28.8 28.8-67.2 48-105.6 48s-70.4-12.8-96-38.4c-25.6-25.6-38.4-57.6-38.4-96s19.2-76.8 48-105.6l153.6-134.4zM185.6 732.8c-12.8-12.8-12.8-35.2 0-51.2 12.8-12.8 38.4-12.8 51.2 0s12.8 35.2 0 51.2c-16 12.8-38.4 12.8-51.2 0z" />
<glyph unicode="&#xe97a;" glyph-name="Icon_Newspaper" d="M905.6 960h-579.2c-48 0-124.8-48-124.8-105.6v-16h-112c-41.6 0-73.6-32-73.6-73.6v-764.8c0-35.2 28.8-64 64-64h124.8c3.2 0 6.4 0 9.6 0v0h681.6c6.4 0 9.6 0 16 0h16v3.2c41.6 9.6 76.8 41.6 76.8 83.2v832c3.2 54.4-48 105.6-99.2 105.6zM201.6 0h-121.6v764.8c0 6.4 3.2 9.6 9.6 9.6h112v-774.4zM944 25.6c0-9.6-16-19.2-35.2-22.4h-640v851.2c-3.2 12.8 32 41.6 57.6 41.6h579.2c16 0 38.4-22.4 38.4-41.6v-828.8zM342.4 774.4h217.6v-64h-217.6v64zM342.4 649.6h217.6v-64h-217.6v64zM681.6 774.4h185.6v-64h-185.6v64zM681.6 371.2h185.6v-64h-185.6v64zM681.6 249.6h185.6v-64h-185.6v64zM342.4 528h217.6v-64h-217.6v64zM342.4 371.2h217.6v-64h-217.6v64zM342.4 249.6h217.6v-64h-217.6v64zM665.6 432h217.6v188.8h-217.6v-188.8zM729.6 556.8h89.6v-60.8h-89.6v60.8z" />
<glyph unicode="&#xe97b;" glyph-name="Icon_Noreminder" d="M272 691.2c41.6 60.8 92.8 83.2 128 92.8h57.6v64c0 25.6 19.2 48 41.6 48h25.6c22.4 0 41.6-22.4 41.6-48v-64h54.4c32-9.6 89.6-32 134.4-96l51.2 38.4c-60.8 83.2-134.4 112-176 121.6v0c0 60.8-48 112-105.6 112h-25.6c-57.6 0-105.6-51.2-105.6-112-41.6-9.6-115.2-38.4-172.8-121.6l-3.2-3.2c-25.6-44.8-41.6-92.8-48-140.8l64-9.6c3.2 41.6 19.2 80 38.4 118.4zM848 320c3.2 25.6 3.2 54.4 6.4 86.4l-64 6.4c-3.2-32-6.4-60.8-6.4-86.4-9.6-115.2-3.2-179.2 44.8-233.6l3.2-3.2h-640c0 0 0 0 0 0l3.2 3.2c44.8 54.4 41.6 108.8 38.4 163.2v3.2l-64-3.2v-3.2c3.2-51.2 6.4-83.2-22.4-118.4-41.6-38.4-89.6-44.8-89.6-44.8l3.2-64h355.2c3.2-51.2 44.8-89.6 92.8-89.6 51.2 0 92.8 38.4 92.8 89.6h355.2l6.4 64c0 0-48 9.6-89.6 44.8-25.6 35.2-32 73.6-25.6 185.6zM512 0c-16 0-28.8 9.6-28.8 25.6h60.8c-6.4-16-16-25.6-32-25.6zM7.82 348.766l987.597 335.91 20.608-60.589-987.597-335.91-20.608 60.589z" />
<glyph unicode="&#xe97c;" glyph-name="Icon_Openedbook" d="M512 659.2l-448 233.6v-723.2l441.6-233.6 454.4 236.8v713.6l-448-227.2zM128 787.2l352-182.4v-579.2l-352 182.4v579.2zM896 211.2l-352-182.4v576l352 179.2v-572.8zM867.2 902.4l-32 57.6-320-176-336 176-28.8-57.6 364.8-192z" />
<glyph unicode="&#xe97d;" glyph-name="Icon_Pause" d="M192-64h217.6v1024h-217.6v-1024zM252.8 899.2h96v-902.4h-96v902.4zM582.4 960v-1024h217.6v1024h-217.6zM739.2-3.2h-96v902.4h96v-902.4z" />
<glyph unicode="&#xe97e;" glyph-name="Icon_Phonebook" d="M848 960h-672c-25.6 0-48-22.4-48-48v-208h60.8c16 0 32-12.8 35.2-25.6 0-9.6 0-19.2-6.4-25.6-6.4-9.6-16-12.8-25.6-12.8h-64v-160h60.8c16 0 32-12.8 35.2-25.6 0-9.6 0-19.2-6.4-25.6-6.4-9.6-16-12.8-25.6-12.8h-64v-160h60.8c16 0 32-12.8 35.2-25.6 0-9.6 0-19.2-6.4-25.6-6.4-9.6-16-12.8-25.6-12.8h-64v-208c0-25.6 22.4-48 48-48h672c25.6 0 48 22.4 48 48v928c0 25.6-22.4 48-48 48zM832 0h-640v128c28.8 0 54.4 12.8 73.6 35.2s25.6 51.2 22.4 76.8c-6.4 44.8-48 80-96 80v32c28.8 0 54.4 12.8 73.6 35.2s25.6 51.2 22.4 76.8c-6.4 44.8-48 80-96 80v32c28.8 0 54.4 12.8 73.6 35.2 19.2 19.2 25.6 48 22.4 76.8-9.6 44.8-48 76.8-96 80v128h640v-896zM480 291.2c32-41.6 73.6-67.2 121.6-67.2v0c0 0 0 0 3.2 0 41.6 0 73.6 9.6 105.6 32 12.8 9.6 22.4 25.6 25.6 41.6s0 35.2-12.8 48c-22.4 28.8-44.8 57.6-67.2 89.6-9.6 12.8-25.6 22.4-41.6 22.4-12.8 0-22.4-3.2-32-6.4-12.8 19.2-28.8 41.6-38.4 57.6l-9.6 3.2 3.2 3.2c16 19.2 19.2 48 6.4 70.4-19.2 28.8-35.2 60.8-54.4 89.6-16 25.6-48 35.2-73.6 22.4-54.4-28.8-83.2-76.8-83.2-137.6 0-38.4 12.8-76.8 35.2-108.8 28.8-44.8 80-118.4 112-160zM435.2 636.8c16-28.8 32-54.4 48-80l-3.2-3.2c-22.4-25.6-22.4-48-3.2-73.6l9.6-12.8c16-22.4 41.6-60.8 54.4-76.8 9.6-12.8 19.2-16 28.8-19.2 6.4 0 19.2 0 32 9.6l3.2 3.2c0 0 3.2 3.2 3.2 3.2 22.4-25.6 41.6-54.4 64-80-22.4-12.8-41.6-19.2-70.4-19.2-25.6 0-51.2 16-70.4 41.6-32 41.6-83.2 112-112 153.6-16 22.4-25.6 48-22.4 70.4-3.2 41.6 12.8 64 38.4 83.2z" />
<glyph unicode="&#xe97f;" glyph-name="Icon_Play" d="M64 960v-1024l896 531.2-896 492.8zM121.6 864l723.2-396.8-723.2-428.8v825.6z" />
<glyph unicode="&#xe980;" glyph-name="Icon_Pressure1" d="M563.2 640c0 3.2 0 9.6-3.2 12.8l115.2 153.6-153.6-115.2c-3.2 0-9.6 3.2-12.8 3.2-28.8 0-51.2-22.4-51.2-51.2s22.4-51.2 51.2-51.2 54.4 19.2 54.4 48zM544 188.8v67.2c19.2 0 32 12.8 32 32v38.4c147.2 28.8 256 160 256 313.6 0 176-144 320-320 320s-320-144-320-320c0-153.6 108.8-284.8 256-313.6v-38.4c0-19.2 12.8-32 32-32v-67.2c-124.8-16-224-124.8-224-252.8h64c0 105.6 86.4 192 192 192s192-86.4 192-192h64c0 131.2-99.2 236.8-224 252.8zM256 640c0 140.8 115.2 256 256 256s256-115.2 256-256-115.2-256-256-256-256 115.2-256 256z" />
<glyph unicode="&#xe981;" glyph-name="Icon_QRCode" d="M128 832h96v-96h-96v96zM128 160h96v-96h-96v96zM768 832h96v-96h-96v96zM0 544h64v-96h-64v96zM64 448h64v-96h-64v96zM544 128h64v-64h-64v64zM678.4 294.4c25.6 35.2 41.6 76.8 41.6 121.6 0 115.2-92.8 208-208 208s-208-92.8-208-208 92.8-208 208-208c44.8 0 86.4 16 121.6 38.4l240-236.8c6.4-6.4 12.8-9.6 22.4-9.6s16 3.2 22.4 9.6c12.8 12.8 12.8 32 0 44.8l-240 240zM512 272c-80 0-144 64-144 144s64 144 144 144 144-64 144-144-64-144-144-144zM256 544h-128v-64h64v-128h54.4c-6.4 19.2-6.4 41.6-6.4 64 0 32 6.4 64 16 89.6v38.4zM352 636.8v323.2h-352v-352h320c9.6 9.6 19.2 19.2 32 28.8zM288 672h-224v224h224v-224zM640 960v-304c22.4-12.8 44.8-28.8 64-48h288v352h-352zM928 672h-224v224h224v-224zM272 288h-272v-352h352v259.2c-32 25.6-60.8 57.6-80 92.8zM288 0h-224v224h224v-224zM704 64v-64h-32v64h-64v-64h-128v128h-64v-128h64v-64h288v89.6l-38.4 38.4zM928 480h-64v-128h-86.4c-3.2-9.6-6.4-19.2-9.6-25.6v-28.8l6.4-6.4h153.6v128h64v128h-64v-67.2zM512 688c22.4 0 44.8-3.2 64-6.4v150.4h-96v64h96v64h-160v-192h96v-32h-96v-64h6.4c28.8 9.6 57.6 16 89.6 16z" />
<glyph unicode="&#xe982;" glyph-name="Icon_ReminderOk" d="M963.2 86.4c0 0-48 9.6-89.6 44.8-35.2 41.6-35.2 96-19.2 272 9.6 108.8 12.8 201.6-48 316.8l-3.2 3.2c-60.8 83.2-134.4 112-176 124.8v0c0 60.8-48 112-105.6 112h-25.6c-57.6 0-105.6-51.2-105.6-112-38.4-9.6-112-38.4-169.6-121.6l-3.2-3.2c-60.8-115.2-57.6-204.8-48-316.8 16-179.2 16-230.4-19.2-272-41.6-38.4-89.6-44.8-89.6-44.8l3.2-64h348.8c3.2-48 44.8-89.6 92.8-89.6 51.2 0 89.6 38.4 92.8 89.6h358.4l6.4 60.8zM505.6 0c-16 0-25.6 9.6-28.8 25.6h57.6c0-16-12.8-25.6-28.8-25.6zM195.2 89.6c0 0 0 0 0 0v0c60.8 70.4 54.4 144 38.4 323.2-9.6 102.4-12.8 182.4 41.6 278.4 41.6 60.8 92.8 83.2 124.8 92.8h57.6v64c0 25.6 19.2 48 41.6 48h25.6c22.4 0 41.6-22.4 41.6-48v-64h54.4c32-9.6 86.4-32 134.4-96 51.2-99.2 51.2-176 41.6-278.4-16-179.2-22.4-256 35.2-320l3.2-3.2-640 3.2zM691.2 528l-227.2-227.2-89.6 92.8-44.8-48 134.4-134.4 41.6 41.6 233.6 230.4z" />
<glyph unicode="&#xe983;" glyph-name="Icon_Reminder" d="M963.2 86.4c0 0-48 9.6-89.6 44.8-35.2 41.6-35.2 96-19.2 272 9.6 108.8 12.8 201.6-48 316.8l-3.2 3.2c-60.8 83.2-134.4 112-176 121.6v0c0 60.8-48 112-105.6 112h-25.6c-57.6 0-105.6-51.2-105.6-112-38.4-6.4-112-35.2-169.6-118.4l-3.2-3.2c-60.8-115.2-57.6-208-48-316.8 16-179.2 16-230.4-19.2-272-41.6-38.4-89.6-44.8-89.6-44.8l3.2-64h352c3.2-51.2 44.8-89.6 92.8-89.6 51.2 0 92.8 38.4 92.8 89.6h352l9.6 60.8zM512 0c-16 0-25.6 9.6-28.8 25.6h57.6c-3.2-16-16-25.6-28.8-25.6zM195.2 89.6c0 0 0 0 0 0v0c60.8 70.4 54.4 144 38.4 323.2-9.6 102.4-12.8 182.4 41.6 278.4 41.6 60.8 92.8 83.2 124.8 92.8h57.6v64c0 25.6 19.2 48 41.6 48h25.6c22.4 0 41.6-22.4 41.6-48v-64h54.4c32-9.6 86.4-32 134.4-96 51.2-99.2 51.2-176 41.6-278.4-16-179.2-22.4-256 35.2-320l3.2-3.2-640 3.2z" />
<glyph unicode="&#xe984;" glyph-name="Icon_RemoveReminder" d="M963.2 86.4c0 0-48 6.4-89.6 44.8-35.2 41.6-35.2 96-19.2 272 9.6 108.8 12.8 201.6-48 316.8l-3.2 3.2c-60.8 83.2-134.4 112-176 121.6v0c0 60.8-48 112-105.6 112h-25.6c-57.6 0-105.6-51.2-105.6-112-38.4-6.4-112-35.2-169.6-118.4l-3.2-3.2c-60.8-115.2-57.6-208-48-316.8 16-179.2 16-230.4-19.2-272-41.6-38.4-89.6-44.8-89.6-44.8l3.2-64h352c3.2-51.2 44.8-89.6 92.8-89.6 51.2 0 92.8 38.4 92.8 89.6h352l9.6 60.8zM512 0c-16 0-25.6 9.6-28.8 25.6h57.6c-3.2-16-16-25.6-28.8-25.6zM195.2 89.6c0 0 0 0 0 0v0c60.8 70.4 54.4 144 38.4 323.2-9.6 102.4-12.8 182.4 41.6 278.4 41.6 60.8 92.8 83.2 124.8 92.8h57.6v64c0 25.6 19.2 48 41.6 48h25.6c22.4 0 41.6-22.4 41.6-48v-64h54.4c32-9.6 86.4-32 134.4-96 51.2-99.2 51.2-176 41.6-278.4-16-179.2-22.4-256 35.2-320l3.2-3.2-640 3.2zM352 448h326.4v-64h-326.4v64z" />
<glyph unicode="&#xe985;" glyph-name="Icon_Salesman" d="M508.8 576c105.6 0 192 86.4 192 192s-86.4 192-192 192c-105.6 0-192-86.4-192-192s86.4-192 192-192zM508.8 896c70.4 0 128-57.6 128-128s-57.6-128-128-128c-70.4 0-128 57.6-128 128s57.6 128 128 128zM598.4 531.2h-172.8c-156.8 0-281.6-124.8-281.6-281.6v-243.2l19.2-6.4c9.6-3.2 166.4-64 364.8-64 102.4 0 217.6 16 329.6 64l19.2 9.6v240c3.2 156.8-124.8 281.6-278.4 281.6zM816 51.2c-256-99.2-531.2-22.4-608 0v198.4c0 118.4 99.2 217.6 217.6 217.6h172.8c121.6 0 217.6-96 217.6-217.6v-198.4zM544 428.8c-32 12.8-60.8 3.2-70.4-9.6l-16-16 22.4-60.8-28.8-236.8 60.8-89.6 57.6 86.4-25.6 240 25.6 70.4-25.6 16z" />
<glyph unicode="&#xe986;" glyph-name="Icon_SearchAdd" d="M960-25.6l-268.8 371.2c67.2 57.6 112 140.8 118.4 236.8 16 195.2-134.4 361.6-329.6 377.6-9.6 0-16 0-25.6 0-185.6 0-345.6-140.8-358.4-326.4-12.8-195.2 134.4-361.6 332.8-377.6 9.6 0 16 0 25.6 0 67.2 0 131.2 19.2 185.6 51.2l268.8-371.2 51.2 38.4zM432 320c-80 6.4-150.4 41.6-201.6 102.4-51.2 57.6-73.6 131.2-70.4 204.8 12.8 150.4 140.8 268.8 294.4 268.8 6.4 0 12.8 0 22.4 0 80-6.4 150.4-41.6 201.6-102.4 51.2-57.6 73.6-131.2 70.4-208-12.8-147.2-140.8-265.6-294.4-265.6-6.4 0-12.8 0-22.4 0zM480 768h-64v-128h-128v-64h128v-128h64v128h128v64h-128z" />
<glyph unicode="&#xe987;" glyph-name="Icon_SearchRemove" d="M960-25.6l-268.8 371.2c67.2 57.6 112 140.8 118.4 236.8 16 195.2-134.4 361.6-329.6 377.6-9.6 0-16 0-25.6 0-185.6 0-345.6-140.8-358.4-326.4-12.8-195.2 134.4-361.6 332.8-377.6 9.6 0 16 0 25.6 0 67.2 0 131.2 19.2 185.6 51.2l268.8-371.2 51.2 38.4zM432 320c-80 6.4-150.4 41.6-201.6 102.4-51.2 57.6-73.6 131.2-70.4 204.8 12.8 150.4 140.8 268.8 294.4 268.8 6.4 0 12.8 0 22.4 0 80-6.4 150.4-41.6 201.6-102.4 51.2-57.6 73.6-131.2 70.4-208-12.8-147.2-140.8-265.6-294.4-265.6-6.4 0-12.8 0-22.4 0zM288 640h320v-64h-320v64z" />
<glyph unicode="&#xe988;" glyph-name="Icon_Settings-78" d="M224 960h-64v-320h-64v-64h64v-640h64v640h64v64h-64zM544 960h-64v-512h-64v-64h64v-448h64v448h64v64h-64zM928 640h-64v320h-64v-320h-64v-64h64v-640h64v640h64z" />
<glyph unicode="&#xe989;" glyph-name="Icon_Settings-96" d="M784 745.6c0 176-89.6 211.2-163.2 211.2h-12.8l-9.6-9.6c-12.8-12.8-12.8-12.8-12.8-230.4-19.2-9.6-54.4-19.2-70.4-19.2-19.2 0-48 9.6-70.4 19.2 0 25.6 0 76.8 0 115.2 0 105.6 0 105.6-9.6 118.4l-9.6 9.6h-12.8c0 0 0 0 0 0-44.8 0-83.2-16-112-44.8-57.6-54.4-60.8-144-60.8-169.6 0-102.4 57.6-195.2 137.6-240v-476.8c0-51.2 44.8-92.8 102.4-92.8h70.4c54.4 0 102.4 41.6 102.4 92.8v476.8c76.8 44.8 131.2 137.6 131.2 240zM585.6 547.2v0-518.4c0-16-16-28.8-38.4-28.8h-67.2c-19.2 0-38.4 12.8-38.4 28.8v521.6c-80 22.4-140.8 105.6-140.8 198.4 0 41.6 9.6 96 41.6 124.8 9.6 9.6 22.4 16 35.2 22.4 0-16 0-38.4 0-57.6 0-153.6 0-153.6 19.2-163.2 28.8-16 80-35.2 115.2-35.2s108.8 25.6 124.8 41.6l9.6 9.6v16c0 102.4 0 156.8 0 182.4 35.2-9.6 67.2-41.6 67.2-144 6.4-92.8-51.2-176-128-198.4z" />
<glyph unicode="&#xe98a;" glyph-name="Icon_Share2" d="M844.8 576c-54.4 169.6-214.4 288-396.8 288-3.2 0-9.6 0-12.8 0-25.6 57.6-80 96-147.2 96-89.6 0-160-70.4-160-160 0-25.6 6.4-48 16-67.2-73.6-80-112-179.2-112-284.8s38.4-204.8 112-284.8c-9.6-19.2-16-41.6-16-67.2 0-89.6 70.4-160 160-160 67.2 0 121.6 38.4 147.2 96 3.2 0 9.6 0 12.8 0 156.8 0 297.6 86.4 371.2 224 3.2 0 9.6 0 12.8 0 89.6 0 160 70.4 160 160 0 83.2-64 153.6-147.2 160zM288 896c54.4 0 96-41.6 96-96s-41.6-96-96-96-96 41.6-96 96 41.6 96 96 96zM288 0c-54.4 0-96 41.6-96 96s41.6 96 96 96 96-41.6 96-96-41.6-96-96-96zM448 96c0 89.6-70.4 160-160 160-41.6 0-76.8-16-105.6-38.4-54.4 64-86.4 144-86.4 230.4s32 166.4 86.4 230.4c28.8-22.4 64-38.4 105.6-38.4 89.6 0 160 70.4 160 160 150.4 0 281.6-96 332.8-233.6-64-22.4-108.8-80-108.8-150.4 0-60.8 35.2-112 83.2-140.8-60.8-108.8-179.2-179.2-307.2-179.2zM832 320c-54.4 0-96 41.6-96 96s41.6 96 96 96 96-41.6 96-96-41.6-96-96-96z" />
<glyph unicode="&#xe98b;" glyph-name="Icon_Share3" d="M288 960c-89.6 0-160-70.4-160-160s70.4-160 160-160 160 70.4 160 160-70.4 160-160 160zM288 704c-54.4 0-96 41.6-96 96s41.6 96 96 96 96-41.6 96-96-41.6-96-96-96zM288 256c-89.6 0-160-70.4-160-160s70.4-160 160-160 160 70.4 160 160-70.4 160-160 160zM288 0c-54.4 0-96 41.6-96 96s41.6 96 96 96 96-41.6 96-96-41.6-96-96-96zM832 576c-89.6 0-160-70.4-160-160s70.4-160 160-160 160 70.4 160 160-70.4 160-160 160zM832 320c-54.4 0-96 41.6-96 96s41.6 96 96 96 96-41.6 96-96-41.6-96-96-96zM512 102.4c0-3.2 0-3.2 0-6.4 0-19.2-3.2-41.6-9.6-60.8 112 16 211.2 73.6 278.4 163.2-22.4 6.4-41.6 12.8-60.8 25.6-54.4-64-128-105.6-208-121.6zM96 448c0 64 16 124.8 48 179.2-16 12.8-32 32-44.8 51.2-41.6-67.2-67.2-147.2-67.2-230.4s25.6-163.2 70.4-230.4c12.8 19.2 28.8 35.2 44.8 51.2-35.2 54.4-51.2 115.2-51.2 179.2zM512 793.6c102.4-19.2 188.8-80 240-169.6 19.2 6.4 41.6 12.8 64 12.8-60.8 118.4-179.2 201.6-313.6 220.8 6.4-16 9.6-35.2 9.6-57.6 0-3.2 0-3.2 0-6.4z" />
<glyph unicode="&#xe98c;" glyph-name="Icon_ShoppingBag" d="M896 704h-140.8c-9.6 140.8-115.2 256-243.2 256s-233.6-115.2-240-256h-144l-96-768h960l-96 768zM512 896c92.8 0 172.8-86.4 176-192h-352c3.2 105.6 83.2 192 176 192zM185.6 640h86.4v-41.6c-19.2-12.8-32-32-32-54.4 0-35.2 28.8-64 64-64s64 28.8 64 64c0 25.6-12.8 44.8-32 54.4v41.6h355.2v-41.6c-19.2-9.6-32-32-32-54.4 0-35.2 28.8-64 64-64s64 28.8 64 64c0 22.4-12.8 44.8-32 54.4v41.6h86.4l80-640h-816l80 640zM598.4 272c-9.6 9.6-19.2 16-28.8 22.4s-22.4 12.8-35.2 19.2c-3.2 0-3.2 0-6.4 3.2v108.8c0 0 3.2 0 3.2 0 32 0 57.6-6.4 76.8-22.4v57.6c-16 9.6-41.6 12.8-80 12.8v25.6c0 9.6-6.4 16-16 16s-16-6.4-16-16v-28.8c-6.4 0-9.6 0-16-3.2-16-3.2-28.8-9.6-41.6-19.2-12.8-6.4-22.4-19.2-28.8-28.8s-9.6-25.6-9.6-41.6c0-12.8 3.2-25.6 6.4-35.2s9.6-19.2 19.2-25.6c6.4-6.4 16-16 25.6-22.4s22.4-12.8 32-19.2c3.2-3.2 9.6-3.2 12.8-6.4v-108.8c-3.2 0-3.2 0-6.4 0-6.4 0-16 0-22.4 3.2-9.6 0-16 3.2-25.6 6.4s-16 6.4-22.4 9.6c-6.4 3.2-12.8 9.6-19.2 12.8v-60.8c6.4-3.2 12.8-6.4 19.2-9.6s16-3.2 25.6-6.4c9.6-3.2 16-3.2 25.6-3.2s16 0 22.4 0c0 0 3.2 0 3.2 0v-28.8c0-9.6 6.4-16 16-16s16 6.4 16 16v32c3.2 0 9.6 0 12.8 3.2 16 3.2 28.8 9.6 41.6 16s22.4 19.2 28.8 28.8c6.4 12.8 9.6 28.8 9.6 44.8 0 12.8-3.2 25.6-6.4 35.2 0 9.6-6.4 19.2-16 28.8zM483.2 342.4c-6.4 3.2-9.6 9.6-12.8 16s-6.4 12.8-6.4 19.2c0 9.6 3.2 16 6.4 22.4s9.6 9.6 16 16c3.2 3.2 9.6 3.2 12.8 3.2v-86.4c-6.4 3.2-12.8 6.4-16 9.6zM547.2 172.8c-3.2-3.2-9.6-6.4-16-6.4v89.6c3.2-3.2 6.4-3.2 9.6-6.4 6.4-6.4 12.8-9.6 16-16s6.4-12.8 6.4-22.4c3.2-19.2-3.2-32-16-38.4z" />
<glyph unicode="&#xe98d;" glyph-name="Icon_SingleCurlyQuotationMark" d="M800 745.6c19.2 3.2 32 16 32 35.2v144c0 19.2-16 35.2-35.2 35.2-3.2 0-6.4 0-9.6 0-579.2 0-595.2-464-595.2-467.2v-518.4c0-22.4 16-38.4 38.4-38.4h563.2c19.2 0 35.2 16 35.2 35.2v537.6c0 19.2-16 35.2-35.2 35.2h-201.6c9.6 172.8 172.8 198.4 208 201.6zM524.8 518.4c0-19.2 16-35.2 38.4-35.2h204.8v-483.2h-512v489.6c0 19.2 16 396.8 512 406.4v-89.6c-70.4-12.8-249.6-67.2-243.2-288z" />
<glyph unicode="&#xe98e;" glyph-name="Icon_Socks" d="M774.4 252.8l-3.2 3.2-12.8 3.2c-96 25.6-160 48-201.6 64-64 25.6-92.8 54.4-92.8 60.8v576h-329.6v-32c0-3.2 0-342.4-3.2-483.2 0-38.4-3.2-67.2-9.6-99.2-3.2-16-6.4-35.2-9.6-54.4-6.4-41.6-16-80-16-108.8-3.2-35.2 12.8-67.2 38.4-86.4 60.8-41.6 147.2-48 201.6-54.4 12.8 0 25.6-3.2 28.8-3.2l6.4-3.2c48-6.4 137.6-41.6 195.2-64 44.8-19.2 64-25.6 76.8-25.6 41.6-12.8 80-16 108.8-16 96 0 140.8 41.6 153.6 54.4 9.6 9.6 16 25.6 19.2 38.4 6.4 73.6-16 166.4-150.4 230.4zM400 896v-99.2h-201.6c0 41.6 0 76.8 0 99.2h201.6zM160 182.4c3.2 25.6 9.6 64 16 102.4 3.2 16 6.4 35.2 9.6 51.2 19.2-3.2 60.8-19.2 92.8-57.6s44.8-92.8 38.4-160c-44.8 3.2-105.6 12.8-144 38.4-9.6 3.2-12.8 12.8-12.8 25.6zM384 105.6c0 0-3.2 0-3.2 0 6.4 86.4-12.8 153.6-54.4 208-48 60.8-108.8 76.8-134.4 83.2 0 16 3.2 28.8 3.2 48 0 70.4 3.2 185.6 3.2 288h201.6v-348.8c0-57.6 73.6-96 134.4-121.6 35.2-12.8 96-35.2 176-57.6-28.8-28.8-67.2-86.4-83.2-182.4-9.6 3.2-22.4 9.6-32 12.8-67.2 28.8-153.6 64-211.2 70.4zM864 35.2c-6.4-6.4-54.4-51.2-176-25.6 19.2 118.4 76.8 163.2 86.4 172.8 41.6-25.6 96-70.4 89.6-147.2z" />
<glyph unicode="&#xe98f;" glyph-name="Icon_SortAscending" d="M166.4 960l-150.4-384h51.2l38.4 108.8h166.4l41.6-108.8h51.2l-150.4 384h-48zM121.6 723.2l60.8 163.2c3.2 6.4 3.2 16 6.4 25.6v0c3.2-9.6 6.4-19.2 6.4-25.6l60.8-163.2h-134.4zM41.6 278.4h204.8l-224-329.6v-12.8h288v41.6h-220.8l224 332.8v9.6h-272zM1008 748.8l-224 211.2-214.4-217.6 44.8-44.8 137.6 140.8v-902.4h64v905.6l147.2-140.8z" />
<glyph unicode="&#xe990;" glyph-name="Icon_SortDescending" d="M182.4 960l-150.4-384h51.2l38.4 108.8h166.4l41.6-108.8h51.2l-153.6 384h-44.8zM137.6 723.2l60.8 163.2c3.2 6.4 3.2 16 6.4 25.6v0c3.2-12.8 3.2-19.2 6.4-25.6l60.8-163.2h-134.4zM54.4 278.4h204.8l-220.8-329.6v-12.8h284.8v41.6h-217.6l224 332.8v9.6h-275.2zM947.2 195.2l-147.2-140.8v905.6h-64v-902.4l-137.6 140.8-44.8-44.8 214.4-217.6 224 211.2z" />
<glyph unicode="&#xe991;" glyph-name="Icon_Tag" d="M579.2 931.2c-35.2 38.4-99.2 38.4-137.6 0l-185.6-192v-803.2h512v803.2l-188.8 192zM704 0h-384v713.6l169.6 176c12.8 12.8 32 12.8 44.8 0l169.6-176v-713.6zM384 659.2c0-70.4 57.6-128 128-128s128 57.6 128 128-57.6 128-128 128-128-57.6-128-128zM576 659.2c0-35.2-28.8-64-64-64s-64 28.8-64 64 28.8 64 64 64 64-28.8 64-64zM608 320h-192c-19.2 0-32-12.8-32-32s12.8-32 32-32h192c19.2 0 32 12.8 32 32s-12.8 32-32 32zM608 192h-192c-19.2 0-32-12.8-32-32s12.8-32 32-32h192c19.2 0 32 12.8 32 32s-12.8 32-32 32z" />
<glyph unicode="&#xe992;" glyph-name="Icon_Timer" d="M544 768v32h80v160h-224v-160h80v-35.2c-214.4-16-384-195.2-384-412.8 0-230.4 185.6-416 416-416s416 185.6 416 416c0 217.6-169.6 400-384 416zM464 896h96v-32h-96v32zM512 0c-195.2 0-352 156.8-352 352s156.8 352 352 352 352-156.8 352-352-156.8-352-352-352zM704 384h-160v224c0 19.2-12.8 32-32 32s-32-12.8-32-32v-288h224c19.2 0 32 12.8 32 32s-12.8 32-32 32z" />
<glyph unicode="&#xe993;" glyph-name="Icon_Todolist" d="M720 515.2l-288-288-96 96c-12.8 12.8-32 12.8-44.8 0s-12.8-32 0-44.8l118.4-118.4c6.4-6.4 16-9.6 25.6-9.6s19.2 3.2 25.6 9.6l307.2 307.2c12.8 12.8 12.8 32 0 44.8s-35.2 16-48 3.2zM832 864h-96c-3.2 19.2-16 32-35.2 32h-60.8v28.8c0 19.2-16 35.2-35.2 35.2h-185.6c-19.2 0-35.2-16-35.2-35.2v-28.8h-60.8c-19.2 0-32-12.8-35.2-32h-96c-35.2 0-64-28.8-64-64v-800c0-35.2 28.8-64 64-64h640c35.2 0 64 28.8 64 64v800c0 35.2-28.8 64-64 64zM352 832h60.8c19.2 0 35.2 16 35.2 35.2v28.8h128v-28.8c0-19.2 16-35.2 35.2-35.2h60.8v-64h-320v64zM832 0h-640v800h96v-60.8c0-19.2 16-35.2 35.2-35.2h377.6c19.2 0 35.2 16 35.2 35.2v60.8h96v-800z" />
<glyph unicode="&#xe994;" glyph-name="Icon_Top" d="M534.4 870.4c-12.8 12.8-35.2 12.8-48 0l-412.8-393.6c-9.6-9.6-12.8-25.6-9.6-38.4 6.4-12.8 19.2-22.4 32-22.4h224v-444.8c0-19.2 16-35.2 35.2-35.2h313.6c19.2 0 35.2 16 35.2 35.2v444.8h220.8c16 0 28.8 9.6 32 22.4 6.4 12.8 3.2 28.8-9.6 38.4l-412.8 393.6zM640 0h-256v416h256v-416zM668.8 480c0 0 0 0 0 0h-313.6c0 0 0 0 0 0h-185.6l339.2 326.4 342.4-326.4h-182.4zM96 896h832c19.2 0 32 12.8 32 32s-12.8 32-32 32h-832c-19.2 0-32-12.8-32-32s12.8-32 32-32z" />
<glyph unicode="&#xe995;" glyph-name="Icon_TrashCan" d="M867.2 864h-227.2v12.8c0 48-32 83.2-70.4 83.2h-115.2c-38.4 0-70.4-35.2-70.4-83.2v-12.8h-256v-64h35.2l60.8-800c0-35.2 28.8-64 64-64h448c35.2 0 64 28.8 64 60.8l60.8 803.2h35.2v64h-28.8zM448 876.8c0 12.8 6.4 19.2 6.4 19.2h115.2c0 0 6.4-6.4 6.4-19.2v-12.8h-128v12.8zM736 0l-448 3.2-60.8 796.8h569.6l-60.8-800zM608 704h64v-608h-64v608zM480 704h64v-608h-64v608zM352 704h64v-608h-64v608z" />
<glyph unicode="&#xe996;" glyph-name="Icon_Uparrow" d="M928 544l-416 416-416-416 44.8-44.8 339.2 336v-899.2h64v899.2l336-339.2 48 48zM508.8 864l3.2 3.2 3.2-3.2h-6.4z" />
<glyph unicode="&#xe997;" glyph-name="Icon_User" d="M867.2 377.6c-54.4 48-118.4 83.2-188.8 96 67.2 51.2 108.8 131.2 108.8 214.4 0 150.4-121.6 272-275.2 272s-275.2-121.6-275.2-272c0-86.4 41.6-166.4 108.8-214.4-179.2-38.4-313.6-192-313.6-377.6 0-89.6 73.6-160 163.2-160h636.8c89.6 0 163.2 70.4 163.2 160-3.2 105.6-48 208-128 281.6zM300.8 688c0 115.2 96 208 211.2 208s211.2-92.8 211.2-208c0-92.8-64-176-153.6-201.6-38.4-9.6-80-9.6-115.2 0-92.8 25.6-153.6 108.8-153.6 201.6zM828.8 0h-633.6c-54.4 0-99.2 41.6-99.2 96 0 176 147.2 320 326.4 320h179.2c83.2 0 163.2-32 224-86.4 67.2-60.8 102.4-144 102.4-233.6 0-54.4-44.8-96-99.2-96z" />
<glyph unicode="&#xe998;" glyph-name="Icon_VolumeIcon" d="M288-64h192v1024h-192v-1024zM352 896h64v-896h-64v896zM32 128h192v640h-192v-640zM96 704h64v-512h-64v512zM544 128h192v640h-192v-640zM608 704h64v-512h-64v512zM800 576v-320h192v320h-192zM928 320h-64v192h64v-192z" />
<glyph unicode="&#xe999;" glyph-name="Icon_WarningShield" d="M937.6 806.4c-22.4 6.4-41.6 9.6-64 16-92.8 25.6-179.2 67.2-272 115.2-60.8 32-118.4 28.8-179.2 0-105.6-57.6-227.2-112-361.6-137.6l-28.8-6.4 3.2-57.6c0-19.2 3.2-38.4 3.2-57.6 12.8-160 57.6-307.2 137.6-438.4 73.6-124.8 176-224 297.6-297.6 12.8-6.4 25.6-12.8 38.4-12.8s25.6 3.2 38.4 12.8c102.4 64 188.8 147.2 256 243.2 99.2 137.6 156.8 297.6 176 476.8 3.2 22.4 3.2 44.8 3.2 67.2 0 9.6 0 19.2 0 28.8v25.6l-48 22.4zM924.8 739.2c0-22.4-3.2-41.6-3.2-64-19.2-169.6-73.6-316.8-166.4-444.8-64-89.6-144-166.4-240-227.2-3.2-3.2-3.2-3.2-3.2-3.2s-3.2 0-3.2 3.2c-115.2 67.2-208 160-275.2 275.2-73.6 121.6-115.2 256-128 409.6 0 19.2-3.2 35.2-3.2 54.4v0c134.4 28.8 252.8 86.4 352 137.6 41.6 22.4 76.8 22.4 118.4 0 92.8-48 185.6-92.8 284.8-118.4 19.2-6.4 41.6-9.6 64-16h6.4c-3.2-3.2-3.2-6.4-3.2-6.4zM480 764.8h64v-412.8h-64v412.8zM480 256h64v-64h-64v64z" />
<glyph unicode="&#xe99a;" glyph-name="Icon_Wayboard" d="M544 832v96c0 19.2-12.8 32-32 32s-32-12.8-32-32v-96h-352v-544h352v-320c0-19.2 12.8-32 32-32s32 12.8 32 32v320h352v544h-352zM192 608h640v-96h-640v96zM832 768v-96h-640v96h640zM192 352v96h640v-96h-640z" />
<glyph unicode="&#xe99b;" glyph-name="Icon_Wayboard1" d="M544 0h-128v416h156.8v-128l451.2 272-451.2 272v-124.8h-156.8v220.8c0 19.2-12.8 32-32 32s-32-12.8-32-32v-220.8h-352v-291.2h352v-416h-128c-19.2 0-32-12.8-32-32s12.8-32 32-32h320c19.2 0 32 12.8 32 32s-12.8 32-32 32zM64 643.2h572.8v76.8l262.4-160-262.4-160v80h-572.8v163.2z" />
<glyph unicode="&#xe99c;" glyph-name="Icon_Wayboard2" d="M547.2 608h208l140.8 121.6-137.6 134.4h-211.2v64c0 19.2-12.8 32-32 32s-32-12.8-32-32v-64h-259.2v-256h259.2v-64h-220.8l-134.4-134.4 137.6-121.6h217.6v-288h-131.2c-19.2 0-32-12.8-32-32s12.8-32 32-32h320c19.2 0 32 12.8 32 32s-12.8 32-32 32h-124.8v288h252.8v256h-252.8v64zM288 800h444.8l67.2-67.2-70.4-60.8h-441.6v128zM736 352h-448l-67.2 60.8 67.2 67.2h448v-128z" />
<glyph unicode="&#xe99d;" glyph-name="Icon_WindowsLogin" d="M662.4 358.4c102.4 54.4 169.6 160 169.6 281.6 0 176-144 320-320 320s-320-144-320-320c0-121.6 70.4-230.4 169.6-281.6-172.8-64-297.6-227.2-297.6-422.4h64c0 211.2 172.8 384 384 384s384-172.8 384-384h64c0 195.2-124.8 358.4-297.6 422.4zM256 640c0 140.8 115.2 256 256 256s256-115.2 256-256-115.2-256-256-256-256 115.2-256 256z" />
<glyph unicode="&#xe99e;" glyph-name="Icon_Wirelessmouse1" d="M595.2 640h-166.4c-76.8 0-140.8-64-140.8-140.8v-342.4c0-121.6 99.2-220.8 220.8-220.8h6.4c121.6 0 220.8 99.2 220.8 220.8v342.4c0 76.8-64 140.8-140.8 140.8zM672 156.8c0-86.4-70.4-156.8-156.8-156.8h-6.4c-86.4 0-156.8 70.4-156.8 156.8v342.4c0 41.6 35.2 76.8 76.8 76.8h67.2v-64c-16-6.4-28.8-22.4-28.8-38.4v-83.2c0-22.4 19.2-41.6 44.8-41.6s44.8 19.2 44.8 41.6v83.2c0 16-12.8 32-28.8 38.4v64h67.2c41.6 0 76.8-35.2 76.8-76.8v-342.4zM387.2 790.4c-12.8-12.8-16-32-3.2-44.8s32-16 44.8-3.2c48 38.4 124.8 38.4 172.8-3.2 6.4-6.4 12.8-9.6 22.4-9.6s19.2 3.2 22.4 9.6c12.8 12.8 9.6 32-3.2 44.8-35.2 32-83.2 48-131.2 48-48 3.2-92.8-12.8-124.8-41.6zM320 816c9.6 0 16 3.2 22.4 9.6 44.8 44.8 105.6 70.4 169.6 70.4s124.8-25.6 169.6-70.4c12.8-12.8 32-12.8 44.8 0s12.8 32 0 44.8c-54.4 57.6-131.2 89.6-214.4 89.6s-160-32-214.4-92.8c-12.8-12.8-12.8-32 0-44.8 6.4-3.2 16-6.4 22.4-6.4z" />
<glyph unicode="&#xe99f;" glyph-name="Icon_ZoomVertical" d="M716.8 185.6l-172.8-144v812.8l172.8-140.8c12.8-12.8 35.2-9.6 44.8 3.2 12.8 12.8 9.6 35.2-3.2 44.8l-243.2 198.4-246.4-198.4c-12.8-9.6-16-32-6.4-44.8 6.4-9.6 16-12.8 25.6-12.8 6.4 0 12.8 3.2 19.2 6.4l172.8 137.6v-803.2l-172.8 137.6c-12.8 9.6-35.2 9.6-44.8-6.4-9.6-12.8-9.6-35.2 6.4-44.8l246.4-198.4 240 198.4c12.8 12.8 16 32 3.2 44.8-9.6 19.2-28.8 19.2-41.6 9.6z" />
</font>
</defs>
</svg>
