<svg xmlns:rdf="http://www.w3.org/1999/02/22-rdf-syntax-ns#" xmlns="http://www.w3.org/2000/svg" enable-background="new 0 0 420 420" xml:space="preserve" height="420px" viewBox="0 0 420 420" width="420px" version="1.1" y="0px" x="0px" xmlns:cc="http://creativecommons.org/ns#" xmlns:dc="http://purl.org/dc/elements/1.1/"><path d="m166.27 292.57h-136.84c-9.259-22.62-31.485-38.57-57.43-38.57-34.239 0-62 27.767-62 62-.001 34.232 27.761 62 61.999 62 25.945 0 48.171-15.936 57.425-38.568h35.173c.752 0 1.812-.453 2.348-.97l13.21-13.208c.535-.557 1.404-.557 1.949 0l13.066 13.062c.536.516 1.405.516 1.949 0l13.065-13.062c.536-.557 1.406-.557 1.951 0l13.2 13.208c.542.517 1.407.517 1.944 0l13.214-13.208c.53-.557 1.411-.557 1.946 0l13.201 13.208c.544.517 1.596.97 2.358.97h8.269c.754 0 1.815-.453 2.343-.97l21.48-21.486c.541-.553.541-1.398 0-1.951l-21.48-21.486c-.52-.51-1.58-.96-2.33-.96z" fill="#FFD556"/><path d="m170.41 307.72h-139.17c-.376 0-.688.331-.688.708 0 .365.311.686.688.686h139.16c.363 0 .683-.32.683-.686.01-.38-.31-.71-.67-.71z" fill="#FFEBC0"/><path d="m165.57 302.91h-134.33c-.376 0-.688.318-.688.679 0 .384.311.715.688.715h134.32c.383 0 .699-.331.699-.715.01-.35-.31-.67-.69-.67z" fill="#FFEBC0"/><path d="m107.94 377.3c-1.074 0-1.798-.393-2.151-1.166-.548-1.197-.124-3.057.62-3.919.314-.364.635-.676.919-.949.73-.708 1.558-1.511.902-2.493-1.87-2.805-14.484-18.71-29.291-26.571-1.323-.7-3.062-1.245-3.96-1.245-.048 0-.094.001-.136.005l-1.179.062c-1.483.059-3.976 1.233-5.666 2.675-3.523 2.984-7.582 6.331-12.06 9.946-5.897 4.763-10.684 8.035-13.852 10.199-.541.371-1.037.708-1.48 1.016-.705.491-.931 1.457-.529 2.251.946 1.871 2.021 5.394 2.5 8.192.082.477-.045.941-.356 1.311-.361.429-.912.676-1.512.676h-2.21c-.981 0-3.401-1.209-4.962-3.099-.927-1.121-1.94-2.416-3.013-3.787-2.266-2.896-4.609-5.893-6.762-8.073-.846-.857-1.108-1.754-.757-2.596.467-1.118 1.924-1.899 3.543-1.899.491 0 .987.07 1.474.205l.094.026.136.006c2.22 0 9.829-16.907 10.433-18.396.593-1.462 1.191-3.627 1.777-6.436l.192-.914-.933.069c-.817.062-1.705.095-2.642.095-6.626 0-12.231-1.674-16.658-4.973-6.905-5.147-10.231-13.611-9.889-25.156.061-2.037.213-4.092.361-6.076.991-13.355 1.849-24.883-22.306-37.907-1.61-.867-2.783-2.31-3.307-4.06s-.335-3.6.533-5.207c1.195-2.22 3.505-3.596 6.027-3.596 1.124 0 2.244.284 3.239.82 31.963 17.235 30.515 36.724 29.458 50.954-.144 1.921-.279 3.733-.331 5.476-.203 6.821 1.274 11.459 4.388 13.783 1.988 1.482 4.822 2.233 8.421 2.233 1.636 0 3.445-.164 5.232-.473l.521-.091.058-.525c.605-5.385.458-12.369.223-15.509-.151-2.024-.229-4.087-.229-6.14 0-17.226 10.625-34.17 15.193-40.655l.479-.681-.75-.359c-17.832-8.507-27.653-24.451-27.653-44.89 0-5.255.609-10.31 1.198-15.2.77-6.406 1.499-12.456.681-17.906-1.413-9.419-2.792-21.329-2.82-53.592 25.262 8.78 36.221 12.731 49.479 18.712l.75.338.218-.794c2.529-9.271 5.72-18.908 6.717-21.87 11.324 8.646 24.433 23.379 33.529 34.337l.233.281.365-.029c.695-.055 1.417-.084 2.146-.084 3.571 0 9.011.68 15.245 3.771-1.793.621-3.219 1.425-4.327 2.052-.434.245-.828.468-1.188.648l-1.286.642 1.296.62c.064.031 5.776 2.79 10.362 6.872-.821-.078-1.819-.142-2.895-.142-1.621 0-3.08.146-4.337.436l-1.233.286.896.896c.017.017 1.424 1.434 3.086 3.657-.54-.16-1.158-.326-1.824-.477l-1.549-.353.782 1.384c2.834 5.013 6.213 13.117 6.213 23.263 0 12.141 0 21.762 8.403 29.467-1.465 5.659-4.591 13.324-14.304 17.007l-.179-.259-.619.588c-3.757 3.9-9.87 9.452-17.654 13.759l-.85.473.713.658c.129.122.112.191.104.227-.042.179-.375.593-1.338.877-4.593 1.355-10.311 2.044-17 2.044-1.405 0-2.874-.032-4.36-.091l-1.614-.068 1.051 1.225c.531.621 1.037 1.254 1.504 1.888l.029.04.035.034c4.893 4.994 16.515 16.793 18.785 18.494 1.245.935 5.708 3.765 10.874 7.041 6.528 4.142 13.927 8.835 15.498 10.145 1.423 1.185 2.277 3.528 2.079 5.699-.09.989-.497 2.792-2.209 3.756-1.32.743-3.054 1.151-4.882 1.151-2.629 0-4.25-.791-4.517-1.325-.194-.389-.335-.805-.472-1.208-.181-.535-.352-1.042-.636-1.448-.403-.572-1.218-1.092-1.816-1.31-2.447-.884-14.96-5.381-21.233-7.308l-1.001-.308.093 1.042c.421 4.646.634 9.62.634 14.781 0 .634-.027 1.278-.08 1.913-.115 1.386.836 4.426 1.791 6.584 4.202 9.514 11.27 27.934 11.374 44.387.003.822.62 1.61 1.433 1.831 2.097.559 4.508 1.769 6.979 3.498 1.483 1.04 2.201 2.186 1.924 3.063-.335 1.059-2.029 1.742-4.317 1.742h-18.09v.02z" fill="#fff"/><path d="m73.698 210.57c0 7.254 3.609 14.233 8.971 18.887 3.328 1.396 6.978 2.171 10.806 2.171 12.378 0 23.441-8.301 26.899-20.181l.227-.772-38.772-18.318c-5.081 4.76-8.136 11.304-8.136 18.216l.006-.01z" fill="#6cf"/><path d="m135.65 244.53c11.343-4.044 14.179-13.369 15.359-18.093-8.486-7.544-8.486-16.972-8.486-29.229 0-10.195-3.334-18.355-6.305-23.61 2.127.483 3.791 1.138 3.791 1.138-2.2-3.299-4.401-5.5-4.401-5.5 4.086-.942 9.116 0 9.116 0-4.872-5.027-12.1-8.484-12.1-8.484 1.571-.785 3.771-2.358 7.072-3.143-8.295-4.562-15.425-4.883-19.318-4.573-9.505-11.452-22.94-26.493-34.423-35.036 0 0-3.979 11.604-7.042 22.83-13.764-6.209-25.485-10.379-50.47-19.059 0 33 1.415 45.256 2.828 54.685 1.415 9.428-1.886 20.743-1.886 33 0 21.721 10.852 37.317 28.052 45.525-5.146 7.307-15.32 23.917-15.32 41.061 0 2.072.076 4.141.229 6.191.253 3.379.359 10.226-.22 15.382-3.808.657-9.613.977-13.114-1.629-2.921-2.182-4.302-6.623-4.107-13.2.052-1.721.186-3.528.328-5.443 1.072-14.423 2.542-34.175-29.823-51.626-3.666-1.978-8.242-.608-10.219 3.06-1.978 3.666-.608 8.241 3.06 10.218 23.753 12.81 22.913 24.127 21.939 37.229-.148 1.997-.301 4.062-.364 6.117-.349 11.786 3.074 20.447 10.172 25.739 5.33 3.972 11.616 5.112 17.079 5.112.926 0 1.826-.028 2.695-.097-.55 2.628-1.134 4.817-1.741 6.315-2.357 5.812-8.751 18.249-9.822 17.952-4.203-1.179-8.014 2.357-4.95 5.46 3.153 3.193 6.875 8.356 9.732 11.813 1.659 2.01 4.284 3.354 5.504 3.354h2.21c1.563 0 2.824-1.277 2.56-2.809-.49-2.871-1.571-6.426-2.565-8.391-.235-.463-.125-1.059.303-1.355 3.034-2.1 8.444-5.646 15.374-11.246 5.295-4.274 9.245-7.564 12.074-9.96 1.589-1.354 3.933-2.456 5.246-2.507.399-.021.794-.042 1.189-.062.656-.045 2.342.432 3.721 1.159 15.432 8.191 27.934 24.688 29.035 26.339.472.709-.647 1.297-1.769 2.594-1.452 1.684-1.885 6.248 2.064 6.248h18.109c5.208 0 6.878-3.219 2.795-6.085-2.283-1.597-4.803-2.961-7.198-3.599-.502-.138-.913-.637-.915-1.159-.106-16.751-7.409-35.557-11.434-44.666-1.053-2.378-1.824-5.155-1.732-6.241.054-.647.082-1.302.082-1.972 0-4.535-.163-9.613-.637-14.843 6.056 1.858 17.88 6.095 21.2 7.295.49.179 1.181.627 1.48 1.053.417.596.583 1.624 1.055 2.568.85 1.699 6.6 2.591 10.371.47 3.772-2.122 3.064-8.25.235-10.607-2.828-2.356-23.571-15.086-26.398-17.206-2.241-1.68-13.934-13.553-18.708-18.424-.491-.665-1.003-1.305-1.534-1.927 8.768.364 16.029-.337 21.589-1.979 1.753-.52 2.26-1.599 1.51-2.293 7.873-4.356 14.104-10.033 17.819-13.888l.03.05zm-63.368-55.05l45.75 21.615c-3.103 10.657-12.934 18.447-24.594 18.447-14.146 0-25.617-11.469-25.617-25.618 0-5.354 1.649-10.324 4.459-14.435l.004-.02zm5.319 51.67c-.877-1.491-1.075-2.45-1.075-2.45 1.002.494 2.134.981 3.368 1.459-.698.312-1.49.653-2.291.991h-.002zm4.205-.29c.124.042.244.086.37.131.083 1.74-.052 3.624-.234 5.195-1.609-1.384-2.759-2.698-3.564-3.828 1.311-.558 2.557-1.104 3.434-1.5l-.006.01zm1.432 6.37c.219-1.618.414-3.733.365-5.778 2.77.88 5.889 1.694 9.225 2.407-2.459 1.34-5.662 3.014-8.41 4.227-.414-.272-.81-.556-1.188-.848l.008-.01zm11.739-2.93c.399.079.797.155 1.203.23-.421 2.602-1.307 6.196-1.911 8.522-3.428-1.266-6.202-2.648-8.445-4.042 3.224-1.46 6.826-3.401 9.165-4.705h-.012zm1.754 9.6c-.38-.124-.754-.249-1.12-.374.605-2.324 1.516-6.001 1.959-8.743 4.134.717 8.491 1.266 12.862 1.588-3.687 2.442-8.815 5.525-13.7 7.543l.001-.02zm16.189 3.48c-5.474-.719-10.137-1.7-14.099-2.85 5.275-2.372 10.545-5.702 13.954-8.02.445.022.892.046 1.336.067-.162 2.961-.491 7.042-1.198 10.806v-.01zm2.19.28c-.27-.032-.519-.067-.782-.101.717-3.815 1.048-7.943 1.199-10.926 4.255.131 8.45.018 12.387-.397 1.404-.145 2.708-.363 3.942-.63-4.036 3.838-9.824 8.569-16.744 12.062h-.01z" fill="#75838E"/><rect y="378" width="420" height="42" fill="#5D687B"/></svg>