<svg xmlns:rdf="http://www.w3.org/1999/02/22-rdf-syntax-ns#" xmlns="http://www.w3.org/2000/svg" enable-background="new 0 0 2425 546" xml:space="preserve" height="546px" viewBox="0 0 2425 546" width="2425px" version="1.1" y="0px" x="0px" xmlns:cc="http://creativecommons.org/ns#" xmlns:dc="http://purl.org/dc/elements/1.1/"><g fill="#fff"><path d="m908 124c-1.736 0-3.434.166-5.083.469.05-.82.08-1.64.08-2.47 0-22.092-17.908-40-40-40-18.593 0-34.22 12.686-38.704 29.874-3.55-1.2-7.35-1.87-11.3-1.87-19.33 0-35 15.669-35 35s15.67 35 35 35h95c15.465 0 28-12.536 28-28s-12.54-28-28-28z"/><path d="m137.5 125c-1.554 0-3.072.158-4.538.458.023-.483.038-.969.038-1.458 0-17.673-14.327-32-32-32-14.741 0-27.146 9.971-30.859 23.534-2.866-.99-5.939-1.53-9.141-1.53-15.464 0-28 12.536-28 28s12.536 28 28 28h76.5c12.426 0 22.5-10.074 22.5-22.5s-10.07-22.5-22.5-22.5z"/><path d="m680 54c-3.171 0-6.256.363-9.226 1.029.14-1.66.23-3.334.23-5.029 0-33.139-26.862-60-60-60-28.793 0-52.838 20.285-58.65 47.341-5.71-2.153-11.89-3.341-18.35-3.341-28.719 0-52 23.281-52 52s23.281 52 52 52h146c23.195 0 42-18.805 42-42s-18.8-42-42-42z"/><path d="m2363.5 124c-1.736 0-3.434.166-5.083.469.05-.818.083-1.639.083-2.469 0-22.092-17.908-40-40-40-18.593 0-34.22 12.686-38.704 29.874-3.545-1.208-7.342-1.874-11.296-1.874-19.33 0-35 15.669-35 35s15.67 35 35 35h95c15.465 0 28-12.536 28-28s-12.5-28-28-28z"/><path d="m1593 125c-1.555 0-3.072.158-4.538.458.022-.483.038-.969.038-1.458 0-17.673-14.327-32-32-32-14.741 0-27.146 9.971-30.859 23.534-2.865-.989-5.938-1.534-9.141-1.534-15.464 0-28 12.536-28 28s12.536 28 28 28h76.5c12.426 0 22.5-10.074 22.5-22.5s-10.1-22.5-22.5-22.5z"/><path d="m2135.5 54c-3.171 0-6.256.363-9.226 1.029.138-1.66.226-3.334.226-5.029 0-33.139-26.862-60-60-60-28.793 0-52.838 20.285-58.65 47.341-5.707-2.153-11.889-3.341-18.35-3.341-28.719 0-52 23.281-52 52s23.281 52 52 52h146c23.195 0 42-18.805 42-42s-18.7-42-41.9-42z"/><path d="m1084 78c-1.028 0-2.03.106-3.008.281.001-.094.007-.188.007-.281 0-13.809-11.19-25-24.999-25-11.572 0-21.301 7.859-24.151 18.531-2.427-.979-5.071-1.531-7.849-1.531-11.6 0-21.001 9.402-21.001 21s9.401 21 21.001 21h60.001c9.389 0 16.999-7.611 16.999-17s-7.6-17-17-17z"/></g></svg>