<svg xmlns:rdf="http://www.w3.org/1999/02/22-rdf-syntax-ns#" xmlns="http://www.w3.org/2000/svg" enable-background="new 0 0 970 546" xml:space="preserve" height="546px" viewBox="0 0 970 546" width="970px" version="1.1" y="0px" x="0px" xmlns:cc="http://creativecommons.org/ns#" xmlns:dc="http://purl.org/dc/elements/1.1/"><path d="m363 342h-198.65c-13.414-32.85-45.675-56-83.349-56-49.706 0-90 40.293-90 89.998-.001 49.7 40.293 90 89.999 90 37.674 0 69.935-23.15 83.349-56h51.059c1.104 0 2.633-.633 3.414-1.414l19.172-19.172c.781-.781 2.047-.781 2.828 0l18.968 18.967c.781.781 2.047.781 2.828 0l18.968-18.967c.781-.781 2.047-.781 2.828 0l19.172 19.172c.781.781 2.047.781 2.828 0l19.172-19.172c.781-.781 2.047-.781 2.828 0l19.172 19.172c.781.781 2.31 1.414 3.414 1.414h12c1.104 0 2.633-.633 3.414-1.414l31.172-31.172c.781-.781.781-2.047 0-2.828l-31.172-31.172c-.78-.79-2.31-1.42-3.41-1.42zm-324 49c-8.284 0-15-6.715-15-15s6.716-15 15-15 15 6.715 15 15-6.716 15-15 15z" fill="#FDB327"/><path d="m369 364h-202c-.552 0-1 .447-1 1s.448 1 1 1h202c.552 0 1-.447 1-1s-.45-1-1-1z" fill="#FCC755"/><path d="m362 357h-195c-.552 0-1 .447-1 1s.448 1 1 1h195c.552 0 1-.447 1-1s-.45-1-1-1z" fill="#FCC755"/><path d="m274.74 465c-1.528 0-2.559-.559-3.062-1.66-.78-1.703-.177-4.352.883-5.578.447-.518.904-.961 1.307-1.352 1.039-1.006 2.217-2.148 1.284-3.547-2.661-3.992-20.612-26.627-41.683-37.811-1.883-.996-4.358-1.773-5.637-1.773-.068 0-.134.002-.194.006l-1.677.09c-2.112.084-5.659 1.756-8.063 3.807-5.013 4.246-10.788 9.008-17.161 14.152-8.392 6.781-15.205 11.436-19.712 14.516-.771.527-1.475 1.008-2.106 1.445-1.004.697-1.327 2.074-.754 3.203 1.347 2.664 2.877 7.676 3.558 11.658.117.68-.063 1.342-.506 1.867-.514.611-1.298.961-2.152.961h-3.145c-1.396 0-4.84-1.719-7.062-4.41-1.319-1.596-2.761-3.439-4.287-5.391-3.224-4.121-6.559-8.385-9.622-11.486-1.205-1.221-1.578-2.498-1.078-3.695.665-1.592 2.739-2.703 5.043-2.703.698 0 1.404.1 2.098.293l.133.037.194.008c3.159 0 13.987-24.059 14.847-26.18.843-2.078 1.694-5.158 2.529-9.158l.272-1.301-1.327.1c-1.163.088-2.427.133-3.759.133-9.43 0-17.406-2.381-23.707-7.076-9.825-7.324-14.56-19.371-14.073-35.799.087-2.898.304-5.82.514-8.646 1.412-19.006 2.631-35.41-31.743-53.945-2.29-1.234-3.96-3.285-4.706-5.775s-.477-5.123.758-7.412c1.701-3.156 4.988-5.117 8.577-5.117 1.599 0 3.193.404 4.61 1.168 45.485 24.527 43.423 52.262 41.918 72.514-.203 2.732-.395 5.312-.469 7.791-.288 9.705 1.813 16.305 6.245 19.615 2.829 2.107 6.861 3.176 11.984 3.176 2.328 0 4.903-.232 7.447-.672l.74-.129.083-.746c.861-7.664.652-17.605.317-22.072-.215-2.879-.325-5.816-.325-8.738 0-24.512 15.12-48.625 21.621-57.855l.682-.969-1.069-.51c-25.375-12.107-39.35-34.797-39.35-63.883 0-7.477.866-14.672 1.703-21.629 1.097-9.117 2.133-17.727.97-25.481-2.011-13.405-3.974-30.353-4.014-76.266 35.95 12.495 51.544 18.118 70.412 26.629l1.067.481.309-1.13c3.6-13.193 8.142-26.906 9.56-31.121 16.115 12.303 34.771 33.27 47.714 48.865l.332.399.518-.041c.99-.079 2.018-.119 3.055-.119 5.082 0 12.823.966 21.694 5.366-2.552.885-4.58 2.029-6.158 2.92-.617.349-1.178.666-1.69.922l-1.829.913 1.844.883c.091.044 8.22 3.971 14.746 9.779-1.169-.111-2.59-.202-4.12-.202-2.307 0-4.383.209-6.171.621l-1.757.406 1.275 1.275c.024.025 2.027 2.04 4.391 5.204-.768-.227-1.648-.463-2.595-.678l-2.205-.501 1.113 1.969c4.034 7.134 8.842 18.667 8.842 33.104 0 17.277 0 30.969 11.958 41.932-2.085 8.053-6.535 18.963-20.356 24.205l-.254-.369-.882.836c-5.346 5.549-14.044 13.453-25.122 19.582l-1.21.67 1.015.938c.185.172.161.273.15.322-.06.256-.534.844-1.904 1.248-6.537 1.932-14.675 2.91-24.191 2.91-2.002 0-4.09-.045-6.206-.131l-2.296-.096 1.495 1.744c.755.881 1.475 1.783 2.14 2.684l.041.057.049.049c6.963 7.105 23.505 23.898 26.734 26.32 1.772 1.33 8.123 5.357 15.475 10.02 9.29 5.893 19.82 12.572 22.054 14.436 2.024 1.686 3.241 5.021 2.959 8.111-.128 1.406-.708 3.971-3.144 5.342-1.878 1.057-4.346 1.639-6.947 1.639-3.742 0-6.048-1.125-6.428-1.885-.276-.553-.477-1.145-.671-1.719-.258-.764-.501-1.484-.906-2.062-.573-.816-1.734-1.555-2.585-1.863-3.481-1.256-21.291-7.656-30.217-10.398l-1.424-.438.134 1.484c.599 6.611.902 13.688.902 21.033 0 .902-.038 1.82-.113 2.723-.165 1.973 1.19 6.299 2.548 9.369 5.98 13.539 16.037 39.75 16.184 63.164.006 1.17.883 2.291 2.04 2.607 2.983.795 6.416 2.516 9.933 4.977 2.109 1.482 3.133 3.111 2.738 4.361-.476 1.508-2.887 2.48-6.143 2.48h-25.72z" fill="#FFFBF1"/><path d="m226.02 227.73c0 10.322 5.137 20.254 12.767 26.877 4.734 1.984 9.929 3.086 15.376 3.086 17.617 0 33.359-11.809 38.281-28.715l.321-1.098-55.175-26.068c-7.231 6.775-11.579 16.086-11.579 25.922z" fill="#5FC2FA"/><path d="m314.18 276.06c16.142-5.758 20.179-19.027 21.857-25.75-12.076-10.734-12.076-24.15-12.076-41.594 0-14.508-4.745-26.121-8.972-33.597 3.026.687 5.394 1.618 5.394 1.618-3.13-4.696-6.262-7.827-6.262-7.827 5.813-1.341 12.971 0 12.971 0-6.933-7.154-17.218-12.074-17.218-12.074 2.236-1.117 5.366-3.355 10.062-4.473-11.805-6.493-21.95-6.949-27.489-6.508-13.525-16.297-32.646-37.7-48.987-49.858 0 0-5.662 16.513-10.021 32.489-19.589-8.836-36.268-14.77-71.824-27.123 0 46.962 2.013 64.403 4.025 77.82 2.013 13.417-2.684 29.519-2.684 46.962 0 30.91 15.441 53.105 39.919 64.785-7.323 10.398-21.803 34.037-21.803 58.432 0 2.949.109 5.893.328 8.812.359 4.805.51 14.549-.314 21.887-5.419.936-13.681 1.391-18.662-2.318-4.156-3.105-6.122-9.424-5.844-18.785.073-2.447.264-5.02.467-7.744 1.525-20.525 3.617-48.633-42.441-73.469-5.216-2.814-11.729-.865-14.542 4.354-2.814 5.219-.865 11.729 4.354 14.541 33.803 18.229 32.606 34.334 31.221 52.982-.211 2.84-.429 5.777-.517 8.701-.497 16.775 4.374 29.1 14.475 36.631 7.585 5.652 16.53 7.273 24.305 7.273 1.317 0 2.598-.041 3.834-.135-.781 3.74-1.612 6.854-2.477 8.986-3.354 8.271-12.454 25.971-13.977 25.547-5.981-1.676-11.405 3.355-7.044 7.771 4.487 4.543 9.783 11.891 13.85 16.811 2.36 2.859 6.096 4.773 7.833 4.773h3.145c2.225 0 4.019-1.816 3.644-3.996-.699-4.086-2.237-9.145-3.652-11.941-.334-.658-.178-1.506.431-1.93 4.317-2.986 12.017-8.035 21.878-16.004 7.535-6.082 13.158-10.762 17.182-14.172 2.262-1.928 5.596-3.494 7.466-3.568.567-.029 1.131-.059 1.692-.09.934-.062 3.333.615 5.295 1.652 21.961 11.656 39.752 35.131 41.32 37.482.671 1.006-.923 1.846-2.516 3.689-2.067 2.396-2.683 8.893 2.936 8.893h25.77c7.411 0 9.787-4.582 3.978-8.66-3.248-2.273-6.834-4.215-10.243-5.123-.715-.195-1.299-.904-1.303-1.648-.15-23.838-10.543-50.6-16.269-63.562-1.498-3.385-2.595-7.336-2.466-8.881.077-.922.117-1.855.117-2.807 0-6.455-.232-13.678-.906-21.123 8.618 2.646 25.443 8.676 30.169 10.381.698.254 1.682.893 2.107 1.498.593.848.831 2.312 1.501 3.654 1.21 2.42 9.392 3.688 14.76.67 5.367-3.02 4.36-11.738.335-15.094-4.025-3.354-33.544-21.467-37.569-24.486-3.188-2.391-19.828-19.287-26.62-26.219-.699-.947-1.428-1.857-2.184-2.74 12.479.516 22.811-.48 30.722-2.816 2.497-.74 3.217-2.277 2.149-3.264 11.204-6.199 20.072-14.275 25.358-19.764v.06zm-90.18-78.34l65.105 30.758c-4.416 15.166-18.406 26.25-34.998 26.25-20.133 0-36.455-16.32-36.455-36.453 0-7.621 2.348-14.691 6.346-20.543l.01-.02zm7.57 73.53c-1.248-2.121-1.53-3.488-1.53-3.488 1.427.705 3.038 1.398 4.794 2.078-.994.443-2.121.928-3.261 1.41zm5.99-.42c.177.061.347.123.527.186.118 2.477-.075 5.158-.333 7.395-2.29-1.969-3.927-3.842-5.072-5.449 1.865-.793 3.637-1.57 4.885-2.135l-.02-.01zm2.03 9.07c.309-2.303.589-5.314.518-8.223 3.943 1.254 8.381 2.412 13.129 3.426-3.5 1.906-8.059 4.289-11.967 6.016-.59-.389-1.154-.791-1.691-1.207l.01-.02zm16.71-4.17c.568.111 1.136.221 1.711.328-.599 3.701-1.858 8.818-2.719 12.129-4.878-1.803-8.826-3.77-12.018-5.752 4.588-2.078 9.713-4.842 13.042-6.695l-.01-.01zm2.5 13.65c-.541-.174-1.072-.352-1.594-.531.862-3.309 2.157-8.541 2.789-12.443 5.883 1.021 12.082 1.803 18.303 2.26-5.247 3.475-12.545 7.863-19.496 10.734v-.02zm23.03 4.97c-7.79-1.023-14.425-2.422-20.062-4.053 7.508-3.377 15.005-8.117 19.856-11.414.634.033 1.269.066 1.901.094-.229 4.213-.698 10.023-1.705 15.377l.01-.01zm3.12.39c-.383-.043-.736-.096-1.112-.141 1.02-5.43 1.491-11.305 1.706-15.549 6.056.186 12.025.023 17.629-.564 1.997-.209 3.854-.52 5.61-.898-5.744 5.461-13.981 12.195-23.83 17.162l-.01-.01z" fill="#6B5E54"/><rect y="466" width="970" height="80" fill="#3A3533"/></svg>