<svg xmlns:rdf="http://www.w3.org/1999/02/22-rdf-syntax-ns#" xmlns="http://www.w3.org/2000/svg" enable-background="new 0 0 1260 420" xml:space="preserve" height="420px" viewBox="0 0 1260 420" width="1260px" version="1.1" y="0px" x="0px" xmlns:cc="http://creativecommons.org/ns#" xmlns:dc="http://purl.org/dc/elements/1.1/"><g fill="#F5E7B8"><path d="m63 128c-1.562 0-3.045.33-4.39.916.248-1.1.39-2.24.39-3.416 0-8.561-6.939-15.5-15.5-15.5-7.86 0-14.337 5.855-15.348 13.439-1.859-.91-3.941-1.44-6.152-1.44-7.732 0-14 6.268-14 14s6.268 14 14 14h41c6.075 0 11-4.925 11-11s-4.925-11-11-11z"/><path d="m461.5 47c-.855 0-1.688.088-2.506.221.01-.075.01-.147.01-.221 0-12.152-9.848-22-22-22-10.297 0-18.937 7.071-21.336 16.623-2.34-1.037-4.93-1.623-7.66-1.623-10.494 0-19 8.506-19 19s8.506 19 19 19h53.5c8.561 0 15.5-6.939 15.5-15.5s-6.94-15.5-15.5-15.5z"/><path d="m903 128c-1.562 0-3.045.33-4.391.916.248-1.1.391-2.24.391-3.416 0-8.561-6.939-15.5-15.5-15.5-7.859 0-14.337 5.855-15.348 13.439-1.86-.91-3.94-1.44-6.15-1.44-7.732 0-14 6.268-14 14s6.268 14 14 14h41c6.075 0 11-4.925 11-11s-4.92-11-11-11z"/><path d="m1070 33c-2.832 0-5.568.4-8.165 1.135.102-1.199.165-2.41.165-3.635 0-23.472-19.028-42.5-42.5-42.5-20.459 0-37.538 14.459-41.586 33.715-4.29-1.745-8.99-2.715-13.91-2.715-20.435 0-37 16.565-37 37s16.565 37 37 37h106c16.568 0 30-13.432 30-30s-13.4-30-30-30z"/><path d="m1301.5 47c-.855 0-1.688.088-2.506.221.001-.074.006-.146.006-.221 0-12.152-9.848-22-22-22-10.297 0-18.937 7.071-21.336 16.623-2.4-1.037-5-1.623-7.7-1.623-10.494 0-19 8.506-19 19s8.506 19 19 19h53.5c8.561 0 15.5-6.939 15.5-15.5s-6.9-15.5-15.5-15.5z"/><path d="m712 81c-1.415 0-2.789.166-4.116.46.08-.812.12-1.63.12-2.46 0-14.914-12.086-27-27-27-12.606 0-23.19 8.636-26.165 20.314-2.46-.847-5.1-1.314-7.84-1.314-13.256 0-24 10.744-24 24s10.744 24 24 24h65c10.494 0 19-8.506 19-19s-8.51-19-19-19z"/><path d="m230 33c-2.832 0-5.568.4-8.165 1.135.102-1.199.165-2.41.165-3.635 0-23.472-19.03-42.5-42.5-42.5-20.459 0-37.538 14.459-41.586 33.715-4.29-1.745-8.99-2.715-13.91-2.715-20.434 0-37 16.565-37 37s16.565 37 37 37h106c16.568 0 30-13.432 30-30s-13.43-30-30-30z"/><path d="m325.5 101c-.876 0-1.73.091-2.563.24.026-.412.062-.822.062-1.24 0-10.494-8.505-19-18.999-19-9.14 0-16.765 6.451-18.584 15.048-1.85-.666-3.84-1.048-5.92-1.048-9.665 0-17.5 7.835-17.5 17.5s7.835 17.5 17.5 17.5h46.001c8.008 0 14.499-6.491 14.499-14.5s-6.49-14.5-14.5-14.5z"/><path d="m1165.5 101c-.876 0-1.73.091-2.563.24.026-.412.062-.822.062-1.24 0-10.494-8.505-19-18.999-19-9.14 0-16.765 6.451-18.584 15.048-1.851-.666-3.837-1.048-5.917-1.048-9.665 0-17.5 7.835-17.5 17.5s7.835 17.5 17.5 17.5h46.001c8.008 0 14.499-6.491 14.499-14.5s-6.5-14.5-14.5-14.5z"/></g></svg>