<?xml version="1.0" standalone="no"?>
<!DOCTYPE svg PUBLIC "-//W3C//DTD SVG 1.1//EN" "http://www.w3.org/Graphics/SVG/1.1/DTD/svg11.dtd" >
<svg xmlns="http://www.w3.org/2000/svg">
<metadata></metadata>
<defs>
<font id="hacen_casablancaregular" horiz-adv-x="991" >
<font-face units-per-em="2048" ascent="1638" descent="-410" />
<missing-glyph horiz-adv-x="435" />
<glyph unicode="&#x651;&#x64b;" horiz-adv-x="425" d="M50 1838l17 91l340 193l-17 -91zM61 1710l17 91l340 193l-17 -91zM66 1591q0 21 4.5 39.5t9.5 29.5q0 -3 4.5 1.5t9.5 10.5t10 10.5t5 1.5q-5 -21 -7 -40t2 -32.5t17 -19t38 -0.5q28 5 41 23t17.5 40.5t5.5 46t6 39.5q1 -3 4.5 1t7.5 9t8 9.5t6 1.5q-3 -30 6.5 -54 t26 -36.5t38 -11.5t42.5 21q4 10 2 23t-8.5 25.5t-15.5 24.5t-18 21q5 10 14.5 15.5t20 10t20 9.5t15.5 13q5 -8 5.5 -12.5t-0.5 -8.5t-1.5 -8.5t3.5 -13.5q12 -32 14.5 -66t-5 -63.5t-25.5 -50.5t-47 -26q-25 -4 -39 3t-31 18q-4 -11 -10.5 -25.5t-18 -28.5t-27 -25.5 t-37.5 -16.5q-34 -9 -56 -3.5t-35 20t-17.5 35t-4.5 40.5z" />
<glyph unicode="&#x651;&#x64c;" horiz-adv-x="484" arabic-form="isolated" d="M43 1917q20 23 46.5 37.5t53 18.5t49.5 -1.5t35.5 -20.5t10.5 -40.5t-24 -61.5q48 17 89.5 38t75.5 53q-43 9 -63 27t-23.5 40t8 45t31.5 41.5t46 30t52 10.5q22 -2 29.5 -21t7 -43t-6 -46.5t-9.5 -31.5l40 -10l-18 -65l-48 11q-7 -12 -21 -28.5t-33 -34t-42 -33t-48 -26 t-50 -13t-48 6.5q-23 10 -25 27t3 36t11 36t-2 26.5t-36.5 9t-90.5 -17.5zM87.5 1632.5q-0.5 26.5 3.5 48.5t9 33q0 -3 5 1.5t10.5 10.5t10 10t4.5 1q-5 -21 -6.5 -47.5t4 -49.5t19.5 -37.5t40 -9.5q28 5 41 23t18 40.5t6.5 45.5t6.5 39q1 -3 4.5 1t8 9t8 9.5t5.5 1.5 q-3 -30 6 -54t25.5 -37t38 -12.5t43.5 20.5q4 10 2 23t-8.5 26t-15 25t-17.5 21q11 20 19.5 37.5t17.5 34.5q13 -15 22.5 -33t17.5 -36q11 -32 13 -66t-6 -63.5t-26.5 -50t-47.5 -24.5q-25 -4 -38.5 3t-30.5 19q-4 -11 -11 -25t-18.5 -28t-27.5 -25.5t-38 -16.5 q-34 -8 -56.5 1.5t-36 29.5t-19 47.5t-6 54zM346 2048q-2 -10 3.5 -16.5t14.5 -11.5t21.5 -9.5t25.5 -9.5q2 17 2 30q0 11 -2 21.5t-8 14.5v-2q-5 5 -12 6.5t-12 1.5q-14 1 -23.5 -7t-9.5 -18z" />
<glyph unicode="&#x651;&#x64d;" horiz-adv-x="425" arabic-form="isolated" d="M31 1438l33 75l350 141l-33 -75zM41 1543l33 75l350 141l-33 -75zM56.5 1844.5q0.5 26.5 4.5 49t10 32.5q0 -3 4.5 1.5l10.5 10.5t10.5 10t4.5 1q-6 -21 -8 -48t3 -50t18.5 -37.5t39.5 -10.5q29 4 42.5 21t19 39.5t7 46t7.5 39.5q1 -3 5 0.5t8.5 9t8 9.5t5.5 1 q-4 -29 4 -53.5t24 -38t37 -13.5q22 0 45 20q5 10 3 22.5t-8 25.5t-14.5 25.5t-16.5 21.5q11 20 20 37t19 34q12 -15 21.5 -33.5t16.5 -36.5q10 -32 11 -66t-7.5 -63t-27.5 -49t-48 -24q-25 -3 -38.5 4t-30.5 20q-4 -11 -11.5 -25t-19 -27.5t-28 -24.5t-38.5 -16 q-34 -7 -56.5 3t-35 31t-17.5 48t-4.5 53.5z" />
<glyph unicode="&#x651;&#x64e;" horiz-adv-x="425" arabic-form="isolated" d="M61 1710l17 91l340 193l-17 -91zM66 1591q0 21 4.5 39.5t9.5 29.5q0 -3 4.5 1.5t9.5 10.5t10 10.5t5 1.5q-5 -21 -7 -40t2 -32.5t17 -19t38 -0.5q28 5 41 23t17.5 40.5t5.5 46t6 39.5q1 -3 4.5 1t7.5 9t8 9.5t6 1.5q-3 -30 6.5 -54t26 -36.5t38 -11.5t42.5 21q4 10 2 23 t-8.5 25.5t-15.5 24.5t-18 21q5 10 14.5 15.5t20 10t20 9.5t15.5 13q5 -8 5.5 -12.5t-0.5 -8.5t-1.5 -8.5t3.5 -13.5q12 -32 14.5 -66t-5 -63.5t-25.5 -50.5t-47 -26q-25 -4 -39 3t-31 18q-4 -11 -10.5 -25.5t-18 -28.5t-27 -25.5t-37.5 -16.5q-34 -9 -56 -3.5t-35 20 t-17.5 35t-4.5 40.5z" />
<glyph unicode="&#x651;&#x64f;" horiz-adv-x="437" arabic-form="isolated" d="M2 1791q60 20 103 34t77 28t61.5 31t54.5 43q-46 8 -67.5 26.5t-25 40.5t8.5 45t33 42t48.5 30.5t55.5 10.5q23 -1 31 -20t7.5 -43.5t-6.5 -47.5t-10 -33l43 -10l-19 -63l-50 10q-11 -18 -37 -41t-61.5 -43.5t-76.5 -34t-83 -11.5q-57 4 -75 4q-17 0 -12 2zM63.5 1632.5 q-0.5 26.5 3.5 48.5t9 33q0 -3 5 1.5t10.5 10.5t10 10t4.5 1q-5 -21 -6.5 -47.5t4 -49.5t19.5 -37.5t40 -9.5q28 5 41 23t18 40.5t6.5 45.5t6.5 39q1 -3 4.5 1t8 9t8 9.5t5.5 1.5q-3 -30 6 -54t25.5 -37t38 -12.5t43.5 20.5q4 10 2 23t-8.5 26t-15 25t-17.5 21 q11 20 19.5 37.5t17.5 34.5q13 -15 22.5 -33t17.5 -36q11 -32 13 -66t-6 -63.5t-26.5 -50t-47.5 -24.5q-25 -4 -38.5 3t-30.5 19q-4 -11 -11 -25t-18.5 -28t-27.5 -25.5t-38 -16.5q-34 -8 -56.5 1.5t-36 29.5t-19 47.5t-6 54zM262 2036q-2 -20 19 -29.5t50 -17.5q2 16 2 30 q0 11 -2 22t-9 14v-1q-5 5 -11.5 6.5t-11.5 1.5q-17 1 -26.5 -7t-10.5 -19z" />
<glyph unicode="&#x651;&#x650;" horiz-adv-x="425" arabic-form="isolated" d="M71.5 1766.5q0.5 26.5 4.5 48.5t10 33q0 -3 4.5 1.5l10.5 10.5t10.5 10t4.5 1q-6 -21 -8 -48t3 -50t18.5 -37.5t39.5 -10.5q29 4 42.5 21t19 39.5t7 46t7.5 39.5q1 -3 5 0.5t8.5 9t8 9.5t5.5 1q-4 -29 4 -53.5t24 -38t37 -13.5q22 0 45 20q5 10 3 22.5t-8 25.5 t-14.5 25.5t-16.5 21.5q11 20 20 37t19 34q12 -15 21.5 -33.5t16.5 -36.5q10 -32 11 -66t-7.5 -63t-27.5 -49t-48 -24q-25 -3 -38.5 4t-30.5 20q-4 -11 -11.5 -25t-19 -27.5t-28 -24.5t-38.5 -16q-34 -7 -56.5 3t-35 31t-17.5 48t-4.5 53.5zM82 1397l17 91l340 193l-17 -91z " />
<glyph unicode="&#x640;&#x651;&#x64e;" horiz-adv-x="375" arabic-form="medial" d="M-39 1077l17 91l340 193l-17 -91zM-34 958q0 21 4.5 39.5t9.5 29.5q0 -3 4.5 1.5t9.5 10.5t10 10.5t5 1.5q-5 -21 -7 -40t2 -32.5t17 -19t38 -0.5q28 5 41 23t17.5 40.5t5.5 46t6 39.5q1 -3 4.5 1t7.5 9t8 9.5t6 1.5q-3 -30 6.5 -54t26 -36.5t38 -11.5t42.5 21q4 10 2 23 t-8.5 25.5t-15.5 24.5t-18 21q5 10 14.5 15.5t20 10t20 9.5t15.5 13q5 -8 5.5 -12.5t-0.5 -8.5t-1.5 -8.5t3.5 -13.5q12 -32 14.5 -66t-5 -63.5t-25.5 -50.5t-47 -26q-25 -4 -39 3t-31 18q-4 -11 -10.5 -25.5t-18 -28.5t-27 -25.5t-37.5 -16.5q-34 -9 -56 -3.5t-35 20 t-17.5 35t-4.5 40.5z" />
<glyph unicode="&#x640;&#x651;&#x64f;" horiz-adv-x="480" arabic-form="medial" d="M-5 1183q60 20 103 34t77 28t61.5 31t54.5 43q-46 8 -67.5 26.5t-25 40.5t8.5 45t33 42t48.5 30.5t55.5 10.5q23 -1 31 -20t7.5 -43.5t-6.5 -47.5t-10 -33l43 -10l-19 -63l-50 10q-11 -18 -37 -41t-61.5 -43.5t-76.5 -34t-83 -11.5q-57 4 -75 4q-17 0 -12 2zM56.5 1024.5 q-0.5 26.5 3.5 48.5t9 33q0 -3 5 1.5t10.5 10.5t10 10t4.5 1q-5 -21 -6.5 -47.5t4 -49.5t19.5 -37.5t40 -9.5q28 5 41 23t18 40.5t6.5 45.5t6.5 39q1 -3 4.5 1t8 9t8 9.5t5.5 1.5q-3 -30 6 -54t25.5 -37t38 -12.5t43.5 20.5q4 10 2 23t-8.5 26t-15 25t-17.5 21 q11 20 19.5 37.5t17.5 34.5q13 -15 22.5 -33t17.5 -36q11 -32 13 -66t-6 -63.5t-26.5 -50t-47.5 -24.5q-25 -4 -38.5 3t-30.5 19q-4 -11 -11 -25t-18.5 -28t-27.5 -25.5t-38 -16.5q-34 -8 -56.5 1.5t-36 29.5t-19 47.5t-6 54zM255 1428q-2 -20 19 -29.5t50 -17.5q2 16 2 30 q0 11 -2 22t-9 14v-1q-5 5 -11.5 6.5t-11.5 1.5q-17 1 -26.5 -7t-10.5 -19z" />
<glyph unicode="&#xfedf;&#xfee0;&#xfeea;" horiz-adv-x="1844" arabic-form="isolated" d="M67 521v181q0 75 28.5 141t78 115.5t116 78t141.5 28.5t141 -28.5t115.5 -78t78.5 -115.5t29 -141v-178q0 -31 11 -55.5t29 -41t41 -25.5t47 -10q24 1 47 10t41 25.5t29 41t11 55.5v626l233 93v-719q0 -32 11 -56t29 -41t41.5 -26t47.5 -9t47.5 9t42 26t29.5 41t11 56 v824h234v-827q0 -75 -29 -141t-78.5 -115t-115.5 -78t-141 -29q-68 -1 -131.5 24.5t-113.5 71.5q-52 -47 -113 -70t-129 -26q-74 -3 -140.5 26t-116.5 80t-79 118t-29 139v176q0 36 -11 62t-29.5 43t-42 24.5t-47.5 6.5q-25 -1 -48.5 -10.5t-41.5 -27t-29 -42t-11 -56.5 v-173q0 -32 11 -56t29 -40.5t41.5 -25.5t48.5 -10h28l-76 -231q-67 9 -124.5 40.5t-100 79.5t-67 109.5t-24.5 130.5zM860 1591v88l586 77v-88zM862 1464v88l92 13v-78q0 -36 20.5 -62t48.5 -26h18q28 0 48 26t20 62v98l92 12v-110q0 -36 20 -62t48 -26h18q29 0 48.5 26 t19.5 62v130l94 12v-165q0 -34 -13.5 -64.5t-36.5 -53t-54 -35.5t-66 -13q-37 0 -69 14t-55 39q-23 -25 -54.5 -39t-68.5 -14q-35 0 -66 13t-54 35.5t-36.5 53t-13.5 64.5z" />
<glyph unicode="&#x640;&#x64e;" horiz-adv-x="448" arabic-form="medial" d="M13 952q5 24 8 39.5t7 37.5q99 52 191.5 101.5t191.5 102.5l-15 -76q-97 -52 -191.5 -102.5t-191.5 -102.5z" />
<glyph unicode="&#x640;&#x64f;" horiz-adv-x="490" arabic-form="medial" d="M7 1064q61 25 105.5 43t79 36t62.5 39.5t56 54.5q-47 11 -69 34t-25.5 51t9 57.5t34 53.5t49.5 39t56 13q16 -1 25 -12.5t12.5 -29t2.5 -39t-3.5 -41.5t-6.5 -36.5t-7 -24.5l44 -13l-19 -80l-52 12q-11 -23 -37.5 -52.5t-62.5 -55t-78.5 -42.5t-85.5 -15q-29 2 -47.5 3 t-28.5 2t-12.5 1.5t-0.5 1.5zM273 1375q-2 -25 20 -37t51 -23q2 20 2 38q0 15 -2 28.5t-9 18.5v-2q-5 6 -12 8t-12 2q-17 2 -27 -8.5t-11 -24.5z" />
<glyph unicode="&#x640;&#x650;" horiz-adv-x="669" arabic-form="medial" d="M9 301q5 23 8 39t7 38q99 52 191.5 101.5t191.5 102.5l-15 -76q-97 -52 -191.5 -102.5t-191.5 -102.5z" />
<glyph unicode="&#x640;&#x651;" horiz-adv-x="448" arabic-form="medial" d="M47.5 1073.5q-1.5 27.5 2 53.5t10.5 47.5t14 31.5q0 -3 5 1t11.5 9t11.5 8.5t5 0.5q-8 -20 -13.5 -46.5t-3 -50t14 -39.5t37.5 -15q29 0 44.5 16t23.5 37.5t12.5 44.5t12.5 38q1 -3 5 0t9 7.5t9.5 8t5.5 0.5q-8 -29 -2.5 -54t19.5 -40t35.5 -18t46.5 14q6 9 5.5 22 t-4.5 26.5t-11 27t-14 23.5q13 18 24.5 34t22.5 32q11 -17 17.5 -36t11.5 -38q6 -33 3 -67t-15 -62t-33 -45.5t-51 -17.5q-25 0 -37.5 9t-27.5 23q-6 -10 -15 -23t-22 -25t-31 -21t-40 -11q-35 -3 -56 10t-31 35t-11.5 49.5z" />
<glyph unicode="&#xfedf;&#xfe82;" horiz-adv-x="989" arabic-form="isolated" d="M10 1387q0 80 57.5 152.5t216 7t242.5 46.5q-40 -237 -231.5 -157t-284.5 -49zM67 1228l194 131l387 -567q36 39 36 108v448h235l1 -170q0 -53 1 -106.5t-2 -107t-12 -106t-27 -103.5q-17 -45 -45 -82.5t-57 -73.5q63 -129 66 -232.5t-46.5 -175t-146.5 -107.5t-233 -31 h-285v234q1 74 24.5 135.5t65 110t98 84.5t123.5 58zM367 287h134q39 -1 69 9.5t43.5 34t6.5 60t-41 87.5q-42 -8 -76.5 -22t-61.5 -36t-45.5 -54.5t-28.5 -78.5z" />
<glyph unicode="&#xfee0;&#xfe82;" horiz-adv-x="1053" arabic-form="final" d="M10 1387q0 80 57.5 152.5t216 7t242.5 46.5q-40 -237 -231.5 -157t-284.5 -49zM43 1190l191 161q34 -51 82.5 -112t100 -128t99.5 -139t82.5 -144.5t49.5 -144.5t-1 -139q38 52 38 126v678h235v-824q4 -32 17 -56.5t31 -41t40.5 -25.5t45.5 -9v-234q-94 0 -173 43.5 t-128 115.5q-58 -51 -126.5 -82.5t-137.5 -50t-133.5 -25.5t-115 -8t-82 1t-34.5 3l67 242q34 -1 74.5 0.5t82.5 6.5t84 14.5t80 24.5q-28 90 -82.5 184.5t-121 190t-136.5 189.5t-129 183z" />
<glyph unicode="&#xfedf;&#xfe84;" horiz-adv-x="989" arabic-form="isolated" d="M54 1512l82 22q-26 39 -29 75.5t10.5 66.5t39.5 51.5t58 31.5t66.5 5.5t64.5 -26.5l-23 -86q-13 5 -28.5 8.5t-30 2.5t-27 -7.5t-20.5 -19.5q-11 -17 -7.5 -34.5t14.5 -31.5q14 -17 32.5 -23.5t39 -8t41.5 0.5t40 2l-22 -92q-75 0 -142 -2.5t-141 -19.5zM67 1228l194 131 l387 -567q36 39 36 108v448h235l1 -170q0 -53 1 -106.5t-2 -107t-12 -106t-27 -103.5q-17 -45 -45 -82.5t-57 -73.5q63 -129 66 -232.5t-46.5 -175t-146.5 -107.5t-233 -31h-285v234q1 74 24.5 135.5t65 110t98 84.5t123.5 58zM367 287h134q39 -1 69 9.5t43.5 34t6.5 60 t-41 87.5q-42 -8 -76.5 -22t-61.5 -36t-45.5 -54.5t-28.5 -78.5z" />
<glyph unicode="&#xfee0;&#xfe84;" horiz-adv-x="1053" arabic-form="final" d="M43 1190l191 161q34 -51 82.5 -112t100 -128t99.5 -139t82.5 -144.5t49.5 -144.5t-1 -139q38 52 38 126v678h235v-824q4 -32 17 -56.5t31 -41t40.5 -25.5t45.5 -9v-234q-94 0 -173 43.5t-128 115.5q-58 -51 -126.5 -82.5t-137.5 -50t-133.5 -25.5t-115 -8t-82 1t-34.5 3 l67 242q34 -1 74.5 0.5t82.5 6.5t84 14.5t80 24.5q-28 90 -82.5 184.5t-121 190t-136.5 189.5t-129 183zM54 1512l82 22q-26 39 -29 75.5t10.5 66.5t39.5 51.5t58 31.5t66.5 5.5t64.5 -26.5l-23 -86q-13 5 -28.5 8.5t-30 2.5t-27 -7.5t-20.5 -19.5q-11 -17 -7.5 -34.5 t14.5 -31.5q14 -17 32.5 -23.5t39 -8t41.5 0.5t40 2l-22 -92q-75 0 -142 -2.5t-141 -19.5z" />
<glyph unicode="&#xfedf;&#xfe88;" horiz-adv-x="989" arabic-form="isolated" d="M58 -286l82 22q-26 39 -28.5 75.5t11 66.5t39.5 51.5t58 31t66.5 5t64.5 -26.5l-25 -84q-13 5 -28 8t-29.5 2t-27.5 -7t-21 -20q-10 -17 -6 -34.5t15 -31.5q13 -16 31.5 -23t39 -8.5t41.5 0.5t40 2l-22 -92q-75 0 -142.5 -3t-140.5 -19zM67 1228l194 131l387 -567 q36 39 36 108v448h235l1 -170q0 -53 1 -106.5t-2 -107t-12 -106t-27 -103.5q-17 -45 -45 -82.5t-57 -73.5q63 -129 66 -232.5t-46.5 -175t-146.5 -107.5t-233 -31h-285v234q1 74 24.5 135.5t65 110t98 84.5t123.5 58zM367 287h134q39 -1 69 9.5t43.5 34t6.5 60t-41 87.5 q-42 -8 -76.5 -22t-61.5 -36t-45.5 -54.5t-28.5 -78.5z" />
<glyph unicode="&#xfee0;&#xfe88;" horiz-adv-x="1053" arabic-form="final" d="M43 1190l191 161q34 -51 82.5 -112t100 -128t99.5 -139t82.5 -144.5t49.5 -144.5t-1 -139q38 52 38 126v678h235v-824q4 -32 17 -56.5t31 -41t40.5 -25.5t45.5 -9v-234q-94 0 -173 43.5t-128 115.5q-58 -51 -126.5 -82.5t-137.5 -50t-133.5 -25.5t-115 -8t-82 1t-34.5 3 l67 242q34 -1 74.5 0.5t82.5 6.5t84 14.5t80 24.5q-28 90 -82.5 184.5t-121 190t-136.5 189.5t-129 183zM58 -188l82 21q-26 39 -28.5 75t11 66.5t39.5 52t58 31.5t66.5 5.5t64.5 -26.5l-25 -85q-13 5 -28 8t-29.5 2t-27.5 -7t-21 -20q-10 -17 -6 -34.5t15 -31.5 q13 -17 31.5 -23.5t39 -8t41.5 0t40 1.5l-22 -91q-75 0 -142 -2.5t-141 -19.5z" />
<glyph unicode="&#xfedf;&#xfe8e;" horiz-adv-x="989" arabic-form="isolated" d="M67 1228l194 131l387 -567q36 39 36 108v448h235l1 -170q0 -53 1 -106.5t-2 -107t-12 -106t-27 -103.5q-17 -45 -45 -82.5t-57 -73.5q63 -129 66 -232.5t-46.5 -175t-146.5 -107.5t-233 -31h-285v234q1 74 24.5 135.5t65 110t98 84.5t123.5 58zM367 287h134q39 -1 69 9.5 t43.5 34t6.5 60t-41 87.5q-42 -8 -76.5 -22t-61.5 -36t-45.5 -54.5t-28.5 -78.5z" />
<glyph unicode="&#xfee0;&#xfe8e;" horiz-adv-x="1053" arabic-form="final" d="M43 1190l191 161q34 -51 82.5 -112t100 -128t99.5 -139t82.5 -144.5t49.5 -144.5t-1 -139q38 52 38 126v678h235v-824q4 -32 17 -56.5t31 -41t40.5 -25.5t45.5 -9v-234q-94 0 -173 43.5t-128 115.5q-58 -51 -126.5 -82.5t-137.5 -50t-133.5 -25.5t-115 -8t-82 1t-34.5 3 l67 242q34 -1 74.5 0.5t82.5 6.5t84 14.5t80 24.5q-28 90 -82.5 184.5t-121 190t-136.5 189.5t-129 183z" />
<glyph unicode="&#xfcf4;" horiz-adv-x="532" arabic-form="medial" d="M71 1021q61 25 105.5 43t79 36t62.5 39.5t56 54.5q-47 11 -69 34t-25.5 51t9 57.5t34 53.5t49.5 38.5t56 13.5q16 -1 25 -12.5t12.5 -29t2.5 -39t-3.5 -41.5t-6.5 -36.5t-7 -24.5l44 -13l-19 -80l-52 12q-11 -23 -37.5 -52.5t-62.5 -55t-78.5 -42.5t-85.5 -15 q-29 2 -47.5 3t-28.5 2t-12.5 1.5t-0.5 1.5zM337 1332q-2 -25 20 -37t51 -23q2 20 2 38q0 15 -2 28.5t-9 18.5v-2q-5 6 -12 8t-12 2q-17 2 -27 -8.5t-11 -24.5z" />
<glyph unicode="&#xfe70;" horiz-adv-x="408" arabic-form="isolated" d="M49 1482l17 91l340 193l-17 -91zM63 1649l17 91l340 193l-17 -91z" />
<glyph unicode="&#xfe71;" horiz-adv-x="669" arabic-form="medial" d="M1 949q5 23 8 39t7 38q99 52 191.5 101.5t191.5 102.5l-16 -76q-97 -52 -191 -102.5t-191 -102.5zM33 1140q5 23 8.5 38.5t7.5 38.5q99 52 191 101.5t191 102.5l-15 -76q-97 -52 -191.5 -102.5t-191.5 -102.5z" />
<glyph unicode="&#xfe72;" horiz-adv-x="469" arabic-form="isolated" d="M45 1619q19 27 44.5 43.5t50.5 22t47 -1t34 -24.5t10.5 -48t-23.5 -72q46 20 85.5 44t71.5 62q-41 10 -60.5 31.5t-22 47.5t8 53t30 49.5t44 36t49.5 12.5q21 -2 28 -24.5t6.5 -51t-6 -55.5t-8.5 -37l38 -12l-17 -76l-46 13q-6 -14 -19.5 -33.5t-32 -40t-40.5 -39.5 t-45.5 -31t-47.5 -15t-46 8t-24 31.5t3 42t10.5 42t-2 32t-34.5 10.5t-86 -20zM334 1773q-2 -11 3 -19t14 -14t20.5 -11.5t24.5 -11.5q2 19 2 35q0 14 -2.5 26.5t-7.5 16.5v-2q-10 10 -23 10q-14 1 -22.5 -8.5t-8.5 -21.5z" />
<glyph unicode="&#xfe74;" horiz-adv-x="408" arabic-form="isolated" d="M1 -288q5 23 8 38.5t7 38.5q99 52 191.5 101.5t191.5 102.5l-15 -76q-97 -52 -191.5 -102.5t-191.5 -102.5zM33 -98q5 24 8.5 39.5t7.5 38.5q99 52 191 101t191 102l-15 -76q-97 -52 -191.5 -102.5t-191.5 -102.5z" />
<glyph unicode="&#xfe76;" horiz-adv-x="408" arabic-form="isolated" d="M13 1378q5 24 8 39.5t7 37.5q99 52 191.5 101.5t191.5 102.5l-15 -76q-97 -52 -191.5 -102.5t-191.5 -102.5z" />
<glyph unicode="&#xfe78;" horiz-adv-x="414" arabic-form="isolated" d="M13 1507q61 25 105.5 43t79 36t62.5 39.5t56 54.5q-47 11 -69 34t-25.5 51t9 57.5t34 53.5t49.5 38.5t56 13.5q16 -1 25 -12.5t12.5 -29t2.5 -39t-3.5 -41.5t-6.5 -36.5t-7 -24.5l44 -13l-19 -80l-52 12q-11 -23 -37.5 -52.5t-62.5 -55t-78.5 -42.5t-85.5 -15 q-29 2 -47.5 3t-28.5 2t-12.5 1.5t-0.5 1.5zM279 1818q-2 -25 20 -37t51 -23q2 20 2 38q0 15 -2 28.5t-9 18.5v-2q-5 6 -12 8t-12 2q-17 2 -27 -8.5t-11 -24.5z" />
<glyph unicode="&#xfe7a;" horiz-adv-x="408" arabic-form="isolated" d="M9 -568q5 23 8 39t7 38q99 52 191.5 101.5t191.5 102.5l-15 -76q-97 -52 -191.5 -102.5t-191.5 -102.5z" />
<glyph unicode="&#xfe7c;" horiz-adv-x="425" arabic-form="isolated" d="M59.5 1603.5q-1.5 27.5 2 53.5t10.5 47.5t14 31.5q0 -3 5 1t11.5 9t11.5 8.5t5 0.5q-8 -20 -13.5 -46.5t-3 -50t14 -39.5t37.5 -15q29 0 44.5 16t23.5 37.5t12.5 44.5t12.5 38q1 -3 5 0t9 7.5t9.5 8t5.5 0.5q-8 -29 -2.5 -54t19.5 -40t35.5 -18t46.5 14q6 9 5.5 22 t-4.5 26.5t-11 27t-14 23.5q13 18 24.5 34t22.5 32q11 -17 17.5 -36t11.5 -38q6 -33 3 -67t-15 -62t-33 -45.5t-51 -17.5q-25 0 -37.5 9t-27.5 23q-6 -10 -15 -23t-22 -25t-31 -21t-40 -11q-35 -3 -56 10t-31 35t-11.5 49.5z" />
<glyph unicode="&#xfe7e;" horiz-adv-x="328" arabic-form="isolated" d="M59 1556q-5 33 3.5 75.5t27 81.5t46 67t59.5 33q28 4 54 -6.5t46.5 -28.5t34.5 -40.5t17 -41.5q5 -34 -10 -71.5t-41 -87.5v1q0 1 1 2l-3 -5q-24 -14 -61.5 -26.5t-74 -15t-65 11t-34.5 51.5zM123 1643q3 -22 21 -32.5t42 -11t50 6.5t46 21l1 1q-3 14 -13.5 30t-25 29.5 t-31.5 22t-35 5.5q-30 -5 -44 -27t-11 -45zM294 1535q1 0 1 1q0 -1 -1 -1zM295 1536l1 1q0 -1 -1 -1z" />
<glyph unicode="&#xfe7f;" horiz-adv-x="2797" arabic-form="medial" d="M90 223v504h2611v-504h-2611zM161 1054q0 34 16.5 56.5t54.5 22.5q6 0 12 -0.5t13 -1.5q46 -5 92.5 -10t94.5 -5l80 179q8 37 25.5 64t46.5 27q10 0 19.5 -3.5t9.5 -17.5q0 -9 -8 -24.5t-17 -28.5l-97 -192q105 5 209 36t189 97q35 31 61.5 43.5t43.5 12.5q25 0 25 -21 q0 -19 -23 -47.5t-73 -54.5q-33 -34 -63 -72t-54 -82t-40 -96t-20 -115q0 -19 -15 -19q-12 0 -18 13.5t-6 45.5q0 73 22.5 140.5t56.5 124.5q-76 -25 -155 -36.5t-161 -11.5l-80 -160q-15 -31 -39 -54t-56 -23q-24 0 -50 18.5t-47 49t-35 68.5t-14 77zM200 1066 q0 -23 9.5 -52.5t25.5 -56t36 -45t40 -18.5q15 0 29 12t26 40l61 134q-108 3 -214 21q-13 -10 -13 -35zM879 873q0 7 2.5 15t6.5 17q18 40 49 76.5t68.5 64t77.5 44t76 16.5q27 0 48 -16t21 -52q0 -14 -9.5 -30.5t-27.5 -36.5q-20 -20 -35 -44.5t-15 -46.5q0 -15 9 -21.5 t23 -6.5q21 0 49.5 10t56.5 23t51.5 25.5t33.5 18.5q8 37 32.5 68.5t55.5 54.5t63.5 36.5t57.5 13.5q14 0 20 -5t6 -13q0 -10 -11 -20.5t-30 -12.5q-19 -7 -44 -19t-47.5 -30t-38 -41t-15.5 -52q0 -32 16.5 -45t42.5 -13t59 10t64.5 23.5t58 27.5t41.5 21q0 36 19 71 t48.5 62.5t66.5 44t73 16.5q22 0 36.5 -4.5t22 -11t10.5 -15t3 -15.5q0 -26 -29 -52t-67 -49t-74.5 -40.5t-52.5 -25.5q16 -23 41 -33.5t57 -10.5q30 0 64.5 8.5t70 23.5t70 35.5t64.5 43.5q19 14 38 32t40 33q4 3 13 8t19.5 10.5t21.5 9t20 3.5q15 0 15 -13q0 -5 -4 -16.5 t-10 -22.5q-16 -45 -25.5 -75t-11.5 -47q0 -5 6 -5q7 0 20 6.5t29.5 16t34 22t32.5 24.5q4 2 23 15t43 27.5t48 26.5t38 12q12 0 12 -12q-3 -29 -3 -57q0 -12 1 -24.5t4.5 -22t10 -15.5t17.5 -6q17 0 31 5.5t27 13.5t25.5 18t27.5 19l8 -21q-12 -9 -30 -25t-38.5 -31.5 t-42.5 -27t-42 -11.5q-15 0 -25 6t-15 15t-7 19t-2 19t1 18.5t1 17.5q0 11 -3.5 21t-14.5 10q-10 0 -27.5 -9.5t-38.5 -24t-45 -31t-48 -31t-46 -24.5t-40 -10q-11 2 -22 8t-11 19q0 23 4.5 44.5t18.5 62.5q0 1 -15.5 -10t-43 -28t-64 -37t-77 -37.5t-83 -29t-82.5 -11.5 q-41 0 -76.5 16.5t-49.5 46.5q-19 -8 -47.5 -22t-62 -27.5t-68.5 -23t-66 -9.5q-35 0 -61.5 16.5t-35.5 60.5q-21 -12 -45 -26t-49.5 -25.5t-50.5 -19.5t-49 -8q-31 0 -55.5 20.5t-43.5 65.5q-17 -12 -30 -20.5t-25.5 -15.5t-25.5 -12t-30 -11q-18 -6 -32 -6q-17 0 -33 11.5 t-16 33.5zM880 265h126v125h-126v-125zM928 880q41 0 77.5 16.5t68.5 42t59 57.5t50 63q-5 1 -10 1h-10q-36 0 -70.5 -17t-65 -43.5t-56 -58.5t-43.5 -61zM1103 265h91v320l318 -320h109v421h-91v-320l-313 320h-114v-421zM1709 265h430v76h-331v108h299v75h-299v87h322v75 h-421v-421zM1737 954q40 17 73.5 34t58.5 33t39 30t14 25q0 10 -8 15q-50 -5 -99 -38t-78 -99zM2202 609h183v-344h89v344h183v77h-455v-77z" />
<glyph unicode="&#x621;" horiz-adv-x="954" arabic-form="isolated" d="M67 320l208 55q-50 74 -66 145t-5.5 134.5t43.5 117.5t81.5 95t108.5 66t123.5 30.5t128 -11t121.5 -58.5l-62 -218q-32 13 -70.5 21.5t-76 6.5t-70 -18t-53.5 -52q-25 -44 -16 -87.5t38 -78.5q35 -42 82 -59.5t99 -21.5t105 0t101 5l-54 -234q-96 0 -186 -0.5t-178 -5.5 t-176.5 -16.5t-181.5 -32.5z" />
<glyph unicode="&#x622;" horiz-adv-x="421" arabic-form="isolated" d="M-24 1387q-1 80 56.5 152.5t216 7t242.5 46.5q-40 -237 -231.5 -157t-283.5 -49zM80 235q9 38 12.5 87.5t1.5 115.5v910h234v-820q0 -50 -2.5 -102.5t-12.5 -103t-28.5 -96t-49.5 -79.5z" />
<glyph unicode="&#x622;" horiz-adv-x="465" arabic-form="final" d="M-32 1387q-1 80 56.5 152.5t215.5 7t243 46.5q-40 -237 -232 -157t-283 -49zM102 521v827h234v-824q0 -32 11 -56.5t29.5 -41t42 -25.5t47.5 -9v-234q-75 0 -141.5 28.5t-116 77.5t-78 115.5t-28.5 141.5z" />
<glyph unicode="&#x623;" horiz-adv-x="425" arabic-form="isolated" d="M54 1512l82 22q-26 39 -29 75.5t10.5 66.5t39.5 51.5t58 31.5t66.5 5.5t64.5 -26.5l-23 -86q-13 5 -28.5 8.5t-30 2.5t-27 -7.5t-20.5 -19.5q-11 -17 -7.5 -34.5t14.5 -31.5q14 -17 32.5 -23.5t39 -8t41.5 0.5t40 2l-22 -92q-75 0 -142 -2.5t-141 -19.5zM84 235 q9 38 12.5 87.5t1.5 115.5v910h234v-820q0 -50 -2.5 -102.5t-12 -103t-28 -96t-50.5 -79.5z" />
<glyph unicode="&#x623;" horiz-adv-x="474" arabic-form="final" d="M64 1512l81 22q-26 39 -28.5 75.5t11 66.5t39.5 51.5t58 31.5t66.5 5.5t64.5 -26.5l-25 -86q-12 5 -27 8.5t-30 2.5t-28 -7.5t-21 -19.5q-10 -17 -6 -34.5t15 -31.5q14 -17 32.5 -23.5t38.5 -8t41 0.5t40 2l-21 -92q-76 0 -143.5 -2.5t-140.5 -19.5zM111 521v827h234 v-824q0 -32 11 -56.5t29.5 -41t42 -25.5t47.5 -9v-234q-75 0 -141.5 28.5t-116 77.5t-78 115.5t-28.5 141.5z" />
<glyph unicode="&#x624;" horiz-adv-x="862" arabic-form="isolated" d="M67 498v204q0 75 28.5 141t78 115.5t116 78t141.5 28.5t141 -28.5t115.5 -78t78.5 -115.5t29 -141v-184q0 -108 -10.5 -210.5t-37.5 -191t-74.5 -159t-122 -113.5t-179.5 -54.5t-247 17.5v234q58 -23 123.5 -30.5t124 7t102 53.5t56.5 108q-56 -21 -112 -22t-107.5 15 t-96 46.5t-77.5 72.5t-51.5 95t-18.5 112zM188 1266l110 29q-35 52 -39 100.5t14 89t53 69.5t77.5 42t89 7t86.5 -35l-33 -115q-17 7 -37 11.5t-39.5 3.5t-37 -9.5t-27.5 -27.5q-14 -23 -9.5 -46t20.5 -41q18 -23 43 -32t52 -11t55 0.5t53 2.5l-28 -123q-51 0 -98 -0.5 t-93 -3t-93 -8.5t-96 -18zM302 524q0 -32 11 -56.5t29 -41.5t41 -26.5t48 -10.5q24 -1 47.5 6.5t42 24t29.5 42.5t11 62v173q0 36 -11 62t-29.5 43t-42 24.5t-47.5 6.5q-25 -1 -48 -10.5t-41 -27t-29 -42t-11 -56.5v-173z" />
<glyph unicode="&#x624;" horiz-adv-x="933" arabic-form="final" d="M67 498v204q0 75 28.5 141t78 115.5t116 78t141.5 28.5t141 -28.5t115.5 -78t78.5 -115.5t29 -141v-138t-0.5 -86t-1 -51.5t-1.5 -34.5h142v-234h-174q-28 -119 -91.5 -198t-149.5 -121.5t-188 -50t-207 18.5v234q55 -23 118 -31t120 4t101 46.5t62 97.5q-39 -7 -87.5 -6 t-99.5 12.5t-99.5 35t-87 63.5t-61.5 98t-23 137zM188 1266l110 29q-35 52 -39 100.5t14 89t53 69.5t77.5 42t89 7t86.5 -35l-33 -115q-17 7 -37 11.5t-39.5 3.5t-37 -9.5t-27.5 -27.5q-14 -23 -9.5 -46t20.5 -41q18 -23 43 -32t52 -11t55 0.5t53 2.5l-28 -123 q-51 0 -98 -0.5t-93 -3t-93 -8.5t-96 -18zM302 524q0 -32 11 -56.5t29 -41.5t41 -26.5t48 -10.5h130v308q0 36 -11 62t-29.5 43t-42 24.5t-47.5 6.5q-25 -1 -48 -10.5t-41 -27t-29 -42t-11 -56.5v-173z" />
<glyph unicode="&#x625;" horiz-adv-x="448" arabic-form="isolated" d="M29 -188l81 21q-26 39 -28.5 75t10.5 66.5t39.5 52t58.5 31.5t66.5 5.5t64.5 -26.5l-24 -85q-13 5 -28.5 8t-30 2t-27 -7t-20.5 -20q-11 -17 -7.5 -34.5t14.5 -31.5q14 -17 33 -23.5t39 -8t41 0t40 1.5l-22 -91q-75 0 -142 -2.5t-141 -19.5zM102 235q9 38 12.5 87.5 t1.5 115.5v910h234v-820q0 -50 -2.5 -102.5t-12.5 -103t-28.5 -96t-49.5 -79.5z" />
<glyph unicode="&#x625;" horiz-adv-x="470" arabic-form="final" d="M97 -188l82 21q-26 39 -28.5 75t11 66.5t39.5 52t58 31.5t66.5 5.5t64.5 -26.5l-25 -85q-13 5 -28 8t-29 2t-27 -7t-21 -20q-11 -17 -7 -34.5t15 -31.5q13 -17 31.5 -23.5t39 -8t41.5 0t40 1.5l-22 -91q-75 0 -142 -2.5t-141 -19.5zM106 521v827h234v-824q0 -32 11 -56.5 t29.5 -41t42 -25.5t47.5 -9v-234q-75 0 -141.5 28.5t-116 77.5t-78 115.5t-28.5 141.5z" />
<glyph unicode="&#x626;" horiz-adv-x="1346" arabic-form="isolated" d="M-23 872l109 28q-35 52 -38.5 101t14.5 89t53 69.5t77.5 42t88.5 7t86 -35.5l-32 -114q-17 7 -37 11.5t-40 3t-37 -9.5t-28 -27q-13 -23 -8.5 -46t19.5 -41q19 -23 43.5 -32t52 -11t55.5 0.5t53 2.5l-29 -123q-51 0 -98 -0.5t-93 -3t-92.5 -8.5t-95.5 -18zM130 571 l207 82q0 -41 9 -87t32 -84t62.5 -63.5t99.5 -26.5h374q46 0 74.5 16.5t41 40.5t9.5 52.5t-20 52.5t-47 40t-72 15l-126 -1q-58 -3 -102 7.5t-74.5 31t-48.5 48.5t-24 61q-12 59 1 112t42 99.5t70.5 87.5t88 77.5t93.5 67.5t87 58l143 -186q-85 -39 -161 -94t-136 -136 q39 0 78 0.5t77 -1t76 -7.5t75 -18q68 -23 114 -64t71.5 -91.5t31.5 -107.5t-6 -113t-41 -107t-74 -90t-104.5 -62t-132.5 -23h-446q-95 2 -160 35t-105.5 89t-58.5 130t-18 159z" />
<glyph unicode="&#x626;" horiz-adv-x="1307" arabic-form="final" d="M40 477l110 28q-35 52 -39 100.5t14 89t53 69.5t78 42t89 7.5t86 -35.5l-33 -114q-17 7 -37 11t-39.5 3t-37 -9.5t-27.5 -26.5q-14 -23 -9.5 -46t20.5 -41q19 -23 43.5 -32t52 -11t55.5 0.5t53 2.5l-29 -123q-51 0 -98 -0.5t-93 -3t-92.5 -8.5t-95.5 -18zM67 55.5 q-3 59.5 6 117.5l212 83q-18 -112 0.5 -184.5t61 -113t102.5 -54t124.5 -7.5t126.5 27t109.5 48.5t73.5 58.5t17 56t-58.5 41t-152.5 14l-70 -1l85 252l604 -1v-234h-130q3 -76 -29.5 -145t-90 -128t-134.5 -105.5t-162.5 -77t-174.5 -43t-170 -3.5q-69 6 -123.5 30.5 t-96 62.5t-69 87t-43 104.5t-18.5 115z" />
<glyph unicode="&#x626;" horiz-adv-x="430" arabic-form="initial" d="M-38 1122l109 28q-35 52 -38.5 100.5t14 89t52.5 69.5t78 42t89 7.5t86 -35.5l-32 -114q-17 7 -37 11.5t-40 3t-37.5 -10t-28.5 -27.5q-13 -23 -8 -45.5t21 -41.5q18 -22 42.5 -31t51.5 -11.5t55 0t54 2.5l-28 -122q-51 0 -98 -0.5t-93.5 -3.5t-93 -9t-95.5 -17zM-1 158 v234q24 0 47.5 9t42 25.5t30 41t11.5 56.5v382h234v-385q0 -75 -29 -141.5t-78.5 -115.5t-116 -77.5t-141.5 -28.5z" />
<glyph unicode="&#x626;" horiz-adv-x="492" arabic-form="medial" d="M-1 158v234q24 0 47.5 9t42 25.5t30 41t11.5 56.5v382h234v-382q0 -32 11 -56.5t29 -41t41.5 -25.5t47.5 -9v-234q-72 0 -135 25.5t-112 70.5q-49 -45 -112 -70.5t-135 -25.5zM23 1122l109 28q-35 52 -38.5 100.5t14 89t52.5 69.5t78 42t89 7.5t86 -35.5l-32 -114 q-17 7 -37 11.5t-40 3t-37 -10t-28 -27.5q-14 -23 -9 -45.5t21 -41.5q18 -22 42.5 -31t51.5 -11.5t55 0t54 2.5l-29 -122q-50 0 -97 -0.5t-93.5 -3.5t-93 -9t-95.5 -17z" />
<glyph unicode="&#x627;" horiz-adv-x="452" arabic-form="isolated" d="M97 235q10 38 13.5 87.5t1.5 115.5v910h233v-820q0 -50 -2.5 -102.5t-12 -103t-28 -96t-50.5 -79.5z" />
<glyph unicode="&#x627;" horiz-adv-x="474" arabic-form="final" d="M111 521v827h234v-824q0 -32 11 -56.5t29.5 -41t42 -25.5t47.5 -9v-234q-75 0 -141.5 28.5t-116 77.5t-78 115.5t-28.5 141.5z" />
<glyph unicode="&#x628;" horiz-adv-x="1332" arabic-form="isolated" d="M67 580v35h234v-31q0 -54 31.5 -94.5t83.5 -67.5t117.5 -41t134.5 -14q59 0 116.5 9.5t106 29.5t84 50t50.5 71q8 35 6 66.5t-12 60.5t-27.5 56.5t-40.5 55.5l156 144q41 -31 72.5 -75.5t52.5 -96.5q30 -75 32.5 -147.5t-20.5 -137.5t-69.5 -119.5t-114.5 -94.5 q-83 -48 -184.5 -72t-207.5 -24q-113 0 -221 27t-192.5 82t-136 136.5t-51.5 191.5zM499 -170l167 168l169 -168l-169 -167z" />
<glyph unicode="&#x628;" horiz-adv-x="1331" arabic-form="final" d="M67 580v35h235v-31q0 -54 29 -94.5t77.5 -68.5t111.5 -42.5t132 -16.5q9 0 36 3t62 10.5t74 21t71 33t53 47t21 63.5v366h233v-382q0 -32 11.5 -56.5t29.5 -41t41.5 -25.5t47.5 -9v-234q-72 0 -135 25.5t-111 70.5q-58 -41 -132.5 -69.5t-157.5 -42.5t-169 -13.5 t-167 17.5t-152.5 52t-125 88t-84.5 126.5t-31 167.5zM478 -184l167 168l168 -168l-168 -167z" />
<glyph unicode="&#x628;" horiz-adv-x="430" arabic-form="initial" d="M-1 158v234q24 0 47.5 9t42 25.5t30 41t11.5 56.5v382h234v-385q0 -75 -29 -141.5t-78.5 -115.5t-116 -77.5t-141.5 -28.5zM22 -139l167 168l169 -168l-169 -167z" />
<glyph unicode="&#x628;" horiz-adv-x="492" arabic-form="medial" d="M-1 158v234q24 0 47.5 9t42 25.5t30 41t11.5 56.5v382h234v-382q0 -32 11 -56.5t29 -41t41.5 -25.5t47.5 -9v-234q-72 0 -135 25.5t-112 70.5q-49 -45 -112 -70.5t-135 -25.5zM77 -139l167 168l169 -168l-169 -167z" />
<glyph unicode="&#x629;" horiz-adv-x="862" arabic-form="isolated" d="M67 521v181q0 75 28.5 141t78 115.5t116 78t141.5 28.5t141 -28.5t115.5 -78t78.5 -115.5t29 -141v-181q0 -75 -29 -141.5t-78.5 -116t-115.5 -78.5t-141 -29t-141.5 29t-116 78.5t-78 116t-28.5 141.5zM122 1358l168 167l140 -140l140 140l168 -167l-168 -168l-140 139 l-140 -139zM302 524q0 -32 11 -56.5t29 -41.5t41.5 -26.5t47.5 -10.5t47.5 6.5t42 24t29.5 42.5t11 62v173q0 36 -11 62t-29.5 43t-42 24.5t-47.5 6.5t-47.5 -10.5t-41.5 -27t-29 -42t-11 -56.5v-173z" />
<glyph unicode="&#x629;" horiz-adv-x="925" arabic-form="final" d="M67 521v181q0 75 29 141t78.5 115.5t116 78t141.5 28.5t141 -28.5t115.5 -78t78 -115.5t28.5 -141v-178q0 -32 11 -56.5t29.5 -41t42 -25.5t48.5 -9v-234q-75 0 -141.5 28.5t-116 77.5t-78.5 115.5t-29 141.5v176q0 36 -11 62t-29.5 43t-41.5 24.5t-47 6.5 q-25 -1 -48.5 -10.5t-41.5 -27t-29 -42t-11 -56.5v-173q0 -32 11 -56t29 -40.5t41.5 -25.5t48.5 -10h28l-76 -231q-67 9 -125 40.5t-100.5 79.5t-67 109.5t-24.5 130.5zM122 1358l168 167l140 -140l140 140l168 -167l-168 -168l-140 139l-140 -139z" />
<glyph unicode="&#x62a;" horiz-adv-x="1332" arabic-form="isolated" d="M67 580v35h234v-31q0 -54 31.5 -94.5t83.5 -67.5t117.5 -41t134.5 -14q59 0 116.5 9.5t106 29.5t84 50t50.5 71q8 35 6 66.5t-12 60.5t-27.5 56.5t-40.5 55.5l156 144q41 -31 72.5 -75.5t52.5 -96.5q30 -75 32.5 -147.5t-20.5 -137.5t-69.5 -119.5t-114.5 -94.5 q-83 -48 -184.5 -72t-207.5 -24q-113 0 -221 27t-192.5 82t-136 136.5t-51.5 191.5zM366 1077l168 167l141 -139l139 139l168 -167l-168 -167l-139 139l-141 -139z" />
<glyph unicode="&#x62a;" horiz-adv-x="1331" arabic-form="final" d="M67 580v35h235v-31q0 -54 29 -94.5t77.5 -68.5t111.5 -42.5t132 -16.5q9 0 36 3t62 10.5t74 21t71 33t53 47t21 63.5v366h233v-382q0 -32 11.5 -56.5t29.5 -41t41.5 -25.5t47.5 -9v-234q-72 0 -135 25.5t-111 70.5q-58 -41 -132.5 -69.5t-157.5 -42.5t-169 -13.5 t-167 17.5t-152.5 52t-125 88t-84.5 126.5t-31 167.5zM303 1077l167 167l141 -139l139 139l168 -167l-168 -167l-139 139l-141 -139z" />
<glyph unicode="&#x62a;" horiz-adv-x="587" arabic-form="initial" d="M-39 1204l168 167l140 -140l139 140l168 -167l-168 -168l-139 139l-140 -139zM-1 158v234h158q24 0 47 9t41.5 25.5t29.5 41t11 56.5v382h234v-385q0 -75 -28.5 -141t-77.5 -115.5t-115.5 -78t-141.5 -28.5h-158z" />
<glyph unicode="&#x62a;" horiz-adv-x="492" arabic-form="medial" d="M-64 1204l168 167l140 -140l140 140l168 -167l-168 -168l-140 139l-140 -139zM-1 158v234q24 0 47.5 9t42 25.5t30 41t11.5 56.5v382h234v-382q0 -32 11 -56.5t29 -41t41.5 -25.5t47.5 -9v-234q-72 0 -135 25.5t-112 70.5q-49 -45 -112 -70.5t-135 -25.5z" />
<glyph unicode="&#x62b;" horiz-adv-x="1332" arabic-form="isolated" d="M67 580v35h234v-31q0 -54 31.5 -94.5t83.5 -67.5t117.5 -41t134.5 -14q59 0 116.5 9.5t106 29.5t84 50t50.5 71q8 35 6 66.5t-12 60.5t-27.5 56.5t-40.5 55.5l156 144q41 -31 72.5 -75.5t52.5 -96.5q30 -75 32.5 -147.5t-20.5 -137.5t-69.5 -119.5t-114.5 -94.5 q-83 -48 -184.5 -72t-207.5 -24q-113 0 -221 27t-192.5 82t-136 136.5t-51.5 191.5zM366 1077l168 167l141 -139l139 139l168 -167l-168 -167l-139 139l-141 -139zM510 1380l167 168l169 -168l-169 -167z" />
<glyph unicode="&#x62b;" horiz-adv-x="1331" arabic-form="final" d="M67 580v35h235v-31q0 -54 29 -94.5t77.5 -68.5t111.5 -42.5t132 -16.5q9 0 36 3t62 10.5t74 21t71 33t53 47t21 63.5v366h233v-382q0 -32 11.5 -56.5t29.5 -41t41.5 -25.5t47.5 -9v-234q-72 0 -135 25.5t-111 70.5q-58 -41 -132.5 -69.5t-157.5 -42.5t-169 -13.5 t-167 17.5t-152.5 52t-125 88t-84.5 126.5t-31 167.5zM303 1077l167 167l141 -139l139 139l168 -167l-168 -167l-139 139l-141 -139zM445 1380l167 168l169 -168l-169 -167z" />
<glyph unicode="&#x62b;" horiz-adv-x="587" arabic-form="initial" d="M-39 1204l168 167l140 -140l139 140l168 -167l-168 -168l-139 139l-140 -139zM-1 158v234h158q24 0 47 9t41.5 25.5t29.5 41t11 56.5v382h234v-385q0 -75 -28.5 -141t-77.5 -115.5t-115.5 -78t-141.5 -28.5h-158zM104 1506l167 168l168 -168l-168 -167z" />
<glyph unicode="&#x62b;" horiz-adv-x="492" arabic-form="medial" d="M-64 1204l168 167l140 -140l140 140l168 -167l-168 -168l-140 139l-140 -139zM-1 158v234q24 0 47.5 9t42 25.5t30 41t11.5 56.5v382h234v-382q0 -32 11 -56.5t29 -41t41.5 -25.5t47.5 -9v-234q-72 0 -135 25.5t-112 70.5q-49 -45 -112 -70.5t-135 -25.5zM78 1506 l167 168l169 -168l-169 -167z" />
<glyph unicode="&#x62c;" horiz-adv-x="992" arabic-form="isolated" d="M73 214q12 99 54 175t106.5 132t147.5 93.5t178 58.5q-40 34 -83 57t-90.5 31t-101 -1t-113.5 -39l-5 221q66 54 132 67t130.5 -2t128 -51t126 -80t123 -88.5t119.5 -76.5l-99 -262q-50 4 -106.5 2t-112.5 -12t-108 -30t-93.5 -52t-69 -77.5t-34.5 -105.5q-5 -42 4.5 -83 t34.5 -75.5t66 -60.5t99 -36q40 -8 84.5 -5t88 11.5t84 20t73.5 19.5l35 -218q-63 -19 -129.5 -34t-133.5 -22t-132.5 -2.5t-126.5 25t-114.5 60t-97.5 102.5q-42 63 -59.5 152t-4.5 186zM425 167l167 168l169 -168l-169 -167z" />
<glyph unicode="&#x62c;" horiz-adv-x="954" arabic-form="final" d="M72 214q12 99 54 175t106.5 132t148 93.5t178.5 58.5q-47 33 -95 55.5t-96.5 30.5t-97.5 -0.5t-99 -37.5l-6 221q66 54 132 67t130.5 -2t128.5 -51t126.5 -80t123 -88.5t119.5 -76.5l-90 -243q17 -37 50 -56.5t69 -19.5v-234q-66 0 -124 20t-104 57t-78 88t-44 114 q-56 -12 -109 -31t-94.5 -50t-68.5 -75.5t-31 -106.5q-3 -42 7 -83t34.5 -75.5t65 -60.5t98.5 -36q40 -8 84 -5t87.5 11.5t84 20t73.5 19.5l35 -218q-63 -19 -129.5 -34t-133 -22t-132.5 -2.5t-126.5 25t-114.5 60t-97 102.5q-42 63 -59.5 152t-5.5 186zM359 149l167 168 l169 -168l-169 -167z" />
<glyph unicode="&#x62c;" horiz-adv-x="1060" arabic-form="initial" d="M-1 158v234q76 0 139.5 8.5t129 31t141 62t177.5 101.5q-58 46 -118.5 82.5t-123.5 56t-128 18.5t-132 -31l-1 221q61 50 121 65t119 5t117.5 -39.5t116 -67.5t113.5 -80t111 -78t108 -59.5t104 -25.5l-75 -234q-68 1 -130 -19t-124.5 -50.5t-130 -67t-147 -67 t-174.5 -50t-213 -16.5zM205 -139l167 168l169 -168l-169 -167z" />
<glyph unicode="&#x62c;" horiz-adv-x="1140" arabic-form="medial" d="M-1 158v234h678q-42 51 -78 98.5t-71 86.5t-72 66t-82.5 37t-102.5 0.5t-131 -45.5l-4 221q69 57 136 75t133 6q78 -14 143 -59.5t122 -106t107 -127.5t98 -123t95 -92.5t98 -36.5h73v-234h-1142zM281 -139l167 168l168 -168l-168 -167z" />
<glyph unicode="&#x62d;" horiz-adv-x="992" arabic-form="isolated" d="M73 214q12 99 54 175t106.5 132t147.5 93.5t178 58.5q-40 34 -83 57t-90.5 31t-101 -1t-113.5 -39l-5 221q66 54 132 67t130.5 -2t128 -51t126 -80t123 -88.5t119.5 -76.5l-99 -262q-50 4 -106.5 2t-112.5 -12t-108 -30t-93.5 -52t-69 -77.5t-34.5 -105.5q-5 -42 4.5 -83 t34.5 -75.5t66 -60.5t99 -36q40 -8 84.5 -5t88 11.5t84 20t73.5 19.5l35 -218q-63 -19 -129.5 -34t-133.5 -22t-132.5 -2.5t-126.5 25t-114.5 60t-97.5 102.5q-42 63 -59.5 152t-4.5 186z" />
<glyph unicode="&#x62d;" horiz-adv-x="954" arabic-form="final" d="M72 214q12 99 54 175t106.5 132t148 93.5t178.5 58.5q-47 33 -95 55.5t-96.5 30.5t-97.5 -0.5t-99 -37.5l-6 221q66 54 132 67t130.5 -2t128.5 -51t126.5 -80t123 -88.5t119.5 -76.5l-90 -243q17 -37 50 -56.5t69 -19.5v-234q-66 0 -124 20t-104 57t-78 88t-44 114 q-56 -12 -109 -31t-94.5 -50t-68.5 -75.5t-31 -106.5q-3 -42 7 -83t34.5 -75.5t65 -60.5t98.5 -36q40 -8 84 -5t87.5 11.5t84 20t73.5 19.5l35 -218q-63 -19 -129.5 -34t-133 -22t-132.5 -2.5t-126.5 25t-114.5 60t-97 102.5q-42 63 -59.5 152t-5.5 186z" />
<glyph unicode="&#x62d;" horiz-adv-x="1060" arabic-form="initial" d="M-1 158v234q76 0 139.5 8.5t129 31t141 62t177.5 101.5q-58 46 -118.5 82.5t-123.5 56t-128 18.5t-132 -31l-1 221q61 50 121 65t119 5t117.5 -39.5t116 -67.5t113.5 -80t111 -78t108 -59.5t104 -25.5l-75 -234q-68 1 -130 -19t-124.5 -50.5t-130 -67t-147 -67 t-174.5 -50t-213 -16.5z" />
<glyph unicode="&#x62d;" horiz-adv-x="1140" arabic-form="medial" d="M-1 158v234h678q-42 51 -78 98.5t-71 86.5t-72 66t-82.5 37t-102.5 0.5t-131 -45.5l-4 221q69 57 136 75t133 6q78 -14 143 -59.5t122 -106t107 -127.5t98 -123t95 -92.5t98 -36.5h73v-234h-1142z" />
<glyph unicode="&#x62e;" horiz-adv-x="992" arabic-form="isolated" d="M73 214q12 99 54 175t106.5 132t147.5 93.5t178 58.5q-40 34 -83 57t-90.5 31t-101 -1t-113.5 -39l-5 221q66 54 132 67t130.5 -2t128 -51t126 -80t123 -88.5t119.5 -76.5l-99 -262q-50 4 -106.5 2t-112.5 -12t-108 -30t-93.5 -52t-69 -77.5t-34.5 -105.5q-5 -42 4.5 -83 t34.5 -75.5t66 -60.5t99 -36q40 -8 84.5 -5t88 11.5t84 20t73.5 19.5l35 -218q-63 -19 -129.5 -34t-133.5 -22t-132.5 -2.5t-126.5 25t-114.5 60t-97.5 102.5q-42 63 -59.5 152t-4.5 186zM164 1256l167 168l169 -168l-169 -167z" />
<glyph unicode="&#x62e;" horiz-adv-x="954" arabic-form="final" d="M72 214q12 99 54 175t106.5 132t148 93.5t178.5 58.5q-47 33 -95 55.5t-96.5 30.5t-97.5 -0.5t-99 -37.5l-6 221q66 54 132 67t130.5 -2t128.5 -51t126.5 -80t123 -88.5t119.5 -76.5l-90 -243q17 -37 50 -56.5t69 -19.5v-234q-66 0 -124 20t-104 57t-78 88t-44 114 q-56 -12 -109 -31t-94.5 -50t-68.5 -75.5t-31 -106.5q-3 -42 7 -83t34.5 -75.5t65 -60.5t98.5 -36q40 -8 84 -5t87.5 11.5t84 20t73.5 19.5l35 -218q-63 -19 -129.5 -34t-133 -22t-132.5 -2.5t-126.5 25t-114.5 60t-97 102.5q-42 63 -59.5 152t-5.5 186zM284 1274l168 168 l168 -168l-168 -167z" />
<glyph unicode="&#x62e;" horiz-adv-x="1060" arabic-form="initial" d="M-1 158v234q76 0 139.5 8.5t129 31t141 62t177.5 101.5q-58 46 -118.5 82.5t-123.5 56t-128 18.5t-132 -31l-1 221q61 50 121 65t119 5t117.5 -39.5t116 -67.5t113.5 -80t111 -78t108 -59.5t104 -25.5l-75 -234q-68 1 -130 -19t-124.5 -50.5t-130 -67t-147 -67 t-174.5 -50t-213 -16.5zM114 1281l167 168l168 -168l-168 -167z" />
<glyph unicode="&#x62e;" horiz-adv-x="1140" arabic-form="medial" d="M-1 158v234h678q-42 51 -78 98.5t-71 86.5t-72 66t-82.5 37t-102.5 0.5t-131 -45.5l-4 221q69 57 136 75t133 6q78 -14 143 -59.5t122 -106t107 -127.5t98 -123t95 -92.5t98 -36.5h73v-234h-1142zM239 1224l167 168l168 -168l-168 -167z" />
<glyph unicode="&#x62f;" horiz-adv-x="763" arabic-form="isolated" d="M67 158v234h260q36 0 62 11t42.5 29.5t24.5 42t7 47.5q-2 33 -24.5 70t-58 75.5t-79.5 77t-87 73.5l164 180q54 -44 110 -98.5t102 -116t75.5 -127.5t30.5 -134q1 -75 -27.5 -141.5t-78.5 -116t-117 -78t-142 -28.5h-264z" />
<glyph unicode="&#x62f;" horiz-adv-x="874" arabic-form="final" d="M67 158v234h311q32 0 56.5 9t36.5 31t9 58.5t-25 90.5l-142 342l217 91l226 -545q16 -37 49 -57t70 -20v-234q-72 0 -135 25.5t-112 70.5q-49 -45 -112 -70.5t-134 -25.5h-315z" />
<glyph unicode="&#x630;" horiz-adv-x="763" arabic-form="isolated" d="M59 1198l167 168l169 -168l-169 -167zM67 158v234h260q36 0 62 11t42.5 29.5t24.5 42t7 47.5q-2 33 -24.5 70t-58 75.5t-79.5 77t-87 73.5l164 180q54 -44 110 -98.5t102 -116t75.5 -127.5t30.5 -134q1 -75 -27.5 -141.5t-78.5 -116t-117 -78t-142 -28.5h-264z" />
<glyph unicode="&#x630;" horiz-adv-x="874" arabic-form="final" d="M67 158v234h311q32 0 56.5 9t36.5 31t9 58.5t-25 90.5l-142 342l217 91l226 -545q16 -37 49 -57t70 -20v-234q-72 0 -135 25.5t-112 70.5q-49 -45 -112 -70.5t-134 -25.5h-315zM232 1272l167 168l169 -168l-169 -167z" />
<glyph unicode="&#x631;" horiz-adv-x="813" arabic-form="isolated" d="M67 41q88 -35 157.5 -32t121.5 32.5t87.5 82t54.5 117.5t22.5 137.5t-8 143t-37.5 134t-66 110.5l155 144q74 -63 119 -153.5t62 -193.5t8 -211t-43.5 -207t-92.5 -180.5t-138 -131t-181 -60t-221 33.5v234z" />
<glyph unicode="&#x631;" horiz-adv-x="865" arabic-form="final" d="M67 41q58 -23 123.5 -30.5t124 7t101.5 53.5t56 108q7 84 10.5 174t1.5 196v357h234v-395v-57t-2 -62h150v-234h-171q-11 -54 -27.5 -103.5t-41.5 -88.5q-35 -51 -87 -90t-121.5 -61.5t-157 -25.5t-193.5 18v234z" />
<glyph unicode="&#x632;" horiz-adv-x="813" arabic-form="isolated" d="M67 41q88 -35 157.5 -32t121.5 32.5t87.5 82t54.5 117.5t22.5 137.5t-8 143t-37.5 134t-66 110.5l155 144q74 -63 119 -153.5t62 -193.5t8 -211t-43.5 -207t-92.5 -180.5t-138 -131t-181 -60t-221 33.5v234zM123 1084l167 167l168 -167l-168 -168z" />
<glyph unicode="&#x632;" horiz-adv-x="865" arabic-form="final" d="M67 41q58 -23 123.5 -30.5t124 7t101.5 53.5t56 108q7 84 10.5 174t1.5 196v357h234v-395v-57t-2 -62h150v-234h-171q-11 -54 -27.5 -103.5t-41.5 -88.5q-35 -51 -87 -90t-121.5 -61.5t-157 -25.5t-193.5 18v234zM426 1197l167 168l169 -168l-169 -167z" />
<glyph unicode="&#x633;" horiz-adv-x="2019" arabic-form="isolated" d="M67 224v369h234v-365q0 -50 18.5 -87t49 -61.5t69 -37.5t79.5 -13q40 0 79 12t69.5 37t49 62.5t18.5 87.5v678h234v-514h132q24 0 47.5 9t42 25.5t29.5 41t11 56.5v382h234v-382q0 -31 11 -55.5t29 -41t41 -25.5t47 -10q24 1 47 10t41 25.5t29 41t11 55.5v382h233v-385 q0 -75 -28 -141t-77 -115t-114 -77.5t-139 -29.5q-72 0 -135.5 25.5t-111.5 70.5q-49 -45 -112.5 -70.5t-135.5 -25.5h-137q-13 -82 -55.5 -148.5t-103.5 -113t-135 -72t-151 -25.5q-84 0 -165 30.5t-144.5 86.5t-102 134t-38.5 174z" />
<glyph unicode="&#x633;" horiz-adv-x="2082" arabic-form="final" d="M67 224v369h235v-365q0 -50 18.5 -87t48.5 -61.5t68.5 -37.5t79.5 -13t80 12t69 37t48.5 62.5t18.5 87.5v678h235v-514h131q24 0 47.5 9t42 25.5t29.5 41t11 56.5v382h234v-382q0 -31 11 -55.5t29 -41t41 -25.5t47 -10q24 1 47 10t41 25.5t29 41t11 55.5v382h234v-382 q0 -32 11 -56.5t29.5 -41t42 -25.5t47.5 -9v-234q-71 0 -134.5 25.5t-112.5 70.5q-48 -45 -110 -69.5t-132 -26.5q-72 0 -135.5 25.5t-111.5 70.5q-49 -45 -112.5 -70.5t-135.5 -25.5h-136q-13 -82 -55.5 -148.5t-103.5 -113t-135.5 -72t-151.5 -25.5q-84 0 -165 30.5 t-144.5 86.5t-102 134t-38.5 174z" />
<glyph unicode="&#x633;" horiz-adv-x="1411" arabic-form="initial" d="M-1 158v234q24 0 47.5 9t42 25.5t30 41t11.5 56.5v382h234v-382q0 -31 11 -55.5t29 -41.5t41 -26t47 -9t47.5 9t41.5 26t29 41.5t11 55.5v382h234v-382q0 -31 11 -55.5t29 -41t41 -25.5t47 -10q24 1 47 10t41 25.5t29 41t11 55.5v382h234v-385q0 -75 -28.5 -141t-77 -115 t-114 -77.5t-139.5 -29.5q-72 0 -135 25.5t-112 70.5q-54 -48 -114.5 -70t-131.5 -26q-68 0 -132 25t-115 71q-49 -45 -112 -70.5t-135 -25.5z" />
<glyph unicode="&#x633;" horiz-adv-x="1474" arabic-form="medial" d="M-1 158v234q24 0 47.5 9t42 25.5t30 41t11.5 56.5v382h234v-382q0 -31 11 -55.5t29 -41.5t41 -26t47 -9t47.5 9t41.5 26t29 41.5t11 55.5v382h234v-382q0 -31 11 -55.5t29 -41t41 -25.5t47 -10q24 1 47 10t41 25.5t29 41t11 55.5v382h234v-382q0 -32 11 -56.5t29 -41 t41.5 -25.5t48.5 -9v-234q-72 0 -135 25.5t-112 70.5q-49 -45 -110.5 -69.5t-131.5 -26.5q-72 0 -135 25.5t-112 70.5q-54 -48 -114.5 -70t-131.5 -26q-68 0 -132 25t-115 71q-49 -45 -112 -70.5t-135 -25.5z" />
<glyph unicode="&#x634;" horiz-adv-x="2019" arabic-form="isolated" d="M67 224v369h234v-365q0 -50 18.5 -87t49 -61.5t69 -37.5t79.5 -13q40 0 79 12t69.5 37t49 62.5t18.5 87.5v678h234v-514h132q24 0 47.5 9t42 25.5t29.5 41t11 56.5v382h234v-382q0 -31 11 -55.5t29 -41t41 -25.5t47 -10q24 1 47 10t41 25.5t29 41t11 55.5v382h233v-385 q0 -75 -28 -141t-77 -115t-114 -77.5t-139 -29.5q-72 0 -135.5 25.5t-111.5 70.5q-49 -45 -112.5 -70.5t-135.5 -25.5h-137q-13 -82 -55.5 -148.5t-103.5 -113t-135 -72t-151 -25.5q-84 0 -165 30.5t-144.5 86.5t-102 134t-38.5 174zM1038 1204l168 167l141 -140l139 140 l168 -167l-168 -168l-139 139l-141 -139zM1181 1506l167 168l168 -168l-168 -167z" />
<glyph unicode="&#x634;" horiz-adv-x="2082" arabic-form="final" d="M67 224v369h235v-365q0 -50 18.5 -87t48.5 -61.5t68.5 -37.5t79.5 -13t80 12t69 37t48.5 62.5t18.5 87.5v678h235v-514h131q24 0 47.5 9t42 25.5t29.5 41t11 56.5v382h234v-382q0 -31 11 -55.5t29 -41t41 -25.5t47 -10q24 1 47 10t41 25.5t29 41t11 55.5v382h234v-382 q0 -32 11 -56.5t29.5 -41t42 -25.5t47.5 -9v-234q-71 0 -134.5 25.5t-112.5 70.5q-48 -45 -110 -69.5t-132 -26.5q-72 0 -135.5 25.5t-111.5 70.5q-49 -45 -112.5 -70.5t-135.5 -25.5h-136q-13 -82 -55.5 -148.5t-103.5 -113t-135.5 -72t-151.5 -25.5q-84 0 -165 30.5 t-144.5 86.5t-102 134t-38.5 174zM1038 1204l168 167l141 -140l139 140l168 -167l-168 -168l-139 139l-141 -139zM1181 1506l167 168l168 -168l-168 -167z" />
<glyph unicode="&#x634;" horiz-adv-x="1411" arabic-form="initial" d="M-1 158v234q24 0 47.5 9t42 25.5t30 41t11.5 56.5v382h234v-382q0 -31 11 -55.5t29 -41.5t41 -26t47 -9t47.5 9t41.5 26t29 41.5t11 55.5v382h234v-382q0 -31 11 -55.5t29 -41t41 -25.5t47 -10q24 1 47 10t41 25.5t29 41t11 55.5v382h234v-385q0 -75 -28.5 -141t-77 -115 t-114 -77.5t-139.5 -29.5q-72 0 -135 25.5t-112 70.5q-54 -48 -114.5 -70t-131.5 -26q-68 0 -132 25t-115 71q-49 -45 -112 -70.5t-135 -25.5zM427 1204l168 167l140 -140l139 140l168 -167l-168 -168l-139 139l-140 -139zM570 1506l167 168l169 -168l-169 -167z" />
<glyph unicode="&#x634;" horiz-adv-x="1474" arabic-form="medial" d="M-1 158v234q24 0 47.5 9t42 25.5t30 41t11.5 56.5v382h234v-382q0 -31 11 -55.5t29 -41.5t41 -26t47 -9t47.5 9t41.5 26t29 41.5t11 55.5v382h234v-382q0 -31 11 -55.5t29 -41t41 -25.5t47 -10q24 1 47 10t41 25.5t29 41t11 55.5v382h234v-382q0 -32 11 -56.5t29 -41 t41.5 -25.5t48.5 -9v-234q-72 0 -135 25.5t-112 70.5q-49 -45 -110.5 -69.5t-131.5 -26.5q-72 0 -135 25.5t-112 70.5q-54 -48 -114.5 -70t-131.5 -26q-68 0 -132 25t-115 71q-49 -45 -112 -70.5t-135 -25.5zM427 1204l168 167l140 -140l139 140l168 -167l-168 -168 l-139 139l-140 -139zM570 1506l167 168l169 -168l-169 -167z" />
<glyph unicode="&#x635;" horiz-adv-x="2159" arabic-form="isolated" d="M67 224v338h234v-334q0 -50 18.5 -87t49 -61.5t69 -37.5t79.5 -13t80 12t69 37t48.5 62.5t18.5 87.5v334l235 93v-263q55 67 119.5 138t137.5 136t152 118t163 83.5t170.5 33t174.5 -33.5q49 -20 87.5 -57t65 -84t40.5 -100t14 -104q0 -75 -28.5 -141.5t-78 -116 t-115.5 -78t-141 -28.5h-767q-13 -82 -55.5 -148.5t-103.5 -113t-135 -72t-151 -25.5q-84 0 -165 30.5t-144.5 86.5t-102 134t-38.5 174zM1272 392h452q36 0 62 11t43 29.5t24.5 42t6.5 47.5t-10 47t-25.5 41t-41 30t-56.5 15q-42 3 -85 -7t-85 -30t-82.5 -47t-77 -57.5 t-68.5 -62t-57 -59.5z" />
<glyph unicode="&#x635;" horiz-adv-x="2212" arabic-form="final" d="M67 224v338h234v-334q0 -50 18.5 -87t49 -61.5t69 -37.5t79.5 -13q40 0 79 12t69.5 37t49 62.5t18.5 87.5v334l234 93v-263q54 64 118.5 134t136.5 135t151.5 119t163 86.5t171.5 38.5t177 -26q72 -25 124 -81t78 -125.5t22.5 -144t-42.5 -136.5h145v-234h-1250 q-13 -82 -55.5 -148.5t-103.5 -113t-135.5 -72t-150.5 -25.5q-85 0 -166 30.5t-144 86.5t-101.5 134t-38.5 174zM1271 392h453q36 0 62 11t42.5 29.5t24 42t6.5 47.5t-10 47t-25.5 41t-41 30t-55.5 15q-63 5 -127.5 -19.5t-125 -64.5t-113 -88.5t-90.5 -90.5z" />
<glyph unicode="&#x635;" horiz-adv-x="1693" arabic-form="initial" d="M-1 158v234q24 0 47.5 9t42 25.5t30 41t11.5 56.5v47l234 94v-141q0 -31 10.5 -55.5t29.5 -41.5t43.5 -26t53.5 -9q53 67 116.5 137.5t135 133.5t150 114.5t163 81t173 32.5t179.5 -30q50 -18 88.5 -54t65 -82t40.5 -99t14 -104q0 -75 -28.5 -141.5t-78 -116t-115.5 -78 t-141 -28.5h-791q-71 0 -124 25.5t-102 70.5q-49 -45 -112 -70.5t-135 -25.5zM805 392h454q36 0 61.5 11t42 29.5t24.5 42t7 47.5t-10 47t-25.5 41t-41 30t-56.5 15q-63 5 -127.5 -19.5t-125 -64.5t-113 -88.5t-90.5 -90.5z" />
<glyph unicode="&#x635;" horiz-adv-x="1739" arabic-form="medial" d="M-1 158v234q24 0 47.5 9t42 25.5t30 41t11.5 56.5v47l234 94v-141q0 -63 39.5 -97t97.5 -35q54 67 118 137.5t135.5 134.5t150 116t161.5 83t171 35.5t178 -26.5q66 -23 117 -76t79 -120.5t28.5 -142t-35.5 -141.5h136v-234h-1268q-71 0 -124 25.5t-102 70.5 q-49 -45 -112 -70.5t-135 -25.5zM805 392h453q36 0 61.5 11t42 29.5t24.5 42t7 47.5t-10 47t-25.5 41t-40.5 30t-56 15q-63 5 -127.5 -19.5t-125 -64.5t-113 -88.5t-90.5 -90.5z" />
<glyph unicode="&#x636;" horiz-adv-x="2159" arabic-form="isolated" d="M67 224v338h234v-334q0 -50 18.5 -87t49 -61.5t69 -37.5t79.5 -13t80 12t69 37t48.5 62.5t18.5 87.5v334l235 93v-263q55 67 119.5 139t137 137t151.5 118t162.5 83.5t171 32.5t175.5 -35q49 -20 87.5 -57.5t65 -84t40.5 -99.5t14 -104q0 -75 -28.5 -141.5t-78 -116 t-115.5 -78t-141 -28.5h-767q-13 -82 -55.5 -148.5t-103.5 -113t-135 -72t-151 -25.5q-84 0 -165 30.5t-144.5 86.5t-102 134t-38.5 174zM1096 1079l167 168l168 -168l-168 -167zM1272 392h452q36 0 62 11t43 29.5t24.5 42t6.5 47.5t-10 47t-25.5 41t-41 30t-56.5 15 q-42 3 -85 -7t-85 -30t-82.5 -47t-77 -57.5t-68.5 -62t-57 -59.5z" />
<glyph unicode="&#x636;" horiz-adv-x="2212" arabic-form="final" d="M67 224v338h234v-334q0 -50 18.5 -87t49 -61.5t69 -37.5t79.5 -13q40 0 79 12t69.5 37t49 62.5t18.5 87.5v334l234 93v-263q54 64 118.5 134t136.5 135t151.5 119t163 86.5t171.5 38.5t177 -26q72 -25 124 -81t78 -125.5t22.5 -144t-42.5 -136.5h145v-234h-1250 q-13 -82 -55.5 -148.5t-103.5 -113t-135.5 -72t-150.5 -25.5q-85 0 -166 30.5t-144 86.5t-101.5 134t-38.5 174zM1105 1106l167 168l169 -168l-169 -167zM1271 392h453q36 0 62 11t42.5 29.5t24 42t6.5 47.5t-10 47t-25.5 41t-41 30t-55.5 15q-63 5 -127.5 -19.5t-125 -64.5 t-113 -88.5t-90.5 -90.5z" />
<glyph unicode="&#x636;" horiz-adv-x="1693" arabic-form="initial" d="M-1 158v234q24 0 47.5 9t42 25.5t30 41t11.5 56.5v47l234 94v-141q0 -31 10.5 -55.5t29.5 -41.5t43.5 -26t53.5 -9q53 67 116.5 137.5t135 133.5t150 114.5t163 81t173 32.5t179.5 -30q50 -18 88.5 -54t65 -82t40.5 -99t14 -104q0 -75 -28.5 -141.5t-78 -116t-115.5 -78 t-141 -28.5h-791q-71 0 -124 25.5t-102 70.5q-49 -45 -112 -70.5t-135 -25.5zM761 1133l167 168l168 -168l-168 -167zM805 392h454q36 0 61.5 11t42 29.5t24.5 42t7 47.5t-10 47t-25.5 41t-41 30t-56.5 15q-63 5 -127.5 -19.5t-125 -64.5t-113 -88.5t-90.5 -90.5z" />
<glyph unicode="&#x636;" horiz-adv-x="1739" arabic-form="medial" d="M-1 158v234q24 0 47.5 9t42 25.5t30 41t11.5 56.5v47l234 94v-141q0 -63 39.5 -97t97.5 -35q54 67 118 137.5t135.5 134.5t150 116t161.5 83t171 35.5t178 -26.5q66 -23 117 -76t79 -120.5t28.5 -142t-35.5 -141.5h136v-234h-1268q-71 0 -124 25.5t-102 70.5 q-49 -45 -112 -70.5t-135 -25.5zM761 1133l167 168l168 -168l-168 -167zM805 392h453q36 0 61.5 11t42 29.5t24.5 42t7 47.5t-10 47t-25.5 41t-40.5 30t-56 15q-63 5 -127.5 -19.5t-125 -64.5t-113 -88.5t-90.5 -90.5z" />
<glyph unicode="&#x637;" horiz-adv-x="1439" arabic-form="isolated" d="M67 254l70 225q26 -23 57.5 -41t64.5 -31v941h233v-746q40 44 86.5 87t98 80.5t107.5 66.5t116.5 44t124.5 14t131 -24q50 -17 90 -54t68 -85.5t43 -103t15 -105.5q0 -75 -28.5 -141.5t-78 -116t-115.5 -78t-141 -28.5l-648 -3q-64 6 -137.5 29.5t-156.5 69.5zM552 392 h453q36 0 61.5 11t42 29.5t24.5 42t7 47.5t-9.5 47t-25.5 41t-41.5 30t-56.5 15q-42 3 -85 -7t-85 -30t-82.5 -47t-77 -57.5t-68.5 -62t-57 -59.5z" />
<glyph unicode="&#x637;" horiz-adv-x="1480" arabic-form="final" d="M67 254l70 225q56 -46 122 -72v941h234v-750q63 69 138.5 135t160.5 110.5t177 58t187 -23.5q49 -19 88 -52t67 -74t45 -88t22 -95t-2.5 -93.5t-27.5 -83.5h133v-234l-1119 -3q-65 6 -138 29.5t-157 69.5zM552 392h453q36 0 61.5 11t42 29.5t24.5 42t7 47.5t-9.5 47 t-25 41t-41 30t-56.5 15q-63 5 -127.5 -19.5t-125 -64.5t-113 -88.5t-90.5 -90.5z" />
<glyph unicode="&#x637;" horiz-adv-x="1324" arabic-form="initial" d="M-1 158v234h145v956h234v-741q42 42 88 84t96.5 78t105.5 64.5t113.5 44t122 15t130.5 -22.5q50 -16 91 -53t70.5 -85.5t45.5 -103.5t16 -106q0 -75 -29 -141.5t-78.5 -116t-115.5 -78t-141 -28.5h-894zM436 392h453q36 0 62 11t42.5 29.5t24.5 42t7 47.5t-10 47 t-25.5 41t-41 30t-56.5 15q-63 5 -127.5 -19.5t-125 -64.5t-113 -88.5t-90.5 -90.5z" />
<glyph unicode="&#x637;" horiz-adv-x="1361" arabic-form="medial" d="M-1 158v234h140v956h234v-738q58 63 131 125t157.5 105.5t179 60t196.5 -11.5q51 -14 91.5 -44t69 -71t45.5 -89.5t21 -99.5t-5 -100.5t-31 -92.5h134v-234h-221h-184h-157h-143h-139h-149h-169h-201zM432 392h454q35 0 61 11t42.5 29.5t24.5 42t7 47.5t-10 47t-26 41 t-41.5 30t-56.5 15q-42 3 -85 -7t-85 -30t-82.5 -47t-77 -57.5t-68.5 -62t-57 -59.5z" />
<glyph unicode="&#x638;" horiz-adv-x="1439" arabic-form="isolated" d="M67 254l70 225q26 -23 57.5 -41t64.5 -31v941h233v-746q40 44 86.5 87t98 80.5t107.5 66.5t116.5 44t124.5 14t131 -24q50 -17 90 -54t68 -85.5t43 -103t15 -105.5q0 -75 -28.5 -141.5t-78 -116t-115.5 -78t-141 -28.5l-648 -3q-64 6 -137.5 29.5t-156.5 69.5zM552 392 h453q36 0 61.5 11t42 29.5t24.5 42t7 47.5t-9.5 47t-25.5 41t-41.5 30t-56.5 15q-42 3 -85 -7t-85 -30t-82.5 -47t-77 -57.5t-68.5 -62t-57 -59.5zM596 1133l167 168l169 -168l-169 -167z" />
<glyph unicode="&#x638;" horiz-adv-x="1480" arabic-form="final" d="M67 254l70 225q56 -46 122 -72v941h234v-750q63 69 138.5 135t160.5 110.5t177 58t187 -23.5q49 -19 88 -52t67 -74t45 -88t22 -95t-2.5 -93.5t-27.5 -83.5h133v-234l-1119 -3q-65 6 -138 29.5t-157 69.5zM552 392h453q36 0 61.5 11t42 29.5t24.5 42t7 47.5t-9.5 47 t-25 41t-41 30t-56.5 15q-63 5 -127.5 -19.5t-125 -64.5t-113 -88.5t-90.5 -90.5zM604 1133l167 168l169 -168l-169 -167z" />
<glyph unicode="&#x638;" horiz-adv-x="1324" arabic-form="initial" d="M-1 158v234h145v956h234v-741q42 42 88 84t96.5 78t105.5 64.5t113.5 44t122 15t130.5 -22.5q50 -16 91 -53t70.5 -85.5t45.5 -103.5t16 -106q0 -75 -29 -141.5t-78.5 -116t-115.5 -78t-141 -28.5h-894zM436 392h453q36 0 62 11t42.5 29.5t24.5 42t7 47.5t-10 47 t-25.5 41t-41 30t-56.5 15q-63 5 -127.5 -19.5t-125 -64.5t-113 -88.5t-90.5 -90.5zM485 1133l167 168l169 -168l-169 -167z" />
<glyph unicode="&#x638;" horiz-adv-x="1361" arabic-form="medial" d="M-1 158v234h140v956h234v-738q58 63 131 125t157.5 105.5t179 60t196.5 -11.5q51 -14 91.5 -44t69 -71t45.5 -89.5t21 -99.5t-5 -100.5t-31 -92.5h134v-234h-221h-184h-157h-143h-139h-149h-169h-201zM432 392h454q35 0 61 11t42.5 29.5t24.5 42t7 47.5t-10 47t-26 41 t-41.5 30t-56.5 15q-42 3 -85 -7t-85 -30t-82.5 -47t-77 -57.5t-68.5 -62t-57 -59.5zM485 1133l167 168l169 -168l-169 -167z" />
<glyph unicode="&#x639;" horiz-adv-x="925" arabic-form="isolated" d="M70.5 161q9.5 76 51.5 151t122 141q-58 88 -76.5 173.5t-4.5 161t58 137.5t112 104q43 27 91.5 39t97 10.5t95.5 -16t89 -39.5l-27 -225q-25 21 -57.5 31t-67 9.5t-66.5 -11t-55 -30t-34 -48.5t-3 -66q8 -36 27.5 -71t35.5 -67q40 11 84.5 22.5t90.5 22.5t92 20.5 t90 17.5l-43 -255q-35 -9 -83.5 -17.5t-100.5 -20.5t-102.5 -29.5t-91 -44t-65.5 -63t-25 -86.5t15.5 -86t42.5 -60t63 -37.5t77 -17.5q39 -5 79.5 -0.5t81.5 13.5t81 20.5t78 20.5l35 -218q-63 -19 -128 -34t-130 -22t-128.5 -2.5t-122.5 25t-111.5 60t-95.5 102.5 q-43 62 -62 135.5t-9.5 149.5z" />
<glyph unicode="&#x639;" horiz-adv-x="974" arabic-form="final" d="M74.5 186.5q16.5 82.5 71.5 162.5t157 147l-70 79q-25 28 -46 53.5t-35.5 53.5t-21 60.5t-1.5 73.5q6 57 36.5 99.5t74.5 73t96.5 48.5t103.5 26q62 9 135.5 4t141.5 -28t122 -66t78 -111q26 -73 19.5 -143t-37.5 -131t-82 -111.5t-115 -84.5h273v-234h-226 q-45 3 -78.5 8.5t-63.5 20.5t-61 42t-71 72q-36 -15 -67 -33t-54 -41.5t-36 -52t-13 -62.5q0 -50 15.5 -86t42.5 -60t63 -37.5t77 -17.5q39 -5 79.5 -0.5t81.5 13.5t81 20.5t78 20.5l35 -218q-63 -19 -128 -34t-130.5 -22t-128.5 -2.5t-122 25t-111.5 60t-96.5 102.5 q-46 67 -64.5 147.5t-2 163zM360 784l184 -207q27 9 54.5 22.5t49 32t33.5 44t9 58.5q-3 34 -22.5 57.5t-49 37.5t-65.5 18.5t-71.5 -1.5t-68 -21.5t-53.5 -40.5z" />
<glyph unicode="&#x639;" horiz-adv-x="965" arabic-form="initial" d="M-1 158v234h164q-36 64 -49 139t-4.5 149.5t38.5 144t80 123t119 85.5t157 32q75 0 141 -29t115.5 -80.5t78 -121.5t28.5 -152h-233q0 42 -15 70t-37.5 44t-49 21t-50.5 -1q-55 -13 -84.5 -50t-37 -84.5t4.5 -99.5t39 -95t67 -70.5t88 -27.5l339 3v-234h-899z" />
<glyph unicode="&#x639;" horiz-adv-x="1005" arabic-form="medial" d="M-1 158v234h267l-122 267q-40 87 -27.5 156.5t59 120.5t118.5 83t150 44q39 5 81 4.5t83 -5.5t80 -15t74 -24q99 -39 145 -107.5t49.5 -154t-30 -181t-93.5 -188.5h173v-234h-1007zM364 788l181 -396q28 34 63 81.5t61.5 99t35.5 103t-16 93.5q-13 22 -41 34.5t-63 17.5 t-72 3.5t-69 -7t-54 -13.5t-26 -16z" />
<glyph unicode="&#x63a;" horiz-adv-x="925" arabic-form="isolated" d="M70.5 161q9.5 76 51.5 151t122 141q-58 88 -76.5 173.5t-4.5 161t58 137.5t112 104q43 27 91.5 39t97 10.5t95.5 -16t89 -39.5l-27 -225q-25 21 -57.5 31t-67 9.5t-66.5 -11t-55 -30t-34 -48.5t-3 -66q8 -36 27.5 -71t35.5 -67q40 11 84.5 22.5t90.5 22.5t92 20.5 t90 17.5l-43 -255q-35 -9 -83.5 -17.5t-100.5 -20.5t-102.5 -29.5t-91 -44t-65.5 -63t-25 -86.5t15.5 -86t42.5 -60t63 -37.5t77 -17.5q39 -5 79.5 -0.5t81.5 13.5t81 20.5t78 20.5l35 -218q-63 -19 -128 -34t-130 -22t-128.5 -2.5t-122.5 25t-111.5 60t-95.5 102.5 q-43 62 -62 135.5t-9.5 149.5zM197 1356l167 168l168 -168l-168 -167z" />
<glyph unicode="&#x63a;" horiz-adv-x="974" arabic-form="final" d="M74.5 186.5q16.5 82.5 71.5 162.5t157 147l-70 79q-25 28 -46 53.5t-35.5 53.5t-21 60.5t-1.5 73.5q6 57 36.5 99.5t74.5 73t96.5 48.5t103.5 26q62 9 135.5 4t141.5 -28t122 -66t78 -111q26 -73 19.5 -143t-37.5 -131t-82 -111.5t-115 -84.5h273v-234h-226 q-45 3 -78.5 8.5t-63.5 20.5t-61 42t-71 72q-36 -15 -67 -33t-54 -41.5t-36 -52t-13 -62.5q0 -50 15.5 -86t42.5 -60t63 -37.5t77 -17.5q39 -5 79.5 -0.5t81.5 13.5t81 20.5t78 20.5l35 -218q-63 -19 -128 -34t-130.5 -22t-128.5 -2.5t-122 25t-111.5 60t-96.5 102.5 q-46 67 -64.5 147.5t-2 163zM338 1356l167 168l169 -168l-169 -167zM360 784l184 -207q27 9 54.5 22.5t49 32t33.5 44t9 58.5q-3 34 -22.5 57.5t-49 37.5t-65.5 18.5t-71.5 -1.5t-68 -21.5t-53.5 -40.5z" />
<glyph unicode="&#x63a;" horiz-adv-x="965" arabic-form="initial" d="M-1 158v234h164q-36 64 -49 139t-4.5 149.5t38.5 144t80 123t119 85.5t157 32q75 0 141 -29t115.5 -80.5t78 -121.5t28.5 -152h-233q0 42 -15 70t-37.5 44t-49 21t-50.5 -1q-55 -13 -84.5 -50t-37 -84.5t4.5 -99.5t39 -95t67 -70.5t88 -27.5l339 3v-234h-899zM338 1356 l167 168l169 -168l-169 -167z" />
<glyph unicode="&#x63a;" horiz-adv-x="1005" arabic-form="medial" d="M-1 158v234h267l-122 267q-40 87 -27.5 156.5t59 120.5t118.5 83t150 44q39 5 81 4.5t83 -5.5t80 -15t74 -24q99 -39 145 -107.5t49.5 -154t-30 -181t-93.5 -188.5h173v-234h-1007zM358 1356l167 168l168 -168l-168 -167zM364 788l181 -396q28 34 63 81.5t61.5 99 t35.5 103t-16 93.5q-13 22 -41 34.5t-63 17.5t-72 3.5t-69 -7t-54 -13.5t-26 -16z" />
<glyph unicode="&#x641;" horiz-adv-x="1437" arabic-form="isolated" d="M67 521v73h234v-70q0 -32 11 -56.5t29 -41t41.5 -25.5t48.5 -9h235q-24 60 -24 129v181q0 75 29 141t78.5 115.5t116 78t141.5 28.5q74 0 140 -28.5t115.5 -78t78.5 -115.5t29 -141v-181q0 -75 -29 -141.5t-78.5 -116.5t-115.5 -78.5t-140 -28.5l-576 2 q-75 0 -141.5 28.5t-116 78t-78 115.5t-28.5 141zM837 1356l167 168l169 -168l-169 -167zM876 524q0 -32 11 -56.5t29.5 -41.5t42 -26.5t48.5 -10.5q24 -1 47.5 6.5t41.5 24t29 42.5t11 62v173q0 36 -11 62t-29 43t-41.5 24.5t-47.5 6.5q-25 -1 -48.5 -10.5t-42 -27 t-29.5 -42t-11 -56.5v-173z" />
<glyph unicode="&#x641;" horiz-adv-x="1513" arabic-form="final" d="M67 521v73h235v-70q0 -32 11 -56.5t29 -41t41.5 -25.5t48.5 -9h234q-11 30 -17.5 62t-6.5 67v181q0 75 29 141t78.5 115.5t116 78t141.5 28.5t141 -28.5t115.5 -78t78 -115.5t28.5 -141v-181q0 -68 -23 -129h167v-234h-1082q-75 0 -141.5 28.5t-116 77.5t-78.5 115.5 t-29 141.5zM837 1356l167 168l169 -168l-169 -167zM877 524q0 -32 11 -56.5t29 -41.5t41.5 -26.5t48.5 -10.5q24 -1 47.5 6.5t42 24t29.5 42.5t11 62v173q0 36 -11 62t-29.5 43t-42 24.5t-47.5 6.5q-25 -1 -48.5 -10.5t-41.5 -27t-29 -42t-11 -56.5v-173z" />
<glyph unicode="&#x641;" horiz-adv-x="934" arabic-form="initial" d="M-1 158v234h163q-11 30 -17.5 62t-6.5 67v181q0 75 29 141t78.5 115.5t116 78t141.5 28.5t141 -28.5t115.5 -78t78.5 -115.5t29 -141v-181q0 -75 -29 -141.5t-78.5 -116.5t-115.5 -78.5t-141 -28.5zM338 1356l167 168l169 -168l-169 -167zM373 524q0 -32 11 -56.5 t29.5 -41.5t42 -26.5t47.5 -10.5t47.5 6.5t42 24t29.5 42.5t11 62v173q0 36 -11 62t-29.5 43t-42 24.5t-47.5 6.5t-47.5 -10.5t-42 -27t-29.5 -42t-11 -56.5v-173z" />
<glyph unicode="&#x641;" horiz-adv-x="1005" arabic-form="medial" d="M-1 158v234h164q-11 30 -17.5 62t-6.5 67v181q0 75 29 141t78.5 115.5t116 78t141.5 28.5t141 -28.5t115.5 -78t78 -115.5t28.5 -141v-181q0 -70 -22 -129h161v-234h-1007zM338 1356l167 168l169 -168l-169 -167zM374 524q0 -32 11 -56.5t29 -41.5t41.5 -26.5t48.5 -10.5 q24 -1 47.5 6.5t42 24t29.5 42.5t11 62v173q0 36 -11 62t-29.5 43t-42 24.5t-47.5 6.5q-25 -1 -48.5 -10.5t-41.5 -27t-29 -42t-11 -56.5v-173z" />
<glyph unicode="&#x642;" horiz-adv-x="1197" arabic-form="isolated" d="M67 224v90h234v-86q0 -80 38 -135t96 -84.5t127 -33.5t131.5 17t109 68t60.5 119q-56 -21 -112 -20.5t-107 18.5t-95.5 51.5t-77.5 78.5t-51.5 99.5t-18.5 114.5v181q0 75 28.5 141t78 115.5t116 78t141.5 28.5t141 -28.5t115.5 -78t78.5 -115.5t29 -141v-184v-62 t-5 -98.5t-17 -122t-35.5 -131.5t-61.5 -127.5t-95 -110t-135 -79.5t-182 -35q-101 -3 -197 26t-170 89t-119 149.5t-45 207.5zM451 1358l168 167l141 -140l139 140l168 -167l-168 -168l-139 139l-141 -139zM635 524q0 -32 11 -56.5t29 -41.5t41.5 -26.5t48.5 -10.5 q24 -1 47.5 6.5t42 24t29.5 42.5t11 62v173q0 36 -11 62t-29.5 43t-42 24.5t-47.5 6.5q-25 -1 -48.5 -10.5t-41.5 -27t-29 -42t-11 -56.5v-173z" />
<glyph unicode="&#x642;" horiz-adv-x="1272" arabic-form="final" d="M67 224v90h234v-86q0 -59 22 -104t58.5 -76.5t84.5 -49.5t99 -22.5t102.5 4.5t95.5 32t77 59.5t47 86.5h-122q-75 0 -141.5 28.5t-116 78t-78 115.5t-28.5 141v181q0 75 28.5 141t78 115.5t116 78t141.5 28.5t141.5 -28.5t116 -78t78.5 -115.5t29 -141v-310h143v-234 h-148q-19 -106 -74.5 -184t-133.5 -128.5t-171.5 -74t-188 -19.5t-183 35.5t-156.5 90.5t-109.5 145.5t-41.5 200.5zM451 1358l168 167l141 -140l139 140l168 -167l-168 -168l-139 139l-141 -139zM635 524q0 -32 11 -56t29.5 -40.5t42 -25.5t47.5 -10q32 -2 65 -1t65 1v305 q0 36 -11 62t-29.5 43t-42 24.5t-47.5 6.5t-47.5 -10.5t-42 -27t-29.5 -42t-11 -56.5v-173z" />
<glyph unicode="&#x642;" horiz-adv-x="934" arabic-form="initial" d="M-1 158v234h163q-11 30 -17.5 62t-6.5 67v181q0 75 29 141t78.5 115.5t116 78t141.5 28.5t141 -28.5t115.5 -78t78.5 -115.5t29 -141v-181q0 -75 -29 -141.5t-78.5 -116.5t-115.5 -78.5t-141 -28.5zM195 1358l168 167l140 -140l139 140l168 -167l-168 -168l-139 139 l-140 -139zM373 524q0 -32 11 -56.5t29.5 -41.5t42 -26.5t47.5 -10.5t47.5 6.5t42 24t29.5 42.5t11 62v173q0 36 -11 62t-29.5 43t-42 24.5t-47.5 6.5t-47.5 -10.5t-42 -27t-29.5 -42t-11 -56.5v-173z" />
<glyph unicode="&#x642;" horiz-adv-x="1005" arabic-form="medial" d="M-1 158v234h164q-11 30 -17.5 62t-6.5 67v181q0 75 29 141t78.5 115.5t116 78t141.5 28.5t141 -28.5t115.5 -78t78 -115.5t28.5 -141v-181q0 -70 -22 -129h161v-234h-1007zM195 1358l168 167l140 -140l139 140l168 -167l-168 -168l-139 139l-140 -139zM374 524 q0 -32 11 -56.5t29 -41.5t41.5 -26.5t48.5 -10.5q24 -1 47.5 6.5t42 24t29.5 42.5t11 62v173q0 36 -11 62t-29.5 43t-42 24.5t-47.5 6.5q-25 -1 -48.5 -10.5t-41.5 -27t-29 -42t-11 -56.5v-173z" />
<glyph unicode="&#x643;" horiz-adv-x="1336" arabic-form="isolated" d="M67 558v36h234v-32q0 -71 31.5 -124.5t83 -89.5t117.5 -54.5t135 -19t135 17.5t117.5 53.5t83 89.5t31.5 127v786h234v-790q0 -101 -33.5 -182.5t-91.5 -142t-135 -101.5t-163.5 -61t-177.5 -20t-177.5 20t-163.5 60.5t-135 101.5t-91.5 142t-33.5 183zM299 751l107 118 q5 -14 20.5 -23.5t43.5 -9.5h232q34 0 50 15t15.5 32.5t-17.5 32.5t-48 15h-171q-27 -1 -51 8t-41.5 26t-26 41t-4.5 52q5 38 25 64t44 54l161 187l124 -86l-176 -202h118q71 0 118 -29t70.5 -73t23.5 -95q0 -50 -23.5 -94t-70.5 -73t-118 -29h-237q-58 0 -100 19t-68 50z " />
<glyph unicode="&#x643;" horiz-adv-x="1398" arabic-form="final" d="M67 558v36h234v-32q0 -71 31.5 -124.5t83 -89.5t117.5 -54.5t134.5 -19t134.5 17.5t117.5 53.5t83 89.5t31.5 127v786h235v-790q0 -31 6 -61t21 -53t40 -37.5t63 -14.5v-234q-69 0 -130.5 24t-109.5 67q-56 -64 -132.5 -107.5t-164 -66t-180.5 -24.5t-181 17.5t-167 59.5 t-138.5 101.5t-94 143.5t-34.5 185zM299 751l107 118q5 -14 20 -23.5t43 -9.5h232q34 0 50 15t15.5 32.5t-17.5 32.5t-48 15h-171q-27 -1 -51 8t-41 26t-25.5 41t-4.5 52q5 38 25 64t43 54l162 187l124 -86l-176 -202h118q71 0 118 -29t70.5 -73t23.5 -95q0 -50 -23.5 -94 t-71 -73t-117.5 -29h-237q-58 0 -100 19t-68 50z" />
<glyph unicode="&#x643;" horiz-adv-x="1313" arabic-form="initial" d="M-1 158v234h888q46 0 75.5 17.5t44 44t13.5 57.5t-16.5 57.5t-44.5 44t-72 17.5h-529q-48 -2 -90.5 10.5t-72.5 39t-45 65.5t-9 90q5 34 16.5 62t28 52.5t36.5 48t41 48.5l290 334l176 -153l-313 -363h474q89 0 156 -30.5t111.5 -80t66.5 -113t22 -129.5t-22.5 -129.5 t-67 -113t-111 -80t-155.5 -30.5h-891z" />
<glyph unicode="&#x643;" horiz-adv-x="1387" arabic-form="medial" d="M-1 158v234h887q46 0 76 17.5t44 44t13 57.5t-16 57.5t-44.5 44t-72.5 17.5h-528q-48 -2 -90.5 10.5t-73 39t-45.5 65.5t-8 90q5 34 16.5 62t27.5 52.5t36 48t41 48.5l290 334l177 -153l-314 -363h474q64 0 120.5 -19t101.5 -52.5t77.5 -78.5t48.5 -97.5t14.5 -109.5 t-23.5 -115h160v-234h-1389z" />
<glyph unicode="&#x644;" horiz-adv-x="1034" arabic-form="isolated" d="M67 224v369h234v-365q0 -50 18.5 -87t49 -61.5t69 -37.5t79.5 -13t80 12t69 37t48.5 62.5t18.5 87.5v1120h234l-4 -1041q0 -63 -5.5 -120t-22 -108t-48 -96.5t-83.5 -85.5q-62 -48 -136 -73t-151 -25q-85 0 -166 30.5t-144 86.5t-101.5 134t-38.5 174z" />
<glyph unicode="&#x644;" horiz-adv-x="1104" arabic-form="final" d="M67 224v369h234v-365q0 -50 18.5 -87t49 -61.5t69 -37.5t79.5 -13t80 12t69 37t48.5 62.5t18.5 87.5v1120h234v-956h138v-234h-143q-13 -82 -55.5 -148.5t-103.5 -113t-135 -72t-151 -25.5q-84 0 -165 30.5t-144.5 86.5t-102 134t-38.5 174z" />
<glyph unicode="&#x644;" horiz-adv-x="473" arabic-form="initial" d="M-1 158v234q25 0 48.5 9t42 25.5t29.5 41t11 56.5v824h235v-827q0 -75 -29 -141.5t-79 -115.5t-116.5 -77.5t-141.5 -28.5z" />
<glyph unicode="&#x644;" horiz-adv-x="492" arabic-form="medial" d="M-1 158v234q24 0 47.5 9t42 25.5t30 41t11.5 56.5v824h234v-824q0 -32 11 -56.5t29 -41t41.5 -25.5t47.5 -9v-234q-72 0 -135 25.5t-112 70.5q-49 -45 -112 -70.5t-135 -25.5z" />
<glyph unicode="&#x645;" horiz-adv-x="1126" arabic-form="isolated" d="M71.5 70.5q-7.5 66.5 0 129.5t37 116.5t84 95.5t139.5 67l-1 223q0 75 28.5 141t78 115.5t116 78t141.5 28.5t141 -28.5t115.5 -78t78.5 -115.5t29 -141v-193q0 -75 -28.5 -141t-78.5 -115q-52 -51 -103 -73.5t-104 -25t-108.5 11t-115.5 34.5q-37 13 -72.5 16 t-64.5 -7.5t-48 -36.5t-23 -72q-4 -49 15 -121.5t69 -173.5h-255q-25 63 -44 131t-26.5 134.5zM565 450q4 -4 25.5 -14t50 -18.5t61 -12.5t60 5t45.5 34.5t18 74.5v178q0 36 -11 62t-29.5 43t-42 24.5t-47.5 6.5t-47.5 -10.5t-41.5 -27t-29.5 -42t-11.5 -56.5v-247z" />
<glyph unicode="&#x645;" horiz-adv-x="1184" arabic-form="final" d="M71.5 70.5q-7.5 66.5 0 129.5t37 116.5t84 95.5t139.5 67l-1 223q0 75 28.5 141t78 115.5t116 78t141.5 28.5t141 -28.5t116 -78t79 -115.5t29 -141v-193q0 -62 -20 -117h145v-234h-397q-59 0 -100.5 4t-72 10.5t-52.5 14t-42 13.5q-38 11 -73.5 14.5t-64 -6.5 t-47.5 -35.5t-23 -72.5q-4 -49 15 -121.5t68 -173.5h-254q-25 63 -44 131t-26.5 134.5zM565 450q4 -4 25.5 -14t50 -18.5t61 -12.5t60 5t45.5 34.5t18 74.5v178q0 36 -11 62t-29 43t-41.5 24.5t-48.5 6.5q-24 -1 -47.5 -10.5t-41.5 -27t-29.5 -42t-11.5 -56.5v-247z" />
<glyph unicode="&#x645;" horiz-adv-x="947" arabic-form="initial" d="M-1 158v234q33 -1 61 5.5t48.5 22.5t32 41.5t11.5 62.5v178q0 75 28.5 141t78 115.5t116 78t141.5 28.5t141 -28.5t115.5 -78t78.5 -115.5t29 -141v-181q0 -75 -29 -141.5t-78.5 -116t-115.5 -78.5t-141 -29q-72 0 -135.5 26t-112.5 72q-59 -56 -124.5 -75.5 t-144.5 -20.5zM386 524q0 -32 11 -56.5t29.5 -41.5t42 -26.5t47.5 -10.5t47.5 6.5t42 24t29.5 42.5t11 62v173q0 36 -11 62t-29.5 43t-42 24.5t-47.5 6.5t-47.5 -10.5t-42 -27t-29.5 -42t-11 -56.5v-173z" />
<glyph unicode="&#x645;" horiz-adv-x="1021" arabic-form="medial" d="M-1 158v234q33 -1 61 5.5t48 22.5t31.5 41.5t11.5 62.5v178q0 75 28.5 141t78 115.5t116 78t141.5 28.5t141.5 -28.5t116 -78t78.5 -115.5t29 -141v-310h141v-234l-506 -2q-72 0 -135 26t-112 72q-59 -56 -124.5 -75.5t-144.5 -20.5zM386 524q0 -32 11 -56.5t29 -41.5 t41.5 -26.5t47.5 -10.5h131v308q0 36 -11.5 62t-30 43t-42 24.5t-47.5 6.5t-47.5 -10.5t-41.5 -27t-29 -42t-11 -56.5v-173z" />
<glyph unicode="&#x646;" horiz-adv-x="1034" arabic-form="isolated" d="M67 224v369h235v-365q0 -50 18.5 -87t48.5 -61.5t69 -37.5t80 -13q40 0 79 12t69.5 37t49 62.5t18.5 87.5v678h234v-682q0 -96 -39 -174t-102 -134t-144 -86.5t-165 -30.5q-85 0 -166 30.5t-144.5 86.5t-102 134t-38.5 174zM267 974l167 168l169 -168l-169 -167z" />
<glyph unicode="&#x646;" horiz-adv-x="1104" arabic-form="final" d="M67 224v369h234v-365q0 -50 18.5 -87t49 -61.5t69 -37.5t79.5 -13q40 0 79 12t69.5 37t49 62.5t18.5 87.5v678h234v-514h138v-234h-143q-13 -82 -55.5 -148.5t-103.5 -113t-135.5 -72t-150.5 -25.5q-85 0 -166 30.5t-144 86.5t-101.5 134t-38.5 174zM267 974l167 168 l169 -168l-169 -167z" />
<glyph unicode="&#x646;" horiz-adv-x="430" arabic-form="initial" d="M-1 158v234q24 0 47.5 9t42 25.5t30 41t11.5 56.5v382h234v-385q0 -75 -29 -141.5t-78.5 -115.5t-116 -77.5t-141.5 -28.5zM83 1197l167 168l168 -168l-168 -167z" />
<glyph unicode="&#x646;" horiz-adv-x="492" arabic-form="medial" d="M-1 158v234q24 0 47.5 9t42 25.5t30 41t11.5 56.5v382h234v-382q0 -32 11 -56.5t29 -41t41.5 -25.5t47.5 -9v-234q-72 0 -135 25.5t-112 70.5q-49 -45 -112 -70.5t-135 -25.5zM83 1197l167 168l168 -168l-168 -167z" />
<glyph unicode="&#x647;" horiz-adv-x="862" arabic-form="isolated" d="M67 521v181q0 75 28.5 141t78 115.5t116 78t141.5 28.5t141 -28.5t115.5 -78t78.5 -115.5t29 -141v-181q0 -75 -29 -141.5t-78.5 -116t-115.5 -78.5t-141 -29t-141.5 29t-116 78.5t-78 116t-28.5 141.5zM302 524q0 -32 11 -56.5t29 -41.5t41.5 -26.5t47.5 -10.5t47.5 6.5 t42 24t29.5 42.5t11 62v173q0 36 -11 62t-29.5 43t-42 24.5t-47.5 6.5t-47.5 -10.5t-41.5 -27t-29 -42t-11 -56.5v-173z" />
<glyph unicode="&#x647;" horiz-adv-x="925" arabic-form="final" d="M67 521v181q0 75 29 141t78.5 115.5t116 78t141.5 28.5t141 -28.5t115.5 -78t78 -115.5t28.5 -141v-178q0 -32 11 -56.5t29.5 -41t42 -25.5t48.5 -9v-234q-75 0 -141.5 28.5t-116 77.5t-78.5 115.5t-29 141.5v176q0 36 -11 62t-29.5 43t-41.5 24.5t-47 6.5 q-25 -1 -48.5 -10.5t-41.5 -27t-29 -42t-11 -56.5v-173q0 -32 11 -56t29 -40.5t41.5 -25.5t48.5 -10h28l-76 -231q-67 9 -125 40.5t-100.5 79.5t-67 109.5t-24.5 130.5z" />
<glyph unicode="&#x647;" horiz-adv-x="1396" arabic-form="initial" d="M-1 158v234h142l-2 310q0 75 29 141t78.5 115.5t116.5 78t142 28.5q49 0 95 -13t86.5 -36.5t73.5 -56.5t57 -73h149q75 0 141 -29t115.5 -78.5t78 -115.5t28.5 -141t-28.5 -141.5t-78 -116t-115.5 -78t-141 -28.5h-967zM373 389h132q24 0 47 7.5t41.5 24t29.5 42t11 61.5 v173q0 36 -11 62t-29.5 43t-41.5 24.5t-47 6.5q-25 -1 -48.5 -10.5t-42 -27t-29.5 -42t-11 -56.5zM845 392h116q36 0 62 11t42.5 29.5t24 42t6.5 47.5t-10 47.5t-26 42t-42 29.5t-57 11h-94v-131q0 -70 -22 -129z" />
<glyph unicode="&#x647;" horiz-adv-x="1473" arabic-form="medial" d="M-1 158v234h142l-2 310q0 75 29 141t78.5 115.5t116 78t141.5 28.5q49 0 95.5 -13t86.5 -36.5t73.5 -56.5t57.5 -73h149q75 0 140.5 -29t115 -78.5t78 -115.5t28.5 -141l1 -130h145v-234h-1475zM373 389h131q24 0 47.5 7.5t42 24t29.5 42t11 61.5v173q0 36 -11 62 t-29.5 43t-42 24.5t-47.5 6.5q-25 -1 -48.5 -10.5t-42 -27t-29.5 -42t-11 -56.5v-308zM845 392h251v130q0 24 -9 47.5t-26.5 42t-42.5 29.5t-57 11h-94v-131q0 -70 -22 -129z" />
<glyph unicode="&#x648;" horiz-adv-x="862" arabic-form="isolated" d="M67 498v204q0 75 28.5 141t78 115.5t116 78t141.5 28.5t141 -28.5t115.5 -78t78.5 -115.5t29 -141v-184q0 -108 -10.5 -210.5t-37.5 -191t-74.5 -159t-122 -113.5t-179.5 -54.5t-247 17.5v234q58 -23 123.5 -30.5t124 7t102 53.5t56.5 108q-56 -21 -112 -22t-107.5 15 t-96 46.5t-77.5 72.5t-51.5 95t-18.5 112zM302 524q0 -32 11 -56.5t29 -41.5t41 -26.5t48 -10.5q24 -1 47.5 6.5t42 24t29.5 42.5t11 62v173q0 36 -11 62t-29.5 43t-42 24.5t-47.5 6.5q-25 -1 -48 -10.5t-41 -27t-29 -42t-11 -56.5v-173z" />
<glyph unicode="&#x648;" horiz-adv-x="933" arabic-form="final" d="M67 498v204q0 75 28.5 141t78 115.5t116 78t141.5 28.5t141 -28.5t115.5 -78t78.5 -115.5t29 -141v-138t-0.5 -86t-1 -51.5t-1.5 -34.5h142v-234h-174q-28 -119 -91.5 -198t-149.5 -121.5t-188 -50t-207 18.5v234q55 -23 118 -31t120 4t101 46.5t62 97.5q-39 -7 -87.5 -6 t-99.5 12.5t-99.5 35t-87 63.5t-61.5 98t-23 137zM302 524q0 -32 11 -56.5t29 -41.5t41 -26.5t48 -10.5h130v308q0 36 -11 62t-29.5 43t-42 24.5t-47.5 6.5q-25 -1 -48 -10.5t-41 -27t-29 -42t-11 -56.5v-173z" />
<glyph unicode="&#x649;" horiz-adv-x="1282" arabic-form="isolated" d="M67 571l206 82q0 -41 9 -87t32.5 -84t63 -63.5t99.5 -26.5h374q46 0 74.5 16.5t40.5 40.5t9.5 52.5t-19.5 52.5t-47 40t-72 15l-126 -1q-58 -3 -102 7.5t-75 31t-49 48.5t-24 61q-11 59 2 112t42 99.5t70.5 87.5t88 77.5t93.5 67.5t87 58l143 -186q-86 -39 -161.5 -94 t-135.5 -136q39 0 77.5 0.5t77 -1t76 -7.5t74.5 -18q68 -23 114 -64t72 -91.5t32 -107.5t-6.5 -113t-41.5 -107t-74 -90t-104.5 -62t-132.5 -23h-445q-95 2 -160 35t-105.5 89t-58.5 130t-18 159z" />
<glyph unicode="&#x649;" horiz-adv-x="1307" arabic-form="final" d="M67 55.5q-3 59.5 6 117.5l212 83q-18 -112 0.5 -184.5t61 -113t102.5 -54t124.5 -7.5t126.5 27t109.5 48.5t73.5 58.5t17 56t-58.5 41t-152.5 14l-70 -1l85 252l604 -1v-234h-130q3 -76 -29.5 -145t-90 -128t-134.5 -105.5t-162.5 -77t-174.5 -43t-170 -3.5 q-69 6 -123.5 30.5t-96 62.5t-69 87t-43 104.5t-18.5 115z" />
<glyph unicode="&#x64a;" horiz-adv-x="1282" arabic-form="isolated" d="M67 571l206 82q0 -41 9 -87t32.5 -84t63 -63.5t99.5 -26.5h374q46 0 74.5 16.5t40.5 40.5t9.5 52.5t-19.5 52.5t-47 40t-72 15l-126 -1q-58 -3 -102 7.5t-75 31t-49 48.5t-24 61q-11 59 2 112t42 99.5t70.5 87.5t88 77.5t93.5 67.5t87 58l143 -186q-86 -39 -161.5 -94 t-135.5 -136q39 0 77.5 0.5t77 -1t76 -7.5t74.5 -18q68 -23 114 -64t72 -91.5t32 -107.5t-6.5 -113t-41.5 -107t-74 -90t-104.5 -62t-132.5 -23h-445q-95 2 -160 35t-105.5 89t-58.5 130t-18 159zM298 -134l168 167l140 -140l140 140l167 -167l-167 -168l-140 139l-140 -139 z" />
<glyph unicode="&#x64a;" horiz-adv-x="1307" arabic-form="final" d="M67 55.5q-3 59.5 6 117.5l212 83q-18 -112 0.5 -184.5t61 -113t102.5 -54t124.5 -7.5t126.5 27t109.5 48.5t73.5 58.5t17 56t-58.5 41t-152.5 14l-70 -1l85 252l604 -1v-234h-130q3 -76 -29.5 -145t-90 -128t-134.5 -105.5t-162.5 -77t-174.5 -43t-170 -3.5 q-69 6 -123.5 30.5t-96 62.5t-69 87t-43 104.5t-18.5 115zM333 -590l168 167l140 -140l140 140l168 -167l-168 -168l-140 139l-140 -139z" />
<glyph unicode="&#x64a;" horiz-adv-x="587" arabic-form="initial" d="M-65 -134l168 167l140 -140l140 140l168 -167l-168 -168l-140 139l-140 -139zM-1 158v234h158q24 0 47 9t41.5 25.5t29.5 41t11 56.5v382h234v-385q0 -75 -28.5 -141t-77.5 -115.5t-115.5 -78t-141.5 -28.5h-158z" />
<glyph unicode="&#x64a;" horiz-adv-x="492" arabic-form="medial" d="M-65 -134l168 167l140 -140l140 140l168 -167l-168 -168l-140 139l-140 -139zM-1 158v234q24 0 47.5 9t42 25.5t30 41t11.5 56.5v382h234v-382q0 -32 11 -56.5t29 -41t41.5 -25.5t47.5 -9v-234q-72 0 -135 25.5t-112 70.5q-49 -45 -112 -70.5t-135 -25.5z" />
<glyph unicode=" "  horiz-adv-x="435" />
<glyph unicode="&#x09;" horiz-adv-x="435" />
<glyph unicode="&#xa0;" horiz-adv-x="435" />
<glyph unicode="!" horiz-adv-x="560" d="M108 274l176 174l175 -174l-175 -177zM154 1348l233 106v-573q0 -50 -2.5 -102.5t-12.5 -103t-28.5 -95.5t-49.5 -79l-90 87q9 38 12.5 87.5t1.5 115.5z" />
<glyph unicode="&#x22;" horiz-adv-x="620" d="M70 1443l171 95l63 -485l-119 -113zM314 1443l171 95l63 -485l-118 -113z" />
<glyph unicode="#" d="M32 501l23 163h168l31 218h-169l23 163h170l49 348h170l-50 -348h173l50 348h170l-50 -348h168l-23 -163h-169l-31 -218h170l-23 -163h-169l-51 -353h-170l51 353h-173l-51 -353h-169l50 353h-168zM392 664h174l31 218h-173z" />
<glyph unicode="$" d="M53 499l1 31h242q-5 -114 43 -169q39 -41 108 -52v373q-189 60 -275 137q-92 84 -92 224q0 170 111 270q98 87 256 97v125h81v-123q173 -8 271 -94q108 -96 108 -272h-228q0 98 -43 141q-34 34 -108 40v-337l22 -7q209 -60 296 -147t87 -238q0 -176 -120 -279 q-108 -95 -285 -103v-173h-81v172q-189 12 -291.5 107.5t-102.5 276.5zM306 1070q0 -62 57 -106q31 -24 84 -46v307q-56 -8 -91 -38q-50 -42 -50 -117zM528 308q69 7 112 46q53 46 53 127q0 69 -47 114q-37 35 -118 61v-348z" />
<glyph unicode="%" horiz-adv-x="829" d="M-68 1126l167 168l169 -168l-169 -167zM62 -72l418 1391l239 127l-419 -1391zM489 301l167 168l169 -168l-169 -167z" />
<glyph unicode="&#x26;" horiz-adv-x="1287" d="M97 481q0 141 84 239q59 70 187 147l-7 8q-48 57 -75.5 123t-27.5 121q0 142 90 225.5t245 83.5q143 0 227 -81.5t84 -219.5q0 -103 -71 -185q-49 -59 -142 -116l189 -230l17 34q43 92 52 183h220q-12 -128 -75 -261q-33 -69 -73 -127l228 -275h-295l-87 104 q-73 -63 -134 -92q-89 -41 -231 -41q-186 0 -295.5 97t-109.5 263zM347 495q0 -80 51 -125q50 -44 139 -44q60 0 117 33q36 21 79 58l-78 94l-160 198q-48 -34 -81 -67q-67 -68 -67 -147zM485 1138q0 -27 10.5 -56t30.5 -52l51 -63q35 25 62 51q55 56 55 110 q0 52 -27.5 81.5t-76.5 29.5q-50 0 -78 -27q-27 -26 -27 -74z" />
<glyph unicode="'" horiz-adv-x="380" d="M70 1443l171 95l63 -485l-119 -113z" />
<glyph unicode="(" horiz-adv-x="612" d="M64 577q0 216 79.5 420t256.5 449h178q-132 -212 -189.5 -416t-57.5 -453q1 -249 58.5 -453t188.5 -415h-178q-177 244 -256 449q-80 203 -80 419z" />
<glyph unicode=")" horiz-adv-x="612" d="M35 -291q131 212 189 416t57 452q-1 249 -58.5 453.5t-187.5 415.5h176q179 -245 257 -449q80 -204 80 -420t-79 -420t-258 -448h-176z" />
<glyph unicode="*" horiz-adv-x="693" d="M48 1144l45 145l190 -70l-5 207h147l-5 -208l188 70l45 -144l-192 -59l122 -163l-119 -90l-114 171l-113 -170l-120 89l123 165z" />
<glyph unicode="+" horiz-adv-x="1041" d="M71 499v205h347v346h205v-346h346v-205h-346v-346h-205v346h-347z" />
<glyph unicode="," horiz-adv-x="495" d="M114 -54q90 30 121 88q23 40 27 116h-68h-80v130v129h134h133v-223q0 -139 -65 -221t-202 -115v96z" />
<glyph unicode="-" horiz-adv-x="593" d="M48 532v235h497v-235h-497z" />
<glyph unicode="." horiz-adv-x="497" d="M92 268l167 168l169 -168l-169 -167z" />
<glyph unicode="/" horiz-adv-x="658" d="M0 -72l419 1391l239 127l-420 -1391z" />
<glyph unicode="0" d="M57 761q1 336 108 496.5t330 160.5q224 0 331.5 -160.5t107.5 -490.5v-6q0 -328 -107.5 -486t-331.5 -158q-223 0 -330 158t-108 486zM314 762q0 -243 41 -343t140 -100q100 0 141 100t41 343q1 250 -40.5 352.5t-141.5 102.5q-99 0 -139.5 -102.5t-41.5 -352.5z" />
<glyph unicode="1" d="M123 1024v179q116 -6 208 51q94 57 141 164h205v-1268h-125h-125v874h-304z" />
<glyph unicode="2" d="M46 150q0 174 88 298.5t331 294.5q108 76 152.5 139t44.5 141q0 84 -48.5 135.5t-128.5 51.5q-86 0 -133.5 -64.5t-44.5 -175.5h-244q-6 207 108 327.5t315 120.5q187 0 307 -111q118 -111 118 -287q0 -144 -67.5 -239t-252.5 -213q-172 -109 -234 -197l-1 -2h555v-219 h-865z" />
<glyph unicode="3" d="M48 534h243q1 -107 47.5 -163.5t134.5 -56.5q86 0 138 57t52 149q0 81 -52 130q-46 43 -117 48q-39 3 -72.5 3.5t-43.5 -2.5v184q11 -1 45 0t72 6q59 7 94 41q43 41 43 119q0 74 -42.5 119.5t-112.5 45.5q-82 0 -127 -52t-46 -147h-230q3 194 112 298.5t307 104.5 q171 0 279.5 -99t108.5 -255q0 -134 -113 -221l-34 -22q44 -17 77 -44q109 -84 109 -254q0 -187 -118 -296.5t-318 -109.5q-206 0 -320 108.5t-116 308.5z" />
<glyph unicode="4" d="M48 429v108v108l469 773h139h139v-790h143v-199h-143v-279h-245v279h-502zM232 628h318v527l-307 -510z" />
<glyph unicode="5" d="M48 487h250q10 -85 56 -129t126 -44q82 0 132.5 63.5t50.5 167.5q0 106 -51.5 171t-134.5 65q-52 0 -97 -23.5t-69 -63.5l-220 10l83 689h693v-211h-514l-43 -269q104 65 226 65q169 0 277 -115q107 -114 107 -295q0 -207 -125 -329t-338 -122q-170 0 -280.5 99.5 t-128.5 270.5z" />
<glyph unicode="6" d="M55 747q0 340 122 511q114 161 331 161l26 -1q158 0 258.5 -91t107.5 -240h-246q1 59 -34 94.5t-95 35.5h-10q-112 1 -165 -107q-42 -85 -51 -247q101 107 244 107q169 0 276.5 -116.5t107.5 -298.5q0 -193 -122.5 -315.5t-313.5 -122.5q-214 0 -325 160.5t-111 469.5z M304 549q0 -100 53.5 -166t133.5 -66q91 0 139 59t48 173q0 100 -51.5 160t-135.5 60q-85 0 -136 -60t-51 -160z" />
<glyph unicode="7" d="M44 1174v219h897v-94v-95q-193 -210 -315 -490q-121 -280 -146 -564h-256q27 285 154 565q119 260 295 459h-629z" />
<glyph unicode="8" d="M57 513q0 162 121 261q35 29 77 49l-49 32q-109 82 -109 217q0 156 109.5 251t288.5 95t288.5 -95t109.5 -251q0 -135 -109 -217q-24 -18 -49 -32q42 -21 78 -50q121 -98 121 -260q0 -179 -120.5 -287.5t-318.5 -108.5q-197 0 -317.5 108.5t-120.5 287.5zM314 514 q0 -90 49 -142.5t132 -52.5q84 0 133 52.5t49 142.5q0 91 -50 145q-48 54 -132 54q-83 0 -132 -54t-49 -145zM338 1056q0 -73 42 -115q43 -42 115 -42t114.5 42t42.5 115q0 74 -42.5 117.5t-114.5 43.5t-114.5 -43.5t-42.5 -117.5z" />
<glyph unicode="9" d="M53 980q0 193 122.5 315.5t316.5 122.5q214 0 326 -160.5t112 -468.5q0 -341 -124 -512q-114 -161 -332 -161l-26 1q-159 0 -260.5 91.5t-108.5 239.5h246q0 -59 36 -94.5t96 -35.5h12q111 -1 165 107q42 84 52 248q-103 -107 -247 -107q-169 0 -277.5 116t-108.5 298z M302 986q0 -99 52 -159.5t138 -60.5q85 0 137 61q52 60 52 159q0 100 -54 166t-135 66q-94 0 -142 -59t-48 -173z" />
<glyph unicode=":" horiz-adv-x="538" d="M108 335l167 168l169 -168l-169 -167zM108 733l167 168l169 -168l-169 -167z" />
<glyph unicode=";" horiz-adv-x="593" d="M164 150v130v130h134h133v-194q0 -156 -64 -244.5t-197 -116.5v96q84 26 114 83q20 39 25 116h-65h-80zM164 804v259h266v-259h-266z" />
<glyph unicode="&#x3c;" horiz-adv-x="1041" d="M68 516v86v85l905 383v-197l-643 -271l643 -272v-197z" />
<glyph unicode="=" horiz-adv-x="1041" d="M71 306v201h898v-201h-898zM71 697v201h898v-201h-898z" />
<glyph unicode="&#x3e;" horiz-adv-x="1041" d="M68 133v197l643 272l-643 271v197l905 -383v-85v-86z" />
<glyph unicode="?" horiz-adv-x="1088" d="M107 1023q6 201 123 314.5t319 113.5q203 0 322 -102t119 -275q0 -92 -55 -173.5t-184 -178.5q-51 -38 -70.5 -82t-16.5 -115h-232q-3 123 41.5 207t153.5 161q52 37 74 77.5t22 103.5q0 76 -47 122q-47 44 -127 44q-96 0 -143.5 -53t-50.5 -164h-248zM418 150v249h261 v-249h-261z" />
<glyph unicode="@" horiz-adv-x="1737" d="M211 788q0 283 198 479.5t485 196.5q266 0 448.5 -165t182.5 -403q0 -201 -136.5 -351.5t-317.5 -150.5q-57 0 -85 52q-12 20 -14 42q-87 -94 -190 -94q-126 0 -208 93t-81 235q-1 174 114.5 300t275.5 126q123 -1 196 -108l18 83h173l-116 -519q-5 -22 0 -37t16 -15 q89 0 150.5 99.5t61.5 244.5q0 178 -139 301.5t-340 123.5q-217 0 -367.5 -155t-150.5 -378q0 -224 146 -379t358 -155q132 0 245.5 43t167.5 112h157q-77 -134 -231 -215.5t-331 -81.5q-289 0 -487.5 196t-198.5 480zM688 729q0 -75 38 -115.5t107 -40.5q71 0 128 56 t76 144t-20 143.5t-120 55.5q-84 0 -146.5 -73t-62.5 -170z" />
<glyph unicode="A" horiz-adv-x="1287" d="M36 150l452 1279h155h155l453 -1279h-142h-142l-86 260h-485l-85 -260h-137h-138zM470 630h340l-171 514z" />
<glyph unicode="B" horiz-adv-x="1287" d="M136 150v1279h128h491q185 0 289.5 -85.5t104.5 -238.5q0 -159 -117 -242q-19 -14 -43 -25q45 -17 80 -42q123 -84 123 -246q0 -196 -121.5 -298t-354.5 -102h-452h-128zM391 372h325q104 0 156.5 45t52.5 137q0 80 -53.5 119.5t-160.5 39.5h-320v-341zM391 928h306 q100 0 149.5 37.5t49.5 112.5q0 66 -52 98.5t-158 32.5h-295v-281z" />
<glyph unicode="C" horiz-adv-x="1287" d="M78 782q0 314 159 498t429 184q227 0 377 -123.5t176 -333.5h-268q-13 103 -89 164t-194 61q-149 0 -233 -118.5t-84 -329.5q0 -205 84 -321t233 -116q118 0 194 67.5t89 183.5h268q-24 -222 -173.5 -352.5t-379.5 -130.5q-270 0 -429 180t-159 487z" />
<glyph unicode="D" horiz-adv-x="1287" d="M136 150v1279h133h414q264 0 401 -155t137 -453q0 -329 -142.5 -500t-417.5 -171h-392h-133zM403 370h225q163 0 244.5 110t81.5 330q0 200 -76 299.5t-228 99.5h-247v-839z" />
<glyph unicode="E" horiz-adv-x="1188" d="M136 150v1279h941v-113v-114h-674v-272h625v-109v-111h-625v-333h704v-113v-114h-971z" />
<glyph unicode="F" horiz-adv-x="1088" d="M136 150v1279h910v-113v-114h-643v-291h560v-109v-111h-560v-541h-133h-134z" />
<glyph unicode="G" horiz-adv-x="1386" d="M78 782q0 314 170.5 498t461.5 184q233 0 384 -116.5t176 -315.5h-268q-10 84 -93.5 147t-184.5 63q-174 0 -272.5 -120.5t-98.5 -334.5q0 -218 94.5 -331.5t276.5 -113.5h-1q155 0 242 119q48 67 70 157v3h-301v220h536v-690h-178l-26 165l-16 -21q-135 -180 -365 -180 h1q-280 0 -444 180t-164 487z" />
<glyph unicode="H" horiz-adv-x="1287" d="M126 150v1279h133h134v-479h500v479h134h134v-1279h-134h-134v579h-500v-579h-133h-134z" />
<glyph unicode="I" horiz-adv-x="495" d="M114 150v1279h133h134v-1279h-133h-134z" />
<glyph unicode="J" d="M39 563v77h254v-77v-17q0 -103 35 -156q37 -56 120 -56q79 0 113.5 41t34.5 134v920h133h134v-920q0 -195 -104.5 -294.5t-307.5 -99.5q-217 0 -318 109q-94 103 -94 310v29z" />
<glyph unicode="K" horiz-adv-x="1287" d="M155 150v1279h133h134v-530l490 530h170h171l-511 -523l545 -756h-175h-175l-385 563l-130 -133v-430h-133h-134z" />
<glyph unicode="L" horiz-adv-x="1088" d="M136 150v1279h133h134v-1052h636v-113v-114h-903z" />
<glyph unicode="M" horiz-adv-x="1484" d="M123 150v1279h195h196l233 -1014l230 1014h193h193v-1279h-124h-125v1075l-240 -1075h-131h-131l-240 1099v-1099h-124h-125z" />
<glyph unicode="N" horiz-adv-x="1287" d="M123 150v1279h140h140l513 -897v897h125h125v-1279h-133h-133l-528 921v-921h-124h-125z" />
<glyph unicode="O" horiz-adv-x="1386" d="M78 782q0 314 166.5 498t448.5 184q283 0 449 -184t166 -498q0 -307 -166 -487t-449 -180q-282 0 -448.5 180t-166.5 487zM345 784q0 -208 92 -325t256 -117q163 0 255.5 117t92.5 325q0 213 -92.5 333t-255.5 120t-255.5 -120t-92.5 -333z" />
<glyph unicode="P" horiz-adv-x="1188" d="M136 150v1279h133h402q218 0 332 -102.5t114 -297.5q0 -207 -114 -314.5t-332 -107.5h-75q-108 0 -193 -2v-455h-133h-134zM403 827h223q112 0 168 49.5t56 149.5q0 91 -56 137t-168 46h-223v-382z" />
<glyph unicode="Q" horiz-adv-x="1386" d="M78 782q0 314 166.5 498t448.5 184q283 0 449 -184t166 -498q0 -277 -135 -450l139 -131l-136 -144l-153 142q-137 -84 -330 -84q-282 0 -448.5 180t-166.5 487zM345 784q0 -208 92 -325t256 -117h5q77 0 138 29l-131 121l135 143l140 -127q61 107 61 276 q0 213 -92.5 333t-255.5 120t-255.5 -120t-92.5 -333z" />
<glyph unicode="R" horiz-adv-x="1287" d="M136 150v1279h133h511q183 0 295 -98t112 -258q0 -184 -125 -270q-33 -22 -75 -38q24 -9 43 -21q110 -65 114 -219l6 -210q2 -62 13 -88.5t44 -41.5v-34h-295q-11 20 -18.5 85.5t-8.5 141.5l-2 118q-2 86 -51 122.5t-163 36.5h-266v-505h-133h-134zM403 870h310 q103 0 155 42.5t52 127.5q0 84 -49.5 126.5t-147.5 42.5h-320v-339z" />
<glyph unicode="S" horiz-adv-x="1188" d="M70 547h257q4 -102 74 -157t194 -55q128 0 200 41.5t72 114.5q0 72 -52 106q-50 34 -216 71q-304 68 -407 147q-102 78 -102 244q0 186 135 295.5t365 109.5q215 0 349.5 -113.5t149.5 -305.5h-260q-7 92 -80 145.5t-190 53.5q-102 0 -159.5 -45t-57.5 -125q0 -57 60 -89 q59 -31 251 -74q280 -62 374 -144q94 -81 94 -260q0 -180 -142 -286t-384 -106q-243 0 -379.5 112.5t-145.5 319.5z" />
<glyph unicode="T" horiz-adv-x="1088" d="M25 1202v113v114h1040v-113v-114h-386v-1052h-134h-133v1052h-387z" />
<glyph unicode="U" horiz-adv-x="1287" d="M128 632v797h133h134v-806q0 -137 62 -206t188 -69q134 0 191 63.5t57 211.5v806h134h134v-797q0 -274 -121 -395.5t-395 -121.5q-263 0 -389.5 126.5t-127.5 390.5z" />
<glyph unicode="V" horiz-adv-x="1188" d="M34 1429h142h142l281 -977l280 977h137h138l-433 -1279h-127h-127z" />
<glyph unicode="W" horiz-adv-x="1682" d="M29 1429h139h139l213 -936l183 936h142h142l186 -928l212 928h135h135l-356 -1279h-127h-127l-205 1007l-201 -1007h-127h-127z" />
<glyph unicode="X" horiz-adv-x="1188" d="M25 150l414 647l-386 632h158h158l225 -413l233 413h154h154l-389 -612l417 -667h-159h-160l-251 440l-252 -440h-157h-159z" />
<glyph unicode="Y" horiz-adv-x="1188" d="M27 1429h158h160l266 -555l249 555h152h151l-423 -793v-486h-133h-134v481z" />
<glyph unicode="Z" horiz-adv-x="1088" d="M44 150v112v112l663 828h-641v113v114h978v-105v-106l-675 -841h673v-113v-114h-998z" />
<glyph unicode="[" horiz-adv-x="593" d="M112 -202v1640h439v-172h-216v-1297h216v-171h-439z" />
<glyph unicode="\" horiz-adv-x="495" d="M-58 1464h209l402 -1349h-208z" />
<glyph unicode="]" horiz-adv-x="593" d="M43 -31h215v1297h-215v172h438v-1640h-438v171z" />
<glyph unicode="^" horiz-adv-x="1041" d="M110 728l320 663h90h91l319 -663h-198l-212 464l-211 -464h-199z" />
<glyph unicode="_" d="M0 19h991v-92h-991v92z" />
<glyph unicode="`" horiz-adv-x="593" d="M-40 1485h273l168 -258h-180z" />
<glyph unicode="a" d="M51 399q0 129 72.5 207t210.5 98l165 23q64 9 107 29q18 9 28 31.5t7 46.5q-5 40 -41 62q-42 27 -122 27q-72 0 -112 -34.5t-42 -98.5h-240q8 166 113.5 249t308.5 83q177 0 279 -74.5t102 -203.5v-529q0 -63 10.5 -89t42.5 -40v-1v-34h-135h-135q-17 57 -22 112l-1 2 q-117 -139 -304 -139q-132 0 -212 75t-80 198zM303 425q0 -57 30.5 -89t84.5 -32q121 0 192 84q14 17 23 49q10 32 10 63v108q-44 -24 -115 -39l-92 -17q-65 -12 -99 -44.5t-34 -82.5z" />
<glyph unicode="b" horiz-adv-x="1088" d="M109 150v1279h124h125v-456l6 7q101 142 266 142q180 0 289.5 -133t109.5 -351q0 -230 -109.5 -371t-289.5 -141q-165 0 -266 132l-11 14v-122h-244zM346 607q0 -130 57 -203q55 -73 156 -73q100 0 157 75t57 209q0 137 -57 214t-157 77t-156.5 -79t-56.5 -220z" />
<glyph unicode="c" d="M61 618q0 231 121.5 367.5t327.5 136.5q183 0 299.5 -101t124.5 -265h-255q-3 70 -49.5 113.5t-119.5 43.5q-94 0 -143 -75.5t-49 -219.5q0 -141 49 -214.5t143 -73.5q68 0 115 47t54 124h255q-20 -177 -132 -276t-292 -99q-215 0 -332 127.5t-117 364.5z" />
<glyph unicode="d" horiz-adv-x="1088" d="M61 638q0 218 110.5 351t290.5 133q161 0 259 -136l11 -14v457h124h125v-1279h-121h-121v121l-4 -6q-103 -139 -271 -139q-181 0 -292 141t-111 371zM318 615q0 -134 56 -209t156 -75q101 0 157.5 79t56.5 220q0 130 -56.5 203t-156.5 73t-156.5 -77t-56.5 -214z" />
<glyph unicode="e" d="M41 638q0 227 119 355.5t331 128.5q216 0 333 -131t117 -373q1 -7 1 -14q0 -21 -5 -42h-645q9 -113 50 -168q52 -70 174 -70q56 0 104.5 32t58.5 78h254q-33 -145 -150 -226.5t-292 -81.5q-216 0 -333 133t-117 379zM295 721h386q-8 85 -45 133q-48 63 -149 63 q-96 0 -147 -74q-31 -47 -45 -122z" />
<glyph unicode="f" horiz-adv-x="593" d="M17 922v175h139v79q0 136 72.5 203t220.5 67h16q56 0 101 -6v-199h-79q-49 0 -65.5 -20t-16.5 -82v-42h161v-175h-161v-772h-124h-125v772h-139z" />
<glyph unicode="g" horiz-adv-x="1088" d="M71 628q0 222 110.5 358t290.5 136q160 0 247 -116q17 -22 31 -48v139h235v-897q0 -224 -111 -330.5t-346 -106.5q-193 0 -307 75t-122 208h272q3 -48 44.5 -70.5t127.5 -22.5q105 0 151 51t46 169v116l-20 -30q-82 -114 -237 -114q-185 0 -298.5 132.5t-113.5 350.5z M328 625q0 -130 55 -202.5t151 -72.5q98 0 153.5 74t55.5 204q0 131 -55.5 204.5t-152.5 73.5t-152 -74.5t-55 -206.5z" />
<glyph unicode="h" horiz-adv-x="1088" d="M116 150v1279h124h125v-453l20 28q93 118 268 118q150 0 235 -89t85 -246v-637h-125h-125v592q0 87 -38 129.5t-116 42.5q-98 0 -151 -59t-53 -171v-534h-124h-125z" />
<glyph unicode="i" horiz-adv-x="495" d="M123 1207v231h254v-231h-254zM125 150v947h125h125v-947h-124h-126z" />
<glyph unicode="j" horiz-adv-x="495" d="M5 -31l31 -1q50 0 67.5 16t17.5 62v1051h124h126v-1051q0 -154 -66.5 -215.5t-231.5 -61.5l-68 1v199zM119 1207v231h254v-231h-254z" />
<glyph unicode="k" d="M123 150v1279h124h125v-691l312 359h154h154l-342 -359l350 -588h-147h-149l-228 407l-104 -109v-298h-124h-125z" />
<glyph unicode="l" horiz-adv-x="495" d="M123 150v1279h124h125v-1279h-124h-125z" />
<glyph unicode="m" horiz-adv-x="1584" d="M114 150v947h118h119v-153q17 40 42 72q83 106 240 106q126 0 206 -85q31 -32 49 -71l31 50q77 106 225 106q154 0 241 -91.5t87 -253.5v-627h-124h-126v556q0 106 -34.5 157t-107.5 51q-79 0 -120 -48.5t-41 -138.5v-577h-125h-125v597q0 85 -36.5 126t-112.5 41 q-75 0 -115.5 -48.5t-40.5 -138.5v-577h-125h-125z" />
<glyph unicode="n" horiz-adv-x="1088" d="M116 150v947h118h119v-141q15 26 32 48q93 118 268 118q150 0 235 -89t85 -246v-637h-125h-125v592q0 87 -38 129.5t-116 42.5q-98 0 -151 -59t-53 -171v-534h-124h-125z" />
<glyph unicode="o" horiz-adv-x="1088" d="M61 618q0 231 131 367.5t353 136.5q223 0 353.5 -136.5t130.5 -367.5q0 -226 -130.5 -359t-353.5 -133q-222 0 -353 133t-131 359zM318 621q0 -140 57.5 -213.5t169.5 -73.5q111 0 169.5 73.5t58.5 213.5q0 143 -58.5 217.5t-169.5 74.5q-112 0 -169.5 -74.5 t-57.5 -217.5z" />
<glyph unicode="p" horiz-adv-x="1088" d="M110 -221v1318h119h119v-141l17 24q100 142 266 142q180 0 289 -133t109 -351q0 -230 -109 -371t-289 -141q-165 0 -266 132l-5 7v-486h-124h-126zM348 607q0 -130 56 -203t155 -73q100 0 157 75t57 209q0 137 -56.5 214t-156.5 77t-156 -79t-56 -220z" />
<glyph unicode="q" horiz-adv-x="1088" d="M61 608q0 232 115 373t302 141q154 0 248 -136q16 -22 27 -45v156h230v-1318h-124h-126v482q-100 -135 -266 -135h-2q-181 0 -292.5 132.5t-111.5 349.5zM318 615q0 -134 56.5 -209t156.5 -75q101 0 158 79t57 220q0 130 -57 203t-157 73q-101 0 -157.5 -77t-56.5 -214z " />
<glyph unicode="r" horiz-adv-x="693" d="M114 150v947h118h119v-170q14 28 30 54q88 141 227 141l57 -1v-255q-33 3 -75 3q-114 0 -170 -56.5t-56 -170.5v-492h-125h-125z" />
<glyph unicode="s" d="M53 453h254q3 -65 58 -102t150 -37q75 0 117 25.5t42 71.5q0 32 -41 55q-41 22 -143 44q-240 54 -321 114q-81 59 -81 184q0 141 105 227.5t276 86.5q193 0 311.5 -85t118.5 -224h-247q0 55 -45.5 88t-120.5 33q-72 0 -112.5 -25t-40.5 -69q0 -31 46 -54q46 -22 161 -48 q230 -51 307 -112q78 -61 78 -192q0 -139 -113 -223.5t-297 -84.5q-218 0 -336 83.5t-126 243.5z" />
<glyph unicode="t" horiz-adv-x="593" d="M17 922v175h132v254h249v-254h153v-175h-153v-538q0 -33 20 -43.5t81 -10.5h52v-185q-63 -5 -154 -5q-133 0 -190.5 47t-57.5 155v580h-132z" />
<glyph unicode="u" horiz-adv-x="1088" d="M117 459v638h125h125v-593q0 -87 37.5 -128.5t114.5 -41.5q98 0 150 59t52 170v534h125h125v-947h-118h-120v142q-13 -26 -31 -49q-92 -117 -267 -117q-150 0 -234 88t-84 245z" />
<glyph unicode="v" d="M23 1097h138h138l202 -706l204 706h131h131l-341 -947h-130h-131z" />
<glyph unicode="w" horiz-adv-x="1386" d="M17 1097h133h132l151 -696l142 696h124h126l140 -697l154 697h125h126l-274 -947h-127h-128l-145 705l-149 -705h-127h-128z" />
<glyph unicode="x" d="M27 150l322 484l-309 463h151h150l159 -280l159 280h146h146l-308 -468l321 -479h-153h-154l-165 289l-164 -289h-151h-150z" />
<glyph unicode="y" d="M17 1097h138h138l206 -703l200 703h131h130l-339 -967q-82 -239 -140 -300t-208 -61l-119 3v200q9 -4 48 -4q100 0 130 41q19 26 39 108z" />
<glyph unicode="z" horiz-adv-x="891" d="M36 150v97v97l479 548l6 7h-450v98v100h762v-102v-103l-473 -538h495v-101v-103h-819z" />
<glyph unicode="{" horiz-adv-x="693" d="M85 539v158q115 15 141 50t26 175v231q0 161 96 229.5t303 55.5v-160q-121 6 -149.5 -22t-28.5 -155v-232q0 -139 -83 -201q-39 -29 -106 -51q67 -19 106 -49q83 -62 83 -201v-232q0 -127 28.5 -155t149.5 -21v-160q-207 -14 -303 54.5t-96 229.5v231q0 140 -26 175 t-141 50z" />
<glyph unicode="|" horiz-adv-x="499" d="M150 -295v1781h199v-1781h-199z" />
<glyph unicode="}" horiz-adv-x="693" d="M43 -41q121 -7 149 21t28 155v232q0 139 84 201q38 30 105 49q-67 22 -105 51q-84 62 -84 201v232q0 127 -28 155t-149 22v160q207 13 302.5 -55.5t95.5 -229.5v-231q0 -140 26 -175t141 -50v-158q-115 -15 -141 -50t-26 -175v-231q0 -161 -96 -230q-95 -68 -302 -54v160 z" />
<glyph unicode="~" horiz-adv-x="1041" d="M109 598q30 71 90 113.5t132 42.5q45 0 96 -15.5t131 -52.5q54 -25 95.5 -40.5t58.5 -15.5q41 0 78 31.5t77 100.5l65 -159q-39 -71 -99 -113t-123 -42q-48 0 -99 17.5t-128 62.5q-36 20 -79 31.5t-81 11.5q-42 0 -85 -38t-64 -93z" />
<glyph horiz-adv-x="1392" d="M76 262v510h175q60 0 91 -7q97 -23 136 -123q20 -54 20 -122q0 -110 -49 -177q-40 -56 -107 -72q-36 -9 -83 -9h-183zM143 322h109q89 0 125 36q51 51 51 163q0 146 -90 181q-27 10 -87 10h-108v-390zM559 262v510h368v-60h-301v-156h282v-60h-282v-174h314v-60h-381z M1004 262v510h68v-450h250v-60h-318z" />
<glyph unicode="&#xa9;" horiz-adv-x="1313" d="M-19 789q0 292 192.5 484.5t483.5 192.5q290 0 483.5 -192.5t193.5 -484.5q0 -290 -193 -483t-484 -193q-292 0 -484 193t-192 483zM176 789q0 -221 137.5 -368t343.5 -147q207 0 344.5 147t137.5 368q0 222 -137 369.5t-345 147.5q-207 0 -344 -147.5t-137 -369.5z M312 786q0 179 100 284.5t269 105.5q132 0 219 -74.5t102 -200.5h-159q-7 55 -50.5 87t-111.5 32q-87 0 -136 -62t-49 -171q0 -105 50 -166t135 -61q64 0 107.5 34t54.5 93h159q-25 -131 -111.5 -207t-209.5 -76q-166 0 -267.5 105t-101.5 277z" />
<glyph unicode="&#xab;" horiz-adv-x="880" d="M66 407q84 97 164.5 189.5t165.5 189.5h65l-219 -378l219 -386h-68q-82 97 -163 192.5t-164 192.5zM363 407q84 97 164.5 189.5t164.5 189.5h64l-217 -378l224 -386h-72q-82 97 -164 192.5t-164 192.5z" />
<glyph unicode="&#xad;" horiz-adv-x="593" d="M48 532v235h497v-235h-497z" />
<glyph unicode="&#xae;" horiz-adv-x="1313" d="M-19 789q0 291 192.5 483.5t482.5 192.5q291 0 483.5 -192.5t192.5 -483.5q0 -290 -192.5 -482.5t-483.5 -192.5t-483 192.5t-192 482.5zM173 789q0 -222 138 -369.5t345 -147.5q208 0 346 147.5t138 369.5q0 223 -137.5 371t-346.5 148q-208 0 -345.5 -148t-137.5 -371z M367 426v728h79h204q139 0 211.5 -52.5t72.5 -154.5q0 -117 -67 -169q-38 -29 -100 -42l179 -310h-90h-90l-168 300h-72v-300h-79h-80zM526 851h124q63 0 93.5 23.5t30.5 70.5q0 43 -30.5 64t-93.5 21h-124v-179z" />
<glyph unicode="&#xb0;" horiz-adv-x="1024" d="M52 637l457 457l456 -457l-456 -456zM128 637l381 -380l380 380l-380 381zM292 637l217 218l217 -218l-217 -217z" />
<glyph unicode="&#xb1;" horiz-adv-x="901" d="M48 752l201 145l201 146l201 -146l201 -145l-77 -237l-76 -236h-497l-77 236zM167 533l142 -103l141 -102l142 102l141 103l-54 167l-54 166h-350l-54 -166zM294 671l78 56l78 57l78 -57l79 -56l-31 -92l-29 -92h-193z" />
<glyph unicode="&#xb6;" horiz-adv-x="891" d="M61 1138q0 65 24.5 120t66.5 97q47 40 109 61.5t137 21.5h432v-59h-106v-1229h-80v1229h-173v-1229h-82v690q-155 6 -242 87q-86 81 -86 211z" />
<glyph unicode="&#xb7;" horiz-adv-x="1082" d="M74 581l212 198l198 -198l-198 -198zM351 317l198 199l201 -199l-201 -219zM351 841l198 215l196 -215l-196 -198zM613 581l198 198l214 -198l-214 -205z" />
<glyph unicode="&#xba;" horiz-adv-x="983" d="M26 654l113 196l114 197h454l114 -197l113 -196l-113 -197l-114 -197h-454l-114 197zM116 654l91 -158l91 -157h364l90 157l91 158l-91 157l-90 157h-364zM243 654l59 103l59 102h238l59 -102l59 -103l-118 -206h-238z" />
<glyph unicode="&#xbb;" horiz-adv-x="880" d="M110 22l225 386q-54 94 -108 189t-109 189h65q81 -95 163.5 -189.5t165.5 -189.5q-84 -99 -165 -193t-163 -192h-74zM413 22l219 386q-54 94 -109.5 189t-109.5 189h65q83 -95 165.5 -189.5t164.5 -189.5q-83 -99 -163 -193t-164 -192h-68z" />
<glyph unicode="&#xbf;" horiz-adv-x="774" d="M77 304v675h675v-675h-675z" />
<glyph unicode="&#xd7;" horiz-adv-x="1041" d="M71 297l305 305l-305 304l145 144l304 -304l305 304l144 -144l-304 -304l304 -305l-144 -144l-305 304l-304 -304z" />
<glyph unicode="&#xe0;" d="M51 399q0 129 72.5 207t210.5 98l165 23q64 9 107 29q18 9 28 31.5t7 46.5q-5 40 -41 62q-42 27 -122 27q-72 0 -112 -34.5t-42 -98.5h-240q8 166 113.5 249t308.5 83q177 0 279 -74.5t102 -203.5v-529q0 -63 10.5 -89t42.5 -40v-1v-34h-135h-135q-17 57 -22 112l-1 2 q-117 -139 -304 -139q-132 0 -212 75t-80 198zM168 1485h273l168 -258h-180zM303 425q0 -57 30.5 -89t84.5 -32q121 0 192 84q14 17 23 49q10 32 10 63v108q-44 -24 -115 -39l-92 -17q-65 -12 -99 -44.5t-34 -82.5z" />
<glyph unicode="&#xe1;" d="M51 399q0 129 72.5 207t210.5 98l165 23q64 9 107 29q18 9 28 31.5t7 46.5q-5 40 -41 62q-42 27 -122 27q-72 0 -112 -34.5t-42 -98.5h-240q8 166 113.5 249t308.5 83q177 0 279 -74.5t102 -203.5v-529q0 -63 10.5 -89t42.5 -40v-1v-34h-135h-135q-17 57 -22 112l-1 2 q-117 -139 -304 -139q-132 0 -212 75t-80 198zM303 425q0 -57 30.5 -89t84.5 -32q121 0 192 84q14 17 23 49q10 32 10 63v108q-44 -24 -115 -39l-92 -17q-65 -12 -99 -44.5t-34 -82.5zM348 1227l117 258h273l-210 -258h-180z" />
<glyph unicode="&#xe7;" d="M61 618q0 231 121.5 367.5t327.5 136.5q183 0 299.5 -101t124.5 -265h-255q-3 70 -49.5 113.5t-119.5 43.5q-94 0 -143 -75.5t-49 -219.5q0 -141 49 -214.5t143 -73.5q68 0 115 47t54 124h255q-20 -177 -132 -276t-292 -99q-215 0 -332 127.5t-117 364.5zM250 -209l39 83 q43 -14 79.5 -21.5t57.5 -7.5q35 0 59.5 20.5t24.5 49.5t-19.5 46.5t-50.5 17.5q-14 0 -32.5 -3.5t-38.5 -10.5l-38 36l98 148h103l-62 -95l49 6q71 0 114 -38.5t43 -101.5q0 -81 -60 -128.5t-162 -47.5q-49 0 -104 12.5t-100 34.5z" />
<glyph unicode="&#xe8;" d="M41 638q0 227 119 355.5t331 128.5q216 0 333 -131t117 -373q2 -28 -4 -56h-645q9 -113 50 -168q52 -70 174 -70q56 0 104.5 32t58.5 78h254q-33 -145 -150 -226.5t-292 -81.5q-216 0 -333 133t-117 379zM183 1485h273l168 -258h-180zM295 721h386q-8 85 -45 133 q-48 63 -149 63q-96 0 -147 -74q-31 -47 -45 -122z" />
<glyph unicode="&#xe9;" d="M41 638q0 227 119 355.5t331 128.5q216 0 333 -131t117 -373q2 -28 -4 -56h-645q9 -113 50 -168q52 -70 174 -70q56 0 104.5 32t58.5 78h254q-33 -145 -150 -226.5t-292 -81.5q-216 0 -333 133t-117 379zM295 721h386q-8 85 -45 133q-48 63 -149 63q-96 0 -147 -74 q-31 -47 -45 -122zM403 1227l168 258h273l-261 -258h-180z" />
<glyph unicode="&#xea;" d="M41 638q0 227 119 355.5t331 128.5q216 0 333 -131t117 -373q2 -28 -4 -56h-645q9 -113 50 -168q52 -70 174 -70q56 0 104.5 32t58.5 78h254q-33 -145 -150 -226.5t-292 -81.5q-216 0 -333 133t-117 379zM196 1227l202 258h111h111l202 -258h-200l-113 145l-113 -145 h-200zM295 721h386q-8 85 -45 133q-48 63 -149 63q-96 0 -147 -74q-31 -47 -45 -122z" />
<glyph unicode="&#xf4;" horiz-adv-x="1088" d="M61 618q0 231 131 367.5t353 136.5q223 0 353.5 -136.5t130.5 -367.5q0 -226 -130.5 -359t-353.5 -133q-222 0 -353 133t-131 359zM231 1227l202 258h112h111l202 -258h-200l-113 145l-113 -145h-201zM318 621q0 -140 57.5 -213.5t169.5 -73.5q111 0 169.5 73.5 t58.5 213.5q0 143 -58.5 217.5t-169.5 74.5q-112 0 -169.5 -74.5t-57.5 -217.5z" />
<glyph unicode="&#xf7;" horiz-adv-x="1041" d="M71 498v207h898v-207h-898zM362 230q0 66 46 112t112 46t112.5 -46t46.5 -112t-46.5 -112t-112.5 -46t-112 46t-46 112zM362 973q0 66 46 112t112 46t112.5 -46t46.5 -112t-46.5 -112t-112.5 -46t-112 46t-46 112z" />
<glyph unicode="&#x153;" horiz-adv-x="1682" d="M61 618q0 231 125 368q125 136 339 136q201 -1 324 -121q119 120 325 121q216 0 333 -131t117 -373q2 -28 -4 -56h-630q9 -113 51 -168q52 -70 175 -70q50 0 93 32t53 78h254q-33 -145 -150 -226.5t-292 -81.5q-206 -1 -322 121q-124 -122 -327 -121q-214 0 -339 133 t-125 359zM318 621q0 -140 55 -213.5t161 -73.5t161.5 73.5t55.5 213.5q0 143 -56 218q-55 74 -161 74t-161 -74.5t-55 -217.5zM994 721h388q-8 85 -45 133q-49 63 -150 63q-98 0 -149 -74q-32 -47 -44 -122z" />
<glyph unicode="&#x60c;" horiz-adv-x="471" d="M118.5 263.5q-42.5 103.5 27.5 235.5t205 157q-190 -265 27 -342l-111 -167q-106 13 -148.5 116.5z" />
<glyph unicode="&#x61b;" horiz-adv-x="497" d="M92 268l167 168l169 -168l-169 -167zM108.5 609q-42.5 104 27.5 235.5t206 157.5q-191 -266 27 -343l-111 -166q-107 12 -149.5 116z" />
<glyph unicode="&#x61f;" horiz-adv-x="806" d="M138 1065q-8 73 6 138.5t55 115t112.5 79t178.5 31.5q25 0 60.5 -10.5t70 -27.5t62 -39.5t36.5 -45.5l-95 -170q-34 45 -78.5 70t-89.5 12q-36 -3 -56.5 -21t-29 -46t-7 -62.5t9.5 -70.5q14 -58 45 -117t62.5 -108t55 -80.5t21.5 -34.5l-101 -141q-58 72 -102.5 126.5 t-78 97.5t-57.5 78.5t-40 70t-25.5 71.5t-14.5 84zM298 274l176 174l175 -174l-175 -177z" />
<glyph unicode="&#x621;" horiz-adv-x="954" d="M67 320l208 55q-50 74 -66 145t-5.5 134.5t43.5 117.5t81.5 95t108.5 66t123.5 30.5t128 -11t121.5 -58.5l-62 -218q-32 13 -70.5 21.5t-76 6.5t-70 -18t-53.5 -52q-25 -44 -16 -87.5t38 -78.5q35 -42 82 -59.5t99 -21.5t105 0t101 5l-54 -234q-96 0 -186 -0.5t-178 -5.5 t-176.5 -16.5t-181.5 -32.5z" />
<glyph unicode="&#x622;" horiz-adv-x="421" d="M-24 1387q-1 80 56.5 152.5t216 7t242.5 46.5q-40 -237 -231.5 -157t-283.5 -49zM80 235q9 38 12.5 87.5t1.5 115.5v910h234v-820q0 -50 -2.5 -102.5t-12.5 -103t-28.5 -96t-49.5 -79.5z" />
<glyph unicode="&#x623;" horiz-adv-x="425" d="M54 1512l82 22q-26 39 -29 75.5t10.5 66.5t39.5 51.5t58 31.5t66.5 5.5t64.5 -26.5l-23 -86q-13 5 -28.5 8.5t-30 2.5t-27 -7.5t-20.5 -19.5q-11 -17 -7.5 -34.5t14.5 -31.5q14 -17 32.5 -23.5t39 -8t41.5 0.5t40 2l-22 -92q-75 0 -142 -2.5t-141 -19.5zM84 235 q9 38 12.5 87.5t1.5 115.5v910h234v-820q0 -50 -2.5 -102.5t-12 -103t-28 -96t-50.5 -79.5z" />
<glyph unicode="&#x624;" horiz-adv-x="862" d="M67 498v204q0 75 28.5 141t78 115.5t116 78t141.5 28.5t141 -28.5t115.5 -78t78.5 -115.5t29 -141v-184q0 -108 -10.5 -210.5t-37.5 -191t-74.5 -159t-122 -113.5t-179.5 -54.5t-247 17.5v234q58 -23 123.5 -30.5t124 7t102 53.5t56.5 108q-56 -21 -112 -22t-107.5 15 t-96 46.5t-77.5 72.5t-51.5 95t-18.5 112zM188 1266l110 29q-35 52 -39 100.5t14 89t53 69.5t77.5 42t89 7t86.5 -35l-33 -115q-17 7 -37 11.5t-39.5 3.5t-37 -9.5t-27.5 -27.5q-14 -23 -9.5 -46t20.5 -41q18 -23 43 -32t52 -11t55 0.5t53 2.5l-28 -123q-51 0 -98 -0.5 t-93 -3t-93 -8.5t-96 -18zM302 524q0 -32 11 -56.5t29 -41.5t41 -26.5t48 -10.5q24 -1 47.5 6.5t42 24t29.5 42.5t11 62v173q0 36 -11 62t-29.5 43t-42 24.5t-47.5 6.5q-25 -1 -48 -10.5t-41 -27t-29 -42t-11 -56.5v-173z" />
<glyph unicode="&#x625;" horiz-adv-x="448" d="M29 -188l81 21q-26 39 -28.5 75t10.5 66.5t39.5 52t58.5 31.5t66.5 5.5t64.5 -26.5l-24 -85q-13 5 -28.5 8t-30 2t-27 -7t-20.5 -20q-11 -17 -7.5 -34.5t14.5 -31.5q14 -17 33 -23.5t39 -8t41 0t40 1.5l-22 -91q-75 0 -142 -2.5t-141 -19.5zM102 235q9 38 12.5 87.5 t1.5 115.5v910h234v-820q0 -50 -2.5 -102.5t-12.5 -103t-28.5 -96t-49.5 -79.5z" />
<glyph unicode="&#x626;" horiz-adv-x="1346" d="M-23 872l109 28q-35 52 -38.5 101t14.5 89t53 69.5t77.5 42t88.5 7t86 -35.5l-32 -114q-17 7 -37 11.5t-40 3t-37 -9.5t-28 -27q-13 -23 -8.5 -46t19.5 -41q19 -23 43.5 -32t52 -11t55.5 0.5t53 2.5l-29 -123q-51 0 -98 -0.5t-93 -3t-92.5 -8.5t-95.5 -18zM130 571 l207 82q0 -41 9 -87t32 -84t62.5 -63.5t99.5 -26.5h374q46 0 74.5 16.5t41 40.5t9.5 52.5t-20 52.5t-47 40t-72 15l-126 -1q-58 -3 -102 7.5t-74.5 31t-48.5 48.5t-24 61q-12 59 1 112t42 99.5t70.5 87.5t88 77.5t93.5 67.5t87 58l143 -186q-85 -39 -161 -94t-136 -136 q39 0 78 0.5t77 -1t76 -7.5t75 -18q68 -23 114 -64t71.5 -91.5t31.5 -107.5t-6 -113t-41 -107t-74 -90t-104.5 -62t-132.5 -23h-446q-95 2 -160 35t-105.5 89t-58.5 130t-18 159z" />
<glyph unicode="&#x627;" horiz-adv-x="452" d="M97 235q10 38 13.5 87.5t1.5 115.5v910h233v-820q0 -50 -2.5 -102.5t-12 -103t-28 -96t-50.5 -79.5z" />
<glyph unicode="&#x628;" horiz-adv-x="1332" d="M67 580v35h234v-31q0 -54 31.5 -94.5t83.5 -67.5t117.5 -41t134.5 -14q59 0 116.5 9.5t106 29.5t84 50t50.5 71q8 35 6 66.5t-12 60.5t-27.5 56.5t-40.5 55.5l156 144q41 -31 72.5 -75.5t52.5 -96.5q30 -75 32.5 -147.5t-20.5 -137.5t-69.5 -119.5t-114.5 -94.5 q-83 -48 -184.5 -72t-207.5 -24q-113 0 -221 27t-192.5 82t-136 136.5t-51.5 191.5zM499 -170l167 168l169 -168l-169 -167z" />
<glyph unicode="&#x629;" horiz-adv-x="862" d="M67 521v181q0 75 28.5 141t78 115.5t116 78t141.5 28.5t141 -28.5t115.5 -78t78.5 -115.5t29 -141v-181q0 -75 -29 -141.5t-78.5 -116t-115.5 -78.5t-141 -29t-141.5 29t-116 78.5t-78 116t-28.5 141.5zM122 1358l168 167l140 -140l140 140l168 -167l-168 -168l-140 139 l-140 -139zM302 524q0 -32 11 -56.5t29 -41.5t41.5 -26.5t47.5 -10.5t47.5 6.5t42 24t29.5 42.5t11 62v173q0 36 -11 62t-29.5 43t-42 24.5t-47.5 6.5t-47.5 -10.5t-41.5 -27t-29 -42t-11 -56.5v-173z" />
<glyph unicode="&#x62a;" horiz-adv-x="1332" d="M67 580v35h234v-31q0 -54 31.5 -94.5t83.5 -67.5t117.5 -41t134.5 -14q59 0 116.5 9.5t106 29.5t84 50t50.5 71q8 35 6 66.5t-12 60.5t-27.5 56.5t-40.5 55.5l156 144q41 -31 72.5 -75.5t52.5 -96.5q30 -75 32.5 -147.5t-20.5 -137.5t-69.5 -119.5t-114.5 -94.5 q-83 -48 -184.5 -72t-207.5 -24q-113 0 -221 27t-192.5 82t-136 136.5t-51.5 191.5zM366 1077l168 167l141 -139l139 139l168 -167l-168 -167l-139 139l-141 -139z" />
<glyph unicode="&#x62b;" horiz-adv-x="1332" d="M67 580v35h234v-31q0 -54 31.5 -94.5t83.5 -67.5t117.5 -41t134.5 -14q59 0 116.5 9.5t106 29.5t84 50t50.5 71q8 35 6 66.5t-12 60.5t-27.5 56.5t-40.5 55.5l156 144q41 -31 72.5 -75.5t52.5 -96.5q30 -75 32.5 -147.5t-20.5 -137.5t-69.5 -119.5t-114.5 -94.5 q-83 -48 -184.5 -72t-207.5 -24q-113 0 -221 27t-192.5 82t-136 136.5t-51.5 191.5zM366 1077l168 167l141 -139l139 139l168 -167l-168 -167l-139 139l-141 -139zM510 1380l167 168l169 -168l-169 -167z" />
<glyph unicode="&#x62c;" horiz-adv-x="992" d="M73 214q12 99 54 175t106.5 132t147.5 93.5t178 58.5q-40 34 -83 57t-90.5 31t-101 -1t-113.5 -39l-5 221q66 54 132 67t130.5 -2t128 -51t126 -80t123 -88.5t119.5 -76.5l-99 -262q-50 4 -106.5 2t-112.5 -12t-108 -30t-93.5 -52t-69 -77.5t-34.5 -105.5q-5 -42 4.5 -83 t34.5 -75.5t66 -60.5t99 -36q40 -8 84.5 -5t88 11.5t84 20t73.5 19.5l35 -218q-63 -19 -129.5 -34t-133.5 -22t-132.5 -2.5t-126.5 25t-114.5 60t-97.5 102.5q-42 63 -59.5 152t-4.5 186zM425 167l167 168l169 -168l-169 -167z" />
<glyph unicode="&#x62d;" horiz-adv-x="992" d="M73 214q12 99 54 175t106.5 132t147.5 93.5t178 58.5q-40 34 -83 57t-90.5 31t-101 -1t-113.5 -39l-5 221q66 54 132 67t130.5 -2t128 -51t126 -80t123 -88.5t119.5 -76.5l-99 -262q-50 4 -106.5 2t-112.5 -12t-108 -30t-93.5 -52t-69 -77.5t-34.5 -105.5q-5 -42 4.5 -83 t34.5 -75.5t66 -60.5t99 -36q40 -8 84.5 -5t88 11.5t84 20t73.5 19.5l35 -218q-63 -19 -129.5 -34t-133.5 -22t-132.5 -2.5t-126.5 25t-114.5 60t-97.5 102.5q-42 63 -59.5 152t-4.5 186z" />
<glyph unicode="&#x62e;" horiz-adv-x="992" d="M73 214q12 99 54 175t106.5 132t147.5 93.5t178 58.5q-40 34 -83 57t-90.5 31t-101 -1t-113.5 -39l-5 221q66 54 132 67t130.5 -2t128 -51t126 -80t123 -88.5t119.5 -76.5l-99 -262q-50 4 -106.5 2t-112.5 -12t-108 -30t-93.5 -52t-69 -77.5t-34.5 -105.5q-5 -42 4.5 -83 t34.5 -75.5t66 -60.5t99 -36q40 -8 84.5 -5t88 11.5t84 20t73.5 19.5l35 -218q-63 -19 -129.5 -34t-133.5 -22t-132.5 -2.5t-126.5 25t-114.5 60t-97.5 102.5q-42 63 -59.5 152t-4.5 186zM164 1256l167 168l169 -168l-169 -167z" />
<glyph unicode="&#x62f;" horiz-adv-x="763" d="M67 158v234h260q36 0 62 11t42.5 29.5t24.5 42t7 47.5q-2 33 -24.5 70t-58 75.5t-79.5 77t-87 73.5l164 180q54 -44 110 -98.5t102 -116t75.5 -127.5t30.5 -134q1 -75 -27.5 -141.5t-78.5 -116t-117 -78t-142 -28.5h-264z" />
<glyph unicode="&#x630;" horiz-adv-x="763" d="M59 1198l167 168l169 -168l-169 -167zM67 158v234h260q36 0 62 11t42.5 29.5t24.5 42t7 47.5q-2 33 -24.5 70t-58 75.5t-79.5 77t-87 73.5l164 180q54 -44 110 -98.5t102 -116t75.5 -127.5t30.5 -134q1 -75 -27.5 -141.5t-78.5 -116t-117 -78t-142 -28.5h-264z" />
<glyph unicode="&#x631;" horiz-adv-x="813" d="M67 41q88 -35 157.5 -32t121.5 32.5t87.5 82t54.5 117.5t22.5 137.5t-8 143t-37.5 134t-66 110.5l155 144q74 -63 119 -153.5t62 -193.5t8 -211t-43.5 -207t-92.5 -180.5t-138 -131t-181 -60t-221 33.5v234z" />
<glyph unicode="&#x632;" horiz-adv-x="813" d="M67 41q88 -35 157.5 -32t121.5 32.5t87.5 82t54.5 117.5t22.5 137.5t-8 143t-37.5 134t-66 110.5l155 144q74 -63 119 -153.5t62 -193.5t8 -211t-43.5 -207t-92.5 -180.5t-138 -131t-181 -60t-221 33.5v234zM123 1084l167 167l168 -167l-168 -168z" />
<glyph unicode="&#x633;" horiz-adv-x="2019" d="M67 224v369h234v-365q0 -50 18.5 -87t49 -61.5t69 -37.5t79.5 -13q40 0 79 12t69.5 37t49 62.5t18.5 87.5v678h234v-514h132q24 0 47.5 9t42 25.5t29.5 41t11 56.5v382h234v-382q0 -31 11 -55.5t29 -41t41 -25.5t47 -10q24 1 47 10t41 25.5t29 41t11 55.5v382h233v-385 q0 -75 -28 -141t-77 -115t-114 -77.5t-139 -29.5q-72 0 -135.5 25.5t-111.5 70.5q-49 -45 -112.5 -70.5t-135.5 -25.5h-137q-13 -82 -55.5 -148.5t-103.5 -113t-135 -72t-151 -25.5q-84 0 -165 30.5t-144.5 86.5t-102 134t-38.5 174z" />
<glyph unicode="&#x634;" horiz-adv-x="2019" d="M67 224v369h234v-365q0 -50 18.5 -87t49 -61.5t69 -37.5t79.5 -13q40 0 79 12t69.5 37t49 62.5t18.5 87.5v678h234v-514h132q24 0 47.5 9t42 25.5t29.5 41t11 56.5v382h234v-382q0 -31 11 -55.5t29 -41t41 -25.5t47 -10q24 1 47 10t41 25.5t29 41t11 55.5v382h233v-385 q0 -75 -28 -141t-77 -115t-114 -77.5t-139 -29.5q-72 0 -135.5 25.5t-111.5 70.5q-49 -45 -112.5 -70.5t-135.5 -25.5h-137q-13 -82 -55.5 -148.5t-103.5 -113t-135 -72t-151 -25.5q-84 0 -165 30.5t-144.5 86.5t-102 134t-38.5 174zM1038 1204l168 167l141 -140l139 140 l168 -167l-168 -168l-139 139l-141 -139zM1181 1506l167 168l168 -168l-168 -167z" />
<glyph unicode="&#x635;" horiz-adv-x="2159" d="M67 224v338h234v-334q0 -50 18.5 -87t49 -61.5t69 -37.5t79.5 -13t80 12t69 37t48.5 62.5t18.5 87.5v334l235 93v-263q55 67 119.5 138t137.5 136t152 118t163 83.5t170.5 33t174.5 -33.5q49 -20 87.5 -57t65 -84t40.5 -100t14 -104q0 -75 -28.5 -141.5t-78 -116 t-115.5 -78t-141 -28.5h-767q-13 -82 -55.5 -148.5t-103.5 -113t-135 -72t-151 -25.5q-84 0 -165 30.5t-144.5 86.5t-102 134t-38.5 174zM1272 392h452q36 0 62 11t43 29.5t24.5 42t6.5 47.5t-10 47t-25.5 41t-41 30t-56.5 15q-42 3 -85 -7t-85 -30t-82.5 -47t-77 -57.5 t-68.5 -62t-57 -59.5z" />
<glyph unicode="&#x636;" horiz-adv-x="2159" d="M67 224v338h234v-334q0 -50 18.5 -87t49 -61.5t69 -37.5t79.5 -13t80 12t69 37t48.5 62.5t18.5 87.5v334l235 93v-263q55 67 119.5 139t137 137t151.5 118t162.5 83.5t171 32.5t175.5 -35q49 -20 87.5 -57.5t65 -84t40.5 -99.5t14 -104q0 -75 -28.5 -141.5t-78 -116 t-115.5 -78t-141 -28.5h-767q-13 -82 -55.5 -148.5t-103.5 -113t-135 -72t-151 -25.5q-84 0 -165 30.5t-144.5 86.5t-102 134t-38.5 174zM1096 1079l167 168l168 -168l-168 -167zM1272 392h452q36 0 62 11t43 29.5t24.5 42t6.5 47.5t-10 47t-25.5 41t-41 30t-56.5 15 q-42 3 -85 -7t-85 -30t-82.5 -47t-77 -57.5t-68.5 -62t-57 -59.5z" />
<glyph unicode="&#x637;" horiz-adv-x="1439" d="M67 254l70 225q26 -23 57.5 -41t64.5 -31v941h233v-746q40 44 86.5 87t98 80.5t107.5 66.5t116.5 44t124.5 14t131 -24q50 -17 90 -54t68 -85.5t43 -103t15 -105.5q0 -75 -28.5 -141.5t-78 -116t-115.5 -78t-141 -28.5l-648 -3q-64 6 -137.5 29.5t-156.5 69.5zM552 392 h453q36 0 61.5 11t42 29.5t24.5 42t7 47.5t-9.5 47t-25.5 41t-41.5 30t-56.5 15q-42 3 -85 -7t-85 -30t-82.5 -47t-77 -57.5t-68.5 -62t-57 -59.5z" />
<glyph unicode="&#x638;" horiz-adv-x="1439" d="M67 254l70 225q26 -23 57.5 -41t64.5 -31v941h233v-746q40 44 86.5 87t98 80.5t107.5 66.5t116.5 44t124.5 14t131 -24q50 -17 90 -54t68 -85.5t43 -103t15 -105.5q0 -75 -28.5 -141.5t-78 -116t-115.5 -78t-141 -28.5l-648 -3q-64 6 -137.5 29.5t-156.5 69.5zM552 392 h453q36 0 61.5 11t42 29.5t24.5 42t7 47.5t-9.5 47t-25.5 41t-41.5 30t-56.5 15q-42 3 -85 -7t-85 -30t-82.5 -47t-77 -57.5t-68.5 -62t-57 -59.5zM596 1133l167 168l169 -168l-169 -167z" />
<glyph unicode="&#x639;" horiz-adv-x="925" d="M70.5 161q9.5 76 51.5 151t122 141q-58 88 -76.5 173.5t-4.5 161t58 137.5t112 104q43 27 91.5 39t97 10.5t95.5 -16t89 -39.5l-27 -225q-25 21 -57.5 31t-67 9.5t-66.5 -11t-55 -30t-34 -48.5t-3 -66q8 -36 27.5 -71t35.5 -67q40 11 84.5 22.5t90.5 22.5t92 20.5 t90 17.5l-43 -255q-35 -9 -83.5 -17.5t-100.5 -20.5t-102.5 -29.5t-91 -44t-65.5 -63t-25 -86.5t15.5 -86t42.5 -60t63 -37.5t77 -17.5q39 -5 79.5 -0.5t81.5 13.5t81 20.5t78 20.5l35 -218q-63 -19 -128 -34t-130 -22t-128.5 -2.5t-122.5 25t-111.5 60t-95.5 102.5 q-43 62 -62 135.5t-9.5 149.5z" />
<glyph unicode="&#x63a;" horiz-adv-x="925" d="M70.5 161q9.5 76 51.5 151t122 141q-58 88 -76.5 173.5t-4.5 161t58 137.5t112 104q43 27 91.5 39t97 10.5t95.5 -16t89 -39.5l-27 -225q-25 21 -57.5 31t-67 9.5t-66.5 -11t-55 -30t-34 -48.5t-3 -66q8 -36 27.5 -71t35.5 -67q40 11 84.5 22.5t90.5 22.5t92 20.5 t90 17.5l-43 -255q-35 -9 -83.5 -17.5t-100.5 -20.5t-102.5 -29.5t-91 -44t-65.5 -63t-25 -86.5t15.5 -86t42.5 -60t63 -37.5t77 -17.5q39 -5 79.5 -0.5t81.5 13.5t81 20.5t78 20.5l35 -218q-63 -19 -128 -34t-130 -22t-128.5 -2.5t-122.5 25t-111.5 60t-95.5 102.5 q-43 62 -62 135.5t-9.5 149.5zM197 1356l167 168l168 -168l-168 -167z" />
<glyph unicode="&#x640;" horiz-adv-x="492" d="M-1 158v234h494v-234h-494z" />
<glyph unicode="&#x641;" horiz-adv-x="1437" d="M67 521v73h234v-70q0 -32 11 -56.5t29 -41t41.5 -25.5t48.5 -9h235q-24 60 -24 129v181q0 75 29 141t78.5 115.5t116 78t141.5 28.5q74 0 140 -28.5t115.5 -78t78.5 -115.5t29 -141v-181q0 -75 -29 -141.5t-78.5 -116.5t-115.5 -78.5t-140 -28.5l-576 2 q-75 0 -141.5 28.5t-116 78t-78 115.5t-28.5 141zM837 1356l167 168l169 -168l-169 -167zM876 524q0 -32 11 -56.5t29.5 -41.5t42 -26.5t48.5 -10.5q24 -1 47.5 6.5t41.5 24t29 42.5t11 62v173q0 36 -11 62t-29 43t-41.5 24.5t-47.5 6.5q-25 -1 -48.5 -10.5t-42 -27 t-29.5 -42t-11 -56.5v-173z" />
<glyph unicode="&#x642;" horiz-adv-x="1197" d="M67 224v90h234v-86q0 -80 38 -135t96 -84.5t127 -33.5t131.5 17t109 68t60.5 119q-56 -21 -112 -20.5t-107 18.5t-95.5 51.5t-77.5 78.5t-51.5 99.5t-18.5 114.5v181q0 75 28.5 141t78 115.5t116 78t141.5 28.5t141 -28.5t115.5 -78t78.5 -115.5t29 -141v-184v-62 t-5 -98.5t-17 -122t-35.5 -131.5t-61.5 -127.5t-95 -110t-135 -79.5t-182 -35q-101 -3 -197 26t-170 89t-119 149.5t-45 207.5zM451 1358l168 167l141 -140l139 140l168 -167l-168 -168l-139 139l-141 -139zM635 524q0 -32 11 -56.5t29 -41.5t41.5 -26.5t48.5 -10.5 q24 -1 47.5 6.5t42 24t29.5 42.5t11 62v173q0 36 -11 62t-29.5 43t-42 24.5t-47.5 6.5q-25 -1 -48.5 -10.5t-41.5 -27t-29 -42t-11 -56.5v-173z" />
<glyph unicode="&#x643;" horiz-adv-x="1336" d="M67 558v36h234v-32q0 -71 31.5 -124.5t83 -89.5t117.5 -54.5t135 -19t135 17.5t117.5 53.5t83 89.5t31.5 127v786h234v-790q0 -101 -33.5 -182.5t-91.5 -142t-135 -101.5t-163.5 -61t-177.5 -20t-177.5 20t-163.5 60.5t-135 101.5t-91.5 142t-33.5 183zM299 751l107 118 q5 -14 20.5 -23.5t43.5 -9.5h232q34 0 50 15t15.5 32.5t-17.5 32.5t-48 15h-171q-27 -1 -51 8t-41.5 26t-26 41t-4.5 52q5 38 25 64t44 54l161 187l124 -86l-176 -202h118q71 0 118 -29t70.5 -73t23.5 -95q0 -50 -23.5 -94t-70.5 -73t-118 -29h-237q-58 0 -100 19t-68 50z " />
<glyph unicode="&#x644;" horiz-adv-x="1034" d="M67 224v369h234v-365q0 -50 18.5 -87t49 -61.5t69 -37.5t79.5 -13t80 12t69 37t48.5 62.5t18.5 87.5v1120h234l-4 -1041q0 -63 -5.5 -120t-22 -108t-48 -96.5t-83.5 -85.5q-62 -48 -136 -73t-151 -25q-85 0 -166 30.5t-144 86.5t-101.5 134t-38.5 174z" />
<glyph unicode="&#x645;" horiz-adv-x="1126" d="M71.5 70.5q-7.5 66.5 0 129.5t37 116.5t84 95.5t139.5 67l-1 223q0 75 28.5 141t78 115.5t116 78t141.5 28.5t141 -28.5t115.5 -78t78.5 -115.5t29 -141v-193q0 -75 -28.5 -141t-78.5 -115q-52 -51 -103 -73.5t-104 -25t-108.5 11t-115.5 34.5q-37 13 -72.5 16 t-64.5 -7.5t-48 -36.5t-23 -72q-4 -49 15 -121.5t69 -173.5h-255q-25 63 -44 131t-26.5 134.5zM565 450q4 -4 25.5 -14t50 -18.5t61 -12.5t60 5t45.5 34.5t18 74.5v178q0 36 -11 62t-29.5 43t-42 24.5t-47.5 6.5t-47.5 -10.5t-41.5 -27t-29.5 -42t-11.5 -56.5v-247z" />
<glyph unicode="&#x646;" horiz-adv-x="1034" d="M67 224v369h235v-365q0 -50 18.5 -87t48.5 -61.5t69 -37.5t80 -13q40 0 79 12t69.5 37t49 62.5t18.5 87.5v678h234v-682q0 -96 -39 -174t-102 -134t-144 -86.5t-165 -30.5q-85 0 -166 30.5t-144.5 86.5t-102 134t-38.5 174zM267 974l167 168l169 -168l-169 -167z" />
<glyph unicode="&#x647;" horiz-adv-x="862" d="M67 521v181q0 75 28.5 141t78 115.5t116 78t141.5 28.5t141 -28.5t115.5 -78t78.5 -115.5t29 -141v-181q0 -75 -29 -141.5t-78.5 -116t-115.5 -78.5t-141 -29t-141.5 29t-116 78.5t-78 116t-28.5 141.5zM302 524q0 -32 11 -56.5t29 -41.5t41.5 -26.5t47.5 -10.5t47.5 6.5 t42 24t29.5 42.5t11 62v173q0 36 -11 62t-29.5 43t-42 24.5t-47.5 6.5t-47.5 -10.5t-41.5 -27t-29 -42t-11 -56.5v-173z" />
<glyph unicode="&#x648;" horiz-adv-x="862" d="M67 498v204q0 75 28.5 141t78 115.5t116 78t141.5 28.5t141 -28.5t115.5 -78t78.5 -115.5t29 -141v-184q0 -108 -10.5 -210.5t-37.5 -191t-74.5 -159t-122 -113.5t-179.5 -54.5t-247 17.5v234q58 -23 123.5 -30.5t124 7t102 53.5t56.5 108q-56 -21 -112 -22t-107.5 15 t-96 46.5t-77.5 72.5t-51.5 95t-18.5 112zM302 524q0 -32 11 -56.5t29 -41.5t41 -26.5t48 -10.5q24 -1 47.5 6.5t42 24t29.5 42.5t11 62v173q0 36 -11 62t-29.5 43t-42 24.5t-47.5 6.5q-25 -1 -48 -10.5t-41 -27t-29 -42t-11 -56.5v-173z" />
<glyph unicode="&#x649;" horiz-adv-x="1282" d="M67 571l206 82q0 -41 9 -87t32.5 -84t63 -63.5t99.5 -26.5h374q46 0 74.5 16.5t40.5 40.5t9.5 52.5t-19.5 52.5t-47 40t-72 15l-126 -1q-58 -3 -102 7.5t-75 31t-49 48.5t-24 61q-11 59 2 112t42 99.5t70.5 87.5t88 77.5t93.5 67.5t87 58l143 -186q-86 -39 -161.5 -94 t-135.5 -136q39 0 77.5 0.5t77 -1t76 -7.5t74.5 -18q68 -23 114 -64t72 -91.5t32 -107.5t-6.5 -113t-41.5 -107t-74 -90t-104.5 -62t-132.5 -23h-445q-95 2 -160 35t-105.5 89t-58.5 130t-18 159z" />
<glyph unicode="&#x64a;" horiz-adv-x="1282" d="M67 571l206 82q0 -41 9 -87t32.5 -84t63 -63.5t99.5 -26.5h374q46 0 74.5 16.5t40.5 40.5t9.5 52.5t-19.5 52.5t-47 40t-72 15l-126 -1q-58 -3 -102 7.5t-75 31t-49 48.5t-24 61q-11 59 2 112t42 99.5t70.5 87.5t88 77.5t93.5 67.5t87 58l143 -186q-86 -39 -161.5 -94 t-135.5 -136q39 0 77.5 0.5t77 -1t76 -7.5t74.5 -18q68 -23 114 -64t72 -91.5t32 -107.5t-6.5 -113t-41.5 -107t-74 -90t-104.5 -62t-132.5 -23h-445q-95 2 -160 35t-105.5 89t-58.5 130t-18 159zM298 -134l168 167l140 -140l140 140l167 -167l-167 -168l-140 139l-140 -139 z" />
<glyph unicode="&#x64b;" horiz-adv-x="408" d="M49 1482l17 91l340 193l-17 -91zM63 1649l17 91l340 193l-17 -91z" />
<glyph unicode="&#x64c;" horiz-adv-x="469" d="M45 1619q19 27 44.5 43.5t50.5 22t47 -1t34 -24.5t10.5 -48t-23.5 -72q46 20 85.5 44t71.5 62q-41 10 -60.5 31.5t-22 47.5t8 53t30 49.5t44 36t49.5 12.5q21 -2 28 -24.5t6.5 -51t-6 -55.5t-8.5 -37l38 -12l-17 -76l-46 13q-6 -14 -19.5 -33.5t-32 -40t-40.5 -39.5 t-45.5 -31t-47.5 -15t-46 8t-24 31.5t3 42t10.5 42t-2 32t-34.5 10.5t-86 -20zM334 1773q-2 -11 3 -19t14 -14t20.5 -11.5t24.5 -11.5q2 19 2 35q0 14 -2.5 26.5t-7.5 16.5v-2q-10 10 -23 10q-14 1 -22.5 -8.5t-8.5 -21.5z" />
<glyph unicode="&#x64d;" horiz-adv-x="408" d="M38 -509l17 91l340 193l-17 -91zM65 -341l17 91l340 193l-17 -91z" />
<glyph unicode="&#x64e;" horiz-adv-x="408" d="M49 1482l17 91l340 193l-17 -91z" />
<glyph unicode="&#x64f;" horiz-adv-x="414" d="M13 1507q61 25 105.5 43t79 36t62.5 39.5t56 54.5q-47 11 -69 34t-25.5 51t9 57.5t34 53.5t49.5 38.5t56 13.5q16 -1 25 -12.5t12.5 -29t2.5 -39t-3.5 -41.5t-6.5 -36.5t-7 -24.5l44 -13l-19 -80l-52 12q-11 -23 -37.5 -52.5t-62.5 -55t-78.5 -42.5t-85.5 -15 q-29 2 -47.5 3t-28.5 2t-12.5 1.5t-0.5 1.5zM279 1818q-2 -25 20 -37t51 -23q2 20 2 38q0 15 -2 28.5t-9 18.5v-2q-5 6 -12 8t-12 2q-17 2 -27 -8.5t-11 -24.5z" />
<glyph unicode="&#x650;" horiz-adv-x="408" d="M55 -341l17 91l340 193l-17 -91z" />
<glyph unicode="&#x651;" horiz-adv-x="425" d="M59.5 1603.5q-1.5 27.5 2 53.5t10.5 47.5t14 31.5q0 -3 5 1t11.5 9t11.5 8.5t5 0.5q-8 -20 -13.5 -46.5t-3 -50t14 -39.5t37.5 -15q29 0 44.5 16t23.5 37.5t12.5 44.5t12.5 38q1 -3 5 0t9 7.5t9.5 8t5.5 0.5q-8 -29 -2.5 -54t19.5 -40t35.5 -18t46.5 14q6 9 5.5 22 t-4.5 26.5t-11 27t-14 23.5q13 18 24.5 34t22.5 32q11 -17 17.5 -36t11.5 -38q6 -33 3 -67t-15 -62t-33 -45.5t-51 -17.5q-25 0 -37.5 9t-27.5 23q-6 -10 -15 -23t-22 -25t-31 -21t-40 -11q-35 -3 -56 10t-31 35t-11.5 49.5z" />
<glyph unicode="&#x652;" horiz-adv-x="328" d="M59 1556q-5 33 3.5 75.5t27 81.5t46 67t59.5 33q28 4 54 -6.5t46.5 -28.5t34.5 -40.5t17 -41.5q5 -34 -10 -71.5t-41 -87.5v1q0 1 1 2l-3 -5q-24 -14 -61.5 -26.5t-74 -15t-65 11t-34.5 51.5zM123 1643q3 -22 21 -32.5t42 -11t50 6.5t46 21l1 1q-3 14 -13.5 30t-25 29.5 t-31.5 22t-35 5.5q-30 -5 -44 -27t-11 -45zM294 1535q1 0 1 1q0 -1 -1 -1zM295 1536l1 1q0 -1 -1 -1z" />
<glyph unicode="&#x660;" horiz-adv-x="1149" d="M396 575l94 328l263 -162l-94 -323z" />
<glyph unicode="&#x661;" horiz-adv-x="1149" d="M378 1030l101 305q50 -65 92.5 -147.5t77 -176t61 -194t44.5 -201t28 -197.5t11 -183l-82 -171q-57 281 -139.5 520t-193.5 445z" />
<glyph unicode="&#x662;" horiz-adv-x="1149" d="M233 1121q-1 4 5.5 18t17 33.5t23.5 42t26 43.5t24.5 38.5t18.5 26.5q47 -60 92.5 -106.5t90 -74t87 -34t83 13.5t78 69.5t72.5 132.5h52q8 0 10.5 -27.5t2.5 -65.5q0 -96 -21.5 -171t-61 -129.5t-95.5 -89.5t-126 -51q36 -91 63 -191.5t44 -194.5t21.5 -173.5 t-4.5 -128.5l-65 -32q-88 264 -198 524.5t-240 526.5z" />
<glyph unicode="&#x663;" horiz-adv-x="1149" d="M97 1070q0 3 7.5 16t19.5 32.5t27 42l29 43.5t26.5 39t20.5 27q37 -48 68 -92.5t64 -71t74 -28t98 36.5q32 21 63 55.5t56.5 67t44 56.5t24.5 24q14 0 20 -7t11 -19q14 -90 23 -106q7 -14 24.5 -23.5t40 -16.5t47 -10t45.5 -3l76 163l64 -22l-181 -431q-9 0 -24 3 t-34 7.5t-39.5 10.5t-41.5 12q-48 15 -103 34q-21 -18 -48.5 -36.5t-57.5 -36t-60 -33.5t-56 -28l125 -645l-91 -66z" />
<glyph unicode="&#x664;" horiz-adv-x="1149" d="M282 246q-6 3 0.5 28.5t22 63.5t38.5 84.5t50 91.5t56.5 84.5t57.5 64.5q-20 22 -49.5 44t-61 45t-59.5 47t-45 51q0 48 16 101.5t45 106t68 101.5t85 89.5t97 70t103 41.5q-9 -60 -17 -112.5t-17 -111.5q-30 -6 -61.5 -16t-57 -22.5t-42 -27t-16.5 -29.5q0 -18 17 -40.5 t48 -50.5t73.5 -63t92.5 -78q-63 -85 -107 -144.5t-71.5 -100t-42 -65.5t-18.5 -43q32 -20 72.5 -36t87.5 -30t100 -28t110 -30l-84 -257q-80 23 -148 42t-127.5 38.5t-112.5 41t-103 49.5z" />
<glyph unicode="&#x665;" horiz-adv-x="1149" d="M228 528q0 42 14 107t39 138t60 147t77 133.5t90 96.5t99 37q28 0 63.5 -22t72 -57t70.5 -79t60 -88.5t40.5 -85t10.5 -67.5q4 -25 2.5 -73.5t-15 -107t-41.5 -120t-77.5 -112t-123 -83t-177.5 -32.5q-264 0 -264 268zM380 668q0 -43 24.5 -71t63.5 -43t86.5 -18 t93.5 4.5t84.5 24.5t59.5 43q-75 153 -151 226t-151 74q-18 -17 -37.5 -48t-35.5 -65.5t-26.5 -68.5t-10.5 -58z" />
<glyph unicode="&#x666;" horiz-adv-x="1149" d="M186 991l52 261l563 -78q0 -21 -5.5 -63.5t-12.5 -89t-12.5 -89t-6.5 -63.5q-4 -83 0 -143.5t14.5 -106t27 -80t39 -65t49.5 -61t59 -68.5l-80 -275q-59 23 -100 70.5t-67.5 113.5t-40 146t-16 168.5t4 181.5t19.5 184z" />
<glyph unicode="&#x667;" horiz-adv-x="1149" d="M126 1000l104 246l381 -825l392 857l29 -254l-449 -989z" />
<glyph unicode="&#x668;" horiz-adv-x="1149" d="M121 302l448 944l458 -919l-104 -247l-382 780l-391 -811z" />
<glyph unicode="&#x669;" horiz-adv-x="1149" d="M211 843q0 35 14 87t38.5 109.5t57.5 115t71.5 103.5t80 74.5t82.5 28.5q31 0 51.5 -14.5t39.5 -54t40.5 -110.5t54.5 -183.5t82 -273t123 -379.5l-84 -315l-212 587q-95 -23 -164 -26t-118 9t-79.5 36.5t-47.5 57t-23.5 70.5t-6.5 78zM368 943q2 -29 15.5 -45t33.5 -24 t44 -9.5t47.5 0t44.5 4t35 2.5q-12 60 -19 102t-15 69t-20 39.5t-34 12.5q-16 0 -34.5 -12t-36.5 -33t-34.5 -48.5t-26.5 -57.5z" />
<glyph unicode="&#x66a;" horiz-adv-x="829" d="M-68 1126l167 168l169 -168l-169 -167zM62 -72l418 1391l239 127l-419 -1391zM489 301l167 168l169 -168l-169 -167z" />
<glyph unicode="&#x66d;" horiz-adv-x="815" d="M71 1074v68l214 18l-139 162l47 49l164 -139l17 213h68l17 -213l163 139l49 -49l-140 -162l214 -18v-68l-214 -17l140 -163l-49 -48l-163 139l-17 -214h-68l-17 214l-164 -139l-47 48l139 163z" />
<glyph unicode="&#x6f9;" horiz-adv-x="1033" d="M93 175v934h934v-934h-934zM223 304h675v675h-675v-675z" />
<glyph unicode="&#x2000;" horiz-adv-x="1067" />
<glyph unicode="&#x2001;" horiz-adv-x="2134" />
<glyph unicode="&#x2002;" horiz-adv-x="1067" />
<glyph unicode="&#x2003;" horiz-adv-x="2134" />
<glyph unicode="&#x2004;" horiz-adv-x="711" />
<glyph unicode="&#x2005;" horiz-adv-x="533" />
<glyph unicode="&#x2006;" horiz-adv-x="355" />
<glyph unicode="&#x2007;" horiz-adv-x="355" />
<glyph unicode="&#x2008;" horiz-adv-x="266" />
<glyph unicode="&#x2009;" horiz-adv-x="426" />
<glyph unicode="&#x200a;" horiz-adv-x="118" />
<glyph unicode="&#x200c;" horiz-adv-x="45" d="M10 -80v1631h25v-1631h-25z" />
<glyph unicode="&#x200d;" horiz-adv-x="45" d="M-102 1427l109 109l-109 108l16 16l109 -108l109 108l16 -16l-109 -108l109 -109l-16 -16l-97 96v-1587h-25v1586l-96 -95z" />
<glyph unicode="&#x200e;" horiz-adv-x="45" d="M8 -80v1631h234l-93 93l17 17l125 -124q-32 -33 -62.5 -63.5l-62.5 -62.5l-17 17l97 97h-213v-1605h-25z" />
<glyph unicode="&#x200f;" horiz-adv-x="45" d="M-246 1537l125 124l17 -17l-93 -93h234v-1631h-25v1605h-213l97 -97l-17 -17q-32 32 -62.5 63t-62.5 63z" />
<glyph unicode="&#x2010;" horiz-adv-x="593" d="M48 532v235h497v-235h-497z" />
<glyph unicode="&#x2011;" horiz-adv-x="593" d="M48 532v235h497v-235h-497z" />
<glyph unicode="&#x2012;" horiz-adv-x="593" d="M48 532v235h497v-235h-497z" />
<glyph unicode="&#x2013;" d="M0 553v192h990v-192h-990z" />
<glyph unicode="&#x2014;" horiz-adv-x="1782" d="M0 553v192h1782v-192h-1782z" />
<glyph unicode="&#x2018;" horiz-adv-x="381" d="M70 1443l171 95l63 -485l-119 -113z" />
<glyph unicode="&#x2019;" horiz-adv-x="381" d="M69 1053l62 485l172 -95l-116 -503z" />
<glyph unicode="&#x201a;" horiz-adv-x="495" d="M123 150v113v113h125h124v-169q0 -134 -59.5 -210.5t-183.5 -102.5v90q79 24 107 72q18 33 24 94h-63h-74z" />
<glyph unicode="&#x201c;" horiz-adv-x="620" d="M70 1443l171 95l63 -485l-119 -113zM314 1443l171 95l63 -485l-118 -113z" />
<glyph unicode="&#x201d;" horiz-adv-x="620" d="M70 1053l62 485l172 -95l-116 -503zM314 1053l63 485l171 -95l-116 -503z" />
<glyph unicode="&#x2022;" horiz-adv-x="613" d="M-1 515q0 129 88 217t216 88q127 0 215 -88t88 -217q0 -127 -88 -214.5t-215 -87.5q-128 0 -216 87.5t-88 214.5z" />
<glyph unicode="&#x202f;" horiz-adv-x="426" />
<glyph unicode="&#x205f;" horiz-adv-x="533" />
<glyph unicode="&#x2122;" horiz-adv-x="1484" d="M211 1349v69h393v-69h-150v-399h-94v399h-149zM707 950v468h131l131 -334l123 334h130v-468h-85v387l-144 -387h-49l-151 387v-387h-86z" />
<glyph unicode="&#xe000;" horiz-adv-x="1095" d="M0 0v1095h1095v-1095h-1095z" />
<glyph unicode="&#xe820;" horiz-adv-x="408" d="M61 1032l17 91l340 193l-17 -91z" />
<glyph unicode="&#xe821;" horiz-adv-x="414" d="M-7 1047q61 25 105.5 43t79 36t62.5 39.5t56 54.5q-47 11 -69 34t-25.5 51t9 57.5t34 53.5t49.5 38.5t56 13.5q16 -1 25 -12.5t12.5 -29t2.5 -39t-3.5 -41.5t-6.5 -36.5t-7 -24.5l44 -13l-19 -80l-52 12q-11 -23 -37.5 -52.5t-62.5 -55t-78.5 -42.5t-85.5 -15 q-29 2 -47.5 3t-28.5 2t-12.5 1.5t-0.5 1.5zM259 1358q-2 -25 20 -37t51 -23q2 20 2 38q0 15 -2 28.5t-9 18.5v-2q-5 6 -12 8t-12 2q-17 2 -27 -8.5t-11 -24.5z" />
<glyph unicode="&#xe822;" horiz-adv-x="328" d="M56 1109q-5 33 3.5 75.5t27 81.5t46 67t59.5 33q28 4 54 -6.5t46.5 -28.5t34.5 -40.5t17 -41.5q5 -34 -10 -71.5t-41 -87.5v1q0 1 1 2l-3 -5q-24 -14 -61.5 -26.5t-74 -15t-65 11t-34.5 51.5zM120 1196q3 -22 21 -32.5t42 -11t50 6.5t46 21l1 1q-3 14 -13.5 30t-25 29.5 t-31.5 22t-35 5.5q-30 -5 -44 -27t-11 -45zM291 1088q1 0 1 1q0 -1 -1 -1zM292 1089l1 1q0 -1 -1 -1z" />
<glyph unicode="&#xe823;" horiz-adv-x="408" d="M51 1029l17 91l340 193l-17 -91zM65 1196l17 91l340 193l-17 -91z" />
<glyph unicode="&#xe824;" horiz-adv-x="469" d="M44 1194q19 27 44.5 43.5t50.5 22t47 -1t34 -24.5t10.5 -48t-23.5 -72q46 20 85.5 44t71.5 62q-41 10 -60.5 31.5t-22 47.5t8 53t30 49.5t44 36t49.5 12.5q21 -2 28 -24.5t6.5 -51t-6 -55.5t-8.5 -37l38 -12l-17 -76l-46 13q-6 -14 -19.5 -33.5t-32 -40t-40.5 -39.5 t-45.5 -31t-47.5 -15t-46 8t-24 31.5t3 42t10.5 42t-2 32t-34.5 10.5t-86 -20zM333 1348q-2 -11 3 -19t14 -14t20.5 -11.5t24.5 -11.5q2 19 2 35q0 14 -2.5 26.5t-7.5 16.5v-2q-10 10 -23 10q-14 1 -22.5 -8.5t-8.5 -21.5z" />
<glyph unicode="&#xe825;" horiz-adv-x="425" d="M57.5 1144.5q-1.5 27.5 2 53.5t10.5 47.5t14 31.5q0 -3 5 1t11.5 9t11.5 8.5t5 0.5q-8 -20 -13.5 -46.5t-3 -50t14 -39.5t37.5 -15q29 0 44.5 16t23.5 37.5t12.5 44.5t12.5 38q1 -3 5 0t9 7.5t9.5 8t5.5 0.5q-8 -29 -2.5 -54t19.5 -40t35.5 -18t46.5 14q6 9 5.5 22 t-4.5 26.5t-11 27t-14 23.5q13 18 24.5 34t22.5 32q11 -17 17.5 -36t11.5 -38q6 -33 3 -67t-15 -62t-33 -45.5t-51 -17.5q-25 0 -37.5 9t-27.5 23q-6 -10 -15 -23t-22 -25t-31 -21t-40 -11q-35 -3 -56 10t-31 35t-11.5 49.5z" />
<glyph unicode="&#xe826;" horiz-adv-x="408" d="M55 -341l17 91l340 193l-17 -91z" />
<glyph unicode="&#xe827;" horiz-adv-x="408" d="M38 -509l17 91l340 193l-17 -91zM65 -341l17 91l340 193l-17 -91z" />
<glyph unicode="&#xe828;" horiz-adv-x="425" d="M60 1259l17 91l340 193l-17 -91zM65 1140q0 21 4.5 39.5t9.5 29.5q0 -3 4.5 1.5t9.5 10.5t10 10.5t5 1.5q-5 -21 -7 -40t2 -32.5t17 -19t38 -0.5q28 5 41 23t17.5 40.5t5.5 46t6 39.5q1 -3 4.5 1t7.5 9t8 9.5t6 1.5q-3 -30 6.5 -54t26 -36.5t38 -11.5t42.5 21q4 10 2 23 t-8.5 25.5t-15.5 24.5t-18 21q5 10 14.5 15.5t20 10t20 9.5t15.5 13q5 -8 5.5 -12.5t-0.5 -8.5t-1.5 -8.5t3.5 -13.5q12 -32 14.5 -66t-5 -63.5t-25.5 -50.5t-47 -26q-25 -4 -39 3t-31 18q-4 -11 -10.5 -25.5t-18 -28.5t-27 -25.5t-37.5 -16.5q-34 -9 -56 -3.5t-35 20 t-17.5 35t-4.5 40.5z" />
<glyph unicode="&#xe829;" horiz-adv-x="425" d="M11 1347q60 20 103 34t77 28t61.5 31t54.5 43q-46 8 -67.5 26.5t-25 40.5t8.5 45t33 42t48.5 30.5t55.5 10.5q23 -1 31 -20t7.5 -43.5t-6.5 -47.5t-10 -33l43 -10l-19 -63l-50 10q-11 -18 -37 -41t-61.5 -43.5t-76.5 -34t-83 -11.5q-57 4 -75 4q-17 0 -12 2zM72.5 1188.5 q-0.5 26.5 3.5 48.5t9 33q0 -3 5 1.5t10.5 10.5t10 10t4.5 1q-5 -21 -6.5 -47.5t4 -49.5t19.5 -37.5t40 -9.5q28 5 41 23t18 40.5t6.5 45.5t6.5 39q1 -3 4.5 1t8 9t8 9.5t5.5 1.5q-3 -30 6 -54t25.5 -37t38 -12.5t43.5 20.5q4 10 2 23t-8.5 26t-15 25t-17.5 21 q11 20 19.5 37.5t17.5 34.5q13 -15 22.5 -33t17.5 -36q11 -32 13 -66t-6 -63.5t-26.5 -50t-47.5 -24.5q-25 -4 -38.5 3t-30.5 19q-4 -11 -11 -25t-18.5 -28t-27.5 -25.5t-38 -16.5q-34 -8 -56.5 1.5t-36 29.5t-19 47.5t-6 54zM271 1592q-2 -20 19 -29.5t50 -17.5q2 16 2 30 q0 11 -2 22t-9 14v-1q-5 5 -11.5 6.5t-11.5 1.5q-17 1 -26.5 -7t-10.5 -19z" />
<glyph unicode="&#xe82a;" horiz-adv-x="425" d="M70 1154q0 29 22 101l23 4q0 -111 39 -111q29 0 57.5 48t32.5 114l19 6q24 -98 61 -98q24 0 44 42.5t20 104.5l22 11q15 -51 15 -99q0 -76 -29.5 -121t-75.5 -45q-21 0 -64 21q-38 -87 -108 -87q-78 0 -78 109zM74 1283q0 45 12 65q12 17 54 42l272 160q0 -47 -8 -64.5 t-41 -36.5zM74 1433q0 45 12 65t54 44l272 159q0 -47 -8 -65t-41 -37z" />
<glyph unicode="&#xe82b;" horiz-adv-x="468" d="M40 1475q20 23 46.5 37.5t53 18.5t49.5 -1.5t35.5 -20.5t11 -40.5t-24.5 -61.5q48 17 89.5 38t75.5 53q-43 9 -63 27t-23.5 40t8 45t31.5 41.5t46 30t52 10.5q22 -2 29.5 -21t7 -43t-6 -46.5t-9.5 -31.5l40 -10l-18 -65l-48 11q-7 -12 -21 -28.5t-33 -34t-42 -33t-48 -26 t-50 -13t-48 6.5q-23 10 -25 27t3 36t11 36t-2 26.5t-36 9t-91 -17.5zM84.5 1190.5q-0.5 26.5 3.5 48.5t9 33q0 -3 5 1.5t10.5 10.5t10 10t4.5 1q-5 -21 -6.5 -47.5t4 -49.5t19.5 -37.5t40 -9.5q28 5 41 23t18 40.5t6.5 45.5t6.5 39q1 -3 4.5 1t8 9t8 9.5t5.5 1.5 q-3 -30 6 -54t25.5 -37t38 -12.5t43.5 20.5q4 10 2 23t-8.5 26t-15 25t-17.5 21q11 20 19.5 37.5t17.5 34.5q13 -15 22.5 -33t17.5 -36q11 -32 13 -66t-6 -63.5t-26.5 -50t-47.5 -24.5q-25 -4 -38.5 3t-30.5 19q-4 -11 -11 -25t-18.5 -28t-27.5 -25.5t-38 -16.5 q-34 -8 -56.5 1.5t-36 29.5t-19 47.5t-6 54zM343 1606q-2 -10 3.5 -16.5t14.5 -11.5t21.5 -9.5t25.5 -9.5q2 17 2 30q0 11 -2 21.5t-8 14.5v-2q-5 5 -12 6.5t-12 1.5q-14 1 -23.5 -7t-9.5 -18z" />
<glyph unicode="&#xe82c;" horiz-adv-x="425" d="M61.5 1400.5q0.5 26.5 4.5 49t10 32.5q0 -3 4.5 1.5l10.5 10.5t10.5 10t4.5 1q-6 -21 -8 -48t3 -50t18.5 -37.5t39.5 -10.5q29 4 42.5 21t19 39.5t7 46t7.5 39.5q1 -3 5 0.5t8.5 9t8 9.5t5.5 1q-4 -29 4 -53.5t24 -38t37 -13.5q22 0 45 20q5 10 3 22.5t-8 25.5 t-14.5 25.5t-16.5 21.5q11 20 20 37t19 34q12 -15 21.5 -33.5t16.5 -36.5q10 -32 11 -66t-7.5 -63t-27.5 -49t-48 -24q-25 -3 -38.5 4t-30.5 20q-4 -11 -11.5 -25t-19 -27.5t-28 -24.5t-38.5 -16q-34 -7 -56.5 3t-35 31t-17.5 48t-4.5 53.5zM72 1031l17 91l340 193l-17 -91z " />
<glyph unicode="&#xe82d;" horiz-adv-x="425" d="M35 1007l33 75l350 141l-33 -75zM45 1112l33 75l350 141l-33 -75zM60.5 1413.5q0.5 26.5 5 49t9.5 32.5q0 -3 4.5 1.5l10.5 10.5t10.5 10t4.5 1q-6 -21 -8 -48t3 -50t18.5 -37.5t39.5 -10.5q29 4 42.5 21t19 39.5t7 46t7.5 39.5q1 -3 5 0.5t8.5 9t8 9.5t5.5 1 q-4 -29 4 -53.5t24 -38t37 -13.5q22 0 45 20q5 10 3 22.5t-8 25.5t-14.5 25.5t-16.5 21.5q11 20 20 37t19 34q12 -15 21.5 -33.5t16.5 -36.5q10 -32 11 -66t-7.5 -63t-27.5 -49t-48 -24q-25 -3 -38.5 4t-30.5 20q-4 -11 -11.5 -25t-19 -27.5t-28 -24.5t-38.5 -16 q-34 -7 -56.5 3t-35 31t-17.5 48t-4.5 53.5z" />
<glyph unicode="&#xe832;" horiz-adv-x="408" d="M10 1222q5 23 8 38.5t7 38.5q99 52 191.5 101.5t191.5 102.5l-14 -77q-97 -51 -192 -101.5t-192 -102.5z" />
<glyph unicode="&#xe833;" horiz-adv-x="408" d="M5 967q5 23 8 38.5t7 38.5q99 52 191.5 101.5t191.5 102.5l-14 -77q-97 -51 -192 -101.5t-192 -102.5z" />
<glyph unicode="&#xe834;" horiz-adv-x="566" d="M-32 1437q-5 35 4 80.5t28.5 86.5t48 71.5t62.5 35.5q28 4 55 -6.5t48.5 -29.5t36 -42.5t17.5 -44.5q6 -33 -11 -74t-44 -93q-14 -8 -32.5 -16t-39.5 -15t-43 -11t-42 -4q-32 0 -57.5 14t-30.5 48zM20 1531q5 -30 29.5 -43.5t56.5 -13.5l112 38q-4 17 -17 37.5t-31 38 t-39 27.5t-42 7q-19 -3 -33 -12.5t-23 -22t-12 -27.5t-1 -29z" />
<glyph unicode="&#xe835;" horiz-adv-x="420" d="M26.5 1068.5q-1.5 27.5 2 53.5t10.5 47.5t14 31.5q0 -3 5 1t11.5 9t11.5 8.5t5 0.5q-8 -20 -13.5 -46.5t-3 -50t14 -39.5t37.5 -15q29 0 44.5 16t23.5 37.5t12.5 44.5t12.5 38q1 -3 5 0t9 7.5t9.5 8t5.5 0.5q-8 -29 -2.5 -54t19.5 -40t35.5 -18t46.5 14q6 9 5.5 22 t-4.5 26.5t-11 27t-14 23.5q13 18 24.5 34t22.5 32q11 -17 17.5 -36t11.5 -38q6 -33 3 -67t-15 -62t-33 -45.5t-51 -17.5q-25 0 -37.5 9t-27.5 23q-6 -10 -15 -23t-22 -25t-31 -21t-40 -11q-35 -3 -56 10t-31 35t-11.5 49.5z" />
<glyph unicode="&#xe836;" horiz-adv-x="381" d="M-41.5 1495.5q-1.5 27.5 2 53.5t10.5 47.5t14 31.5q0 -3 5 1t11.5 9t11.5 8.5t5 0.5q-8 -20 -13.5 -46.5t-3 -50t14 -39.5t37.5 -15q29 0 44.5 16t23.5 37.5t12.5 44.5t12.5 38q1 -3 5 0t9 7.5t9.5 8t5.5 0.5q-8 -29 -2.5 -54t19.5 -40t35.5 -18t46.5 14q6 9 5.5 22 t-4.5 26.5t-11 27t-14 23.5q13 18 24.5 34t22.5 32q11 -17 17.5 -36t11.5 -38q6 -33 3 -67t-15 -62t-33 -45.5t-51 -17.5q-25 0 -37.5 9t-27.5 23q-6 -10 -15 -23t-22 -25t-31 -21t-40 -11q-35 -3 -56 10t-31 35t-11.5 49.5z" />
<glyph unicode="&#xfd3e;" horiz-adv-x="750" d="M200 -50v1950h350v-150h-200v-1650h200v-150h-350z" />
<glyph unicode="&#xfd3f;" horiz-adv-x="750" d="M194 -50v150h200v1650h-200v150h350v-1950h-350z" />
<glyph unicode="&#xfeff;" horiz-adv-x="744" />
</font>
</defs>
</svg>
