<svg xmlns="http://www.w3.org/2000/svg" class="iconic iconic-circle-check" width="128" height="128" viewBox="0 0 128 128">
  <g class="iconic-metadata">
    <title>Circle Check</title>
  </g>
  <defs>
    <clipPath id="iconic-size-lg-circle-check-clip-0">
      <path d="M0 0v128h128v-128h-128zm54.196 92.201l-23.853-23.853 5.657-5.657 17.891 17.891 39.813-44.23 5.946 5.352-45.453 50.498z" />
    </clipPath>
    <clipPath id="iconic-size-md-circle-check-clip-0">
      <path d="M0 0v32h32v-32h-32zm13.052 24.173l-6.173-6.173 2.121-2.121 3.948 3.948 9.951-10.946 2.22 2.018-12.067 13.274z" />
    </clipPath>
    <clipPath id="iconic-size-sm-circle-check-clip-0">
      <path d="M0 0v16h16v-16h-16zm7 11.414l-3.414-3.414 1.414-1.414 2 2 4-4 1.414 1.414-5.414 5.414z" />
    </clipPath>
  </defs>
  <g class="iconic-circle-check-lg iconic-container iconic-lg" data-width="128" data-height="128" display="inline">
    <circle cx="64" cy="64" r="64" clip-path="url(#iconic-size-lg-circle-check-clip-0)" class="iconic-circle-check-body iconic-property-fill" />
  </g>
  <g class="iconic-circle-check-md iconic-container iconic-md" data-width="32" data-height="32" display="none" transform="scale(4)">
    <circle cx="16" cy="16" r="16" clip-path="url(#iconic-size-md-circle-check-clip-0)" class="iconic-circle-check-body iconic-property-fill" />
  </g>
  <g class="iconic-circle-check-sm iconic-container iconic-sm" data-width="16" data-height="16" display="none" transform="scale(8)">
    <circle cx="8" cy="8" r="8" clip-path="url(#iconic-size-sm-circle-check-clip-0)" class="iconic-circle-check-body iconic-property-fill" />
  </g>
</svg>