<?xml version="1.0" standalone="no"?>
<!DOCTYPE svg PUBLIC "-//W3C//DTD SVG 1.1//EN" "http://www.w3.org/Graphics/SVG/1.1/DTD/svg11.dtd" >
<svg xmlns="http://www.w3.org/2000/svg">
<metadata></metadata>
<defs>
<font id="splart-h-qertajj2regular" horiz-adv-x="927" >
<font-face units-per-em="2048" ascent="1638" descent="-410" />
<missing-glyph horiz-adv-x="500" />
<glyph unicode="&#xfedf;&#xfee4;&#xfea0;" horiz-adv-x="1810" d="M-26 2l1 150h493l-296 194q-56 54 -56 100v12q0 20 184 244h12v-4l-16 -56q-30 -112 114 -210l50 -36h331q-39 134 -39 204q0 59 434 266q11 -14 131 -474h283v96q0 413 -54 692l133 154q34 0 40 -239.5t3 -441t78 -411.5h-529v2l-600 1l373 -267v-4l-108 -144l-14 20 l-6 12l-192 140h-750zM116 -194l128 132l152 -160l-120 -128zM966 613q0 -103 90 -217h52l-65 269h-6q-71 -40 -71 -52z" />
<glyph unicode="&#xfedf;&#xfee0;&#xfeea;" horiz-adv-x="1159" />
<glyph unicode="&#x651;&#x64b;" horiz-adv-x="502" d="M70 1538q0 30 11 66l11 35l23 4q0 -58 9 -84.5t30 -26.5q32 0 53.5 37.5t36.5 124.5l18 6q12 -55 25.5 -76.5t32.5 -21.5q67 0 67 147l23 10l11 -53l3 -43q0 -78 -27.5 -123t-76.5 -45q-22 0 -34 4.5t-30 16.5q-6 -33 -38 -59.5t-66 -26.5q-36 0 -59 30t-23 78zM74 1682 q0 38 11.5 56.5t54.5 44.5l272 157q0 -66 -35 -86zM74 1828q0 38 11.5 56.5t54.5 44.5l272 157q0 -66 -35 -86z" />
<glyph unicode="&#xfe91;&#xfee2;" horiz-adv-x="1591" arabic-form="isolated" d="M-340 -414q98 56 508 172q376 101 376 192q0 34 -7 51h-6l-9 16l-1 2l-72 133q-39 134 -39 204q0 59 434 266q11 -14 130 -470l331 2q-77 69 -132 228q-7 0 -16 40q168 184 168 192h4q7 0 24 -120q69 -286 248 -488v-4l-411 -3v-1h-245v2l-228 1q-50 -78 -229 -203 l-312 -196q-254 -68 -516 -20v4zM624 369q0 -103 90 -217h52l-65 269h-6q-71 -40 -71 -52zM1039 -193l128 132l152 -160l-120 -128z" />
<glyph unicode="&#xfe97;&#xfee2;" horiz-adv-x="1525" arabic-form="isolated" d="M-413 -414q98 56 508 172q376 101 376 192q0 34 -7 51h-6l-9 16l-1 2l-72 133q-39 134 -39 204q0 59 434 266q11 -14 130 -470l331 2q-77 69 -132 228q-7 0 -16 40q168 184 168 192h4q7 0 24 -120q69 -286 248 -488v-4l-411 -3v-1h-245v2l-228 1q-50 -78 -229 -203 l-312 -196q-254 -68 -516 -20v4zM551 369q0 -103 90 -217h52l-65 269h-6q-71 -40 -71 -52zM896 922l128 132l109 -115l111 115l152 -160l-120 -128l-115 112l-105 -112z" />
<glyph unicode="&#xfed3;&#xfef2;" horiz-adv-x="2153" arabic-form="isolated" d="M58 -310q204 24 492 20h180q91 0 308 164l12 20v4q-16 21 -256 224l-4 28v28q0 50 156 228q58 68 88 68q108 -29 356 -264q57 -44 122 -58h239q-101 102 -174 128q-32 44 -32 72v24q0 29 156 164q216 204 242 204l4 -4v-4q-38 -34 -38 -72t160 -316q84 -171 84 -208v-12 q0 -73 -140 -140l-32 -8l-72 20l-454 2h-97q-24 0 -280 232q-32 44 -76 44q-18 -8 -20 -16v-16q21 -59 224 -240l16 -36v-12q0 -64 -256 -212q-271 -178 -380 -200l-60 -4q-167 0 -468 136v12zM255 -680l128 132l109 -114l111 114l152 -160l-120 -128l-115 113l-105 -113z M1668 926l128 132l152 -160l-120 -128zM1745 400q87 -100 196 -188l16 12q-126 179 -180 240q-32 -31 -32 -48v-16z" />
<glyph unicode="&#xfedf;&#xfe9e;" horiz-adv-x="1163" arabic-form="isolated" d="M195 452v12q0 20 184 244h12v-4l-16 -56q-30 -112 114 -210l70 -50h408v96q0 413 -54 692l133 154q34 0 40 -239.5t3 -441t78 -411.5l-401 2l357 -256v-4l-108 -144l-14 20l-6 12l-64 47q-185 78 -354 78h-31q-119 0 -216 -105l-19 -49q0 -194 532 -347h25v-12l-223 -12 q-290 0 -377 216q-37 79 -37 155v25q0 171 254 277q24 13 68 13l-6 4l-296 194q-56 54 -56 100zM551 -194l128 132l152 -160l-120 -128z" />
<glyph unicode="&#xfedf;&#xfea2;" horiz-adv-x="1172" arabic-form="isolated" d="M197 452v12q0 20 184 244h12v-4l-16 -56q-30 -112 114 -210l70 -50h408v96q0 413 -54 692l133 154q34 0 40 -239.5t3 -441t78 -411.5l-401 2l357 -256v-4l-108 -144l-14 20l-6 12l-64 47q-185 78 -354 78h-31q-119 0 -216 -105l-19 -49q0 -194 532 -347h25v-12l-223 -12 q-290 0 -377 216q-37 79 -37 155v25q0 171 254 277q24 13 68 13l-6 4l-296 194q-56 54 -56 100z" />
<glyph unicode="&#xfedf;&#xfea6;" horiz-adv-x="1156" arabic-form="isolated" d="M181 452v12q0 20 184 244h12v-4l-16 -56q-30 -112 114 -210l70 -50h408v96q0 413 -54 692l133 154q34 0 40 -239.5t3 -441t78 -411.5l-401 2l357 -256v-4l-108 -144l-14 20l-6 12l-64 47q-185 78 -354 78h-31q-119 0 -216 -105l-19 -49q0 -194 532 -347h25v-12l-223 -12 q-290 0 -377 216q-37 79 -37 155v25q0 171 254 277q24 13 68 13l-6 4l-296 194q-56 54 -56 100zM216 926l128 132l152 -160l-120 -128z" />
<glyph unicode="&#xfedf;&#xfee2;" horiz-adv-x="1298" arabic-form="isolated" d="M-461 -414q98 56 508 172q376 101 376 192q0 34 -7 51h-6l-9 16l-1 2l-72 133q-39 134 -39 204q0 59 434 266q11 -14 130 -470h243v96q0 413 -54 942l133 154q34 0 40 -364.5t3 -566t78 -411.5h-227v-4h-245v2l-228 1q-50 -78 -229 -203l-312 -196q-254 -68 -516 -20v4z M503 369q0 -103 90 -217h52l-65 269h-6q-71 -40 -71 -52z" />
<glyph unicode="&#xfedf;&#xfef0;" horiz-adv-x="1851" arabic-form="isolated" d="M38 -310q204 24 492 20h180q92 0 308 164l12 20v4q-15 21 -256 224l-4 28v28q0 50 156 228q58 68 88 68q109 -29 356 -264q80 -58 242 -58h32v96q0 413 -54 942l133 154q34 0 40 -364.5t3 -566t78 -411.5h-506q-23 0 -280 232q-32 44 -76 44q-18 -8 -20 -16v-16 q21 -59 224 -240l16 -36v-12q0 -64 -256 -212q-271 -178 -380 -200l-60 -4q-167 0 -468 136v12z" />
<glyph unicode="&#xfedf;&#xfef2;" horiz-adv-x="1851" arabic-form="isolated" d="M38 -310q204 24 492 20h180q92 0 308 164l12 20v4q-15 21 -256 224l-4 28v28q0 50 156 228q58 68 88 68q109 -29 356 -264q80 -58 242 -58h32v96q0 413 -54 942l133 154q34 0 40 -364.5t3 -566t78 -411.5h-506q-23 0 -280 232q-32 44 -76 44q-18 -8 -20 -16v-16 q21 -59 224 -240l16 -36v-12q0 -64 -256 -212q-271 -178 -380 -200l-60 -4q-167 0 -468 136v12zM235 -680l128 132l109 -114l111 114l152 -160l-120 -128l-115 113l-105 -113z" />
<glyph unicode="&#xfee7;&#xfee2;" horiz-adv-x="1533" arabic-form="isolated" d="M-399 -414q98 56 508 172q376 101 376 192q0 34 -7 51h-6l-9 16l-1 2l-72 133q-39 134 -39 204q0 59 434 266q11 -14 130 -470l331 2q-77 69 -132 228q-7 0 -16 40q168 184 168 192h4q7 0 24 -120q69 -286 248 -488v-4l-411 -3v-1h-245v2l-228 1q-50 -78 -229 -203 l-312 -196q-254 -68 -516 -20v4zM565 369q0 -103 90 -217h52l-65 269h-6q-71 -40 -71 -52zM943 927l128 132l152 -160l-120 -128z" />
<glyph unicode="&#x651;&#x64c;" horiz-adv-x="480" arabic-form="isolated" d="M26 1874q0 45 24 77.5t60 32.5q33 0 50 -25.5t17 -74.5l-1 -28l-5 -64q39 15 60.5 31t63.5 59q-38 25 -53 46q-13 23 -13 48q0 53 39.5 100t82.5 47q22 0 45 -26t23 -54q0 -31 -11 -59l-22 -55q24 -18 31.5 -32t7.5 -38l-2 -59l-44 25l-48 34q-70 -73 -121 -103.5 t-119 -41.5q14 29 21.5 46t14.5 38.5t7 44.5q0 20 -14.5 37.5t-34.5 17.5q-15 0 -30.5 -21.5t-18.5 -54.5l-8 30zM57 1538q0 30 11 66l11 35l23 4q0 -58 9 -84.5t30 -26.5q32 0 53.5 37.5t36.5 124.5l18 6q12 -55 25.5 -76.5t32.5 -21.5q67 0 67 147l23 10l11 -53l3 -43 q0 -78 -27.5 -123t-76.5 -45q-22 0 -34 4.5t-30 16.5q-6 -33 -38 -59.5t-66 -26.5q-36 0 -59 30t-23 78zM282 2033q0 -21 26 -43l37 -26l3 19l1 20q0 25 -11 39t-30 14q-11 0 -17.5 -6t-8.5 -17z" />
<glyph unicode="&#x651;&#x64d;" horiz-adv-x="538" arabic-form="isolated" d="M29 1815q0 30 11 66l11 35l23 4q0 -58 9 -84.5t30 -26.5q32 0 53.5 37.5t36.5 124.5l18 6q12 -55 25.5 -76.5t32.5 -21.5q67 0 67 147l23 10l11 -53l3 -43q0 -78 -27.5 -123t-76.5 -45q-22 0 -34 4.5t-30 16.5q-6 -33 -38 -59.5t-66 -26.5q-36 0 -59 30t-23 78zM33 1450 q12 40 27 62q14 18 45 30l270 114q-9 -38 -22 -53.5t-44 -30.5zM33 1560q18 44 32.5 62.5t53.5 36.5l256 114q-9 -40 -21 -56t-38 -30z" />
<glyph unicode="&#x651;&#x64e;" horiz-adv-x="618" arabic-form="isolated" d="M119 1528q0 30 11 66l11 35l23 4q0 -58 9 -84.5t30 -26.5q32 0 53.5 37.5t36.5 124.5l18 6q12 -55 25.5 -76.5t32.5 -21.5q67 0 67 147l23 10l11 -53l3 -43q0 -78 -27.5 -123t-76.5 -45q-22 0 -34 4.5t-30 16.5q-6 -33 -38 -59.5t-66 -26.5q-36 0 -59 30t-23 78z M123 1684q0 38 11.5 56.5t54.5 44.5l272 157q0 -66 -35 -86z" />
<glyph unicode="&#x651;&#x64f;" horiz-adv-x="593" arabic-form="isolated" d="M119 1518q0 30 11 66l11 35l23 4q0 -58 9 -84.5t30 -26.5q32 0 53.5 37.5t36.5 124.5l18 6q12 -55 25.5 -76.5t32.5 -21.5q67 0 67 147l23 10l11 -53l3 -43q0 -78 -27.5 -123t-76.5 -45q-22 0 -34 4.5t-30 16.5q-6 -33 -38 -59.5t-66 -26.5q-36 0 -59 30t-23 78z M123 1704q65 35 104 63q32 23 109 93q-34 26 -47.5 45.5t-13.5 44.5q0 45 36 111q18 30 38 43.5t42 13.5q68 0 68 -88q0 -25 -6.5 -51t-24.5 -66l39 -30l-8 -99l-37 23l-43 29q-56 -67 -97 -101q-54 -43 -100 -43q-15 0 -35 5zM326 2012q0 -19 11.5 -32.5t53.5 -42.5 q6 20 6 34q0 23 -16 42t-37 19q-5 0 -13 -6q-3 -3 -5 -14z" />
<glyph unicode="&#x651;&#x650;" horiz-adv-x="538" arabic-form="isolated" d="M29 1736q0 30 11 66l11 35l23 4q0 -58 9 -84.5t30 -26.5q32 0 53.5 37.5t36.5 124.5l18 6q12 -55 25.5 -76.5t32.5 -21.5q67 0 67 147l23 10l11 -53l3 -43q0 -78 -27.5 -123t-76.5 -45q-22 0 -34 4.5t-30 16.5q-6 -33 -38 -59.5t-66 -26.5q-36 0 -59 30t-23 78zM33 1400 q0 38 11.5 56.5t54.5 44.5l272 157q0 -66 -35 -86z" />
<glyph unicode="&#xfe92;&#xfeae;" horiz-adv-x="1407" arabic-form="final" d="M-192 -418q98 56 508 172q376 101 376 192q0 60 -172 148l-352 212q-16 30 -16 52q0 27 80 112l92 112q12 -4 12 -24q-16 -4 -16 -40q6 -64 244 -224q111 -79 190 -143l1 1l293 2q-77 69 -132 228q-7 0 -16 40q168 184 168 192h4q7 0 24 -120q46 -189 140 -342h189v-154 h-564q-52 -83 -225 -204l-312 -196q-254 -68 -516 -20v4zM869 -194l128 132l152 -160l-120 -128z" />
<glyph unicode="&#xfe92;&#xfee6;" horiz-adv-x="2279" arabic-form="final" d="M41 -23l4 4h4q97 -102 203 -135q287 -110 654 -110h127q131 0 215 51q190 83 190 144q0 31 -130 126q-242 167 -414 257q-21 24 -21 51v4q0 51 97 140l88 101q13 0 13 -17l-8 -25v-26q0 -73 93 -126q201 -154 330 -264l418 2q-77 69 -132 228q-7 0 -16 40 q168 184 168 192h4q7 0 24 -120q47 -193 143 -348h194v-154l-624 -3q-60 -92 -311 -223q-305 -189 -452 -203q-254 43 -485 131q-174 76 -304 186q-72 73 -72 97zM683 53q0 11 131 135h4l164 -169l-135 -135q-164 158 -164 169zM1719 -207q0 11 131 135h4l164 -169 l-135 -135q-164 158 -164 169z" />
<glyph unicode="&#xfe92;&#xfef2;" horiz-adv-x="2029" arabic-form="final" d="M36 -310q204 24 492 20h180q92 0 308 164l12 20v4q-15 21 -256 224l-4 28v28q0 50 156 228q58 68 88 68q109 -29 356 -264q65 -50 140 -61l72 -1q15 1 30 4v-5l57 -1l4 4v4q-77 69 -132 228q-7 0 -16 40q168 184 168 192h4q7 0 24 -120q46 -189 140 -342h189v-154h-237 l-1 3l-373 -3v4h-101q-23 0 -280 232q-32 44 -76 44q-18 -8 -20 -16v-16q21 -59 224 -240l16 -36v-12q0 -64 -256 -212q-271 -178 -380 -200l-60 -4q-167 0 -468 136v12zM233 -680l128 132l109 -114l111 114l152 -160l-120 -128l-115 113l-105 -113zM1451 -194l128 132 l152 -160l-120 -128z" />
<glyph unicode="&#xfe98;&#xfeae;" horiz-adv-x="1424" arabic-form="final" d="M-183 -418q98 56 508 172q376 101 376 192q0 60 -172 148l-352 212q-16 30 -16 52q0 27 80 112l92 112q12 -4 12 -24q-16 -4 -16 -40q6 -64 244 -224q111 -79 190 -143l1 1l293 2q-77 69 -132 228q-7 0 -16 40q168 184 168 192h4q7 0 24 -120q46 -189 140 -342h189v-154 h-564q-52 -83 -225 -204l-312 -196q-254 -68 -516 -20v4zM719 922l128 132l109 -115l111 115l152 -160l-120 -128l-115 112l-105 -112z" />
<glyph unicode="&#xfe98;&#xfee6;" horiz-adv-x="2287" arabic-form="final" d="M49 -23l4 4h4q97 -102 203 -135q287 -110 654 -110h127q131 0 215 51q190 83 190 144q0 31 -130 126q-242 167 -414 257q-21 24 -21 51v4q0 51 97 140l88 101q13 0 13 -17l-8 -25v-26q0 -73 93 -126q201 -154 330 -264l418 2q-77 69 -132 228q-7 0 -16 40 q168 184 168 192h4q7 0 24 -120q47 -193 143 -348h194v-154l-633 -3q-51 -92 -302 -223q-305 -189 -452 -203q-254 43 -485 131q-174 76 -304 186q-72 73 -72 97zM691 53q0 11 131 135h4l164 -169l-135 -135q-164 158 -164 169zM1546 926l128 132l109 -114l111 114l152 -160 l-120 -128l-115 113l-105 -113z" />
<glyph unicode="&#xfe98;&#xfef2;" horiz-adv-x="2015" arabic-form="final" d="M30 -310q204 24 492 20h180q92 0 308 164l12 20v4q-15 21 -256 224l-4 28v28q0 50 156 228q58 68 88 68q109 -29 356 -264q65 -50 140 -61l72 -1q15 1 30 4v-5l61 3v4q-77 69 -132 228q-7 0 -16 40q168 184 168 192h4q7 0 24 -120q46 -189 140 -342h189v-154h-237l-1 3 l-373 -3v4h-101q-23 0 -280 232q-32 44 -76 44q-18 -8 -20 -16v-16q21 -59 224 -240l16 -36v-12q0 -64 -256 -212q-271 -178 -380 -200l-60 -4q-167 0 -468 136v12zM227 -680l128 132l109 -114l111 114l152 -160l-120 -128l-115 113l-105 -113zM1232 927l128 132l109 -114 l111 114l152 -160l-120 -128l-115 113l-105 -113z" />
<glyph unicode="&#xfee8;&#xfef2;" horiz-adv-x="2029" arabic-form="final" d="M36 -310q204 24 492 20h180q92 0 308 164l12 20v4q-15 21 -256 224l-4 28v28q0 50 156 228q58 68 88 68q109 -29 356 -264q65 -50 140 -61l72 -1q15 1 30 4v-5l61 3v4q-77 69 -132 228q-7 0 -16 40q168 184 168 192h4q7 0 24 -120q46 -189 140 -342h189v-154h-237l-1 3 l-373 -3v4h-101q-23 0 -280 232q-32 44 -76 44q-18 -8 -20 -16v-16q21 -59 224 -240l16 -36v-12q0 -64 -256 -212q-271 -178 -380 -200l-60 -4q-167 0 -468 136v12zM233 -680l128 132l109 -114l111 114l152 -160l-120 -128l-115 113l-105 -113zM1403 926l128 132l152 -160 l-120 -128z" />
<glyph unicode="&#xfef4;&#xfeae;" horiz-adv-x="1438" arabic-form="final" d="M-170 -418q98 56 508 172q376 101 376 192q0 60 -172 148l-352 212q-16 30 -16 52q0 27 80 112l92 112q12 -4 12 -24q-16 -4 -16 -40q6 -64 244 -224q111 -79 190 -143l1 1l293 2q-77 69 -132 228q-7 0 -16 40q168 184 168 192h4q7 0 24 -120q46 -189 140 -342h189v-154 h-564q-52 -83 -225 -204l-312 -196q-254 -68 -516 -20v4zM851 -194l128 132l109 -115l111 115l152 -160l-120 -128l-115 112l-105 -112z" />
<glyph unicode="&#xfef4;&#xfee6;" horiz-adv-x="2278" arabic-form="final" d="M47 -23l4 4h4q97 -102 203 -135q287 -110 654 -110h127q131 0 215 51q190 83 190 144q0 31 -130 126q-242 167 -414 257q-21 24 -21 51v4q0 51 97 140l88 101q13 0 13 -17l-8 -25v-26q0 -73 93 -126q201 -154 330 -264l418 2q-77 69 -132 228q-7 0 -16 40 q168 184 168 192h4q7 0 24 -120q47 -193 143 -348h194v-154l-624 5q-60 -100 -311 -231q-305 -189 -452 -203q-254 43 -485 131q-174 76 -304 186q-72 73 -72 97zM689 53q0 11 131 135h4l164 -169l-135 -135q-164 158 -164 169zM1574 -198l128 132l109 -114l111 114 l152 -160l-120 -128l-115 113l-105 -113z" />
<glyph unicode="&#xfe91;&#xfea0;" horiz-adv-x="1290" arabic-form="initial" d="M-22 2l1 150h493l-296 194q-56 54 -56 100v12q0 20 184 244h12v-4l-16 -56q-30 -112 114 -210l58 -42l516 2v2q-77 69 -132 228q-7 0 -16 40q168 184 168 192h4q7 0 24 -120q69 -286 248 -488l2 -10l-600 2l362 -260v-4l-108 -144l-14 20l-6 12l-192 140h-750zM185 -194 l128 132l152 -160l-120 -128zM1001 -194l128 132l152 -160l-120 -128z" />
<glyph unicode="&#xfe91;&#xfea4;" horiz-adv-x="1290" arabic-form="initial" d="M-10 2l1 150h483l-296 194q-56 54 -56 100v12q0 20 184 244h12v-4l-16 -56q-30 -112 114 -210l58 -42l516 2v2q-77 69 -132 228q-7 0 -16 40q168 184 168 192h4q7 0 24 -120q69 -286 248 -488l2 -10l-600 2l362 -260v-4l-108 -144l-14 20l-6 12l-192 140h-740zM1003 -194 l128 132l152 -160l-120 -128z" />
<glyph unicode="&#xfe91;&#xfea8;" horiz-adv-x="1273" arabic-form="initial" d="M-18 2l1 150h483l-296 194q-56 54 -56 100v12q0 20 184 244h12v-4l-16 -56q-30 -112 114 -210l58 -42l516 2v2q-77 69 -132 228q-7 0 -16 40q168 184 168 192h4q7 0 24 -120q69 -286 248 -488l2 -10l-600 2l362 -260v-4l-108 -144l-14 20l-6 12l-192 140h-740zM156 927 l128 132l152 -160l-120 -128zM995 -194l128 132l152 -160l-120 -128z" />
<glyph unicode="&#xfe91;&#xfee4;" horiz-adv-x="1323" arabic-form="initial" d="M-13 1l2 151h166q-39 134 -39 204q0 59 434 266q11 -14 136 -470h356q-77 71 -132 230q-7 0 -16 40q168 184 168 192h4q7 0 24 -120q69 -286 248 -488v-4l-468 -3v-1h-214v2zM330 369q0 -103 90 -217h52l-65 269h-6q-71 -40 -71 -52zM822 -194l128 132l152 -160 l-120 -128z" />
<glyph unicode="&#xfe97;&#xfea0;" horiz-adv-x="1281" arabic-form="initial" d="M-14 2l1 150h493l-296 194q-56 54 -56 100v12q0 20 184 244h12v-4l-16 -56q-30 -112 114 -210l58 -42l516 2v2q-77 69 -132 228q-7 0 -16 40q168 184 168 192h4q7 0 24 -120q69 -286 248 -488l2 -10l-600 2l362 -260v-4l-108 -144l-14 20l-6 12l-192 140h-750zM123 -194 l128 132l152 -160l-120 -128zM492 922l128 132l109 -115l111 115l152 -160l-120 -128l-115 112l-105 -112z" />
<glyph unicode="&#xfe97;&#xfea4;" horiz-adv-x="1290" arabic-form="initial" d="M-10 2l1 150h493l-296 194q-56 54 -56 100v12q0 20 184 244h12v-4l-16 -56q-30 -112 114 -210l58 -42l516 2v2q-77 69 -132 228q-7 0 -16 40q168 184 168 192h4q7 0 24 -120q69 -286 248 -488l2 -10l-600 2l362 -260v-4l-108 -144l-14 20l-6 12l-192 140h-750zM496 922 l128 132l109 -115l111 115l152 -160l-120 -128l-115 112l-105 -112z" />
<glyph unicode="&#xfe97;&#xfea8;" horiz-adv-x="1290" arabic-form="initial" d="M-14 2l1 150h493l-296 194q-56 54 -56 100v12q0 20 184 244h12v-4l-16 -56q-30 -112 114 -210l58 -42l516 2v2q-77 69 -132 228q-7 0 -16 40q168 184 168 192h4q7 0 24 -120q69 -286 248 -488l2 -10l-600 2l362 -260v-4l-108 -144l-14 20l-6 12l-192 140h-750zM170 927 l128 132l152 -160l-120 -128zM492 922l128 132l109 -115l111 115l152 -160l-120 -128l-115 112l-105 -112z" />
<glyph unicode="&#xfe97;&#xfee4;" horiz-adv-x="1306" arabic-form="initial" d="M-28 1l2 151h166q-39 134 -39 204q0 59 434 266q11 -14 136 -470h356q-77 71 -132 230q-7 0 -16 40q168 184 168 192h4q7 0 24 -120q69 -286 248 -488v-4l-468 -3v-1h-214v2zM315 369q0 -103 90 -217h52l-65 269h-6q-71 -40 -71 -52zM675 922l128 132l109 -115l111 115 l152 -160l-120 -128l-115 112l-105 -112z" />
<glyph unicode="&#xfe9b;&#xfee4;" horiz-adv-x="1323" arabic-form="initial" d="M-28 1l2 151h166q-39 134 -39 204q0 59 434 266q11 -14 136 -470h356q-77 71 -132 230q-7 0 -16 40q168 184 168 192h4q7 0 24 -120q69 -286 248 -488v-4l-468 -3v-1h-214v2zM315 369q0 -103 90 -217h52l-65 269h-6q-71 -40 -71 -52zM675 922l128 132l109 -115l111 115 l152 -160l-120 -128l-115 112l-105 -112zM756 1125l128 132l152 -160l-120 -128z" />
<glyph unicode="&#xfe9f;&#xfee4;" horiz-adv-x="1801" arabic-form="initial" d="M-25 1l2 151h166q-39 134 -39 204q0 59 434 266q11 -14 130 -470h566l-296 194q-56 54 -56 100v12q0 20 184 244h12v-4l-16 -56q-30 -112 114 -210l634 -454v-4l-108 -144l-14 20l-6 12l-192 140h-632v-4h-214v2zM318 369q0 -103 90 -217h52l-65 269h-6q-71 -40 -71 -52z M882 -194l128 132l152 -160l-120 -128z" />
<glyph unicode="&#xfea3;&#xfee4;" horiz-adv-x="1809" arabic-form="initial" d="M-15 1l2 151h166q-39 134 -39 204q0 59 434 266q11 -14 130 -470h566l-296 194q-56 54 -56 100v12q0 20 184 244h12v-4l-16 -56q-30 -112 114 -210l634 -454v-4l-108 -144l-14 20l-6 12l-192 140h-632v-4h-214v2zM328 369q0 -103 90 -217h52l-65 269h-6q-71 -40 -71 -52z " />
<glyph unicode="&#xfea7;&#xfee4;" horiz-adv-x="1809" arabic-form="initial" d="M-15 1l2 151h166q-39 134 -39 204q0 59 434 266q11 -14 130 -470h566l-296 194q-56 54 -56 100v12q0 20 184 244h12v-4l-16 -56q-30 -112 114 -210l634 -454v-4l-108 -144l-14 20l-6 12l-192 140h-632v-4h-214v2zM328 369q0 -103 90 -217h52l-65 269h-6q-71 -40 -71 -52z M928 926l128 132l152 -160l-120 -128z" />
<glyph unicode="&#xfeb3;&#xfee4;" horiz-adv-x="2019" arabic-form="initial" d="M-26 1l2 151h166q-39 134 -39 204q0 59 434 266q11 -14 130 -470h313l4 4v4q-77 69 -132 228q-7 0 -16 40q168 184 168 192h4q7 0 24 -120q47 -195 145 -351l189 1v4q-77 69 -132 228q-7 0 -16 40q168 184 168 192h4q7 0 24 -120q46 -191 141 -345l178 1v4 q-77 69 -132 228q-7 0 -16 40q168 184 168 192h4q7 0 24 -120q69 -286 248 -488v-4l-530 -4v3l-642 -2v-1h-214v2zM317 369q0 -103 90 -217h52l-65 269h-6q-71 -40 -71 -52z" />
<glyph unicode="&#xfedf;&#xfea0;" horiz-adv-x="1088" arabic-form="initial" d="M-10 2l1 150h493l-296 194q-56 54 -56 100v12q0 20 184 244h12v-4l-16 -56q-30 -112 114 -210l70 -50h400l-48 814l136 148h6l31 -869q42 -217 81 -217v-6l-19 -18h-380l357 -256v-4l-108 -144l-14 20l-6 12l-192 140h-750zM132 -194l128 132l152 -160l-120 -128z" />
<glyph unicode="&#xfedf;&#xfea4;" horiz-adv-x="1081" arabic-form="initial" d="M-26 2l1 150h493l-296 194q-56 54 -56 100v12q0 20 184 244h12v-4l-16 -56q-30 -112 114 -210l70 -50h400l-48 814l136 148h6l31 -869q42 -217 81 -217v-6l-19 -18h-380l357 -256v-4l-108 -144l-14 20l-6 12l-192 140h-750z" />
<glyph unicode="&#xfedf;&#xfea8;" horiz-adv-x="1081" arabic-form="initial" d="M-26 2l1 150h493l-296 194q-56 54 -56 100v12q0 20 184 244h12v-4l-16 -56q-30 -112 114 -210l70 -50h400l-48 814l136 148h6l31 -869q42 -217 81 -217v-6l-19 -18h-380l357 -256v-4l-108 -144l-14 20l-6 12l-192 140h-750zM158 926l128 132l152 -160l-120 -128z" />
<glyph unicode="&#xfedf;&#xfee4;" horiz-adv-x="1139" arabic-form="initial" d="M-22 1l2 151h166q-39 134 -39 204q0 59 434 266q11 -14 130 -470h278v96q0 413 -54 942l133 154q34 0 40 -364.5t3 -566t78 -411.5h-288v-4h-214v2zM321 369q0 -103 90 -217h52l-65 269h-6q-71 -40 -71 -52z" />
<glyph unicode="&#xfedf;&#xfeec;" horiz-adv-x="1215" arabic-form="initial" d="M-19 -6v153l4 4v4l224 2q-124 166 -124 238v12q0 93 188 144l424 160v-4q-32 -84 -32 -100q91 -312 113 -455h247v96q0 413 -54 942l133 154q34 0 40 -364.5t3 -566t78 -411.5h-263v-4l-241 1q-59 -38 -172 -76l-44 -8q-51 0 -138 97l-4 4h-4q-10 -22 -104 -24zM293 419 q64 -124 96 -144h4q46 38 80 168v12q0 25 -36 44q-144 -47 -144 -76v-4zM501 123q41 -47 96 -68l32 16q-28 168 -56 168q-72 -104 -72 -116z" />
<glyph unicode="&#xfee3;&#xfea0;" horiz-adv-x="1348" arabic-form="initial" d="M-27 2l1 150h483l-296 194q-56 54 -56 100v12q0 20 184 244h12v-4l-16 -56q-30 -112 114 -210l50 -36h331q-39 134 -39 204q0 59 434 266q13 -16 168 -616l-6 -6l-677 1l373 -267v-4l-108 -144l-14 20l-6 12l-192 140h-740zM105 -194l128 132l152 -160l-120 -128z M955 613q0 -103 90 -217h52l-65 269h-6q-71 -40 -71 -52z" />
<glyph unicode="&#xfee3;&#xfea4;" horiz-adv-x="1348" arabic-form="initial" d="M-28 2l1 150h503l-296 194q-56 54 -56 100v12q0 20 184 244h12v-4l-16 -56q-30 -112 114 -210l50 -36h331q-39 134 -39 204q0 59 434 266q13 -16 168 -616l-6 -6l-677 1l373 -267v-4l-108 -144l-14 20l-6 12l-192 140h-760zM974 613q0 -103 90 -217h52l-65 269h-6 q-71 -40 -71 -52z" />
<glyph unicode="&#xfee3;&#xfea8;" horiz-adv-x="1366" arabic-form="initial" d="M-36 2l1 150h503l-296 194q-56 54 -56 100v12q0 20 184 244h12v-4l-16 -56q-30 -112 114 -210l50 -36h331q-39 134 -39 204q0 59 434 266q13 -16 168 -616l-6 -6l-677 1l373 -267v-4l-108 -144l-14 20l-6 12l-192 140h-760zM151 926l128 132l152 -160l-120 -128zM966 613 q0 -103 90 -217h52l-65 269h-6q-71 -40 -71 -52z" />
<glyph unicode="&#xfee3;&#xfee4;" horiz-adv-x="1507" arabic-form="initial" d="M-28 1l2 151h166q-39 134 -39 204q0 59 434 266q11 -14 130 -470h285q-39 134 -39 204q0 59 434 266q13 -16 168 -616l-6 -6l-652 1v-3h-214v2zM315 369q0 -103 90 -217h52l-65 269h-6q-71 -40 -71 -52zM1125 369q0 -103 90 -217h52l-65 269h-6q-71 -40 -71 -52z" />
<glyph unicode="&#xfee7;&#xfea0;" horiz-adv-x="1307" arabic-form="initial" d="M-16 2l1 150h503l-296 194q-56 54 -56 100v12q0 20 184 244h12v-4l-16 -56q-30 -112 114 -210l58 -42l516 2v2q-77 69 -132 228q-7 0 -16 40q168 184 168 192h4q7 0 24 -120q69 -286 248 -488l2 -10l-600 2l362 -260v-4l-108 -144l-14 20l-6 12l-192 140h-760zM226 -194 l128 132l152 -160l-120 -128zM607 927l128 132l152 -160l-120 -128z" />
<glyph unicode="&#xfee7;&#xfea4;" horiz-adv-x="1298" arabic-form="initial" d="M-16 2l1 150h503l-296 194q-56 54 -56 100v12q0 20 184 244h12v-4l-16 -56q-30 -112 114 -210l58 -42l516 2v2q-77 69 -132 228q-7 0 -16 40q168 184 168 192h4q7 0 24 -120q69 -286 248 -488l2 -10l-600 2l362 -260v-4l-108 -144l-14 20l-6 12l-192 140h-760zM607 927 l128 132l152 -160l-120 -128z" />
<glyph unicode="&#xfee7;&#xfea8;" horiz-adv-x="1290" arabic-form="initial" d="M-24 2l1 150h503l-296 194q-56 54 -56 100v12q0 20 184 244h12v-4l-16 -56q-30 -112 114 -210l58 -42l516 2v2q-77 69 -132 228q-7 0 -16 40q168 184 168 192h4q7 0 24 -120q69 -286 248 -488l2 -10l-600 2l362 -260v-4l-108 -144l-14 20l-6 12l-192 140h-760zM170 927 l128 132l152 -160l-120 -128zM599 927l128 132l152 -160l-120 -128z" />
<glyph unicode="&#xfee7;&#xfee4;" horiz-adv-x="1323" arabic-form="initial" d="M-11 1l2 151h166q-39 134 -39 204q0 59 434 266q11 -14 136 -470h356q-77 71 -132 230q-7 0 -16 40q168 184 168 192h4q7 0 24 -120q69 -286 248 -488v-4l-468 -3v-1h-214v2zM332 369q0 -103 90 -217h52l-65 269h-6q-71 -40 -71 -52zM729 927l128 132l152 -160l-120 -128 z" />
<glyph unicode="&#xfef3;&#xfea0;" horiz-adv-x="1491" arabic-form="initial" d="M-22 2l1 150h493l-296 194q-56 54 -56 100v12q0 20 184 244h12v-4l-16 -56q-30 -112 114 -210l58 -42l516 2v2q-77 69 -132 228q-7 0 -16 40q168 184 168 192h4q7 0 24 -120q69 -286 248 -488l2 -10l-600 2l362 -260v-4l-108 -144l-14 20l-6 12l-192 140h-750zM210 -194 l128 132l152 -160l-120 -128zM995 -194l128 132l109 -114l111 114l152 -160l-120 -128l-115 113l-105 -113z" />
<glyph unicode="&#xfef3;&#xfea4;" horiz-adv-x="1500" arabic-form="initial" d="M-24 2l1 150h503l-296 194q-56 54 -56 100v12q0 20 184 244h12v-4l-16 -56q-30 -112 114 -210l58 -42l516 2v2q-77 69 -132 228q-7 0 -16 40q168 184 168 192h4q7 0 24 -120q69 -286 248 -488l2 -10l-600 2l362 -260v-4l-108 -144l-14 20l-6 12l-192 140h-760zM1003 -194 l128 132l109 -114l111 114l152 -160l-120 -128l-115 113l-105 -113z" />
<glyph unicode="&#xfef3;&#xfea8;" horiz-adv-x="1491" arabic-form="initial" d="M-24 2l1 150h503l-296 194q-56 54 -56 100v12q0 20 184 244h12v-4l-16 -56q-30 -112 114 -210l58 -42l516 2v2q-77 69 -132 228q-7 0 -16 40q168 184 168 192h4q7 0 24 -120q69 -286 248 -488l2 -10l-600 2l362 -260v-4l-108 -144l-14 20l-6 12l-192 140h-760zM182 926 l128 132l152 -160l-120 -128zM1003 -194l128 132l109 -114l111 114l152 -160l-120 -128l-115 113l-105 -113z" />
<glyph unicode="&#xfef3;&#xfee4;" horiz-adv-x="1315" arabic-form="initial" d="M-29 1l2 151h176q-39 134 -39 204q0 59 434 266q11 -14 136 -470h356q-77 71 -132 230q-7 0 -16 40q168 184 168 192h4q7 0 24 -120q69 -286 248 -488v-4l-468 -3v-1h-214v2zM324 369q0 -103 90 -217h52l-65 269h-6q-71 -40 -71 -52zM666 -194l128 132l109 -115l111 115 l152 -160l-120 -128l-115 112l-105 -112z" />
<glyph unicode="&#xfeb7;&#xfee4;" horiz-adv-x="2008" arabic-form="initial" d="M-34 1l2 151h166q-39 134 -39 204q0 59 434 266q11 -14 130 -470h313l4 4v4q-77 69 -132 228q-7 0 -16 40q168 184 168 192h4q7 0 24 -120q47 -195 145 -351l189 1v4q-77 69 -132 228q-7 0 -16 40q168 184 168 192h4q7 0 24 -120q46 -191 141 -345l178 1v4 q-77 69 -132 228q-7 0 -16 40q168 184 168 192h4q7 0 24 -120q69 -286 248 -488v-4l-530 -4v3l-642 -2v-1h-214v2zM309 369q0 -103 90 -217h52l-65 269h-6q-71 -40 -71 -52zM1067 922l128 132l109 -115l111 115l152 -160l-120 -128l-115 112l-105 -112zM1148 1125l128 132 l152 -160l-120 -128z" />
<glyph unicode="&#xfedf;&#xfee4;&#xfea4;" horiz-adv-x="1801" arabic-form="initial" d="M-22 2l1 150h503l-296 194q-56 54 -56 100v12q0 20 184 244h12v-4l-16 -56q-30 -112 114 -210l50 -36h331q-39 134 -39 204q0 59 434 266q11 -14 131 -474h283v96q0 413 -54 692l133 154q34 0 40 -239.5t3 -441t78 -411.5h-529v2l-600 1l373 -267v-4l-108 -144l-14 20 l-6 12l-192 140h-760zM980 613q0 -103 90 -217h52l-65 269h-6q-71 -40 -71 -52z" />
<glyph unicode="&#xfedf;&#xfe82;" horiz-adv-x="1123" arabic-form="isolated" d="M36 1329q7 27 13 44q32 98 76.5 128t125.5 9.5t110 -20.5q17 0 28 4q40 16 75 39q24 16 49 33q-22 -87 -67 -124q-37 -30 -93 -30q-29 0 -84 11t-77 11q-15 0 -29 -4q-29 -7 -55 -33q-65 -64 -72 -68zM190 1161q87 179 94 181q507 -880 525 -895q16 21 41 158 q35 196 22 606l142 110h3q28 -113 28 -243q0 -349 -120 -766l202 -314l-117 2h-535v7q71 27 191 184q45 66 45 107q-114 161 -521 863zM799 152h39l-26 34z" />
<glyph unicode="&#xfee0;&#xfe82;" horiz-adv-x="1190" arabic-form="final" d="M36 1329q7 27 13 44q32 98 76.5 128t125.5 9.5t110 -20.5q17 0 28 4q40 16 75 39q24 16 49 33q-22 -87 -67 -124q-37 -30 -93 -30q-29 0 -84 11t-77 11q-15 0 -29 -4q-29 -7 -55 -33q-65 -64 -72 -68zM190 1161q407 -702 521 -863q0 -41 -45 -107q-120 -157 -191 -184v-7 h541v-2h190v154h-178l-103 160q120 417 120 766q0 130 -28 243h-3l-142 -110q13 -410 -22 -606q-25 -137 -41 -158q-18 15 -525 895q-7 -2 -94 -181zM799 152l13 34l26 -34h-39z" />
<glyph unicode="&#xfedf;&#xfe84;" horiz-adv-x="1114" arabic-form="isolated" d="M103 1380l31 71h70q-54 33 -54 40q-8 20 -8 36q0 19 52 76l121 72v-1q-30 -44 -43 -45q-54 -31 -64 -40q-10 -18 -10 -32v-2q0 -23 82 -73q50 -30 84 -30l1 -1h42l-34 -71h-270zM184 1161q87 179 94 181q507 -880 525 -895q16 21 41 158q35 196 22 606l142 110h3 q28 -113 28 -243q0 -349 -120 -766l202 -314l-117 2h-535v7q71 27 191 184q45 66 45 107q-114 161 -521 863zM793 152h39l-26 34z" />
<glyph unicode="&#xfee0;&#xfe84;" horiz-adv-x="1206" arabic-form="final" d="M104 1380l31 71h70q-54 33 -54 40q-8 20 -8 36q0 19 52 76l121 72v-1q-30 -44 -43 -45q-54 -31 -64 -40q-10 -18 -10 -32v-2q0 -23 82 -73q50 -30 84 -30l1 -1h42l-34 -71h-270zM203 1161q407 -702 521 -863q0 -41 -45 -107q-120 -157 -191 -184v-7h541v-2h190v154h-178 l-103 160q120 417 120 766q0 130 -28 243h-3l-142 -110q13 -410 -22 -606q-25 -137 -41 -158q-18 15 -525 895q-7 -2 -94 -181zM812 152l13 34l26 -34h-39z" />
<glyph unicode="&#xfedf;&#xfe88;" horiz-adv-x="1089" arabic-form="isolated" d="M157 1161q87 179 94 181q507 -880 525 -895q16 21 42 158q34 196 21 606l142 110h3q28 -113 28 -243q0 -349 -120 -766l202 -314l-117 2h-535v7q71 27 191 184q46 66 46 107q-115 161 -522 863zM403 -357l31 71h70q-54 33 -54 40q-8 20 -8 36q0 19 52 76l121 72v-1 q-30 -44 -43 -45q-54 -31 -64 -40q-10 -18 -10 -32v-2q0 -23 82 -73q50 -30 84 -30l1 -1h42l-34 -71h-270zM767 152h38l-25 34z" />
<glyph unicode="&#xfee0;&#xfe88;" horiz-adv-x="1164" arabic-form="final" d="M158 1161q407 -702 521 -863q0 -41 -45 -107q-120 -157 -191 -184v-7h541v-2h190v154h-178l-103 160q120 417 120 766q0 130 -28 243h-3l-142 -110q13 -410 -22 -606q-25 -137 -41 -158q-18 15 -525 895q-7 -2 -94 -181zM416 -357l31 71h70q-54 33 -54 40q-8 20 -8 36 q0 19 52 76l121 72v-1q-30 -44 -43 -45q-54 -31 -64 -40q-10 -18 -10 -32v-2q0 -23 82 -73q50 -30 84 -30l1 -1h42l-34 -71h-270zM767 152l13 34l26 -34h-39z" />
<glyph unicode="&#xfedf;&#xfe8e;" horiz-adv-x="1097" arabic-form="isolated" d="M163 1161q87 179 94 181q507 -880 525 -895q16 21 42 158q34 196 21 606l142 110h3q28 -113 28 -243q0 -349 -120 -766l202 -314l-117 2h-535v7q71 27 191 184q46 66 46 107q-115 161 -522 863zM773 152h38l-25 34z" />
<glyph unicode="&#xfee0;&#xfe8e;" horiz-adv-x="1173" arabic-form="final" d="M166 1161q407 -702 521 -863q0 -41 -45 -107q-120 -157 -191 -184v-7h541v-2h190v154h-178l-103 160q120 417 120 766q0 130 -28 243h-3l-142 -110q13 -410 -22 -606q-25 -137 -41 -158q-18 15 -525 895q-7 -2 -94 -181zM775 152l13 34l26 -34h-39z" />
<glyph unicode="&#xfe70;" horiz-adv-x="517" arabic-form="isolated" d="M119 1430q0 38 11.5 56.5t54.5 44.5l272 157q0 -66 -35 -86zM119 1596q0 38 11.5 56.5t54.5 44.5l272 157q0 -66 -35 -86z" />
<glyph unicode="&#xfe72;" horiz-adv-x="557" arabic-form="isolated" d="M65 1597q0 45 24 77.5t60 32.5q33 0 50 -25.5t17 -74.5l-1 -28l-5 -64q39 15 60.5 31t63.5 59q-38 25 -53 46q-13 23 -13 48q0 53 39.5 100t82.5 47q22 0 45 -26t23 -54q0 -31 -11 -59l-22 -55q24 -18 31.5 -32t7.5 -38l-2 -59l-44 25l-48 34q-70 -73 -121 -103.5 t-119 -41.5q14 29 21.5 46t14.5 38.5t7 44.5q0 20 -14.5 37.5t-34.5 17.5q-15 0 -30.5 -21.5t-18.5 -54.5l-8 30zM321 1756q0 -21 26 -43l37 -26l3 19l1 20q0 25 -11 39t-30 14q-11 0 -17.5 -6t-8.5 -17z" />
<glyph unicode="&#xfe74;" horiz-adv-x="538" arabic-form="isolated" d="M119 -699q0 38 11.5 56.5t54.5 44.5l272 157q0 -66 -35 -86zM119 -846q0 38 11.5 56.5t54.5 44.5l272 157q0 -66 -35 -86z" />
<glyph unicode="&#xfe76;" horiz-adv-x="520" arabic-form="isolated" d="M119 1440q0 38 11.5 56.5t54.5 44.5l272 157q0 -66 -35 -86z" />
<glyph unicode="&#xfe78;" horiz-adv-x="507" arabic-form="isolated" d="M61 1442q65 35 104 63q32 23 109 93q-34 26 -47.5 45.5t-13.5 44.5q0 45 36 111q18 30 38 43.5t42 13.5q68 0 68 -88q0 -25 -6.5 -51t-24.5 -66l39 -30l-8 -99l-37 23l-43 29q-56 -67 -97 -101q-54 -43 -100 -43q-15 0 -35 5zM264 1750q0 -19 11.5 -32.5t53.5 -42.5 q6 20 6 34q0 23 -16 42t-37 19q-5 0 -13 -6q-3 -3 -5 -14z" />
<glyph unicode="&#xfe7a;" horiz-adv-x="541" arabic-form="isolated" d="M119 -708q0 38 11.5 56.5t54.5 44.5l272 157q0 -66 -35 -86z" />
<glyph unicode="&#xfe7c;" horiz-adv-x="564" arabic-form="isolated" d="M119 1538q0 30 11 66l11 35l23 4q0 -58 9 -84.5t30 -26.5q32 0 53.5 37.5t36.5 124.5l18 6q12 -55 25.5 -76.5t32.5 -21.5q67 0 67 147l23 10l11 -53l3 -43q0 -78 -27.5 -123t-76.5 -45q-22 0 -34 4.5t-30 16.5q-6 -33 -38 -59.5t-66 -26.5q-36 0 -59 30t-23 78z" />
<glyph unicode="&#xfe7e;" horiz-adv-x="482" arabic-form="isolated" d="M117 1551q0 85 37.5 138t99.5 53q46 0 83.5 -45.5t37.5 -102.5q0 -64 -45.5 -114t-105.5 -50q-52 0 -79.5 30.5t-27.5 90.5zM150 1588q0 -59 92 -59q38 0 58 11t20 30q0 24 -43 55t-68 31q-26 0 -42.5 -19.5t-16.5 -48.5z" />
<glyph unicode="&#x621;" horiz-adv-x="814" arabic-form="isolated" d="M166 2l66 153h153q-116 72 -116 87q-19 43 -19 78q0 40 112 163l263 157v-3q-66 -96 -94 -97q-116 -67 -139 -87q-21 -39 -21 -69v-3q0 -50 178 -160q108 -63 181 -63l3 -3h3h88l-74 -153h-584z" />
<glyph unicode="&#x622;" horiz-adv-x="519" arabic-form="isolated" d="M60 1329q7 27 13 44q32 98 76.5 128t125.5 9.5t110 -20.5q17 0 28 4q40 16 75 39q24 16 49 33q-22 -87 -67 -124q-37 -30 -93 -30q-29 0 -84 11t-77 11q-15 0 -29 -4q-29 -7 -55 -33q-65 -64 -72 -68zM198 1157l132 176q92 -571 78 -1008q10 -134 150 -208l204 -112v-4 q-88 -16 -152 -16q-232 0 -316 148q-16 43 -16 84q6 465 -80 940z" />
<glyph unicode="&#x622;" horiz-adv-x="528" arabic-form="final" d="M65 1329q7 27 13 44q32 98 76.5 128t125.5 9.5t110 -20.5q17 0 28 4q40 16 75 39q24 16 49 33q-22 -87 -67 -124q-37 -30 -93 -30q-29 0 -84 11t-77 11q-15 0 -29 -4q-29 -7 -55 -33q-65 -64 -72 -68zM199 1190q124 135 124 144h12q20 -106 20 -828v-172q0 -143 112 -182 h80v-156l-152 6q-42 -8 -148 -52l-4 4v4q20 558 -44 1232z" />
<glyph unicode="&#x623;" horiz-adv-x="523" arabic-form="isolated" d="M120 1384l31 71h70q-54 33 -54 40q-8 20 -8 36q0 19 52 76l121 72v-1q-30 -44 -43 -45q-54 -31 -64 -40q-10 -18 -10 -32v-2q0 -23 82 -73q50 -30 84 -30l1 -1h42l-34 -71h-270zM198 1157l132 176q92 -571 78 -1008q10 -134 150 -208l204 -112v-4q-88 -16 -152 -16 q-232 0 -316 148q-16 43 -16 84q6 465 -80 940z" />
<glyph unicode="&#x623;" horiz-adv-x="551" arabic-form="final" d="M143 1384l31 71h70q-54 33 -54 40q-8 20 -8 36q0 19 52 76l121 72v-1q-30 -44 -43 -45q-54 -31 -64 -40q-10 -18 -10 -32v-2q0 -23 82 -73q50 -30 84 -30l1 -1h42l-34 -71h-270zM215 1190q124 135 124 144h12q20 -106 20 -828v-172q0 -143 112 -182h80v-156l-152 6 q-42 -8 -148 -52l-4 4v4q20 558 -44 1232z" />
<glyph unicode="&#x624;" horiz-adv-x="837" arabic-form="isolated" d="M-186 -412q0 8 228 76q453 148 608 212q40 29 40 68v4q0 40 -68 75q-177 145 -420 308l-12 40q0 70 88 132l296 268h4v-4q-24 -51 -24 -96q195 -334 248 -448q48 -129 48 -208q-36 -126 -300 -283q-226 -160 -348 -160l-72 -4q-97 -10 -316 16v4zM226 761l31 71h70 q-54 33 -54 40q-8 20 -8 36q0 19 52 76l121 72v-1q-30 -44 -43 -45q-54 -31 -64 -40q-10 -18 -10 -32v-2q0 -23 82 -73q50 -30 84 -30l1 -1h42l-34 -71h-270zM398 447q0 -41 76 -96l104 -92l-140 228q-40 -12 -40 -40z" />
<glyph unicode="&#x624;" horiz-adv-x="955" arabic-form="final" d="M-229 -412q0 8 228 76q453 148 608 212q40 29 40 68v4q0 40 -68 75q-177 145 -420 308l-12 40q0 70 88 132l296 268h4v-4q-24 -51 -24 -96q195 -334 248 -448q14 -38 24 -71h182v-154l-164 1q-48 -120 -294 -267q-226 -160 -348 -160l-72 -4q-97 -10 -316 16v4zM183 761 l31 71h70q-54 33 -54 40q-8 20 -8 36q0 19 52 76l121 72v-1q-30 -44 -43 -45q-54 -31 -64 -40q-10 -18 -10 -32v-2q0 -23 82 -73q50 -30 84 -30l1 -1h42l-34 -71h-270zM355 447q0 -41 76 -96l104 -92l-140 228q-40 -12 -40 -40z" />
<glyph unicode="&#x625;" horiz-adv-x="525" arabic-form="isolated" d="M158 1157l132 176q92 -571 78 -1008q10 -134 150 -208l204 -112v-4q-88 -16 -152 -16q-232 0 -316 148q-16 43 -16 84q6 465 -80 940zM226 -367l31 71h70q-54 33 -54 40q-8 20 -8 36q0 19 52 76l121 72v-1q-30 -44 -43 -45q-54 -31 -64 -40q-10 -18 -10 -32v-2 q0 -23 82 -73q50 -30 84 -30l1 -1h42l-34 -71h-270z" />
<glyph unicode="&#x625;" horiz-adv-x="495" arabic-form="final" d="M170 1190q124 135 124 144h12q20 -106 20 -828v-172q0 -143 112 -182h80v-156l-152 6q-42 -8 -148 -52l-4 4v4q20 558 -44 1232zM230 -367l31 71h70q-54 33 -54 40q-8 20 -8 36q0 19 52 76l121 72v-1q-30 -44 -43 -45q-54 -31 -64 -40q-10 -18 -10 -32v-2q0 -23 82 -73 q50 -30 84 -30l1 -1h42l-34 -71h-270z" />
<glyph unicode="&#x626;" horiz-adv-x="1726" arabic-form="isolated" d="M181 -310q204 24 492 20h180q91 0 308 164l12 20v4q-16 21 -256 224l-4 28v28q0 50 156 228q58 68 88 68q108 -29 356 -264q109 -84 210 -208h-242q-24 0 -280 232q-32 44 -76 44q-18 -8 -20 -16v-16q21 -59 224 -240l16 -36v-12q0 -64 -256 -212q-271 -178 -380 -200 l-60 -4q-167 0 -468 136v12zM186 -6l31 71h70q-54 33 -54 40q-8 20 -8 36q0 19 52 76l121 72v-1q-30 -44 -43 -45q-54 -31 -64 -40q-10 -18 -10 -32v-2q0 -23 82 -73q50 -30 84 -30l1 -1h42l-34 -71h-270z" />
<glyph unicode="&#x626;" horiz-adv-x="1750" arabic-form="final" d="M187 -310q204 24 492 20h180q91 0 308 164l12 20v4q-16 21 -256 224l-4 28v28q0 50 156 228q58 68 88 68q108 -29 356 -264q79 -58 242 -58l2 -146l-4 -4h-272q-24 0 -280 232q-32 44 -76 44q-18 -8 -20 -16v-16q21 -59 224 -240l16 -36v-12q0 -64 -256 -212 q-271 -178 -380 -200l-60 -4q-167 0 -468 136v12zM220 -6l31 71h70q-54 33 -54 40q-8 20 -8 36q0 19 52 76l121 72v-1q-30 -44 -43 -45q-54 -31 -64 -40q-10 -18 -10 -32v-2q0 -23 82 -73q50 -30 84 -30l1 -1h42l-34 -71h-270z" />
<glyph unicode="&#x626;" horiz-adv-x="519" arabic-form="initial" d="M-20 -2v152l254 4q-77 69 -132 228q-7 0 -16 40q168 184 168 192h4q7 0 24 -120q69 -286 248 -488v-4zM-6 761l31 71h70q-54 33 -54 40q-8 20 -8 36q0 19 52 76l121 72v-1q-30 -44 -43 -45q-54 -31 -64 -40q-10 -18 -10 -32v-2q0 -23 82 -73q50 -30 84 -30l1 -1h42 l-34 -71h-270z" />
<glyph unicode="&#x626;" horiz-adv-x="595" arabic-form="medial" d="M-18 -2v152l254 4q-77 69 -132 228q-7 0 -16 40q168 184 168 192h4q7 0 24 -120q46 -189 140 -342h189v-154h-237l-1 3zM-6 761l31 71h70q-54 33 -54 40q-8 20 -8 36q0 19 52 76l121 72v-1q-30 -44 -43 -45q-54 -31 -64 -40q-10 -18 -10 -32v-2q0 -23 82 -73 q50 -30 84 -30l1 -1h42l-34 -71h-270z" />
<glyph unicode="&#x627;" horiz-adv-x="557" arabic-form="isolated" d="M181 1157l132 176q92 -571 78 -1008q10 -134 150 -208l204 -112v-4q-88 -16 -152 -16q-232 0 -316 148q-16 43 -16 84q6 465 -80 940z" />
<glyph unicode="&#x627;" horiz-adv-x="528" arabic-form="final" d="M200 1190q124 135 124 144h12q20 -106 20 -828v-172q0 -143 112 -182h80v-156l-161 6q-33 -8 -139 -52l-4 4v4q20 558 -44 1232z" />
<glyph unicode="&#x628;" horiz-adv-x="1666" arabic-form="isolated" d="M170 100l224 242q23 -55 140 -142q67 -40 133 -48h673l27 4q-76 69 -130 226q-7 0 -16 40q168 184 168 192h6q1 0 3 -4h2q7 0 24 -120q69 -286 248 -488v-4l-1309 1q-116 4 -193 101zM800 -194l128 132l152 -160l-120 -128z" />
<glyph unicode="&#x628;" horiz-adv-x="1697" arabic-form="final" d="M170 100l224 242q23 -55 140 -142q67 -40 133 -48h673l27 4q-76 69 -130 226q-7 0 -16 40q168 184 168 192h6q7 0 24 -120q69 -286 170 -342h138v-154h-333l1 2l-1032 -1q-116 4 -193 101zM800 -194l128 132l152 -160l-120 -128z" />
<glyph unicode="&#x628;" horiz-adv-x="511" arabic-form="initial" d="M-10 -2v152h234v4q-77 69 -132 228q-7 0 -16 40q168 184 168 192h4q7 0 24 -120q69 -286 248 -488v-4zM4 -194l128 132l152 -160l-120 -128z" />
<glyph unicode="&#x628;" horiz-adv-x="586" arabic-form="medial" d="M-18 -2v152h244v4q-77 69 -132 228q-7 0 -16 40q168 184 168 192h4q7 0 24 -120q46 -189 140 -342h189v-154h-237l-1 3zM6 -194l128 132l152 -160l-120 -128z" />
<glyph unicode="&#x629;" horiz-adv-x="831" arabic-form="isolated" d="M135 922l128 132l109 -115l111 115l152 -160l-120 -128l-115 112l-105 -112zM222 366q0 66 224 168l-30 104l214 150q24 -175 72 -370l82 -266l50 -151l-442 1q-170 172 -170 364zM406 390q0 -34 90 -238h80l-94 278h-16q-60 -30 -60 -40z" />
<glyph unicode="&#x629;" horiz-adv-x="925" arabic-form="final" d="M135 922l128 132l109 -115l111 115l152 -160l-120 -128l-115 112l-105 -112zM222 366q0 66 224 168l-30 104l214 150q24 -175 72 -370l82 -266h164l-4 -151l-552 1q-170 172 -170 364zM406 390q0 -34 90 -238h80l-94 278h-16q-60 -30 -60 -40z" />
<glyph unicode="&#x62a;" horiz-adv-x="1675" arabic-form="isolated" d="M192 100l224 242q23 -55 140 -142q67 -40 133 -48h673l27 4q-76 69 -130 226q-7 0 -16 40q168 184 168 192h6q1 0 3 -4h2q7 0 24 -120q69 -286 248 -488v-4l-1309 1q-116 4 -193 101zM660 912l128 132l109 -115l111 115l152 -160l-120 -128l-115 112l-105 -112z" />
<glyph unicode="&#x62a;" horiz-adv-x="1708" arabic-form="final" d="M170 100l224 242q23 -55 140 -142q67 -40 133 -48h673l27 4q-76 69 -130 226q-7 0 -16 40q168 184 168 192h6q7 0 24 -120q69 -286 170 -342h138v-154h-333l1 2l-1032 -1q-116 4 -193 101zM627 932l128 132l109 -115l111 115l152 -160l-120 -128l-115 112l-105 -112z" />
<glyph unicode="&#x62a;" horiz-adv-x="502" arabic-form="initial" d="M-127 922l128 132l109 -115l111 115l152 -160l-120 -128l-115 112l-105 -112zM-35 -2v152h244v4q-77 69 -132 228q-7 0 -16 40q168 184 168 192h4q7 0 24 -120q69 -286 248 -488v-4z" />
<glyph unicode="&#x62a;" horiz-adv-x="578" arabic-form="medial" d="M-115 922l128 132l109 -115l111 115l152 -160l-120 -128l-115 112l-105 -112zM-21 -2v152h244v4q-77 69 -132 228q-7 0 -16 40q168 184 168 192h4q7 0 24 -120q46 -189 140 -342h189v-154h-237l-1 3z" />
<glyph unicode="&#x62b;" horiz-adv-x="1676" arabic-form="isolated" d="M178 100l224 242q23 -55 140 -142q67 -40 133 -48h673l27 4q-76 69 -130 226q-7 0 -16 40q168 184 168 192h6q1 0 3 -4h2q7 0 24 -120q69 -286 248 -488v-4l-1309 1q-116 4 -193 101zM640 922l128 132l109 -115l111 115l152 -160l-120 -128l-115 112l-105 -112zM721 1125 l128 132l152 -160l-120 -128z" />
<glyph unicode="&#x62b;" horiz-adv-x="1709" arabic-form="final" d="M176 100l224 242q23 -55 140 -142q67 -40 133 -48h673l27 4q-76 69 -130 226q-7 0 -16 40q168 184 168 192h6q7 0 24 -120q69 -286 170 -342h138v-154h-333l1 2l-1032 -1q-116 4 -193 101zM638 922l128 132l109 -115l111 115l152 -160l-120 -128l-115 112l-105 -112z M719 1125l128 132l152 -160l-120 -128z" />
<glyph unicode="&#x62b;" horiz-adv-x="503" arabic-form="initial" d="M-116 922l128 132l109 -115l111 115l152 -160l-120 -128l-115 112l-105 -112zM-35 1125l128 132l152 -160l-120 -128zM-24 -2v152h244v4q-77 69 -132 228q-7 0 -16 40q168 184 168 192h4q7 0 24 -120q69 -286 248 -488v-4z" />
<glyph unicode="&#x62b;" horiz-adv-x="561" arabic-form="medial" d="M-106 922l128 132l109 -115l111 115l152 -160l-120 -128l-115 112l-105 -112zM-25 1125l128 132l152 -160l-120 -128zM-14 -2v152h244v4q-77 69 -132 228q-7 0 -16 40q168 184 168 192h4q7 0 24 -120q46 -189 140 -342h163v-154h-179l-1 3z" />
<glyph unicode="&#x62c;" horiz-adv-x="1114" arabic-form="isolated" d="M190 452v12q0 20 184 244h12v-4l-16 -56q-30 -112 114 -210l634 -454v-4l-108 -144l-14 20l-6 12l-64 47q-185 78 -354 78h-31q-119 0 -216 -105l-19 -49q0 -194 532 -347h25v-12l-223 -12q-290 0 -377 216q-37 79 -37 155v25q0 171 254 277q24 13 68 13l-6 4l-296 194 q-56 54 -56 100zM546 -194l128 132l152 -160l-120 -128z" />
<glyph unicode="&#x62c;" horiz-adv-x="1181" arabic-form="final" d="M177 452v12q0 20 184 244h12v-4l-16 -56q-30 -112 114 -210l399 -286h330v-154h-115l20 -14v-4l-108 -144l-14 20l-6 12l-64 47q-185 78 -354 78h-31q-119 0 -216 -105l-19 -49q0 -194 532 -347h25v-12l-223 -12q-290 0 -377 216q-37 79 -37 155v25q0 171 254 277 q24 13 68 13l-6 4l-296 194q-56 54 -56 100zM533 -194l128 132l152 -160l-120 -128z" />
<glyph unicode="&#x62c;" horiz-adv-x="1051" arabic-form="initial" d="M-24 2l1 150h493l-296 194q-56 54 -56 100v12q0 20 184 244h12v-4l-16 -56q-30 -112 114 -210l634 -454v-4l-108 -144l-14 20l-6 12l-192 140h-750zM118 -194l128 132l152 -160l-120 -128z" />
<glyph unicode="&#x62c;" horiz-adv-x="1181" arabic-form="medial" d="M-22 2l1 150h493l-296 194q-56 54 -56 100v12q0 20 184 244h12v-4l-16 -56q-30 -112 114 -210l391 -280h386v-154h-171l28 -20v-4l-108 -144l-14 20l-6 12l-192 140h-750zM120 -194l128 132l152 -160l-120 -128z" />
<glyph unicode="&#x62d;" horiz-adv-x="1106" arabic-form="isolated" d="M182 452v12q0 20 184 244h12v-4l-16 -56q-30 -112 114 -210l634 -454v-4l-108 -144l-14 20l-6 12l-64 47q-185 78 -354 78h-31q-119 0 -216 -105l-19 -49q0 -194 532 -347h25v-12l-223 -12q-290 0 -377 216q-37 79 -37 155v25q0 171 254 277q24 13 68 13l-6 4l-296 194 q-56 54 -56 100z" />
<glyph unicode="&#x62d;" horiz-adv-x="1173" arabic-form="final" d="M174 452v12q0 20 184 244h12v-4l-16 -56q-30 -112 114 -210l399 -286h330v-154h-115l20 -14v-4l-108 -144l-14 20l-6 12l-64 47q-185 78 -354 78h-31q-119 0 -216 -105l-19 -49q0 -194 532 -347h25v-12l-223 -12q-290 0 -377 216q-37 79 -37 155v25q0 171 254 277 q24 13 68 13l-6 4l-296 194q-56 54 -56 100z" />
<glyph unicode="&#x62d;" horiz-adv-x="1048" arabic-form="initial" d="M-27 2l1 150h493l-296 194q-56 54 -56 100v12q0 20 184 244h12v-4l-16 -56q-30 -112 114 -210l634 -454v-4l-108 -144l-14 20l-6 12l-192 140h-750z" />
<glyph unicode="&#x62d;" horiz-adv-x="1173" arabic-form="medial" d="M-25 2l1 150h493l-296 194q-56 54 -56 100v12q0 20 184 244h12v-4l-16 -56q-30 -112 114 -210l391 -280h386v-154h-171l28 -20v-4l-108 -144l-14 20l-6 12l-192 140h-750z" />
<glyph unicode="&#x62e;" horiz-adv-x="1097" arabic-form="isolated" d="M185 452v12q0 20 184 244h12v-4l-16 -56q-30 -112 114 -210l634 -454v-4l-108 -144l-14 20l-6 12l-64 47q-185 78 -354 78h-31q-119 0 -216 -105l-19 -49q0 -194 532 -347h25v-12l-223 -12q-290 0 -377 216q-37 79 -37 155v25q0 171 254 277q24 13 68 13l-6 4l-296 194 q-56 54 -56 100zM214 927l128 132l152 -160l-120 -128z" />
<glyph unicode="&#x62e;" horiz-adv-x="1197" arabic-form="final" d="M198 452v12q0 20 184 244h12v-4l-16 -56q-30 -112 114 -210l399 -286h330v-154h-115l20 -14v-4l-108 -144l-14 20l-6 12l-64 47q-185 78 -354 78h-31q-119 0 -216 -105l-19 -49q0 -194 532 -347h25v-12l-223 -12q-290 0 -377 216q-37 79 -37 155v25q0 171 254 277 q24 13 68 13l-6 4l-296 194q-56 54 -56 100zM227 931l128 132l152 -160l-120 -128z" />
<glyph unicode="&#x62e;" horiz-adv-x="1031" arabic-form="initial" d="M-34 2l1 150h483l-296 194q-56 54 -56 100v12q0 20 184 244h12v-4l-16 -56q-30 -112 114 -210l634 -454v-4l-108 -144l-14 20l-6 12l-192 140h-740zM148 926l128 132l152 -160l-120 -128z" />
<glyph unicode="&#x62e;" horiz-adv-x="1173" arabic-form="medial" d="M-25 2l1 150h493l-296 194q-56 54 -56 100v12q0 20 184 244h12v-4l-16 -56q-30 -112 114 -210l391 -280h386v-154h-171l28 -20v-4l-108 -144l-14 20l-6 12l-192 140h-750zM157 926l128 132l152 -160l-120 -128z" />
<glyph unicode="&#x62f;" horiz-adv-x="1088" arabic-form="isolated" d="M195 100l216 252h8q-14 -74 91.5 -141t204.5 -57h96v2l-324 204q-56 49 -56 104v12q0 32 188 244q8 -2 16 -20q-24 0 -24 -73t32 -95q267 -219 459 -375l-96 -156l-407 -1h-132q-190 0 -272 100z" />
<glyph unicode="&#x62f;" horiz-adv-x="1315" arabic-form="final" d="M173 100l216 252h8q-14 -74 91.5 -141t204.5 -57h96v2l-324 204q-56 49 -56 104v12q0 32 188 244q8 -2 16 -20q-24 0 -24 -73t32 -95q200 -164 465 -380h246v-154h-265l-1 3l-489 -1h-132q-190 0 -272 100z" />
<glyph unicode="&#x630;" horiz-adv-x="1088" arabic-form="isolated" d="M192 100l216 252h8q-14 -74 91.5 -141t204.5 -57h96v2l-324 204q-56 49 -56 104v12q0 32 188 244q8 -2 16 -20q-24 0 -24 -73t32 -95q267 -219 459 -375l-96 -156l-407 -1h-132q-190 0 -272 100zM479 926l128 132l152 -160l-120 -128z" />
<glyph unicode="&#x630;" horiz-adv-x="1314" arabic-form="final" d="M180 100l216 252h8q-14 -74 91.5 -141t204.5 -57h96v2l-324 204q-56 49 -56 104v12q0 32 188 244q8 -2 16 -20q-24 0 -24 -73t32 -95q200 -164 465 -380h246v-154h-265l-1 3l-489 -1h-132q-190 0 -272 100zM470 926l128 132l152 -160l-120 -128z" />
<glyph unicode="&#x631;" horiz-adv-x="914" arabic-form="isolated" d="M-170 -418q98 56 508 172q376 101 376 192q0 60 -172 148l-352 212q-16 30 -16 52q0 27 80 112l92 112q12 -4 12 -24q-16 -4 -16 -40q6 -64 244 -224q213 -153 312 -248l4 -16q-25 -84 -244 -236l-312 -196q-254 -68 -516 -20v4z" />
<glyph unicode="&#x631;" horiz-adv-x="994" arabic-form="final" d="M-170 -418q98 56 508 172q376 101 376 192q0 60 -172 148l-352 212q-16 30 -16 52q0 27 80 112l92 112q12 -4 12 -24q-16 -4 -16 -40q6 -64 244 -224q111 -79 190 -143l1 1h228v-160h-122q-52 -77 -225 -198l-312 -196q-254 -68 -516 -20v4z" />
<glyph unicode="&#x632;" horiz-adv-x="904" arabic-form="isolated" d="M-170 -418q98 56 508 172q376 101 376 192q0 60 -172 148l-352 212q-16 30 -16 52q0 27 80 112l92 112q12 -4 12 -24q-16 -4 -16 -40q6 -64 244 -224q213 -153 312 -248l4 -16q-25 -84 -244 -236l-312 -196q-254 -68 -516 -20v4zM197 926l128 132l152 -160l-120 -128z " />
<glyph unicode="&#x632;" horiz-adv-x="994" arabic-form="final" d="M-170 -418q98 56 508 172q376 101 376 192q0 60 -172 148l-352 212q-16 30 -16 52q0 27 80 112l92 112q12 -4 12 -24q-16 -4 -16 -40q6 -64 244 -224q111 -79 190 -143l1 1h228v-160h-122q-52 -77 -225 -198l-312 -196q-254 -68 -516 -20v4zM197 926l128 132l152 -160 l-120 -128z" />
<glyph unicode="&#x633;" horiz-adv-x="2195" arabic-form="isolated" d="M-173 -23l4 4h4q97 -102 203 -135q287 -110 654 -110h127q131 0 215 51q137 59 164.5 105t20 90.5t-187.5 405.5q-7 0 -16 40q168 184 168 192h4q7 0 24 -120q47 -195 145 -351l189 1v4q-77 69 -132 228q-7 0 -16 40q168 184 168 192h4q7 0 24 -120q46 -191 141 -345 l178 1v4q-77 69 -132 228q-7 0 -16 40q168 184 168 192h4q7 0 24 -120q69 -286 248 -488v-4l-530 -4v3l-268 -1q-9 -98 -270 -234q-305 -189 -452 -203q-254 43 -485 131q-174 76 -304 186q-72 73 -72 97z" />
<glyph unicode="&#x633;" horiz-adv-x="2262" arabic-form="final" d="M-173 -23l4 4h4q97 -102 203 -135q287 -110 654 -110h127q131 0 215 51q137 59 164.5 105t20 90.5t-187.5 405.5q-7 0 -16 40q168 184 168 192h4q7 0 24 -120q47 -195 145 -351l189 1v4q-77 69 -132 228q-7 0 -16 40q168 184 168 192h4q7 0 24 -120q46 -191 141 -345 l178 1v4q-77 69 -132 228q-7 0 -16 40q168 184 168 192h4q7 0 24 -120q46 -189 140 -342h190v-154h-292l1 2l-321 -2v3l-268 -1q-9 -98 -270 -234q-305 -189 -452 -203q-254 43 -485 131q-174 76 -304 186q-72 73 -72 97z" />
<glyph unicode="&#x633;" horiz-adv-x="1257" arabic-form="initial" d="M-28 -2v158h244v4q-77 69 -132 228q-7 0 -16 40q168 184 168 192h4q7 0 24 -120q47 -195 145 -351l189 1v4q-77 69 -132 228q-7 0 -16 40q168 184 168 192h4q7 0 24 -120q46 -191 141 -345l178 1v4q-77 69 -132 228q-7 0 -16 40q168 184 168 192h4q7 0 24 -120 q69 -286 248 -488v-4l-530 -4v3z" />
<glyph unicode="&#x633;" horiz-adv-x="1332" arabic-form="medial" d="M-13 -2v158h244v4q-77 69 -132 228q-7 0 -16 40q168 184 168 192h4q7 0 24 -120q47 -195 145 -351l189 1v4q-77 69 -132 228q-7 0 -16 40q168 184 168 192h4q7 0 24 -120q46 -191 141 -345l178 1v4q-77 69 -132 228q-7 0 -16 40q168 184 168 192h4q7 0 24 -120 q46 -189 140 -342h182v-154h-226v3l-378 -3v3z" />
<glyph unicode="&#x634;" horiz-adv-x="2195" arabic-form="isolated" d="M-178 -23l4 4h4q97 -102 203 -135q287 -110 654 -110h127q131 0 215 51q137 59 164.5 105t20 90.5t-187.5 405.5q-7 0 -16 40q168 184 168 192h4q7 0 24 -120q47 -195 145 -351l189 1v4q-77 69 -132 228q-7 0 -16 40q168 184 168 192h4q7 0 24 -120q46 -191 141 -345 l178 1v4q-77 69 -132 228q-7 0 -16 40q168 184 168 192h4q7 0 24 -120q69 -286 248 -488v-4l-530 -4v3l-268 -1q-9 -98 -270 -234q-305 -189 -452 -203q-254 43 -485 131q-174 76 -304 186q-72 73 -72 97zM1249 922l128 132l109 -115l111 115l152 -160l-120 -128l-115 112 l-105 -112zM1330 1125l128 132l152 -160l-120 -128z" />
<glyph unicode="&#x634;" horiz-adv-x="2270" arabic-form="final" d="M-160 -23l4 4h4q97 -102 203 -135q287 -110 654 -110h127q131 0 215 51q137 59 164.5 105t20 90.5t-187.5 405.5q-7 0 -16 40q168 184 168 192h4q7 0 24 -120q47 -195 145 -351l189 1v4q-77 69 -132 228q-7 0 -16 40q168 184 168 192h4q7 0 24 -120q46 -191 141 -345 l178 1v4q-77 69 -132 228q-7 0 -16 40q168 184 168 192h4q7 0 24 -120q46 -189 140 -342h190v-154h-292l1 2l-321 -2v3l-268 -1q-9 -98 -270 -234q-305 -189 -452 -203q-254 43 -485 131q-174 76 -304 186q-72 73 -72 97zM1267 922l128 132l109 -115l111 115l152 -160 l-120 -128l-115 112l-105 -112zM1348 1125l128 132l152 -160l-120 -128z" />
<glyph unicode="&#x634;" horiz-adv-x="1272" arabic-form="initial" d="M-19 -2v158h254v4q-77 69 -132 228q-7 0 -16 40q168 184 168 192h4q7 0 24 -120q47 -195 145 -351l189 1v4q-77 69 -132 228q-7 0 -16 40q168 184 168 192h4q7 0 24 -120q46 -191 141 -345l178 1v4q-77 69 -132 228q-7 0 -16 40q168 184 168 192h4q7 0 24 -120 q69 -286 248 -488v-4l-530 -4v3zM326 922l128 132l109 -115l111 115l152 -160l-120 -128l-115 112l-105 -112zM407 1125l128 132l152 -160l-120 -128z" />
<glyph unicode="&#x634;" horiz-adv-x="1323" arabic-form="medial" d="M-15 -2v158l244 4q-77 69 -132 228q-7 0 -16 40q168 184 168 192h4q7 0 24 -120q47 -195 145 -351l189 1v4q-77 69 -132 228q-7 0 -16 40q168 184 168 192h4q7 0 24 -120q46 -191 141 -345l178 1v4q-77 69 -132 228q-7 0 -16 40q168 184 168 192h4q7 0 24 -120 q46 -189 140 -342h182v-154h-226v3l-378 -3v3zM320 922l128 132l109 -115l111 115l152 -160l-120 -128l-115 112l-105 -112zM401 1125l128 132l152 -160l-120 -128z" />
<glyph unicode="&#x635;" horiz-adv-x="3250" arabic-form="isolated" d="M-244 -23l4 4h4q97 -102 203 -135q287 -110 654 -110h127q131 0 215 51q137 59 164.5 104.5t20.5 90.5q7 14 -115 170l-121 155l129 174l158 -209l72 122l1796 -2l197 -392l-1926 2l1 -3q-9 -98 -270 -233q-305 -189 -452 -203q-254 43 -485 131q-174 76 -304 186 q-72 73 -72 97zM1223 228q79 -60 139 -76h1647l-38 72l-1649 2z" />
<glyph unicode="&#x635;" horiz-adv-x="3267" arabic-form="final" d="M-363 -23l4 4h4q97 -102 203 -135q287 -110 654 -110h127q131 0 215 51q137 59 164.5 104.5t20.5 90.5q7 14 -115 169l-121 155l129 174l158 -209l72 122l1796 -2l121 -240h212v-153h-215l-1 2l-1846 1l1 -2q-9 -98 -270 -233q-305 -189 -452 -203q-254 43 -485 131 q-174 76 -304 186q-72 73 -72 97zM1104 227q79 -60 139 -76h1647l-38 72l-1649 2z" />
<glyph unicode="&#x635;" horiz-adv-x="2489" arabic-form="initial" d="M-34 2l4 150h290l-121 155l129 174l158 -209l72 122l1796 -2l197 -392l-2315 2h-210zM450 228q79 -60 139 -76h1647l-38 72l-1649 2z" />
<glyph unicode="&#x635;" horiz-adv-x="2630" arabic-form="medial" d="M-19 2l4 150h290l-121 155l129 174l158 -209l72 122l1796 -2l121 -240h217v-154h-238l-1 2l-2217 2h-210zM465 228q79 -60 139 -76h1647l-38 72l-1649 2z" />
<glyph unicode="&#x636;" horiz-adv-x="3250" arabic-form="isolated" d="M-249 -23l4 4h4q97 -102 203 -135q287 -110 654 -110h127q131 0 215 51q137 59 164.5 104.5t20.5 90.5q7 14 -115 170l-121 155l129 174l158 -209l72 122l1796 -2l197 -392l-1926 2l1 -3q-9 -98 -270 -233q-305 -189 -452 -203q-254 43 -485 131q-174 76 -304 186 q-72 73 -72 97zM1218 228q79 -60 139 -76h1647l-38 72l-1649 2zM1874 927l128 132l152 -160l-120 -128z" />
<glyph unicode="&#x636;" horiz-adv-x="3359" arabic-form="final" d="M-241 -23l4 4h4q97 -102 203 -135q287 -110 654 -110h127q131 0 215 51q137 59 164.5 104.5t20.5 90.5q7 14 -115 170l-121 155l129 174l158 -209l72 122l1796 -2l121 -240h183v-154h-215v2l-1818 2l1 -3q-9 -98 -270 -233q-305 -189 -452 -203q-254 43 -485 131 q-174 76 -304 186q-72 73 -72 97zM1226 228q79 -60 139 -76h1647l-38 72l-1649 2zM1882 927l128 132l152 -160l-120 -128z" />
<glyph unicode="&#x636;" horiz-adv-x="2484" arabic-form="initial" d="M-34 2l4 150h290l-121 155l129 174l158 -209l72 122l1796 -2l197 -392l-2315 2h-210zM450 228q79 -60 139 -76h1647l-38 72l-1649 2zM1173 927l128 132l152 -160l-120 -128z" />
<glyph unicode="&#x636;" horiz-adv-x="2610" arabic-form="medial" d="M-34 2l4 150h290l-121 155l129 174l158 -209l72 122l1796 -2l121 -240h214v-154h-286l1 2l-2168 2h-210zM450 228q79 -60 139 -76h1647l-38 72l-1649 2zM1173 927l128 132l152 -160l-120 -128z" />
<glyph unicode="&#x637;" horiz-adv-x="2638" arabic-form="isolated" d="M191 224h4q164 -66 204 -66h12v8h4q-20 225 -14 409q-18 342 -58 585q97 122 140 160q58 -345 48 -904q13 -174 32 -184l72 162l1796 -2l197 -392l-2315 2q-120 28 -120 36zM567 228q99 -60 159 -76h1647l-38 72l-1649 2z" />
<glyph unicode="&#x637;" horiz-adv-x="2739" arabic-form="final" d="M191 224h4q164 -66 204 -66h12v8h4q-20 225 -14 409q-18 342 -58 585q97 122 140 160q58 -345 48 -904q13 -174 32 -184l72 162l1796 -2l121 -240h206v-154h-224v2l-2221 2q-120 28 -120 36zM567 228q99 -60 159 -76h1647l-38 72l-1649 2z" />
<glyph unicode="&#x637;" horiz-adv-x="2424" arabic-form="initial" d="M-31 152h241l-6 14h4q-20 225 -14 409q-18 342 -58 585q97 122 140 160q58 -345 48 -904q13 -174 32 -184l72 162l1796 -2l197 -392l-2445 2zM360 228q99 -60 159 -76h1647l-38 72l-1649 2z" />
<glyph unicode="&#x637;" horiz-adv-x="2518" arabic-form="medial" d="M-34 152q170 6 228 0l-6 6v8h4q-20 225 -14 409q-18 342 -58 585q97 122 140 160q58 -345 48 -904q13 -174 32 -184l72 162l1796 -2l121 -240h206v-154h-224v2l-2341 2zM344 228q99 -60 159 -76h1647l-38 72l-1649 2z" />
<glyph unicode="&#x638;" horiz-adv-x="2613" arabic-form="isolated" d="M176 224h4q164 -66 204 -66h12v8h4q-20 225 -14 409q-18 342 -58 585q97 122 140 160q58 -345 48 -904q13 -174 32 -184l72 162l1796 -2l197 -392l-2315 2q-120 28 -120 36zM552 228q99 -60 159 -76h1647l-38 72l-1649 2zM1334 927l128 132l152 -160l-120 -128z" />
<glyph unicode="&#x638;" horiz-adv-x="2723" arabic-form="final" d="M180 224h4q164 -66 204 -66h12v8h4q-20 225 -14 409q-18 342 -58 585q97 122 140 160q58 -345 48 -904q13 -174 32 -184l72 162l1796 -2l121 -240h206v-154h-224v2l-2221 2q-120 28 -120 36zM556 228q99 -60 159 -76h1647l-38 72l-1649 2zM1368 927l128 132l152 -160 l-120 -128z" />
<glyph unicode="&#x638;" horiz-adv-x="2421" arabic-form="initial" d="M-32 2l2 150h242l-6 14h4q-20 225 -14 409q-18 342 -58 585q97 122 140 160q58 -345 48 -904q13 -174 32 -184l72 162l1796 -2l197 -392zM362 228q99 -60 159 -76h1647l-38 72l-1649 2zM1161 927l128 132l152 -160l-120 -128z" />
<glyph unicode="&#x638;" horiz-adv-x="2530" arabic-form="medial" d="M-29 152q180 6 238 0l-6 6v8h4q-20 225 -14 409q-18 342 -58 585q97 122 140 160q58 -345 48 -904q13 -174 32 -184l72 162l1796 -2l121 -240h206v-154h-224v2l-2351 2zM359 228q99 -60 159 -76h1647l-38 72l-1649 2zM1128 927l128 132l152 -160l-120 -128z" />
<glyph unicode="&#x639;" horiz-adv-x="1172" arabic-form="isolated" d="M173 -136q0 158 217 261l-35 27q-154 149 -154 168q-24 57 -24 104q0 52 148 216l348 208v-4q-87 -127 -124 -128q-153 -89 -184 -116q-28 -51 -28 -92v-4q0 -66 236 -264q143 -84 240 -84l4 -4h350l-98 -150l-569 -3q-131 -6 -228 -111l-19 -49q0 -194 532 -347h25v-12 l-223 -12q-290 0 -377 216q-37 79 -37 155v25z" />
<glyph unicode="&#x639;" horiz-adv-x="1123" arabic-form="final" d="M180 404v4q45 81 122 185l718 1l16 2v-4q-260 -362 -260 -376q99 -64 156 -64h201v-154l-187 4q-74 -62 -110 -62q-25 0 -88 60l-188 -1q-130 -6 -227 -111l-19 -49q0 -194 532 -347h25v-12l-223 -12q-290 0 -377 216q-37 79 -37 155v25q0 171 254 277q24 13 68 13 l-36 30q-5 7 -13 14q-54 43 -90 73q-44 31 -105 69q-73 44 -132 64zM528 428l100 -92l64 88l-80 4h-84z" />
<glyph unicode="&#x639;" horiz-adv-x="1324" arabic-form="initial" d="M-26 2l1 150h299q-154 149 -154 168q-24 57 -24 104q0 52 148 216l348 208v-4q-87 -127 -124 -128q-153 -89 -184 -116q-28 -51 -28 -92v-4q0 -66 236 -264q143 -84 240 -84l4 -4h4h596l-98 -150h-1264z" />
<glyph unicode="&#x639;" horiz-adv-x="926" arabic-form="medial" d="M-34 2l3 150l269 2q31 0 88 30q-41 51 -208 156q-73 44 -132 64v4q45 81 122 185l718 1l16 2v-4q-260 -362 -260 -376q99 -64 156 -64h201v-154l-187 4q-74 -62 -110 -62q-25 0 -88 60zM334 428l100 -92l64 88l-80 4h-84z" />
<glyph unicode="&#x63a;" horiz-adv-x="1198" arabic-form="isolated" d="M182 927l128 132l152 -160l-120 -128zM212 -136q0 158 217 261l-35 27q-154 149 -154 168q-24 57 -24 104q0 52 148 216l348 208v-4q-87 -127 -124 -128q-153 -89 -184 -116q-28 -51 -28 -92v-4q0 -66 236 -264q143 -84 240 -84l4 -4h350l-98 -150l-569 -3 q-131 -6 -228 -111l-19 -49q0 -194 532 -347h25v-12l-223 -12q-290 0 -377 216q-37 79 -37 155v25z" />
<glyph unicode="&#x63a;" horiz-adv-x="1123" arabic-form="final" d="M183 404v4q45 81 122 185l718 1l16 2v-4q-260 -362 -260 -376q99 -64 156 -64h201v-154l-187 4q-74 -62 -110 -62q-25 0 -88 60l-188 -1q-130 -6 -227 -111l-19 -49q0 -194 532 -347h25v-12l-223 -12q-290 0 -377 216q-37 79 -37 155v25q0 171 254 277q24 13 68 13 l-36 30q-5 7 -13 14q-54 43 -90 73q-44 31 -105 69q-73 44 -132 64zM480 927l128 132l152 -160l-120 -128zM531 428l100 -92l64 88l-80 4h-84z" />
<glyph unicode="&#x63a;" horiz-adv-x="1332" arabic-form="initial" d="M-18 2l1 150h289q-154 149 -154 168q-24 57 -24 104q0 52 148 216l348 208v-4q-87 -127 -124 -128q-153 -89 -184 -116q-28 -51 -28 -92v-4q0 -66 236 -264q143 -84 240 -84l4 -4h4h596l-98 -150h-1254zM60 927l128 132l152 -160l-120 -128z" />
<glyph unicode="&#x63a;" horiz-adv-x="928" arabic-form="medial" d="M-34 2l3 150l269 2q31 0 88 30q-41 51 -208 156q-73 44 -132 64v4q45 81 122 185l718 1l16 2v-4q-260 -362 -260 -376q99 -64 156 -64h201v-154l-187 4q-74 -62 -110 -62q-25 0 -88 60zM280 927l128 132l152 -160l-120 -128zM334 428l100 -92l64 88l-80 4h-84z" />
<glyph unicode="&#x641;" horiz-adv-x="1801" arabic-form="isolated" d="M207 100l224 242q23 -55 140 -142q67 -40 133 -48h673l27 4q3 1 5 2q-97 97 -168 122q-32 44 -32 72v24q0 29 156 164q216 204 242 204l4 -4v-4q-38 -34 -38 -72t160 -316q84 -171 84 -208v-12q0 -65 -109 -124q0 -1 1 -2v-4l-12 1q-10 -6 -20 -11l-32 -8l-65 19h-1180 q-116 4 -193 101zM1332 926l128 132l152 -160l-120 -128zM1409 400q87 -100 196 -188l16 12q-126 179 -180 240q-32 -31 -32 -48v-16z" />
<glyph unicode="&#x641;" horiz-adv-x="1960" arabic-form="final" d="M209 100l224 242q23 -55 140 -142q67 -40 133 -48h673l27 4q3 1 5 2q-97 97 -168 122q-32 44 -32 72v24q0 29 156 164q216 204 242 204l4 -4v-4q-38 -34 -38 -72t160 -316q73 -149 83 -196h167v-154h-280v1h-6q-10 -6 -20 -11l-32 -8l-65 19h-1180q-116 4 -193 101z M1334 926l128 132l152 -160l-120 -128zM1411 400q87 -100 196 -188l16 12q-126 179 -180 240q-32 -31 -32 -48v-16z" />
<glyph unicode="&#x641;" horiz-adv-x="679" arabic-form="initial" d="M-30 2l2 150h304q-101 102 -174 128q-32 44 -32 72v24q0 29 156 164q216 204 242 204l4 -4v-4q-38 -34 -38 -72t160 -316q84 -171 84 -208v-12q0 -73 -140 -140l-32 -8l-72 20zM193 926l128 132l152 -160l-120 -128zM270 400q87 -100 196 -188l16 12q-126 179 -180 240 q-32 -31 -32 -48v-16z" />
<glyph unicode="&#x641;" horiz-adv-x="833" arabic-form="medial" d="M-34 2l2 150h294q-101 102 -174 128q-32 44 -32 72v24q0 29 156 164q216 204 242 204l4 -4v-4q-38 -34 -38 -72t160 -316q78 -159 84 -202h178v-148l-298 1q-10 -6 -20 -11l-32 -8l-72 20zM179 926l128 132l152 -160l-120 -128zM256 400q87 -100 196 -188l16 12 q-126 179 -180 240q-32 -31 -32 -48v-16z" />
<glyph unicode="&#x642;" horiz-adv-x="1747" arabic-form="isolated" d="M170 -23l5 4h4q97 -102 203 -135q287 -110 653 -110h127q131 0 215 51q190 83 190 144q0 18 -252 221q-111 92 -174 128q-32 44 -32 72v24q0 29 156 164q216 204 242 204l4 -4v-4q-38 -34 -38 -72t109 -236t127 -252h1l43 -161v-9q0 -100 -270 -240q-305 -189 -451 -203 q-254 43 -486 131q-173 76 -304 186q-72 73 -72 97zM1215 912l128 132l109 -115l111 115l152 -160l-120 -128l-115 112l-105 -112zM1309 400q87 -100 196 -188l16 12q-126 179 -180 240q-32 -31 -32 -48v-16z" />
<glyph unicode="&#x642;" horiz-adv-x="1901" arabic-form="final" d="M192 -23l5 4h4q97 -102 203 -135q287 -110 653 -110h127q131 0 215 51q190 83 190 144q0 18 -252 221q-111 92 -174 128q-32 44 -32 72v24q0 29 156 164q216 204 242 204l4 -4v-4q-38 -34 -38 -72t109 -236t127 -252h1l6 -24h188v-154l-151 1q-11 -98 -270 -233 q-305 -189 -451 -203q-254 43 -486 131q-173 76 -304 186q-72 73 -72 97zM1237 912l128 132l109 -115l111 115l152 -160l-120 -128l-115 112l-105 -112zM1331 400q87 -100 196 -188l16 12q-126 179 -180 240q-32 -31 -32 -48v-16z" />
<glyph unicode="&#x642;" horiz-adv-x="687" arabic-form="initial" d="M-20 2l2 150h294q-101 102 -174 128q-32 44 -32 72v24q0 29 156 164q216 204 242 204l4 -4v-4q-38 -34 -38 -72t160 -316q84 -171 84 -208v-12q0 -73 -140 -140l-32 -8l-72 20zM176 912l128 132l109 -115l111 115l152 -160l-120 -128l-115 112l-105 -112zM270 400 q87 -100 196 -188l16 12q-126 179 -180 240q-32 -31 -32 -48v-16z" />
<glyph unicode="&#x642;" horiz-adv-x="833" arabic-form="medial" d="M-34 2l2 150h294q-101 102 -174 128q-32 44 -32 72v24q0 29 156 164q216 204 242 204l4 -4v-4q-38 -34 -38 -72t160 -316q78 -159 84 -202h178v-148l-298 1q-10 -6 -20 -11l-32 -8l-72 20zM162 912l128 132l109 -115l111 115l152 -160l-120 -128l-115 112l-105 -112z M256 400q87 -100 196 -188l16 12q-126 179 -180 240q-32 -31 -32 -48v-16z" />
<glyph unicode="&#x643;" horiz-adv-x="1649" arabic-form="isolated" d="M143 100l224 242q23 -55 140 -142q67 -40 133 -48h673l27 4l20 -4h84v96q0 413 -54 942l133 154q34 0 40 -364.5t3 -565.5t78 -411l1 -1v-4l-1309 1q-116 4 -193 101zM749 470l31 71h70q-54 33 -54 40q-8 20 -8 36q0 19 52 76l121 72v-1q-30 -44 -43 -45q-54 -31 -64 -40 q-10 -18 -10 -32v-2q0 -23 82 -73q50 -30 84 -30l1 -1h2h40l-34 -71h-270z" />
<glyph unicode="&#x643;" horiz-adv-x="1818" arabic-form="final" d="M191 100l224 242q23 -55 140 -142q67 -40 133 -48h673l27 4l20 -4h84v96q0 413 -54 942l133 154q34 0 40 -364.5t3 -565.5q-2 -129 31 -262h195v-154h-250v1h-1206q-116 4 -193 101zM797 470l31 71h70q-54 33 -54 40q-8 20 -8 36q0 19 52 76l121 72v-1q-30 -44 -43 -45 q-54 -31 -64 -40q-10 -18 -10 -32v-2q0 -23 82 -73q50 -30 84 -30l1 -1h42l-34 -71h-270z" />
<glyph unicode="&#x643;" horiz-adv-x="2205" arabic-form="initial" d="M-34 -2v154h2001l-50 89h-1779l6 6q3 3 6 5l102 99q490 490 570 899l164 80q-60 -470 -487 -940h1519l197 -392h-2249z" />
<glyph unicode="&#x643;" horiz-adv-x="2325" arabic-form="medial" d="M-34 -2v154h2001l-50 89h-1779l6 6q3 3 6 5l102 99q490 490 570 899l164 80q-60 -470 -487 -940h1519l120 -238h205v-154h-2377z" />
<glyph unicode="&#x644;" horiz-adv-x="699" arabic-form="isolated" d="M-478 -288q204 24 492 20h180q83 0 270 136q18 62 29 139l2 145h-3v96q0 413 -54 942l133 154q34 0 40 -364.5t6 -566t75 -411.5h-10v-1l4 -9v-12q0 -48 -145 -143q-25 -18 -55 -35q-26 -16 -56 -34q-271 -178 -380 -200l-60 -4q-167 0 -468 136v12z" />
<glyph unicode="&#x644;" horiz-adv-x="863" arabic-form="final" d="M-447 -288q204 24 492 20h180q83 0 270 136q18 62 29 139l2 145h-3v96q0 413 -54 942l133 154q34 0 40 -364.5t6 -565.5q0 -130 31 -262h196v-154h-161l3 -6v-12q0 -48 -145 -143q-25 -18 -55 -35q-26 -16 -56 -34q-271 -178 -380 -200l-60 -4q-167 0 -468 136v12z" />
<glyph unicode="&#x644;" horiz-adv-x="327" arabic-form="initial" d="M-27 2l3 150h166v96q0 413 -54 942l133 154q34 0 40 -364.5t3 -566t78 -411.5h-369z" />
<glyph unicode="&#x644;" horiz-adv-x="478" arabic-form="medial" d="M-29 2l3 150h176v96q0 413 -54 942l133 154q34 0 40 -364.5t1 -531.5t29 -296h196v-154h-250v4h-274z" />
<glyph unicode="&#x645;" horiz-adv-x="913" arabic-form="isolated" d="M-431 -414q98 56 508 172q376 101 376 192q0 34 -7 51h-6l-9 16l-1 2l-72 133q-39 134 -39 204q0 59 434 266q13 -16 168 -616l-6 -6l-289 1q-50 -78 -229 -203l-312 -196q-254 -68 -516 -20v4zM533 369q0 -103 90 -217h52l-65 269h-6q-71 -40 -71 -52z" />
<glyph unicode="&#x645;" horiz-adv-x="1097" arabic-form="final" d="M-419 -414q98 56 508 172q376 101 376 192q0 34 -7 51h-6l-9 16l-1 2l-72 133q-39 134 -39 204q0 59 434 266q11 -14 130 -470h216v-154h-245v2l-228 1q-50 -78 -229 -203l-312 -196q-254 -68 -516 -20v4zM545 369q0 -103 90 -217h52l-65 269h-6q-71 -40 -71 -52z" />
<glyph unicode="&#x645;" horiz-adv-x="704" arabic-form="initial" d="M-19 1l2 151h166q-39 134 -39 204q0 59 434 266q13 -16 168 -616l-6 -6zM324 369q0 -103 90 -217h52l-65 269h-6q-71 -40 -71 -52z" />
<glyph unicode="&#x645;" horiz-adv-x="855" arabic-form="medial" d="M-19 1l2 151h166q-39 134 -39 204q0 59 434 266q11 -14 130 -470h190v-154h-214v2zM324 369q0 -103 90 -217h52l-65 269h-6q-71 -40 -71 -52z" />
<glyph unicode="&#x646;" horiz-adv-x="1750" arabic-form="isolated" d="M170 -23l4 4h4q97 -102 203 -135q287 -110 654 -110h127q131 0 215 51q190 83 190 144q0 31 -130 126q-242 167 -414 257q-21 24 -21 51v4q0 51 97 140l88 101q13 0 13 -17l-8 -25v-26q0 -73 93 -126q265 -203 405 -330l63 -71v-9q0 -100 -270 -240q-305 -189 -452 -203 q-254 43 -485 131q-174 76 -304 186q-72 73 -72 97zM812 53q0 11 131 135h4l164 -169l-135 -135q-164 158 -164 169z" />
<glyph unicode="&#x646;" horiz-adv-x="1879" arabic-form="final" d="M170 -23l4 4h4q97 -102 203 -135q287 -110 654 -110h127q131 0 215 51q190 83 190 144q0 31 -130 126q-242 167 -414 257q-21 24 -21 51v4q0 51 97 140l88 101q13 0 13 -17l-8 -25v-26q0 -73 93 -126q201 -154 330 -264h294v-160h-157q-18 -95 -269 -226 q-305 -189 -452 -203q-254 43 -485 131q-174 76 -304 186q-72 73 -72 97zM812 53q0 11 131 135h4l164 -169l-135 -135q-164 158 -164 169z" />
<glyph unicode="&#x646;" horiz-adv-x="519" arabic-form="initial" d="M-18 -2v152h244v4q-77 69 -132 228q-7 0 -16 40q168 184 168 192h4q7 0 24 -120q69 -286 248 -488v-4zM6 926l128 132l152 -160l-120 -128z" />
<glyph unicode="&#x646;" horiz-adv-x="561" arabic-form="medial" d="M-24 -2v152h244v4q-77 69 -132 228q-7 0 -16 40q168 184 168 192h4q7 0 24 -120q46 -189 140 -342h178v-154h-252v3zM0 926l128 132l152 -160l-120 -128z" />
<glyph unicode="&#x647;" horiz-adv-x="771" arabic-form="isolated" d="M170 366q0 66 224 168l-30 104l214 150q24 -175 72 -370l82 -266l50 -151l-442 1q-170 172 -170 364zM354 390q0 -34 90 -238h80l-94 278h-16q-60 -30 -60 -40z" />
<glyph unicode="&#x647;" horiz-adv-x="880" arabic-form="final" d="M171 366q0 66 224 168l-30 104l214 150q24 -175 72 -370l82 -266h156l4 -151l-552 1q-170 172 -170 364zM355 390q0 -34 90 -238h80l-94 278h-16q-60 -30 -60 -40z" />
<glyph unicode="&#x647;" horiz-adv-x="769" arabic-form="initial" d="M-34 0v147l4 4v4l224 2q-124 166 -124 238v12q0 93 188 144l424 160v-4q-32 -84 -32 -100q120 -409 120 -528q0 -77 -236 -156l-44 -8q-51 0 -138 97l-4 4h-4q-10 -22 -104 -18zM278 419q64 -124 96 -144h4q46 38 80 168v12q0 25 -36 44q-144 -47 -144 -76v-4zM486 123 q41 -47 96 -68l32 16q-28 168 -56 168q-72 -104 -72 -116z" />
<glyph unicode="&#x647;" horiz-adv-x="935" arabic-form="medial" d="M-34 0v147l4 4v4l224 2q-124 166 -124 238v12q0 93 188 144l424 160v-4q-32 -84 -32 -100q91 -312 113 -455h184v-154l-241 1q-59 -38 -172 -76l-44 -8q-51 0 -138 97l-4 4h-4q-10 -22 -104 -18zM278 419q64 -124 96 -144h4q46 38 80 168v12q0 25 -36 44 q-144 -47 -144 -76v-4zM486 123q41 -47 96 -68l32 16q-28 168 -56 168q-72 -104 -72 -116z" />
<glyph unicode="&#x648;" horiz-adv-x="1215" arabic-form="isolated" d="M186 -412q0 8 228 76q453 148 608 212q40 29 40 68v4q0 40 -68 75q-177 145 -420 308l-12 40q0 70 88 132l296 268h4v-4q-24 -51 -24 -96q195 -334 248 -448q48 -129 48 -208q-36 -126 -300 -283q-226 -160 -348 -160l-72 -4q-97 -10 -316 16v4zM770 447q0 -41 76 -96 l104 -92l-140 228q-40 -12 -40 -40z" />
<glyph unicode="&#x648;" horiz-adv-x="1022" arabic-form="final" d="M-177 -412q0 8 228 76q453 148 608 212q40 29 40 68v4q0 40 -68 75q-177 145 -420 308l-12 40q0 70 88 132l296 268h4v-4q-24 -51 -24 -96q195 -334 248 -448q14 -38 24 -71h203v-154l-185 1q-48 -120 -294 -267q-226 -160 -348 -160l-72 -4q-97 -10 -316 16v4zM407 447 q0 -41 76 -96l104 -92l-140 228q-40 -12 -40 -40z" />
<glyph unicode="&#x649;" horiz-adv-x="1696" arabic-form="isolated" d="M170 -310q204 24 492 20h180q91 0 308 164l12 20v4q-16 21 -256 224l-4 28v28q0 50 156 228q58 68 88 68q108 -29 356 -264q109 -84 210 -208h-242q-24 0 -280 232q-32 44 -76 44q-18 -8 -20 -16v-16q21 -59 224 -240l16 -36v-12q0 -64 -256 -212q-271 -178 -380 -200 l-60 -4q-167 0 -468 136v12z" />
<glyph unicode="&#x649;" horiz-adv-x="1733" arabic-form="final" d="M170 -310q204 24 492 20h180q91 0 308 164l12 20v4q-16 21 -256 224l-4 28v28q0 50 156 228q58 68 88 68q108 -29 356 -264q109 -74 242 -58l2 -146l-4 -4h-272q-24 0 -280 232q-32 44 -76 44q-18 -8 -20 -16v-16q21 -59 224 -240l16 -36v-12q0 -64 -256 -212 q-271 -178 -380 -200l-60 -4q-167 0 -468 136v12z" />
<glyph unicode="&#x64a;" horiz-adv-x="1694" arabic-form="isolated" d="M170 -310q204 24 492 20h180q91 0 308 164l12 20v4q-16 21 -256 224l-4 28v28q0 50 156 228q58 68 88 68q108 -29 356 -264q109 -84 210 -208h-242q-24 0 -280 232q-32 44 -76 44q-18 -8 -20 -16v-16q21 -59 224 -240l16 -36v-12q0 -64 -256 -212q-271 -178 -380 -200 l-60 -4q-167 0 -468 136v12zM434 -680l128 132l109 -114l111 114l152 -160l-120 -128l-115 113l-105 -113z" />
<glyph unicode="&#x64a;" horiz-adv-x="1733" arabic-form="final" d="M170 -310q204 24 492 20h180q91 0 308 164l12 20v4q-16 21 -256 224l-4 28v28q0 50 156 228q58 68 88 68q108 -29 356 -264q109 -74 242 -58l2 -146l-4 -4h-272q-24 0 -280 232q-32 44 -76 44q-18 -8 -20 -16v-16q21 -59 224 -240l16 -36v-12q0 -64 -256 -212 q-271 -178 -380 -200l-60 -4q-167 0 -468 136v12zM367 -680l128 132l109 -114l111 114l152 -160l-120 -128l-115 113l-105 -113z" />
<glyph unicode="&#x64a;" horiz-adv-x="528" arabic-form="initial" d="M-113 -198l128 132l109 -114l111 114l152 -160l-120 -128l-115 113l-105 -113zM-21 -2v152h244v4q-77 69 -132 228q-7 0 -16 40q168 184 168 192h4q7 0 24 -120q69 -286 248 -488v-4z" />
<glyph unicode="&#x64a;" horiz-adv-x="586" arabic-form="medial" d="M-124 -198l128 132l109 -114l111 114l152 -160l-120 -128l-115 113l-105 -113zM-32 -2v152h244v4q-77 69 -132 228q-7 0 -16 40q168 184 168 192h4q7 0 24 -120q47 -193 143 -348h194v-148h-214l-1 3z" />
<glyph unicode="&#xd;" horiz-adv-x="500" />
<glyph unicode=" "  horiz-adv-x="500" />
<glyph unicode="&#x09;" horiz-adv-x="500" />
<glyph unicode="&#xa0;" horiz-adv-x="500" />
<glyph unicode="!" horiz-adv-x="394" d="M192 125q0 42 29 71t71 29t71 -29t29 -71t-29 -71t-71 -29t-71 29t-29 71zM192 995q0 82 24 125t77 43q51 0 75 -43.5t24 -124.5q0 -50 -15.5 -150t-31 -207t-15.5 -192v-115h-76v115q0 84 -15.5 191t-31 207t-15.5 151z" />
<glyph unicode="&#x22;" horiz-adv-x="701" d="M107 1139q34 47 94 47q55 0 93 -47l-41 -450h-107zM408 1141q34 43 93 45q54 1 94 -45l-41 -452h-107z" />
<glyph unicode="(" horiz-adv-x="647" d="M104 486q-3 419 395 869l100 -57q-276 -385 -276 -812q0 -424 276 -815l-98 -57q-211 237 -303.5 443.5t-93.5 428.5z" />
<glyph unicode=")" horiz-adv-x="647" d="M47 -329q276 392 277 815q0 423 -277 812l99 57q395 -442 397 -869q1 -215 -95 -428.5t-302 -443.5z" />
<glyph unicode="*" horiz-adv-x="750" d="M83 696q-1 33 24.5 58t59.5 25q33 0 56.5 -24.5t24.5 -58.5q1 -33 -24 -57.5t-59 -25.5q-32 -1 -58 24q-23 22 -24 59zM154 452q-1 34 24.5 59t59.5 25t57 -25t24 -59q1 -33 -24 -60q-21 -23 -57 -24q-31 -1 -60 24q-23 27 -24 60zM294 846q-2 33 24 59q23 25 58 25 q32 0 56 -23.5t25 -60.5q1 -34 -23 -57t-58 -25q-35 -1 -58 23t-24 59zM308 628q-2 29 18.5 48.5t49.5 19.5q25 0 46.5 -20t21.5 -48q0 -66 -68 -69q-25 -1 -50 20q-17 20 -18 49zM428 452q-1 35 23 58.5t60 24.5q34 1 57.5 -23.5t24.5 -59.5q1 -33 -26 -60q-23 -23 -58 -24 q-33 -1 -56.5 23.5t-24.5 60.5zM502 695q-1 35 25 59q22 25 58 25q32 0 57 -23.5t25 -60.5q0 -35 -24 -59t-58 -25q-35 -1 -58 23.5t-25 60.5z" />
<glyph unicode="+" d="M129 497v136h267v282h135v-282h267v-136h-267v-283h-135v283h-267z" />
<glyph unicode="-" d="M129 496v136h669v-136h-669z" />
<glyph unicode="." horiz-adv-x="450" d="M100 114q0 53 36 88.5t90 37.5q49 1 86 -36.5t38 -89.5q1 -51 -36.5 -87.5t-87.5 -36.5q-51 0 -90 36q-36 32 -36 88z" />
<glyph unicode="/" horiz-adv-x="971" d="M21 -326l801 1679l129 -63l-802 -1679z" />
<glyph unicode="0" horiz-adv-x="486" d="M129 519q0 46 22 117q23 75 42 75t109 -48q96 -52 96 -74q0 -38 -15 -98q-20 -76 -46 -83q-18 0 -90 25q-93 31 -115 66q-3 5 -3 20z" />
<glyph unicode="1" horiz-adv-x="679" d="M167 845q-3 13 27 156q4 18 13 18q17 0 45 -54q172 -259 198 -310q111 -212 127 -445q3 -51 -18 -138.5t-37 -87.5q-9 0 -13 35q-7 95 -15 190q-16 83 -114 262q-38 70 -134 211q-59 86 -79 163z" />
<glyph unicode="2" horiz-adv-x="692" d="M122 830q0 10 14 41q17 37 25 78q5 23 14 23q2 0 67 -78t134 -76q113 3 150 64q10 16 40 146q2 9 10 9q29 0 29 -48q0 -200 -60 -286q-40 -59 -148 -98q39 -115 89 -306q18 -118 18 -160q0 -56 -15 -91q-19 -45 -26 -45q-3 0 -26 130q-29 167 -98 307q-53 108 -150 253 q-67 100 -67 137z" />
<glyph unicode="3" horiz-adv-x="913" d="M132 809q0 32 13 95q14 76 30 76q6 0 11 -10q60 -109 74 -124q29 -32 94 -32q92 0 132 60q32 68 64 135q6 12 17 12q30 0 24 -41q-2 -15 -2 -29q0 -81 71 -81q52 0 69 17q23 23 47 117q5 12 11 12q19 0 19 -46q0 -101 -45 -197q-49 -104 -109 -104q-51 0 -75 17l-50 42 q-19 -42 -73.5 -77t-89.5 -31q21 -68 43 -137q33 -131 33 -278q0 -197 -23 -197q-10 0 -23 41q-6 50 -20 161q-18 142 -123 364q-27 58 -81 155q-38 70 -38 80z" />
<glyph unicode="4" horiz-adv-x="870" d="M124 600q0 107 148 282q139 165 195 165q12 0 12 -14q0 -20 -25 -90q-23 -62 -129 -138q-98 -69 -98 -98q0 -6 2 -12q9 -24 75 -43q94 -26 115 -37q60 -30 60 -82q0 -76 -47.5 -152t-47.5 -111q0 -80 137 -80q89 0 199 34q29 9 44 9q34 0 -19 -58q-96 -105 -158 -139 q-67 -36 -174 -36q-70 0 -113.5 40.5t-43.5 108.5q0 44 40 131.5t40 114.5q0 33 -55 47q-80 19 -102 33q-55 36 -55 125z" />
<glyph unicode="5" horiz-adv-x="721" d="M127 355q-6 95 64 306q85 257 195 257q55 0 134 -106q94 -126 94 -281q0 -150 -74 -252q-81 -112 -223 -121q-49 -3 -107 40q-76 56 -83 157zM198 446q0 -13 3 -20q39 -91 136 -78q3 -4 17 -4q54 0 110 24q73 32 73 85q0 87 -82 182q-75 88 -118 81q-50 -4 -97 -110 q-42 -95 -42 -160z" />
<glyph unicode="6" horiz-adv-x="895" d="M109 831q0 41 17 94q22 67 54 67q6 0 12 -2q89 -32 187 -32q46 0 108 8t76 8q38 0 40 -28q17 -293 70 -476q15 -51 73 -149q50 -84 50 -117q0 -80 -29 -125q-13 -20 -29 -20q-50 0 -109 155q-51 134 -71 285q-11 84 -21 284q-96 -36 -225 -36q-203 0 -203 84z" />
<glyph unicode="7" horiz-adv-x="921" d="M145 794l14 116q4 30 20 30q52 0 186 -247q130 -241 160 -378q190 689 259 689q19 0 22 -71q3 -72 -7 -105q-16 -50 -49 -123q-41 -94 -105 -271q-113 -401 -157 -401q-12 0 -17 30q-9 56 -19 113q-10 54 -32 107q-66 161 -142 272q-48 65 -97 130q-36 51 -36 109z" />
<glyph unicode="8" horiz-adv-x="879" d="M161 99q-13 151 15 197q68 112 121 298q35 139 70 277q32 122 58 122q16 0 41 -100q34 -141 95 -252q88 -160 170 -248q52 -57 50 -69q-11 -79 -16 -205q-1 -33 -17 -33q-47 0 -176.5 242t-161.5 387q-15 -114 -75 -299q-58 -179 -110 -280q-58 -112 -64 -37z" />
<glyph unicode="9" horiz-adv-x="829" d="M147 685q-3 115 50 227q57 123 132 122q107 -2 163 -151q30 -81 52 -247q17 -130 73 -236q50 -84 101 -167q15 -25 15 -58q0 -23 -25 -117q-16 -35 -27 -35q-13 0 -32 20q-82 90 -136 259q-47 145 -56 281q-99 -67 -148 -67q-13 0 -26 3q-61 12 -98 60q-37 45 -38 106z M247 783q-9 -44 59 -44q19 0 33 7q28 25 28 38q0 17 -24.5 29t-49.5 11q-39 -10 -46 -41z" />
<glyph unicode=":" horiz-adv-x="450" d="M100 114q0 53 36 88.5t90 37.5q49 1 86 -36.5t38 -89.5q1 -51 -36.5 -87.5t-87.5 -36.5q-51 0 -90 36q-36 32 -36 88zM100 643q0 53 36.5 88.5t89.5 36.5q50 1 86.5 -36.5t37.5 -88.5t-36 -88t-88 -37q-55 0 -90.5 35.5t-35.5 89.5z" />
<glyph unicode="=" d="M129 332v136h669v-136h-669zM129 661v136h669v-136h-669z" />
<glyph unicode="[" horiz-adv-x="601" d="M120 -365v1698h408v-119h-224v-1459h224v-120h-408z" />
<glyph unicode="]" horiz-adv-x="601" d="M73 -245h224v1459h-224v119h408v-1698h-408v120z" />
<glyph unicode="{" horiz-adv-x="1032" d="M119 531l127 31l2 173l156 -129l-107 -107l111 -115l-160 -155l2 207l-130 36zM308 802h175q84 263 344 554l100 -57q-168 -237 -238 -497h111l-139 -170l-116 107l-104 -107zM319 172l128 171l109 -107l110 107l146 -171h-120q64 -258 235 -500l-99 -56 q-261 296 -345 556h-164zM467 494q-1 34 24 58.5t60 24.5q80 0 82 -83q3 -80 -82 -83q-33 -1 -60 23q-23 26 -24 60zM693 384l109 115l-107 107l157 129l2 -173l128 -31l-2 -59l-129 -36l1 -207z" />
<glyph unicode="}" horiz-adv-x="1032" d="M51 531l127 31l2 173l157 -129l-108 -107l111 -115l-160 -155l2 207l-130 36zM104 -328q169 237 238 500h-121l145 171l111 -107l109 107l127 -171h-164q-85 -260 -347 -556zM104 1299l100 57q259 -294 347 -554h172l-132 -170l-103 107l-116 -107l-141 170h111 q-65 258 -238 497zM397 494q-1 34 24.5 58.5t59.5 24.5q80 0 83 -83q3 -80 -83 -83q-33 -1 -60 23q-23 26 -24 60zM625 384l109 115l-107 107l157 129l2 -173l128 -31l-2 -59l-129 -36l1 -207z" />
<glyph unicode="&#xab;" horiz-adv-x="901" d="M85 567l255 386l112 -68l-209 -318l209 -317l-112 -68zM425 567l254 386l114 -68l-208 -318l208 -317l-114 -68z" />
<glyph unicode="&#xad;" d="M129 496v136h669v-136h-669z" />
<glyph unicode="&#xbb;" horiz-adv-x="901" d="M109 250l209 317l-209 318l113 68l253 -386l-253 -385zM450 250l209 317l-209 318l112 68l255 -386l-255 -385z" />
<glyph unicode="&#xd7;" d="M120 289l254 275l-254 277l92 89l251 -271l250 271l94 -91l-253 -275l253 -277l-92 -90l-252 273l-249 -271z" />
<glyph unicode="&#xf7;" d="M129 496v136h669v-136h-669zM341 245q0 54 35.5 89.5t89.5 36.5q49 1 86 -36.5t38 -89.5q2 -51 -35.5 -87.5t-88.5 -36.5t-90 36q-35 33 -35 88zM341 867q0 53 35.5 88.5t89.5 37.5q49 1 86 -36.5t38 -89.5q2 -51 -35.5 -87.5t-88.5 -36.5t-90 36q-35 32 -35 88z" />
<glyph unicode="&#x60c;" horiz-adv-x="479" d="M10 -287l152 455q44 58 128 59q75 1 89 -59l-246 -455h-123z" />
<glyph unicode="&#x61b;" horiz-adv-x="479" d="M100 105q0 53 36 88.5t90 37.5q47 2 87 -38q36 -37 37 -88t-36 -87.5t-88 -36.5q-54 0 -90 35.5t-36 88.5zM100 580l247 456h121l-150 -456q-46 -61 -128 -62q-77 -1 -90 62z" />
<glyph unicode="&#x61f;" horiz-adv-x="686" d="M161 823q0 114 82 194t195 80q99 0 168 -63t69 -159q0 -65 -33 -106t-85 -41q-35 0 -63 27t-28 65q0 59 51.5 88t51.5 55q0 29 -39 55t-90 26q-63 0 -102 -37t-39 -103q0 -128 51 -212q48 -63 97 -125q52 -74 52 -173q0 -23 -18 -74q-6 -17 -18 -47h-47q6 19 8 30 q8 34 8 53q0 35 -13 72q-16 44 -43 67l-77 63q-67 55 -102.5 122.5t-35.5 142.5zM335 100q0 42 29 71t71 29t71 -29t29 -71t-29 -71t-71 -29t-71 29t-29 71z" />
<glyph unicode="&#x621;" horiz-adv-x="822" d="M166 2l66 153h153q-116 72 -116 87q-19 43 -19 78q0 40 112 163l263 157v-3q-66 -96 -94 -97q-116 -67 -139 -87q-21 -39 -21 -69v-3q0 -50 178 -160q108 -63 181 -63l3 -3h3h88l-74 -153h-584z" />
<glyph unicode="&#x622;" horiz-adv-x="511" d="M60 1329q7 27 13 44q32 98 76.5 128t125.5 9.5t110 -20.5q17 0 28 4q40 16 75 39q24 16 49 33q-22 -87 -67 -124q-37 -30 -93 -30q-29 0 -84 11t-77 11q-15 0 -29 -4q-29 -7 -55 -33q-65 -64 -72 -68zM198 1157l132 176q92 -571 78 -1008q10 -134 150 -208l204 -112v-4 q-88 -16 -152 -16q-232 0 -316 148q-16 43 -16 84q6 465 -80 940z" />
<glyph unicode="&#x623;" horiz-adv-x="523" d="M120 1384l31 71h70q-54 33 -54 40q-8 20 -8 36q0 19 52 76l121 72v-1q-30 -44 -43 -45q-54 -31 -64 -40q-10 -18 -10 -32v-2q0 -23 82 -73q50 -30 84 -30l1 -1h42l-34 -71h-270zM198 1157l132 176q92 -571 78 -1008q10 -134 150 -208l204 -112v-4q-88 -16 -152 -16 q-232 0 -316 148q-16 43 -16 84q6 465 -80 940z" />
<glyph unicode="&#x624;" horiz-adv-x="1176" d="M136 -412q0 8 228 76q453 148 608 212q40 29 40 68v4q0 40 -68 75q-177 145 -420 308l-12 40q0 70 88 132l296 268h4v-4q-24 -51 -24 -96q195 -334 248 -448q48 -129 48 -208q-36 -126 -300 -283q-226 -160 -348 -160l-72 -4q-97 -10 -316 16v4zM548 761l31 71h70 q-54 33 -54 40q-8 20 -8 36q0 19 52 76l121 72v-1q-30 -44 -43 -45q-54 -31 -64 -40q-10 -18 -10 -32v-2q0 -23 82 -73q50 -30 84 -30l1 -1h42l-34 -71h-270zM720 447q0 -41 76 -96l104 -92l-140 228q-40 -12 -40 -40z" />
<glyph unicode="&#x625;" horiz-adv-x="546" d="M158 1157l132 176q92 -571 78 -1008q10 -134 150 -208l204 -112v-4q-88 -16 -152 -16q-232 0 -316 148q-16 43 -16 84q6 465 -80 940zM226 -367l31 71h70q-54 33 -54 40q-8 20 -8 36q0 19 52 76l121 72v-1q-30 -44 -43 -45q-54 -31 -64 -40q-10 -18 -10 -32v-2 q0 -23 82 -73q50 -30 84 -30l1 -1h42l-34 -71h-270z" />
<glyph unicode="&#x626;" horiz-adv-x="1725" d="M189 -310q204 24 492 20h180q91 0 308 164l12 20v4q-16 21 -256 224l-4 28v28q0 50 156 228q58 68 88 68q108 -29 356 -264q109 -84 210 -208h-242q-24 0 -280 232q-32 44 -76 44q-18 -8 -20 -16v-16q21 -59 224 -240l16 -36v-12q0 -64 -256 -212q-271 -178 -380 -200 l-60 -4q-167 0 -468 136v12zM194 -6l31 71h70q-54 33 -54 40q-8 20 -8 36q0 19 52 76l121 72v-1q-30 -44 -43 -45q-54 -31 -64 -40q-10 -18 -10 -32v-2q0 -23 82 -73q50 -30 84 -30l1 -1h42l-34 -71h-270z" />
<glyph unicode="&#x627;" horiz-adv-x="524" d="M170 1157l132 176q92 -571 78 -1008q10 -134 150 -208l204 -112v-4q-88 -16 -152 -16q-232 0 -316 148q-16 43 -16 84q6 465 -80 940z" />
<glyph unicode="&#x628;" horiz-adv-x="1666" d="M170 100l224 242q23 -55 140 -142q67 -40 133 -48h673l27 4q-76 69 -130 226q-7 0 -16 40q168 184 168 192h6q1 0 3 -4h2q7 0 24 -120q69 -286 248 -488v-4l-1309 1q-116 4 -193 101zM800 -194l128 132l152 -160l-120 -128z" />
<glyph unicode="&#x629;" horiz-adv-x="831" d="M135 922l128 132l109 -115l111 115l152 -160l-120 -128l-115 112l-105 -112zM222 366q0 66 224 168l-30 104l214 150q24 -175 72 -370l82 -266l50 -151l-442 1q-170 172 -170 364zM406 390q0 -34 90 -238h80l-94 278h-16q-60 -30 -60 -40z" />
<glyph unicode="&#x62a;" horiz-adv-x="1684" d="M192 100l224 242q23 -55 140 -142q67 -40 133 -48h673l27 4q-76 69 -130 226q-7 0 -16 40q168 184 168 192h6q1 0 3 -4h2q7 0 24 -120q69 -286 248 -488v-4l-1309 1q-116 4 -193 101zM660 912l128 132l109 -115l111 115l152 -160l-120 -128l-115 112l-105 -112z" />
<glyph unicode="&#x62b;" horiz-adv-x="1659" d="M170 100l224 242q23 -55 140 -142q67 -40 133 -48h673l27 4q-76 69 -130 226q-7 0 -16 40q168 184 168 192h6q1 0 3 -4h2q7 0 24 -120q69 -286 248 -488v-4l-1309 1q-116 4 -193 101zM632 922l128 132l109 -115l111 115l152 -160l-120 -128l-115 112l-105 -112zM713 1125 l128 132l152 -160l-120 -128z" />
<glyph unicode="&#x62c;" horiz-adv-x="1105" d="M190 452v12q0 20 184 244h12v-4l-16 -56q-30 -112 114 -210l634 -454v-4l-108 -144l-14 20l-6 12l-64 47q-185 78 -354 78h-31q-119 0 -216 -105l-19 -49q0 -194 532 -347h25v-12l-223 -12q-290 0 -377 216q-37 79 -37 155v25q0 171 254 277q24 13 68 13l-6 4l-296 194 q-56 54 -56 100zM546 -194l128 132l152 -160l-120 -128z" />
<glyph unicode="&#x62d;" horiz-adv-x="1122" d="M198 452v12q0 20 184 244h12v-4l-16 -56q-30 -112 114 -210l634 -454v-4l-108 -144l-14 20l-6 12l-64 47q-185 78 -354 78h-31q-119 0 -216 -105l-19 -49q0 -194 532 -347h25v-12l-223 -12q-290 0 -377 216q-37 79 -37 155v25q0 171 254 277q24 13 68 13l-6 4l-296 194 q-56 54 -56 100z" />
<glyph unicode="&#x62e;" horiz-adv-x="1113" d="M193 452v12q0 20 184 244h12v-4l-16 -56q-30 -112 114 -210l634 -454v-4l-108 -144l-14 20l-6 12l-64 47q-185 78 -354 78h-31q-119 0 -216 -105l-19 -49q0 -194 532 -347h25v-12l-223 -12q-290 0 -377 216q-37 79 -37 155v25q0 171 254 277q24 13 68 13l-6 4l-296 194 q-56 54 -56 100zM222 927l128 132l152 -160l-120 -128z" />
<glyph unicode="&#x62f;" horiz-adv-x="1097" d="M195 100l216 252h8q-14 -74 91.5 -141t204.5 -57h96v2l-324 204q-56 49 -56 104v12q0 32 188 244q8 -2 16 -20q-24 0 -24 -73t32 -95q267 -219 459 -375l-96 -156l-407 -1h-132q-190 0 -272 100z" />
<glyph unicode="&#x630;" horiz-adv-x="1105" d="M200 100l216 252h8q-14 -74 91.5 -141t204.5 -57h96v2l-324 204q-56 49 -56 104v12q0 32 188 244q8 -2 16 -20q-24 0 -24 -73t32 -95q267 -219 459 -375l-96 -156l-407 -1h-132q-190 0 -272 100zM487 926l128 132l152 -160l-120 -128z" />
<glyph unicode="&#x631;" horiz-adv-x="913" d="M-163 -418q98 56 508 172q376 101 376 192q0 60 -172 148l-352 212q-16 30 -16 52q0 27 80 112l92 112q12 -4 12 -24q-16 -4 -16 -40q6 -64 244 -224q213 -153 312 -248l4 -16q-25 -84 -244 -236l-312 -196q-254 -68 -516 -20v4z" />
<glyph unicode="&#x632;" horiz-adv-x="895" d="M-170 -418q98 56 508 172q376 101 376 192q0 60 -172 148l-352 212q-16 30 -16 52q0 27 80 112l92 112q12 -4 12 -24q-16 -4 -16 -40q6 -64 244 -224q213 -153 312 -248l4 -16q-25 -84 -244 -236l-312 -196q-254 -68 -516 -20v4zM197 926l128 132l152 -160l-120 -128z " />
<glyph unicode="&#x633;" horiz-adv-x="2378" d="M19 -23l4 4h4q97 -102 203 -135q287 -110 654 -110h127q131 0 215 51q137 59 164.5 105t20 90.5t-187.5 405.5q-7 0 -16 40q168 184 168 192h4q7 0 24 -120q47 -195 145 -351l189 1v4q-77 69 -132 228q-7 0 -16 40q168 184 168 192h4q7 0 24 -120q46 -191 141 -345l178 1 v4q-77 69 -132 228q-7 0 -16 40q168 184 168 192h4q7 0 24 -120q69 -286 248 -488v-4l-530 -4v3l-268 -1q-9 -98 -270 -234q-305 -189 -452 -203q-254 43 -485 131q-174 76 -304 186q-72 73 -72 97z" />
<glyph unicode="&#x634;" horiz-adv-x="2395" d="M22 -23l4 4h4q97 -102 203 -135q287 -110 654 -110h127q131 0 215 51q137 59 164.5 105t20 90.5t-187.5 405.5q-7 0 -16 40q168 184 168 192h4q7 0 24 -120q47 -195 145 -351l189 1v4q-77 69 -132 228q-7 0 -16 40q168 184 168 192h4q7 0 24 -120q46 -191 141 -345l178 1 v4q-77 69 -132 228q-7 0 -16 40q168 184 168 192h4q7 0 24 -120q69 -286 248 -488v-4l-530 -4v3l-268 -1q-9 -98 -270 -234q-305 -189 -452 -203q-254 43 -485 131q-174 76 -304 186q-72 73 -72 97zM1449 922l128 132l109 -115l111 115l152 -160l-120 -128l-115 112 l-105 -112zM1530 1125l128 132l152 -160l-120 -128z" />
<glyph unicode="&#x635;" horiz-adv-x="3510" d="M7 -23l4 4h4q97 -102 203 -135q287 -110 654 -110h127q131 0 215 51q137 59 164.5 104.5t20.5 90.5q7 14 -115 170l-121 155l129 174l158 -209l72 122l1796 -2l197 -392l-1926 2l1 -3q-9 -98 -270 -233q-305 -189 -452 -203q-254 43 -485 131q-174 76 -304 186 q-72 73 -72 97zM1474 228q79 -60 139 -76h1647l-38 72l-1649 2z" />
<glyph unicode="&#x636;" horiz-adv-x="3501" d="M2 -23l4 4h4q97 -102 203 -135q287 -110 654 -110h127q131 0 215 51q137 59 164.5 104.5t20.5 90.5q7 14 -115 170l-121 155l129 174l158 -209l72 122l1796 -2l197 -392l-1926 2l1 -3q-9 -98 -270 -233q-305 -189 -452 -203q-254 43 -485 131q-174 76 -304 186 q-72 73 -72 97zM1469 228q79 -60 139 -76h1647l-38 72l-1649 2zM2125 927l128 132l152 -160l-120 -128z" />
<glyph unicode="&#x637;" horiz-adv-x="2630" d="M185 224h4q164 -66 204 -66h12v8h4q-20 225 -14 409q-18 342 -58 585q97 122 140 160q58 -345 48 -904q13 -174 32 -184l72 162l1796 -2l197 -392l-2315 2q-120 28 -120 36zM561 228q99 -60 159 -76h1647l-38 72l-1649 2z" />
<glyph unicode="&#x638;" horiz-adv-x="2622" d="M185 224h4q164 -66 204 -66h12v8h4q-20 225 -14 409q-18 342 -58 585q97 122 140 160q58 -345 48 -904q13 -174 32 -184l72 162l1796 -2l197 -392l-2315 2q-120 28 -120 36zM561 228q99 -60 159 -76h1647l-38 72l-1649 2zM1343 927l128 132l152 -160l-120 -128z" />
<glyph unicode="&#x639;" horiz-adv-x="1189" d="M203 -136q0 158 217 261l-35 27q-154 149 -154 168q-24 57 -24 104q0 52 148 216l348 208v-4q-87 -127 -124 -128q-153 -89 -184 -116q-28 -51 -28 -92v-4q0 -66 236 -264q143 -84 240 -84l4 -4h350l-98 -150l-569 -3q-131 -6 -228 -111l-19 -49q0 -194 532 -347h25v-12 l-223 -12q-290 0 -377 216q-37 79 -37 155v25z" />
<glyph unicode="&#x63a;" horiz-adv-x="1198" d="M182 927l128 132l152 -160l-120 -128zM212 -136q0 158 217 261l-35 27q-154 149 -154 168q-24 57 -24 104q0 52 148 216l348 208v-4q-87 -127 -124 -128q-153 -89 -184 -116q-28 -51 -28 -92v-4q0 -66 236 -264q143 -84 240 -84l4 -4h350l-98 -150l-569 -3 q-131 -6 -228 -111l-19 -49q0 -194 532 -347h25v-12l-223 -12q-290 0 -377 216q-37 79 -37 155v25z" />
<glyph unicode="&#x640;" horiz-adv-x="402" d="M-28 0v152h440v-152h-440z" />
<glyph unicode="&#x641;" horiz-adv-x="1809" d="M207 100l224 242q23 -55 140 -142q67 -40 133 -48h673l27 4q3 1 5 2q-97 97 -168 122q-32 44 -32 72v24q0 29 156 164q216 204 242 204l4 -4v-4q-38 -34 -38 -72t160 -316q84 -171 84 -208v-12q0 -65 -109 -124q0 -1 1 -2v-4l-12 1q-10 -6 -20 -11l-32 -8l-65 19h-1180 q-116 4 -193 101zM1332 926l128 132l152 -160l-120 -128zM1409 400q87 -100 196 -188l16 12q-126 179 -180 240q-32 -31 -32 -48v-16z" />
<glyph unicode="&#x642;" horiz-adv-x="1747" d="M170 -23l5 4h4q97 -102 203 -135q287 -110 653 -110h127q131 0 215 51q190 83 190 144q0 18 -252 221q-111 92 -174 128q-32 44 -32 72v24q0 29 156 164q216 204 242 204l4 -4v-4q-38 -34 -38 -72t109 -236t127 -252h1l43 -161v-9q0 -100 -270 -240q-305 -189 -451 -203 q-254 43 -486 131q-173 76 -304 186q-72 73 -72 97zM1215 912l128 132l109 -115l111 115l152 -160l-120 -128l-115 112l-105 -112zM1309 400q87 -100 196 -188l16 12q-126 179 -180 240q-32 -31 -32 -48v-16z" />
<glyph unicode="&#x643;" horiz-adv-x="1640" d="M143 100l224 242q23 -55 140 -142q67 -40 133 -48h673l27 4l20 -4h84v96q0 413 -54 942l133 154q34 0 40 -364.5t3 -565.5t78 -411l1 -1v-4l-1309 1q-116 4 -193 101zM749 470l31 71h70q-54 33 -54 40q-8 20 -8 36q0 19 52 76l121 72v-1q-30 -44 -43 -45q-54 -31 -64 -40 q-10 -18 -10 -32v-2q0 -23 82 -73q50 -30 84 -30l1 -1h2h40l-34 -71h-270z" />
<glyph unicode="&#x644;" horiz-adv-x="762" d="M-415 -288q204 24 492 20h180q83 0 270 136q18 62 29 139l2 145h-3v96q0 413 -54 942l133 154q34 0 40 -364.5t6 -566t75 -411.5h-10v-1l4 -9v-12q0 -48 -145 -143q-25 -18 -55 -35q-26 -16 -56 -34q-271 -178 -380 -200l-60 -4q-167 0 -468 136v12z" />
<glyph unicode="&#x645;" horiz-adv-x="997" d="M-355 -414q98 56 508 172q376 101 376 192q0 34 -7 51h-6l-9 16l-1 2l-72 133q-39 134 -39 204q0 59 434 266q13 -16 168 -616l-6 -6l-289 1q-50 -78 -229 -203l-312 -196q-254 -68 -516 -20v4zM609 369q0 -103 90 -217h52l-65 269h-6q-71 -40 -71 -52z" />
<glyph unicode="&#x646;" horiz-adv-x="1750" d="M170 -23l4 4h4q97 -102 203 -135q287 -110 654 -110h127q131 0 215 51q190 83 190 144q0 31 -130 126q-242 167 -414 257q-21 24 -21 51v4q0 51 97 140l88 101q13 0 13 -17l-8 -25v-26q0 -73 93 -126q265 -203 405 -330l63 -71v-9q0 -100 -270 -240q-305 -189 -452 -203 q-254 43 -485 131q-174 76 -304 186q-72 73 -72 97zM812 53q0 11 131 135h4l164 -169l-135 -135q-164 158 -164 169z" />
<glyph unicode="&#x647;" horiz-adv-x="787" d="M178 366q0 66 224 168l-30 104l214 150q24 -175 72 -370l82 -266l50 -151l-442 1q-170 172 -170 364zM362 390q0 -34 90 -238h80l-94 278h-16q-60 -30 -60 -40z" />
<glyph unicode="&#x648;" horiz-adv-x="879" d="M-158 -412q0 8 228 76q453 148 608 212q40 29 40 68v4q0 40 -68 75q-177 145 -420 308l-12 40q0 70 88 132l296 268h4v-4q-24 -51 -24 -96q195 -334 248 -448q48 -129 48 -208q-36 -126 -300 -283q-226 -160 -348 -160l-72 -4q-97 -10 -316 16v4zM426 447q0 -41 76 -96 l104 -92l-140 228q-40 -12 -40 -40z" />
<glyph unicode="&#x649;" horiz-adv-x="1694" d="M170 -310q204 24 492 20h180q91 0 308 164l12 20v4q-16 21 -256 224l-4 28v28q0 50 156 228q58 68 88 68q108 -29 356 -264q109 -84 210 -208h-242q-24 0 -280 232q-32 44 -76 44q-18 -8 -20 -16v-16q21 -59 224 -240l16 -36v-12q0 -64 -256 -212q-271 -178 -380 -200 l-60 -4q-167 0 -468 136v12z" />
<glyph unicode="&#x64a;" horiz-adv-x="1694" d="M170 -310q204 24 492 20h180q91 0 308 164l12 20v4q-16 21 -256 224l-4 28v28q0 50 156 228q58 68 88 68q108 -29 356 -264q109 -84 210 -208h-242q-24 0 -280 232q-32 44 -76 44q-18 -8 -20 -16v-16q21 -59 224 -240l16 -36v-12q0 -64 -256 -212q-271 -178 -380 -200 l-60 -4q-167 0 -468 136v12zM434 -680l128 132l109 -114l111 114l152 -160l-120 -128l-115 113l-105 -113z" />
<glyph unicode="&#x64b;" horiz-adv-x="517" d="M119 1430q0 38 11.5 56.5t54.5 44.5l272 157q0 -66 -35 -86zM119 1596q0 38 11.5 56.5t54.5 44.5l272 157q0 -66 -35 -86z" />
<glyph unicode="&#x64c;" horiz-adv-x="575" d="M65 1597q0 45 24 77.5t60 32.5q33 0 50 -25.5t17 -74.5l-1 -28l-5 -64q39 15 60.5 31t63.5 59q-38 25 -53 46q-13 23 -13 48q0 53 39.5 100t82.5 47q22 0 45 -26t23 -54q0 -31 -11 -59l-22 -55q24 -18 31.5 -32t7.5 -38l-2 -59l-44 25l-48 34q-70 -73 -121 -103.5 t-119 -41.5q14 29 21.5 46t14.5 38.5t7 44.5q0 20 -14.5 37.5t-34.5 17.5q-15 0 -30.5 -21.5t-18.5 -54.5l-8 30zM321 1756q0 -21 26 -43l37 -26l3 19l1 20q0 25 -11 39t-30 14q-11 0 -17.5 -6t-8.5 -17z" />
<glyph unicode="&#x64d;" horiz-adv-x="538" d="M119 -699q0 38 11.5 56.5t54.5 44.5l272 157q0 -66 -35 -86zM119 -846q0 38 11.5 56.5t54.5 44.5l272 157q0 -66 -35 -86z" />
<glyph unicode="&#x64e;" horiz-adv-x="520" d="M119 1440q0 38 11.5 56.5t54.5 44.5l272 157q0 -66 -35 -86z" />
<glyph unicode="&#x64f;" horiz-adv-x="519" d="M74 1442q65 35 104 63q32 23 109 93q-34 26 -47.5 45.5t-13.5 44.5q0 45 36 111q18 30 38 43.5t42 13.5q68 0 68 -88q0 -25 -6.5 -51t-24.5 -66l39 -30l-8 -99l-37 23l-43 29q-56 -67 -97 -101q-54 -43 -100 -43q-15 0 -35 5zM277 1750q0 -19 11.5 -32.5t53.5 -42.5 q6 20 6 34q0 23 -16 42t-37 19q-5 0 -13 -6q-3 -3 -5 -14z" />
<glyph unicode="&#x650;" horiz-adv-x="541" d="M119 -708q0 38 11.5 56.5t54.5 44.5l272 157q0 -66 -35 -86z" />
<glyph unicode="&#x651;" horiz-adv-x="486" d="M62 1538q0 30 11 66l11 35l23 4q0 -58 9 -84.5t30 -26.5q32 0 53.5 37.5t36.5 124.5l18 6q12 -55 25.5 -76.5t32.5 -21.5q67 0 67 147l23 10l11 -53l3 -43q0 -78 -27.5 -123t-76.5 -45q-22 0 -34 4.5t-30 16.5q-6 -33 -38 -59.5t-66 -26.5q-36 0 -59 30t-23 78z" />
<glyph unicode="&#x652;" horiz-adv-x="491" d="M117 1551q0 85 37.5 138t99.5 53q46 0 83.5 -45.5t37.5 -102.5q0 -64 -45.5 -114t-105.5 -50q-52 0 -79.5 30.5t-27.5 90.5zM150 1588q0 -59 92 -59q38 0 58 11t20 30q0 24 -43 55t-68 31q-26 0 -42.5 -19.5t-16.5 -48.5z" />
<glyph unicode="&#x660;" horiz-adv-x="506" d="M137 519q0 46 22 117q23 75 42 75t109 -48q96 -52 96 -74q0 -38 -15 -98q-20 -76 -46 -83q-18 0 -90 25q-93 31 -115 66q-3 5 -3 20z" />
<glyph unicode="&#x661;" horiz-adv-x="703" d="M191 845q-3 13 27 156q4 18 13 18q17 0 45 -54q172 -259 198 -310q111 -212 127 -445q3 -51 -18 -138.5t-37 -87.5q-9 0 -13 35q-7 95 -15 190q-16 83 -114 262q-38 70 -134 211q-59 86 -79 163z" />
<glyph unicode="&#x662;" horiz-adv-x="709" d="M122 830q0 10 14 41q17 37 25 78q5 23 14 23q2 0 67 -78t134 -76q113 3 150 64q10 16 40 146q2 9 10 9q29 0 29 -48q0 -200 -60 -286q-40 -59 -148 -98q39 -115 89 -306q18 -118 18 -160q0 -56 -15 -91q-19 -45 -26 -45q-3 0 -26 130q-29 167 -98 307q-53 108 -150 253 q-67 100 -67 137z" />
<glyph unicode="&#x663;" horiz-adv-x="971" d="M165 809q0 32 13 95q14 76 30 76q6 0 11 -10q60 -109 74 -124q29 -32 94 -32q92 0 132 60q32 68 64 135q6 12 17 12q30 0 24 -41q-2 -15 -2 -29q0 -81 71 -81q52 0 69 17q23 23 47 117q5 12 11 12q19 0 19 -46q0 -101 -45 -197q-49 -104 -109 -104q-51 0 -75 17l-50 42 q-19 -42 -73.5 -77t-89.5 -31q21 -68 43 -137q33 -131 33 -278q0 -197 -23 -197q-10 0 -23 41q-6 50 -20 161q-18 142 -123 364q-27 58 -81 155q-38 70 -38 80z" />
<glyph unicode="&#x664;" horiz-adv-x="896" d="M124 600q0 107 148 282q139 165 195 165q12 0 12 -14q0 -20 -25 -90q-23 -62 -129 -138q-98 -69 -98 -98q0 -6 2 -12q9 -24 75 -43q94 -26 115 -37q60 -30 60 -82q0 -76 -47.5 -152t-47.5 -111q0 -80 137 -80q89 0 199 34q29 9 44 9q34 0 -19 -58q-96 -105 -158 -139 q-67 -36 -174 -36q-70 0 -113.5 40.5t-43.5 108.5q0 44 40 131.5t40 114.5q0 33 -55 47q-80 19 -102 33q-55 36 -55 125z" />
<glyph unicode="&#x665;" horiz-adv-x="720" d="M135 355q-6 95 64 306q85 257 195 257q55 0 134 -106q94 -126 94 -281q0 -150 -74 -252q-81 -112 -223 -121q-49 -3 -107 40q-76 56 -83 157zM206 446q0 -13 3 -20q39 -91 136 -78q3 -4 17 -4q54 0 110 24q73 32 73 85q0 87 -82 182q-75 88 -118 81q-50 -4 -97 -110 q-42 -95 -42 -160z" />
<glyph unicode="&#x666;" horiz-adv-x="903" d="M109 831q0 41 17 94q22 67 54 67q6 0 12 -2q89 -32 187 -32q46 0 108 8t76 8q38 0 40 -28q17 -293 70 -476q15 -51 73 -149q50 -84 50 -117q0 -80 -29 -125q-13 -20 -29 -20q-50 0 -109 155q-51 134 -71 285q-11 84 -21 284q-96 -36 -225 -36q-203 0 -203 84z" />
<glyph unicode="&#x667;" horiz-adv-x="946" d="M170 794l14 116q4 30 20 30q52 0 186 -247q130 -241 160 -378q190 689 259 689q19 0 22 -71q3 -72 -7 -105q-16 -50 -49 -123q-41 -94 -105 -271q-113 -401 -157 -401q-12 0 -17 30q-9 56 -19 113q-10 54 -32 107q-66 161 -142 272q-48 65 -97 130q-36 51 -36 109z" />
<glyph unicode="&#x668;" horiz-adv-x="862" d="M177 99q-13 151 15 197q68 112 121 298q35 139 70 277q32 122 58 122q16 0 41 -100q34 -141 95 -252q88 -160 170 -248q52 -57 50 -69q-11 -79 -16 -205q-1 -33 -17 -33q-47 0 -176.5 242t-161.5 387q-15 -114 -75 -299q-58 -179 -110 -280q-58 -112 -64 -37z" />
<glyph unicode="&#x669;" horiz-adv-x="803" d="M104 685q-3 115 50 227q57 123 132 122q107 -2 163 -151q30 -81 52 -247q17 -130 73 -236q50 -84 101 -167q15 -25 15 -58q0 -23 -25 -117q-16 -35 -27 -35q-13 0 -32 20q-82 90 -136 259q-47 145 -56 281q-99 -67 -148 -67q-13 0 -26 3q-61 12 -98 60q-37 45 -38 106z M204 783q-9 -44 59 -44q19 0 33 7q28 25 28 38q0 17 -24.5 29t-49.5 11q-39 -10 -46 -41z" />
<glyph unicode="&#x66a;" horiz-adv-x="1479" d="M107 784q0 400 243 402q245 2 245 -402q0 -397 -245 -398q-242 -2 -243 398zM243 789q0 -300 107 -301q107 -2 109 301q1 307 -109 308q-107 1 -107 -308zM488 12l397 1170l103 -27l-397 -1170zM885 384q0 399 243 400q244 2 244 -400q0 -399 -244 -401q-242 -1 -243 401 zM1021 389q0 -303 107 -304q107 -2 108 304q2 306 -108 306q-107 0 -107 -306z" />
<glyph unicode="&#x66b;" horiz-adv-x="439" d="M42 62l247 455h122l-151 -455q-46 -61 -128 -62q-77 -1 -90 62z" />
<glyph unicode="&#x66d;" horiz-adv-x="750" d="M83 696q-1 33 24.5 58t59.5 25q33 0 56.5 -24.5t24.5 -58.5q1 -33 -24 -57.5t-59 -25.5q-32 -1 -58 24q-23 22 -24 59zM154 452q-1 34 24.5 59t59.5 25t57 -25t24 -59q1 -33 -24 -60q-21 -23 -57 -24q-31 -1 -60 24q-23 27 -24 60zM294 846q-2 33 24 59q23 25 58 25 q32 0 56 -23.5t25 -60.5q1 -34 -23 -57t-58 -25q-35 -1 -58 23t-24 59zM308 628q-2 29 18.5 48.5t49.5 19.5q25 0 46.5 -20t21.5 -48q0 -66 -68 -69q-25 -1 -50 20q-17 20 -18 49zM428 452q-1 35 23 58.5t60 24.5q34 1 57.5 -23.5t24.5 -59.5q1 -33 -26 -60q-23 -23 -58 -24 q-33 -1 -56.5 23.5t-24.5 60.5zM502 695q-1 35 25 59q22 25 58 25q32 0 57 -23.5t25 -60.5q0 -35 -24 -59t-58 -25q-35 -1 -58 23.5t-25 60.5z" />
<glyph unicode="&#x670;" horiz-adv-x="1112" />
<glyph unicode="&#x2000;" horiz-adv-x="1069" />
<glyph unicode="&#x2001;" horiz-adv-x="2138" />
<glyph unicode="&#x2002;" horiz-adv-x="1069" />
<glyph unicode="&#x2003;" horiz-adv-x="2138" />
<glyph unicode="&#x2004;" horiz-adv-x="712" />
<glyph unicode="&#x2005;" horiz-adv-x="534" />
<glyph unicode="&#x2006;" horiz-adv-x="356" />
<glyph unicode="&#x2007;" horiz-adv-x="356" />
<glyph unicode="&#x2008;" horiz-adv-x="267" />
<glyph unicode="&#x2009;" horiz-adv-x="427" />
<glyph unicode="&#x200a;" horiz-adv-x="118" />
<glyph unicode="&#x200c;" horiz-adv-x="45" d="M0 0v1627h45v-1627h-45z" />
<glyph unicode="&#x200d;" horiz-adv-x="45" d="M-114 1495l107 107l-107 107l30 30l107 -107l107 107l30 -30l-107 -107l107 -107l-30 -30l-85 85v-1550h-45v1549l-84 -84z" />
<glyph unicode="&#x200e;" horiz-adv-x="45" d="M0 0v1627h217l-82 82l31 31l137 -137l-137 -138l-31 31l86 86h-176v-1582h-45z" />
<glyph unicode="&#x200f;" horiz-adv-x="45" d="M-258 1603l137 137l31 -31l-82 -82h217v-1627h-45v1582h-176l86 -86l-31 -31z" />
<glyph unicode="&#x2010;" d="M129 496v136h669v-136h-669z" />
<glyph unicode="&#x2011;" d="M129 496v136h669v-136h-669z" />
<glyph unicode="&#x2012;" d="M129 496v136h669v-136h-669z" />
<glyph unicode="&#x2013;" horiz-adv-x="1282" d="M129 496v136h1024v-136h-1024z" />
<glyph unicode="&#x2014;" horiz-adv-x="2306" d="M129 496v136h2048v-136h-2048z" />
<glyph unicode="&#x201c;" horiz-adv-x="818" d="M60 827l144 455q41 58 119 60q64 1 79 -60l-235 -455h-107zM392 827l143 455q41 58 121 60q64 1 78 -60l-237 -455h-105z" />
<glyph unicode="&#x201d;" horiz-adv-x="818" d="M85 878l236 455h107l-144 -455q-41 -58 -121 -60q-65 -1 -78 60zM418 878l234 455h107l-143 -455q-40 -58 -120 -60q-66 -1 -78 60z" />
<glyph unicode="&#x202f;" horiz-adv-x="427" />
<glyph unicode="&#x205f;" horiz-adv-x="534" />
<glyph unicode="&#xe000;" horiz-adv-x="500" d="M0 0z" />
<glyph unicode="&#xe008;" horiz-adv-x="502" d="M78 1538q0 30 11 66l11 35l23 4q0 -58 9 -84.5t30 -26.5q32 0 53.5 37.5t36.5 124.5l18 6q12 -55 25.5 -76.5t32.5 -21.5q67 0 67 147l23 10l11 -53l3 -43q0 -78 -27.5 -123t-76.5 -45q-22 0 -34 4.5t-30 16.5q-6 -33 -38 -59.5t-66 -26.5q-36 0 -59 30t-23 78zM82 1724 q65 35 104 63q32 23 109 93q-34 26 -47.5 45.5t-13.5 44.5q0 45 36 111q18 30 38 43.5t42 13.5q68 0 68 -88q0 -25 -6.5 -51t-24.5 -66l39 -30l-8 -99l-37 23l-43 29q-56 -67 -97 -101q-54 -43 -100 -43q-15 0 -35 5zM285 2032q0 -19 11.5 -32.5t53.5 -42.5q6 20 6 34 q0 23 -16 42t-37 19q-5 0 -13 -6q-3 -3 -5 -14z" />
</font>
</defs>
</svg>
