<?xml version="1.0" standalone="no"?>
<!DOCTYPE svg PUBLIC "-//W3C//DTD SVG 1.1//EN" "http://www.w3.org/Graphics/SVG/1.1/DTD/svg11.dtd" >
<svg xmlns="http://www.w3.org/2000/svg">
<metadata>
This is a custom SVG font generated by IcoMoon.
<iconset grid="20"></iconset>
</metadata>
<defs>
<font id="icomoon" horiz-adv-x="640" >
<font-face units-per-em="640" ascent="608" descent="-32" />
<missing-glyph horiz-adv-x="640" />
<glyph unicode="&#xe000;" d="M 546.667,394.667c-4.693,0.00-9.147-1.307-13.333-3.28L 533.333,394.667 c0.00,44.107-35.893,80.00-80.00,80.00L 160.00,474.667 C 115.893,474.667, 80.00,438.773, 80.00,394.667l0.00-186.667 c0.00-44.107, 35.893-80.00, 80.00-80.00l 293.333,0.00 
			c 44.107,0.00, 80.00,35.893, 80.00,80.00l0.00,3.28 C 537.52,209.307, 541.973,208.00, 546.667,208.00c 22.00,0.00, 40.00,24.00, 40.00,53.333l0.00,80.00 C 586.667,370.667, 568.667,394.667, 546.667,394.667z M 480.00,208.00
			c0.00-14.72-11.973-26.667-26.667-26.667L 160.00,181.333 c-14.693,0.00-26.667,11.947-26.667,26.667L 133.333,394.667 c0.00,14.72, 11.973,26.667, 26.667,26.667l 293.333,0.00 c 14.693,0.00, 26.667-11.947, 26.667-26.667L 480.00,208.00 zM 160.00,394.667L 240.00,394.667L 240.00,208.00L 160.00,208.00z" data-tags="battery-low, low" />
<glyph unicode="&#xe001;" d="M 240.00,394.667L 320.00,394.667L 320.00,208.00L 240.00,208.00zM 133.333,394.667L 213.333,394.667L 213.333,208.00L 133.333,208.00zM 520.00,397.947c-4.693,0.00-9.147-1.307-13.333-3.28l0.00,0.00c0.00,44.107-35.893,80.00-80.00,80.00L 133.333,474.667 C 89.227,474.667, 53.333,438.773, 53.333,394.667l0.00-186.667 c0.00-44.107, 35.893-80.00, 80.00-80.00l 293.333,0.00 
			c 44.107,0.00, 80.00,35.893, 80.00,80.00l0.00,0.00c 4.187-1.973, 8.64-3.28, 13.333-3.28c 22.00,0.00, 40.00,24.00, 40.00,53.333L 560.00,344.613 C 560.00,373.947, 542.00,397.947, 520.00,397.947z
			 M 453.333,208.00c0.00-14.72-11.973-26.667-26.667-26.667L 133.333,181.333 c-14.693,0.00-26.667,11.947-26.667,26.667L 106.667,394.667 c0.00,14.72, 11.973,26.667, 26.667,26.667l 293.333,0.00 c 14.693,0.00, 26.667-11.947, 26.667-26.667L 453.333,208.00 z" data-tags="battery" />
<glyph unicode="&#xe002;" d="M 240.00,394.667L 320.00,394.667L 320.00,208.00L 240.00,208.00zM 133.333,394.667L 213.333,394.667L 213.333,208.00L 133.333,208.00zM 346.667,394.667L 426.667,394.667L 426.667,208.00L 346.667,208.00zM 520.00,397.947c-4.693,0.00-9.147-1.307-13.333-3.28l0.00,0.00c0.00,44.107-35.893,80.00-80.00,80.00L 133.333,474.667 C 89.227,474.667, 53.333,438.773, 53.333,394.667l0.00-186.667 c0.00-44.107, 35.893-80.00, 80.00-80.00l 293.333,0.00 
			c 44.107,0.00, 80.00,35.893, 80.00,80.00l0.00,0.00c 4.187-1.973, 8.64-3.28, 13.333-3.28c 22.00,0.00, 40.00,24.00, 40.00,53.333L 560.00,344.613 C 560.00,373.947, 542.00,397.947, 520.00,397.947z
			 M 453.333,208.00c0.00-14.72-11.973-26.667-26.667-26.667L 133.333,181.333 c-14.693,0.00-26.667,11.947-26.667,26.667L 106.667,394.667 c0.00,14.72, 11.973,26.667, 26.667,26.667l 293.333,0.00 c 14.693,0.00, 26.667-11.947, 26.667-26.667L 453.333,208.00 z" data-tags="battery-full, full" />
<glyph unicode="&#xe003;" d="M 520.00,394.667c-4.693,0.00-9.147-1.307-13.333-3.28L 506.667,394.667 c0.00,44.107-35.893,80.00-80.00,80.00L 133.333,474.667 C 89.227,474.667, 53.333,438.773, 53.333,394.667l0.00-186.667 c0.00-44.107, 35.893-80.00, 80.00-80.00l 293.333,0.00 
			c 44.107,0.00, 80.00,35.893, 80.00,80.00l0.00,3.28 C 510.853,209.307, 515.307,208.00, 520.00,208.00c 22.00,0.00, 40.00,24.00, 40.00,53.333l0.00,80.00 C 560.00,370.667, 542.00,394.667, 520.00,394.667z M 453.333,208.00
			c0.00-14.72-11.973-26.667-26.667-26.667L 133.333,181.333 c-14.693,0.00-26.667,11.947-26.667,26.667L 106.667,394.667 c0.00,14.72, 11.973,26.667, 26.667,26.667l 293.333,0.00 c 14.693,0.00, 26.667-11.947, 26.667-26.667L 453.333,208.00 zM 133.333,208.00l 293.333,0.00 L 426.667,394.667 L 133.333,394.667 L 133.333,208.00 z M 258.373,349.787l 14.213,10.533l 9.093-18.533c 8.587-17.547, 16.453-35.413, 22.267-54.053L 373.333,314.667l-71.76-61.707
			l-12.773-10.987l-10.427,18.96c-9.28,16.96-16.107,34.88-21.867,53.147C 234.053,303.973, 211.20,294.613, 186.667,288.00
			C 208.773,311.60, 233.253,331.227, 258.373,349.787z" data-tags="battery-charging, charging" />
<glyph unicode="&#xe004;" d="M 506.667,341.333L 373.333,341.333L 373.333,474.667L 240.00,474.667L 240.00,341.333L 106.667,341.333L 106.667,208.00L 240.00,208.00L 240.00,74.667L 373.333,74.667L 373.333,208.00L 506.667,208.00 			z" data-tags="plus, add" />
<glyph unicode="&#xe005;" d="M 533.333,421.333L 453.333,501.333L 333.333,381.333L 213.333,501.333L 133.333,421.333L 253.333,301.333L 133.333,181.333L 213.333,101.333L 333.333,221.333L 453.333,101.333L 533.333,181.333L 413.333,301.333 			z" data-tags="cross, cancel, remove" />
<glyph unicode="&#xe006;" d="M 240.00,501.333L 160.00,421.333L 280.00,301.333L 160.00,181.333L 240.00,101.333L 440.00,301.333 			z" data-tags="arrow-right, next, right" />
<glyph unicode="&#xe007;" d="M 373.333,501.333L 453.333,421.333L 333.333,301.333L 453.333,181.333L 373.333,101.333L 173.333,301.333 			z" data-tags="arrow-left, previous, left" />
<glyph unicode="&#xe008;" d="M 106.667,80.00L 240.00,80.00L 453.333,293.333L 320.00,426.667L 106.667,213.333 			zM 160.00,133.333L 160.00,213.333L 240.00,133.333 			zM 400.00,506.667L 533.333,373.333L 480.00,320.027L 346.667,453.333z" data-tags="pencil, edit, write, blog" />
<glyph unicode="&#xe009;" d="M 516.133,174.827l 0.933,0.933l-75.173,75.173c 12.32,24.88, 19.44,52.80, 19.44,82.40c0.00,102.933-83.76,186.667-186.667,186.667s-186.667-83.733-186.667-186.667s 83.76-186.667, 186.667-186.667
			c 29.60,0.00, 57.493,7.12, 82.40,19.44l 75.173-75.173l 0.933,0.933C 443.813,81.227, 458.453,74.667, 474.667,74.667c 32.40,0.00, 58.667,26.267, 58.667,58.667
			C 533.333,149.547, 526.773,164.213, 516.133,174.827z M 274.667,226.667c-58.827,0.00-106.667,47.84-106.667,106.667s 47.84,106.667, 106.667,106.667s 106.667-47.84, 106.667-106.667S 333.493,226.667, 274.667,226.667z" data-tags="search, magnifier" />
<glyph unicode="&#xe00a;" d="M 133.333,474.667L 240.00,474.667L 240.00,368.00L 133.333,368.00zM 133.333,341.333L 240.00,341.333L 240.00,234.667L 133.333,234.667zM 133.333,208.00L 240.00,208.00L 240.00,101.333L 133.333,101.333zM 266.667,474.667L 373.333,474.667L 373.333,368.00L 266.667,368.00zM 266.667,341.333L 373.333,341.333L 373.333,234.667L 266.667,234.667zM 266.667,208.00L 373.333,208.00L 373.333,101.333L 266.667,101.333zM 400.00,474.667L 506.667,474.667L 506.667,368.00L 400.00,368.00zM 400.00,341.333L 506.667,341.333L 506.667,234.667L 400.00,234.667zM 400.00,208.00L 506.667,208.00L 506.667,101.333L 400.00,101.333z" data-tags="grid, tile, icons" />
<glyph unicode="&#xe00b;" d="M 133.333,474.667L 240.00,474.667L 240.00,368.00L 133.333,368.00zM 266.667,474.667L 506.667,474.667L 506.667,368.00L 266.667,368.00zM 133.333,341.333L 240.00,341.333L 240.00,234.667L 133.333,234.667zM 266.667,341.333L 506.667,341.333L 506.667,234.667L 266.667,234.667zM 133.333,208.00L 240.00,208.00L 240.00,101.333L 133.333,101.333zM 266.667,208.00L 506.667,208.00L 506.667,101.333L 266.667,101.333z" data-tags="list" />
<glyph unicode="&#xe00c;" d="M 466.64,88.107L 320.00,195.067l-146.72-106.96l 56.053,173.067L 82.667,368.00l 181.333,0.00 L 320.00,541.227L 376.027,368.00l 181.333,0.00 l-146.693-106.827L 466.64,88.107z" data-tags="star, favorite, rate" />
<glyph unicode="&#xe00d;" d="M 320.00,358.00C 320.00,422.427, 267.76,474.667, 203.333,474.667S 86.667,422.427, 86.667,358.00c0.00-30.053, 4.24-74.24, 46.667-116.667S 320.00,101.333, 320.00,101.333
			s 144.24,97.573, 186.667,140.00s 46.667,86.613, 46.667,116.667C 553.333,422.427, 501.093,474.667, 436.667,474.667S 320.00,422.427, 320.00,358.00" data-tags="heart, love, like, favorite" />
<glyph unicode="&#xe00e;" d="M 547.92,226.00c-11.173,32.747-30.48,64.453-55.867,91.12c-25.36,26.747-56.027,48.773-88.987,66.107
				C 369.787,400.427, 335.20,413.893, 294.507,421.333L 293.333,421.333 L 293.333,528.00 l-240.00-186.667l 240.00-186.667l0.00,106.96 c 21.387,6.187, 48.187,8.32, 73.813,7.173
				c 26.347-1.36, 52.773-6.293, 77.76-16.213c 24.96-9.92, 48.32-25.28, 68.32-46.427C 533.12,184.853, 548.853,157.867, 560.00,128.00
				C 562.027,159.68, 559.067,193.093, 547.92,226.00z" data-tags="back, arrow" />
<glyph unicode="&#xe00f;" d="M-198.747,226.00c-11.173,32.72-30.453,64.453-55.867,91.12c-25.36,26.747-56.00,48.773-88.987,66.107
				C-376.88,400.427-411.467,413.893-452.16,421.333L-453.333,421.333L-453.333,528.00 l-240.00-186.667l 240.00-186.667l0.00,106.96 c 21.387,6.187, 48.16,8.32, 73.813,7.147
				c 26.347-1.333, 52.747-6.293, 77.733-16.213c 24.96-9.92, 48.347-25.307, 68.347-46.453C-213.547,184.853-197.813,157.867-186.667,128.00
				C-184.64,159.653-187.60,193.093-198.747,226.00zM 586.667,341.333l-240.00,186.667l0.00-106.667 l-1.173,0.00 c-40.693-7.413-75.28-20.907-108.56-38.08c-32.987-17.36-63.627-39.387-88.987-66.107
				c-25.413-26.693-44.693-58.40-55.867-91.12C 80.933,193.093, 77.973,159.653, 80.00,128.00c 11.147,29.867, 26.88,56.853, 46.773,78.08
				c 20.027,21.147, 43.413,36.533, 68.347,46.453c 25.013,9.947, 51.387,14.907, 77.733,16.213c 25.653,1.173, 52.427-0.933, 73.813-7.147L 346.667,154.667 L 586.667,341.333z" data-tags="forward, arrow" />
<glyph unicode="&#xe010;" d="M 497.52,493.20c-83.307,81.947-218.373,81.947-301.68,0.00c-83.307-81.973-83.307-214.853,0.00-296.80L 346.667,48.00l 150.853,148.40
			C 580.827,278.347, 580.827,411.227, 497.52,493.20z M 280.667,275.333c-36.453,36.453-36.453,95.547,0.00,132.00c 36.453,36.427, 95.547,36.427, 132.00,0.00
			c 36.427-36.453, 36.427-95.547,0.00-132.00C 376.213,238.88, 317.147,238.88, 280.667,275.333z" data-tags="map marker, marker, location" />
<glyph unicode="&#xe011;" d="M 137.893,96.747c 18.347-14.827, 106.667-53.333, 266.667,106.667s 123.653,250.213, 106.667,266.667l-106.667-106.667c 13.76-13.893, 1.067-19.067-26.667-53.333
				c-18.347-22.613-53.547-57.707-81.413-80.32c-19.467-15.893-37.52-40.827-51.92-26.347L 137.893,96.747zM 457.893,523.413c-6.40,6.427-20.80,5.84-26.667,0.00c-0.133,0.00-79.973-79.973-80.00-80.00c-6.08-6.133-6.00-20.587,0.00-26.667l 26.667-26.667l 106.667,106.667
				C 484.56,496.747, 457.973,523.36, 457.893,523.413zM 191.227,256.747c-6.427,6.453-20.853,5.84-26.667,0.00c0.00,0.00-79.973-79.973-80.00-80.00c-6.133-6.107-6.00-20.587,0.00-26.667l 26.667-26.667l 106.667,106.667
				C 217.893,230.08, 191.253,256.747, 191.227,256.747z" data-tags="phone, contact, call" />
<glyph unicode="&#xe012;" d="M 565.84,304.667L 320.00,501.333l-245.84-196.667C 62.72,295.493, 65.333,288.00, 80.00,288.00l 26.667,0.00 l 26.667,0.00 l0.00-26.667 l0.00-133.333 l0.00-26.667 c0.00-14.667, 12.00-26.667, 26.667-26.667l 80.00,0.00 c 14.667,0.00, 26.667,12.00, 26.667,26.667l0.00,106.667 l0.00,26.667 l 26.667,0.00 l 53.333,0.00 
			l 26.667,0.00 l0.00-26.667 l0.00-106.667 c0.00-14.667, 12.00-26.667, 26.667-26.667l 80.00,0.00 c 14.667,0.00, 26.667,12.00, 26.667,26.667l0.00,26.667 l0.00,133.333 l0.00,26.667 l 26.667,0.00 l 26.667,0.00 C 574.667,288.00, 577.28,295.493, 565.84,304.667z" data-tags="home, house" />
<glyph unicode="&#xe013;" d="M 533.333,421.333l-53.333,0.00 c-14.667,0.00-35.147,8.48-45.52,18.853l-15.627,15.627C 408.48,466.187, 388.00,474.667, 373.333,474.667l-106.667,0.00 C 252.00,474.667, 231.52,466.187, 221.147,455.813
			L 205.52,440.187C 195.147,429.813, 174.667,421.333, 160.00,421.333L 106.667,421.333 C 92.00,421.333, 80.00,409.333, 80.00,394.667l0.00-266.667 c0.00-14.667, 12.00-26.667, 26.667-26.667l 426.667,0.00 c 14.667,0.00, 26.667,12.00, 26.667,26.667L 560.00,394.667 C 560.00,409.333, 548.00,421.333, 533.333,421.333z
			 M 320.00,181.333c-51.547,0.00-93.333,41.787-93.333,93.333S 268.453,368.00, 320.00,368.00s 93.333-41.787, 93.333-93.333S 371.547,181.333, 320.00,181.333z M 506.667,314.667l-53.333,0.00 L 453.333,368.00 l 53.333,0.00 L 506.667,314.667 z" data-tags="camera, photos, pictures, images" />
<glyph unicode="&#xe014;" d="M 109.68,316.533c-0.08-0.187-0.107-0.40-0.187-0.587C 107.707,311.387, 106.667,306.507, 106.667,301.333s 1.04-10.053, 2.827-14.613
		c 0.08-0.187, 0.107-0.40, 0.187-0.587c 2.027-4.96, 5.013-9.413, 8.747-13.147l 133.28-133.28c 15.627-15.627, 40.933-15.627, 56.56,0.00
		c 15.627,15.60, 15.627,40.96,0.00,56.56L 243.227,261.333L 493.333,261.333 c 22.08,0.00, 40.00,17.893, 40.00,40.00S 515.413,341.333, 493.333,341.333L 243.227,341.333 l 65.04,65.04
		c 15.627,15.60, 15.627,40.96,0.00,56.56C 300.48,470.773, 290.24,474.667, 280.00,474.667S 259.52,470.773, 251.707,462.96l-133.28-133.28
		C 114.693,325.947, 111.707,321.467, 109.68,316.533z" data-tags="arrow-left, previous, left" />
<glyph unicode="&#xe015;" d="M 530.32,286.133c 0.08,0.187, 0.107,0.40, 0.187,0.587C 532.293,291.28, 533.333,296.16, 533.333,301.333s-1.04,10.053-2.827,14.613
		c-0.08,0.187-0.107,0.40-0.187,0.587c-2.027,4.96-5.013,9.413-8.747,13.147l-133.28,133.28c-15.627,15.627-40.933,15.627-56.56,0.00
		c-15.627-15.60-15.627-40.96,0.00-56.56L 396.773,341.333L 146.667,341.333 C 124.587,341.333, 106.667,323.44, 106.667,301.333S 124.587,261.333, 146.667,261.333l 250.107,0.00 l-65.04-65.04
		c-15.627-15.60-15.627-40.96,0.00-56.56C 339.52,131.893, 349.76,128.00, 360.00,128.00s 20.48,3.893, 28.293,11.707l 133.28,133.28
		C 525.307,276.72, 528.293,281.20, 530.32,286.133z" data-tags="arrow-right, next, right" />
<glyph unicode="&#xe016;" d="M 348.533,524.987c-0.213,0.08-0.427,0.107-0.587,0.187C 343.387,526.96, 338.507,528.00, 333.333,528.00s-10.053-1.04-14.613-2.827
		c-0.187-0.08-0.40-0.107-0.587-0.187c-4.96-2.027-9.413-5.013-13.147-8.747L 171.707,382.96c-15.627-15.627-15.627-40.933,0.00-56.56
		c 15.60-15.627, 40.96-15.627, 56.56,0.00L 293.333,391.44L 293.333,141.333 c0.00-22.08, 17.893-40.00, 40.00-40.00c 22.08,0.00, 40.00,17.92, 40.00,40.00L 373.333,391.44 l 65.04-65.04
		c 15.627-15.627, 40.933-15.627, 56.56,0.00C 502.773,334.187, 506.667,344.427, 506.667,354.667s-3.893,20.48-11.707,28.293l-133.28,133.28
		C 357.947,519.973, 353.493,522.96, 348.533,524.987z" data-tags="arrow-up, top, upload" />
<glyph unicode="&#xe017;" d="M 318.133,77.653c 0.213-0.08, 0.427-0.107, 0.587-0.187c 4.56-1.787, 9.44-2.827, 14.613-2.827s 10.053,1.04, 14.613,2.827
		c 0.187,0.08, 0.40,0.107, 0.587,0.187c 4.96,2.027, 9.413,5.013, 13.12,8.747l 133.28,133.28c 15.627,15.627, 15.627,40.933,0.00,56.56
		s-40.933,15.627-56.56,0.00L 373.333,211.20L 373.333,461.333 C 373.333,483.413, 355.413,501.333, 333.333,501.333S 293.333,483.413, 293.333,461.333l0.00-250.133 L 228.293,276.267c-15.627,15.627-40.933,15.627-56.56,0.00
		C 163.893,268.453, 160.00,258.213, 160.00,247.973s 3.893-20.48, 11.707-28.293l 133.28-133.28C 308.72,82.667, 313.173,79.68, 318.133,77.653z" data-tags="arrow-down, download, bottom" />
<glyph unicode="&#xe018;" d="M 443.60,267.067c-4.32-25.76-16.40-49.147-34.987-67.68C 384.96,175.707, 353.493,162.667, 320.00,162.667s-64.96,13.04-88.64,36.747
		C 207.707,223.04, 194.667,254.507, 194.667,288.00s 13.04,64.96, 36.72,88.613S 286.507,413.333, 320.00,413.333c 27.093,0.00, 52.613-8.907, 73.973-24.693L 320.00,314.667l 186.667,0.00 L 506.667,501.333 
		l-63.013-63.013C 408.88,467.013, 365.653,482.667, 320.00,482.667c-51.973,0.00-100.88-20.267-137.653-57.013S 125.333,340.027, 125.333,288.00s 20.24-100.907, 57.013-137.627
		C 219.12,113.60, 268.027,93.333, 320.00,93.333s 100.88,20.267, 137.627,57.013c 28.827,28.773, 47.627,65.173, 54.347,105.253L 443.60,267.067z" data-tags="refresh, reload" />
<glyph unicode="&#xe019;" d="M 208.00,288.00c0.00,29.92, 11.68,58.053, 32.80,79.20c 21.173,21.147, 49.307,32.80, 79.20,32.80l0.00-72.00 l 106.667,106.667l-106.667,105.333L 320.00,469.333 
			c-48.40,0.00-93.947-18.853-128.213-53.093C 157.52,382.00, 138.667,336.48, 138.667,288.00c0.00-47.44, 15.013-82.693, 50.16-117.84l 49.013,49.013
			C 215.813,241.227, 208.00,259.227, 208.00,288.00zM 451.173,405.867l-49.013-49.067c 22.027-22.00, 29.84-40.00, 29.84-68.80c0.00-29.92-11.68-58.053-32.80-79.20
			c-21.173-21.147-49.307-32.80-79.20-32.80l0.00,72.00 l-106.667-106.667l 106.667-105.36l0.00,70.693 c 48.40,0.00, 93.947,18.853, 128.213,53.093C 482.48,194.027, 501.333,239.547, 501.333,288.00
			C 501.333,335.493, 486.32,370.747, 451.173,405.867z" data-tags="refresh, reload, synchronize, loop" />
<glyph unicode="&#xe01a;" d="M 306.667,66.667c-48.453,0.00-93.973,18.853-128.24,53.12C 154.213,144.08, 125.333,183.68, 125.333,234.667l 69.333,0.00 c0.00-28.72, 20.56-53.60, 32.827-65.867
			c 21.12-21.147, 49.253-32.80, 79.173-32.80s 58.053,11.68, 79.173,32.80c 21.173,21.173, 32.827,49.307, 32.827,79.20s-11.68,58.027-32.80,79.20
			c-22.053,22.08-39.947,32.80-54.747,32.80L 331.12,429.333 c 45.493,0.00, 81.013-30.347, 103.787-53.147C 469.147,341.947, 488.00,296.40, 488.00,248.00
			s-18.853-93.947-53.12-128.213C 400.64,85.52, 355.12,66.667, 306.667,66.667zM 106.667,288.00L 106.667,448.00L 266.667,448.00L 213.333,394.667L 293.333,314.667L 240.00,261.333L 160.00,341.333 		z" data-tags="escape" />
<glyph unicode="&#xe01b;" d="M 453.333,367.973L 373.333,368.00L 373.333,448.00 l-104.373-106.667L 373.333,234.667l0.00,80.00 l 80.00,0.00 c 29.413,0.00, 53.333-23.92, 53.333-53.333c0.00-29.44-23.92-53.36-53.333-53.36L 186.667,207.973 c-29.413,0.00-53.333,23.92-53.333,53.36
			c0.00,29.413, 23.92,53.333, 53.333,53.333l 53.333,0.00 l-26.667,26.667l 26.667,26.667L 186.667,367.973c-58.907,0.00-106.667-47.733-106.667-106.64s 47.76-106.667, 106.667-106.667l 266.667,0.00 c 58.907,0.00, 106.667,47.76, 106.667,106.667S 512.24,367.973, 453.333,367.973z" data-tags="repeat, loop" />
<glyph unicode="&#xe01c;" d="M 240.00,288.00l0.00-80.00 L 186.667,208.00 c-29.413,0.00-53.333,23.92-53.333,53.333s 23.92,53.333, 53.333,53.333l 80.00,0.00 l-26.667,26.667l 26.667,26.667L 186.667,367.973L 186.667,368.00 c-58.907,0.00-106.667-47.76-106.667-106.667s 47.76-106.667, 106.667-106.667l0.00,0.027 L 240.00,154.667l0.00-80.00 l 106.667,106.667
			L 240.00,288.00zM 400.00,234.667l0.00,80.00 l 53.333,0.00 c 29.413,0.00, 53.333-23.92, 53.333-53.333s-23.92-53.333-53.333-53.333l-80.00,0.00 l 26.667-26.667l-26.667-26.667l 80.00,0.027L 453.333,154.667 c 58.907,0.00, 106.667,47.76, 106.667,106.667s-47.76,106.667-106.667,106.667l0.00-0.027 L 400.00,368.00L 400.00,448.00 
			l-106.667-106.667L 400.00,234.667z" data-tags="loop, media control" />
<glyph unicode="&#xe01d;" d="M 400.00,232.853c-3.387-0.107-6.773-0.427-10.16-0.48l-6.267-0.187l-3.12-0.107c-0.88,0.00-0.427,0.08-0.693,0.027
		c-0.293-0.187-1.333-0.107-2.747,0.293c-2.80,0.693-7.067,2.533-11.413,5.787c-5.013,3.653-9.84,8.693-14.427,14.293
		c-9.12-24.107-21.84-46.16-37.573-64.64c 2.427-2.267, 4.773-4.56, 7.413-6.747c 8.693-7.227, 19.12-13.893, 32.107-18.667
		c 6.453-2.347, 13.68-4.24, 21.707-4.80l 5.573-0.40l 3.12-0.107l 6.267-0.187c 3.387-0.053, 6.773-0.373, 10.16-0.48L 399.947,101.333 l 93.333,93.333L 400.00,288.00
		L 400.00,232.853 zM 196.053,343.813l 3.147,0.08l 0.347,0.00 l 0.24,0.00 c 1.467-0.107, 5.68-0.107, 4.613-0.32c 0.107-0.213-0.32,0.107, 0.373-0.053
		l 2.72-0.693c 1.973-0.827, 4.053-1.467, 6.267-2.747c 7.333-3.76, 14.347-10.213, 20.88-17.60c 8.507,23.067, 20.933,45.573, 36.453,65.067
		c-6.48,5.60-13.333,10.96-21.013,15.893C 245.147,406.533, 239.493,409.173, 233.813,411.653l-9.20,3.20C 221.28,415.893, 216.667,416.773, 212.72,417.467
		C 207.60,418.373, 207.573,418.107, 204.88,418.453L 203.307,418.587L 199.173,418.773L 196.053,418.853L 183.493,419.20C 166.773,419.493, 150.053,420.453, 133.333,421.333l0.00-80.00 
		c 16.72,0.88, 33.44,1.84, 50.16,2.133L 196.053,343.813z M 197.60,344.00l 0.187,0.00 l 0.293-0.027C 197.84,344.00, 197.707,344.00, 197.52,344.00L 197.60,344.00 zM 400.00,474.667l0.00-55.147 c-3.387-0.107-6.773-0.427-10.16-0.48l-6.267-0.187l-3.12-0.107l-5.573-0.40
		c-8.053-0.56-15.253-2.453-21.707-4.80c-12.987-4.80-23.413-11.467-32.107-18.667c-17.467-14.453-30.453-30.64-40.693-48.187
		c-5.253-8.747-9.493-17.787-13.467-27.227c-4.453-11.093-6.347-18.80-8.907-26.107c-7.947-23.893-25.707-47.947-44.24-57.44
		c-2.213-1.28-4.32-1.893-6.267-2.747l-2.72-0.693c-0.693-0.16-0.24,0.16-0.373-0.053c 1.067-0.213-3.147-0.213-4.613-0.32
		L 199.52,232.107 L 199.173,232.107 l-3.147,0.08l-12.533,0.347C 166.773,232.827, 150.053,233.787, 133.333,234.667l0.00-80.00 c 16.72,0.88, 33.44,1.84, 50.16,2.133l 12.533,0.347
		l 3.147,0.08l 4.133,0.187l 1.573,0.16c 2.693,0.347, 2.72,0.08, 7.84,0.96c 3.973,0.693, 8.56,1.60, 11.893,2.64l 9.20,3.20
		c 5.68,2.48, 11.333,5.093, 16.24,8.213c 39.093,25.013, 61.867,59.60, 75.013,98.72c 2.613,8.587, 5.413,16.96, 7.36,21.307
		c 2.667,5.92, 5.573,12.027, 9.093,17.547c 6.773,11.173, 15.333,21.333, 24.08,27.68c 4.347,3.253, 8.613,5.067, 11.413,5.787
		C 378.40,344.00, 379.44,344.08, 379.733,343.893c 0.267-0.053-0.187,0.027, 0.693,0.027l 3.12-0.107l 6.267-0.187
		C 393.227,343.573, 396.613,343.253, 400.00,343.147L 400.00,288.00 l 93.333,93.333L 400.00,474.667z M 197.60,232.00L 197.493,232.00 c-1.147-0.053-0.40,0.00, 0.587,0.027L 197.787,232.00L 197.60,232.00 z" data-tags="shuffle, media control" />
<glyph unicode="&#xe01e;" d="M 106.667,128.00A53.333,53.333 540.00 1 0 213.333,128A53.333,53.333 540.00 1 0 106.667,128zM 369.52,74.667l-80.00,0.00 c0.00,100.827-82.027,182.853-182.853,182.853l0.00,80.00 C 251.627,337.52, 369.52,219.60, 369.52,74.667zM 520.00,74.667l-80.00,0.00 c0.00,183.813-149.52,333.333-333.333,333.333l0.00,80.00 C 334.587,488.00, 520.00,302.587, 520.00,74.667z" data-tags="feed, rss" />
<glyph unicode="&#xe01f;" d="M 526.107,357.733l-42.72,73.893l-96.40-27.573L 362.667,501.333L 277.333,501.333 L 253.013,404.053L 156.587,431.627l-42.667-73.893l 72.08-69.68l-72.107-69.707
		l 42.693-73.947l 96.427,27.60L 277.333,74.667L 362.667,74.667 l 24.32,97.307l 96.453-27.573l 42.667,73.893l-72.133,69.733L 526.107,357.733z M 320.00,231.12
		c-31.413,0.00-56.907,25.467-56.907,56.88S 288.587,344.88, 320.00,344.88c 31.44,0.00, 56.853-25.467, 56.853-56.88S 351.467,231.12, 320.00,231.12z" data-tags="cog, gear, settings" />
<glyph unicode="&#xe020;" d="M 548.693,436.693l-74.373-74.40l-66.667,13.333l-13.333,66.667l 74.373,74.40c-10.933,3.307-22.347,5.60-34.373,5.60c-66.24,0.00-120.00-53.733-120.00-120.00
		l0.00-40.00 l-183.387-148.80c-34.853-34.533-29.733-84.747,0.00-114.587c 29.733-29.893, 79.733-34.667, 114.587,0.00l 148.80,183.387l 40.00,0.00 c 66.293,0.00, 120.00,53.733, 120.00,120.00
		C 554.32,414.347, 552.027,425.733, 548.693,436.693z" data-tags="wrench, settings" />
<glyph unicode="&#xe021;" d="M 133.333,261.333L 240.00,261.333L 240.00,101.333L 133.333,101.333zM 266.667,474.667L 373.333,474.667L 373.333,103.547L 266.667,103.547zM 400.00,368.00L 506.667,368.00L 506.667,103.547L 400.00,103.547z" data-tags="bars, stats, chart" />
<glyph unicode="&#xe022;" d="M 226.24,442.587C 156.80,419.627, 106.667,353.92, 106.667,276.40C 106.667,179.733, 184.56,101.333, 280.693,101.333c 57.547,0.00, 108.40,28.267, 140.107,71.573l-154.613,88.907
		L 226.24,442.587zM 382.187,515.44C 361.253,523.44, 338.613,528.00, 314.907,528.00c-20.88,0.00-40.88-3.493-59.627-9.68l 43.733-198.133L 382.187,515.44zM 411.093,468.32l-86.907-196.747l 171.60-98.667C 519.28,205.12, 533.333,244.747, 533.333,287.76C 533.333,369.84, 482.667,439.92, 411.093,468.32z" data-tags="chart, pie, stats" />
<glyph unicode="&#xe023;" d="M 160.00,154.667L 160.00,163.573L 294.533,350.48L 394.453,225.573L 494.80,292.48L 465.20,336.853L 405.547,297.093L 292.133,438.853L 160.00,253.867L 160.00,448.00L 106.667,448.00L 106.667,154.667L 106.667,101.333L 160.00,101.333L 506.667,101.333L 506.667,154.667 	z" data-tags="stats, graph" />
<glyph unicode="&#xe024;" d="M 293.333,314.667A53.333,53.333 540.00 1 0 400.00,314.667A53.333,53.333 540.00 1 0 293.333,314.667zM 346.667,474.667c-132.533,0.00-240.00-160.00-240.00-160.00s 107.467-160.00, 240.00-160.00c 132.507,0.00, 240.00,160.00, 240.00,160.00S 479.173,474.667, 346.667,474.667z M 346.667,214.667c-55.20,0.00-100.053,44.827-100.053,100.00
			c0.00,55.20, 44.853,100.00, 100.053,100.00c 55.147,0.00, 100.053-44.80, 100.053-100.00C 446.72,259.493, 401.813,214.667, 346.667,214.667z" data-tags="eye, views" />
<glyph unicode="&#xe025;" d="M 508.16,182.827l 0.933,0.933l-75.173,75.173C 446.213,283.84, 453.333,311.76, 453.333,341.333c0.00,102.907-83.76,186.667-186.667,186.667s-186.667-83.76-186.667-186.667s 83.76-186.667, 186.667-186.667
			c 29.60,0.00, 57.493,7.12, 82.40,19.44l 75.173-75.173l 0.933,0.933c 10.613-10.613, 25.28-17.20, 41.493-17.20c 32.40,0.00, 58.667,26.267, 58.667,58.667
			C 525.333,157.52, 518.773,172.213, 508.16,182.827z M 266.667,208.00c-73.547,0.00-133.333,59.813-133.333,133.333s 59.787,133.333, 133.333,133.333s 133.333-59.813, 133.333-133.333S 340.213,208.00, 266.667,208.00zM 186.667,368.00L 346.667,368.00L 346.667,314.667L 186.667,314.667z" data-tags="zoom out, magnifier" />
<glyph unicode="&#xe026;" d="M 508.16,182.827l 0.933,0.933l-75.173,75.173C 446.213,283.84, 453.333,311.76, 453.333,341.333c0.00,102.907-83.76,186.667-186.667,186.667s-186.667-83.76-186.667-186.667s 83.76-186.667, 186.667-186.667
			c 29.60,0.00, 57.493,7.12, 82.40,19.44l 75.173-75.173l 0.933,0.933c 10.613-10.613, 25.28-17.20, 41.493-17.20c 32.40,0.00, 58.667,26.267, 58.667,58.667
			C 525.333,157.52, 518.773,172.213, 508.16,182.827z M 266.667,208.00c-73.547,0.00-133.333,59.813-133.333,133.333s 59.787,133.333, 133.333,133.333s 133.333-59.813, 133.333-133.333S 340.213,208.00, 266.667,208.00zM 186.667,368.00L 346.667,368.00L 346.667,314.667L 186.667,314.667zM 240.00,421.333L 293.333,421.333L 293.333,261.333L 240.00,261.333z" data-tags="zoom in, magnifier" />
<glyph unicode="&#xe027;" d="M 453.333,181.333L 186.667,181.333L 186.667,448.00L 293.333,448.00L 346.667,528.00L 106.667,528.00L 106.667,101.333L 533.333,101.333L 533.333,261.333L 506.667,234.667 			zM 213.333,234.667c0.00,0.00, 26.667,53.333, 106.667,80.00s 80.00,0.00, 80.00,0.00l0.00-106.667 l 160.00,160.00l-160.00,160.00l0.00-80.00 c-39.68-5.733-79.733-26.40-106.667-53.333C 240.00,341.333, 213.333,234.667, 213.333,234.667z" data-tags="export, share, outside" />
<glyph unicode="&#xe028;" d="M 533.333,119.093l-1.013,0.00 C 524.187,156.32, 466.667,203.84, 373.333,217.44L 373.333,248.00 l-3.253,0.00 C 398.533,273.733, 426.667,318.107, 426.667,381.333c0.00,73.653-26.667,133.333-106.667,133.333
			s-106.667-59.68-106.667-133.333c0.00-63.227, 28.133-107.60, 56.587-133.333L 266.667,248.00 l0.00-30.56 c-93.333-13.60-150.853-61.093-158.987-98.347L 106.667,119.093 c0.00-0.987, 0.347-2.00, 0.613-3.013
			C 107.013,114.107, 106.667,112.107, 106.667,110.24l 3.573,0.00 C 126.987,88.053, 202.907,61.333, 320.00,61.333s 193.013,26.72, 209.76,48.907L 533.333,110.24 
			c0.00,1.867-0.347,3.867-0.613,5.84C 532.987,117.093, 533.333,118.107, 533.333,119.093z" data-tags="user, profile, avatar" />
<glyph unicode="&#xe029;" d="M 492.507,108.907c-6.587,30.64-53.333,69.76-129.173,80.96l0.00,27.867 c 22.187,21.52, 43.333,57.04, 43.333,107.147
			C 406.667,385.493, 385.013,434.667, 320.00,434.667s-86.667-49.173-86.667-109.787c0.00-50.107, 21.147-85.627, 43.333-107.147l0.00-27.867 
			c-75.84-11.20-122.587-50.32-129.173-80.96L 146.667,108.907 c0.00-0.80, 0.293-1.68, 0.533-2.507l 2.373-4.827C 163.173,83.36, 224.88,61.333, 320.00,61.333
			s 156.827,22.027, 170.453,40.267l 2.373,4.827c 0.24,0.827, 0.533,1.68, 0.533,2.507L 492.507,108.933 zM 625.893,213.973c-6.08,28.32-49.227,64.40-119.227,74.747L 506.667,314.40 c 20.507,19.867, 40.00,52.667, 40.00,98.907c0.00,56.00-20.00,101.36-80.00,101.36
				c-50.08,0.00-62.453-9.067-69.147-57.573c 32.507-25.253, 50.293-69.493, 50.293-129.707c0.00-60.773-13.227-93.84-34.48-119.387
				c 26.667,0.00, 62.48-34.64, 87.44-54.80c 90.08,2.293, 111.333,38.08, 123.227,54.00l 2.187,4.427c 0.213,0.773, 0.48,1.573, 0.48,2.32L 625.893,213.947 zM 173.333,514.667c-60.00,0.00-80.00-45.36-80.00-101.36c0.00-46.24, 19.493-79.04, 40.00-98.907l0.00-25.707 c-70.00-10.347-113.147-46.427-119.227-74.747L 13.333,213.947 
				c0.00-0.747, 0.267-1.547, 0.48-2.32L 16.00,207.227c 11.893-15.947, 33.173-51.707, 123.253-54.00C 164.187,173.36, 200.00,208.00, 226.667,208.00
				c-21.28,25.547-34.48,58.587-34.48,119.387c0.00,60.213, 17.813,104.453, 50.32,129.707C 235.813,505.60, 223.413,514.667, 173.333,514.667z" data-tags="users, group" />
<glyph unicode="&#xe02a;" d="M 480.00,314.667L 480.00,394.667 c0.00,14.72-11.92,26.667-26.667,26.667c-14.693,0.00-26.667-11.947-26.667-26.667l0.00-80.00 c0.00-4.347-1.20-106.667-106.667-106.667
			c-102.72,0.00-106.56,95.867-106.667,106.667L 213.333,394.667 c0.00,14.72-11.92,26.667-26.667,26.667C 171.973,421.333, 160.00,409.387, 160.00,394.667l0.00-80.00 c0.00-51.20, 28.853-144.507, 133.333-158.187L 293.333,101.333 L 213.333,101.333 c-14.693,0.00-26.667-11.947-26.667-26.667
			c0.00-14.747, 11.973-26.667, 26.667-26.667l 213.333,0.00 c 14.747,0.00, 26.667,11.92, 26.667,26.667c0.00,14.72-11.92,26.667-26.667,26.667l-80.00,0.00 l0.00,55.147 C 451.20,170.16, 480.00,263.467, 480.00,314.667zM 320.00,248.00c 44.213,0.00, 80.00,35.813, 80.00,79.973L 400.00,341.333 L 400.00,448.053 C 400.00,492.213, 364.213,528.00, 320.00,528.00
			c-44.16,0.00-80.00-35.787-80.00-79.947L 240.053,341.333L 240.00,341.333 l0.00-13.36 C 240.00,283.813, 275.84,248.00, 320.00,248.00z" data-tags="microphone, record, voice" />
<glyph unicode="&#xe02b;" d="M 53.333,474.667l0.00-373.333 l 533.333,0.00 L 586.667,474.667 L 53.333,474.667 z M 320.00,270.08L 147.173,421.333l 345.68,0.00 L 320.00,270.08z M 264.32,247.947L 320.00,199.253l 55.68,48.693L 468.96,154.667L 171.04,154.667 L 264.32,247.947
			z M 106.667,165.707L 106.667,385.92 l 117.44-102.773L 106.667,165.707z M 415.893,283.147L 533.333,385.92l0.00-220.213 L 415.893,283.147z" data-tags="mail, envelope, email, contact" />
<glyph unicode="&#xe02c;" d="M 453.333,474.667L 186.667,474.667 C 142.667,474.667, 106.667,438.667, 106.667,394.667l0.00-160.00 c0.00-44.00, 36.00-80.00, 80.00-80.00l 26.667,0.00 l0.00-106.667 l 106.667,106.667l 133.333,0.00 c 44.00,0.00, 80.00,36.00, 80.00,80.00L 533.333,394.667 C 533.333,438.667, 497.333,474.667, 453.333,474.667z" data-tags="comment, message, bubble, chat, message" />
<glyph unicode="&#xe02d;" d="M 533.333,394.667l-31.573,0.00 c-4.533,12.64-12.00,23.733-21.76,32.533L 475.093,448.00C 464.027,478.987, 434.72,501.333, 400.00,501.333L 240.00,501.333 
				C 205.28,501.333, 175.973,478.987, 164.907,448.00L 160.00,427.20C 150.24,418.40, 142.773,407.307, 138.24,394.667L 106.667,394.667 l0.00-53.333 l 26.667,0.00 l0.00-213.333 c0.00-44.107, 35.893-80.00, 80.00-80.00l 213.333,0.00 c 44.107,0.00, 80.00,35.893, 80.00,80.00l0.00,213.333 l 26.667,0.00 L 533.333,394.667 z
				 M 213.333,421.333c0.00,14.72, 11.947,26.667, 26.667,26.667l 160.00,0.00 c 14.72,0.00, 26.667-11.947, 26.667-26.667l0.00-26.667 L 213.333,394.667 L 213.333,421.333 z M 453.333,128.00c0.00-14.72-11.947-26.667-26.667-26.667L 213.333,101.333 c-14.72,0.00-26.667,11.947-26.667,26.667l0.00,213.333 l 266.667,0.00 L 453.333,128.00 zM 213.333,314.667L 266.667,314.667L 266.667,128.00L 213.333,128.00zM 293.333,314.667L 346.667,314.667L 346.667,128.00L 293.333,128.00zM 373.333,314.667L 426.667,314.667L 426.667,128.00L 373.333,128.00z" data-tags="trashcan, remove, delete, garbage" />
<glyph unicode="&#xe02e;" d="M 533.333,474.667L 240.00,474.667 C 225.333,474.667, 206.347,464.907, 197.84,452.96l-102.347-143.227c-8.507-11.947-8.507-31.493,0.00-43.44l 102.347-143.227
			C 206.347,111.093, 225.333,101.333, 240.00,101.333l 293.333,0.00 c 14.667,0.00, 26.667,12.00, 26.667,26.667L 560.00,448.00 C 560.00,462.667, 548.00,474.667, 533.333,474.667z M 498.853,208.00L 453.333,162.48l-80.00,80.00l-80.00-80.00L 247.813,208.00l 80.00,80.00l-80.00,80.00
			L 293.333,413.52l 80.00-80.00l 80.00,80.00L 498.853,368.00l-80.00-80.00L 498.853,208.00z" data-tags="delete, remove, backspace" />
<glyph unicode="&#xe02f;" d="M 456.107,155.227c-35.44,0.00-68.747,13.813-93.813,38.853L 320.00,234.667l-42.827-41.12c-24.507-24.507-57.84-38.32-93.253-38.32
			s-68.747,13.813-93.813,38.853c-25.067,25.04-38.853,58.347-38.853,93.813s 13.787,68.773, 38.907,93.813c 24.987,25.04, 58.32,38.88, 93.76,38.88l0.00,0.00
			c 35.413,0.00, 68.773-13.813, 93.84-38.88l 42.24-40.56l 42.853,41.173c 24.533,24.507, 57.813,38.267, 93.253,38.267c 35.413,0.00, 68.693-13.76, 93.787-38.80
			s 38.88-58.373, 38.88-93.84c0.00-35.493-13.813-68.80-38.907-93.867C 524.853,169.04, 491.52,155.227, 456.107,155.227z M 375.413,287.92l 40.587-39.013
			c 10.373-10.373, 23.813-15.76, 37.307-16.427c 15.44-0.773, 30.987,4.64, 42.213,15.92c 10.587,10.56, 16.40,24.613, 16.40,39.547
			c0.00,14.907-5.813,28.933-16.347,39.52C 484.373,338.667, 468.72,343.947, 453.333,343.20c-13.573-0.613-26.88-5.893-36.773-15.76L 375.413,287.92
			L 375.413,287.92z M 183.893,343.813c-14.907,0.00-28.933-5.84-39.44-16.347c-10.587-10.613-16.427-24.64-16.427-39.547s 5.84-28.933, 16.373-39.493
			C 155.627,237.173, 171.28,231.893, 186.667,232.613c 13.547,0.613, 26.853,5.893, 36.747,15.787l 41.147,39.52l-40.56,38.96
			C 212.853,337.973, 198.827,343.813, 183.893,343.813z" data-tags="infinity" />
<glyph unicode="&#xe030;" d="M 386.667,474.667c-73.653,0.00-133.333-59.68-133.333-133.333c0.00-19.52, 4.427-37.973, 11.973-54.693L 160.00,181.333l0.00-80.00 l 106.667,0.00 l0.00,53.333 l 53.333,0.00 l0.00,53.333 l 53.333,0.00 l0.00,1.36 C 377.787,208.88, 382.08,208.00, 386.667,208.00
		c 73.653,0.00, 133.333,59.68, 133.333,133.333S 460.32,474.667, 386.667,474.667z M 386.667,288.00c-29.44,0.00-53.333,23.893-53.333,53.333s 23.893,53.36, 53.333,53.36c 29.467,0.00, 53.333-23.893, 53.333-53.36
		S 416.133,288.00, 386.667,288.00z" data-tags="key, password" />
<glyph unicode="&#xe031;" d="M 189.333,341.333A130.667,130.667 540.00 1 0 450.667,341.333A130.667,130.667 540.00 1 0 189.333,341.333zM 468.96,192.373c 76.347,76.347, 81.707,197.307, 16.00,280.00l 38.693,38.64c 9.387,9.387, 9.387,24.587,0.00,33.947s-24.587,9.387-33.947,0.00
			L 418.08,473.333l 16.933-16.96c 63.413-63.467, 63.413-166.667, 0.027-230.053c-24.347-24.347-55.067-39.867-88.347-45.333L 346.693,181.333 l-53.333,0.00 l0.00-0.347 
			c-33.28,5.44-64.027,20.96-88.347,45.307c-9.387,9.44-24.56,9.44-33.92,0.027c-9.387-9.387-9.387-24.56-0.027-33.92
			C 204.427,158.933, 247.20,138.32, 293.333,132.533L 293.333,101.333 L 186.667,101.333 c-14.72,0.00-26.667-11.92-26.667-26.667s 11.947-26.667, 26.667-26.667l 266.667,0.00 c 14.747,0.00, 26.667,11.92, 26.667,26.667s-11.92,26.667-26.667,26.667l-106.667,0.00 l0.00,31.20 
			C 392.80,138.347, 435.52,158.96, 468.96,192.373z" data-tags="globe, earth" />
<glyph unicode="&#xe032;" d="M 133.333,368.00L 213.333,368.00L 213.333,154.667L 133.333,154.667zM 240.00,341.333c 26.667,0.00, 26.667,0.00, 53.333,53.333c 16.88,33.733, 26.667,80.00, 26.667,80.00l 53.333,0.00 c0.00,0.00,0.00-80.00-26.667-106.667l 133.333-26.667l-26.667-186.667c0.00,0.00-26.667-26.667-106.667-26.667l-106.667,53.333L 240.00,341.333 z" data-tags="thumbs up, like" />
<glyph unicode="&#xe033;" d="M 426.667,421.333L 506.667,421.333L 506.667,208.00L 426.667,208.00zM 400.00,234.667c-26.667,0.00-26.667,0.00-53.333-53.333c-16.88-33.733-26.667-80.00-26.667-80.00l-53.333,0.00 c0.00,0.00,0.00,80.00, 26.667,106.667l-133.333,26.667l 26.667,186.667c0.00,0.00, 26.667,26.667, 106.667,26.667l 106.667-53.333L 400.00,234.667 z" data-tags="thumbs down, dislike" />
<glyph unicode="&#xe034;" d="M 541.733,279.653L 293.333,528.00L 80.00,528.00 l0.00-213.333 l 248.40-248.373c 16.747-16.747, 43.893-16.747, 60.64,0.00l 152.693,152.72
		C 558.48,235.733, 558.48,262.88, 541.733,279.653z M 200.00,354.667c-29.467,0.00-53.333,23.867-53.333,53.333s 23.867,53.333, 53.333,53.333c 29.467,0.08, 53.333-23.867, 53.333-53.333S 229.413,354.667, 200.00,354.667
		z" data-tags="tag, price" />
<glyph unicode="&#xe035;" d="M 373.333,74.667L 133.333,74.667 c-29.413,0.00-53.333,23.92-53.333,53.333L 80.00,368.00 c0.00,29.413, 23.92,53.333, 53.333,53.333l 240.00,0.00 c 29.413,0.00, 53.333-23.92, 53.333-53.333l0.00-240.00 C 426.667,98.587, 402.747,74.667, 373.333,74.667z M 133.333,368.00l0.00-240.00 l 240.00,0.00 L 373.333,368.00 L 133.333,368.00 zM 480.00,154.667l-26.667,0.00 l0.00,53.333 l 26.667,0.00 L 480.00,474.667 L 213.333,474.667 l0.00-26.667 L 160.00,448.00 L 160.00,474.667 c0.00,29.413, 23.92,53.333, 53.333,53.333l 266.667,0.00 c 29.413,0.00, 53.333-23.92, 53.333-53.333l0.00-266.667 C 533.333,178.587, 509.413,154.667, 480.00,154.667z" data-tags="views, popout" />
<glyph unicode="&#xe036;" d="M 538.373,147.067l-185.093,308.533c-15.093,25.147-39.787,25.147-54.907,0.00l-185.093-308.533C 98.187,121.893, 109.84,101.333, 139.173,101.333l 373.333,0.00 
		C 541.813,101.333, 553.493,121.893, 538.373,147.067z M 352.507,154.667l-53.333,0.00 l0.00,53.333 l 53.333,0.00 L 352.507,154.667 z M 339.173,234.667l-26.667,0.00 l-26.667,133.333l 80.00,0.00 L 339.173,234.667z" data-tags="warning, alert" />
<glyph unicode="&#xe037;" d="M 515.067,187.04L 436.987,421.333L 480.00,421.333 c 14.747,0.00, 26.667,11.92, 26.667,26.667s-11.92,26.667-26.667,26.667L 186.667,474.667 C 171.92,474.667, 160.00,462.747, 160.00,448.00s 11.92-26.667, 26.667-26.667l 43.013,0.00 l-78.107-234.293
			c-7.20-21.493-4.48-43.253, 7.387-59.733C 170.853,110.773, 190.667,101.333, 213.333,101.333l 240.00,0.00 c 22.667,0.00, 42.48,9.44, 54.347,25.973
			C 519.547,143.787, 522.267,165.547, 515.067,187.04z M 380.773,421.333l 35.573-106.667L 250.32,314.667 l 35.573,106.667L 380.773,421.333 z" data-tags="beta, lab, test" />
<glyph unicode="&#xe038;" d="M 413.333,501.333C 361.867,501.333, 320.00,459.467, 320.00,408.00L 320.00,341.333 L 160.00,341.333 c-14.667,0.00-26.667-12.00-26.667-26.667l0.00-186.667 c0.00-14.667, 12.00-26.667, 26.667-26.667l 240.00,0.00 c 14.667,0.00, 26.667,12.00, 26.667,26.667l0.00,186.667 c0.00,14.667-12.00,26.667-26.667,26.667
			l-26.667,0.00 L 373.333,408.00 C 373.333,430.053, 391.28,448.00, 413.333,448.00S 453.333,430.053, 453.333,408.00L 453.333,314.667 l 53.333,0.00 L 506.667,408.00 C 506.667,459.467, 464.80,501.333, 413.333,501.333z" data-tags="unlocked" />
<glyph unicode="&#xe039;" d="M 453.333,341.333l-26.667,0.00 L 426.667,394.667 c0.00,58.827-47.84,106.667-106.667,106.667S 213.333,453.493, 213.333,394.667l0.00-53.333 L 186.667,341.333 c-14.667,0.00-26.667-12.00-26.667-26.667l0.00-186.667 c0.00-14.667, 12.00-26.667, 26.667-26.667l 266.667,0.00 c 14.667,0.00, 26.667,12.00, 26.667,26.667l0.00,186.667 
			C 480.00,329.333, 468.00,341.333, 453.333,341.333z M 266.667,394.667c0.00,29.413, 23.92,53.333, 53.333,53.333s 53.333-23.92, 53.333-53.333l0.00-53.333 l-106.667,0.00 L 266.667,394.667 z" data-tags="locked, encrypted" />
<glyph unicode="&#xe03a;" d="M 160.00,288.00L 480.00,288.00L 320.00,448.00 		zM 160.00,234.667L 480.00,234.667L 480.00,154.667L 160.00,154.667z" data-tags="eject" />
<glyph unicode="&#xe03b;" d="M 560.00,288.00L 453.333,394.667L 453.333,341.333L 373.333,341.333L 373.333,421.333L 426.667,421.333L 320.00,528.00L 213.333,421.333L 266.667,421.333L 266.667,341.333L 186.667,341.333L 186.667,394.667L 80.00,288.00L 186.667,181.333L 186.667,234.667L 266.667,234.667L 266.667,154.667L 213.333,154.667L 320.00,48.00L 426.667,154.667L 373.333,154.667L 373.333,234.667L 453.333,234.667L 453.333,181.333 		z" data-tags="move" />
<glyph unicode="&#xe03c;" d="M 293.333,208.00L 240.00,261.333L 186.667,208.00L 133.333,261.333L 133.333,101.333L 293.333,101.333L 240.00,154.667 		zM 240.00,314.667L 293.333,368.00L 240.00,421.333L 293.333,474.667L 133.333,474.667L 133.333,314.667L 186.667,368.00 		zM 400.00,261.333L 346.667,208.00L 400.00,154.667L 355.84,101.333L 506.667,101.333L 506.667,261.333L 453.333,208.00 		zM 346.667,474.667L 400.00,421.333L 346.667,368.00L 400.00,314.667L 453.333,368.00L 506.667,314.667L 506.667,474.667 		z" data-tags="expand" />
<glyph unicode="&#xe03d;" d="M 320.00,501.333c-117.627,0.00-213.333-95.707-213.333-213.333s 95.707-213.333, 213.333-213.333s 213.333,95.707, 213.333,213.333S 437.627,501.333, 320.00,501.333z M 453.333,288.00c0.00-22.187-5.973-42.773-15.573-61.20L 258.80,405.76
			C 277.227,415.36, 297.813,421.333, 320.00,421.333C 393.52,421.333, 453.333,361.52, 453.333,288.00z M 186.667,288.00c0.00,22.187, 5.973,42.773, 15.573,61.20l 178.96-178.96
			C 362.773,160.64, 342.187,154.667, 320.00,154.667C 246.48,154.667, 186.667,214.48, 186.667,288.00z" data-tags="cancel, forbidden, denied, blocked" />
<glyph unicode="&#xe03e;" d="M 386.667,528.00L 186.667,312.00L 320.00,234.667L 253.333,48.00L 453.333,264.00L 320.00,341.333 		z" data-tags="electricity, bolt, lightning, power" />
<glyph unicode="&#xe03f;" d="M 506.72,459.227c 6.56,13.12, 0.933,19.04-12.507,13.173L 116.40,307.093c-13.44-5.867-12.88-13.973, 1.20-18.00l 135.413-38.693
			c 14.08-4.00, 27.307-19.20, 29.413-33.733l 19.12-133.867c 2.08-14.533, 9.147-15.68, 15.707-2.56L 506.72,459.227z" data-tags="compass" />
<glyph unicode="&#xe040;" d="M 333.333,528.00C 208.347,528.00, 106.667,426.32, 106.667,301.333S 208.347,74.667, 333.333,74.667s 226.667,101.68, 226.667,226.667S 458.347,528.00, 333.333,528.00z M 372.24,160.08L 360.00,221.333l-53.333,0.00 
			l-12.24-61.253c-49.60,13.68-88.64,52.747-102.347,102.347L 253.333,274.667l0.00,53.333 l-61.253,12.24c 13.707,49.60, 52.747,88.667, 102.347,102.347L 306.667,381.333l 53.333,0.00 
			l 12.24,61.253c 49.60-13.68, 88.64-52.747, 102.347-102.347L 413.333,328.00l0.00-53.333 l 61.253-12.24C 460.88,212.827, 421.84,173.76, 372.24,160.08z" data-tags="location, target" />
<glyph unicode="&#xe041;" d="M 453.333,421.333L 160.00,421.333L 186.667,341.333L 453.333,341.333L 506.667,381.333 		zM 106.667,274.667L 160.00,234.667L 453.333,234.667L 426.667,314.667L 160.00,314.667 		zM 266.667,208.00L 346.667,208.00L 346.667,101.333L 266.667,101.333zM 266.667,501.333L 346.667,501.333L 346.667,448.00L 266.667,448.00z" data-tags="directions, guides" />
<glyph unicode="&#xe042;" d="M 494.48,373.067l-95.627,95.627c-10.373,10.373-18.853,6.853-18.853-7.813l0.00-26.667 c0.00-14.667-10.72-32.027-23.867-38.587l-58.96-29.467
		C 284.053,359.60, 261.333,354.213, 246.667,354.213l-26.667,0.00 c-14.667,0.00-32.667,0.00-40.00,0.00s-4.853-8.48, 5.52-18.853l 76.133-76.133L 160.00,148.667l 115.76,96.453
		l 85.387-85.387c 10.373-10.373, 18.853-6.853, 18.853,7.813l0.00,53.333 c0.00,14.667, 5.36,37.387, 11.92,50.533l 29.467,58.96
		c 6.56,13.12, 23.92,23.867, 38.587,23.867l 26.667,0.00 C 501.333,354.213, 504.853,362.72, 494.48,373.067z" data-tags="pin" />
<glyph unicode="&#xe043;" d="M 226.667,368.00C 219.333,368.00, 213.333,362.00, 213.333,354.667l0.00-106.667 C 213.333,240.667, 219.333,234.667, 226.667,234.667l 53.28,0.00 c 7.333,0.00, 18.48-3.067, 24.773-6.853l 137.20-92.96
		C 448.187,131.067, 453.333,134.00, 453.333,141.333l0.00,320.00 c0.00,7.333-5.147,10.267-11.44,6.48l-137.20-92.96C 298.427,371.067, 287.28,368.00, 279.947,368.00L 226.667,368.00 z" data-tags="mute, speaker, volume, media control" />
<glyph unicode="&#xe044;" d="M 66.667,368.00C 59.333,368.00, 53.333,362.00, 53.333,354.667l0.00-106.667 C 53.333,240.667, 59.333,234.667, 66.667,234.667l 53.28,0.00 c 7.333,0.00, 18.48-3.067, 24.773-6.853l 137.20-92.96
		C 288.187,131.067, 293.333,134.00, 293.333,141.333l0.00,320.00 c0.00,7.333-5.147,10.267-11.44,6.48L 144.72,374.853C 138.427,371.067, 127.28,368.00, 119.947,368.00L 66.667,368.00 zM 320.053,322.40c 6.64-4.48, 11.307-11.707, 11.307-20.373s-4.667-15.893-11.307-20.373l 18.293-17.867
		c 10.933,9.20, 18.08,22.80, 18.08,38.24s-7.147,29.04-18.08,38.24L 320.053,322.40zM 392.133,392.853L 374.133,375.253c 19.76-18.32, 32.347-44.213, 32.347-73.227s-12.587-54.933-32.347-73.227l 18.00-17.547
		c 24.133,22.827, 39.413,54.96, 39.413,90.773S 416.267,369.947, 392.133,392.853zM 446.053,445.44l-18.00-17.547c 32.96-31.893, 53.573-76.48, 53.573-125.867s-20.587-93.92-53.573-125.867l 18.00-17.547
		c 37.333,36.373, 60.613,87.173, 60.613,143.413S 483.387,409.067, 446.053,445.44z" data-tags="volume, speaker, media control" />
<glyph unicode="&#xe045;" d="M 343.413,295.787c-2.267,3.093-4.133,6.32-5.787,9.60c 0.667-3.813, 1.067-7.52, 1.147-11.12
		c 1.52,0.56, 3.12,0.987, 4.80,1.28L 343.413,295.787zM 396.08,231.093c 0.133-1.653, 0.347-4.373, 0.747-4.96c-0.107,0.16, 0.56,3.467, 0.987,5.44
		c 0.507,2.453, 1.067,5.20, 2.133,7.867c-0.347,0.187-0.64,0.40-0.96,0.56c-1.733,1.013-2.773,1.627-3.947,1.867l-0.747,0.16
		l 0.853-3.76C 395.653,235.867, 395.893,233.44, 396.08,231.093zM 365.333,258.587l-1.333,3.84L 364.00,258.667 l-0.08,3.76L 363.893,258.667l-8.427-0.48l-0.48,15.44c-2.773-4.053-3.627-5.653-2.853-9.093
		l 1.253-5.627l 0.187,0.027l-0.107-0.373l 0.107-0.56c 2.053,0.213, 4.133-0.08, 6.107-0.693l 4.853-1.467l 0.747-5.013
		c 1.067-7.147-2.213-12.107-9.733-14.773c 3.013-1.12, 4.667,0.133, 8.453,3.147c 5.013,3.973, 13.68,9.36, 24.08,5.60l 0.64,5.733
		c 0.267,2.373,0.00,3.28-7.413,6.88c-1.653,0.773-3.867,1.867-6.107,3.36c-1.893-1.573-4.427-2.347-7.467-2.347L 365.333,258.587zM 320.00,528.00c-132.32,0.00-240.00-107.68-240.00-240.00s 107.68-240.00, 240.00-240.00s 240.00,107.68, 240.00,240.00S 452.32,528.00, 320.00,528.00z M 451.28,224.24l 3.947,13.493
		c-1.707,0.987-3.20,2.40-4.373,4.08c-0.56,0.773-0.933,1.68-1.307,2.48c-1.813,0.88-3.28,1.947-4.427,3.093
		c-0.373-0.24-0.773-0.507-1.173-0.72c 1.12-1.973, 2.293-4.08, 3.387-6.187l 4.88-9.44l-10.453-1.867
		c-12.293-2.32-17.787,3.04-21.573,7.307c 3.547-6.187, 5.893-13.227, 8.16-20.107c 3.173-9.493, 6.107-18.533, 11.787-23.653l 2.693-2.427
		l-0.133-3.653c-0.987-27.973-19.04-51.493-42.40-58.053c 0.827-5.76-0.32-10.48-3.307-14.053c-4.507-5.173-11.413-5.84-16.187-5.84
		l-6.773,0.00 l-2.16,6.747c-0.80,5.36-0.16,9.867, 1.893,13.333c-0.747,0.267-1.52,0.507-2.293,0.773l-5.787,2.053l 0.587,6.08
		c 0.373,4.00-0.667,4.80-5.413,7.947c-2.293,1.493-5.013,3.173-7.307,5.653c-7.04-0.40-13.60-2.587-20.48-4.907
		c-10.613-3.60-22.773-6.96-34.453-4.053l-9.92,2.40l 4.933,8.987c 2.453,4.48, 2.533,13.12, 2.667,21.52
		c 0.053,7.973, 0.107,16.24, 2.24,23.20l 0.96,3.173l 2.96,1.547c 3.04,1.573, 6.133,3.093, 9.307,4.56
		c 13.547,6.48, 26.32,12.667, 33.333,23.653l-1.573,1.227c-0.80,0.613-1.60,1.36-2.187,2.133c-2.427-1.12-5.493-1.893-9.333-2.027
		l-6.32-0.107l-0.613,2.347l-3.44,0.00 l-3.733,3.947c-1.307,1.813-2.427,4.747-1.227,8.933c-39.84,1.147-54.187,32.053-66.907,59.413
		l-8.773,18.453l 10.56,1.60c 0.107,0.00, 0.213,0.00, 0.40,0.053l 0.267,3.387c 0.613,8.72, 0.053,16.08-1.76,22.32
		C 242.00,355.707, 238.133,363.627, 234.933,370.213C 233.147,373.787, 231.333,377.493, 229.333,379.787c-0.827-1.04-1.893-2.613-2.693-3.733
		C 225.12,373.707, 223.493,371.307, 221.68,369.36L 217.813,365.387C 210.853,358.267, 207.20,354.507, 207.227,342.693c 0.48-0.667, 1.093-1.547, 1.653-2.293
		c 3.387-4.48, 10.40-13.813, 2.56-25.307l-2.053-3.04l-3.60-0.427c-5.92,0.08-10.88,2.853-13.253,7.733
		c-0.24,0.427-0.40,0.907-0.587,1.36c-2.693-0.507-6.827-0.507-11.04,3.92l-1.733,1.787l-0.40,2.453
		C 177.333,337.84, 174.267,345.093, 170.933,352.72C 168.00,359.547, 164.987,366.56, 163.04,375.067C 157.227,377.867, 153.68,382.64, 150.693,386.667
		C 148.96,389.013, 147.387,391.147, 145.68,392.427L 130.80,392.427 l 7.973,12.133c 40.48,61.733, 108.48,98.613, 182.00,98.613c 9.173,0.00, 18.827-0.773, 30.453-2.373
		l 7.333-0.987l-0.773-10.88c-0.24-4.427-0.507-9.04-2.107-12.987l-1.04-2.40l-2.293-1.387c-2.027-1.76-4.293-3.787-7.333-4.907
		c-0.213-0.80-0.40-1.68-0.587-2.427c 0.32-0.40, 0.613-0.773, 0.88-1.12c 3.573-4.56, 8.48-10.80, 7.467-18.347
		c-0.427-2.96-1.973-7.28-7.093-11.067l-3.36-2.507l-3.92,1.493c-6.48,2.293-10.613,6.96-13.813,11.573
		c-0.24-0.373-0.533-0.613-0.72-0.933c 0.613-1.067, 1.68-2.16, 3.20-3.707c 3.20-3.20, 7.547-7.627, 8.80-15.253
		c 2.08-12.187-0.56-23.893-7.44-33.013c-5.493-7.253-13.173-12.08-21.84-13.893c-0.053-0.213-0.053-0.507-0.053-0.693
		c-0.133-3.947-0.32-9.28-4.427-12.773c 3.04-5.307, 5.413-11.60, 4.427-18.64c-1.147-7.60-4.96-11.093-8.293-14.16
		c-1.28-1.173-2.80-2.587-4.48-4.613l-2.667-3.173l-4.133,0.40c-1.52,0.133-2.827,0.453-4.053,0.827
		c 5.573-7.253, 11.867-17.173, 5.84-28.427c 0.56-1.20, 1.387-2.373, 2.64-4.027c 0.293-0.40, 0.56-0.747, 0.88-1.20l 4.773,1.067
		c 3.733,0.827, 7.147,4.187, 10.747,7.84c 3.093,3.067, 6.507,6.40, 10.56,8.587c-1.04,7.867, 3.68,11.68, 5.68,13.387l 1.547,6.747
		c-0.587,1.013-1.307,2.00-2.027,3.067l-1.76,2.533l 0.453,3.04c 0.72,5.067, 2.40,8.933, 3.92,12.347l 0.853,2.00
		c-5.573,2.507-8.56,8.80-8.293,14.64c 0.293,7.573, 5.92,13.067, 13.387,13.067l 2.88-0.267l 6.56-1.12l 0.08-9.093
		c 0.053-4.56, 0.187-10.16-2.853-14.427c 7.813-2.507, 9.467-10.907, 10.24-14.88c 0.24-1.307, 0.613-3.227, 0.987-3.84l 10.853-0.267
		l-2.987-5.547c 2.24-2.107, 3.68-5.013, 4.027-7.84c 0.16-1.20, 0.16-2.32,0.00-3.413c 3.147-4.507, 4.987-10.267, 5.36-17.227
		l 0.347-5.92c 2.427-0.72, 3.84-2.24, 4.613-3.253c 1.947-2.613, 2.00-5.307, 1.60-7.733l 0.667,0.16
		c 9.44,1.973, 13.093-2.80, 15.333-5.973c 14.533,3.467, 28.56-1.52, 40.88-14.507c 0.107,0.08, 0.293,0.16, 0.40,0.24
		c-0.747,2.107-0.80,4.427-0.16,7.04l 1.92,7.947l 7.867-2.347c 3.653-1.067, 6.187-2.933, 8.213-4.48
		c 0.827-0.533, 1.573-1.147, 2.427-1.627l 5.787-3.013l-1.36-4.427c 0.827-0.693, 1.60-1.44, 2.373-2.16
		c 1.867-1.867, 2.507-2.373, 3.547-2.533l 7.147-1.013l-0.107-2.347c 0.773-0.453, 1.60-1.04, 2.293-1.76l 8.267,4.96l 0.213-12.747
		c0.00-0.187,0.00-0.373, 0.053-0.56l 5.84-0.613l-4.827-10.00c-2.56-5.36-6.213-6.427-8.827-6.427c-3.12,0.00-5.253,1.60-6.667,3.12
		L 451.28,224.24z M 465.573,209.60l 0.96,14.24l 11.547-8.373c 6.56-4.827, 11.253-11.067, 13.84-18.56l 5.20-15.013l-15.093,4.987
		C 470.347,190.693, 464.88,198.32, 465.573,209.60z" data-tags="globe, world, earth" />
<glyph unicode="&#xe046;" d="M 213.333,181.333L 320.00,181.333L 480.00,341.333L 373.333,448.00L 213.333,288.00 			zM 266.667,234.667L 266.667,288.00L 320.00,234.667 			zM 453.333,528.00L 560.00,421.333L 506.693,368.00L 400.027,474.667zM 160.00,448.00l 106.667,0.00 L 213.333,394.667L 160.00,394.667 l0.00-266.667 l 266.667,0.00 l0.00,53.333 l 53.333,53.333l0.00-106.667 c0.00-29.413-23.92-53.333-53.333-53.333L 160.00,74.667 c-29.413,0.00-53.333,23.92-53.333,53.333L 106.667,394.667 C 106.667,424.08, 130.587,448.00, 160.00,448.00z" data-tags="pencil, write, blog" />
<glyph unicode="&#xe047;" d="M 133.333,368.00L 533.333,368.00L 533.333,234.667L 133.333,234.667z" data-tags="minus, remove, delete" />
<glyph unicode="&#xe048;" d="M 133.333,448.00L 533.333,448.00L 533.333,314.667L 133.333,314.667zM 133.333,261.333L 533.333,261.333L 533.333,128.00L 133.333,128.00z" data-tags="equals" />
<glyph unicode="&#xe049;" d="M 506.667,421.333c0.00,29.333-24.00,53.333-53.333,53.333L 186.667,474.667 C 157.333,474.667, 133.333,450.667, 133.333,421.333l0.00,0.00c0.00-29.333, 24.00-53.333, 53.333-53.333l 266.667,0.00 C 482.667,368.00, 506.667,392.00, 506.667,421.333L 506.667,421.333zM 506.667,288.00c0.00,29.333-24.00,53.333-53.333,53.333L 186.667,341.333 c-29.333,0.00-53.333-24.00-53.333-53.333l0.00,0.00c0.00-29.333, 24.00-53.333, 53.333-53.333l 266.667,0.00 C 482.667,234.667, 506.667,258.667, 506.667,288.00L 506.667,288.00zM 506.667,154.667c0.00,29.333-24.00,53.333-53.333,53.333L 186.667,208.00 c-29.333,0.00-53.333-24.00-53.333-53.333l0.00,0.00c0.00-29.333, 24.00-53.333, 53.333-53.333l 266.667,0.00 C 482.667,101.333, 506.667,125.333, 506.667,154.667L 506.667,154.667z" data-tags="list, menu" />
<glyph unicode="&#xe04a;" d="M 176.00,501.333L 170.667,501.333 C 150.133,501.333, 133.333,484.533, 133.333,464.00l0.00-352.00 C 133.333,91.467, 150.133,74.667, 170.667,74.667l 5.333,0.00 C 196.533,74.667, 213.333,91.467, 213.333,112.00L 213.333,464.00 C 213.333,484.533, 196.533,501.333, 176.00,501.333zM 426.667,421.333c-106.667,0.00-53.333,42.667-160.00,42.667L 240.00,464.00 L 240.00,261.333 l 26.667,0.00 c 106.667,0.00, 53.333-53.333, 160.00-53.333l 53.333,0.00 L 480.00,421.333 L 426.667,421.333 z" data-tags="flag" />
<glyph unicode="&#xe04b;" d="M 326.747,155.333c-23.173,0.00-37.973,16.827-32.987,37.60L 346.667,288.00c 9.947,41.573-19.573,75.253-66.00,75.253
			c-27.467,0.00-54.693-11.84-74.373-30.08c 8.133,4.72, 17.52,7.52, 26.96,7.52c 23.20-0.027, 37.973-16.88, 33.013-37.627L 213.333,208.00
			c-9.92-41.573, 19.653-75.20, 66.053-75.227c 27.467-0.027, 54.667,11.787, 74.373,30.107C 345.627,158.107, 336.213,155.333, 326.747,155.333zM 293.333,447.973A53.333,53.333 540.00 1 0 400.00,447.973A53.333,53.333 540.00 1 0 293.333,447.973z" data-tags="info" />
<glyph unicode="&#xe04c;" d="M 257.333,114.667A49.333,49.333 540.00 1 0 356.00,114.66699999999997A49.333,49.333 540.00 1 0 257.333,114.66699999999997zM 414.293,462.24C 389.147,487.44, 355.653,501.333, 320.00,501.333S 250.853,487.44, 225.76,462.293C 200.56,437.147, 197.253,415.947, 191.253,394.693
	s 3.573-43.707, 24.373-51.04c 20.827-7.36, 41.707,3.92, 48.96,24.32c 5.253,14.853, 7.627,27.653, 17.733,37.76
	C 292.373,415.787, 306.16,420.80, 320.00,420.80c 13.813,0.00, 27.627-5.013, 37.733-15.12C 367.787,395.627, 373.333,382.24, 373.333,368.00s-6.107-31.68-26.907-42.773
	c-15.387-8.213-41.733-20.16-59.92-43.68C 274.933,266.587, 266.667,246.96, 266.667,220.667L 266.667,208.00 l 80.00,0.00 l0.00,20.24 c0.00,13.76, 23.547,31.44, 45.813,45.76
	C 427.20,296.32, 453.333,332.347, 453.333,368.00S 439.44,437.147, 414.293,462.24z" data-tags="question, help" />
<glyph unicode="&#xe04d;" d="M 453.333,474.667L 160.00,474.667 C 116.00,474.667, 80.00,438.667, 80.00,394.667l0.00-160.00 c0.00-44.00, 36.00-80.00, 80.00-80.00l 26.667,0.00 l0.00-80.00 l 80.00,80.00l 186.667,0.00 c 44.00,0.00, 80.00,36.00, 80.00,80.00L 533.333,394.667 C 533.333,438.667, 497.333,474.667, 453.333,474.667z M 480.00,234.667
			c0.00-14.453-12.213-26.667-26.667-26.667L 160.00,208.00 c-14.453,0.00-26.667,12.213-26.667,26.667L 133.333,394.667 c0.00,14.453, 12.213,26.667, 26.667,26.667l 293.333,0.00 c 14.453,0.00, 26.667-12.213, 26.667-26.667L 480.00,234.667 zM 160.00,314.667A40.00,40.00 540.00 1 0 240.00,314.667A40.00,40.00 540.00 1 0 160.00,314.667zM 266.667,314.667A40.00,40.00 540.00 1 0 346.667,314.667A40.00,40.00 540.00 1 0 266.667,314.667zM 373.333,314.667A40.00,40.00 540.00 1 0 453.333,314.667A40.00,40.00 540.00 1 0 373.333,314.667z" data-tags="chat, bubble, talk, comment, message" />
<glyph unicode="&#xe04e;" d="M 320.00,501.333c-117.813,0.00-213.333-95.52-213.333-213.333s 95.52-213.333, 213.333-213.333s 213.333,95.52, 213.333,213.333S 437.813,501.333, 320.00,501.333z M 320.00,128.00c-88.347,0.00-160.00,71.653-160.00,160.00s 71.653,160.00, 160.00,160.00s 160.00-71.653, 160.00-160.00
			S 408.347,128.00, 320.00,128.00zM 346.667,277.333L 346.667,421.333L 293.333,421.333L 293.333,248.00L 392.00,194.667L 426.667,234.667 		z" data-tags="clock, time, history" />
<glyph unicode="&#xe04f;" d="M 453.333,448.00l0.00-26.667 c0.00-14.667-12.00-26.667-26.667-26.667l-53.333,0.00 c-14.667,0.00-26.667,12.00-26.667,26.667L 346.667,448.00 l-53.333,0.00 l0.00-26.667 c0.00-14.667-12.00-26.667-26.667-26.667L 213.333,394.667 C 198.667,394.667, 186.667,406.667, 186.667,421.333L 186.667,448.00 
		C 142.667,448.00, 106.667,412.00, 106.667,368.00l0.00-213.333 c0.00-44.00, 36.00-80.00, 80.00-80.00l 266.667,0.00 c 44.00,0.00, 80.00,36.00, 80.00,80.00L 533.333,368.00 C 533.333,412.00, 497.333,448.00, 453.333,448.00z M 480.00,128.00L 160.00,128.00 l0.00,213.333 l 320.00,0.00 L 480.00,128.00 zM 213.333,474.667c0.00,14.667, 12.00,26.667, 26.667,26.667l0.00,0.00c 14.667,0.00, 26.667-12.00, 26.667-26.667l0.00-26.667 c0.00-14.667-12.00-26.667-26.667-26.667l0.00,0.00C 225.333,421.333, 213.333,433.333, 213.333,448.00L 213.333,474.667 zM 373.333,474.667c0.00,14.667, 12.00,26.667, 26.667,26.667l0.00,0.00c 14.667,0.00, 26.667-12.00, 26.667-26.667l0.00-26.667 c0.00-14.667-12.00-26.667-26.667-26.667l0.00,0.00c-14.667,0.00-26.667,12.00-26.667,26.667L 373.333,474.667 z" data-tags="calendar, date" />
<glyph unicode="&#xe050;" d="M 320.053,394.667c-58.907,0.00-106.667-47.76-106.667-106.667s 47.76-106.667, 106.667-106.667s 106.667,47.76, 106.667,106.667S 378.96,394.667, 320.053,394.667z M 320.053,234.667c-29.413,0.00-53.333,23.947-53.333,53.333
			c0.00,29.44, 23.92,53.333, 53.333,53.333s 53.333-23.893, 53.333-53.333C 373.387,258.613, 349.44,234.667, 320.053,234.667zM 320.00,421.333c 14.72,0.00, 26.667,11.92, 26.667,26.667L 346.667,501.333 c0.00,14.747-11.947,26.667-26.667,26.667s-26.667-11.92-26.667-26.667l0.00-53.333 C 293.333,433.253, 305.28,421.333, 320.00,421.333zM 320.00,48.00c 14.72,0.00, 26.667,11.92, 26.667,26.667l0.00,53.333 c0.00,14.747-11.947,26.667-26.667,26.667s-26.667-11.92-26.667-26.667l0.00-53.333 C 293.333,59.92, 305.28,48.00, 320.00,48.00zM 204.373,401.787C 213.04,389.867, 229.733,387.227, 241.653,395.867c 11.893,8.667, 14.56,25.333, 5.92,37.227L 216.187,476.293
			C 207.52,488.213, 190.827,490.80, 178.96,482.16C 167.04,473.52, 164.373,456.853, 173.013,444.933L 204.373,401.787zM 108.853,328.56l 50.72-16.48c 14.00-4.533, 29.093,3.147, 33.627,17.12c 4.56,14.00-3.093,29.067-17.12,33.627L 125.36,379.333
			c-14.00,4.56-29.067-3.147-33.60-17.147C 87.227,348.187, 94.853,333.147, 108.853,328.56zM 193.227,246.80c-4.587,14.00-19.60,21.707-33.627,17.147L 108.853,247.467c-14.00-4.533-21.68-19.627-17.093-33.60
			c 4.533-14.00, 19.52-21.68, 33.573-17.173l 50.72,16.48C 190.08,217.76, 197.76,232.853, 193.227,246.80zM 204.40,174.24l-31.387-43.12c-8.693-11.92-6.00-28.613, 5.92-37.227c 11.893-8.64, 28.56-6.053, 37.227,5.867l 31.36,43.147
			c 8.667,11.92, 6.027,28.64-5.867,37.28C 229.733,188.80, 213.013,186.24, 204.40,174.24zM 435.627,174.24c-8.667,11.92-25.387,14.56-37.28,5.947c-11.867-8.64-14.587-25.36-5.867-37.227l 31.333-43.173
			c 8.64-11.973, 25.36-14.56, 37.227-5.893c 11.867,8.64, 14.56,25.28, 5.947,37.20L 435.627,174.24zM 531.147,247.44l-50.72,16.507c-14.027,4.587-29.12-3.12-33.653-17.093c-4.533-14.00, 3.093-29.12, 17.147-33.60l 50.72-16.507
			c 14.00-4.613, 29.067,3.12, 33.573,17.12C 552.747,227.84, 545.12,242.907, 531.147,247.44zM 446.773,329.253c 4.56-14.00, 19.573-21.733, 33.60-17.147l 50.72,16.48c 14.053,4.507, 21.68,19.60, 17.147,33.573
			c-4.587,13.973-19.573,21.68-33.547,17.147l-50.747-16.453C 449.893,358.293, 442.213,343.20, 446.773,329.253zM 435.573,401.813l 31.36,43.12c 8.747,11.92, 6.053,28.613-5.867,37.227c-11.947,8.587-28.56,6.027-37.227-5.867l-31.413-43.147
			c-8.64-11.92-6.027-28.64, 5.893-37.253C 410.267,387.253, 426.933,389.813, 435.573,401.813z" data-tags="sun, brightness, lightness" />
<glyph unicode="&#xe051;" d="M 320.00,501.333c-117.813,0.00-213.333-95.52-213.333-213.333s 95.52-213.333, 213.333-213.333s 213.333,95.52, 213.333,213.333S 437.813,501.333, 320.00,501.333z M 320.00,128.00c-88.373,0.00-160.00,71.627-160.00,160.00s 71.627,160.00, 160.00,160.00L 320.00,128.00 z" data-tags="contrast" />
<glyph unicode="&#xe052;" d="M 400.00,528.00L 240.00,528.00 C 210.667,528.00, 160.00,477.333, 160.00,448.00l0.00-320.00 c0.00-29.333, 50.667-80.00, 80.00-80.00l 160.00,0.00 c 29.333,0.00, 80.00,50.667, 80.00,80.00L 480.00,448.00 C 480.00,477.333, 429.333,528.00, 400.00,528.00z M 280.00,501.333l 80.00,0.00 C 367.36,501.333, 373.333,495.333, 373.333,488.00
		C 373.333,480.64, 367.36,474.667, 360.00,474.667l-80.00,0.00 C 272.64,474.667, 266.667,480.64, 266.667,488.00C 266.667,495.333, 272.64,501.333, 280.00,501.333z M 320.00,61.333c-14.72,0.00-26.667,11.92-26.667,26.693
		c0.00,14.72, 11.947,26.64, 26.667,26.64s 26.667-11.92, 26.667-26.64C 346.667,73.253, 334.72,61.333, 320.00,61.333z M 426.667,128.00L 213.333,128.00 L 213.333,448.00 l 213.333,0.00 L 426.667,128.00 z" data-tags="mobile, cellular phone, phone" />
<glyph unicode="&#xe053;" d="M 160.00,421.333L 106.667,234.667L 106.667,101.333L 533.333,101.333L 533.333,234.667L 480.00,421.333L 400.00,421.333L 400.00,394.667L 453.333,394.667L 480.00,234.667L 160.00,234.667L 186.667,394.667L 240.00,394.667L 240.00,421.333 	zM 320.00,261.333L 213.333,368.00L 266.667,368.00L 266.667,474.667L 373.333,474.667L 373.333,368.00L 426.667,368.00 	z" data-tags="download, store, save" />
<glyph unicode="&#xe054;" d="M 431.867,346.667c 21.467,0.00, 31.067-11.52, 31.067-11.52C 472.32,323.893, 480.00,326.667, 480.00,341.333L 480.00,394.667 c0.00,14.667-12.00,26.667-26.667,26.667l-80.00,0.00 
	c-14.667,0.00-17.44,7.68-6.16,17.093c0.00,0.00, 11.52,9.573, 11.52,31.04c0.00,11.013-6.507,20.987-17.173,28.213C 350.907,504.88, 336.213,509.333, 320.00,509.333
	c-16.16,0.00-30.853-4.453-41.467-11.68C 267.92,490.453, 261.333,480.48, 261.333,469.467c0.00-21.467, 11.52-31.04, 11.52-31.04C 284.107,429.013, 281.333,421.333, 266.667,421.333L 186.667,421.333 
	C 172.00,421.333, 160.00,409.333, 160.00,394.667l0.00-53.333 c0.00-14.667, 7.68-17.44, 17.067-6.16c0.00,0.00, 9.60,11.52, 31.067,11.52c 11.04,0.00, 21.013-6.587, 28.24-17.227
	C 243.573,318.853, 248.027,304.187, 248.027,288.00c0.00-16.213-4.453-30.88-11.68-41.493C 229.147,235.867, 219.173,229.333, 208.133,229.333
	C 186.667,229.333, 177.067,240.827, 177.067,240.827C 167.68,252.107, 160.00,249.333, 160.00,234.667l0.00-106.667 c0.00-14.667, 12.00-26.667, 26.667-26.667l 80.00,0.00 c 14.667,0.00, 17.44,7.68, 6.187,17.093
	c0.00,0.00-11.52,9.573-11.52,31.04c0.00,11.013, 6.587,20.987, 17.227,28.213C 289.147,184.88, 303.84,189.333, 320.00,189.333c 16.213,0.00, 30.907-4.453, 41.52-11.68
	c 10.64-7.227, 17.173-17.20, 17.173-28.213c0.00-21.467-11.52-31.04-11.52-31.04C 355.893,109.013, 358.667,101.333, 373.333,101.333l 80.00,0.00 c 14.667,0.00, 26.667,12.00, 26.667,26.667l0.00,106.667 
	c0.00,14.667-7.68,17.44-17.067,6.16c0.00,0.00-9.60-11.52-31.067-11.52c-11.04,0.00-21.013,6.587-28.24,17.227c-7.227,10.587-11.68,25.253-11.68,41.467
	c0.00,16.213, 4.453,30.88, 11.68,41.493C 410.853,340.133, 420.827,346.667, 431.867,346.667z" data-tags="puzzle, piece, plugin, extension" />
<glyph unicode="&#xe055;" d="M 213.333,448.00l0.00-235.733 c-4.32,0.667-8.747,1.067-13.333,1.067c-36.827,0.00-66.667-23.893-66.667-53.333s 29.84-53.333, 66.667-53.333c 34.533,0.00, 62.613,21.067, 66.00,48.00L 266.667,154.667 L 266.667,405.333 
	L 426.667,437.333l0.00-171.707 c-4.32,0.667-8.747,1.067-13.333,1.067c-36.827,0.00-66.667-23.893-66.667-53.333s 29.84-53.333, 66.667-53.333c 34.533,0.00, 62.613,21.067, 66.00,48.00L 480.00,208.027 L 480.00,501.333 L 213.333,448.00z" data-tags="music, songs" />
<glyph unicode="&#xe056;" d="M 540.96,501.173c-8.053,0.80-16.00-1.413-23.147-4.40c-7.20-3.04-13.813-7.013-20.08-11.387
		c-1.547-1.067-2.987-2.16-4.453-3.253c-3.253,1.973-6.773,3.627-10.613,4.773c-28.32,10.373-62.027-6.48-72.107-34.987
		c-14.613-32.613-22.08-75.653-69.28-112.587l-18.667-15.493l-18.853,13.893C 256.667,374.773, 249.28,417.84, 234.747,450.48
		c-10.00,28.507-43.733,45.44-72.053,35.147C 134.027,477.173, 121.20,442.80, 129.013,415.387c 5.893-27.973, 34.32-51.20, 62.24-44.827
		c 29.093,6.64, 23.84,16.16, 34.853,19.333c 14.053,4.00, 22.933-38.347, 64.373-96.293l 1.227-1.707l-99.227-128.613
		C 178.453,140.133, 179.84,103.973, 198.027,74.667l 123.813,169.20L 447.227,74.667c 18.24,29.253, 19.493,65.44, 5.52,88.587l-100.667,128.613
		c0.00,0.00, 52.933,103.52, 67.013,99.44c 10.987-3.173, 5.707-12.667, 34.773-19.413c 27.947-6.427, 56.427,16.72, 62.347,44.667
		c 4.747,16.373, 2.00,35.227-7.04,49.60c 0.96,1.413, 1.92,2.80, 2.907,4.16c 3.893,5.307, 8.187,10.32, 12.96,14.587
		c 4.80,4.24, 10.133,7.867, 16.213,9.307c 6.027,1.547, 12.987,0.00, 18.747-4.267C 556.027,495.787, 549.067,500.48, 540.96,501.173z M 158.507,404.187
		C 143.467,419.413, 143.387,450.987, 164.027,461.893c 24.48,15.573, 57.333-9.44, 55.707-36.80C 219.733,395.36, 180.587,381.84, 158.507,404.187z M 486.587,405.467
		c-22.107-22.32-61.227-8.693-61.12,21.067c-1.60,27.36, 31.387,52.293, 55.84,36.693C 501.867,452.267, 501.707,420.747, 486.587,405.467z" data-tags="scissors, cut" />
<glyph unicode="&#xe057;" d="M 160.00,501.333C 145.333,501.333, 133.333,489.333, 133.333,474.667l0.00-373.333 c0.00-14.667, 9.227-18.987, 20.507-9.573l 119.013,99.173c 11.28,9.413, 29.707,9.413, 40.987,0.00l 119.013-99.173
			C 444.107,82.347, 453.333,86.667, 453.333,101.333L 453.333,474.667 c0.00,14.667-12.00,26.667-26.667,26.667L 160.00,501.333 z" data-tags="bookmark" />
<glyph unicode="&#xe058;" d="M 498.853,466.853c-10.427,10.427-27.28,10.427-37.707,0.00L 413.333,419.04l-10.107,10.107c-30.107,30.107-83.013,30.107-113.12,0.00l-111.253-111.253
	C 163.813,302.853, 155.493,282.747, 155.493,261.333s 8.32-41.52, 23.36-56.56L 188.96,194.667l-47.813-47.813c-10.427-10.427-10.427-27.28,0.00-37.707
	C 146.347,103.947, 153.173,101.333, 160.00,101.333s 13.653,2.613, 18.853,7.813L 226.667,156.96l 10.107-10.107c 15.04-15.04, 35.147-23.36, 56.56-23.36
	s 41.52,8.32, 56.56,23.36l 111.253,111.253c 15.04,15.04, 23.36,35.147, 23.36,56.56s-8.32,41.52-23.36,56.56L 451.04,381.333l 47.813,47.813
	C 509.28,439.573, 509.28,456.427, 498.853,466.853z M 423.44,333.52c 4.987-5.013, 7.733-11.68, 7.733-18.853s-2.773-13.867-7.733-18.853l-111.253-111.253
	c-10.00-9.947-27.707-9.947-37.707,0.00L 264.373,194.667l 21.147,21.147c 10.427,10.427, 10.427,27.28,0.00,37.707s-27.28,10.427-37.707,0.00L 226.667,232.373
	l-10.107,10.107C 211.60,247.467, 208.827,254.16, 208.827,261.333s 2.773,13.867, 7.733,18.853l 111.253,111.253c 5.013,4.987, 11.68,7.733, 18.853,7.733
	s 13.867-2.773, 18.853-7.733L 375.627,381.333l-21.147-21.147c-10.427-10.427-10.427-27.28,0.00-37.707C 359.68,317.28, 366.507,314.667, 373.333,314.667
	s 13.653,2.613, 18.853,7.813L 413.333,343.627L 423.44,333.52z" data-tags="anchor, link, chain" />
<glyph unicode="&#xe059;" d="M 266.667,74.667l-173.52,176.16c-26.053,26.053-28.72,68.213-2.667,94.24s 60.213,34.00, 86.267,7.973l 71.84-71.707l 141.093,201.573
					c 21.12,30.133, 62.693,37.493, 92.827,16.373s 37.493-62.693, 16.373-92.827L 266.667,74.667z" data-tags="checkmark, tick" />
<glyph unicode="&#xe05a;" d="M 359.328,248.672c-50.656-50.688-109.344-99.136-132.544-75.904c-33.216,33.184-53.664,62.112-126.88,3.296s-16.992-98.048, 15.20-130.24
		c 37.12-37.088, 175.488-1.952, 312.288,134.816c 136.736,136.768, 171.936,275.168, 134.784,312.288c-32.16,32.192-71.36,88.384-130.208,15.20
		s-29.92-93.664, 3.296-126.88C 458.40,358.016, 409.984,299.36, 359.328,248.672z" data-tags="phone, contact, call, telephone, support" />
<glyph unicode="&#xe05b;" d="M 444.064,608.00L 195.936,608.00 C 160.00,608.00, 130.624,578.624, 130.624,542.688l0.00-509.376 C 130.624-2.592, 160.00-32.00, 195.936-32.00l 248.128,0.00 c 35.936,0.00, 65.312,29.408, 65.312,65.312
		L 509.376,542.688 C 509.376,578.624, 480.00,608.00, 444.064,608.00z M 320.00-5.888c-25.216,0.00-45.696,14.624-45.696,32.672s 20.48,32.672, 45.696,32.672
		c 25.248,0.00, 45.696-14.624, 45.696-32.672S 345.248-5.888, 320.00-5.888z M 457.12,92.096L 182.848,92.096 L 182.848,523.104 l 274.272,0.00 L 457.12,92.096 z" data-tags="mobile, phone, contact" />
<glyph unicode="&#xe05c;" d="M 492.864,147.104l-84.032,241.152c-23.136,66.368-94.944,103.04-162.976,84.928L 182.624,595.872C 176.896,606.976, 163.488,611.232, 152.64,605.376
		C 141.792,599.488, 137.632,585.728, 143.36,574.624l 61.728-119.776c-49.184-32.64-74.752-94.496-58.56-152.736l 68.48-246.272
		c 19.264-69.216, 98.56-104.48, 178.272-80.096C 471.968,3.36, 516.512,79.328, 492.864,147.104z M 284.768,322.464C 261.44,314.816, 236.416,327.968, 228.928,351.936
		C 221.44,375.872, 234.304,401.504, 257.664,409.152c 23.36,7.68, 48.384-5.504, 55.872-29.44S 308.16,330.144, 284.768,322.464z" data-tags="mouse, pc, computer" />
<glyph unicode="&#xe05d;" d="M 272.00,576.00L 243.232,576.00 C 236.16,576.00, 230.40,570.24, 230.40,563.20l0.00-121.60 L 117.248,441.60 c-5.28,0.00-11.84-1.216-18.112-3.136
		C 92.80,436.512, 86.752,433.824, 82.432,430.88l-76.00-52.16C 2.144,375.776,0.00,371.904,0.00,368.00s 2.144-7.776, 6.432-10.72l 76.00-52.16
		C 86.752,302.176, 92.80,299.488, 99.136,297.536C 105.408,295.616, 111.968,294.40, 117.248,294.40L 230.40,294.40 l0.00-281.60 c0.00-7.072, 5.76-12.80, 12.80-12.80L 272.00,0.00 
		c 7.072,0.00, 12.80,5.76, 12.80,12.80L 284.80,563.20 C 284.80,570.24, 279.072,576.00, 272.00,576.00z M 633.568,442.688l-76.00,52.16c-4.288,2.944-10.336,5.632-16.672,7.584
		C 534.592,504.384, 528.032,505.60, 522.752,505.60L 304.00,505.60 l 25.632-147.20l 193.12,0.00 c 5.28,0.00, 11.84,1.216, 18.144,3.136s 12.384,4.64, 16.672,7.552l 76.00,52.16
		C 637.888,424.224, 640.00,428.096, 640.00,432.00S 637.888,439.776, 633.568,442.688z" data-tags="directions, address, guide, location" />
<glyph unicode="&#xe05e;" d="M 51.008,438.848c 15.616-8.416, 231.968-124.608, 240.032-128.928C 299.072,305.60, 309.504,303.52, 320.00,303.52c 10.528,0.00, 20.96,2.08, 28.992,6.432
		c 8.064,4.32, 224.384,120.512, 240.00,128.928C 604.64,447.264, 619.424,473.60, 590.72,473.60L 49.312,473.60 C 20.608,473.60, 35.36,447.264, 51.008,438.848z M 595.616,374.848
		c-17.76-9.28-235.744-123.232-246.624-128.928S 330.528,239.488, 320.00,239.488c-10.496,0.00-18.08,0.736-28.96,6.432S 62.144,365.60, 44.416,374.848
		C 31.904,381.376, 32.00,373.728, 32.00,367.84c0.00-5.888,0.00-234.72,0.00-234.72C 32.00,119.68, 49.888,102.40, 63.744,102.40l 512.544,0.00 c 13.888,0.00, 31.712,17.28, 31.712,30.688
		c0.00,0.00,0.00,228.832,0.00,234.72C 608.00,373.728, 608.128,381.376, 595.616,374.848z" data-tags="mail, email, message, letter, envelope, contact" />
<glyph unicode="&#xe05f;" d="M 598.208,523.68C 587.232,519.808, 43.936,328.384, 33.248,324.608c-9.088-3.20-11.136-11.04-0.32-15.328
	c 12.832-5.152, 121.472-48.672, 121.472-48.672L 154.368,260.608 l 72.032-28.864c0.00,0.00, 346.784,254.688, 351.488,258.112c 4.704,3.456, 10.176-3.04, 6.752-6.752
	c-3.424-3.744-251.872-272.448-251.872-272.448c-0.032,0.00-0.032,0.00-0.032,0.00l-14.464-16.128l 19.168-10.304l0.00,0.00c0.00,0.00, 148.80-80.096, 159.392-85.824
	c 9.28-4.992, 21.376-0.832, 24.064,10.72c 3.168,13.632, 91.04,392.384, 92.992,400.768C 616.448,520.864, 609.216,527.552, 598.208,523.68z M 225.76,58.816
	c0.00-7.904, 4.448-10.08, 10.592-4.512c 8.00,7.296, 91.168,81.92, 91.168,81.92l-101.76,52.672L 225.76,58.816 z" data-tags="paperplane, travel, plane, airplane" />
<glyph unicode="&#xe060;" d="M 529.952,497.984c-46.144,46.176-80.80,39.264-80.80,39.264L 287.456,375.552L 102.72,190.816L 70.40,38.40l 152.416,32.32l 184.736,184.736l 161.664,161.664
		C 569.216,417.12, 576.16,451.776, 529.952,497.984z M 213.728,89.056l-51.936-11.20c-5.024,9.376-11.072,18.752-22.112,29.824
		c-11.04,11.04-20.448,17.056-29.824,22.08l 11.232,51.968l 15.008,15.008c0.00,0.00, 28.288-0.576, 60.192-32.48c 31.936-31.936, 32.512-60.224, 32.512-60.224
		L 213.728,89.056z" data-tags="pencil, write, blog, edit, save" />
<glyph unicode="&#xe061;" d="M 136.128-24.384c 9.792,32.032, 24.64,77.152, 44.512,142.432c 86.592,13.984, 122.432-11.168, 177.44,89.088
	c-44.64-13.952-98.464,25.888-95.552,43.136c 2.88,17.28, 125.216-12.448, 205.28,103.616c-100.928-22.688-133.248,27.296-120.224,34.848
	c 30.048,17.44, 119.264,7.232, 166.816,54.496c 24.512,24.32, 35.968,83.488, 26.016,104.608c-12.00,25.472-85.024,63.488-125.28,59.936
	c-40.256-3.584-103.392-156.448-122.112-155.232S 270.56,520.992, 303.232,583.52c-34.464-15.552-97.60-63.968-117.408-105.344
	c-36.896-76.992, 3.456-253.536-9.472-259.84c-12.96-6.272-56.512,81.056-69.504,120.64c-17.76-60.672-18.176-121.472, 33.728-202.24
	c-19.584-52.992-30.272-113.984-31.904-144.992C 107.904-33.088, 131.808-38.40, 136.128-24.384z" data-tags="feather, write, blog, quill, edit" />
<glyph unicode="&#xe062;" d="M 158.752-32.00c-42.752,0.00-82.784,18.112-111.712,47.072c-56.00,56.00-71.648,153.792, 6.88,232.32C 99.968,293.376, 284.288,477.696, 376.288,569.696
		c 32.672,32.672, 74.208,45.28, 114.016,34.592c 39.072-10.432, 71.136-42.464, 81.60-81.568c 10.656-39.808-1.984-81.376-34.624-114.016l-308.224-308.256
		c-17.60-17.60-37.472-28.032-57.472-30.112c-19.776-2.08-38.656,4.288-51.904,17.504c-24.00,23.968-27.392,69.088, 12.48,108.928l 216.48,216.544
		c 8.896,8.864, 23.328,8.864, 32.224,0.00c 8.896-8.896, 8.896-23.328,0.00-32.224l-216.512-216.512c-18.72-18.72-20.448-36.608-12.48-44.576
		c 3.488-3.456, 8.80-5.056, 14.912-4.416c 9.376,0.992, 20.064,7.072, 30.048,17.056l 308.224,308.224c 21.152,21.152, 29.248,46.016, 22.816,70.048
		c-6.336,23.648-25.728,43.04-49.376,49.376c-24.032,6.432-48.896-1.696-70.048-22.816C 316.48,445.472, 132.16,261.152, 86.144,215.168
		c-60.032-60.032-45.664-129.12-6.912-167.904c 38.784-38.752, 107.872-53.152, 167.936,6.912L 569.504,376.48c 8.864,8.896, 23.328,8.896, 32.192,0.00
		c 8.896-8.896, 8.896-23.328,0.00-32.192L 279.36,21.952C 241.376-16.064, 198.88-32.00, 158.752-32.00z" data-tags="paperclip, attachment" />
<glyph unicode="&#xe063;" d="M 618.848,302.624c-12.576,13.344-73.088,72.704-100.768,99.808c-8.512,8.288-20.672,13.568-33.376,13.568c-12.672,0.00-164.672,0.00-164.672,0.00
	s-152.00,0.00-164.704,0.00S 130.432,410.688, 121.952,402.40c-27.68-27.104-88.256-86.464-100.80-99.808c-15.648-16.64-24.224-29.92-20.128-46.368l 17.952-98.368
	c 4.064-16.448, 22.08-29.92, 40.032-29.92l 521.984,0.00 c 17.952,0.00, 35.968,13.472, 40.032,29.92l 17.984,98.368C 643.072,272.672, 634.496,285.984, 618.848,302.624
	z M 449.536,281.312c-3.264,0.00-6.176-1.664-7.648-4.256l-26.144-65.152L 224.288,211.904 l-26.144,65.152c-1.44,2.592-4.416,4.256-7.648,4.256L 77.056,281.312 
	l 65.312,73.888l 355.328,0.00 l 65.28-73.888L 449.536,281.312 z" data-tags="drawer, box, inbox, archive" />
<glyph unicode="&#xe064;" d="M 608.00,70.40c0.00,0.00-64.00,311.456-344.80,311.456L 263.20,505.60 L 32.00,299.04l 231.20-214.112l0.00,139.456 C 415.616,224.384, 528.544,210.88, 608.00,70.40z" data-tags="reply, undo, arrow, left, back, previous" />
<glyph unicode="&#xe065;" d="M 231.20,419.84L 231.20,505.60 L0.00,299.04l 231.20-214.112l0.00,88.928 L 96.00,299.04L 231.20,419.84z M 391.20,381.888L 391.20,505.60 L 160.00,299.04l 231.20-214.112l0.00,139.456 
		c 105.376,0.00, 169.344-13.504, 248.80-153.984C 640.00,70.40, 628.256,381.888, 391.20,381.888z" data-tags="reply-all, first, arrow, left" />
<glyph unicode="&#xe066;" d="M 376.80,224.384l0.00-139.424 L 608.00,299.04L 376.80,505.60l0.00-123.712 C 96.00,381.888, 32.00,70.40, 32.00,70.40C 111.456,210.88, 224.384,224.384, 376.80,224.384z" data-tags="forward, arrow, right" />
<glyph unicode="&#xe067;" d="M 474.24,145.664c-78.88,28.736-104.096,52.992-104.096,104.928c0.00,31.168, 24.096,20.992, 34.656,78.08c 4.384,23.68, 25.664,0.384, 29.76,54.432
		c0.00,21.536-11.616,26.912-11.616,26.912s 5.92,31.904, 8.224,56.416C 433.984,497.024, 413.504,576.00, 304.00,576.00C 194.528,576.00, 173.984,497.024, 176.864,466.432
		C 179.168,441.92, 185.088,410.016, 185.088,410.016S 173.44,404.672, 173.44,383.104c 4.064-54.048, 25.344-30.752, 29.728-54.432
		c 10.592-57.088, 34.688-46.912, 34.688-78.08c0.00-51.936-25.216-76.192-104.096-104.928c-79.168-28.80-130.56-58.208-130.56-78.272c0.00-20.032,0.00-67.36,0.00-67.36
		l 300.80,0.00 l 300.80,0.00 c0.00,0.00,0.00,47.328,0.00,67.36C 604.80,87.424, 553.376,116.832, 474.24,145.664z" data-tags="user, group, profile, avatar, persona" />
<glyph unicode="&#xe068;" d="M 640.00,6.40c0.00,0.00-1.248,121.184-8.672,133.728c-11.04,18.72-36.672,31.552-84.288,51.456c-47.456,19.84-62.656,36.608-62.656,72.416
		c0.00,21.536, 14.496,14.496, 20.864,53.888c 2.624,16.352, 15.424,0.288, 17.888,37.568c0.00,14.88-6.976,18.592-6.976,18.592s 3.52,22.016, 4.928,38.944
		c 1.728,21.12-10.656,75.616-76.544,75.616s-78.208-54.528-76.512-75.616c 1.376-16.928, 4.896-38.944, 4.896-38.944s-6.976-3.712-6.976-18.592
		c 2.464-37.312, 15.264-21.248, 17.92-37.568c 6.336-39.392, 20.832-32.352, 20.832-53.888c0.00-24.352-7.04-39.904-26.464-53.568
		c 103.68-51.904, 117.60-62.496, 117.60-108.896L 495.84,6.40 L 640.00,6.40 z M 327.168,173.60c-63.328,26.432-83.52,48.768-83.52,96.544c0.00,28.672, 19.328,19.328, 27.808,71.872
		c 3.488,21.792, 20.608,0.352, 23.84,50.08c0.00,19.84-9.312,24.768-9.312,24.768s 4.736,29.344, 6.592,51.936C 294.88,496.896, 278.368,569.60, 190.528,569.60
		c-87.84,0.00-104.32-72.672-102.016-100.80c 1.856-22.592, 6.56-51.936, 6.56-51.936S 85.792,411.936, 85.792,392.096
		c 3.296-49.76, 20.352-28.32, 23.872-50.08c 8.48-52.544, 27.808-43.168, 27.808-71.872c0.00-47.776-20.256-70.112-83.52-96.544
		C 34.656,165.536,0.00,153.024,0.00,123.008L0.00,6.40 l 444.608,0.00 c0.00,0.00,0.00,68.96,0.00,87.392C 444.608,121.216, 390.624,147.04, 327.168,173.60z" data-tags="users, group, team, people" />
<glyph unicode="&#xe069;" d="M 396.064,145.664C 316.352,174.40, 290.88,198.656, 290.88,250.592c0.00,31.168, 24.352,20.992, 35.04,78.08c 4.448,23.68, 25.952,0.384, 30.016,54.432
		c0.00,21.536-11.712,26.912-11.712,26.912s 5.984,31.904, 8.288,56.416C 355.392,497.024, 334.656,576.00, 224.00,576.00S 92.608,497.024, 95.488,466.432
		c 2.336-24.544, 8.32-56.416, 8.32-56.416S 92.064,404.672, 92.064,383.104c 4.128-54.048, 25.632-30.752, 30.016-54.432
		c 10.72-57.088, 35.072-46.912, 35.072-78.08c0.00-51.936-25.504-76.192-105.216-104.928c-9.60-3.424-32.48-8.80-51.936-17.216L0.00,0.00 l 512.00,0.00 
		c0.00,0.00,0.00,47.328,0.00,67.36S 476.064,116.832, 396.064,145.664z M 544.00,320.00L 544.00,416.00 l-64.00,0.00 l0.00-96.00 l-96.00,0.00 l0.00-64.00 l 96.00,0.00 l0.00-96.00 l 64.00,0.00 l0.00,96.00 l 96.00,0.00 L 640.00,320.00 L 544.00,320.00 z" data-tags="user-add" />
<glyph unicode="&#xe06a;" d="M 576.00,544.00L 64.00,544.00 C 28.80,544.00,0.00,515.20,0.00,480.00l0.00-384.00 c0.00-35.20, 28.80-64.00, 64.00-64.00l 512.00,0.00 c 35.232,0.00, 64.00,28.80, 64.00,64.00L 640.00,480.00 C 640.00,515.20, 611.232,544.00, 576.00,544.00z M 576.00,96.00L 64.00,96.00 L 64.00,480.00 l 512.00,0.00 L 576.00,96.00 z M 288.00,220.80L 128.00,220.80 
		L 128.00,163.20 l 160.00,0.00 L 288.00,220.80 z M 288.00,316.80L 128.00,316.80 l0.00-57.60 l 160.00,0.00 L 288.00,316.80 z M 288.00,412.80L 128.00,412.80 l0.00-57.60 l 160.00,0.00 L 288.00,412.80 z M 508.80,208.00c0.00,0.00-54.40,14.208-54.40,42.176c0.00,26.624, 35.232,37.824, 35.232,92.224
		c0.00,44.16-13.44,70.40-57.632,70.40s-57.60-26.208-57.60-70.40c0.00-54.40, 35.20-65.60, 35.20-92.224c0.00-27.968-54.368-42.176-54.368-42.176C 352.00,208.00, 352.00,163.20, 352.00,163.20
		l 160.00,0.00 C 512.00,163.20, 512.00,208.00, 508.80,208.00z" data-tags="vcard, card" />
<glyph unicode="&#xe06b;" d="M 480.00,102.40L 64.00,102.40 l0.00,288.00 l 83.04,0.00 c0.00,0.00, 22.048,28.672, 69.44,64.00L 32.00,454.40 c-17.664,0.00-32.00-14.336-32.00-32.00l0.00-352.00 c0.00-17.696, 14.336-32.00, 32.00-32.00l 480.00,0.00 c 17.696,0.00, 32.00,14.304, 32.00,32.00l0.00,119.872 
		l-64.00-52.64L 480.00,102.40 z M 427.584,324.80l0.00-113.60 L 640.00,377.632L 427.584,537.60l0.00-100.16 C 169.60,437.408, 169.60,182.40, 169.60,182.40C 242.624,302.336, 287.552,324.80, 427.584,324.80z" data-tags="export, share, outside" />
<glyph unicode="&#xe06c;" d="M 320.00,544.00C 231.616,544.00, 160.00,472.352, 160.00,384.00c0.00-152.768, 160.00-352.00, 160.00-352.00s 160.00,199.232, 160.00,352.00C 480.00,472.352, 408.384,544.00, 320.00,544.00z M 320.00,295.68c-47.712,0.00-86.40,38.688-86.40,86.40
		s 38.688,86.40, 86.40,86.40s 86.40-38.688, 86.40-86.40S 367.712,295.68, 320.00,295.68z" data-tags="location, map marker, marker, pin" />
<glyph unicode="&#xe06d;" d="M 629.856,447.232l-149.568,93.664c-6.624,4.16-14.912,4.16-21.536,0.00L 320.00,453.984L 181.248,540.864c-6.624,4.16-14.912,4.16-21.536,0.00
		L 10.144,447.232C 3.872,443.296,0.00,436.16,0.00,428.512l0.00-374.624 c0.00-7.872, 4.032-15.168, 10.624-19.04s 14.624-3.776, 21.088,0.288l 138.752,86.912l 138.752-86.912
		c 6.624-4.16, 14.912-4.16, 21.568,0.00l 138.752,86.912l 138.752-86.912C 611.584,33.056, 615.328,32.00, 619.072,32.00c 3.552,0.00, 7.104,0.96, 10.304,2.848
		C 635.936,38.72, 640.00,46.016, 640.00,53.888L 640.00,428.512 C 640.00,436.16, 636.128,443.296, 629.856,447.232z M 149.536,159.904L 41.856,92.48L 41.856,416.128 l 107.68,67.424L 149.536,159.904 z
		 M 299.072,92.48l-107.68,67.424L 191.392,483.552 l 107.68-67.424L 299.072,92.48 z M 448.608,159.904l-107.648-67.424L 340.96,416.128 l 107.648,67.424L 448.608,159.904 z M 598.112,92.48
		l-107.648,67.424L 490.464,483.552 l 107.648-67.424L 598.112,92.48 z" data-tags="map, location, address, directions" />
<glyph unicode="&#xe06e;" d="M 315.904,595.168C 146.24,592.896, 10.56,453.536, 12.832,283.904c 2.272-169.664, 141.632-305.344, 311.296-303.104
		c 169.632,2.304, 305.344,141.632, 303.072,311.296C 624.864,461.76, 485.504,597.44, 315.904,595.168z M 323.232,45.504c-133.92-1.824-243.936,105.312-245.76,239.264
		C 75.712,418.688, 182.816,528.704, 316.768,530.496c 133.92,1.792, 243.936-105.312, 245.728-239.264S 457.184,47.328, 323.232,45.504z M 174.496,143.872
		c0.00,0.00, 146.208,20.064, 208.576,82.432c 62.368,62.368, 82.432,208.576, 82.432,208.576S 319.328,414.784, 256.96,352.448C 194.592,290.048, 174.496,143.872, 174.496,143.872z
		 M 288.48,320.896C 314.688,347.136, 364.80,365.728, 407.808,377.28c-11.552-42.912-30.24-93.408-56.288-119.424c-17.408-17.408-45.632-17.408-63.04,0.00
		C 271.04,275.264, 271.04,303.488, 288.48,320.896z" data-tags="compass, location" />
<glyph unicode="&#xe06f;" d="M 631.008,599.04c-21.76,21.792-42.56,1.184-113.12-32.704C 329.088,475.552,0.00,291.168,0.00,291.168l 282.72-40.416L 323.136-32.00
		c0.00,0.00, 184.416,329.088, 275.168,517.888C 632.256,556.48, 652.80,577.216, 631.008,599.04z M 563.20,526.272l-205.376-381.344l-20.832,173.312L 563.20,526.272z" data-tags="location, compass" />
<glyph unicode="&#xe070;" d="M 320.00,563.20c-151.968,0.00-275.20-123.232-275.20-275.20c0.00-152.00, 123.232-275.20, 275.20-275.20c 152.00,0.00, 275.20,123.20, 275.20,275.20C 595.20,439.968, 472.00,563.20, 320.00,563.20z
		 M 342.40,65.12L 342.40,188.80 L 297.60,188.80 l0.00-123.68 c-105.824,10.496-189.952,94.656-200.48,200.48L 220.80,265.60 L 220.80,310.40 L 97.12,310.40 C 107.648,416.224, 191.776,500.384, 297.60,510.88L 297.60,387.20 l 44.80,0.00 
		L 342.40,510.88 c 105.856-10.496, 189.984-94.656, 200.48-200.48L 419.20,310.40 l0.00-44.80 l 123.68,0.00 C 532.384,159.776, 448.256,75.616, 342.40,65.12z" data-tags="target, cross, goal" />
<glyph unicode="&#xe071;" d="M 480.00,192.00c-22.016,0.00-42.176-7.456-58.368-19.904l-167.008,100.192C 255.424,277.408, 256.00,282.656, 256.00,288.00c0.00,5.376-0.576,10.592-1.376,15.712
		l 167.008,100.192C 437.824,391.456, 457.984,384.00, 480.00,384.00c 52.992,0.00, 96.00,42.976, 96.00,96.00s-43.008,96.00-96.00,96.00s-96.00-42.976-96.00-96.00c0.00-5.344, 0.576-10.592, 1.408-15.712
		L 218.40,364.064C 202.208,376.544, 182.016,384.00, 160.00,384.00c-53.024,0.00-96.00-42.976-96.00-96.00c0.00-52.992, 42.976-96.00, 96.00-96.00c 22.016,0.00, 42.208,7.456, 58.40,19.904l 167.008-100.192
		C 384.576,106.592, 384.00,101.376, 384.00,96.00c0.00-52.992, 43.008-96.00, 96.00-96.00s 96.00,43.008, 96.00,96.00S 532.992,192.00, 480.00,192.00z" data-tags="share, spread" />
<glyph unicode="&#xe072;" d="M 217.60,288.00c0.00-56.544, 45.856-102.40, 102.40-102.40s 102.40,45.888, 102.40,102.40c0.00,56.544-45.856,102.40-102.40,102.40
	S 217.60,344.544, 217.60,288.00z M 144.928,326.40C 162.496,406.912, 234.208,467.20, 320.00,467.20c 49.504,0.00, 94.272-20.064, 126.688-52.48c 15.008-15.008, 39.328-15.008, 54.336,0.00
	c 14.976,15.008, 14.976,39.328,0.00,54.304C 454.688,515.328, 390.688,544.00, 320.00,544.00C 205.376,544.00, 108.352,468.672, 75.744,364.80L0.00,364.80 L0.00,288.00 l 102.40,0.00 
	C 134.368,288.00, 142.208,314.016, 144.928,326.40z M 537.60,288.00c-31.936,0.00-39.808-26.016-42.528-38.40C 477.504,169.088, 405.824,108.80, 320.00,108.80
	c-49.472,0.00-94.272,20.032-126.688,52.48c-15.008,15.008-39.328,15.008-54.304,0.00s-15.008-39.328,0.00-54.304C 185.312,60.672, 249.312,32.00, 320.00,32.00
	c 114.624,0.00, 211.648,75.328, 244.256,179.20L 640.00,211.20 L 640.00,288.00 L 537.60,288.00 z" data-tags="sharable, share, spread" />
<glyph unicode="&#xe073;" d="M 550.048,475.168c-53.504,49.12-140.256,49.12-193.76,0.00L 320.00,441.824L 283.68,475.168c-53.504,49.12-140.224,49.12-193.728,0.00
		c-60.192-55.232-60.192-144.768,0.00-200.032L 320.00,64.00l 230.048,211.136C 610.24,330.40, 610.24,419.936, 550.048,475.168z" data-tags="heart, love, like, favorite" />
<glyph unicode="&#xe074;" d="M 550.048,475.20c-53.504,49.088-140.256,49.088-193.76,0.00L 320.00,441.856L 283.68,475.20c-53.504,49.088-140.224,49.088-193.728,0.00
	c-60.192-55.264-60.192-144.768,0.00-200.032L 320.00,64.00l 230.048,211.168C 610.24,330.40, 610.24,419.936, 550.048,475.20z M 516.00,308.00L 320.00,125.152L 124.032,308.00
	c-19.776,18.112-27.424,41.984-27.424,67.20c0.00,25.152, 4.416,45.824, 24.192,63.968C 138.24,455.20, 161.696,464.00, 186.784,464.00
	c 25.12,0.00, 48.576-15.232, 66.016-31.264L 320.00,374.304L 387.20,432.736C 404.64,448.768, 428.064,464.00, 453.184,464.00s 48.576-8.80, 66.048-24.832
	c 19.744-18.144, 24.128-38.816, 24.192-63.968C 543.424,350.016, 535.744,326.112, 516.00,308.00z" data-tags="heart, love, like, favorite" />
<glyph unicode="&#xe075;" d="M 320.00,569.60L 396.416,354.496L 601.60,354.496L 434.176,228.16L 494.016,6.40L 320.00,139.328L 145.984,6.40L 205.824,228.16L 38.40,354.496L 243.584,354.496 	z" data-tags="star, favorite, rate, bookmark" />
<glyph unicode="&#xe076;" d="M 601.60,354.496l-205.216,0.00 L 319.968,569.60L 243.584,354.496L 38.40,354.496 l 167.392-126.336l-59.84-221.76l 174.016,132.928l 174.016-132.928l-59.84,221.76L 601.60,354.496z
	 M 319.968,202.112l-96.384-80.032l 39.744,113.984l-91.232,73.60l 112.672-3.20l 35.168,129.28l 35.20-129.28l 112.672,3.20l-91.232-73.60l 39.776-113.984L 319.968,202.112z
	" data-tags="star, favorite, rate, bookmark" />
<glyph unicode="&#xe077;" d="M 436.736,372.384c-4.224,11.36, 113.28,116.32, 44.736,201.344c-16.064,19.872-70.432-95.232-147.68-147.328C 291.20,397.664, 192.00,336.48, 192.00,302.656l0.00-218.912 
	C 192.00,43.072, 349.248,0.00, 468.768,0.00C 512.576,0.00, 576.00,274.40, 576.00,318.016C 576.00,361.76, 440.96,360.992, 436.736,372.384z M 160.00,369.344c-21.024,0.00-96.00-12.80-96.00-99.904
	l0.00-155.136 c0.00-87.104, 74.976-96.672, 96.00-96.672s-32.00,18.304-32.00,72.288L 128.00,293.856 C 128.00,350.432, 181.024,369.344, 160.00,369.344z" data-tags="thumbs up, like, rate, agree, approve" />
<glyph unicode="&#xe078;" d="M 203.296,203.584c 4.192-11.36-113.28-116.288-44.736-201.312c 16.064-19.904, 70.432,95.20, 147.68,147.328C 348.832,178.336, 448.00,239.552, 448.00,273.344
	l0.00,218.88 C 448.00,532.928, 290.784,576.00, 171.264,576.00C 127.456,576.00, 64.00,301.60, 64.00,257.984C 64.00,214.24, 199.072,215.008, 203.296,203.584z M 480.00,206.656c 21.056,0.00, 96.00,12.768, 96.00,99.904
	L 576.00,461.664 c0.00,87.104-74.944,96.704-96.00,96.704c-21.024,0.00, 32.00-18.336, 32.00-72.288l0.00-203.936 C 512.00,225.568, 458.976,206.656, 480.00,206.656z" data-tags="thumbs down, dislike, disagree, rate" />
<glyph unicode="&#xe079;" d="M 185.60,217.60L 185.60,416.00 L 64.00,416.00 C 28.80,416.00,0.00,387.20,0.00,352.00l0.00-192.00 c0.00-35.20, 28.80-64.00, 64.00-64.00l 32.00,0.00 l0.00-96.00 l 96.00,96.00l 160.00,0.00 c 35.20,0.00, 64.00,28.80, 64.00,64.00l0.00,58.24 c-2.048-0.448-4.224-0.672-6.40-0.672L 185.60,217.568 
		z M 576.00,576.00L 288.00,576.00 C 252.80,576.00, 224.00,547.20, 224.00,512.00l0.00-256.00 l 224.00,0.00 l 96.00-96.00l0.00,96.00 l 32.00,0.00 c 35.20,0.00, 64.00,28.80, 64.00,64.00L 640.00,512.00 C 640.00,547.20, 611.20,576.00, 576.00,576.00z" data-tags="chat, comments, talk, bubbles, conversation, discussion" />
<glyph unicode="&#xe07a;" d="M 512.00,512.00L 128.00,512.00 C 92.80,512.00, 64.00,483.20, 64.00,448.00l0.00-224.00 c0.00-35.20, 28.80-64.00, 64.00-64.00l 128.00,0.00 l 128.00-96.00l0.00,96.00 l 128.00,0.00 c 35.20,0.00, 64.00,28.80, 64.00,64.00L 576.00,448.00 C 576.00,483.20, 547.20,512.00, 512.00,512.00z" data-tags="comment, bubble, chat, talk, discussion, conversation" />
<glyph unicode="&#xe07b;" d="M 157.312,486.304c-51.52,0.00-93.312-42.976-93.312-96.00s 41.792-96.00, 93.312-96.00c 93.28,0.00, 31.104-185.60-93.312-185.60l0.00-44.768 
		C 286.016,63.936, 373.024,486.304, 157.312,486.304z M 426.08,486.304c-51.52,0.00-93.312-42.976-93.312-96.00s 41.792-96.00, 93.312-96.00c 93.28,0.00, 31.104-185.60-93.312-185.60
		l0.00-44.768 C 554.816,63.936, 641.824,486.304, 426.08,486.304z" data-tags="quote, rdquo" />
<glyph unicode="&#xe07c;" d="M 600.64,278.40l-256.768,256.992c-13.12,13.632-34.592,13.632-47.712,0.00L 39.36,278.40c-13.152-13.60-8.256-24.768, 10.88-24.768l 53.536,0.00 l0.00-197.376 
		c0.00-14.24, 0.608-25.888, 26.368-25.888l 124.64,0.00 l0.00,198.016 l 130.40,0.00 l0.00-198.016 l 130.848,0.00 c 19.648,0.00, 20.192,11.616, 20.192,25.888l0.00,197.376 l 53.504,0.00 
		C 608.832,253.632, 613.76,264.768, 600.64,278.40z" data-tags="house, home, building" />
<glyph unicode="&#xe07d;" d="M 512.00,544.00L 255.36,544.00 C 220.16,544.00, 192.00,515.84, 192.00,480.64L 192.00,224.00 c0.00-35.20, 28.80-64.00, 64.00-64.00l 256.00,0.00 c 35.20,0.00, 64.00,28.80, 64.00,64.00L 576.00,480.00 C 576.00,515.20, 547.20,544.00, 512.00,544.00z M 512.00,224.00L 256.00,224.00 L 256.00,480.00 l 256.00,0.00 L 512.00,224.00 z M 128.00,288.00L 64.00,288.00 l0.00-192.00 
		c0.00-35.20, 28.80-64.00, 64.00-64.00l 192.00,0.00 l0.00,64.00 L 128.00,96.00 L 128.00,288.00 z" data-tags="popup, popout, new window" />
<glyph unicode="&#xe07e;" d="M 561.44,113.024l-120.928,120.928c 18.24,29.984, 28.736,65.12, 28.736,102.784c0.00,109.312-94.752,204.064-204.096,204.064
		C 155.84,540.80, 67.20,452.16, 67.20,342.848c0.00-109.344, 94.72-204.096, 204.064-204.096c 36.352,0.00, 70.40,9.856, 99.68,26.976l 121.568-121.60
		c 11.936-11.904, 31.20-11.904, 43.072,0.00l 30.176,30.144C 577.632,86.176, 573.312,101.152, 561.44,113.024z M 128.128,342.848
		c0.00,75.68, 61.344,137.056, 137.024,137.056c 75.712,0.00, 143.168-67.456, 143.168-143.168s-61.344-137.056-137.056-137.056S 128.128,267.136, 128.128,342.848z" data-tags="search, magnifier, lookup, find" />
<glyph unicode="&#xe07f;" d="M 547.68,515.712c-53.632,53.60-120.928,73.216-142.368,51.776L 319.04,481.184C 305.952,468.096, 294.528,424.288, 299.776,379.968l-261.152-261.184
		c-15.488-15.456-2.944-53.12, 28.032-84.096c 30.976-31.008, 68.672-43.52, 84.128-28.064l 261.152,261.152c 44.352-5.248, 88.16,6.176, 101.216,19.264
		l 86.304,86.304C 620.896,394.784, 601.28,462.08, 547.68,515.712z M 260.512,254.72C 248.576,266.624, 252.48,289.824, 269.12,306.496s 39.84,20.544, 51.776,8.64
		c 11.872-11.904, 8.032-35.104-8.64-51.776C 295.584,246.688, 272.416,242.816, 260.512,254.72z M 476.512,444.512c-41.536,41.536-51.968,96.32-48.288,100.032
		c 3.712,3.712, 56.352-8.896, 97.92-50.432c 41.536-41.536, 53.984-94.304, 50.40-97.888S 518.016,402.976, 476.512,444.512z" data-tags="flashlight, light" />
<glyph unicode="&#xe080;" d="M 48.00,383.936l 544.00,0.00 c 18.24,0.00, 15.264,19.456, 6.176,22.624C 589.088,409.728, 488.00,447.936, 470.40,447.936l-28.80,0.00 l0.00,96.00 L 198.40,543.936 l0.00-96.00 L 169.60,447.936 
		c-17.60,0.00-118.688-38.208-127.776-41.376C 32.736,403.392, 29.728,383.936, 48.00,383.936z M 598.40,348.736L 41.60,348.736 c-17.60,0.00-35.20-20.80-35.20-38.40l0.00-112.00 
		c0.00-17.60, 17.60-38.40, 35.20-38.40l 63.424,0.00 l-28.224-160.00l 486.40,0.00 l-28.224,160.00L 598.40,159.936 c 17.60,0.00, 35.20,20.80, 35.20,38.40l0.00,112.00 C 633.60,327.936, 616.00,348.736, 598.40,348.736z
		 M 140.80,63.936l 44.80,208.00l 268.80,0.00 l 44.768-208.00L 140.80,63.936 z" data-tags="printer" />
<glyph unicode="&#xe081;" d="M 468.80,335.584c-72.96,157.024-110.88,216.672-230.112,214.176c-42.464-0.864-32.256,30.752-64.64,18.752
		C 141.696,556.544, 169.472,538.976, 136.352,511.808c-92.864-76.224-84.32-146.752-41.248-314.88c 18.176-70.784-43.744-74.272-19.264-142.912
		c 17.888-50.016, 149.728-71.008, 288.832-19.36c 139.104,51.584, 226.88,154.016, 208.992,204.096C 549.184,307.36, 499.552,269.472, 468.80,335.584z M 349.568,76.928
		c-124.192-46.08-226.304-18.976-230.624-6.944c-7.424,20.768, 40.096,90.112, 182.112,142.816c 142.016,52.704, 221.28,33.152, 229.568,9.952
		C 535.52,209.056, 473.824,123.04, 349.568,76.928z M 309.664,188.736c-64.96-24.096-110.08-51.648-139.296-76.48
		c 20.576-18.688, 59.072-23.232, 97.472-8.992c 48.864,18.144, 78.88,59.776, 67.008,92.96c-0.128,0.416-0.352,0.768-0.512,1.152
		C 326.336,194.784, 318.112,191.904, 309.664,188.736z" data-tags="bell, alarm, alert, notification" />
<glyph unicode="&#xe082;" d="M 251.488,137.792l-25.92-25.728c-22.464-22.24-58.976-22.272-81.408,0.00c-10.784,10.72-16.704,24.896-16.704,40.032
		s 5.952,29.344, 16.704,40.064l 95.36,94.624c 19.744,19.616, 56.928,48.448, 84.032,21.568c 12.448-12.352, 32.544-12.256, 44.864,0.16
		c 12.352,12.416, 12.288,32.512-0.16,44.864c-46.048,45.696-114.144,37.248-173.44-21.568l-95.36-94.624C 76.608,214.464, 64.00,184.256, 64.00,152.096
		c0.00-32.128, 12.608-62.336, 35.488-85.056C 123.04,43.648, 153.952,32.00, 184.864,32.00s 61.888,11.648, 85.44,35.04l 25.92,25.76
		c 12.448,12.352, 12.512,32.448, 0.16,44.832C 284.032,150.048, 263.936,150.112, 251.488,137.792z M 540.512,505.312
		c-49.472,49.088-118.624,51.744-164.448,6.304l-32.288-32.032c-12.448-12.352-12.544-32.416-0.192-44.864c 12.384-12.448, 32.448-12.512, 44.864-0.16
		l 32.288,32.032c 23.712,23.552, 54.784,13.792, 75.072-6.304c 10.784-10.688, 16.704-24.928, 16.704-40.032c0.00-15.136-5.952-29.344-16.704-40.032
		l-101.76-100.928c-46.496-46.144-68.352-24.512-77.664-15.264c-12.448,12.352-32.512,12.256-44.832-0.16c-12.352-12.448-12.288-32.544, 0.16-44.864
		c 21.344-21.184, 45.76-31.68, 71.296-31.68c 31.296,0.00, 64.352,15.744, 95.776,46.944l 101.728,100.928C 563.392,357.888, 576.00,388.096, 576.00,420.224
		S 563.392,482.592, 540.512,505.312z" data-tags="link, anchor, chain" />
<glyph unicode="&#xe083;" d="M 591.552,458.24C 226.496,312.096, 374.368,705.44, 91.232,498.368L 32.00,477.12L 149.312,16.00l 64.608,0.00 L 156.48,241.856
		c 252.608,211.776, 150.336-230.752, 449.152,203.424C 612.576,455.36, 603.296,462.944, 591.552,458.24z" data-tags="flag, report" />
<glyph unicode="&#xe084;" d="M 537.12,288.00c0.00,33.536, 20.64,60.00, 51.68,78.176c-5.632,18.688-12.992,36.64-22.112,53.504c-34.88-9.12-63.072,4.544-86.752,28.224
		c-23.744,23.712-31.008,51.936-21.888,86.752c-16.864,9.12-34.752,16.576-53.504,22.144C 386.368,525.728, 353.504,505.088, 320.00,505.088
		c-33.504,0.00-66.336,20.64-84.544,51.712C 216.704,551.232, 198.816,543.776, 181.952,534.688C 191.04,499.84, 183.808,471.616, 160.096,447.904
		C 136.384,424.224, 108.16,410.56, 73.344,419.648C 64.224,402.816, 56.80,384.864, 51.20,366.176C 82.272,348.00, 102.912,321.536, 102.912,288.00
		c0.00-33.504-20.64-66.368-51.712-84.576c 5.60-18.72, 13.024-36.64, 22.144-53.504c 34.848,9.12, 63.04,1.856, 86.752-21.856
		c 23.712-23.712, 30.944-51.904, 21.856-86.752c 16.864-9.12, 34.784-16.576, 53.504-22.144c 18.208,31.104, 51.04,51.712, 84.544,51.712
		c 33.504,0.00, 66.40-20.64, 84.576-51.712c 18.752,5.60, 36.64,13.024, 53.504,22.144c-9.12,34.848-1.888,63.04, 21.888,86.752
		c 23.68,23.68, 51.872,37.344, 86.752,28.256c 9.12,16.864, 16.512,34.784, 22.112,53.504C 557.76,228.032, 537.12,254.496, 537.12,288.00z M 320.00,171.104
		c-64.544,0.00-116.864,52.352-116.864,116.896S 255.456,404.896, 320.00,404.896c 64.576,0.00, 116.896-52.352, 116.896-116.896S 384.576,171.104, 320.00,171.104z" data-tags="cog, settings, preferences, options" />
<glyph unicode="&#xe085;" d="M 100.288,387.52C 130.176,410.72, 154.944,394.752, 188.00,356.48C 191.744,352.192, 196.736,357.216, 199.552,359.68c 2.816,2.496, 46.464,41.728, 48.576,43.552
	C 250.272,405.12, 252.832,408.64, 249.44,412.576s-15.808,20.00-23.776,30.40c-57.856,75.68, 158.272,127.008, 125.056,127.808
	c-16.864,0.448-84.672,1.216-94.784,0.16C 214.88,566.592, 163.328,528.224, 137.376,510.368c-33.92-23.328-46.624-36.864-48.704-38.752
	c-9.60-8.416-1.536-27.744-18.944-43.008C 51.328,412.48, 39.872,424.672, 29.216,415.328c-5.312-4.672-20.064-15.712-24.32-19.456
	C 0.672,392.16-0.096,385.856, 4.224,380.80c0.00,0.00, 40.416-44.672, 43.84-48.608C 51.456,328.256, 60.576,324.928, 66.24,329.92
	c 5.664,4.96, 20.192,17.728, 22.656,19.904C 91.392,351.968, 87.296,377.44, 100.288,387.52z M 282.976,371.008c-3.84,4.448-8.576,4.544-12.704,0.896
	L 224.352,331.872c-3.584-3.20-4.064-9.088-0.832-12.80l 265.408-302.016c 6.176-7.168, 16.928-7.904, 24.064-1.696l 31.072,25.984
	c 7.072,6.208, 7.808,17.088, 1.632,24.224L 282.976,371.008z M 636.864,499.552c-2.368,15.808-10.56,12.48-14.816,5.76
	c-4.192-6.688-23.072-35.232-30.816-48.128c-7.68-12.864-26.56-38.112-61.888-13.184c-36.736,25.984-23.936,44.128-17.568,56.32
	c 6.432,12.256, 26.176,46.56, 29.056,50.88c 2.816,4.32-0.512,16.864-11.872,11.616c-11.424-5.28-80.736-32.832-90.368-72.32
	c-9.824-40.224, 8.256-76.128-27.20-111.808l-42.944-44.80l 43.136-50.176l 52.928,50.272c 12.64,12.672, 39.552,24.992, 63.936,19.456
	c 52.256-11.84, 80.736,7.808, 97.952,40.224C 641.824,422.688, 639.264,483.744, 636.864,499.552z M 87.68,62.368c-6.656-6.72-6.656-17.60,0.00-24.288
	l 30.432-29.76c 6.656-6.688, 17.216-3.872, 23.872,2.816l 157.024,154.40L 250.88,220.352L 87.68,62.368z" data-tags="tools, hammer, generate, fix, settings, wrench, build, factory" />
<glyph unicode="&#xe086;" d="M 357.792,148.672c0.00,46.432, 35.20,72.096, 92.608,110.112C 520.64,305.344, 608.00,363.264, 608.00,500.672c0.00,12.384-10.112,22.40-22.624,22.40l-109.792,0.00 
		C 460.064,551.744, 413.888,582.40, 320.00,582.40c-93.856,0.00-140.064-30.656-155.552-59.328L 54.656,523.072 C 42.144,523.072, 32.00,513.056, 32.00,500.672
		c0.00-137.408, 87.392-195.328, 157.632-241.856c 57.44-38.016, 92.64-63.68, 92.64-110.112l0.00-41.952 c-60.32-6.72-104.64-29.024-104.64-55.552
		c0.00-31.808, 63.744-57.60, 142.368-57.60c 78.656,0.00, 142.40,25.792, 142.40,57.60c0.00,26.528-44.32,48.832-104.64,55.552L 357.76,148.672 z M 446.624,310.40
		c 18.176,38.40, 32.544,90.464, 34.848,167.872l 80.288,0.00 C 554.112,391.904, 502.176,348.256, 446.624,310.40z M 320.00,543.168c 87.424,0.032, 121.60-35.712, 121.568-48.96
		c0.00-13.344-34.08-49.056-121.568-49.12C 232.576,445.184, 198.464,480.864, 198.464,494.208C 198.432,507.456, 232.576,543.232, 320.00,543.168z M 78.272,478.272l 80.256,0.00 
		C 160.864,400.864, 175.232,348.80, 193.376,310.40C 137.824,348.256, 85.92,391.904, 78.272,478.272z" data-tags="trophy, winner, cup" />
<glyph unicode="&#xe087;" d="M 617.312,595.008c-3.456,10.08-14.368,15.392-24.352,11.904s-15.232-14.528-11.744-24.64c 29.44-85.44-28.992-149.248-73.504-183.392
		l-18.016,26.048c-6.016,8.704-19.584,15.968-30.08,16.128l-100.96-0.48c-10.496,0.16-26.112-4.704-34.752-10.784l-297.472-210.816
		c-14.40-10.208-17.952-30.304-7.84-44.896l 135.232-195.424c 10.08-14.592, 26.304-12.832, 40.704-2.656l 297.472,210.848
		c 8.64,6.08, 18.464,19.328, 21.952,29.376l 31.616,100.672c 3.424,10.048, 1.344,25.408-4.672,34.112l-11.008,15.872
		C 589.696,413.12, 651.776,494.944, 617.312,595.008z M 478.912,295.616c-23.072-16.352-54.848-10.656-71.008,12.672
		c-16.128,23.328-10.528,55.488, 12.544,71.84c 18.304,12.992, 42.08,12.032, 59.20-0.576c-8.64-5.248-14.528-8.256-15.648-8.80
		c-9.536-4.544-13.632-16.064-9.12-25.728c 3.264-7.008, 10.112-11.136, 17.312-11.136c 2.72,0.00, 5.504,0.608, 8.128,1.856
		c 6.112,2.912, 12.736,6.464, 19.616,10.592C 503.008,327.36, 495.52,307.392, 478.912,295.616z" data-tags="tag, price" />
<glyph unicode="&#xe088;" d="M 320.00,352.00c-52.992,0.00-96.00-43.008-96.00-96.00c0.00-53.024, 43.008-96.00, 96.00-96.00c 53.024,0.00, 96.00,42.976, 96.00,96.00C 416.00,308.992, 373.024,352.00, 320.00,352.00z M 576.00,448.00l-76.768,0.00 
		c-10.56,0.00-21.952,8.192-25.28,18.208l-19.84,59.552C 450.72,535.808, 439.36,544.00, 428.80,544.00L 211.20,544.00 C 200.64,544.00, 189.248,535.808, 185.952,525.792L 166.048,466.208
		C 162.72,456.192, 151.36,448.00, 140.80,448.00L 64.00,448.00 C 28.80,448.00,0.00,419.20,0.00,384.00l0.00-288.00 c0.00-35.20, 28.80-64.00, 64.00-64.00l 512.00,0.00 c 35.232,0.00, 64.00,28.80, 64.00,64.00L 640.00,384.00 C 640.00,419.20, 611.232,448.00, 576.00,448.00z M 320.00,96.00
		c-88.384,0.00-160.00,71.616-160.00,160.00c0.00,88.352, 71.616,160.00, 160.00,160.00c 88.352,0.00, 160.00-71.648, 160.00-160.00C 480.00,167.616, 408.352,96.00, 320.00,96.00z M 553.60,339.264
		c-12.352,0.00-22.368,10.016-22.368,22.40s 10.016,22.40, 22.368,22.40c 12.384,0.00, 22.40-10.016, 22.40-22.40S 565.984,339.264, 553.60,339.264z" data-tags="camera, picture, photo, images" />
</font>
</defs>
</svg>
