<?xml version="1.0" encoding="UTF-8" ?>
<!DOCTYPE svg PUBLIC "-//W3C//DTD SVG 1.1//EN" "http://www.w3.org/Graphics/SVG/1.1/DTD/svg11.dtd">
<svg width="400pt" height="400pt" viewBox="0 0 400 400" version="1.1" xmlns="http://www.w3.org/2000/svg">

<path fill="#ed1f3d" d=" M 296.45 73.48 C 329.57 69.71 363.93 72.81 395.08 85.17 C 391.52 100.76 388.70 116.52 384.64 131.99 C 378.12 129.89 372.86 125.36 366.87 122.19 C 346.51 110.50 322.05 107.13 298.98 109.99 C 290.25 111.80 279.24 114.07 274.93 122.95 C 272.26 127.69 271.88 134.26 275.34 138.70 C 280.58 145.58 289.47 147.92 297.23 150.65 C 320.19 157.83 345.39 161.94 364.67 177.37 C 380.19 189.85 381.69 212.15 375.96 229.93 C 371.02 243.26 361.44 255.00 348.93 261.89 C 332.14 272.02 312.51 275.96 293.19 277.37 C 260.54 280.23 227.19 275.49 196.95 262.77 C 200.47 246.51 203.90 230.23 207.57 214.00 C 213.38 215.73 218.26 219.37 223.19 222.75 C 242.21 236.17 266.00 241.31 289.01 241.03 C 299.99 241.00 311.74 239.48 320.86 232.88 C 326.81 228.51 329.94 219.94 327.01 212.97 C 324.11 205.69 315.76 203.66 309.41 200.50 C 285.09 191.24 257.30 188.58 236.72 171.29 C 226.03 162.69 221.25 148.47 222.16 135.04 C 222.01 120.21 229.31 106.01 240.22 96.23 C 255.49 82.14 276.20 75.84 296.45 73.48 Z" />
<path fill="#000000" d=" M 64.02 76.05 C 111.69 75.95 159.36 75.99 207.04 76.03 C 204.30 88.67 201.24 101.24 198.68 113.92 C 167.86 114.14 137.03 113.88 106.20 114.06 C 103.58 125.72 100.79 137.36 98.04 149.00 C 126.74 149.05 155.44 148.92 184.14 149.06 C 181.13 161.56 178.29 174.11 175.47 186.65 C 146.71 187.42 117.95 186.75 89.19 187.07 C 85.52 203.38 81.71 219.65 78.01 235.95 C 108.72 236.10 139.42 235.90 170.13 236.05 C 167.34 248.68 164.42 261.28 161.70 273.92 C 113.81 274.08 65.92 274.00 18.03 273.97 C 33.51 208.03 48.74 142.04 64.02 76.05 Z" />
<path fill="#000000" d=" M 10.01 307.01 C 72.01 307.00 134.00 306.99 196.00 307.01 C 196.00 316.33 196.00 325.66 196.00 334.99 C 134.00 335.01 72.01 335.01 10.01 334.99 C 9.98 325.66 9.97 316.33 10.01 307.01 Z" />
<path fill="#ed1f3d" d=" M 196.00 307.01 C 260.66 306.99 325.33 306.99 389.99 307.01 C 390.01 316.33 390.02 325.66 389.99 334.99 C 325.33 335.00 260.66 335.01 196.00 334.99 C 196.00 325.66 196.00 316.33 196.00 307.01 Z" />
</svg>
