<?xml version="1.0" standalone="no"?>
<!DOCTYPE svg PUBLIC "-//W3C//DTD SVG 1.1//EN" "http://www.w3.org/Graphics/SVG/1.1/DTD/svg11.dtd" >
<svg>
<metadata>
Created by FontForge 20110222 at Thu Dec 25 21:27:50 2014
 By www-data
Copyright (c) Boutros International, 2005. All rights reserved.
</metadata>
<defs>
<font id="GEAsifaBold-Bold" horiz-adv-x="0" >
  <font-face 
    font-family="GE Asifa Bold"
    font-weight="700"
    font-stretch="normal"
    units-per-em="1000"
    panose-1="2 0 0 0 0 0 0 0 0 0"
    ascent="800"
    descent="-200"
    bbox="-114 -524 1473 1455"
    underline-thickness="50"
    underline-position="-50"
    unicode-range="U+0020-FEFF"
  />
<missing-glyph horiz-adv-x="500" 
d="M63 0h375v750h-375v-750zM125 63v625h250v-625h-250z" />
    <glyph glyph-name="shaddakasraarabic" unicode="&#x650;&#x651;" arabic-form="isolated" 
d="M282 1169c0 -51 -32 -79 -84 -79c-18 0 -36 7 -49 20c-14 -14 -33 -20 -52 -20c-51 0 -82 29 -82 79v84h53v-72c0 -18 5 -39 26 -39c23 0 28 20 28 39v72h53v-72c0 -19 5 -39 27 -39s26 21 26 39v72h54v-84zM282 972h-267v53h267v-53z" />
    <glyph glyph-name="shaddakasratanarabic" unicode="&#x64d;&#x651;" arabic-form="isolated" 
d="M282 1273c0 -51 -32 -79 -84 -79c-18 0 -36 7 -49 20c-14 -14 -33 -20 -52 -20c-51 0 -82 29 -82 79v84h53v-72c0 -18 5 -39 26 -39c23 0 28 20 28 39v72h53v-72c0 -19 5 -39 27 -39s26 21 26 39v72h54v-84zM282 1076h-267v53h267v-53zM282 972h-267v53h267v-53z" />
    <glyph glyph-name="shaddafathaarabic" unicode="&#x64e;&#x651;" arabic-form="isolated" 
d="M282 1196h-267v54h267v-54zM282 1051c0 -51 -32 -79 -84 -79c-18 0 -36 7 -49 20c-14 -14 -33 -20 -52 -20c-51 0 -82 29 -82 79v84h53v-72c0 -18 5 -39 26 -39c23 0 28 20 28 39v72h53v-72c0 -19 5 -40 27 -40s26 22 26 39v73h54v-84z" />
    <glyph glyph-name="shaddadammaarabicX" unicode="&#x64f;&#x651;" arabic-form="isolated" 
d="M267 1325c0 -92 -112 -143 -185 -168l-67 9c53 20 194 87 194 152c0 18 -12 34 -31 34c-20 0 -32 -19 -32 -38c0 -15 16 -33 26 -43l-51 -18c-15 19 -29 41 -29 65c0 51 39 93 91 93c48 0 84 -38 84 -86zM282 1051c0 -51 -32 -79 -84 -79c-18 0 -36 7 -49 20
c-14 -14 -33 -20 -52 -20c-51 0 -82 29 -82 79v84h53v-72c0 -18 5 -39 26 -39c23 0 28 20 28 39v72h53v-72c0 -19 5 -40 27 -40s26 22 26 39v73h54v-84z" />
    <glyph glyph-name="lamalefhamzaaboveisolatedarabi" unicode="&#xfedf;&#xfe84;" horiz-adv-x="706" arabic-form="isolated" 
d="M269 694c0 -20 -13 -27 -32 -27h-176c-19 0 -32 7 -32 27v103h88c0 69 60 108 124 108h28v-54h-22c-37 0 -67 -14 -70 -54h92v-103zM638 514c0 -15 -16 -27 -27 -35c-38 -26 -76 -54 -113 -82l-24 19c-14 -15 -28 -30 -43 -44l136 -101c14 -10 21 -25 21 -42v-151
c0 -49 -14 -78 -68 -78h-389c-39 0 -65 15 -65 57v210c91 0 138 17 209 77c-59 37 -122 68 -187 93l44 151c79 -47 157 -100 227 -160c13 12 25 25 36 39c-22 18 -46 34 -46 65c0 67 135 130 184 157c-1 -8 -2 -17 -2 -26c0 -93 107 -99 107 -149zM402 267l-57 37
c-24 -14 -48 -30 -75 -37h132z" />
    <glyph glyph-name="lamalefmaddaabovefinalarabic" unicode="&#xfee0;&#xfe82;" horiz-adv-x="617" arabic-form="final" 
d="M651 0h-145c-23 0 -42 11 -55 29c-11 -18 -28 -29 -50 -29h-270c-39 0 -65 15 -65 57v210h221c-63 82 -112 125 -197 184l48 154c98 -67 160 -146 227 -241v209l187 94v-357c0 -42 18 -43 47 -43h52v-267zM291 704c-22 -19 -59 -49 -89 -49c-39 0 -55 41 -90 41
c-16 0 -41 -21 -52 -31l-35 42c21 19 58 49 88 49c40 0 63 -42 89 -42c18 0 41 21 54 33z" />
    <glyph glyph-name="shaddadammatanarabic" unicode="&#x64c;&#x651;" arabic-form="isolated" 
d="M267 1369c0 -94 -98 -160 -180 -160c-19 0 -36 5 -53 13l-14 -63l-25 13l-12 128c31 -19 68 -33 104 -33s122 27 122 95c0 18 -12 34 -31 34c-20 0 -32 -19 -32 -38c0 -15 16 -33 26 -44l-51 -17c-15 19 -29 41 -29 65c0 51 39 93 91 93c48 0 84 -38 84 -86zM282 1051
c0 -51 -32 -79 -84 -79c-18 0 -36 7 -49 20c-14 -14 -33 -20 -52 -20c-51 0 -82 29 -82 79v84h53v-72c0 -18 5 -39 26 -39c23 0 28 20 28 39v72h53v-72c0 -19 5 -40 27 -40s26 22 26 39v73h54v-84z" />
    <glyph glyph-name="lamalefisolatedarabic" unicode="&#xfedf;&#xfe8e;" horiz-adv-x="706" arabic-form="isolated" 
d="M638 514c0 -15 -16 -27 -27 -35c-38 -26 -76 -54 -113 -82l-24 19c-14 -15 -28 -30 -43 -44l136 -101c14 -10 21 -25 21 -42v-151c0 -49 -14 -78 -68 -78h-389c-39 0 -65 15 -65 57v210c91 0 138 17 209 77c-59 37 -122 68 -187 93l44 151c79 -47 157 -100 227 -160
c13 12 25 25 36 39c-22 18 -46 34 -46 65c0 67 135 130 184 157c-1 -8 -2 -17 -2 -26c0 -93 107 -99 107 -149zM402 267l-57 37c-24 -14 -48 -30 -75 -37h132z" />
    <glyph glyph-name="lamaleffinalarabic" unicode="&#xfee0;&#xfe8e;" horiz-adv-x="617" arabic-form="final" 
d="M651 0h-145c-23 0 -42 11 -55 29c-11 -18 -28 -29 -50 -29h-270c-39 0 -65 15 -65 57v210h221c-63 82 -112 125 -197 184l48 154c98 -67 160 -146 227 -241v209l187 94v-357c0 -42 18 -43 47 -43h52v-267z" />
    <glyph glyph-name="lamalefhamzaabovefinalarabicX" unicode="&#xfee0;&#xfe84;" horiz-adv-x="617" arabic-form="final" 
d="M651 0h-145c-23 0 -42 11 -55 29c-11 -18 -28 -29 -50 -29h-270c-39 0 -65 15 -65 57v210h221c-63 82 -112 125 -197 184l48 154c98 -67 160 -146 227 -241v209l187 94v-357c0 -42 18 -43 47 -43h52v-267zM269 709c0 -20 -13 -28 -32 -28h-176c-19 0 -32 8 -32 28v103h88
c0 69 60 108 124 108h28v-54h-22c-37 0 -67 -14 -70 -54h92v-103z" />
    <glyph glyph-name="lamalefhamzabelowisolatedarabi" unicode="&#xfedf;&#xfe88;" horiz-adv-x="706" arabic-form="isolated" 
d="M638 514c0 -15 -16 -27 -27 -35c-38 -26 -76 -54 -113 -82l-24 19c-14 -15 -28 -30 -43 -44l136 -101c14 -10 21 -25 21 -42v-151c0 -49 -14 -78 -68 -78h-389c-39 0 -65 15 -65 57v210c91 0 138 17 209 77c-59 37 -122 68 -187 93l44 151c79 -47 157 -100 227 -160
c13 12 25 25 36 39c-22 18 -46 34 -46 65c0 67 135 130 184 157c-1 -8 -2 -17 -2 -26c0 -93 107 -99 107 -149zM269 -299c0 -20 -13 -28 -32 -28h-176c-19 0 -32 8 -32 28v103h88c0 69 60 108 124 108h28v-54h-22c-37 0 -67 -14 -70 -54h92v-103zM402 267l-57 37
c-24 -14 -48 -30 -75 -37h132z" />
    <glyph glyph-name="lamalefhamzabelowfinalarabicX" unicode="&#xfee0;&#xfe88;" horiz-adv-x="617" arabic-form="final" 
d="M651 0h-145c-23 0 -42 11 -55 29c-11 -18 -28 -29 -50 -29h-270c-39 0 -65 15 -65 57v210h221c-63 82 -112 125 -197 184l48 154c98 -67 160 -146 227 -241v209l187 94v-357c0 -42 18 -43 47 -43h52v-267zM269 -299c0 -20 -13 -28 -32 -28h-176c-19 0 -32 8 -32 28v103
h88c0 69 60 108 124 108h28v-54h-22c-37 0 -67 -14 -70 -54h92v-103z" />
    <glyph glyph-name="lamalefmaddaaboveisolatedarabi" unicode="&#xfedf;&#xfe82;" horiz-adv-x="706" arabic-form="isolated" 
d="M291 689c-22 -19 -59 -49 -89 -49c-39 0 -55 42 -90 42c-16 0 -41 -22 -52 -32l-35 42c21 20 58 50 88 50c40 0 63 -42 89 -42c18 0 41 21 54 32zM638 514c0 -15 -16 -27 -27 -35c-38 -26 -76 -54 -113 -82l-24 19c-14 -15 -28 -30 -43 -44l136 -101
c14 -10 21 -25 21 -42v-151c0 -49 -14 -78 -68 -78h-389c-39 0 -65 15 -65 57v210c91 0 138 17 209 77c-59 37 -122 68 -187 93l44 151c79 -47 157 -100 227 -160c13 12 25 25 36 39c-22 18 -46 34 -46 65c0 67 135 130 184 157c-1 -8 -2 -17 -2 -26c0 -93 107 -99 107 -149
zM402 267l-57 37c-24 -14 -48 -30 -75 -37h132z" />
    <glyph glyph-name="alefmaddaabovearabic" unicode="&#x627;&#x653;" horiz-adv-x="321" 
d="M284 796c-22 -19 -58 -49 -89 -49c-38 0 -55 41 -90 41c-16 0 -41 -22 -52 -32l-35 43c22 19 58 49 88 49c40 0 63 -42 89 -42c18 0 42 21 54 32zM253 0h-122c-39 0 -65 15 -65 57v516l187 94v-667z" />
    <glyph glyph-name="alefhamzaabovearabic" unicode="&#x627;&#x654;" horiz-adv-x="321" 
d="M269 721c0 -20 -13 -28 -32 -28h-176c-19 0 -32 8 -32 28v103h88c0 69 60 108 124 108h28v-54h-22c-37 0 -67 -14 -70 -54h92v-103zM253 0h-122c-39 0 -65 15 -65 57v516l187 94v-667z" />
    <glyph glyph-name="wawhamzaabovearabic" unicode="&#x648;&#x654;" horiz-adv-x="531" 
d="M345 647c0 -20 -13 -28 -32 -28h-175c-19 0 -32 8 -32 28v103h88c0 68 59 108 124 108h27v-54h-21c-37 0 -67 -14 -71 -54h92v-103zM463 134c0 -54 -1 -110 -15 -162c-33 -135 -138 -201 -274 -201c-59 0 -100 16 -100 83v138h19c73 0 133 12 179 78
c-121 30 -206 131 -206 257c0 104 59 190 169 190c184 0 228 -242 228 -383zM317 269c-3 44 -24 122 -80 122c-21 0 -38 -14 -38 -36c0 -53 75 -80 118 -86z" />
    <glyph glyph-name="alefhamzabelowarabic" unicode="&#x627;&#x655;" horiz-adv-x="321" 
d="M253 0h-122c-39 0 -65 15 -65 57v516l187 94v-667zM269 -299c0 -20 -13 -28 -32 -28h-176c-19 0 -32 8 -32 28v103h88c0 69 60 108 124 108h28v-54h-22c-37 0 -67 -14 -70 -54h92v-103z" />
    <glyph glyph-name="yehhamzaabovearabic" unicode="&#x64a;&#x654;" horiz-adv-x="695" 
d="M627 80c0 -160 -97 -310 -270 -310c-194 0 -291 185 -291 359c0 19 1 37 2 55l106 63c-2 -17 -4 -34 -4 -51c0 -99 39 -199 153 -199c37 0 66 18 92 45c-74 28 -107 85 -107 163c0 141 88 237 207 302l90 -104c-31 -16 -114 -59 -114 -101c0 -32 24 -35 52 -35h18
c35 0 66 -2 66 -53v-134zM254 375c0 -20 -13 -28 -32 -28h-176c-18 0 -31 8 -31 28v103h88c0 69 59 108 123 108h28v-54h-22c-37 0 -67 -14 -70 -54h92v-103z" />
    <glyph glyph-name="allahisolated" unicode="&#xfedf;&#xfee0;&#xfeea;" horiz-adv-x="1559" arabic-form="isolated" 
d="M1473 494c0 -26 -33 -51 -52 -64v-352c0 -49 -15 -78 -68 -78h-366c-29 0 -54 14 -61 48c-6 -35 -32 -48 -65 -48h-335c-30 0 -51 14 -58 48c-6 -35 -32 -48 -66 -48h-271c-39 0 -65 15 -65 57v172c0 97 106 149 171 205l-26 30l120 93c69 -83 140 -178 140 -290h270v306
l188 94v-400h304v162c-13 18 -32 46 -32 70c0 22 10 41 25 57c43 44 129 92 179 125c-2 -10 -4 -20 -4 -30c0 -70 72 -124 72 -157zM324 282c0 10 -14 46 -25 60c-9 -7 -78 -55 -84 -75h78c10 0 31 1 31 15zM964 815c0 -51 -32 -79 -84 -79c-18 0 -36 7 -49 20
c-14 -14 -33 -20 -52 -20c-51 0 -82 29 -82 79v84h53v-72c0 -18 5 -39 26 -39c23 0 28 20 28 39v72h53v-72c0 -19 5 -40 27 -40s26 22 26 39v73h54v-84z" />
    <glyph glyph-name="alefwithfathatanisolated" unicode="&#x627;&#x64b;" horiz-adv-x="321" arabic-form="isolated" 
d="M253 0h-122c-39 0 -65 15 -65 57v516l187 94v-667zM282 831h-267v53h267v-53zM282 727h-267v53h267v-53z" />
    <glyph glyph-name="alefwithfathatanfinal" unicode="&#xfe8e;&#x64b;" horiz-adv-x="317" arabic-form="final" 
d="M351 0h-220c-39 0 -65 15 -65 57v516l187 94v-357c0 -43 15 -43 44 -43h54v-267zM282 831h-267v53h267v-53zM282 727h-267v53h267v-53z" />
    <glyph glyph-name="behinitialarabic" unicode="&#x628;" horiz-adv-x="441" arabic-form="initial" 
d="M375 78c0 -49 -15 -78 -69 -78h-306v267h246c-6 35 -26 66 -47 94l102 87c55 -87 74 -131 74 -236v-134zM273 -156l-67 -99l-97 67l67 100z" />
    <glyph glyph-name="tehinitialarabic" unicode="&#x62a;" horiz-adv-x="441" arabic-form="initial" 
d="M309 596l-67 -98l-81 57l-38 -57l-97 67l67 100l81 -57l38 57zM375 78c0 -49 -15 -78 -69 -78h-306v267h246c-6 35 -26 66 -47 94l102 87c55 -87 74 -131 74 -236v-134z" />
    <glyph glyph-name="thehinitialarabic" unicode="&#x62b;" horiz-adv-x="441" arabic-form="initial" 
d="M216 722l-49 -72l-70 49l49 72zM309 596l-67 -98l-81 57l-38 -57l-97 67l67 100l81 -57l38 57zM375 78c0 -49 -15 -78 -69 -78h-306v267h246c-6 35 -26 66 -47 94l102 87c55 -87 74 -131 74 -236v-134z" />
    <glyph glyph-name="jeeminitialarabic" unicode="&#x62c;" horiz-adv-x="708" arabic-form="initial" 
d="M641 0h-641v267h480c-28 74 -94 119 -174 119c-33 0 -65 -11 -95 -25v112c34 15 70 25 107 25c177 0 323 -146 323 -326v-172zM404 -156l-68 -99l-96 68l67 99z" />
    <glyph glyph-name="hahinitialarabic" unicode="&#x62d;" horiz-adv-x="708" arabic-form="initial" 
d="M641 0h-641v267h480c-28 74 -94 119 -174 119c-33 0 -65 -11 -95 -25v112c34 15 70 25 107 25c177 0 323 -146 323 -326v-172z" />
    <glyph glyph-name="khahinitialarabic" unicode="&#x62e;" horiz-adv-x="708" arabic-form="initial" 
d="M442 692l-68 -99l-96 68l67 99zM641 0h-641v267h480c-28 74 -94 119 -174 119c-33 0 -65 -11 -95 -25v112c34 15 70 25 107 25c177 0 323 -146 323 -326v-172z" />
    <glyph glyph-name="seeninitialarabic" unicode="&#x633;" horiz-adv-x="1039" arabic-form="initial" 
d="M972 78c0 -49 -15 -78 -68 -78h-143c-33 0 -59 14 -66 48c-6 -35 -32 -48 -65 -48h-130c-34 0 -59 14 -66 48c-7 -35 -32 -48 -66 -48h-368v267h319c-7 24 -20 46 -35 66l88 76c27 -44 48 -92 61 -142h148c-8 24 -20 46 -36 66l88 76c27 -44 49 -92 62 -142h148
c-6 35 -25 66 -46 94l101 87c55 -87 74 -131 74 -236v-134z" />
    <glyph glyph-name="sheeninitialarabic" unicode="&#x634;" horiz-adv-x="1039" arabic-form="initial" 
d="M619 722l-49 -72l-70 49l49 72zM712 596l-67 -98l-81 57l-39 -57l-96 67l67 100l81 -57l38 57zM972 78c0 -49 -15 -78 -68 -78h-143c-33 0 -59 14 -66 48c-6 -35 -32 -48 -65 -48h-130c-34 0 -59 14 -66 48c-7 -35 -32 -48 -66 -48h-368v267h319c-7 24 -20 46 -35 66
l88 76c27 -44 48 -92 61 -142h148c-8 24 -20 46 -36 66l88 76c27 -44 49 -92 62 -142h148c-6 35 -25 66 -46 94l101 87c55 -87 74 -131 74 -236v-134z" />
    <glyph glyph-name="tahinitialarabic" unicode="&#x637;" horiz-adv-x="893" arabic-form="initial" 
d="M826 78c0 -49 -16 -78 -69 -78h-757v267h230v152c-14 19 -34 43 -34 68c0 23 12 42 27 58c46 46 125 90 179 125c-2 -10 -3 -20 -3 -29c0 -71 71 -125 71 -158c0 -26 -33 -50 -52 -64v-105c68 77 152 173 263 173c113 0 145 -106 145 -200v-209zM688 267v22
c0 36 -20 68 -60 68c-50 0 -95 -55 -124 -90h184z" />
    <glyph glyph-name="zahinitialarabic" unicode="&#x638;" horiz-adv-x="893" arabic-form="initial" 
d="M698 677l-68 -99l-96 68l67 99zM826 78c0 -49 -16 -78 -69 -78h-757v267h230v152c-14 19 -34 43 -34 68c0 23 12 42 27 58c46 46 125 90 179 125c-2 -10 -3 -20 -3 -29c0 -71 71 -125 71 -158c0 -26 -33 -50 -52 -64v-105c68 77 152 173 263 173c113 0 145 -106 145 -200
v-209zM688 267v22c0 36 -20 68 -60 68c-50 0 -95 -55 -124 -90h184z" />
    <glyph glyph-name="aininitialarabic" unicode="&#x639;" horiz-adv-x="582" arabic-form="initial" 
d="M515 78c0 -49 -15 -78 -68 -78h-447v267h203c0 152 131 226 269 226h43v-113h-40c-78 0 -142 -28 -149 -113h189v-189z" />
    <glyph glyph-name="ghaininitialarabic" unicode="&#x63a;" horiz-adv-x="582" arabic-form="initial" 
d="M367 608l-68 -99l-96 68l67 99zM515 78c0 -49 -15 -78 -68 -78h-447v267h203c0 152 131 226 269 226h43v-113h-40c-78 0 -142 -28 -149 -113h189v-189z" />
    <glyph glyph-name="fehinitialarabic" unicode="&#x641;" horiz-adv-x="639" arabic-form="initial" 
d="M430 688l-68 -99l-96 68l67 99zM572 78c0 -49 -15 -78 -68 -78h-504v267h243c-23 26 -41 58 -41 93c0 92 84 155 172 155c140 0 198 -142 198 -263v-174zM449 269c-3 44 -24 122 -80 122c-21 0 -38 -14 -38 -36c0 -53 75 -80 118 -86z" />
    <glyph glyph-name="qafinitialarabic" unicode="&#x642;" horiz-adv-x="639" arabic-form="initial" 
d="M509 687l-67 -98l-81 57l-38 -57l-97 67l67 100l82 -57l38 57zM572 78c0 -49 -15 -78 -68 -78h-504v267h243c-23 26 -41 58 -41 93c0 92 84 155 172 155c140 0 198 -142 198 -263v-174zM449 269c-3 44 -24 122 -80 122c-21 0 -38 -14 -38 -36c0 -53 75 -80 118 -86z" />
    <glyph glyph-name="kafinitialarabic" unicode="&#x643;" horiz-adv-x="739" arabic-form="initial" 
d="M672 78c0 -50 -15 -78 -68 -78h-604v267h498c-94 84 -188 142 -297 203v126c131 41 298 70 451 71v-146c-83 0 -166 -11 -246 -29c55 -38 224 -160 254 -213c10 -18 12 -39 12 -59v-142z" />
    <glyph glyph-name="laminitialarabic" unicode="&#x644;" horiz-adv-x="538" arabic-form="initial" 
d="M471 494c0 -26 -33 -51 -52 -64v-352c0 -49 -15 -78 -68 -78h-351v267h231v162c-13 18 -32 46 -32 70c0 22 10 41 25 57c43 44 129 92 179 125c-2 -10 -4 -20 -4 -30c0 -70 72 -124 72 -157z" />
    <glyph glyph-name="meeminitialarabic" unicode="&#x645;" horiz-adv-x="657" arabic-form="initial" 
d="M590 199c0 -12 -4 -25 -7 -36l-49 -166c-8 -28 -13 -49 -46 -49c-14 0 -28 3 -42 7c-75 23 -143 37 -221 50c-21 3 -42 11 -54 29c-14 -25 -53 -34 -65 -34h-106v267h123c27 0 62 1 86 16c73 45 104 196 204 196c89 0 177 -204 177 -280zM448 215c-2 31 -14 108 -56 108
c-15 0 -30 -23 -38 -33c-14 -21 -32 -37 -53 -50c8 0 16 1 24 1c42 0 84 -11 123 -26z" />
    <glyph glyph-name="nooninitialarabic" unicode="&#x646;" horiz-adv-x="441" arabic-form="initial" 
d="M238 566l-68 -99l-96 68l67 99zM375 78c0 -49 -15 -78 -69 -78h-306v267h246c-6 35 -26 66 -47 94l102 87c55 -87 74 -131 74 -236v-134z" />
    <glyph glyph-name="hehinitialarabic" unicode="&#x647;" horiz-adv-x="759" arabic-form="initial" 
d="M692 78c0 -49 -15 -78 -68 -78h-624v267h216c-2 11 -4 22 -4 34c0 67 53 112 107 142l-33 20l117 91c103 -69 289 -193 289 -330v-146zM544 267c-14 26 -34 48 -57 66c0 -23 -4 -47 -18 -66h75zM410 333c0 18 -9 34 -29 34c-31 0 -54 -50 -54 -77c0 -15 3 -38 22 -38
c38 0 61 48 61 81z" />
    <glyph glyph-name="yehinitialarabic" unicode="&#x64a;" horiz-adv-x="441" arabic-form="initial" 
d="M375 78c0 -49 -15 -78 -69 -78h-306v267h246c-6 35 -26 66 -47 94l102 87c55 -87 74 -131 74 -236v-134zM363 -157l-68 -98l-80 57l-39 -57l-96 67l67 100l81 -57l38 57z" />
    <glyph glyph-name="yehhamzaabovemedialarabic" unicode="&#x626;" horiz-adv-x="436" arabic-form="medial" 
d="M285 564c0 -20 -13 -28 -32 -28h-176c-19 0 -32 8 -32 28v103h88c0 68 60 108 124 108h28v-54h-22c-37 0 -67 -14 -70 -54h92v-103zM470 0h-49c-21 0 -42 14 -48 48c-7 -35 -30 -48 -66 -48h-307v267h248c-8 35 -26 66 -47 94l102 87c41 -66 61 -102 72 -181h95v-267z
" />
    <glyph glyph-name="behmedialarabic" unicode="&#x628;" horiz-adv-x="436" arabic-form="medial" 
d="M470 0h-49c-21 0 -42 14 -48 48c-7 -35 -30 -48 -66 -48h-307v267h248c-8 35 -26 66 -47 94l102 87c41 -66 61 -102 72 -181h95v-267zM337 -156l-67 -99l-97 67l67 100z" />
    <glyph glyph-name="tehmedialarabic" unicode="&#x62a;" horiz-adv-x="436" arabic-form="medial" 
d="M309 596l-67 -98l-81 57l-38 -57l-97 67l67 100l81 -57l38 57zM470 0h-49c-21 0 -42 14 -48 48c-7 -35 -30 -48 -66 -48h-307v267h248c-8 35 -26 66 -47 94l102 87c41 -66 61 -102 72 -181h95v-267z" />
    <glyph glyph-name="thehmedialarabic" unicode="&#x62b;" horiz-adv-x="436" arabic-form="medial" 
d="M216 722l-49 -72l-70 49l49 72zM309 596l-67 -98l-81 57l-38 -57l-97 67l67 100l81 -57l38 57zM470 0h-49c-21 0 -42 14 -48 48c-7 -35 -30 -48 -66 -48h-307v267h248c-8 35 -26 66 -47 94l102 87c41 -66 61 -102 72 -181h95v-267z" />
    <glyph glyph-name="jeemmedialarabic" unicode="&#x62c;" horiz-adv-x="706" arabic-form="medial" 
d="M740 0h-36c-33 0 -51 14 -63 48c-9 -36 -32 -48 -66 -48h-575v267h480c-28 74 -94 119 -174 119c-33 0 -65 -11 -95 -25v112c34 15 70 25 107 25c145 0 269 -98 309 -231h113v-267zM404 -156l-68 -99l-96 68l67 99z" />
    <glyph glyph-name="hahmedialarabic" unicode="&#x62d;" horiz-adv-x="706" arabic-form="medial" 
d="M740 0h-36c-33 0 -51 14 -63 48c-9 -36 -32 -48 -66 -48h-575v267h480c-28 74 -94 119 -174 119c-33 0 -65 -11 -95 -25v112c34 15 70 25 107 25c145 0 269 -98 309 -231h113v-267z" />
    <glyph glyph-name="khahmedialarabic" unicode="&#x62e;" horiz-adv-x="706" arabic-form="medial" 
d="M740 0h-36c-33 0 -51 14 -63 48c-9 -36 -32 -48 -66 -48h-575v267h480c-28 74 -94 119 -174 119c-33 0 -65 -11 -95 -25v112c34 15 70 25 107 25c145 0 269 -98 309 -231h113v-267zM442 692l-68 -99l-96 68l67 99z" />
    <glyph glyph-name="seenmedialarabic" unicode="&#x633;" horiz-adv-x="1033" arabic-form="medial" 
d="M1067 0h-38c-27 0 -52 13 -60 44c-7 -28 -26 -44 -65 -44h-143c-33 0 -59 14 -66 48c-6 -35 -32 -48 -65 -48h-130c-34 0 -59 14 -66 48c-7 -35 -32 -48 -66 -48h-368v267h319c-7 24 -20 46 -35 66l88 76c27 -44 48 -92 61 -142h148c-8 24 -20 46 -36 66l88 76
c27 -44 49 -92 62 -142h148c-6 35 -25 66 -46 94l101 87c45 -71 66 -113 72 -181h97v-267z" />
    <glyph glyph-name="sheenmedialarabic" unicode="&#x634;" horiz-adv-x="1033" arabic-form="medial" 
d="M619 722l-49 -72l-70 49l49 72zM712 596l-67 -98l-81 57l-39 -57l-96 67l67 100l81 -57l38 57zM1067 0h-38c-27 0 -52 13 -60 44c-7 -28 -26 -44 -65 -44h-143c-33 0 -59 14 -66 48c-6 -35 -32 -48 -65 -48h-130c-34 0 -59 14 -66 48c-7 -35 -32 -48 -66 -48h-368v267
h319c-7 24 -20 46 -35 66l88 76c27 -44 48 -92 61 -142h148c-8 24 -20 46 -36 66l88 76c27 -44 49 -92 62 -142h148c-6 35 -25 66 -46 94l101 87c45 -71 66 -113 72 -181h97v-267z" />
    <glyph glyph-name="sadmedialarabic" unicode="&#x635;" horiz-adv-x="835" arabic-form="medial" 
d="M869 0h-40c-28 0 -54 14 -61 48c-7 -35 -33 -48 -66 -48h-702v267h239c-8 24 -21 46 -36 66l88 76c22 -36 42 -74 54 -115c70 83 161 193 280 193c124 0 143 -129 143 -200v-20h101v-267zM631 267v20c0 36 -20 70 -60 70c-50 0 -95 -55 -124 -90h184z" />
    <glyph glyph-name="dadmedialarabic" unicode="&#x636;" horiz-adv-x="835" arabic-form="medial" 
d="M508 618l-68 -99l-96 67l67 100zM869 0h-40c-28 0 -54 14 -61 48c-7 -35 -33 -48 -66 -48h-702v267h239c-8 24 -21 46 -36 66l88 76c22 -36 42 -74 54 -115c70 83 161 193 280 193c124 0 143 -129 143 -200v-20h101v-267zM631 267v20c0 36 -20 70 -60 70
c-50 0 -95 -55 -124 -90h184z" />
    <glyph glyph-name="tahmedialarabic" unicode="&#x637;" horiz-adv-x="889" arabic-form="medial" 
d="M924 0h-36c-33 0 -58 15 -64 50c-6 -32 -22 -50 -67 -50h-757v267h230v152c-14 19 -34 43 -34 68c0 23 12 42 27 58c46 46 125 90 179 125c-2 -10 -3 -20 -3 -29c0 -71 71 -125 71 -158c0 -26 -33 -50 -52 -64v-105c68 77 152 173 263 173c113 0 145 -106 145 -200v-20
h98v-267zM688 267v22c0 36 -20 68 -60 68c-50 0 -95 -55 -124 -90h184z" />
    <glyph glyph-name="zahmedialarabic" unicode="&#x638;" horiz-adv-x="889" arabic-form="medial" 
d="M698 677l-68 -99l-96 68l67 99zM924 0h-36c-33 0 -58 15 -64 50c-6 -32 -22 -50 -67 -50h-757v267h230v152c-14 19 -34 43 -34 68c0 23 12 42 27 58c46 46 125 90 179 125c-2 -10 -3 -20 -3 -29c0 -71 71 -125 71 -158c0 -26 -33 -50 -52 -64v-105c68 77 152 173 263 173
c113 0 145 -106 145 -200v-20h98v-267zM688 267v22c0 36 -20 68 -60 68c-50 0 -95 -55 -124 -90h184z" />
    <glyph glyph-name="ainmedialarabic" unicode="&#x639;" horiz-adv-x="668" arabic-form="medial" 
d="M703 0h-190c-30 0 -52 13 -63 41c-32 -36 -40 -41 -88 -41h-362v267h402c-52 80 -107 76 -194 75l59 132c59 25 123 44 188 44c84 0 167 -37 167 -133c0 -44 -30 -86 -58 -118h139v-267z" />
    <glyph glyph-name="ghainmedialarabic" unicode="&#x63a;" horiz-adv-x="668" arabic-form="medial" 
d="M502 686l-68 -99l-96 68l67 99zM703 0h-190c-30 0 -52 13 -63 41c-32 -36 -40 -41 -88 -41h-362v267h402c-52 80 -107 76 -194 75l59 132c59 25 123 44 188 44c84 0 167 -37 167 -133c0 -44 -30 -86 -58 -118h139v-267z" />
    <glyph glyph-name="fehmedialarabic" unicode="&#x641;" horiz-adv-x="636" arabic-form="medial" 
d="M430 688l-68 -99l-96 68l67 99zM670 0h-38c-29 0 -55 16 -62 49c-6 -31 -24 -49 -66 -49h-504v267h243c-23 26 -41 58 -41 93c0 92 84 155 172 155c134 0 194 -132 198 -248h98v-267zM449 269c-3 44 -24 122 -80 122c-21 0 -38 -14 -38 -36c0 -53 75 -80 118 -86z" />
    <glyph glyph-name="qafmedialarabic" unicode="&#x642;" horiz-adv-x="636" arabic-form="medial" 
d="M509 687l-67 -98l-81 57l-38 -57l-97 67l67 100l82 -57l38 57zM670 0h-38c-29 0 -55 16 -62 49c-6 -31 -24 -49 -66 -49h-504v267h243c-23 26 -41 58 -41 93c0 92 84 155 172 155c134 0 194 -132 198 -248h98v-267zM449 269c-3 44 -24 122 -80 122c-21 0 -38 -14 -38 -36
c0 -53 75 -80 118 -86z" />
    <glyph glyph-name="kafmedialarabic" unicode="&#x643;" horiz-adv-x="735" arabic-form="medial" 
d="M769 0h-40c-30 0 -52 15 -59 47c-7 -30 -25 -47 -66 -47h-604v267h498c-94 84 -188 142 -297 203v126c131 41 298 70 451 71v-146c-83 0 -166 -11 -246 -29c55 -38 224 -160 254 -213c2 -4 4 -8 5 -12h104v-267z" />
    <glyph glyph-name="lammedialarabic" unicode="&#x644;" horiz-adv-x="458" arabic-form="medial" 
d="M493 0h-39c-29 0 -54 14 -61 48c-6 -35 -32 -48 -65 -48h-328v267h208v306l188 94v-400h97v-267z" />
    <glyph glyph-name="meemmedialarabic" unicode="&#x645;" horiz-adv-x="618" arabic-form="medial" 
d="M652 0h-38c-33 0 -59 14 -65 48c-9 -34 -14 -100 -61 -100c-14 0 -28 3 -41 7c-75 23 -144 38 -222 50c-20 3 -41 11 -53 29c-24 -33 -48 -34 -86 -34h-86v267h110c40 0 79 3 99 16c74 45 104 196 205 196c87 0 140 -151 163 -212h75v-267zM449 215
c-2 31 -15 108 -57 108c-21 0 -64 -62 -85 -79c48 -3 96 -12 142 -29z" />
    <glyph glyph-name="noonmedialarabic" unicode="&#x646;" horiz-adv-x="436" arabic-form="medial" 
d="M238 566l-68 -99l-96 68l67 99zM470 0h-49c-21 0 -42 14 -48 48c-7 -35 -30 -48 -66 -48h-307v267h248c-8 35 -26 66 -47 94l102 87c41 -66 61 -102 72 -181h95v-267z" />
    <glyph glyph-name="hehmedialarabic" unicode="&#x647;" horiz-adv-x="754" arabic-form="medial" 
d="M789 0h-43c-24 0 -46 18 -57 44c-7 -28 -26 -44 -65 -44h-624v267h216c-2 11 -4 22 -4 34c0 67 53 112 107 142l-33 20l117 91c92 -62 251 -167 284 -287h102v-267zM544 267c-14 26 -34 48 -57 66c0 -23 -4 -47 -18 -66h75zM410 333c0 18 -9 34 -29 34
c-31 0 -54 -50 -54 -77c0 -15 3 -38 22 -38c38 0 61 48 61 81z" />
    <glyph glyph-name="yehmedialarabic" unicode="&#x64a;" horiz-adv-x="436" arabic-form="medial" 
d="M470 0h-49c-21 0 -42 14 -48 48c-7 -35 -30 -48 -66 -48h-307v267h248c-8 35 -26 66 -47 94l102 87c41 -66 61 -102 72 -181h95v-267zM363 -157l-68 -98l-80 57l-39 -57l-96 67l67 100l81 -57l38 57z" />
    <glyph glyph-name="alefmaddaabovefinalarabic" unicode="&#x622;" horiz-adv-x="317" arabic-form="final" 
d="M351 0h-220c-39 0 -65 15 -65 57v516l187 94v-357c0 -43 15 -43 44 -43h54v-267zM284 796c-22 -19 -58 -49 -89 -49c-38 0 -55 41 -90 41c-16 0 -41 -22 -52 -32l-35 43c22 19 58 49 88 49c40 0 63 -42 89 -42c18 0 42 21 54 32z" />
    <glyph glyph-name="alefhamzaabovefinalarabic" unicode="&#x623;" horiz-adv-x="317" arabic-form="final" 
d="M351 0h-220c-39 0 -65 15 -65 57v516l187 94v-357c0 -43 15 -43 44 -43h54v-267zM269 721c0 -20 -13 -28 -32 -28h-176c-19 0 -32 8 -32 28v103h88c0 69 60 108 124 108h28v-54h-22c-37 0 -67 -14 -70 -54h92v-103z" />
    <glyph glyph-name="wawhamzaabovefinalarabic" unicode="&#x624;" horiz-adv-x="522" arabic-form="final" 
d="M345 647c0 -20 -13 -28 -32 -28h-175c-19 0 -32 8 -32 28v103h88c0 68 59 108 124 108h27v-54h-21c-37 0 -67 -14 -71 -54h92v-103zM557 0h-39c-26 0 -48 16 -58 39c-3 -23 -6 -45 -12 -67c-33 -135 -138 -201 -274 -201c-59 0 -100 16 -100 83v138h19
c73 0 133 12 179 78c-121 30 -206 131 -206 257c0 104 59 190 169 190c134 0 193 -127 216 -250h106v-267zM317 269c-3 44 -24 122 -80 122c-21 0 -38 -14 -38 -36c0 -53 75 -80 118 -86z" />
    <glyph glyph-name="alefhamzabelowfinalarabic" unicode="&#x625;" horiz-adv-x="317" arabic-form="final" 
d="M351 0h-220c-39 0 -65 15 -65 57v516l187 94v-357c0 -43 15 -43 44 -43h54v-267zM269 -299c0 -20 -13 -28 -32 -28h-176c-19 0 -32 8 -32 28v103h88c0 69 60 108 124 108h28v-54h-22c-37 0 -67 -14 -70 -54h92v-103z" />
    <glyph glyph-name="yehhamzaabovefinalarabic" unicode="&#x626;" horiz-adv-x="691" arabic-form="final" 
d="M269 375c0 -20 -13 -28 -32 -28h-176c-19 0 -32 8 -32 28v103h88c0 69 60 108 124 108h28v-54h-22c-37 0 -67 -14 -70 -54h92v-103zM725 0h-103c-33 -130 -123 -230 -264 -230c-194 0 -291 185 -291 359c0 19 1 37 2 55l106 63c-2 -17 -4 -34 -4 -51
c0 -99 39 -199 154 -199c36 0 63 15 91 45c-82 26 -106 82 -106 161v64h415v-267z" />
    <glyph glyph-name="aleffinalarabic" unicode="&#x627;" horiz-adv-x="317" arabic-form="final" 
d="M351 0h-220c-39 0 -65 15 -65 57v516l187 94v-357c0 -43 15 -43 44 -43h54v-267z" />
    <glyph glyph-name="behfinalarabic" unicode="&#x628;" horiz-adv-x="882" arabic-form="final" 
d="M916 0h-49c-21 0 -42 14 -48 48c-7 -35 -29 -48 -66 -48h-622c-39 0 -65 15 -65 57v291c53 -65 89 -81 173 -81h455c-7 35 -25 66 -47 94l102 87c42 -66 61 -102 72 -181h95v-267zM555 -156l-68 -99l-97 67l68 100z" />
    <glyph glyph-name="tehmarbutafinalarabic" unicode="&#x629;" horiz-adv-x="538" arabic-form="final" 
d="M437 732l-67 -98l-81 57l-39 -57l-96 68l67 99l81 -57l38 57zM572 0h-37c-33 0 -55 11 -67 50c-6 -32 -24 -50 -66 -50h-271c-39 0 -65 15 -65 57v172c0 26 6 51 20 73c30 43 109 97 151 132l-26 30l121 93c47 -59 120 -159 134 -235c3 -18 4 -37 4 -55h102v-267z
M324 282c0 10 -19 48 -25 60c-9 -7 -78 -55 -84 -75h78c10 0 31 1 31 15z" />
    <glyph glyph-name="tehfinalarabic" unicode="&#x62a;" horiz-adv-x="882" arabic-form="final" 
d="M542 504l-67 -97l-80 56l-39 -56l-97 67l68 100l81 -57l38 57zM916 0h-49c-21 0 -42 14 -48 48c-7 -35 -29 -48 -66 -48h-622c-39 0 -65 15 -65 57v291c53 -65 89 -81 173 -81h455c-7 35 -25 66 -47 94l102 87c42 -66 61 -102 72 -181h95v-267z" />
    <glyph glyph-name="thehfinalarabic" unicode="&#x62b;" horiz-adv-x="882" arabic-form="final" 
d="M450 631l-50 -72l-69 49l48 72zM542 504l-67 -97l-80 56l-39 -56l-97 67l68 100l81 -57l38 57zM916 0h-49c-21 0 -42 14 -48 48c-7 -35 -29 -48 -66 -48h-622c-39 0 -65 15 -65 57v291c53 -65 89 -81 173 -81h455c-7 35 -25 66 -47 94l102 87c42 -66 61 -102 72 -181h95
v-267z" />
    <glyph glyph-name="jeemfinalarabic" unicode="&#x62c;" horiz-adv-x="665" arabic-form="final" 
d="M456 147l-50 -72l-70 50l49 71zM699 0h-73c-97 0 -126 79 -126 162v196c-109 -38 -212 -125 -212 -250c0 -113 81 -160 185 -160c30 0 60 3 90 11l-104 -199c-18 -36 -74 -40 -109 -40c-175 0 -283 110 -283 284c0 148 65 266 179 358c-60 -7 -126 -19 -180 -46v167h556
v-109h-37v-41c0 -51 29 -66 75 -66h39v-267z" />
    <glyph glyph-name="hahfinalarabic" unicode="&#x62d;" horiz-adv-x="665" arabic-form="final" 
d="M699 0h-73c-97 0 -126 79 -126 162v196c-109 -38 -212 -125 -212 -250c0 -113 81 -160 185 -160c30 0 60 3 90 11l-104 -199c-18 -36 -74 -40 -109 -40c-175 0 -283 110 -283 284c0 148 65 266 179 358c-60 -7 -126 -19 -180 -46v167h556v-109h-37v-41
c0 -51 29 -66 75 -66h39v-267z" />
    <glyph glyph-name="khahfinalarabic" unicode="&#x62e;" horiz-adv-x="665" arabic-form="final" 
d="M423 668l-68 -99l-96 68l67 99zM699 0h-73c-97 0 -126 79 -126 162v196c-109 -38 -212 -125 -212 -250c0 -113 81 -160 185 -160c30 0 60 3 90 11l-104 -199c-18 -36 -74 -40 -109 -40c-175 0 -283 110 -283 284c0 148 65 266 179 358c-60 -7 -126 -19 -180 -46v167h556
v-109h-37v-41c0 -51 29 -66 75 -66h39v-267z" />
    <glyph glyph-name="dalfinalarabic" unicode="&#x62f;" horiz-adv-x="469" arabic-form="final" 
d="M503 0h-44c-29 0 -49 14 -56 48c-6 -35 -32 -48 -66 -48h-206c-39 0 -65 15 -65 57v210h212c-7 47 -34 90 -67 124l103 87c51 -61 84 -132 91 -211h98v-267z" />
    <glyph glyph-name="thalfinalarabic" unicode="&#x630;" horiz-adv-x="469" arabic-form="final" 
d="M503 0h-44c-29 0 -49 14 -56 48c-6 -35 -32 -48 -66 -48h-206c-39 0 -65 15 -65 57v210h212c-7 47 -34 90 -67 124l103 87c51 -61 84 -132 91 -211h98v-267zM325 614l-68 -99l-96 68l67 99z" />
    <glyph glyph-name="rehfinalarabic" unicode="&#x631;" horiz-adv-x="379" arabic-form="final" 
d="M413 0h-37c-23 0 -44 12 -52 39c-9 -153 -109 -260 -270 -260c-59 0 -101 17 -101 84v137c116 0 213 31 213 166c0 83 -42 162 -89 229l109 90c51 -68 87 -141 110 -218h117v-267z" />
    <glyph glyph-name="zainfinalarabic" unicode="&#x632;" horiz-adv-x="379" arabic-form="final" 
d="M413 0h-37c-23 0 -44 12 -52 39c-9 -153 -109 -260 -270 -260c-59 0 -101 17 -101 84v137c116 0 213 31 213 166c0 83 -42 162 -89 229l109 90c51 -68 87 -141 110 -218h117v-267zM186 597l-68 -99l-97 68l67 99z" />
    <glyph glyph-name="seenfinalarabic" unicode="&#x633;" horiz-adv-x="1216" arabic-form="final" 
d="M1250 0h-37c-34 0 -57 14 -63 48c-7 -35 -32 -48 -66 -48h-141c-33 0 -59 14 -66 48c-6 -35 -31 -48 -65 -48h-193c-38 -132 -115 -230 -262 -230c-194 0 -291 186 -291 359c0 19 1 37 2 55l106 63c-2 -17 -4 -34 -4 -51c0 -94 38 -196 148 -196c106 0 154 85 154 182
c0 47 -14 93 -36 133l104 94c28 -43 46 -92 59 -142h164c-8 24 -20 46 -35 66l87 76c27 -44 49 -92 62 -142h147c-6 35 -24 66 -46 94l102 87c42 -67 61 -102 72 -181h98v-267z" />
    <glyph glyph-name="sheenfinalarabic" unicode="&#x634;" horiz-adv-x="1216" arabic-form="final" 
d="M808 722l-49 -72l-70 49l49 72zM901 596l-68 -98l-80 57l-39 -57l-96 67l67 100l81 -57l38 57zM1250 0h-37c-34 0 -57 14 -63 48c-7 -35 -32 -48 -66 -48h-141c-33 0 -59 14 -66 48c-6 -35 -31 -48 -65 -48h-193c-38 -132 -115 -230 -262 -230c-194 0 -291 186 -291 359
c0 19 1 37 2 55l106 63c-2 -17 -4 -34 -4 -51c0 -94 38 -196 148 -196c106 0 154 85 154 182c0 47 -14 93 -36 133l104 94c28 -43 46 -92 59 -142h164c-8 24 -20 46 -35 66l87 76c27 -44 49 -92 62 -142h147c-6 35 -24 66 -46 94l102 87c42 -67 61 -102 72 -181h98v-267z
" />
    <glyph glyph-name="sadfinalarabic" unicode="&#x635;" horiz-adv-x="1112" arabic-form="final" 
d="M1146 0h-40c-28 0 -55 14 -61 48c-7 -35 -33 -48 -66 -48h-360c-38 -132 -115 -230 -262 -230c-194 0 -291 186 -291 359c0 19 1 37 2 55l106 63c-2 -17 -4 -34 -4 -51c0 -94 38 -196 148 -196c106 0 154 85 154 182c0 47 -14 93 -36 133l104 94c24 -33 54 -105 59 -142
c76 88 174 220 302 220c125 0 144 -129 144 -200v-20h101v-267zM909 267v11c0 41 -12 79 -60 79c-51 0 -96 -55 -125 -90h185z" />
    <glyph glyph-name="dadfinalarabic" unicode="&#x636;" horiz-adv-x="1112" arabic-form="final" 
d="M783 618l-68 -99l-96 67l67 100zM1146 0h-40c-28 0 -55 14 -61 48c-7 -35 -33 -48 -66 -48h-360c-38 -132 -115 -230 -262 -230c-194 0 -291 186 -291 359c0 19 1 37 2 55l106 63c-2 -17 -4 -34 -4 -51c0 -94 38 -196 148 -196c106 0 154 85 154 182c0 47 -14 93 -36 133
l104 94c24 -33 54 -105 59 -142c76 88 174 220 302 220c125 0 144 -129 144 -200v-20h101v-267zM909 267v11c0 41 -12 79 -60 79c-51 0 -96 -55 -125 -90h185z" />
    <glyph glyph-name="tahfinalarabic" unicode="&#x637;" horiz-adv-x="956" arabic-form="final" 
d="M990 0h-36c-33 0 -58 15 -65 50c-5 -32 -24 -50 -66 -50h-692c-38 0 -65 15 -65 57v210h230v152c-15 19 -34 43 -34 68c0 23 11 42 27 58c46 46 125 90 179 125c-2 -10 -3 -20 -3 -29c0 -71 71 -125 71 -158c0 -26 -33 -50 -52 -64v-105c68 77 151 173 263 173
c113 0 145 -106 145 -200v-20h98v-267zM754 267v22c0 36 -20 68 -60 68c-50 0 -95 -55 -124 -90h184z" />
    <glyph glyph-name="zahfinalarabic" unicode="&#x638;" horiz-adv-x="956" arabic-form="final" 
d="M764 677l-68 -99l-96 68l67 99zM990 0h-36c-33 0 -58 15 -65 50c-5 -32 -24 -50 -66 -50h-692c-38 0 -65 15 -65 57v210h230v152c-15 19 -34 43 -34 68c0 23 11 42 27 58c46 46 125 90 179 125c-2 -10 -3 -20 -3 -29c0 -71 71 -125 71 -158c0 -26 -33 -50 -52 -64v-105
c68 77 151 173 263 173c113 0 145 -106 145 -200v-20h98v-267zM754 267v22c0 36 -20 68 -60 68c-50 0 -95 -55 -124 -90h184z" />
    <glyph glyph-name="ainfinalarabic" unicode="&#x639;" horiz-adv-x="563" arabic-form="final" 
d="M598 0h-73c-29 0 -61 0 -83 42l-73 139c-40 -29 -78 -69 -78 -121c0 -99 100 -140 184 -140c31 0 61 4 90 12l-90 -177c-26 -50 -47 -63 -120 -63c-165 0 -289 107 -289 276c0 148 105 248 229 308c-55 70 -113 67 -193 66l58 132c59 25 123 44 188 44
c84 0 167 -37 167 -133c0 -44 -30 -86 -57 -118h140v-267z" />
    <glyph glyph-name="ghainfinalarabic" unicode="&#x63a;" horiz-adv-x="563" arabic-form="final" 
d="M437 676l-68 -99l-97 68l67 99zM598 0h-73c-29 0 -61 0 -83 42l-73 139c-40 -29 -78 -69 -78 -121c0 -99 100 -140 184 -140c31 0 61 4 90 12l-90 -177c-26 -50 -47 -63 -120 -63c-165 0 -289 107 -289 276c0 148 105 248 229 308c-55 70 -113 67 -193 66l58 132
c59 25 123 44 188 44c84 0 167 -37 167 -133c0 -44 -30 -86 -57 -118h140v-267z" />
    <glyph glyph-name="fehfinalarabic" unicode="&#x641;" horiz-adv-x="1003" arabic-form="final" 
d="M796 688l-67 -99l-97 68l67 99zM1037 0h-38c-29 0 -55 16 -62 49c-6 -31 -25 -49 -66 -49h-740c-39 0 -65 15 -65 57v291c53 -65 89 -81 173 -81h371c-23 26 -41 58 -41 93c0 92 84 155 171 155c135 0 194 -132 199 -248h98v-267zM816 269c-4 44 -24 122 -80 122
c-21 0 -38 -14 -38 -36c0 -53 75 -80 118 -86z" />
    <glyph glyph-name="qaffinalarabic" unicode="&#x642;" horiz-adv-x="687" arabic-form="final" 
d="M546 669l-67 -97l-81 56l-38 -56l-97 67l68 100l81 -57l38 57zM721 0h-39c-30 0 -49 20 -55 50c-20 -146 -99 -280 -270 -280c-194 0 -291 185 -291 359c0 19 1 37 2 55l106 63c-2 -17 -4 -34 -4 -51c0 -96 43 -200 154 -200c54 0 93 26 118 73
c-121 33 -208 129 -208 258c0 106 61 191 173 191c132 0 191 -128 214 -251h100v-267zM485 269c-3 44 -23 122 -79 122c-21 0 -38 -14 -38 -36c0 -53 74 -80 117 -86z" />
    <glyph glyph-name="kaffinalarabic" unicode="&#x643;" horiz-adv-x="883" arabic-form="final" 
d="M478 446c0 -20 -13 -28 -32 -28h-176c-19 0 -32 8 -32 28v102h88c0 69 60 109 124 109h28v-54h-22c-37 0 -67 -14 -70 -55h92v-102zM917 0h-39c-29 0 -54 14 -61 48c-6 -35 -31 -48 -65 -48h-621c-39 0 -65 15 -65 57v291c53 -65 89 -81 173 -81h394v306l187 94v-400h97
v-267z" />
    <glyph glyph-name="lamfinalarabic" unicode="&#x644;" horiz-adv-x="703" arabic-form="final" 
d="M737 0h-40c-30 0 -54 14 -61 48c-25 -153 -110 -278 -281 -278c-193 0 -289 187 -289 359c0 18 1 37 2 55l106 63c-2 -17 -4 -34 -4 -51c0 -89 36 -196 142 -196c71 0 123 47 135 116c4 30 4 62 4 92v365l188 94v-400h98v-267z" />
    <glyph glyph-name="meemfinalarabic" unicode="&#x645;" horiz-adv-x="581" arabic-form="final" 
d="M615 0h-37c-34 0 -60 13 -66 48c-7 -28 -15 -101 -57 -101c-70 0 -138 55 -210 55c-36 0 -36 -35 -36 -62c0 -51 6 -104 10 -154l-128 -119s-24 499 -24 510c0 89 82 57 125 95c53 46 83 205 184 205c85 0 141 -146 164 -210h75v-267zM413 216c-2 30 -15 109 -55 109
c-27 0 -45 -64 -76 -86c8 1 16 2 25 2c34 0 74 -13 106 -25z" />
    <glyph glyph-name="noonfinalarabic" unicode="&#x646;" horiz-adv-x="693" arabic-form="final" 
d="M369 457l-68 -99l-96 67l67 100zM728 0h-40c-31 0 -50 20 -60 47c-18 -148 -112 -277 -272 -277c-194 0 -290 186 -290 359c0 19 1 37 2 55l106 63c-2 -17 -4 -34 -4 -51c0 -93 37 -196 147 -196c106 0 149 81 149 177c0 55 -14 109 -40 158l114 88
c32 -48 55 -101 70 -156h118v-267z" />
    <glyph glyph-name="hehfinalarabic" unicode="&#x647;" horiz-adv-x="534" arabic-form="final" 
d="M568 0h-42c-30 0 -51 14 -58 48c-6 -35 -32 -48 -66 -48h-271c-39 0 -65 15 -65 57v172c0 97 106 149 171 205l-26 30l120 93c69 -83 140 -178 140 -290h97v-267zM324 282c0 10 -14 46 -25 60c-9 -7 -78 -55 -84 -75h78c10 0 31 1 31 15z" />
    <glyph glyph-name="wawfinalarabic" unicode="&#x648;" horiz-adv-x="522" arabic-form="final" 
d="M557 0h-39c-26 0 -48 16 -58 39c-3 -23 -6 -45 -12 -67c-33 -135 -138 -201 -274 -201c-59 0 -100 16 -100 83v138h19c73 0 133 12 179 78c-121 30 -206 131 -206 257c0 104 59 190 169 190c134 0 193 -127 216 -250h106v-267zM317 269c-3 44 -24 122 -80 122
c-21 0 -38 -14 -38 -36c0 -53 75 -80 118 -86z" />
    <glyph glyph-name="alefmaksurafinalarabic" unicode="&#x649;" horiz-adv-x="691" arabic-form="final" 
d="M725 0h-103c-33 -130 -123 -230 -264 -230c-194 0 -291 185 -291 359c0 19 1 37 2 55l106 63c-2 -17 -4 -34 -4 -51c0 -99 39 -199 154 -199c36 0 63 15 91 45c-82 26 -106 82 -106 161v64h415v-267z" />
    <glyph glyph-name="yehfinalarabic" unicode="&#x64a;" horiz-adv-x="691" arabic-form="final" 
d="M725 0h-103c-33 -130 -123 -230 -264 -230c-194 0 -291 185 -291 359c0 19 1 37 2 55l106 63c-2 -17 -4 -34 -4 -51c0 -99 39 -199 154 -199c36 0 63 15 91 45c-82 26 -106 82 -106 161v64h415v-267zM496 -361l-68 -98l-80 57l-39 -57l-97 67l68 100l81 -57l38 57z" />
    <glyph glyph-name="yehhamzaaboveinitialarabic" unicode="&#x626;" horiz-adv-x="441" arabic-form="initial" 
d="M285 564c0 -20 -13 -28 -32 -28h-176c-19 0 -32 8 -32 28v103h88c0 68 60 108 124 108h28v-54h-22c-37 0 -67 -14 -70 -54h92v-103zM375 78c0 -49 -15 -78 -69 -78h-306v267h246c-6 35 -26 66 -47 94l102 87c55 -87 74 -131 74 -236v-134z" />
    <glyph glyph-name="dadinitialarabic" unicode="&#x636;" horiz-adv-x="835" arabic-form="initial" 
d="M508 618l-68 -99l-96 67l67 100zM768 78c0 -49 -15 -78 -68 -78h-700v267h239c-8 24 -21 46 -36 66l88 76c22 -36 42 -74 54 -115c70 83 161 193 279 193c114 0 144 -105 144 -200v-209zM631 267v22c0 36 -20 68 -60 68c-50 0 -95 -55 -124 -90h184z" />
    <glyph glyph-name="alefmaksurainitialarabic" unicode="&#x6cc;" horiz-adv-x="441" arabic-form="initial" 
d="M375 78c0 -49 -15 -78 -69 -78h-306v267h246c-6 35 -26 66 -47 94l102 87c55 -87 74 -131 74 -236v-134zM363 -157l-68 -98l-80 57l-39 -57l-96 67l67 100l81 -57l38 57z" />
    <glyph glyph-name="alefmaksuramedialarabic" unicode="&#x6cc;" horiz-adv-x="436" arabic-form="medial" 
d="M470 0h-49c-21 0 -42 14 -48 48c-7 -35 -30 -48 -66 -48h-307v267h248c-8 35 -26 66 -47 94l102 87c41 -66 61 -102 72 -181h95v-267zM363 -157l-68 -98l-80 57l-39 -57l-96 67l67 100l81 -57l38 57z" />
    <glyph glyph-name="sadinitialarabic" unicode="&#x635;" horiz-adv-x="835" arabic-form="initial" 
d="M768 78c0 -49 -15 -78 -68 -78h-700v267h239c-8 24 -21 46 -36 66l88 76c22 -36 42 -74 54 -115c70 83 161 193 279 193c114 0 144 -105 144 -200v-209zM631 267v22c0 36 -20 68 -60 68c-50 0 -95 -55 -124 -90h184z" />
    <glyph glyph-name="pehinitialarabic" unicode="&#x67e;" horiz-adv-x="441" arabic-form="initial" 
d="M375 78c0 -49 -15 -78 -69 -78h-306v267h246c-6 35 -26 66 -47 94l102 87c55 -87 74 -131 74 -236v-134zM363 -157l-68 -98l-80 57l-39 -57l-96 67l67 100l81 -57l38 57zM294 -290l-49 -72l-70 49l49 72z" />
    <glyph glyph-name="vehinitialarabic" unicode="&#x6a4;" horiz-adv-x="639" arabic-form="initial" 
d="M572 78c0 -49 -15 -78 -68 -78h-504v267h243c-23 26 -41 58 -41 93c0 92 84 155 172 155c140 0 198 -142 198 -263v-174zM449 269c-3 44 -24 122 -80 122c-21 0 -38 -14 -38 -36c0 -53 75 -80 118 -86zM417 813l-50 -72l-70 49l49 72zM509 687l-67 -98l-81 57l-38 -57
l-97 67l67 100l82 -57l38 57z" />
    <glyph glyph-name="vehmedialarabic" unicode="&#x6a4;" horiz-adv-x="636" arabic-form="medial" 
d="M670 0h-38c-29 0 -55 16 -62 49c-6 -31 -24 -49 -66 -49h-504v267h243c-23 26 -41 58 -41 93c0 92 84 155 172 155c134 0 194 -132 198 -248h98v-267zM449 269c-3 44 -24 122 -80 122c-21 0 -38 -14 -38 -36c0 -53 75 -80 118 -86zM417 813l-50 -72l-70 49l49 72z
M509 687l-67 -98l-81 57l-38 -57l-97 67l67 100l82 -57l38 57z" />
    <glyph glyph-name="vehfinalarabic" unicode="&#x6a4;" horiz-adv-x="1003" arabic-form="final" 
d="M1037 0h-38c-29 0 -55 16 -62 49c-6 -31 -25 -49 -66 -49h-740c-39 0 -65 15 -65 57v291c53 -65 89 -81 173 -81h371c-23 26 -41 58 -41 93c0 92 84 155 171 155c135 0 194 -132 199 -248h98v-267zM816 269c-4 44 -24 122 -80 122c-21 0 -38 -14 -38 -36
c0 -53 75 -80 118 -86zM783 813l-49 -72l-70 49l49 72zM876 687l-67 -98l-81 57l-39 -57l-96 67l67 100l81 -57l38 57z" />
    <glyph glyph-name="jehfinalarabic" unicode="&#x698;" horiz-adv-x="379" arabic-form="final" 
d="M413 0h-37c-23 0 -44 12 -52 39c-9 -153 -109 -260 -270 -260c-59 0 -101 17 -101 84v137c116 0 213 31 213 166c0 83 -42 162 -89 229l109 90c51 -68 87 -141 110 -218h117v-267zM135 754l-50 -71l-69 48l48 73zM228 628l-68 -98l-80 57l-39 -57l-97 68l68 99l81 -57
l38 57z" />
    <glyph glyph-name="hamzaarabic" unicode="&#x621;" horiz-adv-x="672" arabic-form="isolated" 
d="M604 78c0 -49 -14 -78 -68 -78h-405c-39 0 -65 15 -65 57v210h229c0 144 125 226 258 226h51v-116c-14 0 -29 1 -43 1c-76 0 -138 -29 -144 -111h187v-189z" />
    <glyph glyph-name="alefarabic" unicode="&#x627;" horiz-adv-x="321" arabic-form="isolated" 
d="M253 0h-122c-39 0 -65 15 -65 57v516l187 94v-667z" />
    <glyph glyph-name="beharabic" unicode="&#x628;" horiz-adv-x="887" arabic-form="isolated" 
d="M819 78c0 -49 -15 -78 -68 -78h-620c-39 0 -65 15 -65 57v291c53 -65 89 -81 173 -81h451c-5 35 -25 66 -46 94l102 87c55 -88 73 -130 73 -236v-134zM555 -156l-68 -99l-97 67l68 100z" />
    <glyph glyph-name="tehmarbutaarabic" unicode="&#x629;" horiz-adv-x="538" arabic-form="isolated" 
d="M437 732l-67 -98l-81 57l-39 -57l-96 68l67 99l81 -57l38 57zM470 78c0 -49 -15 -78 -68 -78h-271c-39 0 -65 15 -65 57v172c0 26 6 51 20 73c30 43 109 97 151 132l-26 30l121 93c47 -59 120 -159 134 -235c4 -23 4 -47 4 -70v-174zM324 282c0 10 -19 48 -25 60
c-9 -7 -78 -55 -84 -75h78c10 0 31 1 31 15z" />
    <glyph glyph-name="teharabic" unicode="&#x62a;" horiz-adv-x="887" arabic-form="isolated" 
d="M542 504l-67 -97l-80 56l-39 -56l-97 67l68 100l81 -57l38 57zM819 78c0 -49 -15 -78 -68 -78h-620c-39 0 -65 15 -65 57v291c53 -65 89 -81 173 -81h451c-5 35 -25 66 -46 94l102 87c55 -88 73 -130 73 -236v-134z" />
    <glyph glyph-name="theharabic" unicode="&#x62b;" horiz-adv-x="887" arabic-form="isolated" 
d="M450 631l-50 -72l-69 49l48 72zM542 504l-67 -97l-80 56l-39 -56l-97 67l68 100l81 -57l38 57zM819 78c0 -49 -15 -78 -68 -78h-620c-39 0 -65 15 -65 57v291c53 -65 89 -81 173 -81h451c-5 35 -25 66 -46 94l102 87c55 -88 73 -130 73 -236v-134z" />
    <glyph glyph-name="jeemarabic" unicode="&#x62c;" horiz-adv-x="740" arabic-form="isolated" 
d="M514 191l-50 -72l-69 49l48 72zM622 374h-37c-100 0 -297 -94 -297 -266c0 -113 81 -160 185 -160c30 0 60 3 90 11l-104 -199c-18 -36 -74 -40 -109 -40c-175 0 -283 110 -283 284c0 148 65 266 179 358c-60 -7 -126 -19 -180 -46v167h556v-109z" />
    <glyph glyph-name="haharabic" unicode="&#x62d;" horiz-adv-x="740" arabic-form="isolated" 
d="M622 374h-37c-100 0 -297 -94 -297 -266c0 -113 81 -160 185 -160c30 0 60 3 90 11l-104 -199c-18 -36 -74 -40 -109 -40c-175 0 -283 110 -283 284c0 148 65 266 179 358c-60 -7 -126 -19 -180 -46v167h556v-109z" />
    <glyph glyph-name="khaharabic" unicode="&#x62e;" horiz-adv-x="740" arabic-form="isolated" 
d="M423 668l-68 -99l-96 68l67 99zM622 374h-37c-100 0 -297 -94 -297 -266c0 -113 81 -160 185 -160c30 0 60 3 90 11l-104 -199c-18 -36 -74 -40 -109 -40c-175 0 -283 110 -283 284c0 148 65 266 179 358c-60 -7 -126 -19 -180 -46v167h556v-109z" />
    <glyph glyph-name="dalarabic" unicode="&#x62f;" horiz-adv-x="476" arabic-form="isolated" 
d="M408 78c0 -49 -15 -78 -69 -78h-208c-39 0 -65 15 -65 57v210h213c-8 47 -35 90 -68 124l103 87c70 -83 94 -158 94 -266v-134z" />
    <glyph glyph-name="thalarabic" unicode="&#x630;" horiz-adv-x="476" arabic-form="isolated" 
d="M325 614l-68 -99l-96 68l67 99zM408 78c0 -49 -15 -78 -69 -78h-208c-39 0 -65 15 -65 57v210h213c-8 47 -35 90 -68 124l103 87c70 -83 94 -158 94 -266v-134z" />
    <glyph glyph-name="reharabic" unicode="&#x631;" horiz-adv-x="389" arabic-form="isolated" 
d="M324 60c0 -164 -102 -281 -270 -281c-59 0 -101 17 -101 84v137c116 0 213 31 213 166c0 83 -42 162 -89 229l109 90c94 -125 138 -269 138 -425z" />
    <glyph glyph-name="zainarabic" unicode="&#x632;" horiz-adv-x="389" arabic-form="isolated" 
d="M186 597l-68 -99l-97 68l67 99zM324 60c0 -164 -102 -281 -270 -281c-59 0 -101 17 -101 84v137c116 0 213 31 213 166c0 83 -42 162 -89 229l109 90c94 -125 138 -269 138 -425z" />
    <glyph glyph-name="seenarabic" unicode="&#x633;" horiz-adv-x="1222" arabic-form="isolated" 
d="M1154 78c0 -49 -15 -78 -68 -78h-143c-33 0 -59 14 -66 48c-6 -35 -31 -48 -65 -48h-193c-38 -132 -114 -230 -262 -230c-194 0 -291 186 -291 359c0 19 1 37 2 55l106 63c-2 -17 -4 -34 -4 -51c0 -94 38 -196 148 -196c106 0 154 85 154 182c0 47 -14 93 -36 133l104 94
c28 -43 47 -92 59 -142h164c-8 24 -20 46 -35 66l87 76c28 -44 49 -92 62 -142h148c-6 35 -25 66 -46 94l102 87c54 -87 73 -131 73 -236v-134z" />
    <glyph glyph-name="sheenarabic" unicode="&#x634;" horiz-adv-x="1222" arabic-form="isolated" 
d="M808 722l-49 -72l-70 49l49 72zM901 596l-68 -98l-80 57l-39 -57l-96 67l67 100l81 -57l38 57zM1154 78c0 -49 -15 -78 -68 -78h-143c-33 0 -59 14 -66 48c-6 -35 -31 -48 -65 -48h-193c-38 -132 -114 -230 -262 -230c-194 0 -291 186 -291 359c0 19 1 37 2 55l106 63
c-2 -17 -4 -34 -4 -51c0 -94 38 -196 148 -196c106 0 154 85 154 182c0 47 -14 93 -36 133l104 94c28 -43 47 -92 59 -142h164c-8 24 -20 46 -35 66l87 76c28 -44 49 -92 62 -142h148c-6 35 -25 66 -46 94l102 87c54 -87 73 -131 73 -236v-134z" />
    <glyph glyph-name="sadarabic" unicode="&#x635;" horiz-adv-x="1112" arabic-form="isolated" 
d="M1046 78c0 -49 -15 -78 -68 -78h-358c-38 -132 -115 -230 -263 -230c-194 0 -291 185 -291 359c0 19 1 37 2 55l106 63c-2 -17 -4 -34 -4 -51c0 -94 38 -196 148 -196c106 0 154 85 154 182c0 47 -14 93 -36 133l104 94c28 -43 47 -92 60 -142c74 89 173 220 301 220
c113 0 145 -107 145 -200v-209zM909 267v22c0 36 -21 69 -60 69c-50 0 -96 -57 -124 -91h184z" />
    <glyph glyph-name="dadarabic" unicode="&#x636;" horiz-adv-x="1112" arabic-form="isolated" 
d="M783 618l-68 -99l-96 67l67 100zM1046 78c0 -49 -15 -78 -68 -78h-358c-38 -132 -115 -230 -263 -230c-194 0 -291 185 -291 359c0 19 1 37 2 55l106 63c-2 -17 -4 -34 -4 -51c0 -94 38 -196 148 -196c106 0 154 85 154 182c0 47 -14 93 -36 133l104 94
c28 -43 47 -92 60 -142c74 89 173 220 301 220c113 0 145 -107 145 -200v-209zM909 267v22c0 36 -21 69 -60 69c-50 0 -96 -57 -124 -91h184z" />
    <glyph glyph-name="taharabic" unicode="&#x637;" horiz-adv-x="960" arabic-form="isolated" 
d="M892 67c0 -33 -17 -67 -69 -67h-692c-38 0 -65 15 -65 57v210h230v152c-15 19 -34 43 -34 68c0 23 11 42 27 58c46 46 125 90 179 125c-2 -10 -3 -20 -3 -29c0 -71 71 -125 71 -158c0 -26 -33 -50 -52 -64v-105c68 77 151 173 263 173c113 0 145 -106 145 -200v-220z
M754 267v22c0 36 -20 68 -60 68c-50 0 -95 -55 -124 -90h184z" />
    <glyph glyph-name="zaharabic" unicode="&#x638;" horiz-adv-x="960" arabic-form="isolated" 
d="M764 677l-68 -99l-96 68l67 99zM892 67c0 -33 -17 -67 -69 -67h-692c-38 0 -65 15 -65 57v210h230v152c-15 19 -34 43 -34 68c0 23 11 42 27 58c46 46 125 90 179 125c-2 -10 -3 -20 -3 -29c0 -71 71 -125 71 -158c0 -26 -33 -50 -52 -64v-105c68 77 151 173 263 173
c113 0 145 -106 145 -200v-220zM754 267v22c0 36 -20 68 -60 68c-50 0 -95 -55 -124 -90h184z" />
    <glyph glyph-name="ainarabic" unicode="&#x639;" horiz-adv-x="633" arabic-form="isolated" 
d="M565 -68l-83 -163c-32 -64 -55 -77 -127 -77c-164 0 -289 106 -289 275c0 81 26 135 80 194c-41 28 -68 66 -68 117c0 148 138 215 268 215h43v-113h-43c-41 0 -127 -10 -127 -66c0 -38 31 -47 64 -47h226l-41 -112h-49c-66 0 -126 -35 -126 -108
c0 -98 104 -127 184 -127c30 0 60 4 88 12z" />
    <glyph glyph-name="ghainarabic" unicode="&#x63a;" horiz-adv-x="633" arabic-form="isolated" 
d="M360 666l-68 -100l-96 68l67 99zM565 -68l-83 -163c-32 -64 -55 -77 -127 -77c-164 0 -289 106 -289 275c0 81 26 135 80 194c-41 28 -68 66 -68 117c0 148 138 215 268 215h43v-113h-43c-41 0 -127 -10 -127 -66c0 -38 31 -47 64 -47h226l-41 -112h-49
c-66 0 -126 -35 -126 -108c0 -98 104 -127 184 -127c30 0 60 4 88 12z" />
    <glyph glyph-name="feharabic" unicode="&#x641;" horiz-adv-x="1006" arabic-form="isolated" 
d="M796 688l-67 -99l-97 68l67 99zM939 78c0 -49 -14 -78 -68 -78h-740c-39 0 -65 15 -65 57v291c53 -65 89 -81 173 -81h371c-23 26 -41 58 -41 93c0 92 85 155 172 155c140 0 198 -142 198 -263v-174zM816 269c-3 44 -23 122 -80 122c-21 0 -38 -14 -38 -36
c0 -53 75 -80 118 -86z" />
    <glyph glyph-name="qafarabic" unicode="&#x642;" horiz-adv-x="701" arabic-form="isolated" 
d="M633 131c0 -173 -74 -361 -276 -361c-194 0 -291 185 -291 359c0 19 1 37 2 55l106 63c-2 -17 -4 -34 -4 -51c0 -96 43 -200 154 -200c54 0 93 26 118 73c-121 33 -208 129 -208 258c0 106 61 191 173 191c183 0 226 -247 226 -387zM485 269c-3 44 -23 122 -79 122
c-21 0 -38 -14 -38 -36c0 -53 74 -80 117 -86zM546 669l-67 -97l-81 56l-38 -56l-97 67l68 100l81 -57l38 57z" />
    <glyph glyph-name="kafarabic" unicode="&#x643;" horiz-adv-x="938" arabic-form="isolated" 
d="M478 446c0 -20 -13 -28 -32 -28h-176c-19 0 -32 8 -32 28v102h88c0 69 60 109 124 109h28v-54h-22c-37 0 -67 -14 -70 -55h92v-102zM871 491c0 -26 -33 -51 -52 -64v-349c0 -49 -16 -78 -69 -78h-619c-39 0 -65 15 -65 57v291c53 -65 89 -81 173 -81h391v159
c-13 18 -32 46 -32 69s10 42 26 58c45 46 125 90 178 124c-1 -9 -3 -19 -3 -29c0 -70 72 -124 72 -157z" />
    <glyph glyph-name="lamarabic" unicode="&#x644;" horiz-adv-x="759" arabic-form="isolated" 
d="M691 495c0 -27 -33 -51 -52 -65v-329c0 -171 -97 -331 -284 -331c-193 0 -289 187 -289 359c0 19 1 37 2 55l106 63c-2 -17 -4 -34 -4 -51c0 -89 36 -196 142 -196c71 0 123 46 135 116c4 30 4 62 4 92v221c-14 18 -33 46 -33 70c0 23 10 41 26 57c41 42 130 93 179 125
c-2 -10 -4 -20 -4 -30c0 -70 72 -123 72 -156z" />
    <glyph glyph-name="meemarabic" unicode="&#x645;" horiz-adv-x="621" arabic-form="isolated" 
d="M553 199c0 -12 -4 -25 -8 -36l-48 -166c-8 -28 -13 -49 -46 -49c-67 0 -134 54 -206 54c-36 0 -36 -35 -36 -62c0 -51 6 -104 10 -154l-128 -119s-24 499 -24 510c0 89 82 57 125 95c53 46 83 207 184 207c89 0 177 -204 177 -280zM413 216c-2 30 -15 109 -55 109
c-27 0 -45 -64 -76 -86c8 1 16 2 25 2c34 0 74 -13 106 -25z" />
    <glyph glyph-name="noonarabic" unicode="&#x646;" horiz-adv-x="703" arabic-form="isolated" 
d="M369 457l-68 -99l-96 67l67 100zM635 103c0 -164 -99 -333 -279 -333c-194 0 -290 186 -290 359c0 19 1 37 2 55l106 63c-2 -17 -4 -34 -4 -51c0 -93 37 -196 147 -196c106 0 149 81 149 177c0 55 -14 109 -40 158l114 88c63 -92 95 -209 95 -320z" />
    <glyph glyph-name="heharabic" unicode="&#x647;" horiz-adv-x="538" arabic-form="isolated" 
d="M469 75c0 -60 -33 -75 -67 -75h-271c-39 0 -65 15 -65 57v172c0 97 106 149 171 205l-26 30l120 93c78 -97 138 -179 138 -305v-177zM324 282c0 10 -14 46 -25 60c-9 -7 -78 -55 -84 -75h78c10 0 31 1 31 15z" />
    <glyph glyph-name="wawarabic" unicode="&#x648;" horiz-adv-x="531" arabic-form="isolated" 
d="M463 134c0 -54 -1 -110 -15 -162c-33 -135 -138 -201 -274 -201c-59 0 -100 16 -100 83v138h19c73 0 133 12 179 78c-121 30 -206 131 -206 257c0 104 59 190 169 190c184 0 228 -242 228 -383zM317 269c-3 44 -24 122 -80 122c-21 0 -38 -14 -38 -36
c0 -53 75 -80 118 -86z" />
    <glyph glyph-name="alefmaksuraarabic" unicode="&#x649;" horiz-adv-x="695" arabic-form="isolated" 
d="M627 80c0 -160 -97 -310 -270 -310c-194 0 -291 186 -291 359c0 19 1 37 2 55l106 63c-2 -17 -4 -34 -4 -51c0 -99 39 -199 153 -199c37 0 66 18 92 45c-74 28 -107 85 -107 163c0 141 88 237 207 302l90 -104c-31 -16 -114 -59 -114 -101c0 -32 24 -35 52 -35h18
c35 0 66 -2 66 -53v-134z" />
    <glyph glyph-name="yeharabic" unicode="&#x64a;" horiz-adv-x="695" arabic-form="isolated" 
d="M627 80c0 -160 -97 -310 -270 -310c-194 0 -291 186 -291 359c0 19 1 37 2 55l106 63c-2 -17 -4 -34 -4 -51c0 -99 39 -199 153 -199c37 0 66 18 92 45c-74 28 -107 85 -107 163c0 141 88 237 207 302l90 -104c-31 -16 -114 -59 -114 -101c0 -32 24 -35 52 -35h18
c35 0 66 -2 66 -53v-134zM496 -361l-68 -98l-80 57l-39 -57l-97 67l68 100l81 -57l38 57z" />
    <glyph glyph-name="fathatanarabic" unicode="&#xfe70;" arabic-form="isolated" 
d="M282 1076h-267v53h267v-53zM282 972h-267v53h267v-53z" />
    <glyph glyph-name="dammatanarabic" unicode="&#xfe72;" arabic-form="isolated" 
d="M267 1140c0 -94 -98 -160 -180 -160c-19 0 -36 5 -53 13l-14 -63l-25 13l-12 128c31 -19 68 -33 104 -33s122 27 122 95c0 18 -12 34 -31 34c-20 0 -32 -19 -32 -38c0 -15 16 -33 26 -44l-51 -17c-15 19 -29 41 -29 65c0 51 39 93 91 93c48 0 84 -38 84 -86z" />
    <glyph glyph-name="kasratanarabic" unicode="&#xfe74;" arabic-form="isolated" 
d="M282 -420h-267v54h267v-54zM282 -524h-267v54h267v-54z" />
    <glyph glyph-name="fathaarabic" unicode="&#xfe76;" arabic-form="isolated" 
d="M282 972h-267v53h267v-53z" />
    <glyph glyph-name="dammaarabic" unicode="&#xfe78;" arabic-form="isolated" 
d="M267 1138c0 -92 -112 -143 -185 -168l-67 9c53 20 194 87 194 152c0 18 -12 34 -31 34c-20 0 -32 -19 -32 -38c0 -15 16 -33 26 -43l-51 -18c-15 19 -29 41 -29 65c0 51 39 93 91 93c48 0 84 -38 84 -86z" />
    <glyph glyph-name="kasraarabic" unicode="&#xfe7a;" arabic-form="isolated" 
d="M282 -420h-267v54h267v-54z" />
    <glyph glyph-name="shaddaarabic" unicode="&#xfe7c;" arabic-form="isolated" 
d="M282 1051c0 -51 -32 -79 -84 -79c-18 0 -36 7 -49 20c-14 -14 -33 -20 -52 -20c-51 0 -82 29 -82 79v84h53v-72c0 -18 5 -39 26 -39c23 0 28 20 28 39v72h53v-72c0 -19 5 -40 27 -40s26 22 26 39v73h54v-84z" />
    <glyph glyph-name="sukunarabic" unicode="&#xfe7e;" arabic-form="isolated" 
d="M205 1062c0 -50 -40 -90 -90 -90s-91 40 -91 90s41 90 91 90s90 -40 90 -90zM154 1062c0 22 -18 39 -39 39c-22 0 -39 -17 -39 -39s17 -39 39 -39c21 0 39 17 39 39z" />
    <glyph glyph-name="peharabic" unicode="&#x67e;" horiz-adv-x="887" arabic-form="isolated" 
d="M819 78c0 -49 -15 -78 -68 -78h-620c-39 0 -65 15 -65 57v291c53 -65 89 -81 173 -81h451c-5 35 -25 66 -46 94l102 87c55 -88 73 -130 73 -236v-134zM612 -157l-68 -98l-80 57l-39 -57l-96 67l67 100l81 -57l38 57zM543 -290l-49 -72l-70 49l49 72z" />
    <glyph glyph-name="tcheharabic" unicode="&#x686;" horiz-adv-x="740" arabic-form="isolated" 
d="M622 374h-37c-100 0 -297 -94 -297 -266c0 -113 81 -160 185 -160c30 0 60 3 90 11l-104 -199c-18 -36 -74 -40 -109 -40c-175 0 -283 110 -283 284c0 148 65 266 179 358c-60 -7 -126 -19 -180 -46v167h556v-109zM624 192l-61 -88l-73 51l-34 -51l-87 61l60 90l73 -52
l35 52zM562 73l-44 -65l-63 44l44 65z" />
    <glyph glyph-name="veharabic" unicode="&#x6a4;" horiz-adv-x="1006" arabic-form="isolated" 
d="M939 78c0 -49 -14 -78 -68 -78h-740c-39 0 -65 15 -65 57v291c53 -65 89 -81 173 -81h371c-23 26 -41 58 -41 93c0 92 85 155 172 155c140 0 198 -142 198 -263v-174zM816 269c-3 44 -23 122 -80 122c-21 0 -38 -14 -38 -36c0 -53 75 -80 118 -86zM784 813l-50 -72
l-69 49l48 72zM876 687l-67 -98l-80 57l-39 -57l-97 67l68 100l81 -57l38 57z" />
    <glyph glyph-name="jeharabic" unicode="&#x698;" horiz-adv-x="389" arabic-form="isolated" 
d="M324 60c0 -164 -102 -281 -270 -281c-59 0 -101 17 -101 84v137c116 0 213 31 213 166c0 83 -42 162 -89 229l109 90c94 -125 138 -269 138 -425zM135 754l-50 -71l-69 48l48 73zM228 628l-68 -98l-80 57l-39 -57l-97 68l68 99l81 -57l38 57z" />
    <glyph glyph-name="alefwaslafinal" unicode="&#x671;" horiz-adv-x="317" arabic-form="final" 
d="M351 0h-220c-39 0 -65 15 -65 57v516l187 94v-357c0 -43 15 -43 44 -43h54v-267zM287 733c0 -10 -6 -21 -22 -21h-220c-12 0 -21 5 -21 18v67h73v48h60v-33c22 24 48 55 83 55c36 0 47 -34 47 -64v-70zM243 797v7c0 11 -7 21 -19 21c-16 0 -31 -17 -40 -28h59z" />
    <glyph glyph-name="alefwaslaisolated" unicode="&#x671;" horiz-adv-x="321" arabic-form="isolated" 
d="M253 0h-122c-39 0 -65 15 -65 57v516l187 94v-667zM287 733c0 -10 -6 -21 -22 -21h-220c-12 0 -21 5 -21 18v67h73v48h60v-33c22 24 48 55 83 55c36 0 47 -34 47 -64v-70zM243 797v7c0 11 -7 21 -19 21c-16 0 -31 -17 -40 -28h59z" />
    <glyph glyph-name="pehmedialarabic" unicode="&#x67e;" horiz-adv-x="436" arabic-form="medial" 
d="M470 0h-49c-21 0 -42 14 -48 48c-7 -35 -30 -48 -66 -48h-307v267h248c-8 35 -26 66 -47 94l102 87c41 -66 61 -102 72 -181h95v-267zM363 -157l-68 -98l-80 57l-39 -57l-96 67l67 100l81 -57l38 57zM294 -290l-49 -72l-70 49l49 72z" />
    <glyph glyph-name="tchehfinalarabic" unicode="&#x686;" horiz-adv-x="665" arabic-form="final" 
d="M699 0h-73c-97 0 -126 79 -126 162v196c-109 -38 -212 -125 -212 -250c0 -113 81 -160 185 -160c30 0 60 3 90 11l-104 -199c-18 -36 -74 -40 -109 -40c-175 0 -283 110 -283 284c0 148 65 266 179 358c-60 -7 -126 -19 -180 -46v167h556v-109h-37v-41
c0 -51 29 -66 75 -66h39v-267zM482 145l-39 -58l-48 34l-23 -34l-57 40l40 59l48 -34l22 34zM442 57l-29 -42l-41 28l28 43z" />
    <glyph glyph-name="tchehmedialarabic" unicode="&#x686;" horiz-adv-x="706" arabic-form="medial" 
d="M740 0h-36c-33 0 -51 14 -63 48c-9 -36 -32 -48 -66 -48h-575v267h480c-28 74 -94 119 -174 119c-33 0 -65 -11 -95 -25v112c34 15 70 25 107 25c145 0 269 -98 309 -231h113v-267zM464 -157l-67 -98l-81 57l-38 -57l-97 67l68 100l81 -57l38 57zM396 -290l-49 -72
l-70 49l49 72z" />
    <glyph glyph-name="tchehinitialarabic" unicode="&#x686;" horiz-adv-x="708" arabic-form="initial" 
d="M641 0h-641v267h480c-28 74 -94 119 -174 119c-33 0 -65 -11 -95 -25v112c34 15 70 25 107 25c177 0 323 -146 323 -326v-172zM464 -157l-67 -98l-81 57l-38 -57l-97 67l68 100l81 -57l38 57zM396 -290l-49 -72l-70 49l49 72z" />
    <glyph glyph-name="pehfinalarabic" unicode="&#x67e;" horiz-adv-x="882" arabic-form="final" 
d="M916 0h-49c-21 0 -42 14 -48 48c-7 -35 -29 -48 -66 -48h-622c-39 0 -65 15 -65 57v291c53 -65 89 -81 173 -81h455c-7 35 -25 66 -47 94l102 87c42 -66 61 -102 72 -181h95v-267zM612 -157l-68 -98l-80 57l-39 -57l-96 67l67 100l81 -57l38 57zM543 -290l-49 -72l-70 49
l49 72z" />
    <glyph glyph-name=".notdef" horiz-adv-x="500" 
d="M63 0h375v750h-375v-750zM125 63v625h250v-625h-250z" />
    <glyph glyph-name=".null" 
 />
    <glyph glyph-name="CR" horiz-adv-x="333" 
 />
    <glyph glyph-name="space" unicode=" " horiz-adv-x="175" 
 />
    <glyph glyph-name="_4" horiz-adv-x="280" 
 />
    <glyph glyph-name="_13" horiz-adv-x="273" 
 />
    <glyph glyph-name="kashidaautoarabic" horiz-adv-x="701" 
d="M735 0h-735v267h735v-267z" />
    <glyph glyph-name="decimalseparatorarabic" unicode="&#x66b;" horiz-adv-x="295" 
d="M229 169c0 -43 -55 -104 -83 -134l-47 -14c14 17 45 54 45 78s-61 58 -77 70l66 98c27 -19 96 -57 96 -98z" />
    <glyph glyph-name="thousandsseparatorarabic" unicode="&#x66c;" horiz-adv-x="266" 
d="M206 152c0 -39 -50 -94 -75 -120l-42 -13c13 15 40 49 40 70c0 22 -54 53 -69 63l60 88c24 -17 86 -51 86 -88z" />
    <glyph glyph-name="nonbreakingspace" horiz-adv-x="623" 
 />
    <glyph glyph-name="guillemotleft" unicode="&#xab;" horiz-adv-x="619" 
d="M552 0l-128 22l-125 164l125 164l128 22l-104 -185zM320 0l-128 22l-125 164l124 164l129 22l-104 -185z" />
    <glyph glyph-name="guillemotright" unicode="&#xbb;" horiz-adv-x="619" 
d="M552 186l-125 -164l-128 -22l104 187l-104 185l129 -22zM320 186l-125 -164l-128 -22l104 187l-104 185l128 -22z" />
    <glyph glyph-name="divide" unicode="&#xf7;" horiz-adv-x="611" 
d="M393 419l-87 -87l-87 87l87 87zM544 172h-477v131h477v-131zM393 56l-87 -87l-87 87l87 87z" />
    <glyph glyph-name="exclam" unicode="!" horiz-adv-x="270" 
d="M203 187h-136v423c0 42 27 57 65 57h71v-480zM203 0h-136v98h136v-98z" />
    <glyph glyph-name="quotedbl" unicode="&#x22;" horiz-adv-x="460" 
d="M393 667l-69 -187l-66 187h135zM202 667l-70 -187l-65 187h135z" />
    <glyph glyph-name="dollar" unicode="$" horiz-adv-x="659" 
d="M593 188c0 -63 -25 -115 -78 -151c-39 -27 -100 -37 -146 -40v-80h-82v80c-58 5 -108 9 -155 46c-56 43 -65 103 -65 170h151c0 -44 27 -64 69 -69v128c-118 26 -220 67 -220 207c0 76 26 118 77 157c36 28 88 38 143 41v102h82v-102c46 0 92 -9 133 -31
c77 -40 91 -106 91 -186h-151c0 57 -20 68 -73 75v-131c42 -7 98 -20 134 -43c63 -40 90 -99 90 -173zM287 416v119c-37 -3 -72 -16 -72 -58c0 -40 38 -55 72 -61zM444 204c0 45 -39 55 -75 61v-121c35 3 75 18 75 60z" />
    <glyph glyph-name="percentarabic" unicode="&#x66a;" horiz-adv-x="666" 
d="M231 542l-67 -99l-97 68l67 99zM596 668l-337 -668h-189l337 668h189zM599 156l-68 -99l-96 68l66 99z" />
    <glyph glyph-name="quotesingle" unicode="'" horiz-adv-x="269" 
d="M202 667l-70 -187l-65 187h135z" />
    <glyph glyph-name="parenright" unicode=")" horiz-adv-x="445" 
d="M378 333c0 -194 -105 -321 -233 -453l-78 -27c97 171 162 278 162 480c0 200 -63 317 -162 484l83 -32c129 -134 228 -258 228 -452z" />
    <glyph glyph-name="parenleft" unicode="(" horiz-adv-x="445" 
d="M378 -147l-77 27c-129 132 -234 259 -234 453s100 318 228 452l83 32c-98 -167 -161 -284 -161 -484c0 -204 65 -307 161 -480z" />
    <glyph glyph-name="multiply" unicode="&#xd7;" horiz-adv-x="564" 
d="M497 363l-122 -123l122 -122l-93 -93l-122 122l-122 -122l-92 92l122 122l-123 123l92 93l124 -123l123 122z" />
    <glyph glyph-name="plus" unicode="+" horiz-adv-x="611" 
d="M544 172h-173v-172h-129v172h-175v131h175v174h129v-174h173v-131z" />
    <glyph glyph-name="commaarabic" unicode="&#x60c;" horiz-adv-x="299" 
d="M232 98l-65 -98c-27 19 -96 56 -96 98s56 104 82 133l47 15c-14 -18 -44 -54 -44 -78s61 -59 76 -70z" />
    <glyph glyph-name="hyphen" unicode="-" horiz-adv-x="611" 
d="M544 172h-477v131h477v-131z" />
    <glyph glyph-name="period" unicode="." horiz-adv-x="298" 
d="M231 99l-67 -99l-97 67l67 100z" />
    <glyph glyph-name="slash" unicode="/" horiz-adv-x="660" 
d="M593 668l-338 -668h-188l337 668h189z" />
    <glyph glyph-name="zeroarabic" unicode="&#x660;" horiz-adv-x="396" 
d="M329 280l-108 -157l-154 107l107 158z" />
    <glyph glyph-name="onearabic" unicode="&#x661;" horiz-adv-x="270" 
d="M202 0h-71c-38 0 -65 15 -65 57v553c0 42 27 57 65 57h71v-667z" />
    <glyph glyph-name="twoarabic" unicode="&#x662;" horiz-adv-x="512" 
d="M444 479c0 -49 -16 -79 -69 -79h-131c-26 0 -42 -11 -42 -38v-362h-71c-38 0 -65 15 -65 57v553c0 42 27 57 65 57h313v-188z" />
    <glyph glyph-name="threearabic" unicode="&#x663;" horiz-adv-x="687" 
d="M619 345c0 -50 -15 -78 -69 -78h-170c-16 0 -28 9 -36 23c-7 -14 -19 -23 -35 -23h-107v-267h-71c-38 0 -65 15 -65 57v553c0 42 27 57 65 57h71v-155h40c79 0 -28 155 97 155h71v-155h40c80 0 -27 155 97 155h72v-322z" />
    <glyph glyph-name="fourarabic" unicode="&#x664;" horiz-adv-x="531" 
d="M458 78c0 -49 -15 -78 -68 -78h-259c-39 0 -65 15 -65 57v181c0 35 3 56 32 79c17 13 89 59 89 80c0 30 -126 76 -126 124c0 59 205 132 249 148l107 -85c-58 -19 -118 -40 -170 -73l112 -67c15 -9 28 -22 28 -40c0 -54 -115 -97 -139 -133c0 -4 7 -4 10 -4h200v-189z
" />
    <glyph glyph-name="fivearabic" unicode="&#x665;" horiz-adv-x="563" 
d="M496 78c0 -49 -16 -78 -69 -78h-293c-53 0 -68 29 -68 78v163c0 117 8 195 65 299c37 68 91 128 151 128c62 0 126 -82 153 -130c48 -89 61 -197 61 -297v-163zM367 301c0 54 -28 205 -86 205c-61 0 -87 -147 -87 -205c0 -29 8 -34 37 -34h100c28 0 36 5 36 34z" />
    <glyph glyph-name="sixarabic" unicode="&#x666;" horiz-adv-x="511" 
d="M443 0h-70c-52 0 -65 23 -65 72v282c0 33 -6 47 -42 47h-131c-53 0 -69 30 -69 78v188h312c39 0 65 -15 65 -56v-611z" />
    <glyph glyph-name="sevenarabic" unicode="&#x667;" horiz-adv-x="601" 
d="M534 625c0 -14 -3 -28 -7 -41l-145 -584h-96c-49 0 -58 17 -69 61l-150 606h140l101 -400l101 400h84c27 0 41 -15 41 -42z" />
    <glyph glyph-name="eightarabic" unicode="&#x668;" horiz-adv-x="601" 
d="M534 42c0 -28 -14 -42 -41 -42h-84l-101 399l-101 -399h-140l150 605c11 44 20 62 69 62h96l145 -584c4 -14 7 -28 7 -41z" />
    <glyph glyph-name="ninearabic" unicode="&#x669;" horiz-adv-x="554" 
d="M487 0h-70c-54 0 -66 23 -66 72v73h-220c-39 0 -65 15 -65 57v256c0 90 67 209 240 209h181v-667zM351 412v120h-45c-52 0 -103 -6 -103 -74v-26c0 -19 7 -20 25 -20h123z" />
    <glyph glyph-name="colon" unicode=":" horiz-adv-x="299" 
d="M232 340l-67 -99l-97 68l67 99zM231 99l-67 -99l-97 67l67 100z" />
    <glyph glyph-name="semicolonarabic" unicode="&#x61b;" horiz-adv-x="298" 
d="M231 339l-65 -98c-27 19 -96 56 -96 97c0 43 56 105 82 134l48 15c-15 -17 -45 -54 -45 -78c0 -25 61 -59 76 -70zM231 99l-67 -99l-97 67l67 100z" />
    <glyph glyph-name="greater" unicode="&#x3e;" horiz-adv-x="611" 
d="M537 257l-257 -257h-206l257 257l-257 257h206z" />
    <glyph glyph-name="equal" unicode="=" horiz-adv-x="611" 
d="M544 275h-477v130h477v-130zM544 69h-477v130h477v-130z" />
    <glyph glyph-name="less" unicode="&#x3c;" horiz-adv-x="611" 
d="M537 0h-206l-257 257l257 257h206l-257 -257z" />
    <glyph glyph-name="questionarabic" unicode="&#x61f;" horiz-adv-x="514" 
d="M446 492c0 -49 -16 -78 -69 -78h-121c-10 0 -26 -2 -26 -15c0 -6 3 -17 9 -29l56 -98c8 -13 9 -34 9 -51v-34h-136v34c0 13 -3 26 -10 38l-77 135c-11 19 -15 25 -15 48v168c0 29 20 57 51 57h329v-175zM304 0h-136v98h136v-98z" />
    <glyph glyph-name="asteriskarabic" unicode="&#x66d;" horiz-adv-x="614" 
d="M547 275l-120 -89l61 -140l-68 -46l-113 98l-114 -98l-67 46l61 140l-120 89l22 78l140 -20l37 138h82l36 -138l140 20z" />
    <glyph glyph-name="bracketright" unicode="]" horiz-adv-x="412" 
d="M344 -150h-278v219h150v529h-150v220h278v-968z" />
    <glyph glyph-name="backslash" unicode="\" horiz-adv-x="660" 
d="M593 0h-188l-338 668h189z" />
    <glyph glyph-name="bracketleft" unicode="[" horiz-adv-x="412" 
d="M344 -150h-278v968h278v-220h-150v-529h150v-219z" />
    <glyph glyph-name="underscore" unicode="_" horiz-adv-x="500" 
d="M534 -183h-534v115h534v-115z" />
    <glyph glyph-name="tatweelarabic" unicode="&#x640;" horiz-adv-x="701" 
d="M735 0h-735v267h735v-267z" />
    <glyph glyph-name="braceright" unicode="}" horiz-adv-x="411" 
d="M20 -129c0 6 0 12 1 16c99 1 145 17 145 79l-1 16v252c0 36 24 69 72 100c-48 37 -72 73 -72 99v242c0 79 -30 99 -143 99v9c0 9 0 19 2 29c152 0 281 -40 281 -137v-242c0 -43 36 -80 82 -99h2c-57 -37 -84 -72 -84 -100v-252c0 -87 -50 -128 -176 -128h-108
c-1 5 -1 8 -1 17z" />
    <glyph glyph-name="bar" unicode="|" horiz-adv-x="335" 
d="M262 756v-756h-189v756h189z" />
    <glyph glyph-name="braceleft" unicode="{" horiz-adv-x="411" 
d="M390 -129c0 6 0 12 -1 16c-99 1 -145 17 -145 79l1 16v252c0 36 -24 69 -72 100c48 37 72 73 72 99v242c0 79 30 99 143 99v9c0 9 0 19 -2 29c-152 0 -281 -40 -281 -137v-242c0 -43 -36 -80 -82 -99h-2c57 -37 84 -72 84 -100v-252c0 -87 50 -128 176 -128h108
c1 5 1 8 1 17z" />
    <glyph glyph-name="quotedblleft" unicode="&#x201c;" horiz-adv-x="496" 
d="M87 587c0 45 84 114 124 139c15 11 25 16 30 16c9 0 12 -4 11 -12c-1 -3 -7 -11 -20 -23c-24 -21 -35 -41 -35 -59c0 -16 5 -30 18 -42l45 -46l-84 -84l-65 65c-16 17 -24 32 -24 46zM317 587c0 45 84 114 124 139c15 11 25 16 30 16c9 0 12 -4 11 -12
c-1 -3 -7 -11 -20 -23c-24 -21 -35 -41 -35 -59c0 -16 5 -30 18 -42l45 -46l-84 -84l-65 65c-16 17 -24 32 -24 46z" />
    <glyph glyph-name="quotedblright" unicode="&#x201d;" horiz-adv-x="496" 
d="M491 631c0 -45 -84 -114 -124 -139c-15 -11 -25 -16 -30 -16c-9 0 -12 4 -11 12c1 3 7 11 20 23c24 21 35 41 35 59c0 16 -5 30 -18 42l-45 46l84 84l65 -65c16 -17 24 -32 24 -46zM261 631c0 -45 -84 -114 -124 -139c-15 -11 -25 -16 -30 -16c-9 0 -12 4 -11 12
c1 3 7 11 20 23c24 21 35 41 35 59c0 16 -5 30 -18 42l-45 46l84 84l65 -65c16 -17 24 -32 24 -46z" />
    <glyph glyph-name="hyphenminus" unicode="&#x2010;" horiz-adv-x="454" 
d="M24 192h421v39h-421v-39z" />
    <glyph glyph-name="delete" unicode="&#x2421;" horiz-adv-x="709" 
d="M674 57v31h-127v229h-36v-260h163zM479 57v31h-159v88h143v31h-143v79h153v31h-189v-260h195zM253 189c0 71 -26 112 -79 124c-10 3 -25 4 -46 4h-90v-260h95c15 0 29 2 41 5c53 13 79 55 79 127zM218 189c0 -37 -9 -65 -26 -83c-13 -12 -34 -18 -63 -18h-56v198h55
c20 0 35 -2 44 -5c31 -12 46 -43 46 -92z" />
    <glyph glyph-name="nbspace" unicode="&#xa0;" horiz-adv-x="623" 
 />
    <glyph glyph-name="ornaterightparenthesis" unicode="&#xfd3f;" horiz-adv-x="671" 
d="M521 537l-127 -126l-58 58l-58 -58l-127 126h114c-38 108 -82 187 -139 286l79 -27c96 -99 123 -139 193 -259h123zM604 316l-73 -20v-116l-114 113l48 48l-47 47l113 113v-116l73 -19v-50zM416 340l-81 -81l-82 81l82 81zM254 388l-48 -48l47 -47l-113 -112v115l-73 19
v51l73 19v116zM521 145h-123c-43 -95 -121 -185 -193 -259l-78 -28c56 102 99 177 138 287h-114l127 126l58 -58l58 58z" />
    <glyph glyph-name="ornateleftparenthesis" unicode="&#xfd3e;" horiz-adv-x="671" 
d="M544 823c-58 -104 -97 -172 -138 -286h114l-126 -126l-59 58l-58 -58l-127 126h123c71 120 98 160 194 259zM604 315l-73 -19v-115l-113 112l47 47l-48 48l114 113v-116l73 -19v-51zM418 340l-82 -81l-81 81l81 81zM254 293l-114 -113v116l-73 20v50l73 19v116l113 -113
l-47 -47zM544 -142l-77 28c-72 74 -150 164 -194 259h-123l127 126l58 -58l59 58l126 -126h-114c38 -109 81 -186 138 -287z" />
    <glyph glyph-name="righttoleft" unicode="&#x200f;" horiz-adv-x="20" 
d="M20 0v722h-96l36 36l-14 14l-60 -61l60 -61l14 14l-38 38h78v-702h20z" />
    <glyph glyph-name="lefttoright" unicode="&#x200e;" horiz-adv-x="20" 
d="M134 711l-60 61l-14 -14l36 -36h-96v-722h20v702h78l-38 -38l14 -14z" />
    <glyph glyph-name="zerojoin" unicode="&#x200d;" horiz-adv-x="20" 
d="M71 663l-47 48l47 47l-14 14l-47 -48l-47 48l-14 -14l48 -47l-48 -48l14 -13l37 37v-687h20v687l37 -37z" />
    <glyph glyph-name="zeronojoin" unicode="&#x200c;" horiz-adv-x="20" 
d="M20 0v722h-20v-722h20z" />
    <glyph glyph-name="extendedarabicindicdigitnine" unicode="&#x6f9;" horiz-adv-x="554" 
d="M487 0h-70c-54 0 -66 23 -66 72v73h-220c-39 0 -65 15 -65 57v256c0 90 67 209 240 209h181v-667zM351 412v120h-45c-52 0 -103 -6 -103 -74v-26c0 -19 7 -20 25 -20h123z" />
    <glyph glyph-name="extendedarabicindicdigiteight" unicode="&#x6f8;" horiz-adv-x="601" 
d="M534 42c0 -28 -14 -42 -41 -42h-84l-101 399l-101 -399h-140l150 605c11 44 20 62 69 62h96l145 -584c4 -14 7 -28 7 -41z" />
    <glyph glyph-name="extendedarabicindicdigitseven" unicode="&#x6f7;" horiz-adv-x="601" 
d="M534 625c0 -14 -3 -28 -7 -41l-145 -584h-96c-49 0 -58 17 -69 61l-150 606h140l101 -400l101 400h84c27 0 41 -15 41 -42z" />
    <glyph glyph-name="extendedarabicindicdigitsix" unicode="&#x6f6;" horiz-adv-x="511" 
d="M443 0h-70c-52 0 -65 23 -65 72v282c0 33 -6 47 -42 47h-131c-53 0 -69 30 -69 78v188h312c39 0 65 -15 65 -56v-611z" />
    <glyph glyph-name="extendedarabicindicdigitfive" unicode="&#x6f5;" horiz-adv-x="563" 
d="M496 78c0 -49 -16 -78 -69 -78h-293c-53 0 -68 29 -68 78v163c0 117 8 195 65 299c37 68 91 128 151 128c62 0 126 -82 153 -130c48 -89 61 -197 61 -297v-163zM367 301c0 54 -28 205 -86 205c-61 0 -87 -147 -87 -205c0 -29 8 -34 37 -34h100c28 0 36 5 36 34z" />
    <glyph glyph-name="extendedarabicindicdigitfour" unicode="&#x6f4;" horiz-adv-x="531" 
d="M458 78c0 -49 -15 -78 -68 -78h-259c-39 0 -65 15 -65 57v181c0 35 3 56 32 79c17 13 89 59 89 80c0 30 -126 76 -126 124c0 59 205 132 249 148l107 -85c-58 -19 -118 -40 -170 -73l112 -67c15 -9 28 -22 28 -40c0 -54 -115 -97 -139 -133c0 -4 7 -4 10 -4h200v-189z
" />
    <glyph glyph-name="extendedarabicindicdigitthree" unicode="&#x6f3;" horiz-adv-x="687" 
d="M619 345c0 -50 -15 -78 -69 -78h-170c-16 0 -28 9 -36 23c-7 -14 -19 -23 -35 -23h-107v-267h-71c-38 0 -65 15 -65 57v553c0 42 27 57 65 57h71v-155h40c79 0 -28 155 97 155h71v-155h40c80 0 -27 155 97 155h72v-322z" />
    <glyph glyph-name="extendedarabicindicdigittwo" unicode="&#x6f2;" horiz-adv-x="512" 
d="M444 479c0 -49 -16 -79 -69 -79h-131c-26 0 -42 -11 -42 -38v-362h-71c-38 0 -65 15 -65 57v553c0 42 27 57 65 57h313v-188z" />
    <glyph glyph-name="extendedarabicindicdigitone" unicode="&#x6f1;" horiz-adv-x="270" 
d="M202 0h-71c-38 0 -65 15 -65 57v553c0 42 27 57 65 57h71v-667z" />
    <glyph glyph-name="extendedarabicindicdigitzero" unicode="&#x6f0;" horiz-adv-x="396" 
d="M329 280l-108 -157l-154 107l107 158z" />
    <glyph glyph-name="superscriptalef" unicode="&#x670;" 
d="M162 700h-63c-20 0 -33 8 -33 29v265l96 48v-342z" />
    <glyph glyph-name="maddaabove" unicode="&#x653;" 
d="M284 796c-22 -19 -58 -49 -89 -49c-38 0 -55 41 -90 41c-16 0 -41 -22 -52 -32l-35 43c22 19 58 49 88 49c40 0 63 -42 89 -42c18 0 42 21 54 32z" />
    <glyph glyph-name="hamzaabove" unicode="&#x654;" 
d="M269 721c0 -20 -13 -28 -32 -28h-176c-19 0 -32 8 -32 28v103h88c0 69 60 108 124 108h28v-54h-22c-37 0 -67 -14 -70 -54h92v-103z" />
    <glyph glyph-name="hamzabelow" unicode="&#x655;" 
d="M269 -299c0 -20 -13 -28 -32 -28h-176c-19 0 -32 8 -32 28v103h88c0 69 60 108 124 108h28v-54h-22c-37 0 -67 -14 -70 -54h92v-103z" />
    <glyph glyph-name="zerowidthnobreakspace" unicode="&#xfeff;" 
 />
    <glyph glyph-name="_246" 
 />
    <glyph glyph-name="at" unicode="*" horiz-adv-x="614" 
d="M547 275l-120 -89l61 -140l-68 -46l-113 98l-114 -98l-67 46l61 140l-120 89l22 78l140 -20l37 138h82l36 -138l140 20z" />
    <glyph glyph-name="percent" unicode="%" horiz-adv-x="666" 
d="M231 542l-67 -99l-97 68l67 99zM596 668l-337 -668h-189l337 668h189zM599 156l-68 -99l-96 68l66 99z" />
    <glyph glyph-name="ampersand" unicode="&#x26;" horiz-adv-x="659" 
d="M667 87l-84 -107c-44 23 -75 45 -112 78c-60 -51 -116 -71 -197 -71c-122 0 -244 63 -244 202c0 107 74 167 152 208c-32 40 -67 91 -67 148c0 109 102 151 193 151c96 0 191 -50 191 -159c0 -78 -62 -125 -121 -162l87 -115c12 24 19 48 26 74l126 -29
c-14 -50 -27 -97 -58 -142c36 -32 65 -53 108 -76zM377 540c0 36 -31 56 -65 56c-30 0 -62 -16 -62 -47c0 -28 39 -69 58 -89l19 14c26 19 50 41 50 66zM382 151l-127 156c-45 -25 -83 -61 -83 -113c0 -57 41 -91 96 -91c45 0 79 20 114 48z" />
    <glyph glyph-name="numbersign" unicode="#" horiz-adv-x="875" 
d="M809 523l-51 -141h-120l-38 -96h123l-49 -141h-121l-51 -145h-138l51 145h-90l-52 -145h-137l51 145h-120l47 141h122l35 96h-120l46 141h123l52 144h139l-54 -144h91l51 144h139l-52 -144h123zM499 382h-90l-35 -96h88z" />
    <glyph glyph-name="ellipsis" unicode="&#x2026;" horiz-adv-x="1000" 
d="M258 0h-187v267h187v-267zM593 0h-187v267h187v-267zM929 0h-187v267h187v-267z" />
    </font>
</defs>
</svg>
