<?xml version="1.0" standalone="no"?>
<!DOCTYPE svg PUBLIC "-//W3C//DTD SVG 1.1//EN" "http://www.w3.org/Graphics/SVG/1.1/DTD/svg11.dtd" >
<svg>
<metadata>
Created by FontForge 20110222 at Fri Dec 26 09:24:34 2014
 By www-data
Copyright (c) 2007 by Luc[as] de Groot &#38; Mouneer Al Sharaani. All rights reserved.
</metadata>
<defs>
<font id="TheMixArab-Black" horiz-adv-x="550" >
  <font-face 
    font-family="TheMixArab "
    font-weight="900"
    font-stretch="normal"
    units-per-em="1000"
    panose-1="2 0 0 0 0 0 0 0 0 0"
    ascent="800"
    descent="-200"
    bbox="-53 -369 1130 1060"
    underline-thickness="50"
    underline-position="-50"
    unicode-range="U+0020-FEFC"
  />
<missing-glyph horiz-adv-x="500" 
 />
    <glyph glyph-name="uniFE82" unicode="&#x622;" horiz-adv-x="371" arabic-form="final" 
d="M136 465q-6 1 -12.5 1h-11.5l-57 4v108q46 7 93.5 11t90.5 4q8 0 26 -0.5t26 -0.5v-459h69v-133h-224v465zM0 674l125 97q20 -20 44.5 -30t41.5 -10q22 0 51 14t61 42v-134q-24 -20 -58.5 -32.5t-65.5 -12.5q-20 0 -41 5t-39 17q-14 -9 -31 -20t-28 -19z" />
    <glyph glyph-name="uniFE84" unicode="&#x623;" horiz-adv-x="305" arabic-form="final" 
d="M102 465q-6 1 -12.5 1h-11.5l-57 4v108q46 7 93.5 11t90.5 4q8 0 26 -0.5t26 -0.5v-459h69v-133h-224v465zM6 720h26.5t26.5 -2q-1 5 -1 10.5v10.5q0 19 8 37.5t24 33t39.5 23t54.5 8.5q15 0 38.5 -6t46.5 -17l-33 -91q-15 9 -30 14.5t-25 5.5q-14 0 -14 -10
q0 -17 38 -17h67v-105h-266v105z" />
    <glyph glyph-name="uniFE86" unicode="&#x624;" horiz-adv-x="549" arabic-form="final" 
d="M170 -230q-28 0 -66 3.5t-67 8.5l-8 143q42 -11 79 -15t70 -4q62 0 95.5 24.5t39.5 69.5h-34q-68 0 -114.5 17.5t-75 48t-41 71.5t-12.5 88q0 48 14.5 93t46 80.5t79.5 57t116 21.5q42 0 86.5 -4.5t90.5 -12.5v-327h87v-133h-87q-5 -41 -24 -82t-55 -74t-90.5 -53.5
t-129.5 -20.5zM315 133v209q-8 2 -18 2.5t-16 0.5q-38 0 -62 -27t-24 -75q0 -52 23 -81t72 -29h25zM136 610h26.5t26.5 -2q-1 5 -1 10v10q0 20 8 38.5t24 33t39.5 23t54.5 8.5q14 0 38 -6t47 -17l-33 -91q-15 8 -30 14t-25 6q-6 0 -10.5 -2.5t-4.5 -7.5q0 -17 39 -17h67
v-106h-266v106z" />
    <glyph glyph-name="uniFE88" unicode="&#x625;" horiz-adv-x="309" arabic-form="final" 
d="M96 578h-11.5t-12.5 1l-56 4v107q46 8 93.5 12t90.5 4q8 0 26 -0.5t26 -0.5v-572h78v-133h-234v578zM49 -153h26.5t26.5 -2q-1 5 -1 10.5v10.5q0 20 8 38.5t24 33t39.5 23t54.5 8.5q14 0 38 -6.5t47 -17.5l-33 -90q-15 8 -30 13.5t-25 5.5q-6 0 -10.5 -2.5t-4.5 -7.5
q0 -17 39 -17h67v-105h-266v105z" />
    <glyph glyph-name="uniFE8B" unicode="&#x626;" horiz-adv-x="327" arabic-form="initial" 
d="M-13 133h130v330h155v-463h-285v133zM53 599h26.5t26.5 -2q-1 5 -1 10v10q0 20 8 38.5t24 33t39.5 23t54.5 8.5q14 0 38 -6t47 -17l-33 -91q-15 8 -30 14t-25 6q-6 0 -10.5 -3t-4.5 -8q0 -16 39 -16h67v-106h-266v106z" />
    <glyph glyph-name="uniFE8C" unicode="&#x626;" horiz-adv-x="341" arabic-form="medial" 
d="M-12 133h130v330h154v-330h87v-133h-371v133zM52 599h26.5t26.5 -2q-1 5 -1 10v10q0 20 8 38.5t24 33t39.5 23t54.5 8.5q14 0 37.5 -6t47.5 -17l-33 -91q-15 8 -30 14t-25 6q-6 0 -10.5 -3t-4.5 -8q0 -16 39 -16h67v-106h-266v106z" />
    <glyph glyph-name="uniFE8A" unicode="&#x626;" horiz-adv-x="1068" arabic-form="final" 
d="M805 242q0 54 -19 76.5t-67 22.5q-5 0 -9 -0.5t-9 -0.5v-340h-242q-110 0 -182 24t-114 64t-59 93t-17 112q0 31 6 71t15 77l169 30q-20 -49 -27.5 -88t-7.5 -76q0 -41 11 -73t38 -54.5t72 -34.5t112 -12h72v323q45 10 87.5 15.5t87.5 5.5q69 0 115 -16.5t73 -47t38 -74
t11 -96.5v-110h87v-133h-241v242zM30 600h26.5t26.5 -2q-1 5 -1 10v10q0 20 8 38.5t24 33t39.5 23t54.5 8.5q14 0 37.5 -6t47.5 -17l-33 -91q-15 8 -30 14t-25 6q-6 0 -10.5 -3t-4.5 -8q0 -16 39 -16h67v-106h-266v106z" />
    <glyph glyph-name="uniFE8E" unicode="&#x627;" horiz-adv-x="309" arabic-form="final" 
d="M96 578h-11.5t-12.5 1l-56 4v107q46 8 93.5 12t90.5 4q8 0 26 -0.5t26 -0.5v-572h78v-133h-234v578z" />
    <glyph glyph-name="uniFE91" unicode="&#x628;" horiz-adv-x="327" arabic-form="initial" 
d="M-14 133h130v330h155v-463h-285v133zM135 -203q-18 0 -33.5 7t-27 18.5t-18.5 27t-7 33.5t7 33.5t18.5 27t27 18.5t33.5 7t33.5 -7t27.5 -18.5t18.5 -27t6.5 -33.5t-6.5 -33.5t-18.5 -27t-27.5 -18.5t-33.5 -7z" />
    <glyph glyph-name="uniFE92" unicode="&#x628;" horiz-adv-x="341" arabic-form="medial" 
d="M-12 133h130v330h154v-330h87v-133h-371v133zM174 -203q-18 0 -33.5 7t-27 18.5t-18.5 27t-7 33.5t7 33.5t18.5 27t27 18.5t33.5 7t33.5 -7t27 -18.5t18 -27t6.5 -33.5t-6.5 -33.5t-18 -27t-27 -18.5t-33.5 -7z" />
    <glyph glyph-name="uniFE90" unicode="&#x628;" horiz-adv-x="763" arabic-form="final" 
d="M406 0q-110 0 -182 24t-114 64t-59 93t-17 112q0 31 6 71t15 77l169 30q-19 -49 -27 -88t-8 -76q0 -41 11 -73t38 -54.5t72 -34.5t113 -12h106v330h155v-330h74v-133h-352zM420 -203q-18 0 -33.5 7t-27 18.5t-18.5 27t-7 33.5t7 33.5t18.5 27t27 18.5t33.5 7t33.5 -7
t27 -18.5t18 -27t6.5 -33.5t-6.5 -33.5t-18 -27t-27 -18.5t-33.5 -7z" />
    <glyph glyph-name="uniFE94" unicode="&#x629;" horiz-adv-x="540" arabic-form="final" 
d="M272 0q-125 0 -183.5 60t-58.5 165q0 49 15 94.5t46.5 80.5t79.5 56t114 21q43 0 87.5 -4.5t90.5 -12.5v-327h85v-133h-276zM308 133v209q-8 2 -18 2.5t-16 0.5q-40 0 -62.5 -27t-22.5 -75q0 -22 5 -42t16 -35t29 -24t44 -9h25zM325 493q-35 0 -59 25.5t-24 60.5t24 60.5
t59 25.5q36 0 59 -25.5t23 -60.5t-23 -60.5t-59 -25.5zM174 493q-35 0 -59 25.5t-24 60.5t24 60.5t59 25.5q36 0 59 -25.5t23 -60.5t-23 -60.5t-59 -25.5z" />
    <glyph glyph-name="uniFE97" unicode="&#x62a;" horiz-adv-x="327" arabic-form="initial" 
d="M-12 133h130v330h154v-463h-284v133zM116 493q-35 0 -59.5 25.5t-24.5 60.5t24.5 60.5t59.5 25.5q36 0 59 -25.5t23 -60.5t-23 -60.5t-59 -25.5zM267 493q-36 0 -60 25.5t-24 60.5t24 60.5t60 25.5t59 -25.5t23 -60.5t-23 -60.5t-59 -25.5z" />
    <glyph glyph-name="uniFE98" unicode="&#x62a;" horiz-adv-x="341" arabic-form="medial" 
d="M-12 133h130v330h154v-330h87v-133h-371v133zM251 493q-35 0 -59 25.5t-24 60.5t24 60.5t59 25.5q36 0 59 -25.5t23 -60.5t-23 -60.5t-59 -25.5zM100 493q-35 0 -59 25.5t-24 60.5t24 60.5t59 25.5q36 0 59.5 -25.5t23.5 -60.5t-23.5 -60.5t-59.5 -25.5z" />
    <glyph glyph-name="uniFE96" unicode="&#x62a;" horiz-adv-x="763" arabic-form="final" 
d="M406 0q-110 0 -182 24t-114 64t-59 93t-17 112q0 31 6 71t15 77l169 30q-19 -49 -27 -88t-8 -76q0 -41 11 -73t38 -54.5t72 -34.5t113 -12h106v330h155v-330h74v-133h-352zM302 467q-35 0 -59 25.5t-24 60.5t24 60.5t59 25.5q36 0 59.5 -25.5t23.5 -60.5t-23.5 -60.5
t-59.5 -25.5zM453 467q-35 0 -59 25.5t-24 60.5t24 60.5t59 25.5q36 0 59 -25.5t23 -60.5t-23 -60.5t-59 -25.5z" />
    <glyph glyph-name="uniFE9B" unicode="&#x62b;" horiz-adv-x="327" arabic-form="initial" 
d="M-12 133h129v330h155v-463h-284v133zM190 614q-30 0 -51 22.5t-21 51.5q0 30 21 52t51 22q31 0 52 -22t21 -52q0 -29 -21 -51.5t-52 -22.5zM124 493q-33 0 -55 23.5t-22 56.5q0 32 22 55.5t55 23.5t54.5 -23.5t21.5 -55.5q0 -33 -21.5 -56.5t-54.5 -23.5zM260 493
q-33 0 -55 23.5t-22 56.5q0 32 22 55.5t55 23.5t54.5 -23.5t21.5 -55.5q0 -33 -21.5 -56.5t-54.5 -23.5z" />
    <glyph glyph-name="uniFE9C" unicode="&#x62b;" horiz-adv-x="341" arabic-form="medial" 
d="M-12 133h130v330h154v-330h87v-133h-371v133zM255 493q-33 0 -55 23.5t-22 56.5q0 32 22 55.5t55 23.5t54.5 -23.5t21.5 -55.5q0 -33 -21.5 -56.5t-54.5 -23.5zM119 493q-33 0 -55 23.5t-22 56.5q0 32 22 55.5t55 23.5t54.5 -23.5t21.5 -55.5q0 -33 -21.5 -56.5
t-54.5 -23.5zM185 614q-30 0 -51 22.5t-21 51.5q0 30 21 52t51 22q31 0 52 -22t21 -52q0 -29 -21 -51.5t-52 -22.5z" />
    <glyph glyph-name="uniFE9A" unicode="&#x62b;" horiz-adv-x="763" arabic-form="final" 
d="M406 0q-110 0 -182 24t-114 64t-59 93t-17 112q0 31 6 71t15 77l169 30q-19 -49 -27 -88t-8 -76q0 -41 11 -73t38 -54.5t72 -34.5t113 -12h106v330h155v-330h74v-133h-352zM375 594q-30 0 -51 22.5t-21 51.5q0 31 21 52.5t51 21.5q31 0 52 -21.5t21 -52.5
q0 -29 -21 -51.5t-52 -22.5zM309 474q-33 0 -55 23.5t-22 55.5t22 55.5t55 23.5t54.5 -23.5t21.5 -55.5t-21.5 -55.5t-54.5 -23.5zM445 474q-33 0 -55 23.5t-22 55.5t22 55.5t55 23.5t54.5 -23.5t21.5 -55.5t-21.5 -55.5t-54.5 -23.5z" />
    <glyph glyph-name="uniFE9F" unicode="&#x62c;" horiz-adv-x="532" arabic-form="initial" 
d="M-10 133h315v65q0 72 -34 102.5t-116 30.5q-50 0 -105 -6l12 132q23 3 47 4.5t56 1.5q83 0 140 -19t92.5 -52.5t51 -78t15.5 -95.5v-218h-474v133zM191 -203q-18 0 -33.5 7t-27 18.5t-18.5 27t-7 33.5t7 33.5t18.5 27t27 18.5t33.5 7t33.5 -7t27 -18.5t18 -27t6.5 -33.5
t-6.5 -33.5t-18 -27t-27 -18.5t-33.5 -7z" />
    <glyph glyph-name="uniFEA0" unicode="&#x62c;" horiz-adv-x="546" arabic-form="medial" 
d="M-8 133h315v65q0 72 -34 102.5t-116 30.5q-51 0 -106 -6l12 132q24 3 48 4.5t56 1.5q83 0 140 -19t92.5 -52.5t51 -78t15.5 -95.5v-85h87v-133h-561v133zM191 -203q-18 0 -33.5 7t-27 18.5t-18.5 27t-7 33.5t7 33.5t18.5 27t27 18.5t33.5 7t33.5 -7t27 -18.5t18 -27
t6.5 -33.5t-6.5 -33.5t-18 -27t-27 -18.5t-33.5 -7z" />
    <glyph glyph-name="uniFE9E" unicode="&#x62c;" horiz-adv-x="588" arabic-form="final" 
d="M297 0q-57 0 -82 -11.5t-25 -34.5q0 -49 78 -49q8 0 20 0.5t45 4.5l-12 -134q-36 -6 -66 -6q-50 0 -91 11t-70.5 33t-46 55t-16.5 78q0 89 68.5 139t208.5 50h39v67q0 34 -8 58.5t-26.5 40t-49 22.5t-75.5 7h-15h-14.5t-15 -0.5t-20.5 -2t-31 -3.5l12 132q14 2 23.5 3.5
t18 2t16.5 0.5h19h17q82 0 140.5 -17.5t95.5 -49t54.5 -76t17.5 -97.5v-90h87v-133h-296zM418 -203q-18 0 -33.5 7t-27 18.5t-18.5 27t-7 33.5t7 33.5t18.5 27t27 18.5t33.5 7t33.5 -7t27.5 -18.5t18.5 -27t6.5 -33.5t-6.5 -33.5t-18.5 -27t-27.5 -18.5t-33.5 -7z" />
    <glyph glyph-name="uniFEA3" unicode="&#x62d;" horiz-adv-x="532" arabic-form="initial" 
d="M-10 133h315v65q0 72 -34 102.5t-116 30.5q-50 0 -105 -6l12 132q23 3 47 4.5t56 1.5q83 0 140 -19t92.5 -52.5t51 -78t15.5 -95.5v-218h-474v133z" />
    <glyph glyph-name="uniFEA4" unicode="&#x62d;" horiz-adv-x="546" arabic-form="medial" 
d="M-8 133h315v65q0 72 -34 102.5t-116 30.5q-51 0 -106 -6l12 132q24 3 48 4.5t56 1.5q83 0 140 -19t92.5 -52.5t51 -78t15.5 -95.5v-85h87v-133h-561v133z" />
    <glyph glyph-name="uniFEA2" unicode="&#x62d;" horiz-adv-x="588" arabic-form="final" 
d="M291 -230q-129 0 -194.5 43t-65.5 134q0 89 68.5 139t208.5 50h39v67q0 32 -6.5 56t-24.5 40t-49 24t-79 8q-24 0 -46.5 -1.5t-49.5 -5.5l12 133q20 4 41 5t53 1q149 0 228.5 -59.5t79.5 -180.5v-90h87v-133h-296q-57 0 -82 -11.5t-25 -34.5q0 -24 24.5 -36.5t88.5 -12.5
q44 0 93 5.5t106 14.5l-12 -132q-51 -11 -103 -17t-96 -6z" />
    <glyph glyph-name="uniFEA7" unicode="&#x62e;" horiz-adv-x="532" arabic-form="initial" 
d="M-10 133h315v65q0 72 -34 102.5t-116 30.5q-50 0 -105 -6l12 132q23 3 47 4.5t56 1.5q83 0 140 -19t92.5 -52.5t51 -78t15.5 -95.5v-218h-474v133zM186 493q-18 0 -34 7t-27.5 18.5t-18.5 27t-7 33.5t7 33.5t18.5 27t27.5 18.5t34 7t33.5 -7t27 -18.5t18 -27t6.5 -33.5
t-6.5 -33.5t-18 -27t-27 -18.5t-33.5 -7z" />
    <glyph glyph-name="uniFEA8" unicode="&#x62e;" horiz-adv-x="546" arabic-form="medial" 
d="M-8 133h315v65q0 72 -34 102.5t-116 30.5q-51 0 -106 -6l12 132q24 3 48 4.5t56 1.5q83 0 140 -19t92.5 -52.5t51 -78t15.5 -95.5v-85h87v-133h-561v133zM189 493q-18 0 -33.5 7t-27 18.5t-18.5 27t-7 33.5t7 33.5t18.5 27t27 18.5t33.5 7t33.5 -7t27 -18.5t18 -27
t6.5 -33.5t-6.5 -33.5t-18 -27t-27 -18.5t-33.5 -7z" />
    <glyph glyph-name="uniFEA6" unicode="&#x62e;" horiz-adv-x="588" arabic-form="final" 
d="M297 0q-57 0 -82 -11.5t-25 -34.5q0 -24 24.5 -36.5t88.5 -12.5q44 0 93 5.5t106 14.5l-12 -132q-51 -11 -103 -17t-96 -6q-129 0 -194.5 43t-65.5 134q0 89 68.5 139t208.5 50h39v67q0 32 -6.5 56t-24.5 40t-49 24t-79 8q-24 0 -46.5 -1.5t-49.5 -5.5l12 133q20 4 41 5
t53 1q149 0 228.5 -59.5t79.5 -180.5v-90h87v-133h-296zM247 493q-18 0 -33.5 7t-27 18.5t-18.5 27t-7 33.5t7 33.5t18.5 27t27 18.5t33.5 7t33.5 -7t27 -18.5t18 -27t6.5 -33.5t-6.5 -33.5t-18 -27t-27 -18.5t-33.5 -7z" />
    <glyph glyph-name="uniFEAA" unicode="&#x62f;" horiz-adv-x="504" arabic-form="final" 
d="M29 133h270q-2 30 -12.5 63.5t-35 65t-67.5 58.5t-109 44l12 136q99 -13 167.5 -49.5t112 -87t64 -110.5t23.5 -120h60v-133h-485v133z" />
    <glyph glyph-name="uniFEAC" unicode="&#x630;" horiz-adv-x="504" arabic-form="final" 
d="M29 133h270q-2 30 -12.5 63.5t-35 65t-67.5 58.5t-109 44l12 136q99 -13 167.5 -49.5t112 -87t64 -110.5t23.5 -120h60v-133h-485v133zM152 522q-18 0 -33.5 7t-27 18.5t-18.5 27t-7 33.5q0 17 7 32.5t18.5 27t27 18.5t33.5 7t33.5 -7t27 -18.5t18 -27t6.5 -32.5
q0 -18 -6.5 -33.5t-18 -27t-27 -18.5t-33.5 -7z" />
    <glyph glyph-name="uniFEAE" unicode="&#x631;" horiz-adv-x="339" arabic-form="final" 
d="M17 -231q-14 0 -31.5 1t-36.5 3l12 134q22 -2 36 -3.5t22 -1.5q49 0 72 23t23 85v453h156v-330h87v-133h-88q-2 -46 -14 -87.5t-40.5 -73.5t-76.5 -51t-121 -19z" />
    <glyph glyph-name="uniFEB0" unicode="&#x632;" horiz-adv-x="339" arabic-form="final" 
d="M17 -231q-14 0 -31.5 1t-36.5 3l12 134q22 -2 36 -3.5t22 -1.5q49 0 72 23t23 85v453h156v-330h87v-133h-88q-2 -46 -14 -87.5t-40.5 -73.5t-76.5 -51t-121 -19zM188 494q-18 0 -33.5 7t-27 18.5t-18.5 27t-7 33.5t7 33.5t18.5 27t27 18t33.5 6.5q35 0 60 -25t25 -60
q0 -18 -6.5 -33.5t-18 -27t-27 -18.5t-33.5 -7z" />
    <glyph glyph-name="uniFEB3" unicode="&#x633;" horiz-adv-x="858" arabic-form="initial" 
d="M302 -9q-38 0 -71 13t-59 46q-23 -32 -52 -41t-63 -9h-61v133h52q20 0 35 10.5t25 27.5t15 40t5 49v203h155v-260q0 -41 11.5 -58.5t32.5 -17.5q30 0 41 31t11 102v203h153v-276q0 -54 47 -54h38v122q0 67 -5.5 125.5t-14.5 110.5l156 20q9 -51 14 -113.5t5 -125.5v-272
h-199q-50 0 -85.5 13.5t-57.5 37.5q-23 -28 -55 -44t-73 -16z" />
    <glyph glyph-name="uniFEB4" unicode="&#x633;" horiz-adv-x="862" arabic-form="medial" 
d="M303 -9q-38 0 -71 13t-58 46q-24 -32 -53 -41t-62 -9h-61v133h52q20 0 35 10.5t24.5 27.5t14.5 40t5 49v203h156v-260q0 -41 11.5 -58.5t31.5 -17.5q30 0 41 31t11 102v203h154v-276q0 -54 47 -54h38v122q0 67 -5.5 125.5t-14.5 110.5l156 20q9 -51 13.5 -113.5
t4.5 -125.5v-139h78v-133h-276q-50 0 -85.5 13.5t-57.5 37.5q-23 -28 -55 -44t-74 -16z" />
    <glyph glyph-name="uniFEB2" unicode="&#x633;" horiz-adv-x="1156" arabic-form="final" 
d="M853 0q-50 0 -85.5 13.5t-57.5 37.5q-23 -28 -55 -44t-73 -16q-13 0 -28 3q-9 -61 -29.5 -103.5t-53 -69.5t-76.5 -39t-99 -12q-68 0 -116.5 23.5t-79 64.5t-45 97t-14.5 121q0 35 8 83.5t22 94.5l166 30q-20 -61 -30 -105.5t-10 -81.5q0 -100 24 -146.5t81 -46.5
q26 0 46 9.5t33.5 32.5t20 60t6.5 93v364h155v-260q0 -41 13 -58.5t29 -17.5q29 0 41 27.5t12 77.5v231h154v-276q0 -54 47 -54h38v121q0 67 -5.5 126t-14.5 111l156 20q9 -51 14 -114t5 -126v-138h78v-133h-277z" />
    <glyph glyph-name="uniFEB7" unicode="&#x634;" horiz-adv-x="858" arabic-form="initial" 
d="M302 -9q-38 0 -71 13t-59 46q-23 -32 -52 -41t-63 -9h-61v133h52q20 0 35 10.5t25 27.5t15 40t5 49v203h155v-260q0 -41 11.5 -58.5t32.5 -17.5q30 0 41 31t11 102v203h153v-276q0 -54 47 -54h38v122q0 67 -5.5 125.5t-14.5 110.5l156 20q9 -51 14 -113.5t5 -125.5v-272
h-199q-50 0 -85.5 13.5t-57.5 37.5q-23 -28 -55 -44t-73 -16zM473 614q-31 0 -51.5 22.5t-20.5 51.5q0 30 20.5 52t51.5 22t51.5 -22t20.5 -52q0 -29 -20.5 -51.5t-51.5 -22.5zM406 493q-32 0 -54 23.5t-22 56.5q0 16 6 30t16 25t24 17.5t30 6.5q34 0 55 -23.5t21 -55.5
q0 -33 -21 -56.5t-55 -23.5zM542 493q-32 0 -54 23.5t-22 56.5q0 16 6 30t16 25t24 17.5t30 6.5q34 0 55 -23.5t21 -55.5q0 -33 -21 -56.5t-55 -23.5z" />
    <glyph glyph-name="uniFEB8" unicode="&#x634;" horiz-adv-x="862" arabic-form="medial" 
d="M303 -9q-38 0 -71 13t-58 46q-24 -32 -53 -41t-62 -9h-61v133h52q20 0 35 10.5t24.5 27.5t14.5 40t5 49v203h156v-260q0 -41 11.5 -58.5t31.5 -17.5q30 0 41 31t11 102v203h154v-276q0 -54 47 -54h38v122q0 67 -5.5 125.5t-14.5 110.5l156 20q9 -51 13.5 -113.5
t4.5 -125.5v-139h78v-133h-276q-50 0 -85.5 13.5t-57.5 37.5q-23 -28 -55 -44t-74 -16zM542 493q-32 0 -54.5 23.5t-22.5 56.5q0 16 6 30t16.5 25t24.5 17.5t30 6.5q34 0 55 -23.5t21 -55.5q0 -33 -21 -56.5t-55 -23.5zM406 493q-32 0 -54.5 23.5t-22.5 56.5q0 16 6 30
t16.5 25t24.5 17.5t30 6.5q33 0 54.5 -23.5t21.5 -55.5q0 -33 -21.5 -56.5t-54.5 -23.5zM473 614q-31 0 -51.5 22.5t-20.5 51.5q0 30 20.5 52t51.5 22q30 0 51 -22t21 -52q0 -29 -21 -51.5t-51 -22.5z" />
    <glyph glyph-name="uniFEB6" unicode="&#x634;" horiz-adv-x="1156" arabic-form="final" 
d="M853 0q-50 0 -85.5 13.5t-57.5 37.5q-23 -28 -55 -44t-73 -16q-13 0 -28 3q-9 -61 -29.5 -103.5t-53 -69.5t-76.5 -39t-99 -12q-68 0 -116.5 23.5t-79 64.5t-45 97t-14.5 121q0 35 8 83.5t22 94.5l166 30q-20 -61 -30 -105.5t-10 -81.5q0 -100 24 -146.5t81 -46.5
q26 0 46 9.5t33.5 32.5t20 60t6.5 93v364h155v-260q0 -41 13 -58.5t29 -17.5q29 0 41 27.5t12 77.5v231h154v-276q0 -54 47 -54h38v121q0 67 -5.5 126t-14.5 111l156 20q9 -51 14 -114t5 -126v-138h78v-133h-277zM813 493q-32 0 -54.5 23.5t-22.5 56.5q0 16 6 30t16.5 25
t24.5 17.5t30 6.5q33 0 54.5 -23.5t21.5 -55.5q0 -33 -21.5 -56.5t-54.5 -23.5zM677 493q-33 0 -55 23.5t-22 56.5q0 32 22 55.5t55 23.5t54.5 -23.5t21.5 -55.5q0 -33 -21.5 -56.5t-54.5 -23.5zM744 614q-31 0 -52 22.5t-21 51.5q0 30 21 52t52 22q30 0 51 -22t21 -52
q0 -29 -21 -51.5t-51 -22.5z" />
    <glyph glyph-name="uniFEBB" unicode="&#x635;" horiz-adv-x="779" arabic-form="initial" 
d="M-5 133h111v330h155q0 -41 -0.5 -70t-2.5 -51q21 27 47.5 51.5t56.5 43t63 29.5t68 11q95 0 149.5 -57.5t54.5 -172.5v-247h-702v133zM534 133v102q0 57 -12.5 82t-46.5 25q-30 0 -59.5 -16t-56 -43.5t-49.5 -66t-42 -83.5h266z" />
    <glyph glyph-name="uniFEBC" unicode="&#x635;" horiz-adv-x="792" arabic-form="medial" 
d="M-3 133h111v330h155q0 -41 -1 -70t-3 -51q22 27 48 51.5t56 43t63.5 29.5t68.5 11q94 0 149 -57.5t55 -172.5v-114h86v-133h-788v133zM536 133v102q0 57 -13 82t-46 25q-30 0 -59.5 -16t-56 -43.5t-49.5 -66t-42 -83.5h266z" />
    <glyph glyph-name="uniFEBA" unicode="&#x635;" horiz-adv-x="1108" arabic-form="final" 
d="M554 0q-18 -124 -82.5 -177t-176.5 -53q-68 0 -116.5 23.5t-79 64.5t-45 97t-14.5 121q0 35 8 83.5t22 94.5l166 30q-20 -61 -30 -105.5t-10 -81.5q0 -100 24 -146.5t81 -46.5q27 0 47 9.5t33.5 31.5t20 57.5t6.5 87.5v373h155q0 -35 0.5 -52t1 -26.5t-0.5 -17t-4 -23.5
q20 25 45 49t54.5 42.5t63.5 30t71 11.5q94 0 149 -57.5t55 -172.5v-114h86v-133h-530zM835 133v102q0 57 -13 82t-46 25q-57 0 -112 -56t-94 -153h265z" />
    <glyph glyph-name="uniFEBF" unicode="&#x636;" horiz-adv-x="779" arabic-form="initial" 
d="M-5 133h111v330h155q0 -41 -0.5 -70t-2.5 -51q21 27 47.5 51.5t56.5 43t63 29.5t68 11q95 0 149.5 -57.5t54.5 -172.5v-247h-702v133zM534 133v102q0 57 -12.5 82t-46.5 25q-30 0 -59.5 -16t-56 -43.5t-49.5 -66t-42 -83.5h266zM419 501q-18 0 -33.5 7t-27 18.5t-18.5 27
t-7 33.5q0 17 7 32.5t18.5 27t27 18.5t33.5 7t33.5 -7t27 -18.5t18 -27t6.5 -32.5q0 -18 -6.5 -33.5t-18 -27t-27 -18.5t-33.5 -7z" />
    <glyph glyph-name="uniFEC0" unicode="&#x636;" horiz-adv-x="792" arabic-form="medial" 
d="M-3 133h111v330h155q0 -41 -1 -70t-3 -51q22 27 48 51.5t56 43t63.5 29.5t68.5 11q94 0 149 -57.5t55 -172.5v-114h86v-133h-788v133zM536 133v102q0 57 -13 82t-46 25q-30 0 -59.5 -16t-56 -43.5t-49.5 -66t-42 -83.5h266zM414 501q-18 0 -33.5 7t-27 18.5t-18.5 27
t-7 33.5q0 17 7 32.5t18.5 27t27 18.5t33.5 7t33.5 -7t27 -18.5t18 -27t6.5 -32.5q0 -18 -6.5 -33.5t-18 -27t-27 -18.5t-33.5 -7z" />
    <glyph glyph-name="uniFEBE" unicode="&#x636;" horiz-adv-x="1108" arabic-form="final" 
d="M554 0q-18 -124 -82.5 -177t-176.5 -53q-68 0 -116.5 23.5t-79 64.5t-45 97t-14.5 121q0 35 8 83.5t22 94.5l166 30q-20 -61 -30 -105.5t-10 -81.5q0 -100 24 -146.5t81 -46.5q27 0 47 9.5t33.5 31.5t20 57.5t6.5 87.5v373h155q0 -35 0.5 -52t1 -26.5t-0.5 -17t-4 -23.5
q20 25 45 49t54.5 42.5t63.5 30t71 11.5q94 0 149 -57.5t55 -172.5v-114h86v-133h-530zM835 133v102q0 57 -13 82t-46 25q-57 0 -112 -56t-94 -153h265zM729 501q-18 0 -33.5 7t-27 18.5t-18.5 27t-7 33.5q0 17 7 32.5t18.5 27t27 18.5t33.5 7t33.5 -7t27 -18.5t18 -27
t6.5 -32.5q0 -18 -6.5 -33.5t-18 -27t-27 -18.5t-33.5 -7z" />
    <glyph glyph-name="uniFEC3" unicode="&#x637;" horiz-adv-x="787" arabic-form="initial" 
d="M-5 133h119v573h156v-303v-30t-2 -28q20 26 45 50t54.5 42t62.5 29t70 11q96 0 150.5 -57.5t54.5 -172.5v-247h-710v133zM542 133v102q0 57 -13 82t-46 25q-32 0 -62.5 -17.5t-57 -46.5t-49 -66.5t-39.5 -78.5h267z" />
    <glyph glyph-name="uniFEC4" unicode="&#x637;" horiz-adv-x="800" arabic-form="medial" 
d="M-3 133h119v573h156v-303v-30t-2 -28q20 26 45 50t54 42t62.5 29t70.5 11q96 0 150.5 -57.5t54.5 -172.5v-114h86v-133h-796v133zM544 133v102q0 57 -13 82t-46 25t-63 -17.5t-56.5 -46.5t-49 -66.5t-39.5 -78.5h267z" />
    <glyph glyph-name="uniFEC2" unicode="&#x637;" horiz-adv-x="800" arabic-form="final" 
d="M-3 133h119v573h156v-303v-30t-2 -28q20 26 45 50t54 42t62.5 29t70.5 11q96 0 150.5 -57.5t54.5 -172.5v-114h86v-133h-796v133zM544 133v102q0 57 -13 82t-46 25t-63 -17.5t-56.5 -46.5t-49 -66.5t-39.5 -78.5h267z" />
    <glyph glyph-name="uniFEC7" unicode="&#x638;" horiz-adv-x="787" arabic-form="initial" 
d="M-5 133h119v573h156v-303v-30t-2 -28q20 26 45 50t54.5 42t62.5 29t70 11q96 0 150.5 -57.5t54.5 -172.5v-247h-710v133zM542 133v102q0 57 -13 82t-46 25q-32 0 -62.5 -17.5t-57 -46.5t-49 -66.5t-39.5 -78.5h267zM376 503q-18 0 -33.5 6.5t-27 18.5t-18.5 27.5t-7 33.5
q0 17 7 32.5t18.5 27t27 18.5t33.5 7q36 0 60.5 -25t24.5 -60q0 -36 -24.5 -61t-60.5 -25z" />
    <glyph glyph-name="uniFEC8" unicode="&#x638;" horiz-adv-x="800" arabic-form="medial" 
d="M-3 133h119v573h156v-303v-30t-2 -28q20 26 45 50t54 42t62.5 29t70.5 11q96 0 150.5 -57.5t54.5 -172.5v-114h86v-133h-796v133zM544 133v102q0 57 -13 82t-46 25t-63 -17.5t-56.5 -46.5t-49 -66.5t-39.5 -78.5h267zM379 502q-18 0 -33.5 6.5t-27 18.5t-18.5 27.5
t-7 33.5q0 17 7 32.5t18.5 27t27 18.5t33.5 7t33.5 -7t27 -18.5t18 -27t6.5 -32.5q0 -36 -25 -61t-60 -25z" />
    <glyph glyph-name="uniFEC6" unicode="&#x638;" horiz-adv-x="800" arabic-form="final" 
d="M-3 133h119v573h156v-303v-30t-2 -28q20 26 45 50t54 42t62.5 29t70.5 11q96 0 150.5 -57.5t54.5 -172.5v-114h86v-133h-796v133zM544 133v102q0 57 -13 82t-46 25t-63 -17.5t-56.5 -46.5t-49 -66.5t-39.5 -78.5h267zM381 502q-18 0 -33.5 6.5t-27 18.5t-18.5 27.5
t-7 33.5q0 17 7 32.5t18.5 27t27 18.5t33.5 7t33.5 -7t27 -18.5t18 -27t6.5 -32.5q0 -36 -25 -61t-60 -25z" />
    <glyph glyph-name="uniFECB" unicode="&#x639;" horiz-adv-x="533" arabic-form="initial" 
d="M-9 133h120q-19 28 -26 59t-7 62q0 49 20 90t54 70.5t80 46t98 16.5q58 0 122 -22l-25 -141q-27 11 -53 19t-49 8q-38 0 -66.5 -25.5t-28.5 -70.5q0 -21 7 -41t24.5 -35.5t46 -25.5t72.5 -10h113v-133h-502v133z" />
    <glyph glyph-name="uniFECC" unicode="&#x639;" horiz-adv-x="562" arabic-form="medial" 
d="M-8 133h68q39 0 73.5 6t67.5 17l-4 4q-16 15 -31.5 29.5t-35 28t-44.5 26.5t-59 25l15 123q63 44 127 69.5t130 25.5q55 0 96.5 -14.5t69.5 -39.5t41.5 -58.5t13.5 -71.5q0 -40 -19.5 -78t-55.5 -73q17 -9 34 -14t40 -5h49v-133h-54q-64 0 -112.5 16.5t-88.5 43.5
q-55 -28 -117.5 -44t-123.5 -16h-80v133zM318 219q4 3 6.5 6t5.5 6l13 -13zM320 242q3 -2 5 -5t5 -6q32 34 32 63q0 26 -19 41.5t-52 15.5q-21 0 -40.5 -6t-36.5 -14q30 -16 53.5 -38t52.5 -51z" />
    <glyph glyph-name="uniFECA" unicode="&#x639;" horiz-adv-x="585" arabic-form="final" 
d="M317 -230q-82 0 -137 13.5t-88 36.5t-47 55t-14 69q0 38 16.5 69t44 56t62.5 46t72 40q-36 36 -77 65.5t-100 48.5l16 123q62 44 126 69.5t130 25.5q54 0 95.5 -14t69 -39t42 -58.5t14.5 -72.5q0 -43 -18.5 -78.5t-56.5 -72.5q17 -8 34 -13.5t40 -5.5h49v-133h-53
q-66 0 -115 20.5t-88 49.5l-4 -2q-28 -14 -53 -28t-44.5 -28t-31 -28t-11.5 -29q0 -10 5 -19t20 -16t41.5 -11t68.5 -4q22 0 41.5 1t38 3t37 5t40.5 6l-11 -135q-36 -7 -74 -11t-80 -4zM341 220q2 3 5.5 5.5t6.5 5.5l13 -13zM235 330q41 -22 65 -45.5t53 -53.5
q14 14 22.5 30.5t8.5 32.5q0 26 -19 41.5t-51 15.5q-22 0 -42 -6t-37 -15z" />
    <glyph glyph-name="uniFECF" unicode="&#x63a;" horiz-adv-x="533" arabic-form="initial" 
d="M-9 133h120q-19 28 -26 59t-7 62q0 49 20 90t54 70.5t80 46t98 16.5q58 0 122 -22l-25 -141q-27 11 -53 19t-49 8q-38 0 -66.5 -25.5t-28.5 -70.5q0 -21 7 -41t24.5 -35.5t46 -25.5t72.5 -10h113v-133h-502v133zM275 502q-18 0 -33.5 6.5t-27 18.5t-18.5 27.5t-7 33.5
q0 17 7 32.5t18.5 27t27 18.5t33.5 7t33.5 -7t27 -18.5t18 -27t6.5 -32.5q0 -36 -25 -61t-60 -25z" />
    <glyph glyph-name="uniFED0" unicode="&#x63a;" horiz-adv-x="562" arabic-form="medial" 
d="M-8 133h68q39 0 73.5 6t67.5 17l-4 4q-16 15 -31.5 29.5t-35 28t-44.5 26.5t-59 25l15 123q63 44 127 69.5t130 25.5q55 0 96.5 -14.5t69.5 -39.5t41.5 -58.5t13.5 -71.5q0 -40 -19.5 -78t-55.5 -73q17 -9 34 -14t40 -5h49v-133h-54q-64 0 -112.5 16.5t-88.5 43.5
q-55 -28 -117.5 -44t-123.5 -16h-80v133zM318 219q4 3 6.5 6t5.5 6l13 -13zM320 242q3 -2 5 -5t5 -6q32 34 32 63q0 26 -19 41.5t-52 15.5q-21 0 -40.5 -6t-36.5 -14q30 -16 53.5 -38t52.5 -51zM270 516q-18 0 -33.5 6.5t-27 18.5t-18.5 27.5t-7 33.5q0 17 7 32.5t18.5 27
t27 18.5t33.5 7t33.5 -7t27 -18.5t18 -27t6.5 -32.5q0 -36 -25 -61t-60 -25z" />
    <glyph glyph-name="uniFECE" unicode="&#x63a;" horiz-adv-x="585" arabic-form="final" 
d="M317 -230q-82 0 -137 13.5t-88 36.5t-47 55t-14 69q0 38 16.5 69t44 56t62.5 46t72 40q-36 36 -77 65.5t-100 48.5l16 123q62 44 126 69.5t130 25.5q54 0 95.5 -14t69 -39t42 -58.5t14.5 -72.5q0 -43 -18.5 -78.5t-56.5 -72.5q17 -8 34 -13.5t40 -5.5h49v-133h-53
q-66 0 -115 20.5t-88 49.5l-4 -2q-28 -14 -53 -28t-44.5 -28t-31 -28t-11.5 -29q0 -10 5 -19t20 -16t41.5 -11t68.5 -4q22 0 41.5 1t38 3t37 5t40.5 6l-11 -135q-36 -7 -74 -11t-80 -4zM341 220q2 3 5.5 5.5t6.5 5.5l13 -13zM235 330q41 -22 65 -45.5t53 -53.5
q14 14 22.5 30.5t8.5 32.5q0 26 -19 41.5t-51 15.5q-22 0 -42 -6t-37 -15zM290 516q-36 0 -61 25.5t-25 61.5q0 17 6.5 32.5t18.5 27t27.5 18.5t33.5 7t33.5 -7t27 -18.5t18 -27t6.5 -32.5q0 -18 -6.5 -34t-18 -27.5t-27 -18.5t-33.5 -7z" />
    <glyph glyph-name="uniFED3" unicode="&#x641;" horiz-adv-x="612" arabic-form="initial" 
d="M-8 133h113q-10 20 -15 46.5t-5 61.5q0 43 15.5 85.5t46.5 76t75.5 54t103.5 20.5q53 0 94.5 -17.5t70 -48.5t43.5 -74.5t15 -94.5q0 -54 -19 -99t-52.5 -76.5t-80.5 -49t-103 -17.5h-302v133zM313 132q20 0 35 9.5t24.5 25t14.5 35.5t5 40q0 41 -19.5 69.5t-54.5 28.5
q-21 0 -35 -9.5t-23 -24.5t-12.5 -33.5t-3.5 -37.5q0 -21 4 -39.5t12.5 -32.5t21.5 -22.5t31 -8.5zM320 505q-18 0 -33.5 7t-27.5 18.5t-18.5 27t-6.5 33.5t6.5 33.5t18.5 27t27.5 18.5t33.5 7t33.5 -7t27 -18.5t18 -27t6.5 -33.5t-6.5 -33.5t-18 -27t-27 -18.5t-33.5 -7z
" />
    <glyph glyph-name="uniFED4" unicode="&#x641;" horiz-adv-x="604" arabic-form="medial" 
d="M306 504q-18 0 -33.5 7t-27 18.5t-18.5 27t-7 33.5t7 33.5t18.5 27t27 18.5t33.5 7t33.5 -7t27 -18.5t18 -27t6.5 -33.5t-6.5 -33.5t-18 -27t-27 -18.5t-33.5 -7zM-7 133h116q-22 47 -22 108q0 44 16 86.5t47 75.5t75.5 53.5t101.5 20.5q42 0 82.5 -14t71.5 -43t50 -73
t19 -105q0 -32 -8.5 -60.5t-18.5 -48.5h85v-133h-615v133zM314 132q20 0 35 10t24.5 25.5t14.5 35t5 39.5q0 45 -20.5 71.5t-53.5 26.5q-21 0 -35 -9t-23 -23.5t-12.5 -33.5t-3.5 -39t4 -38.5t12.5 -33t21.5 -23t31 -8.5z" />
    <glyph glyph-name="uniFED2" unicode="&#x641;" horiz-adv-x="884" arabic-form="final" 
d="M379 0q-104 0 -170.5 23.5t-104.5 65t-53 98t-15 122.5q0 13 2 29.5t5 34.5t6.5 35.5t7.5 32.5l168 30q-9 -26 -15.5 -46.5t-10 -38.5t-5.5 -34.5t-2 -34.5q0 -42 7.5 -74.5t29 -55.5t60.5 -36.5t101 -16.5q-8 20 -14 47.5t-6 59.5q0 45 16 87.5t46.5 75.5t75.5 53
t103 20q48 0 89 -16.5t71 -47t46.5 -74t16.5 -97.5q0 -33 -7.5 -61t-17.5 -48h64v-133h-494zM598 132q19 0 34 9t25 24.5t15 35.5t5 41q0 18 -4.5 35.5t-14 31.5t-23.5 22.5t-32 8.5q-38 0 -56.5 -30.5t-18.5 -74.5q0 -45 18.5 -74t51.5 -29zM601 505q-18 0 -33.5 7
t-27.5 18.5t-18.5 27t-6.5 33.5t6.5 33.5t18.5 27t27.5 18.5t33.5 7t33.5 -7t27 -18.5t18 -27t6.5 -33.5t-6.5 -33.5t-18 -27t-27 -18.5t-33.5 -7z" />
    <glyph glyph-name="uniFED7" unicode="&#x642;" horiz-adv-x="632" arabic-form="initial" 
d="M-8 133h113q-10 20 -15 46.5t-5 61.5q0 43 15.5 85.5t46.5 76t75.5 54t103.5 20.5q53 0 94.5 -17.5t70 -48.5t43.5 -74.5t15 -94.5q0 -54 -19 -99t-52.5 -76.5t-80.5 -49t-103 -17.5h-302v133zM313 132q20 0 35 9.5t24.5 25t14.5 35.5t5 40q0 41 -19.5 69.5t-54.5 28.5
q-21 0 -35 -9.5t-23 -24.5t-12.5 -33.5t-3.5 -37.5q0 -21 4 -39.5t12.5 -32.5t21.5 -22.5t31 -8.5zM243 504q-35 0 -59.5 25.5t-24.5 60.5t24.5 60.5t59.5 25.5q36 0 59 -25.5t23 -60.5t-23 -60.5t-59 -25.5zM394 504q-36 0 -60 25.5t-24 60.5t24 60.5t60 25.5t59 -25.5
t23 -60.5t-23 -60.5t-59 -25.5z" />
    <glyph glyph-name="uniFED8" unicode="&#x642;" horiz-adv-x="604" arabic-form="medial" 
d="M224 504q-35 0 -59 25.5t-24 60.5t24 60.5t59 25.5q37 0 60 -25.5t23 -60.5t-23 -60.5t-60 -25.5zM375 504q-35 0 -59 25.5t-24 60.5t24 60.5t59 25.5q36 0 59.5 -25.5t23.5 -60.5t-23.5 -60.5t-59.5 -25.5zM-7 133h116q-22 47 -22 108q0 44 16 86.5t47 75.5t75.5 53.5
t101.5 20.5q42 0 82.5 -14t71.5 -43t50 -73t19 -105q0 -32 -8.5 -60.5t-18.5 -48.5h85v-133h-615v133zM314 132q20 0 35 10t24.5 25.5t14.5 35t5 39.5q0 45 -20.5 71.5t-53.5 26.5q-21 0 -35 -9t-23 -23.5t-12.5 -33.5t-3.5 -39t4 -38.5t12.5 -33t21.5 -23t31 -8.5z" />
    <glyph glyph-name="uniFED6" unicode="&#x642;" horiz-adv-x="831" arabic-form="final" 
d="M405 -230q-99 0 -169 20t-115 58.5t-65.5 93.5t-20.5 125q0 15 2.5 38t7 48.5t10 50.5t12.5 45l169 31q-11 -24 -19 -52.5t-14 -56.5t-9 -53.5t-3 -43.5q0 -90 58.5 -129t168.5 -39q36 0 74.5 1t88.5 4v89h-36q-124 0 -183 59t-59 166q0 49 15 94.5t46.5 80.5t79.5 56
t114 21q42 0 87 -4.5t91 -12.5v-327h87v-133h-87v-216q-103 -9 -187 -11.5t-144 -2.5zM581 133v209q-8 2 -18 2.5t-16 0.5q-34 0 -59.5 -25t-25.5 -77q0 -23 5 -43t16 -35t29 -23.5t44 -8.5h25zM482 504q-35 0 -59 25.5t-24 60.5t24 60.5t59 25.5q36 0 59 -25.5t23 -60.5
t-23 -60.5t-59 -25.5zM633 504q-35 0 -59 25.5t-24 60.5t24 60.5t59 25.5q36 0 59 -25.5t23 -60.5t-23 -60.5t-59 -25.5z" />
    <glyph glyph-name="uniFEDB" unicode="&#x643;" horiz-adv-x="476" arabic-form="initial" 
d="M-10 133h276q-3 45 -21.5 85t-52.5 71.5t-85 51t-119 24.5v113q59 32 120.5 66t118.5 67q23 13 50.5 29t56 32t56 31.5t50.5 28.5v-170q-35 -18 -69 -36t-65 -34q-13 -6 -20.5 -10t-15.5 -7.5t-18.5 -9t-28.5 -14.5q53 -23 90.5 -58t61 -79.5t34.5 -97t11 -110.5v-106
h-430v133z" />
    <glyph glyph-name="uniFEDC" unicode="&#x643;" horiz-adv-x="479" arabic-form="medial" 
d="M-9 133h276q-3 45 -21.5 85t-52.5 71.5t-85 51t-119 24.5v113q59 32 120.5 66t118.5 67q23 13 50.5 29t56 32t56 31.5t50.5 28.5v-170q-35 -18 -69 -36t-65 -34q-13 -6 -20.5 -10t-15.5 -7.5t-18.5 -9t-28.5 -14.5q98 -44 144.5 -127.5t51.5 -190.5h70v-133h-499v133z
" />
    <glyph glyph-name="uniFEDA" unicode="&#x643;" horiz-adv-x="827" arabic-form="final" 
d="M407 0q-110 0 -181.5 24t-114 64t-59.5 93t-17 112q0 31 6 71t15 77l170 30q-20 -49 -28 -88t-8 -76q0 -41 11 -73t38 -54.5t72 -34.5t113 -12h153v573h156v-573h86v-133h-412zM267 407h26.5t26.5 -2q-1 5 -1 10.5v10.5q0 19 8 37.5t24 33t39.5 23t54.5 8.5q14 0 38 -6
t47 -17l-33 -90q-15 8 -30 13.5t-25 5.5q-6 0 -10.5 -2.5t-4.5 -7.5q0 -17 39 -17h67v-105h-266v105z" />
    <glyph glyph-name="uniFEDF" unicode="&#x644;" horiz-adv-x="345" arabic-form="initial" 
d="M-14 133h127v573h156v-706h-283v133z" />
    <glyph glyph-name="uniFEE0" unicode="&#x644;" horiz-adv-x="339" arabic-form="medial" 
d="M-12 133h127v573h155v-573h87v-133h-369v133z" />
    <glyph glyph-name="uniFEDE" unicode="&#x644;" horiz-adv-x="638" arabic-form="final" 
d="M286 -230q-68 0 -116 23t-78.5 64t-45 97t-14.5 122q0 15 2 37.5t6 47.5t9.5 49t11.5 44l168 30q-19 -51 -30.5 -101t-11.5 -86q0 -94 23.5 -143.5t82.5 -49.5q33 0 53.5 15t31.5 41.5t15 61.5t4 76v608h156v-573h87v-133h-94q-7 -51 -24 -93.5t-47.5 -72.5t-76.5 -47
t-112 -17z" />
    <glyph glyph-name="uniFEE3" unicode="&#x645;" horiz-adv-x="610" arabic-form="initial" 
d="M-8 133h55q13 0 23 8t17 20.5t10 28t3 30.5q0 66 17 114.5t48.5 80t76 47t98.5 15.5q50 0 88.5 -17.5t65 -50t40 -78t13.5 -100.5v-231h-200q-70 0 -114.5 19t-67.5 42q-18 -33 -50 -47t-87 -14h-36v133zM392 133v115q0 50 -18 73.5t-46 23.5q-29 0 -49 -26.5t-20 -68.5
q0 -63 22.5 -90t81.5 -27h29z" />
    <glyph glyph-name="uniFEE4" unicode="&#x645;" horiz-adv-x="634" arabic-form="medial" 
d="M349 0q-70 0 -115 19t-67 42q-18 -33 -50 -47t-87 -14h-36v133h55q13 0 23 8t16.5 20.5t10 28t3.5 30.5q0 66 17 114.5t48.5 80t76 47t98.5 15.5q50 0 88.5 -17.5t65 -50t40 -78t13.5 -100.5v-98h87v-133h-287zM393 133v115q0 50 -17.5 73.5t-45.5 23.5q-29 0 -49 -26.5
t-20 -68.5q0 -63 22.5 -90t81.5 -27h28z" />
    <glyph glyph-name="uniFEE2" unicode="&#x645;" horiz-adv-x="654" arabic-form="final" 
d="M2 -92q58 0 88 26t30 88v194q0 45 10.5 91.5t37.5 84t74 61.5t119 24q46 0 84 -15.5t65.5 -46.5t42.5 -77t15 -107v-98h87v-133h-285q-25 0 -51.5 5t-47.5 15q-2 -70 -25.5 -118t-62.5 -77t-88.5 -42t-102.5 -13zM412 133v115q0 19 -3 36.5t-10.5 31t-20 21.5t-30.5 8
q-31 0 -49.5 -28t-18.5 -67q0 -67 24.5 -92t79.5 -25h28z" />
    <glyph glyph-name="uniFEE7" unicode="&#x646;" horiz-adv-x="327" arabic-form="initial" 
d="M-13 133h129v330h155v-463h-284v133zM192 494q-18 0 -33.5 7t-27 18.5t-18.5 27t-7 33.5t7 33.5t18.5 27t27 18t33.5 6.5q35 0 60 -25t25 -60q0 -18 -6.5 -33.5t-18 -27t-27 -18.5t-33.5 -7z" />
    <glyph glyph-name="uniFEE8" unicode="&#x646;" horiz-adv-x="331" arabic-form="medial" 
d="M-12 133h130v330h154v-330h78v-133h-362v133zM194 494q-18 0 -33.5 7t-27 18.5t-18.5 27t-7 33.5t7 33.5t18.5 27t27 18t33.5 6.5q36 0 61 -25t25 -60q0 -18 -6.5 -33.5t-18.5 -27t-27.5 -18.5t-33.5 -7z" />
    <glyph glyph-name="uniFEE6" unicode="&#x646;" horiz-adv-x="637" arabic-form="final" 
d="M286 -230q-68 0 -116 23.5t-79 64.5t-45.5 97t-14.5 121q0 35 8 83.5t22 94.5l167 30q-21 -61 -31 -105.5t-10 -81.5q0 -100 24 -146.5t81 -46.5q27 0 46.5 9.5t33 32.5t20 60t6.5 93v364h155v-330h87v-133h-95q-18 -124 -82.5 -177t-176.5 -53zM295 280q-18 0 -33.5 6.5
t-27 18.5t-18.5 27.5t-7 33.5q0 17 7 32.5t18.5 27t27 18.5t33.5 7t33.5 -7t27 -18.5t18 -27t6.5 -32.5q0 -36 -25 -61t-60 -25z" />
    <glyph glyph-name="uniFEEB" unicode="&#x647;" horiz-adv-x="714" arabic-form="initial" 
d="M-6 133h107q-3 16 -3 33q0 37 13 68.5t36.5 54t56.5 35t74 12.5q92 0 132.5 -51.5t44.5 -151.5h36q-2 119 -48.5 180.5t-157.5 61.5q-44 0 -93.5 -8.5t-113.5 -25.5l9 137q52 15 106.5 22.5t105.5 7.5q79 0 143 -22t109 -68t69.5 -118t24.5 -172v-128h-651v133zM307 133
v22q0 23 -8.5 37.5t-26.5 14.5q-11 0 -18.5 -9.5t-7.5 -23.5q0 -13 8 -27t35 -14h18z" />
    <glyph glyph-name="uniFEEC" unicode="&#x647;" horiz-adv-x="728" arabic-form="medial" 
d="M-5 133h108q-3 16 -3 33q0 37 13 68.5t36.5 54t56.5 35t74 12.5q92 0 132.5 -51.5t43.5 -151.5h36q-1 60 -12 105t-35.5 75.5t-63.5 46t-94 15.5q-44 0 -93.5 -8.5t-113.5 -25.5l9 137q51 15 106 22.5t106 7.5q78 0 142 -21.5t109 -67.5t69.5 -116.5t25.5 -169.5h78v-133
h-730v133zM308 133v22q0 23 -8.5 37.5t-26.5 14.5q-11 0 -18.5 -9.5t-7.5 -23.5q0 -13 8.5 -27t35.5 -14h17z" />
    <glyph glyph-name="uniFEEA" unicode="&#x647;" horiz-adv-x="540" arabic-form="final" 
d="M272 0q-125 0 -183.5 60t-58.5 165q0 49 15 94.5t46.5 80.5t79.5 56t114 21q43 0 87.5 -4.5t90.5 -12.5v-327h85v-133h-276zM308 133v209q-8 2 -18 2.5t-16 0.5q-40 0 -62.5 -27t-22.5 -75q0 -22 5 -42t16 -35t29 -24t44 -9h25z" />
    <glyph glyph-name="uniFEEE" unicode="&#x648;" horiz-adv-x="549" arabic-form="final" 
d="M170 -230q-28 0 -66 3.5t-67 8.5l-8 143q42 -11 79 -15t70 -4q62 0 95.5 24.5t39.5 69.5h-34q-68 0 -114.5 17.5t-75 48t-41 71.5t-12.5 88q0 48 14.5 93t46 80.5t79.5 57t116 21.5q42 0 86.5 -4.5t90.5 -12.5v-327h87v-133h-87q-5 -41 -24 -82t-55 -74t-90.5 -53.5
t-129.5 -20.5zM315 133v209q-8 2 -18 2.5t-16 0.5q-38 0 -62 -27t-24 -75q0 -52 23 -81t72 -29h25z" />
    <glyph glyph-name="uniFBE8" unicode="&#x649;" horiz-adv-x="327" arabic-form="initial" 
d="M-14 133h130v330h155v-463h-285v133z" />
    <glyph glyph-name="uniFBE9" unicode="&#x649;" horiz-adv-x="341" arabic-form="medial" 
d="M-12 133h130v330h154v-330h87v-133h-371v133z" />
    <glyph glyph-name="uniFEF0" unicode="&#x649;" horiz-adv-x="1017" arabic-form="final" 
d="M757 242q0 54 -19 76.5t-67 22.5q-5 0 -9 -0.5t-9 -0.5v-340h-242q-110 0 -182 24t-114 64t-59 93t-17 112q0 31 6 71t15 77l169 30q-20 -49 -27.5 -88t-7.5 -76q0 -41 11 -73t38 -54.5t72 -34.5t112 -12h72v323q45 10 87.5 15.5t87.5 5.5q69 0 115 -16.5t73 -47t38 -74
t11 -96.5v-110h87v-133h-241v242z" />
    <glyph glyph-name="uniFEF3" unicode="&#x64a;" horiz-adv-x="327" arabic-form="initial" 
d="M-14 133h129v330h155v-463h-284v133zM33 -203q-35 0 -59 25.5t-24 60.5t24 60.5t59 25.5q36 0 59 -25.5t23 -60.5t-23 -60.5t-59 -25.5zM184 -203q-35 0 -59.5 25.5t-24.5 60.5t24.5 60.5t59.5 25.5q36 0 59 -25.5t23 -60.5t-23 -60.5t-59 -25.5z" />
    <glyph glyph-name="uniFEF4" unicode="&#x64a;" horiz-adv-x="341" arabic-form="medial" 
d="M-12 133h129v330h155v-330h87v-133h-371v133zM205 -203q-35 0 -59 25.5t-24 60.5t24 60.5t59 25.5q36 0 59.5 -25.5t23.5 -60.5t-23.5 -60.5t-59.5 -25.5zM54 -203q-35 0 -59 25.5t-24 60.5t24 60.5t59 25.5q37 0 60 -25.5t23 -60.5t-23 -60.5t-60 -25.5z" />
    <glyph glyph-name="uniFEF2" unicode="&#x64a;" horiz-adv-x="1017" arabic-form="final" 
d="M757 242q0 54 -19 76.5t-67 22.5q-5 0 -9 -0.5t-9 -0.5v-340h-242q-110 0 -182 24t-114 64t-59 93t-17 112q0 31 6 71t15 77l169 30q-20 -49 -27.5 -88t-7.5 -76q0 -41 11 -73t38 -54.5t72 -34.5t112 -12h72v323q45 10 87.5 15.5t87.5 5.5q69 0 115 -16.5t73 -47t38 -74
t11 -96.5v-110h87v-133h-241v242zM309 -203q-35 0 -59 25.5t-24 60.5t24 60.5t59 25.5q36 0 59 -25.5t23 -60.5t-23 -60.5t-59 -25.5zM460 -203q-36 0 -60 25.5t-24 60.5t24 60.5t60 25.5t59 -25.5t23 -60.5t-23 -60.5t-59 -25.5z" />
    <glyph glyph-name="uniFB51" unicode="&#x671;" horiz-adv-x="320" arabic-form="final" 
d="M-3 702h47q19 51 58.5 86.5t97.5 35.5q48 0 77 -25.5t29 -83.5v-100h-309v87zM200 702v4q0 17 -2 23t-5 6q-11 0 -21.5 -9.5t-18.5 -23.5h47zM116 465q-6 1 -12.5 1h-11.5l-57 4v108q46 7 93.5 11t90.5 4q8 0 26 -0.5t26 -0.5v-459h69v-133h-224v465z" />
    <glyph glyph-name="uniFB58" unicode="&#x67e;" horiz-adv-x="327" arabic-form="initial" 
d="M-9 133h130v330h154v-463h-284v133zM121 -305q-30 0 -51 22.5t-21 51.5q0 30 21 52t51 22q31 0 52 -22t21 -52q0 -29 -21 -51.5t-52 -22.5zM55 -188q-33 0 -55 23.5t-22 56.5q0 32 22 55t55 23t54.5 -23t21.5 -55q0 -33 -21.5 -56.5t-54.5 -23.5zM191 -188
q-33 0 -55 23.5t-22 56.5q0 32 22 55t55 23t54.5 -23t21.5 -55q0 -33 -21.5 -56.5t-54.5 -23.5z" />
    <glyph glyph-name="uniFB59" unicode="&#x67e;" horiz-adv-x="342" arabic-form="medial" 
d="M-11 133h130v330h154v-330h87v-133h-371v133zM215 -190q-33 0 -55 23.5t-22 56.5q0 32 22 55.5t55 23.5t54.5 -23.5t21.5 -55.5q0 -33 -21.5 -56.5t-54.5 -23.5zM79 -190q-33 0 -55 23.5t-22 56.5q0 32 22 55.5t55 23.5t54.5 -23.5t21.5 -55.5q0 -33 -21.5 -56.5
t-54.5 -23.5zM146 -307q-31 0 -52 22.5t-21 51.5q0 30 21 52t52 22q30 0 51 -22t21 -52q0 -29 -21 -51.5t-51 -22.5z" />
    <glyph glyph-name="uniFB57" unicode="&#x67e;" horiz-adv-x="763" arabic-form="final" 
d="M406 0q-110 0 -182 24t-114 64t-59 93t-17 112q0 31 6 71t15 77l169 30q-19 -49 -27 -88t-8 -76q0 -41 11 -73t38 -54.5t72 -34.5t113 -12h106v330h155v-330h74v-133h-352zM435 -308q-31 0 -52 22.5t-21 51.5q0 31 21 52.5t52 21.5q30 0 51 -21.5t21 -52.5
q0 -29 -21 -51.5t-51 -22.5zM368 -191q-33 0 -55 23.5t-22 56.5q0 32 22 55.5t55 23.5t54.5 -23.5t21.5 -55.5q0 -33 -21.5 -56.5t-54.5 -23.5zM504 -191q-33 0 -55 23.5t-22 56.5q0 32 22 55.5t55 23.5t54.5 -23.5t21.5 -55.5q0 -33 -21.5 -56.5t-54.5 -23.5z" />
    <glyph glyph-name="uniFB7C" unicode="&#x686;" horiz-adv-x="532" arabic-form="initial" 
d="M-10 133h315v65q0 72 -34 102.5t-116 30.5q-50 0 -105 -6l12 132q23 3 47 4.5t56 1.5q83 0 140 -19t92.5 -52.5t51 -78t15.5 -95.5v-218h-474v133zM190 -307q-31 0 -51.5 22.5t-20.5 51.5q0 30 20.5 52t51.5 22t51.5 -22t20.5 -52q0 -29 -20.5 -51.5t-51.5 -22.5z
M124 -190q-33 0 -55 23.5t-22 56.5q0 32 22 55.5t55 23.5t54 -23.5t21 -55.5q0 -33 -21 -56.5t-54 -23.5zM260 -190q-33 0 -55 23.5t-22 56.5q0 32 22 55.5t55 23.5t54 -23.5t21 -55.5q0 -33 -21 -56.5t-54 -23.5z" />
    <glyph glyph-name="uniFB7D" unicode="&#x686;" horiz-adv-x="546" arabic-form="medial" 
d="M-8 133h315v65q0 72 -34 102.5t-116 30.5q-51 0 -106 -6l12 132q24 3 48 4.5t56 1.5q83 0 140 -19t92.5 -52.5t51 -78t15.5 -95.5v-85h87v-133h-561v133zM263 -191q-32 0 -54.5 23.5t-22.5 56.5q0 32 22.5 55.5t54.5 23.5q34 0 55 -23.5t21 -55.5q0 -33 -21 -56.5
t-55 -23.5zM127 -191q-32 0 -54.5 23.5t-22.5 56.5q0 32 22.5 55.5t54.5 23.5q34 0 55 -23.5t21 -55.5q0 -33 -21 -56.5t-55 -23.5zM194 -308q-31 0 -51.5 22.5t-20.5 51.5q0 31 20.5 52.5t51.5 21.5t51.5 -21.5t20.5 -52.5q0 -29 -20.5 -51.5t-51.5 -22.5z" />
    <glyph glyph-name="uniFB7B" unicode="&#x686;" horiz-adv-x="588" arabic-form="final" 
d="M273 -230q-54 0 -98.5 11t-76.5 33t-49.5 55t-17.5 78q0 89 69 139t209 50h71v67q0 34 -8 58.5t-26.5 40t-49 22.5t-75.5 7h-15h-14.5t-15 -0.5t-20.5 -2t-31 -3.5l12 132q14 2 23.5 3.5t18 2t16.5 0.5h19h17q82 0 140.5 -17.5t95.5 -49t54.5 -76t17.5 -97.5v-90h87v-133
h-328q-57 0 -82.5 -11.5t-25.5 -34.5q0 -49 99 -49zM506 -191q-33 0 -55 23.5t-22 56.5q0 32 22 55.5t55 23.5t54.5 -23.5t21.5 -55.5q0 -33 -21.5 -56.5t-54.5 -23.5zM370 -191q-33 0 -55 23.5t-22 56.5q0 32 22 55.5t55 23.5t54.5 -23.5t21.5 -55.5q0 -33 -21.5 -56.5
t-54.5 -23.5zM437 -308q-31 0 -52 22.5t-21 51.5q0 31 21 52.5t52 21.5q30 0 51 -21.5t21 -52.5q0 -29 -21 -51.5t-51 -22.5z" />
    <glyph glyph-name="uniFB8B" unicode="&#x698;" horiz-adv-x="339" arabic-form="final" 
d="M17 -231q-14 0 -31.5 1t-36.5 3l12 134q22 -2 36 -3.5t22 -1.5q49 0 72 23t23 85v453h156v-330h87v-133h-88q-2 -46 -14 -87.5t-40.5 -73.5t-76.5 -51t-121 -19zM123 493q-32 0 -54 23.5t-22 56.5q0 16 6 30t16 25t24 17.5t30 6.5q34 0 55 -23.5t21 -55.5
q0 -33 -21 -56.5t-55 -23.5zM259 493q-32 0 -54 23.5t-22 56.5q0 16 6 30t16 25t24 17.5t30 6.5q34 0 55 -23.5t21 -55.5q0 -33 -21 -56.5t-55 -23.5zM190 614q-31 0 -51.5 22.5t-20.5 51.5q0 30 20.5 52t51.5 22t51.5 -22t20.5 -52q0 -29 -20.5 -51.5t-51.5 -22.5z" />
    <glyph glyph-name="uniFB6C" unicode="&#x6a4;" horiz-adv-x="612" arabic-form="initial" 
d="M-8 133h113q-10 20 -15 46.5t-5 61.5q0 43 15.5 85.5t46.5 76t75.5 54t103.5 20.5q53 0 94.5 -17.5t70 -48.5t43.5 -74.5t15 -94.5q0 -54 -19 -99t-52.5 -76.5t-80.5 -49t-103 -17.5h-302v133zM313 132q20 0 35 9.5t24.5 25t14.5 35.5t5 40q0 41 -19.5 69.5t-54.5 28.5
q-21 0 -35 -9.5t-23 -24.5t-12.5 -33.5t-3.5 -37.5q0 -21 4 -39.5t12.5 -32.5t21.5 -22.5t31 -8.5zM332 626q-31 0 -52 22.5t-21 51.5q0 30 21 52t52 22q30 0 51 -22t21 -52q0 -29 -21 -51.5t-51 -22.5zM265 505q-33 0 -55 23.5t-22 56.5q0 32 22 55.5t55 23.5t54.5 -23.5
t21.5 -55.5q0 -33 -21.5 -56.5t-54.5 -23.5zM401 505q-32 0 -54.5 23.5t-22.5 56.5q0 16 6 30t16.5 25t24.5 17.5t30 6.5q33 0 54.5 -23.5t21.5 -55.5q0 -33 -21.5 -56.5t-54.5 -23.5z" />
    <glyph glyph-name="uniFB6D" unicode="&#x6a4;" horiz-adv-x="604" arabic-form="medial" 
d="M309 626q-31 0 -51.5 22.5t-20.5 51.5q0 30 20.5 52t51.5 22q30 0 51 -22t21 -52q0 -29 -21 -51.5t-51 -22.5zM242 505q-32 0 -54.5 23.5t-22.5 56.5q0 16 6 30t16.5 25t24.5 17.5t30 6.5q33 0 54.5 -23.5t21.5 -55.5q0 -33 -21.5 -56.5t-54.5 -23.5zM378 505
q-32 0 -54.5 23.5t-22.5 56.5q0 16 6 30t16.5 25t24.5 17.5t30 6.5q34 0 55 -23.5t21 -55.5q0 -33 -21 -56.5t-55 -23.5zM-7 133h116q-22 47 -22 108q0 44 16 86.5t47 75.5t75.5 53.5t101.5 20.5q42 0 82.5 -14t71.5 -43t50 -73t19 -105q0 -32 -8.5 -60.5t-18.5 -48.5h85
v-133h-615v133zM314 132q20 0 35 10t24.5 25.5t14.5 35t5 39.5q0 45 -20.5 71.5t-53.5 26.5q-21 0 -35 -9t-23 -23.5t-12.5 -33.5t-3.5 -39t4 -38.5t12.5 -33t21.5 -23t31 -8.5z" />
    <glyph glyph-name="uniFB6B" unicode="&#x6a4;" horiz-adv-x="884" arabic-form="final" 
d="M379 0q-104 0 -170.5 23.5t-104.5 65t-53 98t-15 122.5q0 13 2 29.5t5 34.5t6.5 35.5t7.5 32.5l168 30q-9 -26 -15.5 -46.5t-10 -38.5t-5.5 -34.5t-2 -34.5q0 -42 7.5 -74.5t29 -55.5t60.5 -36.5t101 -16.5q-8 20 -14 47.5t-6 59.5q0 45 16 87.5t46.5 75.5t75.5 53
t103 20q48 0 89 -16.5t71 -47t46.5 -74t16.5 -97.5q0 -33 -7.5 -61t-17.5 -48h64v-133h-494zM598 132q19 0 34 9t25 24.5t15 35.5t5 41q0 18 -4.5 35.5t-14 31.5t-23.5 22.5t-32 8.5q-38 0 -56.5 -30.5t-18.5 -74.5q0 -45 18.5 -74t51.5 -29zM605 626q-30 0 -51 22.5
t-21 51.5q0 30 21 52t51 22q31 0 51.5 -22t20.5 -52q0 -29 -20.5 -51.5t-51.5 -22.5zM539 505q-33 0 -55 23.5t-22 56.5q0 32 22 55.5t55 23.5t54.5 -23.5t21.5 -55.5q0 -33 -21.5 -56.5t-54.5 -23.5zM675 505q-33 0 -55 23.5t-22 56.5q0 32 22 55.5t55 23.5t54.5 -23.5
t21.5 -55.5q0 -33 -21.5 -56.5t-54.5 -23.5z" />
    <glyph glyph-name="uniFB90" unicode="&#x6a9;" horiz-adv-x="476" arabic-form="initial" 
d="M-10 133h276q-3 45 -21.5 85t-52.5 71.5t-85 51t-119 24.5v113q59 32 120.5 66t118.5 67q23 13 50.5 29t56 32t56 31.5t50.5 28.5v-170q-35 -18 -69 -36t-65 -34q-13 -6 -20.5 -10t-15.5 -7.5t-18.5 -9t-28.5 -14.5q53 -23 90.5 -58t61 -79.5t34.5 -97t11 -110.5v-106
h-430v133z" />
    <glyph glyph-name="uniFB91" unicode="&#x6a9;" horiz-adv-x="479" arabic-form="medial" 
d="M-9 133h276q-3 45 -21.5 85t-52.5 71.5t-85 51t-119 24.5v113q59 32 120.5 66t118.5 67q23 13 50.5 29t56 32t56 31.5t50.5 28.5v-170q-35 -18 -69 -36t-65 -34q-13 -6 -20.5 -10t-15.5 -7.5t-18.5 -9t-28.5 -14.5q98 -44 144.5 -127.5t51.5 -190.5h70v-133h-499v133z
" />
    <glyph glyph-name="uniFB8F" unicode="&#x6a9;" horiz-adv-x="855" arabic-form="final" 
d="M408 0q-110 0 -182 24t-114 64t-59 93t-17 112q0 31 6 71t15 77l169 30q-20 -49 -27.5 -88t-7.5 -76q0 -41 11 -73t38 -54.5t72 -34.5t112 -12h198q-4 44 -21.5 86t-51 75t-84 53t-120.5 21v110q67 35 139 75.5t140 80.5q18 10 40 23t45.5 26.5t45.5 26t40 22.5v-152
q-17 -9 -38.5 -20t-38.5 -21q-24 -14 -41 -24t-33.5 -19.5t-35 -18.5t-44.5 -20q52 -20 91 -53t64.5 -75.5t39.5 -92.5t17 -103h69v-133h-437z" />
    <glyph glyph-name="uniFB94" unicode="&#x6af;" horiz-adv-x="482" arabic-form="initial" 
d="M-12 619l441 258v-141l-441 -258v141zM-5 133h276q-3 45 -21 85t-52 71.5t-85 51t-119 24.5v113q58 32 119.5 66t118.5 67q23 13 50.5 29t56 32t56 31.5t50.5 28.5v-170l-68 -36t-65 -34q-13 -6 -20.5 -10t-15.5 -7.5t-18.5 -9t-28.5 -14.5q52 -23 89.5 -58t61.5 -79.5
t35 -97t11 -110.5v-106h-431v133z" />
    <glyph glyph-name="uniFB95" unicode="&#x6af;" horiz-adv-x="483" arabic-form="medial" 
d="M-5 133h275q-3 45 -21 85t-52 71.5t-85 51t-119 24.5v113q58 32 119.5 66t118.5 67q23 13 51 29t56.5 32t55.5 31.5t50 28.5v-170l-68 -36t-65 -34q-13 -6 -20.5 -10t-15.5 -7.5t-18.5 -9t-28.5 -14.5q98 -44 144.5 -127.5t51.5 -190.5h69v-133h-498v133zM-11 619
l440 258v-141l-440 -258v141z" />
    <glyph glyph-name="uniFB93" unicode="&#x6af;" horiz-adv-x="855" arabic-form="final" 
d="M408 0q-110 0 -182 24t-114 64t-59 93t-17 112q0 31 6 71t15 77l169 30q-20 -49 -27.5 -88t-7.5 -76q0 -41 11 -73t38 -54.5t72 -34.5t112 -12h198q-4 44 -21.5 86t-51 75t-84 53t-120.5 21v110q67 35 139 75.5t140 80.5q18 10 40 23t45.5 26.5t45.5 26t40 22.5v-152
q-17 -9 -38.5 -20t-38.5 -21q-24 -14 -41 -24t-33.5 -19.5t-35 -18.5t-44.5 -20q52 -20 91 -53t64.5 -75.5t39.5 -92.5t17 -103h69v-133h-437zM345 619l440 258v-141l-440 -258v141z" />
    <glyph glyph-name="uniFB9F" unicode="&#x6ba;" horiz-adv-x="637" arabic-form="final" 
d="M286 -230q-68 0 -116 23.5t-79 64.5t-45.5 97t-14.5 121q0 35 8 83.5t22 94.5l167 30q-21 -61 -31 -105.5t-10 -81.5q0 -100 24 -146.5t81 -46.5q27 0 46.5 9.5t33 32.5t20 60t6.5 93v364h155v-330h87v-133h-95q-18 -124 -82.5 -177t-176.5 -53z" />
    <glyph glyph-name="uniFBFE" unicode="&#x6cc;" horiz-adv-x="327" arabic-form="initial" 
d="M-13 133h129v330h155v-463h-284v133zM34 -203q-35 0 -59 25.5t-24 60.5t24 60.5t59 25.5q36 0 59 -25.5t23 -60.5t-23 -60.5t-59 -25.5zM185 -203q-35 0 -59.5 25.5t-24.5 60.5t24.5 60.5t59.5 25.5q36 0 59 -25.5t23 -60.5t-23 -60.5t-59 -25.5z" />
    <glyph glyph-name="uniFBFF" unicode="&#x6cc;" horiz-adv-x="341" arabic-form="medial" 
d="M-12 133h130v330h154v-330h87v-133h-371v133zM214 -203q-35 0 -59 25.5t-24 60.5t24 60.5t59 25.5q36 0 59 -25.5t23 -60.5t-23 -60.5t-59 -25.5zM63 -203q-35 0 -59 25.5t-24 60.5t24 60.5t59 25.5q36 0 59 -25.5t23 -60.5t-23 -60.5t-59 -25.5z" />
    <glyph glyph-name="uniFBFD" unicode="&#x6cc;" horiz-adv-x="1017" arabic-form="final" 
d="M757 242q0 54 -19 76.5t-67 22.5q-5 0 -9 -0.5t-9 -0.5v-340h-242q-110 0 -182 24t-114 64t-59 93t-17 112q0 31 6 71t15 77l169 30q-20 -49 -27.5 -88t-7.5 -76q0 -41 11 -73t38 -54.5t72 -34.5t112 -12h72v323q45 10 87.5 15.5t87.5 5.5q69 0 115 -16.5t73 -47t38 -74
t11 -96.5v-110h87v-133h-241v242z" />
    <glyph glyph-name="uniFC5E" unicode="&#xfc5e;" horiz-adv-x="312" arabic-form="isolated" 
d="M88 630q-56 0 -66 55l1 -1q-3 11 -7.5 31t-7.5 31q13 5 38.5 12.5t44.5 12.5l14 -63l-1 1q0 -1 0.5 -1.5t0.5 -1.5v-1q5 0 5 8v3t-1.5 6.5t-4.5 14.5t-8 28q7 3 17.5 6.5t22 7t23 6.5t20.5 5l18 -67q0 3 2 3q-1 0 -1 1v4q0 7 -3 18t-8 22l-9 27q1 0 5 1.5t9 3t10 2.5t7 2
q9 3 22.5 6.5t31.5 7.5q0 -2 1.5 -6.5t3 -9.5t3 -9.5t1.5 -5.5q0 2 0.5 0.5t0.5 -3.5q4 -15 7.5 -28t3.5 -21q0 -21 -9 -37t-23 -27t-31.5 -16.5t-34.5 -5.5q-16 0 -29 5q-3 -3 -7 -5q-10 -9 -24 -15.5t-38 -6.5zM-22 900l86 19l15 -66q0 2 -0.5 7t-0.5 7q-2 20 6 37.5
t22 30.5t33 21t40 8q33 3 56 -17.5t25 -58.5q1 -28 -17.5 -51t-68.5 -36l-162 -38zM164 874q7 2 6 8v4t-1 2q-8 0 -6 -13v-1h1z" />
    <glyph glyph-name="uniFC5F" unicode="&#xfc5f;" horiz-adv-x="335" arabic-form="isolated" 
d="M90 775q-57 0 -67 54l1 -1q-2 6 -3.5 14t-4 17t-4.5 17.5t-3 13.5q14 6 39 13.5t44 11.5l14 -63l-1 1l1 -2v-1q5 0 5 7v3.5t-1.5 6.5l-4.5 15t-8 28q7 3 17.5 6t22.5 6.5t23 7t20 5.5l18 -68q0 3 3 3q-1 0 -1 1v5q0 7 -3.5 17.5t-7.5 21.5q-1 2 -5 13.5t-5 13.5
q1 0 5 1.5t9 3l10 3t7 1.5q9 3 23 7t32 7q0 -1 1.5 -5.5t2.5 -9.5t2.5 -9.5t1.5 -5.5q0 2 2 -4q3 -14 6.5 -27.5t3.5 -21.5q0 -21 -9 -37t-23 -27t-31.5 -16.5t-34.5 -5.5q-8 0 -15 1.5t-14 3.5q-2 -1 -6 -5q-10 -8 -24.5 -14.5t-37.5 -6.5zM58 681l253 47l11 -83l-253 -47z
M43 761l253 48l17 -82l-254 -48z" />
    <glyph glyph-name="uniFC60" unicode="&#xfc60;" horiz-adv-x="314" arabic-form="isolated" 
d="M100 611q-55 0 -67 54h1q-1 5 -3 13.5t-4 17.5t-4 17t-3 14q13 5 38.5 12.5t44.5 12.5l14 -63l-1 1q0 -1 0.5 -1.5t0.5 -1.5v-1q4 0 4 7v3.5t-1.5 6.5t-4 15t-7.5 28q7 3 17.5 6t22 6.5l23 7t20.5 5.5l17 -68q0 3 3 3q-1 0 -1 1v5q0 7 -3 18t-8 22q-1 2 -4.5 13t-4.5 13
q2 1 14 4.5t16 5.5q9 2 23 6t32 7q0 -1 1.5 -5.5t2.5 -9.5t2.5 -9.5t1.5 -5.5q0 2 2 -4q4 -14 7 -27.5t3 -21.5q0 -21 -9 -37t-23 -27t-31.5 -16.5t-34.5 -5.5q-8 0 -15 2t-13 4q-2 -2 -3.5 -3t-3.5 -3q-10 -8 -24 -14.5t-38 -6.5zM0 826l252 61l16 -82l-251 -59z" />
    <glyph glyph-name="uniFC61" unicode="&#xfc61;" horiz-adv-x="312" arabic-form="isolated" 
d="M22 823l52 10q0 3 -0.5 6.5t-0.5 6.5q-2 19 5 36t20.5 30.5t32 21.5t39.5 10h-1q35 3 59 -18.5t26 -57.5q3 -29 -15.5 -52t-70.5 -37l-129 -29zM63 742q-4 -2 -2 -2zM286 679l-3 -3q3 1 3 3zM90 611l-5 2q-3 0 -5.5 -0.5t-6.5 2.5q-14 7 -25 19.5t-14 30.5q-1 6 -3 15
t-4 19.5t-4 19.5t-3 15l21 1q3 1 9 1q1 0 1 0.5t1 0.5l-5 -1l11 3h-4q4 0 7 1q1 0 8.5 2t11.5 4q1 0 2.5 0.5t2.5 0.5q-2 0 0 1q2 2 16 9l15 -69v-2q2 0 3 1l2 6q0 3 -1 6v1q0 1 -0.5 1t-0.5 1v2v-3l1 -1q0 1 -0.5 1t-0.5 1q-2 3 -3 9q-2 4 -2 5q-2 5 -2 7.5v5.5q0 2 -0.5 3
t-0.5 3t2 6.5t8 12.5h9l5 1l-7 -1q7 2 17 5.5t24 6.5q2 0 4 1q-1 0 2 2t14 8l18 -71l1 -1q0 -1 1 -1l3 -2l-4 4h1q0 3 1 7l-1 1q0 1 -0.5 4t-0.5 4v4q2 5 1 12q-3 2 -5 4q-5 3 -5 6q-1 3 -2 7t-2 6q0 6 -0.5 11t11.5 9l2 2q2 2 3 2q2 2 7 2q3 2 8 2q4 2 7 2q2 1 5 2t5 2l2 1
h2q2 0 3 1q-1 0 -1 1h32l1 -20v-1q3 -8 5.5 -17.5t4.5 -18.5q2 -2 1.5 -4t-0.5 -5q0 -1 0.5 -0.5t0.5 -0.5q1 -3 1 -6.5v-6.5q0 -13 -8 -34l-1 -1l-5 -8l1 1q-11 -14 -20.5 -22t-20.5 -13q-4 0 -14 -4q-2 -1 -4.5 -2t-7.5 -2q-3 -1 -6.5 -1h-6.5h-15l-6 1q-9 1 -14 4
q-2 -2 -7 -6.5t-8 -6.5q-9 -6 -20.5 -9.5t-31.5 -3.5h-11zM161 853q7 2 5 10q0 2 -0.5 4t-1.5 2q-6 -4 -5 -16v-1z" />
    <glyph glyph-name="uniFC62" unicode="&#xfc62;" horiz-adv-x="326" arabic-form="isolated" 
d="M90 665q-57 0 -67 55l1 -1q-3 11 -7.5 31t-7.5 31q14 6 39 13.5t44 11.5l14 -63l-1 1q0 -1 0.5 -1.5t0.5 -1.5v-1q5 0 5 8v3t-1.5 7l-4.5 15t-8 28q7 3 17.5 6t22 6.5l23 7t20.5 5.5l18 -68q0 3 3 3q-1 0 -1 1v4q0 8 -3.5 18.5t-7.5 21.5q-1 2 -5 13.5t-5 13.5q1 0 5 1.5
t9 3t10 2.5t7 2q9 3 22.5 6.5t31.5 7.5q0 -2 1.5 -6.5t3 -9.5t3 -9t1.5 -5q0 2 2 -4q3 -15 6.5 -28t3.5 -21q0 -21 -9 -37t-23 -27t-31.5 -16.5t-34.5 -5.5q-8 0 -15.5 1.5t-13.5 3.5q-2 -2 -3.5 -2.5t-2.5 -2.5q-10 -8 -24.5 -15t-37.5 -7zM42 652l254 48l17 -82l-254 -48z
" />
    <glyph glyph-name="uniFC63" unicode="&#xfc63;" horiz-adv-x="312" arabic-form="isolated" 
d="M89 641q-55 0 -67 55l1 -1q-2 11 -7 31t-8 31q14 5 39.5 13t44.5 12l14 -63l-1 1q0 -1 0.5 -1.5t0.5 -1.5v-1q4 0 4 8v3t-1.5 7l-4.5 15t-8 28q7 3 18 6t22.5 6.5t23 6.5t20.5 5l17 -67q0 3 3 3q-1 0 -1 1v4q0 8 -3 18.5t-8 21.5l-9 27q2 1 14 4t16 5q20 7 55 14
q0 -2 1.5 -6.5t2.5 -9.5t2.5 -9.5t1.5 -5.5q0 3 2 -3q4 -15 7 -28t3 -21q0 -21 -9 -37t-23 -27t-31.5 -16.5t-34.5 -5.5q-14 0 -29 5q-1 -2 -2.5 -2.5t-3.5 -2.5q-10 -8 -24.5 -15t-37.5 -7zM100 964h82v-165l-82 -12v177z" />
    <glyph glyph-name="uniFEFB" unicode="&#xfefb;" horiz-adv-x="593" arabic-form="isolated" 
d="M241 -9q-40 0 -81.5 6t-79.5 16l16 156q40 -17 79.5 -26t71.5 -9q57 0 84 19t27 63v490h155v-481q0 -51 -15 -94t-48 -74t-84.5 -48.5t-124.5 -17.5zM109 578h-11.5t-12.5 1l-56 4v108q44 7 90 11t94 4q8 0 26 -0.5t26 -0.5v-500q-41 -14 -78 -22t-78 -15v410z" />
    <glyph glyph-name="uniFEFC" unicode="&#xfefc;" horiz-adv-x="586" arabic-form="final" 
d="M557 0q-35 0 -68.5 11.5t-59.5 28.5q-32 -24 -78 -36.5t-109 -12.5q-39 0 -81 6t-80 16l16 156q41 -17 80.5 -26t71.5 -9q57 0 83.5 19t26.5 63v490h156v-481q0 -39 -11 -77q11 -7 26.5 -11t34.5 -4h26v-133h-34zM111 578h-12t-12 1l-56 4v108q44 7 90 11t94 4
q8 0 25.5 -0.5t26.5 -0.5v-500q-41 -14 -78 -22t-78 -15v410z" />
    <glyph glyph-name="uniFEF5" unicode="&#xfef5;" horiz-adv-x="644" arabic-form="isolated" 
d="M289 -9q-40 0 -81.5 6t-79.5 16l16 156q40 -17 79.5 -26t71.5 -9q57 0 84 19t27 63v490h155v-481q0 -51 -15 -94t-48 -74t-84.5 -48.5t-124.5 -17.5zM158 465q-6 1 -12.5 1h-12.5l-56 4v108q44 7 90 11t94 4q8 0 26 -0.5t26 -0.5v-387q-41 -14 -78 -22t-77 -15v297z
M22 679l126 98q20 -20 44.5 -30t41.5 -10q22 0 51 13.5t61 41.5v-133q-24 -21 -58.5 -33t-66.5 -12q-20 0 -40.5 4.5t-38.5 17.5q-14 -9 -31.5 -20.5t-27.5 -18.5z" />
    <glyph glyph-name="uniFEF6" unicode="&#xfef6;" horiz-adv-x="640" arabic-form="final" 
d="M608 0q-35 0 -68.5 11.5t-59.5 28.5q-32 -24 -78 -36.5t-109 -12.5q-39 0 -81 6t-80 16l16 156q41 -17 80.5 -26t71.5 -9q57 0 83.5 19t26.5 63v490h155v-481q0 -43 -10 -77q11 -7 26.5 -11t33.5 -4h27v-133h-34zM162 465q-6 1 -12.5 1h-11.5l-57 4v108q45 7 91 11t94 4
q8 0 25.5 -0.5t25.5 -0.5v-387q-40 -14 -77 -22t-78 -15v297zM24 679l126 98q20 -20 44.5 -30t41.5 -10q22 0 50.5 13.5t61.5 41.5v-133q-24 -21 -58.5 -33t-66.5 -12q-20 0 -41 4.5t-39 17.5q-14 -9 -31 -20.5t-28 -18.5z" />
    <glyph glyph-name="uniFEF7" unicode="&#xfef7;" horiz-adv-x="600" arabic-form="isolated" 
d="M247 -9q-39 0 -81 6t-80 16l16 156q41 -17 80.5 -26t71.5 -9q57 0 83.5 19t26.5 63v490h155v-481q0 -51 -15 -94t-47.5 -74t-84.5 -48.5t-125 -17.5zM116 465q-5 1 -12 1h-12l-57 4v108q45 7 91 11t94 4q8 0 25.5 -0.5t25.5 -0.5v-387q-40 -14 -77 -22t-78 -15v297z
M20 721h26t26 -2v20q0 20 8 38.5t23.5 33t39 23t54.5 8.5q15 0 38.5 -6t47.5 -17l-34 -91q-14 8 -29 14t-25 6q-15 0 -15 -10q0 -17 39 -17h66v-106h-265v106z" />
    <glyph glyph-name="uniFEF8" unicode="&#xfef8;" horiz-adv-x="589" arabic-form="final" 
d="M560 0q-35 0 -68.5 11.5t-59.5 28.5q-66 -49 -187 -49q-40 0 -81.5 6t-79.5 16l16 156q40 -17 80 -26t72 -9q57 0 83.5 19t26.5 63v490h155v-481q0 -43 -10 -77q11 -7 26.5 -11t33.5 -4h27v-133h-34zM114 465q-6 1 -12.5 1h-11.5l-57 4v108q44 7 90 11t94 4q8 0 26 -0.5
t26 -0.5v-387q-41 -14 -78 -22t-77 -15v297zM21 721h26.5t26.5 -2q-1 5 -1 10v10q0 20 8 38.5t24 33t39.5 23t54.5 8.5q14 0 38 -6t47 -17l-33 -91q-15 8 -30 14t-25 6q-6 0 -10.5 -2.5t-4.5 -7.5q0 -17 39 -17h67v-106h-266v106z" />
    <glyph glyph-name="uniFEF9" unicode="&#xfef9;" horiz-adv-x="593" arabic-form="isolated" 
d="M241 -9q-40 0 -81.5 6t-79.5 16l16 156q40 -17 79.5 -26t71.5 -9q57 0 84 19t27 63v490h155v-481q0 -51 -15 -94t-48 -74t-84.5 -48.5t-124.5 -17.5zM109 578h-11.5t-12.5 1l-56 4v108q44 7 90 11t94 4q8 0 26 -0.5t26 -0.5v-500q-41 -14 -78 -22t-78 -15v410zM63 -157
h26.5t26.5 -2q-1 5 -1 10v10q0 20 8 38.5t24 33t39.5 23t54.5 8.5q14 0 38 -6t47 -17l-33 -91q-15 8 -30 14t-25 6q-6 0 -10.5 -3t-4.5 -8q0 -16 39 -16h67v-106h-266v106z" />
    <glyph glyph-name="uniFEFA" unicode="&#xfefa;" horiz-adv-x="586" arabic-form="final" 
d="M557 0q-35 0 -68.5 11.5t-59.5 28.5q-32 -24 -78 -36.5t-109 -12.5q-39 0 -81 6t-80 16l16 156q41 -17 80.5 -26t71.5 -9q57 0 83.5 19t26.5 63v490h156v-481q0 -39 -11 -77q11 -7 26.5 -11t34.5 -4h26v-133h-34zM111 578h-12t-12 1l-56 4v108q44 7 90 11t94 4
q8 0 25.5 -0.5t26.5 -0.5v-500q-41 -14 -78 -22t-78 -15v410zM73 -162h26.5t26.5 -2q-1 5 -1 10.5v10.5q0 19 8 37.5t24 33t39.5 23t54.5 8.5q14 0 37.5 -6t47.5 -17l-33 -91q-15 9 -30 14.5t-25 5.5q-6 0 -10.5 -2.5t-4.5 -7.5q0 -17 39 -17h67v-105h-266v105z" />
    <glyph glyph-name=".notdef" horiz-adv-x="500" 
 />
    <glyph glyph-name=".null" horiz-adv-x="500" 
 />
    <glyph glyph-name="nonmarkingreturn" horiz-adv-x="500" 
 />
    <glyph glyph-name="space" unicode=" " horiz-adv-x="218" 
 />
    <glyph glyph-name="space" unicode="&#xa0;" horiz-adv-x="218" 
 />
    <glyph glyph-name="US" horiz-adv-x="500" 
 />
    <glyph glyph-name="RS" horiz-adv-x="500" 
 />
    <glyph glyph-name="DC4" horiz-adv-x="500" 
 />
    <glyph glyph-name="DC3" horiz-adv-x="500" 
 />
    <glyph glyph-name="DC2" horiz-adv-x="500" 
 />
    <glyph glyph-name="DC1" horiz-adv-x="500" 
 />
    <glyph glyph-name="DLE" horiz-adv-x="500" 
 />
    <glyph glyph-name="LF" horiz-adv-x="500" 
 />
    <glyph glyph-name="HT" horiz-adv-x="500" 
 />
    <glyph glyph-name="NUL" horiz-adv-x="500" 
 />
    <glyph glyph-name="left_to_right_override" unicode="&#x202d;" horiz-adv-x="500" 
 />
    <glyph glyph-name="pop_directional_formatting" unicode="&#x202c;" horiz-adv-x="500" 
 />
    <glyph glyph-name="right_to_left_embedding" unicode="&#x202b;" horiz-adv-x="500" 
 />
    <glyph glyph-name="left_to_right_embedding" unicode="&#x202a;" horiz-adv-x="500" 
 />
    <glyph glyph-name="right_to_left_mark" unicode="&#x200f;" horiz-adv-x="500" 
 />
    <glyph glyph-name="left_to_right_mark" unicode="&#x200e;" horiz-adv-x="500" 
 />
    <glyph glyph-name="zero_width_joiner" unicode="&#x200d;" horiz-adv-x="500" 
 />
    <glyph glyph-name="zero_width_non_joiner" unicode="&#x200c;" horiz-adv-x="500" 
 />
    <glyph glyph-name="comma" unicode="," horiz-adv-x="258" 
d="M123 175q39 0 66 -30t27 -80q0 -45 -31.5 -105t-106.5 -126l-76 67q34 36 49 60t15 39q0 17 -14 31q-19 25 -19 56q0 33 23 60.5t67 27.5z" />
    <glyph glyph-name="period" unicode="." horiz-adv-x="293" 
d="M235 84q0 -20 -7.5 -37t-20 -29.5t-30 -20t-36.5 -7.5t-36 7.5t-30 20t-20.5 29.5t-7.5 37q0 19 7.5 36t20.5 30t30 20.5t36 7.5t36.5 -7.5t30 -20.5t20 -30t7.5 -36z" />
    <glyph glyph-name="ellipsis" unicode="&#x2026;" horiz-adv-x="753" 
d="M669 81q0 -38 -26 -64.5t-64 -26.5t-64.5 26.5t-26.5 64.5q0 37 26.5 63.5t64.5 26.5t64 -26.5t26 -63.5zM454 81q0 -38 -26.5 -64.5t-64.5 -26.5t-64.5 26.5t-26.5 64.5q0 37 26.5 63.5t64.5 26.5t64.5 -26.5t26.5 -63.5zM238 81q0 -38 -27 -64.5t-65 -26.5t-64 26.5
t-26 64.5q0 37 26 63.5t64 26.5q19 0 35.5 -7t29 -19.5t20 -29t7.5 -34.5z" />
    <glyph glyph-name="colon" unicode=":" horiz-adv-x="298" 
d="M248 346q0 -39 -27 -66.5t-66 -27.5q-20 0 -37 7.5t-29.5 20t-20 29.5t-7.5 37q0 19 7.5 36t20 30t29.5 20.5t37 7.5q19 0 36 -7.5t30 -20.5t20 -30t7 -36zM248 84q0 -39 -27 -66.5t-66 -27.5q-20 0 -37 7.5t-29.5 20t-20 29.5t-7.5 37q0 19 7.5 36t20 30t29.5 20.5
t37 7.5q19 0 36 -7.5t30 -20.5t20 -30t7 -36z" />
    <glyph glyph-name="exclam" unicode="!" horiz-adv-x="321" 
d="M232 174h-137l-21 518h178zM253 79q0 -38 -26 -63.5t-65 -25.5q-19 0 -35.5 7t-29 19t-19.5 28t-7 35t7 35t19.5 28t29 19t35.5 7q39 0 65 -25.5t26 -63.5z" />
    <glyph glyph-name="hyphen" unicode="-" horiz-adv-x="334" 
d="M13 193v161h283v-161h-283z" />
    <glyph glyph-name="hyphen" unicode="&#xad;" horiz-adv-x="334" 
d="M13 193v161h283v-161h-283z" />
    <glyph glyph-name="endash" unicode="&#x2013;" 
d="M-8 224v140h546v-140h-546z" />
    <glyph glyph-name="emdash" unicode="&#x2014;" horiz-adv-x="1000" 
d="M103 224v140h757v-140h-757z" />
    <glyph glyph-name="underscore" unicode="_" 
d="M-8 -228v132h546v-132h-546z" />
    <glyph glyph-name="at" unicode="@" horiz-adv-x="970" 
d="M852 401q0 -69 -18 -122t-50.5 -88t-77 -53t-96.5 -18q-44 0 -70.5 17t-38.5 43q-21 -21 -54 -40.5t-67 -19.5q-54 0 -83 37.5t-29 113.5q0 55 14 103.5t43 84.5t73.5 57t104.5 21q35 0 71 -7t63 -18l-35 -199q-4 -19 -4 -33q0 -17 6.5 -23.5t19.5 -6.5q36 0 60 34
t24 111q0 37 -11.5 71.5t-36.5 61.5t-66 43t-99 16t-108.5 -21.5t-88 -60.5t-59 -94t-21.5 -121q0 -109 59.5 -170.5t184.5 -61.5q79 0 177 33l24 -129q-57 -20 -114 -29t-102 -9q-91 0 -161 25t-117 71.5t-71.5 111.5t-24.5 146q0 96 33.5 176.5t91.5 139t136 91.5t168 33
q87 0 152.5 -25t109.5 -68t66 -100.5t22 -123.5zM494 420q-5 1 -9.5 1h-9.5q-20 0 -35 -13t-24.5 -32.5t-14.5 -42t-5 -42.5q0 -42 12 -42q19 0 42.5 35t38.5 113z" />
    <glyph glyph-name="slash" unicode="/" horiz-adv-x="463" 
d="M128 -149h-157l338 887h157z" />
    <glyph glyph-name="backslash" unicode="\" horiz-adv-x="479" 
d="M327 -149l-338 887h156l338 -887h-156z" />
    <glyph glyph-name="bar" unicode="|" horiz-adv-x="288" 
d="M71 -223v962h131v-962h-131z" />
    <glyph glyph-name="parenleft" unicode="(" horiz-adv-x="306" 
d="M184 -204q-84 132 -116 252t-32 234q0 111 33 234.5t116 253.5l120 -55q-57 -100 -86 -208t-29 -220q0 -116 29.5 -224t87.5 -210z" />
    <glyph glyph-name="parenright" unicode=")" horiz-adv-x="306" 
d="M260 285q0 -113 -33 -236t-116 -253l-119 55q57 100 86.5 208t29.5 221q0 230 -117 434l123 56q82 -132 114 -251.5t32 -233.5z" />
    <glyph glyph-name="bracketleft" unicode="[" horiz-adv-x="328" 
d="M54 -190v946h242v-130h-94v-683h94v-133h-242z" />
    <glyph glyph-name="bracketright" unicode="]" horiz-adv-x="328" 
d="M20 -190v133h93v683h-93v130h241v-946h-241z" />
    <glyph glyph-name="braceleft" unicode="{" horiz-adv-x="362" 
d="M293 -190q-101 0 -144 53.5t-43 171.5v125q0 47 -23.5 65t-69.5 21v124q24 2 41.5 6t29 13t17 24.5t5.5 39.5v80q0 111 42.5 167t144.5 56h38v-130q-23 0 -38 -4t-24 -14t-12.5 -27.5t-3.5 -45.5v-80q0 -57 -15 -93t-39 -54q26 -18 40 -54t14 -96v-124q0 -28 3.5 -46
t12.5 -28t24 -13.5t38 -3.5v-133h-38z" />
    <glyph glyph-name="braceright" unicode="}" horiz-adv-x="360" 
d="M338 246q-45 -3 -68.5 -21t-23.5 -65v-125q0 -118 -43.5 -171.5t-142.5 -53.5h-39v133q22 0 37 3.5t24 13.5t13 28t4 46v124q0 62 13.5 97t39.5 53q-25 17 -39 52t-14 93v82q0 28 -4 45.5t-13 27.5t-24 14t-37 4v130h39q102 0 144 -56t42 -167v-78q0 -25 5.5 -40.5
t17 -25t28.5 -13.5t41 -6v-124z" />
    <glyph glyph-name="asciicircum" unicode="^" 
d="M370 305l-114 214q-26 -52 -54.5 -108.5t-53.5 -106.5l-112 61l167 297h111l174 -296z" />
    <glyph glyph-name="asciitilde" unicode="~" 
d="M499 542q0 -75 -42 -120.5t-115 -45.5q-27 0 -46.5 6t-33.5 16t-25 21.5t-20 23.5v-1q-10 12 -18.5 21t-17.5 9q-25 0 -25 -74h-125v35q0 75 42.5 121t115.5 46q27 0 46 -6.5t33.5 -16t25.5 -22t20 -24.5v1q10 -12 18 -20.5t18 -8.5q23 0 25 75h124v-36z" />
    <glyph glyph-name="degree" unicode="&#xb0;" horiz-adv-x="388" 
d="M340 574q0 -36 -13.5 -64t-36 -47t-51.5 -29t-60 -10q-70 0 -111 38.5t-41 108.5q0 35 13.5 63t36 47t51 29t58.5 10q41 0 70 -11.5t48 -31.5t27.5 -46.5t8.5 -56.5zM215 574q0 12 -7 23.5t-23 11.5q-14 0 -23.5 -10t-9.5 -27t9 -26.5t23 -9.5t22.5 10.5t8.5 27.5z" />
    <glyph glyph-name="section" unicode="&#xa7;" horiz-adv-x="530" 
d="M452 247q0 -42 -16.5 -77t-47.5 -61q14 -20 20.5 -41.5t6.5 -50.5q0 -32 -12 -63t-39 -55t-70.5 -39t-105.5 -15q-17 0 -42.5 3.5t-53.5 10.5l9 137q55 -16 89 -16q32 0 46.5 10.5t14.5 27.5q0 20 -20.5 40.5t-49.5 44.5q-23 19 -46.5 40.5t-43 47.5t-32 57.5t-12.5 70.5
q0 43 16.5 77.5t46.5 60.5q-14 20 -20.5 42t-6.5 51q0 34 12 65t37.5 54.5t66 37t97.5 13.5q20 0 43.5 -2t51.5 -10l-8 -136q-26 8 -46.5 11.5t-37.5 3.5q-29 0 -40.5 -8.5t-11.5 -25.5q0 -19 21 -39.5t48 -44.5q23 -20 47 -42.5t44 -49t32.5 -59t12.5 -71.5zM308 231
q0 31 -24 58t-60 60h-1q-8 8 -10 9.5t-11 9.5q-11 -14 -11 -33q0 -32 27 -62.5t79 -75.5q8 8 9.5 16t1.5 18z" />
    <glyph glyph-name="bullet" unicode="&#x2022;" horiz-adv-x="423" 
d="M360 293q0 -32 -12.5 -60t-33.5 -49t-49.5 -33.5t-61.5 -12.5t-61 12.5t-49 33.5t-33 49t-12 60t12 60.5t33 49.5t49 33.5t61 12.5t61.5 -12.5t49.5 -33.5t33.5 -49.5t12.5 -60.5z" />
    <glyph glyph-name="paragraph" unicode="&#xb6;" horiz-adv-x="595" 
d="M473 530v-619h-203v132h65v619h198v-132h-60zM300 214q-67 0 -115 18t-79.5 48.5t-46.5 71.5t-15 87q0 51 18.5 92t52.5 70t81 45t104 16v-448z" />
    <glyph glyph-name="numbersign" unicode="#" 
d="M433 367q-2 -25 -4.5 -44t-4.5 -46h68v-119h-80q-5 -38 -9.5 -80.5t-8.5 -77.5h-123l18 158h-81q-4 -38 -8.5 -80.5t-7.5 -77.5h-123l16 158h-68v119h79q2 25 5 43.5t5 46.5h-68v117h81q4 36 8.5 78.5t7.5 76.5h123l-15 -155h78q4 37 8.5 78.5t8.5 76.5h123l-16 -155h68
v-117h-80zM231 367q-2 -25 -5.5 -44t-5.5 -46h80q2 24 4.5 43t4.5 47h-78z" />
    <glyph glyph-name="percent" unicode="%" horiz-adv-x="760" 
d="M701 161q0 -39 -12.5 -70.5t-35 -54t-52.5 -34.5t-64 -12q-77 0 -116 43.5t-39 119.5q0 37 12.5 68.5t34.5 53.5t51.5 34.5t63.5 12.5q73 0 115 -39.5t42 -121.5zM173 -27l-104 74l487 617l104 -74zM350 489q0 -39 -12.5 -70.5t-34.5 -54t-52 -35t-65 -12.5
q-77 0 -116 43.5t-39 119.5q0 37 12.5 68.5t34.5 53.5t52 34.5t65 12.5q72 0 113.5 -39t41.5 -121zM574 155q0 31 -7.5 43t-24.5 12q-15 0 -24.5 -13.5t-9.5 -39.5q0 -31 9 -43.5t26 -12.5q14 0 22.5 14t8.5 40zM224 483q0 31 -8 43t-25 12q-14 0 -23 -14.5t-9 -39.5
q0 -31 8.5 -43t24.5 -12q14 0 23 14t9 40z" />
    <glyph glyph-name="perthousand" unicode="&#x2030;" horiz-adv-x="1052" 
d="M845 155q0 29 -7 40t-21 11q-13 0 -21.5 -13.5t-8.5 -38.5q0 -29 7.5 -41t20.5 -12q14 0 22 13.5t8 40.5zM968 160q0 -41 -12.5 -72.5t-34 -53t-50 -33t-59.5 -11.5q-68 0 -108 40t-40 119q0 39 12.5 70.5t34 53t49.5 33t59 11.5t58 -9t47.5 -27.5t32 -48.5t11.5 -72z
M541 155q0 29 -6.5 40t-20.5 11t-22.5 -13.5t-8.5 -38.5q0 -29 7.5 -41t21.5 -12q13 0 21 13.5t8 40.5zM665 160q0 -41 -12.5 -72.5t-34.5 -53t-50.5 -33t-59.5 -11.5q-68 0 -108 40t-40 119q0 39 12.5 70.5t34 53t49.5 33t60 11.5q31 0 58.5 -9t47.5 -27.5t31.5 -48.5
t11.5 -72zM148 -25l-100 77l505 611l99 -77zM220 486q0 29 -7 40.5t-21 11.5t-22.5 -14t-8.5 -39q0 -29 7.5 -41t21.5 -12q13 0 21.5 14t8.5 40zM342 492q0 -40 -12.5 -71.5t-34 -53.5t-50 -34t-59.5 -12q-68 0 -108 40.5t-40 119.5q0 39 12.5 70t34 53t49.5 33.5t60 11.5
q31 0 58.5 -9t47 -28t31 -48.5t11.5 -71.5z" />
    <glyph glyph-name="ordfeminine" unicode="&#xaa;" horiz-adv-x="423" 
d="M407 309q-32 -4 -65.5 -6.5t-64.5 -2.5q-10 0 -29.5 0.5t-28.5 1.5v13q-15 -11 -34 -17t-39 -6q-60 0 -90 30.5t-30 78.5q0 34 14.5 59t40 42t60 25.5t74.5 10.5q-2 8 -9 14.5t-27 6.5q-26 0 -56.5 -9.5t-64.5 -23.5l-13 119q36 11 73 18.5t75 7.5q44 0 73.5 -10.5
t47.5 -28t26 -40.5t8 -47v-131q5 -1 7 -0.5t6 -0.5q8 -1 23.5 -2.5t22.5 -2.5v-99zM44 160v132h339v-132h-339zM214 460l18 -19h-19q1 3 1 10v9zM170 403q19 0 29.5 12t13.5 26q-30 -2 -43.5 -8.5t-13.5 -18.5q0 -11 14 -11z" />
    <glyph glyph-name="ordmasculine" unicode="&#xba;" horiz-adv-x="426" 
d="M383 487q0 -44 -14.5 -80t-40 -61.5t-59.5 -39t-74 -13.5q-36 0 -67 10t-54 32t-36 58t-13 87q0 44 14.5 79.5t39.5 60.5t58.5 38.5t72.5 13.5q37 0 68.5 -10t55 -31.5t36.5 -57t13 -86.5zM38 163v129h332v-129h-332zM249 485q0 29 -10 48t-35 19q-17 0 -31.5 -15.5
t-14.5 -53.5q0 -28 9 -49t34 -21q20 0 34 16t14 56z" />
    <glyph glyph-name="dagger" unicode="&#x2020;" horiz-adv-x="457" 
d="M292 493q3 -16 7 -32t8 -31l-23 -254h-126l-25 254l15 63h-119v129h121q-5 30 -10.5 65t-9.5 61h180l-19 -126h121v-129h-120z" />
    <glyph glyph-name="daggerdbl" unicode="&#x2021;" horiz-adv-x="457" 
d="M292 266q5 -27 10 -59t9 -54h-182l19 113h-119v127h118q-3 15 -7.5 29t-6.5 28l14 57h-118v128h120q-4 27 -9.5 58.5t-8.5 54.5h178l-18 -113h121v-128h-119q3 -14 7.5 -28.5t6.5 -28.5l-14 -57h119v-127h-120z" />
    <glyph glyph-name="quotesingle" unicode="'" horiz-adv-x="216" 
d="M166 415h-124l-17 272h158z" />
    <glyph glyph-name="quotedbl" unicode="&#x22;" horiz-adv-x="405" 
d="M343 415h-123l-16 272h157zM169 415h-124l-16 272h157z" />
    <glyph glyph-name="quotedblleft" unicode="&#x201c;" horiz-adv-x="485" 
d="M452 676q-34 -37 -49 -61t-15 -39q0 -17 13 -32v1q11 -12 15.5 -26.5t4.5 -28.5q0 -34 -23.5 -61t-65.5 -27q-40 0 -67 29.5t-27 80.5q0 45 31.5 104.5t106.5 125.5zM249 676q-33 -37 -48.5 -61t-15.5 -39q0 -17 13 -32v1q11 -12 16 -26t5 -29q0 -33 -23.5 -60.5
t-65.5 -27.5t-68 29.5t-26 80.5q0 45 31.5 105t106.5 126z" />
    <glyph glyph-name="quotedblright" unicode="&#x201d;" horiz-adv-x="485" 
d="M336 728q41 0 68 -29.5t27 -80.5q0 -45 -31.5 -104.5t-106.5 -125.5l-76 66q33 37 48.5 61t15.5 39q0 17 -13 32q-20 25 -20 54q0 33 23 60.5t65 27.5zM134 728q40 0 67 -29.5t27 -80.5q0 -45 -31.5 -104.5t-106.5 -125.5l-75 66q34 37 48.5 61t14.5 39q0 17 -13 32
q-10 12 -14.5 26t-4.5 28q0 34 22.5 61t65.5 27z" />
    <glyph glyph-name="quoteleft" unicode="&#x2018;" horiz-adv-x="267" 
d="M245 676q-33 -37 -48.5 -61t-15.5 -39q0 -17 13 -32v1q11 -12 16 -26t5 -29q0 -33 -23.5 -60.5t-65.5 -27.5t-68 29.5t-26 80.5q0 45 31.5 105t106.5 126z" />
    <glyph glyph-name="quoteright" unicode="&#x2019;" horiz-adv-x="267" 
d="M130 728q40 0 67 -29.5t27 -80.5q0 -45 -31.5 -104.5t-106.5 -125.5l-75 66q33 37 48 61t15 39q0 17 -13 32q-10 12 -14.5 26t-4.5 28q0 34 22.5 61t65.5 27z" />
    <glyph glyph-name="quotesinglbase" unicode="&#x201a;" horiz-adv-x="267" 
d="M130 175q40 0 67 -30t27 -80q0 -45 -31.5 -105t-106.5 -126l-75 67q33 36 48 60t15 39t-14 31q-19 25 -19 56q0 33 23 60.5t66 27.5z" />
    <glyph glyph-name="quotedblbase" unicode="&#x201e;" horiz-adv-x="485" 
d="M336 175q41 0 68 -30t27 -80q0 -45 -31.5 -105t-106.5 -126l-76 67q33 36 48.5 60.5t15.5 39.5q0 14 -14 30q-9 12 -14.5 26.5t-5.5 29.5q0 33 23.5 60.5t65.5 27.5zM134 175q40 0 67 -30t27 -80q0 -45 -31.5 -105t-106.5 -126l-75 67q34 36 48.5 60t14.5 39t-14 31
q-19 25 -19 56q0 33 23 60.5t66 27.5z" />
    <glyph glyph-name="guilsinglleft" unicode="&#x2039;" horiz-adv-x="312" 
d="M141 87l-119 202l121 203l123 -58l-87 -144q20 -33 45 -71.5t44 -70.5z" />
    <glyph glyph-name="guilsinglright" unicode="&#x203a;" horiz-adv-x="312" 
d="M158 88l-123 58l88 145q-21 32 -45.5 71t-44.5 70l128 61l118 -201z" />
    <glyph glyph-name="guillemotleft" unicode="&#xab;" horiz-adv-x="534" 
d="M351 91l-124 198l126 201l123 -59l-90 -141q22 -33 47.5 -70.5t45.5 -69.5zM139 85l-112 203l116 207l123 -57l-82 -147q20 -34 43 -75t42 -73z" />
    <glyph glyph-name="guillemotright" unicode="&#xbb;" horiz-adv-x="534" 
d="M371 86l-125 57l84 147q-20 33 -43 74t-42 73l130 58l112 -203zM160 91l-123 58l91 142q-11 16 -23 34t-24.5 36.5t-24 36t-21.5 32.5l128 60l124 -198z" />
    <glyph glyph-name="asterisk" unicode="*" horiz-adv-x="384" 
d="M294 410l-58 47q2 -20 5.5 -39.5t5.5 -35.5h-127l11 76l-32 -26t-28 -22l-61 109l68 28q-19 8 -37 15t-32 13l64 110l58 -47q-3 20 -6 39t-5 36h128l-12 -75q14 11 31 25t28 22l63 -109l-70 -28q19 -8 37.5 -15t32.5 -13z" />
    <glyph glyph-name="periodcentered" unicode="&#xb7;" horiz-adv-x="269" 
d="M232 291q0 -23 -8.5 -42.5t-23 -33.5t-34 -22.5t-41.5 -8.5q-23 0 -42 8.5t-33.5 22.5t-22.5 33.5t-8 42.5q0 22 8 41t22.5 33.5t33.5 23t42 8.5q22 0 41.5 -8.5t34 -23t23 -33.5t8.5 -41z" />
    <glyph glyph-name="periodcentered" unicode="&#x2219;" horiz-adv-x="269" 
d="M232 291q0 -23 -8.5 -42.5t-23 -33.5t-34 -22.5t-41.5 -8.5q-23 0 -42 8.5t-33.5 22.5t-22.5 33.5t-8 42.5q0 22 8 41t22.5 33.5t33.5 23t42 8.5q22 0 41.5 -8.5t34 -23t23 -33.5t8.5 -41z" />
    <glyph glyph-name="plus" unicode="+" 
d="M339 226v-172h-149v172h-162v136h162v171h149v-171h163v-136h-163z" />
    <glyph glyph-name="minus" unicode="&#x2212;" 
d="M28 224v140h474v-140h-474z" />
    <glyph glyph-name="plusminus" unicode="&#xb1;" 
d="M340 320v-169h-150v169h-162v135h162v169h150v-169h162v-135h-162zM32 0v136h466v-136h-466z" />
    <glyph glyph-name="multiply" unicode="&#xd7;" 
d="M404 56l-143 143l-142 -143l-91 91l142 143l-142 142l98 98l142 -142l143 142l91 -90l-143 -143l143 -142z" />
    <glyph glyph-name="divide" unicode="&#xf7;" 
d="M355 479q0 -38 -26.5 -64t-64.5 -26t-64.5 26t-26.5 64t26.5 64.5t64.5 26.5t64.5 -26.5t26.5 -64.5zM28 226v136h474v-136h-474zM355 108q0 -38 -26.5 -64t-64.5 -26t-64.5 26t-26.5 64t26.5 64.5t64.5 26.5t64.5 -26.5t26.5 -64.5z" />
    <glyph glyph-name="equal" unicode="=" 
d="M41 316v132h448v-132h-448zM41 139v132h448v-132h-448z" />
    <glyph glyph-name="notequal" unicode="&#x2260;" 
d="M276 139q-11 -26 -22.5 -56.5t-21.5 -55.5h-146l45 112h-97v132h148q3 8 5 12.5l4 9t4.5 9.5t5.5 14h-167v132h219q11 26 21.5 56.5t21.5 55.5h147l-44 -112h96v-132h-149q-3 -8 -4.5 -12.5t-3.5 -9t-4.5 -9.5t-5.5 -14h167v-132h-219z" />
    <glyph glyph-name="approxequal" unicode="&#x2248;" 
d="M506 362q-31 -32 -69 -53t-82 -21q-35 0 -58.5 9t-44.5 20q-17 9 -35.5 17t-41.5 8q-22 0 -48 -15t-51 -35l-53 112q32 30 72.5 52t83.5 22q36 0 63.5 -11t50.5 -23q15 -8 32 -14.5t31 -6.5q21 0 45 14t49 39zM507 175q-32 -29 -73 -49t-79 -20t-63 10t-48 21
q-17 8 -33 15t-36 7q-22 0 -47.5 -15t-49.5 -35l-55 112q28 27 67 50.5t82 23.5q37 0 61.5 -9.5t46.5 -20.5q19 -9 37 -16.5t41 -7.5q42 0 96 47z" />
    <glyph glyph-name="greater" unicode="&#x3e;" 
d="M167 -2l-105 105l218 192q-53 46 -110 97t-108 96l104 107l323 -299z" />
    <glyph glyph-name="greaterequal" unicode="&#x2265;" 
d="M159 128l-100 108l220 154q-53 37 -110.5 77.5t-108.5 75.5l99 110l340 -262zM58 0v136h415v-136h-415z" />
    <glyph glyph-name="less" unicode="&#x3c;" 
d="M363 -2l-323 299l322 298l105 -104l-217 -193q53 -46 109.5 -96.5t108.5 -95.5z" />
    <glyph glyph-name="lessequal" unicode="&#x2264;" 
d="M371 128l-341 263l341 262l100 -108l-221 -154q54 -37 111.5 -77.5t108.5 -75.5zM57 0v136h415v-136h-415z" />
    <glyph glyph-name="Euro" unicode="&#x20ac;" 
d="M514 28q-44 -19 -90 -28.5t-87 -9.5q-106 0 -170.5 47t-87.5 157h-77v110h67v32h-67v110h85q12 44 33.5 81.5t55 64.5t78.5 42t104 15q35 0 75.5 -8.5t76.5 -22.5l-40 -130q-29 14 -61 22t-60 8q-40 0 -64 -19.5t-37 -52.5h146v-110h-167v-32h167v-110h-151
q14 -38 40.5 -55t71.5 -17q26 0 57 8.5t65 22.5z" />
    <glyph glyph-name="dollar" unicode="$" 
d="M466 212q0 -67 -38 -117.5t-114 -70.5v-103h-122v93q-29 2 -56.5 5t-56.5 9l12 149q38 -15 73 -21.5t60 -6.5q36 0 58 12.5t22 38.5q0 22 -24.5 34t-57.5 25q-28 10 -57 23.5t-53 34t-39 51t-15 75.5q0 65 37.5 113.5t108.5 64.5v92h121v-84q20 -2 45 -5t52 -9l-13 -138
q-74 21 -118 21q-41 0 -57.5 -13t-16.5 -31q0 -19 24 -31.5t58 -25.5q29 -11 58.5 -24.5t53.5 -34.5t39.5 -51t15.5 -75z" />
    <glyph glyph-name="yen" unicode="&#xa5;" 
d="M382 333h104v-113h-143v-17h143v-112h-143v-91h-157v91h-143v112h143v17h-143v113h103q-35 73 -74 154t-73 152h172l74 -166q6 -13 11 -25.5t10 -24.5q5 13 11 26.5t12 26.5q16 37 36.5 82t36.5 81h169z" />
    <glyph glyph-name="sterling" unicode="&#xa3;" 
d="M54 0v108q74 60 74 117v13.5t-1 15.5h-91v128h73q-2 16 -3.5 30.5t-1.5 29.5q0 57 15.5 96t45 64t70.5 36t92 11q24 0 61.5 -5t75.5 -16l-36 -137q-26 11 -55 18t-52 7q-60 0 -60 -63q0 -17 1.5 -35t3.5 -36h143v-128h-126q1 -8 1 -13v-12q0 -54 -27 -90h225v-139h-428z
" />
    <glyph glyph-name="florin" unicode="&#x192;" 
d="M489 532q-29 12 -53.5 16.5t-38.5 4.5q-29 0 -44.5 -20.5t-20.5 -59.5q-2 -26 -4.5 -45t-4.5 -46h129v-128h-140q-5 -46 -9 -92t-9 -92q-11 -115 -68 -167t-160 -52q-20 0 -48 4t-57 11l18 137q26 -7 53 -12.5t44 -5.5q28 0 43 18.5t20 61.5q5 51 8.5 94t8.5 95h-103v128
h114q2 21 5 43.5t5 42.5q11 116 68 168t160 52q20 0 47.5 -4t56.5 -11z" />
    <glyph glyph-name="cent" unicode="&#xa2;" 
d="M471 127q-26 -13 -54 -21.5t-51 -12.5v-93h-126v93q-91 14 -136 73.5t-45 153.5q0 91 47 151t134 83v85h126v-79q20 -3 46 -9t52 -15l-33 -133q-27 12 -55.5 19.5t-51.5 7.5q-48 0 -76 -26.5t-28 -77.5q0 -47 26.5 -73.5t77.5 -26.5q48 0 108 33z" />
    <glyph glyph-name="copyright" unicode="&#xa9;" horiz-adv-x="762" 
d="M701 328q0 -69 -26.5 -130t-72 -106.5t-106.5 -72t-130 -26.5q-71 0 -132 26t-106 71.5t-71 106.5t-26 130t26.5 130t72 106.5t106.5 72t130 26.5t130 -26t106.5 -71.5t72 -106.5t26.5 -130zM574 327q0 43 -16 81.5t-44.5 67t-66.5 45t-81 16.5q-44 0 -82 -16.5t-66 -45
t-44.5 -66.5t-16.5 -81q0 -44 16.5 -82t44.5 -66.5t66 -45t82 -16.5q43 0 81 16.5t66.5 44.5t44.5 66t16 82zM480 172q-29 -13 -58 -20t-58 -7q-81 0 -124.5 49t-43.5 130q0 37 10.5 71t32.5 59.5t56.5 41t82.5 15.5q25 0 49 -5.5t47 -14.5l-19 -124q-20 14 -39 22t-33 8
q-28 0 -39.5 -19t-11.5 -52q0 -62 46 -62q16 0 34.5 4t44.5 18z" />
    <glyph glyph-name="registered" unicode="&#xae;" horiz-adv-x="564" 
d="M507 509q0 -48 -18.5 -90.5t-51 -73.5t-75.5 -49t-91 -18q-50 0 -92.5 18t-74.5 49t-50 73.5t-18 90.5q0 49 18.5 91t50.5 73.5t75 49.5t91 18q49 0 92 -17.5t75 -49t50.5 -74t18.5 -91.5zM397 509q0 26 -10 49t-27 40.5t-40 28t-49 10.5t-49 -10t-40 -27.5t-27 -40.5
t-10 -49t10 -49t27 -40.5t40 -28t49 -10.5t49 10t40 27t27 40.5t10 49.5zM281 389l-11 25v-25h-93v243h105q48 0 69.5 -20.5t21.5 -55.5q0 -24 -8.5 -40t-23.5 -26l2.5 -5l2.5 -5v1q4 -8 9.5 -20.5t12 -25.5t12 -25.5t9.5 -20.5h-108zM275 549q0 2 -5 4v-10q5 2 5 6z
M270 553h-4h-15l19 18v-18zM261 542q6 0 9 1v-19l-19 18h10z" />
    <glyph glyph-name="trademark" unicode="&#x2122;" horiz-adv-x="689" 
d="M514 365l-11 73l-19 -73h-107l-17 66l-9 -66h-119l48 297h131l24 -89l25 89h130l50 -297h-126zM205 553v-188h-121v188h-63v109h244v-109h-60z" />
    <glyph glyph-name="zero" unicode="0" horiz-adv-x="608" 
d="M283 -10q-52 0 -97.5 14.5t-79.5 46t-54 81.5t-20 122q0 64 22 115t58.5 86t85 54t101.5 19q71 0 120 -22.5t79 -59t43.5 -84t13.5 -97.5q0 -65 -22 -116t-59 -86t-86.5 -54t-104.5 -19zM292 129q21 0 40.5 9t34.5 26.5t23.5 42t8.5 55.5q0 57 -25.5 93t-78.5 36
q-45 0 -77 -34.5t-32 -94.5q0 -57 26 -95t80 -38z" />
    <glyph glyph-name="one" unicode="1" horiz-adv-x="342" 
d="M113 362q-22 -9 -47.5 -20t-42.5 -18l-25 136l160 60h114v-520h-159v362z" />
    <glyph glyph-name="two" unicode="2" horiz-adv-x="481" 
d="M32 123l97 81q64 47 91.5 77t27.5 58q0 23 -15.5 37.5t-47.5 14.5q-27 0 -62 -14t-62 -32l-23 143q39 18 83 29t92 11q100 0 151 -46t51 -121q0 -57 -32 -106.5t-92 -93.5q-7 -5 -13 -10t-14 -10q37 1 81 1h88v-142h-401v123z" />
    <glyph glyph-name="three" unicode="3" horiz-adv-x="458" 
d="M131 -172q-23 0 -52.5 4t-59.5 13l12 141q25 -8 53 -14t51 -6q55 0 84 24t29 60q0 39 -34 57t-91 18q-13 0 -30 -1.5t-39 -3.5v135q182 -1 182 82q0 25 -18.5 40.5t-51.5 15.5q-50 0 -121 -38l-15 140q82 33 160 33q53 0 92 -13.5t65 -36.5t38.5 -54t12.5 -65
q0 -46 -20.5 -82t-55.5 -61q42 -22 66.5 -63t24.5 -91q0 -48 -18.5 -90.5t-54 -74.5t-88 -50.5t-121.5 -18.5z" />
    <glyph glyph-name="four" unicode="4" horiz-adv-x="554" 
d="M277 0h-248l-23 118l246 400h178v-375h99v-143h-99v-168h-153v168zM279 125v18h18zM172 143h107v45.5t-0.5 38.5t-0.5 40.5v50.5z" />
    <glyph glyph-name="five" unicode="5" horiz-adv-x="463" 
d="M121 -172q-22 0 -47 2.5t-50 6.5l16 144q22 -5 46.5 -8.5t42.5 -3.5q65 0 96.5 27t31.5 65q0 86 -137 86q-13 0 -30.5 -1t-40.5 -3v375h350v-152l-201 1v-86q106 -5 163.5 -59.5t57.5 -143.5q0 -54 -22 -100t-62 -79.5t-94.5 -52t-119.5 -18.5z" />
    <glyph glyph-name="six" unicode="6" horiz-adv-x="581" 
d="M277 -10q-108 0 -172 72.5t-64 212.5q0 99 25.5 175.5t73 129t113.5 80t147 27.5q5 0 15 -0.5t20.5 -1t20 -1t15.5 -0.5v-144q-23 4 -44.5 6t-35.5 2q-68 0 -111.5 -32.5t-63.5 -91.5q44 25 104 25q100 0 156 -58.5t56 -158.5q0 -53 -18.5 -97.5t-52.5 -76.5t-80.5 -50
t-103.5 -18zM289 128q39 0 60 26t21 65q0 45 -20.5 68t-57.5 23q-41 0 -61.5 -25t-20.5 -57q0 -42 19.5 -71t59.5 -29z" />
    <glyph glyph-name="seven" unicode="7" horiz-adv-x="458" 
d="M82 -168q35 150 77.5 284.5t90.5 250.5h-41q-20 0 -45.5 -0.5t-53 -0.5h-53.5h-47v152h420v-121q-50 -118 -96 -259t-81 -306h-171z" />
    <glyph glyph-name="eight" unicode="8" horiz-adv-x="557" 
d="M257 -10q-107 0 -165.5 51t-58.5 134q0 30 8.5 54.5t22.5 45t31.5 37t35.5 30.5q-42 29 -66.5 67.5t-24.5 89.5q0 44 17 79.5t48 61t73 39t93 13.5t92 -12.5t69.5 -35t44 -55t15.5 -71.5q0 -50 -23.5 -87t-69.5 -71q21 -14 40 -30t33.5 -36.5t23 -45.5t8.5 -56
q0 -49 -19.5 -87t-53.5 -63.5t-78.5 -38.5t-95.5 -13zM268 126q31 0 52 15t21 42q0 26 -24 48.5t-59 41.5q-29 -18 -46 -38.5t-17 -46.5q0 -28 19 -45t54 -17zM262 421q2 2 4.5 3.5t4.5 3.5q5 -3 10 -5zM201 504q0 -22 18.5 -39.5t51.5 -36.5q31 21 46 39t15 40
q0 21 -16.5 36.5t-48.5 15.5t-49 -15.5t-17 -39.5z" />
    <glyph glyph-name="nine" unicode="9" horiz-adv-x="581" 
d="M152 -172q-14 0 -35 1.5t-44 6.5v149q24 -8 47 -12t37 -4q76 0 119 30.5t63 93.5q-45 -25 -104 -25q-48 0 -86.5 15.5t-65.5 43.5t-41.5 67.5t-14.5 87.5q0 54 18.5 99t51.5 78t79 51t101 18q53 0 97.5 -16.5t77 -52t50.5 -89.5t18 -129q0 -95 -23.5 -171t-69.5 -130
t-115 -83t-160 -29zM267 208q38 0 59.5 25t21.5 59q0 43 -19.5 71t-59.5 28q-37 0 -59 -27t-22 -65q0 -44 20 -67.5t59 -23.5z" />
    <glyph glyph-name="onequarter" unicode="&#xbc;" horiz-adv-x="725" 
d="M494 45h-129l-8 83l103 183h155v-163h42v-103h-42v-45h-121v45zM110 517q-15 -6 -29.5 -12t-24.5 -11l-27 104l102 41h112v-311h-133v189zM36 47l487 617l106 -74l-487 -617zM494 147v22q-3 -4 -6 -10l-6 -12h12z" />
    <glyph glyph-name="onehalf" unicode="&#xbd;" horiz-adv-x="727" 
d="M399 92l60 51q26 21 36 33t10 21q0 12 -17 12q-25 0 -62 -27l-27 111q28 12 59 19.5t58 7.5q36 0 60.5 -8.5t40 -23t22.5 -33t7 -39.5q0 -27 -13.5 -52t-46.5 -54h68v-110h-255v92zM109 517q-14 -6 -29 -12.5t-25 -11.5l-27 105l102 41h112v-311h-133v189zM36 47l487 617
l105 -74l-487 -617z" />
    <glyph glyph-name="threequarters" unicode="&#xbe;" horiz-adv-x="730" 
d="M121 551q-24 0 -64 -23h31q29 0 39.5 4.5t10.5 10.5q0 8 -17 8zM125 318q-18 0 -44.5 4t-44.5 9l14 98q15 -5 33 -9t30 -4q17 0 23.5 3.5t6.5 8.5t-6 9t-24 4q-2 0 -19 -2.5t-38 -4.5v94h1l-19 99q23 9 52.5 15t56.5 6q35 0 59 -8t39 -20.5t22 -29.5t7 -35q0 -36 -24 -62
q17 -11 25.5 -28t8.5 -36q0 -54 -40.5 -82.5t-118.5 -28.5zM498 45h-128l-9 83l104 183h155v-163h42v-103h-42v-45h-122v45zM41 47l487 617l106 -74l-488 -617zM498 147v22l-5 -10t-7 -12h12z" />
    <glyph glyph-name="right_to_left_override" unicode="&#x202e;" horiz-adv-x="500" 
 />
    <glyph glyph-name="twothirds" unicode="&#x2154;" horiz-adv-x="751" 
d="M504 222q-12 0 -27.5 -5t-36.5 -17h31q30 0 40 4t10 11t-17 7zM508 -10q-17 0 -44 4t-45 9l14 97q15 -5 33 -9t31 -4q16 0 22.5 3.5t6.5 8.5t-6 9t-23 4q-2 0 -19.5 -2t-38.5 -4v94h1l-19 98q23 9 52.5 15t56.5 6q35 0 59 -8t39 -20.5t22 -29t7 -34.5t-6 -34.5t-17 -27.5
q17 -11 25 -28.5t8 -36.5q0 -54 -40.5 -82t-118.5 -28zM32 407l60 51q26 22 36 34t10 21q0 12 -17 12q-25 0 -62 -27l-27 111q28 12 59 19.5t58 7.5q36 0 60.5 -8.5t40 -23t22.5 -33.5t7 -40q0 -27 -14 -51.5t-46 -53.5h68v-110h-255v91zM60 47l487 617l104 -74l-487 -617z
" />
    <glyph glyph-name="DEL" horiz-adv-x="500" 
 />
    <glyph glyph-name="uni0621" unicode="&#x621;" horiz-adv-x="504" 
d="M28 133q18 0 38 -0.5t36 -2.5q-3 9 -5 20t-2 25q0 33 13.5 63t39.5 53t64.5 37t88.5 14q22 0 53.5 -2.5t67.5 -10.5l-21 -129q-35 7 -59 9t-45 2q-17 0 -31 -9t-14 -24q0 -18 16.5 -31.5t62.5 -13.5h107v-133h-410v133z" />
    <glyph glyph-name="uni0622" unicode="&#x622;" horiz-adv-x="378" 
d="M-1 677l126 98q20 -20 44.5 -30t41.5 -10q21 0 50 13.5t62 41.5v-133q-25 -21 -59.5 -33t-65.5 -12q-20 0 -41 4.5t-39 17.5q-14 -9 -31 -20.5t-28 -18.5zM135 464q-6 1 -12.5 1t-11.5 1l-57 3v108q46 7 93.5 11t91.5 4q8 0 25.5 -0.5t25.5 -0.5v-591h-155v464z" />
    <glyph glyph-name="uni0623" unicode="&#x623;" horiz-adv-x="337" 
d="M5 719h26.5t26.5 -2q-1 5 -1 10.5v10.5q0 19 8 37.5t24 33t39.5 23t54.5 8.5q14 0 38 -6t47 -17l-33 -90q-15 8 -30 13.5t-25 5.5q-6 0 -10.5 -2.5t-4.5 -7.5q0 -17 39 -17h67v-105h-266v105zM101 464q-6 1 -12.5 1t-11.5 1l-57 3v108q46 7 93.5 11t90.5 4q8 0 26 -0.5
t26 -0.5v-591h-155v464z" />
    <glyph glyph-name="uni0624" unicode="&#x624;" horiz-adv-x="535" 
d="M168 -230q-14 0 -31 1t-35 2.5t-35.5 3.5t-31.5 5l-8 143q42 -11 79.5 -15t69.5 -4q63 0 96 24.5t39 69.5h-34q-68 0 -114 17.5t-74.5 48t-41 71.5t-12.5 88q0 48 14.5 93t45.5 80.5t79 57t116 21.5q42 0 87 -4.5t91 -12.5v-433q0 -44 -15.5 -90t-50.5 -83t-92.5 -60.5
t-141.5 -23.5zM313 133v209q-8 2 -18 2.5t-16 0.5q-38 0 -61.5 -27t-23.5 -75q0 -52 22.5 -81t71.5 -29h25zM139 610h26.5t26.5 -2q-1 5 -1 10v10q0 20 8 38.5t24 33t39.5 23t54.5 8.5q14 0 38 -6t47 -17l-33 -91q-15 8 -30 14t-25 6q-6 0 -10.5 -2.5t-4.5 -7.5
q0 -17 39 -17h67v-106h-266v106z" />
    <glyph glyph-name="uni0625" unicode="&#x625;" horiz-adv-x="315" 
d="M15 -153h26.5t26.5 -2q-1 5 -1 10.5v10.5q0 20 8 38.5t24 33t39.5 23t54.5 8.5q14 0 37.5 -6.5t47.5 -17.5l-34 -90q-14 8 -29 13.5t-25 5.5q-6 0 -10.5 -2.5t-4.5 -7.5q0 -17 39 -17h67v-105h-266v105zM95 578h-11.5t-12.5 1l-56 4v107q46 8 93.5 12t90.5 4q8 0 26 -0.5
t26 -0.5v-705h-156v578z" />
    <glyph glyph-name="uni0626" unicode="&#x626;" horiz-adv-x="1077" 
d="M446 0q-110 0 -182 24t-114 64t-59 93t-17 112q0 31 6 71t15 77l169 30q-20 -49 -27.5 -88t-7.5 -76q0 -41 11 -73t38 -54.5t72 -34.5t112 -12h72v323q45 10 87.5 15.5t87.5 5.5q70 0 115.5 -16.5t72.5 -47t38 -74t11 -96.5v-243h-154v242q0 54 -19 76.5t-67 22.5
q-5 0 -9 -0.5t-9 -0.5v-340h-242zM38 599h26.5t26.5 -2q-1 5 -1 10v10q0 20 8 38.5t24 33t39.5 23t54.5 8.5q15 0 38.5 -6t46.5 -17l-33 -91q-14 8 -29.5 14t-25.5 6q-14 0 -14 -11q0 -16 38 -16h67v-106h-266v106z" />
    <glyph glyph-name="uni0627" unicode="&#x627;" horiz-adv-x="325" 
d="M95 578h-12.5t-11.5 1l-57 4v107q46 8 93.5 12t91.5 4q8 0 25.5 -0.5t25.5 -0.5v-705h-155v578z" />
    <glyph glyph-name="uni0628" unicode="&#x628;" horiz-adv-x="763" 
d="M404 0q-110 0 -181.5 24t-114 64t-59.5 93t-17 112q0 31 6.5 71t15.5 77l169 30q-20 -49 -27.5 -88t-7.5 -76q0 -41 11 -73t38 -54.5t71.5 -34.5t112.5 -12h106v330h156v-463h-279zM408 -203q-18 0 -33.5 7t-27 18.5t-18.5 27t-7 33.5t7 33.5t18.5 27t27 18.5t33.5 7
t33.5 -7t27 -18.5t18 -27t6.5 -33.5t-6.5 -33.5t-18 -27t-27 -18.5t-33.5 -7z" />
    <glyph glyph-name="uni0629" unicode="&#x629;" horiz-adv-x="533" 
d="M275 0q-247 0 -247 234q0 57 17 102.5t48.5 76.5t75.5 47.5t99 16.5q53 0 92 -18.5t64.5 -51.5t38 -78t12.5 -98v-231h-200zM320 133v115q0 47 -17 72t-47 25q-29 0 -49 -25t-20 -70q0 -63 23.5 -90t80.5 -27h29zM172 493q-36 0 -60 25.5t-24 60.5t24 60.5t60 25.5
t59 -25.5t23 -60.5t-23 -60.5t-59 -25.5zM323 493q-36 0 -60 25.5t-24 60.5t24 60.5t60 25.5t59 -25.5t23 -60.5t-23 -60.5t-59 -25.5z" />
    <glyph glyph-name="uni062A" unicode="&#x62a;" horiz-adv-x="763" 
d="M404 0q-110 0 -181.5 24t-114 64t-59.5 93t-17 112q0 31 6.5 71t15.5 77l169 30q-20 -49 -27.5 -88t-7.5 -76q0 -41 11 -73t38 -54.5t71.5 -34.5t112.5 -12h106v330h156v-463h-279zM297 467q-35 0 -59 25.5t-24 60.5t24 60.5t59 25.5q36 0 59 -25.5t23 -60.5t-23 -60.5
t-59 -25.5zM448 467q-35 0 -59 25.5t-24 60.5t24 60.5t59 25.5q36 0 59 -25.5t23 -60.5t-23 -60.5t-59 -25.5z" />
    <glyph glyph-name="uni062B" unicode="&#x62b;" horiz-adv-x="763" 
d="M404 0q-110 0 -181.5 24t-114 64t-59.5 93t-17 112q0 31 6.5 71t15.5 77l169 30q-20 -49 -27.5 -88t-7.5 -76q0 -41 11 -73t38 -54.5t71.5 -34.5t112.5 -12h106v330h156v-463h-279zM379 595q-30 0 -51 22.5t-21 51.5q0 31 21 52.5t51 21.5q31 0 52 -21.5t21 -52.5
q0 -29 -21 -51.5t-52 -22.5zM313 475q-33 0 -55 23.5t-22 55.5t22 55.5t55 23.5t54.5 -23.5t21.5 -55.5t-21.5 -55.5t-54.5 -23.5zM449 475q-33 0 -55 23.5t-22 55.5t22 55.5t55 23.5t54.5 -23.5t21.5 -55.5t-21.5 -55.5t-54.5 -23.5z" />
    <glyph glyph-name="uni062C" unicode="&#x62c;" horiz-adv-x="574" 
d="M254 -230q-50 0 -91.5 11t-71 33t-46 55t-16.5 78q0 89 68.5 139t208.5 50h39v67q0 34 -8 58.5t-26.5 40t-49 22.5t-75.5 7h-15h-14.5t-15 -0.5t-20.5 -2t-31 -3.5l12 132q14 2 23.5 3.5t18 2t17 0.5h19.5h16q82 0 140.5 -17.5t96 -49t55 -76t17.5 -97.5v-223h-210
q-57 0 -82 -11.5t-25 -34.5q0 -49 78 -49q8 0 20 0.5t45 4.5l-12 -134q-36 -6 -65 -6zM416 -203q-18 0 -33.5 7t-27.5 18.5t-18.5 27t-6.5 33.5t6.5 33.5t18.5 27t27.5 18.5t33.5 7t33.5 -7t27 -18.5t18 -27t6.5 -33.5t-6.5 -33.5t-18 -27t-27 -18.5t-33.5 -7z" />
    <glyph glyph-name="uni062D" unicode="&#x62d;" horiz-adv-x="574" 
d="M289 -230q-128 0 -194 43t-66 134q0 89 68.5 139t208.5 50h39v67q0 32 -6.5 56t-24 40t-48.5 24t-80 8q-23 0 -46 -1.5t-50 -5.5l12 133q20 4 41 5t53 1q149 0 229 -59.5t80 -180.5v-223h-210q-57 0 -82 -11.5t-25 -34.5q0 -24 24.5 -36.5t88.5 -12.5q44 0 93 5.5
t106 14.5l-12 -132q-51 -11 -103 -17t-96 -6z" />
    <glyph glyph-name="uni062E" unicode="&#x62e;" horiz-adv-x="574" 
d="M289 -230q-128 0 -194 43t-66 134q0 89 68.5 139t208.5 50h39v67q0 32 -6.5 56t-24 40t-48.5 24t-80 8q-23 0 -46 -1.5t-50 -5.5l12 133q20 4 41 5t53 1q149 0 229 -59.5t80 -180.5v-223h-210q-57 0 -82 -11.5t-25 -34.5q0 -24 24.5 -36.5t88.5 -12.5q44 0 93 5.5
t106 14.5l-12 -132q-51 -11 -103 -17t-96 -6zM243 494q-18 0 -33.5 7t-27.5 18.5t-18.5 27t-6.5 33.5q0 35 25 60t61 25q35 0 60 -25t25 -60q0 -18 -6.5 -33.5t-18 -27t-27 -18.5t-33.5 -7z" />
    <glyph glyph-name="uni062F" unicode="&#x62f;" horiz-adv-x="490" 
d="M28 133h270q-2 30 -12.5 63.5t-35 65t-67.5 58.5t-109 44l12 136q103 -14 173 -52.5t113.5 -91.5t62.5 -115.5t19 -122.5v-118h-426v133z" />
    <glyph glyph-name="uni0630" unicode="&#x630;" horiz-adv-x="490" 
d="M159 523q-18 0 -33.5 7t-27 18.5t-18.5 27t-7 33.5q0 17 7 32.5t18.5 27t27 18.5t33.5 7t33.5 -7t27 -18.5t18 -27t6.5 -32.5q0 -18 -6.5 -33.5t-18 -27t-27 -18.5t-33.5 -7zM28 133h270q-2 30 -12.5 63.5t-35 65t-67.5 58.5t-109 44l12 136q103 -14 173 -52.5
t113.5 -91.5t62.5 -115.5t19 -122.5v-118h-426v133z" />
    <glyph glyph-name="uni0631" unicode="&#x631;" horiz-adv-x="325" 
d="M15 -231q-14 0 -31 1t-37 3l13 134q21 -2 35 -3.5t22 -1.5q49 0 72 23t23 85v453h156v-448q0 -48 -11 -92.5t-39.5 -78.5t-77.5 -54.5t-125 -20.5z" />
    <glyph glyph-name="uni0632" unicode="&#x632;" horiz-adv-x="329" 
d="M187 493q-18 0 -34 7t-27.5 18.5t-18.5 27t-7 33.5t7 33.5t18.5 27t27.5 18.5t34 7t33.5 -7t27 -18.5t18 -27t6.5 -33.5t-6.5 -33.5t-18 -27t-27 -18.5t-33.5 -7zM15 -231q-14 0 -31 1t-37 3l13 134q21 -2 35 -3.5t22 -1.5q49 0 72 23t23 85v453h156v-448
q0 -48 -11 -92.5t-39.5 -78.5t-77.5 -54.5t-125 -20.5z" />
    <glyph glyph-name="uni0633" unicode="&#x633;" horiz-adv-x="1152" 
d="M294 -230q-68 0 -116 23.5t-78.5 64.5t-45 97t-14.5 121q0 35 7.5 83.5t21.5 94.5l167 30q-21 -61 -31 -105.5t-10 -81.5q0 -100 24.5 -146.5t81.5 -46.5q26 0 46 9.5t33 32.5t19.5 60t6.5 93v364h156v-260q0 -41 12.5 -58.5t28.5 -17.5q29 0 41.5 27.5t12.5 77.5v231
h154v-276q0 -54 47 -54h38v121q0 67 -6 126t-15 111l157 20q9 -51 13.5 -114t4.5 -126v-271h-199q-49 0 -85 13.5t-57 37.5q-24 -28 -55.5 -44t-73.5 -16q-12 0 -28 3q-9 -61 -29.5 -103.5t-53 -69.5t-76.5 -39t-99 -12z" />
    <glyph glyph-name="uni0634" unicode="&#x634;" horiz-adv-x="1152" 
d="M294 -230q-68 0 -116 23.5t-78.5 64.5t-45 97t-14.5 121q0 35 7.5 83.5t21.5 94.5l167 30q-21 -61 -31 -105.5t-10 -81.5q0 -100 24.5 -146.5t81.5 -46.5q26 0 46 9.5t33 32.5t19.5 60t6.5 93v364h156v-260q0 -41 12.5 -58.5t28.5 -17.5q29 0 41.5 27.5t12.5 77.5v231
h154v-276q0 -54 47 -54h38v121q0 67 -6 126t-15 111l157 20q9 -51 13.5 -114t4.5 -126v-271h-199q-49 0 -85 13.5t-57 37.5q-24 -28 -55.5 -44t-73.5 -16q-12 0 -28 3q-9 -61 -29.5 -103.5t-53 -69.5t-76.5 -39t-99 -12zM742 614q-31 0 -51.5 22.5t-20.5 51.5q0 30 20.5 52
t51.5 22t51.5 -22t20.5 -52q0 -29 -20.5 -51.5t-51.5 -22.5zM675 493q-32 0 -54 23.5t-22 56.5q0 16 6 30t16 25t24 17.5t30 6.5q34 0 55 -23.5t21 -55.5q0 -33 -21 -56.5t-55 -23.5zM811 493q-32 0 -54 23.5t-22 56.5q0 16 6 30t16 25t24 17.5t30 6.5q34 0 55 -23.5
t21 -55.5q0 -33 -21 -56.5t-55 -23.5z" />
    <glyph glyph-name="uni0635" unicode="&#x635;" horiz-adv-x="1095" 
d="M293 -230q-68 0 -116 23.5t-78.5 64.5t-45 97t-14.5 121q0 35 7.5 83.5t21.5 94.5l167 30q-21 -61 -31 -105.5t-10 -81.5q0 -100 24.5 -146.5t81.5 -46.5q26 0 46 9.5t33.5 31.5t20 57.5t6.5 87.5v373h155q0 -35 0.5 -52t1 -26.5t0 -17t-3.5 -23.5q19 25 44 49t54.5 42.5
t63.5 30t71 11.5q95 0 149.5 -57.5t54.5 -172.5v-247h-444q-18 -124 -82.5 -177t-176.5 -53zM834 133v102q0 57 -13 82t-47 25q-57 0 -111.5 -56t-94.5 -153h266z" />
    <glyph glyph-name="uni0636" unicode="&#x636;" horiz-adv-x="1095" 
d="M293 -230q-68 0 -116 23.5t-78.5 64.5t-45 97t-14.5 121q0 35 7.5 83.5t21.5 94.5l167 30q-21 -61 -31 -105.5t-10 -81.5q0 -100 24.5 -146.5t81.5 -46.5q26 0 46 9.5t33.5 31.5t20 57.5t6.5 87.5v373h155q0 -35 0.5 -52t1 -26.5t0 -17t-3.5 -23.5q19 25 44 49t54.5 42.5
t63.5 30t71 11.5q95 0 149.5 -57.5t54.5 -172.5v-247h-444q-18 -124 -82.5 -177t-176.5 -53zM834 133v102q0 57 -13 82t-47 25q-57 0 -111.5 -56t-94.5 -153h266zM708 500q-18 0 -33.5 7t-27.5 18.5t-18.5 27t-6.5 33.5q0 17 6.5 32.5t18.5 27t27.5 18.5t33.5 7t33.5 -7
t27 -18.5t18 -27t6.5 -32.5q0 -18 -6.5 -33.5t-18 -27t-27 -18.5t-33.5 -7z" />
    <glyph glyph-name="uni0637" unicode="&#x637;" horiz-adv-x="787" 
d="M-5 133h119v573h156v-303v-30t-2 -28q20 26 45 50t54.5 42t62.5 29t70 11q96 0 150.5 -57.5t54.5 -172.5v-247h-710v133zM542 133v102q0 57 -13 82t-46 25q-32 0 -62.5 -17.5t-57 -46.5t-49 -66.5t-39.5 -78.5h267z" />
    <glyph glyph-name="uni0638" unicode="&#x638;" horiz-adv-x="787" 
d="M-5 133h119v573h156v-303v-30t-2 -28q20 26 45 50t54.5 42t62.5 29t70 11q96 0 150.5 -57.5t54.5 -172.5v-247h-710v133zM542 133v102q0 57 -13 82t-46 25q-32 0 -62.5 -17.5t-57 -46.5t-49 -66.5t-39.5 -78.5h267zM375 501q-18 0 -33.5 7t-27 18.5t-18.5 27t-7 33.5
q0 17 7 32.5t18.5 27t27 18.5t33.5 7t33.5 -7t27.5 -18.5t18.5 -27t6.5 -32.5q0 -18 -6.5 -33.5t-18.5 -27t-27.5 -18.5t-33.5 -7z" />
    <glyph glyph-name="uni0639" unicode="&#x639;" horiz-adv-x="528" 
d="M303 -230q-76 0 -128.5 12.5t-84.5 35t-46.5 55t-14.5 71.5q0 23 5 44.5t17 41t32 36.5t51 31q-28 27 -44 63.5t-16 93.5q0 52 22 93.5t57.5 70.5t80.5 44t92 15q24 0 57.5 -5.5t64.5 -16.5l-25 -141q-27 11 -53 19t-49 8q-16 0 -33 -6t-30.5 -18t-22.5 -30t-9 -42
q0 -30 11.5 -51.5t31.5 -35t47.5 -19.5t60.5 -6h112v-133h-213q-47 0 -67.5 -12t-20.5 -33q0 -11 4.5 -20t18 -16t37.5 -10.5t63 -3.5q32 0 70.5 4t83.5 11l-11 -135q-40 -8 -76.5 -11.5t-74.5 -3.5z" />
    <glyph glyph-name="uni063A" unicode="&#x63a;" horiz-adv-x="528" 
d="M303 -230q-76 0 -128.5 12.5t-84.5 35t-46.5 55t-14.5 71.5q0 23 5 44.5t17 41t32 36.5t51 31q-28 27 -44 63.5t-16 93.5q0 52 22 93.5t57.5 70.5t80.5 44t92 15q24 0 57.5 -5.5t64.5 -16.5l-25 -141q-27 11 -53 19t-49 8q-16 0 -33 -6t-30.5 -18t-22.5 -30t-9 -42
q0 -30 11.5 -51.5t31.5 -35t47.5 -19.5t60.5 -6h112v-133h-213q-47 0 -67.5 -12t-20.5 -33q0 -11 4.5 -20t18 -16t37.5 -10.5t63 -3.5q32 0 70.5 4t83.5 11l-11 -135q-40 -8 -76.5 -11.5t-74.5 -3.5zM276 501q-18 0 -33.5 7t-27.5 18.5t-18.5 27t-6.5 33.5q0 17 6.5 32.5
t18.5 27t27.5 18.5t33.5 7t33.5 -7t27 -18.5t18 -27t6.5 -32.5q0 -18 -6.5 -33.5t-18 -27t-27 -18.5t-33.5 -7z" />
    <glyph glyph-name="uni0641" unicode="&#x641;" horiz-adv-x="912" 
d="M379 0q-106 0 -173 24.5t-105 67t-52 98.5t-14 119q0 13 2 29.5t5 34.5t7 35.5t8 32.5l167 30q-9 -26 -15.5 -46.5t-10 -38.5t-5.5 -34.5t-2 -34.5q0 -41 8 -74t30 -56t60.5 -36.5t99.5 -16.5q-20 43 -20 107q0 45 16.5 87.5t47 75.5t75.5 53t102 20q50 0 91 -16.5
t70.5 -47t45.5 -74t16 -97.5q0 -53 -18.5 -97.5t-52 -76.5t-80 -50t-102.5 -18h-201zM597 132q38 0 58.5 32.5t20.5 77.5q0 39 -19 68.5t-55 29.5q-20 0 -34 -8.5t-23 -23t-13 -33.5t-4 -40q0 -45 18.5 -74t50.5 -29zM607 505q-18 0 -33.5 7t-27 18.5t-18.5 27t-7 33.5
t7 33.5t18.5 27t27 18.5t33.5 7t33.5 -7t27 -18.5t18 -27t6.5 -33.5t-6.5 -33.5t-18 -27t-27 -18.5t-33.5 -7z" />
    <glyph glyph-name="uni0642" unicode="&#x642;" horiz-adv-x="817" 
d="M404 -230q-99 0 -169.5 20t-115.5 58.5t-65.5 93.5t-20.5 125q0 15 2.5 38t7 48.5t10 50.5t12.5 45l169 31q-11 -24 -19 -52.5t-14 -56.5t-9 -53.5t-3 -43.5q0 -90 58.5 -129t168.5 -39q37 0 75.5 1t87.5 4v89h-36q-124 0 -183 58.5t-59 166.5q0 49 15 94.5t46.5 80.5
t79.5 56t114 21q43 0 87.5 -4.5t90.5 -12.5v-676q-103 -9 -186.5 -11.5t-143.5 -2.5zM579 133v209q-8 2 -18 2.5t-16 0.5q-34 0 -59.5 -25t-25.5 -77q0 -23 5 -43t16 -35t29 -23.5t44 -8.5h25zM478 504q-36 0 -60 25.5t-24 60.5t24 60.5t60 25.5t59 -25.5t23 -60.5
t-23 -60.5t-59 -25.5zM628 504q-35 0 -59 25.5t-24 60.5t24 60.5t59 25.5q37 0 60 -25.5t23 -60.5t-23 -60.5t-60 -25.5z" />
    <glyph glyph-name="uni0643" unicode="&#x643;" horiz-adv-x="834" 
d="M405 0q-110 0 -181.5 24t-114 64t-59.5 93t-17 112q0 31 6.5 71t15.5 77l169 30q-20 -49 -27.5 -88t-7.5 -76q0 -41 11 -73t38 -54.5t71.5 -34.5t112.5 -12h154v573h155v-706h-326zM272 407h26.5t26.5 -2q-1 5 -1 10.5v10.5q0 19 8 37.5t24 33t39.5 23t54.5 8.5
q14 0 37.5 -6t47.5 -17l-33 -90q-15 8 -30 13.5t-25 5.5q-6 0 -10.5 -2.5t-4.5 -7.5q0 -17 39 -17h67v-105h-266v105z" />
    <glyph glyph-name="uni0644" unicode="&#x644;" horiz-adv-x="643" 
d="M284 -230q-68 0 -116 23t-78.5 64t-45 97t-14.5 122q0 15 2 37.5t6 47.5t9.5 49t11.5 44l168 30q-19 -51 -30.5 -101t-11.5 -86q0 -94 23.5 -143.5t82.5 -49.5q33 0 53.5 15t32 41.5t15 61.5t3.5 76v608h156v-600q0 -72 -11 -133.5t-40.5 -106.5t-81.5 -70.5t-134 -25.5z
" />
    <glyph glyph-name="uni0645" unicode="&#x645;" horiz-adv-x="630" 
d="M1 -92q57 0 87 26t30 88v194q0 45 10.5 91.5t37.5 84t74 61.5t119 24q46 0 84 -15.5t65.5 -46.5t42.5 -77t15 -107v-231h-198q-24 0 -50.5 5t-48.5 15q-2 -70 -25.5 -118t-62.5 -77t-88.5 -42t-102.5 -13zM411 133v115q0 19 -3.5 36.5t-11 31t-19.5 21.5t-30 8
q-32 0 -50.5 -28t-18.5 -67q0 -67 24.5 -92t79.5 -25h29z" />
    <glyph glyph-name="uni0646" unicode="&#x646;" horiz-adv-x="623" 
d="M284 -230q-68 0 -116 23.5t-78.5 64.5t-45 97t-14.5 121q0 35 7.5 83.5t21.5 94.5l167 30q-21 -61 -31 -105.5t-10 -81.5q0 -100 24.5 -146.5t81.5 -46.5q26 0 46 9.5t33 32.5t19.5 60t6.5 93v364h155v-357q0 -93 -16.5 -157t-50 -104t-83.5 -57.5t-117 -17.5zM290 277
q-18 0 -33.5 7t-27 18.5t-18.5 27t-7 33.5q0 17 7 32.5t18.5 27t27 18.5t33.5 7t33.5 -7t27 -18.5t18 -27t6.5 -32.5q0 -18 -6.5 -33.5t-18 -27t-27 -18.5t-33.5 -7z" />
    <glyph glyph-name="uni0647" unicode="&#x647;" horiz-adv-x="533" 
d="M275 0q-247 0 -247 234q0 57 17 102.5t48.5 76.5t75.5 47.5t99 16.5q53 0 92 -18.5t64.5 -51.5t38 -78t12.5 -98v-231h-200zM320 133v115q0 47 -17 72t-47 25q-29 0 -49 -25t-20 -70q0 -63 23.5 -90t80.5 -27h29z" />
    <glyph glyph-name="uni0648" unicode="&#x648;" horiz-adv-x="535" 
d="M168 -230q-14 0 -31 1t-35 2.5t-35.5 3.5t-31.5 5l-8 143q42 -11 79.5 -15t69.5 -4q63 0 96 24.5t39 69.5h-34q-68 0 -114 17.5t-74.5 48t-41 71.5t-12.5 88q0 48 14.5 93t45.5 80.5t79 57t116 21.5q42 0 87 -4.5t91 -12.5v-433q0 -44 -15.5 -90t-50.5 -83t-92.5 -60.5
t-141.5 -23.5zM313 133v209q-8 2 -18 2.5t-16 0.5q-38 0 -61.5 -27t-23.5 -75q0 -52 22.5 -81t71.5 -29h25z" />
    <glyph glyph-name="uni0649" unicode="&#x649;" horiz-adv-x="1003" 
d="M409 0q-110 0 -182 24t-114 64t-59 93t-17 112q0 31 6 71t15 77l169 30q-19 -49 -27 -88t-8 -76q0 -41 11 -73t38 -54.5t72 -34.5t113 -12h71v323q45 10 88 15.5t88 5.5q69 0 115 -16.5t73 -47t38 -74t11 -96.5v-243h-155v242q0 54 -19 76.5t-67 22.5q-5 0 -9 -0.5
t-9 -0.5v-340h-242z" />
    <glyph glyph-name="uni064A" unicode="&#x64a;" horiz-adv-x="1003" 
d="M409 0q-110 0 -182 24t-114 64t-59 93t-17 112q0 31 6 71t15 77l169 30q-19 -49 -27 -88t-8 -76q0 -41 11 -73t38 -54.5t72 -34.5t113 -12h71v323q45 10 88 15.5t88 5.5q69 0 115 -16.5t73 -47t38 -74t11 -96.5v-243h-155v242q0 54 -19 76.5t-67 22.5q-5 0 -9 -0.5
t-9 -0.5v-340h-242zM308 -203q-35 0 -59 25.5t-24 60.5t24 60.5t59 25.5q36 0 59 -25.5t23 -60.5t-23 -60.5t-59 -25.5zM459 -203q-35 0 -59 25.5t-24 60.5t24 60.5t59 25.5q36 0 59 -25.5t23 -60.5t-23 -60.5t-59 -25.5z" />
    <glyph glyph-name="uni0671" unicode="&#x671;" horiz-adv-x="364" 
d="M-3 702h47q18 51 57.5 86.5t97.5 35.5q48 0 77.5 -25.5t29.5 -83.5v-100h-309v87zM199 702v4q0 17 -1.5 23t-5.5 6q-11 0 -21.5 -9.5t-18.5 -23.5h47zM118 464q-6 1 -12.5 1t-11.5 1l-57 3v108q46 7 93.5 11t90.5 4q9 0 26.5 -0.5t25.5 -0.5v-591h-155v464z" />
    <glyph glyph-name="uni067E" unicode="&#x67e;" horiz-adv-x="763" 
d="M404 0q-110 0 -181.5 24t-114 64t-59.5 93t-17 112q0 31 6.5 71t15.5 77l169 30q-20 -49 -27.5 -88t-7.5 -76q0 -41 11 -73t38 -54.5t71.5 -34.5t112.5 -12h106v330h156v-463h-279zM407 -307q-31 0 -51.5 22.5t-20.5 51.5q0 30 20.5 52t51.5 22t51.5 -22t20.5 -52
q0 -29 -20.5 -51.5t-51.5 -22.5zM341 -190q-33 0 -55 23.5t-22 56.5q0 32 22 55.5t55 23.5t54 -23.5t21 -55.5q0 -33 -21 -56.5t-54 -23.5zM477 -190q-33 0 -55 23.5t-22 56.5q0 32 22 55.5t55 23.5t54 -23.5t21 -55.5q0 -33 -21 -56.5t-54 -23.5z" />
    <glyph glyph-name="uni0686" unicode="&#x686;" horiz-adv-x="574" 
d="M272 -230q-54 0 -98.5 11t-76.5 33t-49.5 55t-17.5 78q0 89 69 139t209 50h71v67q0 34 -8 58.5t-26.5 40t-49 22.5t-75.5 7h-15h-14.5t-15 -0.5t-20.5 -2t-31 -3.5l12 132q14 2 23.5 3.5t18 2t17 0.5h19.5h16q82 0 140.5 -17.5t95.5 -49t54.5 -76t17.5 -97.5v-223h-241
q-57 0 -82 -11.5t-25 -34.5q0 -49 99 -49zM435 -307q-31 0 -51.5 22.5t-20.5 51.5q0 30 20.5 52t51.5 22q30 0 51 -22t21 -52q0 -29 -21 -51.5t-51 -22.5zM368 -190q-32 0 -54.5 23.5t-22.5 56.5q0 16 6 30t16.5 25t24.5 17.5t30 6.5q34 0 55 -23.5t21 -55.5
q0 -33 -21 -56.5t-55 -23.5zM504 -190q-32 0 -54.5 23.5t-22.5 56.5q0 16 6 30t16.5 25t24.5 17.5t30 6.5q34 0 55 -23.5t21 -55.5q0 -33 -21 -56.5t-55 -23.5z" />
    <glyph glyph-name="uni0698" unicode="&#x698;" horiz-adv-x="400" 
d="M189 614q-31 0 -52 22.5t-21 51.5q0 30 21 52t52 22q30 0 51 -22t21 -52q0 -29 -21 -51.5t-51 -22.5zM122 493q-32 0 -54.5 23.5t-22.5 56.5q0 16 6 30t16.5 25t24.5 17.5t30 6.5q33 0 54.5 -23.5t21.5 -55.5q0 -33 -21.5 -56.5t-54.5 -23.5zM258 493q-32 0 -54.5 23.5
t-22.5 56.5q0 16 6 30t16.5 25t24.5 17.5t30 6.5q34 0 55 -23.5t21 -55.5q0 -33 -21 -56.5t-55 -23.5zM17 -231q-15 0 -32 1t-37 3l13 134q22 -2 35.5 -3.5t21.5 -1.5q49 0 72.5 23t23.5 85v453h155v-448q0 -48 -11 -92.5t-39.5 -78.5t-77 -54.5t-124.5 -20.5z" />
    <glyph glyph-name="uni06A4" unicode="&#x6a4;" horiz-adv-x="912" 
d="M379 0q-106 0 -173 24.5t-105 67t-52 98.5t-14 119q0 13 2 29.5t5 34.5t7 35.5t8 32.5l167 30q-9 -26 -15.5 -46.5t-10 -38.5t-5.5 -34.5t-2 -34.5q0 -41 8 -74t30 -56t60.5 -36.5t99.5 -16.5q-20 43 -20 107q0 45 16.5 87.5t47 75.5t75.5 53t102 20q50 0 91 -16.5
t70.5 -47t45.5 -74t16 -97.5q0 -53 -18.5 -97.5t-52 -76.5t-80 -50t-102.5 -18h-201zM597 132q38 0 58.5 32.5t20.5 77.5q0 39 -19 68.5t-55 29.5q-20 0 -34 -8.5t-23 -23t-13 -33.5t-4 -40q0 -45 18.5 -74t50.5 -29zM601 626q-31 0 -51.5 22.5t-20.5 51.5q0 30 20.5 52
t51.5 22t51.5 -22t20.5 -52q0 -29 -20.5 -51.5t-51.5 -22.5zM534 505q-32 0 -54.5 23.5t-22.5 56.5q0 16 6 30t16.5 25t24.5 17.5t30 6.5q34 0 55 -23.5t21 -55.5q0 -33 -21 -56.5t-55 -23.5zM670 505q-32 0 -54.5 23.5t-22.5 56.5q0 16 6 30t16.5 25t24.5 17.5t30 6.5
q34 0 55 -23.5t21 -55.5q0 -33 -21 -56.5t-55 -23.5z" />
    <glyph glyph-name="uni06A9" unicode="&#x6a9;" horiz-adv-x="851" 
d="M407 0q-110 0 -182 24t-114 64t-59 93t-17 112q0 31 6 71t15 77l169 30q-20 -49 -27.5 -88t-7.5 -76q0 -41 11 -73t38 -54.5t72 -34.5t112 -12h198q-4 44 -21.5 86t-51 75t-84 53t-120.5 21v110q67 35 139 75.5t140 80.5q18 10 40 23t45.5 26.5t45.5 26t40 22.5v-152
q-17 -9 -38.5 -20t-38.5 -21q-24 -14 -41 -24t-33.5 -19t-35 -18t-44.5 -20q56 -20 96 -56t66 -82.5t38.5 -101t12.5 -112.5v-106h-369z" />
    <glyph glyph-name="uni06AF" unicode="&#x6af;" horiz-adv-x="851" 
d="M344 619l440 258v-141l-440 -258v141zM407 0q-110 0 -182 24t-114 64t-59 93t-17 112q0 31 6 71t15 77l169 30q-20 -49 -27.5 -88t-7.5 -76q0 -41 11 -73t38 -54.5t72 -34.5t112 -12h198q-4 44 -21.5 86t-51 75t-84 53t-120.5 21v110q67 35 139 75.5t140 80.5
q18 10 40 23t45.5 26.5t45.5 26t40 22.5v-152q-17 -9 -38.5 -20t-38.5 -21q-24 -14 -41 -24t-33.5 -19t-35 -18t-44.5 -20q56 -20 96 -56t66 -82.5t38.5 -101t12.5 -112.5v-106h-369z" />
    </font>
</defs>
</svg>
