<?xml version="1.0" standalone="no"?><!-- Generator: Adobe Fireworks CS6, Export SVG Extension by Aaron Beall (http://fireworks.abeall.com) . Version: 0.6.1  --><!DOCTYPE svg PUBLIC "-//W3C//DTD SVG 1.1//EN" "http://www.w3.org/Graphics/SVG/1.1/DTD/svg11.dtd"><svg id="groundwork-logo.fw-Page%201" viewBox="0 0 500 500" style="background-color:#ffffff00" version="1.1"	xmlns="http://www.w3.org/2000/svg" xmlns:xlink="http://www.w3.org/1999/xlink" xml:space="preserve"	x="0px" y="0px" width="500px" height="500px">	<g id="Layer%201">		<g>			<path d="M 10 130 C 10 63.725 63.725 10 130 10 L 370 10 C 436.275 10 490 63.725 490 130 L 490 370 C 490 436.275 436.275 490 370 490 L 130 490 C 63.725 490 10 436.275 10 370 L 10 130 Z" fill="#ffffff"/>		</g>		<path d="M 10 130 C 10 63.725 63.725 10 130 10 L 250 10 L 250 250 L 10 250 L 10 130 Z" fill="#bada55"/>		<path d="M 144 197 C 144 167.7285 167.7285 144 197 144 L 250 144 L 250 250 L 144 250 L 144 197 Z" fill="#2c2c2f"/>		<path d="M 370 10 C 436.275 10 490 63.725 490 130 L 490 250 L 250 250 L 250 10 L 370 10 Z" fill="#282830"/>		<path d="M 303 144 C 332.2715 144 356 167.7285 356 197 L 356 250 L 250 250 L 250 144 L 303 144 Z" fill="#55adab"/>		<path d="M 10 370 C 10 436.275 63.725 490 130 490 L 250 490 L 250 250 L 10 250 L 10 370 Z" fill="#ffffff"/>		<path visibility="hidden" d="M 370 490 C 436.275 490 490 436.275 490 370 L 490 250 L 250 250 L 250 490 L 370 490 Z" fill="#e7e7e7"/>		<path d="M 370 490 C 436.275 490 490 436.275 490 370 L 490 250 L 250 250 L 250 490 L 370 490 Z" fill="#c82647"/>		<path d="M 144 303 C 144 332.2715 167.7285 356 197 356 L 250 356 L 250 250 L 144 250 L 144 303 Z" fill="#198d98"/>		<path d="M 303 356 C 332.2715 356 356 332.2715 356 303 L 356 250 L 250 250 L 250 356 L 303 356 Z" fill="#1dabb8"/>		<path id="Ellipse" d="M 180 197 C 180 187.611 187.611 180 197 180 C 206.389 180 214 187.611 214 197 C 214 206.389 206.389 214 197 214 C 187.611 214 180 206.389 180 197 Z" fill="#ffffff"/>		<path id="Ellipse2" d="M 286 197 C 286 187.611 293.611 180 303 180 C 312.389 180 320 187.611 320 197 C 320 206.389 312.389 214 303 214 C 293.611 214 286 206.389 286 197 Z" fill="#ffffff"/>		<path id="Line" d="M 185.5 250.5 L 315.5 250.5 " stroke="#ffffff" stroke-width="10" fill="none"/>	</g></svg>