<?xml version="1.0" encoding="utf-8"?>
<!-- Generator: Adobe Illustrator 21.0.0, SVG Export Plug-In . SVG Version: 6.00 Build 0)  -->
<svg version="1.1" id="レイヤー_1" xmlns="http://www.w3.org/2000/svg" xmlns:xlink="http://www.w3.org/1999/xlink" x="0px"
	 y="0px" viewBox="0 0 512 512" enable-background="new 0 0 512 512" xml:space="preserve">
<path fill="#FFFFFF" d="M404.095,285.074c-0.938-2.723-1.909-5.549-2.905-8.477c-6.003-17.407-13.017-38.142-25.206-61.58
	c-15.879-31.285-38.901-59.525-58.888-74.682c-0.371-0.289-0.745-0.578-1.117-0.866c-0.396-0.265-0.792-0.53-1.185-0.793
	c-16.783-11.108-37.4-15.606-58.793-15.675c-21.396,0.07-42.008,4.572-58.792,15.675c-0.396,0.263-0.792,0.528-1.187,0.793
	c-0.373,0.288-0.744,0.576-1.116,0.866c-19.992,15.154-43.017,43.396-58.89,74.684c-12.19,23.438-19.21,44.168-25.204,61.575
	c-0.998,2.927-1.964,5.754-2.905,8.478c-7.395,20.083-7.796,45.255,3.741,66.364c11.642,21.363,36.083,31.837,60.926,31.558
	c1.137,0.001,2.293-0.018,3.438-0.058c2.589,0,5.178,0,7.767,0c0-35.623,0-71.247,0-106.871c0.196-21.076,9.803-15.701,31.025-2.918
	c25.204,14.752,57.187,14.752,82.391,0c21.223-12.782,30.835-18.158,31.025,2.918c0,35.623,0,71.247,0,106.871
	c2.59,0,5.179,0,7.769,0c1.141,0.037,2.294,0.058,3.433,0.058c24.852,0.278,49.279-10.198,60.932-31.561
	C411.884,330.325,411.49,305.153,404.095,285.074z"/>
</svg>
