<?xml version="1.0" encoding="utf-8"?>
<!DOCTYPE svg PUBLIC "-//W3C//DTD SVG 1.1//EN" "http://www.w3.org/Graphics/SVG/1.1/DTD/svg11.dtd">
<svg version="1.1" xmlns="http://www.w3.org/2000/svg" xmlns:xlink="http://www.w3.org/1999/xlink" x="0px" y="0px" width="20px" height="20px" viewBox="0 0 20 20" enable-background="new 0 0 20 20" xml:space="preserve">
<g id="jetpack">
	<path fill="#999999" d="M8.5,17.963L7.946,17.25c-0.688,0.243-1.528,0.391-2.446,0.391s-1.758-0.146-2.447-0.391L2.5,17.963c0,0.711,1.343,1.287,3,1.287S8.5,18.674,8.5,17.963z"/>
	<path fill="#999999" d="M10.675,16.963l0.554-0.713c0.689,0.243,1.528,0.391,2.446,0.391s1.757-0.146,2.446-0.391l0.554,0.713c0,0.711-1.343,1.287-3,1.287S10.675,17.674,10.675,16.963z"/>
	<g>
		<rect x="4" y="10" fill="#999999" width="1" height="1"/>
		<path fill="#999999" d="M15.043,1.043c-0.412-0.229-0.908-0.375-1.455-0.375c-0.553,0.001-1.051,0.148-1.463,0.381c-0.878,0.883-1.598,2.546-2.045,4.643C10.105,5.789,10.125,5.899,10.148,6H8.977C8.515,4.081,7.824,2.558,6.994,1.723C6.572,1.485,6.064,1.334,5.5,1.334C4.939,1.333,4.434,1.481,4.014,1.716c-1.521,1.521-2.602,5.296-2.602,9.722c0,1.646,0.154,3.198,0.42,4.584C2.562,16.604,3.922,17,5.5,17s2.939-0.396,3.668-0.979C9.291,15.381,9.387,14.704,9.457,14h1.159c-0.046,0.451-0.091,0.906-0.159,1.333C11.215,15.738,12.326,16,13.588,16c1.544,0,2.875-0.389,3.59-0.958c0.26-1.354,0.41-2.874,0.41-4.485C17.588,6.225,16.531,2.531,15.043,1.043z M6,9v3H5.623c0.117,1.055,0.319,2.077,0.627,3h-2c-0.308-0.923-0.51-1.945-0.627-3H3V9h0.535C3.613,7.592,3.846,6.213,4.25,5h2C5.846,6.213,5.613,7.592,5.535,9H6z M5.5,3.625c-0.828,0-1.5-0.336-1.5-0.75s0.672-0.75,1.5-0.75S7,2.461,7,2.875S6.328,3.625,5.5,3.625z M9.535,13c0.031-0.511,0.053-1.029,0.053-1.562C9.588,9.85,9.443,8.35,9.195,7h1.174c0.25,1.346,0.393,2.848,0.393,4.438c0,0.537-0.029,1.055-0.062,1.562H9.535z M12.125,2.15c0-0.414,0.672-0.75,1.5-0.75s1.5,0.336,1.5,0.75s-0.672,0.75-1.5,0.75S12.125,2.564,12.125,2.15z M16,11h-0.623c-0.117,1.055-0.318,2.077-0.627,3h-2c0.309-0.923,0.51-1.945,0.627-3H13V8h0.465c-0.078-1.408-0.311-2.787-0.715-4h2c0.404,1.213,0.637,2.592,0.715,4H16V11z"/>
		<rect x="14" y="9" fill="#999999" width="1" height="1"/>
	</g>
</g>
</svg>
