<?xml version="1.0" standalone="no"?>
<!DOCTYPE svg PUBLIC "-//W3C//DTD SVG 1.1//EN" "http://www.w3.org/Graphics/SVG/1.1/DTD/svg11.dtd" >
<svg xmlns="http://www.w3.org/2000/svg">
<metadata></metadata>
<defs>
<font id="hacen_typographerregular" horiz-adv-x="973" >
<font-face units-per-em="2048" ascent="1638" descent="-410" />
<missing-glyph horiz-adv-x="500" />
<glyph unicode="&#x651;&#x64b;" horiz-adv-x="425" d="M50 1838l17 91l340 193l-17 -91zM61 1710l17 91l340 193l-17 -91zM66 1591q0 21 4.5 39.5t9.5 29.5q0 -3 4.5 1.5t9.5 10.5t10 10.5t5 1.5q-5 -21 -7 -40t2 -32.5t17 -19t38 -0.5q28 5 41 23t17.5 40.5t5.5 46t6 39.5q1 -3 4.5 1t7.5 9t8 9.5t6 1.5q-3 -30 6.5 -54 t26 -36.5t38 -11.5t42.5 21q4 10 2 23t-8.5 25.5t-15.5 24.5t-18 21q5 10 14.5 15.5t20 10t20 9.5t15.5 13q5 -8 5.5 -12.5t-0.5 -8.5t-1.5 -8.5t3.5 -13.5q12 -32 14.5 -66t-5 -63.5t-25.5 -50.5t-47 -26q-25 -4 -39 3t-31 18q-4 -11 -10.5 -25.5t-18 -28.5t-27 -25.5 t-37.5 -16.5q-34 -9 -56 -3.5t-35 20t-17.5 35t-4.5 40.5z" />
<glyph unicode="&#xfef4;&#xfeae;" horiz-adv-x="1187" d="M-255 -241q-9 4 9 4q43 -1 94 0t109.5 10t123 30t133 61t141.5 102.5t147 154.5q0 32 -5.5 61.5t-18 60t-33.5 63.5t-51 72l89 184q34 -63 72.5 -94t78.5 -38t80.5 7t78.5 41.5t72.5 65t63.5 76.5q13 22 19 31.5t8.5 -1t2.5 -45.5q0 -34 2 -101q-16 -40 -12.5 -74 t27.5 -59t68.5 -39t109.5 -14h58v-182h-76q-64 0 -110 15.5t-78 41t-51 58t-27.5 66.5t-9 66t5.5 58q-37 -81 -73 -121t-69 -58t-61 -22.5t-49 -13.5q-25 -94 -53.5 -172t-71.5 -143.5t-104.5 -120t-152.5 -100.5q-10 -5 -40 -4.5t-71 4.5t-89 11t-95 15.5t-88 16.5t-68 15 t-36 11zM608 -163l127 127q30 -32 56 -58.5t56 -55.5l114 114q34 -35 62.5 -64.5t63.5 -62.5l-126 -126q-32 32 -58.5 57.5t-55.5 54.5l-112 -112q-35 35 -64 63t-63 63z" />
<glyph unicode="&#xfe98;&#xfeae;" horiz-adv-x="1187" d="M-255 -241q-9 4 9 4q43 -1 94 0t109.5 10t123 30t133 61t141.5 102.5t147 154.5q0 32 -5.5 61.5t-18 60t-33.5 63.5t-51 72l89 184q34 -63 72.5 -94t78.5 -38t80.5 7t78.5 41.5t72.5 65t63.5 76.5q13 22 19 31.5t8.5 -1t2.5 -45.5q0 -34 2 -101q-16 -40 -12.5 -74 t27.5 -59t68.5 -39t109.5 -14h58v-182h-76q-64 0 -110 15.5t-78 41t-51 58t-27.5 66.5t-9 66t5.5 58q-37 -81 -73 -121t-69 -58t-61 -22.5t-49 -13.5q-25 -94 -53.5 -172t-71.5 -143.5t-104.5 -120t-152.5 -100.5q-10 -5 -40 -4.5t-71 4.5t-89 11t-95 15.5t-88 16.5t-68 15 t-36 11zM545 930l127 127q30 -32 56 -58.5t56 -55.5l114 114q34 -35 62.5 -64.5t63.5 -62.5l-126 -126q-32 32 -58.5 57.5t-55.5 54.5l-112 -112q-35 35 -64 63t-63 63z" />
<glyph unicode="&#xfe92;&#xfeae;" horiz-adv-x="1187" d="M-255 -241q-9 4 9 4q43 -1 94 0t109.5 10t123 30t133 61t141.5 102.5t147 154.5q0 32 -5.5 61.5t-18 60t-33.5 63.5t-51 72l89 184q34 -63 72.5 -94t78.5 -38t80.5 7t78.5 41.5t72.5 65t63.5 76.5q13 22 19 31.5t8.5 -1t2.5 -45.5q0 -34 2 -101q-16 -40 -12.5 -74 t27.5 -59t68.5 -39t109.5 -14h58v-182h-76q-64 0 -110 15.5t-78 41t-51 58t-27.5 66.5t-9 66t5.5 58q-37 -81 -73 -121t-69 -58t-61 -22.5t-49 -13.5q-25 -94 -53.5 -172t-71.5 -143.5t-104.5 -120t-152.5 -100.5q-10 -5 -40 -4.5t-71 4.5t-89 11t-95 15.5t-88 16.5t-68 15 t-36 11zM692 -164l132 132q35 -37 65.5 -67t65.5 -65l-131 -131q-37 35 -67 65t-65 66z" />
<glyph unicode="&#xfef4;&#xfee6;" horiz-adv-x="1733" d="M66 47q1 55 9.5 100t26 97t44 119t64.5 167q-2 -11 -9 -35.5t-15.5 -55.5t-18 -64.5t-18 -63t-13.5 -51.5t-5 -29q0 -88 31 -151.5t84.5 -105.5t124 -63t149 -22t160.5 17t158.5 53.5t143 87t113.5 118.5q-9 56 -21.5 110t-31.5 106.5t-45.5 104t-64.5 103.5 q31 44 57.5 80t58.5 77q13 -20 30 -48.5t34 -60.5t31.5 -64t22.5 -58q72 11 125 36.5t90.5 57t62 64t39 57t21 36.5t9.5 3t3 -44t2 -105q-16 -40 -14.5 -91.5t22.5 -97t63 -77t107 -31.5h58v-182h-76q-64 0 -109 24t-75.5 61.5t-47 84.5t-23.5 93t-6 87t6 66 q-14 -46 -50 -85t-76.5 -68.5t-76 -48t-48.5 -21.5q0 -99 -27 -184t-75 -155.5t-114.5 -125t-145.5 -91.5t-168 -56.5t-182 -19.5q-105 0 -180 27.5t-123 75t-70 110t-21 132.5zM503 868l145 145q39 -41 72 -74t72 -71l-144 -144q-20 19 -38 36.5t-35.5 35l-35 35 t-36.5 37.5zM1138 -226l127 127q30 -32 56 -58.5t56 -55.5l114 114q34 -35 62.5 -64.5t63.5 -62.5l-126 -126q-32 32 -58.5 57.5t-55.5 54.5l-112 -112q-35 35 -64 63t-63 63z" />
<glyph unicode="&#xfe92;&#xfee6;" horiz-adv-x="1733" d="M66 47q1 55 9.5 100t26 97t44 119t64.5 167q-2 -11 -9 -35.5t-15.5 -55.5t-18 -64.5t-18 -63t-13.5 -51.5t-5 -29q0 -88 31 -151.5t84.5 -105.5t124 -63t149 -22t160.5 17t158.5 53.5t143 87t113.5 118.5q-9 56 -21.5 110t-31.5 106.5t-45.5 104t-64.5 103.5 q31 44 57.5 80t58.5 77q13 -20 30 -48.5t34 -60.5t31.5 -64t22.5 -58q72 11 125 36.5t90.5 57t62 64t39 57t21 36.5t9.5 3t3 -44t2 -105q-16 -40 -14.5 -91.5t22.5 -97t63 -77t107 -31.5h58v-182h-76q-64 0 -109 24t-75.5 61.5t-47 84.5t-23.5 93t-6 87t6 66 q-14 -46 -50 -85t-76.5 -68.5t-76 -48t-48.5 -21.5q0 -99 -27 -184t-75 -155.5t-114.5 -125t-145.5 -91.5t-168 -56.5t-182 -19.5q-105 0 -180 27.5t-123 75t-70 110t-21 132.5zM503 868l145 145q39 -41 72 -74t72 -71l-144 -144q-20 19 -38 36.5t-35.5 35l-35 35 t-36.5 37.5zM1221 -164l132 132q35 -37 65.5 -67t65.5 -65l-131 -131q-37 35 -67 65t-65 66z" />
<glyph unicode="&#x651;&#x64c;" horiz-adv-x="484" arabic-form="isolated" d="M43 1917q20 23 46.5 37.5t53 18.5t49.5 -1.5t35.5 -20.5t10.5 -40.5t-24 -61.5q48 17 89.5 38t75.5 53q-43 9 -63 27t-23.5 40t8 45t31.5 41.5t46 30t52 10.5q22 -2 29.5 -21t7 -43t-6 -46.5t-9.5 -31.5l40 -10l-18 -65l-48 11q-7 -12 -21 -28.5t-33 -34t-42 -33t-48 -26 t-50 -13t-48 6.5q-23 10 -25 27t3 36t11 36t-2 26.5t-36.5 9t-90.5 -17.5zM87.5 1632.5q-0.5 26.5 3.5 48.5t9 33q0 -3 5 1.5t10.5 10.5t10 10t4.5 1q-5 -21 -6.5 -47.5t4 -49.5t19.5 -37.5t40 -9.5q28 5 41 23t18 40.5t6.5 45.5t6.5 39q1 -3 4.5 1t8 9t8 9.5t5.5 1.5 q-3 -30 6 -54t25.5 -37t38 -12.5t43.5 20.5q4 10 2 23t-8.5 26t-15 25t-17.5 21q11 20 19.5 37.5t17.5 34.5q13 -15 22.5 -33t17.5 -36q11 -32 13 -66t-6 -63.5t-26.5 -50t-47.5 -24.5q-25 -4 -38.5 3t-30.5 19q-4 -11 -11 -25t-18.5 -28t-27.5 -25.5t-38 -16.5 q-34 -8 -56.5 1.5t-36 29.5t-19 47.5t-6 54zM346 2048q-2 -10 3.5 -16.5t14.5 -11.5t21.5 -9.5t25.5 -9.5q2 17 2 30q0 11 -2 21.5t-8 14.5v-2q-5 5 -12 6.5t-12 1.5q-14 1 -23.5 -7t-9.5 -18z" />
<glyph unicode="&#x651;&#x64d;" horiz-adv-x="425" arabic-form="isolated" d="M31 1438l33 75l350 141l-33 -75zM41 1543l33 75l350 141l-33 -75zM56.5 1844.5q0.5 26.5 4.5 49t10 32.5q0 -3 4.5 1.5l10.5 10.5t10.5 10t4.5 1q-6 -21 -8 -48t3 -50t18.5 -37.5t39.5 -10.5q29 4 42.5 21t19 39.5t7 46t7.5 39.5q1 -3 5 0.5t8.5 9t8 9.5t5.5 1 q-4 -29 4 -53.5t24 -38t37 -13.5q22 0 45 20q5 10 3 22.5t-8 25.5t-14.5 25.5t-16.5 21.5q11 20 20 37t19 34q12 -15 21.5 -33.5t16.5 -36.5q10 -32 11 -66t-7.5 -63t-27.5 -49t-48 -24q-25 -3 -38.5 4t-30.5 20q-4 -11 -11.5 -25t-19 -27.5t-28 -24.5t-38.5 -16 q-34 -7 -56.5 3t-35 31t-17.5 48t-4.5 53.5z" />
<glyph unicode="&#x651;&#x64e;" horiz-adv-x="425" arabic-form="isolated" d="M61 1710l17 91l340 193l-17 -91zM66 1591q0 21 4.5 39.5t9.5 29.5q0 -3 4.5 1.5t9.5 10.5t10 10.5t5 1.5q-5 -21 -7 -40t2 -32.5t17 -19t38 -0.5q28 5 41 23t17.5 40.5t5.5 46t6 39.5q1 -3 4.5 1t7.5 9t8 9.5t6 1.5q-3 -30 6.5 -54t26 -36.5t38 -11.5t42.5 21q4 10 2 23 t-8.5 25.5t-15.5 24.5t-18 21q5 10 14.5 15.5t20 10t20 9.5t15.5 13q5 -8 5.5 -12.5t-0.5 -8.5t-1.5 -8.5t3.5 -13.5q12 -32 14.5 -66t-5 -63.5t-25.5 -50.5t-47 -26q-25 -4 -39 3t-31 18q-4 -11 -10.5 -25.5t-18 -28.5t-27 -25.5t-37.5 -16.5q-34 -9 -56 -3.5t-35 20 t-17.5 35t-4.5 40.5z" />
<glyph unicode="&#x651;&#x64f;" horiz-adv-x="437" arabic-form="isolated" d="M2 1791q60 20 103 34t77 28t61.5 31t54.5 43q-46 8 -67.5 26.5t-25 40.5t8.5 45t33 42t48.5 30.5t55.5 10.5q23 -1 31 -20t7.5 -43.5t-6.5 -47.5t-10 -33l43 -10l-19 -63l-50 10q-11 -18 -37 -41t-61.5 -43.5t-76.5 -34t-83 -11.5q-57 4 -75 4q-17 0 -12 2zM63.5 1632.5 q-0.5 26.5 3.5 48.5t9 33q0 -3 5 1.5t10.5 10.5t10 10t4.5 1q-5 -21 -6.5 -47.5t4 -49.5t19.5 -37.5t40 -9.5q28 5 41 23t18 40.5t6.5 45.5t6.5 39q1 -3 4.5 1t8 9t8 9.5t5.5 1.5q-3 -30 6 -54t25.5 -37t38 -12.5t43.5 20.5q4 10 2 23t-8.5 26t-15 25t-17.5 21 q11 20 19.5 37.5t17.5 34.5q13 -15 22.5 -33t17.5 -36q11 -32 13 -66t-6 -63.5t-26.5 -50t-47.5 -24.5q-25 -4 -38.5 3t-30.5 19q-4 -11 -11 -25t-18.5 -28t-27.5 -25.5t-38 -16.5q-34 -8 -56.5 1.5t-36 29.5t-19 47.5t-6 54zM262 2036q-2 -20 19 -29.5t50 -17.5q2 16 2 30 q0 11 -2 22t-9 14v-1q-5 5 -11.5 6.5t-11.5 1.5q-17 1 -26.5 -7t-10.5 -19z" />
<glyph unicode="&#x651;&#x650;" horiz-adv-x="425" arabic-form="isolated" d="M71.5 1766.5q0.5 26.5 4.5 48.5t10 33q0 -3 4.5 1.5l10.5 10.5t10.5 10t4.5 1q-6 -21 -8 -48t3 -50t18.5 -37.5t39.5 -10.5q29 4 42.5 21t19 39.5t7 46t7.5 39.5q1 -3 5 0.5t8.5 9t8 9.5t5.5 1q-4 -29 4 -53.5t24 -38t37 -13.5q22 0 45 20q5 10 3 22.5t-8 25.5 t-14.5 25.5t-16.5 21.5q11 20 20 37t19 34q12 -15 21.5 -33.5t16.5 -36.5q10 -32 11 -66t-7.5 -63t-27.5 -49t-48 -24q-25 -3 -38.5 4t-30.5 20q-4 -11 -11.5 -25t-19 -27.5t-28 -24.5t-38.5 -16q-34 -7 -56.5 3t-35 31t-17.5 48t-4.5 53.5zM82 1397l17 91l340 193l-17 -91z " />
<glyph unicode="&#xfed3;&#xfef2;" horiz-adv-x="1229" arabic-form="medial" d="M75 221.5q21 136.5 90 297.5q-7 -18 -18.5 -54.5t-20.5 -82t-12.5 -97.5t5.5 -101.5t34 -93t72 -72.5t120 -40.5t179 4t247.5 60.5t326.5 129q-31 28 -69 46t-78.5 28.5t-80.5 15t-74.5 5.5t-60.5 1q-25 0 -37 1l63 183q49 14 88 27t69.5 28t53.5 32.5t41 39.5 q4 16 5 27.5t-1 24.5t-7 31t-12 48q-20 -41 -51.5 -67t-67 -37.5t-72 -8t-65.5 22.5t-47 54.5t-18 87.5q0 53 15.5 101.5t39 90t51.5 74t53.5 55t45 33.5t26.5 9q26 -3 62.5 -32.5t70 -79.5t56.5 -116.5t23.5 -142t-30 -157t-103.5 -161.5q39 -14 73 -30t59 -38t39.5 -51 t14.5 -68q0 -6 -4 -23t-10 -39t-13 -47.5t-14 -48t-12 -40l-7 -24.5q-232 -133 -411.5 -193.5t-307.5 -59.5t-205.5 57t-106 155.5t-7.5 236zM447 -504l131 131q31 -32 57.5 -60t57.5 -57l117 117q35 -36 65 -66.5t65 -64.5l-130 -129q-32 32 -59.5 58.5t-57.5 56.5 l-115 -115q-36 35 -66 64.5t-65 64.5zM551 1323l132 132q35 -37 65.5 -67t65.5 -65l-131 -131q-37 35 -67 65t-65 66zM764.5 877q-3.5 -18 4.5 -35t31 -30.5t66 -20.5l88 33q-6 7 -11.5 26.5t-18.5 40t-35 36.5t-61 16q-13 0 -26.5 -9.5t-23.5 -24t-13.5 -32.5z" />
<glyph unicode="&#xfedf;&#xfef0;" horiz-adv-x="1239" arabic-form="medial" d="M75 221.5q21 136.5 90 297.5q-7 -18 -18.5 -54.5t-20.5 -82t-12.5 -97.5t5.5 -101.5t34 -93t72 -72.5t120 -40.5t179 4t247.5 60.5t326.5 129q-31 28 -69 46t-78.5 28.5t-80.5 15t-74.5 5.5t-60.5 1q-25 0 -37 1l63 183q29 7 52 13.5t45.5 14.5t47 18t57.5 25 q-7 84 -15.5 170t-17.5 162.5t-16 138.5t-11 99q5 8 13 27t17 41.5t19 45t18.5 38.5t16 21.5t11.5 -5.5q10 -26 20 -49t24.5 -44.5t36.5 -42.5t55 -42q3 -2 0 -14.5t-10 -30.5t-16.5 -37.5t-19.5 -36.5t-18.5 -28t-13.5 -11q4 -95 13.5 -170.5t8.5 -137.5t-18.5 -112.5 t-67.5 -93.5q39 -14 76 -29.5t65.5 -37t46 -50t17.5 -67.5q0 -9 -12 -37.5t-27 -61t-28.5 -62t-16.5 -39.5q-232 -133 -411.5 -193.5t-307.5 -59.5t-205.5 57t-106 155.5t-7.5 236z" />
<glyph unicode="&#xfedf;&#xfee4;" horiz-adv-x="572" arabic-form="medial" d="M-24 141v182h249q-2 63 -7 135.5t-12 147.5t-15 148t-15.5 137.5t-13.5 116.5t-10 84q5 8 13 27t17 41.5t19 45t18.5 38.5t16 21.5t11.5 -5.5q10 -26 20 -49t24.5 -44.5t36.5 -42.5t55 -42q3 -2 0 -14.5t-10 -30.5t-16.5 -37.5t-19.5 -36.5t-18.5 -28t-13.5 -11 q3 -37 6 -80t5 -87t3.5 -86t3 -77t2.5 -61t2 -36q6 -65 33 -110t59 -73.5t60.5 -41.5t36.5 -13q-3 -16 -12 -40.5t-19 -50.5t-20 -50.5t-15 -40.5q-12 7 -34 18.5t-49.5 22t-57.5 17.5t-57 5zM449 74q0 2 1 3q10 -6 10 -8t-11 5zM516 259q1 1 1 4q4 -4 -1 -4z" />
<glyph unicode="&#xfedf;&#xfee0;&#xfeea;" horiz-adv-x="1675" arabic-form="isolated" d="M74 336q0 69 13.5 120t36 89t52.5 67t63.5 54t68.5 50t68 56q2 7 4 23t4 27q26 26 52 49.5t53 48.5q14 -59 25.5 -122t23 -124.5t24 -118t28.5 -103t37 -80.5t50 -50q47 -21 89.5 -22t81 10.5t72.5 31.5t64 41q-4 97 -7.5 184t-7 172.5t-7 172.5t-7.5 184q0 4 13.5 16 t35 29t49 36.5t54.5 38.5l3 3l14 -836q13 -20 31 -39.5t52.5 -31t91.5 -11t150 21.5q-2 63 -7 135.5t-12 147.5t-15 148t-15.5 137.5t-14 116.5t-9.5 84q5 8 13 27t17 41.5t19 45t18.5 38.5t16 21.5t11.5 -5.5q10 -26 20 -49t24.5 -44.5t36.5 -42.5t55 -42q3 -2 0 -14.5 t-10 -30.5t-16.5 -37.5t-19.5 -36.5t-18.5 -28t-13.5 -11q3 -37 6 -80t5.5 -87t4.5 -86t3.5 -77t2 -61t0.5 -36q0 -41 -4 -79.5t-12.5 -77.5t-22 -81t-31.5 -91q-72 -26 -129.5 -35t-103 -7t-80 13.5t-61.5 26.5t-47 31.5t-36 28.5q-50 -32 -105 -58t-110 -37.5t-108 -4 t-99 42.5t-82 101t-57 172q-35 -53 -68 -107t-64 -104q-27 4 -70.5 14.5t-85 25t-71.5 31.5t-30 34zM196 467q42 -26 71.5 -37.5t55.5 -11.5q29 0 60.5 14t76.5 40l-61 257q-15 -30 -28 -50t-28.5 -36.5t-34.5 -31.5t-44 -33q-14 -11 -26.5 -22.5t-21.5 -24t-14.5 -28.5 t-5.5 -36zM572 1512l34 82q80 19 151 47.5t143.5 65t153 80t180.5 93.5q-80 -64 -161.5 -122t-165 -106t-167.5 -84.5t-168 -55.5zM748.5 1412.5q-0.5 35.5 4 51.5t13 3t19.5 -70q19 -88 109 -70q26 5 52.5 24.5t49.5 53.5q-43 54 -55 116q-8 40 -3.5 51.5t14 4t20.5 -28 t16 -45.5v1q43 -85 101 -79q27 18 33 35.5t2 35t-12 34.5t-9 35q-5 18 14 65q19 -17 33 -51.5t25 -82.5q4 -21 5.5 -39t1.5 -33q0 -35 -10 -55.5t-25.5 -30t-34.5 -10.5t-36.5 3t-31.5 11t-20 13q-40 -57 -81.5 -89t-96.5 -32q-69 0 -89 103q-8 40 -8.5 75.5z" />
<glyph unicode="&#xfedf;&#xfe82;" horiz-adv-x="1008" arabic-form="isolated" d="M43 1274q7 27 18.5 52.5t30.5 51.5q28 36 78 36q26 0 59.5 -9.5t71.5 -25.5q67 -31 122 -31q64 0 113 38q-18 -60 -48.5 -91.5t-73.5 -31.5q-20 0 -41.5 5t-44.5 17q-80 38 -151 38q-39 0 -73 -12t-61 -37zM63 977q0 10 1 28.5t4 40t6.5 44.5t9.5 41.5t13 30.5t16 12 q32 0 71 -22t81.5 -59.5t87 -87t87.5 -104.5t82.5 -111.5t72.5 -109t57.5 -96.5t37.5 -73q36 86 53 155t20 137.5t-4 143t-17 170.5q21 31 39 59t31.5 49.5t20.5 34.5t6 13l9.5 -14t22.5 -35.5t28.5 -47t28.5 -48.5t21.5 -39.5t8.5 -20.5q0 -5 -10 -26t-23.5 -43.5 t-27.5 -40.5t-21 -18q-17 -114 -33 -190t-34 -129.5t-38.5 -93t-46.5 -81.5q13 -36 18 -62.5t6 -48t-0.5 -41t-1.5 -42.5q0 -54 -22 -92.5t-58 -63.5t-82.5 -39.5t-96 -21.5t-98 -8t-89 0t-69 2.5t-37.5 0.5q1 23 4 44l6 42t5 42.5t2 45.5q51 26 96.5 47.5t92 48t96 61 t107.5 85.5q-41 57 -75 103t-68.5 89t-74 88t-92.5 101l-47 -13q-17 0 -48 19t-61 45t-52 54t-22 45zM398 224q11 -2 37 -2t59 2t68.5 7t65.5 14q25 8 37.5 18.5t12.5 26.5t-10.5 37.5t-29.5 51.5q-58 -47 -118 -83.5t-122 -71.5z" />
<glyph unicode="&#xfee0;&#xfe82;" horiz-adv-x="1292" arabic-form="final" d="M53 1206q7 27 18.5 52.5t30.5 51.5q28 36 78 36q26 0 59.5 -9.5t71.5 -25.5q67 -31 122 -31q64 0 113 38q-18 -60 -48.5 -91.5t-73.5 -31.5q-20 0 -41.5 5t-44.5 17q-80 38 -151 38q-39 0 -73 -12t-61 -37zM73 61q147 74 294.5 140t294.5 140q-25 68 -53 133.5t-61 124.5 t-72 110.5t-86 92.5q-10 -18 -15.5 -23.5t-8.5 -6.5t-6 -1.5t-8 -9.5q-86 67 -133 101.5t-69 50t-25.5 18.5t-3.5 6q0 29 10 60t25 57t32.5 42.5t32.5 16.5q57 0 115.5 -35t113 -92.5t104 -131.5t88.5 -153t66.5 -156t37.5 -141q70 68 112.5 138t66.5 146.5t35 163t17 188.5 q34 30 53.5 50.5t31.5 34.5t19 23.5t16 17.5l38 -844h188v-182l-257 7q-8 12 -12.5 50t-6 92t-1.5 120t0.5 133t0.5 131t-1 115t-5 84t-11 38q-16 -179 -59.5 -313.5t-109.5 -232t-152.5 -160t-187.5 -97.5t-214.5 -45t-233.5 -1z" />
<glyph unicode="&#xfedf;&#xfe84;" horiz-adv-x="1008" arabic-form="isolated" d="M41 1272q-2 13 6.5 28.5t25 30.5t39.5 28t51 19q-31 5 -49.5 11t-28.5 14t-13 18t-3 24q8 40 29 76.5t47.5 64.5t54.5 45t49 18q12 1 25 -9.5t17 -30.5q-8 -15 -18.5 -28t-16.5 -29q-13 14 -31.5 15t-35.5 -6t-29 -19.5t-12.5 -27.5t14.5 -29t52 -23q23 -5 63.5 4 t84.5 15l-63 -100q-36 -2 -69.5 -12.5t-65.5 -25.5t-62.5 -33.5t-60.5 -37.5zM63 977q0 10 1 28.5t4 40t6.5 44.5t9.5 41.5t13 30.5t16 12q32 0 71 -22t81.5 -59.5t87 -87t87.5 -104.5t82.5 -111.5t72.5 -109t57.5 -96.5t37.5 -73q36 86 53 155t20 137.5t-4 143t-17 170.5 q21 31 39 59t31.5 49.5t20.5 34.5t6 13l9.5 -14t22.5 -35.5t28.5 -47t28.5 -48.5t21.5 -39.5t8.5 -20.5q0 -5 -10 -26t-23.5 -43.5t-27.5 -40.5t-21 -18q-17 -114 -33 -190t-34 -129.5t-38.5 -93t-46.5 -81.5q13 -36 18 -62.5t6 -48t-0.5 -41t-1.5 -42.5q0 -54 -22 -92.5 t-58 -63.5t-82.5 -39.5t-96 -21.5t-98 -8t-89 0t-69 2.5t-37.5 0.5q1 23 4 44l6 42t5 42.5t2 45.5q51 26 96.5 47.5t92 48t96 61t107.5 85.5q-41 57 -75 103t-68.5 89t-74 88t-92.5 101l-47 -13q-17 0 -48 19t-61 45t-52 54t-22 45zM398 224q11 -2 37 -2t59 2t68.5 7 t65.5 14q25 8 37.5 18.5t12.5 26.5t-10.5 37.5t-29.5 51.5q-58 -47 -118 -83.5t-122 -71.5z" />
<glyph unicode="&#xfee0;&#xfe84;" horiz-adv-x="1292" arabic-form="final" d="M73 61q147 74 294.5 140t294.5 140q-25 68 -53 133.5t-61 124.5t-72 110.5t-86 92.5q-10 -18 -15.5 -23.5t-8.5 -6.5t-6 -1.5t-8 -9.5q-86 67 -133 101.5t-69 50t-25.5 18.5t-3.5 6q0 29 10 60t25 57t32.5 42.5t32.5 16.5q57 0 115.5 -35t113 -92.5t104 -131.5t88.5 -153 t66.5 -156t37.5 -141q70 68 112.5 138t66.5 146.5t35 163t17 188.5q34 30 53.5 50.5t31.5 34.5t19 23.5t16 17.5l38 -844h188v-182l-257 7q-8 12 -12.5 50t-6 92t-1.5 120t0.5 133t0.5 131t-1 115t-5 84t-11 38q-16 -179 -59.5 -313.5t-109.5 -232t-152.5 -160t-187.5 -97.5 t-214.5 -45t-233.5 -1zM141 1209q-2 13 6.5 28.5t25 30.5t39.5 28t51 19q-31 5 -49.5 11t-28.5 14t-13 18t-3 24q8 40 29 76.5t47.5 64.5t54.5 45t49 18q12 1 25 -9.5t17 -30.5q-8 -15 -18.5 -28t-16.5 -29q-13 14 -31.5 15t-35.5 -6t-29 -19.5t-12.5 -27.5t14.5 -29t52 -23 q23 -5 63.5 4t84.5 15l-63 -100q-36 -2 -69.5 -12.5t-65.5 -25.5t-62.5 -33.5t-60.5 -37.5z" />
<glyph unicode="&#xfedf;&#xfe88;" horiz-adv-x="1008" arabic-form="isolated" d="M52 -456q-2 13 6.5 28.5t25 30.5t39.5 28t51 19q-31 5 -49.5 11t-28.5 14t-13 18t-3 24q8 40 29 76.5t47.5 64.5t54.5 45t49 18q12 1 25 -9.5t17 -30.5q-8 -15 -18.5 -28t-16.5 -29q-13 14 -31.5 15t-35.5 -6t-29 -19.5t-12.5 -27.5t14.5 -29t52 -23q23 -5 63.5 4 t84.5 15l-63 -100q-36 -2 -69.5 -12.5t-65.5 -25.5t-62.5 -33.5t-60.5 -37.5zM63 977q0 10 1 28.5t4 40t6.5 44.5t9.5 41.5t13 30.5t16 12q32 0 71 -22t81.5 -59.5t87 -87t87.5 -104.5t82.5 -111.5t72.5 -109t57.5 -96.5t37.5 -73q36 86 53 155t20 137.5t-4 143t-17 170.5 q21 31 39 59t31.5 49.5t20.5 34.5t6 13l9.5 -14t22.5 -35.5t28.5 -47t28.5 -48.5t21.5 -39.5t8.5 -20.5q0 -5 -10 -26t-23.5 -43.5t-27.5 -40.5t-21 -18q-17 -114 -33 -190t-34 -129.5t-38.5 -93t-46.5 -81.5q13 -36 18 -62.5t6 -48t-0.5 -41t-1.5 -42.5q0 -54 -22 -92.5 t-58 -63.5t-82.5 -39.5t-96 -21.5t-98 -8t-89 0t-69 2.5t-37.5 0.5q1 23 4 44l6 42t5 42.5t2 45.5q51 26 96.5 47.5t92 48t96 61t107.5 85.5q-41 57 -75 103t-68.5 89t-74 88t-92.5 101l-47 -13q-17 0 -48 19t-61 45t-52 54t-22 45zM398 224q11 -2 37 -2t59 2t68.5 7 t65.5 14q25 8 37.5 18.5t12.5 26.5t-10.5 37.5t-29.5 51.5q-58 -47 -118 -83.5t-122 -71.5z" />
<glyph unicode="&#xfee0;&#xfe88;" horiz-adv-x="1292" arabic-form="final" d="M73 61q147 74 294.5 140t294.5 140q-25 68 -53 133.5t-61 124.5t-72 110.5t-86 92.5q-10 -18 -15.5 -23.5t-8.5 -6.5t-6 -1.5t-8 -9.5q-86 67 -133 101.5t-69 50t-25.5 18.5t-3.5 6q0 29 10 60t25 57t32.5 42.5t32.5 16.5q57 0 115.5 -35t113 -92.5t104 -131.5t88.5 -153 t66.5 -156t37.5 -141q70 68 112.5 138t66.5 146.5t35 163t17 188.5q34 30 53.5 50.5t31.5 34.5t19 23.5t16 17.5l38 -844h188v-182l-257 7q-8 12 -12.5 50t-6 92t-1.5 120t0.5 133t0.5 131t-1 115t-5 84t-11 38q-16 -179 -59.5 -313.5t-109.5 -232t-152.5 -160t-187.5 -97.5 t-214.5 -45t-233.5 -1zM99 -435q-2 13 6.5 28.5t25 30.5t39.5 28t51 19q-31 5 -49.5 11t-28.5 14t-13 18t-3 24q8 40 29 76.5t47.5 64.5t54.5 45t49 18q12 1 25 -9.5t17 -30.5q-8 -15 -18.5 -28t-16.5 -29q-13 14 -31.5 15t-35.5 -6t-29 -19.5t-12.5 -27.5t14.5 -29t52 -23 q23 -5 63.5 4t84.5 15l-63 -100q-36 -2 -69.5 -12.5t-65.5 -25.5t-62.5 -33.5t-60.5 -37.5z" />
<glyph unicode="&#xfedf;&#xfe8e;" horiz-adv-x="1008" arabic-form="isolated" d="M63 977q0 10 1 28.5t4 40t6.5 44.5t9.5 41.5t13 30.5t16 12q32 0 71 -22t81.5 -59.5t87 -87t87.5 -104.5t82.5 -111.5t72.5 -109t57.5 -96.5t37.5 -73q36 86 53 155t20 137.5t-4 143t-17 170.5q21 31 39 59t31.5 49.5t20.5 34.5t6 13l9.5 -14t22.5 -35.5t28.5 -47 t28.5 -48.5t21.5 -39.5t8.5 -20.5q0 -5 -10 -26t-23.5 -43.5t-27.5 -40.5t-21 -18q-17 -114 -33 -190t-34 -129.5t-38.5 -93t-46.5 -81.5q13 -36 18 -62.5t6 -48t-0.5 -41t-1.5 -42.5q0 -54 -22 -92.5t-58 -63.5t-82.5 -39.5t-96 -21.5t-98 -8t-89 0t-69 2.5t-37.5 0.5 q1 23 4 44l6 42t5 42.5t2 45.5q51 26 96.5 47.5t92 48t96 61t107.5 85.5q-41 57 -75 103t-68.5 89t-74 88t-92.5 101l-47 -13q-17 0 -48 19t-61 45t-52 54t-22 45zM398 224q11 -2 37 -2t59 2t68.5 7t65.5 14q25 8 37.5 18.5t12.5 26.5t-10.5 37.5t-29.5 51.5 q-58 -47 -118 -83.5t-122 -71.5z" />
<glyph unicode="&#xfee0;&#xfe8e;" horiz-adv-x="1292" arabic-form="final" d="M73 61q147 74 294.5 140t294.5 140q-25 68 -53 133.5t-61 124.5t-72 110.5t-86 92.5q-10 -18 -15.5 -23.5t-8.5 -6.5t-6 -1.5t-8 -9.5q-86 67 -133 101.5t-69 50t-25.5 18.5t-3.5 6q0 29 10 60t25 57t32.5 42.5t32.5 16.5q57 0 115.5 -35t113 -92.5t104 -131.5t88.5 -153 t66.5 -156t37.5 -141q70 68 112.5 138t66.5 146.5t35 163t17 188.5q34 30 53.5 50.5t31.5 34.5t19 23.5t16 17.5l38 -844h188v-182l-257 7q-8 12 -12.5 50t-6 92t-1.5 120t0.5 133t0.5 131t-1 115t-5 84t-11 38q-16 -179 -59.5 -313.5t-109.5 -232t-152.5 -160t-187.5 -97.5 t-214.5 -45t-233.5 -1z" />
<glyph unicode="&#xfe70;" horiz-adv-x="408" arabic-form="isolated" d="M49 1482l17 91l340 193l-17 -91zM63 1649l17 91l340 193l-17 -91z" />
<glyph unicode="&#xfe71;" horiz-adv-x="408" arabic-form="medial" d="M51 1029l17 91l340 193l-17 -91zM65 1196l17 91l340 193l-17 -91z" />
<glyph unicode="&#xfe72;" horiz-adv-x="469" arabic-form="isolated" d="M45 1619q19 27 44.5 43.5t50.5 22t47 -1t34 -24.5t10.5 -48t-23.5 -72q46 20 85.5 44t71.5 62q-41 10 -60.5 31.5t-22 47.5t8 53t30 49.5t44 36t49.5 12.5q21 -2 28 -24.5t6.5 -51t-6 -55.5t-8.5 -37l38 -12l-17 -76l-46 13q-6 -14 -19.5 -33.5t-32 -40t-40.5 -39.5 t-45.5 -31t-47.5 -15t-46 8t-24 31.5t3 42t10.5 42t-2 32t-34.5 10.5t-86 -20zM334 1773q-2 -11 3 -19t14 -14t20.5 -11.5t24.5 -11.5q2 19 2 35q0 14 -2.5 26.5t-7.5 16.5v-2q-10 10 -23 10q-14 1 -22.5 -8.5t-8.5 -21.5z" />
<glyph unicode="&#xfe74;" horiz-adv-x="408" arabic-form="isolated" d="M1 -288q5 23 8 38.5t7 38.5q99 52 191.5 101.5t191.5 102.5l-15 -76q-97 -52 -191.5 -102.5t-191.5 -102.5zM33 -98q5 24 8.5 39.5t7.5 38.5q99 52 191 101t191 102l-15 -76q-97 -52 -191.5 -102.5t-191.5 -102.5z" />
<glyph unicode="&#xfe76;" horiz-adv-x="408" arabic-form="isolated" d="M13 1378q5 24 8 39.5t7 37.5q99 52 191.5 101.5t191.5 102.5l-15 -76q-97 -52 -191.5 -102.5t-191.5 -102.5z" />
<glyph unicode="&#xfe77;" horiz-adv-x="448" arabic-form="medial" d="M13 952q5 24 8 39.5t7 37.5q99 52 191.5 101.5t191.5 102.5l-15 -76q-97 -52 -191.5 -102.5t-191.5 -102.5z" />
<glyph unicode="&#xfe78;" horiz-adv-x="414" arabic-form="isolated" d="M13 1507q61 25 105.5 43t79 36t62.5 39.5t56 54.5q-47 11 -69 34t-25.5 51t9 57.5t34 53.5t49.5 38.5t56 13.5q16 -1 25 -12.5t12.5 -29t2.5 -39t-3.5 -41.5t-6.5 -36.5t-7 -24.5l44 -13l-19 -80l-52 12q-11 -23 -37.5 -52.5t-62.5 -55t-78.5 -42.5t-85.5 -15 q-29 2 -47.5 3t-28.5 2t-12.5 1.5t-0.5 1.5zM279 1818q-2 -25 20 -37t51 -23q2 20 2 38q0 15 -2 28.5t-9 18.5v-2q-5 6 -12 8t-12 2q-17 2 -27 -8.5t-11 -24.5z" />
<glyph unicode="&#xfe79;" horiz-adv-x="490" arabic-form="medial" d="M7 1064q61 25 105.5 43t79 36t62.5 39.5t56 54.5q-47 11 -69 34t-25.5 51t9 57.5t34 53.5t49.5 39t56 13q16 -1 25 -12.5t12.5 -29t2.5 -39t-3.5 -41.5t-6.5 -36.5t-7 -24.5l44 -13l-19 -80l-52 12q-11 -23 -37.5 -52.5t-62.5 -55t-78.5 -42.5t-85.5 -15q-29 2 -47.5 3 t-28.5 2t-12.5 1.5t-0.5 1.5zM273 1375q-2 -25 20 -37t51 -23q2 20 2 38q0 15 -2 28.5t-9 18.5v-2q-5 6 -12 8t-12 2q-17 2 -27 -8.5t-11 -24.5z" />
<glyph unicode="&#xfe7a;" horiz-adv-x="408" arabic-form="isolated" d="M9 -568q5 23 8 39t7 38q99 52 191.5 101.5t191.5 102.5l-15 -76q-97 -52 -191.5 -102.5t-191.5 -102.5z" />
<glyph unicode="&#xfe7b;" horiz-adv-x="669" arabic-form="medial" d="M9 301q5 23 8 39t7 38q99 52 191.5 101.5t191.5 102.5l-15 -76q-97 -52 -191.5 -102.5t-191.5 -102.5z" />
<glyph unicode="&#xfe7c;" horiz-adv-x="425" arabic-form="isolated" d="M59.5 1603.5q-1.5 27.5 2 53.5t10.5 47.5t14 31.5q0 -3 5 1t11.5 9t11.5 8.5t5 0.5q-8 -20 -13.5 -46.5t-3 -50t14 -39.5t37.5 -15q29 0 44.5 16t23.5 37.5t12.5 44.5t12.5 38q1 -3 5 0t9 7.5t9.5 8t5.5 0.5q-8 -29 -2.5 -54t19.5 -40t35.5 -18t46.5 14q6 9 5.5 22 t-4.5 26.5t-11 27t-14 23.5q13 18 24.5 34t22.5 32q11 -17 17.5 -36t11.5 -38q6 -33 3 -67t-15 -62t-33 -45.5t-51 -17.5q-25 0 -37.5 9t-27.5 23q-6 -10 -15 -23t-22 -25t-31 -21t-40 -11q-35 -3 -56 10t-31 35t-11.5 49.5z" />
<glyph unicode="&#xfe7d;" horiz-adv-x="425" arabic-form="medial" d="M57.5 1144.5q-1.5 27.5 2 53.5t10.5 47.5t14 31.5q0 -3 5 1t11.5 9t11.5 8.5t5 0.5q-8 -20 -13.5 -46.5t-3 -50t14 -39.5t37.5 -15q29 0 44.5 16t23.5 37.5t12.5 44.5t12.5 38q1 -3 5 0t9 7.5t9.5 8t5.5 0.5q-8 -29 -2.5 -54t19.5 -40t35.5 -18t46.5 14q6 9 5.5 22 t-4.5 26.5t-11 27t-14 23.5q13 18 24.5 34t22.5 32q11 -17 17.5 -36t11.5 -38q6 -33 3 -67t-15 -62t-33 -45.5t-51 -17.5q-25 0 -37.5 9t-27.5 23q-6 -10 -15 -23t-22 -25t-31 -21t-40 -11q-35 -3 -56 10t-31 35t-11.5 49.5z" />
<glyph unicode="&#xfe7e;" horiz-adv-x="328" arabic-form="isolated" d="M59 1556q-5 33 3.5 75.5t27 81.5t46 67t59.5 33q28 4 54 -6.5t46.5 -28.5t34.5 -40.5t17 -41.5q5 -34 -10 -71.5t-41 -87.5v1q0 1 1 2l-3 -5q-24 -14 -61.5 -26.5t-74 -15t-65 11t-34.5 51.5zM123 1643q3 -22 21 -32.5t42 -11t50 6.5t46 21l1 1q-3 14 -13.5 30t-25 29.5 t-31.5 22t-35 5.5q-30 -5 -44 -27t-11 -45zM294 1535l1 1q0 -1 -1 -1zM295 1536l1 1q0 -1 -1 -1z" />
<glyph unicode="&#xfe7f;" horiz-adv-x="328" arabic-form="medial" d="M69 994q-5 33 3.5 75.5t27 81.5t46 67t59.5 33q28 4 54 -6.5t46.5 -28.5t34.5 -40.5t17 -41.5q5 -34 -10 -71.5t-41 -87.5v1q0 1 1 2l-3 -5q-24 -14 -61.5 -26.5t-74 -15t-65 11t-34.5 51.5zM133 1081q3 -22 21 -32.5t42 -11t50 6.5t46 21l1 1q-3 14 -13.5 30t-25 29.5 t-31.5 22t-35 5.5q-30 -5 -44 -27t-11 -45zM304 973l1 1q0 -1 -1 -1zM305 974l1 1q0 -1 -1 -1z" />
<glyph unicode="&#x621;" horiz-adv-x="677" arabic-form="isolated" d="M40 -17q16 21 45 50.5t63 59.5t69.5 57t65.5 44q-62 9 -99 21t-57 27.5t-26 36t-6 47.5q10 52 33 102.5t53.5 95t66 82t72 65t71 43.5t62.5 18q12 1 25 -4t24.5 -15.5t20.5 -26t13 -35.5q-7 -15 -16.5 -28.5t-19.5 -27t-19 -27t-15 -29.5q-19 20 -47 25t-57.5 -1.5 t-58 -22.5t-49 -37t-30.5 -45.5t-2 -48t36 -44t83 -34.5q22 -6 55 -3t71.5 10t81.5 15.5t86 14.5l-84 -168q-71 -5 -137.5 -25t-130 -50.5t-124.5 -67.5t-119 -74z" />
<glyph unicode="&#x622;" horiz-adv-x="352" arabic-form="isolated" d="M-68 1348q7 27 18.5 52.5t30.5 51.5q28 36 78 36q26 0 59.5 -9.5t71.5 -25.5q67 -31 122 -31q64 0 113 38q-18 -60 -48.5 -91.5t-73.5 -31.5q-20 0 -41.5 5t-44.5 17q-80 38 -151 38q-39 0 -73 -12t-61 -37zM91 1065q1 5 12 25t29.5 45.5t42 52.5t50.5 46l43 -735 q1 -62 -5.5 -126t-20 -125.5t-32.5 -118t-42 -103.5z" />
<glyph unicode="&#x622;" horiz-adv-x="394" arabic-form="final" d="M32 1358q7 27 18.5 52.5t30.5 51.5q28 36 78 36q26 0 59.5 -9.5t71.5 -25.5q67 -31 122 -31q64 0 113 38q-18 -60 -48.5 -91.5t-73.5 -31.5q-20 0 -41.5 5t-44.5 17q-80 38 -151 38q-39 0 -73 -12t-61 -37zM67 1067l122 162l3 2l2 -2q1 -2 6.5 -11.5t12.5 -40.5 t14.5 -89.5t13.5 -158.5t9 -248.5t2 -358.5h164v-182h-279q-6 18 -10 61.5t-7 103.5t-5.5 132.5t-5.5 148t-6.5 150t-8.5 139t-11.5 115t-15.5 77.5z" />
<glyph unicode="&#x623;" horiz-adv-x="352" arabic-form="isolated" d="M31 1277q-2 13 6.5 28.5t25 30.5t39.5 28t51 19q-31 5 -49.5 11t-28.5 14t-13 18t-3 24q8 40 29 76.5t47.5 64.5t54.5 45t49 18q12 1 25 -9.5t17 -30.5q-8 -15 -18.5 -28t-16.5 -29q-13 14 -31.5 15t-35.5 -6t-29 -19.5t-12.5 -27.5t14.5 -29t52 -23q23 -5 63.5 4 t84.5 15l-63 -100q-36 -2 -69.5 -12.5t-65.5 -25.5t-62.5 -33.5t-60.5 -37.5zM91 1065q1 5 12 25t29.5 45.5t42 52.5t50.5 46l43 -735q1 -62 -5.5 -126t-20 -125.5t-32.5 -118t-42 -103.5z" />
<glyph unicode="&#x623;" horiz-adv-x="394" arabic-form="final" d="M31 1314q-2 13 6.5 28.5t25 30.5t39.5 28t51 19q-31 5 -49.5 11t-28.5 14t-13 18t-3 24q8 40 29 76.5t47.5 64.5t54.5 45t49 18q12 1 25 -9.5t17 -30.5q-8 -15 -18.5 -28t-16.5 -29q-13 14 -31.5 15t-35.5 -6t-29 -19.5t-12.5 -27.5t14.5 -29t52 -23q23 -5 63.5 4 t84.5 15l-63 -100q-36 -2 -69.5 -12.5t-65.5 -25.5t-62.5 -33.5t-60.5 -37.5zM67 1067l122 162l3 2l2 -2q1 -2 6.5 -11.5t12.5 -40.5t14.5 -89.5t13.5 -158.5t9 -248.5t2 -358.5h164v-182h-279q-6 18 -10 61.5t-7 103.5t-5.5 132.5t-5.5 148t-6.5 150t-8.5 139t-11.5 115 t-15.5 77.5z" />
<glyph unicode="&#x624;" horiz-adv-x="688" arabic-form="isolated" d="M-305 -276q67 -2 135 -2t138 9.5t142 32.5t148 66.5t156 111t166 166.5l-27 156q-25 -40 -62.5 -67t-79 -40.5t-83.5 -12t-75 20.5t-54 56.5t-21 94.5q0 43 9.5 91.5t27 96t41 91.5t52 78t61 55t66.5 23q96 -86 146.5 -193t59.5 -221t-22 -227t-97.5 -212t-166.5 -176.5 t-229 -118.5q-23 0 -59 7.5t-77.5 19t-85.5 25.5t-84.5 27t-73 24.5t-51.5 17.5zM156 764q17 22 30.5 37t28.5 27.5t33.5 25t44.5 30.5q-35 5 -56 11.5t-32 15.5t-14.5 21t-3.5 27q9 45 33 85.5t54 72t61 51t54 20.5q14 1 28.5 -11t19.5 -34q-8 -17 -20.5 -31.5t-19.5 -32.5 q-15 15 -35.5 16.5t-39.5 -6t-32.5 -22t-14 -31t16 -32.5t58.5 -26q13 -3 31.5 -1.5t40.5 5.5t46.5 9t48.5 8l-71 -112q-40 -3 -78 -14.5t-74 -28.5t-70.5 -38t-67.5 -42zM271 443q0 -20 9.5 -42.5t28 -41.5t45 -31t60.5 -12h22q11 0 23 2t26 6t34 12q-15 56 -33 97.5 t-36 69t-35 41t-29 13.5q-26 0 -47.5 -10t-36.5 -26t-23 -36.5t-8 -41.5z" />
<glyph unicode="&#x624;" horiz-adv-x="777" arabic-form="final" d="M-278 -247q7 0 22 -6t40.5 -12.5t63 -12.5t88.5 -6q59 0 137.5 17.5t165.5 64t177 127t173 206.5q-23 1 -49.5 0.5t-53.5 -1t-53 -1.5t-48 -1q-23 0 -44.5 3t-41.5 12t-37.5 25.5t-32.5 42.5q-10 16 -14 39.5t-4 52.5q0 44 10 93.5t27.5 98t42 93t53.5 78t62 53.5t67 20 q32 0 58.5 -22.5t48 -58.5t37.5 -82t27.5 -92t18.5 -89t10 -73h119v-182h-108q-22 -66 -52.5 -131.5t-76.5 -128.5t-109.5 -122t-151.5 -113q-27 -19 -67.5 -24.5t-88 -1.5t-98.5 15.5t-99.5 26.5t-91 31t-73 29.5t-46 22.5t-8.5 9zM188 749q17 22 30.5 37t28.5 27.5 t33.5 25t44.5 30.5q-35 5 -56 11.5t-32 15.5t-14.5 21t-3.5 27q9 45 33 85.5t54 72t61 51t54 20.5q14 1 28.5 -11t19.5 -34q-8 -17 -20.5 -31.5t-19.5 -32.5q-15 15 -35.5 16.5t-39.5 -6t-32.5 -22t-14 -31t16 -32.5t58.5 -26q13 -3 31.5 -1.5t40.5 5.5t46.5 9t48.5 8 l-71 -112q-40 -3 -78 -14.5t-74 -28.5t-70.5 -38t-67.5 -42zM305 432q0 -39 27 -71t87 -38h-1q40 -4 77.5 -3t76.5 4q-27 72 -47.5 116t-38 67t-33.5 30.5t-34 7.5q-26 0 -47 -10t-36 -25.5t-23 -36t-8 -41.5z" />
<glyph unicode="&#x625;" horiz-adv-x="357" arabic-form="isolated" d="M20 -456q-2 13 6.5 28.5t25 30.5t39.5 28t51 19q-31 5 -49.5 11t-28.5 14t-13 18t-3 24q8 40 29 76.5t47.5 64.5t54.5 45t49 18q12 1 25 -9.5t17 -30.5q-8 -15 -18.5 -28t-16.5 -29q-13 14 -31.5 15t-35.5 -6t-29 -19.5t-12.5 -27.5t14.5 -29t52 -23q23 -5 63.5 4 t84.5 15l-63 -100q-36 -2 -69.5 -12.5t-65.5 -25.5t-62.5 -33.5t-60.5 -37.5zM91 1065q1 5 12 25t29.5 45.5t42 52.5t50.5 46l43 -735q1 -62 -5.5 -126t-20 -125.5t-32.5 -118t-42 -103.5z" />
<glyph unicode="&#x625;" horiz-adv-x="394" arabic-form="final" d="M36 -382q-2 13 6.5 28.5t25 30.5t39.5 28t51 19q-31 5 -49.5 11t-28.5 14t-13 18t-3 24q8 40 29 76.5t47.5 64.5t54.5 45t49 18q12 1 25 -9.5t17 -30.5q-8 -15 -18.5 -28t-16.5 -29q-13 14 -31.5 15t-35.5 -6t-29 -19.5t-12.5 -27.5t14.5 -29t52 -23q23 -5 63.5 4 t84.5 15l-63 -100q-36 -2 -69.5 -12.5t-65.5 -25.5t-62.5 -33.5t-60.5 -37.5zM67 1067l122 162l3 2l2 -2q1 -2 6.5 -11.5t12.5 -40.5t14.5 -89.5t13.5 -158.5t9 -248.5t2 -358.5h164v-182h-279q-6 18 -10 61.5t-7 103.5t-5.5 132.5t-5.5 148t-6.5 150t-8.5 139t-11.5 115 t-15.5 77.5z" />
<glyph unicode="&#x626;" horiz-adv-x="1271" arabic-form="isolated" d="M60 224q21 137 91 299q-6 -15 -17.5 -50t-21 -80.5t-14 -97.5t3 -103t31 -95.5t70 -75.5t119.5 -43t179.5 2.5t249.5 60t331 130.5q-45 43 -96 70t-99.5 44.5t-91.5 28.5t-71 22q-30 32 -26.5 86.5t31.5 117.5t75.5 129t105.5 122t122.5 95t124.5 49q24 4 39.5 -10 t23 -38.5t7.5 -55.5t-7.5 -61t-21 -55.5t-33.5 -37.5q-8 37 -29.5 51t-51 11t-64 -19t-67.5 -39t-62.5 -49.5t-48.5 -50.5t-25 -42t7 -24q69 -30 130 -51.5t106 -48t71 -65t26 -102.5q0 -6 -4 -23t-10 -39t-13 -47.5t-14 -48t-12 -40l-7 -24.5q-232 -134 -412 -194 t-308 -58.5t-205.5 58t-105 156t-6.5 236.5zM74 645q21 28 38 46.5t36 34t41.5 31t55.5 37.5q-43 7 -69.5 15t-40.5 19.5t-18.5 26t-3.5 33.5q11 55 40.5 106.5t67 90.5t76.5 63t68 26q17 1 35.5 -14t23.5 -42q-11 -21 -26 -39.5t-23 -40.5q-18 19 -44 21t-50 -8t-40.5 -28 t-17 -38.5t20 -40t72.5 -32.5q16 -4 39 -2t50.5 7t58 11t60.5 10l-88 -140q-50 -3 -97.5 -17.5t-92.5 -36t-88 -47.5t-84 -52z" />
<glyph unicode="&#x626;" horiz-adv-x="1363" arabic-form="final" d="M65 149.5q23 141.5 92 302.5q-7 -18 -18.5 -56.5t-20.5 -87.5t-12.5 -105.5t5 -111.5t32 -104t69 -83.5t116 -51t173 -5.5t239.5 53.5t315 125.5q-24 30 -52.5 51.5t-58.5 37.5t-61 26t-59 16q8 24 15 44t13.5 39.5t13.5 39t15 43.5h498v-183h-187q-16 -37 -28.5 -65 t-25.5 -55.5t-27.5 -58t-34.5 -71.5q-232 -133 -409 -188t-302 -46.5t-199 73.5t-99 172t-2 248.5zM110 535q21 28 38 46.5t36 34t41.5 31t55.5 37.5q-43 7 -69.5 15t-40.5 19.5t-18.5 26t-3.5 33.5q11 55 40.5 106.5t67 90.5t76.5 63t68 26q17 1 35.5 -14t23.5 -42 q-11 -21 -26 -39.5t-23 -40.5q-18 19 -44 21t-50 -8t-40.5 -28t-17 -38.5t20 -40t72.5 -32.5q16 -4 39 -2t50.5 7t58 11t60.5 10l-88 -140q-50 -3 -97.5 -17.5t-92.5 -36t-88 -47.5t-84 -52z" />
<glyph unicode="&#x626;" horiz-adv-x="639" arabic-form="initial" d="M-20 140v185h470q-7 38 -20 77t-28.5 74.5t-32 65.5t-29.5 51q27 38 53 77t53 78q59 -78 85.5 -161.5t26.5 -171.5q0 -69 -12.5 -138.5t-34.5 -136.5h-531zM84 724q21 28 38 46.5t36 34t41.5 31t55.5 37.5q-43 7 -69.5 15t-40.5 19.5t-18.5 26t-3.5 33.5 q11 55 40.5 106.5t67 90.5t76.5 63t68 26q17 1 35.5 -14t23.5 -42q-11 -21 -26 -39.5t-23 -40.5q-18 19 -44 21t-50 -8t-40.5 -28t-17 -38.5t20 -40t72.5 -32.5q16 -4 39 -2t50.5 7t58 11t60.5 10l-88 -140q-50 -3 -97.5 -17.5t-92.5 -36t-88 -47.5t-84 -52z" />
<glyph unicode="&#x626;" horiz-adv-x="635" arabic-form="medial" d="M-22 140v182h132q46 2 91 16.5t87 36.5t80.5 50.5t70.5 59.5q-4 -24 -11.5 -61t-21.5 -91l134 -11h118v-182h-173q-45 2 -84 15t-74 36q-45 -23 -90 -36t-92 -15h-167zM121 535q21 28 38 46.5t36 34t41.5 31t55.5 37.5q-43 7 -69.5 15t-40.5 19.5t-18.5 26t-3.5 33.5 q11 55 40.5 106.5t67 90.5t76.5 63t68 26q17 1 35.5 -14t23.5 -42q-11 -21 -26 -39.5t-23 -40.5q-18 19 -44 21t-50 -8t-40.5 -28t-17 -38.5t20 -40t72.5 -32.5q16 -4 39 -2t50.5 7t58 11t60.5 10l-88 -140q-50 -3 -97.5 -17.5t-92.5 -36t-88 -47.5t-84 -52z" />
<glyph unicode="&#x627;" horiz-adv-x="327" arabic-form="isolated" d="M71 1065q1 5 12 25t29.5 45.5t42 52.5t50.5 46l43 -735q1 -62 -5.5 -126t-20 -125.5t-32.5 -118t-42 -103.5z" />
<glyph unicode="&#x627;" horiz-adv-x="378" arabic-form="final" d="M51 1067l122 162l3 2l2 -2q1 -2 6.5 -11.5t12.5 -40.5t14.5 -89.5t13.5 -158.5t9 -248.5t2 -358.5h164v-182h-279q-6 18 -10 61.5t-7 103.5t-5.5 132.5t-5.5 148t-6.5 150t-8.5 139t-11.5 115t-15.5 77.5z" />
<glyph unicode="&#x628;" horiz-adv-x="1465" arabic-form="isolated" d="M58.5 294q-13.5 74 11.5 180.5t98 252.5q-59 -126 -59.5 -211t42.5 -137.5t121.5 -77t177.5 -29.5t211 4t222 24t209.5 31t174.5 24q16 3 25.5 4t13.5 2t5 3.5t1 8.5q0 32 -15 79.5t-37.5 98.5t-47.5 98t-45 78q32 44 58.5 81.5t58.5 81.5q28 -41 51.5 -94t40.5 -109.5 t26 -111t9 -98.5q0 -43 -16.5 -114t-45.5 -188q-71 -3 -161.5 -15.5t-190.5 -28t-204.5 -30t-204.5 -21t-190 -2t-161 27.5t-118 68.5t-60.5 119.5zM566 -288l146 146q38 -41 71.5 -74.5t72.5 -71.5l-144 -144q-41 39 -74.5 71.5t-71.5 72.5z" />
<glyph unicode="&#x628;" horiz-adv-x="1580" arabic-form="final" d="M52.5 292.5q-7.5 73.5 19.5 173t95 227.5q-56 -114 -57.5 -195.5t37 -136.5t111 -85t166.5 -41t202 -4t217 26.5t213.5 48.5t190.5 63.5t147 72t84 73.5q-2 -14 -12 -35t-22 -46t-23.5 -51.5t-17.5 -51.5l131 -8h61v-183h-117q-22 1 -54 8.5t-65.5 18.5t-63 23.5 t-46.5 24.5q-81 -34 -173.5 -65t-189.5 -55t-194.5 -39t-187.5 -17.5t-169 9.5t-139.5 41.5t-98 79.5t-45 123.5zM561 -288l146 146q38 -41 71.5 -74.5t72.5 -71.5l-144 -144q-41 39 -74.5 71.5t-71.5 72.5z" />
<glyph unicode="&#x628;" horiz-adv-x="639" arabic-form="initial" d="M-20 140v185h470q-7 38 -20 77t-28.5 74.5t-32 65.5t-29.5 51q27 38 53 77t53 78q59 -78 85.5 -161.5t26.5 -171.5q0 -69 -12.5 -138.5t-34.5 -136.5h-531zM152 -195l132 132q35 -37 65.5 -67t65.5 -65l-131 -131q-37 35 -67 65t-65 66z" />
<glyph unicode="&#x628;" horiz-adv-x="635" arabic-form="medial" d="M-22 140v182h132q46 2 91 16.5t87 36.5t80.5 50.5t70.5 59.5q-4 -24 -11.5 -61t-21.5 -91l134 -11h118v-182h-173q-45 2 -84 15t-74 36q-45 -23 -90 -36t-92 -15h-167zM152 -195l132 132q35 -37 65.5 -67t65.5 -65l-131 -131q-37 35 -67 65t-65 66z" />
<glyph unicode="&#x629;" horiz-adv-x="583" arabic-form="isolated" d="M53 259q0 48 11 103.5t30 110.5t45.5 106.5t57.5 91.5t65.5 65t69.5 28q37 -4 71 -33t60.5 -74t43 -102t19 -116.5t-11 -117t-48.5 -105t-92.5 -80t-142.5 -41.5q-91 -10 -134.5 34.5t-43.5 129.5zM57 1066l127 127q30 -32 56 -58.5t56 -55.5l114 114q34 -35 62.5 -64.5 t63.5 -62.5l-126 -126q-32 32 -58.5 57.5t-55.5 54.5l-112 -112q-35 35 -64 63t-63 63zM129.5 408.5q-7.5 -43.5 6 -77t51.5 -49.5t107 1l157 37q0 28 -11 72.5t-33 87t-55.5 73t-78.5 30.5q-33 0 -64 -27t-51.5 -65.5t-28 -82z" />
<glyph unicode="&#x629;" horiz-adv-x="793" arabic-form="final" d="M35 1150l127 127q30 -32 56 -58.5t56 -55.5l114 114q34 -35 62.5 -64.5t63.5 -62.5l-126 -126q-32 32 -58.5 57.5t-55.5 54.5l-112 -112q-35 35 -64 63t-63 63zM58 336q0 69 13.5 120t36 89t52.5 67t63.5 54t68.5 50t68 56q2 7 4 23t4 27q26 26 52 49.5t53 48.5 q11 -54 22.5 -118t23.5 -129.5t26 -127t31 -110t38 -79.5t47 -34h140v-182h-84q-103 7 -165.5 80t-94.5 211q-35 -53 -73 -101.5t-69 -98.5q-27 4 -70.5 14.5t-85 25t-71.5 31.5t-30 34zM180 467q42 -26 71.5 -37.5t55.5 -11.5q29 0 60.5 14t76.5 40l-61 257 q-15 -30 -28 -50t-28.5 -36.5t-34.5 -31.5t-44 -33q-14 -11 -26.5 -22.5t-21.5 -24t-14.5 -28.5t-5.5 -36z" />
<glyph unicode="&#x62a;" horiz-adv-x="1455" arabic-form="isolated" d="M53.5 294q-13.5 74 11.5 180.5t98 252.5q-59 -126 -59.5 -211t42.5 -137.5t121.5 -77t177.5 -29.5t211 4t222 24t209.5 31t174.5 24q16 3 25.5 4t13.5 2t5 3.5t1 8.5q0 32 -15 79.5t-37.5 98.5t-47.5 98t-45 78q32 44 58.5 81.5t58.5 81.5q28 -41 51.5 -94t40.5 -109.5 t26 -111t9 -98.5q0 -43 -16.5 -114t-45.5 -188q-71 -3 -161.5 -15.5t-190.5 -28t-204.5 -30t-204.5 -21t-190 -2t-161 27.5t-118 68.5t-60.5 119.5zM457 940l138 138q32 -34 60.5 -63t60.5 -60l123 123q37 -38 68 -70t69 -68l-137 -136q-34 34 -62.5 61.5t-60.5 59.5 l-121 -121q-38 38 -69.5 68.5t-68.5 67.5z" />
<glyph unicode="&#x62a;" horiz-adv-x="1575" arabic-form="final" d="M47.5 292.5q-7.5 73.5 19.5 173t95 227.5q-56 -114 -57.5 -195.5t37 -136.5t111 -85t166.5 -41t202 -4t217 26.5t213.5 48.5t190.5 63.5t147 72t84 73.5q-2 -14 -12 -35t-22 -46t-23.5 -51.5t-17.5 -51.5l131 -8h61v-183h-117q-22 1 -54 8.5t-65.5 18.5t-63 23.5 t-46.5 24.5q-81 -34 -173.5 -65t-189.5 -55t-194.5 -39t-187.5 -17.5t-169 9.5t-139.5 41.5t-98 79.5t-45 123.5zM545 819l127 127q30 -32 56 -58.5t56 -55.5l114 114q34 -35 62.5 -64.5t63.5 -62.5l-126 -126q-32 32 -58.5 57.5t-55.5 54.5l-112 -112q-35 35 -64 63t-63 63 z" />
<glyph unicode="&#x62a;" horiz-adv-x="639" arabic-form="initial" d="M-20 140v185h470q-7 38 -20 77t-28.5 74.5t-32 65.5t-29.5 51q5 8 8.5 12.5t8.5 11.5q23 33 44.5 65.5t44.5 65.5q59 -78 85.5 -161.5t26.5 -171.5q0 -69 -12.5 -138.5t-34.5 -136.5h-531zM78 982l127 127q30 -32 56 -58.5t56 -55.5l114 114q34 -35 62.5 -64.5 t63.5 -62.5l-126 -126q-32 32 -58.5 57.5t-55.5 54.5l-112 -112q-35 35 -64 63t-63 63z" />
<glyph unicode="&#x62a;" horiz-adv-x="635" arabic-form="medial" d="M-22 140v182h132q46 2 91 16.5t87 36.5t80.5 50.5t70.5 59.5q-4 -24 -11.5 -61t-21.5 -91l134 -11h118v-182h-173q-45 2 -84 15t-74 36q-45 -23 -90 -36t-92 -15h-167zM104 871l127 127q30 -32 56 -58.5t56 -55.5l114 114q34 -35 62.5 -64.5t63.5 -62.5l-126 -126 q-32 32 -58.5 57.5t-55.5 54.5l-112 -112q-35 35 -64 63t-63 63z" />
<glyph unicode="&#x62b;" horiz-adv-x="1449" arabic-form="isolated" d="M48.5 294q-13.5 74 11.5 180.5t98 252.5q-59 -126 -59.5 -211t42.5 -137.5t121.5 -77t177.5 -29.5t211 4t222 24t209.5 31t174.5 24q16 3 25.5 4t13.5 2t5 3.5t1 8.5q0 32 -15 79.5t-37.5 98.5t-47.5 98t-45 78q32 44 58.5 81.5t58.5 81.5q28 -41 51.5 -94t40.5 -109.5 t26 -111t9 -98.5q0 -43 -16.5 -114t-45.5 -188q-71 -3 -161.5 -15.5t-190.5 -28t-204.5 -30t-204.5 -21t-190 -2t-161 27.5t-118 68.5t-60.5 119.5zM446 871l140 140q33 -35 62 -64.5t62 -61.5l125 126q38 -39 69.5 -71t69.5 -69l-139 -139q-35 34 -64 63l-61 61l-124 -124 q-39 38 -70.5 69.5zM577 1171l138 138q36 -38 67 -70t69 -68l-136 -136q-38 38 -69.5 68.5t-68.5 67.5z" />
<glyph unicode="&#x62b;" horiz-adv-x="1575" arabic-form="final" d="M47.5 292.5q-7.5 73.5 19.5 173t95 227.5q-56 -114 -57.5 -195.5t37 -136.5t111 -85t166.5 -41t202 -4t217 26.5t213.5 48.5t190.5 63.5t147 72t84 73.5q-2 -14 -12 -35t-22 -46t-23.5 -51.5t-17.5 -51.5l131 -8h61v-183h-117q-22 1 -54 8.5t-65.5 18.5t-63 23.5 t-46.5 24.5q-81 -34 -173.5 -65t-189.5 -55t-194.5 -39t-187.5 -17.5t-169 9.5t-139.5 41.5t-98 79.5t-45 123.5zM535 803l140 140q33 -35 62 -64.5t62 -61.5l125 126q38 -39 69.5 -71t69.5 -69l-139 -139q-35 34 -64 63l-61 61l-124 -124q-39 38 -70.5 69.5zM666 1103 l138 138q36 -38 67 -70t69 -68l-136 -136q-38 38 -69.5 68.5t-68.5 67.5z" />
<glyph unicode="&#x62b;" horiz-adv-x="639" arabic-form="initial" d="M-20 140v185h470q-7 38 -20 77t-28.5 74.5t-32 65.5t-29.5 51q27 38 53 77t53 78q59 -78 85.5 -161.5t26.5 -171.5q0 -69 -12.5 -138.5t-34.5 -136.5h-531zM39 965l134 133q32 -33 59 -61.5t59 -58.5l119 120q36 -37 66.5 -67.5t66.5 -65.5l-133 -133q-33 33 -60.5 60 t-58.5 58l-118 -118q-19 18 -35.5 34.5t-32.5 32t-32 32t-34 34.5zM164 1251l132 132q35 -37 64.5 -67t65.5 -65l-130 -130q-37 36 -67 65.5t-65 64.5z" />
<glyph unicode="&#x62b;" horiz-adv-x="635" arabic-form="medial" d="M-22 140v182h132q46 2 91 16.5t87 36.5t80.5 50.5t70.5 59.5q-4 -24 -11.5 -61t-21.5 -91l134 -11h118v-182h-173q-45 2 -84 15t-74 36q-45 -23 -90 -36t-92 -15h-167zM59 869l140 140q33 -35 62 -64.5t62 -61.5l125 126q38 -39 69.5 -71t69.5 -69l-139 -139 q-35 34 -64 63l-61 61l-124 -124q-39 38 -70.5 69.5zM190 1169l138 138q36 -38 67 -70t69 -68l-136 -136q-38 38 -69.5 68.5t-68.5 67.5z" />
<glyph unicode="&#x62c;" horiz-adv-x="987" arabic-form="isolated" d="M54 -118q7 104 51 216q27 72 65.5 132.5t87.5 111.5t108 93t127 78q-37 12 -84 32.5t-100.5 30.5t-111 -1t-114.5 -62q4 14 12 38.5t21.5 52t32.5 55.5t44.5 48.5t57.5 30.5t72 2q63 -13 123 -31.5t129 -36.5t153 -31.5t195 -14.5q-17 -48 -34 -88.5t-35 -89.5 q-79 -2 -163 -18t-164 -46t-151 -74t-124.5 -101t-85 -127t-31.5 -152q0 -110 47 -191t125.5 -139t181.5 -95t214.5 -58.5t224 -29.5t211.5 -8h55q-124 -73 -253.5 -101t-265.5 -28q-115 0 -214 29.5t-177 83t-132 128.5t-79.5 166t-18.5 195zM404 -22l137 137 q37 -38 68 -70t68 -67l-136 -136q-38 37 -69.5 67.5t-67.5 68.5z" />
<glyph unicode="&#x62c;" horiz-adv-x="992" arabic-form="final" d="M55 52q7 104 51 216q27 72 65.5 132.5t87.5 111.5t108 93t127 78q-37 12 -84 32.5t-100.5 30.5t-111 -1t-114.5 -62q4 14 12 38.5t21.5 52t32.5 55.5t44.5 48.5t57.5 30.5t72 2q63 -13 123 -31.5t129 -36.5t153 -31.5t195 -14.5q-17 -48 -34 -88.5t-35 -89.5 q-28 -1 -62 -4.5t-86 -13.5q-33 -81 -21 -136t56.5 -87t115.5 -44t155 -8v-185h-96q-69 3 -116.5 20.5t-79 44.5t-49 59.5t-25.5 65.5t-10 63.5t-2 52.5q0 9 4.5 24t10.5 34.5t12.5 43.5t10.5 51q-105 -26 -202 -68.5t-171.5 -104t-119 -142.5t-44.5 -184q0 -110 47 -191 t125.5 -139t181.5 -95t214.5 -58.5t224 -29.5t211.5 -8h55q-124 -73 -253.5 -101t-265.5 -28q-115 0 -214 29.5t-177 83t-132 128.5t-79.5 166t-18.5 195zM325 63l137 137q37 -38 68 -70t68 -67l-136 -136q-38 37 -69.5 67.5t-67.5 68.5z" />
<glyph unicode="&#x62c;" horiz-adv-x="1145" arabic-form="initial" d="M-24 141v182h208q16 4 50.5 3t85.5 7q51 5 102.5 20.5t97 33.5t82.5 34.5t60 24.5q-59 31 -114.5 60t-107.5 50.5t-100 34.5t-93 13q-10 0 -30.5 -14t-43 -31.5t-43 -32.5t-30.5 -17q15 23 37.5 50.5t49.5 56t56.5 54.5t58 46.5t55.5 33t48 12.5q78 -31 134 -57t102 -48 t88.5 -39t93 -29t114.5 -19t155 -8l-94 -194q-94 2 -170 -10.5t-141.5 -33.5t-122.5 -47t-111.5 -52t-110 -48.5t-116.5 -35.5h-250zM330 -121l137 137q37 -38 68 -70t68 -67l-136 -136q-38 37 -69.5 67.5t-67.5 68.5z" />
<glyph unicode="&#x62c;" horiz-adv-x="1281" arabic-form="medial" d="M-24 141v182h208q16 4 50.5 3t85.5 7q51 5 109 17.5t111 26.5t97 27t67 21q-59 31 -114.5 61.5t-107.5 54t-100 38t-93 14.5q-10 0 -26 -11.5t-32.5 -25.5t-32 -26.5t-25.5 -14.5q22 34 49.5 77t57.5 81t61.5 63.5t63.5 25.5q78 -31 136.5 -60t109 -54.5t97.5 -47.5 t101.5 -38.5t122 -26t157.5 -10.5l-90 -202h265v-182h-343v187q-74 0 -135.5 -9.5t-116 -26t-104.5 -37.5t-100.5 -41.5t-104 -40t-114.5 -32.5h-310zM441 -148l137 137q37 -38 68 -70t68 -67l-136 -136q-38 37 -69.5 67.5t-67.5 68.5z" />
<glyph unicode="&#x62d;" horiz-adv-x="987" arabic-form="isolated" d="M54 -118q7 104 51 216q27 72 65.5 132.5t87.5 111.5t108 93t127 78q-37 12 -84 32.5t-100.5 30.5t-111 -1t-114.5 -62q4 14 12 38.5t21.5 52t32.5 55.5t44.5 48.5t57.5 30.5t72 2q63 -13 123 -31.5t129 -36.5t153 -31.5t195 -14.5q-17 -48 -34 -88.5t-35 -89.5 q-79 -2 -163 -18t-164 -46t-151 -74t-124.5 -101t-85 -127t-31.5 -152q0 -110 47 -191t125.5 -139t181.5 -95t214.5 -58.5t224 -29.5t211.5 -8h55q-124 -73 -253.5 -101t-265.5 -28q-115 0 -214 29.5t-177 83t-132 128.5t-79.5 166t-18.5 195z" />
<glyph unicode="&#x62d;" horiz-adv-x="992" arabic-form="final" d="M55 52q7 104 51 216q27 72 65.5 132.5t87.5 111.5t108 93t127 78q-37 12 -84 32.5t-100.5 30.5t-111 -1t-114.5 -62q4 14 12 38.5t21.5 52t32.5 55.5t44.5 48.5t57.5 30.5t72 2q63 -13 123 -31.5t129 -36.5t153 -31.5t195 -14.5q-17 -48 -34 -88.5t-35 -89.5 q-28 -1 -62 -4.5t-86 -13.5q-33 -81 -21 -136t56.5 -87t115.5 -44t155 -8v-185h-96q-69 3 -116.5 20.5t-79 44.5t-49 59.5t-25.5 65.5t-10 63.5t-2 52.5q0 9 4.5 24t10.5 34.5t12.5 43.5t10.5 51q-105 -26 -202 -68.5t-171.5 -104t-119 -142.5t-44.5 -184q0 -110 47 -191 t125.5 -139t181.5 -95t214.5 -58.5t224 -29.5t211.5 -8h55q-124 -73 -253.5 -101t-265.5 -28q-115 0 -214 29.5t-177 83t-132 128.5t-79.5 166t-18.5 195z" />
<glyph unicode="&#x62d;" horiz-adv-x="1145" arabic-form="initial" d="M-24 141v182h208q16 4 50.5 3t85.5 7q51 5 102.5 20.5t97 33.5t82.5 34.5t60 24.5q-59 31 -114.5 60t-107.5 50.5t-100 34.5t-93 13q-10 0 -30.5 -14t-43 -31.5t-43 -32.5t-30.5 -17q15 23 37.5 50.5t49.5 56t56.5 54.5t58 46.5t55.5 33t48 12.5q78 -31 134 -57t102 -48 t88.5 -39t93 -29t114.5 -19t155 -8l-94 -194q-94 2 -170 -10.5t-141.5 -33.5t-122.5 -47t-111.5 -52t-110 -48.5t-116.5 -35.5h-250z" />
<glyph unicode="&#x62d;" horiz-adv-x="1281" arabic-form="medial" d="M-24 141v182h208q16 4 50.5 3t85.5 7q51 5 109 17.5t111 26.5t97 27t67 21q-59 31 -114.5 61.5t-107.5 54t-100 38t-93 14.5q-10 0 -26 -11.5t-32.5 -25.5t-32 -26.5t-25.5 -14.5q22 34 49.5 77t57.5 81t61.5 63.5t63.5 25.5q78 -31 136.5 -60t109 -54.5t97.5 -47.5 t101.5 -38.5t122 -26t157.5 -10.5l-90 -202h265v-182h-343v187q-74 0 -135.5 -9.5t-116 -26t-104.5 -37.5t-100.5 -41.5t-104 -40t-114.5 -32.5h-310z" />
<glyph unicode="&#x62e;" horiz-adv-x="987" arabic-form="isolated" d="M54 -118q7 104 51 216q27 72 65.5 132.5t87.5 111.5t108 93t127 78q-37 12 -84 32.5t-100.5 30.5t-111 -1t-114.5 -62q4 14 12 38.5t21.5 52t32.5 55.5t44.5 48.5t57.5 30.5t72 2q63 -13 123 -31.5t129 -36.5t153 -31.5t195 -14.5q-17 -48 -34 -88.5t-35 -89.5 q-79 -2 -163 -18t-164 -46t-151 -74t-124.5 -101t-85 -127t-31.5 -152q0 -110 47 -191t125.5 -139t181.5 -95t214.5 -58.5t224 -29.5t211.5 -8h55q-124 -73 -253.5 -101t-265.5 -28q-115 0 -214 29.5t-177 83t-132 128.5t-79.5 166t-18.5 195zM364 1072l137 137 q37 -38 68 -70t68 -67l-136 -136q-38 37 -69.5 67.5t-67.5 68.5z" />
<glyph unicode="&#x62e;" horiz-adv-x="992" arabic-form="final" d="M55 52q7 104 51 216q27 72 65.5 132.5t87.5 111.5t108 93t127 78q-37 12 -84 32.5t-100.5 30.5t-111 -1t-114.5 -62q4 14 12 38.5t21.5 52t32.5 55.5t44.5 48.5t57.5 30.5t72 2q63 -13 123 -31.5t129 -36.5t153 -31.5t195 -14.5q-17 -48 -34 -88.5t-35 -89.5 q-28 -1 -62 -4.5t-86 -13.5q-33 -81 -21 -136t56.5 -87t115.5 -44t155 -8v-185h-96q-69 3 -116.5 20.5t-79 44.5t-49 59.5t-25.5 65.5t-10 63.5t-2 52.5q0 9 4.5 24t10.5 34.5t12.5 43.5t10.5 51q-105 -26 -202 -68.5t-171.5 -104t-119 -142.5t-44.5 -184q0 -110 47 -191 t125.5 -139t181.5 -95t214.5 -58.5t224 -29.5t211.5 -8h55q-124 -73 -253.5 -101t-265.5 -28q-115 0 -214 29.5t-177 83t-132 128.5t-79.5 166t-18.5 195zM299 1223l137 137q37 -38 68 -70t68 -67l-136 -136q-38 37 -69.5 67.5t-67.5 68.5z" />
<glyph unicode="&#x62e;" horiz-adv-x="1145" arabic-form="initial" d="M-24 141v182h208q16 4 50.5 3t85.5 7q51 5 102.5 20.5t97 33.5t82.5 34.5t60 24.5q-59 31 -114.5 60t-107.5 50.5t-100 34.5t-93 13q-10 0 -30.5 -14t-43 -31.5t-43 -32.5t-30.5 -17q15 23 37.5 50.5t49.5 56t56.5 54.5t58 46.5t55.5 33t48 12.5q78 -31 134 -57t102 -48 t88.5 -39t93 -29t114.5 -19t155 -8l-94 -194q-94 2 -170 -10.5t-141.5 -33.5t-122.5 -47t-111.5 -52t-110 -48.5t-116.5 -35.5h-250zM236 1071l137 137q37 -38 68 -70t68 -67l-136 -136q-38 37 -69.5 67.5t-67.5 68.5z" />
<glyph unicode="&#x62e;" horiz-adv-x="1281" arabic-form="medial" d="M-24 141v182h208q16 4 50.5 3t85.5 7q51 5 109 17.5t111 26.5t97 27t67 21q-59 31 -114.5 61.5t-107.5 54t-100 38t-93 14.5q-10 0 -26 -11.5t-32.5 -25.5t-32 -26.5t-25.5 -14.5q22 34 49.5 77t57.5 81t61.5 63.5t63.5 25.5q78 -31 136.5 -60t109 -54.5t97.5 -47.5 t101.5 -38.5t122 -26t157.5 -10.5l-90 -202h265v-182h-343v187q-74 0 -135.5 -9.5t-116 -26t-104.5 -37.5t-100.5 -41.5t-104 -40t-114.5 -32.5h-310zM236 1071l137 137q37 -38 68 -70t68 -67l-136 -136q-38 37 -69.5 67.5t-67.5 68.5z" />
<glyph unicode="&#x62f;" horiz-adv-x="677" arabic-form="isolated" d="M51.5 260q0.5 38 7.5 77t17 73.5t18 56.5q-5 -49 6.5 -80.5t35 -48.5t55.5 -22t69 -1.5t76 13.5t75 22t67 25.5t52 23.5q-17 58 -31.5 99t-28 72t-26.5 54t-26.5 44.5t-28 44t-31.5 52.5q26 41 49.5 92t48.5 93q33 -38 61 -89.5t49 -110.5t33.5 -124.5t14.5 -131.5 q2 -69 -10 -129.5t-57 -108t-133 -80t-238 -44.5q-48 -4 -75 13t-38.5 47t-11 68z" />
<glyph unicode="&#x62f;" horiz-adv-x="882" arabic-form="final" d="M51.5 226q0.5 53 23 122t62.5 146q-40 -111 -19 -160.5t97 -49.5q29 0 81.5 9.5t109.5 31t108 56.5t76 86q-20 89 -43 187.5t-44 189.5q32 38 63 74.5t64 74.5q16 -62 27 -137t22.5 -151.5t25 -148t34 -125.5t50 -84.5t72.5 -24.5h37v-182h-70q-57 6 -90 21.5t-53.5 47 t-33.5 82t-30 126.5l-106 -212q-127 -64 -215.5 -88.5t-143.5 -18t-80 40.5t-24.5 87z" />
<glyph unicode="&#x630;" horiz-adv-x="672" arabic-form="isolated" d="M51.5 260q0.5 38 7.5 77t17 73.5t18 56.5q-5 -49 6.5 -80.5t35 -48.5t55.5 -22t69 -1.5t76 13.5t75 22t67 25.5t52 23.5q-17 58 -31.5 99t-28 72t-26.5 54t-26.5 44.5t-28 44t-31.5 52.5q26 41 49.5 92t48.5 93q33 -38 61 -89.5t49 -110.5t33.5 -124.5t14.5 -131.5 q2 -69 -10 -129.5t-57 -108t-133 -80t-238 -44.5q-48 -4 -75 13t-38.5 47t-11 68zM183 1202l137 137q37 -38 68 -70t68 -67l-136 -136q-38 37 -69.5 67.5t-67.5 68.5z" />
<glyph unicode="&#x630;" horiz-adv-x="882" arabic-form="final" d="M51.5 226q0.5 53 23 122t62.5 146q-40 -111 -19 -160.5t97 -49.5q29 0 81.5 9.5t109.5 31t108 56.5t76 86q-20 89 -43 187.5t-44 189.5q32 38 63 74.5t64 74.5q16 -62 27 -137t22.5 -151.5t25 -148t34 -125.5t50 -84.5t72.5 -24.5h37v-182h-70q-57 6 -90 21.5t-53.5 47 t-33.5 82t-30 126.5l-106 -212q-127 -64 -215.5 -88.5t-143.5 -18t-80 40.5t-24.5 87zM441 1296l137 137q37 -38 68 -70t68 -67l-136 -136q-38 37 -69.5 67.5t-67.5 68.5z" />
<glyph unicode="&#x631;" horiz-adv-x="641" arabic-form="isolated" d="M-218 -279q74 -5 141 -7t128.5 8.5t119.5 36.5t115 77t114.5 130.5t117.5 196.5q-1 46 -17 91t-39.5 87.5t-50.5 82t-49 75.5q29 47 55 88.5t56 89.5q45 -53 72 -126.5t37 -156.5t3 -172t-29.5 -174.5t-60.5 -162.5t-90 -136t-118 -96t-145 -42q-22 -2 -57 5.5t-75 19.5 t-80.5 26.5t-73 27.5t-53 21.5t-21.5 9.5z" />
<glyph unicode="&#x631;" horiz-adv-x="714" arabic-form="final" d="M-214 -329q-9 4 9 3q124 -6 232.5 8.5t201.5 63.5t171 139t143 236q-54 93 -83.5 157t-29.5 114q0 32 9.5 63t33.5 69q15 -50 38.5 -85t49.5 -58t52 -36.5t46 -21.5h72v-183h-89q-34 -84 -64 -162.5t-70 -148t-95.5 -127.5t-139.5 -101q-10 -5 -40 -4.5t-71 5t-89 11.5 t-95 15.5t-88 17t-68 15t-36 10.5z" />
<glyph unicode="&#x632;" horiz-adv-x="641" arabic-form="isolated" d="M-218 -279q74 -5 141 -7t128.5 8.5t119.5 36.5t115 77t114.5 130.5t117.5 196.5q-1 46 -17 91t-39.5 87.5t-50.5 82t-49 75.5q29 47 55 88.5t56 89.5q45 -53 72 -126.5t37 -156.5t3 -172t-29.5 -174.5t-60.5 -162.5t-90 -136t-118 -96t-145 -42q-22 -2 -57 5.5t-75 19.5 t-80.5 26.5t-73 27.5t-53 21.5t-21.5 9.5zM188 939l102 159q42 -37 77.5 -68t75.5 -66q-30 -42 -57 -76.5t-56 -72.5q-38 34 -72 63t-70 61z" />
<glyph unicode="&#x632;" horiz-adv-x="714" arabic-form="final" d="M-214 -329q-9 4 9 3q124 -6 232.5 8.5t201.5 63.5t171 139t143 236q-54 93 -83.5 157t-29.5 114q0 32 9.5 63t33.5 69q15 -50 38.5 -85t49.5 -58t52 -36.5t46 -21.5h72v-183h-89q-34 -84 -64 -162.5t-70 -148t-95.5 -127.5t-139.5 -101q-10 -5 -40 -4.5t-71 5t-89 11.5 t-95 15.5t-88 17t-68 15t-36 10.5zM288 866l137 137q37 -38 68 -70t68 -67l-136 -136q-38 37 -69.5 67.5t-67.5 68.5z" />
<glyph unicode="&#x633;" horiz-adv-x="2163" arabic-form="isolated" d="M50 47q1 55 9.5 100t26 97t44 119t64.5 167q-2 -11 -9 -35.5t-15.5 -55.5t-18 -64.5t-18 -63t-13.5 -51.5t-5 -29q0 -88 31 -151.5t84.5 -105.5t124 -63t149 -22t160.5 17t158.5 53.5t143 87t113.5 118.5q-11 26 -25.5 50.5t-27 51t-20 56t-4 65t21 78.5t55.5 96 q9 -19 16 -44t16 -52t21 -54.5t29.5 -50t42.5 -37.5t61 -19q60 -2 113 9.5t98.5 32.5t83.5 50t69 62q41 -58 95.5 -89t109 -34t102 24.5t75.5 86.5q8 18 4 37t-14 38.5t-22.5 38.5t-20.5 37q29 32 57 65t56 65q17 -19 27 -54t11.5 -79t-5.5 -94t-23 -99t-42 -94t-62 -79.5 t-82.5 -55t-104.5 -20.5q-45 0 -100 22.5t-121 70.5q-67 -44 -127.5 -71t-113.5 -39t-97.5 -10t-80.5 16q-33 -102 -104.5 -183.5t-167.5 -138.5t-208 -87.5t-226 -30.5q-105 0 -180 27.5t-123 75t-70 110t-21 132.5z" />
<glyph unicode="&#x633;" horiz-adv-x="2258" arabic-form="final" d="M60 47q1 55 9.5 100t26 97t44 119t64.5 167q-2 -11 -9 -35.5t-15.5 -55.5t-18 -64.5t-18 -63t-13.5 -51.5t-5 -29q0 -88 31 -151.5t84.5 -105.5t124 -63t149 -22t160.5 17t158.5 53.5t143 87t113.5 118.5q-11 26 -25.5 50.5t-27 51t-20 56t-4 65t21 78.5t55.5 96 q12 -26 19 -63.5t19 -74t33.5 -66t62.5 -39.5q58 -6 116.5 3t110 27t91.5 43t61 52q23 -48 57 -73t73 -32.5t80.5 -0.5t80 24.5t71.5 42.5t55 52q18 -29 36.5 -53.5t42.5 -42.5t55.5 -28.5t75.5 -10.5h48v-182h-104q-35 2 -61 9.5t-47 21t-38.5 33t-36.5 45.5 q-66 -53 -129 -77.5t-117 -24.5t-105.5 26.5t-89.5 77.5q-53 -33 -103 -61t-97.5 -44.5t-94.5 -19t-94 15.5q-33 -102 -104.5 -183.5t-167.5 -138.5t-208 -87.5t-226 -30.5q-105 0 -180 27.5t-123 75t-70 110t-21 132.5z" />
<glyph unicode="&#x633;" horiz-adv-x="1448" arabic-form="initial" d="M-21 140v183h69q41 -7 88.5 2.5t95.5 32t94 56t84 74.5q0 -29 -8 -50.5t-18.5 -38t-21.5 -29.5t-17 -26q87 -37 170.5 -40.5t157 16t134.5 57t103 82.5q41 -58 95.5 -89t109 -34t102 24.5t75.5 86.5q8 18 4 37t-14 38.5t-22.5 38.5t-20.5 37q29 32 57 65t56 65 q17 -19 27 -54t11.5 -79t-5.5 -94t-23 -99t-42 -94t-62 -79.5t-82.5 -55t-104.5 -20.5q-45 0 -100 22.5t-121 70.5q-94 -69 -179.5 -97.5t-159.5 -29.5t-136 19t-108 50q-30 -2 -53.5 -8.5t-45.5 -14t-44.5 -14.5t-49.5 -11h-95z" />
<glyph unicode="&#x633;" horiz-adv-x="1539" arabic-form="medial" d="M-21 140v183q61 -6 120 7t113.5 38.5t103 61t88.5 74.5q-5 -12 -10.5 -30.5t-15 -40.5t-27 -45t-46.5 -43q55 -26 113.5 -36t115.5 -8.5t110.5 14t99.5 32t82 45t57 52.5q23 -48 57 -73t73 -32.5t80.5 -0.5t80 24.5t71.5 42.5t55 52q18 -29 36.5 -53.5t42.5 -42.5 t55.5 -28.5t75.5 -10.5h48v-182h-104q-35 2 -61 9.5t-47 21t-38.5 33t-36.5 45.5q-66 -53 -129 -77.5t-117 -24.5t-105.5 26.5t-89.5 77.5q-92 -65 -178.5 -96t-164.5 -34t-146.5 18.5t-125.5 60.5q-32 -11 -56.5 -21.5t-50 -19t-56 -13.5t-73.5 -6z" />
<glyph unicode="&#x634;" horiz-adv-x="2169" arabic-form="isolated" d="M61 47q1 55 9.5 100t26 97t44 119t64.5 167q-2 -11 -9 -35.5t-15.5 -55.5t-18 -64.5t-18 -63t-13.5 -51.5t-5 -29q0 -88 31 -151.5t84.5 -105.5t124 -63t149 -22t160.5 17t158.5 53.5t143 87t113.5 118.5q-11 26 -25.5 50.5t-27 51t-20 56t-4 65t21 78.5t55.5 96 q9 -19 16 -44t16 -52t21 -54.5t29.5 -50t42.5 -37.5t61 -19q60 -2 113 9.5t98.5 32.5t83.5 50t69 62q41 -58 95.5 -89t109 -34t102 24.5t75.5 86.5q8 18 4 37t-14 38.5t-22.5 38.5t-20.5 37q29 32 57 65t56 65q17 -19 27 -54t11.5 -79t-5.5 -94t-23 -99t-42 -94t-62 -79.5 t-82.5 -55t-104.5 -20.5q-45 0 -100 22.5t-121 70.5q-67 -44 -127.5 -71t-113.5 -39t-97.5 -10t-80.5 16q-33 -102 -104.5 -183.5t-167.5 -138.5t-208 -87.5t-226 -30.5q-105 0 -180 27.5t-123 75t-70 110t-21 132.5zM1327 869l140 140q33 -35 62 -64.5t62 -61.5l125 126 q38 -39 69.5 -71t69.5 -69l-139 -139q-35 34 -64 63l-61 61l-124 -124q-39 38 -70.5 69.5zM1458 1169l138 138q36 -38 67 -70t69 -68l-136 -136q-38 38 -69.5 68.5t-68.5 67.5z" />
<glyph unicode="&#x634;" horiz-adv-x="2248" arabic-form="final" d="M50 47q1 55 9.5 100t26 97t44 119t64.5 167q-2 -11 -9 -35.5t-15.5 -55.5t-18 -64.5t-18 -63t-13.5 -51.5t-5 -29q0 -88 31 -151.5t84.5 -105.5t124 -63t149 -22t160.5 17t158.5 53.5t143 87t113.5 118.5q-11 26 -25.5 50.5t-27 51t-20 56t-4 65t21 78.5t55.5 96 q12 -26 19 -63.5t19 -74t33.5 -66t62.5 -39.5q58 -6 116.5 3t110 27t91.5 43t61 52q23 -48 57 -73t73 -32.5t80.5 -0.5t80 24.5t71.5 42.5t55 52q18 -29 36.5 -53.5t42.5 -42.5t55.5 -28.5t75.5 -10.5h48v-182h-104q-35 2 -61 9.5t-47 21t-38.5 33t-36.5 45.5 q-66 -53 -129 -77.5t-117 -24.5t-105.5 26.5t-89.5 77.5q-53 -33 -103 -61t-97.5 -44.5t-94.5 -19t-94 15.5q-33 -102 -104.5 -183.5t-167.5 -138.5t-208 -87.5t-226 -30.5q-105 0 -180 27.5t-123 75t-70 110t-21 132.5zM1306 869l140 140q33 -35 62 -64.5t62 -61.5l125 126 q38 -39 69.5 -71t69.5 -69l-139 -139q-35 34 -64 63l-61 61l-124 -124q-39 38 -70.5 69.5zM1437 1169l138 138q36 -38 67 -70t69 -68l-136 -136q-38 38 -69.5 68.5t-68.5 67.5z" />
<glyph unicode="&#x634;" horiz-adv-x="1449" arabic-form="initial" d="M-21 140v183h69q41 -7 88.5 2.5t95.5 32t94 56t84 74.5q0 -29 -8 -50.5t-18.5 -38t-21.5 -29.5t-17 -26q87 -37 170.5 -40.5t157 16t134.5 57t103 82.5q41 -58 95.5 -89t109 -34t102 24.5t75.5 86.5q8 18 4 37t-14 38.5t-22.5 38.5t-20.5 37q29 32 57 65t56 65 q17 -19 27 -54t11.5 -79t-5.5 -94t-23 -99t-42 -94t-62 -79.5t-82.5 -55t-104.5 -20.5q-45 0 -100 22.5t-121 70.5q-94 -69 -179.5 -97.5t-159.5 -29.5t-136 19t-108 50q-30 -2 -53.5 -8.5t-45.5 -14t-44.5 -14.5t-49.5 -11h-95zM597 869l140 140q33 -35 62 -64.5t62 -61.5 l125 126q38 -39 69.5 -71t69.5 -69l-139 -139q-35 34 -64 63l-61 61l-124 -124q-39 38 -70.5 69.5zM728 1169l138 138q36 -38 67 -70t69 -68l-136 -136q-38 38 -69.5 68.5t-68.5 67.5z" />
<glyph unicode="&#x634;" horiz-adv-x="1539" arabic-form="medial" d="M-21 140v183q61 -6 120 7t113.5 38.5t103 61t88.5 74.5q-5 -12 -10.5 -30.5t-15 -40.5t-27 -45t-46.5 -43q55 -26 113.5 -36t115.5 -8.5t110.5 14t99.5 32t82 45t57 52.5q23 -48 57 -73t73 -32.5t80.5 -0.5t80 24.5t71.5 42.5t55 52q18 -29 36.5 -53.5t42.5 -42.5 t55.5 -28.5t75.5 -10.5h48v-182h-104q-35 2 -61 9.5t-47 21t-38.5 33t-36.5 45.5q-66 -53 -129 -77.5t-117 -24.5t-105.5 26.5t-89.5 77.5q-92 -65 -178.5 -96t-164.5 -34t-146.5 18.5t-125.5 60.5q-32 -11 -56.5 -21.5t-50 -19t-56 -13.5t-73.5 -6zM597 869l140 140 q33 -35 62 -64.5t62 -61.5l125 126q38 -39 69.5 -71t69.5 -69l-139 -139q-35 34 -64 63l-61 61l-124 -124q-39 38 -70.5 69.5zM728 1169l138 138q36 -38 67 -70t69 -68l-136 -136q-38 38 -69.5 68.5t-68.5 67.5z" />
<glyph unicode="&#x635;" horiz-adv-x="2247" arabic-form="isolated" d="M55 47q1 55 9.5 100t26 97t44 119t64.5 167q-2 -11 -9 -35.5t-15.5 -55.5t-18 -64.5t-18 -63t-13.5 -51.5t-5 -29q0 -88 31 -151.5t84.5 -105.5t124 -63t149 -22t160.5 17t158.5 53.5t143 87t113.5 118.5q-11 26 -25.5 50.5t-27 51t-20 56t-4 65t21 78.5t55.5 96 q9 -19 15 -45t12.5 -53.5t16.5 -55t26.5 -48.5t42 -33.5t63.5 -11.5q66 41 130 88t124 92.5t114.5 87t102 73t87 50.5t67.5 19q55 0 110.5 -23.5t100.5 -61.5t73.5 -85.5t28.5 -95.5q-13 -79 -50 -136.5t-92 -97t-125 -63.5t-148.5 -36t-162 -14t-165 2t-158.5 12t-142 16 q-33 -102 -104.5 -183.5t-167.5 -138.5t-208 -87.5t-226 -30.5q-105 0 -180 27.5t-123 75t-70 110t-21 132.5zM1377 297q172 -12 290 -7.5t195.5 19.5t120 37.5t64.5 46.5q9 23 -3.5 46.5t-39.5 42t-65 30.5t-80 12q-16 0 -31.5 -1t-29.5 -5q-42 -8 -91.5 -28.5 t-103.5 -49.5t-111.5 -66t-114.5 -77z" />
<glyph unicode="&#x635;" horiz-adv-x="2300" arabic-form="final" d="M55 47q1 55 9.5 100t26 97t44 119t64.5 167q-2 -11 -9 -35.5t-15.5 -55.5t-18 -64.5t-18 -63t-13.5 -51.5t-5 -29q0 -88 31 -151.5t84.5 -105.5t124 -63t149 -22t160.5 17t158.5 53.5t143 87t113.5 118.5q-11 26 -25.5 50.5t-27 51t-20 56t-4 65t21 78.5t55.5 96 q9 -19 15 -45t12.5 -53.5t16.5 -55t26.5 -48.5t42 -33.5t63.5 -11.5q66 41 130 88t124 92.5t114.5 87t102 73t87 50.5t67.5 19q55 0 110.5 -23.5t100.5 -61.5t73.5 -85.5t28.5 -95.5q-6 -38 -19.5 -73t-30.5 -64h173v-182h-250l-339 -20q-74 -8 -150.5 -8.5t-151.5 4 t-145 11.5t-130 15q-33 -102 -104.5 -183.5t-167.5 -138.5t-208 -87.5t-226 -30.5q-105 0 -180 27.5t-123 75t-70 110t-21 132.5zM1377 297q172 -12 290 -7.5t195.5 19.5t120 37.5t64.5 46.5q9 23 -3.5 46.5t-39.5 42t-65 30.5t-80 12q-16 0 -31.5 -1t-29.5 -5 q-42 -8 -91.5 -28.5t-103.5 -49.5t-111.5 -66t-114.5 -77z" />
<glyph unicode="&#x635;" horiz-adv-x="1370" arabic-form="initial" d="M-21 140v182h84q45 1 72.5 8.5t48.5 20.5t41 31.5t50 43.5q4 3 3 -6t-4.5 -22.5t-8 -28t-7.5 -23.5q25 -9 43.5 -15t33 -9.5t25.5 -5t23 -1.5q66 41 130 88t124 92.5t114.5 87t102 73t86.5 50.5t68 19q55 0 110.5 -23.5t100.5 -61.5t73.5 -85.5t28.5 -95.5 q-15 -98 -67.5 -162.5t-129 -104t-171.5 -57.5t-196.5 -22t-202 2t-189.5 15q-4 -6 -14.5 -23.5t-24 -40.5t-29 -49.5t-29.5 -50t-25.5 -41.5t-16.5 -25l73 254q-27 7 -60.5 15t-62.5 19q-21 -8 -30 -14.5t-21 -13t-34.5 -12.5t-69.5 -11l1 3h-43zM500 297q172 -12 290 -7.5 t195.5 19.5t120 37.5t64.5 46.5q9 23 -3.5 46.5t-39.5 42t-65 30.5t-80 12q-16 0 -31.5 -1t-29.5 -5q-42 -8 -91.5 -28.5t-103.5 -49.5t-111.5 -66t-114.5 -77z" />
<glyph unicode="&#x635;" horiz-adv-x="1406" arabic-form="medial" d="M-21 140v182h84q45 1 72.5 8.5t48.5 20.5t41 31.5t50 43.5q4 3 3 -6t-4.5 -22.5t-8 -28t-7.5 -23.5q25 -9 43.5 -15t33 -9.5t25.5 -5t23 -1.5q66 41 130 88t124 92.5t114.5 87t102 73t86.5 50.5t68 19q55 0 110.5 -23.5t100.5 -61.5t73.5 -85.5t28.5 -95.5 q0 -11 -9 -32.5t-20 -43t-21 -39.5t-11 -22h163v-182h-382q-77 -12 -161.5 -20t-171.5 -10t-174 2.5t-169 17.5q-4 -6 -14.5 -23.5t-24 -40.5t-29 -49.5t-29.5 -50t-25.5 -41.5t-16.5 -25l73 254q-27 7 -60.5 15t-62.5 19q-21 -8 -30 -14.5t-21 -13t-34.5 -12.5t-69.5 -11 l1 3h-43zM500 297q172 -12 290 -7.5t195.5 19.5t120 37.5t64.5 46.5q9 23 -3.5 46.5t-39.5 42t-65 30.5t-80 12q-16 0 -31.5 -1t-29.5 -5q-42 -8 -91.5 -28.5t-103.5 -49.5t-111.5 -66t-114.5 -77z" />
<glyph unicode="&#x636;" horiz-adv-x="2247" arabic-form="isolated" d="M55 47q1 55 9.5 100t26 97t44 119t64.5 167q-2 -11 -9 -35.5t-15.5 -55.5t-18 -64.5t-18 -63t-13.5 -51.5t-5 -29q0 -88 31 -151.5t84.5 -105.5t124 -63t149 -22t160.5 17t158.5 53.5t143 87t113.5 118.5q-11 26 -25.5 50.5t-27 51t-20 56t-4 65t21 78.5t55.5 96 q9 -19 15 -45t12.5 -53.5t16.5 -55t26.5 -48.5t42 -33.5t63.5 -11.5q66 41 130 88t124 92.5t114.5 87t102 73t87 50.5t67.5 19q55 0 110.5 -23.5t100.5 -61.5t73.5 -85.5t28.5 -95.5q-13 -79 -50 -136.5t-92 -97t-125 -63.5t-148.5 -36t-162 -14t-165 2t-158.5 12t-142 16 q-33 -102 -104.5 -183.5t-167.5 -138.5t-208 -87.5t-226 -30.5q-105 0 -180 27.5t-123 75t-70 110t-21 132.5zM1349 882l137 137q37 -38 68 -70t68 -67l-136 -136q-38 37 -69.5 67.5t-67.5 68.5zM1377 297q172 -12 290 -7.5t195.5 19.5t120 37.5t64.5 46.5q9 23 -3.5 46.5 t-39.5 42t-65 30.5t-80 12q-16 0 -31.5 -1t-29.5 -5q-42 -8 -91.5 -28.5t-103.5 -49.5t-111.5 -66t-114.5 -77z" />
<glyph unicode="&#x636;" horiz-adv-x="2300" arabic-form="final" d="M55 47q1 55 9.5 100t26 97t44 119t64.5 167q-2 -11 -9 -35.5t-15.5 -55.5t-18 -64.5t-18 -63t-13.5 -51.5t-5 -29q0 -88 31 -151.5t84.5 -105.5t124 -63t149 -22t160.5 17t158.5 53.5t143 87t113.5 118.5q-11 26 -25.5 50.5t-27 51t-20 56t-4 65t21 78.5t55.5 96 q9 -19 15 -45t12.5 -53.5t16.5 -55t26.5 -48.5t42 -33.5t63.5 -11.5q66 41 130 88t124 92.5t114.5 87t102 73t87 50.5t67.5 19q55 0 110.5 -23.5t100.5 -61.5t73.5 -85.5t28.5 -95.5q-6 -38 -19.5 -73t-30.5 -64h173v-182h-250l-339 -20q-74 -8 -150.5 -8.5t-151.5 4 t-145 11.5t-130 15q-33 -102 -104.5 -183.5t-167.5 -138.5t-208 -87.5t-226 -30.5q-105 0 -180 27.5t-123 75t-70 110t-21 132.5zM1349 882l137 137q37 -38 68 -70t68 -67l-136 -136q-38 37 -69.5 67.5t-67.5 68.5zM1377 297q172 -12 290 -7.5t195.5 19.5t120 37.5 t64.5 46.5q9 23 -3.5 46.5t-39.5 42t-65 30.5t-80 12q-16 0 -31.5 -1t-29.5 -5q-42 -8 -91.5 -28.5t-103.5 -49.5t-111.5 -66t-114.5 -77z" />
<glyph unicode="&#x636;" horiz-adv-x="1381" arabic-form="initial" d="M-21 140v182h84q45 1 72.5 8.5t48.5 20.5t41 31.5t50 43.5q4 3 3 -6t-4.5 -22.5t-8 -28t-7.5 -23.5q25 -9 43.5 -15t33 -9.5t25.5 -5t23 -1.5q66 41 130 88t124 92.5t114.5 87t102 73t86.5 50.5t68 19q55 0 110.5 -23.5t100.5 -61.5t73.5 -85.5t28.5 -95.5 q-15 -98 -67.5 -162.5t-129 -104t-171.5 -57.5t-196.5 -22t-202 2t-189.5 15q-4 -6 -14.5 -23.5t-24 -40.5t-29 -49.5t-29.5 -50t-25.5 -41.5t-16.5 -25l73 254q-27 7 -60.5 15t-62.5 19q-21 -8 -30 -14.5t-21 -13t-34.5 -12.5t-69.5 -11l1 3h-43zM472 882l137 137 q37 -38 68 -70t68 -67l-136 -136q-38 37 -69.5 67.5t-67.5 68.5zM500 297q172 -12 290 -7.5t195.5 19.5t120 37.5t64.5 46.5q9 23 -3.5 46.5t-39.5 42t-65 30.5t-80 12q-16 0 -31.5 -1t-29.5 -5q-42 -8 -91.5 -28.5t-103.5 -49.5t-111.5 -66t-114.5 -77z" />
<glyph unicode="&#x636;" horiz-adv-x="1406" arabic-form="medial" d="M-21 140v182h84q45 1 72.5 8.5t48.5 20.5t41 31.5t50 43.5q4 3 3 -6t-4.5 -22.5t-8 -28t-7.5 -23.5q25 -9 43.5 -15t33 -9.5t25.5 -5t23 -1.5q66 41 130 88t124 92.5t114.5 87t102 73t86.5 50.5t68 19q55 0 110.5 -23.5t100.5 -61.5t73.5 -85.5t28.5 -95.5 q0 -11 -9 -32.5t-20 -43t-21 -39.5t-11 -22h163v-182h-382q-77 -12 -161.5 -20t-171.5 -10t-174 2.5t-169 17.5q-4 -6 -14.5 -23.5t-24 -40.5t-29 -49.5t-29.5 -50t-25.5 -41.5t-16.5 -25l73 254q-27 7 -60.5 15t-62.5 19q-21 -8 -30 -14.5t-21 -13t-34.5 -12.5t-69.5 -11 l1 3h-43zM472 882l137 137q37 -38 68 -70t68 -67l-136 -136q-38 37 -69.5 67.5t-67.5 68.5zM500 297q172 -12 290 -7.5t195.5 19.5t120 37.5t64.5 46.5q9 23 -3.5 46.5t-39.5 42t-65 30.5t-80 12q-16 0 -31.5 -1t-29.5 -5q-42 -8 -91.5 -28.5t-103.5 -49.5t-111.5 -66 t-114.5 -77z" />
<glyph unicode="&#x637;" horiz-adv-x="1328" arabic-form="isolated" d="M51 332.5q2 69.5 22 166.5q2 -69 36.5 -109.5t85.5 -60t110 -21t109 6.5q16 88 16.5 175.5t-8 182t-22 200t-26.5 229.5q6 17 21 45.5t32 55.5t32.5 47t22.5 20q4 0 15.5 -13.5t26 -34.5t30.5 -46.5t29 -48.5t21.5 -40.5t8.5 -23.5q1 -2 -11.5 -18.5t-27.5 -38t-28 -43.5 t-13 -34q-4 -82 -2 -150t-0.5 -136t-15 -144.5t-43.5 -175.5q42 26 89.5 68.5t99 90t104.5 95.5t105 86.5t101.5 63t93.5 24.5q67 0 115 -28.5t73 -75t26 -104.5t-25 -118q-35 -76 -100 -127.5t-146.5 -84.5t-174 -50t-182 -24.5t-170.5 -7.5h-140q-111 0 -174 21t-90.5 66 t-25.5 114.5zM535 315q130 4 228.5 13t169.5 21t117.5 26.5t74.5 29.5t39 29.5t11 27.5q0 21 -11.5 38t-36 29t-63 17.5t-93.5 4.5q-44 -7 -95.5 -29t-107.5 -54t-115 -71.5t-118 -81.5z" />
<glyph unicode="&#x637;" horiz-adv-x="1401" arabic-form="final" d="M51 332.5q2 69.5 22 166.5q2 -69 36.5 -109.5t85.5 -60t110 -21t109 6.5q16 88 16.5 175.5t-8 182t-22 200t-26.5 229.5q6 17 21 45.5t32 55.5t32.5 47t22.5 20q4 0 15.5 -13.5t26 -34.5t30.5 -46.5t29 -48.5t21.5 -40.5t8.5 -23.5q1 -2 -11.5 -18.5t-27.5 -38t-28 -43.5 t-13 -34q-4 -82 -2 -150t-0.5 -136t-15 -144.5t-43.5 -175.5q42 26 89.5 68.5t99 90t104.5 95.5t105 86.5t101.5 63t93.5 24.5q72 0 126 -27t85.5 -70.5t36 -98t-23 -109.5t-90 -105t-166.5 -84q-4 -3 17.5 1t56.5 12t76 18t76.5 18.5t58 13t20.5 2.5h84v-182h-330 q-88 4 -159 5.5t-132 0.5t-114.5 -3.5t-107.5 -5t-112 -4.5t-126 -2q-111 0 -174 21t-90.5 66t-25.5 114.5zM535 315q130 4 228.5 13t169.5 21t117.5 26.5t74.5 29.5t39 29.5t11 27.5q0 21 -11.5 38t-36 29t-63 17.5t-93.5 4.5q-44 -7 -95.5 -29t-107.5 -54t-115 -71.5 t-118 -81.5z" />
<glyph unicode="&#x637;" horiz-adv-x="1129" arabic-form="initial" d="M-22 140v183h174q16 88 15.5 174t-9.5 179.5t-23.5 197.5t-27.5 228q6 17 21 45.5t32 55.5t32.5 47t22.5 20q4 0 15.5 -13.5t26 -34.5t30.5 -46.5t29 -48.5t21.5 -40.5t8.5 -23.5q1 -2 -11.5 -18.5t-27.5 -38t-28 -43.5t-13 -34q-4 -82 -2 -150t-0.5 -136t-15 -144.5 t-43.5 -175.5q42 26 89 65.5t96.5 83t101 86.5t102 77.5t99 56t92.5 21.5q55 0 108 -19.5t95 -52.5t67.5 -77t25.5 -93q-36 -119 -85.5 -185.5t-108.5 -98t-126.5 -38.5t-139.5 -7zM286 323h390q72 0 124.5 9.5t87 24.5t51 34t16.5 38q0 21 -21.5 40t-54.5 34t-73 24t-77 9 l-46 -4q-88 -14 -183 -69t-214 -140z" />
<glyph unicode="&#x637;" horiz-adv-x="1194" arabic-form="medial" d="M-16 140v183h165q13 72 14 156.5t-5.5 181.5t-19 207t-26.5 234q6 17 21 45.5t32.5 55.5t33 47t23.5 20q4 0 15 -13.5t25.5 -34.5t30.5 -46.5t29 -48.5t21.5 -40.5t8.5 -23.5q-4 -7 -16.5 -24t-26.5 -37t-25 -40t-12 -33q-5 -87 -5.5 -156.5t-4 -138t-13 -143 t-33.5 -171.5q33 37 76.5 80.5t93.5 87t103.5 84t106.5 72t102.5 50.5t91.5 19q54 0 105 -17.5t92 -47.5t69 -69.5t35 -82.5t-10.5 -88t-66.5 -85h196v-183h-1226zM290 323h391q72 0 124.5 8t87 21.5t51.5 31.5t17 37q0 24 -28.5 48t-70 40.5t-89 24t-84.5 -1.5 q-87 -14 -183.5 -70t-215.5 -139z" />
<glyph unicode="&#x638;" horiz-adv-x="1328" arabic-form="isolated" d="M51 332.5q2 69.5 22 166.5q2 -69 36.5 -109.5t85.5 -60t110 -21t109 6.5q16 88 16.5 175.5t-8 182t-22 200t-26.5 229.5q6 17 21 45.5t32 55.5t32.5 47t22.5 20q4 0 15.5 -13.5t26 -34.5t30.5 -46.5t29 -48.5t21.5 -40.5t8.5 -23.5q1 -2 -11.5 -18.5t-27.5 -38t-28 -43.5 t-13 -34q-4 -82 -2 -150t-0.5 -136t-15 -144.5t-43.5 -175.5q42 26 89.5 68.5t99 90t104.5 95.5t105 86.5t101.5 63t93.5 24.5q67 0 115 -28.5t73 -75t26 -104.5t-25 -118q-35 -76 -100 -127.5t-146.5 -84.5t-174 -50t-182 -24.5t-170.5 -7.5h-140q-111 0 -174 21t-90.5 66 t-25.5 114.5zM535 315q130 4 228.5 13t169.5 21t117.5 26.5t74.5 29.5t39 29.5t11 27.5q0 21 -11.5 38t-36 29t-63 17.5t-93.5 4.5q-44 -7 -95.5 -29t-107.5 -54t-115 -71.5t-118 -81.5zM718 955l137 137q37 -38 68 -70t68 -67l-136 -136q-38 37 -69.5 67.5t-67.5 68.5z" />
<glyph unicode="&#x638;" horiz-adv-x="1401" arabic-form="final" d="M51 332.5q2 69.5 22 166.5q2 -69 36.5 -109.5t85.5 -60t110 -21t109 6.5q16 88 16.5 175.5t-8 182t-22 200t-26.5 229.5q6 17 21 45.5t32 55.5t32.5 47t22.5 20q4 0 15.5 -13.5t26 -34.5t30.5 -46.5t29 -48.5t21.5 -40.5t8.5 -23.5q1 -2 -11.5 -18.5t-27.5 -38t-28 -43.5 t-13 -34q-4 -82 -2 -150t-0.5 -136t-15 -144.5t-43.5 -175.5q42 26 89.5 68.5t99 90t104.5 95.5t105 86.5t101.5 63t93.5 24.5q72 0 126 -27t85.5 -70.5t36 -98t-23 -109.5t-90 -105t-166.5 -84q-4 -3 17.5 1t56.5 12t76 18t76.5 18.5t58 13t20.5 2.5h84v-182h-330 q-88 4 -159 5.5t-132 0.5t-114.5 -3.5t-107.5 -5t-112 -4.5t-126 -2q-111 0 -174 21t-90.5 66t-25.5 114.5zM535 315q130 4 228.5 13t169.5 21t117.5 26.5t74.5 29.5t39 29.5t11 27.5q0 21 -11.5 38t-36 29t-63 17.5t-93.5 4.5q-44 -7 -95.5 -29t-107.5 -54t-115 -71.5 t-118 -81.5zM718 955l137 137q37 -38 68 -70t68 -67l-136 -136q-38 37 -69.5 67.5t-67.5 68.5z" />
<glyph unicode="&#x638;" horiz-adv-x="1129" arabic-form="initial" d="M-22 140v183h174q16 88 15.5 174t-9.5 179.5t-23.5 197.5t-27.5 228q6 17 21 45.5t32 55.5t32.5 47t22.5 20q4 0 15.5 -13.5t26 -34.5t30.5 -46.5t29 -48.5t21.5 -40.5t8.5 -23.5q1 -2 -11.5 -18.5t-27.5 -38t-28 -43.5t-13 -34q-4 -82 -2 -150t-0.5 -136t-15 -144.5 t-43.5 -175.5q42 26 89 65.5t96.5 83t101 86.5t102 77.5t99 56t92.5 21.5q55 0 108 -19.5t95 -52.5t67.5 -77t25.5 -93q-36 -119 -85.5 -185.5t-108.5 -98t-126.5 -38.5t-139.5 -7zM286 323h390q72 0 124.5 9.5t87 24.5t51 34t16.5 38q0 21 -21.5 40t-54.5 34t-73 24t-77 9 l-46 -4q-88 -14 -183 -69t-214 -140zM451 955l137 137q37 -38 68 -70t68 -67l-136 -136q-38 37 -69.5 67.5t-67.5 68.5z" />
<glyph unicode="&#x638;" horiz-adv-x="1194" arabic-form="medial" d="M-16 140v183h165q13 72 14 156.5t-5.5 181.5t-19 207t-26.5 234q6 17 21 45.5t32.5 55.5t33 47t23.5 20q4 0 15 -13.5t25.5 -34.5t30.5 -46.5t29 -48.5t21.5 -40.5t8.5 -23.5q-4 -7 -16.5 -24t-26.5 -37t-25 -40t-12 -33q-5 -87 -5.5 -156.5t-4 -138t-13 -143 t-33.5 -171.5q33 37 76.5 80.5t93.5 87t103.5 84t106.5 72t102.5 50.5t91.5 19q54 0 105 -17.5t92 -47.5t69 -69.5t35 -82.5t-10.5 -88t-66.5 -85h196v-183h-1226zM290 323h391q72 0 124.5 8t87 21.5t51.5 31.5t17 37q0 24 -28.5 48t-70 40.5t-89 24t-84.5 -1.5 q-87 -14 -183.5 -70t-215.5 -139zM457 981l137 137q37 -38 68 -70t68 -67l-136 -136q-38 37 -69.5 67.5t-67.5 68.5z" />
<glyph unicode="&#x639;" horiz-adv-x="950" arabic-form="isolated" d="M49 -205q0 75 10.5 146t37.5 140t73 137.5t117 138.5q-57 50 -81 107.5t-23.5 117t22 117t56.5 106t79.5 86t91.5 56.5q37 0 75 -16.5t70 -43t56.5 -59.5t36.5 -64q-50 17 -103 16t-104.5 -16.5t-100 -44.5t-88.5 -67q42 -65 82.5 -103t81.5 -56.5t84 -21t89 4t96 18.5 t107 22q-9 -25 -17 -46t-15 -41t-15 -41.5t-17 -46.5q-81 -16 -155.5 -33.5t-140.5 -40.5t-120.5 -55t-94.5 -78t-64 -108.5t-28 -146.5q1 -38 16.5 -87.5t56.5 -101.5t113.5 -102t187 -89t277.5 -63.5t385 -24.5q-178 -78 -331 -106t-279 -17t-223.5 56t-164.5 113.5 t-101.5 155.5t-34.5 182z" />
<glyph unicode="&#x639;" horiz-adv-x="793" arabic-form="final" d="M45.5 -77q3.5 83 32.5 168t90 169.5t166 162.5q-45 44 -96.5 77.5t-107.5 44.5q19 51 43 95.5t58 78t80 53t110 19.5q47 0 94 -13.5t84 -38.5t60 -61.5t23 -82.5q0 -37 -14 -69.5t-33.5 -64.5t-39.5 -65.5t-31 -72.5h252v-183h-254l-116 154q-157 -84 -239.5 -173.5 t-94 -176t46 -166t181.5 -142.5t313 -105.5t439 -55.5q-111 -53 -229 -80t-230.5 -28t-213.5 23.5t-179.5 74t-128 124.5t-58.5 175q-11 76 -7.5 159z" />
<glyph unicode="&#x639;" horiz-adv-x="945" arabic-form="initial" d="M-17 140v183h184q-31 53 -38.5 113.5t4.5 120.5t41.5 117t72 103.5t97 79.5t115.5 46q60 8 106 -13.5t78 -57.5t51 -80t25 -80q-82 21 -152.5 29t-131.5 -0.5t-113 -34.5t-97 -73q34 -83 78.5 -129t97.5 -66t113.5 -19t125 12t132.5 27.5t136 27.5l-84 -178 q-54 -8 -119.5 -26t-133.5 -37.5t-134 -37.5t-120 -27h-334z" />
<glyph unicode="&#x639;" horiz-adv-x="777" arabic-form="medial" d="M-23 140v183h392q-16 66 -37.5 103.5t-51.5 52.5t-70.5 12t-93.5 -18q11 33 22.5 68t28 67.5t39 60.5t55.5 46.5t78.5 26t107.5 -1.5q73 -11 117 -31.5t64 -50t19 -67t-17 -80t-45 -90.5t-64 -98h284v-183h-338l-42 91l-77 -91h-371z" />
<glyph unicode="&#x63a;" horiz-adv-x="950" arabic-form="isolated" d="M49 -205q0 75 10.5 146t37.5 140t73 137.5t117 138.5q-57 50 -81 107.5t-23.5 117t22 117t56.5 106t79.5 86t91.5 56.5q37 0 75 -16.5t70 -43t56.5 -59.5t36.5 -64q-50 17 -103 16t-104.5 -16.5t-100 -44.5t-88.5 -67q42 -65 82.5 -103t81.5 -56.5t84 -21t89 4t96 18.5 t107 22q-9 -25 -17 -46t-15 -41t-15 -41.5t-17 -46.5q-81 -16 -155.5 -33.5t-140.5 -40.5t-120.5 -55t-94.5 -78t-64 -108.5t-28 -146.5q1 -38 16.5 -87.5t56.5 -101.5t113.5 -102t187 -89t277.5 -63.5t385 -24.5q-178 -78 -331 -106t-279 -17t-223.5 56t-164.5 113.5 t-101.5 155.5t-34.5 182zM104 1139l137 137q37 -38 68 -70t68 -67l-136 -136q-38 37 -69.5 67.5t-67.5 68.5z" />
<glyph unicode="&#x63a;" horiz-adv-x="793" arabic-form="final" d="M45.5 -77q3.5 83 32.5 168t90 169.5t166 162.5q-45 44 -96.5 77.5t-107.5 44.5q19 51 43 95.5t58 78t80 53t110 19.5q47 0 94 -13.5t84 -38.5t60 -61.5t23 -82.5q0 -37 -14 -69.5t-33.5 -64.5t-39.5 -65.5t-31 -72.5h252v-183h-254l-116 154q-157 -84 -239.5 -173.5 t-94 -176t46 -166t181.5 -142.5t313 -105.5t439 -55.5q-111 -53 -229 -80t-230.5 -28t-213.5 23.5t-179.5 74t-128 124.5t-58.5 175q-11 76 -7.5 159zM262 1086l137 137q37 -38 68 -70t68 -67l-136 -136q-38 37 -69.5 67.5t-67.5 68.5z" />
<glyph unicode="&#x63a;" horiz-adv-x="945" arabic-form="initial" d="M-17 140v183h184q-31 53 -38.5 113.5t4.5 120.5t41.5 117t72 103.5t97 79.5t115.5 46q60 8 106 -13.5t78 -57.5t51 -80t25 -80q-82 21 -152.5 29t-131.5 -0.5t-113 -34.5t-97 -73q34 -83 78.5 -129t97.5 -66t113.5 -19t125 12t132.5 27.5t136 27.5l-84 -178 q-54 -8 -119.5 -26t-133.5 -37.5t-134 -37.5t-120 -27h-334zM136 1134l137 137q37 -38 68 -70t68 -67l-136 -136q-38 37 -69.5 67.5t-67.5 68.5z" />
<glyph unicode="&#x63a;" horiz-adv-x="777" arabic-form="medial" d="M-23 140v183h392q-16 66 -37.5 103.5t-51.5 52.5t-70.5 12t-93.5 -18q11 33 22.5 68t28 67.5t39 60.5t55.5 46.5t78.5 26t107.5 -1.5q73 -11 117 -31.5t64 -50t19 -67t-17 -80t-45 -90.5t-64 -98h284v-183h-338l-42 91l-77 -91h-371zM257 1044l137 137q37 -38 68 -70 t68 -67l-136 -136q-38 37 -69.5 67.5t-67.5 68.5z" />
<glyph unicode="&#x641;" horiz-adv-x="1539" arabic-form="isolated" d="M47.5 313.5q-5.5 77.5 31 188.5t124.5 263q-67 -120 -85 -203.5t2 -139t72 -86.5t125 -45t161 -15t180.5 4t183.5 11t170 7q-1 29 1 57t2 37q0 51 9.5 104t27 102t42 92.5t54 75.5t64 50.5t71.5 18.5q32 0 59.5 -23.5t50.5 -60t40.5 -81t29 -87t16.5 -77.5t2 -53 q0 -71 -15 -152t-32 -161q-91 4 -197.5 -3t-219.5 -18t-227 -22.5t-220 -15.5t-199 2.5t-163 32t-112.5 73t-48 125zM942 1147l145 145q39 -41 72 -74t72 -71l-144 -144q-20 19 -38 36.5t-35.5 35l-35 35t-36.5 37.5zM1121 525q0 -27 18 -61.5t52 -65t83 -51.5t112 -21 q6 51 -7 104.5t-38 98t-57.5 72.5t-65.5 28q-14 0 -31 -8t-31.5 -22t-24.5 -33t-10 -41z" />
<glyph unicode="&#x641;" horiz-adv-x="1638" arabic-form="final" d="M48 311q1 80 45.5 194.5t142.5 271.5q-66 -118 -90 -204t-13 -145.5t52.5 -95t107 -52.5t151 -19t183.5 6t205 23t215 32q-3 51 5.5 108t25.5 113t42 107t55.5 89.5t65.5 61.5t72 23q46 -35 79 -79.5t55 -93t35 -98t18.5 -94t5 -80t-4.5 -56.5h158v-183h-258 q-91 2 -197.5 -7.5t-218.5 -22t-225.5 -25t-218 -17t-195 3t-157.5 34t-104.5 76t-36.5 129.5zM1115 1147l145 145q39 -41 72 -74t72 -71l-144 -144q-20 19 -38 36.5t-35.5 35l-35 35t-36.5 37.5zM1141 523q0 -27 16.5 -61.5t48 -65t78 -52t107.5 -21.5q21 45 14 97.5 t-30.5 98.5t-58 76.5t-70.5 30.5q-23 -1 -42 -13t-33 -28.5t-22 -33.5t-8 -28z" />
<glyph unicode="&#x641;" horiz-adv-x="635" arabic-form="initial" d="M-14 140v183h144q-5 29 -5.5 43.5t-0.5 25.5q0 51 9.5 104t27 102t42 92.5t54 75.5t64 50.5t71.5 18.5q32 0 59.5 -23.5t50.5 -60t40.5 -81t29 -87t16.5 -77.5t2 -53q0 -66 -12.5 -140t-29.5 -149q-2 -7 -3 -12.5t-2 -11.5h-557zM118 1136l145 145q39 -41 72 -74t72 -71 l-144 -144q-20 19 -38 36.5t-35.5 35l-35 35t-36.5 37.5zM230 525q0 -27 14.5 -59t44.5 -59.5t76 -46t109 -18.5l21 17q6 39 -7 86t-38 88t-57.5 68.5t-65.5 27.5q-14 0 -31 -8t-31.5 -22t-24.5 -33t-10 -41z" />
<glyph unicode="&#x641;" horiz-adv-x="709" arabic-form="medial" d="M-17 140v183h154q-2 17 -3 33.5t-1 24.5q0 45 9.5 95t27 99.5t42 94.5t53.5 79t62.5 54.5t69.5 20.5q43 -14 76 -47.5t56.5 -78.5t38 -97t21 -103t5.5 -97t-9 -78h146v-183h-748zM202 1136l145 145q39 -41 72 -74t72 -71l-144 -144q-20 19 -38 36.5t-35.5 35l-35 35 t-36.5 37.5zM231 517.5q2 -24.5 12 -52t29.5 -54t49.5 -47t71 -32.5t95 -9q10 31 8 67t-12.5 71t-28 67t-38.5 56.5t-44.5 39t-45.5 14.5q-26 0 -50 -18.5t-43 -60.5q-5 -17 -3 -41.5z" />
<glyph unicode="&#x642;" horiz-adv-x="1182" arabic-form="isolated" d="M53 -71.5q-22 109.5 14 259t125 327.5q-70 -160 -87 -276t9 -193.5t90.5 -119t157 -52.5t208.5 6t244 57q94 39 145 74.5t71.5 79.5t16 101.5t-20.5 138.5q-25 -45 -61.5 -78.5t-77 -56t-80.5 -33.5t-72 -11q-44 0 -70 25t-35.5 65.5t-5 92.5t20 106t41.5 106t58.5 92.5 t70.5 65.5t78 25q27 10 55 -1.5t54 -39.5t49.5 -69t40.5 -90t27 -104.5t10 -110.5q0 -148 -61 -264t-163.5 -196t-237 -122t-281.5 -43q-147 3 -229 66t-104 172.5zM388 940l127 127q30 -32 56 -58.5t56 -55.5l114 114q34 -35 62.5 -64.5t63.5 -62.5l-126 -126 q-32 32 -58.5 57.5t-55.5 54.5l-112 -112q-35 35 -64 63t-63 63zM700 432q0 -38 18 -64.5t53.5 -36t88.5 0t123 45.5q1 18 -8.5 51t-28 65t-45 55.5t-57.5 23.5t-57.5 -12.5t-45.5 -32.5t-30 -45t-11 -50z" />
<glyph unicode="&#x642;" horiz-adv-x="1245" arabic-form="final" d="M49 -53.5q-3 99.5 36 226.5t120 273q-68 -156 -81 -267t16 -183t93.5 -108t150.5 -43t188 12.5t205 58.5q26 10 63.5 29.5t73 47.5t64 64t36.5 80q-26 -1 -58.5 -0.5t-65.5 0.5q-95 0 -151 16t-85.5 40t-38.5 51.5t-9 50.5q0 41 10.5 86.5t29.5 89.5t44 84t55 70.5 t62.5 48.5t65.5 18q53 -11 93 -48.5t69 -90t47.5 -113.5t29.5 -118h155v-182h-170q-17 -74 -52 -136.5t-84 -112.5t-110 -88.5t-131 -65.5q-163 -62 -287 -74.5t-208.5 17.5t-128.5 98.5t-47 168zM445 982l127 127q30 -32 56 -58.5t56 -55.5l114 114q34 -35 62.5 -64.5 t63.5 -62.5l-126 -126q-32 32 -58.5 57.5t-55.5 54.5l-112 -112q-35 35 -64 63t-63 63zM706 432q0 -23 8.5 -45.5t28 -40t51 -28.5t77.5 -11q42 0 89 10q3 11 -1 32.5t-13.5 47.5t-24 53t-31.5 49.5t-36.5 37t-38.5 14.5q-23 0 -42.5 -10t-34.5 -26.5t-23.5 -38t-8.5 -44.5z " />
<glyph unicode="&#x642;" horiz-adv-x="651" arabic-form="initial" d="M-14 140v183h144q-5 29 -5.5 43.5t-0.5 25.5q0 51 9.5 104t27 102t42 92.5t54 75.5t64 50.5t71.5 18.5q32 0 59.5 -23.5t50.5 -60t40.5 -81t29 -87t16.5 -77.5t2 -53q0 -66 -12.5 -140t-29.5 -149q-2 -7 -3 -12.5t-2 -11.5h-557zM114 1092l127 127q30 -32 56 -58.5 t56 -55.5l114 114q34 -35 62.5 -64.5t63.5 -62.5l-126 -126q-32 32 -58.5 57.5t-55.5 54.5l-112 -112q-35 35 -64 63t-63 63zM230 525q0 -27 14.5 -59t44.5 -59.5t76 -46t109 -18.5l21 17q6 39 -7 86t-38 88t-57.5 68.5t-65.5 27.5q-14 0 -31 -8t-31.5 -22t-24.5 -33 t-10 -41z" />
<glyph unicode="&#x642;" horiz-adv-x="709" arabic-form="medial" d="M-17 140v183h154q-2 17 -3 33.5t-1 24.5q0 45 9.5 95t27 99.5t42 94.5t53.5 79t62.5 54.5t69.5 20.5q43 -14 76 -47.5t56.5 -78.5t38 -97t21 -103t5.5 -97t-9 -78h146v-183h-748zM114 1092l127 127q30 -32 56 -58.5t56 -55.5l114 114q34 -35 62.5 -64.5t63.5 -62.5 l-126 -126q-32 32 -58.5 57.5t-55.5 54.5l-112 -112q-35 35 -64 63t-63 63zM231 517.5q2 -24.5 12 -52t29.5 -54t49.5 -47t71 -32.5t95 -9q10 31 8 67t-12.5 71t-28 67t-38.5 56.5t-44.5 39t-45.5 14.5q-26 0 -50 -18.5t-43 -60.5q-5 -17 -3 -41.5z" />
<glyph unicode="&#x643;" horiz-adv-x="1370" arabic-form="isolated" d="M55 402q16 115 82 284q-46 -125 -46 -209q0 -83 34.5 -134t99.5 -74t149.5 -26.5t184 8t204 30t208.5 39.5t197 35q-2 63 -7 133t-11 141.5t-13.5 140.5t-14.5 130t-13 110.5t-9 81.5q5 8 13 27t17 41.5t19 45t18.5 38.5t16 21.5t11.5 -5.5q10 -26 20 -49t24.5 -44.5 t36.5 -42.5t55 -42q3 -2 0 -14.5t-10 -30.5t-16.5 -37.5t-19.5 -36.5t-18.5 -28t-13.5 -11q3 -37 6 -80t5.5 -87t4.5 -86t3.5 -77t2 -61t0.5 -36q0 -83 -19.5 -167t-60.5 -159q-119 -16 -242 -39t-240.5 -42.5t-224 -30t-193 -0.5t-146.5 46t-85 109t-9 188zM434 571.5 q4 3.5 22.5 10.5t48.5 19t66.5 28t77 36.5t80.5 45.5q-24 5 -51 18.5t-50 30t-38 33t-15 28.5q-17 32 -8 66.5t34 68.5t61 64.5t72.5 53.5t69 36.5t50.5 13.5q4 0 -5.5 -19t-35.5 -61q-6 -11 -32.5 -25.5t-56 -30.5t-53 -33t-23.5 -32q0 -12 15 -22t36.5 -20t47 -21t46 -24 t33 -29.5t8.5 -37.5q-6 -31 -36.5 -64.5t-81.5 -62.5t-120 -49t-151 -24q-15 -1 -11 2.5z" />
<glyph unicode="&#x643;" horiz-adv-x="1433" arabic-form="final" d="M50 351q12 87 64 211q-32 -86 -23.5 -142.5t49.5 -91t108 -49.5t151.5 -16.5t181 6t196 18.5t196 22.5t181.5 16.5l-16 773q2 4 17.5 15t38 26.5t49.5 34.5t53 38l12 -890h144v-183h-252q-143 -14 -277.5 -30t-253.5 -27.5t-221 -15t-181 8.5t-132.5 42.5t-75 88 t-9.5 144.5zM408 571.5q4 3.5 22.5 10.5t48.5 19t66.5 28t77.5 36.5t80 45.5q-24 5 -51 18.5t-50 30t-38 33t-15 28.5q-17 32 -8 66.5t34 68.5t61 64.5t72.5 53.5t69 36.5t50.5 13.5q4 0 -5.5 -19t-35.5 -61q-6 -11 -32.5 -25.5t-56 -30.5t-53 -33t-23.5 -32q0 -12 15 -22 t36.5 -20t47 -21t46 -24t33 -29.5t8.5 -37.5q-6 -31 -36.5 -64.5t-81.5 -62.5t-120 -49t-151 -24q-15 -1 -11 2.5z" />
<glyph unicode="&#x643;" horiz-adv-x="819" arabic-form="initial" d="M-9 140v183h577q-53 110 -130.5 193.5t-186.5 157.5q-11 -17 -19.5 -24.5t-16.5 -8.5t-16.5 4.5t-20.5 16.5q-34 28 -54 48t-20 31q0 41 7.5 89t24 93t43 80.5t65.5 50.5q52 22 120 46.5t140.5 48.5t144.5 47t132 41l-50 -143l-528 -179q97 -76 171 -139t128.5 -118 t91.5 -102t59 -89.5t31.5 -82t9.5 -78.5q0 -86 -31 -166h-672z" />
<glyph unicode="&#x643;" horiz-adv-x="872" arabic-form="medial" d="M-19 140v183h577q-27 54 -59.5 102t-71.5 90.5t-85 81.5t-100 76q-6 -3 -9.5 -9t-6.5 -11.5t-6.5 -9t-9.5 -3.5q-19 11 -39.5 26.5t-38 30.5t-28.5 27t-11 17q0 40 8.5 88t25.5 92.5t44 81t63 53.5h-1q49 21 116 45t140 48t145.5 47t133.5 41q-9 -29 -16 -49.5 t-12.5 -36.5t-10.5 -29.5t-10 -27.5l-528 -179q68 -53 147 -114t150.5 -133.5t125 -158t70.5 -186.5h206v-183h-909z" />
<glyph unicode="&#x644;" horiz-adv-x="1024" arabic-form="isolated" d="M53.5 52q2.5 63 19.5 127.5t41.5 123t53.5 107t57 78.5q-65 -99 -92 -196t-7.5 -175t90.5 -128.5t203 -56.5q49 -2 104 9t108.5 32t102 51.5t84.5 67.5l-80 1000q5 8 13 27t17 41.5t19 45t18.5 38.5t16 21.5t11.5 -5.5q10 -26 20 -49t24.5 -44.5t36.5 -42.5t55 -42 q3 -2 0 -14.5t-10 -30.5t-16.5 -37.5t-19.5 -36.5t-18.5 -28t-13.5 -11q2 -20 3.5 -44.5t3.5 -61.5t4 -91.5t4.5 -135t5.5 -191.5t6 -260q-22 -84 -65.5 -157t-109.5 -128t-154.5 -86.5t-200.5 -31.5q-99 0 -164.5 25.5t-104 69t-53.5 100.5t-12.5 120z" />
<glyph unicode="&#x644;" horiz-adv-x="1102" arabic-form="final" d="M48.5 52q2.5 63 19.5 127.5t41.5 123t53.5 107t57 78.5q-65 -99 -92 -196t-7.5 -175t90.5 -128.5t203 -56.5q49 -2 104 9t108.5 32t102 51.5t84.5 67.5l-52 1000l170 137v-906h188v-183h-206q-22 -84 -65.5 -157t-109.5 -128t-154.5 -86.5t-200.5 -31.5 q-99 0 -164.5 25.5t-104 69t-53.5 100.5t-12.5 120z" />
<glyph unicode="&#x644;" horiz-adv-x="520" arabic-form="initial" d="M-23 140v183h327q-2 63 -7 135.5t-12 147.5t-15 148t-15.5 137.5t-13.5 116.5t-10 84q5 8 13 27t17 41.5t19 45t18.5 38.5t16 21.5t11.5 -5.5q10 -26 20 -49t24.5 -44.5t36.5 -42.5t55 -42q3 -2 0 -14.5t-10 -30.5t-16.5 -37.5t-19.5 -36.5t-18.5 -28t-13.5 -11 q3 -37 6 -80t5.5 -87t4.5 -86t3.5 -77t2 -61t0.5 -36q0 -83 -19 -171t-56 -186h-354z" />
<glyph unicode="&#x644;" horiz-adv-x="468" arabic-form="medial" d="M-15 140v182h201l-29 774q0 4 13.5 16t35 29t49 36.5t54.5 38.5l3 3l14 -897h159v-182h-500z" />
<glyph unicode="&#x645;" horiz-adv-x="793" arabic-form="isolated" d="M52 149q3 34 12 67.5t21.5 63t24.5 46.5q37 39 78.5 63.5t91 39t110 20.5t135.5 8q-24 58 -61.5 97.5t-84 52t-101 -5t-111.5 -72.5q23 43 51.5 90.5t59 87t60 65t55.5 25.5q40 0 86.5 -23.5t93 -67t91.5 -105t83 -138.5l-59 -232q-27 16 -71 26t-96 12.5t-108.5 -1.5 t-108.5 -15t-96 -29.5t-71 -44.5q55 -138 86 -245.5t42 -199.5t3 -175.5t-32 -172.5q-2 98 -22 184t-48 169.5t-58.5 168.5t-52.5 181q-6 26 -3 60z" />
<glyph unicode="&#x645;" horiz-adv-x="1144" arabic-form="final" d="M51 228q2 31 11 67.5t24 89.5q21 53 63.5 99.5t98 85.5t121.5 70.5t134 54t136 35.5t127 16q22 -93 59.5 -170t84 -132t98.5 -86.5t103 -34.5h51v-183h-30q-29 2 -58.5 9.5t-56.5 18t-50 24.5t-38 30q-9 -11 -21 -24.5t-24 -28t-23 -29t-20 -26.5q-99 6 -183.5 25.5 t-146.5 59t-96 104t-32 161.5q-66 -32 -128.5 -69t-118.5 -75q37 -130 68.5 -233t54 -188.5t35.5 -158t13 -141.5v-45t-0.5 -60.5t-2 -60.5t-5.5 -47q-45 157 -81.5 271.5t-65 198t-48.5 140.5t-32.5 98t-17.5 72t-3 62zM469 500q53 -72 102.5 -109t95 -53t87.5 -19t80 -9 q-39 35 -65.5 70.5t-44 68t-28.5 61t-21 50.5q-19 -5 -46.5 -13t-57 -16.5t-57 -16.5t-45.5 -14z" />
<glyph unicode="&#x645;" horiz-adv-x="830" arabic-form="initial" d="M-16 140v182h35l56 1q1 0 12 2.5t27 7t35 11t35.5 14.5t29.5 17t16 19l-1 -1q9 22 31.5 58.5t53.5 78t68.5 83.5t77.5 75.5t80.5 55t76.5 21.5q28 0 49 -22.5t36 -58t25.5 -80t18 -87.5t13 -81t9.5 -61q0 -24 -10.5 -54t-27.5 -60t-38 -57.5t-42 -45.5l-354 140 q-32 -38 -69.5 -66t-74 -47t-68.5 -30t-54 -15h-46zM371 476l260 -114q-4 42 -11 82.5t-21.5 72.5t-37.5 52t-58 20q-17 0 -35 -9.5t-35 -25t-33 -36t-29 -42.5z" />
<glyph unicode="&#x645;" horiz-adv-x="951" arabic-form="medial" d="M-20 140v185l94 -2q42 0 74.5 13t59.5 35t50 50.5t46 59.5q23 33 52 66.5t68 62t89 49.5t115 27q26 -7 47 -31t39.5 -57t35 -72t33 -77t34 -71.5t37.5 -54.5h111v-183h-185q-7 -12 -17 -27t-22 -28.5t-24.5 -24.5t-23.5 -17l-464 210q-30 -30 -58 -50t-54 -32.5 t-51.5 -19.5t-49.5 -11h-36zM363 430q94 -47 152.5 -75.5t92 -44.5t48.5 -22.5t22 -9.5q-17 76 -31.5 120.5t-31.5 68t-38.5 30.5t-51.5 7q-37 0 -79.5 -18.5t-82.5 -55.5z" />
<glyph unicode="&#x646;" horiz-adv-x="1207" arabic-form="isolated" d="M50 47q1 55 9.5 100t26 97t44 119t64.5 167q-2 -11 -9 -35.5t-15.5 -55.5t-18 -64.5t-18 -63t-13.5 -51.5t-5 -29q0 -88 31 -151.5t84.5 -105.5t124 -63t149 -22t160.5 17t158.5 53.5t143 87t113.5 118.5q-9 56 -21.5 110t-31.5 106.5t-45.5 104t-64.5 103.5 q31 44 57.5 80t58.5 77q28 -42 51 -95t39 -109t25 -110t9 -98q0 -99 -27 -184t-75 -155.5t-114.5 -125t-145.5 -91.5t-168 -56.5t-182 -19.5q-105 0 -180 27.5t-123 75t-70 110t-21 132.5zM487 868l145 145q39 -41 72 -74t72 -71l-144 -144q-20 19 -38 36.5t-35.5 35l-35 35 t-36.5 37.5z" />
<glyph unicode="&#x646;" horiz-adv-x="1276" arabic-form="final" d="M50 5q0 28 5.5 68t15 85.5t23 93.5t29.5 93.5t34 85.5t37 68q-37 -81 -58.5 -159.5t-22.5 -148.5t21 -129.5t72 -102.5t130.5 -67.5t196.5 -24.5q39 0 102 11.5t138 40t155.5 77t153.5 122.5q-10 57 -22.5 111.5t-31.5 107t-46 104t-66 103.5l115 159q23 -35 43 -80 t36 -95t27 -102.5t17 -100.5h143v-185h-154q-23 -80 -68 -147.5t-103.5 -122t-127 -95.5t-138.5 -67.5t-137.5 -39t-124.5 -10.5q-105 4 -179.5 33.5t-122.5 77t-70 108t-22 128.5zM503 868l145 145q39 -41 72 -74t72 -71l-144 -144q-20 19 -38 36.5t-35.5 35l-35 35 t-36.5 37.5z" />
<glyph unicode="&#x646;" horiz-adv-x="625" arabic-form="initial" d="M-15 140v185h470q-6 38 -18.5 77t-28 74.5t-32 65.5t-30.5 51q27 38 53 77t53 78q53 -69 79 -143.5t31.5 -152t-7.5 -156.5t-38 -156h-532zM220 981l127 127q34 -35 62.5 -64.5t63.5 -62.5l-126 -126q-35 35 -64 63t-63 63z" />
<glyph unicode="&#x646;" horiz-adv-x="646" arabic-form="medial" d="M-16 140v182h132q46 2 91 16.5t87 36.5t80.5 50.5t70.5 59.5q-4 -24 -11.5 -61t-21.5 -91l134 -11h118v-182h-173q-45 2 -84 15t-74 36q-45 -23 -90 -36t-93 -15h-166zM215 886l127 127q34 -35 62.5 -64.5t63.5 -62.5l-126 -126q-35 35 -64 63t-63 63z" />
<glyph unicode="&#x647;" horiz-adv-x="588" arabic-form="isolated" d="M58 259q0 48 11 103.5t30 110.5t45.5 106.5t57.5 91.5t65.5 65t69.5 28q37 -4 71 -33t60.5 -74t43 -102t19 -116.5t-11 -117t-48.5 -105t-92.5 -80t-142.5 -41.5q-91 -10 -134.5 34.5t-43.5 129.5zM134.5 408.5q-7.5 -43.5 6 -77t51.5 -49.5t107 1l157 37q0 28 -11 72.5 t-33 87t-55.5 73t-78.5 30.5q-33 0 -64 -27t-51.5 -65.5t-28 -82z" />
<glyph unicode="&#x647;" horiz-adv-x="793" arabic-form="final" d="M58 336q0 69 13.5 120t36 89t52.5 67t63.5 54t68.5 50t68 56q2 7 4 23t4 27q26 26 52 49.5t53 48.5q11 -54 22.5 -118t23.5 -129.5t26 -127t31 -110t38 -79.5t47 -34h140v-182h-84q-103 7 -165.5 80t-94.5 211q-35 -53 -73 -101.5t-69 -98.5q-27 4 -70.5 14.5t-85 25 t-71.5 31.5t-30 34zM180 467q42 -26 71.5 -37.5t55.5 -11.5q29 0 60.5 14t76.5 40l-61 257q-15 -30 -28 -50t-28.5 -36.5t-34.5 -31.5t-44 -33q-14 -11 -26.5 -22.5t-21.5 -24t-14.5 -28.5t-5.5 -36z" />
<glyph unicode="&#x647;" horiz-adv-x="1013" arabic-form="initial" d="M-16 140v183h159q2 15 4.5 35t5.5 40.5t6 40.5t6 36q8 43 24 72.5t34.5 50.5t37.5 35.5t34.5 29t25.5 31.5t10 41q0 15 10 37t24 45t30.5 44.5t29.5 36.5q117 -77 214 -137t166.5 -114t110 -108t46 -118t-27.5 -144.5t-110 -187.5l-462 111l-197 -60h-181zM205 475 q0 -26 15.5 -51t37.5 -45.5t46.5 -33t42.5 -12.5q23 0 54 17.5t59.5 43t48 54t19.5 50.5q0 21 -10.5 43t-28.5 41t-41.5 31t-48.5 12q-10 0 -28.5 -8.5t-40 -22t-44 -30t-40.5 -33t-29.5 -31.5t-11.5 -25zM562.5 349q4.5 -7 25.5 -13l268 -52q10 21 -3.5 55t-39.5 70.5 t-59.5 70t-62.5 54.5t-48.5 24t-17.5 -22q3 -39 -4.5 -66.5t-18.5 -48t-22.5 -33.5t-16.5 -22.5t-0.5 -16.5z" />
<glyph unicode="&#x647;" horiz-adv-x="782" arabic-form="medial" d="M-17 140v183h177q9 26 36 73t65 101.5t83.5 110.5t93 101.5t93 74.5t83.5 29q15 0 28.5 -9.5t22.5 -29.5q22 -54 10 -111.5t-42.5 -116t-72 -115.5t-77.5 -108h314v-183h-96q-28 -114 -63.5 -184.5t-75.5 -109.5t-81.5 -53t-81.5 -14q-67 0 -116 33t-83.5 85t-57 116 t-37.5 127h-122zM206 188q28 -67 59.5 -112.5t67.5 -73.5t77 -40t89 -12l97 33q-4 39 -25.5 69.5t-54 53.5t-73 38.5t-82.5 25t-82.5 14t-72.5 4.5zM215 347q72 0 137.5 18t115 50t78.5 77.5t29 101.5q0 14 -3 32.5t-11 41.5l-48 23q-33 -20 -63 -47.5t-64 -68t-75.5 -96.5 t-95.5 -132z" />
<glyph unicode="&#x648;" horiz-adv-x="679" arabic-form="isolated" d="M-331 -276q67 -2 135 -2t138 9.5t142 32.5t148 66.5t156 111t166 166.5l-27 156q-25 -40 -62.5 -67t-79 -40.5t-83.5 -12t-75 20.5t-54 56.5t-21 94.5q0 43 9.5 91.5t27 96t41 91.5t52 78t61 55t66.5 23q96 -86 146.5 -193t59.5 -221t-22 -227t-97.5 -212t-166.5 -176.5 t-229 -118.5q-23 0 -59 7.5t-77.5 19t-85.5 25.5t-84.5 27t-73 24.5t-51.5 17.5zM245 443q0 -20 9.5 -42.5t28 -41.5t45 -31t60.5 -12h22q11 0 23 2t26 6t34 12q-15 56 -33 97.5t-36 69t-35 41t-29 13.5q-26 0 -47.5 -10t-36.5 -26t-23 -36.5t-8 -41.5z" />
<glyph unicode="&#x648;" horiz-adv-x="761" arabic-form="final" d="M-294 -247q7 0 22 -6t40.5 -12.5t63 -12.5t88.5 -6q59 0 137.5 17.5t165.5 64t177 127t173 206.5q-23 1 -49.5 0.5t-53.5 -1t-53 -1.5t-48 -1q-23 0 -44.5 3t-41.5 12t-37.5 25.5t-32.5 42.5q-10 16 -14 39.5t-4 52.5q0 44 10 93.5t27.5 98t42 93t53.5 78t62 53.5t67 20 q32 0 58.5 -22.5t48 -58.5t37.5 -82t27.5 -92t18.5 -89t10 -73h119v-182h-108q-22 -66 -52.5 -131.5t-76.5 -128.5t-109.5 -122t-151.5 -113q-27 -19 -67.5 -24.5t-88 -1.5t-98.5 15.5t-99.5 26.5t-91 31t-73 29.5t-46 22.5t-8.5 9zM289 432q0 -39 27 -71t87 -38h-1 q40 -4 77.5 -3t76.5 4q-27 72 -47.5 116t-38 67t-33.5 30.5t-34 7.5q-26 0 -47 -10t-36 -25.5t-23 -36t-8 -41.5z" />
<glyph unicode="&#x649;" horiz-adv-x="1291" arabic-form="isolated" d="M76.5 224q21.5 137 90.5 299q-6 -15 -17.5 -50t-21 -80.5t-14 -97.5t3 -103t31 -95.5t70 -75.5t119.5 -43t179.5 2.5t249.5 60t331 130.5q-45 43 -96 70t-99.5 44.5t-91.5 28.5t-71 22q-30 32 -26.5 86.5t31.5 117.5t75.5 129t105.5 122t122 95t125 49q24 4 39.5 -10 t23 -38.5t7.5 -55.5t-7.5 -61t-21 -55.5t-33.5 -37.5q-8 37 -29.5 51t-51 11t-64 -19t-67.5 -39t-62.5 -49.5t-48.5 -50.5t-25 -42t7 -24q69 -30 130 -51.5t106 -48t71 -65t26 -102.5q0 -6 -4 -23t-10 -39t-13 -47.5t-14 -48t-12 -40l-7 -24.5q-232 -134 -412 -194 t-308 -58.5t-205.5 58t-105 156t-6 236.5z" />
<glyph unicode="&#x649;" horiz-adv-x="1374" arabic-form="final" d="M76 149.5q23 141.5 92 302.5q-7 -18 -18.5 -56.5t-20.5 -87.5t-12.5 -105.5t5 -111.5t32 -104t69 -83.5t116 -51t173 -5.5t239.5 53.5t315 125.5q-24 30 -52.5 51.5t-58.5 37.5t-61 26t-59 16q8 24 15 44t13.5 39.5t13.5 39t15 43.5h498v-183h-187q-16 -37 -28.5 -65 t-25.5 -55.5t-27.5 -58t-34.5 -71.5q-232 -133 -409 -188t-302 -46.5t-199 73.5t-99 172t-2 248.5z" />
<glyph unicode="&#x64a;" horiz-adv-x="1291" arabic-form="isolated" d="M76.5 224q21.5 137 90.5 299q-6 -15 -17.5 -50t-21 -80.5t-14 -97.5t3 -103t31 -95.5t70 -75.5t119.5 -43t179.5 2.5t249.5 60t331 130.5q-45 43 -96 70t-99.5 44.5t-91.5 28.5t-71 22q-30 32 -26.5 86.5t31.5 117.5t75.5 129t105.5 122t122 95t125 49q24 4 39.5 -10 t23 -38.5t7.5 -55.5t-7.5 -61t-21 -55.5t-33.5 -37.5q-8 37 -29.5 51t-51 11t-64 -19t-67.5 -39t-62.5 -49.5t-48.5 -50.5t-25 -42t7 -24q69 -30 130 -51.5t106 -48t71 -65t26 -102.5q0 -6 -4 -23t-10 -39t-13 -47.5t-14 -48t-12 -40l-7 -24.5q-232 -134 -412 -194 t-308 -58.5t-205.5 58t-105 156t-6 236.5zM293 -541l127 127q30 -32 56 -58.5t56 -55.5l114 114q34 -35 62.5 -64.5t63.5 -62.5l-126 -126q-32 32 -58.5 57.5t-55.5 54.5l-112 -112q-35 35 -64 63t-63 63z" />
<glyph unicode="&#x64a;" horiz-adv-x="1374" arabic-form="final" d="M76 149.5q23 141.5 92 302.5q-7 -18 -18.5 -56.5t-20.5 -87.5t-12.5 -105.5t5 -111.5t32 -104t69 -83.5t116 -51t173 -5.5t239.5 53.5t315 125.5q-24 30 -52.5 51.5t-58.5 37.5t-61 26t-59 16q8 24 15 44t13.5 39.5t13.5 39t15 43.5h498v-183h-187q-16 -37 -28.5 -65 t-25.5 -55.5t-27.5 -58t-34.5 -71.5q-232 -133 -409 -188t-302 -46.5t-199 73.5t-99 172t-2 248.5zM409 -656l127 127q30 -32 56 -58.5t56 -55.5l114 114q34 -35 62.5 -64.5t63.5 -62.5l-126 -126q-32 32 -58.5 57.5t-55.5 54.5l-112 -112q-35 35 -64 63t-63 63z" />
<glyph unicode="&#x64a;" horiz-adv-x="614" arabic-form="initial" d="M-20 140v185h470q-7 38 -20 77t-28.5 74.5t-32 65.5t-29.5 51q27 38 53 77t53 78q59 -78 85.5 -161.5t26.5 -171.5q0 -69 -12.5 -138.5t-34.5 -136.5h-531zM25 -211l127 127q30 -32 56 -58.5t56 -55.5l114 114q34 -35 62.5 -64.5t63.5 -62.5l-126 -126q-32 32 -58.5 57.5 t-55.5 54.5l-112 -112q-35 35 -64 63t-63 63z" />
<glyph unicode="&#x64a;" horiz-adv-x="635" arabic-form="medial" d="M-22 140v182h132q46 2 91 16.5t87 36.5t80.5 50.5t70.5 59.5q-4 -24 -11.5 -61t-21.5 -91l134 -11h118v-182h-173q-45 2 -84 15t-74 36q-45 -23 -90 -36t-92 -15h-167zM57 -211l127 127q30 -32 56 -58.5t56 -55.5l114 114q34 -35 62.5 -64.5t63.5 -62.5l-126 -126 q-32 32 -58.5 57.5t-55.5 54.5l-112 -112q-35 35 -64 63t-63 63z" />
<glyph unicode=" "  horiz-adv-x="500" />
<glyph unicode="&#x09;" horiz-adv-x="500" />
<glyph unicode="&#xa0;" horiz-adv-x="500" />
<glyph unicode="!" horiz-adv-x="426" d="M68 226l145 145q39 -41 72 -74t72 -71l-144 -144q-20 19 -38 36.5t-35.5 35l-35 35t-36.5 37.5zM124 1098q-1 4 14.5 17.5t39.5 32t52.5 38.5t54.5 38q7 -56 11.5 -125t5.5 -142.5t-3 -147t-13.5 -138.5t-25.5 -116.5t-39 -80.5z" />
<glyph unicode="&#x22;" horiz-adv-x="446" d="M82 1174l112 66q-4 -59 -9 -124.5t-10 -127t-10 -114t-10 -84.5h-52q-5 100 -10 192.5t-11 191.5zM250 1173l113 68q-4 -59 -8.5 -124.5t-10 -127.5t-11 -114.5t-10.5 -84.5h-51q-5 100 -10.5 191.5t-11.5 191.5z" />
<glyph unicode="#" d="M42 400v97h175v-9q16 81 30.5 155t30.5 154h-236v96h257v-9q22 106 44 217t44 218h78l-86 -426h314v-9q22 106 45.5 217t46.5 218h79l-91 -426h158v-96h-173v9q-17 -81 -32.5 -155t-31.5 -154h237v-97h-255v8q-22 -106 -44 -217t-45 -218h-76l86 427h-316v8 q-21 -106 -45 -217t-45 -218h-79l87 427h-157zM297 497h316v-9q17 81 32 155t32 154h-316v9z" />
<glyph unicode="$" d="M108 48v285h40q10 -127 83.5 -194.5t208.5 -83.5v528q-97 61 -171 121.5t-110 111.5q-25 36 -37.5 80t-12.5 99q0 121 86 209q44 44 107.5 70t137.5 36v86h60v-86q37 -2 70 -6.5t59 -11.5q19 -5 179 -66v-299h-36q-10 149 -78 220q-30 32 -80.5 52t-113.5 27v-456 q109 -77 187.5 -140.5t114.5 -104.5q67 -79 67 -200q0 -138 -99 -235q-47 -48 -119.5 -77t-150.5 -40v-119h-60v119q-42 2 -85 7.5t-80 13.5q-33 8 -77.5 22.5t-89.5 31.5zM256 1055q0 -60 40 -122q19 -27 56 -58.5t88 -65.5v416q-92 -12 -138 -57t-46 -113zM500 55 q32 6 61 15.5t46 17.5q51 33 82 84.5t31 105.5q0 56 -37 111q-17 26 -63 64t-120 89v-487z" />
<glyph unicode="%" horiz-adv-x="889" d="M65 847l145 145q39 -41 72 -74t72 -71l-144 -144q-20 19 -38 36.5t-35.5 35l-35 35t-36.5 37.5zM264 -115l204 1210q-1 3 16 16t42.5 31.5t55.5 38.5t56 37q-36 -226 -66.5 -404t-58.5 -315.5t-55.5 -238.5t-57 -174t-63 -121t-73.5 -80zM506 191l145 145q39 -41 72 -74 t72 -71l-144 -144q-20 19 -38 36.5t-35.5 35l-35 35t-36.5 37.5z" />
<glyph unicode="&#x26;" horiz-adv-x="1513" d="M82 260q0 58 21.5 117.5t59.5 113.5q43 57 119.5 117.5t181.5 117.5q-20 43 -33.5 81t-21.5 69q-8 32 -12 62.5t-4 59.5q0 83 30.5 147t87.5 106q47 33 99.5 50.5t109.5 17.5q107 0 182 -70q70 -65 70 -169t-69 -181q-35 -38 -95 -80.5t-138 -83.5q26 -47 56 -95.5 t61 -96.5t63 -94.5t62 -87.5q80 97 122 179t42 146q0 36 -28 70q-17 21 -59 26v55h393v-55q-40 -4 -71 -13t-49 -21q-22 -17 -52.5 -61t-68.5 -113q-42 -76 -87 -144.5t-93 -129.5q77 -88 143 -128v1q33 -18 65.5 -27.5t66.5 -9.5q66 0 111 34t64 102l36 -27 q-37 -140 -114.5 -207t-178.5 -67q-75 0 -155 44t-173 141q-60 -52 -113 -88.5t-97 -56.5q-48 -20 -97.5 -30t-100.5 -10q-151 0 -245 85q-91 82 -91 204zM275 346q0 -93 65 -169q61 -72 174 -72q62 0 113 22q58 25 142 93q-59 82 -99.5 141.5t-63.5 97.5q-23 36 -49 84.5 t-56 108.5v-4q-226 -131 -226 -302zM553 1073q0 -22 4.5 -47t11.5 -54q8 -26 24 -68.5t39 -96.5v5q231 110 231 272q0 60 -42 104q-39 41 -103 41q-87 0 -123 -52q-42 -56 -42 -104z" />
<glyph unicode="'" horiz-adv-x="268" d="M82 1174l112 66q-4 -59 -9 -124.5t-10 -127t-10 -114t-10 -84.5h-52q-5 100 -10 192.5t-11 191.5z" />
<glyph unicode="(" horiz-adv-x="445" d="M70 508q0 94 13 193t41.5 203t75 214t113.5 226q24 0 34.5 -13t12 -30.5t-4 -35t-11.5 -25.5q-74 -160 -104.5 -313t-30.5 -292q0 -123 19.5 -238t47 -213t58.5 -175t55 -125l-105 -173q-43 91 -82 185.5t-68 193.5t-46.5 203.5t-17.5 214.5z" />
<glyph unicode=")" horiz-adv-x="445" d="M69 1172l105 173q43 -91 82 -185.5t68 -193.5t46.5 -203.5t17.5 -214.5q0 -95 -13 -193.5t-41.5 -202.5t-75 -214t-113.5 -226q-24 0 -34.5 13t-12 30.5t4 35t11.5 25.5q74 160 104.5 312.5t30.5 292.5q0 123 -19.5 238t-47 213t-58.5 175t-55 125z" />
<glyph unicode="*" horiz-adv-x="815" d="M71 1074v68l214 18l-139 162l47 49l164 -139l17 213h68l17 -213l163 139l49 -49l-140 -162l214 -18v-68l-214 -17l140 -163l-49 -48l-163 139l-17 -214h-68l-17 214l-164 -139l-47 48l139 163z" />
<glyph unicode="+" horiz-adv-x="853" d="M62 389q7 36 11.5 63.5t10.5 60.5h284v283q34 6 64 12.5t60 12.5v-308h306q-7 -36 -11.5 -63.5t-10.5 -60.5h-284v-284q-35 -7 -63.5 -11.5t-60.5 -11.5v307h-306z" />
<glyph unicode="," horiz-adv-x="486" d="M106 86q0 54 36 86q36 36 85 36q29 0 57 -15t53 -43q49 -55 49 -149q0 -50 -16.5 -97.5t-51 -88.5t-87 -75t-125.5 -58v60q98 32 150 96q53 67 53 134q0 13 -9 25v-1q-5 5 -13 5q-6 0 -17 -5t-28 -13q-17 -10 -35 -10q-46 0 -73.5 30t-27.5 83z" />
<glyph unicode="-" horiz-adv-x="692" d="M96 389q6 36 11 63.5l11 60.5h499l-24 -124h-497z" />
<glyph unicode="." horiz-adv-x="448" d="M92 268l129 129q35 -36 64.5 -66t64.5 -63l-129 -129q-36 35 -65 64t-64 65z" />
<glyph unicode="/" horiz-adv-x="575" d="M50 -134q48 184 93 360.5t90 351t90 350.5t93 361l111 75q-48 -185 -93.5 -361t-90.5 -351t-90.5 -351.5t-93.5 -360.5q-29 -19 -55.5 -37t-53.5 -37z" />
<glyph unicode="0" d="M77 637q0 223 65 378q34 81 78 140.5t96 97.5q42 29 86.5 46t87.5 17q71 0 137 -39t125 -114q71 -93 108 -219.5t37 -287.5q0 -225 -64 -378q-66 -162 -162 -230q-51 -35 -98 -53t-92 -18q-88 0 -164.5 57.5t-137.5 163.5q-49 89 -75.5 200.5t-26.5 238.5zM260 614 q0 -130 16 -235.5t49 -188.5q51 -133 159 -133q54 0 104 43v-1q56 47 83 148q22 81 32 193t10 258q0 108 -10.5 197t-33.5 162q-33 101 -88 149v-1q-17 14 -40 21t-52 7q-66 0 -113 -53q-33 -38 -56.5 -98t-35.5 -141q-11 -85 -17.5 -166t-6.5 -161z" />
<glyph unicode="1" d="M226 1161l316 155h30v-1082q0 -103 7 -130v1q4 -10 14 -18.5t24 -16.5q14 -6 42.5 -10t71.5 -5v-55h-476v55q88 1 115 14q30 18 37 31q5 13 7.5 46t2.5 88v685q0 136 -9 174q-6 27 -23 39.5t-43 12.5q-38 0 -94 -28z" />
<glyph unicode="2" d="M48 0v52q168 154 284 275t181 215q135 192 135 344q0 114 -74 191q-71 74 -177 74q-47 0 -90 -13.5t-79 -40.5t-64 -67t-46 -93h-35q14 96 43.5 166.5t77.5 116.5q104 96 243 96q153 0 257 -103q104 -99 104 -241q0 -50 -12 -100t-33 -98q-35 -75 -92 -157.5t-132 -164.5 q-59 -64 -103 -112.5t-77 -83.5t-55 -58.5t-37 -36.5h312q98 0 141 8q45 8 74 29q17 14 32.5 30.5t27.5 36.5h36l-95 -265h-747z" />
<glyph unicode="3" d="M85 88q0 32 21.5 55t53.5 23q11 0 23 -2t24 -5q7 -2 24.5 -11.5t47.5 -23.5q26 -14 46 -22.5t31 -11.5q18 -5 36.5 -7.5t37.5 -2.5q99 0 167 71q70 73 70 167q0 35 -8 69.5t-24 70.5q-12 23 -25.5 42.5t-28.5 33.5q-18 17 -45 33.5t-65 31.5q-71 31 -143 31h-31v48 q41 5 77.5 18.5t71.5 33.5q79 46 108 102q34 61 34 130q0 90 -61 149q-59 57 -150 57q-148 0 -244 -153l-33 15q57 137 141 211.5t206 74.5q73 0 132.5 -27t101.5 -77q29 -35 45.5 -77t16.5 -87q0 -69 -40.5 -140.5t-120.5 -141.5q112 -48 168 -133.5t56 -202.5 q0 -85 -27 -158t-78 -133q-70 -77 -170 -119.5t-226 -42.5q-124 0 -175 34q-45 31 -45 77z" />
<glyph unicode="4" d="M37 335v135l591 846h101v-828h170v-153h-170v-335h-155v335h-537zM140 488h434v614q-106 -151 -216.5 -306t-217.5 -308z" />
<glyph unicode="5" d="M99 112q0 31 21.5 54t54.5 23q21 0 42 -9q8 -3 24 -13.5t38 -24.5q33 -24 69.5 -36t73.5 -12q110 0 192 80q82 82 82 195q0 54 -17.5 105.5t-55.5 102.5q-34 45 -87.5 84.5t-116.5 66.5q-51 20 -122 32t-164 15l254 514h459l-83 -179h-379v5q-20 -42 -38 -77.5t-38 -77.5 q240 -38 385 -187q125 -126 125 -307q0 -51 -11 -99t-30.5 -91t-45.5 -80.5t-56 -67.5q-32 -30 -67 -55.5t-70 -42.5q-109 -53 -221 -53q-111 0 -167 41q-51 39 -51 94z" />
<glyph unicode="6" d="M89 508q0 175 68 330t195 273q134 123 244 162q121 43 216 43h54v-55q-63 -7 -113.5 -19t-88.5 -31q-40 -18 -78 -46t-76 -64q-75 -74 -124 -163t-82 -208q68 45 134.5 68.5t132.5 23.5q128 0 225 -110q96 -104 96 -275q0 -79 -26.5 -156t-70.5 -140 q-60 -81 -136.5 -122.5t-170.5 -41.5q-63 0 -118 23t-102 66q-86 84 -132.5 196t-46.5 246zM268 447q0 -44 7.5 -92t24.5 -101q33 -98 99 -162q23 -20 51.5 -31t65.5 -11q84 0 144 74q65 75 65 212q0 156 -64 272q-60 111 -180 111q-18 0 -37.5 -3.5t-39.5 -9.5 q-43 -17 -120 -64v8q-8 -64 -12 -114.5t-4 -88.5z" />
<glyph unicode="7" d="M74 971l128 318h678v-48l-426 -1268h-106l379 1143h-344q-109 0 -151 -24q-82 -46 -128 -132z" />
<glyph unicode="8" d="M124 299q0 91 56 172q29 42 75 87t110 92q-70 59 -116 106.5t-69 85.5q-22 38 -32 78t-10 83q0 63 25 119.5t70 100.5q49 45 112.5 69t140.5 24q149 0 247 -87q94 -82 94 -197q0 -77 -51 -150q-26 -38 -76 -81t-121 -89q73 -58 125 -106.5t80 -86.5v1q71 -97 71 -208 q0 -142 -102 -237q-106 -98 -268 -98q-178 0 -281 117q-80 90 -80 205zM267 304q0 -56 16.5 -104t48.5 -83q31 -33 73 -51t96 -18q105 0 161 55q61 58 61 131q0 31 -9 60t-26 55q-32 46 -99 110.5t-170 145.5v1q-78 -65 -115 -140t-37 -162zM273 1067q0 -44 26 -91.5 t70 -91.5l153 -127q113 104 142 156q14 30 22 62t8 66q0 94 -54.5 147t-151.5 53t-155 -53q-60 -56 -60 -121z" />
<glyph unicode="9" d="M83 850q0 84 25.5 161.5t70.5 140.5q59 81 134 122.5t166 41.5q76 0 143.5 -33.5t124.5 -99.5q68 -81 102.5 -181t34.5 -221q0 -109 -26.5 -208t-78.5 -191q-54 -94 -126.5 -170.5t-162.5 -136.5q-76 -48 -159.5 -75t-169.5 -27h-53v56q126 2 226 56q109 54 203 188 q95 131 134 284q-148 -94 -263 -94q-65 0 -122.5 26t-106.5 80q-96 103 -96 281zM250 947q0 -193 82 -302q59 -77 151 -77q44 0 101 20q32 11 58 25t47 31v-6q8 61 12 109t4 84q0 90 -31 192q-14 50 -35.5 89.5t-52.5 68.5q-53 53 -128 53q-85 0 -145 -71q-32 -38 -47.5 -92 t-15.5 -124z" />
<glyph unicode=":" horiz-adv-x="448" d="M92 333l129 129q35 -36 64.5 -66t64.5 -63l-129 -129q-36 35 -65 64t-64 65zM92 664l129 129q35 -36 64.5 -66t64.5 -63l-129 -129q-36 35 -65 64t-64 65z" />
<glyph unicode=";" horiz-adv-x="514" d="M132 90q0 58 33 88q18 16 39 26t40 10q26 0 52.5 -15t52.5 -43q21 -25 32.5 -61.5t11.5 -84.5q0 -49 -15.5 -94.5t-47.5 -85.5t-81 -72.5t-117 -54.5v74q48 16 82.5 38t57.5 49q49 64 49 120q0 3 -2 6.5t-6 9.5q-1 0 -3.5 0.5t-9.5 0.5q-5 0 -15.5 -4.5t-25.5 -11.5 q-19 -11 -33 -11q-42 0 -68 31t-26 85zM158 750q0 24 7.5 45t20.5 36.5t31 24.5t38 9t37.5 -9t30.5 -24.5t20.5 -36.5t7.5 -45t-7.5 -45t-20.5 -37t-30.5 -25t-37.5 -9t-38 9t-31 25t-20.5 37t-7.5 45z" />
<glyph unicode="&#x3c;" horiz-adv-x="1097" d="M43 616v64l1007 436v-99l-845 -367q211 -94 422 -186t423 -186v-102z" />
<glyph unicode="=" horiz-adv-x="692" d="M96 389q6 36 11 63.5l11 60.5h499l-24 -124h-497zM96 604q6 36 11 63.5l11 60.5h499l-24 -124h-497z" />
<glyph unicode="&#x3e;" horiz-adv-x="1097" d="M43 176v99l845 367q-212 94 -422 185.5t-423 185.5v103l1007 -440v-64z" />
<glyph unicode="?" horiz-adv-x="864" d="M93 1039q0 114 90 195q97 85 246 85q93 0 165 -30.5t119 -85.5q67 -84 67 -189q0 -37 -8 -73.5t-22 -71.5q-17 -37 -46 -82t-69 -90q-69 -75 -110.5 -130t-57.5 -86q-15 -32 -24 -78t-13 -104h-38q4 66 11 117.5t19 90.5q13 41 36.5 95.5t59.5 121.5q26 48 45 91t28 69 q7 28 11.5 56.5t4.5 56.5q0 112 -64 182q-59 66 -154 66q-84 0 -128 -37q-46 -36 -46 -74q0 -16 6.5 -35.5t20.5 -44.5q29 -52 29 -82q0 -38 -21.5 -63.5t-52.5 -25.5q-37 0 -73 41q-31 40 -31 115zM314 89q0 51 30 81q34 34 74 34q22 0 41 -9t33.5 -24.5t22.5 -36.5t8 -45 q0 -23 -8.5 -44t-22.5 -37t-33.5 -25t-40.5 -9t-40 9t-33.5 25t-22.5 37t-8 44z" />
<glyph unicode="@" horiz-adv-x="1792" d="M105 426q0 125 29 242t86 223q60 108 142.5 194t182.5 144q104 59 217 90.5t228 31.5q192 0 349 -82q74 -38 134.5 -99t102.5 -139q38 -75 60 -160.5t22 -170.5q0 -176 -77 -345q-78 -171 -194 -248q-120 -78 -246 -78q-71 0 -107 36t-36 102q0 51 15 128 q-140 -168 -220 -215q-87 -51 -147 -51q-31 0 -60.5 15t-57.5 47q-51 60 -51 165q0 142 88 309q91 174 235 278q110 79 193 79q62 0 103 -34t57 -103v1q8 26 17 55.5t17 55.5l148 21l-113 -388q-12 -42 -24.5 -84t-22.5 -78t-17 -63t-10 -39q-13 -55 -13 -88q0 -26 20 -43.5 t50 -17.5q69 0 164 66q100 71 164 219q69 153 69 314q0 79 -20 151t-58 141q-37 64 -91 115t-127 87q-70 37 -147 54.5t-163 17.5q-222 0 -402 -113q-188 -115 -294 -325q-107 -213 -107 -442q0 -212 94 -387q93 -170 268 -261q171 -90 370 -90q251 0 445 130 q201 133 311 387h56q-92 -276 -311 -434q-225 -160 -505 -160q-221 0 -414 106q-92 52 -167 128t-130 175q-51 97 -78 205t-27 225zM625 284q0 -26 8.5 -48.5t23.5 -40.5q15 -15 34.5 -24.5t40.5 -9.5q112 0 240 165q67 86 96 169q52 151 52 238q0 28 -9 51.5t-25 39.5 t-37.5 25t-45.5 9q-75 0 -142 -71q-54 -56 -99.5 -127.5t-81.5 -161.5q-55 -134 -55 -214z" />
<glyph unicode="A" horiz-adv-x="1405" d="M26 0v55q42 8 66.5 16t35.5 18q51 47 107 179l448 1051h28l444 -1063q24 -57 49.5 -99.5t46.5 -62.5q42 -34 122 -39v-55h-501v55q38 2 63 7.5t39.5 14.5t20.5 20.5t6 25.5q0 18 -9 49.5t-28 76.5l-77 182v-6h-491v6q-21 -50 -43 -100t-43 -100q-32 -76 -32 -107 q0 -21 27 -43v1q25 -20 120 -27v-55h-399zM430 515h425q-51 123 -104.5 248.5t-104.5 250.5q-53 -124 -107.5 -250t-108.5 -249z" />
<glyph unicode="B" horiz-adv-x="1298" d="M41 0v55h47q42 0 70 12t45 34q9 17 15 52t6 82v819q0 54 -7 90t-19 53q-17 17 -45 27t-65 10h-47v55h548q74 0 137 -6t109 -16q30 -9 60.5 -21.5t59 -28.5t53 -34.5t42.5 -38.5q74 -88 74 -203q0 -94 -50 -167.5t-147 -113.5q53 -14 93.5 -35t71.5 -49q91 -86 91 -219 q0 -100 -60 -187q-66 -92 -165 -130q-105 -40 -318 -40h-599zM404 112q53 -12 108 -18.5t106 -6.5q85 0 151 19t108 54q43 39 65.5 84.5t22.5 96.5q0 69 -40 137q-19 33 -51 58.5t-80 45.5q-91 38 -224 38q-58 0 -99 -1.5t-67 -6.5v-500zM404 718q35 -5 79.5 -8.5t96.5 -3.5 q70 0 121 6.5t85 20.5q73 32 105 88q37 59 37 127q0 104 -91 182q-86 76 -264 76q-43 0 -88.5 -6t-80.5 -14v-468z" />
<glyph unicode="C" horiz-adv-x="1298" d="M79 625q0 96 21.5 185.5t63.5 168.5q43 78 104 142.5t130 106.5q76 44 158.5 67.5t168.5 23.5q136 0 271 -69q38 -20 57 -20q28 0 43 15q13 14 22 32t14 42h31l30 -453h-27q-29 97 -71 166t-96 113t-119 64.5t-140 20.5q-127 0 -229 -64.5t-160 -197.5 q-29 -69 -43.5 -157t-14.5 -188q0 -168 55 -292t165 -191q54 -34 117.5 -50t136.5 -16q62 0 117 13.5t101 37.5q49 29 102 81.5t107 127.5l33 -21q-50 -89 -106.5 -153.5t-122 -106.5t-140.5 -62t-162 -20q-155 0 -277.5 60t-210.5 178q-63 87 -96 191t-33 225z" />
<glyph unicode="D" horiz-adv-x="1405" d="M43 0v55h48q85 0 114 47q20 30 20 133v819q0 57 -6 92.5t-20 50.5q-34 37 -108 37h-48v55h517q138 0 247.5 -16.5t184.5 -48.5q71 -32 131 -86.5t107 -132.5q91 -151 91 -354q0 -272 -161 -449q-186 -202 -550 -202h-567zM405 112q58 -13 109 -19.5t90 -6.5 q220 0 360 150q144 153 144 406q0 255 -144 407q-140 149 -367 149q-42 0 -90.5 -7.5t-101.5 -20.5v-1058z" />
<glyph unicode="E" horiz-adv-x="1188" d="M48 0v55h45q23 0 44.5 6t41.5 15q15 8 25.5 17.5t14.5 20.5q11 31 11 120v824q0 55 -7 91.5t-18 51.5q-30 33 -112 33h-45v55h977l16 -298h-36q-20 101 -45 142q-23 32 -71 54q-18 6 -51 9.5t-81 3.5h-348v-482h279q56 0 92 8.5t53 22.5q25 22 38.5 61t16.5 93h34v-462 h-34q-6 48 -13 79t-13 45q-17 28 -56.5 46.5t-117.5 18.5h-279v-409q0 -79 8 -98q5 -13 26 -25v1q16 -9 71 -9h216q56 0 94 3t61 11q27 8 50 22.5t44 34.5q60 60 122 178h39l-116 -339h-976z" />
<glyph unicode="F" horiz-adv-x="1082" d="M39 0v55h45q82 0 114 42q22 29 22 138v819q0 46 -2.5 77t-9.5 47q-8 17 -38 34q-20 10 -41.5 16t-44.5 6h-45v55h943l13 -299h-31q-12 43 -26.5 75t-32 54.5t-37.5 37.5t-42 25q-23 8 -59.5 13t-87.5 5h-279v-479h231q84 0 116 32q20 18 32 54t18 89h34v-450h-35 q0 37 -5 63.5t-14 45t-21.5 31t-28.5 20.5q-32 17 -96 17h-231v-388q0 -93 12 -124q10 -18 39 -34q20 -10 42 -16t45 -6h45v-55h-544z" />
<glyph unicode="G" horiz-adv-x="1405" d="M78 625q0 171 81 326q49 94 114.5 164.5t147.5 119.5q72 42 154 63t175 21q69 0 126 -12q26 -5 66.5 -18t93.5 -32q48 -19 71 -19q17 0 30 16.5t16 64.5h34l34 -422h-32q-24 76 -56.5 132.5t-73.5 96.5q-110 106 -291 106q-121 0 -214 -48.5t-155 -138.5 q-51 -80 -78 -176t-27 -204q0 -179 70 -326q67 -146 183 -216q112 -68 234 -68q71 0 136.5 18.5t125.5 50.5v358q0 90 -15 119q-12 25 -45 41q-30 14 -106 14v56h491v-56h-24q-77 0 -100 -42q-9 -18 -14 -50.5t-5 -81.5v-397q-57 -30 -109 -52t-103 -35q-107 -27 -233 -27 q-365 0 -559 240q-143 178 -143 414z" />
<glyph unicode="H" horiz-adv-x="1405" d="M44 0v55h44q81 0 114 42q23 29 23 138v819q0 92 -12 124q-8 18 -39 34q-19 10 -41.5 16t-44.5 6h-44v55h543v-55h-46q-23 0 -44 -5.5t-41 -15.5q-32 -15 -40 -40q-11 -31 -11 -119v-353h589v353q0 45 -3 76.5t-10 47.5q-3 8 -13.5 17t-25.5 17q-19 10 -41 16t-44 6h-45 v55h543v-55h-45q-23 0 -44 -5.5t-41 -15.5q-33 -16 -41 -40v1q-11 -31 -11 -120v-819q0 -94 13 -124q6 -17 39 -34q18 -10 41 -16t44 -6h45v-55h-543v55h45q81 0 114 42q23 31 23 138v376h-589v-376q0 -93 12 -124q8 -17 39 -34q20 -10 41.5 -16t43.5 -6h46v-55h-543z" />
<glyph unicode="I" horiz-adv-x="648" d="M52 0v55h46q81 0 114 42q22 29 22 138v819q0 46 -2.5 77t-9.5 47q-6 17 -39 34q-18 10 -41 16t-44 6h-46v55h545v-55h-47q-80 0 -113 -42q-23 -29 -23 -138v-819q0 -46 2.5 -77t9.5 -47q4 -8 14.5 -17t25.5 -17q18 -10 40.5 -16t43.5 -6h47v-55h-545z" />
<glyph unicode="J" horiz-adv-x="757" d="M46 124q0 55 22 77q37 32 73 32q25 0 53 -22q22 -19 61 -109q18 -44 55 -44q13 0 25 6.5t22 22t16 40.5t6 61v866q0 92 -12 124q-10 18 -39 34q-20 10 -41.5 16t-44.5 6h-45v55h543v-55h-46q-80 0 -113 -42q-22 -29 -22 -138v-620q0 -73 -8.5 -132t-23.5 -103 q-17 -45 -44 -86.5t-63 -73.5q-80 -68 -185 -68q-86 0 -139 46q-50 43 -50 107z" />
<glyph unicode="K" horiz-adv-x="1405" d="M43 0v55h44q82 0 114 42q23 29 23 138v819q0 92 -12 125q-7 17 -38 33q-20 10 -42 16t-45 6h-44v55h540v-55h-42q-23 0 -44.5 -5.5t-41.5 -15.5q-30 -14 -40 -39q-11 -31 -11 -120v-380q8 8 28.5 26.5t47.5 43.5q11 11 24 22.5t28 25.5q131 121 219 209t117 129 q11 17 18 33t7 27q0 17 -19 30.5t-67 13.5h-29v55h466v-55q-40 -1 -75 -11q-40 -12 -82 -38q-26 -16 -55.5 -39t-64.5 -55q-8 -7 -36 -35.5t-79 -79.5q-17 -17 -35.5 -36.5t-39.5 -40.5l-186 -186l461 -457q55 -55 104 -94t92 -61q40 -19 81 -31t82 -15v-55h-604v55 q55 0 78.5 15.5t23.5 33.5q0 16 -9 36q-1 2 -7 8.5t-14 15.5t-18 19t-19 20q-52 51 -107.5 106t-112 110.5t-111.5 110.5t-107 106v-401q0 -93 12 -124q9 -17 39 -34q20 -10 41.5 -16t44.5 -6h42v-55h-540z" />
<glyph unicode="L" horiz-adv-x="1188" d="M47 0v55h48q41 0 70.5 12.5t44.5 35.5q9 16 14.5 49t5.5 84v818q0 113 -27 143q-34 37 -108 37h-48v55h575v-55h-18q-89 0 -124 -18q-23 -10 -36 -21.5t-19 -23.5q-16 -29 -16 -138v-797q0 -73 16 -102q6 -13 34 -25q24 -8 146 -8h92q149 0 206 21q63 23 107 73 q27 29 51.5 73t49.5 102l31 -6l-114 -364h-981z" />
<glyph unicode="M" horiz-adv-x="1730" d="M45 0v55h44q86 0 115 44q20 29 20 131v829q0 39 -5 68t-13 49q-12 24 -47.5 41t-113.5 17v55h356l464 -998q54 119 111.5 245t116 253.5t116 254t111.5 245.5h357v-55h-44q-87 0 -116 -44q-20 -31 -20 -131v-829q0 -110 26 -139q33 -36 110 -36h44v-55h-539v55h45 q85 0 114 44q21 30 21 131v843q-122 -265 -246.5 -536.5t-245.5 -536.5h-26l-493 1073v-843q0 -106 25 -139q16 -16 44.5 -26t65.5 -10h44v-55h-441z" />
<glyph unicode="N" horiz-adv-x="1405" d="M-15 1234v55h342l778 -955v725q0 110 -27 140q-32 35 -109 35h-44v55h442v-55h-45q-86 0 -115 -44q-20 -31 -20 -131v-1080h-31l-839 1026v-775q0 -53 7 -88t18 -51q17 -16 45 -26t65 -10h45v-55h-442v55h44q87 0 115 44q21 30 21 131v876q-25 29 -46.5 50t-38.5 33 q-13 11 -33.5 19.5t-49.5 17.5q-24 8 -82 8z" />
<glyph unicode="O" horiz-adv-x="1405" d="M78 650q0 152 52.5 278t153.5 221q90 81 198.5 125.5t229.5 44.5q244 0 427 -191q181 -187 181 -476q0 -297 -182 -488q-184 -193 -442 -193q-261 0 -440 189q-178 185 -178 490zM293 653q0 -149 34.5 -268.5t97.5 -203.5q50 -60 117.5 -91.5t151.5 -31.5q182 0 295 136 q117 138 117 433q0 158 -32.5 278t-95.5 201q-50 61 -122 92t-163 31q-86 0 -154.5 -30.5t-117.5 -91.5q-128 -156 -128 -454z" />
<glyph unicode="P" horiz-adv-x="1082" d="M40 0v55h47q42 0 71 12.5t44 35.5q19 33 19 132v819q0 114 -25 143q-34 37 -109 37h-47v55h464q168 0 269 -36q96 -34 166 -121q67 -82 67 -204q0 -164 -103 -260q-104 -100 -288 -100q-45 0 -99.5 7t-114.5 19v-359q0 -115 27 -142q14 -19 41.5 -28.5t65.5 -9.5h48v-55 h-543zM401 668q49 -10 87.5 -14t65.5 -4q99 0 168 71q71 77 71 188q0 79 -34 146.5t-95 102.5q-62 35 -141 35q-23 0 -55 -5t-67 -13v-507z" />
<glyph unicode="Q" horiz-adv-x="1405" d="M78 648q0 290 184 480q188 191 447 191q247 0 430 -192q182 -188 182 -483q0 -241 -130 -416q-65 -87 -147.5 -148t-181.5 -91q45 -75 94 -132t104 -95q108 -75 253 -87v-50q-63 2 -132 16t-144 37q-72 23 -142.5 56.5t-136.5 75.5q-63 40 -120 85.5t-106 93.5v-2 q-66 27 -119.5 55.5t-94.5 60.5q-114 90 -177 225t-63 320zM293 648q0 -148 34.5 -266.5t97.5 -201.5q50 -61 118.5 -93t153.5 -32q88 0 160 32.5t123 92.5q63 75 95 186t32 254q0 224 -69 379q-52 117 -140.5 171.5t-200.5 54.5q-176 0 -274 -117q-130 -152 -130 -460z" />
<glyph unicode="R" horiz-adv-x="1298" d="M43 0v55h47q42 0 71 12.5t45 35.5q19 33 19 132v819q0 114 -26 143q-34 37 -109 37h-47v55h462q100 0 175 -7.5t123 -21.5q45 -14 86.5 -42.5t75.5 -70.5q68 -80 68 -194q0 -121 -73.5 -208t-228.5 -125q63 -88 125.5 -175t125.5 -175q85 -121 155 -165q61 -38 168 -50 v-55h-335l-433 598v-5q-5 0 -9.5 -0.5t-8.5 -0.5q-15 -1 -32 -1h-28t-25.5 0.5t-29.5 1.5v-358q0 -115 26 -142q32 -38 107 -38h49v-55h-543zM404 673q8 0 19 -0.5t17 -0.5h17q185 0 273 76q93 79 93 193q0 57 -19 102t-56 83q-36 35 -85 53.5t-112 18.5q-26 0 -65 -5 t-82 -13v-507z" />
<glyph unicode="S" horiz-adv-x="1082" d="M128 974q0 142 105 242q54 49 121.5 76t145.5 27q50 0 103 -13t110 -38q26 -11 44.5 -17t30.5 -6q25 0 41 15t25 59h33v-460h-34q-17 124 -62 200t-123 121q-38 20 -81 31.5t-85 11.5q-102 0 -162 -57q-64 -59 -64 -128q0 -51 41 -98q26 -33 95.5 -79t180.5 -106 q82 -45 144.5 -83t97.5 -65q62 -49 101 -123q35 -70 35 -150q0 -151 -112 -256q-115 -107 -287 -107q-27 0 -53.5 1.5t-51.5 6.5q-12 2 -42.5 10.5t-77.5 24.5q-45 14 -73 21.5t-42 7.5q-24 0 -38 -14t-20 -58h-33v456h32q11 -68 29 -121t38 -89q20 -29 52 -57.5t74 -51.5 q42 -20 88.5 -31.5t97.5 -11.5q119 0 184 59q69 60 69 138q0 43 -26 88t-80 87q-32 23 -199 118q-76 42 -136 80t-96 67q-63 53 -101.5 123t-38.5 149z" />
<glyph unicode="T" horiz-adv-x="1188" d="M66 971l16 318h1036l14 -318h-35q-5 42 -12.5 71.5t-16.5 46.5q-27 51 -75 75.5t-128 24.5h-179v-959q0 -53 6 -88t19 -51q16 -16 44 -26t65 -10h45v-55h-539v55h45q86 0 114 44q21 28 21 131v959h-153q-90 0 -126 -12q-46 -20 -82.5 -71t-42.5 -135h-36z" />
<glyph unicode="U" horiz-adv-x="1405" d="M21 1234v55h548v-55h-48q-84 0 -112 -45q-24 -31 -24 -135v-552q0 -37 3 -79t10 -90v1q7 -44 19.5 -81.5t29.5 -63.5q35 -49 103 -83.5t164 -34.5q125 0 223 53q101 56 134 133q36 85 36 284v513q0 114 -26 143q-35 37 -108 37h-49v55h450v-55h-48q-78 0 -115 -58 q-20 -31 -20 -129v-515q0 -194 -38 -300q-41 -111 -149 -185q-115 -77 -301 -77q-203 0 -315 74q-105 70 -153 198q-14 42 -22 120.5t-8 196.5v495q0 110 -33 148q-29 32 -104 32h-47z" />
<glyph unicode="V" horiz-adv-x="1405" d="M28 1234v55h517v-55q-91 -9 -114 -28q-25 -21 -25 -47q0 -43 42 -142l323 -743q74 182 150 367t150 367q20 52 31.5 90t11.5 56q0 24 -25 45t-88 31q-3 2 -22 4v55h392v-55q-71 -14 -102 -40q-26 -24 -48.5 -59t-39.5 -78l-446 -1086h-28l-478 1101q-35 79 -52 99 q-21 26 -55 41.5t-94 21.5z" />
<glyph unicode="W" horiz-adv-x="1836" d="M39 1234v55h470v-55h-23q-50 0 -75.5 -19t-25.5 -47q0 -14 12 -55t29 -92q62 -177 124.5 -356.5t124.5 -355.5q53 149 105.5 300.5t104.5 300.5l-18 52t-19 52l-29 85v-1q-9 21 -21 41.5t-24 39.5q-9 14 -29 27q-11 7 -22 12.5t-25 9.5q-18 6 -56 6v55h494v-55h-34 q-53 0 -77 -19.5t-24 -53.5q0 -22 11 -62.5t31 -100.5l243 -689q60 174 121 349.5t121 349.5q41 117 41 157q0 17 -14 32.5t-34 24.5q-16 5 -39.5 8.5t-52.5 3.5v55h379v-55q-52 0 -83 -17t-57 -63v1q-10 -17 -24.5 -55t-34.5 -100l-355 -1029h-33l-292 817 q-71 -198 -145.5 -408t-143.5 -409h-29l-380 1060q-20 57 -33.5 91.5t-19.5 46.5q-18 33 -50 49t-89 16z" />
<glyph unicode="X" horiz-adv-x="1405" d="M25 0v55q25 2 45 7t37 12q30 13 57.5 29t53.5 36q27 21 57 52t62 72l295 373q-63 90 -123 179t-122 180q-99 140 -173 192q-70 44 -165 47v55h587v-55q-37 -2 -62 -7.5t-40 -14t-21.5 -19t-6.5 -21.5q0 -15 11.5 -38.5t33.5 -56.5l195 -291v1q57 72 113 143t113 143 q20 25 32.5 42t14.5 25q10 16 10 33q0 13 -12 30q-12 15 -36 22q-18 7 -88 9v55h450v-55q-29 -2 -50 -6t-37 -10q-27 -11 -50.5 -25t-42.5 -31q-21 -18 -52.5 -54.5t-66.5 -79.5l-247 -316q67 -100 134.5 -199.5t133.5 -199.5q53 -78 95.5 -131.5t71.5 -79.5 q26 -18 62 -31.5t78 -15.5v-55h-545v55q56 1 81 11q19 8 32 23t13 28q0 8 -2.5 19t-6.5 20q-4 8 -16.5 29t-34.5 52l-216 325v-1q-66 -85 -132.5 -170t-132.5 -171q-42 -55 -51 -70q-8 -19 -8 -33q0 -25 25.5 -42t96.5 -20v-55h-450z" />
<glyph unicode="Y" horiz-adv-x="1405" d="M29 1234v55h542v-55h-29q-45 0 -80 -20q-37 -19 -37 -52q0 -28 57 -116l265 -409q60 97 124 196t125 195q28 44 41.5 75t14.5 49q-2 18 -8.5 33t-20.5 26t-38.5 17t-61.5 6v55h443v-55h-24q-14 0 -31.5 -5.5t-39.5 -15.5q-52 -21 -85 -59q-20 -20 -44 -52.5t-50 -77.5 l-306 -482v-312q0 -55 5.5 -90t19.5 -49q33 -36 112 -36h42v-55h-539v55h45q85 0 114 44q20 29 20 131v295q-85 130 -174 265.5t-174 265.5q-28 44 -49 72.5t-35 42.5q-19 22 -90 54q-18 9 -54 9z" />
<glyph unicode="Z" horiz-adv-x="1188" d="M33 0v50l803 1143h-395q-104 0 -147 -22q-49 -23 -69 -60q-13 -21 -24 -61.5t-21 -97.5h-35l29 337h948l-833 -1192h508q123 0 184 50q66 52 116 215l31 -6l-64 -356h-1031z" />
<glyph unicode="[" horiz-adv-x="648" d="M162 -380v1699h413v-95h-272v-1510h272v-94h-413z" />
<glyph unicode="\" horiz-adv-x="541" d="M2 1351h78l465 -1378h-78z" />
<glyph unicode="]" horiz-adv-x="648" d="M74 -286h272v1510h-272v95h412v-1700h-412v95z" />
<glyph unicode="_" d="M-9 -314h991v-99h-991v99z" />
<glyph unicode="`" horiz-adv-x="648" d="M101 1321h220l105 -343h-34z" />
<glyph unicode="a" horiz-adv-x="864" d="M75 214q0 32 7.5 61.5t21.5 52.5q20 32 54 63t79 59q48 29 129.5 64.5t186.5 73.5v24q0 122 -42 169q-39 45 -118 45q-62 0 -93 -30q-36 -33 -36 -65l2 -55q0 -48 -21.5 -73.5t-58.5 -25.5q-34 0 -56 26.5t-22 73.5q0 88 82 157q85 69 232 69q112 0 187 -39 q25 -14 45.5 -38t35.5 -58q8 -21 12.5 -62.5t4.5 -107.5v-290q0 -59 1.5 -96t3.5 -53q1 -9 5 -17t10 -14q7 -6 24 -6q19 0 27 4q11 8 30.5 25t45.5 43v-67q-108 -144 -200 -144q-45 0 -72 32.5t-29 109.5q-134 -104 -166 -118q-51 -25 -108 -25q-85 0 -147 64 q-57 60 -57 168zM233 257q0 -62 40 -105v1q37 -42 93 -42q36 0 84 23.5t103 68.5v309q-70 -28 -116.5 -48t-66.5 -32q-74 -42 -105.5 -84t-31.5 -91z" />
<glyph unicode="b" d="M-2 1244l263 107h40v-626q62 81 131.5 129.5t137.5 48.5q129 0 230 -117q99 -113 99 -315q0 -235 -152 -375q-135 -123 -290 -123q-75 0 -151.5 28t-158.5 84v895q0 73 -2 117t-5 61q-6 25 -22 40q-7 6 -15.5 7.5t-21.5 1.5q-15 0 -30.5 -2t-33.5 -10zM301 155 q46 -45 97.5 -68.5t105.5 -23.5q88 0 159 90q73 94 73 265q0 158 -73 246q-72 86 -167 86q-51 0 -99 -25q-20 -10 -45 -29.5t-51 -43.5v-497z" />
<glyph unicode="c" horiz-adv-x="864" d="M72 438q0 210 120 335q124 130 289 130q123 0 208 -70v1q81 -68 81 -147q0 -41 -22.5 -65.5t-64.5 -24.5q-25 0 -46.5 9.5t-37.5 29.5q-14 21 -20 80q-2 25 -12 44t-26 34q-29 26 -91 26q-47 0 -85 -17.5t-66 -48.5q-35 -45 -55.5 -105.5t-20.5 -129.5q0 -75 19 -140.5 t56 -125.5q73 -112 205 -112q95 0 164 59q27 23 52 61.5t50 95.5l27 -13q-37 -187 -138 -277q-105 -94 -223 -94q-142 0 -255 127q-108 121 -108 338z" />
<glyph unicode="d" d="M71 403q0 190 116 344q120 156 299 156q54 0 101.5 -19.5t86.5 -54.5v150q0 74 -2 118t-6 61q-6 25 -22 40q-6 6 -15.5 7.5t-21.5 1.5q-14 0 -29.5 -2t-33.5 -10l-18 49l262 107h39v-1001q0 -72 1.5 -118.5t5.5 -64.5q3 -11 9 -21t14 -18q13 -11 36 -11q26 0 66 14 l15 -49l-260 -109h-40v126q-61 -60 -124.5 -93t-127.5 -33q-136 0 -245 121q-106 118 -106 309zM243 477q0 -90 21.5 -161t60.5 -122q39 -47 85.5 -72t97.5 -25q43 0 85 21.5t81 61.5v433q-6 59 -34.5 110t-75.5 76q-22 13 -44.5 20t-44.5 7q-87 0 -147 -71 q-43 -48 -64 -117.5t-21 -160.5z" />
<glyph unicode="e" horiz-adv-x="864" d="M78 428q0 226 112 348q59 65 129.5 96t153.5 31q142 0 238 -97q92 -95 92 -272h-592q1 -178 92 -282q90 -105 220 -105q85 0 148 45.5t105 156.5l29 -18q-22 -142 -116 -248q-98 -110 -237 -110q-149 0 -265 124q-109 121 -109 331zM212 609h395q-2 35 -7 60t-12 42 q-22 49 -68.5 77.5t-98.5 28.5q-79 0 -139 -58q-28 -28 -45.5 -67t-24.5 -83z" />
<glyph unicode="f" horiz-adv-x="648" d="M81 789v89h166v45q0 134 41 224.5t126 144.5q88 57 191 57q95 0 181 -66q54 -41 54 -102q0 -19 -6.5 -33.5t-18.5 -27.5q-26 -28 -52 -28q-20 0 -43.5 17t-60.5 70q-17 23 -32 39.5t-31 26.5q-24 17 -65 17q-43 0 -73.5 -22t-42.5 -66q-6 -24 -9.5 -85.5t-3.5 -159.5v-51 h220v-89h-220v-552q0 -115 26 -145q30 -38 93 -38h77v-54h-512v54h38q39 0 70 17t42 46q11 35 11 120v552h-166z" />
<glyph unicode="g" d="M65 -224q0 27 10 48q18 40 66 99q3 4 21.5 24.5t62.5 67.5q-44 26 -61 50.5t-17 56.5q0 38 26 82q13 22 40.5 51.5t69.5 64.5q-72 40 -110.5 108.5t-38.5 153.5q0 137 95 226q100 95 246 95q121 0 213 -62v2h181q39 0 47 -4v1q5 -3 9 -13v1q6 -8 6 -36t-7 -42 q-3 -6 -8 -8q-8 -4 -47 -4h-99q40 -65 40 -161q0 -127 -92 -213q-94 -88 -246 -88q-63 0 -129 18v3q-42 -35 -56 -59t-14 -40q0 -13 15 -25t60 -18q27 -3 131 -6q91 -2 155 -5t95 -8q42 -6 77.5 -24t60.5 -44.5t39 -61t14 -74.5q0 -53 -28 -108t-71 -99q-74 -64 -171.5 -101 t-209.5 -37q-178 0 -305 82q-70 48 -70 107zM199 -155q0 -17 14 -35t40 -34q45 -26 114 -41t156 -15q86 0 147.5 14t100.5 44q80 58 80 117q0 39 -47 60q-25 10 -73 15.5t-120 7.5q-106 3 -186.5 8.5t-137.5 13.5v4q-88 -95 -88 -159zM296 623q0 -69 17 -125t47 -97 q48 -59 124 -59q36 0 65.5 12.5t51.5 38.5t34 66t12 94q0 69 -17 126.5t-48 99.5q-46 58 -122 58q-74 0 -117 -51q-23 -27 -35 -68t-12 -95z" />
<glyph unicode="h" d="M16 1244l261 107h42v-631q53 57 95 96t70 53q30 17 61 25.5t60 8.5q72 0 124 -43t79 -131q10 -30 14 -85.5t4 -136.5v-303q0 -79 13 -108q4 -10 10.5 -17.5t19.5 -13t33 -8.5t51 -3v-54h-421v54h20q31 0 51 4t33 12.5t20 20.5t12 28v-1q3 15 3 86v303q0 137 -16 181 q-11 38 -45 61q-29 20 -77 20q-23 0 -48.5 -6.5t-46.5 -16.5q-27 -14 -57.5 -38.5t-61.5 -57.5v-446q0 -85 10 -105q2 -8 12 -15.5t24 -16.5q28 -13 92 -13v-54h-425v54q59 0 91 17q20 11 29 30q6 14 8.5 39.5t2.5 63.5v775q0 148 -7 179q-3 14 -8 23t-13 17q-6 6 -16 7.5 t-23 1.5q-11 0 -26.5 -2t-35.5 -10z" />
<glyph unicode="i" horiz-adv-x="541" d="M56 795l264 108h40v-699q0 -38 2.5 -64t7.5 -40v1q11 -20 36 -35q11 -5 32 -8.5t51 -3.5v-54h-416v54q68 0 85 11q21 13 33 36q6 14 9.5 39.5t3.5 63.5v330q0 69 -2 113.5t-6 64.5q-6 26 -19.5 36t-39.5 10q-29 0 -62 -12zM186 1246q0 22 7.5 41t20.5 33t30.5 22.5 t37.5 8.5q19 0 36.5 -8.5t30 -22.5t20 -33t7.5 -41t-7.5 -41t-20 -33.5t-30 -22.5t-36.5 -8q-20 0 -37 8t-30.5 22.5t-21 33.5t-7.5 41z" />
<glyph unicode="j" horiz-adv-x="541" d="M-145 -309q0 38 23 64t54 26q11 0 23 -2.5t26 -10.5q6 -3 21 -14.5t40 -33.5q43 -39 77 -39q22 0 43.5 16.5t32.5 51.5q5 21 7.5 64t2.5 109v610q0 71 -2 115.5t-6 64.5q-6 26 -20 36t-39 10q-31 0 -62 -12l-19 49l264 108h38v-873q0 -228 -93 -333q-98 -110 -244 -110 q-84 0 -126 32q-41 32 -41 72zM183 1245q0 22 7.5 41.5t20.5 34t30 23t37 8.5t38 -8.5t31 -23t20.5 -34t7.5 -41.5q0 -44 -28 -74.5t-69 -30.5q-20 0 -37 8t-30 22.5t-20.5 33.5t-7.5 41z" />
<glyph unicode="k" d="M18 1244l262 107h41v-856q52 48 108.5 99.5t109.5 99.5q72 65 80 79q8 10 8 16q0 15 -15.5 25.5t-51.5 12.5v51h373v-51q-38 0 -70.5 -6t-57.5 -16q-27 -12 -56 -31.5t-56 -43.5q-54 -51 -106.5 -99.5t-106.5 -98.5l213 -269q43 -54 74.5 -91t49.5 -54q21 -20 40 -34 t39 -21q21 -9 81 -9v-54h-417v54q36 1 48.5 8.5t12.5 20.5q0 15 -37 62l-263 336v-278q0 -78 11 -106v1q11 -21 34 -32q20 -11 94 -12v-54h-436v54q33 0 58 4t40 11q22 13 30 27q13 30 13 103v780q0 147 -6 179q-4 25 -21 40q-8 6 -17.5 8t-22.5 2q-11 0 -25 -2.5t-32 -10.5 z" />
<glyph unicode="l" horiz-adv-x="541" d="M56 1244l262 107h41v-1147q0 -75 11 -103v1q9 -20 37 -36q11 -5 33.5 -8.5t56.5 -3.5v-54h-420v54q64 0 81 11q21 13 33 36q12 28 12 103v778q0 144 -6 176q-3 14 -8 23t-13 17q-6 6 -15.5 7.5t-21.5 1.5q-13 0 -28 -2t-32 -10z" />
<glyph unicode="m" horiz-adv-x="1513" d="M23 795l265 108h38v-186l35 35l33.5 33.5t27 26.5t14.5 14q43 34 92.5 55.5t94.5 21.5q81 0 138.5 -48.5t78.5 -142.5v4q100 118 162 150q67 37 137 37q66 0 119.5 -36.5t85.5 -119.5q11 -27 15.5 -70.5t4.5 -103.5v-369q0 -38 3 -65t10 -42q4 -9 11.5 -16.5t21 -13.5 t34 -9.5t49.5 -3.5v-54h-422v54h18q27 0 49 5.5t36 14.5q24 18 32 42q2 8 2.5 30.5t0.5 57.5v369q0 97 -25 141q-36 56 -117 56q-52 0 -100 -24q-27 -13 -57 -36t-64 -55v3q-1 -2 -1 -5l1 -40v-409q0 -84 9 -105q10 -15 38 -32q28 -13 92 -13v-54h-433v54q75 0 98 15 q13 10 22.5 21t14.5 24q5 18 5 90v369q0 97 -31 144q-37 56 -116 56q-50 0 -99 -26q-41 -22 -71 -44t-49 -47v-452q0 -79 11 -106v1q10 -19 34 -33q24 -12 95 -12v-54h-424v54q58 0 82 12q25 12 36 35q11 26 11 103v327q0 71 -1.5 116t-6.5 65q-5 26 -19 36t-39 10 q-30 0 -61 -12z" />
<glyph unicode="n" d="M14 795l264 108h39v-186q75 91 148 138.5t139 47.5q69 0 119.5 -36.5t82.5 -120.5q11 -28 15.5 -72t4.5 -104v-366q0 -78 13 -107q4 -8 12.5 -15.5t20.5 -15.5q11 -5 32.5 -8.5t52.5 -3.5v-54h-424v54h18q31 0 51.5 4t33.5 12.5t20 20.5t12 28q4 12 4 85v351 q0 112 -30 162.5t-103 50.5q-57 0 -113 -31t-109 -87v-446q0 -81 11 -103q4 -11 13.5 -19.5t21.5 -15.5q22 -12 93 -12v-54h-424v54h19q68 0 89 29q22 32 22 121v318q0 155 -7 187q-6 25 -21 39q-11 10 -39 10t-61 -12z" />
<glyph unicode="o" d="M72 430q0 123 58 239q62 123 154 177v-1q98 58 202 58q191 0 313 -152q100 -127 100 -296q0 -122 -55 -238q-56 -121 -152 -182q-101 -62 -216 -62q-94 0 -171.5 40.5t-136.5 118.5q-44 64 -70 141t-26 157zM246 509q0 -91 18 -170.5t56 -147.5q72 -130 197 -130 q93 0 149 71q59 74 59 251q0 112 -24 200t-74 152q-66 87 -170 87q-25 0 -51 -7t-50 -22.5t-44.5 -39.5t-35.5 -58q-14 -37 -22 -83.5t-8 -102.5z" />
<glyph unicode="p" d="M0 -354h24h10q48 0 77 18q21 12 28 28q5 11 7.5 39t2.5 73v811q0 40 -2 65.5t-5 36.5q-2 8 -9 15t-16 14q-12 9 -44 9q-14 0 -27 -3t-28 -8l-18 45l271 110h33v-205q67 112 135 160.5t140 48.5q61 0 115.5 -28t98.5 -77q52 -63 79.5 -145t27.5 -184q0 -113 -32.5 -207 t-95.5 -166q-54 -60 -120.5 -91.5t-143.5 -31.5q-67 0 -119 21q-17 7 -38.5 22t-46.5 36v-253q0 -42 2.5 -69t7.5 -39v1q5 -9 14 -17.5t24 -15.5q25 -13 97 -13v-55h-449v55zM304 313q0 -103 9 -134q5 -23 21.5 -45.5t41.5 -43.5q26 -19 58.5 -29.5t70.5 -10.5q96 0 152 70 q38 48 56.5 113.5t18.5 148.5q0 94 -21.5 168t-63.5 127q-29 34 -64.5 52t-78.5 18q-44 0 -88 -22q-18 -10 -48.5 -36.5t-63.5 -61.5v-314z" />
<glyph unicode="q" d="M71 401q0 111 33 202t96 160q66 66 145 103t167 37q106 0 179 -63v2q30 14 56.5 29.5t49.5 31.5h30v-1113q0 -79 11 -101q10 -18 34 -31q11 -6 35 -9t59 -3v-55h-432v55h17q56 0 80 14q20 10 30 31q12 27 12 99v363q-44 -51 -83 -88t-67 -54q-64 -38 -132 -38 q-120 0 -222 118q-48 57 -73 134t-25 176zM229 468q0 -165 75 -255q75 -87 184 -87q57 0 100 23.5t85 74.5v396q0 66 -18.5 104t-65.5 66q-44 27 -105 27q-109 0 -181 -86q-74 -88 -74 -263z" />
<glyph unicode="r" horiz-adv-x="648" d="M14 796l264 107h37v-198q55 94 111.5 146t110.5 52q23 0 45 -9t39 -26q34 -32 34 -80q0 -20 -6.5 -37.5t-18 -30.5t-26.5 -20.5t-31 -7.5q-32 0 -74 33q-38 31 -60 31q-18 0 -36 -16q-23 -21 -44.5 -51.5t-43.5 -71.5v-406q0 -67 18 -104q11 -23 42 -38t91 -15v-54h-439 v54q67 0 97 19q26 19 33 42q2 8 3 30.5t1 57.5v332q0 75 -1 118.5t-5 57.5q-2 11 -8.5 19.5t-14.5 16.5q-14 11 -40 11q-32 0 -63 -12z" />
<glyph unicode="s" horiz-adv-x="757" d="M100 645q0 112 72 184q75 74 188 74q49 0 123 -21q46 -15 63 -15q16 0 25.5 6.5t20.5 29.5h27v-313h-28q-36 141 -94 190q-52 47 -141 47q-70 0 -106 -32q-40 -34 -40 -69q0 -45 29 -83q13 -17 43 -36.5t76 -42.5q33 -17 68 -33.5t68 -32.5q190 -93 190 -254 q0 -127 -88 -197q-91 -74 -198 -74q-77 0 -179 29q-16 5 -29 7t-22 2q-24 0 -37 -24h-27v326h28q14 -66 39 -116t64 -84q72 -64 165 -64q68 0 104 36q42 36 42 83q0 57 -46 102q-20 18 -66.5 47t-114.5 62q-64 32 -109 64t-68 61q-20 26 -31 62t-11 79z" />
<glyph unicode="t" horiz-adv-x="541" d="M23 791v51q52 21 106 70t95 112q25 42 63 135h26v-281h200v-87h-200v-545q0 -38 5.5 -64.5t17.5 -40.5q23 -26 62 -26q32 0 62 19.5t45 56.5h39q-37 -103 -97.5 -154t-123.5 -51q-21 0 -42 6.5t-40.5 19.5t-35.5 31t-26 42q-11 22 -15.5 57t-4.5 83v566h-136z" />
<glyph unicode="u" d="M9 823v55h301v-584q0 -112 41 -150q40 -35 101 -35q41 0 93.5 27t118.5 92v479q0 64 -27 90q-11 11 -38.5 18t-72.5 8v55h293v-530q0 -72 1.5 -117.5t5.5 -63.5q2 -11 7.5 -21t13.5 -18q16 -11 37 -11q30 0 64 14l18 -48l-262 -110h-40v186q-57 -61 -99.5 -100t-68.5 -53 q-60 -33 -123 -33q-72 0 -124.5 44t-73.5 113q-21 66 -21 188v383q0 28 -3.5 48t-8.5 31q-10 18 -40 31q-23 12 -84 12h-9z" />
<glyph unicode="v" d="M23 823v55h404v-55h-27q-37 0 -55.5 -15t-18.5 -40q0 -31 19 -75l199 -474q50 123 100.5 246.5t100.5 246.5q10 24 15.5 44t5.5 31q0 2 -1 5t-2 5q-9 13 -20 17q-23 9 -75 9v55h280v-55q-53 -5 -67 -17q-17 -15 -32.5 -38t-26.5 -53l-307 -742h-33l-309 731 q-18 43 -39 69q-8 8 -20 17t-29 17q-13 8 -62 16z" />
<glyph unicode="w" horiz-adv-x="1405" d="M23 823v55h359v-55q-50 -4 -65.5 -15.5t-15.5 -33.5q0 -12 4 -28.5t12 -36.5l184 -493v1q45 100 90.5 198t91.5 199q-11 30 -23 60.5t-24 60.5q-19 49 -58 72q-11 6 -29.5 10t-47.5 6v55h408v-55q-70 -3 -96 -23v1q-19 -17 -19 -40q0 -14 8 -35q48 -121 97.5 -246 t97.5 -246q43 115 89.5 237.5t90.5 237.5q8 23 13.5 43.5t5.5 32.5q0 13 -18.5 24.5t-71.5 13.5v55h271v-55q-84 -13 -120 -105l-289 -745h-33l-217 554v-1q-63 -137 -126.5 -276t-125.5 -277h-30l-277 728q-26 64 -54 87q-21 20 -82 35z" />
<glyph unicode="x" d="M32 823v55h404v-55q-38 0 -53.5 -10.5t-15.5 -27.5q0 -18 30 -61q2 -4 4.5 -8t6.5 -8q3 -6 10 -16t12 -18l61 -96v1q18 23 35.5 48t34.5 48v-1q68 94 68 112q0 16 -16 26.5t-52 10.5v55h290v-55q-49 -3 -80 -24q-48 -36 -125 -137q-7 -9 -22.5 -30t-33 -44t-33.5 -44.5 t-23 -30.5q52 -76 104.5 -151t104.5 -150q36 -54 64 -87.5t48 -46.5q16 -10 37.5 -16t49.5 -8v-54h-404v54q42 0 65 17q18 12 18 26q0 16 -60 103l-125 184v-1q-35 -46 -69 -92t-69 -92q-30 -41 -46.5 -65.5t-16.5 -28.5q0 -18 21 -33.5t63 -17.5v-54h-280v54q36 6 59 22 q20 15 50 50.5t70 86.5q44 59 87 116t88 117q-40 57 -79.5 114t-78.5 114q-32 48 -59.5 79t-48.5 45q-34 25 -95 25z" />
<glyph unicode="y" d="M19 823v55h399v-55h-20q-42 0 -63 -15.5t-21 -38.5q0 -16 8.5 -40.5t22.5 -55.5q51 -106 104.5 -216.5t104.5 -216.5v-1q48 119 96 237l96 236q8 20 12 38t4 35q0 11 -7 19q-6 8 -22 13.5t-58 5.5v55h279v-55q-19 -2 -32.5 -5.5t-20.5 -8.5q-10 -6 -21 -17t-20 -22 q-5 -8 -13 -26t-20 -44l-348 -855q-26 -66 -60 -114t-73 -79q-40 -32 -80 -48.5t-77 -16.5q-53 0 -91 34q-35 33 -35 81q0 45 25.5 71t70.5 26q14 0 36 -6t48 -15q16 -5 29 -9.5t18 -4.5q32 0 61 26q36 33 67 109q15 38 29.5 72t29.5 72l-306 643q-7 14 -18.5 31t-26.5 40 v-1q-11 14 -20 24.5t-19 17.5q-8 7 -25 13t-43 12z" />
<glyph unicode="z" horiz-adv-x="864" d="M45 0v50l556 741h-268q-46 0 -75.5 -2.5t-42.5 -8.5q-15 -5 -27 -16t-20 -23q-12 -23 -19.5 -54.5t-9.5 -67.5h-37l5 259h720v-51l-563 -743h300q99 0 133 14q18 9 33.5 23t23.5 31q9 15 15 48t11 83h31l-10 -283h-756z" />
<glyph unicode="{" horiz-adv-x="934" d="M273 440v59q101 12 156 68q57 57 57 119q0 47 -21 136q-22 87 -22 159q0 69 24.5 127.5t73.5 112.5q102 109 254 130v-53q-55 -13 -95 -34.5t-66 -48.5t-38.5 -58.5t-12.5 -64.5q0 -53 21 -144v1q11 -45 16.5 -84.5t5.5 -72.5q0 -100 -69 -190q-34 -42 -80 -74t-103 -57 q114 -46 181 -133q71 -92 71 -192q0 -33 -5.5 -72t-16.5 -84q-21 -90 -21 -144q0 -33 12.5 -64.5t38.5 -58.5t66 -48.5t95 -34.5v-53q-77 10 -140 43t-114 87q-98 104 -98 240q0 72 22 159q21 90 21 137q0 60 -57 117q-53 56 -156 70z" />
<glyph unicode="|" horiz-adv-x="389" d="M154 -413v1764h77v-1764h-77z" />
<glyph unicode="}" horiz-adv-x="934" d="M172 -360q109 27 160.5 82.5t51.5 123.5q0 27 -5.5 63t-16.5 81t-16.5 83.5t-5.5 71.5q0 101 69 191q67 83 183 130q-59 25 -102.5 57t-78.5 77q-71 92 -71 192q0 33 5.5 72.5t16.5 84.5v-1q11 46 16.5 81.5t5.5 62.5q0 33 -12.5 64.5t-38.5 58.5t-66 48.5t-95 34.5v53 q152 -21 254 -130v1q49 -54 73.5 -113.5t24.5 -128.5q0 -70 -21 -158q-11 -45 -16.5 -79t-5.5 -57q0 -60 56 -119q56 -56 157 -68v-59q-102 -13 -157 -70q-56 -58 -56 -117q0 -49 22 -137q21 -89 21 -159q0 -136 -98 -240v1q-51 -55 -114 -88t-140 -43v53z" />
<glyph unicode="~" horiz-adv-x="1053" d="M27 374q6 143 69 211q66 70 150 70q20 0 41 -3.5t43 -9.5q44 -14 109.5 -38.5t145.5 -59.5q76 -31 133.5 -48.5t89.5 -17.5q71 0 119.5 45t56.5 129h41q-5 -141 -69 -208q-69 -72 -160 -72q-44 0 -93 15q-39 11 -256 99q-142 59 -205 59q-66 0 -111.5 -40t-64.5 -131h-39 z" />
<glyph horiz-adv-x="1600" d="M87 129v586h202q68 0 104 -8q112 -26 156 -142q23 -61 23 -140q0 -126 -56 -203q-46 -64 -123 -83q-41 -10 -95 -10h-211zM164 198h126q102 0 143 41q59 59 59 188q0 167 -104 207q-31 12 -100 12h-124v-448zM642 129v586h424v-69h-346v-179h324v-69h-324v-200h360v-69 h-438zM1154 129v586h78v-517h288v-69h-366z" />
<glyph unicode="&#xa9;" horiz-adv-x="1484" d="M102 782q0 126 50.5 244.5t139.5 211.5q91 90 206 138t243 48q134 0 249 -47.5t207 -139.5q91 -90 139 -207.5t48 -247.5q0 -127 -49 -243.5t-136 -204.5q-95 -90 -214.5 -141.5t-243.5 -51.5q-127 0 -242.5 48.5t-207.5 142.5q-93 92 -141 207t-48 243zM169 782 q0 -113 43.5 -216.5t126.5 -186.5q83 -82 186 -125.5t218 -43.5q113 0 217 43.5t191 127.5q81 79 122.5 181t41.5 220t-42 222t-122 185q-84 82 -187.5 125t-220.5 43q-116 0 -218 -42t-183 -123q-84 -84 -128.5 -189.5t-44.5 -220.5zM407 788q0 174 93 278q93 105 246 105 q123 0 203 -64q38 -31 61.5 -68.5t28.5 -88.5h-112q-13 70 -61.5 105.5t-127.5 35.5q-48 0 -86.5 -21t-65.5 -61t-41 -97.5t-14 -129.5q0 -71 14.5 -127t42.5 -94.5t67.5 -59t90.5 -20.5q76 0 125.5 40.5t63.5 114.5h111q-5 -54 -28 -95t-64 -75q-83 -70 -213 -70 q-156 0 -245 104q-89 102 -89 288z" />
<glyph unicode="&#xab;" horiz-adv-x="767" d="M104 463l260 368h93q-22 -43 -46 -90t-48.5 -94.5t-48.5 -94.5t-46 -89l184 -355h-95zM310 463l257 368h93q-10 -19 -23.5 -46.5t-35 -70t-52.5 -103.5t-76 -148l182 -355h-95z" />
<glyph unicode="&#xad;" horiz-adv-x="692" d="M96 389q6 36 11 63.5l11 60.5h499l-24 -124h-497z" />
<glyph unicode="&#xae;" horiz-adv-x="1484" d="M102 782q0 128 50 246.5t144 214.5q88 89 201 135t244 46q132 0 249 -48.5t209 -142.5q90 -91 137.5 -207t47.5 -244q0 -131 -47.5 -246t-139.5 -204q-95 -93 -212.5 -142t-243.5 -49q-128 0 -243.5 49t-208.5 144q-92 92 -139.5 207t-47.5 241zM169 782 q0 -112 43.5 -215t124.5 -186t185 -127t216 -44q117 0 220.5 42.5t190.5 126.5q81 78 123.5 180.5t42.5 217.5q0 121 -41 225t-121 185q-84 84 -187.5 127t-222.5 43q-115 0 -218.5 -43t-180.5 -120q-81 -85 -128 -192.5t-47 -219.5zM490 436v719h269q299 0 299 -193 q0 -76 -45.5 -126t-127.5 -67q40 -81 82 -166t82 -167h-136l-151 314h-150v-314h-122zM612 821h126q104 0 149.5 29.5t45.5 96.5q0 72 -47 104t-152 32h-122v-262z" />
<glyph unicode="&#xb0;" horiz-adv-x="1006" d="M64 591l457 457l456 -457l-456 -456zM140 591l381 -380l380 380l-380 381zM304 591l217 218l217 -218l-217 -217z" />
<glyph unicode="&#xb1;" horiz-adv-x="1011" d="M46 700l237 171l236 172l237 -172l236 -171l-90 -279l-90 -277h-585l-90 277zM186 443l167 -122l166 -120l167 120l166 122l-63 196l-64 196h-412l-63 -196zM336 605l91 66l92 67l92 -67l93 -66l-36 -108l-35 -109h-227z" />
<glyph unicode="&#xb6;" horiz-adv-x="891" d="M61 1138q0 65 24.5 120t66.5 97q47 40 109 61.5t137 21.5h432v-59h-106v-1229h-80v1229h-173v-1229h-82v690q-155 6 -242 87q-86 81 -86 211z" />
<glyph unicode="&#xb7;" horiz-adv-x="996" d="M62 592l202 189l190 -189l-190 -189zM327 340l189 190l192 -190l-192 -210zM327 840l189 205l187 -205l-187 -189zM577 592l189 189l205 -189l-205 -197z" />
<glyph unicode="&#xba;" horiz-adv-x="983" d="M59 534l111 193l112 194h447l113 -194l111 -193l-111 -194l-113 -194h-447l-112 194zM148 534l89 -156l90 -154h358l89 154l89 156l-89 155l-89 154h-358zM273 534l57 101l59 101h234l58 -101l59 -101l-117 -203h-234z" />
<glyph unicode="&#xbb;" horiz-adv-x="767" d="M104 831h93l257 -368l-250 -355h-95l182 355q-45 87 -76 148t-52.5 103.5t-35 70t-23.5 46.5zM307 831h93l260 -368l-253 -355h-95l184 355q-22 42 -46 89t-48.5 94.5t-48.5 94.5t-46 90z" />
<glyph unicode="&#xbf;" horiz-adv-x="774" d="M81 146v675h675v-675h-675z" />
<glyph unicode="&#xd7;" horiz-adv-x="1484" d="M260 266l414 413l-414 414q20 21 37.5 38t36.5 37l414 -413l414 413q20 -20 37 -37.5t37 -37.5l-414 -414l414 -413q-20 -20 -37 -36.5t-37 -36.5l-414 412q-102 -101 -206.5 -205.5t-207.5 -206.5q-20 20 -37 36.5t-37 36.5z" />
<glyph unicode="&#xe0;" horiz-adv-x="864" d="M75 214q0 32 7.5 61.5t21.5 52.5q20 32 54 63t79 59q48 29 129.5 64.5t186.5 73.5v24q0 122 -42 169q-39 45 -118 45q-62 0 -93 -30q-36 -33 -36 -65l2 -55q0 -48 -21.5 -73.5t-58.5 -25.5q-34 0 -56 26.5t-22 73.5q0 88 82 157q85 69 232 69q112 0 187 -39 q25 -14 45.5 -38t35.5 -58q8 -21 12.5 -62.5t4.5 -107.5v-290q0 -59 1.5 -96t3.5 -53q1 -9 5 -17t10 -14q7 -6 24 -6q19 0 27 4q11 8 30.5 25t45.5 43v-67q-108 -144 -200 -144q-45 0 -72 32.5t-29 109.5q-134 -104 -166 -118q-51 -25 -108 -25q-85 0 -147 64 q-57 60 -57 168zM233 257q0 -62 40 -105v1q37 -42 93 -42q36 0 84 23.5t103 68.5v309q-70 -28 -116.5 -48t-66.5 -32q-74 -42 -105.5 -84t-31.5 -91zM236 1321h220l105 -343h-34z" />
<glyph unicode="&#xe1;" horiz-adv-x="864" d="M75 214q0 32 7.5 61.5t21.5 52.5q20 32 54 63t79 59q48 29 129.5 64.5t186.5 73.5v24q0 122 -42 169q-39 45 -118 45q-62 0 -93 -30q-36 -33 -36 -65l2 -55q0 -48 -21.5 -73.5t-58.5 -25.5q-34 0 -56 26.5t-22 73.5q0 88 82 157q85 69 232 69q112 0 187 -39 q25 -14 45.5 -38t35.5 -58q8 -21 12.5 -62.5t4.5 -107.5v-290q0 -59 1.5 -96t3.5 -53q1 -9 5 -17t10 -14q7 -6 24 -6q19 0 27 4q11 8 30.5 25t45.5 43v-67q-108 -144 -200 -144q-45 0 -72 32.5t-29 109.5q-134 -104 -166 -118q-51 -25 -108 -25q-85 0 -147 64 q-57 60 -57 168zM233 257q0 -62 40 -105v1q37 -42 93 -42q36 0 84 23.5t103 68.5v309q-70 -28 -116.5 -48t-66.5 -32q-74 -42 -105.5 -84t-31.5 -91zM352 984l108 337h220l-294 -337h-34z" />
<glyph unicode="&#xe7;" horiz-adv-x="864" d="M72 438q0 210 120 335q124 130 289 130q123 0 208 -70v1q81 -68 81 -147q0 -41 -22.5 -65.5t-64.5 -24.5q-25 0 -46.5 9.5t-37.5 29.5q-14 21 -20 80q-2 25 -12 44t-26 34q-29 26 -91 26q-47 0 -85 -17.5t-66 -48.5q-35 -45 -55.5 -105.5t-20.5 -129.5q0 -75 19 -140.5 t56 -125.5q73 -112 205 -112q95 0 164 59q27 23 52 61.5t50 95.5l27 -13q-37 -187 -138 -277q-105 -94 -223 -94q-142 0 -255 127q-108 121 -108 338zM284 -297q14 -2 25 -3t20 -1q52 0 80 28q33 31 33 64q0 24 -21.5 41.5t-53.5 17.5h-8t-9 -1q-2 0 -8.5 -0.5t-8.5 -0.5 l117 187h63l-49 -75q56 -17 82.5 -54t26.5 -91q0 -37 -15 -68.5t-41 -57.5q-63 -54 -145 -54q-18 0 -39.5 1.5t-48.5 5.5v61z" />
<glyph unicode="&#xe8;" horiz-adv-x="864" d="M78 428q0 226 112 348q59 65 129.5 96t153.5 31q142 0 238 -97q92 -95 92 -272h-592q1 -178 92 -282q90 -105 220 -105q85 0 148 45.5t105 156.5l29 -18q-22 -142 -116 -248q-98 -110 -237 -110q-149 0 -265 124q-109 121 -109 331zM212 609h395q-2 35 -7 60t-12 42 q-22 49 -68.5 77.5t-98.5 28.5q-79 0 -139 -58q-28 -28 -45.5 -67t-24.5 -83zM260 1321h220l105 -343h-34z" />
<glyph unicode="&#xe9;" horiz-adv-x="864" d="M78 428q0 226 112 348q59 65 129.5 96t153.5 31q142 0 238 -97q92 -95 92 -272h-592q1 -178 92 -282q90 -105 220 -105q85 0 148 45.5t105 156.5l29 -18q-22 -142 -116 -248q-98 -110 -237 -110q-149 0 -265 124q-109 121 -109 331zM212 609h395q-2 35 -7 60t-12 42 q-22 49 -68.5 77.5t-98.5 28.5q-79 0 -139 -58q-28 -28 -45.5 -67t-24.5 -83zM347 978l104 343h221l-292 -343h-33z" />
<glyph unicode="&#xea;" horiz-adv-x="864" d="M78 428q0 226 112 348q59 65 129.5 96t153.5 31q142 0 238 -97q92 -95 92 -272h-592q1 -178 92 -282q90 -105 220 -105q85 0 148 45.5t105 156.5l29 -18q-22 -142 -116 -248q-98 -110 -237 -110q-149 0 -265 124q-109 121 -109 331zM198 986l188 331h168l189 -331h-36 l-258 201v1q-54 -50 -108.5 -100.5t-108.5 -101.5h-34zM212 609h395q-2 35 -7 60t-12 42q-22 49 -68.5 77.5t-98.5 28.5q-79 0 -139 -58q-28 -28 -45.5 -67t-24.5 -83z" />
<glyph unicode="&#xf4;" d="M72 430q0 123 58 239q62 123 154 177v-1q98 58 202 58q191 0 313 -152q100 -127 100 -296q0 -122 -55 -238q-56 -121 -152 -182q-101 -62 -216 -62q-94 0 -171.5 40.5t-136.5 118.5q-44 64 -70 141t-26 157zM225 986l188 331h168l189 -331h-36l-258 201v1 q-54 -50 -108.5 -100.5t-108.5 -101.5h-34zM246 509q0 -91 18 -170.5t56 -147.5q72 -130 197 -130q93 0 149 71q59 74 59 251q0 112 -24 200t-74 152q-66 87 -170 87q-25 0 -51 -7t-50 -22.5t-44.5 -39.5t-35.5 -58q-14 -37 -22 -83.5t-8 -102.5z" />
<glyph unicode="&#xf7;" horiz-adv-x="1484" d="M223 628v104h1038v-104h-1038zM641 354q0 41 31 72q29 30 71 30t71 -30q31 -31 31 -72t-31 -72q-28 -28 -71 -28q-44 0 -72 28q-30 30 -30 72zM641 1005q0 41 31 72t71 31t71 -31t31 -72q0 -40 -31 -71q-28 -31 -71 -31q-42 0 -72 30q-14 15 -22 32.5t-8 39.5z" />
<glyph unicode="&#x153;" horiz-adv-x="1405" d="M73 425q0 220 115 347q121 131 281 131q48 0 91 -12t80 -32.5t67.5 -48.5t53.5 -60q29 43 58.5 72t57.5 46q32 19 68.5 27t80.5 8q134 0 223 -96q87 -93 82 -271h-513v6q-1 -2 -1 -9q-1 -7 -1 -12v-10q0 -43 8 -87.5t23 -92.5v1q15 -45 38.5 -80t55.5 -58q57 -45 135 -45 q76 0 134 47.5t91 154.5l32 -16q-38 -199 -120 -278q-87 -84 -200 -84q-45 0 -83 12t-72 35q-60 40 -97 110v-2q-60 -77 -134 -116t-163 -39q-161 0 -279 123q-112 123 -112 329zM248 515q0 -236 96 -374q53 -80 142 -80q44 0 78 16.5t60 48.5q55 68 55 238q0 212 -63 343 q-60 124 -182 124q-35 0 -80 -24q-49 -27 -71 -80q-35 -76 -35 -212zM819 617h328q-1 29 -6.5 57t-16.5 55q-16 42 -56 67t-86 25q-32 0 -59.5 -13.5t-51.5 -38.5q-43 -57 -52 -152z" />
<glyph unicode="&#x60c;" horiz-adv-x="341" d="M66.5 240.5q0.5 28.5 0.5 58.5q0 9 8 38.5t19.5 66.5t25.5 75.5t25.5 66.5t19.5 39t8 -7q0 -39 -9 -74.5t-17.5 -67t-11.5 -58.5t9.5 -48t45.5 -36.5t96 -23.5q-20 -44 -35.5 -79.5t-35.5 -77.5q-63 11 -94 30.5t-43 44t-11.5 53z" />
<glyph unicode="&#x61b;" horiz-adv-x="448" d="M92 268l129 129q35 -36 64.5 -66t64.5 -63l-129 -129q-36 35 -65 64t-64 65zM93.5 594.5q0.5 28.5 0.5 58.5q0 9 8 38.5t19.5 66.5t25.5 75.5t25.5 66.5t19.5 39t8 -7q0 -39 -9 -74.5t-17.5 -67t-11.5 -58.5t9.5 -48t45.5 -36.5t96 -23.5q-20 -44 -35.5 -79.5 t-35.5 -77.5q-63 11 -94 30.5t-43 44t-11.5 53z" />
<glyph unicode="&#x61f;" horiz-adv-x="517" d="M63 941q0 48 18.5 93t49.5 83t71 67t82.5 46t84 20.5t76.5 -10.5l-34 -190q-23 9 -53 12t-59.5 -1t-54.5 -14.5t-38 -28.5q-10 -13 -2 -37.5t25.5 -55.5t40.5 -66.5t43.5 -70t34.5 -66.5t14 -55q0 -17 -4 -43t-13 -54.5t-24 -57t-37 -50.5q3 52 -12 94.5t-40 80.5 t-54 72.5t-55 70.5t-43 75t-17 86zM133 233l145 145q39 -41 72 -74t72 -71l-144 -144q-20 19 -38 36.5t-35.5 35l-35 35t-36.5 37.5z" />
<glyph unicode="&#x621;" horiz-adv-x="677" d="M40 -17q16 21 45 50.5t63 59.5t69.5 57t65.5 44q-62 9 -99 21t-57 27.5t-26 36t-6 47.5q10 52 33 102.5t53.5 95t66 82t72 65t71 43.5t62.5 18q12 1 25 -4t24.5 -15.5t20.5 -26t13 -35.5q-7 -15 -16.5 -28.5t-19.5 -27t-19 -27t-15 -29.5q-19 20 -47 25t-57.5 -1.5 t-58 -22.5t-49 -37t-30.5 -45.5t-2 -48t36 -44t83 -34.5q22 -6 55 -3t71.5 10t81.5 15.5t86 14.5l-84 -168q-71 -5 -137.5 -25t-130 -50.5t-124.5 -67.5t-119 -74z" />
<glyph unicode="&#x622;" horiz-adv-x="352" d="M-68 1348q7 27 18.5 52.5t30.5 51.5q28 36 78 36q26 0 59.5 -9.5t71.5 -25.5q67 -31 122 -31q64 0 113 38q-18 -60 -48.5 -91.5t-73.5 -31.5q-20 0 -41.5 5t-44.5 17q-80 38 -151 38q-39 0 -73 -12t-61 -37zM91 1065q1 5 12 25t29.5 45.5t42 52.5t50.5 46l43 -735 q1 -62 -5.5 -126t-20 -125.5t-32.5 -118t-42 -103.5z" />
<glyph unicode="&#x623;" horiz-adv-x="352" d="M31 1277q-2 13 6.5 28.5t25 30.5t39.5 28t51 19q-31 5 -49.5 11t-28.5 14t-13 18t-3 24q8 40 29 76.5t47.5 64.5t54.5 45t49 18q12 1 25 -9.5t17 -30.5q-8 -15 -18.5 -28t-16.5 -29q-13 14 -31.5 15t-35.5 -6t-29 -19.5t-12.5 -27.5t14.5 -29t52 -23q23 -5 63.5 4 t84.5 15l-63 -100q-36 -2 -69.5 -12.5t-65.5 -25.5t-62.5 -33.5t-60.5 -37.5zM91 1065q1 5 12 25t29.5 45.5t42 52.5t50.5 46l43 -735q1 -62 -5.5 -126t-20 -125.5t-32.5 -118t-42 -103.5z" />
<glyph unicode="&#x624;" horiz-adv-x="688" d="M-305 -276q67 -2 135 -2t138 9.5t142 32.5t148 66.5t156 111t166 166.5l-27 156q-25 -40 -62.5 -67t-79 -40.5t-83.5 -12t-75 20.5t-54 56.5t-21 94.5q0 43 9.5 91.5t27 96t41 91.5t52 78t61 55t66.5 23q96 -86 146.5 -193t59.5 -221t-22 -227t-97.5 -212t-166.5 -176.5 t-229 -118.5q-23 0 -59 7.5t-77.5 19t-85.5 25.5t-84.5 27t-73 24.5t-51.5 17.5zM156 764q17 22 30.5 37t28.5 27.5t33.5 25t44.5 30.5q-35 5 -56 11.5t-32 15.5t-14.5 21t-3.5 27q9 45 33 85.5t54 72t61 51t54 20.5q14 1 28.5 -11t19.5 -34q-8 -17 -20.5 -31.5t-19.5 -32.5 q-15 15 -35.5 16.5t-39.5 -6t-32.5 -22t-14 -31t16 -32.5t58.5 -26q13 -3 31.5 -1.5t40.5 5.5t46.5 9t48.5 8l-71 -112q-40 -3 -78 -14.5t-74 -28.5t-70.5 -38t-67.5 -42zM271 443q0 -20 9.5 -42.5t28 -41.5t45 -31t60.5 -12h22q11 0 23 2t26 6t34 12q-15 56 -33 97.5 t-36 69t-35 41t-29 13.5q-26 0 -47.5 -10t-36.5 -26t-23 -36.5t-8 -41.5z" />
<glyph unicode="&#x625;" horiz-adv-x="357" d="M20 -456q-2 13 6.5 28.5t25 30.5t39.5 28t51 19q-31 5 -49.5 11t-28.5 14t-13 18t-3 24q8 40 29 76.5t47.5 64.5t54.5 45t49 18q12 1 25 -9.5t17 -30.5q-8 -15 -18.5 -28t-16.5 -29q-13 14 -31.5 15t-35.5 -6t-29 -19.5t-12.5 -27.5t14.5 -29t52 -23q23 -5 63.5 4 t84.5 15l-63 -100q-36 -2 -69.5 -12.5t-65.5 -25.5t-62.5 -33.5t-60.5 -37.5zM91 1065q1 5 12 25t29.5 45.5t42 52.5t50.5 46l43 -735q1 -62 -5.5 -126t-20 -125.5t-32.5 -118t-42 -103.5z" />
<glyph unicode="&#x626;" horiz-adv-x="1271" d="M60 224q21 137 91 299q-6 -15 -17.5 -50t-21 -80.5t-14 -97.5t3 -103t31 -95.5t70 -75.5t119.5 -43t179.5 2.5t249.5 60t331 130.5q-45 43 -96 70t-99.5 44.5t-91.5 28.5t-71 22q-30 32 -26.5 86.5t31.5 117.5t75.5 129t105.5 122t122.5 95t124.5 49q24 4 39.5 -10 t23 -38.5t7.5 -55.5t-7.5 -61t-21 -55.5t-33.5 -37.5q-8 37 -29.5 51t-51 11t-64 -19t-67.5 -39t-62.5 -49.5t-48.5 -50.5t-25 -42t7 -24q69 -30 130 -51.5t106 -48t71 -65t26 -102.5q0 -6 -4 -23t-10 -39t-13 -47.5t-14 -48t-12 -40l-7 -24.5q-232 -134 -412 -194 t-308 -58.5t-205.5 58t-105 156t-6.5 236.5zM74 645q21 28 38 46.5t36 34t41.5 31t55.5 37.5q-43 7 -69.5 15t-40.5 19.5t-18.5 26t-3.5 33.5q11 55 40.5 106.5t67 90.5t76.5 63t68 26q17 1 35.5 -14t23.5 -42q-11 -21 -26 -39.5t-23 -40.5q-18 19 -44 21t-50 -8t-40.5 -28 t-17 -38.5t20 -40t72.5 -32.5q16 -4 39 -2t50.5 7t58 11t60.5 10l-88 -140q-50 -3 -97.5 -17.5t-92.5 -36t-88 -47.5t-84 -52z" />
<glyph unicode="&#x627;" horiz-adv-x="327" d="M71 1065q1 5 12 25t29.5 45.5t42 52.5t50.5 46l43 -735q1 -62 -5.5 -126t-20 -125.5t-32.5 -118t-42 -103.5z" />
<glyph unicode="&#x628;" horiz-adv-x="1465" d="M58.5 294q-13.5 74 11.5 180.5t98 252.5q-59 -126 -59.5 -211t42.5 -137.5t121.5 -77t177.5 -29.5t211 4t222 24t209.5 31t174.5 24q16 3 25.5 4t13.5 2t5 3.5t1 8.5q0 32 -15 79.5t-37.5 98.5t-47.5 98t-45 78q32 44 58.5 81.5t58.5 81.5q28 -41 51.5 -94t40.5 -109.5 t26 -111t9 -98.5q0 -43 -16.5 -114t-45.5 -188q-71 -3 -161.5 -15.5t-190.5 -28t-204.5 -30t-204.5 -21t-190 -2t-161 27.5t-118 68.5t-60.5 119.5zM566 -288l146 146q38 -41 71.5 -74.5t72.5 -71.5l-144 -144q-41 39 -74.5 71.5t-71.5 72.5z" />
<glyph unicode="&#x629;" horiz-adv-x="583" d="M53 259q0 48 11 103.5t30 110.5t45.5 106.5t57.5 91.5t65.5 65t69.5 28q37 -4 71 -33t60.5 -74t43 -102t19 -116.5t-11 -117t-48.5 -105t-92.5 -80t-142.5 -41.5q-91 -10 -134.5 34.5t-43.5 129.5zM57 1066l127 127q30 -32 56 -58.5t56 -55.5l114 114q34 -35 62.5 -64.5 t63.5 -62.5l-126 -126q-32 32 -58.5 57.5t-55.5 54.5l-112 -112q-35 35 -64 63t-63 63zM129.5 408.5q-7.5 -43.5 6 -77t51.5 -49.5t107 1l157 37q0 28 -11 72.5t-33 87t-55.5 73t-78.5 30.5q-33 0 -64 -27t-51.5 -65.5t-28 -82z" />
<glyph unicode="&#x62a;" horiz-adv-x="1455" d="M53.5 294q-13.5 74 11.5 180.5t98 252.5q-59 -126 -59.5 -211t42.5 -137.5t121.5 -77t177.5 -29.5t211 4t222 24t209.5 31t174.5 24q16 3 25.5 4t13.5 2t5 3.5t1 8.5q0 32 -15 79.5t-37.5 98.5t-47.5 98t-45 78q32 44 58.5 81.5t58.5 81.5q28 -41 51.5 -94t40.5 -109.5 t26 -111t9 -98.5q0 -43 -16.5 -114t-45.5 -188q-71 -3 -161.5 -15.5t-190.5 -28t-204.5 -30t-204.5 -21t-190 -2t-161 27.5t-118 68.5t-60.5 119.5zM457 940l138 138q32 -34 60.5 -63t60.5 -60l123 123q37 -38 68 -70t69 -68l-137 -136q-34 34 -62.5 61.5t-60.5 59.5 l-121 -121q-38 38 -69.5 68.5t-68.5 67.5z" />
<glyph unicode="&#x62b;" horiz-adv-x="1449" d="M48.5 294q-13.5 74 11.5 180.5t98 252.5q-59 -126 -59.5 -211t42.5 -137.5t121.5 -77t177.5 -29.5t211 4t222 24t209.5 31t174.5 24q16 3 25.5 4t13.5 2t5 3.5t1 8.5q0 32 -15 79.5t-37.5 98.5t-47.5 98t-45 78q32 44 58.5 81.5t58.5 81.5q28 -41 51.5 -94t40.5 -109.5 t26 -111t9 -98.5q0 -43 -16.5 -114t-45.5 -188q-71 -3 -161.5 -15.5t-190.5 -28t-204.5 -30t-204.5 -21t-190 -2t-161 27.5t-118 68.5t-60.5 119.5zM446 871l140 140q33 -35 62 -64.5t62 -61.5l125 126q38 -39 69.5 -71t69.5 -69l-139 -139q-35 34 -64 63l-61 61l-124 -124 q-39 38 -70.5 69.5zM577 1171l138 138q36 -38 67 -70t69 -68l-136 -136q-38 38 -69.5 68.5t-68.5 67.5z" />
<glyph unicode="&#x62c;" horiz-adv-x="987" d="M54 -118q7 104 51 216q27 72 65.5 132.5t87.5 111.5t108 93t127 78q-37 12 -84 32.5t-100.5 30.5t-111 -1t-114.5 -62q4 14 12 38.5t21.5 52t32.5 55.5t44.5 48.5t57.5 30.5t72 2q63 -13 123 -31.5t129 -36.5t153 -31.5t195 -14.5q-17 -48 -34 -88.5t-35 -89.5 q-79 -2 -163 -18t-164 -46t-151 -74t-124.5 -101t-85 -127t-31.5 -152q0 -110 47 -191t125.5 -139t181.5 -95t214.5 -58.5t224 -29.5t211.5 -8h55q-124 -73 -253.5 -101t-265.5 -28q-115 0 -214 29.5t-177 83t-132 128.5t-79.5 166t-18.5 195zM404 -22l137 137 q37 -38 68 -70t68 -67l-136 -136q-38 37 -69.5 67.5t-67.5 68.5z" />
<glyph unicode="&#x62d;" horiz-adv-x="987" d="M54 -118q7 104 51 216q27 72 65.5 132.5t87.5 111.5t108 93t127 78q-37 12 -84 32.5t-100.5 30.5t-111 -1t-114.5 -62q4 14 12 38.5t21.5 52t32.5 55.5t44.5 48.5t57.5 30.5t72 2q63 -13 123 -31.5t129 -36.5t153 -31.5t195 -14.5q-17 -48 -34 -88.5t-35 -89.5 q-79 -2 -163 -18t-164 -46t-151 -74t-124.5 -101t-85 -127t-31.5 -152q0 -110 47 -191t125.5 -139t181.5 -95t214.5 -58.5t224 -29.5t211.5 -8h55q-124 -73 -253.5 -101t-265.5 -28q-115 0 -214 29.5t-177 83t-132 128.5t-79.5 166t-18.5 195z" />
<glyph unicode="&#x62e;" horiz-adv-x="987" d="M54 -118q7 104 51 216q27 72 65.5 132.5t87.5 111.5t108 93t127 78q-37 12 -84 32.5t-100.5 30.5t-111 -1t-114.5 -62q4 14 12 38.5t21.5 52t32.5 55.5t44.5 48.5t57.5 30.5t72 2q63 -13 123 -31.5t129 -36.5t153 -31.5t195 -14.5q-17 -48 -34 -88.5t-35 -89.5 q-79 -2 -163 -18t-164 -46t-151 -74t-124.5 -101t-85 -127t-31.5 -152q0 -110 47 -191t125.5 -139t181.5 -95t214.5 -58.5t224 -29.5t211.5 -8h55q-124 -73 -253.5 -101t-265.5 -28q-115 0 -214 29.5t-177 83t-132 128.5t-79.5 166t-18.5 195zM364 1072l137 137 q37 -38 68 -70t68 -67l-136 -136q-38 37 -69.5 67.5t-67.5 68.5z" />
<glyph unicode="&#x62f;" horiz-adv-x="677" d="M51.5 260q0.5 38 7.5 77t17 73.5t18 56.5q-5 -49 6.5 -80.5t35 -48.5t55.5 -22t69 -1.5t76 13.5t75 22t67 25.5t52 23.5q-17 58 -31.5 99t-28 72t-26.5 54t-26.5 44.5t-28 44t-31.5 52.5q26 41 49.5 92t48.5 93q33 -38 61 -89.5t49 -110.5t33.5 -124.5t14.5 -131.5 q2 -69 -10 -129.5t-57 -108t-133 -80t-238 -44.5q-48 -4 -75 13t-38.5 47t-11 68z" />
<glyph unicode="&#x630;" horiz-adv-x="672" d="M51.5 260q0.5 38 7.5 77t17 73.5t18 56.5q-5 -49 6.5 -80.5t35 -48.5t55.5 -22t69 -1.5t76 13.5t75 22t67 25.5t52 23.5q-17 58 -31.5 99t-28 72t-26.5 54t-26.5 44.5t-28 44t-31.5 52.5q26 41 49.5 92t48.5 93q33 -38 61 -89.5t49 -110.5t33.5 -124.5t14.5 -131.5 q2 -69 -10 -129.5t-57 -108t-133 -80t-238 -44.5q-48 -4 -75 13t-38.5 47t-11 68zM183 1202l137 137q37 -38 68 -70t68 -67l-136 -136q-38 37 -69.5 67.5t-67.5 68.5z" />
<glyph unicode="&#x631;" horiz-adv-x="641" d="M-218 -279q74 -5 141 -7t128.5 8.5t119.5 36.5t115 77t114.5 130.5t117.5 196.5q-1 46 -17 91t-39.5 87.5t-50.5 82t-49 75.5q29 47 55 88.5t56 89.5q45 -53 72 -126.5t37 -156.5t3 -172t-29.5 -174.5t-60.5 -162.5t-90 -136t-118 -96t-145 -42q-22 -2 -57 5.5t-75 19.5 t-80.5 26.5t-73 27.5t-53 21.5t-21.5 9.5z" />
<glyph unicode="&#x632;" horiz-adv-x="641" d="M-218 -279q74 -5 141 -7t128.5 8.5t119.5 36.5t115 77t114.5 130.5t117.5 196.5q-1 46 -17 91t-39.5 87.5t-50.5 82t-49 75.5q29 47 55 88.5t56 89.5q45 -53 72 -126.5t37 -156.5t3 -172t-29.5 -174.5t-60.5 -162.5t-90 -136t-118 -96t-145 -42q-22 -2 -57 5.5t-75 19.5 t-80.5 26.5t-73 27.5t-53 21.5t-21.5 9.5zM188 939l102 159q42 -37 77.5 -68t75.5 -66q-30 -42 -57 -76.5t-56 -72.5q-38 34 -72 63t-70 61z" />
<glyph unicode="&#x633;" horiz-adv-x="2163" d="M50 47q1 55 9.5 100t26 97t44 119t64.5 167q-2 -11 -9 -35.5t-15.5 -55.5t-18 -64.5t-18 -63t-13.5 -51.5t-5 -29q0 -88 31 -151.5t84.5 -105.5t124 -63t149 -22t160.5 17t158.5 53.5t143 87t113.5 118.5q-11 26 -25.5 50.5t-27 51t-20 56t-4 65t21 78.5t55.5 96 q9 -19 16 -44t16 -52t21 -54.5t29.5 -50t42.5 -37.5t61 -19q60 -2 113 9.5t98.5 32.5t83.5 50t69 62q41 -58 95.5 -89t109 -34t102 24.5t75.5 86.5q8 18 4 37t-14 38.5t-22.5 38.5t-20.5 37q29 32 57 65t56 65q17 -19 27 -54t11.5 -79t-5.5 -94t-23 -99t-42 -94t-62 -79.5 t-82.5 -55t-104.5 -20.5q-45 0 -100 22.5t-121 70.5q-67 -44 -127.5 -71t-113.5 -39t-97.5 -10t-80.5 16q-33 -102 -104.5 -183.5t-167.5 -138.5t-208 -87.5t-226 -30.5q-105 0 -180 27.5t-123 75t-70 110t-21 132.5z" />
<glyph unicode="&#x634;" horiz-adv-x="2169" d="M61 47q1 55 9.5 100t26 97t44 119t64.5 167q-2 -11 -9 -35.5t-15.5 -55.5t-18 -64.5t-18 -63t-13.5 -51.5t-5 -29q0 -88 31 -151.5t84.5 -105.5t124 -63t149 -22t160.5 17t158.5 53.5t143 87t113.5 118.5q-11 26 -25.5 50.5t-27 51t-20 56t-4 65t21 78.5t55.5 96 q9 -19 16 -44t16 -52t21 -54.5t29.5 -50t42.5 -37.5t61 -19q60 -2 113 9.5t98.5 32.5t83.5 50t69 62q41 -58 95.5 -89t109 -34t102 24.5t75.5 86.5q8 18 4 37t-14 38.5t-22.5 38.5t-20.5 37q29 32 57 65t56 65q17 -19 27 -54t11.5 -79t-5.5 -94t-23 -99t-42 -94t-62 -79.5 t-82.5 -55t-104.5 -20.5q-45 0 -100 22.5t-121 70.5q-67 -44 -127.5 -71t-113.5 -39t-97.5 -10t-80.5 16q-33 -102 -104.5 -183.5t-167.5 -138.5t-208 -87.5t-226 -30.5q-105 0 -180 27.5t-123 75t-70 110t-21 132.5zM1327 869l140 140q33 -35 62 -64.5t62 -61.5l125 126 q38 -39 69.5 -71t69.5 -69l-139 -139q-35 34 -64 63l-61 61l-124 -124q-39 38 -70.5 69.5zM1458 1169l138 138q36 -38 67 -70t69 -68l-136 -136q-38 38 -69.5 68.5t-68.5 67.5z" />
<glyph unicode="&#x635;" horiz-adv-x="2247" d="M55 47q1 55 9.5 100t26 97t44 119t64.5 167q-2 -11 -9 -35.5t-15.5 -55.5t-18 -64.5t-18 -63t-13.5 -51.5t-5 -29q0 -88 31 -151.5t84.5 -105.5t124 -63t149 -22t160.5 17t158.5 53.5t143 87t113.5 118.5q-11 26 -25.5 50.5t-27 51t-20 56t-4 65t21 78.5t55.5 96 q9 -19 15 -45t12.5 -53.5t16.5 -55t26.5 -48.5t42 -33.5t63.5 -11.5q66 41 130 88t124 92.5t114.5 87t102 73t87 50.5t67.5 19q55 0 110.5 -23.5t100.5 -61.5t73.5 -85.5t28.5 -95.5q-13 -79 -50 -136.5t-92 -97t-125 -63.5t-148.5 -36t-162 -14t-165 2t-158.5 12t-142 16 q-33 -102 -104.5 -183.5t-167.5 -138.5t-208 -87.5t-226 -30.5q-105 0 -180 27.5t-123 75t-70 110t-21 132.5zM1377 297q172 -12 290 -7.5t195.5 19.5t120 37.5t64.5 46.5q9 23 -3.5 46.5t-39.5 42t-65 30.5t-80 12q-16 0 -31.5 -1t-29.5 -5q-42 -8 -91.5 -28.5 t-103.5 -49.5t-111.5 -66t-114.5 -77z" />
<glyph unicode="&#x636;" horiz-adv-x="2247" d="M55 47q1 55 9.5 100t26 97t44 119t64.5 167q-2 -11 -9 -35.5t-15.5 -55.5t-18 -64.5t-18 -63t-13.5 -51.5t-5 -29q0 -88 31 -151.5t84.5 -105.5t124 -63t149 -22t160.5 17t158.5 53.5t143 87t113.5 118.5q-11 26 -25.5 50.5t-27 51t-20 56t-4 65t21 78.5t55.5 96 q9 -19 15 -45t12.5 -53.5t16.5 -55t26.5 -48.5t42 -33.5t63.5 -11.5q66 41 130 88t124 92.5t114.5 87t102 73t87 50.5t67.5 19q55 0 110.5 -23.5t100.5 -61.5t73.5 -85.5t28.5 -95.5q-13 -79 -50 -136.5t-92 -97t-125 -63.5t-148.5 -36t-162 -14t-165 2t-158.5 12t-142 16 q-33 -102 -104.5 -183.5t-167.5 -138.5t-208 -87.5t-226 -30.5q-105 0 -180 27.5t-123 75t-70 110t-21 132.5zM1349 882l137 137q37 -38 68 -70t68 -67l-136 -136q-38 37 -69.5 67.5t-67.5 68.5zM1377 297q172 -12 290 -7.5t195.5 19.5t120 37.5t64.5 46.5q9 23 -3.5 46.5 t-39.5 42t-65 30.5t-80 12q-16 0 -31.5 -1t-29.5 -5q-42 -8 -91.5 -28.5t-103.5 -49.5t-111.5 -66t-114.5 -77z" />
<glyph unicode="&#x637;" horiz-adv-x="1328" d="M51 332.5q2 69.5 22 166.5q2 -69 36.5 -109.5t85.5 -60t110 -21t109 6.5q16 88 16.5 175.5t-8 182t-22 200t-26.5 229.5q6 17 21 45.5t32 55.5t32.5 47t22.5 20q4 0 15.5 -13.5t26 -34.5t30.5 -46.5t29 -48.5t21.5 -40.5t8.5 -23.5q1 -2 -11.5 -18.5t-27.5 -38t-28 -43.5 t-13 -34q-4 -82 -2 -150t-0.5 -136t-15 -144.5t-43.5 -175.5q42 26 89.5 68.5t99 90t104.5 95.5t105 86.5t101.5 63t93.5 24.5q67 0 115 -28.5t73 -75t26 -104.5t-25 -118q-35 -76 -100 -127.5t-146.5 -84.5t-174 -50t-182 -24.5t-170.5 -7.5h-140q-111 0 -174 21t-90.5 66 t-25.5 114.5zM535 315q130 4 228.5 13t169.5 21t117.5 26.5t74.5 29.5t39 29.5t11 27.5q0 21 -11.5 38t-36 29t-63 17.5t-93.5 4.5q-44 -7 -95.5 -29t-107.5 -54t-115 -71.5t-118 -81.5z" />
<glyph unicode="&#x638;" horiz-adv-x="1328" d="M51 332.5q2 69.5 22 166.5q2 -69 36.5 -109.5t85.5 -60t110 -21t109 6.5q16 88 16.5 175.5t-8 182t-22 200t-26.5 229.5q6 17 21 45.5t32 55.5t32.5 47t22.5 20q4 0 15.5 -13.5t26 -34.5t30.5 -46.5t29 -48.5t21.5 -40.5t8.5 -23.5q1 -2 -11.5 -18.5t-27.5 -38t-28 -43.5 t-13 -34q-4 -82 -2 -150t-0.5 -136t-15 -144.5t-43.5 -175.5q42 26 89.5 68.5t99 90t104.5 95.5t105 86.5t101.5 63t93.5 24.5q67 0 115 -28.5t73 -75t26 -104.5t-25 -118q-35 -76 -100 -127.5t-146.5 -84.5t-174 -50t-182 -24.5t-170.5 -7.5h-140q-111 0 -174 21t-90.5 66 t-25.5 114.5zM535 315q130 4 228.5 13t169.5 21t117.5 26.5t74.5 29.5t39 29.5t11 27.5q0 21 -11.5 38t-36 29t-63 17.5t-93.5 4.5q-44 -7 -95.5 -29t-107.5 -54t-115 -71.5t-118 -81.5zM718 955l137 137q37 -38 68 -70t68 -67l-136 -136q-38 37 -69.5 67.5t-67.5 68.5z" />
<glyph unicode="&#x639;" horiz-adv-x="950" d="M49 -205q0 75 10.5 146t37.5 140t73 137.5t117 138.5q-57 50 -81 107.5t-23.5 117t22 117t56.5 106t79.5 86t91.5 56.5q37 0 75 -16.5t70 -43t56.5 -59.5t36.5 -64q-50 17 -103 16t-104.5 -16.5t-100 -44.5t-88.5 -67q42 -65 82.5 -103t81.5 -56.5t84 -21t89 4t96 18.5 t107 22q-9 -25 -17 -46t-15 -41t-15 -41.5t-17 -46.5q-81 -16 -155.5 -33.5t-140.5 -40.5t-120.5 -55t-94.5 -78t-64 -108.5t-28 -146.5q1 -38 16.5 -87.5t56.5 -101.5t113.5 -102t187 -89t277.5 -63.5t385 -24.5q-178 -78 -331 -106t-279 -17t-223.5 56t-164.5 113.5 t-101.5 155.5t-34.5 182z" />
<glyph unicode="&#x63a;" horiz-adv-x="950" d="M49 -205q0 75 10.5 146t37.5 140t73 137.5t117 138.5q-57 50 -81 107.5t-23.5 117t22 117t56.5 106t79.5 86t91.5 56.5q37 0 75 -16.5t70 -43t56.5 -59.5t36.5 -64q-50 17 -103 16t-104.5 -16.5t-100 -44.5t-88.5 -67q42 -65 82.5 -103t81.5 -56.5t84 -21t89 4t96 18.5 t107 22q-9 -25 -17 -46t-15 -41t-15 -41.5t-17 -46.5q-81 -16 -155.5 -33.5t-140.5 -40.5t-120.5 -55t-94.5 -78t-64 -108.5t-28 -146.5q1 -38 16.5 -87.5t56.5 -101.5t113.5 -102t187 -89t277.5 -63.5t385 -24.5q-178 -78 -331 -106t-279 -17t-223.5 56t-164.5 113.5 t-101.5 155.5t-34.5 182zM104 1139l137 137q37 -38 68 -70t68 -67l-136 -136q-38 37 -69.5 67.5t-67.5 68.5z" />
<glyph unicode="&#x640;" horiz-adv-x="331" d="M-24 141v182h381v-182h-381z" />
<glyph unicode="&#x641;" horiz-adv-x="1539" d="M47.5 313.5q-5.5 77.5 31 188.5t124.5 263q-67 -120 -85 -203.5t2 -139t72 -86.5t125 -45t161 -15t180.5 4t183.5 11t170 7q-1 29 1 57t2 37q0 51 9.5 104t27 102t42 92.5t54 75.5t64 50.5t71.5 18.5q32 0 59.5 -23.5t50.5 -60t40.5 -81t29 -87t16.5 -77.5t2 -53 q0 -71 -15 -152t-32 -161q-91 4 -197.5 -3t-219.5 -18t-227 -22.5t-220 -15.5t-199 2.5t-163 32t-112.5 73t-48 125zM942 1147l145 145q39 -41 72 -74t72 -71l-144 -144q-20 19 -38 36.5t-35.5 35l-35 35t-36.5 37.5zM1121 525q0 -27 18 -61.5t52 -65t83 -51.5t112 -21 q6 51 -7 104.5t-38 98t-57.5 72.5t-65.5 28q-14 0 -31 -8t-31.5 -22t-24.5 -33t-10 -41z" />
<glyph unicode="&#x642;" horiz-adv-x="1182" d="M53 -71.5q-22 109.5 14 259t125 327.5q-70 -160 -87 -276t9 -193.5t90.5 -119t157 -52.5t208.5 6t244 57q94 39 145 74.5t71.5 79.5t16 101.5t-20.5 138.5q-25 -45 -61.5 -78.5t-77 -56t-80.5 -33.5t-72 -11q-44 0 -70 25t-35.5 65.5t-5 92.5t20 106t41.5 106t58.5 92.5 t70.5 65.5t78 25q27 10 55 -1.5t54 -39.5t49.5 -69t40.5 -90t27 -104.5t10 -110.5q0 -148 -61 -264t-163.5 -196t-237 -122t-281.5 -43q-147 3 -229 66t-104 172.5zM388 940l127 127q30 -32 56 -58.5t56 -55.5l114 114q34 -35 62.5 -64.5t63.5 -62.5l-126 -126 q-32 32 -58.5 57.5t-55.5 54.5l-112 -112q-35 35 -64 63t-63 63zM700 432q0 -38 18 -64.5t53.5 -36t88.5 0t123 45.5q1 18 -8.5 51t-28 65t-45 55.5t-57.5 23.5t-57.5 -12.5t-45.5 -32.5t-30 -45t-11 -50z" />
<glyph unicode="&#x643;" horiz-adv-x="1370" d="M55 402q16 115 82 284q-46 -125 -46 -209q0 -83 34.5 -134t99.5 -74t149.5 -26.5t184 8t204 30t208.5 39.5t197 35q-2 63 -7 133t-11 141.5t-13.5 140.5t-14.5 130t-13 110.5t-9 81.5q5 8 13 27t17 41.5t19 45t18.5 38.5t16 21.5t11.5 -5.5q10 -26 20 -49t24.5 -44.5 t36.5 -42.5t55 -42q3 -2 0 -14.5t-10 -30.5t-16.5 -37.5t-19.5 -36.5t-18.5 -28t-13.5 -11q3 -37 6 -80t5.5 -87t4.5 -86t3.5 -77t2 -61t0.5 -36q0 -83 -19.5 -167t-60.5 -159q-119 -16 -242 -39t-240.5 -42.5t-224 -30t-193 -0.5t-146.5 46t-85 109t-9 188zM434 571.5 q4 3.5 22.5 10.5t48.5 19t66.5 28t77 36.5t80.5 45.5q-24 5 -51 18.5t-50 30t-38 33t-15 28.5q-17 32 -8 66.5t34 68.5t61 64.5t72.5 53.5t69 36.5t50.5 13.5q4 0 -5.5 -19t-35.5 -61q-6 -11 -32.5 -25.5t-56 -30.5t-53 -33t-23.5 -32q0 -12 15 -22t36.5 -20t47 -21t46 -24 t33 -29.5t8.5 -37.5q-6 -31 -36.5 -64.5t-81.5 -62.5t-120 -49t-151 -24q-15 -1 -11 2.5z" />
<glyph unicode="&#x644;" horiz-adv-x="1024" d="M53.5 52q2.5 63 19.5 127.5t41.5 123t53.5 107t57 78.5q-65 -99 -92 -196t-7.5 -175t90.5 -128.5t203 -56.5q49 -2 104 9t108.5 32t102 51.5t84.5 67.5l-80 1000q5 8 13 27t17 41.5t19 45t18.5 38.5t16 21.5t11.5 -5.5q10 -26 20 -49t24.5 -44.5t36.5 -42.5t55 -42 q3 -2 0 -14.5t-10 -30.5t-16.5 -37.5t-19.5 -36.5t-18.5 -28t-13.5 -11q2 -20 3.5 -44.5t3.5 -61.5t4 -91.5t4.5 -135t5.5 -191.5t6 -260q-22 -84 -65.5 -157t-109.5 -128t-154.5 -86.5t-200.5 -31.5q-99 0 -164.5 25.5t-104 69t-53.5 100.5t-12.5 120z" />
<glyph unicode="&#x645;" horiz-adv-x="793" d="M52 149q3 34 12 67.5t21.5 63t24.5 46.5q37 39 78.5 63.5t91 39t110 20.5t135.5 8q-24 58 -61.5 97.5t-84 52t-101 -5t-111.5 -72.5q23 43 51.5 90.5t59 87t60 65t55.5 25.5q40 0 86.5 -23.5t93 -67t91.5 -105t83 -138.5l-59 -232q-27 16 -71 26t-96 12.5t-108.5 -1.5 t-108.5 -15t-96 -29.5t-71 -44.5q55 -138 86 -245.5t42 -199.5t3 -175.5t-32 -172.5q-2 98 -22 184t-48 169.5t-58.5 168.5t-52.5 181q-6 26 -3 60z" />
<glyph unicode="&#x646;" horiz-adv-x="1207" d="M50 47q1 55 9.5 100t26 97t44 119t64.5 167q-2 -11 -9 -35.5t-15.5 -55.5t-18 -64.5t-18 -63t-13.5 -51.5t-5 -29q0 -88 31 -151.5t84.5 -105.5t124 -63t149 -22t160.5 17t158.5 53.5t143 87t113.5 118.5q-9 56 -21.5 110t-31.5 106.5t-45.5 104t-64.5 103.5 q31 44 57.5 80t58.5 77q28 -42 51 -95t39 -109t25 -110t9 -98q0 -99 -27 -184t-75 -155.5t-114.5 -125t-145.5 -91.5t-168 -56.5t-182 -19.5q-105 0 -180 27.5t-123 75t-70 110t-21 132.5zM487 868l145 145q39 -41 72 -74t72 -71l-144 -144q-20 19 -38 36.5t-35.5 35l-35 35 t-36.5 37.5z" />
<glyph unicode="&#x647;" horiz-adv-x="588" d="M58 259q0 48 11 103.5t30 110.5t45.5 106.5t57.5 91.5t65.5 65t69.5 28q37 -4 71 -33t60.5 -74t43 -102t19 -116.5t-11 -117t-48.5 -105t-92.5 -80t-142.5 -41.5q-91 -10 -134.5 34.5t-43.5 129.5zM134.5 408.5q-7.5 -43.5 6 -77t51.5 -49.5t107 1l157 37q0 28 -11 72.5 t-33 87t-55.5 73t-78.5 30.5q-33 0 -64 -27t-51.5 -65.5t-28 -82z" />
<glyph unicode="&#x648;" horiz-adv-x="679" d="M-331 -276q67 -2 135 -2t138 9.5t142 32.5t148 66.5t156 111t166 166.5l-27 156q-25 -40 -62.5 -67t-79 -40.5t-83.5 -12t-75 20.5t-54 56.5t-21 94.5q0 43 9.5 91.5t27 96t41 91.5t52 78t61 55t66.5 23q96 -86 146.5 -193t59.5 -221t-22 -227t-97.5 -212t-166.5 -176.5 t-229 -118.5q-23 0 -59 7.5t-77.5 19t-85.5 25.5t-84.5 27t-73 24.5t-51.5 17.5zM245 443q0 -20 9.5 -42.5t28 -41.5t45 -31t60.5 -12h22q11 0 23 2t26 6t34 12q-15 56 -33 97.5t-36 69t-35 41t-29 13.5q-26 0 -47.5 -10t-36.5 -26t-23 -36.5t-8 -41.5z" />
<glyph unicode="&#x649;" horiz-adv-x="1291" d="M76.5 224q21.5 137 90.5 299q-6 -15 -17.5 -50t-21 -80.5t-14 -97.5t3 -103t31 -95.5t70 -75.5t119.5 -43t179.5 2.5t249.5 60t331 130.5q-45 43 -96 70t-99.5 44.5t-91.5 28.5t-71 22q-30 32 -26.5 86.5t31.5 117.5t75.5 129t105.5 122t122 95t125 49q24 4 39.5 -10 t23 -38.5t7.5 -55.5t-7.5 -61t-21 -55.5t-33.5 -37.5q-8 37 -29.5 51t-51 11t-64 -19t-67.5 -39t-62.5 -49.5t-48.5 -50.5t-25 -42t7 -24q69 -30 130 -51.5t106 -48t71 -65t26 -102.5q0 -6 -4 -23t-10 -39t-13 -47.5t-14 -48t-12 -40l-7 -24.5q-232 -134 -412 -194 t-308 -58.5t-205.5 58t-105 156t-6 236.5z" />
<glyph unicode="&#x64a;" horiz-adv-x="1291" d="M76.5 224q21.5 137 90.5 299q-6 -15 -17.5 -50t-21 -80.5t-14 -97.5t3 -103t31 -95.5t70 -75.5t119.5 -43t179.5 2.5t249.5 60t331 130.5q-45 43 -96 70t-99.5 44.5t-91.5 28.5t-71 22q-30 32 -26.5 86.5t31.5 117.5t75.5 129t105.5 122t122 95t125 49q24 4 39.5 -10 t23 -38.5t7.5 -55.5t-7.5 -61t-21 -55.5t-33.5 -37.5q-8 37 -29.5 51t-51 11t-64 -19t-67.5 -39t-62.5 -49.5t-48.5 -50.5t-25 -42t7 -24q69 -30 130 -51.5t106 -48t71 -65t26 -102.5q0 -6 -4 -23t-10 -39t-13 -47.5t-14 -48t-12 -40l-7 -24.5q-232 -134 -412 -194 t-308 -58.5t-205.5 58t-105 156t-6 236.5zM293 -541l127 127q30 -32 56 -58.5t56 -55.5l114 114q34 -35 62.5 -64.5t63.5 -62.5l-126 -126q-32 32 -58.5 57.5t-55.5 54.5l-112 -112q-35 35 -64 63t-63 63z" />
<glyph unicode="&#x64b;" horiz-adv-x="408" d="M49 1482l17 91l340 193l-17 -91zM63 1649l17 91l340 193l-17 -91z" />
<glyph unicode="&#x64c;" horiz-adv-x="469" d="M45 1619q19 27 44.5 43.5t50.5 22t47 -1t34 -24.5t10.5 -48t-23.5 -72q46 20 85.5 44t71.5 62q-41 10 -60.5 31.5t-22 47.5t8 53t30 49.5t44 36t49.5 12.5q21 -2 28 -24.5t6.5 -51t-6 -55.5t-8.5 -37l38 -12l-17 -76l-46 13q-6 -14 -19.5 -33.5t-32 -40t-40.5 -39.5 t-45.5 -31t-47.5 -15t-46 8t-24 31.5t3 42t10.5 42t-2 32t-34.5 10.5t-86 -20zM334 1773q-2 -11 3 -19t14 -14t20.5 -11.5t24.5 -11.5q2 19 2 35q0 14 -2.5 26.5t-7.5 16.5v-2q-10 10 -23 10q-14 1 -22.5 -8.5t-8.5 -21.5z" />
<glyph unicode="&#x64d;" horiz-adv-x="408" d="M38 -509l17 91l340 193l-17 -91zM65 -341l17 91l340 193l-17 -91z" />
<glyph unicode="&#x64e;" horiz-adv-x="408" d="M49 1482l17 91l340 193l-17 -91z" />
<glyph unicode="&#x64f;" horiz-adv-x="414" d="M13 1507q61 25 105.5 43t79 36t62.5 39.5t56 54.5q-47 11 -69 34t-25.5 51t9 57.5t34 53.5t49.5 38.5t56 13.5q16 -1 25 -12.5t12.5 -29t2.5 -39t-3.5 -41.5t-6.5 -36.5t-7 -24.5l44 -13l-19 -80l-52 12q-11 -23 -37.5 -52.5t-62.5 -55t-78.5 -42.5t-85.5 -15 q-29 2 -47.5 3t-28.5 2t-12.5 1.5t-0.5 1.5zM279 1818q-2 -25 20 -37t51 -23q2 20 2 38q0 15 -2 28.5t-9 18.5v-2q-5 6 -12 8t-12 2q-17 2 -27 -8.5t-11 -24.5z" />
<glyph unicode="&#x650;" horiz-adv-x="408" d="M55 -341l17 91l340 193l-17 -91z" />
<glyph unicode="&#x651;" horiz-adv-x="425" d="M59.5 1603.5q-1.5 27.5 2 53.5t10.5 47.5t14 31.5q0 -3 5 1t11.5 9t11.5 8.5t5 0.5q-8 -20 -13.5 -46.5t-3 -50t14 -39.5t37.5 -15q29 0 44.5 16t23.5 37.5t12.5 44.5t12.5 38q1 -3 5 0t9 7.5t9.5 8t5.5 0.5q-8 -29 -2.5 -54t19.5 -40t35.5 -18t46.5 14q6 9 5.5 22 t-4.5 26.5t-11 27t-14 23.5q13 18 24.5 34t22.5 32q11 -17 17.5 -36t11.5 -38q6 -33 3 -67t-15 -62t-33 -45.5t-51 -17.5q-25 0 -37.5 9t-27.5 23q-6 -10 -15 -23t-22 -25t-31 -21t-40 -11q-35 -3 -56 10t-31 35t-11.5 49.5z" />
<glyph unicode="&#x652;" horiz-adv-x="328" d="M59 1556q-5 33 3.5 75.5t27 81.5t46 67t59.5 33q28 4 54 -6.5t46.5 -28.5t34.5 -40.5t17 -41.5q5 -34 -10 -71.5t-41 -87.5v1q0 1 1 2l-3 -5q-24 -14 -61.5 -26.5t-74 -15t-65 11t-34.5 51.5zM123 1643q3 -22 21 -32.5t42 -11t50 6.5t46 21l1 1q-3 14 -13.5 30t-25 29.5 t-31.5 22t-35 5.5q-30 -5 -44 -27t-11 -45zM294 1535l1 1q0 -1 -1 -1zM295 1536l1 1q0 -1 -1 -1z" />
<glyph unicode="&#x660;" horiz-adv-x="366" d="M65 546l97 184q39 -40 76.5 -78t74.5 -76q-23 -54 -46 -101.5t-47 -99.5q-17 16 -36.5 38t-40 45t-40.5 46t-38 42z" />
<glyph unicode="&#x661;" horiz-adv-x="415" d="M58 1045q0 5 12.5 27.5t33 51t45.5 57.5t51 47q28 -99 56 -194t50 -185.5t36 -175t14 -161.5q0 -237 -52 -391q-7 113 -26 217.5t-49.5 213.5t-73 229t-97.5 264z" />
<glyph unicode="&#x662;" horiz-adv-x="599" d="M45 1003q-1 10 2 39.5t10.5 65t19.5 71t30 56.5q56 -56 112.5 -85.5t112.5 -29.5q24 0 54 2t61 8t61 18t54 33q0 -24 -5.5 -52t-19 -55.5t-36 -52t-56.5 -42t-81 -26t-109 -3.5q52 -131 75 -248.5t23 -220.5q0 -114 -21.5 -210.5t-57.5 -169.5q-7 121 -18.5 234.5 t-36.5 223.5t-66.5 220t-107.5 224z" />
<glyph unicode="&#x663;" horiz-adv-x="824" d="M55 987q0 13 7.5 44.5t20 69t29 73.5t35.5 59q20 -28 38.5 -52.5t37.5 -42.5t40 -28.5t47 -10.5q35 0 81 19t113 63q22 -48 56.5 -73t72.5 -25q43 0 86 22t74 68q-4 -32 -19 -70.5t-39 -71.5t-56.5 -55.5t-71.5 -22.5q-26 0 -58.5 16t-70.5 53q-30 -26 -48 -40.5 t-35.5 -24t-41 -17t-63.5 -19.5q19 -60 38.5 -120t35.5 -118.5t25.5 -115t9.5 -109.5q0 -97 -13.5 -184t-38.5 -158q-5 112 -23 216t-53 208.5t-88 214t-128 232.5z" />
<glyph unicode="&#x664;" horiz-adv-x="614" d="M57 324q-1 43 13 91t49.5 99t94 103.5t146.5 104.5q-45 11 -70.5 15.5t-44.5 6.5q-26 4 -54 9.5t-53 13t-44.5 17t-27.5 21.5q-6 69 5 121.5t35 94.5t58.5 75t75 63t84.5 59t86 63q-14 -48 -27 -85.5t-26 -82.5l-233 -177q102 -17 168.5 -36.5t105.5 -40t52.5 -42.5 t9.5 -43q-11 -54 -33 -93.5t-49.5 -69.5t-59 -54t-62.5 -47t-59 -48.5t-49 -58.5q-19 -30 5.5 -58t81.5 -50.5t142 -39t188 -23.5l-53 -157q-135 8 -225.5 30t-143.5 55t-72.5 75t-13.5 89z" />
<glyph unicode="&#x665;" horiz-adv-x="735" d="M57 376.5q-5 61.5 19 139t67 157t99.5 154.5t116 130.5t117 85t102.5 18t73 -70t28 -178.5q0 -43 -8 -93.5t-20 -103.5t-27.5 -106.5t-30.5 -101.5q-21 -29 -62 -58.5t-92 -53.5t-107.5 -39.5t-107.5 -15.5q-84 0 -123 37.5t-44 99zM151 573q0 -36 11.5 -61t31.5 -40.5 t47 -22.5t57 -7q37 0 77.5 9.5t77 25.5t67 36t48.5 41q4 8 4.5 33.5t-4.5 58.5t-16 69.5t-30.5 67t-48.5 50t-69 19.5q-18 0 -44 -15.5t-54 -40.5t-56 -56t-50 -62t-35.5 -59t-13.5 -46z" />
<glyph unicode="&#x666;" horiz-adv-x="712" d="M53 1058q8 45 15.5 87t15.5 89q42 -29 100 -48.5t123.5 -25t132.5 5t127 42.5q-33 -123 -36 -254t14.5 -260t50 -251.5t71.5 -228.5q-31 -43 -58.5 -80t-56.5 -78q-35 99 -64 213.5t-47.5 236.5t-24.5 248.5t5 248.5q-20 -12 -56 -17.5t-77.5 -5t-84.5 6.5t-77 16.5 t-55 24.5t-18 30z" />
<glyph unicode="&#x667;" horiz-adv-x="994" d="M42 1078q29 42 56 82t54 81q49 -73 100.5 -175t99 -223.5t89.5 -258t73 -279.5q24 122 65.5 254.5t90.5 258t102 234t101 181.5l84 -152q-79 -107 -134.5 -219t-96.5 -227t-71.5 -232t-58.5 -234q-23 -14 -42.5 -26.5t-38.5 -25t-38 -25.5t-42 -26q-4 96 -26.5 193 t-55.5 191.5t-74.5 183.5t-83.5 169.5t-82 150t-71 124.5z" />
<glyph unicode="&#x668;" horiz-adv-x="1015" d="M55 227q79 107 134.5 219t96 226.5t70 232t57.5 235.5q47 27 82.5 50.5t79.5 51.5q4 -93 25.5 -188t54.5 -189t74 -184t83.5 -171.5t83.5 -152.5t73 -127q-28 -42 -56.5 -82.5t-55.5 -80.5q-33 48 -69 114.5t-71.5 144t-70 163.5t-64 175t-54 177.5t-40.5 171.5 q-36 -146 -77 -283.5t-86.5 -259t-93.5 -222.5t-97 -173z" />
<glyph unicode="&#x669;" horiz-adv-x="767" d="M52.5 790.5q-2.5 58.5 10.5 121.5t40 125t64.5 111t84.5 79t100 30q44 0 73 -30.5t48.5 -83t32.5 -123t26 -149.5q12 -74 26 -154.5t35 -163t51.5 -165t74.5 -158.5l-111 -166q-42 54 -71 129t-51 165.5t-37.5 194t-30.5 214.5q-52 -55 -97 -92.5t-74 -57.5 q-65 -12 -107 8.5t-63.5 63.5t-24 101.5zM144.5 907q4.5 -38 30.5 -63t77 -31t131 21q3 31 -1 72.5t-17.5 78.5t-39 62.5t-65.5 25.5q-38 -4 -66 -30.5t-41 -62t-8.5 -73.5z" />
<glyph unicode="&#x66a;" horiz-adv-x="889" d="M65 847l145 145q39 -41 72 -74t72 -71l-144 -144q-20 19 -38 36.5t-35.5 35l-35 35t-36.5 37.5zM264 -115l204 1210q-1 3 16 16t42.5 31.5t55.5 38.5t56 37q-36 -226 -66.5 -404t-58.5 -315.5t-55.5 -238.5t-57 -174t-63 -121t-73.5 -80zM506 191l145 145q39 -41 72 -74 t72 -71l-144 -144q-20 19 -38 36.5t-35.5 35l-35 35t-36.5 37.5z" />
<glyph unicode="&#x66d;" horiz-adv-x="815" d="M71 1074v68l214 18l-139 162l47 49l164 -139l17 213h68l17 -213l163 139l49 -49l-140 -162l214 -18v-68l-214 -17l140 -163l-49 -48l-163 139l-17 -214h-68l-17 214l-164 -139l-47 48l139 163z" />
<glyph unicode="&#x6f9;" horiz-adv-x="1033" d="M93 175v934h934v-934h-934zM223 304h675v675h-675v-675z" />
<glyph unicode="&#x2000;" horiz-adv-x="1067" />
<glyph unicode="&#x2001;" horiz-adv-x="2134" />
<glyph unicode="&#x2002;" horiz-adv-x="1067" />
<glyph unicode="&#x2003;" horiz-adv-x="2134" />
<glyph unicode="&#x2004;" horiz-adv-x="711" />
<glyph unicode="&#x2005;" horiz-adv-x="533" />
<glyph unicode="&#x2006;" horiz-adv-x="355" />
<glyph unicode="&#x2007;" horiz-adv-x="355" />
<glyph unicode="&#x2008;" horiz-adv-x="266" />
<glyph unicode="&#x2009;" horiz-adv-x="426" />
<glyph unicode="&#x200a;" horiz-adv-x="118" />
<glyph unicode="&#x200c;" horiz-adv-x="45" d="M10 -80v1631h25v-1631h-25z" />
<glyph unicode="&#x200d;" horiz-adv-x="45" d="M-102 1427l109 109l-109 108l16 16l109 -108l109 108l16 -16l-109 -108l109 -109l-16 -16l-97 96v-1587h-25v1586l-96 -95z" />
<glyph unicode="&#x200e;" horiz-adv-x="45" d="M8 -80v1631h234l-93 93l17 17l125 -124q-32 -33 -62.5 -63.5l-62.5 -62.5l-17 17l97 97h-213v-1605h-25z" />
<glyph unicode="&#x200f;" horiz-adv-x="45" d="M-246 1537l125 124l17 -17l-93 -93h234v-1631h-25v1605h-213l97 -97l-17 -17q-32 32 -62.5 63t-62.5 63z" />
<glyph unicode="&#x2010;" horiz-adv-x="692" d="M96 389q6 36 11 63.5l11 60.5h499l-24 -124h-497z" />
<glyph unicode="&#x2011;" horiz-adv-x="692" d="M96 389q6 36 11 63.5l11 60.5h499l-24 -124h-497z" />
<glyph unicode="&#x2012;" horiz-adv-x="692" d="M96 389q6 36 11 63.5l11 60.5h499l-24 -124h-497z" />
<glyph unicode="&#x2013;" d="M-10 424v89h991v-89h-991z" />
<glyph unicode="&#x2014;" horiz-adv-x="1946" d="M-3 424v90h1951v-90h-1951z" />
<glyph unicode="&#x2018;" horiz-adv-x="351" d="M89 1264l117 -70q20 -103 41.5 -202t41.5 -202h-53q-14 23 -37.5 71.5t-47 112t-42 138.5t-20.5 152z" />
<glyph unicode="&#x2019;" horiz-adv-x="363" d="M87 790q11 54 21.5 103.5t20.5 98.5t20.5 99t21.5 103l113 68q-9 -87 -29.5 -165.5t-43 -140.5t-43.5 -105.5t-30 -60.5h-51zM133 779l5 10v1h13z" />
<glyph unicode="&#x201a;" horiz-adv-x="648" d="M194 86q0 54 36 86q36 36 85 36q29 0 57 -15t53 -43q49 -55 49 -149q0 -50 -16.5 -97.5t-51 -88.5t-87 -75t-125.5 -58v60q98 32 150 96q53 67 53 134q0 13 -9 25v-1q-5 5 -13 5q-6 0 -17 -5t-28 -13q-17 -10 -35 -10q-46 0 -73.5 30t-27.5 83z" />
<glyph unicode="&#x201c;" horiz-adv-x="575" d="M86 1264l117 -70q20 -103 41.5 -202t41.5 -202h-53q-14 23 -37.5 71.5t-47 112t-42 138.5t-20.5 152zM301 1263l115 -69q20 -103 41.5 -202t41.5 -202h-52q-10 19 -30.5 63t-43 106t-43 140t-29.5 164z" />
<glyph unicode="&#x201d;" horiz-adv-x="575" d="M85 790q20 103 41.5 202t41.5 202l115 69q-9 -86 -29.5 -164t-43 -140t-43 -106t-30.5 -63h-52zM298 790q20 103 41.5 202t41.5 202l117 70q-2 -77 -20.5 -152t-42 -138.5t-47.5 -112t-37 -71.5h-53z" />
<glyph unicode="&#x2022;" horiz-adv-x="609" d="M40 414q0 58 22 108.5t60 88.5t89 60t109 22t108.5 -22t88.5 -60t60 -88.5t22 -108.5q0 -57 -22 -108t-60 -88.5t-88.5 -59.5t-108.5 -22t-109 22t-89 59.5t-60 88.5t-22 108z" />
<glyph unicode="&#x202f;" horiz-adv-x="426" />
<glyph unicode="&#x205f;" horiz-adv-x="533" />
<glyph unicode="&#x2122;" horiz-adv-x="1484" d="M212 1366v52h381v-52h-151v-404h-78v404h-152zM716 962v456h117l140 -354q31 84 64.5 177t64.5 177h119v-456h-69v385l-16 3q-36 -98 -72 -194.5t-73 -193.5h-37l-154 389l-15 -3v-386h-69z" />
<glyph unicode="&#xe000;" horiz-adv-x="880" d="M0 0v880h880v-880h-880z" />
<glyph unicode="&#xe820;" horiz-adv-x="408" d="M61 1032l17 91l340 193l-17 -91z" />
<glyph unicode="&#xe821;" horiz-adv-x="414" d="M-7 1047q61 25 105.5 43t79 36t62.5 39.5t56 54.5q-47 11 -69 34t-25.5 51t9 57.5t34 53.5t49.5 38.5t56 13.5q16 -1 25 -12.5t12.5 -29t2.5 -39t-3.5 -41.5t-6.5 -36.5t-7 -24.5l44 -13l-19 -80l-52 12q-11 -23 -37.5 -52.5t-62.5 -55t-78.5 -42.5t-85.5 -15 q-29 2 -47.5 3t-28.5 2t-12.5 1.5t-0.5 1.5zM259 1358q-2 -25 20 -37t51 -23q2 20 2 38q0 15 -2 28.5t-9 18.5v-2q-5 6 -12 8t-12 2q-17 2 -27 -8.5t-11 -24.5z" />
<glyph unicode="&#xe822;" horiz-adv-x="328" d="M56 1109q-5 33 3.5 75.5t27 81.5t46 67t59.5 33q28 4 54 -6.5t46.5 -28.5t34.5 -40.5t17 -41.5q5 -34 -10 -71.5t-41 -87.5v1q0 1 1 2l-3 -5q-24 -14 -61.5 -26.5t-74 -15t-65 11t-34.5 51.5zM120 1196q3 -22 21 -32.5t42 -11t50 6.5t46 21l1 1q-3 14 -13.5 30t-25 29.5 t-31.5 22t-35 5.5q-30 -5 -44 -27t-11 -45zM291 1088l1 1q0 -1 -1 -1zM292 1089l1 1q0 -1 -1 -1z" />
<glyph unicode="&#xe823;" horiz-adv-x="408" d="M51 1029l17 91l340 193l-17 -91zM65 1196l17 91l340 193l-17 -91z" />
<glyph unicode="&#xe824;" horiz-adv-x="469" d="M44 1194q19 27 44.5 43.5t50.5 22t47 -1t34 -24.5t10.5 -48t-23.5 -72q46 20 85.5 44t71.5 62q-41 10 -60.5 31.5t-22 47.5t8 53t30 49.5t44 36t49.5 12.5q21 -2 28 -24.5t6.5 -51t-6 -55.5t-8.5 -37l38 -12l-17 -76l-46 13q-6 -14 -19.5 -33.5t-32 -40t-40.5 -39.5 t-45.5 -31t-47.5 -15t-46 8t-24 31.5t3 42t10.5 42t-2 32t-34.5 10.5t-86 -20zM333 1348q-2 -11 3 -19t14 -14t20.5 -11.5t24.5 -11.5q2 19 2 35q0 14 -2.5 26.5t-7.5 16.5v-2q-10 10 -23 10q-14 1 -22.5 -8.5t-8.5 -21.5z" />
<glyph unicode="&#xe825;" horiz-adv-x="425" d="M57.5 1144.5q-1.5 27.5 2 53.5t10.5 47.5t14 31.5q0 -3 5 1t11.5 9t11.5 8.5t5 0.5q-8 -20 -13.5 -46.5t-3 -50t14 -39.5t37.5 -15q29 0 44.5 16t23.5 37.5t12.5 44.5t12.5 38q1 -3 5 0t9 7.5t9.5 8t5.5 0.5q-8 -29 -2.5 -54t19.5 -40t35.5 -18t46.5 14q6 9 5.5 22 t-4.5 26.5t-11 27t-14 23.5q13 18 24.5 34t22.5 32q11 -17 17.5 -36t11.5 -38q6 -33 3 -67t-15 -62t-33 -45.5t-51 -17.5q-25 0 -37.5 9t-27.5 23q-6 -10 -15 -23t-22 -25t-31 -21t-40 -11q-35 -3 -56 10t-31 35t-11.5 49.5z" />
<glyph unicode="&#xe826;" horiz-adv-x="408" d="M55 -341l17 91l340 193l-17 -91z" />
<glyph unicode="&#xe827;" horiz-adv-x="408" d="M38 -509l17 91l340 193l-17 -91zM65 -341l17 91l340 193l-17 -91z" />
<glyph unicode="&#xe828;" horiz-adv-x="425" d="M60 1259l17 91l340 193l-17 -91zM65 1140q0 21 4.5 39.5t9.5 29.5q0 -3 4.5 1.5t9.5 10.5t10 10.5t5 1.5q-5 -21 -7 -40t2 -32.5t17 -19t38 -0.5q28 5 41 23t17.5 40.5t5.5 46t6 39.5q1 -3 4.5 1t7.5 9t8 9.5t6 1.5q-3 -30 6.5 -54t26 -36.5t38 -11.5t42.5 21q4 10 2 23 t-8.5 25.5t-15.5 24.5t-18 21q5 10 14.5 15.5t20 10t20 9.5t15.5 13q5 -8 5.5 -12.5t-0.5 -8.5t-1.5 -8.5t3.5 -13.5q12 -32 14.5 -66t-5 -63.5t-25.5 -50.5t-47 -26q-25 -4 -39 3t-31 18q-4 -11 -10.5 -25.5t-18 -28.5t-27 -25.5t-37.5 -16.5q-34 -9 -56 -3.5t-35 20 t-17.5 35t-4.5 40.5z" />
<glyph unicode="&#xe829;" horiz-adv-x="425" d="M11 1347q60 20 103 34t77 28t61.5 31t54.5 43q-46 8 -67.5 26.5t-25 40.5t8.5 45t33 42t48.5 30.5t55.5 10.5q23 -1 31 -20t7.5 -43.5t-6.5 -47.5t-10 -33l43 -10l-19 -63l-50 10q-11 -18 -37 -41t-61.5 -43.5t-76.5 -34t-83 -11.5q-57 4 -75 4q-17 0 -12 2zM72.5 1188.5 q-0.5 26.5 3.5 48.5t9 33q0 -3 5 1.5t10.5 10.5t10 10t4.5 1q-5 -21 -6.5 -47.5t4 -49.5t19.5 -37.5t40 -9.5q28 5 41 23t18 40.5t6.5 45.5t6.5 39q1 -3 4.5 1t8 9t8 9.5t5.5 1.5q-3 -30 6 -54t25.5 -37t38 -12.5t43.5 20.5q4 10 2 23t-8.5 26t-15 25t-17.5 21 q11 20 19.5 37.5t17.5 34.5q13 -15 22.5 -33t17.5 -36q11 -32 13 -66t-6 -63.5t-26.5 -50t-47.5 -24.5q-25 -4 -38.5 3t-30.5 19q-4 -11 -11 -25t-18.5 -28t-27.5 -25.5t-38 -16.5q-34 -8 -56.5 1.5t-36 29.5t-19 47.5t-6 54zM271 1592q-2 -20 19 -29.5t50 -17.5q2 16 2 30 q0 11 -2 22t-9 14v-1q-5 5 -11.5 6.5t-11.5 1.5q-17 1 -26.5 -7t-10.5 -19z" />
<glyph unicode="&#xe82a;" horiz-adv-x="425" d="M70 1154q0 29 22 101l23 4q0 -111 39 -111q29 0 57.5 48t32.5 114l19 6q24 -98 61 -98q24 0 44 42.5t20 104.5l22 11q15 -51 15 -99q0 -76 -29.5 -121t-75.5 -45q-21 0 -64 21q-38 -87 -108 -87q-78 0 -78 109zM74 1283q0 45 12 65q12 17 54 42l272 160q0 -47 -8 -64.5 t-41 -36.5zM74 1433q0 45 12 65t54 44l272 159q0 -47 -8 -65t-41 -37z" />
<glyph unicode="&#xe82b;" horiz-adv-x="468" d="M40 1475q20 23 46.5 37.5t53 18.5t49.5 -1.5t35.5 -20.5t11 -40.5t-24.5 -61.5q48 17 89.5 38t75.5 53q-43 9 -63 27t-23.5 40t8 45t31.5 41.5t46 30t52 10.5q22 -2 29.5 -21t7 -43t-6 -46.5t-9.5 -31.5l40 -10l-18 -65l-48 11q-7 -12 -21 -28.5t-33 -34t-42 -33t-48 -26 t-50 -13t-48 6.5q-23 10 -25 27t3 36t11 36t-2 26.5t-36 9t-91 -17.5zM84.5 1190.5q-0.5 26.5 3.5 48.5t9 33q0 -3 5 1.5t10.5 10.5t10 10t4.5 1q-5 -21 -6.5 -47.5t4 -49.5t19.5 -37.5t40 -9.5q28 5 41 23t18 40.5t6.5 45.5t6.5 39q1 -3 4.5 1t8 9t8 9.5t5.5 1.5 q-3 -30 6 -54t25.5 -37t38 -12.5t43.5 20.5q4 10 2 23t-8.5 26t-15 25t-17.5 21q11 20 19.5 37.5t17.5 34.5q13 -15 22.5 -33t17.5 -36q11 -32 13 -66t-6 -63.5t-26.5 -50t-47.5 -24.5q-25 -4 -38.5 3t-30.5 19q-4 -11 -11 -25t-18.5 -28t-27.5 -25.5t-38 -16.5 q-34 -8 -56.5 1.5t-36 29.5t-19 47.5t-6 54zM343 1606q-2 -10 3.5 -16.5t14.5 -11.5t21.5 -9.5t25.5 -9.5q2 17 2 30q0 11 -2 21.5t-8 14.5v-2q-5 5 -12 6.5t-12 1.5q-14 1 -23.5 -7t-9.5 -18z" />
<glyph unicode="&#xe82c;" horiz-adv-x="425" d="M61.5 1400.5q0.5 26.5 4.5 49t10 32.5q0 -3 4.5 1.5l10.5 10.5t10.5 10t4.5 1q-6 -21 -8 -48t3 -50t18.5 -37.5t39.5 -10.5q29 4 42.5 21t19 39.5t7 46t7.5 39.5q1 -3 5 0.5t8.5 9t8 9.5t5.5 1q-4 -29 4 -53.5t24 -38t37 -13.5q22 0 45 20q5 10 3 22.5t-8 25.5 t-14.5 25.5t-16.5 21.5q11 20 20 37t19 34q12 -15 21.5 -33.5t16.5 -36.5q10 -32 11 -66t-7.5 -63t-27.5 -49t-48 -24q-25 -3 -38.5 4t-30.5 20q-4 -11 -11.5 -25t-19 -27.5t-28 -24.5t-38.5 -16q-34 -7 -56.5 3t-35 31t-17.5 48t-4.5 53.5zM72 1031l17 91l340 193l-17 -91z " />
<glyph unicode="&#xe82d;" horiz-adv-x="425" d="M35 1007l33 75l350 141l-33 -75zM45 1112l33 75l350 141l-33 -75zM60.5 1413.5q0.5 26.5 5 49t9.5 32.5q0 -3 4.5 1.5l10.5 10.5t10.5 10t4.5 1q-6 -21 -8 -48t3 -50t18.5 -37.5t39.5 -10.5q29 4 42.5 21t19 39.5t7 46t7.5 39.5q1 -3 5 0.5t8.5 9t8 9.5t5.5 1 q-4 -29 4 -53.5t24 -38t37 -13.5q22 0 45 20q5 10 3 22.5t-8 25.5t-14.5 25.5t-16.5 21.5q11 20 20 37t19 34q12 -15 21.5 -33.5t16.5 -36.5q10 -32 11 -66t-7.5 -63t-27.5 -49t-48 -24q-25 -3 -38.5 4t-30.5 20q-4 -11 -11.5 -25t-19 -27.5t-28 -24.5t-38.5 -16 q-34 -7 -56.5 3t-35 31t-17.5 48t-4.5 53.5z" />
<glyph unicode="&#xfd3e;" horiz-adv-x="648" d="M162 -230v1699h413v-95h-272v-1510h272v-94h-413z" />
<glyph unicode="&#xfd3f;" horiz-adv-x="648" d="M74 -136h272v1510h-272v95h412v-1700h-412v95z" />
<glyph unicode="&#xfeff;" horiz-adv-x="2789" d="M90 223v504h2611v-504h-2611zM161 1054q0 34 16.5 56.5t54.5 22.5q6 0 12 -0.5t13 -1.5q46 -5 92.5 -10t94.5 -5l80 179q8 37 25.5 64t46.5 27q10 0 19.5 -3.5t9.5 -17.5q0 -9 -8 -24.5t-17 -28.5l-97 -192q105 5 209 36t189 97q35 31 61.5 43.5t43.5 12.5q25 0 25 -21 q0 -19 -23 -47.5t-73 -54.5q-33 -34 -63 -72t-54 -82t-40 -96t-20 -115q0 -19 -15 -19q-12 0 -18 13.5t-6 45.5q0 73 22.5 140.5t56.5 124.5q-76 -25 -155 -36.5t-161 -11.5l-80 -160q-15 -31 -39 -54t-56 -23q-24 0 -50 18.5t-47 49t-35 68.5t-14 77zM200 1066 q0 -23 9.5 -52.5t25.5 -56t36 -45t40 -18.5q15 0 29 12t26 40l61 134q-108 3 -214 21q-13 -10 -13 -35zM879 873q0 7 2.5 15t6.5 17q18 40 49 76.5t68.5 64t77.5 44t76 16.5q27 0 48 -16t21 -52q0 -14 -9.5 -30.5t-27.5 -36.5q-20 -20 -35 -44.5t-15 -46.5q0 -15 9 -21.5 t23 -6.5q21 0 49.5 10t56.5 23t51.5 25.5t33.5 18.5q8 37 32.5 68.5t55.5 54.5t63.5 36.5t57.5 13.5q14 0 20 -5t6 -13q0 -10 -11 -20.5t-30 -12.5q-19 -7 -44 -19t-47.5 -30t-38 -41t-15.5 -52q0 -32 16.5 -45t42.5 -13t59 10t64.5 23.5t58 27.5t41.5 21q0 36 19 71 t48.5 62.5t66.5 44t73 16.5q22 0 36.5 -4.5t22 -11t10.5 -15t3 -15.5q0 -26 -29 -52t-67 -49t-74.5 -40.5t-52.5 -25.5q16 -23 41 -33.5t57 -10.5q30 0 64.5 8.5t70 23.5t70 35.5t64.5 43.5q19 14 38 32t40 33q4 3 13 8t19.5 10.5t21.5 9t20 3.5q15 0 15 -13q0 -5 -4 -16.5 t-10 -22.5q-16 -45 -25.5 -75t-11.5 -47q0 -5 6 -5q7 0 20 6.5t29.5 16t34 22t32.5 24.5q4 2 23 15t43 27.5t48 26.5t38 12q12 0 12 -12q-3 -29 -3 -57q0 -12 1 -24.5t4.5 -22t10 -15.5t17.5 -6q17 0 31 5.5t27 13.5t25.5 18t27.5 19l8 -21q-12 -9 -30 -25t-38.5 -31.5 t-42.5 -27t-42 -11.5q-15 0 -25 6t-15 15t-7 19t-2 19t1 18.5t1 17.5q0 11 -3.5 21t-14.5 10q-10 0 -27.5 -9.5t-38.5 -24t-45 -31t-48 -31t-46 -24.5t-40 -10q-11 2 -22 8t-11 19q0 23 4.5 44.5t18.5 62.5q0 1 -15.5 -10t-43 -28t-64 -37t-77 -37.5t-83 -29t-82.5 -11.5 q-41 0 -76.5 16.5t-49.5 46.5q-19 -8 -47.5 -22t-62 -27.5t-68.5 -23t-66 -9.5q-35 0 -61.5 16.5t-35.5 60.5q-21 -12 -45 -26t-49.5 -25.5t-50.5 -19.5t-49 -8q-31 0 -55.5 20.5t-43.5 65.5q-17 -12 -30 -20.5t-25.5 -15.5t-25.5 -12t-30 -11q-18 -6 -32 -6q-17 0 -33 11.5 t-16 33.5zM880 265h126v125h-126v-125zM928 880q41 0 77.5 16.5t68.5 42t59 57.5t50 63q-5 1 -10 1h-10q-36 0 -70.5 -17t-65 -43.5t-56 -58.5t-43.5 -61zM1103 265h91v320l318 -320h109v421h-91v-320l-313 320h-114v-421zM1709 265h430v76h-331v108h299v75h-299v87h322v75 h-421v-421zM1737 954q40 17 73.5 34t58.5 33t39 30t14 25q0 10 -8 15q-50 -5 -99 -38t-78 -99zM2202 609h183v-344h89v344h183v77h-455v-77z" />
</font>
</defs>
</svg>
