<?xml version="1.0" standalone="no"?>
<!DOCTYPE svg PUBLIC "-//W3C//DTD SVG 1.1//EN" "http://www.w3.org/Graphics/SVG/1.1/DTD/svg11.dtd" >
<svg xmlns="http://www.w3.org/2000/svg">
<metadata></metadata>
<defs>
<font id="hacen_sahafaregular" horiz-adv-x="1025" >
<font-face units-per-em="2048" ascent="1638" descent="-410" />
<missing-glyph horiz-adv-x="500" />
<glyph unicode="&#x651;&#x64b;" horiz-adv-x="425" d="M50 1838l17 91l340 193l-17 -91zM61 1710l17 91l340 193l-17 -91zM66 1591q0 21 4.5 39.5t9.5 29.5q0 -3 4.5 1.5t9.5 10.5t10 10.5t5 1.5q-5 -21 -7 -40t2 -32.5t17 -19t38 -0.5q28 5 41 23t17.5 40.5t5.5 46t6 39.5q1 -3 4.5 1t7.5 9t8 9.5t6 1.5q-3 -30 6.5 -54 t26 -36.5t38 -11.5t42.5 21q4 10 2 23t-8.5 25.5t-15.5 24.5t-18 21q5 10 14.5 15.5t20 10t20 9.5t15.5 13q5 -8 5.5 -12.5t-0.5 -8.5t-1.5 -8.5t3.5 -13.5q12 -32 14.5 -66t-5 -63.5t-25.5 -50.5t-47 -26q-25 -4 -39 3t-31 18q-4 -11 -10.5 -25.5t-18 -28.5t-27 -25.5 t-37.5 -16.5q-34 -9 -56 -3.5t-35 20t-17.5 35t-4.5 40.5z" />
<glyph unicode="&#xfef4;&#xfeae;" horiz-adv-x="1329" d="M-186 -65q47 14 107.5 36.5t123.5 54t123.5 70.5t108 86t76.5 100.5t29 114.5q0 62 -8 106t-22.5 79.5t-33 67.5t-39.5 71l205 233q47 -81 79 -171t46 -184l255 32l64 161l241 146l-101 -405h281l1 -417h-245l-77 255l-54 -157l-396 -36q-41 -135 -131.5 -236.5 t-238.5 -161.5zM603 -151l164 164l129 -129l129 129l164 -164l-164 -164l-129 129l-129 -129z" />
<glyph unicode="&#xfe98;&#xfeae;" horiz-adv-x="1329" d="M-186 -65q47 14 107.5 36.5t123.5 54t123.5 70.5t108 86t76.5 100.5t29 114.5q0 62 -8 106t-22.5 79.5t-33 67.5t-39.5 71l205 233q47 -81 79 -171t46 -184l255 32l64 161l241 146l-101 -405h281l1 -417h-245l-77 255l-54 -157l-396 -36q-41 -135 -131.5 -236.5 t-238.5 -161.5zM587 1162l164 164l129 -129l129 129l164 -164l-164 -164l-129 129l-129 -129z" />
<glyph unicode="&#xfe92;&#xfeae;" horiz-adv-x="1329" d="M-186 -65q47 14 107.5 36.5t123.5 54t123.5 70.5t108 86t76.5 100.5t29 114.5q0 62 -8 106t-22.5 79.5t-33 67.5t-39.5 71l205 233q47 -81 79 -171t46 -184l255 32l64 161l241 146l-101 -405h281l1 -417h-245l-77 255l-54 -157l-396 -36q-41 -135 -131.5 -236.5 t-238.5 -161.5zM647 -104l164 164l164 -164l-164 -163z" />
<glyph unicode="&#xfef4;&#xfee6;" horiz-adv-x="1596" d="M64.5 270q8.5 93 34.5 186t63 170l100 73q-11 -47 -22 -105t-16 -118t-0.5 -116.5t24.5 -100t58.5 -68.5t101.5 -22q41 2 94.5 10.5t105 25.5t94 42t62.5 60q-2 30 -7.5 63t-22 72t-46.5 85.5t-81 103.5l136 229q81 -69 128 -152t65 -175h192l73 259l241 146l-101 -405 h281l1 -417h-245l-77 255l-63 -255h-355q-29 -65 -70.5 -112.5t-98 -81t-129.5 -55t-165 -34.5q-111 -16 -183.5 15.5t-113.5 94t-54 148.5t-4.5 179zM282 1011l164 164l164 -164l-164 -163zM926 -198l164 164l129 -129l129 129l164 -164l-164 -164l-129 129l-129 -129z" />
<glyph unicode="&#xfe92;&#xfee6;" horiz-adv-x="1596" d="M64.5 270q8.5 93 34.5 186t63 170l100 73q-11 -47 -22 -105t-16 -118t-0.5 -116.5t24.5 -100t58.5 -68.5t101.5 -22q41 2 94.5 10.5t105 25.5t94 42t62.5 60q-2 30 -7.5 63t-22 72t-46.5 85.5t-81 103.5l136 229q81 -69 128 -152t65 -175h192l73 259l241 146l-101 -405 h281l1 -417h-245l-77 255l-63 -255h-355q-29 -65 -70.5 -112.5t-98 -81t-129.5 -55t-165 -34.5q-111 -16 -183.5 15.5t-113.5 94t-54 148.5t-4.5 179zM282 1011l164 164l164 -164l-164 -163zM1071 -203l164 164l164 -164l-164 -163z" />
<glyph unicode="&#x651;&#x64c;" horiz-adv-x="484" arabic-form="isolated" d="M43 1917q20 23 46.5 37.5t53 18.5t49.5 -1.5t35.5 -20.5t10.5 -40.5t-24 -61.5q48 17 89.5 38t75.5 53q-43 9 -63 27t-23.5 40t8 45t31.5 41.5t46 30t52 10.5q22 -2 29.5 -21t7 -43t-6 -46.5t-9.5 -31.5l40 -10l-18 -65l-48 11q-7 -12 -21 -28.5t-33 -34t-42 -33t-48 -26 t-50 -13t-48 6.5q-23 10 -25 27t3 36t11 36t-2 26.5t-36.5 9t-90.5 -17.5zM87.5 1632.5q-0.5 26.5 3.5 48.5t9 33q0 -3 5 1.5t10.5 10.5t10 10t4.5 1q-5 -21 -6.5 -47.5t4 -49.5t19.5 -37.5t40 -9.5q28 5 41 23t18 40.5t6.5 45.5t6.5 39q1 -3 4.5 1t8 9t8 9.5t5.5 1.5 q-3 -30 6 -54t25.5 -37t38 -12.5t43.5 20.5q4 10 2 23t-8.5 26t-15 25t-17.5 21q11 20 19.5 37.5t17.5 34.5q13 -15 22.5 -33t17.5 -36q11 -32 13 -66t-6 -63.5t-26.5 -50t-47.5 -24.5q-25 -4 -38.5 3t-30.5 19q-4 -11 -11 -25t-18.5 -28t-27.5 -25.5t-38 -16.5 q-34 -8 -56.5 1.5t-36 29.5t-19 47.5t-6 54zM346 2048q-2 -10 3.5 -16.5t14.5 -11.5t21.5 -9.5t25.5 -9.5q2 17 2 30q0 11 -2 21.5t-8 14.5v-2q-5 5 -12 6.5t-12 1.5q-14 1 -23.5 -7t-9.5 -18z" />
<glyph unicode="&#x651;&#x64d;" horiz-adv-x="425" arabic-form="isolated" d="M31 1438l33 75l350 141l-33 -75zM41 1543l33 75l350 141l-33 -75zM56.5 1844.5q0.5 26.5 4.5 49t10 32.5q0 -3 4.5 1.5l10.5 10.5t10.5 10t4.5 1q-6 -21 -8 -48t3 -50t18.5 -37.5t39.5 -10.5q29 4 42.5 21t19 39.5t7 46t7.5 39.5q1 -3 5 0.5t8.5 9t8 9.5t5.5 1 q-4 -29 4 -53.5t24 -38t37 -13.5q22 0 45 20q5 10 3 22.5t-8 25.5t-14.5 25.5t-16.5 21.5q11 20 20 37t19 34q12 -15 21.5 -33.5t16.5 -36.5q10 -32 11 -66t-7.5 -63t-27.5 -49t-48 -24q-25 -3 -38.5 4t-30.5 20q-4 -11 -11.5 -25t-19 -27.5t-28 -24.5t-38.5 -16 q-34 -7 -56.5 3t-35 31t-17.5 48t-4.5 53.5z" />
<glyph unicode="&#x651;&#x64e;" horiz-adv-x="425" arabic-form="isolated" d="M61 1710l17 91l340 193l-17 -91zM66 1591q0 21 4.5 39.5t9.5 29.5q0 -3 4.5 1.5t9.5 10.5t10 10.5t5 1.5q-5 -21 -7 -40t2 -32.5t17 -19t38 -0.5q28 5 41 23t17.5 40.5t5.5 46t6 39.5q1 -3 4.5 1t7.5 9t8 9.5t6 1.5q-3 -30 6.5 -54t26 -36.5t38 -11.5t42.5 21q4 10 2 23 t-8.5 25.5t-15.5 24.5t-18 21q5 10 14.5 15.5t20 10t20 9.5t15.5 13q5 -8 5.5 -12.5t-0.5 -8.5t-1.5 -8.5t3.5 -13.5q12 -32 14.5 -66t-5 -63.5t-25.5 -50.5t-47 -26q-25 -4 -39 3t-31 18q-4 -11 -10.5 -25.5t-18 -28.5t-27 -25.5t-37.5 -16.5q-34 -9 -56 -3.5t-35 20 t-17.5 35t-4.5 40.5z" />
<glyph unicode="&#x651;&#x64f;" horiz-adv-x="437" arabic-form="isolated" d="M2 1791q60 20 103 34t77 28t61.5 31t54.5 43q-46 8 -67.5 26.5t-25 40.5t8.5 45t33 42t48.5 30.5t55.5 10.5q23 -1 31 -20t7.5 -43.5t-6.5 -47.5t-10 -33l43 -10l-19 -63l-50 10q-11 -18 -37 -41t-61.5 -43.5t-76.5 -34t-83 -11.5q-57 4 -75 4q-17 0 -12 2zM63.5 1632.5 q-0.5 26.5 3.5 48.5t9 33q0 -3 5 1.5t10.5 10.5t10 10t4.5 1q-5 -21 -6.5 -47.5t4 -49.5t19.5 -37.5t40 -9.5q28 5 41 23t18 40.5t6.5 45.5t6.5 39q1 -3 4.5 1t8 9t8 9.5t5.5 1.5q-3 -30 6 -54t25.5 -37t38 -12.5t43.5 20.5q4 10 2 23t-8.5 26t-15 25t-17.5 21 q11 20 19.5 37.5t17.5 34.5q13 -15 22.5 -33t17.5 -36q11 -32 13 -66t-6 -63.5t-26.5 -50t-47.5 -24.5q-25 -4 -38.5 3t-30.5 19q-4 -11 -11 -25t-18.5 -28t-27.5 -25.5t-38 -16.5q-34 -8 -56.5 1.5t-36 29.5t-19 47.5t-6 54zM262 2036q-2 -20 19 -29.5t50 -17.5q2 16 2 30 q0 11 -2 22t-9 14v-1q-5 5 -11.5 6.5t-11.5 1.5q-17 1 -26.5 -7t-10.5 -19z" />
<glyph unicode="&#x651;&#x650;" horiz-adv-x="425" arabic-form="isolated" d="M71.5 1766.5q0.5 26.5 4.5 48.5t10 33q0 -3 4.5 1.5l10.5 10.5t10.5 10t4.5 1q-6 -21 -8 -48t3 -50t18.5 -37.5t39.5 -10.5q29 4 42.5 21t19 39.5t7 46t7.5 39.5q1 -3 5 0.5t8.5 9t8 9.5t5.5 1q-4 -29 4 -53.5t24 -38t37 -13.5q22 0 45 20q5 10 3 22.5t-8 25.5 t-14.5 25.5t-16.5 21.5q11 20 20 37t19 34q12 -15 21.5 -33.5t16.5 -36.5q10 -32 11 -66t-7.5 -63t-27.5 -49t-48 -24q-25 -3 -38.5 4t-30.5 20q-4 -11 -11.5 -25t-19 -27.5t-28 -24.5t-38.5 -16q-34 -7 -56.5 3t-35 31t-17.5 48t-4.5 53.5zM82 1397l17 91l340 193l-17 -91z " />
<glyph unicode="&#xfed3;&#xfef2;" horiz-adv-x="1710" arabic-form="medial" d="M51 100q0 49 9 104.5t25.5 113t41 113.5t55.5 106l188 109q-72 -117 -100 -220.5t-16.5 -185t60.5 -136.5t131.5 -75t197.5 -1t258 86q-24 54 -63 79.5t-86 35.5t-99 10.5t-103 5.5q23 78 53.5 148.5t69.5 139.5h775q1 24 -10.5 57t-26.5 64t-28 54.5t-15 28.5 q-30 -38 -68.5 -66t-82 -41t-89.5 -7.5t-92 33.5q-35 21 -49 54.5t-11 73t19.5 83t42.5 85t59 78.5t68 63.5t69 40.5t63 9q52 -9 96.5 -47t81.5 -92.5t67 -120t52 -130.5t36 -123t20 -97l-112 -417h-474q-6 -20 -13 -40.5t-16 -42.5q-32 -69 -91.5 -125t-134.5 -95.5 t-160.5 -61t-169.5 -22.5t-161.5 19.5t-136.5 65.5t-94.5 116t-35.5 170zM531 -497l164 164l129 -129l129 129l164 -164l-164 -164l-129 129l-129 -129zM1035 1382l164 164l164 -164l-164 -163zM1123 892q39 -35 79 -48.5t89 9.5q-21 32 -40 54.5t-38.5 30t-41 -2.5 t-48.5 -43z" />
<glyph unicode="&#xfedf;&#xfef0;" horiz-adv-x="1595" arabic-form="medial" d="M51 100q0 49 9 104.5t25.5 113t41 113.5t55.5 106l188 109q-72 -117 -100 -220.5t-16.5 -185t60.5 -136.5t131.5 -75t197.5 -1t258 86q-24 54 -63 79.5t-86 35.5t-99 10.5t-103 5.5q23 78 53.5 148.5t69.5 139.5h540l-52 720l278 103l84 -312l-73 -31l15 -480l-112 -417 h-289q-6 -20 -13 -40.5t-16 -42.5q-32 -69 -91.5 -125t-134.5 -95.5t-160.5 -61t-169.5 -22.5t-161.5 19.5t-136.5 65.5t-94.5 116t-35.5 170z" />
<glyph unicode="&#xfedf;&#xfee4;" horiz-adv-x="850" arabic-form="medial" d="M-29 116v417h290l-52 720l278 103l84 -312l-73 -31l15 -480l274 -184l-104 -339l-282 106h-430z" />
<glyph unicode="&#xfedf;&#xfee0;&#xfeea;" horiz-adv-x="1830" arabic-form="isolated" d="M72 240q0 115 2 200t14 147.5t38 107.5t74.5 80.5t123 64.5t182.5 61l-12 83l166 103l83 -555h280l-46 608l231 103l20 -711h264l-53 720l232 103l84 -312l-73 -31l15 -480l-112 -416h-974l-36 265l-87 -315zM263 563l281 -115l-21 256zM864 1385.5q-20 83.5 76 233.5 q25 -16 3 -92t40.5 -84.5t52.5 109.5l59 97q41 -77 26 -162q82 -53 100.5 7t-17.5 110l62 70q62 -157 -1 -265.5t-190 -35.5q-43 -60 -117 -65.5t-94 78z" />
<glyph unicode="&#xfedf;&#xfe82;" horiz-adv-x="1074" arabic-form="isolated" d="M0 1404q-1 78 51.5 148.5t197 6.5t219.5 44q-35 -230 -210.5 -152.5t-257.5 -46.5zM52 1075l137 294q79 -49 163 -101.5t163.5 -111.5t149 -127t119.5 -148q8 48 7.5 96t-7.5 95.5t-18.5 94.5t-24.5 94l208 105l76 -315l-66 -32q6 -86 -108 -257q64 -102 87 -189 t19 -165.5t-28 -150.5t-54 -144h-694l25 375q0 1 28.5 9t73 22t98.5 33.5t105 44.5t92.5 55t61.5 64q-18 30 -53 62.5t-76 62t-83 54t-73 38.5l-82 -56zM614 484q19 0 39.5 -1.5t41.5 -2.5t41.5 0.5t38.5 7.5q23 7 25 25t-6.5 39t-22.5 41.5t-21 32.5q-11 -19 -27.5 -38 t-35.5 -37t-38 -35t-35 -32z" />
<glyph unicode="&#xfee0;&#xfe82;" horiz-adv-x="1230" arabic-form="final" d="M12 1328q-1 78 51.5 148.5t197 6.5t219.5 44q-35 -230 -210.5 -152.5t-257.5 -46.5zM44 -66l39 68q20 15 56 44t82.5 68t102.5 84.5t115.5 93.5t121 96.5t120.5 91.5q-25 40 -53 89.5t-65 101.5t-84 102t-109 92l-56 -60l-215 160l150 309q184 -103 321 -275.5 t242 -403.5q23 27 37.5 52.5t17.5 48.5l-40 557l231 103l26 -823h161v-417h-329l-31 350q-20 -93 -68.5 -168t-116.5 -133.5t-150.5 -101.5t-169.5 -71.5t-173.5 -42.5t-162.5 -15z" />
<glyph unicode="&#xfedf;&#xfe84;" horiz-adv-x="1074" arabic-form="isolated" d="M38 1485q-1 20 12 46.5t33 51.5t45 46t49 30.5t43.5 3.5t29.5 -33q5 -13 -13 -30.5t-48 -35.5q-6 10 -20 13.5t-27.5 1t-24 -11.5t-10.5 -24q0 -27 55 -27q58 16 122 24q0 -8 -3 -19.5t-8.5 -23t-12.5 -20.5t-15 -10q-28 -5 -53 -14.5t-48 -22t-46 -28.5t-47 -33 q-4 4 -4 10q0 22 34 65q-13 1 -27.5 10t-15.5 31zM52 1075l137 294q79 -49 163 -101.5t163.5 -111.5t149 -127t119.5 -148q8 48 7.5 96t-7.5 95.5t-18.5 94.5t-24.5 94l208 105l76 -315l-66 -32q6 -86 -108 -257q64 -102 87 -189t19 -165.5t-28 -150.5t-54 -144h-694l25 375 q0 1 28.5 9t73 22t98.5 33.5t105 44.5t92.5 55t61.5 64q-18 30 -53 62.5t-76 62t-83 54t-73 38.5l-82 -56zM614 484q19 0 39.5 -1.5t41.5 -2.5t41.5 0.5t38.5 7.5q23 7 25 25t-6.5 39t-22.5 41.5t-21 32.5q-11 -19 -27.5 -38t-35.5 -37t-38 -35t-35 -32z" />
<glyph unicode="&#xfee0;&#xfe84;" horiz-adv-x="1230" arabic-form="final" d="M44 -66l39 68q20 15 56 44t82.5 68t102.5 84.5t115.5 93.5t121 96.5t120.5 91.5q-25 40 -53 89.5t-65 101.5t-84 102t-109 92l-56 -60l-215 160l150 309q184 -103 321 -275.5t242 -403.5q23 27 37.5 52.5t17.5 48.5l-40 557l231 103l26 -823h161v-417h-329l-31 350 q-20 -93 -68.5 -168t-116.5 -133.5t-150.5 -101.5t-169.5 -71.5t-173.5 -42.5t-162.5 -15zM90 1399q-1 20 12 46.5t33 51.5t45 46t49 30.5t43.5 3.5t29.5 -33q5 -13 -13 -30.5t-48 -35.5q-6 10 -20 13.5t-27.5 1t-24 -11.5t-10.5 -24q0 -27 55 -27q58 16 122 24 q0 -8 -3 -19.5t-8.5 -23t-12.5 -20.5t-15 -10q-28 -5 -53 -14.5t-48 -22t-46 -28.5t-47 -33q-4 4 -4 10q0 22 34 65q-13 1 -27.5 10t-15.5 31z" />
<glyph unicode="&#xfedf;&#xfe88;" horiz-adv-x="1069" arabic-form="isolated" d="M52 1075l137 294q79 -49 163 -101.5t163.5 -111.5t149 -127t119.5 -148q8 48 7.5 96t-7.5 95.5t-18.5 94.5t-24.5 94l208 105l76 -315l-66 -32q6 -86 -108 -257q64 -102 87 -189t19 -165.5t-28 -150.5t-54 -144h-694l25 375q0 1 28.5 9t73 22t98.5 33.5t105 44.5t92.5 55 t61.5 64q-18 30 -53 62.5t-76 62t-83 54t-73 38.5l-82 -56zM59 -145q-1 20 12 46.5t33 51.5t45 46t49 30.5t43.5 3.5t29.5 -33q5 -13 -13 -30.5t-48 -35.5q-6 10 -20 13.5t-27.5 1t-24 -11.5t-10.5 -24q0 -27 55 -27q58 16 122 24q0 -8 -3 -19.5t-8.5 -23t-12.5 -20.5 t-15 -10q-28 -5 -53 -14.5t-48 -22t-46 -28.5t-47 -33q-4 4 -4 10q0 22 34 65q-13 1 -27.5 10t-15.5 31zM614 484q19 0 39.5 -1.5t41.5 -2.5t41.5 0.5t38.5 7.5q23 7 25 25t-6.5 39t-22.5 41.5t-21 32.5q-11 -19 -27.5 -38t-35.5 -37t-38 -35t-35 -32z" />
<glyph unicode="&#xfee0;&#xfe88;" horiz-adv-x="1225" arabic-form="final" d="M44 -66l39 68q20 15 56 44t82.5 68t102.5 84.5t115.5 93.5t121 96.5t120.5 91.5q-25 40 -53 89.5t-65 101.5t-84 102t-109 92l-56 -60l-215 160l150 309q184 -103 321 -275.5t242 -403.5q23 27 37.5 52.5t17.5 48.5l-40 557l231 103l26 -823h161v-417h-329l-31 350 q-20 -93 -68.5 -168t-116.5 -133.5t-150.5 -101.5t-169.5 -71.5t-173.5 -42.5t-162.5 -15zM80 -296q-1 20 12 46.5t33 51.5t45 46t49 30.5t43.5 3.5t29.5 -33q5 -13 -13 -30.5t-48 -35.5q-6 10 -20 13.5t-27.5 1t-24 -11.5t-10.5 -24q0 -27 55 -27q58 16 122 24 q0 -8 -3 -19.5t-8.5 -23t-12.5 -20.5t-15 -10q-28 -5 -53 -14.5t-48 -22t-46 -28.5t-47 -33q-4 4 -4 10q0 22 34 65q-13 1 -27.5 10t-15.5 31z" />
<glyph unicode="&#xfedf;&#xfe8e;" horiz-adv-x="1089" arabic-form="isolated" d="M52 1075l137 294q79 -49 163 -101.5t163.5 -111.5t149 -127t119.5 -148q8 48 7.5 96t-7.5 95.5t-18.5 94.5t-24.5 94l208 105l76 -315l-66 -32q6 -86 -108 -257q64 -102 87 -189t19 -165.5t-28 -150.5t-54 -144h-694l25 375q0 1 28.5 9t73 22t98.5 33.5t105 44.5t92.5 55 t61.5 64q-18 30 -53 62.5t-76 62t-83 54t-73 38.5l-82 -56zM614 484q19 0 39.5 -1.5t41.5 -2.5t41.5 0.5t38.5 7.5q23 7 25 25t-6.5 39t-22.5 41.5t-21 32.5q-11 -19 -27.5 -38t-35.5 -37t-38 -35t-35 -32z" />
<glyph unicode="&#xfee0;&#xfe8e;" horiz-adv-x="1229" arabic-form="final" d="M44 -66l39 68q20 15 56 44t82.5 68t102.5 84.5t115.5 93.5t121 96.5t120.5 91.5q-25 40 -53 89.5t-65 101.5t-84 102t-109 92l-56 -60l-215 160l150 309q184 -103 321 -275.5t242 -403.5q23 27 37.5 52.5t17.5 48.5l-40 557l231 103l26 -823h161v-417h-329l-31 350 q-20 -93 -68.5 -168t-116.5 -133.5t-150.5 -101.5t-169.5 -71.5t-173.5 -42.5t-162.5 -15z" />
<glyph unicode="&#xfe70;" horiz-adv-x="408" arabic-form="isolated" d="M49 1482l17 91l340 193l-17 -91zM63 1649l17 91l340 193l-17 -91z" />
<glyph unicode="&#xfe71;" horiz-adv-x="408" arabic-form="medial" d="M51 1029l17 91l340 193l-17 -91zM65 1196l17 91l340 193l-17 -91z" />
<glyph unicode="&#xfe72;" horiz-adv-x="469" arabic-form="isolated" d="M45 1619q19 27 44.5 43.5t50.5 22t47 -1t34 -24.5t10.5 -48t-23.5 -72q46 20 85.5 44t71.5 62q-41 10 -60.5 31.5t-22 47.5t8 53t30 49.5t44 36t49.5 12.5q21 -2 28 -24.5t6.5 -51t-6 -55.5t-8.5 -37l38 -12l-17 -76l-46 13q-6 -14 -19.5 -33.5t-32 -40t-40.5 -39.5 t-45.5 -31t-47.5 -15t-46 8t-24 31.5t3 42t10.5 42t-2 32t-34.5 10.5t-86 -20zM334 1773q-2 -11 3 -19t14 -14t20.5 -11.5t24.5 -11.5q2 19 2 35q0 14 -2.5 26.5t-7.5 16.5v-2q-10 10 -23 10q-14 1 -22.5 -8.5t-8.5 -21.5z" />
<glyph unicode="&#xfe74;" horiz-adv-x="408" arabic-form="isolated" d="M1 -288q5 23 8 38.5t7 38.5q99 52 191.5 101.5t191.5 102.5l-15 -76q-97 -52 -191.5 -102.5t-191.5 -102.5zM33 -98q5 24 8.5 39.5t7.5 38.5q99 52 191 101t191 102l-15 -76q-97 -52 -191.5 -102.5t-191.5 -102.5z" />
<glyph unicode="&#xfe76;" horiz-adv-x="408" arabic-form="isolated" d="M13 1378q5 24 8 39.5t7 37.5q99 52 191.5 101.5t191.5 102.5l-15 -76q-97 -52 -191.5 -102.5t-191.5 -102.5z" />
<glyph unicode="&#xfe77;" horiz-adv-x="448" arabic-form="medial" d="M13 952q5 24 8 39.5t7 37.5q99 52 191.5 101.5t191.5 102.5l-15 -76q-97 -52 -191.5 -102.5t-191.5 -102.5z" />
<glyph unicode="&#xfe78;" horiz-adv-x="414" arabic-form="isolated" d="M13 1507q61 25 105.5 43t79 36t62.5 39.5t56 54.5q-47 11 -69 34t-25.5 51t9 57.5t34 53.5t49.5 38.5t56 13.5q16 -1 25 -12.5t12.5 -29t2.5 -39t-3.5 -41.5t-6.5 -36.5t-7 -24.5l44 -13l-19 -80l-52 12q-11 -23 -37.5 -52.5t-62.5 -55t-78.5 -42.5t-85.5 -15 q-29 2 -47.5 3t-28.5 2t-12.5 1.5t-0.5 1.5zM279 1818q-2 -25 20 -37t51 -23q2 20 2 38q0 15 -2 28.5t-9 18.5v-2q-5 6 -12 8t-12 2q-17 2 -27 -8.5t-11 -24.5z" />
<glyph unicode="&#xfe79;" horiz-adv-x="490" arabic-form="medial" d="M7 1064q61 25 105.5 43t79 36t62.5 39.5t56 54.5q-47 11 -69 34t-25.5 51t9 57.5t34 53.5t49.5 39t56 13q16 -1 25 -12.5t12.5 -29t2.5 -39t-3.5 -41.5t-6.5 -36.5t-7 -24.5l44 -13l-19 -80l-52 12q-11 -23 -37.5 -52.5t-62.5 -55t-78.5 -42.5t-85.5 -15q-29 2 -47.5 3 t-28.5 2t-12.5 1.5t-0.5 1.5zM273 1375q-2 -25 20 -37t51 -23q2 20 2 38q0 15 -2 28.5t-9 18.5v-2q-5 6 -12 8t-12 2q-17 2 -27 -8.5t-11 -24.5z" />
<glyph unicode="&#xfe7a;" horiz-adv-x="408" arabic-form="isolated" d="M9 -568q5 23 8 39t7 38q99 52 191.5 101.5t191.5 102.5l-15 -76q-97 -52 -191.5 -102.5t-191.5 -102.5z" />
<glyph unicode="&#xfe7b;" horiz-adv-x="669" arabic-form="medial" d="M9 301q5 23 8 39t7 38q99 52 191.5 101.5t191.5 102.5l-15 -76q-97 -52 -191.5 -102.5t-191.5 -102.5z" />
<glyph unicode="&#xfe7c;" horiz-adv-x="425" arabic-form="isolated" d="M59.5 1603.5q-1.5 27.5 2 53.5t10.5 47.5t14 31.5q0 -3 5 1t11.5 9t11.5 8.5t5 0.5q-8 -20 -13.5 -46.5t-3 -50t14 -39.5t37.5 -15q29 0 44.5 16t23.5 37.5t12.5 44.5t12.5 38q1 -3 5 0t9 7.5t9.5 8t5.5 0.5q-8 -29 -2.5 -54t19.5 -40t35.5 -18t46.5 14q6 9 5.5 22 t-4.5 26.5t-11 27t-14 23.5q13 18 24.5 34t22.5 32q11 -17 17.5 -36t11.5 -38q6 -33 3 -67t-15 -62t-33 -45.5t-51 -17.5q-25 0 -37.5 9t-27.5 23q-6 -10 -15 -23t-22 -25t-31 -21t-40 -11q-35 -3 -56 10t-31 35t-11.5 49.5z" />
<glyph unicode="&#xfe7d;" horiz-adv-x="425" arabic-form="medial" d="M57.5 1144.5q-1.5 27.5 2 53.5t10.5 47.5t14 31.5q0 -3 5 1t11.5 9t11.5 8.5t5 0.5q-8 -20 -13.5 -46.5t-3 -50t14 -39.5t37.5 -15q29 0 44.5 16t23.5 37.5t12.5 44.5t12.5 38q1 -3 5 0t9 7.5t9.5 8t5.5 0.5q-8 -29 -2.5 -54t19.5 -40t35.5 -18t46.5 14q6 9 5.5 22 t-4.5 26.5t-11 27t-14 23.5q13 18 24.5 34t22.5 32q11 -17 17.5 -36t11.5 -38q6 -33 3 -67t-15 -62t-33 -45.5t-51 -17.5q-25 0 -37.5 9t-27.5 23q-6 -10 -15 -23t-22 -25t-31 -21t-40 -11q-35 -3 -56 10t-31 35t-11.5 49.5z" />
<glyph unicode="&#xfe7e;" horiz-adv-x="328" arabic-form="isolated" d="M59 1556q-5 33 3.5 75.5t27 81.5t46 67t59.5 33q28 4 54 -6.5t46.5 -28.5t34.5 -40.5t17 -41.5q5 -34 -10 -71.5t-41 -87.5v1q0 1 1 2l-3 -5q-24 -14 -61.5 -26.5t-74 -15t-65 11t-34.5 51.5zM123 1643q3 -22 21 -32.5t42 -11t50 6.5t46 21l1 1q-3 14 -13.5 30t-25 29.5 t-31.5 22t-35 5.5q-30 -5 -44 -27t-11 -45zM294 1535l1 1q0 -1 -1 -1zM295 1536l1 1q0 -1 -1 -1z" />
<glyph unicode="&#xfe7f;" horiz-adv-x="328" arabic-form="medial" d="M69 994q-5 33 3.5 75.5t27 81.5t46 67t59.5 33q28 4 54 -6.5t46.5 -28.5t34.5 -40.5t17 -41.5q5 -34 -10 -71.5t-41 -87.5v1q0 1 1 2l-3 -5q-24 -14 -61.5 -26.5t-74 -15t-65 11t-34.5 51.5zM133 1081q3 -22 21 -32.5t42 -11t50 6.5t46 21l1 1q-3 14 -13.5 30t-25 29.5 t-31.5 22t-35 5.5q-30 -5 -44 -27t-11 -45zM304 973l1 1q0 -1 -1 -1zM305 974l1 1q0 -1 -1 -1z" />
<glyph unicode="&#x621;" horiz-adv-x="724" arabic-form="isolated" d="M41 355q-1 39 17.5 87.5t51 98.5t74.5 98t88.5 86.5t94 63t90 29t76.5 -16.5t53 -74q6 -16 -3.5 -36t-30.5 -41.5t-52.5 -45t-70.5 -46.5q-11 17 -31 27t-43.5 12.5t-47.5 -2t-44 -16.5t-32.5 -30.5t-12.5 -44.5q0 -69 142 -69q75 21 153.5 36t159.5 25q0 -19 -8 -49.5 t-21.5 -59.5t-31.5 -51.5t-39 -26.5q-72 -13 -135.5 -37.5t-123.5 -57.5t-118.5 -73t-120.5 -84q-11 11 -11 26q0 55 88 167q-17 1 -35.5 7t-35 18.5t-28 32t-12.5 47.5z" />
<glyph unicode="&#x622;" horiz-adv-x="345" arabic-form="isolated" d="M-47 1400q-1 78 51.5 148.5t197 6.5t219.5 44q-35 -230 -210.5 -152.5t-257.5 -46.5zM42 1253l232 103l26 -823l-86 -417h-106z" />
<glyph unicode="&#x622;" horiz-adv-x="434" arabic-form="final" d="M0 1404q-1 78 51.5 148.5t197 6.5t219.5 44q-35 -230 -210.5 -152.5t-257.5 -46.5zM41 1253l231 103l26 -823h162v-417h-353z" />
<glyph unicode="&#x623;" horiz-adv-x="345" arabic-form="isolated" d="M27 1458q-1 20 12 46.5t33 51.5t45 46t49 30.5t43.5 3.5t29.5 -33q5 -13 -13 -30.5t-48 -35.5q-6 10 -20 13.5t-27.5 1t-24 -11.5t-10.5 -24q0 -27 55 -27q58 16 122 24q0 -8 -3 -19.5t-8.5 -23t-12.5 -20.5t-15 -10q-28 -5 -53 -14.5t-48 -22t-46 -28.5t-47 -33 q-4 4 -4 10q0 22 34 65q-13 1 -27.5 10t-15.5 31zM42 1253l232 103l26 -823l-86 -417h-106z" />
<glyph unicode="&#x623;" horiz-adv-x="434" arabic-form="final" d="M27 1458q-1 20 12 46.5t33 51.5t45 46t49 30.5t43.5 3.5t29.5 -33q5 -13 -13 -30.5t-48 -35.5q-6 10 -20 13.5t-27.5 1t-24 -11.5t-10.5 -24q0 -27 55 -27q58 16 122 24q0 -8 -3 -19.5t-8.5 -23t-12.5 -20.5t-15 -10q-28 -5 -53 -14.5t-48 -22t-46 -28.5t-47 -33 q-4 4 -4 10q0 22 34 65q-13 1 -27.5 10t-15.5 31zM41 1253l231 103l26 -823h162v-417h-353z" />
<glyph unicode="&#x624;" horiz-adv-x="777" arabic-form="isolated" d="M-101 -109q43 19 102.5 43.5t124 53.5t130 61.5t121.5 66t98 67.5t60 67q-66 -33 -134.5 -40t-129.5 10t-109 57.5t-74.5 102.5t-26.5 145q0 84 37 188q42 118 91.5 197.5t103.5 113.5t111.5 18.5t116.5 -87.5q87 -111 138 -236.5t64 -249t-12.5 -237t-92.5 -201 t-176 -141.5t-262 -57zM126 1224q-1 28 16.5 64.5t45.5 71.5t62.5 63.5t67 41.5t60 5.5t41.5 -45.5q6 -18 -18.5 -42t-66.5 -50q-9 14 -27.5 19t-37.5 1.5t-33.5 -16t-14.5 -33.5q0 -37 76 -37q80 22 169 33q0 -10 -4 -26.5t-11.5 -32t-17.5 -28t-21 -14.5q-39 -7 -73 -20 t-66 -30.5t-63.5 -39t-65.5 -45.5q-6 6 -6 14q0 31 47 90q-9 0 -19 3.5t-19 10t-15 17t-6 25.5zM231.5 658q-1.5 -26 11 -47t40.5 -33t76 -7l114 24q-15 45 -33 76.5t-37 50.5t-38.5 28t-37.5 9q-27 1 -48 -14t-33.5 -38t-14 -49z" />
<glyph unicode="&#x624;" horiz-adv-x="792" arabic-form="final" d="M-93 -229q43 19 102.5 43.5t124 53.5t130 61.5t121.5 66t98 67.5t60 67q-66 -33 -134.5 -40t-129.5 10t-109 57.5t-74.5 102.5t-26.5 146t37 187q42 118 91.5 197.5t103.5 113.5t111.5 18.5t116.5 -87.5q55 -71 95.5 -147t66.5 -155h122v-417h-94q-19 -84 -61 -156.5 t-108 -126.5t-156.5 -85.5t-205.5 -34.5zM221 1198q-1 28 16.5 64.5t45.5 71.5t62.5 63.5t67 41.5t60 5.5t41.5 -45.5q6 -18 -18.5 -42t-66.5 -50q-9 14 -27.5 19t-37.5 1.5t-33.5 -16t-14.5 -33.5q0 -37 76 -37q80 22 169 33q0 -10 -4 -26.5t-11.5 -32t-17.5 -28t-21 -14.5 q-39 -7 -73 -20t-66 -30.5t-63.5 -39t-65.5 -45.5q-6 6 -6 14q0 31 47 90q-9 0 -19 3.5t-19 10t-15 17t-6 25.5zM239.5 538q-1.5 -26 11 -47t40.5 -33t76 -7l114 24q-15 45 -33 76.5t-37 50.5t-38.5 28t-37.5 9q-27 1 -48 -14t-33.5 -38t-14 -49z" />
<glyph unicode="&#x625;" horiz-adv-x="345" arabic-form="isolated" d="M33 -143q-1 20 12 46.5t33 51.5t45 46t49 30.5t43.5 3.5t29.5 -33q5 -13 -13 -30.5t-48 -35.5q-6 10 -20 13.5t-27.5 1t-24 -11.5t-10.5 -24q0 -27 55 -27q58 16 122 24q0 -8 -3 -19.5t-8.5 -23t-12.5 -20.5t-15 -10q-28 -5 -53 -14.5t-48 -22t-46 -28.5t-47 -33 q-4 4 -4 10q0 22 34 65q-13 1 -27.5 10t-15.5 31zM42 1253l232 103l26 -823l-86 -417h-106z" />
<glyph unicode="&#x625;" horiz-adv-x="434" arabic-form="final" d="M34 -161q-1 20 12 46.5t33 51.5t45 46t49 30.5t43.5 3.5t29.5 -33q5 -13 -13 -30.5t-48 -35.5q-6 10 -20 13.5t-27.5 1t-24 -11.5t-10.5 -24q0 -27 55 -27q58 16 122 24q0 -8 -3 -19.5t-8.5 -23t-12.5 -20.5t-15 -10q-28 -5 -53 -14.5t-48 -22t-46 -28.5t-47 -33 q-4 4 -4 10q0 22 34 65q-13 1 -27.5 10t-15.5 31zM41 1253l231 103l26 -823h162v-417h-353z" />
<glyph unicode="&#x626;" horiz-adv-x="1283" arabic-form="isolated" d="M60 87q0 49 9 105t25.5 114t41 114t56.5 106l142 63q-69 -121 -88.5 -221.5t1.5 -176.5t78.5 -124t144.5 -62t199 8.5t241 87.5q-25 54 -63.5 79.5t-85.5 35.5t-99 10.5t-103 5.5q9 49 21 109.5t28.5 122t39 120t52.5 104.5q34 51 80 95t96.5 76.5t102.5 51.5t97 20 t81 -18t54.5 -62.5t17 -113t-31.5 -169.5l-49 -35q-2 52 -16.5 80.5t-37 39.5t-50.5 7t-58 -17t-58.5 -33t-52.5 -41t-40 -41t-20 -33q106 -26 168 -72t87 -107.5t17 -136.5t-43 -159q-32 -69 -91.5 -125t-134.5 -95.5t-160.5 -61t-169.5 -22.5t-161.5 19.5t-136.5 65.5 t-94.5 116t-35.5 170zM99 836q-1 28 16.5 64.5t45.5 71.5t62.5 63.5t67 41.5t60 5.5t41.5 -45.5q6 -18 -18.5 -42t-66.5 -50q-9 14 -27.5 19t-37.5 1.5t-33.5 -16t-14.5 -33.5q0 -37 76 -37q80 22 169 33q0 -10 -4 -26.5t-11.5 -32t-17.5 -28t-21 -14.5q-39 -7 -73 -20 t-66 -30.5t-63.5 -39t-65.5 -45.5q-6 6 -6 14q0 31 47 90q-9 0 -19 3.5t-19 10t-15 17t-6 25.5z" />
<glyph unicode="&#x626;" horiz-adv-x="1229" arabic-form="final" d="M51 100q0 49 9 104.5t25.5 113t41 113.5t55.5 106l188 109q-72 -117 -100 -220.5t-16.5 -185t60.5 -136.5t131.5 -75t197.5 -1t258 86q-24 54 -63 79.5t-86 35.5t-99 10.5t-103 5.5q23 78 53.5 148.5t69.5 139.5h585v-417h-194q-6 -20 -13 -40.5t-16 -42.5 q-32 -69 -91.5 -125t-134.5 -95.5t-160.5 -61t-169.5 -22.5t-161.5 19.5t-136.5 65.5t-94.5 116t-35.5 170zM76 823q-1 28 16.5 64.5t45.5 71.5t62.5 63.5t67 41.5t60 5.5t41.5 -45.5q6 -18 -18.5 -42t-66.5 -50q-9 14 -27.5 19t-37.5 1.5t-33.5 -16t-14.5 -33.5 q0 -37 76 -37q80 22 169 33q0 -10 -4 -26.5t-11.5 -32t-17.5 -28t-21 -14.5q-39 -7 -73 -20t-66 -30.5t-63.5 -39t-65.5 -45.5q-6 6 -6 14q0 31 47 90q-9 0 -19 3.5t-19 10t-15 17t-6 25.5z" />
<glyph unicode="&#x626;" horiz-adv-x="683" arabic-form="initial" d="M-22 533h399q-19 32 -32.5 54.5t-25 39.5t-22 30.5t-23 27.5t-28.5 30.5t-38 40.5l198 214q37 -27 74 -81.5t68 -119.5t53 -132.5t30 -120.5l-163 -400h-489zM121 1151q-1 28 16.5 64.5t45.5 71.5t62.5 63.5t67 41.5t60 5.5t41.5 -45.5q6 -18 -18.5 -42t-66.5 -50 q-9 14 -27.5 19t-37.5 1.5t-33.5 -16t-14.5 -33.5q0 -37 76 -37q80 22 169 33q0 -10 -4 -26.5t-11.5 -32t-17.5 -28t-21 -14.5q-39 -7 -73 -20t-66 -30.5t-63.5 -39t-65.5 -45.5q-6 6 -6 14q0 31 47 90q-9 0 -19 3.5t-19 10t-15 17t-6 25.5z" />
<glyph unicode="&#x626;" horiz-adv-x="693" arabic-form="medial" d="M-16 116v417h230l73 259l241 146l-101 -405h281l1 -417h-245l-77 255l-63 -255h-340zM155 1102q-1 28 16.5 64.5t45.5 71.5t62.5 63.5t67 41.5t60 5.5t41.5 -45.5q6 -18 -18.5 -42t-66.5 -50q-9 14 -27.5 19t-37.5 1.5t-33.5 -16t-14.5 -33.5q0 -37 76 -37q80 22 169 33 q0 -10 -4 -26.5t-11.5 -32t-17.5 -28t-21 -14.5q-39 -7 -73 -20t-66 -30.5t-63.5 -39t-65.5 -45.5q-6 6 -6 14q0 31 47 90q-9 0 -19 3.5t-19 10t-15 17t-6 25.5z" />
<glyph unicode="&#x627;" horiz-adv-x="345" arabic-form="isolated" d="M42 1253l232 103l26 -823l-86 -417h-106z" />
<glyph unicode="&#x627;" horiz-adv-x="434" arabic-form="final" d="M41 1253l231 103l26 -823h162v-417h-353z" />
<glyph unicode="&#x628;" horiz-adv-x="1407" arabic-form="isolated" d="M46 372.5q-7 73.5 2.5 150.5t33.5 151.5t54 134.5l126 96q-10 -12 -20 -42.5t-15.5 -69.5t-4 -82t15.5 -80.5t43.5 -64t79.5 -33.5h730q-19 32 -32.5 54.5t-25 39.5t-22 30.5t-23 27.5t-28.5 30.5t-38 40.5l198 214q37 -27 74 -81.5t68 -119.5t53 -132.5t30 -120.5 l-163 -400h-859q-92 0 -150 34.5t-89 91.5t-38 130.5zM715 -203l164 164l164 -164l-164 -163z" />
<glyph unicode="&#x628;" horiz-adv-x="1480" arabic-form="final" d="M50 372.5q-7 73.5 2.5 150.5t33.5 151.5t54 134.5l126 96q-10 -12 -20 -42.5t-15.5 -69.5t-4 -82t15.5 -80.5t43.5 -64t79.5 -33.5h635l73 259l241 146l-101 -405h281l1 -417h-245l-77 255l-63 -255h-783q-92 0 -150 34.5t-89 91.5t-38 130.5zM536 -203l164 164l164 -164 l-164 -163z" />
<glyph unicode="&#x628;" horiz-adv-x="672" arabic-form="initial" d="M-22 533h399q-19 32 -32.5 54.5t-25 39.5t-22 30.5t-23 27.5t-28.5 30.5t-38 40.5l198 214q37 -27 74 -81.5t68 -119.5t53 -132.5t30 -120.5l-163 -400h-489zM131 -203l164 164l164 -164l-164 -163z" />
<glyph unicode="&#x628;" horiz-adv-x="682" arabic-form="medial" d="M-16 116v417h230l73 259l241 146l-101 -405h281l1 -417h-245l-77 255l-63 -255h-340zM157 -203l164 164l164 -164l-164 -163z" />
<glyph unicode="&#x629;" horiz-adv-x="850" arabic-form="isolated" d="M54.5 472.5q6.5 78.5 50.5 178.5q67 147 136.5 236t136 129t128 37t112.5 -40t89 -102.5t59 -150t22 -183.5t-23 -202l-238 -259q-75 1 -147.5 13t-134 38t-107.5 67.5t-68 100.5t-15.5 137.5zM60 1308l164 164l129 -129l129 129l164 -164l-164 -164l-129 129l-129 -129z M264 630.5q-3 -21.5 5 -42t28.5 -39t60 -33t100 -23t147.5 -8.5q-13 43 -29 83t-34 72.5t-37.5 54.5t-39.5 30q-29 10 -59 11t-56 -6t-46 -22t-29 -36q-8 -20 -11 -41.5z" />
<glyph unicode="&#x629;" horiz-adv-x="902" arabic-form="final" d="M70 240q0 115 2 200t14 147.5t38 107.5t74.5 80.5t123 64.5t182.5 61l-12 83l166 103l83 -555h179v-416h-311l-36 265l-87 -315zM99 1347l164 164l129 -129l129 129l164 -164l-164 -164l-129 129l-129 -129zM261 563l281 -115l-21 256z" />
<glyph unicode="&#x62a;" horiz-adv-x="1527" arabic-form="isolated" d="M46 372.5q-7 73.5 2.5 150.5t33.5 151.5t54 134.5l126 96q-10 -12 -20 -42.5t-15.5 -69.5t-4 -82t15.5 -80.5t43.5 -64t79.5 -33.5h865q-19 32 -32.5 54.5t-25 39.5t-22 30.5t-23 27.5t-28.5 30.5t-38 40.5l198 214q37 -27 74 -81.5t68 -119.5t53 -132.5t30 -120.5 l-163 -400h-994q-92 0 -150 34.5t-89 91.5t-38 130.5zM433 1048l164 164l129 -129l129 129l164 -164l-164 -164l-129 129l-129 -129z" />
<glyph unicode="&#x62a;" horiz-adv-x="1652" arabic-form="final" d="M50 372.5q-7 73.5 2.5 150.5t33.5 151.5t54 134.5l126 96q-10 -12 -20 -42.5t-15.5 -69.5t-4 -82t15.5 -80.5t43.5 -64t79.5 -33.5h814l73 259l241 146l-101 -405h281l1 -417h-245l-77 255l-63 -255h-962q-92 0 -150 34.5t-89 91.5t-38 130.5zM493 1048l164 164l129 -129 l129 129l164 -164l-164 -164l-129 129l-129 -129z" />
<glyph unicode="&#x62a;" horiz-adv-x="865" arabic-form="initial" d="M-21 533h591q-19 32 -32.5 54.5t-25 39.5t-22 30.5t-23 27.5t-28.5 30.5t-38 40.5l198 214q37 -27 74 -81.5t68 -119.5t53 -132.5t30 -120.5l-163 -400h-681zM71 1178l164 164l129 -129l129 129l164 -164l-164 -164l-129 129l-129 -129z" />
<glyph unicode="&#x62a;" horiz-adv-x="828" arabic-form="medial" d="M-21 116v417h381l73 259l241 146l-101 -405h281l1 -417h-245l-77 255l-63 -255h-491zM118 1178l164 164l129 -129l129 129l164 -164l-164 -164l-129 129l-129 -129z" />
<glyph unicode="&#x62b;" horiz-adv-x="1538" arabic-form="isolated" d="M46 372.5q-7 73.5 2.5 150.5t33.5 151.5t54 134.5l126 96q-10 -12 -20 -42.5t-15.5 -69.5t-4 -82t15.5 -80.5t43.5 -64t79.5 -33.5h865q-19 32 -32.5 54.5t-25 39.5t-22 30.5t-23 27.5t-28.5 30.5t-38 40.5l198 214q37 -27 74 -81.5t68 -119.5t53 -132.5t30 -120.5 l-163 -400h-994q-92 0 -150 34.5t-89 91.5t-38 130.5zM410 1016l164 164l129 -129l129 129l164 -164l-164 -164l-129 129l-129 -129zM543 1306l164 164l164 -164l-164 -163z" />
<glyph unicode="&#x62b;" horiz-adv-x="1652" arabic-form="final" d="M50 372.5q-7 73.5 2.5 150.5t33.5 151.5t54 134.5l126 96q-10 -12 -20 -42.5t-15.5 -69.5t-4 -82t15.5 -80.5t43.5 -64t79.5 -33.5h814l73 259l241 146l-101 -405h281l1 -417h-245l-77 255l-63 -255h-962q-92 0 -150 34.5t-89 91.5t-38 130.5zM483 1016l164 164l129 -129 l129 129l164 -164l-164 -164l-129 129l-129 -129zM616 1306l164 164l164 -164l-164 -163z" />
<glyph unicode="&#x62b;" horiz-adv-x="912" arabic-form="initial" d="M-22 533h639q-19 32 -32.5 54.5t-25 39.5t-22 30.5t-23 27.5t-28.5 30.5t-38 40.5l198 214q37 -27 74 -81.5t68 -119.5t53 -132.5t30 -120.5l-163 -400h-729zM57 1136l164 164l129 -129l129 129l164 -164l-164 -164l-129 129l-129 -129zM190 1426l164 164l164 -164 l-164 -163z" />
<glyph unicode="&#x62b;" horiz-adv-x="828" arabic-form="medial" d="M-21 116v417h381l73 259l241 146l-101 -405h281l1 -417h-245l-77 255l-63 -255h-491zM101 1136l164 164l129 -129l129 129l164 -164l-164 -164l-129 129l-129 -129zM234 1426l164 164l164 -164l-164 -163z" />
<glyph unicode="&#x62c;" horiz-adv-x="1095" arabic-form="isolated" d="M33.5 0.5q0.5 92.5 31 187t86.5 181t137 158.5t182 119q-75 33 -135 47t-109.5 12.5t-90.5 -16t-78 -37.5q5 45 21 98t43 100.5t64 82t84 42.5q95 -25 196 -51.5t200.5 -48.5t194 -35.5t177.5 -12.5l-150 -316q-44 -1 -104 -10.5t-125 -29t-130 -49.5t-120 -72.5 t-94 -98.5t-52 -126q-4 -67 26.5 -116.5t83 -85t121 -59.5t140.5 -39.5t141.5 -24.5t124.5 -14l-163 -292q-90 0 -174 11.5t-158 35t-136 57.5t-108 79q-66 64 -96.5 147.5t-30 176zM443 136l164 164l164 -164l-164 -163z" />
<glyph unicode="&#x62c;" horiz-adv-x="1152" arabic-form="final" d="M43.5 85.5q0.5 92.5 31 187t86.5 181t137 158.5t182 119q-35 26 -73.5 38t-78 14t-78 -4t-72 -16.5t-61 -23.5t-44.5 -25q5 45 21 98t43 100.5t64 82t84 42.5q88 -14 183.5 -33.5t190.5 -37t187.5 -29.5t175.5 -11l-131 -264q-55 -2 -125 -21q9 -40 29 -61t44.5 -31 t50 -12t45.5 -4h238v-417h-276q-65 0 -113 20t-80.5 54.5t-51 81t-26 99.5t-5.5 109.5t12 111.5q-61 -28 -120.5 -66t-109 -86t-84.5 -106t-47 -124q-4 -67 26.5 -116.5t83 -85t121 -59.5t140.5 -39.5t141.5 -24.5t124.5 -14l-163 -292q-90 0 -174 11.5t-158 35t-136 57.5 t-108 79q-66 64 -96.5 147.5t-30 176zM340 193l140 141l141 -141l-141 -139z" />
<glyph unicode="&#x62c;" horiz-adv-x="1131" arabic-form="initial" d="M-25 116v417h103h55t45 3t52.5 9.5t78.5 18.5q69 25 135 63t125 80q-52 45 -121 67t-140 14q-19 -2 -39.5 -5t-41 -9t-38.5 -16t-31 -25q-4 20 3.5 54t23 72.5t38.5 77t49 68t54.5 45t55.5 7.5q30 -8 82.5 -27t117.5 -43t137 -49.5t140.5 -46.5t129.5 -33.5t103 -10.5 l-83 -314q-100 3 -186 -19t-170 -69q-89 -51 -168 -117.5t-157 -130.5q-38 -28 -78.5 -49t-87.5 -32h-187zM339 -73l164 164l164 -164l-164 -163z" />
<glyph unicode="&#x62c;" horiz-adv-x="1215" arabic-form="medial" d="M-25 116v417h103h55t45 3t52.5 9.5t78.5 18.5q69 25 135 63t125 80q-52 45 -121 67t-140 14q-19 -2 -39.5 -5t-41 -9t-38.5 -16t-31 -25q-4 20 3.5 54t23 72.5t38.5 77t49 68t54.5 45t55.5 7.5q30 -8 82.5 -27t117.5 -43t137 -49.5t140.5 -46.5t129.5 -33.5t103 -10.5 l-83 -314h231l1 -417h-240l-142 406q-54 -11 -104.5 -30t-101.5 -47q-89 -51 -168 -117.5t-157 -130.5q-38 -28 -78.5 -49t-87.5 -32h-187zM464 -16l164 164l164 -164l-164 -163z" />
<glyph unicode="&#x62d;" horiz-adv-x="1095" arabic-form="isolated" d="M33.5 0.5q0.5 92.5 31 187t86.5 181t137 158.5t182 119q-75 33 -135 47t-109.5 12.5t-90.5 -16t-78 -37.5q5 45 21 98t43 100.5t64 82t84 42.5q95 -25 196 -51.5t200.5 -48.5t194 -35.5t177.5 -12.5l-150 -316q-44 -1 -104 -10.5t-125 -29t-130 -49.5t-120 -72.5 t-94 -98.5t-52 -126q-4 -67 26.5 -116.5t83 -85t121 -59.5t140.5 -39.5t141.5 -24.5t124.5 -14l-163 -292q-90 0 -174 11.5t-158 35t-136 57.5t-108 79q-66 64 -96.5 147.5t-30 176z" />
<glyph unicode="&#x62d;" horiz-adv-x="1152" arabic-form="final" d="M43.5 85.5q0.5 92.5 31 187t86.5 181t137 158.5t182 119q-35 26 -73.5 38t-78 14t-78 -4t-72 -16.5t-61 -23.5t-44.5 -25q5 45 21 98t43 100.5t64 82t84 42.5q88 -14 183.5 -33.5t190.5 -37t187.5 -29.5t175.5 -11l-131 -264q-55 -2 -125 -21q9 -40 29 -61t44.5 -31 t50 -12t45.5 -4h238v-417h-276q-65 0 -113 20t-80.5 54.5t-51 81t-26 99.5t-5.5 109.5t12 111.5q-61 -28 -120.5 -66t-109 -86t-84.5 -106t-47 -124q-4 -67 26.5 -116.5t83 -85t121 -59.5t140.5 -39.5t141.5 -24.5t124.5 -14l-163 -292q-90 0 -174 11.5t-158 35t-136 57.5 t-108 79q-66 64 -96.5 147.5t-30 176z" />
<glyph unicode="&#x62d;" horiz-adv-x="1131" arabic-form="initial" d="M-25 116v417h103h55t45 3t52.5 9.5t78.5 18.5q69 25 135 63t125 80q-52 45 -121 67t-140 14q-19 -2 -39.5 -5t-41 -9t-38.5 -16t-31 -25q-4 20 3.5 54t23 72.5t38.5 77t49 68t54.5 45t55.5 7.5q30 -8 82.5 -27t117.5 -43t137 -49.5t140.5 -46.5t129.5 -33.5t103 -10.5 l-83 -314q-100 3 -186 -19t-170 -69q-89 -51 -168 -117.5t-157 -130.5q-38 -28 -78.5 -49t-87.5 -32h-187z" />
<glyph unicode="&#x62d;" horiz-adv-x="1215" arabic-form="medial" d="M-25 116v417h103h55t45 3t52.5 9.5t78.5 18.5q69 25 135 63t125 80q-52 45 -121 67t-140 14q-19 -2 -39.5 -5t-41 -9t-38.5 -16t-31 -25q-4 20 3.5 54t23 72.5t38.5 77t49 68t54.5 45t55.5 7.5q30 -8 82.5 -27t117.5 -43t137 -49.5t140.5 -46.5t129.5 -33.5t103 -10.5 l-83 -314h231l1 -417h-240l-142 406q-54 -11 -104.5 -30t-101.5 -47q-89 -51 -168 -117.5t-157 -130.5q-38 -28 -78.5 -49t-87.5 -32h-187z" />
<glyph unicode="&#x62e;" horiz-adv-x="1095" arabic-form="isolated" d="M33.5 0.5q0.5 92.5 31 187t86.5 181t137 158.5t182 119q-75 33 -135 47t-109.5 12.5t-90.5 -16t-78 -37.5q5 45 21 98t43 100.5t64 82t84 42.5q95 -25 196 -51.5t200.5 -48.5t194 -35.5t177.5 -12.5l-150 -316q-44 -1 -104 -10.5t-125 -29t-130 -49.5t-120 -72.5 t-94 -98.5t-52 -126q-4 -67 26.5 -116.5t83 -85t121 -59.5t140.5 -39.5t141.5 -24.5t124.5 -14l-163 -292q-90 0 -174 11.5t-158 35t-136 57.5t-108 79q-66 64 -96.5 147.5t-30 176zM266 1225l164 164l164 -164l-164 -163z" />
<glyph unicode="&#x62e;" horiz-adv-x="1152" arabic-form="final" d="M43.5 85.5q0.5 92.5 31 187t86.5 181t137 158.5t182 119q-35 26 -73.5 38t-78 14t-78 -4t-72 -16.5t-61 -23.5t-44.5 -25q5 45 21 98t43 100.5t64 82t84 42.5q88 -14 183.5 -33.5t190.5 -37t187.5 -29.5t175.5 -11l-131 -264q-55 -2 -125 -21q9 -40 29 -61t44.5 -31 t50 -12t45.5 -4h238v-417h-276q-65 0 -113 20t-80.5 54.5t-51 81t-26 99.5t-5.5 109.5t12 111.5q-61 -28 -120.5 -66t-109 -86t-84.5 -106t-47 -124q-4 -67 26.5 -116.5t83 -85t121 -59.5t140.5 -39.5t141.5 -24.5t124.5 -14l-163 -292q-90 0 -174 11.5t-158 35t-136 57.5 t-108 79q-66 64 -96.5 147.5t-30 176zM324 1267l164 164l164 -164l-164 -163z" />
<glyph unicode="&#x62e;" horiz-adv-x="1131" arabic-form="initial" d="M-25 116v417h103h55t45 3t52.5 9.5t78.5 18.5q69 25 135 63t125 80q-52 45 -121 67t-140 14q-19 -2 -39.5 -5t-41 -9t-38.5 -16t-31 -25q-4 20 3.5 54t23 72.5t38.5 77t49 68t54.5 45t55.5 7.5q30 -8 82.5 -27t117.5 -43t137 -49.5t140.5 -46.5t129.5 -33.5t103 -10.5 l-83 -314q-100 3 -186 -19t-170 -69q-89 -51 -168 -117.5t-157 -130.5q-38 -28 -78.5 -49t-87.5 -32h-187zM136 1308l164 164l164 -164l-164 -163z" />
<glyph unicode="&#x62e;" horiz-adv-x="1215" arabic-form="medial" d="M-25 116v417h103h55t45 3t52.5 9.5t78.5 18.5q69 25 135 63t125 80q-52 45 -121 67t-140 14q-19 -2 -39.5 -5t-41 -9t-38.5 -16t-31 -25q-4 20 3.5 54t23 72.5t38.5 77t49 68t54.5 45t55.5 7.5q30 -8 82.5 -27t117.5 -43t137 -49.5t140.5 -46.5t129.5 -33.5t103 -10.5 l-83 -314h231l1 -417h-240l-142 406q-54 -11 -104.5 -30t-101.5 -47q-89 -51 -168 -117.5t-157 -130.5q-38 -28 -78.5 -49t-87.5 -32h-187zM386 1308l164 164l164 -164l-164 -163z" />
<glyph unicode="&#x62f;" horiz-adv-x="834" arabic-form="isolated" d="M61 116l3 515l49 36q8 -47 20 -73t29.5 -39t41.5 -17t55 -7l320 1q-22 72 -53.5 124.5t-68.5 91.5t-78 68t-82 55l129 224q86 -47 145.5 -98t100 -116.5t66 -150t43.5 -198.5l-112 -416h-608z" />
<glyph unicode="&#x62f;" horiz-adv-x="850" arabic-form="final" d="M55 116l3 515l49 36q8 -50 19 -76t27.5 -38t40.5 -15t59 -6h235q5 6 2.5 27t-10.5 51t-21 65.5t-28.5 70t-33 66t-34.5 53.5l153 204q56 -67 89 -139t51.5 -143t28 -136.5t17.5 -118.5h170l1 -416h-208l-38 139l-37 -139h-535z" />
<glyph unicode="&#x630;" horiz-adv-x="834" arabic-form="isolated" d="M61 116l3 515l49 36q8 -47 20 -73t29.5 -39t41.5 -17t55 -7l320 1q-22 72 -53.5 124.5t-68.5 91.5t-78 68t-82 55l129 224q86 -47 145.5 -98t100 -116.5t66 -150t43.5 -198.5l-112 -416h-608zM141 1298l164 164l164 -164l-164 -163z" />
<glyph unicode="&#x630;" horiz-adv-x="850" arabic-form="final" d="M55 116l3 515l49 36q8 -50 19 -76t27.5 -38t40.5 -15t59 -6h235q5 6 2.5 27t-10.5 51t-21 65.5t-28.5 70t-33 66t-34.5 53.5l153 204q56 -67 89 -139t51.5 -143t28 -136.5t17.5 -118.5h170l1 -416h-208l-38 139l-37 -139h-535zM166 1236l164 164l164 -164l-164 -163z" />
<glyph unicode="&#x631;" horiz-adv-x="678" arabic-form="isolated" d="M-186 -65q47 14 107.5 36.5t123.5 54t123.5 70.5t108 86t76.5 100.5t29 114.5q0 62 -8 106t-22.5 79.5t-33 67.5t-39.5 71l205 233q61 -105 97 -225.5t37 -243.5q1 -125 -20.5 -233.5t-71 -198.5t-128 -159t-190.5 -114z" />
<glyph unicode="&#x631;" horiz-adv-x="766" arabic-form="final" d="M-186 -65q47 14 107.5 36.5t123.5 54t123.5 70.5t108 86t76.5 100.5t29 114.5q0 62 -8 106t-22.5 79.5t-33 67.5t-39.5 71l205 233q55 -95 90 -202.5t42 -218.5h165l1 -417h-226q-47 -113 -132 -197.5t-216 -138.5z" />
<glyph unicode="&#x632;" horiz-adv-x="678" arabic-form="isolated" d="M-186 -65q47 14 107.5 36.5t123.5 54t123.5 70.5t108 86t76.5 100.5t29 114.5q0 62 -8 106t-22.5 79.5t-33 67.5t-39.5 71l205 233q61 -105 97 -225.5t37 -243.5q1 -125 -20.5 -233.5t-71 -198.5t-128 -159t-190.5 -114zM93 1136l164 164l164 -164l-164 -163z" />
<glyph unicode="&#x632;" horiz-adv-x="766" arabic-form="final" d="M-186 -65q47 14 107.5 36.5t123.5 54t123.5 70.5t108 86t76.5 100.5t29 114.5q0 62 -8 106t-22.5 79.5t-33 67.5t-39.5 71l205 233q55 -95 90 -202.5t42 -218.5h165l1 -417h-226q-47 -113 -132 -197.5t-216 -138.5zM93 1136l164 164l164 -164l-164 -163z" />
<glyph unicode="&#x633;" horiz-adv-x="1970" arabic-form="isolated" d="M69.5 270q8.5 93 34.5 186t63 170l100 73q-11 -47 -22 -105t-16 -118t-0.5 -116.5t24.5 -100t58 -68.5t102 -22q41 2 94.5 10.5t105 25.5t94 42t62.5 60q-2 30 -7.5 63t-22 72t-46.5 85.5t-81 103.5l136 229q81 -69 128 -152t65 -175h283q8 9 -1 41.5t-28 74.5l153 178 q15 -36 27.5 -75.5t22 -77.5t16.5 -74.5t12 -66.5h267q7 9 -2.5 43.5t-29.5 78.5t-46.5 89.5t-51.5 78.5l146 169q37 -27 68 -82t54.5 -121t39.5 -134.5t24 -121.5l-112 -417h-895q-29 -65 -70.5 -112.5t-98 -81t-129.5 -55t-165 -34.5q-111 -16 -183.5 15.5t-113.5 94 t-54 148.5t-4.5 179z" />
<glyph unicode="&#x633;" horiz-adv-x="2012" arabic-form="final" d="M69.5 270q8.5 93 34.5 186t63 170l100 73q-11 -47 -22 -105t-16 -118t-0.5 -116.5t24.5 -100t58 -68.5t102 -22q41 2 94.5 10.5t105 25.5t94 42t62.5 60q-2 30 -7.5 63t-22 72t-46.5 85.5t-81 103.5l136 229q81 -69 128 -152t65 -175h283q8 9 -1 41.5t-28 74.5l153 178 q15 -36 27.5 -75.5t22 -77.5t16.5 -74.5t12 -66.5h267q7 9 -2.5 43.5t-29.5 78.5t-46.5 89.5t-51.5 78.5l146 169q37 -27 68 -82t54.5 -121t39.5 -134.5t24 -121.5h146l1 -417h-184l-38 140l-37 -140h-895q-29 -65 -70.5 -112.5t-98 -81t-129.5 -55t-165 -34.5 q-111 -16 -183.5 15.5t-113.5 94t-54 148.5t-4.5 179z" />
<glyph unicode="&#x633;" horiz-adv-x="1349" arabic-form="initial" d="M-21 533h183q8 9 -1 41.5t-28 74.5l153 178q28 -69 48.5 -144.5t29.5 -149.5h288q8 9 -1 41.5t-27 74.5l152 178q15 -36 27.5 -75.5t22 -77.5t16.5 -74.5t12 -66.5h260q8 9 -1.5 43.5t-29.5 78.5t-46.5 89.5t-51.5 78.5l145 169q38 -27 69 -82t54 -121t39 -134.5 t24 -121.5l-111 -417h-1225z" />
<glyph unicode="&#x633;" horiz-adv-x="1478" arabic-form="medial" d="M-36 533h196q8 9 -1 41.5t-28 74.5l153 178q28 -69 48.5 -144.5t29.5 -149.5h289q7 9 -2 41.5t-27 74.5l153 178q15 -36 27 -75.5t21.5 -77.5t16.5 -74.5t12 -66.5h267q8 9 -1.5 43.5t-29.5 78.5t-46.5 89.5t-51.5 78.5l145 169q38 -27 69 -82t54 -121t39 -134.5 t24 -121.5h182v-417h-218l-38 140l-38 -140h-1244z" />
<glyph unicode="&#x634;" horiz-adv-x="1970" arabic-form="isolated" d="M69.5 270q8.5 93 34.5 186t63 170l100 73q-11 -47 -22 -105t-16 -118t-0.5 -116.5t24.5 -100t58 -68.5t102 -22q41 2 94.5 10.5t105 25.5t94 42t62.5 60q-2 30 -7.5 63t-22 72t-46.5 85.5t-81 103.5l136 229q81 -69 128 -152t65 -175h283q8 9 -1 41.5t-28 74.5l153 178 q15 -36 27.5 -75.5t22 -77.5t16.5 -74.5t12 -66.5h267q7 9 -2.5 43.5t-29.5 78.5t-46.5 89.5t-51.5 78.5l146 169q37 -27 68 -82t54.5 -121t39.5 -134.5t24 -121.5l-112 -417h-895q-29 -65 -70.5 -112.5t-98 -81t-129.5 -55t-165 -34.5q-111 -16 -183.5 15.5t-113.5 94 t-54 148.5t-4.5 179zM931 1116l164 164l129 -129l129 129l164 -164l-164 -164l-129 129l-129 -129zM1064 1406l164 164l164 -164l-164 -163z" />
<glyph unicode="&#x634;" horiz-adv-x="2012" arabic-form="final" d="M69.5 270q8.5 93 34.5 186t63 170l100 73q-11 -47 -22 -105t-16 -118t-0.5 -116.5t24.5 -100t58 -68.5t102 -22q41 2 94.5 10.5t105 25.5t94 42t62.5 60q-2 30 -7.5 63t-22 72t-46.5 85.5t-81 103.5l136 229q81 -69 128 -152t65 -175h283q8 9 -1 41.5t-28 74.5l153 178 q15 -36 27.5 -75.5t22 -77.5t16.5 -74.5t12 -66.5h267q7 9 -2.5 43.5t-29.5 78.5t-46.5 89.5t-51.5 78.5l146 169q37 -27 68 -82t54.5 -121t39.5 -134.5t24 -121.5h146l1 -417h-184l-38 140l-37 -140h-895q-29 -65 -70.5 -112.5t-98 -81t-129.5 -55t-165 -34.5 q-111 -16 -183.5 15.5t-113.5 94t-54 148.5t-4.5 179zM957 1121l164 164l129 -129l129 129l164 -164l-164 -164l-129 129l-129 -129zM1090 1411l164 164l164 -164l-164 -163z" />
<glyph unicode="&#x634;" horiz-adv-x="1349" arabic-form="initial" d="M-21 533h183q8 9 -1 41.5t-28 74.5l153 178q28 -69 48.5 -144.5t29.5 -149.5h288q8 9 -1 41.5t-27 74.5l152 178q15 -36 27.5 -75.5t22 -77.5t16.5 -74.5t12 -66.5h260q8 9 -1.5 43.5t-29.5 78.5t-46.5 89.5t-51.5 78.5l145 169q38 -27 69 -82t54 -121t39 -134.5 t24 -121.5l-111 -417h-1225zM415 1136l164 164l129 -129l129 129l164 -164l-164 -164l-129 129l-129 -129zM548 1426l164 164l164 -164l-164 -163z" />
<glyph unicode="&#x634;" horiz-adv-x="1478" arabic-form="medial" d="M-36 533h196q8 9 -1 41.5t-28 74.5l153 178q28 -69 48.5 -144.5t29.5 -149.5h289q7 9 -2 41.5t-27 74.5l153 178q15 -36 27 -75.5t21.5 -77.5t16.5 -74.5t12 -66.5h267q8 9 -1.5 43.5t-29.5 78.5t-46.5 89.5t-51.5 78.5l145 169q38 -27 69 -82t54 -121t39 -134.5 t24 -121.5h182v-417h-218l-38 140l-38 -140h-1244zM415 1136l164 164l129 -129l129 129l164 -164l-164 -164l-129 129l-129 -129zM548 1426l164 164l164 -164l-164 -163z" />
<glyph unicode="&#x635;" horiz-adv-x="2142" arabic-form="isolated" d="M64.5 270q8.5 93 34.5 186t63 170l100 73q-11 -47 -22 -105t-16 -118t-0.5 -116.5t24.5 -100t58.5 -68.5t101.5 -22q41 2 94.5 10.5t105 25.5t94 42t62.5 60q-2 30 -7.5 63t-22 72t-46.5 85.5t-81 103.5l136 229q81 -69 128 -152t65 -175h94q42 39 92.5 89.5t107.5 103 t120.5 102t131 87.5t138.5 59t143 16q62 -4 107 -28t76.5 -61t51.5 -83.5t33.5 -96t23 -98.5t18.5 -90l-88 -417h-1102q-29 -65 -70.5 -112.5t-98 -81t-129.5 -55t-165 -34.5q-111 -16 -183.5 15.5t-113.5 94t-54 148.5t-4.5 179zM1277 533h561q-5 59 -32 100.5t-67.5 64 t-89 26.5t-95.5 -11q-38 -12 -74.5 -32t-71.5 -44.5t-68 -51.5t-63 -52z" />
<glyph unicode="&#x635;" horiz-adv-x="2183" arabic-form="final" d="M64.5 270q8.5 93 34.5 186t63 170l100 73q-11 -47 -22 -105t-16 -118t-0.5 -116.5t24.5 -100t58.5 -68.5t101.5 -22q41 2 94.5 10.5t105 25.5t94 42t62.5 60q-2 30 -7.5 63t-22 72t-46.5 85.5t-81 103.5l136 229q81 -69 128 -152t65 -175h94q42 39 92.5 89.5t107.5 103 t120.5 102t131 87.5t138.5 59t143 16q62 -4 107 -28t76.5 -61t51.5 -83.5t33.5 -96t23 -98.5t18.5 -90h135v-417h-1325q-29 -65 -70.5 -112.5t-98 -81t-129.5 -55t-165 -34.5q-111 -16 -183.5 15.5t-113.5 94t-54 148.5t-4.5 179zM1277 533h561q-5 59 -32 100.5t-67.5 64 t-89 26.5t-95.5 -11q-38 -12 -74.5 -32t-71.5 -44.5t-68 -51.5t-63 -52z" />
<glyph unicode="&#x635;" horiz-adv-x="1573" arabic-form="initial" d="M-17 533h248q8 9 -1 41.5t-28 74.5l153 178q15 -36 27 -75.5t22 -77.5t17 -74.5t12 -66.5h55q41 39 91.5 89.5t108 103t120.5 102t131 87.5t139 59t143 16q62 -4 107 -28t76.5 -61t51.5 -83.5t33.5 -96t23 -98.5t18.5 -90l-112 -417h-1435zM735 533h561q-5 59 -32 100.5 t-67.5 64t-89 26.5t-95.5 -11q-38 -12 -75 -32t-72 -44.5t-67.5 -51.5t-62.5 -52z" />
<glyph unicode="&#x635;" horiz-adv-x="1638" arabic-form="medial" d="M-20 116v417h208q8 9 -1.5 41.5t-27.5 74.5l153 178q15 -36 27 -75.5t22 -77.5t17 -74.5t11 -66.5h55q42 39 92.5 89.5t107.5 103t120.5 102t131 87.5t138.5 59t143 16q63 -4 107.5 -28t76 -61t51.5 -83.5t33.5 -96t23 -98.5t18.5 -90h175l1 -417h-1683zM692 533h560 q-5 59 -32 100.5t-67.5 64t-88.5 26.5t-95 -11q-38 -12 -75 -32t-72 -44.5t-67.5 -51.5t-62.5 -52z" />
<glyph unicode="&#x636;" horiz-adv-x="2142" arabic-form="isolated" d="M64.5 270q8.5 93 34.5 186t63 170l100 73q-11 -47 -22 -105t-16 -118t-0.5 -116.5t24.5 -100t58.5 -68.5t101.5 -22q41 2 94.5 10.5t105 25.5t94 42t62.5 60q-2 30 -7.5 63t-22 72t-46.5 85.5t-81 103.5l136 229q81 -69 128 -152t65 -175h94q42 39 92.5 89.5t107.5 103 t120.5 102t131 87.5t138.5 59t143 16q62 -4 107 -28t76.5 -61t51.5 -83.5t33.5 -96t23 -98.5t18.5 -90l-88 -417h-1102q-29 -65 -70.5 -112.5t-98 -81t-129.5 -55t-165 -34.5q-111 -16 -183.5 15.5t-113.5 94t-54 148.5t-4.5 179zM913 1100l164 164l164 -164l-164 -163z M1277 533h561q-5 59 -32 100.5t-67.5 64t-89 26.5t-95.5 -11q-38 -12 -74.5 -32t-71.5 -44.5t-68 -51.5t-63 -52z" />
<glyph unicode="&#x636;" horiz-adv-x="2183" arabic-form="final" d="M64.5 270q8.5 93 34.5 186t63 170l100 73q-11 -47 -22 -105t-16 -118t-0.5 -116.5t24.5 -100t58.5 -68.5t101.5 -22q41 2 94.5 10.5t105 25.5t94 42t62.5 60q-2 30 -7.5 63t-22 72t-46.5 85.5t-81 103.5l136 229q81 -69 128 -152t65 -175h94q42 39 92.5 89.5t107.5 103 t120.5 102t131 87.5t138.5 59t143 16q62 -4 107 -28t76.5 -61t51.5 -83.5t33.5 -96t23 -98.5t18.5 -90h135v-417h-1325q-29 -65 -70.5 -112.5t-98 -81t-129.5 -55t-165 -34.5q-111 -16 -183.5 15.5t-113.5 94t-54 148.5t-4.5 179zM975 1100l164 164l164 -164l-164 -163z M1277 533h561q-5 59 -32 100.5t-67.5 64t-89 26.5t-95.5 -11q-38 -12 -74.5 -32t-71.5 -44.5t-68 -51.5t-63 -52z" />
<glyph unicode="&#x636;" horiz-adv-x="1573" arabic-form="initial" d="M-17 533h248q8 9 -1 41.5t-28 74.5l153 178q15 -36 27 -75.5t22 -77.5t17 -74.5t12 -66.5h55q41 39 91.5 89.5t108 103t120.5 102t131 87.5t139 59t143 16q62 -4 107 -28t76.5 -61t51.5 -83.5t33.5 -96t23 -98.5t18.5 -90l-112 -417h-1435zM462 1136l164 164l164 -164 l-164 -163zM735 533h561q-5 59 -32 100.5t-67.5 64t-89 26.5t-95.5 -11q-38 -12 -75 -32t-72 -44.5t-67.5 -51.5t-62.5 -52z" />
<glyph unicode="&#x636;" horiz-adv-x="1638" arabic-form="medial" d="M-20 116v417h208q8 9 -1.5 41.5t-27.5 74.5l153 178q15 -36 27 -75.5t22 -77.5t17 -74.5t11 -66.5h55q42 39 92.5 89.5t107.5 103t120.5 102t131 87.5t138.5 59t143 16q63 -4 107.5 -28t76 -61t51.5 -83.5t33.5 -96t23 -98.5t18.5 -90h175l1 -417h-1683zM462 1136 l164 164l164 -164l-164 -163zM692 533h560q-5 59 -32 100.5t-67.5 64t-88.5 26.5t-95 -11q-38 -12 -75 -32t-72 -44.5t-67.5 -51.5t-62.5 -52z" />
<glyph unicode="&#x637;" horiz-adv-x="1404" arabic-form="isolated" d="M14 533h248l-51 720l231 103l85 -312l-74 -31l11 -327q69 61 141 121t145.5 105t148 68t146.5 10q62 -11 106.5 -37.5t76 -63.5t52 -82t34 -92t23 -94t18.5 -88l-112 -417h-1142zM560 532l560 1q-5 59 -32 100.5t-67.5 64t-88.5 26.5t-95 -11q-38 -12 -75 -32.5t-72 -45 t-67.5 -51.5t-62.5 -52z" />
<glyph unicode="&#x637;" horiz-adv-x="1518" arabic-form="final" d="M35 533h248l-51 720l231 103l85 -312l-74 -31l10 -327q69 61 141.5 121t146 105t148 68t146.5 10q62 -11 106.5 -37.5t75.5 -63.5t51.5 -82t34.5 -92t23.5 -94t18.5 -88h172v-417h-1400zM581 532l560 1q-5 59 -32 100.5t-67.5 64t-89 26.5t-95.5 -11q-38 -12 -74.5 -32.5 t-71.5 -45t-67.5 -51.5t-62.5 -52z" />
<glyph unicode="&#x637;" horiz-adv-x="1334" arabic-form="initial" d="M-37 116v417h248l-52 720l231 103l85 -312l-73 -31l10 -327q69 61 141 121t146 105t148.5 68t146.5 10q62 -11 106 -37.5t75.5 -63.5t52 -82t34 -92t23 -94t19.5 -88l-112 -417h-1229zM508 532l561 1q-5 59 -32.5 100.5t-68 64t-88.5 26.5t-95 -11q-38 -12 -74.5 -32.5 t-71.5 -45t-68 -51.5t-63 -52z" />
<glyph unicode="&#x637;" horiz-adv-x="1395" arabic-form="medial" d="M-37 533h200l-51 720l231 103l84 -312l-73 -31l11 -327q69 61 141 121t145.5 105t148 68t146.5 10q62 -11 106.5 -37.5t75.5 -63.5t51.5 -82t34.5 -92t23.5 -94t18.5 -88h172v-417h-1463zM460 532l561 1q-5 59 -32 100.5t-67.5 64t-89 26.5t-95.5 -11 q-38 -12 -74.5 -32.5t-71.5 -45t-68 -51.5t-63 -52z" />
<glyph unicode="&#x638;" horiz-adv-x="1404" arabic-form="isolated" d="M14 533h248l-51 720l231 103l85 -312l-74 -31l11 -327q69 61 141 121t145.5 105t148 68t146.5 10q62 -11 106.5 -37.5t76 -63.5t52 -82t34 -92t23 -94t18.5 -88l-112 -417h-1142zM560 532l560 1q-5 59 -32 100.5t-67.5 64t-88.5 26.5t-95 -11q-38 -12 -75 -32.5t-72 -45 t-67.5 -51.5t-62.5 -52zM602 1190l164 164l164 -164l-164 -163z" />
<glyph unicode="&#x638;" horiz-adv-x="1518" arabic-form="final" d="M35 533h248l-51 720l231 103l85 -312l-74 -31l10 -327q69 61 141.5 121t146 105t148 68t146.5 10q62 -11 106.5 -37.5t75.5 -63.5t51.5 -82t34.5 -92t23.5 -94t18.5 -88h172v-417h-1400zM581 532l560 1q-5 59 -32 100.5t-67.5 64t-89 26.5t-95.5 -11q-38 -12 -74.5 -32.5 t-71.5 -45t-67.5 -51.5t-62.5 -52zM622 1185l164 164l164 -164l-164 -163z" />
<glyph unicode="&#x638;" horiz-adv-x="1334" arabic-form="initial" d="M-37 116v417h248l-52 720l231 103l85 -312l-73 -31l10 -327q69 61 141 121t146 105t148.5 68t146.5 10q62 -11 106 -37.5t75.5 -63.5t52 -82t34 -92t23 -94t19.5 -88l-112 -417h-1229zM508 532l561 1q-5 59 -32.5 100.5t-68 64t-88.5 26.5t-95 -11q-38 -12 -74.5 -32.5 t-71.5 -45t-68 -51.5t-63 -52zM533 1185l164 164l164 -164l-164 -163z" />
<glyph unicode="&#x638;" horiz-adv-x="1395" arabic-form="medial" d="M-37 533h200l-51 720l231 103l84 -312l-73 -31l11 -327q69 61 141 121t145.5 105t148 68t146.5 10q62 -11 106.5 -37.5t75.5 -63.5t51.5 -82t34.5 -92t23.5 -94t18.5 -88h172v-417h-1463zM460 532l561 1q-5 59 -32 100.5t-67.5 64t-89 26.5t-95.5 -11 q-38 -12 -74.5 -32.5t-71.5 -45t-68 -51.5t-63 -52zM498 1190l164 164l164 -164l-164 -163z" />
<glyph unicode="&#x639;" horiz-adv-x="973" arabic-form="isolated" d="M55.5 -93.5q-6.5 80.5 24.5 174.5q21 65 66 135.5t119 148.5q-36 30 -61 54.5t-40.5 46.5t-24.5 42.5t-13 41.5q-10 43 2 94t40 102.5t70 100.5t91.5 88.5t104.5 66.5t109 35t105.5 -7.5t93.5 -59.5l-89 -230q-48 28 -91.5 44.5t-82 12.5t-72 -31t-61.5 -85 q24 -49 76 -74.5t120.5 -33t148.5 0t160 24.5l-141 -295q-36 3 -77 -2.5t-82 -18.5t-80 -32t-71.5 -43t-55 -52.5t-31.5 -59.5q-13 -44 -0.5 -81.5t42.5 -68.5t74.5 -56t96 -44.5t106 -32.5t105.5 -20t94 -8.5t72 2.5l-163 -292q-109 0 -209 17t-183.5 51t-147.5 84 t-101 115t-43.5 145.5z" />
<glyph unicode="&#x639;" horiz-adv-x="1029" arabic-form="final" d="M86 29q-13 100 31 211q23 58 56 112t74.5 100.5t91 84t104.5 61.5q-4 2 -22.5 18.5t-43 38.5t-51 43t-45.5 32l193 240q10 20 42.5 31t76 9t92 -17.5t90.5 -46.5t71 -79.5t34 -116.5q1 -22 -7.5 -51.5t-24 -60.5t-35.5 -59t-41 -46h287v-417h-176q-37 4 -73 14 t-68.5 28.5t-60.5 47t-50 69.5l-78 148q-117 -53 -176 -102t-63 -109q-2 -24 3 -47t23 -48.5t51.5 -56t88.5 -69t135.5 -88t192.5 -112.5q-2 1 -22 -15t-48 -41t-61 -54t-61 -54t-47.5 -41.5t-21.5 -15.5q-131 49 -231 118t-158.5 155t-71.5 186z" />
<glyph unicode="&#x639;" horiz-adv-x="999" arabic-form="initial" d="M-26 533h156q1 17 1.5 37.5t3.5 43.5q5 42 32.5 91.5t70 100t96.5 97t111.5 82.5t115.5 56t108 17.5t89.5 -32t59.5 -93.5q10 -33 1.5 -68.5t-27 -66.5t-43 -54t-46.5 -32q-78 91 -164.5 88t-178.5 -103q10 -21 26 -43.5t34 -44t37 -41t37 -35.5h472l-112 -417h-879z" />
<glyph unicode="&#x639;" horiz-adv-x="904" arabic-form="medial" d="M-32 533h395q-12 36 -43 60.5t-67.5 40.5t-72 24.5t-55.5 13.5l52 202q36 45 92 76t119.5 44.5t127.5 8t115.5 -34t84 -82.5t32.5 -136q0 -22 -9 -51.5t-24 -60.5t-34.5 -59t-40.5 -46h287v-417h-177q-37 4 -72.5 14t-67.5 28.5t-60.5 47t-50.5 69.5l-77 -159h-453z" />
<glyph unicode="&#x63a;" horiz-adv-x="973" arabic-form="isolated" d="M55.5 -93.5q-6.5 80.5 24.5 174.5q21 65 66 135.5t119 148.5q-36 30 -61 54.5t-40.5 46.5t-24.5 42.5t-13 41.5q-10 43 2 94t40 102.5t70 100.5t91.5 88.5t104.5 66.5t109 35t105.5 -7.5t93.5 -59.5l-89 -230q-48 28 -91.5 44.5t-82 12.5t-72 -31t-61.5 -85 q24 -49 76 -74.5t120.5 -33t148.5 0t160 24.5l-141 -295q-36 3 -77 -2.5t-82 -18.5t-80 -32t-71.5 -43t-55 -52.5t-31.5 -59.5q-13 -44 -0.5 -81.5t42.5 -68.5t74.5 -56t96 -44.5t106 -32.5t105.5 -20t94 -8.5t72 2.5l-163 -292q-109 0 -209 17t-183.5 51t-147.5 84 t-101 115t-43.5 145.5zM219 1251l164 164l164 -164l-164 -163z" />
<glyph unicode="&#x63a;" horiz-adv-x="1029" arabic-form="final" d="M86 29q-13 100 31 211q23 58 56 112t74.5 100.5t91 84t104.5 61.5q-4 2 -22.5 18.5t-43 38.5t-51 43t-45.5 32l193 240q10 20 42.5 31t76 9t92 -17.5t90.5 -46.5t71 -79.5t34 -116.5q1 -22 -7.5 -51.5t-24 -60.5t-35.5 -59t-41 -46h287v-417h-176q-37 4 -73 14 t-68.5 28.5t-60.5 47t-50 69.5l-78 148q-117 -53 -176 -102t-63 -109q-2 -24 3 -47t23 -48.5t51.5 -56t88.5 -69t135.5 -88t192.5 -112.5q-2 1 -22 -15t-48 -41t-61 -54t-61 -54t-47.5 -41.5t-21.5 -15.5q-131 49 -231 118t-158.5 155t-71.5 186zM401 1248l164 164l164 -164 l-164 -163z" />
<glyph unicode="&#x63a;" horiz-adv-x="999" arabic-form="initial" d="M-26 533h156q1 17 1.5 37.5t3.5 43.5q5 42 32.5 91.5t70 100t96.5 97t111.5 82.5t115.5 56t108 17.5t89.5 -32t59.5 -93.5q10 -33 1.5 -68.5t-27 -66.5t-43 -54t-46.5 -32q-78 91 -164.5 88t-178.5 -103q10 -21 26 -43.5t34 -44t37 -41t37 -35.5h472l-112 -417h-879z M188 1287l164 164l164 -164l-164 -163z" />
<glyph unicode="&#x63a;" horiz-adv-x="904" arabic-form="medial" d="M-32 533h395q-12 36 -43 60.5t-67.5 40.5t-72 24.5t-55.5 13.5l52 202q36 45 92 76t119.5 44.5t127.5 8t115.5 -34t84 -82.5t32.5 -136q0 -22 -9 -51.5t-24 -60.5t-34.5 -59t-40.5 -46h287v-417h-177q-37 4 -72.5 14t-67.5 28.5t-60.5 47t-50.5 69.5l-77 -159h-453z M280 1273l164 164l164 -164l-164 -163z" />
<glyph unicode="&#x641;" horiz-adv-x="1563" arabic-form="isolated" d="M48 372.5q-7 73.5 2.5 150.5t33.5 151.5t54 134.5l126 96q-10 -12 -20.5 -42.5t-16 -69.5t-4 -82t16 -80.5t43.5 -64t79 -33.5h941q-373 92 -412 123q-35 21 -49 54.5t-11 73t19.5 83t42.5 85t59 78.5t68 63.5t69 40.5t63 9q52 -9 96.5 -47t81.5 -92.5t67 -120t52 -130.5 t36 -123t20 -97l-112 -417h-1068q-92 0 -150 34.5t-89 91.5t-38 130.5zM890 1382l164 164l164 -164l-164 -163zM1025 850q8 -17 35.5 -35.5t62 -32.5t70 -21t60.5 0q-20 50 -47.5 86t-58 50.5t-62.5 4.5t-60 -52z" />
<glyph unicode="&#x641;" horiz-adv-x="1678" arabic-form="final" d="M46.5 372.5q-7.5 73.5 2.5 150.5t33.5 151.5t54.5 134.5l126 96q-10 -12 -20 -42.5t-15.5 -69.5t-4 -82t15.5 -80.5t43.5 -64t79.5 -33.5h518l53 181q9 32 40.5 73t75 82.5t94 78.5t98 62t86 32.5t59.5 -10.5q75 -68 121 -128t61 -119.5t-1.5 -120.5t-64.5 -131h197 l1 -417h-1376q-92 0 -150 34.5t-89 91.5t-38.5 130.5zM980 1256l164 164l164 -164l-164 -163zM1099 631q6 -8 23 -20t38 -25.5t43.5 -27.5t38.5 -25q56 8 87 29.5t42.5 48.5t6.5 55.5t-21 51.5t-39.5 36t-48.5 9q-29 -5 -62 -22.5t-59.5 -38.5t-41.5 -41.5t-7 -29.5z" />
<glyph unicode="&#x641;" horiz-adv-x="763" arabic-form="initial" d="M-28 116v417h558q-373 92 -412 123q-35 21 -49 54.5t-11 73t19.5 83t42.5 85t59 78.5t68 63.5t69 40.5t63 9q52 -9 96.5 -47t81.5 -92.5t67 -120t52 -130.5t36 -123t20 -97l-112 -417h-648zM117 1382l164 164l164 -164l-164 -163zM252 850q8 -17 35.5 -35.5t62 -32.5 t70 -21t60.5 0q-20 50 -47.5 86t-58 50.5t-62.5 4.5t-60 -52z" />
<glyph unicode="&#x641;" horiz-adv-x="889" arabic-form="medial" d="M-32 533h141l53 181q9 32 40.5 73t75 82.5t94 78.5t98 62t86 32.5t59.5 -10.5q75 -68 121 -128t61 -119.5t-1.5 -120.5t-64.5 -131h197l1 -417h-960zM209 1256l164 164l164 -164l-164 -163zM328 631q6 -8 23 -20t38 -25.5t43.5 -27.5t38.5 -25q56 8 87 29.5t42.5 48.5 t6.5 55.5t-21 51.5t-39.5 36t-48.5 9q-29 -5 -62 -22.5t-59.5 -38.5t-41.5 -41.5t-7 -29.5z" />
<glyph unicode="&#x642;" horiz-adv-x="1220" arabic-form="isolated" d="M77 275.5q4 79.5 21 141.5l140 125q-10 -77 -4.5 -147.5t25 -130.5t51.5 -108.5t74 -82.5q56 -45 124 -65.5t136 -16t130.5 33.5t107.5 83h-121q-48 1 -93 19t-82.5 50.5t-63.5 79.5t-34.5 106t2.5 129t48 150q62 135 125 212t122 107t113.5 18t100 -55.5t80.5 -113.5 t55.5 -156t26 -182t-9 -192.5t-50.5 -187.5t-96 -167q-39 -49 -93.5 -89.5t-118.5 -69t-134 -42.5t-140 -10t-137.5 28.5t-125.5 72.5q-71 59 -111 137.5t-56 161t-12 162zM304 1225l164 164l129 -129l129 129l164 -164l-164 -164l-129 129l-129 -129zM718.5 644 q-5.5 -29 5 -55.5t39 -45t81.5 -19.5h102q-25 85 -54 130t-57 61t-53 8t-41.5 -29t-22 -50z" />
<glyph unicode="&#x642;" horiz-adv-x="1267" arabic-form="final" d="M77 275.5q4 79.5 21 141.5l140 125q-10 -77 -4.5 -147.5t25 -130.5t51.5 -108.5t74 -82.5q56 -45 124 -65.5t136 -16t130.5 33.5t107.5 83h-121q-48 1 -93 19t-82.5 50.5t-63.5 79.5t-34.5 106t2.5 129t48 150q69 150 138.5 229t134.5 101t122.5 -5t103 -89t76.5 -152 t42 -193h126l1 -417h-173q-19 -52 -44.5 -100t-59.5 -91q-39 -49 -93.5 -89.5t-118.5 -69t-134 -42.5t-140 -10t-137.5 28.5t-125.5 72.5q-71 59 -111 137.5t-56 161t-12 162zM304 1225l164 164l129 -129l129 129l164 -164l-164 -164l-129 129l-129 -129zM718.5 644 q-5.5 -29 5 -55.5t39 -45t81.5 -19.5h102q-25 85 -54 130t-57 61t-53 8t-41.5 -29t-22 -50z" />
<glyph unicode="&#x642;" horiz-adv-x="782" arabic-form="initial" d="M-28 116v417h558q-373 92 -412 123q-35 21 -49 54.5t-11 73t19.5 83t42.5 85t59 78.5t68 63.5t69 40.5t63 9q52 -9 96.5 -47t81.5 -92.5t67 -120t52 -130.5t36 -123t20 -97l-112 -417h-648zM66 1401l164 164l129 -129l129 129l164 -164l-164 -164l-129 129l-129 -129z M252 850q8 -17 35.5 -35.5t62 -32.5t70 -21t60.5 0q-20 50 -47.5 86t-58 50.5t-62.5 4.5t-60 -52z" />
<glyph unicode="&#x642;" horiz-adv-x="889" arabic-form="medial" d="M-32 533h141l53 181q9 32 40.5 73t75 82.5t94 78.5t98 62t86 32.5t59.5 -10.5q75 -68 121 -128t61 -119.5t-1.5 -120.5t-64.5 -131h197l1 -417h-960zM165 1314l164 164l129 -129l129 129l164 -164l-164 -164l-129 129l-129 -129zM328 631q6 -8 23 -20t38 -25.5 t43.5 -27.5t38.5 -25q56 8 87 29.5t42.5 48.5t6.5 55.5t-21 51.5t-39.5 36t-48.5 9q-29 -5 -62 -22.5t-59.5 -38.5t-41.5 -41.5t-7 -29.5z" />
<glyph unicode="&#x643;" horiz-adv-x="1433" arabic-form="isolated" d="M70.5 372.5q-7.5 73.5 2.5 150.5t33.5 151.5t53.5 134.5l127 96q-10 -12 -20.5 -42.5t-16 -69.5t-4 -82t16 -80.5t44 -64t78.5 -33.5h702l-53 720l290 103q5 -116 13.5 -235.5t14.5 -236t7.5 -227.5t-8.5 -208q-11 -106 -37 -191t-76 -142h-890q-92 0 -150 34.5t-89 91.5 t-38.5 130.5zM468 706q-2 13 15 28t43 29.5t57 28.5t59 25t47.5 19.5t22.5 11.5q-18 7 -43 14.5t-48.5 17.5t-40 25.5t-16.5 39.5q0 35 16 74t43 76.5t62.5 72t74.5 60.5t79.5 41.5t77.5 15.5l-65 -143q-2 -2 -20 -5.5t-41 -10t-46.5 -17t-36.5 -26.5q-9 -12 0.5 -20.5 t28 -17t42 -17t43 -20t31 -26.5t6.5 -36q-22 -87 -64.5 -140t-96 -79.5t-113.5 -29.5t-117 9z" />
<glyph unicode="&#x643;" horiz-adv-x="1475" arabic-form="final" d="M59 372.5q-7 73.5 2.5 150.5t33.5 151.5t54 134.5l127 96q-10 -12 -20.5 -42.5t-16 -69.5t-4 -82t16 -80.5t44 -64.5t78.5 -33h712l-53 720l287 103l27 -823h156v-417h-1166q-92 0 -150.5 34.5t-89.5 91.5t-38 130.5zM480 681q-2 13 14.5 28t43 29.5t57.5 28.5t59 25 t47.5 19t22.5 12q-18 7 -43 14.5t-48.5 17.5t-40 25.5t-16.5 39.5q0 35 16 74t43 76.5t62.5 72t74.5 60.5t79.5 41.5t77.5 15.5l-66 -143q-2 -2 -19.5 -5.5t-41 -10t-47 -17t-35.5 -26.5q-9 -12 0 -20.5t27.5 -17t42 -17t43.5 -20t31.5 -26.5t6.5 -36q-23 -87 -65 -140 t-95.5 -79.5t-113.5 -29.5t-117 9z" />
<glyph unicode="&#x643;" horiz-adv-x="824" arabic-form="initial" d="M-28 533h482q-59 44 -108 79.5t-89.5 65.5t-71.5 55.5t-52 50.5q-27 31 -38.5 63.5t-7 72.5t24.5 90t57 117l633 271l-109 -314l-328 -125q80 -69 141.5 -117.5t106 -86t73.5 -69t43.5 -65.5t15 -75.5t-10.5 -100t-33.5 -138.5t-54.5 -191h-673z" />
<glyph unicode="&#x643;" horiz-adv-x="865" arabic-form="medial" d="M-30 116v417h442l-312 313l66 281l634 271l-76 -301l-343 -148l358 -416h155v-417h-924z" />
<glyph unicode="&#x644;" horiz-adv-x="1095" arabic-form="isolated" d="M55 215q3 75 17.5 151t39 148.5t54.5 135.5l131 33q-3 -20 -13 -54.5t-19 -78.5t-14 -94t0 -100q9 -85 38 -138t71.5 -80t95 -30.5t107 12t108.5 47t100 73.5l-49 1012l283 103q6 -206 11 -358t9 -265.5t5.5 -195.5t-1.5 -149q-2 -57 -7.5 -107.5t-15.5 -104.5t-24 -116 t-34 -142q-59 -28 -123.5 -58t-132.5 -54.5t-136.5 -40.5t-135 -15.5t-128 21.5t-115.5 70q-47 43 -75 102.5t-39 128.5t-8 144z" />
<glyph unicode="&#x644;" horiz-adv-x="1225" arabic-form="final" d="M55 215q3 75 17.5 151t39 148.5t54.5 135.5l131 33q-3 -20 -13 -54.5t-19 -78.5t-14 -94t0 -100q9 -85 38 -138t71.5 -80t95 -30.5t107 12t108.5 47t100 73.5l-49 1012l283 103l27 -823h224v-417h-251l-57 -198q-59 -28 -123.5 -58t-132.5 -54.5t-136.5 -40.5t-135 -15.5 t-128 21.5t-115.5 70q-47 43 -75 102.5t-39 128.5t-8 144z" />
<glyph unicode="&#x644;" horiz-adv-x="626" arabic-form="initial" d="M-29 116v417h290l-52 720l278 103l84 -312l-73 -31l15 -480l-112 -417h-430z" />
<glyph unicode="&#x644;" horiz-adv-x="614" arabic-form="medial" d="M-42 115v417h245l-53 720l277 103l26 -823h195v-417h-690z" />
<glyph unicode="&#x645;" horiz-adv-x="938" arabic-form="isolated" d="M35 324l96 265q40 30 96.5 52t120.5 32.5t130.5 10t128.5 -15.5q-40 47 -80 73t-81.5 36t-85 5t-90.5 -20q9 24 23 57.5t32.5 68t42.5 66.5t53.5 54t65.5 31t79 -3q108 -60 175 -115.5t101 -111t40.5 -112t-6 -119.5t-39.5 -133t-59 -153q-89 31 -156.5 46.5t-118.5 19.5 t-87 -1t-61.5 -15t-42.5 -22.5t-31 -22.5l194 -573l-135 -204z" />
<glyph unicode="&#x645;" horiz-adv-x="1147" arabic-form="final" d="M7 368q-16 103 16.5 186t98 149t156 115t189 84t197.5 56.5t183 31.5q5 -27 9.5 -64t10 -76t11.5 -75.5t13 -62.5q17 -63 53.5 -107t89.5 -72h129v-417h-200l-38 -79q-66 19 -133 38.5t-131 43.5t-122.5 54.5t-108.5 71.5q-21 16 -27.5 48t-4.5 71t10.5 80t19 76.5t20 61 t13.5 31.5q-24 -8 -63.5 -22.5t-79.5 -34t-73.5 -43t-46.5 -49.5l198 -688q-43 -68 -71.5 -112t-47 -70.5t-28.5 -37t-14 -10.5zM589.5 626q3.5 -18 22.5 -34.5t48 -30.5t57 -24.5t50 -16t27 -5.5q-20 29 -39.5 70.5t-26.5 108.5q-3 -3 -17.5 -4.5t-33 -4.5t-37.5 -8 t-31 -15q-23 -18 -19.5 -36z" />
<glyph unicode="&#x645;" horiz-adv-x="1053" arabic-form="initial" d="M-16 116v417h244q13 24 33.5 72t50 104.5t68.5 114.5t89 101t111.5 63.5t136.5 3.5q25 -18 54.5 -51.5t59.5 -76.5t58.5 -92t52 -97.5t40 -94t21.5 -80.5l-212 -384l-453 199l-83 -199h-271zM470 669l234 -106q5 15 1 48t-16 68.5t-32.5 64.5t-48.5 36t-62.5 -17 t-75.5 -94z" />
<glyph unicode="&#x645;" horiz-adv-x="1044" arabic-form="medial" d="M-32 116v417h244q13 24 34 67.5t50.5 93.5t69 100.5t90 87t112 52.5t136.5 -1q62 -18 100 -60.5t58 -99t24.5 -119.5t-0.5 -121h195v-417h-306l-50 -95l-423 234l-63 -139h-271zM433 612l234 -106q5 15 5.5 42.5t-6.5 56.5t-22.5 53.5t-41.5 33.5q-14 5 -34.5 7t-43 -5 t-46.5 -26t-45 -56z" />
<glyph unicode="&#x646;" horiz-adv-x="1016" arabic-form="isolated" d="M74.5 270q8.5 93 34.5 186t63 170l100 73q-11 -47 -22 -105t-16 -118t-0.5 -116.5t24.5 -100t58.5 -68.5t101.5 -22q41 2 94.5 10.5t105 25.5t94 42t62.5 60q-2 30 -7.5 63t-22 72t-46.5 85.5t-81 103.5l136 229q95 -81 143.5 -181t58.5 -210l-67 -382q-27 -54 -67.5 -96 t-97 -72.5t-129 -51.5t-164.5 -34q-111 -16 -183.5 15.5t-113.5 94t-54 148.5t-4.5 179zM292 1011l164 164l164 -164l-164 -163z" />
<glyph unicode="&#x646;" horiz-adv-x="1053" arabic-form="final" d="M74.5 270q8.5 93 34.5 186t63 170l100 73q-11 -47 -22 -105t-16 -118t-0.5 -116.5t24.5 -100t58.5 -68.5t101.5 -22q41 2 94.5 10.5t105 25.5t94 42t62.5 60q-2 30 -7.5 63t-22 72t-46.5 85.5t-81 103.5l136 229q81 -69 128 -152t65 -175h128l1 -417h-182 q-29 -65 -70.5 -112.5t-98 -81t-129.5 -55t-165 -34.5q-111 -16 -183.5 15.5t-113.5 94t-54 148.5t-4.5 179zM292 1011l164 164l164 -164l-164 -163z" />
<glyph unicode="&#x646;" horiz-adv-x="756" arabic-form="initial" d="M-23 533h484q-19 32 -32.5 54.5t-25 39.5t-22 30.5t-23 27.5t-28.5 30.5t-38 40.5l198 214q37 -27 74 -81.5t68 -119.5t53 -132.5t30 -120.5l-163 -400h-574zM136 1198l164 164l164 -164l-164 -163z" />
<glyph unicode="&#x646;" horiz-adv-x="667" arabic-form="medial" d="M-20 116v417h219l73 259l241 146l-101 -405h281l1 -417h-245l-77 255l-63 -255h-329zM110 1173l164 164l164 -164l-164 -163z" />
<glyph unicode="&#x647;" horiz-adv-x="862" arabic-form="isolated" d="M54.5 472.5q6.5 78.5 50.5 178.5q67 147 136.5 236t136 129t128 37t112.5 -40t89 -102.5t59 -150t22 -183.5t-23 -202l-238 -259q-75 1 -147.5 13t-134 38t-107.5 67.5t-68 100.5t-15.5 137.5zM264 630.5q-3 -21.5 5 -42t28.5 -39t60 -33t100 -23t147.5 -8.5 q-13 43 -29 83t-34 72.5t-37.5 54.5t-39.5 30q-29 10 -59 11t-56 -6t-46 -22t-29 -36q-8 -20 -11 -41.5z" />
<glyph unicode="&#x647;" horiz-adv-x="905" arabic-form="final" d="M80 240q0 115 2 200t14 147.5t38 107.5t74.5 80.5t123 64.5t182.5 61l-12 83l166 103l83 -555h179v-416h-311l-36 265l-87 -315zM271 563l281 -115l-21 256z" />
<glyph unicode="&#x647;" horiz-adv-x="1136" arabic-form="initial" d="M-25 116v417h192q3 54 12.5 95t23 73t29.5 58.5t33 51.5q-7 17 -25.5 24t-39.5 19l207 293q44 -19 98.5 -41t114 -48.5t119.5 -59.5t114.5 -75t100 -94t76 -116.5t42 -143t-2.5 -173.5l-114 -280l-444 150l-128 -150h-408zM338 617q0 -16 7.5 -32t19.5 -28.5t26.5 -20.5 t28.5 -8q32 0 60 16t48 40t30.5 52t8 52t-20.5 40t-55 16q-17 0 -42.5 -13t-50.5 -32.5t-42.5 -41.5t-17.5 -40zM647 533l224 -126q9 16 5 40.5t-16.5 52t-31 55.5t-38 51.5t-39 40t-32.5 21.5z" />
<glyph unicode="&#x647;" horiz-adv-x="934" arabic-form="medial" d="M-41 116v417h164q34 85 85 167.5t111 151t125 116.5t125 66q65 19 107 -1t64.5 -64t27.5 -104.5t-3 -122.5t-27 -118t-45 -91h267v-417h-155q16 -66 6.5 -128.5t-37.5 -115t-71.5 -93t-95 -62.5t-107.5 -22.5t-110 26.5q-74 37 -117.5 79t-70.5 88.5t-43 95.5t-33 99 l-87 -26l23 59h-103zM281 533q32 0 65.5 -1.5t65 -0.5t60 6.5t49 20t32 39.5t10.5 66q-2 59 -22 76.5t-49 8.5t-63 -38t-65 -63t-53.5 -66t-29.5 -48zM297 198q20 -76 58 -124.5t83.5 -77.5t92 -42t84.5 -17q6 50 -5.5 92.5t-36 76.5t-58.5 57.5t-71.5 36t-75.5 12.5 t-71 -14z" />
<glyph unicode="&#x648;" horiz-adv-x="772" arabic-form="isolated" d="M-101 -109q43 19 102.5 43.5t124 53.5t130 61.5t121.5 66t98 67.5t60 67q-66 -33 -134.5 -40t-129.5 10t-109 57.5t-74.5 102.5t-26.5 145q0 84 37 188q42 118 91.5 197.5t103.5 113.5t111.5 18.5t116.5 -87.5q87 -111 138 -236.5t64 -249t-12.5 -237t-92.5 -201 t-176 -141.5t-262 -57zM231.5 658q-1.5 -26 11 -47t40.5 -33t76 -7l114 24q-15 45 -33 76.5t-37 50.5t-38.5 28t-37.5 9q-27 1 -48 -14t-33.5 -38t-14 -49z" />
<glyph unicode="&#x648;" horiz-adv-x="787" arabic-form="final" d="M-93 -229q43 19 102.5 43.5t124 53.5t130 61.5t121.5 66t98 67.5t60 67q-66 -33 -134.5 -40t-129.5 10t-109 57.5t-74.5 102.5t-26.5 146t37 187q42 118 91.5 197.5t103.5 113.5t111.5 18.5t116.5 -87.5q55 -71 95.5 -147t66.5 -155h122v-417h-94q-19 -84 -61 -156.5 t-108 -126.5t-156.5 -85.5t-205.5 -34.5zM239.5 538q-1.5 -26 11 -47t40.5 -33t76 -7l114 24q-15 45 -33 76.5t-37 50.5t-38.5 28t-37.5 9q-27 1 -48 -14t-33.5 -38t-14 -49z" />
<glyph unicode="&#x649;" horiz-adv-x="1283" arabic-form="isolated" d="M60 87q0 49 9 105t25.5 114t41 114t56.5 106l142 63q-69 -121 -88.5 -221.5t1.5 -176.5t78.5 -124t144.5 -62t199 8.5t241 87.5q-25 54 -63.5 79.5t-85.5 35.5t-99 10.5t-103 5.5q9 49 21 109.5t28.5 122t39 120t52.5 104.5q34 51 80 95t96.5 76.5t102.5 51.5t97 20 t81 -18t54.5 -62.5t17 -113t-31.5 -169.5l-49 -35q-2 52 -16.5 80.5t-37 39.5t-50.5 7t-58 -17t-58.5 -33t-52.5 -41t-40 -41t-20 -33q106 -26 168 -72t87 -107.5t17 -136.5t-43 -159q-32 -69 -91.5 -125t-134.5 -95.5t-160.5 -61t-169.5 -22.5t-161.5 19.5t-136.5 65.5 t-94.5 116t-35.5 170z" />
<glyph unicode="&#x649;" horiz-adv-x="1229" arabic-form="final" d="M51 100q0 49 9 104.5t25.5 113t41 113.5t55.5 106l188 109q-72 -117 -100 -220.5t-16.5 -185t60.5 -136.5t131.5 -75t197.5 -1t258 86q-24 54 -63 79.5t-86 35.5t-99 10.5t-103 5.5q23 78 53.5 148.5t69.5 139.5h585v-417h-194q-6 -20 -13 -40.5t-16 -42.5 q-32 -69 -91.5 -125t-134.5 -95.5t-160.5 -61t-169.5 -22.5t-161.5 19.5t-136.5 65.5t-94.5 116t-35.5 170z" />
<glyph unicode="&#x64a;" horiz-adv-x="1283" arabic-form="isolated" d="M60 87q0 49 9 105t25.5 114t41 114t56.5 106l142 63q-69 -121 -88.5 -221.5t1.5 -176.5t78.5 -124t144.5 -62t199 8.5t241 87.5q-25 54 -63.5 79.5t-85.5 35.5t-99 10.5t-103 5.5q9 49 21 109.5t28.5 122t39 120t52.5 104.5q34 51 80 95t96.5 76.5t102.5 51.5t97 20 t81 -18t54.5 -62.5t17 -113t-31.5 -169.5l-49 -35q-2 52 -16.5 80.5t-37 39.5t-50.5 7t-58 -17t-58.5 -33t-52.5 -41t-40 -41t-20 -33q106 -26 168 -72t87 -107.5t17 -136.5t-43 -159q-32 -69 -91.5 -125t-134.5 -95.5t-160.5 -61t-169.5 -22.5t-161.5 19.5t-136.5 65.5 t-94.5 116t-35.5 170zM389 -516l164 164l129 -129l129 129l164 -164l-164 -164l-129 129l-129 -129z" />
<glyph unicode="&#x64a;" horiz-adv-x="1229" arabic-form="final" d="M51 100q0 49 9 104.5t25.5 113t41 113.5t55.5 106l188 109q-72 -117 -100 -220.5t-16.5 -185t60.5 -136.5t131.5 -75t197.5 -1t258 86q-24 54 -63 79.5t-86 35.5t-99 10.5t-103 5.5q23 78 53.5 148.5t69.5 139.5h585v-417h-194q-6 -20 -13 -40.5t-16 -42.5 q-32 -69 -91.5 -125t-134.5 -95.5t-160.5 -61t-169.5 -22.5t-161.5 19.5t-136.5 65.5t-94.5 116t-35.5 170zM441 -490l164 164l129 -129l129 129l164 -164l-164 -164l-129 129l-129 -129z" />
<glyph unicode="&#x64a;" horiz-adv-x="772" arabic-form="initial" d="M-23 533h484q-19 32 -32.5 54.5t-25 39.5t-22 30.5t-23 27.5t-28.5 30.5t-38 40.5l198 214q37 -27 74 -81.5t68 -119.5t53 -132.5t30 -120.5l-163 -400h-574zM89 -203l164 164l129 -129l129 129l164 -164l-164 -164l-129 129l-129 -129z" />
<glyph unicode="&#x64a;" horiz-adv-x="683" arabic-form="medial" d="M-20 116v417h219l73 259l241 146l-101 -405h281l1 -417h-245l-77 255l-63 -255h-329zM45 -203l164 164l129 -129l129 129l164 -164l-164 -164l-129 129l-129 -129z" />
<glyph unicode=" "  horiz-adv-x="500" />
<glyph unicode="&#x09;" horiz-adv-x="500" />
<glyph unicode="&#xa0;" horiz-adv-x="500" />
<glyph unicode="!" horiz-adv-x="513" d="M59 300l199 200l199 -200l-199 -198zM82 1149q-1 6 13 17.5t37 26.5t51.5 32.5t57.5 34.5t55 32t43 27q24 -152 39 -258.5t19.5 -181.5t-2 -123t-23 -83t-45 -62t-67.5 -58z" />
<glyph unicode="&#x22;" horiz-adv-x="618" d="M105 1207l178 106q-6 -83 -12 -170t-12.5 -165.5t-13.5 -142t-14 -99.5h-100zM346 1207l178 106q-6 -83 -11.5 -170t-12 -165.5t-13.5 -142t-14 -99.5h-101z" />
<glyph unicode="#" d="M33 423l24 169h173l33 225h-175l24 169h175l51 360h176l-51 -360h179l51 360h175l-51 -360h174l-24 -169h-174l-33 -225h176l-23 -169h-176l-52 -365h-176l53 365h-180l-52 -365h-175l52 365h-174zM406 592h180l31 225h-179z" />
<glyph unicode="$" d="M55 421l1 32h250q-5 -118 45 -174q40 -44 112 -54v385q-197 62 -285 142q-95 87 -95 231q0 177 115 280q101 90 265 100v130h83v-127q179 -9 280 -98q112 -99 112 -281h-236q0 102 -44 146q-35 35 -112 41v-348l23 -7q216 -62 306 -153q90 -90 90 -246q0 -182 -124 -289 q-112 -98 -295 -106v-179h-83v178q-196 12 -302 111t-106 286zM317 1012q0 -65 58 -110q33 -25 88 -47v317q-58 -8 -95 -39q-51 -43 -51 -121zM546 224q71 7 116 47q55 47 55 132q0 71 -49 117q-38 37 -122 64v-360z" />
<glyph unicode="%" horiz-adv-x="1137" d="M61 975l199 200l199 -200l-199 -198zM373 -29l205 1219q-1 6 13.5 21t38.5 34.5t53.5 43t59.5 45t56.5 40.5t43.5 31q-40 -249 -76.5 -444t-72.5 -345t-72.5 -259t-75.5 -185t-81.5 -124t-91.5 -77zM673 256l199 200l199 -200l-199 -198z" />
<glyph unicode="&#x26;" horiz-adv-x="1331" d="M100 402q0 146 87 247q61 73 194 153l-8 8q-49 59 -78 127.5t-29 125.5q0 146 94 232.5t254 86.5q147 0 234 -84t87 -227q0 -107 -73 -192q-51 -61 -147 -120l195 -237l18 35q45 94 54 189h228q-13 -133 -79 -270q-33 -71 -75 -132l236 -284h-306l-90 108 q-74 -66 -138 -95q-92 -43 -239 -43q-192 0 -305.5 100.5t-113.5 271.5zM359 416q0 -82 52 -128t144 -46q62 0 122 34q37 22 82 60l-81 97l-166 205q-49 -35 -84 -69q-69 -71 -69 -153zM501 1082q0 -28 11.5 -58t31.5 -54l53 -65q37 26 64 53q57 58 57 114q0 54 -28.5 84.5 t-79.5 30.5t-80 -28q-29 -27 -29 -77z" />
<glyph unicode="'" horiz-adv-x="366" d="M94 1207l178 106q-6 -83 -11.5 -170t-12 -165.5t-13.5 -142t-14 -99.5h-101z" />
<glyph unicode="(" horiz-adv-x="554" d="M85 566q-9 112 12 238.5t76.5 270t153.5 313.5q45 0 69 -14t33.5 -31t9 -31.5t-4.5 -14.5q-66 -143 -93.5 -274t-28 -248.5t19 -219.5t48 -186t60 -148t53.5 -106q-20 -27 -45.5 -53.5t-51.5 -52t-50.5 -49.5t-42.5 -45q-55 113 -101.5 218.5t-77 213t-39.5 219.5z" />
<glyph unicode=")" horiz-adv-x="557" d="M73 1189q20 27 45.5 53.5t51.5 52t50.5 49.5t42.5 45q55 -113 101.5 -218.5t77 -213t39.5 -219.5t-12 -238.5t-76.5 -270t-153.5 -313.5q-45 0 -69 14t-33.5 31t-9 31.5t4.5 14.5q66 142 93.5 273.5t28 249t-19 219.5t-48 186t-60 148t-53.5 106z" />
<glyph unicode="*" horiz-adv-x="815" d="M71 1074v68l214 18l-139 162l47 49l164 -139l17 213h68l17 -213l163 139l49 -49l-140 -162l214 -18v-68l-214 -17l140 -163l-49 -48l-163 139l-17 -214h-68l-17 214l-164 -139l-47 48l139 163z" />
<glyph unicode="+" horiz-adv-x="1076" d="M74 421v212h358v358h212v-358h359v-212h-359v-358h-212v358h-358z" />
<glyph unicode="," horiz-adv-x="512" d="M118 60v134v134h138h138v-231q0 -143 -67.5 -228t-208.5 -120v99q93 32 125 92q23 42 28 120h-70h-83z" />
<glyph unicode="-" horiz-adv-x="872" d="M68 378l76 276h652l-78 -276h-650z" />
<glyph unicode="." horiz-adv-x="565" d="M91 300l199 200l199 -200l-199 -198z" />
<glyph unicode="/" horiz-adv-x="512" d="M-60 24l420 1395h212l-420 -1395h-212z" />
<glyph unicode="0" d="M59 692q1 347 112 513.5t341 166.5q232 0 343 -166.5t111 -507.5v-6q1 -340 -110.5 -503t-343.5 -163q-230 0 -341 163t-112 503zM325 694q0 -252 42 -355.5t145 -103.5q104 0 146 103.5t42 355.5q1 258 -41.5 363.5t-146.5 105.5q-103 0 -144.5 -105.5t-42.5 -363.5z " />
<glyph unicode="1" d="M127 964v185q120 -6 216 53t146 170h211v-1312h-129h-129v904h-315z" />
<glyph unicode="2" d="M48 60q0 180 90.5 308.5t342.5 305.5q112 78 158 143.5t46 145.5q0 87 -50.5 140t-133.5 53q-88 0 -137.5 -66.5t-45.5 -180.5h-253q-7 213 111.5 338t326.5 125q194 0 317 -115q122 -115 122 -297q0 -149 -69.5 -247.5t-261.5 -220.5q-177 -113 -242 -203l-1 -2h574 v-227h-894z" />
<glyph unicode="3" d="M49 457h252q1 -111 49.5 -169t139.5 -58q88 0 142 58.5t54 153.5q0 84 -54 135q-48 45 -121 50q-40 3 -75 3.5t-45 -2.5v191q11 -2 46 -0.5t75 5.5q61 7 97 42q45 44 45 124q0 76 -44 123.5t-117 47.5q-84 0 -130.5 -53.5t-48.5 -152.5h-238q3 200 116 308.5t318 108.5 q177 0 289.5 -102.5t112.5 -263.5q0 -140 -117 -229l-35 -23q45 -17 79 -45q112 -87 112 -263q0 -193 -122 -306.5t-329 -113.5q-213 0 -330.5 112t-120.5 319z" />
<glyph unicode="4" d="M49 349v111v112l486 799h144h144v-817h147v-205h-147v-289h-254v289h-520zM240 554h329v545l-318 -527z" />
<glyph unicode="5" d="M49 408h260q10 -87 57.5 -132.5t130.5 -45.5q84 0 136.5 65.5t52.5 173.5q0 109 -53 176t-140 67q-54 0 -100.5 -24t-71.5 -66l-227 11l86 713h717v-219h-532l-45 -278q108 68 234 68q175 0 287 -119q110 -119 110 -305q0 -215 -129 -341t-350 -126q-175 0 -289.5 103 t-133.5 279z" />
<glyph unicode="6" d="M57 677q0 352 127 530q117 166 342 166l27 -1q162 0 266.5 -94.5t111.5 -248.5h-254q1 61 -35.5 98t-97.5 37h-11q-116 1 -171 -111q-43 -88 -52 -255q104 110 252 110q174 0 285 -120.5t111 -308.5q0 -199 -126 -326t-324 -127q-222 0 -336.5 166t-114.5 485zM314 473 q0 -103 55.5 -171.5t138.5 -68.5q94 0 143.5 61t49.5 179q0 103 -53 165.5t-140 62.5q-88 0 -141 -63q-53 -62 -53 -165z" />
<glyph unicode="7" d="M46 1119v227h928v-97v-98q-200 -218 -326 -508q-126 -289 -151 -583h-266q29 295 160 584q123 269 306 475h-651z" />
<glyph unicode="8" d="M59 435q0 168 125 270q36 31 80 51l-51 33q-113 85 -113 225q0 161 113.5 259.5t298.5 98.5t298.5 -98.5t113.5 -259.5q0 -140 -113 -225q-24 -18 -51 -32q44 -22 81 -53q125 -101 125 -269q0 -184 -125 -296.5t-329 -112.5q-203 0 -328 112.5t-125 296.5zM325 436 q0 -93 50.5 -147t136.5 -54t137 54t51 147q0 95 -51 150q-51 56 -137 56t-136.5 -55.5t-50.5 -150.5zM349 997q0 -75 44 -119q44 -43 119 -43t119 43.5t44 118.5q0 76 -44 121t-119 45t-119 -45t-44 -121z" />
<glyph unicode="9" d="M55 919q0 199 127 326t326 127q223 0 338.5 -166t115.5 -485q0 -352 -128 -530q-119 -166 -344 -166l-27 1q-164 0 -269 94.5t-112 248.5h255q-1 -62 36 -98.5t99 -36.5h13q115 -1 171 110q43 88 54 257q-107 -111 -256 -111q-175 0 -287 120t-112 309zM312 925 q0 -103 54 -165.5t142 -62.5q89 0 143 63q54 62 54 165t-56 171.5t-141 68.5q-96 0 -146 -61t-50 -179z" />
<glyph unicode=":" horiz-adv-x="629" d="M125 300l199 200l199 -200l-199 -198zM125 794l199 200l199 -200l-199 -198z" />
<glyph unicode=";" horiz-adv-x="614" d="M169 60v135v134h139h137v-201q0 -162 -66 -253t-204 -120v99q88 27 118 86q22 41 26 120h-67h-83zM169 737v268h276v-268h-276z" />
<glyph unicode="&#x3c;" horiz-adv-x="1076" d="M70 439v88v88l936 397v-204l-665 -280l665 -282v-204z" />
<glyph unicode="=" horiz-adv-x="956" d="M78 155l59 234h712l-59 -234h-712zM106 487l59 234h712l-59 -234h-712z" />
<glyph unicode="&#x3e;" horiz-adv-x="1076" d="M70 42v204l665 282l-665 280v204l936 -397v-88v-88z" />
<glyph unicode="?" horiz-adv-x="1126" d="M111 964q6 207 127 324t330 117q210 0 333 -105t123 -284q0 -96 -57 -180t-190 -184q-53 -39 -73 -84.5t-17 -119.5h-240q-3 127 42.5 214t159.5 167q54 37 76.5 79.5t22.5 107.5q0 79 -49 126q-48 46 -131 46q-99 0 -148 -55t-53 -169h-256zM432 60v257h270v-257h-270z " />
<glyph unicode="@" horiz-adv-x="1797" d="M218 720q0 293 205 496t502 203q275 0 464 -170.5t189 -417.5q0 -207 -141.5 -362.5t-328.5 -155.5q-60 0 -88 53q-12 21 -15 43q-90 -96 -196 -96q-130 0 -215 96t-84 243q-1 180 118.5 310t284.5 130q127 -1 203 -111l19 85h179l-120 -536q-5 -23 0 -38.5t16 -15.5 q92 0 156 103t64 252q0 185 -144 312.5t-352 127.5q-225 0 -380.5 -160t-155.5 -391q0 -232 151 -392t371 -160q136 0 253.5 44t172.5 116h163q-79 -138 -238.5 -223t-342.5 -85q-299 0 -504.5 203t-205.5 497zM712 658q0 -77 39 -119t111 -42q73 0 132 58t79 149 t-20.5 148.5t-124.5 57.5q-87 0 -151.5 -75.5t-64.5 -176.5z" />
<glyph unicode="A" horiz-adv-x="1331" d="M37 60l468 1323h160h160l469 -1323h-147h-146l-89 269h-503l-87 -269h-142h-143zM486 557h352l-177 532z" />
<glyph unicode="B" horiz-adv-x="1331" d="M140 60v1323h133h508q192 0 300 -88.5t108 -246.5q0 -165 -122 -250q-19 -14 -44 -26q47 -18 83 -43q127 -88 127 -255q0 -203 -125.5 -308.5t-366.5 -105.5h-468h-133zM405 289h336q108 0 162 47t54 142q0 82 -55.5 123t-166.5 41h-330v-353zM405 865h316 q103 0 154.5 38.5t51.5 116.5q0 68 -54 101.5t-163 33.5h-305v-290z" />
<glyph unicode="C" horiz-adv-x="1331" d="M81 714q0 324 164 514.5t443 190.5q236 0 391 -127.5t182 -345.5h-277q-14 108 -92.5 171t-200.5 63q-154 0 -241 -123t-87 -341q0 -212 86.5 -332.5t241.5 -120.5q122 0 200.5 70.5t92.5 189.5h277q-25 -229 -179.5 -364t-393.5 -135q-279 0 -443 186.5t-164 503.5z" />
<glyph unicode="D" horiz-adv-x="1331" d="M140 60v1323h138h428q273 0 415 -160t142 -469q0 -340 -147.5 -517t-431.5 -177h-406h-138zM417 288h233q168 0 252 113.5t84 341.5q0 206 -78 309t-236 103h-255v-867z" />
<glyph unicode="E" horiz-adv-x="1229" d="M140 60v1323h974v-117v-118h-697v-281h647v-113v-114h-647v-345h728v-117v-118h-1005z" />
<glyph unicode="F" horiz-adv-x="1126" d="M140 60v1323h942v-117v-118h-665v-301h579v-113v-114h-579v-560h-138h-139z" />
<glyph unicode="G" horiz-adv-x="1434" d="M81 714q0 324 176.5 514.5t476.5 190.5q242 0 398 -120.5t182 -325.5h-277q-11 86 -97.5 151t-190.5 65q-180 0 -282 -124.5t-102 -345.5q0 -225 98 -342.5t286 -117.5h-1q160 0 250 122q50 70 73 163v3h-311v228h554v-714h-185l-27 171l-16 -22q-139 -186 -378 -186h1 q-289 0 -458.5 186.5t-169.5 503.5z" />
<glyph unicode="H" horiz-adv-x="1331" d="M130 60v1323h138h139v-496h517v496h138h139v-1323h-138h-139v599h-517v-599h-138h-139z" />
<glyph unicode="I" horiz-adv-x="512" d="M118 60v1323h138h138v-1323h-138h-138z" />
<glyph unicode="J" d="M40 487v80h263v-80v-17q0 -107 36 -161q39 -58 124 -58q82 0 117.5 42t35.5 139v951h138h139v-951q0 -202 -108 -305t-319 -103q-224 0 -328 114q-98 106 -98 320v29z" />
<glyph unicode="K" horiz-adv-x="1331" d="M160 60v1323h138h138v-548l507 548h177h176l-528 -541l563 -782h-181h-181l-398 582l-135 -137v-445h-137h-139z" />
<glyph unicode="L" horiz-adv-x="1126" d="M140 60v1323h138h139v-1088h658v-117v-118h-935z" />
<glyph unicode="M" horiz-adv-x="1535" d="M127 60v1323h202h203l241 -1049l238 1049h199h200v-1323h-128h-130v1112l-248 -1112h-135h-136l-248 1137v-1137h-129h-129z" />
<glyph unicode="N" horiz-adv-x="1331" d="M127 60v1323h145h145l531 -928v928h128h130v-1323h-138h-137l-546 953v-953h-129h-129z" />
<glyph unicode="O" horiz-adv-x="1434" d="M81 714q0 324 172 514.5t463 190.5q294 0 465.5 -190.5t171.5 -514.5q0 -317 -171.5 -503.5t-465.5 -186.5q-291 0 -463 186.5t-172 503.5zM357 716q0 -215 95 -336t264 -121q170 0 265 121t95 336q0 220 -95 344t-265 124q-168 0 -263.5 -124t-95.5 -344z" />
<glyph unicode="P" horiz-adv-x="1229" d="M140 60v1323h138h416q226 0 344 -106t118 -308q0 -214 -118 -325.5t-344 -111.5h-102q-97 0 -175 -1v-471h-138h-139zM417 760h230q116 0 174 51.5t58 154.5q0 95 -58 142t-174 47h-230v-395z" />
<glyph unicode="Q" horiz-adv-x="1434" d="M81 714q0 324 172 514.5t463 190.5q294 0 465.5 -190.5t171.5 -514.5q0 -287 -140 -466l144 -135l-140 -149l-159 146q-142 -86 -342 -86q-291 0 -463 186.5t-172 503.5zM357 716q0 -215 95 -336t264 -121h5q80 0 144 30l-136 125l139 148l145 -132q63 111 63 286 q0 220 -95 344t-265 124q-168 0 -263.5 -124t-95.5 -344z" />
<glyph unicode="R" horiz-adv-x="1331" d="M140 60v1323h138h529q189 0 305 -101.5t116 -266.5q0 -191 -129 -279q-34 -24 -78 -40q25 -10 45 -21q113 -68 117 -227l7 -217q2 -65 13.5 -92t44.5 -43v-35h-305q-11 21 -19 88.5t-9 146.5l-2 122q-1 89 -52 127t-169 38h-275v-523h-138h-139zM417 805h320 q107 0 160.5 43.5t53.5 132.5q0 87 -50.5 130.5t-152.5 43.5h-331v-350z" />
<glyph unicode="S" horiz-adv-x="1229" d="M72 470h266q5 -105 77 -161.5t201 -56.5q132 0 206 42.5t74 118.5q0 74 -53 110q-52 35 -223 72q-315 71 -421 153q-105 81 -105 252q0 193 139.5 306t376.5 113q222 0 361.5 -117t155.5 -316h-269q-8 95 -83.5 150t-196.5 55q-106 0 -165 -46t-59 -129q0 -60 62 -92 q61 -32 260 -77q289 -64 386 -149q97 -84 97 -269q0 -186 -146.5 -295.5t-396.5 -109.5q-252 0 -393 116t-151 330z" />
<glyph unicode="T" horiz-adv-x="1126" d="M26 1148v117v118h1076v-117v-118h-400v-1088h-138h-138v1088h-400z" />
<glyph unicode="U" horiz-adv-x="1331" d="M132 559v824h138h139v-833q0 -143 64 -214t194 -71q138 0 197.5 65.5t59.5 219.5v833h138h139v-824q0 -284 -125.5 -409.5t-408.5 -125.5q-272 0 -403 131t-132 404z" />
<glyph unicode="V" horiz-adv-x="1229" d="M35 1383h147h146l291 -1011l290 1011h142h143l-448 -1323h-131h-132z" />
<glyph unicode="W" horiz-adv-x="1740" d="M30 1383h144h144l220 -968l189 968h147h147l192 -960l220 960h139h140l-368 -1323h-132h-131l-213 1041l-207 -1041h-132h-131z" />
<glyph unicode="X" horiz-adv-x="1229" d="M26 60l428 670l-399 653h163h164l233 -428l241 428h159h159l-403 -633l432 -690h-164h-166l-259 455l-261 -455h-163h-164z" />
<glyph unicode="Y" horiz-adv-x="1229" d="M28 1383h164h164l276 -574l258 574h157h156l-437 -820v-503h-138h-138v498z" />
<glyph unicode="Z" horiz-adv-x="1126" d="M46 60v116v116l686 856h-664v117v118h1012v-109v-109l-698 -870h696v-117v-118h-1032z" />
<glyph unicode="[" horiz-adv-x="614" d="M116 -305v1697h454v-177h-224v-1342h224v-178h-454z" />
<glyph unicode="\" horiz-adv-x="512" d="M-60 1419h216l416 -1395h-216z" />
<glyph unicode="]" horiz-adv-x="614" d="M44 -127h223v1342h-223v177h454v-1697h-454v178z" />
<glyph unicode="_" d="M0 -76h1025v-94h-1025v94z" />
<glyph unicode="`" horiz-adv-x="614" d="M-41 1441h282l174 -267h-186z" />
<glyph unicode="a" d="M53 317q0 134 74.5 215t218.5 101l170 24q66 9 110 30q19 9 29.5 32.5t7.5 47.5q-5 42 -42 65q-44 28 -127 28q-74 0 -115.5 -36t-43.5 -102h-248q8 172 117 257.5t320 85.5q182 0 288 -77t106 -210v-547q0 -66 11 -92.5t43 -41.5v-1v-35h-140h-139q-17 59 -23 116v2 q-122 -144 -315 -144q-136 0 -219 77.5t-83 204.5zM313 344q0 -58 31.5 -91.5t88.5 -33.5q124 0 198 88q14 17 24 50t10 65v112q-45 -25 -119 -40l-95 -18q-68 -13 -103 -46.5t-35 -85.5z" />
<glyph unicode="b" horiz-adv-x="1126" d="M112 60v1323h129h130v-472l5 8q105 146 276 146q186 0 299.5 -137.5t113.5 -362.5q0 -239 -113.5 -384.5t-299.5 -145.5q-171 0 -276 137l-11 14v-126h-253zM358 532q0 -134 59 -209q57 -76 161 -76t162.5 78t58.5 216q0 142 -58.5 221.5t-161.5 79.5q-104 0 -162.5 -82 t-58.5 -228z" />
<glyph unicode="c" d="M63 544q0 240 125.5 380.5t338.5 140.5q189 0 310 -104.5t129 -274.5h-263q-4 73 -52 118t-124 45q-97 0 -148 -77.5t-51 -227.5q0 -146 51 -222t148 -76q71 0 119.5 48.5t56.5 128.5h263q-20 -183 -136 -285.5t-303 -102.5q-222 0 -343 132t-121 377z" />
<glyph unicode="d" horiz-adv-x="1126" d="M63 565q0 225 114.5 362.5t300.5 137.5q166 0 268 -140l11 -15v473h129h129v-1323h-125h-125v125l-5 -6q-107 -144 -280 -144q-188 0 -302.5 145.5t-114.5 384.5zM328 541q0 -138 58.5 -216t161.5 -78q104 0 162.5 82t58.5 228q0 134 -58.5 209.5t-161.5 75.5 q-104 0 -162.5 -79.5t-58.5 -221.5z" />
<glyph unicode="e" d="M42 565q0 235 123.5 367.5t342.5 132.5q224 0 345 -135.5t121 -385.5v-13q0 -23 -5 -45h-667q9 -116 52 -174q54 -72 180 -72q58 0 108 33.5t60 79.5h263q-34 -149 -155 -233.5t-302 -84.5q-224 0 -345 137.5t-121 392.5zM305 650h400q-9 89 -47 138q-50 66 -154 66 q-100 0 -152 -77q-33 -48 -47 -127z" />
<glyph unicode="f" horiz-adv-x="614" d="M18 858v181h143v82q0 141 75 210.5t228 69.5h17q59 0 105 -6v-206h-82q-51 0 -68 -21t-17 -85v-44h167v-181h-167v-798h-128h-130v798h-143z" />
<glyph unicode="g" horiz-adv-x="1126" d="M74 554q0 230 114 370.5t301 140.5q164 0 255 -119q17 -23 32 -50v143h243v-927q0 -232 -115 -342.5t-358 -110.5q-200 0 -317.5 78t-125.5 216h280q4 -51 46.5 -73.5t132.5 -22.5q108 0 156 52.5t48 173.5v121l-21 -32q-85 -117 -246 -117q-190 0 -307.5 137t-117.5 362 zM339 551q0 -134 57 -209t157 -75q101 0 158.5 76.5t57.5 211.5t-57.5 211t-158.5 76q-100 0 -157 -77t-57 -214z" />
<glyph unicode="h" horiz-adv-x="1126" d="M120 60v1323h128h130v-468l21 29q95 121 277 121q155 0 242.5 -91.5t87.5 -254.5v-659h-129h-129v612q0 91 -39 134.5t-120 43.5q-102 0 -156.5 -61t-54.5 -176v-553h-129h-129z" />
<glyph unicode="i" horiz-adv-x="512" d="M127 1153v240h263v-240h-263zM130 60v979h128h130v-979h-129h-129z" />
<glyph unicode="j" horiz-adv-x="512" d="M5 -127l32 -1q52 0 70 16.5t18 64.5v1086h129h129v-1086q0 -159 -68.5 -223t-238.5 -64l-71 1v206zM123 1153v240h263v-240h-263z" />
<glyph unicode="k" d="M127 60v1323h129h129v-715l322 371h160h159l-354 -371l363 -608h-153h-154l-236 421l-107 -112v-309h-129h-129z" />
<glyph unicode="l" horiz-adv-x="512" d="M127 60v1323h129h129v-1323h-129h-129z" />
<glyph unicode="m" horiz-adv-x="1639" d="M118 60v979h122h124v-157q17 41 43 73q85 110 248 110q130 0 213 -87q32 -33 51 -74l31 51q80 110 233 110q160 0 250 -94.5t90 -261.5v-649h-129h-130v575q0 110 -36 162.5t-111 52.5q-81 0 -124 -50t-43 -143v-597h-128h-130v617q0 89 -38 131t-116 42t-120 -50 t-42 -143v-597h-129h-129z" />
<glyph unicode="n" horiz-adv-x="1126" d="M120 60v979h122h123v-145q16 26 34 50q95 121 277 121q155 0 242.5 -91.5t87.5 -254.5v-659h-129h-129v612q0 91 -39 134.5t-120 43.5q-102 0 -156.5 -61t-54.5 -176v-553h-129h-129z" />
<glyph unicode="o" horiz-adv-x="1126" d="M63 544q0 240 135.5 380.5t364.5 140.5q232 0 367 -140.5t135 -380.5q0 -234 -135 -371.5t-367 -137.5q-229 0 -364.5 137.5t-135.5 371.5zM328 547q0 -145 60 -220.5t175 -75.5q116 0 176 75.5t60 220.5q0 148 -60 225t-176 77q-115 0 -175 -77t-60 -225z" />
<glyph unicode="p" horiz-adv-x="1126" d="M114 -323v1362h123h123v-145l17 25q104 146 275 146q187 0 300 -137.5t113 -362.5q0 -239 -113 -384.5t-300 -145.5q-170 0 -274 137l-5 7v-502h-129h-130zM360 532q0 -134 58 -209.5t161 -75.5t161.5 78t58.5 216q0 142 -58 221.5t-161 79.5q-104 0 -162 -82t-58 -228z " />
<glyph unicode="q" horiz-adv-x="1126" d="M63 534q0 240 119 385.5t313 145.5q159 0 256 -140q17 -23 28 -47v161h238v-1362h-129h-129v498q-105 -140 -276 -140h-2q-188 0 -303 137t-115 362zM328 541q0 -138 58.5 -216t162.5 -78t163 82t59 228q0 134 -58.5 209.5t-162.5 75.5q-105 0 -163.5 -79.5t-58.5 -221.5 z" />
<glyph unicode="r" horiz-adv-x="717" d="M118 60v979h122h124v-175q13 28 30 55q91 146 235 146l59 -1v-263q-35 3 -78 3q-118 0 -176 -58.5t-58 -177.5v-508h-129h-129z" />
<glyph unicode="s" d="M55 373h263q2 -67 59.5 -105.5t155.5 -38.5q77 0 120.5 26.5t43.5 74.5q0 33 -42 57q-42 22 -148 46q-249 55 -332 117q-84 62 -84 190q0 146 108.5 235.5t285.5 89.5q200 0 322.5 -87.5t122.5 -231.5h-256q0 56 -47 90.5t-124 34.5q-75 0 -116.5 -25.5t-41.5 -71.5 q0 -33 47 -56t167 -50q237 -53 318 -116q80 -63 80 -198q0 -144 -116.5 -231.5t-307.5 -87.5q-226 0 -348 86.5t-130 251.5z" />
<glyph unicode="t" horiz-adv-x="614" d="M18 858v181h136v264h258v-264h158v-181h-158v-556q0 -34 20.5 -45t84.5 -11h53v-191q-65 -6 -160 -6q-136 0 -196 49t-60 161v599h-136z" />
<glyph unicode="u" horiz-adv-x="1126" d="M121 379v660h129h130v-613q0 -90 38.5 -133t118.5 -43q101 0 155 61t54 176v552h129h129v-979h-122h-123v147q-14 -27 -33 -51q-95 -121 -276 -121q-155 0 -242 91t-87 253z" />
<glyph unicode="v" d="M24 1039h142h144l208 -730l211 730h136h136l-354 -979h-134h-135z" />
<glyph unicode="w" horiz-adv-x="1434" d="M18 1039h137h137l156 -719l147 719h129h129l145 -721l159 721h130h130l-283 -979h-131h-133l-150 729l-154 -729h-131h-133z" />
<glyph unicode="x" d="M28 60l333 500l-320 479h156h156l164 -289l165 289h150h152l-319 -483l332 -496h-158h-160l-170 299l-170 -299h-155h-156z" />
<glyph unicode="y" d="M18 1039h142h143l214 -726l207 726h135h135l-351 -1000q-85 -247 -145.5 -310t-214.5 -63l-124 2v207q9 -3 50 -3q103 0 135 42q20 27 39 112z" />
<glyph unicode="z" horiz-adv-x="922" d="M37 60v100v101l496 567l6 7h-465v102v102h788v-105v-106l-489 -557h512v-105v-106h-848z" />
<glyph unicode="{" horiz-adv-x="717" d="M88 462v164q119 15 146 51t27 181v240q0 166 99 236.5t313 57.5v-166q-125 8 -154 -21.5t-29 -160.5v-240q0 -144 -87 -209q-39 -29 -109 -52q70 -20 109 -50q87 -65 87 -209v-239q0 -132 29 -161t154 -22v-166q-214 -13 -313 57.5t-99 237.5v239q0 145 -27 181t-146 51z " />
<glyph unicode="|" horiz-adv-x="516" d="M155 -401v1843h206v-1843h-206z" />
<glyph unicode="}" horiz-adv-x="717" d="M44 -138q125 -7 154.5 22t29.5 161v239q0 144 86 209q40 30 109 50q-69 23 -109 52q-86 65 -86 209v240q0 131 -29.5 160.5t-154.5 21.5v166q214 13 313 -57.5t99 -236.5v-240q0 -145 27 -181t146 -51v-164q-119 -15 -146 -51t-27 -181v-239q0 -167 -99 -238 q-99 -70 -313 -57v166z" />
<glyph unicode="~" horiz-adv-x="1076" d="M112 523q32 74 94 118t136 44q47 0 100 -16t135 -55q56 -26 99 -41.5t60 -15.5q43 0 81.5 32.5t78.5 103.5l68 -164q-41 -74 -103 -117.5t-127 -43.5q-49 0 -101.5 18.5t-133.5 64.5q-36 20 -81 32.5t-84 12.5q-43 0 -87.5 -40t-66.5 -96z" />
<glyph horiz-adv-x="1600" d="M87 129v586h202q68 0 104 -8q112 -26 156 -142q23 -61 23 -140q0 -126 -56 -203q-46 -64 -123 -83q-41 -10 -95 -10h-211zM164 198h126q102 0 143 41q59 59 59 188q0 167 -104 207q-31 12 -100 12h-124v-448zM642 129v586h424v-69h-346v-179h324v-69h-324v-200h360v-69 h-438zM1154 129v586h78v-517h288v-69h-366z" />
<glyph unicode="&#xa9;" horiz-adv-x="1484" d="M102 782q0 126 50.5 244.5t139.5 211.5q91 90 206 138t243 48q134 0 249 -47.5t207 -139.5q91 -90 139 -207.5t48 -247.5q0 -127 -49 -243.5t-136 -204.5q-95 -90 -214.5 -141.5t-243.5 -51.5q-127 0 -242.5 48.5t-207.5 142.5q-93 92 -141 207t-48 243zM169 782 q0 -113 43.5 -216.5t126.5 -186.5q83 -82 186 -125.5t218 -43.5q113 0 217 43.5t191 127.5q81 79 122.5 181t41.5 220t-42 222t-122 185q-84 82 -187.5 125t-220.5 43q-116 0 -218 -42t-183 -123q-84 -84 -128.5 -189.5t-44.5 -220.5zM407 788q0 174 93 278q93 105 246 105 q123 0 203 -64q38 -31 61.5 -68.5t28.5 -88.5h-112q-13 70 -61.5 105.5t-127.5 35.5q-48 0 -86.5 -21t-65.5 -61t-41 -97.5t-14 -129.5q0 -71 14.5 -127t42.5 -94.5t67.5 -59t90.5 -20.5q76 0 125.5 40.5t63.5 114.5h111q-5 -54 -28 -95t-64 -75q-83 -70 -213 -70 q-156 0 -245 104q-89 102 -89 288z" />
<glyph unicode="&#xab;" horiz-adv-x="782" d="M96 450l286 405h102q-24 -47 -50.5 -98.5t-53 -104t-53 -104t-50.5 -98.5l202 -390h-105zM323 450l283 405h102q-11 -21 -26 -50.5t-39 -76.5t-58 -114.5t-82 -163.5l200 -390h-106z" />
<glyph unicode="&#xad;" horiz-adv-x="872" d="M68 378l76 276h652l-78 -276h-650z" />
<glyph unicode="&#xae;" horiz-adv-x="1484" d="M102 782q0 128 50 246.5t144 214.5q88 89 201 135t244 46q132 0 249 -48.5t209 -142.5q90 -91 137.5 -207t47.5 -244q0 -131 -47.5 -246t-139.5 -204q-95 -93 -212.5 -142t-243.5 -49q-128 0 -243.5 49t-208.5 144q-92 92 -139.5 207t-47.5 241zM169 782 q0 -112 43.5 -215t124.5 -186t185 -127t216 -44q117 0 220.5 42.5t190.5 126.5q81 78 123.5 180.5t42.5 217.5q0 121 -41 225t-121 185q-84 84 -187.5 127t-222.5 43q-115 0 -218.5 -43t-180.5 -120q-81 -85 -128 -192.5t-47 -219.5zM490 436v719h269q299 0 299 -193 q0 -76 -45.5 -126t-127.5 -67q40 -81 82 -166t82 -167h-136l-151 314h-150v-314h-122zM612 821h126q104 0 149.5 29.5t45.5 96.5q0 72 -47 104t-152 32h-122v-262z" />
<glyph unicode="&#xb0;" horiz-adv-x="1006" d="M64 591l457 457l456 -457l-456 -456zM140 591l381 -380l380 380l-380 381zM304 591l217 218l217 -218l-217 -217z" />
<glyph unicode="&#xb1;" horiz-adv-x="1011" d="M46 700l237 171l236 172l237 -172l236 -171l-90 -279l-90 -277h-585l-90 277zM186 443l167 -122l166 -120l167 120l166 122l-63 196l-64 196h-412l-63 -196zM336 605l91 66l92 67l92 -67l93 -66l-36 -108l-35 -109h-227z" />
<glyph unicode="&#xb6;" horiz-adv-x="891" d="M61 1138q0 65 24.5 120t66.5 97q47 40 109 61.5t137 21.5h432v-59h-106v-1229h-80v1229h-173v-1229h-82v690q-155 6 -242 87q-86 81 -86 211z" />
<glyph unicode="&#xb7;" horiz-adv-x="996" d="M62 592l202 189l190 -189l-190 -189zM327 340l189 190l192 -190l-192 -210zM327 840l189 205l187 -205l-187 -189zM577 592l189 189l205 -189l-205 -197z" />
<glyph unicode="&#xba;" horiz-adv-x="983" d="M59 534l111 193l112 194h447l113 -194l111 -193l-111 -194l-113 -194h-447l-112 194zM148 534l89 -156l90 -154h358l89 154l89 156l-89 155l-89 154h-358zM273 534l57 101l59 101h234l58 -101l59 -101l-117 -203h-234z" />
<glyph unicode="&#xbb;" horiz-adv-x="782" d="M96 855h102l283 -405l-274 -390h-106l200 390q-48 96 -82 163.5t-58 114.5t-39 76.5t-26 50.5zM320 855h102l286 -405l-278 -390h-105l202 390q-24 47 -50.5 98.5t-53 104t-53 104t-50.5 98.5z" />
<glyph unicode="&#xbf;" horiz-adv-x="774" d="M81 146v675h675v-675h-675z" />
<glyph unicode="&#xd7;" horiz-adv-x="1076" d="M74 212l315 315l-315 315l149 149l315 -315l315 315l150 -149l-315 -315l315 -315l-150 -149l-315 315l-315 -315z" />
<glyph unicode="&#xe0;" d="M53 377q0 134 74.5 215t218.5 101l170 24q66 9 110 30q19 9 29.5 32.5t7.5 47.5q-5 42 -42 65q-44 28 -127 28q-74 0 -115.5 -36t-43.5 -102h-248q8 172 117 257.5t320 85.5q182 0 288 -77t106 -210v-547q0 -66 11 -92.5t43 -41.5v-1v-35h-140h-139q-17 59 -23 116v2 q-122 -144 -315 -144q-136 0 -219 77.5t-83 204.5zM173 1501h283l174 -267h-187zM313 404q0 -58 31.5 -91.5t88.5 -33.5q124 0 198 88q14 17 24 50t10 65v112q-45 -25 -119 -40l-95 -18q-68 -13 -103 -46.5t-35 -85.5z" />
<glyph unicode="&#xe1;" d="M53 377q0 134 74.5 215t218.5 101l170 24q66 9 110 30q19 9 29.5 32.5t7.5 47.5q-5 42 -42 65q-44 28 -127 28q-74 0 -115.5 -36t-43.5 -102h-248q8 172 117 257.5t320 85.5q182 0 288 -77t106 -210v-547q0 -66 11 -92.5t43 -41.5v-1v-35h-140h-139q-17 59 -23 116v2 q-122 -144 -315 -144q-136 0 -219 77.5t-83 204.5zM313 404q0 -58 31.5 -91.5t88.5 -33.5q124 0 198 88q14 17 24 50t10 65v112q-45 -25 -119 -40l-95 -18q-68 -13 -103 -46.5t-35 -85.5zM323 1234l152 267h283l-248 -267h-187z" />
<glyph unicode="&#xe7;" d="M63 604q0 240 125.5 380.5t338.5 140.5q189 0 310 -104.5t129 -274.5h-263q-4 73 -52 118t-124 45q-97 0 -148 -77.5t-51 -227.5q0 -146 51 -222t148 -76q71 0 119.5 48.5t56.5 128.5h263q-20 -183 -136 -285.5t-303 -102.5q-222 0 -343 132t-121 377zM258 -252l40 87 q45 -15 83 -22.5t60 -7.5q36 0 61 20.5t25 51.5q0 30 -20.5 48.5t-51.5 18.5q-14 0 -33.5 -4.5t-40.5 -11.5l-39 38l101 153h107l-64 -98l51 5q73 0 117.5 -39.5t44.5 -104.5q0 -83 -62 -132.5t-168 -49.5q-50 0 -107 13t-104 35z" />
<glyph unicode="&#xe8;" d="M42 625q0 235 123.5 367.5t342.5 132.5q224 0 345 -135.5t121 -385.5q2 -29 -5 -58h-667q9 -116 52 -174q54 -72 180 -72q58 0 108 33.5t60 79.5h263q-34 -149 -155 -233.5t-302 -84.5q-224 0 -345 137.5t-121 392.5zM188 1501h283l174 -267h-187zM305 710h400 q-9 89 -47 138q-50 66 -154 66q-100 0 -152 -77q-33 -48 -47 -127z" />
<glyph unicode="&#xe9;" d="M42 625q0 235 123.5 367.5t342.5 132.5q224 0 345 -135.5t121 -385.5q2 -29 -5 -58h-667q9 -116 52 -174q54 -72 180 -72q58 0 108 33.5t60 79.5h263q-34 -149 -155 -233.5t-302 -84.5q-224 0 -345 137.5t-121 392.5zM305 710h400q-9 89 -47 138q-50 66 -154 66 q-100 0 -152 -77q-33 -48 -47 -127zM416 1234l174 267h282l-270 -267h-186z" />
<glyph unicode="&#xea;" d="M42 625q0 235 123.5 367.5t342.5 132.5q224 0 345 -135.5t121 -385.5q2 -29 -5 -58h-667q9 -116 52 -174q54 -72 180 -72q58 0 108 33.5t60 79.5h263q-34 -149 -155 -233.5t-302 -84.5q-224 0 -345 137.5t-121 392.5zM202 1234l209 267h115h115l209 -267h-207l-117 150 l-117 -150h-207zM305 710h400q-9 89 -47 138q-50 66 -154 66q-100 0 -152 -77q-33 -48 -47 -127z" />
<glyph unicode="&#xf4;" horiz-adv-x="1126" d="M63 604q0 240 135.5 380.5t364.5 140.5q232 0 367 -140.5t135 -380.5q0 -234 -135 -371.5t-367 -137.5q-229 0 -364.5 137.5t-135.5 371.5zM239 1234l209 267h115h115l209 -267h-207l-117 150l-117 -150h-207zM328 607q0 -145 60 -220.5t175 -75.5q116 0 176 75.5 t60 220.5q0 148 -60 225t-176 77q-115 0 -175 -77t-60 -225z" />
<glyph unicode="&#xf7;" horiz-adv-x="1076" d="M74 420v214h929v-214h-929zM374 143q0 68 48 116t116 48q69 0 116.5 -48t47.5 -116q0 -69 -47.5 -116.5t-116.5 -47.5q-68 0 -116 47.5t-48 116.5zM374 911q0 69 48 116.5t116 47.5q69 0 116.5 -47.5t47.5 -116.5q0 -68 -47.5 -115.5t-116.5 -47.5q-68 0 -116 47.5 t-48 115.5z" />
<glyph unicode="&#x153;" horiz-adv-x="1740" d="M63 544q0 240 130 381q129 140 350 140q208 -1 335 -125q124 124 336 125q224 0 345 -135.5t121 -385.5q2 -29 -4 -58h-652q9 -116 52 -174q54 -72 182 -72q51 0 96 33.5t54 79.5h263q-33 -149 -154 -233.5t-303 -84.5q-212 -1 -333 125q-128 -126 -338 -125 q-221 0 -350.5 137.5t-129.5 371.5zM328 547q0 -145 57.5 -220.5t167.5 -75.5q109 0 166.5 75.5t57.5 220.5q0 148 -58 226q-57 76 -166 76q-110 0 -167.5 -77t-57.5 -225zM1028 650h402q-9 89 -47 138q-50 66 -155 66q-101 0 -154 -77q-34 -48 -46 -127z" />
<glyph unicode="&#x60c;" horiz-adv-x="483" d="M103 298q-12 58 2 121.5t41.5 125t61.5 117.5t63 99q-8 -108 -10 -175.5t10 -110.5t41 -68.5t83 -48.5l-106 -251q-88 33 -131 83t-55 108z" />
<glyph unicode="&#x61b;" horiz-adv-x="565" d="M91 300l199 200l199 -200l-199 -198zM103 775q-12 58 2 121.5t41.5 125t61.5 117.5t63 99q-8 -108 -10 -175.5t10 -110.5t41 -68.5t83 -48.5l-106 -251q-88 33 -131 83t-55 108z" />
<glyph unicode="&#x61f;" horiz-adv-x="660" d="M73.5 953.5q-4.5 39.5 7.5 92t48 125.5q34 60 76 92t86 43.5t89 6.5t85 -18t73 -30.5t54 -31.5l-67 -218q-33 12 -63.5 20.5t-57 12t-46.5 -0.5t-30 -18q-9 -13 -1.5 -28.5t24.5 -34.5t38.5 -42t40 -51t30 -61.5t8.5 -72.5t-24.5 -84t-69.5 -97q-18 56 -46 96t-60 71 t-64.5 56t-59.5 50t-46.5 54t-24 68.5zM161 300l199 200l199 -200l-199 -198z" />
<glyph unicode="&#x621;" horiz-adv-x="724" d="M41 355q-1 39 17.5 87.5t51 98.5t74.5 98t88.5 86.5t94 63t90 29t76.5 -16.5t53 -74q6 -16 -3.5 -36t-30.5 -41.5t-52.5 -45t-70.5 -46.5q-11 17 -31 27t-43.5 12.5t-47.5 -2t-44 -16.5t-32.5 -30.5t-12.5 -44.5q0 -69 142 -69q75 21 153.5 36t159.5 25q0 -19 -8 -49.5 t-21.5 -59.5t-31.5 -51.5t-39 -26.5q-72 -13 -135.5 -37.5t-123.5 -57.5t-118.5 -73t-120.5 -84q-11 11 -11 26q0 55 88 167q-17 1 -35.5 7t-35 18.5t-28 32t-12.5 47.5z" />
<glyph unicode="&#x622;" horiz-adv-x="345" d="M-47 1400q-1 78 51.5 148.5t197 6.5t219.5 44q-35 -230 -210.5 -152.5t-257.5 -46.5zM42 1253l232 103l26 -823l-86 -417h-106z" />
<glyph unicode="&#x623;" horiz-adv-x="345" d="M27 1458q-1 20 12 46.5t33 51.5t45 46t49 30.5t43.5 3.5t29.5 -33q5 -13 -13 -30.5t-48 -35.5q-6 10 -20 13.5t-27.5 1t-24 -11.5t-10.5 -24q0 -27 55 -27q58 16 122 24q0 -8 -3 -19.5t-8.5 -23t-12.5 -20.5t-15 -10q-28 -5 -53 -14.5t-48 -22t-46 -28.5t-47 -33 q-4 4 -4 10q0 22 34 65q-13 1 -27.5 10t-15.5 31zM42 1253l232 103l26 -823l-86 -417h-106z" />
<glyph unicode="&#x624;" horiz-adv-x="754" d="M-214 -145.5q4 8.5 32 12t75 5t105 7.5t122.5 19t126.5 39.5t117 69.5t94 109h-119q-72 2 -132 39t-95 106t-37.5 167t41.5 223q42 118 92 198.5t105 115.5t113.5 20.5t117.5 -86.5q62 -68 100.5 -161.5t54.5 -200t9 -218t-36.5 -215t-81 -192t-125.5 -148t-170 -83.5 t-214 2q-111 55 -176.5 89t-94 54t-24.5 28.5zM179 1198q-1 28 16.5 64.5t45.5 71.5t62.5 63.5t67 41.5t60 5.5t41.5 -45.5q6 -18 -18.5 -42t-66.5 -50q-9 14 -27.5 19t-37.5 1.5t-33.5 -16t-14.5 -33.5q0 -37 76 -37q80 22 169 33q0 -10 -4 -26.5t-11.5 -32t-17.5 -28 t-21 -14.5q-39 -7 -73 -20t-66 -30.5t-63.5 -39t-65.5 -45.5q-6 6 -6 14q0 31 47 90q-9 0 -19 3.5t-19 10t-15 17t-6 25.5zM242.5 597.5q5.5 -26.5 31 -45t78.5 -19.5h173q-25 84 -57 129t-65.5 61t-64.5 8.5t-54 -28.5t-35 -50t-6.5 -55.5z" />
<glyph unicode="&#x625;" horiz-adv-x="345" d="M33 -143q-1 20 12 46.5t33 51.5t45 46t49 30.5t43.5 3.5t29.5 -33q5 -13 -13 -30.5t-48 -35.5q-6 10 -20 13.5t-27.5 1t-24 -11.5t-10.5 -24q0 -27 55 -27q58 16 122 24q0 -8 -3 -19.5t-8.5 -23t-12.5 -20.5t-15 -10q-28 -5 -53 -14.5t-48 -22t-46 -28.5t-47 -33 q-4 4 -4 10q0 22 34 65q-13 1 -27.5 10t-15.5 31zM42 1253l232 103l26 -823l-86 -417h-106z" />
<glyph unicode="&#x626;" horiz-adv-x="1283" d="M60 87q0 68 17 149t48.5 159t77 146.5t101.5 112.5q29 0 34 -7t-3 -19q-91 -129 -119.5 -235t-7.5 -184t84.5 -127t158 -64.5t212.5 4.5t247 79q-25 54 -63.5 79.5t-85.5 35.5t-99 10.5t-103 5.5q31 105 76.5 198.5t106.5 185.5q34 51 78 98.5t92 85t95.5 62.5t89.5 33 t73.5 -4.5t47.5 -51t12.5 -105t-33.5 -166.5l-49 -35q-2 52 -16.5 80.5t-37 39.5t-50.5 7t-58 -17t-58.5 -33t-52.5 -41t-40 -41t-20 -33q106 -26 168 -72t87 -107.5t17 -136.5t-43 -159q-32 -69 -91.5 -125t-134.5 -95.5t-160.5 -61t-169.5 -22.5t-161.5 19.5t-136.5 65.5 t-94.5 116t-35.5 170zM99 836q-1 28 16.5 64.5t45.5 71.5t62.5 63.5t67 41.5t60 5.5t41.5 -45.5q6 -18 -18.5 -42t-66.5 -50q-9 14 -27.5 19t-37.5 1.5t-33.5 -16t-14.5 -33.5q0 -37 76 -37q80 22 169 33q0 -10 -4 -26.5t-11.5 -32t-17.5 -28t-21 -14.5q-39 -7 -73 -20 t-66 -30.5t-63.5 -39t-65.5 -45.5q-6 6 -6 14q0 31 47 90q-9 0 -19 3.5t-19 10t-15 17t-6 25.5z" />
<glyph unicode="&#x627;" horiz-adv-x="345" d="M42 1253l232 103l26 -823l-86 -417h-106z" />
<glyph unicode="&#x628;" horiz-adv-x="1538" d="M46 372.5q-7 73.5 2.5 150.5t33.5 151.5t54 134.5l126 96q-10 -12 -20 -42.5t-15.5 -69.5t-4 -82t15.5 -80.5t43.5 -64t79.5 -33.5h944q8 9 -1.5 43.5t-29.5 78.5t-46.5 89.5t-51.5 78.5l146 169q37 -27 68 -82t54.5 -121t39.5 -134.5t24 -121.5l-112 -417h-1073 q-92 0 -150 34.5t-89 91.5t-38 130.5zM802 -207l164 164l164 -164l-164 -163z" />
<glyph unicode="&#x629;" horiz-adv-x="721" d="M54.5 371q-8.5 59 2.5 129.5t48 150.5q68 146 137 224t133 100.5t119.5 -3.5t96 -86.5t63 -149t21 -191.5t-30.5 -213.5t-92 -215.5h-224q-48 1 -93 19t-82.5 51t-63.5 79.5t-34.5 105.5zM65 1286l164 164l129 -129l129 129l164 -164l-164 -164l-129 129l-129 -129z M231.5 597.5q5.5 -26.5 31 -45t78.5 -19.5h173q-25 84 -57 129t-65.5 61t-64.5 8.5t-54 -28.5t-35 -50t-6.5 -55.5z" />
<glyph unicode="&#x62a;" horiz-adv-x="1538" d="M46 372.5q-7 73.5 2.5 150.5t33.5 151.5t54 134.5l126 96q-10 -12 -20 -42.5t-15.5 -69.5t-4 -82t15.5 -80.5t43.5 -64t79.5 -33.5h944q8 9 -1.5 43.5t-29.5 78.5t-46.5 89.5t-51.5 78.5l146 169q37 -27 68 -82t54.5 -121t39.5 -134.5t24 -121.5l-112 -417h-1073 q-92 0 -150 34.5t-89 91.5t-38 130.5zM468 1129l164 164l129 -129l129 129l164 -164l-164 -164l-129 129l-129 -129z" />
<glyph unicode="&#x62b;" horiz-adv-x="1538" d="M46 372.5q-7 73.5 2.5 150.5t33.5 151.5t54 134.5l126 96q-10 -12 -20 -42.5t-15.5 -69.5t-4 -82t15.5 -80.5t43.5 -64t79.5 -33.5h944q8 9 -1.5 43.5t-29.5 78.5t-46.5 89.5t-51.5 78.5l146 169q37 -27 68 -82t54.5 -121t39.5 -134.5t24 -121.5l-112 -417h-1073 q-92 0 -150 34.5t-89 91.5t-38 130.5zM477 1128l164 164l129 -129l129 129l164 -164l-164 -164l-129 129l-129 -129zM610 1418l164 164l164 -164l-164 -163z" />
<glyph unicode="&#x62c;" horiz-adv-x="1022" d="M50 35q7 120 41.5 221.5t89.5 188t128 158t157 130.5q-59 25 -105.5 33t-87.5 2t-79.5 -26t-82.5 -51q-12 13 -11 35.5t9 48t18.5 49.5t16.5 39q28 71 71.5 106.5t96 45.5t111.5 -1t118.5 -33t117 -49t105.5 -49l259 -43l-115 -284q-6 -10 -32.5 -15t-68 -9.5t-94 -10.5 t-109.5 -19q-50 -11 -109 -31t-112 -53t-93 -81t-52 -114q-24 -128 -2 -218.5t76 -150.5t133.5 -94t170.5 -50t186 -18t181 2t156 10t109 5q-21 -24 -48 -62.5t-57 -77.5t-61 -70.5t-60 -41.5q-72 -24 -153 -40t-164.5 -20t-166 5.5t-157 37.5t-137.5 76t-108 120t-68 171 t-18 228zM441 134l164 164l164 -164l-164 -163z" />
<glyph unicode="&#x62d;" horiz-adv-x="1022" d="M50 35q7 120 41.5 221.5t89.5 188t128 158t157 130.5q-59 25 -105.5 33t-87.5 2t-79.5 -26t-82.5 -51q-12 13 -11 35.5t9 48t18.5 49.5t16.5 39q28 71 71.5 106.5t96 45.5t111.5 -1t118.5 -33t117 -49t105.5 -49l259 -43l-115 -284q-6 -10 -32.5 -15t-68 -9.5t-94 -10.5 t-109.5 -19q-50 -11 -109 -31t-112 -53t-93 -81t-52 -114q-24 -128 -2 -218.5t76 -150.5t133.5 -94t170.5 -50t186 -18t181 2t156 10t109 5q-21 -24 -48 -62.5t-57 -77.5t-61 -70.5t-60 -41.5q-72 -24 -153 -40t-164.5 -20t-166 5.5t-157 37.5t-137.5 76t-108 120t-68 171 t-18 228z" />
<glyph unicode="&#x62e;" horiz-adv-x="1022" d="M50 35q7 120 41.5 221.5t89.5 188t128 158t157 130.5q-59 25 -105.5 33t-87.5 2t-79.5 -26t-82.5 -51q-12 13 -11 35.5t9 48t18.5 49.5t16.5 39q28 71 71.5 106.5t96 45.5t111.5 -1t118.5 -33t117 -49t105.5 -49l259 -43l-115 -284q-6 -10 -32.5 -15t-68 -9.5t-94 -10.5 t-109.5 -19q-50 -11 -109 -31t-112 -53t-93 -81t-52 -114q-24 -128 -2 -218.5t76 -150.5t133.5 -94t170.5 -50t186 -18t181 2t156 10t109 5q-21 -24 -48 -62.5t-57 -77.5t-61 -70.5t-60 -41.5q-72 -24 -153 -40t-164.5 -20t-166 5.5t-157 37.5t-137.5 76t-108 120t-68 171 t-18 228zM263 1256l164 164l164 -164l-164 -163z" />
<glyph unicode="&#x62f;" horiz-adv-x="794" d="M40 116l3 515l49 36q8 -47 20 -73t29.5 -39t41.5 -17t55 -7l320 1q9 46 -5 91.5t-42.5 86.5t-65.5 76.5t-72 61t-64 39t-41 12.5l137 196q86 -47 145.5 -98t100 -116.5t66 -150t43.5 -198.5l-112 -416h-608z" />
<glyph unicode="&#x630;" horiz-adv-x="794" d="M40 116l3 515l49 36q8 -47 20 -73t29.5 -39t41.5 -17t55 -7l320 1q9 46 -5 91.5t-42.5 86.5t-65.5 76.5t-72 61t-64 39t-41 12.5l137 196q86 -47 145.5 -98t100 -116.5t66 -150t43.5 -198.5l-112 -416h-608zM182 1353l164 164l164 -164l-164 -163z" />
<glyph unicode="&#x631;" horiz-adv-x="554" d="M-394.5 -157.5q9.5 4.5 45 5.5t90.5 3.5t121 15t136.5 38.5t136 75t121.5 125t92 188l-190 351l122 188q37 -7 69 -39.5t57.5 -82t44.5 -112t30.5 -130t15.5 -136t-1 -129.5q-6 -77 -26.5 -151t-55.5 -138.5t-85 -116.5t-115 -84t-145 -41.5t-175 11.5q-116 57 -182 89.5 t-91 49t-15.5 21z" />
<glyph unicode="&#x632;" horiz-adv-x="554" d="M-394.5 -157.5q9.5 4.5 45 5.5t90.5 3.5t121 15t136.5 38.5t136 75t121.5 125t92 188l-190 351l122 188q37 -7 69 -39.5t57.5 -82t44.5 -112t30.5 -130t15.5 -136t-1 -129.5q-6 -77 -26.5 -151t-55.5 -138.5t-85 -116.5t-115 -84t-145 -41.5t-175 11.5q-116 57 -182 89.5 t-91 49t-15.5 21zM101 1133l164 164l164 -164l-164 -163z" />
<glyph unicode="&#x633;" horiz-adv-x="2053" d="M37 173q2 85 16 168t38.5 161t55.5 142l70 33q-3 -20 -10.5 -54.5t-15 -78t-13.5 -93.5t-7 -101q-1 -75 19.5 -132.5t57.5 -97.5t86 -62t105 -25q22 -1 53.5 4t68.5 15t76.5 24.5t76.5 33.5t70 40.5t60 45.5t46 50t28 55q10 34 8 71t-13.5 76t-29.5 80t-40 83l182 186 q53 -124 67 -264h266q8 9 -1 41.5t-28 74.5l153 178q15 -36 27 -75.5t22 -77.5t17 -74.5t12 -66.5h260q7 9 -2.5 43.5t-29.5 78.5t-46.5 89.5t-51.5 78.5l146 169q37 -27 68 -82t54.5 -121t39.5 -134.5t24 -121.5l-112 -417h-863q-31 -92 -82.5 -173t-123 -142.5t-164 -100 t-206.5 -44.5q-99 -5 -172.5 20.5t-124.5 73.5t-81.5 115.5t-44 145t-11.5 162.5z" />
<glyph unicode="&#x634;" horiz-adv-x="2053" d="M37 173q2 85 16 168t38.5 161t55.5 142l70 33q-3 -20 -10.5 -54.5t-15 -78t-13.5 -93.5t-7 -101q-1 -75 19.5 -132.5t57.5 -97.5t86 -62t105 -25q22 -1 53.5 4t68.5 15t76.5 24.5t76.5 33.5t70 40.5t60 45.5t46 50t28 55q10 34 8 71t-13.5 76t-29.5 80t-40 83l182 186 q53 -124 67 -264h266q8 9 -1 41.5t-28 74.5l153 178q15 -36 27 -75.5t22 -77.5t17 -74.5t12 -66.5h260q7 9 -2.5 43.5t-29.5 78.5t-46.5 89.5t-51.5 78.5l146 169q37 -27 68 -82t54.5 -121t39.5 -134.5t24 -121.5l-112 -417h-863q-31 -92 -82.5 -173t-123 -142.5t-164 -100 t-206.5 -44.5q-99 -5 -172.5 20.5t-124.5 73.5t-81.5 115.5t-44 145t-11.5 162.5zM1125 1136l164 164l129 -129l129 129l164 -164l-164 -164l-129 129l-129 -129zM1258 1426l164 164l164 -164l-164 -163z" />
<glyph unicode="&#x635;" horiz-adv-x="2233" d="M39 173q2 85 16 168t38.5 161t55.5 142l70 33q-3 -20 -10.5 -54.5t-15 -78t-13.5 -93.5t-7 -101q-1 -75 19.5 -132.5t57.5 -97.5t86 -62t105 -25q22 -1 53.5 4t68.5 15t76.5 24.5t76.5 33.5t70 40.5t60 45.5t46 50t28 55q16 54 2 115t-43.5 126.5t-67.5 133t-69 134.5 l153 188q85 -86 135 -207t64 -258h68q41 39 91.5 89.5t108 103t120.5 102t131 87.5t138.5 59t143.5 16q62 -4 107 -28t76.5 -61t51.5 -83.5t33.5 -96t22.5 -98.5t18 -90l-111 -417h-1044q-32 -92 -83 -173t-123 -142.5t-164.5 -100t-206.5 -44.5q-99 -5 -172 20.5t-124 73.5 t-81.5 115.5t-44 145t-11.5 162.5zM1409 533h561q-5 59 -32.5 100.5t-67.5 64t-88.5 26.5t-95.5 -11q-38 -12 -75 -32t-72 -44.5t-67.5 -51.5t-62.5 -52z" />
<glyph unicode="&#x636;" horiz-adv-x="2233" d="M39 173q2 85 16 168t38.5 161t55.5 142l70 33q-3 -20 -10.5 -54.5t-15 -78t-13.5 -93.5t-7 -101q-1 -75 19.5 -132.5t57.5 -97.5t86 -62t105 -25q22 -1 53.5 4t68.5 15t76.5 24.5t76.5 33.5t70 40.5t60 45.5t46 50t28 55q16 54 2 115t-43.5 126.5t-67.5 133t-69 134.5 l153 188q85 -86 135 -207t64 -258h68q41 39 91.5 89.5t108 103t120.5 102t131 87.5t138.5 59t143.5 16q62 -4 107 -28t76.5 -61t51.5 -83.5t33.5 -96t22.5 -98.5t18 -90l-111 -417h-1044q-32 -92 -83 -173t-123 -142.5t-164.5 -100t-206.5 -44.5q-99 -5 -172 20.5t-124 73.5 t-81.5 115.5t-44 145t-11.5 162.5zM1169 1177l164 164l164 -164l-164 -163zM1409 533h561q-5 59 -32.5 100.5t-67.5 64t-88.5 26.5t-95.5 -11q-38 -12 -75 -32t-72 -44.5t-67.5 -51.5t-62.5 -52z" />
<glyph unicode="&#x637;" horiz-adv-x="1404" d="M14 533h248l-51 720l231 103l85 -312l-74 -31l11 -327q69 61 141 121t145.5 105t148 68t146.5 10q62 -11 106.5 -37.5t76 -63.5t52 -82t34 -92t23 -94t18.5 -88l-112 -417h-1142zM560 532l560 1q-5 59 -32 100.5t-67.5 64t-88.5 26.5t-95 -11q-38 -12 -75 -32.5t-72 -45 t-67.5 -51.5t-62.5 -52z" />
<glyph unicode="&#x638;" horiz-adv-x="1404" d="M14 533h248l-51 720l231 103l85 -312l-74 -31l11 -327q69 61 141 121t145.5 105t148 68t146.5 10q62 -11 106.5 -37.5t76 -63.5t52 -82t34 -92t23 -94t18.5 -88l-112 -417h-1142zM560 532l560 1q-5 59 -32 100.5t-67.5 64t-88.5 26.5t-95 -11q-38 -12 -75 -32.5t-72 -45 t-67.5 -51.5t-62.5 -52zM602 1190l164 164l164 -164l-164 -163z" />
<glyph unicode="&#x639;" horiz-adv-x="973" d="M44 34q3 73 23 135.5t50.5 117.5t68.5 105t77 99q-6 20 -18 41t-25 43t-24.5 44t-15.5 43q-5 20 -0.5 46.5t14.5 60.5q16 55 39.5 113t55 108t70.5 87t85.5 50.5t100 -2.5t114.5 -71q26 -23 48 -43.5t38.5 -37.5t25.5 -30t9 -22l-1 -40q-50 31 -113.5 46.5t-125.5 9 t-114.5 -37.5t-81.5 -92q19 -40 57.5 -64t89 -35.5t110.5 -11.5q61 0 125 7.5t129.5 22.5t125.5 33l-127 -262l-247 -58q-76 -18 -146.5 -46t-125.5 -74.5t-89.5 -115.5t-37.5 -169q-1 -25 5.5 -47t17 -42t24 -38.5t27.5 -34.5q54 -66 133.5 -103.5t173.5 -57.5 q93 -19 191 -22.5t187 0t161 10.5t114 9q-21 -24 -48 -62.5t-57 -77.5t-61 -70.5t-60 -41.5q-72 -24 -153 -40t-164.5 -20t-166 5.5t-157.5 37.5t-138 76t-108 120t-68 171t-17 228z" />
<glyph unicode="&#x63a;" horiz-adv-x="973" d="M44 34q3 73 23 135.5t50.5 117.5t68.5 105t77 99q-6 20 -18 41t-25 43t-24.5 44t-15.5 43q-5 20 -0.5 46.5t14.5 60.5q16 55 39.5 113t55 108t70.5 87t85.5 50.5t100 -2.5t114.5 -71q26 -23 48 -43.5t38.5 -37.5t25.5 -30t9 -22l-1 -40q-50 31 -113.5 46.5t-125.5 9 t-114.5 -37.5t-81.5 -92q19 -40 57.5 -64t89 -35.5t110.5 -11.5q61 0 125 7.5t129.5 22.5t125.5 33l-127 -262l-247 -58q-76 -18 -146.5 -46t-125.5 -74.5t-89.5 -115.5t-37.5 -169q-1 -25 5.5 -47t17 -42t24 -38.5t27.5 -34.5q54 -66 133.5 -103.5t173.5 -57.5 q93 -19 191 -22.5t187 0t161 10.5t114 9q-21 -24 -48 -62.5t-57 -77.5t-61 -70.5t-60 -41.5q-72 -24 -153 -40t-164.5 -20t-166 5.5t-157.5 37.5t-138 76t-108 120t-68 171t-17 228zM217 1377l164 164l164 -164l-164 -163z" />
<glyph unicode="&#x640;" horiz-adv-x="407" d="M-36 116v417h471l1 -417h-472z" />
<glyph unicode="&#x641;" horiz-adv-x="1563" d="M48 372.5q-7 73.5 2.5 150.5t33.5 151.5t54 134.5l126 96q-10 -12 -20.5 -42.5t-16 -69.5t-4 -82t16 -80.5t43.5 -64t79 -33.5h950q1 24 -10.5 57t-26 64t-27.5 54.5t-15 28.5q-31 -38 -69.5 -66t-81.5 -41t-89.5 -7.5t-92.5 33.5q-35 21 -48.5 54.5t-11 73t19.5 83 t43 85t59 78.5t68 63.5t69 40.5t63 9q52 -9 96.5 -47t81.5 -92.5t67 -120t51.5 -130.5t35.5 -123t20 -97l-111 -417h-1078q-92 0 -150 34.5t-89 91.5t-38 130.5zM823 1350l164 164l164 -164l-164 -163zM988 892q39 -35 78.5 -48.5t89.5 9.5q-21 32 -40 54.5t-38.5 30 t-41 -2.5t-48.5 -43z" />
<glyph unicode="&#x642;" horiz-adv-x="1315" d="M63.5 155.5q-2.5 111.5 23 221.5t74.5 202l218 44q-3 -20 -9.5 -54.5t-13 -78.5t-13 -94t-10.5 -100q-7 -94 11.5 -162.5t55.5 -114t88.5 -70t109.5 -30t119.5 5.5t118.5 36t105.5 62.5t81.5 84.5h-121q-48 1 -93 19t-82.5 50.5t-63.5 79.5t-34.5 106t2.5 129t48 150 q78 168 154 244.5t144.5 83t126 -47t97 -146t58.5 -212.5t10.5 -247.5t-48 -252t-115.5 -224t-193 -164.5t-281 -74q-150 -8 -256.5 35.5t-175 121.5t-101.5 181.5t-35.5 215zM445 1225l164 164l129 -129l129 129l164 -164l-164 -164l-129 129l-129 -129zM859.5 644 q-5.5 -29 5 -55.5t39 -45t81.5 -19.5h102q-25 85 -54 130t-57 61t-53 8t-41.5 -29t-22 -50z" />
<glyph unicode="&#x643;" horiz-adv-x="1433" d="M70.5 372.5q-7.5 73.5 2.5 150.5t33.5 151.5t53.5 134.5l127 96q-10 -12 -20.5 -42.5t-16 -69.5t-4 -82t16 -80.5t44 -64t78.5 -33.5h702l-53 720l290 103q5 -116 13.5 -235.5t14.5 -236t7.5 -227.5t-8.5 -208q-11 -106 -37 -191t-76 -142h-890q-92 0 -150 34.5t-89 91.5 t-38.5 130.5zM468 706q-2 13 15 28t43 29.5t57 28.5t59 25t47.5 19.5t22.5 11.5q-18 7 -43 14.5t-48.5 17.5t-40 25.5t-16.5 39.5q0 35 16 74t43 76.5t62.5 72t74.5 60.5t79.5 41.5t77.5 15.5l-65 -143q-2 -2 -20 -5.5t-41 -10t-46.5 -17t-36.5 -26.5q-9 -12 0.5 -20.5 t28 -17t42 -17t43 -20t31 -26.5t6.5 -36q-22 -87 -64.5 -140t-96 -79.5t-113.5 -29.5t-117 9z" />
<glyph unicode="&#x644;" horiz-adv-x="1095" d="M55 215q3 75 17.5 151t39 148.5t54.5 135.5l131 33q-3 -20 -13 -54.5t-19 -78.5t-14 -94t0 -100q9 -85 38 -138t71.5 -80t95 -30.5t107 12t108.5 47t100 73.5l-49 1012l283 103q6 -206 11 -358t9 -265.5t5.5 -195.5t-1.5 -149q-2 -57 -7.5 -107.5t-15.5 -104.5t-24 -116 t-34 -142q-59 -28 -123.5 -58t-132.5 -54.5t-136.5 -40.5t-135 -15.5t-128 21.5t-115.5 70q-47 43 -75 102.5t-39 128.5t-8 144z" />
<glyph unicode="&#x645;" horiz-adv-x="938" d="M51.5 173.5q11.5 55.5 46.5 104.5t90 89t122.5 64.5t145.5 30t158 -13.5q-40 47 -80 73t-81.5 36t-85 5t-90.5 -20q9 24 23 57.5t32.5 68t42.5 66.5t53.5 54t65.5 31t79 -3q108 -60 175 -115.5t101 -111t40.5 -112t-6 -119.5t-39.5 -133.5t-59 -152.5q-134 47 -223.5 68 t-147.5 24.5t-91 -7t-53 -25.5l162 -580q-199 -186 -155 -146l-219 657q-18 55 -6.5 110.5z" />
<glyph unicode="&#x646;" horiz-adv-x="1108" d="M33 241.5q2 84.5 16 168t38.5 161t55.5 142.5l70 33q-3 -20 -10.5 -54.5t-15.5 -78t-14 -93.5t-6 -101q-1 -89 22 -152.5t62 -103.5t91 -59t109 -19q58 0 118.5 17.5t116 49t103 76t80.5 98.5l-233 300l204 293q68 -68 116 -154t74 -181t30 -193t-16 -191.5t-65 -176.5 t-116.5 -147t-170.5 -104t-226 -47q-99 -5 -172 20t-124 73.5t-81.5 115.5t-44 145t-11.5 162.5zM329 1058l164 164l164 -164l-164 -163z" />
<glyph unicode="&#x647;" horiz-adv-x="862" d="M55.5 431q-1.5 98 49.5 220q81 193 164 302.5t159.5 150.5t143.5 21t117 -84.5t78.5 -166t29 -225t-31.5 -260.5t-104 -273h-333q-72 2 -135 40t-99.5 107.5t-38 167.5zM245 597.5q-1 -26.5 21 -45t75 -19.5h264q-25 84 -61 129t-75.5 61t-79 8.5t-71.5 -28.5t-52 -50 t-21 -55.5z" />
<glyph unicode="&#x648;" horiz-adv-x="772" d="M-254 -250q99 30 209 70t213.5 91.5t193 116t146.5 145.5q-66 -33 -131 -38.5t-121 13t-98.5 60.5t-64 106t-18 149t40.5 188q42 118 91.5 197.5t103.5 113.5t111.5 18.5t116.5 -87.5q77 -99 123.5 -216.5t61 -238t-2.5 -238t-65.5 -217t-130 -174.5t-195 -111.5 t-259.5 -27t-325 79.5zM249.5 596q-1.5 -26 11 -47t40.5 -33t76 -7l114 24q-15 45 -33 76.5t-37 50.5t-38.5 28t-37.5 9q-27 1 -48 -14t-33.5 -38t-14 -49z" />
<glyph unicode="&#x649;" horiz-adv-x="1283" d="M60 87q0 68 17 149t48.5 159t77 146.5t101.5 112.5q29 0 34 -7t-3 -19q-91 -129 -119.5 -235t-7.5 -184t84.5 -127t158 -64.5t212.5 4.5t247 79q-25 54 -63.5 79.5t-85.5 35.5t-99 10.5t-103 5.5q9 49 21 109.5t28.5 122t39 120t52.5 104.5q34 51 80 95t96.5 76.5 t102.5 51.5t97 20t81 -18t54.5 -62.5t17 -113t-31.5 -169.5l-49 -35q-2 52 -16.5 80.5t-37 39.5t-50.5 7t-58 -17t-58.5 -33t-52.5 -41t-40 -41t-20 -33q106 -26 168 -72t87 -107.5t17 -136.5t-43 -159q-32 -69 -91.5 -125t-134.5 -95.5t-160.5 -61t-169.5 -22.5 t-161.5 19.5t-136.5 65.5t-94.5 116t-35.5 170z" />
<glyph unicode="&#x64a;" horiz-adv-x="1264" d="M60 87q1 68 18.5 149t49 159t76 146.5t100.5 112.5q29 0 34 -7.5t-3 -18.5q-91 -124 -119 -224t-7 -174t85.5 -121.5t158.5 -65t211.5 -3.5t245.5 61q-25 54 -63.5 79.5t-85.5 35.5t-99 10.5t-103 5.5q5 99 38 188t94 181q34 51 80 101t96 91.5t101 72t96 44t80.5 6 t54 -41.5t16.5 -98t-32 -164l-56 -90q-15 45 -40 67.5t-54 28.5t-59.5 -2t-56.5 -23t-44 -34.5t-24 -36.5q106 -26 162.5 -76t75.5 -116.5t5.5 -146t-48.5 -163.5q-34 -75 -95 -135.5t-137 -103t-162.5 -66t-171 -25.5t-161.5 20t-135 70t-91.5 124t-30.5 183zM238 -546 l164 164l129 -129l129 129l164 -164l-164 -164l-129 129l-129 -129z" />
<glyph unicode="&#x64b;" horiz-adv-x="408" d="M49 1482l17 91l340 193l-17 -91zM63 1649l17 91l340 193l-17 -91z" />
<glyph unicode="&#x64c;" horiz-adv-x="469" d="M45 1619q19 27 44.5 43.5t50.5 22t47 -1t34 -24.5t10.5 -48t-23.5 -72q46 20 85.5 44t71.5 62q-41 10 -60.5 31.5t-22 47.5t8 53t30 49.5t44 36t49.5 12.5q21 -2 28 -24.5t6.5 -51t-6 -55.5t-8.5 -37l38 -12l-17 -76l-46 13q-6 -14 -19.5 -33.5t-32 -40t-40.5 -39.5 t-45.5 -31t-47.5 -15t-46 8t-24 31.5t3 42t10.5 42t-2 32t-34.5 10.5t-86 -20zM334 1773q-2 -11 3 -19t14 -14t20.5 -11.5t24.5 -11.5q2 19 2 35q0 14 -2.5 26.5t-7.5 16.5v-2q-10 10 -23 10q-14 1 -22.5 -8.5t-8.5 -21.5z" />
<glyph unicode="&#x64d;" horiz-adv-x="408" d="M38 -509l17 91l340 193l-17 -91zM65 -341l17 91l340 193l-17 -91z" />
<glyph unicode="&#x64e;" horiz-adv-x="408" d="M49 1482l17 91l340 193l-17 -91z" />
<glyph unicode="&#x64f;" horiz-adv-x="414" d="M13 1507q61 25 105.5 43t79 36t62.5 39.5t56 54.5q-47 11 -69 34t-25.5 51t9 57.5t34 53.5t49.5 38.5t56 13.5q16 -1 25 -12.5t12.5 -29t2.5 -39t-3.5 -41.5t-6.5 -36.5t-7 -24.5l44 -13l-19 -80l-52 12q-11 -23 -37.5 -52.5t-62.5 -55t-78.5 -42.5t-85.5 -15 q-29 2 -47.5 3t-28.5 2t-12.5 1.5t-0.5 1.5zM279 1818q-2 -25 20 -37t51 -23q2 20 2 38q0 15 -2 28.5t-9 18.5v-2q-5 6 -12 8t-12 2q-17 2 -27 -8.5t-11 -24.5z" />
<glyph unicode="&#x650;" horiz-adv-x="408" d="M55 -341l17 91l340 193l-17 -91z" />
<glyph unicode="&#x651;" horiz-adv-x="425" d="M59.5 1603.5q-1.5 27.5 2 53.5t10.5 47.5t14 31.5q0 -3 5 1t11.5 9t11.5 8.5t5 0.5q-8 -20 -13.5 -46.5t-3 -50t14 -39.5t37.5 -15q29 0 44.5 16t23.5 37.5t12.5 44.5t12.5 38q1 -3 5 0t9 7.5t9.5 8t5.5 0.5q-8 -29 -2.5 -54t19.5 -40t35.5 -18t46.5 14q6 9 5.5 22 t-4.5 26.5t-11 27t-14 23.5q13 18 24.5 34t22.5 32q11 -17 17.5 -36t11.5 -38q6 -33 3 -67t-15 -62t-33 -45.5t-51 -17.5q-25 0 -37.5 9t-27.5 23q-6 -10 -15 -23t-22 -25t-31 -21t-40 -11q-35 -3 -56 10t-31 35t-11.5 49.5z" />
<glyph unicode="&#x652;" horiz-adv-x="328" d="M59 1556q-5 33 3.5 75.5t27 81.5t46 67t59.5 33q28 4 54 -6.5t46.5 -28.5t34.5 -40.5t17 -41.5q5 -34 -10 -71.5t-41 -87.5v1q0 1 1 2l-3 -5q-24 -14 -61.5 -26.5t-74 -15t-65 11t-34.5 51.5zM123 1643q3 -22 21 -32.5t42 -11t50 6.5t46 21l1 1q-3 14 -13.5 30t-25 29.5 t-31.5 22t-35 5.5q-30 -5 -44 -27t-11 -45zM294 1535l1 1q0 -1 -1 -1zM295 1536l1 1q0 -1 -1 -1z" />
<glyph unicode="&#x660;" horiz-adv-x="449" d="M52 581l141 262q19 -21 47 -50.5t57.5 -60.5t57.5 -59.5t46 -47.5l-129 -278q-61 64 -100 105t-63 67t-36.5 39.5t-20.5 22.5z" />
<glyph unicode="&#x661;" horiz-adv-x="521" d="M40 1088q-2 17 22 45t60 58.5t76.5 59.5t71.5 50q21 -72 44.5 -149t46 -155.5t43 -155.5t36 -148.5t24.5 -135t9 -114.5q0 -75 -9.5 -129.5t-26 -100.5t-40 -90t-51.5 -98q-12 134 -40.5 262t-69 257.5t-91 263.5t-105.5 280z" />
<glyph unicode="&#x662;" horiz-adv-x="742" d="M49 1012q0 16 6 54t19 81.5t34 84.5t52 62q115 -123 204 -123q22 0 62 1.5t87.5 11t96 30t87.5 58.5q-6 -36 -9 -56t-4.5 -30.5t-1.5 -13.5v-5q-2 -30 -20 -69t-56 -76.5t-96 -68t-139 -43.5q49 -119 76.5 -236t26.5 -230.5t-34 -221.5t-105 -210q-15 282 -83.5 524 t-197.5 462z" />
<glyph unicode="&#x663;" horiz-adv-x="840" d="M32 984q-1 6 3.5 27.5t13 51.5t21.5 64.5t29 67t35 59.5t40 42l10 -12.5t12.5 -16t12.5 -16.5l9 -12q26 -36 50 -62t50 -26q25 0 74 25t133 80q18 -63 43.5 -91t50.5 -28q38 0 74.5 31.5t56.5 86.5l42 9q24 -27 24 -65q0 -35 -15.5 -83t-44.5 -92t-70 -74.5t-91 -30.5 q-29 0 -59.5 10t-62.5 37q-2 -2 -3 -2t-3 -2q-15 -13 -25 -21t-20.5 -13.5t-24.5 -10.5t-36 -12q31 -100 44.5 -198.5t13.5 -195.5q0 -128 -36.5 -262t-102.5 -254q-3 144 -13 268.5t-36.5 242.5t-73.5 234.5t-125 243.5z" />
<glyph unicode="&#x664;" horiz-adv-x="682" d="M55 386q1 38 12.5 81t35.5 87.5t61.5 88t90.5 82.5q-30 5 -60 11t-56 16.5t-46 26.5t-29 40q-1 15 -1.5 32t-0.5 30q0 74 16.5 126t49.5 93.5t83 78.5t116 82q15 10 41 27.5t54.5 37.5t55 38.5t42.5 30.5l-82 -275l-161 -138q75 -17 123 -37.5t76.5 -44t39.5 -49 t11 -52.5q0 -26 -7.5 -50.5t-17.5 -47.5q-1 -1 -3 -6.5t-4 -10.5v1q-4 -12 -4 -11q-32 -26 -58.5 -45.5t-46.5 -33.5q-18 -12 -33.5 -24t-32 -26t-36 -32.5t-44.5 -44.5q-3 -9 -3 -14q0 -45 102 -74t303 -39l-81 -243q-147 6 -246 32t-158 65t-82.5 88t-19.5 103z" />
<glyph unicode="&#x665;" horiz-adv-x="784" d="M56 446q0 58 23 128.5t60.5 141t84.5 137t95.5 118t94 82.5t78.5 31q68 1 114 -17.5t73.5 -52t39.5 -79.5t12 -100q0 -45 -7 -94.5t-18.5 -100t-26.5 -100.5t-30 -98q-22 -32 -65 -65.5t-97 -60.5t-114 -44.5t-114 -17.5q-55 0 -93.5 17.5t-63 45t-35.5 61.5t-11 68z M239 613q0 -41 26 -57.5t63 -16.5q29 0 60 7t60 18.5t53 26.5t39 32q1 9 0.5 27.5t-4.5 41t-12 46t-21 43t-31.5 32t-44.5 12.5q-14 0 -33 -12t-40 -31t-41.5 -42.5t-37 -47t-26.5 -44.5t-10 -35z" />
<glyph unicode="&#x666;" horiz-adv-x="772" d="M60 1071q4 27 9.5 58.5t10.5 63.5t10.5 62.5t10.5 56.5q71 -44 131 -67.5t119 -26.5t124 14.5t146 56.5l36 -31q-29 -99 -42 -188t-13 -171q0 -87 11.5 -169t30.5 -160.5t42 -153.5t47 -146l-174 -243q-38 104 -69.5 216t-54 228.5t-33 236t-4.5 239.5q-29 -4 -66 -2.5 t-75.5 7.5t-75.5 16.5t-64.5 25.5t-43.5 34.5t-13 42.5z" />
<glyph unicode="&#x667;" horiz-adv-x="1047" d="M47 1086l157 235q47 -67 97 -155t96.5 -188.5t86.5 -208.5t69 -215q27 108 64.5 216t80.5 208.5t90.5 188t95.5 154.5l128 -240q-78 -104 -133 -212.5t-94.5 -219t-68.5 -222.5t-56 -223q-17 -11 -50 -32t-70 -44t-70.5 -43.5t-50.5 -29.5q1 103 -17.5 203.5t-49.5 196 t-71 184.5t-82 169t-81.5 150t-70.5 128z" />
<glyph unicode="&#x668;" horiz-adv-x="1053" d="M46 295q78 104 133 212.5t94.5 219.5t68 223t55.5 223q100 63 158 98.5t83 50.5q-8 -93 10 -192t51.5 -197.5t77 -193t87.5 -178t83.5 -153t64.5 -118.5l-159 -235q-47 66 -97 154t-96.5 189t-87 209.5t-68.5 215.5q-27 -108 -64.5 -216t-81 -208.5t-91.5 -188.5 t-96 -154z" />
<glyph unicode="&#x669;" horiz-adv-x="832" d="M58 791q1 39 9.5 92t26 109t44 111.5t63 98.5t83.5 70t105 27q57 0 93 -31.5t59 -86t37 -127.5t27 -155q11 -68 24.5 -143.5t34.5 -154.5t51.5 -157.5t74.5 -152.5l-157 -233q-51 59 -86.5 129.5t-60.5 150t-41 167.5t-29 183q-27 -26 -52 -43.5t-48 -31.5 q-26 -16 -49 -22.5t-43 -6.5q-37 0 -64.5 18t-47.5 47t-33 66.5t-21 75.5zM215 940q0 -29 27 -51t65 -22q17 0 36.5 7.5t39.5 23.5l-57 128q-2 5 -23 5q-20 0 -43.5 -16t-40.5 -58v1q-2 -5 -3 -9.5t-1 -8.5z" />
<glyph unicode="&#x66a;" horiz-adv-x="1137" d="M61 975l199 200l199 -200l-199 -198zM373 -29l205 1219q-1 6 13.5 21t38.5 34.5t53.5 43t59.5 45t56.5 40.5t43.5 31q-40 -249 -76.5 -444t-72.5 -345t-72.5 -259t-75.5 -185t-81.5 -124t-91.5 -77zM673 256l199 200l199 -200l-199 -198z" />
<glyph unicode="&#x66d;" horiz-adv-x="815" d="M71 1074v68l214 18l-139 162l47 49l164 -139l17 213h68l17 -213l163 139l49 -49l-140 -162l214 -18v-68l-214 -17l140 -163l-49 -48l-163 139l-17 -214h-68l-17 214l-164 -139l-47 48l139 163z" />
<glyph unicode="&#x6f9;" horiz-adv-x="1033" d="M93 175v934h934v-934h-934zM223 304h675v675h-675v-675z" />
<glyph unicode="&#x2000;" horiz-adv-x="1067" />
<glyph unicode="&#x2001;" horiz-adv-x="2134" />
<glyph unicode="&#x2002;" horiz-adv-x="1067" />
<glyph unicode="&#x2003;" horiz-adv-x="2134" />
<glyph unicode="&#x2004;" horiz-adv-x="711" />
<glyph unicode="&#x2005;" horiz-adv-x="533" />
<glyph unicode="&#x2006;" horiz-adv-x="355" />
<glyph unicode="&#x2007;" horiz-adv-x="355" />
<glyph unicode="&#x2008;" horiz-adv-x="266" />
<glyph unicode="&#x2009;" horiz-adv-x="426" />
<glyph unicode="&#x200a;" horiz-adv-x="118" />
<glyph unicode="&#x200c;" horiz-adv-x="45" d="M10 -80v1631h25v-1631h-25z" />
<glyph unicode="&#x200d;" horiz-adv-x="45" d="M-102 1427l109 109l-109 108l16 16l109 -108l109 108l16 -16l-109 -108l109 -109l-16 -16l-97 96v-1587h-25v1586l-96 -95z" />
<glyph unicode="&#x200e;" horiz-adv-x="45" d="M8 -80v1631h234l-93 93l17 17l125 -124q-32 -33 -62.5 -63.5l-62.5 -62.5l-17 17l97 97h-213v-1605h-25z" />
<glyph unicode="&#x200f;" horiz-adv-x="45" d="M-246 1537l125 124l17 -17l-93 -93h234v-1631h-25v1605h-213l97 -97l-17 -17q-32 32 -62.5 63t-62.5 63z" />
<glyph unicode="&#x2010;" horiz-adv-x="872" d="M68 378l76 276h652l-78 -276h-650z" />
<glyph unicode="&#x2011;" horiz-adv-x="872" d="M68 378l76 276h652l-78 -276h-650z" />
<glyph unicode="&#x2012;" horiz-adv-x="872" d="M68 378l76 276h652l-78 -276h-650z" />
<glyph unicode="&#x2013;" d="M0 477v199h1024v-199h-1024z" />
<glyph unicode="&#x2014;" horiz-adv-x="1843" d="M0 477v199h1843v-199h-1843z" />
<glyph unicode="&#x2018;" horiz-adv-x="351" d="M72 1284l152 -91l86 -425h-86q-12 20 -38.5 71.5t-52.5 122.5t-44.5 154.5t-16.5 167.5z" />
<glyph unicode="&#x2019;" horiz-adv-x="363" d="M66 768l86 425l152 91q-5 -101 -27.5 -190t-48 -157.5t-48 -112.5t-28.5 -56h-86z" />
<glyph unicode="&#x201a;" horiz-adv-x="512" d="M127 60v117v117h129h129v-175q0 -138 -61.5 -217.5t-190.5 -106.5v93q82 25 111 75q19 34 25 97h-65h-77z" />
<glyph unicode="&#x201c;" horiz-adv-x="668" d="M78 1374l178 -107l100 -499h-100q-10 15 -27.5 48t-37.5 78.5t-41 101.5t-37.5 118t-26.5 128t-8 132zM321 1374l178 -107l101 -499h-101q-5 9 -19 35.5t-32 67.5t-39 95t-39 118.5t-31.5 137.5t-17.5 152z" />
<glyph unicode="&#x201d;" horiz-adv-x="668" d="M72 768l101 499l178 107q-4 -79 -17.5 -152t-31.5 -137.5t-39 -118.5t-39 -95t-32 -67.5t-19 -35.5h-101zM316 768l100 499l178 107q2 -66 -8 -132t-26.5 -128t-37.5 -118t-41 -101.5t-37.5 -78t-27.5 -48.5h-100z" />
<glyph unicode="&#x2022;" horiz-adv-x="854" d="M108 531q0 74 28.5 139.5t77.5 114.5t115 77.5t141 28.5t140.5 -28.5t114 -77.5t77 -114.5t28.5 -139.5q0 -75 -28.5 -140.5t-77 -114.5t-114 -77.5t-140.5 -28.5t-141 28.5t-115 77.5t-77.5 114.5t-28.5 140.5z" />
<glyph unicode="&#x202f;" horiz-adv-x="426" />
<glyph unicode="&#x205f;" horiz-adv-x="533" />
<glyph unicode="&#x2122;" horiz-adv-x="1484" d="M212 1366v52h381v-52h-151v-404h-78v404h-152zM716 962v456h117l140 -354q31 84 64.5 177t64.5 177h119v-456h-69v385l-16 3q-36 -98 -72 -194.5t-73 -193.5h-37l-154 389l-15 -3v-386h-69z" />
<glyph unicode="&#xe000;" horiz-adv-x="1040" d="M0 0v1040h1040v-1040h-1040z" />
<glyph unicode="&#xe820;" horiz-adv-x="408" d="M61 1032l17 91l340 193l-17 -91z" />
<glyph unicode="&#xe821;" horiz-adv-x="414" d="M-7 1047q61 25 105.5 43t79 36t62.5 39.5t56 54.5q-47 11 -69 34t-25.5 51t9 57.5t34 53.5t49.5 38.5t56 13.5q16 -1 25 -12.5t12.5 -29t2.5 -39t-3.5 -41.5t-6.5 -36.5t-7 -24.5l44 -13l-19 -80l-52 12q-11 -23 -37.5 -52.5t-62.5 -55t-78.5 -42.5t-85.5 -15 q-29 2 -47.5 3t-28.5 2t-12.5 1.5t-0.5 1.5zM259 1358q-2 -25 20 -37t51 -23q2 20 2 38q0 15 -2 28.5t-9 18.5v-2q-5 6 -12 8t-12 2q-17 2 -27 -8.5t-11 -24.5z" />
<glyph unicode="&#xe822;" horiz-adv-x="328" d="M56 1109q-5 33 3.5 75.5t27 81.5t46 67t59.5 33q28 4 54 -6.5t46.5 -28.5t34.5 -40.5t17 -41.5q5 -34 -10 -71.5t-41 -87.5v1q0 1 1 2l-3 -5q-24 -14 -61.5 -26.5t-74 -15t-65 11t-34.5 51.5zM120 1196q3 -22 21 -32.5t42 -11t50 6.5t46 21l1 1q-3 14 -13.5 30t-25 29.5 t-31.5 22t-35 5.5q-30 -5 -44 -27t-11 -45zM291 1088l1 1q0 -1 -1 -1zM292 1089l1 1q0 -1 -1 -1z" />
<glyph unicode="&#xe823;" horiz-adv-x="408" d="M51 1029l17 91l340 193l-17 -91zM65 1196l17 91l340 193l-17 -91z" />
<glyph unicode="&#xe824;" horiz-adv-x="469" d="M44 1194q19 27 44.5 43.5t50.5 22t47 -1t34 -24.5t10.5 -48t-23.5 -72q46 20 85.5 44t71.5 62q-41 10 -60.5 31.5t-22 47.5t8 53t30 49.5t44 36t49.5 12.5q21 -2 28 -24.5t6.5 -51t-6 -55.5t-8.5 -37l38 -12l-17 -76l-46 13q-6 -14 -19.5 -33.5t-32 -40t-40.5 -39.5 t-45.5 -31t-47.5 -15t-46 8t-24 31.5t3 42t10.5 42t-2 32t-34.5 10.5t-86 -20zM333 1348q-2 -11 3 -19t14 -14t20.5 -11.5t24.5 -11.5q2 19 2 35q0 14 -2.5 26.5t-7.5 16.5v-2q-10 10 -23 10q-14 1 -22.5 -8.5t-8.5 -21.5z" />
<glyph unicode="&#xe825;" horiz-adv-x="425" d="M57.5 1144.5q-1.5 27.5 2 53.5t10.5 47.5t14 31.5q0 -3 5 1t11.5 9t11.5 8.5t5 0.5q-8 -20 -13.5 -46.5t-3 -50t14 -39.5t37.5 -15q29 0 44.5 16t23.5 37.5t12.5 44.5t12.5 38q1 -3 5 0t9 7.5t9.5 8t5.5 0.5q-8 -29 -2.5 -54t19.5 -40t35.5 -18t46.5 14q6 9 5.5 22 t-4.5 26.5t-11 27t-14 23.5q13 18 24.5 34t22.5 32q11 -17 17.5 -36t11.5 -38q6 -33 3 -67t-15 -62t-33 -45.5t-51 -17.5q-25 0 -37.5 9t-27.5 23q-6 -10 -15 -23t-22 -25t-31 -21t-40 -11q-35 -3 -56 10t-31 35t-11.5 49.5z" />
<glyph unicode="&#xe826;" horiz-adv-x="408" d="M55 -341l17 91l340 193l-17 -91z" />
<glyph unicode="&#xe827;" horiz-adv-x="408" d="M38 -509l17 91l340 193l-17 -91zM65 -341l17 91l340 193l-17 -91z" />
<glyph unicode="&#xe828;" horiz-adv-x="425" d="M60 1259l17 91l340 193l-17 -91zM65 1140q0 21 4.5 39.5t9.5 29.5q0 -3 4.5 1.5t9.5 10.5t10 10.5t5 1.5q-5 -21 -7 -40t2 -32.5t17 -19t38 -0.5q28 5 41 23t17.5 40.5t5.5 46t6 39.5q1 -3 4.5 1t7.5 9t8 9.5t6 1.5q-3 -30 6.5 -54t26 -36.5t38 -11.5t42.5 21q4 10 2 23 t-8.5 25.5t-15.5 24.5t-18 21q5 10 14.5 15.5t20 10t20 9.5t15.5 13q5 -8 5.5 -12.5t-0.5 -8.5t-1.5 -8.5t3.5 -13.5q12 -32 14.5 -66t-5 -63.5t-25.5 -50.5t-47 -26q-25 -4 -39 3t-31 18q-4 -11 -10.5 -25.5t-18 -28.5t-27 -25.5t-37.5 -16.5q-34 -9 -56 -3.5t-35 20 t-17.5 35t-4.5 40.5z" />
<glyph unicode="&#xe829;" horiz-adv-x="425" d="M11 1347q60 20 103 34t77 28t61.5 31t54.5 43q-46 8 -67.5 26.5t-25 40.5t8.5 45t33 42t48.5 30.5t55.5 10.5q23 -1 31 -20t7.5 -43.5t-6.5 -47.5t-10 -33l43 -10l-19 -63l-50 10q-11 -18 -37 -41t-61.5 -43.5t-76.5 -34t-83 -11.5q-57 4 -75 4q-17 0 -12 2zM72.5 1188.5 q-0.5 26.5 3.5 48.5t9 33q0 -3 5 1.5t10.5 10.5t10 10t4.5 1q-5 -21 -6.5 -47.5t4 -49.5t19.5 -37.5t40 -9.5q28 5 41 23t18 40.5t6.5 45.5t6.5 39q1 -3 4.5 1t8 9t8 9.5t5.5 1.5q-3 -30 6 -54t25.5 -37t38 -12.5t43.5 20.5q4 10 2 23t-8.5 26t-15 25t-17.5 21 q11 20 19.5 37.5t17.5 34.5q13 -15 22.5 -33t17.5 -36q11 -32 13 -66t-6 -63.5t-26.5 -50t-47.5 -24.5q-25 -4 -38.5 3t-30.5 19q-4 -11 -11 -25t-18.5 -28t-27.5 -25.5t-38 -16.5q-34 -8 -56.5 1.5t-36 29.5t-19 47.5t-6 54zM271 1592q-2 -20 19 -29.5t50 -17.5q2 16 2 30 q0 11 -2 22t-9 14v-1q-5 5 -11.5 6.5t-11.5 1.5q-17 1 -26.5 -7t-10.5 -19z" />
<glyph unicode="&#xe82a;" horiz-adv-x="425" d="M70 1154q0 29 22 101l23 4q0 -111 39 -111q29 0 57.5 48t32.5 114l19 6q24 -98 61 -98q24 0 44 42.5t20 104.5l22 11q15 -51 15 -99q0 -76 -29.5 -121t-75.5 -45q-21 0 -64 21q-38 -87 -108 -87q-78 0 -78 109zM74 1283q0 45 12 65q12 17 54 42l272 160q0 -47 -8 -64.5 t-41 -36.5zM74 1433q0 45 12 65t54 44l272 159q0 -47 -8 -65t-41 -37z" />
<glyph unicode="&#xe82b;" horiz-adv-x="468" d="M40 1475q20 23 46.5 37.5t53 18.5t49.5 -1.5t35.5 -20.5t11 -40.5t-24.5 -61.5q48 17 89.5 38t75.5 53q-43 9 -63 27t-23.5 40t8 45t31.5 41.5t46 30t52 10.5q22 -2 29.5 -21t7 -43t-6 -46.5t-9.5 -31.5l40 -10l-18 -65l-48 11q-7 -12 -21 -28.5t-33 -34t-42 -33t-48 -26 t-50 -13t-48 6.5q-23 10 -25 27t3 36t11 36t-2 26.5t-36 9t-91 -17.5zM84.5 1190.5q-0.5 26.5 3.5 48.5t9 33q0 -3 5 1.5t10.5 10.5t10 10t4.5 1q-5 -21 -6.5 -47.5t4 -49.5t19.5 -37.5t40 -9.5q28 5 41 23t18 40.5t6.5 45.5t6.5 39q1 -3 4.5 1t8 9t8 9.5t5.5 1.5 q-3 -30 6 -54t25.5 -37t38 -12.5t43.5 20.5q4 10 2 23t-8.5 26t-15 25t-17.5 21q11 20 19.5 37.5t17.5 34.5q13 -15 22.5 -33t17.5 -36q11 -32 13 -66t-6 -63.5t-26.5 -50t-47.5 -24.5q-25 -4 -38.5 3t-30.5 19q-4 -11 -11 -25t-18.5 -28t-27.5 -25.5t-38 -16.5 q-34 -8 -56.5 1.5t-36 29.5t-19 47.5t-6 54zM343 1606q-2 -10 3.5 -16.5t14.5 -11.5t21.5 -9.5t25.5 -9.5q2 17 2 30q0 11 -2 21.5t-8 14.5v-2q-5 5 -12 6.5t-12 1.5q-14 1 -23.5 -7t-9.5 -18z" />
<glyph unicode="&#xe82c;" horiz-adv-x="425" d="M61.5 1400.5q0.5 26.5 4.5 49t10 32.5q0 -3 4.5 1.5l10.5 10.5t10.5 10t4.5 1q-6 -21 -8 -48t3 -50t18.5 -37.5t39.5 -10.5q29 4 42.5 21t19 39.5t7 46t7.5 39.5q1 -3 5 0.5t8.5 9t8 9.5t5.5 1q-4 -29 4 -53.5t24 -38t37 -13.5q22 0 45 20q5 10 3 22.5t-8 25.5 t-14.5 25.5t-16.5 21.5q11 20 20 37t19 34q12 -15 21.5 -33.5t16.5 -36.5q10 -32 11 -66t-7.5 -63t-27.5 -49t-48 -24q-25 -3 -38.5 4t-30.5 20q-4 -11 -11.5 -25t-19 -27.5t-28 -24.5t-38.5 -16q-34 -7 -56.5 3t-35 31t-17.5 48t-4.5 53.5zM72 1031l17 91l340 193l-17 -91z " />
<glyph unicode="&#xe82d;" horiz-adv-x="425" d="M35 1007l33 75l350 141l-33 -75zM45 1112l33 75l350 141l-33 -75zM60.5 1413.5q0.5 26.5 5 49t9.5 32.5q0 -3 4.5 1.5l10.5 10.5t10.5 10t4.5 1q-6 -21 -8 -48t3 -50t18.5 -37.5t39.5 -10.5q29 4 42.5 21t19 39.5t7 46t7.5 39.5q1 -3 5 0.5t8.5 9t8 9.5t5.5 1 q-4 -29 4 -53.5t24 -38t37 -13.5q22 0 45 20q5 10 3 22.5t-8 25.5t-14.5 25.5t-16.5 21.5q11 20 20 37t19 34q12 -15 21.5 -33.5t16.5 -36.5q10 -32 11 -66t-7.5 -63t-27.5 -49t-48 -24q-25 -3 -38.5 4t-30.5 20q-4 -11 -11.5 -25t-19 -27.5t-28 -24.5t-38.5 -16 q-34 -7 -56.5 3t-35 31t-17.5 48t-4.5 53.5z" />
<glyph unicode="&#xfd3e;" horiz-adv-x="614" d="M116 -305v1697h454v-177h-224v-1342h224v-178h-454z" />
<glyph unicode="&#xfd3f;" horiz-adv-x="614" d="M44 -127h223v1342h-223v177h454v-1697h-454v178z" />
<glyph unicode="&#xfeff;" horiz-adv-x="2789" d="M90 223v504h2611v-504h-2611zM161 1054q0 34 16.5 56.5t54.5 22.5q6 0 12 -0.5t13 -1.5q46 -5 92.5 -10t94.5 -5l80 179q8 37 25.5 64t46.5 27q10 0 19.5 -3.5t9.5 -17.5q0 -9 -8 -24.5t-17 -28.5l-97 -192q105 5 209 36t189 97q35 31 61.5 43.5t43.5 12.5q25 0 25 -21 q0 -19 -23 -47.5t-73 -54.5q-33 -34 -63 -72t-54 -82t-40 -96t-20 -115q0 -19 -15 -19q-12 0 -18 13.5t-6 45.5q0 73 22.5 140.5t56.5 124.5q-76 -25 -155 -36.5t-161 -11.5l-80 -160q-15 -31 -39 -54t-56 -23q-24 0 -50 18.5t-47 49t-35 68.5t-14 77zM200 1066 q0 -23 9.5 -52.5t25.5 -56t36 -45t40 -18.5q15 0 29 12t26 40l61 134q-108 3 -214 21q-13 -10 -13 -35zM879 873q0 7 2.5 15t6.5 17q18 40 49 76.5t68.5 64t77.5 44t76 16.5q27 0 48 -16t21 -52q0 -14 -9.5 -30.5t-27.5 -36.5q-20 -20 -35 -44.5t-15 -46.5q0 -15 9 -21.5 t23 -6.5q21 0 49.5 10t56.5 23t51.5 25.5t33.5 18.5q8 37 32.5 68.5t55.5 54.5t63.5 36.5t57.5 13.5q14 0 20 -5t6 -13q0 -10 -11 -20.5t-30 -12.5q-19 -7 -44 -19t-47.5 -30t-38 -41t-15.5 -52q0 -32 16.5 -45t42.5 -13t59 10t64.5 23.5t58 27.5t41.5 21q0 36 19 71 t48.5 62.5t66.5 44t73 16.5q22 0 36.5 -4.5t22 -11t10.5 -15t3 -15.5q0 -26 -29 -52t-67 -49t-74.5 -40.5t-52.5 -25.5q16 -23 41 -33.5t57 -10.5q30 0 64.5 8.5t70 23.5t70 35.5t64.5 43.5q19 14 38 32t40 33q4 3 13 8t19.5 10.5t21.5 9t20 3.5q15 0 15 -13q0 -5 -4 -16.5 t-10 -22.5q-16 -45 -25.5 -75t-11.5 -47q0 -5 6 -5q7 0 20 6.5t29.5 16t34 22t32.5 24.5q4 2 23 15t43 27.5t48 26.5t38 12q12 0 12 -12q-3 -29 -3 -57q0 -12 1 -24.5t4.5 -22t10 -15.5t17.5 -6q17 0 31 5.5t27 13.5t25.5 18t27.5 19l8 -21q-12 -9 -30 -25t-38.5 -31.5 t-42.5 -27t-42 -11.5q-15 0 -25 6t-15 15t-7 19t-2 19t1 18.5t1 17.5q0 11 -3.5 21t-14.5 10q-10 0 -27.5 -9.5t-38.5 -24t-45 -31t-48 -31t-46 -24.5t-40 -10q-11 2 -22 8t-11 19q0 23 4.5 44.5t18.5 62.5q0 1 -15.5 -10t-43 -28t-64 -37t-77 -37.5t-83 -29t-82.5 -11.5 q-41 0 -76.5 16.5t-49.5 46.5q-19 -8 -47.5 -22t-62 -27.5t-68.5 -23t-66 -9.5q-35 0 -61.5 16.5t-35.5 60.5q-21 -12 -45 -26t-49.5 -25.5t-50.5 -19.5t-49 -8q-31 0 -55.5 20.5t-43.5 65.5q-17 -12 -30 -20.5t-25.5 -15.5t-25.5 -12t-30 -11q-18 -6 -32 -6q-17 0 -33 11.5 t-16 33.5zM880 265h126v125h-126v-125zM928 880q41 0 77.5 16.5t68.5 42t59 57.5t50 63q-5 1 -10 1h-10q-36 0 -70.5 -17t-65 -43.5t-56 -58.5t-43.5 -61zM1103 265h91v320l318 -320h109v421h-91v-320l-313 320h-114v-421zM1709 265h430v76h-331v108h299v75h-299v87h322v75 h-421v-421zM1737 954q40 17 73.5 34t58.5 33t39 30t14 25q0 10 -8 15q-50 -5 -99 -38t-78 -99zM2202 609h183v-344h89v344h183v77h-455v-77z" />
</font>
</defs>
</svg>
