<?xml version="1.0" standalone="no"?>
<!DOCTYPE svg PUBLIC "-//W3C//DTD SVG 1.1//EN" "http://www.w3.org/Graphics/SVG/1.1/DTD/svg11.dtd" >
<svg xmlns="http://www.w3.org/2000/svg">
<metadata></metadata>
<defs>
<font id="ge_boxregular" horiz-adv-x="1542" >
<font-face units-per-em="2048" ascent="1638" descent="-410" />
<missing-glyph horiz-adv-x="500" />
<glyph unicode="&#x627;&#x653;" d="M219 0v1323h1323v-1323h-1323zM664 999h438v107h-438v-107zM770 217h221v680h-221v-680z" />
<glyph unicode="&#x627;&#x654;" d="M219 0h1323v1323h-1323v-1323zM758 932v141l51 21l-23 100l175 59l75 -88l-106 -39l53 -102zM770 217v680h221v-680h-221z" />
<glyph unicode="&#x648;&#x654;" d="M219 0h1323v1323h-1323v-1323zM371 930v139l51 23l-23 100l174 59l76 -88l-106 -41l53 -100zM412 719l469 473l471 -473l-598 -598l-156 158l125 124zM725 719l156 -154l155 154l-155 155z" />
<glyph unicode="&#x627;&#x655;" d="M219 0h1323v1323h-1323v-1323zM758 59v140l51 20l-23 100l175 60l75 -88l-106 -39l53 -102zM770 426v680h221v-680h-221z" />
<glyph unicode="&#x64a;&#x654;" d="M219 0v1321h1323v-1321h-1323zM350 987l25 -160l237 144l-75 108l116 64l-102 86l-189 -99l44 -112zM406 664l477 -476l467 471l-189 191v291l-227 -140v-241l100 -101l-157 -151l-244 246v135l-227 -139v-82h4z" />
<glyph unicode="&#x64c;&#x651;" horiz-adv-x="0" arabic-form="isolated" />
<glyph unicode="&#x64d;&#x651;" horiz-adv-x="0" arabic-form="isolated" />
<glyph unicode="&#x64e;&#x651;" horiz-adv-x="0" arabic-form="isolated" />
<glyph unicode="&#x64f;&#x651;" horiz-adv-x="0" arabic-form="isolated" />
<glyph unicode="&#x650;&#x651;" horiz-adv-x="0" arabic-form="isolated" />
<glyph unicode="&#xfe8e;&#x64b;" arabic-form="final" d="M219 0h1323v1323h-1323v-1323zM770 217v889h221v-889h-221z" />
<glyph unicode="&#x627;&#x64b;" arabic-form="isolated" d="M219 0h1323v1323h-1323v-1323zM770 217v889h221v-889h-221z" />
<glyph unicode="&#xfedf;&#xfe82;" arabic-form="isolated" d="M219 0v1323h1323v-1323h-1323zM326 1171h438v107h-438v-107zM418 338l157 -158l783 783l-154 153l-315 -311l-311 311l-156 -153l309 -314z" />
<glyph unicode="&#xfee0;&#xfe82;" arabic-form="final" d="M219 0v1323h1323v-1323h-1323zM326 1171h438v107h-438v-107zM418 338l157 -158l783 783l-154 153l-315 -311l-311 311l-156 -153l309 -314z" />
<glyph unicode="&#xfedf;&#xfe84;" arabic-form="isolated" d="M219 0v1323h1323v-1323h-1323zM418 338l157 -158l783 783l-154 153l-315 -311l-311 311l-156 -153l309 -314zM791 991l225 92l-53 103l106 39l-76 88l-174 -60l23 -100l-51 -20v-142z" />
<glyph unicode="&#xfee0;&#xfe84;" arabic-form="final" d="M219 0v1323h1323v-1323h-1323zM418 338l157 -158l783 783l-154 153l-315 -311l-311 311l-156 -153l309 -314zM791 991l225 92l-53 103l106 39l-76 88l-174 -60l23 -100l-51 -20v-142z" />
<glyph unicode="&#xfedf;&#xfe88;" arabic-form="isolated" d="M219 0v1323h1323v-1323h-1323zM418 338l157 -158l783 783l-154 153l-315 -311l-311 311l-156 -153l309 -314zM903 164l225 92l-53 102l107 39l-76 88l-174 -59l22 -100l-51 -21v-141z" />
<glyph unicode="&#xfee0;&#xfe88;" arabic-form="final" d="M219 0v1323h1323v-1323h-1323zM418 338l157 -158l783 783l-154 153l-315 -311l-311 311l-156 -153l309 -314zM903 164l225 92l-53 102l107 39l-76 88l-174 -59l22 -100l-51 -21v-141z" />
<glyph unicode="&#xfedf;&#xfe8e;" arabic-form="isolated" d="M219 0v1323h1323v-1323h-1323zM418 338l157 -158l783 783l-154 153l-315 -311l-311 311l-156 -153l309 -314z" />
<glyph unicode="&#xfee0;&#xfe8e;" arabic-form="final" d="M219 0v1323h1323v-1323h-1323zM418 338l157 -158l783 783l-154 153l-315 -311l-311 311l-156 -153l309 -314z" />
<glyph unicode="&#x671;" arabic-form="isolated" d="M219 0h1323v1323h-1323v-1323zM770 217v889h221v-889h-221z" />
<glyph unicode="&#x671;" arabic-form="final" d="M219 0h1323v1323h-1323v-1323zM770 217v889h221v-889h-221z" />
<glyph unicode="&#x67e;" arabic-form="final" d="M219 0v1323h1323v-1323h-1323zM412 659l311 -313l162 162l-320 309zM543 193l110 -111l111 108l110 -108l115 111l-115 112l-110 -112l-111 112zM764 190l2 3h-2v-3zM881 504l157 -158l314 313l-158 158zM987 195l111 -115l114 115l-114 110z" />
<glyph unicode="&#x67e;" arabic-form="initial" d="M219 0v1323h1323v-1323h-1323zM412 659l311 -313l162 162l-320 309zM543 193l110 -111l111 108l110 -108l115 111l-115 112l-110 -112l-111 112zM764 190l2 3h-2v-3zM881 504l157 -158l314 313l-158 158zM987 195l111 -115l114 115l-114 110z" />
<glyph unicode="&#x67e;" arabic-form="medial" d="M219 0v1323h1323v-1323h-1323zM412 659l311 -313l162 162l-320 309zM543 193l110 -111l111 108l110 -108l115 111l-115 112l-110 -112l-111 112zM764 190l2 3h-2v-3zM881 504l157 -158l314 313l-158 158zM987 195l111 -115l114 115l-114 110z" />
<glyph unicode="&#x6a4;" arabic-form="final" d="M219 0h1323v1323h-1323v-1323zM436 217v211h240v438h649v-649h-889zM770 1053l111 110l114 -110l-114 -113zM885 1233l106 106l107 -106l-107 -105zM889 428h223v219h-223v-219zM995 1053l111 110l113 -110l-113 -113z" />
<glyph unicode="&#x6a4;" arabic-form="initial" d="M219 0h1323v1323h-1323v-1323zM436 217v211h240v438h649v-649h-889zM770 1053l111 110l114 -110l-114 -113zM885 1233l106 106l107 -106l-107 -105zM889 428h223v219h-223v-219zM995 1053l111 110l113 -110l-113 -113z" />
<glyph unicode="&#x6a4;" arabic-form="medial" d="M219 0h1323v1323h-1323v-1323zM436 217v211h240v438h649v-649h-889zM770 1053l111 110l114 -110l-114 -113zM885 1233l106 106l107 -106l-107 -105zM889 428h223v219h-223v-219zM995 1053l111 110l113 -110l-113 -113z" />
<glyph unicode="&#x686;" arabic-form="final" d="M219 0h1323v1323h-1323v-1323zM551 760v221h672v-221h-156l-188 -195l235 -231l-156 -158l-393 393l189 191h-203zM967 532l67 68l68 -68l-68 -67zM1036 641l64 66l63 -66l-63 -63zM1102 532l67 68l68 -68l-68 -67z" />
<glyph unicode="&#x686;" arabic-form="initial" d="M219 0h1323v1323h-1323v-1323zM551 760v221h672v-221h-156l-188 -195l235 -231l-156 -158l-393 393l189 191h-203zM967 532l67 68l68 -68l-68 -67zM1036 641l64 66l63 -66l-63 -63zM1102 532l67 68l68 -68l-68 -67z" />
<glyph unicode="&#x686;" arabic-form="medial" d="M219 0h1323v1323h-1323v-1323zM551 760v221h672v-221h-156l-188 -195l235 -231l-156 -158l-393 393l189 191h-203zM967 532l67 68l68 -68l-68 -67zM1036 641l64 66l63 -66l-63 -63zM1102 532l67 68l68 -68l-68 -67z" />
<glyph unicode="&#x698;" arabic-form="final" d="M219 0h1323v1323h-1323v-1323zM555 350l473 473l156 -155l-471 -473zM705 1010l110 110l115 -110l-115 -113zM819 1190l107 106l106 -106l-106 -105zM930 1010l110 110l113 -110l-113 -113z" />
<glyph unicode="&#x6cc;" arabic-form="initial" d="M219 0v1323h1323v-1323h-1323zM412 659l311 -313l162 162l-320 309zM662 193l110 -111l113 108l110 -108l113 111l-113 112l-110 -112l-113 112zM881 504l157 -158l314 313l-158 158zM885 190v3v-3z" />
<glyph unicode="&#x6cc;" arabic-form="medial" d="M219 0v1323h1323v-1323h-1323zM412 659l311 -313l162 162l-320 309zM662 193l110 -111l113 108l110 -108l113 111l-113 112l-110 -112l-113 112zM881 504l157 -158l314 313l-158 158zM885 190v3v-3z" />
<glyph unicode="&#x622;" arabic-form="final" d="M219 0v1323h1323v-1323h-1323zM664 999h438v107h-438v-107zM770 217h221v680h-221v-680z" />
<glyph unicode="&#x623;" arabic-form="final" d="M219 0h1323v1323h-1323v-1323zM758 932v141l51 21l-23 100l175 59l75 -88l-106 -39l53 -102zM770 217v680h221v-680h-221z" />
<glyph unicode="&#x624;" arabic-form="final" d="M219 0h1323v1323h-1323v-1323zM371 930v139l51 23l-23 100l174 59l76 -88l-106 -41l53 -100zM412 719l469 473l471 -473l-598 -598l-156 158l125 124zM725 719l156 -154l155 154l-155 155z" />
<glyph unicode="&#x625;" arabic-form="final" d="M219 0h1323v1323h-1323v-1323zM758 59v140l51 20l-23 100l175 60l75 -88l-106 -39l53 -102zM770 426v680h221v-680h-221z" />
<glyph unicode="&#x626;" arabic-form="final" d="M219 0v1321h1323v-1321h-1323zM350 987l25 -160l237 144l-75 108l116 64l-102 86l-189 -99l44 -112zM406 664l477 -476l467 471l-189 191v291l-227 -140v-241l100 -101l-157 -151l-244 246v135l-227 -139v-82h4z" />
<glyph unicode="&#x626;" arabic-form="initial" d="M219 0h1323v1323h-1323v-1323zM412 664l157 155l312 -311l311 311l160 -155l-471 -474zM719 987l74 31l-33 139l244 82l104 -123l-150 -55l76 -141l-311 -127z" />
<glyph unicode="&#x626;" arabic-form="medial" d="M219 0h1323v1323h-1323v-1323zM412 664l157 155l312 -311l311 311l160 -155l-471 -474zM719 987l74 31l-33 139l244 82l104 -123l-150 -55l76 -141l-311 -127z" />
<glyph unicode="&#x627;" arabic-form="final" d="M219 0h1323v1323h-1323v-1323zM770 217v889h221v-889h-221z" />
<glyph unicode="&#x628;" arabic-form="final" d="M219 0h1323v1323h-1323v-1323zM412 942l157 156l312 -312l311 312l160 -156l-471 -473zM768 305l111 113l112 -113l-112 -115z" />
<glyph unicode="&#x628;" arabic-form="initial" d="M219 0h1323v1323h-1323v-1323zM412 942l157 156l312 -312l311 312l160 -156l-471 -473zM768 305l111 113l112 -113l-112 -115z" />
<glyph unicode="&#x628;" arabic-form="medial" d="M219 0h1323v1323h-1323v-1323zM412 942l157 156l312 -312l311 312l160 -156l-471 -473zM768 305l111 113l112 -113l-112 -115z" />
<glyph unicode="&#x629;" arabic-form="final" d="M219 0h1323v1323h-1323v-1323zM412 664l311 313l158 -158l-156 -155l156 -156l155 156l-155 155l157 158l314 -313l-471 -474zM662 1130l110 111l113 -111l-113 -112zM885 1130l110 111l113 -111l-113 -112z" />
<glyph unicode="&#x62a;" arabic-form="final" d="M219 0h1323v1323h-1323v-1323zM412 664l157 155l312 -311l311 311l160 -155l-471 -474zM649 928l111 110l114 -110l-114 -113zM874 928l113 110l115 -110l-115 -113z" />
<glyph unicode="&#x62a;" arabic-form="initial" d="M219 0h1323v1323h-1323v-1323zM412 664l157 155l312 -311l311 311l160 -155l-471 -474zM649 928l111 110l114 -110l-114 -113zM874 928l113 110l115 -110l-115 -113z" />
<glyph unicode="&#x62a;" arabic-form="medial" d="M219 0h1323v1323h-1323v-1323zM412 664l157 155l312 -311l311 311l160 -155l-471 -474zM649 928l111 110l114 -110l-114 -113zM874 928l113 110l115 -110l-115 -113z" />
<glyph unicode="&#x62b;" arabic-form="final" d="M219 0h1323v1323h-1323v-1323zM412 664l157 155l312 -311l311 311l160 -155l-471 -474zM649 928l111 110l114 -110l-114 -113zM768 1108l104 106l105 -106l-105 -104zM874 928l113 110l115 -110l-115 -113z" />
<glyph unicode="&#x62b;" arabic-form="initial" d="M219 0h1323v1323h-1323v-1323zM412 664l157 155l312 -311l311 311l160 -155l-471 -474zM649 928l111 110l114 -110l-114 -113zM768 1108l104 106l105 -106l-105 -104zM874 928l113 110l115 -110l-115 -113z" />
<glyph unicode="&#x62b;" arabic-form="medial" d="M219 0h1323v1323h-1323v-1323zM412 664l157 155l312 -311l311 311l160 -155l-471 -474zM649 928l111 110l114 -110l-114 -113zM768 1108l104 106l105 -106l-105 -104zM874 928l113 110l115 -110l-115 -113z" />
<glyph unicode="&#x62c;" arabic-form="final" d="M219 0h1323v1323h-1323v-1323zM551 760v221h672v-221h-156l-188 -195l235 -231l-156 -158l-393 393l189 191h-203zM1024 569l115 115l114 -115l-114 -110z" />
<glyph unicode="&#x62c;" arabic-form="initial" d="M219 0h1323v1323h-1323v-1323zM551 760v221h672v-221h-156l-188 -195l235 -231l-156 -158l-393 393l189 191h-203zM1024 569l115 115l114 -115l-114 -110z" />
<glyph unicode="&#x62c;" arabic-form="medial" d="M219 0h1323v1323h-1323v-1323zM551 760v221h672v-221h-156l-188 -195l235 -231l-156 -158l-393 393l189 191h-203zM1024 569l115 115l114 -115l-114 -110z" />
<glyph unicode="&#x62d;" arabic-form="final" d="M219 0h1323v1323h-1323v-1323zM551 760v221h672v-221h-156l-188 -195l235 -231l-156 -158l-393 393l189 191h-203z" />
<glyph unicode="&#x62d;" arabic-form="initial" d="M219 0h1323v1323h-1323v-1323zM551 760v221h672v-221h-156l-188 -195l235 -231l-156 -158l-393 393l189 191h-203z" />
<glyph unicode="&#x62d;" arabic-form="medial" d="M219 0h1323v1323h-1323v-1323zM551 760v221h672v-221h-156l-188 -195l235 -231l-156 -158l-393 393l189 191h-203z" />
<glyph unicode="&#x62e;" arabic-form="final" d="M219 0h1323v1323h-1323v-1323zM551 760v221h672v-221h-156l-188 -195l235 -231l-156 -158l-393 393l189 191h-203zM778 1137l115 114l113 -114l-113 -113z" />
<glyph unicode="&#x62e;" arabic-form="initial" d="M219 0h1323v1323h-1323v-1323zM551 760v221h672v-221h-156l-188 -195l235 -231l-156 -158l-393 393l189 191h-203zM778 1137l115 114l113 -114l-113 -113z" />
<glyph unicode="&#x62e;" arabic-form="medial" d="M219 0h1323v1323h-1323v-1323zM551 760v221h672v-221h-156l-188 -195l235 -231l-156 -158l-393 393l189 191h-203zM778 1137l115 114l113 -114l-113 -113z" />
<glyph unicode="&#x62f;" arabic-form="final" d="M219 0h1323v1323h-1323v-1323zM539 373v223h393l-84 352l217 4l139 -579h-665z" />
<glyph unicode="&#x630;" arabic-form="final" d="M219 0h1323v1323h-1323v-1323zM539 373v223h393l-70 287l217 2l125 -512h-665zM848 1094l110 112l115 -112l-115 -111z" />
<glyph unicode="&#x631;" arabic-form="final" d="M219 0h1323v1323h-1323v-1323zM555 350l473 473l156 -155l-471 -473z" />
<glyph unicode="&#x632;" arabic-form="final" d="M219 0h1323v1323h-1323v-1323zM555 350l473 473l156 -155l-471 -473zM934 1004l110 112l115 -112l-115 -111z" />
<glyph unicode="&#x633;" arabic-form="final" d="M219 0h1323v1323h-1323v-1323zM408 514l157 158l158 -154l156 154l155 -154l156 154l158 -158l-314 -313l-155 155l-156 -155z" />
<glyph unicode="&#x633;" arabic-form="initial" d="M219 0h1323v1323h-1323v-1323zM408 514l157 158l158 -154l156 154l155 -154l156 154l158 -158l-314 -313l-155 155l-156 -155z" />
<glyph unicode="&#x633;" arabic-form="medial" d="M219 0h1323v1323h-1323v-1323zM408 514l157 158l158 -154l156 154l155 -154l156 154l158 -158l-314 -313l-155 155l-156 -155z" />
<glyph unicode="&#x634;" arabic-form="final" d="M219 0h1323v1323h-1323v-1323zM408 514l157 158l158 -154l156 154l155 -154l156 154l158 -158l-314 -313l-155 155l-156 -155zM649 848l111 110l114 -110l-114 -115zM768 1028l104 107l105 -107l-105 -106zM874 848l113 110l115 -110l-115 -115z" />
<glyph unicode="&#x634;" arabic-form="initial" d="M219 0h1323v1323h-1323v-1323zM408 514l157 158l158 -154l156 154l155 -154l156 154l158 -158l-314 -313l-155 155l-156 -155zM649 848l111 110l114 -110l-114 -115zM768 1028l104 107l105 -107l-105 -106zM874 848l113 110l115 -110l-115 -115z" />
<glyph unicode="&#x634;" arabic-form="medial" d="M219 0h1323v1323h-1323v-1323zM408 514l157 158l158 -154l156 154l155 -154l156 154l158 -158l-314 -313l-155 155l-156 -155zM649 848l111 110l114 -110l-114 -115zM768 1028l104 107l105 -107l-105 -106zM874 848l113 110l115 -110l-115 -115z" />
<glyph unicode="&#x635;" arabic-form="final" d="M219 0v1323h1323v-1323h-1323zM461 217h864v768h-483l-180 -395v284h-201v-657zM801 428l170 369h131v-369h-301z" />
<glyph unicode="&#x635;" arabic-form="initial" d="M219 0v1323h1323v-1323h-1323zM461 217h864v768h-483l-180 -395v284h-201v-657zM801 428l170 369h131v-369h-301z" />
<glyph unicode="&#x635;" arabic-form="medial" d="M219 0v1323h1323v-1323h-1323zM461 217h864v768h-483l-180 -395v284h-201v-657zM801 428l170 369h131v-369h-301z" />
<glyph unicode="&#x636;" arabic-form="final" d="M219 0v1323h1323v-1323h-1323zM461 217h864v768h-483l-180 -395v284h-201v-657zM522 1120l113 -114l113 114l-113 111zM801 428l170 369h131v-369h-301z" />
<glyph unicode="&#x636;" arabic-form="initial" d="M219 0v1323h1323v-1323h-1323zM461 217h864v768h-483l-180 -395v284h-201v-657zM522 1120l113 -114l113 114l-113 111zM801 428l170 369h131v-369h-301z" />
<glyph unicode="&#x636;" arabic-form="medial" d="M219 0v1323h1323v-1323h-1323zM461 217h864v768h-483l-180 -395v284h-201v-657zM522 1120l113 -114l113 114l-113 111zM801 428l170 369h131v-369h-301z" />
<glyph unicode="&#x637;" arabic-form="final" d="M219 0h1323v1323h-1323v-1323zM436 217v889h221v-606l330 329h338v-612h-889zM899 428l203 203v-203h-203z" />
<glyph unicode="&#x637;" arabic-form="initial" d="M219 0h1323v1323h-1323v-1323zM436 217v889h221v-606l330 329h338v-612h-889zM899 428l203 203v-203h-203z" />
<glyph unicode="&#x637;" arabic-form="medial" d="M219 0h1323v1323h-1323v-1323zM436 217v889h221v-606l330 329h338v-612h-889zM899 428l203 203v-203h-203z" />
<glyph unicode="&#x638;" arabic-form="final" d="M219 0h1323v1323h-1323v-1323zM436 217v889h221v-606l330 329h338v-612h-889zM764 1018l110 110l115 -110l-115 -115zM899 428l203 203v-203h-203z" />
<glyph unicode="&#x638;" arabic-form="initial" d="M219 0h1323v1323h-1323v-1323zM436 217v889h221v-606l330 329h338v-612h-889zM764 1018l110 110l115 -110l-115 -115zM899 428l203 203v-203h-203z" />
<glyph unicode="&#x638;" arabic-form="medial" d="M219 0h1323v1323h-1323v-1323zM436 217v889h221v-606l330 329h338v-612h-889zM764 1018l110 110l115 -110l-115 -115zM899 428l203 203v-203h-203z" />
<glyph unicode="&#x639;" arabic-form="final" d="M219 0v1323h1323v-1323h-1323zM555 350l158 -155l270 270h340l2 2v211h-264l-141 233h403v211h-354l-267 -266l101 -178l24 -55z" />
<glyph unicode="&#x639;" arabic-form="initial" d="M219 0v1323h1323v-1323h-1323zM555 350l158 -155l270 270h340l2 2v211h-264l-141 233h403v211h-354l-267 -266l101 -178l24 -55z" />
<glyph unicode="&#x639;" arabic-form="medial" d="M219 0v1323h1323v-1323h-1323zM555 350l158 -155l270 270h340l2 2v211h-264l-141 233h403v211h-354l-267 -266l101 -178l24 -55z" />
<glyph unicode="&#x63a;" arabic-form="final" d="M219 0v1323h1323v-1323h-1323zM555 350l158 -155l270 270h340l2 2v211h-264l-141 233h403v211h-354l-267 -266l101 -178l24 -55zM578 1139l112 -115l115 115l-115 112z" />
<glyph unicode="&#x63a;" arabic-form="initial" d="M219 0v1323h1323v-1323h-1323zM555 350l158 -155l270 270h340l2 2v211h-264l-141 233h403v211h-354l-267 -266l101 -178l24 -55zM578 1139l112 -115l115 115l-115 112z" />
<glyph unicode="&#x63a;" arabic-form="medial" d="M219 0v1323h1323v-1323h-1323zM555 350l158 -155l270 270h340l2 2v211h-264l-141 233h403v211h-354l-267 -266l101 -178l24 -55zM578 1139l112 -115l115 115l-115 112z" />
<glyph unicode="&#x641;" arabic-form="final" d="M219 0h1323v1323h-1323v-1323zM436 217v211h240v438h649v-649h-889zM874 1053l113 110l115 -110l-115 -113zM889 428h223v219h-223v-219z" />
<glyph unicode="&#x641;" arabic-form="initial" d="M219 0h1323v1323h-1323v-1323zM436 217v211h240v438h649v-649h-889zM874 1053l113 110l115 -110l-115 -113zM889 428h223v219h-223v-219z" />
<glyph unicode="&#x641;" arabic-form="medial" d="M219 0h1323v1323h-1323v-1323zM436 217v211h240v438h649v-649h-889zM874 1053l113 110l115 -110l-115 -113zM889 428h223v219h-223v-219z" />
<glyph unicode="&#x642;" arabic-form="final" d="M219 0h1323v1323h-1323v-1323zM436 217v211h240v438h649v-649h-889zM774 1053l111 110l114 -110l-114 -113zM889 428h223v219h-223v-219zM997 1053l111 110l115 -110l-115 -113z" />
<glyph unicode="&#x642;" arabic-form="initial" d="M219 0h1323v1323h-1323v-1323zM436 217v211h240v438h649v-649h-889zM774 1053l111 110l114 -110l-114 -113zM889 428h223v219h-223v-219zM997 1053l111 110l115 -110l-115 -113z" />
<glyph unicode="&#x642;" arabic-form="medial" d="M219 0h1323v1323h-1323v-1323zM436 217v211h240v438h649v-649h-889zM774 1053l111 110l114 -110l-114 -113zM889 428h223v219h-223v-219zM997 1053l111 110l115 -110l-115 -113z" />
<glyph unicode="&#x643;" arabic-form="final" d="M219 0h1323v1323h-1323v-1323zM436 217v211h666v678h223v-889h-889zM588 565v195l69 33l-32 139l245 82l107 -121l-152 -55l74 -144z" />
<glyph unicode="&#x643;" arabic-form="initial" d="M219 0h1323v1323h-1323v-1323zM436 217v211h666v678h223v-889h-889zM588 565v195l69 33l-32 139l245 82l107 -121l-152 -55l74 -144z" />
<glyph unicode="&#x643;" arabic-form="medial" d="M219 0h1323v1323h-1323v-1323zM436 217v211h666v678h223v-889h-889zM588 565v195l69 33l-32 139l245 82l107 -121l-152 -55l74 -144z" />
<glyph unicode="&#x644;" arabic-form="final" d="M219 0h1323v1323h-1323v-1323zM559 217v389h211v-178h207v678h221v-889h-639z" />
<glyph unicode="&#x644;" arabic-form="initial" d="M219 0h1323v1323h-1323v-1323zM559 217v389h211v-178h207v678h221v-889h-639z" />
<glyph unicode="&#x644;" arabic-form="medial" d="M219 0h1323v1323h-1323v-1323zM559 217v389h211v-178h207v678h221v-889h-639z" />
<glyph unicode="&#x645;" arabic-form="final" d="M219 0h1323v1323h-1323v-1323zM436 371l221 227v508h668v-666h-508l-225 -223zM881 662h221v223h-221v-223z" />
<glyph unicode="&#x645;" arabic-form="initial" d="M219 0h1323v1323h-1323v-1323zM436 371l221 227v508h668v-666h-508l-225 -223zM881 662h221v223h-221v-223z" />
<glyph unicode="&#x645;" arabic-form="medial" d="M219 0h1323v1323h-1323v-1323zM436 371l221 227v508h668v-666h-508l-225 -223zM881 662h221v223h-221v-223z" />
<glyph unicode="&#x646;" arabic-form="final" d="M219 0h1323v1323h-1323v-1323zM412 664l157 155l312 -311l311 311l160 -155l-471 -474zM770 928l111 110l114 -110l-114 -113z" />
<glyph unicode="&#x646;" arabic-form="initial" d="M219 0h1323v1323h-1323v-1323zM412 664l157 155l312 -311l311 311l160 -155l-471 -474zM770 928l111 110l114 -110l-114 -113z" />
<glyph unicode="&#x646;" arabic-form="medial" d="M219 0h1323v1323h-1323v-1323zM412 664l157 155l312 -311l311 311l160 -155l-471 -474zM770 928l111 110l114 -110l-114 -113z" />
<glyph unicode="&#x647;" arabic-form="final" d="M219 0h1323v1323h-1323v-1323zM412 664l467 475l473 -475l-471 -474zM725 664l156 -156l155 156l-155 155z" />
<glyph unicode="&#x647;" arabic-form="initial" d="M219 0v1323h1323v-1323h-1323zM436 217h889v889h-342v76l-201 -33v-43h-346v-889zM664 428v492h118v-492h-118zM983 428v492h119v-492h-119z" />
<glyph unicode="&#x647;" arabic-form="medial" d="M219 0v1323h1323v-1323h-1323zM436 217h889v889h-342v76l-201 -33v-43h-346v-889zM664 428v492h118v-492h-118zM983 428v492h119v-492h-119z" />
<glyph unicode="&#x648;" arabic-form="final" d="M219 0h1323v1323h-1323v-1323zM412 719l469 473l471 -473l-598 -598l-156 158l125 124zM725 719l156 -154l155 154l-155 155z" />
<glyph unicode="&#x649;" arabic-form="final" d="M219 0v1321h1323v-1321h-1323zM406 664l477 -476l467 471l-189 191v291l-227 -140v-241l100 -101l-157 -151l-244 246v135l-227 -139v-82h4z" />
<glyph unicode="&#x64a;" arabic-form="final" d="M219 0v1321h1323v-1321h-1323zM406 664l313 -316l158 160l-244 246v135l-227 -139v-82h4zM653 227l111 -110l110 108l113 -108l113 110l-113 113l-113 -113l-110 113zM877 508l161 -162l312 313l-189 191v291l-227 -140v-241l100 -101z" />
<glyph unicode="&#x64a;" arabic-form="initial" d="M219 0v1323h1323v-1323h-1323zM412 659l311 -313l162 162l-320 309zM662 193l110 -111l113 108l110 -108l113 111l-113 112l-110 -112l-113 112zM881 504l157 -158l314 313l-158 158zM885 190v3v-3z" />
<glyph unicode="&#x64a;" arabic-form="medial" d="M219 0v1323h1323v-1323h-1323zM412 659l311 -313l162 162l-320 309zM662 193l110 -111l113 108l110 -108l113 111l-113 112l-110 -112l-113 112zM881 504l157 -158l314 313l-158 158zM885 190v3v-3z" />
<glyph unicode=" " d="M219 0h1323v1323h-1323v-1323z" />
<glyph unicode="!" d="M219 0h1323v1323h-1323v-1323zM772 305l113 113l112 -113l-112 -115zM772 1106h223l-28 -621h-166z" />
<glyph unicode="&#x22;" d="M219 0h1323v1323h-1323v-1323zM569 901v309h224v-86zM891 901v309h223v-86z" />
<glyph unicode="'" d="M219 0h1323v1323h-1323v-1323zM770 901v309h221v-86z" />
<glyph unicode="(" d="M219 0h1323v1323h-1323v-1323zM670 217v889h430v-209h-207v-469h205v-211h-428z" />
<glyph unicode=")" d="M219 0v1323h1323v-1323h-1323zM664 217h428v889h-428v-209h204v-469h-204v-211z" />
<glyph unicode="*" d="M219 0h1323v1323h-1323v-1323zM463 551v221h149l-104 105l156 157l108 -108v153h221v-147l101 102l159 -155l-104 -107h147v-223h-143l102 -100l-155 -158l-109 104v-149h-223v143l-100 -100l-160 153l106 109h-151z" />
<glyph unicode="+" d="M219 0h1323v1323h-1323v-1323zM463 553v221h307v305h221v-305h305v-221h-305v-307h-221v307h-307z" />
<glyph unicode="-" d="M219 0v1323h1323v-1323h-1323zM463 553h229h393h211v221h-305h-221h-307v-221z" />
<glyph unicode="." d="M219 0h1323v1323h-1323v-1323zM770 219v227h221v-227h-221z" />
<glyph unicode="/" d="M219 0h1323v1323h-1323v-1323zM518 324l549 874l156 -154l-551 -878z" />
<glyph unicode="0" d="M219 0h1323v1323h-1323v-1323zM705 551l165 127l166 -127l-166 -125z" />
<glyph unicode="1" d="M219 0h1323v1323h-1323v-1323zM770 217v889h221v-887z" />
<glyph unicode="2" d="M219 0h1323v1323h-1323v-1323zM643 217v889h506v-209h-283l-2 -680h-221z" />
<glyph unicode="3" d="M219 0v1323h1323v-1323h-1323zM545 217h223v275h444v614h-243v-404h-201v404h-223v-889z" />
<glyph unicode="4" d="M219 0h1323v1323h-1323v-1323zM614 459l197 198l-154 154l326 328l156 -156l-170 -168l157 -158l-198 -198l243 -242h-313z" />
<glyph unicode="5" d="M219 0h1323v1323h-1323v-1323zM559 338v649h649v-649h-649zM772 547h223v221h-223v-221z" />
<glyph unicode="6" d="M219 0h1323v1323h-1323v-1323zM643 897v209h506v-889h-223l-4 680h-279z" />
<glyph unicode="7" d="M219 0h1323v1323h-1323v-1323zM412 950l157 156l324 -490l299 490l160 -156l-459 -760z" />
<glyph unicode="8" d="M219 0h1323v1323h-1323v-1323zM412 360l481 760l459 -760l-160 -155l-299 489l-324 -489z" />
<glyph unicode="9" d="M219 0h1323v1323h-1323v-1323zM545 492v282l327 332h340v-889h-223v275h-444zM786 702l203 205v-205h-203z" />
<glyph unicode=":" d="M219 0h1323v1323h-1323v-1323zM770 217v227h221v-227h-221zM770 635v227h221v-227h-221z" />
<glyph unicode="&#x3c;" d="M219 0v1323h1323v-1323h-1323zM565 664l465 -467v315l-151 152l151 153v320z" />
<glyph unicode="=" d="M219 0v1323h1323v-1323h-1323zM559 338h649v213h-649v-213zM559 768h649v219h-649v-219z" />
<glyph unicode="&#x3e;" d="M219 0h1323v1323h-1323v-1323zM733 197v315l152 152l-152 153v320l465 -473z" />
<glyph unicode="[" d="M219 0h1323v1323h-1323v-1323zM670 217v889h430v-209h-207v-469h205v-211h-428z" />
<glyph unicode="\" d="M219 0v1323h1323v-1323h-1323zM539 1044l551 -878l155 158l-551 874z" />
<glyph unicode="]" d="M219 0v1323h1323v-1323h-1323zM664 217h428v889h-428v-209h204v-469h-204v-211z" />
<glyph unicode="{" d="M219 0h1323v1323h-1323v-1323zM670 217v889h430v-209h-207v-469h205v-211h-428z" />
<glyph unicode="|" d="M219 0h1323v1323h-1323v-1323zM770 217v889h221v-889h-221z" />
<glyph unicode="}" d="M219 0v1323h1323v-1323h-1323zM664 217h428v889h-428v-209h204v-469h-204v-211z" />
<glyph unicode="&#xab;" d="M219 0v1323h1323v-1323h-1323zM377 664l465 -467v315l-152 152l152 153v320zM817 664l465 -467v315l-152 152l152 153v320z" />
<glyph unicode="&#xad;" d="M219 0v1323h1323v-1323h-1323zM463 553h229h393h211v221h-305h-221h-307v-221z" />
<glyph unicode="&#xbb;" d="M219 0h1323v1323h-1323v-1323zM479 197v315l152 152l-152 153v320l465 -473zM920 197v315l151 152l-151 153v320l464 -473z" />
<glyph unicode="&#xd7;" d="M219 0h1323v1323h-1323v-1323zM508 442l217 220l-217 215l156 157l217 -215l213 215l159 -155l-215 -215l217 -215l-155 -158l-217 215l-215 -217z" />
<glyph unicode="&#xf7;" d="M219 0v1323h1323v-1323h-1323zM463 553h229h393h211v221h-305h-221h-307v-221zM770 305l107 -104l106 104l-106 107zM770 1016l107 -105l106 105l-106 106z" />
<glyph unicode="&#x60c;" d="M219 0h1323v1323h-1323v-1323zM770 219v86l221 223v-309h-221z" />
<glyph unicode="&#x61b;" d="M219 0h1323v1323h-1323v-1323zM770 219v227h221v-227h-221zM770 637v88l221 223v-313z" />
<glyph unicode="&#x61f;" d="M219 0h1323v1323h-1323v-1323zM635 842l268 266h236v-211h-287l143 -229v-183h-223v113zM772 305l113 113l112 -113l-112 -115z" />
<glyph unicode="&#x621;" d="M219 0h1323v1323h-1323v-1323zM631 201v258l94 39l-41 182l322 113l139 -162l-197 -76l96 -184z" />
<glyph unicode="&#x627;" d="M219 0h1323v1323h-1323v-1323zM770 217v889h221v-889h-221z" />
<glyph unicode="&#x628;" d="M219 0h1323v1323h-1323v-1323zM412 942l157 156l312 -312l311 312l160 -156l-471 -473zM768 305l111 113l112 -113l-112 -115z" />
<glyph unicode="&#x629;" d="M219 0h1323v1323h-1323v-1323zM412 664l311 313l158 -158l-156 -155l156 -156l155 156l-155 155l157 158l314 -313l-471 -474zM662 1130l110 111l113 -111l-113 -112zM885 1130l110 111l113 -111l-113 -112z" />
<glyph unicode="&#x62a;" d="M219 0h1323v1323h-1323v-1323zM412 664l157 155l312 -311l311 311l160 -155l-471 -474zM649 928l111 110l114 -110l-114 -113zM874 928l113 110l115 -110l-115 -113z" />
<glyph unicode="&#x62b;" d="M219 0h1323v1323h-1323v-1323zM412 664l157 155l312 -311l311 311l160 -155l-471 -474zM649 928l111 110l114 -110l-114 -113zM768 1108l104 106l105 -106l-105 -104zM874 928l113 110l115 -110l-115 -113z" />
<glyph unicode="&#x62c;" d="M219 0h1323v1323h-1323v-1323zM551 760v221h672v-221h-156l-188 -195l235 -231l-156 -158l-393 393l189 191h-203zM1024 569l115 115l114 -115l-114 -110z" />
<glyph unicode="&#x62d;" d="M219 0h1323v1323h-1323v-1323zM551 760v221h672v-221h-156l-188 -195l235 -231l-156 -158l-393 393l189 191h-203z" />
<glyph unicode="&#x62e;" d="M219 0h1323v1323h-1323v-1323zM551 760v221h672v-221h-156l-188 -195l235 -231l-156 -158l-393 393l189 191h-203zM778 1137l115 114l113 -114l-113 -113z" />
<glyph unicode="&#x62f;" d="M219 0h1323v1323h-1323v-1323zM539 373v223h393l-84 352l217 4l139 -579h-665z" />
<glyph unicode="&#x630;" d="M219 0h1323v1323h-1323v-1323zM539 373v223h393l-70 287l217 2l125 -512h-665zM848 1094l110 112l115 -112l-115 -111z" />
<glyph unicode="&#x631;" d="M219 0h1323v1323h-1323v-1323zM555 350l473 473l156 -155l-471 -473z" />
<glyph unicode="&#x632;" d="M219 0h1323v1323h-1323v-1323zM555 350l473 473l156 -155l-471 -473zM934 1004l110 112l115 -112l-115 -111z" />
<glyph unicode="&#x633;" d="M219 0h1323v1323h-1323v-1323zM408 514l157 158l158 -154l156 154l155 -154l156 154l158 -158l-314 -313l-155 155l-156 -155z" />
<glyph unicode="&#x634;" d="M219 0h1323v1323h-1323v-1323zM408 514l157 158l158 -154l156 154l155 -154l156 154l158 -158l-314 -313l-155 155l-156 -155zM649 848l111 110l114 -110l-114 -115zM768 1028l104 107l105 -107l-105 -106zM874 848l113 110l115 -110l-115 -115z" />
<glyph unicode="&#x635;" d="M219 0v1323h1323v-1323h-1323zM461 217h864v768h-483l-180 -395v284h-201v-657zM801 428l170 369h131v-369h-301z" />
<glyph unicode="&#x636;" d="M219 0v1323h1323v-1323h-1323zM461 217h864v768h-483l-180 -395v284h-201v-657zM522 1120l113 -114l113 114l-113 111zM801 428l170 369h131v-369h-301z" />
<glyph unicode="&#x637;" d="M219 0h1323v1323h-1323v-1323zM436 217v889h221v-606l330 329h338v-612h-889zM899 428l203 203v-203h-203z" />
<glyph unicode="&#x638;" d="M219 0h1323v1323h-1323v-1323zM436 217v889h221v-606l330 329h338v-612h-889zM764 1018l110 110l115 -110l-115 -115zM899 428l203 203v-203h-203z" />
<glyph unicode="&#x639;" d="M219 0v1323h1323v-1323h-1323zM555 350l158 -155l270 270h340l2 2v211h-264l-141 233h403v211h-354l-267 -266l101 -178l24 -55z" />
<glyph unicode="&#x63a;" d="M219 0v1323h1323v-1323h-1323zM555 350l158 -155l270 270h340l2 2v211h-264l-141 233h403v211h-354l-267 -266l101 -178l24 -55zM578 1139l112 -115l115 115l-115 112z" />
<glyph unicode="&#x640;" horiz-adv-x="0" />
<glyph unicode="&#x641;" d="M219 0h1323v1323h-1323v-1323zM436 217v211h240v438h649v-649h-889zM874 1053l113 110l115 -110l-115 -113zM889 428h223v219h-223v-219z" />
<glyph unicode="&#x642;" d="M219 0h1323v1323h-1323v-1323zM436 217v211h240v438h649v-649h-889zM774 1053l111 110l114 -110l-114 -113zM889 428h223v219h-223v-219zM997 1053l111 110l115 -110l-115 -113z" />
<glyph unicode="&#x643;" d="M219 0h1323v1323h-1323v-1323zM436 217v211h666v678h223v-889h-889zM588 565v195l69 33l-32 139l245 82l107 -121l-152 -55l74 -144z" />
<glyph unicode="&#x644;" d="M219 0h1323v1323h-1323v-1323zM559 217v389h211v-178h207v678h221v-889h-639z" />
<glyph unicode="&#x645;" d="M219 0h1323v1323h-1323v-1323zM436 371l221 227v508h668v-666h-508l-225 -223zM881 662h221v223h-221v-223z" />
<glyph unicode="&#x646;" d="M219 0h1323v1323h-1323v-1323zM412 664l157 155l312 -311l311 311l160 -155l-471 -474zM770 928l111 110l114 -110l-114 -113z" />
<glyph unicode="&#x647;" d="M219 0h1323v1323h-1323v-1323zM412 664l467 475l473 -475l-471 -474zM725 664l156 -156l155 156l-155 155z" />
<glyph unicode="&#x648;" d="M219 0h1323v1323h-1323v-1323zM412 719l469 473l471 -473l-598 -598l-156 158l125 124zM725 719l156 -154l155 154l-155 155z" />
<glyph unicode="&#x649;" d="M219 0v1321h1323v-1321h-1323zM406 664l477 -476l467 471l-189 191v291l-227 -140v-241l100 -101l-157 -151l-244 246v135l-227 -139v-82h4z" />
<glyph unicode="&#x64a;" d="M219 0v1321h1323v-1321h-1323zM406 664l313 -316l158 160l-244 246v135l-227 -139v-82h4zM653 227l111 -110l110 108l113 -108l113 110l-113 113l-113 -113l-110 113zM877 508l161 -162l312 313l-189 191v291l-227 -140v-241l100 -101z" />
<glyph unicode="&#x64b;" horiz-adv-x="0" />
<glyph unicode="&#x64c;" horiz-adv-x="0" />
<glyph unicode="&#x64d;" horiz-adv-x="0" />
<glyph unicode="&#x64e;" horiz-adv-x="0" />
<glyph unicode="&#x64f;" horiz-adv-x="0" />
<glyph unicode="&#x650;" horiz-adv-x="0" />
<glyph unicode="&#x651;" horiz-adv-x="0" />
<glyph unicode="&#x652;" horiz-adv-x="0" />
<glyph unicode="&#x653;" horiz-adv-x="0" />
<glyph unicode="&#x654;" horiz-adv-x="0" />
<glyph unicode="&#x655;" horiz-adv-x="0" />
<glyph unicode="&#x660;" d="M219 0h1323v1323h-1323v-1323zM705 551l165 127l166 -127l-166 -125z" />
<glyph unicode="&#x661;" d="M219 0h1323v1323h-1323v-1323zM770 217v889h221v-887z" />
<glyph unicode="&#x662;" d="M219 0h1323v1323h-1323v-1323zM643 217v889h506v-209h-283l-2 -680h-221z" />
<glyph unicode="&#x663;" d="M219 0v1323h1323v-1323h-1323zM545 217h223v275h444v614h-243v-404h-201v404h-223v-889z" />
<glyph unicode="&#x664;" d="M219 0h1323v1323h-1323v-1323zM614 459l197 198l-154 154l326 328l156 -156l-170 -168l157 -158l-198 -198l243 -242h-313z" />
<glyph unicode="&#x665;" d="M219 0h1323v1323h-1323v-1323zM559 338v649h649v-649h-649zM772 547h223v221h-223v-221z" />
<glyph unicode="&#x666;" d="M219 0h1323v1323h-1323v-1323zM643 897v209h506v-889h-223l-4 680h-279z" />
<glyph unicode="&#x667;" d="M219 0h1323v1323h-1323v-1323zM412 950l157 156l324 -490l299 490l160 -156l-459 -760z" />
<glyph unicode="&#x668;" d="M219 0h1323v1323h-1323v-1323zM412 360l481 760l459 -760l-160 -155l-299 489l-324 -489z" />
<glyph unicode="&#x669;" d="M219 0h1323v1323h-1323v-1323zM545 492v282l327 332h340v-889h-223v275h-444zM786 702l203 205v-205h-203z" />
<glyph unicode="&#x66a;" d="M219 0h1323v1323h-1323v-1323zM485 1047l164 129l168 -129l-168 -125zM518 324l549 874l156 -154l-551 -878zM950 330l164 127l168 -127l-168 -125z" />
<glyph unicode="&#x66b;" d="M219 0h1323v1323h-1323v-1323zM770 217v309h221v-86z" />
<glyph unicode="&#x66c;" d="M219 0h1323v1323h-1323v-1323zM770 217v309h221v-86z" />
<glyph unicode="&#x66d;" d="M219 0h1323v1323h-1323v-1323zM463 551v221h149l-104 105l156 157l108 -108v153h221v-147l101 102l159 -155l-104 -107h147v-223h-143l102 -100l-155 -158l-109 104v-149h-223v143l-100 -100l-160 153l106 109h-151z" />
<glyph unicode="&#x670;" horiz-adv-x="0" />
<glyph unicode="&#x67e;" d="M219 0v1323h1323v-1323h-1323zM412 659l311 -313l162 162l-320 309zM543 193l110 -111l111 108l110 -108l115 111l-115 112l-110 -112l-111 112zM764 190l2 3h-2v-3zM881 504l157 -158l314 313l-158 158zM987 195l111 -115l114 115l-114 110z" />
<glyph unicode="&#x686;" d="M219 0h1323v1323h-1323v-1323zM551 760v221h672v-221h-156l-188 -195l235 -231l-156 -158l-393 393l189 191h-203zM967 532l67 68l68 -68l-68 -67zM1036 641l64 66l63 -66l-63 -63zM1102 532l67 68l68 -68l-68 -67z" />
<glyph unicode="&#x698;" d="M219 0h1323v1323h-1323v-1323zM555 350l473 473l156 -155l-471 -473zM705 1010l110 110l115 -110l-115 -113zM819 1190l107 106l106 -106l-106 -105zM930 1010l110 110l113 -110l-113 -113z" />
<glyph unicode="&#x6a4;" d="M219 0h1323v1323h-1323v-1323zM436 217v211h240v438h649v-649h-889zM770 1053l111 110l114 -110l-114 -113zM885 1233l106 106l107 -106l-107 -105zM889 428h223v219h-223v-219zM995 1053l111 110l113 -110l-113 -113z" />
<glyph unicode="&#x6f0;" d="M219 0h1323v1323h-1323v-1323zM705 551l165 127l166 -127l-166 -125z" />
<glyph unicode="&#x6f1;" d="M219 0h1323v1323h-1323v-1323zM770 217v889h221v-887z" />
<glyph unicode="&#x6f2;" d="M219 0h1323v1323h-1323v-1323zM643 217v889h506v-209h-283l-2 -680h-221z" />
<glyph unicode="&#x6f3;" d="M219 0v1323h1323v-1323h-1323zM545 217h223v275h444v614h-243v-404h-201v404h-223v-889z" />
<glyph unicode="&#x6f4;" d="M219 0h1323v1323h-1323v-1323zM614 459l197 198l-154 154l326 328l156 -156l-170 -168l157 -158l-198 -198l243 -242h-313z" />
<glyph unicode="&#x6f5;" d="M219 0h1323v1323h-1323v-1323zM559 338v649h649v-649h-649zM772 547h223v221h-223v-221z" />
<glyph unicode="&#x6f6;" d="M219 0h1323v1323h-1323v-1323zM643 897v209h506v-889h-223l-4 680h-279z" />
<glyph unicode="&#x6f7;" d="M219 0h1323v1323h-1323v-1323zM412 950l157 156l324 -490l299 490l160 -156l-459 -760z" />
<glyph unicode="&#x6f8;" d="M219 0h1323v1323h-1323v-1323zM412 360l481 760l459 -760l-160 -155l-299 489l-324 -489z" />
<glyph unicode="&#x6f9;" d="M219 0h1323v1323h-1323v-1323zM545 492v282l327 332h340v-889h-223v275h-444zM786 702l203 205v-205h-203z" />
<glyph unicode="&#x2000;" horiz-adv-x="790" />
<glyph unicode="&#x2001;" horiz-adv-x="1581" />
<glyph unicode="&#x2002;" horiz-adv-x="790" />
<glyph unicode="&#x2003;" horiz-adv-x="1581" />
<glyph unicode="&#x2004;" horiz-adv-x="527" />
<glyph unicode="&#x2005;" horiz-adv-x="395" />
<glyph unicode="&#x2006;" horiz-adv-x="263" />
<glyph unicode="&#x2007;" horiz-adv-x="263" />
<glyph unicode="&#x2008;" horiz-adv-x="197" />
<glyph unicode="&#x2009;" horiz-adv-x="316" />
<glyph unicode="&#x200a;" horiz-adv-x="87" />
<glyph unicode="&#x200c;" horiz-adv-x="40" d="M0 0h41v1479h-41v-1479z" />
<glyph unicode="&#x200d;" horiz-adv-x="40" d="M-104 1358l28 -27l76 76v-1407h41v1407l76 -76l28 27l-96 98l96 96l-28 29l-97 -98l-96 98l-28 -29l98 -96z" />
<glyph unicode="&#x200e;" horiz-adv-x="40" d="M0 0h41v1438h160l-78 -78l29 -29l122 125l-122 125l-29 -29l74 -73h-197v-1479z" />
<glyph unicode="&#x200f;" horiz-adv-x="40" d="M-233 1456l122 -125l29 29l-78 78h160v-1438h41v1479h-197l74 73l-29 29z" />
<glyph unicode="&#x2010;" d="M219 0v1323h1323v-1323h-1323zM463 553h833v221h-833v-221zM696 285l164 129l166 -129l-166 -125zM696 1034l164 129l166 -129l-166 -125z" />
<glyph unicode="&#x2011;" d="M219 0v1323h1323v-1323h-1323zM463 553h229h393h211v221h-305h-221h-307v-221z" />
<glyph unicode="&#x2012;" d="M219 0v1323h1323v-1323h-1323zM463 553h229h393h211v221h-305h-221h-307v-221z" />
<glyph unicode="&#x2013;" horiz-adv-x="1243" d="M219 0v1323h1024v-1323h-1024zM408 553h177h304h164v221h-236h-172h-237v-221z" />
<glyph unicode="&#x2014;" horiz-adv-x="2267" d="M219 0v1323h2048v-1323h-2048zM597 553h354h609h326v221h-472h-342h-475v-221z" />
<glyph unicode="&#x201c;" d="M219 0h1323v1323h-1323v-1323zM567 901v88l224 221v-309h-224zM889 901v88l223 221v-309h-223z" />
<glyph unicode="&#x201d;" d="M219 0h1323v1323h-1323v-1323zM569 901v309h224v-86zM891 901v309h223v-86z" />
<glyph unicode="&#x202f;" horiz-adv-x="316" />
<glyph unicode="&#x205f;" horiz-adv-x="395" />
<glyph unicode="&#x2421;" horiz-adv-x="1452" d="M78 117h194q42 0 84 10q162 40 162 260q0 217 -162 254q-27 8 -94 8h-184v-532zM150 180v406h112q57 0 90 -11q94 -37 94 -188q0 -114 -53 -170q-40 -37 -129 -37h-114zM582 117h399v63h-326v180h293v64h-293v162h314v63h-387v-532zM1047 117h333v63h-260v469h-73v-532z " />
<glyph unicode="&#xe000;" horiz-adv-x="1024" d="M0 0z" />
<glyph unicode="&#xfd3e;" d="M219 0h1323v1323h-1323v-1323zM670 217v889h430v-209h-207v-469h205v-211h-428z" />
<glyph unicode="&#xfd3f;" d="M219 0v1323h1323v-1323h-1323zM664 217h428v889h-428v-209h204v-469h-204v-211z" />
<glyph unicode="&#xfeff;" horiz-adv-x="0" />
<glyph horiz-adv-x="681" />
<glyph horiz-adv-x="573" />
<glyph horiz-adv-x="559" />
<glyph horiz-adv-x="0" />
</font>
</defs>
</svg>
