<?xml version="1.0" standalone="no"?>
<!DOCTYPE svg PUBLIC "-//W3C//DTD SVG 1.1//EN" "http://www.w3.org/Graphics/SVG/1.1/DTD/svg11.dtd" >
<svg xmlns="http://www.w3.org/2000/svg">
<metadata></metadata>
<defs>
<font id="alhurraregular" horiz-adv-x="408" >
<font-face units-per-em="2048" ascent="1638" descent="-410" />
<missing-glyph horiz-adv-x="204" />
<glyph unicode="&#x651;&#x64b;" horiz-adv-x="425" d="M-32 1802v122h572v-122h-572zM-32 2045v127h572v-127h-572zM-28 1547q0 -24 10 -49t29 -46t45 -34t59 -13q15 0 33 4.5t35.5 14t33 23t24.5 31.5q9 -18 23 -31.5t30.5 -23t34 -14t32.5 -4.5q44 0 72 14t43.5 35t21.5 46t6 47v199h-130v-183q0 -13 -3.5 -20t-7.5 -10 q-4 -4 -10 -4q-8 0 -17.5 3.5t-17.5 11.5t-13.5 21t-5.5 33v148h-126v-148q0 -20 -5 -33t-12 -21t-14.5 -11.5t-12.5 -3.5t-9.5 0.5t-8.5 3.5t-6.5 10t-2.5 20v183h-130v-199z" />
<glyph unicode="&#x651;&#x64c;" horiz-adv-x="484" arabic-form="isolated" d="M-97 1746l63 127q25 48 50.5 72.5t58.5 24.5q27 0 49.5 -22t40 -48t29.5 -48t18 -22h3q8 2 10.5 2h4.5l48 35q-26 32 -38 62t-12 61q0 35 14 67.5t38 57.5t55.5 40t67.5 15q35 0 66 -15t54 -39t36.5 -54.5t13.5 -61.5q0 -85 -95 -152l64 -56l-104 -79l-66 66 q-15 -8 -41.5 -28.5t-73.5 -52.5l-40 -15q-2 -4 -8.5 -4.5t-14.5 -0.5q-26 0 -49 20t-41 43.5t-29.5 43.5t-14.5 20q0 -2 -0.5 -4t-2.5 -6l-10 -29l-43 -78zM-19 1434q0 -24 10 -49t28.5 -45.5t45 -33.5t59.5 -13q15 0 33 4.5t35.5 13.5t33 23t24.5 32q9 -18 23 -32 t30.5 -23t33.5 -13.5t32 -4.5q44 0 72 14t43.5 35t21.5 45.5t6 46.5v199h-130v-183q0 -13 -3.5 -20t-7.5 -10q-4 -4 -10 -4q-8 0 -17.5 3.5t-17.5 11.5t-13 21t-5 33v148h-126v-148q0 -20 -5 -33t-12 -21t-14.5 -11.5t-12.5 -3.5t-9.5 0.5t-8.5 3.5t-6.5 10t-2.5 20v183 h-130v-199zM359 2000q0 -12 6 -25.5t20 -25.5l8 -13q56 36 56 67q0 20 -10.5 30t-35.5 10q-44 0 -44 -43z" />
<glyph unicode="&#x651;&#x64d;" horiz-adv-x="425" arabic-form="isolated" d="M-69 1390v122h574v-122h-574zM-69 1635v127h574v-127h-574zM-52 1935v199h130v-184q0 -25 9 -29t18 -4q5 0 12.5 3t14.5 11t12 21.5t5 33.5v148h126v-148q0 -20 5 -33.5t13 -21.5t17.5 -11t17.5 -3q6 0 10 4q4 3 7.5 9.5t3.5 19.5v184h130v-199q0 -22 -6 -47t-21.5 -46 t-43.5 -35t-72 -14q-15 0 -32 4.5t-33.5 14t-30.5 23t-23 31.5q-9 -18 -24.5 -31.5t-33 -23t-35.5 -14t-33 -4.5q-33 0 -59.5 13t-45 34t-28.5 46t-10 49z" />
<glyph unicode="&#x651;&#x64e;" horiz-adv-x="425" arabic-form="isolated" d="M-78 1832v129h579v-129h-579zM-49 1574q0 -24 10 -49t29 -46t45 -34t59 -13q15 0 33 4.5t35.5 14t33 23t24.5 31.5q9 -18 23 -31.5t30.5 -23t34 -14t32.5 -4.5q44 0 72 14t43.5 35t21.5 46t6 47v199h-130v-184q0 -13 -3.5 -20t-7.5 -10q-4 -4 -10 -4q-8 0 -17.5 3.5 t-17.5 11.5t-13.5 21t-5.5 33v149h-126v-149q0 -20 -5 -33t-12 -21t-14.5 -11.5t-12.5 -3.5t-9.5 0.5t-8.5 3.5t-6.5 10t-2.5 20v184h-130v-199z" />
<glyph unicode="&#x651;&#x64f;" horiz-adv-x="437" arabic-form="isolated" d="M-70 1759q83 45 145 87.5t106 80.5q-45 60 -45 119q0 36 13.5 68t37 56t55 38t67.5 14q34 0 65.5 -13.5t55.5 -36.5t38 -53.5t14 -64.5q0 -35 -24 -72t-75 -73l58 -59l-95 -78l-67 68q-12 -9 -35 -26t-57 -42q-54 -38 -100.5 -65.5t-84.5 -46.5zM-42 1428q0 -24 10 -49 t29 -46t45 -34t59 -13q15 0 33 4.5t35.5 14t33 23t24.5 31.5q9 -18 23 -31.5t30.5 -23t33.5 -14t32 -4.5q44 0 72 14t43.5 35t21.5 46t6 47v199h-130v-184q0 -13 -3 -20t-7 -10q-4 -4 -10 -4q-8 0 -17.5 3.5t-17.5 11.5t-13.5 21t-5.5 33v149h-126v-149q0 -20 -5 -33 t-12 -21t-14.5 -11.5t-12.5 -3.5t-9.5 0.5t-8.5 3.5t-6.5 10t-2.5 20v184h-130v-199zM266 2054q0 -10 5 -21.5t20 -25.5l5 -14q27 17 41.5 33.5t14.5 27.5q0 48 -46 48q-40 0 -40 -48z" />
<glyph unicode="&#x651;&#x650;" horiz-adv-x="425" arabic-form="isolated" d="M-55 1529v128h574v-128h-574zM-38 1830v199h130v-184q0 -13 2.5 -20t6.5 -10t8.5 -3.5t9.5 -0.5t12.5 3.5t14.5 11.5t12 21t5 33v149h126v-149q0 -20 5 -33t13 -21t17.5 -11.5t17.5 -3.5q6 0 10 4q4 3 7.5 10t3.5 20v184h130v-199q0 -22 -6 -47t-21.5 -46t-43.5 -35 t-72 -14q-15 0 -32 4.5t-33.5 14t-30.5 23t-23 31.5q-9 -18 -24.5 -31.5t-33 -23t-35.5 -14t-33 -4.5q-33 0 -59.5 13t-45 34t-28.5 46t-10 49z" />
<glyph unicode="&#x640;&#x651;&#x64e;" horiz-adv-x="375" arabic-form="medial" d="M-154 1200v129h579v-129h-579zM-125 942q0 -24 10 -49t29 -46t45 -34t59 -13q15 0 33 4.5t35.5 14t33 23t24.5 31.5q9 -18 23 -31.5t30.5 -23t34 -14t32.5 -4.5q44 0 72 14t43.5 35t21.5 46t6 47v199h-130v-184q0 -13 -3.5 -20t-7.5 -10q-4 -4 -10 -4q-8 0 -17.5 3.5 t-17.5 11.5t-13.5 21t-5.5 33v149h-126v-149q0 -20 -5 -33t-12 -21t-14.5 -11.5t-12.5 -3.5t-9.5 0.5t-8.5 3.5t-6.5 10t-2.5 20v184h-130v-199z" />
<glyph unicode="&#x640;&#x651;&#x64f;" horiz-adv-x="480" arabic-form="medial" d="M-54 1253q83 45 145 87.5t106 80.5q-45 60 -45 119q0 36 13.5 68t37 56t55 38t67.5 14q34 0 65.5 -13.5t55.5 -36.5t38 -53.5t14 -64.5q0 -35 -24 -72t-75 -73l58 -59l-95 -78l-67 68q-12 -9 -35 -26t-57 -42q-54 -38 -100.5 -65.5t-84.5 -46.5zM-26 922q0 -24 10 -49 t29 -46t45 -34t59 -13q15 0 33 4.5t35.5 14t33 23t24.5 31.5q9 -18 23 -31.5t30.5 -23t33.5 -14t32 -4.5q44 0 72 14t43.5 35t21.5 46t6 47v199h-130v-184q0 -13 -3 -20t-7 -10q-4 -4 -10 -4q-8 0 -17.5 3.5t-17.5 11.5t-13.5 21t-5.5 33v149h-126v-149q0 -20 -5 -33 t-12 -21t-14.5 -11.5t-12.5 -3.5t-9.5 0.5t-8.5 3.5t-6.5 10t-2.5 20v184h-130v-199zM282 1548q0 -10 5 -21.5t20 -25.5l5 -14q27 17 41.5 33.5t14.5 27.5q0 48 -46 48q-40 0 -40 -48z" />
<glyph unicode="&#xfedf;&#xfee0;&#xfeea;" horiz-adv-x="2576" arabic-form="isolated" d="M33 77q10 96 42 194t83 189.5t118 173t146.5 145.5t170.5 107t189 57t202 -5t209 -78v-785h308v1283h308v-1283h310v1279h315v-1589h-2401v312zM378 75h508v532q-75 10 -138.5 -8.5t-117 -57.5t-95.5 -94t-73.5 -117.5t-52.5 -128.5t-31 -126zM1360 1610v225h147v-207 q0 -15 3 -22.5t7.5 -11.5t9.5 -4.5t10 -0.5q6 0 14.5 3.5t16.5 12.5t14 24t6 38v168h141v-168q0 -23 6 -38t15 -24t19.5 -12.5t19.5 -3.5q7 1 12 5t8.5 11.5t3.5 22.5v207h147v-225q0 -25 -7 -53t-25 -51.5t-49.5 -39t-80.5 -15.5q-17 0 -36.5 5t-38 15t-34.5 25.5t-26 35.5 q-10 -20 -27 -35.5t-36.5 -25.5t-40 -15t-37.5 -5q-37 0 -67 14.5t-51 38t-32.5 51.5t-11.5 55z" />
<glyph unicode="&#x640;&#x64e;" horiz-adv-x="448" arabic-form="medial" d="M-83 1026v129h579v-129h-579z" />
<glyph unicode="&#x640;&#x64f;" horiz-adv-x="490" arabic-form="medial" d="M-46 1088q83 44 145 87t106 81q-45 60 -45 119q0 36 13.5 68t36.5 56t55 38t68 14q34 0 65.5 -13.5t55.5 -36.5t38 -53.5t14 -64.5q0 -35 -24 -72t-75 -74l58 -58l-95 -78l-67 68q-12 -9 -35 -26.5t-58 -41.5q-54 -38 -100 -65.5t-84 -46.5zM290 1383q0 -10 5 -21.5 t19 -25.5l6 -14q27 17 41.5 33t14.5 28q0 48 -46 48q-40 0 -40 -48z" />
<glyph unicode="&#x640;&#x650;" horiz-adv-x="669" arabic-form="medial" d="M-85 377v128h574v-128h-574z" />
<glyph unicode="&#x640;&#x651;" horiz-adv-x="448" arabic-form="medial" d="M-51 1099v199h130v-183q0 -13 2.5 -20t6.5 -10t8.5 -3.5t9.5 -0.5t12.5 3.5t14.5 11.5t12 21t5 33v148h126v-148q0 -20 5 -33t13 -21t17.5 -11.5t18.5 -3.5q6 0 10 4q4 3 7 10t3 20v183h130v-199q0 -22 -6 -46.5t-21.5 -45.5t-43.5 -35t-72 -14q-15 0 -32 4.5t-33.5 13.5 t-30.5 22.5t-23 31.5q-9 -18 -24.5 -31.5t-33 -22.5t-35.5 -13.5t-33 -4.5q-33 0 -59 13t-45 33.5t-29 45.5t-10 49z" />
<glyph unicode="&#xfedf;&#xfe82;" horiz-adv-x="1207" arabic-form="isolated" d="M-417 1473q7 63 13 115t20 96q11 41 26 79t38 65q12 14 21.5 24t18.5 17.5t18 14t21 13.5q34 16 63.5 23.5t64.5 7.5q51 0 105 -17.5t115 -49.5l281 -172q24 -14 47 -19.5t43 -5.5q49 0 69 38q15 14 20 36t5 46v77h211q4 -23 4 -50t-3.5 -55t-9 -55.5t-12.5 -49.5 q-14 -34 -29.5 -65t-39.5 -57t-47.5 -49.5t-46.5 -37.5q-34 -15 -64 -22.5t-65 -7.5q-51 0 -105 17.5t-114 50.5l-297 197q-23 18 -58 18q-24 0 -39.5 -9.5t-32.5 -34.5q-14 -23 -22 -49t-8 -58v-71h-211zM-48 1353q81 -96 137.5 -186.5t93.5 -179.5t58.5 -179.5 t32.5 -187.5t15.5 -202.5t7.5 -225.5h315q0 183 -10 344.5t-42.5 304.5t-94.5 270t-165 242h-348zM130 75h630v1278h315v-1589h-945v311z" />
<glyph unicode="&#xfee0;&#xfe82;" horiz-adv-x="1143" arabic-form="final" d="M-423 1473q7 63 13 115t20 96q11 41 26 79t38 65q12 14 21.5 24t18.5 17.5t18 14t21 13.5q34 16 63.5 23.5t64.5 7.5q51 0 105 -17.5t115 -49.5l281 -172q24 -14 47 -19.5t43 -5.5q49 0 69 38q15 14 20 36t5 46v77h211q4 -23 4 -50t-3.5 -55t-9 -55.5t-12.5 -49.5 q-14 -34 -29.5 -65t-39.5 -57t-47.5 -49.5t-46.5 -37.5q-34 -15 -64 -22.5t-65 -7.5q-51 0 -105 17.5t-114 50.5l-297 197q-23 18 -58 18q-24 0 -39.5 -9.5t-32.5 -34.5q-14 -23 -22 -49t-8 -58v-71h-211zM-49 1353q81 -96 137.5 -186.5t93.5 -179.5t58.5 -179.5 t32.5 -187.5t15.5 -202.5t7.5 -225.5h315q0 183 -10 344.5t-42.5 304.5t-94.5 270t-165 242h-348zM129 75h630v1278h315v-1278h126q-27 -1 -42 -14.5t-15 -36.5v-210q0 -22 15 -33.5t42 -16.5h-1071v311z" />
<glyph unicode="&#xfedf;&#xfe84;" horiz-adv-x="1200" arabic-form="isolated" d="M-256 1422v195h207l-35 86q-5 14 -10.5 34.5t-5.5 47.5l23 115q14 29 31 52.5t38 44.5l41 44q29 28 65.5 42.5t153 18t82.5 -3t5.5 -21t74.5 -35t61 -45.5l21 -21l-118 -163l-27 34q-26 30 -57 46.5t-67 16.5l-58 -17l-39 -32l-30 -41l-5 -58l5 -48l30 -41l64 -39l85 -17 h217v-195h-752zM-48 1353q81 -96 137.5 -186.5t93.5 -179.5t58.5 -179.5t32.5 -187.5t15.5 -202.5t7.5 -225.5h315q0 183 -10 344.5t-42.5 304.5t-94.5 270t-165 242h-348zM130 75h630v1278h315v-1589h-945v311z" />
<glyph unicode="&#xfee0;&#xfe84;" horiz-adv-x="1141" arabic-form="final" d="M-275 1422v195h207l-35 86q-5 14 -10.5 34.5t-5.5 47.5l23 115q14 29 31.5 52.5t37.5 44.5l42 44q43 42 103 54.5t122 3t119.5 -37t96.5 -64.5l21 -21l-117 -163l-28 34q-26 30 -57 46.5t-67 16.5l-58 -17l-39 -32l-30 -41l-4 -58l4 -48l30 -41l65 -39l85 -17h216v-195 h-752zM-51 1353q81 -96 137.5 -186.5t93.5 -179.5t58.5 -179.5t32.5 -187.5t15.5 -202.5t7.5 -225.5h315q0 183 -10 344.5t-42.5 304.5t-94.5 270t-165 242h-348zM127 75h630v1278h315v-1278h126q-27 -1 -42 -14.5t-15 -36.5v-210q0 -22 15 -33.5t42 -16.5h-1071v311z" />
<glyph unicode="&#xfedf;&#xfe88;" horiz-adv-x="1201" arabic-form="isolated" d="M-48 1353q81 -96 137.5 -186.5t93.5 -179.5t58.5 -179.5t32.5 -187.5t15.5 -202.5t7.5 -225.5h315q0 183 -10 344.5t-42.5 304.5t-94.5 270t-165 242h-348zM130 75h630v1278h315v-1589h-945v311zM152 -848v-192h753v192h-214l-89 16l-62 43l-30 40l-5 46l5 58l30 39 l41 37l54 14q38 0 67.5 -16t55.5 -47l29 -34l118 165l-21 19q-39 37 -97 64.5t-120 36.5t-122 -3.5t-103 -54.5l-42 -43q-21 -21 -37 -44.5t-30 -49.5l-22 -118q0 -26 4.5 -46.5t10.5 -34.5l34 -87h-208z" />
<glyph unicode="&#xfee0;&#xfe88;" horiz-adv-x="1146" arabic-form="final" d="M-46 1353h348q103 -115 165 -242t94.5 -270t42.5 -304.5t10 -344.5h-315q-3 120 -7.5 225.5t-15.5 202.5t-32.5 187.5t-58.5 179.5t-93.5 179.5t-137.5 186.5zM-22 1354l16 -28zM132 75h630v1278h315v-1278h126q-27 -1 -42 -14.5t-15 -36.5v-210q0 -22 15 -33.5t42 -16.5 h-1071v311zM157 -847h208l-34 87q-6 14 -10.5 34.5t-4.5 46.5l22 118q14 26 30 49.5t37 44.5l42 43q43 42 103 54.5t122 3.5t120 -36.5t97 -64.5l21 -19l-118 -165l-29 34q-26 31 -55.5 47t-67.5 16l-54 -14l-41 -37l-30 -39l-5 -58l5 -46l30 -40l62 -43l89 -16h214v-192 h-753v192z" />
<glyph unicode="&#xfedf;&#xfe8e;" horiz-adv-x="1198" arabic-form="isolated" d="M-48 1353q81 -96 137.5 -186.5t93.5 -179.5t58.5 -179.5t32.5 -187.5t15.5 -202.5t7.5 -225.5h315q0 183 -10 344.5t-42.5 304.5t-94.5 270t-165 242h-348zM130 75h630v1278h315v-1589h-945v311z" />
<glyph unicode="&#xfee0;&#xfe8e;" horiz-adv-x="1160" arabic-form="final" d="M-32 1353h348q103 -115 165 -242t94.5 -270t42.5 -304.5t10 -344.5h-315q-3 120 -7.5 225.5t-15.5 202.5t-32.5 187.5t-58.5 179.5t-93.5 179.5t-137.5 186.5zM146 75h630v1278h315v-1278h126q-27 -1 -42 -14.5t-15 -36.5v-210q0 -22 15 -33.5t42 -16.5h-1071v311z" />
<glyph unicode="&#xfcf4;" horiz-adv-x="532" arabic-form="medial" d="M6 1047q83 44 145 87t106 81q-45 60 -45 119q0 36 13.5 68t36.5 56t55 38t68 14q34 0 65.5 -13.5t55.5 -36.5t38 -53.5t14 -64.5q0 -35 -24 -72t-75 -74l58 -58l-95 -78l-67 68q-12 -9 -35 -26.5t-58 -41.5q-54 -38 -100 -65.5t-84 -46.5zM342 1342q0 -10 5 -21.5 t19 -25.5l6 -14q27 17 41.5 33t14.5 28q0 48 -46 48q-40 0 -40 -48z" />
<glyph unicode="&#xfe70;" arabic-form="isolated" d="M-62 1530v122h572v-122h-572zM-62 1773v128h572v-128h-572z" />
<glyph unicode="&#xfe71;" horiz-adv-x="669" arabic-form="medial" d="M-62 1000v122h572v-122h-572zM-62 1243v128h572v-128h-572z" />
<glyph unicode="&#xfe72;" horiz-adv-x="469" arabic-form="isolated" d="M-60 1508l63 126q25 48 50.5 73t58.5 25q27 0 49.5 -22t40 -48.5t29.5 -48.5t18 -22h3q8 2 10.5 2.5t4.5 0.5l48 35q-26 32 -38 62t-12 60q0 36 14 68.5t38 57.5t55.5 40t67.5 15q35 0 66 -15t54 -39.5t36.5 -55t13.5 -60.5q0 -85 -95 -153l64 -55l-104 -80l-66 67 q-15 -8 -41.5 -28.5t-73.5 -52.5l-40 -16q-2 -4 -8.5 -4.5t-14.5 -0.5q-26 0 -49 20t-41 44t-29.5 44t-14.5 20q0 -2 -0.5 -4.5t-2.5 -6.5l-10 -28l-43 -78zM396 1762q0 -12 6 -26t20 -25l8 -13q28 17 42 34.5t14 31.5q0 20 -10.5 30t-35.5 10q-44 0 -44 -42z" />
<glyph unicode="&#xfe74;" arabic-form="isolated" d="M-66 -259h574v-128h-574v128zM-66 -509h574v-122h-574v122z" />
<glyph unicode="&#xfe76;" arabic-form="isolated" d="M-75 1455v129h579v-129h-579z" />
<glyph unicode="&#xfe78;" horiz-adv-x="414" arabic-form="isolated" d="M-53 1535q83 44 145 87t106 81q-45 60 -45 119q0 36 13.5 68t36.5 56t55 38t68 14q34 0 65.5 -13.5t55.5 -36.5t38 -53.5t14 -64.5q0 -35 -24 -72t-75 -74l58 -58l-95 -78l-67 68q-12 -9 -35 -26.5t-58 -41.5q-54 -38 -100 -65.5t-84 -46.5zM283 1830q0 -10 5 -21.5 t19 -25.5l6 -14q27 17 41.5 33t14.5 28q0 48 -46 48q-40 0 -40 -48z" />
<glyph unicode="&#xfe7a;" arabic-form="isolated" d="M-89 -767h574v-128h-574v128z" />
<glyph unicode="&#xfe7c;" horiz-adv-x="0" arabic-form="isolated" d="M-28 1523v199h130v-183q0 -13 2.5 -20t6.5 -10t8.5 -3.5t9.5 -0.5t12.5 3.5t14.5 11.5t12 21t5 33v148h126v-148q0 -20 5 -33t13 -21t17.5 -11.5t18.5 -3.5q6 0 10 4q4 3 7 10t3 20v183h130v-199q0 -22 -6 -46.5t-21.5 -45.5t-43.5 -35t-72 -14q-15 0 -32 4.5t-33.5 13.5 t-30.5 22.5t-23 31.5q-9 -18 -24.5 -31.5t-33 -22.5t-35.5 -13.5t-33 -4.5q-33 0 -59 13t-45 33.5t-29 45.5t-10 49z" />
<glyph unicode="&#xfe7e;" horiz-adv-x="0" arabic-form="isolated" d="M-41 1518q1 36 15.5 68.5t38.5 57t56 38.5t68 14t68 -14t56 -38.5t38 -57t14 -68.5t-14 -68t-38 -56t-56 -37.5t-68 -13.5q-38 0 -70.5 14t-56.5 38t-37.5 56t-13.5 67zM87 1523q0 -51 45 -51q51 0 51 46q0 49 -51 49q-45 0 -45 -44z" />
<glyph unicode="&#xfe7f;" horiz-adv-x="3244" arabic-form="medial" d="M182 -300v1729h2881v-1729h-2881zM251 470l4 -82q0 -40 2 -69.5t7 -52.5q8 -25 18 -43t26 -33q16 -16 33.5 -26.5t40.5 -15.5q24 -7 58 -11.5t77 -4.5h164q45 0 77.5 4.5t55.5 11.5q50 11 74 42q15 15 25.5 33t17.5 43q8 23 10 52.5t2 69.5v338h-426l-135 -16 q-23 -5 -42.5 -16.5t-31.5 -25.5q-16 -16 -26 -33.5t-18 -39.5q-5 -25 -9 -56t-4 -69zM303 919q0 -55 21 -71q7 -8 14.5 -11.5t15.5 -5.5l51 -4h64l53 4q8 2 15.5 5.5t12.5 11.5q20 17 20 71v124h-165l-51 -7q-19 -3 -30 -14q-21 -17 -21 -71v-32zM520 399v78q0 45 18 65 l18 13l42 5h78v-161q7 -47 -16 -67q-2 -3 -8 -7t-13 -6l-39 -5l-44 5q-5 2 -10.5 6t-7.5 7q-18 20 -18 67zM674 951l2 -32q-2 -28 4 -45.5t17 -25.5q7 -8 14 -11.5t16 -5.5l53 -4h59l56 4q8 2 15 5.5t12 11.5q24 16 21 71v124h-166l-50 -7l-30 -14q-23 -18 -23 -71zM883 68 q30 -23 83 -44q28 -11 59 -17t67 -6q60 2 102 14t66 32q50 44 58 85h1021q45 0 79.5 4.5t58.5 11.5q44 10 71 42q28 29 42 76q13 43 13 122v552h-266v-516q3 -50 -19 -64q-3 -5 -10 -9t-15 -7l-44 -2h-135q19 10 35.5 29.5t30.5 43.5q16 24 23 58t9 76q0 73 -50 124 q-28 26 -71 39.5t-106 13.5h-515v-253h423q19 0 31.5 -3.5t23.5 -10.5q16 -17 16 -39q0 -16 -6.5 -28.5t-18.5 -24.5q-22 -25 -67 -25h-543v384h-267v-451q-2 -29 -6.5 -54.5t-11.5 -44.5q-8 -19 -19 -34.5t-27 -27.5q-14 -12 -30.5 -22t-36.5 -17l-23 -5zM2718 132h265v808 h-265v-808z" />
<glyph unicode="&#x621;" horiz-adv-x="1424" arabic-form="isolated" d="M115 75h327l-54 134q-8 21 -17 54t-9 77l38 183q21 46 48 82.5t60 68.5l66 70q67 67 162 86.5t193.5 5t190.5 -58t153 -103.5l33 -32l-186 -258l-44 55q-40 45 -89 71.5t-109 26.5l-89 -25l-63 -52l-47 -66l-8 -89l8 -78l47 -65l103 -62l134 -25h343v-311h-1191v311z" />
<glyph unicode="&#x622;" horiz-adv-x="736" arabic-form="isolated" d="M-262 1782q7 63 13 115t20 96q11 41 26 79t38 65q12 14 21.5 24t18.5 17.5t18 14t21 13.5q34 16 63.5 23.5t64.5 7.5q51 0 105 -17.5t115 -49.5l281 -172q24 -14 47 -19.5t43 -5.5q49 0 69 38q15 14 20 36t5 46v77h211q4 -23 4 -50t-3.5 -55t-9 -55.5t-12.5 -49.5 q-14 -34 -29.5 -65t-39.5 -57t-47.5 -49.5t-46.5 -37.5q-34 -15 -64 -22.5t-65 -7.5q-51 0 -105 17.5t-114 50.5l-297 197q-23 18 -58 18q-24 0 -39.5 -9.5t-32.5 -34.5q-14 -23 -22 -49t-8 -58v-71h-211zM265 -235v1601h310v-1601h-310z" />
<glyph unicode="&#x622;" horiz-adv-x="603" arabic-form="final" d="M-370 1780q7 63 13 115t20 96q11 41 26 79t38 65q12 14 21.5 24t18.5 17.5t18 14t21 13.5q34 16 63.5 23.5t64.5 7.5q51 0 105 -17.5t115 -49.5l281 -172q24 -14 47 -19.5t43 -5.5q49 0 69 38q15 14 20 36t5 46v77h211q4 -23 4 -50t-3.5 -55t-9 -55.5t-12.5 -49.5 q-14 -34 -29.5 -65t-39.5 -57t-47.5 -49.5t-46.5 -37.5q-34 -15 -64 -22.5t-65 -7.5q-51 0 -105 17.5t-114 50.5l-297 197q-23 18 -58 18q-24 0 -39.5 -9.5t-32.5 -34.5q-14 -23 -22 -49t-8 -58v-71h-211zM157 -236v1615h310v-1304h191q-29 0 -42 -13.5t-13 -37.5v-205 q0 -24 13.5 -39.5t46.5 -15.5h-506z" />
<glyph unicode="&#x623;" horiz-adv-x="802" arabic-form="isolated" d="M18 1500v192h208l-34 87q-6 14 -10.5 34.5t-4.5 46.5l22 118q14 26 30 49.5t37 44.5l42 43q43 42 103 54.5t122 3.5t120 -36.5t97 -64.5l21 -19l-118 -165l-29 34q-26 31 -55.5 47t-67.5 16l-54 -14l-41 -37l-30 -39l-5 -58l5 -46l30 -40l62 -43l89 -16h214v-192h-753z M273 -236v1608h310v-1608h-310z" />
<glyph unicode="&#x623;" horiz-adv-x="719" arabic-form="final" d="M18 1500v192h208l-34 87q-6 14 -10.5 34.5t-4.5 46.5l22 118q14 26 30 49.5t37 44.5l42 43q43 42 103 54.5t122 3.5t120 -36.5t97 -64.5l21 -19l-118 -165l-29 34q-26 31 -55.5 47t-67.5 16l-54 -14l-41 -37l-30 -39l-5 -58l5 -46l30 -40l62 -43l89 -16h214v-192h-753z M273 -236v1615h311v-1304h191q-30 0 -43 -13.5t-13 -37.5v-205q0 -24 13.5 -39.5t46.5 -15.5h-506z" />
<glyph unicode="&#x624;" horiz-adv-x="1264" arabic-form="isolated" d="M28 347l23 161q11 37 25 70t37 66l90 115l115 92l142 60l161 23h19l202 -30q54 -14 99.5 -39.5t87.5 -61.5q34 -33 63.5 -67.5t53.5 -84.5q56 -94 73 -216l12 -152l-12 -207q-15 -64 -25.5 -103t-19.5 -69.5t-20 -61t-27 -77.5l-142 -276q-47 -72 -103.5 -146 t-131.5 -157l-264 207l179 200q36 47 70.5 96t58.5 99l-154 -23h-32q-56 5 -112.5 16.5t-108.5 27.5q-52 19 -99 45.5t-78 62.5q-49 40 -81 87.5t-53 103.5q-27 56 -37.5 114.5t-10.5 124.5zM228 1230v196h209l-39 83q-5 15 -9 34.5t-4 45.5l20 120q16 26 33 48.5t34 43.5 l48 41q28 29 64 44t76 19t81.5 -2.5t80.5 -20.5t73.5 -35t59.5 -46l18 -21l-112 -165l-28 39q-26 29 -55 45.5t-71 16.5l-56 -16l-36 -35l-35 -41l-5 -58l5 -46l35 -39l64 -44l87 -11h207v-196h-745zM359 347q0 -57 21 -106q8 -29 25 -52t46 -37q12 -16 28.5 -28t47.5 -16 l99 -21l81 -7h55l131 21l16 140l-16 106q-5 35 -11 63t-21 59l-58 81q-12 15 -31.5 28.5t-51.5 21.5l-99 28l-112 -28q-26 -8 -45 -21.5t-38 -28.5l-46 -88z" />
<glyph unicode="&#x624;" horiz-adv-x="1264" arabic-form="final" d="M27 351l23 156q11 38 26 73t34 67l92 118l115 89l147 62l161 21h18l198 -28q59 -14 106 -40.5t85 -62.5q35 -31 65.5 -69t54.5 -83q26 -48 46 -101.5t25 -112.5l12 -158l-12 -207h99q-28 0 -43 -15.5t-15 -40.5v-202q0 -23 10 -35.5t36 -17.5h-177l-142 -276 q-49 -75 -107 -150.5t-130 -155.5l-262 207l179 200q35 47 66.5 97.5t57.5 95.5l-152 -18h-36q-54 5 -110.5 14t-108.5 25q-54 21 -99 47.5t-80 63.5q-49 43 -80.5 89.5t-50.5 105.5q-26 57 -38.5 114t-12.5 128zM227 1236v193h207l-34 85q-5 14 -9.5 34.5t-4.5 48.5l23 115 q14 28 30.5 52t36.5 47l43 39q43 42 102.5 55t122 4t120 -35.5t97.5 -62.5l21 -23l-118 -168l-30 37q-26 31 -56 47.5t-68 16.5l-53 -16l-39 -37l-32 -41l-5 -53l5 -48l32 -39l60 -44l87 -14h217v-193h-755zM356 351q0 -32 6 -59.5t17 -53.5t28.5 -50t45.5 -40 q14 -16 30.5 -25.5t42.5 -13.5l104 -23l80 -7h51l135 23l19 136l-19 113q-5 31 -10.5 60.5t-21.5 54.5l-57 82q-30 36 -83 56l-99 20l-113 -20q-26 -11 -45.5 -25t-39.5 -31l-48 -89z" />
<glyph unicode="&#x625;" horiz-adv-x="640" arabic-form="isolated" d="M-101 -848v-192h753v192h-214l-89 16l-62 43l-30 40l-5 46l5 58l30 39l41 37l54 14q38 0 67.5 -16t55.5 -47l29 -34l118 165l-21 19q-39 37 -97 64.5t-120 36.5t-122 -3.5t-103 -54.5l-42 -43q-21 -21 -37 -44.5t-30 -49.5l-22 -118q0 -26 4.5 -46.5t10.5 -34.5l34 -87 h-208zM157 -237v1613h310v-1613h-310z" />
<glyph unicode="&#x625;" horiz-adv-x="620" arabic-form="final" d="M-80 -846v-192h753v192h-214l-89 16l-62 43l-30 40l-5 46l5 58l30 39l41 37l54 14q38 0 67.5 -16t55.5 -47l29 -34l118 165l-21 19q-39 37 -97 64.5t-120 36.5t-122 -3.5t-103 -54.5l-42 -43q-21 -21 -37 -44.5t-30 -49.5l-22 -118q0 -26 4.5 -46.5t10.5 -34.5l34 -87 h-208zM174 -235v1614h311v-1304h191q-30 0 -43 -13t-13 -37v-205q0 -24 13.5 -39.5t46.5 -15.5h-506z" />
<glyph unicode="&#x626;" horiz-adv-x="2589" arabic-form="isolated" d="M139 348q-4 -60 5 -116.5t34 -113.5q23 -52 50.5 -97.5t64.5 -88.5q43 -37 87.5 -66t96.5 -52q52 -22 103.5 -36t112.5 -14h1256v701q-1 72 37 107.5t126 25.5v-834h315v1134h-467q-147 1 -225.5 -59t-100.5 -216v-549h-941l-92 21q-24 9 -43 22.5t-40 32.5 q-14 14 -27 36.5t-21 46.5q-21 45 -21 108l21 108q8 24 21 45.5t27 35.5q14 19 36.5 32.5t46.5 22.5l92 18v309q-61 0 -112.5 -10.5t-103.5 -31.5q-52 -23 -96.5 -50.5t-87.5 -59.5q-37 -37 -64.5 -83.5t-50.5 -98.5q-20 -51 -29.5 -106.5t-9.5 -123.5zM817 1071v196h207 l-34 85q-5 14 -11 34.5t-6 47.5l23 115q14 30 31.5 53t37.5 44l42 44q43 42 103 54.5t122 3t119.5 -37t96.5 -64.5l21 -21l-117 -163l-28 35q-26 29 -57 45.5t-67 16.5l-57 -16l-40 -33l-29 -41l-5 -58l5 -48l29 -41l65 -39l85 -16h216v-196h-752z" />
<glyph unicode="&#x626;" horiz-adv-x="2486" arabic-form="final" d="M145 348q-4 -60 5.5 -116.5t33.5 -113.5q23 -52 50.5 -97.5t64.5 -88.5q43 -36 87.5 -65t96.5 -52t103.5 -37t112.5 -14h1256v702q-1 75 37 110.5t126 25.5v-838h428q-36 0 -50.5 15.5t-9.5 39.5v203q-5 24 9.5 38.5t50.5 14.5h-113v823h-467q-147 -1 -225.5 -61 t-100.5 -228v-534h-941l-92 20q-24 9 -43 22.5t-40 32.5q-14 14 -27 36.5t-21 46.5q-21 45 -21 108l21 108q8 25 21 46t27 35q14 19 36.5 33t46.5 22l92 19v308q-61 0 -112.5 -10.5t-103.5 -31.5q-52 -23 -96.5 -50t-87.5 -60q-37 -36 -64.5 -83t-50.5 -99 q-20 -50 -29.5 -106t-9.5 -124zM819 1070v196h207l-35 85q-5 14 -10.5 34.5t-5.5 48.5l23 115q14 29 31 52.5t38 43.5l41 44q43 42 103 54.5t122 3t120 -37t97 -64.5l21 -20l-118 -164l-27 35q-26 29 -57 45.5t-67 16.5l-58 -16l-39 -32l-30 -42l-5 -57l5 -48l30 -42l64 -39 l85 -16h217v-196h-752z" />
<glyph unicode="&#x626;" horiz-adv-x="800" arabic-form="initial" d="M-69 20q0 28 16.5 41.5t52.5 13.5h313v874h331v-1184h-644q-36 0 -52.5 13.5t-16.5 39.5v202zM78 1076v195h207l-34 85q-5 14 -11 34.5t-6 48.5l23 115q14 29 31.5 52.5t37.5 44.5l42 43q43 42 103 54.5t122 3.5t119.5 -36.5t96.5 -64.5l21 -21l-117 -163l-28 34 q-26 29 -57 45.5t-67 16.5l-57 -16l-40 -32l-29 -41l-5 -58l5 -48l29 -42l65 -39l85 -16h216v-195h-752z" />
<glyph unicode="&#x626;" horiz-adv-x="795" arabic-form="medial" d="M-63 25q0 24 8.5 34.5t28.5 15.5h306v840h310v-840h267q-33 0 -47.5 -13t-14.5 -37v-210q0 -24 14.5 -35.5t47.5 -14.5h-858q-33 0 -47.5 13t-14.5 37v210zM34 1076v195h207l-35 85q-5 14 -10.5 34.5t-5.5 48.5l23 115q14 29 31 52.5t38 44.5l41 43q43 42 103 54.5 t122.5 3.5t120 -36.5t96.5 -64.5l21 -21l-118 -163l-27 34q-26 29 -57 45.5t-67 16.5l-58 -16l-39 -32l-30 -41l-5 -58l5 -48l30 -42l64 -39l85 -16h217v-195h-752z" />
<glyph unicode="&#x627;" horiz-adv-x="600" arabic-form="isolated" d="M143 -235v1613h311v-1613h-311z" />
<glyph unicode="&#x627;" horiz-adv-x="574" arabic-form="final" d="M128 -235v1614h310v-1304h191q-29 0 -42 -13t-13 -37v-205q0 -24 13.5 -39.5t46.5 -15.5h-506z" />
<glyph unicode="&#x628;" horiz-adv-x="2274" arabic-form="isolated" d="M149 349q0 68 9.5 123.5t29.5 106.5q23 52 50.5 98.5t64.5 83.5q43 32 87.5 59.5t96.5 50.5q52 21 103.5 31.5t112.5 10.5v-309l-92 -18q-24 -9 -46.5 -22.5t-36.5 -32.5q-14 -14 -27 -35.5t-21 -45.5l-21 -108q0 -63 21 -108q8 -24 21 -46.5t27 -36.5q21 -19 40 -32.5 t43 -22.5l92 -21h1115v824h304v-1134h-1419q-61 0 -112.5 14t-103.5 36q-52 23 -96.5 52t-87.5 66q-37 43 -64.5 88.5t-50.5 97.5q-25 57 -34 113.5t-5 116.5zM1111 -560q4 35 19 65t38.5 52.5t54 35.5t66.5 13t68 -13.5t56 -37t38 -56t16 -71.5q1 -39 -13 -73t-39 -59.5 t-58.5 -40t-71.5 -13.5q-38 0 -71.5 15.5t-57.5 42t-36.5 62.5t-8.5 78z" />
<glyph unicode="&#x628;" horiz-adv-x="2135" arabic-form="final" d="M159 349q0 68 10 123.5t29 106.5q23 52 51 98.5t64 83.5q44 32 88 59.5t96 50.5q52 21 104 31.5t113 10.5v-309l-92 -18q-25 -9 -47 -22.5t-36 -32.5q-14 -14 -27 -35.5t-21 -45.5l-21 -108q0 -63 21 -108q8 -24 21 -46.5t27 -36.5q20 -19 39 -32.5t44 -22.5l92 -21h1115 v824h304v-824h64q-33 0 -47.5 -13t-14.5 -37v-210q0 -24 14.5 -35.5t47.5 -14.5h-1483q-61 0 -113 14t-104 36q-52 23 -96 52t-88 66q-71 84 -115 186q-24 57 -33 113.5t-6 116.5zM1118 -560q4 35 19 65t38.5 52.5t54 35.5t66.5 13t68 -13.5t56 -37t38 -56t16 -71.5 q1 -39 -13 -73t-39 -59.5t-58.5 -40t-71.5 -13.5q-38 0 -71.5 15.5t-57.5 42t-36.5 62.5t-8.5 78z" />
<glyph unicode="&#x628;" horiz-adv-x="780" arabic-form="initial" d="M-75 20q0 28 20 41.5t56 13.5h299v854h320v-1164h-619q-36 0 -56 13.5t-20 39.5v202zM260 -580q4 35 19 66t39 53.5t55 35.5t67 13q37 0 69 -13.5t56 -37.5t38.5 -57t16.5 -72q1 -39 -13 -73.5t-39.5 -60t-59.5 -40.5t-72 -14q-38 0 -72 15.5t-58 42.5t-37 63.5t-9 78.5z " />
<glyph unicode="&#x628;" horiz-adv-x="797" arabic-form="medial" d="M-61 24q0 25 8.5 35.5t28.5 15.5h306v839h310v-839h267q-33 0 -47.5 -13t-14.5 -38v-209q0 -24 14.5 -35.5t47.5 -15.5h-858q-33 0 -47.5 13.5t-14.5 37.5v209zM247 -572q4 35 19 65t38.5 52.5t54 35.5t66.5 13t68 -13.5t56 -37t38 -56t16 -71.5q1 -39 -13 -73t-39 -59.5 t-58.5 -40t-71.5 -13.5q-38 0 -71.5 15.5t-57.5 42t-36.5 62.5t-8.5 78z" />
<glyph unicode="&#x629;" horiz-adv-x="1430" arabic-form="isolated" d="M126 360q0 79 21.5 153.5t60 139t92.5 118.5t119.5 92t140 58.5t155.5 20.5q124 -1 231 -47t186 -125.5t124 -185.5t45 -226q1 -121 -44 -229t-124 -189t-186 -128.5t-230 -47.5q-122 0 -229.5 47.5t-188 129t-127.5 189.5t-46 230zM343 1255q4 35 19 66t39 53.5t55 35.5 t67 13q37 0 69 -13.5t56 -37.5t38.5 -57t16.5 -72q1 -39 -13 -73.5t-39.5 -60t-59.5 -40.5t-72 -14q-38 0 -72 15.5t-58 42.5t-37 63.5t-9 78.5zM436 346q0 -58 23.5 -108.5t63.5 -87.5t92 -57.5t109 -17.5q63 2 115 28.5t89 69t55.5 96.5t14.5 112q-7 52 -30.5 99t-59.5 82 t-83 55.5t-101 20.5q-60 1 -112.5 -22t-91.5 -62.5t-61.5 -93.5t-22.5 -114zM766 1253q4 35 19 66t39 53.5t55 35.5t67 13q37 0 69 -13.5t56 -37.5t38.5 -57t16.5 -72q1 -39 -13 -73.5t-39.5 -60t-59.5 -40.5t-72 -14q-38 0 -72 15.5t-58 42.5t-37 63.5t-9 78.5z" />
<glyph unicode="&#x629;" horiz-adv-x="1322" arabic-form="final" d="M159 77q10 96 42 194t83 189.5t118 173t146.5 145.5t170.5 107t189 57t202 -5t209 -78v-785h65q-33 0 -47.5 -13t-14.5 -38v-209q0 -24 14.5 -35.5t47.5 -14.5h-1225v312zM504 75h508v532q-75 10 -138.5 -8.5t-117 -57.5t-95.5 -94t-73.5 -117.5t-52.5 -128.5t-31 -126z M525 1253q4 35 19 66t39 53.5t55 35.5t67 13q37 0 69 -13.5t56 -37.5t38.5 -57t16.5 -72q1 -39 -13 -73.5t-39.5 -60t-59.5 -40.5t-72 -14q-38 0 -72 15.5t-58 42.5t-37 63.5t-9 78.5zM948 1251q4 35 19 66t39 53.5t55 35.5t67 13q37 0 69 -13.5t56 -37.5t38.5 -57t16.5 -72 q1 -39 -13 -73.5t-39.5 -60t-59.5 -40.5t-72 -14q-38 0 -72 15.5t-58 42.5t-37 63.5t-9 78.5z" />
<glyph unicode="&#x62a;" horiz-adv-x="2227" arabic-form="isolated" d="M126 349q0 68 9.5 123.5t29.5 106.5q23 52 50.5 98.5t64.5 83.5q43 32 87.5 59.5t96.5 50.5q52 21 103.5 31t112.5 10v-308l-92 -18q-24 -9 -46.5 -22.5t-36.5 -32.5q-14 -14 -27 -35.5t-21 -45.5l-21 -108q0 -63 21 -108q8 -24 21 -46.5t27 -36.5q21 -19 40 -33t43 -22 l92 -21h1115v824h304v-1134h-1419q-61 0 -112.5 13.5t-103.5 36.5t-96.5 52t-87.5 66q-37 43 -64.5 88.5t-50.5 97.5q-25 57 -34 113t-5 117zM852 763q4 35 19 66t39 53.5t55 35.5t67 13q37 0 69 -13.5t56 -37.5t38.5 -57t16.5 -72q1 -39 -13 -73.5t-39.5 -60t-59.5 -40.5 t-72 -14q-38 0 -72 15.5t-58 42.5t-37 63.5t-9 78.5zM1275 761q4 35 19 66t39 53.5t55 35.5t67 13q37 0 69 -13.5t56 -37.5t38.5 -57t16.5 -72q1 -39 -13 -73.5t-39.5 -60t-59.5 -40.5t-72 -14q-38 0 -72 15.5t-58 42.5t-37 63.5t-9 78.5z" />
<glyph unicode="&#x62a;" horiz-adv-x="2105" arabic-form="final" d="M129 348q0 68 10 124t29 106q23 52 51 99t64 83q44 33 88 60t96 50q52 21 104 31.5t113 10.5v-308l-92 -19q-25 -8 -47 -22t-36 -33q-14 -14 -27 -35t-21 -46l-21 -108q0 -63 21 -108q8 -24 21 -46.5t27 -36.5q20 -19 39 -32.5t44 -22.5l92 -20h1115v823h304v-823h64 q-33 0 -47.5 -13.5t-14.5 -37.5v-209q0 -25 14.5 -36t47.5 -15h-1483q-61 0 -113 14t-104 37t-96 52t-88 65q-71 84 -115 186q-24 57 -33 113.5t-6 116.5zM852 746q4 35 19 66t39 53.5t55 35.5t67 13q37 0 69 -13.5t56 -37.5t38.5 -57t16.5 -72q1 -39 -13 -73.5t-39.5 -60 t-59.5 -40.5t-72 -14q-38 0 -72 15.5t-58 42.5t-37 63.5t-9 78.5zM1275 744q4 35 19 66t39 53.5t55 35.5t67 13q37 0 69 -13.5t56 -37.5t38.5 -57t16.5 -72q1 -39 -13 -73.5t-39.5 -60t-59.5 -40.5t-72 -14q-38 0 -72 15.5t-58 42.5t-37 63.5t-9 78.5z" />
<glyph unicode="&#x62a;" horiz-adv-x="748" arabic-form="initial" d="M-76 20q0 28 20 41.5t56 13.5h299v853h320v-1164h-619q-36 0 -56 13.5t-20 39.5v203zM19 1254q4 35 19 66t39 53.5t55 35.5t67 13q37 0 69 -13.5t56 -37.5t38.5 -57t16.5 -72q1 -39 -13 -73.5t-39.5 -60t-59.5 -40.5t-72 -14q-38 0 -72 15.5t-58 42.5t-37 63.5t-9 78.5z M442 1252q4 35 19 66t39 53.5t55 35.5t67 13q37 0 69 -13.5t56 -37.5t38.5 -57t16.5 -72q1 -39 -13 -73.5t-39.5 -60t-59.5 -40.5t-72 -14q-38 0 -72 15.5t-58 42.5t-37 63.5t-9 78.5z" />
<glyph unicode="&#x62a;" horiz-adv-x="795" arabic-form="medial" d="M-64 23q0 25 8.5 35.5t28.5 15.5h306v839h310v-839h267q-33 0 -47.5 -13t-14.5 -38v-209q0 -24 14.5 -35.5t47.5 -15.5h-858q-33 0 -47.5 13.5t-14.5 37.5v209zM19 1254q4 35 19 66t39 53.5t55 35.5t67 13q37 0 69 -13.5t56 -37.5t38.5 -57t16.5 -72q1 -39 -13 -73.5 t-39.5 -60t-59.5 -40.5t-72 -14q-38 0 -72 15.5t-58 42.5t-37 63.5t-9 78.5zM442 1252q4 35 19 66t39 53.5t55 35.5t67 13q37 0 69 -13.5t56 -37.5t38.5 -57t16.5 -72q1 -39 -13 -73.5t-39.5 -60t-59.5 -40.5t-72 -14q-38 0 -72 15.5t-58 42.5t-37 63.5t-9 78.5z" />
<glyph unicode="&#x62b;" horiz-adv-x="2231" arabic-form="isolated" d="M130 347q0 68 9.5 124t29.5 106q23 52 50.5 99t64.5 83q43 33 87.5 60t96.5 50q52 21 103.5 31.5t112.5 10.5v-308l-92 -19q-24 -8 -46.5 -22t-36.5 -33q-14 -14 -27 -35t-21 -46l-21 -108q0 -63 21 -108q8 -24 21 -46.5t27 -36.5q21 -19 40 -32.5t43 -22.5l92 -20h1115 v823h304v-1134h-1419q-61 0 -112.5 14t-103.5 37t-96.5 52t-87.5 65q-37 43 -64.5 88.5t-50.5 97.5q-25 57 -34 113.5t-5 116.5zM858 742q4 35 19 66t39 53.5t55 35.5t67 13q37 0 69 -13.5t56 -37.5t38.5 -57t16.5 -72q1 -39 -13 -73.5t-39.5 -60t-59.5 -40.5t-72 -14 q-38 0 -72 15.5t-58 42.5t-37 63.5t-9 78.5zM1073 1114q4 35 19 66t39 53.5t55 35.5t67 13q37 0 69 -13.5t56 -37.5t38.5 -57t16.5 -72q1 -39 -13 -73.5t-39.5 -60t-59.5 -40.5t-72 -14q-38 0 -72 15.5t-58 42.5t-37 63.5t-9 78.5zM1281 740q4 35 19 66t39 53.5t55 35.5 t67 13q37 0 69 -13.5t56 -37.5t38.5 -57t16.5 -72q1 -39 -13 -73.5t-39.5 -60t-59.5 -40.5t-72 -14q-38 0 -72 15.5t-58 42.5t-37 63.5t-9 78.5z" />
<glyph unicode="&#x62b;" horiz-adv-x="2102" arabic-form="final" d="M126 349q0 67 10 123t29 107q23 52 51 98.5t64 82.5q44 33 88 60.5t96 50.5q52 20 104 30.5t113 10.5v-308l-92 -18q-25 -9 -47 -22.5t-36 -33.5q-14 -14 -27 -35t-21 -45l-21 -108q0 -63 21 -108q8 -24 21 -46.5t27 -36.5q20 -19 39 -33t44 -22l92 -21h1115v823h304 v-823h64q-33 0 -47.5 -13t-14.5 -38v-209q0 -24 14.5 -35.5t47.5 -14.5h-1483q-61 0 -113 13.5t-104 36.5t-96 52t-88 65q-71 86 -115 187q-24 57 -33 113t-6 117zM858 742q4 35 19 66t39 53.5t55 35.5t67 13q37 0 69 -13.5t56 -37.5t38.5 -57t16.5 -72q1 -39 -13 -73.5 t-39.5 -60t-59.5 -40.5t-72 -14q-38 0 -72 15.5t-58 42.5t-37 63.5t-9 78.5zM1073 1114q4 35 19 66t39 53.5t55 35.5t67 13q37 0 69 -13.5t56 -37.5t38.5 -57t16.5 -72q1 -39 -13 -73.5t-39.5 -60t-59.5 -40.5t-72 -14q-38 0 -72 15.5t-58 42.5t-37 63.5t-9 78.5zM1281 740 q4 35 19 66t39 53.5t55 35.5t67 13q37 0 69 -13.5t56 -37.5t38.5 -57t16.5 -72q1 -39 -13 -73.5t-39.5 -60t-59.5 -40.5t-72 -14q-38 0 -72 15.5t-58 42.5t-37 63.5t-9 78.5z" />
<glyph unicode="&#x62b;" horiz-adv-x="745" arabic-form="initial" d="M-75 19q0 56 76 56h299v853h319v-1164h-618q-76 0 -76 53v202zM19 1254q4 35 19 66t39 53.5t55 35.5t67 13q37 0 69 -13.5t56 -37.5t38.5 -57t16.5 -72q1 -39 -13 -73.5t-39.5 -60t-59.5 -40.5t-72 -14q-38 0 -72 15.5t-58 42.5t-37 63.5t-9 78.5zM235 1617q4 35 19 66 t39 53.5t55 35.5t67 13q37 0 69 -13.5t56 -37.5t38.5 -57t16.5 -72q1 -39 -13 -73.5t-39.5 -60t-59.5 -40.5t-72 -14q-38 0 -72 15.5t-58 42.5t-37 63.5t-9 78.5zM442 1252q4 35 19 66t39 53.5t55 35.5t67 13q37 0 69 -13.5t56 -37.5t38.5 -57t16.5 -72q1 -39 -13 -73.5 t-39.5 -60t-59.5 -40.5t-72 -14q-38 0 -72 15.5t-58 42.5t-37 63.5t-9 78.5z" />
<glyph unicode="&#x62b;" horiz-adv-x="796" arabic-form="medial" d="M-62 24q0 24 8.5 35t28.5 16h305v839h311v-839h267q-33 0 -47.5 -13.5t-14.5 -37.5v-209q0 -24 14.5 -35.5t47.5 -15.5h-858q-33 0 -47.5 13.5t-14.5 37.5v209zM19 1254q4 35 19 66t39 53.5t55 35.5t67 13q37 0 69 -13.5t56 -37.5t38.5 -57t16.5 -72q1 -39 -13 -73.5 t-39.5 -60t-59.5 -40.5t-72 -14q-38 0 -72 15.5t-58 42.5t-37 63.5t-9 78.5zM234 1617q4 35 19 66t39 53.5t55 35.5t67 13q37 0 69 -13.5t56 -37.5t38.5 -57t16.5 -72q1 -39 -13 -73.5t-39.5 -60t-59.5 -40.5t-72 -14q-38 0 -72 15.5t-58 42.5t-37 63.5t-9 78.5zM442 1252 q4 35 19 66t39 53.5t55 35.5t67 13q37 0 69 -13.5t56 -37.5t38.5 -57t16.5 -72q1 -39 -13 -73.5t-39.5 -60t-59.5 -40.5t-72 -14q-38 0 -72 15.5t-58 42.5t-37 63.5t-9 78.5z" />
<glyph unicode="&#x62c;" horiz-adv-x="2011" arabic-form="isolated" d="M154 -492q0 61 10 117t38 120q26 45 54.5 87t65.5 79q68 81 184 124q48 19 105 29t129 10h789q-5 68 -19 130t-38 125q-25 57 -61.5 109t-83.5 100q-38 38 -80 66.5t-86 42.5q-43 24 -91 33.5t-100 9.5l-165 -32q-38 -14 -72 -29.5t-69 -39.5l-37 -32l-184 255l37 25 q54 44 110.5 72.5t119.5 47.5t126 29t134 10q81 0 157.5 -16t153.5 -48q72 -28 138.5 -71t130.5 -102q66 -71 118.5 -150.5t90.5 -166.5q38 -91 64.5 -182t29.5 -186l7 -166l-7 -145h-1113h-4l-104 -18l-80 -62l-53 -88q-11 -26 -17 -52t-6 -63q0 -26 6 -50.5t17 -50.5 q8 -26 23.5 -49.5t29.5 -37.5l13 -14h-370q-24 52 -32.5 108t-8.5 122zM731 -523q4 35 19 65t38.5 52.5t54 35.5t66.5 13t68 -13.5t56 -37t38 -56t16 -71.5q1 -39 -13 -73t-39 -59.5t-58.5 -40t-71.5 -13.5q-38 0 -71.5 15.5t-57.5 42t-36.5 62.5t-8.5 78z" />
<glyph unicode="&#x62c;" horiz-adv-x="1956" arabic-form="final" d="M176 -491q0 61 10 117t38 120q26 45 54.5 87t65.5 79q68 81 184 124q48 19 105 29t129 10h789q-5 68 -19 130t-38 125q-25 57 -61.5 109t-83.5 100q-38 38 -80 66.5t-86 42.5q-43 24 -91 33.5t-100 9.5l-165 -32q-38 -14 -72 -29.5t-69 -39.5l-37 -32l-184 255l37 25 q54 44 110.5 72.5t119.5 47.5t126 29t134 10q81 0 157.5 -16t153.5 -48q72 -28 138.5 -71t130.5 -102q66 -71 118.5 -150.5t90.5 -166.5q38 -91 64 -182t28 -186h140q-27 0 -42 -14t-15 -37v-209q0 -23 15 -34.5t42 -16.5h-1251h-4l-104 -18l-80 -62l-53 -88 q-11 -26 -17 -52t-6 -63q0 -26 6 -50.5t17 -50.5q8 -26 23.5 -49.5t29.5 -37.5l13 -14h-370q-24 52 -32.5 108t-8.5 122zM757 -526q4 35 19 65t38.5 52.5t54 35.5t66.5 13t68 -13.5t56 -37t38 -56t16 -71.5q1 -39 -13 -73t-39 -59.5t-58.5 -40t-71.5 -13.5q-38 0 -71.5 15.5 t-57.5 42t-36.5 62.5t-8.5 78z" />
<glyph unicode="&#x62c;" horiz-adv-x="1568" arabic-form="initial" d="M-65 24q0 25 15 38t50 13h1143q-10 133 -58 255q-24 57 -61 109t-84 101q-38 38 -80 66t-85 42q-44 24 -91.5 33.5t-99.5 9.5l-166 -32q-38 -14 -71.5 -29.5t-68.5 -39.5l-37 -32l-184 255l37 26q54 43 110.5 71.5t119.5 47.5q63 20 125.5 29.5t134.5 9.5 q81 0 157.5 -15.5t152.5 -48.5q73 -28 139 -70.5t130 -102.5q66 -71 119 -150.5t91 -166.5q38 -91 64 -181.5t30 -186.5l7 -166l-7 -144h-1467q-35 0 -50 13t-15 37v209zM455 -572q4 35 19 65t38.5 52.5t54 35.5t66.5 13t68 -13.5t56 -37t38 -56t16 -71.5q1 -39 -13 -73 t-39 -59.5t-58.5 -40t-71.5 -13.5q-38 0 -71.5 15.5t-57.5 42t-36.5 62.5t-8.5 78z" />
<glyph unicode="&#x62c;" horiz-adv-x="1551" arabic-form="medial" d="M-65 24q0 25 15 38t50 13h1143q-5 68 -19 130.5t-39 124.5q-24 57 -60.5 109t-83.5 101q-38 38 -80.5 66t-85.5 42q-44 24 -91.5 33.5t-99.5 9.5l-166 -32q-38 -14 -71.5 -29.5t-68.5 -39.5l-37 -32l-184 255l37 26q54 43 110.5 71.5t119.5 47.5q63 20 126 29.5t134 9.5 q81 0 157.5 -15.5t153.5 -48.5q142 -55 269 -173q66 -71 118.5 -150.5t90.5 -166.5q38 -91 64.5 -181.5t29.5 -186.5h141q-28 0 -43 -14t-15 -37v-209q0 -23 15 -34t43 -16h-1608q-35 0 -50 13t-15 37v209zM457 -575q4 35 19 65t38.5 52.5t54 35.5t66.5 13t68 -13.5t56 -37 t38 -56t16 -71.5q1 -39 -13 -73t-39 -59.5t-58.5 -40t-71.5 -13.5q-38 0 -71.5 15.5t-57.5 42t-36.5 62.5t-8.5 78z" />
<glyph unicode="&#x62d;" horiz-adv-x="1907" arabic-form="isolated" d="M101 -491q0 61 10 117t38 120q26 45 54.5 87.5t65.5 78.5q70 83 184 124q48 19 105 29t129 10h789q-5 68 -19 130.5t-38 125.5q-25 57 -61.5 108.5t-83.5 100.5q-38 38 -80 66t-86 42q-43 24 -91 34t-100 10l-165 -33q-38 -14 -72 -29t-69 -40l-37 -32l-184 256l37 25 q54 43 110.5 71.5t119.5 47.5q63 20 126 30t134 10q160 0 311 -65q72 -28 138.5 -70.5t130.5 -101.5q132 -144 209 -318q38 -90 64.5 -181t29.5 -187l7 -165l-7 -145h-1113h-4l-104 -19l-80 -62l-53 -87q-11 -26 -17 -52.5t-6 -62.5q0 -26 6 -50.5t17 -50.5q8 -26 23.5 -50 t29.5 -38l13 -14h-370q-24 52 -32.5 108t-8.5 122z" />
<glyph unicode="&#x62d;" horiz-adv-x="1873" arabic-form="final" d="M93 -491q0 61 10 117t38 120q26 45 54.5 87.5t65.5 78.5q70 83 184 124q48 19 105 29t129 10h789q-5 68 -19 130.5t-38 125.5q-25 57 -61.5 108.5t-83.5 100.5q-38 38 -80 66t-86 42q-43 24 -91 34t-100 10l-165 -33q-38 -14 -72 -29t-69 -40l-37 -32l-184 256l37 25 q54 43 110.5 71.5t119.5 47.5q63 20 126 30t134 10q160 0 311 -65q72 -28 138.5 -70.5t130.5 -101.5q132 -144 209 -318q38 -90 64 -181t28 -187h140q-27 0 -42 -13.5t-15 -36.5v-210q0 -23 15 -34t42 -16h-1251h-4l-104 -19l-80 -62l-53 -87q-11 -26 -17 -52.5t-6 -62.5 q0 -26 6 -50.5t17 -50.5q8 -26 23.5 -50t29.5 -38l13 -14h-370q-24 52 -32.5 108t-8.5 122z" />
<glyph unicode="&#x62d;" horiz-adv-x="1564" arabic-form="initial" d="M-65 24q0 25 15 38t50 13h1143q-10 133 -58 255q-24 57 -61 109t-84 101q-38 38 -80 66t-85 42q-44 24 -91.5 33.5t-99.5 9.5l-166 -32q-38 -14 -71.5 -29.5t-68.5 -39.5l-37 -32l-184 255l37 26q54 43 110.5 71.5t119.5 47.5q63 20 125.5 29.5t134.5 9.5 q81 0 157.5 -15.5t152.5 -48.5q73 -28 139 -70.5t130 -102.5q66 -71 119 -150.5t91 -166.5q38 -91 64 -181.5t30 -186.5l7 -166l-7 -144h-1467q-35 0 -50 13t-15 37v209z" />
<glyph unicode="&#x62d;" horiz-adv-x="1550" arabic-form="medial" d="M-65 24q0 25 15 38t50 13h1143q-5 68 -19 130.5t-39 124.5q-24 57 -60.5 109t-83.5 101q-38 38 -80.5 66t-85.5 42q-44 24 -91.5 33.5t-99.5 9.5l-166 -32q-38 -14 -71.5 -29.5t-68.5 -39.5l-37 -32l-184 255l37 26q54 43 110.5 71.5t119.5 47.5q63 20 126 29.5t134 9.5 q81 0 157.5 -15.5t153.5 -48.5q142 -55 269 -173q66 -71 118.5 -150.5t90.5 -166.5q38 -91 64.5 -181.5t29.5 -186.5h141q-28 0 -43 -14t-15 -37v-209q0 -23 15 -34t43 -16h-1608q-35 0 -50 13t-15 37v209z" />
<glyph unicode="&#x62e;" horiz-adv-x="1915" arabic-form="isolated" d="M104 -491q0 61 10 117t38 120q26 45 54.5 87t65.5 79q68 81 184 124q48 19 105 29t129 10h789q-5 68 -19 130t-38 125q-25 57 -61.5 109t-83.5 100q-38 38 -80 66.5t-86 42.5q-43 24 -91 33.5t-100 9.5l-165 -32q-38 -14 -72 -29.5t-69 -39.5l-37 -32l-184 255l37 25 q54 44 110.5 72.5t119.5 47.5t126 29t134 10q81 0 157.5 -16t153.5 -48q72 -28 138.5 -71t130.5 -102q66 -71 118.5 -150.5t90.5 -166.5q38 -91 64.5 -182t29.5 -186l7 -166l-7 -145h-1113h-4l-104 -18l-80 -62l-53 -88q-11 -26 -17 -52t-6 -63q0 -26 6 -50.5t17 -50.5 q8 -26 23.5 -49.5t29.5 -37.5l13 -14h-370q-24 52 -32.5 108t-8.5 122zM739 1251q4 35 19 66t39 53.5t55 35.5t67 13q37 0 69 -13.5t56 -37.5t38.5 -57t16.5 -72q1 -39 -13 -73.5t-39.5 -60t-59.5 -40.5t-72 -14q-38 0 -72 15.5t-58 42.5t-37 63.5t-9 78.5z" />
<glyph unicode="&#x62e;" horiz-adv-x="1913" arabic-form="final" d="M133 -492q0 61 10 117t38 120q26 45 54.5 87.5t65.5 78.5q68 81 184 124q48 19 105 29t129 10h789q-5 68 -19 130.5t-38 124.5q-25 57 -61.5 109t-83.5 101q-38 38 -80 66t-86 42q-43 24 -91 34t-100 10l-165 -33q-38 -14 -72 -29t-69 -40l-37 -32l-184 255l37 26 q54 43 110.5 71.5t119.5 47.5q63 20 126 29.5t134 9.5q81 0 157.5 -15.5t153.5 -48.5q72 -28 138.5 -70.5t130.5 -101.5q132 -144 209 -318q38 -90 64 -181t28 -187h140q-27 0 -42 -14t-15 -36v-210q0 -23 15 -34t42 -16h-1251h-4l-104 -19l-80 -62l-53 -87 q-11 -26 -17 -52.5t-6 -62.5q0 -26 6 -50.5t17 -50.5q8 -26 23.5 -50t29.5 -38l13 -14h-370q-24 52 -32.5 108t-8.5 122zM772 1249q4 35 19 66t39 53.5t55 35.5t67 13q37 0 69 -13.5t56 -37.5t38.5 -57t16.5 -72q1 -39 -13 -73.5t-39.5 -60t-59.5 -40.5t-72 -14 q-38 0 -72 15.5t-58 42.5t-37 63.5t-9 78.5z" />
<glyph unicode="&#x62e;" horiz-adv-x="1601" arabic-form="initial" d="M-65 24q0 25 15 38t50 13h1143q-10 133 -58 255q-24 57 -61 109t-84 101q-38 38 -80 66t-85 42q-44 24 -91.5 33.5t-99.5 9.5l-166 -32q-38 -14 -71.5 -29.5t-68.5 -39.5l-37 -32l-184 255l37 26q54 43 110.5 71.5t119.5 47.5q63 20 125.5 29.5t134.5 9.5 q81 0 157.5 -15.5t152.5 -48.5q73 -28 139 -70.5t130 -102.5q66 -71 119 -150.5t91 -166.5q38 -91 64 -181.5t30 -186.5l7 -166l-7 -144h-1467q-35 0 -50 13t-15 37v209zM452 1251q4 35 19 66t39 53.5t55 35.5t67 13q37 0 69 -13.5t56 -37.5t38.5 -57t16.5 -72 q1 -39 -13 -73.5t-39.5 -60t-59.5 -40.5t-72 -14q-38 0 -72 15.5t-58 42.5t-37 63.5t-9 78.5z" />
<glyph unicode="&#x62e;" horiz-adv-x="1550" arabic-form="medial" d="M-65 24q0 25 15 38t50 13h1143q-5 68 -19 130.5t-39 124.5q-24 57 -60.5 109t-83.5 101q-38 38 -80.5 66t-85.5 42q-44 24 -91.5 33.5t-99.5 9.5l-166 -32q-38 -14 -71.5 -29.5t-68.5 -39.5l-37 -32l-184 255l37 26q54 43 110.5 71.5t119.5 47.5q63 20 126 29.5t134 9.5 q81 0 157.5 -15.5t153.5 -48.5q142 -55 269 -173q66 -71 118.5 -150.5t90.5 -166.5q38 -91 64.5 -181.5t29.5 -186.5h141q-28 0 -43 -14t-15 -37v-209q0 -23 15 -34t43 -16h-1608q-35 0 -50 13t-15 37v209zM369 1253q4 35 19 66t39 53.5t55 35.5t67 13q37 0 69 -13.5 t56 -37.5t38.5 -57t16.5 -72q1 -39 -13 -73.5t-39.5 -60t-59.5 -40.5t-72 -14q-38 0 -72 15.5t-58 42.5t-37 63.5t-9 78.5z" />
<glyph unicode="&#x62f;" horiz-adv-x="1596" arabic-form="isolated" d="M140 75h1001q-5 63 -19.5 121.5t-38.5 112.5q-24 52 -57 103.5t-76 94.5q-33 33 -70.5 59.5t-81.5 41.5l-184 37l-145 -25q-38 -14 -71.5 -29.5t-68.5 -39.5l-37 -32v361l159 50l156 19l159 -19l152 -39q35 -14 67.5 -29.5t65.5 -39.5l129 -94q60 -71 106.5 -147 t81.5 -157q38 -81 60.5 -170t27.5 -179l7 -166l-7 -145h-1316v311z" />
<glyph unicode="&#x62f;" horiz-adv-x="1524" arabic-form="final" d="M125 75h1000q-5 63 -19 121.5t-38 112.5q-25 52 -57.5 103.5t-76.5 94.5q-33 33 -70.5 59.5t-81.5 41.5l-184 37l-145 -25q-38 -14 -71.5 -29.5t-68.5 -39.5l-37 -32v361l159 50l156 19l159 -19l152 -39q35 -14 68 -29.5t65 -39.5l129 -94q61 -71 107.5 -147t81.5 -157 q38 -81 60 -170t27 -179h140q-27 0 -42 -14t-15 -37v-209q0 -23 15 -34.5t42 -16.5h-1455v311z" />
<glyph unicode="&#x630;" horiz-adv-x="1597" arabic-form="isolated" d="M137 75h1001q-5 63 -19.5 121.5t-38.5 112.5q-24 52 -57 103.5t-76 94.5q-33 33 -70.5 59.5t-81.5 41.5l-184 37l-145 -25q-38 -14 -71.5 -29.5t-68.5 -39.5l-37 -32v361l159 50l156 19l159 -19l152 -39q35 -14 67.5 -29t65.5 -40l129 -94q60 -71 106.5 -146.5 t81.5 -157.5q38 -81 60.5 -170t27.5 -179l7 -166l-7 -145h-1316v311zM482 1250q4 35 19 66t39 53.5t55 35.5t67 13q37 0 69 -13.5t56 -37.5t38.5 -57t16.5 -72q1 -39 -13 -73.5t-39.5 -60t-59.5 -40.5t-72 -14q-38 0 -72 15.5t-58 42.5t-37 63.5t-9 78.5z" />
<glyph unicode="&#x630;" horiz-adv-x="1554" arabic-form="final" d="M156 75h1000q-5 63 -19 121.5t-38 112.5q-25 52 -57.5 103.5t-76.5 94.5q-33 33 -70.5 59.5t-81.5 41.5l-184 37l-145 -25q-38 -14 -71.5 -29.5t-68.5 -39.5l-37 -32v361l159 50l156 19l159 -19l152 -39q35 -14 68 -29t65 -40l129 -94q61 -71 107.5 -146.5t81.5 -157.5 q38 -81 60 -170t27 -179h140q-27 0 -42 -14t-15 -37v-209q0 -23 15 -34.5t42 -16.5h-1455v311zM450 1282l18 76l35 53l60 44l80 14l69 -14l55 -44l39 -53q20 -52 16 -97.5t-25 -80t-55 -56.5t-74.5 -28t-83.5 6.5t-81 46.5l-35 60q-10 15 -14 34t-4 39z" />
<glyph unicode="&#x631;" horiz-adv-x="655" arabic-form="isolated" d="M-169 -603l99 117l83 101l57 90l48 87l39 101l26 111q29 121 34 238.5t-9 235.5q-14 112 -50 220.5t-88 211.5h352q48 -113 76 -230.5t37 -247.5q14 -121 4 -247.5t-41 -254.5l-58 -184l-76 -182l-117 -181l-159 -182z" />
<glyph unicode="&#x631;" horiz-adv-x="647" arabic-form="final" d="M-176 -609l101 120l76 101l65 89l50 90l37 101l-1 1l30 111q14 62 23 121t9 118q5 59 1.5 115t-8.5 113l-50 225q-12 54 -35.5 108.5t-52.5 105.5h352q44 -99 69 -199.5t39 -207.5q14 -104 11.5 -212t-18.5 -216h189q-33 0 -48.5 -14t-15.5 -37v-207q0 -24 15.5 -36 t48.5 -17h-258l-63 -145l-78 -141l-101 -145l-127 -147z" />
<glyph unicode="&#x632;" horiz-adv-x="676" arabic-form="isolated" d="M-158 -607l101 119l83 102l58 89l50 90l39 101l26 113q29 121 34 240t-9 238q-14 115 -50 224t-90 213h356q49 -114 77 -233t38 -250q14 -123 4 -250t-43 -258l-57 -184l-76 -184l-120 -184l-159 -184zM3 1342q4 35 19 66t39 53.5t55 35.5t67 13q37 0 69 -13.5t56 -37.5 t38.5 -57t16.5 -72q1 -39 -13 -73.5t-39.5 -60t-59.5 -40.5t-72 -14q-38 0 -72 15.5t-58 42.5t-37 63.5t-9 78.5z" />
<glyph unicode="&#x632;" horiz-adv-x="672" arabic-form="final" d="M-172 -610l101 120l76 101l65 89l50 90l37 101l25 115q16 63 24.5 121t8.5 121q5 63 2 120t-7 114l-53 224q-14 52 -36.5 107t-50.5 109h361q38 -101 62.5 -202t38.5 -212q31 -211 0 -433h205q-35 0 -50 -13t-15 -37v-210q0 -24 15 -34.5t50 -15.5h-281l-62 -147 l-78 -141l-101 -145l-127 -147zM-33 1338q4 35 19 66t39 53.5t55 35.5t67 13q37 0 69 -13.5t56 -37.5t38.5 -57t16.5 -72q1 -39 -13 -73.5t-39.5 -60t-59.5 -40.5t-72 -14q-38 0 -72 15.5t-58 42.5t-37 63.5t-9 78.5z" />
<glyph unicode="&#x633;" horiz-adv-x="2845" arabic-form="isolated" d="M53 -109q0 54 5.5 101.5t19.5 95.5q14 47 33 90.5t43 86.5q24 44 56 78.5t70 69.5q35 32 75 60.5t84 51.5l39 26l152 -286l-37 -25l-90 -57l-69 -83l-46 -101l-11 -108q0 -86 32 -152q14 -38 36 -71t45 -56q29 -29 61 -52t67 -37q33 -16 71 -21t81 -5q44 0 85 5t74 21 q33 14 66 37t60 52q25 23 47 56t36 71q16 32 21.5 70t10.5 82v1023h311v-713q7 -54 35.5 -87t67 -48t81.5 -11.5t79.5 24.5t60.5 58t25 89v688h313v-688l12 -62l39 -57l50 -39l69 -12l65 12q14 5 28.5 15t28.5 24l40 57l11 62v688h317v-685v-21q0 -44 -9 -86.5t-23 -86.5 q-7 -21 -19 -43t-27 -42.5t-31 -39t-31 -33.5q-33 -33 -74 -60t-85 -46q-42 -24 -89.5 -35t-101.5 -11q-47 0 -90 10t-87 29q-43 19 -81 43t-70 51l-148 -94q-43 -19 -86.5 -29t-97.5 -10q-48 0 -94 10t-90 29q-10 -63 -30 -123t-52 -112q-33 -54 -72 -100t-87 -86 q-49 -38 -100.5 -70t-108.5 -56q-57 -25 -119 -34.5t-130 -9.5l-191 32q-48 14 -90 29.5t-80 39.5q-43 24 -78.5 52t-68.5 63q-33 33 -58.5 67t-49.5 73q-24 44 -43 85.5t-33 85.5q-14 48 -19.5 95t-5.5 96z" />
<glyph unicode="&#x633;" horiz-adv-x="3107" arabic-form="final" d="M140 -109q0 54 6 101.5t20 95.5q14 47 32.5 90.5t42.5 86.5q25 44 57 78.5t70 69.5q35 32 75 60.5t84 51.5l39 26l152 -286l-37 -25l-90 -57l-69 -83l-46 -101l-11 -108q0 -86 32 -152q14 -38 35.5 -71t44.5 -56q29 -29 61.5 -52t67.5 -37q33 -16 70.5 -21t81.5 -5 q43 0 84.5 5t74.5 21q32 14 65 37t61 52q24 23 46.5 56t36.5 71q16 32 21.5 70t10.5 82v1023h311v-713q7 -53 35.5 -86.5t67 -48.5t81.5 -11.5t79.5 24.5t60.5 58t25 89v688h313v-688l11 -62l40 -57l50 -39l69 -12l65 12q14 5 28.5 15t28.5 24l39 57l12 62v688h317v-603 q-5 -24 -1 -44.5t15 -44.5q8 -24 21.5 -43t29.5 -33l69 -53q24 -9 44.5 -13.5t44.5 -4.5h37q-23 -5 -33.5 -16t-10.5 -35v-209q0 -25 15 -35.5t50 -15.5h-108q-44 0 -86.5 8.5t-86.5 23.5q-38 14 -71.5 33.5t-68.5 47.5q-33 -33 -74 -60t-85 -46q-42 -24 -89.5 -35 t-101.5 -11q-47 0 -90 10t-87 29q-43 19 -81 43t-71 51l-147 -94q-43 -19 -86.5 -29t-97.5 -10q-48 0 -94 10t-90 29q-11 -63 -30.5 -123t-52.5 -112q-32 -54 -71 -100t-87 -86q-49 -38 -101 -70t-109 -56q-57 -25 -118.5 -34.5t-129.5 -9.5l-191 32q-48 14 -90 29.5 t-80 39.5q-44 24 -79.5 52t-67.5 63q-33 33 -58.5 67t-50.5 73q-24 44 -42.5 85.5t-32.5 85.5q-14 48 -20 95t-6 96z" />
<glyph unicode="&#x633;" horiz-adv-x="2101" arabic-form="initial" d="M-56 17q0 58 57 58h140q25 0 47 5t36 16l58 50l39 76l11 90v602h311v-692q0 -14 4.5 -28.5t9.5 -28.5l39 -58q43 -40 93 -48t94 10t76 59t40 101v685h313v-685q2 -60 28 -98.5t63 -56.5t80.5 -16.5t80.5 21t63 57.5t28 93v685h310v-605v-105q0 -44 -9 -86.5t-23 -86.5 q-7 -21 -18 -42t-24.5 -40.5t-28.5 -37t-30 -32.5q-33 -35 -74 -61.5t-85 -46.5q-43 -24 -93.5 -33.5t-104.5 -9.5q-42 0 -87.5 8.5t-89.5 27.5q-43 20 -77.5 43.5t-69.5 51.5q-33 -28 -70.5 -51.5t-81.5 -43.5q-43 -19 -86.5 -27.5t-90.5 -8.5q-43 0 -85 7.5t-80 21.5 q-38 16 -72 34t-69 42q-14 -14 -32.5 -26.5t-43.5 -23.5l-101 -19h-338q-28 0 -42.5 13.5t-14.5 37.5v202z" />
<glyph unicode="&#x633;" horiz-adv-x="2201" arabic-form="medial" d="M-51 17q0 58 58 58h140q24 0 46.5 5t36.5 16l57 50l39 76l12 90v602h310v-692q0 -14 4.5 -28.5t9.5 -28.5l39 -58q43 -40 93 -48t94 10t76.5 59t40.5 101v685h313v-685q2 -60 27.5 -98.5t63 -56.5t80.5 -16.5t80.5 21t63 57.5t27.5 93v685h311v-602l18 -90q20 -46 53 -76 l69 -50l90 -21h37q-20 -4 -28.5 -15.5t-8.5 -35.5v-209q0 -24 13.5 -35t41.5 -16h-106q-43 0 -86 9.5t-86 23.5q-44 14 -78 33.5t-63 48.5q-32 -35 -73.5 -61.5t-84.5 -46.5q-44 -24 -94 -33.5t-104 -9.5q-42 0 -88 8.5t-89 27.5q-44 20 -78 43.5t-69 51.5q-67 -56 -152 -95 q-44 -19 -87 -27.5t-90 -8.5q-44 0 -86 7.5t-80 21.5q-38 16 -71.5 34t-68.5 42q-14 -14 -33 -26.5t-43 -23.5l-101 -19h-338q-28 0 -43 13.5t-15 37.5v202z" />
<glyph unicode="&#x634;" horiz-adv-x="3013" arabic-form="isolated" d="M133 -110q0 54 5.5 102t19.5 96q14 47 33 90.5t43 86.5q24 44 56 78t70 69q70 67 159 113l39 25l152 -285l-37 -25l-90 -58l-69 -82l-46 -102l-11 -108q0 -85 32 -151q14 -38 36 -71t45 -56q29 -29 61 -52.5t67 -37.5q33 -15 71 -20t81 -5q44 0 85 5t74 20q33 14 66 37.5 t60 52.5q25 23 47 56t36 71q16 32 21.5 70t10.5 81v1024h311v-713q7 -54 35.5 -87t67 -48t81.5 -11.5t79.5 24.5t60.5 58t25 89v688h313v-688l12 -62l39 -57l50 -40l69 -11l65 11q14 5 28.5 15.5t28.5 24.5l40 57l11 62v688h317v-686v-20q0 -44 -9 -86.5t-23 -86.5 q-7 -21 -19 -43t-27 -42.5t-31 -39t-31 -33.5q-33 -33 -74 -60t-85 -46q-42 -24 -89.5 -35t-101.5 -11q-47 0 -90 10t-87 29q-85 37 -151 94l-148 -94q-43 -19 -86.5 -29t-97.5 -10q-48 0 -94 10t-90 29q-10 -63 -30 -123t-52 -112q-33 -54 -72 -100t-87 -86 q-49 -38 -100.5 -70t-108.5 -57q-57 -24 -119 -33.5t-130 -9.5l-191 32q-48 14 -90 29.5t-80 39.5q-43 24 -78.5 52t-68.5 63q-33 33 -58.5 66.5t-49.5 73.5q-24 44 -43 85.5t-33 84.5q-14 49 -19.5 96t-5.5 95zM1670 1245q4 35 19 66t39 53.5t55 35.5t67 13q37 0 69 -13.5 t56 -37.5t38.5 -57t16.5 -72q1 -39 -13 -73.5t-39.5 -60t-59.5 -40.5t-72 -14q-38 0 -72 15.5t-58 42.5t-37 63.5t-9 78.5zM1884 1607q4 35 19 66t39 53.5t55 35.5t67 13q37 0 69 -13.5t56 -37.5t38.5 -57t16.5 -72q1 -39 -13 -73.5t-39.5 -60t-59.5 -40.5t-72 -14 q-38 0 -72 15.5t-58 42.5t-37 63.5t-9 78.5zM2093 1243q4 35 19 66t39 53.5t55 35.5t67 13q37 0 69 -13.5t56 -37.5t38.5 -57t16.5 -72q1 -39 -13 -73.5t-39.5 -60t-59.5 -40.5t-72 -14q-38 0 -72 15.5t-58 42.5t-37 63.5t-9 78.5z" />
<glyph unicode="&#x634;" horiz-adv-x="3081" arabic-form="final" d="M114 -110q0 54 6 102t20 96q14 47 32.5 90.5t42.5 86.5q25 44 57 78t70 69q70 67 159 113l39 25l152 -285l-37 -25l-90 -58l-69 -82l-46 -102l-11 -108q0 -85 32 -151q14 -38 35.5 -71t44.5 -56q29 -29 61.5 -52.5t67.5 -37.5q33 -15 70.5 -20t81.5 -5q43 0 84.5 5 t74.5 20q32 14 65 37.5t61 52.5q24 23 46.5 56t36.5 71q16 32 21.5 70t10.5 81v1024h311v-713q7 -54 35.5 -87t67 -48t81.5 -11.5t79.5 24.5t60.5 58t25 89v688h313v-688l11 -62l40 -57l50 -40l69 -11l65 11q14 5 28.5 15.5t28.5 24.5l39 57l12 62v688h317v-603 q-5 -24 -1 -44.5t15 -44.5q8 -25 21.5 -43.5t29.5 -32.5l68 -53q25 -9 46.5 -13.5t43.5 -4.5h40q-26 -6 -36.5 -16.5t-10.5 -34.5v-210q0 -24 15 -34.5t50 -15.5h-108q-85 0 -173 32q-38 14 -71.5 33.5t-68.5 47.5q-33 -33 -74 -60t-85 -46q-42 -24 -89.5 -35t-101.5 -11 q-47 0 -90 10t-87 29q-84 37 -152 94l-147 -94q-43 -19 -86.5 -29t-97.5 -10q-48 0 -94 10t-90 29q-11 -63 -30.5 -123t-52.5 -112q-32 -54 -71 -100t-87 -86q-49 -38 -101 -70t-109 -57q-57 -24 -118.5 -33.5t-129.5 -9.5l-191 32q-48 14 -90 29.5t-80 39.5 q-44 24 -79.5 52t-67.5 63q-33 33 -58.5 66.5t-50.5 73.5q-24 44 -42.5 85.5t-32.5 84.5q-14 49 -20 96t-6 95zM1654 1245q4 35 19 66t39 53.5t55 35.5t67 13q37 0 69 -13.5t56 -37.5t38.5 -57t16.5 -72q1 -39 -13 -73.5t-39.5 -60t-59.5 -40.5t-72 -14q-38 0 -72 15.5 t-58 42.5t-37 63.5t-9 78.5zM1873 1607q4 35 19 66t39 53.5t55 35.5t67 13q37 0 69 -13.5t56 -37.5t38.5 -57t16.5 -72q1 -39 -13 -73.5t-39.5 -60t-59.5 -40.5t-72 -14q-38 0 -72 15.5t-58 42.5t-37 63.5t-9 78.5zM2077 1243q4 35 19 66t39 53.5t55 35.5t67 13 q37 0 69 -13.5t56 -37.5t38.5 -57t16.5 -72q1 -39 -13 -73.5t-39.5 -60t-59.5 -40.5t-72 -14q-38 0 -72 15.5t-58 42.5t-37 63.5t-9 78.5z" />
<glyph unicode="&#x634;" horiz-adv-x="2089" arabic-form="initial" d="M-57 17q0 58 57 58h140q25 0 47 5t36 15l58 51l39 76l11 90v602h311v-692q0 -14 4.5 -29t9.5 -29l39 -57q43 -40 93 -48t94 10t76 59t40 101v685h313v-685q2 -60 28 -98.5t63 -56.5t80.5 -16.5t80.5 21t63 57.5t28 93v685h310v-605v-106q0 -43 -9 -86t-23 -86 q-7 -22 -18 -43t-24.5 -40.5t-28.5 -36.5t-30 -32q-33 -35 -74 -62t-85 -46q-43 -24 -93.5 -34t-104.5 -10q-42 0 -87.5 9t-89.5 28q-43 19 -77.5 43t-69.5 51q-33 -27 -70.5 -51t-81.5 -43q-84 -37 -177 -37q-43 0 -85 8t-80 22q-38 16 -72 34t-69 42q-14 -14 -32.5 -27 t-43.5 -23l-101 -19h-338q-28 0 -42.5 13.5t-14.5 37.5v202zM765 1240q4 35 19 66t39 53.5t55 35.5t67 13q37 0 69 -13.5t56 -37.5t38.5 -57t16.5 -72q1 -39 -13 -73.5t-39.5 -60t-59.5 -40.5t-72 -14q-38 0 -72 15.5t-58 42.5t-37 63.5t-9 78.5zM982 1602q4 35 19 66 t39 53.5t55 35.5t67 13q37 0 69 -13.5t56 -37.5t38.5 -57t16.5 -72q1 -39 -13 -73.5t-39.5 -60t-59.5 -40.5t-72 -14q-38 0 -72 15.5t-58 42.5t-37 63.5t-9 78.5zM1188 1238q4 35 19 66t39 53.5t55 35.5t67 13q37 0 69 -13.5t56 -37.5t38.5 -57t16.5 -72q1 -39 -13 -73.5 t-39.5 -60t-59.5 -40.5t-72 -14q-38 0 -72 15.5t-58 42.5t-37 63.5t-9 78.5z" />
<glyph unicode="&#x634;" horiz-adv-x="2194" arabic-form="medial" d="M-58 17q0 58 58 58h140q24 0 46.5 5t36.5 15l57 51l39 76l12 90v602h310v-692q0 -14 4.5 -29t9.5 -29l39 -57q43 -40 93 -48t94 10t76.5 59t40.5 101v685h313v-685q2 -60 27.5 -98.5t63 -56.5t80.5 -16.5t80.5 21t63 57.5t27.5 93v685h311v-602l18 -90q21 -49 53 -76 l69 -51l90 -20h37q-20 -4 -28.5 -15.5t-8.5 -35.5v-209q0 -24 13.5 -35t41.5 -16h-106q-43 0 -86 9t-86 23q-44 14 -78 34t-63 49q-32 -35 -73.5 -62t-84.5 -46q-44 -24 -94 -34t-104 -10q-42 0 -88 9t-89 28q-44 19 -78 43t-69 51q-33 -27 -71 -51t-81 -43 q-86 -37 -177 -37q-44 0 -86 8t-80 22q-38 16 -71.5 34t-68.5 42q-14 -14 -33 -27t-43 -23l-101 -19h-338q-28 0 -43 13.5t-15 37.5v202zM767 1240q4 35 19 66t39 53.5t55 35.5t67 13q37 0 69 -13.5t56 -37.5t38.5 -57t16.5 -72q1 -39 -13 -73.5t-39.5 -60t-59.5 -40.5 t-72 -14q-38 0 -72 15.5t-58 42.5t-37 63.5t-9 78.5zM981 1602q4 35 19 66t39 53.5t55 35.5t67 13q37 0 69 -13.5t56 -37.5t38.5 -57t16.5 -72q1 -39 -13 -73.5t-39.5 -60t-59.5 -40.5t-72 -14q-38 0 -72 15.5t-58 42.5t-37 63.5t-9 78.5zM1190 1238q4 35 19 66t39 53.5 t55 35.5t67 13q37 0 69 -13.5t56 -37.5t38.5 -57t16.5 -72q1 -39 -13 -73.5t-39.5 -60t-59.5 -40.5t-72 -14q-38 0 -72 15.5t-58 42.5t-37 63.5t-9 78.5z" />
<glyph unicode="&#x635;" horiz-adv-x="3098" arabic-form="isolated" d="M151 -114q0 54 6 102t20 96q27 92 76 177q24 44 56 78t70 69q70 67 159 113l39 25l152 -285l-37 -25l-90 -58l-69 -83l-46 -101l-11 -108q0 -85 32 -152q14 -38 36 -70.5t44 -55.5q30 -29 62 -52.5t67 -37.5q33 -16 71 -20.5t81 -4.5q44 0 85 4.5t74 20.5q32 14 65 37.5 t61 52.5q24 23 46.5 55.5t36.5 70.5q16 33 21.5 71t10.5 81v1024h311v-151q28 29 86.5 67t100 56t91.5 35.5t107.5 28.5t156 8.5t125.5 -14.5q88 -16 160.5 -40.5t140.5 -64.5t124.5 -91t103 -107t79 -123t58 -138t41.5 -148t20 -153v-311h-1403q-11 -63 -32 -125t-54 -114 q-32 -54 -71 -100t-87 -86q-49 -38 -101 -70.5t-109 -56.5t-118.5 -33.5t-129.5 -9.5l-191 32q-48 14 -90 29.5t-80 39.5q-44 24 -79.5 52t-67.5 63q-33 32 -58.5 66t-49.5 74q-25 44 -43.5 85.5t-32.5 84.5q-14 49 -20 96t-6 95zM1628 75h1017q0 47 -9.5 94t-24 92t-35 83 t-62.5 97t-72.5 85.5t-52.5 38t-46 21.5t-49 17.5t-65 17.5t-96 10.5t-174 -35.5q-48 -20 -70.5 -31.5t-51 -34.5t-48.5 -47t-46.5 -60.5t-44 -76.5t-32.5 -85t-24.5 -92t-13.5 -94z" />
<glyph unicode="&#x635;" horiz-adv-x="3043" arabic-form="final" d="M148 -113q0 54 5.5 102t19.5 96q14 47 33 90.5t43 86.5q24 44 56 78t70 69q35 33 75.5 61.5t83.5 51.5l39 25l152 -285l-37 -25l-89 -58l-69 -83l-46 -101l-12 -108q0 -43 8.5 -81t23.5 -71q14 -38 36 -70.5t45 -55.5q29 -29 61.5 -52.5t67.5 -37.5q32 -16 70 -20.5 t81 -4.5q44 0 85 4.5t74 20.5q33 14 66 37.5t61 52.5q24 23 46 55.5t36 70.5q16 33 22 71t11 81v1024h310v-152q28 29 86.5 67t100 56t91.5 35.5t107.5 28.5t156 8.5t125.5 -14.5q88 -16 160.5 -40.5t140.5 -64.5t124.5 -91t103 -107t79 -123t58 -138t41.5 -148t20 -153h130 q-31 -1 -44 -14t-13 -37v-209q0 -21 12.5 -35t49.5 -15h-1538q-11 -63 -32 -125t-53 -114q-33 -54 -72 -100t-87 -86q-48 -38 -100 -70.5t-109 -56.5t-119 -33.5t-130 -9.5l-191 32q-48 14 -90 29.5t-80 39.5q-43 24 -78.5 52t-68.5 63q-33 32 -58.5 66t-49.5 74 q-24 44 -43 85.5t-33 84.5q-14 49 -19.5 96t-5.5 95zM1624 76h1017q0 47 -9.5 94t-24 92t-35 83t-62.5 97t-72.5 85.5t-52.5 38t-46 21.5t-49 17.5t-65 17.5t-96 10.5t-174 -35.5q-48 -20 -70.5 -31.5t-51 -34.5t-48.5 -47t-46.5 -60.5t-44 -76.5t-32.5 -85t-24.5 -92 t-13.5 -94z" />
<glyph unicode="&#x635;" horiz-adv-x="2079" arabic-form="initial" d="M-61 25q0 24 8.5 34.5t27.5 15.5h191l56 26l41 59v750h310v-151q28 29 86.5 67t100 56t91.5 35.5t107.5 28.5t156 8.5t125.5 -14.5q88 -16 160.5 -40.5t140.5 -64.5t124.5 -91t103 -107t79 -123t58 -138t41.5 -148t20 -153v-310h-1966q-33 0 -47.5 13t-14.5 37v210z M606 75h1017q0 47 -9.5 94t-24 92t-35 83t-62.5 97t-72.5 85.5t-52.5 38t-46 21.5t-49 17.5t-65 17.5t-96 10.5t-174 -35.5q-48 -20 -70.5 -31.5t-51 -34.5t-48.5 -47t-46.5 -60.5t-44 -76.5t-32.5 -85t-24.5 -92t-13.5 -94z" />
<glyph unicode="&#x635;" horiz-adv-x="2045" arabic-form="medial" d="M-62 25q0 24 9 34.5t28 15.5h191l66 27l30 58v750h311v-151q28 29 86.5 67t100 56t91.5 35.5t107.5 28.5t156 8.5t125.5 -14.5q88 -16 160.5 -40.5t140.5 -64.5t124.5 -91t103 -107t79 -123t58 -138t41.5 -148t20 -153h140q-33 0 -47.5 -13t-14.5 -37v-210 q0 -24 14.5 -35.5t47.5 -14.5h-2107q-33 0 -47.5 13t-14.5 37v210zM604 75h1017q0 47 -9.5 94t-24 92t-35 83t-62.5 97t-72.5 85.5t-52.5 38t-46 21.5t-49 17.5t-65 17.5t-96 10.5t-174 -35.5q-48 -20 -70.5 -31.5t-51 -34.5t-48.5 -47t-46.5 -60.5t-44 -76.5t-32.5 -85 t-24.5 -92t-13.5 -94z" />
<glyph unicode="&#x636;" horiz-adv-x="3183" arabic-form="isolated" d="M176 -114q0 54 6 102t20 96q27 92 76 177q24 44 56 78t70 69q70 67 159 113l39 25l152 -285l-37 -25l-90 -58l-69 -83l-46 -101l-11 -108q0 -85 32 -152q14 -38 36 -70.5t44 -55.5q30 -29 62 -52.5t67 -37.5q33 -16 71 -20.5t81 -4.5q44 0 85 4.5t74 20.5q32 14 65 37.5 t61 52.5q24 23 46.5 55.5t36.5 70.5q16 33 21.5 71t10.5 81v1024h311v-150q28 28 86.5 66t100 56t91.5 35.5t107.5 28.5t156 8.5t125.5 -14.5q88 -16 160.5 -40.5t140.5 -64.5t124.5 -91t103 -107t79 -123t58 -138t41.5 -148t20 -153v-311h-1403q-11 -63 -32 -125t-54 -114 q-32 -54 -71 -100t-87 -86q-49 -38 -101 -70.5t-109 -56.5t-118.5 -33.5t-129.5 -9.5l-191 32q-48 14 -90 29.5t-80 39.5q-44 24 -79.5 52t-67.5 63q-33 32 -58.5 66t-49.5 74q-25 44 -43.5 85.5t-32.5 84.5q-14 49 -20 96t-6 95zM1653 75h1017q0 47 -9.5 94t-24 92t-35 83 t-62.5 97t-72.5 85.5t-52.5 38t-46 21.5t-49 17.5t-65 17.5t-96 10.5t-174 -35.5q-48 -20 -70.5 -31.5t-51 -34.5t-48.5 -47t-46.5 -60.5t-44 -76.5t-32.5 -85t-24.5 -92t-13.5 -94zM2011 1247q4 35 19 66t39 53.5t55 35.5t67 13q37 0 69 -13.5t56 -37.5t38.5 -57t16.5 -72 q1 -39 -13 -73.5t-39.5 -60t-59.5 -40.5t-72 -14q-38 0 -72 15.5t-58 42.5t-37 63.5t-9 78.5z" />
<glyph unicode="&#x636;" horiz-adv-x="3044" arabic-form="final" d="M148 -113q0 54 5.5 102t19.5 96q14 47 33 90.5t43 86.5q24 44 56 78t70 69q35 33 75.5 61.5t83.5 51.5l39 25l152 -285l-37 -25l-89 -58l-69 -83l-46 -101l-12 -108q0 -43 8.5 -81t23.5 -71q14 -38 36 -70.5t45 -55.5q29 -29 61.5 -52.5t67.5 -37.5q32 -16 70 -20.5 t81 -4.5q44 0 85 4.5t74 20.5q33 14 66 37.5t61 52.5q24 23 46 55.5t36 70.5q16 33 22 71t11 81v1024h310v-152q28 29 86.5 67t100 56t91.5 35.5t107.5 28.5t156 8.5t125.5 -14.5q88 -16 160.5 -40.5t140.5 -64.5t124.5 -91t103 -107t79 -123t58 -138t41.5 -148t20 -153h130 q-31 -1 -44 -14t-13 -37v-209q0 -21 12.5 -35t49.5 -15h-1538q-11 -63 -32 -125t-53 -114q-33 -54 -72 -100t-87 -86q-48 -38 -100 -70.5t-109 -56.5t-119 -33.5t-130 -9.5l-191 32q-48 14 -90 29.5t-80 39.5q-43 24 -78.5 52t-68.5 63q-33 32 -58.5 66t-49.5 74 q-24 44 -43 85.5t-33 84.5q-14 49 -19.5 96t-5.5 95zM1624 76h1017q0 47 -9.5 94t-24 92t-35 83t-62.5 97t-72.5 85.5t-52.5 38t-46 21.5t-49 17.5t-65 17.5t-96 10.5t-174 -35.5q-48 -20 -70.5 -31.5t-51 -34.5t-48.5 -47t-46.5 -60.5t-44 -76.5t-32.5 -85t-24.5 -92 t-13.5 -94zM2011 1247q4 35 19 66t39 53.5t55 35.5t67 13q37 0 69 -13.5t56 -37.5t38.5 -57t16.5 -72q1 -39 -13 -73.5t-39.5 -60t-59.5 -40.5t-72 -14q-38 0 -72 15.5t-58 42.5t-37 63.5t-9 78.5z" />
<glyph unicode="&#x636;" horiz-adv-x="2092" arabic-form="initial" d="M-61 24q0 25 8.5 35.5t27.5 15.5h191l65 21l32 64v750h310l1 -150q27 28 85.5 66t100 56t91.5 35.5t107.5 28.5t156 8.5t125.5 -14.5q88 -16 160.5 -40.5t140.5 -64.5t124.5 -91t103 -107t79 -123t58 -138t41.5 -148t20 -153v-310h-1966q-33 0 -47.5 13t-14.5 37v209z M605 75h1017q0 47 -9.5 94t-24 92t-35 83t-62.5 97t-72.5 85.5t-52.5 38t-46 21.5t-49 17.5t-65 17.5t-96 10.5t-174 -35.5q-48 -20 -70.5 -31.5t-51 -34.5t-48.5 -47t-46.5 -60.5t-44 -76.5t-32.5 -85t-24.5 -92t-13.5 -94zM910 1249q4 35 19 66t39 53.5t55 35.5t67 13 q37 0 69 -13.5t56 -37.5t38.5 -57t16.5 -72q1 -39 -13 -73.5t-39.5 -60t-59.5 -40.5t-72 -14q-38 0 -72 15.5t-58 42.5t-37 63.5t-9 78.5z" />
<glyph unicode="&#x636;" horiz-adv-x="2045" arabic-form="medial" d="M-62 24q0 25 9 35.5t28 15.5h191l60 25l36 60v750h311v-149q27 28 85.5 66t100 56t91.5 35.5t107.5 28.5t156 8.5t125.5 -14.5q88 -16 160.5 -40.5t140.5 -64.5t124.5 -91t103 -107t79 -123t58 -138t41.5 -148t20 -153l141 -1q-33 0 -47.5 -13t-14.5 -38v-209 q0 -24 14.5 -35.5t47.5 -14.5h-2107q-33 0 -47.5 13t-14.5 37v209zM605 75h1017q0 47 -9.5 94t-24 92t-35 83t-62.5 97t-72.5 85.5t-52.5 38t-46 21.5t-49 17.5t-65 17.5t-96 10.5t-174 -35.5q-48 -20 -70.5 -31.5t-51 -34.5t-48.5 -47t-46.5 -60.5t-44 -76.5t-32.5 -85 t-24.5 -92t-13.5 -94zM910 1249q4 35 19 66t39 53.5t55 35.5t67 13q37 0 69 -13.5t56 -37.5t38.5 -57t16.5 -72q1 -39 -13 -73.5t-39.5 -60t-59.5 -40.5t-72 -14q-38 0 -72 15.5t-58 42.5t-37 63.5t-9 78.5z" />
<glyph unicode="&#x637;" horiz-adv-x="2244" arabic-form="isolated" d="M146 75h159l60 30l32 55v1217h315v-618q29 29 87.5 67t100 56t91.5 35.5t107.5 28.5t156 8.5t125.5 -14.5q88 -16 160.5 -40.5t140.5 -64.5t124.5 -91t103 -107t79 -123t58 -138t41.5 -148t20 -153l-1 -311h-1960v311zM744 75h1017q0 47 -9.5 94t-24 92t-35 83t-62.5 97 t-72.5 85.5t-52.5 38t-46 21.5t-49 17.5t-65 17.5t-96 10.5t-174 -35.5q-48 -20 -70.5 -31.5t-51 -34.5t-48.5 -47t-46.5 -60.5t-44 -76.5t-32.5 -85t-24.5 -92t-13.5 -94z" />
<glyph unicode="&#x637;" horiz-adv-x="2044" arabic-form="final" d="M-63 25q0 24 9 34.5t28 15.5h191l64 21l28 64v1217h315l1 -617q27 28 85.5 66t100 56t91.5 35.5t107.5 28.5t156 8.5t125.5 -14.5q88 -16 160.5 -40.5t140.5 -64.5t124.5 -91t103 -107t79 -123t58 -138t41.5 -148t20 -153h140q-33 0 -47.5 -13t-14.5 -37v-210 q0 -24 14.5 -35.5t47.5 -14.5h-2107q-33 0 -47.5 13t-14.5 37v210zM604 75h1017q0 47 -9.5 94t-24 92t-35 83t-62.5 97t-72.5 85.5t-52.5 38t-46 21.5t-49 17.5t-65 17.5t-96 10.5t-174 -35.5q-48 -20 -70.5 -31.5t-51 -34.5t-48.5 -47t-46.5 -60.5t-44 -76.5t-32.5 -85 t-24.5 -92t-13.5 -94z" />
<glyph unicode="&#x637;" horiz-adv-x="2099" arabic-form="initial" d="M-62 24q0 24 8.5 35t27.5 16h191l56 25l36 60v1217h315v-616q28 28 86.5 66t100 56t91.5 35.5t107.5 28.5t156 8.5t125.5 -14.5q88 -16 160.5 -40.5t140.5 -64.5t124.5 -91t103 -107t79 -123t58 -138t41.5 -148t20 -153v-312h-1966q-33 0 -47.5 13.5t-14.5 37.5v209z M607 75h1017q0 47 -9.5 94t-24 92t-35 83t-62.5 97t-72.5 85.5t-52.5 38t-46 21.5t-49 17.5t-65 17.5t-96 10.5t-174 -35.5q-48 -20 -70.5 -31.5t-51 -34.5t-48.5 -47t-46.5 -60.5t-44 -76.5t-32.5 -85t-24.5 -92t-13.5 -94z" />
<glyph unicode="&#x637;" horiz-adv-x="2044" arabic-form="medial" d="M-63 25q0 24 9 34.5t28 15.5h191l64 21l28 64v1217h315v-617q28 28 86.5 66t100 56t91.5 35.5t107.5 28.5t156 8.5t125.5 -14.5q88 -16 160.5 -40.5t140.5 -64.5t124.5 -91t103 -107t79 -123t58 -138t41.5 -148t20 -153h140q-33 0 -47.5 -13t-14.5 -37v-210 q0 -24 14.5 -35.5t47.5 -14.5h-2107q-33 0 -47.5 13t-14.5 37v210zM604 75h1017q0 47 -9.5 94t-24 92t-35 83t-62.5 97t-72.5 85.5t-52.5 38t-46 21.5t-49 17.5t-65 17.5t-96 10.5t-174 -35.5q-48 -20 -70.5 -31.5t-51 -34.5t-48.5 -47t-46.5 -60.5t-44 -76.5t-32.5 -85 t-24.5 -92t-13.5 -94z" />
<glyph unicode="&#x638;" horiz-adv-x="2135" arabic-form="isolated" d="M127 75h159l60 30l32 55v1217h315l1 -617q27 28 85.5 66t100 56t91.5 35.5t107.5 28.5t156 8.5t125.5 -14.5q88 -16 160.5 -40.5t140.5 -64.5t124.5 -91t103 -107t79 -123t58 -138t41.5 -148t20 -153v-310h-1960v310zM725 75h1017q0 47 -9.5 94t-24 92t-35 83t-62.5 97 t-72.5 85.5t-52.5 38t-46 21.5t-49 17.5t-65 17.5t-96 10.5t-174 -35.5q-48 -20 -70.5 -31.5t-51 -34.5t-48.5 -47t-46.5 -60.5t-44 -76.5t-32.5 -85t-24.5 -92t-13.5 -94zM1016 1250q4 35 19 66t39 53.5t55 35.5t67 13q37 0 69 -13.5t56 -37.5t38.5 -57t16.5 -72 q1 -39 -13 -73.5t-39.5 -60t-59.5 -40.5t-72 -14q-38 0 -72 15.5t-58 42.5t-37 63.5t-9 78.5z" />
<glyph unicode="&#x638;" horiz-adv-x="2179" arabic-form="final" d="M142 75h157l61 32l32 53v1217h315v-618q27 28 85.5 66t100 56t91.5 35.5t107.5 28.5t156 8.5t125.5 -14.5q88 -16 160.5 -40.5t140.5 -64.5t124.5 -91t103 -107t79 -123t58 -138t41.5 -148t20 -153l141 1q-32 0 -47 -13.5t-15 -37.5v-209q0 -24 15 -35.5t47 -15.5h-2099 v311zM739 75h1017q0 47 -9.5 94t-24 92t-35 83t-62.5 97t-72.5 85.5t-52.5 38t-46 21.5t-49 17.5t-65 17.5t-96 10.5t-174 -35.5q-48 -20 -70.5 -31.5t-51 -34.5t-48.5 -47t-46.5 -60.5t-44 -76.5t-32.5 -85t-24.5 -92t-13.5 -94zM1016 1250q4 35 19 66t39 53.5t55 35.5 t67 13q37 0 69 -13.5t56 -37.5t38.5 -57t16.5 -72q1 -39 -13 -73.5t-39.5 -60t-59.5 -40.5t-72 -14q-38 0 -72 15.5t-58 42.5t-37 63.5t-9 78.5z" />
<glyph unicode="&#x638;" horiz-adv-x="2099" arabic-form="initial" d="M-62 25q0 24 8.5 34.5t27.5 15.5h191l56 21l36 64v1217h315v-619q29 29 87.5 67t100 56t91.5 35.5t107.5 28.5t156 8.5t125.5 -14.5q88 -16 160.5 -40.5t140.5 -64.5t124.5 -91t103 -107t79 -123t58 -138t41.5 -148t20 -153l-1 -309h-1966q-33 0 -47.5 13t-14.5 37v210z M607 75h1017q0 47 -9.5 94t-24 92t-35 83t-62.5 97t-72.5 85.5t-52.5 38t-46 21.5t-49 17.5t-65 17.5t-96 10.5t-174 -35.5q-48 -20 -70.5 -31.5t-51 -34.5t-48.5 -47t-46.5 -60.5t-44 -76.5t-32.5 -85t-24.5 -92t-13.5 -94zM934 1250q4 35 19 66t39 53.5t55 35.5t67 13 q37 0 69 -13.5t56 -37.5t38.5 -57t16.5 -72q1 -39 -13 -73.5t-39.5 -60t-59.5 -40.5t-72 -14q-38 0 -72 15.5t-58 42.5t-37 63.5t-9 78.5z" />
<glyph unicode="&#x638;" horiz-adv-x="2044" arabic-form="medial" d="M-63 25q0 24 9 34.5t28 15.5h191l64 21l28 64v1217h315l1 -617q27 28 85.5 66t100 56t91.5 35.5t107.5 28.5t156 8.5t125.5 -14.5q88 -16 160.5 -40.5t140.5 -64.5t124.5 -91t103 -107t79 -123t58 -138t41.5 -148t20 -153h140q-33 0 -47.5 -13t-14.5 -37v-210 q0 -24 14.5 -35.5t47.5 -14.5h-2107q-33 0 -47.5 13t-14.5 37v210zM604 75h1017q0 47 -9.5 94t-24 92t-35 83t-62.5 97t-72.5 85.5t-52.5 38t-46 21.5t-49 17.5t-65 17.5t-96 10.5t-174 -35.5q-48 -20 -70.5 -31.5t-51 -34.5t-48.5 -47t-46.5 -60.5t-44 -76.5t-32.5 -85 t-24.5 -92t-13.5 -94zM926 1248q4 35 19 66t39 53.5t55 35.5t67 13q37 0 69 -13.5t56 -37.5t38.5 -57t16.5 -72q1 -39 -13 -73.5t-39.5 -60t-59.5 -40.5t-72 -14q-38 0 -72 15.5t-58 42.5t-37 63.5t-9 78.5z" />
<glyph unicode="&#x639;" horiz-adv-x="1837" arabic-form="isolated" d="M98 -494q0 61 10.5 117.5t38.5 120.5q26 45 54.5 87.5t64.5 78.5q70 84 185 125q49 19 105 29t125 10l-50 145q-7 35 -11.5 71.5t-4.5 74.5q0 59 11.5 115.5t34.5 116.5q24 53 57 98.5t72 89.5q44 38 91.5 69t106.5 57q57 19 115.5 31t115.5 12q64 0 125 -12t118 -31 q60 -26 109 -58t91 -75l25 -35l-195 -261l-39 51q-16 26 -42 47.5t-58 36.5q-33 12 -69.5 18.5t-71.5 6.5l-99 -25l-86 -56l-53 -92l-18 -104v-44l12 -49l20 -46l32 -53l112 -69l149 -30h448v-311h-1048l-103 -19l-81 -62l-53 -88q-10 -26 -16.5 -52.5t-6.5 -62.5 q0 -26 6.5 -50.5t16.5 -50.5q9 -26 24 -50t29 -38l14 -15h-371q-24 53 -33 109t-9 122z" />
<glyph unicode="&#x639;" horiz-adv-x="1734" arabic-form="final" d="M107 -492q0 61 10.5 117t38.5 120q26 45 54.5 87.5t64.5 78.5q70 83 184 124q49 19 105 29t125 10l-50 145q-7 35 -11.5 71t-4.5 74q0 59 11.5 115.5t34.5 116.5q24 52 56.5 97.5t71.5 89.5q44 38 91.5 69t106.5 57q57 19 115 30.5t115 11.5q64 0 125 -11.5t117 -30.5 q60 -26 109 -58t91 -75l25 -35l-195 -260l-39 51q-16 26 -41.5 47.5t-57.5 35.5q-33 12 -69.5 18.5t-71.5 6.5l-99 -25l-85 -55l-53 -92l-18 -104v-44l12 -48l20 -46l32 -53l111 -69l149 -30h499q-24 0 -38 -13.5t-14 -41.5v-202q0 -26 11 -37t37 -16h-1093l-103 -19 l-81 -62l-53 -87q-10 -26 -16.5 -52.5t-6.5 -62.5q0 -26 6.5 -50.5t16.5 -50.5q9 -26 24 -50t29 -38l14 -14h-370q-24 52 -33 108t-9 122z" />
<glyph unicode="&#x639;" horiz-adv-x="1281" arabic-form="initial" d="M-57 20q0 28 14.5 41.5t38.5 13.5h139l-51 148q-7 35 -11.5 71t-4.5 74q0 59 11.5 116t34.5 117q24 54 56.5 99.5t72.5 88.5q43 38 92 70t109 58q57 19 115 30t115 11q65 0 127 -11t117 -30q61 -26 110 -58.5t91 -75.5l26 -35l-197 -263l-39 52q-16 26 -41 47.5t-60 37.5 q-33 12 -69.5 18.5t-71.5 6.5l-99 -25l-85 -58l-53 -93l-18 -103v-44l11 -48l21 -46l32 -54l110 -71l151 -30h449v-311h-1195q-26 5 -37 15.5t-11 36.5v204z" />
<glyph unicode="&#x639;" horiz-adv-x="1182" arabic-form="medial" d="M-55 20q0 28 14.5 41.5t38.5 13.5h139l-52 146q-7 35 -11.5 71t-4.5 74q0 59 12 116t35 117q24 52 56.5 97.5t72.5 88.5q43 38 91 70t108 58q57 19 115 30t115 11q64 0 125.5 -11t116.5 -30q61 -26 109.5 -58.5t91.5 -75.5l26 -35l-197 -261l-39 52q-16 26 -41 47.5 t-58 35.5q-33 12 -69.5 18.5t-71.5 6.5l-99 -25l-85 -56l-53 -93l-19 -103v-44l11 -48l22 -46l32 -54l110 -69l150 -30h501q-24 0 -38.5 -13.5t-14.5 -41.5v-204q0 -26 11 -36.5t37 -15.5h-1239q-26 5 -37 15.5t-11 36.5v204z" />
<glyph unicode="&#x63a;" horiz-adv-x="1837" arabic-form="isolated" d="M98 -494q0 61 10.5 117.5t38.5 120.5q26 45 54.5 87.5t64.5 78.5q70 84 185 125q49 19 105 29t125 10l-50 145q-7 35 -11.5 71.5t-4.5 74.5q0 59 11.5 115.5t34.5 116.5q24 53 57 98.5t72 89.5q44 38 91.5 69t106.5 57q57 19 115.5 31t115.5 12q64 0 125 -12t118 -31 q60 -26 109 -58t91 -75l25 -35l-195 -261l-39 51q-16 26 -42 47.5t-58 36.5q-33 12 -69.5 18.5t-71.5 6.5l-99 -25l-86 -56l-53 -92l-18 -104v-44l12 -49l20 -46l32 -53l112 -69l149 -30h448v-311h-1048l-103 -19l-81 -62l-53 -88q-10 -26 -16.5 -52.5t-6.5 -62.5 q0 -26 6.5 -50.5t16.5 -50.5q9 -26 24 -50t29 -38l14 -15h-371q-24 53 -33 109t-9 122zM1023 1253q4 35 19 66t39 53.5t55 35.5t67 13q37 0 69 -13.5t56 -37.5t38.5 -57t16.5 -72q1 -39 -13 -73.5t-39.5 -60t-59.5 -40.5t-72 -14q-38 0 -72 15.5t-58 42.5t-37 63.5t-9 78.5z " />
<glyph unicode="&#x63a;" horiz-adv-x="1734" arabic-form="final" d="M107 -492q0 61 10.5 117t38.5 120q26 45 54.5 87.5t64.5 78.5q70 83 184 124q49 19 105 29t125 10l-50 145q-7 35 -11.5 71t-4.5 74q0 59 11.5 115.5t34.5 116.5q24 52 56.5 97.5t71.5 89.5q44 38 91.5 69t106.5 57q57 19 115 30.5t115 11.5q64 0 125 -11.5t117 -30.5 q60 -26 109 -58t91 -75l25 -35l-195 -260l-39 51q-16 26 -41.5 47.5t-57.5 35.5q-33 12 -69.5 18.5t-71.5 6.5l-99 -25l-85 -55l-53 -92l-18 -104v-44l12 -48l20 -46l32 -53l111 -69l149 -30h499q-24 0 -38 -13.5t-14 -41.5v-202q0 -26 11 -37t37 -16h-1093l-103 -19 l-81 -62l-53 -87q-10 -26 -16.5 -52.5t-6.5 -62.5q0 -26 6.5 -50.5t16.5 -50.5q9 -26 24 -50t29 -38l14 -14h-370q-24 52 -33 108t-9 122zM1023 1253q4 35 19 66t39 53.5t55 35.5t67 13q37 0 69 -13.5t56 -37.5t38.5 -57t16.5 -72q1 -39 -13 -73.5t-39.5 -60t-59.5 -40.5 t-72 -14q-38 0 -72 15.5t-58 42.5t-37 63.5t-9 78.5z" />
<glyph unicode="&#x63a;" horiz-adv-x="1281" arabic-form="initial" d="M-57 20q0 28 14.5 41.5t38.5 13.5h139l-51 148q-7 35 -11.5 71t-4.5 74q0 59 11.5 116t34.5 117q24 54 56.5 99.5t72.5 88.5q43 38 92 70t109 58q57 19 115 30t115 11q65 0 127 -11t117 -30q61 -26 110 -58.5t91 -75.5l26 -35l-197 -263l-39 52q-16 26 -41 47.5t-60 37.5 q-33 12 -69.5 18.5t-71.5 6.5l-99 -25l-85 -58l-53 -93l-18 -103v-44l11 -48l21 -46l32 -54l110 -71l151 -30h449v-311h-1195q-26 5 -37 15.5t-11 36.5v204zM484 1250q4 35 19 66t39 53.5t55 35.5t67 13q37 0 69 -13.5t56 -37.5t38.5 -57t16.5 -72q1 -39 -13 -73.5 t-39.5 -60t-59.5 -40.5t-72 -14q-38 0 -72 15.5t-58 42.5t-37 63.5t-9 78.5z" />
<glyph unicode="&#x63a;" horiz-adv-x="1182" arabic-form="medial" d="M-55 20q0 28 14.5 41.5t38.5 13.5h139l-52 146q-7 35 -11.5 71t-4.5 74q0 59 12 116t35 117q24 52 56.5 97.5t72.5 88.5q43 38 91 70t108 58q57 19 115 30t115 11q64 0 125.5 -11t116.5 -30q61 -26 109.5 -58.5t91.5 -75.5l26 -35l-197 -261l-39 52q-16 26 -41 47.5 t-58 35.5q-33 12 -69.5 18.5t-71.5 6.5l-99 -25l-85 -56l-53 -93l-19 -103v-44l11 -48l22 -46l32 -54l110 -69l150 -30h501q-24 0 -38.5 -13.5t-14.5 -41.5v-204q0 -26 11 -36.5t37 -15.5h-1239q-26 5 -37 15.5t-11 36.5v204zM484 1250q4 35 19 66t39 53.5t55 35.5t67 13 q37 0 69 -13.5t56 -37.5t38.5 -57t16.5 -72q1 -39 -13 -73.5t-39.5 -60t-59.5 -40.5t-72 -14q-38 0 -72 15.5t-58 42.5t-37 63.5t-9 78.5z" />
<glyph unicode="&#x641;" horiz-adv-x="2597" arabic-form="isolated" d="M127 349q0 68 10 123.5t29 106.5q23 52 51 98.5t64 83.5q44 32 88 59.5t96 50.5q52 21 104 31t112 10v-308l-92 -18q-24 -9 -46.5 -22.5t-36.5 -32.5q-14 -14 -26.5 -35.5t-21.5 -45.5l-21 -108q0 -63 21 -108q9 -24 21.5 -46.5t26.5 -36.5q21 -19 40 -33t43 -22l92 -21 h695l-46 129q-5 33 -9.5 70t-4.5 75q0 63 10.5 116t30.5 107q25 52 53.5 99.5t66.5 91.5q44 36 88 67t96 55q54 23 110.5 32t119.5 9t119.5 -9t108.5 -32q54 -24 98 -53t83 -69q37 -44 70 -91.5t57 -99.5q24 -54 34 -110.5t10 -119.5q0 -57 -10 -113t-34 -108 q-24 -54 -57 -100t-70 -86q-39 -40 -83 -69t-98 -53q-104 -48 -228 -48h-1210q-60 0 -112 13.5t-104 36.5t-96 52t-88 66q-71 84 -115 186q-24 57 -33.5 113t-5.5 117zM1638 341q-2 -55 18.5 -103t56.5 -83t83.5 -55t101.5 -19q52 1 98.5 22t80.5 56t53.5 82t18.5 99 t-21 97.5t-54.5 79t-80.5 53t-98 19.5t-98.5 -19t-81 -52.5t-55.5 -79t-22 -97.5zM1697 1250q4 35 19 66t39 53.5t55 35.5t67 13q37 0 69 -13.5t56 -37.5t38.5 -57t16.5 -72q1 -39 -13 -73.5t-39.5 -60t-59.5 -40.5t-72 -14q-38 0 -72 15.5t-58 42.5t-37 63.5t-9 78.5z" />
<glyph unicode="&#x641;" horiz-adv-x="2531" arabic-form="final" d="M127 348q0 68 10 124t30 106q22 52 50 99t65 83q43 33 87.5 60.5t96.5 50.5q52 20 103.5 30.5t112.5 10.5v-308l-92 -19q-24 -8 -46.5 -22t-36.5 -33q-14 -14 -27 -35t-21 -45l-21 -108q0 -64 21 -109q8 -24 21 -46t27 -36q21 -20 40 -33.5t43 -22.5l92 -20h508h186 l-46 129q-5 32 -9 69t-4 75q0 63 10 116.5t31 107.5q24 52 53 99.5t67 90.5q43 37 87.5 67.5t96.5 54.5q54 23 110.5 32.5t119.5 9.5q62 0 118.5 -9.5t108.5 -32.5q54 -24 98 -53t84 -69q36 -43 69 -90.5t58 -99.5q24 -54 33.5 -111t9.5 -119q0 -57 -9.5 -113t-33.5 -108 q-5 -12 -10.5 -23.5t-12.5 -22.5h188q-33 0 -47.5 -15t-14.5 -43v-200q0 -29 14.5 -42t47.5 -11h-701h-702h-508q-61 0 -112.5 14t-103.5 37t-96.5 52t-87.5 65q-37 44 -65 89t-50 97q-25 57 -34 113.5t-6 116.5zM1638 341q-2 -55 18.5 -103t56.5 -83t83.5 -55t101.5 -19 q52 1 98.5 22t80.5 56t53.5 82t18.5 99t-21 97.5t-54.5 79t-80.5 53t-98 19.5t-98.5 -19t-81 -52.5t-55.5 -79t-22 -97.5zM1697 1250q4 35 19 66t39 53.5t55 35.5t67 13q37 0 69 -13.5t56 -37.5t38.5 -57t16.5 -72q1 -39 -13 -73.5t-39.5 -60t-59.5 -40.5t-72 -14 q-38 0 -72 15.5t-58 42.5t-37 63.5t-9 78.5z" />
<glyph unicode="&#x641;" horiz-adv-x="1407" arabic-form="initial" d="M-62 20q0 55 62 55h187l-46 129q-5 33 -9.5 70t-4.5 75q0 63 10.5 116t30.5 107q25 52 53.5 99.5t66.5 91.5q43 36 87.5 67t96.5 55q54 23 110.5 32t119.5 9t119.5 -9t108.5 -32q54 -24 97.5 -53t83.5 -69q37 -44 70 -91.5t57 -99.5q24 -54 34 -110.5t10 -119.5 q0 -57 -10 -113t-34 -108q-24 -54 -57 -100t-70 -86q-40 -40 -83.5 -69t-97.5 -53q-104 -48 -228 -48h-702q-32 0 -47 13t-15 42v200zM449 340q-2 -55 18.5 -103t56.5 -83t83.5 -55t101.5 -19q52 1 98.5 22t80.5 56t53.5 82t18.5 99t-21 97.5t-54.5 79t-80.5 53t-98 19.5 t-98.5 -19t-81 -52.5t-55.5 -79t-22 -97.5zM508 1249q4 35 19 66t39 53.5t55 35.5t67 13q37 0 69 -13.5t56 -37.5t38.5 -57t16.5 -72q1 -39 -13 -73.5t-39.5 -60t-59.5 -40.5t-72 -14q-38 0 -72 15.5t-58 42.5t-37 63.5t-9 78.5z" />
<glyph unicode="&#x641;" horiz-adv-x="1338" arabic-form="medial" d="M-62 20q0 27 14.5 41t47.5 14h186l-46 129q-5 32 -9.5 69t-4.5 75q0 63 10.5 116.5t31.5 107.5q24 52 52.5 99.5t66.5 90.5q44 37 88 67.5t96 54.5q54 23 110.5 32.5t119.5 9.5t119.5 -9.5t108.5 -32.5q54 -24 98 -53t84 -69q36 -43 69 -90.5t57 -99.5q24 -54 34 -111 t10 -119q0 -57 -10 -113t-34 -108q-5 -12 -10.5 -23.5t-10.5 -22.5h184v-3q-62 0 -62 -55v-200q0 -56 62 -53h-701h-699q-33 0 -47.5 13t-14.5 42v201zM442 332q-2 -55 18.5 -103t56.5 -83t83.5 -55t101.5 -19q52 1 98.5 22t80.5 56t53.5 82t18.5 99t-21 97.5t-54.5 79 t-80.5 53t-98 19.5t-98.5 -19t-81 -52.5t-55.5 -79t-22 -97.5zM508 1249q4 35 19 66t39 53.5t55 35.5t67 13q37 0 69 -13.5t56 -37.5t38.5 -57t16.5 -72q1 -39 -13 -73.5t-39.5 -60t-59.5 -40.5t-72 -14q-38 0 -72 15.5t-58 42.5t-37 63.5t-9 78.5z" />
<glyph unicode="&#x642;" horiz-adv-x="2597" arabic-form="isolated" d="M127 349q0 68 10 123.5t29 106.5q23 52 51 98.5t64 83.5q44 32 88 59.5t96 50.5q52 21 104 31t112 10v-308l-92 -18q-24 -9 -46.5 -22.5t-36.5 -32.5q-14 -14 -26.5 -35.5t-21.5 -45.5l-21 -108q0 -63 21 -108q9 -24 21.5 -46.5t26.5 -36.5q21 -19 40 -33t43 -22l92 -21 h695l-46 129q-5 33 -9.5 70t-4.5 75q0 63 10.5 116t30.5 107q25 52 53.5 99.5t66.5 91.5q44 36 88 67t96 55q54 23 110.5 32t119.5 9t119.5 -9t108.5 -32q54 -24 98 -53t83 -69q37 -44 70 -91.5t57 -99.5q24 -54 34 -110.5t10 -119.5q0 -57 -10 -113t-34 -108 q-24 -54 -57 -100t-70 -86q-39 -40 -83 -69t-98 -53q-104 -48 -228 -48h-1210q-60 0 -112 13.5t-104 36.5t-96 52t-88 66q-71 84 -115 186q-24 57 -33.5 113t-5.5 117zM1488 1254q4 35 19 66t39 53.5t55 35.5t67 13q37 0 69 -13.5t56 -37.5t38.5 -57t16.5 -72 q1 -39 -13 -73.5t-39.5 -60t-59.5 -40.5t-72 -14q-38 0 -72 15.5t-58 42.5t-37 63.5t-9 78.5zM1638 341q-2 -55 18.5 -103t56.5 -83t83.5 -55t101.5 -19q52 1 98.5 22t80.5 56t53.5 82t18.5 99t-21 97.5t-54.5 79t-80.5 53t-98 19.5t-98.5 -19t-81 -52.5t-55.5 -79 t-22 -97.5zM1911 1252q4 35 19 66t39 53.5t55 35.5t67 13q37 0 69 -13.5t56 -37.5t38.5 -57t16.5 -72q1 -39 -13 -73.5t-39.5 -60t-59.5 -40.5t-72 -14q-38 0 -72 15.5t-58 42.5t-37 63.5t-9 78.5z" />
<glyph unicode="&#x642;" horiz-adv-x="2533" arabic-form="final" d="M129 348q0 67 10 123t30 107q22 52 50 98.5t65 82.5q43 33 87.5 60.5t96.5 50.5q52 20 103.5 30.5t112.5 10.5v-308l-92 -18q-24 -9 -46.5 -22.5t-36.5 -33.5q-14 -14 -27 -35t-21 -45l-21 -108q0 -63 21 -108q8 -25 21 -47t27 -36q21 -19 40 -33t43 -22l92 -21h694 l-46 129q-5 32 -9 69.5t-4 75.5q0 62 10 115.5t31 107.5q24 52 53 99.5t67 91.5q43 36 87.5 66.5t96.5 55.5q54 22 110.5 31.5t119.5 9.5q62 0 118.5 -9.5t108.5 -31.5q54 -25 98 -53.5t84 -68.5q36 -44 69 -91.5t58 -99.5q24 -54 33.5 -110.5t9.5 -119.5q0 -57 -9.5 -113 t-33.5 -108q-5 -12 -10.5 -23.5t-12.5 -22.5h188v-2q-33 0 -47.5 -14t-14.5 -42v-200q0 -29 14.5 -42t47.5 -11h-1911q-61 0 -112.5 14t-103.5 37t-96.5 52t-87.5 65q-72 86 -115 187q-25 57 -34 113t-6 117zM1469 1251q4 35 19 66t39 53.5t55 35.5t67 13q37 0 69 -13.5 t56 -37.5t38.5 -57t16.5 -72q1 -39 -13 -73.5t-39.5 -60t-59.5 -40.5t-72 -14q-38 0 -72 15.5t-58 42.5t-37 63.5t-9 78.5zM1636 340q-2 -55 18.5 -103t56.5 -83t83.5 -55t101.5 -19q52 1 98.5 22t80.5 56t53.5 82t18.5 99t-21 97.5t-54.5 79t-80.5 53t-98 19.5t-98.5 -19 t-81 -52.5t-55.5 -79t-22 -97.5zM1892 1249q4 35 19 66t39 53.5t55 35.5t67 13q37 0 69 -13.5t56 -37.5t38.5 -57t16.5 -72q1 -39 -13 -73.5t-39.5 -60t-59.5 -40.5t-72 -14q-38 0 -72 15.5t-58 42.5t-37 63.5t-9 78.5z" />
<glyph unicode="&#x642;" horiz-adv-x="1407" arabic-form="initial" d="M-62 20q0 55 62 55h187l-46 129q-5 33 -9.5 70t-4.5 75q0 63 10.5 116t30.5 107q25 52 53.5 99.5t66.5 91.5q43 36 87.5 67t96.5 55q54 23 110.5 32t119.5 9t119.5 -9t108.5 -32q54 -24 97.5 -53t83.5 -69q37 -44 70 -91.5t57 -99.5q24 -54 34 -110.5t10 -119.5 q0 -57 -10 -113t-34 -108q-24 -54 -57 -100t-70 -86q-40 -40 -83.5 -69t-97.5 -53q-104 -48 -228 -48h-702q-32 0 -47 13t-15 42v200zM280 1249q4 35 19 66t39 53.5t55 35.5t67 13q37 0 69 -13.5t56 -37.5t38.5 -57t16.5 -72q1 -39 -13 -73.5t-39.5 -60t-59.5 -40.5t-72 -14 q-38 0 -72 15.5t-58 42.5t-37 63.5t-9 78.5zM443 333q-2 -55 18.5 -103t56.5 -83t83.5 -55t101.5 -19q52 1 98.5 22t80.5 56t53.5 82t18.5 99t-21 97.5t-54.5 79t-80.5 53t-98 19.5t-98.5 -19t-81 -52.5t-55.5 -79t-22 -97.5zM703 1247q4 35 19 66t39 53.5t55 35.5t67 13 q37 0 69 -13.5t56 -37.5t38.5 -57t16.5 -72q1 -39 -13 -73.5t-39.5 -60t-59.5 -40.5t-72 -14q-38 0 -72 15.5t-58 42.5t-37 63.5t-9 78.5z" />
<glyph unicode="&#x642;" horiz-adv-x="1337" arabic-form="medial" d="M-63 20q0 28 14.5 41.5t47.5 13.5h186l-46 129q-5 32 -9.5 69.5t-4.5 75.5q0 62 10.5 115.5t31.5 107.5q24 52 52.5 99.5t66.5 91.5q44 36 88 66.5t96 55.5q54 22 110.5 31.5t119.5 9.5t119.5 -9.5t108.5 -31.5q54 -25 98 -53.5t84 -68.5q36 -44 69 -91.5t57 -99.5 q24 -54 34 -110.5t10 -119.5q0 -57 -10 -113t-34 -108q-5 -12 -10.5 -23.5t-10.5 -22.5h184q-62 0 -62 -58v-200q0 -56 62 -53h-701h-699q-33 0 -47.5 13.5t-14.5 42.5v200zM280 1249q4 35 19 66t39 53.5t55 35.5t67 13q37 0 69 -13.5t56 -37.5t38.5 -57t16.5 -72 q1 -39 -13 -73.5t-39.5 -60t-59.5 -40.5t-72 -14q-38 0 -72 15.5t-58 42.5t-37 63.5t-9 78.5zM441 333q-2 -55 18.5 -103t56.5 -83t83.5 -55t101.5 -19q52 1 98.5 22t80.5 56t53.5 82t18.5 99t-21 97.5t-54.5 79t-80.5 53t-98 19.5t-98.5 -19t-81 -52.5t-55.5 -79t-22 -97.5 zM703 1247q4 35 19 66t39 53.5t55 35.5t67 13q37 0 69 -13.5t56 -37.5t38.5 -57t16.5 -72q1 -39 -13 -73.5t-39.5 -60t-59.5 -40.5t-72 -14q-38 0 -72 15.5t-58 42.5t-37 63.5t-9 78.5z" />
<glyph unicode="&#x643;" horiz-adv-x="2230" arabic-form="isolated" d="M130 349q0 68 9.5 123.5t29.5 106.5q23 52 50.5 98.5t64.5 83.5q43 32 87.5 59.5t96.5 50.5q52 21 103.5 31.5t112.5 10.5v-309l-92 -18q-24 -9 -46.5 -22.5t-36.5 -32.5q-14 -14 -27 -35.5t-21 -45.5l-21 -108q0 -63 21 -108q8 -24 21 -46.5t27 -36.5q21 -19 40 -32.5 t43 -22.5l92 -21h1104v1279h315v-1589h-1419q-61 0 -112.5 14t-103.5 36q-52 23 -96.5 52t-87.5 66q-37 43 -64.5 88.5t-50.5 97.5q-25 57 -34 113.5t-5 116.5zM826 676v195h207l-34 85q-5 14 -10.5 34.5t-5.5 48.5l23 115q14 29 31 52.5t38 44.5l41 43q29 28 65.5 43 t77 18.5t82.5 -3.5t81.5 -21t74.5 -34.5t61 -45.5l21 -21l-118 -163l-27 34q-26 29 -57 45.5t-68 16.5l-57 -16l-39 -32l-30 -41l-5 -58l5 -48l30 -42l64 -39l85 -16h217v-195h-753z" />
<glyph unicode="&#x643;" horiz-adv-x="2232" arabic-form="final" d="M129 349q0 68 10 123.5t29 106.5q23 52 51 98.5t64 83.5q44 32 88 59.5t96 50.5q52 21 104 31.5t112 10.5v-309l-92 -18q-24 -9 -46 -22.5t-36 -32.5q-14 -14 -27 -35.5t-22 -45.5l-20 -108q0 -31 4.5 -58t15.5 -50q9 -24 22 -46.5t27 -36.5q20 -19 39 -32.5t43 -22.5 l92 -21h1104v1279h315v-1279h155q-37 0 -51 -14t-9 -39v-202q-5 -24 9 -39.5t51 -15.5h-1574q-60 0 -112 14t-104 36q-52 23 -96 52t-88 66q-71 84 -115 186q-24 57 -33.5 113.5t-5.5 116.5zM826 676v195h207l-35 85q-5 14 -10.5 34.5t-5.5 48.5l23 115q14 29 31.5 52.5 t37.5 44.5l42 43q43 42 103 54.5t122 3.5t119.5 -36.5t96.5 -64.5l21 -21l-117 -163l-28 34q-26 29 -57 45.5t-67 16.5l-58 -16l-39 -32l-30 -41l-4 -58l4 -48l30 -42l65 -39l85 -16h216v-195h-752z" />
<glyph unicode="&#x643;" horiz-adv-x="1352" arabic-form="initial" d="M-49 19q0 25 11.5 40.5t37.5 15.5h657l97 20q26 11 46.5 25t36.5 28q15 16 29.5 40t25.5 50t16 52.5t5 50.5q0 32 -5 58.5t-16 52.5l-55 90l-83 55l-97 18h-595v308l501 702l253 -184l-370 -518h211q63 0 119 -9t107 -30q54 -20 99 -50.5t80 -66.5q38 -36 67.5 -79.5 t49.5 -90.5q26 -59 37.5 -115.5t11.5 -119.5q0 -68 -11.5 -125.5t-37.5 -113.5q-41 -114 -117 -186q-35 -42 -80 -73t-99 -58q-51 -20 -107 -31t-119 -11h-664q-21 5 -31.5 20t-10.5 35v200z" />
<glyph unicode="&#x643;" horiz-adv-x="1233" arabic-form="medial" d="M-49 19q0 25 11.5 40.5t37.5 15.5h657l97 20q26 11 46.5 25t36.5 28q16 16 30 40t25 50t16 52.5t5 50.5q0 32 -5 58.5t-16 52.5l-55 90l-83 55l-97 18h-595v308l501 702l253 -184l-370 -518h211q63 0 119 -9t107 -30q54 -20 99 -50.5t80 -66.5q38 -36 67.5 -79.5 t50.5 -90.5q26 -59 37 -115.5t11 -119.5q0 -68 -11 -125.5t-37 -113.5l-21 -48h136q-33 0 -47.5 -13.5t-14.5 -37.5v-209q0 -24 14.5 -35.5t47.5 -15.5h-1302q-21 5 -31.5 20t-10.5 35v200z" />
<glyph unicode="&#x644;" horiz-adv-x="1700" arabic-form="isolated" d="M122 -147q-3 57 5 107.5t25 97.5q9 47 28.5 93.5t45.5 83.5q31 45 61.5 82.5t66.5 73.5q37 35 74.5 62t89.5 53l41 21l150 -285l-42 -21l-87 -60l-69 -96q-21 -21 -31 -46t-15 -51q-7 -26 -11.5 -52.5t-4.5 -62.5q0 -40 6 -76.5t21 -73.5q23 -38 43.5 -71t46.5 -57 q26 -25 60 -45.5t69 -37.5q40 -14 78 -23t78 -9q42 0 82 9t84 23q69 35 119 83q26 24 50 57t38 71q17 37 23 73.5t11 76.5v1504h315v-1504q0 -45 -6 -91t-23 -91q-9 -52 -25 -94.5t-42 -84.5q-26 -35 -56 -73.5t-59 -76.5q-36 -29 -71 -55.5t-72 -52.5q-47 -28 -89.5 -46 t-87.5 -30l-198 -27q-47 0 -96 6.5t-92 20.5q-47 12 -90 30t-90 46q-42 26 -76.5 52.5t-65.5 55.5q-37 38 -66.5 76.5t-53.5 73.5q-23 42 -39 84.5t-30 94.5q-17 45 -21.5 91t-1.5 91z" />
<glyph unicode="&#x644;" horiz-adv-x="1652" arabic-form="final" d="M107 -147q-4 57 4 107.5t25 97.5q9 47 28.5 93.5t45.5 83.5q31 45 62 82.5t67 73.5q36 35 73.5 62t89.5 53l42 21l149 -285l-41 -21l-88 -60l-69 -96q-20 -21 -30.5 -46t-15.5 -51q-7 -26 -11.5 -52.5t-4.5 -62.5q0 -40 6 -76.5t22 -73.5q23 -38 43 -71t46 -57 q26 -25 60 -45.5t69 -37.5q40 -14 78.5 -23t78.5 -9q42 0 82 9t83 23q68 34 120 83q26 24 49.5 57t37.5 71q17 37 23.5 73.5t11.5 76.5v1504h315v-1283h154q-36 0 -50.5 -14.5t-9.5 -38.5v-203q-5 -24 9.5 -39.5t50.5 -15.5h-161q-4 -24 -9 -46t-14 -46q-8 -52 -24.5 -94.5 t-42.5 -84.5q-26 -35 -56 -73.5t-59 -76.5q-36 -29 -71 -55.5t-71 -52.5q-47 -28 -89.5 -46t-87.5 -30l-198 -27q-47 0 -96 6.5t-93 20.5q-47 12 -89.5 30t-89.5 46q-42 26 -76.5 52.5t-66.5 55.5q-36 38 -65.5 76.5t-53.5 73.5q-23 42 -39 84.5t-30 94.5q-17 45 -22 91 t-1 91z" />
<glyph unicode="&#x644;" horiz-adv-x="621" arabic-form="initial" d="M-64 24q0 23 14.5 36.5t49.5 13.5h163v1279h315v-1589h-478q-35 0 -49.5 14t-14.5 36v210z" />
<glyph unicode="&#x644;" horiz-adv-x="551" arabic-form="medial" d="M-56 21q0 24 14.5 39t40.5 15h158v1286h309v-1286h145q-36 0 -50.5 -15t-9.5 -39v-202q-5 -24 9.5 -39.5t50.5 -15.5h-619q-26 7 -37 20.5t-11 34.5v202z" />
<glyph unicode="&#x645;" horiz-adv-x="1831" arabic-form="isolated" d="M182.5 -39.5q5.5 120.5 38.5 235.5t91 222.5t141 199t190 164t236 118.5q52 12 109 18.5t120 6.5q98 0 180 -25.5t148.5 -72t118 -112t89.5 -144.5q24 -54 33.5 -110.5t9.5 -119.5q0 -70 -15 -138t-51 -129q-1 -8 -34 -54.5t-70 -86.5q-40 -39 -83.5 -68t-97.5 -53 q-102 -49 -228 -49q-132 5 -235.5 51.5t-178.5 121.5q-15 12 -20.5 23t-29.5 34q-4 12 -9 21t-15 24.5t-27 43t-45 77.5q-29 -82 -36 -163t2 -157.5t30.5 -146.5t48 -131t55.5 -111t52.5 -86t39.5 -56.5t16 -22.5h-353q-81 98 -131.5 209t-72.5 228.5t-16.5 238zM851 343 q-2 -55 17.5 -103t54 -84.5t81 -57.5t99.5 -22q56 -2 104.5 20t84.5 60t55.5 88t17.5 105q-2 52 -22 97.5t-54 79.5t-79 54t-97 21q-53 1 -100 -19t-82.5 -55.5t-57 -83t-22.5 -100.5z" />
<glyph unicode="&#x645;" horiz-adv-x="1735" arabic-form="final" d="M226.5 -39.5q5.5 120.5 38.5 235.5t91 222.5t141 199t190 164t236 118.5q52 12 109 18.5t120 6.5q98 0 180 -25.5t148.5 -72t118 -112t89.5 -144.5q24 -54 33.5 -110.5t9.5 -119.5q0 -70 -15 -138t-51 -129h128q-30 0 -44 -13.5t-14 -37.5v-209q0 -23 14 -37t44 -14h-641 q-132 5 -235.5 51.5t-178.5 121.5q-15 12 -20.5 23t-29.5 34q-4 12 -9 21t-15 24.5t-27 43t-45 77.5q-29 -82 -36 -163t2 -157.5t30.5 -146.5t48 -131t55.5 -111t52.5 -86t39.5 -56.5t16 -22.5h-353q-81 98 -131.5 209t-72.5 228.5t-16.5 238zM895 343q-2 -55 17.5 -103 t54 -84.5t81 -57.5t99.5 -22q56 -2 104.5 20t84.5 60t55.5 88t17.5 105q-2 52 -22 97.5t-54 79.5t-79 54t-97 21q-53 1 -100 -19t-82.5 -55.5t-57 -83t-22.5 -100.5z" />
<glyph unicode="&#x645;" horiz-adv-x="1344" arabic-form="initial" d="M-62 20q0 55 62 55h187l-46 129q-5 33 -9.5 70t-4.5 75q0 63 10.5 116t30.5 107q25 52 53.5 99.5t66.5 91.5q43 36 87.5 67t96.5 55q54 23 110.5 32t119.5 9t119.5 -9t108.5 -32q54 -24 97.5 -53t83.5 -69q37 -44 70 -91.5t57 -99.5q24 -54 34 -110.5t10 -119.5 q0 -57 -10 -113t-34 -108q-24 -54 -57 -100t-70 -86q-40 -40 -83.5 -69t-97.5 -53q-104 -48 -228 -48h-702q-32 0 -47 13t-15 42v200zM443 355q-2 -55 17.5 -103t54 -84.5t81 -57.5t99.5 -22q56 -2 104.5 20t84.5 60t55.5 88t17.5 105q-2 52 -22 97.5t-54 79.5t-79 54 t-97 21q-53 1 -100 -19t-82.5 -55.5t-57 -83t-22.5 -100.5z" />
<glyph unicode="&#x645;" horiz-adv-x="1337" arabic-form="medial" d="M-50 24q0 51 50 51h118l-7 53v39q0 45 5 83t13 71q16 40 32 74.5t35 70.5l92 122l122 90l142 59l154 26q65 0 123 -10.5t110 -33.5q55 -26 100.5 -59.5t90.5 -71.5q38 -45 71 -92.5t58 -103.5q24 -54 33.5 -107.5t9.5 -117.5v-39l-7 -53h99q-57 0 -57 -51v-209 q0 -23 14 -37t43 -14h-246q-43 -43 -92.5 -81.5t-109.5 -67.5q-52 -24 -113.5 -37.5t-126.5 -13.5q-67 0 -129.5 13.5t-116.5 37.5q-52 26 -100 63.5t-86 85.5h-281q-24 0 -33.5 14t-9.5 37v209zM453 167q-2 -55 17.5 -103t54 -84.5t81 -57.5t99.5 -22q56 -2 104.5 20 t84.5 60t55.5 88t17.5 105q-2 52 -22 97.5t-54 79.5t-79 54t-97 21q-53 1 -100 -19t-82.5 -55.5t-57 -83t-22.5 -100.5z" />
<glyph unicode="&#x646;" horiz-adv-x="1824" arabic-form="isolated" d="M123 201q0 52 5.5 104.5t19.5 104.5q14 54 37.5 104t52.5 94q29 43 62 85t71 80t81.5 70.5t95.5 56.5l46 21l120 -263l-19 -11q-32 -16 -57.5 -34.5t-50.5 -41.5l-82 -104l-51 -112l-18 -134q0 -54 7.5 -101.5t21.5 -89.5q39 -86 97 -154q33 -32 70.5 -58t81.5 -50 q43 -14 91 -23t100 -9t99.5 9t91.5 23q43 20 84.5 44.5t73.5 59.5q25 28 48 60.5t42 72.5q19 38 29 79t15 84v753h310v-720q0 -57 -4.5 -110t-20.5 -107q-14 -52 -36.5 -96t-46.5 -88q-23 -43 -55 -84.5t-64 -73.5q-38 -38 -80.5 -70.5t-85.5 -56.5q-44 -24 -88 -43t-96 -33 l-209 -32l-210 32q-54 14 -100.5 33t-90.5 43q-43 24 -84.5 56.5t-73.5 70.5q-35 32 -66.5 73.5t-55.5 84.5q-29 44 -49 88t-34 96q-14 54 -19.5 107t-5.5 110zM873 750q4 35 19 66t39 53.5t55 35.5t67 13q37 0 69 -13.5t56 -37.5t38.5 -57t16.5 -72q1 -39 -13 -73.5 t-39.5 -60t-59.5 -40.5t-72 -14q-38 0 -72 15.5t-58 42.5t-37 63.5t-9 78.5z" />
<glyph unicode="&#x646;" horiz-adv-x="1714" arabic-form="final" d="M120 201q0 56 10 109.5t27 107.5q14 50 34 96.5t46 93.5q55 97 141 168q42 37 87 67t92 58l41 27l118 -262l-14 -14l-111 -78q-49 -41 -85 -101l-46 -120l-20 -129q0 -110 34 -188q16 -47 40.5 -86t53.5 -75q33 -32 69.5 -56.5t78.5 -38.5q47 -20 95 -31.5t100 -11.5 q51 0 98 10t95 24q47 16 84 40.5t68 56.5q32 31 57 66.5t42 73.5l39 163v750h311v-784l-5 -62h69q-28 0 -41.5 -14.5t-13.5 -40.5v-200q0 -26 11.5 -38.5t38.5 -17.5h-188q-26 -35 -54.5 -73t-65.5 -74l-158 -108q-44 -28 -87 -45t-91 -31l-204 -27l-214 32 q-47 15 -94.5 32.5t-94.5 45.5q-47 24 -83.5 55.5t-74.5 66.5q-37 38 -68 76t-57 85t-42.5 93.5t-30.5 94.5q-17 51 -27 104t-10 110zM879 753q4 35 19 66t39 53.5t55 35.5t67 13q37 0 69 -13.5t56 -37.5t38.5 -57t16.5 -72q1 -39 -13 -73.5t-39.5 -60t-59.5 -40.5t-72 -14 q-38 0 -72 15.5t-58 42.5t-37 63.5t-9 78.5z" />
<glyph unicode="&#x646;" horiz-adv-x="743" arabic-form="initial" d="M-62 24q0 25 14.5 38t47.5 13h306v844h310v-1154h-616q-33 0 -47.5 13t-14.5 37v209zM264 1247q4 35 19 66t39 53.5t55 35.5t67 13q37 0 69 -13.5t56 -37.5t38.5 -57t16.5 -72q1 -39 -13 -73.5t-39.5 -60t-59.5 -40.5t-72 -14q-38 0 -72 15.5t-58 42.5t-37 63.5t-9 78.5z " />
<glyph unicode="&#x646;" horiz-adv-x="796" arabic-form="medial" d="M-67 25q0 23 17 36.5t50 13.5h278v844h311v-844h271q-35 0 -49.5 -13.5t-14.5 -36.5v-210q0 -24 14 -34.5t43 -15.5h-853q-67 0 -67 50v210zM264 1243q4 35 19 66t39 53.5t55 35.5t67 13q37 0 69 -13.5t56 -37.5t38.5 -57t16.5 -72q1 -39 -13 -73.5t-39.5 -60 t-59.5 -40.5t-72 -14q-38 0 -72 15.5t-58 42.5t-37 63.5t-9 78.5z" />
<glyph unicode="&#x647;" horiz-adv-x="1422" arabic-form="isolated" d="M124 360q0 79 21.5 153.5t60 139t92.5 118.5t119.5 92t140 58.5t155.5 20.5q124 -1 231 -47t186 -125.5t124 -185.5t45 -226q1 -121 -44 -229t-124 -189t-186 -128.5t-230 -47.5q-122 0 -229.5 47.5t-188 129t-127.5 189.5t-46 230zM434 346q0 -58 23.5 -108.5 t63.5 -87.5t92 -57.5t109 -17.5q63 2 115 28.5t89 69t55.5 96.5t14.5 112q-7 52 -30.5 99t-59.5 82t-83 55.5t-101 20.5q-60 1 -112.5 -22t-91.5 -62.5t-61.5 -93.5t-22.5 -114z" />
<glyph unicode="&#x647;" horiz-adv-x="1329" arabic-form="final" d="M167 77q10 96 42 194t83 189.5t118 173t146.5 145.5t170.5 107t189 57t202 -5t209 -78v-785h65q-33 0 -47.5 -13t-14.5 -38v-209q0 -24 14.5 -35.5t47.5 -14.5h-1225v312zM512 75h508v532q-75 10 -138.5 -8.5t-117 -57.5t-95.5 -94t-73.5 -117.5t-52.5 -128.5t-31 -126z " />
<glyph unicode="&#x647;" horiz-adv-x="1933" arabic-form="initial" d="M-62 20q0 26 14.5 40.5t47.5 14.5h41q4 76 20 153t40 149q26 72 63 138t82 121q47 60 100 109.5t121 93.5q68 35 144 60t164 41v315h308v-315q87 -16 161.5 -41t140.5 -60q67 -44 123.5 -93.5t103.5 -109.5q47 -55 79.5 -121t56.5 -138q26 -72 42 -149t20 -153v-310 h-1810q-33 0 -47.5 15.5t-14.5 41.5v198zM377 75h398v541q-47 -9 -84 -28.5t-72 -45.5q-38 -26 -68.5 -57t-56.5 -67q-26 -35 -46.5 -73.5t-35.5 -85.5q-35 -91 -35 -184zM1083 75h401q0 47 -11 93t-26 91q-14 47 -34.5 85.5t-46.5 73.5l-124 124q-36 26 -74 45.5t-85 28.5 v-541z" />
<glyph unicode="&#x647;" horiz-adv-x="1806" arabic-form="medial" d="M-62 19q0 55 62 55h42q3 76 19 153t41 149q26 72 62.5 138t81.5 121q48 60 101 109.5t120 93.5q68 35 144 60t164 41v315h309v-315q88 -16 162 -41t141 -60q66 -44 122.5 -93.5t103.5 -109.5q47 -55 79 -121t56 -138q26 -72 42.5 -149t19.5 -153h56q-71 0 -60 -55v-198 q-5 -26 10 -41.5t50 -15.5h-1866q-31 0 -46.5 15.5t-15.5 41.5v198zM378 74h397v541q-47 -9 -84 -28.5t-72 -45.5q-38 -26 -68 -57t-56 -67q-26 -35 -46.5 -73.5t-36.5 -85.5q-16 -45 -25 -91t-9 -93zM1084 74h400q0 47 -10.5 93t-24.5 91q-15 47 -35.5 85.5t-46.5 73.5 l-125 124q-36 26 -73.5 45.5t-84.5 28.5v-541z" />
<glyph unicode="&#x648;" horiz-adv-x="1445" arabic-form="isolated" d="M123 346l23 161q11 37 25 70.5t37 65.5l90 115l115 92l142 60l161 23h19l202 -30q54 -14 99.5 -39.5t87.5 -61.5q34 -33 63.5 -67.5t53.5 -84.5q56 -94 73 -216l12 -152l-12 -207q-15 -64 -25.5 -103t-19.5 -69.5t-20 -61t-27 -76.5l-142 -276q-47 -73 -103.5 -147 t-131.5 -157l-264 207l179 200q36 47 70.5 96t58.5 100l-154 -23h-32q-56 5 -112.5 16.5t-108.5 26.5q-52 20 -99 46t-78 62q-49 40 -81 88t-53 103q-27 56 -37.5 114.5t-10.5 124.5zM454 346q0 -27 5 -54t16 -51q8 -29 25 -52.5t46 -37.5q12 -16 28.5 -28t47.5 -16l99 -20 l81 -7h55l131 20l16 141l-16 105q-5 35 -11 63t-21 59l-58 81q-12 16 -31.5 29t-51.5 22l-99 27l-112 -27q-26 -9 -45 -22t-38 -29l-46 -88z" />
<glyph unicode="&#x648;" horiz-adv-x="1360" arabic-form="final" d="M123 351l23 157q11 38 26 72.5t34 67.5l92 117l115 90l147 62l161 21h18l198 -28q59 -14 106 -40.5t85 -62.5q35 -32 65.5 -69.5t54.5 -82.5q26 -48 46 -101.5t25 -112.5l12 -159l-12 -207h99q-28 0 -43 -15.5t-15 -39.5v-202q0 -23 10 -35.5t36 -17.5h-177l-142 -276 q-49 -75 -107 -150.5t-130 -155.5l-262 207l179 200q35 47 66.5 97.5t57.5 95.5l-152 -18h-36q-54 5 -110.5 14t-108.5 25q-54 21 -99 47.5t-80 62.5q-49 44 -80.5 90.5t-50.5 105.5q-26 57 -38.5 113.5t-12.5 127.5zM452 351q0 -31 6 -58.5t17 -53.5t28.5 -50t45.5 -40 q14 -16 30.5 -25.5t42.5 -13.5l104 -23l80 -7h51l135 23l19 136l-19 112q-5 32 -10.5 61.5t-21.5 53.5l-57 83q-30 36 -83 55l-99 21l-113 -21q-26 -10 -45.5 -24t-39.5 -31l-48 -89z" />
<glyph unicode="&#x649;" horiz-adv-x="2543" arabic-form="isolated" d="M129 348q0 68 9.5 123.5t29.5 106.5q23 52 50.5 98.5t64.5 83.5q43 32 87.5 59.5t96.5 50.5q52 21 103.5 31.5t112.5 10.5v-309l-92 -18q-24 -9 -46.5 -22.5t-36.5 -32.5q-14 -14 -27 -35.5t-21 -45.5l-21 -108q0 -63 21 -108q8 -24 21 -46.5t27 -36.5q21 -19 40 -32.5 t43 -22.5l92 -21h941v549q22 156 100.5 216t225.5 59h467v-1134h-315v834q-88 10 -126 -25.5t-37 -107.5v-701h-1256q-61 0 -112.5 14t-103.5 36q-52 23 -96.5 52t-87.5 66q-37 43 -64.5 88.5t-50.5 97.5q-25 57 -34 113.5t-5 116.5z" />
<glyph unicode="&#x649;" horiz-adv-x="2469" arabic-form="final" d="M128 349q0 68 9.5 123.5t29.5 106.5q23 52 50.5 98.5t64.5 83.5q43 32 87.5 59.5t96.5 50.5q52 21 103.5 31t112.5 10v-308l-92 -18q-24 -9 -46.5 -22.5t-36.5 -32.5q-14 -14 -27 -35.5t-21 -45.5l-21 -108q0 -63 21 -108q8 -24 21 -46.5t27 -36.5q21 -19 40 -33t43 -22 l92 -21h941v547q22 156 100.5 216t225.5 61h467v-824h113q-36 0 -50.5 -14.5t-9.5 -38.5v-202q-5 -24 9.5 -39.5t50.5 -15.5h-428l-1 837q-88 10 -126 -25.5t-36 -110.5v-701h-1256q-61 0 -112.5 13.5t-103.5 36.5t-96.5 52t-87.5 66q-37 43 -64.5 88.5t-50.5 97.5 q-24 57 -33.5 113t-5.5 117z" />
<glyph unicode="&#x64a;" horiz-adv-x="2539" arabic-form="isolated" d="M126 349q0 68 9.5 123.5t29.5 106.5q23 52 50.5 98.5t64.5 83.5q43 32 87.5 59.5t96.5 50.5q52 21 103.5 31.5t112.5 10.5v-309l-92 -18q-24 -9 -46.5 -22.5t-36.5 -32.5q-14 -14 -27 -35.5t-21 -45.5l-21 -108q0 -63 21 -108q8 -24 21 -46.5t27 -36.5q21 -19 40 -32.5 t43 -22.5l92 -21h941v549q22 156 100.5 216t225.5 59h467v-1134h-315v834q-88 10 -126 -25.5t-37 -107.5v-701h-1256q-61 0 -112.5 14t-103.5 36q-52 23 -96.5 52t-87.5 66q-37 43 -64.5 88.5t-50.5 97.5q-25 57 -34 113.5t-5 116.5zM829 -568q4 35 19 66t39 53.5t55 35.5 t67 13q37 0 69 -13.5t56 -37.5t38.5 -57t16.5 -72q1 -39 -13 -73.5t-39.5 -60t-59.5 -40.5t-72 -14q-38 0 -72 15.5t-58 42.5t-37 63.5t-9 78.5zM1254.5 -580q1.5 47 22 86.5t59.5 65.5t96 26q37 0 69 -13.5t56 -37.5t38.5 -57t16.5 -72q1 -39 -13 -73.5t-39.5 -60 t-59.5 -40.5t-72 -14q-60 4 -99 33t-57.5 69.5t-17 87.5z" />
<glyph unicode="&#x64a;" horiz-adv-x="2471" arabic-form="final" d="M129 349q0 68 9.5 123.5t29.5 106.5q23 52 50.5 98.5t64.5 83.5q43 32 87.5 59.5t96.5 50.5q52 21 103.5 31.5t112.5 10.5v-309l-92 -18q-24 -9 -46.5 -22.5t-36.5 -32.5q-14 -14 -27 -35.5t-21 -45.5l-21 -108q0 -63 21 -108q8 -24 21 -46.5t27 -36.5q21 -19 40 -32.5 t43 -22.5l92 -21h941v548q22 156 100.5 216t225.5 60h467v-824h113q-36 0 -50.5 -14t-9.5 -39v-202q-5 -24 9.5 -39.5t50.5 -15.5h-428v834q-89 13 -127 -22.5t-36 -110.5v-701h-1256q-61 0 -112.5 14t-103.5 36q-52 23 -96.5 52t-87.5 66q-37 43 -64.5 88.5t-50.5 97.5 q-24 57 -33.5 113.5t-5.5 116.5zM839 -570q4 35 19 66t39 53.5t55 35.5t67 13q37 0 69 -13.5t56 -37.5t38.5 -57t16.5 -72q1 -39 -13 -73.5t-39.5 -60t-59.5 -40.5t-72 -14q-38 0 -72 15.5t-58 42.5t-37 63.5t-9 78.5zM1264.5 -582q1.5 47 22 86.5t59.5 65.5t96 26 q37 0 69 -13.5t56 -37.5t38.5 -57t16.5 -72q1 -39 -13 -73.5t-39.5 -60t-59.5 -40.5t-72 -14q-60 4 -99 33t-57.5 69.5t-17 87.5z" />
<glyph unicode="&#x64a;" horiz-adv-x="1013" arabic-form="initial" d="M-64 24q0 24 14.5 37t49.5 13h571v847h313v-1157h-884q-35 0 -49.5 13t-14.5 37v210zM63 -567q4 35 19 66t39 53.5t55 35.5t67 13q37 0 69 -13.5t56 -37.5t38.5 -57t16.5 -72q1 -39 -13 -73.5t-39.5 -60t-59.5 -40.5t-72 -14q-38 0 -72 15.5t-58 42.5t-37 63.5t-9 78.5z M488.5 -579q1.5 47 22 86.5t59.5 65.5t96 26q37 0 69 -13.5t56 -37.5t38.5 -57t16.5 -72q1 -39 -13 -73.5t-39.5 -60t-59.5 -40.5t-72 -14q-60 4 -99 33t-57.5 69.5t-17 87.5z" />
<glyph unicode="&#x64a;" horiz-adv-x="796" arabic-form="medial" d="M-64 24q0 25 8.5 35.5t28.5 15.5h306v839h310v-839h267q-33 0 -47.5 -13t-14.5 -38v-209q0 -24 14.5 -35.5t47.5 -15.5h-858q-33 0 -47.5 13.5t-14.5 37.5v209zM29 -570q4 35 19 66t39 53.5t55 35.5t67 13q37 0 69 -13.5t56 -37.5t38.5 -57t16.5 -72q1 -39 -13 -73.5 t-39.5 -60t-59.5 -40.5t-72 -14q-38 0 -72 15.5t-58 42.5t-37 63.5t-9 78.5zM452 -572q4 35 19 66t39 53.5t55 35.5t67 13q37 0 69 -13.5t56 -37.5t38.5 -57t16.5 -72q1 -39 -13 -73.5t-39.5 -60t-59.5 -40.5t-72 -14q-38 0 -72 15.5t-58 42.5t-37 63.5t-9 78.5z" />
<glyph unicode=" "  horiz-adv-x="204" />
<glyph unicode="&#x09;" horiz-adv-x="204" />
<glyph unicode="&#xa0;" horiz-adv-x="204" />
<glyph unicode="!" horiz-adv-x="580" d="M90 -40q4 35 19 66t39 53.5t55.5 35.5t66.5 13q38 0 70.5 -13.5t57 -37.5t39 -57.5t16.5 -72.5q1 -39 -13 -73t-39.5 -59.5t-59.5 -40t-73 -13.5q-38 0 -72 15t-59 42t-38 63.5t-9 78.5zM127 230v1094h276v-1094h-276z" />
<glyph unicode="&#x22;" horiz-adv-x="866" d="M96 816v508h246l2 -508h-248zM96 816v508h246l2 -508h-248zM520 816v508h244l-6 -508h-238z" />
<glyph unicode="#" horiz-adv-x="3244" d="M182 -300v1729h2881v-1729h-2881zM251 470l4 -82q0 -40 2 -69.5t7 -52.5q8 -25 18 -43t26 -33q16 -16 33.5 -26.5t40.5 -15.5q24 -7 58 -11.5t77 -4.5h164q45 0 77.5 4.5t55.5 11.5q50 11 74 42q15 15 25.5 33t17.5 43q8 23 10 52.5t2 69.5v338h-426l-135 -16 q-23 -5 -42.5 -16.5t-31.5 -25.5q-16 -16 -26 -33.5t-18 -39.5q-5 -25 -9 -56t-4 -69zM303 919q0 -55 21 -71q7 -8 14.5 -11.5t15.5 -5.5l51 -4h64l53 4q8 2 15.5 5.5t12.5 11.5q20 17 20 71v124h-165l-51 -7q-19 -3 -30 -14q-21 -17 -21 -71v-32zM520 399v78q0 45 18 65 l18 13l42 5h78v-161q7 -47 -16 -67q-2 -3 -8 -7t-13 -6l-39 -5l-44 5q-5 2 -10.5 6t-7.5 7q-18 20 -18 67zM674 951l2 -32q-2 -28 4 -45.5t17 -25.5q7 -8 14 -11.5t16 -5.5l53 -4h59l56 4q8 2 15 5.5t12 11.5q24 16 21 71v124h-166l-50 -7l-30 -14q-23 -18 -23 -71zM883 68 q30 -23 83 -44q28 -11 59 -17t67 -6q60 2 102 14t66 32q50 44 58 85h1021q45 0 79.5 4.5t58.5 11.5q44 10 71 42q28 29 42 76q13 43 13 122v552h-266v-516q3 -50 -19 -64q-3 -5 -10 -9t-15 -7l-44 -2h-135q19 10 35.5 29.5t30.5 43.5q16 24 23 58t9 76q0 73 -50 124 q-28 26 -71 39.5t-106 13.5h-515v-253h423q19 0 31.5 -3.5t23.5 -10.5q16 -17 16 -39q0 -16 -6.5 -28.5t-18.5 -24.5q-22 -25 -67 -25h-543v384h-267v-451q-2 -29 -6.5 -54.5t-11.5 -44.5q-8 -19 -19 -34.5t-27 -27.5q-14 -12 -30.5 -22t-36.5 -17l-23 -5zM2718 132h265v808 h-265v-808z" />
<glyph unicode="$" horiz-adv-x="1241" d="M94 228.5q-1 39.5 0.5 67t1.5 28.5l271 -94l98 250q-168 62 -248 172t-78 266q1 89 36 167t93.5 136.5t136.5 92t166 34.5q31 1 58 -1t52 -8t50 -15.5t53 -24.5l58 152h280l-309 -809q106 -62 156 -158t53 -223q3 -98 -28.5 -184.5t-91.5 -153t-145 -108.5t-188 -50 q-15 -1 -31.5 0.5t-31 3t-24.5 3.5t-11 3l-84 -198h-291l137 327q-1 -1 -13.5 14t-30 39t-36 53t-30.5 56q-15 34 -21.5 78.5t-7.5 84zM422 914q-2 -42 20 -74t50 -53t51.5 -31.5t23.5 -9.5l105 271q-11 12 -25 23q-12 8 -30 15.5t-42 8.5q-31 1 -58 -10t-47.5 -32t-33 -49 t-14.5 -59zM590 70q1 0 11 0.5t25.5 4.5t33.5 13.5t35 28.5t30.5 48t19.5 73q3 15 -3 35t-15 37.5t-17 29.5t-10 13z" />
<glyph unicode="%" horiz-adv-x="1468" d="M96 1037q-1 67 26 127t73 105t106.5 70t128.5 24q66 -1 124.5 -26.5t102.5 -69t69.5 -102t25.5 -124.5q1 -67 -25.5 -126t-71.5 -103.5t-105.5 -70.5t-127.5 -26q-66 0 -125 25.5t-104 69t-71 102t-26 125.5zM174 -200l840 1536h264l-838 -1536h-266zM301 1041 q-1 -25 8.5 -48t26 -41t38.5 -28.5t48 -11.5t49 9.5t39.5 28t25 41.5t7.5 50q-2 25 -11.5 47.5t-25 39t-36 26t-44.5 10.5q-26 1 -48 -8.5t-39 -26.5t-27 -40t-11 -48zM705 85q-1 67 25.5 127t72.5 104.5t106.5 69.5t128.5 24q66 -1 124 -26.5t101.5 -68.5t69 -101 t25.5 -123q1 -68 -25 -127.5t-71 -104t-105 -70t-127 -24.5q-66 0 -125 25t-103.5 68.5t-70.5 102t-26 124.5zM909 91q-1 -26 8.5 -49.5t26 -41.5t39 -28.5t47.5 -11.5q26 -1 49 9.5t39.5 28.5t25 42t7.5 51q-2 51 -35.5 85t-83.5 36q-24 1 -46.5 -9t-39.5 -26.5t-27 -39 t-10 -46.5z" />
<glyph unicode="&#x26;" horiz-adv-x="1559" d="M90 277q2 61 14.5 112.5t36.5 97t59 85t83 76.5q-54 65 -74.5 133t-22.5 143q-1 89 35.5 167t98.5 135t143.5 89t171.5 31q87 -1 165 -33t137 -87.5t94.5 -130.5t37.5 -162q1 -83 -21.5 -142.5t-58 -101.5t-76.5 -67.5t-76.5 -39.5t-59.5 -18.5t-23 -3.5l198 -213 l213 295l238 -178l-258 -338l309 -326h-389l-98 98q-39 -38 -78.5 -62.5t-82.5 -40t-90.5 -22.5t-101.5 -8q-71 -2 -138 17.5t-126 55t-108 84t-83.5 106t-52.5 121t-16 128.5zM385 281q-3 -46 14.5 -85.5t49 -69.5t73.5 -49.5t88 -24.5q22 -2 50 6.5t53.5 20t43 22 t17.5 12.5l-301 336q-25 -27 -43 -55q-17 -24 -30 -54t-15 -59zM471 924q-2 -34 10.5 -62.5t35 -49.5t52.5 -33t62 -12t60.5 12t49.5 33t33 49.5t12 60.5q0 31 -12.5 59t-34 48.5t-50 32.5t-60.5 12t-59.5 -11.5t-48.5 -32t-34.5 -48t-15.5 -58.5z" />
<glyph unicode="'" horiz-adv-x="451" d="M96 816v508h246l2 -508h-248z" />
<glyph unicode="(" horiz-adv-x="1157" d="M117 564q2 177 43.5 320.5t108.5 257t151 199.5t172 148.5t172 104t149.5 66.5t106 35t41.5 10v-312l-26.5 -7t-70.5 -23.5t-101 -45t-116.5 -73.5t-117.5 -107.5t-104.5 -146.5t-76.5 -192t-34 -244q-4 -131 21.5 -237t70 -190.5t103 -148.5t120.5 -111.5t121.5 -79 t107 -50.5t76.5 -27l29 -8v-303q0 -1 -26.5 4.5t-72.5 19t-107 37t-130 59.5t-141.5 85.5t-140.5 116t-129 150t-105.5 187.5t-70 230t-23.5 276z" />
<glyph unicode=")" horiz-adv-x="1151" d="M92 -298l29 8t76.5 27t107 50.5t121.5 79t120.5 111.5t103 148.5t70 190.5t21.5 237q-4 136 -34 244t-76.5 192t-104.5 146.5t-117.5 107.5t-116.5 73.5t-101 45t-70.5 23.5l-26.5 7v312l40.5 -10t106 -35t149.5 -66.5t172 -104t172.5 -148.5t151 -199.5t108.5 -257 t44 -320.5q2 -150 -23.5 -276t-70 -230t-105.5 -187.5t-129 -150t-140.5 -116t-141.5 -85.5t-130 -59.5t-107 -37t-72.5 -19t-26.5 -4.5v303z" />
<glyph unicode="*" horiz-adv-x="1022" d="M96 1035l84 174l232 -133v248h196v-248l213 141l86 -168l-243 -139l243 -125l-84 -184l-215 133v-240h-196v240l-228 -143l-86 178l242 141z" />
<glyph unicode="+" horiz-adv-x="1321" d="M102 292l2 141h494v497h133v-499h496v-139h-500v-496h-129v496h-496z" />
<glyph unicode="," horiz-adv-x="610" d="M98 -456l185 217q-72 20 -115.5 69.5t-40.5 125.5q1 37 16 69.5t39 56.5t56 38.5t69 15.5q39 1 72.5 -13t59 -38t41.5 -57t18 -70q3 -32 -5 -56t-20 -53l-129 -305h-246z" />
<glyph unicode="-" horiz-adv-x="879" d="M90 234v281h674v-281h-674z" />
<glyph unicode="." horiz-adv-x="582" d="M96 -53q1 38 16 70.5t40.5 56.5t59 38t71.5 14q37 0 69.5 -13t58 -36t41 -54t17.5 -67q2 -41 -12 -76.5t-39.5 -62t-60.5 -41.5t-74 -15t-73 14.5t-59.5 40t-40.5 59.5t-14 72z" />
<glyph unicode="/" horiz-adv-x="1253" d="M121 -280l887 1716l100 -61l-887 -1714z" />
<glyph unicode="0" horiz-adv-x="1808" d="M96 568q2 109 32 209.5t83 187.5t127 158.5t163.5 122t191 77t210.5 25.5q108 -1 208.5 -30t188 -80.5t159.5 -123t123.5 -159t80 -187.5t29.5 -208q0 -108 -28 -209.5t-79.5 -190t-124.5 -162t-161 -126t-189 -82t-209 -29.5q-110 -1 -213.5 28t-193 82t-164 127 t-127 164t-81 193t-26.5 213zM399 560q-1 -103 37.5 -194.5t106.5 -159.5t160.5 -107t199.5 -37q102 1 191.5 41t156 107.5t104 157.5t36.5 192q-1 100 -39 188t-103.5 154t-153.5 105.5t-188 41.5q-106 2 -198 -35.5t-161 -104t-108.5 -156.5t-40.5 -193z" />
<glyph unicode="1" horiz-adv-x="666" d="M96 1039v287h453v-1526h-285v1239h-168z" />
<glyph unicode="2" horiz-adv-x="1192" d="M96 -200l264 379l252 379q30 45 59.5 85t53 80t38 81t13.5 86q-1 30 -14.5 61t-36 57t-53.5 43t-66 19q-50 1 -85 -12t-58.5 -33.5t-37 -45t-20.5 -46t-9 -36.5t-1 -16h-299l6 58q3 28 17 70.5t39.5 90t64.5 95t93 85.5t123.5 61.5t156.5 23.5q106 -1 193.5 -43t150 -111 t98 -157t37.5 -179q1 -55 -8 -100.5t-26.5 -86.5t-42.5 -82t-56 -87l-283 -426h396v-293h-959z" />
<glyph unicode="3" horiz-adv-x="1241" d="M90 265h305q1 -44 18 -82.5t46.5 -67t68 -45t82.5 -16.5q45 0 85.5 16t70 45t46 69.5t15.5 90.5q-2 63 -24.5 103.5t-54.5 64t-69.5 33.5t-69.5 13t-54 1.5t-23 -0.5v279q1 -1 18.5 -2t42.5 1.5t54 11t53 26.5t39 47.5t13 74.5q-2 32 -15 59.5t-33.5 47.5t-46 31.5 t-51.5 13.5q-45 2 -74 -15.5t-47 -40.5q-21 -26 -34 -61h-285q7 87 46 161t100 127.5t140 82.5t166 25q80 -3 153.5 -36t131 -88t93 -129t40.5 -159q3 -68 -15 -123t-41.5 -93.5t-44.5 -59t-24 -19.5q-1 -1 13.5 -9t37 -26t49 -46.5t50.5 -70.5t41 -97.5t20 -127.5 q3 -70 -14 -135.5t-50 -123t-80.5 -105.5t-104.5 -82t-122.5 -52t-134.5 -16q-94 3 -166 26t-127 59t-93.5 81t-64.5 91.5t-41 91t-23 79t-9 55.5z" />
<glyph unicode="4" horiz-adv-x="1323" d="M90 312l942 1083v-1079h168v-287h-162v-229h-295v229h-520zM461 312h287v334z" />
<glyph unicode="5" horiz-adv-x="1323" d="M88 263h303q11 -47 35 -85t58.5 -65t77.5 -41.5t91 -13.5q54 1 101.5 22t82.5 56.5t55 82.5t19 101q0 52 -20 98.5t-54.5 82t-81 56t-98.5 21.5q-51 0 -88.5 -14t-61.5 -30.5t-35 -30t-9 -13.5l-252 139l59 695h744v-287h-475l-21 -215q25 11 46 19t42 13t44 6.5t50 0.5 q111 -5 201.5 -48t156 -114.5t103.5 -166t43 -200.5q4 -77 -13 -149.5t-52 -136t-86 -116.5t-113.5 -90.5t-134.5 -57.5t-150 -19q-96 1 -171 23.5t-133 58t-100 80t-71 91t-47 90.5t-28 79t-13.5 56.5z" />
<glyph unicode="6" horiz-adv-x="1317" d="M96 306q0 56 9 101.5t25 87.5t38.5 84t48.5 91l352 654h353l-279 -504q22 2 38 3t38 -1q101 -4 188 -42t151.5 -104t102.5 -156t41 -198q4 -114 -38.5 -215.5t-117.5 -178t-175.5 -121.5t-213.5 -46q-114 -2 -216 40t-179 115.5t-122 173.5t-44 216zM395 296 q2 -53 23.5 -97t57 -76.5t82 -51t99.5 -19.5t100 21.5t81 60t52.5 87t14.5 103.5q-3 50 -24 93.5t-55.5 76t-79 51.5t-95.5 19q-54 1 -101.5 -21t-82.5 -59t-54.5 -85.5t-17.5 -102.5z" />
<glyph unicode="7" horiz-adv-x="1067" d="M90 -200l453 1235h-445v289h865l-533 -1524h-340z" />
<glyph unicode="8" horiz-adv-x="1282" d="M90 287q1 67 22 129t52 115t68 95t71 69q-54 60 -80 119.5t-24 140.5q1 85 34 159.5t90.5 130t135.5 87.5t170 31q83 0 157 -29.5t130.5 -83.5t91.5 -128.5t39 -164.5q1 -39 -11.5 -83.5t-28.5 -82t-30.5 -62.5t-15.5 -24q44 -38 80 -79t62 -89.5t41 -105.5t17 -127 q2 -75 -16.5 -144t-53.5 -129t-85 -109.5t-111 -84.5t-131.5 -54t-145.5 -18q-69 0 -135.5 19t-125.5 53t-108.5 82t-85.5 106t-55.5 124.5t-17.5 137.5zM387 302q-1 -51 16.5 -96t49.5 -79t77 -54t99 -19q51 0 94.5 19.5t75.5 53t50 78t17 93.5q0 48 -18 91t-49 75.5 t-73.5 51.5t-90.5 21q-50 1 -94.5 -17t-78.5 -50t-54 -75.5t-21 -92.5zM494 949q0 -27 9.5 -50.5t26.5 -40.5t41.5 -28t53.5 -12q29 -2 53 8.5t41 29.5t26.5 44t8.5 53q-2 56 -35.5 89.5t-93.5 33.5q-27 0 -50.5 -9.5t-41 -27t-28 -40.5t-11.5 -50z" />
<glyph unicode="9" horiz-adv-x="1288" d="M96 804q-4 113 41 215t123.5 178.5t183.5 120t222 38.5q103 -4 195.5 -44.5t161.5 -111.5t109 -168t39 -214q-1 -56 -15.5 -116t-35 -116.5t-42 -105t-36.5 -82.5l-251 -598h-320l221 512q-1 1 -11 -1.5t-25 -5.5t-33 -6t-33 -3q-102 2 -190.5 41t-155 106.5t-106 160 t-42.5 200.5zM393 804q1 -51 22 -95t55 -76.5t79 -51t96 -17.5t96 23t77.5 58t50 83.5t14.5 99.5q-2 49 -20.5 92t-50 74.5t-75 50t-96.5 19.5t-99 -19.5t-80 -56.5t-52.5 -84t-16.5 -100z" />
<glyph unicode=":" horiz-adv-x="582" d="M98 -38q2 37 17.5 69.5t41 56t59 37t71.5 13.5q37 0 69.5 -15.5t56.5 -41t38 -60t14 -71.5t-13 -70.5t-35.5 -59.5t-53.5 -42t-68 -17q-37 -2 -73 14.5t-64.5 44.5t-45 65t-14.5 77zM98 480q2 37 17.5 68.5t41 55t59 37t71.5 13.5q37 0 69.5 -15.5t56.5 -41t38 -60 t14 -71.5t-13 -70.5t-35.5 -59t-53.5 -41.5t-68 -18t-73 14.5t-64.5 44.5t-45 65.5t-14.5 78.5z" />
<glyph unicode=";" horiz-adv-x="602" d="M80 -464l182 215q-35 7 -66 24.5t-54 43t-35.5 58t-10.5 70.5q1 37 17.5 69.5t42.5 57t60.5 39t72.5 15.5q39 1 74 -12.5t62 -37.5t44 -57.5t20 -70.5q2 -33 -6 -56.5t-20 -52.5l-129 -305h-254zM96 476q1 38 17.5 70.5t43.5 56.5t61.5 37.5t72.5 13.5t72.5 -15 t60.5 -40.5t41.5 -59.5t15.5 -73q0 -38 -15 -71.5t-40 -59t-58 -41.5t-69 -17q-37 -2 -74 12t-66.5 40.5t-47 64t-15.5 82.5z" />
<glyph unicode="&#x3c;" horiz-adv-x="1249" d="M94 328l1041 453v-270l-504 -199l504 -274v-273z" />
<glyph unicode="=" horiz-adv-x="1102" d="M113 -124v270h895v-270h-895zM113 363v273h895v-273h-895z" />
<glyph unicode="&#x3e;" horiz-adv-x="1243" d="M96 38l504 274l-504 199v270l1041 -453l-1041 -563v273z" />
<glyph unicode="?" horiz-adv-x="1184" d="M96 826v39q0 88 33.5 172t96.5 149.5t154 106.5t206 43q96 1 183 -35.5t153 -100.5t105.5 -150.5t41.5 -184.5q1 -66 -13 -126.5t-41 -112t-66 -93.5t-89 -71l-104 -62q-25 -14 -40 -29.5t-34 -35.5q-12 -14 -17.5 -32.5t-7.5 -35.5t-1.5 -28.5t-0.5 -10.5h-278 q2 94 28 175.5t78 139.5q31 33 64.5 57.5t66.5 44.5t63 39t53.5 42t37.5 53.5t16 73.5q1 36 -14 72t-41.5 64.5t-62.5 47t-76 20.5q-40 1 -77 -13.5t-65 -40.5t-44.5 -61.5t-16.5 -76.5v-39h-291zM350 -46q1 37 16.5 68.5t40.5 55t58.5 37t71.5 13.5q40 0 71.5 -13.5t54 -37 t35.5 -55t15 -66.5q3 -39 -9.5 -74t-36.5 -61.5t-58 -42.5t-74 -17q-38 0 -72 15.5t-59.5 42t-40.5 61.5t-13 74z" />
<glyph unicode="@" horiz-adv-x="1812" d="M117 582q1 115 31 223.5t84.5 203.5t131 174t169.5 134.5t199.5 84.5t221.5 26q96 -3 187 -24t172.5 -59t150.5 -92.5t122 -123.5t86.5 -152.5t43.5 -179.5q9 -87 1 -154t-26.5 -122.5t-45 -104.5t-54.5 -100q-23 -41 -60 -83t-82.5 -77.5t-97 -61.5t-103.5 -35 t-100.5 2.5t-88.5 49.5q-19 17 -30 30.5t-23 35.5q-85 -84 -188.5 -104t-215.5 28q-56 23 -91.5 63.5t-54.5 91.5t-23 110t4.5 120.5t26.5 123t44 116.5q28 61 69 117.5t91 103.5t106.5 81t115.5 49.5t118 9.5t114 -40q19 -11 34.5 -22.5t28.5 -24t25 -27t25 -32.5l27 98 h159l-250 -739q-6 -17 -7 -31t1 -33q3 -31 21.5 -43.5t46 -10.5t60.5 17t65.5 38.5t61 54t46.5 63.5q22 38 46.5 90t43 112.5t26 126.5t-4.5 134q-20 113 -76.5 203t-139 153.5t-185.5 98.5t-215 38q-101 3 -193.5 -23t-171 -76t-142.5 -120t-108.5 -153.5t-68 -178.5 t-21.5 -194q1 -97 25.5 -188.5t68.5 -172t105.5 -148t137.5 -115.5t164 -75t185 -26q190 1 339 73.5t259 233.5l135 -2q-122 -214 -304.5 -317.5t-428.5 -100.5q-115 1 -221 32.5t-198 88.5t-167 135t-128.5 173t-82.5 202.5t-28 222.5zM601.5 410.5q2.5 -62.5 29 -113 t86.5 -75.5q41 -17 78.5 -14t71.5 21t64 48t56 67.5t48 78.5t40 82q25 56 45 116t24.5 116t-12.5 105t-67 84q-58 39 -118 28t-115 -53t-100 -104.5t-73 -126.5q-27 -60 -43.5 -128.5t-14 -131z" />
<glyph unicode="A" horiz-adv-x="1393" d="M96 -200l592 1569l596 -1569h-319l-54 168h-422l-61 -168h-332zM580 255h227l-119 323z" />
<glyph unicode="B" horiz-adv-x="1151" d="M133 -200v1112q0 92 36.5 174t98.5 143t144 96q79 34 167 34h5q86 -2 166.5 -36.5t142.5 -92.5q63 -60 99 -138q35 -74 34 -159v-9q-2 -52 -13 -94.5t-31.5 -78.5t-51 -67t-70.5 -61q0 -1 17 -11.5t41 -30.5t52 -50.5t51 -70.5q23 -38 37 -88q10 -38 10 -83q0 -13 -1 -26 q-6 -86 -32 -154t-65 -119.5t-88 -87.5t-103 -58.5t-109 -33t-105 -10.5h-432zM426 748h162q32 0 59.5 14t47 37.5t29.5 53t9 61.5q-2 29 -13 55t-29.5 46t-44 32t-56.5 13h-5q-30 0 -58 -10q-30 -12 -52.5 -33t-35.5 -49.5t-13 -61.5v-158zM438 91h131q41 0 78 14t65.5 39 t45 59t16.5 74q0 39 -15.5 73.5t-41.5 59.5t-60.5 39.5t-72.5 14.5h-146v-373z" />
<glyph unicode="C" horiz-adv-x="1282" d="M123 568q2 109 32.5 209t83 186t125.5 157t161 122t189 80t210 32h12q32 0 70 -4q45 -6 84 -12t65 -11.5t27 -4.5v-330q1 -1 -17 9t-51.5 22.5t-79 23t-98.5 10.5q-95 0 -185 -38t-160.5 -104.5t-113.5 -156.5t-43 -194q1 -107 42 -198.5t110 -158.5t161 -105t195 -38 q46 0 90.5 10.5t80 23t57.5 23.5t24 13v-324q-1 -1 -21 -7.5t-54.5 -15t-81.5 -15t-101 -7.5h-7q-106 1 -207 29q-104 30 -195.5 83t-166.5 128t-128.5 164.5t-82.5 190.5q-26 92 -26 188v20z" />
<glyph unicode="D" horiz-adv-x="1317" d="M127 -200v1526h344q104 0 201 -27t182 -75.5t154.5 -117t119.5 -152t78 -179.5t29 -199v-8q0 -106 -27 -202q-28 -100 -80.5 -186t-126.5 -156t-165 -120t-196.5 -77t-219.5 -27h-293zM440 105q15 -1 29 -1q83 0 161 30q90 34 158 98q67 64 106 154q36 83 36 179v15 q-3 97 -43 182t-106.5 146.5t-154.5 93.5q-67 24 -139 23q-23 0 -47 -2v-918z" />
<glyph unicode="E" horiz-adv-x="907" d="M96 -200v1526h690v-303h-374v-297h374v-291h-374v-330h379v-305h-695z" />
<glyph unicode="F" horiz-adv-x="881" d="M117 -200v1526h657v-303h-356v-287h362v-295h-362v-641h-301z" />
<glyph unicode="G" horiz-adv-x="1442" d="M106 570q3 109 32.5 209t81 187t123 158.5t158.5 123t186.5 81.5t207.5 34h30q63 0 105 -7q52 -8 81 -19.5t40 -21.5t12 -10v-307q1 -2 -18.5 8.5t-54.5 23t-82 22.5q-43 10 -90 10h-9q-95 -2 -183.5 -40t-156.5 -104t-108.5 -155.5t-40.5 -194.5q1 -106 39.5 -197 t105 -158t156 -105t192.5 -38q32 0 53.5 3.5t34.5 7.5t18.5 7.5t6.5 4.5v473h309v-684q-1 0 -17 -9.5t-45 -22.5t-69 -28.5t-87 -28.5t-100 -21q-47 -7 -96 -7h-12q-111 1 -214 32t-193 85t-164 128t-126 163t-80 189q-26 94 -26 194v14z" />
<glyph unicode="H" horiz-adv-x="1233" d="M113 -200v1526h305v-600h407v600h305v-1526h-305v635h-407v-635h-305z" />
<glyph unicode="I" horiz-adv-x="592" d="M152 -200v1526h305v-1526h-305z" />
<glyph unicode="J" horiz-adv-x="793" d="M96 58q1 -1 23 0t54 7.5t67.5 21.5t64.5 43q34 33 50 63t22 61q5 27 5 55v9q-1 34 -1 74v934h305v-1004q0 -47 -5.5 -84t-18 -72t-32 -71.5t-46.5 -81.5q-36 -57 -87 -102.5t-114 -78.5t-136 -51.5t-151 -21.5v299z" />
<glyph unicode="K" horiz-adv-x="1311" d="M100 -200v1526h306v-600l419 598h383l-551 -733l553 -791h-389l-415 635v-635h-306z" />
<glyph unicode="L" horiz-adv-x="922" d="M111 -200v1526h305v-1229h411v-297h-716z" />
<glyph unicode="M" horiz-adv-x="1780" d="M90 -200l248 1563l532 -992l514 992l285 -1563h-321l-91 662l-380 -701l-390 698l-86 -659h-311z" />
<glyph unicode="N" horiz-adv-x="1448" d="M100 -200v1567l926 -883v840h311v-1559l-925 893v-858h-312z" />
<glyph unicode="O" horiz-adv-x="1808" d="M96 554v7q0 105 28 205q30 102 83.5 191.5t128 163t164.5 125.5q92 53 194 81q99 27 203 27h8q109 -1 209.5 -29t188 -78.5t159.5 -121t124 -156t81.5 -184.5t32.5 -207v-15q0 -103 -25 -199q-27 -103 -78.5 -193.5t-125 -165.5t-163 -129t-192 -84t-213.5 -31h-7 q-106 -1 -205 27q-102 28 -191.5 80t-163.5 124.5t-127 160.5t-83 189.5t-30 211.5zM401 570v-15q-1 -65 15 -123q18 -66 51.5 -122.5t80.5 -102.5t104 -78.5t122 -50.5q61 -17 127 -16h8q68 1 131.5 20t118.5 52.5t100 80t77 102.5q32 55 48 119q16 60 15 124v8 q-2 101 -41.5 189.5t-106.5 154t-156.5 103.5t-191.5 38q-101 0 -191 -37.5t-158.5 -103t-109 -153.5t-43.5 -189z" />
<glyph unicode="P" horiz-adv-x="1343" d="M123 -200v956q0 130 45.5 240.5t125.5 191.5q78 80 186 124q101 42 216 42h15q114 -2 213 -45t172.5 -116t116 -171t44.5 -210v-10q0 -106 -40 -202q-42 -102 -114 -180t-168 -125.5t-202 -50.5h-15q-40 0 -72 4q-40 6 -76 19t-70.5 32.5t-71.5 47.5v-547h-305zM430 801 v-9q0 -48 20 -94q22 -50 58 -87t86 -59q45 -20 95 -19h9q54 1 101.5 22.5t82 58.5t54.5 85q19 46 18 97v5q-2 55 -23.5 102.5t-58.5 82.5q-38 36 -86 56q-46 19 -97 18h-5q-52 -2 -98 -22.5t-80.5 -55.5t-54.5 -81.5t-21 -99.5z" />
<glyph unicode="Q" horiz-adv-x="1823" d="M100 570q1 110 31 212t83 190t127.5 160.5t164.5 123.5t193 78q96 25 199 25h15q117 -2 223 -33t196 -85t162 -129.5t121.5 -166t74.5 -193.5q22 -93 22 -191v-24q-4 -104 -30 -196t-71 -170.5t-106 -143.5t-135 -114l137 -285h-323l-92 162q-25 -6 -45.5 -11t-41 -8 t-41.5 -4.5t-46 -1.5h-8q-112 0 -214 28q-106 29 -197 81.5t-165 126t-126.5 163t-80.5 192.5q-27 99 -27 206v8zM414 566q3 -98 28 -171t63 -126t86 -88.5t97 -58t96 -33.5t84 -15q33 -4 54 -4h6q22 1 22 2l-155 308l264 137l164 -322q37 19 70.5 56.5t59 87t41 108 t17.5 119.5v9q0 95 -39 181q-40 89 -109 156t-158.5 106.5t-184.5 41.5h-5q-100 0 -191 -37q-93 -38 -163 -105.5t-110 -157.5q-37 -85 -37 -180v-14z" />
<glyph unicode="R" horiz-adv-x="1311" d="M137 -200v1102q0 50 14.5 104.5t43 106.5t71.5 99t99 82q56 34 125 54q66 19 143 19h8q82 -2 164 -34t149.5 -92.5t112.5 -148t53 -198.5q1 -19 1 -37q1 -61 -15 -110q-20 -64 -55 -111t-77.5 -79t-79 -51t-61.5 -26.5t-26 -5.5l440 -674h-375l-430 670v-670h-305z M440 878q0 -36 15 -69q16 -35 43 -61.5t63 -41.5q32 -13 67 -13h9q36 1 68.5 15t56.5 37.5t38.5 55.5t14.5 70q-1 43 -15 79.5t-38.5 62.5t-58 41t-72.5 16h-5q-36 0 -68 -14q-34 -15 -60 -40.5t-42 -59.5q-16 -37 -16 -78z" />
<glyph unicode="S" horiz-adv-x="1180" d="M113 175l295 84v-13q0 -34 12 -66q16 -38 43 -66t63 -44q33 -15 69 -14h9q39 1 72 17.5t57 43.5t37.5 62t13.5 79q0 38 -14 67q-16 31 -43 54.5t-64 41.5t-79 34l-142 56q-81 31 -138.5 80t-94.5 106t-53 119q-13 52 -13 102v19q5 91 42 171.5t98 140.5t141 94 q76 32 162 32h10q162 -5 268.5 -90.5t163.5 -243.5l-283 -72q-14 51 -51 81.5t-90 33.5h-10q-28 0 -54 -9q-30 -11 -54 -31.5t-38.5 -49t-15.5 -61.5q-1 -25 8 -50t25 -47t39 -39t51 -26l172 -58q81 -27 147 -73.5t111.5 -107t69.5 -132.5q22 -66 22 -135v-12 q-2 -100 -38.5 -188.5t-98.5 -155.5t-147 -106.5t-185 -41.5h-13q-87 1 -156 25q-74 26 -129 68t-93 92.5t-61 97.5t-33.5 83t-9.5 48z" />
<glyph unicode="T" horiz-adv-x="1157" d="M113 1029v297l940 -2v-297h-318v-1229h-305v1229z" />
<glyph unicode="U" horiz-adv-x="1296" d="M113 339v985h307v-912q0 -97 16.5 -163.5t49 -107.5t79.5 -59q42 -16 97 -16h12q56 1 95.5 22.5t65 56.5t37 80t11.5 93v1006h313v-1061q0 -56 -17.5 -115t-51 -115t-81 -105.5t-107 -86.5t-130.5 -59q-68 -21 -143 -21h-7q-115 1 -215 43.5t-173.5 119t-115.5 182 t-42 233.5z" />
<glyph unicode="V" horiz-adv-x="1399" d="M102 1324h351l252 -758l247 758h346l-593 -1610z" />
<glyph unicode="W" horiz-adv-x="1796" d="M96 1324h318l127 -660l370 754l353 -754l104 658h315l-290 -1622l-488 1067l-452 -1067z" />
<glyph unicode="X" horiz-adv-x="1468" d="M106 -200l459 834l-377 690h367l195 -371l206 371h355l-385 -686l444 -838h-350l-277 506l-278 -506h-359z" />
<glyph unicode="Y" horiz-adv-x="1427" d="M115 1324h352l262 -602l260 602h336l-438 -969v-555h-318v545z" />
<glyph unicode="Z" horiz-adv-x="1186" d="M106 -200l517 1231h-390v293h867l-516 -1223h495v-301h-973z" />
<glyph unicode="[" horiz-adv-x="838" d="M111 -540v2210h630v-283h-317v-1626h317v-301h-630z" />
<glyph unicode="\" horiz-adv-x="1116" d="M111 1324l98 61l803 -1562l-103 -62z" />
<glyph unicode="]" horiz-adv-x="846" d="M113 -239h317v1626h-317v283h630v-2210h-630v301z" />
<glyph unicode="^" horiz-adv-x="930" d="M96 1053l219 271h301l211 -271h-245l-119 138l-119 -138h-248z" />
<glyph unicode="_" horiz-adv-x="1624" d="M113 -299h1417v-29h-1417v29z" />
<glyph unicode="`" horiz-adv-x="592" d="M96 1324h250l150 -244h-242z" />
<glyph unicode="a" horiz-adv-x="1468" d="M111 289q0 107 40 202.5t110 167.5t163.5 114t200.5 43h6q68 0 138 -20q73 -21 140 -67t123 -117t94 -171l240 -641h-301l-64 160q-28 -39 -65.5 -74.5t-83.5 -62t-99 -43t-112 -17.5h-14q-64 0 -125 16q-67 18 -126 52.5t-107.5 83t-83.5 107.5t-54.5 127t-19.5 140z M377 294v-10q-1 -48 17 -92q20 -49 54.5 -85.5t81.5 -58.5q43 -20 92 -19h9q54 1 100 22t79.5 55.5t52 80t18.5 96.5v5q0 50 -19 96q-20 48 -54.5 83t-80.5 55.5t-98 20.5q-51 0 -96.5 -19.5t-80 -53.5t-54.5 -79.5t-21 -96.5z" />
<glyph unicode="b" horiz-adv-x="1282" d="M123 298v1026h291v-592q-1 -1 18 12.5t53.5 30t81.5 30t103 13.5q111 -1 206 -42.5t165 -113t110 -166.5t41 -202v-7q0 -69 -18 -133q-18 -68 -53 -127t-84 -108t-108 -84t-127 -54.5t-140 -19.5h-7q-69 0 -135 19q-68 20 -128 55.5t-109.5 85t-85 109.5t-55 128 t-19.5 140zM403 300v-10q1 -48 17 -92q18 -48 52 -84t82 -58t105 -25h9q48 0 90 18q46 20 81 54.5t56 81t23 98.5v5q0 52 -19 100q-20 50 -55 86.5t-83 57.5q-46 20 -97 20h-5q-55 -2 -101.5 -22t-80.5 -53.5t-53.5 -79t-20.5 -97.5z" />
<glyph unicode="c" horiz-adv-x="1120" d="M115 285q0 109 43.5 206.5t117.5 170.5q74 72 170 113q88 37 182 37h19q102 -3 175 -29.5t119.5 -57.5t68 -56t22.5 -25l-194 -180q-1 0 -14.5 12.5t-38 27.5t-58.5 27.5t-76 13.5h-5q-51 0 -96 -18q-47 -19 -82 -53t-56.5 -80t-22.5 -98v-10q0 -48 17 -91 q19 -48 52.5 -84.5t80.5 -58.5t102 -23h8q31 0 65 13q38 15 68.5 34t49.5 35t18 17l182 -181q-80 -96 -173.5 -139.5t-211.5 -46.5h-10q-103 0 -196 39q-97 41 -169.5 113t-114.5 168t-42 204z" />
<glyph unicode="d" horiz-adv-x="1288" d="M96 294q1 107 41.5 202t111 166.5t165 113t204.5 42.5q55 0 103 -13.5t83 -30t54.5 -30t18.5 -12.5v592h290v-1026q0 -108 -43 -206t-116 -172q-74 -72 -172 -116q-95 -43 -202 -43h-5q-73 0 -141 19.5t-127.5 54.5t-108.5 84t-84 108t-54 127q-18 64 -18 133v7zM373 283 q1 -52 21.5 -98.5t56 -81t81.5 -54.5q42 -18 90 -18h9q57 3 104.5 25t81.5 58q33 36 51 84q17 45 17 96v6q-1 52 -20 97.5t-52.5 79t-80 53.5t-101.5 22h-5q-50 0 -96 -20q-48 -21 -84 -58q-35 -36 -55 -86q-18 -45 -18 -95v-10z" />
<glyph unicode="e" horiz-adv-x="1262" d="M106 287v5q0 108 42 204q43 98 117 172q75 72 173 114q90 38 190 38h19q123 -5 222 -55t167 -134t102 -195q27 -90 27 -189q0 -24 -2 -48h-772q28 -78 88 -122t144 -46h10q55 -1 101 21q50 24 81 61l193 -194q0 1 -13 -11t-37.5 -29.5t-59.5 -38.5t-78 -38.5t-93 -29.5 q-46 -11 -96 -11h-8q-107 1 -201 42.5t-164.5 112t-111 166t-40.5 205.5zM412 416h436q-1 0 -12.5 20t-37.5 44.5t-68 44.5t-103 20q-54 0 -94 -20.5t-67 -44.5q-32 -28 -54 -64z" />
<glyph unicode="f" horiz-adv-x="852" d="M106 533v256h150q1 0 2.5 34t10.5 85t28.5 109.5t54.5 107.5q65 91 158.5 150t220.5 73v-280q-1 -1 -14.5 -7t-32.5 -16t-39.5 -22.5t-34.5 -26.5q-31 -32 -46 -69t-21 -68.5t-6 -51.5t0 -18h215v-256h-201v-733h-289v733h-156z" />
<glyph unicode="g" horiz-adv-x="1262" d="M72 -519l207 186q35 -47 80 -82q19 -15 42 -29t49.5 -23.5t56 -14t62.5 -1.5q81 9 135 36.5t87 64t49 76.5t22.5 73.5t6.5 56t1 23.5q-35 -27 -75 -46q-35 -17 -82 -30q-38 -11 -82 -11q-11 0 -21 1q-110 5 -204.5 47.5t-164.5 112.5t-110 162.5t-41 199.5v7q0 69 18 134 q20 68 55 127.5t84 108t108 84t127 55t141 19.5h5q106 0 200 -42q95 -44 166.5 -118t113 -171.5t41.5 -205.5v-420q0 -82 -20 -158.5t-57.5 -144.5t-90 -124.5t-117.5 -97.5t-140.5 -64.5t-158.5 -24.5h-16q-70 0 -135 15q-71 18 -133.5 49.5t-115 75t-93.5 94.5zM365 294 v-5q0 -50 19 -97q20 -48 55.5 -84.5t83.5 -57.5q44 -19 93 -19h9q55 2 100.5 22t78 54t50.5 78.5t20 95.5v11q0 47 -15 89q-17 47 -50 83t-80 57.5t-104 23.5h-14q-45 0 -85 -17q-47 -19 -82.5 -53.5t-56.5 -81t-22 -99.5z" />
<glyph unicode="h" horiz-adv-x="1067" d="M106 -200v1524h283v-555q3 -1 19 8t42 19q28 8 62 16q22 5 47 5q13 0 27 -1q80 -7 148.5 -39.5t119 -84t79 -119.5t28.5 -146v-627h-285v563q0 40 -9.5 73t-28.5 56q-18 24 -45 36q-25 12 -58 11h-5q-63 -2 -101 -45.5t-38 -122.5v-571h-285z" />
<glyph unicode="i" horiz-adv-x="596" d="M133 1000q1 33 15.5 63.5t38.5 53t56 35.5q30 12 63 12h5q33 -1 62.5 -13.5t52 -34.5t35.5 -51q14 -31 14 -68q0 -32 -12 -61q-13 -31 -36 -55t-54.5 -38t-65.5 -15h-5q-32 0 -61 12q-32 14 -57 38t-39 56q-12 28 -12 57v9zM164 -200h282v989h-282v-989z" />
<glyph unicode="j" horiz-adv-x="608" d="M-84 -460v-264h13q50 0 93 6q48 8 92 25t84.5 43.5t82.5 64.5q48 45 80.5 92.5t52 100t27.5 110.5t8 125v946h-283v-790q0 -60 4 -118q1 -23 1 -44q0 -34 -3 -66q-6 -52 -26 -96.5t-68 -77.5q-20 -14 -38.5 -24t-37 -17t-38.5 -11t-44 -5zM135 1008q1 33 15.5 63 t38.5 52.5t56 34.5q30 12 63 12h5q33 -1 62.5 -13.5t52 -33.5t35.5 -50q14 -31 14 -68q0 -32 -12 -62q-13 -32 -36 -56t-53.5 -38.5t-64.5 -14.5h-5q-32 0 -62 12q-33 14 -58 38t-39 56q-12 28 -12 59v9z" />
<glyph unicode="k" horiz-adv-x="1186" d="M115 -200v1524h282v-881l295 348h367l-402 -459l437 -532h-367l-328 426v-426h-284z" />
<glyph unicode="l" horiz-adv-x="575" d="M150 -200v1524h278v-1524h-278z" />
<glyph unicode="m" horiz-adv-x="1427" d="M115 -200v629q0 77 26 147.5t73.5 124t113.5 85.5t147 32q39 0 77 -12.5t70.5 -30.5t56.5 -37t34 -31q56 60 116.5 85.5t143.5 25.5q84 -1 149.5 -34.5t110.5 -89t68.5 -127t23.5 -149.5v-618h-276v631q0 23 -6 45.5t-18 40.5t-30 29.5t-41 11.5q-21 0 -39 -9.5 t-30.5 -25.5t-19.5 -36.5t-7 -41.5v-645h-280v631q0 22 -6 44.5t-18 40t-29.5 28.5t-39.5 10q-20 0 -36 -9.5t-27.5 -25.5t-18 -35.5t-6.5 -40.5v-643h-282z" />
<glyph unicode="n" horiz-adv-x="1061" d="M106 388q0 89 34.5 167t94 136t140 92t172.5 35h5q80 0 154 -33q76 -34 132.5 -91.5t89.5 -134.5t33 -163v-596h-273v535q0 91 -38.5 147.5t-106.5 58.5h-3q-68 -1 -106 -47q-40 -48 -39 -129v-565h-286z" />
<glyph unicode="o" horiz-adv-x="1282" d="M109 287q0 74 20.5 143t57 128.5t87.5 108t112 82.5q61 33 130 51q62 16 128 16h15q108 -3 202 -41.5t164.5 -107t111 -164.5t41.5 -214q0 -109 -41.5 -204t-113.5 -166t-168.5 -113t-205.5 -45h-20q-99 0 -189 37q-98 41 -172 113t-116.5 169t-42.5 207zM387 294v-10 q-1 -49 17 -93q20 -48 54.5 -84.5t81 -57.5t99.5 -22h9q52 0 96 20q48 22 84 60t56 88q18 45 17 95v10q-2 52 -22 97.5t-54 79.5t-79 54t-97 21h-5q-50 0 -95 -19q-47 -20 -82.5 -55.5t-57 -83t-22.5 -100.5z" />
<glyph unicode="p" horiz-adv-x="1268" d="M121 292q0 106 38.5 202t108.5 168t168 114q96 42 212 42h5q105 -1 200.5 -42t168.5 -112t116 -166t44 -204q0 -71 -18 -137.5t-51 -125t-79.5 -107.5t-104 -84.5t-124 -55.5t-139.5 -21h-7q-52 0 -96 14q-47 15 -82 34q-40 22 -73 50v-585h-287v1016zM389 279 q1 -48 20 -92.5t52 -79t78.5 -56t101.5 -22.5h9q47 0 91 18q48 20 84 55.5t57 84.5q21 47 21 102v5q-1 53 -22 99t-57 80t-83 53q-43 17 -90 17h-10q-57 -2 -104 -23t-80.5 -57t-51.5 -83q-16 -43 -16 -90v-11z" />
<glyph unicode="q" horiz-adv-x="1268" d="M96 294q1 109 44.5 204t116.5 166t169 112t201 42h5q115 0 211 -42q98 -42 168 -114t109 -168t39 -202v-1016h-287v585q-34 -28 -74 -50q-35 -19 -82 -34q-44 -14 -95 -14h-7q-111 1 -205.5 44.5t-164 116.5t-109 168.5t-39.5 201.5zM377 294v-5q0 -55 21 -102 q21 -49 57 -84.5t84 -55.5q44 -18 91 -18h9q55 1 101 22.5t79 56t51.5 79t20.5 92.5v6q0 50 -17 95q-17 47 -50.5 83t-80.5 57t-104 23h-10q-47 0 -90 -17q-47 -19 -83 -53t-57 -80t-22 -99z" />
<glyph unicode="r" horiz-adv-x="776" d="M123 -200v989h278v-96q0 -1 8 8t23.5 23t37.5 30.5t50 30.5q39 19 69 29t51.5 14.5t33.5 5t14 2.5v-286q0 -2 -19 -1.5t-47.5 -4t-61.5 -19t-62 -45.5q-28 -30 -45 -60.5t-26.5 -63.5t-13 -69t-3.5 -77v-410h-287z" />
<glyph unicode="s" horiz-adv-x="1016" d="M133 9l244 121q0 -1 5 -20.5t21.5 -43t47.5 -43t84 -20.5h8q51 1 79 25q29 25 29 64v5q-1 21 -11.5 36t-27 25t-36.5 16t-41 11l-103 23q-51 11 -93.5 35t-74.5 59t-51.5 79.5t-22.5 96.5v19q0 65 24 121q28 64 78.5 108.5t116.5 68.5q59 21 122 21h16q60 -2 107 -17.5 t82 -37.5t59 -47t39 -46.5t21.5 -35.5t6.5 -13l-219 -114q-2 -2 -6 10t-14.5 27.5t-29.5 29t-50 14.5q-18 0 -35.5 -3t-32 -10.5t-23.5 -19t-10 -28.5q-2 -18 6.5 -32t23 -24t32 -17t35.5 -11l143 -37q120 -31 178.5 -105t71.5 -194q1 -15 1 -30q0 -57 -21 -106 q-27 -62 -78.5 -107.5t-122.5 -72t-152 -28.5h-24q-67 0 -121 14q-64 17 -111.5 44t-80.5 59.5t-53 60.5t-28.5 48t-7.5 22z" />
<glyph unicode="t" horiz-adv-x="807" d="M109 523v268h141v246h268v-246h187v-268h-185v-723h-270v723h-141z" />
<glyph unicode="u" horiz-adv-x="1081" d="M113 791h293v-590q0 -69 39.5 -112t105.5 -45q32 -1 59 11t46 32t29.5 47.5t10.5 58.5v598h289v-610q0 -89 -35.5 -164t-95 -130.5t-138 -88t-165.5 -35.5h-14q-81 0 -155 32q-80 35 -139 95.5t-93.5 141.5t-34.5 171z" />
<glyph unicode="v" horiz-adv-x="1147" d="M96 791h320l172 -459l157 459h295l-362 -991h-168z" />
<glyph unicode="w" horiz-adv-x="1659" d="M113 791h315l154 -432l237 490l283 -482l158 424h303l-365 -991h-104l-256 516l-234 -516h-125z" />
<glyph unicode="x" horiz-adv-x="1276" d="M106 -200l369 516l-338 475h361l149 -235l162 235h332l-322 -465l363 -526h-357l-180 270l-180 -270h-359z" />
<glyph unicode="y" horiz-adv-x="1171" d="M102 791h328l170 -508l180 508h293l-553 -1515h-313l244 616z" />
<glyph unicode="z" horiz-adv-x="1067" d="M96 -200l404 729h-299v262h768l-371 -688h334v-303h-836z" />
<glyph unicode="{" horiz-adv-x="698" d="M94 543q48 8 83.5 31t60.5 55q17 22 25.5 44t12 44.5t3.5 47v53.5v422q0 36 2.5 68t10 61t22.5 54.5t40 49.5q21 20 42 31.5t44 17.5t47.5 8t53.5 3l59 2q-49 -13 -81.5 -36t-61.5 -65q-15 -21 -24 -42t-13 -42.5t-5 -45t-1 -50.5v-440q0 -51 -9.5 -99.5t-46.5 -93.5 q-27 -32 -55 -49t-70 -27q42 -8 71.5 -23.5t55.5 -47.5q19 -24 30 -48t15.5 -50t5.5 -54t1 -59v-467q0 -43 7.5 -76.5t33.5 -69.5q31 -43 65 -66t86 -32l-61 -2q-42 -2 -83.5 10t-76.5 33t-59 47.5t-31 55.5q-8 27 -13.5 58.5t-5.5 70.5v485q0 53 -11.5 98t-39.5 74 q-25 26 -56 42t-73 19z" />
<glyph unicode="|" horiz-adv-x="307" d="M102 1342h109l-2 -1978h-103z" />
<glyph unicode="}" horiz-adv-x="692" d="M102 -448q53 9 87 32t65 66q26 36 33.5 69.5t7.5 76.5v467q0 31 1 59t6.5 54t16 50t29.5 48q26 32 55 47.5t70 23.5q-41 10 -69 27t-56 49q-37 45 -46 93.5t-9 99.5v440q0 27 -1 50.5t-5 45t-13 42.5t-24 42q-29 42 -62 65t-82 36l60 -2q28 -1 53.5 -3t48 -8t43.5 -17.5 t41 -31.5q25 -24 40.5 -49.5t23 -54.5t10 -61t2.5 -68v-422v-53.5t3.5 -47t12 -44.5t25.5 -44q25 -32 60 -55t83 -31q-42 -3 -73 -19t-56 -42q-28 -29 -39.5 -74t-11.5 -98v-485q0 -39 -5 -70.5t-13 -58.5q-7 -29 -31.5 -55.5t-59.5 -47.5t-76.5 -33t-82.5 -10z" />
<glyph unicode="~" horiz-adv-x="924" d="M96 1213q34 48 85.5 77t101.5 34q21 1 42.5 -2t40 -8t31.5 -9.5t15 -5.5l63 -26q31 -13 58 -16t59 3q25 5 42.5 19t33.5 34l145 -188q-32 -43 -74.5 -69.5t-81.5 -32.5q-37 -7 -72 4t-77 26l-57 21q-58 21 -105 18q-21 -2 -37 -9.5t-29 -18.5t-23.5 -22.5t-20.5 -20.5z " />
<glyph horiz-adv-x="1392" d="M76 262v510h175q60 0 91 -7q97 -23 136 -123q20 -54 20 -122q0 -110 -49 -177q-40 -56 -107 -72q-36 -9 -83 -9h-183zM143 322h109q89 0 125 36q51 51 51 163q0 146 -90 181q-27 10 -87 10h-108v-390zM559 262v510h368v-60h-301v-156h282v-60h-282v-174h314v-60h-381z M1004 262v510h68v-450h250v-60h-318z" />
<glyph unicode="&#xa1;" horiz-adv-x="573" d="M96 619q-4 42 9 78.5t38 63t59 41.5t72 16q39 1 73 -13.5t59.5 -40t39.5 -60t13 -73.5q-2 -39 -16.5 -72.5t-38.5 -57.5t-56 -38t-69 -14q-36 0 -68 13.5t-56 36.5t-39.5 54t-19.5 66zM135 349h275v-1094h-275v1094z" />
<glyph unicode="&#xa2;" horiz-adv-x="1243" d="M96 545q-1 67 15.5 128.5t46.5 116t70 100.5t86.5 81t96 58.5t97.5 32.5v264h203v-254q12 -3 21 -6t22 -6q11 -4 19.5 -6t19.5 -5v-305q-41 34 -80.5 48t-91.5 14q-52 -1 -98 -20t-80.5 -52t-55.5 -78t-22 -96q-2 -53 18 -100t55 -82t82.5 -55.5t100.5 -20.5 q64 1 107 22.5t69.5 48t38 48.5t12.5 24h280q-11 -49 -26.5 -89.5t-37.5 -75.5t-51 -67t-67 -63q-31 -26 -69 -45.5t-72 -32.5t-58 -20t-26 -8v-281h-201v279q-95 19 -172.5 66.5t-133 114.5t-86.5 149.5t-32 172.5z" />
<glyph unicode="&#xa3;" horiz-adv-x="1384" d="M90 -63q1 40 18.5 73t45 57t64 37t75.5 13q23 0 39.5 -3t38.5 -11q5 14 11.5 35t12 47t9 55t2.5 58q-1 31 -4 56.5t-9 50t-15 48.5t-22 52h-190v286h113q-20 40 -29.5 72t-9.5 74q-1 47 14.5 95t43.5 93t67 84.5t86.5 68t102.5 44t114 12.5q99 -5 172 -34.5t124 -80 t82 -121.5t46 -159h-279q-5 21 -17.5 41t-31.5 36t-42.5 26t-49.5 11q-30 1 -57 -9t-48 -28t-33.5 -43t-13.5 -55q-3 -82 66 -127h262v-284h-189q5 -29 10.5 -52.5t10.5 -46.5t8.5 -47t3.5 -53q1 -35 -1 -64t-6.5 -57t-13 -56.5t-20.5 -60.5q1 -1 13 -6t29.5 -10.5t37.5 -10 t37 -3.5q45 1 83 22t65 54t39.5 74.5t5.5 84.5h301q1 -2 1 -23.5t-5 -56t-17.5 -79t-35 -91t-58 -91.5t-88 -81.5t-122.5 -61.5t-163 -30q-42 -2 -79.5 5t-71.5 19.5t-64.5 28.5t-58.5 31q-32 -25 -65 -43q-29 -16 -65 -29t-71 -12q-40 1 -78 14t-67.5 35.5t-47.5 54.5 t-16 72z" />
<glyph unicode="&#xa5;" horiz-adv-x="1413" d="M96 1324h355l262 -602l260 602h336l-439 -969v-555h-317v545zM168 169v278h1071v-278h-1071zM168 601v278v4h342l192 -219l271 219l266 -4v-278h-1071z" />
<glyph unicode="&#xa7;" horiz-adv-x="1194" d="M98 453q2 100 46 172t130 123l56 33q-60 54 -86.5 113t-24.5 139q1 72 33 131.5t84.5 102t120.5 66t141 23.5q92 1 167 -30t127 -86t78.5 -129.5t22.5 -159.5h-123q10 82 -22 148.5t-107 103.5q-50 24 -110 27.5t-115 -13t-96.5 -53t-54.5 -92.5q-11 -45 -2.5 -85.5 t30.5 -75.5t55 -65t72 -55l324 -198q54 -33 101.5 -68.5t83.5 -77t56 -91.5t19 -112q-1 -51 -13.5 -93t-36 -78.5t-56.5 -68t-74 -59.5l-66 -45q65 -51 96 -109.5t33 -142.5q2 -74 -27 -135.5t-81.5 -106t-124 -70t-152.5 -28.5q-92 -2 -168.5 31t-130.5 90.5t-82 134 t-24 160.5h133q-8 -66 8.5 -120t62.5 -97q28 -25 65 -41.5t78 -24t83 -5.5t79.5 15t67 37.5t45.5 61.5q19 42 20 86t-13 85t-42 76.5t-67 61.5l-453 301q-81 54 -123.5 124t-42.5 169zM219 480q-2 -37 7 -67.5t26 -56.5t42 -48t56 -43l434 -289l56 33q63 37 101.5 87 t37.5 124q0 66 -30.5 112.5t-86.5 81.5l-459 293l-45 -24q-63 -35 -100 -83.5t-39 -119.5z" />
<glyph unicode="&#xa8;" horiz-adv-x="1112" d="M96 1156q4 35 19.5 66t39.5 53.5t56 35.5t68 13q37 0 69 -13.5t56 -37.5t38.5 -57.5t16.5 -72.5q1 -39 -13 -73.5t-39.5 -60t-59.5 -40.5t-73 -14q-38 0 -72 15.5t-59 42.5t-38 64t-9 79zM639 1156q4 35 19 66t39 53.5t55 35.5t67 13q37 0 69.5 -13.5t56.5 -37.5 t38 -57.5t16 -72.5t-12 -73.5t-39.5 -60t-59.5 -40.5t-73 -14q-38 0 -72 15.5t-58 42.5t-37 64t-9 79z" />
<glyph unicode="&#xa9;" horiz-adv-x="1761" d="M108 557q0 118 31 229.5t93 210.5t155 173.5t217 118t279 43.5t278.5 -43.5t216.5 -118t155 -173.5t93 -210.5t31 -229.5t-31 -229.5t-93 -210.5t-155 -173.5t-216.5 -118t-278.5 -43.5t-279 43.5t-217 118t-155 173.5t-93 210.5t-31 229.5zM191.5 557 q-0.5 -105 27.5 -204.5t83 -188t138 -155t194 -105t249 -38.5t248.5 38.5t193.5 105t138 155t83 188t28 204.5t-28 204.5t-83 188t-138 155t-193.5 105t-248.5 38.5t-249 -38.5t-194 -105t-138 -155t-82.5 -188t-28 -204.5zM477 550q-1 93 24.5 183.5t77.5 160.5t129.5 112 t180.5 39q64 -2 124.5 -19.5t109 -50.5t82 -81.5t44.5 -112.5l6 -35h-92l-8 29q-13 46 -40 81t-62.5 58.5t-78 35.5t-87.5 11q-89 -2 -149.5 -38t-98 -93.5t-54 -130t-16.5 -147.5q0 -73 10.5 -141.5t42.5 -123t90.5 -91.5t153.5 -48q52 -6 102.5 11.5t92.5 52t71.5 82.5 t41.5 104h92q-14 -74 -49.5 -136t-88.5 -106.5t-121 -67.5t-147 -18q-109 7 -182.5 49.5t-118 108.5t-63.5 149.5t-19 172.5z" />
<glyph unicode="&#xaa;" horiz-adv-x="956" d="M104 1029q0 60 22.5 113t61 92.5t91 63t112.5 24.5q40 0 81 -11.5t78 -37t68 -65t52 -95.5l133 -359h-168l-35 90q-31 -45 -83 -76.5t-118 -33.5q-60 -2 -113.5 21t-94 63.5t-64 95t-23.5 115.5zM135 525h705v141h-705v-141zM252 1031q-1 -30 10 -57t30.5 -47.5 t45.5 -32.5t55 -11q31 1 56.5 12.5t44 31t28.5 44.5t10 54q0 30 -11 56.5t-29.5 46t-44 31t-54.5 11.5t-54.5 -11t-44.5 -30t-30 -44.5t-12 -53.5z" />
<glyph unicode="&#xab;" horiz-adv-x="1196" d="M98 300v223l453 334v-219l-322 -230l316 -223v-231zM666 300v223l452 334v-219l-321 -230l315 -223v-231z" />
<glyph unicode="&#xac;" horiz-adv-x="1759" d="M92 341v118h1550v-659h-126v541h-1424z" />
<glyph unicode="&#xad;" horiz-adv-x="879" d="M90 234v281h674v-281h-674z" />
<glyph unicode="&#xae;" horiz-adv-x="1731" d="M96 557q0 118 31 229.5t93 210.5t155 173.5t216.5 118t278.5 43.5t279 -43.5t217 -118t155 -173.5t93 -210.5t31 -229.5t-31 -229.5t-93 -210.5t-155 -173.5t-217 -118t-279 -43.5t-278.5 43.5t-216.5 118t-155 173.5t-93 210.5t-31 229.5zM179 557q0 -105 28 -204.5 t83 -188t138 -155t193.5 -105t248.5 -38.5t249 38.5t194 105t138 155t83 188t27.5 204.5t-28 204.5t-82.5 188t-138 155t-194 105t-249 38.5t-248.5 -38.5t-193.5 -105t-138 -155t-83 -188t-28 -204.5zM555 81v929h342q61 0 120 -8.5t106.5 -34.5t78 -73t35.5 -125 q6 -88 -36.5 -144.5t-117.5 -87.5q15 -8 27.5 -15t24 -15t21 -18.5t18.5 -26.5q22 -45 25 -85t1 -81t-1 -85t20 -96q5 -11 10 -18t10 -16h-96q-2 0 -4 -0.5t-2 2.5q-15 29 -19.5 65t-5 74t-1 76.5t-7 73t-22.5 63t-48 45.5q-18 10 -35 14.5t-33.5 5.5t-34 0.5t-38.5 -0.5 h-248v-419h-90zM645 933l2 -353h260q43 0 87 7t79 26.5t56 54t20 88.5q-2 55 -23.5 89.5t-54.5 54t-75 26.5t-85 7h-266z" />
<glyph unicode="&#xb0;" horiz-adv-x="590" d="M96 1137q1 62 30 103.5t71 61.5t91 19.5t90 -22t67.5 -64t25.5 -104.5q-1 -63 -29.5 -104t-70.5 -60.5t-90.5 -18.5t-90 22.5t-68.5 63t-26 103.5zM188 1137q-1 -33 13 -55.5t36 -34.5t47.5 -13t48 9.5t38 32.5t16.5 55t-13 55.5t-35.5 34t-47.5 12.5t-48.5 -9.5t-38 -32 t-16.5 -54.5z" />
<glyph unicode="&#xb1;" horiz-adv-x="1057" d="M90 -120h864v-82h-864v82zM104 435l2 108h377v379h101v-381h379v-106h-381v-379h-99v379h-379z" />
<glyph unicode="&#xb4;" horiz-adv-x="612" d="M96 1080l150 244h250l-158 -244h-242z" />
<glyph unicode="&#xb5;" horiz-adv-x="1403" d="M98 -565q-2 54 7 91t21 69t23.5 64.5t16.5 77.5q2 17 3 30.5t1 30.5v1128h190v-776q0 -46 14.5 -90t41.5 -78t65 -54t84 -19q42 0 91.5 19t92 52t71 76.5t28.5 91.5v778h186v-876q0 -34 9.5 -69t27 -63t43 -43t57.5 -9q41 8 64.5 34t34.5 64l16 61h43l-16 -69 q-12 -48 -43.5 -86.5t-71.5 -65t-82.5 -39.5t-75.5 -8q-35 5 -69.5 24.5t-62 49.5t-45.5 68.5t-19 82.5l-60 -59q-34 -34 -71.5 -63t-75 -50.5t-73.5 -33.5t-66 -11q-24 0 -58 8t-70.5 24t-71 40.5t-58.5 58.5v-80q0 -36 5.5 -65.5t14 -56.5t18.5 -52.5t19 -54t15 -62 t7 -75.5q1 -28 -6 -55t-21.5 -48t-36 -33.5t-48.5 -11.5q-26 1 -45.5 12.5t-33.5 30t-21.5 42t-8.5 48.5z" />
<glyph unicode="&#xb6;" horiz-adv-x="1174" d="M98 916q-1 89 32 168t91.5 137.5t138.5 92.5t175 34l548 2v-1990h-145v1841h-270v-1845l-146 -2v1138q-87 1 -163.5 34.5t-134.5 91.5t-91.5 134.5t-34.5 163.5z" />
<glyph unicode="&#xb7;" horiz-adv-x="481" />
<glyph unicode="&#xba;" horiz-adv-x="840" d="M104 1019q0 64 25.5 120t69 97.5t101 64.5t120.5 21q61 -2 115.5 -24t94.5 -61.5t63.5 -94t23.5 -121.5q0 -62 -24 -116.5t-65.5 -95t-96.5 -64.5t-117 -25q-64 -2 -120.5 21t-98.5 64t-66.5 96.5t-24.5 117.5zM123 509v139h596v-139h-596zM264 1023q-1 -31 10.5 -58.5 t31 -48.5t46.5 -33t58 -12q31 -1 58.5 11.5t48 34t31 50t9.5 60.5q-1 29 -12 55t-30 45t-45 30.5t-56 12.5t-56.5 -10.5t-47 -31.5t-33 -47t-13.5 -58z" />
<glyph unicode="&#xbb;" horiz-adv-x="1202" d="M94 638v219l453 -334v-223l-445 -346v231l314 223zM664 638v219l450 -334v-223l-444 -346v231l313 223z" />
<glyph unicode="&#xbf;" horiz-adv-x="4177" d="M275 149v923h3790v-923h-3790zM1532 424h43v-1h46q24 0 42.5 2.5t30.5 7.5q27 10 36 38q10 28 10 75v137h-45v-158q0 -43 -18 -56q-23 -13 -60 -12h-41v321h-44v-354zM1677 369q0 -14 5 -18q2 -5 18 -5h16q16 0 19 5q6 5 5 18v32h-40q-14 0 -18 -6q-8 -6 -5 -18v-8z M1779 545q1 -9 2.5 -19.5t5.5 -22.5q5 -11 10.5 -22t13.5 -22q15 -21 40 -35h88v-2q-4 -8 -8.5 -15.5t-10.5 -12.5q-12 -12 -27 -18l-9 -2l-10 -2q20 -5 37 -5h1h1q35 0 52 15q8 7 13.5 14t6.5 14l4 13l3 34v226h-88q-33 2 -56 -6q-22 -6 -39 -26q-9 -8 -14.5 -20t-9.5 -26 t-6 -29t0 -31zM1823 546v9q0 12 1.5 22.5t3.5 21.5q6 20 15 29q8 11 25 17l47 5h30v-193h-46q-31 2 -46 17q-13 14 -21 31q-4 10 -5.5 20t-3.5 21zM1990 371q14 -5 36 -5q35 1 52 15q17 13 20 29l3 12l3 34v226h-43v-216q0 -27 -8 -45q-4 -15 -18 -29q-6 -5 -12 -9.5 t-14 -7.5l-10 -3zM2142 545q1 -9 2.5 -19.5t5.5 -22.5q8 -23 24 -44q15 -21 40 -35h88v-2q-4 -8 -8.5 -15.5t-10.5 -12.5q-12 -12 -27 -18l-9 -2l-10 -2q20 -5 36 -5h3q35 0 52 15q8 7 13.5 14t6.5 14l4 13l4 34v226h-89q-33 2 -56 -6q-20 -5 -41 -26q-14 -15 -22 -46 q-8 -29 -6 -60zM2185 555q2 25 7 44q5 21 13 29q5 6 11 10t14 7l49 5h28v-193h-45q-32 2 -47 17q-12 12 -20 31q-4 10 -5.5 20t-3.5 21zM2373 809h112v22h-31q-17 0 -26 9q-10 10 -10 26v1q2 13 6 15l7 4l17 2h22v23h-26l-21 -3q-9 -1 -16 -10q-14 -11 -15 -31v-3 q0 -15 6 -27l4 -6h-29v-22zM2408 427h43v353h-43v-353zM2528 235h1253v752h-1253v-752zM2558 570q0 17 2 30t4 24q6 19 19 32q12 13 32 18l59 7h185v-147q0 -17 -1 -30t-4 -23q-6 -20 -19 -33q-10 -13 -32 -18q-10 -3 -24 -5t-34 -2h-71q-19 0 -33.5 2t-25.5 5q-18 4 -32 18 q-13 13 -19 33q-4 17 -4 53zM2581 765v14q0 23 9 31q5 5 13 6l22 3h72v-54q0 -24 -9 -31q-4 -5 -12 -7l-23 -2h-28l-22 2q-8 1 -13 7q-9 7 -9 31zM2675 539q0 -21 8 -29q2 -4 8 -6l19 -2l17 2q7 2 9 6q10 8 7 29v70h-34l-18 -2l-8 -6q-8 -8 -8 -28v-34zM2742 779q0 23 10 31 l13 6l22 3h72v-54q1 -24 -9 -31q-4 -5 -12 -7l-24 -2h-26l-23 2q-8 1 -13 7q-10 9 -9 31zM2833 395l11 1l10 2q16 6 29 17q12 9 20 27q7 18 8 43v196h116v-167h236q20 0 29 11q11 11 11 23q0 10 -7 17q-9 6 -24 6h-184v110h224q52 0 77 -23q22 -22 22 -54q-1 -18 -4 -32.5 t-10 -25.5q-6 -11 -13.5 -19t-15.5 -13h59l19 1q9 3 11 7q10 6 8 28v224h116v-240q0 -34 -6 -53q-5 -19 -18 -33q-12 -14 -31 -18q-11 -3 -25.5 -5t-34.5 -2h-444q-3 -18 -25 -37q-22 -18 -73 -20q-16 0 -29.5 2.5t-25.5 7.5q-24 10 -36 19zM3631 423v351h115v-351h-115z " />
<glyph unicode="&#xc0;" horiz-adv-x="1386" d="M96 -200l592 1569l596 -1569h-319l-54 168h-422l-61 -168h-332zM444 1707h250l150 -244h-242zM580 255h227l-119 323z" />
<glyph unicode="&#xc3;" horiz-adv-x="1401" d="M96 -200l592 1569l596 -1569h-319l-54 168h-422l-61 -168h-332zM279 1662q34 48 85 76.5t101 33.5q21 1 42.5 -2t40 -7.5t31.5 -9t15 -5.5l63 -27q31 -12 58 -15t59 3q25 5 42.5 19t33.5 34l145 -188q-32 -44 -74.5 -70.5t-80.5 -32.5q-37 -6 -72.5 4.5t-77.5 26.5 l-57 20q-57 22 -105 19q-21 -2 -37 -9.5t-29 -18.5t-23.5 -23t-20.5 -21zM580 255h227l-119 323z" />
<glyph unicode="&#xc4;" horiz-adv-x="1386" d="M96 -200l592 1569l596 -1569h-319l-54 168h-422l-61 -168h-332zM246 1664q4 35 19.5 66t39.5 53.5t55.5 35.5t67.5 13q37 0 69 -13.5t56 -37.5t38.5 -57.5t16.5 -72.5q1 -39 -13 -73.5t-39.5 -60t-59.5 -40.5t-72 -14q-38 0 -72 15.5t-59 42.5t-38 64t-9 79zM580 255h227 l-119 323zM788 1664q4 35 19 66t39 53.5t55.5 35.5t67.5 13q37 0 69 -13.5t56 -37.5t38.5 -57.5t16.5 -72.5q1 -39 -13 -73.5t-39.5 -60t-59.5 -40.5t-72 -14q-39 0 -72.5 15.5t-58 42.5t-37.5 64t-9 79z" />
<glyph unicode="&#xc5;" horiz-adv-x="1393" d="M96 -200l592 1569l596 -1569h-319l-54 168h-422l-61 -168h-332zM504 1647q1 62 29.5 103.5t70.5 61.5t90.5 18.5t90 -23t68.5 -64t26 -104.5q-1 -63 -29.5 -104t-70.5 -61t-90.5 -18.5t-90 23t-68.5 63.5t-26 105zM580 255h227l-119 323zM596 1645q-1 -33 13.5 -55 t36.5 -33.5t47.5 -12.5t47.5 9t37.5 31.5t16.5 54.5t-13 55.5t-36 34.5t-47.5 13t-48 -9.5t-38 -32.5t-16.5 -55z" />
<glyph unicode="&#xc6;" horiz-adv-x="1767" d="M96 -200l592 1569l596 -1569h-319l-54 168h-422l-61 -168h-332zM580 255h227l-119 323zM969 -200v1526h690v-303h-375v-297h375v-291h-375v-330h379v-305h-694z" />
<glyph unicode="&#xc7;" horiz-adv-x="1288" d="M0 568q2 109 32.5 209t83 186t126 157t161.5 122t188.5 80t209.5 32q37 1 82 -4.5t84 -11.5t65 -11.5t27 -4.5v-330q1 -1 -17 9t-51 22.5t-78.5 23t-97.5 10.5q-95 0 -186 -38t-161.5 -104.5t-113.5 -156.5t-43 -194q1 -107 42 -198.5t110 -158.5t161 -105t195 -38 q47 0 91.5 10.5t80 23t57 23.5t23.5 13v-324q-1 -1 -21 -7.5t-54.5 -15t-80.5 -15t-100 -7.5q-111 -1 -215 28.5t-195.5 83t-167 128.5t-129 164.5t-82.5 190.5t-26 208zM545 -558l155 243h242l-149 -243h-248z" />
<glyph unicode="&#xc9;" horiz-adv-x="909" d="M96 -200v1526h690v-303h-374v-297h374v-291h-374v-330h379v-305h-695zM330 1467l149 244h250l-158 -244h-241z" />
<glyph unicode="&#xd1;" horiz-adv-x="1448" d="M100 -200h312v858l925 -893v1559h-311v-840l-926 883v-1567zM352 1662q34 48 85.5 76.5t101.5 33.5q21 1 42.5 -2t40 -7.5t31.5 -9t15 -5.5l63 -27q31 -12 58 -15t59 3q25 5 42.5 19t33.5 34l145 -188q-32 -44 -74.5 -70.5t-81.5 -32.5q-37 -6 -72 4.5t-77 26.5l-57 20 q-57 22 -105 19q-21 -2 -37 -9.5t-29 -18.5t-23.5 -23t-20.5 -21z" />
<glyph unicode="&#xd5;" horiz-adv-x="1810" d="M96 554q-1 110 28.5 212.5t83 191.5t128 162.5t165 126t193 80.5t211.5 27t209.5 -29t188 -78.5t159.5 -121t124 -156t81.5 -184.5t32.5 -207q2 -111 -25 -214t-78.5 -193.5t-125 -165.5t-163 -129t-192 -84t-213.5 -31q-110 -1 -212 27.5t-191.5 80t-163.5 124 t-127 160.5t-83 189.5t-30 211.5zM401 570q-2 -72 15.5 -137.5t51 -122.5t80.5 -103t104 -78.5t122 -50t135 -16.5q68 1 131.5 20t118.5 52.5t100 80t76.5 102.5t48 119.5t15.5 131.5q-2 101 -41.5 189.5t-106.5 154t-156.5 103.5t-191.5 38q-101 0 -191 -37.5t-158.5 -103 t-109 -153.5t-43.5 -189zM504 1662q34 48 85.5 76.5t100.5 33.5q21 1 42.5 -2t40 -7.5t31.5 -9t15 -5.5l64 -27q31 -12 57.5 -15t58.5 3q25 5 43 19t33 34l146 -188q-32 -44 -75 -70.5t-81 -32.5q-37 -6 -72.5 4.5t-77.5 26.5l-57 20q-57 22 -104 19q-22 -2 -38 -9.5 t-28.5 -18.5t-23 -23t-21.5 -21z" />
<glyph unicode="&#xd6;" horiz-adv-x="1810" d="M96 554q-1 110 28.5 212.5t83 191.5t128 162.5t165 126t193 80.5t211.5 27t209.5 -29t188 -78.5t159.5 -121t124 -156t81.5 -184.5t32.5 -207q2 -111 -25 -214t-78.5 -193.5t-125 -165.5t-163 -129t-192 -84t-213.5 -31q-110 -1 -212 27.5t-191.5 80t-163.5 124 t-127 160.5t-83 189.5t-30 211.5zM401 570q-2 -72 15.5 -137.5t51 -122.5t80.5 -103t104 -78.5t122 -50t135 -16.5q68 1 131.5 20t118.5 52.5t100 80t76.5 102.5t48 119.5t15.5 131.5q-2 101 -41.5 189.5t-106.5 154t-156.5 103.5t-191.5 38q-101 0 -191 -37.5t-158.5 -103 t-109 -153.5t-43.5 -189zM430 1664q4 35 19.5 66t39.5 53.5t55.5 35.5t67.5 13q37 0 69.5 -13.5t56.5 -37.5t38.5 -57.5t16.5 -72.5q1 -39 -13 -73.5t-39.5 -60t-59.5 -40.5t-73 -14q-38 0 -72 15.5t-59 42.5t-38 64t-9 79zM973 1664q4 35 19 66t39 53.5t55 35.5t67 13 q37 0 69 -13.5t56 -37.5t38.5 -57.5t16.5 -72.5q1 -39 -13 -73.5t-39.5 -60t-59.5 -40.5t-72 -14q-38 0 -72 15.5t-58 42.5t-37 64t-9 79z" />
<glyph unicode="&#xd7;" horiz-adv-x="1229" d="M152 -73l385 387l-385 387l75 76l387 -387l387 387l76 -76l-387 -387l387 -387l-76 -76l-387 385l-387 -385z" />
<glyph unicode="&#xd8;" horiz-adv-x="1817" d="M96 -139l1436 1489l100 -61l-1435 -1489zM96 554q-1 110 28.5 212.5t83 191.5t128 162.5t165 126t193 80.5t211.5 27t209.5 -29t188 -78.5t159.5 -121t124 -156t81.5 -184.5t32.5 -207q2 -111 -25 -214t-78.5 -193.5t-125 -165.5t-163 -129t-192 -84t-213.5 -31 q-110 -1 -212 27.5t-191.5 80t-163.5 124t-127 160.5t-83 189.5t-30 211.5zM401 570q-2 -72 15.5 -137.5t51 -122.5t80.5 -103t104 -78.5t122 -50t135 -16.5q68 1 131.5 20t118.5 52.5t100 80t76.5 102.5t48 119.5t15.5 131.5q-2 101 -41.5 189.5t-106.5 154t-156.5 103.5 t-191.5 38q-101 0 -191 -37.5t-158.5 -103t-109 -153.5t-43.5 -189z" />
<glyph unicode="&#xdc;" horiz-adv-x="1290" d="M113 339q0 -128 42 -233.5t115.5 -182t173.5 -119t215 -43.5q79 -1 150 21t130.5 59t107 86.5t81 105.5t51 115t17.5 115v1061h-313v-1006q0 -48 -11.5 -93t-37 -80t-65 -56.5t-95.5 -22.5q-62 -2 -109 16t-79.5 59t-49 107.5t-16.5 163.5v912h-307v-985zM209 1664 q4 35 19.5 66t39.5 53.5t55.5 35.5t67.5 13q37 0 69 -13.5t56 -37.5t38.5 -57.5t16.5 -72.5q1 -39 -13 -73.5t-39.5 -60t-59.5 -40.5t-72 -14q-38 0 -72 15.5t-59 42.5t-38 64t-9 79zM752 1664q4 35 19 66t39 53.5t55 35.5t67 13q37 0 69 -13.5t56 -37.5t38.5 -57.5 t16.5 -72.5q1 -39 -13 -73.5t-39.5 -60t-59.5 -40.5t-72 -14q-39 0 -72.5 15.5t-58 42.5t-37 64t-8.5 79z" />
<glyph unicode="&#xdf;" horiz-adv-x="1393" d="M96 91h242v821q0 61 17 118.5t47 107.5t72 91t92 70.5t106.5 45t115.5 14.5q87 -2 168 -36.5t143 -93t98 -137t34 -168.5q-2 -52 -12.5 -94.5t-31 -78.5t-50.5 -67t-70 -61q0 -1 16.5 -11.5t40 -30.5t51 -50.5t50 -70t36.5 -89t11 -108.5q-5 -86 -30.5 -154t-65 -119.5 t-89 -87.5t-103 -58.5t-107 -33t-101.5 -10.5v291q36 -2 72.5 12t65.5 39.5t47.5 60t17.5 74.5q0 39 -16 73t-42 59.5t-59 40t-67 14.5v284q31 2 58.5 16.5t47 37t29.5 51.5t8 61q-2 29 -12.5 55t-29 46t-43.5 32t-56 13q-33 1 -63 -10.5t-53 -32.5t-36.5 -49.5t-13.5 -61.5 v-1106h-535v291z" />
<glyph unicode="&#xe0;" horiz-adv-x="1456" d="M111 289q0 107 40 202.5t110 167.5t163.5 114t200.5 43q71 1 144 -20t140 -67t123 -117t94 -171l240 -641h-301l-64 160q-28 -39 -65.5 -74.5t-83.5 -62t-99 -43t-112 -17.5q-72 -2 -139 16t-126 52.5t-107.5 83t-83.5 107.5t-54.5 127t-19.5 140zM279 1324h249l150 -244 h-242zM377 294q-2 -53 17.5 -102t54 -85.5t81.5 -58t101 -19.5q54 1 100 22t79.5 55.5t52 80t18.5 96.5q1 53 -19 100.5t-54.5 83t-80.5 56t-98 20.5q-51 0 -96.5 -19.5t-80 -53.5t-54.5 -79.5t-21 -96.5z" />
<glyph unicode="&#xe1;" horiz-adv-x="1456" d="M111 289q0 107 40 202.5t110 167.5t163.5 114t200.5 43q71 1 144 -20t140 -67t123 -117t94 -171l240 -641h-301l-64 160q-28 -39 -65.5 -74.5t-83.5 -62t-99 -43t-112 -17.5q-72 -2 -139 16t-126 52.5t-107.5 83t-83.5 107.5t-54.5 127t-19.5 140zM377 294 q-2 -53 17.5 -102t54 -85.5t81.5 -58t101 -19.5q54 1 100 22t79.5 55.5t52 80t18.5 96.5q1 53 -19 100.5t-54.5 83t-80.5 56t-98 20.5q-51 0 -96.5 -19.5t-80 -53.5t-54.5 -79.5t-21 -96.5zM453 1080l149 244h250l-158 -244h-241z" />
<glyph unicode="&#xe2;" horiz-adv-x="1456" d="M111 289q0 107 40 202.5t110 167.5t163.5 114t200.5 43q71 1 144 -20t140 -67t123 -117t94 -171l240 -641h-301l-64 160q-28 -39 -65.5 -74.5t-83.5 -62t-99 -43t-112 -17.5q-72 -2 -139 16t-126 52.5t-107.5 83t-83.5 107.5t-54.5 127t-19.5 140zM268 1053l219 271h301 l211 -271h-245l-119 138l-119 -138h-248zM377 294q-2 -53 17.5 -102t54 -85.5t81.5 -58t101 -19.5q54 1 100 22t79.5 55.5t52 80t18.5 96.5q1 53 -19 100.5t-54.5 83t-80.5 56t-98 20.5q-51 0 -96.5 -19.5t-80 -53.5t-54.5 -79.5t-21 -96.5z" />
<glyph unicode="&#xe3;" horiz-adv-x="1462" d="M111 289q0 107 40 202.5t110 167.5t163.5 114t200.5 43q71 1 144 -20t140 -67t123 -117t94 -171l240 -641h-301l-64 160q-28 -39 -65.5 -74.5t-83.5 -62t-99 -43t-112 -17.5q-72 -2 -139 16t-126 52.5t-107.5 83t-83.5 107.5t-54.5 127t-19.5 140zM229 1203 q34 48 85.5 76.5t101.5 33.5q21 2 42.5 -1.5t40 -8t31.5 -9t15 -5.5l63 -27q31 -12 58 -15t59 3q25 5 42.5 19t33.5 34l145 -188q-32 -44 -74.5 -70t-80.5 -33q-38 -6 -73 5t-77 26l-57 21q-58 21 -105 18q-21 -2 -37 -9.5t-29 -18.5t-23.5 -23t-20.5 -21zM377 294 q-2 -53 17.5 -102t54 -85.5t81.5 -58t101 -19.5q54 1 100 22t79.5 55.5t52 80t18.5 96.5q1 53 -19 100.5t-54.5 83t-80.5 56t-98 20.5q-51 0 -96.5 -19.5t-80 -53.5t-54.5 -79.5t-21 -96.5z" />
<glyph unicode="&#xe4;" horiz-adv-x="1456" d="M111 289q0 107 40 202.5t110 167.5t163.5 114t200.5 43q71 1 144 -20t140 -67t123 -117t94 -171l240 -641h-301l-64 160q-28 -39 -65.5 -74.5t-83.5 -62t-99 -43t-112 -17.5q-72 -2 -139 16t-126 52.5t-107.5 83t-83.5 107.5t-54.5 127t-19.5 140zM217 1156q4 35 19.5 66 t39.5 53.5t55.5 35.5t67.5 13q37 0 69.5 -13.5t56.5 -37.5t38.5 -57.5t16.5 -72.5q1 -39 -13 -73.5t-39.5 -60t-59.5 -40.5t-73 -14q-38 0 -72 15.5t-59 42.5t-38 64t-9 79zM377 294q-2 -53 17.5 -102t54 -85.5t81.5 -58t101 -19.5q54 1 100 22t79.5 55.5t52 80t18.5 96.5 q1 53 -19 100.5t-54.5 83t-80.5 56t-98 20.5q-51 0 -96.5 -19.5t-80 -53.5t-54.5 -79.5t-21 -96.5zM760 1156q4 35 19 66t39 53.5t55 35.5t67 13q37 0 69 -13.5t56 -37.5t38.5 -57.5t16.5 -72.5q1 -39 -13 -73.5t-39.5 -60t-59.5 -40.5t-72 -14q-38 0 -72 15.5t-58 42.5 t-37 64t-9 79z" />
<glyph unicode="&#xe5;" horiz-adv-x="1456" d="M111 289q0 107 40 202.5t110 167.5t163.5 114t200.5 43q71 1 144 -20t140 -67t123 -117t94 -171l240 -641h-301l-64 160q-28 -39 -65.5 -74.5t-83.5 -62t-99 -43t-112 -17.5q-72 -2 -139 16t-126 52.5t-107.5 83t-83.5 107.5t-54.5 127t-19.5 140zM377 294 q-2 -53 17.5 -102t54 -85.5t81.5 -58t101 -19.5q54 1 100 22t79.5 55.5t52 80t18.5 96.5q1 53 -19 100.5t-54.5 83t-80.5 56t-98 20.5q-51 0 -96.5 -19.5t-80 -53.5t-54.5 -79.5t-21 -96.5zM412 1137q1 62 30 103.5t71 61.5t90.5 19.5t90 -22t68 -64t24.5 -104.5 q-1 -63 -29.5 -104t-70.5 -60.5t-90 -18.5t-89.5 22.5t-68.5 63t-26 103.5zM504 1137q-1 -33 13 -55.5t35.5 -34.5t47.5 -13t48 9.5t37.5 32.5t16.5 55t-13 55.5t-35.5 34t-47 12.5t-48 -9.5t-38 -32t-16.5 -54.5z" />
<glyph unicode="&#xe6;" horiz-adv-x="2089" d="M111 289q0 107 40 202.5t110 167.5t163.5 114t200.5 43q71 1 144 -20t140 -67t123 -117t94 -171l240 -641h-301l-64 160q-28 -39 -65.5 -74.5t-83.5 -62t-99 -43t-112 -17.5q-72 -2 -139 16t-126 52.5t-107.5 83t-83.5 107.5t-54.5 127t-19.5 140zM377 294 q-2 -53 17.5 -102t54 -85.5t81.5 -58t101 -19.5q54 1 100 22t79.5 55.5t52 80t18.5 96.5q1 53 -19 100.5t-54.5 83t-80.5 56t-98 20.5q-51 0 -96.5 -19.5t-80 -53.5t-54.5 -79.5t-21 -96.5zM934 287q-1 111 42 209.5t117 171.5t172.5 114.5t209.5 37.5q123 -5 221.5 -55 t166.5 -134t101.5 -195t26.5 -237h-772q27 -78 87 -122t144 -46q62 -2 112 21.5t80 60.5l193 -194q1 1 -12.5 -11t-38 -29.5t-59.5 -38.5t-78 -38.5t-93 -29.5t-104 -11q-107 1 -201 42.5t-164 112t-110.5 166t-40.5 205.5zM1239 416h436q-1 0 -12.5 20t-37.5 44.5t-68 44.5 t-103 20q-54 0 -93.5 -20.5t-66.5 -44.5q-32 -28 -55 -64z" />
<glyph unicode="&#xe7;" horiz-adv-x="1124" d="M0 285q0 109 43.5 206.5t117 170t170 113.5t201.5 37q102 -3 175 -29.5t119.5 -57.5t68.5 -56t23 -25l-195 -180q-1 0 -15 12.5t-38.5 27.5t-58.5 27.5t-74 13.5q-55 1 -102 -18t-82.5 -53t-56 -80t-22.5 -98q-2 -53 17 -101t52.5 -84.5t80.5 -58.5t102 -23q24 -1 49 6 t48.5 17.5t44 23.5t35.5 24.5t23.5 19t8.5 8.5l183 -181q-80 -95 -174.5 -139t-211.5 -47q-109 -2 -205.5 39t-169 113t-115 168t-42.5 204zM274 -558l158 243h242l-150 -243h-250z" />
<glyph unicode="&#xe8;" horiz-adv-x="1255" d="M106 287q-1 111 42 209.5t117 171.5t172.5 114.5t209.5 37.5q123 -5 222 -55t167 -134t101.5 -195t25.5 -237h-772q28 -78 88 -122t144 -46q62 -2 111.5 21.5t80.5 60.5l193 -194q0 1 -13 -11t-37.5 -29.5t-59.5 -38.5t-78 -38.5t-93 -29.5t-104 -11q-107 1 -201 42.5 t-164.5 112t-111 166t-40.5 205.5zM350 1324h250l150 -244h-242zM412 416h436q-1 0 -12.5 20t-37.5 44.5t-68 44.5t-103 20q-54 0 -94 -20.5t-67 -44.5q-32 -28 -54 -64z" />
<glyph unicode="&#xe9;" horiz-adv-x="1255" d="M106 287q0 -110 40.5 -205.5t111 -166t164.5 -112t201 -42.5q54 -1 104 11t93 29.5t78 38.5t59.5 38.5t37.5 29.5t13 11l-193 194q-31 -37 -80.5 -60.5t-111.5 -21.5q-84 2 -144 46t-88 122h772q8 126 -25.5 237t-101.5 195t-167 134t-222 55q-111 4 -209.5 -37.5 t-172.5 -114.5t-117 -171.5t-42 -209.5zM412 416q22 36 54 64q27 24 67 44.5t94 20.5q61 0 103 -20t68 -44.5t37.5 -44.5t12.5 -20h-436zM535 1080l149 244h250l-158 -244h-241z" />
<glyph unicode="&#xea;" horiz-adv-x="1255" d="M106 287q0 -110 40.5 -205.5t111 -166t164.5 -112t201 -42.5q54 -1 104 11t93 29.5t78 38.5t59.5 38.5t37.5 29.5t13 11l-193 194q-31 -37 -80.5 -60.5t-111.5 -21.5q-84 2 -144 46t-88 122h772q8 126 -25.5 237t-101.5 195t-167 134t-222 55q-111 4 -209.5 -37.5 t-172.5 -114.5t-117 -171.5t-42 -209.5zM250 1053l219 271h301l211 -271h-246l-119 138l-118 -138h-248zM412 416q22 36 54 64q27 24 67 44.5t94 20.5q61 0 103 -20t68 -44.5t37.5 -44.5t12.5 -20h-436z" />
<glyph unicode="&#xeb;" horiz-adv-x="1255" d="M106 287q0 -110 40.5 -205.5t111 -166t164.5 -112t201 -42.5q54 -1 104 11t93 29.5t78 38.5t59.5 38.5t37.5 29.5t13 11l-193 194q-31 -37 -80.5 -60.5t-111.5 -21.5q-84 2 -144 46t-88 122h772q8 126 -25.5 237t-101.5 195t-167 134t-222 55q-111 4 -209.5 -37.5 t-172.5 -114.5t-117 -171.5t-42 -209.5zM166 1156q4 35 19.5 66t39.5 53.5t55.5 35.5t67.5 13q37 0 69 -13.5t56 -37.5t38.5 -57.5t16.5 -72.5q1 -39 -13 -73.5t-39.5 -60t-59.5 -40.5t-72 -14q-38 0 -72 15.5t-59 42.5t-38 64t-9 79zM412 416q22 36 54 64q27 24 67 44.5 t94 20.5q61 0 103 -20t68 -44.5t37.5 -44.5t12.5 -20h-436zM709 1156q4 35 19 66t39 53.5t55 35.5t67 13q37 0 69 -13.5t56 -37.5t38.5 -57.5t16.5 -72.5q1 -39 -13 -73.5t-39.5 -60t-59.5 -40.5t-72 -14q-39 0 -72.5 15.5t-58 42.5t-37 64t-8.5 79z" />
<glyph unicode="&#xec;" horiz-adv-x="588" d="M84 1324h248l149 -244h-241zM201 -200v989h282v-989h-282z" />
<glyph unicode="&#xed;" horiz-adv-x="645" d="M92 -200h283v989h-283v-989zM143 1080l150 244h250l-158 -244h-242z" />
<glyph unicode="&#xee;" horiz-adv-x="942" d="M96 1053l219 271h301l211 -271h-245l-119 138l-119 -138h-248zM315 -200h283v989h-283v-989z" />
<glyph unicode="&#xef;" horiz-adv-x="1116" d="M119 1156q4 35 19 66t39 53.5t55 35.5t67 13q37 0 69 -13.5t56 -37.5t38.5 -57.5t16.5 -72.5q1 -39 -13 -73.5t-39.5 -60t-59.5 -40.5t-72 -14q-38 0 -72 15.5t-58 42.5t-37 64t-9 79zM428 -200h283v989h-283v-989zM659 1156q4 35 19 66t39 53.5t55.5 35.5t67.5 13 q37 0 69.5 -13.5t56.5 -37.5t38.5 -57.5t15.5 -72.5t-13 -73.5t-39 -60t-59 -40t-71 -14.5q-39 1 -73.5 16.5t-59 42.5t-37.5 63.5t-9 78.5z" />
<glyph unicode="&#xf1;" horiz-adv-x="1067" d="M106 388q0 89 34.5 167t94 136t140 92t172.5 35q84 1 159.5 -33t132 -91.5t89.5 -134.5t33 -163v-596h-273v535q0 91 -38.5 147.5t-106.5 58.5q-69 1 -108.5 -46.5t-39.5 -129.5v-565h-286zM137 1203q34 48 85.5 76.5t101.5 33.5q21 2 42.5 -1.5t40 -8t31 -9t15.5 -5.5 l63 -27q31 -12 58 -15t59 3q25 5 42.5 19t33.5 34l145 -188q-32 -44 -74.5 -70t-81.5 -33q-37 -6 -72 5t-77 26l-57 21q-58 21 -105 18q-21 -2 -37 -9.5t-29 -18.5t-23.5 -23t-21.5 -21z" />
<glyph unicode="&#xf2;" horiz-adv-x="1282" d="M109 287q0 74 20.5 143t57 128.5t87.5 108t112 82.5t130 51.5t143 15.5q108 -3 202 -41.5t164.5 -107t111 -164.5t41.5 -214q0 -109 -41.5 -204t-113.5 -166t-168.5 -113t-205.5 -45q-111 -4 -209.5 37t-172 113t-116 169t-42.5 207zM311 1324h250l150 -244h-242z M387 294q-2 -55 17.5 -103t54 -84.5t81 -57.5t99.5 -22q56 -2 104.5 20t84.5 60t55.5 88t17.5 105q-2 52 -22 97.5t-54 79.5t-79 54t-97 21q-53 1 -100 -19t-82.5 -55.5t-57 -83t-22.5 -100.5z" />
<glyph unicode="&#xf3;" horiz-adv-x="1282" d="M109 287q0 -110 42.5 -207t116 -169t172 -113t209.5 -37q109 3 205.5 45t168.5 113t113.5 166t41.5 204q-1 118 -41.5 214t-111 164.5t-164.5 107t-202 41.5q-74 2 -143 -15.5t-130 -51.5t-112 -82.5t-87.5 -108t-57 -128.5t-20.5 -143zM387 294q1 53 22.5 100.5t57 83 t82.5 55.5t100 19q52 -1 97 -21t79 -54t54 -79.5t22 -97.5q2 -55 -17.5 -105t-55.5 -88t-84.5 -60t-104.5 -20q-53 1 -99.5 22t-81 57.5t-54 84.5t-17.5 103zM483 1080l150 244h250l-158 -244h-242z" />
<glyph unicode="&#xf4;" horiz-adv-x="1284" d="M109 287q0 -110 42.5 -207t116 -169t172 -113t209.5 -37q109 3 205.5 45t168.5 113t113.5 166t41.5 204q-1 118 -41.5 214t-111 164.5t-164.5 107t-202 41.5q-74 2 -143 -15.5t-130 -51.5t-112 -82.5t-87.5 -108t-57 -128.5t-20.5 -143zM260 1053l219 271h301l211 -271 h-246l-118 138l-119 -138h-248zM387 294q1 53 22.5 100.5t57 83t82.5 55.5t100 19q52 -1 97 -21t79 -54t54 -79.5t22 -97.5q2 -55 -17.5 -105t-55.5 -88t-84.5 -60t-104.5 -20q-53 1 -99.5 22t-81 57.5t-54 84.5t-17.5 103z" />
<glyph unicode="&#xf5;" horiz-adv-x="1284" d="M109 287q0 -110 42.5 -207t116 -169t172 -113t209.5 -37q109 3 205.5 45t168.5 113t113.5 166t41.5 204q-1 118 -41.5 214t-111 164.5t-164.5 107t-202 41.5q-74 2 -143 -15.5t-130 -51.5t-112 -82.5t-87.5 -108t-57 -128.5t-20.5 -143zM270 1213q34 48 85.5 77t101.5 34 q21 1 42.5 -2t40 -8t31.5 -9.5t15 -5.5l63 -26q31 -13 58 -16t59 3q25 5 42.5 19t33.5 34l145 -188q-32 -43 -74.5 -69.5t-81.5 -32.5q-37 -7 -72 4t-77 26l-57 21q-58 21 -105 18q-21 -2 -37 -9.5t-29 -18.5t-23.5 -22.5t-20.5 -20.5zM387 294q1 53 22.5 100.5t57 83 t82.5 55.5t100 19q52 -1 97 -21t79 -54t54 -79.5t22 -97.5q2 -55 -17.5 -105t-55.5 -88t-84.5 -60t-104.5 -20q-53 1 -99.5 22t-81 57.5t-54 84.5t-17.5 103z" />
<glyph unicode="&#xf6;" horiz-adv-x="1282" d="M109 287q0 -110 42.5 -207t116 -169t172 -113t209.5 -37q109 3 205.5 45t168.5 113t113.5 166t41.5 204q-1 118 -41.5 214t-111 164.5t-164.5 107t-202 41.5q-74 2 -143 -15.5t-130 -51.5t-112 -82.5t-87.5 -108t-57 -128.5t-20.5 -143zM188 1156q4 35 19.5 66t39.5 53.5 t56 35.5t68 13q37 0 69 -13.5t56 -37.5t38.5 -57.5t16.5 -72.5q1 -39 -13 -73.5t-39.5 -60t-59.5 -40.5t-72 -14q-39 0 -73 15.5t-59 42.5t-38 64t-9 79zM387 294q1 53 22.5 100.5t57 83t82.5 55.5t100 19q52 -1 97 -21t79 -54t54 -79.5t22 -97.5q2 -55 -17.5 -105 t-55.5 -88t-84.5 -60t-104.5 -20q-53 1 -99.5 22t-81 57.5t-54 84.5t-17.5 103zM731 1156q4 35 19 66t39 53.5t55 35.5t67 13q37 0 69.5 -13.5t56.5 -37.5t38.5 -57.5t16.5 -72.5q1 -39 -13 -73.5t-39.5 -60t-59.5 -40.5t-73 -14q-38 0 -72 15.5t-58 42.5t-37 64t-9 79z" />
<glyph unicode="&#xf7;" horiz-adv-x="1491" d="M106 367v144h1311v-144h-1311zM608 99q0 28 11.5 53t31 44t45 29.5t54.5 10.5q28 0 53.5 -11t44.5 -30t30.5 -45t12.5 -55q0 -29 -12 -55t-32 -45.5t-46.5 -30.5t-55.5 -10q-28 0 -53.5 11.5t-44 31.5t-29.5 46.5t-10 55.5zM610 781q1 28 12 53.5t30.5 44.5t45 30 t54.5 11q28 0 53.5 -11.5t44.5 -30.5t30 -45t11 -54q0 -29 -11.5 -55.5t-31 -46t-45.5 -31t-55 -10.5t-54.5 13t-44 32t-29 45.5t-10.5 54.5z" />
<glyph unicode="&#xf8;" horiz-adv-x="1276" d="M96 -139l918 934l98 -61l-915 -934zM96 287q0 74 20.5 143t57 128.5t87.5 108t112.5 82.5t131.5 51.5t144 15.5q108 -3 202 -41.5t164.5 -107t111 -164.5t40.5 -214q0 -109 -41.5 -204t-113.5 -166t-168 -113t-205 -45q-112 -4 -211 37t-172.5 113t-116.5 169t-43 207z M377 294q-2 -55 17 -103t53.5 -84.5t81 -57.5t100.5 -22q56 -2 104.5 20t83.5 60t54.5 88t17.5 105q-2 52 -21.5 97.5t-53.5 79.5t-79 54t-96 21q-54 1 -101 -19t-82 -55.5t-56.5 -83t-22.5 -100.5z" />
<glyph unicode="&#xf9;" horiz-adv-x="1096" d="M113 791h293v-590q0 -69 39.5 -112t105.5 -45q32 -1 59 11t46 32t29.5 47.5t10.5 58.5v598h289v-610q0 -89 -35.5 -164t-95 -130.5t-138 -88t-165.5 -35.5q-90 -3 -169.5 32t-138.5 95.5t-93.5 141.5t-34.5 171zM342 1324h250l149 -244h-241z" />
<glyph unicode="&#xfa;" horiz-adv-x="1090" d="M113 791l2 -588q0 -90 34.5 -171t93.5 -141.5t138.5 -95.5t169.5 -32q87 3 165.5 35.5t138 88t95 130.5t35.5 164v610h-289v-598q0 -31 -10.5 -58.5t-29.5 -47.5t-46 -32t-59 -11q-66 2 -105.5 45t-39.5 112v590h-293zM408 1080l149 244h250l-158 -244h-241z" />
<glyph unicode="&#xfb;" horiz-adv-x="1096" d="M129 203q0 -90 34.5 -171t94 -141.5t138.5 -95.5t169 -32q87 3 166 35.5t139 88t95.5 130.5t35.5 164v610h-288v-598q0 -31 -10.5 -58.5t-30 -47.5t-46.5 -32t-59 -11q-33 1 -60 12.5t-46.5 32t-30 49t-10.5 63.5v590h-291v-588zM158 1053l219 271h299l213 -271h-248 l-117 138l-118 -138h-248z" />
<glyph unicode="&#xfc;" horiz-adv-x="1116" d="M100 1156q4 35 19.5 66t39.5 53.5t56 35.5t68 13q37 0 69 -13.5t56 -37.5t38.5 -57.5t16.5 -72.5q1 -39 -13 -73.5t-39.5 -60t-59.5 -40.5t-72 -14q-39 0 -73 15.5t-59 42.5t-38 64t-9 79zM131 203q0 -90 34.5 -171t94 -141.5t138.5 -95.5t169 -32q87 3 166 35.5 t139.5 88t96 130.5t35.5 164v610h-289v-598q0 -31 -10.5 -58.5t-30 -47.5t-46.5 -32t-59 -11q-66 2 -105.5 45t-39.5 112v590h-293v-588zM641 1156q4 35 19.5 66t39.5 53.5t55.5 35.5t67.5 13q37 0 69.5 -13.5t56.5 -37.5t38.5 -57.5t16.5 -72.5q1 -39 -13 -73.5t-39.5 -60 t-59.5 -40.5t-73 -14q-38 0 -72 15.5t-59 42.5t-38 64t-9 79z" />
<glyph unicode="&#xff;" horiz-adv-x="1186" d="M117 791l348 -899l-244 -616h314l550 1515h-292l-179 -508l-170 508h-327zM164 1156q4 35 19 66t39 53.5t55.5 35.5t66.5 13q37 0 70 -13.5t57 -37.5t38.5 -57.5t16.5 -72.5q1 -39 -13 -73.5t-39.5 -60t-59.5 -40.5t-72 -14q-38 0 -72 15.5t-59 42.5t-38 64t-9 79z M705 1156q4 35 19.5 66t39.5 53.5t55.5 35.5t67.5 13q37 0 69 -13.5t56 -37.5t38.5 -57.5t16.5 -72.5q1 -39 -13 -73.5t-39.5 -60t-59.5 -40.5t-72 -14q-39 0 -73 15.5t-59 42.5t-37.5 64t-8.5 79z" />
<glyph unicode="&#x152;" horiz-adv-x="2224" d="M106 554q-1 110 28.5 212.5t83.5 191.5t128.5 162.5t164.5 126t192.5 80.5t211.5 27t209 -29t187.5 -78.5t159.5 -121t123.5 -156t81 -184.5t32.5 -207q3 -111 -24 -214t-78.5 -193.5t-125 -165.5t-163 -129t-192.5 -84t-214 -31q-109 -1 -211 27.5t-191 80t-163 124 t-127 160.5t-82.5 189.5t-30.5 211.5zM412 570q-3 -108 36 -201t109 -162t163 -108t198 -37q102 1 192.5 42t157.5 110t105 160.5t36 193.5q-1 67 -19.5 129.5t-51 116t-78 97.5t-100.5 75.5t-118 49t-131 17.5q-101 0 -190.5 -37.5t-157.5 -103t-108.5 -153.5t-42.5 -189z M1415 -200v1526h688v-303h-372v-297h372v-291h-372v-330h378v-305h-694z" />
<glyph unicode="&#x153;" horiz-adv-x="2073" d="M109 287q0 74 20.5 143t57 128.5t87.5 108t112 82.5t130 51.5t143 15.5q108 -3 202 -41.5t164.5 -107t111 -164.5t41.5 -214q0 -109 -41.5 -204t-113.5 -166t-168.5 -113t-205.5 -45q-111 -4 -209.5 37t-172 113t-116 169t-42.5 207zM387 294q-2 -55 17.5 -103t54 -84.5 t81 -57.5t99.5 -22q56 -2 104.5 20t84.5 60t55.5 88t17.5 105q-2 52 -22 97.5t-54 79.5t-79 54t-97 21q-53 1 -100 -19t-82.5 -55.5t-57 -83t-22.5 -100.5zM909 287q-1 111 42 209.5t117 171.5t172.5 114.5t209.5 37.5q123 -5 222 -55t167 -134t101.5 -195t25.5 -237h-772 q28 -78 88 -122t143 -46q62 -2 112 21.5t81 60.5l192 -194q0 1 -13 -11t-37.5 -29.5t-59.5 -38.5t-78 -38.5t-93 -29.5t-104 -11q-107 1 -200.5 42.5t-164 112t-111 166t-40.5 205.5zM1214 416h437q-1 0 -12.5 20t-37.5 44.5t-68 44.5t-103 20q-54 0 -94 -20.5t-67 -44.5 q-32 -28 -55 -64z" />
<glyph unicode="&#x192;" horiz-adv-x="1128" d="M94 -399q-3 16 2 31q11 35 36 56.5t63 23.5q19 1 28.5 -7t15.5 -19t12 -21.5t19 -14.5q22 -7 40 11t32.5 52.5t26.5 81.5t22 98.5t19 103.5t18 96l150 745h-234l4 88h262l13 60q13 62 30 128t38.5 129t48 119t58.5 98.5t69 67t79 25.5q21 0 41.5 -8.5t35.5 -22.5 t21.5 -32t-0.5 -37q-12 -37 -41 -57.5t-69 -20.5q-12 0 -21 4.5t-16.5 11.5t-15.5 14.5t-19 12.5q-24 13 -39 -3.5t-25 -51.5t-16 -85t-11.5 -104t-12.5 -108t-19 -97l-12 -45h213l-10 -88h-225l-132 -647q-11 -52 -29 -126t-43.5 -153t-59.5 -155t-77 -131.5t-95.5 -82.5 t-114.5 -9q-15 4 -27.5 14.5t-21 24.5t-11.5 30z" />
<glyph unicode="&#x60c;" horiz-adv-x="499" d="M49 -58q-3 32 5 56t20 53l129 305h246l-185 -217q72 -20 115.5 -69.5t40.5 -125.5q-2 -37 -16.5 -69.5t-38.5 -56.5t-56 -38.5t-69 -15.5q-39 -1 -72.5 13t-59 38t-41.5 56.5t-18 70.5z" />
<glyph unicode="&#x61b;" horiz-adv-x="515" d="M53 467q-2 33 6 56.5t20 52.5l129 305h254l-182 -215q34 -7 65.5 -24.5t54.5 -43t35.5 -58.5t10.5 -70t-18 -69.5t-42 -57t-60.5 -39t-72.5 -15.5q-39 -2 -74 12t-62 38t-44 57t-20 71zM61 -49q0 -39 15.5 -73.5t41.5 -60t60.5 -40t72.5 -14.5t72.5 13.5t61.5 37.5 t43 56.5t18 70.5q2 45 -15.5 82.5t-47 64t-66.5 40.5t-74 12q-36 -2 -69 -17.5t-58 -41t-40 -59t-15 -71.5z" />
<glyph unicode="&#x61f;" horiz-adv-x="1045" d="M37 868q1 98 41 184.5t106 150.5t153 100.5t183 35.5q115 -2 206 -43t154 -106.5t96.5 -149.5t33.5 -172v-39h-291v39q0 41 -16.5 76.5t-44.5 61.5t-65 40.5t-77 13.5q-41 -2 -76.5 -20.5t-62 -47t-41.5 -64.5t-14 -72q2 -43 16 -73.5t37.5 -53.5t53.5 -42t63 -39 t66.5 -44.5t64.5 -57.5q52 -58 78 -139.5t28 -175.5h-278q-1 -1 -0.5 10.5t-1.5 28.5t-7.5 35.5t-17.5 32.5q-19 20 -34 35.5t-40 29.5l-104 62q-50 29 -89 71t-66 93.5t-41 112t-13 126.5zM393 -41q2 35 15 66.5t35.5 55t54 37t71.5 13.5q38 0 71.5 -13.5t58.5 -37t40 -55 t17 -68.5q1 -39 -13.5 -74t-40 -61.5t-59.5 -42t-72 -15.5q-40 1 -74 17t-58 42.5t-36.5 61.5t-9.5 74z" />
<glyph unicode="&#x621;" horiz-adv-x="1424" d="M115 75h327l-54 134q-8 21 -17 54t-9 77l38 183q21 46 48 82.5t60 68.5l66 70q67 67 162 86.5t193.5 5t190.5 -58t153 -103.5l33 -32l-186 -258l-44 55q-40 45 -89 71.5t-109 26.5l-89 -25l-63 -52l-47 -66l-8 -89l8 -78l47 -65l103 -62l134 -25h343v-311h-1191v311z" />
<glyph unicode="&#x622;" horiz-adv-x="736" d="M-262 1782q7 63 13 115t20 96q11 41 26 79t38 65q12 14 21.5 24t18.5 17.5t18 14t21 13.5q34 16 63.5 23.5t64.5 7.5q51 0 105 -17.5t115 -49.5l281 -172q24 -14 47 -19.5t43 -5.5q49 0 69 38q15 14 20 36t5 46v77h211q4 -23 4 -50t-3.5 -55t-9 -55.5t-12.5 -49.5 q-14 -34 -29.5 -65t-39.5 -57t-47.5 -49.5t-46.5 -37.5q-34 -15 -64 -22.5t-65 -7.5q-51 0 -105 17.5t-114 50.5l-297 197q-23 18 -58 18q-24 0 -39.5 -9.5t-32.5 -34.5q-14 -23 -22 -49t-8 -58v-71h-211zM265 -235v1601h310v-1601h-310z" />
<glyph unicode="&#x623;" horiz-adv-x="802" d="M18 1500v192h208l-34 87q-6 14 -10.5 34.5t-4.5 46.5l22 118q14 26 30 49.5t37 44.5l42 43q43 42 103 54.5t122 3.5t120 -36.5t97 -64.5l21 -19l-118 -165l-29 34q-26 31 -55.5 47t-67.5 16l-54 -14l-41 -37l-30 -39l-5 -58l5 -46l30 -40l62 -43l89 -16h214v-192h-753z M273 -236v1608h310v-1608h-310z" />
<glyph unicode="&#x624;" horiz-adv-x="1264" d="M28 347l23 161q11 37 25 70t37 66l90 115l115 92l142 60l161 23h19l202 -30q54 -14 99.5 -39.5t87.5 -61.5q34 -33 63.5 -67.5t53.5 -84.5q56 -94 73 -216l12 -152l-12 -207q-15 -64 -25.5 -103t-19.5 -69.5t-20 -61t-27 -77.5l-142 -276q-47 -72 -103.5 -146 t-131.5 -157l-264 207l179 200q36 47 70.5 96t58.5 99l-154 -23h-32q-56 5 -112.5 16.5t-108.5 27.5q-52 19 -99 45.5t-78 62.5q-49 40 -81 87.5t-53 103.5q-27 56 -37.5 114.5t-10.5 124.5zM228 1230v196h209l-39 83q-5 15 -9 34.5t-4 45.5l20 120q16 26 33 48.5t34 43.5 l48 41q28 29 64 44t76 19t81.5 -2.5t80.5 -20.5t73.5 -35t59.5 -46l18 -21l-112 -165l-28 39q-26 29 -55 45.5t-71 16.5l-56 -16l-36 -35l-35 -41l-5 -58l5 -46l35 -39l64 -44l87 -11h207v-196h-745zM359 347q0 -57 21 -106q8 -29 25 -52t46 -37q12 -16 28.5 -28t47.5 -16 l99 -21l81 -7h55l131 21l16 140l-16 106q-5 35 -11 63t-21 59l-58 81q-12 15 -31.5 28.5t-51.5 21.5l-99 28l-112 -28q-26 -8 -45 -21.5t-38 -28.5l-46 -88z" />
<glyph unicode="&#x625;" horiz-adv-x="640" d="M-101 -848v-192h753v192h-214l-89 16l-62 43l-30 40l-5 46l5 58l30 39l41 37l54 14q38 0 67.5 -16t55.5 -47l29 -34l118 165l-21 19q-39 37 -97 64.5t-120 36.5t-122 -3.5t-103 -54.5l-42 -43q-21 -21 -37 -44.5t-30 -49.5l-22 -118q0 -26 4.5 -46.5t10.5 -34.5l34 -87 h-208zM157 -237v1613h310v-1613h-310z" />
<glyph unicode="&#x626;" horiz-adv-x="2589" d="M139 349q-4 -60 5 -116.5t34 -113.5q23 -52 50.5 -97.5t64.5 -88.5q43 -37 87.5 -66t96.5 -52q52 -22 103.5 -36t112.5 -14h1256v701q-1 72 37 107.5t126 25.5v-834h315v1134h-467q-147 1 -225.5 -59t-100.5 -216v-549h-941l-92 21q-24 9 -43 22.5t-40 32.5 q-14 14 -27 36.5t-21 46.5q-21 45 -21 108l21 108q8 24 21 45.5t27 35.5q14 19 36.5 32.5t46.5 22.5l92 18v309q-61 0 -112.5 -10.5t-103.5 -31.5q-52 -23 -96.5 -50.5t-87.5 -59.5q-37 -37 -64.5 -83.5t-50.5 -98.5q-20 -51 -29.5 -106.5t-9.5 -123.5zM817 1071v196h207 l-34 85q-5 14 -11 34.5t-6 47.5l23 115q14 30 31.5 53t37.5 44l42 44q43 42 103 54.5t122 3t119.5 -37t96.5 -64.5l21 -21l-117 -163l-28 35q-26 29 -57 45.5t-67 16.5l-57 -16l-40 -33l-29 -41l-5 -58l5 -48l29 -41l65 -39l85 -16h216v-196h-752z" />
<glyph unicode="&#x627;" horiz-adv-x="600" d="M143 -235v1613h311v-1613h-311z" />
<glyph unicode="&#x628;" horiz-adv-x="2274" d="M149 349q0 68 9.5 123.5t29.5 106.5q23 52 50.5 98.5t64.5 83.5q43 32 87.5 59.5t96.5 50.5q52 21 103.5 31.5t112.5 10.5v-309l-92 -18q-24 -9 -46.5 -22.5t-36.5 -32.5q-14 -14 -27 -35.5t-21 -45.5l-21 -108q0 -63 21 -108q8 -24 21 -46.5t27 -36.5q21 -19 40 -32.5 t43 -22.5l92 -21h1115v824h304v-1134h-1419q-61 0 -112.5 14t-103.5 36q-52 23 -96.5 52t-87.5 66q-37 43 -64.5 88.5t-50.5 97.5q-25 57 -34 113.5t-5 116.5zM1111 -560q4 35 19 65t38.5 52.5t54 35.5t66.5 13t68 -13.5t56 -37t38 -56t16 -71.5q1 -39 -13 -73t-39 -59.5 t-58.5 -40t-71.5 -13.5q-38 0 -71.5 15.5t-57.5 42t-36.5 62.5t-8.5 78z" />
<glyph unicode="&#x629;" horiz-adv-x="1430" d="M126 360q0 79 21.5 153.5t60 139t92.5 118.5t119.5 92t140 58.5t155.5 20.5q124 -1 231 -47t186 -125.5t124 -185.5t45 -226q1 -121 -44 -229t-124 -189t-186 -128.5t-230 -47.5q-122 0 -229.5 47.5t-188 129t-127.5 189.5t-46 230zM343 1255q4 35 19 66t39 53.5t55 35.5 t67 13q37 0 69 -13.5t56 -37.5t38.5 -57t16.5 -72q1 -39 -13 -73.5t-39.5 -60t-59.5 -40.5t-72 -14q-38 0 -72 15.5t-58 42.5t-37 63.5t-9 78.5zM436 346q0 -58 23.5 -108.5t63.5 -87.5t92 -57.5t109 -17.5q63 2 115 28.5t89 69t55.5 96.5t14.5 112q-7 52 -30.5 99t-59.5 82 t-83 55.5t-101 20.5q-60 1 -112.5 -22t-91.5 -62.5t-61.5 -93.5t-22.5 -114zM766 1253q4 35 19 66t39 53.5t55 35.5t67 13q37 0 69 -13.5t56 -37.5t38.5 -57t16.5 -72q1 -39 -13 -73.5t-39.5 -60t-59.5 -40.5t-72 -14q-38 0 -72 15.5t-58 42.5t-37 63.5t-9 78.5z" />
<glyph unicode="&#x62a;" horiz-adv-x="2227" d="M126 349q0 68 9.5 123.5t29.5 106.5q23 52 50.5 98.5t64.5 83.5q43 32 87.5 59.5t96.5 50.5q52 21 103.5 31t112.5 10v-308l-92 -18q-24 -9 -46.5 -22.5t-36.5 -32.5q-14 -14 -27 -35.5t-21 -45.5l-21 -108q0 -63 21 -108q8 -24 21 -46.5t27 -36.5q21 -19 40 -33t43 -22 l92 -21h1115v824h304v-1134h-1419q-61 0 -112.5 13.5t-103.5 36.5t-96.5 52t-87.5 66q-37 43 -64.5 88.5t-50.5 97.5q-25 57 -34 113t-5 117zM852 763q4 35 19 66t39 53.5t55 35.5t67 13q37 0 69 -13.5t56 -37.5t38.5 -57t16.5 -72q1 -39 -13 -73.5t-39.5 -60t-59.5 -40.5 t-72 -14q-38 0 -72 15.5t-58 42.5t-37 63.5t-9 78.5zM1275 761q4 35 19 66t39 53.5t55 35.5t67 13q37 0 69 -13.5t56 -37.5t38.5 -57t16.5 -72q1 -39 -13 -73.5t-39.5 -60t-59.5 -40.5t-72 -14q-38 0 -72 15.5t-58 42.5t-37 63.5t-9 78.5z" />
<glyph unicode="&#x62b;" horiz-adv-x="2231" d="M130 347q0 68 9.5 124t29.5 106q23 52 50.5 99t64.5 83q43 33 87.5 60t96.5 50q52 21 103.5 31.5t112.5 10.5v-308l-92 -19q-24 -8 -46.5 -22t-36.5 -33q-14 -14 -27 -35t-21 -46l-21 -108q0 -63 21 -108q8 -24 21 -46.5t27 -36.5q21 -19 40 -32.5t43 -22.5l92 -20h1115 v823h304v-1134h-1419q-61 0 -112.5 14t-103.5 37t-96.5 52t-87.5 65q-37 43 -64.5 88.5t-50.5 97.5q-25 57 -34 113.5t-5 116.5zM858 742q4 35 19 66t39 53.5t55 35.5t67 13q37 0 69 -13.5t56 -37.5t38.5 -57t16.5 -72q1 -39 -13 -73.5t-39.5 -60t-59.5 -40.5t-72 -14 q-38 0 -72 15.5t-58 42.5t-37 63.5t-9 78.5zM1073 1114q4 35 19 66t39 53.5t55 35.5t67 13q37 0 69 -13.5t56 -37.5t38.5 -57t16.5 -72q1 -39 -13 -73.5t-39.5 -60t-59.5 -40.5t-72 -14q-38 0 -72 15.5t-58 42.5t-37 63.5t-9 78.5zM1281 740q4 35 19 66t39 53.5t55 35.5 t67 13q37 0 69 -13.5t56 -37.5t38.5 -57t16.5 -72q1 -39 -13 -73.5t-39.5 -60t-59.5 -40.5t-72 -14q-38 0 -72 15.5t-58 42.5t-37 63.5t-9 78.5z" />
<glyph unicode="&#x62c;" horiz-adv-x="1900" d="M99 -492q0 61 10 117t38 120q26 45 54.5 87t65.5 79q68 81 184 124q48 19 105 29t129 10h789q-5 68 -19 130t-38 125q-25 57 -61.5 109t-83.5 100q-38 38 -80 66.5t-86 42.5q-43 24 -91 33.5t-100 9.5l-165 -32q-38 -14 -72 -29.5t-69 -39.5l-37 -32l-184 255l37 25 q54 44 110.5 72.5t119.5 47.5t126 29t134 10q81 0 157.5 -16t153.5 -48q72 -28 138.5 -71t130.5 -102q66 -71 118.5 -150.5t90.5 -166.5q38 -91 64.5 -182t29.5 -186l7 -166l-7 -145h-1113h-4l-104 -18l-80 -62l-53 -88q-11 -26 -17 -52t-6 -63q0 -26 6 -50.5t17 -50.5 q8 -26 23.5 -49.5t29.5 -37.5l13 -14h-370q-24 52 -32.5 108t-8.5 122zM676 -523q4 35 19 65t38.5 52.5t54 35.5t66.5 13t68 -13.5t56 -37t38 -56t16 -71.5q1 -39 -13 -73t-39 -59.5t-58.5 -40t-71.5 -13.5q-38 0 -71.5 15.5t-57.5 42t-36.5 62.5t-8.5 78z" />
<glyph unicode="&#x62d;" horiz-adv-x="1784" d="M55 -491q0 61 10 117t38 120q26 45 54.5 87.5t65.5 78.5q70 83 184 124q48 19 105 29t129 10h789q-5 68 -19 130.5t-38 125.5q-25 57 -61.5 108.5t-83.5 100.5q-38 38 -80 66t-86 42q-43 24 -91 34t-100 10l-165 -33q-38 -14 -72 -29t-69 -40l-37 -32l-184 256l37 25 q54 43 110.5 71.5t119.5 47.5q63 20 126 30t134 10q160 0 311 -65q72 -28 138.5 -70.5t130.5 -101.5q132 -144 209 -318q38 -90 64.5 -181t29.5 -187l7 -165l-7 -145h-1113h-4l-104 -19l-80 -62l-53 -87q-11 -26 -17 -52.5t-6 -62.5q0 -26 6 -50.5t17 -50.5q8 -26 23.5 -50 t29.5 -38l13 -14h-370q-24 52 -32.5 108t-8.5 122z" />
<glyph unicode="&#x62e;" horiz-adv-x="1915" d="M104 -491q0 61 10 117t38 120q26 45 54.5 87t65.5 79q68 81 184 124q48 19 105 29t129 10h789q-5 68 -19 130t-38 125q-25 57 -61.5 109t-83.5 100q-38 38 -80 66.5t-86 42.5q-43 24 -91 33.5t-100 9.5l-165 -32q-38 -14 -72 -29.5t-69 -39.5l-37 -32l-184 255l37 25 q54 44 110.5 72.5t119.5 47.5t126 29t134 10q81 0 157.5 -16t153.5 -48q72 -28 138.5 -71t130.5 -102q66 -71 118.5 -150.5t90.5 -166.5q38 -91 64.5 -182t29.5 -186l7 -166l-7 -145h-1113h-4l-104 -18l-80 -62l-53 -88q-11 -26 -17 -52t-6 -63q0 -26 6 -50.5t17 -50.5 q8 -26 23.5 -49.5t29.5 -37.5l13 -14h-370q-24 52 -32.5 108t-8.5 122zM739 1251q4 35 19 66t39 53.5t55 35.5t67 13q37 0 69 -13.5t56 -37.5t38.5 -57t16.5 -72q1 -39 -13 -73.5t-39.5 -60t-59.5 -40.5t-72 -14q-38 0 -72 15.5t-58 42.5t-37 63.5t-9 78.5z" />
<glyph unicode="&#x62f;" horiz-adv-x="1447" d="M67 75h1001q-5 63 -19.5 121.5t-38.5 112.5q-24 52 -57 103.5t-76 94.5q-33 33 -70.5 59.5t-81.5 41.5l-184 37l-145 -25q-38 -14 -71.5 -29.5t-68.5 -39.5l-37 -32v361l159 50l156 19l159 -19l152 -39q35 -14 67.5 -29.5t65.5 -39.5l129 -94q60 -71 106.5 -147 t81.5 -157q38 -81 60.5 -170t27.5 -179l7 -166l-7 -145h-1316v311z" />
<glyph unicode="&#x630;" horiz-adv-x="1597" d="M137 75h1001q-5 63 -19.5 121.5t-38.5 112.5q-24 52 -57 103.5t-76 94.5q-33 33 -70.5 59.5t-81.5 41.5l-184 37l-145 -25q-38 -14 -71.5 -29.5t-68.5 -39.5l-37 -32v361l159 50l156 19l159 -19l152 -39q35 -14 67.5 -29t65.5 -40l129 -94q60 -71 106.5 -146.5 t81.5 -157.5q38 -81 60.5 -170t27.5 -179l7 -166l-7 -145h-1316v311zM482 1250q4 35 19 66t39 53.5t55 35.5t67 13q37 0 69 -13.5t56 -37.5t38.5 -57t16.5 -72q1 -39 -13 -73.5t-39.5 -60t-59.5 -40.5t-72 -14q-38 0 -72 15.5t-58 42.5t-37 63.5t-9 78.5z" />
<glyph unicode="&#x631;" horiz-adv-x="655" d="M-169 -603l99 117l83 101l57 90l48 87l39 101l26 111q29 121 34 238.5t-9 235.5q-14 112 -50 220.5t-88 211.5h352q48 -113 76 -230.5t37 -247.5q14 -121 4 -247.5t-41 -254.5l-58 -184l-76 -182l-117 -181l-159 -182z" />
<glyph unicode="&#x632;" horiz-adv-x="676" d="M-158 -607l101 119l83 102l58 89l50 90l39 101l26 113q29 121 34 240t-9 238q-14 115 -50 224t-90 213h356q49 -114 77 -233t38 -250q14 -123 4 -250t-43 -258l-57 -184l-76 -184l-120 -184l-159 -184zM3 1342q4 35 19 66t39 53.5t55 35.5t67 13q37 0 69 -13.5t56 -37.5 t38.5 -57t16.5 -72q1 -39 -13 -73.5t-39.5 -60t-59.5 -40.5t-72 -14q-38 0 -72 15.5t-58 42.5t-37 63.5t-9 78.5z" />
<glyph unicode="&#x633;" horiz-adv-x="2845" d="M53 -109q0 54 5.5 101.5t19.5 95.5q14 47 33 90.5t43 86.5q24 44 56 78.5t70 69.5q35 32 75 60.5t84 51.5l39 26l152 -286l-37 -25l-90 -57l-69 -83l-46 -101l-11 -108q0 -86 32 -152q14 -38 36 -71t45 -56q29 -29 61 -52t67 -37q33 -16 71 -21t81 -5q44 0 85 5t74 21 q33 14 66 37t60 52q25 23 47 56t36 71q16 32 21.5 70t10.5 82v1023h311v-713q7 -54 35.5 -87t67 -48t81.5 -11.5t79.5 24.5t60.5 58t25 89v688h313v-688l12 -62l39 -57l50 -39l69 -12l65 12q14 5 28.5 15t28.5 24l40 57l11 62v688h317v-685v-21q0 -44 -9 -86.5t-23 -86.5 q-7 -21 -19 -43t-27 -42.5t-31 -39t-31 -33.5q-33 -33 -74 -60t-85 -46q-42 -24 -89.5 -35t-101.5 -11q-47 0 -90 10t-87 29q-43 19 -81 43t-70 51l-148 -94q-43 -19 -86.5 -29t-97.5 -10q-48 0 -94 10t-90 29q-10 -63 -30 -123t-52 -112q-33 -54 -72 -100t-87 -86 q-49 -38 -100.5 -70t-108.5 -56q-57 -25 -119 -34.5t-130 -9.5l-191 32q-48 14 -90 29.5t-80 39.5q-43 24 -78.5 52t-68.5 63q-33 33 -58.5 67t-49.5 73q-24 44 -43 85.5t-33 85.5q-14 48 -19.5 95t-5.5 96z" />
<glyph unicode="&#x634;" horiz-adv-x="3013" d="M133 -110q0 54 5.5 102t19.5 96q14 47 33 90.5t43 86.5q24 44 56 78t70 69q70 67 159 113l39 25l152 -285l-37 -25l-90 -58l-69 -82l-46 -102l-11 -108q0 -85 32 -151q14 -38 36 -71t45 -56q29 -29 61 -52.5t67 -37.5q33 -15 71 -20t81 -5q44 0 85 5t74 20q33 14 66 37.5 t60 52.5q25 23 47 56t36 71q16 32 21.5 70t10.5 81v1024h311v-713q7 -54 35.5 -87t67 -48t81.5 -11.5t79.5 24.5t60.5 58t25 89v688h313v-688l12 -62l39 -57l50 -40l69 -11l65 11q14 5 28.5 15.5t28.5 24.5l40 57l11 62v688h317v-686v-20q0 -44 -9 -86.5t-23 -86.5 q-7 -21 -19 -43t-27 -42.5t-31 -39t-31 -33.5q-33 -33 -74 -60t-85 -46q-42 -24 -89.5 -35t-101.5 -11q-47 0 -90 10t-87 29q-85 37 -151 94l-148 -94q-43 -19 -86.5 -29t-97.5 -10q-48 0 -94 10t-90 29q-10 -63 -30 -123t-52 -112q-33 -54 -72 -100t-87 -86 q-49 -38 -100.5 -70t-108.5 -57q-57 -24 -119 -33.5t-130 -9.5l-191 32q-48 14 -90 29.5t-80 39.5q-43 24 -78.5 52t-68.5 63q-33 33 -58.5 66.5t-49.5 73.5q-24 44 -43 85.5t-33 84.5q-14 49 -19.5 96t-5.5 95zM1670 1245q4 35 19 66t39 53.5t55 35.5t67 13q37 0 69 -13.5 t56 -37.5t38.5 -57t16.5 -72q1 -39 -13 -73.5t-39.5 -60t-59.5 -40.5t-72 -14q-38 0 -72 15.5t-58 42.5t-37 63.5t-9 78.5zM1884 1607q4 35 19 66t39 53.5t55 35.5t67 13q37 0 69 -13.5t56 -37.5t38.5 -57t16.5 -72q1 -39 -13 -73.5t-39.5 -60t-59.5 -40.5t-72 -14 q-38 0 -72 15.5t-58 42.5t-37 63.5t-9 78.5zM2093 1243q4 35 19 66t39 53.5t55 35.5t67 13q37 0 69 -13.5t56 -37.5t38.5 -57t16.5 -72q1 -39 -13 -73.5t-39.5 -60t-59.5 -40.5t-72 -14q-38 0 -72 15.5t-58 42.5t-37 63.5t-9 78.5z" />
<glyph unicode="&#x635;" horiz-adv-x="2908" d="M51 -114q0 54 6 102t20 96q27 92 76 177q24 44 56 78t70 69q70 67 159 113l39 25l152 -285l-37 -25l-90 -58l-69 -83l-46 -101l-11 -108q0 -85 32 -152q14 -38 36 -70.5t44 -55.5q30 -29 62 -52.5t67 -37.5q33 -16 71 -20.5t81 -4.5q44 0 85 4.5t74 20.5q32 14 65 37.5 t61 52.5q24 23 46.5 55.5t36.5 70.5q16 33 21.5 71t10.5 81v1024h311v-151q28 29 86.5 67t100 56t91.5 35.5t107.5 28.5t156 8.5t125.5 -14.5q88 -16 160.5 -40.5t140.5 -64.5t124.5 -91t103 -107t79 -123t58 -138t41.5 -148t20 -153v-311h-1403q-11 -63 -32 -125t-54 -114 q-32 -54 -71 -100t-87 -86q-49 -38 -101 -70.5t-109 -56.5t-118.5 -33.5t-129.5 -9.5l-191 32q-48 14 -90 29.5t-80 39.5q-44 24 -79.5 52t-67.5 63q-33 32 -58.5 66t-49.5 74q-25 44 -43.5 85.5t-32.5 84.5q-14 49 -20 96t-6 95zM1528 75h1017q0 47 -9.5 94t-24 92t-35 83 t-62.5 97t-72.5 85.5t-52.5 38t-46 21.5t-49 17.5t-65 17.5t-96 10.5t-174 -35.5q-48 -20 -70.5 -31.5t-51 -34.5t-48.5 -47t-46.5 -60.5t-44 -76.5t-32.5 -85t-24.5 -92t-13.5 -94z" />
<glyph unicode="&#x636;" horiz-adv-x="2883" d="M29 -115q0 54 6 102t20 96q27 92 76 177q24 44 56 78t70 69q70 67 159 113l39 25l152 -285l-37 -25l-90 -58l-69 -83l-46 -101l-11 -108q0 -85 32 -152q14 -38 36 -70.5t44 -55.5q30 -29 62 -52.5t67 -37.5q33 -16 71 -20.5t81 -4.5q44 0 85 4.5t74 20.5q32 14 65 37.5 t61 52.5q24 23 46.5 55.5t36.5 70.5q16 33 21.5 71t10.5 81v1024h311v-150q28 28 86.5 66t100 56t91.5 35.5t107.5 28.5t156 8.5t125.5 -14.5q88 -16 160.5 -40.5t140.5 -64.5t124.5 -91t103 -107t79 -123t58 -138t41.5 -148t20 -153v-311h-1403q-11 -63 -32 -125t-54 -114 q-32 -54 -71 -100t-87 -86q-49 -38 -101 -70.5t-109 -56.5t-118.5 -33.5t-129.5 -9.5l-191 32q-48 14 -90 29.5t-80 39.5q-44 24 -79.5 52t-67.5 63q-33 32 -58.5 66t-49.5 74q-25 44 -43.5 85.5t-32.5 84.5q-14 49 -20 96t-6 95zM1506 74h1017q0 47 -9.5 94t-24 92t-35 83 t-62.5 97t-72.5 85.5t-52.5 38t-46 21.5t-49 17.5t-65 17.5t-96 10.5t-174 -35.5q-48 -20 -70.5 -31.5t-51 -34.5t-48.5 -47t-46.5 -60.5t-44 -76.5t-32.5 -85t-24.5 -92t-13.5 -94zM1864 1246q4 35 19 66t39 53.5t55 35.5t67 13q37 0 69 -13.5t56 -37.5t38.5 -57t16.5 -72 q1 -39 -13 -73.5t-39.5 -60t-59.5 -40.5t-72 -14q-38 0 -72 15.5t-58 42.5t-37 63.5t-9 78.5z" />
<glyph unicode="&#x637;" horiz-adv-x="2244" d="M146 75h159l60 30l32 55v1217h315v-618q29 29 87.5 67t100 56t91.5 35.5t107.5 28.5t156 8.5t125.5 -14.5q88 -16 160.5 -40.5t140.5 -64.5t124.5 -91t103 -107t79 -123t58 -138t41.5 -148t20 -153l-1 -311h-1960v311zM744 75h1017q0 47 -9.5 94t-24 92t-35 83t-62.5 97 t-72.5 85.5t-52.5 38t-46 21.5t-49 17.5t-65 17.5t-96 10.5t-174 -35.5q-48 -20 -70.5 -31.5t-51 -34.5t-48.5 -47t-46.5 -60.5t-44 -76.5t-32.5 -85t-24.5 -92t-13.5 -94z" />
<glyph unicode="&#x638;" horiz-adv-x="2135" d="M127 75h159l60 30l32 55v1217h315l1 -617q27 28 85.5 66t100 56t91.5 35.5t107.5 28.5t156 8.5t125.5 -14.5q88 -16 160.5 -40.5t140.5 -64.5t124.5 -91t103 -107t79 -123t58 -138t41.5 -148t20 -153v-310h-1960v310zM725 75h1017q0 47 -9.5 94t-24 92t-35 83t-62.5 97 t-72.5 85.5t-52.5 38t-46 21.5t-49 17.5t-65 17.5t-96 10.5t-174 -35.5q-48 -20 -70.5 -31.5t-51 -34.5t-48.5 -47t-46.5 -60.5t-44 -76.5t-32.5 -85t-24.5 -92t-13.5 -94zM1016 1250q4 35 19 66t39 53.5t55 35.5t67 13q37 0 69 -13.5t56 -37.5t38.5 -57t16.5 -72 q1 -39 -13 -73.5t-39.5 -60t-59.5 -40.5t-72 -14q-38 0 -72 15.5t-58 42.5t-37 63.5t-9 78.5z" />
<glyph unicode="&#x639;" horiz-adv-x="1677" d="M33 -491q0 61 10.5 117t38.5 120q26 45 54.5 87.5t64.5 78.5q70 83 184 124q49 19 105 29t125 10l-50 145q-7 35 -11.5 71t-4.5 74q0 59 11.5 115.5t34.5 116.5q24 52 56.5 97.5t71.5 89.5q44 38 91.5 69t106.5 57q57 19 115 30.5t115 11.5q64 0 125 -11.5t117 -30.5 q60 -26 109 -58t91 -75l25 -35l-195 -260l-39 51q-16 26 -41.5 47.5t-57.5 35.5q-33 12 -69.5 18.5t-71.5 6.5l-99 -25l-85 -55l-53 -92l-18 -104v-44l12 -48l20 -46l32 -53l111 -69l149 -30h447v-310h-1045l-103 -19l-81 -62l-53 -87q-10 -26 -16.5 -52.5t-6.5 -62.5 q0 -26 6.5 -50.5t16.5 -50.5q9 -26 24 -50t29 -38l14 -14h-370q-24 52 -33 108t-9 122z" />
<glyph unicode="&#x63a;" horiz-adv-x="1837" d="M98 -494q0 61 10.5 117.5t38.5 120.5q26 45 54.5 87.5t64.5 78.5q70 84 185 125q49 19 105 29t125 10l-50 145q-7 35 -11.5 71.5t-4.5 74.5q0 59 11.5 115.5t34.5 116.5q24 53 57 98.5t72 89.5q44 38 91.5 69t106.5 57q57 19 115.5 31t115.5 12q64 0 125 -12t118 -31 q60 -26 109 -58t91 -75l25 -35l-195 -261l-39 51q-16 26 -42 47.5t-58 36.5q-33 12 -69.5 18.5t-71.5 6.5l-99 -25l-86 -56l-53 -92l-18 -104v-44l12 -49l20 -46l32 -53l112 -69l149 -30h448v-311h-1048l-103 -19l-81 -62l-53 -88q-10 -26 -16.5 -52.5t-6.5 -62.5 q0 -26 6.5 -50.5t16.5 -50.5q9 -26 24 -50t29 -38l14 -15h-371q-24 53 -33 109t-9 122zM1023 1253q4 35 19 66t39 53.5t55 35.5t67 13q37 0 69 -13.5t56 -37.5t38.5 -57t16.5 -72q1 -39 -13 -73.5t-39.5 -60t-59.5 -40.5t-72 -14q-38 0 -72 15.5t-58 42.5t-37 63.5t-9 78.5z " />
<glyph unicode="&#x640;" horiz-adv-x="791" d="M-67 24q0 24 8.5 35t28.5 16h883q-33 0 -47.5 -13.5t-14.5 -37.5v-209q0 -24 14.5 -35.5t47.5 -15.5h-858q-33 0 -47.5 13.5t-14.5 37.5v209z" />
<glyph unicode="&#x641;" horiz-adv-x="2597" d="M127 349q0 68 10 123.5t29 106.5q23 52 51 98.5t64 83.5q44 32 88 59.5t96 50.5q52 21 104 31t112 10v-308l-92 -18q-24 -9 -46.5 -22.5t-36.5 -32.5q-14 -14 -26.5 -35.5t-21.5 -45.5l-21 -108q0 -63 21 -108q9 -24 21.5 -46.5t26.5 -36.5q21 -19 40 -33t43 -22l92 -21 h695l-46 129q-5 33 -9.5 70t-4.5 75q0 63 10.5 116t30.5 107q25 52 53.5 99.5t66.5 91.5q44 36 88 67t96 55q54 23 110.5 32t119.5 9t119.5 -9t108.5 -32q54 -24 98 -53t83 -69q37 -44 70 -91.5t57 -99.5q24 -54 34 -110.5t10 -119.5q0 -57 -10 -113t-34 -108 q-24 -54 -57 -100t-70 -86q-39 -40 -83 -69t-98 -53q-104 -48 -228 -48h-1210q-60 0 -112 13.5t-104 36.5t-96 52t-88 66q-71 84 -115 186q-24 57 -33.5 113t-5.5 117zM1638 341q-2 -55 18.5 -103t56.5 -83t83.5 -55t101.5 -19q52 1 98.5 22t80.5 56t53.5 82t18.5 99 t-21 97.5t-54.5 79t-80.5 53t-98 19.5t-98.5 -19t-81 -52.5t-55.5 -79t-22 -97.5zM1697 1250q4 35 19 66t39 53.5t55 35.5t67 13q37 0 69 -13.5t56 -37.5t38.5 -57t16.5 -72q1 -39 -13 -73.5t-39.5 -60t-59.5 -40.5t-72 -14q-38 0 -72 15.5t-58 42.5t-37 63.5t-9 78.5z" />
<glyph unicode="&#x642;" horiz-adv-x="2597" d="M127 349q0 68 10 123.5t29 106.5q23 52 51 98.5t64 83.5q44 32 88 59.5t96 50.5q52 21 104 31t112 10v-308l-92 -18q-24 -9 -46.5 -22.5t-36.5 -32.5q-14 -14 -26.5 -35.5t-21.5 -45.5l-21 -108q0 -63 21 -108q9 -24 21.5 -46.5t26.5 -36.5q21 -19 40 -33t43 -22l92 -21 h695l-46 129q-5 33 -9.5 70t-4.5 75q0 63 10.5 116t30.5 107q25 52 53.5 99.5t66.5 91.5q44 36 88 67t96 55q54 23 110.5 32t119.5 9t119.5 -9t108.5 -32q54 -24 98 -53t83 -69q37 -44 70 -91.5t57 -99.5q24 -54 34 -110.5t10 -119.5q0 -57 -10 -113t-34 -108 q-24 -54 -57 -100t-70 -86q-39 -40 -83 -69t-98 -53q-104 -48 -228 -48h-1210q-60 0 -112 13.5t-104 36.5t-96 52t-88 66q-71 84 -115 186q-24 57 -33.5 113t-5.5 117zM1488 1254q4 35 19 66t39 53.5t55 35.5t67 13q37 0 69 -13.5t56 -37.5t38.5 -57t16.5 -72 q1 -39 -13 -73.5t-39.5 -60t-59.5 -40.5t-72 -14q-38 0 -72 15.5t-58 42.5t-37 63.5t-9 78.5zM1638 341q-2 -55 18.5 -103t56.5 -83t83.5 -55t101.5 -19q52 1 98.5 22t80.5 56t53.5 82t18.5 99t-21 97.5t-54.5 79t-80.5 53t-98 19.5t-98.5 -19t-81 -52.5t-55.5 -79 t-22 -97.5zM1911 1252q4 35 19 66t39 53.5t55 35.5t67 13q37 0 69 -13.5t56 -37.5t38.5 -57t16.5 -72q1 -39 -13 -73.5t-39.5 -60t-59.5 -40.5t-72 -14q-38 0 -72 15.5t-58 42.5t-37 63.5t-9 78.5z" />
<glyph unicode="&#x643;" horiz-adv-x="2101" d="M44 349q0 68 9.5 123.5t29.5 106.5q23 52 50.5 98.5t64.5 83.5q43 32 87.5 59.5t96.5 50.5q52 21 103.5 31.5t112.5 10.5v-309l-92 -18q-24 -9 -46.5 -22.5t-36.5 -32.5q-14 -14 -27 -35.5t-21 -45.5l-21 -108q0 -63 21 -108q8 -24 21 -46.5t27 -36.5q21 -19 40 -32.5 t43 -22.5l92 -21h1104v1279h315v-1589h-1419q-61 0 -112.5 14t-103.5 36q-52 23 -96.5 52t-87.5 66q-37 43 -64.5 88.5t-50.5 97.5q-25 57 -34 113.5t-5 116.5zM740 676v195h207l-34 85q-5 14 -10.5 34.5t-5.5 48.5l23 115q14 29 31 52.5t38 44.5l41 43q29 28 65.5 43 t77 18.5t82.5 -3.5t81.5 -21t74.5 -34.5t61 -45.5l21 -21l-118 -163l-27 34q-26 29 -57 45.5t-68 16.5l-57 -16l-39 -32l-30 -41l-5 -58l5 -48l30 -42l64 -39l85 -16h217v-195h-753z" />
<glyph unicode="&#x644;" horiz-adv-x="1550" d="M26 -147q-3 57 5 107.5t25 97.5q9 47 28.5 93.5t45.5 83.5q31 45 61.5 82.5t66.5 73.5q37 35 74.5 62t89.5 53l41 21l150 -285l-42 -21l-87 -60l-69 -96q-21 -21 -31 -46t-15 -51q-7 -26 -11.5 -52.5t-4.5 -62.5q0 -40 6 -76.5t21 -73.5q23 -38 43.5 -71t46.5 -57 q26 -25 60 -45.5t69 -37.5q40 -14 78 -23t78 -9q42 0 82 9t84 23q69 35 119 83q26 24 50 57t38 71q17 37 23 73.5t11 76.5v1504h315v-1504q0 -45 -6 -91t-23 -91q-9 -52 -25 -94.5t-42 -84.5q-26 -35 -56 -73.5t-59 -76.5q-36 -29 -71 -55.5t-72 -52.5q-47 -28 -89.5 -46 t-87.5 -30l-198 -27q-47 0 -96 6.5t-92 20.5q-47 12 -90 30t-90 46q-42 26 -76.5 52.5t-65.5 55.5q-37 38 -66.5 76.5t-53.5 73.5q-23 42 -39 84.5t-30 94.5q-17 45 -21.5 91t-1.5 91z" />
<glyph unicode="&#x645;" horiz-adv-x="1831" d="M182.5 -39.5q5.5 120.5 38.5 235.5t91 222.5t141 199t190 164t236 118.5q52 12 109 18.5t120 6.5q98 0 180 -25.5t148.5 -72t118 -112t89.5 -144.5q24 -54 33.5 -110.5t9.5 -119.5q0 -70 -15 -138t-51 -129q-1 -8 -34 -54.5t-70 -86.5q-40 -39 -83.5 -68t-97.5 -53 q-102 -49 -228 -49q-132 5 -235.5 51.5t-178.5 121.5q-15 12 -20.5 23t-29.5 34q-4 12 -9 21t-15 24.5t-27 43t-45 77.5q-29 -82 -36 -163t2 -157.5t30.5 -146.5t48 -131t55.5 -111t52.5 -86t39.5 -56.5t16 -22.5h-353q-81 98 -131.5 209t-72.5 228.5t-16.5 238zM851 343 q-2 -55 17.5 -103t54 -84.5t81 -57.5t99.5 -22q56 -2 104.5 20t84.5 60t55.5 88t17.5 105q-2 52 -22 97.5t-54 79.5t-79 54t-97 21q-53 1 -100 -19t-82.5 -55.5t-57 -83t-22.5 -100.5z" />
<glyph unicode="&#x646;" horiz-adv-x="1824" d="M123 201q0 52 5.5 104.5t19.5 104.5q14 54 37.5 104t52.5 94q29 43 62 85t71 80t81.5 70.5t95.5 56.5l46 21l120 -263l-19 -11q-32 -16 -57.5 -34.5t-50.5 -41.5l-82 -104l-51 -112l-18 -134q0 -54 7.5 -101.5t21.5 -89.5q39 -86 97 -154q33 -32 70.5 -58t81.5 -50 q43 -14 91 -23t100 -9t99.5 9t91.5 23q43 20 84.5 44.5t73.5 59.5q25 28 48 60.5t42 72.5q19 38 29 79t15 84v753h310v-720q0 -57 -4.5 -110t-20.5 -107q-14 -52 -36.5 -96t-46.5 -88q-23 -43 -55 -84.5t-64 -73.5q-38 -38 -80.5 -70.5t-85.5 -56.5q-44 -24 -88 -43t-96 -33 l-209 -32l-210 32q-54 14 -100.5 33t-90.5 43q-43 24 -84.5 56.5t-73.5 70.5q-35 32 -66.5 73.5t-55.5 84.5q-29 44 -49 88t-34 96q-14 54 -19.5 107t-5.5 110zM873 750q4 35 19 66t39 53.5t55 35.5t67 13q37 0 69 -13.5t56 -37.5t38.5 -57t16.5 -72q1 -39 -13 -73.5 t-39.5 -60t-59.5 -40.5t-72 -14q-38 0 -72 15.5t-58 42.5t-37 63.5t-9 78.5z" />
<glyph unicode="&#x647;" horiz-adv-x="1264" d="M43 360q0 79 21.5 153.5t60 139t92.5 118.5t119.5 92t140 58.5t155.5 20.5q124 -1 231 -47t186 -125.5t124 -185.5t45 -226q1 -121 -44 -229t-124 -189t-186 -128.5t-230 -47.5q-122 0 -229.5 47.5t-188 129t-127.5 189.5t-46 230zM353 346q0 -58 23.5 -108.5t63.5 -87.5 t92 -57.5t109 -17.5q63 2 115 28.5t89 69t55.5 96.5t14.5 112q-7 52 -30.5 99t-59.5 82t-83 55.5t-101 20.5q-60 1 -112.5 -22t-91.5 -62.5t-61.5 -93.5t-22.5 -114z" />
<glyph unicode="&#x648;" horiz-adv-x="1293" d="M34 346l23 161q11 37 25 70.5t37 65.5l90 115l115 92l142 60l161 23h19l202 -30q54 -14 99.5 -39.5t87.5 -61.5q34 -33 63.5 -67.5t53.5 -84.5q56 -94 73 -216l12 -152l-12 -207q-15 -64 -25.5 -103t-19.5 -69.5t-20 -61t-27 -76.5l-142 -276q-47 -73 -103.5 -147 t-131.5 -157l-264 207l179 200q36 47 70.5 96t58.5 100l-154 -23h-32q-56 5 -112.5 16.5t-108.5 26.5q-52 20 -99 46t-78 62q-49 40 -81 88t-53 103q-27 56 -37.5 114.5t-10.5 124.5zM365 346q0 -27 5 -54t16 -51q8 -29 25 -52.5t46 -37.5q12 -16 28.5 -28t47.5 -16l99 -20 l81 -7h55l131 20l16 141l-16 105q-5 35 -11 63t-21 59l-58 81q-12 16 -31.5 29t-51.5 22l-99 27l-112 -27q-26 -9 -45 -22t-38 -29l-46 -88z" />
<glyph unicode="&#x649;" horiz-adv-x="2571" d="M148 349q0 68 9.5 123.5t29.5 106.5q23 52 50.5 98.5t64.5 83.5q43 32 87.5 59.5t96.5 50.5q52 21 103.5 31.5t112.5 10.5v-309l-92 -18q-24 -9 -46.5 -22.5t-36.5 -32.5q-14 -14 -27 -35.5t-21 -45.5l-21 -108q0 -63 21 -108q8 -24 21 -46.5t27 -36.5q21 -19 40 -32.5 t43 -22.5l92 -21h941v549q22 156 100.5 216t225.5 59h467v-1134h-315v834q-88 10 -126 -25.5t-37 -107.5v-701h-1256q-61 0 -112.5 14t-103.5 36q-52 23 -96.5 52t-87.5 66q-37 43 -64.5 88.5t-50.5 97.5q-25 57 -34 113.5t-5 116.5z" />
<glyph unicode="&#x64a;" horiz-adv-x="2599" d="M155 349q0 68 9.5 123.5t29.5 106.5q23 52 50.5 98.5t64.5 83.5q43 32 87.5 59.5t96.5 50.5q52 21 103.5 31.5t112.5 10.5v-309l-92 -18q-24 -9 -46.5 -22.5t-36.5 -32.5q-14 -14 -27 -35.5t-21 -45.5l-21 -108q0 -63 21 -108q8 -24 21 -46.5t27 -36.5q21 -19 40 -32.5 t43 -22.5l92 -21h941v549q22 156 100.5 216t225.5 59h467v-1134h-315v834q-88 10 -126 -25.5t-37 -107.5v-701h-1256q-61 0 -112.5 14t-103.5 36q-52 23 -96.5 52t-87.5 66q-37 43 -64.5 88.5t-50.5 97.5q-25 57 -34 113.5t-5 116.5zM858 -568q4 35 19 66t39 53.5t55 35.5 t67 13q37 0 69 -13.5t56 -37.5t38.5 -57t16.5 -72q1 -39 -13 -73.5t-39.5 -60t-59.5 -40.5t-72 -14q-38 0 -72 15.5t-58 42.5t-37 63.5t-9 78.5zM1283.5 -580q1.5 47 22 86.5t59.5 65.5t96 26q37 0 69 -13.5t56 -37.5t38.5 -57t16.5 -72q1 -39 -13 -73.5t-39.5 -60 t-59.5 -40.5t-72 -14q-60 4 -99 33t-57.5 69.5t-17 87.5z" />
<glyph unicode="&#x64b;" horiz-adv-x="0" d="M-28 1524v122h572v-122h-572zM-28 1767v128h572v-128h-572z" />
<glyph unicode="&#x64c;" horiz-adv-x="0" d="M-65 1510l63 126q25 48 50.5 73t58.5 25q27 0 49.5 -22t40 -48.5t29.5 -48.5t18 -22h3q8 2 10.5 2.5t4.5 0.5l48 35q-26 32 -38 62t-12 60q0 36 14 68.5t38 57.5t55.5 40t67.5 15q35 0 66 -15t54 -39.5t36.5 -55t13.5 -60.5q0 -85 -95 -153l64 -55l-104 -80l-66 67 q-15 -8 -41.5 -28.5t-73.5 -52.5l-40 -16q-2 -4 -8.5 -4.5t-14.5 -0.5q-26 0 -49 20t-41 44t-29.5 44t-14.5 20q0 -2 -0.5 -4.5t-2.5 -6.5l-10 -28l-43 -78zM391 1764q0 -12 6 -26t20 -25l8 -13q28 17 42 34.5t14 31.5q0 20 -10.5 30t-35.5 10q-44 0 -44 -42z" />
<glyph unicode="&#x64d;" horiz-adv-x="0" d="M-28 -496h574v-128h-574v128zM-28 -746h574v-122h-574v122z" />
<glyph unicode="&#x64e;" horiz-adv-x="0" d="M-49 1558v129h579v-129h-579z" />
<glyph unicode="&#x64f;" horiz-adv-x="0" d="M-23 1531q83 44 145 87t106 81q-45 60 -45 119q0 36 13.5 68t36.5 56t55 38t68 14q34 0 65.5 -13.5t55.5 -36.5t38 -53.5t14 -64.5q0 -35 -24 -72t-75 -74l58 -58l-95 -78l-67 68q-12 -9 -35 -26.5t-58 -41.5q-54 -38 -100 -65.5t-84 -46.5zM313 1826q0 -10 5 -21.5 t19 -25.5l6 -14q27 17 41.5 33t14.5 28q0 48 -46 48q-40 0 -40 -48z" />
<glyph unicode="&#x650;" d="M-58 -534h574v-128h-574v128z" />
<glyph unicode="&#x651;" horiz-adv-x="0" d="M-27 1660v199h130v-183q0 -13 2.5 -20t6.5 -10t8.5 -3.5t9.5 -0.5t12.5 3.5t14.5 11.5t12 21t5 33v148h126v-148q0 -20 5 -33t13 -21t17.5 -11.5t18.5 -3.5q6 0 10 4q4 3 7 10t3 20v183h130v-199q0 -22 -6 -46.5t-21.5 -45.5t-43.5 -35t-72 -14q-15 0 -32 4.5t-33.5 13.5 t-30.5 22.5t-23 31.5q-9 -18 -24.5 -31.5t-33 -22.5t-35.5 -13.5t-33 -4.5q-33 0 -59 13t-45 33.5t-29 45.5t-10 49z" />
<glyph unicode="&#x652;" horiz-adv-x="0" d="M27 1646q1 36 15.5 68.5t38.5 57t56 38.5t68 14t68 -14t56 -38.5t38 -57t14 -68.5t-14 -68t-38 -56t-56 -37.5t-68 -13.5q-38 0 -70.5 14t-56.5 38t-37.5 56t-13.5 67zM155 1651q0 -51 45 -51q51 0 51 46q0 49 -51 49q-45 0 -45 -44z" />
<glyph unicode="&#x660;" horiz-adv-x="457" d="M-39 624q1 55 23 103.5t59 86t85 59t103 21.5t104 -21.5t85 -59t57.5 -86t21.5 -103.5t-21.5 -104t-57.5 -85t-85 -57t-104 -21q-57 0 -106.5 21.5t-86.5 57.5t-57 85t-20 103zM155 630q0 -76 70 -76q76 0 76 70q0 73 -76 73q-70 0 -70 -67z" />
<glyph unicode="&#x661;" horiz-adv-x="489" d="M92 -165v1653h305v-1653h-305z" />
<glyph unicode="&#x662;" horiz-adv-x="969" d="M33 -165v1190q0 102 35 187.5t98.5 147t152.5 95t195 33.5h422v-305h-432q-166 0 -166 -186v-1162h-305z" />
<glyph unicode="&#x663;" horiz-adv-x="1354" d="M-16 -165v1653h305v-591h235v591h305v-583h105q39 0 64 8t39.5 22.5t19.5 33t5 41.5v478h307v-437q0 -221 -120.5 -337.5t-342.5 -116.5h-617v-762h-305z" />
<glyph unicode="&#x664;" horiz-adv-x="973" d="M32 318q0 190 149 338q-149 184 -149 346q0 101 33 190t104.5 154.5t184 103.5t272.5 38h315v-305h-338q-58 0 -105.5 -8t-81.5 -28.5t-52.5 -55.5t-18.5 -89q0 -182 245 -182h351v-304h-351q-245 0 -245 -190q0 -49 11 -84t40 -58t79.5 -33.5t127.5 -10.5h338v-305h-315 q-155 0 -267 38.5t-184.5 105t-107.5 154.5t-35 185z" />
<glyph unicode="&#x665;" horiz-adv-x="1036" d="M24 290q0 22 2.5 57.5t5.5 85.5l33 569q9 140 46 234t97 151t138.5 81.5t171.5 24.5q94 0 172.5 -24t138.5 -80t97 -150.5t46 -236.5l35 -569q3 -50 4 -87.5t1 -58.5q0 -102 -36 -185.5t-100 -143t-155.5 -92t-202.5 -32.5q-110 0 -201.5 32.5t-156.5 92.5t-100.5 144 t-35.5 187zM337 338q0 -44 13.5 -80t37.5 -62.5t57 -41.5t73 -15q39 0 71.5 14t56 38t37.5 58t15 74l-29 666q-7 199 -151 199q-68 0 -106.5 -49.5t-44.5 -149.5z" />
<glyph unicode="&#x666;" horiz-adv-x="969" d="M33 1183v305h420q107 0 196 -33.5t152.5 -95t99 -147t35.5 -187.5v-1190h-307v1162q0 186 -166 186h-430z" />
<glyph unicode="&#x667;" horiz-adv-x="1133" d="M12 1488h318l181 -1203q12 -73 26.5 -109t37.5 -36q45 0 65 147l166 1201h315l-173 -1165q-10 -103 -40.5 -192.5t-78.5 -155t-113 -103t-141 -37.5q-142 0 -239.5 118.5t-137.5 369.5z" />
<glyph unicode="&#x668;" horiz-adv-x="1133" d="M12 -165l186 1165q13 77 29 139.5t36 111.5q48 117 125 177t187 60q60 0 113 -21.5t97 -68.5q122 -120 163 -398l173 -1165h-315l-166 1203q-22 145 -65 145q-23 0 -37.5 -35.5t-26.5 -104.5l-181 -1208h-318z" />
<glyph unicode="&#x669;" horiz-adv-x="963" d="M33 997q0 89 26 169t82 151q66 85 160 128t221 43h408v-1653h-308v668h-100q-101 0 -190 35t-157 105q-142 145 -142 354zM341 997q0 -187 204 -187h77v373h-90q-86 0 -138.5 -50.5t-52.5 -135.5z" />
<glyph unicode="&#x66a;" horiz-adv-x="1468" d="M96 1237q-1 67 26 127t73 105t106.5 70t128.5 24q66 -1 124.5 -26.5t102.5 -69t69.5 -102t25.5 -124.5q1 -67 -25.5 -126t-71.5 -103.5t-105.5 -70.5t-127.5 -26q-66 0 -125 25.5t-104 69t-71 102t-26 125.5zM174 0l840 1536h264l-838 -1536h-266zM301 1241 q-1 -25 8.5 -48t26 -41t38.5 -28.5t48 -11.5t49 9.5t39.5 28t25 41.5t7.5 50q-2 25 -11.5 47.5t-25 39t-36 26t-44.5 10.5q-26 1 -48 -8.5t-39 -26.5t-27 -40t-11 -48zM705 285q-1 67 25.5 127t72.5 104.5t106.5 69.5t128.5 24q66 -1 124 -26.5t101.5 -68.5t69 -101 t25.5 -123q1 -68 -25 -127.5t-71 -104t-105 -70t-127 -24.5q-66 0 -125 25t-103.5 68.5t-70.5 102t-26 124.5zM909 291q-1 -26 8.5 -49.5t26 -41.5t39 -28.5t47.5 -11.5q26 -1 49 9.5t39.5 28.5t25 42t7.5 51q-2 51 -35.5 85t-83.5 36q-24 1 -46.5 -9t-39.5 -26.5t-27 -39 t-10 -46.5z" />
<glyph unicode="&#x66d;" horiz-adv-x="815" d="M71 1074v68l214 18l-139 162l47 49l164 -139l17 213h68l17 -213l163 139l49 -49l-140 -162l214 -18v-68l-214 -17l140 -163l-49 -48l-163 139l-17 -214h-68l-17 214l-164 -139l-47 48l139 163z" />
<glyph unicode="&#x6f9;" horiz-adv-x="1033" d="M93 175v934h934v-934h-934zM223 304h675v675h-675v-675z" />
<glyph unicode="&#x2000;" horiz-adv-x="1118" />
<glyph unicode="&#x2001;" horiz-adv-x="2237" />
<glyph unicode="&#x2002;" horiz-adv-x="1118" />
<glyph unicode="&#x2003;" horiz-adv-x="2237" />
<glyph unicode="&#x2004;" horiz-adv-x="745" />
<glyph unicode="&#x2005;" horiz-adv-x="559" />
<glyph unicode="&#x2006;" horiz-adv-x="372" />
<glyph unicode="&#x2007;" horiz-adv-x="372" />
<glyph unicode="&#x2008;" horiz-adv-x="279" />
<glyph unicode="&#x2009;" horiz-adv-x="447" />
<glyph unicode="&#x200a;" horiz-adv-x="124" />
<glyph unicode="&#x200c;" horiz-adv-x="45" d="M10 -80v1631h25v-1631h-25z" />
<glyph unicode="&#x200d;" horiz-adv-x="45" d="M-102 1427l109 109l-109 108l16 16l109 -108l109 108l16 -16l-109 -108l109 -109l-16 -16l-97 96v-1587h-25v1586l-96 -95z" />
<glyph unicode="&#x200e;" horiz-adv-x="45" d="M8 -80v1631h234l-93 93l17 17l125 -124q-32 -33 -62.5 -63.5l-62.5 -62.5l-17 17l97 97h-213v-1605h-25z" />
<glyph unicode="&#x200f;" horiz-adv-x="45" d="M-246 1537l125 124l17 -17l-93 -93h234v-1631h-25v1605h-213l97 -97l-17 -17q-32 32 -62.5 63t-62.5 63z" />
<glyph unicode="&#x2010;" horiz-adv-x="879" d="M90 234v281h674v-281h-674z" />
<glyph unicode="&#x2011;" horiz-adv-x="879" d="M90 234v281h674v-281h-674z" />
<glyph unicode="&#x2012;" horiz-adv-x="879" d="M90 234v281h674v-281h-674z" />
<glyph unicode="&#x2013;" horiz-adv-x="1448" d="M90 238v281h1237v-281h-1237z" />
<glyph unicode="&#x2014;" horiz-adv-x="1905" d="M96 228v279h1714v-279h-1714z" />
<glyph unicode="&#x2018;" horiz-adv-x="596" d="M96 914q0 32 7 56t20 55l115 299h237l-170 -219q33 -3 63.5 -19.5t54 -42t37.5 -59t13 -70.5q-1 -40 -16 -72.5t-40 -55.5t-58 -36t-70 -14q-39 -1 -73.5 13t-61 38t-42 56.5t-16.5 70.5z" />
<glyph unicode="&#x2019;" horiz-adv-x="596" d="M100 736l172 219q-33 4 -63.5 20t-54 41.5t-37.5 58.5t-13 71q1 40 16 72.5t40 55.5t58.5 36t70.5 14q38 1 72.5 -12.5t61 -37.5t42 -57.5t16.5 -70.5q0 -31 -7 -54.5t-19 -54.5l-115 -301h-240z" />
<glyph unicode="&#x201a;" horiz-adv-x="569" d="M193 -393q26 9 44.5 31t30.5 49.5t17 57t4 55.5h-86v217h172v-219q-1 -45 -12 -89t-33.5 -82t-56.5 -66.5t-80 -41.5v88z" />
<glyph unicode="&#x201c;" horiz-adv-x="1087" d="M96 914q0 32 7 56t20 55l115 299h237l-170 -219q33 -3 63.5 -19.5t54 -42t37.5 -59t13 -70.5q-1 -40 -16 -72.5t-40 -55.5t-58 -36t-70 -14q-39 -1 -73.5 13t-61 38t-42 56.5t-16.5 70.5zM594 914q0 32 6 56t18 55l115 299h240l-172 -219q33 -3 63.5 -19.5t54 -42 t37.5 -59t13 -70.5q-1 -40 -16 -72.5t-40 -55.5t-58.5 -36t-70.5 -14q-38 -1 -72.5 13t-60 38t-41 56.5t-16.5 70.5z" />
<glyph unicode="&#x201d;" horiz-adv-x="1081" d="M94 736l170 219q-33 4 -63.5 20t-54 41.5t-37.5 58.5t-13 71q1 40 16.5 72.5t41 55.5t59 36t70.5 14t71.5 -12.5t60.5 -37.5t41.5 -57.5t16.5 -70.5q2 -31 -5 -54.5t-19 -54.5l-115 -301h-240zM590 736l172 219q-33 4 -63.5 20t-54 41.5t-37.5 58.5t-13 71q1 40 16 72.5 t40 55.5t58 36t70 14q39 1 73 -12.5t60 -37.5t41.5 -57.5t16.5 -70.5q0 -31 -6 -54.5t-19 -54.5l-115 -301h-239z" />
<glyph unicode="&#x2020;" horiz-adv-x="1249" d="M90 734v135h467v477h127v-479h471v-133h-475v-1374h-123v1374h-467z" />
<glyph unicode="&#x2022;" horiz-adv-x="516" d="M90 378q-1 31 11.5 58.5t34 47.5t50 31.5t60.5 11.5q65 -2 103.5 -40t41.5 -97q2 -32 -8 -60t-30 -49.5t-48 -34t-61 -12.5q-32 0 -60 11t-48.5 30.5t-32.5 45.5t-13 57z" />
<glyph unicode="&#x2026;" horiz-adv-x="1810" d="M90 -53q1 38 16 70.5t40.5 56.5t58.5 38t71 14q36 0 69 -13t58.5 -36t40.5 -54t17 -67q2 -41 -12 -76.5t-39.5 -62t-60 -41.5t-73.5 -15q-38 0 -72.5 14.5t-60 40t-40 59.5t-13.5 72zM707 -53q1 38 16 70.5t40 56.5t58 38t70 14t69.5 -13t58 -36t41 -54t17.5 -67 q2 -41 -12 -76.5t-39.5 -62t-60.5 -41.5t-74 -15q-38 0 -71.5 14.5t-59 40t-40 59.5t-13.5 72zM1327 -53q1 38 16 70.5t40 56.5t58 38t70 14t70 -13t58.5 -36t41 -54t17.5 -67q2 -41 -12 -76.5t-40 -62t-61 -41.5t-74 -15q-38 0 -71.5 14.5t-59 40t-40 59.5t-13.5 72z" />
<glyph unicode="&#x202f;" horiz-adv-x="447" />
<glyph unicode="&#x205f;" horiz-adv-x="559" />
<glyph unicode="&#x20ac;" horiz-adv-x="1139" d="M31 384l39 92h90q-2 8 -2 18v23q0 15 1 35t3 45h-131l37 92h104q23 125 69.5 225.5t118.5 175.5q156 168 400 168q255 0 381 -158l-56 -120q-134 161 -327 161q-189 0 -307 -137q-105 -120 -142 -315h682l-37 -92h-657q-6 -53 -6 -88v-16.5t2 -16.5h622l-38 -92h-578 q27 -214 129 -346q123 -154 324 -154q110 0 196 47q35 20 75 52t85 77v-158q-157 -133 -360 -133q-257 0 -414 183q-69 81 -111 189.5t-57 242.5h-135z" />
<glyph unicode="&#x2122;" horiz-adv-x="2028" d="M168 1170v92h657v-92h-274v-752h-109v752h-274zM975 418v844h174l272 -684l265 684h174v-844h-109v746h-4l-299 -746h-62l-299 746h-4v-746h-108z" />
<glyph unicode="&#xe000;" horiz-adv-x="790" d="M0 0v790h790v-790h-790z" />
<glyph unicode="&#xe820;" d="M-90 1109v128h574v-128h-574z" />
<glyph unicode="&#xe821;" horiz-adv-x="414" d="M-59 1073q83 44 145 87t106 81q-45 60 -45 119q0 36 13.5 68t36.5 56t55 38t68 14q34 0 65.5 -13.5t55.5 -36.5t38 -53.5t14 -64.5q0 -35 -24 -72t-75 -74l58 -58l-95 -78l-67 68q-12 -9 -35 -26.5t-58 -41.5q-54 -38 -100 -65.5t-84 -46.5zM277 1368q0 -10 5 -21.5 t19 -25.5l6 -14q27 17 41.5 33t14.5 28q0 48 -46 48q-40 0 -40 -48z" />
<glyph unicode="&#xe822;" horiz-adv-x="328" d="M33 1210q1 36 15.5 68.5t38.5 57t56 38.5t68 14t68 -14t56 -38.5t38 -57t14 -68.5t-14 -68t-38 -56t-56 -37.5t-68 -13.5q-38 0 -70.5 14t-56.5 38t-37.5 56t-13.5 67zM161 1215q0 -51 45 -51q51 0 51 46q0 49 -51 49q-45 0 -45 -44zM315 1051q2 0 2 1q0 -1 -2 -1z M317 1052l1 2q0 -2 -1 -2z" />
<glyph unicode="&#xe823;" d="M-59 1065v122h572v-122h-572zM-59 1308v128h572v-128h-572z" />
<glyph unicode="&#xe824;" horiz-adv-x="469" d="M-62 1073l63 126q25 48 50.5 73t58.5 25q27 0 49.5 -22t40 -48.5t29.5 -48.5t18 -22h3q8 2 10.5 2.5t4.5 0.5l48 35q-26 32 -38 62t-12 60q0 36 14 68.5t38 57.5t55.5 40t67.5 15q35 0 66 -15t54 -39.5t36.5 -55t13.5 -60.5q0 -85 -95 -153l64 -55l-104 -80l-66 67 q-15 -8 -41.5 -28.5t-73.5 -52.5l-40 -16q-2 -4 -8.5 -4.5t-14.5 -0.5q-26 0 -49 20t-41 44t-29.5 44t-14.5 20q0 -2 -0.5 -4.5t-2.5 -6.5l-10 -28l-43 -78zM394 1327q0 -12 6 -26t20 -25l8 -13q28 17 42 34.5t14 31.5q0 20 -10.5 30t-35.5 10q-44 0 -44 -42z" />
<glyph unicode="&#xe825;" horiz-adv-x="425" d="M-38 1173v199h130v-183q0 -13 2.5 -20t6.5 -10t8.5 -3.5t9.5 -0.5t12.5 3.5t14.5 11.5t12 21t5 33v148h126v-148q0 -20 5 -33t13 -21t17.5 -11.5t18.5 -3.5q6 0 10 4q4 3 7 10t3 20v183h130v-199q0 -22 -6 -46.5t-21.5 -45.5t-43.5 -35t-72 -14q-15 0 -32 4.5t-33.5 13.5 t-30.5 22.5t-23 31.5q-9 -18 -24.5 -31.5t-33 -22.5t-35.5 -13.5t-33 -4.5q-33 0 -59 13t-45 33.5t-29 45.5t-10 49z" />
<glyph unicode="&#xe826;" d="M-58 -534h574v-128h-574v128z" />
<glyph unicode="&#xe827;" d="M-66 -497h574v-128h-574v128zM-66 -747h574v-122h-574v122z" />
<glyph unicode="&#xe828;" horiz-adv-x="425" d="M-77 1382v129h579v-129h-579zM-48 1122q0 -24 10 -49t29 -45.5t45 -33.5t59 -13q15 0 33 4.5t35.5 13.5t33 23t24.5 32q9 -18 23 -32t30.5 -23t34 -13.5t32.5 -4.5q44 0 72 14t43.5 35t21.5 45.5t6 46.5v199h-130v-183q0 -13 -3.5 -20t-7.5 -10q-4 -4 -10 -4 q-8 0 -17.5 3.5t-17.5 11.5t-13.5 21t-5.5 33v148h-126v-148q0 -20 -5 -33t-12 -21t-14.5 -11.5t-12.5 -3.5t-9.5 0.5t-8.5 3.5t-6.5 10t-2.5 20v183h-130v-199z" />
<glyph unicode="&#xe829;" horiz-adv-x="425" d="M-62 1416q83 45 145 87.5t106 80.5q-45 60 -45 119q0 36 13.5 68t37 56t55 38t67.5 14q34 0 65.5 -13.5t55.5 -36.5t38 -53.5t14 -64.5q0 -35 -24 -72t-75 -73l58 -59l-95 -78l-67 68q-12 -9 -35 -26t-57 -42q-54 -38 -100.5 -65.5t-84.5 -46.5zM-34 1085q0 -24 10 -49 t29 -46t45 -34t59 -13q15 0 33 4.5t35.5 14t33 23t24.5 31.5q9 -18 23 -31.5t30.5 -23t33.5 -14t32 -4.5q44 0 72 14t43.5 35t21.5 46t6 47v199h-130v-184q0 -13 -3 -20t-7 -10q-4 -4 -10 -4q-8 0 -17.5 3.5t-17.5 11.5t-13.5 21t-5.5 33v149h-126v-149q0 -20 -5 -33 t-12 -21t-14.5 -11.5t-12.5 -3.5t-9.5 0.5t-8.5 3.5t-6.5 10t-2.5 20v184h-130v-199zM274 1711q0 -10 5 -21.5t20 -25.5l5 -14q27 17 41.5 33.5t14.5 27.5q0 48 -46 48q-40 0 -40 -48z" />
<glyph unicode="&#xe82a;" horiz-adv-x="425" d="M-53 1317v122h572v-122h-572zM-53 1560v127h572v-127h-572zM-49 1062q0 -24 10 -49t29 -46t45 -34t59 -13q15 0 33 4.5t35.5 14t33 23t24.5 31.5q9 -18 23 -31.5t30.5 -23t34 -14t32.5 -4.5q44 0 72 14t43.5 35t21.5 46t6 47v199h-130v-183q0 -13 -3.5 -20t-7.5 -10 q-4 -4 -10 -4q-8 0 -17.5 3.5t-17.5 11.5t-13.5 21t-5.5 33v148h-126v-148q0 -20 -5 -33t-12 -21t-14.5 -11.5t-12.5 -3.5t-9.5 0.5t-8.5 3.5t-6.5 10t-2.5 20v183h-130v-199z" />
</font>
</defs>
</svg>
