<?xml version="1.0" standalone="no"?>
<!DOCTYPE svg PUBLIC "-//W3C//DTD SVG 1.1//EN" "http://www.w3.org/Graphics/SVG/1.1/DTD/svg11.dtd" >
<svg xmlns="http://www.w3.org/2000/svg">
<metadata></metadata>
<defs>
<font id="bm_jua_ttfregular" horiz-adv-x="512" >
<font-face units-per-em="2048" ascent="1638" descent="-410" />
<missing-glyph horiz-adv-x="500" />
<glyph horiz-adv-x="2048" />
<glyph horiz-adv-x="2048" />
<glyph unicode="&#xd;" />
<glyph />
<glyph />
<glyph />
<glyph />
<glyph />
<glyph />
<glyph />
<glyph />
<glyph unicode="&#x9;" />
<glyph unicode="&#xa;" />
<glyph />
<glyph />
<glyph />
<glyph />
<glyph />
<glyph />
<glyph />
<glyph />
<glyph />
<glyph />
<glyph />
<glyph />
<glyph />
<glyph />
<glyph />
<glyph />
<glyph />
<glyph />
<glyph />
<glyph />
<glyph unicode=" " />
<glyph unicode="!" horiz-adv-x="604" d="M144 441.5q1 37.5 1 76.5v686q0 25 6.5 63.5t22.5 65.5t45 39t55 12q23 0 44.5 -1t41.5 -5q43 -12 61.5 -54t24 -96t2 -107.5t-3.5 -86.5v-604v-82t-14 -78q-14 -35 -53 -51t-82 -15t-82 18.5t-53 49.5q-6 18 -9.5 46t-5.5 51q-2 35 -1 72.5zM163 -70.5q-1 37.5 9 66.5 q12 31 39 42t57 11q39 2 77 -2t65 -31q6 -10 11 -19t9 -22q6 -23 8 -47t-4 -47.5t-20.5 -44t-38.5 -31.5q-23 -10 -53.5 -12t-59.5 4t-53.5 22.5t-34.5 43.5q-10 29 -11 66.5z" />
<glyph unicode="&#x22;" horiz-adv-x="907" d="M141 1197q2 40 2 81l2 158q2 98 44 130.5t135 -7.5q37 -16 45 -56.5t8 -83.5v-157q0 -39 -3 -80t-42 -66q-37 -23 -85 -21t-77 31q-31 31 -29 71zM510 1197q2 40 2 81l2 158q2 98 44 130.5t134 -7.5q37 -16 45 -56.5t8 -83.5v-157q0 -39 -3 -80t-42 -66 q-37 -23 -84.5 -21t-76.5 31q-31 31 -29 71z" />
<glyph unicode="#" horiz-adv-x="1716" d="M143 297q0 39 17.5 70.5t62.5 33.5q41 0 88 -1t88 -1l82 351h-114q-23 0 -46.5 3t-43 12t-30.5 26.5t-11 44.5q0 33 15 54t39.5 33.5t53.5 17.5t55 5h129q8 39 17.5 88t25 97.5t37 91.5t56.5 71q39 33 75.5 38t63 -11t38 -53t-0.5 -88q-14 -57 -27.5 -116.5t-26.5 -117.5 h240l5 24q5 23 11.5 52t12.5 53.5t6 28.5q12 47 39.5 107.5t70.5 88.5q20 12 45 14.5t48.5 -4.5t42 -25.5t26.5 -45.5q12 -27 0 -76q-10 -53 -21.5 -108.5t-21.5 -108.5q18 0 45 -1t54.5 -6t51 -13t34.5 -21q8 -12 13 -34.5t1 -46t-18.5 -43t-43.5 -23.5q-8 -4 -56 -6 t-126 -2l-61 -351q25 0 60.5 2t82.5 -2q43 -2 62.5 -28.5t17.5 -67.5q0 -43 -30.5 -63.5t-73.5 -27.5t-91.5 -7h-83.5q-4 0 -10 -30t-13 -65.5t-13.5 -68.5t-8.5 -39q-8 -35 -14 -68.5t-20.5 -62.5t-38 -49.5t-64.5 -26.5q-33 -4 -60.5 6.5t-48 31t-29.5 49t-5 59.5t11 60.5 t15 57.5q8 35 16.5 73t14.5 73h-244q-12 -51 -23 -102.5t-24 -104.5q-10 -45 -27.5 -91t-58.5 -73q-37 -27 -83 -33t-83 31q-25 25 -28.5 57.5t2.5 67.5t17 68.5t18 62.5q6 29 13 58.5t13 58.5h-62.5t-68.5 8t-55.5 27.5t-22.5 56.5zM659 399h248l78 351h-246z" />
<glyph unicode="$" horiz-adv-x="1282" d="M85 169.5q-3 27.5 4 54t24.5 47t48.5 26.5q20 6 40.5 -1t39 -19.5t37 -28t36.5 -23.5q47 -18 109.5 -33.5t116.5 -23.5v356q-37 12 -83 22.5t-75 18.5q-27 10 -48.5 17.5t-37.5 17.5q-90 35 -131 109q-20 37 -30.5 74.5t-10.5 84.5q0 41 8 77t21 67q25 61 79 106 q25 25 57 41.5t68 32.5q35 16 88.5 24.5t94.5 12.5v60.5t16 53.5q25 35 45.5 49.5t61.5 10.5q37 -4 65.5 -18.5t42.5 -51.5q0 -4 1 -21.5t3 -37.5q2 -23 2 -51q66 -14 136.5 -36t127.5 -54q45 -29 73 -65t26 -89q-2 -29 -22.5 -55.5t-49.5 -30.5q-33 -4 -61.5 11.5 t-55.5 29.5q-35 16 -81 33.5t-93 21.5v-282q43 -12 90 -32t82 -34q115 -47 169.5 -148.5t49.5 -218.5q-2 -78 -30 -143q-16 -29 -37 -53.5t-45 -44.5q-25 -23 -53.5 -38t-63.5 -32q-35 -10 -78 -19.5t-84 -17.5q-2 0 -3 -13t0 -29.5t2 -32t1 -17.5q0 -34 -14 -59 q-18 -27 -51 -39t-67 -8t-61.5 23.5t-35.5 53.5q-2 4 -3 22.5t-2 38t-2 36.5l-1 16q-47 6 -109.5 17.5t-109.5 27.5q-31 12 -65 25.5t-64.5 31t-56 41t-38.5 56.5q-10 25 -13 52.5zM395 858q2 -16 14.5 -35.5t28.5 -31.5q18 -12 45 -19.5t58 -11.5v231q-68 -4 -112 -33.5 t-34 -99.5zM778 453q0 -72 3 -144.5t1 -144.5q31 -4 61.5 5t53.5 28.5t36 48t9 63.5q-4 27 -19.5 50.5t-39 42t-51 31.5t-54.5 20z" />
<glyph unicode="%" horiz-adv-x="1585" d="M108 993.5q3 65.5 15 130.5q14 59 59 113.5t105 75.5q47 16 96 19t96 1q45 -4 85 -17t75 -42t54.5 -70t23.5 -84q10 -78 3 -158.5t-30 -154.5q-23 -55 -65 -87t-95 -48q-66 -16 -136 -16.5t-136 28.5q-49 18 -85 72.5t-52 103.5q-16 68 -13 133.5zM298 994 q-1 -36 4 -70.5t21.5 -62t51.5 -34.5q16 -2 38 -4t42 2q16 2 27.5 8.5t21.5 16.5q31 31 34 77t3 85q0 33 -8.5 72.5t-43.5 56.5q-31 16 -63.5 19t-60.5 -13q-33 -16 -45.5 -40t-18.5 -54q-2 -23 -3 -59zM348 -92q0 47 22.5 90t45.5 84q29 55 60.5 109.5t62.5 107.5 q78 141 155.5 280.5t155.5 280.5q29 57 61.5 114.5t63.5 112.5q16 29 34.5 60t41 58.5t49 48t61.5 26.5q35 8 66 -12.5t35 -59.5v-4q4 -43 -16.5 -84t-43.5 -76q-29 -53 -57.5 -106t-57.5 -107q-78 -139 -154.5 -276t-154.5 -279q-33 -59 -64.5 -119.5t-66.5 -121.5 q-18 -31 -39.5 -70t-49.5 -71.5t-62.5 -51t-79.5 -12.5q-29 4 -47.5 26.5t-20.5 51.5zM862.5 96.5q3.5 65.5 16.5 132.5q14 59 58 113.5t103 73.5q47 16 96.5 19t96.5 -3q45 -2 86 -15.5t76 -41.5q16 -14 30.5 -38t24.5 -49.5t17.5 -52t9.5 -49.5q10 -78 5 -143.5 t-32 -136.5q-20 -59 -65.5 -87t-100.5 -42q-68 -16 -131 -18.5t-129 26.5q-49 20 -90 74.5t-57 105.5q-18 66 -14.5 131.5zM1053 96q-2 -35 3 -68.5t21.5 -61t50.5 -34.5q16 -4 38 -5t40 3q35 4 51 23q31 29 38.5 74t4.5 82q0 31 -11 74.5t-46 62.5q-29 16 -63.5 17 t-63.5 -13t-42 -39t-15 -55q-4 -25 -6 -60z" />
<glyph unicode="&#x26;" horiz-adv-x="1568" d="M137 260q4 72 30 145.5t77 124.5q4 4 16 15.5t26.5 24t27 21.5t14.5 7q-41 51 -64.5 112.5t-30 126t1 129t27.5 121.5q33 96 102.5 153.5t157.5 79t182.5 10.5t174.5 -54q92 -45 134 -134t50 -188q4 -51 3 -104t-13.5 -104.5t-39 -96.5t-73.5 -78q18 -16 37.5 -37.5 t30.5 -37.5q23 -29 43 -76l45 -96q-2 4 5 15t17 23.5t19.5 23.5t11.5 13q16 23 38.5 47.5t48.5 44t54.5 27.5t59.5 0q29 -8 38 -27.5t5 -45t-17.5 -53t-29 -53.5t-29.5 -46.5t-23 -30.5q-18 -29 -35.5 -54.5t-35.5 -51.5q-2 -4 -17.5 -21.5t-13.5 -21.5q12 -25 40 -75 t44 -103.5t10 -99.5t-59 -60q-39 -10 -79 10t-65 49q-4 4 -15 20.5t-22.5 36t-18.5 38t-3 26.5q-39 -47 -81 -85t-97 -60q-72 -29 -147.5 -36t-153.5 -1q-23 4 -45.5 7t-44.5 9q-82 16 -157 59t-112 123q-33 66 -44 141.5t-5 147.5zM395 258q-4 -47 2 -99.5t33 -88.5 q39 -49 114.5 -68.5t145.5 -9.5q31 4 66 17.5t67.5 33.5t58 46t38.5 56q4 14 -2.5 34t-16.5 40.5t-20.5 38.5t-16.5 31q-16 39 -41.5 78t-60.5 59q-76 45 -160 35q-80 -8 -140.5 -61.5t-66.5 -141.5zM479 940q-6 -49 3.5 -97t34 -84t66.5 -55.5t103 -11.5q68 4 98.5 47 t36.5 101q6 31 8 60.5t-2 58t-18 54t-45 46.5q-43 31 -100.5 35t-104.5 -27q-39 -23 -57.5 -54.5t-22.5 -72.5z" />
<glyph unicode="'" horiz-adv-x="722" d="M229 1197q2 40 2 81l2 158q2 98 44 130.5t135 -7.5q37 -16 45 -56.5t8 -83.5v-157q0 -39 -3 -80t-42 -66q-37 -23 -85 -21t-77 31q-31 31 -29 71z" />
<glyph unicode="(" horiz-adv-x="698" d="M139 526q0 47 4 102.5t15 116.5q10 66 24.5 126.5t32.5 123.5q20 63 43 124t53 120q23 47 52.5 98.5t76.5 83.5q25 14 60 21.5t65 3.5q37 -4 45 -20.5t1 -39t-22.5 -47t-23.5 -45.5q-29 -76 -53.5 -148.5t-40.5 -146.5q-53 -236 -53 -471q0 -117 12 -227q8 -51 16.5 -101 t24.5 -104q12 -49 27.5 -100t36.5 -98q12 -35 35.5 -77t19.5 -81q0 -8 -1 -13.5t-3 -13.5q-16 -27 -54 -36t-69 4q-29 10 -54.5 32.5t-48 51t-42 58.5t-33.5 54q-27 49 -48.5 99.5t-37.5 103.5q-16 51 -28.5 103.5t-18.5 109.5q-8 53 -10.5 113.5t-2.5 119.5z" />
<glyph unicode=")" horiz-adv-x="708" d="M113.5 1386.5q-7.5 22.5 1 39t45.5 20.5q31 4 65.5 -3t59.5 -22q47 -33 76.5 -84t52.5 -98q31 -59 53 -119.5t43 -124.5q18 -63 32.5 -123.5t24.5 -126.5q10 -61 14.5 -116.5t4.5 -102.5q0 -59 -2 -119.5t-11 -113.5q-6 -57 -18 -109.5t-29 -103.5q-16 -53 -37.5 -103.5 t-48.5 -99.5q-16 -25 -34.5 -54.5t-41 -58t-48 -51t-54.5 -32.5q-31 -12 -69 -3.5t-54 35.5q-2 8 -3 13.5t-1 13.5q-4 39 19.5 81t35.5 77q20 47 36 98t28 100q16 53 24.5 103.5t16.5 101.5q12 111 12 227q0 236 -53 471q-16 74 -41 147t-53 148q-10 20 -24.5 45t-22 47.5z " />
<glyph unicode="*" horiz-adv-x="1165" d="M103 650.5q-5 45.5 30 74.5q29 23 71 19.5t77 -3.5h125q-33 47 -60 90q-25 35 -52.5 80t-17.5 93q6 33 35 48t64 11q37 -2 72.5 -37t56.5 -65l74 -117q25 39 49 75.5t49 75.5q16 23 31.5 41.5t44.5 30.5q25 10 55.5 7t48.5 -25q27 -37 22.5 -79t-24.5 -83t-49 -78 t-49 -68h143h69.5t67.5 -20q23 -18 25 -47q4 -25 -6.5 -52.5t-32.5 -39.5q-23 -12 -53.5 -9.5t-55.5 2.5h-157q23 -37 46 -72.5t46 -72.5q10 -16 20.5 -36.5t14.5 -41.5q4 -14 5 -29.5t-7 -29.5q-23 -37 -52.5 -45t-60.5 3t-58.5 35.5t-43.5 49.5q-23 35 -44.5 66.5 t-43.5 66.5l-99 -154q-12 -20 -28.5 -43.5t-40.5 -33.5q-29 -12 -51.5 -13.5t-47.5 13.5q-33 20 -42 44.5t-5 50t18.5 52.5t30.5 51q23 35 46.5 70t46.5 69q-41 0 -80 -2l-78 -4h-52.5t-50.5 13q-37 23 -42 68.5z" />
<glyph unicode="+" horiz-adv-x="1116" d="M84 639q0 29 17.5 56.5t50.5 37.5q20 6 33.5 10.5t24.5 6.5t24.5 3t35.5 1l150 -2v157q-2 47 0 97.5t31 85.5q16 23 44.5 35t51.5 12q29 0 56.5 -19.5t37.5 -52.5q14 -43 13 -88t1 -92v-137l230 -2q35 6 52 -4.5t46 -32.5q29 -23 29 -64q0 -20 -7.5 -42.5t-19.5 -33.5 q-16 -16 -34.5 -23t-36 -10t-29 -3h-13.5h-217v-238q6 -35 -4 -71t-33 -64q-23 -29 -63 -29q-20 0 -53 7t-43 20q-16 16 -23.5 41.5t-10.5 50t-3 42v19.5l-2 219h-172q-23 0 -38 -1t-28.5 2.5t-26 9.5t-28.5 20q-43 31 -43 76z" />
<glyph unicode="," horiz-adv-x="583" d="M65 -189.5q1 23.5 8 49t17 50t23 43.5q12 18 34.5 51t49 66.5t54.5 61.5t50 34q27 6 54.5 -5t47 -30.5t28.5 -45.5t-1 -48q-8 -18 -32.5 -45t-53.5 -54.5t-55.5 -53t-38.5 -40.5q-10 -14 -25.5 -32.5t-33 -36t-36 -27.5t-36.5 -8q-29 4 -45 33q-10 14 -9 37.5z" />
<glyph unicode="-" horiz-adv-x="970" d="M82 647q0 35 19.5 69t54.5 46q43 18 89 17t93 1h395q35 8 71 -4t66 -41q14 -14 21.5 -34.5t7.5 -43.5q0 -25 -7 -52t-20 -42q-16 -18 -42.5 -28.5t-51 -13.5t-42 -3h-19.5l-402 -2q-25 -2 -50 -3t-50 2t-46.5 12.5t-39.5 25.5q-23 23 -35 44t-12 50z" />
<glyph unicode="." horiz-adv-x="409" d="M76 -176q0 53 38 92t91 39t91 -39t38 -92t-38 -91t-91 -38t-91 38t-38 91z" />
<glyph unicode="/" horiz-adv-x="980" d="M90 -27.5q10 29.5 27 60.5h-2q72 160 140.5 314.5t143.5 307.5q68 143 125.5 270.5t112.5 250.5q10 23 24.5 45t33 35.5t43 17.5t59.5 -10q53 -23 78.5 -64t15.5 -94q-29 -74 -46.5 -120t-34.5 -85t-37.5 -80t-52.5 -106.5t-78 -164.5t-116 -255q-37 -84 -74.5 -160 t-74.5 -151q-12 -23 -26.5 -54.5t-31.5 -68.5q-16 -35 -46.5 -51.5t-65.5 -16.5q-25 0 -47.5 8.5t-39 22.5t-24.5 34.5t-4 47.5q-12 37 -2 66.5z" />
<glyph unicode="0" horiz-adv-x="1253" d="M82 567q0 213 82 412q14 35 37.5 74t53.5 74.5t61.5 64.5t64.5 43q45 20 98 41q66 20 148 18t149 -18q94 -23 162 -81t115 -139t73.5 -176.5t38.5 -193.5q8 -66 6 -130t-10 -130q-8 -59 -19.5 -118.5t-29.5 -115t-47 -105.5t-72 -93q-78 -76 -169 -118t-195 -46 q-37 0 -75 5t-75 20q-55 23 -105 60.5t-91 84.5q-98 111 -149.5 261.5t-51.5 305.5zM352 569q0 -88 19.5 -182t70.5 -172q25 -37 59 -64.5t79 -39.5q41 -10 83 -6t78 26q59 37 94 98.5t52.5 133t20.5 147.5t-1 137t-20.5 129t-48 123t-83.5 91t-128 34q-29 0 -56.5 -5 t-52.5 -22q-29 -18 -51.5 -44.5t-38.5 -55.5q-43 -74 -59.5 -158t-16.5 -170z" />
<glyph unicode="1" horiz-adv-x="841" d="M43 1057q-8 66 30 102.5t97 54.5q66 23 128 47t128 42q14 4 26.5 7t24.5 5q14 4 36 5t41 -2t36.5 -12.5t25.5 -27.5q8 -20 11.5 -48t3.5 -56.5t-1 -56t-1 -50.5v-1047q0 -23 1 -46t-1 -47.5t-12.5 -46t-30.5 -36.5q-29 -23 -77 -23.5t-83 11.5q-37 12 -44 47t-7 70 q-14 270 -13.5 529t0.5 534q-4 -10 -27.5 -18.5t-53 -14.5t-56 -10t-35.5 -4q-53 -6 -97 11t-50 81z" />
<glyph unicode="2" horiz-adv-x="1198" d="M84 911q2 33 16.5 72t36 75t47 67.5t52.5 54.5q49 39 111.5 67.5t131 43t137 12t127.5 -20.5q164 -51 254 -161.5t90 -286.5q0 -84 -15 -151t-53 -128t-100.5 -124.5t-154.5 -139.5q-31 -27 -63.5 -53.5t-65.5 -53.5q-10 -8 -39 -24.5t-51.5 -32.5t-26.5 -30.5t33 -16.5 q45 -4 71.5 -2t71.5 2q53 0 104.5 2t102.5 -2q20 -2 45 -1t49.5 0t47 -6t38.5 -20q16 -14 24.5 -38.5t9.5 -52.5t-5 -53.5t-20 -39.5q-27 -31 -66 -30t-74 1h-735q-20 0 -44 -2t-42 4q-37 10 -36 39t1 60q0 51 24.5 95t62.5 82t81 70.5t80 63.5q53 47 114.5 94t116.5 94 q72 59 122 108.5t81 92.5t45.5 85t14.5 89q0 104 -63.5 160.5t-162.5 56.5q-72 0 -134 -30.5t-103 -90.5q-12 -23 -23.5 -46.5t-25.5 -43.5q-31 -47 -73 -57t-81 6t-64.5 54t-21.5 87z" />
<glyph unicode="3" horiz-adv-x="1126" d="M83 93q-3 36 13.5 65.5t57.5 44.5q31 10 59.5 8t55 -13.5t52 -25.5t50.5 -29q76 -47 158.5 -55t162.5 39q45 27 65.5 66.5t17.5 80.5t-26.5 78t-64.5 62q-39 23 -86 31l-94 16t-90 22.5t-74 48.5q-35 39 -22.5 84.5t46 88.5t75.5 81.5t67 65.5q14 14 33.5 34.5t37 41 t31 40t17.5 36.5q6 16 -6.5 23t-31 8t-40 0t-33.5 -1h-137q-29 0 -63.5 -1t-70.5 2t-69.5 11.5t-56.5 28.5q-27 25 -27 74q2 23 8 44t23 38q45 41 96 47t111 10q47 2 84 1t84 -1q72 0 156.5 -2t160.5 -6q31 -2 61.5 -8t55 -21.5t40 -39t17.5 -58.5q2 -41 -11 -78 t-35.5 -70.5t-50.5 -63.5t-52 -54q-45 -47 -102.5 -100.5t-102.5 -100.5q80 -10 154.5 -36.5t132 -74t91 -118t33.5 -168.5t-37.5 -182t-105 -146.5t-160 -97.5t-202.5 -35q-47 0 -101.5 8t-108 24.5t-101.5 42t-83 62.5q-25 25 -42 58.5t-20 69.5z" />
<glyph unicode="4" horiz-adv-x="1286" d="M84 273.5q-6 33.5 5 67.5t33.5 66.5t43.5 59.5q78 104 150.5 212.5t146.5 215.5q41 55 85 106.5t83 106.5q29 43 62.5 88t84.5 70q49 23 94 22.5t70 -35.5q14 -23 19 -57q10 -72 9 -146.5t1 -146.5q0 -84 1 -166t1 -166v-174h88q23 0 47.5 -5t45 -17.5t34.5 -30.5t16 -45 q0 -66 -41 -89.5t-98 -27.5q-4 0 -17.5 -1t-30 -1h-29.5t-15 4v-139v-51.5t-4 -56t-15.5 -52t-33.5 -39.5q-10 -6 -25.5 -9t-34 -5t-36 -1t-29.5 5q-37 12 -47.5 52t-14.5 75v40v72t-2 68.5t-6 30.5h-360q-59 0 -125 2t-113 37q-37 27 -43 60.5zM399 406h340v479z" />
<glyph unicode="5" horiz-adv-x="1181" d="M85 130q7 46 54 69q35 16 64.5 11t56.5 -20.5t52.5 -37t52.5 -35.5q47 -23 98 -38.5t108 -15.5q127 0 204 68t77 182q0 111 -80 173.5t-215 62.5q-35 0 -69.5 -4t-69.5 -15q-33 -8 -64.5 -18t-62.5 -13t-60.5 6t-56.5 42q-27 29 -27 69.5t5 75.5q4 59 6 118.5t6 119.5 q4 59 7 117.5t7 117.5q2 35 10.5 55.5t22.5 34.5q18 18 48 23.5t71 5.5h506q27 0 60.5 1t64 -5t54 -21.5t34.5 -48.5q6 -20 5 -46.5t-10.5 -50t-28 -41t-44.5 -19.5q-53 -10 -110.5 -5t-110.5 5q-59 0 -104.5 -4.5t-102.5 -4.5q-23 0 -57.5 2.5t-53.5 -4.5q-16 -4 -25.5 -16 t-13.5 -27.5t-4 -32v-28.5q0 -35 -3 -71t-5 -70q-4 -47 13.5 -52.5t60.5 7.5q74 18 151 18q104 0 194.5 -27.5t157 -84t104.5 -141.5t38 -198q0 -20 -1 -38.5t-5 -36.5q-16 -129 -96 -227.5t-203 -141.5q-145 -55 -301 -50t-287 89q-37 23 -67.5 54.5t-45.5 72.5 q-16 43 -9 89z" />
<glyph unicode="6" horiz-adv-x="1265" d="M82 516q0 90 12 182.5t42 178.5t79 161.5t123 135.5q70 55 151.5 85.5t167.5 34.5t172 -16.5t162 -67.5q20 -12 47 -35.5t45.5 -52t22.5 -64.5t-21 -73q-4 -8 -18 -16t-32.5 -12.5t-39.5 -2t-39 12.5q-18 12 -38.5 25.5t-43.5 21.5q-72 29 -156.5 32t-158.5 -32 q-59 -29 -99 -72t-64.5 -96t-37 -112.5t-14.5 -119.5q55 55 135 99.5t205 44.5q104 0 195.5 -30t159 -87t106.5 -141t39 -193t-41 -198t-111.5 -153.5t-168 -100t-210.5 -35.5q-131 0 -228 40t-169 109q-41 41 -72.5 91.5t-54.5 115t-35 148.5t-12 192zM368.5 312 q-3.5 -44 6.5 -87q8 -51 41 -89t77 -61.5t96 -32.5t101 -3q55 6 101.5 29.5t79 59.5t50 84t11.5 103q-6 59 -30.5 99.5t-63.5 63t-90.5 29.5t-108.5 5q-70 -4 -131.5 -36t-106.5 -85q-29 -35 -32.5 -79z" />
<glyph unicode="7" horiz-adv-x="1239" d="M84 1155q-4 43 8 68t35 37q25 12 55.5 15t65.5 3h741q29 0 61.5 2t59.5 -12q37 -20 43 -64.5t-7 -98.5t-40 -114.5t-55.5 -115t-54 -98.5t-38.5 -66q-33 -61 -60.5 -112.5t-53 -103t-53 -102.5t-60.5 -112q-41 -84 -93 -175.5t-99 -171.5q-14 -25 -33 -49t-42.5 -40.5 t-53 -20.5t-64.5 12q-53 29 -68.5 84t9.5 103q39 70 75.5 140t73.5 140q55 104 103.5 200.5t103.5 201.5q16 31 45 74.5t54.5 91t41 93.5t9.5 80q-72 6 -130.5 5.5t-127.5 -0.5h-199q-37 0 -79 -2.5t-79 5t-62.5 30t-31.5 73.5z" />
<glyph unicode="8" horiz-adv-x="1189" d="M84 270q10 111 74.5 189t163.5 119q-8 0 -25.5 10t-36 24.5t-34 27.5t-21.5 17q-25 27 -40 62t-26 69q-27 92 -6 193.5t84 177.5q27 33 68 58.5t88 43t95 27.5t87 10q53 0 104.5 2.5t102.5 -6.5q63 -10 117.5 -40.5t95.5 -75.5q82 -90 105.5 -202t-7.5 -228 q-10 -33 -30.5 -61t-47.5 -52q-6 -4 -20 -14.5t-31.5 -21.5t-34 -18.5t-24.5 -5.5q49 -31 94 -60.5t74 -82.5t42 -112.5t10 -119t-23.5 -115.5t-59.5 -101t-89 -75t-105.5 -48.5t-114 -26.5t-113.5 -8q-61 0 -125.5 6t-125 25.5t-113 54.5t-86.5 90q-39 59 -54.5 128 t-11.5 140zM332 233q-4 -41 11 -72.5t41 -55t60.5 -37t69.5 -17.5q82 -12 158 2q29 6 54.5 11.5t47 15.5t38.5 27.5t30 48.5q18 43 15 97t-34 89q-45 53 -99 69.5t-120 12.5q-45 -2 -91 -12.5t-84 -32t-64.5 -57t-32.5 -89.5zM375 874q2 -39 12 -72.5t39 -62.5 q35 -41 84 -48t98 -5q76 0 132.5 22.5t90.5 96.5q27 59 15 110.5t-47 87t-87.5 55t-105.5 15.5q-47 -4 -90 -14t-75.5 -32.5t-50 -59.5t-15.5 -93z" />
<glyph unicode="9" horiz-adv-x="1206" d="M82 799q0 106 37 197t104.5 158t161.5 104.5t209 37.5q131 0 220 -37.5t163 -113.5q76 -80 111.5 -209t35.5 -340q0 -172 -37.5 -315.5t-109.5 -246t-179.5 -158.5t-244.5 -56q-94 0 -181 21.5t-159 84.5q-27 25 -50.5 56.5t-32.5 63.5t1 63.5t51 56.5q27 16 48.5 16 t41 -10t37 -27.5t35.5 -33.5q47 -39 101.5 -51.5t113.5 -12.5q68 0 125 33t97 86t58.5 120.5t8.5 135.5q-59 -35 -135 -54.5t-146 -19.5q-111 0 -199.5 32t-152 90t-98.5 142t-35 187zM334 847.5q-8 -59.5 9 -118.5t63 -98q39 -37 92 -49.5t107 -6t103.5 31t82.5 63.5t44 83 t3.5 88t-30 84t-54.5 70q-29 23 -69 36.5t-85 17.5q-37 2 -72.5 -3.5t-64.5 -15.5q-55 -23 -88 -73t-41 -109.5z" />
<glyph unicode=":" horiz-adv-x="477" d="M113 152q0 53 37.5 92t91.5 39q53 0 91 -39t38 -92t-38 -91t-91 -38t-91 37.5t-38 91.5zM113 909q0 53 37.5 92t91.5 39q53 0 91 -39t38 -92t-38 -91t-91 -38t-91 38t-38 91z" />
<glyph unicode=";" horiz-adv-x="520" d="M3 -85q1 24 8 49.5t17.5 50t22.5 42.5t35 51t49.5 67t54 61.5t50.5 33.5q27 6 54.5 -5t46.5 -30.5t28.5 -45t-0.5 -48.5q-8 -18 -33 -44.5t-53.5 -54.5t-55 -53.5t-39.5 -39.5q-10 -14 -25.5 -32.5t-32.5 -36t-36 -28t-37 -8.5q-29 4 -45 33q-10 14 -9 38zM113 909 q0 53 37.5 92t91.5 39q53 0 91 -39t38 -92t-38 -91t-91 -38t-91 38t-38 91z" />
<glyph unicode="&#x3c;" horiz-adv-x="1120" d="M133 553q0 104 150 303q57 72 126.5 150.5t155.5 156.5q53 53 109.5 105.5t124.5 89.5q29 14 62.5 13t62 -16.5t47 -44t18.5 -67.5q0 -31 -8 -59.5t-29 -50.5q-8 -12 -28.5 -32t-55.5 -54q-86 -72 -162.5 -152t-148.5 -168q-25 -29 -49.5 -59.5t-38.5 -63.5t-13 -69.5 t29 -75.5q51 -72 108.5 -137.5t123.5 -128.5q39 -41 79 -80t76 -78q49 -49 59.5 -103.5t-10 -95.5t-66.5 -59.5t-110 6.5q-33 14 -63.5 37.5t-59 53.5t-55 60.5t-49.5 57.5q-385 424 -385 561z" />
<glyph unicode="=" horiz-adv-x="1054" d="M92 332q0 35 19.5 68.5t54.5 45.5q43 18 89 17.5t93 1.5h438q35 8 71 -4t67 -41q14 -14 21 -34.5t7 -43.5q0 -25 -7 -52.5t-19 -41.5q-16 -18 -43 -28.5t-51.5 -13.5t-42 -3h-19.5l-444 -2q-25 -2 -50.5 -3t-50 2t-46 12t-40.5 26q-23 23 -35 44t-12 50zM92 866 q0 35 19.5 69t54.5 46q43 18 89 17t93 1h438q35 8 71 -4t67 -41q14 -14 21 -34.5t7 -42.5q0 -25 -7 -52.5t-19 -42.5q-16 -18 -43 -28.5t-51.5 -13.5t-42 -3h-19.5l-444 -2q-25 -2 -50.5 -3t-50 2t-46 12.5t-40.5 25.5q-23 23 -35 44.5t-12 49.5z" />
<glyph unicode="&#x3e;" horiz-adv-x="1110" d="M106 1243q0 39 18.5 67.5t47.5 44t62.5 16.5t62.5 -13q68 -37 124 -89t109 -106q86 -78 156 -156.5t127 -150.5q150 -199 150 -303q0 -137 -385 -561q-23 -27 -49.5 -57.5t-55.5 -60.5t-59.5 -53.5t-63.5 -37.5q-63 -25 -109 -6.5t-66.5 59.5t-10.5 95.5t59 103.5 q37 39 77 78t79 80q66 63 123 128.5t108 137.5q27 39 29 75.5t-12.5 69.5t-39 63.5t-48.5 59.5q-72 88 -149 168t-163 152q-35 35 -55 54t-29 32q-20 23 -28.5 51t-8.5 59z" />
<glyph unicode="?" horiz-adv-x="1155" d="M124 1007.5q1 55.5 19 108.5q23 70 74 123t117 84q70 33 142.5 46t143 5t137 -35.5t126.5 -78.5q63 -55 95 -128t35 -151t-18.5 -154.5t-64.5 -142.5l-2 -4q-35 -47 -80 -85t-84 -81q-45 -47 -53.5 -95t-16.5 -108q-6 -57 -29.5 -99t-86.5 -40q-43 2 -64.5 27.5t-31 61.5 t-7.5 76t6 71q12 72 45 136t80 122q27 31 53.5 56.5t49 54t39 61t22.5 75.5q6 39 -6 79t-37 72t-59.5 53.5t-75.5 23.5q-37 2 -78 -9.5t-76 -35t-56.5 -56t-19.5 -73.5q2 -25 9.5 -50.5t10.5 -49t-2 -46t-28 -43.5q-37 -35 -73.5 -34t-67.5 24t-52.5 58.5t-27.5 72.5 q-8 53 -7 108.5zM434 -123q0 63 43 107q43 47 98 47q57 0 101 -47q45 -46 45 -107q0 -59 -45 -106q-43 -45 -101 -45q-55 0 -98 45q-43 49 -43 106z" />
<glyph unicode="@" horiz-adv-x="1806" d="M119 621q8 82 28.5 167.5t57.5 164.5t91 146.5t128 114.5q86 57 184.5 93t202.5 47.5t213 -4t217 -64.5q121 -53 208 -134t139 -183.5t71.5 -223t7.5 -251.5q-14 -119 -70.5 -226.5t-162.5 -173.5q-18 -12 -45 -22.5t-58 -11.5t-65.5 8.5t-71.5 35.5q-23 16 -40 40 t-29.5 45.5t-19.5 37t-7 17.5q-4 -4 -21.5 -30t-44.5 -46q-16 -12 -42.5 -19.5t-55.5 -10.5t-57.5 -3t-49.5 4q-96 20 -155.5 68.5t-92 110t-38.5 133t6 143.5q16 94 69.5 162.5t123 101.5t145.5 23.5t139 -70.5q-2 6 -2 18.5t3 26.5t7 27.5t8 19.5q18 23 48 30t58 0 t49.5 -26.5t21.5 -50.5v-428q0 -25 4 -53.5t14 -44.5q20 -41 49 -45t54.5 11t47 42t29.5 45q14 37 20.5 83t5.5 93t-8.5 92t-17.5 84q-33 117 -103.5 199t-164.5 126t-203.5 47t-220.5 -36q-121 -43 -199 -123t-113.5 -181t-29.5 -217t53 -231q33 -84 88.5 -147t128 -106 t156.5 -66t172 -23q23 0 71 2.5t91 -5t68.5 -32t4.5 -77.5q-14 -37 -59 -56.5t-99.5 -27.5t-108.5 -9t-85 -1q-162 4 -309 65.5t-250 190.5q-100 123 -147 280.5t-37 313.5zM735 432q23 -57 69 -82.5t101 -15.5t88 61q6 16 14.5 30.5t12.5 35.5q14 70 -17.5 124t-81 76.5 t-100.5 4t-78 -94.5q-31 -82 -8 -139z" />
<glyph unicode="A" horiz-adv-x="1431" d="M82 -86q0 14 1 25.5t3 23.5q4 18 10 37l6 18l426 1049l13 33q4 12 10 22.5t10 24.5q10 27 23 47q6 12 14 22.5t16 20.5q12 16 35 27q29 10 67 10t66 -10q23 -10 35 -27q14 -18 31 -43q12 -20 22 -47q4 -14 10.5 -24.5t10.5 -22.5l12 -33l426 -1049l6 -18q7 -19 11 -37 q2 -12 3 -23.5t1 -25.5q0 -25 -15 -45q-6 -10 -16 -19.5t-25 -15.5q-39 -22 -81 -22q-13 0 -27 2q-29 8 -51 26q-4 4 -6.5 5t-4.5 5q-2 2 -4 5.5t-6 5.5q-10 10 -16 19t-13 20q-4 10 -9 19t-11 20q-4 8 -8 15t-6 15q-8 18 -11 33l-43 100q-141 0 -281 -1h-94q-94 0 -188 1 l-43 -100q-4 -8 -5 -16.5t-5 -16.5t-7 -15t-7 -15q-6 -10 -11.5 -19.5t-11.5 -19.5q-4 -10 -10 -19.5t-17 -19.5q-4 -2 -6 -5l-4 -6q-2 -4 -4 -5t-6 -5q-23 -18 -51 -26q-13 -2 -25 -2q-43 0 -84 22q-14 6 -24.5 15.5t-16.5 19.5q-14 20 -14 45zM535 375h362l-37 90 q-27 59 -54.5 122.5t-57.5 129.5q-8 18 -16.5 37.5t-16.5 38.5q-6 -18 -14.5 -38t-16.5 -38q-31 -66 -58.5 -129.5t-54.5 -122.5z" />
<glyph unicode="B" horiz-adv-x="1140" d="M82 -53v1163q0 57 23.5 89t62.5 47.5t88 18.5t102 3q41 0 83 1h28q28 0 57 -1q68 -2 140.5 -11.5t138.5 -33.5q31 -10 65 -29q35 -16 56 -41q66 -59 98 -138q28 -70 27 -142v-18q-4 -81 -44 -154.5t-118 -120.5q59 -39 101 -91.5t67 -128.5q28 -86 27 -172 q0 -82 -30 -154q-32 -72 -100.5 -126.5t-179.5 -77.5q-59 -14 -139 -22.5t-143 -8.5q-53 -1 -109 -1h-56q-85 1 -165 18q-35 10 -50.5 35.5t-21.5 58.5q-8 18 -8 37zM349 127q0 -32 22 -53q23 -23 65 -31q34 -6 74 -6h20q63 4 129 14t91 39q27 33 38 77q7 29 7 60 q1 15 -1 30q-6 46 -27.5 88t-55.5 67q-47 37 -108.5 48t-121.5 11q-29 0 -52 -1t-40.5 -6t-26 -19.5t-8.5 -43.5q2 -26 2 -52.5t-2 -53.5q-4 -53 -4 -102zM358 764q0 -41 27 -60.5t67 -23.5q20 -2 41 -2t43 2q44 4 76 10q74 12 114 50t46 112q1 11 1 22q1 75 -49 106 q-56 36 -153 40q-63 2 -105 3h-10q-36 0 -56 -6q-24 -7 -32 -31q-8 -19 -8 -55v-16q0 -39 -1 -76.5t-1 -74.5z" />
<glyph unicode="C" horiz-adv-x="1265" d="M85 466v27q0 80 5 152q6 76 30.5 158t68.5 160.5t106.5 146.5t146.5 115q62 37 142 50q52 8 104 8q28 0 56 -2q80 -7 153.5 -34.5t124.5 -75.5q33 -29 68.5 -80t51.5 -104q9 -27 9 -53q1 -24 -7 -46q-16 -46 -83 -63q-29 -8 -51.5 -3t-41 18.5t-34.5 32t-31 36.5 q-49 59 -115 81q-43 14 -85 14q-23 0 -45 -4q-64 -12 -120.5 -53.5t-86.5 -106.5q-33 -70 -52.5 -153t-21.5 -168v-17q-1 -76 15 -148q18 -80 61 -141q33 -49 81 -80t103 -43q33 -7 67 -8q22 0 44 4q56 8 110 37q16 8 35.5 23.5t40 32t42 30.5t46.5 20q17 6 36 6q22 0 44 -8 q44 -14 67 -59q14 -31 14 -61q1 -27 -11 -55q-24 -56 -78 -103t-122.5 -82t-129.5 -49q-66 -14 -137 -14h-5q-74 0 -149.5 18t-146 52t-130.5 83q-72 59 -111.5 142t-58 177.5t-19.5 189.5z" />
<glyph unicode="D" horiz-adv-x="1245" d="M82 -45v1169v26.5t4 25.5q4 29 12 47q8 25 23 34q12 10 24.5 15.5t22.5 9.5q12 4 25.5 1t29.5 5l342 -8q135 -4 241.5 -62.5t182.5 -148.5t119 -201.5t51 -220.5q2 -30 2 -61q0 -38 -3 -78q-5 -72 -15 -139q-20 -117 -75.5 -227.5t-162.5 -188.5q-111 -82 -252 -111.5 t-280 -36.5q-38 -3 -76 -3h-19q-48 1 -94 12q-37 6 -55 22q-10 6 -16.5 16.5t-10.5 20.5q-6 10 -9 21.5t-7 23.5q-2 10 -3 19.5t-1 17.5zM358 82q63 2 122 7t113 23.5t100 52.5t85 93q40 61 58 141q17 72 16 147v16q-2 83 -22.5 162t-57.5 140q-29 45 -74 74t-100 44 t-117.5 21.5t-122.5 6.5q2 -59 2 -114.5v-117.5q-2 -74 -2 -143.5v-134.5v-418z" />
<glyph unicode="E" horiz-adv-x="1124" d="M82 14q0 8 1 16.5t1 16.5v160l4 295v272q0 74 1 131.5t3 124.5v10q2 23 3 42.5t1 39.5q2 41 23 80q8 16 17 28.5t26 20.5q31 18 63 19q16 0 25 -2v2h59.5h44t46 1t67.5 1q82 2 155.5 2t151.5 -2h8q23 -2 47.5 -2t47.5 -2q23 0 45 -5.5t45 -13.5q35 -10 57 -35 q18 -29 18 -57v-23.5t-4 -21.5q-2 -20 -24 -43q-8 -4 -17.5 -10t-21.5 -10t-25.5 -5.5t-25.5 -3.5q-16 -4 -29.5 -4h-30.5h-92l-410 -2v-6l-4 -321h82q84 2 149.5 2t145.5 -2h10q25 0 48.5 -1t46.5 -1q25 -2 47 -7.5t45 -11.5q35 -12 57 -37q20 -27 21 -59v-23.5t-4 -23.5 q-4 -23 -27 -41q-10 -14 -39 -21q-27 -8 -53 -10q-29 -6 -58 -6h-96l-379 -2l-4 -402l408 -4h96h30.5t26.5 -2q16 -4 29.5 -5t26.5 -5q25 -8 41 -22q20 -20 26 -43q2 -10 3 -21.5t-1 -24.5q0 -33 -20 -59q-25 -29 -58 -37q-43 -18 -94 -18q-23 -2 -47 -2t-47 -2h-12 q-80 -2 -163 -2t-169 2q-41 0 -65.5 1t-44 1h-40h-53.5q-8 -1 -15 -1q-37 0 -63 17q-23 14 -34 39q-6 6 -7 12q-2 4 -4 6.5t-4 6.5q-4 10 -6 21t-2 22q-2 10 -3 20t-3 21v32z" />
<glyph unicode="F" horiz-adv-x="1114" d="M84 12v33l2 160l2 295q2 66 2 133v139q-1 49 -1 91v41q1 58 5 124v10q2 23 2 42.5t4 39.5q4 45 21 80q14 35 41 49q31 18 65 19q16 0 27 -2v2h59.5h43t45 1t65.5 1q82 1 163 1t161 -1h10q23 -2 46 -2t48 -2q23 0 45.5 -5.5t44.5 -13.5q35 -10 53 -35t23 -57 q0 -12 -1 -23.5t-3 -21.5q-2 -23 -27 -43q-14 -10 -37 -20q-12 -4 -25.5 -5.5t-29.5 -3.5q-12 -4 -26.5 -4h-28.5h-92l-429 -2v-6l-2 -334h36t48 2h146.5t142.5 -2h12q23 0 46.5 -1t48.5 -1q23 -2 45 -5t45 -11q37 -12 53 -39q23 -27 23 -55v-23.5t-5 -24.5q-2 -16 -26 -40 q-16 -14 -39 -19q-10 -4 -23.5 -7t-27.5 -5t-27.5 -3t-30.5 -1h-94l-377 -2l-6 -475v-17q0 -10 -1 -19.5t-3 -19.5q-4 -10 -7 -21.5t-7 -21.5q-14 -29 -27 -39q-23 -16 -55 -22q-18 -4 -36 -4q-36 0 -69 16q-10 6 -19 15.5t-15 23.5q-4 8 -5 12l-6 13q-6 10 -8 21l-4 22 q0 10 -1 20t-3 21q-1 8 -1 16t1 16z" />
<glyph unicode="G" horiz-adv-x="1247" d="M86 633q6 78 27.5 168t63.5 174t104.5 151.5t148.5 102.5q80 33 175 42q34 3 67 3q61 0 122 -10q93 -17 174 -60t128 -114q33 -53 51 -129q11 -46 11 -89q0 -29 -5 -57q-10 -61 -43 -85q-27 -19 -59 -19q-6 0 -13 1q-39 5 -74.5 32.5t-48.5 70.5q-14 47 -34.5 87 t-63.5 67q-49 31 -103 35q-11 1 -22 1q-43 0 -83 -13q-50 -17 -94 -52t-73 -80q-35 -51 -53 -111.5t-27 -124.5q-6 -48 -6 -96q0 -17 1 -34q3 -64 16 -123q23 -100 69 -189q18 -33 50 -58.5t71 -40.5t82 -19q12 -2 25 -2q29 0 57 8q55 14 90 37.5t55.5 56.5t27.5 71.5 t7 81.5v2q-27 0 -47 1.5t-31 1.5q-45 0 -88 16q-37 12 -55 39q-20 23 -20 55q0 12 1 23.5t3 23.5q6 16 26 41q12 10 39 17q12 4 24.5 7t28.5 5q12 2 26.5 2h29.5h186q23 2 52.5 -5t45.5 -22q6 -8 12.5 -16t10.5 -19q8 -23 10 -45q2 -12 3 -25t1 -24v-84q0 -61 -6 -123.5 t-24.5 -121t-55.5 -110.5t-100 -91q-31 -20 -73 -33.5t-88 -23t-91 -12.5q-27 -2 -52 -2q-16 0 -32 1q-184 6 -298 89t-174 206t-77 268q-12 91 -12 178q0 49 4 97z" />
<glyph unicode="H" horiz-adv-x="1247" d="M84 10v31l2 162l4 301q2 66 2 135.5v142.5q-1 49 -1 91v41q1 58 5 128v9q2 20 2 41.5t2 44.5q2 20 7.5 39.5t15.5 40.5q6 16 16.5 27t24.5 22q33 16 65 16q16 0 28.5 -1t25.5 -3q25 -2 47 -25q16 -14 22 -32q10 -27 13 -47q2 -14 2 -26.5v-25.5v-84l-5 -338h38t51 2 q106 0 211.5 -2t222.5 -2h2q0 92 1 176t5 177q0 20 1 41.5t3 44.5q2 20 7 39.5t16 40.5q4 16 15 27t28 22q29 16 63 16q16 0 29.5 -1t23.5 -3q29 -4 47 -25q16 -10 23 -32q4 -12 7 -23.5t7 -23.5q2 -14 2 -26.5v-25.5v-84l-12 -1063v-20q0 -12 -6 -37q-2 -10 -6 -21.5 t-8 -23.5q-10 -25 -29 -37q-16 -16 -53 -22q-20 -4 -39 -4q-35 0 -66 14q-27 16 -37 41q-4 4 -8 12q0 4 -4 12q-4 10 -6 21.5t-4 23.5q0 10 -1 20.5t-3 20.5q-4 10 -4 17.5v17.5q4 8 4 31l2 162l2 258h-111l-416 -2l-4 -484v-20q0 -12 -6 -37q-2 -10 -6 -21.5t-8 -23.5 q-10 -25 -29 -37q-16 -16 -53 -22q-20 -4 -39 -4q-35 0 -65 14q-20 12 -39 41q-4 8 -5 12l-6 12q-4 10 -6 21.5t-4 23.5q0 10 -2 20.5t-4 20.5q-1 8 -1 16.5t1 18.5z" />
<glyph unicode="I" horiz-adv-x="573" d="M145 10v31l2 162l3 301q2 66 2 135.5v142.5v131.5t4 128.5v9q2 20 3 41.5t1 44.5q2 37 22 80q14 29 43 49q33 16 64 16q16 0 29.5 -1t25.5 -3q27 -4 47 -25q12 -10 23 -32q4 -12 7 -23.5t5 -23.5q2 -14 3 -26.5t1 -25.5q0 -14 -1 -25.5t-1 -23.5v-35l-12 -1063v-20 q0 -6 -1 -15.5t-3 -21.5q-4 -10 -7.5 -21.5t-7.5 -23.5q-6 -10 -13 -19.5t-17 -17.5q-16 -16 -54 -22q-19 -4 -38 -4q-34 0 -66 14q-25 16 -35 41q-6 6 -6 12q-2 4 -4 6t-4 6q-4 10 -6 21.5t-2 23.5q-2 10 -3.5 20.5t-3.5 20.5q-1 8 -1 17t1 18z" />
<glyph unicode="J" horiz-adv-x="1277" d="M26 48q-3 16 -3 32q0 23 7 46q13 38 58 62q25 15 47 15q12 0 23 -5q32 -12 62 -38.5t61.5 -55t70.5 -36.5q43 -10 78 -10q33 0 60 9q53 19 83.5 62t44 104.5t16.5 124.5q2 39 2 75q0 25 -1 49q-1 29 -1 54.5t1 45.5q1 54 1 107.5t-1 105.5q-2 104 -2 213v8q2 4 2 12h-6 q-12 2 -51 3t-84 1t-85 1t-53 1h-28v2q-16 2 -32.5 6.5t-33.5 8.5q-39 12 -59 39q-10 10 -15.5 32.5t-5.5 38.5v22.5t4 22.5q4 23 29 41q16 12 39 19q14 4 28.5 6t30.5 4q14 2 28.5 2h31.5h196h28.5t37.5 2h157.5t151.5 -2h12q23 0 44.5 -1t43.5 -1q47 -2 89 -19 q33 -7 53 -34t20 -54q1 -8 1 -19v-12q-1 -18 -3 -28q-6 -20 -28 -41q-6 -6 -14.5 -11t-20.5 -9t-24.5 -5.5t-26.5 -3.5t-26.5 -3t-27.5 -1h-116v-35v-67q0 -150 7 -301q4 -79 4 -158q0 -105 -7 -211q-6 -61 -18.5 -125.5t-40 -121t-72.5 -103.5t-115 -74q-66 -25 -144 -35 q-41 -5 -84 -5q-36 0 -72 4q-79 8 -150.5 34.5t-121.5 73.5q-27 25 -49 60.5t-31 75.5z" />
<glyph unicode="K" horiz-adv-x="1165" d="M82 911.5q0 57.5 2 128.5v9q4 23 4 44t2 42q0 41 19 82q12 31 43 49q16 10 31.5 13t33.5 7q14 0 27.5 -2t25.5 -4q27 -4 49 -23q6 -6 11.5 -14t9.5 -20q10 -16 14 -47q2 -12 3 -24.5t1 -27.5v-84l2 -249q33 29 65 59.5t62 64.5q55 57 109.5 111.5t110.5 108.5l6 6 q16 16 33.5 31.5t33.5 29.5q31 35 76 49q25 15 57 15h11q18 -2 33.5 -8.5t29.5 -16.5q10 -10 20.5 -17t16.5 -18q16 -14 20 -43q0 -23 -8 -41l-12 -20t-14 -21q-10 -12 -18.5 -22t-18.5 -21q-8 -10 -17.5 -18t-17.5 -19l-27 -26l-383 -391l65 -65t64.5 -65.5t57 -59 t45.5 -46.5q55 -57 106.5 -113.5t100.5 -113.5l6 -6q16 -16 30.5 -34t26.5 -34q31 -35 43 -76q9 -17 9 -33q0 -14 -7 -28q-10 -33 -35 -49q-12 -10 -22 -17.5t-23 -11.5q-23 -12 -53 -8q-12 0 -22.5 4t-20.5 10t-21.5 13.5t-21.5 15.5q-12 10 -22.5 18.5t-18.5 18.5 q-10 10 -18.5 20t-16.5 19l-24 26l-394 412l7 -412v-18q0 -8 -2 -17.5t-5 -19.5q-6 -27 -14 -47q-4 -12 -11 -20.5t-15 -16.5q-23 -20 -54 -23q-24 -8 -44 -8q-6 0 -12 1q-26 3 -52 16q-20 12 -37 41q-4 8 -6 10q0 2 -4 14q-12 20 -13 41q-2 12 -3 22.5t-3 22.5 q-2 8 -2 16.5v16.5q2 10 2 17.5v17.5l-2 162l-2 301q0 131 -6 282q-2 74 -2 131.5z" />
<glyph unicode="L" horiz-adv-x="1114" d="M82 66q2 68 2 133l4 297v274q0 74 1 131t3 127v10q2 20 3 41t1 41q4 47 23 80q12 31 43 49q27 18 63 19q14 0 27.5 -1t26.5 -3q12 -2 23 -8.5t24 -16.5q12 -14 22 -35q8 -23 10 -45q2 -14 4.5 -26.5t2.5 -24.5q-4 -12 -4.5 -24.5t-0.5 -22.5v-37l-8 -965l406 -4h96 q12 0 26.5 -1t28.5 -3q16 -2 28.5 -4t25.5 -6q23 -6 36 -21q23 -20 29 -40q4 -10 4 -30v-32q0 -16 -6 -30.5t-16 -26.5q-18 -25 -54 -37q-49 -16 -92 -17q-23 -2 -47 -2t-49 -4h-8q-79 -1 -160.5 -1t-165.5 1q-16 1 -34 1q-27 0 -58 -2q-19 -1 -38 -1q-31 0 -62 3 q-49 5 -89 24.5t-57 62.5q-4 10 -6 19.5t-2 19.5q-6 56 -6 110v28z" />
<glyph unicode="M" horiz-adv-x="1413" d="M82 37l2 160l2 315v274q0 178 12 351q0 23 5.5 42t13.5 38q16 33 43 49q31 18 65 18q14 0 27.5 -1t26.5 -3q41 -8 70.5 -48t56.5 -69q16 -18 34.5 -44.5t37 -55.5t34.5 -55.5t29 -46.5q53 -86 95 -158t79 -123q6 6 14 17.5t17.5 24.5t16.5 25.5t11 20.5q20 33 41 64.5 t44.5 67.5t49 79t60.5 98q14 25 36.5 59.5t51 67.5t60.5 56.5t65 23.5q16 0 28.5 -1t24.5 -3q25 -2 47 -23q16 -16 25 -34q8 -27 10 -45q2 -14 3 -26.5t1 -25.5q0 -115 2 -227.5t2 -226.5q0 -139 1 -286.5t1 -287.5q0 -30 2 -62q1 -16 1 -32t-1 -33q-2 -25 -6 -51t-14 -49 q-10 -25 -27 -37q-23 -20 -53 -22q-29 -10 -55.5 -6t-49.5 14q-29 18 -42 43.5t-19 54.5t-6 59.5v57.5v160l-2 313v51.5v33.5t-1 34.5t-1 56.5q0 6 1 22v8q0 21 -3 74q-80 -133 -132.5 -213.5t-88 -124.5t-62.5 -59.5t-55 -17.5q-16 -2 -32.5 6t-32 20.5t-29 25.5t-21.5 26 q-49 61 -110.5 147t-127.5 209q0 -2 -1 -67.5t-1 -163t-1 -209t-2 -208t-3 -161t-4 -64.5q0 -35 -16.5 -64.5t-44 -48t-64.5 -20.5h-6q-34 0 -74 21q-27 16 -40 47t-17 57q-2 29 -3 55.5t-1 55.5z" />
<glyph unicode="N" horiz-adv-x="1280" d="M84 4v35l4 160l2 297q2 66 2 134v140q-1 35 -1 72q0 54 2 114q3 98 7 185q4 47 23 80q8 29 43 49q23 14 58.5 18t62.5 -2q10 -4 20 -9t21 -11q10 -8 19 -16.5t18 -18.5q10 -10 18 -21.5t16 -21.5q6 -12 12.5 -22.5t14.5 -20.5l23 -33l473 -745v135q0 66 -1 134.5 t-3 141.5q0 86 1 184.5t5 184.5q0 35 20 80q10 27 35 43t55 22q15 3 31 3l31 -3q30 -6 53 -24q6 -6 12 -14.5t10 -18.5q10 -27 13 -47q6 -29 6 -51q0 -256 1 -522.5t3 -522.5q0 -29 2 -56q1 -14 1 -28t-1 -28q-2 -35 -9 -74t-40 -64q-25 -20 -55.5 -24t-60.5 3t-56.5 22.5 t-42.5 37.5q-70 86 -128.5 177.5t-117.5 183.5l-172 260q-35 55 -74 123.5t-80 128.5l-6 -783v-18q0 -33 -11 -64.5t-38 -54.5q-20 -16 -53 -22q-20 -4 -37 -4q-27 0 -48 10q-34 16 -53.5 44.5t-26.5 66.5q-4 24 -4 48q0 14 1 27z" />
<glyph unicode="O" horiz-adv-x="1296" d="M86 483q-3 45 -3 88t3 84q6 76 29.5 162t68.5 166t109.5 144.5t150.5 97.5q123 46 225 46q12 0 24 -1q112 -6 200 -56.5t150.5 -134.5t101.5 -188q31 -78 47 -164t19 -171q1 -21 1 -42q0 -63 -7 -125q-9 -82 -29 -151q-12 -47 -29 -86t-39 -78q-51 -88 -132 -143.5 t-177 -77.5q-64 -16 -131 -16q-2 1 -4 1q-70 0 -137.5 17.5t-130 51.5t-113.5 85q-63 61 -104.5 142t-64 170t-28.5 179zM350 510q2 -58 13.5 -117t32 -111.5t55.5 -93.5q53 -60 123 -84q42 -14 84 -15q28 0 57 7q113 25 172 150q25 45 37 102q21 81 21 181q-1 18 -1 36 q-4 121 -39 228q-23 66 -56.5 115.5t-79.5 76.5t-107.5 27t-137.5 -37q-45 -23 -76.5 -62t-51 -88t-31 -102t-13.5 -102q-3 -35 -3 -73q0 -18 1 -38z" />
<glyph unicode="P" horiz-adv-x="1198" d="M82 -23v1133q0 14 2 26.5t4 24.5q4 10 6 22.5t6 22.5t9.5 18.5t13.5 14.5q10 10 31.5 18.5t64.5 8.5h4q63 4 141 7q26 1 49 1q46 0 81 -4q29 -4 53 -5t47 -3q25 -2 49.5 -4.5t48.5 -6.5q20 -4 38 -6t36 -6q16 -4 35.5 -8t36.5 -14q43 -12 71 -31q29 -18 60 -41 q79 -71 115 -171q30 -82 29 -163q0 -18 -1 -35q-8 -94 -59.5 -173t-155.5 -120q-82 -35 -162 -49t-176 -22q-43 -4 -72.5 -5t-68.5 -4h-27.5t-28.5 -2v-424q-6 -39 -15 -79.5t-48 -63.5q-23 -12 -55 -14q-11 -1 -22 -1q-20 0 -38 3q-29 4 -48 15t-32 40q-8 18 -15 42t-7 58z M362 629l127 2q49 0 108.5 6t113 24.5t91.5 53.5t44 92v8q0 44 -20 78q-22 37 -60.5 61.5t-87.5 39t-98 20.5q-12 0 -34 1t-46.5 2t-46 2t-33.5 1q-10 2 -24.5 2h-33.5q2 -63 2.5 -121.5t0.5 -126.5q-2 -37 -2.5 -73.5t-0.5 -71.5z" />
<glyph unicode="Q" horiz-adv-x="1325" d="M86 473q-3 46 -3 89.5t3 84.5q6 78 24.5 169t56.5 175t96.5 149.5t142.5 90.5q124 39 225 39q64 0 119 -16q141 -40 231 -142q72 -82 114 -192.5t57 -231.5q10 -79 10 -158q0 -42 -3 -84q-8 -122 -37 -227l-37 -98q31 -29 58.5 -52.5t36.5 -33.5q14 -14 27.5 -30 t23.5 -36q8 -14 10 -29q1 -8 1 -15.5t-1 -14.5q-2 -29 -22 -51q-14 -16 -35 -31q-16 -10 -45 -10q-23 0 -41 8q-25 10 -43 27q-23 12 -43 30l-58 49q-35 -33 -76.5 -55t-86.5 -37q-66 -20 -135 -23h-21q-58 0 -115 13q-67 16 -129.5 51t-114.5 90q-61 63 -100 146.5 t-61.5 173.5t-28.5 182zM336 614q-1 -21 -1 -43q0 -33 2 -69q3 -58 14 -116t31.5 -110.5t53.5 -93.5q61 -80 148 -95q22 -4 44 -4q63 0 120 34q-29 29 -53.5 51t-30.5 31q-31 31 -48 73q-16 33 -10 62q6 33 27 55q10 8 18 15.5t19 13.5q10 6 23.5 8t27.5 2q20 0 41 -14 q18 -10 43 -27q10 -10 21.5 -19.5t21.5 -19.5q8 -8 16 -15t19 -16q14 68 21 144q4 41 4 82q0 35 -3 71q-6 76 -28.5 151t-63.5 140q-49 78 -125 105q-26 10 -56 10q-57 0 -128 -35q-43 -23 -73 -64.5t-50.5 -94t-31.5 -107.5t-13 -105z" />
<glyph unicode="R" horiz-adv-x="1222" d="M82 -49v1163q0 12 1 25.5t3 23.5q2 23 14 45q6 25 21 35q11 11 37 21q21 8 59 8h16q92 -2 182.5 -2t180.5 -4q59 -4 125.5 -13.5t124.5 -31.5q37 -14 67 -29q39 -23 62 -43q72 -66 108.5 -158t36.5 -186q0 -111 -52 -203t-167 -137q-4 -4 -11 -5t-11 -3l188 -379l18 -33 q4 -8 10.5 -18.5t10.5 -20.5q6 -10 11 -22.5t11 -22.5q7 -29 11 -47q1 -5 1 -10q0 -15 -5 -29q-4 -12 -11.5 -20.5t-17.5 -16.5q-18 -12 -45 -22q-15 -4 -31 -8q-6 -1 -14 -1q-9 0 -19 3q-33 2 -57 24q-35 29 -57 64q-10 16 -22.5 36.5t-22.5 42.5l-228 433q-16 0 -32.5 -1 t-32.5 -3q-29 -3 -55 -3q-13 0 -26 1q-15 1 -31 1q-24 0 -48 -2h-39v-370q0 -16 -1 -30.5t-1 -31.5q0 -10 -1 -26.5t-3 -30.5q-4 -23 -18.5 -46.5t-38.5 -39.5q-29 -18 -67 -18q-18 0 -38 4q-27 6 -51 20q-8 6 -14.5 15.5t-10.5 19.5t-7 21.5t-7 21.5q-6 20 -6 39zM346 643 h281q37 0 70.5 13.5t61 36t46 52t20.5 64.5q1 12 1 23q0 86 -54 130q-61 50 -162 54q-59 4 -129.5 4h-134.5q1 -56 1 -113v-58q-1 -87 -1 -206z" />
<glyph unicode="S" horiz-adv-x="1245" d="M83 148q-1 8 -1 16q0 22 6 42q8 28 26.5 49t51.5 30q20 4 46 4t50.5 -7.5t45 -22.5t32.5 -42q23 -43 64.5 -79t89.5 -58q57 -19 114 -19l22 1q68 4 124.5 30.5t91.5 72.5t35 105q0 49 -14.5 81t-40 53.5t-61.5 36t-79 24.5q-49 10 -99 14t-101.5 10.5t-100.5 16.5t-96 31 q-94 39 -143 119q-50 80 -59 172q-2 21 -2 42q-1 71 23 141q30 91 99 156q66 59 157 85t201 30h31q46 0 93 -4q63 -6 121 -20.5t108.5 -37t87.5 -53.5q27 -20 53 -54q27 -33 41 -71q11 -28 10 -55q0 -9 -1 -18q-5 -35 -44 -60q-29 -17 -55 -17h-8q-30 3 -56 18.5t-51 36 t-45 36.5q-55 41 -137 55q-51 9 -97 9q-29 0 -57 -3q-45 -6 -84 -20t-67 -38q-26 -25 -42 -61q-12 -29 -13 -63q0 -9 1 -18q2 -33 19.5 -55.5t43 -37t56.5 -22.5t62 -12q92 -12 184 -18.5t180 -41.5q90 -35 153.5 -94t90.5 -143q10 -29 15 -65t5 -72.5t-5 -72.5t-13 -63 q-33 -115 -131 -191q-98 -78 -224 -112q-97 -27 -201 -26q-29 0 -59 2q-134 10 -239 67q-66 37 -113 90.5t-80 118.5q-12 22 -15 52z" />
<glyph unicode="T" horiz-adv-x="1316" d="M82 1166q0 12 4 22q6 25 33 41q8 6 25.5 15t33.5 13q25 8 62 13q16 2 32.5 2h34.5h136.5t136.5 2q79 1 158 1h78q118 -1 235 -5q27 -2 51 -6t49 -15q18 -6 34.5 -15.5t26.5 -23.5q23 -27 23 -55q0 -12 -1 -25.5t-3 -23.5q-6 -23 -27 -43q-16 -12 -45 -19q-14 -4 -28.5 -6 t-30.5 -6q-14 -2 -28.5 -2h-31.5h-104q-37 -2 -73 -2h-70q2 -63 2 -136t-1 -169t-2 -223t-1 -295v-156q0 -20 2 -31v-15t-2 -17q-4 -18 -7 -43q0 -10 -2 -19.5t-6 -19.5q-8 -8 -8 -13l-6 -12q-10 -20 -39 -39q-29 -15 -62 -15q-19 0 -38 5q-35 4 -54 18q-18 18 -26 37 q-12 23 -15 43q-6 18 -6 39v1053h-51t-83 1t-83 3t-53 4q-12 2 -38 6t-42 8q-43 12 -68 39q-22 26 -22 57v28z" />
<glyph unicode="U" horiz-adv-x="1298" d="M82 777.5v121.5t2 100v59t3 63.5t11 61t25 54.5q18 27 51 39t69 12t68.5 -14t53.5 -41q10 -16 14 -32.5t6 -37.5q4 -67 5 -153v-84.5v-82.5q-1 -81 -3 -148.5t-2 -100.5q0 -123 12.5 -222.5t57.5 -164.5q41 -59 96 -75q40 -12 81 -12q15 0 30 1q51 6 103 37.5t83 93.5 q12 23 20.5 51.5t12.5 52.5q8 78 14 181.5t10 212t4 213t-2 188.5q4 37 23 68q16 27 47 47t84 20q43 -2 69.5 -21.5t43.5 -41.5q18 -27 26 -62q12 -98 14 -228q1 -41 1 -81q1 -90 -3 -181q-6 -132 -20 -250t-35 -190q-14 -43 -33.5 -89t-42.5 -83q-33 -55 -80 -97 t-103 -71.5t-118.5 -46t-124.5 -18.5h-22q-97 0 -184 32q-97 36 -179 113q-61 59 -98 127t-57.5 142.5t-25.5 154.5t-5 164q0 39 -1 97.5t-1 121z" />
<glyph unicode="V" horiz-adv-x="1380" d="M85 1092q-1 12 -1 25q0 44 14 82q18 48 78 67q12 4 25.5 7t25.5 5q14 0 26.5 -2t27.5 -10q10 -4 20 -9.5t18 -13.5q8 -10 15.5 -20.5t15.5 -20.5q6 -14 11.5 -25.5t9.5 -21.5q4 -14 10 -25.5t10 -21.5l12 -35l295 -842l291 840l15 35q4 10 8 21.5t8 25.5q4 10 9 21.5 t13 23.5q6 10 13.5 21.5t15.5 21.5q6 8 15.5 14.5t17.5 10.5q16 8 29.5 10t23.5 2q12 -2 25.5 -5t25.5 -7q39 -10 58.5 -34.5t25.5 -55.5q6 -28 6 -56q0 -20 -3 -40q-7 -48 -19 -87q-25 -80 -57.5 -178t-65.5 -196.5t-63.5 -185.5t-51.5 -144q-20 -53 -42.5 -121 t-54.5 -132.5t-74 -117.5t-101 -78q-38 -16 -73 -16q-19 0 -35 4q-50 14 -89 50t-70.5 90.5t-56 111.5t-45 111.5t-37.5 93.5q-63 139 -114 294.5t-105 297.5q-14 41 -32.5 99t-23.5 116z" />
<glyph unicode="W" horiz-adv-x="1632" d="M83 1152v8q0 16 3 32q4 31 29 53q10 10 24.5 16.5t30.5 10.5q25 8 51 8q25 0 51 -16q18 -10 29 -27l25 -43q4 -14 8 -25.5t8 -23.5q4 -14 6 -25.5t4 -21.5q18 -106 45 -206.5t49 -193.5q8 -37 20.5 -91t25 -112.5t24.5 -111.5t25 -84q27 92 54.5 184t59.5 187 q16 49 34 89t40.5 66.5t50.5 34.5q10 3 23 3q21 0 45 -9q35 -14 61.5 -61.5t46.5 -96.5q18 -45 36 -95t35 -98t33.5 -91t33.5 -74q6 23 14 57.5t17.5 74.5t17.5 79t16 72q27 111 55.5 222t55.5 220l10 35q4 10 5 21t5 26q4 12 8.5 23.5t8.5 25.5q4 10 9 21.5t13 21.5 q6 10 14.5 16.5t16.5 10.5q29 16 49 16q27 0 51 -8q33 -6 60 -27q20 -20 24 -53q4 -20 4 -40t-4 -42q-4 -20 -7 -39.5t-7 -40.5l-2 -8q-29 -127 -65 -267.5t-64 -265.5q-25 -102 -51.5 -225t-55.5 -225q-10 -35 -21 -70t-28 -69q-14 -31 -33.5 -54.5t-43.5 -35.5 q-19 -9 -42 -9q-6 0 -11 1q-28 3 -60 26q-49 35 -73 96.5t-48 112.5q-8 14 -24.5 63.5t-35 107.5t-36 112.5t-29.5 80.5q-18 -45 -36.5 -102t-35 -112.5t-30 -99.5t-19.5 -64q-16 -41 -35.5 -90.5t-47.5 -84.5q-29 -34 -67 -46q-10 -3 -19 -2q-32 0 -73 26q-41 25 -57 70 q-10 29 -20.5 55t-16.5 55l-41 154l-84 329q-16 63 -31.5 130t-35.5 139q-10 35 -17.5 68.5t-14.5 73.5t-16.5 91t-21.5 119q-4 23 -5 42z" />
<glyph unicode="X" horiz-adv-x="1288" d="M82 -58q2 28 13 56.5t26.5 55t32.5 50.5q8 10 15 18.5t15 18.5q27 35 51.5 71t53.5 77l190 276l-280 406l-25 35q-8 12 -16 22t-17 25q-8 10 -16 22t-14 29q-6 12 -11.5 23.5t-9.5 27.5q-6 25 -4 45q6 27 27 45q8 10 19 16.5t22 12.5q20 8 36.5 12t34.5 4q37 -2 70 -26 q41 -27 74 -66q14 -23 28.5 -42t30.5 -40l2 -8q51 -68 93 -130.5t93 -131.5q8 -10 14.5 -20.5t14.5 -20.5q8 10 14.5 20.5t14.5 20.5q47 70 91 132t93 130l4 8q16 20 31.5 40t30.5 42q33 39 73 66q31 25 70 26q33 0 70 -16q25 -14 37 -29q25 -18 30 -45q2 -20 -4 -45 q-4 -16 -9 -27.5t-15 -23.5q-12 -31 -27 -51q-8 -14 -16.5 -24.5t-14.5 -22.5l-24 -35l-283 -406l190 -276l111 -156q18 -31 37 -59.5t37 -61.5q20 -36 20 -63v-9q-4 -30 -8 -51q-6 -23 -29.5 -38t-52.5 -23q-23 -6 -41 -6q-11 0 -20 2q-31 6 -51 20q-12 10 -22.5 19.5 t-20.5 17.5l-18.5 18.5t-12.5 16.5t-7 11l-5 5l-273 394l-270 -394l-5 -5t-10 -11q-4 -8 -11 -16.5t-15 -18.5q-10 -8 -22.5 -17t-22.5 -20q-12 -8 -25.5 -12t-25.5 -8q-10 -2 -21 -2q-18 0 -37 6q-63 14 -88 61q-10 21 -10 45v8z" />
<glyph unicode="Y" horiz-adv-x="1267" d="M84 1188q6 27 25 45q20 18 43 29q24 17 53 17q6 0 12 -1q23 0 39 -8t33 -19q18 -14 35.5 -30.5t31.5 -34.5q16 -20 30.5 -38t29.5 -40l6 -8q49 -66 92 -126.5t90 -129.5q4 -4 12.5 -16.5t18.5 -28.5q8 14 15 25.5t12 15.5q47 70 90 131t92 127l4 8q16 18 29.5 37.5 t29.5 40.5q27 37 72 63q33 23 68 29q7 1 13 1q31 0 54 -17q12 -8 23.5 -14.5t19.5 -14.5q17 -18 27 -45q1 -7 1 -14v-6q-1 -11 -7 -23q-8 -29 -19 -51q-12 -29 -31 -50q-8 -12 -15 -23t-13 -22l-27 -34l-262 -379l-47 -60v-544q-4 -10 -4 -20.5t-2 -22.5q-4 -10 -6 -19.5 t-7 -19.5q-4 -8 -4 -13l-3 -6l-3 -6q-12 -20 -35 -37q-29 -15 -62 -15q-19 0 -40 5q-33 4 -49 20q-10 6 -16.5 14.5t-12.5 18.5q-4 12 -8 22.5t-6 20.5q-4 10 -4 19.5v17.5v559l-45 70l-267 377l-22 36q-12 18 -31 43q-16 23 -28 50q-8 12 -13.5 25.5t-9.5 27.5q-4 12 -4 24 q0 9 2 17z" />
<glyph unicode="Z" horiz-adv-x="1247" d="M82 -41q0 12 4 23.5t8 23.5q4 6 7 13.5t10 13.5q4 10 11 20t11 21q4 8 9 17t10 15q8 8 13 15.5t9 15.5l107 150l190 276q45 59 89 124t91 134q35 53 63.5 93t61.5 87h-134t-123.5 1.5t-128 2.5t-146.5 3q-29 2 -67 9t-62 30q-23 20 -27 43q-6 20 -6 49q0 33 18 57 q20 27 52 39q43 16 84 16q23 2 45 2t43 4h10q39 1 105 1h72q118 -1 296 -1q23 -1 47 1q8 0 17 1q16 0 30 -2q31 -3 65 -3q16 0 34 1h9q48 0 87 -22q12 -6 22 -14.5t23 -14.5q24 -22 24 -50q0 -30 -15 -66q-13 -32 -34 -63.5t-35 -51.5q-29 -43 -59.5 -84t-58.5 -82 q-129 -184 -257 -366.5t-255 -368.5h47h27.5h25.5t43 -1t79 -1h134h105.5t105.5 -4q10 -2 22.5 -3.5t22.5 -5.5l12 -6l12 -4q25 -14 41 -33q21 -29 21 -63q0 -14 -4 -29q-2 -14 -9.5 -25.5t-15.5 -19.5q-16 -16 -39 -22q-23 -12 -47 -15q-10 -2 -19 -3t-20 -1h-743h-24.5 t-24.5 2q-6 2 -11.5 2t-9.5 2q-8 2 -15 3t-17 3q-23 12 -35 23q-25 18 -27 39v2q-4 10 -5 18.5t1 20.5q0 2 -1 3t-1 5z" />
<glyph unicode="[" horiz-adv-x="968" d="M289 16v1108q0 63 18.5 115.5t51 89.5t77.5 57.5t96 20.5h177q35 0 71.5 -7t65.5 -30t28 -63q0 -20 -7 -43t-19 -33q-16 -16 -39 -23.5t-43.5 -10.5t-34.5 -3h-16h-92q-31 0 -48.5 -10t-25.5 -28.5t-9 -43.5t-1 -51l-2 -1020q-2 -141 79 -141h89q35 0 70.5 -7.5 t64.5 -29.5q29 -23 28 -64q0 -20 -7 -42.5t-19 -32.5q-16 -16 -48 -23.5t-64 -10.5t-56.5 -3h-26.5l-141 12q-49 0 -90 24.5t-69 67.5t-43 101.5t-15 123.5z" />
<glyph unicode="\" horiz-adv-x="2025" d="M57 723q0 35 19.5 68.5t52.5 48.5q41 16 86 15t92 1h10q-10 47 -19 105.5t-26 148.5q-4 23 -5 42t3 40q4 31 29 53q10 10 24.5 16.5t30.5 10.5q25 8 52 8q25 0 51 -16q18 -10 28 -27l25 -43q4 -14 8 -25.5t8 -23.5q4 -14 6.5 -25.5t4.5 -21.5q10 -63 23 -123t30 -119h295 q12 39 24.5 72t27.5 52t37.5 24.5t57.5 -7.5q31 -12 51.5 -54t38.5 -87h279q14 53 27.5 104.5t25.5 102.5l10 35q4 10 5 21t6 26q4 12 8 23.5t8 25.5q4 10 9 21.5t13 21.5q6 10 14.5 16.5t16.5 10.5q29 16 49 16q27 0 52 -8q33 -6 59 -27q21 -20 25 -53q8 -39 0 -82 q-4 -20 -7.5 -39.5t-7.5 -40.5l-2 -8q-10 -41 -19.5 -83t-19.5 -83h137q37 0 71 -8t63 -37q14 -12 21 -33.5t7 -44.5q0 -25 -7 -52.5t-19 -39.5q-16 -18 -41 -28.5t-49.5 -13.5t-42 -3h-19.5h-186q-6 -29 -12.5 -55.5t-12.5 -51.5q-25 -102 -51.5 -225t-54.5 -225 q-10 -35 -21.5 -70t-28.5 -69q-14 -31 -33.5 -54.5t-44 -35t-52 -8.5t-60.5 26q-49 35 -72.5 96.5t-48.5 112.5q-8 14 -24.5 63.5t-35 107.5t-35.5 112.5t-30 80.5q-18 -45 -36.5 -102t-35 -112.5t-29.5 -99.5t-20 -64q-16 -41 -35.5 -90.5t-47 -84t-66.5 -46t-92 23.5 q-41 25 -58 70q-10 29 -20 55t-16 55l-41 154l-84 329q-12 49 -25 105h-100q-47 -4 -96.5 -1t-84.5 38q-47 41 -47 92zM653 594q8 -39 17.5 -82t18.5 -83t18.5 -73.5t17.5 -56.5q14 51 35.5 131t44.5 164h-152zM1200 594q23 -80 42.5 -151.5t35.5 -104.5q6 20 13 51 t14.5 65.5t15.5 71.5t16 68h-137z" />
<glyph unicode="]" horiz-adv-x="968" d="M143 1307q0 41 29 63q29 23 65.5 30t71.5 7h176q51 0 96.5 -20.5t78 -57.5t51 -89t18.5 -116v-1108q0 -66 -15.5 -124t-43 -101t-68.5 -67.5t-90 -24.5l-141 -12h-27t-56.5 3t-63 10t-48.5 24q-12 10 -19 32.5t-7 42.5q0 41 28 64q29 23 65 30t70 7h88q82 0 80 141 l-2 1020q0 27 -1 51.5t-9 43t-25.5 28.5t-48.5 10h-92h-16.5t-35 3t-43 10t-38.5 24q-12 10 -19.5 32.5t-7.5 43.5z" />
<glyph unicode="^" horiz-adv-x="960" d="M53 889q0 20 11.5 39.5t21.5 36.5q16 23 35.5 50t36.5 48q39 51 80 95t81 91q31 37 52.5 61.5t48.5 53.5q16 16 44 23.5t52 -3.5q31 -16 54.5 -43.5t43.5 -56.5q51 -78 104.5 -163t104.5 -163q37 -55 26 -88.5t-85 -33.5h-57.5t-51.5 20q-29 23 -46 57.5t-38 63.5 q-20 29 -38.5 59.5t-34.5 59.5q-14 18 -33 10t-36 -28.5t-32.5 -43t-25.5 -33.5q-14 -20 -28.5 -39.5t-29.5 -41.5q-4 -4 -8 -10.5t-12 -12.5q-8 -12 -19.5 -29.5t-27.5 -25.5q-14 -10 -37 -8t-39 2q-23 0 -40 -1t-38 7q-16 8 -29.5 16t-9.5 31z" />
<glyph unicode="_" horiz-adv-x="1085" d="M119 -276q0 29 19.5 56t51.5 38q43 14 88.5 13t92.5 1h469q35 6 70.5 -4t64.5 -33t29 -63q0 -20 -7.5 -43t-19.5 -33q-16 -16 -42 -23.5t-50.5 -10.5t-42 -3h-19.5l-475 -2q-47 -2 -97 0t-85 31q-47 35 -47 76z" />
<glyph unicode="`" horiz-adv-x="722" d="M173.5 1507q21.5 49 121.5 56q41 4 66.5 -28t46.5 -69q25 -45 34 -63.5t12 -22.5t1 -2t1 -3t12 -22.5t34 -62.5q18 -35 34.5 -71.5t-6.5 -77.5q-23 -37 -64.5 -58.5t-82.5 -9.5t-58.5 49t-35.5 72l-92 176q-45 88 -23.5 137z" />
<glyph unicode="a" horiz-adv-x="1177" d="M82 229v14q0 79 20 156q29 111 86.5 180.5t133.5 106.5q60 31 128 44q44 8 88 8q22 0 46 -2q66 -7 128 -34.5t115 -78.5q53 -53 82 -117t41 -141q8 -53 26.5 -98.5t40 -90.5t41 -90t32.5 -94q4 -17 4 -34q0 -29 -12 -57q-18 -44 -70 -55q-31 -6 -58.5 5.5t-50 33t-40 47 t-32.5 48.5q-47 -61 -102 -95.5t-133 -44.5q-44 -5 -85 -5q-20 0 -40 1q-59 4 -127 23q-88 23 -144.5 79t-86 130.5t-31.5 160.5zM308 297q-1 -10 0 -19q0 -33 8 -67q10 -43 32 -76q20 -29 69.5 -48t102.5 -24h12q54 0 96 33q46 38 70 94q22 52 21 110v10q-2 64 -35 118 q-25 39 -64.5 57.5t-85.5 19.5h-5q-43 -1 -83 -15q-44 -16 -73 -44q-29 -29 -45.5 -67.5t-19.5 -81.5z" />
<glyph unicode="b" horiz-adv-x="974" d="M84 952.5v68.5t2 97q4 74 46 119q29 31 75 31q21 0 45 -6q37 -10 54.5 -31t24.5 -48.5t7 -59v-62.5v-283q-2 -16 -1 -31.5t1 -27.5v-27h51h44.5t37.5 2q113 0 193.5 -32.5t131 -91t74.5 -139.5q22 -75 21 -162v-15q-2 -115 -37 -197t-98.5 -135t-152.5 -78.5t-200 -25.5 q-127 0 -192.5 2t-93 36.5t-29.5 120.5t-2 252q0 159 1 315v104q0 104 -1 210q0 20 -1 43t-1 51.5zM338 51q20 -2 43 -4q20 -2 41.5 -2t46.5 2q113 6 156 62q23 31 35 73q10 36 10 74v12q-2 43 -17.5 83t-48.5 67q-29 25 -57.5 36t-58.5 14q-23 2 -49 2h-17q-35 -1 -80 -3 v-246z" />
<glyph unicode="c" horiz-adv-x="946" d="M80 250q-1 12 -1 25q0 73 21 145q23 80 56.5 135t80 91t103.5 57.5t127 37.5q36 7 74 7q37 0 77 -7q80 -14 144 -53q49 -27 82 -76q17 -31 17 -65q0 -30 -15 -58q-18 -37 -52 -50q-19 -7 -41 -7q-17 0 -34 4q-18 4 -32.5 14.5t-30 21.5t-35 21.5t-50.5 14.5 q-16 2 -32.5 2t-34.5 -2q-36 -4 -64 -16q-45 -23 -72 -69q-26 -47 -34 -99q-3 -22 -4 -44q0 -31 7 -61q11 -53 44 -90q25 -29 64.5 -47.5t76.5 -22.5q15 -2 29 -1l41 2q35 6 67 16q25 10 55.5 27.5t59.5 21.5q37 0 57.5 -19.5t28.5 -47.5q5 -17 5 -35q0 -11 -2 -23 q-5 -31 -23 -53q-25 -31 -70 -58.5t-86 -40.5q-50 -16 -110 -18h-29q-44 0 -84 4q-25 4 -51.5 10t-51.5 15q-90 33 -150.5 93t-92 136t-35.5 162z" />
<glyph unicode="d" horiz-adv-x="968" d="M84 246v24q0 84 24 156q28 82 85 140t140 90q78 30 176 30h13h113v367v64.5t6 59t24.5 48t55.5 30.5q23 6 43 6q14 0 26 -3q30 -7 51 -27.5t32.5 -51t11.5 -67.5q1 -68 1 -116v-44q-1 -58 -1 -100v-629v-184.5t-7.5 -119.5t-24.5 -68.5t-52 -31.5t-91.5 -9h-140.5 q-221 0 -349 104t-136 332zM324 273v-14q0 -35 8 -69q10 -40 33 -71q43 -59 155 -66q15 -1 30 -1h14q20 1 36 5q18 2 35 6v379q-73 12 -131 16h-8q-54 0 -107 -42q-31 -25 -47 -63t-18 -80z" />
<glyph unicode="e" horiz-adv-x="1038" d="M82 208q-3 37 -3 73q0 71 13 137q23 119 77 193.5t130 119.5q92 53 207 55q5 0 9 1q110 0 210 -46q70 -31 125 -83t84 -126q8 -18 13 -44.5t7 -56.5q1 -15 1 -29q0 -16 -1 -30q-2 -28 -10 -50q-12 -37 -30.5 -57.5t-47 -31t-68.5 -13.5t-96 -5q-49 -2 -92 -2t-88 1t-93 2 t-107 3q-2 -11 -1 -21q0 -28 12 -50q17 -30 48 -49t69.5 -29.5t75.5 -12.5q14 -1 28 -1q56 0 106 12q64 16 131 36q25 6 50 8.5t46.5 -6t36 -28t14.5 -53.5q0 -25 -12.5 -47.5t-30.5 -41t-41 -32t-43 -21.5q-59 -27 -136 -41q-60 -11 -123 -11q-18 0 -36 1q-111 4 -212 44 t-159 132q-53 90 -63 200zM336 426q-1 -5 -1 -8q0 -6 5 -6h401q-2 29 -10.5 48t-28.5 42q-39 45 -81 65q-32 14 -67 14q-1 -1 -2 -1q-36 0 -69 -11q-59 -14 -100 -61q-4 -4 -14.5 -19.5t-19.5 -32t-13 -30.5z" />
<glyph unicode="f" horiz-adv-x="829" d="M83 610q1 21 7 38.5t16 25.5q27 25 48.5 28t54.5 5q4 0 27.5 1t29.5 1q2 70 4 139.5t13.5 127.5t35 102t72.5 67q59 27 135 33q15 1 29 1q59 0 109 -20q29 -10 56 -41q25 -28 25 -60v-7q-2 -37 -14 -68t-53 -41q-18 -4 -37.5 -3t-40 1t-38 -5t-30.5 -20 q-10 -12 -13 -32.5t-5 -43t-1 -44t1 -35.5v-51q47 -4 87 -6.5t69 -12.5q35 -10 45 -37.5t6 -58.5q-12 -63 -70 -78q-33 -8 -66.5 -8t-68.5 -2v-473q0 -49 -6 -101q0 -18 -10 -38q-4 -10 -6 -13q0 -4 -5 -12q-12 -23 -32 -37q-30 -16 -62 -16q-17 0 -35 4q-31 6 -47 20 q-18 14 -26 35q-4 10 -6 20.5t-7 20.5q-2 10 -3 19.5t-1 15.5v119q0 106 1 221t1 221q-47 2 -97 3t-73 24q-12 12 -16 31q-3 16 -3 32v8z" />
<glyph unicode="g" horiz-adv-x="1015" d="M84 264q6 104 44 196.5t126 153.5q72 49 162 64.5t174 15.5h97t89 -12t74 -41t49 -84q27 -86 30 -170t3 -176q0 -66 -3 -141.5t-7 -141.5q0 -61 -7 -123q-4 -53 -16 -115.5t-35 -115.5q-29 -70 -78 -120t-127 -72q-66 -16 -123 -22q-23 -2 -48 -2q-35 0 -74 5 q-43 6 -92.5 23.5t-92.5 44t-75.5 62.5t-44.5 81q-7 29 -7 53q0 23 6 43q13 41 42 60q17 11 38 11q14 0 29 -5q39 -12 74 -64q25 -37 72 -59.5t100 -26.5q10 -1 20 -1q42 0 83 15q50 17 79 60q20 31 29.5 88t11.5 113q-83 -34 -169 -34q-23 0 -45 2q-110 11 -199 67.5 t-143 151.5q-47 83 -47 185q0 15 1 31zM318 276v-23q0 -31 6 -61q10 -40 34 -73q29 -41 78.5 -59.5t100.5 -18.5q20 0 39.5 4t37.5 10q35 12 52.5 33t23.5 46q5 22 5 48v8q-1 31 -1 64q0 27 -1 59.5t-5 62.5t-12 52.5t-25 28.5q-29 8 -65 11q-19 2 -37.5 2t-36.5 -2 q-37 -3 -70.5 -14.5t-56.5 -29.5q-31 -27 -47 -66t-20 -82z" />
<glyph unicode="h" horiz-adv-x="964" d="M82 -37v1178q0 12 1 23.5t3 23.5q4 12 6 23.5t6 21.5q6 20 21 31q10 10 20.5 16t22.5 8q10 2 22.5 3t24.5 1q31 0 59 -18q12 -8 22.5 -17.5t16.5 -25.5q16 -39 17 -74q2 -10 3 -29.5t1 -40t1 -40t1 -29.5v-10q2 -66 2 -133.5v-137.5v-35q83 28 174 28h6q94 -1 168 -38 q76 -39 116 -88t58 -108.5t21.5 -127t5.5 -141.5q2 -41 2 -85t-2 -81q-2 -55 -6.5 -101t-16.5 -78t-38 -47q-18 -11 -46 -11q-11 0 -24 2q-47 6 -67.5 45t-28.5 89q-6 39 -5 80v22q1 26 1 45.5t-1 33.5q-2 45 -3 103.5t-12 111t-38 89t-80 38.5q-15 1 -29 1q-47 0 -75 -11 q-36 -14 -52 -42t-19 -66.5t-9 -83.5l-2 -80v-150q0 -37 -1 -77t-13 -72.5t-38 -55t-75 -22.5q-61 0 -91 40t-30 99z" />
<glyph unicode="i" horiz-adv-x="438" d="M83 568v27q0 28 1 56q2 43 10 83t27 67q14 16 40.5 25.5t56.5 9.5t57.5 -10.5t39.5 -28.5q8 -12 12.5 -35t7.5 -50.5t4 -57t1 -54.5q0 -57 1 -129t1 -148.5v-151.5t-2 -138q-2 -31 -6 -67t-16 -66t-38 -50q-23 -18 -61 -18h-8q-63 4 -91 55.5t-32 143.5q0 47 -1 108.5 t-2 125t-1 124v109.5q0 30 -1 70zM104 1116q-3 15 -3 29q-1 25 9 47q14 32 44 50q25 15 56 15q4 1 9 1q37 -2 74 -29q35 -25 50 -57q11 -24 11 -48q0 -8 -1 -16q-5 -31 -27.5 -56.5t-63.5 -37.5q-22 -6 -42 -6q-36 0 -63 20q-42 30 -53 88z" />
<glyph unicode="j" horiz-adv-x="851" d="M86 -232q-5 16 -5 32q0 36 25 69q25 31 61 40q12 3 24 3q24 0 47 -12q33 -16 63.5 -33t61 -22t61.5 6.5t61 48.5q14 18 21.5 53t10.5 77t3 84v74v77v59.5v57.5v73q0 25 -2 74q-1 33 -1 68v35q1 54 8 101t24 68q27 35 69 36h3q39 0 73 -22q23 -14 35 -35.5t18.5 -46 t8.5 -50t2 -50.5v-92.5v-146.5v-152.5v-112.5q-2 -61 -7.5 -131t-20.5 -137.5t-48 -126t-90 -96.5q-66 -43 -144 -56q-29 -6 -58 -6q-47 0 -93 14q-45 10 -87 31t-71 53q-37 39 -53 94zM518 1114q-2 12 -2 23q0 29 12 53q15 33 42 49q25 14 57 14h8q37 -2 74 -28 q35 -25 50 -57q11 -23 11 -46q0 -8 -1 -16q-5 -31 -27.5 -57.5t-65.5 -38.5q-22 -7 -42 -7q-35 0 -62 21q-44 31 -54 90z" />
<glyph unicode="k" horiz-adv-x="868" d="M82 -39v1165v24.5t2 25.5q2 12 5 23t7 22q8 20 21 32q10 10 21.5 15.5t21.5 9.5q10 2 23.5 3t25.5 1q29 0 57 -16q27 -18 39 -47q16 -39 17 -76q2 -20 4 -62.5t2 -62.5v-8q2 -68 2 -129.5v-132.5q-2 -72 -2 -136.5v-128.5v-22q16 16 32.5 30.5t30.5 30.5q8 6 17 15l22 22 q27 27 70 73t90 81q51 37 99 45q6 1 12 1q40 0 69 -50q16 -30 16 -59q0 -22 -10 -44q-24 -48 -61 -90q-45 -47 -67.5 -68.5t-33 -30.5t-14.5 -11.5t-13 -11.5t-31 -30.5t-67 -68.5q45 -47 67 -68.5t31 -32t13 -12.5t14.5 -12t33 -31.5t67.5 -68.5q37 -37 61 -85 q11 -21 10 -45q0 -28 -16 -59q-16 -29 -36.5 -40t-44 -9t-49.5 14.5t-50 30.5q-47 35 -90 81t-70 71q-18 18 -22 24q-4 4 -8.5 7t-8.5 8q-14 14 -30.5 28.5t-32.5 30.5v-80q0 -23 2 -33q0 -20 -2 -30q-6 -23 -6 -43q-2 -10 -4.5 -19.5t-6.5 -19.5l-3 -6t-1 -7l-3 -6l-3 -6 q-10 -20 -33 -39q-26 -16 -61 -16q-17 0 -35 4q-31 6 -47 22q-18 12 -25 35q-4 10 -7 21.5t-7 21.5t-4 19.5v15.5z" />
<glyph unicode="l" horiz-adv-x="440" d="M82 -33v1147q0 14 1 25.5t3 21.5q2 14 5 24.5t7 22.5q6 20 23 33q25 18 47 21q14 4 26.5 5t28.5 1q29 0 66 -17q29 -16 41 -45q20 -41 20 -76q2 -20 3 -61t1 -61v-9q4 -66 4 -126t-2 -132q0 -70 -1 -134t-1 -128v-430q0 -8 1 -15t1 -16q0 -20 -2 -30t-3 -19.5t-1 -19.5 l-12 -43q-4 -8 -6 -10l-6 -13q-10 -23 -37 -37q-32 -16 -68 -16q-18 0 -37 4q-35 4 -55 21q-20 14 -29 34q-8 20 -12 41q-6 20 -6 37z" />
<glyph unicode="m" horiz-adv-x="1277" d="M84 651.5q0 55.5 16 100.5q14 39 45 50q26 9 54 9h10q37 0 58.5 -19.5t31.5 -47t12 -61.5t4 -65q23 51 54.5 85t91.5 45q32 6 62 6q109 0 179 -84q41 41 105 67q48 18 97 18q1 -1 3 -1q51 0 97.5 -18.5t84 -53.5t60.5 -84q31 -66 35 -145.5t8 -151.5q4 -66 4 -124 t-4 -124v-55.5t-4 -59t-14.5 -53t-30.5 -39.5q-25 -16 -55 -21q-12 -2 -23 -2q-19 0 -35 5q-26 8 -45.5 30.5t-21.5 63.5q-6 94 -7 189q0 47 -1 90v33q0 36 1 88q0 39 -6 89t-30 70q-18 16 -41 19.5t-44.5 -5t-38 -30t-22.5 -53.5q0 -27 -1 -54.5t1 -52.5q2 -66 2 -124 t-2 -124q-2 -27 -1 -57.5t-1 -60t-11 -54t-32 -39.5q-25 -16 -52.5 -19t-51 8t-41 36t-19.5 66q-4 47 -5 86.5t-1 85.5q0 47 2 97q1 17 1 33q0 33 -3 64q0 14 -1 33.5t-2 40t-4 40t-9 32.5q-17 29 -59 37q-15 3 -27 3q-24 0 -43 -10q-29 -14 -43.5 -36.5t-20.5 -49t-6 -56.5 v-56q0 -133 1 -231v-8q0 -92 -21 -148q-10 -31 -42 -47.5t-68 -16.5t-66.5 16.5t-41.5 51.5q-6 23 -11 64.5t-7 92.5t-2 103.5v95.5v295q-2 47 -2 102.5z" />
<glyph unicode="n" horiz-adv-x="1005" d="M83 656v5q0 50 17 91q16 39 54 56q24 11 48 11q14 0 27 -4q37 -6 57.5 -22.5t30 -38t11.5 -49t4 -54.5q20 37 51 59.5t63.5 37t62.5 20.5t46 6q78 0 154.5 -33.5t128.5 -95.5q29 -37 44 -77t22 -83t9 -87t5 -89q5 -66 5 -130.5t-5 -129.5q-2 -27 -2.5 -61.5t-5.5 -68.5 t-18 -59.5t-44 -31.5q-29 -7 -50 -7q-10 0 -20 2q-28 5 -44.5 19.5t-25 37t-14.5 50.5q-4 23 -7 52.5t-4 60.5t-2 60.5t-1 54.5q0 39 -2 86q-1 24 -1 46t1 42q0 96 -50 146q-43 43 -113 43q-11 0 -23 -1q-66 -8 -115 -52q-47 -42 -47 -109v-5v-49t-1 -44.5t-1 -49.5v-59 v-143t-19 -122q-16 -49 -55 -67q-15 -7 -33 -8q-27 0 -59 18q-23 12 -36 33.5t-20.5 46t-9.5 50.5t-4 48q-6 68 -7 126.5t-1 125.5v295q0 47 -1 101z" />
<glyph unicode="o" horiz-adv-x="1136" d="M89 208q-6 40 -6 79q0 71 19 145q33 123 95.5 200t148.5 118q68 33 142 47q47 9 93 9q27 0 53 -3q73 -8 141.5 -39t125.5 -86q47 -47 82 -113.5t51 -130.5q21 -66 20 -133q0 -47 -10 -95q-24 -114 -83 -212q-29 -45 -71 -81t-89 -58q-61 -29 -133 -41q-45 -7 -88 -7 q-26 0 -52 3q-123 6 -216 61t-149.5 141t-73.5 196zM340 314q-1 -12 -1 -25q0 -34 8 -67q11 -46 36 -83q20 -31 73.5 -51t110.5 -25q6 0 12 -1q59 0 103 37q48 39 74 99q24 55 24 119v11q-2 70 -37 127q-25 41 -68.5 60.5t-91.5 20.5h-6q-45 0 -89 -14q-47 -16 -80 -47 q-31 -29 -47.5 -72t-20.5 -89z" />
<glyph unicode="p" horiz-adv-x="1007" d="M82 -508v1141q0 12 1 25.5t3 27.5q2 25 12 49q18 51 76 69q51 17 115 17h14q49 -2 101.5 -10t100.5 -19.5t86.5 -24t63.5 -22.5q59 -25 108.5 -70.5t85.5 -105t55.5 -128t19.5 -138.5v-8q0 -100 -48 -189q-51 -92 -163 -141q-86 -35 -177.5 -52t-189.5 -24v-374 q0 -12 -3 -22.5t-3 -20.5q-4 -20 -9 -37t-14 -35q-8 -12 -16 -22.5t-18 -20.5q-31 -16 -63 -16q-20 0 -40 6q-33 2 -53 20q-18 18 -27 39q-8 20 -14 47q-2 10 -3 19.5t-1 19.5zM348 135q47 2 99.5 10.5t97.5 26.5t76.5 49t37.5 82q2 16 2 30q0 38 -15 67q-21 40 -60 66 t-89.5 40t-99.5 20q-6 2 -19 2h-30q0 -66 1 -126v-41q0 -42 -1 -89v-137z" />
<glyph unicode="q" horiz-adv-x="1011" d="M84 317q4 94 44 184.5t105 155.5q29 29 59 50.5t64 35.5q25 10 65 23.5t88 26t101.5 20.5t102.5 8h13q64 0 114 -17q55 -20 73 -71l13 -49q4 -14 4 -27.5v-25.5v-1141q0 -10 -1 -19.5t-3 -19.5q-8 -20 -15 -47q-12 -27 -28 -39q-18 -18 -52 -20q-21 -6 -40 -6 q-32 0 -60 16q-25 18 -37 43q-6 6 -6 12q-2 2 -3 5t-3 7q-4 12 -7 23.5t-3 24.5q-4 27 -5 54t-1 56v307q-6 2 -21 2q-41 6 -97 11.5t-97 15.5q-76 14 -154 47q-117 51 -167 147q-46 90 -46 191v16zM350 301q6 -51 38 -82t78 -49t98 -26.5t102 -10.5q-2 98 -2 198.5t2 194.5 h-31t-23 -2q-49 -6 -98 -17t-88 -34.5t-60 -63.5q-17 -31 -17 -80q0 -13 1 -28z" />
<glyph unicode="r" horiz-adv-x="999" d="M84 161v89v299v56.5t2 65.5t7 65.5t16 56.5q16 37 51 50q30 11 65 11h11q43 0 67.5 -14.5t36.5 -38t15 -53t3 -62.5q18 33 50 53.5t65 32.5t59.5 17.5t30.5 5.5q34 3 64 2h29q42 -2 94 -19q33 -12 67.5 -33.5t60.5 -50.5q26 -28 36 -62q3 -11 4 -23q0 -23 -13 -48 q-28 -50 -62 -50h-1q-34 1 -76 11q-23 4 -53.5 18.5t-53.5 18.5q-23 3 -44 3q-43 0 -79 -14q-53 -20 -92 -48q-45 -35 -77 -80v-295q0 -55 -1 -114.5t-16.5 -107.5t-51.5 -78q-32 -26 -88 -26h-15q-37 2 -66 36t-35 67q-4 31 -6 73.5t-3 90t-1 95.5z" />
<glyph unicode="s" horiz-adv-x="929" d="M83 33q1 39 17 69q18 32 50 44q10 4 21 3q24 0 52 -18q33 -23 78 -44t90 -33.5t87 -12.5t73 18q45 29 47 67v5q0 34 -27 53q-39 25 -87 39.5t-98 26.5t-97 27.5t-86 44.5q-83 63 -97 156q-3 19 -3 38q0 74 42 150q29 49 76 80.5t103 49.5q56 17 116 19h24q47 0 89 -6 q35 -6 74 -17.5t72.5 -30t61 -46t40.5 -68.5q8 -27 3 -51.5t-20.5 -40.5t-39 -24.5t-50.5 -4.5q-31 6 -57.5 18.5t-53 27t-54 24.5t-58.5 10h-9q-41 0 -69 -16q-31 -18 -42 -45t2.5 -57.5t56.5 -53.5q39 -20 86 -32.5t93 -24.5t90 -28.5t79 -45.5q68 -55 83 -129 q6 -28 6 -56q1 -46 -15 -90q-24 -72 -85 -127t-143 -73q-59 -12 -127.5 -12t-135.5 14t-127 45t-101 78q-30 35 -30 80z" />
<glyph unicode="t" horiz-adv-x="1048" d="M85 654q-2 11 -2 21q0 19 6 37q9 28 29.5 49t47.5 27q36 10 104 12q29 1 57 0q36 0 70 -1q-2 20 -2 39.5t-2 38.5q-2 25 -2 62.5t5 75.5t17.5 71.5t35.5 52.5q31 25 63 27q5 0 10 1q24 0 48 -10q28 -12 47.5 -35.5t27.5 -52.5q6 -25 10 -58.5t5.5 -70.5t1.5 -74v-67h20 q31 0 72 2q14 1 27 1q27 0 53 -3q40 -4 73 -19.5t49 -52.5q9 -22 9 -45q0 -19 -6 -41q-13 -47 -48 -61q-18 -8 -49 -13.5t-66.5 -9.5t-70.5 -6t-59 -2q2 -61 4 -126t4 -126t2 -117.5t-2 -101.5v-71t-5 -76.5t-15.5 -64.5t-30.5 -36q-44 -19 -83 -19q-16 -1 -32 3 q-52 12 -76 45q-16 27 -24.5 62.5t-11.5 73.5q-2 28 -2 56v17q1 36 1 63q2 86 3 195.5t1 220.5h-30q-25 0 -63 1t-75.5 6t-70.5 14.5t-47 27.5q-23 28 -28 58z" />
<glyph unicode="u" horiz-adv-x="1009" d="M88 285q-4 70 -4 139.5t4 138.5v60.5t5 66.5t17.5 60.5t41.5 42.5q32 18 62 18q26 0 51 -14q52 -29 63 -119q5 -40 5 -88v-16v-23q0 -44 3 -82q2 -70 4 -150.5t23.5 -144t71.5 -95.5q26 -17 66 -17q36 0 85 14q47 14 62.5 71.5t15.5 169.5q0 49 -2.5 108.5t-2.5 118 t3.5 108.5t11.5 77q10 37 43 55.5t69 19.5h5q34 0 65 -16q33 -16 45 -53q12 -33 17.5 -83t7.5 -108q1 -39 2 -79q0 -21 -1 -41q-1 -60 -3 -113q-4 -68 -8.5 -136.5t-21.5 -131.5t-53 -114.5t-102 -82.5q-57 -29 -123 -40q-55 -9 -110 -9h-20q-66 2 -127.5 19.5t-110.5 48.5 t-80 80t-48.5 106.5t-23.5 118.5t-8 115z" />
<glyph unicode="v" horiz-adv-x="1081" d="M85 660q-1 10 -1 22q0 21 4 43q6 31 30.5 49.5t55.5 24.5q14 3 29 3q17 0 33 -4q30 -7 49 -28q18 -18 34.5 -49t32 -64.5t28.5 -67.5t26 -59q29 -59 64.5 -128.5t64.5 -129.5q20 47 36.5 79t31.5 62.5t32.5 67.5t44.5 94q25 53 50.5 104.5t62.5 90.5q19 20 47 28 q16 4 32 4q13 0 27 -3q31 -6 56.5 -25.5t37.5 -52.5q5 -17 5 -36q0 -9 -1 -19q-4 -30 -14 -62.5t-23.5 -62t-23.5 -52.5q-53 -109 -100.5 -213t-110.5 -227q-12 -25 -27.5 -58.5t-34 -65t-40 -58.5t-45.5 -39q-17 -10 -35 -10h-6q-4 -1 -7 -1q-13 0 -30 11q-25 12 -46.5 39 t-40 58.5t-33.5 65.5t-28 58q-25 47 -46 88t-44.5 89t-52.5 110.5t-68 152.5q-10 25 -22.5 51.5t-21.5 57t-12 62.5z" />
<glyph unicode="w" horiz-adv-x="1374" d="M84 670q-1 7 -1 13q1 31 17 59q20 32 50 46q19 8 42 8q14 0 28 -4q38 -8 69 -49q16 -20 29.5 -50.5t23.5 -66.5t20.5 -73t20.5 -72q23 -78 38 -122t32 -91q14 47 29.5 91t37.5 122q8 25 19.5 56.5t25 60.5t30.5 54.5t38 37.5q30 21 56 21q13 1 26 -5q37 -16 63.5 -53 t46 -85t31.5 -87q12 -41 22.5 -70.5t18.5 -54t15.5 -47t15.5 -47.5q8 25 15 47.5t15.5 47t18.5 54t22 70.5q8 27 17.5 62t20 70.5t21.5 68.5t25 55q14 23 39 39q26 15 52 18q6 1 11 1q21 -1 43 -9q28 -10 48 -41q14 -21 14 -60q0 -11 -1 -23q-5 -56 -21.5 -120.5t-39 -127 t-36.5 -103.5q-35 -94 -61.5 -176t-63.5 -180q-12 -29 -23.5 -57.5t-27 -51t-37 -37t-51.5 -14.5q-35 0 -60.5 24.5t-43 61.5t-30 78t-20.5 72q-27 90 -47 164.5t-37 134.5q-18 -59 -36.5 -129t-47.5 -158q-8 -31 -20.5 -75t-29.5 -83t-43 -67q-23 -24 -51 -24q-4 0 -9 1 q-49 2 -85 40t-61.5 91.5t-44 110.5t-31.5 100q-16 55 -38.5 123t-44 138.5t-40 141t-24.5 130.5z" />
<glyph unicode="x" horiz-adv-x="1054" d="M84 719q6 31 26 50q22 19 50 27q16 4 32 4q13 0 27 -3q31 -6 57 -25q53 -39 100.5 -96.5t92.5 -108.5q14 -18 27.5 -33.5t25.5 -29.5q10 16 25.5 32.5t32.5 38.5q41 49 83 102.5t93 92.5q26 20 56 26q12 2 25 2q15 0 31 -4q26 -8 47 -26t27 -45q4 -16 4 -31q0 -16 -5 -34 q-9 -32 -28.5 -63.5t-43 -59t-44.5 -50.5q-47 -51 -81.5 -92t-65.5 -78q18 -20 37.5 -43.5t44.5 -56.5q23 -29 62.5 -73t75.5 -92t58 -95q16 -33 16 -59q0 -12 -3 -23q-15 -53 -61 -61q-12 -2 -24 -3q-35 0 -71 19q-35 16 -80 57t-87 86t-74.5 85t-45.5 57q0 2 -1 2t-1 2 q-14 -16 -28.5 -36t-30.5 -38q-20 -25 -46 -58.5t-55.5 -66.5t-61.5 -60.5t-62 -39.5q-18 -7 -35 -7q-23 0 -44 12q-38 21 -48 58q-5 17 -5 35q0 27 11 55q18 47 49 91t66.5 85t58.5 72q23 29 40 50.5t34 41.5q-29 31 -62 69t-92 99q-20 23 -45 50.5t-45.5 58t-32.5 63.5 q-8 22 -8 45q0 11 2 23z" />
<glyph unicode="y" horiz-adv-x="1122" d="M84 682q2 25 18 49q16 31 43 44t56.5 12t56.5 -13t43 -33q35 -37 55.5 -82t38.5 -92q39 -82 80 -172t82 -176l107 225q16 33 29.5 64t27.5 59q16 35 31.5 72t35.5 68q4 8 8.5 14t8.5 14q18 25 33 39q10 8 17 13.5t17 7.5q14 4 28 5h8q9 0 18 -1q20 -6 49 -19 q31 -12 47 -43q16 -26 16 -55v-6q0 -47 -16 -82q-4 -10 -11 -26.5t-14.5 -35t-15.5 -35t-12 -24.5l-4 -10q-29 -63 -55.5 -122.5t-59.5 -127.5q-33 -66 -62.5 -128t-58.5 -122q-8 -16 -14 -31.5t-17 -31.5l-98 -211q-27 -53 -50.5 -104.5t-51.5 -102.5q-6 -10 -11.5 -19.5 t-9.5 -19.5q-14 -25 -41.5 -48.5t-58.5 -25.5h-11q-48 0 -85 33q-25 14 -39 41q-8 18 -9 47q2 12 3.5 23.5t3.5 21.5q4 10 6 20.5t6 16.5q6 16 10 16l150 324q-10 23 -20.5 46.5t-18.5 41.5q-27 63 -56.5 134t-60.5 141.5t-63.5 138t-65.5 129.5q-12 20 -22.5 43.5 t-16.5 47.5q-4 17 -4 36v12z" />
<glyph unicode="z" horiz-adv-x="997" d="M83 674q1 24 10 47.5t26 42.5q12 12 31.5 20.5t44 12.5t50 5t48.5 1h100.5t107.5 1t98 2t75 1q38 0 74 2h14q29 0 55 -6q33 -8 56.5 -29.5t29.5 -68.5q4 -31 -3 -61t-22.5 -57.5t-36 -55t-40.5 -52.5l-318 -409h160q31 0 69 -1t73.5 -6.5t65.5 -17.5t42 -33 q23 -39 23 -71q0 -12 -4 -24q-12 -42 -46 -64q-37 -27 -86 -37q-37 -7 -70 -7q-10 0 -20 1q-45 2 -92 2q-42 0 -86 -2q-94 -4 -178 -5q-28 0 -60 -1h-10q-26 0 -51 4q-29 6 -54.5 20t-43.5 45q-16 25 -16 51q1 14 5 28q14 40 31 75q29 51 69 100t68 84l256 336l-206 -6 h-52.5t-56.5 5t-53.5 13t-42.5 25q-19 18 -27 42q-8 21 -7 42v6z" />
<glyph unicode="{" horiz-adv-x="968" d="M149.5 568q4.5 40 24.5 87l72 97q16 31 25.5 50t13.5 37.5t5 37t1 45.5l-2 202q0 63 18.5 115.5t51 89.5t77.5 57.5t96 20.5h177q35 0 71.5 -7t65.5 -30t28 -63q0 -20 -7 -43t-19 -33q-16 -16 -39 -23.5t-43.5 -10.5t-34.5 -3h-16h-92q-31 0 -48.5 -10t-25.5 -28.5 t-9 -43.5t-1 -51v-148q0 -47 -5.5 -73.5t-18.5 -51t-34.5 -53t-54.5 -78.5q-23 -35 -32 -55t-7 -36.5t14.5 -34t30.5 -44.5q29 -41 49.5 -63.5t33.5 -45t18.5 -56t5.5 -95.5l-2 -186q-2 -141 79 -141h89q35 0 70.5 -7.5t64.5 -29.5q29 -23 28 -64q0 -20 -7 -42.5t-19 -32.5 q-16 -16 -48 -23.5t-64 -10.5t-56.5 -3h-26.5l-141 12q-49 0 -90 24.5t-69 67.5t-43 101.5t-15 123.5v174q0 33 -1 55.5t-5 43t-13.5 43t-25.5 55.5l-68 88q-31 53 -26.5 93z" />
<glyph unicode="|" horiz-adv-x="745" d="M248 -68v1315q0 25 2 49.5t10 43t26.5 29.5t49.5 11t69.5 3t67.5 -15q23 -14 29 -30.5t10 -39.5q8 -29 7 -72.5t-1 -72.5v-1010q0 -63 -2 -121.5t0 -121.5q3 -45 -22 -78q-14 -16 -33 -24.5t-39.5 -10.5t-42 -1t-39.5 3q-16 2 -32.5 7t-28.5 18q-2 0 -3 2 q-25 25 -26.5 54.5t-1.5 61.5z" />
<glyph unicode="}" horiz-adv-x="1001" d="M131 1307q0 41 29 63q29 23 65.5 30t71.5 7h176q51 0 96 -20.5t78 -57.5t51.5 -89t18.5 -116l-2 -202q0 -27 1 -45.5t5 -37t13 -38t26 -49.5l71 -97q20 -47 24.5 -87t-26.5 -93l-67 -88q-16 -33 -25.5 -55.5t-13.5 -43t-5 -43t-1 -55.5v-174q0 -66 -15.5 -124t-43 -101 t-68.5 -67.5t-90 -24.5l-142 -12h-26.5t-56 3t-63.5 10t-48 24q-12 10 -19.5 32.5t-7.5 42.5q0 41 29 64t64.5 30t70.5 7h88q82 0 80 141l-2 186q0 61 5 95t18.5 56.5t34 45t48.5 63.5q18 27 30.5 44.5t15 34t-7 37t-31.5 54.5q-33 49 -54.5 78t-35 53.5t-18.5 51t-5 73.5 v148q0 27 -1 51.5t-9 43t-25.5 28.5t-48.5 10h-92h-16.5t-35 3t-43 10t-38.5 24q-12 10 -19.5 32.5t-7.5 43.5z" />
<glyph unicode="~" horiz-adv-x="1294" d="M109 639q16 53 58 94t85 74q88 63 188 70q78 4 131 -27q29 -16 54.5 -33.5t50.5 -38.5q23 -20 48.5 -37.5t51.5 -33.5q51 -31 127 -31q41 4 68 20q25 16 45 43q16 23 29.5 43.5t46.5 26.5q59 12 83.5 -26t10.5 -91q-4 -16 -10.5 -30.5t-10.5 -26.5q-16 -35 -37.5 -65.5 t-46.5 -59.5q-68 -76 -157 -76q-86 0 -150 33q-31 16 -59.5 33.5t-55.5 36.5q-27 20 -51 37.5t-49 33.5q-51 35 -106 35q-66 0 -134 -33q-18 -10 -32.5 -23.5t-28.5 -26.5t-30.5 -23.5t-37.5 -12.5q-51 -4 -74.5 32t-6.5 83z" />
<glyph unicode="&#xa0;" />
<glyph unicode="&#xad;" horiz-adv-x="970" d="M82 647q0 35 19.5 69t54.5 46q43 18 89 17t93 1h395q35 8 71 -4t66 -41q14 -14 21.5 -34.5t7.5 -43.5q0 -25 -7 -52t-20 -42q-16 -18 -42.5 -28.5t-51 -13.5t-42 -3h-19.5l-402 -2q-25 -2 -50 -3t-50 2t-46.5 12.5t-39.5 25.5q-23 23 -35 44t-12 50z" />
<glyph unicode="&#x2000;" horiz-adv-x="790" />
<glyph unicode="&#x2001;" horiz-adv-x="1581" />
<glyph unicode="&#x2002;" horiz-adv-x="790" />
<glyph unicode="&#x2003;" horiz-adv-x="1581" />
<glyph unicode="&#x2004;" horiz-adv-x="527" />
<glyph unicode="&#x2005;" horiz-adv-x="395" />
<glyph unicode="&#x2006;" horiz-adv-x="263" />
<glyph unicode="&#x2007;" horiz-adv-x="263" />
<glyph unicode="&#x2008;" horiz-adv-x="197" />
<glyph unicode="&#x2009;" horiz-adv-x="316" />
<glyph unicode="&#x200a;" horiz-adv-x="87" />
<glyph unicode="&#x2010;" horiz-adv-x="970" d="M82 647q0 35 19.5 69t54.5 46q43 18 89 17t93 1h395q35 8 71 -4t66 -41q14 -14 21.5 -34.5t7.5 -43.5q0 -25 -7 -52t-20 -42q-16 -18 -42.5 -28.5t-51 -13.5t-42 -3h-19.5l-402 -2q-25 -2 -50 -3t-50 2t-46.5 12.5t-39.5 25.5q-23 23 -35 44t-12 50z" />
<glyph unicode="&#x2011;" horiz-adv-x="970" d="M82 647q0 35 19.5 69t54.5 46q43 18 89 17t93 1h395q35 8 71 -4t66 -41q14 -14 21.5 -34.5t7.5 -43.5q0 -25 -7 -52t-20 -42q-16 -18 -42.5 -28.5t-51 -13.5t-42 -3h-19.5l-402 -2q-25 -2 -50 -3t-50 2t-46.5 12.5t-39.5 25.5q-23 23 -35 44t-12 50z" />
<glyph unicode="&#x2012;" horiz-adv-x="970" d="M82 647q0 35 19.5 69t54.5 46q43 18 89 17t93 1h395q35 8 71 -4t66 -41q14 -14 21.5 -34.5t7.5 -43.5q0 -25 -7 -52t-20 -42q-16 -18 -42.5 -28.5t-51 -13.5t-42 -3h-19.5l-402 -2q-25 -2 -50 -3t-50 2t-46.5 12.5t-39.5 25.5q-23 23 -35 44t-12 50z" />
<glyph unicode="&#x2013;" horiz-adv-x="1177" d="M82 647q0 35 24.5 69t68.5 46q54 18 111.5 17t116.5 1h495q44 8 89 -4t83 -41q17 -14 26.5 -34.5t9.5 -43.5q0 -25 -9 -52t-25 -42q-20 -18 -53 -28.5t-64 -13.5t-53 -3h-24l-504 -2q-31 -2 -62.5 -3t-63 2t-58.5 12.5t-49 25.5q-29 23 -44 44t-15 50z" />
<glyph unicode="&#x2014;" horiz-adv-x="2201" d="M82 647q0 35 49 69t136 46q108 18 223.5 17t233.5 1h990q88 8 178 -4t165 -41q35 -14 54 -34.5t19 -43.5q0 -25 -17.5 -52t-50.5 -42q-40 -18 -106.5 -28.5t-127.5 -13.5t-105 -3h-49l-1008 -2q-63 -2 -125.5 -3t-125 2t-116.5 12.5t-99 25.5q-58 23 -88 44t-30 50z" />
<glyph unicode="&#x2018;" horiz-adv-x="614" d="M275 1150q1 40 1 62q2 20 7.5 48t14.5 52.5t22.5 44t29.5 25.5q18 10 32 8t26 -8q14 -10 23 -29.5t13.5 -42t6.5 -47t2 -42.5q2 -20 8 -56.5t13 -75t11 -74.5t2 -57q-6 -25 -28.5 -40t-50 -19t-56 3t-47.5 28q-14 18 -20 56t-8.5 81t-1.5 83z" />
<glyph unicode="&#x2019;" horiz-adv-x="614" d="M176 1000.5q0 23.5 2 48t4 43.5q2 18 0 54t-3 76t0 75.5t7 56.5q8 25 33 36t54.5 11t56 -12.5t41.5 -34.5q12 -20 12 -58.5t-5 -81.5t-12.5 -82.5t-9.5 -60.5q-4 -20 -14 -46t-22.5 -49.5t-29 -39.5t-32.5 -21q-18 -8 -32.5 -3.5t-24.5 12.5q-12 12 -18.5 32.5t-6.5 44z " />
<glyph unicode="&#x201c;" horiz-adv-x="819" d="M195 1132.5v61.5q0 20 4 48t13 52.5t21.5 44t28.5 27.5q28 16 57 2q14 -8 23.5 -27.5t14.5 -43t7.5 -47t4.5 -42.5q2 -20 10 -56t16 -74t13.5 -73.5t3.5 -56.5q-4 -25 -25.5 -41t-50.5 -21t-57.5 1t-47.5 26q-16 18 -23 56.5t-10 81.5t-3 81.5zM537 1146v62q0 20 5 47 t13 51.5t21.5 45t29.5 26.5q16 10 31 10t25 -6q16 -8 25 -27.5t14.5 -43t7.5 -47t4 -41.5q2 -20 9 -56.5t15 -74t14.5 -73.5t4.5 -56q-4 -25 -26.5 -41.5t-51.5 -21.5t-57.5 1t-47.5 25q-16 18 -23 56t-10 81t-3 83z" />
<glyph unicode="&#x201d;" horiz-adv-x="819" d="M96 1303.5q0 35.5 6 56.5q8 25 33 36t53.5 12t55 -10.5t43.5 -33.5q12 -20 13 -58t-3 -81t-10 -83t-8 -63q-4 -20 -13.5 -45.5t-22 -49t-28.5 -40t-33 -20.5q-16 -8 -30.5 -5t-24.5 11q-14 10 -20.5 30.5t-8.5 45t0 48t4 42.5q2 20 0 56t-4 76t-2 75.5zM440 1295.5 q0 35.5 6 56.5q8 25 33 36t53.5 12t55 -10.5t43.5 -33.5q12 -18 13 -57t-3 -82t-10 -83t-8 -63q-4 -20 -13.5 -46t-22 -48.5t-27.5 -39.5t-32 -22q-18 -8 -32.5 -4.5t-24.5 11.5q-14 10 -20.5 30.5t-7.5 45t0 48t3 41.5q2 20 0 56.5t-4 76.5t-2 75.5z" />
<glyph unicode="&#x2026;" horiz-adv-x="1597" d="M143 -176q0 53 38 92t91 39t91 -39t38 -92t-37.5 -91t-91.5 -38q-53 0 -91 38t-38 91zM684 -176q0 53 38 92t91 39t91 -39t38 -92t-38 -91t-91 -38t-91 38t-38 91zM1192 -176q0 53 38 92t91 39t91 -39t38 -92t-38 -91t-91 -38t-91 38t-38 91z" />
<glyph unicode="&#x202f;" horiz-adv-x="316" />
<glyph unicode="&#x205f;" horiz-adv-x="395" />
<glyph unicode="&#x25fc;" horiz-adv-x="798" d="M0 0v799h799v-799h-799z" />
</font>
</defs>
</svg>
