<svg version="1.1" xmlns="http://www.w3.org/2000/svg" data-icon="action" width="128" height="128" class="iconic iconic-action" viewBox="0 0 128 128">
  <g><title>Action</title></g>
  <g data-width="128" data-height="96" class="iconic-lg iconic-container" display="inline" transform="translate(0 16)">
    <g class="iconic-action-undo">
      <path d="M30 59c0-27.1 21.9-49 49-49s49 21.9 49 49c0-32.6-26.4-59-59-59s-59 26.4-59 59v11h20v-11z" class="iconic-action-undo-stem iconic-property-fill"/>
      <path d="M19.2 94.7l-18.4-29.4c-.4-.7-.1-1.3.7-1.3h37c.8 0 1.1.6.7 1.3l-18.4 29.4c-.4.7-1.2.7-1.6 0z" class="iconic-action-undo-arrowhead iconic-property-fill"/>
    </g>
    <g class="iconic-action-redo" display="none">
      <path d="M98 59c0-27.1-21.9-49-49-49s-49 21.9-49 49c0-32.6 26.4-59 59-59s59 26.4 59 59v11h-20v-11z" class="iconic-action-redo-stem iconic-property-fill"/>
      <path d="M108.8 94.7l18.4-29.5c.4-.7.1-1.3-.7-1.3h-37c-.8 0-1.1.6-.7 1.3l18.4 29.5c.4.7 1.2.7 1.6 0z" class="iconic-action-redo-arrowhead iconic-property-fill"/>
    </g>
  </g>
  <g data-width="32" data-height="24" class="iconic-md iconic-container" display="none" transform="scale(4) translate(0 4)">
    <g class="iconic-action-undo">
      <path d="M9 14.5c0-6.4 5.1-11.5 11.5-11.5 6 0 10.9 4.7 11.4 10.5-.6-7.5-6.8-13.5-14.4-13.5-8 0-14.5 6.5-14.5 14.5v2.5h6v-2.5z" class="iconic-action-undo-stem iconic-property-fill"/>
      <path d="M6.3 23.6l5.4-7.2c.2-.2.1-.4-.2-.4h-11c-.3 0-.4.2-.2.4l5.4 7.2c.2.2.4.2.6 0z" class="iconic-action-undo-arrowhead iconic-property-fill"/>
    </g>
    <g class="iconic-action-redo" display="none">
      <path d="M23 14.5c0-6.4-5.1-11.5-11.5-11.5-6 0-10.9 4.7-11.5 10.5.6-7.5 6.9-13.5 14.5-13.5 8 0 14.5 6.5 14.5 14.5v2.5h-6v-2.5z" class="iconic-action-redo-stem iconic-property-fill"/>
      <path d="M25.7 23.6l-5.4-7.2c-.2-.2-.1-.4.2-.4h11c.3 0 .4.2.2.4l-5.4 7.2c-.2.2-.4.2-.6 0z" class="iconic-action-redo-arrowhead iconic-property-fill"/>
   </g>
  </g>
  <g data-width="16" data-height="12" class="iconic-sm iconic-container" display="none" transform="scale(8) translate(0 2)">
    <g class="iconic-action-undo">
      <path d="M2 9v-2c0-3.9 3.1-7 7-7s7 3.1 7 7c0-2.8-2.2-5-5-5s-5 2.2-5 5v2h-4z" class="iconic-action-undo-stem iconic-property-fill"/>
      <path class="iconic-action-undo-arrowhead iconic-property-fill" d="M0 8l4 4 4-4z"/>
    </g>
    <g class="iconic-action-redo" display="none">
      <path d="M10 9v-2c0-2.8-2.2-5-5-5s-5 2.2-5 5c0-3.9 3.1-7 7-7s7 3.1 7 7v2h-4z" class="iconic-action-redo-stem iconic-property-fill"/>
      <path class="iconic-action-redo-arrowhead iconic-property-fill" d="M8 8l4 4 4-4z"/>
    </g>
  </g>
<script class="iconic-api" type="application/ecmascript">
//<![CDATA[
var iconicApis=window._Iconic?window._Iconic.smartIconApis:{};iconicApis["action"]=iconicApis["action"]||function(t){var i=function(i){t.setAttribute("data-state",i);var n,e,o=t.querySelectorAll(".iconic-action-undo"),c=t.querySelectorAll(".iconic-action-redo");n=e="none","redo"===i?e="inline":n="inline";for(var a=0;a<o.length;a++)o[a].setAttribute("display",n),c[a].setAttribute("display",e)},n=function(){var n=t.getAttribute("data-state");n&&i(n)};return{update:n,setState:i}};
//]]>
</script>
</svg>
