<svg xmlns="http://www.w3.org/2000/svg" class="iconic iconic-bell" width="128" height="128" viewBox="0 0 128 128">
  <g class="iconic-metadata">
    <title>Bell</title>
  </g>
  <g class="iconic-bell-lg iconic-container iconic-lg" data-width="112" data-height="128" display="inline" transform="translate(8)">
    <circle cx="56" cy="6" r="6" class="iconic-bell-crown iconic-property-fill" />
    <path d="M100 82.033c-14.828-10.22-16-24.339-16-39.934v-4.098c0-15.464-12.536-28-28-28s-28 12.536-28 28v4.098c0 15.595-1.172 29.714-16 39.934-7.414 5.11-12 12.169-12 19.967v2h112v-2c0-7.798-4.586-14.857-12-19.967z" class="iconic-bell-body iconic-property-fill"
    />
    <path d="M41.174 106c-.751 1.854-1.174 3.877-1.174 6 0 8.836 7.163 16 16 16s16-7.163 16-16c0-2.123-.423-4.146-1.174-6h-29.652z" class="iconic-bell-clapper iconic-property-accent iconic-property-fill" />
  </g>
  <g class="iconic-bell-md iconic-container iconic-md" data-width="28" data-height="32" display="none" transform="scale(4) translate(2)">
    <path d="M10 28c0 2.209 1.791 4 4 4s4-1.791 4-4h-8z" class="iconic-bell-clapper iconic-property-force-fill iconic-property-accent iconic-property-fill" />
    <circle cx="14" cy="2" r="2" class="iconic-bell-crown iconic-property-force-fill iconic-property-fill" />
    <path d="M27.972 25.622c-.139-1.798-1.24-3.42-2.972-4.614-3.707-2.555-4-6.085-4-9.984v-1.025c0-3.866-3.134-7-7-7s-7 3.134-7 7v1.025c0 3.899-.293 7.429-4 9.984-1.732 1.194-2.834 2.816-2.972 4.614h-.007v.094c-.005.095-.021.188-.021.284h.021v1h27.979v-1.378h-.028z"
    class="iconic-bell-body iconic-property-fill" />
  </g>
  <g class="iconic-bell-sm iconic-container iconic-sm" data-width="14" data-height="16" display="none" transform="scale(8) translate(1)">
    <path d="M5 14c0 1.105.895 2 2 2s2-.895 2-2h-4z" class="iconic-bell-clapper iconic-property-force-fill iconic-property-accent iconic-property-fill" />
    <circle cx="7" cy="1" r="1" class="iconic-bell-crown iconic-property-force-fill iconic-property-fill" />
    <path d="M0 13c0-1.04.509-1.981 1.333-2.662 1.648-1.363 1.667-3.245 1.667-5.325v-.013c0-2.209 1.791-4 4-4s4 1.791 4 4v.013c0 2.079.019 3.962 1.667 5.325.824.681 1.333 1.623 1.333 2.662h-14z" class="iconic-bell-body iconic-property-fill" />
  </g>
</svg>