<svg xmlns="http://www.w3.org/2000/svg" class="iconic iconic-circle-x" width="128" height="128" viewBox="0 0 128 128">
  <g class="iconic-metadata">
    <title>Circle X</title>
  </g>
  <defs>
    <clipPath id="iconic-size-lg-circle-x-clip-0">
      <path d="M0 0v128h128v-128h-128zm90.657 85l-5.657 5.657-21-21-21 21-5.657-5.657 21-21-21-21 5.657-5.657 21 21 21-21 5.657 5.657-21 21 21 21z" />
    </clipPath>
    <clipPath id="iconic-size-md-circle-x-clip-0">
      <path d="M0 0v32h32v-32h-32zm23.121 21l-2.121 2.121-5-5-5 5-2.121-2.121 5-5-5-5 2.121-2.121 5 5 5-5 2.121 2.121-5 5 5 5z" />
    </clipPath>
    <clipPath id="iconic-size-sm-circle-x-clip-0">
      <path d="M0 0v16h16v-16h-16zm11.414 10l-1.414 1.414-2-2-2 2-1.414-1.414 2-2-2-2 1.414-1.414 2 2 2-2 1.414 1.414-2 2 2 2z" />
    </clipPath>
  </defs>
  <g class="iconic-circle-x-lg iconic-container iconic-lg" data-width="128" data-height="128" display="inline">
    <circle cx="64" cy="64" r="64" clip-path="url(#iconic-size-lg-circle-x-clip-0)" class="iconic-circle-x-body iconic-property-fill" />
  </g>
  <g class="iconic-circle-x-md iconic-container iconic-md" data-width="32" data-height="32" display="none" transform="scale(4)">
    <circle cx="16" cy="16" r="16" clip-path="url(#iconic-size-md-circle-x-clip-0)" class="iconic-circle-x-body iconic-property-fill" />
  </g>
  <g class="iconic-circle-x-sm iconic-container iconic-sm" data-width="16" data-height="16" display="none" transform="scale(8)">
    <circle cx="8" cy="8" r="8" clip-path="url(#iconic-size-sm-circle-x-clip-0)" class="iconic-circle-x-body iconic-property-fill" />
  </g>
</svg>