<svg xmlns="http://www.w3.org/2000/svg" class="iconic iconic-cog" width="128" height="128" viewBox="0 0 128 128">
  <g class="iconic-metadata">
    <title>Cog</title>
  </g>
  <g class="iconic-cog-lg iconic-container iconic-lg" data-width="128" data-height="128" display="inline">
    <path d="M128 73.875v-19.875l-14.323-3.581c-1.156-4.239-2.841-8.257-4.979-11.986l7.539-12.706-14.054-14.054-12.666 7.599c-3.731-2.133-7.751-3.814-11.992-4.966l-3.651-14.308h-19.875l-3.581 14.323c-4.239 1.156-8.257 2.841-11.986 4.978l-12.706-7.539-14.054 14.054 7.599 12.666c-2.133 3.731-3.814 7.751-4.966 11.992l-14.308 3.651v19.875l14.323 3.581c1.156 4.239 2.841 8.257 4.979 11.986l-7.539 12.706 14.054 14.054 12.666-7.599c3.731 2.133 7.751 3.814 11.992 4.966l3.651 14.308h19.875l3.581-14.323c4.239-1.156 8.257-2.841 11.986-4.979l12.705 7.539 14.054-14.054-7.599-12.666c2.133-3.731 3.814-7.751 4.966-11.992l14.308-3.651zm-64 24.125c-18.778 0-34-15.222-34-34s15.222-34 34-34 34 15.222 34 34-15.222 34-34 34z"
    class="iconic-cog-body iconic-property-fill" />
  </g>
  <g class="iconic-cog-md iconic-container iconic-md" data-width="32" data-height="32" display="none" transform="scale(4)">
    <path d="M32 17.969v-3.969l-3.96-1.32c-.278-1.01-.675-1.969-1.183-2.86l1.849-3.742-2.806-2.807-3.73 1.865c-.891-.507-1.851-.903-2.861-1.18l-1.339-3.957h-3.969l-1.32 3.96c-1.01.278-1.969.675-2.86 1.183l-3.742-1.849-2.806 2.806 1.865 3.73c-.507.891-.903 1.851-1.18 2.861l-3.957 1.339v3.969l3.96 1.32c.278 1.01.675 1.969 1.183 2.86l-1.849 3.742 2.806 2.806 3.73-1.865c.891.507 1.851.903 2.861 1.18l1.34 3.957h3.969l1.32-3.96c1.01-.278 1.969-.675 2.86-1.183l3.742 1.849 2.806-2.806-1.865-3.73c.507-.891.903-1.851 1.18-2.861l3.957-1.34zm-16 5.031c-3.866 0-7-3.134-7-7s3.134-7 7-7 7 3.134 7 7-3.134 7-7 7z"
    class="iconic-cog-body iconic-property-fill" />
  </g>
  <g class="iconic-cog-sm iconic-container iconic-sm" data-width="16" data-height="16" display="none" transform="scale(8)">
    <path d="M16 8.984v-1.984l-1.971-.986c-.099-.3-.221-.59-.362-.869l.833-2.146-1.5-1.5-2.146.833c-.279-.141-.568-.263-.869-.362l-1.001-1.971h-1.984l-.986 1.971c-.3.099-.59.221-.869.362l-2.146-.833-1.5 1.5.833 2.146c-.141.279-.263.568-.362.869l-1.971 1.001v1.984l1.971.986c.099.3.221.59.362.868l-.833 2.146 1.5 1.5 2.146-.833c.279.141.568.263.869.362l1.001 1.971h1.984l.986-1.971c.3-.099.59-.221.869-.362l2.146.833 1.5-1.5-.833-2.146c.141-.279.263-.568.362-.869l1.971-1.001zm-8 2.016c-1.657 0-3-1.343-3-3s1.343-3 3-3 3 1.343 3 3-1.343 3-3 3z"
    class="iconic-cog-body iconic-property-fill" />
  </g>
</svg>