<svg version="1.1" xmlns="http://www.w3.org/2000/svg" data-icon="envelope" width="128" height="128" class="iconic iconic-envelope" viewBox="0 0 128 128">
  <g><title>Envelope</title></g>
  <g data-width="128" data-height="84" class="iconic-lg iconic-container" display="inline" transform="translate(0 22)">
    <g class="iconic-envelope-closed">
      <path d="M65.3 43.3l61.3-30.7c.7-.4 1.3-1.3 1.3-2.2v-9c0-.8-.7-1.5-1.5-1.5h-124.9c-.8.1-1.5.8-1.5 1.6v9c0 .8.6 1.8 1.3 2.2l61.3 30.7c.8.3 2 .3 2.7-.1z" class="iconic-envelope-closed-envelope-flap iconic-property-accent iconic-property-fill"/>
      <path d="M62.7 51.3l-61.4-30.6c-.7-.4-1.3 0-1.3.8v61c0 .8.7 1.5 1.5 1.5h125c.8 0 1.5-.7 1.5-1.5v-61c0-.8-.6-1.2-1.3-.8l-61.4 30.6c-.7.4-1.9.4-2.6 0z" class="iconic-envelope-closed-envelope-body iconic-property-fill"/>
    </g>
  </g>
  <g data-width="128" data-height="116" class="iconic-lg iconic-container" display="inline" transform="translate(0 6)">
    <g class="iconic-envelope-open" display="none">
      <path d="M64 0l-64 32v84h128v-84l-64-32zm0 84l-56-28v-19.1l56-28 56 28v19.1l-56 28z" class="iconic-envelope-open-envelope iconic-property-fill"/>
      <path class="iconic-envelope-open-letter iconic-property-accent iconic-property-fill" d="M64 79l52-26v-13h-104v13z"/>
    </g>
  </g>
  <g data-width="32" data-height="22" class="iconic-md iconic-container" display="none" transform="scale(4) translate(0 5)">
    <g class="iconic-envelope-closed">
      <path d="M16.4 10.8l15.1-7.6c.3-.1.5-.4.5-.7v-2c0-.3-.2-.5-.5-.5h-31c-.3 0-.5.2-.5.5v2c0 .3.2.6.4.7l15.1 7.6c.3.1.7.1.9 0z" class="iconic-envelope-closed-envelope-flap iconic-property-accent iconic-property-fill"/>
      <path d="M15.6 13.8l-15.2-7.6c-.2-.1-.4 0-.4.3v15c0 .3.2.5.5.5h31c.3 0 .5-.2.5-.5v-15c0-.3-.2-.4-.4-.3l-15.1 7.6c-.3.1-.7.1-.9 0z" class="iconic-envelope-closed-envelope-body iconic-property-fill"/>
    </g>
  </g>
  <g data-width="32" data-height="32" class="iconic-md iconic-container" display="none" transform="scale(4)">
    <g class="iconic-envelope-open" display="none">
      <path d="M16 0l-16 8v24h32v-24l-16-8zm0 24l-13-6.5v-7.6l13-6.5 13 6.5v7.6l-13 6.5z" class="iconic-envelope-open-envelope iconic-property-fill"/>
    <path class="iconic-envelope-open-letter iconic-property-accent iconic-property-fill" d="M16 21.5l11-5.5v-4h-22v4z"/>
    </g>
  </g>
  <g data-width="16" data-height="12" class="iconic-sm iconic-container" display="none" transform="scale(8) translate(0 2)">
    <g class="iconic-envelope-closed">
      <path class="iconic-envelope-closed-envelope-flap iconic-property-accent iconic-property-fill" d="M8 6l8-4v-2h-16v2z"/>
      <path class="iconic-envelope-closed-envelope-body iconic-property-fill" d="M8 8l-8-4v8h16v-8z"/>
    </g>
  </g>
  <g data-width="16" data-height="16" class="iconic-sm iconic-container" display="none" transform="scale(8)">
    <g class="iconic-envelope-open" display="none">
      <path d="M8 0l-8 4v12h16v-12l-8-4zm0 12l-6-3v-3.8l6-3 6 3v3.8l-6 3z" class="iconic-envelope-open-envelope iconic-property-fill"/>
      <path class="iconic-envelope-open-letter iconic-property-accent iconic-property-fill" d="M8 10.5l5-2.5v-2h-10v2z"/>
    </g>
  </g>
<script class="iconic-api" type="application/ecmascript">
//<![CDATA[
var iconicApis=window._Iconic?window._Iconic.smartIconApis:{};iconicApis["envelope"]=iconicApis["envelope"]||function(t){var e=function(e){t.setAttribute("data-state",e);var i,r,a=t.querySelectorAll(".iconic-envelope-closed"),n=t.querySelectorAll(".iconic-envelope-open");i=r="none","open"===e?i="inline":r="inline";for(var o=0;o<a.length;o++)a[o].setAttribute("display",r),n[o].setAttribute("display",i)},i=function(){var i=t.getAttribute("data-state");i&&e(i)};return{update:i,setState:e}};
//]]>
</script>
</svg>
