<?xml version="1.0" standalone="no"?>
<!DOCTYPE svg PUBLIC "-//W3C//DTD SVG 1.1//EN" "http://www.w3.org/Graphics/SVG/1.1/DTD/svg11.dtd" >
<svg xmlns="http://www.w3.org/2000/svg">
<metadata></metadata>
<defs>
<font id="ge_flowregular" horiz-adv-x="1126" >
<font-face units-per-em="2048" ascent="1638" descent="-410" />
<missing-glyph horiz-adv-x="352" />
<glyph unicode="&#x627;&#x653;" horiz-adv-x="452" d="M-127 1540q64 36 108 51t89 15q38 0 107 -15.5t104 -15.5q53 0 127 35l127 -113q-74 -40 -122 -55t-106 -15q-39 0 -107.5 14.5t-101.5 14.5q-39 0 -92 -20zM113 0v1327h256v-1327h-256z" />
<glyph unicode="&#x627;&#x654;" horiz-adv-x="452" d="M-39 1440v100h90v21q0 25 5.5 51t21 60t52 55.5t89.5 21.5q115 0 158 -102l-109 -19q-19 25 -45 25q-59 0 -59 -90v-23h235v-100h-438zM113 0v1327h256v-1327h-256z" />
<glyph unicode="&#x648;&#x654;" horiz-adv-x="1034" d="M113 444q0 242 108 376t307 134h420v-888q0 -210 -123.5 -323t-330.5 -105l2 212q43 0 83.5 9.5t82.5 32t67 70t23 114.5q-81 -133 -246 -133q-393 0 -393 501zM299 1106v117h100v22q0 21 3.5 43.5t15.5 54t31.5 55.5t56.5 41t86 17q129 0 176 -113l-123 -26 q-23 33 -51 33q-68 0 -68 -105v-22h269v-117h-496zM369 449q0 -32 0.5 -51t3.5 -52.5t9 -54.5t18 -47t29 -40.5t43 -25t60 -10.5q29 0 52.5 6t40 19t28.5 26t19 36t11.5 39t6 44.5t2 43.5t0.5 44v12v289h-145q-53 0 -90.5 -27.5t-55 -73t-25 -88.5t-7.5 -89z" />
<glyph unicode="&#x627;&#x655;" horiz-adv-x="452" d="M-39 -307h90v16q0 26 5.5 52.5t21 60t52 55t89.5 21.5q115 0 158 -101l-109 -20q-18 26 -45 26q-21 0 -34 -9t-18 -25.5t-6 -27.5t-1 -28v-20h235v-105h-438v105zM113 0v1327h256v-1327h-256z" />
<glyph unicode="&#x64a;&#x654;" horiz-adv-x="1800" d="M20 932v115h101v20q0 22 3 44.5t15 54t31.5 55t56.5 40.5t86 17q129 0 176 -109l-122 -26q-24 31 -50 31q-24 0 -39 -10.5t-20.5 -30.5t-6.5 -32t-1 -32v-22h266v-115h-496zM113 0q17 225 40 333q22 103 56 179q59 133 138.5 215t206.5 126t308 42v-219q-76 0 -127 -6.5 t-104 -25.5t-94.5 -59.5t-75.5 -103.5q-47 -90 -72 -245h649v268q0 70 13.5 128t35 101.5t57 77.5t72 57t87.5 39.5t95 25t104 13.5t105 6.5t107 1.5v-505l-256 -132v381q-31 0 -58 -10t-52 -33t-39.5 -68t-14.5 -108v-479h-1181z" />
<glyph unicode="&#x64c;&#x651;" horiz-adv-x="0" arabic-form="isolated" d="M-86 2039.5q-3 11.5 4 18.5q17 24 38.5 43.5t48.5 35t53 15t53 -17.5q19 -14 19 -37.5t-9.5 -43t-28.5 -48.5q-3 -6 -12 -19t-13 -19.5t-8.5 -20t0.5 -21.5q5 -14 15.5 -20t24 -5t26 4t25.5 7.5t18 5.5q-19 23 -25 43q-21 69 49.5 120t160 40t114.5 -92l39 -134 q-252 -63 -279 -69q-229 -50 -258 53q-11 33 -3 64t22 50t28 38.5t15 29.5q1 25 -21 13q-10 -5 -32 -22q-38 -28 -48 -26q-13 3 -16 14.5zM21 1592.5q0 27.5 7 54t19 53.5l90 29q-10 -48 -18 -87q-10 -38 16 -39q28 -1 56 37q11 16 18 33q6 14 11.5 31.5t7.5 27.5l3 11 l70 20q1 -4 -1 -27t8 -51t32 -30q51 -2 51 119l88 14q1 -14 2 -29.5t1.5 -24.5t0.5 -16q8 -110 -67 -147q-71 -42 -148 -2q-49 -66 -139 -68q-39 -1 -64 11.5t-34.5 32.5t-9.5 47.5zM233 1968q9 -28 38 -30t51 8l67 16l-12 41q-6 22 -25 28t-51 -1q-21 -5 -35 -11t-26 -19.5 t-7 -31.5z" />
<glyph unicode="&#x64d;&#x651;" horiz-adv-x="0" arabic-form="isolated" d="M14 1470q49 119 152 138l397 92q-8 -35 -23.5 -61t-30 -40.5t-38.5 -26t-38 -15t-40 -9.5zM45 1651q49 118 152 137l397 92q-8 -35 -23.5 -61t-29.5 -40.5t-38.5 -25.5t-37.5 -14.5t-39 -9.5zM82.5 1947.5q-3.5 31.5 4 64.5t24.5 69l86 28q-11 -51 -19 -88 q-10 -39 16 -39q28 0 57 37q12 14 19 31l21 74l69 16q1 -4 -1.5 -27t7.5 -50.5t33 -28.5q16 -1 27 9t16 28t7.5 33.5t3 32t0.5 17.5l86 11q2 -12 3 -27t2 -24t3 -17q4 -110 -68 -149q-76 -37 -149 -2q-57 -66 -140 -66q-49 -1 -76.5 17.5t-31 50z" />
<glyph unicode="&#x64e;&#x651;" horiz-adv-x="0" arabic-form="isolated" d="M-8 1780q51 111 153 129l404 84q-9 -33 -25 -58t-31.5 -38.5t-39 -23t-38 -13t-38.5 -7.5zM21 1592.5q0 27.5 7 54t19 53.5l90 29q-10 -48 -18 -87q-10 -38 16 -39q28 -1 56 37q11 16 18 33q6 14 11.5 31.5t7.5 27.5l3 11l70 20q1 -4 -1 -27t8 -51t32 -30q51 -2 51 119 l88 14q1 -14 2 -29.5t1.5 -24.5t0.5 -16q8 -110 -67 -147q-71 -42 -148 -2q-49 -66 -139 -68q-39 -1 -64 11.5t-34.5 32.5t-9.5 47.5z" />
<glyph unicode="&#x64f;&#x651;" horiz-adv-x="0" arabic-form="isolated" d="M-41 1937.5q8 28.5 25 50t37 33.5t32 9q-19 -23 -23 -55.5t9 -51.5q36 -41 117 -6q-18 18 -23 43q-21 69 50.5 119t160.5 37t113 -97l37 -129q-254 -63 -281 -65q-42 -9 -74 -12.5t-69.5 -2t-65 18.5t-41.5 49q-12 31 -4 59.5zM21 1592.5q0 27.5 7 54t19 53.5l90 29 q-10 -48 -18 -87q-10 -38 16 -39q28 -1 56 37q11 16 18 33q6 14 11.5 31.5t7.5 27.5l3 11l70 20q1 -4 -1 -27t8 -51t32 -30q51 -2 51 119l88 14q1 -14 2 -29.5t1.5 -24.5t0.5 -16q8 -110 -67 -147q-71 -42 -148 -2q-49 -66 -139 -68q-39 -1 -64 11.5t-34.5 32.5t-9.5 47.5z M223 1966q4 -15 12.5 -23.5t22.5 -9.5t24.5 0.5t26.5 5.5l68 19l-10 39q-10 41 -74 31q-23 -5 -37.5 -10.5t-26.5 -19t-6 -32.5z" />
<glyph unicode="&#x650;&#x651;" horiz-adv-x="0" arabic-form="isolated" d="M20 1466q49 108 154 127l404 84q-9 -32 -24.5 -56.5t-31 -38t-39 -23.5t-38.5 -13.5t-39 -7.5zM63.5 1731.5q-3.5 31.5 3.5 64t23 68.5l88 28q-12 -51 -20 -88q-9 -39 17 -39q28 0 57 38q11 14 18 30q5 14 10 32.5t8 30.5l2 11l70 16q2 -4 -0.5 -27t8 -50.5t33.5 -28.5 q19 -1 31 16t15 37t4.5 42.5t2.5 24.5l86 11q2 -19 3.5 -40.5t2.5 -27.5q4 -111 -67 -147q-77 -39 -150 -4q-18 -24 -52.5 -44t-84.5 -20q-50 -1 -77.5 17t-31 49.5z" />
<glyph unicode="&#xfedf;&#xfee0;&#xfeea;" horiz-adv-x="2516" arabic-form="isolated" d="M113 471q0 241 106.5 362t306.5 121h422v-718h318q79 0 122.5 39.5t43.5 107.5v940h258v-946q0 -66 47.5 -103.5t140.5 -37.5h39q258 0 258 186v901h256v-915q0 -189 -138 -298.5t-376 -109.5h-39q-182 0 -309 100q-109 -100 -303 -100h-740q-56 0 -111.5 15t-110.5 51 t-97 88.5t-68 134.5t-26 182zM369 471q0 -93 48 -164t124 -71h151v493h-151q-50 0 -86 -25t-53.5 -66.5t-25 -82.5t-7.5 -84zM1299.5 1511.5q-3.5 31.5 2.5 64t21 69.5l90 26q-12 -49 -22 -86q-9 -40 18 -40q28 0 58 38q11 15 18 31l18 72l74 18q-1 -4 -1.5 -11t0 -25 t3.5 -32.5t12 -26.5t23 -14q16 -1 27 10t16 28.5t7 33.5t2.5 32t0.5 17l88 13q3 -57 6 -68q4 -114 -67 -150q-79 -39 -150 -2q-57 -65 -139 -65q-49 -1 -75.5 17.5t-30 50z" />
<glyph unicode="&#xfedf;&#xfe82;" horiz-adv-x="1079" arabic-form="isolated" d="M-127 1540q64 36 108 51t89 15q38 0 107 -15.5t104 -15.5q53 0 127 35l127 -113q-74 -40 -122 -55t-106 -15q-39 0 -107.5 14.5t-101.5 14.5q-39 0 -92 -20zM113 0v236h172v1087h262v-1087h33q37 0 77 27.5t58 68.5q7 16 11 35t6.5 33.5t3.5 37t1 33.5v36.5v33.5v786h256 v-899q0 -194 -115.5 -311t-293.5 -117h-471z" />
<glyph unicode="&#xfee0;&#xfe82;" horiz-adv-x="1222" arabic-form="final" d="M-127 1540q64 36 108 51t89 15q38 0 107 -15.5t104 -15.5q53 0 127 35l127 -113q-74 -40 -122 -55t-106 -15q-39 0 -107.5 14.5t-101.5 14.5q-39 0 -92 -20zM113 0v236h172v1087h262v-1087h33q37 0 77 27.5t58 68.5q7 16 11 35t6.5 33.5t3.5 37t1 33.5v36.5v33.5v786h256 v-899q0 -43 -2 -61q5 -62 52.5 -96.5t136.5 -34.5h73v-236h-73q-182 0 -310 106h-4q-106 -106 -282 -106h-471z" />
<glyph unicode="&#xfedf;&#xfe84;" horiz-adv-x="1079" arabic-form="isolated" d="M-39 1440v100h90v21q0 25 5.5 51t21 60t52 55.5t89.5 21.5q115 0 158 -102l-109 -19q-19 25 -45 25q-59 0 -59 -90v-23h235v-100h-438zM113 0v236h172v1087h262v-1087h33q37 0 77 27.5t58 68.5q7 16 11 35t6.5 33.5t3.5 37t1 33.5v36.5v33.5v786h256v-899 q0 -194 -115.5 -311t-293.5 -117h-471z" />
<glyph unicode="&#xfee0;&#xfe84;" horiz-adv-x="1222" arabic-form="final" d="M-39 1440v100h90v21q0 25 5.5 51t21 60t52 55.5t89.5 21.5q115 0 158 -102l-109 -19q-19 25 -45 25q-59 0 -59 -90v-23h235v-100h-438zM113 0v236h172v1087h262v-1087h33q37 0 77 27.5t58 68.5q7 16 11 35t6.5 33.5t3.5 37t1 33.5v36.5v33.5v786h256v-899q0 -43 -2 -61 q5 -62 52.5 -96.5t136.5 -34.5h73v-236h-73q-182 0 -310 106h-4q-106 -106 -282 -106h-471z" />
<glyph unicode="&#xfedf;&#xfe88;" horiz-adv-x="1079" arabic-form="isolated" d="M-39 -307h90v16q0 26 5.5 52.5t21 60t52 55t89.5 21.5q115 0 158 -101l-109 -20q-18 26 -45 26q-21 0 -34 -9t-18 -25.5t-6 -27.5t-1 -28v-20h235v-105h-438v105zM113 0v236h172v1087h262v-1087h33q37 0 77 27.5t58 68.5q7 16 11 35t6.5 33.5t3.5 37t1 33.5v36.5v33.5 v786h256v-899q0 -194 -115.5 -311t-293.5 -117h-471z" />
<glyph unicode="&#xfee0;&#xfe88;" horiz-adv-x="1222" arabic-form="final" d="M-39 -307h90v16q0 26 5.5 52.5t21 60t52 55t89.5 21.5q115 0 158 -101l-109 -20q-18 26 -45 26q-21 0 -34 -9t-18 -25.5t-6 -27.5t-1 -28v-20h235v-105h-438v105zM113 0v236h172v1087h262v-1087h33q37 0 77 27.5t58 68.5q7 16 11 35t6.5 33.5t3.5 37t1 33.5v36.5v33.5 v786h256v-899q0 -43 -2 -61q5 -62 52.5 -96.5t136.5 -34.5h73v-236h-73q-182 0 -310 106h-4q-106 -106 -282 -106h-471z" />
<glyph unicode="&#xfedf;&#xfe8e;" horiz-adv-x="1079" arabic-form="isolated" d="M113 0v236h172v1087h262v-1087h33q37 0 77 27.5t58 68.5q7 16 11 35t6.5 33.5t3.5 37t1 33.5v36.5v33.5v786h256v-899q0 -194 -115.5 -311t-293.5 -117h-471z" />
<glyph unicode="&#xfee0;&#xfe8e;" horiz-adv-x="1222" arabic-form="final" d="M113 0v236h172v1087h262v-1087h33q37 0 77 27.5t58 68.5q7 16 11 35t6.5 33.5t3.5 37t1 33.5v36.5v33.5v786h256v-899q0 -43 -2 -61q5 -62 52.5 -96.5t136.5 -34.5h73v-236h-73q-182 0 -310 106h-4q-106 -106 -282 -106h-471z" />
<glyph unicode="&#x671;" horiz-adv-x="452" arabic-form="isolated" d="M49 1452l33 90h39q16 0 16 19v102h90l-6 -53q13 35 29 51q34 39 84 39q66 0 95.5 -36t29.5 -79q0 -18 -6 -38t-20 -42.5t-45 -37.5t-73 -15h-266zM113 0v1327h256v-1327h-256zM242 1542h73q19 0 32 10.5t13 32.5q0 13 -10 21t-20 8q-55 0 -88 -72z" />
<glyph unicode="&#x671;" horiz-adv-x="550" arabic-form="final" d="M49 1452l33 90h39q16 0 16 19v102h90l-6 -53q13 35 29 51q34 39 84 39q66 0 95.5 -36t29.5 -79q0 -18 -6 -38t-20 -42.5t-45 -37.5t-73 -15h-266zM113 420v907h256v-901q0 -97 52.5 -143.5t180.5 -46.5v-236q-238 0 -363.5 111t-125.5 309zM242 1542h73q19 0 32 10.5 t13 32.5q0 13 -10 21t-20 8q-55 0 -88 -72z" />
<glyph unicode="&#x67e;" horiz-adv-x="1605" arabic-form="final" d="M113 422v534h256v-528q0 -100 40.5 -146t137.5 -46h387q97 0 141.5 47.5t44.5 144.5v528h256v-553q9 -81 69 -124t161 -43h30v-236h-30q-102 0 -190 37t-134 100q-122 -134 -348 -137h-373q-210 0 -329 112.5t-119 309.5zM498 -170h209v-258h-209v258zM651 -510h207v-223 h-207v223zM809 -170h205v-258h-205v258z" />
<glyph unicode="&#x67e;" horiz-adv-x="557" arabic-form="initial" d="M-43 -158h207v-260h-207v260zM-31 0v231q129 0 188.5 46t59.5 139v573h256v-581q0 -190 -133.5 -299t-370.5 -109zM111 -498h204v-223h-204v223zM264 -158h207v-260h-207v260z" />
<glyph unicode="&#x67e;" horiz-adv-x="698" arabic-form="medial" d="M-88 -170h207v-258h-207v258zM-31 0v236h74q79 0 122.5 39.5t43.5 107.5v606h258v-612q0 -66 47.5 -103.5t140.5 -37.5h64v-236h-64q-186 3 -309 100q-109 -100 -303 -100h-74zM66 -510h204v-223h-204v223zM219 -170h207v-258h-207v258z" />
<glyph unicode="&#x6a4;" horiz-adv-x="1675" arabic-form="final" d="M113 422v414h256v-408q0 -192 196 -192h293q-75 81 -115 185t-24 208q22 152 137 254t303 102q189 0 303 -101.5t137 -254.5q16 -104 -24.5 -208t-116.5 -185h248v-236h-317q-126 0 -232 33q-106 -33 -227 -33h-361q-210 0 -333 113t-123 309zM907 1135v256h205v-256 h-205zM977 618q-15 -91 37.5 -182.5t144.5 -144.5q93 53 144 143.5t36 183.5q-9 65 -61 109.5t-121 44.5q-68 0 -118.5 -43.5t-61.5 -110.5zM1057 1475v223h207v-223h-207zM1214 1135v256h205v-256h-205z" />
<glyph unicode="&#x6a4;" horiz-adv-x="1110" arabic-form="initial" d="M-31 0v236h232q-43 101 -43 245q0 231 114.5 363.5t319.5 132.5q204 0 318 -133t114 -369q0 -234 -112 -354.5t-320 -120.5h-623zM332 1135v256h209v-256h-209zM420 481q0 -99 21 -153.5t56 -73t95 -18.5q59 0 94 18.5t56.5 73t21.5 151.5q0 156 -43.5 217.5t-128.5 61.5 q-84 0 -128 -61.5t-44 -215.5zM483 1475v223h209v-223h-209zM641 1135v256h207v-256h-207z" />
<glyph unicode="&#x6a4;" horiz-adv-x="1034" arabic-form="medial" d="M-31 0v236h248q-75 80 -115 184t-26 209q25 153 139.5 254.5t302.5 101.5t302 -102t136 -254q16 -104 -24 -208t-115 -185h248v-236h-315q-126 0 -232 33q-109 -33 -231 -33h-318zM258 1135v256h209v-256h-209zM336 618q-15 -91 37.5 -182.5t144.5 -144.5 q93 54 145 144.5t35 182.5q-11 65 -61.5 109.5t-118.5 44.5q-71 0 -122 -43.5t-60 -110.5zM412 1475v223h204v-223h-204zM565 1135v256h209v-256h-209z" />
<glyph unicode="&#x686;" horiz-adv-x="1374" arabic-form="final" d="M113 -197q0 56 12.5 111.5t45 115t81.5 104t129.5 73.5t181.5 29h322q-4 84 -24 154.5t-51 119t-70.5 86.5t-82 60.5t-85 38t-80 21.5t-67 9t-46.5 3l-17 -1v234q158 0 286.5 -37.5t217.5 -103.5t150.5 -158.5t92 -198.5t34.5 -227h262v-236h-842q-99 1 -150 -58 t-51 -139v-165h-249v165zM600 -135h205v-225h-205v225zM752 -442h204v-189h-204v189zM907 -135h205v-225h-205v225z" />
<glyph unicode="&#x686;" horiz-adv-x="983" arabic-form="initial" d="M-43 0v236h680q-3 83 -23 152.5t-51 117t-70 85.5t-82 60.5t-85 38t-80 22t-67.5 9.5t-46.5 3l-17 -1v229q163 0 295.5 -40t222.5 -109t150.5 -165t88 -206t27.5 -235v-197h-942zM156 -170h204v-258h-204v258zM307 -510h205v-223h-205v223zM461 -170h209v-258h-209v258z " />
<glyph unicode="&#x686;" arabic-form="medial" d="M-31 0v236h668q-3 83 -23 152.5t-51 117t-70 85.5t-82 60.5t-85 38t-80 22t-67.5 9.5t-46.5 3l-17 -1v229q158 0 286.5 -37.5t217.5 -102.5t150.5 -156t91.5 -196t34 -224h262v-236h-1188zM248 -170h205v-258h-205v258zM399 -510h207v-223h-207v223zM555 -170h209v-258 h-209v258z" />
<glyph unicode="&#x698;" horiz-adv-x="686" arabic-form="final" d="M-66 1133v256h209v-256h-209zM0 -137q33 0 60 6t46.5 14.5t35 26t25.5 31t17 38.5t10 41t5 46t2 45v46v15v784h252q0 -350 4 -536q0 -92 71 -138t181 -46h10v-236h-10q-28 0 -68.5 3.5t-100 18.5t-87.5 39q0 -84 -28.5 -161t-82.5 -138.5t-142.5 -97t-199.5 -31.5v230z M88 1473v223h205v-223h-205zM242 1133v256h209v-256h-209z" />
<glyph unicode="&#x6cc;" horiz-adv-x="569" arabic-form="initial" d="M-119 -158h230v-256h-230v256zM-20 0v236h20q125 3 176 47t51 137v536h256v-548q0 -190 -125.5 -298.5t-357.5 -109.5h-20zM211 -158h227v-256h-227v256z" />
<glyph unicode="&#x6cc;" horiz-adv-x="698" arabic-form="medial" d="M-104 -158h227v-256h-227v256zM-31 0v236h74q79 0 122.5 39.5t43.5 107.5v571h258v-577q0 -66 47.5 -103.5t140.5 -37.5h74v-236h-74q-182 0 -309 100q-109 -100 -303 -100h-74zM225 -158h228v-256h-228v256z" />
<glyph unicode="&#xfd3c;" horiz-adv-x="452" arabic-form="final" d="M-33 1401q43 114 150 137l399 94q-11 -43 -30.5 -72.5t-45.5 -45t-46.5 -22t-49.5 -11.5zM-2 1581q45 113 149 137l400 94q-11 -43 -30 -72.5t-44.5 -45t-45.5 -22t-48 -11.5zM113 0v1327h256v-1327h-256z" />
<glyph unicode="&#xfd3d;" horiz-adv-x="550" arabic-form="isolated" d="M-33 1401q43 114 150 137l399 94q-11 -43 -30.5 -72.5t-45.5 -45t-46.5 -22t-49.5 -11.5zM-2 1581q45 113 149 137l400 94q-11 -43 -30 -72.5t-44.5 -45t-45.5 -22t-48 -11.5zM113 420v907h256v-901q0 -97 52.5 -143.5t180.5 -46.5v-236q-238 0 -363.5 111t-125.5 309z " />
<glyph unicode="&#x622;" horiz-adv-x="550" arabic-form="final" d="M-127 1540q64 36 108 51t89 15q38 0 107 -15.5t104 -15.5q53 0 127 35l127 -113q-74 -40 -122 -55t-106 -15q-39 0 -107.5 14.5t-101.5 14.5q-39 0 -92 -20zM113 420v907h256v-901q0 -97 52.5 -143.5t180.5 -46.5v-236q-238 0 -363.5 111t-125.5 309z" />
<glyph unicode="&#x623;" horiz-adv-x="550" arabic-form="final" d="M-39 1440v100h90v21q0 25 5.5 51t21 60t52 55.5t89.5 21.5q115 0 158 -102l-109 -19q-19 25 -45 25q-59 0 -59 -90v-23h235v-100h-438zM113 420v907h256v-901q0 -97 52.5 -143.5t180.5 -46.5v-236q-238 0 -363.5 111t-125.5 309z" />
<glyph unicode="&#x624;" horiz-adv-x="1159" arabic-form="final" d="M113 451q0 244 107 374.5t304 130.5h424v-720h244v-236h-246q-23 -167 -140 -271.5t-278 -113.5l-45 -4v237q78 1 133.5 45t61.5 107h-154q-57 0 -112 13t-110 46.5t-96.5 83t-67 129t-25.5 179.5zM299 1106v117h100v22q0 21 3.5 43.5t15.5 54t31.5 55.5t56.5 41t86 17 q129 0 176 -113l-123 -26q-23 33 -51 33q-68 0 -68 -105v-22h269v-117h-496zM369 451q0 -92 41.5 -153.5t117.5 -61.5h164v491h-164q-40 0 -70 -19t-46.5 -47.5t-26.5 -68t-13 -72.5t-3 -69z" />
<glyph unicode="&#x625;" horiz-adv-x="550" arabic-form="final" d="M-39 -307h90v16q0 26 5.5 52.5t21 60t52 55t89.5 21.5q115 0 158 -101l-109 -20q-18 26 -45 26q-21 0 -34 -9t-18 -25.5t-6 -27.5t-1 -28v-20h235v-105h-438v105zM113 420v907h256v-901q0 -97 52.5 -143.5t180.5 -46.5v-236q-238 0 -363.5 111t-125.5 309z" />
<glyph unicode="&#x626;" horiz-adv-x="1830" arabic-form="final" d="M-90 932v115h100v20q0 21 3.5 44t15.5 54.5t31.5 55t56.5 40.5t86 17q128 0 178 -109l-125 -26q-22 31 -51 31q-64 0 -64 -105v-22h265v-115h-496zM2 0q1 7 6 70.5t7.5 87.5t10.5 84t16.5 96.5t22.5 85.5t31 88q60 133 140 215t207.5 126t308.5 42v-219 q-61 0 -103.5 -3.5t-89 -15t-81 -32.5t-68.5 -57t-62 -87q-33 -70 -72 -245h654v268q0 70 13.5 128t35 101.5t57 77.5t71.5 57t87 39.5t95 25t103.5 13.5t104 6.5t105.5 1.5v-718h260v-236h-512v698q-70 0 -117 -49.5t-47 -169.5v-479h-1184z" />
<glyph unicode="&#x626;" horiz-adv-x="569" arabic-form="initial" d="M-35 1135v114h105v23q-1 21 2 44.5t15 55t31.5 55.5t57 41t86.5 17q125 0 174 -113l-123 -26q-23 30 -49 30q-19 0 -33 -8t-20 -17.5t-9.5 -26.5t-4 -25t-0.5 -23v-27h268v-114h-500zM-31 0v236q258 0 258 184v536h256v-548q0 -189 -138 -298.5t-376 -109.5z" />
<glyph unicode="&#x626;" horiz-adv-x="698" arabic-form="medial" d="M-31 0v236h74q79 0 122.5 39.5t43.5 107.5v573h258v-579q0 -66 47.5 -103.5t140.5 -37.5h74v-236h-74q-182 0 -309 100q-109 -100 -303 -100h-74zM10 1135v114h90v23q0 21 3.5 44t15.5 55t32 56t57.5 41t86.5 17q124 0 176 -113l-125 -26q-21 30 -47 30q-68 0 -68 -100 v-27h242v-114h-463z" />
<glyph unicode="&#x627;" horiz-adv-x="550" arabic-form="final" d="M113 420v907h256v-901q0 -97 52.5 -143.5t180.5 -46.5v-236q-238 0 -363.5 111t-125.5 309z" />
<glyph unicode="&#x628;" horiz-adv-x="1605" arabic-form="final" d="M113 422v534h256v-528q0 -100 40.5 -146t137.5 -46h387q97 0 141.5 47.5t44.5 144.5v528h256v-553q9 -81 69 -124t161 -43h30v-236h-30q-102 0 -190 37t-134 100q-122 -134 -348 -137h-373q-210 0 -329 112.5t-119 309.5zM633 -158h260v-256h-260v256z" />
<glyph unicode="&#x628;" horiz-adv-x="569" arabic-form="initial" d="M-31 0v236q258 0 258 184v536h256v-548q0 -189 -138 -298.5t-376 -109.5zM160 -158h260v-256h-260v256z" />
<glyph unicode="&#x628;" horiz-adv-x="698" arabic-form="medial" d="M-31 0v236h74q79 0 122.5 39.5t43.5 107.5v573h258v-579q0 -66 47.5 -103.5t140.5 -37.5h74v-236h-74q-182 0 -309 100q-109 -100 -303 -100h-74zM223 -158h258v-256h-258v256z" />
<glyph unicode="&#x629;" horiz-adv-x="1218" arabic-form="final" d="M113 471q0 241 106.5 362t306.5 121h422v-718h301v-236h-723q-56 0 -111.5 15t-110.5 51t-97 88.5t-68 134.5t-26 182zM344 1135v256h227v-256h-227zM369 471q0 -93 48 -164t124 -71h151v493h-151q-50 0 -86 -25t-53.5 -66.5t-25 -82.5t-7.5 -84zM674 1135v256h229v-256 h-229z" />
<glyph unicode="&#x62a;" horiz-adv-x="1605" arabic-form="final" d="M113 422v534h256v-528q0 -100 40.5 -146t137.5 -46h387q97 0 141.5 47.5t44.5 144.5v528h256v-553q9 -81 69 -124t161 -43h30v-236h-30q-102 0 -190 37t-134 100q-122 -134 -348 -137h-373q-210 0 -329 112.5t-119 309.5zM465 1135v256h227v-256h-227zM795 1135v256h227 v-256h-227z" />
<glyph unicode="&#x62a;" horiz-adv-x="569" arabic-form="initial" d="M-31 0v236q258 0 258 184v536h256v-548q0 -189 -138 -298.5t-376 -109.5zM-14 1135v256h204v-256h-204zM293 1135v256h205v-256h-205z" />
<glyph unicode="&#x62a;" horiz-adv-x="698" arabic-form="medial" d="M-51 1135v256h209v-256h-209zM-31 0v236h74q79 0 122.5 39.5t43.5 107.5v573h258v-579q0 -66 47.5 -103.5t140.5 -37.5h74v-236h-74q-182 0 -309 100q-109 -100 -303 -100h-74zM256 1135v256h209v-256h-209z" />
<glyph unicode="&#x62b;" horiz-adv-x="1605" arabic-form="final" d="M113 422v534h256v-528q0 -100 40.5 -146t137.5 -46h387q97 0 141.5 47.5t44.5 144.5v528h256v-553q9 -81 69 -124t161 -43h30v-236h-30q-102 0 -190 37t-134 100q-122 -134 -348 -137h-373q-210 0 -329 112.5t-119 309.5zM465 1135v256h231v-256h-231zM629 1475v258h227 v-258h-227zM797 1135v256h227v-256h-227z" />
<glyph unicode="&#x62b;" horiz-adv-x="569" arabic-form="initial" d="M-43 1135v256h207v-256h-207zM-31 0v236q258 0 258 184v536h256v-548q0 -189 -138 -298.5t-376 -109.5zM111 1475v223h204v-223h-204zM264 1135v256h207v-256h-207z" />
<glyph unicode="&#x62b;" horiz-adv-x="698" arabic-form="medial" d="M-31 0v236h74q79 0 122.5 39.5t43.5 107.5v573h258v-579q0 -66 47.5 -103.5t140.5 -37.5h74v-236h-74q-182 0 -309 100q-109 -100 -303 -100h-74zM-25 1135v256h207v-256h-207zM127 1475v223h205v-223h-205zM285 1135v256h204v-256h-204z" />
<glyph unicode="&#x62c;" horiz-adv-x="1374" arabic-form="final" d="M113 -197q0 56 12.5 111.5t45 115t81.5 104t129.5 73.5t181.5 29h322q-4 84 -24 154.5t-51 118.5t-70.5 85.5t-82 59.5t-85 37t-80 20.5t-67 8.5t-46.5 2l-17 -1v231q158 0 286.5 -37t217.5 -101.5t150.5 -155t92 -196t34.5 -226.5h262v-236h-842q-99 1 -150 -58 t-51 -139v-165h-249v165zM618 -104h259v-258h-259v258z" />
<glyph unicode="&#x62c;" horiz-adv-x="983" arabic-form="initial" d="M-31 0v236h668q-3 83 -23 152.5t-51 117t-70 85.5t-82 60.5t-85 38t-80 22t-67.5 9.5t-46.5 3l-17 -1v229q163 0 295.5 -40t222.5 -109t150.5 -165t88 -206t27.5 -235v-197h-930zM332 -158h256v-256h-256v256z" />
<glyph unicode="&#x62c;" arabic-form="medial" d="M-8 0v236h645q-3 83 -23 152.5t-51 117t-70 85t-82 59.5t-85 37.5t-80 21t-67.5 8.5t-46.5 3l-17 -1v227q158 0 286.5 -36.5t217.5 -101t150.5 -155t91.5 -194.5t34 -223h262v-236h-1165zM332 -158h256v-256h-256v256z" />
<glyph unicode="&#x62d;" horiz-adv-x="1374" arabic-form="final" d="M113 -197q0 56 12.5 111.5t45 115t81.5 104t129.5 73.5t181.5 29h322q-4 84 -24 154.5t-51 118.5t-70.5 85.5t-82 59.5t-85 37t-80 20.5t-67 8.5t-46.5 2l-17 -1v231q158 0 286.5 -37t217.5 -101.5t150.5 -155t92 -196t34.5 -226.5h262v-236h-842q-99 1 -150 -58 t-51 -139v-165h-249v165z" />
<glyph unicode="&#x62d;" horiz-adv-x="983" arabic-form="initial" d="M-31 0v236h668q-3 83 -23 152.5t-51 117t-70 85.5t-82 60.5t-85 38t-80 22t-67.5 9.5t-46.5 3l-17 -1v229q163 0 295.5 -40t222.5 -109t150.5 -165t88 -206t27.5 -235v-197h-930z" />
<glyph unicode="&#x62d;" arabic-form="medial" d="M-8 0v236h645q-3 83 -23 152.5t-51 117t-70 85t-82 59.5t-85 37.5t-80 21t-67.5 8.5t-46.5 3l-17 -1v227q158 0 286.5 -36.5t217.5 -101t150.5 -155t91.5 -194.5t34 -223h262v-236h-1165z" />
<glyph unicode="&#x62e;" horiz-adv-x="1374" arabic-form="final" d="M113 -197q0 56 12.5 111.5t45 115t81.5 104t129.5 73.5t181.5 29h322q-4 84 -24 154.5t-51 118.5t-70.5 85.5t-82 59.5t-85 37t-80 20.5t-67 8.5t-46.5 2l-17 -1v231q158 0 286.5 -37t217.5 -101.5t150.5 -155t92 -196t34.5 -226.5h262v-236h-842q-99 1 -150 -58 t-51 -139v-165h-249v165zM532 1067v262h256v-262h-256z" />
<glyph unicode="&#x62e;" horiz-adv-x="983" arabic-form="initial" d="M-31 0v236h668q-3 83 -23 152.5t-51 117t-70 85.5t-82 60.5t-85 38t-80 22t-67.5 9.5t-46.5 3l-17 -1v229q163 0 295.5 -40t222.5 -109t150.5 -165t88 -206t27.5 -235v-197h-930zM293 1135v256h256v-256h-256z" />
<glyph unicode="&#x62e;" arabic-form="medial" d="M-8 0v236h645q-3 83 -23 152.5t-51 117t-70 85t-82 59.5t-85 37.5t-80 21t-67.5 8.5t-46.5 3l-17 -1v227q158 0 286.5 -36.5t217.5 -101t150.5 -155t91.5 -194.5t34 -223h262v-236h-1165zM293 1135v256h256v-256h-256z" />
<glyph unicode="&#x62f;" horiz-adv-x="1030" arabic-form="final" d="M113 0v236h434v276q0 135 -37 183t-133 48l45 228q194 0 285.5 -93.5t91.5 -281.5v-360h262v-236h-948z" />
<glyph unicode="&#x630;" horiz-adv-x="1030" arabic-form="final" d="M113 0v236h434v276q0 135 -37 183t-133 48l45 228q194 0 285.5 -93.5t91.5 -281.5v-360h262v-236h-948zM420 1135v256h256v-256h-256z" />
<glyph unicode="&#x631;" horiz-adv-x="686" arabic-form="final" d="M0 -137q33 0 60 6t46.5 14.5t35 26t25.5 31t17 38.5t10 41t5 46t2 45v46v15v784h252q0 -350 4 -536q0 -93 61 -138.5t168 -45.5h33v-236h-33q-49 0 -120.5 13.5t-112.5 47.5q0 -84 -28.5 -161t-82.5 -138.5t-142.5 -97t-199.5 -31.5v230z" />
<glyph unicode="&#x632;" horiz-adv-x="686" arabic-form="final" d="M0 -137q33 0 60 6t46.5 14.5t35 26t25.5 31t17 38.5t10 41t5 46t2 45v46v15v784h252q0 -350 4 -536q0 -92 71 -138t181 -46h10v-236h-10q-28 0 -68.5 3.5t-100 18.5t-87.5 39q0 -84 -28.5 -161t-82.5 -138.5t-142.5 -97t-199.5 -31.5v230zM195 1067v256h256v-256h-256z " />
<glyph unicode="&#x633;" horiz-adv-x="2301" arabic-form="final" d="M113 55v619h256v-613q0 -188 186 -188q95 0 137.5 46.5t42.5 141.5v895h258v-720h332v720h260v-720h250v720h254l2 -720h238v-236h-1340q-17 -162 -130 -263t-279 -104h-56q-180 3 -295.5 120t-115.5 302z" />
<glyph unicode="&#x633;" horiz-adv-x="1718" arabic-form="initial" d="M-35 0v236h324v720h250v-720h331v720h260v-720h144q26 0 40 2t29 12t21.5 30.5t11 56.5t4.5 91v528h254v-604q0 -170 -93.5 -261t-260.5 -91h-1315z" />
<glyph unicode="&#x633;" horiz-adv-x="1849" arabic-form="medial" d="M-33 0v236h324v720h250v-720h331v720h261v-720h249v720h254l2 -720h238v-236h-1909z" />
<glyph unicode="&#x634;" horiz-adv-x="2301" arabic-form="final" d="M113 55v619h256v-613q0 -188 186 -188q95 0 137.5 46.5t42.5 141.5v895h258v-720h332v720h260v-720h250v720h254l2 -720h238v-236h-1340q-17 -162 -130 -263t-279 -104h-56q-180 3 -295.5 120t-115.5 302zM1194 1135v256h205v-256h-205zM1341 1475v223h209v-223h-209z M1499 1135v256h207v-256h-207z" />
<glyph unicode="&#x634;" horiz-adv-x="1718" arabic-form="initial" d="M-35 0v236h324v720h250v-720h331v720h260v-720h144q26 0 40 2t29 12t21.5 30.5t11 56.5t4.5 91v528h254v-604q0 -170 -93.5 -261t-260.5 -91h-1315zM739 1135v256h205v-256h-205zM887 1475v223h209v-223h-209zM1044 1135v256h207v-256h-207z" />
<glyph unicode="&#x634;" horiz-adv-x="1849" arabic-form="medial" d="M-33 0v236h324v720h250v-720h331v720h261v-720h249v720h254l2 -720h238v-236h-1909zM741 1135v256h205v-256h-205zM889 1475v223h209v-223h-209zM1047 1135v256h206v-256h-206z" />
<glyph unicode="&#x635;" horiz-adv-x="2058" arabic-form="final" d="M113 55v619h256v-613q0 -188 186 -188q95 0 137.5 46.5t42.5 141.5v895h258v-381q202 359 512 359q86 0 157 -27.5t117.5 -72t79 -102t46.5 -115.5t14 -115q-4 -144 -64 -266h211v-236h-1077q-17 -162 -130 -263t-279 -104h-56q-180 3 -295.5 120t-115.5 302zM1067 236 h387q107 0 157 73t50 197q0 83 -42.5 142t-119.5 59q-271 0 -432 -471z" />
<glyph unicode="&#x635;" horiz-adv-x="1552" arabic-form="initial" d="M-33 0v236h324v720h250v-381q202 359 512 359q86 0 157 -27.5t117.5 -72t78.5 -102t46 -115.5t14 -115q-1 -45 -9.5 -94t-28 -107.5t-55.5 -110.5t-85 -95.5t-124 -69t-165 -25.5h-1032zM614 236h385q98 0 153.5 75.5t55.5 194.5q0 83 -42 142t-119 59q-272 0 -433 -471z " />
<glyph unicode="&#x635;" horiz-adv-x="1601" arabic-form="medial" d="M-35 0v236h324v720h250v-376q40 71 87 129.5t109.5 111.5t143 83t170.5 30q86 0 157 -27.5t117.5 -72t78.5 -102t46 -115.5t14 -115q-4 -146 -63 -266h211v-236h-1645zM610 236h387q107 0 157 73t50 197q0 83 -42.5 142t-119.5 59q-271 0 -432 -471z" />
<glyph unicode="&#x636;" horiz-adv-x="2058" arabic-form="final" d="M113 55v619h256v-613q0 -188 186 -188q95 0 137.5 46.5t42.5 141.5v895h258v-381q202 359 512 359q86 0 157 -27.5t117.5 -72t79 -102t46.5 -115.5t14 -115q-4 -144 -64 -266h211v-236h-1077q-17 -162 -130 -263t-279 -104h-56q-180 3 -295.5 120t-115.5 302zM1067 236 h387q107 0 157 73t50 197q0 83 -42.5 142t-119.5 59q-271 0 -432 -471zM1364 1067v256h258v-256h-258z" />
<glyph unicode="&#x636;" horiz-adv-x="1552" arabic-form="initial" d="M-33 0v236h324v720h250v-381q202 359 512 359q86 0 157 -27.5t117.5 -72t78.5 -102t46 -115.5t14 -115q-1 -45 -9.5 -94t-28 -107.5t-55.5 -110.5t-85 -95.5t-124 -69t-165 -25.5h-1032zM614 236h385q98 0 153.5 75.5t55.5 194.5q0 83 -42 142t-119 59q-272 0 -433 -471z M911 1067v256h258v-256h-258z" />
<glyph unicode="&#x636;" horiz-adv-x="1601" arabic-form="medial" d="M-35 0v236h324v720h250v-376q40 71 87 129.5t109.5 111.5t143 83t170.5 30q86 0 157 -27.5t117.5 -72t78.5 -102t46 -115.5t14 -115q-4 -146 -63 -266h211v-236h-1645zM610 236h387q107 0 157 73t50 197q0 83 -42.5 142t-119.5 59q-271 0 -432 -471zM907 1067v256h258 v-256h-258z" />
<glyph unicode="&#x637;" horiz-adv-x="1554" arabic-form="final" d="M113 0l75 236h115v958h260l-22 -547q193 283 467 283q86 0 156.5 -27.5t117 -71.5t78 -101.5t45.5 -115.5t14 -116q0 -140 -61 -262h227v-236h-1472zM569 236h385q108 0 158.5 72t50.5 196q0 83 -42.5 142t-121.5 59q-266 0 -430 -469z" />
<glyph unicode="&#x637;" horiz-adv-x="1323" arabic-form="initial" d="M-31 0v236h154v958h260l-23 -547q193 283 467 283q86 0 157 -27.5t117.5 -71.5t78.5 -101.5t46 -116t13 -115.5q0 -37 -6 -78t-20.5 -90.5t-37.5 -95t-60 -89t-83.5 -75t-113 -51t-144.5 -19.5h-805zM389 236h387q106 0 156.5 72t50.5 196q0 83 -42.5 142t-119.5 59 q-268 0 -432 -469z" />
<glyph unicode="&#x637;" horiz-adv-x="1374" arabic-form="medial" d="M-31 0v236h154v958h260l-23 -547q193 283 467 283q86 0 157 -27.5t117.5 -71.5t78.5 -101.5t46 -116t13 -115.5q0 -140 -61 -262h227v-236h-1436zM389 236h399q97 0 146 74.5t49 193.5q0 83 -42.5 142t-119.5 59q-268 0 -432 -469z" />
<glyph unicode="&#x638;" horiz-adv-x="1554" arabic-form="final" d="M113 0l75 236h115v958h260l-22 -547q193 283 467 283q86 0 156.5 -27.5t117 -71.5t78 -101.5t45.5 -115.5t14 -116q0 -140 -61 -262h227v-236h-1472zM569 236h385q108 0 158.5 72t50.5 196q0 83 -42.5 142t-121.5 59q-266 0 -430 -469zM834 1067v256h258v-256h-258z" />
<glyph unicode="&#x638;" horiz-adv-x="1323" arabic-form="initial" d="M-31 0v236h154v958h260l-23 -547q193 283 467 283q86 0 157 -27.5t117.5 -71.5t78.5 -101.5t46 -116t13 -115.5q0 -37 -6 -78t-20.5 -90.5t-37.5 -95t-60 -89t-83.5 -75t-113 -51t-144.5 -19.5h-805zM389 236h387q106 0 156.5 72t50.5 196q0 83 -42.5 142t-119.5 59 q-268 0 -432 -469zM653 1067v256h258v-256h-258z" />
<glyph unicode="&#x638;" horiz-adv-x="1374" arabic-form="medial" d="M-31 0v236h154v958h260l-23 -547q193 283 467 283q86 0 157 -27.5t117.5 -71.5t78.5 -101.5t46 -116t13 -115.5q0 -140 -61 -262h227v-236h-1436zM389 236h399q97 0 146 74.5t49 193.5q0 83 -42.5 142t-119.5 59q-268 0 -432 -469zM653 1067v256h258v-256h-258z" />
<glyph unicode="&#x639;" horiz-adv-x="1470" arabic-form="final" d="M113 -195q0 42 10 90t35 103.5t61 102.5t94 84.5t129 50.5h39l-256 225q0 110 39 205.5t110 166.5t178 111.5t236 40.5t236 -40.5t178.5 -111.5t110.5 -166.5t39 -205.5l-260 -225h409v-236h-512q-105 0 -201 29q-108 -32 -200 -29l-25 2q-99 0 -150 -60.5t-51 -136.5 v-167h-249v167zM498 526q54 -51 147 -132.5t143 -121.5l291 254q-8 95 -86.5 164t-201.5 70q-122 4 -204.5 -66t-88.5 -168z" />
<glyph unicode="&#x639;" horiz-adv-x="1044" arabic-form="initial" d="M-31 0v236h191q-64 106 -64 262q0 30 4.5 66.5t17 84t32 92t52.5 88t75 76t102.5 52.5t132.5 20q128 0 220.5 -63.5t137.5 -176.5l-254 -53q-12 29 -40 47.5t-58 18.5q-39 0 -69.5 -19t-47.5 -46t-28.5 -62.5t-15 -64t-3.5 -54.5q0 -117 55 -192.5t140 -75.5h336l76 -236 h-992z" />
<glyph unicode="&#x639;" horiz-adv-x="1361" arabic-form="medial" d="M-31 0v236h408l-258 225q0 110 39 205.5t110 166.5t178 111.5t236 40.5t236 -40.5t178 -111.5t110 -166.5t39 -205.5l-260 -225h410v-236h-514q-108 0 -199 29q-99 -29 -201 -29h-512zM391 526q175 -161 291 -254l289 254q-6 95 -85 164t-202 70q-122 4 -204.5 -66 t-88.5 -168z" />
<glyph unicode="&#x63a;" horiz-adv-x="1470" arabic-form="final" d="M113 -195q0 42 10 90t35 103.5t61 102.5t94 84.5t129 50.5h39l-256 225q0 110 39 205.5t110 166.5t178 111.5t236 40.5t236 -40.5t178.5 -111.5t110.5 -166.5t39 -205.5l-260 -225h409v-236h-512q-105 0 -201 29q-108 -32 -200 -29l-25 2q-99 0 -150 -60.5t-51 -136.5 v-167h-249v167zM498 526q54 -51 147 -132.5t143 -121.5l291 254q-8 95 -86.5 164t-201.5 70q-122 4 -204.5 -66t-88.5 -168zM659 1135v256h259v-256h-259z" />
<glyph unicode="&#x63a;" horiz-adv-x="1044" arabic-form="initial" d="M-31 0v236h191q-64 106 -64 262q0 30 4.5 66.5t17 84t32 92t52.5 88t75 76t102.5 52.5t132.5 20q128 0 220.5 -63.5t137.5 -176.5l-254 -53q-12 29 -40 47.5t-58 18.5q-39 0 -69.5 -19t-47.5 -46t-28.5 -62.5t-15 -64t-3.5 -54.5q0 -117 55 -192.5t140 -75.5h336l76 -236 h-992zM375 1067v256h256v-256h-256z" />
<glyph unicode="&#x63a;" horiz-adv-x="1361" arabic-form="medial" d="M-31 0v236h408l-258 225q0 110 39 205.5t110 166.5t178 111.5t236 40.5t236 -40.5t178 -111.5t110 -166.5t39 -205.5l-260 -225h410v-236h-514q-108 0 -199 29q-99 -29 -201 -29h-512zM391 526q175 -161 291 -254l289 254q-6 95 -85 164t-202 70q-122 4 -204.5 -66 t-88.5 -168zM557 1135v256h256v-256h-256z" />
<glyph unicode="&#x641;" horiz-adv-x="1675" arabic-form="final" d="M113 422v414h256v-408q0 -192 196 -192h293q-75 81 -115 185t-24 208q22 152 137 254t303 102q189 0 303 -101.5t137 -254.5q16 -104 -24.5 -208t-116.5 -185h248v-236h-317q-126 0 -232 33q-106 -33 -227 -33h-361q-210 0 -333 113t-123 309zM977 618 q-15 -91 37.5 -182.5t144.5 -144.5q93 53 144 143.5t36 183.5q-9 65 -61 109.5t-121 44.5q-68 0 -118.5 -43.5t-61.5 -110.5zM1024 1135v256h258v-256h-258z" />
<glyph unicode="&#x641;" horiz-adv-x="1110" arabic-form="initial" d="M-43 0v236h270q-69 46 -69 245q0 231 114.5 363.5t319.5 132.5q204 0 318 -133t114 -369q0 -234 -112 -354.5t-320 -120.5h-635zM420 481q0 -99 21 -153.5t56 -73t95 -18.5q59 0 94 18.5t56.5 73t21.5 151.5q0 156 -43.5 217.5t-128.5 61.5q-84 0 -128 -61.5t-44 -215.5z M461 1135v256h260v-256h-260z" />
<glyph unicode="&#x641;" horiz-adv-x="1034" arabic-form="medial" d="M-31 0v236h248q-75 80 -115 184t-26 209q25 153 139.5 254.5t302.5 101.5t302 -102t136 -254q16 -104 -24 -208t-115 -185h236v-236h-303q-126 0 -232 33q-109 -33 -231 -33h-318zM336 618q-15 -91 37.5 -182.5t144.5 -144.5q93 54 145 144.5t35 182.5 q-11 65 -61.5 109.5t-118.5 44.5q-71 0 -122 -43.5t-60 -110.5zM391 1135v256h256v-256h-256z" />
<glyph unicode="&#x642;" horiz-adv-x="1570" arabic-form="final" d="M113 293h233q-3 -69 14.5 -134.5t49.5 -118.5t76.5 -95.5t95.5 -68.5t107 -34t110 4.5t106.5 51.5t93.5 102h-84q-96 0 -174.5 27.5t-137.5 83t-91.5 146.5t-32.5 210q0 237 115.5 370.5t320.5 133.5t321 -131t116 -367v-129q0 -56 -6 -108h256v-236h-310 q-48 -118 -126 -202t-169 -125t-193 -49t-199.5 17t-187.5 82.5t-157 138t-107 192.5t-40 239zM631 1135v256h227v-256h-227zM735 471q0 -76 11.5 -124t37 -71.5t55 -31.5t76.5 -8h168q7 27 10.5 60t3.5 53.5t-0.5 62t-0.5 55.5q0 82 -12.5 137.5t-37.5 85.5t-56.5 42.5 t-74.5 12.5q-87 0 -133.5 -61t-46.5 -213zM961 1135v256h227v-256h-227z" />
<glyph unicode="&#x642;" horiz-adv-x="1110" arabic-form="initial" d="M-43 0v236h270q-69 72 -69 245q0 231 114.5 363.5t319.5 132.5q204 0 318 -133t114 -369q0 -234 -112 -354.5t-320 -120.5h-635zM303 1135v256h232v-256h-232zM420 481q0 -99 21 -153.5t56 -73t95 -18.5q59 0 94 18.5t56.5 73t21.5 151.5q0 156 -43.5 217.5t-128.5 61.5 q-84 0 -128 -61.5t-44 -215.5zM637 1135v256h227v-256h-227z" />
<glyph unicode="&#x642;" horiz-adv-x="1034" arabic-form="medial" d="M-31 0v236h248q-75 80 -115 184t-26 209q25 153 139.5 254.5t302.5 101.5t302 -102t136 -254q16 -104 -24 -208t-115 -185h248v-236h-315q-126 0 -232 33q-109 -33 -231 -33h-318zM236 1135v256h231v-256h-231zM336 618q-15 -91 37.5 -182.5t144.5 -144.5 q93 54 145 144.5t35 182.5q-11 65 -61.5 109.5t-118.5 44.5q-71 0 -122 -43.5t-60 -110.5zM565 1135v256h232v-256h-232z" />
<glyph unicode="&#x643;" horiz-adv-x="1605" arabic-form="final" d="M113 422v432h256v-426q0 -100 40.5 -146t137.5 -46h387q97 0 141.5 47.5t44.5 144.5v895h256v-920q9 -81 69 -124t161 -43h30v-236h-30q-102 0 -190 37t-134 100q-122 -134 -348 -137h-373q-210 0 -329 112.5t-119 309.5zM502 743v115h100v23q0 23 2.5 48.5t14.5 64 t31.5 67.5t57.5 50.5t89 21.5q69 0 109.5 -35.5t60.5 -112.5h-111q-1 1 -4.5 8.5t-6 11t-8 8.5t-14 7t-20.5 2q-74 0 -74 -137v-27h268v-115h-495z" />
<glyph unicode="&#x643;" horiz-adv-x="1110" arabic-form="initial" d="M-43 0v236h811v247q0 91 -31 131.5t-108 40.5h-621v320q0 158 116 253t304 95h403v-236h-403q-85 0 -128.5 -32.5t-43.5 -83.5v-78h383q193 0 289 -103.5t96 -300.5v-489h-1067z" />
<glyph unicode="&#x643;" horiz-adv-x="1171" arabic-form="medial" d="M-31 0v236h799v247q0 91 -31 131.5t-108 40.5h-621v320q0 158 116 253t304 95h403v-236h-403q-85 0 -128.5 -32.5t-43.5 -83.5v-78h383q193 0 289 -103.5t96 -300.5v-253h178v-236h-1233z" />
<glyph unicode="&#x644;" horiz-adv-x="1224" arabic-form="final" d="M113 55v373h256v-367q0 -188 186 -188q95 0 137.5 46.5t42.5 141.5v1262h258v-911q0 -83 64 -129.5t168 -46.5h30v-236h-30q-133 0 -232 61v-8q0 -185 -116 -301t-297 -119h-56q-180 3 -295.5 120t-115.5 302z" />
<glyph unicode="&#x644;" horiz-adv-x="569" arabic-form="initial" d="M-31 0v236q258 0 258 186v901h256v-915q0 -189 -138 -298.5t-376 -109.5z" />
<glyph unicode="&#x644;" horiz-adv-x="698" arabic-form="medial" d="M-31 0v236h74q79 0 122.5 39.5t43.5 107.5v940h258v-946q0 -66 47.5 -103.5t140.5 -37.5h74v-236h-74q-182 0 -309 100q-109 -100 -303 -100h-74z" />
<glyph unicode="&#x645;" horiz-adv-x="1509" arabic-form="final" d="M113 -178q0 171 87 282.5t251 128.5q-54 117 -54 285q0 234 114.5 376t315.5 142q204 0 319.5 -141.5t115.5 -378.5q0 -40 -7 -94q21 -186 242 -186h43v-236h-47q-106 0 -197 36t-141 107q-115 -143 -328 -143h-270q-100 0 -144 -45.5t-44 -140.5v-176h-256v184zM659 520 q0 -284 168 -284q174 0 174 282q0 159 -45 227t-129 68q-80 0 -124 -68t-44 -225z" />
<glyph unicode="&#x645;" horiz-adv-x="1142" arabic-form="initial" d="M-31 0v236q33 0 61 7t48 16.5t36.5 28t27 34.5t18.5 42t12 43.5t7 48t4 46.5t2 46q1 17 1 25q11 204 128.5 326.5t308.5 122.5q206 0 321 -139t115 -373q0 -235 -114 -372.5t-322 -137.5q-214 0 -306 152q-79 -152 -348 -152zM451 506q0 -154 44.5 -221.5t127.5 -67.5 q174 0 174 287q0 162 -45.5 231.5t-128.5 69.5q-172 0 -172 -299z" />
<glyph unicode="&#x645;" horiz-adv-x="1312" arabic-form="medial" d="M-31 0v236q104 6 136 15q88 25 96 111q12 227 127 357.5t317 130.5q138 0 238.5 -67t149 -176t48.5 -245q0 -126 189 -126h73v-236q-211 0 -319 55q-53 -110 -149.5 -169.5t-229.5 -59.5q-130 1 -227 58.5t-150 160.5q-91 -45 -225 -45h-74zM471 344q0 -283 174 -283 t174 277q0 159 -45 227t-129 68q-83 0 -128.5 -67t-45.5 -222z" />
<glyph unicode="&#x646;" horiz-adv-x="1224" arabic-form="final" d="M113 55v901h256v-895q0 -188 186 -188q95 0 137.5 46.5t42.5 141.5v895h258v-548v4q0 -83 64 -129.5t168 -46.5h30v-236h-30q-133 0 -232 61v-8q0 -185 -116 -301t-297 -119h-56q-180 3 -295.5 120t-115.5 302zM420 1135v256h258v-256h-258z" />
<glyph unicode="&#x646;" horiz-adv-x="569" arabic-form="initial" d="M-31 0v236q258 0 258 184v536h256v-548q0 -189 -138 -298.5t-376 -109.5zM225 1135v256h256v-256h-256z" />
<glyph unicode="&#x646;" horiz-adv-x="698" arabic-form="medial" d="M-31 0v236h74q79 0 122.5 39.5t43.5 107.5v573h258v-579q0 -66 47.5 -103.5t140.5 -37.5h74v-236h-74q-182 0 -309 100q-109 -100 -303 -100h-74zM205 1135v256h260v-256h-260z" />
<glyph unicode="&#x647;" horiz-adv-x="1218" arabic-form="final" d="M113 471q0 241 106.5 362t306.5 121h422v-718h279v-236h-701q-56 0 -111.5 15t-110.5 51t-97 88.5t-68 134.5t-26 182zM369 471q0 -93 48 -164t124 -71h151v493h-151q-50 0 -86 -25t-53.5 -66.5t-25 -82.5t-7.5 -84z" />
<glyph unicode="&#x647;" horiz-adv-x="1271" arabic-form="initial" d="M-31 0v236h144v342q0 175 115 296.5t304 155.5v158h234v-158q188 -31 305 -154t117 -298v-578h-1219zM358 236h174v559q-31 -14 -54 -27.5t-54.5 -39.5t-48.5 -64.5t-17 -85.5v-342zM766 236h178v342q0 47 -17.5 85.5t-50.5 65.5t-54.5 39.5t-55.5 28.5v-561z" />
<glyph unicode="&#x647;" horiz-adv-x="1271" arabic-form="medial" d="M-133 0v236h246v342q0 175 115 296.5t304 155.5v158h234v-158q188 -31 305 -154t117 -298v-342h125v-236h-1446zM358 236h174v559q-31 -14 -54 -27.5t-54.5 -39.5t-48.5 -64.5t-17 -85.5v-342zM766 236h178v342q0 47 -17.5 85.5t-50.5 65.5t-54.5 39.5t-55.5 28.5v-561z " />
<glyph unicode="&#x648;" horiz-adv-x="1159" arabic-form="final" d="M113 451q0 244 107 374.5t304 130.5h424v-720h244v-236h-246q-23 -167 -140 -271.5t-278 -113.5l-45 -4v237q78 1 133.5 45t61.5 107h-154q-57 0 -112 13t-110 46.5t-96.5 83t-67 129t-25.5 179.5zM369 451q0 -92 41.5 -153.5t117.5 -61.5h164v491h-164q-40 0 -70 -19 t-46.5 -47.5t-26.5 -68t-13 -72.5t-3 -69z" />
<glyph unicode="&#x649;" horiz-adv-x="1939" arabic-form="final" d="M113 0q17 225 40 333q22 103 56 179q59 133 138.5 215t206.5 126t308 42v-219q-76 0 -127 -6.5t-104 -25.5t-94.5 -59.5t-75.5 -103.5q-47 -90 -72 -245h649v268q0 70 13.5 128t35 101.5t57 77.5t72 57t87.5 39.5t95 25t104 13.5t105 6.5t107 1.5v-718h256v-236h-512v698 q-31 0 -58 -10t-52 -33t-39.5 -68t-14.5 -108v-479h-1181z" />
<glyph unicode="&#x64a;" horiz-adv-x="1939" arabic-form="final" d="M113 0q17 225 40 333q22 103 56 179q59 133 138.5 215t206.5 126t308 42v-219q-76 0 -127 -6.5t-104 -25.5t-94.5 -59.5t-75.5 -103.5q-47 -90 -72 -245h649v268q0 70 13.5 128t35 101.5t57 77.5t72 57t87.5 39.5t95 25t104 13.5t105 6.5t107 1.5v-718h256v-236h-512v698 q-31 0 -58 -10t-52 -33t-39.5 -68t-14.5 -108v-479h-1181zM408 -158h231v-256h-231v256zM737 -158h232v-256h-232v256z" />
<glyph unicode="&#x64a;" horiz-adv-x="569" arabic-form="initial" d="M-119 -158h230v-256h-230v256zM-20 0v236h20q125 3 176 47t51 137v536h256v-548q0 -190 -125.5 -298.5t-357.5 -109.5h-20zM211 -158h227v-256h-227v256z" />
<glyph unicode="&#x64a;" horiz-adv-x="698" arabic-form="medial" d="M-104 -158h227v-256h-227v256zM-31 0v236h74q79 0 122.5 39.5t43.5 107.5v571h258v-577q0 -66 47.5 -103.5t140.5 -37.5h74v-236h-74q-182 0 -309 100q-109 -100 -303 -100h-74zM225 -158h228v-256h-228v256z" />
<glyph unicode=" "  horiz-adv-x="352" />
<glyph unicode="&#x09;" horiz-adv-x="352" />
<glyph unicode="&#xa0;" horiz-adv-x="352" />
<glyph unicode="!" horiz-adv-x="430" d="M88 0v272h256v-272h-256zM88 397v930h256v-930h-256z" />
<glyph unicode="&#x22;" horiz-adv-x="661" d="M70 1698h200l-34 -547h-132zM344 1698h201l-35 -547h-131z" />
<glyph unicode="$" horiz-adv-x="999" d="M84 428h268q12 -74 52 -115t102 -41q61 0 100 37.5t39 93.5q0 34 -6.5 53.5t-33.5 42t-69 42t-124 53.5q-73 29 -124 58.5t-95.5 72t-66.5 101.5t-22 135q0 143 77 232.5t218 111.5v135h197v-140q139 -34 206.5 -117t78.5 -229h-275q-8 56 -41 87.5t-84 31.5 q-46 0 -78 -29t-32 -73q0 -40 35 -70.5t92.5 -55.5t119.5 -51t126.5 -70t103.5 -99q67 -94 67 -219q0 -152 -86 -251t-233 -118v-174h-197v174q-141 19 -225.5 124.5t-89.5 266.5z" />
<glyph unicode="'" horiz-adv-x="540" d="M70 1698h200l-34 -547h-132z" />
<glyph unicode="(" horiz-adv-x="534" d="M84 98v791q0 130 48.5 226t152.5 169q42 31 72.5 44.5t93.5 31.5v-264q-74 -34 -105 -80t-31 -127v-791q0 -78 31 -124t105 -78v-265q-181 48 -287 197q-80 115 -80 270z" />
<glyph unicode=")" horiz-adv-x="534" d="M84 -104q74 32 104.5 78t30.5 124v791q0 81 -30.5 127t-104.5 80v264q63 -18 93.5 -31.5t72.5 -44.5q104 -73 152.5 -169t48.5 -226v-791q0 -159 -80 -270q-106 -149 -287 -197v265z" />
<glyph unicode="*" horiz-adv-x="931" d="M84 449l66 182l227 -88l-8 237h196l-10 -237l231 88l62 -182l-238 -78l150 -191l-158 -114l-141 202l-135 -202l-158 114l154 191z" />
<glyph unicode="+" d="M82 377v162h399v376h164v-376h399v-162h-399v-377h-162v377h-401z" />
<glyph unicode="-" d="M82 389v160h962v-160h-962z" />
<glyph unicode="." horiz-adv-x="450" d="M113 0v276h254v-276h-254z" />
<glyph unicode="/" horiz-adv-x="708" d="M84 -240l539 1567h172l-541 -1567h-170z" />
<glyph unicode="0" d="M422 377v313l283 -94v-311z" />
<glyph unicode="1" d="M389 0v1327l348 -4v-233h-92v-1090h-256z" />
<glyph unicode="2" d="M236 0v1323h653v-231l-393 -2v-1090h-260z" />
<glyph unicode="3" d="M51 0v1327h262v-270q0 -19 -0.5 -43t-0.5 -36t0.5 -28t1.5 -23t4 -16.5t7.5 -12.5t12 -7t17 -5t22.5 -1q48 0 57.5 27.5t9.5 121.5q-1 37 -1 80t0.5 104.5t0.5 104.5h246v-266q0 -121 1 -130q4 -32 28 -39q13 -3 35 -3q21 0 34.5 9.5t20 22t9 33.5t2 36.5t-1.5 38.5 t-1 32v266h258v-303q0 -278 -179 -343q-49 -18 -110 -18q-71 0 -108.5 21t-77.5 70q-30 -46 -72 -68.5t-114 -22.5q-49 0 -101 25v-684h-262z" />
<glyph unicode="4" d="M104 399q0 100 45.5 179.5t126.5 119.5q-118 82 -118 254q0 371 475 371h389v-233h-348q-103 0 -154.5 -13.5t-70.5 -43t-19 -87.5q0 -81 46 -115t171 -34h375v-234h-412q-125 0 -177 -41t-52 -129q0 -79 49 -118t164 -39h428v-236h-475q-197 0 -320 110t-123 289z" />
<glyph unicode="5" d="M141 528q0 244 106.5 386.5t301.5 142.5h436v-451q0 -52 -1 -89.5t-6 -91t-13 -92.5t-24 -86t-38.5 -80.5t-56.5 -67t-76.5 -53.5t-100.5 -33t-128 -13q-195 0 -297.5 139.5t-102.5 388.5zM406 532q0 -37 1 -60.5t5 -65.5t14.5 -69.5t27 -56t45 -43t66.5 -14.5 q34 0 61 11t44 26t29 42t17.5 48t8.5 56.5t3.5 54t0.5 52.5v11v307h-164q-36 0 -63.5 -14t-44.5 -40.5t-28 -54.5t-15.5 -66t-6 -64.5t-1.5 -59.5z" />
<glyph unicode="6" d="M236 1092v231h653v-1323h-258v1090z" />
<glyph unicode="7" d="M113 1323h280l172 -821l170 821h279l-324 -1323h-248z" />
<glyph unicode="8" d="M113 2l329 1327h248l324 -1327h-279l-170 825l-172 -825h-280z" />
<glyph unicode="9" d="M166 827q0 242 103.5 369.5t299.5 130.5h392v-1327h-254v348h-144q-71 0 -139 28t-127 83t-95 150.5t-36 217.5zM428 834q0 -67 15 -120.5t52 -90.5t93 -37h119v512h-119q-48 0 -81.5 -26.5t-49.5 -70t-22.5 -84t-6.5 -83.5z" />
<glyph unicode=":" horiz-adv-x="421" d="M84 0v276h254v-276h-254zM84 686v277h254v-277h-254z" />
<glyph unicode="&#x3c;" horiz-adv-x="978" d="M111 457l479 -477h264l-479 477l479 479h-264z" />
<glyph unicode="=" d="M82 190v164h962v-164h-962zM82 502v160h962v-160h-962z" />
<glyph unicode="&#x3e;" horiz-adv-x="978" d="M109 -27h264l479 480l-479 477h-264l479 -477z" />
<glyph unicode="[" horiz-adv-x="534" d="M84 98v791q0 130 48.5 226t152.5 169q42 31 72.5 44.5t93.5 31.5v-264q-74 -34 -105 -80t-31 -127v-791q0 -78 31 -124t105 -78v-265q-181 48 -287 197q-80 115 -80 270z" />
<glyph unicode="\" horiz-adv-x="835" d="M43 1327h170l539 -1567h-168z" />
<glyph unicode="]" horiz-adv-x="534" d="M84 -104q74 32 104.5 78t30.5 124v791q0 81 -30.5 127t-104.5 80v264q63 -18 93.5 -31.5t72.5 -44.5q104 -73 152.5 -169t48.5 -226v-791q0 -159 -80 -270q-106 -149 -287 -197v265z" />
<glyph unicode="_" horiz-adv-x="993" d="M0 -147h993v-191h-993v191z" />
<glyph unicode="{" horiz-adv-x="784" d="M94 557h70q57 0 90 -37.5t33 -113.5v-316q0 -132 66 -197t204 -65h135v172h-76q-73 0 -100 18q-35 27 -35 132v301q0 135 -127 188q127 56 127 190v304q0 92 26.5 120.5t108.5 28.5h76v172h-135q-270 0 -270 -262v-318q0 -75 -33 -112t-90 -37h-70v-168z" />
<glyph unicode="|" horiz-adv-x="380" d="M90 -133h211v1597h-211v-1597z" />
<glyph unicode="}" horiz-adv-x="784" d="M94 0v-172h133q269 0 269 262v316q0 76 34.5 113.5t92.5 37.5h69v168h-69q-58 0 -92.5 37t-34.5 112v318q0 262 -269 262h-133v-172h72q77 0 100 -20q39 -26 39 -129v-304q0 -135 123 -190q-123 -53 -123 -188v-301q0 -93 -27 -121.5t-112 -28.5h-72z" />
<glyph unicode="&#xab;" horiz-adv-x="827" d="M84 633q0 139 85.5 258t252.5 190v-157q-90 -49 -138 -125t-48 -166q0 -88 48.5 -165.5t137.5 -123.5v-154q-167 68 -252.5 187t-85.5 256zM406 633q0 139 85 258t252 190v-157q-90 -49 -138 -125t-48 -166q0 -88 48.5 -165.5t137.5 -123.5v-154q-166 68 -251.5 187 t-85.5 256z" />
<glyph unicode="&#xad;" d="M82 389v160h962v-160h-962z" />
<glyph unicode="&#xbb;" horiz-adv-x="827" d="M84 190v154q88 47 137 124t49 165q0 90 -48 166t-138 125v157q167 -71 252.5 -190t85.5 -258q0 -137 -85.5 -256t-252.5 -187zM406 190v154q88 47 137 124t49 165q0 90 -48 166t-138 125v157q167 -71 252 -190t85 -258q0 -137 -85.5 -256t-251.5 -187z" />
<glyph unicode="&#xd7;" d="M158 0l295 475l-265 432h201l172 -297l170 297h203l-264 -432l299 -475h-219l-189 326l-184 -326h-219z" />
<glyph unicode="&#xf7;" d="M82 416v162h962v-162h-962zM436 127q0 53 37 90t90 37t90 -37t37 -90q0 -54 -37 -90.5t-90 -36.5t-90 36.5t-37 90.5zM436 864q0 52 37 89.5t90 37.5t90 -37.5t37 -89.5q0 -51 -38 -89t-89 -38q-52 0 -89.5 38t-37.5 89z" />
<glyph unicode="&#x60c;" horiz-adv-x="471" d="M125 -2h221v510l-221 -178v-332z" />
<glyph unicode="&#x61b;" horiz-adv-x="555" d="M84 0v276h254v-276h-254zM84 543l170 454h217l-139 -454h-248z" />
<glyph unicode="&#x61f;" horiz-adv-x="966" d="M84 975q0 166 111 275.5t278 109.5q171 0 285 -100q62 -58 89.5 -135t33.5 -207h-285q0 102 -27.5 145t-93.5 43q-46 0 -75 -31.5t-29 -83.5q0 -71 67 -141l43 -39q95 -90 122.5 -148.5t27.5 -164.5v-146h-256v113q0 47 -14.5 75.5t-57.5 65.5q-86 69 -129 115 q-42 46 -66 113.5t-24 140.5zM375 0v272h256v-272h-256z" />
<glyph unicode="&#x621;" horiz-adv-x="1204" d="M113 0v236h204v43q0 29 3 60t13.5 74.5t27.5 82.5t47 79t70 69t99.5 47t131.5 18q265 0 358 -228l-250 -51q-26 36 -49 50t-53 14q-31 0 -55 -10t-38 -29.5t-23.5 -39t-13 -46.5t-4.5 -44t-1 -40v-49h540v-236h-1007z" />
<glyph unicode="&#x627;" horiz-adv-x="452" d="M113 0v1327h256v-1327h-256z" />
<glyph unicode="&#x628;" horiz-adv-x="1458" d="M113 422v534h256v-528q0 -100 40.5 -146t137.5 -46h385q98 0 142 47.5t44 144.5v528h256v-534q0 -194 -118 -307.5t-324 -114.5h-371q-210 0 -329 112.5t-119 309.5zM633 -158h260v-256h-260v256z" />
<glyph unicode="&#x629;" horiz-adv-x="1060" d="M113 471q0 226 114.5 354.5t319.5 128.5q204 0 317 -129t113 -358q0 -231 -111 -349t-319 -118q-210 0 -322 119t-112 352zM258 1135v256h229v-256h-229zM375 473q0 -98 21 -152t56 -72t95 -18q43 0 72.5 9.5t53 35t35 73t11.5 118.5q0 104 -22 166t-58.5 85t-91.5 23 q-87 0 -129.5 -59t-42.5 -209zM588 1135v256h231v-256h-231z" />
<glyph unicode="&#x62a;" horiz-adv-x="1458" d="M113 422v534h256v-528q0 -100 40.5 -146t137.5 -46h385q98 0 142 47.5t44 144.5v528h256v-534q0 -194 -118 -307.5t-324 -114.5h-371q-210 0 -329 112.5t-119 309.5zM465 1135v256h227v-256h-227zM795 1135v256h227v-256h-227z" />
<glyph unicode="&#x62b;" horiz-adv-x="1458" d="M113 422v534h256v-528q0 -100 40.5 -146t137.5 -46h385q98 0 142 47.5t44 144.5v528h256v-534q0 -194 -118 -307.5t-324 -114.5h-371q-210 0 -329 112.5t-119 309.5zM465 1135v256h227v-256h-227zM629 1475v258h227v-258h-227zM795 1135v256h227v-256h-227z" />
<glyph unicode="&#x62c;" horiz-adv-x="1226" d="M113 -197q0 56 12.5 111.5t45 115t81.5 104t129.5 73.5t181.5 29h322q-4 84 -24 154.5t-51 118.5t-70.5 85.5t-82 59.5t-85 37t-80 20.5t-67 8.5t-46.5 2l-17 -1v231q202 0 355 -59.5t244.5 -164.5t136.5 -238.5t45 -292.5v-197h-580q-99 1 -150 -58t-51 -139v-165h-249 v165zM618 -104h259v-258h-259v258z" />
<glyph unicode="&#x62d;" horiz-adv-x="1226" d="M113 -197q0 56 12.5 111.5t45 115t81.5 104t129.5 73.5t181.5 29h322q-4 84 -24 154.5t-51 118.5t-70.5 85.5t-82 59.5t-85 37t-80 20.5t-67 8.5t-46.5 2l-17 -1v231q202 0 355 -59.5t244.5 -164.5t136.5 -238.5t45 -292.5v-197h-580q-99 1 -150 -58t-51 -139v-165h-249 v165z" />
<glyph unicode="&#x62e;" horiz-adv-x="1226" d="M113 -197q0 56 12.5 111.5t45 115t81.5 104t129.5 73.5t181.5 29h322q-4 84 -24 154.5t-51 118.5t-70.5 85.5t-82 59.5t-85 37t-80 20.5t-67 8.5t-46.5 2l-17 -1v231q202 0 355 -59.5t244.5 -164.5t136.5 -238.5t45 -292.5v-197h-580q-99 1 -150 -58t-51 -139v-165h-249 v165zM532 1067v262h256v-262h-256z" />
<glyph unicode="&#x62f;" horiz-adv-x="884" d="M113 0v236h434v276q0 135 -37 183t-133 48l45 228q194 0 285.5 -93.5t91.5 -281.5v-596h-686z" />
<glyph unicode="&#x630;" horiz-adv-x="884" d="M113 0v236h434v276q0 135 -37 183t-133 48l45 228q194 0 285.5 -93.5t91.5 -281.5v-596h-686zM420 1135v256h256v-256h-256z" />
<glyph unicode="&#x631;" horiz-adv-x="538" d="M0 -137q33 0 60 6t46.5 14.5t35 26t25.5 31t17 38.5t10 41t5 46t2 45v46v15v782h252q4 -24 0 -886q0 -86 -28 -164t-82 -140.5t-142.5 -98.5t-200.5 -32v230z" />
<glyph unicode="&#x632;" horiz-adv-x="538" d="M0 -137q33 0 60 6t46.5 14.5t35 26t25.5 31t17 38.5t10 41t5 46t2 45v46v15v782h252q4 -24 0 -886q0 -86 -28 -164t-82 -140.5t-142.5 -98.5t-200.5 -32v230zM195 1135v256h256v-256h-256z" />
<glyph unicode="&#x633;" horiz-adv-x="2172" d="M113 55v619h256v-613q0 -188 186 -188q95 0 137.5 46.5t42.5 141.5v895h258v-720h332v720h260v-720h144q26 0 40 2t29 12t21.5 30.5t11 56.5t4.5 91v528h254v-604q0 -170 -93.5 -261t-260.5 -91h-746q-17 -162 -130 -263t-279 -104h-56q-180 3 -295.5 120t-115.5 302z " />
<glyph unicode="&#x634;" horiz-adv-x="2172" d="M113 55v619h256v-613q0 -188 186 -188q95 0 137.5 46.5t42.5 141.5v895h258v-720h332v720h260v-720h144q26 0 40 2t29 12t21.5 30.5t11 56.5t4.5 91v528h254v-604q0 -170 -93.5 -261t-260.5 -91h-746q-17 -162 -130 -263t-279 -104h-56q-180 3 -295.5 120t-115.5 302z M1194 1135v256h205v-256h-205zM1341 1475v223h209v-223h-209zM1499 1135v256h207v-256h-207z" />
<glyph unicode="&#x635;" horiz-adv-x="2004" d="M113 55v619h256v-613q0 -188 186 -188q95 0 137.5 46.5t42.5 141.5v895h258v-381q202 359 512 359q86 0 157 -27.5t117.5 -72t79 -102t46.5 -115.5t14 -115q-1 -45 -9.5 -94t-28 -107.5t-55.5 -110.5t-85 -95.5t-124 -69t-165 -25.5h-463q-17 -162 -130 -263t-279 -104 h-56q-180 3 -295.5 120t-115.5 302zM1067 236h385q98 0 153.5 75.5t55.5 194.5q0 83 -42.5 142t-119.5 59q-271 0 -432 -471z" />
<glyph unicode="&#x636;" horiz-adv-x="2004" d="M113 55v619h256v-613q0 -188 186 -188q95 0 137.5 46.5t42.5 141.5v895h258v-381q202 359 512 359q86 0 157 -27.5t117.5 -72t79 -102t46.5 -115.5t14 -115q-1 -45 -9.5 -94t-28 -107.5t-55.5 -110.5t-85 -95.5t-124 -69t-165 -25.5h-463q-17 -162 -130 -263t-279 -104 h-56q-180 3 -295.5 120t-115.5 302zM1067 236h385q98 0 153.5 75.5t55.5 194.5q0 83 -42.5 142t-119.5 59q-271 0 -432 -471zM1364 1067v256h258v-256h-258z" />
<glyph unicode="&#x637;" horiz-adv-x="1503" d="M113 0l75 236h115v958h260l-22 -547q193 283 467 283q86 0 156.5 -27.5t117 -71.5t78 -101.5t45.5 -115.5t14 -116q0 -37 -6 -78t-20.5 -90.5t-37.5 -95t-60 -89t-83.5 -75t-113 -51t-144.5 -19.5h-841zM569 236h385q108 0 158.5 72t50.5 196q0 83 -42.5 142t-121.5 59 q-266 0 -430 -469z" />
<glyph unicode="&#x638;" horiz-adv-x="1503" d="M113 0l75 236h115v958h260l-22 -547q193 283 467 283q86 0 156.5 -27.5t117 -71.5t78 -101.5t45.5 -115.5t14 -116q0 -37 -6 -78t-20.5 -90.5t-37.5 -95t-60 -89t-83.5 -75t-113 -51t-144.5 -19.5h-841zM569 236h385q108 0 158.5 72t50.5 196q0 83 -42.5 142t-121.5 59 q-266 0 -430 -469zM834 1067v256h258v-256h-258z" />
<glyph unicode="&#x639;" horiz-adv-x="1329" d="M113 -195q0 42 9.5 90t34 103.5t60.5 102t94.5 84t130.5 51.5q-65 113 -65 262q0 30 4.5 66.5t17.5 84t32.5 91.5t52.5 88t75 76.5t103 52.5t133 20q128 0 219.5 -63.5t136.5 -176.5l-250 -53q-15 29 -43 47.5t-59 18.5q-47 0 -81.5 -27t-50.5 -69t-23 -79.5t-7 -70.5 q0 -117 55.5 -192.5t141.5 -75.5h331l80 -236h-682q-99 0 -150 -59.5t-51 -135.5v-167h-249v167z" />
<glyph unicode="&#x63a;" horiz-adv-x="1329" d="M113 -195q0 42 9.5 90t34 103.5t60.5 102t94.5 84t130.5 51.5q-65 113 -65 262q0 30 4.5 66.5t17.5 84t32.5 91.5t52.5 88t75 76.5t103 52.5t133 20q128 0 219.5 -63.5t136.5 -176.5l-250 -53q-15 29 -43 47.5t-59 18.5q-47 0 -81.5 -27t-50.5 -69t-23 -79.5t-7 -70.5 q0 -117 55.5 -192.5t141.5 -75.5h331l80 -236h-682q-99 0 -150 -59.5t-51 -135.5v-167h-249v167zM664 1135v256h258v-256h-258z" />
<glyph unicode="&#x640;" horiz-adv-x="210" d="M-31 0v236h281v-236h-281z" />
<glyph unicode="&#x641;" horiz-adv-x="1628" d="M113 422v414h256v-408q0 -100 40.5 -146t137.5 -46h172q-41 103 -41 245q0 231 115.5 363.5t318.5 132.5q204 0 317 -132.5t113 -369.5q0 -234 -110.5 -354.5t-319.5 -120.5h-551q-210 0 -329 112.5t-119 309.5zM940 481q0 -99 21 -153.5t56 -73t95 -18.5q57 0 92.5 18.5 t57.5 73.5t22 151q0 80 -12 135.5t-35.5 86.5t-53.5 44t-71 13q-84 0 -128 -61.5t-44 -215.5zM983 1135v256h258v-256h-258z" />
<glyph unicode="&#x642;" horiz-adv-x="1449" d="M113 285h245q0 -91 23.5 -167.5t63.5 -129t93 -89t110.5 -51.5t117 -13t112.5 22t97.5 58.5t71.5 92.5q-73 -24 -117 -24q-212 0 -324 121t-112 362q0 237 115.5 370.5t320.5 133.5t320.5 -131.5t115.5 -366.5v-147q0 -340 -190 -533q-146 -148 -362 -168 q-206 -20 -386 84q-188 109 -268 311q-47 122 -47 265zM647 1135v256h232v-256h-232zM750 471q0 -76 11.5 -126t36.5 -76t55.5 -36t76.5 -10q92 0 136 51.5t44 192.5q0 155 -45.5 216.5t-134.5 61.5q-58 0 -96 -23t-61 -85t-23 -166zM977 1135v256h231v-256h-231z" />
<glyph unicode="&#x643;" horiz-adv-x="1458" d="M113 422v432h256v-426q0 -100 40.5 -146t137.5 -46h385q98 0 142 47.5t44 144.5v895h256v-901q0 -194 -118 -307.5t-324 -114.5h-371q-210 0 -329 112.5t-119 309.5zM502 715v116h100v23q0 23 2.5 48t14.5 63.5t31.5 67t57.5 50t89 21.5q69 0 109.5 -35.5t60.5 -112.5 h-111q-1 1 -4.5 8.5t-6 11t-8 8.5t-14 7t-20.5 2q-74 0 -74 -137v-25h268v-116h-495z" />
<glyph unicode="&#x644;" horiz-adv-x="1079" d="M113 55v373h256v-367q0 -188 186 -188q95 0 137.5 46.5t42.5 141.5v1262h258v-1270q0 -185 -116 -301t-297 -119h-56q-180 3 -295.5 120t-115.5 302z" />
<glyph unicode="&#x645;" horiz-adv-x="1345" d="M113 -178q0 171 87 282.5t251 128.5q-54 117 -54 285q0 234 114.5 376t315.5 142q204 0 319.5 -141.5t115.5 -378.5q0 -239 -113 -377.5t-322 -138.5h-270q-100 0 -144 -45.5t-44 -140.5v-176h-256v184zM659 520q0 -284 168 -284q174 0 174 282q0 159 -45 227t-129 68 q-80 0 -124 -68t-44 -225z" />
<glyph unicode="&#x646;" horiz-adv-x="1079" d="M113 55v901h256v-895q0 -188 186 -188q95 0 137.5 46.5t42.5 141.5v895h258v-903q0 -185 -116 -301t-297 -119h-56q-180 3 -295.5 120t-115.5 302zM420 1135v256h258v-256h-258z" />
<glyph unicode="&#x647;" horiz-adv-x="1060" d="M113 471q0 226 114.5 354.5t319.5 128.5q204 0 317 -129t113 -358q0 -231 -111 -349t-319 -118q-210 0 -322 119t-112 352zM375 473q0 -98 21 -152t56 -72t95 -18q43 0 72.5 9.5t53 35t35 73t11.5 118.5q0 104 -22 166t-58.5 85t-91.5 23q-87 0 -129.5 -59t-42.5 -209z " />
<glyph unicode="&#x648;" horiz-adv-x="1034" d="M113 444q0 242 108 376t307 134h420v-888q0 -210 -123.5 -323t-330.5 -105l2 212q43 0 83.5 9.5t82.5 32t67 70t23 114.5q-81 -133 -246 -133q-393 0 -393 501zM369 449q0 -32 0.5 -51t3.5 -52.5t9 -54.5t18 -47t29 -40.5t43 -25t60 -10.5q29 0 52.5 6t40 19t28.5 26 t19 36t11.5 39t6 44.5t2 43.5t0.5 44v12v289h-145q-53 0 -90.5 -27.5t-55 -73t-25 -88.5t-7.5 -89z" />
<glyph unicode="&#x649;" horiz-adv-x="1800" d="M113 0q17 225 40 333q22 103 56 179q59 133 138.5 215t206.5 126t308 42v-219q-76 0 -127 -6.5t-104 -25.5t-94.5 -59.5t-75.5 -103.5q-47 -90 -72 -245h649v268q0 70 13.5 128t35 101.5t57 77.5t72 57t87.5 39.5t95 25t104 13.5t105 6.5t107 1.5v-505l-256 -132v381 q-31 0 -58 -10t-52 -33t-39.5 -68t-14.5 -108v-479h-1181z" />
<glyph unicode="&#x64a;" horiz-adv-x="1800" d="M113 0q17 225 40 333q22 103 56 179q59 133 138.5 215t206.5 126t308 42v-219q-76 0 -127 -6.5t-104 -25.5t-94.5 -59.5t-75.5 -103.5q-47 -90 -72 -245h649v268q0 70 13.5 128t35 101.5t57 77.5t72 57t87.5 39.5t95 25t104 13.5t105 6.5t107 1.5v-505l-256 -132v381 q-31 0 -58 -10t-52 -33t-39.5 -68t-14.5 -108v-479h-1181zM438 -158h232v-256h-232v256zM768 -158h231v-256h-231v256z" />
<glyph unicode="&#x64b;" horiz-adv-x="0" d="M-90 1518q43 115 149 137l400 94q-11 -43 -30.5 -73t-45.5 -45.5t-47 -22t-49 -11.5zM-59 1698q45 113 149 137l399 94q-11 -43 -30 -72.5t-44 -45t-45 -22t-48 -11.5z" />
<glyph unicode="&#x64c;" horiz-adv-x="0" d="M-35 1655q31 59 80.5 94t97.5 8q57 -30 2 -129q-3 -8 -9.5 -21.5t-10 -21.5t-5.5 -21.5t3 -21.5q9 -16 26 -18.5t29 2t33 15t22 11.5q-19 11 -30 39q-30 63 30 123q54 54 133 63q94 10 137 -60q5 -8 9 -17l59 -123q-241 -99 -268 -107q-51 -21 -99.5 -32t-98 -2t-66.5 49 q-14 32 -10 63t15 51.5t22 42t10 33.5q-3 28 -35 -4q-5 -4 -14 -14q-33 -34 -43 -33q-14 3 -18.5 12.5t-0.5 18.5zM287.5 1628.5q0.5 -8.5 5.5 -18.5q6 -14 15.5 -20.5t22.5 -5t24 4.5t26 10l63 29l-16 37q-10 22 -30 25t-50 -9q-10 -4 -16.5 -6.5t-16 -8t-14.5 -10.5 t-9.5 -12t-4 -15.5z" />
<glyph unicode="&#x64d;" horiz-adv-x="0" d="M-111 -870q48 115 154 137l395 94q-10 -43 -28 -72.5t-44.5 -45t-46 -22t-49.5 -12.5zM-80 -690q49 119 154 137l397 94q-8 -35 -23.5 -61t-30.5 -41t-38.5 -25.5t-38.5 -14.5t-39 -9z" />
<glyph unicode="&#x64e;" horiz-adv-x="0" d="M-23 1485q47 107 156 129l399 84q-8 -32 -23.5 -57t-31 -38.5t-39.5 -24t-38.5 -14t-39.5 -8.5z" />
<glyph unicode="&#x64f;" horiz-adv-x="0" d="M20 1581.5q10 36.5 34.5 63t41.5 24.5q-17 -28 -16 -59.5t18 -46.5q15 -13 33 -16t34.5 3t27.5 12t20 13q-20 13 -31 35q-28 66 35 126q56 55 136 62q95 9 136 -63q4 -6 7 -13l55 -125q-241 -100 -264 -108q-45 -15 -72.5 -22.5t-67 -12t-68.5 8.5t-48 44 q-21 38 -11 74.5zM272 1632q19 -42 90 -10l66 25l-20 41q-10 22 -28.5 25t-47.5 -9q-79 -29 -60 -72z" />
<glyph unicode="&#x650;" horiz-adv-x="0" d="M-82 -668q49 110 152 129l403 86q-10 -41 -29 -69t-46.5 -42t-46.5 -19.5t-50 -10.5z" />
<glyph unicode="&#x651;" horiz-adv-x="0" d="M54.5 1540q-3.5 32 2.5 63.5t21 69.5l90 27q-13 -49 -23 -86q-9 -39 18 -40q29 -1 59 37q11 14 18 31l18 72l74 19q-1 -4 -1.5 -11t0 -25t3.5 -32.5t12 -26.5t23 -14q16 -1 27 10t16 28.5t7 33.5t2.5 32t0.5 17l88 12q3 -56 6 -67q4 -114 -67 -150q-79 -39 -150 -2 q-57 -65 -139 -65q-49 -1 -75.5 17t-30 50z" />
<glyph unicode="&#x652;" horiz-adv-x="0" d="M23 1665q15 65 55.5 98t99.5 23l129 -23l-28 -127q-19 -76 -56 -116t-117 -25q-116 23 -83 170zM105 1602q0 -6 1.5 -9.5t3 -8t5 -7t8 -5t10.5 -3.5q18 -4 29.5 8.5t14 23.5t5.5 31l19 72l-35 6q-17 4 -29 -8t-16 -23.5t-8 -31.5q0 -2 -2 -8t-2.5 -9t-1.5 -9.5t-1.5 -9.5 t-0.5 -9z" />
<glyph unicode="&#x653;" horiz-adv-x="0" d="M-127 1540q64 36 108 51t89 15q38 0 107 -15.5t104 -15.5q53 0 127 35l127 -113q-74 -40 -122 -55t-106 -15q-39 0 -107.5 14.5t-101.5 14.5q-39 0 -92 -20z" />
<glyph unicode="&#x654;" horiz-adv-x="0" d="M-39 1440v100h90v21q0 25 5.5 51t21 60t52 55.5t89.5 21.5q115 0 158 -102l-109 -19q-19 25 -45 25q-59 0 -59 -90v-23h235v-100h-438z" />
<glyph unicode="&#x655;" horiz-adv-x="0" d="M-39 -307h90v16q0 26 5.5 52.5t21 60t52 55t89.5 21.5q115 0 158 -101l-109 -20q-18 26 -45 26q-21 0 -34 -9t-18 -25.5t-6 -27.5t-1 -28v-20h235v-105h-438v105z" />
<glyph unicode="&#x660;" d="M422 377v313l283 -94v-311z" />
<glyph unicode="&#x661;" d="M389 0v1327l348 -4v-233h-92v-1090h-256z" />
<glyph unicode="&#x662;" d="M236 0v1323h653v-231l-393 -2v-1090h-260z" />
<glyph unicode="&#x663;" d="M51 0v1327h262v-270q0 -19 -0.5 -43t-0.5 -36t0.5 -28t1.5 -23t4 -16.5t7.5 -12.5t12 -7t17 -5t22.5 -1q48 0 57.5 27.5t9.5 121.5q-1 37 -1 80t0.5 104.5t0.5 104.5h246v-266q0 -121 1 -130q4 -32 28 -39q13 -3 35 -3q21 0 34.5 9.5t20 22t9 33.5t2 36.5t-1.5 38.5 t-1 32v266h258v-303q0 -278 -179 -343q-49 -18 -110 -18q-71 0 -108.5 21t-77.5 70q-30 -46 -72 -68.5t-114 -22.5q-49 0 -101 25v-684h-262z" />
<glyph unicode="&#x664;" d="M104 399q0 100 45.5 179.5t126.5 119.5q-118 82 -118 254q0 371 475 371h389v-233h-348q-103 0 -154.5 -13.5t-70.5 -43t-19 -87.5q0 -81 46 -115t171 -34h375v-234h-412q-125 0 -177 -41t-52 -129q0 -79 49 -118t164 -39h428v-236h-475q-197 0 -320 110t-123 289z" />
<glyph unicode="&#x665;" d="M141 528q0 244 106.5 386.5t301.5 142.5h436v-451q0 -52 -1 -89.5t-6 -91t-13 -92.5t-24 -86t-38.5 -80.5t-56.5 -67t-76.5 -53.5t-100.5 -33t-128 -13q-195 0 -297.5 139.5t-102.5 388.5zM406 532q0 -37 1 -60.5t5 -65.5t14.5 -69.5t27 -56t45 -43t66.5 -14.5 q34 0 61 11t44 26t29 42t17.5 48t8.5 56.5t3.5 54t0.5 52.5v11v307h-164q-36 0 -63.5 -14t-44.5 -40.5t-28 -54.5t-15.5 -66t-6 -64.5t-1.5 -59.5z" />
<glyph unicode="&#x666;" d="M236 1092v231h653v-1323h-258v1090z" />
<glyph unicode="&#x667;" d="M113 1323h280l172 -821l170 821h279l-324 -1323h-248z" />
<glyph unicode="&#x668;" d="M113 2l329 1327h248l324 -1327h-279l-170 825l-172 -825h-280z" />
<glyph unicode="&#x669;" d="M166 827q0 242 103.5 369.5t299.5 130.5h392v-1327h-254v348h-144q-71 0 -139 28t-127 83t-95 150.5t-36 217.5zM428 834q0 -67 15 -120.5t52 -90.5t93 -37h119v512h-119q-48 0 -81.5 -26.5t-49.5 -70t-22.5 -84t-6.5 -83.5z" />
<glyph unicode="&#x66a;" horiz-adv-x="708" d="M-84 -240l537 1567h172l-541 -1567h-168zM-31 1038v252l226 -73v-250zM362 -121v254l226 -78v-250z" />
<glyph unicode="&#x66b;" horiz-adv-x="471" d="M125 -2h221v510l-221 -178v-332z" />
<glyph unicode="&#x66c;" horiz-adv-x="471" d="M125 -2h221v510l-221 -178v-332z" />
<glyph unicode="&#x66d;" horiz-adv-x="931" d="M84 449l66 182l227 -88l-8 237h196l-10 -237l231 88l62 -182l-238 -78l150 -191l-158 -114l-141 202l-135 -202l-158 114l154 191z" />
<glyph unicode="&#x670;" horiz-adv-x="0" d="M47 1401h111v479h-111v-479z" />
<glyph unicode="&#x67e;" horiz-adv-x="1458" d="M113 422v534h256v-528q0 -100 40.5 -146t137.5 -46h385q98 0 142 47.5t44 144.5v528h256v-534q0 -194 -118 -307.5t-324 -114.5h-371q-210 0 -329 112.5t-119 309.5zM498 -170h209v-258h-209v258zM651 -510h207v-223h-207v223zM809 -170h205v-258h-205v258z" />
<glyph unicode="&#x686;" horiz-adv-x="1226" d="M113 -197q0 56 12.5 111.5t45 115t81.5 104t129.5 73.5t181.5 29h322q-4 84 -24 154.5t-51 119t-70.5 86.5t-82 60.5t-85 38t-80 21.5t-67 9t-46.5 3l-17 -1v234q162 0 294 -40t221.5 -110t150 -167.5t88 -209t27.5 -237.5v-197h-580q-99 1 -150 -58t-51 -139v-165h-249 v165zM600 -135h205v-225h-205v225zM752 -442h204v-189h-204v189zM907 -135h205v-225h-205v225z" />
<glyph unicode="&#x698;" horiz-adv-x="538" d="M-66 1133v256h209v-256h-209zM0 -137q33 0 60 6t46.5 14.5t35 26t25.5 31t17 38.5t10 41t5 46t2 45v46v15v782h252q4 -24 0 -886q0 -86 -28 -164t-82 -140.5t-142.5 -98.5t-200.5 -32v230zM88 1473v223h205v-223h-205zM242 1133v256h209v-256h-209z" />
<glyph unicode="&#x6a4;" horiz-adv-x="1628" d="M113 422v414h256v-408q0 -100 40.5 -146t137.5 -46h172q-41 103 -41 245q0 231 115.5 363.5t318.5 132.5q204 0 317 -132.5t113 -369.5q0 -234 -110.5 -354.5t-319.5 -120.5h-551q-210 0 -329 112.5t-119 309.5zM858 1135v256h207v-256h-207zM940 481q0 -99 21 -153.5 t56 -73t95 -18.5q57 0 92.5 18.5t57.5 73.5t22 151q0 80 -12 135.5t-35.5 86.5t-53.5 44t-71 13q-84 0 -128 -61.5t-44 -215.5zM1008 1475v223h209v-223h-209zM1165 1135v256h207v-256h-207z" />
<glyph unicode="&#x6f0;" d="M422 377v313l283 -94v-311z" />
<glyph unicode="&#x6f1;" d="M389 0v1327l348 -4v-233h-92v-1090h-256z" />
<glyph unicode="&#x6f2;" d="M236 0v1323h653v-231l-393 -2v-1090h-260z" />
<glyph unicode="&#x6f3;" d="M51 0v1327h262v-270q0 -19 -0.5 -43t-0.5 -36t0.5 -28t1.5 -23t4 -16.5t7.5 -12.5t12 -7t17 -5t22.5 -1q48 0 57.5 27.5t9.5 121.5q-1 37 -1 80t0.5 104.5t0.5 104.5h246v-266q0 -121 1 -130q4 -32 28 -39q13 -3 35 -3q21 0 34.5 9.5t20 22t9 33.5t2 36.5t-1.5 38.5 t-1 32v266h258v-303q0 -278 -179 -343q-49 -18 -110 -18q-71 0 -108.5 21t-77.5 70q-30 -46 -72 -68.5t-114 -22.5q-49 0 -101 25v-684h-262z" />
<glyph unicode="&#x6f4;" d="M104 399q0 100 45.5 179.5t126.5 119.5q-118 82 -118 254q0 371 475 371h389v-233h-348q-103 0 -154.5 -13.5t-70.5 -43t-19 -87.5q0 -81 46 -115t171 -34h375v-234h-412q-125 0 -177 -41t-52 -129q0 -79 49 -118t164 -39h428v-236h-475q-197 0 -320 110t-123 289z" />
<glyph unicode="&#x6f5;" d="M141 528q0 244 106.5 386.5t301.5 142.5h436v-451q0 -52 -1 -89.5t-6 -91t-13 -92.5t-24 -86t-38.5 -80.5t-56.5 -67t-76.5 -53.5t-100.5 -33t-128 -13q-195 0 -297.5 139.5t-102.5 388.5zM406 532q0 -37 1 -60.5t5 -65.5t14.5 -69.5t27 -56t45 -43t66.5 -14.5 q34 0 61 11t44 26t29 42t17.5 48t8.5 56.5t3.5 54t0.5 52.5v11v307h-164q-36 0 -63.5 -14t-44.5 -40.5t-28 -54.5t-15.5 -66t-6 -64.5t-1.5 -59.5z" />
<glyph unicode="&#x6f6;" d="M236 1092v231h653v-1323h-258v1090z" />
<glyph unicode="&#x6f7;" d="M113 1323h280l172 -821l170 821h279l-324 -1323h-248z" />
<glyph unicode="&#x6f8;" d="M113 2l329 1327h248l324 -1327h-279l-170 825l-172 -825h-280z" />
<glyph unicode="&#x6f9;" d="M166 827q0 242 103.5 369.5t299.5 130.5h392v-1327h-254v348h-144q-71 0 -139 28t-127 83t-95 150.5t-36 217.5zM428 834q0 -67 15 -120.5t52 -90.5t93 -37h119v512h-119q-48 0 -81.5 -26.5t-49.5 -70t-22.5 -84t-6.5 -83.5z" />
<glyph unicode="&#x2000;" horiz-adv-x="1082" />
<glyph unicode="&#x2001;" horiz-adv-x="2165" />
<glyph unicode="&#x2002;" horiz-adv-x="1082" />
<glyph unicode="&#x2003;" horiz-adv-x="2165" />
<glyph unicode="&#x2004;" horiz-adv-x="721" />
<glyph unicode="&#x2005;" horiz-adv-x="541" />
<glyph unicode="&#x2006;" horiz-adv-x="360" />
<glyph unicode="&#x2007;" horiz-adv-x="360" />
<glyph unicode="&#x2008;" horiz-adv-x="270" />
<glyph unicode="&#x2009;" horiz-adv-x="433" />
<glyph unicode="&#x200a;" horiz-adv-x="120" />
<glyph unicode="&#x200c;" horiz-adv-x="40" d="M0 0h41v1479h-41v-1479z" />
<glyph unicode="&#x200d;" horiz-adv-x="40" d="M-104 1358l28 -27l76 76v-1407h41v1407l76 -76l28 27l-96 98l96 96l-28 29l-97 -98l-96 98l-28 -29l98 -96z" />
<glyph unicode="&#x200e;" horiz-adv-x="40" d="M0 0h41v1438h160l-78 -78l29 -29l122 125l-122 125l-29 -29l74 -73h-197v-1479z" />
<glyph unicode="&#x200f;" horiz-adv-x="40" d="M-233 1456l122 -125l29 29l-78 78h160v-1438h41v1479h-197l74 73l-29 29z" />
<glyph unicode="&#x2010;" d="M82 389v160h962v-160h-962z" />
<glyph unicode="&#x2011;" d="M82 389v160h962v-160h-962z" />
<glyph unicode="&#x2012;" d="M82 389v160h962v-160h-962z" />
<glyph unicode="&#x2013;" horiz-adv-x="1188" d="M82 389v160h1024v-160h-1024z" />
<glyph unicode="&#x2014;" horiz-adv-x="2212" d="M82 389v160h2048v-160h-2048z" />
<glyph unicode="&#x201c;" horiz-adv-x="696" d="M84 1151l133 350h145l-131 -350h-147zM332 1151l129 350h149l-135 -350h-143z" />
<glyph unicode="&#x201d;" horiz-adv-x="696" d="M84 1151l133 350h145l-131 -350h-147zM332 1151l129 350h149l-135 -350h-143z" />
<glyph unicode="&#x202f;" horiz-adv-x="433" />
<glyph unicode="&#x205f;" horiz-adv-x="541" />
<glyph unicode="&#x2421;" horiz-adv-x="1452" d="M78 117h194q42 0 84 10q162 40 162 260q0 217 -162 254q-27 8 -94 8h-184v-532zM150 180v406h112q57 0 90 -11q94 -37 94 -188q0 -114 -53 -170q-40 -37 -129 -37h-114zM582 117h399v63h-326v180h293v64h-293v162h314v63h-387v-532zM1047 117h333v63h-260v469h-73v-532z " />
<glyph unicode="&#xe000;" horiz-adv-x="1024" d="M0 0z" />
<glyph unicode="&#xfd3e;" horiz-adv-x="722" d="M84 496q0 278 157 522.5t398 341.5v-250q-83 -57 -140.5 -121.5t-101.5 -152.5q-82 -161 -82 -334q0 -85 23 -183t61 -174q27 -55 97 -143q39 -42 64.5 -64.5t70.5 -52.5v-254q-113 41 -223.5 142t-190.5 235q-63 107 -98 235.5t-35 252.5z" />
<glyph unicode="&#xfd3f;" horiz-adv-x="722" d="M84 1106v254q241 -97 398 -341.5t157 -522.5q0 -197 -80.5 -381.5t-228.5 -329.5q-79 -71 -120.5 -98t-117.5 -56v254q152 100 232 260q38 76 61 174t23 183q0 131 -49.5 261.5t-135.5 225.5q-35 38 -62 61t-77 56z" />
<glyph unicode="&#xfeff;" horiz-adv-x="0" />
<glyph horiz-adv-x="681" />
<glyph horiz-adv-x="573" />
<glyph horiz-adv-x="559" />
<glyph horiz-adv-x="0" />
</font>
</defs>
</svg>
