<?xml version="1.0" standalone="no"?>
<!DOCTYPE svg PUBLIC "-//W3C//DTD SVG 1.1//EN" "http://www.w3.org/Graphics/SVG/1.1/DTD/svg11.dtd" >
<svg xmlns="http://www.w3.org/2000/svg">
<metadata></metadata>
<defs>
<font id="hacen_beirut_headingregular" horiz-adv-x="991" >
<font-face units-per-em="2048" ascent="1638" descent="-410" />
<missing-glyph horiz-adv-x="435" />
<glyph unicode="&#x651;&#x64b;" horiz-adv-x="425" d="M50 1838l17 91l340 193l-17 -91zM61 1710l17 91l340 193l-17 -91zM66 1591q0 21 4.5 39.5t9.5 29.5q0 -3 4.5 1.5t9.5 10.5t10 10.5t5 1.5q-5 -21 -7 -40t2 -32.5t17 -19t38 -0.5q28 5 41 23t17.5 40.5t5.5 46t6 39.5q1 -3 4.5 1t7.5 9t8 9.5t6 1.5q-3 -30 6.5 -54 t26 -36.5t38 -11.5t42.5 21q4 10 2 23t-8.5 25.5t-15.5 24.5t-18 21q5 10 14.5 15.5t20 10t20 9.5t15.5 13q5 -8 5.5 -12.5t-0.5 -8.5t-1.5 -8.5t3.5 -13.5q12 -32 14.5 -66t-5 -63.5t-25.5 -50.5t-47 -26q-25 -4 -39 3t-31 18q-4 -11 -10.5 -25.5t-18 -28.5t-27 -25.5 t-37.5 -16.5q-34 -9 -56 -3.5t-35 20t-17.5 35t-4.5 40.5z" />
<glyph unicode="&#x651;&#x64c;" horiz-adv-x="484" arabic-form="isolated" d="M43 1917q20 23 46.5 37.5t53 18.5t49.5 -1.5t35.5 -20.5t10.5 -40.5t-24 -61.5q48 17 89.5 38t75.5 53q-43 9 -63 27t-23.5 40t8 45t31.5 41.5t46 30t52 10.5q22 -2 29.5 -21t7 -43t-6 -46.5t-9.5 -31.5l40 -10l-18 -65l-48 11q-7 -12 -21 -28.5t-33 -34t-42 -33t-48 -26 t-50 -13t-48 6.5q-23 10 -25 27t3 36t11 36t-2 26.5t-36.5 9t-90.5 -17.5zM87.5 1632.5q-0.5 26.5 3.5 48.5t9 33q0 -3 5 1.5t10.5 10.5t10 10t4.5 1q-5 -21 -6.5 -47.5t4 -49.5t19.5 -37.5t40 -9.5q28 5 41 23t18 40.5t6.5 45.5t6.5 39q1 -3 4.5 1t8 9t8 9.5t5.5 1.5 q-3 -30 6 -54t25.5 -37t38 -12.5t43.5 20.5q4 10 2 23t-8.5 26t-15 25t-17.5 21q11 20 19.5 37.5t17.5 34.5q13 -15 22.5 -33t17.5 -36q11 -32 13 -66t-6 -63.5t-26.5 -50t-47.5 -24.5q-25 -4 -38.5 3t-30.5 19q-4 -11 -11 -25t-18.5 -28t-27.5 -25.5t-38 -16.5 q-34 -8 -56.5 1.5t-36 29.5t-19 47.5t-6 54zM346 2048q-2 -10 3.5 -16.5t14.5 -11.5t21.5 -9.5t25.5 -9.5q2 17 2 30q0 11 -2 21.5t-8 14.5v-2q-5 5 -12 6.5t-12 1.5q-14 1 -23.5 -7t-9.5 -18z" />
<glyph unicode="&#x651;&#x64d;" horiz-adv-x="425" arabic-form="isolated" d="M31 1438l33 75l350 141l-33 -75zM41 1543l33 75l350 141l-33 -75zM56.5 1844.5q0.5 26.5 4.5 49t10 32.5q0 -3 4.5 1.5l10.5 10.5t10.5 10t4.5 1q-6 -21 -8 -48t3 -50t18.5 -37.5t39.5 -10.5q29 4 42.5 21t19 39.5t7 46t7.5 39.5q1 -3 5 0.5t8.5 9t8 9.5t5.5 1 q-4 -29 4 -53.5t24 -38t37 -13.5q22 0 45 20q5 10 3 22.5t-8 25.5t-14.5 25.5t-16.5 21.5q11 20 20 37t19 34q12 -15 21.5 -33.5t16.5 -36.5q10 -32 11 -66t-7.5 -63t-27.5 -49t-48 -24q-25 -3 -38.5 4t-30.5 20q-4 -11 -11.5 -25t-19 -27.5t-28 -24.5t-38.5 -16 q-34 -7 -56.5 3t-35 31t-17.5 48t-4.5 53.5z" />
<glyph unicode="&#x651;&#x64e;" horiz-adv-x="425" arabic-form="isolated" d="M61 1710l17 91l340 193l-17 -91zM66 1591q0 21 4.5 39.5t9.5 29.5q0 -3 4.5 1.5t9.5 10.5t10 10.5t5 1.5q-5 -21 -7 -40t2 -32.5t17 -19t38 -0.5q28 5 41 23t17.5 40.5t5.5 46t6 39.5q1 -3 4.5 1t7.5 9t8 9.5t6 1.5q-3 -30 6.5 -54t26 -36.5t38 -11.5t42.5 21q4 10 2 23 t-8.5 25.5t-15.5 24.5t-18 21q5 10 14.5 15.5t20 10t20 9.5t15.5 13q5 -8 5.5 -12.5t-0.5 -8.5t-1.5 -8.5t3.5 -13.5q12 -32 14.5 -66t-5 -63.5t-25.5 -50.5t-47 -26q-25 -4 -39 3t-31 18q-4 -11 -10.5 -25.5t-18 -28.5t-27 -25.5t-37.5 -16.5q-34 -9 -56 -3.5t-35 20 t-17.5 35t-4.5 40.5z" />
<glyph unicode="&#x651;&#x64f;" horiz-adv-x="437" arabic-form="isolated" d="M2 1791q60 20 103 34t77 28t61.5 31t54.5 43q-46 8 -67.5 26.5t-25 40.5t8.5 45t33 42t48.5 30.5t55.5 10.5q23 -1 31 -20t7.5 -43.5t-6.5 -47.5t-10 -33l43 -10l-19 -63l-50 10q-11 -18 -37 -41t-61.5 -43.5t-76.5 -34t-83 -11.5q-57 4 -75 4q-17 0 -12 2zM63.5 1632.5 q-0.5 26.5 3.5 48.5t9 33q0 -3 5 1.5t10.5 10.5t10 10t4.5 1q-5 -21 -6.5 -47.5t4 -49.5t19.5 -37.5t40 -9.5q28 5 41 23t18 40.5t6.5 45.5t6.5 39q1 -3 4.5 1t8 9t8 9.5t5.5 1.5q-3 -30 6 -54t25.5 -37t38 -12.5t43.5 20.5q4 10 2 23t-8.5 26t-15 25t-17.5 21 q11 20 19.5 37.5t17.5 34.5q13 -15 22.5 -33t17.5 -36q11 -32 13 -66t-6 -63.5t-26.5 -50t-47.5 -24.5q-25 -4 -38.5 3t-30.5 19q-4 -11 -11 -25t-18.5 -28t-27.5 -25.5t-38 -16.5q-34 -8 -56.5 1.5t-36 29.5t-19 47.5t-6 54zM262 2036q-2 -20 19 -29.5t50 -17.5q2 16 2 30 q0 11 -2 22t-9 14v-1q-5 5 -11.5 6.5t-11.5 1.5q-17 1 -26.5 -7t-10.5 -19z" />
<glyph unicode="&#x651;&#x650;" horiz-adv-x="425" arabic-form="isolated" d="M71.5 1766.5q0.5 26.5 4.5 48.5t10 33q0 -3 4.5 1.5l10.5 10.5t10.5 10t4.5 1q-6 -21 -8 -48t3 -50t18.5 -37.5t39.5 -10.5q29 4 42.5 21t19 39.5t7 46t7.5 39.5q1 -3 5 0.5t8.5 9t8 9.5t5.5 1q-4 -29 4 -53.5t24 -38t37 -13.5q22 0 45 20q5 10 3 22.5t-8 25.5 t-14.5 25.5t-16.5 21.5q11 20 20 37t19 34q12 -15 21.5 -33.5t16.5 -36.5q10 -32 11 -66t-7.5 -63t-27.5 -49t-48 -24q-25 -3 -38.5 4t-30.5 20q-4 -11 -11.5 -25t-19 -27.5t-28 -24.5t-38.5 -16q-34 -7 -56.5 3t-35 31t-17.5 48t-4.5 53.5zM82 1397l17 91l340 193l-17 -91z " />
<glyph unicode="&#x640;&#x651;&#x64e;" horiz-adv-x="375" arabic-form="medial" d="M-39 1077l17 91l340 193l-17 -91zM-34 958q0 21 4.5 39.5t9.5 29.5q0 -3 4.5 1.5t9.5 10.5t10 10.5t5 1.5q-5 -21 -7 -40t2 -32.5t17 -19t38 -0.5q28 5 41 23t17.5 40.5t5.5 46t6 39.5q1 -3 4.5 1t7.5 9t8 9.5t6 1.5q-3 -30 6.5 -54t26 -36.5t38 -11.5t42.5 21q4 10 2 23 t-8.5 25.5t-15.5 24.5t-18 21q5 10 14.5 15.5t20 10t20 9.5t15.5 13q5 -8 5.5 -12.5t-0.5 -8.5t-1.5 -8.5t3.5 -13.5q12 -32 14.5 -66t-5 -63.5t-25.5 -50.5t-47 -26q-25 -4 -39 3t-31 18q-4 -11 -10.5 -25.5t-18 -28.5t-27 -25.5t-37.5 -16.5q-34 -9 -56 -3.5t-35 20 t-17.5 35t-4.5 40.5z" />
<glyph unicode="&#x640;&#x651;&#x64f;" horiz-adv-x="480" arabic-form="medial" d="M-5 1183q60 20 103 34t77 28t61.5 31t54.5 43q-46 8 -67.5 26.5t-25 40.5t8.5 45t33 42t48.5 30.5t55.5 10.5q23 -1 31 -20t7.5 -43.5t-6.5 -47.5t-10 -33l43 -10l-19 -63l-50 10q-11 -18 -37 -41t-61.5 -43.5t-76.5 -34t-83 -11.5q-57 4 -75 4q-17 0 -12 2zM56.5 1024.5 q-0.5 26.5 3.5 48.5t9 33q0 -3 5 1.5t10.5 10.5t10 10t4.5 1q-5 -21 -6.5 -47.5t4 -49.5t19.5 -37.5t40 -9.5q28 5 41 23t18 40.5t6.5 45.5t6.5 39q1 -3 4.5 1t8 9t8 9.5t5.5 1.5q-3 -30 6 -54t25.5 -37t38 -12.5t43.5 20.5q4 10 2 23t-8.5 26t-15 25t-17.5 21 q11 20 19.5 37.5t17.5 34.5q13 -15 22.5 -33t17.5 -36q11 -32 13 -66t-6 -63.5t-26.5 -50t-47.5 -24.5q-25 -4 -38.5 3t-30.5 19q-4 -11 -11 -25t-18.5 -28t-27.5 -25.5t-38 -16.5q-34 -8 -56.5 1.5t-36 29.5t-19 47.5t-6 54zM255 1428q-2 -20 19 -29.5t50 -17.5q2 16 2 30 q0 11 -2 22t-9 14v-1q-5 5 -11.5 6.5t-11.5 1.5q-17 1 -26.5 -7t-10.5 -19z" />
<glyph unicode="&#xfedf;&#xfee0;&#xfeea;" horiz-adv-x="1852" arabic-form="isolated" d="M60 385v417q0 77 17.5 131.5t51 89.5t83 51.5t113.5 16.5h223q64 0 113.5 -16.5t83 -51.5t51 -89.5t17.5 -131.5v-299h176v567q0 20 7.5 37t20.5 30t30 20t37 7h125q39 0 66.5 -27t27.5 -67v-567h175v788q0 19 7.5 36.5t20.5 30t30 20t37 7.5h125q19 0 36.5 -7.5t30 -20 t20 -30t7.5 -36.5v-906q0 -77 -17.5 -132t-51.5 -90t-83 -51.5t-113 -16.5h-1202q-64 0 -113.5 16.5t-83 51.5t-51 90t-17.5 132zM372 503h129v275h-129v-275zM947 1294v150q0 12 8.5 20t19.5 8h38q11 0 19.5 -8t8.5 -20v-133h67v133q0 12 8.5 20t19.5 8h38q11 0 19 -8 t8 -20v-133h67v133q0 12 8 20t20 8h38q11 0 19.5 -8t8.5 -20v-150q0 -24 -7 -39t-18 -23.5t-25 -11.5t-28 -3h-260q-39 0 -58 17.5t-19 59.5z" />
<glyph unicode="&#x640;&#x64e;" horiz-adv-x="448" arabic-form="medial" d="M13 952q5 24 8 39.5t7 37.5q99 52 191.5 101.5t191.5 102.5l-15 -76q-97 -52 -191.5 -102.5t-191.5 -102.5z" />
<glyph unicode="&#x640;&#x64f;" horiz-adv-x="490" arabic-form="medial" d="M7 1064q61 25 105.5 43t79 36t62.5 39.5t56 54.5q-47 11 -69 34t-25.5 51t9 57.5t34 53.5t49.5 39t56 13q16 -1 25 -12.5t12.5 -29t2.5 -39t-3.5 -41.5t-6.5 -36.5t-7 -24.5l44 -13l-19 -80l-52 12q-11 -23 -37.5 -52.5t-62.5 -55t-78.5 -42.5t-85.5 -15q-29 2 -47.5 3 t-28.5 2t-12.5 1.5t-0.5 1.5zM273 1375q-2 -25 20 -37t51 -23q2 20 2 38q0 15 -2 28.5t-9 18.5v-2q-5 6 -12 8t-12 2q-17 2 -27 -8.5t-11 -24.5z" />
<glyph unicode="&#x640;&#x650;" horiz-adv-x="669" arabic-form="medial" d="M9 301q5 23 8 39t7 38q99 52 191.5 101.5t191.5 102.5l-15 -76q-97 -52 -191.5 -102.5t-191.5 -102.5z" />
<glyph unicode="&#x640;&#x651;" horiz-adv-x="448" arabic-form="medial" d="M47.5 1073.5q-1.5 27.5 2 53.5t10.5 47.5t14 31.5q0 -3 5 1t11.5 9t11.5 8.5t5 0.5q-8 -20 -13.5 -46.5t-3 -50t14 -39.5t37.5 -15q29 0 44.5 16t23.5 37.5t12.5 44.5t12.5 38q1 -3 5 0t9 7.5t9.5 8t5.5 0.5q-8 -29 -2.5 -54t19.5 -40t35.5 -18t46.5 14q6 9 5.5 22 t-4.5 26.5t-11 27t-14 23.5q13 18 24.5 34t22.5 32q11 -17 17.5 -36t11.5 -38q6 -33 3 -67t-15 -62t-33 -45.5t-51 -17.5q-25 0 -37.5 9t-27.5 23q-6 -10 -15 -23t-22 -25t-31 -21t-40 -11q-35 -3 -56 10t-31 35t-11.5 49.5z" />
<glyph unicode="&#xfedf;&#xfe82;" horiz-adv-x="1026" arabic-form="isolated" d="M57 189v220q0 39 27 66.5t67 27.5h53v788q0 19 7.5 36.5t20 30t29.5 20t37 7.5h125q19 0 36.5 -7.5t30 -20t20 -30t7.5 -36.5v-788h127v788q0 19 7.5 36.5t20 30t30 20t37.5 7.5h125q19 0 36 -7.5t30 -20t20.5 -30t7.5 -36.5v-906q0 -77 -17.5 -132t-51.5 -90t-83 -51.5 t-113 -16.5h-542q-40 0 -67 27.5t-27 66.5zM171 1487v38q0 12 8.5 20t20.5 8h304q11 0 19 -8t8 -20v-38q0 -11 -8 -19.5t-19 -8.5h-304q-12 0 -20.5 8.5t-8.5 19.5z" />
<glyph unicode="&#xfee0;&#xfe82;" horiz-adv-x="927" arabic-form="final" d="M51 1487v38q0 12 8.5 20t20.5 8h303q11 0 19.5 -8t8.5 -20v-38q0 -11 -8.5 -19.5t-19.5 -8.5h-303q-12 0 -20.5 8.5t-8.5 19.5zM76 385v906q0 19 7.5 36.5t20 30t29.5 20t37 7.5h125q19 0 36.5 -7.5t30.5 -20t20.5 -30t7.5 -36.5v-788h127v788q0 19 7.5 36.5t20 30 t29.5 20t37 7.5h125q19 0 36 -7.5t30 -20t20.5 -30t7.5 -36.5v-788h102v-408h-591q-64 0 -113.5 16.5t-83 51.5t-51 90t-17.5 132z" />
<glyph unicode="&#xfedf;&#xfe84;" horiz-adv-x="1026" arabic-form="isolated" d="M57 189v220q0 39 27 66.5t67 27.5h53v788q0 19 7.5 36.5t20 30t29.5 20t37 7.5h125q19 0 36.5 -7.5t30 -20t20 -30t7.5 -36.5v-788h127v788q0 19 7.5 36.5t20 30t30 20t37.5 7.5h125q19 0 36 -7.5t30 -20t20.5 -30t7.5 -36.5v-906q0 -77 -17.5 -132t-51.5 -90t-83 -51.5 t-113 -16.5h-542q-40 0 -67 27.5t-27 66.5zM213 1532v49q0 15 11 26.5t27 11.5h21v76q0 61 26.5 87.5t77.5 26.5h91q15 0 26 -10.5t11 -26.5v-49q0 -15 -11 -26t-26 -11h-73v-67h73q15 0 26 -11.5t11 -26.5v-49q0 -15 -11 -26t-26 -11h-216q-16 0 -27 11t-11 26z" />
<glyph unicode="&#xfee0;&#xfe84;" horiz-adv-x="927" arabic-form="final" d="M76 385v906q0 19 7.5 36.5t20 30t29.5 20t37 7.5h125q19 0 36.5 -7.5t30.5 -20t20.5 -30t7.5 -36.5v-788h127v788q0 19 7.5 36.5t20 30t29.5 20t37 7.5h125q19 0 36 -7.5t30 -20t20.5 -30t7.5 -36.5v-788h102v-408h-591q-64 0 -113.5 16.5t-83 51.5t-51 90t-17.5 132z M89 1532v49q0 15 10.5 26.5t26.5 11.5h22v76q0 61 26.5 87.5t76.5 26.5h93q14 0 24.5 -10.5t10.5 -26.5v-49q0 -15 -10.5 -26t-24.5 -11h-73v-67h73q14 0 24.5 -11.5t10.5 -26.5v-49q0 -15 -10.5 -26t-24.5 -11h-218q-16 0 -26.5 11t-10.5 26z" />
<glyph unicode="&#xfedf;&#xfe88;" horiz-adv-x="1026" arabic-form="isolated" d="M57 189v220q0 39 27 66.5t67 27.5h53v788q0 19 7.5 36.5t20 30t29.5 20t37 7.5h125q19 0 36.5 -7.5t30 -20t20 -30t7.5 -36.5v-788h127v788q0 19 7.5 36.5t20 30t30 20t37.5 7.5h125q19 0 36 -7.5t30 -20t20.5 -30t7.5 -36.5v-906q0 -77 -17.5 -132t-51.5 -90t-83 -51.5 t-113 -16.5h-542q-40 0 -67 27.5t-27 66.5zM178 -245q0 15 10.5 26t26.5 11h22v77q0 61 26.5 87.5t76.5 26.5h92q15 0 25.5 -11t10.5 -26v-50q0 -14 -10.5 -25.5t-25.5 -11.5h-73v-67h73q15 0 25.5 -11t10.5 -26v-50q0 -15 -10.5 -25.5t-25.5 -10.5h-217q-16 0 -26.5 10.5 t-10.5 25.5v50z" />
<glyph unicode="&#xfee0;&#xfe88;" horiz-adv-x="927" arabic-form="final" d="M75 -245q0 15 10.5 26t26.5 11h22v77q0 61 26.5 87.5t76.5 26.5h92q15 0 25.5 -11t10.5 -26v-50q0 -14 -10.5 -25.5t-25.5 -11.5h-73v-67h73q15 0 25.5 -11t10.5 -26v-50q0 -15 -10.5 -25.5t-25.5 -10.5h-217q-16 0 -26.5 10.5t-10.5 25.5v50zM76 385v906q0 19 7.5 36.5 t20 30t29.5 20t37 7.5h125q19 0 36.5 -7.5t30.5 -20t20.5 -30t7.5 -36.5v-788h127v788q0 19 7.5 36.5t20 30t29.5 20t37 7.5h125q19 0 36 -7.5t30 -20t20.5 -30t7.5 -36.5v-788h102v-408h-591q-64 0 -113.5 16.5t-83 51.5t-51 90t-17.5 132z" />
<glyph unicode="&#xfedf;&#xfe8e;" horiz-adv-x="1026" arabic-form="isolated" d="M57 189v220q0 39 27 66.5t67 27.5h53v788q0 19 7.5 36.5t20 30t29.5 20t37 7.5h125q19 0 36.5 -7.5t30 -20t20 -30t7.5 -36.5v-788h127v788q0 19 7.5 36.5t20 30t30 20t37.5 7.5h125q19 0 36 -7.5t30 -20t20.5 -30t7.5 -36.5v-906q0 -77 -17.5 -132t-51.5 -90t-83 -51.5 t-113 -16.5h-542q-40 0 -67 27.5t-27 66.5z" />
<glyph unicode="&#xfee0;&#xfe8e;" horiz-adv-x="927" arabic-form="final" d="M76 385v906q0 19 7.5 36.5t20 30t29.5 20t37 7.5h125q19 0 36.5 -7.5t30.5 -20t20.5 -30t7.5 -36.5v-788h127v788q0 19 7.5 36.5t20 30t29.5 20t37 7.5h125q19 0 36 -7.5t30 -20t20.5 -30t7.5 -36.5v-788h102v-408h-591q-64 0 -113.5 16.5t-83 51.5t-51 90t-17.5 132z " />
<glyph unicode="&#xfcf4;" horiz-adv-x="532" arabic-form="medial" d="M71 1021q61 25 105.5 43t79 36t62.5 39.5t56 54.5q-47 11 -69 34t-25.5 51t9 57.5t34 53.5t49.5 38.5t56 13.5q16 -1 25 -12.5t12.5 -29t2.5 -39t-3.5 -41.5t-6.5 -36.5t-7 -24.5l44 -13l-19 -80l-52 12q-11 -23 -37.5 -52.5t-62.5 -55t-78.5 -42.5t-85.5 -15 q-29 2 -47.5 3t-28.5 2t-12.5 1.5t-0.5 1.5zM337 1332q-2 -25 20 -37t51 -23q2 20 2 38q0 15 -2 28.5t-9 18.5v-2q-5 6 -12 8t-12 2q-17 2 -27 -8.5t-11 -24.5z" />
<glyph unicode="&#xfe70;" horiz-adv-x="408" arabic-form="isolated" d="M49 1482l17 91l340 193l-17 -91zM63 1649l17 91l340 193l-17 -91z" />
<glyph unicode="&#xfe71;" horiz-adv-x="669" arabic-form="medial" d="M1 949q5 23 8 39t7 38q99 52 191.5 101.5t191.5 102.5l-16 -76q-97 -52 -191 -102.5t-191 -102.5zM33 1140q5 23 8.5 38.5t7.5 38.5q99 52 191 101.5t191 102.5l-15 -76q-97 -52 -191.5 -102.5t-191.5 -102.5z" />
<glyph unicode="&#xfe72;" horiz-adv-x="469" arabic-form="isolated" d="M45 1619q19 27 44.5 43.5t50.5 22t47 -1t34 -24.5t10.5 -48t-23.5 -72q46 20 85.5 44t71.5 62q-41 10 -60.5 31.5t-22 47.5t8 53t30 49.5t44 36t49.5 12.5q21 -2 28 -24.5t6.5 -51t-6 -55.5t-8.5 -37l38 -12l-17 -76l-46 13q-6 -14 -19.5 -33.5t-32 -40t-40.5 -39.5 t-45.5 -31t-47.5 -15t-46 8t-24 31.5t3 42t10.5 42t-2 32t-34.5 10.5t-86 -20zM334 1773q-2 -11 3 -19t14 -14t20.5 -11.5t24.5 -11.5q2 19 2 35q0 14 -2.5 26.5t-7.5 16.5v-2q-10 10 -23 10q-14 1 -22.5 -8.5t-8.5 -21.5z" />
<glyph unicode="&#xfe74;" horiz-adv-x="408" arabic-form="isolated" d="M1 -288q5 23 8 38.5t7 38.5q99 52 191.5 101.5t191.5 102.5l-15 -76q-97 -52 -191.5 -102.5t-191.5 -102.5zM33 -98q5 24 8.5 39.5t7.5 38.5q99 52 191 101t191 102l-15 -76q-97 -52 -191.5 -102.5t-191.5 -102.5z" />
<glyph unicode="&#xfe76;" horiz-adv-x="408" arabic-form="isolated" d="M13 1378q5 24 8 39.5t7 37.5q99 52 191.5 101.5t191.5 102.5l-15 -76q-97 -52 -191.5 -102.5t-191.5 -102.5z" />
<glyph unicode="&#xfe78;" horiz-adv-x="414" arabic-form="isolated" d="M13 1507q61 25 105.5 43t79 36t62.5 39.5t56 54.5q-47 11 -69 34t-25.5 51t9 57.5t34 53.5t49.5 38.5t56 13.5q16 -1 25 -12.5t12.5 -29t2.5 -39t-3.5 -41.5t-6.5 -36.5t-7 -24.5l44 -13l-19 -80l-52 12q-11 -23 -37.5 -52.5t-62.5 -55t-78.5 -42.5t-85.5 -15 q-29 2 -47.5 3t-28.5 2t-12.5 1.5t-0.5 1.5zM279 1818q-2 -25 20 -37t51 -23q2 20 2 38q0 15 -2 28.5t-9 18.5v-2q-5 6 -12 8t-12 2q-17 2 -27 -8.5t-11 -24.5z" />
<glyph unicode="&#xfe7a;" horiz-adv-x="408" arabic-form="isolated" d="M9 -568q5 23 8 39t7 38q99 52 191.5 101.5t191.5 102.5l-15 -76q-97 -52 -191.5 -102.5t-191.5 -102.5z" />
<glyph unicode="&#xfe7c;" horiz-adv-x="425" arabic-form="isolated" d="M59.5 1603.5q-1.5 27.5 2 53.5t10.5 47.5t14 31.5q0 -3 5 1t11.5 9t11.5 8.5t5 0.5q-8 -20 -13.5 -46.5t-3 -50t14 -39.5t37.5 -15q29 0 44.5 16t23.5 37.5t12.5 44.5t12.5 38q1 -3 5 0t9 7.5t9.5 8t5.5 0.5q-8 -29 -2.5 -54t19.5 -40t35.5 -18t46.5 14q6 9 5.5 22 t-4.5 26.5t-11 27t-14 23.5q13 18 24.5 34t22.5 32q11 -17 17.5 -36t11.5 -38q6 -33 3 -67t-15 -62t-33 -45.5t-51 -17.5q-25 0 -37.5 9t-27.5 23q-6 -10 -15 -23t-22 -25t-31 -21t-40 -11q-35 -3 -56 10t-31 35t-11.5 49.5z" />
<glyph unicode="&#xfe7e;" horiz-adv-x="328" arabic-form="isolated" d="M59 1556q-5 33 3.5 75.5t27 81.5t46 67t59.5 33q28 4 54 -6.5t46.5 -28.5t34.5 -40.5t17 -41.5q5 -34 -10 -71.5t-41 -87.5v1q0 1 1 2l-3 -5q-24 -14 -61.5 -26.5t-74 -15t-65 11t-34.5 51.5zM123 1643q3 -22 21 -32.5t42 -11t50 6.5t46 21l1 1q-3 14 -13.5 30t-25 29.5 t-31.5 22t-35 5.5q-30 -5 -44 -27t-11 -45zM294 1535l1 1q0 -1 -1 -1zM295 1536l1 1q0 -1 -1 -1z" />
<glyph unicode="&#xfe7f;" horiz-adv-x="2797" arabic-form="medial" d="M90 223v504h2611v-504h-2611zM161 1054q0 34 16.5 56.5t54.5 22.5q6 0 12 -0.5t13 -1.5q46 -5 92.5 -10t94.5 -5l80 179q8 37 25.5 64t46.5 27q10 0 19.5 -3.5t9.5 -17.5q0 -9 -8 -24.5t-17 -28.5l-97 -192q105 5 209 36t189 97q35 31 61.5 43.5t43.5 12.5q25 0 25 -21 q0 -19 -23 -47.5t-73 -54.5q-33 -34 -63 -72t-54 -82t-40 -96t-20 -115q0 -19 -15 -19q-12 0 -18 13.5t-6 45.5q0 73 22.5 140.5t56.5 124.5q-76 -25 -155 -36.5t-161 -11.5l-80 -160q-15 -31 -39 -54t-56 -23q-24 0 -50 18.5t-47 49t-35 68.5t-14 77zM200 1066 q0 -23 9.5 -52.5t25.5 -56t36 -45t40 -18.5q15 0 29 12t26 40l61 134q-108 3 -214 21q-13 -10 -13 -35zM879 873q0 7 2.5 15t6.5 17q18 40 49 76.5t68.5 64t77.5 44t76 16.5q27 0 48 -16t21 -52q0 -14 -9.5 -30.5t-27.5 -36.5q-20 -20 -35 -44.5t-15 -46.5q0 -15 9 -21.5 t23 -6.5q21 0 49.5 10t56.5 23t51.5 25.5t33.5 18.5q8 37 32.5 68.5t55.5 54.5t63.5 36.5t57.5 13.5q14 0 20 -5t6 -13q0 -10 -11 -20.5t-30 -12.5q-19 -7 -44 -19t-47.5 -30t-38 -41t-15.5 -52q0 -32 16.5 -45t42.5 -13t59 10t64.5 23.5t58 27.5t41.5 21q0 36 19 71 t48.5 62.5t66.5 44t73 16.5q22 0 36.5 -4.5t22 -11t10.5 -15t3 -15.5q0 -26 -29 -52t-67 -49t-74.5 -40.5t-52.5 -25.5q16 -23 41 -33.5t57 -10.5q30 0 64.5 8.5t70 23.5t70 35.5t64.5 43.5q19 14 38 32t40 33q4 3 13 8t19.5 10.5t21.5 9t20 3.5q15 0 15 -13q0 -5 -4 -16.5 t-10 -22.5q-16 -45 -25.5 -75t-11.5 -47q0 -5 6 -5q7 0 20 6.5t29.5 16t34 22t32.5 24.5q4 2 23 15t43 27.5t48 26.5t38 12q12 0 12 -12q-3 -29 -3 -57q0 -12 1 -24.5t4.5 -22t10 -15.5t17.5 -6q17 0 31 5.5t27 13.5t25.5 18t27.5 19l8 -21q-12 -9 -30 -25t-38.5 -31.5 t-42.5 -27t-42 -11.5q-15 0 -25 6t-15 15t-7 19t-2 19t1 18.5t1 17.5q0 11 -3.5 21t-14.5 10q-10 0 -27.5 -9.5t-38.5 -24t-45 -31t-48 -31t-46 -24.5t-40 -10q-11 2 -22 8t-11 19q0 23 4.5 44.5t18.5 62.5q0 1 -15.5 -10t-43 -28t-64 -37t-77 -37.5t-83 -29t-82.5 -11.5 q-41 0 -76.5 16.5t-49.5 46.5q-19 -8 -47.5 -22t-62 -27.5t-68.5 -23t-66 -9.5q-35 0 -61.5 16.5t-35.5 60.5q-21 -12 -45 -26t-49.5 -25.5t-50.5 -19.5t-49 -8q-31 0 -55.5 20.5t-43.5 65.5q-17 -12 -30 -20.5t-25.5 -15.5t-25.5 -12t-30 -11q-18 -6 -32 -6q-17 0 -33 11.5 t-16 33.5zM880 265h126v125h-126v-125zM928 880q41 0 77.5 16.5t68.5 42t59 57.5t50 63q-5 1 -10 1h-10q-36 0 -70.5 -17t-65 -43.5t-56 -58.5t-43.5 -61zM1103 265h91v320l318 -320h109v421h-91v-320l-313 320h-114v-421zM1709 265h430v76h-331v108h299v75h-299v87h322v75 h-421v-421zM1737 954q40 17 73.5 34t58.5 33t39 30t14 25q0 10 -8 15q-50 -5 -99 -38t-78 -99zM2202 609h183v-344h89v344h183v77h-455v-77z" />
<glyph unicode="&#x621;" horiz-adv-x="852" arabic-form="isolated" d="M53 189v220q0 19 7.5 36.5t20 30t29.5 20t37 7.5h55v299q0 77 17.5 131.5t51 89.5t82.5 51.5t113 16.5h233q39 0 66.5 -27t27.5 -67v-125q0 -20 -7.5 -37t-20 -29.5t-30 -20t-36.5 -7.5h-184v-275h184q19 0 36.5 -7.5t30 -20t20 -30t7.5 -36.5v-220q0 -20 -7.5 -37 t-20 -29.5t-30 -20t-36.5 -7.5h-552q-20 0 -37 7.5t-29.5 20t-20 29.5t-7.5 37z" />
<glyph unicode="&#x622;" horiz-adv-x="438" arabic-form="isolated" d="M51 1487v38q0 12 8.5 20t20.5 8h303q11 0 19.5 -8t8.5 -20v-38q0 -11 -8.5 -19.5t-19.5 -8.5h-303q-12 0 -20.5 8.5t-8.5 19.5zM67 184v1107q0 19 7.5 36.5t20 30t29.5 20t37 7.5h125q19 0 36.5 -7.5t30 -20t20 -30t7.5 -36.5v-1107q0 -20 -7.5 -37t-20 -29.5t-30 -20 t-36.5 -7.5h-125q-20 0 -37 7.5t-29.5 20t-20 29.5t-7.5 37z" />
<glyph unicode="&#x622;" horiz-adv-x="467" arabic-form="final" d="M51 1487v38q0 12 8.5 20t20.5 8h303q11 0 19.5 -8t8.5 -20v-38q0 -11 -8.5 -19.5t-19.5 -8.5h-303q-12 0 -20.5 8.5t-8.5 19.5zM66 385v906q0 19 7.5 36.5t20.5 30t30 20t36 7.5h125q40 0 67 -27.5t27 -66.5v-788h95v-408h-143q-64 0 -113.5 16.5t-83 51.5t-51 90 t-17.5 132z" />
<glyph unicode="&#x623;" horiz-adv-x="438" arabic-form="isolated" d="M67 184v1107q0 19 7.5 36.5t20 30t29.5 20t37 7.5h125q19 0 36.5 -7.5t30 -20t20 -30t7.5 -36.5v-1107q0 -20 -7.5 -37t-20 -29.5t-30 -20t-36.5 -7.5h-125q-20 0 -37 7.5t-29.5 20t-20 29.5t-7.5 37zM73 1532v49q0 15 10.5 26.5t26.5 11.5h22v76q0 61 26.5 87.5 t76.5 26.5h92q15 0 25.5 -10.5t10.5 -26.5v-49q0 -15 -10.5 -26t-25.5 -11h-73v-67h73q15 0 25.5 -11.5t10.5 -26.5v-49q0 -15 -10.5 -26t-25.5 -11h-217q-16 0 -26.5 11t-10.5 26z" />
<glyph unicode="&#x623;" horiz-adv-x="467" arabic-form="final" d="M66 385v906q0 19 7.5 36.5t20.5 30t30 20t36 7.5h125q40 0 67 -27.5t27 -66.5v-788h95v-408h-143q-64 0 -113.5 16.5t-83 51.5t-51 90t-17.5 132zM73 1532v49q0 15 10.5 26.5t26.5 11.5h22v76q0 61 26.5 87.5t76.5 26.5h92q15 0 25.5 -10.5t10.5 -26.5v-49 q0 -15 -10.5 -26t-25.5 -11h-73v-67h73q15 0 25.5 -11.5t10.5 -26.5v-49q0 -15 -10.5 -26t-25.5 -11h-217q-16 0 -26.5 11t-10.5 26z" />
<glyph unicode="&#x624;" horiz-adv-x="882" arabic-form="isolated" d="M64 385v417q0 77 17.5 131.5t51 89.5t83 51.5t114.5 16.5h222q64 0 114 -16.5t84 -51.5t51 -89.5t17 -131.5l-2 -626q0 -139 -45.5 -243.5t-128.5 -171.5t-200 -95t-259 -13q-38 4 -66 29.5t-28 64.5v125q0 20 7.5 37t20.5 30t30 20t36 7q45 0 97.5 -2t99.5 7.5t82 37 t45 86.5h-177q-129 0 -197.5 68t-68.5 222zM224 1272v71q0 21 15.5 37t38.5 16h31v109q0 87 37.5 125t109.5 38h132q21 0 36 -15t15 -38v-70q0 -22 -15 -37.5t-36 -15.5h-104v-96h104q21 0 36 -16t15 -37v-71q0 -23 -15 -38t-36 -15h-310q-23 0 -38.5 15t-15.5 38zM378 503 h127v275h-127v-275z" />
<glyph unicode="&#x624;" horiz-adv-x="911" arabic-form="final" d="M62 385v417q0 77 17.5 131.5t51 89.5t83 51.5t113.5 16.5h223q64 0 113 -16.5t83 -51.5t51 -89.5t17 -131.5l-1 -299h104v-408h-108q-14 -119 -64 -208t-132 -145.5t-191.5 -79t-241.5 -9.5q-38 4 -66 29.5t-28 64.5v125q0 20 7.5 37t20.5 30t30 20t36 7q30 0 64 -1.5 t68 -0.5t65.5 7t57.5 20.5t44.5 39.5t25.5 64h-178q-64 0 -113.5 16.5t-83 51.5t-51 90t-17.5 132zM224 1272v71q0 21 15.5 37t38.5 16h31v109q0 87 37.5 125t109.5 38h132q21 0 36 -15t15 -38v-70q0 -22 -15 -37.5t-36 -15.5h-104v-96h104q21 0 36 -16t15 -37v-71 q0 -23 -15 -38t-36 -15h-310q-23 0 -38.5 15t-15.5 38zM375 503h127v275h-127v-275z" />
<glyph unicode="&#x625;" horiz-adv-x="438" arabic-form="isolated" d="M67 184v1107q0 19 7.5 36.5t20 30t29.5 20t37 7.5h125q19 0 36.5 -7.5t30 -20t20 -30t7.5 -36.5v-1107q0 -20 -7.5 -37t-20 -29.5t-30 -20t-36.5 -7.5h-125q-20 0 -37 7.5t-29.5 20t-20 29.5t-7.5 37zM75 -245q0 15 10.5 26t26.5 11h22v77q0 61 26.5 87.5t76.5 26.5h92 q15 0 25.5 -11t10.5 -26v-50q0 -14 -10.5 -25.5t-25.5 -11.5h-73v-67h73q15 0 25.5 -11t10.5 -26v-50q0 -15 -10.5 -25.5t-25.5 -10.5h-217q-16 0 -26.5 10.5t-10.5 25.5v50z" />
<glyph unicode="&#x625;" horiz-adv-x="467" arabic-form="final" d="M66 385v906q0 19 7.5 36.5t20.5 30t30 20t36 7.5h125q40 0 67 -27.5t27 -66.5v-788h95v-408h-143q-64 0 -113.5 16.5t-83 51.5t-51 90t-17.5 132zM75 -245q0 15 10.5 26t26.5 11h22v77q0 61 26.5 87.5t76.5 26.5h92q15 0 25.5 -11t10.5 -26v-50q0 -14 -10.5 -25.5 t-25.5 -11.5h-73v-67h73q15 0 25.5 -11t10.5 -26v-50q0 -15 -10.5 -25.5t-25.5 -10.5h-217q-16 0 -26.5 10.5t-10.5 25.5v50z" />
<glyph unicode="&#x626;" horiz-adv-x="1166" arabic-form="isolated" d="M48 274q0 10 0.5 36.5t0.5 63.5v84v96q0 19 7.5 36.5t20 30t29.5 20t36 7.5h126q19 0 36 -7.5t30 -20.5t20.5 -30t7.5 -36v-277q-1 -51 5.5 -105t30 -99.5t69 -76t123.5 -35.5q34 -2 67.5 6t61.5 25.5t47.5 43.5t25.5 59q-70 0 -120.5 20t-83 57.5t-48 91.5t-15.5 121 v322q0 154 68.5 222t197.5 68l208 -1q19 0 36.5 -7.5t30 -20t20 -30t7.5 -36.5v-126q0 -19 -7.5 -36t-20 -30t-30 -20.5t-36.5 -7.5l-160 1v-180h127q32 1 59 -14.5t47.5 -44t33.5 -67t17 -83.5q8 -85 -6 -166.5t-46.5 -154t-82.5 -133.5t-115 -104.5t-142.5 -67.5 t-165.5 -22q-146 3 -245 54.5t-160 137.5t-87 198.5t-25 237.5zM60 816v70q0 22 15 37.5t38 15.5h31v111q0 86 38 123.5t109 37.5h132q22 0 36.5 -15t14.5 -38v-69q0 -22 -14.5 -37.5t-36.5 -15.5h-105v-97h105q22 0 36.5 -15.5t14.5 -37.5v-70q0 -23 -14.5 -38t-36.5 -15 h-310q-23 0 -38 15t-15 38z" />
<glyph unicode="&#x626;" horiz-adv-x="1200" arabic-form="final" d="M57 274v280q0 19 7.5 36.5t20.5 30t30 20t36 7.5h126q19 0 36.5 -7.5t30 -20.5t20 -30t7.5 -36v-277q0 -51 6 -105t29.5 -99.5t69 -76t123.5 -35.5q34 -2 68 6t61.5 25.5t47 43.5t24.5 59h-161q-19 0 -36 7.5t-30 20t-20.5 29.5t-7.5 37v220q0 19 7.5 36.5t20.5 30t30 20 t36 7.5h566v-408h-100q-13 -103 -59.5 -187t-117 -142.5t-161.5 -90t-194 -29.5q-145 3 -244 54.5t-159.5 137.5t-87 198.5t-25.5 237.5zM60 816v70q0 22 15 37.5t38 15.5h31v111q0 86 38 123.5t109 37.5h132q22 0 36.5 -15t14.5 -38v-69q0 -22 -14.5 -37.5t-36.5 -15.5 h-105v-97h105q22 0 36.5 -15.5t14.5 -37.5v-70q0 -23 -14.5 -38t-36.5 -15h-310q-23 0 -38 15t-15 38z" />
<glyph unicode="&#x626;" horiz-adv-x="528" arabic-form="initial" d="M-4 95v408h161v179q0 19 7.5 36.5t20 30t29.5 20t37 7.5h125q19 0 36 -7.5t30 -20t20.5 -30t7.5 -36.5v-297q0 -154 -68.5 -222t-197.5 -68h-208zM54 944v71q0 21 15 37t38 16h31v109q0 87 38 124.5t109 37.5h133q20 0 35 -15t15 -38v-69q0 -22 -15 -37.5t-35 -15.5h-105 v-96h105q20 0 35 -16t15 -37v-71q0 -23 -15 -38t-35 -15h-311q-23 0 -38 15t-15 38z" />
<glyph unicode="&#x626;" horiz-adv-x="518" arabic-form="medial" d="M-3 95v408h107v179q0 19 7.5 36.5t20.5 30t30 20t37 7.5h125q19 0 36.5 -7.5t30 -20t20 -30t7.5 -36.5v-179h102v-408h-523zM51 944v71q0 21 15 37t38 16h32v109q0 87 37.5 124.5t109.5 37.5h131q22 0 36.5 -15t14.5 -38v-69q0 -22 -14.5 -37.5t-36.5 -15.5h-104v-96h104 q22 0 36.5 -16t14.5 -37v-71q0 -23 -14.5 -38t-36.5 -15h-310q-23 0 -38 15t-15 38z" />
<glyph unicode="&#x627;" horiz-adv-x="438" arabic-form="isolated" d="M67 184v1107q0 19 7.5 36.5t20 30t29.5 20t37 7.5h125q19 0 36.5 -7.5t30 -20t20 -30t7.5 -36.5v-1107q0 -20 -7.5 -37t-20 -29.5t-30 -20t-36.5 -7.5h-125q-20 0 -37 7.5t-29.5 20t-20 29.5t-7.5 37z" />
<glyph unicode="&#x627;" horiz-adv-x="467" arabic-form="final" d="M66 385v906q0 19 7.5 36.5t20.5 30t30 20t36 7.5h125q40 0 67 -27.5t27 -66.5v-788h95v-408h-143q-64 0 -113.5 16.5t-83 51.5t-51 90t-17.5 132z" />
<glyph unicode="&#x628;" horiz-adv-x="1299" arabic-form="isolated" d="M52 385v169q0 19 7.5 36t20 29.5t29.5 20t37 7.5h125q20 0 37 -7.5t30 -20t20 -29.5t7 -36v-51h563v493q0 19 7.5 36t20.5 29.5t30 20t36 7.5h126q19 0 36.5 -7.5t30 -20t20 -29.5t7.5 -36l-1 -611q0 -154 -68 -222t-196 -68h-659q-128 0 -197 68t-69 222zM480 -181 q0 32 12.5 60.5t33.5 49.5t49.5 33.5t60.5 12.5q33 0 61.5 -12.5t49.5 -33.5t33.5 -49.5t12.5 -60.5q0 -33 -12.5 -61.5t-33.5 -50t-49.5 -34t-61.5 -12.5q-32 0 -60.5 12.5t-49.5 34t-33.5 50t-12.5 61.5z" />
<glyph unicode="&#x628;" horiz-adv-x="1345" arabic-form="final" d="M60 385v169q0 19 7.5 36t20 29.5t29.5 20t37 7.5h125q19 0 36.5 -7.5t30.5 -20t20.5 -29.5t7.5 -36v-51h560v493q0 19 7 36t20 29.5t29.5 20t36.5 7.5h125q19 0 36 -7.5t30 -20t20.5 -29.5t7.5 -36v-493h103v-408h-1023q-129 0 -197.5 68t-68.5 222zM480 -181 q0 32 12.5 60.5t33.5 49.5t49.5 33.5t60.5 12.5q33 0 61.5 -12.5t49.5 -33.5t33.5 -49.5t12.5 -60.5q0 -33 -12.5 -61.5t-33.5 -50t-49.5 -34t-61.5 -12.5q-32 0 -60.5 12.5t-49.5 34t-33.5 50t-12.5 61.5z" />
<glyph unicode="&#x628;" horiz-adv-x="473" arabic-form="initial" d="M-3 95v408h105v493q0 19 7.5 36t20 29.5t29.5 20t37 7.5h124q19 0 36 -7.5t30 -20t20.5 -29.5t7.5 -36v-611q0 -154 -68.5 -222t-196.5 -68h-152zM81 -181q0 32 12.5 60.5t33.5 49.5t49.5 33.5t60.5 12.5q33 0 61.5 -12.5t49.5 -33.5t33 -49.5t12 -60.5q0 -33 -12 -61.5 t-33 -50t-49.5 -34t-61.5 -12.5q-32 0 -60.5 12.5t-49.5 34t-33.5 50t-12.5 61.5z" />
<glyph unicode="&#x628;" horiz-adv-x="518" arabic-form="medial" d="M-3 95v408h107v493q0 19 7.5 36t20.5 29.5t30 20t37 7.5h125q19 0 36.5 -7.5t30 -20t20 -29.5t7.5 -36v-493h102v-408h-523zM104 -181q0 32 12.5 60.5t34 49.5t50 33.5t60.5 12.5t60.5 -12.5t50 -33.5t34 -49.5t12.5 -60.5q0 -33 -12.5 -61.5t-34 -50t-50 -34 t-60.5 -12.5t-60.5 12.5t-50 34t-34 50t-12.5 61.5z" />
<glyph unicode="&#x629;" horiz-adv-x="886" arabic-form="isolated" d="M70 385v417q0 154 68 221.5t196 67.5h223q64 0 113 -16.5t83 -51.5t51.5 -89.5t17.5 -131.5v-417q0 -154 -68.5 -222t-195.5 -68h-224q-128 0 -196 68t-68 222zM105 1378q0 32 12.5 60.5t34 49.5t50 33.5t60.5 12.5t60.5 -12.5t49.5 -33.5t33.5 -49.5t12.5 -60.5 q0 -33 -12.5 -61.5t-33.5 -50t-49.5 -34t-60.5 -12.5t-60.5 12.5t-50 34t-34 50t-12.5 61.5zM382 503h127v275h-127v-275zM464 1378q0 32 12.5 60.5t33.5 49.5t49.5 33.5t60.5 12.5t60.5 -12.5t50 -33.5t34 -49.5t12.5 -60.5q0 -33 -12.5 -61.5t-34 -50t-50 -34t-60.5 -12.5 t-60.5 12.5t-49.5 34t-33.5 50t-12.5 61.5z" />
<glyph unicode="&#x629;" horiz-adv-x="921" arabic-form="final" d="M70 385v417q0 77 17.5 131.5t51 89.5t83 51.5t113.5 16.5h223q64 0 113 -16.5t83 -51.5t51.5 -89.5t17.5 -131.5v-299h102v-408h-590q-128 0 -196.5 68t-68.5 222zM110 1378q0 32 12.5 60.5t33.5 49.5t49.5 33.5t60.5 12.5t60.5 -12.5t50 -33.5t34 -49.5t12.5 -60.5 q0 -33 -12.5 -61.5t-34 -50t-50 -34t-60.5 -12.5t-60.5 12.5t-49.5 34t-33.5 50t-12.5 61.5zM382 503h127v275h-127v-275zM468 1378q0 32 12.5 60.5t34 49.5t50 33.5t60.5 12.5q33 0 61.5 -12.5t49.5 -33.5t33 -49.5t12 -60.5q0 -33 -12 -61.5t-33 -50t-49.5 -34 t-61.5 -12.5q-32 0 -60.5 12.5t-50 34t-34 50t-12.5 61.5z" />
<glyph unicode="&#x62a;" horiz-adv-x="1299" arabic-form="isolated" d="M52 385v169q0 19 7.5 36t20 29.5t29.5 20t37 7.5h125q20 0 37 -7.5t30 -20t20 -29.5t7 -36v-51h563v493q0 19 7.5 36t20.5 29.5t30 20t36 7.5h126q19 0 36.5 -7.5t30 -20t20 -29.5t7.5 -36l-1 -611q0 -154 -68 -222t-196 -68h-659q-128 0 -197 68t-69 222zM314 1364 q0 32 12.5 60.5t33.5 49.5t49.5 33.5t61.5 12.5q32 0 60.5 -12.5t49.5 -33.5t33 -49.5t12 -60.5t-12 -61t-33 -50.5t-49.5 -34t-60.5 -12.5q-33 0 -61.5 12.5t-49.5 34t-33.5 50.5t-12.5 61zM673 1364q0 32 12.5 60.5t34 49.5t50 33.5t60.5 12.5t60.5 -12.5t50 -33.5 t34 -49.5t12.5 -60.5t-12.5 -61t-34 -50.5t-50 -34t-60.5 -12.5t-60.5 12.5t-50 34t-34 50.5t-12.5 61z" />
<glyph unicode="&#x62a;" horiz-adv-x="1345" arabic-form="final" d="M60 385v169q0 19 7.5 36t20 29.5t29.5 20t37 7.5h125q19 0 36.5 -7.5t30.5 -20t20.5 -29.5t7.5 -36v-51h560v493q0 19 7 36t20 29.5t29.5 20t36.5 7.5h125q19 0 36 -7.5t30 -20t20.5 -29.5t7.5 -36v-493h103v-408h-1023q-129 0 -197.5 68t-68.5 222zM314 1364 q0 32 12.5 60.5t33.5 49.5t49.5 33.5t61.5 12.5q32 0 60.5 -12.5t49.5 -33.5t33 -49.5t12 -60.5t-12 -61t-33 -50.5t-49.5 -34t-60.5 -12.5q-33 0 -61.5 12.5t-49.5 34t-33.5 50.5t-12.5 61zM673 1364q0 32 12.5 60.5t34 49.5t50 33.5t60.5 12.5t60.5 -12.5t50 -33.5 t34 -49.5t12.5 -60.5t-12.5 -61t-34 -50.5t-50 -34t-60.5 -12.5t-60.5 12.5t-50 34t-34 50.5t-12.5 61z" />
<glyph unicode="&#x62a;" horiz-adv-x="767" arabic-form="initial" d="M-4 95v408h400v493q0 19 7.5 36t20 29.5t29.5 20t36 7.5h125q19 0 36.5 -7.5t30 -20t20 -29.5t7.5 -36v-611q0 -154 -68.5 -222t-196.5 -68h-447zM34 1364q0 32 12.5 60.5t33.5 49.5t49.5 33.5t61.5 12.5q32 0 60.5 -12.5t49.5 -33.5t33.5 -49.5t12.5 -60.5t-12.5 -61 t-33.5 -50.5t-49.5 -34t-60.5 -12.5q-33 0 -61.5 12.5t-49.5 34t-33.5 50.5t-12.5 61zM393 1364q0 32 12.5 60.5t34 49.5t50 33.5t60.5 12.5t60.5 -12.5t49.5 -33.5t33.5 -49.5t12.5 -60.5t-12.5 -61t-33.5 -50.5t-49.5 -34t-60.5 -12.5t-60.5 12.5t-50 34t-34 50.5 t-12.5 61z" />
<glyph unicode="&#x62a;" horiz-adv-x="752" arabic-form="medial" d="M0 95v408h219v493q0 19 7.5 36t20.5 29.5t30 20t37 7.5h124q20 0 37.5 -7.5t30 -20t20 -29.5t7.5 -36v-493h225v-408h-758zM43 1364q0 32 12.5 60.5t34 49.5t50 33.5t60.5 12.5t60.5 -12.5t50 -33.5t34 -49.5t12.5 -60.5t-12.5 -61t-34 -50.5t-50 -34t-60.5 -12.5 t-60.5 12.5t-50 34t-34 50.5t-12.5 61zM403 1364q0 32 12.5 60.5t33.5 49.5t49.5 33.5t60.5 12.5q33 0 61.5 -12.5t49.5 -33.5t33.5 -49.5t12.5 -60.5t-12.5 -61t-33.5 -50.5t-49.5 -34t-61.5 -12.5q-32 0 -60.5 12.5t-49.5 34t-33.5 50.5t-12.5 61z" />
<glyph unicode="&#x62b;" horiz-adv-x="1299" arabic-form="isolated" d="M52 385v169q0 19 7.5 36t20 29.5t29.5 20t37 7.5h125q20 0 37 -7.5t30 -20t20 -29.5t7 -36v-51h563v493q0 19 7.5 36t20.5 29.5t30 20t36 7.5h126q19 0 36.5 -7.5t30 -20t20 -29.5t7.5 -36l-1 -611q0 -154 -68 -222t-196 -68h-659q-128 0 -197 68t-69 222zM354 1364 q0 32 12.5 60.5t33.5 49.5t49.5 33.5t60.5 12.5q33 0 61.5 -12.5t49.5 -33.5t33 -49.5t12 -60.5t-12 -61t-33 -50.5t-49.5 -34t-61.5 -12.5q-32 0 -60.5 12.5t-49.5 34t-33.5 50.5t-12.5 61zM528 1682q0 32 12.5 60.5t34 50t50 34t60.5 12.5t60.5 -12.5t49.5 -34t33.5 -50 t12.5 -60.5t-12.5 -60.5t-33.5 -50t-49.5 -34t-60.5 -12.5t-60.5 12.5t-50 34t-34 50t-12.5 60.5zM713 1364q0 32 12.5 60.5t33.5 49.5t49.5 33.5t61.5 12.5q32 0 60.5 -12.5t49.5 -33.5t33.5 -49.5t12.5 -60.5t-12.5 -61t-33.5 -50.5t-49.5 -34t-60.5 -12.5 q-33 0 -61.5 12.5t-49.5 34t-33.5 50.5t-12.5 61z" />
<glyph unicode="&#x62b;" horiz-adv-x="1345" arabic-form="final" d="M60 385v169q0 19 7.5 36t20 29.5t29.5 20t37 7.5h125q19 0 36.5 -7.5t30.5 -20t20.5 -29.5t7.5 -36v-51h560v493q0 19 7 36t20 29.5t29.5 20t36.5 7.5h125q19 0 36 -7.5t30 -20t20.5 -29.5t7.5 -36v-493h103v-408h-1023q-129 0 -197.5 68t-68.5 222zM354 1364 q0 32 12.5 60.5t33.5 49.5t49.5 33.5t60.5 12.5q33 0 61.5 -12.5t49.5 -33.5t33 -49.5t12 -60.5t-12 -61t-33 -50.5t-49.5 -34t-61.5 -12.5q-32 0 -60.5 12.5t-49.5 34t-33.5 50.5t-12.5 61zM528 1682q0 32 12.5 60.5t34 50t50 34t60.5 12.5t60.5 -12.5t49.5 -34t33.5 -50 t12.5 -60.5t-12.5 -60.5t-33.5 -50t-49.5 -34t-60.5 -12.5t-60.5 12.5t-50 34t-34 50t-12.5 60.5zM713 1364q0 32 12.5 60.5t33.5 49.5t49.5 33.5t61.5 12.5q32 0 60.5 -12.5t49.5 -33.5t33.5 -49.5t12.5 -60.5t-12.5 -61t-33.5 -50.5t-49.5 -34t-60.5 -12.5 q-33 0 -61.5 12.5t-49.5 34t-33.5 50.5t-12.5 61z" />
<glyph unicode="&#x62b;" horiz-adv-x="762" arabic-form="initial" d="M-4 95v408h395v493q0 19 7.5 36t20 29.5t29.5 20t37 7.5h125q19 0 36 -7.5t30 -20t20.5 -29.5t7.5 -36v-611q0 -154 -68.5 -222t-197.5 -68h-442zM23 1364q0 32 12.5 60.5t34 49.5t50 33.5t60.5 12.5t60.5 -12.5t50 -33.5t34 -49.5t12.5 -60.5t-12.5 -61t-34 -50.5 t-50 -34t-60.5 -12.5t-60.5 12.5t-50 34t-34 50.5t-12.5 61zM198 1682q0 32 12.5 60.5t33.5 50t49.5 34t61.5 12.5q32 0 60.5 -12.5t50 -34t34 -50t12.5 -60.5t-12.5 -60.5t-34 -50t-50 -34t-60.5 -12.5q-33 0 -61.5 12.5t-49.5 34t-33.5 50t-12.5 60.5zM383 1364 q0 32 12.5 60.5t33.5 49.5t49.5 33.5t60.5 12.5q33 0 61.5 -12.5t49.5 -33.5t33.5 -49.5t12.5 -60.5t-12.5 -61t-33.5 -50.5t-49.5 -34t-61.5 -12.5q-32 0 -60.5 12.5t-49.5 34t-33.5 50.5t-12.5 61z" />
<glyph unicode="&#x62b;" horiz-adv-x="757" arabic-form="medial" d="M-3 95v408h234v493q0 19 7.5 36t20.5 29.5t30 20t37 7.5h125q19 0 36.5 -7.5t30 -20t20 -29.5t7.5 -36v-493h216v-408h-764zM50 1364q0 32 12 60.5t33 49.5t49.5 33.5t61.5 12.5q32 0 60.5 -12.5t49.5 -33.5t33.5 -49.5t12.5 -60.5t-12.5 -61t-33.5 -50.5t-49.5 -34 t-60.5 -12.5q-33 0 -61.5 12.5t-49.5 34t-33 50.5t-12 61zM224 1682q0 32 12.5 60.5t33.5 50t49.5 34t60.5 12.5t60.5 -12.5t50 -34t34 -50t12.5 -60.5t-12.5 -60.5t-34 -50t-50 -34t-60.5 -12.5t-60.5 12.5t-49.5 34t-33.5 50t-12.5 60.5zM409 1364q0 32 12 60.5t33 49.5 t49.5 33.5t61.5 12.5t61.5 -12.5t49.5 -33.5t33 -49.5t12 -60.5t-12 -61t-33 -50.5t-49.5 -34t-61.5 -12.5t-61.5 12.5t-49.5 34t-33 50.5t-12 61z" />
<glyph unicode="&#x62c;" horiz-adv-x="951" arabic-form="isolated" d="M45 33q-6 76 5 149.5t39 140t73 117.5q56 63 131 102.5t166 53.5q35 5 71.5 4.5t71.5 -0.5v44q-7 40 -25 65t-44 39.5t-58 20t-65.5 7t-67.5 0t-64 -1.5q-19 0 -36 7.5t-30 20t-20.5 29.5t-7.5 37v125q0 38 28 63.5t66 29.5q132 14 241.5 -8.5t191 -79t131.5 -145.5 t64 -209l2 -358q0 -39 -27.5 -66t-66.5 -27q-104 -1 -166 -1t-97.5 -0.5t-51 -1.5t-27.5 -3q-48 -10 -82.5 -37t-45.5 -87v-50q4 -25 15.5 -47t29 -38t40 -25.5t48.5 -9.5q19 0 36 -7t30 -20t20.5 -30t7.5 -37v-125q0 -20 -7.5 -36.5t-20.5 -29t-30 -20t-36 -8.5 q-25 -1 -52 3v-3q-111 23 -191 79q-57 40 -97 99t-63 129t-29 146zM594 -54q0 32 12.5 60.5t34 49.5t50 33.5t60.5 12.5t60.5 -12.5t49.5 -33.5t33.5 -49.5t12.5 -60.5q0 -33 -12.5 -61.5t-33.5 -50t-49.5 -34t-60.5 -12.5t-60.5 12.5t-50 34t-34 50t-12.5 61.5z" />
<glyph unicode="&#x62c;" horiz-adv-x="1001" arabic-form="final" d="M44 33q-6 76 5 149.5t39 140t73 117.5q56 63 131.5 102.5t166.5 53.5q35 5 71 4.5t71 -0.5l1 44q-11 60 -46 87.5t-82 37t-99 7.5t-97 -2q-40 0 -67 27.5t-27 66.5v125q0 38 27 63.5t67 29.5q132 14 241.5 -8.5t190.5 -79t131.5 -145.5t63.5 -209l2 -141h98v-408h-258 q-25 0 -52.5 4.5t-49 15t-33.5 29t-6 47.5h-46h-36t-28.5 -1t-24.5 -3q-24 -5 -45 -13.5t-37.5 -23t-28.5 -36t-18 -51.5v-50q10 -52 45 -86t88 -34q39 0 66.5 -27t27.5 -67v-125q0 -39 -27.5 -65.5t-66.5 -28.5q-65 -2 -126 20t-115 59q-58 40 -98 99t-63 129t-29 146z M641 -181q0 32 12.5 60.5t34 49.5t50 33.5t60.5 12.5t60.5 -12.5t49.5 -33.5t33.5 -49.5t12.5 -60.5q0 -33 -12.5 -61.5t-33.5 -50t-49.5 -34t-60.5 -12.5t-60.5 12.5t-50 34t-34 50t-12.5 61.5z" />
<glyph unicode="&#x62c;" horiz-adv-x="1046" arabic-form="initial" d="M-6 95v408h501v141q-7 40 -25.5 65t-44.5 39.5t-57.5 20t-65.5 7t-67.5 0t-63.5 -1.5q-20 0 -37 7.5t-29.5 20t-20 29.5t-7.5 37v125q0 38 27.5 63.5t66.5 29.5q132 14 242 -8.5t191.5 -79t132 -145.5t63.5 -209l1 -141h103q19 0 36 -7.5t30 -20t20.5 -30t7.5 -36.5v-220 q0 -20 -7.5 -37t-20.5 -29.5t-30 -20t-36 -7.5h-910zM271 -181q0 32 12 60.5t33 49.5t49.5 33.5t61.5 12.5q32 0 60.5 -12.5t49.5 -33.5t33.5 -49.5t12.5 -60.5q0 -33 -12.5 -61.5t-33.5 -50t-49.5 -34t-60.5 -12.5q-33 0 -61.5 12.5t-49.5 34t-33 50t-12 61.5z" />
<glyph unicode="&#x62c;" horiz-adv-x="908" arabic-form="medial" d="M0 95v408h501l1 141q-11 60 -46 87.5t-82 37t-99.5 7.5t-97.5 -2q-19 0 -36 7.5t-29.5 20t-20 29.5t-7.5 37v125q0 38 27.5 63.5t65.5 29.5q132 14 242 -8.5t191.5 -79t132 -145.5t63.5 -209l1 -141h106v-408h-913zM271 -181q0 32 12 60.5t33 49.5t49.5 33.5t61.5 12.5 q32 0 60.5 -12.5t49.5 -33.5t33.5 -49.5t12.5 -60.5q0 -33 -12.5 -61.5t-33.5 -50t-49.5 -34t-60.5 -12.5q-33 0 -61.5 12.5t-49.5 34t-33 50t-12 61.5z" />
<glyph unicode="&#x62d;" horiz-adv-x="971" arabic-form="isolated" d="M54 33q-6 76 5 149.5t39 140t73 117.5q56 63 131.5 102.5t165.5 53.5q36 5 72.5 4.5t71.5 -0.5v44q-11 60 -46 87.5t-82 37t-99.5 7.5t-97.5 -2q-19 0 -36 7.5t-30 20t-20.5 29.5t-7.5 37v125q0 38 28 63.5t66 29.5q132 14 241.5 -8.5t191 -79t131.5 -145.5t63 -209 l3 -358q0 -20 -7 -37t-20 -30t-30.5 -20t-36.5 -6q-105 1 -167.5 1.5t-97.5 0t-51 -2.5t-27 -5q-23 -8 -44 -17t-38 -22.5t-29 -34t-17 -50.5v-50q10 -59 45.5 -86.5t82.5 -37t99.5 -7.5t97.5 2q19 0 36 -7.5t29.5 -20t20 -30t7.5 -36.5v-125q0 -38 -27.5 -63.5t-65.5 -30.5 q-133 -14 -242.5 8.5t-190.5 79.5q-58 40 -98 99t-63 129t-29 146z" />
<glyph unicode="&#x62d;" horiz-adv-x="1005" arabic-form="final" d="M49.5 33q-5.5 76 5 149.5t38.5 140t73 117.5q56 63 131.5 102.5t166.5 53.5q36 5 71.5 4.5t71.5 -0.5v44q-11 60 -46 87.5t-82 37t-99 7.5t-97 -2q-20 0 -37 7.5t-29.5 20t-20 29.5t-7.5 37v125q0 38 27.5 63.5t66.5 29.5q132 14 241 -8.5t190.5 -79t131.5 -145.5 t63 -209l2 -141h99v-408h-253q-23 0 -50 12t-50 36t-36.5 60t-9.5 83h-36q-33 0 -68 -5.5t-66.5 -19.5t-56 -39t-37.5 -64q-14 -61 -6.5 -106.5t30 -77.5t57 -51.5t75.5 -29.5t84.5 -12t84.5 3q19 2 36.5 -5t30 -20.5t20 -31.5t7.5 -37v-125q0 -38 -28 -63.5t-66 -30.5 q-133 -14 -242 8.5t-191 79.5q-57 40 -97 99t-63.5 129t-29 146z" />
<glyph unicode="&#x62d;" horiz-adv-x="1046" arabic-form="initial" d="M-6 95v408h501v141q-7 40 -25.5 65t-44.5 39.5t-57.5 20t-65.5 7t-67.5 0t-63.5 -1.5q-20 0 -37 7.5t-29.5 20t-20 29.5t-7.5 37v125q0 38 27.5 63.5t66.5 29.5q132 14 242 -8.5t191.5 -79t132 -145.5t63.5 -209l1 -141h103q19 0 36 -7.5t30 -20t20.5 -30t7.5 -36.5v-220 q0 -20 -7.5 -37t-20.5 -29.5t-30 -20t-36 -7.5h-910z" />
<glyph unicode="&#x62d;" horiz-adv-x="908" arabic-form="medial" d="M0 95v408h501l1 141q-11 60 -46 87.5t-82 37t-99.5 7.5t-97.5 -2q-19 0 -36 7.5t-29.5 20t-20 29.5t-7.5 37v125q0 38 27.5 63.5t65.5 29.5q132 14 242 -8.5t191.5 -79t132 -145.5t63.5 -209l1 -141h106v-408h-913z" />
<glyph unicode="&#x62e;" horiz-adv-x="971" arabic-form="isolated" d="M54 33q-6 76 5 149.5t39 140t73 117.5q56 63 131.5 102.5t165.5 53.5q36 5 72.5 4.5t71.5 -0.5v44q-11 60 -46 87.5t-82 37t-99.5 7.5t-97.5 -2q-19 0 -36 7.5t-30 20t-20.5 29.5t-7.5 37v125q0 38 28 63.5t66 29.5q132 14 241.5 -8.5t191 -79t131.5 -145.5t63 -209 l3 -358q0 -20 -7 -37t-20 -30t-30.5 -20t-36.5 -6q-105 1 -167.5 1.5t-97.5 0t-51 -2.5t-27 -5q-23 -8 -44 -17t-38 -22.5t-29 -34t-17 -50.5v-50q10 -59 45.5 -86.5t82.5 -37t99.5 -7.5t97.5 2q19 0 36 -7.5t29.5 -20t20 -30t7.5 -36.5v-125q0 -38 -27.5 -63.5t-65.5 -30.5 q-133 -14 -242.5 8.5t-190.5 79.5q-58 40 -98 99t-63 129t-29 146zM329 1378q0 32 12.5 60.5t33.5 49.5t49.5 33.5t60.5 12.5q33 0 61.5 -12.5t49.5 -33.5t33.5 -49.5t12.5 -60.5q0 -33 -12.5 -61.5t-33.5 -50t-49.5 -34t-61.5 -12.5q-32 0 -60.5 12.5t-49.5 34t-33.5 50 t-12.5 61.5z" />
<glyph unicode="&#x62e;" horiz-adv-x="1005" arabic-form="final" d="M49.5 33q-5.5 76 5 149.5t38.5 140t73 117.5q56 63 131.5 102.5t166.5 53.5q36 5 71.5 4.5t71.5 -0.5v44q-11 60 -46 87.5t-82 37t-99 7.5t-97 -2q-20 0 -37 7.5t-29.5 20t-20 29.5t-7.5 37v125q0 38 27.5 63.5t66.5 29.5q132 14 241 -8.5t190.5 -79t131.5 -145.5 t63 -209l2 -141h99v-408h-253q-23 0 -50 12t-50 36t-36.5 60t-9.5 83h-36q-33 0 -68 -5.5t-66.5 -19.5t-56 -39t-37.5 -64q-14 -61 -6.5 -106.5t30 -77.5t57 -51.5t75.5 -29.5t84.5 -12t84.5 3q19 2 36.5 -5t30 -20.5t20 -31.5t7.5 -37v-125q0 -38 -28 -63.5t-66 -30.5 q-133 -14 -242 8.5t-191 79.5q-57 40 -97 99t-63.5 129t-29 146zM313 1378q0 32 12.5 60.5t33.5 49.5t49.5 33.5t61.5 12.5q32 0 60.5 -12.5t49.5 -33.5t33.5 -49.5t12.5 -60.5q0 -33 -12.5 -61.5t-33.5 -50t-49.5 -34t-60.5 -12.5q-33 0 -61.5 12.5t-49.5 34t-33.5 50 t-12.5 61.5z" />
<glyph unicode="&#x62e;" horiz-adv-x="1046" arabic-form="initial" d="M-6 95v408h501v141q-7 40 -25.5 65t-44.5 39.5t-57.5 20t-65.5 7t-67.5 0t-63.5 -1.5q-20 0 -37 7.5t-29.5 20t-20 29.5t-7.5 37v125q0 38 27.5 63.5t66.5 29.5q132 14 242 -8.5t191.5 -79t132 -145.5t63.5 -209l1 -141h103q19 0 36 -7.5t30 -20t20.5 -30t7.5 -36.5v-220 q0 -20 -7.5 -37t-20.5 -29.5t-30 -20t-36 -7.5h-910zM215 1378q0 32 12.5 60.5t33.5 49.5t49.5 33.5t60.5 12.5q33 0 61.5 -12.5t49.5 -33.5t33.5 -49.5t12.5 -60.5q0 -33 -12.5 -61.5t-33.5 -50t-49.5 -34t-61.5 -12.5q-32 0 -60.5 12.5t-49.5 34t-33.5 50t-12.5 61.5z" />
<glyph unicode="&#x62e;" horiz-adv-x="908" arabic-form="medial" d="M0 95v408h501l1 141q-11 60 -46 87.5t-82 37t-99.5 7.5t-97.5 -2q-19 0 -36 7.5t-29.5 20t-20 29.5t-7.5 37v125q0 38 27.5 63.5t65.5 29.5q132 14 242 -8.5t191.5 -79t132 -145.5t63.5 -209l1 -141h106v-408h-913zM215 1378q0 32 12.5 60.5t33.5 49.5t49.5 33.5 t60.5 12.5q33 0 61.5 -12.5t49.5 -33.5t33.5 -49.5t12.5 -60.5q0 -33 -12.5 -61.5t-33.5 -50t-49.5 -34t-61.5 -12.5q-32 0 -60.5 12.5t-49.5 34t-33.5 50t-12.5 61.5z" />
<glyph unicode="&#x62f;" horiz-adv-x="766" arabic-form="isolated" d="M54 189v220q0 19 7.5 36.5t20.5 30t30 20t37 7.5h242v275h-242q-20 0 -37 7.5t-30 20t-20.5 29.5t-7.5 37v125q0 20 7.5 37t20.5 30t30 20t37 7h290q64 0 114 -16.5t83.5 -51.5t51 -89.5t17.5 -131.5v-417q0 -154 -68.5 -222t-197.5 -68h-290q-20 0 -37 7.5t-30 20 t-20.5 29.5t-7.5 37z" />
<glyph unicode="&#x62f;" horiz-adv-x="802" arabic-form="final" d="M62 189v220q0 19 7.5 36.5t20 30t29.5 20t37 7.5h237l-1 275h-236q-20 0 -37 7.5t-29.5 20t-20 29.5t-7.5 37v125q0 40 27.5 67t66.5 27h285q64 0 113.5 -16.5t83 -51.5t51 -89.5t17.5 -131.5v-299h102v-408h-652q-20 0 -37 7.5t-29.5 20t-20 29.5t-7.5 37z" />
<glyph unicode="&#x630;" horiz-adv-x="766" arabic-form="isolated" d="M54 189v220q0 19 7.5 36.5t20.5 30t30 20t37 7.5h242v275h-242q-20 0 -37 7.5t-30 20t-20.5 29.5t-7.5 37v125q0 20 7.5 37t20.5 30t30 20t37 7h290q64 0 114 -16.5t83.5 -51.5t51 -89.5t17.5 -131.5v-417q0 -154 -68.5 -222t-197.5 -68h-290q-20 0 -37 7.5t-30 20 t-20.5 29.5t-7.5 37zM185 1378q0 32 12.5 60.5t33.5 49.5t49.5 33.5t60.5 12.5q33 0 61.5 -12.5t49.5 -33.5t33.5 -49.5t12.5 -60.5q0 -33 -12.5 -61.5t-33.5 -50t-49.5 -34t-61.5 -12.5q-32 0 -60.5 12.5t-49.5 34t-33.5 50t-12.5 61.5z" />
<glyph unicode="&#x630;" horiz-adv-x="802" arabic-form="final" d="M62 189v220q0 19 7.5 36.5t20 30t29.5 20t37 7.5h237l-1 275h-236q-20 0 -37 7.5t-29.5 20t-20 29.5t-7.5 37v125q0 40 27.5 67t66.5 27h285q64 0 113.5 -16.5t83 -51.5t51 -89.5t17.5 -131.5v-299h102v-408h-652q-20 0 -37 7.5t-29.5 20t-20 29.5t-7.5 37zM200 1378 q0 32 12.5 60.5t34 49.5t50 33.5t60.5 12.5t60.5 -12.5t49.5 -33.5t33.5 -49.5t12.5 -60.5q0 -33 -12.5 -61.5t-33.5 -50t-49.5 -34t-60.5 -12.5t-60.5 12.5t-50 34t-34 50t-12.5 61.5z" />
<glyph unicode="&#x631;" horiz-adv-x="670" arabic-form="isolated" d="M0 -128q0 20 7.5 37t20.5 30t30 20t36 7h30q30 3 58 10t50.5 21.5t38.5 38t22 59.5v908q0 38 26.5 63t64.5 25h141q40 0 61 -25t21 -63l-2 -827q0 -111 -30 -200.5t-85 -155t-133 -106.5t-175 -56q-23 -4 -44 -5.5t-44 0.5q-38 4 -66 29.5t-28 64.5v125z" />
<glyph unicode="&#x631;" horiz-adv-x="693" arabic-form="final" d="M3 -128q0 40 27.5 67t66.5 27h31q30 3 57.5 10t50 21.5t38.5 38t22 59.5v902q0 19 7.5 36.5t20 30t30 20t37.5 7.5h125q19 0 36 -7.5t30 -20t20.5 -30t7.5 -36.5l-4 -494h89v-408h-95q-11 -93 -44 -168t-86.5 -130.5t-125 -90.5t-159.5 -48q-23 -4 -44 -5.5t-44 0.5 q-38 4 -66 29.5t-28 64.5v125z" />
<glyph unicode="&#x632;" horiz-adv-x="670" arabic-form="isolated" d="M0 -128q0 20 7.5 37t20.5 30t30 20t36 7h30q30 3 58 10t50.5 21.5t38.5 38t22 59.5v908q0 38 26.5 63t64.5 25h141q40 0 61 -25t21 -63l-2 -827q0 -111 -30 -200.5t-85 -155t-133 -106.5t-175 -56q-23 -4 -44 -5.5t-44 0.5q-38 4 -66 29.5t-28 64.5v125zM289 1366 q0 32 12.5 60.5t33.5 50t49.5 34t60.5 12.5q33 0 61.5 -12.5t49.5 -34t33.5 -50t12.5 -60.5t-12.5 -60.5t-33.5 -50t-49.5 -34t-61.5 -12.5q-32 0 -60.5 12.5t-49.5 34t-33.5 50t-12.5 60.5z" />
<glyph unicode="&#x632;" horiz-adv-x="693" arabic-form="final" d="M3 -128q0 40 27.5 67t66.5 27h31q30 3 57.5 10t50 21.5t38.5 38t22 59.5v902q0 19 7.5 36.5t20 30t30 20t37.5 7.5h125q19 0 36 -7.5t30 -20t20.5 -30t7.5 -36.5l-4 -494h89v-408h-95q-11 -93 -44 -168t-86.5 -130.5t-125 -90.5t-159.5 -48q-23 -4 -44 -5.5t-44 0.5 q-38 4 -66 29.5t-28 64.5v125zM289 1366q0 32 12.5 60.5t33.5 50t49.5 34t60.5 12.5q33 0 61.5 -12.5t49.5 -34t33.5 -50t12.5 -60.5t-12.5 -60.5t-33.5 -50t-49.5 -34t-61.5 -12.5q-32 0 -60.5 12.5t-49.5 34t-33.5 50t-12.5 60.5z" />
<glyph unicode="&#x633;" horiz-adv-x="2054" arabic-form="isolated" d="M55 274v36q0 27 0.5 64.5t0.5 83.5v96q0 39 27 66.5t67 27.5h125q19 0 36 -7.5t30 -20.5t20.5 -30t7.5 -36v-182q0 -34 2.5 -71t10.5 -72.5t23 -67t40.5 -55t63 -37.5t89.5 -13q76 1 120 29t65 70.5t25.5 92t2.5 93.5v655q0 19 7.5 36t20 29.5t29.5 20t37 7.5h126 q19 0 36 -7.5t30 -20t20 -29.5t7 -36v-493h130v493q0 19 7 36t20 29.5t30 20t37 7.5h125q19 0 36 -7.5t30 -20t20.5 -29.5t7.5 -36v-493h129v493q0 19 7 36t20 29.5t30 20t37 7.5h125q19 0 36.5 -7.5t30 -20t20 -29.5t7.5 -36v-611q0 -154 -69 -222t-197 -68h-629 q-17 -96 -65.5 -179t-120.5 -143.5t-163 -94.5t-193 -32q-145 3 -244.5 54.5t-160.5 137.5t-87 198.5t-25 237.5z" />
<glyph unicode="&#x633;" horiz-adv-x="2101" arabic-form="final" d="M56 274v36q0 27 0.5 64.5t0.5 83.5v96q0 39 27 66.5t67 27.5h125q19 0 36 -7.5t30 -20.5t20.5 -30t7.5 -36l1 -182q-1 -51 5.5 -107.5t30 -103t69 -76.5t123.5 -29q76 1 120 29t65.5 70.5t25.5 92t2 93.5v655q0 19 7.5 36t20 29.5t29.5 20t37 7.5h125q19 0 36.5 -7.5 t30.5 -20t20.5 -29.5t7.5 -36l-1 -493h130l-1 493q0 19 7.5 36t20 29.5t29.5 20t37 7.5h126q19 0 36 -7.5t30 -20t20.5 -29.5t7.5 -36v-493h128v493q0 19 7.5 36t20 29.5t29.5 20t37 7.5h126q19 0 36 -7.5t30 -20t20.5 -29.5t7.5 -36v-493h98v-408h-992q-17 -96 -65.5 -179 t-120.5 -143.5t-163.5 -94.5t-194.5 -32q-145 3 -244 54.5t-159.5 137.5t-87 198.5t-25.5 237.5z" />
<glyph unicode="&#x633;" horiz-adv-x="1359" arabic-form="initial" d="M-7 95v408h104v493q0 19 7.5 36t20 29.5t29.5 20t37 7.5h126q19 0 36 -7.5t30 -20t20.5 -29.5t7.5 -36v-493h128v493q0 19 7 36t20 29.5t29.5 20t36.5 7.5h126q19 0 36 -7.5t30 -20t20.5 -29.5t7.5 -36v-493h128v493q0 19 7.5 36t20 29.5t29.5 20t37 7.5h126 q19 0 36 -7.5t30 -20t20.5 -29.5t7.5 -36v-611q0 -154 -69 -222t-197 -68h-1035z" />
<glyph unicode="&#x633;" horiz-adv-x="1399" arabic-form="medial" d="M-4 95v408h102v493q0 19 7.5 36t20.5 29.5t30 20t37 7.5h125q19 0 36.5 -7.5t30 -20t20 -29.5t7.5 -36v-493h128v493q0 19 7.5 36t20 29.5t29.5 20t37 7.5h126q19 0 36 -7.5t29.5 -20t20 -29.5t7.5 -36v-493h129v493q0 19 7.5 36t20 29.5t29.5 20t37 7.5h125 q20 0 37 -7.5t30 -20t20 -29.5t7 -36v-493h108v-408h-1407z" />
<glyph unicode="&#x634;" horiz-adv-x="2054" arabic-form="isolated" d="M55 274v36q0 27 0.5 64.5t0.5 83.5v96q0 39 27 66.5t67 27.5h125q19 0 36 -7.5t30 -20.5t20.5 -30t7.5 -36v-182q0 -34 2.5 -71t10.5 -72.5t23 -67t40.5 -55t63 -37.5t89.5 -13q76 1 120 29t65 70.5t25.5 92t2.5 93.5v655q0 19 7.5 36t20 29.5t29.5 20t37 7.5h126 q19 0 36 -7.5t30 -20t20 -29.5t7 -36v-493h130v493q0 19 7 36t20 29.5t30 20t37 7.5h125q19 0 36 -7.5t30 -20t20.5 -29.5t7.5 -36v-493h129v493q0 19 7 36t20 29.5t30 20t37 7.5h125q19 0 36.5 -7.5t30 -20t20 -29.5t7.5 -36v-611q0 -154 -69 -222t-197 -68h-629 q-17 -96 -65.5 -179t-120.5 -143.5t-163 -94.5t-193 -32q-145 3 -244.5 54.5t-160.5 137.5t-87 198.5t-25 237.5zM1067 1364q0 32 12.5 60.5t33.5 49.5t49.5 33.5t60.5 12.5t60.5 -12.5t50 -33.5t34 -49.5t12.5 -60.5t-12.5 -61t-34 -50.5t-50 -34t-60.5 -12.5t-60.5 12.5 t-49.5 34t-33.5 50.5t-12.5 61zM1241 1682q0 32 12.5 60.5t33.5 50t49.5 34t61.5 12.5q32 0 60.5 -12.5t50 -34t34 -50t12.5 -60.5t-12.5 -60.5t-34 -50t-50 -34t-60.5 -12.5q-33 0 -61.5 12.5t-49.5 34t-33.5 50t-12.5 60.5zM1426 1364q0 32 12.5 60.5t33.5 49.5t49.5 33.5 t61.5 12.5q32 0 60.5 -12.5t49.5 -33.5t33.5 -49.5t12.5 -60.5t-12.5 -61t-33.5 -50.5t-49.5 -34t-60.5 -12.5q-33 0 -61.5 12.5t-49.5 34t-33.5 50.5t-12.5 61z" />
<glyph unicode="&#x634;" horiz-adv-x="2101" arabic-form="final" d="M56 274v36q0 27 0.5 64.5t0.5 83.5v96q0 39 27 66.5t67 27.5h125q19 0 36 -7.5t30 -20.5t20.5 -30t7.5 -36l1 -182q-1 -51 5.5 -107.5t30 -103t69 -76.5t123.5 -29q76 1 120 29t65.5 70.5t25.5 92t2 93.5v655q0 19 7.5 36t20 29.5t29.5 20t37 7.5h125q19 0 36.5 -7.5 t30.5 -20t20.5 -29.5t7.5 -36l-1 -493h130l-1 493q0 19 7.5 36t20 29.5t29.5 20t37 7.5h126q19 0 36 -7.5t30 -20t20.5 -29.5t7.5 -36v-493h128v493q0 19 7.5 36t20 29.5t29.5 20t37 7.5h126q19 0 36 -7.5t30 -20t20.5 -29.5t7.5 -36v-493h98v-408h-992q-17 -96 -65.5 -179 t-120.5 -143.5t-163.5 -94.5t-194.5 -32q-145 3 -244 54.5t-159.5 137.5t-87 198.5t-25.5 237.5zM1075 1364q0 32 12.5 60.5t34 49.5t50 33.5t60.5 12.5t60.5 -12.5t50 -33.5t34 -49.5t12.5 -60.5t-12.5 -61t-34 -50.5t-50 -34t-60.5 -12.5t-60.5 12.5t-50 34t-34 50.5 t-12.5 61zM1250 1682q0 32 12.5 60.5t33.5 50t49.5 34t60.5 12.5q33 0 61.5 -12.5t49.5 -34t33.5 -50t12.5 -60.5t-12.5 -60.5t-33.5 -50t-49.5 -34t-61.5 -12.5q-32 0 -60.5 12.5t-49.5 34t-33.5 50t-12.5 60.5zM1435 1364q0 32 12.5 60.5t33.5 49.5t49.5 33.5t60.5 12.5 t60.5 -12.5t50 -33.5t34 -49.5t12.5 -60.5t-12.5 -61t-34 -50.5t-50 -34t-60.5 -12.5t-60.5 12.5t-49.5 34t-33.5 50.5t-12.5 61z" />
<glyph unicode="&#x634;" horiz-adv-x="1359" arabic-form="initial" d="M-7 95v408h104v493q0 19 7.5 36t20 29.5t29.5 20t37 7.5h126q19 0 36 -7.5t30 -20t20.5 -29.5t7.5 -36v-493h128v493q0 19 7 36t20 29.5t29.5 20t36.5 7.5h126q19 0 36 -7.5t30 -20t20.5 -29.5t7.5 -36v-493h128v493q0 19 7.5 36t20 29.5t29.5 20t37 7.5h126 q19 0 36 -7.5t30 -20t20.5 -29.5t7.5 -36v-611q0 -154 -69 -222t-197 -68h-1035zM354 1364q0 32 12.5 60.5t33.5 49.5t49.5 33.5t60.5 12.5q33 0 61.5 -12.5t49.5 -33.5t33 -49.5t12 -60.5t-12 -61t-33 -50.5t-49.5 -34t-61.5 -12.5q-32 0 -60.5 12.5t-49.5 34t-33.5 50.5 t-12.5 61zM528 1682q0 32 12.5 60.5t34 50t50 34t60.5 12.5t60.5 -12.5t49.5 -34t33.5 -50t12.5 -60.5t-12.5 -60.5t-33.5 -50t-49.5 -34t-60.5 -12.5t-60.5 12.5t-50 34t-34 50t-12.5 60.5zM713 1364q0 32 12.5 60.5t33.5 49.5t49.5 33.5t61.5 12.5q32 0 60.5 -12.5 t49.5 -33.5t33.5 -49.5t12.5 -60.5t-12.5 -61t-33.5 -50.5t-49.5 -34t-60.5 -12.5q-33 0 -61.5 12.5t-49.5 34t-33.5 50.5t-12.5 61z" />
<glyph unicode="&#x634;" horiz-adv-x="1399" arabic-form="medial" d="M-4 95v408h102v493q0 19 7.5 36t20.5 29.5t30 20t37 7.5h125q19 0 36.5 -7.5t30 -20t20 -29.5t7.5 -36v-493h128v493q0 19 7.5 36t20 29.5t29.5 20t37 7.5h126q19 0 36 -7.5t29.5 -20t20 -29.5t7.5 -36v-493h129v493q0 19 7.5 36t20 29.5t29.5 20t37 7.5h125 q20 0 37 -7.5t30 -20t20 -29.5t7 -36v-493h108v-408h-1407zM354 1364q0 32 12.5 60.5t33.5 49.5t49.5 33.5t60.5 12.5q33 0 61.5 -12.5t49.5 -33.5t33 -49.5t12 -60.5t-12 -61t-33 -50.5t-49.5 -34t-61.5 -12.5q-32 0 -60.5 12.5t-49.5 34t-33.5 50.5t-12.5 61zM528 1682 q0 32 12.5 60.5t34 50t50 34t60.5 12.5t60.5 -12.5t49.5 -34t33.5 -50t12.5 -60.5t-12.5 -60.5t-33.5 -50t-49.5 -34t-60.5 -12.5t-60.5 12.5t-50 34t-34 50t-12.5 60.5zM713 1364q0 32 12.5 60.5t33.5 49.5t49.5 33.5t61.5 12.5q32 0 60.5 -12.5t49.5 -33.5t33.5 -49.5 t12.5 -60.5t-12.5 -61t-33.5 -50.5t-49.5 -34t-60.5 -12.5q-33 0 -61.5 12.5t-49.5 34t-33.5 50.5t-12.5 61z" />
<glyph unicode="&#x635;" horiz-adv-x="2077" arabic-form="isolated" d="M64 274v280q0 19 7.5 36.5t20.5 30t30 20t36 7.5h126q19 0 36.5 -7.5t30 -20.5t20 -30t7.5 -36v-182q0 -51 6 -107.5t29.5 -103t69 -76.5t123.5 -29q77 1 121 29t65.5 70.5t25.5 92t2 93.5v314q0 77 17.5 131.5t51 89.5t83 51.5t113.5 16.5h664q64 0 113 -16.5t83 -51.5 t51.5 -89.5t17.5 -131.5v-270q0 -77 -17.5 -132t-51.5 -90t-83 -51.5t-113 -16.5h-625q-17 -96 -66 -179t-121 -143.5t-163 -94.5t-193 -32q-146 3 -245 54.5t-160 137.5t-87 198.5t-25 237.5zM1132 503h569l-1 128h-568v-128z" />
<glyph unicode="&#x635;" horiz-adv-x="2106" arabic-form="final" d="M61 274v36q0 27 0.5 64.5t0.5 83.5v96q0 19 7.5 36.5t20 30t29.5 20t37 7.5h125q19 0 36.5 -7.5t30 -20.5t20 -30t7.5 -36v-182q-1 -34 1.5 -71t10.5 -72.5t23.5 -67t41 -55t62.5 -37.5t89 -13q77 1 120.5 29t65 70.5t25.5 92t2 93.5v314q0 77 17.5 131.5t51 89.5 t83 51.5t113.5 16.5h664q64 0 114 -16.5t83.5 -51.5t51 -89.5t17.5 -131.5v-152h98v-408h-989q-17 -96 -65.5 -179t-120.5 -143.5t-163 -94.5t-193 -32q-145 3 -244.5 54.5t-160.5 137.5t-87.5 198.5t-24.5 237.5zM1129 503h568v128h-568v-128z" />
<glyph unicode="&#x635;" horiz-adv-x="1349" arabic-form="initial" d="M-7 95v408h96v494q0 19 7.5 36.5t20.5 30t30 20t36 7.5h125q19 0 36.5 -7.5t30 -20t20 -30t7.5 -36.5v-53h616q64 0 113 -16.5t83 -51.5t51.5 -89.5t17.5 -131.5v-270q0 -154 -68.5 -222t-196.5 -68h-1025zM402 503h568v128h-568v-128z" />
<glyph unicode="&#x635;" horiz-adv-x="1374" arabic-form="medial" d="M-6 95v408h95v494q0 19 7.5 36.5t20.5 30t30 20t37 7.5h125q19 0 36 -7.5t30 -20t20.5 -30t7.5 -36.5v-53h616q64 0 113 -16.5t82.5 -51.5t51 -89.5t17.5 -131.5v-152h96v-408h-1385zM403 503h567v128h-567v-128z" />
<glyph unicode="&#x636;" horiz-adv-x="2077" arabic-form="isolated" d="M64 274v280q0 19 7.5 36.5t20.5 30t30 20t36 7.5h126q19 0 36.5 -7.5t30 -20.5t20 -30t7.5 -36v-182q0 -51 6 -107.5t29.5 -103t69 -76.5t123.5 -29q77 1 121 29t65.5 70.5t25.5 92t2 93.5v314q0 77 17.5 131.5t51 89.5t83 51.5t113.5 16.5h664q64 0 113 -16.5t83 -51.5 t51.5 -89.5t17.5 -131.5v-270q0 -77 -17.5 -132t-51.5 -90t-83 -51.5t-113 -16.5h-625q-17 -96 -66 -179t-121 -143.5t-163 -94.5t-193 -32q-146 3 -245 54.5t-160 137.5t-87 198.5t-25 237.5zM1132 503h569l-1 128h-568v-128zM1261 1219q0 32 12 60.5t33 50t49.5 34 t60.5 12.5q33 0 61.5 -12.5t49.5 -34t33.5 -50t12.5 -60.5t-12.5 -60.5t-33.5 -50t-49.5 -34t-61.5 -12.5q-32 0 -60.5 12.5t-49.5 34t-33 50t-12 60.5z" />
<glyph unicode="&#x636;" horiz-adv-x="2106" arabic-form="final" d="M61 274v36q0 27 0.5 64.5t0.5 83.5v96q0 19 7.5 36.5t20 30t29.5 20t37 7.5h125q19 0 36.5 -7.5t30 -20.5t20 -30t7.5 -36v-182q-1 -34 1.5 -71t10.5 -72.5t23.5 -67t41 -55t62.5 -37.5t89 -13q77 1 120.5 29t65 70.5t25.5 92t2 93.5v314q0 77 17.5 131.5t51 89.5 t83 51.5t113.5 16.5h664q64 0 114 -16.5t83.5 -51.5t51 -89.5t17.5 -131.5v-152h98v-408h-989q-17 -96 -65.5 -179t-120.5 -143.5t-163 -94.5t-193 -32q-145 3 -244.5 54.5t-160.5 137.5t-87.5 198.5t-24.5 237.5zM1129 503h568v128h-568v-128zM1241 1219q0 32 12 60.5 t33 50t49.5 34t61.5 12.5q32 0 60.5 -12.5t49.5 -34t33.5 -50t12.5 -60.5t-12.5 -60.5t-33.5 -50t-49.5 -34t-60.5 -12.5q-33 0 -61.5 12.5t-49.5 34t-33 50t-12 60.5z" />
<glyph unicode="&#x636;" horiz-adv-x="1349" arabic-form="initial" d="M-7 95v408h96v494q0 19 7.5 36.5t20.5 30t30 20t36 7.5h125q19 0 36.5 -7.5t30 -20t20 -30t7.5 -36.5v-53h616q64 0 113 -16.5t83 -51.5t51.5 -89.5t17.5 -131.5v-270q0 -154 -68.5 -222t-196.5 -68h-1025zM402 503h568v128h-568v-128zM539 1219q0 32 12.5 60.5t33.5 50 t49.5 34t60.5 12.5t60.5 -12.5t50 -34t34 -50t12.5 -60.5t-12.5 -60.5t-34 -50t-50 -34t-60.5 -12.5t-60.5 12.5t-49.5 34t-33.5 50t-12.5 60.5z" />
<glyph unicode="&#x636;" horiz-adv-x="1374" arabic-form="medial" d="M-6 95v408h95v494q0 19 7.5 36.5t20.5 30t30 20t37 7.5h125q19 0 36 -7.5t30 -20t20.5 -30t7.5 -36.5v-53h616q64 0 113 -16.5t82.5 -51.5t51 -89.5t17.5 -131.5v-152h96v-408h-1385zM403 503h567v128h-567v-128zM539 1219q0 32 12.5 60.5t33.5 50t49.5 34t60.5 12.5 t60.5 -12.5t50 -34t34 -50t12.5 -60.5t-12.5 -60.5t-34 -50t-50 -34t-60.5 -12.5t-60.5 12.5t-49.5 34t-33.5 50t-12.5 60.5z" />
<glyph unicode="&#x637;" horiz-adv-x="1474" arabic-form="isolated" d="M48 189v220q0 19 7.5 36.5t20 30t29.5 20t36 7.5h84v788q0 19 7.5 36.5t20.5 30t30 20t36 7.5h126q19 0 36.5 -7.5t30 -20t20 -30t7.5 -36.5v-347h615q64 0 114 -16.5t83.5 -51.5t51 -89.5t17.5 -131.5v-270q0 -77 -17 -132t-51 -90t-84 -51.5t-114 -16.5h-1013 q-19 0 -36 7.5t-29.5 20t-20 29.5t-7.5 37zM539 503h568v128h-568v-128z" />
<glyph unicode="&#x637;" horiz-adv-x="1509" arabic-form="final" d="M49 189v220q0 19 7.5 36.5t20 30t29.5 20t36 7.5h85v788q0 19 7.5 36.5t20 30t29.5 20t36 7.5h125q40 0 67 -27.5t27 -66.5v-347h616q128 0 196.5 -67.5t69.5 -221.5v-152h94v-408h-1373q-19 0 -36 7.5t-29.5 20t-20 29.5t-7.5 37zM539 503h569v128h-569v-128z" />
<glyph unicode="&#x637;" horiz-adv-x="1340" arabic-form="initial" d="M-7 95v408h95v788q0 19 7.5 36.5t20 30t30 20t37.5 7.5h124q19 0 36.5 -7.5t30.5 -20t20.5 -30t7.5 -36.5v-347h614q64 0 114 -16.5t83.5 -51.5t51 -89.5t17.5 -131.5v-270q0 -77 -17 -132t-51 -90t-83 -51.5t-113 -16.5h-1025zM401 503h568v128h-568v-128z" />
<glyph unicode="&#x637;" horiz-adv-x="1379" arabic-form="medial" d="M-3 95v408h98v788q0 19 7.5 36.5t20 30t30 20t37.5 7.5h125q19 0 36 -7.5t30 -20t20.5 -30t7.5 -36.5v-347h614q129 0 197 -67.5t68 -221.5v-152h95v-408h-1386zM409 503h567v128h-567v-128z" />
<glyph unicode="&#x638;" horiz-adv-x="1474" arabic-form="isolated" d="M48 189v220q0 19 7.5 36.5t20 30t29.5 20t36 7.5h84v788q0 19 7.5 36.5t20.5 30t30 20t36 7.5h126q19 0 36.5 -7.5t30 -20t20 -30t7.5 -36.5v-347h615q64 0 114 -16.5t83.5 -51.5t51 -89.5t17.5 -131.5v-270q0 -77 -17 -132t-51 -90t-84 -51.5t-114 -16.5h-1013 q-19 0 -36 7.5t-29.5 20t-20 29.5t-7.5 37zM539 503h568v128h-568v-128zM653 1219q0 32 12.5 60.5t34 50t50 34t60.5 12.5t60.5 -12.5t50 -34t34 -50t12.5 -60.5t-12.5 -60.5t-34 -50t-50 -34t-60.5 -12.5t-60.5 12.5t-50 34t-34 50t-12.5 60.5z" />
<glyph unicode="&#x638;" horiz-adv-x="1509" arabic-form="final" d="M49 189v220q0 19 7.5 36.5t20 30t29.5 20t36 7.5h85v788q0 19 7.5 36.5t20 30t29.5 20t36 7.5h125q40 0 67 -27.5t27 -66.5v-347h616q128 0 196.5 -67.5t69.5 -221.5v-152h94v-408h-1373q-19 0 -36 7.5t-29.5 20t-20 29.5t-7.5 37zM539 503h569v128h-569v-128zM654 1219 q0 32 12.5 60.5t34 50t50 34t60.5 12.5t60.5 -12.5t49.5 -34t33.5 -50t12.5 -60.5t-12.5 -60.5t-33.5 -50t-49.5 -34t-60.5 -12.5t-60.5 12.5t-50 34t-34 50t-12.5 60.5z" />
<glyph unicode="&#x638;" horiz-adv-x="1340" arabic-form="initial" d="M-7 95v408h95v788q0 19 7.5 36.5t20 30t30 20t37.5 7.5h124q19 0 36.5 -7.5t30.5 -20t20.5 -30t7.5 -36.5v-347h614q64 0 114 -16.5t83.5 -51.5t51 -89.5t17.5 -131.5v-270q0 -77 -17 -132t-51 -90t-83 -51.5t-113 -16.5h-1025zM401 503h568v128h-568v-128zM539 1219 q0 32 12.5 60.5t33.5 50t49.5 34t60.5 12.5t60.5 -12.5t50 -34t34 -50t12.5 -60.5t-12.5 -60.5t-34 -50t-50 -34t-60.5 -12.5t-60.5 12.5t-49.5 34t-33.5 50t-12.5 60.5z" />
<glyph unicode="&#x638;" horiz-adv-x="1379" arabic-form="medial" d="M-3 95v408h98v788q0 19 7.5 36.5t20 30t30 20t37.5 7.5h125q19 0 36 -7.5t30 -20t20.5 -30t7.5 -36.5v-347h614q129 0 197 -67.5t68 -221.5v-152h95v-408h-1386zM409 503h567v128h-567v-128zM539 1219q0 32 12.5 60.5t33.5 50t49.5 34t60.5 12.5t60.5 -12.5t50 -34 t34 -50t12.5 -60.5t-12.5 -60.5t-34 -50t-50 -34t-60.5 -12.5t-60.5 12.5t-49.5 34t-33.5 50t-12.5 60.5z" />
<glyph unicode="&#x639;" horiz-adv-x="976" arabic-form="isolated" d="M40 6q-10 99 18.5 206t98.5 210v380q0 77 17.5 131.5t51 89.5t82.5 51.5t113 16.5h404q19 0 36 -7t30 -20t20.5 -30t7.5 -37v-125q0 -20 -7.5 -37t-20.5 -29.5t-30 -20t-36 -7.5h-355v-182q19 2 39.5 3t40.5 1h274q19 0 36 -7.5t30 -20.5t20.5 -30t7.5 -36v-220 q0 -20 -7.5 -36.5t-20.5 -29.5t-30 -20t-36 -7q-104 -1 -167 -1q-62 0 -97.5 -0.5t-51.5 -1.5t-28 -3q-47 -10 -82 -37t-46 -87v-50q10 -59 45.5 -86.5t82.5 -37t99.5 -7.5t97.5 2q19 0 36 -7.5t30 -20t20.5 -30t7.5 -36.5v-125q0 -38 -28 -64t-66 -30q-144 -13 -257.5 16 t-194.5 89t-128 145.5t-57 184.5z" />
<glyph unicode="&#x639;" horiz-adv-x="1125" arabic-form="final" d="M56 24.5q-2 81.5 23.5 164t78.5 163t136 150.5l-76 150l-28 68t-24 68.5t-14 70.5t2 74q8 49 34.5 80t64 48t82 23.5t88.5 6.5h339q44 0 86.5 -6.5t78 -24t63 -48.5t41.5 -79q22 -74 15 -141t-33 -123t-66 -98.5t-85 -67.5h267v-408h-585q-31 -3 -53.5 1t-39 12.5t-27 20 t-16.5 22.5q-52 -39 -52 -138q7 -40 25.5 -64.5t44.5 -39t57.5 -20.5t65.5 -7t67.5 0.5t63.5 1.5q39 0 66 -27.5t27 -66.5v-125q0 -38 -27 -63.5t-66 -30.5q-118 -13 -215.5 4.5t-172.5 58.5t-127 102t-79.5 134t-29.5 154.5zM471 778l78 -178q69 24 118 67.5t60 110.5h-256 z" />
<glyph unicode="&#x639;" horiz-adv-x="927" arabic-form="initial" d="M-4 95v408h101v299q0 77 17.5 131.5t51 89.5t83 51.5t113.5 16.5h325q39 0 66.5 -27t27.5 -67v-125q0 -20 -7.5 -37t-20 -29.5t-30 -20t-36.5 -7.5h-277v-275h356q19 0 36.5 -7.5t30 -20t20 -30t7.5 -36.5v-220q0 -20 -7.5 -37t-20 -29.5t-30 -20t-36.5 -7.5h-770z" />
<glyph unicode="&#x639;" horiz-adv-x="1066" arabic-form="medial" d="M-3 95v408h223q-36 90 -63 154t-43 112.5t-21 87t2 76.5q8 49 34.5 80t63.5 48t81.5 23.5t88.5 6.5h341q44 0 88 -6.5t81.5 -23.5t64 -48t34.5 -80q6 -38 2 -74t-14 -70.5t-24.5 -68.5t-28.5 -68l-60 -149h224v-408h-1074zM412 778l122 -275l122 275h-244z" />
<glyph unicode="&#x63a;" horiz-adv-x="976" arabic-form="isolated" d="M40 6q-10 99 18.5 206t98.5 210v380q0 77 17.5 131.5t51 89.5t82.5 51.5t113 16.5h404q19 0 36 -7t30 -20t20.5 -30t7.5 -37v-125q0 -20 -7.5 -37t-20.5 -29.5t-30 -20t-36 -7.5h-355v-182q19 2 39.5 3t40.5 1h274q19 0 36 -7.5t30 -20.5t20.5 -30t7.5 -36v-220 q0 -20 -7.5 -36.5t-20.5 -29.5t-30 -20t-36 -7q-104 -1 -167 -1q-62 0 -97.5 -0.5t-51.5 -1.5t-28 -3q-47 -10 -82 -37t-46 -87v-50q10 -59 45.5 -86.5t82.5 -37t99.5 -7.5t97.5 2q19 0 36 -7.5t30 -20t20.5 -30t7.5 -36.5v-125q0 -38 -28 -64t-66 -30q-144 -13 -257.5 16 t-194.5 89t-128 145.5t-57 184.5zM379 1378q0 32 12.5 60.5t34 49.5t50 33.5t60.5 12.5t60.5 -12.5t50 -33.5t34 -49.5t12.5 -60.5q0 -33 -12.5 -61.5t-34 -50t-50 -34t-60.5 -12.5t-60.5 12.5t-50 34t-34 50t-12.5 61.5z" />
<glyph unicode="&#x63a;" horiz-adv-x="1125" arabic-form="final" d="M56 24.5q-2 81.5 23.5 164t78.5 163t136 150.5l-76 150l-28 68t-24 68.5t-14 70.5t2 74q8 49 34.5 80t64 48t82 23.5t88.5 6.5h339q44 0 86.5 -6.5t78 -24t63 -48.5t41.5 -79q22 -74 15 -141t-33 -123t-66 -98.5t-85 -67.5h267v-408h-585q-31 -3 -53.5 1t-39 12.5t-27 20 t-16.5 22.5q-52 -39 -52 -138q7 -40 25.5 -64.5t44.5 -39t57.5 -20.5t65.5 -7t67.5 0.5t63.5 1.5q39 0 66 -27.5t27 -66.5v-125q0 -38 -27 -63.5t-66 -30.5q-118 -13 -215.5 4.5t-172.5 58.5t-127 102t-79.5 134t-29.5 154.5zM434 1378q0 32 12.5 60.5t34 49.5t50 33.5 t60.5 12.5t60.5 -12.5t49.5 -33.5t33.5 -49.5t12.5 -60.5q0 -33 -12.5 -61.5t-33.5 -50t-49.5 -34t-60.5 -12.5t-60.5 12.5t-50 34t-34 50t-12.5 61.5zM471 778l78 -178q69 24 118 67.5t60 110.5h-256z" />
<glyph unicode="&#x63a;" horiz-adv-x="927" arabic-form="initial" d="M-4 95v408h101v299q0 77 17.5 131.5t51 89.5t83 51.5t113.5 16.5h325q39 0 66.5 -27t27.5 -67v-125q0 -20 -7.5 -37t-20 -29.5t-30 -20t-36.5 -7.5h-277v-275h356q19 0 36.5 -7.5t30 -20t20 -30t7.5 -36.5v-220q0 -20 -7.5 -37t-20 -29.5t-30 -20t-36.5 -7.5h-770z M315 1378q0 32 12.5 60.5t33.5 49.5t49.5 33.5t61.5 12.5q32 0 60.5 -12.5t49.5 -33.5t33.5 -49.5t12.5 -60.5q0 -33 -12.5 -61.5t-33.5 -50t-49.5 -34t-60.5 -12.5q-33 0 -61.5 12.5t-49.5 34t-33.5 50t-12.5 61.5z" />
<glyph unicode="&#x63a;" horiz-adv-x="1066" arabic-form="medial" d="M-3 95v408h223q-36 90 -63 154t-43 112.5t-21 87t2 76.5q8 49 34.5 80t63.5 48t81.5 23.5t88.5 6.5h341q44 0 88 -6.5t81.5 -23.5t64 -48t34.5 -80q6 -38 2 -74t-14 -70.5t-24.5 -68.5t-28.5 -68l-60 -149h224v-408h-1074zM379 1378q0 32 12.5 60.5t34 49.5t50 33.5 t60.5 12.5t60.5 -12.5t50 -33.5t34 -49.5t12.5 -60.5q0 -33 -12.5 -61.5t-34 -50t-50 -34t-60.5 -12.5t-60.5 12.5t-50 34t-34 50t-12.5 61.5zM412 778l122 -275l122 275h-244z" />
<glyph unicode="&#x641;" horiz-adv-x="1304" arabic-form="isolated" d="M57 385v169q0 19 7.5 36t20 29.5t29.5 20t37 7.5h125q19 0 36.5 -7.5t30.5 -20t20.5 -29.5t7.5 -36v-51h121v299q0 77 17.5 131.5t51 89.5t83 51.5t114.5 16.5h222q64 0 113.5 -16.5t83 -51.5t51 -89.5t17.5 -131.5v-417q0 -77 -17 -132t-51 -90t-83.5 -51.5 t-113.5 -16.5h-657q-129 0 -197.5 68t-68.5 222zM703 1378q0 32 12.5 60.5t33.5 49.5t49.5 33.5t61.5 12.5q32 0 60.5 -12.5t49.5 -33.5t33 -49.5t12 -60.5q0 -33 -12 -61.5t-33 -50t-49.5 -34t-60.5 -12.5q-33 0 -61.5 12.5t-49.5 34t-33.5 50t-12.5 61.5zM805 503h127v275 h-127v-275z" />
<glyph unicode="&#x641;" horiz-adv-x="1516" arabic-form="final" d="M79 385v169q0 19 7.5 36t20 29.5t29.5 20t37 7.5h125q19 0 36.5 -7.5t30.5 -20t20.5 -29.5t7.5 -36v-51h278v299q0 77 17.5 131.5t51 89.5t82.5 51.5t113 16.5h223q64 0 113 -16.5t83 -51.5t51.5 -89.5t17.5 -131.5v-299h99v-408h-1177q-129 0 -197.5 68t-68.5 222z M894 1378q0 32 12.5 60.5t34 49.5t50 33.5t60.5 12.5t60.5 -12.5t50 -33.5t34 -49.5t12.5 -60.5q0 -33 -12.5 -61.5t-34 -50t-50 -34t-60.5 -12.5t-60.5 12.5t-50 34t-34 50t-12.5 61.5zM983 503h128v275h-128v-275z" />
<glyph unicode="&#x641;" horiz-adv-x="911" arabic-form="initial" d="M-3 95v408h96v299q0 77 17.5 131.5t51 89.5t83 51.5t113.5 16.5h223q64 0 113.5 -16.5t83.5 -51.5t51.5 -89.5t17.5 -131.5v-417q0 -154 -68.5 -222t-196.5 -68h-585zM315 1378q0 32 12.5 60.5t33.5 49.5t49.5 33.5t61.5 12.5q32 0 60.5 -12.5t49.5 -33.5t33.5 -49.5 t12.5 -60.5q0 -33 -12.5 -61.5t-33.5 -50t-49.5 -34t-60.5 -12.5q-33 0 -61.5 12.5t-49.5 34t-33.5 50t-12.5 61.5zM407 503h127v275h-127v-275z" />
<glyph unicode="&#x641;" horiz-adv-x="940" arabic-form="medial" d="M-3 95v408h96v299q0 77 17.5 131.5t51 89.5t83 51.5t113.5 16.5h223q64 0 113.5 -16.5t83.5 -51.5t51.5 -89.5t17.5 -131.5v-299h98v-408h-948zM315 1378q0 32 12.5 60.5t33.5 49.5t49.5 33.5t61.5 12.5q32 0 60.5 -12.5t49.5 -33.5t33.5 -49.5t12.5 -60.5 q0 -33 -12.5 -61.5t-33.5 -50t-49.5 -34t-60.5 -12.5q-33 0 -61.5 12.5t-49.5 34t-33.5 50t-12.5 61.5zM406 503h128l-1 275h-127v-275z" />
<glyph unicode="&#x642;" horiz-adv-x="1299" arabic-form="isolated" d="M52 385v297q0 19 7.5 36.5t20.5 30t30 20t36 7.5h125q20 0 37.5 -7.5t30 -20t20 -30t7.5 -36.5v-179h121v299q0 77 17.5 131.5t51 89.5t83 51.5t114.5 16.5h222q64 0 114 -16.5t83.5 -51.5t51 -89.5t17.5 -131.5v-417q0 -154 -68.5 -222t-196.5 -68h-658q-128 0 -197 68 t-69 222zM519 1378q0 32 12.5 60.5t34 49.5t50 33.5t60.5 12.5t60.5 -12.5t50 -33.5t34 -49.5t12.5 -60.5q0 -33 -12.5 -61.5t-34 -50t-50 -34t-60.5 -12.5t-60.5 12.5t-50 34t-34 50t-12.5 61.5zM800 503h127v275h-127v-275zM878 1378q0 32 12.5 60.5t33.5 49.5t49.5 33.5 t60.5 12.5q33 0 61.5 -12.5t49.5 -33.5t33.5 -49.5t12.5 -60.5q0 -33 -12.5 -61.5t-33.5 -50t-49.5 -34t-61.5 -12.5q-32 0 -60.5 12.5t-49.5 34t-33.5 50t-12.5 61.5z" />
<glyph unicode="&#x642;" horiz-adv-x="1516" arabic-form="final" d="M79 385v169q0 19 7.5 36t20 29.5t29.5 20t37 7.5h125q19 0 36.5 -7.5t30.5 -20t20.5 -29.5t7.5 -36v-51h278v299q0 77 17.5 131.5t51 89.5t82.5 51.5t113 16.5h223q64 0 113 -16.5t83 -51.5t51.5 -89.5t17.5 -131.5v-299h99v-408h-1177q-129 0 -197.5 68t-68.5 222z M712 1378q0 32 12.5 60.5t33.5 49.5t49.5 33.5t60.5 12.5q33 0 61.5 -12.5t49.5 -33.5t33 -49.5t12 -60.5q0 -33 -12 -61.5t-33 -50t-49.5 -34t-61.5 -12.5q-32 0 -60.5 12.5t-49.5 34t-33.5 50t-12.5 61.5zM983 503h128v275h-128v-275zM1071 1378q0 32 12 60.5t33 49.5 t49.5 33.5t60.5 12.5q33 0 61.5 -12.5t49.5 -33.5t33.5 -49.5t12.5 -60.5q0 -33 -12.5 -61.5t-33.5 -50t-49.5 -34t-61.5 -12.5q-32 0 -60.5 12.5t-49.5 34t-33 50t-12 61.5z" />
<glyph unicode="&#x642;" horiz-adv-x="911" arabic-form="initial" d="M-3 95v408h96v299q0 77 17.5 131.5t51 89.5t83 51.5t113.5 16.5h223q64 0 113.5 -16.5t83.5 -51.5t51.5 -89.5t17.5 -131.5v-417q0 -154 -68.5 -222t-196.5 -68h-585zM133 1378q0 32 12.5 60.5t33.5 49.5t49.5 33.5t60.5 12.5q33 0 61.5 -12.5t49.5 -33.5t33 -49.5 t12 -60.5q0 -33 -12 -61.5t-33 -50t-49.5 -34t-61.5 -12.5q-32 0 -60.5 12.5t-49.5 34t-33.5 50t-12.5 61.5zM407 503h127v275h-127v-275zM492 1378q0 32 12 60.5t33 49.5t49.5 33.5t60.5 12.5q33 0 61.5 -12.5t49.5 -33.5t33.5 -49.5t12.5 -60.5q0 -33 -12.5 -61.5 t-33.5 -50t-49.5 -34t-61.5 -12.5q-32 0 -60.5 12.5t-49.5 34t-33 50t-12 61.5z" />
<glyph unicode="&#x642;" horiz-adv-x="940" arabic-form="medial" d="M-3 95v408h96v299q0 77 17.5 131.5t51 89.5t83 51.5t113.5 16.5h223q64 0 113.5 -16.5t83.5 -51.5t51.5 -89.5t17.5 -131.5v-299h98v-408h-948zM130 1378q0 32 12.5 60.5t33.5 49.5t49.5 33.5t60.5 12.5t60.5 -12.5t50 -33.5t34 -49.5t12.5 -60.5q0 -33 -12.5 -61.5 t-34 -50t-50 -34t-60.5 -12.5t-60.5 12.5t-49.5 34t-33.5 50t-12.5 61.5zM406 503h128l-1 275h-127v-275zM488 1378q0 32 12.5 60.5t34 49.5t50 33.5t60.5 12.5t60.5 -12.5t49.5 -33.5t33.5 -49.5t12.5 -60.5q0 -33 -12.5 -61.5t-33.5 -50t-49.5 -34t-60.5 -12.5t-60.5 12.5 t-50 34t-34 50t-12.5 61.5z" />
<glyph unicode="&#x643;" horiz-adv-x="1384" arabic-form="isolated" d="M53 189v220q0 19 7.5 36.5t20 30t29.5 20t36 7.5h865v128h-783q-19 0 -36 7.5t-29.5 20.5t-20 30t-7.5 36l-1 213q13 120 63.5 209t132 145.5t191 78.5t241.5 8q38 -3 66 -28.5t28 -65.5v-125q0 -19 -7.5 -36t-20.5 -29.5t-30 -20t-36 -7.5q-44 0 -95.5 2t-98 -6.5 t-82 -35t-47.5 -83.5h619q64 0 113.5 -16.5t83.5 -51.5t51.5 -89.5t17.5 -131.5l-1 -466q0 -20 -7.5 -37t-20.5 -29.5t-30 -20t-36 -7.5h-1083q-19 0 -36 7.5t-29.5 20t-20 29.5t-7.5 37z" />
<glyph unicode="&#x643;" horiz-adv-x="1419" arabic-form="final" d="M54 189v220q0 19 7.5 36.5t20.5 30t30 20t36 7.5h865v128h-783q-20 0 -37 7.5t-29.5 20.5t-20 30t-7.5 36v213q13 120 63.5 209t132 145.5t191.5 78.5t242 8q38 -3 65.5 -28.5t27.5 -65.5v-125q0 -19 -7.5 -36t-20.5 -29.5t-29.5 -20t-35.5 -7.5q-45 0 -96.5 2 t-98.5 -6.5t-82 -35t-47 -83.5h620q64 0 113 -16.5t83 -51.5t51.5 -89.5t17.5 -131.5v-152h99v-408h-1277q-19 0 -36 7.5t-30 20t-20.5 29.5t-7.5 37z" />
<glyph unicode="&#x643;" horiz-adv-x="1325" arabic-form="initial" d="M-7 95v408h962l-1 128h-783q-19 0 -36 7.5t-30 20.5t-20.5 30t-7.5 36v213q13 120 64 209t132.5 145.5t191 78.5t241.5 8q39 -3 66.5 -28.5t27.5 -65.5v-125q0 -19 -7.5 -36t-20 -29.5t-30 -20t-36.5 -7.5q-44 0 -96 2t-98.5 -6.5t-81.5 -35t-47 -83.5h619 q64 0 113.5 -16.5t83 -51.5t51 -89.5t17.5 -131.5l-1 -466q0 -20 -7.5 -37t-20 -29.5t-30 -20t-36.5 -7.5h-1179z" />
<glyph unicode="&#x643;" horiz-adv-x="1365" arabic-form="medial" d="M-7 95v408h965v128h-782q-20 0 -37 7.5t-29.5 20.5t-20 30t-7.5 36l-1 213q13 120 63.5 209t132 145.5t191 78.5t241.5 8q38 -3 66 -28.5t28 -65.5v-125q0 -19 -7.5 -36t-20 -29.5t-30 -20t-36.5 -7.5q-44 0 -95.5 2t-98 -6.5t-81.5 -35t-47 -83.5h618q64 0 114 -16.5 t83.5 -51.5t51 -89.5t17.5 -131.5v-152h99v-408h-1377z" />
<glyph unicode="&#x644;" horiz-adv-x="1190" arabic-form="isolated" d="M52 274v185q0 19 7.5 36.5t20.5 30t30 20t37 7.5h124q20 0 37 -7.5t30 -20.5t20.5 -30t7.5 -36v-87q0 -34 2.5 -71t10.5 -72.5t23 -67t40.5 -55t62.5 -37.5t88 -13q78 1 122 29t65 70.5t25.5 92t2.5 93.5v950q0 19 7.5 36.5t20 30t29.5 20t37 7.5h125q19 0 36.5 -7.5 t30 -20t20 -30t7.5 -36.5v-1108q-2 -113 -46 -211.5t-118.5 -171.5t-174.5 -114.5t-214 -39.5q-145 3 -244 54.5t-160 137.5t-87 198.5t-25 237.5z" />
<glyph unicode="&#x644;" horiz-adv-x="1215" arabic-form="final" d="M49 274v21q0 12 0.5 32t0.5 51v81q0 19 7 36.5t19.5 30t29.5 20t36 7.5h126q19 0 36 -7.5t30 -20.5t20.5 -30t7.5 -36v-87q0 -51 6 -107.5t29.5 -103t69 -76.5t123.5 -29q77 1 121 29t65.5 70.5t25.5 92t2 93.5v950q0 19 7.5 36.5t20.5 30t30 20t36 7.5h125 q19 0 36.5 -7.5t30 -20t20 -30t7.5 -36.5l-1 -788h104v-408h-112q-17 -96 -65.5 -179t-120.5 -143.5t-163 -94.5t-194 -32q-145 3 -244.5 54.5t-160 137.5t-87 198.5t-24.5 237.5z" />
<glyph unicode="&#x644;" horiz-adv-x="478" arabic-form="initial" d="M-3 95v408h95v788q0 19 7.5 36.5t20 30t29.5 20t37 7.5h125q19 0 36.5 -7.5t30 -20t20 -30t7.5 -36.5v-906q0 -154 -69 -222t-197 -68h-142z" />
<glyph unicode="&#x644;" horiz-adv-x="493" arabic-form="medial" d="M-3 95v408h95v788q0 19 7.5 36.5t20 30t29.5 20t37 7.5h125q19 0 36.5 -7.5t30 -20t20 -30t7.5 -36.5v-788h94v-408h-502z" />
<glyph unicode="&#x645;" horiz-adv-x="1181" arabic-form="isolated" d="M53 39q2 69 14 134t35.5 123.5t60 103t87 72t116.5 31.5v299q0 77 17.5 131.5t51.5 89.5t83.5 51.5t113.5 16.5h222q128 0 196.5 -67.5t69.5 -221.5v-417q0 -154 -69 -222t-197 -68h-242q-260 17 -242 -242v-128q0 -19 -7.5 -36t-20 -30t-30 -20.5t-36.5 -7.5h-125 q-20 0 -37 7.5t-30 20.5t-20 30t-7 36v179q-6 66 -4 135zM679 503h128v275h-128v-275z" />
<glyph unicode="&#x645;" horiz-adv-x="1215" arabic-form="final" d="M52 28.5q2 64.5 12 127.5t31 121t56.5 104.5t87.5 78.5t124 43v299q0 77 17.5 131.5t51 89.5t83 51.5t113.5 16.5h223q64 0 113.5 -16.5t83 -51.5t51 -89.5t17.5 -131.5v-299h105v-408h-612q-258 16 -243 -242v-128q0 -19 -7 -36t-20 -30t-30 -20.5t-37 -7.5h-125 q-19 0 -36 7.5t-30 20.5t-20.5 30t-7.5 36v179q-3 60 -1 124.5zM676 503h127v275h-127v-275z" />
<glyph unicode="&#x645;" horiz-adv-x="911" arabic-form="initial" d="M-3 95v408h96v299q0 77 17.5 131.5t51 89.5t83 51.5t113.5 16.5h223q64 0 113.5 -16.5t83.5 -51.5t51.5 -89.5t17.5 -131.5v-417q0 -154 -68.5 -222t-196.5 -68h-585zM407 503h127v275h-127v-275z" />
<glyph unicode="&#x645;" horiz-adv-x="940" arabic-form="medial" d="M-3 95v408h96v299q0 77 17.5 131.5t51 89.5t83 51.5t113.5 16.5h223q64 0 113.5 -16.5t83.5 -51.5t51.5 -89.5t17.5 -131.5v-299h98v-408h-948zM406 503h128l-1 275h-127v-275z" />
<glyph unicode="&#x646;" horiz-adv-x="1190" arabic-form="isolated" d="M64 274v280q0 19 7.5 36.5t20 30t29.5 20t37 7.5h126q19 0 36 -7.5t29.5 -20.5t20.5 -30t8 -36v-182q-1 -51 5.5 -107.5t30 -103t69 -76.5t123.5 -29q77 1 120.5 29t65 70.5t26 92t2.5 93.5v655q0 19 7.5 36t20 29.5t29.5 20t36 7.5h126q19 0 36.5 -7.5t30 -20t20 -29.5 t6.5 -36l-1 -813q-2 -113 -45.5 -211.5t-118 -171.5t-174.5 -114.5t-214 -39.5q-145 3 -244 54.5t-159.5 137.5t-86.5 198.5t-25 237.5zM404 1239q0 32 12.5 60.5t33.5 50t49.5 34t60.5 12.5t60.5 -12.5t50 -34t34 -50t12.5 -60.5t-12.5 -60.5t-34 -50t-50 -34t-60.5 -12.5 t-60.5 12.5t-49.5 34t-33.5 50t-12.5 60.5z" />
<glyph unicode="&#x646;" horiz-adv-x="1215" arabic-form="final" d="M57 274v280q0 19 7.5 36.5t20 30t29.5 20t37 7.5h126q19 0 36 -7.5t30 -20.5t20.5 -30t7.5 -36v-182q0 -51 6 -107.5t29.5 -103t69 -76.5t123.5 -29q77 1 121 29t65.5 70.5t25.5 92t2 93.5v655q0 19 7.5 36t20 29.5t29.5 20t37 7.5h125q19 0 36.5 -7.5t30.5 -20t20 -29.5 t7 -36v-493h95v-408h-105q-17 -96 -65.5 -179t-120.5 -143.5t-163 -94.5t-194 -32q-145 3 -244 54.5t-160 137.5t-87 198.5t-25 237.5zM404 1239q0 32 12.5 60.5t33.5 50t49.5 34t60.5 12.5t60.5 -12.5t50 -34t34 -50t12.5 -60.5t-12.5 -60.5t-34 -50t-50 -34t-60.5 -12.5 t-60.5 12.5t-49.5 34t-33.5 50t-12.5 60.5z" />
<glyph unicode="&#x646;" horiz-adv-x="473" arabic-form="initial" d="M-3 95v408h105v493q0 19 7.5 36t20 29.5t29.5 20t37 7.5h124q19 0 36 -7.5t30 -20t20.5 -29.5t7.5 -36v-611q0 -154 -68.5 -222t-196.5 -68h-152zM101 1364q0 32 12.5 60.5t33.5 49.5t49.5 33.5t60.5 12.5q33 0 61.5 -12.5t49.5 -33.5t33 -49.5t12 -60.5t-12 -61 t-33 -50.5t-49.5 -34t-61.5 -12.5q-32 0 -60.5 12.5t-49.5 34t-33.5 50.5t-12.5 61z" />
<glyph unicode="&#x646;" horiz-adv-x="518" arabic-form="medial" d="M-3 95v408h107v493q0 19 7.5 36t20.5 29.5t30 20t37 7.5h125q19 0 36.5 -7.5t30 -20t20 -29.5t7.5 -36v-493h102v-408h-523zM101 1364q0 32 12.5 60.5t33.5 49.5t49.5 33.5t60.5 12.5q33 0 61.5 -12.5t49.5 -33.5t33 -49.5t12 -60.5t-12 -61t-33 -50.5t-49.5 -34 t-61.5 -12.5q-32 0 -60.5 12.5t-49.5 34t-33.5 50.5t-12.5 61z" />
<glyph unicode="&#x647;" horiz-adv-x="886" arabic-form="isolated" d="M70 385v417q0 154 68 221.5t196 67.5h223q64 0 113 -16.5t83 -51.5t51.5 -89.5t17.5 -131.5v-417q0 -154 -68.5 -222t-195.5 -68h-224q-128 0 -196 68t-68 222zM382 503h127v275h-127v-275z" />
<glyph unicode="&#x647;" horiz-adv-x="921" arabic-form="final" d="M70 385v417q0 77 17.5 131.5t51 89.5t83 51.5t113.5 16.5h223q64 0 113 -16.5t83 -51.5t51.5 -89.5t17.5 -131.5v-299h102v-408h-590q-128 0 -196.5 68t-68.5 222zM382 503h127v275h-127v-275z" />
<glyph unicode="&#x647;" horiz-adv-x="1339" arabic-form="initial" d="M-6 95v408h96v299q0 77 17.5 131.5t51 89.5t83 51.5t113.5 16.5h664q64 0 113 -16.5t83 -51.5t51.5 -89.5t17.5 -131.5v-417q0 -77 -17.5 -132t-51.5 -90t-83 -51.5t-113 -16.5h-1025zM403 503h127v275h-127v-275zM843 503h128v275h-128v-275z" />
<glyph unicode="&#x647;" horiz-adv-x="1379" arabic-form="medial" d="M-3 95v408h97v299q0 77 17.5 131.5t51 89.5t82.5 51.5t113 16.5h664q64 0 113.5 -16.5t83 -51.5t51 -89.5t17.5 -131.5l1 -299h94v-408h-1385zM407 503h127v275h-127v-275zM847 503h128l-1 275h-127v-275z" />
<glyph unicode="&#x648;" horiz-adv-x="882" arabic-form="isolated" d="M64 385v417q0 77 17.5 131.5t51 89.5t83 51.5t114.5 16.5h222q64 0 114 -16.5t84 -51.5t51 -89.5t17 -131.5l-2 -626q0 -139 -45.5 -243.5t-128.5 -171.5t-200 -95t-259 -13q-38 4 -66 29.5t-28 64.5v125q0 20 7.5 37t20.5 30t30 20t36 7q45 0 97.5 -2t99.5 7.5t82 37 t45 86.5h-177q-129 0 -197.5 68t-68.5 222zM378 503h127v275h-127v-275z" />
<glyph unicode="&#x648;" horiz-adv-x="911" arabic-form="final" d="M62 385v417q0 77 17.5 131.5t51 89.5t83 51.5t113.5 16.5h223q64 0 113 -16.5t83 -51.5t51 -89.5t17 -131.5l-1 -299h104v-408h-108q-14 -119 -64 -208t-132 -145.5t-191.5 -79t-241.5 -9.5q-38 4 -66 29.5t-28 64.5v125q0 20 7.5 37t20.5 30t30 20t36 7q30 0 64 -1.5 t68 -0.5t65.5 7t57.5 20.5t44.5 39.5t25.5 64h-178q-64 0 -113.5 16.5t-83 51.5t-51 90t-17.5 132zM375 503h127v275h-127v-275z" />
<glyph unicode="&#x649;" horiz-adv-x="1166" arabic-form="isolated" d="M48 274q0 10 0.5 36.5t0.5 63.5v84v96q0 19 7.5 36.5t20 30t29.5 20t36 7.5h126q19 0 36 -7.5t30 -20.5t20.5 -30t7.5 -36v-277q-1 -51 5.5 -105t30 -99.5t69 -76t123.5 -35.5q34 -2 67.5 6t61.5 25.5t47.5 43.5t25.5 59q-70 0 -120.5 20t-83 57.5t-48 91.5t-15.5 121 v322q0 154 68.5 222t197.5 68l208 -1q19 0 36.5 -7.5t30 -20t20 -30t7.5 -36.5v-126q0 -19 -7.5 -36t-20 -30t-30 -20.5t-36.5 -7.5l-160 1v-180h127q32 1 59 -14.5t47.5 -44t33.5 -67t17 -83.5q8 -85 -6 -166.5t-46.5 -154t-82.5 -133.5t-115 -104.5t-142.5 -67.5 t-165.5 -22q-146 3 -245 54.5t-160 137.5t-87 198.5t-25 237.5z" />
<glyph unicode="&#x649;" horiz-adv-x="1200" arabic-form="final" d="M57 554q0 19 7.5 36.5t20.5 30t30 20t36 7.5h126q19 0 36.5 -7.5t30 -20.5t20 -30t7.5 -36l-3 -277q-1 -51 6 -105t31 -99.5t70 -76t124 -35.5q34 -2 68 6t61.5 25.5t47 43.5t24.5 59h-161q-19 0 -36 7.5t-30 20t-20.5 29.5t-7.5 37v220q0 19 7.5 36.5t20.5 30t30 20 t36 7.5h566v-408h-100q-13 -103 -59.5 -187t-117 -142.5t-161.5 -90t-194 -29.5q-145 3 -243.5 54.5t-159 137.5t-86.5 198.5t-25 237.5q0 10 -0.5 36.5t-0.5 63.5q0 38 -0.5 84t-0.5 96z" />
<glyph unicode="&#x64a;" horiz-adv-x="1175" arabic-form="isolated" d="M43 274v185q0 19 7.5 36.5t20.5 30t30 20t36 7.5h127q19 0 36 -7.5t30 -20.5t20.5 -30t7.5 -36v-182q-1 -51 5.5 -105t30 -99.5t69 -76t123.5 -35.5q34 -2 67 6t61 25.5t47.5 43.5t25.5 59q-70 0 -120.5 20t-83 57.5t-48 91.5t-15.5 121v322q0 154 68.5 222t197.5 68 l208 -1q39 0 66 -27.5t27 -66.5v-126q0 -19 -7 -36t-20 -30t-30 -20.5t-36 -7.5l-161 1v-180h127q32 1 59.5 -14.5t48 -44t33.5 -67t17 -83.5q8 -85 -6 -166.5t-46.5 -154t-82.5 -133.5t-115 -104.5t-142.5 -67.5t-166.5 -22q-145 3 -244 54.5t-160 137.5t-87 198.5 t-25 237.5zM230 -590q0 32 12 60.5t33 49.5t49.5 33.5t61.5 12.5q32 0 60.5 -12.5t49.5 -33.5t33.5 -49.5t12.5 -60.5q0 -33 -12.5 -61.5t-33.5 -50t-49.5 -34t-60.5 -12.5q-33 0 -61.5 12.5t-49.5 34t-33 50t-12 61.5zM588 -590q0 32 12.5 60.5t33.5 49.5t49.5 33.5 t61.5 12.5q32 0 60.5 -12.5t49.5 -33.5t33 -49.5t12 -60.5q0 -33 -12 -61.5t-33 -50t-49.5 -34t-60.5 -12.5q-33 0 -61.5 12.5t-49.5 34t-33.5 50t-12.5 61.5z" />
<glyph unicode="&#x64a;" horiz-adv-x="1200" arabic-form="final" d="M57 274v185q0 19 7.5 36.5t20.5 30t30 20t36 7.5h126q19 0 36.5 -7.5t30 -20.5t20 -30t7.5 -36v-182q0 -51 6 -105t29.5 -99.5t69 -76t123.5 -35.5q34 -2 68 6t61.5 25.5t47 43.5t24.5 59h-161q-19 0 -36 7.5t-30 20t-20.5 29.5t-7.5 37v220q0 19 7.5 36.5t20.5 30t30 20 t36 7.5h566v-408h-100q-13 -103 -59.5 -187t-117 -142.5t-161.5 -90t-194 -29.5q-145 3 -244 54.5t-159.5 137.5t-87 198.5t-25.5 237.5zM250 -590q0 32 12 60.5t33 49.5t49.5 33.5t61.5 12.5q32 0 60.5 -12.5t49.5 -33.5t33.5 -49.5t12.5 -60.5q0 -33 -12.5 -61.5 t-33.5 -50t-49.5 -34t-60.5 -12.5q-33 0 -61.5 12.5t-49.5 34t-33 50t-12 61.5zM608 -590q0 32 12.5 60.5t33.5 49.5t49.5 33.5t61.5 12.5q32 0 60.5 -12.5t49.5 -33.5t33 -49.5t12 -60.5q0 -33 -12 -61.5t-33 -50t-49.5 -34t-60.5 -12.5q-33 0 -61.5 12.5t-49.5 34 t-33.5 50t-12.5 61.5z" />
<glyph unicode="&#x64a;" horiz-adv-x="757" arabic-form="initial" d="M-4 95v408h384v493q0 19 7.5 36t20.5 29.5t30 20t36 7.5h125q19 0 36.5 -7.5t30 -20t20 -29.5t7.5 -36v-611q0 -154 -68.5 -222t-196.5 -68h-432zM21 -181q0 32 12.5 60.5t33.5 49.5t49.5 33.5t60.5 12.5q33 0 61.5 -12.5t49.5 -33.5t33.5 -49.5t12.5 -60.5 q0 -33 -12.5 -61.5t-33.5 -50t-49.5 -34t-61.5 -12.5q-32 0 -60.5 12.5t-49.5 34t-33.5 50t-12.5 61.5zM379 -181q0 32 12.5 60.5t34 49.5t50 33.5t60.5 12.5t60.5 -12.5t50 -33.5t34 -49.5t12.5 -60.5q0 -33 -12.5 -61.5t-34 -50t-50 -34t-60.5 -12.5t-60.5 12.5t-50 34 t-34 50t-12.5 61.5z" />
<glyph unicode="&#x64a;" horiz-adv-x="706" arabic-form="medial" d="M-10 95v408h199v493q0 19 7.5 36t20 29.5t30 20t37.5 7.5h124q19 0 36.5 -7.5t30.5 -20t20.5 -29.5t7.5 -36v-493h210v-408h-723zM15 -181q0 32 12.5 60.5t33.5 49.5t49.5 33.5t60.5 12.5q33 0 61.5 -12.5t49.5 -33.5t33.5 -49.5t12.5 -60.5q0 -33 -12.5 -61.5t-33.5 -50 t-49.5 -34t-61.5 -12.5q-32 0 -60.5 12.5t-49.5 34t-33.5 50t-12.5 61.5zM373 -181q0 32 12.5 60.5t34 49.5t50 33.5t60.5 12.5t60.5 -12.5t49.5 -33.5t33.5 -49.5t12.5 -60.5q0 -33 -12.5 -61.5t-33.5 -50t-49.5 -34t-60.5 -12.5t-60.5 12.5t-50 34t-34 50t-12.5 61.5z" />
<glyph unicode=" "  horiz-adv-x="435" />
<glyph unicode="&#x09;" horiz-adv-x="435" />
<glyph unicode="&#xa0;" horiz-adv-x="435" />
<glyph unicode="!" horiz-adv-x="637" d="M143 1296q0 22 8 41t22.5 33t33.5 22.5t41 8.5h137q22 0 41.5 -8.5t34 -22.5t22.5 -33t8 -41l-50 -690q0 -22 -8.5 -41t-22.5 -33t-33 -22t-40 -8h-41q-44 0 -74.5 29.5t-30.5 74.5zM144 240q0 36 13.5 68t37 55.5t54.5 37t67 13.5q37 0 69 -13.5t56 -37t37.5 -55.5 t13.5 -68t-13.5 -67.5t-37.5 -55t-56 -37.5t-69 -14q-36 0 -67 14t-54.5 37.5t-37 55t-13.5 67.5z" />
<glyph unicode="&#x22;" horiz-adv-x="620" d="M80 1446q0 19 7.5 36.5t20 30.5t29.5 20.5t37 7.5h77l11 -384q0 -19 -10.5 -33t-27 -23t-37 -13.5t-39.5 -4.5zM330 1446q0 19 7.5 36.5t20 30.5t29.5 20.5t37 7.5h77l11 -384q0 -19 -10.5 -33t-27 -23t-37 -13.5t-39.5 -4.5z" />
<glyph unicode="#" d="M32 501l23 163h168l31 218h-169l23 163h170l49 348h170l-50 -348h173l50 348h170l-50 -348h168l-23 -163h-169l-31 -218h170l-23 -163h-169l-51 -353h-170l51 353h-173l-51 -353h-169l50 353h-168zM392 664h174l31 218h-173z" />
<glyph unicode="$" d="M53 499l1 31h242q-5 -114 43 -169q39 -41 108 -52v373q-189 60 -275 137q-92 84 -92 224q0 170 111 270q98 87 256 97v125h81v-123q173 -8 271 -94q108 -96 108 -272h-228q0 98 -43 141q-34 34 -108 40v-337l22 -7q209 -60 296 -147t87 -238q0 -176 -120 -279 q-108 -95 -285 -103v-173h-81v172q-189 12 -291.5 107.5t-102.5 276.5zM306 1070q0 -62 57 -106q31 -24 84 -46v307q-56 -8 -91 -38q-50 -42 -50 -117zM528 308q69 7 112 46q53 46 53 127q0 69 -47 114q-37 35 -118 61v-348z" />
<glyph unicode="%" horiz-adv-x="829" d="M10 1129q0 28 11 53t29.5 43.5t43.5 29t53 10.5t53 -10.5t43.5 -29t29 -43.5t10.5 -53t-10.5 -53t-29 -43.5t-43.5 -29.5t-53 -11t-53 11t-43.5 29.5t-29.5 43.5t-11 53zM62 -72l418 1391l239 127l-419 -1391zM505 223q0 28 10.5 53.5t29 44t43 29.5t52.5 11t53 -11 t43.5 -29.5t29.5 -44t11 -53.5t-11 -53t-29.5 -43.5t-43.5 -29t-53 -10.5t-52.5 10.5t-43 29t-29 43.5t-10.5 53z" />
<glyph unicode="&#x26;" horiz-adv-x="1287" d="M97 481q0 141 84 239q59 70 187 147l-7 8q-48 57 -75.5 123t-27.5 121q0 142 90 225.5t245 83.5q143 0 227 -81.5t84 -219.5q0 -103 -71 -185q-49 -59 -142 -116l189 -230l17 34q43 92 52 183h220q-12 -128 -75 -261q-33 -69 -73 -127l228 -275h-295l-87 104 q-73 -63 -134 -92q-89 -41 -231 -41q-186 0 -295.5 97t-109.5 263zM347 495q0 -80 51 -125q50 -44 139 -44q60 0 117 33q36 21 79 58l-78 94l-160 198q-48 -34 -81 -67q-67 -68 -67 -147zM485 1138q0 -27 10.5 -56t30.5 -52l51 -63q35 25 62 51q55 56 55 110 q0 52 -27.5 81.5t-76.5 29.5q-50 0 -78 -27q-27 -26 -27 -74z" />
<glyph unicode="'" horiz-adv-x="390" d="M80 1446q0 19 7.5 36.5t20 30.5t29.5 20.5t37 7.5h77l11 -384q0 -19 -10.5 -33t-27 -23t-37 -13.5t-39.5 -4.5z" />
<glyph unicode="(" horiz-adv-x="612" d="M64 577q0 216 79.5 420t256.5 449h178q-132 -212 -189.5 -416t-57.5 -453q1 -249 58.5 -453t188.5 -415h-178q-177 244 -256 449q-80 203 -80 419z" />
<glyph unicode=")" horiz-adv-x="612" d="M35 -291q131 212 189 416t57 452q-1 249 -58.5 453.5t-187.5 415.5h176q179 -245 257 -449q80 -204 80 -420t-79 -420t-258 -448h-176z" />
<glyph unicode="*" horiz-adv-x="891" d="M95 1119l44 138l239 -82v257h134v-257l236 82l48 -138l-251 -68l173 -211l-119 -88l-155 224l-152 -219l-121 81l171 213z" />
<glyph unicode="+" horiz-adv-x="1041" d="M71 499v205h347v346h205v-346h346v-205h-346v-346h-205v346h-347z" />
<glyph unicode="," horiz-adv-x="495" d="M114 -54q90 30 121 88q23 40 27 116h-68h-80v130v129h134h133v-223q0 -139 -65 -221t-202 -115v96z" />
<glyph unicode="-" horiz-adv-x="593" d="M48 532v235h497v-235h-497z" />
<glyph unicode="." horiz-adv-x="497" d="M118 261q0 28 10.5 53t29 44t43.5 29.5t53 10.5t53 -10.5t43.5 -29.5t29.5 -44t11 -53t-11 -52.5t-29.5 -43t-43.5 -29t-53 -10.5t-53 10.5t-43.5 29t-29 43t-10.5 52.5z" />
<glyph unicode="/" horiz-adv-x="658" d="M0 -72l419 1391l239 127l-420 -1391z" />
<glyph unicode="0" horiz-adv-x="1019" d="M59 721q-1 78 8.5 157.5t32 152.5t57.5 136.5t85.5 110t116.5 73.5t150 27t150 -27t116 -73.5t85 -110t57 -136.5t32 -152t10 -158q0 -78 -10 -157t-32 -152t-57 -137t-85 -111t-116 -74t-150 -27t-150 27t-116.5 73.5t-85.5 110t-57.5 137t-32 152.5t-8.5 158zM339 721 q0 -225 42 -331.5t128 -106.5q87 0 129 107.5t42 330.5q0 224 -42 332t-129 108q-86 0 -128 -107t-42 -333z" />
<glyph unicode="1" horiz-adv-x="1019" d="M154 1110l295 247h276v-1270h-268v986q-54 -36 -113.5 -78t-109.5 -76z" />
<glyph unicode="2" horiz-adv-x="1019" d="M80 1254q101 66 198 96t201 30q94 0 171 -32t131.5 -86.5t84.5 -126t30 -150.5q0 -67 -22 -130t-59.5 -122t-85.5 -114t-100.5 -106t-104.5 -97t-97 -88h508v-241h-805l-29 212q43 45 96 95.5t107.5 104.5t107 110.5t94.5 114t70 114t33 111.5q-4 62 -27.5 102.5 t-59.5 62.5t-81 27t-93 -4.5t-94.5 -31t-84.5 -53.5z" />
<glyph unicode="3" horiz-adv-x="1019" d="M90 146l58 182q37 -27 87 -41t103 -16t104 7t91 29.5t65 51t25 71.5q0 36 -22 72.5t-66.5 65.5t-112 48t-157.5 20l-10 187q46 6 102.5 21.5t107 41.5t86 61.5t38.5 82.5q-4 44 -25 74t-53 47.5t-72 23t-81.5 2t-81.5 -15.5t-71 -30l-73 183q58 31 134.5 48.5t156 18 t156.5 -17t137.5 -56t97.5 -99t37 -146.5q0 -85 -52 -163t-157 -133q125 -57 184.5 -139t59.5 -197q0 -98 -40.5 -168.5t-107 -115t-151 -65t-173 -19.5t-173.5 22.5t-151 61.5z" />
<glyph unicode="4" horiz-adv-x="1019" d="M33 375v235l613 763h173v-750h122v-248h-122v-288h-254v288h-532zM279 623h287l4 353z" />
<glyph unicode="5" horiz-adv-x="1019" d="M138 110l74 185q80 -29 160.5 -26t144.5 30.5t103.5 75.5t39.5 108q0 70 -33 109.5t-89 59t-130.5 24t-158.5 4.5h-67l-2 677h673v-231h-441v-204q122 -2 218 -32t162.5 -86t101 -137t33.5 -184q1 -99 -36 -173.5t-100 -126t-144.5 -81t-169.5 -38t-176 3.5t-163 42z" />
<glyph unicode="6" horiz-adv-x="1019" d="M87 529q0 113 37.5 231t106.5 230t166.5 211.5t217.5 175.5q12 -14 30 -37.5t37 -48t36.5 -46.5t26.5 -33q-223 -145 -312 -316q23 6 49 9.5t51 3.5q75 0 147.5 -27t130.5 -79.5t93.5 -130.5t35.5 -179q0 -94 -31.5 -172.5t-88 -135.5t-134.5 -88.5t-172 -31.5 q-103 0 -182.5 34t-134 95.5t-82.5 147t-28 187.5zM338.5 521.5q5.5 -59.5 29.5 -109t67 -81.5t103 -30q40 0 71.5 18t53 45t33 58t11.5 58q-5 43 -27 78t-54.5 60.5t-72.5 39.5t-82 14q-32 0 -63.5 -9t-59.5 -28q-15 -54 -9.5 -113.5z" />
<glyph unicode="7" horiz-adv-x="1019" d="M82 1131v226h814l-9 -212l-417 -1094l-234 88l375 992h-529z" />
<glyph unicode="8" horiz-adv-x="1019" d="M67 440q0 50 14 95.5t39.5 84.5t61.5 71.5t79 55.5q-77 54 -113 128.5t-36 152.5q0 67 26 130t76 112t124.5 78.5t170.5 29.5q86 0 156 -31.5t119.5 -82t76.5 -114.5t27 -130q0 -75 -37 -143.5t-119 -116.5q115 -56 167 -136t52 -184q0 -85 -31.5 -154t-89.5 -120 q-60 -50 -140.5 -76.5t-180.5 -26.5q-103 0 -183.5 26.5t-140.5 74.5q-57 51 -87.5 121.5t-30.5 154.5zM330 440q0 -30 9.5 -59t29 -52t48.5 -37.5t68 -15.5q44 -1 80 7t61.5 28.5t39.5 55t14 87.5q0 7 -2.5 21.5t-9 32.5t-18.5 37t-32 34.5t-48.5 25.5t-67.5 10 q-43 0 -75.5 -15.5t-54 -40t-32 -56t-10.5 -63.5zM352 1016q0 -32 19 -62.5t45 -54t53.5 -36t45.5 -6.5h-1q21 8 44.5 21.5t43 33t32.5 44.5t13 55q0 32 -13 58t-34.5 44t-50 28t-58.5 10q-27 0 -52 -8.5t-44.5 -25t-31 -42t-11.5 -59.5z" />
<glyph unicode="9" horiz-adv-x="1019" d="M73 942q0 94 31.5 173t87.5 136t134.5 88.5t171.5 31.5q103 0 183 -34.5t134.5 -96t82.5 -146.5t28 -187q0 -113 -38 -231t-107 -229.5t-167 -211t-218 -175.5q-43 58 -78.5 100t-50.5 62q222 146 311 317q-23 -6 -48.5 -9.5t-49.5 -3.5q-75 0 -147.5 27t-130.5 80 t-93.5 130.5t-35.5 178.5zM306 956q4 -43 25.5 -78.5t54 -60.5t73 -39t82.5 -14q66 0 123 37q5 20 7.5 42t2.5 44q0 49 -13.5 94t-39 79t-62.5 54.5t-85 20.5q-42 0 -74.5 -18t-54 -44.5t-31.5 -58t-8 -58.5z" />
<glyph unicode=":" horiz-adv-x="624" d="M136 381q0 36 13.5 67.5t37.5 55.5t55.5 37.5t67.5 13.5t67.5 -13.5t55 -37.5t37.5 -55.5t14 -67.5t-14 -68t-37.5 -55.5t-55 -37.5t-67.5 -14t-67.5 14t-55.5 37.5t-37.5 55.5t-13.5 68zM136 876q0 37 13.5 69t37.5 56t55.5 38t67.5 14t67.5 -14t55 -38t37.5 -56t14 -69 q0 -35 -14 -66.5t-37.5 -55t-55 -37.5t-67.5 -14t-67.5 14t-55.5 37.5t-37.5 55t-13.5 66.5z" />
<glyph unicode=";" horiz-adv-x="593" d="M164 150v130v130h134h133v-194q0 -156 -64 -244.5t-197 -116.5v96q84 26 114 83q20 39 25 116h-65h-80zM164 804v259h266v-259h-266z" />
<glyph unicode="&#x3c;" horiz-adv-x="1041" d="M68 516v86v85l905 383v-197l-643 -271l643 -272v-197z" />
<glyph unicode="=" horiz-adv-x="810" d="M60 139l66 205l621 -3l-66 -205zM60 515l66 205l621 -3l-66 -205z" />
<glyph unicode="&#x3e;" horiz-adv-x="1041" d="M68 133v197l643 272l-643 271v197l905 -383v-85v-86z" />
<glyph unicode="?" horiz-adv-x="1088" d="M107 1023q6 201 123 314.5t319 113.5q203 0 322 -102t119 -275q0 -92 -55 -173.5t-184 -178.5q-51 -38 -70.5 -82t-16.5 -115h-232q-3 123 41.5 207t153.5 161q52 37 74 77.5t22 103.5q0 76 -47 122q-47 44 -127 44q-96 0 -143.5 -53t-50.5 -164h-248zM418 150v249h261 v-249h-261z" />
<glyph unicode="@" horiz-adv-x="1737" d="M211 788q0 283 198 479.5t485 196.5q266 0 448.5 -165t182.5 -403q0 -201 -136.5 -351.5t-317.5 -150.5q-57 0 -85 52q-12 20 -14 42q-87 -94 -190 -94q-126 0 -208 93t-81 235q-1 174 114.5 300t275.5 126q123 -1 196 -108l18 83h173l-116 -519q-5 -22 0 -37t16 -15 q89 0 150.5 99.5t61.5 244.5q0 178 -139 301.5t-340 123.5q-217 0 -367.5 -155t-150.5 -378q0 -224 146 -379t358 -155q132 0 245.5 43t167.5 112h157q-77 -134 -231 -215.5t-331 -81.5q-289 0 -487.5 196t-198.5 480zM688 729q0 -75 38 -115.5t107 -40.5q71 0 128 56 t76 144t-20 143.5t-120 55.5q-84 0 -146.5 -73t-62.5 -170z" />
<glyph unicode="A" horiz-adv-x="1287" d="M36 150l452 1279h155h155l453 -1279h-142h-142l-86 260h-485l-85 -260h-137h-138zM470 630h340l-171 514z" />
<glyph unicode="B" horiz-adv-x="1287" d="M136 150v1279h128h491q185 0 289.5 -85.5t104.5 -238.5q0 -159 -117 -242q-19 -14 -43 -25q45 -17 80 -42q123 -84 123 -246q0 -196 -121.5 -298t-354.5 -102h-452h-128zM391 372h325q104 0 156.5 45t52.5 137q0 80 -53.5 119.5t-160.5 39.5h-320v-341zM391 928h306 q100 0 149.5 37.5t49.5 112.5q0 66 -52 98.5t-158 32.5h-295v-281z" />
<glyph unicode="C" horiz-adv-x="1287" d="M78 782q0 314 159 498t429 184q227 0 377 -123.5t176 -333.5h-268q-13 103 -89 164t-194 61q-149 0 -233 -118.5t-84 -329.5q0 -205 84 -321t233 -116q118 0 194 67.5t89 183.5h268q-24 -222 -173.5 -352.5t-379.5 -130.5q-270 0 -429 180t-159 487z" />
<glyph unicode="D" horiz-adv-x="1287" d="M136 150v1279h133h414q264 0 401 -155t137 -453q0 -329 -142.5 -500t-417.5 -171h-392h-133zM403 370h225q163 0 244.5 110t81.5 330q0 200 -76 299.5t-228 99.5h-247v-839z" />
<glyph unicode="E" horiz-adv-x="1188" d="M136 150v1279h941v-113v-114h-674v-272h625v-109v-111h-625v-333h704v-113v-114h-971z" />
<glyph unicode="F" horiz-adv-x="1088" d="M136 150v1279h910v-113v-114h-643v-291h560v-109v-111h-560v-541h-133h-134z" />
<glyph unicode="G" horiz-adv-x="1386" d="M78 782q0 314 170.5 498t461.5 184q233 0 384 -116.5t176 -315.5h-268q-10 84 -93.5 147t-184.5 63q-174 0 -272.5 -120.5t-98.5 -334.5q0 -218 94.5 -331.5t276.5 -113.5h-1q155 0 242 119q48 67 70 157v3h-301v220h536v-690h-178l-26 165l-16 -21q-135 -180 -365 -180 h1q-280 0 -444 180t-164 487z" />
<glyph unicode="H" horiz-adv-x="1287" d="M126 150v1279h133h134v-479h500v479h134h134v-1279h-134h-134v579h-500v-579h-133h-134z" />
<glyph unicode="I" horiz-adv-x="495" d="M114 150v1279h133h134v-1279h-133h-134z" />
<glyph unicode="J" d="M39 563v77h254v-77v-17q0 -103 35 -156q37 -56 120 -56q79 0 113.5 41t34.5 134v920h133h134v-920q0 -195 -104.5 -294.5t-307.5 -99.5q-217 0 -318 109q-94 103 -94 310v29z" />
<glyph unicode="K" horiz-adv-x="1287" d="M155 150v1279h133h134v-530l490 530h170h171l-511 -523l545 -756h-175h-175l-385 563l-130 -133v-430h-133h-134z" />
<glyph unicode="L" horiz-adv-x="1088" d="M136 150v1279h133h134v-1052h636v-113v-114h-903z" />
<glyph unicode="M" horiz-adv-x="1484" d="M123 150v1279h195h196l233 -1014l230 1014h193h193v-1279h-124h-125v1075l-240 -1075h-131h-131l-240 1099v-1099h-124h-125z" />
<glyph unicode="N" horiz-adv-x="1287" d="M123 150v1279h140h140l513 -897v897h125h125v-1279h-133h-133l-528 921v-921h-124h-125z" />
<glyph unicode="O" horiz-adv-x="1386" d="M78 782q0 314 166.5 498t448.5 184q283 0 449 -184t166 -498q0 -307 -166 -487t-449 -180q-282 0 -448.5 180t-166.5 487zM345 784q0 -208 92 -325t256 -117q163 0 255.5 117t92.5 325q0 213 -92.5 333t-255.5 120t-255.5 -120t-92.5 -333z" />
<glyph unicode="P" horiz-adv-x="1188" d="M136 150v1279h133h402q218 0 332 -102.5t114 -297.5q0 -207 -114 -314.5t-332 -107.5h-75q-108 0 -193 -2v-455h-133h-134zM403 827h223q112 0 168 49.5t56 149.5q0 91 -56 137t-168 46h-223v-382z" />
<glyph unicode="Q" horiz-adv-x="1386" d="M78 782q0 314 166.5 498t448.5 184q283 0 449 -184t166 -498q0 -277 -135 -450l139 -131l-136 -144l-153 142q-137 -84 -330 -84q-282 0 -448.5 180t-166.5 487zM345 784q0 -208 92 -325t256 -117h5q77 0 138 29l-131 121l135 143l140 -127q61 107 61 276 q0 213 -92.5 333t-255.5 120t-255.5 -120t-92.5 -333z" />
<glyph unicode="R" horiz-adv-x="1287" d="M136 150v1279h133h511q183 0 295 -98t112 -258q0 -184 -125 -270q-33 -22 -75 -38q24 -9 43 -21q110 -65 114 -219l6 -210q2 -62 13 -88.5t44 -41.5v-34h-295q-11 20 -18.5 85.5t-8.5 141.5l-2 118q-2 86 -51 122.5t-163 36.5h-266v-505h-133h-134zM403 870h310 q103 0 155 42.5t52 127.5q0 84 -49.5 126.5t-147.5 42.5h-320v-339z" />
<glyph unicode="S" horiz-adv-x="1188" d="M70 547h257q4 -102 74 -157t194 -55q128 0 200 41.5t72 114.5q0 72 -52 106q-50 34 -216 71q-304 68 -407 147q-102 78 -102 244q0 186 135 295.5t365 109.5q215 0 349.5 -113.5t149.5 -305.5h-260q-7 92 -80 145.5t-190 53.5q-102 0 -159.5 -45t-57.5 -125q0 -57 60 -89 q59 -31 251 -74q280 -62 374 -144q94 -81 94 -260q0 -180 -142 -286t-384 -106q-243 0 -379.5 112.5t-145.5 319.5z" />
<glyph unicode="T" horiz-adv-x="1088" d="M25 1202v113v114h1040v-113v-114h-386v-1052h-134h-133v1052h-387z" />
<glyph unicode="U" horiz-adv-x="1287" d="M128 632v797h133h134v-806q0 -137 62 -206t188 -69q134 0 191 63.5t57 211.5v806h134h134v-797q0 -274 -121 -395.5t-395 -121.5q-263 0 -389.5 126.5t-127.5 390.5z" />
<glyph unicode="V" horiz-adv-x="1188" d="M34 1429h142h142l281 -977l280 977h137h138l-433 -1279h-127h-127z" />
<glyph unicode="W" horiz-adv-x="1682" d="M29 1429h139h139l213 -936l183 936h142h142l186 -928l212 928h135h135l-356 -1279h-127h-127l-205 1007l-201 -1007h-127h-127z" />
<glyph unicode="X" horiz-adv-x="1188" d="M25 150l414 647l-386 632h158h158l225 -413l233 413h154h154l-389 -612l417 -667h-159h-160l-251 440l-252 -440h-157h-159z" />
<glyph unicode="Y" horiz-adv-x="1188" d="M27 1429h158h160l266 -555l249 555h152h151l-423 -793v-486h-133h-134v481z" />
<glyph unicode="Z" horiz-adv-x="1088" d="M44 150v112v112l663 828h-641v113v114h978v-105v-106l-675 -841h673v-113v-114h-998z" />
<glyph unicode="[" horiz-adv-x="593" d="M112 -202v1640h439v-172h-216v-1297h216v-171h-439z" />
<glyph unicode="\" horiz-adv-x="495" d="M-58 1464h209l402 -1349h-208z" />
<glyph unicode="]" horiz-adv-x="593" d="M43 -31h215v1297h-215v172h438v-1640h-438v171z" />
<glyph unicode="^" horiz-adv-x="1041" d="M110 728l320 663h90h91l319 -663h-198l-212 464l-211 -464h-199z" />
<glyph unicode="_" d="M0 19h991v-92h-991v92z" />
<glyph unicode="`" horiz-adv-x="593" d="M-40 1485h273l168 -258h-180z" />
<glyph unicode="a" d="M51 399q0 129 72.5 207t210.5 98l165 23q64 9 107 29q18 9 28 31.5t7 46.5q-5 40 -41 62q-42 27 -122 27q-72 0 -112 -34.5t-42 -98.5h-240q8 166 113.5 249t308.5 83q177 0 279 -74.5t102 -203.5v-529q0 -63 10.5 -89t42.5 -40v-1v-34h-135h-135q-17 57 -22 112l-1 2 q-117 -139 -304 -139q-132 0 -212 75t-80 198zM303 425q0 -57 30.5 -89t84.5 -32q121 0 192 84q14 17 23 49q10 32 10 63v108q-44 -24 -115 -39l-92 -17q-65 -12 -99 -44.5t-34 -82.5z" />
<glyph unicode="b" horiz-adv-x="1088" d="M109 150v1279h124h125v-456l6 7q101 142 266 142q180 0 289.5 -133t109.5 -351q0 -230 -109.5 -371t-289.5 -141q-165 0 -266 132l-11 14v-122h-244zM346 607q0 -130 57 -203q55 -73 156 -73q100 0 157 75t57 209q0 137 -57 214t-157 77t-156.5 -79t-56.5 -220z" />
<glyph unicode="c" d="M61 618q0 231 121.5 367.5t327.5 136.5q183 0 299.5 -101t124.5 -265h-255q-3 70 -49.5 113.5t-119.5 43.5q-94 0 -143 -75.5t-49 -219.5q0 -141 49 -214.5t143 -73.5q68 0 115 47t54 124h255q-20 -177 -132 -276t-292 -99q-215 0 -332 127.5t-117 364.5z" />
<glyph unicode="d" horiz-adv-x="1088" d="M61 638q0 218 110.5 351t290.5 133q161 0 259 -136l11 -14v457h124h125v-1279h-121h-121v121l-4 -6q-103 -139 -271 -139q-181 0 -292 141t-111 371zM318 615q0 -134 56 -209t156 -75q101 0 157.5 79t56.5 220q0 130 -56.5 203t-156.5 73t-156.5 -77t-56.5 -214z" />
<glyph unicode="e" d="M41 638q0 227 119 355.5t331 128.5q216 0 333 -131t117 -373q1 -7 1 -14q0 -21 -5 -42h-645q9 -113 50 -168q52 -70 174 -70q56 0 104.5 32t58.5 78h254q-33 -145 -150 -226.5t-292 -81.5q-216 0 -333 133t-117 379zM295 721h386q-8 85 -45 133q-48 63 -149 63 q-96 0 -147 -74q-31 -47 -45 -122z" />
<glyph unicode="f" horiz-adv-x="593" d="M17 922v175h139v79q0 136 72.5 203t220.5 67h16q56 0 101 -6v-199h-79q-49 0 -65.5 -20t-16.5 -82v-42h161v-175h-161v-772h-124h-125v772h-139z" />
<glyph unicode="g" horiz-adv-x="1088" d="M71 628q0 222 110.5 358t290.5 136q160 0 247 -116q17 -22 31 -48v139h235v-897q0 -224 -111 -330.5t-346 -106.5q-193 0 -307 75t-122 208h272q3 -48 44.5 -70.5t127.5 -22.5q105 0 151 51t46 169v116l-20 -30q-82 -114 -237 -114q-185 0 -298.5 132.5t-113.5 350.5z M328 625q0 -130 55 -202.5t151 -72.5q98 0 153.5 74t55.5 204q0 131 -55.5 204.5t-152.5 73.5t-152 -74.5t-55 -206.5z" />
<glyph unicode="h" horiz-adv-x="1088" d="M116 150v1279h124h125v-453l20 28q93 118 268 118q150 0 235 -89t85 -246v-637h-125h-125v592q0 87 -38 129.5t-116 42.5q-98 0 -151 -59t-53 -171v-534h-124h-125z" />
<glyph unicode="i" horiz-adv-x="495" d="M123 1207v231h254v-231h-254zM125 150v947h125h125v-947h-124h-126z" />
<glyph unicode="j" horiz-adv-x="495" d="M5 -31l31 -1q50 0 67.5 16t17.5 62v1051h124h126v-1051q0 -154 -66.5 -215.5t-231.5 -61.5l-68 1v199zM119 1207v231h254v-231h-254z" />
<glyph unicode="k" d="M123 150v1279h124h125v-691l312 359h154h154l-342 -359l350 -588h-147h-149l-228 407l-104 -109v-298h-124h-125z" />
<glyph unicode="l" horiz-adv-x="495" d="M123 150v1279h124h125v-1279h-124h-125z" />
<glyph unicode="m" horiz-adv-x="1584" d="M114 150v947h118h119v-153q17 40 42 72q83 106 240 106q126 0 206 -85q31 -32 49 -71l31 50q77 106 225 106q154 0 241 -91.5t87 -253.5v-627h-124h-126v556q0 106 -34.5 157t-107.5 51q-79 0 -120 -48.5t-41 -138.5v-577h-125h-125v597q0 85 -36.5 126t-112.5 41 q-75 0 -115.5 -48.5t-40.5 -138.5v-577h-125h-125z" />
<glyph unicode="n" horiz-adv-x="1088" d="M116 150v947h118h119v-141q15 26 32 48q93 118 268 118q150 0 235 -89t85 -246v-637h-125h-125v592q0 87 -38 129.5t-116 42.5q-98 0 -151 -59t-53 -171v-534h-124h-125z" />
<glyph unicode="o" horiz-adv-x="1088" d="M61 618q0 231 131 367.5t353 136.5q223 0 353.5 -136.5t130.5 -367.5q0 -226 -130.5 -359t-353.5 -133q-222 0 -353 133t-131 359zM318 621q0 -140 57.5 -213.5t169.5 -73.5q111 0 169.5 73.5t58.5 213.5q0 143 -58.5 217.5t-169.5 74.5q-112 0 -169.5 -74.5 t-57.5 -217.5z" />
<glyph unicode="p" horiz-adv-x="1088" d="M110 -221v1318h119h119v-141l17 24q100 142 266 142q180 0 289 -133t109 -351q0 -230 -109 -371t-289 -141q-165 0 -266 132l-5 7v-486h-124h-126zM348 607q0 -130 56 -203t155 -73q100 0 157 75t57 209q0 137 -56.5 214t-156.5 77t-156 -79t-56 -220z" />
<glyph unicode="q" horiz-adv-x="1088" d="M61 608q0 232 115 373t302 141q154 0 248 -136q16 -22 27 -45v156h230v-1318h-124h-126v482q-100 -135 -266 -135h-2q-181 0 -292.5 132.5t-111.5 349.5zM318 615q0 -134 56.5 -209t156.5 -75q101 0 158 79t57 220q0 130 -57 203t-157 73q-101 0 -157.5 -77t-56.5 -214z " />
<glyph unicode="r" horiz-adv-x="693" d="M114 150v947h118h119v-170q14 28 30 54q88 141 227 141l57 -1v-255q-33 3 -75 3q-114 0 -170 -56.5t-56 -170.5v-492h-125h-125z" />
<glyph unicode="s" d="M53 453h254q3 -65 58 -102t150 -37q75 0 117 25.5t42 71.5q0 32 -41 55q-41 22 -143 44q-240 54 -321 114q-81 59 -81 184q0 141 105 227.5t276 86.5q193 0 311.5 -85t118.5 -224h-247q0 55 -45.5 88t-120.5 33q-72 0 -112.5 -25t-40.5 -69q0 -31 46 -54q46 -22 161 -48 q230 -51 307 -112q78 -61 78 -192q0 -139 -113 -223.5t-297 -84.5q-218 0 -336 83.5t-126 243.5z" />
<glyph unicode="t" horiz-adv-x="593" d="M17 922v175h132v254h249v-254h153v-175h-153v-538q0 -33 20 -43.5t81 -10.5h52v-185q-63 -5 -154 -5q-133 0 -190.5 47t-57.5 155v580h-132z" />
<glyph unicode="u" horiz-adv-x="1088" d="M117 459v638h125h125v-593q0 -87 37.5 -128.5t114.5 -41.5q98 0 150 59t52 170v534h125h125v-947h-118h-120v142q-13 -26 -31 -49q-92 -117 -267 -117q-150 0 -234 88t-84 245z" />
<glyph unicode="v" d="M23 1097h138h138l202 -706l204 706h131h131l-341 -947h-130h-131z" />
<glyph unicode="w" horiz-adv-x="1386" d="M17 1097h133h132l151 -696l142 696h124h126l140 -697l154 697h125h126l-274 -947h-127h-128l-145 705l-149 -705h-127h-128z" />
<glyph unicode="x" d="M27 150l322 484l-309 463h151h150l159 -280l159 280h146h146l-308 -468l321 -479h-153h-154l-165 289l-164 -289h-151h-150z" />
<glyph unicode="y" d="M17 1097h138h138l206 -703l200 703h131h130l-339 -967q-82 -239 -140 -300t-208 -61l-119 3v200q9 -4 48 -4q100 0 130 41q19 26 39 108z" />
<glyph unicode="z" horiz-adv-x="891" d="M36 150v97v97l479 548l6 7h-450v98v100h762v-102v-103l-473 -538h495v-101v-103h-819z" />
<glyph unicode="{" horiz-adv-x="693" d="M85 539v158q115 15 141 50t26 175v231q0 161 96 229.5t303 55.5v-160q-121 6 -149.5 -22t-28.5 -155v-232q0 -139 -83 -201q-39 -29 -106 -51q67 -19 106 -49q83 -62 83 -201v-232q0 -127 28.5 -155t149.5 -21v-160q-207 -14 -303 54.5t-96 229.5v231q0 140 -26 175 t-141 50z" />
<glyph unicode="|" horiz-adv-x="499" d="M150 -295v1781h199v-1781h-199z" />
<glyph unicode="}" horiz-adv-x="693" d="M43 -41q121 -7 149 21t28 155v232q0 139 84 201q38 30 105 49q-67 22 -105 51q-84 62 -84 201v232q0 127 -28 155t-149 22v160q207 13 302.5 -55.5t95.5 -229.5v-231q0 -140 26 -175t141 -50v-158q-115 -15 -141 -50t-26 -175v-231q0 -161 -96 -230q-95 -68 -302 -54v160 z" />
<glyph unicode="~" horiz-adv-x="1041" d="M109 598q30 71 90 113.5t132 42.5q45 0 96 -15.5t131 -52.5q54 -25 95.5 -40.5t58.5 -15.5q41 0 78 31.5t77 100.5l65 -159q-39 -71 -99 -113t-123 -42q-48 0 -99 17.5t-128 62.5q-36 20 -79 31.5t-81 11.5q-42 0 -85 -38t-64 -93z" />
<glyph horiz-adv-x="1392" d="M76 262v510h175q60 0 91 -7q97 -23 136 -123q20 -54 20 -122q0 -110 -49 -177q-40 -56 -107 -72q-36 -9 -83 -9h-183zM143 322h109q89 0 125 36q51 51 51 163q0 146 -90 181q-27 10 -87 10h-108v-390zM559 262v510h368v-60h-301v-156h282v-60h-282v-174h314v-60h-381z M1004 262v510h68v-450h250v-60h-318z" />
<glyph unicode="&#xa9;" horiz-adv-x="1313" d="M-19 789q0 292 192.5 484.5t483.5 192.5q290 0 483.5 -192.5t193.5 -484.5q0 -290 -193 -483t-484 -193q-292 0 -484 193t-192 483zM176 789q0 -221 137.5 -368t343.5 -147q207 0 344.5 147t137.5 368q0 222 -137 369.5t-345 147.5q-207 0 -344 -147.5t-137 -369.5z M312 786q0 179 100 284.5t269 105.5q132 0 219 -74.5t102 -200.5h-159q-7 55 -50.5 87t-111.5 32q-87 0 -136 -62t-49 -171q0 -105 50 -166t135 -61q64 0 107.5 34t54.5 93h159q-25 -131 -111.5 -207t-209.5 -76q-166 0 -267.5 105t-101.5 277z" />
<glyph unicode="&#xab;" horiz-adv-x="880" d="M66 407q84 97 164.5 189.5t165.5 189.5h65l-219 -378l219 -386h-68q-82 97 -163 192.5t-164 192.5zM363 407q84 97 164.5 189.5t164.5 189.5h64l-217 -378l224 -386h-72q-82 97 -164 192.5t-164 192.5z" />
<glyph unicode="&#xad;" horiz-adv-x="593" d="M48 532v235h497v-235h-497z" />
<glyph unicode="&#xae;" horiz-adv-x="1313" d="M-19 789q0 291 192.5 483.5t482.5 192.5q291 0 483.5 -192.5t192.5 -483.5q0 -290 -192.5 -482.5t-483.5 -192.5t-483 192.5t-192 482.5zM173 789q0 -222 138 -369.5t345 -147.5q208 0 346 147.5t138 369.5q0 223 -137.5 371t-346.5 148q-208 0 -345.5 -148t-137.5 -371z M367 426v728h79h204q139 0 211.5 -52.5t72.5 -154.5q0 -117 -67 -169q-38 -29 -100 -42l179 -310h-90h-90l-168 300h-72v-300h-79h-80zM526 851h124q63 0 93.5 23.5t30.5 70.5q0 43 -30.5 64t-93.5 21h-124v-179z" />
<glyph unicode="&#xb0;" horiz-adv-x="1024" d="M52 637l457 457l456 -457l-456 -456zM128 637l381 -380l380 380l-380 381zM292 637l217 218l217 -218l-217 -217z" />
<glyph unicode="&#xb1;" horiz-adv-x="901" d="M48 752l201 145l201 146l201 -146l201 -145l-77 -237l-76 -236h-497l-77 236zM167 533l142 -103l141 -102l142 102l141 103l-54 167l-54 166h-350l-54 -166zM294 671l78 56l78 57l78 -57l79 -56l-31 -92l-29 -92h-193z" />
<glyph unicode="&#xb6;" horiz-adv-x="891" d="M61 1138q0 65 24.5 120t66.5 97q47 40 109 61.5t137 21.5h432v-59h-106v-1229h-80v1229h-173v-1229h-82v690q-155 6 -242 87q-86 81 -86 211z" />
<glyph unicode="&#xb7;" horiz-adv-x="1082" d="M74 581l212 198l198 -198l-198 -198zM351 317l198 199l201 -199l-201 -219zM351 841l198 215l196 -215l-196 -198zM613 581l198 198l214 -198l-214 -205z" />
<glyph unicode="&#xba;" horiz-adv-x="983" d="M26 654l113 196l114 197h454l114 -197l113 -196l-113 -197l-114 -197h-454l-114 197zM116 654l91 -158l91 -157h364l90 157l91 158l-91 157l-90 157h-364zM243 654l59 103l59 102h238l59 -102l59 -103l-118 -206h-238z" />
<glyph unicode="&#xbb;" horiz-adv-x="880" d="M110 22l225 386q-54 94 -108 189t-109 189h65q81 -95 163.5 -189.5t165.5 -189.5q-84 -99 -165 -193t-163 -192h-74zM413 22l219 386q-54 94 -109.5 189t-109.5 189h65q83 -95 165.5 -189.5t164.5 -189.5q-83 -99 -163 -193t-164 -192h-68z" />
<glyph unicode="&#xbf;" horiz-adv-x="774" d="M77 304v675h675v-675h-675z" />
<glyph unicode="&#xd7;" horiz-adv-x="1041" d="M71 297l305 305l-305 304l145 144l304 -304l305 304l144 -144l-304 -304l304 -305l-144 -144l-305 304l-304 -304z" />
<glyph unicode="&#xe0;" d="M51 399q0 129 72.5 207t210.5 98l165 23q64 9 107 29q18 9 28 31.5t7 46.5q-5 40 -41 62q-42 27 -122 27q-72 0 -112 -34.5t-42 -98.5h-240q8 166 113.5 249t308.5 83q177 0 279 -74.5t102 -203.5v-529q0 -63 10.5 -89t42.5 -40v-1v-34h-135h-135q-17 57 -22 112l-1 2 q-117 -139 -304 -139q-132 0 -212 75t-80 198zM168 1485h273l168 -258h-180zM303 425q0 -57 30.5 -89t84.5 -32q121 0 192 84q14 17 23 49q10 32 10 63v108q-44 -24 -115 -39l-92 -17q-65 -12 -99 -44.5t-34 -82.5z" />
<glyph unicode="&#xe1;" d="M51 399q0 129 72.5 207t210.5 98l165 23q64 9 107 29q18 9 28 31.5t7 46.5q-5 40 -41 62q-42 27 -122 27q-72 0 -112 -34.5t-42 -98.5h-240q8 166 113.5 249t308.5 83q177 0 279 -74.5t102 -203.5v-529q0 -63 10.5 -89t42.5 -40v-1v-34h-135h-135q-17 57 -22 112l-1 2 q-117 -139 -304 -139q-132 0 -212 75t-80 198zM303 425q0 -57 30.5 -89t84.5 -32q121 0 192 84q14 17 23 49q10 32 10 63v108q-44 -24 -115 -39l-92 -17q-65 -12 -99 -44.5t-34 -82.5zM319 1227l191 258h273l-284 -258h-180z" />
<glyph unicode="&#xe7;" d="M61 618q0 231 121.5 367.5t327.5 136.5q183 0 299.5 -101t124.5 -265h-255q-3 70 -49.5 113.5t-119.5 43.5q-94 0 -143 -75.5t-49 -219.5q0 -141 49 -214.5t143 -73.5q68 0 115 47t54 124h255q-20 -177 -132 -276t-292 -99q-215 0 -332 127.5t-117 364.5zM250 -209l39 83 q43 -14 79.5 -21.5t57.5 -7.5q35 0 59.5 20.5t24.5 49.5t-19.5 46.5t-50.5 17.5q-14 0 -32.5 -3.5t-38.5 -10.5l-38 36l98 148h103l-62 -95l49 6q71 0 114 -38.5t43 -101.5q0 -81 -60 -128.5t-162 -47.5q-49 0 -104 12.5t-100 34.5z" />
<glyph unicode="&#xe8;" d="M41 638q0 227 119 355.5t331 128.5q216 0 333 -131t117 -373q2 -28 -4 -56h-645q9 -113 50 -168q52 -70 174 -70q56 0 104.5 32t58.5 78h254q-33 -145 -150 -226.5t-292 -81.5q-216 0 -333 133t-117 379zM183 1485h273l168 -258h-180zM295 721h386q-8 85 -45 133 q-48 63 -149 63q-96 0 -147 -74q-31 -47 -45 -122z" />
<glyph unicode="&#xe9;" d="M41 638q0 227 119 355.5t331 128.5q216 0 333 -131t117 -373q2 -28 -4 -56h-645q9 -113 50 -168q52 -70 174 -70q56 0 104.5 32t58.5 78h254q-33 -145 -150 -226.5t-292 -81.5q-216 0 -333 133t-117 379zM295 721h386q-8 85 -45 133q-48 63 -149 63q-96 0 -147 -74 q-31 -47 -45 -122zM403 1227l168 258h273l-261 -258h-180z" />
<glyph unicode="&#xea;" d="M41 638q0 227 119 355.5t331 128.5q216 0 333 -131t117 -373q2 -28 -4 -56h-645q9 -113 50 -168q52 -70 174 -70q56 0 104.5 32t58.5 78h254q-33 -145 -150 -226.5t-292 -81.5q-216 0 -333 133t-117 379zM196 1227l202 258h111h111l202 -258h-200l-113 145l-113 -145 h-200zM295 721h386q-8 85 -45 133q-48 63 -149 63q-96 0 -147 -74q-31 -47 -45 -122z" />
<glyph unicode="&#xf4;" horiz-adv-x="1088" d="M61 618q0 231 131 367.5t353 136.5q223 0 353.5 -136.5t130.5 -367.5q0 -226 -130.5 -359t-353.5 -133q-222 0 -353 133t-131 359zM231 1227l202 258h112h111l202 -258h-200l-113 145l-113 -145h-201zM318 621q0 -140 57.5 -213.5t169.5 -73.5q111 0 169.5 73.5 t58.5 213.5q0 143 -58.5 217.5t-169.5 74.5q-112 0 -169.5 -74.5t-57.5 -217.5z" />
<glyph unicode="&#xf7;" horiz-adv-x="1041" d="M71 498v207h898v-207h-898zM362 230q0 66 46 112t112 46t112.5 -46t46.5 -112t-46.5 -112t-112.5 -46t-112 46t-46 112zM362 973q0 66 46 112t112 46t112.5 -46t46.5 -112t-46.5 -112t-112.5 -46t-112 46t-46 112z" />
<glyph unicode="&#x153;" horiz-adv-x="1682" d="M61 618q0 231 125 368q125 136 339 136q201 -1 324 -121q119 120 325 121q216 0 333 -131t117 -373q2 -28 -4 -56h-630q9 -113 51 -168q52 -70 175 -70q50 0 93 32t53 78h254q-33 -145 -150 -226.5t-292 -81.5q-206 -1 -322 121q-124 -122 -327 -121q-214 0 -339 133 t-125 359zM318 621q0 -140 55 -213.5t161 -73.5t161.5 73.5t55.5 213.5q0 143 -56 218q-55 74 -161 74t-161 -74.5t-55 -217.5zM994 721h388q-8 85 -45 133q-49 63 -150 63q-98 0 -149 -74q-32 -47 -44 -122z" />
<glyph unicode="&#x60c;" horiz-adv-x="532" d="M127.5 236.5q-62.5 147.5 34 335.5t284.5 224q-263 -378 -2 -432l-58 -268q-196 -7 -258.5 140.5z" />
<glyph unicode="&#x61b;" horiz-adv-x="613" d="M169 223q0 32 12 60.5t33 49.5t49.5 33.5t61.5 12.5t61.5 -12.5t49.5 -33.5t33 -49.5t12 -60.5q0 -33 -12 -61.5t-33 -49.5t-49.5 -33.5t-61.5 -12.5t-61.5 12.5t-49.5 33.5t-33 49.5t-12 61.5zM184.5 572q-67.5 114 16 276t244.5 194q-227 -327 -2 -373l-62 -177 q-129 -34 -196.5 80z" />
<glyph unicode="&#x61f;" horiz-adv-x="1001" d="M96 1006q14 130 67 218t138.5 135t201.5 53t257 -28q72 -18 109 -50t49 -68.5t2 -73t-32.5 -64t-53.5 -41t-62 -3.5q-31 9 -65.5 19t-70 16t-69 5.5t-61.5 -12t-48 -35.5t-29 -66q5 -40 17 -66t28.5 -42.5t36.5 -26t40.5 -17.5t40 -16t35.5 -22q38 -15 61 -43.5t29.5 -62 t-3 -67.5t-36 -60.5t-70.5 -41t-105 -8.5q-33 9 -74.5 23.5t-85.5 38t-87 58t-77 83.5t-56.5 114.5t-26.5 150.5zM347 240q0 36 13.5 68t37 55.5t54.5 37t67 13.5q37 0 69 -13.5t55.5 -37t37 -55.5t13.5 -68t-13.5 -67.5t-37 -55t-55.5 -37.5t-69 -14q-36 0 -67 14 t-54.5 37.5t-37 55t-13.5 67.5z" />
<glyph unicode="&#x621;" horiz-adv-x="852" d="M53 189v220q0 19 7.5 36.5t20 30t29.5 20t37 7.5h55v299q0 77 17.5 131.5t51 89.5t82.5 51.5t113 16.5h233q39 0 66.5 -27t27.5 -67v-125q0 -20 -7.5 -37t-20 -29.5t-30 -20t-36.5 -7.5h-184v-275h184q19 0 36.5 -7.5t30 -20t20 -30t7.5 -36.5v-220q0 -20 -7.5 -37 t-20 -29.5t-30 -20t-36.5 -7.5h-552q-20 0 -37 7.5t-29.5 20t-20 29.5t-7.5 37z" />
<glyph unicode="&#x622;" horiz-adv-x="438" d="M51 1487v38q0 12 8.5 20t20.5 8h303q11 0 19.5 -8t8.5 -20v-38q0 -11 -8.5 -19.5t-19.5 -8.5h-303q-12 0 -20.5 8.5t-8.5 19.5zM67 184v1107q0 19 7.5 36.5t20 30t29.5 20t37 7.5h125q19 0 36.5 -7.5t30 -20t20 -30t7.5 -36.5v-1107q0 -20 -7.5 -37t-20 -29.5t-30 -20 t-36.5 -7.5h-125q-20 0 -37 7.5t-29.5 20t-20 29.5t-7.5 37z" />
<glyph unicode="&#x623;" horiz-adv-x="438" d="M67 184v1107q0 19 7.5 36.5t20 30t29.5 20t37 7.5h125q19 0 36.5 -7.5t30 -20t20 -30t7.5 -36.5v-1107q0 -20 -7.5 -37t-20 -29.5t-30 -20t-36.5 -7.5h-125q-20 0 -37 7.5t-29.5 20t-20 29.5t-7.5 37zM73 1532v49q0 15 10.5 26.5t26.5 11.5h22v76q0 61 26.5 87.5 t76.5 26.5h92q15 0 25.5 -10.5t10.5 -26.5v-49q0 -15 -10.5 -26t-25.5 -11h-73v-67h73q15 0 25.5 -11.5t10.5 -26.5v-49q0 -15 -10.5 -26t-25.5 -11h-217q-16 0 -26.5 11t-10.5 26z" />
<glyph unicode="&#x624;" horiz-adv-x="882" d="M64 385v417q0 77 17.5 131.5t51 89.5t83 51.5t114.5 16.5h222q64 0 114 -16.5t84 -51.5t51 -89.5t17 -131.5l-2 -626q0 -139 -45.5 -243.5t-128.5 -171.5t-200 -95t-259 -13q-38 4 -66 29.5t-28 64.5v125q0 20 7.5 37t20.5 30t30 20t36 7q45 0 97.5 -2t99.5 7.5t82 37 t45 86.5h-177q-129 0 -197.5 68t-68.5 222zM224 1272v71q0 21 15.5 37t38.5 16h31v109q0 87 37.5 125t109.5 38h132q21 0 36 -15t15 -38v-70q0 -22 -15 -37.5t-36 -15.5h-104v-96h104q21 0 36 -16t15 -37v-71q0 -23 -15 -38t-36 -15h-310q-23 0 -38.5 15t-15.5 38zM378 503 h127v275h-127v-275z" />
<glyph unicode="&#x625;" horiz-adv-x="438" d="M67 184v1107q0 19 7.5 36.5t20 30t29.5 20t37 7.5h125q19 0 36.5 -7.5t30 -20t20 -30t7.5 -36.5v-1107q0 -20 -7.5 -37t-20 -29.5t-30 -20t-36.5 -7.5h-125q-20 0 -37 7.5t-29.5 20t-20 29.5t-7.5 37zM75 -245q0 15 10.5 26t26.5 11h22v77q0 61 26.5 87.5t76.5 26.5h92 q15 0 25.5 -11t10.5 -26v-50q0 -14 -10.5 -25.5t-25.5 -11.5h-73v-67h73q15 0 25.5 -11t10.5 -26v-50q0 -15 -10.5 -25.5t-25.5 -10.5h-217q-16 0 -26.5 10.5t-10.5 25.5v50z" />
<glyph unicode="&#x626;" horiz-adv-x="1166" d="M48 274q0 10 0.5 36.5t0.5 63.5v84v96q0 19 7.5 36.5t20 30t29.5 20t36 7.5h126q19 0 36 -7.5t30 -20.5t20.5 -30t7.5 -36v-277q-1 -51 5.5 -105t30 -99.5t69 -76t123.5 -35.5q34 -2 67.5 6t61.5 25.5t47.5 43.5t25.5 59q-70 0 -120.5 20t-83 57.5t-48 91.5t-15.5 121 v322q0 154 68.5 222t197.5 68l208 -1q19 0 36.5 -7.5t30 -20t20 -30t7.5 -36.5v-126q0 -19 -7.5 -36t-20 -30t-30 -20.5t-36.5 -7.5l-160 1v-180h127q32 1 59 -14.5t47.5 -44t33.5 -67t17 -83.5q8 -85 -6 -166.5t-46.5 -154t-82.5 -133.5t-115 -104.5t-142.5 -67.5 t-165.5 -22q-146 3 -245 54.5t-160 137.5t-87 198.5t-25 237.5zM60 816v70q0 22 15 37.5t38 15.5h31v111q0 86 38 123.5t109 37.5h132q22 0 36.5 -15t14.5 -38v-69q0 -22 -14.5 -37.5t-36.5 -15.5h-105v-97h105q22 0 36.5 -15.5t14.5 -37.5v-70q0 -23 -14.5 -38t-36.5 -15 h-310q-23 0 -38 15t-15 38z" />
<glyph unicode="&#x627;" horiz-adv-x="438" d="M67 184v1107q0 19 7.5 36.5t20 30t29.5 20t37 7.5h125q19 0 36.5 -7.5t30 -20t20 -30t7.5 -36.5v-1107q0 -20 -7.5 -37t-20 -29.5t-30 -20t-36.5 -7.5h-125q-20 0 -37 7.5t-29.5 20t-20 29.5t-7.5 37z" />
<glyph unicode="&#x628;" horiz-adv-x="1299" d="M52 385v169q0 19 7.5 36t20 29.5t29.5 20t37 7.5h125q20 0 37 -7.5t30 -20t20 -29.5t7 -36v-51h563v493q0 19 7.5 36t20.5 29.5t30 20t36 7.5h126q19 0 36.5 -7.5t30 -20t20 -29.5t7.5 -36l-1 -611q0 -154 -68 -222t-196 -68h-659q-128 0 -197 68t-69 222zM480 -181 q0 32 12.5 60.5t33.5 49.5t49.5 33.5t60.5 12.5q33 0 61.5 -12.5t49.5 -33.5t33.5 -49.5t12.5 -60.5q0 -33 -12.5 -61.5t-33.5 -50t-49.5 -34t-61.5 -12.5q-32 0 -60.5 12.5t-49.5 34t-33.5 50t-12.5 61.5z" />
<glyph unicode="&#x629;" horiz-adv-x="886" d="M70 385v417q0 154 68 221.5t196 67.5h223q64 0 113 -16.5t83 -51.5t51.5 -89.5t17.5 -131.5v-417q0 -154 -68.5 -222t-195.5 -68h-224q-128 0 -196 68t-68 222zM105 1378q0 32 12.5 60.5t34 49.5t50 33.5t60.5 12.5t60.5 -12.5t49.5 -33.5t33.5 -49.5t12.5 -60.5 q0 -33 -12.5 -61.5t-33.5 -50t-49.5 -34t-60.5 -12.5t-60.5 12.5t-50 34t-34 50t-12.5 61.5zM382 503h127v275h-127v-275zM464 1378q0 32 12.5 60.5t33.5 49.5t49.5 33.5t60.5 12.5t60.5 -12.5t50 -33.5t34 -49.5t12.5 -60.5q0 -33 -12.5 -61.5t-34 -50t-50 -34t-60.5 -12.5 t-60.5 12.5t-49.5 34t-33.5 50t-12.5 61.5z" />
<glyph unicode="&#x62a;" horiz-adv-x="1299" d="M52 385v169q0 19 7.5 36t20 29.5t29.5 20t37 7.5h125q20 0 37 -7.5t30 -20t20 -29.5t7 -36v-51h563v493q0 19 7.5 36t20.5 29.5t30 20t36 7.5h126q19 0 36.5 -7.5t30 -20t20 -29.5t7.5 -36l-1 -611q0 -154 -68 -222t-196 -68h-659q-128 0 -197 68t-69 222zM314 1364 q0 32 12.5 60.5t33.5 49.5t49.5 33.5t61.5 12.5q32 0 60.5 -12.5t49.5 -33.5t33 -49.5t12 -60.5t-12 -61t-33 -50.5t-49.5 -34t-60.5 -12.5q-33 0 -61.5 12.5t-49.5 34t-33.5 50.5t-12.5 61zM673 1364q0 32 12.5 60.5t34 49.5t50 33.5t60.5 12.5t60.5 -12.5t50 -33.5 t34 -49.5t12.5 -60.5t-12.5 -61t-34 -50.5t-50 -34t-60.5 -12.5t-60.5 12.5t-50 34t-34 50.5t-12.5 61z" />
<glyph unicode="&#x62b;" horiz-adv-x="1299" d="M52 385v169q0 19 7.5 36t20 29.5t29.5 20t37 7.5h125q20 0 37 -7.5t30 -20t20 -29.5t7 -36v-51h563v493q0 19 7.5 36t20.5 29.5t30 20t36 7.5h126q19 0 36.5 -7.5t30 -20t20 -29.5t7.5 -36l-1 -611q0 -154 -68 -222t-196 -68h-659q-128 0 -197 68t-69 222zM354 1364 q0 32 12.5 60.5t33.5 49.5t49.5 33.5t60.5 12.5q33 0 61.5 -12.5t49.5 -33.5t33 -49.5t12 -60.5t-12 -61t-33 -50.5t-49.5 -34t-61.5 -12.5q-32 0 -60.5 12.5t-49.5 34t-33.5 50.5t-12.5 61zM528 1682q0 32 12.5 60.5t34 50t50 34t60.5 12.5t60.5 -12.5t49.5 -34t33.5 -50 t12.5 -60.5t-12.5 -60.5t-33.5 -50t-49.5 -34t-60.5 -12.5t-60.5 12.5t-50 34t-34 50t-12.5 60.5zM713 1364q0 32 12.5 60.5t33.5 49.5t49.5 33.5t61.5 12.5q32 0 60.5 -12.5t49.5 -33.5t33.5 -49.5t12.5 -60.5t-12.5 -61t-33.5 -50.5t-49.5 -34t-60.5 -12.5 q-33 0 -61.5 12.5t-49.5 34t-33.5 50.5t-12.5 61z" />
<glyph unicode="&#x62c;" horiz-adv-x="951" d="M45 33q-6 76 5 149.5t39 140t73 117.5q56 63 131 102.5t166 53.5q35 5 71.5 4.5t71.5 -0.5v44q-7 40 -25 65t-44 39.5t-58 20t-65.5 7t-67.5 0t-64 -1.5q-19 0 -36 7.5t-30 20t-20.5 29.5t-7.5 37v125q0 38 28 63.5t66 29.5q132 14 241.5 -8.5t191 -79t131.5 -145.5 t64 -209l2 -358q0 -39 -27.5 -66t-66.5 -27q-104 -1 -166 -1t-97.5 -0.5t-51 -1.5t-27.5 -3q-48 -10 -82.5 -37t-45.5 -87v-50q4 -25 15.5 -47t29 -38t40 -25.5t48.5 -9.5q19 0 36 -7t30 -20t20.5 -30t7.5 -37v-125q0 -20 -7.5 -36.5t-20.5 -29t-30 -20t-36 -8.5 q-25 -1 -52 3v-3q-111 23 -191 79q-57 40 -97 99t-63 129t-29 146zM594 -54q0 32 12.5 60.5t34 49.5t50 33.5t60.5 12.5t60.5 -12.5t49.5 -33.5t33.5 -49.5t12.5 -60.5q0 -33 -12.5 -61.5t-33.5 -50t-49.5 -34t-60.5 -12.5t-60.5 12.5t-50 34t-34 50t-12.5 61.5z" />
<glyph unicode="&#x62d;" horiz-adv-x="971" d="M54 33q-6 76 5 149.5t39 140t73 117.5q56 63 131.5 102.5t165.5 53.5q36 5 72.5 4.5t71.5 -0.5v44q-11 60 -46 87.5t-82 37t-99.5 7.5t-97.5 -2q-19 0 -36 7.5t-30 20t-20.5 29.5t-7.5 37v125q0 38 28 63.5t66 29.5q132 14 241.5 -8.5t191 -79t131.5 -145.5t63 -209 l3 -358q0 -20 -7 -37t-20 -30t-30.5 -20t-36.5 -6q-105 1 -167.5 1.5t-97.5 0t-51 -2.5t-27 -5q-23 -8 -44 -17t-38 -22.5t-29 -34t-17 -50.5v-50q10 -59 45.5 -86.5t82.5 -37t99.5 -7.5t97.5 2q19 0 36 -7.5t29.5 -20t20 -30t7.5 -36.5v-125q0 -38 -27.5 -63.5t-65.5 -30.5 q-133 -14 -242.5 8.5t-190.5 79.5q-58 40 -98 99t-63 129t-29 146z" />
<glyph unicode="&#x62e;" horiz-adv-x="971" d="M54 33q-6 76 5 149.5t39 140t73 117.5q56 63 131.5 102.5t165.5 53.5q36 5 72.5 4.5t71.5 -0.5v44q-11 60 -46 87.5t-82 37t-99.5 7.5t-97.5 -2q-19 0 -36 7.5t-30 20t-20.5 29.5t-7.5 37v125q0 38 28 63.5t66 29.5q132 14 241.5 -8.5t191 -79t131.5 -145.5t63 -209 l3 -358q0 -20 -7 -37t-20 -30t-30.5 -20t-36.5 -6q-105 1 -167.5 1.5t-97.5 0t-51 -2.5t-27 -5q-23 -8 -44 -17t-38 -22.5t-29 -34t-17 -50.5v-50q10 -59 45.5 -86.5t82.5 -37t99.5 -7.5t97.5 2q19 0 36 -7.5t29.5 -20t20 -30t7.5 -36.5v-125q0 -38 -27.5 -63.5t-65.5 -30.5 q-133 -14 -242.5 8.5t-190.5 79.5q-58 40 -98 99t-63 129t-29 146zM329 1378q0 32 12.5 60.5t33.5 49.5t49.5 33.5t60.5 12.5q33 0 61.5 -12.5t49.5 -33.5t33.5 -49.5t12.5 -60.5q0 -33 -12.5 -61.5t-33.5 -50t-49.5 -34t-61.5 -12.5q-32 0 -60.5 12.5t-49.5 34t-33.5 50 t-12.5 61.5z" />
<glyph unicode="&#x62f;" horiz-adv-x="766" d="M54 189v220q0 19 7.5 36.5t20.5 30t30 20t37 7.5h242v275h-242q-20 0 -37 7.5t-30 20t-20.5 29.5t-7.5 37v125q0 20 7.5 37t20.5 30t30 20t37 7h290q64 0 114 -16.5t83.5 -51.5t51 -89.5t17.5 -131.5v-417q0 -154 -68.5 -222t-197.5 -68h-290q-20 0 -37 7.5t-30 20 t-20.5 29.5t-7.5 37z" />
<glyph unicode="&#x630;" horiz-adv-x="766" d="M54 189v220q0 19 7.5 36.5t20.5 30t30 20t37 7.5h242v275h-242q-20 0 -37 7.5t-30 20t-20.5 29.5t-7.5 37v125q0 20 7.5 37t20.5 30t30 20t37 7h290q64 0 114 -16.5t83.5 -51.5t51 -89.5t17.5 -131.5v-417q0 -154 -68.5 -222t-197.5 -68h-290q-20 0 -37 7.5t-30 20 t-20.5 29.5t-7.5 37zM185 1378q0 32 12.5 60.5t33.5 49.5t49.5 33.5t60.5 12.5q33 0 61.5 -12.5t49.5 -33.5t33.5 -49.5t12.5 -60.5q0 -33 -12.5 -61.5t-33.5 -50t-49.5 -34t-61.5 -12.5q-32 0 -60.5 12.5t-49.5 34t-33.5 50t-12.5 61.5z" />
<glyph unicode="&#x631;" horiz-adv-x="670" d="M0 -128q0 20 7.5 37t20.5 30t30 20t36 7h30q30 3 58 10t50.5 21.5t38.5 38t22 59.5v908q0 38 26.5 63t64.5 25h141q40 0 61 -25t21 -63l-2 -827q0 -111 -30 -200.5t-85 -155t-133 -106.5t-175 -56q-23 -4 -44 -5.5t-44 0.5q-38 4 -66 29.5t-28 64.5v125z" />
<glyph unicode="&#x632;" horiz-adv-x="670" d="M0 -128q0 20 7.5 37t20.5 30t30 20t36 7h30q30 3 58 10t50.5 21.5t38.5 38t22 59.5v908q0 38 26.5 63t64.5 25h141q40 0 61 -25t21 -63l-2 -827q0 -111 -30 -200.5t-85 -155t-133 -106.5t-175 -56q-23 -4 -44 -5.5t-44 0.5q-38 4 -66 29.5t-28 64.5v125zM289 1366 q0 32 12.5 60.5t33.5 50t49.5 34t60.5 12.5q33 0 61.5 -12.5t49.5 -34t33.5 -50t12.5 -60.5t-12.5 -60.5t-33.5 -50t-49.5 -34t-61.5 -12.5q-32 0 -60.5 12.5t-49.5 34t-33.5 50t-12.5 60.5z" />
<glyph unicode="&#x633;" horiz-adv-x="2054" d="M55 274v36q0 27 0.5 64.5t0.5 83.5v96q0 39 27 66.5t67 27.5h125q19 0 36 -7.5t30 -20.5t20.5 -30t7.5 -36v-182q0 -34 2.5 -71t10.5 -72.5t23 -67t40.5 -55t63 -37.5t89.5 -13q76 1 120 29t65 70.5t25.5 92t2.5 93.5v655q0 19 7.5 36t20 29.5t29.5 20t37 7.5h126 q19 0 36 -7.5t30 -20t20 -29.5t7 -36v-493h130v493q0 19 7 36t20 29.5t30 20t37 7.5h125q19 0 36 -7.5t30 -20t20.5 -29.5t7.5 -36v-493h129v493q0 19 7 36t20 29.5t30 20t37 7.5h125q19 0 36.5 -7.5t30 -20t20 -29.5t7.5 -36v-611q0 -154 -69 -222t-197 -68h-629 q-17 -96 -65.5 -179t-120.5 -143.5t-163 -94.5t-193 -32q-145 3 -244.5 54.5t-160.5 137.5t-87 198.5t-25 237.5z" />
<glyph unicode="&#x634;" horiz-adv-x="2054" d="M55 274v36q0 27 0.5 64.5t0.5 83.5v96q0 39 27 66.5t67 27.5h125q19 0 36 -7.5t30 -20.5t20.5 -30t7.5 -36v-182q0 -34 2.5 -71t10.5 -72.5t23 -67t40.5 -55t63 -37.5t89.5 -13q76 1 120 29t65 70.5t25.5 92t2.5 93.5v655q0 19 7.5 36t20 29.5t29.5 20t37 7.5h126 q19 0 36 -7.5t30 -20t20 -29.5t7 -36v-493h130v493q0 19 7 36t20 29.5t30 20t37 7.5h125q19 0 36 -7.5t30 -20t20.5 -29.5t7.5 -36v-493h129v493q0 19 7 36t20 29.5t30 20t37 7.5h125q19 0 36.5 -7.5t30 -20t20 -29.5t7.5 -36v-611q0 -154 -69 -222t-197 -68h-629 q-17 -96 -65.5 -179t-120.5 -143.5t-163 -94.5t-193 -32q-145 3 -244.5 54.5t-160.5 137.5t-87 198.5t-25 237.5zM1067 1364q0 32 12.5 60.5t33.5 49.5t49.5 33.5t60.5 12.5t60.5 -12.5t50 -33.5t34 -49.5t12.5 -60.5t-12.5 -61t-34 -50.5t-50 -34t-60.5 -12.5t-60.5 12.5 t-49.5 34t-33.5 50.5t-12.5 61zM1241 1682q0 32 12.5 60.5t33.5 50t49.5 34t61.5 12.5q32 0 60.5 -12.5t50 -34t34 -50t12.5 -60.5t-12.5 -60.5t-34 -50t-50 -34t-60.5 -12.5q-33 0 -61.5 12.5t-49.5 34t-33.5 50t-12.5 60.5zM1426 1364q0 32 12.5 60.5t33.5 49.5t49.5 33.5 t61.5 12.5q32 0 60.5 -12.5t49.5 -33.5t33.5 -49.5t12.5 -60.5t-12.5 -61t-33.5 -50.5t-49.5 -34t-60.5 -12.5q-33 0 -61.5 12.5t-49.5 34t-33.5 50.5t-12.5 61z" />
<glyph unicode="&#x635;" horiz-adv-x="2077" d="M64 274v280q0 19 7.5 36.5t20.5 30t30 20t36 7.5h126q19 0 36.5 -7.5t30 -20.5t20 -30t7.5 -36v-182q0 -51 6 -107.5t29.5 -103t69 -76.5t123.5 -29q77 1 121 29t65.5 70.5t25.5 92t2 93.5v314q0 77 17.5 131.5t51 89.5t83 51.5t113.5 16.5h664q64 0 113 -16.5t83 -51.5 t51.5 -89.5t17.5 -131.5v-270q0 -77 -17.5 -132t-51.5 -90t-83 -51.5t-113 -16.5h-625q-17 -96 -66 -179t-121 -143.5t-163 -94.5t-193 -32q-146 3 -245 54.5t-160 137.5t-87 198.5t-25 237.5zM1132 503h569l-1 128h-568v-128z" />
<glyph unicode="&#x636;" horiz-adv-x="2077" d="M64 274v280q0 19 7.5 36.5t20.5 30t30 20t36 7.5h126q19 0 36.5 -7.5t30 -20.5t20 -30t7.5 -36v-182q0 -51 6 -107.5t29.5 -103t69 -76.5t123.5 -29q77 1 121 29t65.5 70.5t25.5 92t2 93.5v314q0 77 17.5 131.5t51 89.5t83 51.5t113.5 16.5h664q64 0 113 -16.5t83 -51.5 t51.5 -89.5t17.5 -131.5v-270q0 -77 -17.5 -132t-51.5 -90t-83 -51.5t-113 -16.5h-625q-17 -96 -66 -179t-121 -143.5t-163 -94.5t-193 -32q-146 3 -245 54.5t-160 137.5t-87 198.5t-25 237.5zM1132 503h569l-1 128h-568v-128zM1261 1219q0 32 12 60.5t33 50t49.5 34 t60.5 12.5q33 0 61.5 -12.5t49.5 -34t33.5 -50t12.5 -60.5t-12.5 -60.5t-33.5 -50t-49.5 -34t-61.5 -12.5q-32 0 -60.5 12.5t-49.5 34t-33 50t-12 60.5z" />
<glyph unicode="&#x637;" horiz-adv-x="1474" d="M48 189v220q0 19 7.5 36.5t20 30t29.5 20t36 7.5h84v788q0 19 7.5 36.5t20.5 30t30 20t36 7.5h126q19 0 36.5 -7.5t30 -20t20 -30t7.5 -36.5v-347h615q64 0 114 -16.5t83.5 -51.5t51 -89.5t17.5 -131.5v-270q0 -77 -17 -132t-51 -90t-84 -51.5t-114 -16.5h-1013 q-19 0 -36 7.5t-29.5 20t-20 29.5t-7.5 37zM539 503h568v128h-568v-128z" />
<glyph unicode="&#x638;" horiz-adv-x="1474" d="M48 189v220q0 19 7.5 36.5t20 30t29.5 20t36 7.5h84v788q0 19 7.5 36.5t20.5 30t30 20t36 7.5h126q19 0 36.5 -7.5t30 -20t20 -30t7.5 -36.5v-347h615q64 0 114 -16.5t83.5 -51.5t51 -89.5t17.5 -131.5v-270q0 -77 -17 -132t-51 -90t-84 -51.5t-114 -16.5h-1013 q-19 0 -36 7.5t-29.5 20t-20 29.5t-7.5 37zM539 503h568v128h-568v-128zM653 1219q0 32 12.5 60.5t34 50t50 34t60.5 12.5t60.5 -12.5t50 -34t34 -50t12.5 -60.5t-12.5 -60.5t-34 -50t-50 -34t-60.5 -12.5t-60.5 12.5t-50 34t-34 50t-12.5 60.5z" />
<glyph unicode="&#x639;" horiz-adv-x="976" d="M40 6q-10 99 18.5 206t98.5 210v380q0 77 17.5 131.5t51 89.5t82.5 51.5t113 16.5h404q19 0 36 -7t30 -20t20.5 -30t7.5 -37v-125q0 -20 -7.5 -37t-20.5 -29.5t-30 -20t-36 -7.5h-355v-182q19 2 39.5 3t40.5 1h274q19 0 36 -7.5t30 -20.5t20.5 -30t7.5 -36v-220 q0 -20 -7.5 -36.5t-20.5 -29.5t-30 -20t-36 -7q-104 -1 -167 -1q-62 0 -97.5 -0.5t-51.5 -1.5t-28 -3q-47 -10 -82 -37t-46 -87v-50q10 -59 45.5 -86.5t82.5 -37t99.5 -7.5t97.5 2q19 0 36 -7.5t30 -20t20.5 -30t7.5 -36.5v-125q0 -38 -28 -64t-66 -30q-144 -13 -257.5 16 t-194.5 89t-128 145.5t-57 184.5z" />
<glyph unicode="&#x63a;" horiz-adv-x="976" d="M40 6q-10 99 18.5 206t98.5 210v380q0 77 17.5 131.5t51 89.5t82.5 51.5t113 16.5h404q19 0 36 -7t30 -20t20.5 -30t7.5 -37v-125q0 -20 -7.5 -37t-20.5 -29.5t-30 -20t-36 -7.5h-355v-182q19 2 39.5 3t40.5 1h274q19 0 36 -7.5t30 -20.5t20.5 -30t7.5 -36v-220 q0 -20 -7.5 -36.5t-20.5 -29.5t-30 -20t-36 -7q-104 -1 -167 -1q-62 0 -97.5 -0.5t-51.5 -1.5t-28 -3q-47 -10 -82 -37t-46 -87v-50q10 -59 45.5 -86.5t82.5 -37t99.5 -7.5t97.5 2q19 0 36 -7.5t30 -20t20.5 -30t7.5 -36.5v-125q0 -38 -28 -64t-66 -30q-144 -13 -257.5 16 t-194.5 89t-128 145.5t-57 184.5zM379 1378q0 32 12.5 60.5t34 49.5t50 33.5t60.5 12.5t60.5 -12.5t50 -33.5t34 -49.5t12.5 -60.5q0 -33 -12.5 -61.5t-34 -50t-50 -34t-60.5 -12.5t-60.5 12.5t-50 34t-34 50t-12.5 61.5z" />
<glyph unicode="&#x640;" horiz-adv-x="552" d="M-3 95v408h551v-408h-551z" />
<glyph unicode="&#x641;" horiz-adv-x="1304" d="M57 385v169q0 19 7.5 36t20 29.5t29.5 20t37 7.5h125q19 0 36.5 -7.5t30.5 -20t20.5 -29.5t7.5 -36v-51h121v299q0 77 17.5 131.5t51 89.5t83 51.5t114.5 16.5h222q64 0 113.5 -16.5t83 -51.5t51 -89.5t17.5 -131.5v-417q0 -77 -17 -132t-51 -90t-83.5 -51.5 t-113.5 -16.5h-657q-129 0 -197.5 68t-68.5 222zM703 1378q0 32 12.5 60.5t33.5 49.5t49.5 33.5t61.5 12.5q32 0 60.5 -12.5t49.5 -33.5t33 -49.5t12 -60.5q0 -33 -12 -61.5t-33 -50t-49.5 -34t-60.5 -12.5q-33 0 -61.5 12.5t-49.5 34t-33.5 50t-12.5 61.5zM805 503h127v275 h-127v-275z" />
<glyph unicode="&#x642;" horiz-adv-x="1299" d="M52 385v297q0 19 7.5 36.5t20.5 30t30 20t36 7.5h125q20 0 37.5 -7.5t30 -20t20 -30t7.5 -36.5v-179h121v299q0 77 17.5 131.5t51 89.5t83 51.5t114.5 16.5h222q64 0 114 -16.5t83.5 -51.5t51 -89.5t17.5 -131.5v-417q0 -154 -68.5 -222t-196.5 -68h-658q-128 0 -197 68 t-69 222zM519 1378q0 32 12.5 60.5t34 49.5t50 33.5t60.5 12.5t60.5 -12.5t50 -33.5t34 -49.5t12.5 -60.5q0 -33 -12.5 -61.5t-34 -50t-50 -34t-60.5 -12.5t-60.5 12.5t-50 34t-34 50t-12.5 61.5zM800 503h127v275h-127v-275zM878 1378q0 32 12.5 60.5t33.5 49.5t49.5 33.5 t60.5 12.5q33 0 61.5 -12.5t49.5 -33.5t33.5 -49.5t12.5 -60.5q0 -33 -12.5 -61.5t-33.5 -50t-49.5 -34t-61.5 -12.5q-32 0 -60.5 12.5t-49.5 34t-33.5 50t-12.5 61.5z" />
<glyph unicode="&#x643;" horiz-adv-x="1384" d="M53 189v220q0 19 7.5 36.5t20 30t29.5 20t36 7.5h865v128h-783q-19 0 -36 7.5t-29.5 20.5t-20 30t-7.5 36l-1 213q13 120 63.5 209t132 145.5t191 78.5t241.5 8q38 -3 66 -28.5t28 -65.5v-125q0 -19 -7.5 -36t-20.5 -29.5t-30 -20t-36 -7.5q-44 0 -95.5 2t-98 -6.5 t-82 -35t-47.5 -83.5h619q64 0 113.5 -16.5t83.5 -51.5t51.5 -89.5t17.5 -131.5l-1 -466q0 -20 -7.5 -37t-20.5 -29.5t-30 -20t-36 -7.5h-1083q-19 0 -36 7.5t-29.5 20t-20 29.5t-7.5 37z" />
<glyph unicode="&#x644;" horiz-adv-x="1190" d="M52 274v185q0 19 7.5 36.5t20.5 30t30 20t37 7.5h124q20 0 37 -7.5t30 -20.5t20.5 -30t7.5 -36v-87q0 -34 2.5 -71t10.5 -72.5t23 -67t40.5 -55t62.5 -37.5t88 -13q78 1 122 29t65 70.5t25.5 92t2.5 93.5v950q0 19 7.5 36.5t20 30t29.5 20t37 7.5h125q19 0 36.5 -7.5 t30 -20t20 -30t7.5 -36.5v-1108q-2 -113 -46 -211.5t-118.5 -171.5t-174.5 -114.5t-214 -39.5q-145 3 -244 54.5t-160 137.5t-87 198.5t-25 237.5z" />
<glyph unicode="&#x645;" horiz-adv-x="1181" d="M53 39q2 69 14 134t35.5 123.5t60 103t87 72t116.5 31.5v299q0 77 17.5 131.5t51.5 89.5t83.5 51.5t113.5 16.5h222q128 0 196.5 -67.5t69.5 -221.5v-417q0 -154 -69 -222t-197 -68h-242q-260 17 -242 -242v-128q0 -19 -7.5 -36t-20 -30t-30 -20.5t-36.5 -7.5h-125 q-20 0 -37 7.5t-30 20.5t-20 30t-7 36v179q-6 66 -4 135zM679 503h128v275h-128v-275z" />
<glyph unicode="&#x646;" horiz-adv-x="1190" d="M64 274v280q0 19 7.5 36.5t20 30t29.5 20t37 7.5h126q19 0 36 -7.5t29.5 -20.5t20.5 -30t8 -36v-182q-1 -51 5.5 -107.5t30 -103t69 -76.5t123.5 -29q77 1 120.5 29t65 70.5t26 92t2.5 93.5v655q0 19 7.5 36t20 29.5t29.5 20t36 7.5h126q19 0 36.5 -7.5t30 -20t20 -29.5 t6.5 -36l-1 -813q-2 -113 -45.5 -211.5t-118 -171.5t-174.5 -114.5t-214 -39.5q-145 3 -244 54.5t-159.5 137.5t-86.5 198.5t-25 237.5zM404 1239q0 32 12.5 60.5t33.5 50t49.5 34t60.5 12.5t60.5 -12.5t50 -34t34 -50t12.5 -60.5t-12.5 -60.5t-34 -50t-50 -34t-60.5 -12.5 t-60.5 12.5t-49.5 34t-33.5 50t-12.5 60.5z" />
<glyph unicode="&#x647;" horiz-adv-x="886" d="M70 385v417q0 154 68 221.5t196 67.5h223q64 0 113 -16.5t83 -51.5t51.5 -89.5t17.5 -131.5v-417q0 -154 -68.5 -222t-195.5 -68h-224q-128 0 -196 68t-68 222zM382 503h127v275h-127v-275z" />
<glyph unicode="&#x648;" horiz-adv-x="882" d="M64 385v417q0 77 17.5 131.5t51 89.5t83 51.5t114.5 16.5h222q64 0 114 -16.5t84 -51.5t51 -89.5t17 -131.5l-2 -626q0 -139 -45.5 -243.5t-128.5 -171.5t-200 -95t-259 -13q-38 4 -66 29.5t-28 64.5v125q0 20 7.5 37t20.5 30t30 20t36 7q45 0 97.5 -2t99.5 7.5t82 37 t45 86.5h-177q-129 0 -197.5 68t-68.5 222zM378 503h127v275h-127v-275z" />
<glyph unicode="&#x649;" horiz-adv-x="1166" d="M48 274q0 10 0.5 36.5t0.5 63.5v84v96q0 19 7.5 36.5t20 30t29.5 20t36 7.5h126q19 0 36 -7.5t30 -20.5t20.5 -30t7.5 -36v-277q-1 -51 5.5 -105t30 -99.5t69 -76t123.5 -35.5q34 -2 67.5 6t61.5 25.5t47.5 43.5t25.5 59q-70 0 -120.5 20t-83 57.5t-48 91.5t-15.5 121 v322q0 154 68.5 222t197.5 68l208 -1q19 0 36.5 -7.5t30 -20t20 -30t7.5 -36.5v-126q0 -19 -7.5 -36t-20 -30t-30 -20.5t-36.5 -7.5l-160 1v-180h127q32 1 59 -14.5t47.5 -44t33.5 -67t17 -83.5q8 -85 -6 -166.5t-46.5 -154t-82.5 -133.5t-115 -104.5t-142.5 -67.5 t-165.5 -22q-146 3 -245 54.5t-160 137.5t-87 198.5t-25 237.5z" />
<glyph unicode="&#x64a;" horiz-adv-x="1175" d="M43 274v185q0 19 7.5 36.5t20.5 30t30 20t36 7.5h127q19 0 36 -7.5t30 -20.5t20.5 -30t7.5 -36v-182q-1 -51 5.5 -105t30 -99.5t69 -76t123.5 -35.5q34 -2 67 6t61 25.5t47.5 43.5t25.5 59q-70 0 -120.5 20t-83 57.5t-48 91.5t-15.5 121v322q0 154 68.5 222t197.5 68 l208 -1q39 0 66 -27.5t27 -66.5v-126q0 -19 -7 -36t-20 -30t-30 -20.5t-36 -7.5l-161 1v-180h127q32 1 59.5 -14.5t48 -44t33.5 -67t17 -83.5q8 -85 -6 -166.5t-46.5 -154t-82.5 -133.5t-115 -104.5t-142.5 -67.5t-166.5 -22q-145 3 -244 54.5t-160 137.5t-87 198.5 t-25 237.5zM230 -590q0 32 12 60.5t33 49.5t49.5 33.5t61.5 12.5q32 0 60.5 -12.5t49.5 -33.5t33.5 -49.5t12.5 -60.5q0 -33 -12.5 -61.5t-33.5 -50t-49.5 -34t-60.5 -12.5q-33 0 -61.5 12.5t-49.5 34t-33 50t-12 61.5zM588 -590q0 32 12.5 60.5t33.5 49.5t49.5 33.5 t61.5 12.5q32 0 60.5 -12.5t49.5 -33.5t33 -49.5t12 -60.5q0 -33 -12 -61.5t-33 -50t-49.5 -34t-60.5 -12.5q-33 0 -61.5 12.5t-49.5 34t-33.5 50t-12.5 61.5z" />
<glyph unicode="&#x64b;" horiz-adv-x="408" d="M49 1482l17 91l340 193l-17 -91zM63 1649l17 91l340 193l-17 -91z" />
<glyph unicode="&#x64c;" horiz-adv-x="469" d="M45 1619q19 27 44.5 43.5t50.5 22t47 -1t34 -24.5t10.5 -48t-23.5 -72q46 20 85.5 44t71.5 62q-41 10 -60.5 31.5t-22 47.5t8 53t30 49.5t44 36t49.5 12.5q21 -2 28 -24.5t6.5 -51t-6 -55.5t-8.5 -37l38 -12l-17 -76l-46 13q-6 -14 -19.5 -33.5t-32 -40t-40.5 -39.5 t-45.5 -31t-47.5 -15t-46 8t-24 31.5t3 42t10.5 42t-2 32t-34.5 10.5t-86 -20zM334 1773q-2 -11 3 -19t14 -14t20.5 -11.5t24.5 -11.5q2 19 2 35q0 14 -2.5 26.5t-7.5 16.5v-2q-10 10 -23 10q-14 1 -22.5 -8.5t-8.5 -21.5z" />
<glyph unicode="&#x64d;" horiz-adv-x="408" d="M38 -509l17 91l340 193l-17 -91zM65 -341l17 91l340 193l-17 -91z" />
<glyph unicode="&#x64e;" horiz-adv-x="408" d="M49 1482l17 91l340 193l-17 -91z" />
<glyph unicode="&#x64f;" horiz-adv-x="414" d="M13 1507q61 25 105.5 43t79 36t62.5 39.5t56 54.5q-47 11 -69 34t-25.5 51t9 57.5t34 53.5t49.5 38.5t56 13.5q16 -1 25 -12.5t12.5 -29t2.5 -39t-3.5 -41.5t-6.5 -36.5t-7 -24.5l44 -13l-19 -80l-52 12q-11 -23 -37.5 -52.5t-62.5 -55t-78.5 -42.5t-85.5 -15 q-29 2 -47.5 3t-28.5 2t-12.5 1.5t-0.5 1.5zM279 1818q-2 -25 20 -37t51 -23q2 20 2 38q0 15 -2 28.5t-9 18.5v-2q-5 6 -12 8t-12 2q-17 2 -27 -8.5t-11 -24.5z" />
<glyph unicode="&#x650;" horiz-adv-x="408" d="M55 -341l17 91l340 193l-17 -91z" />
<glyph unicode="&#x651;" horiz-adv-x="425" d="M59.5 1603.5q-1.5 27.5 2 53.5t10.5 47.5t14 31.5q0 -3 5 1t11.5 9t11.5 8.5t5 0.5q-8 -20 -13.5 -46.5t-3 -50t14 -39.5t37.5 -15q29 0 44.5 16t23.5 37.5t12.5 44.5t12.5 38q1 -3 5 0t9 7.5t9.5 8t5.5 0.5q-8 -29 -2.5 -54t19.5 -40t35.5 -18t46.5 14q6 9 5.5 22 t-4.5 26.5t-11 27t-14 23.5q13 18 24.5 34t22.5 32q11 -17 17.5 -36t11.5 -38q6 -33 3 -67t-15 -62t-33 -45.5t-51 -17.5q-25 0 -37.5 9t-27.5 23q-6 -10 -15 -23t-22 -25t-31 -21t-40 -11q-35 -3 -56 10t-31 35t-11.5 49.5z" />
<glyph unicode="&#x652;" horiz-adv-x="328" d="M59 1556q-5 33 3.5 75.5t27 81.5t46 67t59.5 33q28 4 54 -6.5t46.5 -28.5t34.5 -40.5t17 -41.5q5 -34 -10 -71.5t-41 -87.5v1q0 1 1 2l-3 -5q-24 -14 -61.5 -26.5t-74 -15t-65 11t-34.5 51.5zM123 1643q3 -22 21 -32.5t42 -11t50 6.5t46 21l1 1q-3 14 -13.5 30t-25 29.5 t-31.5 22t-35 5.5q-30 -5 -44 -27t-11 -45zM294 1535l1 1q0 -1 -1 -1zM295 1536l1 1q0 -1 -1 -1z" />
<glyph unicode="&#x660;" horiz-adv-x="1149" d="M385 574l99 347l281 -173l-99 -342z" />
<glyph unicode="&#x661;" horiz-adv-x="1149" d="M369 1020v18q0 9 6 34.5t15.5 58.5t21.5 69.5t24.5 66.5t24 49.5t20.5 19.5q25 0 64 -66q117 -199 176.5 -417.5t58.5 -462.5q0 -324 -72 -324q-15 0 -30.5 42t-32.5 114.5t-36 169t-40 205.5q-33 99 -82.5 204t-117.5 219z" />
<glyph unicode="&#x662;" horiz-adv-x="1149" d="M227 1114q0 4 7.5 20t19 37.5t25.5 46.5t27.5 47t24.5 38.5t16 21.5q10 -1 29 -16t42 -36.5t47 -45.5t42.5 -44t29 -31.5t6.5 -8.5h50q46 0 78 4t58 18.5t50 42t54 75.5q28 42 63 42q16 0 21 -30.5t5 -73.5q0 -385 -254 -428l-8 -5q38 -115 56 -237.5t18 -254.5 q0 -224 -66 -224q-26 9 -39 23.5t-20 39t-12 60.5t-15 88q-86 389 -240 658q1 -1 -7.5 11t-21 30.5t-27.5 41t-28.5 42t-22 33.5t-8.5 15z" />
<glyph unicode="&#x663;" horiz-adv-x="1149" d="M94 1063q0 3 9.5 20t24 40t31.5 49.5t32.5 49.5t27.5 38.5t16 17.5q39 -41 75 -78t67 -65t57 -44.5t44 -16.5q57 0 136 123q81 122 102 122q17 0 29 -8l15 -26q12 -83 20 -101q24 -47 97 -47q33 0 66 73q35 73 67 73q45 0 45 -84q0 -66 -17.5 -131.5t-47.5 -117 t-70.5 -84t-86.5 -32.5q-19 0 -50.5 9t-61.5 20q-35 12 -74 29q-38 -33 -80 -61t-89 -51q60 -248 60 -468q0 -246 -76 -246q-24 0 -38.5 26t-23.5 70t-14.5 102t-12.5 121q-3 25 -14 68t-28 95t-38.5 109t-43.5 111t-44 100.5t-40 77.5q-14 19 -26.5 39t-22.5 37t-16 28 t-6 13z" />
<glyph unicode="&#x664;" horiz-adv-x="1149" d="M285 844v38v13q0 128 147 295q153 172 287 172l-38 -245q-28 -5 -58.5 -13.5t-55.5 -19.5t-41 -23.5t-16 -24.5q0 -23 109 -74q60 -29 93 -47t38 -26q12 -17 12 -32q0 -43 -28 -91.5t-84 -105.5q-61 -62 -94 -108t-41 -75q30 -19 69.5 -35t84 -31t92.5 -29l96 -28 q7 0 7 -15q0 -34 -86 -262h-21q-127 0 -279 61q-182 74 -182 182q0 72 75 185q5 7 35.5 47.5t87.5 115.5q-1 3 -28 21t-62 44t-69 55.5t-50 55.5z" />
<glyph unicode="&#x665;" horiz-adv-x="1149" d="M222 534q0 81 27.5 179t84.5 213q129 265 272 265q50 0 101 -39t111 -119q55 -75 84.5 -134.5t27.5 -110.5q0 -139 -26 -239.5t-80 -165t-136 -95t-194 -30.5q-272 0 -272 276zM398 670q0 -117 179 -117q143 0 201 67q-149 271 -281 272q-17 -16 -34.5 -44t-32 -60.5 t-23.5 -64t-9 -53.5z" />
<glyph unicode="&#x666;" horiz-adv-x="1149" d="M189 1043q0 26 11.5 80t37.5 137q194 -100 328 -100q19 0 52 6t69 12.5t68 12.5t49 6q2 -8 4 -15.5t2 -16.5q0 -13 -2.5 -36t-7 -51.5t-9 -59.5t-9 -60t-7 -52.5t-2.5 -37.5q0 -291 183 -508q3 -9 3 -21q0 -11 -4.5 -35.5t-12 -54t-17.5 -61t-20 -57.5t-20 -42.5 t-18 -16.5q-70 0 -151 198q-71 175 -71 261v249q0 26 10 85q-65 -5 -108 -7.5t-66 -2.5q-292 0 -292 188z" />
<glyph unicode="&#x667;" horiz-adv-x="1149" d="M110 988q0 8 7 29t18 48.5t25 57.5t27.5 56.5t25 46t17.5 24.5q85 -31 219 -332q43 -100 83 -201t82 -202q4 12 16 43t27 71.5t32 86t32.5 86t27 71.5t16.5 43q90 232 224 362h18q16 -50 24.5 -94t8.5 -83v-22l-3 -43q-118 -172 -207.5 -366t-150.5 -415 q-54 -183 -91 -183q-16 0 -34.5 34.5t-40 93t-47 135.5t-55.5 162q-69 181 -187 347q-1 4 -18 21.5t-46 52.5q-26 32 -38 50t-12 20z" />
<glyph unicode="&#x668;" horiz-adv-x="1149" d="M117 317q63 60 118.5 148.5t106.5 207.5q18 47 51.5 148.5t82.5 260.5q54 168 93 168q16 0 34 -31.5t38.5 -84.5t44.5 -122t52 -143.5t62 -149.5t74 -140q-2 3 9 -13.5t28.5 -42.5t38.5 -57.5t39.5 -58.5t30.5 -44.5t12 -15.5q0 -7 -6.5 -29t-17.5 -51.5t-24 -62 t-26 -59.5t-24 -45t-18 -18q-96 0 -373 724l-8 -5q-38 -103 -76.5 -205t-76.5 -203q-123 -287 -227 -347q-11 14 -18 41t-11 63t-6 79t-3 88z" />
<glyph unicode="&#x669;" horiz-adv-x="1149" d="M206 842q0 129 110 314q119 206 240 206q49 0 86 -25t64.5 -85.5t47 -162t34.5 -253.5q12 -121 25.5 -197t25.5 -108q29 -61 52 -109q10 -20 19 -39t16.5 -33.5t12 -23t4.5 -6.5q0 -13 -4 -35.5t-10.5 -50.5t-15 -57.5t-17.5 -57.5t-17.5 -50.5t-14.5 -35.5h-20 q-93 88 -150 268q-3 5 -21.5 81t-55.5 225q-206 0 -308.5 56t-102.5 179zM413 972q54 -37 99 -53t84 -16q-13 37 -22.5 68t-20 54t-22.5 36t-29 13q-53 0 -89 -102z" />
<glyph unicode="&#x66a;" horiz-adv-x="829" d="M10 1129q0 28 11 53t29.5 43.5t43.5 29t53 10.5t53 -10.5t43.5 -29t29 -43.5t10.5 -53t-10.5 -53t-29 -43.5t-43.5 -29.5t-53 -11t-53 11t-43.5 29.5t-29.5 43.5t-11 53zM62 -72l418 1391l239 127l-419 -1391zM505 223q0 28 10.5 53.5t29 44t43 29.5t52.5 11t53 -11 t43.5 -29.5t29.5 -44t11 -53.5t-11 -53t-29.5 -43.5t-43.5 -29t-53 -10.5t-52.5 10.5t-43 29t-29 43.5t-10.5 53z" />
<glyph unicode="&#x66d;" horiz-adv-x="815" d="M71 1074v68l214 18l-139 162l47 49l164 -139l17 213h68l17 -213l163 139l49 -49l-140 -162l214 -18v-68l-214 -17l140 -163l-49 -48l-163 139l-17 -214h-68l-17 214l-164 -139l-47 48l139 163z" />
<glyph unicode="&#x6f9;" horiz-adv-x="1033" d="M93 175v934h934v-934h-934zM223 304h675v675h-675v-675z" />
<glyph unicode="&#x2000;" horiz-adv-x="1067" />
<glyph unicode="&#x2001;" horiz-adv-x="2134" />
<glyph unicode="&#x2002;" horiz-adv-x="1067" />
<glyph unicode="&#x2003;" horiz-adv-x="2134" />
<glyph unicode="&#x2004;" horiz-adv-x="711" />
<glyph unicode="&#x2005;" horiz-adv-x="533" />
<glyph unicode="&#x2006;" horiz-adv-x="355" />
<glyph unicode="&#x2007;" horiz-adv-x="355" />
<glyph unicode="&#x2008;" horiz-adv-x="266" />
<glyph unicode="&#x2009;" horiz-adv-x="426" />
<glyph unicode="&#x200a;" horiz-adv-x="118" />
<glyph unicode="&#x200c;" horiz-adv-x="45" d="M10 -80v1631h25v-1631h-25z" />
<glyph unicode="&#x200d;" horiz-adv-x="45" d="M-102 1427l109 109l-109 108l16 16l109 -108l109 108l16 -16l-109 -108l109 -109l-16 -16l-97 96v-1587h-25v1586l-96 -95z" />
<glyph unicode="&#x200e;" horiz-adv-x="45" d="M8 -80v1631h234l-93 93l17 17l125 -124q-32 -33 -62.5 -63.5l-62.5 -62.5l-17 17l97 97h-213v-1605h-25z" />
<glyph unicode="&#x200f;" horiz-adv-x="45" d="M-246 1537l125 124l17 -17l-93 -93h234v-1631h-25v1605h-213l97 -97l-17 -17q-32 32 -62.5 63t-62.5 63z" />
<glyph unicode="&#x2010;" horiz-adv-x="593" d="M48 532v235h497v-235h-497z" />
<glyph unicode="&#x2011;" horiz-adv-x="593" d="M48 532v235h497v-235h-497z" />
<glyph unicode="&#x2012;" horiz-adv-x="593" d="M48 532v235h497v-235h-497z" />
<glyph unicode="&#x2013;" d="M0 553v192h990v-192h-990z" />
<glyph unicode="&#x2014;" horiz-adv-x="1782" d="M0 553v192h1782v-192h-1782z" />
<glyph unicode="&#x2018;" horiz-adv-x="390" d="M80 1446q0 19 7.5 36.5t20 30.5t29.5 20.5t37 7.5h77l11 -384q0 -19 -10.5 -33t-27 -23t-37 -13.5t-39.5 -4.5z" />
<glyph unicode="&#x2019;" horiz-adv-x="390" d="M104 1157l10 384h77q20 0 37 -7.5t30 -20.5t20 -30.5t7 -36.5l-68 -363q-19 0 -39 4.5t-36.5 13.5t-27 23t-10.5 33z" />
<glyph unicode="&#x201a;" horiz-adv-x="495" d="M123 150v113v113h125h124v-169q0 -134 -59.5 -210.5t-183.5 -102.5v90q79 24 107 72q18 33 24 94h-63h-74z" />
<glyph unicode="&#x201c;" horiz-adv-x="620" d="M80 1446q0 19 7.5 36.5t20 30.5t29.5 20.5t37 7.5h77l11 -384q0 -19 -10.5 -33t-27 -23t-37 -13.5t-39.5 -4.5zM330 1446q0 19 7.5 36.5t20 30.5t29.5 20.5t37 7.5h77l11 -384q0 -19 -10.5 -33t-27 -23t-37 -13.5t-39.5 -4.5z" />
<glyph unicode="&#x201d;" horiz-adv-x="620" d="M104 1157l10 384h77q19 0 36.5 -7.5t30 -20.5t20 -30.5t7.5 -36.5l-68 -363q-20 0 -40 4.5t-36 13.5t-26.5 23t-10.5 33zM353 1157l11 384h77q19 0 36.5 -7.5t30 -20.5t20 -30.5t7.5 -36.5l-68 -363q-19 0 -39.5 4.5t-37 13.5t-27 23t-10.5 33z" />
<glyph unicode="&#x2022;" horiz-adv-x="613" d="M-1 515q0 129 88 217t216 88q127 0 215 -88t88 -217q0 -127 -88 -214.5t-215 -87.5q-128 0 -216 87.5t-88 214.5z" />
<glyph unicode="&#x202f;" horiz-adv-x="426" />
<glyph unicode="&#x205f;" horiz-adv-x="533" />
<glyph unicode="&#x2122;" horiz-adv-x="1782" d="M78 1276v76v77h610v-77v-76h-205v-576h-100h-100v576h-205zM826 700v729h135h136l170 -605l165 605h136h135v-729h-93h-94v664l-176 -664h-75h-75l-177 661v-661h-93h-94z" />
<glyph unicode="&#xe000;" horiz-adv-x="1095" d="M0 0v1095h1095v-1095h-1095z" />
<glyph unicode="&#xe820;" horiz-adv-x="408" d="M61 1032l17 91l340 193l-17 -91z" />
<glyph unicode="&#xe821;" horiz-adv-x="414" d="M-7 1047q61 25 105.5 43t79 36t62.5 39.5t56 54.5q-47 11 -69 34t-25.5 51t9 57.5t34 53.5t49.5 38.5t56 13.5q16 -1 25 -12.5t12.5 -29t2.5 -39t-3.5 -41.5t-6.5 -36.5t-7 -24.5l44 -13l-19 -80l-52 12q-11 -23 -37.5 -52.5t-62.5 -55t-78.5 -42.5t-85.5 -15 q-29 2 -47.5 3t-28.5 2t-12.5 1.5t-0.5 1.5zM259 1358q-2 -25 20 -37t51 -23q2 20 2 38q0 15 -2 28.5t-9 18.5v-2q-5 6 -12 8t-12 2q-17 2 -27 -8.5t-11 -24.5z" />
<glyph unicode="&#xe822;" horiz-adv-x="328" d="M56 1109q-5 33 3.5 75.5t27 81.5t46 67t59.5 33q28 4 54 -6.5t46.5 -28.5t34.5 -40.5t17 -41.5q5 -34 -10 -71.5t-41 -87.5v1q0 1 1 2l-3 -5q-24 -14 -61.5 -26.5t-74 -15t-65 11t-34.5 51.5zM120 1196q3 -22 21 -32.5t42 -11t50 6.5t46 21l1 1q-3 14 -13.5 30t-25 29.5 t-31.5 22t-35 5.5q-30 -5 -44 -27t-11 -45zM291 1088l1 1q0 -1 -1 -1zM292 1089l1 1q0 -1 -1 -1z" />
<glyph unicode="&#xe823;" horiz-adv-x="408" d="M51 1029l17 91l340 193l-17 -91zM65 1196l17 91l340 193l-17 -91z" />
<glyph unicode="&#xe824;" horiz-adv-x="469" d="M44 1194q19 27 44.5 43.5t50.5 22t47 -1t34 -24.5t10.5 -48t-23.5 -72q46 20 85.5 44t71.5 62q-41 10 -60.5 31.5t-22 47.5t8 53t30 49.5t44 36t49.5 12.5q21 -2 28 -24.5t6.5 -51t-6 -55.5t-8.5 -37l38 -12l-17 -76l-46 13q-6 -14 -19.5 -33.5t-32 -40t-40.5 -39.5 t-45.5 -31t-47.5 -15t-46 8t-24 31.5t3 42t10.5 42t-2 32t-34.5 10.5t-86 -20zM333 1348q-2 -11 3 -19t14 -14t20.5 -11.5t24.5 -11.5q2 19 2 35q0 14 -2.5 26.5t-7.5 16.5v-2q-10 10 -23 10q-14 1 -22.5 -8.5t-8.5 -21.5z" />
<glyph unicode="&#xe825;" horiz-adv-x="425" d="M57.5 1144.5q-1.5 27.5 2 53.5t10.5 47.5t14 31.5q0 -3 5 1t11.5 9t11.5 8.5t5 0.5q-8 -20 -13.5 -46.5t-3 -50t14 -39.5t37.5 -15q29 0 44.5 16t23.5 37.5t12.5 44.5t12.5 38q1 -3 5 0t9 7.5t9.5 8t5.5 0.5q-8 -29 -2.5 -54t19.5 -40t35.5 -18t46.5 14q6 9 5.5 22 t-4.5 26.5t-11 27t-14 23.5q13 18 24.5 34t22.5 32q11 -17 17.5 -36t11.5 -38q6 -33 3 -67t-15 -62t-33 -45.5t-51 -17.5q-25 0 -37.5 9t-27.5 23q-6 -10 -15 -23t-22 -25t-31 -21t-40 -11q-35 -3 -56 10t-31 35t-11.5 49.5z" />
<glyph unicode="&#xe826;" horiz-adv-x="408" d="M55 -341l17 91l340 193l-17 -91z" />
<glyph unicode="&#xe827;" horiz-adv-x="408" d="M38 -509l17 91l340 193l-17 -91zM65 -341l17 91l340 193l-17 -91z" />
<glyph unicode="&#xe828;" horiz-adv-x="425" d="M60 1259l17 91l340 193l-17 -91zM65 1140q0 21 4.5 39.5t9.5 29.5q0 -3 4.5 1.5t9.5 10.5t10 10.5t5 1.5q-5 -21 -7 -40t2 -32.5t17 -19t38 -0.5q28 5 41 23t17.5 40.5t5.5 46t6 39.5q1 -3 4.5 1t7.5 9t8 9.5t6 1.5q-3 -30 6.5 -54t26 -36.5t38 -11.5t42.5 21q4 10 2 23 t-8.5 25.5t-15.5 24.5t-18 21q5 10 14.5 15.5t20 10t20 9.5t15.5 13q5 -8 5.5 -12.5t-0.5 -8.5t-1.5 -8.5t3.5 -13.5q12 -32 14.5 -66t-5 -63.5t-25.5 -50.5t-47 -26q-25 -4 -39 3t-31 18q-4 -11 -10.5 -25.5t-18 -28.5t-27 -25.5t-37.5 -16.5q-34 -9 -56 -3.5t-35 20 t-17.5 35t-4.5 40.5z" />
<glyph unicode="&#xe829;" horiz-adv-x="425" d="M11 1347q60 20 103 34t77 28t61.5 31t54.5 43q-46 8 -67.5 26.5t-25 40.5t8.5 45t33 42t48.5 30.5t55.5 10.5q23 -1 31 -20t7.5 -43.5t-6.5 -47.5t-10 -33l43 -10l-19 -63l-50 10q-11 -18 -37 -41t-61.5 -43.5t-76.5 -34t-83 -11.5q-57 4 -75 4q-17 0 -12 2zM72.5 1188.5 q-0.5 26.5 3.5 48.5t9 33q0 -3 5 1.5t10.5 10.5t10 10t4.5 1q-5 -21 -6.5 -47.5t4 -49.5t19.5 -37.5t40 -9.5q28 5 41 23t18 40.5t6.5 45.5t6.5 39q1 -3 4.5 1t8 9t8 9.5t5.5 1.5q-3 -30 6 -54t25.5 -37t38 -12.5t43.5 20.5q4 10 2 23t-8.5 26t-15 25t-17.5 21 q11 20 19.5 37.5t17.5 34.5q13 -15 22.5 -33t17.5 -36q11 -32 13 -66t-6 -63.5t-26.5 -50t-47.5 -24.5q-25 -4 -38.5 3t-30.5 19q-4 -11 -11 -25t-18.5 -28t-27.5 -25.5t-38 -16.5q-34 -8 -56.5 1.5t-36 29.5t-19 47.5t-6 54zM271 1592q-2 -20 19 -29.5t50 -17.5q2 16 2 30 q0 11 -2 22t-9 14v-1q-5 5 -11.5 6.5t-11.5 1.5q-17 1 -26.5 -7t-10.5 -19z" />
<glyph unicode="&#xe82a;" horiz-adv-x="425" d="M70 1154q0 29 22 101l23 4q0 -111 39 -111q29 0 57.5 48t32.5 114l19 6q24 -98 61 -98q24 0 44 42.5t20 104.5l22 11q15 -51 15 -99q0 -76 -29.5 -121t-75.5 -45q-21 0 -64 21q-38 -87 -108 -87q-78 0 -78 109zM74 1283q0 45 12 65q12 17 54 42l272 160q0 -47 -8 -64.5 t-41 -36.5zM74 1433q0 45 12 65t54 44l272 159q0 -47 -8 -65t-41 -37z" />
<glyph unicode="&#xe82b;" horiz-adv-x="468" d="M40 1475q20 23 46.5 37.5t53 18.5t49.5 -1.5t35.5 -20.5t11 -40.5t-24.5 -61.5q48 17 89.5 38t75.5 53q-43 9 -63 27t-23.5 40t8 45t31.5 41.5t46 30t52 10.5q22 -2 29.5 -21t7 -43t-6 -46.5t-9.5 -31.5l40 -10l-18 -65l-48 11q-7 -12 -21 -28.5t-33 -34t-42 -33t-48 -26 t-50 -13t-48 6.5q-23 10 -25 27t3 36t11 36t-2 26.5t-36 9t-91 -17.5zM84.5 1190.5q-0.5 26.5 3.5 48.5t9 33q0 -3 5 1.5t10.5 10.5t10 10t4.5 1q-5 -21 -6.5 -47.5t4 -49.5t19.5 -37.5t40 -9.5q28 5 41 23t18 40.5t6.5 45.5t6.5 39q1 -3 4.5 1t8 9t8 9.5t5.5 1.5 q-3 -30 6 -54t25.5 -37t38 -12.5t43.5 20.5q4 10 2 23t-8.5 26t-15 25t-17.5 21q11 20 19.5 37.5t17.5 34.5q13 -15 22.5 -33t17.5 -36q11 -32 13 -66t-6 -63.5t-26.5 -50t-47.5 -24.5q-25 -4 -38.5 3t-30.5 19q-4 -11 -11 -25t-18.5 -28t-27.5 -25.5t-38 -16.5 q-34 -8 -56.5 1.5t-36 29.5t-19 47.5t-6 54zM343 1606q-2 -10 3.5 -16.5t14.5 -11.5t21.5 -9.5t25.5 -9.5q2 17 2 30q0 11 -2 21.5t-8 14.5v-2q-5 5 -12 6.5t-12 1.5q-14 1 -23.5 -7t-9.5 -18z" />
<glyph unicode="&#xe82c;" horiz-adv-x="425" d="M61.5 1400.5q0.5 26.5 4.5 49t10 32.5q0 -3 4.5 1.5l10.5 10.5t10.5 10t4.5 1q-6 -21 -8 -48t3 -50t18.5 -37.5t39.5 -10.5q29 4 42.5 21t19 39.5t7 46t7.5 39.5q1 -3 5 0.5t8.5 9t8 9.5t5.5 1q-4 -29 4 -53.5t24 -38t37 -13.5q22 0 45 20q5 10 3 22.5t-8 25.5 t-14.5 25.5t-16.5 21.5q11 20 20 37t19 34q12 -15 21.5 -33.5t16.5 -36.5q10 -32 11 -66t-7.5 -63t-27.5 -49t-48 -24q-25 -3 -38.5 4t-30.5 20q-4 -11 -11.5 -25t-19 -27.5t-28 -24.5t-38.5 -16q-34 -7 -56.5 3t-35 31t-17.5 48t-4.5 53.5zM72 1031l17 91l340 193l-17 -91z " />
<glyph unicode="&#xe82d;" horiz-adv-x="425" d="M35 1007l33 75l350 141l-33 -75zM45 1112l33 75l350 141l-33 -75zM60.5 1413.5q0.5 26.5 5 49t9.5 32.5q0 -3 4.5 1.5l10.5 10.5t10.5 10t4.5 1q-6 -21 -8 -48t3 -50t18.5 -37.5t39.5 -10.5q29 4 42.5 21t19 39.5t7 46t7.5 39.5q1 -3 5 0.5t8.5 9t8 9.5t5.5 1 q-4 -29 4 -53.5t24 -38t37 -13.5q22 0 45 20q5 10 3 22.5t-8 25.5t-14.5 25.5t-16.5 21.5q11 20 20 37t19 34q12 -15 21.5 -33.5t16.5 -36.5q10 -32 11 -66t-7.5 -63t-27.5 -49t-48 -24q-25 -3 -38.5 4t-30.5 20q-4 -11 -11.5 -25t-19 -27.5t-28 -24.5t-38.5 -16 q-34 -7 -56.5 3t-35 31t-17.5 48t-4.5 53.5z" />
<glyph unicode="&#xe832;" horiz-adv-x="408" d="M10 1222q5 23 8 38.5t7 38.5q99 52 191.5 101.5t191.5 102.5l-14 -77q-97 -51 -192 -101.5t-192 -102.5z" />
<glyph unicode="&#xe833;" horiz-adv-x="408" d="M5 967q5 23 8 38.5t7 38.5q99 52 191.5 101.5t191.5 102.5l-14 -77q-97 -51 -192 -101.5t-192 -102.5z" />
<glyph unicode="&#xe834;" horiz-adv-x="566" d="M-32 1437q-5 35 4 80.5t28.5 86.5t48 71.5t62.5 35.5q28 4 55 -6.5t48.5 -29.5t36 -42.5t17.5 -44.5q6 -33 -11 -74t-44 -93q-14 -8 -32.5 -16t-39.5 -15t-43 -11t-42 -4q-32 0 -57.5 14t-30.5 48zM20 1531q5 -30 29.5 -43.5t56.5 -13.5l112 38q-4 17 -17 37.5t-31 38 t-39 27.5t-42 7q-19 -3 -33 -12.5t-23 -22t-12 -27.5t-1 -29z" />
<glyph unicode="&#xe835;" horiz-adv-x="420" d="M26.5 1068.5q-1.5 27.5 2 53.5t10.5 47.5t14 31.5q0 -3 5 1t11.5 9t11.5 8.5t5 0.5q-8 -20 -13.5 -46.5t-3 -50t14 -39.5t37.5 -15q29 0 44.5 16t23.5 37.5t12.5 44.5t12.5 38q1 -3 5 0t9 7.5t9.5 8t5.5 0.5q-8 -29 -2.5 -54t19.5 -40t35.5 -18t46.5 14q6 9 5.5 22 t-4.5 26.5t-11 27t-14 23.5q13 18 24.5 34t22.5 32q11 -17 17.5 -36t11.5 -38q6 -33 3 -67t-15 -62t-33 -45.5t-51 -17.5q-25 0 -37.5 9t-27.5 23q-6 -10 -15 -23t-22 -25t-31 -21t-40 -11q-35 -3 -56 10t-31 35t-11.5 49.5z" />
<glyph unicode="&#xe836;" horiz-adv-x="381" d="M-41.5 1495.5q-1.5 27.5 2 53.5t10.5 47.5t14 31.5q0 -3 5 1t11.5 9t11.5 8.5t5 0.5q-8 -20 -13.5 -46.5t-3 -50t14 -39.5t37.5 -15q29 0 44.5 16t23.5 37.5t12.5 44.5t12.5 38q1 -3 5 0t9 7.5t9.5 8t5.5 0.5q-8 -29 -2.5 -54t19.5 -40t35.5 -18t46.5 14q6 9 5.5 22 t-4.5 26.5t-11 27t-14 23.5q13 18 24.5 34t22.5 32q11 -17 17.5 -36t11.5 -38q6 -33 3 -67t-15 -62t-33 -45.5t-51 -17.5q-25 0 -37.5 9t-27.5 23q-6 -10 -15 -23t-22 -25t-31 -21t-40 -11q-35 -3 -56 10t-31 35t-11.5 49.5z" />
<glyph unicode="&#xfd3e;" horiz-adv-x="593" d="M112 -52v1640h439v-172h-216v-1297h216v-171h-439z" />
<glyph unicode="&#xfd3f;" horiz-adv-x="593" d="M43 -52v171h215v1297h-215v172h438v-1640h-438z" />
<glyph unicode="&#xfeff;" horiz-adv-x="744" />
</font>
</defs>
</svg>
