<?xml version="1.0" encoding="UTF-8" standalone="no"?>
<!-- Created with Inkscape (http://www.inkscape.org/) -->

<svg
   xmlns:dc="http://purl.org/dc/elements/1.1/"
   xmlns:cc="http://creativecommons.org/ns#"
   xmlns:rdf="http://www.w3.org/1999/02/22-rdf-syntax-ns#"
   xmlns:svg="http://www.w3.org/2000/svg"
   xmlns="http://www.w3.org/2000/svg"
   xmlns:xlink="http://www.w3.org/1999/xlink"
   xmlns:sodipodi="http://sodipodi.sourceforge.net/DTD/sodipodi-0.dtd"
   xmlns:inkscape="http://www.inkscape.org/namespaces/inkscape"
   width="90"
   height="30"
   id="svg2"
   version="1.1"
   inkscape:version="0.48.2 r9819"
   inkscape:export-filename="/Users/dominik/Developer/JavaScript/Leaflet.locatecontrol/src/images/locate.png"
   inkscape:export-xdpi="90"
   inkscape:export-ydpi="90"
   sodipodi:docname="locate.svg">
  <defs
     id="defs4">
    <linearGradient
       id="linearGradient3799">
      <stop
         style="stop-color:#ff8700;stop-opacity:1;"
         offset="0"
         id="stop3801" />
      <stop
         style="stop-color:#ffe300;stop-opacity:1;"
         offset="1"
         id="stop3803" />
    </linearGradient>
    <linearGradient
       id="linearGradient3817">
      <stop
         style="stop-color:#0090ff;stop-opacity:1;"
         offset="0"
         id="stop3819" />
      <stop
         style="stop-color:#00efff;stop-opacity:1;"
         offset="1"
         id="stop3821" />
    </linearGradient>
    <linearGradient
       inkscape:collect="always"
       xlink:href="#linearGradient3817"
       id="linearGradient3823"
       x1="6"
       y1="8"
       x2="6"
       y2="4"
       gradientUnits="userSpaceOnUse" />
    <linearGradient
       inkscape:collect="always"
       xlink:href="#linearGradient3799"
       id="linearGradient3046"
       gradientUnits="userSpaceOnUse"
       x1="6"
       y1="8"
       x2="6"
       y2="4" />
    <linearGradient
       inkscape:collect="always"
       xlink:href="#linearGradient3817"
       id="linearGradient3181"
       gradientUnits="userSpaceOnUse"
       x1="6"
       y1="8"
       x2="6"
       y2="4" />
    <linearGradient
       inkscape:collect="always"
       xlink:href="#linearGradient3799"
       id="linearGradient3183"
       gradientUnits="userSpaceOnUse"
       x1="6"
       y1="8"
       x2="6"
       y2="4" />
    <linearGradient
       inkscape:collect="always"
       xlink:href="#linearGradient3817"
       id="linearGradient3199"
       gradientUnits="userSpaceOnUse"
       x1="6"
       y1="8"
       x2="6"
       y2="4" />
    <linearGradient
       inkscape:collect="always"
       xlink:href="#linearGradient3799"
       id="linearGradient3201"
       gradientUnits="userSpaceOnUse"
       x1="6"
       y1="8"
       x2="6"
       y2="4" />
    <linearGradient
       inkscape:collect="always"
       xlink:href="#linearGradient3817"
       id="linearGradient3214"
       gradientUnits="userSpaceOnUse"
       x1="6"
       y1="8"
       x2="6"
       y2="4" />
    <linearGradient
       inkscape:collect="always"
       xlink:href="#linearGradient3799"
       id="linearGradient3216"
       gradientUnits="userSpaceOnUse"
       x1="6"
       y1="8"
       x2="6"
       y2="4" />
    <linearGradient
       inkscape:collect="always"
       xlink:href="#linearGradient3817"
       id="linearGradient3225"
       gradientUnits="userSpaceOnUse"
       x1="6"
       y1="8"
       x2="6"
       y2="4" />
    <linearGradient
       inkscape:collect="always"
       xlink:href="#linearGradient3817"
       id="linearGradient3251"
       gradientUnits="userSpaceOnUse"
       x1="6"
       y1="8"
       x2="6"
       y2="4" />
    <linearGradient
       inkscape:collect="always"
       xlink:href="#linearGradient3817"
       id="linearGradient4016"
       gradientUnits="userSpaceOnUse"
       x1="6"
       y1="8"
       x2="6"
       y2="4" />
    <linearGradient
       inkscape:collect="always"
       xlink:href="#linearGradient3799"
       id="linearGradient4030"
       gradientUnits="userSpaceOnUse"
       x1="6"
       y1="8"
       x2="6"
       y2="4" />
    <linearGradient
       inkscape:collect="always"
       xlink:href="#linearGradient3817"
       id="linearGradient4054"
       gradientUnits="userSpaceOnUse"
       x1="6"
       y1="8"
       x2="6"
       y2="4" />
    <linearGradient
       inkscape:collect="always"
       xlink:href="#linearGradient3799"
       id="linearGradient4056"
       gradientUnits="userSpaceOnUse"
       x1="6"
       y1="8"
       x2="6"
       y2="4" />
  </defs>
  <sodipodi:namedview
     id="base"
     pagecolor="#ffffff"
     bordercolor="#666666"
     borderopacity="1.0"
     inkscape:pageopacity="0.0"
     inkscape:pageshadow="2"
     inkscape:zoom="8"
     inkscape:cx="18.329426"
     inkscape:cy="38.429117"
     inkscape:document-units="px"
     inkscape:current-layer="layer2"
     showgrid="true"
     inkscape:window-width="1626"
     inkscape:window-height="1006"
     inkscape:window-x="1280"
     inkscape:window-y="0"
     inkscape:window-maximized="1"
     inkscape:snap-global="false">
    <inkscape:grid
       type="xygrid"
       id="grid2985"
       empspacing="5"
       visible="true"
       enabled="true"
       snapvisiblegridlinesonly="true" />
  </sodipodi:namedview>
  <metadata
     id="metadata7">
    <rdf:RDF>
      <cc:Work
         rdf:about="">
        <dc:format>image/svg+xml</dc:format>
        <dc:type
           rdf:resource="http://purl.org/dc/dcmitype/StillImage" />
        <dc:title />
      </cc:Work>
    </rdf:RDF>
  </metadata>
  <g
     inkscape:label="main"
     inkscape:groupmode="layer"
     id="layer1"
     transform="translate(0,-1022.3622)"
     style="display:inline">
    <path
       transform="matrix(2.5,0,0,2.5,30,1022.3622)"
       d="M 8,6 A 2,2 0 1 1 4,6 2,2 0 1 1 8,6 z"
       sodipodi:ry="2"
       sodipodi:rx="2"
       sodipodi:cy="6"
       sodipodi:cx="6"
       id="path3167"
       style="fill:url(#linearGradient3251);fill-opacity:1;stroke:none;display:inline"
       sodipodi:type="arc" />
    <path
       transform="matrix(0.86950283,0,0,0.86950283,39.782983,1032.1452)"
       d="M 12,6 A 6,6 0 1 1 0,6 6,6 0 1 1 12,6 z"
       sodipodi:ry="6"
       sodipodi:rx="6"
       sodipodi:cy="6"
       sodipodi:cx="6"
       id="path3958"
       style="fill:none;stroke:#404040;stroke-width:1.79999995;stroke-miterlimit:4;stroke-opacity:1;stroke-dasharray:none"
       sodipodi:type="arc" />
    <rect
       y="1036.3187"
       x="39.782982"
       height="2.0868068"
       width="3.1302104"
       id="rect3960"
       style="fill:#404040;fill-opacity:1;stroke:none" />
    <rect
       style="fill:#404040;fill-opacity:1;stroke:none"
       id="rect3962"
       width="3.1302104"
       height="2.0868068"
       x="47.086807"
       y="1036.3187" />
    <rect
       y="1032.1453"
       x="43.956596"
       height="3.1302283"
       width="2.0868068"
       id="rect3964"
       style="fill:#404040;fill-opacity:1;stroke:none" />
    <rect
       style="fill:#404040;fill-opacity:1;stroke:none"
       id="rect3966"
       width="2.0868068"
       height="3.1301918"
       x="43.956596"
       y="1039.449" />
    <path
       sodipodi:type="arc"
       style="fill:none;stroke:#404040;stroke-width:1.79999995;stroke-miterlimit:4;stroke-opacity:1;stroke-dasharray:none"
       id="path3946"
       sodipodi:cx="6"
       sodipodi:cy="6"
       sodipodi:rx="6"
       sodipodi:ry="6"
       d="M 12,6 A 6,6 0 1 1 0,6 6,6 0 1 1 12,6 z"
       transform="matrix(0.86950283,0,0,0.86950283,9.782983,1032.1452)" />
    <rect
       style="fill:#404040;fill-opacity:1;stroke:none"
       id="rect3948"
       width="3.1302104"
       height="2.0868068"
       x="9.7829819"
       y="1036.3187" />
    <rect
       y="1036.3187"
       x="17.086807"
       height="2.0868068"
       width="3.1302104"
       id="rect3950"
       style="fill:#404040;fill-opacity:1;stroke:none" />
    <rect
       style="fill:#404040;fill-opacity:1;stroke:none"
       id="rect3952"
       width="2.0868068"
       height="3.1302283"
       x="13.956596"
       y="1032.1453" />
    <rect
       y="1039.449"
       x="13.956596"
       height="3.1301918"
       width="2.0868068"
       id="rect3954"
       style="fill:#404040;fill-opacity:1;stroke:none" />
    <path
       sodipodi:type="arc"
       style="fill:url(#linearGradient3046);fill-opacity:1;stroke:none;display:inline"
       id="path3044"
       sodipodi:cx="6"
       sodipodi:cy="6"
       sodipodi:rx="2"
       sodipodi:ry="2"
       d="M 8,6 A 2,2 0 1 1 4,6 2,2 0 1 1 8,6 z"
       transform="matrix(2.5,0,0,2.5,60,1022.3622)" />
    <path
       transform="matrix(0.86950283,0,0,0.86950283,69.782983,1032.1452)"
       d="M 12,6 A 6,6 0 1 1 0,6 6,6 0 1 1 12,6 z"
       sodipodi:ry="6"
       sodipodi:rx="6"
       sodipodi:cy="6"
       sodipodi:cx="6"
       id="path3968"
       style="fill:none;stroke:#404040;stroke-width:1.79999995;stroke-miterlimit:4;stroke-opacity:1;stroke-dasharray:none"
       sodipodi:type="arc" />
    <rect
       y="1036.3187"
       x="69.782982"
       height="2.0868068"
       width="3.1302104"
       id="rect3970"
       style="fill:#404040;fill-opacity:1;stroke:none" />
    <rect
       style="fill:#404040;fill-opacity:1;stroke:none"
       id="rect3972"
       width="3.1302104"
       height="2.0868068"
       x="77.086807"
       y="1036.3187" />
    <rect
       y="1032.1453"
       x="73.956596"
       height="3.1302283"
       width="2.0868068"
       id="rect3974"
       style="fill:#404040;fill-opacity:1;stroke:none" />
    <rect
       style="fill:#404040;fill-opacity:1;stroke:none"
       id="rect3976"
       width="2.0868068"
       height="3.1301918"
       x="73.956596"
       y="1039.449" />
  </g>
  <g
     inkscape:groupmode="layer"
     id="layer2"
     inkscape:label="mobile"
     style="display:none">
    <path
       transform="matrix(1.1593579,0,0,1.1593579,10.043852,10.043869)"
       d="M 12,6 A 6,6 0 1 1 0,6 6,6 0 1 1 12,6 z"
       sodipodi:ry="6"
       sodipodi:rx="6"
       sodipodi:cy="6"
       sodipodi:cx="6"
       id="path3989"
       style="fill:none;stroke:#404040;stroke-width:1.79999995;stroke-miterlimit:4;stroke-opacity:1;stroke-dasharray:none;display:inline"
       sodipodi:type="arc" />
    <rect
       y="15.60867"
       x="10.043851"
       height="2.7824588"
       width="4.1736889"
       id="rect3991"
       style="fill:#404040;fill-opacity:1;stroke:none;display:inline" />
    <rect
       style="fill:#404040;fill-opacity:1;stroke:none;display:inline"
       id="rect3993"
       width="4.1736889"
       height="2.7824588"
       x="19.782459"
       y="15.60867" />
    <rect
       y="10.044036"
       x="15.60877"
       height="4.1737127"
       width="2.7824588"
       id="rect3995"
       style="fill:#404040;fill-opacity:1;stroke:none;display:inline" />
    <rect
       style="fill:#404040;fill-opacity:1;stroke:none;display:inline"
       id="rect3997"
       width="2.7824588"
       height="4.1736636"
       x="15.60877"
       y="19.782412" />
    <path
       sodipodi:type="arc"
       style="fill:url(#linearGradient4054);fill-opacity:1;stroke:none;display:inline"
       id="path4004"
       sodipodi:cx="6"
       sodipodi:cy="6"
       sodipodi:rx="2"
       sodipodi:ry="2"
       d="M 8,6 A 2,2 0 1 1 4,6 2,2 0 1 1 8,6 z"
       transform="matrix(3.46875,0,0,3.46875,26.125,-3.875)" />
    <path
       transform="matrix(3.5,0,0,3.5,56,-4)"
       d="M 8,6 A 2,2 0 1 1 4,6 2,2 0 1 1 8,6 z"
       sodipodi:ry="2"
       sodipodi:rx="2"
       sodipodi:cy="6"
       sodipodi:cx="6"
       id="path4018"
       style="fill:url(#linearGradient4056);fill-opacity:1;stroke:none;display:inline"
       sodipodi:type="arc" />
    <path
       sodipodi:type="arc"
       style="fill:none;stroke:#404040;stroke-width:1.79999995;stroke-miterlimit:4;stroke-opacity:1;stroke-dasharray:none;display:inline"
       id="path4034"
       sodipodi:cx="6"
       sodipodi:cy="6"
       sodipodi:rx="6"
       sodipodi:ry="6"
       d="M 12,6 A 6,6 0 1 1 0,6 6,6 0 1 1 12,6 z"
       transform="matrix(1.1593579,0,0,1.1593579,40.043852,10.043869)" />
    <rect
       style="fill:#404040;fill-opacity:1;stroke:none;display:inline"
       id="rect4036"
       width="4.1736889"
       height="2.7824588"
       x="40.04385"
       y="15.60867" />
    <rect
       y="15.60867"
       x="49.782459"
       height="2.7824588"
       width="4.1736889"
       id="rect4038"
       style="fill:#404040;fill-opacity:1;stroke:none;display:inline" />
    <rect
       style="fill:#404040;fill-opacity:1;stroke:none;display:inline"
       id="rect4040"
       width="2.7824588"
       height="4.1737127"
       x="45.608772"
       y="10.044036" />
    <rect
       y="19.782412"
       x="45.608772"
       height="4.1736636"
       width="2.7824588"
       id="rect4042"
       style="fill:#404040;fill-opacity:1;stroke:none;display:inline" />
    <path
       transform="matrix(1.1593579,0,0,1.1593579,70.043852,10.043869)"
       d="M 12,6 A 6,6 0 1 1 0,6 6,6 0 1 1 12,6 z"
       sodipodi:ry="6"
       sodipodi:rx="6"
       sodipodi:cy="6"
       sodipodi:cx="6"
       id="path4044"
       style="fill:none;stroke:#404040;stroke-width:1.79999995;stroke-miterlimit:4;stroke-opacity:1;stroke-dasharray:none;display:inline"
       sodipodi:type="arc" />
    <rect
       y="15.60867"
       x="70.043854"
       height="2.7824588"
       width="4.1736889"
       id="rect4046"
       style="fill:#404040;fill-opacity:1;stroke:none;display:inline" />
    <rect
       style="fill:#404040;fill-opacity:1;stroke:none;display:inline"
       id="rect4048"
       width="4.1736889"
       height="2.7824588"
       x="79.782455"
       y="15.60867" />
    <rect
       y="10.044036"
       x="75.608772"
       height="4.1737127"
       width="2.7824588"
       id="rect4050"
       style="fill:#404040;fill-opacity:1;stroke:none;display:inline" />
    <rect
       style="fill:#404040;fill-opacity:1;stroke:none;display:inline"
       id="rect4052"
       width="2.7824588"
       height="4.1736636"
       x="75.608772"
       y="19.782412" />
  </g>
</svg>
