<?xml version="1.0" encoding="UTF-8" standalone="no"?>
<!-- Created with Inkscape (http://www.inkscape.org/) -->

<svg
   xmlns:dc="http://purl.org/dc/elements/1.1/"
   xmlns:cc="http://creativecommons.org/ns#"
   xmlns:rdf="http://www.w3.org/1999/02/22-rdf-syntax-ns#"
   xmlns:svg="http://www.w3.org/2000/svg"
   xmlns="http://www.w3.org/2000/svg"
   xmlns:sodipodi="http://sodipodi.sourceforge.net/DTD/sodipodi-0.dtd"
   xmlns:inkscape="http://www.inkscape.org/namespaces/inkscape"
   width="182.10938mm"
   height="34.528629mm"
   viewBox="0 0 182.10937 34.528629"
   version="1.1"
   id="svg8"
   inkscape:version="0.92.0 r15299"
   sodipodi:docname="logo-animedescarga.svg">
  <defs
     id="defs2">
    <inkscape:perspective
       sodipodi:type="inkscape:persp3d"
       inkscape:vp_x="0 : 148.50001 : 1"
       inkscape:vp_y="0 : 1000.0001 : 0"
       inkscape:vp_z="210 : 148.50001 : 1"
       inkscape:persp3d-origin="105 : 99.000007 : 1"
       id="perspective886" />
  </defs>
  <sodipodi:namedview
     id="base"
     pagecolor="#ffffff"
     bordercolor="#666666"
     borderopacity="1.0"
     inkscape:pageopacity="0.0"
     inkscape:pageshadow="2"
     inkscape:zoom="1"
     inkscape:cx="300.99981"
     inkscape:cy="-2.2912609"
     inkscape:document-units="mm"
     inkscape:current-layer="layer1"
     showgrid="false"
     inkscape:window-width="1280"
     inkscape:window-height="704"
     inkscape:window-x="-4"
     inkscape:window-y="-4"
     inkscape:window-maximized="1"
     fit-margin-left="1"
     fit-margin-top="1"
     fit-margin-bottom="1"
     fit-margin-right="1" />
  <metadata
     id="metadata5">
    <rdf:RDF>
      <cc:Work
         rdf:about="">
        <dc:format>image/svg+xml</dc:format>
        <dc:type
           rdf:resource="http://purl.org/dc/dcmitype/StillImage" />
        <dc:title />
      </cc:Work>
    </rdf:RDF>
  </metadata>
  <g
     inkscape:label="Capa 1"
     inkscape:groupmode="layer"
     id="layer1"
     transform="translate(-5.3453794,-119.17668)">
    <flowRoot
       xml:space="preserve"
       id="flowRoot854"
       style="font-style:normal;font-variant:normal;font-weight:normal;font-stretch:normal;font-size:40px;line-height:25px;font-family:AderaSSK;-inkscape-font-specification:AderaSSK;letter-spacing:0px;word-spacing:0px;fill:#000000;fill-opacity:1;stroke:none"
       transform="scale(0.26458333)"><flowRegion
         id="flowRegion856"><rect
           id="rect858"
           width="37.142857"
           height="88.571426"
           x="557.14288"
           y="696.80542" /></flowRegion><flowPara
         id="flowPara860" /></flowRoot>    <flowRoot
       xml:space="preserve"
       id="flowRoot904"
       style="font-style:normal;font-variant:normal;font-weight:normal;font-stretch:normal;font-size:40px;line-height:25px;font-family:AderaDisplaySSK;-inkscape-font-specification:AderaDisplaySSK;letter-spacing:0px;word-spacing:0px;fill:#000000;fill-opacity:1;stroke:none"
       transform="scale(0.26458333)"><flowRegion
         id="flowRegion906"><rect
           id="rect908"
           width="382.85715"
           height="102.85714"
           x="162.85715"
           y="496.80539" /></flowRegion><flowPara
         id="flowPara910" /></flowRoot>    <flowRoot
       xml:space="preserve"
       id="flowRoot916"
       style="font-style:normal;font-variant:normal;font-weight:normal;font-stretch:normal;font-size:40px;line-height:25px;font-family:AderaDisplaySSK;-inkscape-font-specification:AderaDisplaySSK;letter-spacing:0px;word-spacing:0px;fill:#000000;fill-opacity:1;stroke:none"
       transform="scale(0.26458333)"><flowRegion
         id="flowRegion918"><rect
           id="rect920"
           width="245.71428"
           height="194.28572"
           x="285.71429"
           y="736.80542" /></flowRegion><flowPara
         id="flowPara922" /></flowRoot>    <g
       aria-label="ANIMEDESCARGA"
       transform="matrix(0.68005409,0,-0.10282537,1.4704713,0,0)"
       style="font-style:normal;font-variant:normal;font-weight:normal;font-stretch:normal;font-size:30.72392464px;line-height:19.20245552px;font-family:AderaSSK;-inkscape-font-specification:AderaSSK;letter-spacing:0px;word-spacing:0px;fill:#000000;fill-opacity:1;stroke:#32a2f1;stroke-width:0.86799997;stroke-miterlimit:4;stroke-dasharray:none;stroke-opacity:1"
       id="text930">
      <path
         d="m 46.161447,100.83692 q 0,1.25969 -0.952442,2.11996 -0.952441,0.82954 -2.212122,0.82954 -1.474749,0 -2.273571,-1.13678 -0.460858,-0.64521 -1.044613,-2.42719 h -8.14184 q -0.645202,1.78198 -1.075337,2.42719 -0.86027,1.13678 -2.273571,1.13678 -1.290405,0 -2.242846,-0.82954 -0.921718,-0.86027 -0.921718,-2.11996 0,-1.781983 2.365742,-7.619529 1.659092,-3.871214 3.28746,-7.773153 1.382577,-3.594699 4.915828,-3.594699 3.502527,0 4.915828,3.594699 1.628368,3.901939 3.256736,7.773153 2.396466,5.806822 2.396466,7.619529 z m -8.29546,-5.868265 -2.27357,-8.14184 -2.27357,8.14184 z"
         style="fill:#0175c6;fill-opacity:1;stroke-width:0.86799997;stroke-miterlimit:4;stroke-dasharray:none;stroke:#32a2f1;stroke-opacity:1"
         id="path885" />
      <path
         d="m 68.799219,100.59113 q 0,1.29041 -0.921718,2.21213 -0.890994,0.89099 -2.181399,0.89099 -1.474748,0 -2.365742,-1.10606 L 54.451146,91.681195 v 8.879215 q 0,1.25968 -0.890994,2.21212 -0.86027,0.92172 -2.119951,0.92172 -1.351852,0 -2.27357,-1.04461 -0.890994,-1.04462 -0.890994,-2.42719 V 84.952656 q 0,-1.290405 0.86027,-2.242847 0.890994,-0.952442 2.181399,-0.952442 1.4133,0 2.703705,1.536197 l 8.602699,10.200343 v -8.541251 q 0,-1.259681 0.921718,-2.181399 0.921718,-0.952442 2.181398,-0.952442 1.259681,0 2.150675,0.952442 0.921718,0.921718 0.921718,2.181399 z"
         style="fill:#c9c9c9;fill-opacity:1;stroke-width:0.86799997;stroke-miterlimit:4;stroke-dasharray:none;stroke:#32a2f1;stroke-opacity:1"
         id="path887" />
      <path
         d="m 77.074037,100.62186 q 0,1.2904 -0.890994,2.21212 -0.890994,0.89099 -2.181399,0.89099 -1.290405,0 -2.212122,-0.92171 -0.890994,-0.95245 -0.890994,-2.24285 V 84.921932 q 0,-1.290405 0.921717,-2.181399 0.921718,-0.921718 2.181399,-0.921718 1.290405,0 2.181399,0.921718 0.890994,0.921718 0.890994,2.212123 z"
         style="fill:#c9c9c9;fill-opacity:1;stroke-width:0.86799997;stroke-miterlimit:4;stroke-dasharray:none;stroke:#32a2f1;stroke-opacity:1"
         id="path889" />
      <path
         d="m 106.33953,101.14416 q 0,1.04462 -0.98316,1.81272 -0.95244,0.73737 -2.02778,0.73737 -1.16751,0 -2.02778,-0.73737 -0.86027,-0.7681 -1.01389,-1.90489 L 98.965791,89.991379 95.463263,101.42068 q -0.737374,2.42719 -2.703705,2.42719 -1.751264,0 -2.488638,-2.42719 L 86.768393,89.960655 85.477988,101.05199 q -0.15362,1.13679 -1.044614,1.90489 -0.86027,0.73737 -1.997055,0.73737 -1.382576,0 -2.242846,-0.89099 -0.829546,-0.891 -0.829546,-2.24285 0,-0.24579 0.215067,-1.044614 h -0.09217 l 2.457914,-14.194453 q 0.276516,-1.628368 1.413301,-2.611534 1.167509,-0.983166 2.826601,-0.983166 1.382577,0 2.457914,0.86027 1.075337,0.829546 1.474748,2.181399 l 2.73443,9.278625 2.703705,-9.278625 q 0.399411,-1.351853 1.505472,-2.181399 1.106062,-0.86027 2.519362,-0.86027 1.659091,0 2.795881,0.983166 1.13678,0.952442 1.4133,2.58081 0.79882,3.963386 1.59764,7.926772 0.95244,4.915828 0.95244,7.926769 z"
         style="fill:#c9c9c9;fill-opacity:1;stroke-width:0.86799997;stroke-miterlimit:4;stroke-dasharray:none;stroke:#32a2f1;stroke-opacity:1"
         id="path891" />
      <path
         d="m 122.8378,100.83692 q 0,1.10607 -0.86027,1.87416 -0.82954,0.73738 -1.9356,0.73738 h -8.29546 q -1.25968,0 -2.11995,-0.98317 -0.86027,-0.98316 -0.95244,-2.24284 l -0.46086,0.49158 q 0.33796,-0.46086 0.39941,-7.250847 0.0307,-4.14773 0.0615,-8.29546 0.0614,-1.351853 0.89099,-2.242847 0.86027,-0.890993 2.21212,-0.890993 h 8.44908 q 1.04461,0 1.78199,0.798822 0.7681,0.798822 0.7681,1.843435 0,2.857325 -4.39352,2.857325 -0.73738,0 -1.96634,-0.09217 -1.19823,-0.09217 -1.53619,-0.09217 l -0.0307,2.795877 q 0.2458,0 1.16751,-0.03072 0.95244,-0.06145 1.5362,-0.06145 4.60859,0 4.60859,2.672981 0,2.703706 -4.39352,2.703706 -0.61448,0 -1.62837,-0.06145 -0.98317,-0.06145 -1.25968,-0.06145 l -0.0307,2.857325 q 0.27652,0 1.38258,-0.06145 1.13679,-0.09217 1.84344,-0.09217 4.7622,0 4.7622,2.826597 z"
         style="fill:#c9c9c9;fill-opacity:1;stroke-width:0.86799997;stroke-miterlimit:4;stroke-dasharray:none;stroke:#32a2f1;stroke-opacity:1"
         id="path893" />
      <path
         d="m 144.08723,92.848704 q 0,4.639313 -3.28746,7.680986 -3.22601,2.91877 -7.92677,2.91877 h -5.99116 q -1.25969,0 -2.15068,-0.95244 -0.89099,-0.95245 -0.89099,-2.21213 l -0.0307,-15.116167 q 0,-1.290405 0.891,-2.212123 0.92171,-0.921717 2.21212,-0.921717 h 4.8851 q 5.40741,0 8.69487,2.642257 3.5947,2.888049 3.5947,8.172564 z m -6.17551,0.03072 q 0,-2.611534 -1.68981,-4.086282 -1.68982,-1.474748 -4.3628,-1.474748 h -1.87416 l -0.0307,10.876269 h 2.1814 q 2.45791,0 4.117,-1.444024 1.65909,-1.444025 1.65909,-3.871215 z"
         style="fill:#0175c6;fill-opacity:1;stroke-width:0.86799997;stroke-miterlimit:4;stroke-dasharray:none;stroke:#32a2f1;stroke-opacity:1"
         id="path895" />
      <path
         d="m 159.68251,100.83692 q 0,1.10607 -0.86027,1.87416 -0.82955,0.73738 -1.93561,0.73738 h -8.29546 q -1.25968,0 -2.11995,-0.98317 -0.86027,-0.98316 -0.95244,-2.24284 l -0.46086,0.49158 q 0.33796,-0.46086 0.39941,-7.250847 0.0307,-4.14773 0.0614,-8.29546 0.0615,-1.351853 0.89099,-2.242847 0.86027,-0.890993 2.21213,-0.890993 h 8.44907 q 1.04462,0 1.78199,0.798822 0.7681,0.798822 0.7681,1.843435 0,2.857325 -4.39352,2.857325 -0.73738,0 -1.96633,-0.09217 -1.19824,-0.09217 -1.5362,-0.09217 l -0.0307,2.795877 q 0.24579,0 1.16751,-0.03072 0.95244,-0.06145 1.53619,-0.06145 4.60859,0 4.60859,2.672981 0,2.703706 -4.39352,2.703706 -0.61448,0 -1.62837,-0.06145 -0.98316,-0.06145 -1.25968,-0.06145 l -0.0307,2.857325 q 0.27651,0 1.38257,-0.06145 1.13679,-0.09217 1.84344,-0.09217 4.76221,0 4.76221,2.826597 z"
         style="fill:#c9c9c9;fill-opacity:1;stroke-width:0.86799997;stroke-miterlimit:4;stroke-dasharray:none;stroke:#32a2f1;stroke-opacity:1"
         id="path897" />
      <path
         d="m 178.16679,96.504851 q 0,3.410356 -2.91877,5.438139 -2.58081,1.78198 -6.11406,1.78198 -8.29546,0 -8.29546,-4.301346 0,-0.86027 0.67592,-1.597644 0.70665,-0.737374 1.56692,-0.737374 1.04462,0 3.19529,0.645202 2.15068,0.645203 3.28746,0.645203 0.7681,0 1.44403,-0.337964 0.89099,-0.399411 0.89099,-1.106061 0,-0.983165 -2.85732,-1.659092 -3.93267,-0.921718 -5.2538,-1.659092 -2.8266,-1.56692 -2.8266,-4.731484 0,-3.379632 2.91878,-5.345963 2.58081,-1.72054 6.14478,-1.72054 2.42719,0 4.2399,0.768098 2.42719,1.01389 2.42719,3.072393 0,1.075337 -0.67592,1.812711 -0.67593,0.706651 -1.72054,0.706651 -0.95244,0 -2.73443,-0.583755 -1.78199,-0.583755 -2.70371,-0.583755 -0.89099,0 -1.22895,0.215068 -0.30724,0.184343 -0.64521,1.013889 l 0.30724,0.675927 q 1.07534,0.583754 4.54714,1.474748 3.0724,0.768098 4.3628,1.751264 1.96633,1.474748 1.96633,4.362797 z"
         style="fill:#c9c9c9;fill-opacity:1;stroke-width:0.86799997;stroke-miterlimit:4;stroke-dasharray:none;stroke:#32a2f1;stroke-opacity:1"
         id="path899" />
      <path
         d="m 197.8181,99.54652 q 0,2.02778 -2.55009,3.19529 -2.02778,0.92172 -4.33207,0.92172 -4.79294,0 -8.17257,-3.10312 -3.50252,-3.226013 -3.50252,-7.957497 0,-4.792932 3.68687,-7.896049 3.50252,-2.918773 8.38763,-2.918773 2.21212,0 4.02483,0.798822 2.42719,1.044614 2.42719,2.980221 0,1.044613 -0.70665,1.781988 -0.67592,0.737374 -1.68981,0.737374 -0.86027,0 -2.42719,-0.430135 -1.5362,-0.460859 -2.39647,-0.460859 -2.27357,0 -3.77904,1.56692 -1.50547,1.56692 -1.50547,3.871215 0,2.335018 1.2904,3.871214 1.32113,1.536196 3.62542,1.536196 0.891,0 2.48864,-0.460858 1.62837,-0.460859 2.48864,-0.460859 1.07534,0 1.84343,0.675926 0.79883,0.675926 0.79883,1.751264 z"
         style="fill:#c9c9c9;fill-opacity:1;stroke-width:0.86799997;stroke-miterlimit:4;stroke-dasharray:none;stroke:#32a2f1;stroke-opacity:1"
         id="path901" />
      <path
         d="m 220.54373,100.83692 q 0,1.25969 -0.95245,2.11996 -0.95244,0.82954 -2.21212,0.82954 -1.47475,0 -2.27357,-1.13678 -0.46086,-0.64521 -1.04461,-2.42719 h -8.14184 q -0.64521,1.78198 -1.07534,2.42719 -0.86027,1.13678 -2.27357,1.13678 -1.29041,0 -2.24285,-0.82954 -0.92171,-0.86027 -0.92171,-2.11996 0,-1.781983 2.36574,-7.619529 1.65909,-3.871214 3.28746,-7.773153 1.38257,-3.594699 4.91583,-3.594699 3.50252,0 4.91582,3.594699 1.62837,3.901939 3.25674,7.773153 2.39647,5.806822 2.39647,7.619529 z m -8.29546,-5.868265 -2.27357,-8.14184 -2.27357,8.14184 z"
         style="fill:#c9c9c9;fill-opacity:1;stroke-width:0.86799997;stroke-miterlimit:4;stroke-dasharray:none;stroke:#32a2f1;stroke-opacity:1"
         id="path903" />
      <path
         d="m 240.17055,100.6833 q 0,1.22896 -0.92172,2.1814 -0.89099,0.92172 -2.15067,0.92172 -1.93561,0 -4.85438,-4.270624 -1.75126,-2.826601 -3.4718,-5.622478 l 0.0307,6.759262 q 0.0307,1.25968 -0.89099,2.1814 -0.891,0.89099 -2.1814,0.89099 -1.25968,0 -2.1814,-0.95244 -0.89099,-0.95244 -0.92172,-2.21212 l -0.46086,0.46086 q 0.58376,-0.79882 0.58376,-3.287462 0,-1.167509 -0.18435,-4.14773 -0.18434,-2.98022 -0.18434,-4.516417 0,-7.035778 3.37963,-7.035778 h 6.75927 q 3.41035,0 5.43813,1.781987 2.15067,1.87416 2.15067,5.223067 0,1.935608 -0.95244,3.379632 -0.79882,1.198233 -2.58081,2.457914 1.10606,1.351853 2.1814,2.734429 1.4133,1.935608 1.4133,3.072388 z m -6.20623,-11.70581 q 0,-0.675927 -0.46086,-1.167509 -0.46086,-0.491583 -1.13678,-0.491583 h -3.50253 l -0.0615,3.594699 h 3.44108 q 0.49158,0 0.49158,-0.460859 0,-0.06145 -0.0307,-0.122896 0.18434,0.06145 0.33796,0.06145 0.92172,0 0.92172,-1.4133 z m -1.25968,1.351852 q -0.21507,-0.122895 -0.46086,-0.337963 0.36869,0 0.46086,0.337963 z"
         style="fill:#c9c9c9;fill-opacity:1;stroke-width:0.86799997;stroke-miterlimit:4;stroke-dasharray:none;stroke:#32a2f1;stroke-opacity:1"
         id="path905" />
      <path
         d="m 263.76796,93.924042 q 0,4.393521 -3.01094,7.158678 -2.9495,2.64225 -7.40447,2.64225 -5.03872,0 -8.44908,-2.88805 -3.5947,-3.041664 -3.5947,-7.988216 0,-4.731484 3.56398,-7.957496 3.44108,-3.103117 8.20329,-3.103117 2.88805,0 5.77609,1.198233 3.65615,1.505473 3.65615,3.963387 0,0.952441 -0.7681,1.659092 -0.73737,0.675926 -1.68981,0.675926 -0.82955,0 -3.13384,-1.106061 -2.3043,-1.136786 -4.02484,-1.136786 -2.36574,0 -3.96338,1.628368 -1.56692,1.628368 -1.56692,4.024835 0,2.457913 1.59764,4.117005 1.62837,1.628368 4.05556,1.628368 1.65909,0 2.73443,-0.491582 1.07534,-0.522307 1.99705,-1.843436 -2.79587,0 -3.50252,-0.184343 -1.93561,-0.522307 -1.93561,-2.519362 0,-1.075338 0.79882,-1.843436 0.79882,-0.798822 1.87416,-0.798822 h 5.96044 q 2.8266,0 2.8266,3.164565 z"
         style="fill:#c9c9c9;fill-opacity:1;stroke-width:0.86799997;stroke-miterlimit:4;stroke-dasharray:none;stroke:#32a2f1;stroke-opacity:1"
         id="path907" />
      <path
         d="m 286.55216,100.83692 q 0,1.25969 -0.95244,2.11996 -0.95244,0.82954 -2.21212,0.82954 -1.47475,0 -2.27357,-1.13678 -0.46086,-0.64521 -1.04461,-2.42719 h -8.14184 q -0.64521,1.78198 -1.07534,2.42719 -0.86027,1.13678 -2.27357,1.13678 -1.29041,0 -2.24285,-0.82954 -0.92172,-0.86027 -0.92172,-2.11996 0,-1.781983 2.36575,-7.619529 1.65909,-3.871214 3.28746,-7.773153 1.38257,-3.594699 4.91582,-3.594699 3.50253,0 4.91583,3.594699 1.62837,3.901939 3.25674,7.773153 2.39646,5.806822 2.39646,7.619529 z m -8.29546,-5.868265 -2.27357,-8.14184 -2.27357,8.14184 z"
         style="fill:#c9c9c9;fill-opacity:1;stroke-width:0.86799997;stroke-miterlimit:4;stroke-dasharray:none;stroke:#32a2f1;stroke-opacity:1"
         id="path909" />
    </g>
  </g>
</svg>
