<?xml version="1.0" standalone="no"?>
<!DOCTYPE svg PUBLIC "-//W3C//DTD SVG 1.1//EN" "http://www.w3.org/Graphics/SVG/1.1/DTD/svg11.dtd" >
<svg xmlns="http://www.w3.org/2000/svg">
<metadata>Generated by IcoMoon</metadata>
<defs>
<font id="ejicons" horiz-adv-x="512">
<font-face units-per-em="512" ascent="480" descent="-32" />
<missing-glyph horiz-adv-x="512" />
<glyph unicode="&#x20;" horiz-adv-x="256" d="" />
<glyph unicode="&#xe600;" glyph-name="uniE600" d="M431.644 432l-93.6-92.445-56.622 60.089v-149.066h150.222l-61.245 56.622 93.6 92.445-32.356 32.356zM80.356 16l93.6 92.445 56.622-60.089v150.222h-150.222l61.244-56.622-93.6-92.445 32.356-33.512z" />
<glyph unicode="&#xe601;" glyph-name="uniE601" d="M64 202.666h42.666v42.666h-42.666v-42.666zM64 117.334h42.666v42.666h-42.666v-42.666zM64 288h42.666v42.666h-42.666v-42.666zM149.333 202.666h298.667v42.666h-298.666v-42.666zM149.333 117.334h298.667v42.666h-298.666v-42.666zM149.333 330.667v-42.667h298.667v42.666h-298.666z" />
<glyph unicode="&#xe602;" glyph-name="uniE602" d="M158.934 237.867v83.2h83.2v-83.2h-83.2zM158.934 126.933v83.2h83.2v-83.2h-83.2zM158.934 16v83.2h83.2v-83.2h-83.2zM269.866 237.867v83.2h83.2v-83.2h-83.2zM269.866 126.933v83.2h83.2v-83.2h-83.2zM269.866 16v83.2h83.2v-83.2h-83.2zM269.866 348.8v83.2h83.2v-83.2h-83.2zM158.934 348.8v83.2h83.2v-83.2h-83.2z" />
<glyph unicode="&#xe603;" glyph-name="uniE603" d="M16-16h480v53.333h-480v-53.333zM16 330.667v-213.333l106.666 106.666-106.666 106.666zM229.333 90.666h266.668v53.333h-266.668v-53.333zM16 464v-53.333h480v53.333h-480zM229.333 304h266.668v53.333h-266.668v-53.333zM229.333 197.332h266.668v53.333h-266.668v-53.333z" />
<glyph unicode="&#xe604;" glyph-name="uniE604" d="M229.333 90.666h266.668v53.333h-266.668v-53.333zM16 224l106.666-106.666v213.333l-106.666-106.667zM16-16h480v53.333h-480v-53.333zM16 464v-53.333h480v53.333h-480zM229.333 304h266.668v53.333h-266.668v-53.333zM229.333 197.332h266.668v53.333h-266.668v-53.333z" />
<glyph unicode="&#xe605;" glyph-name="uniE605" d="M384 32c0 0-115.2 140.8-128 160l-128-160h-64l160 192-160 192h64c0 0 115.2-140.8 128-160l128 160h64l-160-192 160-192h-64z" />
<glyph unicode="&#xe606;" glyph-name="uniE606" d="M403.278 244.227c-41.719 36.662-94.815 59.417-152.968 59.417-103.664 0-190.893-69.531-221.234-164.346l53.096-17.699c22.755 72.060 89.758 125.156 169.403 125.156 42.982 0 83.437-16.435 113.778-42.983l-80.909-82.173h198.479v204.8l-79.644-82.173z" />
<glyph unicode="&#xe607;" glyph-name="uniE607" d="M108.722 244.227c41.718 36.662 94.815 59.417 152.968 59.417 103.664 0 190.893-69.531 221.234-164.346l-53.096-17.699c-22.755 72.060-89.758 125.156-169.403 125.156-42.983 0-83.437-16.435-113.778-42.983l80.909-82.173h-198.479v204.8l79.644-82.173z" />
<glyph unicode="&#xe608;" glyph-name="uniE608" d="M419.201 332.8h-137.813l59.84 59.84-12.693 12.694-72.534-72.534-72.534 72.534-12.694-12.694 59.84-59.84h-137.814c-19.947 0-36.267-16.32-36.267-36.267v-217.6c0-19.947 16.32-36.267 36.267-36.267h326.4c19.947 0 36.267 16.32 36.267 36.267v217.6c0 19.946-16.32 36.266-36.267 36.266zM419.201 78.933h-326.4v217.6h326.4v-217.6zM201.601 260.267v-145.066l126.933 72.534-126.933 72.534z" />
<glyph unicode="&#xe609;" glyph-name="uniE609" d="M448 53.333h-384v64h384v-64zM362.666 309.333v85.334h-64v-85.334h-85.334v-64h85.334v-85.333h64v85.334h85.334v64z" />
<glyph unicode="&#xe60a;" glyph-name="uniE60A" d="M256 437.334c-118.4 0-213.333-94.934-213.333-213.334s94.934-213.333 213.333-213.333 213.333 94.933 213.333 213.333-94.933 213.333-213.333 213.333zM362.666 147.2l-29.866-29.866-76.8 76.8-76.8-76.8-29.867 29.866 76.8 76.8-76.8 76.8 29.867 29.867 76.8-76.8 76.8 76.8 29.866-29.866-76.8-76.8 76.8-76.8z" />
<glyph unicode="&#xe60b;" glyph-name="uniE60B" d="M364.534 381.866v19.734c0 10.853-8.88 19.733-19.733 19.733h-236.8c-10.853 0-19.733-8.88-19.733-19.733v-78.934c0-10.853 8.88-19.733 19.733-19.733h236.8c10.853 0 19.733 8.88 19.733 19.733v19.733h19.733v-78.933h-197.333v-217.067c0-10.853 8.88-19.733 19.733-19.733h39.466c10.854 0 19.734 8.88 19.734 19.733v177.6h157.867v157.866h-59.2z" />
<glyph unicode="&#xe60c;" glyph-name="uniE60C" d="M321.601 329.6h28.8v-26.667h-28.8v26.666zM350.401 356.267h28.8v-26.666h-28.8v26.666zM380.267 382.933h28.8v-26.666h-28.8v26.666zM409.067 356.267h28.8v-26.666h-28.8v26.666zM409.067 410.666h28.8v-26.666h-28.8v26.666zM437.867 437.334h28.8v-26.666h-28.8v26.666zM350.401 410.666h28.8v-26.666h-28.8v26.666zM321.601 437.334h28.8v-26.666h-28.8v26.666zM437.867 329.6h28.8v-26.667h-28.8v26.666zM441.067 237.867v-16h-80v19.2c-7.466 3.2-14.933 6.4-21.334 10.666v-29.866h-75.733v72.534h33.067c-4.267 6.4-7.466 13.866-10.666 21.334h-22.4v84.267h20.267c2.134 6.4 5.334 20.267 8.534 26.666h-226.133c-11.733 0-21.334-9.6-21.334-21.334v-373.334c0-11.733 9.6-21.334 21.334-21.334h372.267c11.733 0 21.334 9.6 21.334 21.334v213.333c-6.4-3.2-12.8-5.333-19.2-7.466v0zM147.733 30.933h-77.867v75.733h77.867v-75.733zM147.733 128h-77.867v166.4h77.867v-166.4zM147.733 315.733h-77.867v84.267h77.867v-84.267zM339.733 30.933h-75.733v75.733h75.733v-75.733zM339.733 128h-75.733v72.534h75.733v-72.534zM441.067 30.933h-80v75.733h80v-75.733zM441.067 128h-80v72.534h80v-72.534z" />
<glyph unicode="&#xe60d;" glyph-name="uniE60D" d="M401.067 252.8c-46.933 0-87.466 25.6-109.866 64h-32v75.733h16c1.067 6.4 2.134 17.067 3.2 23.466h-211.2c-11.733 0-21.334-9.6-21.334-21.333v-362.667c0-11.733 9.6-21.334 21.334-21.334h373.334c11.733 0 21.334 9.6 21.334 21.334v231.466c-16-6.4-42.666-10.666-60.8-10.666zM146.133 29.866h-74.666v78.933h74.666v-78.933zM146.133 129.067h-74.666v74.666h74.666v-74.666zM146.133 316.8h-74.666v75.733h74.666v-75.733zM237.867 29.866h-71.466v78.933h71.466v-78.933zM237.867 129.067h-71.466v74.666h71.466v-74.666zM237.867 316.8h-71.466v75.733h71.466v-75.733zM329.6 29.866h-70.4v78.933h71.466v-78.933zM329.6 129.067h-70.4v74.666h71.466v-74.666zM433.067 29.866h-82.134v78.933h82.134v20.267h-82.134v74.666h82.134v-173.866zM326.4 332.8h27.733v-25.6h-27.733v25.6zM354.134 358.4h27.733v-25.6h-27.733v25.6zM381.866 385.067h27.733v-25.6h-27.733v25.6zM409.6 358.4h27.733v-25.6h-27.733v25.6zM409.6 411.733h27.733v-25.6h-27.733v25.6zM438.4 437.334h27.733v-25.6h-27.733v25.6zM354.134 411.733h27.733v-25.6h-27.733v25.6zM326.4 437.334h27.733v-25.6h-27.733v25.6zM438.4 332.8h27.733v-25.6h-27.733v25.6z" />
<glyph unicode="&#xe60e;" glyph-name="uniE60E" d="M176 210.666v26.666h-67.2v53.334l-66.133-66.133 67.2-67.2v53.334h66.133zM122.666 290.667h26.666v80h53.334v-80h-53.334v-26.667h53.334v-80h-53.334v-26.666h-26.666v-85.334c0-11.733 9.6-21.334 21.334-21.334h304c11.733 0 21.334 9.6 21.334 21.334v304c0 11.733-9.6 21.334-21.334 21.334h-304c-11.733 0-21.334-9.6-21.334-21.334v-85.334zM149.333 77.333v80h53.333v-80h-53.334zM442.666 157.333v-80h-53.334v80h53.334zM362.666 157.333v-80h-53.334v80h53.334zM442.666 263.999v-80h-53.334v80h53.334zM362.666 263.999v-80h-53.334v80h53.334zM442.666 370.666v-80h-53.334v80h53.334zM362.666 370.666v-80h-53.334v80h53.334z" />
<glyph unicode="&#xe60f;" glyph-name="uniE60F" d="M336 237.333v-26.667h67.2v-53.334l66.133 67.2-67.2 67.2v-53.334h-66.133zM389.334 157.334h-26.666v-80h-53.334v80h53.334v26.666h-53.334v80h53.334v26.666h26.666v85.334c0 11.733-9.6 21.333-21.334 21.333h-304c-11.733 0-21.334-9.6-21.334-21.333v-304c0-11.733 9.6-21.334 21.334-21.334h304c11.733 0 21.334 9.6 21.334 21.334v85.334zM362.666 370.667v-80h-53.334v80h53.334zM69.334 290.667v80h53.334v-80h-53.334zM149.333 290.667v80h53.333v-80h-53.334zM69.334 184v80h53.334v-80h-53.334zM149.333 184v80h53.333v-80h-53.334zM69.334 77.334v80h53.334v-80h-53.334zM149.333 77.334v80h53.333v-80h-53.334z" />
<glyph unicode="&#xe610;" glyph-name="uniE610" d="M269.334 144h-26.666v-67.2h-53.334l66.133-66.133 67.2 67.2h-53.334v66.133zM189.333 90.666v26.666h-80v53.334h80v-53.334h26.667v53.334h80v-53.334h26.666v-26.666h85.334c11.733 0 21.334 9.6 21.334 21.334v304c0 11.733-9.6 21.334-21.334 21.334h-304c-11.733 0-21.334-9.6-21.334-21.334v-304c0-11.733 9.6-21.334 21.334-21.334h85.334zM402.667 117.334h-80v53.334h80v-53.334zM322.667 410.666h80v-53.334h-80v53.334zM322.667 330.667h80v-53.334h-80v53.334zM216 410.666h80v-53.334h-80v53.334zM216 330.667h80v-53.334h-80v53.334zM109.334 410.666h80v-53.334h-80v53.334zM109.334 330.667h80v-53.334h-80v53.334z" />
<glyph unicode="&#xe611;" glyph-name="uniE611" d="M242.667 304h26.667v67.2h53.334l-67.2 66.134-67.2-67.2h53.334v-66.134zM322.666 357.334v-26.666h80v-53.334h-80v53.334h-26.666v-53.334h-80v53.334h-26.666v26.666h-85.334c-11.734 0-21.334-9.6-21.334-21.334v-304c0-11.733 9.6-21.334 21.334-21.334h304c11.733 0 21.334 9.6 21.334 21.334v304c0 11.733-9.6 21.334-21.334 21.334h-85.334zM109.333 330.667h80v-53.334h-80v53.334zM189.333 37.334h-80v53.334h80v-53.334zM189.333 117.334h-80v53.334h80v-53.334zM296 37.334h-80v53.334h80v-53.334zM296 117.334h-80v53.334h80v-53.334zM402.666 37.334h-80v53.334h80v-53.334zM402.666 117.334h-80v53.334h80v-53.334z" />
<glyph unicode="&#xe612;" glyph-name="uniE612" d="M42.666 405.333v-362.666c0-11.733 9.6-21.334 21.334-21.334h384c11.733 0 21.334 9.6 21.334 21.334v362.666c0 11.733-9.6 21.334-21.334 21.334h-384c-11.733 0-21.334-9.6-21.334-21.334zM435.2 267.733h-94.933v76.8h94.933v-76.8zM209.066 166.399v68.267h98.133v-68.267h-98.133zM307.2 133.333v-73.6h-98.133v73.6h98.133zM174.934 166.399h-98.133v68.267h98.133v-68.267zM209.066 267.733v76.8h98.133v-76.8h-98.133zM340.267 233.6h94.933v-68.266h-94.933v68.267zM174.934 343.466v-76.8h-98.133v76.8h98.133zM76.8 133.333h98.133v-73.6h-98.133v73.6zM340.267 58.666v73.6h94.933v-73.6h-94.933z" />
<glyph unicode="&#xe613;" glyph-name="uniE613" d="M114.563 155.619v52.601h86.499v35.067h-86.499v52.601l-68.966-71.303 68.966-68.966zM84.171 93.668h382.231v-52.601h-382.231v52.601zM84.171 406.933h382.232v-52.601h-382.232v52.601zM253.662 302.901h212.741v-52.601h-212.74v52.601zM253.662 198.869h212.741v-52.601h-212.74v52.601z" />
<glyph unicode="&#xe614;" glyph-name="uniE614" d="M132.096 293.55v-52.601h-86.499v-35.067h86.499v-52.601l68.966 68.966-68.966 71.303zM84.171 93.668h382.231v-52.601h-382.231v52.601zM84.171 406.933h382.231v-52.601h-382.231v52.601zM253.662 302.901h212.741v-52.601h-212.74v52.601zM253.662 198.869h212.741v-52.601h-212.74v52.601z" />
<glyph unicode="&#xe615;" glyph-name="uniE615" d="M396 410.666h-280v-46.666l151.667-140-151.667-140v-46.666h280v70h-163.333l116.667 116.666-116.666 116.666h163.333v70z" />
<glyph unicode="&#xe616;" glyph-name="uniE616" d="M181.333 384v-64h106.667v-256h64v256h106.666v64h-277.334zM53.334 213.334h64v-149.334h64v149.333h64v64h-192v-64z" />
<glyph unicode="&#xe617;" glyph-name="uniE617" d="M53.334 384v-64h106.666v-256h64v256h106.666v64h-277.334zM458.666 277.333h-192v-64h64v-149.333h64v149.333h64v64z" />
<glyph unicode="&#xe618;" glyph-name="uniE618" d="M363.373 213.553l-207.78 207.78-32.502-32.502 55.718-55.718-119.561-119.56c-13.93-13.93-13.93-35.984 0-48.753l127.686-127.686c6.964-6.964 16.251-10.447 24.376-10.447s17.412 3.483 24.376 10.447l127.686 127.687c13.93 12.769 13.93 34.824 0 48.753zM99.875 189.176l111.435 111.435 111.435-111.435h-222.87zM420.252 154.353c0 0-46.431-49.913-46.431-81.255 0-25.537 20.894-46.431 46.431-46.431s46.431 20.894 46.431 46.431c0 31.341-46.431 81.255-46.431 81.255z" />
<glyph unicode="&#xe619;" glyph-name="uniE619" d="M447.36 469.334h-382.72c-29.44 0-53.974-24.534-53.974-53.974v-381.493c0-30.666 24.534-55.2 53.974-55.2h381.493c29.44 0 53.974 24.534 53.974 53.974v382.72c1.226 29.44-23.307 53.974-52.746 53.974zM165.226 385.92l34.346 34.346 147.2-147.2-147.2-147.2-34.346 34.346 112.853 112.853-112.853 112.853zM378.666 27.733h-245.333v49.067h245.333v-49.067z" />
<glyph unicode="&#xe61a;" glyph-name="uniE61A" d="M24.822 37.333l112 163.693-107.693 152.204h99.078l54.565-86.154 57.435 86.154h96.204l-104.82-149.334 114.871-166.565h-100.513l-63.18 99.077-63.18-99.077h-94.769zM485.745 257.026v-33.026h-124.923c1.435 12.923 5.744 24.411 12.923 35.898s20.103 25.846 40.204 44.513c15.796 14.359 25.846 24.411 30.154 30.154 4.307 7.18 7.18 14.359 7.18 21.538s-1.435 14.359-5.744 18.666c-4.307 4.307-10.051 5.744-17.231 5.744s-12.923-2.872-17.231-7.18c-4.307-4.307-7.18-11.487-7.18-21.538l-35.897 2.872c1.435 18.666 8.615 33.026 20.103 41.642 11.487 10.051 25.846 14.36 40.204 14.36 18.666 0 33.026-4.307 43.077-14.36s15.796-21.538 15.796-35.898c0-8.615-1.435-15.795-4.307-24.411-2.872-7.18-7.18-15.796-14.36-22.974-4.307-5.744-11.487-12.922-22.974-22.973s-18.666-17.231-21.538-20.103-5.744-7.18-7.18-10.051l68.923-2.871z" />
<glyph unicode="&#xe61b;" glyph-name="uniE61B" d="M24.822 94.769l112 163.693-107.693 152.205h99.078l54.565-86.154 57.435 86.154h96.204l-104.82-149.334 114.871-166.565h-100.513l-63.18 99.077-63.18-99.077h-94.769zM484.31 70.36v-33.026h-124.923c1.435 12.923 5.744 24.411 12.923 35.897s20.103 25.846 40.204 44.513c15.796 14.358 25.846 24.411 30.154 30.154 4.307 7.18 7.18 14.358 7.18 21.538s-1.435 14.358-5.744 18.666c-4.307 4.307-10.051 5.744-17.231 5.744s-12.923-2.872-17.231-7.18-7.18-11.487-7.18-21.538l-35.897 2.872c1.435 18.666 8.615 33.026 20.103 41.64s25.846 12.923 41.641 12.923c18.666 0 33.026-4.307 43.077-14.358s15.796-21.538 15.796-35.897c0-8.615-1.435-15.796-4.307-24.411-2.872-7.18-7.18-15.796-14.358-22.974-4.307-5.744-11.487-12.923-22.974-22.974s-18.666-17.231-21.538-20.103-5.744-7.18-7.18-10.051l67.487-1.435z" />
<glyph unicode="&#xe61c;" glyph-name="uniE61C" d="M394.666 170.666c-27.733 0-52.267-18.134-60.8-42.666h-154.667v170.667h88.533l-106.666 106.666-2.133-2.134-1.066 2.134-1.066-4.267-103.466-102.4h83.2v-213.334h197.333c8.534-24.534 33.067-42.666 60.8-42.666 35.2 0 64 28.8 64 64s-28.8 64-64 64z" />
<glyph unicode="&#xe61d;" glyph-name="uniE61D" d="M421.818 95.031h36.849v294.788c0 20.267-16.582 36.849-36.849 36.849h-294.788v-36.849h294.788v-294.788zM90.182 21.334h257.94c20.267 0 36.849 16.582 36.849 36.849v257.94c0 20.267-16.582 36.849-36.849 36.849h-257.94c-20.267 0-36.849-16.582-36.849-36.849v-257.94c0-20.267 16.582-36.849 36.849-36.849zM90.182 316.121h257.94v-257.939h-257.94v257.94z" />
<glyph unicode="&#xe61e;" glyph-name="uniE61E" d="M405.333 394.666h-298.666c-23.466 0-42.666-19.2-42.666-42.666v-256c0-23.466 19.2-42.666 42.666-42.666h298.666c23.466 0 42.666 19.2 42.666 42.666v256c0 23.466-19.2 42.666-42.666 42.666zM405.333 96h-298.666v213.333h298.666v-213.333z" />
<glyph unicode="&#xe61f;" glyph-name="uniE61F" d="M418.51 282.039h-92.863v139.294h-139.294v-139.294h-92.863l162.51-162.51 162.51 162.51zM93.49 73.098v-46.431h325.019v46.431h-325.019z" />
<glyph unicode="&#xe620;" glyph-name="uniE620" d="M371.555 432h-277.334c-25.422 0-46.222-20.8-46.222-46.222v-323.556c0-25.422 20.8-46.222 46.222-46.222h323.555c25.422 0 46.222 20.8 46.222 46.222v277.334l-92.445 92.445zM256 62.221c-38.133 0-69.334 31.2-69.334 69.334s31.2 69.334 69.334 69.334 69.334-31.2 69.334-69.334-31.2-69.334-69.334-69.334zM325.334 293.333h-231.112v92.445h231.112v-92.445z" />
<glyph unicode="&#xe621;" glyph-name="uniE621" d="M426.666 394.666h-341.334c-23.466 0-42.666-19.2-42.666-42.666v-256c0-23.466 19.2-42.666 42.666-42.666h341.334c23.466 0 42.666 19.2 42.666 42.666v256c0 23.466-19.2 42.666-42.666 42.666zM426.666 309.333l-170.667-106.666-170.667 106.666v42.666l170.667-106.666 170.667 106.666v-42.666z" />
<glyph unicode="&#xe622;" glyph-name="uniE622" d="M88.38 437.333v-426.666l335.238 213.333-335.238 213.333z" />
<glyph unicode="&#xe623;" glyph-name="uniE623" d="M423.619 10.667v426.666l-335.238-213.333 335.238-213.333z" />
<glyph unicode="&#xe624;" glyph-name="uniE624" d="M48 432v-416h416l-416 416z" />
<glyph unicode="&#xe625;" glyph-name="uniE625" d="M45.575 58.666h420.849l-210.424 330.666-210.424-330.666z" />
<glyph unicode="&#xe626;" glyph-name="uniE626" d="M423.619 10.667v426.666l-335.238-213.333 335.238-213.333z" />
<glyph unicode="&#xe627;" glyph-name="uniE627" d="M466.425 389.333h-420.849l210.424-330.666 210.424 330.666z" />
<glyph unicode="&#xe628;" glyph-name="uniE628" d="M88.381 437.333v-426.666l335.239 213.333-335.238 213.333z" />
<glyph unicode="&#xe629;" glyph-name="uniE629" d="M416 384v-53.334h-320v53.334h320zM256 290.667l-160-226.667h320l-160 226.667z" />
<glyph unicode="&#xe62a;" glyph-name="uniE62A" d="M96 384h53.334v-320h-53.334v320zM189.333 224l226.667-160v320l-226.667-160z" />
<glyph unicode="&#xe62b;" glyph-name="uniE62B" d="M96 64v53.334h320v-53.334h-320zM256 157.334l160 226.666h-320l160-226.666z" />
<glyph unicode="&#xe62c;" glyph-name="uniE62C" d="M416 64h-53.334v320h53.334v-320zM322.666 224l-226.667 160v-320l226.667 160z" />
<glyph unicode="&#xe62d;" glyph-name="uniE62D" d="M266.666 63.467h-166.4v228.267h291.2l1.067-93.867c0 0 41.6-30.933 40.534-29.866v186.667c0 22.4-19.2 41.6-41.6 41.6h-21.334v41.6h-41.6v-41.6h-166.4v41.6h-41.6v-41.6h-21.334c-23.466 0-41.6-19.2-41.6-41.6v-291.2c0-22.4 18.134-41.6 41.6-41.6h218.667l-51.2 41.6zM349.866 219.2c-57.6 0-103.466-46.933-103.466-104.534s46.933-104.534 103.466-104.534c57.6 0 104.534 46.933 104.534 104.534s-46.933 104.534-104.534 104.534zM349.866 32.534c-45.866 0-83.2 37.334-83.2 83.2s37.334 83.2 83.2 83.2c45.866 0 83.2-37.334 83.2-83.2s-37.334-83.2-83.2-83.2zM355.2 166.933h-16v-62.933l54.4-33.067 7.466 12.8-46.933 27.733v55.466z" />
<glyph unicode="&#xe62e;" glyph-name="uniE62E" d="M405.334 394.666h-21.334v42.666h-42.666v-42.666h-170.667v42.666h-42.667v-42.666h-21.334c-23.466 0-42.666-19.2-42.666-42.666v-298.666c0-23.466 19.2-42.666 42.666-42.666h298.666c23.466 0 42.666 19.2 42.666 42.666v298.666c0 23.466-19.2 42.666-42.666 42.666zM216.534 53.334v59.733h82.134v-59.733h-82.133zM216.534 140.8v57.6h82.134v-57.6h-82.133zM326.4 53.334v58.666h78.933v-58.666h-78.933zM326.4 139.733v57.6h78.933v-57.6h-78.933zM405.334 288v-62.934h-78.933v62.934h78.933zM298.666 288v-62.934h-82.133v62.934h82.133zM187.733 224h-81.067v64h81.067v-64zM187.733 197.334v-57.6h-81.067v57.6h81.067zM187.733 113.067v-59.733h-81.067v59.733h81.067z" />
<glyph unicode="&#xe62f;" glyph-name="uniE62F" d="M127.733 64.534l159.466 159.466-159.466 159.466 48.534 48.534 208-208-208-208-48.534 48.534z" />
<glyph unicode="&#xe630;" glyph-name="uniE630" d="M383.401 383.466l-157.734-159.466 159.466-159.466-50.266-48.534-208 208 208 208 48.534-48.534z" />
<glyph unicode="&#xe631;" glyph-name="uniE631" d="M98.191 350.933l157.81-157.81 157.81 157.81 48.029-48.029-205.838-205.838-205.838 205.838 48.029 48.029z" />
<glyph unicode="&#xe632;" glyph-name="uniE632" d="M225.524 437.333l-167.619-426.666h68.572l33.525 91.428h190.476l33.524-91.428h70.094l-167.62 426.666h-60.952zM184.38 163.047l71.62 193.524 73.142-193.524h-144.762z" />
<glyph unicode="&#xe633;" glyph-name="uniE633" d="M209.067 48h93.867v70.4h-93.867v-70.4zM91.733 400v-70.4h117.333v-70.4h93.867v70.4h117.333v70.4h-328.533zM44.8 165.333h422.4v46.933h-422.4v-46.933z" />
<glyph unicode="&#xe634;" glyph-name="uniE634" d="M256 108.445c76.267 0 138.667 62.4 138.667 138.667v184.888h-57.778v-184.888c0-45.066-35.822-80.888-80.889-80.888s-80.888 35.822-80.888 80.888v184.888h-57.778v-184.888c0-76.266 62.4-138.667 138.666-138.667zM94.222 62.222v-46.222h323.555v46.222h-323.555z" />
<glyph unicode="&#xe635;" glyph-name="uniE635" d="M195.048 437.332v-91.428h67.048l-103.62-243.808h-85.334v-91.428h243.809v91.428h-67.048l103.62 243.808h85.334v91.428h-243.809z" />
<glyph unicode="&#xe636;" glyph-name="uniE636" d="M354.285 230.095c28.952 19.809 50.286 53.333 50.286 85.333 0 68.572-53.334 121.906-121.906 121.906h-190.476v-426.666h214.858c64 0 112.762 51.808 112.762 115.808 0 45.714-27.428 85.334-65.524 103.62zM183.618 361.142h91.428c25.906 0 45.714-19.809 45.714-45.714s-19.808-45.714-45.714-45.714h-91.428v91.428zM290.285 86.856h-106.666v91.428h106.666c25.906 0 45.714-19.808 45.714-45.714s-21.334-45.714-45.714-45.714z" />
<glyph unicode="&#xe637;" glyph-name="uniE637" d="M209.067 306.134v93.867l-164.267-164.267 164.267-164.267v96.213c117.333 0 199.467-37.547 258.133-119.68-23.467 117.333-93.867 234.667-258.133 258.133z" />
<glyph unicode="&#xe638;" glyph-name="uniE638" d="M44.8 48c58.667 82.133 140.8 119.68 258.133 119.68v-96.213l164.267 164.267-164.267 164.267v-93.867c-164.267-23.467-234.667-140.8-258.133-258.133z" />
<glyph unicode="&#xe639;" glyph-name="uniE639" d="M411.048 26.667v394.666l-310.096-197.333 310.096-197.333z" />
<glyph unicode="&#xe63a;" glyph-name="uniE63A" d="M65.939 74.666h380.122l-190.060 298.666-190.060-298.666z" />
<glyph unicode="&#xe63b;" glyph-name="uniE63B" d="M446.061 373.333h-380.122l190.060-298.666 190.060 298.666z" />
<glyph unicode="&#xe63c;" glyph-name="uniE63C" d="M336.178 153.6l27.377-27.377 97.777 97.778-97.778 97.778-27.377-27.377 50.844-50.844h-189.689v-39.111h188.711l-49.866-50.844zM89.778 48h185.777c21.511 0 39.111 17.6 39.111 39.111v78.222h-39.111v-78.222h-185.778v273.777h185.778v-78.223h39.111v78.223c0 21.511-17.6 39.111-39.111 39.111h-185.778c-21.511 0-39.111-17.6-39.111-39.111v-273.777c0-21.511 17.6-39.111 39.111-39.111z" />
<glyph unicode="&#xe63d;" glyph-name="uniE63D" d="M256 224c57.778 0 104 46.222 104 104s-46.222 104-104 104-104-46.222-104-104 46.222-104 104-104zM256 172c-69.334 0-208-34.666-208-104v-52h416v52c0 69.334-138.667 104-208 104z" />
<glyph unicode="&#xe63e;" glyph-name="uniE63E" d="M223.2 120.63l-42.739 42.74-13.916-13.916 56.655-56.654 122.255 121.26-13.916 13.916-108.339-107.346zM395.151 402.909h-83.491c-7.952 22.861-29.818 39.757-55.661 39.757s-47.709-16.897-55.661-39.757h-83.491c-21.867 0-39.758-17.891-39.758-39.757v-318.060c0-21.866 17.891-39.757 39.757-39.757h278.303c21.866 0 39.757 17.891 39.757 39.757v318.060c0 21.867-17.891 39.757-39.757 39.757zM256 402.909c10.933 0 19.879-8.945 19.879-19.879s-8.945-19.879-19.879-19.879-19.879 8.945-19.879 19.879 8.946 19.879 19.879 19.879zM395.151 45.091h-278.303v318.060h39.757v-59.637h198.788v59.637h39.757v-318.060z" />
<glyph unicode="&#xe63f;" glyph-name="uniE63F" d="M213.333 42.666v128h85.333v-128h106.666v170.666h64l-213.333 192-213.333-192h64v-170.667h106.666z" />
<glyph unicode="&#xe640;" glyph-name="uniE640" d="M35.81 94.476h51.809v-51.81h-51.809v51.81zM165.334 94.476h51.81v-51.81h-51.81v51.81zM294.858 94.476h51.81v-51.81h-51.81v51.81zM424.381 94.476h51.81v-51.81h-51.81v51.81zM165.334 198.094h51.81v-51.81h-51.81v51.81zM294.858 198.094h51.81v-51.81h-51.81v51.81zM424.381 198.094h51.81v-51.81h-51.81v51.81zM294.858 301.714h51.81v-51.81h-51.81v51.81zM424.381 301.714h51.81v-51.81h-51.81v51.81zM424.381 405.333h51.81v-51.809h-51.81v51.809z" />
<glyph unicode="&#xe641;" glyph-name="uniE641" d="M74.666 343.466l29.867 29.866 268.8-268.8-29.866-29.866-268.8 268.8zM170.666 202.666v42.666h4.267l42.666-42.666zM341.333 245.334v-42.666h-4.267l-42.666 42.666zM209.066 330.667h25.6v-25.6zM101.333 318.933l30.934-30.933c-27.733-7.466-49.066-33.066-49.066-64 0-36.267 29.867-66.134 66.134-66.134h85.334v-40.534h-85.334c-58.666 0-106.666 48-106.666 106.666 0 41.6 23.466 76.8 58.666 94.933zM379.733 160c27.733 7.466 49.067 33.067 49.067 64 0 36.267-29.866 66.134-66.134 66.134h-85.334v40.534h85.334c58.666 0 106.666-48 106.666-106.666 0-41.6-23.466-76.8-58.666-94.933l-30.933 30.933zM302.933 117.334h-25.6v25.6z" />
<glyph unicode="&#xe642;" glyph-name="uniE642" d="M83.2 224c0 36.267 29.867 66.134 66.134 66.134h85.334v40.534h-85.334c-58.666 0-106.666-48-106.666-106.667s48-106.666 106.666-106.666h85.334v40.534h-85.334c-36.267 0-66.133 29.866-66.133 66.133zM170.667 202.666h170.667v42.666h-170.667v-42.666zM362.666 330.667h-85.334v-40.534h85.334c36.267 0 66.133-29.867 66.133-66.134s-29.866-66.134-66.134-66.134h-85.334v-40.534h85.334c58.666 0 106.666 48 106.666 106.666s-48 106.666-106.666 106.666z" />
<glyph unicode="&#xe643;" glyph-name="uniE643" d="M256 437.334c-117.334 0-213.333-96-213.333-213.334s94.934-213.333 213.333-213.333c118.4 0 213.333 96 213.333 213.333s-96 213.333-213.333 213.333zM256 53.334c-93.867 0-170.667 76.8-170.667 170.667s76.8 170.667 170.667 170.667 170.667-76.8 170.667-170.667-76.8-170.667-170.667-170.667zM266.666 330.667h-32v-128l112-67.2 16 26.666-96 56.534v112z" />
<glyph unicode="&#xe644;" glyph-name="uniE644" d="M414.933 202.666c1.067 6.4 1.067 13.866 1.067 21.334s-1.067 13.867-1.067 21.334l44.8 35.2c4.267 3.2 5.334 8.534 2.134 13.866l-42.666 73.6c-2.134 4.267-8.534 6.4-12.8 4.267l-53.334-21.334c-10.666 8.534-23.466 16-36.267 21.334l-7.466 56.534c-1.067 4.267-5.334 8.533-10.666 8.533h-85.334c-5.333 0-9.6-4.266-10.666-8.534l-8.534-56.534c-12.8-5.333-24.534-12.8-36.267-21.333l-53.334 21.334c-5.334 2.133-10.666 0-12.8-4.267l-42.666-73.6c-3.2-4.266-1.066-10.666 2.133-13.866l45.867-35.2c0-7.466-1.067-13.867-1.067-21.334s1.067-13.866 1.067-21.334l-44.8-35.2c-4.267-3.2-5.334-8.534-2.133-13.866l42.666-73.6c2.133-4.267 8.534-6.4 12.8-4.267l53.334 21.334c10.666-8.534 23.466-16 36.267-21.334l8.534-56.534c1.066-5.334 5.333-8.534 10.666-8.534h85.334c5.334 0 9.6 4.267 10.666 8.534l8.534 56.534c12.8 5.334 24.534 12.8 36.267 21.334l53.334-21.334c5.334-2.134 10.666 0 12.8 4.267l42.666 73.6c2.134 4.267 1.067 10.666-2.134 13.866l-46.933 35.2zM255.999 149.334c-41.6 0-74.667 33.067-74.667 74.666s33.066 74.666 74.666 74.666 74.666-33.066 74.666-74.666-33.067-74.666-74.666-74.666z" />
<glyph unicode="&#xe645;" glyph-name="uniE645" d="M395.152 402.909h-83.491c-7.952 22.861-29.818 39.757-55.661 39.757s-47.709-16.897-55.661-39.757h-83.491c-21.867 0-39.758-17.891-39.758-39.757v-318.060c0-21.866 17.891-39.757 39.757-39.757h278.303c21.866 0 39.757 17.891 39.757 39.757v318.060c0 21.867-17.891 39.757-39.757 39.757zM256.001 402.909c10.933 0 19.879-8.945 19.879-19.879s-8.945-19.879-19.879-19.879-19.879 8.945-19.879 19.879 8.946 19.879 19.879 19.879zM395.152 45.091h-278.303v318.060h39.757v-59.637h198.788v59.637h39.757v-318.060z" />
<glyph unicode="&#xe646;" glyph-name="uniE646" d="M345.454 442.666h-238.546c-21.867 0-39.757-17.891-39.757-39.757v-278.303h39.757v278.303h238.546v39.757zM405.091 363.151h-218.667c-21.867 0-39.757-17.891-39.757-39.757v-278.303c0-21.866 17.891-39.757 39.757-39.757h218.667c21.866 0 39.757 17.891 39.757 39.757v278.303c0 21.866-17.891 39.757-39.757 39.757zM405.091 45.091h-218.667v278.303h218.667v-278.303z" />
<glyph unicode="&#xe647;" glyph-name="uniE647" d="M256 101.334l132.267-80-35.2 150.4 116.267 100.267-153.6 12.8-59.733 141.866-59.733-141.866-153.6-12.8 116.266-101.334-35.2-149.333 132.267 80z" />
<glyph unicode="&#xe648;" glyph-name="uniE648" d="M396.8 227.2l-97.067 48c-3.2 1.066-7.466 2.133-11.733 2.133h-16v128c0 18.134-13.866 32-32 32s-32-13.866-32-32v-229.333l-73.6 16c-2.133 0-3.2 1.067-5.333 1.067-6.4 0-12.8-3.2-17.067-7.466l-16-17.067 105.6-105.6c6.4-5.334 11.733-9.6 11.733-9.6h164.267c10.666 10.666 21.334 35.2 24.534 49.067 5.334 22.4 12.8 90.666 12.8 90.666 0 1.067 0 3.2 0 4.267 1.067 12.8-7.466 24.534-18.134 29.867zM213.333 58.666h164.267v-48h-164.267v48z" />
<glyph unicode="&#xe649;" glyph-name="uniE649" d="M177.052 105.082c-21.711 0-39.475-17.764-39.475-39.474s17.763-39.474 39.475-39.474 39.475 17.764 39.475 39.474-17.763 39.474-39.475 39.474zM58.627 420.88v-39.474h39.475l71.054-150.004-26.645-48.356c-2.96-4.935-4.934-11.842-4.934-18.75 0-21.711 17.763-39.474 39.475-39.474h236.848v39.474h-228.953c-2.96 0-4.934 1.974-4.934 4.935l0.987 1.974 17.763 32.567h147.043c14.803 0 27.632 7.895 34.541 20.724l71.055 128.293c1.974 2.96 1.974 5.921 1.974 9.868 0 10.855-8.882 19.738-19.738 19.738h-292.113l-18.751 39.474-64.147-0.987zM374.425 105.082c-21.711 0-39.474-17.764-39.474-39.474s17.764-39.474 39.474-39.474 39.474 17.764 39.474 39.474-17.764 39.474-39.474 39.474z" />
<glyph unicode="&#xe64a;" glyph-name="uniE64A" d="M177.052 105.082c-21.711 0-39.475-17.764-39.475-39.474s17.763-39.474 39.475-39.474 39.475 17.764 39.475 39.474-17.763 39.474-39.475 39.474zM58.627 420.88v-39.474h39.475l71.054-150.004-26.645-48.356c-2.96-4.935-4.934-11.842-4.934-18.75 0-21.711 17.763-39.474 39.475-39.474h236.848v39.474h-228.953c-2.96 0-4.934 1.974-4.934 4.935l0.987 1.974 17.763 32.567h147.043c14.803 0 27.632 7.895 34.541 20.724l71.055 128.293c1.974 2.96 1.974 5.921 1.974 9.868 0 10.855-8.882 19.738-19.738 19.738h-292.113l-18.751 39.474-64.147-0.987zM374.425 105.082c-21.711 0-39.474-17.764-39.474-39.474s17.764-39.474 39.474-39.474 39.474 17.764 39.474 39.474-17.764 39.474-39.474 39.474z" />
<glyph unicode="&#xe64b;" glyph-name="uniE64B" d="M43.733 436.267l78.744-357.774 78.744 126.676 193.436-193.436 73.609 71.897-195.147 195.147 128.387 78.744z" />
<glyph unicode="&#xe64c;" glyph-name="uniE64C" d="M21.334 21.334h469.334l-234.667 405.334-234.667-405.334zM277.334 85.334h-42.666v42.666h42.666v-42.666zM277.334 170.666h-42.666v85.334h42.666v-85.334z" />
<glyph unicode="&#xe64d;" glyph-name="uniE64D" d="M342.837 172.476h-18.525l-5.789 5.789c23.157 26.63 35.892 60.207 35.892 98.416 0 83.364-67.154 150.518-150.518 150.518s-150.518-67.154-150.518-150.518 67.154-150.518 150.518-150.518c37.051 0 71.786 13.894 98.416 35.892l5.789-6.947v-18.525l115.784-115.784 34.735 34.735-115.784 116.942zM203.898 172.476c-57.892 0-104.205 46.313-104.205 104.205s46.313 104.205 104.205 104.205 104.205-46.313 104.205-104.205-46.313-104.205-104.205-104.205zM146.006 288.26h115.783v-23.157h-115.784v23.157z" />
<glyph unicode="&#xe64e;" glyph-name="uniE64E" d="M342.857 171.885h-18.529l-6.949 5.791c23.162 26.637 35.901 60.221 35.901 98.438 0 83.383-67.17 150.552-150.552 150.552s-149.394-67.169-149.394-150.552 67.169-150.552 150.552-150.552c37.059 0 71.802 13.897 98.438 35.901l5.791-6.949v-17.372l115.81-115.81 34.743 34.743-115.81 115.81zM203.886 171.885c-57.905 0-104.228 46.324-104.228 104.228s46.323 104.228 104.228 104.228 104.229-46.323 104.229-104.228-46.324-104.228-104.228-104.228zM261.791 264.533h-46.323v-46.324h-23.162v46.324h-46.323v23.162h46.323v46.324h23.162v-46.324h46.323v-23.162z" />
<glyph unicode="&#xe64f;" glyph-name="uniE64F" d="M42.666 224c0-117.334 96-213.333 213.334-213.333s213.333 96 213.333 213.333-96 213.333-213.333 213.333-213.333-96-213.333-213.333zM426.666 224c0-93.866-76.8-170.667-170.667-170.667s-170.667 76.8-170.667 170.667 76.8 170.667 170.667 170.667 170.667-76.8 170.667-170.667zM277.334 116.267v119.466h74.666l-96 96-96-96h74.666v-119.466h42.666z" />
<glyph unicode="&#xe650;" glyph-name="uniE650" d="M256 10.666c117.334 0 213.333 96 213.333 213.334s-96 213.333-213.333 213.333-213.333-96-213.333-213.333 96-213.333 213.333-213.333zM256 394.666c93.866 0 170.667-76.8 170.667-170.666s-76.8-170.667-170.667-170.667-170.667 76.8-170.667 170.667 76.8 170.667 170.667 170.667zM363.733 245.333h-119.466v74.667l-96-96 96-96v74.666h119.466v42.666z" />
<glyph unicode="&#xe651;" glyph-name="uniE651" d="M469.334 224c0 117.334-96 213.333-213.334 213.333s-213.333-96-213.333-213.333 96-213.333 213.333-213.333 213.333 96 213.333 213.333zM85.334 224c0 93.866 76.8 170.667 170.666 170.667s170.667-76.8 170.667-170.667-76.8-170.667-170.667-170.667-170.667 76.8-170.667 170.667zM234.667 331.733v-119.466h-74.667l96-96 96 96h-74.666v119.466h-42.666z" />
<glyph unicode="&#xe652;" glyph-name="uniE652" d="M256 437.334c-117.334 0-213.333-96-213.333-213.334s96-213.333 213.333-213.333 213.333 96 213.333 213.333-96 213.333-213.333 213.333zM256 53.334c-93.867 0-170.667 76.8-170.667 170.667s76.8 170.667 170.667 170.667 170.667-76.8 170.667-170.667-76.8-170.667-170.667-170.667zM148.267 202.666h119.466v-74.666l96 96-96 96v-74.666h-119.466v-42.666z" />
<glyph unicode="&#xe653;" glyph-name="uniE653" d="M46.933 101.563v-86.63h86.63l255.269 255.269-86.63 86.63-255.269-255.269zM455.826 337.197c9.24 9.24 9.24 23.101 0 32.341l-54.288 54.288c-9.24 9.24-23.101 9.24-32.341 0l-42.737-42.737 86.63-86.63 42.737 42.737z" />
<glyph unicode="&#xe654;" glyph-name="uniE654" d="M234.667 160h42.667v-42.666h-42.666v42.666zM234.667 330.667h42.667v-128h-42.666v128zM256 437.334c-117.334 0-213.333-96-213.333-213.334s94.934-213.333 213.333-213.333c118.4 0 213.333 96 213.333 213.333s-96 213.333-213.333 213.333zM256 53.334c-93.867 0-170.667 76.8-170.667 170.667s76.8 170.667 170.667 170.667 170.667-76.8 170.667-170.667-76.8-170.667-170.667-170.667z" />
<glyph unicode="&#xe655;" glyph-name="uniE655" d="M256 437.334c-117.334 0-213.333-96-213.333-213.334s94.934-213.333 213.333-213.333c118.4 0 213.333 96 213.333 213.333s-96 213.333-213.333 213.333zM256 53.334c-93.867 0-170.667 76.8-170.667 170.667s76.8 170.667 170.667 170.667 170.667-76.8 170.667-170.667-76.8-170.667-170.667-170.667zM330.666 245.333c18.134 0 32 13.867 32 32s-13.866 32-32 32-32-13.866-32-32 13.866-32 32-32zM181.333 245.333c18.133 0 32 13.867 32 32s-13.867 32-32 32-32-13.866-32-32 13.867-32 32-32zM256 128c28.8 0 54.4 8.534 64 21.334h-128c9.6-12.8 35.2-21.334 64-21.334z" />
<glyph unicode="&#xe656;" glyph-name="uniE656" d="M469.333 394.666l-42.666 42.666-170.667-170.666-170.667 170.666-42.666-42.666 170.667-170.666-170.667-170.667 42.666-42.666 170.666 170.666 170.667-170.667 42.666 42.666-170.666 170.666 170.667 170.667z" />
<glyph unicode="&#xe657;" glyph-name="uniE657" d="M179.103 129.949l-101.741 101.741-34.308-34.308 136.048-136.048 289.842 291.026-34.308 34.308-255.535-256.717z" />
<glyph unicode="&#xe658;" glyph-name="uniE658" d="M88.381 437.333v-426.666l335.239 213.333-335.238 213.333z" />
<glyph unicode="&#xe659;" glyph-name="uniE659" d="M73.142 10.666h121.906v426.666h-121.906v-426.666zM316.952 437.334v-426.666h121.906v426.666h-121.906z" />
<glyph unicode="&#xe65a;" glyph-name="uniE65A" d="M453.333 364.952h-394.666v56.381h394.666v-56.381zM256 26.666l187.466 281.904h-374.933l187.466-281.904z" />
<glyph unicode="&#xe65b;" glyph-name="uniE65B" d="M58.666 83.048h394.666v-56.381h-394.666v56.381zM256 421.333l-187.466-281.904h376.344l-188.877 281.904z" />
<glyph unicode="&#xe65c;" glyph-name="uniE65C" d="M247.701 359.754v-272.694l193.257 136.347-193.257 136.347zM235.844 223.407l-193.257 136.347v-272.694l193.257 136.347zM469.413 382.281v-317.748h-45.054v318.933l45.054-1.185z" />
<glyph unicode="&#xe65d;" glyph-name="uniE65D" d="M264.298 88.246v272.694l-193.257-136.347 193.257-136.347zM276.156 224.593l193.257-136.347v272.694l-193.257-136.347zM42.587 65.719v317.748h45.054v-318.933h-45.054z" />
<glyph unicode="&#xe65e;" glyph-name="uniE65E" d="M48 16l294.666 208-294.666 208v-416zM394.666 432v-416h69.334v416h-69.334z" />
<glyph unicode="&#xe65f;" glyph-name="uniE65F" d="M464 432l-294.666-208 294.666-208v416zM117.334 16v416h-69.334v-416h69.334z" />
<glyph unicode="&#xe660;" glyph-name="uniE660" d="M325.334 432l53.156-53.156-67.022-65.866 32.356-32.356 65.867 67.022 54.312-54.312v138.667h-138.667zM48 293.333l53.156 53.156 65.866-67.022 32.356 32.356-67.022 65.866 54.311 54.312h-138.667v-138.667zM186.667 16l-53.155 53.156 67.022 65.867-32.356 32.356-65.867-67.022-54.312 54.312v-138.666h138.667zM464 154.666l-53.156-53.156-65.867 67.022-32.356-32.356 67.022-65.867-54.312-54.312h138.666v138.667z" />
<glyph unicode="&#xe661;" glyph-name="uniE661" d="M78.385 258.111c-18.82 0-34.111-15.291-34.111-34.111s15.291-34.111 34.111-34.111 34.111 15.291 34.111 34.112-15.291 34.112-34.112 34.112zM78.385 395.733c-18.82 0-34.111-15.291-34.111-34.111s15.291-34.112 34.111-34.112 34.111 15.291 34.111 34.112-15.291 34.112-34.112 34.112zM78.385 120.49c-18.82 0-34.111-15.291-34.111-34.111s15.291-34.111 34.111-34.111 34.111 15.291 34.111 34.111c0 18.82-15.291 34.111-34.112 34.111zM147.785 64.029h319.942v45.874h-319.942v-45.874zM147.785 201.651h319.942v45.874h-319.942v-45.874zM147.785 383.971v-45.874h319.942v45.874h-319.942z" />
<glyph unicode="&#xe662;" glyph-name="uniE662" d="M44.99 112.047h44.547v-10.55h-22.273v-22.273h22.273v-10.55h-44.547v-22.273h66.82v89.093h-66.82v-23.445zM67.263 312.506h22.273v89.093h-44.547v-22.273h22.273v-66.82zM44.99 245.686h39.857l-39.857-46.891v-19.929h66.82v22.273h-39.857l39.857 46.891v19.929h-66.82v-22.273zM156.357 379.326v-44.547h310.654v44.547h-310.654zM156.357 67.501h310.654v44.546h-310.654v-44.546zM156.357 201.14h310.654v44.547h-310.654v-44.547z" />
<glyph unicode="&#xe663;" glyph-name="uniE663" d="M44.99 112.047h44.547v-10.55h-22.273v-22.273h22.273v-10.55h-44.547v-22.273h66.82v89.093h-66.82v-23.445zM67.263 312.506h22.273v89.093h-44.547v-22.273h22.273v-66.82zM44.99 245.686h39.857l-39.857-46.891v-19.929h66.82v22.273h-39.857l39.857 46.891v19.929h-66.82v-22.273zM156.357 379.326v-44.547h310.654v44.547h-310.654zM156.357 67.501h310.654v44.546h-310.654v-44.546zM156.357 201.14h310.654v44.547h-310.654v-44.547z" />
<glyph unicode="&#xe664;" glyph-name="uniE664" d="M149.333 437.333v-426.666l213.333 213.333-213.333 213.333z" />
<glyph unicode="&#xe665;" glyph-name="uniE665" d="M362.666 10.667v426.666l-213.333-213.333 213.333-213.333z" />
<glyph unicode="&#xe666;" glyph-name="uniE666" d="M469.333 330.667h-426.666l213.333-213.334 213.333 213.334z" />
<glyph unicode="&#xe667;" glyph-name="uniE667" d="M42.667 117.333h426.666l-213.333 213.334-213.333-213.334z" />
<glyph unicode="&#xe668;" glyph-name="uniE668" d="M59.958 364.868h-15.261v-46.956h62.217zM358.13 200.521h38.739v46.956h-85.695zM177.349 247.478h-62.217v-46.956h109.174zM294.739 130.087h-85.695v-46.956h93.913v38.739zM193.783 364.868l46.956-46.956h226.564v46.956zM51.504 365.942l33.203 33.202 317.087-317.087-33.202-33.202-317.087 317.087z" />
<glyph unicode="&#xe669;" glyph-name="uniE669" d="M208 80h96v48h-96v-48zM40 368v-48h432v48h-432zM112 200h288v48h-288v-48z" />
<glyph unicode="&#xe66a;" glyph-name="uniE66A" d="M38.29 412.114l30.212 30.127 405.207-406.355-30.212-30.127-405.207 406.355zM380.815 74.643h-316.8v-42.666h359.466zM448.015 117.31v42.666h-40.534zM295.481 159.976h-231.466v-42.666h274.134zM194.148 373.31h253.867v42.666h-296.534zM64.014 330.643v-42.667h103.466l-42.666 42.666zM279.481 287.976h168.534v42.666h-211.2zM210.148 245.31h-146.133v-42.666h188.8zM364.815 202.644h83.2v42.666h-125.866z" />
<glyph unicode="&#xe66b;" glyph-name="uniE66B" d="M48 16h416v46.222h-416v-46.222zM186.667 108.445h277.333v46.222h-277.334v-46.222zM48 200.889h416v46.222h-416v-46.222zM186.667 293.333h277.333v46.222h-277.334v-46.222zM48 432v-46.222h416v46.222h-416z" />
<glyph unicode="&#xe66c;" glyph-name="uniE66C" d="M48 16h416v46.222h-416v-46.222zM48 108.445h416v46.222h-416v-46.222zM48 200.889h416v46.222h-416v-46.222zM48 293.333h416v46.222h-416v-46.222zM48 432v-46.222h416v46.222h-416z" />
<glyph unicode="&#xe66d;" glyph-name="uniE66D" d="M140.445 154.666v-46.222h231.112v46.222h-231.112zM48 16h416v46.222h-416v-46.222zM48 200.889h416v46.222h-416v-46.222zM140.445 339.555v-46.222h231.112v46.222h-231.112zM48 432v-46.222h416v46.222h-416z" />
<glyph unicode="&#xe66e;" glyph-name="uniE66E" d="M342.837 172.476h-18.525l-5.789 5.789c23.157 26.63 35.892 60.207 35.892 98.416 0 83.364-67.154 150.518-150.518 150.518s-150.518-67.154-150.518-150.518 67.154-150.518 150.518-150.518c37.051 0 71.786 13.894 98.416 35.892l5.789-6.947v-18.525l115.784-115.784 34.735 34.735-115.784 116.942zM203.898 172.476c-57.892 0-104.205 46.313-104.205 104.205s46.313 104.205 104.205 104.205 104.205-46.313 104.205-104.205-46.313-104.205-104.205-104.205z" />
<glyph unicode="&#xe66f;" glyph-name="uniE66F" d="M464 62.223v323.555c0 25.422-20.8 46.222-46.222 46.222h-323.555c-25.422 0-46.222-20.8-46.222-46.222v-323.555c0-25.422 20.8-46.222 46.222-46.222h323.555c25.422 0 46.222 20.8 46.222 46.222zM175.111 189.334l57.778-69.334 80.888 104 104-138.667h-323.555l80.888 104z" />
<glyph unicode="&#xe670;" glyph-name="uniE670" d="M267.255 260.267c-15.007 42.519-55.025 72.533-102.547 72.533-60.028 0-108.8-48.772-108.8-108.8s48.772-108.8 108.8-108.8c47.522 0 87.54 30.014 102.547 72.533h78.786v-72.533h72.533v72.533h37.517v72.533h-188.837zM164.708 187.733c-20.009 0-36.267 16.257-36.267 36.267s16.257 36.267 36.267 36.267 36.267-16.257 36.267-36.267-16.257-36.267-36.267-36.267z" />
<glyph unicode="&#xe671;" glyph-name="uniE671" d="M383.401 64.534l-157.734 159.466 159.466 159.466-50.266 48.534-208-208 208-208 48.534 48.534z" />
<glyph unicode="&#xe672;" glyph-name="uniE672" d="M98.191 97.067l157.81 157.81 157.81-157.81 48.029 48.029-205.838 205.838-205.838-205.838 48.029-48.029z" />
<glyph unicode="&#xe673;" glyph-name="uniE673" d="M413.81 350.933l-157.81-157.81-157.81 157.81-48.029-48.029 205.838-205.838 205.838 205.838-48.029 48.029z" />
<glyph unicode="&#xe674;" glyph-name="uniE674" d="M127.733 383.466l159.466-159.466-159.466-159.466 48.534-48.534 208 208-208 208-48.534-48.534z" />
<glyph unicode="&#xe675;" glyph-name="uniE675" d="M448 192h-384v64h384v-64z" />
<glyph unicode="&#xe676;" glyph-name="uniE676" d="M469.334 193.524h-182.858v-182.858h-60.952v182.858h-182.858v60.952h182.858v182.858h60.952v-182.858h182.858v-60.952z" />
<glyph unicode="&#xe677;" glyph-name="uniE677" horiz-adv-x="528" d="M471.88 269.93h-156.168l63.156 64.305c-62.008 62.008-164.207 64.305-226.215 2.297-63.156-62.008-63.156-163.059 0-225.067s164.207-62.008 227.363 0c31.004 31.004 47.081 66.601 47.081 112.534h45.932c0-45.932-20.669-104.495-60.86-144.685-80.381-80.381-211.287-80.381-291.668 0-80.381 79.233-81.529 208.99 0 289.372s210.139 79.233 290.519 0l60.86 64.305v-163.059z" />
<glyph unicode="&#xe678;" glyph-name="uniE678" d="M182.044 114.222h146.756v146.755h98.222l-171.022 171.022-171.022-171.022h98.222v-146.755zM84.978 64.534h342.045v-48.534h-342.045v48.534z" />
<glyph unicode="&#xe679;" glyph-name="uniE679" d="M313.778 250.577l93.6 92.445 56.622-60.089v149.067h-150.222l61.245-56.622-93.6-92.445 32.356-32.356zM198.222 198.577l-93.6-92.445-56.622 60.089v-150.222h150.222l-61.245 56.622 93.6 92.445-32.356 33.512z" />
<glyph unicode="&#xe67a;" glyph-name="uniE67A" d="M438.577 249.422h-156v182.578h-188.356c-25.422 0-46.222-20.8-46.222-46.222v-323.556c0-25.422 20.8-46.222 46.222-46.222h323.555c25.422 0 46.222 20.8 46.222 46.222v187.2h-25.422zM360 224v-78.578h-78.578v78.578h78.578zM256 145.422h-78.578v78.578h78.578v-78.578zM256 249.422h-78.578v78.578h78.578v-78.578zM74.578 328h77.422v-78.578h-77.422v78.578zM74.578 224h77.422v-78.578h-77.422v78.578zM74.578 41.422v78.578h77.422v-78.578h-77.422zM178.577 41.422v78.578h77.422v-78.578h-77.422zM282.577 41.422v78.578h77.422v-78.578h-77.422zM438.577 41.422h-52v78.578h52v-78.578zM438.577 145.422h-52v78.578h52v-78.578zM297.599 284.089l18.488-18.488 64.712 64.712 62.4-64.712 18.488 20.8-62.4 62.4 62.4 62.4-18.488 18.488-62.4-62.4-64.712 62.4-18.488-18.488 64.712-62.4-64.712-64.712z" />
<glyph unicode="&#xe67b;" glyph-name="uniE67B" d="M200.534 125.866l-98.133 98.134 98.133 98.134-29.867 29.866-128-128 128-128 29.867 29.866zM311.466 125.866l98.134 98.134-98.134 98.134 29.866 29.866 128-128-128-128-29.866 29.866z" />
<glyph unicode="&#xe67c;" glyph-name="uniE67C" d="M48 16h416v416l-416-416z" />
<glyph unicode="&#xe67d;" glyph-name="uniE67D" d="M98.191 97.067l157.81 157.81 157.81-157.81 48.029 48.029-205.838 205.838-205.838-205.838 48.029-48.029z" />
<glyph unicode="&#xe67e;" glyph-name="uniE67E" d="M88.381 437.333v-426.666l335.239 213.333-335.238 213.333z" />
<glyph unicode="&#xe67f;" glyph-name="uniE67F" d="M256 432c-114.4 0-208-93.6-208-208s93.6-208 208-208c19.644 0 34.666 15.022 34.666 34.666 0 9.245-3.466 17.334-9.245 23.111s-9.245 13.866-9.245 23.111c0 19.644 15.022 34.666 34.666 34.666h41.6c63.555 0 115.555 52 115.555 115.555 0 101.689-93.6 184.888-208 184.888zM128.888 224c-19.644 0-34.666 15.022-34.666 34.666s15.022 34.666 34.666 34.666 34.667-15.022 34.667-34.666-15.022-34.666-34.666-34.666zM198.222 316.445c-19.644 0-34.667 15.022-34.667 34.666s15.022 34.666 34.666 34.666 34.666-15.022 34.666-34.666-15.022-34.666-34.666-34.666zM313.778 316.445c-19.644 0-34.666 15.022-34.666 34.666s15.022 34.666 34.666 34.666 34.666-15.022 34.666-34.666-15.022-34.666-34.666-34.666zM383.111 224c-19.644 0-34.666 15.022-34.666 34.666s15.022 34.666 34.666 34.666 34.666-15.022 34.666-34.666-15.022-34.666-34.666-34.666z" />
<glyph unicode="&#xe680;" glyph-name="uniE680" d="M205.867 316.8c5.333 10.666 7.466 22.4 7.466 35.2 0 46.933-38.4 85.334-85.334 85.334s-85.334-38.4-85.334-85.334 38.4-85.333 85.334-85.333c12.8 0 24.533 3.2 35.2 7.466l50.133-50.134-50.133-50.134c-10.666 5.334-22.4 7.466-35.2 7.466-46.933 0-85.334-38.4-85.334-85.334s38.4-85.334 85.334-85.334 85.334 38.4 85.334 85.334c0 12.8-3.2 24.534-7.466 35.2l50.133 50.134 149.333-149.333h64v21.334l-263.466 263.466zM128 309.334c-23.466 0-42.666 19.2-42.666 42.666s19.2 42.667 42.666 42.667 42.666-19.2 42.666-42.667-19.2-42.666-42.666-42.666zM128 53.334c-23.466 0-42.666 19.2-42.666 42.666s19.2 42.666 42.666 42.666 42.666-19.2 42.666-42.666-19.2-42.666-42.666-42.666zM256 213.334c-6.4 0-10.666 4.267-10.666 10.666s4.267 10.666 10.666 10.666 10.666-4.267 10.666-10.666-4.267-10.666-10.666-10.666zM405.334 416l-128-128 42.666-42.666 149.333 149.334v21.333h-64z" />
<glyph unicode="&#xe681;" glyph-name="uniE681" d="M117.333 62.222c0-25.422 20.8-46.222 46.222-46.222h184.888c25.422 0 46.222 20.8 46.222 46.222v277.334h-277.334v-277.334zM417.777 408.889h-80.888l-23.111 23.111h-115.555l-23.112-23.111h-80.888v-46.222h323.555v46.222z" />
<glyph unicode="&#xe682;" glyph-name="uniE682" d="M325.334 154.666h-277.334v-46.222h277.334v46.222zM325.334 339.555h-277.334v-46.222h277.334v46.222zM48 200.889h416v46.222h-416v-46.222zM48 16h416v46.222h-416v-46.222zM48 432v-46.222h416v46.222h-416z" />
<glyph unicode="&#xe683;" glyph-name="uniE683" d="M167.601 388.089v-84.356c0-11.555-4.622-23.112-12.712-31.2l-75.112-78.578h132.888l42.755-177.956 43.911 176.8h132.889l-75.111 78.578c-8.089 8.088-12.712 19.644-12.712 31.2v85.512c0 24.267-19.644 43.911-43.911 43.911h-87.822c-25.422 0-45.066-19.644-45.066-43.911z" />
<glyph unicode="&#xe684;" glyph-name="uniE684" d="M422.365 313.626h-85.525c-11.716 0-23.432 4.686-31.633 12.888l-79.668 76.153v-134.732l-180.424-43.349 179.252-44.52v-134.732l79.668 76.153c8.201 8.201 19.917 12.887 31.633 12.887h85.526c24.603 0 44.52 19.917 44.52 44.521v89.041c1.171 25.774-18.745 45.692-43.349 45.692z" />
<glyph unicode="&#xe685;" glyph-name="uniE685" horiz-adv-x="522" d="M261 469.334c-134.934 0-245.333-110.4-245.333-245.334s110.4-245.333 245.333-245.333 245.333 110.4 245.333 245.333-110.4 245.333-245.333 245.333zM211.934 113.6v220.8l147.2-110.4-147.2-110.4z" />
<glyph unicode="&#xe686;" glyph-name="uniE686" d="M501.334 224c0-135.494-109.839-245.333-245.334-245.333s-245.333 109.839-245.333 245.333c0 135.494 109.84 245.333 245.333 245.333s245.333-109.839 245.333-245.333z" />
<glyph unicode="&#xe687;" glyph-name="uniE687" d="M501.334 224c0-135.494-109.839-245.333-245.334-245.333s-245.333 109.839-245.333 245.333c0 135.494 109.84 245.333 245.333 245.333s245.333-109.839 245.333-245.333z" />
<glyph unicode="&#xe688;" glyph-name="uniE688" horiz-adv-x="326" d="M290.401 64.534l-157.734 159.466 159.466 159.466-50.266 48.534-208-208 208-208 48.534 48.534z" />
<glyph unicode="&#xe689;" glyph-name="uniE689" horiz-adv-x="326" d="M34.733 383.466l159.466-159.466-159.466-159.466 48.534-48.534 208 208-208 208-48.534-48.534z" />
<glyph unicode="&#xe68a;" glyph-name="uniE68A" horiz-adv-x="522" d="M506.334 224c0-135.494-109.839-245.333-245.334-245.333s-245.333 109.839-245.333 245.333c0 135.494 109.84 245.333 245.333 245.333s245.333-109.839 245.333-245.333z" />
<glyph unicode="&#xe68b;" glyph-name="uniE68B" horiz-adv-x="269" d="M261.901 64.534l-157.734 159.466 159.466 159.466-50.266 48.534-208-208 208-208 48.534 48.534z" />
<glyph unicode="&#xe68c;" glyph-name="uniE68C" horiz-adv-x="526" d="M135 319.999h256c35.2 0 64-28.8 64-64v-64c0-35.2-28.8-64-64-64h-256c-35.2 0-63.999 28.8-63.999 64v64c0 35.2 28.8 64 63.999 64z" />
<glyph unicode="&#xe68d;" glyph-name="uniE68D" horiz-adv-x="526" d="M151.561 162.888c29.877 25.74 68.749 41.334 111.29 41.334 42.676 0 81.667-15.7 111.594-41.603l57.508 57.516c-44.688 40.544-104.005 65.246-169.101 65.246-64.949 0-124.153-24.603-168.805-64.986l57.516-57.509z" />
<glyph unicode="&#xe68e;" glyph-name="uniE68E" horiz-adv-x="526" d="M265.308 362.031l-48.275-48.281c18.38-24.023 29.324-54.038 29.324-86.615 0-35.57-13.054-68.077-34.579-93.061l48.105-48.105c33.764 37.348 54.339 86.851 54.339 141.172 0 51.328-18.384 98.359-48.913 134.891z" />
<glyph unicode="&#xe68f;" glyph-name="uniE68F" horiz-adv-x="526" d="M314.319 133.843c-21.657 25.015-34.79 57.615-34.79 93.296 0 32.693 11.026 62.803 29.525 86.863l-48.259 48.255c-30.641-36.565-49.115-83.675-49.115-135.121 0-54.428 20.653-104.021 54.546-141.391l48.095 48.101z" />
<glyph unicode="&#xe690;" glyph-name="uniE690" horiz-adv-x="526" d="M368.213 283.053c-29.18-22.437-65.707-35.804-105.362-35.804-39.512 0-75.909 13.266-105.041 35.553l-58.548-58.542c44.31-37.020 101.331-59.313 163.588-59.313 62.393 0 119.536 22.409 163.889 59.579l-58.526 58.526z" />
<glyph unicode="&#xe691;" glyph-name="uniE691" horiz-adv-x="526" d="M412.334 202.666h-128v-128h-42.666v128h-128v42.666h128v128h42.666v-128h128v-42.666z" />
<glyph unicode="&#xe692;" glyph-name="uniE692" horiz-adv-x="526" d="M103 384h320v-320h-320v320z" />
<glyph unicode="&#xe693;" glyph-name="uniE693" horiz-adv-x="526" d="M414.002 202.428h-302.005v43.144h302.005v-43.144z" />
<glyph unicode="&#xe694;" glyph-name="uniE694" horiz-adv-x="526" d="M103 384h320v-320h-320v320z" />
<glyph unicode="&#xe695;" glyph-name="uniE695" horiz-adv-x="526" d="M235.393 106.667v82.824h55.215v-82.824h69.019v110.43h41.412l-138.039 124.236-138.040-124.236h41.412v-110.43h69.019z" />
<glyph unicode="&#xe696;" glyph-name="uniE696" horiz-adv-x="526" d="M460.334 224c0-108.984-88.349-197.333-197.334-197.333s-197.333 88.349-197.333 197.333c0 108.984 88.349 197.333 197.333 197.333s197.333-88.349 197.333-197.333z" />
<glyph unicode="&#xe697;" glyph-name="uniE697" horiz-adv-x="526" d="M369.666 170.666l-106.666 106.666-106.666-106.666h213.334z" />
<glyph unicode="&#xe698;" glyph-name="uniE698" horiz-adv-x="526" d="M209.667 117.334l106.667 106.666-106.666 106.666v-213.334z" />
<glyph unicode="&#xe699;" glyph-name="uniE699" horiz-adv-x="526" d="M316.333 330.667l-106.666-106.667 106.666-106.666v213.334z" />
<glyph unicode="&#xe69a;" glyph-name="uniE69A" horiz-adv-x="526" d="M156.333 277.333l106.667-106.666 106.666 106.666h-213.333z" />
<glyph unicode="&#xe69b;" glyph-name="uniE69B" horiz-adv-x="269" d="M6.233 383.466l159.466-159.466-159.466-159.466 48.534-48.534 208 208-208 208-48.534-48.534z" />
<glyph unicode="&#xe69c;" glyph-name="uniE69C" horiz-adv-x="513" d="M-0.567 73.453v-106.52h106.52l313.878 313.877-106.52 106.52-313.877-313.877zM502.205 363.187c11.362 11.361 11.362 28.405 0 39.766l-66.752 66.752c-11.361 11.361-28.406 11.361-39.767 0l-52.548-52.548 106.52-106.52 52.548 52.548z" />
<glyph unicode="&#xe69d;" glyph-name="uniE69D" horiz-adv-x="410" d="M34.337 24.889c0-31.288 25.6-56.889 56.888-56.889h227.554c31.288 0 56.889 25.6 56.889 56.889v341.334h-341.334v-341.334zM304.557 451.555l-28.445 28.445h-142.222l-28.445-28.445h-99.555v-56.889h398.223v56.889z" />
<glyph unicode="&#xe69e;" glyph-name="uniE69E" d="M512 428.8l-51.2 51.2-204.8-204.8-204.8 204.8-51.2-51.2 204.8-204.8-204.8-204.8 51.2-51.2 204.8 204.8 204.8-204.8 51.2 51.2-204.8 204.8 204.8 204.8z" />
<glyph unicode="&#xe69f;" glyph-name="uniE69F" d="M512 187.429h-219.428v-219.428h-73.142v219.428h-219.429v73.142h219.429v219.429h73.142v-219.429h219.428v-73.142z" />
<glyph unicode="&#xe6a0;" glyph-name="uniE6A0" horiz-adv-x="678" d="M664.819 480h-651.638l325.817-512 325.817 512z" />
<glyph unicode="&#xe6a1;" glyph-name="uniE6A1" d="M89.599 480h76.8v-230.4h-76.8v230.4zM243.2 403.201v-76.8h-230.4v76.8h230.4zM307.2 352h76.8v-332.8h-76.8v332.8zM204.799 275.2h76.8v-256h-76.8v256zM448 480h-179.201v-51.2h179.201v-409.601h-307.2v204.8h-51.2v-204.8c0-28.16 23.040-51.2 51.2-51.2h307.2c28.16 0 51.2 23.040 51.2 51.2v409.601c0 28.16-23.040 51.2-51.2 51.2z" />
<glyph unicode="&#xe6a2;" glyph-name="uniE6A2" d="M455.111 480h-398.223c-31.288 0-56.889-25.6-56.889-56.889v-398.223c0-31.288 25.6-56.888 56.889-56.888h398.223c31.288 0 56.889 25.6 56.889 56.889v398.223c0 31.288-25.6 56.889-56.889 56.889zM455.111 24.889h-398.223v398.223h398.223v-398.223zM312.889 366.222l-123.734-256-103.823 85.334v-142.223h341.334z" />
<glyph unicode="&#xe6a3;" glyph-name="uniE6A3" horiz-adv-x="413" d="M5.357 480v-512l402.286 256-402.286 256z" />
<glyph unicode="&#xe6a4;" glyph-name="uniE6A4" d="M422.4 480h-332.8c-38.4 0-51.2-26.88-51.2-51.2v-409.6c0-32 32-51.2 64-51.2h311.040c32 0 60.16 19.2 60.16 51.2v409.6c0 24.32-12.8 51.2-51.2 51.2zM422.4 364.8v-345.6h-64v281.6h-76.8v-281.6h-51.2v192h-76.8v-192h-64v345.6h332.8z" />
<glyph unicode="&#xe6a5;" glyph-name="uniE6A5" d="M455.111 224c0-109.966-89.145-199.111-199.112-199.111s-199.112 89.145-199.112 199.112c0 109.966 89.145 199.112 199.112 199.112s199.112-89.145 199.112-199.112zM455.111 480h-398.223c-31.288 0-56.889-25.6-56.889-56.889v-398.223c0-31.288 25.6-56.888 56.889-56.888h398.223c31.288 0 56.889 25.6 56.889 56.889v398.223c0 31.288-25.6 56.889-56.889 56.889zM455.111 24.889h-398.223v398.223h398.223v-398.223z" />
<glyph unicode="&#xe6a6;" glyph-name="uniE6A6" d="M99.555 9.245h85.334v359.822h-85.334v-359.822zM327.111 9.245h85.334v166.4h-85.334v-166.4zM213.334 258.134v-248.889h85.334v248.889h-85.334zM0 423.111v-398.223c0-31.288 25.6-56.888 56.889-56.888h398.223c31.288 0 56.888 25.6 56.888 56.889v398.223c0 31.288-25.6 56.889-56.889 56.889h-398.223c-31.288 0-56.889-25.6-56.889-56.889zM455.111 424.534v-399.646h-398.223v399.646h398.223z" />
<glyph unicode="&#xe6a7;" glyph-name="uniE6A7" d="M462.223 480h-412.445c-27.023 0-49.778-22.755-49.778-49.778v-412.445c0-27.022 22.755-49.778 49.778-49.778h412.445c27.022 0 49.777 22.755 49.777 49.778v412.445c0 27.022-22.755 49.777-49.778 49.777zM284.446 24.889v170.666h170.666v-170.666h-170.666zM455.112 423.112v-170.666h-170.666v170.666h170.666zM227.555 252.446h-170.666v170.666h170.666v-170.666zM227.555 195.555v-170.666h-170.666v170.666h170.666z" />
<glyph unicode="&#xe6a8;" glyph-name="uniE6A8" d="M455.111 480h-398.223c-31.288 0-56.889-25.6-56.889-56.889v-398.223c0-31.288 25.6-56.888 56.889-56.888h398.223c31.288 0 56.889 25.6 56.889 56.889v398.223c0 31.288-25.6 56.889-56.889 56.889zM455.111 24.889h-398.223v398.223h398.223v-398.223zM56.877 224l199.119 199.12 199.119-199.12-199.119-199.12-199.119 199.12z" />
<glyph unicode="&#xe6a9;" glyph-name="uniE6A9" d="M455.111 480h-398.223c-31.288 0-56.889-25.6-56.889-56.889v-398.223c0-31.288 25.6-56.888 56.889-56.888h398.223c31.288 0 56.889 25.6 56.889 56.889v398.223c0 31.288-25.6 56.889-56.889 56.889zM455.111 24.889h-398.223v398.223h398.223v-398.223zM128 295.111h28.446v-28.445h-28.446v28.445zM128 181.334h28.446v-28.445h-28.446v28.445zM184.888 238.222h28.446v-28.446h-28.446v28.446zM156.445 323.555h56.888v-28.445h-56.888v28.445zM355.555 124.445v28.445h-56.889v142.222h56.889v28.446h-85.334v-199.111h28.445zM156.445 152.889h56.888v-28.445h-56.888v28.445zM213.334 295.111h28.446v-56.888h-28.446v56.888zM355.555 295.111h28.445v-142.222h-28.445v142.222zM213.334 209.777h28.446v-56.889h-28.446v56.889z" />
<glyph unicode="&#xe6aa;" glyph-name="uniE6AA" d="M422.401 480h-332.8c-38.4 0-51.2-26.88-51.2-51.2v-409.601c0-32 32-51.2 64-51.2h311.040c32 0 60.16 19.2 60.16 51.2v409.601c0 24.32-12.8 51.2-51.2 51.2zM422.401 364.8v-345.6h-332.8v345.6h332.8zM312.32 96h40.96l-69.12 106.24 62.72 98.56h-38.4l-51.2-92.16-52.48 92.16h-39.68l64-97.28-70.4-107.52h96l29.44 28.16h-69.12l40.96 65.28 56.32-93.44z" />
<glyph unicode="&#xe6ab;" glyph-name="uniE6AB" d="M435.2 480h-358.4c-28.16 0-51.2-23.040-51.2-51.2v-409.601c0-28.16 23.040-51.2 51.2-51.2h358.4c28.16 0 51.2 23.040 51.2 51.2v409.601c0 28.16-23.040 51.2-51.2 51.2zM435.2 19.2h-358.4v358.4h358.4v-358.4zM384 275.2v51.2h-151.040l51.2-51.2h99.84zM384 224h-48.64l48.64-51.2v51.2zM127.999 224v-51.2h117.76l51.2-51.2h-168.96v-51.2h220.16l25.6-25.6 35.84 35.84-271.361 271.361-35.84-35.84 92.16-92.16h-66.56z" />
<glyph unicode="&#xe6ac;" glyph-name="uniE6AC" d="M192 96h243.2v-25.6h-243.2v25.6zM192 396.8h243.2v-25.6h-243.2v25.6zM431.361 332.8h-431.361v-179.2h473.601v179.2h-42.24zM170.24 177.92h-28.16v104.959h-26.88v-52.48h-28.16v52.48h-28.16v-104.959h-28.16v130.56h56.321v-26.88h26.88v26.88h56.321v-130.56zM250.881 177.92h-56.321v130.56h56.321v-26.88h-28.16v-78.079h28.16v-25.6zM279.041 203.52h-28.16v78.079h28.16v-78.079zM389.121 281.601h-28.159v-78.079h28.159v-26.88h-28.159v26.88h-28.159v-26.88h-28.159v26.88h28.159v78.079h-28.159v26.88h28.159v-26.88h26.88v26.88h28.159v-26.88h1.279zM460.8 473.601h-294.401c-28.16 0-51.2-23.040-51.2-51.2v-89.6h51.2v89.6h294.401v-396.8h-294.401v128h-51.2v-128c0-28.159 23.040-51.2 51.2-51.2h294.401c28.159 0 51.2 23.040 51.2 51.2v396.8c0 28.159-23.040 51.2-51.2 51.2z" />
<glyph unicode="&#xe6ad;" glyph-name="uniE6AD" d="M312.178 480h-196.266c-38.4 0-69.689-31.288-69.689-69.689v-372.623c0-38.4 31.288-69.688 69.689-69.688h280.178c38.4 0 69.688 31.288 69.688 69.688v288.712l-153.6 153.6zM394.666 14.933h-278.755c-12.8 0-22.755 9.954-22.755 22.755v372.623c0 12.8 9.954 22.755 22.755 22.755h163.555v-139.377h139.377v-256c0-12.8-11.377-22.755-24.178-22.755z" />
<glyph unicode="&#xe6ae;" glyph-name="uniE6AE" d="M455.111 480h-398.223c-31.288 0-56.889-25.6-56.889-56.889v-398.223c0-31.288 25.6-56.888 56.889-56.888h398.223c31.288 0 56.889 25.6 56.889 56.889v398.223c0 31.288-25.6 56.889-56.889 56.889zM455.111 24.889h-398.223v398.223h398.223v-398.223zM355.555 396.089h-199.112l-99.555-172.089 99.555-172.089h199.112l99.555 172.089z" />
<glyph unicode="&#xe6af;" glyph-name="uniE6AF" d="M455.111 480h-398.223c-31.288 0-56.889-25.6-56.889-56.889v-398.223c0-31.288 25.6-56.888 56.889-56.888h398.223c31.288 0 56.889 25.6 56.889 56.889v398.223c0 31.288-25.6 56.889-56.889 56.889zM455.111 24.889h-398.223v398.223h398.223v-398.223zM365.512 256.712c0-60.481-49.031-109.512-109.512-109.512s-109.512 49.031-109.512 109.512c0 60.481 49.031 109.512 109.512 109.512s109.512-49.031 109.512-109.512zM318.577 343.466l-1.423-2.846h-4.266v1.423l-1.423 5.689-5.688-2.845v5.688c4.266-1.423 8.534-4.266 12.8-7.111v0zM298.666 353.423h1.423v-4.266l-1.423-1.423zM297.245 350.577v-1.423h-1.423v1.423h1.423zM287.288 339.2h2.846v1.423h1.423v-4.266l-1.423-1.423h-2.846v4.266zM236.089 330.666v-2.845l-2.845-1.423-5.689 2.845v1.423l2.845 1.423 1.423 1.423h1.423l2.845-2.845zM230.4 359.111v0 0c0 0 0 0 0 0zM227.554 357.688v0l-1.423-4.266-2.845-1.423-2.845 1.423-1.423 1.423c2.845 1.422 5.689 2.845 8.534 2.845v0zM253.155 249.6l-2.845-5.689h-2.845v-7.112l-4.266-7.112-5.689-1.423c0 0-1.423-4.266-1.423-5.688s-7.112-8.534-7.112-8.534h-4.266l1.423-2.846-1.423-4.266h-2.845l-1.423-1.423h-1.423v-2.846l-1.423-7.111h-1.423l1.423-2.846-1.423-5.688 1.423-4.266 4.266-2.846h-8.534l-4.266 5.688-2.845 9.954v1.423h1.423l1.423 4.266-1.423 1.423v7.111l1.423 1.423v24.178l-8.534 5.689-2.845 8.534-2.845 5.689h1.423l-1.423 2.845 1.423 4.266 2.845 1.423v5.689l-8.534 4.266v7.111l-4.266 1.423-4.266-1.423-5.689 2.846-7.112 5.688-4.266 8.534v-5.688l-2.845 1.423-4.266 4.266c8.534 19.912 21.334 35.555 38.4 45.512l4.266-4.266 1.423-4.266h2.845v2.846l2.845 4.266 1.423 7.111c1.423 0 2.845 1.423 4.266 1.423h4.266l1.423-5.688 5.689 4.266 2.845-2.845v-1.423l5.689-5.689v-2.845l-7.112-2.845h-5.689l-1.423-2.846h2.845l2.845-2.846 7.112-2.845-5.689-1.423-2.845-2.845-1.423 1.423v1.423h-4.266l-2.845-2.846-1.423-2.846-4.266 1.423v-5.688l-1.423 1.423v-5.688h-4.266l-2.845-4.266v-8.534l-2.845 1.423-1.423 5.689h-7.112v-1.423h-4.266l-4.266-2.846-1.423-8.534 5.689-2.846 4.266 4.266h4.266l-1.423-4.266 1.423-2.845 2.845 1.423 2.845-1.423-2.845-4.266 5.689-5.688 4.266 5.688 4.266-1.423 7.112-1.423 4.266-2.845-1.423-2.845h7.112l5.689-5.689v-2.845l7.112-2.846h4.266l8.534-4.266v-7.112zM220.446 285.154l-1.423-2.845h-2.845v2.845l2.845 1.423zM203.377 286.577l-2.845 2.846-5.689 1.423v1.423h5.689l5.689-2.846 7.112-1.423v-2.846l-4.266-2.845-4.266 1.423 2.845 2.845h-4.266zM257.423 359.111l-4.266-1.422-2.845-8.534c-1.423 0-1.423 0-2.845 0l-2.845 1.423c0 0-2.845 4.266-4.266 4.266s0 2.846 0 2.846l-1.423 2.846c5.689 1.422 11.377 1.422 17.066 1.422 1.423 0 2.846 0 2.846 0l-1.423-2.845zM274.488 359.111l2.846 1.423c2.846 0 4.266-1.423 7.111-1.423v-1.422l-4.266-2.846h-2.846l-4.266 2.846 1.423 1.422zM355.555 229.689l-2.846-4.266v-2.846h-2.846l-4.266 5.689 1.423 1.423 1.423 2.845v2.845l1.423 2.845 4.266 1.423 1.423 2.845h1.423v-4.266l-1.423-8.534zM354.134 278.046h-1.423l-4.266 2.845-1.423 2.846-4.266 2.846 1.423 2.845-7.111 9.954 1.423-7.111 2.846-1.423v-4.266l7.111-11.377 1.423-2.846 2.846 2.846h4.266v-4.266l-2.846-7.112-7.111-5.689-4.266-5.688 1.423-5.689v-7.112l-5.688-5.689v-7.112l-2.846-2.845-1.423-4.266-8.534-8.534-8.534-1.423v7.111l-4.266 2.846v11.377l-2.846 4.266v5.689l2.846 1.423v7.112l-4.266 8.534v7.112l-1.423 1.423h-2.846l-4.266 2.845-12.8-2.845-11.377 11.377v12.8l8.534 9.954 1.423 4.266 4.266 5.689h5.688l5.688 1.423 8.534-1.423v-4.266h4.266l1.423-1.423 4.266-1.423v2.846h2.846l5.688-1.423h8.534v4.266h-4.266l1.423 2.846-1.423-1.423-5.688 7.111v-5.688h4.266v-2.846h-2.846l-4.266 5.689-2.846 7.112-8.534 1.423 2.846-2.846 2.846-4.266v-2.846l-2.846-4.266-4.266 2.845 2.846 1.423v1.423l-4.266 5.689v-5.689h-2.846l1.423 5.689h-4.266l-5.688-4.266v-4.266h-11.377l1.423 11.378h5.688l2.846 1.423v1.423l1.423 1.423h-2.846l-1.423 2.845 2.846 1.423h-5.688l2.846 5.689-1.423 4.266 2.846 2.846c0 0 0-1.423 0-2.846 0 0 0 0 0-1.423s2.846-5.688 2.846-5.688l-1.423-1.423 2.846-1.423 5.688 4.266v4.266l2.846 2.846 1.423-4.266h7.111l1.423 2.845c8.534-5.689 15.646-12.8 21.334-19.911 2.846-4.266 5.688-8.534 8.534-12.8 5.688-8.534 8.534-18.488 11.377-28.445l-5.688-2.846zM290.134 124.445h-21.334c0-1.423 1.423-2.846 1.423-5.688 0-4.266-1.423-8.534-4.266-11.377s-7.111-4.266-11.377-4.266h-55.466c-4.266 0-8.534 1.423-11.377 4.266s-4.266 7.111-4.266 11.377 1.423 8.534 4.266 11.377c2.845 2.846 7.112 4.266 11.377 4.266h8.534c4.266 12.8 11.377 18.488 17.066 21.334h-25.6c-9.954 0-18.488-4.266-25.6-9.954-7.112-7.111-9.954-15.646-9.954-25.6s4.266-18.488 9.954-25.6c0 0 0 0 0 0 7.112-7.111 15.645-9.954 25.6-9.954h55.466c9.954 0 18.488 4.266 25.6 9.954 7.111 7.111 9.954 15.646 9.954 25.6 1.423 0 1.423 2.846 0 4.266v0zM344.178 118.755c0 9.954-4.266 18.488-11.377 25.6v0c-7.111 7.111-15.646 9.954-25.6 9.954h-55.466c-9.954 0-18.488-4.266-25.6-9.954-7.112-7.111-9.954-15.646-9.954-25.6 0-1.423 0-4.266 0-5.688h21.334c0 1.423-1.423 2.846-1.423 5.688 0 4.266 1.423 8.534 4.266 11.377s7.112 4.266 11.377 4.266h55.466c4.266 0 8.534-1.423 11.377-4.266s4.266-7.111 4.266-11.377c0-4.266-1.423-8.534-4.266-11.377s-7.111-4.266-11.377-4.266h-8.534c-4.266-12.8-11.377-18.488-17.066-21.334h25.6c9.954 0 18.488 4.266 25.6 11.377s11.377 15.646 11.377 25.6v0z" />
<glyph unicode="&#xe6b0;" glyph-name="uniE6B0" d="M44.090 435.911l211.911-423.822 211.911 423.822zM462.223 480h-412.445c-27.023 0-49.778-22.755-49.778-49.778v-412.445c0-27.022 22.755-49.778 49.778-49.778h412.445c27.022 0 49.777 22.755 49.777 49.778v412.445c0 27.022-22.755 49.777-49.778 49.777zM462.223 17.779h-412.445v412.445h412.445v-412.445z" />
<glyph unicode="&#xe6b1;" glyph-name="uniE6B1" d="M455.111 480h-398.223c-31.288 0-56.889-25.6-56.889-56.889v-398.223c0-31.288 25.6-56.888 56.889-56.888h398.223c31.288 0 56.889 25.6 56.889 56.889v398.223c0 31.288-25.6 56.889-56.889 56.889zM455.111 24.889h-398.223v398.223h398.223v-398.223zM256 327.822l113.778-150.755h38.4v18.488h-19.911l-132.267 170.666-95.288-170.666h-56.888v-18.488h76.8zM274.488 160l76.8-78.222h56.889v18.488h-38.4l-95.288 95.288-91.022-93.866-79.645-1.423v-18.488h95.288z" />
<glyph unicode="&#xe6b2;" glyph-name="uniE6B2" d="M462.223 480h-412.445c-27.023 0-49.778-22.755-49.778-49.778v-412.445c0-27.022 22.755-49.778 49.778-49.778h412.445c27.022 0 49.777 22.755 49.777 49.778v412.445c0 27.022-22.755 49.777-49.778 49.777zM462.223 17.779h-412.445v412.445h412.445v-412.445zM44.090 336.355h436.622v-75.378h-436.622v75.378zM44.090 187.023h436.622v-75.377h-436.622v75.377z" />
<glyph unicode="&#xe6b3;" glyph-name="uniE6B3" d="M422.401 480h-332.8c-38.4 0-51.2-26.88-51.2-51.2v-409.601c0-32 32-51.2 64-51.2h311.040c32 0 60.16 19.2 60.16 51.2v409.601c0 24.32-12.8 51.2-51.2 51.2zM422.401 428.8v-409.601h-64v307.2h-76.8v-307.2h-51.2v217.601h-76.8v-217.601h-64v409.601h332.8z" />
<glyph unicode="&#xe6b4;" glyph-name="uniE6B4" d="M192 400.64l-15.36 15.36-48.64-47.36-48.64 47.36-15.36-15.36 48.64-48.64-48.64-47.36 15.36-15.36 48.64 48.64 48.64-48.64 15.36 15.36-48.64 47.36 48.64 48.64zM128 480c-70.4 0-128-56.32-128-128s57.6-128 128-128c70.4 0 128 57.6 128 128s-57.6 128-128 128zM128 249.6c-56.32 0-102.4 46.080-102.4 102.4s46.080 102.4 102.4 102.4 102.4-46.080 102.4-102.4-46.080-102.4-102.4-102.4zM460.8 428.8h-199.68c8.96-15.36 15.36-33.28 17.92-51.2h181.76v-358.4h-358.4v180.48c-17.92 2.56-35.84 8.96-51.2 17.92v-198.401c0-28.16 23.040-51.2 51.2-51.2h358.4c28.16 0 51.2 23.040 51.2 51.2v358.4c0 28.16-23.040 51.2-51.2 51.2z" />
<glyph unicode="&#xe6b5;" glyph-name="uniE6B5" d="M435.2 480h-358.4c-28.16 0-51.2-23.040-51.2-51.2v-409.601c0-28.16 23.040-51.2 51.2-51.2h358.4c28.16 0 51.2 23.040 51.2 51.2v409.601c0 28.16-23.040 51.2-51.2 51.2zM435.2 19.2h-358.4v358.4h358.4v-358.4zM127.999 224h256v-51.2h-256v51.2zM129.28 326.4h254.72v-51.2h-254.72v51.2zM127.999 121.6h256v-51.2h-256v51.2z" />
<glyph unicode="&#xe6b6;" glyph-name="uniE6B6" d="M256 401.778l-199.112-139.377 75.377-224.712h247.466l75.377 224.712zM455.111 480h-398.223c-31.288 0-56.889-25.6-56.889-56.889v-398.223c0-31.288 25.6-56.888 56.889-56.888h398.223c31.288 0 56.889 25.6 56.889 56.889v398.223c0 31.288-25.6 56.889-56.889 56.889zM455.111 24.889h-398.223v398.223h398.223v-398.223z" />
<glyph unicode="&#xe6b7;" glyph-name="uniE6B7" d="M398.223 480h-341.334c-31.288 0-56.889-25.6-56.889-56.889v-398.223c0-31.288 25.6-56.888 56.889-56.888h398.223c31.288 0 56.888 25.6 56.888 56.889v341.334l-113.778 113.777zM256 24.888c-46.934 0-85.334 38.4-85.334 85.334s38.4 85.334 85.334 85.334 85.334-38.4 85.334-85.334-38.4-85.334-85.334-85.334zM341.334 309.333h-284.445v113.778h284.445v-113.778z" />
<glyph unicode="&#xe6b8;" glyph-name="uniE6B8" d="M435.2 480h-358.4c-28.16 0-51.2-23.040-51.2-51.2v-409.601c0-28.16 23.040-51.2 51.2-51.2h358.4c28.16 0 51.2 23.040 51.2 51.2v409.601c0 28.16-23.040 51.2-51.2 51.2zM435.2 19.2h-358.4v358.4h358.4v-358.4zM384 249.6h-139.52v51.2h139.52v-51.2zM384 96h-140.8v51.2h140.8v-51.2zM166.399 224c28.16 0 51.2 23.040 51.2 51.2s-23.040 51.2-51.2 51.2-51.2-23.040-51.2-51.2 23.040-51.2 51.2-51.2zM166.399 300.8c14.080 0 25.6-11.52 25.6-25.6s-11.52-25.6-25.6-25.6-25.6 11.52-25.6 25.6 11.52 25.6 25.6 25.6zM166.399 70.4c28.16 0 51.2 23.040 51.2 51.2s-23.040 51.2-51.2 51.2-51.2-23.040-51.2-51.2 23.040-51.2 51.2-51.2zM166.399 147.2c14.080 0 25.6-11.52 25.6-25.6s-11.52-25.6-25.6-25.6-25.6 11.52-25.6 25.6 11.52 25.6 25.6 25.6z" />
<glyph unicode="&#xe6b9;" glyph-name="uniE6B9" d="M176.639 134.4c-35.84 0-64 28.16-64 64s28.16 64 64 64 64-28.16 64-64-29.44-64-64-64zM176.639 236.8c-21.76 0-38.4-16.64-38.4-38.4s16.64-38.4 38.4-38.4 38.4 16.64 38.4 38.4-17.92 38.4-38.4 38.4zM336.639 134.4c-35.84 0-64 28.16-64 64s28.16 64 64 64 64-28.16 64-64-29.44-64-64-64zM336.639 236.8c-21.76 0-38.4-16.64-38.4-38.4s16.64-38.4 38.4-38.4 38.4 16.64 38.4 38.4-17.92 38.4-38.4 38.4zM428.8 480h-345.6c-28.16 0-51.2-23.040-51.2-51.2v-409.601c0-28.16 23.040-51.2 51.2-51.2h345.6c28.16 0 51.2 23.040 51.2 51.2v409.601c0 28.16-23.040 51.2-51.2 51.2zM428.8 19.2h-345.6v358.4h345.6v-358.4z" />
<glyph unicode="&#xe6ba;" glyph-name="uniE6BA" d="M455.111 480h-398.223c-31.288 0-56.889-25.6-56.889-56.889v-398.223c0-31.288 25.6-56.888 56.889-56.888h398.223c31.288 0 56.889 25.6 56.889 56.889v398.223c0 31.288-25.6 56.889-56.889 56.889zM455.111 24.889h-398.223v398.223h398.223v-398.223zM460.8 131.555c-18.488 122.311-85.334 274.489-120.888 274.489-42.666 0-83.911-83.911-105.245-167.822-19.911-83.911-62.577-125.155-83.911-125.155s-42.666 19.911-62.578 62.577c-14.222 29.866-29.866 38.4-36.977 41.245v-196.267h409.601v110.934z" />
<glyph unicode="&#xe6bb;" glyph-name="uniE6BB" d="M455.111 480h-398.223c-31.288 0-56.889-25.6-56.889-56.889v-398.223c0-31.288 25.6-56.888 56.889-56.888h398.223c31.288 0 56.889 25.6 56.889 56.889v398.223c0 31.288-25.6 56.889-56.889 56.889zM455.111 24.889h-398.223v398.223h398.223v-398.223zM359.822 104.534c-41.245 0-103.822-62.577-186.311-62.577-8.534 0-17.066 0-25.6 1.423 71.112 11.377 93.866 102.4 170.666 102.4 69.688 0 123.734-58.312 140.8-76.8v69.689c-5.688 2.846-15.646 28.445-35.555 110.934-41.245 166.4-103.822 146.489-103.822 146.489s-62.577 0-82.488-123.734c-24.178-145.067-41.245-166.4-82.488-166.4-19.911 0-41.245 19.911-62.578 62.577-14.222 28.445-28.445 36.978-35.554 39.822v-44.089c7.111-2.846 18.488-12.8 34.134-38.4v0c17.066-31.288 34.134-51.2 61.154-58.312-5.689-1.423-11.377-2.846-17.066-2.846-32.712 0-59.734 5.688-78.222 11.377v-34.134c12.8-5.688 54.046-18.488 119.466-18.488 62.577 0 103.822 19.911 146.488 41.245 76.8 38.4 118.046-11.377 140.8-35.555v29.866c-25.6 19.911-58.312 45.512-103.822 45.512zM256 228.266c19.911 123.734 62.577 123.734 62.577 123.734s44.089 19.911 82.488-146.488c9.954-39.822 18.488-66.846 25.6-82.488-29.866 22.755-69.689 41.245-108.089 41.245-34.134 0-64-18.488-88.178-39.822 9.954 25.6 18.488 59.734 25.6 103.822z" />
<glyph unicode="&#xe6bc;" glyph-name="uniE6BC" d="M455.111 480h-398.223c-31.288 0-56.889-25.6-56.889-56.889v-398.223c0-31.288 25.6-56.888 56.889-56.888h398.223c31.288 0 56.889 25.6 56.889 56.889v398.223c0 31.288-25.6 56.889-56.889 56.889zM455.111 24.889h-398.223v398.223h398.223v-398.223zM446.578 51.911l-133.688 365.512-92.445-227.555v-4.266h-169.245v-172.089h409.601v38.4z" />
<glyph unicode="&#xe6bd;" glyph-name="uniE6BD" d="M449.423 480h-386.846c-31.288 0-55.466-25.6-55.466-56.889v-398.223c0-31.288 24.177-56.888 55.466-56.888h386.846c29.866 0 55.466 25.6 55.466 56.889v398.223c0 31.288-24.178 56.889-55.466 56.889zM449.423 24.889h-41.245v157.866h-82.488c0 0 0-132.267 0-157.866h-28.445v240.355h-82.488v-240.355h-28.446v351.289h-82.489v-351.289h-41.245v399.646h386.846v-399.646z" />
<glyph unicode="&#xe6be;" glyph-name="uniE6BE" d="M449.423 480h-386.846c-29.866 0-55.466-25.6-55.466-56.889v-398.223c0-31.288 24.177-56.888 55.466-56.888h386.846c29.866 0 55.466 25.6 55.466 56.889v398.223c0 31.288-24.178 56.889-55.466 56.889zM449.423 24.889h-41.245v351.289h-82.488v-351.289h-28.445v240.355h-82.488v-240.355h-28.446v157.866h-82.489v-157.866h-41.245v399.646h386.846v-399.646z" />
<glyph unicode="&#xe6bf;" glyph-name="uniE6BF" d="M455.111 480h-398.223c-31.288 0-56.889-25.6-56.889-56.889v-398.223c0-31.288 25.6-56.888 56.889-56.888h398.223c31.288 0 56.889 25.6 56.889 56.889v398.223c0 31.288-25.6 56.889-56.889 56.889zM455.111 24.889h-398.223v398.223h398.223v-398.223zM457.955 19.2l-201.955 403.912-201.955-403.912z" />
<glyph unicode="&#xe6c0;" glyph-name="uniE6C0" d="M455.111 480h-398.223c-31.288 0-56.889-25.6-56.889-56.889v-398.223c0-31.288 25.6-56.888 56.889-56.888h398.223c31.288 0 56.889 25.6 56.889 56.889v398.223c0 31.288-25.6 56.889-56.889 56.889zM455.111 24.889h-398.223v398.223h398.223v-398.223zM423.822 20.622v321.423h-170.667v-75.377h-170.667v-248.889h341.334v2.846zM234.666 39.111h-132.267v56.889h132.267v-56.889zM234.666 114.488h-132.267v56.889h132.267v-56.889zM234.666 191.288h-132.267v56.888h132.267v-56.888zM405.334 39.111h-132.267v132.267h132.267v-132.267zM405.334 191.288h-132.267v56.888h132.267v-56.888zM405.334 266.666h-132.267v56.888h132.267v-56.888z" />
<glyph unicode="&#xe6c1;" glyph-name="uniE6C1" d="M369.777 366.222v113.778h-56.889v-113.778h-113.778v113.778h-56.888v-113.778c-28.445 0-56.888-28.445-56.888-56.888v-156.445l99.554-99.555v-85.334h142.223v85.334l99.555 99.555v156.446c0 28.445-28.445 56.888-56.889 56.888z" />
<glyph unicode="&#xe6c2;" glyph-name="uniE6C2" d="M49.778-32h412.445c27.022 0 49.778 22.755 49.778 49.778v412.445c0 27.022-22.755 49.777-49.778 49.777h-412.445c-27.023 0-49.778-22.754-49.778-49.777v-412.445c0-27.022 22.755-49.778 49.778-49.778zM49.778 430.221h412.445v-412.445h-412.445v412.445zM133.688 377.6h246.045c17.066 0 29.866-14.223 29.866-31.288v-275.911l-61.154 61.154h-214.755c-17.066 0-31.288 14.223-31.288 31.288v184.889c0 15.645 14.222 29.866 31.288 29.866z" />
<glyph unicode="&#xe6c3;" glyph-name="uniE6C3" d="M227.554 138.666h56.888v-56.889h-56.888v56.889zM227.554 366.222h56.888v-170.666h-56.888v170.666zM455.111 480h-398.223c-31.288 0-56.889-25.6-56.889-56.889v-398.223c0-31.288 25.6-56.888 56.889-56.888h398.223c31.288 0 56.889 25.6 56.889 56.889v398.223c0 31.288-25.6 56.889-56.889 56.889zM455.111 24.889h-398.223v398.223h398.223v-398.223z" />
<glyph unicode="&#xe6c4;" glyph-name="uniE6C4" d="M0 430.222v-412.445c0-27.022 22.755-49.778 49.778-49.778h412.445c27.022 0 49.778 22.755 49.778 49.778v412.445c0 27.022-22.755 49.777-49.778 49.777h-412.445c-27.023 0-49.778-22.754-49.778-49.777zM462.221 430.222v-412.445h-412.445v412.445h412.445zM108.088 13.512h71.112v422.399h-71.112v-422.399zM332.8 12.089h71.112v423.822h-71.111v-423.822zM220.445 435.911v-425.245h71.112v425.245h-71.112z" />
<glyph unicode="&#xe6c5;" glyph-name="uniE6C5" d="M41.513 376.217v-83.027h366.702v83.027h-366.702zM41.513 154.81v-83.027h172.972v83.028h-172.972zM297.513 265.513h-256v-83.028h256v83.028zM455.264 473.080h-398.529c-31.828 0-56.736-24.908-56.736-55.351v-387.459c0-30.443 24.908-55.351 56.736-55.351h398.529c31.827 0 56.736 24.908 56.736 55.351v387.459c0 30.443-24.908 55.351-56.736 55.351zM456.649 30.27h-399.913v387.459h399.913v-387.459z" />
<glyph unicode="&#xe6c6;" glyph-name="uniE6C6" d="M41.245 380.445v-85.334h359.822v85.334h-359.822zM41.245 152.889v-85.334h166.4v85.334h-166.4zM290.134 266.666h-248.889v-85.334h248.889v85.334zM455.111 480h-398.223c-31.288 0-56.889-25.6-56.889-56.889v-398.223c0-31.288 25.6-56.888 56.889-56.888h398.223c31.288 0 56.889 25.6 56.889 56.889v398.223c0 31.288-25.6 56.889-56.889 56.889zM456.534 24.889h-399.646v398.223h399.646v-398.223z" />
<glyph unicode="&#xe6c7;" glyph-name="uniE6C7" d="M462.223 480h-412.445c-27.023 0-49.778-22.755-49.778-49.778v-412.445c0-27.022 22.755-49.778 49.778-49.778h412.445c27.022 0 49.777 22.755 49.777 49.778v412.445c0 27.022-22.755 49.777-49.778 49.777zM462.223 17.779h-412.445v412.445h412.445v-412.445zM45.512 379.022v-71.111h422.399v71.112h-422.399zM44.090 140.089v-71.112h425.245v71.111c0 0-425.245 0-425.245 0zM467.911 259.555h-423.822v-71.112h425.245l-1.423 71.111z" />
<glyph unicode="&#xe6c8;" glyph-name="uniE6C8" d="M455.264 473.080h-398.529c-31.828 0-56.736-24.908-56.736-55.351v-387.459c0-30.443 24.908-55.351 56.736-55.351h398.529c31.827 0 56.736 24.908 56.736 55.351v387.459c0 30.443-24.908 55.351-56.736 55.351zM456.649 30.27h-399.913v387.459h399.913v-387.459zM138.379 289.038h238.011l48.432 91.329h-337.643zM188.195 196.324h138.378l38.746 73.341h-217.254zM258.769 67.632l58.12 110.702h-119.005z" />
<glyph unicode="&#xe6c9;" glyph-name="uniE6C9" d="M56.736-25.080h398.529c31.827 0 56.736 24.908 56.736 55.351v387.459c0 30.443-24.908 55.351-56.736 55.351h-398.529c-31.827 0-56.736-24.908-56.736-55.351v-387.459c0-30.443 24.908-55.351 56.736-55.351zM55.352 417.73h399.913v-387.459h-399.913v387.459zM373.622 158.962h-238.010l-48.433-91.329h337.642zM323.805 251.676h-138.378l-38.745-73.341h217.254zM253.232 380.368l-58.119-110.703h119.005z" />
<glyph unicode="&#xe6ca;" glyph-name="uniE6CA" d="M254.578 224l-129.422-139.378c-36.978 36.978-58.311 86.755-58.311 139.378 0 105.245 85.333 193.422 187.733 193.422s187.733-88.178 187.733-193.422h-187.733zM462.222 480h-412.444c-27.022 0-49.778-22.755-49.778-51.2v-409.599c0-28.445 22.756-51.2 49.778-51.2h412.444c27.022 0 49.778 22.755 49.778 51.2v409.599c0 28.445-22.755 51.2-49.778 51.2zM462.222 19.2h-412.444v409.599h412.444v-409.599zM257.423 17.779c-113.778 0-207.644 93.866-207.644 206.221s92.445 206.221 204.799 206.221 207.644-93.866 207.644-206.221-92.445-206.221-204.799-206.221zM257.423 401.778c-96.711 0-176.355-79.644-176.355-177.778s79.644-177.778 176.355-177.778 176.355 79.644 176.355 177.778-79.644 177.778-176.355 177.778z" />
<glyph unicode="&#xe6cb;" glyph-name="uniE6CB" d="M341.334 480l65.422-65.422-82.488-81.066 39.822-39.822 81.067 82.488 66.844-66.844v170.666h-170.667zM0 309.333l65.422 65.422 81.066-82.488 39.822 39.822-82.489 81.067 66.844 66.844h-170.667v-170.667zM170.667-32l-65.422 65.422 82.488 81.067-39.822 39.822-81.067-82.488-66.844 66.844v-170.667h170.667zM512 138.666l-65.422-65.422-81.067 82.488-39.822-39.822 82.488-81.067-66.844-66.844h170.667v170.667z" />
<glyph unicode="&#xe6cc;" glyph-name="uniE6CC" d="M56.735-25.080h398.529c31.827 0 56.736 24.908 56.736 55.351v387.459c0 30.443-24.908 55.351-56.736 55.351h-398.529c-31.827 0-56.736-24.908-56.736-55.351v-387.459c0-30.443 24.908-55.351 56.736-55.351zM55.351 417.731h399.913v-387.459h-399.913v387.459zM340.41 295.957c-41.514 0-143.913 20.756-164.671-41.513s102.4-81.643 102.4-81.643l20.757 20.757c0 0-123.157 20.757-102.4 62.27s143.913 0 226.941 20.756c13.837 2.768 24.908 8.303 33.211 13.838v30.443c-22.14-24.908-83.027-24.908-116.238-24.908zM134.227 49.644c29.059-9.687 56.736-16.606 83.027-20.757h143.913l-2.768 26.291c0 0-80.259-26.291-203.416 13.837-49.816 15.222-89.946 41.514-99.632 69.19v-38.745c15.222-19.373 41.513-37.362 78.875-49.816zM113.47 235.071c-20.757-83.027 62.27-123.157 103.784-134.226 0 0 40.13-9.687 60.886-9.687 35.978-1.384 76.108 0 81.644 0 20.757 0 81.644 20.757 81.644 20.757l-20.757 20.757c0 0-22.14-15.222-62.27-22.14-26.291-5.535-60.887-6.919-102.4 1.384-102.4 20.757-143.913 62.27-102.4 143.913 38.745 77.492-31.827 117.621-40.13 123.157 103.784-1.383 300.28-6.919 341.794-31.827v27.676c-4.151 1.384-8.303 4.151-12.454 4.151-60.887 16.606-357.016 20.757-388.843 20.757v-44.281c22.141-23.524 77.492-81.644 17.989-120.389-6.919-4.151-12.454-9.686-17.989-15.222v-51.2c12.454 34.594 59.502 66.421 59.502 66.421z" />
<glyph unicode="&#xe6cd;" glyph-name="uniE6CD" d="M462.222 480h-412.444c-27.022 0-49.778-22.755-49.778-49.778v-412.444c0-27.022 22.756-49.778 49.778-49.778h412.444c27.022 0 49.778 22.755 49.778 49.778v412.444c0 27.022-22.755 49.778-49.778 49.778zM462.222 17.779h-412.444v412.444h412.444v-412.444zM44.090 336.356h436.622v-75.378h-436.622v75.378zM44.090 187.022h436.622v-75.378h-436.622v75.378z" />
<glyph unicode="&#xe6ce;" glyph-name="uniE6CE" d="M436.48 480h-270.080l51.2-51.2 218.88 1.28v-412.16h-296.96v193.28h-49.92v-193.28c0-28.16 21.76-49.92 49.92-49.92h296.96c28.16 0 49.92 21.76 49.92 49.92v412.16c0 28.16-21.76 49.92-49.92 49.92zM115.2 480l-89.6-89.6h64v-153.6h51.2v153.6h64l-89.6 89.6zM192 275.2h76.8v-256h-76.8v256zM307.2 364.8h76.8v-345.6h-76.8v345.6z" />
<glyph unicode="&#xe6cf;" glyph-name="uniE6CF" d="M179.090 473.798l54.305-54.305-162.916-162.916-54.306 54.305 162.916 162.916zM234.169 310.88l-54.305-54.305-162.916 162.915 54.305 54.306 162.916-162.916zM303.825 352h76.8v-332.8h-76.8v332.8zM201.425 198.4h76.8v-179.201h-76.8v179.201zM444.625 480h-179.201v-51.2h179.201v-409.601h-307.2v204.8h-51.2v-204.8c0-28.16 23.040-51.2 51.2-51.2h307.2c28.16 0 51.2 23.040 51.2 51.2v409.601c0 28.16-23.040 51.2-51.2 51.2z" />
<glyph unicode="&#xe6d0;" glyph-name="uniE6D0" d="M488 477.601h-272c-12.8 0-24-9.6-24-22.4v-147.201h-168c-12.8 0-24-9.6-24-22.4v-292.801c0-12.8 11.2-22.401 24-22.401h270.4c12.8 0 24 9.6 24 22.401v147.201h168c12.8 0 24 9.6 24 22.401v292.8c1.6 12.8-9.6 22.401-22.401 22.401zM299.2 10.401c0-11.2-9.6-19.2-20.8-19.2h-235.2c-11.2 0-20.8 9.6-20.8 19.2v254.401c0 11.2 9.6 19.2 20.8 19.2h148.8v-41.6h-107.2v-20.8h-20.8v-192h43.2v64h84.8v-64h43.2v108.8h64v-128zM107.201 200.8h84.8v-38.4c0-1.6 0-3.2 1.6-4.8h-1.6v-20.8h-84.8v64zM489.601 181.601c0-11.2-8-19.2-19.2-19.2h-235.2c-11.2 0-20.8 9.6-20.8 19.2v254.4c0 11.2 9.6 19.2 20.8 19.2h43.2v-254.401h128v43.2h-86.4v64h84.8v20.8h43.2v84.8h-43.2v-64h-84.8v64h84.8v41.601h64c11.2 0 20.8-9.6 20.8-19.2v-254.4zM404.8 306.401h43.2v-64h-43.2v64z" />
<glyph unicode="&#xe6d1;" glyph-name="uniE6D1" d="M311.541 480h-195.351c-38.304 0-68.948-30.644-68.948-70.224v-371.551c0-38.305 30.644-70.225 68.948-70.225h278.344c38.305 0 70.225 30.644 70.225 70.225v288.558l-153.217 153.217zM394.533 15.241h-278.344c-12.768 0-22.983 10.214-22.983 22.983v371.551c0 12.768 10.215 22.983 22.983 22.983h162.155v-139.172h139.172v-255.362c0-11.491-10.214-22.983-22.983-22.983zM331.969 142.923c0 3.83 1.276 6.384 1.276 10.214s0 6.384-1.276 10.214l21.706 16.599c1.276 1.276 2.554 3.83 1.276 6.384l-20.428 34.474c-1.276 2.554-3.83 2.554-6.384 2.554l-25.536-10.214c-5.107 3.83-10.214 7.661-16.599 10.214l-3.83 26.813c0 2.554-2.554 3.831-5.107 3.831h-39.581c-2.554 0-5.107-1.276-5.107-3.831l-3.831-26.813c-6.384-2.554-11.492-6.384-16.599-10.214l-25.536 10.214c-2.554 1.276-5.107 0-6.384-2.554l-20.428-34.474c-1.276-2.554-1.276-5.107 1.276-6.384l21.706-16.599c0-3.83-1.276-6.384-1.276-10.214s0-6.384 1.276-10.214l-21.706-16.599c-1.276-1.276-2.554-3.83-1.276-6.384l20.428-34.474c1.276-2.554 3.831-2.554 6.384-2.554l25.536 10.214c5.107-3.83 10.214-7.661 16.599-10.214l3.831-26.813c0-2.554 2.554-3.83 5.107-3.83h39.581c2.554 0 5.107 1.276 5.107 3.83l3.83 26.813c6.384 2.554 11.491 6.384 16.599 10.214l25.536-10.214c2.554-1.276 5.107 0 6.384 2.554l20.428 34.474c1.276 2.554 1.276 5.107-1.276 6.384l-21.706 16.599zM257.915 117.387c-19.152 0-34.474 15.322-34.474 34.474s15.322 34.474 34.474 34.474 34.474-15.322 34.474-34.474-15.322-34.474-34.474-34.474z" />
<glyph unicode="&#xe6d2;" glyph-name="uniE6D2" d="M195.468 124.375v84.493h31.527c51.704 0 94.581 42.876 94.581 94.581s-42.877 94.581-94.581 94.581h-94.581v-41.615h21.439v-232.039h41.615zM216.907 355.154h10.089c29.005 0 52.965-23.961 52.965-52.966s-23.961-51.704-52.965-51.704h-31.527v104.67h21.439zM406.069 14.661h-358.147v421.202h356.886v-226.995l41.615-25.222c0 90.798 0 192.945 0 229.517 1.261 66.837-61.793 64.315-61.793 64.315s-247.172 0-315.271 0-63.054-63.055-63.054-63.055 0-310.226 0-378.325 64.315-63.055 64.315-63.055 249.695 0 314.010 0 63.055 61.793 63.055 61.793 0 0 0 22.7l-41.615-42.877zM510.739 120.592l-147.546 104.67v-42.877h-126.108v-124.847h126.108v-41.615l147.547 104.67z" />
<glyph unicode="&#xe6d3;" glyph-name="uniE6D3" d="M406.069 14.662h-358.147v136.197c10.089-26.483 50.443-1.261 64.315 11.349 16.394 13.872 13.872 27.743 20.177 41.615 34.049 6.305 90.798 15.133 126.108 21.439 26.483-12.61 66.837-42.876 100.887-18.916 1.261 0 2.522 2.522 3.783 6.305 1.261 5.044-3.783 10.089-5.044 11.35-13.872 17.655-44.138 18.916-75.665 21.439-6.305 0-15.133-1.261-20.177 0-7.566 1.261-15.133 10.089-22.7 16.394-22.7 18.916-37.833 41.615-50.443 69.36 11.35 21.438 16.394 56.748 6.305 83.231-2.523 7.566-15.133 21.438-25.222 21.438-15.133 0-18.916-27.743-16.394-46.66 1.261-22.7 10.089-40.355 16.394-55.488-15.133-40.355-27.744-83.231-49.182-116.020-32.788-7.567-58.010-27.743-71.882-54.226v272.394h356.886v-226.995l41.615-25.222c0 90.798 0 192.945 0 229.517 0 66.837-63.055 64.315-63.055 64.315s-247.172 0-315.271 0-63.054-63.055-63.054-63.055 0-310.226 0-378.325 64.315-63.055 64.315-63.055 249.695 0 314.010 0 63.055 61.793 63.055 61.793 0 0 0 22.7l-41.615-42.877zM349.32 215.174c-25.222-7.567-54.226 6.305-64.315 17.655 22.7 1.261 54.226-1.261 64.315-17.655zM179.075 411.903c13.872-10.089 10.089-39.094 6.305-56.749-3.783 2.523-5.044 8.828-6.305 15.133-2.523 10.089-5.044 32.788 0 41.615v0zM177.814 304.711c15.133-21.438 39.094-42.876 52.965-60.532-25.222-3.783-52.965-7.566-78.188-12.611 10.089 18.916 20.177 45.399 25.222 73.142zM110.976 203.825c2.522 0 2.522-1.261 2.522-2.522-5.044-18.916-18.916-41.615-42.877-34.049 3.783 21.438 25.222 26.483 40.355 36.572zM510.739 120.593l-147.546 104.67v-42.877h-126.108v-124.847h126.108v-41.615l147.547 104.67z" />
<glyph unicode="&#xe6d4;" glyph-name="uniE6D4" d="M406.069 14.661h-358.147v421.202h356.886v-226.995l41.615-25.222c0 90.798 0 192.945 0 229.517 1.261 66.837-61.793 64.315-61.793 64.315s-247.172 0-315.271 0-63.054-63.055-63.054-63.055 0-310.226 0-378.325 64.315-63.055 64.315-63.055 249.695 0 314.010 0 63.055 61.793 63.055 61.793 0 0 0 22.7l-41.615-42.877zM510.739 120.592l-147.546 104.67v-42.877h-126.108v-124.847h126.108v-41.615l147.547 104.67zM253.478 212.652h56.748l-75.665 94.581 75.665 94.581h-56.749l-46.66-59.271-47.922 59.271h-56.749l75.665-94.581-75.665-94.581h113.497v15.133h-44.138l35.31 44.138 46.66-59.271z" />
<glyph unicode="&#xe6d5;" glyph-name="uniE6D5" d="M406.069 14.661h-358.147v421.202h356.886v-226.995l41.615-25.222c0 90.798 0 192.945 0 229.517 1.261 66.837-61.793 64.315-61.793 64.315s-247.172 0-315.271 0-63.054-63.055-63.054-63.055 0-310.226 0-378.325 64.315-63.055 64.315-63.055 249.695 0 314.010 0 63.055 61.793 63.055 61.793 0 0 0 22.7l-41.615-42.877zM510.739 120.592l-147.546 104.67v-42.877h-126.108v-124.847h126.108v-41.615l147.547 104.67zM238.345 413.164l-42.876 1.261-41.615-147.547-21.439 147.546h-41.615l41.615-210.601h41.615l42.876 147.547 41.615-147.547h41.615l42.877 210.601h-84.493v-41.615h35.31l-13.872-84.493-41.615 124.847z" />
<glyph unicode="&#xe6d6;" glyph-name="uniE6D6" d="M341.334 480l65.422-65.422-82.488-81.066 39.822-39.822 81.067 82.488 66.844-66.844v170.666h-170.667zM0 309.333l65.422 65.422 81.066-82.488 39.822 39.822-82.489 81.067 66.844 66.844h-170.667v-170.667zM170.667-32l-65.422 65.422 82.488 81.067-39.822 39.822-81.067-82.488-66.844 66.844v-170.667h170.667zM512 138.666l-65.422-65.422-81.067 82.488-39.822-39.822 82.488-81.067-66.844-66.844h170.667v170.667z" />
<glyph unicode="&#xe6d7;" glyph-name="uniE6D7" d="M480 224c0-123.712-100.288-224-224-224s-224 100.288-224 224c0 123.712 100.288 224 224 224s224-100.288 224-224z" />
<glyph unicode="&#xe6d8;" glyph-name="uniE6D8" d="M106.666 49.777c0-27.377 22.4-49.777 49.778-49.777h199.111c27.377 0 49.777 22.4 49.777 49.778v298.667h-298.667v-298.667zM430.222 423.111h-87.111l-24.889 24.889h-124.445l-24.889-24.889h-87.111v-49.778h348.445v49.778z" />
<glyph unicode="&#xe6d9;" glyph-name="uniE6D9" d="M512 428.8l-51.2 51.2-204.8-204.8-204.8 204.8-51.2-51.2 204.8-204.8-204.8-204.8 51.2-51.2 204.8 204.8 204.8-204.8 51.2 51.2-204.8 204.8 204.8 204.8z" />
<glyph unicode="&#xe6da;" glyph-name="uniE6DA" d="M197.689 401.779l-39.822-39.822-39.822 39.822-35.555-35.556 39.822-39.822-39.822-39.822 35.555-35.555 39.822 39.822 39.822-39.822 35.555 35.555-38.4 39.822 38.4 39.822zM197.689 209.779l-39.822-39.822-39.822 39.822-35.555-35.555 39.822-39.822-39.822-39.822 35.555-35.555 39.822 39.822 39.822-39.822 35.555 35.555-38.4 39.822 38.4 39.822zM318.579 371.911h102.4v-76.8h-102.4v76.8zM318.579 179.912h102.4v-76.8h-102.4v76.8zM462.222 480h-412.444c-27.022 0-49.778-22.755-49.778-49.778v-412.444c0-27.022 22.756-49.778 49.778-49.778h412.444c27.022 0 49.778 22.755 49.778 49.778v412.444c0 27.022-22.755 49.778-49.778 49.778zM462.222 17.779h-412.444v412.444h412.444v-412.444z" />
<glyph unicode="&#xe6db;" glyph-name="uniE6DB" d="M284.445 380.445h139.378v-113.778h-139.378v113.778zM129.423 290.845l-32.712 35.555-11.378-12.8 44.088-46.934 95.288 102.4-11.378 11.378-83.911-89.6zM284.445 181.334h139.378v-113.778h-139.378v113.778zM129.423 91.734l-32.712 35.555-11.378-12.8 44.088-46.933 95.288 102.4-11.378 11.378-83.911-89.6zM462.222 480h-412.444c-27.022 0-49.778-22.755-49.778-49.778v-412.444c0-27.022 22.756-49.778 49.778-49.778h412.444c27.022 0 49.778 22.755 49.778 49.778v412.444c0 27.022-22.755 49.778-49.778 49.778zM462.222 17.779h-412.444v412.444h412.444v-412.444z" />
<glyph unicode="&#xe6dc;" glyph-name="uniE6DC" d="M290.134-32l204.8 58.312v307.2l-204.8-92.445v-273.067zM17.067 60.445l204.8-92.445v273.067l-204.8 92.445v-273.067zM256 480l-204.8-102.4 204.8-102.4 204.8 102.4-204.8 102.4z" />
<glyph unicode="&#xe6dd;" glyph-name="uniE6DD" d="M442.666 364h-186.667l-46.667 46.666h-140c-25.666 0-46.666-21-46.666-46.666v-280c0-25.666 21-46.666 46.666-46.666h373.334c25.666 0 46.666 21 46.666 46.666v233.333c0 25.667-21 46.667-46.666 46.667zM442.666 84h-373.334v233.333h373.334v-233.333z" />
<glyph unicode="&#xe6de;" glyph-name="uniE6DE" d="M101.572 78.007c-3.893 3.893-6.489 9.084-7.786 18.168 0 5.19-1.297 19.466-1.297 42.825 0 27.252-2.596 46.718-9.084 58.397s-15.573 20.764-29.847 25.954c11.679 5.19 19.466 11.679 25.954 19.466 5.191 7.786 9.084 18.168 11.679 31.145 1.297 9.084 2.596 29.848 2.596 62.29 0 15.573 2.596 27.252 6.489 31.145 3.893 5.19 12.977 6.488 25.954 6.488h5.191v29.848h-10.382c-10.382 0-18.169 0-23.359-1.298-6.489-2.595-12.977-5.19-16.87-9.084s-7.786-9.083-11.679-15.573c-2.596-6.488-5.191-14.275-6.489-24.656-1.297-7.786-1.297-22.061-1.297-42.825s-1.297-35.038-3.893-44.123c-2.596-9.084-6.489-15.573-11.679-20.763-6.489-5.191-14.276-7.786-23.359-7.786v-29.847c9.084 0 16.87-2.596 23.359-7.786s10.382-11.679 11.679-20.764c2.596-7.786 3.893-23.359 3.893-45.421s1.297-38.931 2.596-48.015c1.297-10.382 5.191-18.168 10.382-24.656s11.679-11.679 19.466-14.276c5.191-2.596 14.275-2.596 25.954-2.596h10.381v29.848h-5.191c-11.679-1.298-19.466 0-23.359 3.893v0zM466.229 246.709c-6.488 5.19-10.382 11.679-11.679 20.763-2.596 7.786-3.893 23.359-3.893 45.421s-1.298 38.931-2.596 48.015c-1.298 10.382-5.19 18.168-10.382 24.656s-11.679 11.679-19.466 14.276c-5.19 2.595-14.276 2.595-25.954 2.595h-10.382v-29.847h5.19c11.679 0 19.466-1.298 23.359-5.19s6.488-9.084 7.786-16.87c0-5.191 1.298-19.466 1.298-44.123 0-27.252 2.596-45.42 9.084-57.099s15.573-20.763 29.848-27.252c-10.382-5.19-19.466-11.679-25.954-19.466s-9.084-18.168-11.679-31.145c-1.298-7.786-1.298-28.55-1.298-59.695 0-16.87-2.596-27.252-6.488-31.145s-12.976-6.488-25.954-6.488h-5.19v-29.848h10.382c10.382 0 18.168 1.298 23.359 2.596 6.488 2.596 12.976 5.19 16.87 9.084s7.786 9.084 11.679 15.573c2.596 6.488 5.19 14.276 6.488 25.954 0 6.488 1.298 20.764 1.298 41.527s1.298 35.038 2.596 44.123c2.596 9.084 6.488 15.573 11.679 20.764 6.488 5.19 14.276 7.786 23.359 7.786v29.847c-9.084-2.595-16.87 0-23.359 5.191zM274.168 223.351h107.711v-107.711h-107.711v107.711zM130.123 223.351h107.71v-107.711h-107.71v107.711z" />
<glyph unicode="&#xe6df;" glyph-name="uniE6DF" d="M87.959 394.666v-78.769h338.708v78.769h-338.708zM85.334 132.103v-78.769h157.539v78.769h-157.539zM321.642 263.385h-236.308v-78.769h236.308v78.769z" />
<glyph unicode="&#xe6e0;" glyph-name="uniE6E0" d="M338.423 141.577h98.91v-98.91h-98.91v98.91zM272.485 273.454h98.91v-98.91h-98.91v98.91zM206.546 405.334h98.91v-98.91h-98.91v98.91zM140.606 273.454h98.91v-98.91h-98.91v98.91zM206.546 141.577h98.91v-98.91h-98.91v98.91zM74.666 141.577h98.91v-98.91h-98.91v98.91z" />
<glyph unicode="&#xe6e1;" glyph-name="uniE6E1" d="M217.333 378.666h-116c-21.267 0-38.666-17.4-38.666-38.666v-232c0-21.267 17.4-38.666 38.666-38.666h309.334c21.267 0 38.666 17.4 38.666 38.666v193.333c0 21.267-17.4 38.667-38.666 38.667h-154.667l-38.666 38.666z" />
<glyph unicode="&#xe6e2;" glyph-name="uniE6E2" d="M439.558 426.844h-60.978v-29.867h39.822l-67.2-67.2c-21.156 16.178-46.044 24.889-74.667 24.889-68.445 0-124.445-56-124.445-124.445 0-28.623 9.956-53.51 24.889-74.667l-69.689-69.69v281.245h31.11l-47.29 80.889-47.289-80.889h31.11v-336h301.156v-31.111l80.889 47.289-80.889 46.045v-31.111h-248.889l69.69 69.69c21.155-17.423 48.533-28.623 78.4-28.623 68.445 0 124.445 56 124.445 124.445 0 29.867-11.2 57.245-28.623 78.4l67.2 67.2v-39.823h29.867v93.333h-28.623z" />
<glyph unicode="&#xe6e3;" glyph-name="uniE6E3" d="M448 416h-88.615v-381.046h88.615v381.046zM152.616 209.231h-88.615v-177.231h88.615v177.231zM211.693 297.847v-265.846h88.615v265.846h-88.615z" />
<glyph unicode="&#xe6e4;" glyph-name="uniE6E4" d="M273.454 416h104.728v-104.728h-104.728v104.728zM133.818 416h104.727v-104.728h-104.728v104.728zM273.454 276.363h104.728v-104.728h-104.728v104.728zM133.818 276.363h104.727v-104.728h-104.728v104.728zM273.454 136.728h104.728v-104.728h-104.728v104.728zM133.818 136.728h104.727v-104.728h-104.728v104.728z" />
<glyph unicode="&#xe6e5;" glyph-name="uniE6E5" d="M0 411.733h102.4v-102.399h-102.4v102.399zM136.535 411.733h102.4v-102.399h-102.399v102.399zM0 275.201h102.4v-102.4h-102.4v102.399zM136.535 275.201h102.4v-102.4h-102.399v102.399zM273.067 411.733h102.399v-102.399h-102.399v102.399zM409.6 411.733h102.399v-102.399h-102.399v102.399zM273.067 275.201h102.399v-102.4h-102.399v102.399zM409.6 275.201h102.399v-102.4h-102.399v102.399zM0 138.666h102.4v-102.399h-102.4v102.399z" />
<glyph unicode="&#xe6e6;" glyph-name="uniE6E6" d="M273.066 343.466h102.4v-102.4h-102.4v102.4zM136.534 343.466h102.4v-102.4h-102.4v102.4zM0 343.466h102.4v-102.4h-102.4v102.4zM273.066 206.934h102.4v-102.4h-102.4v102.4zM136.534 206.934h102.4v-102.4h-102.4v102.4zM0 206.934h102.4v-102.4h-102.4v102.4zM409.6 206.934h102.4v-102.4h-102.4v102.4zM409.6 343.466h102.4v-102.4h-102.4v102.4z" />
<glyph unicode="&#xe6e7;" glyph-name="uniE6E7" d="M204.8 343.466h102.4v-102.4h-102.4v102.4zM68.266 343.466h102.4v-102.4h-102.4v102.4zM273.067 206.933h102.4v-102.4h-102.4v102.4zM136.534 206.933h102.4v-102.4h-102.4v102.4zM0 206.933h102.4v-102.4h-102.4v102.4zM409.6 206.933h102.4v-102.4h-102.4v102.4zM341.334 343.466h102.4v-102.4h-102.4v102.4z" />
<glyph unicode="&#xe6e8;" glyph-name="uniE6E8" d="M100.572 322.909h84.779v-84.779h-84.778v84.779zM213.61 322.909h84.779v-84.779h-84.779v84.779zM100.572 209.87h84.779v-84.779h-84.778v84.779zM213.61 209.87h84.779v-84.779h-84.779v84.779zM326.65 322.909h84.779v-84.779h-84.779v84.779zM326.65 209.87h84.779v-84.779h-84.779v84.779z" />
<glyph unicode="&#xe6e9;" glyph-name="uniE6E9" d="M157.091 322.909h84.779v-84.779h-84.779v84.779zM213.61 209.87h84.779v-84.779h-84.779v84.779zM100.572 209.87h84.779v-84.779h-84.778v84.779zM326.65 209.87h84.779v-84.779h-84.779v84.779zM270.13 322.909h84.779v-84.779h-84.779v84.779z" />
<glyph unicode="&#xe6ea;" glyph-name="uniE6EA" d="M144 336h96v-96h-96v96zM272 336h96v-96h-96v96zM144 208h96v-96h-96v96zM272 208h96v-96h-96v96z" />
<glyph unicode="&#xe6eb;" glyph-name="uniE6EB" d="M300.191 209.269v-88.38h88.38v88.38h-88.38zM123.429 209.269v-88.38h88.38v88.38h-88.38zM211.809 327.111h88.38v-88.38h-88.38v88.38z" />
<glyph unicode="&#xe6ec;" glyph-name="uniE6EC" d="M149.333 269.714h91.429v-91.429h-91.429v91.429zM271.238 269.714h91.429v-91.429h-91.429v91.429z" />
<glyph unicode="&#xe6ed;" glyph-name="uniE6ED" d="M0 480h102.4v-102.4h-102.4v102.4zM136.534 480h102.4v-102.4h-102.4v102.4zM0 343.466h102.4v-102.4h-102.4v102.4zM136.534 343.466h102.4v-102.4h-102.4v102.4zM273.066 480h102.4v-102.4h-102.4v102.4zM409.6 480h102.4v-102.4h-102.4v102.4zM273.066 343.466h102.4v-102.4h-102.4v102.4zM409.6 343.466h102.4v-102.4h-102.4v102.4zM0 206.934h102.4v-102.4h-102.4v102.4zM136.534 206.934h102.4v-102.4h-102.4v102.4zM0 70.4h102.4v-102.4h-102.4v102.4zM136.534 70.4h102.4v-102.4h-102.4v102.4zM273.066 206.934h102.4v-102.4h-102.4v102.4zM409.6 206.934h102.4v-102.4h-102.4v102.4zM273.066 70.4h102.4v-102.4h-102.4v102.4z" />
<glyph unicode="&#xe6ee;" glyph-name="uniE6EE" d="M0 480h102.4v-102.4h-102.4v102.4zM136.534 480h102.4v-102.4h-102.4v102.4zM0 343.466h102.4v-102.4h-102.4v102.4zM136.534 343.466h102.4v-102.4h-102.4v102.4zM273.067 480h102.4v-102.4h-102.4v102.4zM409.6 480h102.4v-102.4h-102.4v102.4zM273.067 343.466h102.4v-102.4h-102.4v102.4zM409.6 343.466h102.4v-102.4h-102.4v102.4zM0 206.933h102.4v-102.4h-102.4v102.4zM136.534 206.933h102.4v-102.4h-102.4v102.4zM0 70.4h102.4v-102.4h-102.4v102.4zM136.534 70.4h102.4v-102.4h-102.4v102.4zM273.067 206.933h102.4v-102.4h-102.4v102.4zM409.6 206.933h102.4v-102.4h-102.4v102.4z" />
<glyph unicode="&#xe6ef;" glyph-name="uniE6EF" d="M0 480h102.4v-102.4h-102.4v102.4zM136.534 480h102.4v-102.4h-102.4v102.4zM273.067 480h102.4v-102.4h-102.4v102.4zM409.6 480h102.4v-102.4h-102.4v102.4zM0 343.466h102.4v-102.4h-102.4v102.4zM136.534 343.466h102.4v-102.4h-102.4v102.4zM273.067 343.466h102.4v-102.4h-102.4v102.4zM409.6 343.466h102.4v-102.4h-102.4v102.4zM409.6 206.933h102.4v-102.4h-102.4v102.4zM0 206.933h102.4v-102.4h-102.4v102.4zM0 70.4h102.4v-102.4h-102.4v102.4zM136.534 206.933h102.4v-102.4h-102.4v102.4zM273.067 206.933h102.4v-102.4h-102.4v102.4z" />
<glyph unicode="&#xe6f0;" glyph-name="uniE6F0" d="M0 411.733h102.4v-102.4h-102.4v102.4zM136.534 411.733h102.4v-102.4h-102.4v102.4zM0 275.2h102.4v-102.4h-102.4v102.4zM136.534 275.2h102.4v-102.4h-102.4v102.4zM273.067 411.733h102.4v-102.4h-102.4v102.4zM409.6 411.733h102.4v-102.4h-102.4v102.4zM273.067 275.2h102.4v-102.4h-102.4v102.4zM409.6 275.2h102.4v-102.4h-102.4v102.4zM0 138.666h102.4v-102.4h-102.4v102.4zM136.534 138.666h102.4v-102.4h-102.4v102.4zM273.067 138.666h102.4v-102.4h-102.4v102.4zM409.6 138.666h102.4v-102.4h-102.4v102.4z" />
<glyph unicode="&#xe6f1;" glyph-name="uniE6F1" d="M0 411.733h102.4v-102.4h-102.4v102.4zM136.534 411.733h102.4v-102.4h-102.4v102.4zM0 275.2h102.4v-102.4h-102.4v102.4zM136.534 275.2h102.4v-102.4h-102.4v102.4zM273.067 411.733h102.4v-102.4h-102.4v102.4zM409.6 411.733h102.4v-102.4h-102.4v102.4zM273.067 275.2h102.4v-102.4h-102.4v102.4zM409.6 275.2h102.4v-102.4h-102.4v102.4zM0 138.666h102.4v-102.4h-102.4v102.4zM136.534 138.666h102.4v-102.4h-102.4v102.4zM273.067 138.666h102.4v-102.4h-102.4v102.4z" />
<glyph unicode="&#xe6f2;" glyph-name="uniE6F2" d="M0 411.733h102.4v-102.4h-102.4v102.4zM136.534 411.733h102.4v-102.4h-102.4v102.4zM273.067 411.733h102.4v-102.4h-102.4v102.4zM409.6 411.733h102.4v-102.4h-102.4v102.4zM0 275.2h102.4v-102.4h-102.4v102.4zM136.534 275.2h102.4v-102.4h-102.4v102.4zM273.067 275.2h102.4v-102.4h-102.4v102.4zM409.6 275.2h102.4v-102.4h-102.4v102.4zM0 138.666h102.4v-102.4h-102.4v102.4zM136.534 138.666h102.4v-102.4h-102.4v102.4z" />
<glyph unicode="&#xe6f3;" glyph-name="uniE6F3" d="M208 272h96v-96h-96v96z" />
<glyph unicode="&#xe6f4;" glyph-name="uniE6F4" d="M0 480h102.4v-102.4h-102.4v102.4zM136.534 480h102.4v-102.4h-102.4v102.4zM0 343.466h102.4v-102.4h-102.4v102.4zM136.534 343.466h102.4v-102.4h-102.4v102.4zM273.067 480h102.4v-102.4h-102.4v102.4zM409.6 480h102.4v-102.4h-102.4v102.4zM273.067 343.466h102.4v-102.4h-102.4v102.4zM409.6 343.466h102.4v-102.4h-102.4v102.4zM0 206.933h102.4v-102.4h-102.4v102.4zM136.534 206.933h102.4v-102.4h-102.4v102.4zM0 70.4h102.4v-102.4h-102.4v102.4zM136.534 70.4h102.4v-102.4h-102.4v102.4zM273.067 206.933h102.4v-102.4h-102.4v102.4zM409.6 206.933h102.4v-102.4h-102.4v102.4zM273.067 70.4h102.4v-102.4h-102.4v102.4z" />
<glyph unicode="&#xe6f5;" glyph-name="uniE6F5" d="M137.6 76.8l147.199 147.2-147.2 147.2 44.8 44.8 192-192-192-192-44.8 44.8z" />
<glyph unicode="&#xe6f6;" glyph-name="uniE6F6" d="M373.601 76.8l-145.601 147.2 147.2 147.2-46.399 44.8-192-192 192-192 44.8 44.8z" />
<glyph unicode="&#xe6f7;" glyph-name="uniE6F7" d="M437.333 369.067l-36.267 36.266-145.067-145.066-145.066 145.066-36.267-36.266 145.066-145.067-145.066-145.067 36.267-36.267 145.066 145.066 145.067-145.067 36.267 36.267-145.066 145.066 145.067 145.067z" />
<glyph unicode="&#xe6f8;" glyph-name="uniE6F8" d="M266.666 113.067h-202.667v-70.4h202.667v70.4zM75.734 100.267h179.2v-44.8h-179.2v44.8zM208 405.334l86.4-154.667v-201.6h67.2v201.6l86.4 154.667h-240zM176 404.267h-112v-69.334h151.466l-39.466 69.334zM265.6 245.333l-7.466 12.8h-194.133v-69.334h201.6v56.534z" />
<glyph unicode="&#xe6f9;" glyph-name="uniE6F9" d="M82.762 371.733v-295.466h56.784v295.466h-56.784zM93.349 87.815v273.331h35.61v-272.368h-35.61zM217.503 371.733l76.032-128.004v-165.538h59.671v166.501l76.032 127.041h-211.735zM199.216 371.733h-37.535v-56.784h71.22l-33.685 56.784zM278.136 239.88l-7.7 13.474h-108.755v-56.784h116.454v43.31zM161.681 134.974h116.454v-56.784h-116.454v56.784z" />
<glyph unicode="&#xe6fa;" glyph-name="uniE6FA" horiz-adv-x="171" d="M85.5 325.333c27.867 0 50.666 22.8 50.666 50.667s-22.8 50.666-50.666 50.666-50.666-22.8-50.666-50.666 22.8-50.667 50.666-50.667zM85.5 274.667c-27.867 0-50.666-22.8-50.666-50.667s22.8-50.666 50.666-50.666 50.666 22.8 50.666 50.666-22.8 50.666-50.666 50.666zM85.5 122.666c-27.867 0-50.666-22.8-50.666-50.666s22.8-50.666 50.666-50.666 50.666 22.8 50.666 50.666-22.8 50.666-50.666 50.666z" />
<glyph unicode="&#xe6fb;" glyph-name="uniE6FB" horiz-adv-x="171" d="M85.5 325.333c27.867 0 50.666 22.8 50.666 50.667s-22.8 50.666-50.666 50.666-50.666-22.8-50.666-50.666 22.8-50.667 50.666-50.667zM85.5 274.667c-27.867 0-50.666-22.8-50.666-50.667s22.8-50.666 50.666-50.666 50.666 22.8 50.666 50.666-22.8 50.666-50.666 50.666zM85.5 122.666c-27.867 0-50.666-22.8-50.666-50.666s22.8-50.666 50.666-50.666 50.666 22.8 50.666 50.666-22.8 50.666-50.666 50.666z" />
<glyph unicode="&#xe6fc;" glyph-name="uniE6FC" d="M371.555 432h-277.334c-25.422 0-46.222-20.8-46.222-46.222v-323.556c0-25.422 20.8-46.222 46.222-46.222h323.555c25.422 0 46.222 20.8 46.222 46.222v277.334l-92.445 92.445zM256 62.221c-38.133 0-69.334 31.2-69.334 69.334s31.2 69.334 69.334 69.334 69.334-31.2 69.334-69.334-31.2-69.334-69.334-69.334zM325.334 293.333h-231.112v92.445h231.112v-92.445z" />
<glyph unicode="&#xe6fd;" glyph-name="uniE6FD" d="M480 448h-448v-49.778h448v49.778zM480 124.445v199.111l-99.555-99.555 99.555-99.555zM280.889 348.445h-248.889v-49.777h248.889v49.777zM480 0v49.778h-448v-49.778h448zM280.889 149.333h-248.889v-49.777h248.889v49.778zM280.889 248.889h-248.889v-49.778h248.889v49.778z" />
</font>
</defs>
</svg>
