<svg version="1.1" xmlns="http://www.w3.org/2000/svg" data-icon="lock" width="128" height="128" class="iconic iconic-lock" viewBox="0 0 128 128">
  <g><title>Lock</title></g>
  <defs>
    <clipPath id="iconic-size-lg-unlock-clip-0">
      <path d="M18 0v66h58v-66h-58zm10 42c-2.2 0-4-1.8-4-4s1.8-4 4-4 4 1.8 4 4-1.8 4-4 4z"/>
    </clipPath>
  </defs>
  <g data-width="94" data-height="114" class="iconic-lg iconic-container" display="inline" transform="translate(17 7)">
    <g class="iconic-lock-locked">
      <path stroke="#000" stroke-width="8" stroke-miterlimit="10" d="M72 51v-22c0-13.8-11.2-25-25-25s-25 11.2-25 25v22" class="iconic-lock-locked-loop iconic-property-accent iconic-property-stroke" fill="none"/>
      <path class="iconic-lock-locked-body iconic-lock-locked-body-main iconic-property-fill" d="M2 56h90v40h-90z"/>
      <path class="iconic-lock-locked-body iconic-lock-locked-body-bottom iconic-property-fill" d="M0 98v16h94v-16h-56z"/>
      <path class="iconic-lock-locked-body iconic-lock-locked-body-top iconic-property-fill" d="M0 48h94v6h-94z"/>
    </g>
  </g>
  <g data-width="94" data-height="128" class="iconic-lg iconic-container" display="inline" transform="translate(17)">
    <g class="iconic-lock-unlocked" display="none">
      <path clip-path="url(#iconic-size-lg-unlock-clip-0)" stroke="#000" stroke-width="8" stroke-linecap="round" stroke-miterlimit="10" d="M72 62.2v-33.2c0-13.8-11.2-25-25-25s-25 11.2-25 25v15" class="iconic-unlocked-loop iconic-property-accent iconic-property-stroke" fill="none"/>
      <path class="iconic-lock-unlocked-body iconic-lock-unlocked-body-bottom iconic-property-fill" d="M0 112h94v16h-94z"/>
      <path class="iconic-lock-unlocked-body iconic-lock-unlocked-body-main iconic-property-fill" d="M2 70h90v40h-90z"/>
      <path class="iconic-lock-unlocked-body iconic-lock-unlocked-body-top iconic-property-fill" d="M0 62h94v6h-94z"/>
    </g>
  </g>
  <g data-width="24" data-height="28" class="iconic-md iconic-container" display="none" transform="scale(4) translate(4 2)">
    <g class="iconic-lock-locked">
      <path stroke="#000" stroke-width="3" stroke-miterlimit="10" d="M5.5 14v-6c0-3.6 2.9-6.5 6.5-6.5s6.5 2.9 6.5 6.5v6" class="iconic-lock-locked-loop iconic-property-accent iconic-property-stroke" fill="none"/>
      <path class="iconic-lock-locked-body iconic-lock-locked-body-main iconic-property-fill" d="M0 12h24v11h-24z"/>
      <path class="iconic-lock-locked-body iconic-lock-locked-body-top iconic-property-fill" d="M0 24h24v4h-24z"/>
    </g>
  </g>
  <g data-width="24" data-height="32" class="iconic-md iconic-container" display="none" transform="scale(4) translate(4)">
    <g class="iconic-lock-unlocked" display="none">
      <path stroke="#000" stroke-width="3" stroke-miterlimit="10" d="M5.5 11v-3c0-3.6 2.9-6.5 6.5-6.5s6.5 2.9 6.5 6.5v11" class="iconic-lock-unlocked-loop iconic-property-accent iconic-property-stroke" fill="none"/>
      <path class="iconic-lock-unlocked-body iconic-lock-unlocked-body-main iconic-property-fill" d="M0 16h24v11h-24z"/>
      <path class="iconic-lock-unlocked-body iconic-lock-unlocked-body-top iconic-property-fill" d="M0 28h24v4h-24z"/>
    </g>
  </g>
  <g data-width="12" data-height="14" class="iconic-sm iconic-container" display="none" transform="scale(8) translate(2 1)">
    <g class="iconic-lock-locked">
      <path stroke="#000" stroke-width="2" stroke-miterlimit="10" d="M9 8v-4c0-1.7-1.3-3-3-3s-3 1.3-3 3v2" class="iconic-lock-locked-loop iconic-property-accent iconic-property-stroke" fill="none"/>
      <path class="iconic-lock-locked-body iconic-property-fill" d="M0 6h12v8h-12z"/>
    </g>
  </g>
  <g data-width="12" data-height="16" class="iconic-sm iconic-container" display="none" transform="scale(8) translate(2)">
    <g class="iconic-lock-unlocked" display="none">
      <path stroke="#000" stroke-width="2" stroke-miterlimit="10" d="M9 8v-4c0-1.7-1.3-3-3-3s-3 1.3-3 3v1" class="iconic-lock-unlocked-loop iconic-property-accent iconic-property-stroke" fill="none"/>
      <path class="iconic-lock-unlocked-body iconic-property-fill" d="M0 8h12v8h-12z"/>
    </g>
  </g>
<script class="iconic-api" type="application/ecmascript">
//<![CDATA[
var iconicApis=window._Iconic?window._Iconic.smartIconApis:{};iconicApis["lock"]=iconicApis["lock"]||function(t){var e=function(e){t.setAttribute("data-state",e);var i,r,n=t.querySelectorAll(".iconic-lock-locked"),a=t.querySelectorAll(".iconic-lock-unlocked");i=r="none","unlocked"===e?r="inline":i="inline";for(var c=0;c<n.length;c++)n[c].setAttribute("display",i),a[c].setAttribute("display",r)},i=function(){var i=t.getAttribute("data-state");i&&e(i)};return{update:i,setState:e}};
//]]>
</script>
</svg>
