<?xml version="1.0" encoding="UTF-8" ?>
<!DOCTYPE svg PUBLIC "-//W3C//DTD SVG 1.1//EN" "http://www.w3.org/Graphics/SVG/1.1/DTD/svg11.dtd">
<svg width="512pt" height="754pt" viewBox="0 0 512 754" version="1.1" xmlns="http://www.w3.org/2000/svg">
<path fill="#fefefe" d=" M 0.00 0.00 L 47.77 0.00 C 31.86 23.65 16.18 47.47 0.38 71.19 C 32.94 71.26 65.50 71.06 98.07 71.34 C 132.88 72.09 168.44 73.77 201.57 85.52 C 216.91 91.16 231.52 99.30 243.40 110.64 C 253.91 120.48 261.96 132.71 267.88 145.79 C 194.49 145.82 121.10 145.80 47.71 145.79 C 32.82 168.20 17.89 190.58 3.09 213.04 C 2.22 214.30 1.18 215.41 0.00 216.40 L 0.00 0.00 Z" />
<path fill="#020202" d=" M 47.77 0.00 L 511.74 0.00 C 495.76 23.62 480.14 47.49 464.29 71.20 C 423.11 71.18 381.93 71.23 340.76 71.18 C 359.39 92.09 371.09 118.49 376.60 145.81 C 421.60 145.80 466.61 145.80 511.61 145.81 C 495.84 169.56 480.07 193.32 464.29 217.07 C 435.47 217.05 406.64 217.07 377.81 217.06 C 373.75 246.58 362.79 275.15 345.61 299.53 C 327.03 326.14 301.80 347.71 273.64 363.65 C 232.28 387.18 185.04 399.23 137.72 402.03 C 231.60 519.31 325.23 636.80 419.20 754.00 L 298.14 754.00 C 207.34 640.70 116.87 527.12 26.17 413.73 C 26.15 391.57 26.12 369.42 26.10 347.26 C 51.06 347.20 76.02 347.40 100.98 347.16 C 136.97 346.46 173.60 340.40 205.90 323.86 C 229.44 311.73 250.12 293.26 262.82 269.84 C 271.69 253.74 276.66 235.47 276.80 217.07 C 191.85 217.05 106.90 217.07 21.96 217.07 C 14.64 216.98 7.31 217.32 0.00 216.71 L 0.00 216.40 C 1.18 215.41 2.22 214.30 3.09 213.04 C 17.89 190.58 32.82 168.20 47.71 145.79 C 121.10 145.80 194.49 145.82 267.88 145.79 C 261.96 132.71 253.91 120.48 243.40 110.64 C 231.52 99.30 216.91 91.16 201.57 85.52 C 168.44 73.77 132.88 72.09 98.07 71.34 C 65.50 71.06 32.94 71.26 0.38 71.19 C 16.18 47.47 31.86 23.65 47.77 0.00 Z" />
<path fill="#fefefe" d=" M 511.74 0.00 L 512.00 0.00 L 512.00 754.00 L 419.20 754.00 C 325.23 636.80 231.60 519.31 137.72 402.03 C 185.04 399.23 232.28 387.18 273.64 363.65 C 301.80 347.71 327.03 326.14 345.61 299.53 C 362.79 275.15 373.75 246.58 377.81 217.06 C 406.64 217.07 435.47 217.05 464.29 217.07 C 480.07 193.32 495.84 169.56 511.61 145.81 C 466.61 145.80 421.60 145.80 376.60 145.81 C 371.09 118.49 359.39 92.09 340.76 71.18 C 381.93 71.23 423.11 71.18 464.29 71.20 C 480.14 47.49 495.76 23.62 511.74 0.00 Z" />
<path fill="#fefefe" d=" M 0.00 216.71 C 7.31 217.32 14.64 216.98 21.96 217.07 C 106.90 217.07 191.85 217.05 276.80 217.07 C 276.66 235.47 271.69 253.74 262.82 269.84 C 250.12 293.26 229.44 311.73 205.90 323.86 C 173.60 340.40 136.97 346.46 100.98 347.16 C 76.02 347.40 51.06 347.20 26.10 347.26 C 26.12 369.42 26.15 391.57 26.17 413.73 C 116.87 527.12 207.34 640.70 298.14 754.00 L 0.00 754.00 L 0.00 216.71 Z" />
</svg>
