<?xml version="1.0" standalone="no"?>
<!DOCTYPE svg PUBLIC "-//W3C//DTD SVG 1.1//EN" "http://www.w3.org/Graphics/SVG/1.1/DTD/svg11.dtd" >
<svg xmlns="http://www.w3.org/2000/svg">
<metadata></metadata>
<defs>
<font id="ge_hiliregular" horiz-adv-x="0" >
<font-face units-per-em="2048" ascent="1638" descent="-410" />
<missing-glyph horiz-adv-x="425" />
<glyph unicode="&#x627;&#x653;" horiz-adv-x="452" d="M55 1485q61 110 158 110q51 0 131 -43q102 -41 119 -41q21 0 41.5 15t31.5 29.5t31 43.5l51 -51q-25 -36 -42 -55.5t-48.5 -38t-66.5 -18.5q-59 0 -129 45v-2q-77 43 -127 43q-54 0 -99 -92zM184 1257l269 52v-1309h-181v1167q0 38 -13.5 53.5t-74.5 36.5z" />
<glyph unicode="&#x627;&#x654;" horiz-adv-x="452" d="M168 1448h352v55h-90q-57 0 -92 53.5t-35 106.5q0 36 15.5 63t43.5 27t39 -20q-28 -17 -28 -45q0 -21 17.5 -33.5t43.5 -12.5q60 0 60 56q0 45 -36 75.5t-91 30.5q-74 0 -119 -47t-45 -115q0 -80 82 -139h-97zM184 1257l269 52v-1309h-181v1167q0 38 -13.5 53.5 t-74.5 36.5z" />
<glyph unicode="&#x648;&#x654;" horiz-adv-x="978" d="M225 319q0 264 167 425t431 161h156v-502q0 -144 -16.5 -261.5t-43.5 -197t-67.5 -139.5t-82 -94t-94 -54.5t-97.5 -27t-97 -6.5q-45 0 -168 10l49 9q62 14 109 30.5t108 53.5t102.5 87.5t76 136t45.5 195.5q-20 -31 -38 -52.5t-48 -45t-72.5 -35.5t-95.5 -12h-10 q-52 2 -107 24.5t-101.5 62t-76 100.5t-29.5 132zM403 332q0 -100 49.5 -183t131.5 -86h-2q91 0 154 92.5t63 215.5v471h-23q-68 0 -134.5 -37.5t-119.5 -102.5t-86 -162.5t-33 -207.5zM463 1094h465v71h-119q-54 0 -96.5 36t-62 82t-19.5 87q0 46 23 79.5t65 33.5 q45 0 59 -23q-39 -31 -39 -59q0 -25 23 -41.5t53 -16.5q40 0 59 15t19 57q0 56 -49 94.5t-119 38.5q-99 0 -158 -60t-59 -147q0 -54 32 -100t78 -76h-126z" />
<glyph unicode="&#x627;&#x655;" horiz-adv-x="452" d="M178 -524h352v57h-90q-57 0 -92 52.5t-35 105.5q0 36 16 63t42 27q29 0 41 -21q-29 -16 -29 -45q0 -21 17 -33t42 -12q62 0 62 56q0 45 -37 75.5t-92 30.5q-73 0 -117.5 -47t-44.5 -115q0 -80 80 -137h-94zM184 1257l269 52v-1309h-181v1167q0 38 -13.5 53.5t-74.5 36.5z " />
<glyph unicode="&#x64a;&#x654;" horiz-adv-x="1333" d="M-25 741l25 64h92q-80 71 -80 133q0 68 47.5 116t124.5 48q57 0 95 -31t38 -76q0 -35 -17 -48t-50 -13q-27 0 -46.5 14t-19.5 37q0 25 27 43q-9 16 -31 16q-27 0 -44 -25.5t-17 -57.5q0 -52 37 -104t90 -52h98v-64h-369zM0 459v67l328 17v-295q0 -163 137 -172h536 q-63 153 -165 375q-47 103 -56.5 134t-9.5 89q0 98 90 169.5t207 71.5q92 0 180 -43l6 -2q23 -10 25 -10q3 0 10 33h103v-297h-99q-8 49 -23 91.5t-39 79.5t-61.5 58t-83.5 21q-56 0 -108.5 -41t-52.5 -98q0 -25 8 -41q152 -348 280 -666h-759q-306 0 -306 256v135 q0 39 -30.5 53.5t-116.5 14.5z" />
<glyph unicode="&#xfedf;&#xfee4;&#xfea0;" horiz-adv-x="3043" d="M-18 0v76h940q-2 168 -31 305t-76 223t-105.5 132t-121.5 46q-128 0 -220.5 -109t-144.5 -282l-84 154q24 13 42 29.5t40 50.5q31 50 61 86t74.5 71t104 53.5t133.5 18.5q95 0 179.5 -44.5t146.5 -120.5t108 -175.5t70 -211.5t26 -226h308q55 12 77 30q28 27 52.5 80 t37.5 96t29 109q20 75 33 114.5t44.5 99t69.5 89t104 53t153 23.5q72 0 134.5 -27.5t107 -72.5t76.5 -102.5t47.5 -118t15.5 -117.5q0 -34 -7 -74q28 -78 81 -130t118 -52h94q164 0 164 196v895q0 38 -14 53.5t-78 36.5l272 52v-1043q0 -126 -83.5 -196t-217.5 -70h-96 q-98 0 -163 33t-120 104q-48 -101 -145.5 -163t-239.5 -62q-66 0 -120.5 15t-95 43.5t-65.5 54t-52 61.5q-79 -86 -215 -86h-1448zM494 -291q0 44 31.5 74.5t74.5 30.5t75 -30.5t32 -74.5q0 -45 -31.5 -75.5t-75.5 -30.5q-43 0 -74.5 30.5t-31.5 75.5zM1702 166q8 -8 10 -12 q26 -32 48.5 -55.5t58 -53t78 -45.5t88.5 -16q97 0 168 99.5t71 238.5q0 101 -23 184.5t-74.5 139.5t-123.5 59h-8q-27 0 -51 -9.5t-41.5 -23t-34 -39.5t-27 -47t-23 -59t-19.5 -62t-19 -68l-2 -12q-38 -146 -76 -219z" />
<glyph unicode="&#xfedf;&#xfee4;&#xfea8;" horiz-adv-x="3043" d="M-18 0v76h940q-2 168 -31 305t-76 223t-105.5 132t-121.5 46q-128 0 -220.5 -109t-144.5 -282l-84 154q24 13 42 29.5t40 50.5q31 50 61 86t74.5 71t104 53.5t133.5 18.5q95 0 179.5 -44.5t146.5 -120.5t108 -175.5t70 -211.5t26 -226h308q55 12 77 30q28 27 52.5 80 t37.5 96t29 109q20 75 33 114.5t44.5 99t69.5 89t104 53t153 23.5q72 0 134.5 -27.5t107 -72.5t76.5 -102.5t47.5 -118t15.5 -117.5q0 -34 -7 -74q28 -78 81 -130t118 -52h94q164 0 164 196v895q0 38 -14 53.5t-78 36.5l272 52v-1043q0 -126 -83.5 -196t-217.5 -70h-96 q-98 0 -163 33t-120 104q-48 -101 -145.5 -163t-239.5 -62q-66 0 -120.5 15t-95 43.5t-65.5 54t-52 61.5q-79 -86 -215 -86h-1448zM494 1157q0 45 31.5 76t74.5 31t75 -31t32 -76q0 -44 -32 -75t-75 -31t-74.5 31t-31.5 75zM1702 166q8 -8 10 -12q26 -32 48.5 -55.5t58 -53 t78 -45.5t88.5 -16q97 0 168 99.5t71 238.5q0 101 -23 184.5t-74.5 139.5t-123.5 59h-8q-27 0 -51 -9.5t-41.5 -23t-34 -39.5t-27 -47t-23 -59t-19.5 -62t-19 -68l-2 -12q-38 -146 -76 -219z" />
<glyph unicode="&#xfe91;&#xfee2;" horiz-adv-x="1912" arabic-form="isolated" d="M6 186q4 -1 48 -15t81.5 -24t54.5 -10q32 0 59.5 9.5t48 23t39.5 39.5t31.5 48t27 58.5t23 62t21.5 68.5t20.5 66.5t22.5 64.5t27 64.5t32.5 57.5t41.5 54t51 43.5t63.5 35.5t77 21t92.5 9h9q72 0 134.5 -27.5t106.5 -72.5t76 -103t47.5 -118.5t15.5 -118.5 q0 -92 -30 -166q27 -77 78.5 -128.5t117.5 -51.5h158q154 0 154 196v498q0 39 -14.5 55t-78.5 37l271 51v-647q0 -126 -81.5 -196t-215.5 -70h-150q-105 0 -174.5 38.5t-120.5 123.5q-130 -166 -346 -166q-66 0 -119.5 15.5t-95 47t-64 54.5t-54.5 63q-120 -176 -285 -176 q-38 30 -74 63q-21 17 -50 46.5t-50 51.5t-27 25zM549 258l35 -41q69 -73 103 -99q71 -52 144 -52q98 0 170 103.5t72 244.5q0 100 -24 184t-76.5 139.5t-124.5 57.5h-6q-38 0 -69 -18t-50.5 -42.5t-38.5 -71t-29 -80.5t-26 -94q-1 -5 -7 -27.5t-8 -29.5t-8 -27.5 t-9.5 -30.5t-9.5 -28t-11 -30t-12.5 -28t-14.5 -30zM1571 -291q0 45 31.5 76t74.5 31q42 0 73.5 -31t31.5 -76q0 -43 -31.5 -73.5t-73.5 -30.5q-43 0 -74.5 30t-31.5 74z" />
<glyph unicode="&#xfe97;&#xfe9e;" horiz-adv-x="1943" arabic-form="isolated" d="M133 76q64 -188 211.5 -305t364.5 -117l67 70h-41q-67 0 -127 14t-116.5 44.5t-102.5 86t-74 131.5h1332q134 0 215.5 70t81.5 196v647l-271 -51q64 -21 78 -36.5t14 -55.5v-498q0 -196 -153 -196h-393q-2 114 -26.5 227t-71.5 213t-109.5 177t-147 122t-178.5 45 q-58 0 -115 -17.5t-81.5 -31.5t-67.5 -41l-6 -4q-10 -7 -20.5 -14l-15 -10t-5.5 -3q-15 0 -45 80h-66v-397h76q14 77 40.5 140t68 115.5t104 81.5t141.5 29q132 0 224.5 -189.5t95.5 -522.5h-881zM870 -178q0 37 27.5 63.5t63.5 26.5t63 -26t27 -64t-27 -64t-63 -26 t-63.5 26.5t-27.5 63.5zM1466 1231q0 45 29 74.5t76 29.5q44 0 74 -30t30 -74q0 -43 -30 -74t-74 -31q-46 0 -75.5 30.5t-29.5 74.5zM1761 1231q0 44 30.5 74t74.5 30q45 0 74.5 -29.5t29.5 -74.5q0 -44 -29.5 -74.5t-74.5 -30.5q-44 0 -74.5 31t-30.5 74z" />
<glyph unicode="&#xfe97;&#xfea2;" horiz-adv-x="1943" arabic-form="isolated" d="M133 76q64 -188 211.5 -305t364.5 -117l67 70h-41q-67 0 -127 14t-116.5 44.5t-102.5 86t-74 131.5h1332q134 0 215.5 70t81.5 196v647l-271 -51q64 -21 78 -36.5t14 -55.5v-498q0 -196 -153 -196h-393q-2 114 -26.5 227t-71.5 213t-109.5 177t-147 122t-178.5 45 q-58 0 -115 -17.5t-81.5 -31.5t-67.5 -41l-6 -4q-10 -7 -20.5 -14l-15 -10t-5.5 -3q-15 0 -45 80h-66v-397h76q14 77 40.5 140t68 115.5t104 81.5t141.5 29q132 0 224.5 -189.5t95.5 -522.5h-881zM1466 1231q0 45 29 74.5t76 29.5q44 0 74 -30t30 -74q0 -43 -30 -74t-74 -31 q-46 0 -75.5 30.5t-29.5 74.5zM1761 1231q0 44 30.5 74t74.5 30q45 0 74.5 -29.5t29.5 -74.5q0 -44 -29.5 -74.5t-74.5 -30.5q-44 0 -74.5 31t-30.5 74z" />
<glyph unicode="&#xfe97;&#xfee2;" horiz-adv-x="1970" arabic-form="isolated" d="M6 186q4 -1 48 -15t81.5 -24t54.5 -10q32 0 59.5 9.5t48 23t39.5 39.5t31.5 48t27 58.5t23 62t21.5 68.5t20.5 66.5t22.5 64.5t27 64.5t32.5 57.5t41.5 54t51 43.5t63.5 35.5t77 21t92.5 9h9q72 0 134.5 -27.5t106.5 -72.5t76 -103t47.5 -118.5t15.5 -118.5 q0 -92 -30 -166q27 -77 78.5 -128.5t117.5 -51.5h215q154 0 154 196v498q0 40 -14 55.5t-78 36.5l270 51v-647q0 -126 -81.5 -196t-215.5 -70h-207q-105 0 -174.5 38.5t-120.5 123.5q-130 -166 -346 -166q-66 0 -119.5 15.5t-95 47t-64 54.5t-54.5 63q-120 -176 -285 -176 q-38 30 -74 63q-21 17 -50 46.5t-50 51.5t-27 25zM549 258l35 -41q69 -73 103 -99q71 -52 144 -52q98 0 170 103.5t72 244.5q0 100 -24 184t-76.5 139.5t-124.5 57.5h-6q-38 0 -69 -18t-50.5 -42.5t-38.5 -71t-29 -80.5t-26 -94q-1 -5 -7 -27.5t-8 -29.5t-8 -27.5 t-9.5 -30.5t-9.5 -28t-11 -30t-12.5 -28t-14.5 -30zM1493 1231q0 45 28.5 74.5t75.5 29.5q44 0 74.5 -30t30.5 -74q0 -43 -30.5 -74t-74.5 -31q-46 0 -75 30.5t-29 74.5zM1788 1231q0 45 29.5 74.5t74.5 29.5q46 0 75.5 -29.5t29.5 -74.5q0 -43 -30 -74t-75 -31t-74.5 30.5 t-29.5 74.5z" />
<glyph unicode="&#xfed3;&#xfef2;" horiz-adv-x="1308" arabic-form="isolated" d="M0 705v67l326 16v-540q0 -80 35.5 -123.5t101.5 -48.5h590q19 0 30 2t23 9.5t17 25t5 45.5q0 81 -28.5 107t-112.5 26h-260l-57 69h270q71 0 106 52.5t35 144.5v37q-93 -100 -260 -100q-72 0 -143 38t-121.5 114t-50.5 169q0 131 44 227.5t125.5 153.5t188.5 84t242 27 h154v-750q0 -149 -99 -217q80 -23 112.5 -59t35.5 -121v-25q0 -36 -12.5 -63t-29 -40.5t-38 -21t-33.5 -9t-22 -1.5h-721q-306 0 -306 256v383q0 37 -30.5 51.5t-116.5 14.5zM498 -291q0 43 29.5 73t74.5 30t75 -30t30 -73t-30 -73.5t-75 -30.5t-74.5 30.5t-29.5 73.5z M684 819q0 -60 19.5 -118t62 -101.5t98.5 -46.5h8q84 0 145.5 96t61.5 219v381h-22q-143 0 -251.5 -110t-121.5 -314v-6zM795 -291q0 43 29 73t73 30q45 0 74.5 -30t29.5 -73t-29.5 -73.5t-74.5 -30.5q-44 0 -73 30.5t-29 73.5zM870 1595q0 44 32.5 75.5t74.5 31.5 q43 0 74.5 -31.5t31.5 -75.5q0 -45 -31.5 -75.5t-74.5 -30.5q-42 0 -74.5 30.5t-32.5 75.5z" />
<glyph unicode="&#xfedf;&#xfee2;" horiz-adv-x="1912" arabic-form="isolated" d="M6 186q4 -1 48 -15t81.5 -24t54.5 -10q32 0 59.5 9.5t48 23t39.5 39.5t31.5 48t27 58.5t23 62t21.5 68.5t20.5 66.5t22.5 64.5t27 64.5t32.5 57.5t41.5 54t51 43.5t63.5 35.5t77 21t92.5 9h9q72 0 134.5 -27.5t106.5 -72.5t76 -103t47.5 -118.5t15.5 -118.5 q0 -92 -30 -166q27 -77 78.5 -128.5t117.5 -51.5h158q154 0 154 196v897q0 38 -14.5 54t-78.5 37l271 51v-1045q0 -126 -81.5 -196t-215.5 -70h-150q-105 0 -174.5 38.5t-120.5 123.5q-130 -166 -346 -166q-66 0 -119.5 15.5t-95 47t-64 54.5t-54.5 63q-120 -176 -285 -176 q-38 30 -74 63q-21 17 -50 46.5t-50 51.5t-27 25zM549 258l35 -41q69 -73 103 -99q71 -52 144 -52q98 0 170 103.5t72 244.5q0 100 -24 184t-76.5 139.5t-124.5 57.5h-6q-38 0 -69 -18t-50.5 -42.5t-38.5 -71t-29 -80.5t-26 -94q-1 -5 -7 -27.5t-8 -29.5t-8 -27.5 t-9.5 -30.5t-9.5 -28t-11 -30t-12.5 -28t-14.5 -30z" />
<glyph unicode="&#xfedf;&#xfef0;" horiz-adv-x="1308" arabic-form="isolated" d="M0 705v67l326 16v-540q0 -80 35.5 -123.5t101.5 -48.5h590q19 0 30 2t23 9.5t17 25t5 45.5q0 81 -28.5 107t-112.5 26h-260l-57 69h270q71 0 106 52.5t35 144.5v617q0 38 -10 52t-53 27l2 17l240 45v-758q0 -149 -99 -217q80 -23 114 -62t34 -124q0 -41 -12.5 -72 t-29 -46t-38 -24t-33.5 -10.5t-22 -1.5h-721q-306 0 -306 256v383q0 37 -30.5 51.5t-116.5 14.5z" />
<glyph unicode="&#xfedf;&#xfef2;" horiz-adv-x="1308" arabic-form="isolated" d="M0 705v67l326 16v-540q0 -80 35.5 -123.5t101.5 -48.5h590q19 0 30 2t23 9.5t17 25t5 45.5q0 81 -28.5 107t-112.5 26h-260l-57 69h270q71 0 106 52.5t35 144.5v617q0 38 -10 52t-53 27l2 17l240 45v-758q0 -149 -99 -217q80 -23 114 -62t34 -124q0 -41 -12.5 -72 t-29 -46t-38 -24t-33.5 -10.5t-22 -1.5h-721q-306 0 -306 256v383q0 37 -30.5 51.5t-116.5 14.5zM506 -285q0 45 29 75t75 30q44 0 74.5 -30.5t30.5 -74.5q0 -43 -30.5 -73.5t-74.5 -30.5q-46 0 -75 30t-29 74zM801 -285q0 44 30 74.5t74 30.5q45 0 75 -30t30 -75 q0 -43 -30 -73.5t-75 -30.5q-44 0 -74 30.5t-30 73.5z" />
<glyph unicode="&#xfee3;&#xfee2;" horiz-adv-x="2664" arabic-form="isolated" d="M6 186q4 -1 48 -15t81.5 -24t54.5 -10q32 0 59.5 9.5t48 23t39.5 39.5t31.5 48t27 58.5t23 62t21.5 68.5t20.5 66.5t22.5 64.5t27 64.5t32.5 57.5t41.5 54t51 43.5t63.5 35.5t77 21t92.5 9h9q72 0 134.5 -27.5t106.5 -72.5t76 -103t47.5 -118.5t15.5 -118.5 q0 -92 -30 -166q27 -77 78.5 -128.5t117.5 -51.5h127q49 0 90 10.5t70 25t54.5 43t40.5 51t30.5 64t23.5 66.5t21 72q11 44 21 75t27.5 71.5t37 68.5t50.5 57.5t67.5 47.5t88 30t112.5 12q72 0 135 -27.5t107 -72.5t76 -102.5t47 -118t15 -117.5q0 -77 -27.5 -150t-79 -134 t-136 -98.5t-189.5 -37.5q-67 0 -121.5 15t-96 45t-65.5 53.5t-55 60.5q-83 -86 -229 -86h-199q-105 0 -174.5 38.5t-120.5 123.5q-130 -166 -346 -166q-66 0 -119.5 15.5t-95 47t-64 54.5t-54.5 63q-120 -176 -285 -176q-38 30 -74 63q-21 17 -50 46.5t-50 51.5t-27 25z M549 258l35 -41q69 -73 103 -99q71 -52 144 -52q98 0 170 103.5t72 244.5q0 100 -24 184t-76.5 139.5t-124.5 57.5h-6q-38 0 -69 -18t-50.5 -42.5t-38.5 -71t-29 -80.5t-26 -94q-1 -5 -7 -27.5t-8 -29.5t-8 -27.5t-9.5 -30.5t-9.5 -28t-11 -30t-12.5 -28t-14.5 -30z M1956 166l18 -25q28 -32 47.5 -51.5t55 -48t76 -43t85.5 -14.5q97 0 168.5 99.5t71.5 238.5q0 100 -24 184.5t-75 140t-122 58.5h-8q-27 0 -51 -9.5t-41.5 -23t-34 -39.5t-27 -47t-23 -59t-19.5 -62t-19 -68q-2 -8 -11.5 -43t-13.5 -49.5t-13 -42.5t-18.5 -51t-21.5 -45z " />
<glyph unicode="&#xfee7;&#xfe9e;" horiz-adv-x="1886" arabic-form="isolated" d="M133 76q64 -188 211.5 -305t364.5 -117l67 70h-41q-67 0 -127 14t-116.5 44.5t-102.5 86t-74 131.5h1274q134 0 215.5 70t81.5 196v647l-270 -51q64 -21 78 -36.5t14 -55.5v-498q0 -196 -154 -196h-335q-2 114 -26.5 227t-71.5 213t-109.5 177t-147 122t-178.5 45 q-58 0 -115 -17.5t-81.5 -31.5t-67.5 -41l-6 -4q-10 -7 -20.5 -14l-15 -10t-5.5 -3q-15 0 -45 80h-66v-397h76q14 77 40.5 140t68 115.5t104 81.5t141.5 29q132 0 224.5 -189.5t95.5 -522.5h-881zM870 -178q0 37 27.5 63.5t63.5 26.5t63 -26t27 -64t-27 -64t-63 -26 t-63.5 26.5t-27.5 63.5zM1667 1231q0 45 29.5 74.5t75.5 29.5q44 0 74 -30t30 -74q0 -43 -30 -74t-74 -31q-45 0 -75 31t-30 74z" />
<glyph unicode="&#xfee7;&#xfee2;" horiz-adv-x="1912" arabic-form="isolated" d="M6 186q4 -1 48 -15t81.5 -24t54.5 -10q32 0 59.5 9.5t48 23t39.5 39.5t31.5 48t27 58.5t23 62t21.5 68.5t20.5 66.5t22.5 64.5t27 64.5t32.5 57.5t41.5 54t51 43.5t63.5 35.5t77 21t92.5 9h9q72 0 134.5 -27.5t106.5 -72.5t76 -103t47.5 -118.5t15.5 -118.5 q0 -92 -30 -166q27 -77 78.5 -128.5t117.5 -51.5h158q154 0 154 196v498q0 39 -14.5 55t-78.5 37l271 51v-647q0 -126 -81.5 -196t-215.5 -70h-150q-105 0 -174.5 38.5t-120.5 123.5q-130 -166 -346 -166q-66 0 -119.5 15.5t-95 47t-64 54.5t-54.5 63q-120 -176 -285 -176 q-38 30 -74 63q-21 17 -50 46.5t-50 51.5t-27 25zM549 258l35 -41q69 -73 103 -99q71 -52 144 -52q98 0 170 103.5t72 244.5q0 100 -24 184t-76.5 139.5t-124.5 57.5h-6q-38 0 -69 -18t-50.5 -42.5t-38.5 -71t-29 -80.5t-26 -94q-1 -5 -7 -27.5t-8 -29.5t-8 -27.5 t-9.5 -30.5t-9.5 -28t-11 -30t-12.5 -28t-14.5 -30zM1694 1231q0 45 29.5 74.5t74.5 29.5q44 0 74.5 -30t30.5 -74q0 -43 -30.5 -74t-74.5 -31q-45 0 -74.5 30.5t-29.5 74.5z" />
<glyph unicode="&#xfee7;&#xfef2;" horiz-adv-x="1275" arabic-form="isolated" d="M0 698v70l326 14v-534q0 -80 35.5 -123.5t101.5 -48.5h590q19 0 30 2t23 9.5t17 25t5 45.5q0 80 -28 103.5t-113 23.5h-260l-57 69h270q71 0 106 52.5t35 144.5v203q0 39 -15 55.5t-81 36.5l275 51v-346q0 -149 -99 -217q80 -23 112.5 -59t35.5 -121v-19q0 -36 -12.5 -63 t-29 -40.5t-38 -21t-33.5 -9t-22 -1.5h-721q-306 0 -306 256v377q0 37 -30 51t-117 14zM492 -291q0 44 28.5 73.5t73.5 29.5t74.5 -30t29.5 -73t-29.5 -73.5t-74.5 -30.5t-73.5 30t-28.5 74zM786 -291q0 43 30 73t75 30q44 0 74 -30t30 -73t-30 -73.5t-74 -30.5 q-45 0 -75 30.5t-30 73.5zM1053 1237q0 45 31.5 75.5t74.5 30.5q44 0 75.5 -30.5t31.5 -75.5t-32 -76t-75 -31t-74.5 31t-31.5 76z" />
<glyph unicode="&#xfef3;&#xfee2;" horiz-adv-x="1970" arabic-form="isolated" d="M6 186q4 -1 48 -15t81.5 -24t54.5 -10q32 0 59.5 9.5t48 23t39.5 39.5t31.5 48t27 58.5t23 62t21.5 68.5t20.5 66.5t22.5 64.5t27 64.5t32.5 57.5t41.5 54t51 43.5t63.5 35.5t77 21t92.5 9h9q72 0 134.5 -27.5t106.5 -72.5t76 -103t47.5 -118.5t15.5 -118.5 q0 -92 -30 -166q27 -77 78.5 -128.5t117.5 -51.5h215q154 0 154 196v498q0 40 -14 55.5t-78 36.5l270 51v-647q0 -126 -81.5 -196t-215.5 -70h-207q-105 0 -174.5 38.5t-120.5 123.5q-130 -166 -346 -166q-66 0 -119.5 15.5t-95 47t-64 54.5t-54.5 63q-120 -176 -285 -176 q-38 30 -74 63q-21 17 -50 46.5t-50 51.5t-27 25zM549 258l35 -41q69 -73 103 -99q71 -52 144 -52q98 0 170 103.5t72 244.5q0 100 -24 184t-76.5 139.5t-124.5 57.5h-6q-38 0 -69 -18t-50.5 -42.5t-38.5 -71t-29 -80.5t-26 -94q-1 -5 -7 -27.5t-8 -29.5t-8 -27.5 t-9.5 -30.5t-9.5 -28t-11 -30t-12.5 -28t-14.5 -30zM1419 -291q0 44 29.5 73.5t75.5 29.5q44 0 74 -30t30 -73t-30 -73.5t-74 -30.5q-46 0 -75.5 30t-29.5 74zM1714 -291q0 43 30 73t75 30t74.5 -30t29.5 -73t-29.5 -73.5t-74.5 -30.5t-75 30.5t-30 73.5z" />
<glyph unicode="&#x64c;&#x651;" arabic-form="isolated" d="M16 2025q41 31 68 31q14 0 27 -10q28 -28 28 -53q0 -19 -12.5 -41t-24.5 -34l-12 -13q35 -56 41 -60q2 0 5.5 -1t4.5 -1q8 0 32.5 -2t39.5 -2q111 0 164 43q39 35 39 82q0 38 -25 70q-31 43 -88 43q-28 0 -45 -17q-27 -21 -27 -53q0 -10 4.5 -28t4.5 -19q20 -32 45 -57 q-35 -15 -76 -15q-46 0 -70 8q23 17 37 45.5t14 57.5q0 34 -20 59.5t-57 34.5q-6 2 -19 2q-24 0 -43.5 -17.5t-26.5 -35.5zM70 1599q0 -39 21.5 -57t80.5 -18q63 0 74 49q16 -26 34.5 -37.5t49.5 -11.5q33 0 54.5 19.5t21.5 55.5v138l-48 -6v-127q0 -28 -8.5 -43t-34.5 -15 q-28 0 -42.5 29t-14.5 61v101l-47 -6v-127q0 -26 -12.5 -42t-36.5 -16q-27 0 -36 15.5t-9 44.5v125l-47 6v-138zM279 1991q0 10 18 28q18 9 31 9q31 0 43 -27q4 -8 4 -21q0 -15 -18.5 -32t-37.5 -27q-13 13 -26.5 35t-13.5 35z" />
<glyph unicode="&#x64d;&#x651;" arabic-form="isolated" d="M53 1487l39 -19l336 64h-2q27 37 27 55q0 11 -11 15zM53 1622l39 -18l336 63h-2q27 37 27 55q0 9 -11 13zM70 1839q0 -39 21.5 -57.5t80.5 -18.5q62 0 74 49q16 -26 34.5 -37.5t49.5 -11.5q33 0 54.5 20t21.5 56v139l-48 -8v-125q0 -30 -8.5 -44.5t-34.5 -14.5 q-28 0 -42.5 29.5t-14.5 62.5v100l-47 -8v-125q0 -59 -49 -59q-27 0 -36 15.5t-9 45.5v123l-47 8v-139z" />
<glyph unicode="&#x64e;&#x651;" arabic-form="isolated" d="M12 1776l404 116q12 0 12 -16q0 -10 -7 -25t-13 -25l-7 -9l-338 -64zM70 1542q0 -39 21.5 -57.5t80.5 -18.5q63 0 74 50q16 -26 34.5 -38t49.5 -12q33 0 54.5 20t21.5 56v137l-48 -6v-125q0 -30 -8.5 -44.5t-34.5 -14.5q-28 0 -42.5 29t-14.5 61v100l-47 -6v-125 q0 -59 -49 -59q-27 0 -36 15.5t-9 45.5v123l-47 6v-137z" />
<glyph unicode="&#x64f;&#x651;" arabic-form="isolated" d="M27 1767l190 52q-24 10 -37.5 41t-13.5 61q0 58 38.5 98.5t94.5 40.5q54 0 93.5 -40.5t39.5 -98.5q0 -53 -36.5 -91.5t-94.5 -47.5l-235 -31zM70 1542q0 -39 21.5 -57.5t80.5 -18.5q63 0 74 50q16 -26 34.5 -38t49.5 -12q33 0 54.5 20t21.5 56v137l-48 -6v-125 q0 -30 -8.5 -44.5t-34.5 -14.5q-28 0 -42.5 29t-14.5 61v100l-47 -6v-125q0 -59 -49 -59q-27 0 -36 15.5t-9 45.5v123l-47 6v-137zM201 1923q1 -45 27 -62.5t55 -17.5l8 2h4q63 16 63 78v8q-4 90 -57 90h-14q-35 -3 -60.5 -31.5t-25.5 -66.5z" />
<glyph unicode="&#x650;&#x651;" arabic-form="isolated" d="M47 1485l391 114q8 -4 8 -14q0 -8 -6.5 -21.5t-13.5 -23.5l-6 -10h2l-334 -64zM70 1739v137l47 -8v-121q0 -30 9 -45.5t36 -15.5q49 0 49 59v123l47 8v-100q0 -32 14.5 -61t42.5 -29q26 0 34.5 14.5t8.5 44.5v123l48 8v-137q0 -36 -21.5 -56t-54.5 -20q-31 0 -49.5 11.5 t-34.5 37.5q-12 -49 -74 -49q-59 0 -80.5 18.5t-21.5 57.5z" />
<glyph unicode="&#xfe92;&#xfeae;" horiz-adv-x="1576" arabic-form="final" d="M0 -360q117 31 198.5 75.5t142.5 114.5t90.5 174t29.5 246v520q0 40 -14 55.5t-78 36.5l272 51v-510q0 -194 -23 -327h355q153 0 153 190v514q0 34 -14 47.5t-76 34.5l271 51v-522q0 -67 27 -138.5t81.5 -124t120.5 -52.5h59v-76h-24q-76 0 -142.5 43t-115.5 117 q-64 -160 -303 -160h-406q-19 -83 -52 -146.5t-86.5 -115.5t-134 -79.5t-184.5 -27.5q-33 0 -147 9zM1049 -270q0 44 31 75t73 31q43 0 75 -31t32 -75q0 -45 -32 -76t-75 -31q-42 0 -73 31t-31 76z" />
<glyph unicode="&#xfe92;&#xfee6;" horiz-adv-x="2312" arabic-form="final" d="M0 674v69l328 15v-436q0 -137 24 -244t63 -174t94 -110t112.5 -60t123.5 -17t123.5 17t113 60t94.5 110t63 174t24 244v395q0 37 -14.5 52.5t-79.5 37.5l274 51v-461q0 -69 25 -141t78 -126t119 -54h145q154 0 154 190v514q0 34 -14.5 47t-75.5 35l270 51v-522 q0 -67 27 -138.5t81.5 -124t120.5 -52.5h60v-76h-25q-76 0 -142.5 43t-115.5 117q-64 -160 -303 -160h-141q-89 0 -167.5 61.5t-105.5 128.5q-59 -256 -206.5 -399t-381.5 -143q-115 0 -213.5 38.5t-168 104t-119 152t-73.5 183t-24 196.5v286q0 37 -30.5 51.5t-116.5 14.5z M621 963q0 44 31.5 75t74.5 31t75 -31t32 -75q0 -45 -32 -76t-75 -31t-74.5 31t-31.5 76zM1784 -270q0 44 31.5 75t74.5 31t75 -31t32 -75q0 -45 -32 -76t-75 -31t-74.5 31t-31.5 76z" />
<glyph unicode="&#xfe98;&#xfeae;" horiz-adv-x="1632" arabic-form="final" d="M0 -360q117 31 198.5 75.5t142.5 114.5t90.5 174t29.5 246v520q0 40 -14 55.5t-78 36.5l272 51v-510q0 -194 -23 -327h355q153 0 153 190v514q0 34 -14 47.5t-76 34.5l271 51v-522q0 -67 27 -138.5t81.5 -124t120.5 -52.5h117v-76h-82q-76 0 -142.5 43t-115.5 117 q-64 -160 -303 -160h-406q-19 -83 -52 -146.5t-86.5 -115.5t-134 -79.5t-184.5 -27.5q-33 0 -147 9zM920 1231q0 45 28.5 74.5t73.5 29.5t74.5 -29.5t29.5 -74.5q0 -44 -29.5 -74.5t-74.5 -30.5t-73.5 30.5t-28.5 74.5zM1214 1231q0 45 30 74.5t75 29.5q44 0 74 -30t30 -74 q0 -43 -30 -74t-74 -31q-45 0 -75 31t-30 74z" />
<glyph unicode="&#xfe98;&#xfee6;" horiz-adv-x="2369" arabic-form="final" d="M0 674v69l328 15v-436q0 -137 24 -244t63 -174t94 -110t112.5 -60t123.5 -17t123.5 17t113 60t94.5 110t63 174t24 244v395q0 37 -14.5 52.5t-79.5 37.5l274 51v-461q0 -69 25 -141t78 -126t119 -54h145q154 0 154 190v514q0 34 -14.5 47t-75.5 35l270 51v-522 q0 -67 27 -138.5t81.5 -124t120.5 -52.5h115v-76h-80q-76 0 -142.5 43t-115.5 117q-64 -160 -303 -160h-141q-89 0 -167.5 61.5t-105.5 128.5q-59 -256 -206.5 -399t-381.5 -143q-115 0 -213.5 38.5t-168 104t-119 152t-73.5 183t-24 196.5v286q0 37 -30.5 51.5t-116.5 14.5 zM621 963q0 44 31.5 75t74.5 31t75 -31t32 -75q0 -45 -32 -76t-75 -31t-74.5 31t-31.5 76zM1655 1231q0 45 29.5 74.5t74.5 29.5t75 -29.5t30 -74.5q0 -43 -30 -74t-75 -31t-74.5 30.5t-29.5 74.5zM1952 1231q0 45 29.5 74.5t74.5 29.5q44 0 73.5 -30t29.5 -74 q0 -43 -29.5 -74t-73.5 -31q-45 0 -74.5 30.5t-29.5 74.5z" />
<glyph unicode="&#xfe9c;&#xfeae;" horiz-adv-x="1632" arabic-form="final" d="M0 -360q117 31 198.5 75.5t142.5 114.5t90.5 174t29.5 246v520q0 40 -14 55.5t-78 36.5l272 51v-510q0 -194 -23 -327h355q153 0 153 190v514q0 34 -14 47.5t-76 34.5l271 51v-522q0 -67 27 -138.5t81.5 -124t120.5 -52.5h117v-76h-82q-76 0 -142.5 43t-115.5 117 q-64 -160 -303 -160h-406q-19 -83 -52 -146.5t-86.5 -115.5t-134 -79.5t-184.5 -27.5q-33 0 -147 9zM926 1229q0 40 27 68t69 28q41 0 68.5 -28t27.5 -68t-27.5 -68t-68.5 -28q-42 0 -69 28t-27 68zM1083 1452q0 37 25.5 61.5t65.5 24.5q38 0 62 -24.5t24 -61.5 q0 -39 -24 -64.5t-62 -25.5q-40 0 -65.5 26t-25.5 64zM1231 1229q0 40 28 68t68 28q41 0 68.5 -28t27.5 -68t-27.5 -68t-68.5 -28q-40 0 -68 28t-28 68z" />
<glyph unicode="&#xfee8;&#xfeae;" horiz-adv-x="1576" arabic-form="final" d="M0 -360q117 31 198.5 75.5t142.5 114.5t90.5 174t29.5 246v520q0 40 -14 55.5t-78 36.5l272 51v-510q0 -194 -23 -327h355q153 0 153 190v514q0 34 -14 47.5t-76 34.5l271 51v-522q0 -67 27 -138.5t81.5 -124t120.5 -52.5h59v-76h-24q-76 0 -142.5 43t-115.5 117 q-64 -160 -303 -160h-406q-19 -83 -52 -146.5t-86.5 -115.5t-134 -79.5t-184.5 -27.5q-33 0 -147 9zM1077 1231q0 44 30.5 74t74.5 30q45 0 74.5 -29.5t29.5 -74.5q0 -44 -29.5 -74.5t-74.5 -30.5q-44 0 -74.5 31t-30.5 74z" />
<glyph unicode="&#xfee8;&#xfee6;" horiz-adv-x="2312" arabic-form="final" d="M0 674v69l328 15v-436q0 -137 24 -244t63 -174t94 -110t112.5 -60t123.5 -17t123.5 17t113 60t94.5 110t63 174t24 244v395q0 37 -14.5 52.5t-79.5 37.5l274 51v-461q0 -69 25 -141t78 -126t119 -54h145q154 0 154 190v514q0 34 -14.5 47t-75.5 35l270 51v-522 q0 -67 27 -138.5t81.5 -124t120.5 -52.5h60v-76h-25q-76 0 -142.5 43t-115.5 117q-64 -160 -303 -160h-141q-89 0 -167.5 61.5t-105.5 128.5q-59 -256 -206.5 -399t-381.5 -143q-115 0 -213.5 38.5t-168 104t-119 152t-73.5 183t-24 196.5v286q0 37 -30.5 51.5t-116.5 14.5z M621 963q0 44 31.5 75t74.5 31t75 -31t32 -75q0 -45 -32 -76t-75 -31t-74.5 31t-31.5 76zM1817 1231q0 45 29.5 74.5t74.5 29.5t74.5 -29.5t29.5 -74.5q0 -44 -29.5 -74.5t-74.5 -30.5t-74.5 30.5t-29.5 74.5z" />
<glyph unicode="&#xfef4;&#xfeae;" horiz-adv-x="1576" arabic-form="final" d="M0 -360q117 31 198.5 75.5t142.5 114.5t90.5 174t29.5 246v520q0 40 -14 55.5t-78 36.5l272 51v-510q0 -194 -23 -327h355q153 0 153 190v514q0 34 -14 47.5t-76 34.5l271 51v-522q0 -67 27 -138.5t81.5 -124t120.5 -52.5h59v-76h-24q-76 0 -142.5 43t-115.5 117 q-64 -160 -303 -160h-406q-19 -83 -52 -146.5t-86.5 -115.5t-134 -79.5t-184.5 -27.5q-33 0 -147 9zM770 -291q0 44 28.5 73.5t73.5 29.5t75 -30t30 -73t-30 -73.5t-75 -30.5t-73.5 30t-28.5 74zM1065 -291q0 43 29.5 73t74.5 30q44 0 74.5 -30t30.5 -73t-30.5 -73.5 t-74.5 -30.5q-45 0 -74.5 30.5t-29.5 73.5z" />
<glyph unicode="&#xfef4;&#xfee6;" horiz-adv-x="2312" arabic-form="final" d="M0 674v69l328 15v-436q0 -137 24 -244t63 -174t94 -110t112.5 -60t123.5 -17t123.5 17t113 60t94.5 110t63 174t24 244v395q0 37 -14.5 52.5t-79.5 37.5l274 51v-461q0 -69 25 -141t78 -126t119 -54h145q154 0 154 190v514q0 34 -14.5 47t-75.5 35l270 51v-522 q0 -67 27 -138.5t81.5 -124t120.5 -52.5h60v-76h-25q-76 0 -142.5 43t-115.5 117q-64 -160 -303 -160h-141q-89 0 -167.5 61.5t-105.5 128.5q-59 -256 -206.5 -399t-381.5 -143q-115 0 -213.5 38.5t-168 104t-119 152t-73.5 183t-24 196.5v286q0 37 -30.5 51.5t-116.5 14.5z M621 963q0 44 31.5 75t74.5 31t75 -31t32 -75q0 -45 -32 -76t-75 -31t-74.5 31t-31.5 76zM1505 -291q0 43 30 73t75 30t74.5 -30t29.5 -73t-29.5 -73.5t-74.5 -30.5t-75 30.5t-30 73.5zM1802 -291q0 43 30 73t75 30q44 0 73 -30t29 -73t-29 -73.5t-73 -30.5q-45 0 -75 30.5 t-30 73.5z" />
<glyph unicode="&#xfe91;&#xfee4;" horiz-adv-x="1728" arabic-form="initial" d="M-18 0v76h84q55 12 77 30q28 27 53 81t37 94t31 110q10 40 16.5 63.5t19 60.5t23.5 59t29.5 52.5t38 48.5t48 38.5t61 31t75 18t91.5 7.5q72 0 134.5 -27.5t107 -72.5t76.5 -102.5t47.5 -118t15.5 -117.5q0 -34 -7 -74q28 -78 81 -130t118 -52h158q77 0 115 52t38 144 v498q0 40 -14.5 55.5t-79.5 36.5l273 51v-647q0 -126 -82.5 -196t-216.5 -70h-150q-98 0 -163 33t-120 104q-48 -101 -145.5 -163t-239.5 -62q-66 0 -120.5 15t-94.5 44t-64.5 53.5t-53.5 61.5q-79 -86 -216 -86h-81zM336 166q5 -3 10 -12q25 -32 48 -55.5t58.5 -53 t78 -45.5t87.5 -16q97 0 168.5 99.5t71.5 238.5q0 101 -23 184.5t-74.5 139.5t-123.5 59h-8q-38 0 -69 -18t-50.5 -42.5t-38.5 -71.5t-29 -81t-26 -95l-4 -12q-38 -146 -76 -219zM1382 -291q0 45 32 76t75 31t74.5 -31t31.5 -76q0 -44 -31.5 -74t-74.5 -30t-75 30t-32 74z " />
<glyph unicode="&#xfe97;&#xfea0;" horiz-adv-x="1843" arabic-form="initial" d="M-18 0v76h940q-2 168 -31 305t-76 223t-105.5 132t-121.5 46q-128 0 -220.5 -109t-144.5 -282l-84 154q24 13 42 29.5t40 50.5q31 50 61 86t74.5 71t104 53.5t133.5 18.5q95 0 179.5 -44.5t146.5 -120.5t108 -175.5t70 -211.5t26 -226h387q154 0 154 196v498 q0 40 -14 55.5t-78 36.5l270 51v-647q0 -126 -81.5 -196t-215.5 -70h-1564zM469 -289q0 45 31.5 76t74.5 31t75 -31t32 -76q0 -44 -32 -74t-75 -30t-74.5 30t-31.5 74zM1327 1231q0 45 29.5 74.5t75.5 29.5q45 0 74.5 -29.5t29.5 -74.5q0 -44 -29.5 -74.5t-74.5 -30.5 t-75 31t-30 74zM1624 1231q0 45 30 74.5t75 29.5q44 0 73 -30t29 -74q0 -43 -29 -74t-73 -31q-45 0 -75 31t-30 74z" />
<glyph unicode="&#xfe97;&#xfea4;" horiz-adv-x="1843" arabic-form="initial" d="M-18 0v76h940q-2 168 -31 305t-76 223t-105.5 132t-121.5 46q-128 0 -220.5 -109t-144.5 -282l-84 154q24 13 42 29.5t40 50.5q31 50 61 86t74.5 71t104 53.5t133.5 18.5q95 0 179.5 -44.5t146.5 -120.5t108 -175.5t70 -211.5t26 -226h387q154 0 154 196v498 q0 40 -14 55.5t-78 36.5l270 51v-647q0 -126 -81.5 -196t-215.5 -70h-1564zM1366 1231q0 45 28.5 74.5t75.5 29.5q44 0 74.5 -30t30.5 -74q0 -43 -30.5 -74t-74.5 -31q-46 0 -75 30.5t-29 74.5zM1661 1231q0 45 29.5 74.5t74.5 29.5t75 -29.5t30 -74.5q0 -43 -30 -74 t-75 -31t-74.5 30.5t-29.5 74.5z" />
<glyph unicode="&#xfe97;&#xfee4;" horiz-adv-x="1783" arabic-form="initial" d="M-18 0v76h84q55 12 77 30q28 27 53 81t37 94t31 110q10 40 16.5 63.5t19 60.5t23.5 59t29.5 52.5t38 48.5t48 38.5t61 31t75 18t91.5 7.5q72 0 134.5 -27.5t107 -72.5t76.5 -102.5t47.5 -118t15.5 -117.5q0 -34 -7 -74q28 -78 81 -130t118 -52h213q154 0 154 196v498 q0 39 -14.5 55t-78.5 37l271 51v-647q0 -126 -81.5 -196t-215.5 -70h-207q-98 0 -163 33t-120 104q-48 -101 -145.5 -163t-239.5 -62q-66 0 -120.5 15t-94.5 44t-64.5 53.5t-53.5 61.5q-79 -86 -216 -86h-81zM336 166q5 -3 10 -12q25 -32 48 -55.5t58.5 -53t78 -45.5 t87.5 -16q97 0 168.5 99.5t71.5 238.5q0 101 -23 184.5t-74.5 139.5t-123.5 59h-8q-38 0 -69 -18t-50.5 -42.5t-38.5 -71.5t-29 -81t-26 -95l-4 -12q-38 -146 -76 -219zM1305 1231q0 45 29.5 74.5t74.5 29.5t74.5 -29.5t29.5 -74.5q0 -44 -29.5 -74.5t-74.5 -30.5 t-74.5 30.5t-29.5 74.5zM1602 1231q0 44 29 74t73 30q45 0 74.5 -29.5t29.5 -74.5q0 -44 -29.5 -74.5t-74.5 -30.5q-44 0 -73 31t-29 74z" />
<glyph unicode="&#xfedf;&#xfea0;" horiz-adv-x="1785" arabic-form="initial" d="M-18 0v76h940q-2 168 -31 305t-76 223t-105.5 132t-121.5 46q-128 0 -220.5 -109t-144.5 -282l-84 154q24 13 42 29.5t40 50.5q31 50 61 86t74.5 71t104 53.5t133.5 18.5q95 0 179.5 -44.5t146.5 -120.5t108 -175.5t70 -211.5t26 -226h330q154 0 154 196v897 q0 38 -14 54.5t-78 36.5l270 51v-1045q0 -126 -81.5 -196t-215.5 -70h-1507zM494 -291q0 44 31.5 74.5t74.5 30.5t75 -30.5t32 -74.5q0 -45 -31.5 -75.5t-75.5 -30.5q-43 0 -74.5 30.5t-31.5 75.5z" />
<glyph unicode="&#xfedf;&#xfea4;" horiz-adv-x="1785" arabic-form="initial" d="M-18 0v76h940q-2 168 -31 305t-76 223t-105.5 132t-121.5 46q-128 0 -220.5 -109t-144.5 -282l-84 154q24 13 42 29.5t40 50.5q31 50 61 86t74.5 71t104 53.5t133.5 18.5q95 0 179.5 -44.5t146.5 -120.5t108 -175.5t70 -211.5t26 -226h330q154 0 154 196v897 q0 38 -14 54.5t-78 36.5l270 51v-1045q0 -126 -81.5 -196t-215.5 -70h-1507z" />
<glyph unicode="&#xfedf;&#xfea8;" horiz-adv-x="1785" arabic-form="initial" d="M-18 0v76h940q-2 168 -31 305t-76 223t-105.5 132t-121.5 46q-128 0 -220.5 -109t-144.5 -282l-84 154q24 13 42 29.5t40 50.5q31 50 61 86t74.5 71t104 53.5t133.5 18.5q95 0 179.5 -44.5t146.5 -120.5t108 -175.5t70 -211.5t26 -226h330q154 0 154 196v897 q0 38 -14 54.5t-78 36.5l270 51v-1045q0 -126 -81.5 -196t-215.5 -70h-1507zM494 1159q0 45 31.5 76t74.5 31t75 -31t32 -76t-31.5 -75.5t-75.5 -30.5q-43 0 -74.5 30.5t-31.5 75.5z" />
<glyph unicode="&#xfedf;&#xfee4;" horiz-adv-x="1728" arabic-form="initial" d="M-18 0v76h84q55 12 77 30q28 27 53 81t37 94t31 110q10 40 16.5 63.5t19 60.5t23.5 59t29.5 52.5t38 48.5t48 38.5t61 31t75 18t91.5 7.5q72 0 134.5 -27.5t107 -72.5t76.5 -102.5t47.5 -118t15.5 -117.5q0 -34 -7 -74q28 -78 81 -130t118 -52h158q77 0 115 52t38 144 v897q0 38 -14.5 54.5t-79.5 36.5l273 51v-1045q0 -126 -82.5 -196t-216.5 -70h-150q-98 0 -163 33t-120 104q-48 -101 -145.5 -163t-239.5 -62q-66 0 -120.5 15t-94.5 44t-64.5 53.5t-53.5 61.5q-79 -86 -216 -86h-81zM336 166q5 -3 10 -12q25 -32 48 -55.5t58.5 -53 t78 -45.5t87.5 -16q97 0 168.5 99.5t71.5 238.5q0 101 -23 184.5t-74.5 139.5t-123.5 59h-8q-38 0 -69 -18t-50.5 -42.5t-38.5 -71.5t-29 -81t-26 -95l-4 -12q-38 -146 -76 -219z" />
<glyph unicode="&#xfee3;&#xfea0;" horiz-adv-x="2537" arabic-form="initial" d="M-18 0v76h940q-2 168 -31 305t-76 223t-105.5 132t-121.5 46q-128 0 -220.5 -109t-144.5 -282l-84 154q24 13 42 29.5t40 50.5q31 50 61 86t74.5 71t104 53.5t133.5 18.5q95 0 179.5 -44.5t146.5 -120.5t108 -175.5t70 -211.5t26 -226h299q49 0 90 10.5t70 25t54.5 43 t40.5 51t30.5 64t23.5 66.5t21 72q11 44 21 75t27.5 71.5t37 68.5t50.5 57.5t67.5 47.5t88 30t112.5 12q72 0 135 -27.5t107 -72.5t76 -102.5t47 -118t15 -117.5q0 -77 -27.5 -150t-79 -134t-136 -98.5t-189.5 -37.5q-67 0 -121.5 15t-96 45t-65.5 53.5t-55 60.5 q-83 -86 -229 -86h-1556zM494 -291q0 44 31.5 74.5t74.5 30.5t75 -30.5t32 -74.5q0 -45 -31.5 -75.5t-75.5 -30.5q-43 0 -74.5 30.5t-31.5 75.5zM1829 166l18 -25q28 -32 47.5 -51.5t55 -48t76 -43t85.5 -14.5q97 0 168.5 99.5t71.5 238.5q0 100 -24 184.5t-75 140 t-122 58.5h-8q-27 0 -51 -9.5t-41.5 -23t-34 -39.5t-27 -47t-23 -59t-19.5 -62t-19 -68q-2 -8 -11.5 -43t-13.5 -49.5t-13 -42.5t-18.5 -51t-21.5 -45z" />
<glyph unicode="&#xfee3;&#xfea4;" horiz-adv-x="2537" arabic-form="initial" d="M-18 0v76h940q-2 168 -31 305t-76 223t-105.5 132t-121.5 46q-128 0 -220.5 -109t-144.5 -282l-84 154q24 13 42 29.5t40 50.5q31 50 61 86t74.5 71t104 53.5t133.5 18.5q95 0 179.5 -44.5t146.5 -120.5t108 -175.5t70 -211.5t26 -226h299q49 0 90 10.5t70 25t54.5 43 t40.5 51t30.5 64t23.5 66.5t21 72q11 44 21 75t27.5 71.5t37 68.5t50.5 57.5t67.5 47.5t88 30t112.5 12q72 0 135 -27.5t107 -72.5t76 -102.5t47 -118t15 -117.5q0 -77 -27.5 -150t-79 -134t-136 -98.5t-189.5 -37.5q-67 0 -121.5 15t-96 45t-65.5 53.5t-55 60.5 q-83 -86 -229 -86h-1556zM1829 166l18 -25q28 -32 47.5 -51.5t55 -48t76 -43t85.5 -14.5q97 0 168.5 99.5t71.5 238.5q0 100 -24 184.5t-75 140t-122 58.5h-8q-27 0 -51 -9.5t-41.5 -23t-34 -39.5t-27 -47t-23 -59t-19.5 -62t-19 -68q-2 -8 -11.5 -43t-13.5 -49.5t-13 -42.5 t-18.5 -51t-21.5 -45z" />
<glyph unicode="&#xfee3;&#xfea8;" horiz-adv-x="2537" arabic-form="initial" d="M-18 0v76h940q-2 168 -31 305t-76 223t-105.5 132t-121.5 46q-128 0 -220.5 -109t-144.5 -282l-84 154q24 13 42 29.5t40 50.5q31 50 61 86t74.5 71t104 53.5t133.5 18.5q95 0 179.5 -44.5t146.5 -120.5t108 -175.5t70 -211.5t26 -226h299q49 0 90 10.5t70 25t54.5 43 t40.5 51t30.5 64t23.5 66.5t21 72q11 44 21 75t27.5 71.5t37 68.5t50.5 57.5t67.5 47.5t88 30t112.5 12q72 0 135 -27.5t107 -72.5t76 -102.5t47 -118t15 -117.5q0 -77 -27.5 -150t-79 -134t-136 -98.5t-189.5 -37.5q-67 0 -121.5 15t-96 45t-65.5 53.5t-55 60.5 q-83 -86 -229 -86h-1556zM494 1157q0 45 31.5 76t74.5 31t75 -31t32 -76q0 -44 -32 -75t-75 -31t-74.5 31t-31.5 75zM1829 166l18 -25q28 -32 47.5 -51.5t55 -48t76 -43t85.5 -14.5q97 0 168.5 99.5t71.5 238.5q0 100 -24 184.5t-75 140t-122 58.5h-8q-27 0 -51 -9.5 t-41.5 -23t-34 -39.5t-27 -47t-23 -59t-19.5 -62t-19 -68q-2 -8 -11.5 -43t-13.5 -49.5t-13 -42.5t-18.5 -51t-21.5 -45z" />
<glyph unicode="&#xfee3;&#xfee4;" horiz-adv-x="2480" arabic-form="initial" d="M-18 0v76h84q55 12 77 30q28 27 53 81t37 94t31 110q10 40 16.5 63.5t19 60.5t23.5 59t29.5 52.5t38 48.5t48 38.5t61 31t75 18t91.5 7.5q72 0 134.5 -27.5t107 -72.5t76.5 -102.5t47.5 -118t15.5 -117.5q0 -34 -7 -74q28 -78 81 -130t118 -52h125q39 0 72.5 6.5t59.5 16 t49 27t39.5 33t32 42t25 46t20.5 52t16.5 53t15.5 56.5q11 43 21 74.5t27.5 71.5t37.5 68.5t50.5 58t67 47.5t87.5 30t112 12q72 0 135.5 -27.5t108 -72.5t76.5 -102.5t47.5 -118t15.5 -117.5q0 -77 -27.5 -150t-79.5 -134t-137 -98.5t-190 -37.5q-54 0 -101.5 12 t-78.5 26.5t-65 42.5t-49.5 44.5t-43.5 48.5q-83 -86 -229 -86h-199q-98 0 -163 33t-120 104q-48 -101 -145.5 -163t-239.5 -62q-66 0 -120.5 15t-94.5 44t-64.5 53.5t-53.5 61.5q-79 -86 -216 -86h-81zM336 166q5 -3 10 -12q25 -32 48 -55.5t58.5 -53t78 -45.5t87.5 -16 q97 0 168.5 99.5t71.5 238.5q0 101 -23 184.5t-74.5 139.5t-123.5 59h-8q-38 0 -69 -18t-50.5 -42.5t-38.5 -71.5t-29 -81t-26 -95l-4 -12q-38 -146 -76 -219zM1769 166l19 -25q27 -31 47.5 -51.5t56 -48.5t76.5 -42.5t86 -14.5q97 0 167.5 99.5t70.5 238.5q0 100 -24 184.5 t-75 140t-122 58.5h-9q-38 0 -69 -18t-50.5 -42.5t-38.5 -71.5t-29 -81t-26 -95q-1 -5 -7 -27.5t-8 -29.5t-8 -27.5t-9.5 -30.5t-9.5 -28t-11 -30t-12.5 -28t-14.5 -30z" />
<glyph unicode="&#xfee7;&#xfea0;" horiz-adv-x="1785" arabic-form="initial" d="M-18 0v76h940q-2 168 -31 305t-76 223t-105.5 132t-121.5 46q-128 0 -220.5 -109t-144.5 -282l-84 154q24 13 42 29.5t40 50.5q31 50 61 86t74.5 71t104 53.5t133.5 18.5q95 0 179.5 -44.5t146.5 -120.5t108 -175.5t70 -211.5t26 -226h330q154 0 154 196v498 q0 40 -14 55.5t-78 36.5l270 51v-647q0 -126 -81.5 -196t-215.5 -70h-1507zM469 -289q0 45 31.5 76t74.5 31t75 -31t32 -76q0 -44 -32 -74t-75 -30t-74.5 30t-31.5 74zM1567 1231q0 45 29.5 74.5t74.5 29.5q44 0 74.5 -30t30.5 -74q0 -43 -30.5 -74t-74.5 -31 q-45 0 -74.5 30.5t-29.5 74.5z" />
<glyph unicode="&#xfee7;&#xfee4;" horiz-adv-x="1728" arabic-form="initial" d="M-18 0v76h84q55 12 77 30q28 27 53 81t37 94t31 110q10 40 16.5 63.5t19 60.5t23.5 59t29.5 52.5t38 48.5t48 38.5t61 31t75 18t91.5 7.5q72 0 134.5 -27.5t107 -72.5t76.5 -102.5t47.5 -118t15.5 -117.5q0 -34 -7 -74q28 -78 81 -130t118 -52h158q77 0 115 52t38 144 v498q0 40 -14.5 55.5t-79.5 36.5l273 51v-647q0 -126 -82.5 -196t-216.5 -70h-150q-98 0 -163 33t-120 104q-48 -101 -145.5 -163t-239.5 -62q-66 0 -120.5 15t-94.5 44t-64.5 53.5t-53.5 61.5q-79 -86 -216 -86h-81zM336 166q5 -3 10 -12q25 -32 48 -55.5t58.5 -53 t78 -45.5t87.5 -16q97 0 168.5 99.5t71.5 238.5q0 101 -23 184.5t-74.5 139.5t-123.5 59h-8q-38 0 -69 -18t-50.5 -42.5t-38.5 -71.5t-29 -81t-26 -95l-4 -12q-38 -146 -76 -219zM1505 1231q0 44 30.5 74t74.5 30q45 0 74.5 -29.5t29.5 -74.5q0 -44 -29.5 -74.5t-74.5 -30.5 q-44 0 -74.5 31t-30.5 74z" />
<glyph unicode="&#xfef3;&#xfee4;" horiz-adv-x="1783" arabic-form="initial" d="M-18 0v76h84q55 12 77 30q28 27 53 81t37 94t31 110q10 40 16.5 63.5t19 60.5t23.5 59t29.5 52.5t38 48.5t48 38.5t61 31t75 18t91.5 7.5q72 0 134.5 -27.5t107 -72.5t76.5 -102.5t47.5 -118t15.5 -117.5q0 -34 -7 -74q28 -78 81 -130t118 -52h213q154 0 154 196v498 q0 39 -14.5 55t-78.5 37l271 51v-647q0 -126 -81.5 -196t-215.5 -70h-207q-98 0 -163 33t-120 104q-48 -101 -145.5 -163t-239.5 -62q-66 0 -120.5 15t-94.5 44t-64.5 53.5t-53.5 61.5q-79 -86 -216 -86h-81zM336 166q5 -3 10 -12q25 -32 48 -55.5t58.5 -53t78 -45.5 t87.5 -16q97 0 168.5 99.5t71.5 238.5q0 101 -23 184.5t-74.5 139.5t-123.5 59h-8q-38 0 -69 -18t-50.5 -42.5t-38.5 -71.5t-29 -81t-26 -95l-4 -12q-38 -146 -76 -219zM1233 -291q0 43 29.5 73t74.5 30t75 -30t30 -73t-30 -73.5t-75 -30.5t-74.5 30.5t-29.5 73.5z M1528 -291q0 43 30 73t74 30q45 0 75 -30t30 -73t-30 -73.5t-75 -30.5q-44 0 -74 30.5t-30 73.5z" />
<glyph unicode="&#xfe8e;&#x64b;" horiz-adv-x="733" arabic-form="final" d="M115 1413l403 117q12 0 12 -17q0 -10 -6.5 -25t-13.5 -24l-6 -10l-338 -63zM115 1548l403 117q12 0 12 -16q0 -10 -6.5 -25t-13.5 -25l-6 -10l-338 -63zM186 1223v67l328 15v-1057q0 -81 35 -124t100 -48h103v-76h-115q-303 0 -303 256v899q0 38 -31 53t-117 15z" />
<glyph unicode="&#x627;&#x64b;" horiz-adv-x="452" arabic-form="isolated" d="M115 1413l403 117q12 0 12 -17q0 -10 -6.5 -25t-13.5 -24l-6 -10l-338 -63zM115 1548l403 117q12 0 12 -16q0 -10 -6.5 -25t-13.5 -25l-6 -10l-338 -63zM184 1257l269 52v-1309h-181v1167q0 38 -13.5 53.5t-74.5 36.5z" />
<glyph unicode="&#xfedf;&#xfee4;&#xfea4;" horiz-adv-x="3043" arabic-form="initial" d="M-18 0v76h940q-2 168 -31 305t-76 223t-105.5 132t-121.5 46q-128 0 -220.5 -109t-144.5 -282l-84 154q24 13 42 29.5t40 50.5q31 50 61 86t74.5 71t104 53.5t133.5 18.5q95 0 179.5 -44.5t146.5 -120.5t108 -175.5t70 -211.5t26 -226h308q55 12 77 30q28 27 52.5 80 t37.5 96t29 109q20 75 33 114.5t44.5 99t69.5 89t104 53t153 23.5q72 0 134.5 -27.5t107 -72.5t76.5 -102.5t47.5 -118t15.5 -117.5q0 -34 -7 -74q28 -78 81 -130t118 -52h94q164 0 164 196v895q0 38 -14 53.5t-78 36.5l272 52v-1043q0 -126 -83.5 -196t-217.5 -70h-96 q-98 0 -163 33t-120 104q-48 -101 -145.5 -163t-239.5 -62q-66 0 -120.5 15t-95 43.5t-65.5 54t-52 61.5q-79 -86 -215 -86h-1448zM1702 166q8 -8 10 -12q26 -32 48.5 -55.5t58 -53t78 -45.5t88.5 -16q97 0 168 99.5t71 238.5q0 101 -23 184.5t-74.5 139.5t-123.5 59h-8 q-27 0 -51 -9.5t-41.5 -23t-34 -39.5t-27 -47t-23 -59t-19.5 -62t-19 -68l-2 -12q-38 -146 -76 -219z" />
<glyph unicode="&#xfedf;&#xfee0;&#xfeea;" horiz-adv-x="2293" arabic-form="isolated" d="M133 475q0 89 30 172.5t83 149.5t133 105.5t174 39.5q54 0 106 -16t77 -29.5t59 -36.5l34 -22q7 0 23 51q1 3 2 8t3.5 11t8.5 12h103q-15 -66 -15 -150v-530q0 -155 107 -164h239q154 0 154 190v819q0 34 -14 47.5t-76 34.5l268 52v-828q0 -67 27.5 -138.5t83 -124 t121.5 -52.5h88q162 0 162 196v895q0 38 -14 53.5t-77 36.5l271 52v-1043q0 -126 -82.5 -196t-216.5 -70h-97q-76 0 -142.5 43t-115.5 117q-64 -160 -303 -160h-276q-47 1 -80.5 5t-68.5 17.5t-56.5 36t-35 61.5t-13.5 93q-13 -36 -36 -71t-58 -68t-88 -53.5t-115 -20.5 q-105 0 -192 65.5t-136 174.5t-49 235zM319 463q0 -86 14.5 -156t37.5 -113t52.5 -72t57.5 -40.5t56 -11.5q75 0 135.5 51t85.5 133q22 75 22 248q0 60 -3.5 106t-17.5 98t-37.5 85.5t-66.5 56t-102 22.5q-77 0 -131 -59t-78.5 -148.5t-24.5 -199.5z" />
<glyph unicode="&#xfedf;&#xfe82;" horiz-adv-x="983" arabic-form="isolated" d="M96 1300q61 111 158 111q51 0 131 -43q102 -41 119 -41q21 0 41.5 15t31.5 29.5t31 43.5l51 -51q-19 -27 -31 -42t-32.5 -34t-43.5 -28t-50 -9q-59 0 -129 45v-2q-77 43 -127 43q-54 0 -99 -92zM182 0l49 76h115v907q0 37 -15 53.5t-81 36.5l274 51v-1048h127 q152 0 152 196v899q0 38 -14 54.5t-76 36.5l270 51v-1047q0 -128 -73.5 -197t-207.5 -69h-520z" />
<glyph unicode="&#xfee0;&#xfe82;" horiz-adv-x="1275" arabic-form="final" d="M96 1300q61 111 158 111q51 0 131 -43q102 -41 119 -41q21 0 41.5 15t31.5 29.5t31 43.5l51 -51q-19 -27 -31 -42t-32.5 -34t-43.5 -28t-50 -9q-59 0 -129 45v-2q-77 43 -127 43q-54 0 -99 -92zM184 0l49 76h115v901q0 37 -14 53.5t-76 38.5l270 51v-1044h125 q154 0 154 190v914q0 34 -14.5 47t-75.5 35l268 51v-922q0 -67 27 -138.5t82.5 -124t122.5 -52.5h79v-76h-47q-74 0 -140.5 43t-115.5 117q-64 -160 -303 -160h-506z" />
<glyph unicode="&#xfedf;&#xfe84;" horiz-adv-x="983" arabic-form="isolated" d="M174 1239h352v55h-90q-57 0 -92 53.5t-35 106.5q0 36 16 63t44 27t39 -20q-29 -18 -29 -45q0 -21 17.5 -33t43.5 -12q60 0 60 55q0 45 -36 75.5t-91 30.5q-74 0 -119 -46.5t-45 -114.5q0 -81 82 -140h-96zM182 0l49 76h115v907q0 37 -15 53.5t-81 36.5l274 51v-1048h127 q152 0 152 196v899q0 38 -14 54.5t-76 36.5l270 51v-1047q0 -128 -73.5 -197t-207.5 -69h-520z" />
<glyph unicode="&#xfee0;&#xfe84;" horiz-adv-x="1275" arabic-form="final" d="M174 1239h352v55h-90q-57 0 -92 53.5t-35 106.5q0 36 16 63t44 27t39 -20q-29 -18 -29 -45q0 -21 17.5 -33t43.5 -12q60 0 60 55q0 45 -36 75.5t-91 30.5q-74 0 -119 -46.5t-45 -114.5q0 -81 82 -140h-96zM184 0l49 76h115v901q0 37 -14 53.5t-76 38.5l270 51v-1044h125 q154 0 154 190v914q0 34 -14.5 47t-75.5 35l268 51v-922q0 -67 27 -138.5t82.5 -124t122.5 -52.5h79v-76h-47q-74 0 -140.5 43t-115.5 117q-64 -160 -303 -160h-506z" />
<glyph unicode="&#xfedf;&#xfe88;" horiz-adv-x="983" arabic-form="isolated" d="M178 -524h352v57h-90q-57 0 -92 52.5t-35 105.5q0 36 16 63t42 27q29 0 41 -21q-29 -16 -29 -45q0 -21 17 -33t42 -12q62 0 62 56q0 45 -37 75.5t-92 30.5q-73 0 -117.5 -47t-44.5 -115q0 -80 80 -137h-94zM182 0l49 76h115v907q0 37 -15 53.5t-81 36.5l274 51v-1048h127 q152 0 152 196v899q0 38 -14 54.5t-76 36.5l270 51v-1047q0 -128 -73.5 -197t-207.5 -69h-520z" />
<glyph unicode="&#xfee0;&#xfe88;" horiz-adv-x="1275" arabic-form="final" d="M178 -524h352v57h-90q-57 0 -92 52.5t-35 105.5q0 36 16 63t42 27q29 0 41 -21q-29 -16 -29 -45q0 -21 17 -33t42 -12q62 0 62 56q0 45 -37 75.5t-92 30.5q-73 0 -117.5 -47t-44.5 -115q0 -80 80 -137h-94zM184 0l49 76h115v901q0 37 -14 53.5t-76 38.5l270 51v-1044h125 q154 0 154 190v914q0 34 -14.5 47t-75.5 35l268 51v-922q0 -67 27 -138.5t82.5 -124t122.5 -52.5h79v-76h-47q-74 0 -140.5 43t-115.5 117q-64 -160 -303 -160h-506z" />
<glyph unicode="&#xfedf;&#xfe8e;" horiz-adv-x="983" arabic-form="isolated" d="M182 0l49 76h115v907q0 37 -15 53.5t-81 36.5l274 51v-1048h127q152 0 152 196v899q0 38 -14 54.5t-76 36.5l270 51v-1047q0 -128 -73.5 -197t-207.5 -69h-520z" />
<glyph unicode="&#xfee0;&#xfe8e;" horiz-adv-x="1275" arabic-form="final" d="M184 0l49 76h115v901q0 37 -14 53.5t-76 38.5l270 51v-1044h125q154 0 154 190v914q0 34 -14.5 47t-75.5 35l268 51v-922q0 -67 27 -138.5t82.5 -124t122.5 -52.5h79v-76h-47q-74 0 -140.5 43t-115.5 117q-64 -160 -303 -160h-506z" />
<glyph unicode="&#x671;" horiz-adv-x="452" arabic-form="isolated" d="M115 1423q61 0 61 60v114q0 9 -3.5 13t-16.5 8v4l61 12l-6 -112q36 67 78 104t73 37q73 0 113.5 -70t40.5 -190h-385zM184 1257l269 52v-1309h-181v1167q0 38 -13.5 53.5t-74.5 36.5zM193 1423h276q-3 98 -34.5 160t-72.5 62q-47 0 -102.5 -83t-66.5 -139z" />
<glyph unicode="&#x671;" horiz-adv-x="733" arabic-form="final" d="M115 1423q61 0 61 60v114q0 9 -3.5 13t-16.5 8v4l61 12l-6 -112q36 67 78 104t73 37q73 0 113.5 -70t40.5 -190h-385zM186 1223v67l328 15v-1057q0 -81 35 -124t100 -48h103v-76h-115q-303 0 -303 256v899q0 38 -31 53t-117 15zM193 1423h276q-3 98 -34.5 160t-72.5 62 q-47 0 -102.5 -83t-66.5 -139z" />
<glyph unicode="&#x67e;" horiz-adv-x="1552" arabic-form="final" d="M0 698v70l328 14v-534q0 -80 35.5 -123.5t101.5 -48.5h483q77 0 114.5 51.5t37.5 144.5v498q0 40 -14 55.5t-78 36.5l272 51v-522q0 -67 27.5 -138.5t82.5 -124t121 -52.5h60v-76h-25q-80 0 -159.5 52t-114.5 130v2q-22 -90 -92 -137t-181 -47h-548q-304 0 -304 256v377 q0 37 -30 51t-117 14zM514 -272q0 -36 23 -60t61 -24t62 24t24 60q0 37 -24 61.5t-62 24.5t-61 -24.5t-23 -61.5zM653 -471q0 -34 22.5 -56t57.5 -22q34 0 56 22t22 56t-22 57t-56 23q-35 0 -57.5 -23t-22.5 -57zM786 -272q0 -35 24.5 -59.5t59.5 -24.5q38 0 62 24t24 60 q0 37 -24 61.5t-62 24.5q-35 0 -59.5 -24.5t-24.5 -61.5z" />
<glyph unicode="&#x67e;" horiz-adv-x="614" arabic-form="initial" d="M-18 0v76h301q153 0 153 196v498q0 40 -14.5 55.5t-79.5 36.5l272 51v-647q0 -126 -82 -196t-217 -70h-333zM0 -252q0 -45 28.5 -74.5t75.5 -29.5q44 0 74.5 30t30.5 74q0 43 -30.5 74t-74.5 31q-46 0 -75 -30.5t-29 -74.5zM176 -498q0 -45 29 -74.5t76 -29.5q44 0 74 30 t30 74q0 42 -30.5 73.5t-73.5 31.5q-46 0 -75.5 -31t-29.5 -74zM334 -252q0 -45 29.5 -74.5t74.5 -29.5q44 0 74.5 30t30.5 74q0 43 -30.5 74t-74.5 31q-45 0 -74.5 -30.5t-29.5 -74.5z" />
<glyph unicode="&#x67e;" horiz-adv-x="677" arabic-form="medial" d="M-18 0v76h94q153 0 153 190v514q0 34 -14.5 47t-75.5 35l271 51v-522q0 -68 26.5 -139t81 -123.5t121.5 -52.5h57v-76h-24q-76 0 -141.5 42.5t-114.5 117.5q-64 -160 -303 -160h-131zM57 -252q0 -45 29 -74.5t76 -29.5q44 0 73 30t29 74q0 43 -29 74t-73 31 q-46 0 -75.5 -30.5t-29.5 -74.5zM233 -498q0 -45 29 -74.5t76 -29.5q44 0 74 30t30 74q0 42 -30.5 73.5t-73.5 31.5q-46 0 -75.5 -31t-29.5 -74zM391 -252q0 -44 29.5 -74t73.5 -30q45 0 74.5 29.5t29.5 74.5q0 44 -29.5 74.5t-74.5 30.5q-44 0 -73.5 -31t-29.5 -74z" />
<glyph unicode="&#x6a4;" horiz-adv-x="1847" arabic-form="final" d="M0 698v70l326 14v-534q0 -80 35.5 -123.5t101.5 -48.5h418q47 0 66.5 1t47 7t49.5 20q-139 90 -220 206.5t-81 254.5q0 146 126 246t311 100q185 -1 305.5 -104t120.5 -250q0 -65 -23 -124.5t-57 -103t-87.5 -87.5t-100 -73t-109.5 -63q47 -30 117 -30h520v-76h-492 q-165 0 -248 49q-31 -16 -46.5 -23t-60 -16.5t-97.5 -9.5h-471q-304 0 -304 256v377q0 37 -30 51t-117 14zM899 1186q0 40 27 67t69 27q41 0 69 -27t28 -67t-28 -68t-69 -28q-42 0 -69 28t-27 68zM920 565q0 -122 64 -227.5t167 -175.5q22 11 31 20q50 34 75 53.5t59 54.5 t49.5 69.5t27.5 87.5t12 120q0 125 -61.5 200t-174.5 75q-108 0 -172.5 -64t-74.5 -160q0 -8 -1 -27t-1 -26zM1057 1407q0 37 25.5 62.5t64.5 25.5q38 0 62 -25.5t24 -62.5t-24 -62.5t-62 -25.5q-39 0 -64.5 25.5t-25.5 62.5zM1204 1186q0 40 28 67t68 27q41 0 69 -27 t28 -67t-28 -68t-69 -28q-40 0 -68 28t-28 68z" />
<glyph unicode="&#x6a4;" horiz-adv-x="933" arabic-form="initial" d="M-18 0v76h622q77 0 114.5 51.5t37.5 144.5v109q-36 -87 -104.5 -131.5t-157.5 -44.5q-71 0 -142 38t-121.5 113.5t-50.5 167.5q0 131 44 227.5t125.5 154t188.5 85t242 27.5h154v-752q0 -128 -73 -197t-206 -69h-673zM358 537q0 -63 19.5 -122t62.5 -101.5t99 -45.5 q59 1 109 44.5t78 114.5t28 151v374h-23q-56 0 -108 -13.5t-101 -45t-85 -78.5t-57.5 -118.5t-21.5 -159.5zM385 1276q0 39 26 66.5t68 27.5t69 -27.5t27 -66.5q0 -41 -27 -69.5t-69 -28.5t-68 28.5t-26 69.5zM543 1497q0 37 24.5 61.5t63.5 24.5q38 0 63 -24.5t25 -61.5 t-25 -63.5t-63 -26.5q-39 0 -63.5 26t-24.5 64zM690 1276q0 39 27.5 66.5t68.5 27.5t68 -27.5t27 -66.5q0 -40 -27 -69t-68 -29t-68.5 29t-27.5 69z" />
<glyph unicode="&#x6a4;" horiz-adv-x="1275" arabic-form="medial" d="M-18 0v76h329q47 0 66 1t46.5 7t49.5 20q-301 198 -301 461q0 146 126.5 246t311.5 100q185 -1 305.5 -104t120.5 -250q0 -65 -23 -124.5t-57 -103t-87.5 -87.5t-100 -73t-109.5 -63q47 -30 115 -30h522v-76h-493q-167 0 -246 49q-91 -49 -207 -49h-368zM332 1200 q0 39 26 66.5t68 27.5t69 -27.5t27 -66.5q0 -41 -27 -69.5t-69 -28.5t-68 28.5t-26 69.5zM348 565q0 -122 65 -227.5t169 -175.5q45 28 64 40.5t53.5 38.5t49 44t35.5 48.5t29.5 62t15.5 75.5t7 96q0 124 -62.5 199.5t-175.5 75.5q-108 0 -172 -64t-74 -160q-4 -32 -4 -53z M489 1421q0 37 25 61.5t64 24.5q38 0 63 -24.5t25 -61.5t-25 -63.5t-63 -26.5q-39 0 -64 26t-25 64zM637 1200q0 39 27.5 66.5t68.5 27.5t67.5 -27.5t26.5 -66.5q0 -41 -26.5 -69.5t-67.5 -28.5t-68.5 29t-27.5 69z" />
<glyph unicode="&#x686;" horiz-adv-x="1476" arabic-form="final" d="M143 76h881q-1 168 -27.5 305.5t-71 225t-101 134.5t-119.5 47q-78 0 -140.5 -29t-104 -81.5t-68 -115.5t-40.5 -140h-76v397h64q1 -3 5.5 -12.5t7 -15.5t6.5 -15t7.5 -14.5l7 -11t7 -8.5t6.5 -3l39 27l8 4q34 22 49 30.5t52.5 26.5t76.5 25.5t84 7.5q117 0 218.5 -69 t168.5 -181t105.5 -251.5t40.5 -282.5h268v-76h-1169q37 -101 105.5 -164.5t144.5 -87.5t167 -24h43l-69 -70q-217 0 -364.5 117t-211.5 305zM815 -127q0 -31 20 -51.5t52 -20.5q33 0 53.5 20.5t20.5 51.5t-20.5 52.5t-53.5 21.5q-32 0 -52 -21.5t-20 -52.5zM934 -297 q0 -29 19 -48.5t48 -19.5q30 0 49 19t19 49q0 29 -19 49.5t-49 20.5q-29 0 -48 -21t-19 -49zM1049 -127q0 -31 20.5 -51.5t52.5 -20.5q31 0 51.5 20.5t20.5 51.5t-20.5 52.5t-51.5 21.5q-32 0 -52.5 -21.5t-20.5 -52.5z" />
<glyph unicode="&#x686;" horiz-adv-x="1200" arabic-form="initial" d="M-18 0v76h940q-2 168 -31 305t-76 223t-105.5 132t-121.5 46q-128 0 -220.5 -109t-144.5 -282l-84 154q24 13 42 29.5t40 50.5q31 50 61 86t74.5 71t104 53.5t133.5 18.5q95 0 179.5 -44.5t146.5 -120.5t108 -175.5t70 -211.5t26 -226h76l-47 -76h-1171zM362 -272 q0 -36 23 -60t61 -24t62 24t24 60q0 37 -24 61.5t-62 24.5t-61 -24.5t-23 -61.5zM502 -471q0 -34 22.5 -56t57.5 -22q34 0 55.5 22t21.5 56t-22 57t-55 23q-35 0 -57.5 -23t-22.5 -57zM635 -272q0 -35 24.5 -59.5t59.5 -24.5q38 0 62 24t24 60q0 37 -24 61.5t-62 24.5 q-35 0 -59.5 -24.5t-24.5 -61.5z" />
<glyph unicode="&#x686;" horiz-adv-x="1368" arabic-form="medial" d="M-16 0v76h938q-3 330 -101 518t-231 188q-128 0 -220.5 -109t-144.5 -282l-86 154q46 22 84 80q31 50 61 86t74.5 71t104 53.5t133.5 18.5q95 0 179.5 -44.5t146.5 -120.5t108 -175.5t69.5 -211.5t24.5 -226h262v-76h-1402zM362 -272q0 -36 23 -60t61 -24t62 24t24 60 q0 37 -24 61.5t-62 24.5t-61 -24.5t-23 -61.5zM502 -471q0 -34 22.5 -56t57.5 -22q34 0 55.5 22t21.5 56t-22 57t-55 23q-35 0 -57.5 -23t-22.5 -57zM635 -272q0 -35 24.5 -59.5t59.5 -24.5q38 0 62 24t24 60q0 37 -24 61.5t-62 24.5q-35 0 -59.5 -24.5t-24.5 -61.5z" />
<glyph unicode="&#x698;" horiz-adv-x="864" arabic-form="final" d="M-35 -360q117 31 197 75t139.5 115t89.5 174t35 246v520q0 40 -14 55.5t-76 36.5l270 51v-510q0 -197 -20 -327h297v-76h-314q-19 -83 -52 -146.5t-86 -115.5t-133.5 -79.5t-184.5 -27.5q-34 0 -148 9zM80 1171q0 39 26 67t68 28t69 -28t27 -67q0 -41 -27 -69.5 t-69 -28.5t-68 28.5t-26 69.5zM238 1393q0 37 24.5 61.5t63.5 24.5q38 0 63 -24.5t25 -61.5t-25 -63.5t-63 -26.5q-39 0 -63.5 26t-24.5 64zM385 1171q0 39 27.5 67t68.5 28q40 0 67 -28t27 -67q0 -41 -26.5 -69.5t-67.5 -28.5t-68.5 29t-27.5 69z" />
<glyph unicode="&#x6cc;" horiz-adv-x="477" arabic-form="initial" d="M-74 -291q0 44 29.5 73.5t75.5 29.5q44 0 74 -30t30 -73t-30 -73.5t-74 -30.5q-46 0 -75.5 30t-29.5 74zM-18 0v76h163q154 3 154 196v498q0 40 -14 55.5t-78 36.5l270 51v-647q0 -126 -81.5 -196t-215.5 -70h-198zM221 -291q0 43 30 73t75 30t74.5 -30t29.5 -73 t-29.5 -73.5t-74.5 -30.5t-75 30.5t-30 73.5z" />
<glyph unicode="&#x6cc;" horiz-adv-x="735" arabic-form="medial" d="M-72 -291q0 44 29.5 73.5t75.5 29.5q44 0 74 -30t30 -73t-30 -73.5t-74 -30.5q-46 0 -75.5 30t-29.5 74zM-18 0v76h94q153 0 153 190v514q0 34 -14.5 47t-75.5 35l271 51v-522q0 -68 26.5 -139t81 -123.5t121.5 -52.5h115v-76h-82q-76 0 -141.5 42.5t-114.5 117.5 q-64 -160 -303 -160h-131zM223 -291q0 43 30 73t75 30t74.5 -30t29.5 -73t-29.5 -73.5t-74.5 -30.5t-75 30.5t-30 73.5z" />
<glyph unicode="&#x622;" horiz-adv-x="733" arabic-form="final" d="M55 1485q61 110 158 110q51 0 131 -43q102 -41 119 -41q21 0 41.5 15t31.5 29.5t31 43.5l51 -51q-25 -36 -42 -55.5t-48.5 -38t-66.5 -18.5q-59 0 -129 45v-2q-77 43 -127 43q-54 0 -99 -92zM186 1223v67l328 15v-1057q0 -81 35 -124t100 -48h103v-76h-115 q-303 0 -303 256v899q0 38 -31 53t-117 15z" />
<glyph unicode="&#x623;" horiz-adv-x="733" arabic-form="final" d="M168 1448h352v55h-90q-57 0 -92 53.5t-35 106.5q0 36 15.5 63t43.5 27t39 -20q-28 -17 -28 -45q0 -21 17.5 -33.5t43.5 -12.5q60 0 60 56q0 45 -36 75.5t-91 30.5q-74 0 -119 -47t-45 -115q0 -80 82 -139h-97zM186 1223v67l328 15v-1057q0 -81 35 -124t100 -48h103v-76 h-115q-303 0 -303 256v899q0 38 -31 53t-117 15z" />
<glyph unicode="&#x624;" horiz-adv-x="1210" arabic-form="final" d="M225 319q0 264 167 425t431 161h156v-502q0 -204 -14 -327h264v-76h-283q-25 -94 -66 -164.5t-86.5 -110t-102.5 -63.5t-105.5 -31.5t-104.5 -7.5q-45 0 -168 10l49 9q52 12 93 25t93 40.5t91 63.5t76 95t59 134h-235q-71 0 -142 37.5t-121.5 113t-50.5 168.5zM403 332 q0 -63 20 -120t62.5 -96.5t98.5 -39.5h211q4 40 4 63v703h-23q-68 0 -134.5 -37.5t-119.5 -102.5t-86 -162.5t-33 -207.5zM463 1094h465v71h-119q-54 0 -96.5 36t-62 82t-19.5 87q0 46 23 79.5t65 33.5q45 0 59 -23q-39 -31 -39 -59q0 -25 23 -41.5t53 -16.5q40 0 59 15 t19 57q0 56 -49 94.5t-119 38.5q-99 0 -158 -60t-59 -147q0 -54 32 -100t78 -76h-126z" />
<glyph unicode="&#x625;" horiz-adv-x="733" arabic-form="final" d="M178 -524h352v57h-90q-57 0 -92 52.5t-35 105.5q0 36 16 63t42 27q29 0 41 -21q-29 -16 -29 -45q0 -21 17 -33t42 -12q62 0 62 56q0 45 -37 75.5t-92 30.5q-73 0 -117.5 -47t-44.5 -115q0 -80 80 -137h-94zM186 1223v67l328 15v-1057q0 -81 35 -124t100 -48h103v-76h-115 q-303 0 -303 256v899q0 38 -31 53t-117 15z" />
<glyph unicode="&#x626;" horiz-adv-x="1662" arabic-form="final" d="M-25 741l25 64h92q-80 71 -80 133q0 68 47.5 116t124.5 48q57 0 95 -31t38 -76q0 -35 -17 -48t-50 -13q-27 0 -46.5 14t-19.5 37q0 25 27 43q-9 16 -31 16q-27 0 -44 -25.5t-17 -57.5q0 -52 37 -104t90 -52h98v-64h-369zM0 459v67l328 17v-295q0 -163 137 -172h536 q-38 107 -112 269t-117 273.5t-43 180.5q0 54 29 85t88 31h72q50 0 84.5 -7t72.5 -29.5t70 -69t63 -119.5q5 -13 48.5 -112t68.5 -160q9 -20 29.5 -71t32.5 -78.5t35.5 -68.5t45.5 -63t55 -40.5t70 -20.5h88v-76h-49q-230 0 -307 182q-36 86 -93.5 215t-64.5 146 q-33 72 -34 75q-62 135 -99 179.5t-82 44.5t-45 -62q0 -26 23 -92q15 -41 31 -76q9 -21 251 -612h-759q-306 0 -306 256v135q0 39 -30.5 53.5t-116.5 14.5z" />
<glyph unicode="&#x626;" horiz-adv-x="419" arabic-form="initial" d="M-18 0v76h106q154 3 154 196v498q0 40 -14 55.5t-78 36.5l270 51v-647q0 -126 -81.5 -196t-215.5 -70h-141zM53 1130h367v66h-96q-53 0 -90 52t-37 104q0 33 17.5 60.5t43.5 27.5t33 -15q-12 -10 -20.5 -25t-8.5 -24q0 -23 19 -37t47 -14q67 0 67 59q0 46 -38 77.5 t-95 31.5q-79 0 -125.5 -48t-46.5 -118q0 -62 78 -131h-90z" />
<glyph unicode="&#x626;" horiz-adv-x="677" arabic-form="medial" d="M-18 0v76h94q153 0 153 190v514q0 34 -14.5 47t-75.5 35l271 51v-522q0 -68 26.5 -139t81 -123.5t121.5 -52.5h57v-76h-24q-76 0 -141.5 42.5t-114.5 117.5q-64 -160 -303 -160h-131zM90 1130h369v66h-97q-53 0 -89.5 52t-36.5 104q0 33 17 60.5t42 27.5t35 -15 q-31 -27 -31 -49q0 -23 19 -37t49 -14q67 0 67 59q0 46 -39 77.5t-96 31.5q-79 0 -124.5 -47.5t-45.5 -118.5q0 -66 78 -131h-92z" />
<glyph unicode="&#x627;" horiz-adv-x="733" arabic-form="final" d="M186 1223v67l328 15v-1057q0 -81 35 -124t100 -48h103v-76h-115q-303 0 -303 256v899q0 38 -31 53t-117 15z" />
<glyph unicode="&#x628;" horiz-adv-x="1552" arabic-form="final" d="M0 698v70l328 14v-534q0 -80 35.5 -123.5t101.5 -48.5h483q77 0 114.5 51.5t37.5 144.5v498q0 40 -14 55.5t-78 36.5l272 51v-522q0 -67 27.5 -138.5t82.5 -124t121 -52.5h60v-76h-25q-80 0 -159.5 52t-114.5 130v2q-22 -90 -92 -137t-181 -47h-548q-304 0 -304 256v377 q0 37 -30 51t-117 14zM618 -256q0 45 32.5 75.5t74.5 30.5q43 0 74.5 -30.5t31.5 -75.5q0 -44 -31.5 -75t-74.5 -31q-42 0 -74.5 31.5t-32.5 74.5z" />
<glyph unicode="&#x628;" horiz-adv-x="419" arabic-form="initial" d="M-18 0v76h106q154 3 154 196v498q0 40 -14 55.5t-78 36.5l270 51v-647q0 -126 -81.5 -196t-215.5 -70h-141zM70 -291q0 45 31.5 76t74.5 31t75 -31t32 -76q0 -44 -32 -74t-75 -30t-74.5 30t-31.5 74z" />
<glyph unicode="&#x628;" horiz-adv-x="677" arabic-form="medial" d="M-18 0v76h94q153 0 153 190v514q0 34 -14.5 47t-75.5 35l271 51v-522q0 -68 26.5 -139t81 -123.5t121.5 -52.5h57v-76h-24q-76 0 -141.5 42.5t-114.5 117.5q-64 -160 -303 -160h-131zM150 -270q0 44 31.5 75t74.5 31t74.5 -31t31.5 -75q0 -45 -31.5 -76t-74.5 -31 t-74.5 31t-31.5 76z" />
<glyph unicode="&#x629;" horiz-adv-x="1271" arabic-form="final" d="M133 475q0 89 30 172.5t83 149.5t133 105.5t174 39.5q54 0 106 -16t77 -29.5t59 -36.5l34 -22q7 0 23 51q1 3 2 8t3.5 11t8.5 12h103q-15 -66 -15 -150v-530q0 -155 107 -164h229v-76h-174h-55q-47 1 -80.5 5t-68.5 17.5t-56.5 36t-35 61.5t-13.5 93q-13 -36 -36 -71 t-58 -68t-88 -53.5t-115 -20.5q-105 0 -192 65.5t-136 174.5t-49 235zM319 463q0 -86 14.5 -156t37.5 -113t52.5 -72t57.5 -40.5t56 -11.5q75 0 135.5 51t85.5 133q22 75 22 248q0 60 -3.5 106t-17.5 98t-37.5 85.5t-66.5 56t-102 22.5q-77 0 -131 -59t-78.5 -148.5 t-24.5 -199.5zM334 1194q0 44 29 74t75 30q44 0 74.5 -30.5t30.5 -73.5t-30.5 -73.5t-74.5 -30.5q-46 0 -75 30t-29 74zM629 1194q0 43 29.5 73.5t74.5 30.5t75 -30.5t30 -73.5t-30 -73.5t-75 -30.5t-74.5 30.5t-29.5 73.5z" />
<glyph unicode="&#x62a;" horiz-adv-x="1552" arabic-form="final" d="M0 698v70l328 14v-534q0 -80 35.5 -123.5t101.5 -48.5h483q77 0 114.5 51.5t37.5 144.5v498q0 40 -14 55.5t-78 36.5l272 51v-522q0 -67 27.5 -138.5t82.5 -124t121 -52.5h60v-76h-25q-80 0 -159.5 52t-114.5 130v2q-22 -90 -92 -137t-181 -47h-548q-304 0 -304 256v377 q0 37 -30 51t-117 14zM444 1092q0 43 30 73.5t75 30.5t74.5 -30.5t29.5 -73.5q0 -44 -29.5 -74.5t-74.5 -30.5t-75 31t-30 74zM741 1092q0 43 30 73.5t75 30.5q44 0 73 -30.5t29 -73.5t-29 -74t-73 -31q-45 0 -75 31t-30 74z" />
<glyph unicode="&#x62a;" horiz-adv-x="479" arabic-form="initial" d="M-18 0v76h163q154 3 154 196v498q0 40 -14 55.5t-78 36.5l270 51v-647q0 -126 -81.5 -196t-215.5 -70h-198zM0 1231q0 45 28.5 74.5t75.5 29.5q44 0 74.5 -30t30.5 -74q0 -43 -30.5 -74t-74.5 -31q-46 0 -75 30.5t-29 74.5zM295 1231q0 44 30 74t74 30q45 0 75 -29.5 t30 -74.5q0 -43 -30 -74t-75 -31q-44 0 -74 31t-30 74z" />
<glyph unicode="&#x62a;" horiz-adv-x="792" arabic-form="medial" d="M-18 0v76h151q154 0 154 190v514q0 34 -14.5 47t-77.5 35l272 51v-522q0 -68 26.5 -139t80.5 -123.5t120 -52.5h117v-76h-82q-148 0 -258 160q-64 -160 -303 -160h-186zM78 1231q0 45 28.5 74.5t75.5 29.5q44 0 74.5 -30t30.5 -74q0 -43 -30.5 -74t-74.5 -31 q-46 0 -75 30.5t-29 74.5zM373 1231q0 45 29.5 74.5t74.5 29.5t75 -29.5t30 -74.5q0 -43 -30 -74t-75 -31t-74.5 30.5t-29.5 74.5z" />
<glyph unicode="&#x62b;" horiz-adv-x="1552" arabic-form="final" d="M0 698v70l328 14v-534q0 -80 35.5 -123.5t101.5 -48.5h483q77 0 114.5 51.5t37.5 144.5v498q0 40 -14 55.5t-78 36.5l272 51v-522q0 -67 27.5 -138.5t82.5 -124t121 -52.5h60v-76h-25q-80 0 -159.5 52t-114.5 130v2q-22 -90 -92 -137t-181 -47h-548q-304 0 -304 256v377 q0 37 -30 51t-117 14zM446 1087q0 40 27.5 67.5t69.5 27.5q41 0 68.5 -27.5t27.5 -67.5t-27.5 -68t-68.5 -28q-42 0 -69.5 28t-27.5 68zM604 1309q0 37 25.5 62.5t64.5 25.5q38 0 62 -25.5t24 -62.5t-24 -62.5t-62 -25.5q-39 0 -64.5 25.5t-25.5 62.5zM752 1087 q0 40 28 67.5t68 27.5q41 0 68.5 -27.5t27.5 -67.5t-27.5 -68t-68.5 -28q-40 0 -68 28t-28 68z" />
<glyph unicode="&#x62b;" horiz-adv-x="503" arabic-form="initial" d="M-18 0v76h131q153 0 153 196v498q0 40 -14 55.5t-78 36.5l270 51v-647q0 -126 -81.5 -196t-215.5 -70h-165zM-18 1221q0 40 26 67t68 27t69 -27t27 -67q0 -41 -27 -69t-69 -28t-68 28t-26 69zM139 1442q0 37 24.5 61.5t63.5 24.5q38 0 63 -24.5t25 -61.5t-25 -63.5 t-63 -26.5q-39 0 -63.5 26t-24.5 64zM287 1221q0 40 27.5 67t68.5 27t67.5 -27t26.5 -67t-26.5 -68.5t-67.5 -28.5t-68.5 28.5t-27.5 68.5z" />
<glyph unicode="&#x62b;" horiz-adv-x="792" arabic-form="medial" d="M-18 0v76h151q154 0 154 190v514q0 34 -14.5 47t-77.5 35l272 51v-522q0 -68 26.5 -139t80.5 -123.5t120 -52.5h117v-76h-82q-148 0 -258 160q-64 -160 -303 -160h-186zM86 1229q0 41 26 68.5t68 27.5t69 -28t27 -68t-27 -68t-69 -28t-68 27.5t-26 68.5zM242 1452 q0 37 25.5 61.5t64.5 24.5q38 0 62 -24.5t24 -61.5q0 -39 -24 -64.5t-62 -25.5q-39 0 -64.5 25.5t-25.5 64.5zM391 1229q0 40 27.5 68t68.5 28t68 -28t27 -68t-27 -68t-68 -28t-68.5 28t-27.5 68z" />
<glyph unicode="&#x62c;" horiz-adv-x="1476" arabic-form="final" d="M143 76h881q-1 168 -27.5 305.5t-71 225t-101 134.5t-119.5 47q-78 0 -140.5 -29t-104 -81.5t-68 -115.5t-40.5 -140h-76v397h64q1 -3 5.5 -12.5t7 -15.5t6.5 -15t7.5 -14.5l7 -11t7 -8.5t6.5 -3l39 27l8 4q34 22 49 30.5t52.5 26.5t76.5 25.5t84 7.5q117 0 218.5 -69 t168.5 -181t105.5 -251.5t40.5 -282.5h268v-76h-1169q37 -101 105.5 -164.5t144.5 -87.5t167 -24h43l-69 -70q-217 0 -364.5 117t-211.5 305zM885 -178q0 38 26 64t62 26q37 0 64.5 -26t27.5 -64t-27.5 -64t-64.5 -26q-36 0 -62 26t-26 64z" />
<glyph unicode="&#x62c;" horiz-adv-x="1200" arabic-form="initial" d="M-18 0v76h940q-2 168 -31 305t-76 223t-105.5 132t-121.5 46q-128 0 -220.5 -109t-144.5 -282l-84 154q24 13 42 29.5t40 50.5q31 50 61 86t74.5 71t104 53.5t133.5 18.5q95 0 179.5 -44.5t146.5 -120.5t108 -175.5t70 -211.5t26 -226h76l-47 -76h-1171zM469 -289 q0 45 31.5 76t74.5 31t75 -31t32 -76q0 -44 -32 -74t-75 -30t-74.5 30t-31.5 74z" />
<glyph unicode="&#x62c;" horiz-adv-x="1368" arabic-form="medial" d="M-16 0v76h938q-3 330 -101 518t-231 188q-128 0 -220.5 -109t-144.5 -282l-86 154q46 22 84 80q31 50 61 86t74.5 71t104 53.5t133.5 18.5q95 0 179.5 -44.5t146.5 -120.5t108 -175.5t69.5 -211.5t24.5 -226h262v-76h-1402zM494 -291q0 44 31.5 74.5t74.5 30.5t75 -30.5 t32 -74.5q0 -45 -31.5 -75.5t-75.5 -30.5q-43 0 -74.5 30.5t-31.5 75.5z" />
<glyph unicode="&#x62d;" horiz-adv-x="1466" arabic-form="final" d="M133 76h881q-3 333 -95.5 522.5t-224.5 189.5q-79 0 -141.5 -29t-104 -81.5t-68 -115.5t-40.5 -140h-76v397h66q30 -80 45 -80q1 0 5.5 3l15 10t20.5 14l6 4q43 27 67.5 41t81.5 31.5t115 17.5q94 0 178.5 -45t147 -122t109.5 -177t71.5 -213t26.5 -227h266v-76h-1170 q28 -76 74 -131.5t102.5 -86t116.5 -44.5t127 -14h41l-67 -70q-217 0 -364.5 117t-211.5 305z" />
<glyph unicode="&#x62d;" horiz-adv-x="1200" arabic-form="initial" d="M-18 0v76h940q-2 168 -31 305t-76 223t-105.5 132t-121.5 46q-128 0 -220.5 -109t-144.5 -282l-84 154q24 13 42 29.5t40 50.5q31 50 61 86t74.5 71t104 53.5t133.5 18.5q95 0 179.5 -44.5t146.5 -120.5t108 -175.5t70 -211.5t26 -226h76l-47 -76h-1171z" />
<glyph unicode="&#x62d;" horiz-adv-x="1366" arabic-form="medial" d="M-18 0v76h940q-2 168 -31 305t-76 223t-105.5 132t-121.5 46q-128 0 -220.5 -109t-144.5 -282l-84 154q24 13 42 29.5t40 50.5q31 50 61 86t74.5 71t104 53.5t133.5 18.5q95 0 179.5 -44.5t146.5 -120.5t108 -175.5t70 -211.5t26 -226h260v-76h-1402z" />
<glyph unicode="&#x62e;" horiz-adv-x="1476" arabic-form="final" d="M143 76h881q-1 168 -27.5 305.5t-71 225t-101 134.5t-119.5 47q-78 0 -140.5 -29t-104 -81.5t-68 -115.5t-40.5 -140h-76v397h64q1 -3 5.5 -12.5t7 -15.5t6.5 -15t7.5 -14.5l7 -11t7 -8.5t6.5 -3l39 27l8 4q34 22 49 30.5t52.5 26.5t76.5 25.5t84 7.5q117 0 218.5 -69 t168.5 -181t105.5 -251.5t40.5 -282.5h268v-76h-1169q37 -101 105.5 -164.5t144.5 -87.5t167 -24h43l-69 -70q-217 0 -364.5 117t-211.5 305zM641 1206q0 45 31 76t73 31q43 0 75 -31t32 -76q0 -44 -32 -75t-75 -31q-42 0 -73 31t-31 75z" />
<glyph unicode="&#x62e;" horiz-adv-x="1200" arabic-form="initial" d="M-18 0v76h940q-2 168 -31 305t-76 223t-105.5 132t-121.5 46q-128 0 -220.5 -109t-144.5 -282l-84 154q24 13 42 29.5t40 50.5q31 50 61 86t74.5 71t104 53.5t133.5 18.5q95 0 179.5 -44.5t146.5 -120.5t108 -175.5t70 -211.5t26 -226h76l-47 -76h-1171zM471 1141 q0 44 32 75t75 31t74.5 -31t31.5 -75q0 -45 -31.5 -76t-74.5 -31t-75 31t-32 76z" />
<glyph unicode="&#x62e;" horiz-adv-x="1368" arabic-form="medial" d="M-16 0v76h938q-3 330 -101 518t-231 188q-128 0 -220.5 -109t-144.5 -282l-86 154q46 22 84 80q31 50 61 86t74.5 71t104 53.5t133.5 18.5q95 0 179.5 -44.5t146.5 -120.5t108 -175.5t69.5 -211.5t24.5 -226h262v-76h-1402zM494 1157q0 45 31.5 76t74.5 31t75 -31t32 -76 q0 -44 -32 -75t-75 -31t-74.5 31t-31.5 75z" />
<glyph unicode="&#x62f;" horiz-adv-x="1146" arabic-form="final" d="M176 76h596v252q0 276 -28 397t-103 121q-51 0 -123.5 -79t-177.5 -230l-37 159q42 2 78 23.5t98 91.5q88 100 187 100h4q71 -1 125.5 -56t87 -139t53.5 -199t28.5 -221t8.5 -220h192v-76h-925z" />
<glyph unicode="&#x630;" horiz-adv-x="1212" arabic-form="final" d="M242 76h598v252q0 275 -29 396.5t-104 121.5q-51 0 -124 -80t-175 -229l-39 159q42 2 78 23.5t98 91.5q92 100 186 100h6q70 -1 124.5 -56t86.5 -139t53.5 -199t29.5 -220.5t9 -220.5h191v-76h-924zM604 1243q0 44 32 75.5t75 31.5t74.5 -31.5t31.5 -75.5 q0 -45 -31.5 -75.5t-74.5 -30.5q-44 0 -75.5 30.5t-31.5 75.5z" />
<glyph unicode="&#x631;" horiz-adv-x="897" arabic-form="final" d="M0 -360q116 31 196 75t139 115t89.5 174t36.5 246v520q0 40 -14 55.5t-78 36.5l272 51v-510q0 -194 -23 -327h300v-76h-314q-19 -83 -52 -146.5t-86.5 -115.5t-134 -79.5t-184.5 -27.5q-33 0 -147 9z" />
<glyph unicode="&#x632;" horiz-adv-x="864" arabic-form="final" d="M-35 -360q117 31 197 75t139.5 115t89.5 174t35 246v520q0 40 -14 55.5t-76 36.5l270 51v-510q0 -197 -20 -327h297v-76h-314q-19 -83 -52 -146.5t-86 -115.5t-133.5 -79.5t-184.5 -27.5q-34 0 -148 9zM373 1182q0 45 31.5 75.5t74.5 30.5q44 0 75.5 -30.5t31.5 -75.5 q0 -44 -32 -75.5t-75 -31.5t-74.5 31.5t-31.5 75.5z" />
<glyph unicode="&#x633;" horiz-adv-x="2734" arabic-form="final" d="M0 674v69l328 15v-436q0 -137 24 -244t63 -174t94 -110t112.5 -60t123.5 -17t123.5 17t113 60t94.5 110t63 174t24 244v299q0 40 -14 56t-76 38l270 49v-381q2 -50 17 -103.5t42 -101t69 -78t92 -30.5q163 0 163 196v441q0 34 -13.5 46t-78.5 35l273 52v-447 q0 -69 25 -141.5t77.5 -127t118.5 -54.5q162 0 162 196v506q0 39 -13 54.5t-75 35.5l266 51v-596q20 -97 81 -169t144 -72h57v-76h-24q-80 0 -157 49t-113 127q-28 -84 -103 -130t-182 -46q-96 0 -170.5 48.5t-108.5 125.5q-20 -73 -103 -123.5t-179 -50.5q-99 0 -165.5 35 t-121.5 108q-23 -101 -70.5 -189t-118.5 -157t-171 -109t-218 -40q-115 0 -214 38.5t-168.5 104t-119 152t-73 183t-23.5 196.5v286q0 37 -30.5 51.5t-116.5 14.5z" />
<glyph unicode="&#x633;" horiz-adv-x="1490" arabic-form="initial" d="M-18 0v76h47q159 0 159 196v359q0 36 -13 49t-79 35l271 49v-414q7 -66 33 -127.5t75 -107t109 -45.5q164 0 164 196v441q0 33 -13.5 45.5t-79.5 35.5l273 52v-449q0 -68 25 -140t77.5 -126.5t118.5 -54.5q162 0 162 196v504q0 40 -13 56t-75 36l268 51v-647 q0 -126 -82.5 -196t-216.5 -70q-96 0 -170.5 48.5t-108.5 125.5q-20 -73 -103 -123.5t-179 -50.5q-100 0 -165 34t-120 107q-33 -69 -105 -105t-171 -36h-88z" />
<glyph unicode="&#x633;" horiz-adv-x="1759" arabic-form="medial" d="M-18 0v76h47q159 0 159 196v359q0 36 -13 49t-79 35l271 49v-414q5 -49 22 -97.5t43.5 -90.5t66.5 -68t85 -26q164 0 164 196v441q0 33 -13.5 45.5t-79.5 35.5l273 52v-447q0 -69 25 -141.5t77.5 -127t118.5 -54.5q162 0 162 196v506q0 39 -13 54.5t-75 35.5l266 51v-596 q20 -97 81 -169t144 -72h58v-76h-25q-80 0 -157 49t-113 127q-28 -84 -103 -130t-182 -46q-96 0 -170.5 48.5t-108.5 125.5q-20 -73 -103 -123.5t-179 -50.5q-100 0 -165 34t-120 107q-35 -68 -106.5 -103.5t-169.5 -35.5h-88z" />
<glyph unicode="&#x634;" horiz-adv-x="2734" arabic-form="final" d="M0 674v69l328 15v-436q0 -137 24 -244t63 -174t94 -110t112.5 -60t123.5 -17t123.5 17t113 60t94.5 110t63 174t24 244v299q0 40 -14 56t-76 38l270 49v-381q2 -50 17 -103.5t42 -101t69 -78t92 -30.5q163 0 163 196v441q0 34 -13.5 46t-78.5 35l273 52v-447 q0 -69 25 -141.5t77.5 -127t118.5 -54.5q162 0 162 196v506q0 39 -13 54.5t-75 35.5l266 51v-596q20 -97 81 -169t144 -72h57v-76h-24q-80 0 -157 49t-113 127q-28 -84 -103 -130t-182 -46q-96 0 -170.5 48.5t-108.5 125.5q-20 -73 -103 -123.5t-179 -50.5q-99 0 -165.5 35 t-121.5 108q-23 -101 -70.5 -189t-118.5 -157t-171 -109t-218 -40q-115 0 -214 38.5t-168.5 104t-119 152t-73 183t-23.5 196.5v286q0 37 -30.5 51.5t-116.5 14.5zM1585 1190q0 40 26 67t68 27t69.5 -27t27.5 -67t-27.5 -68t-69.5 -28t-68 27.5t-26 68.5zM1741 1411 q0 37 25.5 62.5t64.5 25.5q38 0 62 -25.5t24 -62.5t-24 -62.5t-62 -25.5q-39 0 -64.5 25.5t-25.5 62.5zM1888 1190q0 40 29 67t70 27q40 0 67 -27t27 -67t-27 -68t-67 -28q-41 0 -70 28t-29 68z" />
<glyph unicode="&#x634;" horiz-adv-x="1490" arabic-form="initial" d="M-18 0v76h47q159 0 159 196v359q0 36 -13 49t-79 35l271 49v-414q7 -66 33 -127.5t75 -107t109 -45.5q164 0 164 196v441q0 33 -13.5 45.5t-79.5 35.5l273 52v-449q0 -68 25 -140t77.5 -126.5t118.5 -54.5q162 0 162 196v504q0 40 -13 56t-75 36l268 51v-647 q0 -126 -82.5 -196t-216.5 -70q-96 0 -170.5 48.5t-108.5 125.5q-20 -73 -103 -123.5t-179 -50.5q-100 0 -165 34t-120 107q-33 -69 -105 -105t-171 -36h-88zM598 1188q0 40 26 67t68 27t69 -27t27 -67t-27 -68t-69 -28t-68 27.5t-26 68.5zM756 1409q0 37 24.5 62.5 t63.5 25.5q38 0 63 -25.5t25 -62.5t-25 -62.5t-63 -25.5q-39 0 -63.5 25.5t-24.5 62.5zM903 1188q0 40 27.5 67t68.5 27t68 -27t27 -67t-27 -68t-68 -28t-68.5 28t-27.5 68z" />
<glyph unicode="&#x634;" horiz-adv-x="1759" arabic-form="medial" d="M-18 0v76h47q159 0 159 196v359q0 36 -13 49t-79 35l271 49v-414q5 -49 22 -97.5t43.5 -90.5t66.5 -68t85 -26q164 0 164 196v441q0 33 -13.5 45.5t-79.5 35.5l273 52v-447q0 -69 25 -141.5t77.5 -127t118.5 -54.5q162 0 162 196v506q0 39 -13 54.5t-75 35.5l266 51v-596 q20 -97 81 -169t144 -72h58v-76h-25q-80 0 -157 49t-113 127q-28 -84 -103 -130t-182 -46q-96 0 -170.5 48.5t-108.5 125.5q-20 -73 -103 -123.5t-179 -50.5q-100 0 -165 34t-120 107q-35 -68 -106.5 -103.5t-169.5 -35.5h-88zM604 1190q0 40 26 67t68 27t69.5 -27t27.5 -67 t-27.5 -68t-69.5 -28t-68 27.5t-26 68.5zM760 1411q0 37 25.5 62.5t64.5 25.5q38 0 62 -25.5t24 -62.5t-24 -62.5t-62 -25.5q-39 0 -64.5 25.5t-25.5 62.5zM907 1190q0 40 29 67t70 27q40 0 67 -27t27 -67t-27 -68t-67 -28q-41 0 -70 28t-29 68z" />
<glyph unicode="&#x635;" horiz-adv-x="2609" arabic-form="final" d="M0 674v69l328 15v-436q0 -137 24 -244t63 -174t94 -110t112.5 -60t123.5 -17t123.5 17t113 60t94.5 110t63 174t24 244v299q0 40 -14 56t-76 38l270 49v-379q118 207 263 338t243 131q231 0 368.5 -209t152.5 -569h266v-76h-1360q-72 -159 -208 -255.5t-323 -96.5 q-115 0 -214 38.5t-168.5 104t-119 152t-73 183t-23.5 196.5v286q0 37 -30.5 51.5t-116.5 14.5zM1321 76h858q-3 332 -96 522t-225 190q-62 0 -135 -55t-137 -139.5t-121 -181.5t-94.5 -186.5t-49.5 -149.5z" />
<glyph unicode="&#x635;" horiz-adv-x="1400" arabic-form="initial" d="M-18 0v76h47q159 0 159 196v359q0 36 -13 49t-79 35l271 49v-389q118 210 265 344.5t247 134.5q162 0 280 -105.5t179.5 -297.5t62.5 -451h-1419zM350 76h858q-3 332 -96 522t-225 190q-62 0 -135 -55t-137 -139.5t-121 -181.5t-94.5 -186.5t-49.5 -149.5z" />
<glyph unicode="&#x635;" horiz-adv-x="1632" arabic-form="medial" d="M-18 0v76h47q159 0 159 196v359q0 36 -13 49t-79 35l271 49v-373q117 204 260 333.5t241 129.5q231 0 368.5 -209t152.5 -569h266v-76h-1376h-11h-286zM340 76h858q-3 332 -96 522t-225 190q-62 0 -135 -55t-137 -139.5t-121 -181.5t-94.5 -186.5t-49.5 -149.5z" />
<glyph unicode="&#x636;" horiz-adv-x="2609" arabic-form="final" d="M0 674v69l328 15v-436q0 -137 24 -244t63 -174t94 -110t112.5 -60t123.5 -17t123.5 17t113 60t94.5 110t63 174t24 244v299q0 40 -14 56t-76 38l270 49v-379q118 207 263 338t243 131q231 0 368.5 -209t152.5 -569h266v-76h-1360q-72 -159 -208 -255.5t-323 -96.5 q-115 0 -214 38.5t-168.5 104t-119 152t-73 183t-23.5 196.5v286q0 37 -30.5 51.5t-116.5 14.5zM1321 76h858q-3 332 -96 522t-225 190q-62 0 -135 -55t-137 -139.5t-121 -181.5t-94.5 -186.5t-49.5 -149.5zM1731 1200q0 45 31.5 76t74.5 31q42 0 73.5 -31t31.5 -76 q0 -43 -31.5 -73.5t-73.5 -30.5q-43 0 -74.5 30t-31.5 74z" />
<glyph unicode="&#x636;" horiz-adv-x="1400" arabic-form="initial" d="M-18 0v76h47q159 0 159 196v359q0 36 -13 49t-79 35l271 49v-389q118 210 265 344.5t247 134.5q162 0 280 -105.5t179.5 -297.5t62.5 -451h-1419zM350 76h858q-3 332 -96 522t-225 190q-62 0 -135 -55t-137 -139.5t-121 -181.5t-94.5 -186.5t-49.5 -149.5zM631 1194 q0 44 31.5 75t74.5 31q42 0 73.5 -31t31.5 -75q0 -45 -31.5 -76t-73.5 -31q-43 0 -74.5 31t-31.5 76z" />
<glyph unicode="&#x636;" horiz-adv-x="1632" arabic-form="medial" d="M-18 0v76h47q159 0 159 196v359q0 36 -13 49t-79 35l271 49v-373q117 204 260 333.5t241 129.5q231 0 368.5 -209t152.5 -569h266v-76h-1376h-11h-286zM340 76h858q-3 332 -96 522t-225 190q-62 0 -135 -55t-137 -139.5t-121 -181.5t-94.5 -186.5t-49.5 -149.5zM750 1200 q0 45 31.5 76t74.5 31q42 0 73.5 -31t31.5 -76q0 -43 -31.5 -73.5t-73.5 -30.5q-43 0 -74.5 30t-31.5 74z" />
<glyph unicode="&#x637;" horiz-adv-x="1712" arabic-form="final" d="M162 76q100 0 149 51t49 145v783q0 27 -7.5 40t-35.5 20t-86 7v68l326 14l-35 -776q110 204 239.5 315t225.5 111q153 0 267 -95.5t178.5 -270.5t74.5 -412h224v-76h-1506zM459 76h856q-3 333 -95.5 522.5t-224.5 189.5q-77 0 -169.5 -83t-166.5 -199.5t-129.5 -235 t-70.5 -194.5z" />
<glyph unicode="&#x637;" horiz-adv-x="1429" arabic-form="initial" d="M-18 0v76h100q100 0 149.5 51.5t49.5 144.5v783q0 27 -7.5 40t-35.5 20t-86 7v68l325 14l-35 -776q110 204 239.5 315t225.5 111q161 0 279.5 -105.5t180.5 -298t63 -450.5h-1448zM379 76h856q-3 333 -95.5 522.5t-224.5 189.5q-77 0 -169.5 -83t-166.5 -199.5 t-129.5 -235t-70.5 -194.5z" />
<glyph unicode="&#x637;" horiz-adv-x="1646" arabic-form="medial" d="M-18 0v76h100q100 0 149.5 51.5t49.5 144.5v783q0 27 -7.5 40t-35.5 20t-86 7v68l325 14l-35 -776q110 204 239.5 315t225.5 111q153 0 267 -95.5t178.5 -270.5t74.5 -412h238v-76h-1683zM379 76h856q-3 333 -95.5 522.5t-224.5 189.5q-77 0 -169.5 -83t-166.5 -199.5 t-129.5 -235t-70.5 -194.5z" />
<glyph unicode="&#x638;" horiz-adv-x="1712" arabic-form="final" d="M162 76q100 0 149 51t49 145v783q0 27 -7.5 40t-35.5 20t-86 7v68l326 14l-35 -776q110 204 239.5 315t225.5 111q153 0 267 -95.5t178.5 -270.5t74.5 -412h224v-76h-1506zM459 76h856q-3 333 -95.5 522.5t-224.5 189.5q-77 0 -169.5 -83t-166.5 -199.5t-129.5 -235 t-70.5 -194.5zM897 1161q0 45 32 76t75 31t74.5 -31t31.5 -76t-31.5 -75.5t-74.5 -30.5q-44 0 -75.5 30.5t-31.5 75.5z" />
<glyph unicode="&#x638;" horiz-adv-x="1429" arabic-form="initial" d="M-18 0v76h100q100 0 149.5 51.5t49.5 144.5v783q0 27 -7.5 40t-35.5 20t-86 7v68l325 14l-35 -776q110 204 239.5 315t225.5 111q161 0 279.5 -105.5t180.5 -298t63 -450.5h-1448zM379 76h856q-3 333 -95.5 522.5t-224.5 189.5q-77 0 -169.5 -83t-166.5 -199.5 t-129.5 -235t-70.5 -194.5zM795 1159q0 45 31 76t73 31q43 0 75 -31t32 -76t-31.5 -75.5t-75.5 -30.5q-42 0 -73 30.5t-31 75.5z" />
<glyph unicode="&#x638;" horiz-adv-x="1646" arabic-form="medial" d="M-18 0v76h100q100 0 149.5 51.5t49.5 144.5v783q0 27 -7.5 40t-35.5 20t-86 7v68l325 14l-35 -776q110 204 239.5 315t225.5 111q153 0 267 -95.5t178.5 -270.5t74.5 -412h238v-76h-1683zM379 76h856q-3 333 -95.5 522.5t-224.5 189.5q-77 0 -169.5 -83t-166.5 -199.5 t-129.5 -235t-70.5 -194.5zM823 1159q0 45 32 76t75 31t74.5 -31t31.5 -76t-31.5 -75.5t-74.5 -30.5q-44 0 -75.5 30.5t-31.5 75.5z" />
<glyph unicode="&#x639;" horiz-adv-x="1376" arabic-form="final" d="M133 76h260q32 0 99 11t100 32q-105 130 -227 401q-26 54 -82.5 132t-75.5 87q111 79 242 118.5t245 39.5q193 0 313.5 -97t120.5 -265q0 -58 -23.5 -112.5t-58.5 -95.5t-89.5 -83.5t-101.5 -70.5t-110 -62q41 -35 121 -35h529v-76h-500q-155 0 -229 51q-2 0 -2 2 q-54 -28 -100 -40.5t-122 -12.5h-147q29 -76 78 -132.5t109 -88.5t122.5 -47t128.5 -15h43l-69 -69q-110 0 -205 33.5t-166 92.5t-122 135t-81 167zM369 717q43 -47 112 -166l58 -119q31 -66 47.5 -100t45.5 -82.5t56 -77.5q53 34 81 54.5t64 54.5t53 67.5t29.5 83 t12.5 111.5q0 126 -60 197t-172 71q-153 0 -327 -94z" />
<glyph unicode="&#x639;" horiz-adv-x="888" arabic-form="initial" d="M-18 0v76h360q-94 63 -147.5 164.5t-53.5 226.5q0 100 39 188t104 149t152.5 96.5t181.5 35.5q119 0 207 -65.5t88 -165.5q0 -50 -32.5 -85.5t-85.5 -35.5q-54 0 -85.5 29t-31.5 73q0 43 25 66.5t71 23.5q13 0 41 -4q-52 98 -190 98q-137 0 -208 -96.5t-71 -284.5 t72.5 -300.5t218.5 -112.5q126 0 209 74l51 -35q-118 -115 -297 -115h-618z" />
<glyph unicode="&#x639;" horiz-adv-x="1300" arabic-form="medial" d="M-18 0v76h335q30 0 97.5 11t101.5 32q-46 53 -87 121t-120 227q-34 64 -139 201q-32 46 -43 57l27 18q262 154 464 154q193 0 314 -97t121 -265q0 -58 -24 -112.5t-58.5 -95.5t-90 -83.5t-101.5 -70.5t-109 -62q41 -35 121 -35h528v-76h-500q-70 0 -121.5 9.5t-69 18 t-40.5 23.5q-2 0 -2 2q-51 -28 -98 -40.5t-121 -12.5h-385zM287 715q91 -109 164 -269q103 -206 157 -266q63 39 100.5 68.5t73.5 72.5t52 97t16 125q0 121 -59 194.5t-170 73.5q-162 0 -334 -96z" />
<glyph unicode="&#x63a;" horiz-adv-x="1386" arabic-form="final" d="M143 76h263q30 0 96.5 11t99.5 32q-105 130 -227 401q-26 54 -82.5 132t-75.5 87q110 79 242.5 118.5t247.5 39.5q193 0 313.5 -97t120.5 -265q0 -58 -23.5 -112.5t-58.5 -95.5t-89.5 -83.5t-101.5 -70.5t-110 -62q41 -35 119 -35h528v-76h-500q-70 0 -121 10t-68 18 t-40 23q-2 0 -2 2q-52 -28 -98 -40.5t-123 -12.5h-146q29 -76 77.5 -132.5t108.5 -88.5t122.5 -47t129.5 -15h43l-69 -69q-216 0 -365 119.5t-211 308.5zM381 717q55 -63 111 -166l57 -119q90 -193 149 -260q53 34 82 54.5t64.5 54.5t53 67.5t30 83t12.5 111.5 q0 126 -59.5 197t-171.5 71q-154 0 -328 -94zM602 1200q0 44 32 74.5t75 30.5t74.5 -30.5t31.5 -74.5q0 -45 -31.5 -75.5t-74.5 -30.5q-44 0 -75.5 30.5t-31.5 75.5z" />
<glyph unicode="&#x63a;" horiz-adv-x="888" arabic-form="initial" d="M-18 0v76h360q-94 63 -147.5 164.5t-53.5 226.5q0 100 39 188t104 149t152.5 96.5t181.5 35.5q119 0 207 -65.5t88 -165.5q0 -50 -32.5 -85.5t-85.5 -35.5q-54 0 -85.5 29t-31.5 73q0 43 25 66.5t71 23.5q13 0 41 -4q-52 98 -190 98q-137 0 -208 -96.5t-71 -284.5 t72.5 -300.5t218.5 -112.5q126 0 209 74l51 -35q-118 -115 -297 -115h-618zM455 1235q0 45 31.5 75.5t74.5 30.5q44 0 75.5 -30.5t31.5 -75.5t-32 -76t-75 -31t-74.5 31t-31.5 76z" />
<glyph unicode="&#x63a;" horiz-adv-x="1300" arabic-form="medial" d="M-18 0v76h335q30 0 97.5 11t101.5 32q-46 53 -87 121t-120 227q-34 64 -139 201q-32 46 -43 57l27 18q262 154 464 154q193 0 314 -97t121 -265q0 -58 -24 -112.5t-58.5 -95.5t-90 -83.5t-101.5 -70.5t-109 -62q41 -35 121 -35h528v-76h-500q-70 0 -121.5 9.5t-69 18 t-40.5 23.5q-2 0 -2 2q-51 -28 -98 -40.5t-121 -12.5h-385zM287 715q91 -109 164 -269q103 -206 157 -266q63 39 100.5 68.5t73.5 72.5t52 97t16 125q0 121 -59 194.5t-170 73.5q-162 0 -334 -96zM532 1204q0 45 32 76t75 31q42 0 74 -31t32 -76q0 -44 -32 -75t-74 -31 q-43 0 -75 31t-32 75z" />
<glyph unicode="&#x641;" horiz-adv-x="1847" arabic-form="final" d="M0 698v70l326 14v-534q0 -80 35.5 -123.5t101.5 -48.5h418q47 0 66.5 1t47 7t49.5 20q-139 90 -220 206.5t-81 254.5q0 146 126 246t311 100q185 -1 305.5 -104t120.5 -250q0 -65 -23 -124.5t-57 -103t-87.5 -87.5t-100 -73t-109.5 -63q47 -30 117 -30h520v-76h-492 q-165 0 -248 49q-31 -16 -46.5 -23t-60 -16.5t-97.5 -9.5h-471q-304 0 -304 256v377q0 37 -30 51t-117 14zM920 565q0 -122 64 -227.5t167 -175.5q22 11 31 20q50 34 75 53.5t59 54.5t49.5 69.5t27.5 87.5t12 120q0 125 -61.5 200t-174.5 75q-108 0 -172.5 -64t-74.5 -160 q0 -8 -1 -27t-1 -26zM1040 1217q0 44 32 75t75 31q42 0 73 -31t31 -75q0 -45 -31 -76t-73 -31q-43 0 -75 31t-32 76z" />
<glyph unicode="&#x641;" horiz-adv-x="933" arabic-form="initial" d="M-18 0v76h622q77 0 114.5 51.5t37.5 144.5v109q-36 -87 -104.5 -131.5t-157.5 -44.5q-71 0 -142 38t-121.5 113.5t-50.5 167.5q0 131 44 227.5t125.5 154t188.5 85t242 27.5h154v-752q0 -128 -73 -197t-206 -69h-673zM358 537q0 -63 19.5 -122t62.5 -101.5t99 -45.5 q59 1 109 44.5t78 114.5t28 151v374h-23q-56 0 -108 -13.5t-101 -45t-85 -78.5t-57.5 -118.5t-21.5 -159.5zM541 1315q0 45 31 75.5t73 30.5q44 0 75.5 -30.5t31.5 -75.5t-32 -76t-75 -31q-42 0 -73 31t-31 76z" />
<glyph unicode="&#x641;" horiz-adv-x="1275" arabic-form="medial" d="M-18 0v76h329q47 0 66 1t46.5 7t49.5 20q-301 198 -301 461q0 146 126.5 246t311.5 100q185 -1 305.5 -104t120.5 -250q0 -65 -23 -124.5t-57 -103t-87.5 -87.5t-100 -73t-109.5 -63q47 -30 115 -30h522v-76h-493q-167 0 -246 49q-91 -49 -207 -49h-368zM348 565 q0 -122 65 -227.5t169 -175.5q5 2 12.5 8.5t9.5 7.5q35 23 50.5 34.5t43.5 33t41 36t32.5 38.5t28.5 47t19 53.5t13.5 67t3.5 79.5q0 124 -62.5 199.5t-175.5 75.5q-108 0 -172 -64t-74 -160q-4 -32 -4 -53zM477 1221q0 44 32 74t75 30t74.5 -30t31.5 -74q0 -45 -31.5 -76 t-74.5 -31t-75 31t-32 76z" />
<glyph unicode="&#x642;" horiz-adv-x="1593" arabic-form="final" d="M0 674v69l328 15v-436q0 -137 24 -245t63 -176t94 -112t113 -62t123 -18q79 0 156.5 27t150.5 95t109 169h-219q-176 0 -263 83.5t-87 235.5q0 264 167 425t431 161h156v-829h266v-76h-275q-67 -152 -232 -252t-360 -100q-115 0 -214 38.5t-168.5 104t-119 152t-73 183 t-23.5 196.5v286q0 37 -30.5 51.5t-116.5 14.5zM768 332q0 -95 47 -170.5t133 -85.5h215v766h-22q-67 0 -133.5 -37.5t-120 -102.5t-86.5 -162.5t-33 -207.5zM846 1237q0 45 28.5 74.5t73.5 29.5q46 0 75.5 -29.5t29.5 -74.5q0 -43 -30 -73.5t-75 -30.5t-73.5 30t-28.5 74z M1141 1237q0 45 29.5 74.5t74.5 29.5q44 0 74.5 -30t30.5 -74q0 -43 -30.5 -73.5t-74.5 -30.5q-45 0 -74.5 30.5t-29.5 73.5z" />
<glyph unicode="&#x642;" horiz-adv-x="933" arabic-form="initial" d="M-18 0v76h622q77 0 114.5 51.5t37.5 144.5v109q-36 -87 -104.5 -131.5t-157.5 -44.5q-71 0 -142 38t-121.5 113.5t-50.5 167.5q0 131 44 227.5t125.5 154t188.5 85t242 27.5h154v-752q0 -128 -73 -197t-206 -69h-673zM358 537q0 -63 19.5 -122t62.5 -101.5t99 -45.5 q59 1 109 44.5t78 114.5t28 151v374h-23q-56 0 -108 -13.5t-101 -45t-85 -78.5t-57.5 -118.5t-21.5 -159.5zM393 1311q0 45 29.5 74.5t75.5 29.5q45 0 74.5 -29.5t29.5 -74.5q0 -44 -29.5 -74.5t-74.5 -30.5t-75 31t-30 74zM690 1311q0 45 30 74.5t75 29.5q44 0 73 -30 t29 -74q0 -43 -29 -74t-73 -31q-45 0 -75 31t-30 74z" />
<glyph unicode="&#x642;" horiz-adv-x="1275" arabic-form="medial" d="M-18 0v76h329q47 0 66 1t46.5 7t49.5 20q-301 198 -301 461q0 146 126.5 246t311.5 100q185 -1 305.5 -104t120.5 -250q0 -65 -23 -124.5t-57 -103t-87.5 -87.5t-100 -73t-109.5 -63q47 -30 115 -30h522v-76h-493q-167 0 -246 49q-91 -49 -207 -49h-368zM332 1221 q0 44 29 74t75 30q44 0 74.5 -30.5t30.5 -73.5t-30.5 -74t-74.5 -31q-46 0 -75 30.5t-29 74.5zM348 565q0 -122 65 -227.5t169 -175.5q45 28 64 40.5t53.5 38.5t49 44t35.5 48.5t29.5 62t15.5 75.5t7 96q0 124 -62.5 199.5t-175.5 75.5q-108 0 -172 -64t-74 -160 q-4 -32 -4 -53zM627 1221q0 43 29.5 73.5t74.5 30.5t75 -30.5t30 -73.5t-30 -74t-75 -31t-74.5 30.5t-29.5 74.5z" />
<glyph unicode="&#x643;" horiz-adv-x="1552" arabic-form="final" d="M0 698v70l326 14v-534q0 -80 35.5 -123.5t101.5 -48.5h487q77 0 114.5 51.5t37.5 144.5v897q0 38 -14 54.5t-78 36.5l270 51v-920q0 -67 27.5 -138.5t82.5 -124t121 -52.5h60v-76h-25q-80 0 -159.5 52t-114.5 130v2q-22 -90 -92 -137t-181 -47h-548q-304 0 -304 256v377 q0 37 -30 51t-117 14zM489 598l25 74h113q-40 35 -68.5 86t-28.5 98q0 82 53.5 137.5t143.5 55.5q68 0 113 -36t45 -91q0 -70 -76 -70q-32 0 -54 16t-22 43q0 28 33 54q-11 20 -43 20t-50 -30.5t-18 -73.5q0 -39 17 -86t53 -85t80 -38h110v-74h-426z" />
<glyph unicode="&#x643;" horiz-adv-x="847" arabic-form="initial" d="M-18 0v76h596v346q0 48 -10.5 97t-35 98.5t-60 87.5t-90.5 62t-122 24h-188l47 71h49q49 0 138 47t176.5 117t155 161.5t73.5 168.5l137 -187q-5 -50 -90 -116.5t-198.5 -121.5t-217.5 -85q175 -22 301.5 -145t126.5 -273v-352h25l51 -76h-864z" />
<glyph unicode="&#x643;" horiz-adv-x="1110" arabic-form="medial" d="M-18 0v76h596v346q0 48 -10.5 97t-35 98.5t-60 87.5t-90.5 62t-122 24h-188l47 71h49q49 0 138 47t176.5 117t155 161.5t73.5 168.5l137 -187q-5 -50 -90 -116.5t-198.5 -121.5t-217.5 -85q175 -22 301.5 -145t126.5 -273v-352h358v-76h-1146z" />
<glyph unicode="&#x644;" horiz-adv-x="1634" arabic-form="final" d="M0 674v69l328 15v-436q0 -137 24 -244t63 -174t94 -110t112.5 -60t123.5 -17t123.5 17t113 60t94.5 110t63 174t24 244v849q0 37 -14.5 53t-79.5 38l274 51v-916q0 -69 25 -141t78 -126t119 -54h90v-76h-49q-89 0 -167.5 61.5t-105.5 128.5q-59 -256 -206.5 -399 t-381.5 -143q-115 0 -213.5 38.5t-168 104t-119 152t-73.5 183t-24 196.5v286q0 37 -30.5 51.5t-116.5 14.5z" />
<glyph unicode="&#x644;" horiz-adv-x="368" arabic-form="initial" d="M-18 0v76h45q161 0 161 196v895q0 28 -3.5 39t-22.5 24t-64 27l271 52v-1043q0 -126 -82.5 -196t-216.5 -70h-88z" />
<glyph unicode="&#x644;" horiz-adv-x="718" arabic-form="medial" d="M-18 0v76h114q154 0 154 190v914q0 34 -14.5 47t-75.5 35l268 51v-922q0 -67 27.5 -138.5t82.5 -124t121 -52.5h80v-76h-45q-76 0 -142.5 43t-115.5 117q-64 -160 -303 -160h-151z" />
<glyph unicode="&#x645;" horiz-adv-x="1492" arabic-form="final" d="M6 186q4 -1 48 -15t81.5 -24t54.5 -10q32 0 59.5 9.5t48 23t39.5 39.5t31.5 48t27 58.5t23 62t21.5 68.5t20.5 66.5t22.5 64.5t27 64.5t32.5 57.5t41.5 54t51 43.5t63.5 35.5t77 21t92.5 9h9q72 0 134.5 -27.5t106.5 -72.5t76 -103t47.5 -118.5t15.5 -118.5 q0 -92 -30 -166q27 -77 78.5 -128.5t117.5 -51.5h88v-76h-45q-105 0 -174.5 38.5t-120.5 123.5q-130 -166 -346 -166q-66 0 -119.5 15.5t-95 47t-64 54.5t-54.5 63q-120 -176 -285 -176q-38 30 -74 63q-21 17 -50 46.5t-50 51.5t-27 25zM549 258l35 -41q69 -73 103 -99 q71 -52 144 -52q98 0 170 103.5t72 244.5q0 100 -24 184t-76.5 139.5t-124.5 57.5h-6q-38 0 -69 -18t-50.5 -42.5t-38.5 -71t-29 -80.5t-26 -94q-1 -5 -7 -27.5t-8 -29.5t-8 -27.5t-9.5 -30.5t-9.5 -28t-11 -30t-12.5 -28t-14.5 -30z" />
<glyph unicode="&#x645;" horiz-adv-x="1173" arabic-form="initial" d="M-18 0v76h75q49 0 90 10.5t70 25t54.5 43t40.5 51t30.5 64t23.5 66.5t21 72q11 44 21 75t27.5 71.5t37 68.5t50.5 57.5t67.5 47.5t88 30t112.5 12q72 0 135.5 -27.5t108 -72.5t76.5 -102.5t47.5 -118t15.5 -117.5q0 -77 -28 -150t-80 -134t-137 -98.5t-190 -37.5 q-54 0 -101.5 12t-78.5 26.5t-65 42.5t-49.5 44.5t-43.5 48.5q-83 -86 -229 -86h-190zM463 166l18 -25q28 -32 47.5 -51.5t55 -48t76 -43t85.5 -14.5q97 0 168.5 99.5t71.5 238.5q0 100 -24 184.5t-75 140t-122 58.5h-8q-38 0 -69 -18t-50.5 -42.5t-38.5 -71.5t-29 -81 t-26 -95q-4 -12 -19.5 -68t-28.5 -92t-32 -71z" />
<glyph unicode="&#x645;" horiz-adv-x="1306" arabic-form="medial" d="M-18 0v76h84q55 12 77 30q28 27 53 81t37 94t31 110q10 40 16.5 63.5t19 60.5t23.5 59t29.5 52.5t38 48.5t48 38.5t61 31t75 18t91.5 7.5q72 0 134.5 -27.5t107 -72.5t76.5 -102.5t47.5 -118t15.5 -117.5q0 -34 -7 -74q28 -78 81 -130t118 -52h86v-76h-45q-98 0 -163 33 t-120 104q-48 -101 -145.5 -163t-239.5 -62q-66 0 -120.5 15t-94.5 44t-64.5 53.5t-53.5 61.5q-79 -86 -216 -86h-81zM336 166q5 -3 10 -12q25 -32 48 -55.5t58.5 -53t78 -45.5t87.5 -16q97 0 168.5 99.5t71.5 238.5q0 101 -23 184.5t-74.5 139.5t-123.5 59h-8 q-38 0 -69 -18t-50.5 -42.5t-38.5 -71.5t-29 -81t-26 -95l-4 -12q-38 -146 -76 -219z" />
<glyph unicode="&#x646;" horiz-adv-x="1634" arabic-form="final" d="M0 674v69l328 15v-436q0 -137 24 -244t63 -174t94 -110t112.5 -60t123.5 -17t123.5 17t113 60t94.5 110t63 174t24 244v395q0 37 -14.5 52.5t-79.5 37.5l274 51v-461q0 -69 25 -141t78 -126t119 -54h90v-76h-49q-89 0 -167.5 61.5t-105.5 128.5q-59 -256 -206.5 -399 t-381.5 -143q-115 0 -213.5 38.5t-168 104t-119 152t-73.5 183t-24 196.5v286q0 37 -30.5 51.5t-116.5 14.5zM621 963q0 44 31.5 75t74.5 31t75 -31t32 -75q0 -45 -32 -76t-75 -31t-74.5 31t-31.5 76z" />
<glyph unicode="&#x646;" horiz-adv-x="421" arabic-form="initial" d="M-18 0v76h106q154 3 154 196v498q0 40 -14 55.5t-78 36.5l270 51v-647q0 -126 -81.5 -196t-215.5 -70h-141zM215 1231q0 44 29 74t73 30q45 0 75 -29.5t30 -74.5q0 -43 -30 -74t-75 -31q-44 0 -73 31t-29 74z" />
<glyph unicode="&#x646;" horiz-adv-x="677" arabic-form="medial" d="M-18 0v76h94q153 0 153 190v514q0 34 -14.5 47t-75.5 35l271 51v-522q0 -68 26.5 -139t81 -123.5t121.5 -52.5h57v-76h-24q-76 0 -141.5 42.5t-114.5 117.5q-64 -160 -303 -160h-131zM182 1231q0 45 30 74.5t75 29.5q44 0 74 -30t30 -74q0 -43 -30 -74t-74 -31 q-45 0 -75 31t-30 74z" />
<glyph unicode="&#x647;" horiz-adv-x="1271" arabic-form="final" d="M133 475q0 89 30 172.5t83 149.5t133 105.5t174 39.5q54 0 106 -16t77 -29.5t59 -36.5l34 -22q7 0 23 51q1 3 2 8t3.5 11t8.5 12h103q-15 -66 -15 -150v-530q0 -155 107 -164h229v-76h-174h-55q-47 1 -80.5 5t-68.5 17.5t-56.5 36t-35 61.5t-13.5 93q-13 -36 -36 -71 t-58 -68t-88 -53.5t-115 -20.5q-105 0 -192 65.5t-136 174.5t-49 235zM319 463q0 -86 14.5 -156t37.5 -113t52.5 -72t57.5 -40.5t56 -11.5q75 0 135.5 51t85.5 133q22 75 22 248q0 60 -3.5 106t-17.5 98t-37.5 85.5t-66.5 56t-102 22.5q-77 0 -131 -59t-78.5 -148.5 t-24.5 -199.5z" />
<glyph unicode="&#x647;" horiz-adv-x="1150" arabic-form="initial" d="M-18 0v76h165q1 7 11 50t14 64q32 144 125 240t238 96q129 0 205.5 -71.5t76.5 -169.5q0 -58 -45.5 -114.5t-118.5 -94.5h316q-2 167 -36.5 305t-88.5 224t-118 132.5t-128 46.5q-126 0 -193 -65t-100 -182h-88q15 80 51.5 140.5t88 96t111.5 53t128 17.5 q116 0 220.5 -68t176.5 -177.5t114.5 -249t43.5 -281.5v-68h-1169zM227 76h103q55 1 106.5 14t100 39.5t77.5 75t29 112.5q0 65 -40.5 104.5t-94.5 39.5q-82 0 -158 -86t-110 -238z" />
<glyph unicode="&#x647;" horiz-adv-x="1388" arabic-form="medial" d="M-18 0v76h165q1 7 11 50t14 64q32 144 125 240t238 96q129 0 205.5 -71.5t76.5 -169.5q0 -58 -45.5 -114.5t-118.5 -94.5h316q-2 167 -36.5 305t-88.5 224t-118 132.5t-128 46.5q-126 0 -193 -65t-100 -182h-88q15 80 51.5 140.5t88 96t111.5 53t128 17.5q115 0 219 -67 t176.5 -175.5t115.5 -246.5t44 -279h256v-76h-1425zM227 76h103q55 1 106.5 14t100 39.5t77.5 75t29 112.5q0 65 -40.5 104.5t-94.5 39.5q-82 0 -158 -86t-110 -238z" />
<glyph unicode="&#x648;" horiz-adv-x="1210" arabic-form="final" d="M225 319q0 264 167 425t431 161h156v-502q0 -204 -14 -327h264v-76h-283q-25 -94 -66 -164.5t-86.5 -110t-102.5 -63.5t-105.5 -31.5t-104.5 -7.5q-45 0 -168 10l49 9q52 12 93 25t93 40.5t91 63.5t76 95t59 134h-235q-71 0 -142 37.5t-121.5 113t-50.5 168.5zM403 332 q0 -63 20 -120t62.5 -96.5t98.5 -39.5h211q4 40 4 63v703h-23q-68 0 -134.5 -37.5t-119.5 -102.5t-86 -162.5t-33 -207.5z" />
<glyph unicode="&#x649;" horiz-adv-x="1662" arabic-form="final" d="M0 698v70l328 14v-534q0 -163 137 -172h536q-38 107 -112 269t-117 273.5t-43 180.5q0 54 29 85t88 31h72q50 0 84.5 -7t72.5 -29.5t70 -69t63 -119.5q5 -13 48.5 -112t68.5 -160q9 -20 29.5 -71t32.5 -78.5t35.5 -68.5t45.5 -63t55 -40.5t70 -20.5h88v-76h-49 q-230 0 -307 182q-36 86 -93.5 215t-64.5 146q-33 72 -34 75q-62 135 -99 179.5t-82 44.5t-45 -62q0 -26 23 -92q15 -41 31 -76q9 -21 251 -612h-759q-306 0 -306 256v377q0 37 -30 51t-117 14z" />
<glyph unicode="&#x64a;" horiz-adv-x="1662" arabic-form="final" d="M0 698v70l328 14v-534q0 -163 137 -172h536q-38 107 -112 269t-117 273.5t-43 180.5q0 54 29 85t88 31h72q50 0 84.5 -7t72.5 -29.5t70 -69t63 -119.5q5 -13 48.5 -112t68.5 -160q9 -20 29.5 -71t32.5 -78.5t35.5 -68.5t45.5 -63t55 -40.5t70 -20.5h88v-76h-49 q-230 0 -307 182q-36 86 -93.5 215t-64.5 146q-33 72 -34 75q-62 135 -99 179.5t-82 44.5t-45 -62q0 -26 23 -92q15 -41 31 -76q9 -21 251 -612h-759q-306 0 -306 256v377q0 37 -30 51t-117 14zM463 -291q0 45 29 75t75 30q44 0 73.5 -30.5t29.5 -74.5q0 -42 -29.5 -72 t-73.5 -30q-46 0 -75 30t-29 72zM758 -291q0 45 29.5 75t74.5 30q44 0 74.5 -30.5t30.5 -74.5q0 -42 -30.5 -72t-74.5 -30q-45 0 -74.5 30t-29.5 72z" />
<glyph unicode="&#x64a;" horiz-adv-x="477" arabic-form="initial" d="M-74 -291q0 44 29.5 73.5t75.5 29.5q44 0 74 -30t30 -73t-30 -73.5t-74 -30.5q-46 0 -75.5 30t-29.5 74zM-18 0v76h163q154 3 154 196v498q0 40 -14 55.5t-78 36.5l270 51v-647q0 -126 -81.5 -196t-215.5 -70h-198zM221 -291q0 43 30 73t75 30t74.5 -30t29.5 -73 t-29.5 -73.5t-74.5 -30.5t-75 30.5t-30 73.5z" />
<glyph unicode="&#x64a;" horiz-adv-x="735" arabic-form="medial" d="M-72 -291q0 44 29.5 73.5t75.5 29.5q44 0 74 -30t30 -73t-30 -73.5t-74 -30.5q-46 0 -75.5 30t-29.5 74zM-18 0v76h94q153 0 153 190v514q0 34 -14.5 47t-75.5 35l271 51v-522q0 -68 26.5 -139t81 -123.5t121.5 -52.5h115v-76h-82q-76 0 -141.5 42.5t-114.5 117.5 q-64 -160 -303 -160h-131zM223 -291q0 43 30 73t75 30t74.5 -30t29.5 -73t-29.5 -73.5t-74.5 -30.5t-75 30.5t-30 73.5z" />
<glyph unicode=" "  horiz-adv-x="425" />
<glyph unicode="&#x09;" horiz-adv-x="425" />
<glyph unicode="&#xa0;" horiz-adv-x="425" />
<glyph unicode="!" horiz-adv-x="391" d="M0 98q0 50 32 80.5t79 30.5q46 0 77 -30.5t31 -80.5t-31 -80t-77 -30q-47 0 -79 30t-32 80zM0 1174q0 129 111 129q108 0 108 -129q0 -23 -3.5 -52.5t-9 -64.5t-7.5 -53l-60 -584h-57l-62 584q-2 18 -7.5 53t-9 64.5t-3.5 52.5z" />
<glyph unicode="&#x22;" horiz-adv-x="913" d="M350 1247q0 44 32.5 76.5t78.5 32.5q51 0 93 -44t42 -112q0 -96 -50 -188.5t-128 -165.5l-45 45q70 73 94.5 122.5t24.5 114.5q-64 0 -103 30.5t-39 88.5zM668 1247q0 44 32 76.5t76 32.5q53 0 95 -43.5t42 -112.5q0 -96 -50.5 -188t-127.5 -166l-45 45q69 72 93 121.5 t24 115.5q-64 0 -101.5 30.5t-37.5 88.5z" />
<glyph unicode="$" horiz-adv-x="946" d="M74 360q0 46 29.5 84.5t82.5 38.5q50 0 78.5 -28.5t28.5 -77.5q0 -43 -28.5 -70.5t-74.5 -27.5q-14 0 -30 4q19 -91 95.5 -134t186.5 -43v512q-313 76 -313 304q0 130 92 231.5t221 122.5v164h80v-164q114 0 200.5 -60.5t86.5 -168.5q0 -64 -30 -93.5t-77 -29.5 q-44 0 -71 29.5t-27 68.5q0 49 28 74.5t68 25.5q4 0 12 -1t9 -1q-33 88 -199 92v-452q70 -19 115 -34.5t94.5 -42.5t77.5 -58.5t46.5 -80t18.5 -110.5q0 -132 -95 -239.5t-257 -141.5v-190h-80v178q-153 0 -260.5 87.5t-107.5 231.5zM254 979q0 -83 48 -125.5t140 -73.5v428 q-83 -18 -135.5 -77.5t-52.5 -151.5zM522 115q93 19 153 89.5t60 168.5q0 96 -51.5 142t-161.5 79v-479z" />
<glyph unicode="%" horiz-adv-x="1263" d="M168 1200q0 45 31.5 76t74.5 31t75 -31t32 -76q0 -44 -32 -74t-75 -30t-74.5 30t-31.5 74zM172 -23l850 1348h100l-852 -1348h-98zM911 104q0 44 32 75.5t75 31.5q42 0 74 -31.5t32 -75.5q0 -45 -32 -75.5t-74 -30.5q-44 0 -75.5 30.5t-31.5 75.5z" />
<glyph unicode="'" horiz-adv-x="419" d="M143 1225q0 100 68 100q65 0 65 -100q0 -47 -6 -105l-28 -334q-3 -59 -31 -59q-16 0 -23 13.5t-10 45.5l-28 334q-7 68 -7 105z" />
<glyph unicode="(" horiz-adv-x="759" d="M0 471q0 159 43.5 309t120 267t190 192t244.5 86v-63q-131 -4 -232 -106t-155.5 -280t-54.5 -405t54.5 -405t155.5 -279t232 -104v-66q-131 11 -244.5 86.5t-190 192.5t-120 266.5t-43.5 308.5z" />
<glyph unicode=")" horiz-adv-x="759" d="M162 -317q131 3 232 104t155.5 279t54.5 405t-54.5 405t-155.5 280t-232 106v63q131 -11 244.5 -86t190 -192t120 -267t43.5 -309t-43.5 -308.5t-120 -266.5t-190 -192.5t-244.5 -86.5v66z" />
<glyph unicode="*" horiz-adv-x="948" d="M166 889l196 -64l-120 -166l112 -81l119 163l121 -163l115 81l-121 166l194 62l-43 135l-194 -64v205h-142l3 -202l-195 63z" />
<glyph unicode="+" horiz-adv-x="1173" d="M141 391v107h394v393h106v-393h391v-107h-391v-391h-106v391h-394z" />
<glyph unicode="-" horiz-adv-x="1173" d="M141 391v107h891v-107h-891z" />
<glyph unicode="." horiz-adv-x="473" d="M102 98q0 50 32 80.5t79 30.5q46 0 77.5 -30.5t31.5 -80.5t-31.5 -80t-77.5 -30q-47 0 -79 30t-32 80z" />
<glyph unicode="/" horiz-adv-x="794" d="M162 -23l520 1348h113l-523 -1348h-110z" />
<glyph unicode="0" horiz-adv-x="663" d="M145 575l191 154l182 -215l-196 -156z" />
<glyph unicode="1" horiz-adv-x="841" d="M115 0h616v76q-121 0 -169 27t-48 87v1125l-274 -51q65 -20 79.5 -37t14.5 -56v-981q0 -60 -48 -87t-171 -27v-76z" />
<glyph unicode="2" horiz-adv-x="1089" d="M119 0h614v76q-121 0 -169 27t-48 87v791q0 140 73 196t242 56h220v70h-336q-377 0 -377 -308l-2 -805q0 -60 -48 -87t-169 -27v-76z" />
<glyph unicode="3" horiz-adv-x="1368" d="M113 0h616v76q-121 0 -169 27t-48 87v453q52 -41 143 -41q139 0 189 103q53 -84 172 -84h6q128 0 179.5 79.5t51.5 245.5v365l-274 -51q66 -19 81 -35.5t15 -55.5v-323q0 -66 -21.5 -110t-70.5 -44q-30 0 -52.5 24.5t-33 64.5t-15.5 80t-5 81v369l-275 -51 q67 -21 80.5 -33.5t13.5 -48.5v-271q0 -121 -14.5 -177.5t-58.5 -59.5q-67 11 -89 92t-22 233v316l-272 -51q66 -21 79 -33.5t13 -48.5v-988q0 -60 -48 -87t-171 -27v-76z" />
<glyph unicode="4" horiz-adv-x="1044" d="M113 371q0 -71 25 -134.5t76 -118t142 -86.5t211 -32h371l-47 76h-211q-206 0 -280 55.5t-74 214.5q0 152 82.5 247t207.5 95h144v70q-195 0 -278 48t-83 175q0 140 74 196t246 56h127v70h-252q-92 0 -164.5 -19.5t-117 -50t-73.5 -72t-40 -82.5t-11 -84q0 -58 17.5 -101 t52.5 -73t77 -49t101 -35q-144 -34 -233.5 -135.5t-89.5 -230.5z" />
<glyph unicode="5" horiz-adv-x="1083" d="M113 598q0 307 119 473t311 166q190 0 310 -166.5t120 -472.5q0 -153 -32.5 -269.5t-91.5 -187.5t-135.5 -106t-170.5 -35q-195 0 -312.5 148.5t-117.5 449.5zM315 598q0 -214 21 -325.5t68.5 -157t138.5 -45.5t138.5 45.5t68 157t20.5 325.5q0 321 -48 444t-179 123 t-179.5 -123t-48.5 -444z" />
<glyph unicode="6" horiz-adv-x="1091" d="M37 1233h221q169 0 242 -56t73 -196v-791q0 -61 -47 -87.5t-168 -26.5v-76h615v76q-121 0 -169 27t-48 87l-4 805q0 46 -7.5 84.5t-31 81.5t-62.5 73t-108 49.5t-162 19.5h-344v-70z" />
<glyph unicode="7" horiz-adv-x="1091" d="M37 1233v70h321l285 -969q229 782 236 829v8q0 29 -41.5 45.5t-112.5 16.5v70h332q-28 -69 -64 -183v2q-40 -127 -111.5 -354.5t-130.5 -415.5t-110 -352h-76l-379 1184q-9 22 -49 35.5t-100 13.5z" />
<glyph unicode="8" horiz-adv-x="1091" d="M35 0q31 78 63 186v-2l353 1119h75l379 -1184q9 -22 49 -35.5t99 -13.5v-70h-320l-287 973q-48 -164 -49 -166q-123 -410 -154.5 -523t-31.5 -145q0 -21 9 -34t45.5 -24t101.5 -11v-70h-332z" />
<glyph unicode="9" horiz-adv-x="1193" d="M113 940q0 -86 38.5 -155t103.5 -111.5t145 -65t167 -22.5q59 0 109 6v-406q0 -61 -47.5 -88.5t-167.5 -27.5v-70h612v70q-121 0 -169 27.5t-48 88.5v1117h-336q-91 0 -164 -25t-117.5 -63.5t-74 -88.5t-40.5 -96t-11 -90zM326 944q0 145 76 217t241 72h33v-563h-19 q-331 0 -331 274z" />
<glyph unicode=":" horiz-adv-x="600" d="M254 98q0 50 32 80.5t79 30.5q46 0 77 -30.5t31 -80.5t-31 -80t-77 -30q-47 0 -79 30t-32 80zM254 743q0 50 32 79.5t79 29.5q46 0 77 -29.5t31 -79.5q0 -51 -31 -80.5t-77 -29.5q-48 0 -79.5 29.5t-31.5 80.5z" />
<glyph unicode="&#x3c;" horiz-adv-x="804" d="M131 508l428 -420l115 119l-305 301l305 301l-115 119z" />
<glyph unicode="=" horiz-adv-x="1173" d="M141 217v107h891v-107h-891zM141 567v105h891v-105h-891z" />
<glyph unicode="&#x3e;" horiz-adv-x="804" d="M131 207l115 -119l428 420l-428 420l-115 -119l305 -301z" />
<glyph unicode="[" horiz-adv-x="630" d="M188 -352v1648h334v-65q-108 0 -150 -30t-42 -109v-1239q0 -79 42.5 -110.5t149.5 -31.5v-63h-334z" />
<glyph unicode="\" horiz-adv-x="526" d="M-53 1325h112l521 -1348h-113z" />
<glyph unicode="]" horiz-adv-x="630" d="M109 -289q107 0 149.5 31.5t42.5 110.5v1239q0 79 -42 109t-150 30v65h333v-1648h-333v63z" />
<glyph unicode="_" horiz-adv-x="946" d="M0 -141h946v-97h-946v97z" />
<glyph unicode="&#xad;" horiz-adv-x="1173" d="M141 391v107h891v-107h-891z" />
<glyph unicode="&#xd7;" horiz-adv-x="1173" d="M141 76l371 368l-371 371l74 76l373 -373l370 373l74 -76l-368 -371l368 -368l-74 -76l-370 371l-373 -371z" />
<glyph unicode="&#xf7;" horiz-adv-x="1136" d="M123 391v107h891v-107h-891zM459 84q0 41 32.5 72.5t73.5 31.5q40 0 72.5 -31.5t32.5 -72.5q0 -42 -32.5 -74.5t-72.5 -32.5q-41 0 -73.5 32.5t-32.5 74.5zM459 807q0 42 32 74t74 32q40 0 72.5 -32t32.5 -74t-32.5 -74.5t-72.5 -32.5q-41 0 -73.5 32t-32.5 75z" />
<glyph unicode="&#x60c;" horiz-adv-x="473" d="M84 166q0 115 59.5 219.5t155.5 183.5l39 -45q-156 -135 -156 -307q135 -7 135 -123q0 -40 -31 -68t-71 -28q-66 0 -98.5 49.5t-32.5 118.5z" />
<glyph unicode="&#x61b;" horiz-adv-x="643" d="M272 813q0 114 60 220t157 184l37 -46q-155 -137 -155 -307q137 -11 137 -123q0 -40 -32 -69t-73 -29q-65 0 -98 50.5t-33 119.5zM289 111q0 49 31 78.5t77 29.5q47 0 79 -29t32 -79q0 -51 -32 -81t-79 -30q-46 0 -77 30t-31 81z" />
<glyph unicode="&#x61f;" horiz-adv-x="811" d="M0 1008q0 -56 37.5 -117.5t80.5 -102t109.5 -97.5t91.5 -83q48 -48 48 -221h61v121q0 62 -26 112.5t-62.5 86t-73 72t-62.5 90.5t-26 122q0 105 66 176.5t172 71.5q83 0 152 -48t69 -126q-32 8 -53 8q-45 0 -72 -27.5t-27 -70.5q0 -41 31 -73t72 -32q65 0 97 44t32 114 q0 80 -53.5 145t-130 97.5t-154.5 32.5q-70 0 -135.5 -17t-121 -51.5t-89 -93t-33.5 -133.5zM276 98q0 -50 32 -80t79 -30q46 0 77.5 30t31.5 80t-31.5 80.5t-77.5 30.5q-47 0 -79 -30.5t-32 -80.5z" />
<glyph unicode="&#x621;" horiz-adv-x="778" d="M131 0h647v96h-160q-60 0 -112 30.5t-84 76.5t-50 95.5t-18 92.5q0 67 34.5 115.5t98.5 48.5q73 0 95 -35q-58 -43 -58 -82q0 -37 31 -60.5t70 -23.5q53 0 77.5 21.5t24.5 81.5q0 77 -66.5 131.5t-162.5 54.5q-138 0 -221.5 -85.5t-83.5 -207.5q0 -77 48.5 -144.5 t116.5 -109.5h-192z" />
<glyph unicode="&#x627;" horiz-adv-x="452" d="M184 1257l269 52v-1309h-181v1167q0 38 -13.5 53.5t-74.5 36.5z" />
<glyph unicode="&#x628;" horiz-adv-x="1280" d="M0 698q86 0 115.5 -14t29.5 -51v-377q0 -256 306 -256h548q134 0 207.5 69t73.5 197v647l-272 -51q64 -21 78 -36.5t14 -55.5v-498q0 -93 -37.5 -144.5t-114.5 -51.5h-485q-66 5 -101.5 48.5t-35.5 123.5v534l-326 -14v-70zM618 -315q0 45 32.5 75.5t74.5 30.5 q43 0 74.5 -30.5t31.5 -75.5q0 -44 -31.5 -74.5t-74.5 -30.5q-42 0 -74.5 31t-32.5 74z" />
<glyph unicode="&#x629;" horiz-adv-x="995" d="M131 469q0 123 50 229.5t150.5 175t231.5 68.5q130 0 230.5 -68.5t151 -175t50.5 -229.5q0 -72 -18.5 -140.5t-56 -127.5t-88.5 -104t-120.5 -71t-148.5 -26q-99 0 -182 39.5t-136.5 105.5t-83.5 150t-30 174zM315 1235q0 45 29 74.5t74 29.5t74.5 -29.5t29.5 -74.5 q0 -44 -29.5 -74.5t-74.5 -30.5t-74 30.5t-29 74.5zM326 469q0 -399 237 -399q236 0 236 399q0 401 -236 401q-237 0 -237 -401zM610 1235q0 45 30 74.5t75 29.5q44 0 74 -30t30 -74q0 -43 -30 -74t-74 -31q-45 0 -75 31t-30 74z" />
<glyph unicode="&#x62a;" horiz-adv-x="1280" d="M0 698q86 0 115.5 -14t29.5 -51v-377q0 -256 306 -256h548q134 0 207.5 69t73.5 197v647l-272 -51q64 -21 78 -36.5t14 -55.5v-498q0 -93 -37.5 -144.5t-114.5 -51.5h-485q-66 5 -101.5 48.5t-35.5 123.5v534l-326 -14v-70zM436 1116q0 44 29.5 74.5t75.5 30.5 q44 0 73 -31t29 -74t-29 -73.5t-73 -30.5q-46 0 -75.5 30t-29.5 74zM731 1116q0 43 30 74t75 31t74.5 -30.5t29.5 -74.5q0 -43 -29.5 -73.5t-74.5 -30.5t-75 30.5t-30 73.5z" />
<glyph unicode="&#x62b;" horiz-adv-x="1280" d="M0 698q86 0 115.5 -14t29.5 -51v-377q0 -256 306 -256h548q134 0 207.5 69t73.5 197v647l-272 -51q64 -21 78 -36.5t14 -55.5v-498q0 -93 -37.5 -144.5t-114.5 -51.5h-485q-66 5 -101.5 48.5t-35.5 123.5v534l-326 -14v-70zM438 1114q0 40 26 67t68 27t69.5 -27t27.5 -67 t-27.5 -68t-69.5 -28t-68 27.5t-26 68.5zM594 1335q0 37 25.5 62.5t64.5 25.5q38 0 62 -25.5t24 -62.5t-24 -62.5t-62 -25.5q-39 0 -64.5 25.5t-25.5 62.5zM743 1114q0 40 28 67t69 27t67.5 -27t26.5 -67t-26.5 -68t-67.5 -28t-69 28t-28 68z" />
<glyph unicode="&#x62c;" horiz-adv-x="1296" d="M131 76q64 -188 211.5 -305t364.5 -117l69 70h-43q-67 0 -127 14t-116.5 44.5t-101.5 86t-73 131.5h932l49 76h-79q-2 114 -26.5 227t-71 213t-109.5 177t-147.5 122t-178.5 45q-58 0 -115 -17.5t-81.5 -31.5t-67.5 -41l-6 -4l-39 -27q-14 0 -47 80h-64v-397h76 q14 77 40 140t67.5 115.5t104 81.5t140.5 29q132 0 225.5 -190t96.5 -522h-883zM854 -170q0 37 27 62.5t63 25.5t62 -25t26 -63q0 -37 -26.5 -63.5t-61.5 -26.5q-36 0 -63 27t-27 63z" />
<glyph unicode="&#x62d;" horiz-adv-x="1296" d="M131 76q64 -188 211.5 -305t364.5 -117l69 70h-43q-67 0 -127 14t-116.5 44.5t-101.5 86t-73 131.5h932l49 76h-79q-2 114 -26.5 227t-71 213t-109.5 177t-147.5 122t-178.5 45q-58 0 -115 -17.5t-81.5 -31.5t-67.5 -41l-6 -4l-39 -27q-14 0 -47 80h-64v-397h76 q14 77 40 140t67.5 115.5t104 81.5t140.5 29q132 0 225.5 -190t96.5 -522h-883z" />
<glyph unicode="&#x62e;" horiz-adv-x="1296" d="M131 76q64 -188 211.5 -305t364.5 -117l69 70h-43q-67 0 -127 14t-116.5 44.5t-101.5 86t-73 131.5h932l49 76h-79q-2 114 -26.5 227t-71 213t-109.5 177t-147.5 122t-178.5 45q-58 0 -115 -17.5t-81.5 -31.5t-67.5 -41l-6 -4l-39 -27q-14 0 -47 80h-64v-397h76 q14 77 40 140t67.5 115.5t104 81.5t140.5 29q132 0 225.5 -190t96.5 -522h-883zM623 1208q0 45 31.5 76t74.5 31t75 -31t32 -76q0 -44 -32 -75t-75 -31t-74.5 31t-31.5 75z" />
<glyph unicode="&#x62f;" horiz-adv-x="972" d="M176 76h596v252q0 276 -28 397t-103 121q-51 0 -123.5 -79t-177.5 -230l-37 159q42 2 78 23.5t98 91.5q88 100 187 100h4q72 -1 128 -58.5t88 -144t52.5 -205.5t27.5 -226.5t7 -223.5v-53h-733z" />
<glyph unicode="&#x630;" horiz-adv-x="972" d="M176 76h596v252q0 276 -28 397t-103 121q-51 0 -123.5 -79t-177.5 -230l-37 159q42 2 78 23.5t98 91.5q88 100 187 100h4q72 -1 128 -58.5t88 -144t52.5 -205.5t27.5 -226.5t7 -223.5v-53h-733zM518 1221q0 43 31.5 73.5t73.5 30.5q43 0 74.5 -30t31.5 -74 q0 -45 -31.5 -76t-74.5 -31q-42 0 -73.5 31t-31.5 76z" />
</font>
</defs>
</svg>
