<?xml version="1.0" standalone="no"?>
<!DOCTYPE svg PUBLIC "-//W3C//DTD SVG 1.1//EN" "http://www.w3.org/Graphics/SVG/1.1/DTD/svg11.dtd" >
<svg xmlns="http://www.w3.org/2000/svg">
<metadata></metadata>
<defs>
<font id="ge_jaridaheavy" horiz-adv-x="0" >
<font-face units-per-em="2048" ascent="1638" descent="-410" />
<missing-glyph horiz-adv-x="491" />
<glyph unicode="&#x627;&#x653;" horiz-adv-x="407" d="M100 1221q1 53 33.5 92t71.5 41q19 1 49 -7t55.5 -16t50 -12t38.5 7t14 40h63q-1 -55 -32.5 -97t-71.5 -42q-12 0 -70.5 16t-97.5 14.5t-39 -36.5h-64zM195 1124l36 -1126l177 268v910z" />
<glyph unicode="&#x627;&#x654;" horiz-adv-x="419" d="M188 1358q0 -62 80 -68l-61 -26l-6 -82l211 51l39 96q-46 -10 -95 -10q-65 0 -71 47q28 35 77 35q14 0 27.5 -2.5t20.5 -4.5l6 -3q-53 53 -58 53q-21 12 -47 12q-51 0 -87 -30.5t-36 -67.5zM209 1124l37 -1126l176 268v910z" />
<glyph unicode="&#x648;&#x654;" horiz-adv-x="796" d="M168 -279q0 -5 92 -23.5t200.5 -35t145.5 -16.5q2 0 2.5 1t1.5 1q89 74 138 239t49 357q0 710 -260 723l-19 -2q-66 -9 -148 -113.5t-135.5 -248t-41.5 -249.5q13 -112 98 -200t215 -88q68 0 84 2q-58 -86 -126 -155t-125.5 -107.5t-100 -59.5t-68.5 -25h-2zM313 1251 q0 -77 105 -86l-78 -35l-10 -102l272 64l49 125q-83 -17 -121 -17q-85 0 -94 62q38 45 103 45q11 0 22 -1.5t19 -3.5l14 -3.5l10 -2.5l4 -2l-71 72q-34 12 -66 12q-64 0 -111 -40t-47 -87zM373 612.5q-22 44.5 12 106.5q23 46 81 13q60 -34 103 -115q25 -49 33 -99 q-83 0 -145 25t-84 69.5z" />
<glyph unicode="&#x627;&#x655;" horiz-adv-x="407" d="M178 -168q0 -59 80 -68l-61 -26l-7 -80l211 49l39 98q-44 -12 -94 -12q-66 0 -72 47q28 35 78 35q14 0 27.5 -2.5t20.5 -4.5l6 -3l-56 55q-20 10 -49 10q-51 0 -87 -30t-36 -68zM195 1139l36 -1141l177 268v1065z" />
<glyph unicode="&#x64a;&#x654;" horiz-adv-x="1232" d="M168 98q0 -111 31 -197.5t84 -140t124 -85.5t151 -38t166.5 8.5t168 48t157 85t132.5 115.5q13 43 32 180.5t19 204.5q0 40 -38 77.5t-94 65.5t-112.5 53.5t-99.5 52t-49 50.5q33 100 147 100q115 0 236 -98q4 42 1 161t-14 148q-12 32 -62.5 58t-96.5 26 q-53 0 -148 -89.5t-170.5 -213t-75.5 -205.5q0 -71 93.5 -141t277.5 -152q-157 -78 -241.5 -105.5t-170.5 -27.5q-78 1 -133.5 26t-85.5 68.5t-43.5 94t-13.5 112.5q0 98 28.5 201.5t59.5 158.5l-190 -227q-70 -216 -70 -375zM256 979q0 -74 102 -86l-77 -35l-11 -102 l273 63l49 127q-70 -18 -121 -18q-82 0 -94 61q38 45 104 45q10 0 21 -1t18.5 -3t14 -4t10.5 -3l4 -1l-28 28t-31.5 32t-12.5 12q-34 12 -63 12q-65 0 -111.5 -39.5t-46.5 -87.5z" />
<glyph unicode="&#x64c;&#x651;" arabic-form="isolated" d="M-23 1626q28 3 106.5 48t113.5 79q8 -27 28 -12q47 47 25 76q28 47 33 73q7 46 -27 72q-21 16 -64 -11t-81 -85q-5 -5 -2.5 -12.5l4 -12t8 -11t10.5 -9.5t12 -8.5t11 -8.5q-45 -49 -158 -94zM-16 1540q0 -82 2 -96v2q8 -55 57 -55q37 0 80 34q32 -18 59 -18q66 0 74 104 q0 1 1 22.5t0.5 35t-5.5 35.5t-14 38l-66 -65q18 -36 18 -74q-11 -2 -30 4q3 25 -6 66.5t-19 54.5l-61 -74q20 -33 20 -59q-9 -7 -19 -11t-20 -2t-14 13q-5 15 10 127zM-9 1891.5q-8 -39.5 5 -72.5l-2 2q1 -6 5.5 -12t17.5 -16t16 -13l16 -8q-23 69 14 129q100 82 173 118 q3 20 20 64q2 9 -38 -2t-98.5 -45t-96.5 -80q-24 -25 -32 -64.5zM164 1878q29 33 48 23q10 -5 7 -23q0 -20 -18 -41q-14 21 -37 41z" />
<glyph unicode="&#x64d;&#x651;" arabic-form="isolated" d="M-55 1366l266 68l49 82l-266 -70zM-23 1479l267 67l49 82l-268 -67zM-8 1786q0 -82 4 -94v2q3 -28 18 -42t37 -14q35 0 80 35q28 -18 59 -18q66 0 74 104q8 85 -18 131l-66 -65q21 -42 21 -76q-21 0 -33 4q3 25 -6 67.5t-17 55.5l-63 -74q20 -33 20 -61q-9 -6 -19 -9.5 t-19.5 -1.5t-12.5 11q-7 16 8 129z" />
<glyph unicode="&#x64e;&#x651;" arabic-form="isolated" d="M-43 1642l266 70l51 82l-268 -72zM-16 1540q0 -82 2 -96v2q8 -55 57 -55q37 0 80 34q32 -18 59 -18q66 0 74 104q0 1 1 22.5t0.5 35t-5.5 35.5t-14 38l-66 -65q18 -36 18 -74q-11 -2 -30 4q3 25 -6 66.5t-19 54.5l-61 -74q20 -33 20 -59q-9 -7 -19 -11t-20 -2t-14 13 q-5 15 10 127z" />
<glyph unicode="&#x64f;&#x651;" arabic-form="isolated" d="M-43 1626q27 3 106 47.5t113 77.5q10 -24 29 -12q46 46 24 76q26 39 35 73q6 47 -26 72q-21 16 -65 -10.5t-81 -83.5q-13 -28 43 -62q-49 -52 -160 -94zM-16 1540q0 -82 2 -96v2q8 -55 57 -55q37 0 80 34q32 -18 59 -18q66 0 74 104q0 1 1 22.5t0.5 35t-5.5 35.5t-14 38 l-66 -65q18 -36 18 -74q-11 -2 -30 4q3 25 -6 66.5t-19 54.5l-61 -74q20 -33 20 -59q-9 -7 -19 -11t-20 -2t-14 13q-5 15 10 127zM145 1876q26 31 47 24q13 -5 9 -24q0 -11 -19 -41q-14 22 -37 41z" />
<glyph unicode="&#x650;&#x651;" arabic-form="isolated" d="M-45 1374l264 68l51 84l-266 -72zM-14 1688q0 -83 2 -97v2q8 -55 57 -55q35 0 80 35q34 -19 57 -19q30 0 48 22.5t22 43t4 39.5q8 89 -18 131l-66 -66q21 -35 21 -73q-14 -3 -31 4q1 26 -7.5 67.5t-17.5 55.5l-61 -76q20 -27 20 -60q-9 -7 -19 -11t-20 -2t-14 13 q-4 13 8 127z" />
<glyph unicode="&#xfe8e;&#x64b;" horiz-adv-x="471" arabic-form="final" d="M102 1311l267 67l49 82l-266 -69zM135 1423l266 68l50 82l-269 -68zM168 0v1161l203 174v-817h118v-518h-321z" />
<glyph unicode="&#x627;&#x64b;" horiz-adv-x="407" arabic-form="isolated" d="M150 1208l266 68l49 82l-266 -70zM182 1321l267 68l49 81l-269 -67zM195 1124l36 -1126l177 268v910z" />
<glyph unicode="&#xfedf;&#xfee0;&#xfeea;" horiz-adv-x="1875" arabic-form="isolated" d="M168 96v414q79 79 166.5 136.5t212.5 119.5l-23 123l181 117l55 -488h391v627l207 186v-813h309v627l209 186v-1331h-1200l-43 274q-57 -184 -117 -254q-21 4 -105.5 19t-143.5 28t-99 29zM350 440q39 -21 89.5 -34.5t78.5 -17.5t100 -13l-34 186q-168 -68 -234 -121z " />
<glyph unicode="&#xfedf;&#xfe82;" horiz-adv-x="847" arabic-form="isolated" d="M29 1305q1 53 32.5 92t71.5 41q19 1 49 -7t55.5 -16t50 -12t38.5 7t14 40h63q-1 -55 -33 -97t-71 -42q-12 0 -70.5 16t-97.5 14.5t-39 -36.5h-63zM135 322q8 4 79 8.5t159 28t151 75.5q-16 127 -192 363l-23 -62q-41 45 -78.5 106t-46.5 97q-1 6 -11.5 41t-10.5 45 q0 97 71 217q361 -416 361 -715q0 -22 -2 -34q56 91 72 157.5t16 149.5q0 44 -2 96t-6.5 143.5t-7.5 159.5l184 131v-821q0 -186 -106 -324t-336 -233q-24 14 -93 106t-125.5 178t-52.5 87z" />
<glyph unicode="&#xfee0;&#xfe82;" horiz-adv-x="972" arabic-form="final" d="M29 1305q1 53 32.5 92t71.5 41q19 1 49 -7t55.5 -16t50 -12t38.5 7t14 40h63q-1 -55 -33 -97t-71 -42q-12 0 -70.5 16t-97.5 14.5t-39 -36.5h-63zM135 322q8 4 79 8.5t159 28t151 75.5q-16 127 -192 363l-23 -62q-41 45 -78.5 106t-46.5 97q-1 6 -11.5 41t-10.5 45 q0 97 71 217q361 -416 361 -715q0 -22 -2 -34q56 91 72 157.5t16 149.5q0 44 -2 96t-6.5 143.5t-7.5 159.5l184 131v-811h141v-518h-184l-17 219q-27 -81 -137.5 -156t-244.5 -112q-24 14 -93 106t-125.5 178t-52.5 87z" />
<glyph unicode="&#xfedf;&#xfe84;" horiz-adv-x="847" arabic-form="isolated" d="M74 1458q0 -61 80 -67l-62 -27l-6 -82l211 51l39 99q-48 -13 -94 -13q-66 0 -72 47q28 35 78 35q14 0 27.5 -2.5t20.5 -4.5l7 -3q-8 7 -22.5 21t-24 23t-10.5 9q-19 12 -49 12q-51 0 -87 -30t-36 -68zM135 322q8 4 79 8.5t159 28t151 75.5q-16 127 -192 363l-23 -62 q-41 45 -78.5 106t-46.5 97q-1 6 -11.5 41t-10.5 45q0 97 71 217q361 -416 361 -715q0 -22 -2 -34q56 91 72 157.5t16 149.5q0 44 -2 96t-6.5 143.5t-7.5 159.5l184 131v-821q0 -186 -106 -324t-336 -233q-24 14 -93 106t-125.5 178t-52.5 87z" />
<glyph unicode="&#xfee0;&#xfe84;" horiz-adv-x="972" arabic-form="final" d="M74 1458q0 -61 80 -67l-62 -27l-6 -82l211 51l39 99q-48 -13 -94 -13q-66 0 -72 47q28 35 78 35q14 0 27.5 -2.5t20.5 -4.5l7 -3q-8 7 -22.5 21t-24 23t-10.5 9q-19 12 -49 12q-51 0 -87 -30t-36 -68zM135 322q8 4 79 8.5t159 28t151 75.5q-16 127 -192 363l-23 -62 q-41 45 -78.5 106t-46.5 97q-1 6 -11.5 41t-10.5 45q0 97 71 217q361 -416 361 -715q0 -22 -2 -34q56 91 72 157.5t16 149.5q0 44 -2 96t-6.5 143.5t-7.5 159.5l184 131v-811h141v-518h-184l-17 219q-27 -81 -137.5 -156t-244.5 -112q-24 14 -93 106t-125.5 178t-52.5 87z " />
<glyph unicode="&#xfedf;&#xfe88;" horiz-adv-x="847" arabic-form="isolated" d="M135 322q8 4 79 8.5t159 28t151 75.5q-16 127 -192 363l-23 -62q-41 45 -78.5 106t-46.5 97q-1 6 -11.5 41t-10.5 45q0 97 71 217q361 -416 361 -715q0 -22 -2 -34q56 91 72 157.5t16 149.5q0 44 -2 96t-6.5 143.5t-7.5 159.5l184 131v-821q0 -186 -106 -324t-336 -233 q-24 14 -93 106t-125.5 178t-52.5 87zM508 -172q0 -60 82 -66l-64 -28l-6 -80l213 51l37 96q-44 -12 -94 -12q-63 0 -72 47q32 37 80 37q13 0 26 -2.5t20 -4.5l7 -3q-8 7 -22.5 21t-24 23t-10.5 9q-21 12 -49 12q-50 0 -86.5 -31t-36.5 -69z" />
<glyph unicode="&#xfee0;&#xfe88;" horiz-adv-x="972" arabic-form="final" d="M135 322q8 4 79 8.5t159 28t151 75.5q-16 127 -192 363l-23 -62q-41 45 -78.5 106t-46.5 97q-1 6 -11.5 41t-10.5 45q0 97 71 217q361 -416 361 -715q0 -22 -2 -34q56 91 72 157.5t16 149.5q0 44 -2 96t-6.5 143.5t-7.5 159.5l184 131v-811h141v-518h-184l-17 219 q-27 -81 -137.5 -156t-244.5 -112q-24 14 -93 106t-125.5 178t-52.5 87zM508 -172q0 -60 82 -66l-64 -28l-6 -80l213 51l37 96q-44 -12 -94 -12q-63 0 -72 47q32 37 80 37q13 0 26 -2.5t20 -4.5l7 -3q-8 7 -22.5 21t-24 23t-10.5 9q-21 12 -49 12q-50 0 -86.5 -31t-36.5 -69 z" />
<glyph unicode="&#xfedf;&#xfe8e;" horiz-adv-x="847" arabic-form="isolated" d="M135 322q8 4 79 8.5t159 28t151 75.5q-16 127 -192 363l-23 -62q-41 45 -78.5 106t-46.5 97q-1 6 -11.5 41t-10.5 45q0 97 71 217q361 -416 361 -715q0 -22 -2 -34q56 91 72 157.5t16 149.5q0 44 -2 96t-6.5 143.5t-7.5 159.5l184 131v-821q0 -186 -106 -324t-336 -233 q-24 14 -93 106t-125.5 178t-52.5 87z" />
<glyph unicode="&#xfee0;&#xfe8e;" horiz-adv-x="972" arabic-form="final" d="M135 322q8 4 79 8.5t159 28t151 75.5q-16 127 -192 363l-23 -62q-41 45 -78.5 106t-46.5 97q-1 6 -11.5 41t-10.5 45q0 97 71 217q361 -416 361 -715q0 -22 -2 -34q56 91 72 157.5t16 149.5q0 44 -2 96t-6.5 143.5t-7.5 159.5l184 131v-811h141v-518h-184l-17 219 q-27 -81 -137.5 -156t-244.5 -112q-24 14 -93 106t-125.5 178t-52.5 87z" />
<glyph unicode="&#x671;" horiz-adv-x="407" arabic-form="isolated" d="M20 1395l31 80h37q-5 30 -8 63l51 61q1 -19 3 -42t3 -36.5t2 -23.5q121 133 211 133q50 0 78.5 -41.5t28.5 -115.5v-78h-437zM190 1473h191q0 77 -45 77q-18 0 -39.5 -8t-40 -19t-34 -22t-24.5 -19t-8 -9zM195 1139l36 -1141l177 268v1065z" />
<glyph unicode="&#x671;" horiz-adv-x="471" arabic-form="final" d="M20 1395l31 80h37q-5 30 -8 63l51 61q1 -19 3 -42t3 -36.5t2 -23.5q121 133 211 133q50 0 78.5 -41.5t28.5 -115.5v-78h-437zM168 0v1161l203 174v-817h118v-518h-321zM190 1473h191q0 77 -45 77q-18 0 -39.5 -8t-40 -19t-34 -22t-24.5 -19t-8 -9z" />
<glyph unicode="&#x67e;" horiz-adv-x="1202" arabic-form="final" d="M168 428q0 98 12 175.5t34.5 128.5t38 76t38.5 52q0 -8 -3 -45t-3 -63q0 -42 6.5 -78.5t22.5 -74t49.5 -59.5t82.5 -22h586q-2 29 -31 124.5t-55 152.5l189 143q56 -263 63 -420h21v-518h-795q-81 0 -141 66.5t-87.5 162t-27.5 199.5zM530 -252l117 -106l105 102 l110 -100l129 137l-112 108l-109 -108l-113 104zM639 -436l115 -111l112 123l-112 105z" />
<glyph unicode="&#x67e;" horiz-adv-x="585" arabic-form="initial" d="M-16 0v518h436q-2 29 -31 124.5t-55 152.5l188 143q23 -112 35.5 -191.5t19.5 -146t9 -82.5v-518h-602zM0 -252l117 -106l102 102l113 -100l129 137l-113 108l-110 -108l-111 104zM109 -436l114 -111l113 123l-113 105z" />
<glyph unicode="&#x67e;" horiz-adv-x="610" arabic-form="medial" d="M-16 0v518h436q-2 29 -31 124.5t-55 152.5l188 143q23 -112 35.5 -191.5t19.5 -146t9 -82.5h43v-518h-645zM0 -252l117 -106l102 102l113 -100l129 137l-113 108l-110 -108l-111 104zM109 -436l114 -111l113 123l-113 105z" />
<glyph unicode="&#x6a4;" horiz-adv-x="1216" arabic-form="final" d="M168 428q0 301 125 426q-8 -64 -8 -102q0 -42 6.5 -78.5t22.5 -74t49.5 -59.5t82.5 -22h388q-42 17 -71 46t-41 61.5t-16 55t-4 42.5q0 117 85 203t194 86q96 0 157.5 -119t61.5 -375h17v-518h-793q-81 0 -141 66.5t-87.5 162t-27.5 199.5zM715 1182l112 -109l111 107 l111 -103l127 137l-117 107l-103 -104l-112 102zM840 1386l112 -104l115 117l-115 108zM893 631q0 -44 41 -88.5t125 -73.5q2 12 2 45q0 52 -13 101.5t-42.5 79.5t-67.5 14q-45 -22 -45 -78z" />
<glyph unicode="&#x6a4;" horiz-adv-x="598" arabic-form="initial" d="M-16 0v518h245q-42 17 -70.5 46t-40.5 61.5t-16 55t-4 42.5q0 117 85.5 203t193.5 86q97 0 159 -119t62 -375v-518h-614zM109 1182l112 -109l111 107l110 -103l127 137l-116 107l-103 -104l-112 102zM233 1386l113 -104l115 117l-115 108zM291 631q0 -45 40 -89t124 -73 q4 12 4 45q0 72 -28 136.5t-71 64.5q-11 0 -26 -6q-43 -22 -43 -78z" />
<glyph unicode="&#x6a4;" horiz-adv-x="618" arabic-form="medial" d="M-16 0v518h245q-42 17 -70.5 46t-40.5 61.5t-16 55t-4 42.5q0 117 85.5 203t193.5 86q46 0 84 -26.5t69.5 -82.5t49 -154.5t18.5 -230.5h37v-518h-651zM111 1182l112 -109l109 107l110 -103l129 137l-116 107l-105 -104l-110 102zM236 1386l112 -104l115 117l-115 108z M291 631q0 -45 40 -89t124 -73q4 12 4 45q0 51 -13.5 101.5t-43.5 81.5t-68 12q-43 -22 -43 -78z" />
<glyph unicode="&#x686;" horiz-adv-x="1048" arabic-form="final" d="M168 80q0 165 115.5 330.5t300.5 248.5q-28 0 -77.5 3.5t-70.5 3.5q-52 0 -89 -8.5t-75 -37.5t-67 -81q-1 -1 -5.5 -7t-8 -11t-5.5 -5q-4 0 -4 12q7 168 38.5 261t81.5 125t132 32q50 0 176.5 -13t161.5 -13q66 0 132 12q14 3 19 4t7.5 -3t0.5 -8.5t-8 -21.5 q-52 -137 -73 -334q-70 0 -135 -24q32 -23 63 -27h285v-518h-76q-41 0 -87 57.5t-82.5 132t-89.5 169.5t-99 149q-82 -57 -139.5 -145t-57.5 -164q0 -110 89 -183t267 -73q50 0 109 6q-121 -209 -225 -254q-129 0 -228 30.5t-158 84t-88.5 121.5t-29.5 149zM463 205l74 -68 l63 66l72 -64l80 86l-70 68l-70 -66l-69 66zM530 88l72 -68l72 76l-72 68z" />
<glyph unicode="&#x686;" horiz-adv-x="1064" arabic-form="initial" d="M-16 0v518h673q-70 133 -137.5 214.5t-140.5 92.5q-29 3 -59 -3t-51.5 -17t-39.5 -21.5t-27 -15.5t-9 0q0 35 88.5 152.5t162.5 171.5h2q54 0 99 -19.5t77 -53t59.5 -76.5t50.5 -90.5l46 -95t50.5 -90.5t59.5 -76.5t77 -53t100 -19.5l-98 -518h-983zM250 -252l117 -106 l104 102l111 -100l129 137l-113 108l-109 -108l-112 104zM358 -436l115 -111l113 123l-113 105z" />
<glyph unicode="&#x686;" horiz-adv-x="1042" arabic-form="medial" d="M-16 0v518h665q-141 275 -319 275q-95 0 -156 -45q34 57 136 184t145 127q53 0 100 -30t83 -77.5t69.5 -105.5t65.5 -115.5t65.5 -105t76.5 -77.5t91 -30h16h37v-518h-1075zM299 -252l117 -106l102 102l111 -100l131 137l-113 108l-110 -108l-111 104zM408 -436l114 -111 l113 123l-113 105z" />
<glyph unicode="&#x698;" horiz-adv-x="749" arabic-form="final" d="M33 -227q-2 1 2 4q78 15 159.5 64t145 110t117 126.5t84.5 114.5t39 74q-68 150 -222 336l181 248q61 -89 133 -332h94v-518h-100q-58 -174 -179 -319q-36 -36 -71 -25q-95 28 -227.5 69t-155.5 48zM117 1110l112 -109l109 107l111 -102l129 137l-117 106l-105 -104 l-110 102zM242 1315l112 -105l113 117l-113 109z" />
<glyph unicode="&#x6cc;" horiz-adv-x="585" arabic-form="initial" d="M-16 0v518h436q-2 29 -31 124.5t-55 152.5l188 143q23 -112 35.5 -191.5t19.5 -146t9 -82.5v-518h-602zM111 -266l112 -109l109 109l110 -105l125 133l-114 109l-105 -104l-110 98z" />
<glyph unicode="&#x6cc;" horiz-adv-x="610" arabic-form="medial" d="M-16 0v518h436q-2 29 -31 124.5t-55 152.5l188 143q23 -112 35.5 -191.5t19.5 -146t9 -82.5h43v-518h-645zM82 -254l129 -108l104 100l134 -96l124 137l-133 106l-104 -104l-127 102z" />
<glyph unicode="&#x622;" horiz-adv-x="471" arabic-form="final" d="M74 1376q1 53 33 92t71 41q19 1 49 -7t55.5 -16t50 -11.5t38.5 7.5t14 40h64q-1 -55 -33 -97.5t-72 -42.5q-12 0 -70.5 16t-97.5 14.5t-39 -36.5h-63zM168 0v1161l203 174v-817h118v-518h-321z" />
<glyph unicode="&#x623;" horiz-adv-x="471" arabic-form="final" d="M135 1503q0 -61 80 -67l-61 -27l-7 -82l211 51l39 97q-51 -11 -94 -11q-66 0 -72 47q28 35 78 35q14 0 27 -2.5t20 -5.5l6 -2q-53 53 -57 53q-23 13 -47 13q-51 0 -87 -31t-36 -68zM168 0v1161l203 174v-817h118v-518h-321z" />
<glyph unicode="&#x624;" horiz-adv-x="796" arabic-form="final" d="M168 -279h2q26 4 68.5 25t100 59.5t125.5 107.5t126 155q-16 -2 -84 -2q-74 0 -136 30.5t-101 79.5t-60 107.5t-19 117.5q7 108 59.5 238t128 224t140.5 102l19 2q67 0 121 -64.5t86 -164.5t44 -220h25v-518h-39q-44 -253 -164 -352q-1 0 -1 -1q-1 -1 -3 -1h-6 q-35 0 -141.5 16.5t-198.5 35t-92 23.5zM313 1251q0 -77 105 -86l-78 -35l-10 -102l272 64l49 125q-83 -17 -121 -17q-85 0 -94 62q38 45 103 45q11 0 22 -1.5t19 -3.5l14 -3.5l10 -2.5l4 -2l-71 72q-34 12 -66 12q-64 0 -111 -40t-47 -87zM365.5 618q22.5 -45 87 -73 t139.5 -27h10q-38 127 -103.5 192t-113.5 9q-42 -56 -19.5 -101z" />
<glyph unicode="&#x625;" horiz-adv-x="471" arabic-form="final" d="M168 0v1161l203 174v-817h118v-518h-321zM178 -168q0 -59 80 -68l-61 -26l-7 -80l211 49l39 98q-44 -12 -94 -12q-66 0 -72 47q28 35 78 35q14 0 27.5 -2.5t20.5 -4.5l6 -3l-56 55q-20 10 -49 10q-51 0 -87 -30t-36 -68z" />
<glyph unicode="&#x626;" horiz-adv-x="1185" arabic-form="final" d="M168 104q0 163 68 367l186 234q-84 -204 -84 -355t79.5 -226t205.5 -75q164 0 321 107q-21 38 -94 69t-164 51l86 242h430v-518h-82l-51 -182q-85 -80 -209 -127t-250 -47q-90 0 -167 26t-140 79t-99 144t-36 211zM256 979q0 -74 102 -86l-77 -35l-11 -102l273 63l49 127 q-70 -18 -121 -18q-82 0 -94 61q38 45 104 45q10 0 21 -1t18.5 -3t14 -4t10.5 -3l4 -1l-28 28t-31.5 32t-12.5 12q-34 12 -63 12q-65 0 -111.5 -39.5t-46.5 -87.5z" />
<glyph unicode="&#x626;" horiz-adv-x="585" arabic-form="initial" d="M-16 0v518h436q-2 29 -31 124.5t-55 152.5l188 143q23 -112 35.5 -191.5t19.5 -146t9 -82.5v-518h-602zM274 1212q0 -76 105 -86l-78 -34l-10 -103l272 64l49 127q-74 -19 -120 -19q-83 0 -95 62q38 45 103 45q11 0 22 -1.5t19 -3t14 -3.5t10 -4l4 -1q-10 10 -28.5 29 t-30 31t-12.5 12q-35 12 -64 12q-65 0 -112.5 -39.5t-47.5 -87.5z" />
<glyph unicode="&#x626;" horiz-adv-x="610" arabic-form="medial" d="M-16 0v518h436q-2 29 -31 124.5t-55 152.5l188 143q23 -112 35.5 -191.5t19.5 -146t9 -82.5h43v-518h-645zM274 1212q0 -76 105 -86l-78 -34l-10 -103l272 64l49 127q-74 -19 -120 -19q-83 0 -95 62q38 45 103 45q11 0 22 -1.5t19 -3t14 -3.5t10 -4l4 -1q-10 10 -28.5 29 t-30 31t-12.5 12q-35 12 -64 12q-65 0 -112.5 -39.5t-47.5 -87.5z" />
<glyph unicode="&#x627;" horiz-adv-x="471" arabic-form="final" d="M168 0v1161l203 174v-817h118v-518h-321z" />
<glyph unicode="&#x628;" horiz-adv-x="1202" arabic-form="final" d="M168 428q0 98 12 175.5t34.5 128.5t38 76t38.5 52q0 -8 -3 -45t-3 -63q0 -42 6.5 -78.5t22.5 -74t49.5 -59.5t82.5 -22h586q-2 29 -31 124.5t-55 152.5l189 143q56 -263 63 -420h21v-518h-795q-81 0 -141 66.5t-87.5 162t-27.5 199.5zM641 -248l152 -139l127 139 l-148 139z" />
<glyph unicode="&#x628;" horiz-adv-x="585" arabic-form="initial" d="M-16 0v518h436q-2 29 -31 124.5t-55 152.5l188 143q23 -112 35.5 -191.5t19.5 -146t9 -82.5v-518h-602zM145 -248l152 -139l127 139l-148 139z" />
<glyph unicode="&#x628;" horiz-adv-x="610" arabic-form="medial" d="M-16 0v518h436q-2 29 -31 124.5t-55 152.5l188 143q23 -112 35.5 -191.5t19.5 -146t9 -82.5h43v-518h-645zM213 -248l152 -139l127 139l-148 139z" />
<glyph unicode="&#x629;" horiz-adv-x="843" arabic-form="final" d="M168 96v414q79 79 166.5 136.5t212.5 119.5l-23 123l181 117l55 -488h100v-518h-184l-43 274q-57 -184 -117 -254q-21 4 -105.5 19t-143.5 28t-99 29zM250 1198l129 -111l104 103l133 -98l125 137l-133 108l-104 -104l-127 100zM350 440q39 -21 89.5 -34.5t78.5 -17.5 t100 -13l-34 186q-168 -68 -234 -121z" />
<glyph unicode="&#x62a;" horiz-adv-x="1202" arabic-form="final" d="M168 428q0 98 12 175.5t34.5 128.5t38 76t38.5 52q0 -8 -3 -45t-3 -63q0 -42 6.5 -78.5t22.5 -74t49.5 -59.5t82.5 -22h586q-2 29 -31 124.5t-55 152.5l189 143q56 -263 63 -420h21v-518h-795q-81 0 -141 66.5t-87.5 162t-27.5 199.5zM440 954l113 -110l98 112l111 -104 l131 141l-115 107l-108 -111l-111 101z" />
<glyph unicode="&#x62a;" horiz-adv-x="585" arabic-form="initial" d="M-16 0v518h436q-2 29 -31 124.5t-55 152.5l188 143q23 -112 35.5 -191.5t19.5 -146t9 -82.5v-518h-602zM111 1186l112 -109l109 107l110 -105l125 135l-114 107l-105 -104l-110 100z" />
<glyph unicode="&#x62a;" horiz-adv-x="610" arabic-form="medial" d="M-16 0v518h436q-2 29 -31 124.5t-55 152.5l188 143q23 -112 35.5 -191.5t19.5 -146t9 -82.5h43v-518h-645zM82 1198l129 -111l104 103l134 -98l124 137l-133 108l-104 -104l-127 100z" />
<glyph unicode="&#x62b;" horiz-adv-x="1202" arabic-form="final" d="M168 428q0 98 12 175.5t34.5 128.5t38 76t38.5 52q0 -8 -3 -45t-3 -63q0 -42 6.5 -78.5t22.5 -74t49.5 -59.5t82.5 -22h586q-2 29 -31 124.5t-55 152.5l189 143q56 -263 63 -420h21v-518h-795q-81 0 -141 66.5t-87.5 162t-27.5 199.5zM434 940l113 -109l110 107l111 -102 l127 137l-117 106l-102 -104l-111 102zM559 1145l113 -105l114 117l-114 109z" />
<glyph unicode="&#x62b;" horiz-adv-x="585" arabic-form="initial" d="M-16 0v518h436q-2 29 -31 124.5t-55 152.5l188 143q23 -112 35.5 -191.5t19.5 -146t9 -82.5v-518h-602zM66 1182l112 -109l109 107l110 -103l129 137l-116 107l-105 -104l-110 102zM190 1386l113 -104l113 117l-113 108z" />
<glyph unicode="&#x62b;" horiz-adv-x="610" arabic-form="medial" d="M-16 0v518h436q-2 29 -31 124.5t-55 152.5l188 143q23 -112 35.5 -191.5t19.5 -146t9 -82.5h43v-518h-645zM66 1182l112 -109l109 107l110 -103l129 137l-116 107l-105 -104l-110 102zM190 1386l113 -104l113 117l-113 108z" />
<glyph unicode="&#x62c;" horiz-adv-x="1048" arabic-form="final" d="M168 80q0 165 115.5 330.5t300.5 248.5q-28 0 -77.5 3.5t-70.5 3.5q-52 0 -89 -8.5t-75 -37.5t-67 -81q-1 -1 -5.5 -7t-8 -11t-5.5 -5q-4 0 -4 12q7 168 38.5 261t81.5 125t132 32q50 0 176.5 -13t161.5 -13q66 0 132 12q14 3 19 4t7.5 -3t0.5 -8.5t-8 -21.5 q-52 -137 -73 -334q-70 0 -135 -24q32 -23 63 -27h285v-518h-76q-41 0 -87 57.5t-82.5 132t-89.5 169.5t-99 149q-82 -57 -139.5 -145t-57.5 -164q0 -110 89 -183t267 -73q50 0 109 6q-121 -209 -225 -254q-129 0 -228 30.5t-158 84t-88.5 121.5t-29.5 149zM530 197l99 -99 l94 92l-102 101z" />
<glyph unicode="&#x62c;" horiz-adv-x="1064" arabic-form="initial" d="M-16 0v518h673q-70 133 -137.5 214.5t-140.5 92.5q-29 3 -59 -3t-51.5 -17t-39.5 -21.5t-27 -15.5t-9 0q0 35 88.5 152.5t162.5 171.5h2q54 0 99 -19.5t77 -53t59.5 -76.5t50.5 -90.5l46 -95t50.5 -90.5t59.5 -76.5t77 -53t100 -19.5l-98 -518h-983zM338 -248l151 -139 l127 139l-147 139z" />
<glyph unicode="&#x62c;" horiz-adv-x="1042" arabic-form="medial" d="M-16 0v518h665q-141 275 -319 275q-95 0 -156 -45q34 57 136 184t145 127q53 0 100 -30t83 -77.5t69.5 -105.5t65.5 -115.5t65.5 -105t76.5 -77.5t91 -30h53v-518h-1075zM406 -231l151 -138l129 138l-149 139z" />
<glyph unicode="&#x62d;" horiz-adv-x="1048" arabic-form="final" d="M168 80q0 165 115.5 330.5t300.5 248.5q-28 0 -77.5 3.5t-70.5 3.5q-52 0 -89 -8.5t-75 -37.5t-67 -81q-1 -1 -5.5 -7t-8 -11t-5.5 -5q-4 0 -4 12q7 168 38.5 261t81.5 125t132 32q50 0 176.5 -13t161.5 -13q66 0 132 12q14 3 19 4t7.5 -3t0.5 -8.5t-8 -21.5 q-52 -137 -73 -334q-70 0 -135 -24q32 -23 63 -27h285v-518h-76q-41 0 -87 57.5t-82.5 132t-89.5 169.5t-99 149q-82 -57 -139.5 -145t-57.5 -164q0 -110 89 -183t267 -73q50 0 109 6q-121 -209 -225 -254q-129 0 -228 30.5t-158 84t-88.5 121.5t-29.5 149z" />
<glyph unicode="&#x62d;" horiz-adv-x="1064" arabic-form="initial" d="M-16 0v518h673q-57 108 -125 159t-153 64h-21q-37 0 -74.5 -14.5t-61.5 -29.5t-27 -15q-2 0 -2 2q0 35 88.5 152.5t162.5 171.5h2q69 0 123 -27t89 -70t66 -95.5t61.5 -105t66 -95.5t90 -70t123.5 -27l-98 -518h-983z" />
<glyph unicode="&#x62d;" horiz-adv-x="1042" arabic-form="medial" d="M-16 0v518h665q-80 155 -151 231t-152 76q-98 0 -156 -45q16 25 43.5 63t76 101.5t93.5 106.5t68 43q53 0 99.5 -32t80.5 -82.5t66 -112t62.5 -123t62.5 -112t74 -82.5t90 -32h53v-518h-1075z" />
<glyph unicode="&#x62e;" horiz-adv-x="1048" arabic-form="final" d="M168 80q0 165 115.5 330.5t300.5 248.5q-28 0 -77.5 3.5t-70.5 3.5q-52 0 -89 -8.5t-75 -37.5t-67 -81q-1 -1 -5.5 -7t-8 -11t-5.5 -5q-4 0 -4 12q7 168 38.5 261t81.5 125t132 32q50 0 176.5 -13t161.5 -13q66 0 132 12q14 3 19 4t7.5 -3t0.5 -8.5t-8 -21.5 q-52 -137 -73 -334q-70 0 -135 -24q32 -23 63 -27h285v-518h-76q-41 0 -87 57.5t-82.5 132t-89.5 169.5t-99 149q-82 -57 -139.5 -145t-57.5 -164q0 -110 89 -183t267 -73q50 0 109 6q-121 -209 -225 -254q-129 0 -228 30.5t-158 84t-88.5 121.5t-29.5 149zM467 1137 l117 -105l129 139l-115 105z" />
<glyph unicode="&#x62e;" horiz-adv-x="1064" arabic-form="initial" d="M-16 0v518h673q-75 143 -147.5 225t-151.5 82q-37 0 -74.5 -14.5t-61 -29.5t-27.5 -15q-2 0 -2 2q0 35 88.5 152.5t162.5 171.5h2q54 0 99 -19.5t77 -53t59.5 -76.5t50.5 -90.5l46 -95t50.5 -90.5t59.5 -76.5t77 -53t100 -19.5l-98 -518h-983zM338 1329l151 -137l127 137 l-147 139z" />
<glyph unicode="&#x62e;" horiz-adv-x="1042" arabic-form="medial" d="M-16 0v518h665q-141 275 -319 275q-95 0 -156 -45q34 57 136 184t145 127q53 0 100 -30t83 -77.5t69.5 -105.5t65.5 -115.5t65.5 -105t76.5 -77.5t91 -30h53v-518h-1075zM406 1266l151 -138l129 138l-149 139z" />
<glyph unicode="&#x62f;" horiz-adv-x="843" arabic-form="final" d="M168 584q1 -1 5.5 -6.5t6.5 -7.5l8 -8t10 -9t11.5 -8.5t14 -8.5t15.5 -7t18 -6t20.5 -3.5t23.5 -1.5h301q-42 79 -97.5 163t-88.5 120l176 203q40 -59 97.5 -195.5t74.5 -214.5q7 -36 10 -76h86v-518h-637z" />
<glyph unicode="&#x630;" horiz-adv-x="813" arabic-form="final" d="M168 584q1 -1 5.5 -6.5t6.5 -7.5l8 -8t10 -9t11.5 -8.5t14 -8.5t15.5 -7t18 -6t20.5 -3.5t23.5 -1.5h301q-42 79 -97.5 163t-88.5 120l176 203q40 -59 97.5 -195.5t74.5 -214.5q7 -36 10 -76h66v-518h-617zM350 1184l113 -107l131 137l-113 109z" />
<glyph unicode="&#x631;" horiz-adv-x="749" arabic-form="final" d="M33 -227q-2 1 2 4q78 15 159.5 64t145 110t117 126.5t84.5 114.5t39 74q-68 150 -222 336l181 248q61 -89 133 -332h94v-518h-100q-58 -174 -179 -319q-36 -36 -71 -25q-95 28 -227.5 69t-155.5 48z" />
<glyph unicode="&#x632;" horiz-adv-x="749" arabic-form="final" d="M33 -227q-2 1 2 4q78 15 159.5 64t145 110t117 126.5t84.5 114.5t39 74q-68 150 -222 336l181 248q61 -89 133 -332h94v-518h-100q-58 -174 -179 -319q-36 -36 -71 -25q-95 28 -227.5 69t-155.5 48zM295 1141l151 -137l127 137l-147 139z" />
<glyph unicode="&#x633;" horiz-adv-x="1880" arabic-form="final" d="M0 98q0 159 70 375l190 227q-31 -55 -59.5 -158.5t-28.5 -201.5q0 -61 13.5 -112t44 -94.5t86 -68.5t133.5 -26h10q36 0 95.5 13t132 37.5t143.5 71t112 103.5q-76 165 -164 283l-8 14l162 246q88 -150 115 -289h251l-14 180l170 125q-1 -26 -3 -138t-7 -167h215 q-2 29 -31 124.5t-55 152.5l188 143q24 -112 36.5 -190.5t20 -148t9.5 -81.5h71v-518h-860q-20 -88 -24 -106q-119 -129 -276.5 -192.5t-303.5 -63.5q-92 0 -169.5 28t-137 82.5t-93.5 144t-34 205.5z" />
<glyph unicode="&#x633;" horiz-adv-x="1155" arabic-form="initial" d="M-16 0v518h309q8 46 20 156l170 84q-2 -71 -30 -240h174l-15 180l170 125q-1 -26 -3 -138t-7 -167h215q-2 29 -31 124.5t-55 152.5l189 143q18 -87 30.5 -160.5t17 -109.5t9 -85t6.5 -65l2 -518h-1171z" />
<glyph unicode="&#x633;" horiz-adv-x="1208" arabic-form="medial" d="M-16 0v518h309q8 46 20 156l170 84q-2 -71 -30 -240h174l-15 180l170 125q-1 -26 -3 -138t-7 -167h215q-2 29 -31 124.5t-55 152.5l189 143q18 -87 30.5 -160.5t17 -109.5t9 -85t6.5 -65h72v-518h-1241z" />
<glyph unicode="&#x634;" horiz-adv-x="1880" arabic-form="final" d="M0 98q0 159 70 375l190 227q-31 -55 -59.5 -158.5t-28.5 -201.5q0 -61 13.5 -112t44 -94.5t86 -68.5t133.5 -26h10q36 0 95.5 13t132 37.5t143.5 71t112 103.5q-76 165 -164 283l-8 14l162 246q88 -150 115 -289h251l-14 180l170 125q-1 -26 -3 -138t-7 -167h215 q-2 29 -31 124.5t-55 152.5l188 143q24 -112 36.5 -190.5t20 -148t9.5 -81.5h71v-518h-860q-20 -88 -24 -106q-119 -129 -276.5 -192.5t-303.5 -63.5q-92 0 -169.5 28t-137 82.5t-93.5 144t-34 205.5zM1096 1012l112 -111l109 109l110 -105l127 137l-114 109l-105 -104 l-110 100zM1219 1217l112 -107l115 117l-115 110z" />
<glyph unicode="&#x634;" horiz-adv-x="1155" arabic-form="initial" d="M-16 0v518h309q8 46 20 156l170 84q-2 -71 -30 -240h174l-15 180l170 125q-1 -26 -3 -138t-7 -167h215q-2 29 -31 124.5t-55 152.5l189 143q18 -87 30.5 -160.5t17 -109.5t9 -85t6.5 -65l2 -518h-1171zM424 1012l113 -111l108 109l111 -105l127 137l-115 109l-104 -104 l-111 100zM547 1217l112 -107l115 117l-115 110z" />
<glyph unicode="&#x634;" horiz-adv-x="1208" arabic-form="medial" d="M-14 0v518h307q10 51 22 156l170 84q-5 -91 -30 -240h174l-15 180l170 125q-1 -26 -3 -138t-7 -167h215q-2 29 -31 124.5t-55 152.5l189 143q23 -112 35 -192t19 -145t9 -83h72v-518h-1241zM471 1026l115 -106l100 104l113 -100l125 135l-111 108l-102 -108l-115 104z M590 1231l117 -105l129 138l-115 106z" />
<glyph unicode="&#x635;" horiz-adv-x="1859" arabic-form="final" d="M0 98q0 159 70 375l190 227q-31 -55 -59.5 -158.5t-28.5 -201.5q0 -61 13.5 -112t44 -94.5t86 -68.5t133.5 -26h10q36 0 95.5 13t132 37.5t143.5 71t112 103.5q-51 110 -213 328l-10 12l180 246q88 -149 129 -301q141 170 297 270.5t266 100.5q125 0 197 -105.5 t72 -296.5h16v-518h-838q-20 -88 -24 -106q-119 -129 -276.5 -192.5t-303.5 -63.5q-92 0 -169.5 28t-137 82.5t-93.5 144t-34 205.5zM1186 518h489q0 35 -5.5 68t-17.5 65.5t-36 52t-57 19.5q-45 0 -100.5 -21t-102.5 -51t-87 -60t-62.5 -51t-20.5 -22z" />
<glyph unicode="&#x635;" horiz-adv-x="1175" arabic-form="initial" d="M-16 0v520h264q-4 36 -8.5 68t-7 51.5t-3.5 42.5l127 162q18 -234 23 -258q150 166 286 250t244 84q123 0 195 -105.5t72 -296.5v-518h-1192zM502 518h489q0 35 -5.5 68t-18 65.5t-36.5 52t-57 19.5q-45 0 -100 -21t-102 -51t-86.5 -60t-62.5 -51t-21 -22z" />
<glyph unicode="&#x635;" horiz-adv-x="1175" arabic-form="medial" d="M-16 0v520h264q-4 36 -8.5 68t-7 51.5t-3.5 42.5l127 162q18 -234 23 -258q150 166 286 250t244 84q123 0 195 -105.5t72 -296.5h16v-518h-1208zM502 518h489q0 35 -5.5 68t-18 65.5t-36.5 52t-57 19.5q-45 0 -100 -21t-102 -51t-86.5 -60t-62.5 -51t-21 -22z" />
<glyph unicode="&#x636;" horiz-adv-x="1859" arabic-form="final" d="M0 98q0 159 70 375l190 227q-31 -55 -59.5 -158.5t-28.5 -201.5q0 -61 13.5 -112t44 -94.5t86 -68.5t133.5 -26h10q36 0 95.5 13t132 37.5t143.5 71t112 103.5q-51 110 -213 328l-10 12l180 246q88 -149 129 -301q141 170 297 270.5t266 100.5q125 0 197 -105.5 t72 -296.5h16v-518h-838q-20 -88 -24 -106q-119 -129 -276.5 -192.5t-303.5 -63.5q-92 0 -169.5 28t-137 82.5t-93.5 144t-34 205.5zM1186 518h489q0 35 -5.5 68t-17.5 65.5t-36 52t-57 19.5q-45 0 -100.5 -21t-102.5 -51t-87 -60t-62.5 -51t-20.5 -22zM1192 1094l90 141 l178 -111l-88 -139z" />
<glyph unicode="&#x636;" horiz-adv-x="1175" arabic-form="initial" d="M-16 0v520h264q-4 36 -8.5 68t-7 51.5t-3.5 42.5l127 162q18 -234 23 -258q150 166 286 250t244 84q123 0 195 -105.5t72 -296.5v-518h-1192zM502 518h489q0 35 -5.5 68t-18 65.5t-36.5 52t-57 19.5q-45 0 -100 -21t-102 -51t-86.5 -60t-62.5 -51t-21 -22zM508 1094 l180 -109l90 139l-180 111z" />
<glyph unicode="&#x636;" horiz-adv-x="1175" arabic-form="medial" d="M-16 0v520h264q-4 36 -8.5 68t-7 51.5t-3.5 42.5l127 162q18 -234 23 -258q150 166 286 250t244 84q123 0 195 -105.5t72 -296.5h16v-518h-1208zM502 518h489q0 35 -5.5 68t-18 65.5t-36.5 52t-57 19.5q-45 0 -100 -21t-102 -51t-86.5 -60t-62.5 -51t-21 -22zM522 1120 l121 -116l135 129l-121 116z" />
<glyph unicode="&#x637;" horiz-adv-x="1271" arabic-form="final" d="M168 563q1 -1 10.5 -8t13 -9t14.5 -8t21.5 -8t26.5 -5.5t36.5 -5t45.5 -1.5l156 152l-17 483l193 172v-532q155 137 297 137q119 0 192 -106.5t74 -305.5h55v-518h-911q-40 0 -90 117.5t-83 250.5t-34 195zM555 518h492q0 99 -33 152t-86 53q-37 0 -73 -10t-75.5 -34 t-67.5 -43.5t-78.5 -58.5t-78.5 -59z" />
<glyph unicode="&#x637;" horiz-adv-x="1114" arabic-form="initial" d="M-14 0v518h233l158 152l-19 483l195 172v-532q155 137 295 137q121 0 193.5 -106.5t72.5 -305.5v-518h-1128zM440 518h490q0 100 -32 152.5t-85 52.5q-38 0 -74 -10t-75.5 -34t-67 -43.5t-78 -58t-78.5 -59.5z" />
<glyph unicode="&#x637;" horiz-adv-x="1159" arabic-form="medial" d="M-16 0v518h235l158 152l-19 483l195 172v-532q155 137 295 137q121 0 193.5 -106.5t72.5 -305.5h62v-518h-1192zM440 518h490q0 100 -32 152.5t-85 52.5q-38 0 -74 -10t-75.5 -34t-67 -43.5t-78 -58t-78.5 -59.5z" />
<glyph unicode="&#x638;" horiz-adv-x="1273" arabic-form="final" d="M168 563q1 -1 10.5 -8t13 -9t14.5 -8t21.5 -8t26.5 -5.5t36.5 -5t45.5 -1.5l156 152l-17 483l193 172v-532q155 137 297 137q119 0 192 -106.5t74 -305.5h55v-518h-911q-40 0 -90 117.5t-83 250.5t-34 195zM555 518h492q0 99 -33 152t-86 53q-37 0 -73 -10t-75.5 -34 t-67.5 -43.5t-78.5 -58.5t-78.5 -59zM823 1188l121 -119l133 129l-121 119z" />
<glyph unicode="&#x638;" horiz-adv-x="1114" arabic-form="initial" d="M-14 0v518h233l158 152l-19 483l195 172v-532q155 137 295 137q121 0 193.5 -106.5t72.5 -305.5v-518h-1128zM440 518h490q0 100 -32 152.5t-85 52.5q-38 0 -74 -10t-75.5 -34t-67 -43.5t-78 -58t-78.5 -59.5zM707 1188l120 -119l136 129l-121 119z" />
<glyph unicode="&#x638;" horiz-adv-x="1159" arabic-form="medial" d="M-16 0v518h235l158 152l-19 483l195 172v-532q155 137 295 137q121 0 193.5 -106.5t72.5 -305.5h62v-518h-1192zM440 518h490q0 100 -32 152.5t-85 52.5q-38 0 -74 -10t-75.5 -34t-67 -43.5t-78 -58t-78.5 -59.5zM707 1188l135 129l121 -119l-136 -129z" />
<glyph unicode="&#x639;" horiz-adv-x="1081" arabic-form="final" d="M168 723l115 240q222 79 360 79q114 0 181 -66t67 -173q0 -36 -21 -70t-65.5 -84.5t-67.5 -83.5q0 -1 1 -2q17 -45 61 -45h299v-518h-76q-41 0 -99.5 50.5t-106 112t-117.5 155t-109 139.5q-67 -70 -95 -126.5t-28 -131.5q0 -110 90 -183t268 -73q49 0 107 6 q-121 -209 -225 -254q-129 0 -228 30.5t-158 84t-88.5 121.5t-29.5 149q0 83 29 171.5t98.5 178.5t169.5 143q-117 123 -332 150z" />
<glyph unicode="&#x639;" horiz-adv-x="860" arabic-form="initial" d="M-16 0v518h395q-88 36 -129 84.5t-41 120.5q0 109 84.5 185.5t204.5 76.5q100 0 194 -70q1 -1 20.5 -34.5t50.5 -86.5t44 -75l-13 7q-12 8 -30.5 18t-42.5 20t-56 17t-63 7q-83 0 -149 -61q0 -108 93.5 -158t313.5 -51v-518h-876z" />
<glyph unicode="&#x639;" horiz-adv-x="1089" arabic-form="medial" d="M-33 0v520h627q-2 74 -77 132t-189 71l114 240q218 79 361 79q114 0 180 -66t66 -173q0 -127 -111 -283h168v-520h-467q-84 0 -117.5 8.5t-77.5 50.5l-79 -59h-398z" />
<glyph unicode="&#x63a;" horiz-adv-x="1081" arabic-form="final" d="M168 723l115 240q222 79 360 79q114 0 181 -66t67 -173q0 -36 -21 -70t-65.5 -84.5t-67.5 -83.5q0 -1 1 -2q17 -45 61 -45h299v-518h-76q-41 0 -99.5 50.5t-106 112t-117.5 155t-109 139.5q-67 -70 -95 -126.5t-28 -131.5q0 -110 90 -183t268 -73q49 0 107 6 q-121 -209 -225 -254q-129 0 -228 30.5t-158 84t-88.5 121.5t-29.5 149q0 83 29 171.5t98.5 178.5t169.5 143q-117 123 -332 150zM414 1235l131 139l112 -106l-135 -135z" />
<glyph unicode="&#x63a;" horiz-adv-x="858" arabic-form="initial" d="M-18 0v518h395q-88 36 -129 84.5t-41 120.5q0 109 84.5 185.5t204.5 76.5q100 0 194 -70q1 -1 20.5 -34.5t50.5 -86.5t44 -75l-13 7q-12 8 -30.5 18t-42.5 20t-56 17t-63 7q-83 0 -149 -61q0 -108 93.5 -158t313.5 -51v-518h-876zM393 1186l113 -107l129 133l-117 109z " />
<glyph unicode="&#x63a;" horiz-adv-x="1089" arabic-form="medial" d="M-33 0v520h627q-2 74 -77 132t-189 71l114 240q218 79 361 79q114 0 180 -66t66 -173q0 -127 -111 -283h168v-520h-467q-84 0 -117.5 8.5t-77.5 50.5l-79 -59h-398zM614 1251l115 -102l133 131l-114 109z" />
<glyph unicode="&#x641;" horiz-adv-x="1216" arabic-form="final" d="M168 428q0 301 125 426q-8 -64 -8 -102q0 -42 6.5 -78.5t22.5 -74t49.5 -59.5t82.5 -22h388q-42 17 -71 46t-41 61.5t-16 55t-4 42.5q0 117 85 203t194 86q96 0 157.5 -119t61.5 -375h17v-518h-793q-81 0 -141 66.5t-87.5 162t-27.5 199.5zM838 1208l118 129l138 -129 l-119 -125zM893 631q0 -44 41 -88.5t125 -73.5q2 12 2 45q0 52 -13 101.5t-42.5 79.5t-67.5 14q-45 -22 -45 -78z" />
<glyph unicode="&#x641;" horiz-adv-x="598" arabic-form="initial" d="M-16 0v518h245q-42 17 -70.5 46t-40.5 61.5t-16 55t-4 42.5q0 117 85.5 203t193.5 86q97 0 159 -119t62 -375v-518h-614zM236 1208l137 -125l116 125l-135 129zM291 631q0 -45 40 -89t124 -73q4 12 4 45q0 51 -13.5 101.5t-43.5 81.5t-68 12q-43 -22 -43 -78z" />
<glyph unicode="&#x641;" horiz-adv-x="618" arabic-form="medial" d="M-16 0v518h245q-42 17 -70.5 46t-40.5 61.5t-16 55t-4 42.5q0 117 85.5 203t193.5 86q46 0 84 -26.5t69.5 -82.5t49 -154.5t18.5 -230.5h37v-518h-651zM170 1184l115 -105l129 135l-115 105zM291 631q0 -45 40 -89t124 -73q4 12 4 45q0 51 -13.5 101.5t-43.5 81.5t-68 12 q-43 -22 -43 -78z" />
<glyph unicode="&#x642;" horiz-adv-x="1243" arabic-form="final" d="M168 98q0 159 70 375l190 227q-31 -55 -59.5 -158.5t-28.5 -201.5q0 -62 13.5 -112t45 -94t89.5 -69t139 -26q35 0 59.5 2t69 9t92 27t94.5 52q-80 0 -141.5 28t-98 76.5t-55 108t-18.5 127.5q6 110 58.5 238.5t132 222.5t153.5 102q65 0 115 -42t80 -116.5t47.5 -162 t23.5 -193.5h18v-518h-47q-12 -74 -28 -106q-119 -129 -276.5 -192.5t-303.5 -63.5q-92 0 -169.5 28t-137 82.5t-93.5 144t-34 205.5zM705 1231l124 135l127 -100l105 104l133 -106l-125 -140l-131 99l-104 -101zM799 713q6 -64 83 -128.5t165 -64.5h10q-28 112 -92.5 200.5 t-110.5 88.5q-51 -13 -55 -96z" />
<glyph unicode="&#x642;" horiz-adv-x="669" arabic-form="initial" d="M-16 0v518h319q-42 17 -71 46t-40.5 61.5t-15.5 54.5t-4 43q0 117 85 203t194 86q96 0 157.5 -119t61.5 -375v-518h-686zM174 1180l113 -111l110 109l111 -105l127 137l-117 109l-102 -109l-113 101zM362 631q0 -45 40 -89t124 -73q4 12 4 45q0 51 -13 101.5t-43 81.5 t-68 12q-44 -23 -44 -78z" />
<glyph unicode="&#x642;" horiz-adv-x="618" arabic-form="medial" d="M-16 0v518h245q-42 17 -70.5 46t-40.5 61.5t-16 55t-4 42.5q0 117 85.5 203t193.5 86q46 0 84 -26.5t69.5 -82.5t49 -154.5t18.5 -230.5h37v-518h-651zM82 1198l129 -111l104 103l134 -98l124 137l-133 108l-104 -104l-127 100zM291 631q0 -45 40 -89t124 -73q4 12 4 45 q0 51 -13.5 101.5t-43.5 81.5t-68 12q-43 -22 -43 -78z" />
<glyph unicode="&#x643;" horiz-adv-x="1202" arabic-form="final" d="M168 428q0 98 12 175.5t34.5 128.5t38 76t38.5 52l-6 -108q0 -42 6.5 -78.5t22.5 -74t49.5 -59.5t82.5 -22h539v625l217 186v-811h17v-518h-795q-81 0 -141 66.5t-87.5 162t-27.5 199.5zM479 705h47q30 0 60 3.5t69 16t68 33t49.5 57.5t20.5 86q0 19 -36 24.5t-72 6.5 t-36 10q0 13 39 34.5t76 20.5v142q-70 -7 -148 -89q-75 -79 -86 -148q-11 -76 72 -84q23 -2 53 1q-51 -19 -128 -65q-68 -41 -48 -49z" />
<glyph unicode="&#x643;" horiz-adv-x="698" arabic-form="initial" d="M-16 0v518h458q-84 97 -383 174v264q125 104 291.5 193t347.5 143l-96 -272q-89 -19 -170.5 -46.5t-134.5 -50t-145 -65.5q62 -19 101.5 -33t100 -43.5t107 -62.5t102 -87.5t105.5 -123.5v-508h-684z" />
<glyph unicode="&#x643;" horiz-adv-x="698" arabic-form="medial" d="M-16 0v518h491q-79 95 -383 174v264q126 104 292.5 193.5t348.5 142.5l-98 -272q-128 -28 -221.5 -63.5t-229.5 -98.5q62 -19 100.5 -33t98.5 -42.5t105.5 -61t100.5 -85t105 -118.5h17v-518h-727z" />
<glyph unicode="&#x644;" horiz-adv-x="1232" arabic-form="final" d="M168 98q0 159 70 375l190 227q-31 -55 -59.5 -158.5t-28.5 -201.5q0 -62 13.5 -112.5t43.5 -94t85.5 -68.5t133.5 -26q80 0 212 41.5t221 118.5l-29 940l213 192v-813h16v-518h-43q-20 -88 -24 -106q-119 -129 -276.5 -192.5t-303.5 -63.5q-92 0 -169.5 28t-137 82.5 t-93.5 144t-34 205.5z" />
<glyph unicode="&#x644;" horiz-adv-x="518" arabic-form="initial" d="M-16 0v518h325v627l209 186v-1331h-534z" />
<glyph unicode="&#x644;" horiz-adv-x="520" arabic-form="medial" d="M-14 0v518h327v627l207 186v-813h17v-518h-551z" />
<glyph unicode="&#x645;" horiz-adv-x="1236" arabic-form="final" d="M168 408q0 156 72 231.5t184 75.5q30 0 59.5 -8t75 -25.5t66.5 -24.5q96 119 154 170.5t122 51.5q49 0 94 -31t80.5 -84.5t63 -114t49.5 -131.5h67v-518h-65q-47 0 -99 18t-65 41l-98 -118q-249 217 -342 287.5t-135 70.5q-86 0 -86 -111q0 -3 4 -39q4 -35 7 -65 t11.5 -111t18.5 -180l-154 -213zM748 571l282 -227q0 42 -26 112.5t-69 129.5t-83 59q-47 0 -104 -74z" />
<glyph unicode="&#x645;" horiz-adv-x="1052" arabic-form="initial" d="M-16 0v518h325q51 47 113 119.5t101 120.5t90.5 84.5t101.5 36.5q58 0 111 -43.5t89 -107.5t66 -146.5t46.5 -151t25.5 -129.5l-312 -360l-295 223q-21 -33 -38.5 -57t-43.5 -51t-56.5 -41.5t-63.5 -14.5h-260zM563 571l281 -227q0 42 -25.5 112.5t-68 129.5t-82.5 59 q-51 0 -105 -74z" />
<glyph unicode="&#x645;" horiz-adv-x="1040" arabic-form="medial" d="M-16 0v518h321q35 31 74 82.5t70.5 95.5t67.5 85.5t79 66t92 24.5q34 0 63 -14.5t51.5 -45.5t38 -59t30.5 -78t22.5 -77.5t19.5 -79.5h146v-518h-82q-47 0 -98 18t-64 41l-115 -127l-303 230q-12 -31 -22.5 -52t-31 -50t-49.5 -44.5t-65 -15.5h-245zM520 563 q47 -36 143 -117t115 -96q-5 42 -25.5 109t-57.5 128.5t-74 61.5q-16 0 -28 -4t-23.5 -15t-16.5 -17t-17.5 -25.5t-15.5 -24.5z" />
<glyph unicode="&#x646;" horiz-adv-x="1232" arabic-form="final" d="M168 98q0 159 70 375l190 227q-31 -55 -59.5 -158.5t-28.5 -201.5q0 -62 13.5 -112.5t43.5 -94t85.5 -68.5t133.5 -26q40 0 102 13t135.5 37.5t144.5 70.5t112 104q-50 109 -223 340l180 246q95 -160 137 -332h45v-518h-43q-20 -88 -24 -106q-119 -129 -276.5 -192.5 t-303.5 -63.5q-92 0 -169.5 28t-137 82.5t-93.5 144t-34 205.5zM524 963l131 139l148 -139l-127 -138z" />
<glyph unicode="&#x646;" horiz-adv-x="585" arabic-form="initial" d="M-16 0v518h436q-2 29 -31 124.5t-55 152.5l188 143q23 -112 35.5 -191.5t19.5 -146t9 -82.5v-518h-602zM287 1192l119 -105l124 138l-110 104z" />
<glyph unicode="&#x646;" horiz-adv-x="610" arabic-form="medial" d="M-16 0v518h436q-2 29 -31 124.5t-55 152.5l188 143q23 -112 35.5 -191.5t19.5 -146t9 -82.5h43v-518h-645zM213 1202l152 -137l127 137l-148 139z" />
<glyph unicode="&#x647;" horiz-adv-x="843" arabic-form="final" d="M168 96v414q79 79 166.5 136.5t212.5 119.5l-23 123l181 117l55 -488h100v-518h-184l-43 274q-57 -184 -117 -254q-21 4 -105.5 19t-143.5 28t-99 29zM350 440q39 -21 89.5 -34.5t78.5 -17.5t100 -13l-34 186q-168 -68 -234 -121z" />
<glyph unicode="&#x647;" horiz-adv-x="1054" arabic-form="initial" d="M-14 0v518h354q-18 29 -18 72q0 50 18.5 100.5t67.5 98t120 63.5l-106 59q13 15 32 37t30 34.5t26.5 30t24.5 27.5t21 22t20 18.5t16.5 12.5t15.5 8.5t13 2.5q53 0 129 -68.5t143 -167.5t114.5 -221t47.5 -219q0 -49 -17 -98l-147 -387l-340 151q-1 -1 -11.5 -10.5 t-14 -12t-14.5 -11.5t-17 -13t-18 -11.5t-22.5 -11.5t-24 -9t-28.5 -8.5t-32 -6.5h-383zM453 606q0 -50 39 -86q56 12 103 38t73 52q-10 72 -32.5 97.5t-62.5 25.5q-45 0 -82.5 -38.5t-37.5 -88.5zM727 449l207 -84q-11 107 -156 262q-1 -39 -16.5 -92t-34.5 -86z" />
<glyph unicode="&#x647;" horiz-adv-x="1048" arabic-form="medial" d="M-14 0v518h354q-18 29 -18 72q0 50 18.5 100.5t67.5 98t120 63.5l-106 59q13 15 32 37t30 34.5t26.5 30t24.5 27.5t21 22t20 18.5t16.5 12.5t15.5 8.5t13 2.5q64 0 154.5 -91t167 -229.5t101.5 -265.5h37v-518h-90l-22 150l-78 -207l-340 151q-1 -1 -11.5 -10.5t-14 -12 t-14.5 -11.5t-17 -13t-18 -11.5t-22.5 -11.5t-24 -9t-28.5 -8.5t-32 -6.5h-383zM453 606q0 -50 39 -86q56 12 103 38t73 52q-10 72 -32.5 97.5t-62.5 25.5q-45 0 -82.5 -38.5t-37.5 -88.5zM727 449l207 -84q-11 107 -156 262q-1 -39 -16.5 -92t-34.5 -86z" />
<glyph unicode="&#x648;" horiz-adv-x="796" arabic-form="final" d="M168 -279h2q26 4 68.5 25t100 59.5t125.5 107.5t126 155q-16 -2 -84 -2q-74 0 -136 30.5t-101 79.5t-60 107.5t-19 117.5q7 108 59.5 238t128 224t140.5 102l19 2q67 0 121 -64.5t86 -164.5t44 -220h25v-518h-39q-44 -253 -164 -352q-1 0 -1 -1q-1 -1 -3 -1h-6 q-35 0 -141.5 16.5t-198.5 35t-92 23.5zM365.5 618q22.5 -45 87 -73t139.5 -27h10q-38 127 -103.5 192t-113.5 9q-42 -56 -19.5 -101z" />
<glyph unicode="&#x649;" horiz-adv-x="1185" arabic-form="final" d="M168 104q0 163 68 367l186 234q-84 -204 -84 -355t79.5 -226t205.5 -75q164 0 321 107q-21 38 -94 69t-164 51l86 242h430v-518h-82l-51 -182q-85 -80 -209 -127t-250 -47q-90 0 -167 26t-140 79t-99 144t-36 211z" />
<glyph unicode="&#x64a;" horiz-adv-x="1185" arabic-form="final" d="M168 104q0 163 68 367l186 234q-84 -204 -84 -355t79.5 -226t205.5 -75q164 0 321 107q-21 38 -94 69t-164 51l86 242h430v-518h-82l-51 -182q-85 -80 -209 -127t-250 -47q-90 0 -167 26t-140 79t-99 144t-36 211zM420 -584l112 -108l109 108l111 -104l125 133l-117 109 l-103 -105l-110 98z" />
<glyph unicode="&#x64a;" horiz-adv-x="585" arabic-form="initial" d="M-16 0v518h436q-2 29 -31 124.5t-55 152.5l188 143q23 -112 35.5 -191.5t19.5 -146t9 -82.5v-518h-602zM111 -266l112 -109l109 109l110 -105l125 133l-114 109l-105 -104l-110 98z" />
<glyph unicode="&#x64a;" horiz-adv-x="610" arabic-form="medial" d="M-16 0v518h436q-2 29 -31 124.5t-55 152.5l188 143q23 -112 35.5 -191.5t19.5 -146t9 -82.5h43v-518h-645zM82 -254l129 -108l104 100l134 -96l124 137l-133 106l-104 -104l-127 102z" />
<glyph unicode=" "  horiz-adv-x="491" />
<glyph unicode="&#x09;" horiz-adv-x="491" />
<glyph unicode="&#xa0;" horiz-adv-x="491" />
<glyph unicode="!" horiz-adv-x="528" d="M113 1012q42 -78 70.5 -141t55 -145.5t38 -162.5t11.5 -181.5t-16 -213.5l21 -23q41 56 74.5 132.5t56.5 193.5t20.5 243.5t-46.5 289t-132 325.5zM131 -16l154 -146l139 146l-168 143z" />
<glyph unicode="&#x22;" horiz-adv-x="460" d="M63 1239q9 37 42.5 49.5t64.5 -2t37 -47.5q4 -27 -12 -99.5t-34 -131.5l-18 -58h-18q-8 27 -20 68.5t-29.5 120.5t-12.5 100zM260 1239q9 37 42 49.5t64 -2t37 -47.5q4 -27 -11.5 -99.5t-33.5 -131.5l-18 -58h-18q-8 27 -20 68.5t-29.5 120.5t-12.5 100z" />
<glyph unicode="$" horiz-adv-x="897" d="M86 848q-2 119 98.5 199t268.5 86l16 149h102l-16 -149q38 -2 74 -9.5t75.5 -19t51.5 -14.5l-45 -103q-1 -1 -40.5 6t-93.5 10.5t-107 -2.5t-86.5 -41t-27.5 -98q5 -61 133 -92q167 -41 245.5 -107.5t78.5 -195.5q0 -65 -29 -118.5t-81 -90.5t-115.5 -62t-141.5 -40 l-16 -156h-100l12 154q-152 11 -244 73l31 105q57 -26 127.5 -36t136 -3t110 44.5t44.5 100.5q0 33 -32.5 57.5t-115.5 53.5q-151 52 -231.5 121.5t-81.5 177.5z" />
<glyph unicode="'" horiz-adv-x="313" d="M63 1239q9 37 42.5 49.5t64.5 -2t37 -47.5q4 -27 -12 -99.5t-34 -131.5l-18 -58h-18q-8 27 -20 68.5t-29.5 120.5t-12.5 100z" />
<glyph unicode="(" horiz-adv-x="524" d="M70 545q0 -189 56.5 -362.5t149.5 -291.5q131 -41 177 -57q-94 145 -158 330.5t-64 390.5q0 332 191 678l-182 -84q-170 -274 -170 -604z" />
<glyph unicode=")" horiz-adv-x="524" d="M70 -166q95 143 159 329t64 392q0 332 -191 678l183 -84q168 -271 168 -604q0 -189 -56.5 -362.5t-148.5 -291.5q-130 -41 -178 -57z" />
<glyph unicode="*" horiz-adv-x="940" d="M66 264q0 -37 31.5 -56.5t70.5 -19.5q16 0 34.5 3.5t32.5 7t37 11.5t32.5 12t34.5 15t30 13v16q-7 3 -56.5 27.5t-82 35.5t-62.5 11q-42 0 -72 -18.5t-30 -57.5zM164 16q0 -32 21 -46.5t53 -14.5q22 0 43 12.5t35.5 29t30 44.5t23.5 46.5t20 49.5t16 39l-11 12 q-13 -5 -43.5 -16t-51.5 -18.5t-49 -22t-45 -29.5t-29.5 -37.5t-12.5 -48.5zM170 512q0 -28 11.5 -51t27.5 -39t42 -31t46.5 -23.5t50.5 -20.5t45 -19l13 12q-7 15 -20.5 53.5t-25 64t-30 55t-44 45t-57.5 15.5q-22 0 -40.5 -19t-18.5 -42zM395 -51q0 -42 18 -72.5t58 -30.5 q36 0 55 32t19 71q0 19 -3.5 39t-12 45t-13.5 38.5t-18 44.5t-15 36h-14q-5 -11 -22 -46t-26 -54.5t-17.5 -49.5t-8.5 -53zM401 260q0 -31 22 -53.5t54 -22.5q31 0 53.5 22.5t22.5 53.5t-22.5 53.5t-53.5 22.5q-32 0 -54 -22.5t-22 -53.5zM406 567q0 -16 3.5 -35t6.5 -32 t12 -37t11.5 -31t14.5 -35.5t13 -29.5h14l22 44t26 54.5t17 48.5t9 53q0 43 -17.5 73t-56.5 30q-38 0 -56.5 -31.5t-18.5 -71.5zM545 176q7 -15 20.5 -53.5t25 -64t29.5 -55t43.5 -45t57.5 -15.5q23 0 41 19t18 42q0 28 -11.5 51t-27.5 39t-42 31t-46.5 23.5t-50.5 20.5 t-45 19zM545 336l12 -12q13 5 43.5 16t51.5 18.5t49 22t45 29.5t29.5 37.5t12.5 48.5q0 61 -75 61q-26 0 -49 -15t-42 -45t-30.5 -52.5t-27 -61t-19.5 -47.5zM584 250q8 -4 56.5 -28t81 -35t62.5 -11q43 0 73 17.5t30 58.5q0 37 -32 56.5t-71 19.5q-16 0 -34.5 -3t-33 -7 t-36 -12t-32.5 -12.5t-34.5 -14.5t-29.5 -13v-16z" />
<glyph unicode="+" horiz-adv-x="804" d="M84 385h248v-250h127v250h262v125h-262v262h-127v-262h-248v-125z" />
<glyph unicode="-" horiz-adv-x="839" d="M84 385h637v125h-637v-125z" />
<glyph unicode="." horiz-adv-x="415" d="M84 115l158 -111l125 172l-160 113z" />
<glyph unicode="/" horiz-adv-x="843" d="M117 -201h157l453 1579h-156z" />
<glyph unicode="0" horiz-adv-x="808" d="M154 479l335 -213l185 295l-338 207z" />
<glyph unicode="1" horiz-adv-x="634" d="M117 922q140 -232 196.5 -454t61.5 -491q50 70 157 275q2 192 -64 481t-175 537z" />
<glyph unicode="2" horiz-adv-x="759" d="M88 862q98 -209 176.5 -442t104.5 -428l176 278q-19 98 -53 204.5t-60.5 172.5t-70.5 167.5t-58 135.5q26 12 108 4.5t142 -30.5l119 323q-34 19 -98 35t-161 15.5t-175 -33.5q-91 -221 -150 -402z" />
<glyph unicode="3" horiz-adv-x="839" d="M84 1004q74 -82 138.5 -277t96.5 -397t27 -336l168 254q-3 122 -19.5 234.5t-58.5 305.5q10 6 25 25q51 -27 92 -27t72.5 23.5t55 61t39.5 85.5t25.5 98t14 96.5t4.5 83t-4 56.5q-3 20 -18 5q-6 -7 -7 -13q-29 -182 -198 -143q10 26 9.5 75t-9.5 78q-2 8 -7 11t-9.5 -0.5 t-4.5 -12.5q-3 -81 -30.5 -122t-74 -40t-108.5 31l-65 152z" />
<glyph unicode="4" horiz-adv-x="839" d="M84 86q-5 -30 11.5 -55t59 -42t105 -22.5t158.5 6.5t211 43l131 330q-98 -28 -179.5 -41.5t-143 -8t-79.5 33.5q-11 18 22.5 70t80.5 106.5t85 115t34 91.5q-4 37 -66.5 61.5t-164.5 47t-144 38.5q92 99 225 154l-10 282q-44 -18 -118 -91.5t-129 -140t-89 -114.5 q-19 -177 4 -358q51 -17 141 -41t113 -31q-17 -26 -86.5 -113.5t-113 -163.5t-58.5 -157z" />
<glyph unicode="5" horiz-adv-x="839" d="M68 420q4 -329 217 -346q106 -8 231.5 39t171.5 96q28 72 40.5 108.5t25 90t18.5 112.5q-6 95 -66.5 244t-142.5 265t-139 116q-71 0 -157.5 -130t-143.5 -302.5t-55 -292.5zM193 500q-1 78 17 152.5t53.5 126t78.5 55.5q65 6 129 -57t100.5 -142.5t36.5 -134.5 q-61 -37 -123.5 -58t-113.5 -23.5t-91.5 6.5t-63 29t-23.5 46z" />
<glyph unicode="6" horiz-adv-x="802" d="M96 1284l17 -323q53 -35 108.5 -32.5t98.5 23.5t69 52q-24 -231 53 -646q49 -262 88 -347q12 -24 17 -13l166 289q-74 149 -121.5 342t-63 352t-14.5 309q-53 -19 -99.5 -31.5t-81.5 -16.5t-65 -4.5t-51 4t-38.5 10.5t-29 13t-20.5 12.5t-14.5 9.5t-10 3.5t-8.5 -6.5z " />
<glyph unicode="7" horiz-adv-x="933" d="M94 934q83 -100 160 -247.5t126 -285t79.5 -245.5t36.5 -160l51 78q13 79 20 116.5t27 137.5t41 169.5t51.5 158t69.5 160.5t84 124l-27 371q-66 -50 -124 -180t-88.5 -257t-55 -237t-29.5 -119q-12 35 -41 132.5t-52.5 167t-59.5 161.5t-81.5 171t-97.5 140 q-41 -234 -90 -356z" />
<glyph unicode="8" horiz-adv-x="937" d="M88 289q60 -182 80 -293q75 83 136.5 208t97 249t55 225.5t22.5 167.5q4 -21 20.5 -116.5t27.5 -150t37 -152.5t54 -165t74 -142.5t101 -127.5q6 40 15 110.5t16.5 115.5t19.5 99q-39 44 -76 112t-64 130.5t-57 160t-46 154.5t-40 163t-30 137t-25 122l-53 -79 q-3 -14 -14 -73.5t-18.5 -93.5t-22.5 -101t-29.5 -114.5t-35.5 -113.5t-45.5 -119.5t-54.5 -111t-67 -108.5t-78 -93z" />
<glyph unicode="9" horiz-adv-x="808" d="M111 772q-27 -154 30 -219t193 -43q15 3 34.5 27t49.5 71t37 58q2 -20 5.5 -136.5t9 -219.5t26.5 -205.5t55 -129.5q27 43 64.5 101t60.5 94.5t41 69.5q-40 53 -62.5 131t-29.5 147.5t-17.5 205t-23.5 234.5q-8 69 -18 119t-28.5 103t-50 83.5t-73.5 34.5 q-55 5 -108.5 -53.5t-92 -148.5t-64.5 -174.5t-38 -149.5zM222 907q-2 31 34 64q20 19 47.5 27t55 2t48.5 -37.5t25 -85.5q-88 -47 -159 -25q-49 16 -51 55z" />
<glyph unicode=":" horiz-adv-x="415" d="M84 102l158 -108l125 170l-160 112zM84 489l158 -108l125 172l-160 113z" />
<glyph unicode="&#x3c;" horiz-adv-x="1110" d="M172 457l479 479h305l-479 -479l479 -477h-305z" />
<glyph unicode="=" horiz-adv-x="804" d="M84 242h637v139h-637v-139zM84 520h637v139h-637v-139z" />
<glyph unicode="&#x3e;" horiz-adv-x="1110" d="M174 -20h305l479 477l-479 479h-305l479 -479z" />
<glyph unicode="[" horiz-adv-x="520" d="M84 -233h319v86h-155v1318h155v76h-319v-1480z" />
<glyph unicode="\" horiz-adv-x="843" d="M119 1378h155l455 -1579h-156z" />
<glyph unicode="]" horiz-adv-x="520" d="M117 -147h157v1318h-157v76h319v-1480h-319v86z" />
<glyph unicode="_" horiz-adv-x="782" d="M33 -33v-213h715v213h-715z" />
<glyph unicode="{" horiz-adv-x="788" d="M74 530q139 -90 139 -163v-334q0 -14 4.5 -28t9 -24t16 -23.5t17.5 -20t22.5 -19.5t20.5 -16t23 -16l18 -13q63 -55 236 -55l108 4q2 8 2 26q0 21 -2 27q-138 2 -192 34.5t-45 123.5v334q0 87 -119 163q119 91 119 164v334q0 101 49 129q47 35 186 35v14q0 31 -2 47 q-132 0 -235 -22t-169.5 -74t-66.5 -129v-334q0 -49 -35 -92q-35 -45 -100 -72h-4z" />
<glyph unicode="|" horiz-adv-x="335" d="M70 -199h190v1465h-190v-1465z" />
<glyph unicode="}" horiz-adv-x="788" d="M72 -152q0 21 2 27q138 2 192 34.5t45 123.5v334q0 87 119 163q-119 91 -119 164v334q0 101 -49 129q-47 35 -186 35v14q0 31 2 47q132 0 235 -22t169.5 -74t66.5 -129v-334q0 -49 35 -92q35 -45 100 -72h4q-139 -90 -139 -163v-334q0 -14 -4.5 -28t-9 -24t-16 -23.5 t-17.5 -20t-22.5 -19.5t-20.5 -16t-23 -16l-18 -13q-63 -55 -236 -55l-108 4q-2 8 -2 26z" />
<glyph unicode="&#xab;" horiz-adv-x="643" d="M70 403q1 66 25.5 121.5t59 88t69.5 55t59 30.5l24 9l-12 -23q-80 -131 -76 -295q4 -137 66 -258l12 -33q-9 2 -24.5 7.5t-54.5 28.5t-69 53.5t-54.5 88t-24.5 127.5zM340 403q1 66 25.5 121.5t59.5 88t69.5 55t59.5 30.5l24 9l-13 -23q-80 -131 -76 -295 q1 -64 15.5 -124t24 -80.5t26.5 -53.5l12 -33q-9 2 -24.5 7.5t-54.5 28.5t-69 53.5t-54.5 88t-24.5 127.5z" />
<glyph unicode="&#xad;" horiz-adv-x="839" d="M84 385h637v125h-637v-125z" />
<glyph unicode="&#xbb;" horiz-adv-x="643" d="M68 707l12 -23q80 -131 76 -295q-1 -64 -15.5 -124t-24 -80.5t-26.5 -53.5l-12 -33q9 2 24.5 7.5t54.5 28.5t68.5 53.5t54 88t23.5 127.5q0 48 -13 91t-33.5 73t-45.5 55t-50.5 40t-46 25.5t-33.5 14.5zM338 707l12 -23q80 -131 76 -295q-4 -137 -66 -258l-12 -33 q9 2 24.5 7.5t54.5 28.5t68.5 53.5t54 88t23.5 127.5q0 48 -13 91t-33.5 73t-45.5 55t-50.5 40t-46 25.5t-33.5 14.5z" />
<glyph unicode="&#xd7;" horiz-adv-x="716" d="M84 266l88 -90l186 184l187 -184l88 90l-184 185l174 176l-88 88l-177 -176l-176 176l-88 -88l176 -176z" />
<glyph unicode="&#xf7;" horiz-adv-x="839" d="M84 385h637v125h-637v-125zM276 152l158 -99l84 137l-156 95zM276 723l158 -96l84 135l-156 96z" />
<glyph unicode="&#x60c;" horiz-adv-x="387" d="M92.5 78q22.5 -60 108.5 -82q32 -8 69 42q39 52 32 97q-8 55 -91 43q-39 15 14 86q43 57 89 85q8 5 14 7q13 5 7 17q-2 5 -7 4l-95 -19q-85 -70 -124 -145t-16.5 -135z" />
<glyph unicode="&#x61b;" horiz-adv-x="415" d="M84 102l158 -108l125 170l-160 112zM118 478.5q22 -60.5 107 -81.5q32 -8 69 40q39 52 33 97q-7 56 -91 44q-40 17 16 90q44 56 89 83q6 3 11 5q7 3 8.5 8.5t-1.5 9.5t-7 4l-94 -18q-85 -69 -123.5 -145t-16.5 -136.5z" />
<glyph unicode="&#x61f;" horiz-adv-x="731" d="M44.5 877q1.5 -88 45.5 -175t129 -147q48 -33 81 -64t54 -55.5t29.5 -52t11 -46.5t-5.5 -48t-15.5 -47t-23.5 -52l27 -20q24 19 52 56.5t51 96.5t29.5 122.5t-19 138.5t-87.5 139q-79 82 -121 168t-40 152.5t45 99.5q20 14 59 -3.5t79.5 -60.5t73.5 -107t40 -143 t-21 -170q-4 -10 0.5 -10.5t9.5 4.5l123 152q14 41 15 98t-11 119.5t-40 124t-66.5 110t-96 79t-124.5 30.5q-48 0 -100 -43.5t-95 -111.5t-66.5 -157t-22 -177zM199 -23l149 -137l148 148l-152 141z" />
<glyph unicode="&#x621;" horiz-adv-x="759" d="M135 406q0 -143 191 -158l-144 -66l-18 -188l500 117l96 231q-133 -29 -223 -29q-83 0 -125 27t-54 84q70 84 193 84q20 0 39.5 -2t34.5 -5t26.5 -6.5t18.5 -5.5t8 -2q-20 18 -53.5 51.5t-56 56.5t-23.5 23q-71 23 -121 23q-119 0 -204 -73t-85 -162z" />
<glyph unicode="&#x627;" horiz-adv-x="407" d="M195 1139l36 -1141l177 268v1065z" />
<glyph unicode="&#x628;" horiz-adv-x="1198" d="M168 428q0 -104 27.5 -199.5t87.5 -162t141 -66.5h774v518q-7 157 -63 420l-189 -143q26 -57 55 -152.5t31 -124.5h-586q-49 0 -82.5 22t-49.5 59.5t-22.5 74t-6.5 78.5q0 26 3 63t3 45q-23 -27 -38.5 -52t-38 -76t-34.5 -128.5t-12 -175.5zM625 -248l131 139l147 -139 l-127 -139z" />
<glyph unicode="&#x629;" horiz-adv-x="901" d="M168 342q0 -161 103.5 -263t271.5 -102q125 0 272 66q26 134 56 309t30 211q-3 25 -18.5 66t-55 103t-94.5 117.5t-149 106.5t-207 74l-187 -242q84 -7 140 -28q-74 -100 -118 -215t-44 -203zM252 1249l115 -106l100 104l113 -100l125 135l-113 109l-103 -109l-112 104z M383 578q0 65 70 141q69 -26 139.5 -82.5t120.5 -130.5q-93 -41 -176 -41q-71 0 -112.5 31t-41.5 82z" />
<glyph unicode="&#x62a;" horiz-adv-x="1198" d="M168 428q0 -104 27.5 -199.5t87.5 -162t141 -66.5h774v518q-7 157 -63 420l-189 -143q26 -57 55 -152.5t31 -124.5h-586q-49 0 -82.5 22t-49.5 59.5t-22.5 74t-6.5 78.5q0 26 3 63t3 45q-23 -27 -38.5 -52t-38 -76t-34.5 -128.5t-12 -175.5zM446 1004l115 -107l101 107 l112 -103l125 137l-111 107l-102 -107l-115 105z" />
<glyph unicode="&#x62b;" horiz-adv-x="1198" d="M168 428q0 -104 27.5 -199.5t87.5 -162t141 -66.5h774v518q-7 157 -63 420l-189 -143q26 -57 55 -152.5t31 -124.5h-586q-49 0 -82.5 22t-49.5 59.5t-22.5 74t-6.5 78.5q0 26 3 63t3 45q-23 -27 -38.5 -52t-38 -76t-34.5 -128.5t-12 -175.5zM434 940l113 -109l110 107 l111 -102l127 137l-117 106l-102 -104l-111 102zM559 1145l113 -105l114 117l-114 109z" />
<glyph unicode="&#x62c;" horiz-adv-x="866" d="M168 29q0 -81 29.5 -149t88.5 -121.5t158 -84t228 -30.5q102 44 225 256q-39 -6 -109 -6q-178 0 -267 72t-89 181q0 64 34 131t90 120t134 86.5t160 33.5q21 198 73 334q10 26 8 29.5t-27 -0.5q-65 -13 -132 -13q-36 0 -162 13.5t-176 13.5q-49 0 -84.5 -10t-66.5 -37 t-51 -73.5t-33 -120t-17 -175.5q0 -30 21 7q1 2 2 3q42 74 97 99.5t134 25.5q22 0 71 -2t77 -2q-185 -83 -300.5 -248.5t-115.5 -332.5zM616 182l111 -112l109 106l-119 113z" />
<glyph unicode="&#x62d;" horiz-adv-x="866" d="M168 29q0 -81 29.5 -149t88.5 -121.5t158 -84t228 -30.5q102 44 225 256q-39 -6 -109 -6q-178 0 -267 72t-89 181q0 64 34 131t90 120t134 86.5t160 33.5q21 198 73 334q10 26 8 29.5t-27 -0.5q-65 -13 -132 -13q-36 0 -162 13.5t-176 13.5q-49 0 -84.5 -10t-66.5 -37 t-51 -73.5t-33 -120t-17 -175.5q0 -30 21 7q1 2 2 3q42 74 97 99.5t134 25.5q22 0 71 -2t77 -2q-185 -83 -300.5 -248.5t-115.5 -332.5z" />
<glyph unicode="&#x62e;" horiz-adv-x="866" d="M168 29q0 -81 29.5 -149t88.5 -121.5t158 -84t228 -30.5q102 44 225 256q-39 -6 -109 -6q-178 0 -267 72t-89 181q0 64 34 131t90 120t134 86.5t160 33.5q21 198 73 334q10 26 8 29.5t-27 -0.5q-65 -13 -132 -13q-36 0 -162 13.5t-176 13.5q-49 0 -84.5 -10t-66.5 -37 t-51 -73.5t-33 -120t-17 -175.5q0 -30 21 7q1 2 2 3q42 74 97 99.5t134 25.5q22 0 71 -2t77 -2q-185 -83 -300.5 -248.5t-115.5 -332.5zM467 1087l117 -104l129 137l-115 107z" />
<glyph unicode="&#x62f;" horiz-adv-x="784" d="M168 584l55 -584h561v201q0 298 -20 393q-17 78 -74.5 214.5t-97.5 195.5l-176 -203q33 -36 88.5 -120t97.5 -163h-301q-12 0 -23.5 1.5t-20.5 3.5t-18 6t-15.5 7t-14 8.5t-11.5 8.5t-10 9l-8 8t-6.5 7.5t-5.5 6.5z" />
<glyph unicode="&#x630;" horiz-adv-x="784" d="M168 584l55 -584h561v201q0 298 -20 393q-17 78 -74.5 214.5t-97.5 195.5l-176 -203q33 -36 88.5 -120t97.5 -163h-301q-12 0 -23.5 1.5t-20.5 3.5t-18 6t-15.5 7t-14 8.5t-11.5 8.5t-10 9l-8 8t-6.5 7.5t-5.5 6.5zM375 1184l112 -107l125 137l-112 109z" />
<glyph unicode="&#x631;" horiz-adv-x="700" d="M31 -229l393 -117q11 0 28 7t21 11q64 74 109 153.5t67 138t34 132.5t14 109.5t3 97.5q0 79 -6 103q-13 81 -62.5 229t-96.5 215l-181 -246q55 -74 88 -119.5t73.5 -109t62.5 -111.5q-73 -145 -222.5 -290.5t-298.5 -188.5q-26 -5 -26 -14z" />
<glyph unicode="&#x632;" horiz-adv-x="700" d="M31 -229l393 -117q11 0 28 7t21 11q64 74 109 153.5t67 138t34 132.5t14 109.5t3 97.5q0 79 -6 103q-13 81 -62.5 229t-96.5 215l-181 -246q55 -74 88 -119.5t73.5 -109t62.5 -111.5q-73 -145 -222.5 -290.5t-298.5 -188.5q-26 -5 -26 -14zM291 1208l137 -125l117 125 l-135 129z" />
<glyph unicode="&#x633;" horiz-adv-x="1826" d="M0 98q0 159 70 375l190 227q-31 -55 -59.5 -158.5t-28.5 -201.5q0 -61 13.5 -112t44 -94.5t86 -68.5t133.5 -26h10q36 0 95.5 13t132 37.5t143.5 71t112 103.5q-76 165 -164 283l-8 14l162 246q88 -150 115 -289h251l-14 180l170 125q-1 -26 -3 -138t-7 -167h215 q-2 29 -31 124.5t-55 152.5l188 143q24 -112 36.5 -190.5t20 -148t9.5 -81.5v-518h-789q-20 -88 -24 -106q-119 -129 -276.5 -192.5t-303.5 -63.5q-92 0 -169.5 28t-137 82.5t-93.5 144t-34 205.5z" />
<glyph unicode="&#x634;" horiz-adv-x="1826" d="M0 98q0 159 70 375l190 227q-31 -55 -59.5 -158.5t-28.5 -201.5q0 -61 13.5 -112t44 -94.5t86 -68.5t133.5 -26h10q36 0 95.5 13t132 37.5t143.5 71t112 103.5q-76 165 -164 283l-8 14l162 246q88 -150 115 -289h251l-14 180l170 125q-1 -26 -3 -138t-7 -167h215 q-2 29 -31 124.5t-55 152.5l188 143q24 -112 36.5 -190.5t20 -148t9.5 -81.5v-518h-789q-20 -88 -24 -106q-119 -129 -276.5 -192.5t-303.5 -63.5q-92 0 -169.5 28t-137 82.5t-93.5 144t-34 205.5zM1096 1012l112 -111l109 109l110 -105l127 137l-114 109l-105 -104 l-110 100zM1219 1217l112 -107l115 117l-115 110z" />
<glyph unicode="&#x635;" horiz-adv-x="1859" d="M0 98q0 159 70 375l190 227q-31 -55 -59.5 -158.5t-28.5 -201.5q0 -61 13.5 -112t44 -94.5t86 -68.5t133.5 -26h10q36 0 95.5 13t132 37.5t143.5 71t112 103.5q-51 110 -213 328l-10 12l180 246q88 -149 129 -301q141 170 297 270.5t266 100.5q125 0 197 -105.5 t72 -296.5v-518h-822q-20 -88 -24 -106q-119 -129 -276.5 -192.5t-303.5 -63.5q-92 0 -169.5 28t-137 82.5t-93.5 144t-34 205.5zM1186 518h489q0 35 -5.5 68t-17.5 65.5t-36 52t-57 19.5q-45 0 -100.5 -21t-102.5 -51t-87 -60t-62.5 -51t-20.5 -22z" />
<glyph unicode="&#x636;" horiz-adv-x="1859" d="M0 98q0 159 70 375l190 227q-31 -55 -59.5 -158.5t-28.5 -201.5q0 -61 13.5 -112t44 -94.5t86 -68.5t133.5 -26h10q36 0 95.5 13t132 37.5t143.5 71t112 103.5q-51 110 -213 328l-10 12l180 246q88 -149 129 -301q141 170 297 270.5t266 100.5q125 0 197 -105.5 t72 -296.5v-518h-822q-20 -88 -24 -106q-119 -129 -276.5 -192.5t-303.5 -63.5q-92 0 -169.5 28t-137 82.5t-93.5 144t-34 205.5zM1186 518h489q0 35 -5.5 68t-17.5 65.5t-36 52t-57 19.5q-45 0 -100.5 -21t-102.5 -51t-87 -60t-62.5 -51t-20.5 -22zM1192 1094l180 -109 l88 139l-178 111z" />
<glyph unicode="&#x637;" horiz-adv-x="1230" d="M168 563q1 -62 34 -195t83 -250.5t90 -117.5h856v518q0 198 -73 305t-193 107q-142 0 -297 -137v532l-193 -172l17 -483l-156 -152q-25 0 -45.5 1.5t-36.5 5t-26.5 5.5t-21.5 8t-14.5 8t-13 9t-10.5 8zM555 518q28 20 78.5 59t78.5 58.5t67.5 43.5t75.5 34t73 10 q53 0 86 -53t33 -152h-492z" />
<glyph unicode="&#x638;" horiz-adv-x="1230" d="M168 563q1 -62 34 -195t83 -250.5t90 -117.5h856v518q0 198 -73 305t-193 107q-142 0 -297 -137v532l-193 -172l17 -483l-156 -152q-25 0 -45.5 1.5t-36.5 5t-26.5 5.5t-21.5 8t-14.5 8t-13 9t-10.5 8zM555 518q28 20 78.5 59t78.5 58.5t67.5 43.5t75.5 34t73 10 q53 0 86 -53t33 -152h-492zM823 1188l121 -119l133 129l-121 119z" />
<glyph unicode="&#x639;" horiz-adv-x="835" d="M168 29q0 142 72 265t209 208q-93 34 -145 92t-52 129q0 109 84.5 185.5t204.5 76.5q100 0 194 -70q2 -1 21.5 -34t50.5 -87t43 -75q-1 0 -12.5 7.5t-30.5 17.5t-43 20t-55 17t-62 7q-85 0 -149 -61q0 -92 41.5 -141t148.5 -49q62 0 148 18l-33 -121 q-168 -18 -269.5 -93.5t-101.5 -193.5q0 -109 89 -181t267 -72q70 0 109 6q-123 -212 -225 -256q-129 0 -228 30.5t-158 84t-88.5 121.5t-29.5 149z" />
<glyph unicode="&#x63a;" horiz-adv-x="835" d="M168 29q0 142 72 265t209 208q-93 34 -145 92t-52 129q0 109 84.5 185.5t204.5 76.5q100 0 194 -70q2 -1 21.5 -34t50.5 -87t43 -75q-1 0 -12.5 7.5t-30.5 17.5t-43 20t-55 17t-62 7q-85 0 -149 -61q0 -92 41.5 -141t148.5 -49q62 0 148 18l-33 -121 q-168 -18 -269.5 -93.5t-101.5 -193.5q0 -109 89 -181t267 -72q70 0 109 6q-123 -212 -225 -256q-129 0 -228 30.5t-158 84t-88.5 121.5t-29.5 149zM399 1186l113 -107l131 131l-115 111z" />
<glyph unicode="&#x640;" horiz-adv-x="321" d="M-16 0v518h356v-518h-356z" />
<glyph unicode="&#x641;" horiz-adv-x="1200" d="M168 428q0 98 12 175.5t34.5 128t39 76.5t39.5 52v-6q-8 -64 -8 -102q0 -42 6.5 -78.5t22.5 -74t49.5 -59.5t82.5 -22h388q-42 17 -71 46t-41 61.5t-16 55t-4 42.5q0 117 85 203t194 86q96 0 157.5 -119t61.5 -375v-518h-776q-81 0 -141 66.5t-87.5 162t-27.5 199.5z M838 1208l137 -125l119 125l-138 129zM893 631q0 -44 41 -88.5t125 -73.5q2 12 2 45q0 51 -13.5 102t-43 81.5t-66.5 11.5q-45 -22 -45 -78z" />
<glyph unicode="&#x642;" horiz-adv-x="1243" d="M168 98q0 -116 34 -205.5t93.5 -144t137 -82.5t169.5 -28q146 0 303.5 63.5t276.5 192.5q24 48 42.5 189.5t18.5 303.5q0 98 -8 186t-27.5 174t-49 147.5t-77.5 99.5t-108 38q-74 0 -154 -94.5t-132 -226t-58 -242.5q-6 -137 102 -220t277 -83q-91 -61 -207 -94t-185 -33 q-78 1 -133.5 26t-85.5 68.5t-43.5 94t-13.5 112.5q0 98 28.5 201.5t59.5 158.5l-190 -227q-70 -216 -70 -375zM705 1231l129 -109l104 101l131 -99l125 140l-133 106l-105 -104l-127 100zM799 723q0 28 17 56.5t46 29.5q44 0 96.5 -59.5t79.5 -165.5h-10q-95 0 -159 36.5 t-70 102.5z" />
<glyph unicode="&#x643;" horiz-adv-x="1202" d="M168 428q0 -104 27.5 -199.5t87.5 -162t141 -66.5h778v1329l-217 -186v-623h-539q-49 0 -84 22t-51.5 58t-22.5 74t-3 78l6 108q-23 -27 -38.5 -52t-38 -76t-34.5 -128.5t-12 -175.5zM479 705h47q30 0 60 3.5t69 16t68 33t49.5 57.5t20.5 86q0 19 -36 24.5t-72 6.5 t-36 10q0 13 39 34.5t76 20.5v142q-70 -7 -148 -89q-75 -79 -86 -148q-11 -76 72 -84q23 -2 53 1q-51 -19 -128 -65q-68 -41 -48 -49z" />
<glyph unicode="&#x644;" horiz-adv-x="1232" d="M168 98q0 -116 34 -205.5t93.5 -144t137 -82.5t169.5 -28q146 0 303.5 63.5t276.5 192.5q51 196 51 372v1065l-213 -192l29 -940q-89 -77 -221 -118.5t-212 -41.5q-78 1 -133.5 26t-85.5 68.5t-43.5 94t-13.5 112.5q0 98 28.5 201.5t59.5 158.5l-190 -227 q-70 -216 -70 -375z" />
<glyph unicode="&#x645;" horiz-adv-x="1236" d="M168 408q0 156 72 231.5t184 75.5q30 0 59.5 -8t75 -25.5t66.5 -24.5q96 119 154 170.5t122 51.5q58 0 110 -43.5t88.5 -107.5t66 -146.5t46 -151t25.5 -129.5l-309 -360q-249 217 -342 287.5t-135 70.5q-86 0 -86 -111q0 -3 4 -39q4 -35 7 -65t11.5 -111t18.5 -180 l-154 -213zM748 571l282 -227q0 42 -26 112.5t-69 129.5t-83 59q-47 0 -104 -74z" />
<glyph unicode="&#x646;" horiz-adv-x="1232" d="M168 98q0 159 70 375l190 227q-31 -55 -59.5 -158.5t-28.5 -201.5q0 -62 13.5 -112.5t43.5 -94t85.5 -68.5t133.5 -26q40 0 102 13t135.5 37.5t144.5 70.5t112 104q-50 109 -223 340l180 246q166 -274 166 -584q0 -176 -51 -372q-119 -129 -276.5 -192.5t-303.5 -63.5 q-92 0 -169.5 28t-137 82.5t-93.5 144t-34 205.5zM524 963l131 139l148 -139l-127 -138z" />
<glyph unicode="&#x647;" horiz-adv-x="901" d="M168 369q0 -161 103.5 -263t271.5 -102q125 0 272 66q26 134 56 309t30 211q-3 25 -18.5 66t-55 103t-94.5 118t-149 107t-207 75l-187 -242q100 -16 140 -29q-74 -101 -118 -216.5t-44 -202.5zM383 604q0 65 70 141q69 -27 139.5 -82.5t120.5 -130.5q-91 -40 -176 -40 q-72 0 -113 30.5t-41 81.5z" />
<glyph unicode="&#x648;" horiz-adv-x="796" d="M168 -279q0 -5 92 -23.5t200.5 -35t145.5 -16.5q2 0 2.5 1t1.5 1q89 74 138 239t49 357q0 710 -260 723l-19 -2q-66 -9 -148 -113.5t-135.5 -248t-41.5 -249.5q13 -112 98 -200t215 -88q68 0 84 2q-58 -86 -126 -155t-125.5 -107.5t-100 -59.5t-68.5 -25h-2zM373 612.5 q-22 44.5 12 106.5q23 46 81 13q60 -34 103 -115q25 -49 33 -99q-83 0 -145 25t-84 69.5z" />
<glyph unicode="&#x649;" horiz-adv-x="1232" d="M168 98q0 -111 31 -197.5t84 -140t124 -85.5t151 -38t166.5 8.5t168 48t157 85t132.5 115.5q13 43 32 180.5t19 204.5q0 40 -38 77.5t-94 65.5t-112.5 53.5t-99.5 52t-49 50.5q33 100 147 100q115 0 236 -98q4 42 1 161t-14 148q-12 32 -62.5 58t-96.5 26 q-53 0 -148 -89.5t-170.5 -213t-75.5 -205.5q0 -71 93.5 -141t277.5 -152q-157 -78 -241.5 -105.5t-170.5 -27.5q-78 1 -133.5 26t-85.5 68.5t-43.5 94t-13.5 112.5q0 98 28.5 201.5t59.5 158.5l-190 -227q-70 -216 -70 -375z" />
<glyph unicode="&#x64a;" horiz-adv-x="1232" d="M168 98q0 -111 31 -197.5t84 -140t124 -85.5t151 -38t166.5 8.5t168 48t157 85t132.5 115.5q13 43 32 180.5t19 204.5q0 40 -38 77.5t-94 65.5t-112.5 53.5t-99.5 52t-49 50.5q33 100 147 100q115 0 236 -98q4 42 1 161t-14 148q-12 32 -62.5 58t-96.5 26 q-53 0 -148 -89.5t-170.5 -213t-75.5 -205.5q0 -71 93.5 -141t277.5 -152q-157 -78 -241.5 -105.5t-170.5 -27.5q-78 1 -133.5 26t-85.5 68.5t-43.5 94t-13.5 112.5q0 98 28.5 201.5t59.5 158.5l-190 -227q-70 -216 -70 -375zM440 -584l113 -108l109 108l110 -104l125 133 l-117 109l-104 -105l-109 98z" />
<glyph unicode="&#x64b;" d="M-49 1311l266 69l49 82l-266 -69zM-14 1425l264 68l49 82l-266 -68z" />
<glyph unicode="&#x64c;" d="M-23 1315q29 5 107.5 49.5t112.5 77.5q8 -27 28 -12q47 47 25 77q28 48 33 74q6 44 -27 70q-21 16 -64 -11t-81 -86q-1 -10 -2.5 -15t6.5 -13.5t12 -12t14 -10.5t13 -10q-45 -49 -158 -94zM-9 1580q-8 -40 5 -73l-2 2q1 -3 3 -7t6.5 -8.5t8.5 -7.5t10.5 -8.5t10.5 -9.5 l16 -8q-12 52 -8 76t22 55q4 3 26 20.5t33.5 25.5t32 23t40.5 27t41 23q3 19 20 62q-1 2 -14.5 2t-41.5 -10.5t-57.5 -24.5t-62.5 -38.5t-57 -53.5q-24 -27 -32 -67zM164 1567q29 33 48 23q10 -5 7 -23q0 -17 -18 -41q-18 26 -37 41z" />
<glyph unicode="&#x64d;" d="M-301 -580l266 70l49 82l-266 -72zM-266 -465l264 68l49 82l-266 -70z" />
<glyph unicode="&#x64e;" d="M-39 1311l266 69l49 82l-266 -69z" />
<glyph unicode="&#x64f;" d="M-152 1241q27 8 96.5 65.5t96.5 96.5q16 -23 31 -8q6 6 12.5 18.5t10 31t-10.5 30.5q20 41 20 77q0 46 -38 66q-24 11 -61.5 -22t-65.5 -97q1 -7 -1 -11t3.5 -10t7 -8.5t9.5 -7t11 -6t11.5 -5.5t11.5 -5q-41 -59 -142 -119zM-10 1520q22 37 43 32q11 -5 12 -22 q0 -19 -12 -43q-16 16 -43 33z" />
<glyph unicode="&#x650;" d="M-266 -465l264 68l49 82l-266 -70z" />
<glyph unicode="&#x651;" d="M-16 1540q0 -82 2 -96v2q8 -55 57 -55q37 0 80 34q32 -18 59 -18q66 0 74 104q0 1 1 22.5t0.5 35t-5.5 35.5t-14 38l-66 -65q18 -36 18 -74q-11 -2 -30 4q3 25 -6 66.5t-19 54.5l-61 -74q20 -33 20 -59q-9 -7 -19 -11t-20 -2t-14 13q-5 15 10 127z" />
<glyph unicode="&#x652;" d="M-8 1536q3 3 8.5 6.5t7.5 5.5q-10 -38 -10 -59q0 -46 24.5 -71t65.5 -25q62 0 131 57q8 11 8 55q0 56 -6 80q-5 10 -18.5 23.5t-38 30t-64.5 27t-86 9.5zM55 1542q0 10 11 39q59 -4 102 -47q-14 -11 -40 -19t-44 -8q-11 3 -20 13.5t-9 21.5z" />
<glyph unicode="&#x653;" d="M74 1376q1 53 33 92t71 41q19 1 49 -7t55.5 -16t50 -11.5t38.5 7.5t14 40h64q-1 -55 -33 -97.5t-72 -42.5q-12 0 -70.5 16t-97.5 14.5t-39 -36.5h-63z" />
<glyph unicode="&#x654;" d="M188 1358q0 -62 80 -68l-61 -26l-6 -82l211 51l39 96q-46 -10 -95 -10q-65 0 -71 47q28 35 77 35q14 0 27.5 -2.5t20.5 -4.5l6 -3q-53 53 -58 53q-21 12 -47 12q-51 0 -87 -30.5t-36 -67.5z" />
<glyph unicode="&#x655;" d="M178 -168q0 -59 80 -68l-61 -26l-7 -80l211 49l39 98q-44 -12 -94 -12q-66 0 -72 47q28 35 78 35q14 0 27.5 -2.5t20.5 -4.5l6 -3l-56 55q-20 10 -49 10q-51 0 -87 -30t-36 -68z" />
<glyph unicode="&#x660;" horiz-adv-x="808" d="M154 479l335 -213l185 295l-338 207z" />
<glyph unicode="&#x661;" horiz-adv-x="634" d="M117 922q140 -232 196.5 -454t61.5 -491q50 70 157 275q2 192 -64 481t-175 537z" />
<glyph unicode="&#x662;" horiz-adv-x="759" d="M88 862q98 -209 176.5 -442t104.5 -428l176 278q-19 98 -53 204.5t-60.5 172.5t-70.5 167.5t-58 135.5q26 12 108 4.5t142 -30.5l119 323q-34 19 -98 35t-161 15.5t-175 -33.5q-91 -221 -150 -402z" />
<glyph unicode="&#x663;" horiz-adv-x="839" d="M84 1004q74 -82 138.5 -277t96.5 -397t27 -336l168 254q-3 122 -19.5 234.5t-58.5 305.5q10 6 25 25q51 -27 92 -27t72.5 23.5t55 61t39.5 85.5t25.5 98t14 96.5t4.5 83t-4 56.5q-3 20 -18 5q-6 -7 -7 -13q-29 -182 -198 -143q10 26 9.5 75t-9.5 78q-2 8 -7 11t-9.5 -0.5 t-4.5 -12.5q-3 -81 -30.5 -122t-74 -40t-108.5 31l-65 152z" />
<glyph unicode="&#x664;" horiz-adv-x="839" d="M84 86q-5 -30 11.5 -55t59 -42t105 -22.5t158.5 6.5t211 43l131 330q-98 -28 -179.5 -41.5t-143 -8t-79.5 33.5q-11 18 22.5 70t80.5 106.5t85 115t34 91.5q-4 37 -66.5 61.5t-164.5 47t-144 38.5q92 99 225 154l-10 282q-44 -18 -118 -91.5t-129 -140t-89 -114.5 q-19 -177 4 -358q51 -17 141 -41t113 -31q-17 -26 -86.5 -113.5t-113 -163.5t-58.5 -157z" />
<glyph unicode="&#x665;" horiz-adv-x="839" d="M68 420q4 -329 217 -346q106 -8 231.5 39t171.5 96q28 72 40.5 108.5t25 90t18.5 112.5q-6 95 -66.5 244t-142.5 265t-139 116q-71 0 -157.5 -130t-143.5 -302.5t-55 -292.5zM193 500q-1 78 17 152.5t53.5 126t78.5 55.5q65 6 129 -57t100.5 -142.5t36.5 -134.5 q-61 -37 -123.5 -58t-113.5 -23.5t-91.5 6.5t-63 29t-23.5 46z" />
<glyph unicode="&#x666;" horiz-adv-x="802" d="M96 1284l17 -323q53 -35 108.5 -32.5t98.5 23.5t69 52q-24 -231 53 -646q49 -262 88 -347q12 -24 17 -13l166 289q-74 149 -121.5 342t-63 352t-14.5 309q-53 -19 -99.5 -31.5t-81.5 -16.5t-65 -4.5t-51 4t-38.5 10.5t-29 13t-20.5 12.5t-14.5 9.5t-10 3.5t-8.5 -6.5z " />
<glyph unicode="&#x667;" horiz-adv-x="933" d="M94 934q83 -100 160 -247.5t126 -285t79.5 -245.5t36.5 -160l51 78q13 79 20 116.5t27 137.5t41 169.5t51.5 158t69.5 160.5t84 124l-27 371q-66 -50 -124 -180t-88.5 -257t-55 -237t-29.5 -119q-12 35 -41 132.5t-52.5 167t-59.5 161.5t-81.5 171t-97.5 140 q-41 -234 -90 -356z" />
<glyph unicode="&#x668;" horiz-adv-x="937" d="M88 289q60 -182 80 -293q75 83 136.5 208t97 249t55 225.5t22.5 167.5q4 -21 20.5 -116.5t27.5 -150t37 -152.5t54 -165t74 -142.5t101 -127.5q6 40 15 110.5t16.5 115.5t19.5 99q-39 44 -76 112t-64 130.5t-57 160t-46 154.5t-40 163t-30 137t-25 122l-53 -79 q-3 -14 -14 -73.5t-18.5 -93.5t-22.5 -101t-29.5 -114.5t-35.5 -113.5t-45.5 -119.5t-54.5 -111t-67 -108.5t-78 -93z" />
<glyph unicode="&#x669;" horiz-adv-x="808" d="M111 772q-27 -154 30 -219t193 -43q15 3 34.5 27t49.5 71t37 58q2 -20 5.5 -136.5t9 -219.5t26.5 -205.5t55 -129.5q27 43 64.5 101t60.5 94.5t41 69.5q-40 53 -62.5 131t-29.5 147.5t-17.5 205t-23.5 234.5q-8 69 -18 119t-28.5 103t-50 83.5t-73.5 34.5 q-55 5 -108.5 -53.5t-92 -148.5t-64.5 -174.5t-38 -149.5zM222 907q-2 31 34 64q20 19 47.5 27t55 2t48.5 -37.5t25 -85.5q-88 -47 -159 -25q-49 16 -51 55z" />
<glyph unicode="&#x66a;" horiz-adv-x="843" d="M47 1104l205 -129l110 178l-204 125zM117 -201h157l453 1579h-156zM500 72l205 -129l110 178l-205 127z" />
<glyph unicode="&#x66b;" horiz-adv-x="497" d="M128 -195q3 -5 7 -4l94 19q85 69 124 145t17.5 136t-106.5 81q-33 8 -70 -40q-38 -51 -32 -96q8 -56 92 -44q39 -17 -16 -88q-44 -56 -90 -84l-13 -6q-14 -6 -7 -19z" />
<glyph unicode="&#x66c;" horiz-adv-x="497" d="M128 -195q3 -5 7 -4l94 19q85 69 124 145t17.5 136t-106.5 81q-33 8 -70 -40q-38 -51 -32 -96q8 -56 92 -44q39 -17 -16 -88q-44 -56 -90 -84l-13 -6q-14 -6 -7 -19z" />
<glyph unicode="&#x66d;" horiz-adv-x="1024" d="M115 502l239 -191l-106 -284l35 -27l233 193l232 -193l34 31l-104 282l237 189l-18 41l-283 -41l-77 293h-41l-80 -293l-283 43z" />
<glyph unicode="&#x670;" d="M47 1442h131v438h-131v-438z" />
<glyph unicode="&#x67e;" horiz-adv-x="1198" d="M168 428q0 -104 27.5 -199.5t87.5 -162t141 -66.5h774v518q-7 157 -63 420l-189 -143q26 -57 55 -152.5t31 -124.5h-586q-49 0 -82.5 22t-49.5 59.5t-22.5 74t-6.5 78.5q0 26 3 63t3 45q-23 -27 -38.5 -52t-38 -76t-34.5 -128.5t-12 -175.5zM530 -252l117 -106l105 102 l110 -100l129 137l-112 108l-109 -108l-113 104zM639 -436l115 -111l112 123l-112 105z" />
<glyph unicode="&#x686;" horiz-adv-x="866" d="M168 29q0 -81 29.5 -149t88.5 -121.5t158 -84t228 -30.5q102 44 225 256q-39 -6 -109 -6q-178 0 -267 72t-89 181q0 64 34 131t90 120t134 86.5t160 33.5q21 198 73 334q10 26 8 29.5t-27 -0.5q-65 -13 -132 -13q-36 0 -162 13.5t-176 13.5q-49 0 -84.5 -10t-66.5 -37 t-51 -73.5t-33 -120t-17 -175.5q0 -30 21 7q1 2 2 3q42 74 97 99.5t134 25.5q22 0 71 -2t77 -2q-185 -83 -300.5 -248.5t-115.5 -332.5zM535 205l73 -68l64 66l71 -64l82 86l-71 68l-68 -66l-72 66zM602 88l74 -68l69 76l-69 68z" />
<glyph unicode="&#x698;" horiz-adv-x="700" d="M31 -229l393 -117q11 0 28 7t21 11q64 74 109 153.5t67 138t34 132.5t14 109.5t3 97.5q0 79 -6 103q-13 81 -62.5 229t-96.5 215l-181 -246q55 -74 88 -119.5t73.5 -109t62.5 -111.5q-73 -145 -222.5 -290.5t-298.5 -188.5q-26 -5 -26 -14zM117 1110l112 -109l109 107 l111 -102l129 137l-117 106l-105 -104l-110 102zM242 1315l112 -105l113 117l-113 109z" />
<glyph unicode="&#x6a4;" horiz-adv-x="1200" d="M168 428q0 98 12 175.5t34.5 128t39 76.5t39.5 52v-6q-8 -64 -8 -102q0 -42 6.5 -78.5t22.5 -74t49.5 -59.5t82.5 -22h388q-42 17 -71 46t-41 61.5t-16 55t-4 42.5q0 117 85 203t194 86q96 0 157.5 -119t61.5 -375v-518h-776q-81 0 -141 66.5t-87.5 162t-27.5 199.5z M715 1182l112 -109l111 107l111 -103l127 137l-117 107l-103 -104l-112 102zM840 1386l112 -104l115 117l-115 108zM893 631q0 -44 41 -88.5t125 -73.5q2 12 2 45q0 51 -13.5 102t-43 81.5t-66.5 11.5q-45 -22 -45 -78z" />
<glyph unicode="&#x6f0;" horiz-adv-x="808" d="M154 479l335 -213l185 295l-338 207z" />
<glyph unicode="&#x6f1;" horiz-adv-x="634" d="M117 922q140 -232 196.5 -454t61.5 -491q50 70 157 275q2 192 -64 481t-175 537z" />
<glyph unicode="&#x6f2;" horiz-adv-x="759" d="M88 862q98 -209 176.5 -442t104.5 -428l176 278q-19 98 -53 204.5t-60.5 172.5t-70.5 167.5t-58 135.5q26 12 108 4.5t142 -30.5l119 323q-34 19 -98 35t-161 15.5t-175 -33.5q-91 -221 -150 -402z" />
<glyph unicode="&#x6f3;" horiz-adv-x="839" d="M84 1004q74 -82 138.5 -277t96.5 -397t27 -336l168 254q-3 122 -19.5 234.5t-58.5 305.5q10 6 25 25q51 -27 92 -27t72.5 23.5t55 61t39.5 85.5t25.5 98t14 96.5t4.5 83t-4 56.5q-3 20 -18 5q-6 -7 -7 -13q-29 -182 -198 -143q10 26 9.5 75t-9.5 78q-2 8 -7 11t-9.5 -0.5 t-4.5 -12.5q-3 -81 -30.5 -122t-74 -40t-108.5 31l-65 152z" />
<glyph unicode="&#x6f4;" horiz-adv-x="839" d="M84 86q-5 -30 11.5 -55t59 -42t105 -22.5t158.5 6.5t211 43l131 330q-98 -28 -179.5 -41.5t-143 -8t-79.5 33.5q-11 18 22.5 70t80.5 106.5t85 115t34 91.5q-4 37 -66.5 61.5t-164.5 47t-144 38.5q92 99 225 154l-10 282q-44 -18 -118 -91.5t-129 -140t-89 -114.5 q-19 -177 4 -358q51 -17 141 -41t113 -31q-17 -26 -86.5 -113.5t-113 -163.5t-58.5 -157z" />
<glyph unicode="&#x6f5;" horiz-adv-x="839" d="M68 420q4 -329 217 -346q106 -8 231.5 39t171.5 96q28 72 40.5 108.5t25 90t18.5 112.5q-6 95 -66.5 244t-142.5 265t-139 116q-71 0 -157.5 -130t-143.5 -302.5t-55 -292.5zM193 500q-1 78 17 152.5t53.5 126t78.5 55.5q65 6 129 -57t100.5 -142.5t36.5 -134.5 q-61 -37 -123.5 -58t-113.5 -23.5t-91.5 6.5t-63 29t-23.5 46z" />
<glyph unicode="&#x6f6;" horiz-adv-x="802" d="M96 1284l17 -323q53 -35 108.5 -32.5t98.5 23.5t69 52q-24 -231 53 -646q49 -262 88 -347q12 -24 17 -13l166 289q-74 149 -121.5 342t-63 352t-14.5 309q-53 -19 -99.5 -31.5t-81.5 -16.5t-65 -4.5t-51 4t-38.5 10.5t-29 13t-20.5 12.5t-14.5 9.5t-10 3.5t-8.5 -6.5z " />
<glyph unicode="&#x6f7;" horiz-adv-x="933" d="M94 934q83 -100 160 -247.5t126 -285t79.5 -245.5t36.5 -160l51 78q13 79 20 116.5t27 137.5t41 169.5t51.5 158t69.5 160.5t84 124l-27 371q-66 -50 -124 -180t-88.5 -257t-55 -237t-29.5 -119q-12 35 -41 132.5t-52.5 167t-59.5 161.5t-81.5 171t-97.5 140 q-41 -234 -90 -356z" />
<glyph unicode="&#x6f8;" horiz-adv-x="937" d="M88 289q60 -182 80 -293q75 83 136.5 208t97 249t55 225.5t22.5 167.5q4 -21 20.5 -116.5t27.5 -150t37 -152.5t54 -165t74 -142.5t101 -127.5q6 40 15 110.5t16.5 115.5t19.5 99q-39 44 -76 112t-64 130.5t-57 160t-46 154.5t-40 163t-30 137t-25 122l-53 -79 q-3 -14 -14 -73.5t-18.5 -93.5t-22.5 -101t-29.5 -114.5t-35.5 -113.5t-45.5 -119.5t-54.5 -111t-67 -108.5t-78 -93z" />
<glyph unicode="&#x6f9;" horiz-adv-x="808" d="M111 772q-27 -154 30 -219t193 -43q15 3 34.5 27t49.5 71t37 58q2 -20 5.5 -136.5t9 -219.5t26.5 -205.5t55 -129.5q27 43 64.5 101t60.5 94.5t41 69.5q-40 53 -62.5 131t-29.5 147.5t-17.5 205t-23.5 234.5q-8 69 -18 119t-28.5 103t-50 83.5t-73.5 34.5 q-55 5 -108.5 -53.5t-92 -148.5t-64.5 -174.5t-38 -149.5zM222 907q-2 31 34 64q20 19 47.5 27t55 2t48.5 -37.5t25 -85.5q-88 -47 -159 -25q-49 16 -51 55z" />
<glyph unicode="&#x2000;" horiz-adv-x="1043" />
<glyph unicode="&#x2001;" horiz-adv-x="2087" />
<glyph unicode="&#x2002;" horiz-adv-x="1043" />
<glyph unicode="&#x2003;" horiz-adv-x="2087" />
<glyph unicode="&#x2004;" horiz-adv-x="695" />
<glyph unicode="&#x2005;" horiz-adv-x="521" />
<glyph unicode="&#x2006;" horiz-adv-x="347" />
<glyph unicode="&#x2007;" horiz-adv-x="347" />
<glyph unicode="&#x2008;" horiz-adv-x="260" />
<glyph unicode="&#x2009;" horiz-adv-x="417" />
<glyph unicode="&#x200a;" horiz-adv-x="115" />
<glyph unicode="&#x200c;" horiz-adv-x="40" d="M0 0h41v1479h-41v-1479z" />
<glyph unicode="&#x200d;" horiz-adv-x="40" d="M-104 1358l28 -27l76 76v-1407h41v1407l76 -76l28 27l-96 98l96 96l-28 29l-97 -98l-96 98l-28 -29l98 -96z" />
<glyph unicode="&#x200e;" horiz-adv-x="40" d="M0 0h41v1438h160l-78 -78l29 -29l122 125l-122 125l-29 -29l74 -73h-197v-1479z" />
<glyph unicode="&#x200f;" horiz-adv-x="40" d="M-233 1456l122 -125l29 29l-78 78h160v-1438h41v1479h-197l74 73l-29 29z" />
<glyph unicode="&#x2010;" horiz-adv-x="929" d="M49 393h862v80h-862v-80z" />
<glyph unicode="&#x2011;" horiz-adv-x="839" d="M84 385h637v125h-637v-125z" />
<glyph unicode="&#x2012;" horiz-adv-x="839" d="M84 385h637v125h-637v-125z" />
<glyph unicode="&#x2013;" horiz-adv-x="1226" d="M84 385h1024v125h-1024v-125z" />
<glyph unicode="&#x2014;" horiz-adv-x="2250" d="M84 385h2048v125h-2048v-125z" />
<glyph unicode="&#x201c;" horiz-adv-x="677" d="M92.5 991.5q22.5 -60.5 108.5 -82.5q32 -8 69 42q39 52 32 97q-8 56 -91 44q-39 15 14 86q43 57 89 85q8 5 14 7q6 3 7.5 8.5t-1 9.5t-6.5 4l-95 -18q-85 -71 -124 -146.5t-16.5 -136zM382.5 991.5q21.5 -60.5 106.5 -82.5q33 -8 70 42q39 52 33 97q-9 56 -92 44 q-38 15 15 86q44 58 90 86l13 6q6 3 7.5 8.5t-1 9.5t-6.5 4l-94 -18q-85 -71 -124 -146.5t-17.5 -136z" />
<glyph unicode="&#x201d;" horiz-adv-x="677" d="M52 916q3 -6 9 -5l93 19q85 69 124 145t17 136t-107 81q-33 8 -70 -40q-38 -51 -32 -96q8 -56 92 -44q40 -17 -17 -90q-44 -56 -89 -83q-6 -3 -11 -5q-14 -5 -9 -18zM343 915q3 -5 7 -4l94 19q85 69 124 145t17.5 136t-106.5 81q-33 8 -70 -40q-38 -51 -32 -96 q8 -56 92 -44q38 -17 -17 -88q-44 -57 -90 -84l-12 -6q-14 -6 -7 -19z" />
<glyph unicode="&#x202f;" horiz-adv-x="417" />
<glyph unicode="&#x205f;" horiz-adv-x="521" />
<glyph unicode="&#x2421;" horiz-adv-x="1452" d="M78 117h194q42 0 84 10q162 40 162 260q0 217 -162 254q-27 8 -94 8h-184v-532zM150 180v406h112q57 0 90 -11q94 -37 94 -188q0 -114 -53 -170q-40 -37 -129 -37h-114zM582 117h399v63h-326v180h293v64h-293v162h314v63h-387v-532zM1047 117h333v63h-260v469h-73v-532z " />
<glyph unicode="&#xe000;" horiz-adv-x="1024" d="M0 0z" />
<glyph unicode="&#xfd3e;" horiz-adv-x="524" d="M70 545q0 -189 56.5 -362.5t149.5 -291.5q131 -41 177 -57q-94 145 -158 330.5t-64 390.5q0 332 191 678l-182 -84q-170 -274 -170 -604z" />
<glyph unicode="&#xfd3f;" horiz-adv-x="524" d="M70 -166q95 143 159 329t64 392q0 332 -191 678l183 -84q168 -271 168 -604q0 -189 -56.5 -362.5t-148.5 -291.5q-130 -41 -178 -57z" />
<glyph unicode="&#xfeff;" />
<glyph horiz-adv-x="681" />
<glyph horiz-adv-x="573" />
<glyph horiz-adv-x="559" />
<glyph />
</font>
</defs>
</svg>
