<?xml version="1.0" standalone="no"?>
<!DOCTYPE svg PUBLIC "-//W3C//DTD SVG 1.1//EN" "http://www.w3.org/Graphics/SVG/1.1/DTD/svg11.dtd" >
<svg xmlns="http://www.w3.org/2000/svg">
<metadata></metadata>
<defs>
<font id="irannastaliqregular" horiz-adv-x="0" >
<font-face units-per-em="2048" ascent="1638" descent="-410" />
<missing-glyph horiz-adv-x="117" />
<glyph unicode="&#xfedf;&#xfee0;&#xfeea;" horiz-adv-x="1437" arabic-form="isolated" d="M7 -95q-9 12 246.5 285t284.5 273q12 0 27 -30q8 -12 14 -25q24 -39 65 -65.5t119 -26.5q57 0 92 30q30 25 76.5 122t61.5 97t26 -32t23 -55.5t41.5 -41.5t78.5 -18q56 0 92.5 37t36.5 92q0 30 -6 82.5t-6 73.5q0 30 41.5 118t75.5 146q15 19 19.5 -2.5t4.5 -82.5 q0 -123 -20 -249t-66 -241.5t-120 -190.5t-160 -75q-61 0 -96.5 27.5t-53.5 57.5q-49 -74 -131 -142.5t-173 -68.5q-62 0 -106 18.5t-71 44.5t-55 82q-15 0 -122 -91.5t-150 -121.5q-71 -49 -89 -27z" />
<glyph unicode="&#xfedf;&#xfe82;" horiz-adv-x="784" arabic-form="isolated" d="M-7 1666q-7 10 13 46t53 74q72 87 164 145q105 68 181 68q26 0 152 -24q61 -11 126 -11q111 0 205 41q56 24 102.5 55.5t62 41t26.5 9.5q9 0 8 -15.5t-14 -36.5q-27 -50 -79 -106t-122 -103q-110 -70 -197 -100t-217 -26q-53 5 -92.5 17t-97.5 20t-102 -5.5t-75 -34.5 t-57 -42.5t-40 -12.5zM100 138q0 15 15 34.5t33 43.5q9 12 24 36t27 63.5t18 104t8 111.5q1 46 2 92.5t-1 100.5q5 138 50 300q30 110 99 296q3 9 7.5 15t7.5 6q10 0 9 -56q0 -27 -22.5 -327t-37 -388.5t-42.5 -170.5q-39 -122 -99 -209q3 -6 24 -6.5t36 -0.5 q82 -3 164.5 63.5t110.5 152t28 132v93.5q3 72 1.5 188t2 210.5t41 219t121.5 271.5q11 15 18.5 11.5t-0.5 -50.5q-4 -42 -12 -81q-24 -175 -34 -405q-2 -58 -5 -143t-4 -119q-3 -119 -25 -198.5t-37 -124.5t-34 -94q-29 -74 -62 -125q-55 -84 -102 -126q-69 -60 -147 -58 q-42 1 -73.5 20.5t-59.5 51.5q-23 18 -29 24q-22 21 -21 42z" />
<glyph unicode="&#xfee0;&#xfe82;" horiz-adv-x="915" arabic-form="final" d="M160 1609q-7 10 13 46t53 74q72 87 164 145q105 68 181 68q26 0 152 -24q61 -11 126 -11q111 0 205 41q56 24 102.5 55.5t62 41t26.5 9.5q9 0 8 -15.5t-14 -36.5q-27 -50 -79 -106t-122 -103q-110 -70 -197 -100t-217 -26q-53 5 -92.5 17t-97.5 20t-102 -5.5t-75 -34.5 t-57 -42.5t-40 -12.5zM321 139q0 15 15 35q15 19 34 43q9 12 24 36t26.5 64t18.5 104q6 65 8 111l3 93q1 48 0 101q3 138 48 300q31 109 100 295q5 12 9.5 16.5t7.5 4.5q10 -1 9 -57q-2 -27 -6 -87q-5 -61 -6 -78l-33 -390q-3 -70 -17 -160q-15 -87 -43 -170 q-39 -121 -101 -208q3 -6 24 -6l38 -2q82 -3 164.5 62.5t105 138t24.5 146.5q10 169 16 294.5t19 203.5t41.5 169.5t89.5 236.5q9 15 17 12q7 -3 -7 -117.5t-29 -339.5q-2 -59 -6.5 -143.5t-5.5 -119.5q-5 -118 -24.5 -197.5t-35.5 -126.5q-14 -45 -38.5 -105.5t-69 -128 t-89.5 -109.5q-70 -60 -148 -59q-41 2 -74 21q-31 21 -58 51q-24 20 -30 26q-21 19 -21 40z" />
<glyph unicode="&#xfedf;&#xfe84;" horiz-adv-x="691" arabic-form="isolated" d="M16 138q0 15 15 34.5t33 43.5q9 12 24 36t27 63.5t18 104t8 111.5q1 46 2 92.5t-1 100.5q5 138 50 300q30 110 99 296q3 9 7.5 15t7.5 6q10 0 9 -56q0 -27 -22.5 -327t-37 -388.5t-42.5 -170.5q-39 -122 -99 -209q3 -6 24 -6.5t36 -0.5q82 -3 164.5 63.5t110.5 152 t28 132v93.5q3 72 1.5 188t2 210.5t41 219t121.5 271.5q11 15 18.5 11.5t-0.5 -50.5q-4 -42 -12 -81q-24 -175 -34 -405q-2 -58 -5 -143t-4 -119q-3 -119 -25 -198.5t-37 -124.5t-34 -94q-29 -74 -62 -125q-55 -84 -102 -126q-69 -60 -147 -58q-42 1 -73.5 20.5t-59.5 51.5 q-23 18 -29 24q-22 21 -21 42zM113 1404.5q7 16.5 29 42t48 54.5l11 10v4q-27 10 -54 26.5t-25 26.5q1 27 87 111q46 51 47 51q38 30 72 26q20 -2 35 -16t13 -34q-1 -14 -12.5 -24.5t-25.5 -9.5q-3 0 -16.5 9.5t-32.5 10.5q-17 3 -39 -12t-22 -23q-2 -23 23 -37t57 -18 q20 -3 65 14q29 10 67 31q7 4 12 0.5t5 -7.5q-2 -14 -90 -67t-151 -110.5t-69 -57.5q-25 -18 -33 -17.5t-1 17z" />
<glyph unicode="&#xfee0;&#xfe84;" horiz-adv-x="639" arabic-form="final" d="M47 139q0 15 15 35q15 19 34 43q9 12 24 36t26.5 64t18.5 104q6 65 8 111l3 93q1 48 0 101q3 138 48 300q31 109 100 295q5 12 9.5 16.5t7.5 4.5q10 -1 9 -57q-2 -27 -6 -87q-5 -61 -6 -78l-33 -390q-3 -70 -17 -160q-15 -87 -43 -170q-39 -121 -101 -208q3 -6 24 -6 l38 -2q82 -3 164.5 62.5t105 138t24.5 146.5q10 169 16 294.5t19 203.5t41.5 169.5t89.5 236.5q9 15 17 12q7 -3 -7 -117.5t-29 -339.5q-2 -59 -6.5 -143.5t-5.5 -119.5q-5 -118 -24.5 -197.5t-35.5 -126.5q-14 -45 -38.5 -105.5t-69 -128t-89.5 -109.5q-70 -60 -148 -59 q-41 2 -74 21q-31 21 -58 51q-24 20 -30 26q-21 19 -21 40zM189 1431.5q7 16.5 29 42t48 54.5l11 10v4q-27 10 -54 26.5t-25 26.5q1 27 87 111q46 51 47 51q38 30 72 26q20 -2 35 -16t13 -34q-1 -14 -12.5 -24.5t-25.5 -9.5q-3 0 -16.5 9.5t-32.5 10.5q-17 3 -39 -12 t-22 -23q-2 -23 23 -37t57 -18q20 -3 65 14q29 10 67 31q7 4 12 0.5t5 -7.5q-2 -14 -90 -67t-151 -110.5t-69 -57.5q-25 -18 -33 -17.5t-1 17z" />
<glyph unicode="&#xfedf;&#xfe88;" horiz-adv-x="645" arabic-form="isolated" d="M-39 -440.5q7 16.5 29 42t48 54.5l11 10v4q-27 10 -54 26.5t-25 26.5q1 27 87 111q46 51 47 51q38 30 72 26q20 -2 35 -16t13 -34q-1 -14 -12.5 -24.5t-25.5 -9.5q-3 0 -16.5 9.5t-32.5 10.5q-17 3 -39 -12t-22 -23q-2 -23 23 -37t57 -18q20 -3 65 14q29 10 67 31 q7 4 12 0.5t5 -7.5q-2 -14 -90 -67t-151 -110.5t-69 -57.5q-25 -18 -33 -17.5t-1 17zM2 138q0 15 15 34.5t33 43.5q9 12 24 36t27 63.5t18 104t8 111.5q1 46 2 92.5t-1 100.5q5 138 50 300q30 110 99 296q3 9 7.5 15t7.5 6q10 0 9 -56q0 -27 -22.5 -327t-37 -388.5 t-42.5 -170.5q-39 -122 -99 -209q3 -6 24 -6.5t36 -0.5q82 -3 164.5 63.5t110.5 152t28 132v93.5q3 72 1.5 188t2 210.5t41 219t121.5 271.5q11 15 18.5 11.5t-0.5 -50.5q-4 -42 -12 -81q-24 -175 -34 -405q-2 -58 -5 -143t-4 -119q-3 -119 -25 -198.5t-37 -124.5t-34 -94 q-29 -74 -62 -125q-55 -84 -102 -126q-69 -60 -147 -58q-42 1 -73.5 20.5t-59.5 51.5q-23 18 -29 24q-22 21 -21 42z" />
<glyph unicode="&#xfee0;&#xfe88;" horiz-adv-x="867" arabic-form="final" d="M221 -423.5q7 16.5 29 42t48 54.5l11 10v4q-27 10 -54 26.5t-25 26.5q1 27 87 111q46 51 47 51q38 30 72 26q20 -2 35 -16t13 -34q-1 -14 -12.5 -24.5t-25.5 -9.5q-3 0 -16.5 9.5t-32.5 10.5q-17 3 -39 -12t-22 -23q-2 -23 23 -37t57 -18q20 -3 65 14q29 10 67 31 q7 4 12 0.5t5 -7.5q-2 -14 -90 -67t-151 -110.5t-69 -57.5q-25 -18 -33 -17.5t-1 17zM274 139q0 15 15 35q15 19 34 43q9 12 24 36t26.5 64t18.5 104q6 65 8 111l3 93q1 48 0 101q3 138 48 300q31 109 100 295q5 12 9.5 16.5t7.5 4.5q10 -1 9 -57q-2 -27 -6 -87 q-5 -61 -6 -78l-33 -390q-3 -70 -17 -160q-15 -87 -43 -170q-39 -121 -101 -208q3 -6 24 -6l38 -2q82 -3 164.5 62.5t105 138t24.5 146.5q10 169 16 294.5t19 203.5t41.5 169.5t89.5 236.5q9 15 17 12q7 -3 -7 -117.5t-29 -339.5q-2 -59 -6.5 -143.5t-5.5 -119.5 q-5 -118 -24.5 -197.5t-35.5 -126.5q-14 -45 -38.5 -105.5t-69 -128t-89.5 -109.5q-70 -60 -148 -59q-41 2 -74 21q-31 21 -58 51q-24 20 -30 26q-21 19 -21 40z" />
<glyph unicode="&#xfedf;&#xfe8e;" horiz-adv-x="663" arabic-form="isolated" d="M-2 138q0 15 15 34.5t33 43.5q9 12 24 36t27 63.5t18 104t8 111.5q1 46 2 92.5t-1 100.5q5 138 50 300q30 110 99 296q3 9 7.5 15t7.5 6q10 0 9 -56q0 -27 -22.5 -327t-37 -388.5t-42.5 -170.5q-39 -122 -99 -209q3 -6 24 -6.5t36 -0.5q82 -3 164.5 63.5t110.5 152 t28 132v93.5q3 72 1.5 188t2 210.5t41 219t121.5 271.5q11 15 18.5 11.5t-0.5 -50.5q-4 -42 -12 -81q-24 -175 -34 -405q-2 -58 -5 -143t-4 -119q-3 -119 -25 -198.5t-37 -124.5t-34 -94q-29 -74 -62 -125q-55 -84 -102 -126q-69 -60 -147 -58q-42 1 -73.5 20.5t-59.5 51.5 q-23 18 -29 24q-22 21 -21 42z" />
<glyph unicode="&#xfee0;&#xfe8e;" horiz-adv-x="721" arabic-form="final" d="M129 139q0 15 15 35q15 19 34 43q9 12 24 36t26.5 64t18.5 104q6 65 8 111l3 93q1 48 0 101q3 138 48 300q31 109 100 295q5 12 9.5 16.5t7.5 4.5q10 -1 9 -57q-2 -27 -6 -87q-5 -61 -6 -78l-33 -390q-3 -70 -17 -160q-15 -87 -43 -170q-39 -121 -101 -208q3 -6 24 -6 l38 -2q82 -3 164.5 62.5t105 138t24.5 146.5q10 169 16 294.5t19 203.5t41.5 169.5t89.5 236.5q9 15 17 12q7 -3 -7 -117.5t-29 -339.5q-2 -59 -6.5 -143.5t-5.5 -119.5q-5 -118 -24.5 -197.5t-35.5 -126.5q-14 -45 -38.5 -105.5t-69 -128t-89.5 -109.5q-70 -60 -148 -59 q-41 2 -74 21q-31 21 -58 51q-24 20 -30 26q-21 19 -21 40z" />
<glyph unicode="&#xfb90;&#xfee4;&#xfb8f;" horiz-adv-x="2901" d="M130 234q2 99 14 210t42 97q9 0 13 -60q5 -60 45 -106q84 -92 402 -92q171 0 278 9q501 42 822 243q148 87 235 212q62 88 101 226l42 176q7 31 70 156q18 40 32 67l19 39q4 10 10 15.5t11 5.5t8.5 -6t2.5 -19q-15 -62 -23 -105q-75 -384 -90 -527q42 27 765 587 q141 108 268 214.5t314 274.5q246 225 264 231q45 3 -144 -257q-46 -58 -207.5 -199t-559 -448.5t-419.5 -324.5q214 -40 273 -63q54 -22 54 -54q0 -22 -24 -58q-30 -44 -42 -57q-21 -21 -45 -36q-23 -15 -41 -24q-15 -11 -111 -39q-34 -11 -90 -35q-90 -39 -99 -57 q-3 -13 6 -22q18 -17 60 -18h62q30 -3 30 -35q0 -22 -24 -94q-42 -126 -110 -194q-70 -70 -154 -70q-80 0 -125 79q-45 81 -45 197q3 141 13 225.5t19 149.5q0 10 -3 12q-6 1 -12 -5q-29 -39 -41 -55q-48 -68 -84 -117q-90 -114 -231 -218q-138 -102 -294 -160 q-157 -59 -355 -99q-194 -42 -411 -42h-45q-123 0 -216 15q-132 24 -179 82q-48 57 -51 173zM2154 570q0 -203 45 -218q3 3 7.5 16.5t19.5 51.5q24 49 66 88q42 38 94 60l156 63q26 14 26 21q1 17 -81.5 43t-169.5 2q-88 -30 -160 -90q-3 -19 -3 -37zM2280 1459 q-27 5 48 122q34 52 78 96q75 73 230 200.5t475.5 397t514.5 463t206 202.5q18 12 11 -23q-30 -52 -71.5 -127t-89.5 -135q-54 -69 -106 -128q-75 -76 -178 -170.5t-407.5 -346.5t-504.5 -406t-206 -145z" />
<glyph unicode="&#xfebb;&#xfeea;" horiz-adv-x="1576" d="M-5 -60q-22 15 30 97q62 86 156 185q72 76 111 105q84 61 167 61q42 0 73 -12q83 -37 107 -37q63 0 103 24q42 25 78 70q51 63 59 68q40 40 70 40q17 0 53 -16q30 -17 58 -17l104 144q81 108 99 126q94 107 165 107q63 0 102 -39q27 -32 27 -71q0 -114 -84 -252 q-86 -138 -177 -196q-105 -74 -218 -74q-90 0 -150 30q-45 21 -64 35q-33 0 -80 -74q-57 -81 -99 -126q-87 -102 -211 -102q-51 0 -105 32q-54 30 -95 30q-55 0 -129 -45q-57 -33 -150 -93zM1119 505q0 -7 33 -7q34 0 82 7q38 3 81 24q59 26 102 69q41 38 48 72q2 15 -43 32 q-45 18 -80 18q-37 0 -88 -47q-23 -18 -135 -168z" />
<glyph unicode="&#xfecb;&#xfeea;" horiz-adv-x="1092" d="M-3 -15q-15 15 22 61q57 74 200 197q37 36 109 79q86 50 144 50q48 0 92 -18q42 -17 48 -17q9 24 20 49l22 50q16 35 35 70t38 71q63 105 113 141q49 36 106 36q51 0 83 -24q30 -25 30 -52q0 -65 -51 -65q-8 0 -35 14q-27 15 -67 15q-60 0 -104 -39q-40 -39 -40 -87 q-8 -44 30 -66q39 -24 76 -30q69 -9 140 82q64 89 76 87q26 -13 -43 -138q-113 -193 -218 -279q-193 -163 -337 -163q-59 0 -123 31q-68 30 -120 30q-74 0 -155 -46q-85 -45 -91 -39z" />
<glyph unicode="&#xfed3;&#xfeea;" horiz-adv-x="943" d="M22 -50q0 21 26 59q28 45 69 99q55 76 75 97q54 63 111 102q79 53 156 53q40 0 82 -11q38 -9 47 -9q75 0 144 44q67 42 67 76q0 15 -39 50q-7 6 -22 18q-20 -12 -24 -12q-33 -15 -59 -15q-55 0 -88 27q-35 27 -35 85q0 6 80 194q19 46 51 88q27 32 57 32q78 0 151 -75 q72 -77 72 -198q0 -98 -57 -234q-52 -117 -106 -195q-65 -90 -134 -149q-94 -76 -190 -76q-38 0 -89 18q-51 19 -90 19q-54 0 -103 -28q-35 -20 -74 -57q-43 -39 -61 -26q-17 9 -17 24zM642 1572q0 33 53 138t69 113q32 14 91.5 -49.5t63.5 -99.5q0 -47 -50 -136.5 t-72 -89.5q-9 0 -59 34.5t-75 54.5q-21 18 -21 35z" />
<glyph unicode="&#xfb90;&#xfeea;" horiz-adv-x="886" d="M22 -80q-15 8 3 50q5 9 11.5 18.5t12.5 23.5q33 60 81 120q26 30 43 53t28 38q34 44 91 78q59 30 99 30q26 0 65 -10q40 -11 54 -11q73 6 114 41q42 36 58 82q11 21 12 48q3 20 3 65v30.5v33.5q-3 18 -3 29l-3 285q0 91 5 171q4 75 16 106q14 29 45 122q32 88 63 159 q14 15 20 13q9 -4 9 -25q0 -6 -8 -33l-12 -231q-4 -104 -9 -230q0 -63 -1.5 -125t-1.5 -124q0 -103 -27 -216q-28 -112 -67 -198q-56 -123 -120 -199q-99 -117 -212 -117q-27 0 -70 15q-42 16 -68 16q-46 0 -96 -25q-15 -9 -58 -39l-41 -36q-19 -17 -36 -8zM843 1501 q30 75 55 122q29 52 71 96q63 67 288 250q99 78 196.5 157t196.5 160q135 111 270 237q93 84 241 232q231 219 231 228q0 -16 -6 -28q-7 -41 -58 -129q-48 -84 -83 -129q-34 -45 -106 -128q-75 -81 -90 -96q-23 -22 -62 -58t-96 -86q-63 -58 -247 -214q-111 -95 -209 -170 q-61 -48 -122 -95t-124 -92l-211 -165q-51 -44 -89 -69q-42 -33 -46 -23z" />
<glyph unicode="&#xfee3;&#xfeea;" horiz-adv-x="1350" d="M10 -80q-27 17 59 120q81 101 169 180q53 48 119 90q96 56 151 56q30 0 62 -14q67 -27 115 -27q104 0 167 56q39 33 103 138q35 49 76 91t76 62q13 12 52 67q11 17 22 33.5t20 34.5q21 0 75 -84t54 -158q0 -69 -48 -127q-46 -60 -96 -60q-37 0 -76 9q-41 9 -59 9 q-46 0 -117 -77q-9 -10 -97 -123q-89 -112 -126 -138q-81 -58 -197 -58q-60 0 -120 28q-60 27 -102 27q-64 0 -133 -46q-140 -92 -149 -89z" />
<glyph unicode="&#xfedf;&#xfeea;" horiz-adv-x="876" d="M28 -80q-16 8 3 50q5 9 26 42q28 57 79 120q24 30 41.5 53t29.5 38q33 44 91 78q57 30 99 30q24 0 65 -10q39 -11 55 -11q72 6 113 41q40 36 58 82q9 21 12 48q3 20 3 65v30.5v33.5q-3 18 -3 29l-3 285q0 91 5 171q3 75 16 106q14 29 45 122q41 111 63 159q12 15 20 13 q9 -4 9 -25l-6 -33l-14 -231q-4 -104 -9 -230q-1 -63 -2 -125t-1 -124q0 -103 -27 -216q-30 -112 -67 -198q-57 -123 -120 -199q-99 -117 -212 -117q-28 0 -70 15q-44 16 -68 16q-48 0 -96 -25q-16 -9 -58 -39l-41 -36q-21 -17 -36 -8z" />
<glyph unicode="&#xfec3;&#xfeea;" horiz-adv-x="1227" d="M78 -54q10 27 40 63q98 123 143 169q64 69 120 111q52 42 102 54q42 12 69 12q21 0 55 -6q48 -6 45 -6q12 15 29 41q4 10 11 22t14 26q15 28 30 61q12 27 29 83q13 46 18 112q4 68 4 125q0 189 38 292l123 291q7 11 12 11q6 1 9 4q9 0 9 -24q0 -28 -6 -52 q-8 -33 -14 -61.5t-9 -51.5q-9 -42 -15 -126q-4 -40 -8.5 -82t-9.5 -87q-10 -102 -16 -129t-38 -129q-16 -48 -16 -53q84 108 108 129q73 68 156 68q49 0 84 -32q33 -33 33 -100q0 -89 -56 -200q-52 -105 -150 -234q-96 -126 -208 -186q-117 -61 -225 -61q-17 0 -89 15 q-69 16 -129 16q-63 0 -132 -37q-4 -5 -85 -53q-32 -21 -51 -30q-14 -7 -23 0q-13 8 -1 35zM717 334q178 0 313 111q41 35 95 111q0 18 -47 30q-51 12 -94 12q-36 0 -71 -16q-34 -18 -67 -63z" />
<glyph unicode="&#xfeb3;&#xfeea;" horiz-adv-x="1345" d="M15 -36q-18 13 51 94q70 84 157 153q59 44 138 81q80 39 123 39q42 0 95 -24q57 -25 96 -25q58 0 99 16q37 15 72 45q22 27 49 47q36 27 62 27q9 0 37 -11q32 -10 36 -10q56 0 95 58q30 48 40 62q20 -6 41 -6q18 0 34 9q15 7 47 66q28 57 37 57q17 0 17 -23 q0 -19 -17 -66q-21 -63 -45 -112q-24 -51 -57 -86q-34 -34 -64 -45q-26 -12 -60 -19q-26 -18 -44 -31t-27 -20q-42 -32 -76 -29l-59 6q-48 0 -93 -30q5 3 -79 -67q-90 -78 -95 -80q-61 -40 -138 -40q-54 0 -114 28q-61 27 -100 27q-59 0 -123 -31q-134 -65 -135 -60z" />
<glyph unicode="&#xfea3;&#xfeea;" horiz-adv-x="1132" d="M4 -68q3 18 38 74l36 50t34 49q42 52 87 97q51 53 123 96q72 42 126 42q18 0 72 -18q27 -9 57 -9q102 0 188 75q87 75 87 104q-32 16 -56.5 27.5t-42.5 20.5q-35 16 -65 16q-34 0 -70 -25q-12 -9 -45 -47q-27 -36 -44 -27q-9 2 -3 23q5 18 18 42q45 75 68 97 q58 62 120 62q31 0 115 -35q90 -36 123 -36q32 0 48 8q9 4 39 22q21 14 33 14q18 0 18 -18q0 -32 -21 -71q-16 -39 -33 -54q-13 -12 -31 -22q-47 -36 -77 -62q-54 -58 -85 -96q-11 -13 -53 -70q-87 -116 -144 -165q-108 -96 -228 -96q-28 0 -85 19q-53 21 -71 21 q-43 5 -87 -16q-42 -20 -105 -68q-60 -45 -75 -45q-13 0 -9 21z" />
<glyph unicode="&#xfe91;&#xfeea;" horiz-adv-x="684" d="M15 -86q-15 6 1 53q17 42 47 91q42 62 81 110q34 45 75 78q28 25 70 45q35 18 71 16q57 -10 96 -10q48 -3 84 15q34 15 55 51q9 13 19 27.5t25.5 36t26.5 21.5q13 0 13 -24q0 -57 -67 -187q-36 -77 -78 -126q-62 -71 -141 -99q-21 -9 -65 -9q-9 0 -57 6q-34 6 -55 6 q-65 0 -125 -51q-12 -12 -43 -36q-20 -17 -33 -14zM259 -963q0 -17 21 -35q25 -20 75 -54.5t59 -34.5q22 0 72 89.5t50 136.5q-4 36 -63.5 99.5t-91.5 49.5q-16 -8 -69 -113t-53 -138z" />
<glyph unicode="&#xfebf;&#xfeea;" horiz-adv-x="1579" d="M-2 -60q-22 15 30 97q62 86 156 185q72 76 111 105q84 61 167 61q42 0 73 -12q83 -37 107 -37q63 0 103 24q42 25 78 70q51 63 59 68q40 40 70 40q17 0 53 -16q30 -17 58 -17l104 144q81 108 99 126q94 107 165 107q63 0 102 -39q27 -32 27 -71q0 -114 -84 -252 q-86 -138 -177 -196q-105 -74 -218 -74q-90 0 -150 30q-45 21 -64 35q-33 0 -80 -74q-57 -81 -99 -126q-87 -102 -211 -102q-51 0 -105 32q-54 30 -95 30q-55 0 -129 -45q-57 -33 -150 -93zM1096 1431q0 33 53 138t69 113q32 14 91.5 -49.5t63.5 -99.5q0 -47 -50 -136.5 t-72 -89.5q-9 0 -59 34.5t-75 54.5q-21 18 -21 35zM1122 505q0 -7 33 -7q34 0 82 7q38 3 81 24q59 26 102 69q41 38 48 72q2 15 -43 32q-45 18 -80 18q-37 0 -88 -47q-23 -18 -135 -168z" />
<glyph unicode="&#xfecf;&#xfeea;" horiz-adv-x="1137" d="M42 -15q-15 15 22 61q57 74 200 197q37 36 109 79q86 50 144 50q48 0 92 -18q42 -17 48 -17q9 24 20 49l22 50q16 35 35 70t38 71q63 105 113 141q49 36 106 36q51 0 83 -24q30 -25 30 -52q0 -65 -51 -65q-8 0 -35 14q-27 15 -67 15q-60 0 -104 -39q-40 -39 -40 -87 q-8 -44 30 -66q39 -24 76 -30q69 -9 140 82q64 89 76 87q26 -13 -43 -138q-113 -193 -218 -279q-193 -163 -337 -163q-59 0 -123 31q-68 30 -120 30q-74 0 -155 -46q-85 -45 -91 -39zM721 1367q0 33 53 138t69 113q32 14 91.5 -49.5t63.5 -99.5q0 -47 -50 -136.5t-72 -89.5 q-9 0 -59 34.5t-75 54.5q-21 18 -21 35z" />
<glyph unicode="&#xfeb7;&#xfeea;" horiz-adv-x="1345" d="M15 -36q-18 13 51 94q70 84 157 153q59 44 138 81q80 39 123 39q42 0 95 -24q57 -25 96 -25q58 0 99 16q37 15 72 45q22 27 49 47q36 27 62 27q9 0 37 -11q32 -10 36 -10q56 0 95 58q30 48 40 62q20 -6 41 -6q18 0 34 9q15 7 47 66q28 57 37 57q17 0 17 -23 q0 -19 -17 -66q-21 -63 -45 -112q-24 -51 -57 -86q-34 -34 -64 -45q-26 -12 -60 -19q-26 -18 -44 -31t-27 -20q-42 -32 -76 -29l-59 6q-48 0 -93 -30q5 3 -79 -67q-90 -78 -95 -80q-61 -40 -138 -40q-54 0 -114 28q-61 27 -100 27q-59 0 -123 -31q-134 -65 -135 -60z M689 1241q0 18 64 135.5t79 119.5q24 0 75.5 -43.5t69.5 -82.5q33 54 63 105q44 72 54 72q36 0 92 -51q54 -57 54 -105q0 -55 -54 -138q-56 -79 -80 -79q-19 0 -55 37q-50 53 -83 77q-82 -168 -129 -168q-10 0 -80 55.5t-70 65.5zM826 1613q0 15 55.5 132t73.5 119 q42 0 93 -51q51 -57 51 -110q0 -49 -47.5 -136t-69.5 -87q-14 0 -60.5 41t-71 59t-24.5 33z" />
<glyph unicode="&#xfec7;&#xfeea;" horiz-adv-x="1161" d="M12 -54q10 27 40 63q98 123 143 169q64 69 120 111q52 42 102 54q42 12 69 12q21 0 55 -6q48 -6 45 -6q12 15 29 41q4 10 11 22t14 26q15 28 30 61q12 27 29 83q13 46 18 112q4 68 4 125q0 189 38 292l123 291q7 11 12 11q6 1 9 4q9 0 9 -24q0 -28 -6 -52 q-8 -33 -14 -61.5t-9 -51.5q-9 -42 -15 -126q-4 -40 -8.5 -82t-9.5 -87q-10 -102 -16 -129t-38 -129q-16 -48 -16 -53q84 108 108 129q73 68 156 68q49 0 84 -32q33 -33 33 -100q0 -89 -56 -200q-52 -105 -150 -234q-96 -126 -208 -186q-117 -61 -225 -61q-17 0 -89 15 q-69 16 -129 16q-63 0 -132 -37q-4 -5 -85 -53q-32 -21 -51 -30q-14 -7 -23 0q-13 8 -1 35zM651 334q178 0 313 111q41 35 95 111q0 18 -47 30q-51 12 -94 12q-36 0 -71 -16q-34 -18 -67 -63zM1002 1523q0 33 53 138t69 113q32 14 91.5 -49.5t63.5 -99.5q0 -47 -50 -136.5 t-72 -89.5q-9 0 -59 34.5t-75 54.5q-21 18 -21 35z" />
<glyph unicode="&#xfed7;&#xfeea;" horiz-adv-x="943" d="M22 -50q0 21 26 59q28 45 69 99q55 76 75 97q54 63 111 102q79 53 156 53q40 0 82 -11q38 -9 47 -9q75 0 144 44q67 42 67 76q0 15 -39 50q-7 6 -22 18q-20 -12 -24 -12q-33 -15 -59 -15q-55 0 -88 27q-35 27 -35 85q0 6 80 194q19 46 51 88q27 32 57 32q78 0 151 -75 q72 -77 72 -198q0 -98 -57 -234q-52 -117 -106 -195q-65 -90 -134 -149q-94 -76 -190 -76q-38 0 -89 18q-51 19 -90 19q-54 0 -103 -28q-35 -20 -74 -57q-43 -39 -61 -26q-17 9 -17 24zM488 1520q0 20 61 132t76 119q25 10 74 -37t74 -83q30 49 66.5 110t49.5 62 q37 0 89 -54.5t55 -102.5q0 -57 -56 -135q-54 -77 -79 -77q-17 0 -60.5 43.5t-76.5 67.5q-81 -163 -129 -163q-12 0 -34 19q-21 18 -65.5 54t-44.5 45z" />
<glyph unicode="&#xfe97;&#xfeea;" horiz-adv-x="684" d="M15 -86q-15 6 1 53q17 42 47 91q42 62 81 110q34 45 75 78q28 25 70 45q35 18 71 16q57 -10 96 -10q48 -3 84 15q34 15 55 51q9 13 19 27.5t25.5 36t26.5 21.5q13 0 13 -24q0 -57 -67 -187q-36 -77 -78 -126q-62 -71 -141 -99q-21 -9 -65 -9q-9 0 -57 6q-34 6 -55 6 q-65 0 -125 -51q-12 -12 -43 -36q-20 -17 -33 -14zM197 1099q0 20 61 132t76 119q25 10 74 -37t74 -83q30 49 66.5 110t49.5 62q37 0 89 -54.5t55 -102.5q0 -57 -56 -135q-54 -77 -79 -77q-17 0 -60.5 43.5t-76.5 67.5q-81 -163 -129 -163q-12 0 -34 19q-21 18 -65.5 54 t-44.5 45z" />
<glyph unicode="&#xfe9b;&#xfeea;" horiz-adv-x="684" d="M15 -86q-15 6 1 53q17 42 47 91q42 62 81 110q34 45 75 78q28 25 70 45q35 18 71 16q57 -10 96 -10q48 -3 84 15q34 15 55 51q9 13 19 27.5t25.5 36t26.5 21.5q13 0 13 -24q0 -57 -67 -187q-36 -77 -78 -126q-62 -71 -141 -99q-21 -9 -65 -9q-9 0 -57 6q-34 6 -55 6 q-65 0 -125 -51q-12 -12 -43 -36q-20 -17 -33 -14zM224 1133q0 18 64 135.5t79 119.5q24 0 75.5 -43.5t69.5 -82.5q33 54 63 105q44 72 54 72q36 0 92 -51q54 -57 54 -105q0 -55 -54 -138q-56 -79 -80 -79q-19 0 -55 37q-50 53 -83 77q-82 -168 -129 -168q-10 0 -80 55.5 t-70 65.5zM361 1505q0 15 55.5 132t73.5 119q42 0 93 -51q51 -57 51 -110q0 -49 -47.5 -136t-69.5 -87q-14 0 -60.5 41t-71 59t-24.5 33z" />
<glyph unicode="&#xfb58;&#xfeea;" horiz-adv-x="684" d="M15 -86q-15 6 1 53q17 42 47 91q42 62 81 110q34 45 75 78q28 25 70 45q35 18 71 16q57 -10 96 -10q48 -3 84 15q34 15 55 51q9 13 19 27.5t25.5 36t26.5 21.5q13 0 13 -24q0 -57 -67 -187q-36 -77 -78 -126q-62 -71 -141 -99q-21 -9 -65 -9q-9 0 -57 6q-34 6 -55 6 q-65 0 -125 -51q-12 -12 -43 -36q-20 -17 -33 -14zM79 -1065q0 -11 66 -66.5t76 -55.5q45 0 123 168q32 -24 80 -76q34 -38 52 -38q24 0 75 80q53 82 53 138q0 48 -53 106q-51 51 -85 51q-11 0 -53 -73q-28 -51 -60 -104q-16 38 -65.5 82t-73.5 44q-14 0 -74.5 -119 t-60.5 -137zM220 -1346q0 -13 20 -31t42 -39t44 -44q17 -21 29 -22q18 0 66 73q46 77 49 129q3 48 -39.5 100.5t-78.5 55.5q-14 2 -72.5 -102.5t-59.5 -119.5z" />
<glyph unicode="&#xfee7;&#xfeea;" horiz-adv-x="684" d="M15 -86q-15 6 1 53q17 42 47 91q42 62 81 110q34 45 75 78q28 25 70 45q35 18 71 16q57 -10 96 -10q48 -3 84 15q34 15 55 51q9 13 19 27.5t25.5 36t26.5 21.5q13 0 13 -24q0 -57 -67 -187q-36 -77 -78 -126q-62 -71 -141 -99q-21 -9 -65 -9q-9 0 -57 6q-34 6 -55 6 q-65 0 -125 -51q-12 -12 -43 -36q-20 -17 -33 -14zM369 1007q0 33 53 138t69 113q32 14 91.5 -49.5t63.5 -99.5q0 -47 -50 -136.5t-72 -89.5q-9 0 -59 34.5t-75 54.5q-21 18 -21 35z" />
<glyph unicode="&#xfbfe;&#xfeea;" horiz-adv-x="684" d="M15 -86q-15 6 1 53q17 42 47 91q42 62 81 110q34 45 75 78q28 25 70 45q35 18 71 16q57 -10 96 -10q48 -3 84 15q34 15 55 51q9 13 19 27.5t25.5 36t26.5 21.5q13 0 13 -24q0 -57 -67 -187q-36 -77 -78 -126q-62 -71 -141 -99q-21 -9 -65 -9q-9 0 -57 6q-34 6 -55 6 q-65 0 -125 -51q-12 -12 -43 -36q-20 -17 -33 -14zM79 -1090q0 -9 44.5 -45t65.5 -54q22 -19 34 -19q48 0 129 163q33 -24 76.5 -67.5t60.5 -43.5q25 0 79 77q56 78 56 135q-3 48 -55 102.5t-89 54.5q-13 -1 -49.5 -62t-66.5 -110q-25 36 -74 83t-74 37q-15 -7 -76 -119 t-61 -132z" />
<glyph unicode="&#xfe8b;&#xfeea;" horiz-adv-x="684" d="M15 -86q-15 6 1 53q17 42 47 91q42 62 81 110q34 45 75 78q28 25 70 45q35 18 71 16q57 -10 96 -10q48 -3 84 15q34 15 55 51q9 13 19 27.5t25.5 36t26.5 21.5q13 0 13 -24q0 -57 -67 -187q-36 -77 -78 -126q-62 -71 -141 -99q-21 -9 -65 -9q-9 0 -57 6q-34 6 -55 6 q-65 0 -125 -51q-12 -12 -43 -36q-20 -17 -33 -14zM363 974.5q7 16.5 29 42t48 54.5l11 10v4q-27 10 -54 26.5t-25 26.5q1 27 87 111q46 51 47 51q38 30 72 26q20 -2 35 -16t13 -34q-1 -14 -12.5 -24.5t-25.5 -9.5q-3 0 -16.5 9.5t-32.5 10.5q-17 3 -39 -12t-22 -23 q-2 -23 23 -37t57 -18q20 -3 65 14q29 10 67 31q7 4 12 0.5t5 -7.5q-2 -14 -90 -67t-151 -110.5t-69 -57.5q-25 -18 -33 -17.5t-1 17z" />
<glyph unicode="&#xfea7;&#xfeea;" horiz-adv-x="1132" d="M4 -68q3 18 38 74l36 50t34 49q42 52 87 97q51 53 123 96q72 42 126 42q18 0 72 -18q27 -9 57 -9q102 0 188 75q87 75 87 104q-32 16 -56.5 27.5t-42.5 20.5q-35 16 -65 16q-34 0 -70 -25q-12 -9 -45 -47q-27 -36 -44 -27q-9 2 -3 23q5 18 18 42q45 75 68 97 q58 62 120 62q31 0 115 -35q90 -36 123 -36q32 0 48 8q9 4 39 22q21 14 33 14q18 0 18 -18q0 -32 -21 -71q-16 -39 -33 -54q-13 -12 -31 -22q-47 -36 -77 -62q-54 -58 -85 -96q-11 -13 -53 -70q-87 -116 -144 -165q-108 -96 -228 -96q-28 0 -85 19q-53 21 -71 21 q-43 5 -87 -16q-42 -20 -105 -68q-60 -45 -75 -45q-13 0 -9 21zM705 1385q0 33 53 138t69 113q32 14 91.5 -49.5t63.5 -99.5q0 -47 -50 -136.5t-72 -89.5q-9 0 -59 34.5t-75 54.5q-21 18 -21 35z" />
<glyph unicode="&#xfe9f;&#xfeea;" horiz-adv-x="1132" d="M4 -68q3 18 38 74l36 50t34 49q42 52 87 97q51 53 123 96q72 42 126 42q18 0 72 -18q27 -9 57 -9q102 0 188 75q87 75 87 104q-32 16 -56.5 27.5t-42.5 20.5q-35 16 -65 16q-34 0 -70 -25q-12 -9 -45 -47q-27 -36 -44 -27q-9 2 -3 23q5 18 18 42q45 75 68 97 q58 62 120 62q31 0 115 -35q90 -36 123 -36q32 0 48 8q9 4 39 22q21 14 33 14q18 0 18 -18q0 -32 -21 -71q-16 -39 -33 -54q-13 -12 -31 -22q-47 -36 -77 -62q-54 -58 -85 -96q-11 -13 -53 -70q-87 -116 -144 -165q-108 -96 -228 -96q-28 0 -85 19q-53 21 -71 21 q-43 5 -87 -16q-42 -20 -105 -68q-60 -45 -75 -45q-13 0 -9 21zM396 -1017q0 -17 21 -35q25 -20 75 -54.5t59 -34.5q22 0 72 89.5t50 136.5q-4 36 -63.5 99.5t-91.5 49.5q-16 -8 -69 -113t-53 -138z" />
<glyph unicode="&#xfb7c;&#xfeea;" horiz-adv-x="1132" d="M4 -68q3 18 38 74l36 50t34 49q42 52 87 97q51 53 123 96q72 42 126 42q18 0 72 -18q27 -9 57 -9q102 0 188 75q87 75 87 104q-32 16 -56.5 27.5t-42.5 20.5q-35 16 -65 16q-34 0 -70 -25q-12 -9 -45 -47q-27 -36 -44 -27q-9 2 -3 23q5 18 18 42q45 75 68 97 q58 62 120 62q31 0 115 -35q90 -36 123 -36q32 0 48 8q9 4 39 22q21 14 33 14q18 0 18 -18q0 -32 -21 -71q-16 -39 -33 -54q-13 -12 -31 -22q-47 -36 -77 -62q-54 -58 -85 -96q-11 -13 -53 -70q-87 -116 -144 -165q-108 -96 -228 -96q-28 0 -85 19q-53 21 -71 21 q-43 5 -87 -16q-42 -20 -105 -68q-60 -45 -75 -45q-13 0 -9 21zM315 -1020q0 -11 66 -66.5t76 -55.5q45 0 123 168q32 -24 80 -76q34 -38 52 -38q24 0 75 80q53 82 53 138q0 48 -53 106q-51 51 -85 51q-11 0 -53 -73q-28 -51 -60 -104q-16 38 -65.5 82t-73.5 44 q-14 0 -74.5 -119t-60.5 -137zM456 -1301q0 -13 20 -31t42 -39t44 -44q17 -21 29 -22q18 0 66 73q46 77 49 129q3 48 -39.5 100.5t-78.5 55.5q-14 2 -72.5 -102.5t-59.5 -119.5z" />
<glyph unicode="&#xfb94;&#xfeea;" horiz-adv-x="886" d="M22 -80q-15 8 3 50q5 9 11.5 18.5t12.5 23.5q33 60 81 120q26 30 43 53t28 38q34 44 91 78q59 30 99 30q26 0 65 -10q40 -11 54 -11q73 6 114 41q42 36 58 82q11 21 12 48q3 20 3 65v30.5v33.5q-3 18 -3 29l-3 285q0 91 5 171q4 75 16 106q14 29 45 122q32 88 63 159 q14 15 20 13q9 -4 9 -25q0 -6 -8 -33l-12 -231q-4 -104 -9 -230q0 -63 -1.5 -125t-1.5 -124q0 -103 -27 -216q-28 -112 -67 -198q-56 -123 -120 -199q-99 -117 -212 -117q-27 0 -70 15q-42 16 -68 16q-46 0 -96 -25q-15 -9 -58 -39l-41 -36q-19 -17 -36 -8zM843 1501 q30 75 55 122q29 52 71 96q63 67 288 250q99 78 196.5 157t196.5 160q135 111 270 237q93 84 241 232q231 219 231 228q0 -16 -6 -28q-7 -41 -58 -129q-48 -84 -83 -129q-34 -45 -106 -128q-75 -81 -90 -96q-23 -22 -62 -58t-96 -86q-63 -58 -247 -214q-111 -95 -209 -170 q-61 -48 -122 -95t-124 -92l-211 -165q-51 -44 -89 -69q-42 -33 -46 -23zM1855 2584q-15 -1 17 51q36 51 183 192t198 171q10 2 7.5 -7.5t-13 -26t-26.5 -38t-33 -43.5q-157 -159 -333 -299z" />
<glyph unicode="&#x6be;&#xfeea;" horiz-adv-x="1300" d="M57 -95q-14 15 55 110q62 82 156 178q51 51 111 98q99 72 164 72q25 0 73 -11q53 -9 74 -9q103 0 165 87q28 50 47 85t28 55q19 39 51 72q51 52 93 52q25 0 52 -22q35 -24 42 -30q15 22 33 64q17 36 23 36q34 0 55 -33q21 -36 21 -76q0 -56 -39 -123q-48 -83 -120 -83 q-21 0 -37 9q-42 27 -71 27q-61 0 -111 -91q-22 -47 -47 -92t-47 -90q-125 -190 -288 -190q-32 0 -68 12q-76 28 -108 28q-60 0 -117 -28q-58 -29 -97 -63q-44 -38 -59 -42q-16 -9 -34 -2zM826 -467q0 110 92 297q93 188 126 182q-20 -41 -62 -125q-88 -153 -88 -240 q0 -9 48 -31q48 -21 48 -83q0 -43 -27 -81q-26 -37 -63 -37q-39 0 -57 36q-17 39 -17 82z" />
<glyph unicode="&#xfecb;&#xfeae;" horiz-adv-x="1135" d="M-92 24q0 37 147 126q222 132 252 157q65 50 90 92q3 6 53 117q27 64 51 105q37 55 93 97q21 15 18 23q-30 15 -62.5 34.5t-32.5 53.5q0 30 62 117q27 39 85 111q65 86 112 124t91 38q43 0 74 -33.5t31 -63.5q0 -50 -22 -65.5t-49 -6.5q-22 10 -37 16q-35 15 -56 15 q-39 0 -75 -38t-36 -58q0 -24 58.5 -45.5t108.5 -21.5q70 0 127 21.5t113 45.5q15 3 24 0t3 -18q-6 -24 -29.5 -50t-44.5 -47q-9 -11 -27.5 -24.5t-39.5 -25.5l-179 -117q-70 -43 -106 -64q-72 -44 -96 -70t-49 -64.5t-40 -83.5q-61 -151 -114 -231q-64 -96 -144 -135 q-46 -25 -123.5 -41.5t-159.5 -16.5q-24 0 -47.5 4.5t-23.5 22.5z" />
<glyph unicode="&#xfecb;&#xfeb0;" horiz-adv-x="1039" d="M-105 24q0 37 147 126q222 132 252 157q64 50 90 92q3 6 52 117q27 64 51 105q38 55 93 97q21 15 18 23q-30 15 -62 34.5t-32 53.5q0 30 61 117q27 39 86 111q64 86 111.5 124t90.5 38q44 0 74.5 -33.5t30.5 -63.5q0 -50 -21.5 -65.5t-48.5 -6.5q-23 10 -38 16 q-34 15 -55 15q-39 0 -75 -38t-36 -58q0 -24 58.5 -45.5t107.5 -21.5q71 0 128 21.5t112 45.5q15 3 24 0t3 -18q-6 -24 -29 -50t-44 -47q-9 -11 -28 -24.5t-40 -25.5l-178 -117q-71 -43 -107 -64q-72 -44 -96 -70t-48.5 -64.5t-39.5 -83.5q-62 -151 -114 -231 q-65 -96 -144 -135q-47 -25 -124 -41.5t-160 -16.5q-24 0 -47 4.5t-23 22.5zM174 1644q0 33 53 138t69 113q32 14 91.5 -49.5t63.5 -99.5q0 -47 -50 -136.5t-72 -89.5q-9 0 -59 34.5t-75 54.5q-21 18 -21 35z" />
<glyph unicode="&#xfecf;&#xfeae;" horiz-adv-x="976" d="M-101 24q0 37 147 126q222 132 252 157q65 50 90 92q3 6 53 117q27 64 51 105q37 55 93 97q21 15 18 23q-30 15 -62.5 34.5t-32.5 53.5q0 30 62 117q27 39 85 111q65 86 112 124t91 38q43 0 74 -33.5t31 -63.5q0 -50 -22 -65.5t-49 -6.5q-22 10 -37 16q-35 15 -56 15 q-39 0 -75 -38t-36 -58q0 -24 58.5 -45.5t108.5 -21.5q70 0 127 21.5t113 45.5q15 3 24 0t3 -18q-6 -24 -29.5 -50t-44.5 -47q-9 -11 -27.5 -24.5t-39.5 -25.5l-179 -117q-70 -43 -106 -64q-72 -44 -96 -70t-49 -64.5t-40 -83.5q-61 -151 -114 -231q-64 -96 -144 -135 q-46 -25 -123.5 -41.5t-159.5 -16.5q-24 0 -47.5 4.5t-23.5 22.5zM664 1856q0 33 53 138t69 113q32 14 91.5 -49.5t63.5 -99.5q0 -47 -50 -136.5t-72 -89.5q-9 0 -59 34.5t-75 54.5q-21 18 -21 35z" />
<glyph unicode="&#xfecf;&#xfeb0;" horiz-adv-x="990" d="M-108 24q0 37 147 126q222 132 252 157q64 50 90 92q3 6 52 117q27 64 51 105q38 55 93 97q21 15 18 23q-30 15 -62 34.5t-32 53.5q0 30 61 117q27 39 86 111q64 86 111.5 124t90.5 38q44 0 74.5 -33.5t30.5 -63.5q0 -50 -21.5 -65.5t-48.5 -6.5q-23 10 -38 16 q-34 15 -55 15q-39 0 -75 -38t-36 -58q0 -24 58.5 -45.5t107.5 -21.5q71 0 128 21.5t112 45.5q15 3 24 0t3 -18q-6 -24 -29 -50t-44 -47q-9 -11 -28 -24.5t-40 -25.5l-178 -117q-71 -43 -107 -64q-72 -44 -96 -70t-48.5 -64.5t-39.5 -83.5q-62 -151 -114 -231 q-65 -96 -144 -135q-47 -25 -124 -41.5t-160 -16.5q-24 0 -47 4.5t-23 22.5zM297 1673q0 33 53 138t69 113q32 14 91.5 -49.5t63.5 -99.5q0 -47 -50 -136.5t-72 -89.5q-9 0 -59 34.5t-75 54.5q-21 18 -21 35zM790 2084q0 33 53 138t69 113q32 14 91.5 -49.5t63.5 -99.5 q0 -47 -50 -136.5t-72 -89.5q-9 0 -59 34.5t-75 54.5q-21 18 -21 35z" />
<glyph unicode="&#xfecb;&#xfb8b;" horiz-adv-x="1036" d="M-80 24q0 37 147 126q222 132 252 157q65 50 90 92q3 6 53 117q27 64 51 105q37 55 93 97q21 15 18 23q-30 15 -62.5 34.5t-32.5 53.5q0 30 62 117q27 39 85 111q65 86 112 124t91 38q43 0 74 -33.5t31 -63.5q0 -50 -22 -65.5t-49 -6.5q-22 10 -37 16q-35 15 -56 15 q-39 0 -75 -38t-36 -58q0 -24 58.5 -45.5t108.5 -21.5q70 0 127 21.5t113 45.5q15 3 24 0t3 -18q-6 -24 -29.5 -50t-44.5 -47q-9 -11 -27.5 -24.5t-39.5 -25.5l-179 -117q-70 -43 -106 -64q-72 -44 -96 -70t-49 -64.5t-40 -83.5q-61 -151 -114 -231q-64 -96 -144 -135 q-46 -25 -123.5 -41.5t-159.5 -16.5q-24 0 -47.5 4.5t-23.5 22.5zM262 1721q0 18 64 135.5t79 119.5q24 0 75.5 -43.5t69.5 -82.5q33 54 63 105q44 72 54 72q36 0 92 -51q54 -57 54 -105q0 -55 -54 -138q-56 -79 -80 -79q-19 0 -55 37q-50 53 -83 77q-82 -168 -129 -168 q-10 0 -80 55.5t-70 65.5zM399 2093q0 15 55.5 132t73.5 119q42 0 93 -51q51 -57 51 -110q0 -49 -47.5 -136t-69.5 -87q-14 0 -60.5 41t-71 59t-24.5 33z" />
<glyph unicode="&#xfecf;&#xfb8b;" horiz-adv-x="1174" d="M24 24q0 37 147 126q222 132 252 157q64 50 90 92q3 6 52 117q27 64 51 105q38 55 93 97q21 15 18 23q-30 15 -62 34.5t-32 53.5q0 30 61 117q27 39 86 111q64 86 111.5 124t90.5 38q44 0 74.5 -33.5t30.5 -63.5q0 -50 -21.5 -65.5t-48.5 -6.5q-23 10 -38 16 q-34 15 -55 15q-39 0 -75 -38t-36 -58q0 -24 58.5 -45.5t107.5 -21.5q71 0 128 21.5t112 45.5q15 3 24 0t3 -18q-6 -24 -29 -50t-44 -47q-9 -11 -28 -24.5t-40 -25.5l-178 -117q-71 -43 -107 -64q-72 -44 -96 -70t-48.5 -64.5t-39.5 -83.5q-62 -151 -114 -231 q-65 -96 -144 -135q-47 -25 -124 -41.5t-160 -16.5q-24 0 -47 4.5t-23 22.5zM239 1595q0 18 64 135.5t79 119.5q24 0 75.5 -43.5t69.5 -82.5q33 54 63 105q44 72 54 72q36 0 92 -51q54 -57 54 -105q0 -55 -54 -138q-56 -79 -80 -79q-19 0 -55 37q-50 53 -83 77 q-82 -168 -129 -168q-10 0 -80 55.5t-70 65.5zM376 1967q0 15 55.5 132t73.5 119q42 0 93 -51q51 -57 51 -110q0 -49 -47.5 -136t-69.5 -87q-14 0 -60.5 41t-71 59t-24.5 33zM952 2055q0 33 53 138t69 113q32 14 91.5 -49.5t63.5 -99.5q0 -47 -50 -136.5t-72 -89.5 q-9 0 -59 34.5t-75 54.5q-21 18 -21 35z" />
<glyph unicode="&#x6be;&#xfeae;" horiz-adv-x="1104" d="M-111 12q0 25 58.5 71t148.5 98q54 24 112.5 62.5t105 80.5t90.5 134t73 131q42 62 168 126q-24 18 -24 74q0 31 24.5 97t66.5 143q20 58 29 96q21 73 36 73q37 -31 98.5 -69.5t160 -57t132 -52.5t33.5 -88q0 -81 -51 -144t-106 -63l-62 3q-73 0 -91 -16.5t-49 -50 t-51 -46.5t-54 -31t-55 -27q-114 -49 -172 -108q-41 -40 -76 -109t-73.5 -141t-56.5 -96q-34 -35 -132.5 -67t-215.5 -32q-18 -3 -34.5 0t-32.5 9zM682 870q0 -32 13.5 -50t60.5 -18q70 0 107 32.5t37 56.5q0 27 -38.5 53t-78.5 26q-27 0 -64 -33.5t-37 -66.5zM949 885 q0 -15 1.5 -29.5t7.5 -23.5l102 -6q27 -3 46 7.5t19 33.5q0 24 -40.5 50t-88.5 26q-23 0 -35 -20t-12 -38z" />
<glyph unicode="&#x6be;&#xfeb0;" horiz-adv-x="1162" d="M-41 12q0 25 58.5 71t148.5 98q54 24 112.5 62.5t105 80.5t91 134t72.5 131q42 62 168 126q-24 18 -24 74q0 31 25 97t67 143q19 58 28 96q21 73 36 73q38 -31 99.5 -69.5t159.5 -57t132 -52.5t34 -88q0 -81 -51 -144t-107 -63l-61 3q-74 0 -92 -16.5t-48.5 -50 t-51 -46.5t-54 -31t-54.5 -27q-114 -49 -173 -108q-40 -40 -75.5 -109t-73.5 -141t-56 -96q-35 -35 -133 -67t-215 -32q-18 -3 -34.5 0t-33.5 9zM474 1571q0 33 53 138t69 113q32 14 91.5 -49.5t63.5 -99.5q0 -47 -50 -136.5t-72 -89.5q-9 0 -59 34.5t-75 54.5 q-21 18 -21 35zM753 870q0 -32 13.5 -50t59.5 -18q71 0 107.5 32.5t36.5 56.5q0 27 -38 53t-79 26q-27 0 -63.5 -33.5t-36.5 -66.5zM1020 885q0 -15 1.5 -29.5t7.5 -23.5l102 -6q27 -3 45.5 7.5t18.5 33.5q0 24 -40.5 50t-88.5 26q-22 0 -34 -20t-12 -38z" />
<glyph unicode="&#x6be;&#xfb8b;" horiz-adv-x="1185" d="M-20 12q0 25 58.5 71t148.5 98q54 24 112.5 62.5t105 80.5t91 134t72.5 131q42 62 168 126q-24 18 -24 74q0 31 25 97t67 143q19 58 28 96q21 73 36 73q38 -31 99.5 -69.5t159.5 -57t132 -52.5t34 -88q0 -81 -51 -144t-107 -63l-61 3q-74 0 -92 -16.5t-48.5 -50 t-51 -46.5t-54 -31t-54.5 -27q-114 -49 -173 -108q-40 -40 -75.5 -109t-73.5 -141t-56 -96q-35 -35 -133 -67t-215 -32q-18 -3 -34.5 0t-33.5 9zM338 1655q0 18 64 135.5t79 119.5q24 0 75.5 -43.5t69.5 -82.5q33 54 63 105q44 72 54 72q36 0 92 -51q54 -57 54 -105 q0 -55 -54 -138q-56 -79 -80 -79q-19 0 -55 37q-50 53 -83 77q-82 -168 -129 -168q-10 0 -80 55.5t-70 65.5zM475 2027q0 15 55.5 132t73.5 119q42 0 93 -51q51 -57 51 -110q0 -49 -47.5 -136t-69.5 -87q-14 0 -60.5 41t-71 59t-24.5 33zM774 870q0 -32 13.5 -50t59.5 -18 q71 0 107.5 32.5t36.5 56.5q0 27 -38 53t-79 26q-27 0 -63.5 -33.5t-36.5 -66.5zM1041 885q0 -15 1.5 -29.5t7.5 -23.5l102 -6q27 -3 45.5 7.5t18.5 33.5q0 24 -40.5 50t-88.5 26q-22 0 -34 -20t-12 -38z" />
<glyph unicode="&#xfe91;&#xfeae;" horiz-adv-x="804" d="M-56 19q-3 14 30 38q12 9 83 60q7 7 108 70q78 53 73 50q87 69 120 108q11 13 71 150q61 136 93 177q31 42 99 85q25 14 88 47q56 27 78 46q21 18 54 78q33 59 47 57q13 -4 3 -55q-75 -267 -168 -314q-131 -63 -159 -84q-29 -22 -38 -34q-30 -42 -58 -108 q-50 -126 -80 -194q-49 -103 -147 -147q-46 -18 -123 -31q-79 -17 -124 -17q-39 -4 -50 18zM515 -766q0 -17 21 -35q25 -20 75 -54.5t59 -34.5q22 0 72 89.5t50 136.5q-4 36 -63.5 99.5t-91.5 49.5q-16 -8 -69 -113t-53 -138z" />
<glyph unicode="&#xfe91;&#xfeb0;" horiz-adv-x="807" d="M-89 12q-3 13 30 37q12 9 83 60q7 8 108 71q78 52 73 49q87 69 120 108q11 14 71 150q61 137 93 177q31 42 99 86q25 13 88 46q56 27 78 47q21 18 54 78q33 58 47 57q13 -5 3 -56q-75 -267 -168 -313q-131 -63 -159 -84q-29 -23 -38 -35q-30 -42 -58 -108 q-50 -126 -80 -193q-49 -104 -147 -147q-46 -18 -123 -32q-79 -16 -124 -16q-39 -5 -50 18zM390 1406q0 33 53 138t69 113q32 14 91.5 -49.5t63.5 -99.5q0 -47 -50 -136.5t-72 -89.5q-9 0 -59 34.5t-75 54.5q-21 18 -21 35zM493 -865q0 33 53 138t69 113q32 14 91.5 -49.5 t63.5 -99.5q0 -47 -50 -136.5t-72 -89.5q-9 0 -59 34.5t-75 54.5q-21 18 -21 35z" />
<glyph unicode="&#xfe91;&#xfb8b;" horiz-adv-x="888" d="M-9 7q-3 14 30 38q12 9 82 60q8 7 108 70q78 53 74 50q87 69 120 108q10 13 70 150q62 136 93 177q32 42 99 85q26 14 89 47q55 27 78 46q21 18 54 78q33 59 46 57q14 -4 3 -55q-75 -267 -168 -314q-130 -63 -159 -84q-28 -22 -37 -34q-30 -42 -59 -108 q-49 -126 -79 -194q-50 -103 -147 -147q-47 -18 -123 -31q-80 -17 -125 -17q-39 -4 -49 18zM238 1328q0 18 64 135.5t79 119.5q24 0 75.5 -43.5t69.5 -82.5q33 54 63 105q44 72 54 72q36 0 92 -51q54 -57 54 -105q0 -55 -54 -138q-56 -79 -80 -79q-19 0 -55 37 q-50 53 -83 77q-82 -168 -129 -168q-10 0 -80 55.5t-70 65.5zM375 1700q0 15 55.5 132t73.5 119q42 0 93 -51q51 -57 51 -110q0 -49 -47.5 -136t-69.5 -87q-14 0 -60.5 41t-71 59t-24.5 33zM526 -966q0 33 53 138t69 113q32 14 91.5 -49.5t63.5 -99.5q0 -47 -50 -136.5 t-72 -89.5q-9 0 -59 34.5t-75 54.5q-21 18 -21 35z" />
<glyph unicode="&#xfe97;&#xfeae;" horiz-adv-x="904" d="M-26 13q-3 14 30 38q12 9 83 60q7 7 108 70q78 53 73 50q87 69 120 108q11 13 71 150q61 136 93 177q31 42 99 85q25 14 88 47q56 27 78 46q21 18 54 78q33 59 47 57q13 -4 3 -55q-75 -267 -168 -314q-131 -63 -159 -84q-29 -22 -38 -34q-30 -42 -58 -108 q-50 -126 -80 -194q-49 -103 -147 -147q-46 -18 -123 -31q-79 -17 -124 -17q-39 -4 -50 18zM632 1619q0 20 61 132t76 119q25 10 74 -37t74 -83q30 49 66.5 110t49.5 62q37 0 89 -54.5t55 -102.5q0 -57 -56 -135q-54 -77 -79 -77q-17 0 -60.5 43.5t-76.5 67.5 q-81 -163 -129 -163q-12 0 -34 19q-21 18 -65.5 54t-44.5 45z" />
<glyph unicode="&#xfe97;&#xfeb0;" horiz-adv-x="1000" d="M-2 21q-3 13 30 37q12 9 83 60q7 8 108 71q78 52 73 49q87 69 120 108q11 14 71 150q61 137 93 177q31 42 99 86q25 13 88 46q56 27 78 47q21 18 54 78q33 58 47 57q13 -5 3 -56q-75 -267 -168 -313q-131 -63 -159 -84q-29 -23 -38 -35q-30 -42 -58 -108 q-50 -126 -80 -193q-49 -104 -147 -147q-46 -18 -123 -32q-79 -16 -124 -16q-39 -5 -50 18zM495 1475q0 33 53 138t69 113q32 14 91.5 -49.5t63.5 -99.5q0 -47 -50 -136.5t-72 -89.5q-9 0 -59 34.5t-75 54.5q-21 18 -21 35zM815 1963q0 20 61 132t76 119q25 10 74 -37 t74 -83q30 49 66.5 110t49.5 62q37 0 89 -54.5t55 -102.5q0 -57 -56 -135q-54 -77 -79 -77q-17 0 -60.5 43.5t-76.5 67.5q-81 -163 -129 -163q-12 0 -34 19q-21 18 -65.5 54t-44.5 45z" />
<glyph unicode="&#xfe97;&#xfb8b;" horiz-adv-x="1051" d="M15 3q-3 13 30 37q12 9 82 60q8 8 108 71q78 52 74 49q87 69 120 108q10 14 70 150q62 137 93 177q32 42 99 86q26 13 89 46q55 27 78 47q21 18 54 78q33 58 46 57q14 -5 3 -56q-75 -267 -168 -313q-130 -63 -159 -84q-28 -23 -37 -35q-30 -42 -59 -108 q-49 -126 -79 -193q-50 -104 -147 -147q-47 -18 -123 -32q-80 -16 -125 -16q-39 -5 -49 18zM298 1311q0 18 59 133.5t73 117.5q22 0 70 -42.5t65 -81.5q30 53 58 104q41 70 50 70q33 0 85 -50q50 -56 50 -103q0 -54 -50 -136q-52 -78 -74 -78q-18 0 -51 37q-46 52 -77 76 q-76 -166 -119 -166q-10 0 -74.5 54.5t-64.5 64.5zM425 1677q0 15 51.5 130t67.5 117q39 0 86 -50q48 -56 48 -108q0 -48 -44 -134t-65 -86q-13 0 -56 40.5t-65.5 58.5t-22.5 32zM838 1951q0 18 56.5 118.5t70.5 106.5q24 9 69.5 -33t68.5 -74q28 44 62 98.5t46 55.5 q35 0 83 -49t51 -92q0 -51 -52 -121q-50 -69 -73 -69q-16 0 -56.5 39t-71.5 61q-75 -147 -120 -147q-11 0 -32 17q-19 17 -60.5 49t-41.5 40z" />
<glyph unicode="&#xfee7;&#xfeae;" horiz-adv-x="861" d="M-77 16q-3 14 30 38q12 9 83 60q7 7 108 70q78 53 73 50q87 69 120 108q11 13 71 150q61 136 93 177q31 42 99 85q25 14 88 47q56 27 78 46q21 18 54 78q33 59 47 57q13 -4 3 -55q-75 -267 -168 -314q-131 -63 -159 -84q-29 -22 -38 -34q-30 -42 -58 -108 q-50 -126 -80 -194q-49 -103 -147 -147q-46 -18 -123 -31q-79 -17 -124 -17q-39 -4 -50 18zM694 1650q0 33 53 138t69 113q32 14 91.5 -49.5t63.5 -99.5q0 -47 -50 -136.5t-72 -89.5q-9 0 -59 34.5t-75 54.5q-21 18 -21 35z" />
<glyph unicode="&#xfee7;&#xfeb0;" horiz-adv-x="930" d="M-41 21q-3 13 30 37q12 9 83 60q7 8 108 71q78 52 73 49q87 69 120 108q11 14 71 150q61 137 93 177q31 42 99 86q25 13 88 46q56 27 78 47q21 18 54 78q33 58 47 57q13 -5 3 -56q-75 -267 -168 -313q-131 -63 -159 -84q-29 -23 -38 -35q-30 -42 -58 -108 q-50 -126 -80 -193q-49 -104 -147 -147q-46 -18 -123 -32q-79 -16 -124 -16q-39 -5 -50 18zM433 1421q0 33 53 138t69 113q32 14 91.5 -49.5t63.5 -99.5q0 -47 -50 -136.5t-72 -89.5q-9 0 -59 34.5t-75 54.5q-21 18 -21 35zM790 1815q0 33 53 138t69 113q32 14 91.5 -49.5 t63.5 -99.5q0 -47 -50 -136.5t-72 -89.5q-9 0 -59 34.5t-75 54.5q-21 18 -21 35z" />
<glyph unicode="&#xfee7;&#xfb8b;" horiz-adv-x="862" d="M-44 9q-3 13 30 37q12 9 83 60q7 8 108 71q78 52 73 49q87 69 120 108q11 14 71 150q61 137 93 177q31 42 99 86q25 13 88 46q56 27 78 47q21 18 54 78q33 58 47 57q13 -5 3 -56q-75 -267 -168 -313q-131 -63 -159 -84q-29 -23 -38 -35q-30 -42 -58 -108 q-50 -126 -80 -193q-49 -104 -147 -147q-46 -18 -123 -32q-79 -16 -124 -16q-39 -5 -50 18zM140 1535q0 18 64 135.5t79 119.5q24 0 75.5 -43.5t69.5 -82.5q33 54 63 105q44 72 54 72q36 0 92 -51q54 -57 54 -105q0 -55 -54 -138q-56 -79 -80 -79q-19 0 -55 37 q-50 53 -83 77q-82 -168 -129 -168q-10 0 -80 55.5t-70 65.5zM277 1907q0 15 55.5 132t73.5 119q42 0 93 -51q51 -57 51 -110q0 -49 -47.5 -136t-69.5 -87q-14 0 -60.5 41t-71 59t-24.5 33zM874 2000q0 33 53 138t69 113q32 14 91.5 -49.5t63.5 -99.5q0 -47 -50 -136.5 t-72 -89.5q-9 0 -59 34.5t-75 54.5q-21 18 -21 35z" />
<glyph unicode="&#xfe9b;&#xfeae;" horiz-adv-x="858" d="M-63 21q-3 13 30 37q12 9 82 60q8 8 108 71q78 52 74 49q87 69 120 108q10 14 70 150q62 137 93 177q32 42 99 86q26 13 89 46q55 27 78 47q21 18 54 78q33 58 46 57q14 -5 3 -56q-75 -267 -168 -313q-130 -63 -159 -84q-28 -23 -37 -35q-30 -42 -59 -108 q-49 -126 -79 -193q-50 -104 -147 -147q-47 -18 -123 -32q-80 -16 -125 -16q-39 -5 -49 18zM403 1493q0 18 64 135.5t79 119.5q24 0 75.5 -43.5t69.5 -82.5q33 54 63 105q44 72 54 72q36 0 92 -51q54 -57 54 -105q0 -55 -54 -138q-56 -79 -80 -79q-19 0 -55 37 q-50 53 -83 77q-82 -168 -129 -168q-10 0 -80 55.5t-70 65.5zM540 1865q0 15 55.5 132t73.5 119q42 0 93 -51q51 -57 51 -110q0 -49 -47.5 -136t-69.5 -87q-14 0 -60.5 41t-71 59t-24.5 33z" />
<glyph unicode="&#xfe9b;&#xfeb0;" horiz-adv-x="993" d="M21 18q-3 13 30 37q12 9 82 60q8 8 108 71q78 52 74 49q87 69 120 108q10 14 70 150q62 137 93 177q32 42 99 86q26 13 89 46q55 27 78 47q21 18 54 78q33 58 46 57q14 -5 3 -56q-75 -267 -168 -313q-130 -63 -159 -84q-28 -23 -37 -35q-30 -42 -59 -108 q-49 -126 -79 -193q-50 -104 -147 -147q-47 -18 -123 -32q-80 -16 -125 -16q-39 -5 -49 18zM345 1338q0 33 53 138t69 113q32 14 91.5 -49.5t63.5 -99.5q0 -47 -50 -136.5t-72 -89.5q-9 0 -59 34.5t-75 54.5q-21 18 -21 35zM716 1679q0 18 64 135.5t79 119.5 q24 0 75.5 -43.5t69.5 -82.5q33 54 63 105q44 72 54 72q36 0 92 -51q54 -57 54 -105q0 -55 -54 -138q-56 -79 -80 -79q-19 0 -55 37q-50 53 -83 77q-82 -168 -129 -168q-10 0 -80 55.5t-70 65.5zM853 2051q0 15 55.5 132t73.5 119q42 0 93 -51q51 -57 51 -110 q0 -49 -47.5 -136t-69.5 -87q-14 0 -60.5 41t-71 59t-24.5 33z" />
<glyph unicode="&#xfe9b;&#xfb8b;" horiz-adv-x="990" d="M-12 22q-3 14 30 38q12 9 82 60q8 7 108 70q78 53 74 50q87 69 120 108q10 13 70 150q62 136 93 177q32 42 99 85q26 14 89 47q55 27 78 46q21 18 54 78q33 59 46 57q14 -4 3 -55q-75 -267 -168 -314q-130 -63 -159 -84q-28 -22 -37 -34q-30 -42 -59 -108 q-49 -126 -79 -194q-50 -103 -147 -147q-47 -18 -123 -31q-80 -17 -125 -17q-39 -4 -49 18zM194 1328q0 18 64 135.5t79 119.5q24 0 75.5 -43.5t69.5 -82.5q33 54 63 105q44 72 54 72q36 0 92 -51q54 -57 54 -105q0 -55 -54 -138q-56 -79 -80 -79q-19 0 -55 37 q-50 53 -83 77q-82 -168 -129 -168q-10 0 -80 55.5t-70 65.5zM331 1700q0 15 55.5 132t73.5 119q42 0 93 -51q51 -57 51 -110q0 -49 -47.5 -136t-69.5 -87q-14 0 -60.5 41t-71 59t-24.5 33zM749 1958q0 18 64 135.5t79 119.5q24 0 75.5 -43.5t69.5 -82.5q33 54 63 105 q44 72 54 72q36 0 92 -51q54 -57 54 -105q0 -55 -54 -138q-56 -79 -80 -79q-19 0 -55 37q-50 53 -83 77q-82 -168 -129 -168q-10 0 -80 55.5t-70 65.5zM886 2330q0 15 55.5 132t73.5 119q42 0 93 -51q51 -57 51 -110q0 -49 -47.5 -136t-69.5 -87q-14 0 -60.5 41t-71 59 t-24.5 33z" />
<glyph unicode="&#xfbfe;&#xfeae;" horiz-adv-x="802" d="M-87 19q-3 14 30 38q12 9 51 38t139 92q78 53 74 50q87 63 120 108q10 13 70 150q62 136 93 177q32 42 99 85q26 14 89 47q55 27 78 46q21 18 54 78q33 59 46 57q14 -4 3 -55q-75 -267 -168 -314q-130 -63 -159 -84q-28 -22 -37 -34q-30 -42 -59 -108q-49 -126 -79 -194 q-50 -103 -147 -147q-47 -18 -123 -31q-80 -17 -125 -17q-39 -4 -49 18zM335 -832q0 -9 44.5 -45t65.5 -54q22 -19 34 -19q48 0 129 163q33 -24 76.5 -67.5t60.5 -43.5q25 0 79 77q56 78 56 135q-3 48 -55 102.5t-89 54.5q-13 -1 -49.5 -62t-66.5 -110q-25 36 -74 83t-74 37 q-15 -7 -76 -119t-61 -132z" />
<glyph unicode="&#xfbfe;&#xfeb0;" horiz-adv-x="838" d="M-48 18q-3 13 30 37q12 9 82 60q8 8 108 71q78 52 74 49q87 69 120 108q10 14 70 150q62 137 93 177q32 42 99 86q26 13 89 46q55 27 78 47q21 18 54 78q33 58 46 57q14 -5 3 -56q-75 -267 -168 -313q-130 -63 -159 -84q-28 -23 -37 -35q-30 -42 -59 -108 q-49 -126 -79 -193q-50 -104 -147 -147q-47 -18 -123 -32q-80 -16 -125 -16q-39 -5 -49 18zM355 -841q0 20 61 132t76 119q25 10 74 -37t74 -83q30 49 66.5 110t49.5 62q37 0 89 -54.5t55 -102.5q0 -57 -56 -135q-54 -77 -79 -77q-17 0 -60.5 43.5t-76.5 67.5 q-81 -163 -129 -163q-12 0 -34 19q-21 18 -65.5 54t-44.5 45zM463 1506q0 33 53 138t69 113q32 14 91.5 -49.5t63.5 -99.5q0 -47 -50 -136.5t-72 -89.5q-9 0 -59 34.5t-75 54.5q-21 18 -21 35z" />
<glyph unicode="&#xfbfe;&#xfb8b;" horiz-adv-x="894" d="M-5 18q-3 13 30 37q12 9 83 60q7 8 108 71q78 52 73 49q87 69 120 108q11 14 71 150q61 137 93 177q31 42 99 86q25 13 88 46q56 27 78 47q21 18 54 78q33 58 47 57q13 -5 3 -56q-75 -267 -168 -313q-131 -63 -159 -84q-29 -23 -38 -35q-30 -42 -58 -108 q-50 -126 -80 -193q-49 -104 -147 -147q-46 -18 -123 -32q-79 -16 -124 -16q-39 -5 -50 18zM266 1349q0 18 64 135.5t79 119.5q24 0 75.5 -43.5t69.5 -82.5q33 54 63 105q44 72 54 72q36 0 92 -51q54 -57 54 -105q0 -55 -54 -138q-56 -79 -80 -79q-19 0 -55 37 q-50 53 -83 77q-82 -168 -129 -168q-10 0 -80 55.5t-70 65.5zM356 -842q0 20 61 132t76 119q25 10 74 -37t74 -83q30 49 66.5 110t49.5 62q37 0 89 -54.5t55 -102.5q0 -57 -56 -135q-54 -77 -79 -77q-17 0 -60.5 43.5t-76.5 67.5q-81 -163 -129 -163q-12 0 -34 19 q-21 18 -65.5 54t-44.5 45zM403 1721q0 15 55.5 132t73.5 119q42 0 93 -51q51 -57 51 -110q0 -49 -47.5 -136t-69.5 -87q-14 0 -60.5 41t-71 59t-24.5 33z" />
<glyph unicode="&#xfb58;&#xfeae;" horiz-adv-x="775" d="M-87 19q-3 14 30 38q12 9 51 38t139 92q78 53 74 50q87 63 120 108q10 13 70 150q62 136 93 177q32 42 99 85q26 14 89 47q55 27 78 46q21 18 54 78q33 59 46 57q14 -4 3 -55q-75 -267 -168 -314q-130 -63 -159 -84q-28 -22 -37 -34q-30 -42 -59 -108q-49 -126 -79 -194 q-50 -103 -147 -147q-47 -18 -123 -31q-80 -17 -125 -17q-39 -4 -49 18zM298 -754q0 -11 66 -66.5t76 -55.5q45 0 123 168q32 -24 80 -76q34 -38 52 -38q24 0 75 80q53 82 53 138q0 48 -53 106q-51 51 -85 51q-11 0 -53 -73q-28 -51 -60 -104q-16 38 -65.5 82t-73.5 44 q-14 0 -74.5 -119t-60.5 -137zM439 -1035q0 -13 20 -31t42 -39t44 -44q17 -21 29 -22q18 0 66 73q46 77 49 129q3 48 -39.5 100.5t-78.5 55.5q-14 2 -72.5 -102.5t-59.5 -119.5z" />
<glyph unicode="&#xfb58;&#xfeb0;" horiz-adv-x="831" d="M-69 1q-3 14 30 38q12 9 82 60q8 7 108 70q78 53 74 50q87 69 120 108q10 13 70 150q62 136 93 177q32 42 99 85q26 14 89 47q55 27 78 46q21 18 54 78q33 59 46 57q14 -4 3 -55q-75 -267 -168 -314q-130 -63 -159 -84q-28 -22 -37 -34q-30 -42 -59 -108 q-49 -126 -79 -194q-50 -103 -147 -147q-47 -18 -123 -31q-80 -17 -125 -17q-39 -4 -49 18zM391 -725q0 18 60.5 137t74.5 119q24 0 73.5 -44t65.5 -82q32 53 60 104q42 73 53 73q34 0 85 -51q53 -58 53 -106q0 -56 -53 -138q-51 -80 -75 -80q-18 0 -52 38q-48 52 -80 76 q-78 -168 -123 -168q-10 0 -76 55.5t-66 66.5zM411 1544q0 33 53 138t69 113q32 14 91.5 -49.5t63.5 -99.5q0 -47 -50 -136.5t-72 -89.5q-9 0 -59 34.5t-75 54.5q-21 18 -21 35zM532 -1006q1 15 59.5 119.5t72.5 102.5q36 -3 78.5 -55.5t39.5 -100.5q-3 -52 -49 -129 q-48 -73 -66 -73q-12 1 -29 22q-22 23 -44 44t-42 39t-20 31z" />
<glyph unicode="&#xfb58;&#xfb8b;" horiz-adv-x="858" d="M-18 9q-3 13 30 37q12 9 82 60q8 8 108 71q78 52 74 49q87 69 120 108q10 14 70 150q62 137 93 177q32 42 99 86q26 13 89 46q55 27 78 47q21 18 54 78q33 58 46 57q14 -5 3 -56q-75 -267 -168 -313q-130 -63 -159 -84q-28 -23 -37 -35q-30 -42 -59 -108 q-49 -126 -79 -193q-50 -104 -147 -147q-47 -18 -123 -32q-80 -16 -125 -16q-39 -5 -49 18zM101 1343q0 18 64 135.5t79 119.5q24 0 75.5 -43.5t69.5 -82.5q33 54 63 105q44 72 54 72q36 0 92 -51q54 -57 54 -105q0 -55 -54 -138q-56 -79 -80 -79q-19 0 -55 37 q-50 53 -83 77q-82 -168 -129 -168q-10 0 -80 55.5t-70 65.5zM238 1715q0 15 55.5 132t73.5 119q42 0 93 -51q51 -57 51 -110q0 -49 -47.5 -136t-69.5 -87q-14 0 -60.5 41t-71 59t-24.5 33zM423 -746q0 18 60.5 137t74.5 119q24 0 73.5 -44t65.5 -82q32 53 60 104 q42 73 53 73q34 0 85 -51q53 -58 53 -106q0 -56 -53 -138q-51 -80 -75 -80q-18 0 -52 38q-48 52 -80 76q-78 -168 -123 -168q-10 0 -76 55.5t-66 66.5zM564 -1027q1 15 59.5 119.5t72.5 102.5q36 -3 78.5 -55.5t39.5 -100.5q-3 -52 -49 -129q-48 -73 -66 -73q-12 1 -29 22 q-22 23 -44 44t-42 39t-20 31z" />
<glyph unicode="&#xfbfe;&#xfeca;" horiz-adv-x="1348" d="M57 -207q0 100 39 247q39 143 102 276q42 84 79 144q50 83 81 126q33 42 63 77q50 58 144 142q20 20 20 27q0 32 -24 54q-23 23 -59 23q-19 0 -38 -7t-37 -11q-9 6 0 31q12 30 26 45q43 47 105.5 80t126.5 33q68 0 127 -33t49 -83q-8 -31 -21.5 -53.5t-43.5 -57.5 q-12 -16 6 -21q18 -3 42 2.5t63 29.5q36 25 62 63q27 37 27 75v99q0 36 12 79q21 60 43 110l59 148q11 23 18 24q6 0 6 -31l-3 -107l-6 -129q0 -67 -27 -153q-26 -85 -66 -151q-62 -95 -125 -153q-37 -38 -85.5 -53t-103.5 -0.5t-78 31.5q-25 0 -73 -27q-143 -85 -252 -286 q-20 -33 -44 -96q-64 -160 -64 -279q0 -190 129 -303q126 -114 358 -114q182 0 366 99q182 99 314 257q57 78 88 118q44 60 62 48q15 -10 -35 -100q-49 -90 -126 -198q-39 -53 -115 -138q-89 -99 -137 -141q-159 -143 -271 -200q-144 -73 -305 -73q-87 0 -150 18 q-150 42 -240 169q-45 69 -66.5 153t-21.5 170zM647 85q0 -9 44.5 -45t65.5 -54q22 -19 34 -19q48 0 129 163q33 -24 76.5 -67.5t60.5 -43.5q25 0 79 77q56 78 56 135q-3 48 -55 102.5t-89 54.5q-13 -1 -49.5 -62t-66.5 -110q-25 36 -74 83t-74 37q-15 -7 -76 -119t-61 -132 z" />
<glyph unicode="&#xfed3;&#xfbff;&#xfb8f;" horiz-adv-x="2908" d="M37 225q2 99 14 210t42 97q9 0 13 -60q5 -60 45 -106q84 -92 402 -92q171 0 278 9q501 42 822 243q148 87 235 212q62 88 101 226l42 176q7 31 70 156q18 40 32 67l19 39q4 10 10 15.5t11 5.5t8.5 -6t2.5 -19q-15 -62 -23 -105q-85 -438 -93 -563q-7 -111 -7 -165 q0 -150 73 -217q56 -50 129 -50q102 0 168 90q50 66 86 95q34 28 66 28q60 -21 88.5 -18t49.5 18q22 15 22 53q0 25 -21 54q-21 25 -43 25l-24 -12q-9 -6 -47 -6q-45 0 -88 17q-41 18 -41 57q0 28 15 67q17 44 56 123q25 59 57 107q28 46 52 46q66 0 129 -64q84 -80 84 -203 q0 -60 -15 -121q-15 -71 -46 -134q-47 -88 -99 -151q-53 -60 -92 -60l-37 6q-45 7 -68 0q-78 -26 -160 -170q-89 -144 -198 -144q-111 9 -168 101q-57 91 -59 225q2 76 11 161.5t18 150.5q0 10 -3 12q-6 1 -12 -5q-29 -39 -41 -55q-48 -68 -84 -117q-90 -114 -231 -218 q-138 -102 -294 -160q-157 -59 -355 -99q-194 -42 -411 -42h-45q-123 0 -216 15q-132 24 -179 82q-48 57 -51 173zM1946 -866q0 -9 44.5 -45t65.5 -54q22 -19 34 -19q48 0 129 163q33 -24 76.5 -67.5t60.5 -43.5q25 0 79 77q56 78 56 135q-3 48 -55 102.5t-89 54.5 q-13 -1 -49.5 -62t-66.5 -110q-25 36 -74 83t-74 37q-15 -7 -76 -119t-61 -132zM2187 1450q-27 5 48 122q34 52 78 96q75 73 288 252q97 76 417.5 345.5t514.5 463t206 202.5q18 7 11 -23q-30 -52 -74 -133q-39 -69 -87 -129q-54 -69 -106 -128q-75 -81 -178 -176 t-407.5 -344t-504.5 -403t-206 -145zM2701 1473q0 -17 21 -35q25 -20 75 -54.5t59 -34.5q22 0 72 89.5t50 136.5q-4 36 -63.5 99.5t-91.5 49.5q-16 -8 -69 -113t-53 -138z" />
<glyph unicode="&#xfecb;&#xfea0;&#x640;&#xfe90;" horiz-adv-x="4831" d="M139 370q0 71 2 102q3 45 13 42q155 -93 483 -142q320 -47 879 -47q272 0 593 21q318 23 699 83q232 34 405 79q153 39 354 111q102 35 190 83q108 57 171 120q41 40 65 61q49 41 79 41q8 0 65 -20q24 -9 46 -9q80 0 188 99v-1l174 157l-144 9l-147 6q-36 6 -30 21 q1 11 22 48q20 36 23 42q19 32 48 68q24 28 52.5 50t59.5 46q12 9 35.5 26t59.5 44q63 50 81 65q-27 13 -41 28q-24 24 -24 65q0 31 62 109q10 15 57 72q37 47 97 87q54 38 87 38q30 0 60 -23q30 -24 30 -63q0 -73 -55 -61q-11 0 -33 22q-23 24 -48 24q-30 0 -62 -28 q-36 -27 -42 -54q0 -26 39 -57q38 -36 108 -36q18 0 59 10q40 14 85 33l99 53q23 4 0 -32q-25 -48 -64 -94q-26 -29 -65 -47l-231 -105l-235 -132q-36 -24 -77.5 -47t-59.5 -64q23 -7 57 -7q54 -3 80 -3q63 0 144 7q61 3 103 15q30 2 38 0q7 -4 -3 -36q-8 -16 -12.5 -29 t-8.5 -22q-6 -16 -17 -31q-12 -18 -15 -20q-3 -3 -39 -28q-22 -12 -43 -30l-126 -108l-138 -138l-62 -65q-43 -48 -66 -66q-24 -16 -42 -16q-6 0 -106 46q-50 20 -81 18q-12 -3 -36 -27q-6 -10 -35 -40l-54 -68q-57 -66 -78 -82q-70 -62 -180 -120q-165 -90 -544 -188 q-270 -69 -524 -112q-343 -63 -705 -92q-349 -28 -696 -28q-325 0 -558 24q-238 24 -333 76q-75 50 -97 104q-26 55 -35 163zM1318 -846q0 -17 21 -35q25 -20 75 -54.5t59 -34.5q22 0 72 89.5t50 136.5q-4 36 -63.5 99.5t-91.5 49.5q-16 -8 -69 -113t-53 -138zM3945 -468 q0 -17 21 -35q25 -20 75 -54.5t59 -34.5q22 0 72 89.5t50 136.5q-4 36 -63.5 99.5t-91.5 49.5q-16 -8 -69 -113t-53 -138z" />
<glyph unicode="&#xfecb;&#xfea0;&#x640;&#xfee2;" horiz-adv-x="4309" d="M64 -849q0 190 12 409q14 204 59 450q25 129 75 230q64 136 168 240q31 27 91 69q62 36 96 51q39 15 62 22q30 8 48 14q16 9 40 49q26 39 38 39q67 -34 112 -45q96 -31 188.5 -48.5t164.5 -28t330 -10.5q354 0 765 83q313 64 573 160q273 101 562 255q189 99 396 233 q20 13 194 135l208 157q-45 2 -150.5 4t-152.5 16q-46 12 -46 37q10 32 30 62q45 75 135 151q60 44 135.5 101.5t93.5 74.5q-24 12 -39 28q-25 26 -25 65q0 28 61 111q9 10 24 28l35 42q37 47 97 87q54 38 87 38q30 0 60 -23q29 -22 29 -63q0 -73 -56 -61q-9 0 -31 22 q-23 24 -48 24q-29 0 -63 -28q-38 -30 -41 -56q0 -22 38 -55q37 -36 109 -36q18 0 59 10q40 14 85 33l99 53q21 4 0 -32q-31 -55 -64 -94q-23 -26 -65 -47l-231 -105q-47 -25 -94 -52t-95 -58.5t-98.5 -68t-105.5 -79.5q42 -9 92.5 -12t124.5 -2t152 11q83 9 95 9 q52 0 46 -28q-4 -14 -18.5 -49t-21.5 -43q-63 -37 -77 -49l-223 -176q-35 -27 -80 -63t-100 -81q-135 -106 -213 -159q-258 -187 -405 -276q-204 -127 -384 -205q-353 -155 -696 -240q-285 -74 -581 -98q-21 -3 -125 -7.5t-333 1.5t-362 39q-11 5 -62 -52q-12 -14 -24 -27.5 t-25 -26.5q-9 -11 -18 -3q-30 34 -71 73q-66 60 -156 60q-46 0 -70 -6q-83 -21 -161 -97q-54 -56 -84 -167q-27 -108 -51 -318q-34 -310 -51 -681q-13 -363 -13 -649v-131.5t-3 -147.5q-2 -158 -30 -158q-15 0 -21 107q-5 106 -5 321v738zM2815 -615q0 -17 21 -35 q25 -20 75 -54.5t59 -34.5q22 0 72 89.5t50 136.5q-4 36 -63.5 99.5t-91.5 49.5q-16 -8 -69 -113t-53 -138z" />
<glyph unicode="&#xfecb;&#xfea0;&#x640;&#xfeb0;" horiz-adv-x="4047" d="M-23 -344q0 51 95 144q51 45 90 92q45 51 81 109q36 54 72 120q51 93 97 194q33 52 62 79q48 41 99 41q18 0 30 -3q175 -50 324 -78q130 -26 291 -26l1 -3v3h156q365 0 765 83q303 60 573 159q276 102 561 255q203 106 396 232q23 14 194 135l208 158q-40 1 -85 4 q-24 0 -46.5 1t-45.5 1q-78 0 -124 13q-48 12 -48 39q4 12 30 62q49 75 190 190q12 9 36 26.5t60 44.5q35 27 80 64q-27 14 -41 29q-24 24 -24 64q0 29 62 110q18 24 58 72q35 45 96 87q54 37 87 37q30 0 60 -22q30 -24 30 -63q0 -74 -55 -62q-9 0 -33 23q-23 24 -47 24 q-31 0 -63 -29q-36 -27 -42 -54q0 -24 39 -57q38 -36 108 -36q18 0 59 11q39 12 87 33l97 52v-16.5v-14.5q-25 -48 -64 -95q-23 -25 -65 -46l-231 -105l-235 -131l-114 -81v2q-33 -27 -42 -48q57 -11 111 -12q30 0 59 -1t59 -1q41 0 138 11q83 9 96 9q51 0 45 -29 q-10 -34 -19 -57q-14 -27 -20 -34q-9 -6 -40 -26q-27 -15 -38 -24l-223 -174l-80 -64t-99 -81q-124 -98 -214 -159q-239 -174 -405 -276q-207 -128 -383 -206q-354 -153 -697 -238q-291 -75 -579 -99q-21 -2 -129 -12h-68h-64h-38h-39v1l-1 -1q-213 0 -422 31 q-214 35 -297 66l-49 18q-15 5 -27 -10q-15 -23 -26 -41q-109 -223 -174 -319q-27 -42 -73 -84q-36 -35 -93 -48q-15 -3 -30 -3q-50 0 -50 40zM505 1437q0 -17 21 -35q25 -20 75 -54.5t59 -34.5q22 0 72 89.5t50 136.5q-4 36 -63.5 99.5t-91.5 49.5q-16 -8 -69 -113 t-53 -138zM2622 -711q0 -17 21 -35q25 -20 75 -54.5t59 -34.5q22 0 72 89.5t50 136.5q-4 36 -63.5 99.5t-91.5 49.5q-16 -8 -69 -113t-53 -138z" />
<glyph unicode="&#xfecb;&#xfea0;&#x640;&#xfede;" horiz-adv-x="4347" d="M54 -159q0 133 33 262q33 125 120 299q31 63 49 96q44 73 65 67q12 -7 1 -30q-15 -30 -45 -96q-58 -129 -76 -181q-44 -125 -44 -209q0 -178 129 -255q96 -55 252 -55q80 0 165 22q84 18 161 71q90 61 150 138q64 79 96 172q39 102 55 233q21 139 21 235q0 63 1 118 t2 103q2 45 3.5 92t2.5 92l-3 308q0 82 3 114q3 42 12 63l129 301q11 23 15 18q5 0 2 -30q-2 -21 -2 -46l-15 -147l-9 -209q0 -135 65 -205q64 -74 209.5 -110.5t228.5 -45.5q132 -12 295 -12q375 0 650 55q165 33 459 129q244 77 565 243q209 107 429 242q45 27 74 46 q31 18 40 36q0 12 -99 20q-49 1 -77.5 3.5t-36.5 2.5q-85 7 -118 18q-35 9 -32 34q5 23 33 66q29 47 81 99l53 47q0 -2 0.5 -3.5l0.5 -1.5v3l56 42q4 3 94 71q35 27 80 64q-29 14 -39 29q-26 25 -26 64q0 29 62 110q12 18 58 73q42 48 98 86q57 39 87 39q28 0 60 -24 q28 -23 28 -63q0 -74 -55 -62q-11 0 -32 24q-22 23 -48 23q-28 0 -63 -29q-37 -30 -40 -54q0 -22 37 -57q38 -36 110 -36q18 0 58 11q41 13 86 33l97 52v-16.5v-14.5q-28 -54 -64 -95q-20 -24 -63 -46l-231 -104l-236 -132l-114 -81v5q0 -2 -0.5 -2.5l-0.5 -0.5 q-15 -11 -32 -30q-3 -6 -12 -18q2 -5 57 -14q54 -9 104 -9h60q96 0 157 9q32 3 56 -3q21 -6 12 -45q-6 -31 -23 -51q-18 -27 -40 -42q-18 -10 -59 -46q-48 -45 -51 -48l-147 -138q-138 -113 -223 -170q-45 -30 -89.5 -57.5t-84.5 -54.5q-84 -57 -216 -126 q-188 -104 -423 -200q-203 -84 -332 -117q-271 -64 -409 -82q-243 -33 -474 -33q-128 0 -222 12q-117 13 -228 38.5t-219 79.5q-15 -178 -21 -236.5t-17.5 -155.5t-38.5 -191q-43 -194 -138 -363q-243 -453 -654 -453q-192 0 -289 118q-96 120 -96 305zM2556 -250 q0 -17 21 -35q25 -20 75 -54.5t59 -34.5q22 0 72 89.5t50 136.5q-4 36 -63.5 99.5t-91.5 49.5q-16 -8 -69 -113t-53 -138z" />
<glyph unicode="&#xfecb;&#xfeb8;&#x640;&#xfeae;" horiz-adv-x="4081" d="M-11 -350q0 51 95 144q46 42 88 93q39 45 83 108q43 68 70 122q48 82 99 193q29 50 62 80q45 40 99 40q18 0 30 -3q193 -55 324 -78q256 -48 548.5 -32t544.5 59q329 56 605 153q276 95 528 225q252 126 480 284q87 58 136.5 93.5t62.5 44.5q92 64 182 135q-38 15 -74 30 q-52 24 -52 67q0 45 64 132q62 78 74 96q60 78 123 132q91 77 153 77q34 0 66 -27q33 -26 33 -66q0 -80 -68 -80q-7 0 -39 20q-31 21 -69 21q-33 0 -76 -38q-45 -36 -45 -67q0 -35 43 -62q45 -27 131 -27q67 0 135 27q33 15 108 59q37 25 73 31q29 5 33 -19q0 -35 -55 -74 q-48 -31 -89.5 -59t-75.5 -50q-38 -26 -123 -93q-23 -18 -50 -40.5t-58 -48.5l-309 -244q-237 -183 -347 -261q-276 -200 -457 -293q-378 -192 -770 -303q-312 -91 -636 -126q-213 -25 -432 -25t-429 33q-204 30 -298 66l-48 18q-15 1 -27 -11q-8 -10 -26 -42 q-111 -222 -175 -318q-33 -49 -72 -85t-93 -47q-9 -3 -32 -3q-48 0 -48 39zM1967 1768q0 18 64 135.5t79 119.5q24 0 75.5 -43.5t69.5 -82.5q33 54 63 105q44 72 54 72q36 0 92 -51q54 -57 54 -105q0 -55 -54 -138q-56 -79 -80 -79q-19 0 -55 37q-50 53 -83 77 q-82 -168 -129 -168q-10 0 -80 55.5t-70 65.5zM2104 2140q0 15 55.5 132t73.5 119q42 0 93 -51q51 -57 51 -110q0 -49 -47.5 -136t-69.5 -87q-14 0 -60.5 41t-71 59t-24.5 33z" />
<glyph unicode="&#xfecb;&#xfeb4;&#x640;&#xfeb2;" horiz-adv-x="4312" d="M9 -57q0 114 24 222q22 106 68 225.5t89 203.5q62 117 77 108q15 -14 -38 -143q-78 -207 -99 -294q-22 -94 -22 -135q0 -147 88 -244q110 -120 323 -120q214 0 385 133q173 134 252 375q36 102 47 203q12 84 12 207v103q0 87 43 138q42 48 120 44l68 -11l235 -21 q2 -1 2 -2v-1v3l184 -6q222 0 444 36q221 33 413 93q190 59 336 126q171 75 381 209q102 66 255 196q70 62 132 62q15 0 51 -17q58 -27 70 -27q32 0 68 26q39 30 70 70q14 17 32 48q6 14 18 23q10 4 24 1q15 -4 37 -4q29 0 50 45q10 24 18 31q22 -12 46 -12q16 2 41.5 21 t50.5 54q-23 9 -46 19.5t-46 22.5q-46 21 -46 39q0 42 126 209q70 87 73 88q62 62 116 62q34 0 60 -26q27 -27 27 -57q0 -25 -18 -45q-17 -19 -38 -19q-7 0 -31 13q-23 14 -59 14q-25 0 -61 -27q-33 -32 -33 -50q0 -30 43 -54q42 -22 101 -22q33 0 105 37q33 15 103 60 q14 6 23 3t9 -15q0 -25 -185 -165q-27 -21 -91 -81q-101 -90 -99 -88q7 7 -68 -74q-72 -75 -138 -106l-58 -32l-66 -36l-68 -61q-72 -68 -84 -72q-18 -11 -54 -11q-9 0 -52 24q-47 24 -80 24q-40 0 -114 -76q-126 -129 -196 -185q-111 -84 -215 -153q2 0 -211 -129 q-243 -141 -596 -234q-357 -94 -652 -94h-102v4l-2 -4q-57 0 -115 4q-59 2 -120 9q-41 6 -66.5 11.5t-35.5 6.5q-23 2 -45 -120q-12 -61 -26.5 -122.5t-29.5 -123.5q-16 -76 -57 -178q-31 -87 -84 -189q-123 -227 -300 -353q-172 -129 -369 -129q-199 0 -312 132 q-112 131 -112 380z" />
<glyph unicode="&#xfecb;&#xfeb4;&#x640;&#xfede;" horiz-adv-x="4183" d="M58 -150q0 133 33 262q33 125 120 299q32 63 50 96q43 70 64 67q12 -7 2 -30q-15 -30 -45 -96q-59 -129 -77 -181q-43 -125 -43 -209q0 -178 129 -255q96 -55 252 -55q79 0 165 22q84 18 160 71q90 61 150 138q62 76 98 172q34 96 54 233q21 139 21 235q0 63 0.5 118 t2 101.5t4 93t2.5 92.5l-3 308q0 51 3 114q3 42 12 64l129 300q7 17 15 18q4 0 3.5 -23t-3.5 -53l-15 -147l-9 -209q0 -133 64 -205q54 -60 180 -97.5t257.5 -56.5t323.5 -19q318 0 598 36q362 47 702 161q398 133 728 313q-50 21 -81 39q-42 29 -42 53q0 49 141 211 q165 191 238 191q48 0 81 -30q30 -33 30 -62q0 -27 -15 -51q-16 -22 -37 -22q-18 0 -51 18q-35 18 -59 18q-33 0 -69 -29q-39 -30 -39 -57q0 -49 56 -73q57 -26 132 -26q39 0 91 23q44 16 110 52q54 33 81 33q18 0 24 -15q9 -24 -24 -49q-6 -6 -33 -24q-36 -23 -70 -47 t-70 -49q-106 -77 -329.5 -225.5t-402.5 -238.5q-225 -114 -498 -214q-382 -144 -796 -209q-311 -49 -494.5 -48.5t-309 14t-191.5 28.5q-100 23 -144 41q-25 7 -52 21l-48 24l-14 -122q-4 -55 -11 -113.5t-13 -118.5q-10 -123 -40 -228q-44 -194 -138 -363 q-245 -453 -653 -453q-193 0 -291 118q-96 120 -96 305z" />
<glyph unicode="&#xfecb;&#xfebc;&#x640;&#xfeae;" horiz-adv-x="4900" d="M-24 -354q0 51 94 144q44 39 90 93q42 46 81 108q38 60 72 121q50 93 98 194q28 48 61 79q47 41 99 41q18 0 30 -3q171 -53 324 -80q146 -25 293 -25l1 -2v2l120 -3q350 0 683 57q330 55 612 154q445 159 810 381q22 14 45.5 29.5t45.5 30.5q47 27 99 72q35 27 64 54 t55 50q63 63 96 97q54 54 66 63q18 12 33 12q10 0 54 -40q40 -39 108 -39q-2 -2 108 133q42 59 91 108q35 36 61 61.5t43 40.5q76 60 142 60t98 -36q30 -34 30 -97q0 -51 -48 -155q-35 -67 -56 -100q9 4 50.5 29t114.5 82q33 27 56 49q43 41 43 50q-9 12 -79 43 q-72 29 -72 83q0 34 61 126q21 30 71 96q55 72 90 103q73 68 141 68q36 0 66 -27q28 -27 28 -57q0 -32 -16 -57q-17 -23 -35 -23q-24 0 -46 11q-24 10 -47 10q-58 0 -91 -30q-38 -31 -38 -64q0 -23 53 -47q49 -24 123 -24q30 0 51 3q9 2 61 24l72 38l83 52q21 11 28 5 q8 -8 8 -24q0 -33 -54 -71q-93 -61 -126 -85q-57 -42 -105 -83q-105 -91 -156 -147q-107 -111 -131 -132q-33 -30 -75 -58q-63 -47 -270 -141q-159 -71 -279 -69q-81 0 -132 19q-55 20 -99 66q-4 3 -19 30q-12 20 -20 20q-90 -111 -213 -236q-117 -114 -232 -190 q-96 -72 -201 -141q-77 -50 -180 -102q-387 -198 -770 -303q-312 -92 -636 -126q-219 -26 -438 -26v2l-1 -2q-219 0 -423 33q-207 30 -297 66l-50 18q-16 2 -27 -10q-9 -12 -25 -42q-111 -224 -174 -320q-41 -52 -74 -84q-42 -37 -93 -46q-12 -5 -31 -5q-48 0 -48 41z M4186 1228q27 -6 74 0q45 6 132 45q87 38 138 81q52 42 52 65q-27 12 -43 18q-51 19 -89 19q-78 0 -159 -90q-22 -19 -105 -138z" />
<glyph unicode="&#xfecf;&#xfec0;&#x640;&#xfeae;" horiz-adv-x="4930" d="M-24 -354q0 51 94 144q44 39 90 93q42 46 81 108q38 60 72 121q50 93 98 194q28 48 61 79q47 41 99 41q18 0 30 -3q171 -53 324 -80q146 -25 293 -25l1 -2v2l120 -3q350 0 683 57q330 55 612 154q445 159 810 381q22 14 45.5 29.5t45.5 30.5q47 27 99 72q35 27 64 54 t55 50q63 63 96 97q54 54 66 63q18 12 33 12q10 0 54 -40q40 -39 108 -39q-2 -2 108 133q42 59 91 108q35 36 61 61.5t43 40.5q76 60 142 60t98 -36q30 -34 30 -97q0 -51 -48 -155q-35 -67 -56 -100q9 4 50.5 29t114.5 82q33 27 56 49q43 41 43 50q-9 12 -79 43 q-72 29 -72 83q0 34 61 126q21 30 71 96q55 72 90 103q73 68 141 68q36 0 66 -27q28 -27 28 -57q0 -32 -16 -57q-17 -23 -35 -23q-24 0 -46 11q-24 10 -47 10q-58 0 -91 -30q-38 -31 -38 -64q0 -23 53 -47q49 -24 123 -24q30 0 51 3q9 2 61 24l72 38l83 52q21 11 28 5 q8 -8 8 -24q0 -33 -54 -71q-93 -61 -126 -85q-57 -42 -105 -83q-105 -91 -156 -147q-107 -111 -131 -132q-33 -30 -75 -58q-63 -47 -270 -141q-159 -71 -279 -69q-81 0 -132 19q-55 20 -99 66q-4 3 -19 30q-12 20 -20 20q-90 -111 -213 -236q-117 -114 -232 -190 q-96 -72 -201 -141q-77 -50 -180 -102q-387 -198 -770 -303q-312 -92 -636 -126q-219 -26 -438 -26v2l-1 -2q-219 0 -423 33q-207 30 -297 66l-50 18q-16 2 -27 -10q-9 -12 -25 -42q-111 -224 -174 -320q-41 -52 -74 -84q-42 -37 -93 -46q-12 -5 -31 -5q-48 0 -48 41z M3219 1992q0 33 53 138t69 113q32 14 91.5 -49.5t63.5 -99.5q0 -47 -50 -136.5t-72 -89.5q-9 0 -59 34.5t-75 54.5q-21 18 -21 35zM4186 1228q27 -6 74 0q45 6 132 45q87 38 138 81q52 42 52 65q-27 12 -43 18q-51 19 -89 19q-78 0 -159 -90q-22 -19 -105 -138zM4635 2576 q0 33 53 138t69 113q32 14 91.5 -49.5t63.5 -99.5q0 -47 -50 -136.5t-72 -89.5q-9 0 -59 34.5t-75 54.5q-21 18 -21 35z" />
<glyph unicode="&#xfecb;&#xfec4;&#x640;&#xfeb6;" horiz-adv-x="4048" d="M40 -66q0 102 24 220q23 107 75 255q38 87 83 176q61 117 76 106q18 -12 -37 -142q-48 -119 -60 -152q-8 -24 -39 -141q-23 -94 -23 -135q0 -147 89 -246q111 -120 322 -120q215 0 386 134q168 135 252 376q33 102 45 201q12 86 12 207v105q0 87 43 138q44 48 120 42 l68 -9l237 -21v2q18 -3 63 -5q27 -1 90 -1q285 0 573 52q417 75 754 254q191 102 311 181q156 101 307 234q2 9 -39 33q-42 21 -99 21q-40 0 -81 -30q-39 -33 -129 -138q-22 -27 -43 -54t-44 -54q-46 -55 -72 -39q-12 2 0 29q14 28 50 66q31 55 42 97q27 92 52 339 q3 30 7.5 64.5t9.5 73.5q10 80 15 92q45 106 48 117q51 123 73 165q12 9 21 12q11 3 11 -15v-6.5v-10.5q0 -16 -6 -30q-17 -52 -32 -159q-7 -54 -14.5 -108.5t-15.5 -108.5q-16 -111 -36 -189q-13 -59 -37 -134q58 66 120 129q100 108 186 108q72 0 108 -40q37 -44 37 -93 q0 -84 -76 -197q3 2 6.5 4t8.5 5q43 27 100 74q17 12 56 48q43 40 43 49q-12 17 -79 45q-72 29 -72 81q0 35 61 126q8 12 71 96q55 72 90 104q72 67 141 67q34 0 66 -25q28 -27 28 -57q0 -35 -16 -57q-17 -23 -35 -23q-24 0 -46 11q-30 10 -47 10q-55 0 -91 -31 q-38 -30 -38 -65q0 -21 53 -45q52 -25 123 -25q30 0 51 3q25 7 61 25l72 36l83 53q22 12 28 4q8 -6 8 -22q0 -35 -54 -71q-74 -48 -126 -87q-45 -31 -105 -82q-93 -80 -156 -147q-92 -95 -131 -132q-18 -17 -37.5 -31t-37.5 -28q-54 -39 -102 -64l-168 -77q-3 0 -4.5 -0.5 l-1.5 -0.5q-30 -30 -72 -65q-183 -156 -361 -262q-167 -104 -350 -182q-324 -138 -654 -196q-250 -44 -520 -44v-1q-39 0 -117 3q-39 3 -120 9q-96 18 -102 19q-21 2 -45 -120q-27 -130 -56 -246q-18 -75 -57 -180q-37 -97 -84 -187q-123 -227 -298 -354 q-176 -129 -369 -129q-198 0 -312 132q-113 132 -113 381zM1760 1985q0 18 64 135.5t79 119.5q24 0 75.5 -43.5t69.5 -82.5q33 54 63 105q44 72 54 72q36 0 92 -51q54 -57 54 -105q0 -55 -54 -138q-56 -79 -80 -79q-19 0 -55 37q-50 53 -83 77q-82 -168 -129 -168 q-10 0 -80 55.5t-70 65.5zM1897 2357q0 15 55.5 132t73.5 119q42 0 93 -51q51 -57 51 -110q0 -49 -47.5 -136t-69.5 -87q-14 0 -60.5 41t-71 59t-24.5 33z" />
<glyph unicode="&#xfecb;&#xfec4;&#x640;&#xfe8e;" horiz-adv-x="3706" d="M135 558q0 30 2 78t4 115q7 140 19 218l59 522l118 309q3 0 8 4q-2 -36 -3.5 -69t-4.5 -64q-13 -132 -26.5 -256t-24.5 -241q-22 -234 -22 -349q0 -117 22 -182q14 -39 45 -82q75 -105 225 -150v-2v2q129 -42 281 -59q154 -18 231 -18q247 0 468 35q226 34 460 94 q224 59 390 113q164 54 287 114q219 100 331 162q48 27 185 111q7 4 16 13t23 20q25 22 25 31q0 17 -37 42q-38 26 -80 26q-73 0 -172 -105q-74 -80 -159 -188q-26 -27 -50 -36h-3.5h-5.5q-15 15 12 56q63 90 74 109q30 56 55 146q14 37 24 102q3 30 7.5 69.5t10.5 90.5 q12 113 24 182q12 78 27 120l129 276q18 9 23 4q4 -4 4 -19q0 -18 -6 -33q-16 -48 -22 -90q-9 -45 -18 -113q-5 -33 -11 -74t-12 -91q-7 -49 -13 -89.5t-11 -72.5q-13 -67 -28 -117q-15 -52 -35 -100q57 61 113 105q90 67 157 67q57 0 96 -36q39 -34 39 -81q0 -103 -55 -199 q-14 -23 -33 -45q27 15 43 27q50 31 102 73q17 12 56 48q42 39 42 50q-9 15 -80 45q-70 28 -70 81q0 37 61 126q20 30 71 96q51 69 88 103q74 68 141 68q36 0 66 -27q30 -26 30 -56q0 -34 -16 -57q-18 -22 -36 -22q-24 0 -47 10q-27 11 -45 11q-55 0 -93 -32 q-36 -30 -36 -64q0 -21 51 -45q56 -26 123 -26q33 0 51 3q26 8 63 26l71 36l82 52q23 11 30 5q8 -8 8 -23q0 -36 -56 -70q-108 -74 -126 -87q-57 -41 -103 -83q-89 -76 -158 -147q-91 -97 -130 -132q-21 -19 -75 -58q-57 -42 -101 -65l-169 -76q-47 -18 -83 -27 q-34 -11 -48 -14q-22 -15 -46 -30.5t-48 -32.5q-210 -135 -326 -196q-282 -149 -595 -240q-237 -74 -414 -111q-338 -68 -618 -68q-95 0 -204 14q-95 9 -197 33v1v-1q-205 46 -313 169q-108 122 -108 338z" />
<glyph unicode="&#xfecb;&#xfec4;&#x640;&#xfeae;" horiz-adv-x="4479" d="M-17 -345q0 51 96 144q54 49 89 91q45 51 81 110q39 58 72 121q36 59 99 194q28 46 61 79q47 39 98 39q24 0 31 -3q171 -49 323 -78q136 -25 292 -25v-3v3l120 -3q368 0 671 48q297 49 624 163q253 89 519 224q261 135 481 285q206 141 344 246q190 147 226 199 q0 24 -37 47q-41 21 -90 21q-98 0 -194 -114q-28 -32 -71 -86t-101 -126q-30 -36 -45 -48q-11 -7 -26 2q-13 9 15 52q14 18 26 30q48 75 55 90q18 41 41 146q24 112 39 262q1 54 15 150q9 96 24 141l129 284q13 12 19 12t6 -21q0 -11 -6 -44l-13 -70q-8 -35 -18 -87 q-18 -107 -18 -215q0 -48 -20 -138q-18 -93 -27 -127q-10 -38 -19 -60q-6 -12 -21 -48l78 85q60 74 118 117q78 56 146 56q61 0 103 -48q39 -47 35 -119q-21 -120 -65 -198q66 41 110.5 75.5t71.5 62.5q43 41 43 50q-9 12 -79 43q-71 29 -71 83q0 37 62 126q13 24 70 96 q54 72 89 102q70 67 141 67q37 0 66 -25q30 -29 30 -57q0 -33 -18 -57q-17 -23 -35 -23q-24 0 -46 11q-24 10 -47 10q-58 0 -91 -30q-36 -31 -36 -64q0 -23 51 -47q49 -24 123 -24q33 0 51 3q6 0 63 24l70 38l83 52q21 11 28 5q9 -9 9 -24q0 -32 -55 -71q-93 -61 -126 -85 q-57 -42 -105 -83q-75 -66 -156 -147q-101 -108 -131 -132q-42 -36 -75 -58q-66 -50 -100 -65l-171 -78q-134 -127 -234 -208q-140 -120 -333 -258q-263 -186 -471 -288q-389 -200 -773 -308q-292 -84 -631 -123q-210 -24 -440 -24v2v-2q-213 0 -423 32q-217 34 -297 66 l-49 19q-14 2 -26 -10q-15 -21 -25 -42q-114 -228 -176 -320q-30 -46 -72 -84q-36 -34 -94 -48q-15 -3 -30 -3q-50 0 -50 41z" />
<glyph unicode="&#xfecb;&#xfec4;&#x640;&#xfed2;" horiz-adv-x="5109" d="M51 402q0 85 4 112q5 27 17 26q42 -26 141 -63q106 -41 256 -75q156 -39 369 -59q216 -22 441 -32t775 9.5t1070.5 118.5t652.5 143q64 22 141 52q0 8 0.5 16t0.5 19q2 21 15 48q66 151 95 199q94 164 181 164q62 0 96 -45q36 -45 36 -113q0 -30 -13 -90 q-12 -63 -27 -105q27 -7 73 3q48 8 74 27q85 47 184 135q59 51 99 102q38 44 36 65q-27 22 -21 18q-36 19 -72 18q-51 0 -91 -44q-29 -28 -71 -97l-55 -89q-18 -31 -36 -24q-11 2 -6 23q1 21 15 40q19 33 39 81q13 33 28 107q12 72 12 181l6 248q2 21 47 120q24 60 70 150 q6 9 9 -2q2 -7 0 -22q-18 -80 -21 -164q-6 -82 -6 -147l-19 -196l-12 -77q-3 -36 -3 -34q0 -5 -3 -20l40 60q35 42 66 63q29 23 78 30q51 0 78 -33q26 -33 26 -69q0 -66 -51 -174q-17 -37 -39 -73q49 31 43 27q29 16 102 73q21 15 56 50q42 39 42 49q-11 15 -80 44 q-70 28 -70 81q0 36 61 126q14 22 71 97q60 78 88 102q74 68 143 68q33 0 66 -26q28 -28 28 -57q0 -34 -16 -57q-18 -22 -36 -22q-24 0 -47 10q-21 11 -45 11q-54 0 -93 -30q-36 -32 -36 -65q0 -22 53 -46q49 -24 121 -24q42 0 51 3q6 0 63 24l71 37l82 51q21 12 30 5 q8 -8 8 -23q0 -33 -56 -70q-93 -62 -126 -86q-72 -54 -103 -82q-93 -81 -158 -149q-91 -97 -130 -132q-36 -31 -75 -57q-60 -45 -101 -64l-169 -77q-11 -4 -57 -19q-26 -21 -32 -24l-75 -48l-0.5 -1l-0.5 -1q-8 -6 -27 -21q-21 -19 -57 -34q-32 -12 -126 -36 q-93 -26 -137 -41q-102 -49 -171 -76q-213 -90 -397.5 -139t-343.5 -82q-262 -57 -520 -96q-329 -49 -782 -78q-430 -28 -702 -28q-172 0 -303 7q-124 5 -274 20q-323 33 -408 76q-150 74 -150 299zM2019 1340q0 -17 21 -35q25 -20 75 -54.5t59 -34.5q22 0 72 89.5t50 136.5 q-4 36 -63.5 99.5t-91.5 49.5q-16 -8 -69 -113t-53 -138zM4023 787q0 -25 42 -46q42 -24 69 -24q36 0 85 33q45 31 45 60q0 21 -27 51q-36 40 -79 40q-65 0 -105 -52q-30 -38 -30 -62z" />
<glyph unicode="&#xfecb;&#xfec8;&#x640;&#xfee2;" horiz-adv-x="4326" d="M-267 -1109q0 207 13 410q12 198 57 450q24 124 74 231q66 135 169 238q39 36 93 69q65 39 95 53q40 15 61 21q14 3 26.5 6.5t23.5 6.5q15 9 39 50q25 40 37 40q56 -30 113 -46q93 -30 228 -56q25 -4 54.5 -9.5t63.5 -9.5q63 -11 180 -11l120 -3q368 0 671 48 q297 50 624 164q253 88 519 223q270 140 481 285q171 117 344 246q184 143 228 200q0 22 -39 46q-41 21 -90 21q-98 0 -194 -114q-51 -57 -172 -211q-32 -38 -44 -47q-12 -10 -27 2q-13 6 15 51q-4 -6 26 31q46 71 55 89q18 40 41 145q22 111 39 263q0 21 15 150 q9 96 24 141l129 283q13 12 19 12t6 -19q0 -12 -6 -45l-13 -71q-6 -27 -10.5 -48.5t-7.5 -36.5q-18 -108 -18 -216q0 -42 -18 -138q-23 -105 -29 -128q-12 -37 -19 -58q-17 -42 -20 -50l77 86q60 73 118 117q80 55 146 55q61 0 103 -48q39 -46 35 -118q0 -90 -62 -194l10 6 t11 8q50 31 101 72q33 27 55 49q44 41 44 50q-9 15 -80 45q-70 28 -70 81q0 37 61 126q9 18 71 96q51 69 88 103q74 68 141 68q36 0 66 -27q29 -26 29 -57q0 -36 -17 -56q-18 -24 -34 -24q-21 0 -47 12q-30 11 -46 11q-56 0 -92 -32q-37 -31 -37 -64q0 -23 52 -45 q53 -26 123 -26q33 0 51 3q26 8 63 26l71 36l82 52q21 11 29 5q9 -8 9 -23q0 -34 -56 -70q-108 -74 -126 -87q-45 -32 -105 -83q-93 -79 -156 -147q-100 -108 -130 -132q-42 -36 -75 -58q-54 -39 -102 -65l-168 -76l-2 -2q-87 -85 -231 -210q-145 -123 -334 -258 q-261 -184 -470 -288q-391 -199 -774 -307q-309 -90 -631 -122q-204 -25 -440 -25q-160 0 -280 13q-119 14 -203 32q-10 3 -61 -51l-24 -28t-26 -28q-9 -10 -18 -3q-37 45 -70 74q-68 61 -156 61q-47 0 -71 -6q-85 -24 -160 -97q-54 -59 -84 -168q-27 -110 -51 -318 q-36 -321 -50 -681q-15 -345 -15 -650q0 -60 -0.5 -129.5t-2.5 -149.5q-1 -156 -30 -156q-13 0 -21 105q-4 108 -4 321v738zM2178 1793q0 -17 21 -35q25 -20 75 -54.5t59 -34.5q22 0 72 89.5t50 136.5q-4 36 -63.5 99.5t-91.5 49.5q-16 -8 -69 -113t-53 -138z" />
<glyph unicode="&#xfecf;&#xfebc;&#x640;&#xfeea;" horiz-adv-x="4632" d="M-2 -279q0 12 15 46l135 324q47 104 59 129q43 87 67 129q57 98 108 83q210 -54 348 -78q159 -29 296 -29l120 -3q363 0 681 57q331 56 612 155q448 159 810 381q22 13 45.5 29t47.5 31q48 31 97 72q66 54 119 103q22 23 47 47t49 51q45 45 66 63q18 12 33 12 q12 0 55 -41q41 -39 107 -39q4 2 108 135q54 69 91 107q66 67 105 102q75 60 141 60q68 0 99 -36q30 -38 30 -99q0 -45 -49 -153q-32 -65 -53 -98q42 23 62 36q57 39 102 74q33 27 54 49q43 39 43 50q-7 12 -79 45q-71 27 -71 81q0 34 62 126l24.5 35t45.5 61q54 72 89 102 q72 69 141 69q36 0 66 -27q30 -26 30 -57q0 -33 -18 -56q-17 -24 -35 -24q-24 0 -46 11q-27 12 -47 12q-54 0 -91 -32q-36 -31 -36 -64q0 -23 51 -47t123 -24q33 0 51 3q6 0 63 24l70 38l83 52q21 11 30 5q7 -11 7 -24q0 -32 -55 -71q-93 -61 -126 -85q-72 -54 -105 -83 q-108 -97 -156 -147q-101 -108 -131 -132q-33 -30 -75 -58q-57 -42 -100 -65l-170 -76q-28 -11 -82 -29q-8 -3 -41 -10q-84 -32 -156 -32q-78 0 -132 20q-55 19 -97 66l-21 31q-9 18 -20 18q-102 -124 -213 -235q-118 -117 -232 -192q-104 -75 -201 -140q-89 -58 -179 -102 q-384 -196 -769 -304q-312 -89 -636 -126q-204 -24 -438 -24q-222 0 -456 37q-242 36 -326 83q-28 -38 -73 -132q-29 -57 -65 -129l-58 -117q-24 -42 -41 -39q-9 1 -9 15zM3991 1237q29 -7 75 0q41 3 132 44q87 37 138 81q51 43 51 64q-28 14 -42 18q-51 20 -90 20 q-76 0 -159 -89q-21 -21 -105 -138zM4512 2580q0 33 53 138t69 113q32 14 91.5 -49.5t63.5 -99.5q0 -47 -50 -136.5t-72 -89.5q-9 0 -59 34.5t-75 54.5q-21 18 -21 35z" />
<glyph unicode="&#xfecb;&#xfed8;&#x640;&#xfede;" horiz-adv-x="4305" d="M24 -144q0 129 34 262q36 137 120 300q44 81 51 95q41 73 62 67q12 -7 1 -28q-4 -12 -14.5 -37t-28.5 -61q-56 -121 -78 -181q-42 -120 -42 -209q0 -178 129 -253q91 -56 252 -56q85 0 165 21q91 24 159 71q91 60 151 138q60 73 96 174q36 93 56 231q19 129 19 237 q0 63 1.5 117.5t1.5 101.5q3 46 4.5 92.5t1.5 93.5l-3 307q0 53 3 113q6 49 14 64l129 302q4 10 9 13q3 3 9 0t-3 -72l-15 -147l-11 -210q0 -130 65 -205q54 -59 163 -92q104 -31 233 -45q130 -13 267 -13q561 0 1192 187q96 26 285 99q183 71 299 125l102 52q-3 45 -3 53 q0 22 6 61q48 132 135 242q73 96 138 96q55 0 87 -47q28 -46 28 -117q0 -45 -9 -94q-10 -56 -24 -93q8 -3 33 3q26 6 93 46h2v2q36 18 112 76q-63 36 -82 50q-50 31 -50 63q0 16 32 69q27 51 88 126q59 72 86 94q54 44 102 44q42 0 66 -29q22 -30 19 -52q0 -23 -15 -39 q-3 -6 -15 -14q-16 0 -40 18q-27 17 -56 17q-33 0 -63 -26q-30 -30 -40 -66q-8 -16 12 -34q36 -44 129 -44q58 0 126 32q22 9 79 46q11 5 20.5 10t18.5 10q15 6 23 -11q1 -15 -8 -27q-13 -16 -33 -25l-132 -99l-165 -132l-214 -183l-2 -2q-21 -18 -37 -25q-23 -15 -80 -41 q-45 -22 -112 -48q-30 -10 -65 -18q-72 -45 -270 -153q-139 -78 -313 -156q-338 -157 -779 -265q-438 -110 -819 -110h-52q-126 0 -192 5q-66 4 -143 22v2q-79 16 -144 39q-18 4 -52 22l-50 24l-12 -123q-4 -55 -11 -113t-13 -118q-13 -121 -40 -229q-48 -198 -138 -362 q-245 -454 -654 -454q-194 0 -290 120q-97 120 -97 303zM2335 2155q0 20 61 132t76 119q25 10 74 -37t74 -83q30 49 66.5 110t49.5 62q37 0 89 -54.5t55 -102.5q0 -57 -56 -135q-54 -77 -79 -77q-17 0 -60.5 43.5t-76.5 67.5q-81 -163 -129 -163q-12 0 -34 19 q-21 18 -65.5 54t-44.5 45zM3994 1666q0 -25 42 -40q41 -18 69 -18q44 0 77 28q33 26 33 59t-32 58q-31 27 -72 27q-36 0 -75 -42q-42 -40 -42 -72z" />
<glyph unicode="&#xfecb;&#xfed4;&#x640;&#xfeee;" horiz-adv-x="4060" d="M9 10q-2 6 28 27q23 14 35.5 21.5t120.5 71.5q72 42 116 77q102 72 148 123q56 60 56 99q-12 -6 -36 -11q-27 -3 -48 -3q-54 9 -89 32q-49 28 -49 79q0 38 67 182q18 42 53 85q48 59 82 59q62 0 105 -44q54 -58 54 -120q-1 5 3 -51l9 5q32 10 65 27l21 12q-8 19 -9 37 q3 24 25 75q21 51 51 99q44 80 108 146q77 79 128 79q54 0 87 -43q30 -42 30 -86q0 -58 -14 -114q-7 -27 -12.5 -46.5t-6.5 -29.5q-5 -15 64 -26q57 -10 152 -19q94 -8 318 -11q348 0 681 57q325 56 606 153q280 98 528 225q252 126 480 284q87 58 136.5 93.5t62.5 44.5 q92 64 182 135q-45 16 -74 31q-52 23 -52 68q0 42 64 132q59 70 74 94q55 74 123 132q91 77 153 77q33 0 66 -26q33 -27 33 -66q0 -79 -68 -79q-12 0 -39 19q-28 20 -69 20q-31 0 -76 -36q-47 -39 -47 -68q0 -34 45 -61q44 -29 131 -29q69 0 135 29q36 16 106 58 q47 27 75 30q15 2 23 -6q4 -6 10 -12q0 -36 -55 -73q-48 -32 -89.5 -59.5t-75.5 -51.5q-26 -18 -56.5 -41.5t-66.5 -50.5q-24 -19 -50.5 -41.5t-57.5 -48.5l-309 -244q-245 -189 -348 -261q-273 -200 -458 -293q-378 -192 -769 -303q-312 -91 -636 -126q-216 -25 -438 -25 q-170 0 -351 33q-176 31 -320 114q-13 6 -22 13l-129 -61l-93 -51q-9 -23 -8 -20q-3 -21 -21 -54q-4 -13 -21.5 -47.5t-26.5 -46.5q-18 -33 -49 -78q-56 -84 -81 -96q-24 -15 -80 -36q-16 -6 -106 -36l-167 -44q-28 -6 -46 -7.5t-21 4.5zM873 859q0 -34 39 -49 q45 -15 69 -15q42 0 70 25q30 26 30 57q0 27 -31 50q-29 21 -65 21q-33 0 -73 -27q-39 -29 -39 -62zM1017 1890q0 -17 21 -35q25 -20 75 -54.5t59 -34.5q22 0 72 89.5t50 136.5q-4 36 -63.5 99.5t-91.5 49.5q-16 -8 -69 -113t-53 -138z" />
<glyph unicode="&#xfecb;&#xfed4;&#x640;&#xfe96;" horiz-adv-x="4837" d="M36 372q0 70 1 102q3 45 14 42q160 -96 481 -143q332 -48 882 -48q285 0 591 23q294 18 701 82q237 35 405 80q154 39 354 111q105 34 189 82q114 59 172 120q66 62 65 62q51 39 79 39q14 0 65 -18q25 -9 46 -9q80 0 188 97v2l30 31q-21 11 -21 48q0 33 40 117l54 108 q35 59 71 104q63 70 111 70q51 0 84 -40q36 -44 36 -110q0 -45 -15 -94q-17 -50 -17 -53q8 -13 35 -1q45 18 64 28q53 29 113 77q-21 10 -41.5 23t-41.5 25q-49 33 -49 64q0 17 31 69q36 60 89 126q60 74 87 95q51 42 100 42q44 0 66 -27q24 -30 20 -53q0 -22 -15 -39 q-2 -6 -15 -13q-15 0 -41 18q-25 16 -55 16q-33 0 -63 -27q-29 -28 -41 -66q-6 -15 12 -33q38 -43 129 -43q59 0 126 31q30 12 80 45q15 9 39 21q16 6 22 -10q3 -15 -7 -27q-12 -17 -33 -26l-132 -99l-165 -132l-215 -183q-57 -46 -109 -72q-54 -25 -96 -31h-74l-52 -12 q-44 -27 -74 -53q-39 -36 -64 -61q0 -2 -1 -3.5t-2 -1.5l-62 -64q-36 -44 -66 -66q-22 -17 -42 -17q-1 0 -108 45q-45 21 -79 20q-12 -6 -36 -29q-6 -10 -35 -39l-55 -67q-51 -65 -77 -83q-69 -61 -180 -120q-175 -96 -544 -187q-288 -75 -525 -114q-347 -62 -704 -90 q-366 -30 -699 -30q-310 0 -556 25q-239 24 -333 77q-74 49 -99 103q-23 50 -33 164zM1642 1171q0 20 61 132t76 119q25 10 74 -37t74 -83q30 49 66.5 110t49.5 62q37 0 89 -54.5t55 -102.5q0 -57 -56 -135q-54 -77 -79 -77q-17 0 -60.5 43.5t-76.5 67.5q-81 -163 -129 -163 q-12 0 -34 19q-21 18 -65.5 54t-44.5 45zM4140 2214q0 33 53 138t69 113q32 14 91.5 -49.5t63.5 -99.5q0 -47 -50 -136.5t-72 -89.5q-9 0 -59 34.5t-75 54.5q-21 18 -21 35zM4384 1198q0 -21 26 -39q27 -19 70 -19q45 0 81 25q36 24 36 53q0 22 -28 51q-27 31 -68 31 q-48 0 -82 -39q-35 -40 -35 -63z" />
<glyph unicode="&#xfecb;&#xfed8;&#x640;&#xfeae;" horiz-adv-x="4281" d="M16 -335q0 51 95 144q43 44 88 93q42 50 81 108q38 60 72 122q50 93 98 193q31 53 61 80q47 40 99 40q18 0 30 -3q195 -57 324 -78q144 -27 294 -27v-1v1h120q285 0 579 38q338 43 713 156q204 64 427 160q317 135 660 338q0 4 -0.5 9.5t-0.5 14.5q-2 10 -2 40 q2 38 11 63q4 18 28 63q78 143 99 168q72 102 156 102q62 0 87 -54q27 -54 27 -133q0 -35 -10 -77q-12 -39 -24 -55q4 -20 28 -12q15 3 29 9q10 1 54 27q43 22 114 76q-57 33 -83 48q-49 33 -49 65q0 15 30 70q31 51 90 126q60 72 85 93q50 42 102 42q41 0 66 -27 q21 -27 20 -52q0 -20 -15 -39q-6 -9 -17 -12q-16 0 -39 16q-27 17 -55 17q-33 0 -63 -26q-29 -27 -42 -66q-6 -18 12 -34q37 -44 129 -44q58 0 126 32q19 7 79 46l39 20q18 6 23 -11q3 -12 -8 -27q-9 -13 -31 -25l-132 -99l-167 -131l-214 -184v1v-1q-59 -57 -141 -74 l-111 -18q-89 -60 -215 -141q-177 -115 -367 -226q-170 -98 -330 -173q-123 -61 -309 -132q-350 -138 -737 -213q-373 -75 -771 -73v-2q-216 0 -424 32q-207 30 -297 66l-50 18q-16 3 -25 -11q-12 -13 -27 -40q-117 -236 -176 -320q-37 -54 -70 -85q-44 -38 -93 -47 q-8 -3 -30 -3q-50 0 -50 39zM2046 1709q0 23 64 152t79 137q27 12 78 -42t77 -96q32 57 70 127t52 71q38 0 92.5 -62.5t57.5 -118.5q0 -65 -58 -155q-57 -89 -83 -89q-18 0 -63.5 50t-79.5 78q-85 -188 -135 -188q-13 0 -36 22q-22 21 -68.5 62.5t-46.5 51.5zM3855 1200 q0 -26 36 -41q30 -16 58 -16q42 0 86 30q45 31 45 49q0 20 -17 39q-34 44 -79 44q-38 0 -119 -32q-37 -31 -10 -73z" />
<glyph unicode="&#xfecb;&#xfee0;&#x640;&#xfed2;" horiz-adv-x="5044" d="M51 402q0 90 6 114q6 28 16 24q42 -24 136 -61.5t256 -75t373 -60.5q224 -21 390 -21q78 0 141 1.5t111 1.5q933 15 1535.5 112t905.5 199q0 21 1 33q0 18 14 49q70 159 94 198q95 162 182 162q63 0 96 -43q36 -45 36 -113q0 -28 -12 -90q-15 -63 -29 -105q23 -6 74 0 t114 52t81 173l19 213q11 87 27 200q18 127 27 144l84 181q26 56 36 56q5 1 7 -5t2 -12q-15 -103 -28.5 -193t-23.5 -168q-21 -162 -23 -188q2 -111 29 -166q18 -39 63.5 -58.5t95.5 -12.5l20 54t19.5 49.5t51.5 124.5q39 80 84 132q69 77 156 77q41 0 68 -14q28 -18 37 -48 q2 -31 -18 -51q-18 -19 -31 -19q-5 0 -38 9q-34 9 -60 9q-67 0 -114 -57q-49 -57 -49 -99q0 -36 33 -69q31 -36 87 -36q66 0 141 105q22 36 45 75q27 49 46 45q17 -8 -1 -56q-17 -48 -57 -129q-54 -111 -122 -202q-162 -218 -363 -218q-133 0 -199 105q-15 26 -23 48 q-93 -124 -207 -190l-27 -11q-27 -10 -126 -37q-114 -30 -136 -39q-102 -50 -171 -81q-209 -74 -376 -122t-400.5 -96t-523.5 -95t-743 -77q-456 -27 -645 -25.5t-427 8t-384 28.5t-232 64q-151 75 -151 297zM2064 1361q0 -17 21 -35q25 -20 75 -54.5t59 -34.5q22 0 72 89.5 t50 136.5q-4 36 -63.5 99.5t-91.5 49.5q-16 -8 -69 -113t-53 -138zM4024 789q0 -23 42 -48q41 -23 69 -23q41 0 86 32q46 34 46 58t-28 53q-36 40 -80 40q-61 0 -103 -52q-32 -36 -32 -60z" />
<glyph unicode="&#xfecb;&#xfee0;&#x640;&#xfed6;" horiz-adv-x="4044" d="M-2 -114q0 96 20 201q21 115 66 213q33 87 100 199q11 18 32.5 54t54.5 90q9 23 24 42q15 18 24 11q21 -21 -33 -129q-34 -56 -58 -105q-45 -96 -77 -201q-34 -111 -34 -164q0 -180 114 -255q93 -61 258 -61q138 0 258 46q174 69 303 243q60 81 103 188q41 108 41 204 q0 108 -62 108q-36 -9 -60 -9q-52 0 -94 27t-32 70q9 35 36 93q5 9 47 89q24 46 63 85q40 44 78 44q66 0 108 -84q22 -47 31 -98q14 9 29 24q58 56 99 146q13 39 21 132l6 84l6 84q6 45 11 90t11 90q8 85 18 118l53 122l51 114l22 43q8 3 15 0q6 -6 6 -25q0 -20 -4 -48 q-3 -17 -5.5 -28t-2.5 -19l-37 -252q-3 -42 -6 -83l-6 -82q0 -61 13 -115q15 -57 48 -101q65 -84 203 -124v-2q114 -33 253 -46q149 -18 293 -18q138 0 318 30q175 28 388 90q153 42 369 138q234 103 318 150q57 31 132 76q75 48 141 96q-48 11 -88 42q-44 29 -44 53 q0 18 39 78q18 30 43 63.5t53 74.5q86 105 129 141q50 42 105 42q48 0 80 -27q28 -27 34 -59q0 -76 -49 -76q-18 0 -56 16q-33 17 -58 17q-33 0 -69 -32q-35 -31 -35 -60q0 -43 54 -66q56 -22 132 -22q44 0 87 18q44 18 119 64q46 30 81 30q18 0 21 -12q10 -22 -11 -43 q-19 -21 -45 -39q-49 -32 -135 -95l-105 -78q-27 -18 -63 -45.5t-84 -63.5q-76 -62 -118 -93.5t-47 -35.5q-84 -65 -156 -118t-135 -94q-129 -85 -295 -169q-294 -150 -596 -231q-310 -86 -595 -86q-242 0 -405 32v1v-1q-102 22 -162 55q-62 32 -117 83q-39 40 -57 64 q-30 38 -36 38l-9 -6q-8 -14 -15.5 -25t-11.5 -22q-24 -39 -56 -79l-79 -102q-5 -78 -26 -174q-28 -129 -66 -230q-57 -142 -123 -255q-52 -85 -117 -166q-120 -158 -268 -246q-146 -89 -327 -89q-197 0 -300 135q-92 117 -92 308zM449 1529q0 -9 44.5 -45t65.5 -54 q22 -19 34 -19q48 0 129 163q33 -24 76.5 -67.5t60.5 -43.5q25 0 79 77q56 78 56 135q-3 48 -55 102.5t-89 54.5q-13 -1 -49.5 -62t-66.5 -110q-25 36 -74 83t-74 37q-15 -7 -76 -119t-61 -132z" />
<glyph unicode="&#xfecb;&#xfed8;&#x640;&#xfe90;" horiz-adv-x="4831" d="M36 372q0 70 1 102q3 45 14 42q160 -96 481 -143q332 -48 882 -48q285 0 591 23q294 18 701 82q237 35 405 80q154 39 354 111q105 34 189 82q114 59 172 120q66 62 65 62q51 39 79 39q14 0 65 -18q25 -9 46 -9q80 0 188 97v2l30 31q-21 11 -21 48q0 33 40 117l54 108 q35 59 71 104q63 70 111 70q51 0 84 -40q36 -44 36 -110q0 -45 -15 -94q-17 -50 -17 -53q8 -13 35 -1q45 18 64 28q53 29 113 77q-21 10 -41.5 23t-41.5 25q-49 33 -49 64q0 17 31 69q36 60 89 126q60 74 87 95q51 42 100 42q44 0 66 -27q24 -30 20 -53q0 -22 -15 -39 q-2 -6 -15 -13q-15 0 -41 18q-25 16 -55 16q-33 0 -63 -27q-29 -28 -41 -66q-6 -15 12 -33q38 -43 129 -43q59 0 126 31q30 12 80 45q15 9 39 21q16 6 22 -10q3 -15 -7 -27q-12 -17 -33 -26l-132 -99l-165 -132l-215 -183q-57 -46 -109 -72q-54 -25 -96 -31h-74l-52 -12 q-44 -27 -74 -53q-39 -36 -64 -61q0 -2 -1 -3.5t-2 -1.5l-62 -64q-36 -44 -66 -66q-22 -17 -42 -17q-1 0 -108 45q-45 21 -79 20q-12 -6 -36 -29q-6 -10 -35 -39l-55 -67q-51 -65 -77 -83q-69 -61 -180 -120q-175 -96 -544 -187q-288 -75 -525 -114q-347 -62 -704 -90 q-366 -30 -699 -30q-310 0 -556 25q-239 24 -333 77q-74 49 -99 103q-23 50 -33 164zM1341 -945q0 33 53 138t69 113q32 14 91.5 -49.5t63.5 -99.5q0 -47 -50 -136.5t-72 -89.5q-9 0 -59 34.5t-75 54.5q-21 18 -21 35zM3512 1841q0 20 61 132t76 119q25 10 74 -37t74 -83 q30 49 66.5 110t49.5 62q37 0 89 -54.5t55 -102.5q0 -57 -56 -135q-54 -77 -79 -77q-17 0 -60.5 43.5t-76.5 67.5q-81 -163 -129 -163q-12 0 -34 19q-21 18 -65.5 54t-44.5 45zM4384 1198q0 -21 26 -39q27 -19 70 -19q45 0 81 25q36 24 36 53q0 22 -28 51q-27 31 -68 31 q-48 0 -82 -39q-35 -40 -35 -63z" />
<glyph unicode="&#xfecb;&#xfee0;&#x640;&#xfe8e;" horiz-adv-x="3141" d="M55 133q0 14 14 35q13 19 31 45q6 6 24 36q12 19 24 64q11 36 15 105q6 87 6 111v93q0 47 -4 99q0 140 40 302q24 93 92 297l7 15q3 1 5.5 2.5t3.5 4.5q9 0 9 -55q0 -6 -3 -90q-3 -41 -3 -77l-22 -388q0 -81 -12 -161q-11 -93 -36 -171q-38 -126 -96 -213q3 -6 25 -6h36 q83 0 159 75q77 69 108 171q11 36 12 114q3 53 3 95q0 78 -1 114q0 25 -1 47.5t-1 43.5q0 197 17 302q13 93 57 211q25 56 54 116l33 60.5t28 50.5q12 7 15 -5t-3 -51q-27 -147 -40 -261q-15 -126 -15 -211q0 -159 99 -255q64 -62 178 -101q107 -33 254 -48q135 -16 292 -16 q144 0 318 28q176 29 387 90q144 41 369 140q207 90 320 150q34 19 67 38.5t65 37.5q55 35 141 95q-47 12 -90 42q-42 28 -42 54q0 19 37 78q32 49 98 136q73 95 129 141q52 44 103 44q50 0 80 -27q31 -30 34 -59q0 -78 -49 -78q-18 0 -56 18q-39 17 -57 17q-36 0 -69 -33 q-36 -32 -36 -59q0 -45 56 -66q51 -24 132 -24q43 0 85 20q45 18 120 63q50 31 80 31q18 0 21 -12q12 -22 -11 -45q-25 -25 -43 -37q-56 -36 -135 -96q-38 -27 -64 -46.5t-41 -30.5q-51 -36 -147 -111q-161 -124 -167 -129q-160 -126 -291 -211q-120 -80 -295 -168 q-276 -144 -594 -233q-314 -84 -596 -84q-243 0 -405 32q-262 54 -318 162l-21 -95q-12 -37 -21.5 -64t-15.5 -44q-27 -69 -53 -108q-49 -82 -97 -127q-65 -62 -146 -62q-40 0 -75 18q-31 18 -58 50q-27 19 -32 24q-21 16 -21 40z" />
<glyph unicode="&#xfecf;&#xfee0;&#x640;&#xfe8e;" horiz-adv-x="3163" d="M55 133q0 14 14 35q13 19 31 45q6 6 24 36q12 19 24 64q11 36 15 105q6 87 6 111v93q0 47 -4 99q0 140 40 302q24 93 92 297l7 15q3 1 5.5 2.5t3.5 4.5q9 0 9 -55q0 -6 -3 -90q-3 -41 -3 -77l-22 -388q0 -81 -12 -161q-11 -93 -36 -171q-38 -126 -96 -213q3 -6 25 -6h36 q83 0 159 75q77 69 108 171q11 36 12 114q3 53 3 95q0 78 -1 114q0 25 -1 47.5t-1 43.5q0 197 17 302q13 93 57 211q25 56 54 116l33 60.5t28 50.5q12 7 15 -5t-3 -51q-27 -147 -40 -261q-15 -126 -15 -211q0 -159 99 -255q64 -62 178 -101q107 -33 254 -48q135 -16 292 -16 q144 0 318 28q176 29 387 90q144 41 369 140q207 90 320 150q34 19 67 38.5t65 37.5q55 35 141 95q-47 12 -90 42q-42 28 -42 54q0 19 37 78q32 49 98 136q73 95 129 141q52 44 103 44q50 0 80 -27q31 -30 34 -59q0 -78 -49 -78q-18 0 -56 18q-39 17 -57 17q-36 0 -69 -33 q-36 -32 -36 -59q0 -45 56 -66q51 -24 132 -24q43 0 85 20q45 18 120 63q50 31 80 31q18 0 21 -12q12 -22 -11 -45q-25 -25 -43 -37q-56 -36 -135 -96q-38 -27 -64 -46.5t-41 -30.5q-51 -36 -147 -111q-161 -124 -167 -129q-160 -126 -291 -211q-120 -80 -295 -168 q-276 -144 -594 -233q-314 -84 -596 -84q-243 0 -405 32q-262 54 -318 162l-21 -95q-12 -37 -21.5 -64t-15.5 -44q-27 -69 -53 -108q-49 -82 -97 -127q-65 -62 -146 -62q-40 0 -75 18q-31 18 -58 50q-27 19 -32 24q-21 16 -21 40zM1884 1782q0 33 53 138t69 113 q32 14 91.5 -49.5t63.5 -99.5q0 -47 -50 -136.5t-72 -89.5q-9 0 -59 34.5t-75 54.5q-21 18 -21 35z" />
<glyph unicode="&#xfecb;&#xfb91;&#x640;&#xfeb2;" horiz-adv-x="4087" d="M18 -60q0 109 22 220q29 123 75 255q26 60 84 176q62 114 77 106q16 -12 -39 -142q-48 -119 -60 -152q-6 -24 -16 -59t-22 -82q-24 -103 -24 -135q0 -147 90 -246q113 -118 323 -118q213 0 385 132q170 135 252 376q33 98 47 201q12 86 12 207v105q0 87 43 138 q44 48 120 42l68 -9l235 -21q50 -6 138 -9q83 -6 146 -6q339 0 613 56q285 58 510 150q159 63 329 162q129 76 225 150q70 55 82 67q33 32 80 89q22 33 46 108q11 40 27 90q18 55 51 118q36 72 81 135q9 15 14 18q4 0 7 5q0 -24 -1 -33q0 -15 -14 -66l-64 -314 q-11 -58 -18.5 -97t-8.5 -59q-6 -34 -6 -85l-2 -2q0 -111 29 -174q18 -42 64 -58q45 -20 95 -12q19 49 40 106q0 2 53 120q36 81 82 132q69 77 156 77q41 0 68 -14q28 -15 37 -48q2 -33 -16 -51q-23 -19 -33 -19q-2 0 -38 9q-34 9 -60 9q-66 0 -114 -56q-49 -58 -49 -100 q0 -35 33 -69q30 -35 87 -35q66 0 141 104l45 75q28 51 46 45q15 -8 -1 -56q-12 -36 -56 -129q-58 -114 -123 -202q-160 -218 -363 -218q-135 0 -199 104q-53 88 -53 222l2 1v-1q0 66 4 111q2 22 6.5 58t10.5 86q-6 -9 -13.5 -19t-13.5 -19q-17 -21 -44 -48l-97 -88 q-171 -153 -408 -287q-189 -103 -332 -153q-280 -109 -558 -159q-276 -49 -531 -49l-132 6q-39 0 -117 3q-57 1 -118 9q-81 15 -102 18q-21 4 -47 -119q-25 -129 -54 -246q-21 -87 -57 -180q-37 -99 -85 -189q-122 -222 -299 -351q-175 -129 -370 -129q-198 0 -311 132 q-112 134 -112 380zM4048 2071q20 54 56 123q30 51 70 95q68 73 288 252q204 162 393 316q120 98 272 236q111 105 241 234q231 220 231 226q0 -15 -7 -27q-9 -42 -57 -129q-50 -85 -84 -129q-39 -52 -105 -127q-38 -42 -92 -96q-36 -38 -156 -146q-42 -36 -104 -90 t-145 -124q-115 -98 -208 -168q-62 -50 -123.5 -96.5t-121.5 -91.5l-213 -166q-60 -48 -87 -69q-42 -33 -48 -23z" />
<glyph unicode="&#xfecb;&#xfee0;&#x640;&#xfede;" horiz-adv-x="4069" d="M-17 -161q0 131 33 257q33 129 123 304q23 45 58 106t53 58q14 -9 2 -30q-15 -30 -45 -96q-59 -129 -77 -182q-42 -120 -42 -208q0 -170 132 -249q104 -62 248 -62q81 0 166 23q84 19 159 70q194 128 270 374q53 171 59 405q3 187 2 343t4.5 318t8.5 219q1 45 24 84 l108 239q24 34 18 -68l-15 -150l-9 -126l-8 -204v-78q0 -75 33 -108q33 -30 81 -30q119 0 132 95l15 193q0 42 14 204q18 170 39 269q1 6 91 175q75 135 74 132q10 14 13 -3q0 -16 -13 -90q-23 -106 -42 -211q-35 -180 -35 -261q0 -257 273 -338h2l3 -1q153 -38 246 -45 q159 -18 295 -18q134 0 317 30q172 28 388 90q149 40 368 138q231 102 319 150q80 46 132 78q81 51 141 94q-37 8 -90 41q-42 28 -42 54q0 19 38 79q33 51 97 135q71 92 129 143q50 42 104 42q49 0 79 -27q29 -27 35 -59q0 -76 -50 -76q-21 0 -55 16q-33 17 -57 17 q-36 0 -69 -32q-36 -34 -36 -60q0 -45 55 -66q54 -22 132 -22q42 0 86 18q48 19 120 64q46 30 79 30q18 0 21 -12q12 -19 -10 -45q-21 -21 -45 -37q-62 -42 -134 -96q-37 -27 -63.5 -46.5t-41.5 -30.5q-39 -27 -147 -109q-160 -125 -166 -129q-144 -116 -284.5 -208 t-300.5 -173q-294 -150 -596 -231q-310 -83 -594 -86q-243 0 -405 32q-193 45 -312 156q-37 40 -40 40q-20 0 -68 -120q-24 -69 -71 -115.5t-89 -62t-114 -15.5h-2q-1 -230 -73 -506q-50 -195 -144 -360q-245 -456 -647 -456q-193 0 -291 119q-96 123 -96 304z" />
<glyph unicode="&#xfecb;&#xfee4;&#x640;&#xfede;" horiz-adv-x="4324" d="M57 -161q0 134 33 263q33 124 120 298q48 93 49 96q44 72 65 66q12 -4 1 -28l-45 -96q-55 -123 -76 -182q-44 -126 -44 -208q0 -179 129 -255q92 -56 252 -56q77 0 167 21q81 21 157 72q89 62 150 138q63 80 96 173q38 102 56 232q21 140 21 236v117.5t3 101.5 q0 46 2 92.5t4 93.5l-3 307q0 53 3 113q1 43 12 64l129 302q7 13 9 13l2 1.5t4 3.5q3 0 1 -30q-1 -21 -1 -47l-15 -147l-9 -208q0 -135 64 -206q53 -60 162 -93q95 -31 270 -55q168 -24 329 -24q100 0 177 4q36 2 80 4t95 7q266 22 552 100q291 77 587 207q117 47 231 104 q28 15 62.5 33t75.5 40q72 38 106 54q42 23 108 51h1h2l62 77q3 3 6 9l1 1q24 29 56 65q49 55 91 106q-30 20 -45 32q-49 36 -49 48q0 42 39 109q39 72 82 122q53 60 84 88q80 74 141 74q41 0 77 -30q34 -33 34 -56q0 -21 -13 -43q-18 -23 -39 -24q-17 0 -30 12 q-45 34 -68 34q-37 0 -82 -36q-44 -37 -44 -69q0 -34 62 -55q63 -21 165 -21q42 0 108 27q16 7 32.5 14.5t34.5 16.5q39 8 47 -6q1 -19 -17 -37t-30 -23q-6 -3 -46 -21q-5 0 -71 -33q-118 -61 -175 -100q-36 -24 -132 -93q-39 -29 -77 -62q-15 -12 -31 -34q-9 -9 -14 -15 q-4 -12 -4 -21q0 -47 30 -83q73 -96 73 -111q0 -58 -61 -112q-63 -57 -95 -57q-18 0 -91 45q-72 45 -102 45q-56 0 -147 -68q-93 -67 -203 -135q-64 -39 -183 -99q-115 -58 -225 -108q-171 -75 -292 -112q-206 -75 -507 -131q-309 -57 -533 -57q-144 0 -277 12 q-147 15 -218 32q-81 16 -144 39q-22 7 -52 22l-48 24l-14 -123q-6 -55 -12 -113t-12 -118q-16 -136 -40 -228q-45 -193 -138 -363q-246 -454 -653 -454q-192 0 -289 120q-96 117 -96 304z" />
<glyph unicode="&#xfecb;&#xfee4;&#x640;&#xfeae;" horiz-adv-x="4269" d="M-357 -504q-11 21 49 64l33 22t17 13q106 67 154 103q194 141 440 525q64 102 154 215q84 103 158 172q52 47 106 80q72 42 99 55l90 27q2 3 14.5 22.5t35.5 55.5q16 33 27 33q48 -18 103 -34q68 -24 167 -42q31 -5 68 -10t79 -10q88 -12 181 -12l120 -3q348 0 681 57 q329 56 606 153q276 95 528 225q252 126 480 284q179 121 200 138q91 64 181 135q-37 15 -73 30q-53 24 -53 67q0 42 65 132q61 78 73 96q56 74 123 132q92 77 155 77q31 0 64 -26q33 -27 33 -66q0 -81 -67 -81q-9 0 -39 21q-33 20 -69 20q-32 0 -77 -38q-46 -37 -46 -67 q0 -33 45 -60q43 -29 130 -29q69 0 135 29q29 10 108 57q42 28 74 31q15 2 22 -6q8 -7 11 -13q0 -35 -54 -72q-50 -32 -91 -59.5t-76 -51.5q-37 -26 -123 -93q-43 -35 -106 -89l-311 -246q-237 -180 -346 -261q-279 -199 -458 -291q-385 -196 -771 -303q-307 -90 -634 -126 q-221 -25 -440 -25v1q-378 27 -411 27q-37 -12 -75 -60q-39 -46 -54 -46q-43 28 -117 61q-67 27 -129 27q-172 0 -349 -229q-128 -182 -206 -287q-100 -142 -243 -249q-66 -48 -223 -138q-63 -34 -113 -54q-48 -22 -55 -10z" />
<glyph unicode="&#xfecb;&#xfee0;&#x640;&#xfee2;" horiz-adv-x="3427" d="M22 -1365q0 72 1 138t2 126q0 261 36 525q39 264 99 448q18 62 50 129q63 128 138 224q30 37 91 99q60 54 99 82l129 86l186 288h2q25 40 81 130q60 95 73 128q18 37 35 129q16 69 27 166q4 36 9.5 80.5t9.5 96.5q15 114 21 135q12 77 69 197q9 33 36 94q18 39 35 72 q10 12 16 12q8 0 8 -24q-3 -39 -3 -34q-12 -75 -42 -282q-26 -200 -26 -237q0 -87 21 -144q24 -60 62 -104q69 -85 200 -113.5t230 -39.5q138 -16 293 -16q144 0 318 28q178 29 388 92q141 37 368 138q219 94 319 150q35 18 68 38t64 38q66 42 141 95q-48 12 -88 42 q-44 27 -44 54q0 19 39 78q39 61 96 136q74 95 129 141q53 44 104 44q49 0 81 -29q30 -28 33 -57q0 -76 -50 -76q-21 0 -54 16q-40 17 -58 17q-36 0 -69 -32q-36 -34 -36 -60q0 -45 55 -66q54 -24 132 -24q44 0 86 20q48 19 120 64q49 30 79 30q17 0 23 -12q10 -24 -12 -45 q-26 -25 -44 -37q-55 -36 -135 -96q-79 -60 -105 -77q-27 -19 -63.5 -47t-83.5 -64q-160 -124 -166 -129q-161 -126 -291 -211q-117 -77 -294 -168q-279 -146 -596 -233q-306 -84 -595 -84q-237 0 -404 30v2q-52 7 -133 36q-72 24 -119 55q-64 44 -111 104q-1 4 -27 46 l-147 -217q48 -17 57 -23q9 -4 29.5 -14.5t51.5 -28.5q65 -38 65 -90q0 -18 -11 -35q-70 -171 -174 -229q-37 -24 -211 -65q-90 -24 -161 -55q-67 -35 -138 -80q-129 -97 -162 -178q-43 -108 -75 -243q-9 -42 -24 -141q-3 -29 -37 -359q-30 -321 -30 -375l-21 -432 q0 -96 -14 -243q-12 -145 -30 -145q-6 67 -9 105q-12 154 -12 202v158.5v149.5z" />
<glyph unicode="&#xfecf;&#xfee0;&#x640;&#xfeea;" horiz-adv-x="3544" d="M-5 -30q8 21 27 46q89 105 102 120q41 44 86 83q72 51 105 72q72 39 132 39q30 0 64 -8l65 -13q69 -11 117 33q49 43 60 108q25 132 25 235q0 42 21 222q24 174 59 312q9 27 63 146q57 120 87 159q4 -3 12 -3q0 -21 -12 -87q-14 -65 -26.5 -128t-24.5 -126 q-38 -190 -38 -279q0 -259 273 -337v-2q111 -31 252 -46q135 -17 293 -17q144 0 318 29q184 30 388 91q137 36 368 137q217 94 319 151q35 18 68 38.5t64 38.5q69 42 141 94q-49 14 -88 42q-44 29 -44 54q0 15 39 78q48 75 96 137q74 94 129 141q53 43 105 43q45 0 80 -28 q30 -29 33 -59q0 -76 -48 -76q-18 0 -56 16q-39 18 -58 18q-32 0 -69 -33q-36 -31 -36 -60q0 -42 55 -66q56 -22 132 -22q42 0 86 18q31 12 120 64q49 32 79 32q17 0 23 -12q10 -24 -11 -45q-31 -29 -45 -39q-34 -21 -135 -95q-79 -60 -105 -76q-27 -20 -63.5 -47.5 t-83.5 -63.5q-147 -114 -165 -129q-166 -129 -292 -212q-125 -82 -294 -168q-281 -147 -596 -232q-313 -84 -595 -84q-237 0 -404 30q-127 24 -229 90q-42 24 -84 66q-36 40 -39 40q-24 -43 -65 -124q-34 -72 -91 -134q-56 -64 -111 -97q-72 -47 -147 -47q-29 0 -108 27 q-50 17 -68 17q-45 0 -105 -30q-58 -30 -93 -62q-36 -31 -51 -16q-12 13 -6 36zM2064 1673q0 33 53 138t69 113q32 14 91.5 -49.5t63.5 -99.5q0 -47 -50 -136.5t-72 -89.5q-9 0 -59 34.5t-75 54.5q-21 18 -21 35z" />
<glyph unicode="&#xfecb;&#xfee4;&#x640;&#xfeea;" horiz-adv-x="3876" d="M-6 -270q0 12 13 46l135 324q30 68 59 129q42 87 67 129q56 99 108 84q197 -52 348 -79q158 -29 296 -29h178q362 0 758 95q294 72 543 175q160 65 369 179q162 88 282 168q148 99 225 153q36 28 94 76l167 134l24 24l70 85h2q9 14 55 66q17 18 39.5 45t52.5 62 q-48 30 -47 30q-48 36 -48 49q0 41 38 110q36 63 82 120q36 42 86 90q76 73 141 73q42 0 76 -31q33 -30 33 -54q0 -21 -13 -44q-14 -22 -38 -24q-18 0 -31 12q-42 33 -68 33q-36 0 -81 -34q-45 -36 -45 -69q0 -36 62 -56q60 -22 166 -22q39 0 107 28q45 21 67 30q39 8 47 -6 q1 -19 -15 -36q-18 -19 -32 -24q-30 -12 -45 -19q-4 0 -72 -33q-120 -63 -174 -101q-66 -45 -132 -93q-45 -31 -76 -61q-2 -2 -4 -3.5l-2 -1.5q-45 -45 -45 -66q0 -52 52 -111q53 -60 53 -82q0 -33 -56 -105q-58 -74 -91 -74q-14 0 -68 30q-55 29 -87 29q-24 0 -334 -239 q-29 -22 -104 -78q-42 -28 -90.5 -60.5t-102.5 -66.5q-191 -122 -290 -176q-162 -90 -346 -166q-338 -147 -711 -221q-323 -61 -621 -61q-224 0 -456 37q-243 36 -326 83q-30 -38 -73 -132q-30 -57 -65 -129l-58 -117q-26 -44 -41 -39q-7 1 -7 15z" />
<glyph unicode="&#xfecb;&#xfee0;&#x640;&#xfeee;" horiz-adv-x="3159" d="M7 4q-3 6 29 27q37 23 40 24q-12 -9 116 69q82 50 115 77q93 66 149 123q54 58 54 99q-14 -6 -35 -11q-27 -3 -48 -3q-60 12 -88 32q-50 28 -50 79q0 35 68 182q18 42 52 85q45 59 83 59q60 0 105 -44q52 -60 52 -120q-1 5 3 -18q9 6 29 26q60 55 97 144q15 43 23 132 q3 57 12 168q4 45 10 90t11 90q7 85 18 118l52 123l53 113l21 43q9 8 15 0q6 -6 6 -24t-5 -49q-6 -41 -7 -47l-36 -252q-5 -54 -14 -165q0 -55 15 -115q14 -56 47 -99q72 -90 204 -126v-2q111 -33 253 -46q149 -18 293 -18q135 0 318 30q175 28 387 90q138 39 369 138 q241 106 319 150q35 19 68 38.5t64 39.5q69 42 141 94q-43 11 -88 42q-44 27 -44 53q0 21 39 79q48 75 96 137q78 99 129 141q50 42 104 42q49 0 81 -27q30 -29 33 -59q0 -76 -50 -76q-16 0 -54 16q-39 18 -58 18q-35 0 -69 -33q-36 -31 -36 -60q0 -45 55 -66 q56 -22 132 -22q42 0 86 18q36 15 120 64q49 32 79 32q18 0 23 -14q12 -22 -12 -43q-17 -18 -44 -39q-34 -21 -135 -95q-79 -60 -105 -76q-27 -20 -63.5 -47.5t-83.5 -63.5q-147 -114 -165 -129q-166 -129 -292 -212q-134 -88 -294 -169q-291 -150 -596 -231 q-306 -84 -595 -84q-240 0 -405 30v1v-1q-101 22 -164 55q-57 29 -117 83q-39 40 -55 64q-32 38 -36 38l-9 -6q-11 -17 -29 -47q-12 -21 -54 -79l-90 -114l-22 -24q-2 -14 -21 -53q-5 -13 -17 -40q-9 -18 -31 -54q-23 -41 -51 -78q-50 -78 -80 -96q-24 -15 -79 -36 q-24 -9 -108 -36l-165 -44q-9 -1 -19.5 -3.5t-22.5 -2.5q-23 -3 -26 3z" />
<glyph unicode="&#xfe97;&#xfee8;&#xfec8;&#x6cc;&#xfee2;" horiz-adv-x="5006" d="M-135 -1159q0 72 1 138.5t2 125.5q0 260 36 524q40 275 99 448q11 33 23 65t27 64q42 90 86 159t97.5 126.5t120 106.5t152.5 99l187 289q35 44 78.5 95t91.5 101t98.5 95.5t100.5 80t98 54.5t91 18q114 -36 242 -53.5t257 -22t252.5 1t229.5 15t188.5 20.5t128.5 18 q148 25 297 62t301 85q219 68 418 157.5t383 204.5q149 91 235 161.5t112 120.5q0 26 -39 46q-40 23 -90 23q-97 0 -191 -114l-172 -212q-52 -63 -74 -46q-9 8 6 39q17 29 32 43q23 35 36.5 57.5t18.5 32.5q21 39 39 119q15 70 25.5 142t18.5 147q0 8 3.5 46t11.5 104 q7 56 13.5 91.5t11.5 49.5l128 282q1 11 15 3q10 -10 10 -55q0 -7 -2 -16t-5 -20l-12 -35q-20 -75 -28 -147t-8 -153q0 -44 -18 -138q-17 -85 -29 -127q-5 -22 -10.5 -36.5t-8.5 -23.5l-20 -50l183 185q89 73 158 73q65 0 103 -48q39 -47 35 -117q0 -124 -111 -282 q1 1 3.5 2.5t8 7t16 15.5t29.5 28q10 9 23.5 27.5t33.5 47.5q14 19 32.5 51.5t42.5 77.5q33 70 61 105q31 41 64 66.5t76 24.5q26 -1 39.5 -2t15.5 -1q28 0 41 20l43 82q21 39 39 38q7 -5 7.5 -20.5t-3 -33t-8 -32.5t-5.5 -19l-67 -159q-8 -16 -14 -26.5t-13.5 -17.5 t-17 -11t-23.5 -7q-37 -2 -62 -0.5t-43.5 -0.5t-32 -11t-27.5 -31l-46 -81q-13 -21 -43 -66.5t-75.5 -94.5t-106 -90t-134.5 -54q-97 -93 -222 -177q-92 -68 -198 -135q-55 -35 -100 -61.5t-83 -44.5q-395 -202 -774 -308q-148 -43 -304.5 -73t-326.5 -50 q-85 -10 -177.5 -17t-188 -9t-191.5 3t-189 19t-180.5 39t-164.5 64q-44 -15 -83.5 -32.5t-76.5 -40t-72.5 -51.5t-71.5 -66q27 -11 37 -15.5t19 -9.5t23.5 -13t49.5 -25q64 -36 64 -92q0 -15 -9 -33q-73 -174 -174 -229q-19 -14 -72 -29.5t-141 -35.5q-46 -12 -86 -26.5 t-73 -28.5q-72 -36 -138 -81q-127 -94 -163 -177q-41 -101 -67 -201t-43 -207t-26.5 -225t-16 -256.5t-13 -301t-16.5 -357.5q0 -18 -1.5 -55.5t-5 -82.5t-9 -92.5t-12.5 -85t-16.5 -59t-21.5 -15.5l2 307zM1037 -810q0 20 61 132t76 119q25 10 74 -37t74 -83 q30 49 66.5 110t49.5 62q37 0 89 -54.5t55 -102.5q0 -57 -56 -135q-54 -77 -79 -77q-17 0 -60.5 43.5t-76.5 67.5q-81 -163 -129 -163q-12 0 -34 19q-21 18 -65.5 54t-44.5 45zM2720 2728q0 33 53 138t69 113q32 14 91.5 -49.5t63.5 -99.5q0 -47 -50 -136.5t-72 -89.5 q-9 0 -59 34.5t-75 54.5q-21 18 -21 35zM4022 3380q0 33 53 138t69 113q32 14 91.5 -49.5t63.5 -99.5q0 -47 -50 -136.5t-72 -89.5q-9 0 -59 34.5t-75 54.5q-21 18 -21 35zM4562 3445q0 20 61 132t76 119q25 10 74 -37t74 -83q30 49 66.5 110t49.5 62q37 0 89 -54.5 t55 -102.5q0 -57 -56 -135q-54 -77 -79 -77q-17 0 -60.5 43.5t-76.5 67.5q-81 -163 -129 -163q-12 0 -34 19q-21 18 -65.5 54t-44.5 45z" />
<glyph unicode="&#xfed7;&#xfec0;&#x640;&#xfe8e;" horiz-adv-x="4368" d="M114 546q0 75 6 193q9 185 33 370t43 370l120 309q8 15 11 3q-2 -47 -11 -132q-13 -132 -27.5 -256t-24.5 -241q-21 -219 -21 -349q0 -122 21 -182q12 -36 46 -82q81 -117 236.5 -169t322 -62.5t286.5 -8.5q280 0 613 55q221 41 387 87q191 54 336 110q116 42 270 120 q108 49 200 111q67 40 166 118q23 18 41.5 34t33.5 29q35 32 41 39q31 27 34 29q23 16 41 16q7 0 21 -13q7 -9 21 -23q9 -9 36 -22q22 -15 60 -15q7 0 19 9q8 4 38 43q40 50 80 98.5t80 98.5q122 132 224 132q45 0 75 -35q30 -36 30 -82q0 -128 -105 -267q42 24 48 28 q22 15 43 28t39 26q33 23 54 44q111 111 111 181q0 44 -16 80q-20 34 -42 34l-71 -10q-64 0 -88 46q-9 15 -9 41q0 16 24 78q22 58 54 118q33 63 43 77q32 39 71 39q75 0 133 -90q60 -90 60 -186q0 -51 -10 -110q-12 -69 -41 -127q-33 -69 -55 -108q-29 -44 -68 -87 q-63 -69 -111 -110q-34 -30 -108 -72q-72 -42 -85 -45q-54 -27 -122 -51q-73 -27 -105 -34q-4 -2 -7 -2.5t-6 -0.5q-75 -26 -150 -26q-54 0 -101 17q-42 13 -79 42q-33 25 -39 42q-9 18 -21 18q-57 -57 -152 -138q-90 -81 -147 -122q-61 -46 -118 -79q-108 -72 -224 -129 q-178 -90 -328 -149q-246 -96 -449 -141q-228 -51 -456 -78q-237 -28 -436 -28q-171 0 -380.5 36t-332.5 175q-106 119 -106 338zM1734 1613q0 33 53 138t69 113q32 14 91.5 -49.5t63.5 -99.5q0 -47 -50 -136.5t-72 -89.5q-9 0 -59 34.5t-75 54.5q-21 18 -21 35zM3491 2251 q0 20 61 132t76 119q25 10 74 -37t74 -83q30 49 66.5 110t49.5 62q37 0 89 -54.5t55 -102.5q0 -57 -56 -135q-54 -77 -79 -77q-17 0 -60.5 43.5t-76.5 67.5q-81 -163 -129 -163q-12 0 -34 19q-21 18 -65.5 54t-44.5 45zM3529 975q33 -3 39 -3q30 0 75 7q48 9 95 30 q51 20 106 62q56 37 56 69q0 15 -39 39q-41 22 -84 22q-33 0 -71 -27q-16 -13 -64 -58q-30 -36 -54 -68q-21 -27 -35.5 -45t-23.5 -28z" />
<glyph unicode="&#xfed7;&#xfebc;&#x640;&#xfe8e;" horiz-adv-x="4360" d="M121 546q0 75 6 193q9 185 33 370t44 370l120 309q7 15 10 3q-1 -47 -10 -132q-14 -132 -28 -256t-25 -241q-21 -219 -21 -349q0 -122 21 -182q12 -36 47 -82q81 -117 230 -164.5t332 -59.5q162 -16 282 -16q281 0 614 55q220 41 387 87q190 54 336 110q115 42 270 120 q108 49 199 111q68 40 167 118q22 18 41 34t34 29q34 32 40 39q32 27 35 29q22 16 40 16q8 0 21 -13q8 -9 21 -23q9 -9 36 -22q23 -15 60 -15q8 0 20 9q7 4 37 43q41 50 80.5 98.5t80.5 98.5q121 132 223 132q45 0 75 -35q30 -36 30 -82q0 -128 -105 -267q42 24 48 28 q23 15 44 28t39 26q33 23 54 44q111 111 111 181q0 44 -17 80q-19 34 -42 34l-70 -10q-65 0 -89 46q-9 15 -9 41q0 16 24 78q23 58 54 118q33 63 44 77q31 39 70 39q75 0 134 -90q60 -90 60 -186q0 -51 -11 -110q-12 -69 -40 -127q-33 -69 -56 -108q-28 -44 -67 -87 q-63 -69 -111 -110q-35 -30 -108 -72q-72 -42 -86 -45q-54 -27 -121 -51q-74 -27 -105 -34q-5 -2 -8 -2.5t-6 -0.5q-75 -26 -150 -26q-54 0 -100 17q-42 13 -80 42q-33 25 -39 42q-9 18 -21 18q-57 -57 -151 -138q-90 -81 -147 -122q-62 -46 -119 -79q-108 -72 -223 -129 q-179 -90 -329 -149q-246 -96 -448 -141q-228 -51 -456 -78q-237 -28 -437 -28q-171 0 -380 36t-332 175q-107 119 -107 338zM3509 2249q0 20 61 132t76 119q25 10 74 -37t74 -83q30 49 66.5 110t49.5 62q37 0 89 -54.5t55 -102.5q0 -57 -56 -135q-54 -77 -79 -77 q-17 0 -60.5 43.5t-76.5 67.5q-81 -163 -129 -163q-12 0 -34 19q-21 18 -65.5 54t-44.5 45zM3537 975q33 -3 39 -3q30 0 75 7q48 9 94 30q51 20 107 62q55 37 55 69q0 15 -39 39q-40 22 -84 22q-33 0 -70 -27q-17 -13 -65 -58q-30 -36 -54 -68l-35 -45t-23 -28z" />
<glyph unicode="&#xfed7;&#xfebc;&#x640;&#xfeea;" horiz-adv-x="4236" d="M1 -284q0 12 15 45l135 326q45 99 59 129q36 72 67 129q57 97 108 82q180 -48 348 -78q165 -30 296 -30l94 -6q317 0 669 89q291 73 534 193q215 108 380 231q139 105 288 255q19 18 55 57q27 26 50 26q12 0 57 -42q42 -41 105 -41q18 14 55 63q110 144 150 185 q56 61 108 105q80 64 144 64q71 0 102 -37q30 -38 30 -101q0 -52 -49 -160q-32 -72 -75 -134q30 15 69 39q22 15 44 28.5t40 27.5q37 27 54 42q109 114 109 181q0 44 -16 80q-20 34 -42 34l-71 -9q-64 0 -88 45q-9 15 -9 41q0 16 24 78q22 58 54 118q21 41 43 77 q32 40 72 40q71 0 134 -91q60 -93 60 -185q0 -45 -12 -111q-12 -70 -39 -127q-27 -59 -57 -108q-27 -44 -68 -87q-63 -69 -111 -110q-40 -33 -106 -72q-68 -37 -87 -45q-51 -25 -120 -51q-51 -19 -102 -33q-8 -4 -14.5 -6.5t-12.5 -5.5q-93 -36 -164 -36q-84 0 -135 18 q-51 17 -94 71q-9 7 -17 28q-9 24 -27 24l-43 -46q-104 -120 -135 -153q-84 -87 -209 -189q-117 -96 -250 -180q-173 -110 -434 -209q-234 -90 -432 -129q-168 -31 -295 -43q-137 -14 -210 -14q-216 0 -458 36q-234 35 -324 83q-25 -32 -73 -131q-14 -28 -30.5 -60.5 t-34.5 -68.5l-58 -117q-24 -43 -41 -40q-9 1 -9 16zM3348 1081q0 -10 33 -10q27 0 79 10q53 9 83 21q85 35 145 86q59 49 59 82q0 12 -45 26q-48 12 -90 12q-80 0 -164 -92q-25 -28 -100 -135zM3448 2357q0 20 61 132t76 119q25 10 74 -37t74 -83q30 49 66.5 110t49.5 62 q37 0 89 -54.5t55 -102.5q0 -57 -56 -135q-54 -77 -79 -77q-17 0 -60.5 43.5t-76.5 67.5q-81 -163 -129 -163q-12 0 -34 19q-21 18 -65.5 54t-44.5 45z" />
<glyph unicode="&#xfed7;&#xfee0;&#x640;&#xfe90;" horiz-adv-x="5041" d="M69 369v45q0 19 0.5 37t0.5 36q3 32 18 26q204 -125 708 -167q272 -21 723 -21q531 0 1017 59q617 73 1022 228q147 52 270 124q72 41 205 150q24 23 56 23q7 0 73 -12q0 -2 1 -3h1v3q24 0 45 -8q24 -7 31 -7q30 0 47 24q15 22 27 87q3 15 6 61q3 39 3 53v6.5v8.5v1 q0 26 1.5 61t4.5 80q7 102 15 150q4 41 16 122q9 63 18 82q59 147 62 152q60 133 88 174q9 3 15 -6q3 -8 -1 -33l-56 -293q-9 -54 -15.5 -94.5t-11.5 -67.5q-7 -63 -7 -90q0 -22 0.5 -45.5t0.5 -45.5q9 -47 32 -75q25 -41 73 -62q47 -22 90 -22q186 0 252 135q-18 28 -25 36 q-18 18 -42 18q-3 0 -35 -14q-30 -13 -48 -13q-69 0 -93 52q-13 21 -3 56q9 33 18 58q41 102 74 150q49 71 96 71q57 0 118 -69q60 -72 60 -171q0 -98 -57 -236q-61 -144 -130 -231q-45 -57 -83 -88q-81 -68 -187 -68q-126 0 -179 80q-13 -9 -27 -27l-55 -71 q-24 -30 -47 -49q-18 -15 -39 -15l-52 6v1q0 -1 -1 -2l-1 -1l-45 18q-22 9 -48 9q-16 0 -25 -3q-14 -3 -183 -156q-98 -88 -242 -165q-183 -103 -486 -181q-228 -62 -589 -120q-372 -62 -749 -90q-385 -30 -682 -30q-416 0 -620 21q-195 21 -279 72q-78 45 -112 112 q-33 68 -33 164zM1531 -916q0 33 53 138t69 113q32 14 91.5 -49.5t63.5 -99.5q0 -47 -50 -136.5t-72 -89.5q-9 0 -59 34.5t-75 54.5q-21 18 -21 35zM4607 2278q0 20 61 132t76 119q25 10 74 -37t74 -83q30 49 66.5 110t49.5 62q37 0 89 -54.5t55 -102.5q0 -57 -56 -135 q-54 -77 -79 -77q-17 0 -60.5 43.5t-76.5 67.5q-81 -163 -129 -163q-12 0 -34 19q-21 18 -65.5 54t-44.5 45z" />
<glyph unicode="&#xfed3;&#xfee0;&#x640;&#xfed6;" horiz-adv-x="4600" d="M87 -111q0 87 21 202q18 104 66 213q34 87 100 200q23 36 86 144q10 21 25 42q15 19 24 10q23 -22 -33 -129q-25 -43 -58 -105q-41 -91 -78 -201q-33 -114 -33 -163q0 -180 114 -255q94 -62 258 -62q147 0 256 47q177 69 305 241q61 83 103 189q41 105 41 204 q0 108 -62 108q-36 -9 -61 -9q-53 0 -93 27q-41 27 -33 71q15 43 37 91q9 14 20.5 36.5t26.5 53.5q21 42 63 86q42 43 78 43q67 0 108 -84q24 -46 31 -97q11 6 29 24q60 55 99 145q15 39 21 131q4 43 7 85t5 84q13 92 22 180q11 89 18 117l53 123l51 114l22 44q9 3 15 0 q6 -6 6 -26q0 -18 -4 -49q-2 -15 -4 -27t-4 -18l-37 -252q-3 -60 -12 -165q0 -62 13 -116q14 -52 48 -100q69 -87 203 -125v-1q112 -32 253 -48q156 -17 294 -17q137 0 317 30q177 29 370 86q179 51 399 145q216 96 305 147q190 108 328 221q113 90 173 175q0 24 -24 56 q-24 30 -44 30q-9 -6 -25 -14q-15 -7 -42 -7q-48 0 -72 31q-27 33 -27 63q0 29 25 78q11 24 23 46t21 41q27 51 42 75q40 59 88 59q68 0 129 -77q62 -78 62 -184q0 -59 -18 -119q-18 -55 -65 -138q-45 -73 -135 -183q-109 -126 -196 -193q-170 -129 -290 -206 q-144 -93 -295 -171q-293 -150 -596 -231q-307 -85 -595 -85q-240 0 -405 31v2v-2q-101 23 -162 56q-66 34 -117 82q-24 24 -57 65q-29 37 -35 37l-10 -6q-9 -16 -27 -46q-23 -39 -56 -80l-79 -102q-6 -93 -26 -174q-27 -126 -66 -231q-46 -123 -123 -255q-52 -88 -117 -165 q-126 -163 -268 -246q-144 -87 -327 -87q-195 0 -300 134q-93 120 -93 306zM625 1487q0 20 61 132t76 119q25 10 74 -37t74 -83q30 49 66.5 110t49.5 62q37 0 89 -54.5t55 -102.5q0 -57 -56 -135q-54 -77 -79 -77q-17 0 -60.5 43.5t-76.5 67.5q-81 -163 -129 -163 q-12 0 -34 19q-21 18 -65.5 54t-44.5 45zM2881 2015q0 33 53 138t69 113q32 14 91.5 -49.5t63.5 -99.5q0 -47 -50 -136.5t-72 -89.5q-9 0 -59 34.5t-75 54.5q-21 18 -21 35z" />
<glyph unicode="&#xfed3;&#xfee0;&#x640;&#xfb8f;" horiz-adv-x="4816" d="M97 352q0 45 3 87q2 33 12 33l63 -21q57 -22 125 -37q343 -86 807 -86q376 0 795 41q409 37 757 127q186 48 350 108q247 92 439 218q99 66 159 148q42 56 80 150l52 183q11 23 23.5 51.5t29.5 64.5q34 76 64 130q18 29 29 24q10 -3 10 -15q-19 -93 -39.5 -183.5 t-39.5 -180.5q-68 -336 -68 -513q0 -102 6 -156q17 -123 123 -123q87 0 114 76q9 20 17 72q3 27 6 47.5t4 33.5l3 96l23 338q0 78 12 186q10 121 18 135l91 196q24 54 41 68q3 -6 9 -15l-21 -188q-8 -55 -14.5 -117.5t-14.5 -131.5q-15 -156 -15 -231v-40.5v-38.5 q6 -51 33 -87q26 -39 74 -62q45 -24 91 -24q188 0 251 135q-17 29 -24 38q-18 18 -44 18q-4 0 -33 -14q-31 -13 -49 -13q-69 0 -93 52q-12 18 -2 54q3 20 18 59q36 99 74 150q48 70 94 70q60 0 119 -69q60 -67 60 -169q0 -98 -57 -236t-131 -231q-45 -58 -82 -88 q-81 -68 -188 -68q-132 0 -184 87q-41 -124 -74 -198q-39 -84 -85 -139q-74 -83 -149 -83q-105 0 -133 141q-17 71 -17 230q0 34 11 142q4 45 12.5 100.5t17.5 120.5q1 19 7 52q3 24 -7 24q-32 -55 -62 -94q-81 -110 -202 -197q-144 -108 -344 -199q-102 -50 -237 -99 q-310 -119 -690 -186q-319 -59 -675 -87q-243 -18 -525 -18q-321 0 -514 24q-77 7 -170 39q-90 28 -123 124q-21 60 -21 165zM3900 1579q19 54 55 123q33 57 71 95q69 75 289 252q201 159 393 316q123 101 270 236q45 42 105 100.5t137 131.5q231 224 231 228q0 -13 -8 -28 q-9 -41 -57 -128q-45 -79 -84 -129q-39 -52 -105 -127q-64 -72 -91 -98q-39 -39 -156 -144q-63 -55 -249 -214q-59 -50 -111.5 -92l-97.5 -78q-100 -79 -244 -187l-213 -165q-60 -48 -87 -69q-42 -33 -48 -23zM4185 2433q0 -17 21 -35q25 -20 75 -54.5t59 -34.5 q22 0 72 89.5t50 136.5q-4 36 -63.5 99.5t-91.5 49.5q-16 -8 -69 -113t-53 -138z" />
<glyph unicode="&#xfed7;&#xfee0;&#x640;&#xfee2;" horiz-adv-x="3865" d="M-194 -2066q0 72 1.5 137.5t1.5 125.5q0 265 38 525q36 258 97 448q20 66 50 129q61 128 138 225q34 42 91 98q53 46 99 82l129 86l186 289q11 17 81 129q62 102 74 128q12 27 36 129q18 99 25 166q5 36 9.5 80.5t10.5 98.5q13 103 22 135q9 72 68 196q7 30 36 93l34 72 q8 12 17 12q7 0 7 -24q-3 -36 -3 -34q-16 -87 -40 -282q-27 -194 -27 -236q0 -88 21 -145q21 -53 61 -104q63 -81 179 -105q93 -30 253 -48q155 -16 293 -16q148 0 318 30q175 27 369 85q199 57 399 146q198 84 307 147q189 108 329 220q115 95 172 176q0 21 -24 55 q-22 32 -45 32q-7 -6 -24 -15q-18 -8 -43 -8q-47 0 -72 33q-26 32 -26 63q0 32 24 78q24 47 45 86q27 51 42 75q38 58 89 58q67 0 129 -76q61 -78 61 -185q0 -60 -19 -118q-20 -62 -63 -138q-45 -74 -135 -183q-108 -125 -198 -192q-152 -122 -290 -209q-139 -88 -295 -169 q-279 -146 -596 -233q-313 -84 -595 -84q-243 0 -405 32q-54 7 -134 36q-81 28 -118 55q-68 47 -110 105q-10 14 -28 45l-147 -217q45 -17 58 -23q6 -4 80 -43q64 -36 64 -90q0 -15 -9 -35q-75 -171 -175 -229q-39 -24 -210 -65q-80 -19 -161 -55q-78 -39 -138 -80 q-126 -94 -162 -177q-45 -114 -73 -243q-8 -28 -26 -141q-1 -24 -11 -114t-25 -246q-31 -313 -31 -373l-21 -432q0 -98 -14 -245q-13 -145 -30 -145q-1 33 -4 59t-5 46q-12 154 -12 202v160.5v148.5zM1945 1507q0 20 61 132t76 119q25 10 74 -37t74 -83q30 49 66.5 110 t49.5 62q37 0 89 -54.5t55 -102.5q0 -57 -56 -135q-54 -77 -79 -77q-17 0 -60.5 43.5t-76.5 67.5q-81 -163 -129 -163q-12 0 -34 19q-21 18 -65.5 54t-44.5 45z" />
<glyph unicode="&#xfed7;&#xfee4;&#x640;&#xfeae;" horiz-adv-x="4470" d="M-435 -645q-14 19 48 64l49 33q108 68 158 105q196 144 438 525q57 86 154 213q95 114 159 173q36 34 105 81q51 31 99 55l89 27q6 6 49 77q18 34 27 34q33 -15 105 -36q69 -21 165 -42q32 -4 69.5 -9.5t77.5 -9.5q77 -11 182 -11l1 -1l119 -3q346 0 678 55 q318 56 601 152q285 99 552 235q255 129 464 273q129 87 223 171q96 87 96 105q0 27 -22 57q-23 29 -45 29q-5 -3 -11 -7t-13 -7q-18 -7 -44 -7q-46 0 -72 33q-25 31 -25 61q0 33 24 80q24 46 45 85q7 18 40 75q41 59 90 59q66 0 129 -77q60 -76 60 -184q0 -39 -9 -80 q-19 -87 -72 -174q-54 -88 -99 -148q-75 -95 -163 -173q-129 -112 -291 -226q-221 -153 -411 -251q-375 -193 -771 -304q-308 -90 -635 -126q-205 -24 -438 -24v1l-1 -1q-368 28 -411 28q-39 -15 -75 -60q-39 -48 -54 -48q-56 38 -117 62q-66 27 -128 27q-171 0 -349 -230 q-113 -163 -206 -285q-99 -144 -241 -249q-54 -40 -225 -138q-32 -18 -60.5 -31.5t-52.5 -23.5q-48 -23 -55 -9zM2227 2030q0 20 61 132t76 119q25 10 74 -37t74 -83q30 49 66.5 110t49.5 62q37 0 89 -54.5t55 -102.5q0 -57 -56 -135q-54 -77 -79 -77q-17 0 -60.5 43.5 t-76.5 67.5q-81 -163 -129 -163q-12 0 -34 19q-21 18 -65.5 54t-44.5 45z" />
<glyph unicode="&#xfed3;&#xfbab;&#x640;&#xfeaa;" horiz-adv-x="3907" d="M42 33q-15 12 21 43q124 99 189 155q76 66 127 130q72 90 129 188q42 75 81 196q18 59 34 106t26 82q51 159 83 159q12 0 10 -23q-3 -12 -11 -51t-23 -105q-30 -124 -30 -220q0 -147 130 -246q36 -24 48 -29q9 -4 31 -12.5t58 -20.5q78 -25 189 -40q109 -18 214 -18h71 q184 0 351 31q244 42 649 191q161 58 273 112q107 45 207 114q18 14 21 20q17 28 21 39q36 63 72 128l72 130q117 178 222 178q72 0 117 -67v-2q23 38 68 87q46 50 117 101q12 10 58 39q23 13 41.5 25t32.5 23q6 3 30 24q19 19 19 27q-12 19 -30 48.5t-40 29.5 q-3 -3 -6 -5.5t-8 -6.5q-13 -8 -45 -8q-39 0 -64 29q-27 27 -27 67q0 18 19 65q27 60 47 96q27 48 49 78q32 43 62 43q64 0 117 -79q52 -83 52 -179q0 -88 -30 -157q-30 -71 -90 -131q-21 -21 -66 -48q-37 -22 -85 -46q-117 -72 -128 -102q5 -3 14 0q37 12 55 12 q59 0 90 -18q33 -18 33 -74q0 -63 -79 -178q-59 -84 -123 -126l-83 -21q-49 -9 -129 -29q-57 -12 -132 -42q-84 -54 -165 -106.5t-157 -101.5q-192 -125 -332 -194q-409 -199 -762 -280q-262 -60 -543 -60q-84 0 -135 4q-58 5 -126 20l-48 12q-199 57 -289 187 q-42 59 -74 185q-22 -45 -44.5 -89.5t-43.5 -89.5q-35 -58 -74 -82q-93 -68 -220 -99q-41 -9 -108 -18zM2988 816q52 21 108 48q27 10 94 49q56 32 102 68q42 39 42 90t-88 51q-41 0 -78 -32q-42 -34 -74 -85q-39 -59 -66 -113q-31 -58 -40 -76zM3261 837q33 9 100 42 q77 36 99 51q66 34 111 70q42 33 42 62q0 19 -25 31q-26 11 -51 11q-77 0 -147 -80q-44 -51 -92 -126q-24 -36 -37 -61zM3315 2417q0 33 53 138t69 113q32 14 91.5 -49.5t63.5 -99.5q0 -47 -50 -136.5t-72 -89.5q-9 0 -59 34.5t-75 54.5q-21 18 -21 35z" />
<glyph unicode="&#xfed7;&#xfbab;&#x640;&#xfeae;" horiz-adv-x="4503" d="M82 -345q0 49 96 144q47 42 89 93q49 55 82 108q20 30 37 60t35 61q51 93 98 194q28 49 61 79q45 41 98 41q19 0 31 -3q194 -56 324 -78q143 -27 293 -27l1 -2v2l227 -9q406 0 736 58q236 41 516 132q153 47 311 111q181 72 340 168q29 50 56 105q21 35 47 80t59 99 q161 247 246 247q51 0 86 -33q16 -16 40 -52l1 -1l1 -1q24 38 67 87q41 42 117 101q14 9 57 39q27 15 74 46q18 14 30 26q19 16 19 27q-7 16 -18 37q-27 39 -52 39q-6 -6 -14 -10q-12 -8 -45 -8q-34 0 -64 27q-27 29 -27 68q0 21 19 64q14 30 48 98q30 52 50 78q34 43 60 43 q66 0 117 -81q52 -81 52 -177q0 -91 -28 -159q-27 -66 -92 -130q-22 -24 -66 -47q-28 -18 -85 -46q-45 -23 -87 -54l-38 -47q41 18 104 18q33 0 75 -24q42 -22 42 -63q0 -54 -47 -126q-36 -58 -82 -106q-33 -27 -47 -38q-34 -28 -51 -36q-13 -9 -70 -27q-65 -19 -78 -22 q-90 -26 -137 -44q-55 -21 -90 -46q-252 -159 -387 -233q-94 -52 -312 -151q-195 -93 -406 -162q-258 -84 -576 -137q-320 -51 -698 -51v3l-1 -3q-203 0 -423 33q-204 30 -299 66l-48 18q-13 3 -27 -10q-7 -11 -25 -42q-111 -222 -176 -318q-33 -50 -72 -86t-93 -46 q-9 -3 -31 -3q-50 0 -50 39zM3531 822q43 18 76 30q62 39 83 49q84 35 147 89t63 108q0 12 -30 36q-29 25 -63 19q-42 -9 -72 -39q-32 -33 -75 -93q-3 -4 -18 -28t-44 -65q-22 -34 -67 -106zM3721 2495q0 20 61 132t76 119q25 10 74 -37t74 -83q30 49 66.5 110t49.5 62 q37 0 89 -54.5t55 -102.5q0 -57 -56 -135q-54 -77 -79 -77q-17 0 -60.5 43.5t-76.5 67.5q-81 -163 -129 -163q-12 0 -34 19q-21 18 -65.5 54t-44.5 45zM3813 846l213 99q46 27 96 63q46 33 69 66q13 12 -8 39q-21 28 -60 28h-34q-30 0 -75 -33q-42 -33 -81 -82 q-41 -54 -74 -102q-27 -42 -46 -78z" />
<glyph unicode="&#xfed7;&#xfbab;&#x640;&#xfe8e;" horiz-adv-x="3501" d="M109 532q0 75 6 194q6 108 18 217l59 522l120 309q4 12 9 3q-5 -40 -9 -130q-15 -134 -28 -257.5t-25 -240.5q-21 -219 -21 -350q0 -121 21 -181q12 -36 47 -83q70 -102 222 -151q81 -26 189 -41q100 -16 286 -16q191 0 350 30q261 48 649 190q158 59 275 113 q120 55 205 114q18 13 21 19q17 29 21 39q78 141 146 258q114 179 220 179q74 0 117 -68v-1v1q24 38 68 86q46 49 117 100q6 5 58 39q60 39 74 48q9 5 28 24q21 18 21 29q-46 76 -70 76q-5 -4 -15 -10q-9 -9 -44 -9q-36 0 -64 28q-27 27 -27 68q0 18 19 64q27 62 48 96 q24 45 48 78q33 44 62 44q64 0 117 -80q52 -82 52 -178q0 -87 -30 -158q-30 -70 -90 -130q-21 -21 -66 -48q-22 -14 -44 -26t-41 -21q-38 -16 -89 -52l-39 -50q5 -3 14 0q45 12 55 12q59 0 90 -18q33 -18 33 -73q0 -63 -79 -179q-59 -84 -123 -126l-83 -21q-87 -18 -129 -27 q-60 -15 -132 -43q-84 -54 -165 -106.5t-157 -102.5q-192 -124 -332 -193q-408 -197 -762 -278q-259 -61 -543 -61q-84 0 -138.5 5t-122.5 19q-202 48 -310 168q-107 118 -107 337zM2571 814q31 14 58 26t50 22q48 23 94 51q63 36 102 66q42 39 42 90q0 53 -88 53 q-39 0 -78 -33q-42 -35 -74 -86q-39 -58 -66 -112q-31 -59 -40 -77zM2822 2443q0 20 61 132t76 119q25 10 74 -37t74 -83q30 49 66.5 110t49.5 62q37 0 89 -54.5t55 -102.5q0 -57 -56 -135q-54 -77 -79 -77q-17 0 -60.5 43.5t-76.5 67.5q-81 -163 -129 -163q-12 0 -34 19 q-21 18 -65.5 54t-44.5 45zM2844 835q19 5 100 42q53 24 99 51q66 35 111 71q42 33 42 61q0 20 -25 32q-24 10 -51 10q-78 0 -147 -79q-44 -51 -92 -126q-16 -23 -37 -62z" />
<glyph unicode="&#xfe91;&#xfb91;&#xfefc;" horiz-adv-x="1492" d="M51 -239q0 15 13 36q14 20 32 45q9 11 22 36q14 18 26 65q10 36 15 105q4 63 4 109v47v48q0 64 -3 99q0 139 41 301q24 93 91 297q6 12 8 14q3 1 5 3.5t2 3.5q11 0 11 -54q0 -7 -3 -88q-5 -63 -5 -78l-21 -390q0 -63 -12 -159q-13 -95 -37 -173q-36 -121 -95 -211 q3 -6 24 -6h21h17q84 0 160 72q78 70 110 174q9 24 15 93q6 55 6 109v11.5v12.5q0 9 -1 20.5t-1 23.5q0 6 2 9q0 12 -1 23l-2 22q0 22 -2.5 44.5t-3.5 45.5q0 45 0.5 92t0.5 95q3 101 35 221q31 121 114 273q15 15 19 12q6 -3 0 -48q-6 -57 -9 -84q-16 -138 -16 -186l-2 -69 q6 9 8 10q16 12 145 147q110 117 248 270q76 84 154 169.5t156 171.5q191 211 329 414q18 40 28 40q6 -9 6 -21q-13 -52 -31 -102q-35 -87 -111 -205q-53 -84 -138 -191q-108 -136 -245 -288l-369 -408l3 -1q29 4 102 -5q69 -7 242 -49q63 -17 85 -17q32 0 65 39 q33 44 45 78q6 20 28 54q20 30 30 29q17 -3 17 -27q0 -17 -8 -44q-13 -73 -64 -171q-57 -108 -116 -135q-18 -10 -61 2q-41 10 -62 10l-3 2l2 -2q-14 0 -29 -61q-16 -62 -27 -95q-73 -187 -111 -246q-94 -144 -243 -144q-73 0 -130 62q-2 -14 -6 -21q-12 -45 -32 -96 q-24 -69 -58 -126q-51 -87 -98 -129q-70 -62 -145 -62q-41 0 -75 20q-33 18 -60 48q-24 19 -30 25q-21 17 -21 39zM642 511q0 -67 27 -114q37 -67 121 -67q98 0 161 69t63 130q0 66 -107 95q-61 16 -132 16q-54 0 -75 -10q-58 -27 -58 -119zM1098 -594q0 -17 21 -35 q25 -20 75 -54.5t59 -34.5q22 0 72 89.5t50 136.5q-4 36 -63.5 99.5t-91.5 49.5q-16 -8 -69 -113t-53 -138z" />
<glyph unicode="&#xfe91;&#xfbff;&#xfee6;" horiz-adv-x="2020" d="M114 -107q0 93 31 228q18 87 84 242.5t110 233.5q33 60 55 60q15 -9 9 -36q-7 -27 -31 -84q-20 -45 -34 -75t-22 -47q-40 -93 -60 -160q-28 -93 -28 -177q0 -132 93 -213q96 -83 256 -83q185 0 327 81q140 77 242 233q76 118 108 235q33 111 33 255l3 185q0 57 39 96 q47 41 142 33q66 0 101 18q31 15 63 55q31 39 55 87l54 108t48 60q27 0 23 -31q-7 -96 21 -129q25 -33 61 -33q33 0 47.5 26t21 40.5t14.5 12.5q14 -4 15 -28q0 -87 -59 -209q-70 -141 -150 -141q-34 0 -61 15q-23 14 -38 38q-18 30 -22 39q-8 16 -14 16q-14 1 -33.5 -26.5 t-47.5 -58t-52 -44.5q-24 -15 -66 -19q-39 -5 -50 -23q-10 -21 -18 -87q-10 -72 -18 -120q-9 -52 -18 -91q-9 -36 -22 -86q-24 -81 -86 -226q-112 -257 -285 -411q-204 -188 -451 -188q-212 0 -306 129q-84 107 -84 300zM655 384q0 -17 21 -35q25 -20 75 -54.5t59 -34.5 q22 0 72 89.5t50 136.5q-4 36 -63.5 99.5t-91.5 49.5q-16 -8 -69 -113t-53 -138zM863 -1000q0 -9 44.5 -45t65.5 -54q22 -19 34 -19q48 0 129 163q33 -24 76.5 -67.5t60.5 -43.5q25 0 79 77q56 78 56 135q-3 48 -55 102.5t-89 54.5q-13 -1 -49.5 -62t-66.5 -110 q-25 36 -74 83t-74 37q-15 -7 -76 -119t-61 -132zM1660 -897q0 -17 21 -35q25 -20 75 -54.5t59 -34.5q22 0 72 89.5t50 136.5q-4 36 -63.5 99.5t-91.5 49.5q-16 -8 -69 -113t-53 -138z" />
<glyph unicode="&#xfb58;&#xfbff;&#xfeb6;" horiz-adv-x="2338" d="M153 -99q0 106 25 241q27 128 54 207q51 147 98 227q31 52 46 52q23 -3 -9 -81q-16 -45 -31 -88.5t-30 -85.5q-17 -60 -36 -142q-17 -81 -17 -140q0 -186 114 -261q86 -58 236 -58q114 0 199 24q143 40 246 144q54 55 116 172q60 114 79 212q17 87 20 144q3 36 3 123v123 q0 48 13 79q11 30 51 30q32 -18 77 -18q55 0 96 35l18 18l18 18q7 0 22 -12q14 -12 36 -12q24 0 53 39q4 7 8.5 14.5t9.5 16.5q18 -9 43 -9q26 3 39 12q26 15 26 33q0 5 -8 23q-15 42 -15 73q0 111 68 255q22 47 49 80q27 34 38 30q10 -3 4 -35q-21 -70 3 -130t105 -62 q27 2 47 33q18 35 21 35q16 0 16 -38q0 -52 -25 -129q-14 -42 -27 -69q-60 -130 -144 -136q-36 -3 -62 13l-61 -67l-33 -33l-2 -2q-42 -42 -94 -55q-12 0 -24 -6l-59 -27q-15 -6 -30 -6h-12.5h-9.5q-47 -39 -150 -65l-12 -108q-30 -183 -44 -244q-49 -210 -135 -369 q-121 -230 -276 -350q-168 -132 -381 -132q-181 0 -282 141q-88 123 -88 323zM821 1550q0 18 64 135.5t79 119.5q24 0 75.5 -43.5t69.5 -82.5q33 54 63 105q44 72 54 72q36 0 92 -51q54 -57 54 -105q0 -55 -54 -138q-56 -79 -80 -79q-19 0 -55 37q-50 53 -83 77 q-82 -168 -129 -168q-10 0 -80 55.5t-70 65.5zM958 -965q0 20 61 132t76 119q25 10 74 -37t74 -83q30 49 66.5 110t49.5 62q37 0 89 -54.5t55 -102.5q0 -57 -56 -135q-54 -77 -79 -77q-17 0 -60.5 43.5t-76.5 67.5q-81 -163 -129 -163q-12 0 -34 19q-21 18 -65.5 54 t-44.5 45zM958 1922q0 15 55.5 132t73.5 119q42 0 93 -51q51 -57 51 -110q0 -49 -47.5 -136t-69.5 -87q-14 0 -60.5 41t-71 59t-24.5 33zM1672 -371q0 18 60.5 137t74.5 119q24 0 73.5 -44t65.5 -82q32 53 60 104q42 73 53 73q34 0 85 -51q53 -58 53 -106q0 -56 -53 -138 q-51 -80 -75 -80q-18 0 -52 38q-48 52 -80 76q-78 -168 -123 -168q-10 0 -76 55.5t-66 66.5zM1813 -652q1 15 59.5 119.5t72.5 102.5q36 -3 78.5 -55.5t39.5 -100.5q-3 -52 -49 -129q-48 -73 -66 -73q-12 1 -29 22q-22 23 -44 44t-42 39t-20 31z" />
<glyph unicode="&#xfb58;&#xfbff;&#xfeb2;" horiz-adv-x="2119" d="M102 -108q0 106 25 241q27 128 54 207q51 147 98 227q31 52 46 52q23 -3 -9 -81q-16 -45 -31 -88.5t-30 -85.5q-17 -60 -36 -142q-17 -81 -17 -140q0 -186 114 -261q86 -58 236 -58q114 0 199 24q143 40 246 144q54 55 116 172q60 114 79 212q17 87 20 144q3 36 3 123 v123q0 48 13 79q11 30 51 30q32 -18 77 -18q55 0 96 35l18 18l18 18q7 0 22 -12q14 -12 36 -12q24 0 53 39q4 7 8.5 14.5t9.5 16.5q18 -9 43 -9q26 3 39 12q26 15 26 33q0 5 -8 23q-15 42 -15 73q0 111 68 255q22 47 49 80q27 34 38 30q10 -3 4 -35q-21 -70 3 -130t105 -62 q27 2 47 33q18 35 21 35q16 0 16 -38q0 -52 -25 -129q-14 -42 -27 -69q-60 -130 -144 -136q-36 -3 -62 13l-61 -67l-33 -33l-2 -2q-42 -42 -94 -55q-12 0 -24 -6l-59 -27q-15 -6 -30 -6h-12.5h-9.5q-47 -39 -150 -65l-12 -108q-30 -183 -44 -244q-49 -210 -135 -369 q-121 -230 -276 -350q-168 -132 -381 -132q-181 0 -282 141q-88 123 -88 323zM781 -880q0 -9 44.5 -45t65.5 -54q22 -19 34 -19q48 0 129 163q33 -24 76.5 -67.5t60.5 -43.5q25 0 79 77q56 78 56 135q-3 48 -55 102.5t-89 54.5q-13 -1 -49.5 -62t-66.5 -110q-25 36 -74 83 t-74 37q-15 -7 -76 -119t-61 -132zM1579 -486q0 -11 66 -66.5t76 -55.5q45 0 123 168q32 -24 80 -76q34 -38 52 -38q24 0 75 80q53 82 53 138q0 48 -53 106q-51 51 -85 51q-11 0 -53 -73q-28 -51 -60 -104q-16 38 -65.5 82t-73.5 44q-14 0 -74.5 -119t-60.5 -137zM1720 -767 q0 -13 20 -31t42 -39t44 -44q17 -21 29 -22q18 0 66 73q46 77 49 129q3 48 -39.5 100.5t-78.5 55.5q-14 2 -72.5 -102.5t-59.5 -119.5z" />
<glyph unicode="&#xfb58;&#xfbff;&#xfb7b;" horiz-adv-x="1657" d="M111 -171q7 195 61 342q68 190 173 340q58 86 144 179q13 16 84 79q76 66 100 84q53 41 69 54q32 24 32 30q-9 36 -185 32q-31 0 -88 -2.5t-56 5.5q62 186 236.5 307.5t336.5 121.5q29 0 61.5 -19t58 -23.5t38.5 15.5q18 22 49 78q18 31 38 31q15 0 9 -30 q-8 -30 -38.5 -93t-72.5 -112q-47 -57 -89 -57q-28 0 -69.5 22.5t-83.5 22.5q-205 0 -345 -158l185 9q118 0 156 -13q42 -14 42 -53q0 -61 -74 -114q-60 -39 -136 -91q-137 -99 -243 -213q-47 -45 -108 -132q-59 -86 -86 -153q-39 -98 -48 -158q-7 -60 -7 -75 q0 -231 154 -331q122 -80 327 -80q156 0 285 50q62 22 156 82q99 63 188 156q60 66 114 144q67 104 85 102q9 -6 -1 -34q-20 -48 -48 -104q-51 -100 -116 -196q-103 -147 -231 -257q-133 -115 -253 -172q-171 -80 -365 -80q-219 0 -334 138q-105 120 -105 326zM535 168 q0 -11 66 -66.5t76 -55.5q45 0 123 168q32 -24 80 -76q34 -38 52 -38q24 0 75 80q53 82 53 138q0 48 -53 106q-51 51 -85 51q-11 0 -53 -73q-28 -51 -60 -104q-16 38 -65.5 82t-73.5 44q-14 0 -74.5 -119t-60.5 -137zM676 -113q0 -13 20 -31t42 -39t44 -44q17 -21 29 -22 q18 0 66 73q46 77 49 129q3 48 -39.5 100.5t-78.5 55.5q-14 2 -72.5 -102.5t-59.5 -119.5zM961 -884q0 -11 66 -66.5t76 -55.5q45 0 123 168q32 -24 80 -76q34 -38 52 -38q24 0 75 80q53 82 53 138q0 48 -53 106q-51 51 -85 51q-11 0 -53 -73q-28 -51 -60 -104 q-16 38 -65.5 82t-73.5 44q-14 0 -74.5 -119t-60.5 -137zM997 626q0 -9 45 -46.5t66 -56.5q22 -19 34 -19q49 0 131 169q33 -25 77 -70t61 -45q25 0 80 80q57 81 57 140q-3 50 -56 106.5t-90 56.5q-13 -1 -50 -64.5t-67 -114.5q-26 38 -75.5 87t-74.5 38 q-15 -7 -76.5 -123.5t-61.5 -137.5zM1102 -1165q0 -13 20 -31t42 -39t44 -44q17 -21 29 -22q18 0 66 73q46 77 49 129q3 48 -39.5 100.5t-78.5 55.5q-14 2 -72.5 -102.5t-59.5 -119.5z" />
<glyph unicode="&#xfb58;&#xfee8;&#xfe9e;" horiz-adv-x="1439" d="M111 -171q7 195 61 342q68 190 173 340q58 86 144 179q13 16 84 79q76 66 100 84q53 41 69 54q32 24 32 30q-9 36 -185 32q-31 0 -88 -2.5t-56 5.5q62 186 236.5 307.5t336.5 121.5q29 0 61.5 -19t58 -23.5t38.5 15.5q18 22 49 78q18 31 38 31q15 0 9 -30 q-8 -30 -38.5 -93t-72.5 -112q-47 -57 -89 -57q-28 0 -69.5 22.5t-83.5 22.5q-205 0 -345 -158l185 9q118 0 156 -13q42 -14 42 -53q0 -61 -74 -114q-60 -39 -136 -91q-137 -99 -243 -213q-47 -45 -108 -132q-59 -86 -86 -153q-39 -98 -48 -158q-7 -60 -7 -75 q0 -231 154 -331q122 -80 327 -80q156 0 285 50q62 22 156 82q99 63 188 156q60 66 114 144q67 104 85 102q9 -6 -1 -34q-20 -48 -48 -104q-51 -100 -116 -196q-103 -147 -231 -257q-133 -115 -253 -172q-171 -80 -365 -80q-219 0 -334 138q-105 120 -105 326zM634 124 q0 33 53 138t69 113q32 14 91.5 -49.5t63.5 -99.5q0 -47 -50 -136.5t-72 -89.5q-9 0 -59 34.5t-75 54.5q-21 18 -21 35zM697 2106q0 33 53 138t69 113q32 14 91.5 -49.5t63.5 -99.5q0 -47 -50 -136.5t-72 -89.5q-9 0 -59 34.5t-75 54.5q-21 18 -21 35zM834 -1005 q0 18 60.5 137t74.5 119q24 0 73.5 -44t65.5 -82q32 53 60 104q42 73 53 73q34 0 85 -51q53 -58 53 -106q0 -56 -53 -138q-51 -80 -75 -80q-18 0 -52 38q-48 52 -80 76q-78 -168 -123 -168q-10 0 -76 55.5t-66 66.5zM975 -1286q1 15 59.5 119.5t72.5 102.5q36 -3 78.5 -55.5 t39.5 -100.5q-3 -52 -49 -129q-48 -73 -66 -73q-12 1 -29 22q-22 23 -44 44t-42 39t-20 31z" />
<glyph unicode="&#xfb58;&#xfbff;&#xfe8e;" horiz-adv-x="1065" d="M20 -989q0 -8 40 -40t59 -49q20 -17 31 -17q43 0 116 147q30 -22 69 -61t54 -39q23 0 71 69q51 71 51 122q-3 43 -49.5 92t-80.5 49q-11 -1 -44 -56t-60 -99q-23 33 -67 75t-66 33q-14 -6 -69 -107t-55 -119zM126 328q2 128 34 362.5t54 392.5q5 13 50 126q49 121 73 172 q12 22 16 6q1 -7 -5 -49q-81 -567 -87 -664.5t-6 -106.5q0 -152 73 -218q57 -48 129 -48q102 0 170 89q49 64 84 87q50 31 130 9q21 -5 37.5 16t63.5 93q15 26 22 26q12 0 12 -11q0 -15 -6 -36q-9 -42 -36 -100q-25 -60 -43 -83q-60 -84 -114 -75q-50 6 -68 0 q-76 -25 -162 -169q-84 -144 -193 -144q-113 0 -170 96q-58 94 -58 229zM575 -867q0 -10 61.5 -62t70.5 -52q42 0 115 157q30 -22 75 -71q31 -35 48 -35q22 0 70 74q49 77 49 129q0 45 -49 99q-48 47 -79 47q-11 0 -50 -68q-26 -47 -56 -97q-15 36 -61 77t-68 41 q-13 0 -69.5 -111t-56.5 -128zM706 -1129q0 -12 19 -29t39.5 -36.5t40.5 -40.5q16 -20 27 -21q17 0 62 68q43 72 45 121q3 44 -36.5 93t-73.5 52q-13 2 -67.5 -95.5t-55.5 -111.5z" />
<glyph unicode="&#xfb58;&#xfbff;&#xfeee;" horiz-adv-x="1288" d="M-47 3q-3 6 29 27q27 16 40 24q17 9 114 69q68 40 117 76q98 69 147 123q56 57 56 99q-11 -4 -35 -10q-27 -3 -48 -3q-57 9 -88 31q-50 29 -50 80q0 37 68 181q18 42 52 86q45 58 83 58q58 0 102 -43q55 -59 55 -120q3 -18 3 -36h3q42 13 86 61l78 99q18 26 30 42.5 t18 25.5q46 51 114 51l0.5 -1l0.5 -1v2q48 -3 56 -3q27 0 40 19l42 83q24 40 41 36q12 -3 6 -41q-9 -45 -17 -63l-66 -160q-22 -41 -33 -47q-12 -10 -34 -15q-11 -4 -54.5 9.5t-55.5 13.5q-28 0 -61 -53q-12 -18 -22.5 -34.5t-22.5 -32.5q-27 -41 -47 -62q-25 -28 -64 -64 l-56 -44q-9 -28 -30 -76q-22 -56 -48 -95q-13 -25 -49 -76q-50 -78 -80 -98q-28 -18 -79 -34q-12 -5 -39 -14.5t-69 -23.5l-165 -43q-27 -5 -42 -6q-23 -3 -26 3zM109 -638q0 -9 43 -43.5t63 -51.5q22 -19 33 -19q46 0 124 157q32 -23 74 -65t58 -42q24 0 76 74 q54 75 54 130q-3 46 -53 98.5t-86 52.5q-12 -1 -47 -59.5t-64 -105.5q-24 34 -71.5 79.5t-71.5 35.5q-14 -7 -73 -114.5t-59 -126.5zM761 -250q0 -11 62 -63t71 -52q42 0 115 158q30 -23 75 -72q32 -35 49 -35q23 0 70 75q50 77 50 129q0 45 -50 99q-47 48 -79 48 q-11 0 -50 -68q-26 -48 -56 -98q-15 36 -61.5 77t-68.5 41q-13 0 -70 -111.5t-57 -127.5zM893 -514q0 -12 19 -28.5t39.5 -36.5t41.5 -41q16 -20 27 -21q17 0 62 68q43 73 45 121q3 45 -36.5 94.5t-73.5 51.5q-13 2 -68 -96t-56 -112z" />
<glyph unicode="&#x6be;&#xfbff;&#xfb7b;" horiz-adv-x="1567" d="M73 -171q0 73 11 147q9 81 51 196q63 180 172 342q62 90 144 177q30 35 86.5 83.5t87 72.5t48 37.5t33.5 25.5q30 23 30 30q9 49 -328 35q62 157 171 261.5t215.5 138.5t186.5 28q24 -3 46.5 -11t49.5 -20q19 -9 31 -9q32 0 54 17q18 15 64 85.5t61 85.5q51 58 106 58 q29 0 47 -19q15 -18 21 -18q15 0 31 30q15 31 24 31q17 0 30 -28q14 -27 14 -51q0 -53 -44 -111q-43 -60 -97 -53q-9 0 -41 18q-31 17 -58 17q-30 0 -71 -50q-45 -66 -67 -96q-82 -106 -222 -57q-102 24 -215 -8t-208 -133q286 9 342 -4q42 -12 42 -54q0 -59 -74 -113 q-36 -22 -150 -101.5t-231 -202.5q-43 -42 -106 -134q-60 -87 -86 -151q-42 -108 -48 -159q-7 -45 -7 -75q0 -230 153 -332q124 -79 328 -79q156 0 285 49q69 27 158 83q105 69 186 156q51 60 114 144q70 108 85 102q9 -2 -1 -33q-8 -21 -47 -105q-57 -105 -117 -197 q-103 -145 -231 -256q-124 -108 -253 -173q-170 -81 -366 -81q-218 0 -335 138q-105 126 -105 326zM485 253q0 -11 66 -66.5t76 -55.5q45 0 123 168q32 -24 80 -76q34 -38 52 -38q24 0 75 80q53 82 53 138q0 48 -53 106q-51 51 -85 51q-11 0 -53 -73q-28 -51 -60 -104 q-16 38 -65.5 82t-73.5 44q-14 0 -74.5 -119t-60.5 -137zM626 -28q0 -13 20 -31t42 -39t44 -44q17 -21 29 -22q18 0 66 73q46 77 49 129q3 48 -39.5 100.5t-78.5 55.5q-14 2 -72.5 -102.5t-59.5 -119.5zM884 -932q0 -9 44.5 -45t65.5 -54q22 -19 34 -19q48 0 129 163 q33 -24 76.5 -67.5t60.5 -43.5q25 0 79 77q56 78 56 135q-3 48 -55 102.5t-89 54.5q-13 -1 -49.5 -62t-66.5 -110q-25 36 -74 83t-74 37q-15 -7 -76 -119t-61 -132zM1428 639q0 109 91.5 297.5t125.5 180.5q-19 -30 -87.5 -176t-62.5 -188q0 -9 47 -32q48 -19 48 -82 q0 -41 -26 -81q-28 -39 -63 -39q-42 0 -57 37q-16 33 -16 83z" />
<glyph unicode="&#xfeb7;&#xfb91;&#xfee8;&#xfea0;&#xfeea;" horiz-adv-x="2327" d="M60 -48q-32 16 39 103q10 12 40 42t97.5 88.5t138.5 94.5q85 42 148 42q39 0 92 -15q51 -15 88 -15q29 0 66 8q41 9 69 27q39 22 80 54q52 45 52 67h-129q-106 0 -138 14q-19 6 -24 21v1q-3 6 0 17q2 12 23 43q13 24 46 67.5t60 75t98.5 89.5t164.5 88t169 30 q24 0 134 -27q48 -17 73 114q3 15 6 61q3 39 3 53v6v7v2q0 42 5.5 136.5t22.5 215t28 144.5q51 125 61 150q66 143 90 176q9 1 14 -6q4 -11 -2 -35l-55 -291q-30 -156 -32 -349q2 -44 18.5 -85t57.5 -71t109 -30q91 0 147 52q73 68 99 77q9 3 37 1q18 -1 45 -1t41 9 q36 24 70 114q27 -3 42 -3q27 0 47 33q4 9 24 63q15 45 25 45q12 0 12 -27q0 -99 -60 -198q-61 -98 -124 -98q-45 -63 -47 -63q-39 -46 -73 -46q-72 13 -102 -6q-30 -14 -114 -123q-84 -111 -183 -111q-101 0 -147 82q-11 -6 -30 -25l-53 -68q-46 -55 -82 -73 q-34 -14 -103.5 8t-100.5 22q-53 0 -131 -23q-138 -39 -216 -135q15 -3 100.5 -4.5t144 13t87.5 23.5q33 7 33 -32q-17 -51 -39 -88q-23 -24 -44.5 -46.5t-42.5 -45.5l-147 -178q-62 -80 -132 -129q-110 -80 -221 -80q-27 0 -79 12q-113 27 -137 27q-60 5 -108 -12.5 t-103 -57.5q-38 -29 -48 -21zM870 -613q0 -17 21 -35q25 -20 75 -54.5t59 -34.5q22 0 72 89.5t50 136.5q-4 36 -63.5 99.5t-91.5 49.5q-16 -8 -69 -113t-53 -138zM876 1640q0 -17 21 -35q25 -20 75 -54.5t59 -34.5q22 0 72 89.5t50 136.5q-4 36 -63.5 99.5t-91.5 49.5 q-16 -8 -69 -113t-53 -138zM1628 2633q0 -10 70 -65.5t80 -55.5q47 0 129 168q33 -24 83 -77q36 -37 55 -37q24 0 80 79q54 83 54 138q0 48 -54 105q-56 51 -92 51q-10 0 -54 -72q-30 -51 -63 -105q-18 39 -69.5 82.5t-75.5 43.5q-15 -2 -79 -119.5t-64 -135.5zM1672 1935 q27 75 56 123q31 57 70 96q69 75 288 250q204 162 393 317q153 126 270 237q74 69 243 232q230 221 230 228q0 -16 -6 -28q-11 -45 -59 -129q-46 -83 -82 -129q-66 -83 -105 -128q-30 -31 -52.5 -55t-39.5 -41q-42 -43 -156 -144q-42 -37 -104 -91t-145 -123 q-132 -113 -208 -170q-63 -48 -124 -95t-122 -92l-212 -165q-22 -20 -44.5 -37t-42.5 -32q-42 -35 -48 -24zM1765 3005q0 -15 24.5 -33t71 -59t60.5 -41q22 0 69.5 87t47.5 136q0 53 -51 110q-51 51 -93 51q-18 -2 -73.5 -119t-55.5 -132z" />
<glyph unicode="&#xfb58;&#xfbff;&#xfeb8;&#xfb95;&#xfe8e;" horiz-adv-x="2010" d="M115 402q0 78 30 276q32 210 54 337q24 143 45 251q20 117 42 169l102 213q12 11 15 5t3 -24t-4 -39q-3 -15 -6 -42q-6 -48 -66 -440q-20 -121 -30.5 -196t-13.5 -105q23 0 279 297q203 234 319 368t148 167q99 113 174 197.5t124 143.5q215 258 338 454q21 35 30 35 q13 -5 -2.5 -54.5t-21.5 -67.5q-35 -93 -111 -214q-47 -80 -138 -200q-107 -138 -248 -300q-4 -4 -166 -184q-53 -59 -105.5 -119.5t-103.5 -123.5l-184 -215l-168 -190l7 -3h2l223 -47q18 -4 102 -28t119 -24q36 0 108 85q13 20 28 38.5t30 36.5q11 6 26 2q18 -5 22 -5 l26 3q24 5 36 23q6 9 25 36q29 43 42 45q12 -3 25.5 -5.5t27.5 -6.5q13 3 55 55l33 45q18 0 41 -12q40 24 40 41q0 3 -6 21q-16 43 -16 75q0 109 67 253q23 48 49.5 81.5t37.5 29.5q11 -2 5 -34q-18 -66 0.5 -129t108.5 -63q27 0 45 33q18 34 23 34q15 0 15 -37 q0 -53 -26 -129q-10 -36 -27 -71q-49 -97 -106 -123q-63 -21 -99 0l-62 -67l-34 -33q-18 -18 -44 -36q-18 -12 -51 -33q-45 -32 -52 -39q-23 -18 -42 -29l-53 -21q-42 -33 -61 -49l-93 -51q-29 -23 -62 -59q-70 -76 -121 -76q-5 0 -47.5 18t-63.5 18q-14 -2 -30 -71 q-15 -57 -29 -91q-69 -183 -103 -243q-102 -159 -258 -159q-108 0 -164 103q-54 107 -54 299zM262 528q0 -92 50 -144q37 -44 106 -44q105 0 168 69q63 71 63 137q0 55 -69 84q-72 30 -180 30q-58 0 -76 -9q-62 -29 -62 -123zM476 1964q0 18 64 135.5t79 119.5 q24 0 75.5 -43.5t69.5 -82.5q33 54 63 105q44 72 54 72q36 0 92 -51q54 -57 54 -105q0 -55 -54 -138q-56 -79 -80 -79q-19 0 -55 37q-50 53 -83 77q-82 -168 -129 -168q-10 0 -80 55.5t-70 65.5zM613 2336q0 15 55.5 132t73.5 119q42 0 93 -51q51 -57 51 -110 q0 -49 -47.5 -136t-69.5 -87q-14 0 -60.5 41t-71 59t-24.5 33zM650 -620q0 20 61 132t76 119q25 10 74 -37t74 -83q30 49 66.5 110t49.5 62q37 0 89 -54.5t55 -102.5q0 -57 -56 -135q-54 -77 -79 -77q-17 0 -60.5 43.5t-76.5 67.5q-81 -163 -129 -163q-12 0 -34 19 q-21 18 -65.5 54t-44.5 45zM1212 1975q18 53 30 72q13 27 52 72q111 122 170 188q81 97 112 144q11 -2 -9 -50q-10 -27 -21 -48q-49 -81 -202 -249q-35 -31 -68 -63.5t-64 -65.5zM1366 -137q0 18 60.5 137t74.5 119q24 0 73.5 -44t65.5 -82q32 53 60 104q42 73 53 73 q34 0 85 -51q53 -58 53 -106q0 -56 -53 -138q-51 -80 -75 -80q-18 0 -52 38q-48 52 -80 76q-78 -168 -123 -168q-10 0 -76 55.5t-66 66.5zM1507 -418q1 15 59.5 119.5t72.5 102.5q36 -3 78.5 -55.5t39.5 -100.5q-3 -52 -49 -129q-48 -73 -66 -73q-12 1 -29 22q-22 23 -44 44 t-42 39t-20 31z" />
<glyph unicode="&#xfbfe;&#xfbff;&#xfee6;" horiz-adv-x="2077" d="M114 -233q0 93 31 228q18 87 83 242.5t111 233.5q33 60 55 60q15 -4 9 -36q-7 -27 -31 -84q-20 -45 -58 -130t-58 -152q-28 -93 -28 -177q0 -132 93 -213q96 -83 256 -83q185 0 327 81q140 77 242 233q76 118 108 235q33 111 36 440q0 57 40.5 97.5t140.5 31.5 q66 0 101 18q31 15 63 55q31 39 67 111t45 89q27 55 45 55q27 0 23 -31l-6 -42q-3 -54 24.5 -87t63.5 -33q33 0 47 24q12 28 16 42q6 15 16 15t14.5 -8.5t4.5 -21.5q0 -87 -59 -209q-70 -141 -150 -141q-34 0 -61 15q-23 14 -38 38q-18 30 -22 39q-8 16 -14 16 q-16 0 -35 -27t-46.5 -57.5t-51.5 -44.5q-24 -15 -66 -19q-39 -5 -50 -23q-10 -21 -18 -87q-10 -72 -18 -120q-9 -52 -18 -89.5t-22 -87.5q-24 -81 -86 -226q-112 -257 -285 -411q-204 -188 -451 -188q-212 0 -306 129q-84 107 -84 300zM666 285q0 -17 21 -35 q25 -20 75 -54.5t59 -34.5q22 0 72 89.5t50 136.5q-4 36 -63.5 99.5t-91.5 49.5q-16 -8 -69 -113t-53 -138zM668 -1195q0 -9 44.5 -45t65.5 -54q22 -19 34 -19q48 0 129 163q33 -24 76.5 -67.5t60.5 -43.5q25 0 79 77q56 78 56 135q-3 48 -55 102.5t-89 54.5 q-13 -1 -49.5 -62t-66.5 -110q-25 36 -74 83t-74 37q-15 -7 -76 -119t-61 -132zM1388 -1108q0 -9 44.5 -45t65.5 -54q22 -19 34 -19q48 0 129 163q33 -24 76.5 -67.5t60.5 -43.5q25 0 79 77q56 78 56 135q-3 48 -55 102.5t-89 54.5q-13 -1 -49.5 -62t-66.5 -110 q-25 36 -74 83t-74 37q-15 -7 -76 -119t-61 -132z" />
<glyph unicode="&#xfe91;&#xfbff;&#xfeb6;" horiz-adv-x="1990" d="M45 -212q0 117 25 242q29 142 54 207q51 147 98 226q31 53 46 53q23 -3 -9 -80q-16 -45 -31 -89t-33 -105t-33 -124q-17 -78 -17 -139q0 -186 114 -261q86 -59 236 -59q108 0 199 26q143 37 246 144q53 52 116 171q63 123 79 211q17 87 20 144q3 36 3 123v123q0 48 12 80 q13 31 52 31q32 -18 77 -18q60 0 96 33q24 24 36 38q6 0 22 -14q17 -12 36 -12q26 0 46 31t25 40q19 -9 40 -10.5t45 13.5t24 34l-9.5 29.5t-11.5 65.5q0 115 41.5 206.5t67 126t40.5 33.5q16 -5 9 -36q-8 -50 -5 -86.5t21 -60t47 -26.5q52 -5 68 46.5t28 51.5 q18 0 27 -26.5t7 -71.5q0 -55 -20 -124t-58.5 -117t-72.5 -63q-29 -12 -55 -13.5t-53 7.5q-14 -21 -37 -44.5t-50 -45.5t-54.5 -39.5t-50.5 -26.5q-8 0 -24 -8l-59 -27q-15 -6 -30 -6h-12.5h-9.5q-47 -39 -150 -64q-11 -168 -56 -353q-49 -210 -135 -369 q-126 -232 -276 -349q-168 -132 -381 -132q-181 0 -282 141q-88 123 -88 322zM733 1441q0 18 64 135.5t79 119.5q24 0 75.5 -43.5t69.5 -82.5q33 54 63 105q44 72 54 72q36 0 92 -51q54 -57 54 -105q0 -55 -54 -138q-56 -79 -80 -79q-19 0 -55 37q-50 53 -83 77 q-82 -168 -129 -168q-10 0 -80 55.5t-70 65.5zM791 -1223q0 21 64.5 140t80.5 126q27 11 79 -39t78 -88q32 52 70.5 116.5t52.5 65.5q40 0 95 -57.5t58 -108.5q0 -60 -59 -143q-58 -82 -84 -82q-18 0 -64 46t-81 72q-86 -173 -137 -173q-13 0 -36 20q-23 19 -70 57.5 t-47 47.5zM870 1813q0 15 55.5 132t73.5 119q42 0 93 -51q51 -57 51 -110q0 -49 -47.5 -136t-69.5 -87q-14 0 -60.5 41t-71 59t-24.5 33zM1609 -1108q0 33 53 138t69 113q32 14 91.5 -49.5t63.5 -99.5q0 -47 -50 -136.5t-72 -89.5q-9 0 -59 34.5t-75 54.5q-21 18 -21 35z " />
<glyph unicode="&#xfee7;&#xfe98;&#xfbff;&#xfea0;&#xfeea;" horiz-adv-x="1801" d="M75 -53q-33 18 39 105q9 9 24.5 25.5t32 33t42 40t71.5 59.5t107 66q89 43 149 43q39 0 90 -15q58 -16 90 -16q25 0 66 7q36 9 69 27q46 29 79 56q53 45 53 67h-129q-113 0 -138 12q-33 14 -26 41q8 18 27.5 50t54.5 75t40 49q36 42 85 79q68 53 176 98q106 42 181 42 q24 0 50.5 -11.5t43 -16.5t25.5 -2q27 3 57 40q30 36 30 53q-8 16 -9 24q-14 36 -14 78t10 84.5t23 78.5q17 42 38.5 78t27.5 45q9 17 27 35q15 15 26 12q15 -5 15 -21q-26 -195 103 -195q29 0 47 33q18 34 21 34q15 0 15 -37q0 -57 -24 -129q-12 -35 -27 -71 q-50 -99 -108 -123q-41 -14 -86 -3q-34 5 -55 -25l-62 -83q-37 -46 -69 -67q-30 -21 -51 -21q5 -3 -75 28q-43 15 -78 15q-49 0 -130 -21q-80 -24 -146 -67q-15 -9 -38 -34t-32 -34v-1q184 -8 253 11t77 20q33 8 33 -30q-14 -49 -39 -90q-23 -22 -44 -45.5t-42 -45.5 l-148 -179q-62 -79 -132 -129q-113 -79 -221 -79q-27 0 -79 12q-108 27 -135 28q-45 3 -73.5 -0.5t-54.5 -17.5q-28 -13 -84 -52q-37 -27 -49 -23zM312 -952q0 33 53 138t69 113q32 14 91.5 -49.5t63.5 -99.5q0 -47 -50 -136.5t-72 -89.5q-9 0 -59 34.5t-75 54.5 q-21 18 -21 35zM829 -715q0 20 61 132t76 119q25 10 74 -37t74 -83q30 49 66.5 110t49.5 62q37 0 89 -54.5t55 -102.5q0 -57 -56 -135q-54 -77 -79 -77q-17 0 -60.5 43.5t-76.5 67.5q-81 -163 -129 -163q-12 0 -34 19q-21 18 -65.5 54t-44.5 45zM911 1762q0 20 61 132 t76 119q25 10 74 -37t74 -83q30 49 66.5 110t49.5 62q37 0 89 -54.5t55 -102.5q0 -57 -56 -135q-54 -77 -79 -77q-17 0 -60.5 43.5t-76.5 67.5q-81 -163 -129 -163q-12 0 -34 19q-21 18 -65.5 54t-44.5 45zM1711 2223q0 33 53 138t69 113q32 14 91.5 -49.5t63.5 -99.5 q0 -47 -50 -136.5t-72 -89.5q-9 0 -59 34.5t-75 54.5q-21 18 -21 35z" />
<glyph unicode="&#xfe91;&#xfbff;&#xfeb8;&#xfe98;&#xfeae;" horiz-adv-x="2211" d="M-467 -476q-6 8 12 27q14 17 86 74q46 31 91 63q47 30 90 60q122 91 264 249q78 79 173 217l39 57q19 29 37 57q143 207 173 240q114 141 244 227q180 129 354 129l86 -3q25 0 40 1q14 2 29 11q19 19 45 48q45 51 60 58q9 3 28 -1q21 -5 30 -2q33 12 69 62q8 13 17 27 q9 15 18 28q9 3 40 3q17 0 35 8q19 7 40 48q20 42 26 42q36 -3 57 0.5t34 11.5q24 12 24 33q0 6 -6 21q-15 37 -15 73q0 111 68 255q19 44 48 80q28 33 37 31q11 -4 5 -36q-8 -36 -8 -55.5t3 -40.5q18 -96 114 -96q27 0 47 35q16 33 21 33q15 0 15 -36q0 -60 -24 -129 q-17 -47 -29 -71q-46 -94 -106 -121l-18 -6l-20 -3q-34 -6 -61 9q-84 -111 -139.5 -152.5t-85.5 -41.5q0 -1 -49.5 -44t-67.5 -52q-24 -12 -41 -12l-30 -24l-27 -27q-13 -12 -25 -25q-21 -14 -53 -26q-34 -12 -45 -21l-13 -12l-20 -19l-67 -86q-12 -12 -39 -42 q-21 -24 -47 -34v-2q-24 -12 -64 -12h-47q-18 3 -40 3q-60 0 -110 -13q-46 -12 -120 -48q-111 -54 -255 -242q-15 -21 -156 -225q-100 -138 -213 -232q-64 -54 -208 -158q-84 -57 -134 -87q-60 -36 -136 -69q-5 -3 -38 -15q-25 -7 -42 0zM395 1408q0 20 61 132t76 119 q25 10 74 -37t74 -83q30 49 66.5 110t49.5 62q37 0 89 -54.5t55 -102.5q0 -57 -56 -135q-54 -77 -79 -77q-17 0 -60.5 43.5t-76.5 67.5q-81 -163 -129 -163q-12 0 -34 19q-21 18 -65.5 54t-44.5 45zM1019 1963q0 18 64 135.5t79 119.5q24 0 75.5 -43.5t69.5 -82.5 q33 54 63 105q44 72 54 72q36 0 92 -51q54 -57 54 -105q0 -55 -54 -138q-56 -79 -80 -79q-19 0 -55 37q-50 53 -83 77q-82 -168 -129 -168q-10 0 -80 55.5t-70 65.5zM1145 -400q0 20 61 132t76 119q25 10 74 -37t74 -83q30 49 66.5 110t49.5 62q37 0 89 -54.5t55 -102.5 q0 -57 -56 -135q-54 -77 -79 -77q-17 0 -60.5 43.5t-76.5 67.5q-81 -163 -129 -163q-12 0 -34 19q-21 18 -65.5 54t-44.5 45zM1156 2335q0 15 55.5 132t73.5 119q42 0 93 -51q51 -57 51 -110q0 -49 -47.5 -136t-69.5 -87q-14 0 -60.5 41t-71 59t-24.5 33zM1872 233 q0 33 53 138t69 113q32 14 91.5 -49.5t63.5 -99.5q0 -47 -50 -136.5t-72 -89.5q-9 0 -59 34.5t-75 54.5q-21 18 -21 35z" />
<glyph unicode="&#xfef3;&#xfbff;&#xfeb0;" horiz-adv-x="1398" d="M-459.5 -560q0.5 7 13.5 21q8 11 30 29.5t57 44.5q45 32 90 61.5t90 61.5q60 45 126 106.5t138 142.5q41 42 83.5 96.5t89.5 120.5q52 76 76 114q68 99 110.5 158t60.5 81q59 72 120.5 129t125.5 99q90 64 177.5 95.5t173.5 33.5h114q48 0 68 30l97 144q12 16 18 21 q17 18 29 13q7 -4 6 -27q-6 -27 -15 -48q-15 -28 -28 -55t-38.5 -72t-69.5 -112.5t-98 -123.5q-51 -54 -81 -72q-17 -8 -35.5 -10.5t-38 -2t-39 2t-37.5 1.5q-81 0 -146.5 -20.5t-122.5 -59.5t-109 -95.5t-107 -128.5q-11 -15 -50 -71t-107 -153q-93 -130 -212 -232 q-41 -35 -100.5 -80t-126 -89.5t-132.5 -83.5t-119 -61q-4 -2 -13 -5.5t-25 -9.5q-10 -3 -21 -4.5t-17 1t-5.5 9.5zM82 -728q0 20 61 132t76 119q25 10 74 -37t74 -83q30 49 66.5 110t49.5 62q37 0 89 -54.5t55 -102.5q0 -57 -56 -135q-54 -77 -79 -77q-17 0 -60.5 43.5 t-76.5 67.5q-81 -163 -129 -163q-12 0 -34 19q-21 18 -65.5 54t-44.5 45zM436 1575q0 33 53 138t69 113q32 14 91.5 -49.5t63.5 -99.5q0 -47 -50 -136.5t-72 -89.5q-9 0 -59 34.5t-75 54.5q-21 18 -21 35zM767 -608q0 20 61 132t76 119q25 10 74 -37t74 -83q30 49 66.5 110 t49.5 62q37 0 89 -54.5t55 -102.5q0 -57 -56 -135q-54 -77 -79 -77q-17 0 -60.5 43.5t-76.5 67.5q-81 -163 -129 -163q-12 0 -34 19q-21 18 -65.5 54t-44.5 45z" />
<glyph unicode="&#xfee3;&#xfeb8;&#xfb91;&#xfee0;&#xfbfd;" horiz-adv-x="2967" d="M199 -311q0 113 15 197q17 88 59 199q37 96 75 177q42 90 90 182q22 40 40 76t32 66q60 113 70 110q9 -5 9 -30q0 -39 -21 -83q-54 -126 -94.5 -216t-65.5 -147q-86 -198 -86 -309q0 -150 98 -231q91 -70 234 -70q186 0 325 91q138 89 195 255q2 20 -19 42q-30 26 -92 66 q-54 32 -61 41q-45 39 -45 103q0 30 36 129l94 191q32 55 56 103q33 71 40 102q20 311 39 396q8 41 15.5 73t13.5 56q27 89 37 110q20 54 74 145q10 9 19 5q6 -6 -4 -42q-23 -126 -32 -197v-1q29 24 129 130q54 59 117 126.5t132 143.5q77 84 154 169.5t157 171.5 q208 237 327 415q19 39 28 39q6 -9 6 -21q-16 -66 -31 -102q-33 -82 -110 -205q-39 -63 -138 -191q-54 -66 -114.5 -138.5t-131.5 -149.5l-367 -408q1 -1 6 -1q250 -56 272.5 -62t45.5 -12q100 -27 130 -27q38 0 108 86q23 27 59 73q7 6 25 2q18 -5 24 -5l24 3q24 6 38 24 q19 27 24 35q30 42 42 46q39 -10 52 -12q17 2 56 54l34 47q17 0 39 -12l17 6q39 34 51 49l73 141q23 33 56 74q6 9 31 34q5 8 29 56t45 79q4 2 30 -16q25 -23 43 -51q21 -39 35 -69q18 -39 18 -72q0 -41 -32 -92q-30 -49 -66 -60q-34 -9 -43 -9q-45 6 -65 9q-36 6 -55 -10 q-18 -14 -44 -51q-36 -57 -39 -60l-67 -78q-27 -24 -45 -35q-44 -28 -51 -34q-11 -8 -53 -39q-28 -21 -42 -27l-52 -21q-17 -14 -32 -26l-30 -24l-91 -52q-17 -11 -62 -57q-72 -78 -123 -78l-67 28q-23 9 -44 9l-1 2v-2q-12 0 -27 -61q-18 -68 -29 -95q-66 -174 -109 -246 q-98 -144 -243 -144q-93 0 -152 86q-21 33 -28 51q-12 -8 -32 -41q-55 -91 -55 -117q0 -18 36 -45q40 -30 46 -34q41 -32 71 -72q25 -41 25 -98q0 -76 -43 -226q-54 -198 -149 -342q-93 -141 -214 -237q-153 -117 -326 -117q-193 0 -292 123q-86 108 -86 283zM1330 985 q0 -67 27 -114q41 -67 123 -67q98 0 162 69q63 69 63 130q0 66 -108 96q-66 15 -132 15q-54 0 -73 -9q-62 -30 -62 -120zM1385 2078q0 18 64 135.5t79 119.5q24 0 75.5 -43.5t69.5 -82.5q33 54 63 105q44 72 54 72q36 0 92 -51q54 -57 54 -105q0 -55 -54 -138 q-56 -79 -80 -79q-19 0 -55 37q-50 53 -83 77q-82 -168 -129 -168q-10 0 -80 55.5t-70 65.5zM1522 2450q0 15 55.5 132t73.5 119q42 0 93 -51q51 -57 51 -110q0 -49 -47.5 -136t-69.5 -87q-14 0 -60.5 41t-71 59t-24.5 33z" />
<glyph unicode="&#xfee7;&#xfeb4;&#xfe98;&#xfee8;&#xfeaa;" horiz-adv-x="2446" d="M-33 -53q0 20 46 50q44 27 86.5 54.5t86.5 56.5q114 76 171 147q39 45 66 90q15 24 27 44t21 38l61 128q30 55 33 61q26 33 41 32q16 -8 9 -32q-17 -40 -21 -55q-23 -62 -23 -95q0 -75 44 -118q4 -6 30 -23q52 -30 99 -30q87 0 123 20q36 19 85 81q30 34 84 75 q53 36 89 36v-3v3q33 -8 64 -9q26 1 50 24q36 33 36 61q-3 11 -9 26q-12 37 -12 61q0 84 37 177q14 38 27 65q12 24 35 61q13 20 27 35q16 13 24 12q16 -8 16 -23l-10 -45l-3 -25l3 -24v-3q30 -98 144 -98q88 0 150 65q75 75 105 82q33 -6 82 -6q38 0 74 36q34 36 40 44 q12 -15 38 -6q39 13 63 49l31 45q24 -9 42 -6l18 9q27 17 36 39q8 23 8 42q0 11 -3 77v57q19 54 70 148q15 24 53 92q3 6 15 15q6 0 6 -57v-37v-38q0 -30 -8 -122q-9 -84 -64 -184q-53 -99 -111 -156l-20 -17q-58 -31 -69 -34q-25 -15 -33 -21q-7 -9 -17.5 -18l-24.5 -21 q-12 -11 -36 -12q-22 -5 -42 -14l-55 -45q-38 -34 -60 -40q-9 -2 -35 -2q-19 2 -45 5q-48 0 -150 -135q-99 -134 -202 -135l-48 6q-33 6 -56 -24l-61 -80q-66 -81 -120 -73v1v-3l-47 6q-33 0 -51 -12q-19 -12 -34 -30q-32 -46 -62 -92.5t-61 -91.5q-54 -65 -104 -87 q-45 -24 -108 -24q-102 0 -150 67q-46 68 -63 123q0 14 -3 21q-10 -25 -18 -36q-25 -45 -52 -76q-41 -62 -119 -93l-123 -36l-96 -20q-58 -4 -67 0zM571 1265q0 33 53 138t69 113q32 14 91.5 -49.5t63.5 -99.5q0 -47 -50 -136.5t-72 -89.5q-9 0 -59 34.5t-75 54.5 q-21 18 -21 35zM1057 1456q0 20 61 132t76 119q25 10 74 -37t74 -83q30 49 66.5 110t49.5 62q37 0 89 -54.5t55 -102.5q0 -57 -56 -135q-54 -77 -79 -77q-17 0 -60.5 43.5t-76.5 67.5q-81 -163 -129 -163q-12 0 -34 19q-21 18 -65.5 54t-44.5 45zM2088 2060q0 33 53 138 t69 113q32 14 91.5 -49.5t63.5 -99.5q0 -47 -50 -136.5t-72 -89.5q-9 0 -59 34.5t-75 54.5q-21 18 -21 35z" />
<glyph unicode="&#xfee3;&#xfe98;&#xfeb8;&#xfb91;&#xfede;" horiz-adv-x="2532" d="M78 -296q0 134 33 257q36 121 93.5 241t86.5 173q33 58 54 52q12 -7 1 -28q-4 -9 -43 -98q-59 -126 -77 -180q-43 -117 -43 -208q0 -168 132 -248q97 -61 247 -61q86 0 167 21q90 25 159 70q192 129 270 375q52 168 52 404q0 187 5 345q4 159 13 450q0 28 3 85 q5 44 14 62l121 261q9 12 15 12q5 0 5 -27q0 -29 -3 -53l-17 -150l-9 -123q159 158 264 272q84 91 290 345q102 126 199 264q69 100 117 174q24 43 56 111q7 16 36 73q21 -7 -9 -111q-33 -109 -56 -153q-52 -112 -223 -349q-165 -221 -285 -356q-42 -45 -82.5 -89t-81.5 -89 q-33 -36 -52 -53q60 -4 97 -40q35 -35 35 -113q0 -90 -27 -162q16 8 37 18q32 15 65 44q24 19 52 51q32 34 53 66q27 39 28 39q15 1 30 -6q18 -9 23 -9q16 0 30 13q15 15 25 42q5 9 12 15q5 2 18 -1q14 -5 23 -5h8.5h9.5q10 2 21 17q3 6 5 12t5 10l15 29q9 1 17 0 q12 -6 19 -12q9 0 37 17t28 37q0 6 -6 21q-15 45 -15 73q0 111 67 255q23 47 50 80t36 30q13 -3 4 -35q-7 -37 -3.5 -79t21.5 -66t47 -24q12 27 34 67q18 27 33 27q17 0 42 -25q26 -29 26 -74q0 -49 -26 -118q-25 -71 -67 -129q-27 -39 -65 -56q-22 -13 -50.5 -16t-57.5 10 l-60 -67q-33 -32 -81 -62l-45 -27q-34 -13 -49 -16q-21 -5 -27 -11l-65 -43q-33 -18 -49 -21q-38 -12 -41 -12l-67 -56l-83 -55l-129 -62q-30 -7 -21 -6q-7 -6 -22 -15q-29 -19 -71 -28q-39 -9 -97 -9l-17 3l-12 -261q0 -252 -73 -534q-54 -195 -144 -357 q-248 -458 -648 -458q-195 0 -290 120q-97 122 -97 303zM734 1886q0 18 64 135.5t79 119.5q24 0 75.5 -43.5t69.5 -82.5q33 54 63 105q44 72 54 72q36 0 92 -51q54 -57 54 -105q0 -55 -54 -138q-56 -79 -80 -79q-19 0 -55 37q-50 53 -83 77q-82 -168 -129 -168 q-10 0 -80 55.5t-70 65.5zM871 2258q0 15 55.5 132t73.5 119q42 0 93 -51q51 -57 51 -110q0 -49 -47.5 -136t-69.5 -87q-14 0 -60.5 41t-71 59t-24.5 33zM1356 1137q0 -29 33 -48q31 -20 64 -20q45 0 83 30q37 30 37 71q0 22 -30 46q-30 21 -69 21q-43 0 -82 -30 q-36 -31 -36 -70zM1466 2308q0 20 61 132t76 119q25 10 74 -37t74 -83q30 49 66.5 110t49.5 62q37 0 89 -54.5t55 -102.5q0 -57 -56 -135q-54 -77 -79 -77q-17 0 -60.5 43.5t-76.5 67.5q-81 -163 -129 -163q-12 0 -34 19q-21 18 -65.5 54t-44.5 45z" />
<glyph unicode="&#xfea3;&#xfeb8;&#xfe98;&#xfee8;&#xfe8e;" horiz-adv-x="2166" d="M84 325q0 44 33 321q37 312 55 435q3 12 50 125q36 87 73 172q5 0 7 2.5t5 3.5q5 -13 -3 -49l-12 -80l-52 -375q-17 -121 -21 -195q-6 -75 -6 -120q0 -150 73 -219q56 -48 129 -48q101 0 168 89q48 61 84 87q35 22 66 18l2 -2q28 -7 63 -9q28 2 49 24q38 33 38 62 q-6 16 -9 25q-14 36 -14 60q0 80 38 179q3 6 27 64q6 14 34 62q8 10 27 34q18 14 26 12q15 -7 15 -22l-9 -45l-3 -26l3 -24v-3q30 -97 142 -97q87 0 152 64q76 75 103 83q35 -6 83 -6q37 0 75 36q1 1 39 43q13 -15 37 -6q39 11 65 50q7 9 30 45q24 -9 43 -6l18 9l2 -2v2 q33 24 76 79l27.5 35t37.5 49q-18 6 -20 6q-40 17 -78 27q-34 9 -43 15q-39 17 -50 17q-40 0 -76 -47q-14 -21 -29 -34q-10 -12 -18 -9q-18 9 6 55q50 90 77 117q40 36 84 36q22 0 99 -25q73 -26 124 -26q39 0 66 14q30 12 42 22q14 9 21 3q9 -7 6 -27q0 -10 -13 -57 q-9 -33 -17 -45l-49 -36l-59 -55l-114 -126l-100 -114v3l-2 -3l-18 -15q-52 -29 -69 -35q-13 -7 -34 -22q-21 -18 -41 -38q-13 -10 -37 -12q-24 -6 -42 -15q-12 -9 -54 -43q-36 -33 -60 -41q-21 -4 -36 -1q-27 3 -44 4q-49 0 -151 -135q-101 -135 -201 -135l-50 6 q-31 6 -55 -24l-62 -81q-67 -81 -120 -73v1q-46 6 -67 0q-75 -25 -161 -168q-84 -145 -195 -145t-168 96q-58 94 -58 229zM310 1706q0 33 53 138t69 113q32 14 91.5 -49.5t63.5 -99.5q0 -47 -50 -136.5t-72 -89.5q-9 0 -59 34.5t-75 54.5q-21 18 -21 35zM748 1628 q0 20 61 132t76 119q25 10 74 -37t74 -83q30 49 66.5 110t49.5 62q37 0 89 -54.5t55 -102.5q0 -57 -56 -135q-54 -77 -79 -77q-17 0 -60.5 43.5t-76.5 67.5q-81 -163 -129 -163q-12 0 -34 19q-21 18 -65.5 54t-44.5 45zM1324 2129q0 18 64 135.5t79 119.5q24 0 75.5 -43.5 t69.5 -82.5q33 54 63 105q44 72 54 72q36 0 92 -51q54 -57 54 -105q0 -55 -54 -138q-56 -79 -80 -79q-19 0 -55 37q-50 53 -83 77q-82 -168 -129 -168q-10 0 -80 55.5t-70 65.5zM1461 2501q0 15 55.5 132t73.5 119q42 0 93 -51q51 -57 51 -110q0 -49 -47.5 -136t-69.5 -87 q-14 0 -60.5 41t-71 59t-24.5 33z" />
<glyph unicode="&#xfee3;&#xfe98;&#xfeb8;&#xfe8e;" horiz-adv-x="1486" d="M123 325q4 63 34 321q38 314 56 435q3 12 49 126q48 120 74 171l12 6q4 -12 -3 -48l-12 -81l-53 -373q-16 -123 -21 -197q-7 -91 -7 -120q0 -97 34 -157q57 -95 185 -95q70 0 123 38q42 31 132 97q33 -6 82 -6q39 0 74 38q25 28 40 42q12 -14 35 -6q37 15 64 49 q11 14 32 47q24 -9 42 -6q12 4 19 9v-2q24 17 24 35q0 7 -6 21q-15 39 -15 73q0 111 68 255q18 42 48 80q28 34 37 31q12 -3 5 -36q-8 -34 -8 -57v-3.5v-9.5q0 -2 3 -26v6q6 -31 24 -55q15 -24 44 -24q21 46 36 67q15 27 31 27q18 0 44 -25q24 -26 24 -72q0 -54 -24 -120 q-26 -69 -68 -129q-25 -35 -64 -56q-14 -6 -47 -15v3v-3q-34 -6 -61 9l-62 -67l-33 -33l-19 -17q-60 -30 -69 -34q-26 -14 -33 -21q-24 -21 -42 -39q-15 -9 -36 -12q-24 -2 -41 -14q-15 -9 -55 -45q-38 -33 -60 -40q-11 -2 -35 -2q-30 5 -45 6q-51 0 -138 -136 q-85 -135 -202 -135q-138 0 -194 163q-10 32 -15 78q-7 60 -7 84zM217 1727q0 18 64 135.5t79 119.5q24 0 75.5 -43.5t69.5 -82.5q33 54 63 105q44 72 54 72q36 0 92 -51q54 -57 54 -105q0 -55 -54 -138q-56 -79 -80 -79q-19 0 -55 37q-50 53 -83 77q-82 -168 -129 -168 q-10 0 -80 55.5t-70 65.5zM354 2099q0 15 55.5 132t73.5 119q42 0 93 -51q51 -57 51 -110q0 -49 -47.5 -136t-69.5 -87q-14 0 -60.5 41t-71 59t-24.5 33zM934 1825q0 20 61 132t76 119q25 10 74 -37t74 -83q30 49 66.5 110t49.5 62q37 0 89 -54.5t55 -102.5q0 -57 -56 -135 q-54 -77 -79 -77q-17 0 -60.5 43.5t-76.5 67.5q-81 -163 -129 -163q-12 0 -34 19q-21 18 -65.5 54t-44.5 45z" />
<glyph unicode="&#xfee7;&#xfe98;&#xfec8;&#xfe8e;" horiz-adv-x="1629" d="M111 324q0 43 33 321q18 141 32 249.5t23 185.5q3 10 50 126q36 87 73 172q6 15 12 5q5 -14 -15 -129l-52 -374q-17 -126 -21 -196q-6 -75 -6 -120q0 -39 5 -79t13 -59q18 -59 70 -83q54 -25 117 -25l89 126q27 37 46 129q3 18 11.5 93t21.5 208q11 92 24 164 q15 78 47 156q57 126 58 130q42 78 41 78q15 14 12 -19q-21 -132 -24 -168q-8 -59 -15.5 -116.5t-14.5 -116.5q-12 -109 -48 -240q-5 -22 -33 -118q-23 -74 -27 -87q36 48 88 103q102 108 182 108q49 0 90 -31q42 -32 42 -86q0 -120 -117 -292q64 60 99 114q28 42 73 129 q39 72 62 103q33 44 67 66q50 24 86 24h43q27 0 41 18l42 83q25 39 40 37q14 -3 6 -40q-6 -45 -15 -63l-67 -161q-21 -39 -33 -48q-15 -13 -68 -7h-1h-21q-36 0 -68 -14q-30 -16 -43 -36l-45 -79q-50 -83 -98 -135q-49 -60 -93 -93q-85 -59 -145 -68q-170 -169 -369 -169 q-161 0 -239 106q-61 83 -61 218zM211 1706q0 33 53 138t69 113q32 14 91.5 -49.5t63.5 -99.5q0 -47 -50 -136.5t-72 -89.5q-9 0 -59 34.5t-75 54.5q-21 18 -21 35zM516 306q16 0 82 3q53 4 128 33q78 28 136 76q59 47 59 75q0 17 -38 42q-36 23 -76 23q-69 0 -171 -114 q-57 -63 -120 -138zM775 1753q0 20 61 132t76 119q25 10 74 -37t74 -83q30 49 66.5 110t49.5 62q37 0 89 -54.5t55 -102.5q0 -57 -56 -135q-54 -77 -79 -77q-17 0 -60.5 43.5t-76.5 67.5q-81 -163 -129 -163q-12 0 -34 19q-21 18 -65.5 54t-44.5 45zM1525 1977q0 33 53 138 t69 113q32 14 91.5 -49.5t63.5 -99.5q0 -47 -50 -136.5t-72 -89.5q-9 0 -59 34.5t-75 54.5q-21 18 -21 35z" />
<glyph unicode="&#xfe91;&#xfe92;&#xfbff;&#xfee8;&#xfbff;&#xfeaa;" horiz-adv-x="2569" d="M-39 -50q0 18 45 50q42 28 85.5 56t86.5 55q116 78 171 147q33 37 66 90q29 48 48 82l62 128q28 57 33 61q25 35 40 32q15 -6 9 -32q-6 -12 -21 -54q-21 -58 -21 -96q0 -111 103 -154.5t191 3.5q39 22 86 81q36 46 93.5 84.5t116.5 14.5q22 -11 28 -11q41 0 77 29 q37 30 37 48q-10 10 -12 18q-12 27 -12 76q0 83 30 168q32 90 68 90q6 0 21.5 -46.5t42.5 -63.5t54 -21.5t63 -4.5q101 0 149 57q76 97 108 117q31 21 65.5 13.5t61.5 -7.5q23 3 54.5 29t31.5 55q-8 16 -9 24q-12 33 -12 61q0 84 36 179q28 79 61 126q18 24 29 33 q15 15 24 13q15 -7 15 -22l-9 -45q-8 -56 18.5 -101.5t93.5 -45.5q26 0 45 34q20 33 23 33q15 0 15 -36q0 -52 -24 -129q-17 -46 -29 -70q-49 -99 -108 -123q-37 -11 -84 -6q-33 6 -54 -24l-61 -81q-68 -78 -120 -74q-48 8 -82 -2.5t-59 -45.5q-12 -12 -80 -135 q-51 -85 -97 -112q-51 -26 -104.5 -23t-75.5 9q-29 -10 -61 -42.5t-65 -65.5t-39 -36q-29 -18 -62 -16q-27 10 -63 16t-62 -12t-37 -30q-31 -45 -62 -91.5t-61 -92.5q-57 -65 -102 -87q-48 -24 -109 -24q-98 0 -146.5 65t-68.5 146q-31 -58 -70 -112q-42 -60 -120 -93 l-123 -36l-95 -20q-58 -4 -67 0zM257 -1013q0 20 61 132t76 119q25 10 74 -37t74 -83q30 49 66.5 110t49.5 62q37 0 89 -54.5t55 -102.5q0 -57 -56 -135q-54 -77 -79 -77q-17 0 -60.5 43.5t-76.5 67.5q-81 -163 -129 -163q-12 0 -34 19q-21 18 -65.5 54t-44.5 45zM988 1520 q0 33 53 138t69 113q32 14 91.5 -49.5t63.5 -99.5q0 -47 -50 -136.5t-72 -89.5q-9 0 -59 34.5t-75 54.5q-21 18 -21 35zM1061 -853q0 20 61 132t76 119q25 10 74 -37t74 -83q30 49 66.5 110t49.5 62q37 0 89 -54.5t55 -102.5q0 -57 -56 -135q-54 -77 -79 -77 q-17 0 -60.5 43.5t-76.5 67.5q-81 -163 -129 -163q-12 0 -34 19q-21 18 -65.5 54t-44.5 45zM1773 -267q0 33 53 138t69 113q32 14 91.5 -49.5t63.5 -99.5q0 -47 -50 -136.5t-72 -89.5q-9 0 -59 34.5t-75 54.5q-21 18 -21 35zM2265 6q0 33 53 138t69 113q32 14 91.5 -49.5 t63.5 -99.5q0 -47 -50 -136.5t-72 -89.5q-9 0 -59 34.5t-75 54.5q-21 18 -21 35z" />
<glyph unicode="&#xfb58;&#xfbff;&#xfeb8;&#xfe92;&#xfeae;" horiz-adv-x="2560" d="M-464 -593q-6 8 12 27q14 17 86 74l92 62t89 61q122 91 264 249q78 79 173 217q19 29 38.5 57.5t37.5 56.5q143 207 173 240q114 141 244 227q180 129 354 129l86 -3q25 0 40 1q24 3 51 27q21 18 90 95q45 51 60 58q9 3 29 -1q21 -5 30 -2q33 12 69 62q7 13 16 27.5 t18 27.5q9 3 41 3q16 0 34 8q20 7 41 48q19 42 25 42q36 -3 53 -3q25 7 39 15q24 12 24 33q0 6 -6 21q-15 37 -15 73q0 111 67 255q20 44 48 80q29 33 38 31q10 -4 4 -36q-7 -36 -7 -57v-5v-8q0 -5 3 -26v6q18 -102 114 -102q27 0 46 35q17 33 21 33q15 0 15 -36 q0 -60 -24 -129q-16 -47 -28 -71q-47 -94 -107 -121l-18 -6l-19 -3v1v-1q-35 -6 -62 9l-61 -68l-32 -31v-2q-19 -21 -39 -39q-7 -4 -14.5 -10t-13.5 -12q-35 -32 -65 -32q5 3 -31 -24q-14 -13 -27.5 -26t-25.5 -26q-15 -11 -33 -20q-24 -12 -40 -12l-30 -24 q-14 -13 -27.5 -26t-25.5 -26q-21 -14 -52 -26q-35 -12 -45 -21l-48 -39l-53 -55l-67 -86q-12 -12 -39 -42q-21 -24 -47 -34v-2q-24 -12 -64 -12h-47q-18 3 -40 3q-60 0 -110 -13q-46 -12 -120 -48q-111 -54 -255 -242q-15 -21 -156 -225q-100 -138 -213 -232 q-64 -54 -208 -158q-84 -57 -134 -87q-60 -36 -136 -69q-5 -3 -38 -15q-25 -7 -42 0zM583 -291q0 33 53 138t69 113q32 14 91.5 -49.5t63.5 -99.5q0 -47 -50 -136.5t-72 -89.5q-9 0 -59 34.5t-75 54.5q-21 18 -21 35zM865 1630q0 18 64 135.5t79 119.5q24 0 75.5 -43.5 t69.5 -82.5q33 54 63 105q44 72 54 72q36 0 92 -51q54 -57 54 -105q0 -55 -54 -138q-56 -79 -80 -79q-19 0 -55 37q-50 53 -83 77q-82 -168 -129 -168q-10 0 -80 55.5t-70 65.5zM1002 2002q0 15 55.5 132t73.5 119q42 0 93 -51q51 -57 51 -110q0 -49 -47.5 -136t-69.5 -87 q-14 0 -60.5 41t-71 59t-24.5 33zM1258 -196q0 20 61 132t76 119q25 10 74 -37t74 -83q30 49 66.5 110t49.5 62q37 0 89 -54.5t55 -102.5q0 -57 -56 -135q-54 -77 -79 -77q-17 0 -60.5 43.5t-76.5 67.5q-81 -163 -129 -163q-12 0 -34 19q-21 18 -65.5 54t-44.5 45zM1996 277 q0 18 60.5 137t74.5 119q24 0 73.5 -44t65.5 -82q32 53 60 104q42 73 53 73q34 0 85 -51q53 -58 53 -106q0 -56 -53 -138q-51 -80 -75 -80q-18 0 -52 38q-48 52 -80 76q-78 -168 -123 -168q-10 0 -76 55.5t-66 66.5zM2137 -4q1 15 59.5 119.5t72.5 102.5q36 -3 78.5 -55.5 t39.5 -100.5q-3 -52 -49 -129q-48 -73 -66 -73q-12 1 -29 22q-22 23 -44 44t-42 39t-20 31z" />
<glyph unicode="&#xfe91;&#xfe92;&#xfbff;&#xfee8;&#xfbff;&#xfee2;" horiz-adv-x="2592" d="M-81 -1418q0 72 0.5 138t2.5 126q0 260 36 525q40 276 99 447q18 63 48 129q58 120 138 225q48 54 93 98q58 54 97 82l129 87l188 288l73 89q35 34 62 58q34 27 90 69q45 32 108 62q63 25 103 25q36 -1 61.5 -11.5t33.5 -6.5q27 2 55 41q30 36 30 51q-6 16 -9 25 q-12 32 -13.5 60.5t9 82.5t22 87.5t40 89t55.5 79.5q18 14 25 12q15 -7 15 -22l-9 -45q-9 -84 53 -126q43 -27 118 -27q90 0 141 58q96 102 119 117q27 18 61.5 13t64.5 -7q25 2 49 24q36 33 36 62l-9 24q-12 40 -12 61q0 86 38 179q13 37 27 64q10 23 33 62q18 24 28 34 q17 14 24 12q15 -7 15 -22l-9 -45q-6 -56 20.5 -103t93.5 -47q30 0 47 33q19 34 21 34q15 0 15 -37q0 -57 -24 -129q-14 -41 -29 -71q-46 -99 -106 -123q-27 -10 -87 -3q-32 6 -54 -24l-62 -81q-66 -79 -118.5 -73t-70.5 0q-42 -17 -90 -62q-28 -27 -64 -85 q-44 -74 -77 -105q-70 -66 -192 -59l-49 6q-32 6 -56 -24l-61 -84q-36 -46 -69 -67q-32 -21 -50 -21q-31 1 -64 15q-33 13 -54 13q-35 0 -83 -16q-39 -12 -105 -56q-61 -45 -85 -84l57 -24q6 -3 79 -42q65 -36 65 -91q0 -15 -9 -33q-74 -173 -176 -231q-36 -24 -211 -65 q-93 -22 -159 -55q-74 -36 -138 -80q-128 -94 -164 -177q-40 -102 -73 -243q-5 -19 -24 -141q-5 -36 -38 -360q-30 -319 -30 -373l-21 -432q0 -83 -15 -245q-12 -145 -28 -145q-20 -3 -20.5 114t-0.5 192v160v150zM365 -910q0 20 61 132t76 119q25 10 74 -37t74 -83 q30 49 66.5 110t49.5 62q37 0 89 -54.5t55 -102.5q0 -57 -56 -135q-54 -77 -79 -77q-17 0 -60.5 43.5t-76.5 67.5q-81 -163 -129 -163q-12 0 -34 19q-21 18 -65.5 54t-44.5 45zM886 1833q0 33 53 138t69 113q32 14 91.5 -49.5t63.5 -99.5q0 -47 -50 -136.5t-72 -89.5 q-9 0 -59 34.5t-75 54.5q-21 18 -21 35zM1207 -251q0 20 61 132t76 119q25 10 74 -37t74 -83q30 49 66.5 110t49.5 62q37 0 89 -54.5t55 -102.5q0 -57 -56 -135q-54 -77 -79 -77q-17 0 -60.5 43.5t-76.5 67.5q-81 -163 -129 -163q-12 0 -34 19q-21 18 -65.5 54t-44.5 45z M1878 381q0 33 53 138t69 113q32 14 91.5 -49.5t63.5 -99.5q0 -47 -50 -136.5t-72 -89.5q-9 0 -59 34.5t-75 54.5q-21 18 -21 35zM2281 626q0 33 53 138t69 113q32 14 91.5 -49.5t63.5 -99.5q0 -47 -50 -136.5t-72 -89.5q-9 0 -59 34.5t-75 54.5q-21 18 -21 35z" />
<glyph unicode="&#xfb58;&#xfbff;&#xfb7d;&#xfbff;&#xfeaa;" horiz-adv-x="2122" d="M-151 -932q0 -9 44 -45t65 -54q22 -19 34 -19q48 0 129 163q33 -24 76.5 -67.5t60.5 -43.5q24 0 78 77q56 77 56 134q-3 48 -55 102.5t-88 54.5q-13 -1 -49.5 -62t-66.5 -110q-25 36 -74 83t-74 37q-15 -7 -75.5 -118.5t-60.5 -131.5zM-68 -51q0 18 47 48q42 28 84.5 56 t87.5 55q116 78 171 147q35 40 66 91q35 57 48 81l62 129q31 59 34 62q23 36 39 30q15 -6 9 -30q-9 -18 -13.5 -32.5t-7.5 -23.5q-21 -55 -21 -96q0 -76 42 -118q5 -6 32 -23q52 -30 97 -30q87 0 123 20q36 21 86 81q31 40 84 76q52 35 88 35v-3v1q5 0 32 -7q18 -5 24 -5 q33 0 67 32q24 30 45 51q17 16 75 93q9 12 18 21h-12.5h-12.5t-36 3l-89 -3h-64q-8 0 -62 3q-40 4 -27 43q2 11 18 38q14 25 41 63q4 4 10 13l5 6q13 18 24.5 31.5t20.5 24.5q42 48 85 79q75 59 176 96q100 42 181 42q23 0 54 -12q12 -4 24 -11t26 -13q43 0 54 11 q10 10 51 78q18 31 36 31q15 0 9 -30q-8 -30 -15 -46q-53 -105 -95 -159q-46 -54 -88 -57h-2q-3 0 -76 27q-45 16 -77 16q-52 0 -130 -22q-78 -20 -146 -68q-16 -9 -43 -39l-26 -27l-0.5 -0.5l-0.5 -0.5q0 -11 24 -11q15 -1 43 -1q62 0 84 3q45 3 68 6q57 0 93 7 q15 5 30.5 8.5t29.5 8.5q6 4 9 -6q3 -6 3 -21q0 -18 -9 -44q-20 -45 -33 -55q-48 -32 -83 -68q-16 -16 -32.5 -33.5t-33.5 -36.5q-54 -57 -82 -93q-36 -45 -68 -81q-31 -38 -67 -59q-20 -9 -50 -3v3v-3l-46 8q-32 0 -51 -14q-20 -10 -35 -30q-31 -45 -62 -91.5t-61 -92.5 q-54 -63 -103 -87q-47 -24 -108 -24q-102 0 -149 67q-49 68 -63 123q0 5 -3 23q-9 -17 -19 -38q-15 -25 -51 -76q-47 -62 -120 -93l-123 -36l-96 -18q-59 -6 -68 0zM551 -1056q0 -11 62.5 -63.5t71.5 -52.5q43 0 117 159q30 -23 76 -72q32 -36 49 -36q23 0 71 76 q50 78 50 131q0 45 -50 100q-48 49 -80 49q-11 0 -51 -69q-26 -49 -57 -99q-15 36 -62 77.5t-69 41.5q-14 0 -71 -112.5t-57 -129.5zM684 -1323q0 -12 19 -29.5t40 -37.5t42 -41q16 -20 27 -21q17 0 63 69q44 73 46 122q3 46 -37 96t-74 53q-14 1 -69.5 -98t-56.5 -113z M1055 -619q0 -10 48 -48.5t70 -57.5q24 -20 36 -20q52 0 139 174q35 -26 81.5 -72.5t64.5 -46.5q27 0 85 83q60 83 60 144q-4 51 -59.5 109.5t-94.5 58.5q-14 -2 -53.5 -67t-71.5 -117q-26 38 -78.5 88.5t-79.5 39.5q-16 -8 -81.5 -127.5t-65.5 -140.5zM1627 150 q0 -11 64 -65t74 -54q44 0 120 163q31 -23 78 -74q33 -37 50 -37q24 0 73 78q52 80 52 135q0 46 -52 103q-49 50 -83 50q-10 0 -51 -72q-27 -49 -58 -101q-16 37 -64 80t-72 43q-13 0 -72 -116t-59 -133zM1764 -124q0 -13 19.5 -30.5t41 -37.5t42.5 -43q17 -20 29 -21 q17 0 64 71q44 75 47 125q3 47 -38 98t-76 54q-14 2 -71 -99.5t-58 -116.5z" />
<glyph unicode="&#xfb7c;&#xfeb8;&#xfee4;&#xfb95;&#xfbff;&#xfeae;" horiz-adv-x="2430" d="M-519 -656q-6 6 12 29q15 18 85 73q98 65 182 123q118 90 262 248q90 97 173 219q40 54 76 112q135 200 173 240q109 140 246 227q175 129 352 129q69 -5 86 -5q25 0 52 5q27 6 53 39q13 19 21 79l4 96q0 9 1 49t7 127q9 96 15 138q4 36 15.5 114t21.5 102q24 58 39 95.5 t23 54.5q60 133 88 174q8 3 12 -3q24 64 54 117q29 54 71 94q67 74 288 252q97 78 195.5 157t197.5 160q139 114 274 235q99 86 233 222q54 54 153 165q66 74 76 74v-17.5v-15.5q-19 -65 -114 -200q-111 -165 -223 -276q-99 -99 -212 -196q-72 -60 -120 -100.5t-73 -63.5 q-59 -49 -111.5 -91t-97.5 -77q-63 -48 -123.5 -95t-122.5 -92l-211 -165q-24 -20 -46 -37t-41 -34q-35 -24 -42 -24q0 -10 -5 -28l-54 -293q-10 -54 -16 -94.5t-11 -67.5q-7 -60 -7 -88q0 -65 1 -96q11 -63 38 -99q43 -57 130 -57q41 0 81 13q41 14 83 57q45 57 70 86 q20 28 39 39q18 10 21 18l2 1l-2 -1q20 43 42 84q20 39 47 75q52 64 120 120q90 70 163 70q33 0 51 -10l41 -23q64 0 135 92q15 -8 35 -11.5t43 9.5q24 14 42 45q3 3 12 16.5t12 19.5q13 -9 31 -9q24 0 52.5 19t73.5 77q20 24 65 83q-11 6 -18 6q-42 16 -78 27 q-36 12 -45 16q-41 15 -50 15q-43 0 -76 -46q-21 -27 -27 -33q-14 -14 -18 -9q-20 7 6 54q43 84 76 117q42 37 83 37q24 0 100 -27q77 -25 125 -25q33 0 64 13q32 12 42 23q11 9 21 3q9 -6 6 -27q-3 -23 -13 -57q-9 -35 -17 -44l-49 -37l-59 -56l-112 -126l-102 -112 l-39 -27q-24 -17 -48 -29l-47 -25l-38 -24t-35 -21q-35 -24 -66 -27q-33 -6 -81 -47q-11 -7 -32 -19q-18 -9 -51 -9q-16 0 -37 12q-45 31 -74 31q-46 0 -97 -36q-53 -33 -53 -81h-1h0.5h0.5q0 -31 53 -85q52 -54 52 -80q0 -42 -52 -97q-53 -56 -77 -56q-13 0 -55 18 q-47 20 -83 20q-46 0 -79 -41q-8 -6 -59 -91q-33 -53 -55 -84q-77 -95 -159 -95q-95 0 -146 77q-7 -5 -24 -26q-40 -60 -67 -96q-32 -42 -89 -99q-49 -49 -99 -81v2q-21 -12 -64 -12h-47q-36 3 -39 3q-64 0 -111 -15q-51 -14 -120 -47q-114 -58 -255 -243q-4 -7 -156 -223 q-99 -135 -211 -234q-75 -60 -209 -156q-75 -50 -133 -87q-59 -36 -137 -71q-7 -1 -16 -5.5t-23 -9.5q-27 -9 -40 0zM457 -596q0 -9 44.5 -45t65.5 -54q22 -19 34 -19q48 0 129 163q33 -24 76.5 -67.5t60.5 -43.5q25 0 79 77q56 78 56 135q-3 48 -55 102.5t-89 54.5 q-13 -1 -49.5 -62t-66.5 -110q-25 36 -74 83t-74 37q-15 -7 -76 -119t-61 -132zM1322 2513q0 -10 70 -65.5t80 -55.5q47 0 129 168q33 -24 83 -77q36 -37 55 -37q24 0 80 79q54 83 54 138q0 48 -54 105q-56 51 -92 51q-10 0 -54 -72q-30 -51 -63 -105q-18 39 -69.5 82.5 t-75.5 43.5q-15 -2 -79 -119.5t-64 -135.5zM1459 2885q0 -15 24.5 -33t71 -59t60.5 -41q22 0 69.5 87t47.5 136q0 53 -51 110q-51 51 -93 51q-18 -2 -73.5 -119t-55.5 -132zM1894 -80q0 -11 66 -66.5t76 -55.5q45 0 123 168q32 -24 80 -76q34 -38 52 -38q24 0 75 80 q53 82 53 138q0 48 -53 106q-51 51 -85 51q-11 0 -53 -73q-28 -51 -60 -104q-16 38 -65.5 82t-73.5 44q-14 0 -74.5 -119t-60.5 -137zM2035 -361q0 -13 20 -31t42 -39t44 -44q17 -21 29 -22q18 0 66 73q46 77 49 129q3 48 -39.5 100.5t-78.5 55.5q-14 2 -72.5 -102.5 t-59.5 -119.5zM2316 2712q7 16 19 49q26 38 168 171q72 66 141 119q69 51 87 51q-15 -42 -105 -129q-112 -114 -310 -261z" />
<glyph unicode="&#xfeb7;&#xfb95;&#xfe8e;" horiz-adv-x="1473" d="M145 403q0 78 30 276q32 209 54 338q26 142 45 250q20 117 42 170l102 213q14 9 15 4q3 -6 3 -24q0 -19 -4 -39q-3 -15 -6 -42q-5 -49 -66 -439q-18 -122 -28.5 -197.5t-15.5 -104.5q24 0 278 297q202 234 318.5 367.5t147.5 168.5q99 111 174 196.5t125 143.5 q207 245 337 453l27 41q18 15 8 -24q-26 -95 -29 -102q-37 -102 -111 -215q-46 -81 -138 -199q-106 -140 -247 -300q-5 -5 -167 -185q-52 -58 -104.5 -119t-103.5 -124l-185 -214l-166 -191h5l2 -1l224 -48q22 -6 44 -13t44 -11q98 -29 132 -29q36 0 108 87l50 71h20h25 q27 0 61 39q36 43 47 72q9 25 16 33q5 1 29 -2q21 -4 28 5q26 25 44 91q0 5 10 26q11 19 20 18q9 -5 9 -50q0 -90 -33 -156q-26 -46 -65 -88l-58 -50l-38 -34q-37 -48 -52 -57q-30 -12 -66 -29q-14 -7 -90 -85q-60 -62 -104 -62q-4 0 -67 27q-23 9 -44 9v2q-12 -3 -30 -71 q-15 -58 -28 -93q-71 -187 -104 -241q-99 -161 -256 -161q-108 0 -162 105q-56 102 -56 297zM292 529q0 -93 50 -144q39 -43 106 -43q104 0 167 69t63 136q0 56 -69 86q-65 28 -179 28q-58 0 -76 -9q-62 -28 -62 -123zM493 1817q0 -10 70 -65.5t80 -55.5q47 0 129 168 q33 -24 83 -77q36 -37 55 -37q24 0 80 79q54 83 54 138q0 48 -54 105q-56 51 -92 51q-10 0 -54 -72q-30 -51 -63 -105q-18 39 -69.5 82.5t-75.5 43.5q-15 -2 -79 -119.5t-64 -135.5zM630 2189q0 -15 24.5 -33t71 -59t60.5 -41q22 0 69.5 87t47.5 136q0 53 -51 110 q-51 51 -93 51q-18 -2 -73.5 -119t-55.5 -132zM1266 2065q3 12 5 25t5 26q24 44 146 192q75 89 123 137q60 60 78 61q-5 -37 -86 -141q-100 -135 -271 -300z" />
<glyph unicode="&#xfbfe;&#xfbff;&#xfeea;" horiz-adv-x="1339" d="M-12 -24q24 58 94 129q123 129 246 184q83 36 141 36q24 0 68 -18q36 -16 87.5 -20t87.5 16q27 13 65 46l36 30l36 30q39 27 71 25t68 -7q38 -3 101 110q15 25 21 25q12 2 12 -10q0 -9 -9 -48t-32 -90q-27 -57 -45 -83q-40 -55 -74.5 -62t-93.5 -8q-49 -3 -120 -74 q-57 -60 -85 -88q-50 -48 -80 -68q-52 -30 -126 -30q-48 0 -79 9q-57 14 -109.5 23.5t-109.5 -8.5q-35 -12 -64 -30.5t-64 -30.5q-55 -20 -43 12zM19 -973q0 -9 44.5 -45t65.5 -54q22 -19 34 -19q48 0 129 163q33 -24 76.5 -67.5t60.5 -43.5q25 0 79 77q56 78 56 135 q-3 48 -55 102.5t-89 54.5q-13 -1 -49.5 -62t-66.5 -110q-25 36 -74 83t-74 37q-15 -7 -76 -119t-61 -132zM749 -949q0 -9 44.5 -45t65.5 -54q22 -19 34 -19q48 0 129 163q33 -24 76.5 -67.5t60.5 -43.5q25 0 79 77q56 78 56 135q-3 48 -55 102.5t-89 54.5q-13 -1 -49.5 -62 t-66.5 -110q-25 36 -74 83t-74 37q-15 -7 -76 -119t-61 -132z" />
<glyph unicode="&#xfeb7;&#xfb91;&#xfeb4;&#xfe98;&#xfb95;&#xfbfd;" horiz-adv-x="3195" d="M157 -309q0 109 15 196q15 92 59 198q36 96 75 177q42 90 90 182q21 40 39.5 76t32.5 66q58 113 70 111q9 -7 9 -31q0 -39 -21 -83q-55 -126 -95.5 -216t-64.5 -147q-86 -198 -86 -309q0 -151 98 -229q90 -72 234 -72q180 0 325 91q140 89 197 257q1 18 -21 40 q-20 21 -90 66q-57 35 -62 41q-46 39 -46 103q0 32 37 129l95 191q34 63 55 105q33 67 41 100l3 62v2v4v1l9 159q7 84 27 168q16 92 28 129q24 81 38 111q19 54 73 144q11 9 20 5q6 -5 -5 -42q-22 -126 -31 -197q-30 -208 -30 -238v-3q0 -150 73 -215q54 -49 129 -49 q101 0 168 88q48 63 86 87q33 24 66 18q36 -12 39 -12q13 -6 25 -6q35 0 53 8q16 6 36 34q15 30 10 20q6 15 14 18q10 1 18 -3q7 -8 10 -9q33 -9 65 36q3 9 9 21q6 13 15 16q7 2 13 -1q5 -3 8 -5.5t6 -2.5q30 2 55 39l12 24q6 11 17 14q15 -6 33 -6l37 15v1q56 27 56 92 l3 108q0 42 13 154q12 110 32 222l34 108q17 53 42 120q48 120 62 144q9 6 15 2q3 -5 1 -32q-10 -61 -17.5 -112t-13.5 -92q-36 -223 -36 -276v-41.5v-49.5q4 -45 16 -83q17 -46 60 -76q42 -32 110 -32q88 0 147 53q73 67 99 76q15 3 37 2q18 -2 45 -2t39 9q36 24 56 68 q9 30 15 46q15 -3 43 -3q29 0 47 33q6 12 24 63q15 45 24 45q13 0 13 -27q0 -100 -60 -199q-63 -96 -124 -96q-41 -59 -47 -65q-42 -46 -73 -46q-33 6 -59 6q-19 0 -43 -12q-33 -14 -114 -123q-86 -110 -183 -110q-108 0 -155 95l-1 1q-18 -9 -36 -25l-71 -71v-0.5v-0.5 q-31 -32 -84 -53l-42 -18q-40 -25 -46 -30l-62 -28q-51 -27 -76 -39l-33 -12l-62 -47q-45 -34 -70 -25q-50 6 -69 0q-77 -26 -161 -170q-85 -144 -195 -144q-111 0 -168 96q-15 21 -22 42q-15 -3 -36 -42q-56 -91 -56 -117q0 -18 36 -45q41 -30 47 -34q43 -36 70 -72 q26 -41 26 -98q0 -73 -44 -226q-52 -191 -148 -342q-95 -147 -216 -239q-152 -115 -326 -115q-193 0 -292 121q-86 108 -86 287zM1141 2224q0 20 61 132t76 119q25 10 74 -37t74 -83q30 49 66.5 110t49.5 62q37 0 89 -54.5t55 -102.5q0 -57 -56 -135q-54 -77 -79 -77 q-17 0 -60.5 43.5t-76.5 67.5q-81 -163 -129 -163q-12 0 -34 19q-21 18 -65.5 54t-44.5 45zM1342 1524q27 75 56 123q31 57 70 96q59 64 288 252q179 139 393 315q158 130 276 235q134 120 231 222q30 32 68.5 72.5t84.5 94.5q66 73 78 73v-18v-16q-21 -60 -114 -200 q-114 -168 -225 -276q-45 -46 -99 -95t-112 -101q-72 -60 -119.5 -100.5t-74.5 -61.5q-103 -89 -208 -170q-63 -48 -124 -95t-122 -92l-212 -165q-22 -20 -44.5 -37t-42.5 -32q-42 -33 -48 -24zM2181 2433q4 12 8.5 24t9.5 25q33 44 169 173q66 61 141 117q66 51 86 51 q-12 -35 -104 -129q-121 -120 -310 -261zM2526 2124q25 70 55 121q32 57 71 96q67 72 288 252q99 77 196.5 156.5t196.5 158.5q133 111 270 237q91 86 243 234q231 221 231 227q0 -14 -8 -29q-9 -40 -57 -127q-45 -80 -84 -129q-39 -53 -105 -128q-78 -84 -91 -97 q-39 -39 -156 -144q-63 -56 -249 -215q-104 -88 -209 -169q-127 -101 -246 -188l-211 -165q-60 -48 -87 -69q-44 -31 -48 -22zM3016 3271q0 18 64 135.5t79 119.5q24 0 75.5 -43.5t69.5 -82.5q33 54 63 105q44 72 54 72q36 0 92 -51q54 -57 54 -105q0 -55 -54 -138 q-56 -79 -80 -79q-19 0 -55 37q-50 53 -83 77q-82 -168 -129 -168q-10 0 -80 55.5t-70 65.5zM3153 3643q0 15 55.5 132t73.5 119q42 0 93 -51q51 -57 51 -110q0 -49 -47.5 -136t-69.5 -87q-14 0 -60.5 41t-71 59t-24.5 33z" />
<glyph unicode="&#xfe91;&#xfee8;&#xfb95;&#xfe8e;" horiz-adv-x="1488" d="M160 403q0 59 30 275q32 208 54 337q18 108 45 251q18 114 42 171l102 211q12 9 15 5q3 -3 3 -24q0 -20 -4 -39q-3 -15 -6 -42q-2 -11 -18.5 -121t-47.5 -319q-41 -267 -44 -301q21 0 281 298q202 233 318.5 366.5t147.5 167.5q185 207 297 341q207 244 338 453 q18 40 28 40q2 -16 6 -24q-25 -94 -28 -102q-36 -99 -110 -214q-57 -95 -138 -200q-111 -142 -249 -301l-166 -183q-53 -59 -105.5 -119.5t-103.5 -123.5l-184 -215l-168 -190h1q194 -17 300 -47q116 -33 156 -58q18 0 36 15q12 10 56 61q33 42 72 75q36 29 75 36l64 -9 q23 0 42 24q5 5 59 87q15 24 21 24q13 0 13 -10q0 -3 -6 -36q-15 -53 -36 -101q-25 -57 -45 -82q-55 -83 -112 -75l-27 6q-33 0 -47 -6q-16 -8 -52 -39l-86 -99q-18 -26 -37 -38q-17 -15 -33 -12q-12 6 -22.5 12t-21.5 14q-42 21 -67 21q-12 0 -30 -71q-18 -69 -27 -90 q-77 -195 -105 -243q-102 -159 -258 -159q-108 0 -162 104q-56 105 -56 298zM307 528q0 -90 50 -143q39 -43 106 -43q105 0 168 69q63 67 63 135q0 54 -69 84q-72 30 -180 30q-58 0 -76 -9q-62 -30 -62 -123zM616 1878q0 -17 21 -35q25 -20 75 -54.5t59 -34.5q22 0 72 89.5 t50 136.5q-4 36 -63.5 99.5t-91.5 49.5q-16 -8 -69 -113t-53 -138zM1062 -93q0 -17 21 -35q25 -20 75 -54.5t59 -34.5q22 0 72 89.5t50 136.5q-4 36 -63.5 99.5t-91.5 49.5q-16 -8 -69 -113t-53 -138zM1072 1759q15 42 32 72q16 32 51 72q55 59 97 106t72 82q71 81 114 144 q8 -5 -9 -50q-6 -18 -22 -49q-54 -89 -203 -248q-34 -33 -67 -65t-65 -64z" />
<glyph unicode="&#x6be;&#xfee4;&#xfe98;&#xfe98;&#xfe8e;" horiz-adv-x="1921" d="M100 1646q0 20 61 132t76 119q25 10 74 -37t74 -83q30 49 66.5 110t49.5 62q37 0 89 -54.5t55 -102.5q0 -57 -56 -135q-54 -77 -79 -77q-17 0 -60.5 43.5t-76.5 67.5q-81 -163 -129 -163q-12 0 -34 19q-21 18 -65.5 54t-44.5 45zM121 325q0 29 35 320q31 273 54 435 q-2 -2 49 126q23 55 41.5 98.5t32.5 73.5q10 17 13 6q2 -7 -4 -49l-12 -80l-51 -375q-17 -112 -23 -196q-6 -111 -6 -120q2 -152 75 -218q56 -49 129 -49q102 0 170 90q52 67 84 87q34 22 64 16v2q32 -8 65 -9q30 3 57 34q22 29 22 45q-4 9 -11 34t-7 61q0 63 22 120t53 97 q20 26 39 26q9 0 9 -56q0 -21 16 -49.5t46 -41.5q27 -14 73 -14q35 0 68 12q36 11 70 48q-1 -1 62 71l46 49q29 77 57 134q48 94 102 157q48 56 99 93q45 35 98 35q34 0 85 -44q11 0 24 38q15 36 26 36q15 0 37 -27q24 -27 24 -59q0 -75 -48 -127q-49 -51 -90 -51 q-25 0 -61 25q-38 24 -65 24q-22 0 -46 -7q-15 -5 -50 -32q-67 -57 -67 -126l-2 -1h2q0 -33 55 -95q29 -31 29 -52q0 -36 -48 -84q-47 -48 -69 -48q-11 0 -47 15q-39 16 -76.5 21.5t-64.5 -39.5q-3 -6 -49 -78q-45 -72 -68 -95q-52 -52 -115 -52q-22 0 -35.5 4t-29.5 8 q-37 4 -55 -26l-62 -79q-67 -78 -117.5 -73.5t-68.5 -1.5q-76 -23 -160 -168q-86 -144 -195 -144q-111 0 -170 94q-58 95 -58 231h-1h-1zM839 1694q0 20 61 132t76 119q25 10 74 -37t74 -83q30 49 66.5 110t49.5 62q37 0 89 -54.5t55 -102.5q0 -57 -56 -135q-54 -77 -79 -77 q-17 0 -60.5 43.5t-76.5 67.5q-81 -163 -129 -163q-12 0 -34 19q-21 18 -65.5 54t-44.5 45zM1666 -66q0 105 93 297q92 187 126 183q-42 -84 -61 -126q-90 -152 -90 -240q0 -11 48 -30q48 -24 48 -84q0 -44 -27 -81q-26 -38 -62 -38q-42 0 -57 36q-18 38 -18 83z" />
<glyph unicode="&#xfee3;&#xfeb8;&#xfb91;&#xfefc;" horiz-adv-x="2290" d="M81 127q0 14 15 36q13 21 31 45q5 8 24 36q12 24 24 65q9 37 15 105q5 63 5 109v95q0 64 -3 99q0 139 40 301q23 93 92 296q6 19 15 22q10 0 10 -55q0 -6 -3 -90q-3 -41 -3 -77l-22 -388q0 -63 -12 -159q-15 -96 -38 -173q-36 -121 -94 -211q3 -6 24 -6h37q84 0 161 72 q76 72 109 174q8 28 15 93q6 57 6 109q0 90 -3 122q-3 61 -6 90q0 46 1 93.5t1 93.5q1 99 34 219q30 122 114 273q12 15 20 14q4 -5 0 -50q-6 -57 -9 -82q-17 -140 -17 -188l-1 -70q6 9 9 12q16 12 147 147q54 58 116 125.5t135.5 148t151 166t155.5 170.5q213 233 301 344 t99 111q10 3 6 -21q-14 -53 -47 -115t-105 -164t-181 -235t-603 -680q145 -24 222 -46t140 -37.5t91 -15.5q36 0 108 84q20 25 59 73q7 6 25 2q15 -5 23 -5l25 3q24 6 36 24q2 2 26 35q27 40 42 46q30 -9 52 -12q15 2 56 56l33 45q74 -19 108 43l73 141q21 41 86 108 q9 12 31.5 58t43.5 77q6 3 30 -16q25 -23 44.5 -56.5t33.5 -63.5q16 -36 16 -72q0 -44 -30.5 -93.5t-71 -58.5t-90 -1.5t-69.5 -8.5q-25 -18 -42 -50q-34 -58 -108 -139q-19 -20 -43 -35q-44 -28 -51 -34q-17 -11 -53 -38q-25 -21 -43 -28l-51 -21q-42 -33 -62 -50l-93 -51 q-10 -6 -61 -57q-72 -78 -123 -78q-5 0 -47 18t-63 18q-15 -1 -27 -61q-10 -41 -28 -95q-71 -183 -111 -246q-95 -144 -242 -144q-79 0 -135 63q-19 -66 -37 -118q-27 -74 -59 -126q-51 -81 -99 -129q-64 -60 -144 -60q-42 0 -75 18q-28 16 -60 48q-25 21 -30 25 q-22 18 -22 39zM475 1883q0 18 64 135.5t79 119.5q24 0 75.5 -43.5t69.5 -82.5q33 54 63 105q44 72 54 72q36 0 92 -51q54 -57 54 -105q0 -55 -54 -138q-56 -79 -80 -79q-19 0 -55 37q-50 53 -83 77q-82 -168 -129 -168q-10 0 -80 55.5t-70 65.5zM612 2255q0 15 55.5 132 t73.5 119q42 0 93 -51q51 -57 51 -110q0 -49 -47.5 -136t-69.5 -87q-14 0 -60.5 41t-71 59t-24.5 33zM675 877q0 -69 27 -114q40 -67 123 -67q97 0 160 69q63 70 63 130q0 68 -106 95q-62 16 -132 16q-54 0 -74 -9q-61 -28 -61 -120z" />
<glyph unicode="&#xfee3;&#xfee8;&#xfe98;&#xfed8;&#xfeaa;" horiz-adv-x="1966" d="M-120 -57q0 15 49 51q47 28 92 57.5t90 59.5q124 85 177 150q77 109 181 310q27 51 42 75q20 30 38 26q16 -3 9 -30q-11 -30 -21 -65q-24 -76 -24 -111q0 -73 51 -115q52 -44 123 -44q22 0 40 3l18 59q24 70 68 147q51 85 67 111q57 70 114 70q59 0 87 -52 q30 -54 30 -120q0 -30 -12 -75q-9 -41 -22 -81q22 -11 78 27q27 16 51 39q18 16 39 37l99 105q29 28 50.5 24.5t51.5 -18.5q33 -15 63 -15q16 0 42 35q25 36 25 48q-6 18 -10.5 41t-4.5 44q-2 110 65 243q15 30 34 60q14 20 27 35q15 13 28 8.5t13 -17.5l-11 -47 q-10 -64 12.5 -97t55.5 -30q10 18 18.5 35t17.5 32q18 27 33 27q16 0 42 -25q25 -29 25 -72q0 -51 -25 -120q-24 -71 -68 -129q-28 -39 -64 -56q-48 -19 -95 -9q-30 5 -52 -25l-65 -83q-58 -73 -97 -79q-15 -5 -51 9q-26 12 -58 10.5t-83 -42.5l-107 -94q-48 -35 -82 -47 q-32 -15 -56 -21l-49 -12q-21 -19 -39 -30q-81 -84 -167 -123q-85 -40 -153 -40q-57 0 -111 22q-49 20 -91 77q-26 34 -44 94q-3 -15 -41 -72t-68 -75q-29 -18 -77 -36l-126 -37l-99 -24q-31 -8 -49 -8q-17 0 -24 5zM239 1333q0 20 61 132t76 119q25 10 74 -37t74 -83 q30 49 66.5 110t49.5 62q37 0 89 -54.5t55 -102.5q0 -57 -56 -135q-54 -77 -79 -77q-17 0 -60.5 43.5t-76.5 67.5q-81 -163 -129 -163q-12 0 -34 19q-21 18 -65.5 54t-44.5 45zM825 408q0 -32 34 -47q32 -16 62 -16q33 0 75 30q43 30 43 43q0 45 -28 72q-30 26 -78 26 q-35 0 -71 -36q-37 -38 -37 -72zM908 1538q0 20 61 132t76 119q25 10 74 -37t74 -83q30 49 66.5 110t49.5 62q37 0 89 -54.5t55 -102.5q0 -57 -56 -135q-54 -77 -79 -77q-17 0 -60.5 43.5t-76.5 67.5q-81 -163 -129 -163q-12 0 -34 19q-21 18 -65.5 54t-44.5 45zM1602 1809 q0 33 53 138t69 113q32 14 91.5 -49.5t63.5 -99.5q0 -47 -50 -136.5t-72 -89.5q-9 0 -59 34.5t-75 54.5q-21 18 -21 35z" />
<glyph unicode="&#xfee7;&#xfe98;&#xfed8;&#xfe8e;" horiz-adv-x="1492" d="M130 325q0 30 35 321q37 312 55 435q3 9 48 125q51 121 74 172q4 8 7 10t6 -4q3 -7 -3 -49l-13 -80q-60 -486 -70 -583.5t-10 -106.5q0 -136 65 -202q57 -60 114 -53q7 0 15 29q4 13 25 67l54 116q93 172 179 172q54 0 84 -46q30 -47 30 -117q0 -38 -6 -92 q-5 -34 -14 -70q34 -1 69 19.5t69 65.5q119 152 153 179q37 30 75 27t42 -3q30 -1 41 18l42 82q25 39 40 38q14 -3 6.5 -44.5t-15.5 -59.5l-67 -160q-15 -33 -33 -47q-12 -10 -35 -15q-21 -3 -64 10.5t-95 -44.5l-87 -98q-81 -97 -156 -118q-19 -9 -35 -15t-29 -11 q-24 -9 -36 -18q-14 -9 -50 -40q-58 -68 -135 -101q-75 -34 -132 -34q-108 0 -175 90q-68 87 -68 235zM256 1715q0 20 61 132t76 119q25 10 74 -37t74 -83q30 49 66.5 110t49.5 62q37 0 89 -54.5t55 -102.5q0 -57 -56 -135q-54 -77 -79 -77q-17 0 -60.5 43.5t-76.5 67.5 q-81 -163 -129 -163q-12 0 -34 19q-21 18 -65.5 54t-44.5 45zM544 424q0 -31 33 -45q32 -13 60 -13q62 0 89 24q31 24 31 49q0 36 -31 59q-30 21 -74 21q-40 0 -73 -33q-35 -35 -35 -62zM698 1246q0 20 61 132t76 119q25 10 74 -37t74 -83q30 49 66.5 110t49.5 62 q37 0 89 -54.5t55 -102.5q0 -57 -56 -135q-54 -77 -79 -77q-17 0 -60.5 43.5t-76.5 67.5q-81 -163 -129 -163q-12 0 -34 19q-21 18 -65.5 54t-44.5 45zM1242 1772q0 33 53 138t69 113q32 14 91.5 -49.5t63.5 -99.5q0 -47 -50 -136.5t-72 -89.5q-9 0 -59 34.5t-75 54.5 q-21 18 -21 35z" />
<glyph unicode="&#xfbfe;&#xfbff;&#xfeb2;" horiz-adv-x="2133" d="M16 -233q0 108 26 242q28 135 54 207q62 162 97 226q29 53 47 53q12 0 7.5 -19.5t-16.5 -60.5q-23 -72 -62 -175q-19 -78 -34 -143q-17 -67 -17 -139q0 -185 113 -261q85 -59 237 -59q112 0 199 24q144 42 245 146q51 49 115 171q65 121 80 211q16 80 21 144q3 72 3 123 v123q0 54 12 81q12 30 52 30q30 -18 77 -18q60 0 94 33l38 38q6 0 21 -14q18 -12 37 -12q24 0 44.5 31t26.5 40q18 -9 37.5 -10t44.5 13q24 16 24 34q0 8 -6 21q-15 39 -15 74q0 109 68 253q21 44 48.5 78.5t36.5 32.5q14 -6 5 -36q-8 -36 -3.5 -79.5t31 -74t92.5 -30.5 q28 0 46 34q18 33 21 33q15 0 15 -36q0 -60 -24 -129q-15 -46 -28 -70q-47 -99 -107 -123q-18 -8 -49.5 -10.5t-59.5 4.5l-62 -68q-67 -77 -127 -88q-5 0 -26 -6l-58 -29q-14 -6 -29 -6h-22q-48 -37 -152 -64l-12 -108q-31 -204 -42 -245q-48 -204 -136 -369 q-120 -228 -276 -349q-167 -132 -380 -132q-181 0 -283 141q-89 127 -89 322zM860 -1027q0 -9 44.5 -45t65.5 -54q22 -19 34 -19q48 0 129 163q33 -24 76.5 -67.5t60.5 -43.5q25 0 79 77q56 78 56 135q-3 48 -55 102.5t-89 54.5q-13 -1 -49.5 -62t-66.5 -110q-25 36 -74 83 t-74 37q-15 -7 -76 -119t-61 -132zM1544 -831q0 -9 44.5 -45t65.5 -54q22 -19 34 -19q48 0 129 163q33 -24 76.5 -67.5t60.5 -43.5q25 0 79 77q56 78 56 135q-3 48 -55 102.5t-89 54.5q-13 -1 -49.5 -62t-66.5 -110q-25 36 -74 83t-74 37q-15 -7 -76 -119t-61 -132z" />
<glyph unicode="&#xfbfe;&#xfeb8;&#xfb95;&#xfe8e;" horiz-adv-x="1755" d="M129 402q0 78 30 276q31 208 54 337q24 143 45 251q18 114 42 171l102 211q17 28 22 5q3 -6 -15 -105q-1 -2 -66 -441q-19 -122 -29.5 -197t-13.5 -103q22 4 279 297q385 445 466 535q99 111 174 196.5t125 144.5q208 247 337 454q18 39 27 39q2 -6 3.5 -12.5t4.5 -11.5 q-26 -94 -29 -102q-37 -102 -111 -214q-46 -81 -138 -200q-85 -112 -247 -301q-5 -3 -167 -183q-52 -59 -104.5 -119.5t-103.5 -123.5l-185 -215l-168 -190q255 -56 337 -79t116 -23q35 0 108 87q39 48 59 73q10 5 25 2q18 -5 23 -5l25 3q23 3 36 23l12 18t14 18 q28 42 42 45q16 -3 52 -12q14 1 56 55l34 47q11 7 39 -14q37 3 48 35.5t11 51.5q0 11 -3 77v58q25 69 63.5 136t59.5 103q1 6 15 16q6 0 6 -58v-37v-37q0 -54 -8 -121q-7 -81 -64 -186q-59 -105 -113 -156q-16 -17 -43 -36q-14 -9 -26.5 -17.5t-24.5 -15.5q-45 -33 -53 -39 q-18 -15 -42 -27l-52 -23q-17 -13 -32.5 -24.5t-29.5 -23.5l-93 -52q-18 -12 -60 -59q-72 -76 -123 -76q-4 0 -47 19.5t-64 17.5q-12 -3 -30 -72q-22 -75 -28 -91q-69 -185 -104 -243q-103 -159 -258 -159q-108 0 -163 105q-54 103 -54 297zM276 528q0 -92 48 -144 q40 -44 108 -44q105 0 168 69t63 137q0 55 -69 85q-69 29 -180 29q-59 0 -77 -9q-61 -27 -61 -123zM463 1963q0 18 64 135.5t79 119.5q24 0 75.5 -43.5t69.5 -82.5q33 54 63 105q44 72 54 72q36 0 92 -51q54 -57 54 -105q0 -55 -54 -138q-56 -79 -80 -79q-19 0 -55 37 q-50 53 -83 77q-82 -168 -129 -168q-10 0 -80 55.5t-70 65.5zM600 2335q0 15 55.5 132t73.5 119q42 0 93 -51q51 -57 51 -110q0 -49 -47.5 -136t-69.5 -87q-14 0 -60.5 41t-71 59t-24.5 33zM1041 1759q12 35 30 72q13 26 88 109t134 151l114 144q9 -3 -3 -36t-29 -62 q-52 -88 -202 -249q-101 -97 -132 -129zM1076 7q0 20 61 132t76 119q25 10 74 -37t74 -83q30 49 66.5 110t49.5 62q37 0 89 -54.5t55 -102.5q0 -57 -56 -135q-54 -77 -79 -77q-17 0 -60.5 43.5t-76.5 67.5q-81 -163 -129 -163q-12 0 -34 19q-21 18 -65.5 54t-44.5 45z" />
<glyph unicode="&#xfb58;&#xfbff;&#xfeb8;&#xfbff;&#xfee6;" horiz-adv-x="2914" d="M82 -287q0 89 28.5 212t77.5 249.5t118 243.5q30 60 55 60q14 -7 9 -37q-9 -35 -30 -83q-21 -45 -34.5 -75.5t-40.5 -93t-48 -136.5t-21 -155q0 -134 93 -213q95 -81 257 -81q184 0 327 79q142 80 240 233q79 126 109 235q33 120 33 257l3 183q0 57 38 97q39 41 91 33h51 q68 0 102 18q0 -1 1 -2l1 -1v3q46 27 114.5 140.5t89.5 149.5q16 25 33 25q7 0 10 -4t2 -14q-6 -132 33 -168q39 -37 102 -37q66 0 156 79q49 42 82 50q12 1 44 0q42 -3 34 -3q41 0 63 33q21 30 32 43q39 -13 55 -6q35 11 54 44q15 27 26 36q31 -6 54.5 10.5t23.5 35.5 q0 6 -6 21q-15 38 -15 74q0 111 67 255q24 49 50.5 80.5t35.5 30.5q12 -5 4 -36q-18 -81 0 -134t101 -58q36 0 55 34q17 33 21 33q17 0 17 -36q0 -52 -26 -129q-12 -43 -27 -70q-49 -99 -108 -123q-60 -23 -99 0q-100 -119 -150 -135q-7 -2 -22 -8q-14 -4 -38 -27 q-33 -27 -36 -28q-16 -9 -37 -12q-17 -3 -35 -11q-27 -22 -54.5 -43t-54.5 -41q-29 3 -71 3q-37 0 -129 -121q-93 -123 -187 -123q-63 0 -102 34q-36 36 -50 68q-13 33 -21 33q-9 0 -24 -23q-36 -48 -46 -58l-21 -24v3l-1 -1.5l-1 -1.5q-25 -26 -54 -42q-27 -17 -66 -20 q-42 -7 -49 -24q-9 -18 -18 -85q-9 -68 -18 -122q-11 -60 -20 -90q-4 -19 -9.5 -41l-11.5 -46q-24 -81 -85 -226q-110 -251 -287 -411q-204 -188 -450 -188q-208 0 -307 129q-83 107 -83 300zM648 246q0 33 53 138t69 113q32 14 91.5 -49.5t63.5 -99.5q0 -47 -50 -136.5 t-72 -89.5q-9 0 -59 34.5t-75 54.5q-21 18 -21 35zM953 -895q0 20 61 132t76 119q25 10 74 -37t74 -83q30 49 66.5 110t49.5 62q37 0 89 -54.5t55 -102.5q0 -57 -56 -135q-54 -77 -79 -77q-17 0 -60.5 43.5t-76.5 67.5q-81 -163 -129 -163q-12 0 -34 19q-21 18 -65.5 54 t-44.5 45zM1583 1727q0 18 64 135.5t79 119.5q24 0 75.5 -43.5t69.5 -82.5q33 54 63 105q44 72 54 72q36 0 92 -51q54 -57 54 -105q0 -55 -54 -138q-56 -79 -80 -79q-19 0 -55 37q-50 53 -83 77q-82 -168 -129 -168q-10 0 -80 55.5t-70 65.5zM1684 -772q0 20 61 132t76 119 q25 10 74 -37t74 -83q30 49 66.5 110t49.5 62q37 0 89 -54.5t55 -102.5q0 -57 -56 -135q-54 -77 -79 -77q-17 0 -60.5 43.5t-76.5 67.5q-81 -163 -129 -163q-12 0 -34 19q-21 18 -65.5 54t-44.5 45zM1720 2099q0 15 55.5 132t73.5 119q42 0 93 -51q51 -57 51 -110 q0 -49 -47.5 -136t-69.5 -87q-14 0 -60.5 41t-71 59t-24.5 33zM2349 -120q0 18 60.5 137t74.5 119q24 0 73.5 -44t65.5 -82q32 53 60 104q42 73 53 73q34 0 85 -51q53 -58 53 -106q0 -56 -53 -138q-51 -80 -75 -80q-18 0 -52 38q-48 52 -80 76q-78 -168 -123 -168 q-10 0 -76 55.5t-66 66.5zM2490 -401q1 15 59.5 119.5t72.5 102.5q36 -3 78.5 -55.5t39.5 -100.5q-3 -52 -49 -129q-48 -73 -66 -73q-12 1 -29 22q-22 23 -44 44t-42 39t-20 31z" />
<glyph unicode="&#xfee7;&#xfbff;&#xfeb4;&#xfe98;&#xfee8;&#xfeaa;" horiz-adv-x="2619" d="M45 -53q0 18 45 50q43 27 86.5 54.5t85.5 54.5q117 80 171 147q35 41 66 92q36 55 48 81l62 129q33 57 34 61q24 35 39 30q17 -6 9 -30q-6 -19 -11 -32.5t-10 -22.5q-21 -57 -21 -95q0 -78 42 -120q11 -10 32 -21q52 -31 97 -31q84 0 123 19q42 23 86 83q36 39 85 75 q51 34 85 31t67 -4q30 1 49 24q38 33 38 61q-6 17 -9 24q-14 38 -14 62q0 76 38 178q3 6 27 65q3 4 34 61q11 15 27 33q17 15 26 14q15 -8 15 -23l-9 -45q-14 -151 144 -153q84 0 150 65q79 78 103 82q51 -6 84 -6q35 0 74 38q1 1 39 43q15 -16 37 -7q39 13 65 49 q21 30 30 47q28 -11 43 -6l18 9l2 -2v3q24 17 24 33q0 8 -6 23q-15 37 -15 73q0 111 67 255q21 47 50 80q28 33 36 30q12 -3 4 -35q-13 -69 5.5 -131t102.5 -61q27 0 47 33q18 35 21 35q15 0 15 -38q0 -57 -24 -129q-15 -46 -29 -70q-48 -98 -106 -123q-65 -20 -98 0 l-61 -68l-53 -49l-69 -36q-12 -6 -34 -21q-11 -9 -41 -39q-10 -8 -37 -12q-24 -3 -41 -14q-15 -10 -55 -45q-38 -34 -60 -39q-14 -4 -36 -1q-21 0 -44 4q-49 0 -151 -135q-101 -135 -203 -135l-48 8q-33 4 -55 -26l-62 -79q-78 -90 -166 -68q-27 8 -50 -13q-18 -12 -36 -30 q-30 -47 -60.5 -93.5t-62.5 -91.5q-58 -67 -102 -87q-49 -22 -109 -22q-101 0 -149 67q-46 68 -63 122q0 4 -3 22q-13 -27 -18 -37q-16 -29 -52 -77q-47 -64 -120 -91l-123 -38l-95 -18q-58 -7 -67 0zM759 1220q0 33 53 138t69 113q32 14 91.5 -49.5t63.5 -99.5 q0 -47 -50 -136.5t-72 -89.5q-9 0 -59 34.5t-75 54.5q-21 18 -21 35zM1226 1493q0 20 61 132t76 119q25 10 74 -37t74 -83q30 49 66.5 110t49.5 62q37 0 89 -54.5t55 -102.5q0 -57 -56 -135q-54 -77 -79 -77q-17 0 -60.5 43.5t-76.5 67.5q-81 -163 -129 -163q-12 0 -34 19 q-21 18 -65.5 54t-44.5 45zM2012 152q0 20 61 132t76 119q25 10 74 -37t74 -83q30 49 66.5 110t49.5 62q37 0 89 -54.5t55 -102.5q0 -57 -56 -135q-54 -77 -79 -77q-17 0 -60.5 43.5t-76.5 67.5q-81 -163 -129 -163q-12 0 -34 19q-21 18 -65.5 54t-44.5 45zM2380 2060 q0 33 53 138t69 113q32 14 91.5 -49.5t63.5 -99.5q0 -47 -50 -136.5t-72 -89.5q-9 0 -59 34.5t-75 54.5q-21 18 -21 35z" />
<glyph unicode="&#xfeb7;&#xfee8;&#xfbff;&#xfeaa;" horiz-adv-x="2205" d="M24 -50q0 18 45 50l86 56t86 55q113 78 173 147q37 46 66 90q13 25 25 45.5t21 35.5l62 130q25 48 34 60q24 35 39 32q15 -6 11 -32q-17 -36 -23 -54q-21 -64 -21 -96q0 -78 61 -124.5t110 -46.5q87 0 123 20q36 21 87 81q36 45 85 78t85 33q31 -6 64 -9q27 3 50 24 q37 36 37 61q-7 15 -9 26q-12 33 -12 61q0 83 36 177q6 23 27 65q6 15 35 61q6 12 27 35q13 15 25 12q15 -8 15 -21l-9 -47q-12 -70 33 -112q33 -38 92 -38q82 0 147 60q70 60 93 68q27 9 58 1q38 8 78 62q41 55 60 55q14 0 23 2q12 0 31 25q17 27 30 62q14 37 23 37 q3 -9 6 -33q4 -22 0 -45q-29 -112 -80 -165q-19 -21 -36 -33q-12 -6 -24 -12.5t-25 -15.5l-86 -89q-40 -25 -57 -25q-28 0 -43 -2q-23 -1 -47 -18q-22 -18 -63 -72q-33 -48 -66 -87q-76 -76 -147 -76l-49 6q-33 7 -56 -24l-61 -80q-65 -79 -119 -75l-46 6q-29 0 -50 -12 q-19 -10 -36 -30q-31 -45 -61 -91.5t-62 -92.5q-52 -62 -102 -89q-48 -22 -109 -22q-102 0 -149 67q-48 69 -63 123q0 6 -3 21q-13 -24 -26 -46.5t-44 -65.5q-42 -60 -120 -93l-123 -38l-95 -18q-58 -4 -67 0zM503 -1112q0 20 61 132t76 119q25 10 74 -37t74 -83 q30 49 66.5 110t49.5 62q37 0 89 -54.5t55 -102.5q0 -57 -56 -135q-54 -77 -79 -77q-17 0 -60.5 43.5t-76.5 67.5q-81 -163 -129 -163q-12 0 -34 19q-21 18 -65.5 54t-44.5 45zM1087 1571q0 33 53 138t69 113q32 14 91.5 -49.5t63.5 -99.5q0 -47 -50 -136.5t-72 -89.5 q-9 0 -59 34.5t-75 54.5q-21 18 -21 35zM1516 1832q0 18 64 135.5t79 119.5q24 0 75.5 -43.5t69.5 -82.5q33 54 63 105q44 72 54 72q36 0 92 -51q54 -57 54 -105q0 -55 -54 -138q-56 -79 -80 -79q-19 0 -55 37q-50 53 -83 77q-82 -168 -129 -168q-10 0 -80 55.5t-70 65.5z M1653 2204q0 15 55.5 132t73.5 119q42 0 93 -51q51 -57 51 -110q0 -49 -47.5 -136t-69.5 -87q-14 0 -60.5 41t-71 59t-24.5 33z" />
<glyph unicode="&#xfee7;&#xfeb8;&#xfb95;&#xfe8e;" horiz-adv-x="1614" d="M129 402q0 78 30 276q31 208 54 337q24 143 45 251q18 114 42 171l102 211q6 9 15 5q6 -6 4.5 -25t-12.5 -80q-1 -2 -66 -441q-19 -122 -29.5 -197t-13.5 -103q22 0 279 297q385 445 466 535q99 111 174 196.5t125 144.5q208 247 337 454q29 41 33.5 38t1.5 -23 q-26 -94 -29 -102q-37 -102 -111 -214q-46 -81 -138 -200q-85 -112 -247 -301q-5 -3 -167 -183q-52 -59 -104.5 -119.5t-103.5 -123.5l-185 -215l-168 -190q2 0 3.5 -1t4.5 -1l225 -48q22 -6 44 -12.5t44 -11.5q98 -28 132 -28q35 0 108 87q39 48 59 73q10 5 25 2 q18 -5 23 -5l25 3q23 3 36 23l12 18t14 18q28 42 42 45q16 -3 52 -12q14 1 56 55l34 47q14 0 39 -14l15 8q29 18 36 37q8 23 8 42q0 11 -3 77v58q25 69 63.5 136t59.5 103q1 6 15 16q6 0 6 -58v-37v-37q0 -54 -8 -121q-7 -81 -64 -186q-59 -105 -113 -156q-16 -17 -43 -36 q-14 -9 -26.5 -17.5t-24.5 -15.5q-45 -33 -53 -39q-18 -15 -42 -27l-52 -23q-17 -13 -32.5 -24.5t-29.5 -23.5l-93 -52q-18 -12 -60 -59q-72 -76 -123 -76q-4 0 -67 27q-23 9 -44 9v1q-12 -3 -30 -72q-22 -75 -28 -91q-69 -185 -104 -243q-103 -159 -258 -159 q-108 0 -163 105q-54 103 -54 297zM276 528q0 -92 48 -144q40 -44 108 -44q105 0 168 69t63 137q0 55 -69 85q-69 29 -180 29q-59 0 -77 -9q-61 -27 -61 -123zM463 1963q0 18 64 135.5t79 119.5q24 0 75.5 -43.5t69.5 -82.5q33 54 63 105q44 72 54 72q36 0 92 -51 q54 -57 54 -105q0 -55 -54 -138q-56 -79 -80 -79q-19 0 -55 37q-50 53 -83 77q-82 -168 -129 -168q-10 0 -80 55.5t-70 65.5zM600 2335q0 15 55.5 132t73.5 119q42 0 93 -51q51 -57 51 -110q0 -49 -47.5 -136t-69.5 -87q-14 0 -60.5 41t-71 59t-24.5 33zM1041 1759 q12 35 30 72q13 26 52 72q111 120 170 188q79 94 114 144q9 -3 -11 -50q-4 -19 -21 -48q-52 -88 -202 -249q-35 -33 -68 -65t-64 -64zM1371 2598q0 33 53 138t69 113q32 14 91.5 -49.5t63.5 -99.5q0 -47 -50 -136.5t-72 -89.5q-9 0 -59 34.5t-75 54.5q-21 18 -21 35z" />
<glyph unicode="&#xfe91;&#xfb59;&#xfbff;&#xfeee;" horiz-adv-x="1672" d="M16 -555q0 -8 43 -41t64 -50t33 -17q47 0 125 149q32 -22 74.5 -62t59.5 -40q24 0 76 71q55 71 55 123q-3 44 -53.5 94t-86.5 50q-13 -1 -48.5 -57t-64.5 -100q-24 32 -72 75t-72 34q-14 -6 -73.5 -108.5t-59.5 -120.5zM24 19q-3 6 28 27q23 12 41 24q-14 -9 115 69 q71 42 116 77q96 69 147 123q55 57 55 97q-12 -4 -34 -9q-27 -3 -48 -3q-56 9 -89 32q-49 28 -49 79q0 36 43.5 130t76.5 137q46 59 82 59q60 0 104 -44q55 -58 55 -120q3 -12 3 -55q24 9 56 39q34 31 165 175q27 24 48 22.5t53 -16.5t65 -15q15 0 41.5 34.5t26.5 48.5 q-6 13 -10.5 38t-4.5 49q0 82 36 177q1 6 30.5 69t57.5 90q15 15 26 13q15 -7 15 -22q-9 -23 -11 -47t2 -49q16 -101 112 -101q29 0 47 33q18 35 21 35q16 0 16 -38q0 -52 -25 -129q-12 -40 -27 -70q-51 -99 -108 -123q-20 -9 -37.5 -11.5t-48.5 9.5q-33 8 -52 -24l-65 -82 q-61 -75 -97 -80q-18 -4 -51 8q-32 13 -54 13v-1q-21 0 -71 -53l-97 -94q-41 -35 -77 -56q-10 -31 -7 -24q-6 -21 -23 -54q-6 -13 -9.5 -23t-8.5 -19q-7 -15 -30 -52q-24 -41 -51 -78q-54 -81 -79 -96q-23 -15 -80 -35q-19 -9 -108 -37l-165 -44q-30 -4 -42 -6q-24 -3 -25 3 zM711 -388q0 -10 64.5 -62.5t74.5 -52.5q44 0 120 159q31 -23 77 -72q34 -36 51 -36q24 0 73 76q52 77 52 130q0 45 -52 99q-49 49 -83 49q-10 0 -51 -69q-28 -48 -59 -98q-15 36 -63.5 77t-71.5 41q-14 0 -73 -112t-59 -129zM849 -652q0 -13 19.5 -30t41 -36.5t42.5 -41.5 q17 -20 28 -21q18 0 65 69q44 73 47 122q3 45 -38.5 94.5t-76.5 52.5q-13 2 -70 -96.5t-58 -112.5zM1350 -93q0 -17 21 -35q25 -20 75 -54.5t59 -34.5q22 0 72 89.5t50 136.5q-4 36 -63.5 99.5t-91.5 49.5q-16 -8 -69 -113t-53 -138z" />
<glyph unicode="&#xfee3;&#xfee8;&#xfe98;&#xfed8;&#xfede;" horiz-adv-x="2536" d="M48 -288q0 121 33 256q28 120 124 306q29 62 57 110q32 58 53 52q12 -7 1 -28q-4 -9 -43 -98q-60 -129 -77 -181q-43 -119 -43 -209q0 -169 132 -249q99 -60 249 -60q84 0 165 21q85 20 159 71q195 127 271 375q51 165 51 405q0 184 3 303.5t10 334t10 242.5q1 39 12 62 l123 261q9 12 13 12q5 0 5 -27q0 -29 -3 -53l-27 -357q0 -73 30 -123q46 -67 142 -67q20 0 23 33q1 31 13 66q2 12 22 51.5t34 59.5q52 81 102 124q51 50 88 50q65 0 96 -47q33 -45 33 -112q0 -42 -15 -95q-19 -58 -28 -81q34 0 87.5 31.5t206.5 186.5q30 30 49 25 q23 -6 54 -19q30 -15 63 -15q15 0 41 36q27 33 27 46q-6 14 -11.5 37t-5.5 50q0 78 38 177q18 45 27 65q6 13 34 61q12 20 27 35q17 13 26 12q15 -8 15 -21l-9 -47q-8 -78 16 -103.5t51 -25.5q15 35 35 68q16 28 33 28q18 0 42 -25q25 -29 25 -74q0 -49 -25 -118 q-24 -69 -68 -129q-27 -39 -64 -56q-24 -16 -95 -10q-30 6 -52 -24l-65 -83q-61 -75 -97 -81q-20 -3 -51 9q-32 14 -54 14q-35 -3 -86 -44l-106 -94q-50 -42 -108 -62q-39 -9 -114 -21q-83 -61 -167 -102q-90 -43 -165 -43q-39 0 -75 6q-28 7 -34 7h-1t-1 2l-9 -180 q0 -252 -73 -534q-53 -198 -144 -359q-245 -457 -648 -457q-195 0 -290 120q-97 120 -97 303zM791 2531q0 20 61 132t76 119q25 10 74 -37t74 -83q30 49 66.5 110t49.5 62q37 0 89 -54.5t55 -102.5q0 -57 -56 -135q-54 -77 -79 -77q-17 0 -60.5 43.5t-76.5 67.5 q-81 -163 -129 -163q-12 0 -34 19q-21 18 -65.5 54t-44.5 45zM1576 2546q0 20 61 132t76 119q25 10 74 -37t74 -83q30 49 66.5 110t49.5 62q37 0 89 -54.5t55 -102.5q0 -57 -56 -135q-54 -77 -79 -77q-17 0 -60.5 43.5t-76.5 67.5q-81 -163 -129 -163q-12 0 -34 19 q-21 18 -65.5 54t-44.5 45zM1608 1182q0 -24 36 -47q36 -21 60 -21q39 0 79 27q41 29 41 50q0 36 -26 61q-25 26 -67 26q-54 0 -89 -38q-34 -37 -34 -58zM2440 2591q0 33 53 138t69 113q32 14 91.5 -49.5t63.5 -99.5q0 -47 -50 -136.5t-72 -89.5q-9 0 -59 34.5t-75 54.5 q-21 18 -21 35z" />
<glyph unicode="&#xfbfe;&#xfbff;&#xfeb4;&#xfeea;" horiz-adv-x="1756" d="M37 -15q0 10 9 25q29 50 81 110q54 63 113 111q72 63 150 96q72 33 129 33q28 0 58 -12q78 -35 117 -35q50 0 104 38q117 79 129 79q13 0 37 -3q15 -1 36 -12q39 0 78 27q17 14 33 38q15 24 24 24q23 -18 44 -18q45 0 70 55q14 30 23 30q12 -12 36 -12q22 0 46 15 q24 18 24 33q0 2 -6 23q-16 40 -16 73q0 110 67 254q23 48 50 81q25 33 37 30q11 -2 5 -35q-8 -27 -8 -57v-5v-8q0 -15 3 -26v5q17 -101 114 -101q27 0 45 33q20 35 23 35q15 0 15 -38q0 -49 -24 -129q-14 -40 -29 -70q-51 -98 -108 -123l-18 -6l-18 -3v3v-3q-31 -6 -61 9 l-62 -68l-33 -33h-1l-36 -30q-23 -6 -56 -15l-88 -61q-48 -14 -95 -38q3 3 -37 -28q-35 -27 -50 -32q-13 -4 -36 -4q-42 3 -40 3q-53 0 -89 -27q-79 -87 -129 -135q-84 -81 -193 -81q-32 0 -86 30q-55 28 -93 28q-69 0 -109 -16q-47 -15 -84 -42q-9 -6 -18 -13.5t-18 -15.5 q-18 -13 -38 -13q-21 0 -21 27zM455 -715q0 -9 44.5 -45t65.5 -54q22 -19 34 -19q48 0 129 163q33 -24 76.5 -67.5t60.5 -43.5q25 0 79 77q56 78 56 135q-3 48 -55 102.5t-89 54.5q-13 -1 -49.5 -62t-66.5 -110q-25 36 -74 83t-74 37q-15 -7 -76 -119t-61 -132zM1202 -523 q0 -9 44.5 -45t65.5 -54q22 -19 34 -19q48 0 129 163q33 -24 76.5 -67.5t60.5 -43.5q25 0 79 77q56 78 56 135q-3 48 -55 102.5t-89 54.5q-13 -1 -49.5 -62t-66.5 -110q-25 36 -74 83t-74 37q-15 -7 -76 -119t-61 -132z" />
<glyph unicode="&#xfee3;&#xfeb8;&#xfb91;&#xfede;" horiz-adv-x="2590" d="M51 -308q0 125 33 257q30 124 124 306q33 70 57 109q32 59 53 53q12 -8 1 -29q-4 -9 -43 -97q-59 -126 -77 -180q-43 -126 -43 -210q0 -170 132 -248q102 -61 249 -61q75 0 165 21q85 22 159 70q193 131 270 375q52 171 52 405q0 188 5 345q4 161 13 366v83q0 27 3 87 q3 40 14 60l121 261q8 12 14 12q4 0 4 -27q0 -41 -3 -53l-15 -150l-9 -121q167 166 261 270q104 112 290 345q103 124 199 264q62 85 117 175q9 12 56 110q4 12 14 30.5t22 42.5q22 -6 -9 -111q-27 -97 -54 -151q-60 -126 -225 -350q-161 -217 -285 -357q-42 -45 -82.5 -89 t-79.5 -88q-17 -19 -53 -52q63 -8 96 -42q36 -35 36 -111q0 -93 -28 -162q16 7 37 18q41 19 65 42q36 33 54 52q25 27 52 66q24 38 29 38q10 3 28 -6t24 -9q15 0 29 13q13 17 27 42q1 6 12 15q1 3 16 -1q14 -5 23 -5h9.5h9.5q9 2 20 17l10 24l15 27q9 1 17 0q4 -2 21 -12 q3 0 39 21v1q42 36 52 48l74 143q24 36 55 73q12 15 30 33q9 12 30 56q24 48 45 79q6 3 30 -16q23 -20 44 -51q21 -39 34 -69q17 -36 17 -72q0 -44 -30 -90q-32 -53 -66 -60q-36 -9 -45 -9q-33 1 -65 9q-31 6 -55 -11q-26 -22 -42 -51q-32 -52 -41 -61l-66 -77l-1 -1 q-36 -21 -45 -27l-47 -27q-27 -14 -49 -18q-23 -6 -27 -11l-65 -42q-27 -16 -49 -22q-11 -5 -20.5 -7t-18.5 -5l-68 -56l-84 -54l-127 -61q-6 -2 -21 -8l-23 -13q-31 -21 -70 -29q-41 -9 -99 -9l-14 3l-12 -261q0 -243 -73 -534q-53 -198 -144 -358q-246 -456 -648 -456 q-194 0 -290 120q-97 117 -97 301zM1271 2167q0 18 64 135.5t79 119.5q24 0 75.5 -43.5t69.5 -82.5q33 54 63 105q44 72 54 72q36 0 92 -51q54 -57 54 -105q0 -55 -54 -138q-56 -79 -80 -79q-19 0 -55 37q-50 53 -83 77q-82 -168 -129 -168q-10 0 -80 55.5t-70 65.5z M1326 1125q0 -29 34 -47q32 -19 65 -19q48 0 82 30q38 30 38 70q0 24 -32 45q-31 23 -67 23q-47 0 -83 -32q-37 -31 -37 -70zM1408 2539q0 15 55.5 132t73.5 119q42 0 93 -51q51 -57 51 -110q0 -49 -47.5 -136t-69.5 -87q-14 0 -60.5 41t-71 59t-24.5 33z" />
<glyph unicode="&#xfe91;&#xfeb4;&#xfe98;&#xfb95;&#xfe8e;" horiz-adv-x="1888" d="M144 402q0 76 30 274q31 209 54 338q24 142 45 250q18 113 42 170l102 213q10 7 15 4q3 -6 3 -24q0 -19 -5 -39q-3 -15 -6 -42q-1 -10 -17.5 -120.5t-48.5 -320.5q-19 -121 -29.5 -196t-13.5 -104q21 0 280 297q203 233 318.5 366.5t146.5 167.5q185 207 299 342 q207 245 337 453q18 41 29 41q1 -15 6 -26q-27 -94 -29 -100q-34 -98 -109 -215q-47 -78 -140 -199q-85 -116 -247 -302q-2 -1 -167 -184q-84 -93 -208 -242l-185 -216l-168 -189l3 -1q186 -17 297 -45q111 -32 155 -59q19 0 37 15q12 11 56 62q33 42 72 75q33 28 75 36 q0 -2 1 -2v2q11 -5 20.5 -8t18.5 -4q14 -6 26 -6q39 0 52 7q17 6 29.5 25.5t17.5 27.5q6 15 13 19q11 2 17 -3l12 -9q31 -12 64 36q2 5 9 20q3 12 15 18q8 1 14 -2q4 -3 7 -5t6 -2q30 1 56 39q4 9 13 24q3 7 15 13q15 -6 33 -6l36 15q27 18 35 38q7 16 7 40q0 45 -3 78v57 q26 68 71 149q6 9 18.5 32t33.5 59q0 3 15 15q8 0 8 -57v-36.5v-38.5q0 -39 -9 -121q-8 -84 -65 -185q-52 -100 -80.5 -128l-28.5 -28q-35 -34 -83 -52l-43 -18q-14 -9 -25 -16.5t-22 -13.5l-61 -29q-20 -12 -39.5 -21.5t-37.5 -18.5l-33 -12l-61 -45q-47 -35 -71 -26v2 l-1 -2l-27 6q-33 0 -47 -6q-18 -7 -52 -40l-86 -98q-18 -24 -37 -39q-18 -13 -33 -10q-23 13 -44 24q-40 22 -67 22q-14 -6 -29 -70q-18 -65 -28 -90q-69 -183 -104 -243q-102 -159 -258 -159q-108 0 -162 103q-55 104 -55 299zM291 525q0 -89 49 -143q38 -42 107 -42 q105 0 168 69q63 68 63 135q0 54 -69 84q-69 29 -180 29q-59 0 -77 -9q-61 -29 -61 -123zM412 1865q0 -9 44.5 -45t65.5 -54q22 -19 34 -19q48 0 129 163q33 -24 76.5 -67.5t60.5 -43.5q25 0 79 77q56 78 56 135q-3 48 -55 102.5t-89 54.5q-13 -1 -49.5 -62t-66.5 -110 q-25 36 -74 83t-74 37q-15 -7 -76 -119t-61 -132zM1054 1756q12 35 30 74q14 25 53 72q111 120 169 187q71 83 113 143q10 -3 -9 -48q-6 -23 -21 -50q-53 -85 -203 -249q-34 -31 -67 -64zM1410 -130q0 -17 21 -35q25 -20 75 -54.5t59 -34.5q22 0 72 89.5t50 136.5 q-4 36 -63.5 99.5t-91.5 49.5q-16 -8 -69 -113t-53 -138z" />
<glyph unicode="&#xfb94;&#xfed4;&#xfe98;&#xfb95;&#xfeee;" horiz-adv-x="2337" d="M6 3q-3 4 28 25q45 27 41 24q3 3 115 69q74 44 116 78q105 77 148 122q54 58 54 99q-13 -8 -34 -9q-14 -3 -48 -3q-54 7 -89 30q-49 31 -49 79q0 38 67 182q17 43 53 87q46 57 82 57q63 0 105 -42q56 -62 56 -120q0 -5 0.5 -11t0.5 -12q90 87 117 219q11 48 17 95 q6 45 19 177q5 60 8.5 102.5t8.5 68.5q16 141 33 177l40 81l62 115q9 -12 12 -18q-3 -28 -15 -78q-12 -45 -30 -213q-20 -154 -20 -264v-4q0 -147 74 -215q57 -48 129 -48q102 0 169 89q50 64 84 87q33 22 61.5 19t53.5 -10.5t41.5 -6.5t25.5 5q10 2 10 18q-15 11 -17 25 t2 28q9 22 18 45.5t18 45.5q9 23 51 87q36 56 69 95q59 67 105 67q45 0 77 -40q30 -41 30 -104q0 -22 -5 -46q-6 -30 -37 -108q39 0 87 27.5t75 62.5q27 31 51 87q21 51 27 84q3 42 3 115l6 206v79q0 78 15 126l111 273q9 5 15 6q3 -9 3 -24q0 6 -3 -108q-11 -111 -11 -186 q-1 -45 -1 -88.5v-83.5q0 -87 -20 -200q-19 -121 -61 -213q-32 -66 -74 -121q-52 -77 -115 -132l-2 -2q-33 -31 -70 -48q-35 -13 -59 -18q-25 -4 -34 -4h-10h-5q-41 6 -60 6q-59 0 -117 -47q-9 -4 -59 -45q-49 -40 -94 -40q-84 13 -102 7q-77 -25 -162 -169 q-84 -144 -194 -144q-112 0 -169 96q-14 19 -21 39q-15 -27 -18 -33q-30 -45 -74 -96q-54 -59 -79 -81l-3.5 -3.5l-1.5 -1.5q-12 -66 -34.5 -122t-50.5 -101t-60.5 -78t-65.5 -54q-30 -18 -80 -35q-13 -4 -40 -14t-68 -23l-165 -42q-15 -5 -42 -6q-24 -6 -25 3zM667 2173 q0 -9 44.5 -45t65.5 -54q22 -19 34 -19q48 0 129 163q33 -24 76.5 -67.5t60.5 -43.5q25 0 79 77q56 78 56 135q-3 48 -55 102.5t-89 54.5q-13 -1 -49.5 -62t-66.5 -110q-25 36 -74 83t-74 37q-15 -7 -76 -119t-61 -132zM976 1701q27 75 56 123q28 54 70 94q68 74 288 252 q98 78 196 157t197 160q164 133 275 235q112 101 232 222q54 54 153 165q68 75 77 75v-18.5v-15.5q-18 -59 -113 -200q-114 -168 -225 -276q-99 -99 -211 -196q-72 -60 -120 -101.5t-74 -62.5q-58 -49 -110.5 -91t-97.5 -77q-63 -48 -124 -95t-122 -92l-212 -165 q-52 -44 -88 -69q-41 -35 -47 -24zM1567 1803q0 -17 21 -35q25 -20 75 -54.5t59 -34.5q22 0 72 89.5t50 136.5q-4 36 -63.5 99.5t-91.5 49.5q-16 -8 -69 -113t-53 -138zM1632 1192q0 -15 30 -34q31 -21 69 -21q36 0 70 27q33 24 33 40q0 29 -21 60q-24 30 -61 30 q-56 0 -93 -49q-11 -15 -27 -53zM1813 2610q8 16 20 49q25 38 168 171q85 78 141 119q69 51 87 51q-14 -38 -105 -129q-120 -120 -311 -261zM2247 2223q24 69 55 123q30 57 71 94q67 74 288 252q97 78 195.5 157t197.5 160q163 133 274 235q113 101 233 222q54 54 153 165 q67 75 76 75v-18.5v-15.5q-19 -60 -114 -200q-111 -165 -223 -276q-99 -99 -212 -196q-72 -60 -120 -101.5t-73 -62.5q-59 -49 -111.5 -91t-97.5 -77q-63 -48 -124.5 -95t-121.5 -92l-211 -167q-50 -37 -87 -69q-44 -33 -48 -22zM3084 3132q7 16 19 49q26 38 168 171 q72 66 141 119q69 51 87 51q-13 -38 -105 -129q-129 -129 -310 -261z" />
<glyph unicode="&#xfbfe;&#xfbff;&#xfeb4;&#xfee2;" horiz-adv-x="2296" d="M-60 -1350q0 72 0.5 138t2.5 126q0 265 37 525q35 262 98 447q18 67 49 129q60 129 138 225q33 43 92 97q61 59 99 83l129 87l187 288v1q-1 -1 45 59q9 10 21 23t26 26q91 93 193 149q102 57 179 57q22 0 54 -17q31 -18 46 -18q36 0 87 44q14 12 39 43q15 -13 35 -13 q24 6 37 16q15 11 36 30q21 33 33 50q18 -14 35 -9q31 3 50.5 16.5t19.5 31.5q0 7 -6 21q-15 39 -15 73q0 111 68 255q25 54 49 80q27 34 36 31q14 -4 5 -36q-8 -34 -8 -57v-3.5v-9.5q0 -5 3 -26v6q20 -102 114 -102q27 0 47 35q16 33 21 33q16 0 16 -36q0 -54 -25 -129 q-9 -30 -27 -71q-50 -97 -108 -123l-18 -6q-53 -9 -81 6l-62 -67l-33 -35l-43 -25q-54 -33 -80 -50l-37 -12q-21 -18 -33 -28q-44 -27 -87 -27q-21 0 -71 -44q-51 -43 -82 -43q-14 0 -35 10q-49 21 -76 21q-56 0 -95 -10q-46 -11 -96 -45q-13 -6 -60 -47q-34 -31 -43 -52 q30 -11 57 -24q-2 1 81 -42q64 -36 64 -92q0 -15 -9 -33q-76 -172 -175 -231q-39 -22 -212 -64q-88 -20 -160 -54q-86 -44 -138 -81q-128 -93 -162 -177q-47 -113 -74 -243q-9 -27 -25 -141q-8 -51 -36 -360q-32 -312 -32 -374l-21 -433q0 -99 -13 -243q-15 -147 -30 -147 q-8 67 -9 105q-12 154 -12 202v161.5v149.5zM1199 -211q0 -9 44.5 -45t65.5 -54q22 -19 34 -19q48 0 129 163q33 -24 76.5 -67.5t60.5 -43.5q25 0 79 77q56 78 56 135q-3 48 -55 102.5t-89 54.5q-13 -1 -49.5 -62t-66.5 -110q-25 36 -74 83t-74 37q-15 -7 -76 -119t-61 -132 zM1727 364q0 -9 44.5 -45t65.5 -54q22 -19 34 -19q48 0 129 163q33 -24 76.5 -67.5t60.5 -43.5q25 0 79 77q56 78 56 135q-3 48 -55 102.5t-89 54.5q-13 -1 -49.5 -62t-66.5 -110q-25 36 -74 83t-74 37q-15 -7 -76 -119t-61 -132z" />
</font>
</defs>
</svg>
