<?xml version="1.0" encoding="utf-8"?>
<!-- Generator: Adobe Illustrator 21.0.0, SVG Export Plug-In . SVG Version: 6.00 Build 0)  -->
<svg version="1.1" id="レイヤー_1" xmlns="http://www.w3.org/2000/svg" xmlns:xlink="http://www.w3.org/1999/xlink" x="0px"
	 y="0px" viewBox="0 0 530 100" enable-background="new 0 0 530 100" xml:space="preserve">
<g>
	<rect fill="none" width="530" height="100"/>
	<g>
		<path fill="#FFFFFF" d="M95.116,17.409c0.535,1.005,0.854,1.908,0.954,2.712s0.151,1.976,0.151,3.516v55.741
			c0,4.62-1.273,7.331-3.817,8.135c-1.272,0.401-2.879,0.603-4.82,0.603c-1.943,0-3.482-0.166-4.62-0.502
			c-1.14-0.334-2.009-0.736-2.611-1.205c-0.603-0.468-1.072-1.138-1.406-2.009c-0.336-1.138-0.502-2.878-0.502-5.223V45.531
			c-1.675,2.076-4.118,5.373-7.332,9.893s-5.257,7.349-6.126,8.486c-0.871,1.14-1.474,1.926-1.809,2.36
			c-0.335,0.437-1.154,1.039-2.46,1.809c-1.306,0.771-2.712,1.154-4.219,1.154c-1.506,0-2.88-0.352-4.117-1.055
			c-1.24-0.703-2.127-1.389-2.662-2.059l-0.804-1.104c-1.34-1.673-3.984-5.238-7.934-10.696c-3.952-5.457-6.094-8.387-6.428-8.788
			v33.847c0,1.541-0.051,2.695-0.151,3.465c-0.101,0.771-0.419,1.624-0.954,2.561c-1.004,1.809-3.615,2.712-7.834,2.712
			c-4.085,0-6.628-0.903-7.633-2.712c-0.536-0.937-0.854-1.808-0.954-2.611c-0.101-0.803-0.15-2.009-0.15-3.615V23.435
			c0-1.54,0.05-2.694,0.15-3.465c0.101-0.77,0.418-1.657,0.954-2.662c1.005-1.74,3.616-2.611,7.834-2.611
			c1.808,0,3.364,0.219,4.67,0.653c1.306,0.437,2.16,0.888,2.562,1.355l0.603,0.603l22.799,29.93
			C67.831,32.172,75.432,22.23,79.248,17.409c1.138-1.808,3.832-2.712,8.085-2.712C91.584,14.697,94.178,15.601,95.116,17.409z"/>
		<path fill="#FFFFFF" d="M170.442,17.308c0.668-1.07,1.64-1.808,2.912-2.209c1.271-0.402,2.862-0.603,4.771-0.603
			s3.431,0.168,4.57,0.502c1.138,0.336,2.009,0.737,2.611,1.205c0.603,0.469,1.037,1.172,1.306,2.109
			c0.401,1.139,0.603,2.879,0.603,5.223v30.331c0,8.838-2.746,16.873-8.235,24.104c-2.68,3.415-6.127,6.177-10.346,8.286
			c-4.218,2.108-8.888,3.163-14.01,3.163c-5.123,0-9.777-1.071-13.961-3.214c-4.186-2.142-7.583-4.954-10.194-8.437
			c-5.423-7.097-8.135-15.131-8.135-24.104v-30.23c0-1.607,0.05-2.795,0.15-3.565c0.101-0.77,0.418-1.657,0.954-2.662
			c0.535-1.004,1.439-1.707,2.712-2.108c1.271-0.402,2.979-0.603,5.122-0.603c2.143,0,3.85,0.2,5.122,0.603
			c1.271,0.401,2.143,1.104,2.611,2.108c0.804,1.541,1.205,3.65,1.205,6.328v30.13c0,4.085,1.005,7.969,3.014,11.65
			c1.004,1.876,2.511,3.382,4.52,4.52c2.009,1.14,4.384,1.708,7.131,1.708c4.887,0,8.537-1.809,10.947-5.424s3.615-7.8,3.615-12.555
			V22.833C169.438,20.221,169.771,18.38,170.442,17.308z"/>
		<path fill="#FFFFFF" d="M212.423,77.871c-1.742-2.143-2.611-4.067-2.611-5.775c0-1.707,1.439-3.967,4.318-6.779
			c1.673-1.606,3.448-2.41,5.323-2.41c1.874,0,4.485,1.675,7.834,5.021c0.938,1.14,2.275,2.228,4.018,3.265
			c1.74,1.039,3.348,1.557,4.821,1.557c6.227,0,9.34-2.544,9.34-7.633c0-1.54-0.854-2.828-2.561-3.867
			c-1.708-1.037-3.834-1.79-6.378-2.26c-2.546-0.468-5.29-1.221-8.235-2.26c-2.947-1.037-5.692-2.26-8.236-3.666
			c-2.545-1.406-4.67-3.631-6.377-6.679c-1.708-3.046-2.562-6.712-2.562-10.998c0-5.891,2.192-11.03,6.578-15.416
			c4.385-4.385,10.361-6.579,17.928-6.579c4.018,0,7.684,0.52,10.998,1.557c3.314,1.039,5.607,2.094,6.88,3.164l2.511,1.908
			c2.074,1.943,3.113,3.583,3.113,4.922c0,1.34-0.804,3.181-2.41,5.523c-2.277,3.349-4.62,5.021-7.03,5.021
			c-1.406,0-3.148-0.668-5.223-2.009c-0.201-0.133-0.587-0.468-1.155-1.004c-0.569-0.535-1.089-0.97-1.557-1.306
			c-1.406-0.869-3.198-1.306-5.373-1.306c-2.177,0-3.984,0.52-5.424,1.557c-1.44,1.039-2.159,2.478-2.159,4.318
			c0,1.843,0.854,3.332,2.561,4.47c1.708,1.14,3.833,1.908,6.378,2.31c2.544,0.402,5.323,1.022,8.336,1.858
			c3.014,0.838,5.791,1.858,8.336,3.063c2.544,1.205,4.671,3.299,6.378,6.277c1.707,2.979,2.562,6.646,2.562,10.997
			c0,4.354-0.871,8.186-2.611,11.5c-1.742,3.314-4.018,5.875-6.83,7.684c-5.423,3.55-11.216,5.322-17.375,5.322
			c-3.148,0-6.127-0.386-8.938-1.154c-2.812-0.77-5.09-1.724-6.83-2.862c-3.55-2.143-6.025-4.219-7.432-6.228L212.423,77.871z"/>
		<path fill="#FFFFFF" d="M334.05,17.308c0.668-1.07,1.64-1.808,2.912-2.209c1.271-0.402,2.862-0.603,4.771-0.603
			s3.431,0.168,4.57,0.502c1.138,0.336,2.009,0.737,2.611,1.205c0.603,0.469,1.037,1.172,1.306,2.109
			c0.401,1.139,0.603,2.879,0.603,5.223v30.331c0,8.838-2.746,16.873-8.235,24.104c-2.68,3.415-6.127,6.177-10.346,8.286
			c-4.218,2.108-8.888,3.163-14.01,3.163c-5.123,0-9.777-1.071-13.961-3.214c-4.186-2.142-7.583-4.954-10.194-8.437
			c-5.423-7.097-8.135-15.131-8.135-24.104v-30.23c0-1.607,0.05-2.795,0.15-3.565c0.101-0.77,0.418-1.657,0.954-2.662
			c0.535-1.004,1.439-1.707,2.712-2.108c1.271-0.402,2.979-0.603,5.122-0.603c2.143,0,3.85,0.2,5.122,0.603
			c1.271,0.401,2.143,1.104,2.611,2.108c0.804,1.541,1.205,3.65,1.205,6.328v30.13c0,4.085,1.005,7.969,3.014,11.65
			c1.004,1.876,2.511,3.382,4.52,4.52c2.009,1.14,4.384,1.708,7.131,1.708c4.887,0,8.537-1.809,10.947-5.424s3.615-7.8,3.615-12.555
			V22.833C333.045,20.221,333.379,18.38,334.05,17.308z"/>
		<path fill="#FFFFFF" d="M429.361,48.745c3.95,4.688,5.926,9.943,5.926,15.769c-0.135,6.695-2.428,12.303-6.88,16.822
			c-4.454,4.52-9.86,6.779-16.221,6.779h-26.414c-4.688,0-7.432-1.271-8.235-3.816c-0.402-1.138-0.603-2.878-0.603-5.223V23.334
			c0-1.607,0.05-2.777,0.15-3.516c0.101-0.735,0.418-1.606,0.954-2.611c0.937-1.808,3.548-2.711,7.834-2.711h25.31
			c6.159,0,11.314,2.144,15.467,6.428c4.352,4.353,6.528,9.575,6.528,15.668C433.178,41.011,431.905,45.063,429.361,48.745z
			 M417.51,63.508c0-1.606-0.185-2.878-0.552-3.816c-0.369-0.937-0.989-1.607-1.858-2.009c-1.34-0.535-3.214-0.804-5.624-0.804
			c-2.411,0-4.219-0.468-5.424-1.406c-1.205-0.937-1.808-2.862-1.808-5.774c0-2.913,0.618-4.837,1.857-5.775
			c1.238-0.937,3.298-1.406,6.177-1.406c2.678,0,4.284-0.702,4.821-2.108c0.201-0.736,0.302-1.941,0.302-3.616
			c0-1.673-0.553-2.845-1.657-3.515c-1.105-0.669-2.763-1.005-4.972-1.005h-14.062v38.065h16.472
			C415.401,70.338,417.51,68.062,417.51,63.508z"/>
		<path fill="#FFFFFF" d="M474.406,25.494c-0.502,0.972-1.391,1.657-2.662,2.059c-1.272,0.402-2.962,0.604-5.071,0.604
			s-3.801-0.201-5.072-0.604c-1.272-0.401-2.159-1.104-2.661-2.108c-0.503-1.005-0.804-1.892-0.904-2.662
			c-0.101-0.769-0.15-1.924-0.15-3.465c0-1.539,0.05-2.694,0.15-3.465c0.101-0.769,0.385-1.623,0.854-2.562
			c0.938-1.808,3.549-2.711,7.834-2.711c4.219,0,6.763,0.903,7.633,2.711c0.535,1.005,0.854,1.893,0.954,2.662
			c0.101,0.771,0.151,1.926,0.151,3.465c0,1.541-0.051,2.696-0.151,3.465C475.21,23.653,474.908,24.524,474.406,25.494z
			 M457.885,44.125c0-1.539,0.05-2.694,0.15-3.465c0.101-0.77,0.385-1.657,0.854-2.662c0.938-1.74,3.549-2.611,7.834-2.611
			c3.214,0,5.489,0.57,6.83,1.708c1.138,0.938,1.74,2.377,1.808,4.318c0.065,0.67,0.101,1.642,0.101,2.913v35.151
			c0,1.541-0.051,2.696-0.151,3.466c-0.1,0.771-0.419,1.657-0.954,2.661c-0.87,1.742-3.449,2.611-7.733,2.611
			c-4.218,0-6.796-0.904-7.733-2.712c-0.469-1.004-0.753-1.874-0.854-2.611c-0.101-0.735-0.15-1.908-0.15-3.515V44.125z"/>
		<path fill="#FFFFFF" d="M512.067,25.494c-0.502,0.972-1.391,1.657-2.662,2.059c-1.272,0.402-2.962,0.604-5.071,0.604
			s-3.801-0.201-5.072-0.604c-1.272-0.401-2.159-1.104-2.661-2.108c-0.503-1.005-0.804-1.892-0.904-2.662
			c-0.101-0.769-0.15-1.924-0.15-3.465c0-1.539,0.05-2.694,0.15-3.465c0.101-0.769,0.385-1.623,0.854-2.562
			c0.938-1.808,3.549-2.711,7.834-2.711c4.219,0,6.763,0.903,7.633,2.711c0.535,1.005,0.854,1.893,0.954,2.662
			c0.101,0.771,0.151,1.926,0.151,3.465c0,1.541-0.051,2.696-0.151,3.465C512.871,23.653,512.569,24.524,512.067,25.494z
			 M495.546,44.125c0-1.539,0.05-2.694,0.15-3.465c0.101-0.77,0.385-1.657,0.854-2.662c0.938-1.74,3.549-2.611,7.834-2.611
			c3.214,0,5.489,0.57,6.83,1.708c1.138,0.938,1.74,2.377,1.808,4.318c0.065,0.67,0.101,1.642,0.101,2.913v35.151
			c0,1.541-0.051,2.696-0.151,3.466c-0.1,0.771-0.419,1.657-0.954,2.661c-0.87,1.742-3.449,2.611-7.733,2.611
			c-4.218,0-6.796-0.904-7.733-2.712c-0.469-1.004-0.753-1.874-0.854-2.611c-0.101-0.735-0.15-1.908-0.15-3.515V44.125z"/>
	</g>
</g>
</svg>
