<?xml version="1.0" standalone="no"?>
<!DOCTYPE svg PUBLIC "-//W3C//DTD SVG 1.1//EN" "http://www.w3.org/Graphics/SVG/1.1/DTD/svg11.dtd" >
<svg xmlns="http://www.w3.org/2000/svg">
<metadata></metadata>
<defs>
<font id="thwar_faredbold" horiz-adv-x="1195" >
<font-face units-per-em="2048" ascent="1400" descent="-648" />
<missing-glyph horiz-adv-x="225" />
<glyph unicode="&#xfedf;&#xfee0;&#xfeea;" horiz-adv-x="2466" arabic-form="isolated" d="M69 -106v356q0 42 16.5 79.5t45 66t66.5 45t81 16.5h364v109q0 19 13 33t32 14h227q20 0 32.5 -14t12.5 -33v-393h406v786q0 12 9 21t21 9h252q13 0 22 -9t9 -21v-786h405v991q0 12 8.5 21t22.5 9h252q12 0 21.5 -9t9.5 -21v-1133q0 -14 -9.5 -22.5t-21.5 -8.5h-1993 v-106q0 -18 -14 -31.5t-34 -13.5h-209q-19 0 -33 13.5t-14 31.5zM377 173h281v131q0 3 -4 6t-8 3h-202q-27 0 -47 -18.5t-20 -44.5v-77zM1267 1256v123q8 13 20.5 18.5t26.5 5.5q15 0 28.5 -7t20.5 -19v-135q0 -26 16.5 -42.5t39.5 -16.5q25 0 41 16.5t16 42.5v137 q8 13 20.5 18.5t25.5 5.5h6q14 0 26 -5.5t20 -18.5v-137q0 -26 16.5 -42.5t38.5 -16.5q24 0 41 16.5t17 42.5v135q18 26 49 26q32 0 48 -24v-123q0 -33 -12.5 -61.5t-33.5 -49.5t-49 -33.5t-60 -12.5q-29 0 -55.5 12.5t-45.5 31.5q-23 -19 -50 -31.5t-59 -12.5 q-31 0 -58.5 12.5t-48.5 33.5t-33 49.5t-12 61.5zM1288 1523q0 12 10 12l436 73q7 0 12 -2t5 -7l7 -54q2 -3 -2 -7.5t-8 -6.5l-438 -71q-5 -2 -8.5 2.5t-3.5 7.5z" />
<glyph unicode="&#xfedf;&#xfe82;" horiz-adv-x="1204" arabic-form="isolated" d="M75 173h154q16 0 27.5 12t11.5 29v773h309v-773q0 -17 12.5 -29t30.5 -12h133q18 0 29.5 12t11.5 29v977h308v-953q0 -50 -18.5 -93t-51 -75.5t-75.5 -51t-92 -18.5h-733zM242 1102q1 11 1 28v31t3 13t11.5 0.5t25.5 -6.5q40 -12 78 -10t72 9t63.5 15.5t54.5 11.5 q19 3 28.5 2t13.5 -6.5t3.5 -15.5t-0.5 -25v-25v-39.5t-4.5 -14.5t-15.5 0.5t-34 5.5q-38 4 -73.5 -2t-68 -13t-63 -10t-59.5 7q-18 5 -25.5 11t-9.5 14t-1 19z" />
<glyph unicode="&#xfee0;&#xfe82;" horiz-adv-x="1362" arabic-form="final" d="M69 173h151q15 0 27 12t12 29v773h309v-773q0 -17 12.5 -29t30.5 -12h133q18 0 30.5 12t12.5 29v977h308v-953q0 -18 -3 -34t-6 -31h276q10 0 18.5 -8t8.5 -19v-120q0 -11 -8.5 -18.5t-18.5 -7.5h-1239zM234.5 1102q1.5 11 1.5 28v31t3 13t11.5 0.5t25.5 -6.5 q40 -12 77.5 -10t71.5 9t64 15.5t55 11.5q19 3 28.5 2t13.5 -6.5t3.5 -15.5t-0.5 -25v-25v-39.5t-4.5 -14.5t-15.5 0.5t-34 5.5q-38 4 -73 -2t-68 -13t-63.5 -10t-59.5 7q-18 5 -26 11t-10 14t-0.5 19z" />
<glyph unicode="&#xfedf;&#xfe84;" horiz-adv-x="1219" arabic-form="isolated" d="M85 173h151q17 0 29.5 12t12.5 29v678h309v-678q0 -17 11.5 -29t28.5 -12h133q18 0 30.5 12t12.5 29v977h309v-953q0 -50 -19 -93t-51.5 -75.5t-76 -51t-91.5 -18.5h-735zM285 987v63q0 10 6 15t15 5h40v94q0 19 4.5 24.5t26.5 5.5h200q9 0 14 -5.5t5 -13.5v-63 q0 -22 -19 -22h-109v-20h109q19 0 19 -20v-63q0 -19 -19 -19h-271q-9 0 -15 5t-6 14z" />
<glyph unicode="&#xfee0;&#xfe84;" horiz-adv-x="1364" arabic-form="final" d="M69 173h151q17 0 29.5 12t12.5 29l-2 678h308l2 -678q0 -17 12 -29t29 -12h133q18 0 30.5 12t12.5 29v977h309v-953q0 -18 -3.5 -34t-6.5 -31h278q11 0 18.5 -8t7.5 -19v-120q0 -11 -7.5 -18.5t-18.5 -7.5h-1241zM256 987v63q0 10 6.5 15t13.5 5h40v101q0 11 4.5 17 t18.5 6h210q8 0 13.5 -5.5t5.5 -13.5v-63q0 -10 -5.5 -16t-13.5 -6h-111v-20h111q8 0 13.5 -5t5.5 -15v-63q0 -9 -5.5 -14t-13.5 -5h-273q-7 0 -13.5 5t-6.5 14z" />
<glyph unicode="&#xfedf;&#xfe88;" horiz-adv-x="1202" arabic-form="isolated" d="M84 173h151q17 0 29 12t12 29v977h309v-977q0 -17 12.5 -29t30.5 -12h133q17 0 29 12t12 29v977h308v-953q0 -50 -18.5 -93t-51 -75.5t-75.5 -51t-92 -18.5h-733zM276 -219q0 19 20 19h40v103q0 9 5 15.5t16 6.5h211q8 0 14 -6t6 -13v-64q0 -8 -6 -13.5t-14 -5.5h-110 v-23h110q8 0 14 -5t6 -14v-64q0 -8 -6 -13t-14 -5h-272q-20 0 -20 18v64z" />
<glyph unicode="&#xfee0;&#xfe88;" horiz-adv-x="1364" arabic-form="final" d="M69 173h153q16 0 27.5 12t11.5 29v977h309v-977q0 -17 12.5 -29t30.5 -12h133q17 0 29 12t12 29v977h308v-953q0 -18 -2 -34t-7 -31h278q11 0 18 -8t7 -19v-120q0 -11 -7 -18.5t-18 -7.5h-1239zM261 -219q0 9 6 14t14 5h40v103q0 22 21 22h211q8 0 14 -6t6 -13v-64 q0 -8 -6 -13.5t-14 -5.5h-110v-23h110q8 0 14 -5t6 -14v-64q0 -8 -6 -13t-14 -5h-272q-8 0 -14 5t-6 13v64z" />
<glyph unicode="&#xfedf;&#xfe8e;" horiz-adv-x="1213" arabic-form="isolated" d="M99 173h151q17 0 29.5 12t12.5 29v977h308v-977q0 -17 12 -29t29 -12h134q17 0 29.5 12t12.5 29v977h309v-953q0 -50 -19 -93t-51 -75.5t-75.5 -51t-92.5 -18.5h-735z" />
<glyph unicode="&#xfee0;&#xfe8e;" horiz-adv-x="1365" arabic-form="final" d="M69 173h151q18 0 30 12t12 29v977h310v-977q0 -17 11.5 -29t27.5 -12h134q18 0 30.5 12t12.5 29v977h308v-953q0 -18 -3 -34t-6 -31h278q11 0 18 -8t7 -19v-120q0 -11 -7 -18.5t-18 -7.5h-1242z" />
<glyph unicode="&#xfe70;" horiz-adv-x="0" arabic-form="isolated" d="M-231 -20q0 12 10 12l436 73q7 0 12 -2t5 -7l7 -54q2 -3 -2 -7.5t-8 -6.5l-438 -71q-5 -2 -8.5 2.5t-3.5 7.5zM-231 121q0 14 10 14l436 71q7 0 12 -2t5 -8l7 -51q2 -6 -2 -10t-8 -6l-438 -70q-5 -2 -8.5 1.5t-3.5 7.5z" />
<glyph unicode="&#xfe74;" horiz-adv-x="0" arabic-form="isolated" d="M-227 -165q0 13 12 13l435 75q5 0 9.5 -4t4.5 -8l10 -52q0 -5 -3.5 -10t-8.5 -5l-436 -71q-6 -3 -9.5 1t-3.5 10zM-227 -306q0 13 12 13l435 73q5 0 9.5 -3t4.5 -8l10 -50q0 -5 -3.5 -10.5t-8.5 -5.5l-436 -73q-6 -2 -9.5 3t-3.5 12z" />
<glyph unicode="&#xfe76;" horiz-adv-x="0" arabic-form="isolated" d="M-231 -20q0 12 10 12l436 73q7 0 12 -2t5 -7l7 -54q2 -3 -2 -7.5t-8 -6.5l-438 -71q-5 -2 -8.5 2.5t-3.5 7.5z" />
<glyph unicode="&#xfe78;" horiz-adv-x="0" arabic-form="isolated" d="M-193 -31l158 79l-40 81q-13 21 -4 44.5t31 32.5l107 51l6 6q23 11 46.5 3t34.5 -32l48 -93q9 -23 1 -46.5t-30 -35.5l-285 -143zM-8.5 145.5q-1.5 -2.5 0.5 -8.5l32 -60l101 54l-29 58q-2 5 -12 5l-86 -44q-5 -2 -6.5 -4.5z" />
<glyph unicode="&#xfe7a;" horiz-adv-x="0" arabic-form="isolated" d="M-227 -165q0 13 12 13l435 75q5 0 9.5 -4t4.5 -8l10 -52q0 -5 -3.5 -10t-8.5 -5l-436 -71q-6 -3 -9.5 1t-3.5 10z" />
<glyph unicode="&#xfe7c;" horiz-adv-x="0" arabic-form="isolated" d="M-252 73v123q8 13 20.5 18.5t26.5 5.5q15 0 28.5 -7t20.5 -19v-135q0 -26 16.5 -42.5t39.5 -16.5q25 0 41 16.5t16 42.5v137q8 13 20.5 18.5t25.5 5.5h6q14 0 26 -5.5t20 -18.5v-137q0 -26 16.5 -42.5t38.5 -16.5q24 0 41 16.5t17 42.5v135q18 26 49 26q32 0 48 -24v-123 q0 -33 -12.5 -61.5t-33.5 -49.5t-49 -33.5t-60 -12.5q-29 0 -55.5 12.5t-45.5 31.5q-23 -19 -50 -31.5t-59 -12.5q-31 0 -58.5 12.5t-48.5 33.5t-33 49.5t-12 61.5z" />
<glyph unicode="&#xfe7e;" horiz-adv-x="0" arabic-form="isolated" d="M-152 54l104 175q6 11 25 11.5t42.5 -6.5t48.5 -19.5t43 -28t26 -32t-1 -31.5l-103 -177q-12 -12 -40 -9.5t-58.5 17t-56 40t-30.5 60.5zM-95 29q-2 -3 0.5 -11t10.5 -17t22 -16t36 -7q2 0 7.5 1.5t17.5 16t31 49t49 100.5q3 6 -7.5 17.5t-25 20.5t-28.5 13.5t-18 -2.5z " />
<glyph unicode="&#x621;" horiz-adv-x="793" arabic-form="isolated" d="M68 24v121q0 11 6.5 19t17.5 8h52v250q0 17 5 25t27 8h408q10 0 17 -7.5t7 -15.5v-86q0 -8 -7 -15t-17 -7h-184v-152h302q8 0 15 -8t7 -19v-121q0 -9 -7 -16.5t-15 -7.5h-610q-11 0 -17.5 7.5t-6.5 16.5z" />
<glyph unicode="&#x622;" horiz-adv-x="495" arabic-form="isolated" d="M70 1096.5q1 11.5 1 28.5v30t3.5 13t12 0.5t25.5 -6.5q40 -12 77.5 -10t71.5 9t64 15.5t55 11.5q19 3 28 1.5t12 -7t2.5 -15t-0.5 -24.5q0 -33 2 -49.5t-0.5 -22.5t-14 -4.5t-38.5 3.5q-39 4 -74 -2t-67.5 -12.5t-63 -9.5t-59.5 7q-18 5 -26 10.5t-10 13.5t-1 19.5z M93 31v921q0 12 9 21t23 9h250q12 0 21.5 -9t9.5 -21v-921q0 -14 -9.5 -22.5t-21.5 -8.5h-250q-14 0 -23 8.5t-9 22.5z" />
<glyph unicode="&#x622;" horiz-adv-x="703" arabic-form="final" d="M70 1102q1 11 1 28v31t3.5 13t12 0.5t25.5 -6.5q40 -12 78 -10t72.5 9t64 15.5t53.5 11.5q20 3 29.5 2t12.5 -6.5t2.5 -15.5t-0.5 -25v-25v-39.5t-4.5 -14.5t-15.5 0.5t-34 5.5q-38 4 -72.5 -2t-67 -13t-63 -10t-60.5 7q-18 5 -25.5 11t-10 14t-1.5 19zM94 31v926 q0 12 9.5 21t21.5 9h252q13 0 22 -9t9 -21v-784h295q10 0 17.5 -8t7.5 -19v-120q0 -11 -7.5 -18.5t-17.5 -7.5h-578q-12 0 -21.5 8.5t-9.5 22.5z" />
<glyph unicode="&#x623;" horiz-adv-x="449" arabic-form="isolated" d="M68 31v827q0 13 9 21t22 8h252q13 0 21 -8t8 -21v-827q0 -14 -8 -22.5t-21 -8.5h-252q-13 0 -22 8.5t-9 22.5zM71 982v63q0 9 5.5 14.5t13.5 5.5h40v40v1v63q0 8 4.5 13.5t12.5 5.5h85h129q8 0 13.5 -5.5t5.5 -13.5v-63q0 -10 -5.5 -15.5t-13.5 -5.5h-110v-20h110 q8 0 13.5 -5.5t5.5 -14.5v-63q0 -9 -5.5 -14t-13.5 -5h-271q-8 0 -13.5 5t-5.5 14z" />
<glyph unicode="&#x623;" horiz-adv-x="676" arabic-form="final" d="M69 31v832q0 12 9 20.5t21 8.5h252q13 0 22 -8.5t9 -20.5v-690h294q11 0 20 -8t9 -19v-120q0 -11 -9 -18.5t-20 -7.5h-577q-12 0 -21 8.5t-9 22.5zM71 987v63q0 20 16 20h43v40v2v63q0 19 18 19h85h128q9 0 14 -5.5t5 -13.5v-63q0 -22 -19 -22h-109v-20h109q19 0 19 -20 v-63q0 -19 -19 -19h-274q-16 0 -16 19z" />
<glyph unicode="&#x624;" horiz-adv-x="1019" arabic-form="isolated" d="M68 0v234q0 46 18 87t48.5 71.5t71.5 48t88 17.5h656v-520q0 -46 -17.5 -87t-48.5 -71.5t-72 -48t-87 -17.5h-657v156h551q11 0 18.5 8t7.5 18v75q0 13 -7.5 21t-18.5 8h-551zM338 579v70q0 10 6.5 15.5t12.5 5.5h47v117q0 8 6 15t16 7h232q10 0 16.5 -7t6.5 -15v-72 q0 -8 -6.5 -14t-16.5 -6h-118v-25h118q10 0 16.5 -5.5t6.5 -15.5v-70q0 -9 -6.5 -15.5t-16.5 -6.5h-301q-6 0 -12.5 6.5t-6.5 15.5zM372 199q0 -12 7 -19.5t18 -7.5h222q11 0 18.5 7.5t7.5 19.5v75q0 11 -7.5 20t-18.5 9h-222q-11 0 -18 -9t-7 -20v-75z" />
<glyph unicode="&#x624;" horiz-adv-x="1224" arabic-form="final" d="M69 0v236q0 46 18 87t49.5 72t73 48.5t88.5 17.5h659v-288h267q10 0 17.5 -8t7.5 -19v-120q0 -11 -7.5 -18.5t-17.5 -7.5h-267v-63q0 -46 -17.5 -87t-48.5 -71.5t-72 -48.5t-88 -18h-662v158h554q12 0 20 8t8 18v75q0 13 -8 21t-20 8h-554zM340 582v70q0 10 6.5 16 t14.5 6h45v117q0 9 6.5 15.5t17.5 6.5h235q9 0 15.5 -6.5t6.5 -15.5v-72q0 -8 -6.5 -14t-15.5 -6h-122v-25h122q9 0 15.5 -6t6.5 -16v-70q0 -9 -6.5 -15.5t-15.5 -6.5h-304q-8 0 -14.5 6.5t-6.5 15.5zM376 200q0 -12 6 -19.5t17 -7.5h227q10 0 17.5 7.5t7.5 19.5v76 q0 11 -7.5 19.5t-17.5 8.5h-227q-11 0 -17 -8.5t-6 -19.5v-76z" />
<glyph unicode="&#x625;" horiz-adv-x="449" arabic-form="isolated" d="M68 18v64q0 8 6 13t13 5h40v106q0 10 6 15t14 5h85h127q7 0 13 -5t6 -15v-66q0 -7 -6 -11t-13 -4h-108v-25h108q7 0 13 -5t6 -13v-64q0 -8 -6 -13t-13 -5h-272q-7 0 -13 5t-6 13zM68 330v828q0 12 8 21t21 9h252q13 0 22 -9t9 -21v-828q0 -13 -9 -22t-22 -9h-252 q-13 0 -21 9t-8 22z" />
<glyph unicode="&#x625;" horiz-adv-x="676" arabic-form="final" d="M69 31v1133q0 12 8 21t20 9h254q13 0 21 -9t8 -21v-991h296q11 0 19 -8t8 -19v-120q0 -11 -8 -18.5t-19 -7.5h-579q-12 0 -20 8.5t-8 22.5zM69 -219q0 9 5.5 14t12.5 5h41v40v2v64q0 8 6 13.5t14 5.5h83h130q7 0 13 -6t6 -13v-64q0 -8 -6 -13.5t-13 -5.5h-109v-23h109 q7 0 13 -5t6 -14v-64q0 -8 -6 -13t-13 -5h-274q-7 0 -12.5 5t-5.5 13v64z" />
<glyph unicode="&#x626;" horiz-adv-x="1657" arabic-form="isolated" d="M68 450v70q0 9 7 15t16 6h44v109q0 17 4.5 23t20.5 6h230q9 0 15 -6t6 -15v-72q0 -9 -6 -15t-15 -6h-118v-24h118q9 0 15 -6t6 -15v-70q0 -9 -6 -15t-15 -6h-299q-9 0 -16 6t-7 15zM87 -163v433q0 17 13 30t31 13h212q19 0 31.5 -13t12.5 -30v-389h515l-330 571h749 l268 -452h-322l-166 291h-124l225 -390q18 -26 22.5 -59t-4 -62t-31.5 -49t-60 -20h-786h-212q-16 0 -24 6.5t-13 14.5q-5 10 -7 22v83z" />
<glyph unicode="&#x626;" horiz-adv-x="1417" arabic-form="final" d="M69 452v71q0 9 6.5 15t15.5 6h45v110q0 17 4.5 23t20.5 6h231q9 0 15 -6t6 -15v-73q0 -9 -6 -15t-15 -6h-119v-24h119q9 0 15 -6t6 -15v-71q0 -9 -6 -15t-15 -6h-301q-9 0 -15.5 6t-6.5 15zM89 -247v518q0 17 13 30.5t31 13.5h212q18 0 31.5 -13.5t13.5 -30.5v-391h515 q-46 81 -91 162.5t-89 162.5q-9 17 -18.5 31t-17.5 30h49h222q16 0 24 -4t13 -11t10 -18t14 -24q10 -18 18.5 -26t21.5 -10.5t34 -1t58 1.5h264q11 0 18 -8t7 -19v-120q0 -11 -7 -18.5t-18 -7.5h-269l62 -99q18 -27 22.5 -60t-4.5 -62.5t-32 -49t-60 -19.5h-1003 q-18 0 -31 13t-13 30zM338 -492q0 30 11.5 56.5t31.5 46.5t46.5 31.5t56.5 11.5t57 -11.5t46.5 -31.5t31 -46.5t11.5 -56.5t-11.5 -56.5t-31 -46t-46.5 -30.5t-57 -11t-56.5 11t-46.5 30.5t-31.5 46t-11.5 56.5zM670 -492q0 30 11.5 56.5t31.5 46.5t47 31.5t57 11.5 t56 -11.5t45.5 -31.5t30.5 -46.5t11 -56.5t-11 -56.5t-30.5 -46t-45.5 -30.5t-56 -11t-57 11t-47 30.5t-31.5 46t-11.5 56.5z" />
<glyph unicode="&#x626;" horiz-adv-x="662" arabic-form="initial" d="M-25 26v120q0 11 6.5 19t18.5 8h267v258q0 12 8 21t22 9h247q13 0 22 -9t9 -21v-400q0 -13 -9 -22t-22 -9h-544q-12 0 -18.5 7.5t-6.5 18.5zM247 582v70q0 22 22 22h44v117q0 9 6.5 15.5t17.5 6.5h236q8 0 14 -6.5t6 -15.5v-72q0 -8 -6 -14t-14 -6h-123v-25h123 q8 0 14 -6t6 -16v-70q0 -9 -6 -15.5t-14 -6.5h-304q-10 0 -16 6.5t-6 15.5z" />
<glyph unicode="&#x626;" horiz-adv-x="841" arabic-form="medial" d="M-25 26v120q0 11 7 19t18 8h267v258q0 12 9 21t21 9h247q13 0 22 -9t9 -21v-258h266q11 0 18.5 -8t7.5 -19v-120q0 -11 -7.5 -18.5t-18.5 -7.5h-841q-11 0 -18 7.5t-7 18.5zM247 582v70q0 22 22 22h45v117q0 9 7 15.5t16 6.5h236q8 0 14 -6.5t6 -15.5v-72q0 -8 -6 -14 t-14 -6h-121v-25h121q8 0 14 -6t6 -16v-70q0 -9 -6 -15.5t-14 -6.5h-304q-10 0 -16 6.5t-6 15.5z" />
<glyph unicode="&#x627;" horiz-adv-x="449" arabic-form="isolated" d="M68 31v1127q0 12 9 21t22 9h251q12 0 21 -9t9 -21v-1127q0 -13 -9 -22t-21 -9h-251q-13 0 -22 9t-9 22z" />
<glyph unicode="&#x627;" horiz-adv-x="677" arabic-form="final" d="M69 31v1133q0 12 9 21t20 9h254q13 0 22 -9t9 -21v-991h294q11 0 18.5 -8t7.5 -19v-120q0 -11 -7.5 -18.5t-18.5 -7.5h-579q-11 0 -20 8.5t-9 22.5z" />
<glyph unicode="&#x628;" horiz-adv-x="1330" arabic-form="isolated" d="M68 31v398q0 12 10 20.5t21 8.5h246q12 0 21.5 -8.5t9.5 -20.5v-257h578v257q0 12 8.5 20.5t20.5 8.5h248q12 0 21 -8.5t9 -20.5v-398q0 -14 -9 -22.5t-21 -8.5h-1132q-11 0 -21 9t-10 22zM529 -220q0 -30 11.5 -56t31 -45.5t46 -30.5t56.5 -11t56 11t45.5 30.5t31 45.5 t11.5 56t-11.5 56.5t-31 46.5t-45.5 31.5t-56 11.5t-56.5 -11.5t-46 -31.5t-31 -46.5t-11.5 -56.5z" />
<glyph unicode="&#x628;" horiz-adv-x="1505" arabic-form="final" d="M69 31v400q0 12 9.5 21t21.5 9h247q12 0 21.5 -9t9.5 -21v-258h581v258q0 12 8.5 21t20.5 9h249q13 0 22 -9t9 -21v-258h237q11 0 19 -8t8 -19v-120q0 -11 -8 -18.5t-19 -7.5h-1405q-12 0 -21.5 9t-9.5 22zM531 -221q0 -30 11.5 -56.5t31.5 -46t46.5 -30.5t56.5 -11 t56.5 11t46.5 30.5t31.5 46t11.5 56.5t-11.5 56.5t-31.5 46.5t-46.5 31.5t-56.5 11.5t-56.5 -11.5t-46.5 -31.5t-31.5 -46.5t-11.5 -56.5z" />
<glyph unicode="&#x628;" horiz-adv-x="644" arabic-form="initial" d="M-26 26v120q0 11 7.5 19t18.5 8h266v258q0 12 9.5 21t21.5 9h247q12 0 21.5 -9t9.5 -21v-400q0 -13 -9.5 -22t-21.5 -9h-544q-11 0 -18.5 7.5t-7.5 18.5zM193 -221q0 -30 11.5 -56.5t31.5 -46t46.5 -30.5t56.5 -11t57 11t46.5 30.5t31 46t11.5 56.5t-11.5 56.5t-31 46.5 t-46.5 31.5t-57 11.5t-56.5 -11.5t-46.5 -31.5t-31.5 -46.5t-11.5 -56.5z" />
<glyph unicode="&#x628;" horiz-adv-x="842" arabic-form="medial" d="M-28 26v120q0 11 8 19t20 8h267v258q0 12 7.5 21t19.5 9h250q13 0 22 -9t9 -21v-258h267q11 0 18 -8t7 -19v-120q0 -11 -7 -18.5t-18 -7.5h-842q-12 0 -20 7.5t-8 18.5zM193 -221q0 -30 11.5 -56.5t31.5 -46t46.5 -30.5t56.5 -11t56.5 11t46 30.5t30.5 46t11 56.5 t-11 56.5t-30.5 46.5t-46 31.5t-56.5 11.5t-56.5 -11.5t-46.5 -31.5t-31.5 -46.5t-11.5 -56.5z" />
<glyph unicode="&#x629;" horiz-adv-x="1028" arabic-form="isolated" d="M68 0v249q0 42 16.5 79t45 65.5t66.5 45t81 16.5h650q14 0 23 -10.5t9 -22.5v-422h-891zM232 702q0 30 11.5 56.5t31.5 46t46.5 30.5t56.5 11t56 -11t45 -30.5t30 -46t11 -56.5q0 -29 -11 -55.5t-30 -46.5t-45 -31.5t-56 -11.5t-56.5 11.5t-46.5 31.5t-31.5 46.5 t-11.5 55.5zM375 172h280v131q0 2 -3.5 5t-8.5 3h-201q-27 0 -47 -18t-20 -44v-77zM589 702q0 30 11.5 56.5t31.5 46t46 30.5t56 11t56.5 -11t46.5 -30.5t31.5 -46t11.5 -56.5q0 -29 -11.5 -55.5t-31.5 -46.5t-46.5 -31.5t-56.5 -11.5t-56 11.5t-46 31.5t-31.5 46.5 t-11.5 55.5z" />
<glyph unicode="&#x629;" horiz-adv-x="1229" arabic-form="final" d="M69 -106v356q0 42 16.5 79.5t44.5 66t66 45t80 16.5h362v109q0 19 14 33t33 14h227q19 0 33 -14t14 -33q0 -100 -1 -197t-1 -196h272q11 0 19 -8t8 -19v-120q0 -11 -8 -18.5t-19 -7.5h-859v-106q0 -18 -14 -31.5t-31 -13.5h-211q-18 0 -31.5 13.5t-13.5 31.5zM269 848 q0 30 11.5 56t31.5 45.5t46.5 30.5t56.5 11t56 -11t45.5 -30.5t31 -45.5t11.5 -56t-11.5 -56.5t-31 -46.5t-45.5 -31.5t-56 -11.5t-56.5 11.5t-46.5 31.5t-31.5 46.5t-11.5 56.5zM375 173h281v131q0 3 -3.5 6t-9.5 3h-203q-26 0 -45.5 -18.5t-19.5 -44.5v-77zM627 848 q0 30 11.5 56t31 45.5t46.5 30.5t57 11t56.5 -11t46.5 -30.5t31.5 -45.5t11.5 -56t-11.5 -56.5t-31.5 -46.5t-46.5 -31.5t-56.5 -11.5t-57 11.5t-46.5 31.5t-31 46.5t-11.5 56.5z" />
<glyph unicode="&#x62a;" horiz-adv-x="1330" arabic-form="isolated" d="M68 31v398q0 12 10 20.5t21 8.5h246q12 0 21.5 -8.5t9.5 -20.5v-257h578v257q0 12 8.5 20.5t20.5 8.5h248q12 0 21 -8.5t9 -20.5v-398q0 -14 -9 -22.5t-21 -8.5h-1132q-11 0 -21 9t-10 22zM350 702q0 30 11.5 56.5t31 46t46.5 30.5t57 11t55.5 -11t45 -30.5t30.5 -46 t11 -56.5q0 -29 -11 -55.5t-30.5 -46.5t-45 -31.5t-55.5 -11.5t-57 11.5t-46.5 31.5t-31 46.5t-11.5 55.5zM707 702q0 30 11 56.5t30.5 46t45 30.5t55.5 11t56.5 -11t46 -30.5t31 -46t11.5 -56.5q0 -29 -11.5 -55.5t-31 -46.5t-46 -31.5t-56.5 -11.5t-55.5 11.5t-45 31.5 t-30.5 46.5t-11 55.5z" />
<glyph unicode="&#x62a;" horiz-adv-x="1505" arabic-form="final" d="M69 31v400q0 12 9.5 21t21.5 9h247q12 0 21.5 -9t9.5 -21v-258h581v258q0 12 8.5 21t20.5 9h249q13 0 22 -9t9 -21v-258h237q11 0 19 -8t8 -19v-120q0 -11 -8 -18.5t-19 -7.5h-1405q-12 0 -21.5 9t-9.5 22zM352 706q0 30 11.5 56.5t31 46t46.5 30.5t57 11t56 -11 t45.5 -30.5t31 -46t11.5 -56.5t-11.5 -56.5t-31 -46.5t-45.5 -31.5t-56 -11.5t-57 11.5t-46.5 31.5t-31 46.5t-11.5 56.5zM710 706q0 30 11 56.5t30.5 46t45.5 30.5t56 11t57 -11t46.5 -30.5t31 -46t11.5 -56.5t-11.5 -56.5t-31 -46.5t-46.5 -31.5t-57 -11.5t-56 11.5 t-45.5 31.5t-30.5 46.5t-11 56.5z" />
<glyph unicode="&#x62a;" horiz-adv-x="730" arabic-form="initial" d="M-26 26v120q0 11 7.5 19t18.5 8h266v258q0 12 9.5 21t21.5 9h247q12 0 21.5 -9t9.5 -21v-400q0 -13 -9.5 -22t-21.5 -9h-544q-11 0 -18.5 7.5t-7.5 18.5zM14 706q0 30 11.5 56.5t31.5 46t46.5 30.5t56.5 11t56 -11t45.5 -30.5t31 -46t11.5 -56.5t-11.5 -56.5t-31 -46.5 t-45.5 -31.5t-56 -11.5t-56.5 11.5t-46.5 31.5t-31.5 46.5t-11.5 56.5zM373 706q0 30 11 56.5t30.5 46t45.5 30.5t56 11t56.5 -11t46 -30.5t31 -46t11.5 -56.5t-11.5 -56.5t-31 -46.5t-46 -31.5t-56.5 -11.5t-56 11.5t-45.5 31.5t-30.5 46.5t-11 56.5z" />
<glyph unicode="&#x62a;" horiz-adv-x="842" arabic-form="medial" d="M-28 26v120q0 11 8 19t20 8h267v258q0 12 7.5 21t19.5 9h250q13 0 22 -9t9 -21v-258h267q11 0 18 -8t7 -19v-120q0 -11 -7 -18.5t-18 -7.5h-842q-12 0 -20 7.5t-8 18.5zM15 706q0 30 11 56.5t30.5 46t46 30.5t56.5 11t56.5 -11t46.5 -30.5t31.5 -46t11.5 -56.5 t-11.5 -56.5t-31.5 -46.5t-46.5 -31.5t-56.5 -11.5t-56.5 11.5t-46 31.5t-30.5 46.5t-11 56.5zM370 706q0 30 11.5 56.5t31.5 46t46.5 30.5t56.5 11t57 -11t46.5 -30.5t31 -46t11.5 -56.5t-11.5 -56.5t-31 -46.5t-46.5 -31.5t-57 -11.5t-56.5 11.5t-46.5 31.5t-31.5 46.5 t-11.5 56.5z" />
<glyph unicode="&#x62b;" horiz-adv-x="1330" arabic-form="isolated" d="M68 31v398q0 12 10 20.5t21 8.5h246q12 0 21.5 -8.5t9.5 -20.5v-257h578v257q0 12 8.5 20.5t20.5 8.5h248q12 0 21 -8.5t9 -20.5v-398q0 -14 -9 -22.5t-21 -8.5h-1132q-11 0 -21 9t-10 22zM350 702q0 30 11.5 56.5t31 46t46.5 30.5t57 11t55.5 -11t45 -30.5t30.5 -46 t11 -56.5q0 -29 -11 -55.5t-30.5 -46.5t-45 -31.5t-55.5 -11.5t-57 11.5t-46.5 31.5t-31 46.5t-11.5 55.5zM529 1023q0 31 11.5 57.5t31 46t46 31t56.5 11.5t56 -11.5t45.5 -31t31 -46t11.5 -57.5q0 -30 -11.5 -55.5t-31 -45t-45.5 -30.5t-56 -11t-56.5 11t-46 30.5t-31 45 t-11.5 55.5zM707 702q0 30 11 56.5t30.5 46t45 30.5t55.5 11t56.5 -11t46 -30.5t31 -46t11.5 -56.5q0 -29 -11.5 -55.5t-31 -46.5t-46 -31.5t-56.5 -11.5t-55.5 11.5t-45 31.5t-30.5 46.5t-11 55.5z" />
<glyph unicode="&#x62b;" horiz-adv-x="1505" arabic-form="final" d="M69 31v400q0 12 9.5 21t21.5 9h247q12 0 21.5 -9t9.5 -21v-258h581v258q0 12 8.5 21t20.5 9h249q13 0 22 -9t9 -21v-258h237q11 0 19 -8t8 -19v-120q0 -11 -8 -18.5t-19 -7.5h-1405q-12 0 -21.5 9t-9.5 22zM352 706q0 30 11.5 56.5t31 46t46.5 30.5t57 11t56 -11 t45.5 -30.5t31 -46t11.5 -56.5t-11.5 -56.5t-31 -46.5t-45.5 -31.5t-56 -11.5t-57 11.5t-46.5 31.5t-31 46.5t-11.5 56.5zM531 1029q0 30 11.5 57t31.5 46.5t46.5 31t56.5 11.5t56.5 -11.5t46.5 -31t31.5 -46.5t11.5 -57t-11.5 -56t-31.5 -45.5t-46.5 -30.5t-56.5 -11 t-56.5 11t-46.5 30.5t-31.5 45.5t-11.5 56zM710 706q0 30 11 56.5t30.5 46t45.5 30.5t56 11t57 -11t46.5 -30.5t31 -46t11.5 -56.5t-11.5 -56.5t-31 -46.5t-46.5 -31.5t-57 -11.5t-56 11.5t-45.5 31.5t-30.5 46.5t-11 56.5z" />
<glyph unicode="&#x62b;" horiz-adv-x="730" arabic-form="initial" d="M-26 26v120q0 11 7.5 19t18.5 8h266v258q0 12 9.5 21t21.5 9h247q12 0 21.5 -9t9.5 -21v-400q0 -13 -9.5 -22t-21.5 -9h-544q-11 0 -18.5 7.5t-7.5 18.5zM14 706q0 30 11.5 56.5t31.5 46t46.5 30.5t56.5 11t56 -11t45.5 -30.5t31 -46t11.5 -56.5t-11.5 -56.5t-31 -46.5 t-45.5 -31.5t-56 -11.5t-56.5 11.5t-46.5 31.5t-31.5 46.5t-11.5 56.5zM193 1029q0 30 11.5 57t31.5 46.5t46.5 31t56.5 11.5t57 -11.5t46.5 -31t31 -46.5t11.5 -57t-11.5 -56t-31 -45.5t-46.5 -30.5t-57 -11t-56.5 11t-46.5 30.5t-31.5 45.5t-11.5 56zM373 706 q0 30 11 56.5t30.5 46t45.5 30.5t56 11t56.5 -11t46 -30.5t31 -46t11.5 -56.5t-11.5 -56.5t-31 -46.5t-46 -31.5t-56.5 -11.5t-56 11.5t-45.5 31.5t-30.5 46.5t-11 56.5z" />
<glyph unicode="&#x62b;" horiz-adv-x="842" arabic-form="medial" d="M-28 26v120q0 11 8 19t20 8h267v258q0 12 7.5 21t19.5 9h250q13 0 22 -9t9 -21v-258h267q11 0 18 -8t7 -19v-120q0 -11 -7 -18.5t-18 -7.5h-842q-12 0 -20 7.5t-8 18.5zM15 706q0 30 11 56.5t30.5 46t46 30.5t56.5 11t56.5 -11t46.5 -30.5t31.5 -46t11.5 -56.5 t-11.5 -56.5t-31.5 -46.5t-46.5 -31.5t-56.5 -11.5t-56.5 11.5t-46 31.5t-30.5 46.5t-11 56.5zM193 1029q0 30 11.5 57t31.5 46.5t46.5 31t56.5 11.5t56.5 -11.5t46 -31t30.5 -46.5t11 -57t-11 -56t-30.5 -45.5t-46 -30.5t-56.5 -11t-56.5 11t-46.5 30.5t-31.5 45.5 t-11.5 56zM370 706q0 30 11.5 56.5t31.5 46t46.5 30.5t56.5 11t57 -11t46.5 -30.5t31 -46t11.5 -56.5t-11.5 -56.5t-31 -46.5t-46.5 -31.5t-57 -11.5t-56.5 11.5t-46.5 31.5t-31.5 46.5t-11.5 56.5z" />
<glyph unicode="&#x62c;" horiz-adv-x="1028" arabic-form="isolated" d="M68 244q0 46 18 87.5t48.5 72t71 48.5t85.5 18h341v123h-564v171h674q35 2 74.5 -13t72 -40.5t53 -59.5t17.5 -70v-270h-533q-24 0 -41 -16.5t-17 -41.5v-338q0 -24 17 -41.5t41 -17.5h533v-155h-891v543zM458 59q0 30 11.5 56t31 46t45.5 31.5t56 11.5t56.5 -11.5 t46 -31.5t31 -46t11.5 -56t-11.5 -56.5t-31 -46.5t-46 -31.5t-56.5 -11.5t-56 11.5t-45.5 31.5t-31 46.5t-11.5 56.5z" />
<glyph unicode="&#x62c;" horiz-adv-x="1095" arabic-form="final" d="M69 245q0 47 17.5 88.5t48 72t71 48.5t86.5 18h344v124h-567v172h657q51 0 95 -12.5t76 -38.5t50 -66.5t19 -97.5v-380h129q11 0 20 -8t9 -19v-120q0 -11 -9 -18.5t-20 -7.5h-268q-12 0 -20.5 7.5t-8.5 18.5v287h-367q-26 0 -43.5 -16.5t-17.5 -42.5v-339 q0 -24 17.5 -41.5t43.5 -17.5h535v-157h-897v546zM440 59q0 30 11.5 56.5t31.5 46.5t47 31.5t57 11.5t56.5 -11.5t46.5 -31.5t31.5 -46.5t11.5 -56.5t-11.5 -56.5t-31.5 -46.5t-46.5 -31.5t-56.5 -11.5t-57 11.5t-47 31.5t-31.5 46.5t-11.5 56.5z" />
<glyph unicode="&#x62c;" horiz-adv-x="1251" arabic-form="initial" d="M-25 26v120q0 11 6.5 19t18.5 8h867v88q0 15 -10.5 25.5t-25.5 10.5h-555v155h702q42 0 79.5 -16t65 -44t43.5 -65.5t16 -79.5v-247h-1182q-12 0 -18.5 7.5t-6.5 18.5zM514 -221q0 -30 11.5 -56.5t31.5 -46t46.5 -30.5t56.5 -11t56 11t45.5 30.5t31 46t11.5 56.5 t-11.5 56.5t-31 46.5t-45.5 31.5t-56 11.5t-56.5 -11.5t-46.5 -31.5t-31.5 -46.5t-11.5 -56.5z" />
<glyph unicode="&#x62c;" horiz-adv-x="1423" arabic-form="medial" d="M-25 26v120q0 11 6.5 19t18.5 8h867v88q0 15 -11 25.5t-25 10.5h-555v155h702q42 0 79.5 -16t66 -44t45 -65.5t16.5 -79.5v-74h238q10 0 18 -8t8 -19v-120q0 -11 -8 -18.5t-18 -7.5h-1423q-11 0 -18 7.5t-7 18.5zM514 -221q0 -30 11.5 -56.5t31.5 -46t46.5 -30.5 t56.5 -11t56 11t45.5 30.5t30.5 46t11 56.5t-11 56.5t-30.5 46.5t-45.5 31.5t-56 11.5t-56.5 -11.5t-46.5 -31.5t-31.5 -46.5t-11.5 -56.5z" />
<glyph unicode="&#x62d;" horiz-adv-x="1028" arabic-form="isolated" d="M68 244q0 46 18 87.5t48.5 72t71 48.5t85.5 18h341v123h-564v171h674q35 2 74.5 -13t72 -40.5t53 -59.5t17.5 -70v-270h-533q-24 0 -41 -16.5t-17 -41.5v-338q0 -24 17 -41.5t41 -17.5h533v-155h-891v543z" />
<glyph unicode="&#x62d;" horiz-adv-x="1095" arabic-form="final" d="M69 245q0 47 17.5 88.5t48 72t71 48.5t86.5 18h344v124h-567v172h657q51 0 95 -12.5t76 -38.5t50 -66.5t19 -97.5v-380h129q11 0 20 -8t9 -19v-120q0 -11 -9 -18.5t-20 -7.5h-268q-12 0 -20.5 7.5t-8.5 18.5v287h-367q-26 0 -43.5 -16.5t-17.5 -42.5v-339 q0 -24 17.5 -41.5t43.5 -17.5h535v-157h-897v546z" />
<glyph unicode="&#x62d;" horiz-adv-x="1251" arabic-form="initial" d="M-25 26v120q0 11 6.5 19t18.5 8h867v88q0 15 -10.5 25.5t-25.5 10.5h-555v155h702q42 0 79.5 -16t65 -44t43.5 -65.5t16 -79.5v-247h-1182q-12 0 -18.5 7.5t-6.5 18.5z" />
<glyph unicode="&#x62d;" horiz-adv-x="1423" arabic-form="medial" d="M-25 26v120q0 11 6.5 19t18.5 8h867v88q0 15 -11 25.5t-25 10.5h-555v155h702q42 0 79.5 -16t66 -44t45 -65.5t16.5 -79.5v-74h238q10 0 18 -8t8 -19v-120q0 -11 -8 -18.5t-18 -7.5h-1423q-11 0 -18 7.5t-7 18.5z" />
<glyph unicode="&#x62e;" horiz-adv-x="1028" arabic-form="isolated" d="M68 244q0 46 18 87.5t48.5 72t71 48.5t85.5 18h341v123h-564v171h674q35 2 74.5 -13t72 -40.5t53 -59.5t17.5 -70v-270h-533q-24 0 -41 -16.5t-17 -41.5v-338q0 -24 17 -41.5t41 -17.5h533v-155h-891v543zM394 963q0 30 11 56t30.5 46t45.5 31.5t55 11.5q30 0 57 -11.5 t46.5 -31.5t31 -46t11.5 -56t-11.5 -56.5t-31 -46.5t-46.5 -31.5t-57 -11.5q-29 0 -55 11.5t-45.5 31.5t-30.5 46.5t-11 56.5z" />
<glyph unicode="&#x62e;" horiz-adv-x="1095" arabic-form="final" d="M69 245q0 47 17.5 88.5t48 72t71 48.5t86.5 18h344v124h-567v172h657q51 0 95 -12.5t76 -38.5t50 -66.5t19 -97.5v-380h129q11 0 20 -8t9 -19v-120q0 -11 -9 -18.5t-20 -7.5h-268q-12 0 -20.5 7.5t-8.5 18.5v287h-367q-26 0 -43.5 -16.5t-17.5 -42.5v-339 q0 -24 17.5 -41.5t43.5 -17.5h535v-157h-897v546zM377 968q0 30 11.5 56.5t31.5 46.5t46.5 31.5t56.5 11.5t56 -11.5t45.5 -31.5t31 -46.5t11.5 -56.5t-11.5 -56.5t-31 -46.5t-45.5 -31.5t-56 -11.5t-56.5 11.5t-46.5 31.5t-31.5 46.5t-11.5 56.5z" />
<glyph unicode="&#x62e;" horiz-adv-x="1251" arabic-form="initial" d="M-25 26v120q0 11 6.5 19t18.5 8h867v88q0 15 -10.5 25.5t-25.5 10.5h-555v155h702q42 0 79.5 -16t65 -44t43.5 -65.5t16 -79.5v-247h-1182q-12 0 -18.5 7.5t-6.5 18.5zM514 706q0 30 11.5 56.5t31.5 46t46.5 30.5t56.5 11t56 -11t45.5 -30.5t31 -46t11.5 -56.5 t-11.5 -56.5t-31 -46.5t-45.5 -31.5t-56 -11.5t-56.5 11.5t-46.5 31.5t-31.5 46.5t-11.5 56.5z" />
<glyph unicode="&#x62e;" horiz-adv-x="1423" arabic-form="medial" d="M-25 26v120q0 11 6.5 19t18.5 8h867v88q0 15 -11 25.5t-25 10.5h-555v155h702q42 0 79.5 -16t66 -44t45 -65.5t16.5 -79.5v-74h238q10 0 18 -8t8 -19v-120q0 -11 -8 -18.5t-18 -7.5h-1423q-11 0 -18 7.5t-7 18.5zM514 706q0 30 11.5 56.5t31.5 46t46.5 30.5t56.5 11 t56 -11t45.5 -30.5t30.5 -46t11 -56.5t-11 -56.5t-30.5 -46.5t-45.5 -31.5t-56 -11.5t-56.5 11.5t-46.5 31.5t-31.5 46.5t-11.5 56.5z" />
<glyph unicode="&#x62f;" horiz-adv-x="1025" arabic-form="isolated" d="M68 26v119q0 11 7.5 19t17.5 8h549v88q0 14 -10.5 25t-23.5 11h-396v154h541q42 0 78.5 -16t64.5 -44t44 -65t16 -79v-246h-863q-10 0 -17.5 7.5t-7.5 18.5z" />
<glyph unicode="&#x62f;" horiz-adv-x="1211" arabic-form="final" d="M69 26v120q0 11 8 19t21 8h551v88q0 15 -10.5 25.5t-25.5 10.5h-398v155h542q43 0 81 -16t66 -44t44 -65.5t16 -79.5v-74h247q11 0 18.5 -8t7.5 -19v-120q0 -11 -7.5 -18.5t-18.5 -7.5h-1113q-13 0 -21 7.5t-8 18.5z" />
<glyph unicode="&#x630;" horiz-adv-x="1025" arabic-form="isolated" d="M68 26v119q0 11 7.5 19t17.5 8h549v88q0 14 -10.5 25t-23.5 11h-396v154h541q42 0 78.5 -16t64.5 -44t44 -65t16 -79v-246h-863q-10 0 -17.5 7.5t-7.5 18.5zM368 702q0 30 11.5 56.5t31 46t46 30.5t56.5 11t56 -11t45.5 -30.5t31 -46t11.5 -56.5q0 -29 -11.5 -55.5 t-31 -46.5t-45.5 -31.5t-56 -11.5t-56.5 11.5t-46 31.5t-31 46.5t-11.5 55.5z" />
<glyph unicode="&#x630;" horiz-adv-x="1211" arabic-form="final" d="M69 26v120q0 11 8 19t21 8h551v88q0 15 -10.5 25.5t-25.5 10.5h-398v155h542q43 0 81 -16t66 -44t44 -65.5t16 -79.5v-74h247q11 0 18.5 -8t7.5 -19v-120q0 -11 -7.5 -18.5t-18.5 -7.5h-1113q-13 0 -21 7.5t-8 18.5zM370 706q0 30 11.5 56.5t31.5 46t46.5 30.5t56.5 11 t57 -11t46.5 -30.5t31 -46t11.5 -56.5t-11.5 -56.5t-31 -46.5t-46.5 -31.5t-57 -11.5t-56.5 11.5t-46.5 31.5t-31.5 46.5t-11.5 56.5z" />
<glyph unicode="&#x631;" horiz-adv-x="585" arabic-form="isolated" d="M68 -166h102q17 0 29.5 12t12.5 27v552h304v-531q0 -47 -17.5 -87.5t-48 -71t-71.5 -48t-87 -17.5h-224v164z" />
<glyph unicode="&#x631;" horiz-adv-x="781" arabic-form="final" d="M69 -167h104q16 0 28 12t12 27v555h306v-254h262q11 0 18 -8t7 -19v-120q0 -11 -7 -18.5t-18 -7.5h-262v-106q0 -47 -18 -88t-48.5 -72t-71 -48.5t-85.5 -17.5h-227v165z" />
<glyph unicode="&#x632;" horiz-adv-x="585" arabic-form="isolated" d="M68 -166h102q17 0 29.5 12t12.5 27v552h304v-531q0 -47 -17.5 -87.5t-48 -71t-71.5 -48t-87 -17.5h-224v164zM219 702q0 30 11 56.5t30 46t45 30.5t56 11t56 -11t46 -30.5t31.5 -46t11.5 -56.5q0 -29 -11.5 -55.5t-31.5 -46.5t-46 -31.5t-56 -11.5t-56 11.5t-45 31.5 t-30 46.5t-11 55.5z" />
<glyph unicode="&#x632;" horiz-adv-x="781" arabic-form="final" d="M69 -167h104q16 0 28 12t12 27v555h306v-254h262q11 0 18 -8t7 -19v-120q0 -11 -7 -18.5t-18 -7.5h-262v-106q0 -47 -18 -88t-48.5 -72t-71 -48.5t-85.5 -17.5h-227v165zM220 706q0 30 11.5 56.5t31 46t46.5 30.5t57 11t56 -11t45.5 -30.5t30.5 -46t11 -56.5t-11 -56.5 t-30.5 -46.5t-45.5 -31.5t-56 -11.5t-57 11.5t-46.5 31.5t-31 46.5t-11.5 56.5z" />
<glyph unicode="&#x633;" horiz-adv-x="2047" arabic-form="isolated" d="M68 -291v602h308v-436h318q22 0 41.5 8.5t34.5 23t23.5 34t8.5 42.5v474h299v-284h138v284h300v-284h139v284h299v-284v-173h-876v-60q0 -47 -18 -89t-49 -73.5t-73.5 -50t-90.5 -18.5h-802z" />
<glyph unicode="&#x633;" horiz-adv-x="2259" arabic-form="final" d="M69 -292v604h309v-437h318q23 0 43 8.5t34.5 23t23 34t8.5 42.5v476h301v-285h138v285h303v-285h139v285h301v-285h272q11 0 19 -8.5t8 -19.5v-118q0 -11 -8 -19.5t-19 -8.5h-1153v-60q0 -48 -18.5 -90t-50 -73.5t-74 -50t-90.5 -18.5h-804z" />
<glyph unicode="&#x633;" horiz-adv-x="1521" arabic-form="initial" d="M-28 28v118q0 11 8.5 19.5t19.5 8.5h270v285h302v-285h139v285h301v-285h139v285h301v-459h-1452q-11 0 -19.5 8.5t-8.5 19.5z" />
<glyph unicode="&#x633;" horiz-adv-x="1725" arabic-form="medial" d="M-26 28v118q0 11 7.5 19.5t18.5 8.5h271v285h303v-285h137v285h302v-285h139v285h303v-285h270q11 0 18.5 -8.5t7.5 -19.5v-118q0 -11 -7.5 -19.5t-18.5 -8.5h-1725q-11 0 -18.5 8.5t-7.5 19.5z" />
<glyph unicode="&#x634;" horiz-adv-x="2047" arabic-form="isolated" d="M68 -291v602h308v-436h318q22 0 41.5 8.5t34.5 23t23.5 34t8.5 42.5v474h299v-284h138v284h300v-284h139v284h299v-284v-173h-876v-60q0 -47 -18 -89t-49 -73.5t-73.5 -50t-90.5 -18.5h-802zM1079 703q0 30 11.5 56.5t31 46t45.5 31t55 11.5q31 0 57.5 -11.5t46 -31 t31 -46t11.5 -56.5t-11.5 -56t-31 -46t-46 -31.5t-57.5 -11.5q-29 0 -55 11.5t-45.5 31.5t-31 46t-11.5 56zM1258 1027q0 29 11.5 55t31 45.5t46 30.5t56.5 11q29 0 55.5 -11t46 -30.5t31 -45.5t11.5 -55q0 -30 -11.5 -57t-31 -46.5t-46 -31t-55.5 -11.5q-30 0 -56.5 11.5 t-46 31t-31 46.5t-11.5 57zM1434 703q0 30 11.5 56.5t31.5 46t46 31t56 11.5t56.5 -11.5t46 -31t31 -46t11.5 -56.5t-11.5 -56t-31 -46t-46 -31.5t-56.5 -11.5t-56 11.5t-46 31.5t-31.5 46t-11.5 56z" />
<glyph unicode="&#x634;" horiz-adv-x="2259" arabic-form="final" d="M69 -292v604h309v-437h318q23 0 43 8.5t34.5 23t23 34t8.5 42.5v476h301v-285h138v285h303v-285h139v285h301v-285h272q11 0 19 -8.5t8 -19.5v-118q0 -11 -8 -19.5t-19 -8.5h-1153v-60q0 -48 -18.5 -90t-50 -73.5t-74 -50t-90.5 -18.5h-804zM1083 707q0 30 11.5 56.5 t31.5 46t46.5 31t56.5 11.5t56.5 -11.5t46 -31t31 -46t11.5 -56.5t-11.5 -56.5t-31 -46.5t-46 -31.5t-56.5 -11.5t-56.5 11.5t-46.5 31.5t-31.5 46.5t-11.5 56.5zM1264 1032q0 30 11.5 56t31 45.5t46 31t56.5 11.5t56.5 -11.5t46 -31t31 -45.5t11.5 -56t-11.5 -57t-31 -46.5 t-46 -31t-56.5 -11.5t-56.5 11.5t-46 31t-31 46.5t-11.5 57zM1441 707q0 30 11.5 56.5t31.5 46t46 31t56 11.5t56.5 -11.5t46.5 -31t31.5 -46t11.5 -56.5t-11.5 -56.5t-31.5 -46.5t-46.5 -31.5t-56.5 -11.5t-56 11.5t-46 31.5t-31.5 46.5t-11.5 56.5z" />
<glyph unicode="&#x634;" horiz-adv-x="1521" arabic-form="initial" d="M-28 28v118q0 11 8.5 19.5t19.5 8.5h270v285h302v-285h139v285h301v-285h139v285h301v-459h-1452q-11 0 -19.5 8.5t-8.5 19.5zM549 707q0 30 11.5 56.5t31 46t45.5 31t56 11.5t56.5 -11.5t46 -31t31 -46t11.5 -56.5t-11.5 -56.5t-31 -46.5t-46 -31.5t-56.5 -11.5 t-56 11.5t-45.5 31.5t-31 46.5t-11.5 56.5zM728 1032q0 30 11.5 56t31.5 45.5t46 31t56 11.5t56.5 -11.5t46.5 -31t31.5 -45.5t11.5 -56t-11.5 -57t-31.5 -46.5t-46.5 -31t-56.5 -11.5t-56 11.5t-46 31t-31.5 46.5t-11.5 57zM905 707q0 30 11.5 56.5t31.5 46t46.5 31 t56.5 11.5t56 -11.5t46 -31t31.5 -46t11.5 -56.5t-11.5 -56.5t-31.5 -46.5t-46 -31.5t-56 -11.5t-56.5 11.5t-46.5 31.5t-31.5 46.5t-11.5 56.5z" />
<glyph unicode="&#x634;" horiz-adv-x="1725" arabic-form="medial" d="M-26 28v118q0 11 7.5 19.5t18.5 8.5h271v285h303v-285h137v285h302v-285h139v285h303v-285h270q11 0 18.5 -8.5t7.5 -19.5v-118q0 -11 -7.5 -19.5t-18.5 -8.5h-1725q-11 0 -18.5 8.5t-7.5 19.5zM550 707q0 30 11.5 56.5t31 46t46 31t56.5 11.5t56.5 -11.5t46 -31t31 -46 t11.5 -56.5t-11.5 -56.5t-31 -46.5t-46 -31.5t-56.5 -11.5t-56.5 11.5t-46 31.5t-31 46.5t-11.5 56.5zM729 1032q0 30 11.5 56t31.5 45.5t46 31t56 11.5t57 -11.5t46.5 -31t31 -45.5t11.5 -56t-11.5 -57t-31 -46.5t-46.5 -31t-57 -11.5t-56 11.5t-46 31t-31.5 46.5t-11.5 57 zM906 707q0 30 11.5 56.5t31.5 46t46.5 31t56.5 11.5t56.5 -11.5t46 -31t31 -46t11.5 -56.5t-11.5 -56.5t-31 -46.5t-46 -31.5t-56.5 -11.5t-56.5 11.5t-46.5 31.5t-31.5 46.5t-11.5 56.5z" />
<glyph unicode="&#x635;" horiz-adv-x="1912" arabic-form="isolated" d="M68 -276v601h308v-435h318q22 0 41.5 8.5t34.5 23.5t23.5 34.5t8.5 42.5q0 109 1 214t1 213q0 14 8.5 23t21.5 9h248q13 0 22 -9t9 -23v-80q36 55 82 83.5t109 28.5h509q12 0 21 -9.5t9 -22.5v-394q0 -13 -9 -22.5t-21 -9.5h-710v-44q0 -47 -18.5 -89.5t-50 -74t-74 -50 t-90.5 -18.5h-802zM1113 173h421v123h-258q-36 -4 -63.5 -15.5t-47 -25.5t-32.5 -30t-20 -29v-23z" />
<glyph unicode="&#x635;" horiz-adv-x="2098" arabic-form="final" d="M69 -277v604h308v-437h319q23 0 43 8.5t34.5 23t23 34.5t8.5 43q0 109 0.5 215t0.5 215q0 13 9 22t23 9h249q12 0 21.5 -9t9.5 -22v-81q38 59 85 85.5t115 26.5h502q14 0 23 -9.5t9 -21.5v-255h246q11 0 18.5 -8.5t7.5 -19.5v-118q0 -11 -7.5 -19.5t-18.5 -8.5h-992v-44 q0 -48 -18.5 -90t-50 -74t-74 -50.5t-90.5 -18.5h-804zM1118 174h423v123h-259q-38 -4 -65.5 -15.5t-47 -25.5t-32 -30t-19.5 -29v-23z" />
<glyph unicode="&#x635;" horiz-adv-x="1390" arabic-form="initial" d="M-26 28v118q0 11 7.5 19.5t18.5 8.5h277v255q0 13 8.5 22t22.5 9h249q13 0 22 -9t9 -22v-81q40 60 86.5 86t113.5 26h502q14 0 22.5 -9t8.5 -22v-397q0 -13 -8 -22t-22 -10h-1291q-11 0 -18.5 8.5t-7.5 19.5zM588 174h423v123h-259q-38 -4 -65.5 -15.5t-47 -25.5t-32 -30 t-19.5 -29v-23z" />
<glyph unicode="&#x635;" horiz-adv-x="1563" arabic-form="medial" d="M-26 28v118q0 11 7.5 19.5t18.5 8.5h276v255q0 13 9.5 22t22.5 9h249q13 0 22 -9t9 -22v-81q40 60 86.5 86t114.5 26h501q14 0 23.5 -9t9.5 -22v-255h240q11 0 19 -8.5t8 -19.5v-118q0 -11 -8 -19.5t-19 -8.5h-1563q-11 0 -18.5 8.5t-7.5 19.5zM588 174h423v123h-259 q-38 -4 -65.5 -15.5t-47 -25.5t-32 -30t-19.5 -29v-23z" />
<glyph unicode="&#x636;" horiz-adv-x="1912" arabic-form="isolated" d="M68 -276v601h308v-435h318q22 0 41.5 8.5t34.5 23.5t23.5 34.5t8.5 42.5q0 109 1 214t1 213q0 14 8.5 23t21.5 9h248q13 0 22 -9t9 -23v-80q36 55 82 83.5t109 28.5h509q12 0 21 -9.5t9 -22.5v-394q0 -13 -9 -22.5t-21 -9.5h-710v-44q0 -47 -18.5 -89.5t-50 -74t-74 -50 t-90.5 -18.5h-802zM1113 173h421v123h-258q-36 -4 -63.5 -15.5t-47 -25.5t-32.5 -30t-20 -29v-23zM1205 703q0 30 11.5 56.5t31 46t46 31t55.5 11.5q30 0 56 -11.5t46 -31t31.5 -46t11.5 -56.5t-11.5 -56t-31.5 -46t-46 -31.5t-56 -11.5q-29 0 -55.5 11.5t-46 31.5t-31 46 t-11.5 56z" />
<glyph unicode="&#x636;" horiz-adv-x="2098" arabic-form="final" d="M69 -277v604h308v-437h319q23 0 43 8.5t34.5 23t23 34.5t8.5 43q0 109 0.5 215t0.5 215q0 13 9 22t23 9h249q12 0 21.5 -9t9.5 -22v-81q38 59 85 85.5t115 26.5h502q14 0 23 -9.5t9 -21.5v-255h246q11 0 18.5 -8.5t7.5 -19.5v-118q0 -11 -7.5 -19.5t-18.5 -8.5h-992v-44 q0 -48 -18.5 -90t-50 -74t-74 -50.5t-90.5 -18.5h-804zM1118 174h423v123h-259q-38 -4 -65.5 -15.5t-47 -25.5t-32 -30t-19.5 -29v-23zM1209 707q0 30 11.5 56.5t31 46t46.5 31t57 11.5t56 -11.5t46 -31t31.5 -46t11.5 -56.5t-11.5 -56.5t-31.5 -46.5t-46 -31.5t-56 -11.5 t-57 11.5t-46.5 31.5t-31 46.5t-11.5 56.5z" />
<glyph unicode="&#x636;" horiz-adv-x="1390" arabic-form="initial" d="M-26 28v118q0 11 7.5 19.5t18.5 8.5h277v255q0 13 8.5 22t22.5 9h249q13 0 22 -9t9 -22v-81q40 60 86.5 86t113.5 26h502q14 0 22.5 -9t8.5 -22v-397q0 -13 -8 -22t-22 -10h-1291q-11 0 -18.5 8.5t-7.5 19.5zM588 174h423v123h-259q-38 -4 -65.5 -15.5t-47 -25.5t-32 -30 t-19.5 -29v-23zM680 707q0 30 11.5 56.5t31 46t46.5 31t57 11.5t56 -11.5t46 -31t31.5 -46t11.5 -56.5t-11.5 -56.5t-31.5 -46.5t-46 -31.5t-56 -11.5t-57 11.5t-46.5 31.5t-31 46.5t-11.5 56.5z" />
<glyph unicode="&#x636;" horiz-adv-x="1563" arabic-form="medial" d="M-26 28v118q0 11 7.5 19.5t18.5 8.5h276v255q0 13 9.5 22t22.5 9h249q13 0 22 -9t9 -22v-81q40 60 86.5 86t114.5 26h501q14 0 23.5 -9t9.5 -22v-255h240q11 0 19 -8.5t8 -19.5v-118q0 -11 -8 -19.5t-19 -8.5h-1563q-11 0 -18.5 8.5t-7.5 19.5zM588 174h423v123h-259 q-38 -4 -65.5 -15.5t-47 -25.5t-32 -30t-19.5 -29v-23zM680 707q0 30 11.5 56.5t31 46t46.5 31t57 11.5t56.5 -11.5t46.5 -31t31.5 -46t11.5 -56.5t-11.5 -56.5t-31.5 -46.5t-46.5 -31.5t-56.5 -11.5t-57 11.5t-46.5 31.5t-31 46.5t-11.5 56.5z" />
<glyph unicode="&#x637;" horiz-adv-x="1375" arabic-form="isolated" d="M70 145q-2 11 6.5 19.5t20.5 8.5h170v915q0 13 9 22.5t22 9.5h250q11 0 20.5 -9.5t9.5 -22.5v-742q40 61 87 86.5t115 25.5h496q14 0 22.5 -9t8.5 -23v-394q0 -13 -8.5 -22t-22.5 -10h-1146q-12 0 -18 8.5t-8 19.5zM578 173h419v123h-256q-37 -4 -64.5 -15.5t-47 -25.5 t-32 -30t-19.5 -29v-23z" />
<glyph unicode="&#x637;" horiz-adv-x="1555" arabic-form="final" d="M70 146q-3 11 6 19.5t19 8.5h174v920q0 13 9 22.5t23 9.5h249q12 0 21.5 -9.5t9.5 -22.5v-746q39 60 85.5 86t113.5 26h503q14 0 22.5 -9t8.5 -22v-255h241q11 0 19 -8.5t8 -19.5v-118q0 -11 -8 -19.5t-19 -8.5h-1425q-11 0 -17.5 8.5t-8.5 19.5zM581 174h422v123h-258 q-38 -4 -65.5 -15.5t-47 -25.5t-32 -30t-19.5 -29v-23z" />
<glyph unicode="&#x637;" horiz-adv-x="1392" arabic-form="initial" d="M-25 28v118q0 11 7 19.5t18 8.5h277v920q0 13 9 22.5t22 9.5h249q13 0 22 -9.5t9 -22.5v-746q37 56 83.5 84t111.5 28h508q14 0 23 -9t9 -22v-397q0 -13 -9 -22t-23 -10h-1291q-11 0 -18 8.5t-7 19.5zM588 174h424v123h-260q-37 -4 -64.5 -15.5t-47.5 -25.5t-32.5 -30 t-19.5 -29v-23z" />
<glyph unicode="&#x637;" horiz-adv-x="1563" arabic-form="medial" d="M-25 28v118q0 11 7 19.5t18 8.5h277v920q0 13 9 22.5t22 9.5h249q13 0 22 -9.5t9 -22.5v-746q38 57 84.5 84.5t112.5 27.5h506q14 0 23 -9t9 -22v-255h240q11 0 19 -8.5t8 -19.5v-118q0 -11 -8 -19.5t-19 -8.5h-1563q-11 0 -18 8.5t-7 19.5zM588 174h424v123h-259 q-38 -4 -65.5 -15.5t-47 -25.5t-32.5 -30t-20 -29v-23z" />
<glyph unicode="&#x638;" horiz-adv-x="1375" arabic-form="isolated" d="M70 145q-2 11 6.5 19.5t20.5 8.5h170v915q0 13 9 22.5t22 9.5h250q11 0 20.5 -9.5t9.5 -22.5v-742q40 61 87 86.5t115 25.5h496q14 0 22.5 -9t8.5 -23v-394q0 -13 -8.5 -22t-22.5 -10h-1146q-12 0 -18 8.5t-8 19.5zM578 173h419v123h-256q-37 -4 -64.5 -15.5t-47 -25.5 t-32 -30t-19.5 -29v-23zM670 703q0 -30 11.5 -56t31 -46t46 -31.5t56.5 -11.5t56 11.5t45.5 31.5t31 46t11.5 56t-11.5 56.5t-31 46t-45.5 31t-56 11.5t-56.5 -11.5t-46 -31t-31 -46t-11.5 -56.5z" />
<glyph unicode="&#x638;" horiz-adv-x="1555" arabic-form="final" d="M70 146q-3 11 6 19.5t19 8.5h174v920q0 13 9 22.5t23 9.5h249q12 0 21.5 -9.5t9.5 -22.5v-746q39 60 85.5 86t113.5 26h503q14 0 22.5 -9t8.5 -22v-255h241q11 0 19 -8.5t8 -19.5v-118q0 -11 -8 -19.5t-19 -8.5h-1425q-11 0 -17.5 8.5t-8.5 19.5zM581 174h422v123h-258 q-38 -4 -65.5 -15.5t-47 -25.5t-32 -30t-19.5 -29v-23zM673 707q0 -30 11.5 -56.5t31 -46.5t46 -31.5t56.5 -11.5t56.5 11.5t46.5 31.5t31.5 46.5t11.5 56.5t-11.5 56.5t-31.5 46t-46.5 31t-56.5 11.5t-56.5 -11.5t-46 -31t-31 -46t-11.5 -56.5z" />
<glyph unicode="&#x638;" horiz-adv-x="1392" arabic-form="initial" d="M-25 28v118q0 11 7 19.5t18 8.5h277v920q0 13 9 22.5t22 9.5h249q13 0 22 -9.5t9 -22.5v-746q37 56 83.5 84t111.5 28h508q14 0 23 -9t9 -22v-397q0 -13 -9 -22t-23 -10h-1291q-11 0 -18 8.5t-7 19.5zM588 174h424v123h-260q-37 -4 -64.5 -15.5t-47.5 -25.5t-32.5 -30 t-19.5 -29v-23zM681 707q0 -30 11.5 -56.5t31 -46.5t46.5 -31.5t57 -11.5t56 11.5t46 31.5t31.5 46.5t11.5 56.5t-11.5 56.5t-31.5 46t-46 31t-56 11.5t-57 -11.5t-46.5 -31t-31 -46t-11.5 -56.5z" />
<glyph unicode="&#x638;" horiz-adv-x="1563" arabic-form="medial" d="M-25 28v118q0 11 7 19.5t18 8.5h277v920q0 13 9 22.5t22 9.5h249q13 0 22 -9.5t9 -22.5v-746q38 57 84.5 84.5t112.5 27.5h506q14 0 23 -9t9 -22v-255h240q11 0 19 -8.5t8 -19.5v-118q0 -11 -8 -19.5t-19 -8.5h-1563q-11 0 -18 8.5t-7 19.5zM588 174h424v123h-259 q-38 -4 -65.5 -15.5t-47 -25.5t-32.5 -30t-20 -29v-23zM681 707q0 -30 11.5 -56.5t31 -46.5t46 -31.5t56.5 -11.5t56.5 11.5t46.5 31.5t31.5 46.5t11.5 56.5t-11.5 56.5t-31.5 46t-46.5 31t-56.5 11.5t-56.5 -11.5t-46 -31t-31 -46t-11.5 -56.5z" />
<glyph unicode="&#x639;" horiz-adv-x="1043" arabic-form="isolated" d="M68 215q0 36 11 69.5t30.5 61.5t47 49.5t59.5 33.5v286q0 11 7 18t18 7h559q11 0 17.5 -7t6.5 -18v-111q0 -11 -6.5 -18t-17.5 -7h-271v-134h418q9 0 14.5 -12.5t8.5 -30.5t2.5 -40t-3 -40t-7.5 -30.5t-12 -12.5h-546q-13 0 -21 -8.5t-8 -19.5v-357q0 -11 8 -19.5 t21 -8.5h536q12 0 20 -12t11 -30.5t3 -40t-4 -40t-10.5 -30.5t-14.5 -12h-830q-19 0 -33 13t-14 32v469z" />
<glyph unicode="&#x639;" horiz-adv-x="1233" arabic-form="final" d="M69 216q0 36 11 69.5t30.5 62t47 50t59.5 33.5v176v112q0 11 8 18t19 7h560q11 0 18.5 -7t7.5 -18v-112q0 -11 -7.5 -18t-18.5 -7h-270v-135h411q12 0 20 -12.5t11.5 -30.5t3 -40t-3.5 -40t-8 -30.5t-12 -12.5h-62v-108h339q11 0 18.5 -8t7.5 -19v-120q0 -11 -7.5 -18.5 t-18.5 -7.5h-471q-14 0 -23.5 10t-9.5 23v248h-323q-12 0 -20 -9t-8 -20v-358q0 -12 8 -20.5t20 -8.5h537q18 0 27.5 -26t9.5 -57t-10.5 -57t-33.5 -26h-820q-19 0 -33 13t-14 32v472z" />
<glyph unicode="&#x639;" horiz-adv-x="1141" arabic-form="initial" d="M-25 26v120q0 11 7 19t18 8h276v284q0 19 10.5 26t22.5 7h572q14 0 23.5 -10t9.5 -23v-115q0 -14 -9.5 -24t-23.5 -10h-252v-135h411q14 0 23 -11t9 -23v-106q0 -14 -9 -23.5t-23 -9.5h-1040q-11 0 -18 7.5t-7 18.5z" />
<glyph unicode="&#x639;" horiz-adv-x="1149" arabic-form="medial" d="M-29 26v120q0 11 8.5 19t20.5 8h274v274q0 43 37 43h282h286q14 0 23.5 -10t9.5 -23v-115q0 -14 -9.5 -24t-23.5 -10h-252v-135h522q11 0 18.5 -8t7.5 -19v-120q0 -11 -7.5 -18.5t-18.5 -7.5h-1149q-12 0 -20.5 7.5t-8.5 18.5z" />
<glyph unicode="&#x63a;" horiz-adv-x="1043" arabic-form="isolated" d="M68 215q0 36 11 69.5t30.5 61.5t47 49.5t59.5 33.5v286q0 11 7 18t18 7h559q11 0 17.5 -7t6.5 -18v-111q0 -11 -6.5 -18t-17.5 -7h-271v-134h418q9 0 14.5 -12.5t8.5 -30.5t2.5 -40t-3 -40t-7.5 -30.5t-12 -12.5h-546q-13 0 -21 -8.5t-8 -19.5v-357q0 -11 8 -19.5 t21 -8.5h536q12 0 20 -12t11 -30.5t3 -40t-4 -40t-10.5 -30.5t-14.5 -12h-830q-19 0 -33 13t-14 32v469zM411 973q0 30 11 56t30 45t45.5 30t56.5 11q29 0 55.5 -11t46.5 -30t31.5 -45t11.5 -56t-11.5 -56.5t-31.5 -46.5t-46.5 -31.5t-55.5 -11.5q-30 0 -56.5 11.5 t-45.5 31.5t-30 46.5t-11 56.5z" />
<glyph unicode="&#x63a;" horiz-adv-x="1233" arabic-form="final" d="M69 216q0 36 11 69.5t30.5 62t47 50t59.5 33.5v176v112q0 11 8 18t19 7h560q11 0 18.5 -7t7.5 -18v-112q0 -11 -7.5 -18t-18.5 -7h-270v-135h411q12 0 20 -12.5t11.5 -30.5t3 -40t-3.5 -40t-8 -30.5t-12 -12.5h-62v-108h339q11 0 18.5 -8t7.5 -19v-120q0 -11 -7.5 -18.5 t-18.5 -7.5h-471q-14 0 -23.5 10t-9.5 23v248h-323q-12 0 -20 -9t-8 -20v-358q0 -12 8 -20.5t20 -8.5h537q18 0 27.5 -26t9.5 -57t-10.5 -57t-33.5 -26h-820q-19 0 -33 13t-14 32v472zM361 978q0 30 11.5 56t31.5 45.5t46.5 30.5t56.5 11t57 -11t46.5 -30.5t31 -45.5 t11.5 -56t-11.5 -57t-31 -47t-46.5 -31.5t-57 -11.5t-56.5 11.5t-46.5 31.5t-31.5 47t-11.5 57z" />
<glyph unicode="&#x63a;" horiz-adv-x="1141" arabic-form="initial" d="M-25 26v120q0 11 7 19t18 8h276v284q0 19 10.5 26t22.5 7h572q14 0 23.5 -10t9.5 -23v-115q0 -14 -9.5 -24t-23.5 -10h-252v-135h411q14 0 23 -11t9 -23v-106q0 -14 -9 -23.5t-23 -9.5h-1040q-11 0 -18 7.5t-7 18.5zM476 706q0 30 11.5 56.5t31.5 46t46.5 30.5t56.5 11 t57 -11t46.5 -30.5t31 -46t11.5 -56.5t-11.5 -56.5t-31 -46.5t-46.5 -31.5t-57 -11.5t-56.5 11.5t-46.5 31.5t-31.5 46.5t-11.5 56.5z" />
<glyph unicode="&#x63a;" horiz-adv-x="1149" arabic-form="medial" d="M-29 26v120q0 11 8.5 19t20.5 8h274v274q0 43 37 43h282h286q14 0 23.5 -10t9.5 -23v-115q0 -14 -9.5 -24t-23.5 -10h-252v-135h522q11 0 18.5 -8t7.5 -19v-120q0 -11 -7.5 -18.5t-18.5 -7.5h-1149q-12 0 -20.5 7.5t-8.5 18.5zM476 706q0 30 11 56.5t30.5 46t46 30.5 t56.5 11t56.5 -11t46.5 -30.5t31.5 -46t11.5 -56.5t-11.5 -56.5t-31.5 -46.5t-46.5 -31.5t-56.5 -11.5t-56.5 11.5t-46 31.5t-30.5 46.5t-11 56.5z" />
<glyph unicode="&#x641;" horiz-adv-x="1474" arabic-form="isolated" d="M68 33v530q0 14 9 23t22 9h246q14 0 23.5 -9t9.5 -23v-391h682q12 0 21 7.5t9 19.5v71q0 12 -9 20t-21 8h-405v231q0 45 17.5 85.5t48 71t71.5 48.5t88 18h526v-529q0 -46 -17.5 -86.5t-48 -71t-71.5 -48t-87 -17.5h-1083q-13 0 -22 9.5t-9 23.5zM895 984q0 30 11.5 56.5 t31.5 46t46.5 31t56.5 11.5t56 -11.5t45.5 -31t30.5 -46t11 -56.5q0 -29 -11 -55.5t-30.5 -46.5t-45.5 -32t-56 -12t-56.5 12t-46.5 32t-31.5 46.5t-11.5 55.5zM959 473q0 -6 4.5 -11t12.5 -5h100q8 0 12 5t4 11v99q0 7 -4 12.5t-12 5.5h-100q-8 0 -12.5 -5.5t-4.5 -12.5 v-99z" />
<glyph unicode="&#x641;" horiz-adv-x="1680" arabic-form="final" d="M69 33v533q0 14 9.5 23t23.5 9h245q14 0 25 -9t11 -23v-393h683q12 0 22 7.5t10 19.5v71q0 13 -10 20.5t-22 7.5h-408v233q0 46 18 86.5t49 71t73 48.5t89 18h530v-532q0 -29 -7 -51h270q11 0 19 -8t8 -19v-120q0 -11 -8 -18.5t-19 -7.5h-1578q-14 0 -23.5 9.5t-9.5 23.5 zM900 989q0 30 11.5 57t32 46.5t47 31t56.5 11.5t56.5 -11.5t46.5 -31t31.5 -46.5t11.5 -57t-11.5 -56.5t-31.5 -46.5t-46.5 -31.5t-56.5 -11.5t-56.5 11.5t-47 31.5t-32 46.5t-11.5 56.5zM965 476q0 -7 5.5 -12t12.5 -5h99q7 0 13 5t6 12v99q0 7 -6 12.5t-13 5.5h-99 q-7 0 -12.5 -5.5t-5.5 -12.5v-99z" />
<glyph unicode="&#x641;" horiz-adv-x="1142" arabic-form="initial" d="M-26 26v120q0 11 7.5 19t18.5 8h706q12 0 21.5 7.5t9.5 19.5v71q0 13 -9.5 20.5t-21.5 7.5h-407v233q0 46 18 86.5t48.5 71t72 48.5t89.5 18h528v-756h-1055q-11 0 -18.5 7.5t-7.5 18.5zM565 989q0 30 11 57t30.5 46.5t45.5 31t56 11.5t57 -11.5t46.5 -31t31 -46.5 t11.5 -57t-11.5 -56.5t-31 -46.5t-46.5 -31.5t-57 -11.5t-56 11.5t-45.5 31.5t-30.5 46.5t-11 56.5zM605 476q0 -7 5.5 -12t12.5 -5h50h49q8 0 12.5 5t4.5 12v99q0 7 -4.5 12.5t-12.5 5.5h-99q-7 0 -12.5 -5.5t-5.5 -12.5v-99z" />
<glyph unicode="&#x641;" horiz-adv-x="1326" arabic-form="medial" d="M-25 26v120q0 11 7 19t18 8h707q12 0 21 7.5t9 19.5v71q0 13 -9 20.5t-21 7.5h-407v233q0 46 18 86.5t49.5 71t72.5 48.5t88 18h530v-583h268q11 0 20 -8t9 -19v-120q0 -11 -9 -18.5t-20 -7.5h-1326q-11 0 -18 7.5t-7 18.5zM566 989q0 30 11.5 57t31 46.5t46.5 31 t57 11.5t56 -11.5t45.5 -31t31 -46.5t11.5 -57t-11.5 -56.5t-31 -46.5t-45.5 -31.5t-56 -11.5t-57 11.5t-46.5 31.5t-31 46.5t-11.5 56.5zM606 476q0 -7 5 -12t13 -5h99q8 0 14 5t6 12v99q0 7 -6 12.5t-14 5.5h-99q-8 0 -13 -5.5t-5 -12.5v-99z" />
<glyph unicode="&#x642;" horiz-adv-x="1474" arabic-form="isolated" d="M68 261q0 15 9 26t22 11h246q14 0 23.5 -11t9.5 -26v-391h682q12 0 21 9.5t9 20.5v71q0 11 -9 20t-21 9h-405v230q0 46 18 87t48.5 71.5t72 48.5t88.5 18h524v-533q0 -45 -17.5 -85.5t-48 -70.5t-71.5 -47.5t-87 -17.5h-1083q-13 0 -22 9t-9 24v527zM767 702 q0 30 11 56.5t30.5 46t45 30.5t55.5 11t56.5 -11t46 -30.5t31 -46t11.5 -56.5q0 -29 -11.5 -55.5t-31 -46.5t-46 -31.5t-56.5 -11.5t-55.5 11.5t-45 31.5t-30.5 46.5t-11 55.5zM959 176q0 -19 18 -19h99q16 0 16 19v96q0 7 -4 13t-12 6h-99q-8 0 -13 -6t-5 -13v-96z M1101 702q0 30 11 56.5t30.5 46t46 30.5t56.5 11t56.5 -11t46 -30.5t31 -46t11.5 -56.5q0 -29 -11.5 -55.5t-31 -46.5t-46 -31.5t-56.5 -11.5t-56.5 11.5t-46 31.5t-30.5 46.5t-11 55.5z" />
<glyph unicode="&#x642;" horiz-adv-x="1680" arabic-form="final" d="M69 263q0 15 9.5 25.5t23.5 10.5h248q12 0 22.5 -10.5t10.5 -25.5v-393h682q14 0 23.5 9t9.5 20v72q0 11 -9.5 20t-23.5 9h-405v231q0 46 17.5 87.5t48.5 72t72.5 48.5t88.5 18h530v-284h263q12 0 20.5 -8t8.5 -19v-120q0 -11 -8.5 -18.5t-20.5 -7.5h-263v-78 q0 -46 -18.5 -86.5t-49.5 -71t-73 -48t-88 -17.5h-1086q-14 0 -23.5 9t-9.5 24v531zM771 706q0 30 11.5 56.5t31.5 46t46.5 30.5t56.5 11t56 -11t45.5 -30.5t30.5 -46t11 -56.5t-11 -56.5t-30.5 -46.5t-45.5 -31.5t-56 -11.5t-56.5 11.5t-46.5 31.5t-31.5 46.5t-11.5 56.5z M964 177q0 -10 6 -14.5t13 -4.5h99q7 0 13 4.5t6 14.5v97q0 7 -6 12.5t-13 5.5h-99q-7 0 -13 -5.5t-6 -12.5v-97zM1107 706q0 30 11.5 56.5t32 46t47 30.5t56.5 11t56 -11t45.5 -30.5t30.5 -46t11 -56.5t-11 -56.5t-30.5 -46.5t-45.5 -31.5t-56 -11.5t-56.5 11.5t-47 31.5 t-32 46.5t-11.5 56.5z" />
<glyph unicode="&#x642;" horiz-adv-x="1124" arabic-form="initial" d="M-29 26v120q0 11 8 19t21 8h704q14 0 23.5 7.5t9.5 19.5v71q0 13 -9.5 20.5t-23.5 7.5h-405v233q0 46 17.5 86.5t48.5 71t72.5 48.5t88.5 18h529v-756h-1055q-13 0 -21 7.5t-8 18.5zM393 989q0 30 11 57t30.5 46.5t46 31t56.5 11.5t56.5 -11.5t46.5 -31t31.5 -46.5 t11.5 -57t-11.5 -56.5t-31.5 -46.5t-46.5 -31.5t-56.5 -11.5t-56.5 11.5t-46 31.5t-30.5 46.5t-11 56.5zM603 476q0 -7 5.5 -12t12.5 -5h100q7 0 12.5 5t5.5 12v99q0 7 -5.5 12.5t-12.5 5.5h-100q-7 0 -12.5 -5.5t-5.5 -12.5v-99zM730 989q0 30 11 57t30.5 46.5t46 31 t56.5 11.5t56.5 -11.5t46.5 -31t31.5 -46.5t11.5 -57t-11.5 -56.5t-31.5 -46.5t-46.5 -31.5t-56.5 -11.5t-56.5 11.5t-46 31.5t-30.5 46.5t-11 56.5z" />
<glyph unicode="&#x642;" horiz-adv-x="1326" arabic-form="medial" d="M-29 26v120q0 11 8 19t21 8h704q14 0 23.5 7.5t9.5 19.5v71q0 13 -9.5 20.5t-23.5 7.5h-405v233q0 46 17.5 86.5t48.5 71t71.5 48.5t87.5 18h531v-583h271q11 0 18 -8t7 -19v-120q0 -11 -7 -18.5t-18 -7.5h-1326q-13 0 -21 7.5t-8 18.5zM396 989q0 30 11 57t30.5 46.5 t45.5 31t56 11.5t56.5 -11.5t46.5 -31t31.5 -46.5t11.5 -57t-11.5 -56.5t-31.5 -46.5t-46.5 -31.5t-56.5 -11.5t-56 11.5t-45.5 31.5t-30.5 46.5t-11 56.5zM603 476q0 -7 5.5 -12t12.5 -5h99q8 0 13.5 5t5.5 12v99q0 7 -5.5 12.5t-13.5 5.5h-99q-7 0 -12.5 -5.5t-5.5 -12.5 v-99zM733 989q0 30 11 57t30.5 46.5t45.5 31t56 11.5t56.5 -11.5t46 -31t31 -46.5t11.5 -57t-11.5 -56.5t-31 -46.5t-46 -31.5t-56.5 -11.5t-56 11.5t-45.5 31.5t-30.5 46.5t-11 56.5z" />
<glyph unicode="&#x643;" horiz-adv-x="1313" arabic-form="isolated" d="M68 0v567q0 14 9 23t22 9h245q13 0 22 -9t9 -23v-395h563v990q0 14 9 23.5t21 9.5h246q13 0 22 -9.5t9 -23.5v-1005q0 -33 -12 -61.5t-33 -49.5t-49 -33.5t-59 -12.5h-1024zM411 669v121q0 6 4.5 11.5t10.5 5.5h37v134q0 8 4.5 13t10.5 5h140h142q16 0 16 -18v-55 q0 -17 -16 -17h-125v-62h201q6 0 12 -5.5t6 -11.5v-121q0 -8 -6 -13.5t-12 -5.5h-410q-6 0 -10.5 5.5t-4.5 13.5z" />
<glyph unicode="&#x643;" horiz-adv-x="1523" arabic-form="final" d="M69 0v570q0 14 8.5 23.5t22.5 9.5h247q12 0 21.5 -9.5t9.5 -23.5v-397h565v995q0 14 9 24t22 10h247q12 0 21 -10t9 -24v-995h272q10 0 17.5 -8t7.5 -19v-120q0 -11 -7.5 -18.5t-17.5 -7.5h-1454zM413 672v122q0 7 4.5 12t12.5 5h35v131q0 13 4.5 17.5t19.5 4.5h134h138 q18 0 18 -18v-56q0 -16 -18 -16h-122v-63h203q5 0 10.5 -5t5.5 -12v-122q0 -8 -5.5 -13t-10.5 -5h-412q-8 0 -12.5 5t-4.5 13z" />
<glyph unicode="&#x643;" horiz-adv-x="1795" arabic-form="initial" d="M-26 26v120q0 11 7.5 19t18.5 8h1416v98q0 9 -6.5 15t-15.5 6h-1149v247q0 42 17.5 78.5t48.5 63.5t72.5 42.5t88.5 15.5h618v-155h-515q-10 0 -15 -6t-5 -14v-95q0 -9 5 -15.5t15 -6.5h923q47 0 88.5 -15.5t72.5 -42.5t49 -63.5t18 -78.5v-247h-1726q-11 0 -18.5 7.5 t-7.5 18.5z" />
<glyph unicode="&#x643;" horiz-adv-x="1994" arabic-form="medial" d="M-26 26v120q0 11 7.5 19t18.5 8h1415v98q0 9 -6 15t-13 6h-1151v247q0 42 18 78.5t48.5 63.5t71.5 42.5t87 15.5h620v-155h-516q-9 0 -15 -6t-6 -14v-95q0 -9 6 -15.5t15 -6.5h923q47 0 88.5 -15.5t72 -42.5t48.5 -63.5t18 -78.5v-74h270q11 0 19 -8t8 -19v-120 q0 -11 -8 -18.5t-19 -7.5h-1994q-11 0 -18.5 7.5t-7.5 18.5z" />
<glyph unicode="&#x644;" horiz-adv-x="1168" arabic-form="isolated" d="M68 267q0 14 9 23t22 9h245q15 0 23 -9t8 -23v-414h418v1298q0 14 8 22.5t22 8.5h245q14 0 22.5 -8.5t8.5 -22.5v-1295q0 -32 -12 -60.5t-33 -49.5t-49 -33t-60 -12h-877v566z" />
<glyph unicode="&#x644;" horiz-adv-x="1374" arabic-form="final" d="M69 269q0 14 9 23t22 9h247q12 0 21 -9t9 -23v-417h418v1305q0 14 8.5 23t22.5 9h249q12 0 21 -9t9 -23v-984h269q12 0 19 -8t7 -19v-120q0 -11 -7 -18.5t-19 -7.5h-269v-144q0 -33 -12.5 -61.5t-33.5 -49.5t-49 -33.5t-60 -12.5h-881v570z" />
<glyph unicode="&#x644;" horiz-adv-x="677" arabic-form="initial" d="M-25 26v120q0 11 7 19t18 8h294v991q0 12 9.5 21t21.5 9h252q12 0 21.5 -9t9.5 -21v-1133q0 -14 -9.5 -22.5t-21.5 -8.5h-577q-11 0 -18 7.5t-7 18.5z" />
<glyph unicode="&#x644;" horiz-adv-x="757" arabic-form="medial" d="M-25 26v120q0 11 8 19t17 8h297v991q0 12 9 21t22 9h252q12 0 21.5 -9t9.5 -21v-991h146q12 0 19.5 -8t7.5 -19v-120q0 -11 -7.5 -18.5t-19.5 -7.5h-757q-9 0 -17 7.5t-8 18.5z" />
<glyph unicode="&#x645;" horiz-adv-x="1326" arabic-form="isolated" d="M68 172h449v58q0 45 17.5 85.5t48 71t71 48t85.5 17.5h519v-452h-435v-147h-306v147h-134v-272q0 -13 -9 -22t-22 -9h-254q-13 0 -21.5 9t-8.5 22v444zM818 192q0 -8 7 -13t15 -5h89q7 0 12.5 5t5.5 13v73q0 9 -5.5 15t-12.5 6h-89q-8 0 -15 -6t-7 -15v-73z" />
<glyph unicode="&#x645;" horiz-adv-x="1530" arabic-form="final" d="M69 173h452v58q0 46 17.5 86.5t47.5 71t71 48t88 17.5h518v-281h267q10 0 17.5 -8t7.5 -19v-120q0 -11 -7.5 -18.5t-17.5 -7.5h-703v-148h-306v148h-137v-274q0 -12 -8.5 -21t-18.5 -9h-259q-11 0 -20 9t-9 21v447zM825 193q0 -18 19 -18h90q7 0 12.5 5t5.5 13v73 q0 9 -5.5 15.5t-12.5 6.5h-90q-8 0 -13.5 -6.5t-5.5 -15.5v-73z" />
<glyph unicode="&#x645;" horiz-adv-x="1084" arabic-form="initial" d="M-26 26v120q0 11 7.5 19t18.5 8h270v58q0 46 17.5 86.5t48 71t71.5 48t88 17.5h143h377v-454h-438v-148h-307v148h-270q-11 0 -18.5 7.5t-7.5 18.5zM575 193q0 -18 18 -18h90q7 0 13 5t6 13v83q0 7 -6 12.5t-13 5.5h-90q-8 0 -13 -5.5t-5 -12.5v-83z" />
<glyph unicode="&#x645;" horiz-adv-x="1265" arabic-form="medial" d="M-25 26v120q0 11 7 19t18 8h271v58q0 46 17.5 86.5t47.5 71t70 48t86 17.5h523v-281h250q11 0 18 -8t7 -19v-120q0 -11 -7 -18.5t-18 -7.5h-688v-148h-306v148h-271q-11 0 -18 7.5t-7 18.5zM575 193q0 -18 18 -18h90q19 0 19 18v83q0 7 -5 12.5t-14 5.5h-90 q-8 0 -13 -5.5t-5 -12.5v-83z" />
<glyph unicode="&#x646;" horiz-adv-x="1191" arabic-form="isolated" d="M68 267q0 14 9 23t23 9h251q13 0 22 -9t9 -23v-414h425v572q0 14 9 23t20 9h253q14 0 23.5 -9t9.5 -23v-569q0 -32 -12.5 -60.5t-34.5 -49.5t-50.5 -33t-61.5 -12h-895v566zM450 539q0 30 11.5 56t31.5 46t46 31.5t56 11.5t56.5 -11.5t45.5 -31.5t30 -46t11 -56 t-11 -56.5t-30 -46t-45.5 -31t-56.5 -11.5t-56 11.5t-46 31t-31.5 46t-11.5 56.5z" />
<glyph unicode="&#x646;" horiz-adv-x="1409" arabic-form="final" d="M69 269q0 14 8.5 23t22.5 9h254q12 0 21 -9t9 -23v-417h427v575q0 14 9 23t22 9h254q12 0 21.5 -9t9.5 -23v-257q4 0 7 1.5t7 1.5h268q13 0 21 -8t8 -19v-120q0 -11 -8 -18.5t-21 -7.5h-268q-9 0 -14 2v-146q0 -33 -12.5 -61.5t-34 -49.5t-50.5 -33.5t-62 -12.5h-899v570 zM453 542q0 30 11 56.5t30.5 46.5t46 31.5t56.5 11.5t56.5 -11.5t46.5 -31.5t31.5 -46.5t11.5 -56.5t-11.5 -57t-31.5 -46.5t-46.5 -31t-56.5 -11.5t-56.5 11.5t-46 31t-30.5 46.5t-11 57z" />
<glyph unicode="&#x646;" horiz-adv-x="644" arabic-form="initial" d="M-26 26v120q0 11 7.5 19t18.5 8h266v258q0 12 9.5 21t21.5 9h247q12 0 21.5 -9t9.5 -21v-400q0 -13 -9.5 -22t-21.5 -9h-544q-11 0 -18.5 7.5t-7.5 18.5zM281 706q0 30 11.5 56.5t31 46t46.5 30.5t57 11t56 -11t45.5 -30.5t30.5 -46t11 -56.5t-11 -56.5t-30.5 -46.5 t-45.5 -31.5t-56 -11.5t-57 11.5t-46.5 31.5t-31 46.5t-11.5 56.5z" />
<glyph unicode="&#x646;" horiz-adv-x="844" arabic-form="medial" d="M-25 26v120q0 11 7 19t18 8h269v258q0 12 8 21t22 9h247q14 0 22.5 -9t8.5 -21v-258h267q11 0 18 -8t7 -19v-120q0 -11 -7 -18.5t-18 -7.5h-844q-11 0 -18 7.5t-7 18.5zM276 706q0 30 11.5 56.5t31.5 46t46.5 30.5t56.5 11t57 -11t46.5 -30.5t31 -46t11.5 -56.5 t-11.5 -56.5t-31 -46.5t-46.5 -31.5t-57 -11.5t-56.5 11.5t-46.5 31.5t-31.5 46.5t-11.5 56.5z" />
<glyph unicode="&#x647;" horiz-adv-x="1028" arabic-form="isolated" d="M68 0v249q0 42 16.5 79t45 65.5t66.5 45t81 16.5h650q14 0 23 -10.5t9 -22.5v-422h-891zM375 172h280v131q0 2 -3.5 5t-8.5 3h-201q-27 0 -47 -18t-20 -44v-77z" />
<glyph unicode="&#x647;" horiz-adv-x="1229" arabic-form="final" d="M69 -106v356q0 42 16.5 79.5t44.5 66t66 45t80 16.5h362v109q0 19 14 33t33 14h227q19 0 33 -14t14 -33q0 -100 -1 -197t-1 -196h272q11 0 19 -8t8 -19v-120q0 -11 -8 -18.5t-19 -7.5h-859v-106q0 -18 -14 -31.5t-31 -13.5h-211q-18 0 -31.5 13.5t-13.5 31.5zM375 173 h281v131q0 3 -3.5 6t-9.5 3h-203q-26 0 -45.5 -18.5t-19.5 -44.5v-77z" />
<glyph unicode="&#x647;" horiz-adv-x="1647" arabic-form="initial" d="M-29 26v120q0 11 8.5 19t20.5 8h386v70q0 46 18 84.5t48.5 66.5t71 44t86.5 16h520v-281h118q9 0 15.5 6t6.5 14v373q0 8 -6.5 14.5t-15.5 6.5h-866v162h970q47 0 88 -18t72 -48.5t48.5 -72t17.5 -87.5v-485q0 -17 -12 -27.5t-26 -10.5h-848v-148h-306v148h-386 q-12 0 -20.5 7.5t-8.5 18.5zM690 191q0 -7 5.5 -12.5t12.5 -5.5h90q10 0 16 5.5t6 12.5v83q0 18 -22 18h-90q-7 0 -12.5 -5t-5.5 -13v-83z" />
<glyph unicode="&#x647;" horiz-adv-x="1847" arabic-form="medial" d="M-29 26v120q0 11 9 19t20 8h386v70q0 46 18 84.5t48.5 66.5t71 44t86.5 16h520v-281h118q9 0 15.5 6t6.5 14v373q0 8 -6.5 14.5t-15.5 6.5h-864v162h967q47 0 88.5 -18t72 -48.5t48.5 -72t18 -87.5v-350h269q11 0 19.5 -8t8.5 -19v-120q0 -11 -8.5 -18.5t-19.5 -7.5 h-1152v-148h-309v148h-386q-11 0 -20 7.5t-9 18.5zM690 191q0 -7 5.5 -12.5t12.5 -5.5h90q9 0 15.5 5.5t6.5 12.5v83q0 8 -6.5 13t-15.5 5h-90q-7 0 -12.5 -5t-5.5 -13v-83z" />
<glyph unicode="&#x648;" horiz-adv-x="1019" arabic-form="isolated" d="M68 0v234q0 46 18 87t48.5 71.5t71.5 48t88 17.5h656v-520q0 -46 -17.5 -87t-48.5 -71.5t-72 -48t-87 -17.5h-657v156h551q11 0 18.5 8t7.5 18v75q0 13 -7.5 21t-18.5 8h-551zM372 199q0 -12 7 -19.5t18 -7.5h222q11 0 18.5 7.5t7.5 19.5v75q0 11 -7.5 20t-18.5 9h-222 q-11 0 -18 -9t-7 -20v-75z" />
<glyph unicode="&#x648;" horiz-adv-x="1224" arabic-form="final" d="M69 0v236q0 46 18 87t49.5 72t73 48.5t88.5 17.5h659v-288h267q10 0 17.5 -8t7.5 -19v-120q0 -11 -7.5 -18.5t-17.5 -7.5h-267v-63q0 -46 -17.5 -87t-48.5 -71.5t-72 -48.5t-88 -18h-662v158h554q12 0 20 8t8 18v75q0 13 -8 21t-20 8h-554zM376 200q0 -12 6 -19.5 t17 -7.5h227q10 0 17.5 7.5t7.5 19.5v76q0 11 -7.5 19.5t-17.5 8.5h-227q-11 0 -17 -8.5t-6 -19.5v-76z" />
<glyph unicode="&#x649;" horiz-adv-x="1397" arabic-form="final" d="M69 -164v435q0 17 13.5 30.5t31.5 13.5h211q19 0 32 -13.5t13 -30.5v-391h516q-46 81 -91 162.5t-90 162.5q-9 17 -18 31t-18 30h50h222q15 0 23.5 -4t13.5 -11t10 -18t14 -24q10 -18 18 -26t21 -10.5t34.5 -1t58.5 1.5h263q11 0 18.5 -8t7.5 -19v-120q0 -11 -7.5 -18.5 t-18.5 -7.5h-269l62 -99q18 -27 22.5 -60t-4.5 -62.5t-31.5 -49t-59.5 -19.5h-1003q-18 0 -31.5 13t-13.5 30v83z" />
<glyph unicode="&#x64a;" horiz-adv-x="1639" arabic-form="isolated" d="M68 -163v433q0 17 14 30t31 13h211q20 0 32 -13t12 -30v-389h516l-330 571h750l267 -452h-322l-166 291h-124l225 -390q18 -26 23 -59t-3.5 -62t-31.5 -49t-60 -20h-788h-211q-16 0 -24.5 6.5t-13.5 14.5q-5 10 -7 22v83zM317 -490q0 30 11.5 56.5t31 46.5t46.5 31.5 t57 11.5t56 -11.5t46 -31.5t31.5 -46.5t11.5 -56.5t-11.5 -56t-31.5 -45t-46 -30t-56 -11t-57 11t-46.5 30t-31 45t-11.5 56zM648 -490q0 30 11.5 56.5t31 46.5t46 31.5t56.5 11.5q29 0 55.5 -11.5t46.5 -31.5t31.5 -46.5t11.5 -56.5t-11.5 -56t-31.5 -45t-46.5 -30 t-55.5 -11q-30 0 -56.5 11t-46 30t-31 45t-11.5 56z" />
<glyph unicode="&#x64a;" horiz-adv-x="1397" arabic-form="final" d="M69 -164v435q0 17 13.5 30.5t31.5 13.5h211q19 0 32 -13.5t13 -30.5v-391h516q-46 81 -91 162.5t-90 162.5q-9 17 -18 31t-18 30h50h222q15 0 23.5 -4t13.5 -11t10 -18t14 -24q10 -18 18 -26t21 -10.5t34.5 -1t58.5 1.5h263q11 0 18.5 -8t7.5 -19v-120q0 -11 -7.5 -18.5 t-18.5 -7.5h-269l62 -99q18 -27 22.5 -60t-4.5 -62.5t-31.5 -49t-59.5 -19.5h-1003q-18 0 -31.5 13t-13.5 30v83zM319 -492q0 30 11.5 56.5t31 46.5t46.5 31.5t57 11.5t56.5 -11.5t46.5 -31.5t31.5 -46.5t11.5 -56.5t-11.5 -56.5t-31.5 -46t-46.5 -30.5t-56.5 -11t-57 11 t-46.5 30.5t-31 46t-11.5 56.5zM651 -492q0 30 11.5 56.5t31 46.5t46.5 31.5t57 11.5t56 -11.5t45.5 -31.5t31 -46.5t11.5 -56.5t-11.5 -56.5t-31 -46t-45.5 -30.5t-56 -11t-57 11t-46.5 30.5t-31 46t-11.5 56.5z" />
<glyph unicode="&#x64a;" horiz-adv-x="698" arabic-form="initial" d="M-25 26v120q0 11 6.5 19t18.5 8h267v258q0 12 8 21t22 9h247q13 0 22 -9t9 -21v-400q0 -13 -9 -22t-22 -9h-544q-12 0 -18.5 7.5t-6.5 18.5zM14 -221q0 -30 11 -56.5t30.5 -46t46 -30.5t56.5 -11t56.5 11t46.5 30.5t31.5 46t11.5 56.5t-11.5 56.5t-31.5 46.5t-46.5 31.5 t-56.5 11.5t-56.5 -11.5t-46 -31.5t-30.5 -46.5t-11 -56.5zM337 -221q0 -30 11.5 -56.5t31.5 -46t46.5 -30.5t56.5 -11t57 11t46.5 30.5t31 46t11.5 56.5t-11.5 56.5t-31 46.5t-46.5 31.5t-57 11.5t-56.5 -11.5t-46.5 -31.5t-31.5 -46.5t-11.5 -56.5z" />
<glyph unicode="&#x64a;" horiz-adv-x="841" arabic-form="medial" d="M-25 26v120q0 11 7 19t18 8h267v258q0 12 9 21t21 9h247q13 0 22 -9t9 -21v-258h266q11 0 18.5 -8t7.5 -19v-120q0 -11 -7.5 -18.5t-18.5 -7.5h-841q-11 0 -18 7.5t-7 18.5zM15 -221q0 -30 11.5 -56.5t31.5 -46t46.5 -30.5t56.5 -11t56 11t45.5 30.5t30.5 46t11 56.5 t-11 56.5t-30.5 46.5t-45.5 31.5t-56 11.5t-56.5 -11.5t-46.5 -31.5t-31.5 -46.5t-11.5 -56.5zM337 -221q0 -30 11.5 -56.5t31.5 -46t46.5 -30.5t56.5 -11t57 11t46.5 30.5t31 46t11.5 56.5t-11.5 56.5t-31 46.5t-46.5 31.5t-57 11.5t-56.5 -11.5t-46.5 -31.5t-31.5 -46.5 t-11.5 -56.5z" />
<glyph unicode="&#xd;" horiz-adv-x="682" />
<glyph unicode=" "  horiz-adv-x="225" />
<glyph unicode="&#x09;" horiz-adv-x="225" />
<glyph unicode="&#xa0;" horiz-adv-x="225" />
<glyph unicode="!" horiz-adv-x="356" d="M60 47v123q0 20 14 33t31 13h143q20 0 34 -13t14 -33v-123q0 -20 -14 -33.5t-34 -13.5h-143q-17 0 -31 13.5t-14 33.5zM60 386v641q0 17 14 31t31 14h143q20 0 34 -14t14 -31v-641q0 -20 -14 -33.5t-34 -13.5h-143q-17 0 -31 13.5t-14 33.5z" />
<glyph unicode="&#x22;" horiz-adv-x="405" d="M50 1074q30 183 3 352l137 45q-5 -159 -38 -389zM220 1074q30 183 3 352l137 45q-5 -159 -38 -389z" />
<glyph unicode="#" horiz-adv-x="1016" d="M60 230l40 227h119l24 140h-183l40 227h183l43 245h241l-44 -245h74l43 245h241l-43 -245h118l-40 -227h-118l-25 -140h183l-40 -227h-183l-40 -230h-241l41 230h-74l-40 -230h-241l41 230h-119zM459 457h74l24 140h-74z" />
<glyph unicode="$" horiz-adv-x="965" d="M60 635v208q0 102 60 165q58 61 149 61h99v76h228v-76h241v-231h-241v-186h148q76 0 121 -62q40 -56 40 -152v-224q0 -105 -62 -160q-60 -54 -147 -54h-100v-77h-228v77h-280v230h280v192h-137q-87 0 -129 51q-42 49 -42 162zM282 652h86v186h-86v-186zM596 230h87v192 h-87v-192z" />
<glyph unicode="%" horiz-adv-x="1579" d="M60 667v192q0 90 52 150t142 60h229q69 0 111 -58q37 -51 37 -141v-207q0 -93 -58 -144q-56 -49 -136 -49h-218q-81 0 -120 47q-39 46 -39 150zM265 682h161v174h-161v-174zM377 0l552 1069h277l-552 -1069h-277zM948 197v193q0 89 52.5 148.5t141.5 59.5h229 q69 0 111 -56q37 -52 37 -141v-207q0 -93 -58 -144q-55 -50 -135 -50h-219q-80 0 -120 46q-39 47 -39 151zM1154 212h160v174h-160v-174z" />
<glyph unicode="&#x26;" horiz-adv-x="1091" d="M60 214v278q0 97 40 152q36 48 89 58v141q0 101 61 165q57 61 148 61h193v-3q66 -10 113 -58q60 -65 60 -165v-154q0 -112 -41 -163q-27 -29 -68 -42l99 -150l66 97l161 -176l-92 -132l142 -209h-257l-57 86h-449q-87 0 -145 54q-63 54 -63 160zM282 220h290l-169 256 h-121v-256zM411 706h132v132h-132v-132z" />
<glyph unicode="'" horiz-adv-x="260" d="M60 680q30 183 3 352l137 45q-5 -159 -38 -389z" />
<glyph unicode="(" horiz-adv-x="358" d="M60 132v931q0 27 10 51t28 41.5t42 28t52 10.5h106v-97h-65q-7 0 -12.5 -9t-5.5 -23v-935q0 -15 5.5 -24t12.5 -9h65v-97h-106q-28 0 -52 10.5t-42 28.5t-28 42t-10 51z" />
<glyph unicode=")" horiz-adv-x="358" d="M60 0v97h64q7 0 13 9t6 24v935q0 14 -6 23t-13 9h-64v97h106q27 0 51 -10.5t42 -28t28.5 -41.5t10.5 -51v-931q0 -27 -10.5 -51t-28.5 -42t-42 -28.5t-51 -10.5h-106z" />
<glyph unicode="*" horiz-adv-x="844" d="M60 1082l58 241l200 -88l-13 218h239l-14 -218l196 88l58 -241l-204 -25l138 -160l-189 -138l-107 209l-107 -209l-189 138l138 160z" />
<glyph unicode="+" horiz-adv-x="818" d="M60 304v92q0 8 7 14.5t15 6.5h259v259q0 9 6.5 16t17.5 7h90q11 0 17 -7t6 -16v-259h259q9 0 15 -6.5t6 -14.5v-92q0 -11 -6 -17t-15 -6h-259v-260q0 -9 -6 -15t-17 -6h-90q-11 0 -17.5 6t-6.5 15v260h-259q-8 0 -15 6t-7 17z" />
<glyph unicode="," horiz-adv-x="307" d="M60 227v96q0 16 10.5 25.5t27.5 9.5h113q14 0 25 -9.5t11 -25.5v-233q0 -38 -26.5 -64t-63.5 -26h-90v59h67q11 0 11 9v121h-47q-17 0 -27.5 10.5t-10.5 27.5z" />
<glyph unicode="-" horiz-adv-x="819" d="M60 304v92q0 8 7.5 14.5t15.5 6.5h656q8 0 14 -6.5t6 -14.5v-92q0 -9 -6 -16t-14 -7h-656q-8 0 -15.5 7t-7.5 16z" />
<glyph unicode="." horiz-adv-x="305" d="M60 38v97q0 14 10.5 24.5t26.5 10.5h114q14 0 24 -10.5t10 -24.5v-97q0 -17 -10 -27.5t-24 -10.5h-114q-16 0 -26.5 10.5t-10.5 27.5z" />
<glyph unicode="/" horiz-adv-x="802" d="M52 0l453 1209h245l-455 -1209h-243z" />
<glyph unicode="0" horiz-adv-x="1094" d="M52 178v551q0 89 69.5 142.5t175.5 53.5h576q79 0 124 -52t45 -127v-561q0 -88 -72 -136.5t-172 -48.5h-577q-83 0 -126 49.5t-43 128.5zM311 199h474v516h-474v-516z" />
<glyph unicode="1" horiz-adv-x="363" d="M52 0v925h259v-925h-259z" />
<glyph unicode="2" horiz-adv-x="1094" d="M52 0v189q0 79 32.5 132t95.5 80l541 206q25 11 43 19.5t20 26.5v62h-655v210h669q99 0 171.5 -51t72.5 -134v-136q0 -101 -126 -146l-577 -221q-27 -10 -28 -38h731v-199h-990z" />
<glyph unicode="3" horiz-adv-x="1092" d="M52 0v199h729v104q0 58 -22.5 82t-63.5 25h-643v198h681q20 0 34.5 13.5t14.5 37.5v56h-730v210h821q79 0 123 -50t45 -129v-17q-1 -98 -31 -151.5t-64 -66.5q17 -4 53 -43t41 -119v-166q0 -82 -73 -132.5t-172 -50.5h-743z" />
<glyph unicode="4" horiz-adv-x="1094" d="M52 417v508h259v-487h473v487h258v-925h-258v237h-563q-84 0 -126.5 50t-42.5 130z" />
<glyph unicode="5" horiz-adv-x="1092" d="M52 0v199h729v211h-729v515h911v-210h-651v-107h559q63 0 116.5 -49t53.5 -119v-255q0 -84 -73 -134.5t-172 -50.5h-744z" />
<glyph unicode="6" horiz-adv-x="1094" d="M52 185v544q0 89 69.5 142.5t175.5 53.5h667v-210h-652v-107h561q68 0 118.5 -49t50.5 -119v-255q0 -84 -73 -134.5t-171 -50.5h-577q-83 0 -126 54t-43 131zM312 199h472v211h-472v-211z" />
<glyph unicode="7" horiz-adv-x="1094" d="M52 0v186q2 93 31 139.5t96 75.5l542 206q29 11 46 21.5t17 21.5v65h-732v210h990v-323q-3 -99 -126 -144l-577 -221q-28 -10 -28 -48v-189h-259z" />
<glyph unicode="8" horiz-adv-x="1092" d="M52 185v140q1 95 38 140t54 48q-16 7 -47.5 43.5t-37 72t-7.5 65.5v35q0 94 69.5 145t163.5 51h510q118 0 179 -45t67 -151v-10q0 -99 -32 -149t-51 -56q13 -3 48 -48.5t35 -132.5v-131q0 -107 -73.5 -154.5t-172.5 -47.5h-573q-81 0 -125.5 44t-44.5 141zM311 198h470 v104q-1 70 -26.5 88.5t-59.5 18.5h-297q-35 0 -60 -18.5t-27 -88.5v-104zM311 659q0 -24 15 -37.5t34 -13.5h374q19 0 33 13t14 38v55h-470v-55z" />
<glyph unicode="9" horiz-adv-x="1094" d="M52 484v256q0 83 73.5 134t172.5 51h575q79 -1 124 -56t45 -130v-544q0 -89 -70 -142t-174 -53h-667v199h653v115h-562q-68 2 -119 47t-51 123zM312 510h472v203h-472v-203z" />
<glyph unicode=":" horiz-adv-x="305" d="M60 38v97q0 14 10.5 24.5t26.5 10.5h114q14 0 24 -10.5t10 -24.5v-97q0 -17 -10 -27.5t-24 -10.5h-114q-16 0 -26.5 10.5t-10.5 27.5zM60 360v97q0 16 10.5 27t26.5 11h114q14 0 24 -11t10 -27v-97q0 -14 -10 -24.5t-24 -10.5h-114q-16 0 -26.5 10.5t-10.5 24.5z" />
<glyph unicode=";" horiz-adv-x="369" d="M66 287v121q0 21 14 33t34 12h143q19 0 32 -12t13 -33v-294q0 -24 -9 -44.5t-24.5 -36t-36 -24.5t-43.5 -9h-114v75h84q15 0 15 11v153h-60q-20 0 -34 14t-14 34zM66 631v123q0 21 14 34.5t34 13.5h143q19 0 32 -13.5t13 -34.5v-123q0 -17 -13 -31.5t-32 -14.5h-143 q-20 0 -34 14.5t-14 31.5z" />
<glyph unicode="&#x3c;" horiz-adv-x="1074" d="M60 184l954 271v207l-954 274v-242l507 -135l-507 -133v-242z" />
<glyph unicode="=" horiz-adv-x="705" d="M60 220v77q0 7 5.5 12.5t14.5 5.5h546q9 0 14 -5.5t5 -12.5v-77q0 -8 -5 -14t-14 -6h-546q-9 0 -14.5 6t-5.5 14zM60 417v75q0 19 20 19h546q19 0 19 -19v-75q0 -19 -19 -19h-546q-20 0 -20 19z" />
<glyph unicode="&#x3e;" horiz-adv-x="1074" d="M60 455v207l954 274v-242l-508 -135l508 -133v-242z" />
<glyph unicode="?" horiz-adv-x="796" d="M60 942v130h468q42 0 80 -16t66.5 -44t45 -65.5t16.5 -79.5v-222q0 -42 -16.5 -79.5t-45 -65.5t-66.5 -44t-80 -16h-181v-54q0 -20 -14 -33.5t-33 -13.5h-142q-20 0 -33.5 13.5t-13.5 33.5v140q0 19 13.5 33t33.5 14h318q11 0 18.5 7t7.5 18v316q0 11 -7.5 19.5 t-18.5 8.5h-416zM111 47v123q0 20 13.5 33t33.5 13h142q19 0 33 -13t14 -33v-123q0 -20 -14 -33.5t-33 -13.5h-142q-20 0 -33.5 13.5t-13.5 33.5z" />
<glyph unicode="@" horiz-adv-x="1359" d="M60 433q0 288 186 464q179 169 452 169q269 0 433 -146q168 -150 168 -408q0 -183 -94 -292q-88 -102 -220 -102q-144 0 -202 83q-125 -81 -214 -81q-80 0 -129 51q-46 49 -46 126q0 117 90 176l265 20v37q0 82 -103 82q-77 0 -158 -48l-57 150q132 75 275 75 q243 0 243 -219l-4 -238q0 -79 71 -79q56 0 94 70q40 73 40 184q0 206 -127 315q-119 103 -328 103q-220 0 -353 -134q-131 -133 -131 -354q0 -209 120 -327q115 -113 306 -113q123 0 194 27l18 -145q-96 -28 -217 -28q-247 0 -405 152q-167 160 -167 430zM604 334 q0 -68 62 -68q32 0 79 19l2 97l-136 -13q-7 -19 -7 -35z" />
<glyph unicode="A" horiz-adv-x="1197" d="M52 0v804q0 96 79 157q75 58 193 58h635q87 0 137 -59q49 -52 49 -138v-822h-286v452h-520v-452h-287zM339 669h520v116h-520v-116z" />
<glyph unicode="B" d="M52 0v1019h907q85 0 135 -56q48 -55 50 -140v-19q-2 -112 -35 -167q-31 -59 -70 -75q22 -4 59 -46q39 -45 44 -132v-182q0 -90 -80 -148q-79 -54 -190 -54h-820zM338 219h520v114q-3 66 -28 91q-21 26 -69 28h-423v-233zM338 671h466q24 0 37 14q17 16 17 42v61h-520 v-117z" />
<glyph unicode="C" horiz-adv-x="1197" d="M52 196v608q0 96 79 157q75 58 193 58h821v-231h-807v-569h807v-219h-904q-94 0 -141 54q-48 55 -48 142z" />
<glyph unicode="D" d="M52 0v1019h906q85 0 138 -59q48 -57 48 -138v-618q0 -99 -82 -153q-80 -51 -187 -51h-823zM338 219h520v569h-520v-569z" />
<glyph unicode="E" d="M52 196v608q0 96 79 157q75 58 193 58h820v-231h-806v-118h716v-218h-716v-233h806v-219h-902q-95 0 -142 54q-48 55 -48 142z" />
<glyph unicode="F" d="M52 0v804q0 98 79 157q76 58 191 58h822v-231h-806v-118h716v-218h-716v-452h-286z" />
<glyph unicode="G" d="M52 204v600q0 98 79 157q73 58 191 58h737v-231h-721v-569h520v451h100q75 0 129 -54q57 -54 57 -131v-281q0 -92 -81 -150q-79 -54 -188 -54h-637q-89 0 -139 59q-47 61 -47 145z" />
<glyph unicode="H" d="M52 0v1019h286v-347h520v347h286v-1019h-286v452h-520v-452h-286z" />
<glyph unicode="I" horiz-adv-x="390" d="M52 0v1019h286v-1019h-286z" />
<glyph unicode="J" d="M52 204v279h286v-264h520v800h286v-815q0 -84 -46 -145q-50 -59 -140 -59h-636q-109 0 -188 54q-82 58 -82 150z" />
<glyph unicode="K" d="M52 0v1019h286v-349h106q58 0 74.5 11t42.5 47l202 291h310l-245 -349h130q72 0 129 -54q57 -56 57 -130v-486h-286v452h-520v-452h-286z" />
<glyph unicode="L" d="M52 0v1019h286v-800h806v-219h-1092z" />
<glyph unicode="M" horiz-adv-x="1493" d="M52 0v1019h1202q90 -5 141 -59q46 -50 46 -138v-822h-285v788h-268v-788h-284v788h-266v-788h-286z" />
<glyph unicode="N" d="M52 0v1019h905q86 0 138 -59q49 -55 49 -137v-823h-286v788h-520v-788h-286z" />
<glyph unicode="O" d="M52 196v608q0 98 79 157q73 58 191 58h636q85 0 138 -59q48 -54 48 -138v-618q0 -99 -82 -153q-80 -51 -187 -51h-637q-89 0 -139 54q-47 52 -47 142zM338 219h520v569h-520v-569z" />
<glyph unicode="P" d="M52 0v1019h906q87 0 138 -59q48 -54 48 -138v-364q0 -87 -45 -139q-49 -59 -141 -59h-620v-260h-286zM338 483h520v305h-520v-305z" />
<glyph unicode="Q" horiz-adv-x="1197" d="M52 196v608q0 96 79 157q75 58 191 58h636q87 0 138 -59q49 -56 49 -138v-618q0 -99 -81 -153q-81 -51 -189 -51h-7v-90h-287v90h-339q-91 0 -142 54q-48 55 -48 142zM338 219h520v569h-520v-569z" />
<glyph unicode="R" horiz-adv-x="1194" d="M52 0v1019h906q85 0 136 -56q48 -60 48 -141v-18q0 -106 -33 -166q-31 -59 -73 -76q23 -3 62 -46q40 -45 44 -132v-384h-287v332q0 68 -24 91q-21 27 -71 29h-422v-452h-286zM338 670h465q23 0 40 15q12 14 12 42v61h-517v-118z" />
<glyph unicode="S" d="M52 0v219h806v233h-585q-113 1 -167 48.5t-54 153.5v150q0 96 79 157q76 58 191 58h739v-231h-723v-118h598q105 -5 156.5 -58t51.5 -145v-263q0 -98 -80 -152q-81 -52 -189 -52h-823z" />
<glyph unicode="T" d="M52 788v231h1092v-231h-406v-788h-287v788h-399z" />
<glyph unicode="U" d="M52 204v815h286v-800h520v800h286v-817q0 -91 -81 -148q-78 -54 -188 -54h-635q-93 0 -141 59q-47 61 -47 145z" />
<glyph unicode="V" horiz-adv-x="1200" d="M52 0v1019h286v-800h265l258 800h287l-258 -820q-9 -37 -43.5 -117t-144.5 -82h-650z" />
<glyph unicode="W" horiz-adv-x="1493" d="M52 0v1019h286v-800h266v800h284v-800h268v800h285v-823q0 -88 -46 -140q-49 -51 -141 -56h-1202z" />
<glyph unicode="X" d="M52 0v358q0 107 42 155q41 48 63 53q0 1 -43 34q-47 38 -55 95q-5 28 -6 55t-1 54v215h286v-292q0 -30 17 -42q14 -15 36 -15h412q24 0 37 15q15 14 18 42v292h286v-226q-2 -108 -37 -165q-38 -57 -57 -62q16 -4 54 -54q38 -49 40 -146v-366h-286v332q-3 78 -31 96 q-29 23 -67 23h-327q-39 0 -66 -22q-29 -22 -29 -97v-332h-286z" />
<glyph unicode="Y" d="M52 460v559h286v-536h520v536h286v-561q-4 -82 -48 -135q-49 -57 -138 -63h-218v-260h-285v260h-202q-90 0 -142 49q-59 43 -59 151z" />
<glyph unicode="Z" d="M52 0v255q2 47 10 86.5t37 71.5q32 40 93 62l635 245q28 9 32 45v23h-807v231h1092v-254q-4 -97 -34 -144q-33 -54 -107 -84l-596 -226q-36 -14 -53 -26q-17 -11 -17 -24v-42h807v-219h-1092z" />
<glyph unicode="[" horiz-adv-x="477" d="M52 -82v1185h222v-7h152v-227h-152v-722h152v-229h-374z" />
<glyph unicode="\" horiz-adv-x="652" d="M52 1019h244l304 -1019h-242z" />
<glyph unicode="]" horiz-adv-x="477" d="M52 -82v229h152v722h-152v227h152v7h222v-1185h-374z" />
<glyph unicode="^" horiz-adv-x="554" d="M52 676l121 342h206l123 -342h-162l-63 177l-63 -177h-162z" />
<glyph unicode="_" horiz-adv-x="1133" d="M52 -12h1029v-203h-1029v203z" />
<glyph unicode="`" horiz-adv-x="406" d="M52 1018h218l84 -278h-164z" />
<glyph unicode="a" d="M52 204v148q0 80 53 130.5t133 57.5h621v66h-720v231h736q115 0 192 -58t77 -157v-622h-820q-109 0 -190.5 56t-81.5 148zM338 219h521v100h-521v-100z" />
<glyph unicode="b" d="M52 0v1019h286v-182h620q78 -3 131 -55.5t55 -129.5v-448q0 -92 -80 -148t-189 -56h-823zM338 219h522v393h-522v-393z" />
<glyph unicode="c" horiz-adv-x="1194" d="M52 204v438q3 97 56.5 143t129.5 52h822v-231h-722v-387h804v-219h-820q-109 0 -189.5 56t-80.5 148z" />
<glyph unicode="d" horiz-adv-x="1194" d="M52 204v447q0 79 56.5 132.5t131.5 53.5h617v182h285v-1019h-820q-109 0 -189.5 56t-80.5 148zM338 219h519v393h-519v-393z" />
<glyph unicode="e" horiz-adv-x="1193" d="M52 204v436q0 91 53.5 142t134.5 55h631q117 0 193.5 -58t76.5 -157v-303h-803v-100h721v-219h-737q-109 0 -189.5 56t-80.5 148zM338 540h517v66h-517v-66z" />
<glyph unicode="f" horiz-adv-x="663" d="M52 0v821q2 80 54 139t135 59h306q-192 -98 -206 -182h271v-225h-274v-612h-286z" />
<glyph unicode="g" horiz-adv-x="1194" d="M52 202v438q0 95 47 145t141 52h902v-821q-6 -72 -52.5 -134t-134.5 -65h-298q195 116 198 181h-533q-109 0 -189.5 56t-80.5 148zM338 219h519v387h-519v-387z" />
<glyph unicode="h" horiz-adv-x="1194" d="M52 0v1019h286v-182h617q69 -1 126 -52.5t61 -132.5v-652h-285v612h-519v-612h-286z" />
<glyph unicode="i" horiz-adv-x="390" d="M52 0v799h286v-799h-286zM52 852v167h286v-167h-286z" />
<glyph unicode="j" horiz-adv-x="586" d="M52 -183q195 128 196 204v778h287v-783q-4 -69 -54 -133.5t-134 -65.5h-295zM248 852v167h287v-167h-287z" />
<glyph unicode="k" horiz-adv-x="1112" d="M52 0v1019h284v-421q10 21 72 110t120 129h353q-76 -51 -130.5 -113.5t-89.5 -113.5t-43 -72h255q90 0 137.5 -52.5t49.5 -129.5v-356h-286v319h-438v-319h-284z" />
<glyph unicode="l" horiz-adv-x="390" d="M52 0v1019h286v-1019h-286z" />
<glyph unicode="m" horiz-adv-x="1494" d="M52 0v837h1203q94 -6 140.5 -58t46.5 -139v-640h-285v606h-268v-606h-285v606h-266v-606h-286z" />
<glyph unicode="n" horiz-adv-x="1194" d="M52 0v837h906q89 -6 136.5 -60t47.5 -137v-640h-282v606h-522v-606h-286z" />
<glyph unicode="o" d="M52 195v427q0 99 77.5 157t192.5 58h636q90 -2 138 -56t48 -139v-438q0 -92 -81 -148t-190 -56h-633q-91 3 -139.5 51t-48.5 144zM338 219h519v387h-519v-387z" />
<glyph unicode="p" horiz-adv-x="1194" d="M52 -182v1018h821q117 0 192.5 -58t76.5 -157v-426q-1 -88 -49.5 -140.5t-137.5 -55.5h-619v-181h-284zM336 219h519v386h-519v-386z" />
<glyph unicode="q" horiz-adv-x="1194" d="M52 195v426q0 99 77.5 157t192.5 58h820v-1018h-285v181h-617q-83 3 -135.5 49.5t-52.5 146.5zM338 219h519v386h-519v-386z" />
<glyph unicode="r" horiz-adv-x="687" d="M52 0v837h286v-50q70 50 135 50h162v-231h-297v-606h-286z" />
<glyph unicode="s" horiz-adv-x="1194" d="M52 0v219h805v100h-617q-90 0 -139 57.5t-49 137.5v108q0 99 77 157t191 58h738v-231h-720v-66h804v-336q0 -92 -80 -148t-189 -56h-821z" />
<glyph unicode="t" horiz-adv-x="663" d="M52 196v823h286v-182h274v-231h-274v-387h274v-219h-370q-80 0 -134 44.5t-56 151.5z" />
<glyph unicode="u" horiz-adv-x="1194" d="M52 196v641h286v-606h519v606h285v-837h-285v51q-67 -51 -136 -51h-480q-97 3 -143 56t-46 140z" />
<glyph unicode="v" horiz-adv-x="1201" d="M52 0v837h286v-606h270l254 606h287l-262 -647q-28 -63 -58.5 -126.5t-126.5 -63.5h-650z" />
<glyph unicode="w" horiz-adv-x="1494" d="M52 0v837h286v-606h267v606h284v-606h268v606h285v-641q0 -98 -50 -146.5t-138 -49.5h-1202z" />
<glyph unicode="x" horiz-adv-x="1158" d="M52 0q111 109 149.5 166t74.5 120t51 98l-264 453h292q61 -104 124 -222t84 -118q5 0 31 48.5t61 113t79.5 121.5t96.5 57h275q-109 -111 -148.5 -170t-76 -122.5t-51.5 -97.5l267 -447h-293q-33 54 -67 112t-63.5 109t-51.5 84l-23 33q-8 0 -33 -49t-59.5 -113t-79 -120 t-96.5 -56h-279z" />
<glyph unicode="y" horiz-adv-x="1194" d="M52 202v634h286v-617h519v617h285v-821q-6 -75 -56 -134.5t-131 -63.5h-295q195 124 197 181h-535q-109 0 -189.5 55.5t-80.5 148.5z" />
<glyph unicode="z" horiz-adv-x="1194" d="M52 0v204q0 49 29.5 73t60.5 40q143 79 287 159l234 130h-568v231h1047v-161q0 -45 -20 -63.5t-53 -36.5q-168 -93 -343 -189t-302 -168h718v-219h-1090z" />
<glyph unicode="{" horiz-adv-x="656" d="M80 454v274q188 0 188 94q0 49 -79 239t-79 285q0 345 370 345q67 0 126 -9v-241q-37 2 -83 2q-135 0 -135 -134q0 -56 78 -222q77 -166 77 -256q0 -101 -47 -151q-58 -61 -208 -79v-20q151 -19 208 -79q47 -50 47 -153q0 -83 -77 -252q-78 -170 -78 -224 q0 -134 135 -134q44 0 83 2v-240q-70 -9 -126 -9q-370 0 -370 345q0 89 79 282q79 194 79 244q0 91 -188 91z" />
<glyph unicode="|" horiz-adv-x="304" d="M40 -217v1562h224v-1562h-224z" />
<glyph unicode="}" horiz-adv-x="656" d="M80 -259q39 -2 83 -2q135 0 135 134q0 54 -78 224q-77 169 -77 252q0 103 47 153q57 60 208 79v20q-150 18 -208 79q-47 50 -47 151q0 90 77 256q78 166 78 222q0 134 -135 134q-46 0 -83 -2v241q59 9 126 9q370 0 370 -345q0 -95 -79 -285t-79 -239q0 -94 188 -94v-274 q-188 0 -188 -91q0 -50 79 -244q79 -193 79 -282q0 -345 -370 -345q-56 0 -126 9v240z" />
<glyph unicode="~" horiz-adv-x="774" d="M60 284q48 215 177 215q52 0 149 -40q98 -41 134 -41q54 0 79 96l115 -26q-13 -102 -61 -163q-47 -59 -113 -59q-55 0 -158 40q-103 39 -134 39q-51 0 -84 -92z" />
<glyph unicode="&#xa9;" horiz-adv-x="1171" d="M60 543q0 221 153 373q152 152 374 152q221 0 373 -152q151 -152 151 -373t-151 -373q-152 -152 -373 -152q-222 0 -374 152q-153 152 -153 373zM149 543q0 -186 126 -314t312 -128q185 0 310 128q125 127 125 314q0 186 -125 313q-125 128 -310 128q-186 0 -312 -128 q-126 -127 -126 -313zM298 538q0 154 98 240q87 78 221 78q122 0 196 -41l-34 -144q-71 40 -160 40q-154 0 -154 -168q0 -154 162 -154q86 0 164 44l27 -149q-83 -39 -194 -39q-143 0 -232 74q-94 79 -94 219z" />
<glyph unicode="&#xad;" horiz-adv-x="819" d="M60 304v92q0 8 7.5 14.5t15.5 6.5h656q8 0 14 -6.5t6 -14.5v-92q0 -9 -6 -16t-14 -7h-656q-8 0 -15.5 7t-7.5 16z" />
<glyph unicode="&#xbc;" horiz-adv-x="1584" d="M60 415v152h168v394l-145 -29l-15 139l198 42h142v-546h140v-152h-488zM484 0l559 1105h183l-558 -1105h-184zM972 309l301 399l175 -10l-324 -419h149v150h169v-150h82v-135h-82v-144h-169v144h-286z" />
<glyph unicode="&#xbd;" horiz-adv-x="1719" d="M60 415v152h168v394l-145 -29l-15 139l198 42h142v-546h140v-152h-488zM484 0l559 1105h183l-558 -1105h-184zM1130 0v139q184 121 251 189q69 71 69 140q0 94 -110 94q-81 0 -162 -35l-26 142q87 42 221 42q116 0 186 -56q73 -58 73 -159q0 -182 -258 -344h285l-14 -152 h-515z" />
<glyph unicode="&#xbe;" horiz-adv-x="1584" d="M60 558l133 80q64 -88 152 -88q44 0 75 19q35 22 35 62q0 42 -35 64q-32 19 -83 19h-63v131h78q85 0 85 61q0 25 -17 44q-23 26 -68 26q-89 0 -140 -100l-144 58q84 183 294 183q118 0 185 -55q62 -51 62 -128q0 -102 -100 -143v-4q56 -17 89 -61q35 -48 35 -117 q0 -72 -46 -123q-72 -77 -232 -77q-81 0 -136 20q-95 34 -159 129zM484 0l559 1105h183l-558 -1105h-184zM972 309l301 399l175 -10l-324 -419h149v150h169v-150h82v-135h-82v-144h-169v144h-286z" />
<glyph unicode="&#x60c;" horiz-adv-x="337" d="M66 42v254q0 42 28.5 70t70.5 28h98v-63h-72q-5 0 -9.5 -3t-4.5 -9v-132h52q18 0 30 -11t12 -28v-106q0 -18 -12 -30t-30 -12h-123q-16 0 -28 12t-12 30z" />
<glyph unicode="&#x61b;" horiz-adv-x="338" d="M66 42v106q0 15 12 27t28 12h124q18 0 30 -12t12 -27v-106q0 -18 -12 -30t-30 -12h-124q-16 0 -28 12t-12 30zM66 342v256q0 20 8 38t21.5 31.5t31.5 21.5t38 8h99v-65h-74q-5 0 -8.5 -3t-3.5 -6v-133h52q18 0 30 -12t12 -30v-106q0 -17 -12 -27.5t-30 -10.5h-124 q-16 0 -28 10.5t-12 27.5z" />
<glyph unicode="&#x61f;" horiz-adv-x="796" d="M60 645v222q0 42 16.5 79.5t45 65.5t66.5 44t80 16h468v-130h-416q-11 0 -18.5 -8.5t-7.5 -19.5v-316q0 -11 7.5 -18t18.5 -7h318q20 0 33.5 -14t13.5 -33v-140q0 -20 -13.5 -33.5t-33.5 -13.5h-142q-19 0 -33 13.5t-14 33.5v54h-181q-42 0 -80 16t-66.5 44t-45 65.5 t-16.5 79.5zM449 47v123q0 20 14 33t33 13h142q20 0 33.5 -13t13.5 -33v-123q0 -20 -13.5 -33.5t-33.5 -13.5h-142q-19 0 -33 13.5t-14 33.5z" />
<glyph unicode="&#x640;" horiz-adv-x="270" d="M-28 26v120q0 11 8 19.5t20 8.5h270q11 0 17.5 -8.5t6.5 -19.5v-120q0 -11 -6.5 -18.5t-17.5 -7.5h-270q-12 0 -20 7.5t-8 18.5z" />
<glyph unicode="&#x64c;" horiz-adv-x="0" d="M-293 126q5 18 31 39q17 12 40 18.5t46.5 5t44.5 -11.5t35 -30l62 -76q0 -11 -4 -21t-12 -16q-10 -7 -21.5 -9t-22.5 3l-64 80q-11 13 -30 15t-33 -10q-23 -19 -41.5 -21t-27 7t-3.5 27zM-205 39q3 17 15 20t27.5 -7t26.5 -32q10 -15 25 -22t31 0l90 44l-35 69 q-8 19 -1 39.5t26 28.5l92 45l6 5q19 10 39.5 3t28.5 -27l43 -83q8 -20 2.5 -40t-25.5 -30l-94 -47l-131 -64q-20 -11 -40.5 -12.5t-40.5 3.5q-23 7 -42 21.5t-32 37.5q-14 31 -11 48zM37 120l22 -49l33 14l56 28l-25 52q0 7 -10 3l-73 -37q-6 -3 -3 -11z" />
<glyph unicode="&#x660;" horiz-adv-x="360" d="M60 144v124q0 20 13.5 33.5t33.5 13.5h146q20 0 33.5 -13.5t13.5 -33.5v-124q0 -20 -13.5 -33.5t-33.5 -13.5h-146q-20 0 -33.5 13.5t-13.5 33.5z" />
<glyph unicode="&#x661;" horiz-adv-x="360" d="M60 29v1016q0 11 7 19t16 8h193q10 0 17 -8t7 -19v-1016q0 -13 -7 -21t-17 -8h-193q-9 0 -16 8t-7 21z" />
<glyph unicode="&#x662;" horiz-adv-x="794" d="M60 0v897q0 38 14.5 71.5t39.5 58.5t58 39.5t70 14.5h492v-148h-436v-933h-238z" />
<glyph unicode="&#x663;" horiz-adv-x="921" d="M60 29v1016q0 11 6.5 19t16.5 8h194q9 0 15 -8t6 -19v-270h111v297h167v-297h118v297h167v-254q0 -37 -14.5 -70t-39.5 -57.5t-58 -38.5t-70 -14h-381v-609q0 -13 -6 -21t-15 -8h-194q-10 0 -16.5 8t-6.5 21z" />
<glyph unicode="&#x664;" horiz-adv-x="804" d="M62.5 900q-4.5 39 12.5 73.5t49 61t68 37.5h517q14 0 24.5 -9t10.5 -20v-90q0 -12 -10.5 -19.5t-24.5 -7.5h-434l290 -222q8 -5 15 -13q6 -7 12 -18t8 -28v-221q-3 -28 -14 -40l-318 -240h441q14 0 24.5 -8t10.5 -21v-90q0 -12 -10.5 -19.5t-24.5 -7.5h-465h-9h-7 q-26 0 -53.5 12t-50.5 31t-39.5 44t-21.5 53t4 56.5t37 55.5q76 76 159.5 146t166.5 141q-83 71 -166.5 141t-159.5 147q-37 36 -41.5 75z" />
<glyph unicode="&#x665;" horiz-adv-x="921" d="M60 155v768q0 31 12.5 60t34 50.5t50.5 34.5t61 13h485q33 0 61.5 -13t50 -34.5t34 -50.5t12.5 -60v-768q0 -33 -12.5 -61.5t-34 -49.5t-50 -33.5t-61.5 -12.5h-485q-32 0 -61 12.5t-50.5 33.5t-34 49.5t-12.5 61.5zM287 186q0 -18 7 -29t18 -11h148h151q10 0 17 11t7 29 v706q0 17 -7 29t-17 12h-299q-11 0 -18 -12t-7 -29v-706z" />
<glyph unicode="&#x666;" horiz-adv-x="791" d="M60 933v148h490q37 0 70 -14.5t57.5 -39.5t39 -58.5t14.5 -71.5v-897h-237v933h-434z" />
<glyph unicode="&#x667;" horiz-adv-x="956" d="M61 1045q-2 11 2.5 19t15.5 8h193q10 0 18.5 -8t10.5 -19l176 -854l179 854q2 11 10 19t19 8h193q9 0 14.5 -8t1.5 -19l-209 -1016q-2 -13 -11 -21t-18 -8h-162h-31h-162q-9 0 -18 8t-11 21z" />
<glyph unicode="&#x668;" horiz-adv-x="956" d="M61 29l211 1016q2 11 11 19t18 8h353q11 0 18.5 -8t9.5 -19l213 -1016q2 -13 -3 -21t-15 -8h-195q-9 0 -16.5 8t-11.5 21l-177 852l-176 -852q-2 -13 -11 -21t-18 -8h-193q-11 0 -15.5 8t-2.5 21z" />
<glyph unicode="&#x669;" horiz-adv-x="810" d="M60 620v277q0 38 14 71.5t38.5 58.5t57.5 39.5t70 14.5h329q38 -1 71 -15.5t57.5 -39.5t38.5 -58t14 -71v-897h-238v436h-272q-37 0 -70 14.5t-57.5 39.5t-38.5 58.5t-14 71.5zM283 612q0 -11 8 -18t19 -7h202v343h-202q-11 0 -19 -7.5t-8 -20.5v-290z" />
<glyph unicode="&#x66a;" horiz-adv-x="1144" d="M120 -39q-4 12 3 23l758 1182q6 11 17.5 14t20.5 -2l101 -59q11 -5 14.5 -17t-2.5 -21l-758 -1185q-7 -10 -18.5 -13t-22.5 2l-101 59q-8 5 -12 17zM196 811v138q0 22 15.5 38t35.5 16h166q20 0 36 -16t16 -38v-138q0 -22 -16 -38.5t-36 -16.5h-166q-20 0 -35.5 16.5 t-15.5 38.5zM688 113v141q0 22 16.5 37t38.5 15h162q21 0 37.5 -15t16.5 -37v-141q0 -21 -16.5 -36.5t-37.5 -15.5h-162q-22 0 -38.5 15.5t-16.5 36.5z" />
<glyph unicode="&#x66b;" horiz-adv-x="373" d="M111 108v105q0 18 12 28.5t30 10.5h124q16 0 28 -10.5t12 -28.5v-256q0 -21 -8 -39t-21.5 -31.5t-31.5 -21t-38 -7.5h-99v65h74q12 0 12 10v133h-52q-18 0 -30 12t-12 30z" />
<glyph unicode="&#x66c;" horiz-adv-x="373" d="M111 108v105q0 18 12 28.5t30 10.5h124q16 0 28 -10.5t12 -28.5v-256q0 -21 -8 -39t-21.5 -31.5t-31.5 -21t-38 -7.5h-99v65h74q12 0 12 10v133h-52q-18 0 -30 12t-12 30z" />
<glyph unicode="&#x6d4;" horiz-adv-x="418" d="M111 42v106q0 15 12 27t29 12h125q15 0 26.5 -12t11.5 -27v-106q0 -18 -11.5 -30t-26.5 -12h-125q-17 0 -29 12t-12 30z" />
<glyph unicode="&#x2000;" horiz-adv-x="845" />
<glyph unicode="&#x2001;" horiz-adv-x="1691" />
<glyph unicode="&#x2002;" horiz-adv-x="845" />
<glyph unicode="&#x2003;" horiz-adv-x="1691" />
<glyph unicode="&#x2004;" horiz-adv-x="563" />
<glyph unicode="&#x2005;" horiz-adv-x="422" />
<glyph unicode="&#x2006;" horiz-adv-x="281" />
<glyph unicode="&#x2007;" horiz-adv-x="281" />
<glyph unicode="&#x2008;" horiz-adv-x="211" />
<glyph unicode="&#x2009;" horiz-adv-x="338" />
<glyph unicode="&#x200a;" horiz-adv-x="93" />
<glyph unicode="&#x2010;" horiz-adv-x="819" d="M60 304v92q0 8 7.5 14.5t15.5 6.5h656q8 0 14 -6.5t6 -14.5v-92q0 -9 -6 -16t-14 -7h-656q-8 0 -15.5 7t-7.5 16z" />
<glyph unicode="&#x2011;" horiz-adv-x="819" d="M60 304v92q0 8 7.5 14.5t15.5 6.5h656q8 0 14 -6.5t6 -14.5v-92q0 -9 -6 -16t-14 -7h-656q-8 0 -15.5 7t-7.5 16z" />
<glyph unicode="&#x2012;" horiz-adv-x="819" d="M60 304v92q0 8 7.5 14.5t15.5 6.5h656q8 0 14 -6.5t6 -14.5v-92q0 -9 -6 -16t-14 -7h-656q-8 0 -15.5 7t-7.5 16z" />
<glyph unicode="&#x2013;" horiz-adv-x="1144" d="M60 304v92q0 8 11 14.5t23 6.5h961q11 0 20 -6.5t9 -14.5v-92q0 -9 -9 -16t-20 -7h-961q-12 0 -23 7t-11 16z" />
<glyph unicode="&#x2014;" horiz-adv-x="2168" d="M60 304v92q0 8 22 14.5t45 6.5h1922q24 0 41.5 -6.5t17.5 -14.5v-92q0 -9 -17.5 -16t-41.5 -7h-1922q-23 0 -45 7t-22 16z" />
<glyph unicode="&#x201c;" horiz-adv-x="629" d="M60 911v158h230v-158l-37 -204h-155zM339 911v158h230v-158l-38 -204h-155z" />
<glyph unicode="&#x201d;" horiz-adv-x="629" d="M60 911v158h230v-158l-37 -204h-155zM339 911v158h230v-158l-38 -204h-155z" />
<glyph unicode="&#x202f;" horiz-adv-x="338" />
<glyph unicode="&#x205f;" horiz-adv-x="422" />
<glyph unicode="&#xe000;" horiz-adv-x="835" d="M0 0v835h835v-835h-835z" />
<glyph unicode="&#xffef;" horiz-adv-x="1639" d="M68 -163v433q0 17 14 30t31 13h211q20 0 32 -13t12 -30v-389h516l-330 571h750l267 -452h-322l-166 291h-124l225 -390q18 -26 23 -59t-3.5 -62t-31.5 -49t-60 -20h-788h-211q-16 0 -24.5 6.5t-13.5 14.5q-5 10 -7 22v83zM318 -490q0 30 11.5 56.5t31 46.5t46.5 31.5 t57 11.5t56 -11.5t46 -31.5t31.5 -46.5t11.5 -56.5t-11.5 -56t-31.5 -45t-46 -30t-56 -11t-57 11t-46.5 30t-31 45t-11.5 56zM649 -490q0 30 11.5 56.5t31 46.5t46 31.5t56.5 11.5t56 -11.5t45.5 -31.5t30.5 -46.5t11 -56.5t-11 -56t-30.5 -45t-45.5 -30t-56 -11t-56.5 11 t-46 30t-31 45t-11.5 56z" />
<glyph horiz-adv-x="0" />
<glyph horiz-adv-x="0" d="M-252 73v123q8 13 20.5 18.5t26.5 5.5q15 0 28.5 -7t20.5 -19v-135q0 -26 16.5 -42.5t39.5 -16.5q25 0 41 16.5t16 42.5v137q8 13 20.5 18.5t25.5 5.5h6q14 0 26 -5.5t20 -18.5v-137q0 -26 16.5 -42.5t38.5 -16.5q24 0 41 16.5t17 42.5v135q18 26 49 26q32 0 48 -24v-123 q0 -33 -12.5 -61.5t-33.5 -49.5t-49 -33.5t-60 -12.5q-29 0 -55.5 12.5t-45.5 31.5q-23 -19 -50 -31.5t-59 -12.5q-31 0 -58.5 12.5t-48.5 33.5t-33 49.5t-12 61.5zM-231 340q0 12 10 12l436 73q7 0 12 -2t5 -7l7 -54q2 -3 -2 -7.5t-8 -6.5l-438 -71q-5 -2 -8.5 2.5 t-3.5 7.5zM-231 481q0 14 10 14l436 71q7 0 12 -2t5 -8l7 -51q2 -6 -2 -10t-8 -6l-438 -70q-5 -2 -8.5 1.5t-3.5 7.5z" />
<glyph horiz-adv-x="0" d="M-293 467q5 18 31 39q17 12 40 18.5t46.5 5t44.5 -11.5t35 -30l62 -76q0 -11 -4 -21t-12 -16q-10 -7 -21.5 -9t-22.5 3l-64 80q-11 13 -30 15t-33 -10q-23 -19 -41.5 -21t-27 7t-3.5 27zM-252 73v123q8 13 20.5 18.5t26.5 5.5q15 0 28.5 -7t20.5 -19v-135 q0 -26 16.5 -42.5t39.5 -16.5q25 0 41 16.5t16 42.5v137q8 13 20.5 18.5t25.5 5.5h6q14 0 26 -5.5t20 -18.5v-137q0 -26 16.5 -42.5t38.5 -16.5q24 0 41 16.5t17 42.5v135q18 26 49 26q32 0 48 -24v-123q0 -33 -12.5 -61.5t-33.5 -49.5t-49 -33.5t-60 -12.5 q-29 0 -55.5 12.5t-45.5 31.5q-23 -19 -50 -31.5t-59 -12.5q-31 0 -58.5 12.5t-48.5 33.5t-33 49.5t-12 61.5zM-205 380q3 17 15 20t27.5 -7t26.5 -32q10 -15 25 -22t31 0l90 44l-35 69q-8 19 -1 39.5t26 28.5l92 45l6 5q19 10 39.5 3t28.5 -27l43 -83q8 -20 2.5 -40 t-25.5 -30l-94 -47l-131 -64q-20 -11 -40.5 -12.5t-40.5 3.5q-23 7 -42 21.5t-32 37.5q-14 31 -11 48zM37 461l22 -49l33 14l56 28l-25 52q0 7 -10 3l-73 -37q-6 -3 -3 -11z" />
<glyph horiz-adv-x="0" d="M-252 421v123q8 13 20.5 18.5t26.5 5.5q15 0 28.5 -7t20.5 -19v-135q0 -26 16.5 -42.5t39.5 -16.5q25 0 41 16.5t16 42.5v137q8 13 20.5 18.5t25.5 5.5h6q14 0 26 -5.5t20 -18.5v-137q0 -26 16.5 -42.5t38.5 -16.5q24 0 41 16.5t17 42.5v135q18 26 49 26q32 0 48 -24 v-123q0 -33 -12.5 -61.5t-33.5 -49.5t-49 -33.5t-60 -12.5q-29 0 -55.5 12.5t-45.5 31.5q-23 -19 -50 -31.5t-59 -12.5q-31 0 -58.5 12.5t-48.5 33.5t-33 49.5t-12 61.5zM-231 -20q0 12 10 12l436 73q7 0 12 -2t5 -7l7 -54q2 -3 -2 -7.5t-8 -6.5l-438 -71q-5 -2 -8.5 2.5 t-3.5 7.5zM-231 121q0 14 10 14l436 71q7 0 12 -2t5 -8l7 -51q2 -6 -2 -10t-8 -6l-438 -70q-5 -2 -8.5 1.5t-3.5 7.5z" />
<glyph horiz-adv-x="0" d="M-252 73v123q8 13 20.5 18.5t26.5 5.5q15 0 28.5 -7t20.5 -19v-135q0 -26 16.5 -42.5t39.5 -16.5q25 0 41 16.5t16 42.5v137q8 13 20.5 18.5t25.5 5.5h6q14 0 26 -5.5t20 -18.5v-137q0 -26 16.5 -42.5t38.5 -16.5q24 0 41 16.5t17 42.5v135q18 26 49 26q32 0 48 -24v-123 q0 -33 -12.5 -61.5t-33.5 -49.5t-49 -33.5t-60 -12.5q-29 0 -55.5 12.5t-45.5 31.5q-23 -19 -50 -31.5t-59 -12.5q-31 0 -58.5 12.5t-48.5 33.5t-33 49.5t-12 61.5zM-231 340q0 12 10 12l436 73q7 0 12 -2t5 -7l7 -54q2 -3 -2 -7.5t-8 -6.5l-438 -71q-5 -2 -8.5 2.5 t-3.5 7.5z" />
<glyph horiz-adv-x="0" d="M-252 73v123q8 13 20.5 18.5t26.5 5.5q15 0 28.5 -7t20.5 -19v-135q0 -26 16.5 -42.5t39.5 -16.5q25 0 41 16.5t16 42.5v137q8 13 20.5 18.5t25.5 5.5h6q14 0 26 -5.5t20 -18.5v-137q0 -26 16.5 -42.5t38.5 -16.5q24 0 41 16.5t17 42.5v135q18 26 49 26q32 0 48 -24v-123 q0 -33 -12.5 -61.5t-33.5 -49.5t-49 -33.5t-60 -12.5q-29 0 -55.5 12.5t-45.5 31.5q-23 -19 -50 -31.5t-59 -12.5q-31 0 -58.5 12.5t-48.5 33.5t-33 49.5t-12 61.5zM-193 300l158 79l-40 81q-13 21 -4 44.5t31 32.5l107 51l6 6q23 11 46.5 3t34.5 -32l48 -93q9 -23 1 -46.5 t-30 -35.5l-285 -143zM-8.5 476.5q-1.5 -2.5 0.5 -8.5l32 -60l101 54l-29 58q-2 5 -12 5l-86 -44q-5 -2 -6.5 -4.5z" />
<glyph horiz-adv-x="0" d="M-252 279v123q8 13 20.5 18.5t26.5 5.5q15 0 28.5 -7t20.5 -19v-135q0 -26 16.5 -42.5t39.5 -16.5q25 0 41 16.5t16 42.5v137q8 13 20.5 18.5t25.5 5.5h6q14 0 26 -5.5t20 -18.5v-137q0 -26 16.5 -42.5t38.5 -16.5q24 0 41 16.5t17 42.5v135q18 26 49 26q32 0 48 -24 v-123q0 -33 -12.5 -61.5t-33.5 -49.5t-49 -33.5t-60 -12.5q-29 0 -55.5 12.5t-45.5 31.5q-23 -19 -50 -31.5t-59 -12.5q-31 0 -58.5 12.5t-48.5 33.5t-33 49.5t-12 61.5zM-231 -21q0 14 10 14l436 71q7 0 12 -2t5 -8l7 -51q2 -6 -2 -10t-8 -6l-438 -70q-5 -2 -8.5 1.5 t-3.5 7.5z" />
<glyph horiz-adv-x="0" d="M-252 73v123q8 13 20.5 18.5t26.5 5.5q15 0 28.5 -7t20.5 -19v-135q0 -26 16.5 -42.5t39.5 -16.5q25 0 41 16.5t16 42.5v137q8 13 20.5 18.5t25.5 5.5h6q14 0 26 -5.5t20 -18.5v-137q0 -26 16.5 -42.5t38.5 -16.5q24 0 41 16.5t17 42.5v135q18 26 49 26q32 0 48 -24v-123 q0 -33 -12.5 -61.5t-33.5 -49.5t-49 -33.5t-60 -12.5q-29 0 -55.5 12.5t-45.5 31.5q-23 -19 -50 -31.5t-59 -12.5q-31 0 -58.5 12.5t-48.5 33.5t-33 49.5t-12 61.5zM-152 411l104 175q6 11 25 11.5t42.5 -6.5t48.5 -19.5t43 -28t26 -32t-1 -31.5l-103 -177q-12 -12 -40 -9.5 t-58.5 17t-56 40t-30.5 60.5zM-95 386q-2 -3 0.5 -11t10.5 -17t22 -16t36 -7q2 0 7.5 1.5t17.5 16t31 49t49 100.5q3 6 -7.5 17.5t-25 20.5t-28.5 13.5t-18 -2.5z" />
<glyph horiz-adv-x="1447" />
</font>
</defs>
</svg>
