<?xml version="1.0" standalone="no"?>
<!DOCTYPE svg PUBLIC "-//W3C//DTD SVG 1.1//EN" "http://www.w3.org/Graphics/SVG/1.1/DTD/svg11.dtd" >
<svg xmlns="http://www.w3.org/2000/svg">
<metadata></metadata>
<defs>
<font id="zahra_arabicregular" horiz-adv-x="708" >
<font-face units-per-em="2048" ascent="1536" descent="-512" />
<missing-glyph horiz-adv-x="294" />
<glyph unicode="&#xfedf;&#xfe82;" horiz-adv-x="847" arabic-form="isolated" d="M41 1042q32 50 79 85.5t99 35.5q29 0 60 -22.5t59.5 -45t52.5 -22.5q54 0 119 109l72 -47q-40 -66 -76 -97t-86 -43q-24 -4 -35 -4q-37 0 -69.5 21t-58.5 42t-46 21q-40 0 -96 -80zM102 0v129h514v778h129v-907h-643zM211 231v676h127v-676h-127z" />
<glyph unicode="&#xfee0;&#xfe82;" horiz-adv-x="854" arabic-form="final" d="M41 1042q32 50 79 85.5t99 35.5q29 0 60 -22.5t59.5 -45t52.5 -22.5q54 0 119 109l72 -47q-40 -66 -76 -97t-86 -43q-24 -4 -35 -4q-37 0 -69.5 21t-58.5 42t-46 21q-40 0 -96 -80zM102 0v129h514v778h129v-778h109v-129h-752zM211 231v676h127v-676h-127z" />
<glyph unicode="&#xfedf;&#xfe84;" horiz-adv-x="847" arabic-form="isolated" d="M102 0v129h514v778h129v-907h-643zM102 1055v82h131q-34 42 -38.5 91t15.5 88.5t62 66t95 26.5q78 0 137 -59l-53 -74q-27 30 -65.5 41t-71 -9t-35.5 -75q3 -84 116 -96h107v-82h-400zM211 231v676h127v-676h-127z" />
<glyph unicode="&#xfee0;&#xfe84;" horiz-adv-x="854" arabic-form="final" d="M102 0v129h514v778h129v-778h109v-129h-752zM102 1055v82h131q-34 42 -38.5 91t15.5 88.5t62 66t95 26.5q78 0 137 -59l-53 -74q-27 30 -65.5 41t-71 -9t-35.5 -75q3 -84 116 -96h107v-82h-400zM211 231v676h127v-676h-127z" />
<glyph unicode="&#xfedf;&#xfe88;" horiz-adv-x="847" arabic-form="isolated" d="M102 0v129h514v778h129v-907h-643zM102 -379h131q-34 42 -38.5 91t15.5 89t62 66.5t95 26.5q77 0 137 -60l-53 -74q-27 30 -65.5 41t-71 -9t-35.5 -75q3 -84 116 -96h107v-82h-400v82zM211 231v676h127v-676h-127z" />
<glyph unicode="&#xfee0;&#xfe88;" horiz-adv-x="854" arabic-form="final" d="M102 0v129h514v778h129v-778h109v-129h-752zM102 -379h131q-34 42 -38.5 91t15.5 89t62 66.5t95 26.5q77 0 137 -60l-53 -74q-27 30 -65.5 41t-71 -9t-35.5 -75q3 -84 116 -96h107v-82h-400v82zM211 231v676h127v-676h-127z" />
<glyph unicode="&#xfedf;&#xfe8e;" horiz-adv-x="847" arabic-form="isolated" d="M102 0v129h514v778h129v-907h-643zM211 231v676h127v-676h-127z" />
<glyph unicode="&#xfee0;&#xfe8e;" horiz-adv-x="854" arabic-form="final" d="M102 0v129h514v778h129v-778h109v-129h-752zM211 231v676h127v-676h-127z" />
<glyph unicode="&#x649;" horiz-adv-x="471" arabic-form="initial" d="M-20 0v129h262v510h127v-639h-389z" />
<glyph unicode="&#x649;" horiz-adv-x="499" arabic-form="medial" d="M-20 0v129h262v510h127v-510h131v-129h-520z" />
<glyph unicode="&#xfc63;" horiz-adv-x="0" arabic-form="isolated" d="M-206 241.5q-3 37.5 1 49.5v4h64q-10 -170 43 -170q66 0 63 217h64q-5 -170 63 -170q50 0 43 217h64l1 -17q0 -16 -0.5 -29.5t-1 -37.5t-3.5 -44t-7.5 -44t-13 -42t-19.5 -33.5t-27 -24t-36 -8.5q-55 0 -88 53q-13 -44 -39 -72.5t-63 -28.5q-41 0 -67 31.5t-32 71.5 t-9 77.5zM-35 403v183h64v-183h-64z" />
<glyph unicode="&#x622;" horiz-adv-x="405" arabic-form="final" d="M-90 1042q32 50 79 85.5t99 35.5q29 0 60 -22.5t59.5 -45t52.5 -22.5q54 0 119 109l72 -47q-40 -66 -76 -97t-86 -43q-24 -4 -35 -4q-37 0 -69.5 21t-58.5 42t-46 21q-40 0 -96 -80zM119 0v907h127v-778h129v-129h-256z" />
<glyph unicode="&#x623;" horiz-adv-x="358" arabic-form="final" d="M-33 1010v82h131q-34 42 -39 91t15 88.5t62 66t95 26.5q79 0 138 -59l-54 -74q-27 30 -65.5 41t-71 -9t-35.5 -75q3 -84 117 -96h107v-82h-400zM102 0v907h127v-778h129v-129h-256z" />
<glyph unicode="&#x624;" horiz-adv-x="874" arabic-form="final" d="M102 330q0 62 20.5 118.5t59.5 102.5t104 73t146 27q78 0 139.5 -22t99.5 -57.5t63 -84.5t34.5 -98.5t9.5 -103.5q0 -77 -22 -156h118v-129h-149q-66 -164 -217 -340l-109 88q120 123 185 256q-31 -4 -88 -4q-184 0 -289 88t-105 242zM102 737v82h131q-34 42 -38.5 91 t15.5 89t62 66.5t95 26.5q77 0 137 -60l-53 -74q-27 30 -65.5 41t-71 -9t-35.5 -75q3 -84 116 -96h107v-82h-400zM244 322q0 -58 22 -98.5t60.5 -62t82.5 -31t97 -9.5q40 0 110 8q23 51 23 123q0 49 -11 94.5t-34 86t-63.5 65t-94.5 24.5q-82 0 -137 -58t-55 -142z" />
<glyph unicode="&#x625;" horiz-adv-x="358" arabic-form="final" d="M-33 -379h131q-34 42 -39 91t15 89t62 66.5t95 26.5q78 0 138 -60l-54 -74q-27 30 -65.5 41t-71 -9t-35.5 -75q3 -84 117 -96h107v-82h-400v82zM102 0v907h127v-778h129v-129h-256z" />
<glyph unicode="&#x626;" horiz-adv-x="1392" arabic-form="final" d="M102 330q0 127 79 215t206 98v-127q-66 -12 -112 -68t-46 -124q0 -75 57 -135t132 -60h389v262q0 98 74 173t172 75h209v-510h131v-129h-258v512h-82q-43 0 -81 -36.5t-38 -84.5v-391h-516q-135 0 -225.5 95.5t-90.5 234.5zM102 737v82h131q-34 42 -38.5 91t15.5 89 t62 66.5t95 26.5q77 0 137 -60l-53 -74q-27 30 -65.5 41t-71 -9t-35.5 -75q3 -84 116 -96h107v-82h-400z" />
<glyph unicode="&#x626;" horiz-adv-x="471" arabic-form="initial" d="M-20 0v129h262v510h127v-639h-389zM33 737v82h131q-34 42 -39 91t15 89t62 66.5t95 26.5q77 0 137 -60l-53 -74q-27 30 -65.5 41t-71 -9t-35.5 -75q3 -84 117 -96h106v-82h-399z" />
<glyph unicode="&#x626;" horiz-adv-x="499" arabic-form="medial" d="M-20 0v129h262v510h127v-510h131v-129h-520zM76 737v82h131q-34 42 -39 91t15 89t62 66.5t95 26.5q77 0 137 -60l-53 -74q-27 30 -65.5 41t-71 -9t-35.5 -75q3 -84 117 -96h106v-82h-399z" />
<glyph unicode="&#x627;" horiz-adv-x="358" arabic-form="final" d="M102 0v907h127v-778h129v-129h-256z" />
<glyph unicode="&#x628;" horiz-adv-x="1370" arabic-form="final" d="M102 330q0 129 79.5 215.5t205.5 97.5v-127q-68 -12 -113 -68.5t-45 -123.5q0 -77 54.5 -136t134.5 -59h717v510h127v-510h108v-129h-952q-138 0 -227 95t-89 235zM676 -174q0 29 21.5 50.5t50.5 21.5q30 0 50.5 -21t20.5 -51q0 -31 -20 -51.5t-51 -20.5q-30 0 -51 21 t-21 51z" />
<glyph unicode="&#x628;" horiz-adv-x="471" arabic-form="initial" d="M-20 0v129h262v510h127v-639h-389zM236 -174q0 29 21 50.5t50 21.5q30 0 51 -21t21 -51q0 -31 -20.5 -51.5t-51.5 -20.5q-29 0 -50 21t-21 51z" />
<glyph unicode="&#x628;" horiz-adv-x="499" arabic-form="medial" d="M-20 0v129h262v510h127v-510h131v-129h-520zM236 -174q0 29 21 50.5t50 21.5q30 0 51 -21t21 -51q0 -31 -20.5 -51.5t-51.5 -20.5q-29 0 -50 21t-21 51z" />
<glyph unicode="&#x629;" horiz-adv-x="872" arabic-form="final" d="M102 96q0 139 60 265.5t173 208t251 81.5q93 0 178 -39v-483h108v-129h-766q-4 66 -4 96zM240 129h397v387q-174 12 -284 -99t-113 -288zM303 809q0 29 21.5 50.5t50.5 21.5q30 0 50.5 -21t20.5 -51q0 -31 -20 -51.5t-51 -20.5q-30 0 -51 21t-21 51zM487 809 q0 29 21.5 50.5t50.5 21.5q30 0 51 -21t21 -51q0 -31 -20.5 -51.5t-51.5 -20.5q-30 0 -51 21t-21 51z" />
<glyph unicode="&#x62a;" horiz-adv-x="1370" arabic-form="final" d="M102 330q0 129 79.5 215.5t205.5 97.5v-127q-68 -12 -113 -68.5t-45 -123.5q0 -77 54.5 -136t134.5 -59h717v510h127v-510h108v-129h-952q-138 0 -227 95t-89 235zM563 584q0 29 21.5 50t50.5 21q31 0 51.5 -20.5t20.5 -50.5q0 -31 -20.5 -51.5t-51.5 -20.5q-30 0 -51 21 t-21 51zM748 584q0 29 21 50t50 21q31 0 51.5 -20.5t20.5 -50.5q0 -31 -20.5 -51.5t-51.5 -20.5q-29 0 -50 21t-21 51z" />
<glyph unicode="&#x62a;" horiz-adv-x="471" arabic-form="initial" d="M-20 0v129h262v510h127v-639h-389zM104 850q0 29 21.5 50.5t50.5 21.5q30 0 51 -21t21 -51q0 -31 -20.5 -51.5t-51.5 -20.5q-30 0 -51 21t-21 51zM289 850q0 29 21 50.5t50 21.5q30 0 51 -21t21 -51q0 -31 -20.5 -51.5t-51.5 -20.5q-30 0 -50.5 21t-20.5 51z" />
<glyph unicode="&#x62a;" horiz-adv-x="499" arabic-form="medial" d="M-20 0v129h262v510h127v-510h131v-129h-520zM147 850q0 29 21.5 50.5t50.5 21.5q30 0 51 -21t21 -51q0 -31 -20.5 -51.5t-51.5 -20.5q-30 0 -51 21t-21 51zM332 850q0 29 21 50.5t50 21.5q30 0 51 -21t21 -51q0 -31 -20.5 -51.5t-51.5 -20.5q-29 0 -50 21t-21 51z" />
<glyph unicode="&#x62b;" horiz-adv-x="1370" arabic-form="final" d="M102 330q0 129 79.5 215.5t205.5 97.5v-127q-68 -12 -113 -68.5t-45 -123.5q0 -77 54.5 -136t134.5 -59h717v510h127v-510h108v-129h-952q-138 0 -227 95t-89 235zM567 584q0 29 21.5 50t50.5 21q31 0 51.5 -20.5t20.5 -50.5q0 -31 -20.5 -51.5t-51.5 -20.5q-30 0 -51 21 t-21 51zM659 727q0 29 21.5 50.5t50.5 21.5q30 0 51 -21t21 -51q0 -31 -20.5 -51.5t-51.5 -20.5q-30 0 -51 21t-21 51zM752 584q0 29 21 50t50 21q31 0 51.5 -20.5t20.5 -50.5q0 -31 -20.5 -51.5t-51.5 -20.5q-29 0 -50 21t-21 51z" />
<glyph unicode="&#x62b;" horiz-adv-x="471" arabic-form="initial" d="M-20 0v129h262v510h127v-639h-389zM141 809q0 29 21.5 50.5t50.5 21.5q30 0 51 -21t21 -51q0 -31 -20.5 -51.5t-51.5 -20.5q-30 0 -51 21t-21 51zM233 952q0 29 21.5 50.5t50.5 21.5q30 0 51 -21t21 -51q0 -31 -20.5 -51t-51.5 -20q-30 0 -51 20.5t-21 50.5zM326 809 q0 29 21 50.5t50 21.5q30 0 51 -21t21 -51q0 -31 -20.5 -51.5t-51.5 -20.5q-29 0 -50 20.5t-21 51.5z" />
<glyph unicode="&#x62b;" horiz-adv-x="499" arabic-form="medial" d="M-20 0v129h262v510h127v-510h131v-129h-520zM141 809q0 29 21.5 50.5t50.5 21.5q30 0 51 -21t21 -51q0 -31 -20.5 -51.5t-51.5 -20.5q-30 0 -51 21t-21 51zM233 952q0 29 21.5 50.5t50.5 21.5q30 0 51 -21t21 -51q0 -31 -20.5 -51t-51.5 -20q-30 0 -51 20.5t-21 50.5z M326 809q0 29 21 50.5t50 21.5q30 0 51 -21t21 -51q0 -31 -20.5 -51.5t-51.5 -20.5q-29 0 -50 20.5t-21 51.5z" />
<glyph unicode="&#x62c;" horiz-adv-x="1134" arabic-form="final" d="M102 -178q0 159 93 231q95 76 258 76h440q0 187 -131 328q-100 100 -230 100q-109 0 -213 -68l-73 103q136 92 286 92q186 0 320 -137q168 -168 174 -418h109v-129h-646q-120 0 -192 -47q-61 -41 -61 -139q0 -88 45 -142h-154q-25 77 -25 150zM492 -254q0 29 21 50.5 t50 21.5q30 0 51 -21t21 -51q0 -31 -20.5 -51.5t-51.5 -20.5q-29 0 -50 21t-21 51z" />
<glyph unicode="&#x62c;" horiz-adv-x="1101" arabic-form="initial" d="M-20 0v129h890q-20 209 -139 328q-100 100 -233 100q-109 0 -209 -68l-78 103q139 92 287 92q182 0 321 -139q151 -151 174 -387q6 -82 6 -158h-1019zM469 -254q0 29 21.5 50.5t50.5 21.5q30 0 50.5 -21t20.5 -51q0 -31 -20 -51.5t-51 -20.5q-30 0 -51 21t-21 51z" />
<glyph unicode="&#x62c;" horiz-adv-x="1101" arabic-form="medial" d="M-20 0v129h890q-20 209 -139 328q-100 100 -233 100q-109 0 -209 -68l-78 103q139 92 287 92q184 0 321 -137q160 -166 176 -418h107v-129h-1122zM469 -254q0 29 21.5 50.5t50.5 21.5q30 0 50.5 -21t20.5 -51q0 -31 -20 -51.5t-51 -20.5q-30 0 -51 21t-21 51z" />
<glyph unicode="&#x62d;" horiz-adv-x="1134" arabic-form="final" d="M102 -178q0 159 93 231q95 76 258 76h440q0 187 -131 328q-100 100 -230 100q-109 0 -213 -68l-73 103q136 92 286 92q186 0 320 -137q168 -168 174 -418h109v-129h-646q-120 0 -192 -47q-61 -41 -61 -139q0 -88 45 -142h-154q-25 77 -25 150z" />
<glyph unicode="&#x62d;" horiz-adv-x="1101" arabic-form="initial" d="M-20 0v129h890q-20 209 -139 328q-100 100 -233 100q-109 0 -209 -68l-78 103q139 92 287 92q182 0 321 -139q151 -151 174 -387q6 -82 6 -158h-1019z" />
<glyph unicode="&#x62d;" horiz-adv-x="1101" arabic-form="medial" d="M-20 0v129h890q-20 209 -139 328q-100 100 -233 100q-109 0 -209 -68l-78 103q139 92 287 92q184 0 321 -137q160 -166 176 -418h107v-129h-1122z" />
<glyph unicode="&#x62e;" horiz-adv-x="1134" arabic-form="final" d="M102 -178q0 159 93 231q95 76 258 76h440q0 187 -131 328q-100 100 -230 100q-109 0 -213 -68l-73 103q136 92 286 92q186 0 320 -137q168 -168 174 -418h109v-129h-646q-120 0 -192 -47q-61 -41 -61 -139q0 -88 45 -142h-154q-25 77 -25 150zM473 850q0 29 21.5 50.5 t50.5 21.5q30 0 50.5 -21t20.5 -51q0 -31 -20 -51.5t-51 -20.5q-30 0 -51 21t-21 51z" />
<glyph unicode="&#x62e;" horiz-adv-x="1101" arabic-form="initial" d="M-20 0v129h890q-20 209 -139 328q-100 100 -233 100q-109 0 -209 -68l-78 103q139 92 287 92q182 0 321 -139q151 -151 174 -387q6 -82 6 -158h-1019zM442 850q0 29 21.5 50.5t50.5 21.5q30 0 51 -21t21 -51q0 -31 -20.5 -51.5t-51.5 -20.5q-30 0 -51 21t-21 51z" />
<glyph unicode="&#x62e;" horiz-adv-x="1101" arabic-form="medial" d="M-20 0v129h890q-20 209 -139 328q-100 100 -233 100q-109 0 -209 -68l-78 103q139 92 287 92q184 0 321 -137q160 -166 176 -418h107v-129h-1122zM442 850q0 29 21.5 50.5t50.5 21.5q30 0 51 -21t21 -51q0 -31 -20.5 -51.5t-51.5 -20.5q-30 0 -51 21t-21 51z" />
<glyph unicode="&#x62f;" horiz-adv-x="897" arabic-form="final" d="M102 0v129h557q-6 200 -106.5 298.5t-247.5 98.5q-75 0 -155 -22v123q92 30 180 30t164 -31t138 -94t103.5 -165.5t55.5 -237.5h106v-129h-795z" />
<glyph unicode="&#x630;" horiz-adv-x="897" arabic-form="final" d="M102 0v129h557q-6 200 -106.5 298.5t-247.5 98.5q-75 0 -155 -22v123q92 30 180 30t164 -31t138 -94t103.5 -165.5t55.5 -237.5h106v-129h-795zM219 850q0 29 21.5 50.5t50.5 21.5q30 0 50.5 -21t20.5 -51q0 -31 -20 -51.5t-51 -20.5q-30 0 -51 21t-21 51z" />
<glyph unicode="&#x631;" horiz-adv-x="462" arabic-form="final" d="M0 -256q175 213 213.5 446t-61.5 449h149q34 -90 49.5 -187t13.5 -176t-16 -147h115v-129h-146q-76 -204 -206 -340z" />
<glyph unicode="&#x632;" horiz-adv-x="462" arabic-form="final" d="M0 -256q175 213 213.5 446t-61.5 449h149q34 -90 49.5 -187t13.5 -176t-16 -147h115v-129h-146q-76 -204 -206 -340zM102 809q0 29 21.5 50.5t50.5 21.5q30 0 51 -21t21 -51q0 -31 -20.5 -51.5t-51.5 -20.5q-30 0 -51 21t-21 51z" />
<glyph unicode="&#x633;" horiz-adv-x="1814" arabic-form="final" d="M102 43q0 109 51 202t154 154l68 -116q-69 -43 -105.5 -110t-36.5 -140q0 -101 74 -180.5t197 -79.5q107 0 187.5 83t80.5 189v592h129v-385q0 -57 38 -97t93 -40q57 0 97 40t40 97v385h127v-385q0 -54 42 -95.5t96 -41.5t95.5 40t41.5 97v385h135v-358q0 -54 30 -95 t79 -51v-133q-53 0 -86 17t-84 65q-81 -107 -211 -107q-59 0 -104 22t-99 71q-77 -93 -199 -93q-40 0 -67.5 7.5t-65.5 29.5q-15 -155 -130.5 -263.5t-270.5 -108.5q-121 0 -213 58.5t-137.5 149t-45.5 195.5z" />
<glyph unicode="&#x633;" horiz-adv-x="1232" arabic-form="initial" d="M-20 0v129h219v510h133v-385q0 -57 38.5 -97t92.5 -40q57 0 97 40t40 97v385h129v-385q0 -54 41.5 -95.5t95.5 -41.5q55 0 96.5 40t41.5 97v385h126v-397q0 -106 -80 -185.5t-184 -79.5q-63 0 -109 23t-93 72q-76 -95 -201 -95q-99 0 -178 76q-50 -53 -111 -53h-194z" />
<glyph unicode="&#x633;" horiz-adv-x="1239" arabic-form="medial" d="M-20 0v129h219v510h133v-385q0 -57 38.5 -97t92.5 -40q57 0 97 40t40 97v385h129v-385q0 -54 41.5 -95.5t95.5 -41.5q55 0 96.5 40t41.5 97v385h126v-510h109v-129h-88q-40 0 -98 53q-86 -76 -187 -76q-63 0 -109 23t-93 72q-76 -95 -201 -95q-99 0 -178 76 q-50 -53 -111 -53h-194z" />
<glyph unicode="&#x634;" horiz-adv-x="1814" arabic-form="final" d="M102 43q0 109 51 202t154 154l68 -116q-69 -43 -105.5 -110t-36.5 -140q0 -101 74 -180.5t197 -79.5q107 0 187.5 83t80.5 189v592h129v-385q0 -57 38 -97t93 -40q57 0 97 40t40 97v385h127v-385q0 -54 42 -95.5t96 -41.5t95.5 40t41.5 97v385h135v-358q0 -54 30 -95 t79 -51v-133q-53 0 -86 17t-84 65q-81 -107 -211 -107q-59 0 -104 22t-99 71q-77 -93 -199 -93q-40 0 -67.5 7.5t-65.5 29.5q-15 -155 -130.5 -263.5t-270.5 -108.5q-121 0 -213 58.5t-137.5 149t-45.5 195.5zM1069 809q0 29 21.5 50.5t50.5 21.5q30 0 50.5 -21t20.5 -51 q0 -31 -20 -51.5t-51 -20.5q-30 0 -51 21t-21 51zM1161 952q0 29 21.5 50.5t50.5 21.5q30 0 51 -21t21 -51q0 -31 -20.5 -51t-51.5 -20q-30 0 -51 20.5t-21 50.5zM1253 809q0 29 21.5 50.5t50.5 21.5q30 0 51 -21t21 -51q0 -31 -20.5 -51.5t-51.5 -20.5q-30 0 -51 21t-21 51 z" />
<glyph unicode="&#x634;" horiz-adv-x="1232" arabic-form="initial" d="M-20 0v129h219v510h133v-385q0 -57 38.5 -97t92.5 -40q57 0 97 40t40 97v385h129v-385q0 -54 41.5 -95.5t95.5 -41.5q55 0 96.5 40t41.5 97v385h126v-397q0 -106 -80 -185.5t-184 -79.5q-63 0 -109 23t-93 72q-76 -95 -201 -95q-99 0 -178 76q-50 -53 -111 -53h-194z M500 809q0 29 21 50.5t50 21.5q30 0 51 -21t21 -51q0 -31 -20.5 -51.5t-51.5 -20.5q-29 0 -50 20.5t-21 51.5zM592 952q0 29 21.5 50.5t50.5 21.5q30 0 50.5 -21t20.5 -51q0 -31 -20 -51t-51 -20q-30 0 -51 20.5t-21 50.5zM684 809q0 29 21.5 50.5t50.5 21.5q30 0 50.5 -21 t20.5 -51q0 -31 -20 -51.5t-51 -20.5q-30 0 -51 21t-21 51z" />
<glyph unicode="&#x634;" horiz-adv-x="1239" arabic-form="medial" d="M-20 0v129h219v510h133v-385q0 -57 38.5 -97t92.5 -40q57 0 97 40t40 97v385h129v-385q0 -54 41.5 -95.5t95.5 -41.5q55 0 96.5 40t41.5 97v385h126v-510h109v-129h-88q-40 0 -98 53q-86 -76 -187 -76q-63 0 -109 23t-93 72q-76 -95 -201 -95q-99 0 -178 76 q-50 -53 -111 -53h-194zM500 809q0 29 21 50.5t50 21.5q30 0 51 -21t21 -51q0 -31 -20.5 -51.5t-51.5 -20.5q-29 0 -50 20.5t-21 51.5zM592 952q0 29 21.5 50.5t50.5 21.5q30 0 50.5 -21t20.5 -51q0 -31 -20 -51t-51 -20q-30 0 -51 20.5t-21 50.5zM684 809q0 29 21.5 50.5 t50.5 21.5q30 0 50.5 -21t20.5 -51q0 -31 -20 -51.5t-51 -20.5q-30 0 -51 21t-21 51z" />
<glyph unicode="&#x635;" horiz-adv-x="1961" arabic-form="final" d="M102 45q0 109 51 202t154 154l66 -118q-69 -42 -106.5 -109.5t-37.5 -140.5q0 -102 74.5 -179t198.5 -77q107 0 188.5 80t81.5 188v594h119v-279q68 133 182.5 215t267.5 82q144 0 261.5 -71.5t183 -192t67.5 -264.5h109v-129h-1071v-29q-28 -140 -140 -234.5t-257 -94.5 q-90 0 -165.5 34t-124 90.5t-75.5 128.5t-27 150zM979 129h731q13 157 -100 279t-269 122q-101 0 -188.5 -56t-135 -149.5t-38.5 -195.5z" />
<glyph unicode="&#x635;" horiz-adv-x="1359" arabic-form="initial" d="M-20 0v129h219v502h127v-215q93 122 187.5 180.5t240.5 58.5q90 0 165.5 -23.5t127 -64t93.5 -94.5t64 -114.5t37.5 -124t15 -123t-3.5 -111.5h-1273zM385 129h731q13 157 -99.5 279t-268.5 122q-154 0 -265 -122.5t-98 -278.5z" />
<glyph unicode="&#x635;" horiz-adv-x="1368" arabic-form="medial" d="M-20 0v129h217v502h127v-215q63 81 115.5 129t131.5 80t177 32q144 0 261.5 -71.5t183 -192t67.5 -264.5h108v-129h-1388zM383 129h731q7 77 -20.5 151.5t-78 128.5t-121.5 87.5t-146 33.5q-155 0 -266.5 -122t-98.5 -279z" />
<glyph unicode="&#x636;" horiz-adv-x="1961" arabic-form="final" d="M102 45q0 109 51 202t154 154l66 -118q-69 -42 -106.5 -109.5t-37.5 -140.5q0 -102 74.5 -179t198.5 -77q107 0 188.5 80t81.5 188v594h119v-279q68 133 182.5 215t267.5 82q144 0 261.5 -71.5t183 -192t67.5 -264.5h109v-129h-1071v-29q-28 -140 -140 -234.5t-257 -94.5 q-90 0 -165.5 34t-124 90.5t-75.5 128.5t-27 150zM979 129h731q13 157 -100 279t-269 122q-101 0 -188.5 -56t-135 -149.5t-38.5 -195.5zM1284 809q0 29 21.5 50.5t50.5 21.5q30 0 50.5 -21t20.5 -51q0 -31 -20 -51.5t-51 -20.5q-30 0 -51 21t-21 51z" />
<glyph unicode="&#x636;" horiz-adv-x="1359" arabic-form="initial" d="M-20 0v129h219v502h127v-215q93 122 187.5 180.5t240.5 58.5q90 0 165.5 -23.5t127 -64t93.5 -94.5t64 -114.5t37.5 -124t15 -123t-3.5 -111.5h-1273zM385 129h731q13 157 -99.5 279t-268.5 122q-154 0 -265 -122.5t-98 -278.5zM686 809q0 29 21.5 50.5t50.5 21.5 q30 0 50.5 -21t20.5 -51q0 -31 -20 -51.5t-51 -20.5q-30 0 -51 21t-21 51z" />
<glyph unicode="&#x636;" horiz-adv-x="1368" arabic-form="medial" d="M-20 0v129h217v502h127v-215q63 81 115.5 129t131.5 80t177 32q144 0 261.5 -71.5t183 -192t67.5 -264.5h108v-129h-1388zM383 129h731q7 77 -20.5 151.5t-78 128.5t-121.5 87.5t-146 33.5q-155 0 -266.5 -122t-98.5 -279zM686 809q0 29 21.5 50.5t50.5 21.5 q30 0 50.5 -21t20.5 -51q0 -31 -20 -51.5t-51 -20.5q-30 0 -51 21t-21 51z" />
<glyph unicode="&#x637;" horiz-adv-x="1439" arabic-form="final" d="M102 0v129h217v778h130v-424q131 172 368 172h8q146 0 262 -70t179 -189.5t65 -266.5h109v-129h-1338zM457 129h731q9 102 -41 195t-139 148.5t-191 55.5q-101 0 -188 -55.5t-134 -148.5t-38 -195z" />
<glyph unicode="&#x637;" horiz-adv-x="1308" arabic-form="initial" d="M-20 0v129h217v778h129v-424q131 172 368 172q116 0 209.5 -39.5t152.5 -105t96.5 -151t48.5 -176.5t1 -183h-1222zM334 129h731q9 102 -41 195t-139 148.5t-191 55.5q-101 0 -188 -55.5t-134 -148.5t-38 -195z" />
<glyph unicode="&#x637;" horiz-adv-x="1316" arabic-form="medial" d="M-20 0v129h217v778h129v-424q131 172 368 172h11q219 0 359.5 -150.5t143.5 -375.5h109v-129h-1337zM334 129h731q9 102 -41 195t-139 148.5t-191 55.5q-101 0 -188 -55.5t-134 -148.5t-38 -195z" />
<glyph unicode="&#x638;" horiz-adv-x="1439" arabic-form="final" d="M102 0v129h217v778h130v-424q131 172 368 172h8q146 0 262 -70t179 -189.5t65 -266.5h109v-129h-1338zM457 129h731q9 102 -41 195t-139 148.5t-191 55.5q-101 0 -188 -55.5t-134 -148.5t-38 -195zM754 809q0 29 21 50.5t50 21.5q30 0 51 -21t21 -51q0 -31 -20.5 -51.5 t-51.5 -20.5q-29 0 -50 20.5t-21 51.5z" />
<glyph unicode="&#x638;" horiz-adv-x="1308" arabic-form="initial" d="M-20 0v129h217v778h129v-424q131 172 368 172q116 0 209.5 -39.5t152.5 -105t96.5 -151t48.5 -176.5t1 -183h-1222zM334 129h731q9 102 -41 195t-139 148.5t-191 55.5q-101 0 -188 -55.5t-134 -148.5t-38 -195zM614 809q0 29 21.5 50.5t50.5 21.5q30 0 51 -21t21 -51 q0 -31 -20.5 -51.5t-51.5 -20.5q-30 0 -51 21t-21 51z" />
<glyph unicode="&#x638;" horiz-adv-x="1316" arabic-form="medial" d="M-20 0v129h217v778h129v-424q131 172 368 172h11q219 0 359.5 -150.5t143.5 -375.5h109v-129h-1337zM334 129h731q9 102 -41 195t-139 148.5t-191 55.5q-101 0 -188 -55.5t-134 -148.5t-38 -195zM614 809q0 29 21.5 50.5t50.5 21.5q30 0 51 -21t21 -51q0 -31 -20.5 -51.5 t-51.5 -20.5q-30 0 -51 21t-21 51z" />
<glyph unicode="&#x639;" horiz-adv-x="1024" arabic-form="final" d="M102 -176q0 132 68 203q61 79 223 108q-59 95 -59 195q0 138 98 221q103 94 227 94q138 0 246 -94l-76 -105q-78 78 -165 78q-77 0 -134 -58.5t-57 -133.5q0 -78 55 -133q64 -70 179 -70h317v-129h-537q-48 0 -89.5 -9.5t-79 -30.5t-59 -61t-21.5 -94q0 -77 45 -131h-152 q-29 72 -29 150z" />
<glyph unicode="&#x639;" horiz-adv-x="911" arabic-form="initial" d="M-20 0v129h284q-65 104 -65 203q0 132 101 220.5t237 88.5q130 0 233 -90l-76 -105q-36 38 -74 57t-94 19q-80 0 -131 -58.5t-51 -135.5q0 -90 68 -144.5t157 -54.5h240v-129h-829z" />
<glyph unicode="&#x639;" horiz-adv-x="886" arabic-form="medial" d="M-20 0v129h282q-63 111 -63 203q0 132 101 220.5t235 88.5q130 0 233 -90l-74 -105q-36 38 -74 57t-94 19q-80 0 -131 -58.5t-51 -135.5q0 -90 68 -144.5t157 -54.5h318v-129h-907z" />
<glyph unicode="&#x63a;" horiz-adv-x="1024" arabic-form="final" d="M102 -176q0 132 68 203q61 79 223 108q-59 95 -59 195q0 138 98 221q103 94 227 94q138 0 246 -94l-76 -105q-78 78 -165 78q-77 0 -134 -58.5t-57 -133.5q0 -78 55 -133q64 -70 179 -70h317v-129h-537q-48 0 -89.5 -9.5t-79 -30.5t-59 -61t-21.5 -94q0 -77 45 -131h-152 q-29 72 -29 150zM590 809q0 29 21.5 50.5t50.5 21.5q30 0 50.5 -21t20.5 -51q0 -31 -20 -51.5t-51 -20.5q-30 0 -51 21t-21 51z" />
<glyph unicode="&#x63a;" horiz-adv-x="911" arabic-form="initial" d="M-20 0v129h284q-65 104 -65 203q0 132 101 220.5t237 88.5q130 0 233 -90l-76 -105q-36 38 -74 57t-94 19q-80 0 -131 -58.5t-51 -135.5q0 -90 68 -144.5t157 -54.5h240v-129h-829zM463 809q0 29 21.5 50.5t50.5 21.5q30 0 50.5 -21t20.5 -51q0 -31 -20 -51.5t-51 -20.5 q-30 0 -51 21t-21 51z" />
<glyph unicode="&#x63a;" horiz-adv-x="886" arabic-form="medial" d="M-20 0v129h282q-63 111 -63 203q0 132 101 220.5t235 88.5q130 0 233 -90l-74 -105q-36 38 -74 57t-94 19q-80 0 -131 -58.5t-51 -135.5q0 -90 68 -144.5t157 -54.5h318v-129h-907zM463 809q0 29 21.5 50.5t50.5 21.5q30 0 50.5 -21t20.5 -51q0 -31 -20 -51.5t-51 -20.5 q-30 0 -51 21t-21 51z" />
<glyph unicode="&#x641;" horiz-adv-x="1542" arabic-form="final" d="M102 328q0 130 79.5 217t205.5 98v-129q-68 -12 -113 -67t-45 -123q0 -77 54.5 -136t134.5 -59h430q-64 93 -64 197q0 131 92 225t232 94q139 0 232.5 -94.5t93.5 -224.5q0 -99 -66 -197h174v-129h-1124q-135 0 -225.5 95t-90.5 233zM928 324q0 -76 52 -135.5t128 -59.5 t130 59.5t54 135.5q0 70 -55 134t-129 64q-73 0 -126.5 -64t-53.5 -134zM1032 809q0 29 21.5 50.5t50.5 21.5q30 0 51 -21t21 -51q0 -31 -20.5 -51.5t-51.5 -20.5q-30 0 -51 21t-21 51z" />
<glyph unicode="&#x641;" horiz-adv-x="948" arabic-form="initial" d="M-20 0v129h282q-63 91 -63 197q0 131 91 225t232 94q138 0 231 -94.5t93 -224.5q0 -82 -37 -152v2q-53 -93 -123 -134.5t-166 -41.5h-540zM340 324q0 -76 53 -135.5t129 -59.5q75 0 129 60t54 135q0 70 -54.5 134t-128.5 64t-128 -64t-54 -134zM446 809q0 29 21.5 50.5 t50.5 21.5q30 0 51 -21t21 -51q0 -31 -20.5 -51.5t-51.5 -20.5q-30 0 -51 21t-21 51z" />
<glyph unicode="&#x641;" horiz-adv-x="956" arabic-form="medial" d="M-20 0v129h282q-63 91 -63 197q0 131 91 225t232 94q138 0 231 -94.5t93 -224.5q0 -97 -64 -197h174v-129h-976zM340 324q0 -76 53 -135.5t129 -59.5q75 0 129 60t54 135q0 70 -54.5 134t-128.5 64t-128 -64t-54 -134zM446 809q0 29 21.5 50.5t50.5 21.5q30 0 51 -21 t21 -51q0 -31 -20.5 -51.5t-51.5 -20.5q-30 0 -51 21t-21 51z" />
<glyph unicode="&#x642;" horiz-adv-x="1542" arabic-form="final" d="M102 328q0 130 79.5 217t205.5 98v-129q-68 -12 -113 -67t-45 -123q0 -77 54.5 -136t134.5 -59h430q-64 93 -64 197q0 131 92 225t232 94q139 0 232.5 -94.5t93.5 -224.5q0 -99 -66 -197h174v-129h-1124q-135 0 -225.5 95t-90.5 233zM928 324q0 -76 52 -135.5t128 -59.5 t130 59.5t54 135.5q0 70 -55 134t-129 64q-73 0 -126.5 -64t-53.5 -134zM944 809q0 29 21.5 50.5t50.5 21.5q30 0 50.5 -21t20.5 -51q0 -31 -20 -51.5t-51 -20.5q-30 0 -51 21t-21 51zM1128 809q0 29 21.5 50.5t50.5 21.5q30 0 51 -21t21 -51q0 -31 -20.5 -51.5t-51.5 -20.5 q-30 0 -51 21t-21 51z" />
<glyph unicode="&#x642;" horiz-adv-x="948" arabic-form="initial" d="M-20 0v129h282q-63 91 -63 197q0 131 91 225t232 94q138 0 231 -94.5t93 -224.5q0 -82 -37 -152v2q-53 -93 -123 -134.5t-166 -41.5h-540zM340 324q0 -76 53 -135.5t129 -59.5q75 0 129 60t54 135q0 70 -54.5 134t-128.5 64t-128 -64t-54 -134zM348 809q0 29 21.5 50.5 t50.5 21.5q30 0 51 -21t21 -51q0 -31 -20.5 -51.5t-51.5 -20.5q-30 0 -51 21t-21 51zM532 809q0 29 21.5 50.5t50.5 21.5q30 0 51 -21t21 -51q0 -31 -20.5 -51.5t-51.5 -20.5q-30 0 -51 21t-21 51z" />
<glyph unicode="&#x642;" horiz-adv-x="956" arabic-form="medial" d="M-20 0v129h282q-63 91 -63 197q0 131 91 225t232 94q138 0 231 -94.5t93 -224.5q0 -97 -64 -197h174v-129h-976zM340 324q0 -76 53 -135.5t129 -59.5q75 0 129 60t54 135q0 70 -54.5 134t-128.5 64t-128 -64t-54 -134zM348 809q0 29 21.5 50.5t50.5 21.5q30 0 51 -21 t21 -51q0 -31 -20.5 -51.5t-51.5 -20.5q-30 0 -51 21t-21 51zM532 809q0 29 21.5 50.5t50.5 21.5q30 0 51 -21t21 -51q0 -31 -20.5 -51.5t-51.5 -20.5q-30 0 -51 21t-21 51z" />
<glyph unicode="&#x643;" horiz-adv-x="1370" arabic-form="final" d="M102 328q0 129 78.5 215.5t204.5 97.5v-127q-68 -12 -113 -67.5t-45 -124.5q0 -77 56.5 -135t132.5 -58h717v774h129v-774h108v-129h-954q-137 0 -225.5 94.5t-88.5 233.5zM553 514v82h131q-34 42 -39 91t15 88.5t62 66t95 26.5q78 0 137 -59l-53 -74q-27 30 -65.5 41 t-71 -9t-35.5 -75q3 -84 117 -96h106v-82h-399z" />
<glyph unicode="&#x643;" horiz-adv-x="952" arabic-form="initial" d="M-20 0v129h552q73 0 127 60t54 133q0 76 -52.5 138t-128.5 62h-333v148l276 389l109 -78l-242 -332h190q133 0 225.5 -91t92.5 -224q0 -96 -54 -181t-143 -124q-71 -29 -121 -29h-552z" />
<glyph unicode="&#x643;" horiz-adv-x="958" arabic-form="medial" d="M-20 0v129h552q73 0 127 60t54 133q0 76 -52.5 138t-128.5 62h-333v148l276 389l109 -78l-242 -332h190q133 0 225.5 -91t92.5 -224q0 -91 -70 -205h178v-129h-978z" />
<glyph unicode="&#x644;" horiz-adv-x="1015" arabic-form="final" d="M102 47q0 112 57 208t156 153l68 -121q-69 -50 -108 -104.5t-39 -135.5q0 -106 82 -188t188 -82q108 0 191 80.5t83 189.5v868h127v-786h109v-129h-109q-33 -153 -142 -251.5t-259 -98.5q-165 0 -284.5 115t-119.5 282z" />
<glyph unicode="&#x644;" horiz-adv-x="428" arabic-form="initial" d="M-20 0v129h217v780h129v-909h-346z" />
<glyph unicode="&#x644;" horiz-adv-x="432" arabic-form="medial" d="M-20 0v129h217v784h127v-784h108v-129h-452z" />
<glyph unicode="&#x645;" horiz-adv-x="1071" arabic-form="final" d="M102 70q0 147 72 280.5t198 216t271 82.5q89 0 163.5 -48.5t115.5 -124t41 -157.5q0 -97 -72 -190h180v-129h-428q-141 0 -232.5 101.5t-84.5 256.5q-88 -143 -88 -295q0 -128 61 -241l49 -74h-151l-54 109q-41 100 -41 213zM453 322q0 -75 57.5 -135t132.5 -60 q73 0 132 62t59 133q0 76 -57 138t-134 62q-79 0 -134.5 -61t-55.5 -139z" />
<glyph unicode="&#x645;" horiz-adv-x="940" arabic-form="initial" d="M-20 0v129h284q-65 91 -65 193q0 126 96.5 224.5t226.5 98.5q126 0 221 -96.5t95 -226.5t-94 -226t-220 -96h-544zM328 324q0 -72 53.5 -131.5t134.5 -59.5q82 0 139.5 58.5t57.5 132.5q0 76 -59 135t-140 59q-79 0 -132.5 -59.5t-53.5 -134.5z" />
<glyph unicode="&#x645;" horiz-adv-x="944" arabic-form="medial" d="M-20 0v129h231q-12 41 -12 70q0 130 94.5 230.5t228.5 100.5q127 0 221.5 -95.5t94.5 -225.5q0 -31 -15 -80h121v-129h-184q-100 -111 -246 -111q-135 0 -240 111h-294zM328 211q0 -73 53.5 -132t134.5 -59q83 0 140 57.5t57 133.5q0 75 -59.5 135t-139.5 60 q-79 0 -132.5 -60.5t-53.5 -134.5z" />
<glyph unicode="&#x646;" horiz-adv-x="1107" arabic-form="final" d="M102 236q0 120 60.5 224.5t177.5 166.5l45 -101q-72 -38 -116 -121t-44 -174q0 -118 80.5 -207t237.5 -102q135 0 228 89.5t93 221.5v406h135v-410l-10 -100h119v-129h-176q-61 -102 -159 -159.5t-218 -57.5h-10q-136 5 -239 72t-153.5 167t-50.5 214zM528 588 q0 29 21.5 50t50.5 21q30 0 51 -20.5t21 -50.5q0 -31 -20.5 -51.5t-51.5 -20.5q-30 0 -51 21t-21 51z" />
<glyph unicode="&#x646;" horiz-adv-x="471" arabic-form="initial" d="M-20 0v129h262v510h127v-639h-389zM240 850q0 29 21 50.5t50 21.5q30 0 51 -21t21 -51q0 -31 -20.5 -51.5t-51.5 -20.5q-29 0 -50 21t-21 51z" />
<glyph unicode="&#x646;" horiz-adv-x="499" arabic-form="medial" d="M-20 0v129h262v510h127v-510h131v-129h-520zM240 850q0 29 21 50.5t50 21.5q30 0 51 -21t21 -51q0 -31 -20.5 -51.5t-51.5 -20.5q-29 0 -50 21t-21 51z" />
<glyph unicode="&#x647;" horiz-adv-x="872" arabic-form="final" d="M102 96q0 139 60 265.5t173 208t251 81.5q93 0 178 -39v-483h108v-129h-766q-4 66 -4 96zM240 129h397v387q-174 12 -284 -99t-113 -288z" />
<glyph unicode="&#x647;" horiz-adv-x="1323" arabic-form="initial" d="M-20 0v129h217q9 132 63 245t153.5 190t227.5 91v191h127v-189q138 -13 243 -98t157.5 -210t52.5 -267q0 -32 -4 -82h-1237zM336 129h305v395q-134 -27 -226 -142t-79 -253zM768 129h309q12 139 -81 258t-228 141v-399z" />
<glyph unicode="&#x647;" horiz-adv-x="1325" arabic-form="medial" d="M-20 0v129h217q9 131 63.5 243.5t154 189.5t226.5 91v191h127v-191q128 -9 229.5 -85t157 -190.5t64.5 -248.5h106v-129h-1345zM336 129h305v393q-135 -27 -226.5 -141.5t-78.5 -251.5zM768 129h309q8 91 -32 177.5t-114 145.5t-163 74v-397z" />
<glyph unicode="&#x648;" horiz-adv-x="874" arabic-form="final" d="M102 330q0 62 20.5 118.5t59.5 102.5t104 73t146 27q78 0 139.5 -22t99.5 -57.5t63 -84.5t34.5 -98.5t9.5 -103.5q0 -77 -22 -156h118v-129h-149q-66 -164 -217 -340l-109 88q120 123 185 256q-31 -4 -88 -4q-184 0 -289 88t-105 242zM244 322q0 -58 22 -98.5t60.5 -62 t82.5 -31t97 -9.5q40 0 110 8q23 51 23 123q0 49 -11 94.5t-34 86t-63.5 65t-94.5 24.5q-82 0 -137 -58t-55 -142z" />
<glyph unicode="&#x649;" horiz-adv-x="1392" arabic-form="final" d="M102 330q0 127 79 215t206 98v-127q-66 -12 -112 -68t-46 -124q0 -75 57 -135t132 -60h389v262q0 98 74 173t172 75h209v-510h131v-129h-258v512h-82q-43 0 -81 -36.5t-38 -84.5v-391h-516q-135 0 -225.5 95.5t-90.5 234.5z" />
<glyph unicode="&#x64a;" horiz-adv-x="1392" arabic-form="final" d="M102 330q0 127 79 215t206 98v-127q-66 -12 -112 -68t-46 -124q0 -75 57 -135t132 -60h389v262q0 98 74 173t172 75h209v-510h131v-129h-258v512h-82q-43 0 -81 -36.5t-38 -84.5v-391h-516q-135 0 -225.5 95.5t-90.5 234.5zM610 -174q0 29 21.5 50.5t50.5 21.5 q30 0 51 -21t21 -51q0 -31 -20.5 -51.5t-51.5 -20.5q-30 0 -51 21t-21 51zM795 -174q0 29 21 50.5t50 21.5q30 0 51 -21t21 -51q0 -31 -20.5 -51.5t-51.5 -20.5q-30 0 -50.5 21t-20.5 51z" />
<glyph unicode="&#x64a;" horiz-adv-x="471" arabic-form="initial" d="M-20 0v129h262v510h127v-639h-389zM68 -174q0 29 21 50.5t50 21.5q30 0 51 -21t21 -51q0 -31 -20.5 -51.5t-51.5 -20.5q-29 0 -50 21t-21 51zM252 -174q0 29 21.5 50.5t50.5 21.5q30 0 50.5 -21t20.5 -51q0 -31 -20 -51.5t-51 -20.5q-30 0 -51 21t-21 51z" />
<glyph unicode="&#x64a;" horiz-adv-x="499" arabic-form="medial" d="M-20 0v129h262v510h127v-510h131v-129h-520zM143 -174q0 29 21.5 50.5t50.5 21.5q30 0 51 -21t21 -51q0 -31 -20.5 -51.5t-51.5 -20.5q-30 0 -51 21t-21 51zM328 -174q0 29 21 50.5t50 21.5q30 0 51 -21t21 -51q0 -31 -20.5 -51.5t-51.5 -20.5q-29 0 -50 21t-21 51z" />
<glyph unicode=" "  horiz-adv-x="294" />
<glyph unicode="&#x09;" horiz-adv-x="294" />
<glyph unicode="&#xa0;" horiz-adv-x="294" />
<glyph unicode="!" horiz-adv-x="282" d="M59 63q0 32 22.5 56t55.5 24q34 0 57 -24t23 -56q0 -31 -22.5 -54t-57.5 -23q-33 0 -55.5 23t-22.5 54zM84 205v686h106v-686h-106z" />
<glyph unicode="&#x22;" horiz-adv-x="423" d="M70 547v344h104v-344h-104zM252 547v344h104v-344h-104z" />
<glyph unicode="#" d="M41 272l4 82h135l25 183h-127l4 81h135l37 273h92l-37 -273h152l37 273h92l-39 -273h117l-4 -81h-123l-27 -183h117l-4 -82h-123l-39 -272h-92l39 272h-152l-39 -272h-92l39 272h-127zM270 354h154l25 183h-152z" />
<glyph unicode="$" d="M109 711q0 85 63 135q57 45 147 45v104h97v-104h172v-107h-172v-225q51 -37 73 -49q81 -51 115 -113q19 -48 19 -92q0 -90 -62 -139q-51 -43 -145 -43v-137h-97v137h-204v106h204v244q-52 33 -73 45q-84 50 -117 109q-20 38 -20 84zM221 705q0 -33 35 -64q23 -23 63 -43 v186q-98 0 -98 -79zM416 229q40 0 67 20t27 62q0 41 -31 72q-16 16 -30 23q-18 12 -33 24v-201z" />
<glyph unicode="%" horiz-adv-x="1132" d="M59 698q0 88 64 152q64 57 145 57q82 0 146 -57q63 -63 63 -152q0 -88 -63 -151q-61 -58 -146 -58q-84 0 -145 58q-64 64 -64 151zM158 698q0 -49 31.5 -79.5t78.5 -30.5q45 0 77 31t32 79t-31.5 78.5t-77.5 30.5q-47 0 -78.5 -30t-31.5 -79zM213 -14l594 921h78 l-592 -921h-80zM625 195q0 89 65 151q60 57 144 57q81 0 145 -57q63 -63 63 -151q0 -89 -63 -152q-60 -57 -145 -57q-87 0 -144 57q-65 62 -65 152zM723 195q0 -48 33 -79.5t78 -31.5t76.5 31t31.5 80q0 47 -31.5 77.5t-76.5 30.5t-78 -31t-33 -77z" />
<glyph unicode="&#x26;" horiz-adv-x="849" d="M43 348q0 90 38.5 168.5t113.5 128.5q-62 70 -62 125q0 58 36.5 89.5t92.5 31.5h369v-111h-352q-27 0 -27 -16q0 -11 29 -53l370 -473q29 42 29 110q0 86 -86 193l82 84q63 -66 93 -129t30 -146q0 -117 -70 -215l109 -135h-146l-47 49q-84 -63 -227 -63q-158 0 -266 100 q-109 106 -109 262zM166 350q0 -101 72 -180q74 -74 178 -74q100 0 164 51l-314 408q-100 -77 -100 -205z" />
<glyph unicode="'" horiz-adv-x="282" d="M90 547v344h105v-344h-105z" />
<glyph unicode="(" horiz-adv-x="495" d="M92 338q0 165 70 317q71 158 205 252l51 -69q-228 -180 -228 -494q0 -157 54 -283q59 -137 174 -225l-45 -76q-135 97 -209 254q-72 156 -72 324z" />
<glyph unicode=")" horiz-adv-x="495" d="M78 -170q227 180 227 494q0 330 -227 507l45 76q135 -97 209 -254q71 -154 71 -323q0 -165 -69 -318q-73 -160 -205 -252z" />
<glyph unicode="*" horiz-adv-x="636" d="M80 555l168 90l-168 88l47 80l158 -106l-15 184h97l-15 -184l158 106l47 -80l-168 -88l168 -90l-47 -78l-158 101l15 -179h-97l15 179l-158 -101z" />
<glyph unicode="+" horiz-adv-x="763" d="M76 256v100h256v256h100v-256h256v-100h-256v-256h-100v256h-256z" />
<glyph unicode="," horiz-adv-x="354" d="M80 -127l53 250h119l-74 -250h-98z" />
<glyph unicode="-" horiz-adv-x="354" d="M35 254v102h284v-102h-284z" />
<glyph unicode="." horiz-adv-x="354" d="M102 68q0 30 22 52.5t52 22.5q31 0 53.5 -22t22.5 -53q0 -32 -22.5 -54t-53.5 -22q-30 0 -52 22t-22 54z" />
<glyph unicode="/" horiz-adv-x="354" d="M-8 -14l270 921h100l-270 -921h-100z" />
<glyph unicode="0" d="M43 313v265q0 150 94 241q88 88 217 88q128 0 219 -88q93 -93 93 -241v-265q0 -145 -93 -241q-89 -86 -219 -86q-131 0 -217 86q-94 94 -94 241zM172 313q0 -100 47 -154.5t135 -54.5t135.5 54.5t47.5 154.5v265q0 100 -47.5 154t-135.5 54t-135 -54t-47 -154v-265z" />
<glyph unicode="1" d="M141 780l33 111h250v-891h-123v780h-160z" />
<glyph unicode="2" d="M41 94q0 35 18 56q18 18 62 53l313 246q96 76 96 176q0 74 -49 123q-50 47 -125 47q-86 0 -134 -51.5t-48 -137.5q0 -67 53 -114q48 -48 115 -54l-104 -82q-90 32 -137.5 101t-47.5 166q0 124 97 208q88 76 219 76q117 0 202 -82q82 -82 82 -200q0 -100 -57 -179 q-41 -58 -145 -137l-250 -194v-2h448v-113h-489q-58 0 -88.5 24.5t-30.5 69.5z" />
<glyph unicode="3" d="M57 0v113h295q85 0 131 49q45 45 45 119q0 67 -55.5 109t-153.5 42h-139v90l281 258h-383v111h385q127 0 127 -96q0 -38 -31 -78q-16 -19 -35 -35q-1 -1 -41 -35l-121 -102q125 0 207 -72q82 -69 82 -188q0 -128 -76 -207q-75 -78 -190 -78h-328z" />
<glyph unicode="4" d="M12 281q0 5 0.5 9.5t2 9.5t2.5 8.5t4 10t4.5 9.5t5.5 10.5t5.5 10.5t7 12t7.5 12l287 518h133l-321 -572h266v383l112 193l9 12q2 0 2 -18v-570h133v-112h-133v-207h-123v207h-318q-41 0 -63.5 19.5t-22.5 54.5z" />
<glyph unicode="5" d="M72 0v113h290q82 0 125 42.5t43 114.5q0 82 -47 124t-151 42h-223v455h466v-111h-344v-233h109q149 0 231 -70q88 -73 88 -209q0 -110 -71 -184q-74 -84 -193 -84h-323z" />
<glyph unicode="6" d="M31 301q0 87 35 152q19 43 81 131l218 307h147l-279 -389q-42 -59 -59 -99q-20 -50 -20 -112q0 -78 59 -137q58 -58 139 -58q83 0 142 62q61 61 61 143q0 109 -72 168q-65 56 -178 53l70 103q144 -6 227 -95q76 -88 76 -227q0 -127 -94 -221q-96 -96 -236 -96 q-135 0 -225 90q-92 92 -92 225z" />
<glyph unicode="7" d="M55 780v111h449q71 0 104 -21.5t33 -68.5q0 -34 -23 -88q-28 -53 -53 -117l-264 -596h-141l350 780h-455z" />
<glyph unicode="8" d="M37 268q0 148 143 236q-45 45 -61 78q-23 45 -23 104q0 91 70 152q76 69 188 69q113 0 181 -59q73 -57 73 -162q0 -102 -80 -182q144 -75 144 -236q0 -117 -82 -196q-86 -86 -236 -86q-146 0 -235 86q-82 79 -82 196zM166 268q0 -77 52 -124.5t136 -47.5t135.5 47.5 t51.5 124.5q0 78 -51 125t-136 47t-136.5 -47t-51.5 -125zM225 674q0 -52 35 -86.5t92 -34.5q56 0 90.5 34.5t34.5 86.5t-34.5 86.5t-90.5 34.5q-57 0 -92 -34.5t-35 -86.5z" />
<glyph unicode="9" d="M31 588q0 129 94 223q99 96 233 96q65 0 124.5 -24t101.5 -66q94 -94 94 -227q0 -78 -33 -152q-24 -48 -84 -129l-217 -309h-147l276 389q47 64 62 100q20 58 20 111q0 80 -57 137q-58 58 -142 58q-80 0 -143 -60q-59 -59 -59 -143q0 -109 69 -168q63 -55 180 -55 l-71 -101q-142 0 -226 94q-75 84 -75 226z" />
<glyph unicode=":" horiz-adv-x="354" d="M102 68q0 30 22 52.5t52 22.5q31 0 53.5 -22t22.5 -53q0 -32 -22.5 -54t-53.5 -22q-30 0 -52 22t-22 54zM102 434q0 32 22 54t52 22q31 0 53.5 -22t22.5 -54q0 -31 -22.5 -53.5t-53.5 -22.5q-29 0 -51.5 22.5t-22.5 53.5z" />
<glyph unicode=";" horiz-adv-x="354" d="M80 -127l53 250h119l-74 -250h-98zM102 434q0 32 22 54t52 22q31 0 53.5 -22t22.5 -54q0 -31 -22.5 -53.5t-53.5 -22.5q-29 0 -51.5 22.5t-22.5 53.5z" />
<glyph unicode="&#x3c;" horiz-adv-x="763" d="M76 262v86l612 275v-101l-487 -217l487 -215v-100z" />
<glyph unicode="=" horiz-adv-x="763" d="M76 129v100h612v-100h-612zM76 383v98h612v-98h-612z" />
<glyph unicode="&#x3e;" horiz-adv-x="763" d="M76 -10v100l487 215l-487 217v101l612 -275v-86z" />
<glyph unicode="?" horiz-adv-x="565" d="M33 625q0 118 76 200q72 82 194 82q104 0 180 -76q74 -77 74 -186q0 -110 -61 -180q-63 -72 -162 -90v-170h-113v278h33q93 0 138.5 42t45.5 114q0 68 -38.5 112t-104.5 44q-67 0 -109 -52q-32 -43 -32 -118h-121zM199 63q0 32 23 56t57 24t55.5 -24t21.5 -56 t-21.5 -54.5t-55.5 -22.5q-35 0 -57.5 23t-22.5 54z" />
<glyph unicode="@" horiz-adv-x="1019" d="M66 446q0 191 137 328q136 133 325 133q176 0 299 -104q127 -111 127 -275q0 -158 -110 -264q-45 -43 -97 -66.5t-92 -23.5q-69 0 -75 72h-2q-65 -72 -144 -72q-78 0 -131 59q-53 56 -53 140q0 126 76 225q81 104 202 104q98 0 142 -90l22 70h90l-92 -334 q-10 -45 -10 -57q0 -31 22 -31q62 0 113 78q53 77 53 174q0 144 -100 231q-94 82 -240 82q-165 0 -264 -110q-102 -108 -102 -273q0 -163 108 -268q108 -108 271 -108q83 0 157.5 33.5t128.5 95.5h88q-61 -99 -161 -154t-219 -55q-198 0 -334 133q-135 132 -135 327z M356 385q0 -51 29 -83t74 -32q71 0 125 78q49 71 49 148q0 45 -29 77q-30 33 -72 33q-73 0 -126 -74q-50 -69 -50 -147z" />
<glyph unicode="A" d="M49 0v565q0 158 88 252q87 90 217 90t217 -90q88 -94 88 -252v-565h-120v406h-322v112h322v55q0 104 -50.5 163t-134.5 59t-134 -59t-50 -163v-573h-121z" />
<glyph unicode="B" d="M76 0v633q0 110 80 190q81 84 202 84q128 0 209 -65q80 -67 80 -185q0 -120 -90 -180q69 -38 100 -91.5t31 -133.5q0 -112 -76 -182q-73 -70 -192 -70h-178v113h147q94 0 136 36.5t42 108.5q0 73 -45.5 110.5t-132.5 37.5h-147v112h125q76 0 118.5 38t42.5 95 q0 69 -49 109q-41 35 -110 35q-83 0 -128.5 -46.5t-45.5 -125.5v-623h-119z" />
<glyph unicode="C" horiz-adv-x="636" d="M45 446q0 82 32.5 161.5t92.5 142.5q134 141 340 141h94v-111h-80q-155 0 -254 -96q-100 -94 -100 -238q0 -159 104 -253q89 -80 203 -80h127v-113h-127q-188 0 -309 127q-123 126 -123 319z" />
<glyph unicode="D" horiz-adv-x="778" d="M76 0v891h225q186 0 313 -133q123 -133 123 -312q0 -89 -32.5 -170.5t-90.5 -142.5q-127 -133 -313 -133h-55v113h65q126 0 213 96q88 94 88 237q0 150 -96 240q-97 94 -248 94h-73v-780h-119z" />
<glyph unicode="E" horiz-adv-x="636" d="M29 446q0 187 131 318q130 127 329 127h95v-111h-80q-158 0 -260 -98q-41 -39 -64.5 -84.5t-25.5 -79.5h430v-112h-430q9 -124 104 -209q90 -84 211 -84h115v-113h-95q-197 0 -329 129q-131 128 -131 317z" />
<glyph unicode="F" horiz-adv-x="495" d="M35 0v592q0 142 72.5 220.5t203.5 78.5h150v-111h-131q-87 0 -130.5 -42t-43.5 -134v-104h305v-113h-305v-387h-121z" />
<glyph unicode="G" horiz-adv-x="991" d="M29 446q0 192 139 328q139 133 328 133q115 0 196 -37q84 -37 172 -125l-80 -86q-97 78 -135 99q-67 37 -153 37q-148 0 -244 -103q-98 -101 -98 -246q0 -144 98 -245q98 -105 244 -105q130 0 223 80q95 76 104 213h-311v113h436v-76q0 -206 -147 -330 q-128 -110 -305 -110q-192 0 -328 133q-139 133 -139 327z" />
<glyph unicode="H" horiz-adv-x="778" d="M76 0v891h119v-373h387v373h120v-891h-120v406h-387v-406h-119z" />
<glyph unicode="I" horiz-adv-x="282" d="M82 0v891h119v-891h-119z" />
<glyph unicode="J" horiz-adv-x="423" d="M-2 0v113h59q191 0 191 168v610h121v-602q0 -140 -74 -211q-81 -78 -236 -78h-61z" />
<glyph unicode="K" d="M82 0v891h119v-373h92q104 0 156 121l112 252h135l-88 -189q-4 -8 -17.5 -38.5t-19 -42t-19 -35.5t-23 -37t-25 -28.5t-31.5 -26.5q178 -47 178 -246v-248h-119v248q0 70 -36 112q-40 46 -127 46h-168v-406h-119z" />
<glyph unicode="L" horiz-adv-x="495" d="M82 289v602h119v-574q0 -104 44 -154t138 -50h115v-113h-133q-130 0 -207 80q-76 79 -76 209z" />
<glyph unicode="M" horiz-adv-x="991" d="M0 0l102 813q7 44 35.5 69t65.5 25q41 0 66.5 -21.5t43.5 -82.5l181 -600h4l180 600q18 61 43.5 82.5t66.5 21.5q37 0 65.5 -25t35.5 -69l102 -813h-125l-86 723h-2l-190 -621q-20 -65 -39 -84q-18 -18 -51 -18h-4q-34 0 -52 18q-19 19 -39 84l-190 621h-2l-86 -723h-125 z" />
<glyph unicode="N" horiz-adv-x="778" d="M63 0v791q0 108 105 108q47 0 78 -31q19 -22 59 -100l287 -592h2v715h119v-813q0 -39 -23 -62.5t-67 -23.5q-45 0 -71 18t-48 70l-318 651h-2v-731h-121z" />
<glyph unicode="O" horiz-adv-x="991" d="M29 446q0 192 139 328q139 133 328 133q188 0 327 -133q140 -140 140 -328q0 -94 -37.5 -178.5t-102.5 -148.5q-136 -133 -327 -133q-192 0 -328 133q-139 133 -139 327zM154 446q0 -144 98 -245q98 -105 244 -105q145 0 243 105q99 102 99 245q0 144 -99 246 q-96 103 -243 103q-148 0 -244 -103q-98 -101 -98 -246z" />
<glyph unicode="P" horiz-adv-x="636" d="M51 0v596q0 141 86 227q78 84 199 84q129 0 215 -86q80 -83 80 -200q0 -119 -72 -201q-74 -84 -180 -84h-162v113h129q69 0 117 45q47 47 47 127t-48.5 127t-123.5 47q-72 0 -119 -50q-49 -49 -49 -133v-612h-119z" />
<glyph unicode="Q" horiz-adv-x="991" d="M29 446q0 192 139 328q139 133 328 133q188 0 327 -133q140 -140 140 -328q0 -167 -117 -301q-53 -62 -122 -101t-142 -48v-180h-121v475h121v-185q115 29 186 125q70 92 70 215q0 144 -99 246q-96 103 -243 103q-148 0 -244 -103q-98 -101 -98 -246q0 -126 77 -223 q73 -96 172 -114v-113q-156 28 -264 151q-110 129 -110 299z" />
<glyph unicode="R" d="M63 0v588q0 148 84 235q75 84 211 84q122 0 201 -76q76 -70 76 -178q0 -136 -105 -198q60 -23 88 -66q31 -48 31 -141v-248h-119v244q0 68 -40 106.5t-121 38.5h-133v113h94q84 0 133 37q51 39 51 110q0 66 -47 107q-45 39 -109 39q-77 0 -125.5 -47.5t-48.5 -124.5v-623 h-121z" />
<glyph unicode="S" horiz-adv-x="636" d="M31 0v113h305q79 0 114 27.5t35 86.5q0 43 -29.5 75t-86.5 63q-53 29 -107 51q-134 60 -192 139q-33 51 -33 113q0 107 69 166q63 57 175 57h284v-111h-301q-50 0 -78 -27t-28 -79q0 -38 29 -66.5t85 -58.5q46 -25 109 -51q134 -63 190 -146q33 -44 33 -114 q0 -108 -65 -173t-181 -65h-327z" />
<glyph unicode="T" horiz-adv-x="565" d="M2 780v111h561v-111h-221v-780h-119v780h-221z" />
<glyph unicode="U" d="M59 293v598h119v-586q0 -96 45 -147q46 -62 129 -62q82 0 131 62q45 51 45 147v586h121v-598q0 -126 -86 -219q-85 -88 -211 -88q-127 0 -209 88q-84 87 -84 219z" />
<glyph unicode="V" d="M-18 891h124l252 -735h2l242 735h125l-260 -801q-19 -59 -44.5 -81.5t-62.5 -22.5t-61 22.5t-45 81.5z" />
<glyph unicode="W" horiz-adv-x="1132" d="M61 268v623h121v-623q0 -79 41.5 -125.5t120.5 -46.5t120.5 46.5t41.5 125.5v623h119v-623q0 -79 41.5 -125.5t119.5 -46.5q79 0 120.5 46.5t41.5 125.5v623h121v-623q0 -127 -82 -209q-76 -73 -182 -73q-82 0 -140 25t-100 89q-42 -64 -99.5 -89t-139.5 -25 q-104 0 -183 73q-82 82 -82 209z" />
<glyph unicode="X" d="M4 0v113h7q121 0 202 100q76 95 76 233q0 136 -76 234q-83 100 -209 100v111q127 -3 219 -68q103 -70 129 -186h4q22 112 127 186q95 65 219 68v-111q-123 0 -206 -100q-76 -98 -76 -234q0 -138 76 -233q81 -100 199 -100h7v-113q-121 3 -219 70q-105 74 -127 184h-4 q-26 -113 -129 -184q-95 -67 -219 -70z" />
<glyph unicode="Y" horiz-adv-x="636" d="M29 623v268h121v-270q0 -76 45.5 -118t123.5 -42q76 0 122 42.5t46 117.5v270h119v-268q0 -96 -55 -166q-61 -81 -176 -109v-348h-119v348q-115 29 -172 109q-55 70 -55 166z" />
<glyph unicode="Z" horiz-adv-x="636" d="M14 86q0 27 9.5 53t18 40t28.5 42l401 559h-410v111h431q53 0 78.5 -21.5t25.5 -54.5q0 -67 -51 -137l-400 -565h465v-113h-497q-46 0 -72.5 26t-26.5 60z" />
<glyph unicode="[" horiz-adv-x="495" d="M143 -223v1114h222v-57h-111v-1000h111v-57h-222z" />
<glyph unicode="\" horiz-adv-x="354" d="M-80 907h100l412 -921h-98z" />
<glyph unicode="]" horiz-adv-x="495" d="M131 -166h111v1000h-111v57h221v-1114h-221v57z" />
<glyph unicode="^" horiz-adv-x="763" d="M72 365l262 526h96l262 -526h-106l-203 417l-205 -417h-106z" />
<glyph unicode="_" horiz-adv-x="636" d="M0 -96h637v-64h-637v64z" />
<glyph unicode="a" d="M33 311q0 137 84 224q90 90 231 90t227 -80q82 -79 82 -211v-334h-112v344q0 80 -62 129q-54 45 -137 45q-93 0 -145 -65q-56 -59 -56 -150q0 -86 56 -145q61 -64 145 -64q87 0 154 84v-133q-39 -29 -75.5 -43t-90.5 -14q-128 0 -215 94q-86 96 -86 229z" />
<glyph unicode="b" d="M51 324v567h113v-547q0 -126 57 -186q52 -64 137 -64q91 0 148 60t57 153q0 95 -55 153t-146 58q-37 0 -80.5 -15.5t-74.5 -39.5v119q76 43 174 43q122 0 207 -88q88 -91 88 -215q0 -139 -84 -236q-85 -98 -234 -98q-132 0 -221 92q-86 92 -86 244z" />
<glyph unicode="c" horiz-adv-x="495" d="M55 305q0 136 101 227q89 80 206 80h107v-108h-86q-84 0 -145 -49q-66 -53 -66 -150q0 -94 66 -147q65 -52 145 -52h86v-106h-107q-117 0 -206 80q-101 87 -101 225z" />
<glyph unicode="d" d="M33 322q0 122 90 215q85 88 205 88q98 0 172 -43v-119q-30 24 -73 39.5t-81 15.5q-92 0 -146.5 -57.5t-54.5 -153.5q0 -95 58 -153q57 -60 145 -60q84 0 139 64q58 65 58 186v547h112v-567q0 -148 -86 -244q-89 -92 -223 -92q-146 0 -231 98q-84 97 -84 236z" />
<glyph unicode="e" d="M39 305q0 139 94 230q93 90 223 90q202 0 295 -195l-413 -229l-45 90l301 168q-32 32 -60.5 45.5t-77.5 13.5q-86 0 -145 -59q-55 -58 -55 -154q0 -93 55 -151q60 -60 145 -60q94 0 144 53q41 46 61 138l113 -15q-9 -123 -99 -200q-88 -82 -219 -82q-132 0 -223 88 q-94 91 -94 229z" />
<glyph unicode="f" horiz-adv-x="354" d="M66 0v670q0 100 61 164q60 57 156 57h94v-107h-78q-121 0 -121 -112v-60h184v-108h-184v-504h-112z" />
<glyph unicode="g" d="M41 299q0 139 86 231q92 95 229 95q130 0 222 -95q79 -88 79 -208v-273q0 -167 -92 -256q-84 -84 -227 -84q-100 0 -201 37l27 100q118 -30 168 -30q88 0 145 43q68 48 68 151v285q0 103 -58 164q-53 59 -135 59q-92 0 -149 -67q-49 -64 -49 -160q0 -88 59 -144 q53 -53 145 -53q58 0 142 49v-114q-67 -41 -144 -41q-135 0 -223 88q-92 89 -92 223z" />
<glyph unicode="h" horiz-adv-x="636" d="M57 0v891h113v-334q58 68 156 68q116 0 180 -58q74 -64 74 -211v-356h-113v356q0 87 -43 127q-41 35 -105 35q-61 0 -106 -45q-43 -46 -43 -117v-356h-113z" />
<glyph unicode="i" horiz-adv-x="354" d="M109 748q0 28 18 47.5t49 19.5q32 0 50 -19.5t18 -47.5t-18 -48t-50 -20q-31 0 -49 20t-18 48zM121 0v612h112v-612h-112z" />
<glyph unicode="j" horiz-adv-x="282" d="M-82 -168h29q79 0 112 29q27 27 27 110v641h113v-665q0 -116 -70 -170q-62 -51 -178 -51h-33v106zM76 748q0 28 17.5 47.5t49.5 19.5q31 0 49.5 -19.5t18.5 -47.5t-18.5 -48t-49.5 -20q-32 0 -49.5 20t-17.5 48z" />
<glyph unicode="k" horiz-adv-x="565" d="M66 0v891h112v-506h47q69 0 94 45l107 182h127l-80 -139q-23 -39 -43 -67q-26 -37 -53 -44v-4q71 -14 106 -56t35 -122v-180h-112v166q0 57 -27 85t-74 28h-127v-279h-112z" />
<glyph unicode="l" horiz-adv-x="282" d="M86 0v891h111v-891h-111z" />
<glyph unicode="m" horiz-adv-x="919" d="M61 0v416q0 83 64 147q62 62 156 62q121 0 180 -88q56 88 178 88q94 0 156 -62q63 -63 63 -147v-416h-113v389q0 59 -29.5 94t-80.5 35q-119 0 -119 -145v-373h-113v373q0 145 -118 145q-51 0 -81 -35t-30 -94v-389h-113z" />
<glyph unicode="n" horiz-adv-x="636" d="M57 0v356q0 119 76 195q71 74 186 74q113 0 187 -74q74 -77 74 -195v-356h-113v356q0 71 -43 117q-48 45 -105 45q-58 0 -106 -45q-43 -46 -43 -117v-356h-113z" />
<glyph unicode="o" d="M37 305q0 141 96 230q90 90 221 90t224 -90q94 -91 94 -230q0 -138 -94 -229q-91 -88 -224 -88t-221 88q-96 89 -96 229zM154 305q0 -94 57 -151q57 -60 143 -60q87 0 144 60q57 57 57 151q0 97 -57 154q-56 59 -144 59q-87 0 -143 -59q-57 -57 -57 -154z" />
<glyph unicode="p" d="M51 -274v563q0 151 86 243q87 93 221 93q146 0 234 -101q84 -97 84 -233q0 -127 -88 -215q-85 -88 -207 -88q-98 0 -174 43v116q32 -23 75 -38t80 -15q91 0 146 57.5t55 153.5q0 92 -57 152q-58 61 -148 61q-85 0 -137 -61q-57 -66 -57 -189v-542h-113z" />
<glyph unicode="q" d="M33 291q0 136 84 233q88 101 231 101q136 0 223 -93q86 -96 86 -243v-563h-112v542q0 118 -58 189q-55 61 -139 61q-87 0 -145 -61q-58 -58 -58 -152q0 -97 54.5 -154t146.5 -57q37 0 80.5 15.5t73.5 37.5v-116q-74 -43 -172 -43q-120 0 -205 88q-90 90 -90 215z" />
<glyph unicode="r" horiz-adv-x="354" d="M55 0v612h109v-71h2q29 45 68 64.5t98 19.5h24v-107h-16q-85 0 -128.5 -55.5t-43.5 -177.5v-285h-113z" />
<glyph unicode="s" horiz-adv-x="565" d="M35 0v106h313q74 0 74 60q0 26 -26 43.5t-74 32.5q-34 12 -93 26q-115 34 -163 90q-31 36 -31 88q0 81 54 123.5t155 42.5h264v-108h-283q-41 0 -56 -11.5t-15 -41.5q0 -44 98 -72q74 -21 94 -25q114 -31 164 -92q29 -36 29 -92q0 -83 -52.5 -126.5t-138.5 -43.5h-313z " />
<glyph unicode="t" horiz-adv-x="423" d="M76 197v567h110v-152h220v-108h-220v-320q0 -42 20 -60t64 -18h136v-106h-150q-87 0 -133.5 52.5t-46.5 144.5z" />
<glyph unicode="u" horiz-adv-x="636" d="M57 254v358h113v-358q0 -69 43 -115q48 -45 106 -45q57 0 105 45q43 46 43 115v358h113v-358q0 -119 -74 -193q-73 -73 -187 -73q-116 0 -186 73q-76 73 -76 193z" />
<glyph unicode="v" horiz-adv-x="565" d="M-16 612h122l179 -475l176 475h123l-215 -563q-14 -37 -33.5 -49t-52.5 -12t-52.5 12t-33.5 49z" />
<glyph unicode="w" horiz-adv-x="919" d="M61 197v415h113v-391q0 -58 30 -92.5t81 -34.5q118 0 118 146v372h113v-372q0 -146 119 -146q51 0 80.5 34t29.5 93v391h113v-415q0 -85 -63 -148q-64 -61 -156 -61q-121 0 -178 86q-60 -86 -180 -86q-92 0 -156 61q-64 64 -64 148z" />
<glyph unicode="x" horiz-adv-x="495" d="M8 0v106q79 3 131 62q54 61 54 137q0 80 -54 137q-47 56 -131 62v108q173 -13 240 -153q23 67 94 112q65 41 145 41v-108q-81 -6 -131 -62q-51 -58 -51 -137q0 -76 51 -137q56 -59 131 -62v-106q-78 0 -139.5 37t-99.5 106q-79 -143 -240 -143z" />
<glyph unicode="y" horiz-adv-x="636" d="M63 244v368h113v-368q0 -66 37 -108t106 -42q68 0 105 42t37 108v368h112v-368q0 -203 -198 -256v-262h-113v262q-199 53 -199 256z" />
<glyph unicode="z" horiz-adv-x="495" d="M23 80q0 28 14 54t47 65l250 305h-289v108h297q56 0 86.5 -22t30.5 -60q0 -42 -19 -67l-293 -357h316v-106h-348q-42 0 -67 21t-25 59z" />
<glyph unicode="{" horiz-adv-x="495" d="M43 299v74q39 0 69.5 38.5t30.5 98.5v227q0 67 36.5 110.5t90.5 43.5h101v-57h-60q-23 0 -41 -21q-16 -22 -16 -82v-237q0 -74 -41 -119q-27 -34 -59 -39v-2q40 -13 59 -37q41 -48 41 -125v-235q0 -58 16 -80q20 -23 41 -23h60v-57h-101q-54 0 -90.5 43t-36.5 110v226 q0 60 -30 102q-30 41 -70 41z" />
<glyph unicode="|" horiz-adv-x="282" d="M92 0v891h98v-891h-98z" />
<glyph unicode="}" horiz-adv-x="495" d="M125 -166h59q23 0 39 23q19 22 19 80v237q0 70 39 119q27 29 61 39v2q-37 10 -61 39q-39 45 -39 123v235q0 60 -19 82q-15 21 -39 21h-59v57h100q54 0 90.5 -43.5t36.5 -110.5v-225q0 -61 33 -102q27 -41 68 -41v-74q-39 0 -70 -38.5t-31 -98.5v-228q0 -67 -36.5 -110 t-90.5 -43h-100v57z" />
<glyph unicode="~" horiz-adv-x="763" d="M88 289q25 48 59 73q44 35 101 35q44 0 145 -43q92 -43 125 -43t66 29q4 4 24 29q4 7 13 19.5t10 14.5l45 -79q-35 -53 -64 -76q-44 -35 -94 -35q-53 0 -133 45q-4 2 -18 8.5t-19.5 9t-18 7.5t-20.5 7.5t-20 5.5t-23.5 4t-23.5 1q-37 0 -68 -31q-26 -26 -41 -61z" />
<glyph unicode="&#xa1;" horiz-adv-x="282" d="M66 553q0 32 22.5 56t56.5 24q33 0 55.5 -24t22.5 -56t-22.5 -56t-55.5 -24q-34 0 -56.5 24t-22.5 56zM92 -274v688h107v-688h-107z" />
<glyph unicode="&#xa2;" d="M90 483q0 96 66 172q66 72 166 78v158h96v-158h82v-110h-135q-74 0 -114 -36t-40 -104q0 -67 40 -102t114 -35h135v-113h-82v-163h-96v163q-101 3 -166 78q-66 69 -66 172z" />
<glyph unicode="&#xa3;" d="M0 0v113h25q75 0 104 27t29 93v89q-4 54 -4 88h-86v112h82v103q0 123 73 202q74 80 195 80q61 0 153 -30l-39 -109q-60 27 -110 27q-70 0 -111 -42.5t-41 -119.5q0 -17 4 -53q0 -40 2 -58h146v-112h-141v-162q0 -97 -48 -133l5 -2h168q74 0 116 39q45 39 45 124v134h123 v-125q0 -285 -289 -285h-401z" />
<glyph unicode="&#xa4;" d="M33 184l69 74q-63 78 -63 188q0 112 63 187l-69 74l59 61l72 -74q74 68 190 68q114 0 191 -68l69 74l62 -61l-70 -74q64 -76 64 -187q0 -109 -64 -188l70 -74l-62 -61l-69 74q-77 -68 -191 -68q-116 0 -190 68l-72 -74zM143 446q0 -90 62 -155q64 -64 149 -64 q89 0 150 64t61 155q0 92 -61 156t-150 64q-85 0 -149 -64q-62 -65 -62 -156z" />
<glyph unicode="&#xa5;" d="M14 780v111q121 -3 213 -68q102 -72 125 -186h4q23 113 123 186q92 65 213 68v-111q-84 0 -149 -49q-66 -51 -97 -129h209v-113h-235q-4 -28 -4 -43v-32h239v-113h-239v-301h-125v301h-238v113h238v32q0 29 -2 43h-236v113h209q-30 76 -96 129q-65 49 -152 49z" />
<glyph unicode="&#xa6;" horiz-adv-x="282" d="M92 0v334h98v-334h-98zM92 557v334h98v-334h-98z" />
<glyph unicode="&#xa7;" horiz-adv-x="636" d="M68 461q0 67 38 102.5t107 38.5q-74 82 -74 150t56 114q50 41 122 41q64 0 108 -25.5t89 -78.5l-74 -60q-25 29 -36 40.5t-34.5 24.5t-50.5 13q-31 0 -52 -20t-21 -51q0 -25 21 -54t63 -71q49 -49 78 -74q99 -91 137 -162q24 -41 24 -84q0 -58 -43 -98q-42 -36 -96 -45 q37 -43 52.5 -76.5t15.5 -83.5q0 -70 -62 -115q-55 -37 -129 -37q-62 0 -112 29q-39 23 -91 78l80 61q52 -81 127 -81q32 0 56 20.5t24 52.5q0 46 -84 137l-78 78q-99 96 -137 160q-24 37 -24 76zM174 471q0 -31 47 -88q41 -56 94 -100q57 -47 84 -47q25 0 44.5 14.5 t19.5 38.5q0 22 -47 86q-46 60 -97 102q-58 51 -88 51q-26 0 -41.5 -15.5t-15.5 -41.5z" />
<glyph unicode="&#xa9;" horiz-adv-x="1019" d="M41 446q0 198 141 332q135 129 328 129t328 -129q141 -134 141 -332q0 -199 -141 -333q-137 -127 -328 -127t-328 127q-141 134 -141 333zM147 446q0 -164 105 -272t258 -108t258 108q102 105 102 272q0 166 -102 271q-105 108 -258 108t-258 -108t-105 -271zM258 449 q0 121 70 200q77 80 196 80q90 0 152.5 -50.5t75.5 -141.5h-90q-7 49 -45 76.5t-93 27.5q-82 0 -123 -53q-43 -56 -43 -137q0 -83 45 -140q47 -57 123 -57q57 0 93.5 29t42.5 79h90q-17 -90 -78.5 -142t-147.5 -52q-122 0 -194 82q-74 77 -74 199z" />
<glyph unicode="&#xaa;" horiz-adv-x="425" d="M8 719q0 78 55 133q58 55 152 55q92 0 147.5 -47.5t55.5 -126.5v-201h-80v207q0 50 -35.5 76.5t-89.5 26.5q-58 0 -92.5 -36.5t-34.5 -90.5q0 -53 35.5 -88t91.5 -35q59 0 100 47v-78q-54 -37 -108 -37q-81 0 -142 58q-55 55 -55 137z" />
<glyph unicode="&#xab;" horiz-adv-x="636" d="M82 305l158 197h96l-158 -197l166 -196h-96zM299 305l158 197h96l-158 -197l166 -196h-98z" />
<glyph unicode="&#xac;" horiz-adv-x="763" d="M76 383v98h612v-352h-100v254h-512z" />
<glyph unicode="&#xad;" horiz-adv-x="354" d="M35 254v102h284v-102h-284z" />
<glyph unicode="&#xae;" horiz-adv-x="1019" d="M41 446q0 198 141 332q135 129 328 129t328 -129q141 -134 141 -332q0 -199 -141 -333q-137 -127 -328 -127t-328 127q-141 134 -141 333zM147 446q0 -164 105 -272t258 -108t258 108q102 105 102 272q0 166 -102 271q-105 108 -258 108t-258 -108t-105 -271zM330 182 v527h200q97 0 144 -36t47 -116q0 -126 -137 -143l147 -232h-94l-137 228h-84v-228h-86zM416 481h110q58 0 83.5 19.5t25.5 64.5q0 74 -115 74h-104v-158z" />
<glyph unicode="&#xb0;" horiz-adv-x="509" d="M72 725q0 77 55 129q50 53 127 53q81 0 131 -53q51 -51 51 -129t-51 -129q-53 -53 -131 -53q-74 0 -127 53q-55 52 -55 129zM133 725q0 -54 34.5 -90.5t86.5 -36.5q53 0 87 36t34 91q0 54 -33.5 89.5t-87.5 35.5q-52 0 -86.5 -35.5t-34.5 -89.5z" />
<glyph unicode="&#xb1;" horiz-adv-x="763" d="M76 0v100h612v-100h-612zM76 328v98h256v186h100v-186h256v-98h-256v-185h-100v185h-256z" />
<glyph unicode="&#xb2;" horiz-adv-x="423" d="M8 420q0 6 0.5 11t3.5 9.5l5 7.5t8 8l9 7.5t12.5 9.5t14.5 10l203 150q64 47 64 104q0 44 -30 72.5t-75 28.5q-56 0 -86.5 -29.5t-30.5 -81.5q0 -42 33 -68q31 -28 72 -34l-78 -50q-117 42 -117 162q0 75 64 123q56 47 141 47q82 0 137 -49q58 -49 58 -119 q0 -63 -37 -106q-27 -36 -94 -86l-162 -113v-2h287v-70h-324q-38 0 -58 15.5t-20 42.5z" />
<glyph unicode="&#xb3;" horiz-adv-x="423" d="M18 362v70h187q55 0 86 27.5t31 70.5q0 40 -37 65.5t-101 25.5h-92v55l184 151v2h-243v70h256q82 0 82 -59q0 -18 -11.5 -35t-20.5 -24.5t-38 -28.5l-78 -60v-2q83 0 135 -42t52 -113q0 -75 -50 -125q-48 -48 -122 -48h-220z" />
<glyph unicode="&#xb6;" horiz-adv-x="763" d="M35 651q0 125 84 187q73 53 213 53h334v-1061h-109v981h-141v-981h-107v590q-125 0 -198 67q-76 66 -76 164z" />
<glyph unicode="&#xb7;" horiz-adv-x="354" d="M102 305q0 32 22 54t52 22q31 0 53.5 -22t22.5 -54q0 -31 -22.5 -52.5t-53.5 -21.5q-30 0 -52 22t-22 52z" />
<glyph unicode="&#xb9;" horiz-adv-x="423" d="M80 829l20 70h168v-537h-90v467h-98z" />
<glyph unicode="&#xba;" horiz-adv-x="425" d="M2 717q0 85 64 137q59 53 147 53q86 0 145 -53q66 -53 66 -137q0 -83 -66 -139q-64 -54 -145 -54q-83 0 -147 54q-64 55 -64 139zM86 717q0 -58 34.5 -91.5t92.5 -33.5t92.5 33.5t34.5 91.5q0 57 -35 91t-92 34t-92 -34t-35 -91z" />
<glyph unicode="&#xbb;" horiz-adv-x="636" d="M76 109l166 196l-158 197h96l158 -197l-164 -196h-98zM293 109l166 196l-158 197h96l158 -197l-166 -196h-96z" />
<glyph unicode="&#xbc;" horiz-adv-x="1062" d="M80 829l20 70h168v-537h-90v467h-98zM209 -14l551 921h88l-551 -921h-88zM588 168q0 15 6 27q7 15 18 28l187 312h92l-209 -345h170v232l86 119l4 4v-355h80v-67h-80v-123h-90v123h-211q-53 0 -53 45z" />
<glyph unicode="&#xbd;" horiz-adv-x="1062" d="M80 829l20 70h168v-537h-90v467h-98zM195 -14l548 921h88l-550 -921h-86zM645 55q0 5 0.5 9t1.5 7t3 6.5t3 6t4.5 6l5.5 5.5t7 6t8 6t9.5 6.5t10.5 7.5l203 147q64 52 64 107q0 44 -30 72t-75 28q-56 0 -86.5 -29.5t-30.5 -80.5q0 -40 33 -70q34 -27 72 -33l-78 -49 q-117 42 -117 160q0 77 64 125q56 47 141 47q82 0 137 -49q58 -49 58 -121q0 -61 -37 -107q-29 -39 -94 -84l-162 -112v-2h287v-70h-324q-37 0 -57.5 15t-20.5 40z" />
<glyph unicode="&#xbe;" horiz-adv-x="1062" d="M18 362v70h187q55 0 86 27.5t31 70.5q0 40 -37 65.5t-101 25.5h-92v55l184 151v2h-243v70h256q82 0 82 -59q0 -18 -11.5 -35t-20.5 -24.5t-38 -28.5l-78 -60v-2q83 0 135 -42t52 -113q0 -75 -50 -125q-48 -48 -122 -48h-220zM248 -14l549 921h88l-549 -921h-88zM588 168 q0 15 6 27q7 15 18 28l187 312h92l-209 -345h170v232l86 119l4 4v-355h80v-67h-80v-123h-90v123h-211q-53 0 -53 45z" />
<glyph unicode="&#xbf;" horiz-adv-x="565" d="M8 -29q0 110 64 183q61 70 159 88v172h113v-281h-33q-92 0 -138 -42t-46 -114q0 -67 38.5 -111t104.5 -44q71 0 109 51q35 47 35 119h118q0 -118 -73 -201q-76 -82 -197 -82q-106 0 -178 78q-76 76 -76 184zM209 553q0 32 23 56t57 24q33 0 55.5 -24t22.5 -56t-22.5 -56 t-55.5 -24q-34 0 -57 24t-23 56z" />
<glyph unicode="&#xc0;" d="M49 0v565q0 158 88 252q87 90 217 90t217 -90q88 -94 88 -252v-565h-120v406h-322v112h322v55q0 104 -50.5 163t-134.5 59t-134 -59t-50 -163v-573h-121zM186 1124h138l114 -182h-86z" />
<glyph unicode="&#xc1;" d="M49 0v565q0 158 88 252q87 90 217 90t217 -90q88 -94 88 -252v-565h-120v406h-322v112h322v55q0 104 -50.5 163t-134.5 59t-134 -59t-50 -163v-573h-121zM270 942l115 182h137l-166 -182h-86z" />
<glyph unicode="&#xc2;" d="M49 0v565q0 158 88 252q87 90 217 90t217 -90q88 -94 88 -252v-565h-120v406h-322v112h322v55q0 104 -50.5 163t-134.5 59t-134 -59t-50 -163v-573h-121zM168 942l127 182h119l127 -182h-103l-84 121l-84 -121h-102z" />
<glyph unicode="&#xc3;" d="M49 0v565q0 158 88 252q87 90 217 90t217 -90q88 -94 88 -252v-565h-120v406h-322v112h322v55q0 104 -50.5 163t-134.5 59t-134 -59t-50 -163v-573h-121zM137 954q5 60 39.5 100t93.5 40q12 0 26 -3t23 -5.5t25 -8.5t21 -8q6 -2 21.5 -8.5t22 -9t17.5 -5t20 -2.5 q57 0 64 58h61q-7 -57 -39 -92q-40 -47 -86 -47q-32 0 -106 24q-6 2 -16.5 6t-19 6.5t-15.5 4.5q-21 8 -37 8q-18 0 -34 -18.5t-19 -39.5h-62z" />
<glyph unicode="&#xc4;" d="M49 0v565q0 158 88 252q87 90 217 90t217 -90q88 -94 88 -252v-565h-120v406h-322v112h322v55q0 104 -50.5 163t-134.5 59t-134 -59t-50 -163v-573h-121zM180 1022q0 31 20.5 51.5t51.5 20.5q32 0 52 -20.5t20 -51.5q0 -32 -20 -52t-52 -20q-31 0 -51.5 20t-20.5 52z M385 1022q0 31 20 51.5t52 20.5q31 0 51 -20.5t20 -51.5q0 -32 -20 -52t-51 -20q-32 0 -52 20t-20 52z" />
<glyph unicode="&#xc5;" d="M49 0v565q0 158 88 252q87 90 217 90t217 -90q88 -94 88 -252v-565h-120v406h-322v112h322v55q0 104 -50.5 163t-134.5 59t-134 -59t-50 -163v-573h-121zM223 1067q0 53 39 92q36 39 92 39t92.5 -38t36.5 -93t-36.5 -92t-92.5 -37t-93.5 37t-37.5 92zM285 1067 q0 -31 19 -49.5t50 -18.5t50.5 18.5t19.5 49.5t-19.5 50.5t-50.5 19.5t-50 -19.5t-19 -50.5z" />
<glyph unicode="&#xc6;" horiz-adv-x="1132" d="M35 0v565q0 161 88 252q84 90 215 90q219 0 293 -186q80 96 172 137q81 33 207 33h80v-111h-80q-149 0 -254 -94q-43 -37 -69 -83.5t-28 -84.5h431v-112h-431q9 -123 105 -209q90 -84 211 -84h115v-113h-60q-159 0 -252 49q-72 39 -121 103h-2v-152h-120v406h-330v112 h330v55q0 105 -51 163.5t-140 58.5q-88 0 -139 -58.5t-51 -163.5v-573h-119z" />
<glyph unicode="&#xc7;" horiz-adv-x="636" d="M45 446q0 82 32.5 161.5t92.5 142.5q134 141 340 141h94v-111h-80q-155 0 -254 -96q-100 -94 -100 -238q0 -159 104 -253q89 -80 203 -80h127v-113h-110l-52 -68q35 5 45 5q44 0 72.5 -26t28.5 -69q0 -50 -38 -83t-110 -33q-65 0 -127 26l23 51q45 -20 84 -20q72 0 72 53 q0 21 -15.5 36t-46.5 15q-22 0 -47 -10l-25 27l74 98q-169 15 -276 141q-111 124 -111 303z" />
<glyph unicode="&#xc8;" horiz-adv-x="636" d="M29 446q0 187 131 318q130 127 329 127h95v-111h-80q-158 0 -260 -98q-41 -39 -64.5 -84.5t-25.5 -79.5h430v-112h-430q9 -124 104 -209q90 -84 211 -84h115v-113h-95q-197 0 -329 129q-131 128 -131 317zM262 1124h137l115 -182h-88z" />
<glyph unicode="&#xc9;" horiz-adv-x="636" d="M29 446q0 187 131 318q130 127 329 127h95v-111h-80q-158 0 -260 -98q-41 -39 -64.5 -84.5t-25.5 -79.5h430v-112h-430q9 -124 104 -209q90 -84 211 -84h115v-113h-95q-197 0 -329 129q-131 128 -131 317zM346 942l115 182h137l-166 -182h-86z" />
<glyph unicode="&#xca;" horiz-adv-x="636" d="M29 446q0 187 131 318q130 127 329 127h95v-111h-80q-158 0 -260 -98q-41 -39 -64.5 -84.5t-25.5 -79.5h430v-112h-430q9 -124 104 -209q90 -84 211 -84h115v-113h-95q-197 0 -329 129q-131 128 -131 317zM244 942l127 182h116l127 -182h-100l-84 121l-84 -121h-102z" />
<glyph unicode="&#xcb;" horiz-adv-x="636" d="M29 446q0 187 131 318q130 127 329 127h95v-111h-80q-158 0 -260 -98q-41 -39 -64.5 -84.5t-25.5 -79.5h430v-112h-430q9 -124 104 -209q90 -84 211 -84h115v-113h-95q-197 0 -329 129q-131 128 -131 317zM256 1022q0 31 20 51.5t52 20.5q31 0 51 -20.5t20 -51.5 q0 -32 -20 -52t-51 -20q-32 0 -52 20t-20 52zM461 1022q0 31 19.5 51.5t49.5 20.5q32 0 52 -20.5t20 -51.5q0 -32 -20 -52t-52 -20q-31 0 -50 20t-19 52z" />
<glyph unicode="&#xcc;" horiz-adv-x="282" d="M-33 1124h137l115 -182h-86zM82 0v891h119v-891h-119z" />
<glyph unicode="&#xcd;" horiz-adv-x="282" d="M51 942l115 182h137l-166 -182h-86zM82 0v891h119v-891h-119z" />
<glyph unicode="&#xce;" horiz-adv-x="282" d="M-51 942l127 182h119l127 -182h-103l-84 121l-84 -121h-102zM82 0v891h119v-891h-119z" />
<glyph unicode="&#xcf;" horiz-adv-x="282" d="M-39 1022q0 31 20.5 51.5t51.5 20.5q32 0 51.5 -20.5t19.5 -51.5q0 -32 -19.5 -52t-51.5 -20q-31 0 -51.5 20t-20.5 52zM82 0v891h119v-891h-119zM166 1022q0 31 20 51.5t52 20.5q31 0 51 -20.5t20 -51.5q0 -32 -20 -52t-51 -20q-32 0 -52 20t-20 52z" />
<glyph unicode="&#xd0;" horiz-adv-x="778" d="M-25 406v112h97v373h225q186 0 313 -133q123 -133 123 -312q0 -89 -32.5 -170.5t-90.5 -142.5q-127 -133 -313 -133h-55v113h65q126 0 213 96q88 94 88 237q0 150 -96 240q-97 94 -248 94h-74v-262h218v-112h-218v-406h-118v406h-97z" />
<glyph unicode="&#xd1;" horiz-adv-x="778" d="M63 0v791q0 108 105 108q47 0 78 -31q19 -22 59 -100l287 -592h2v715h119v-813q0 -39 -23 -62.5t-67 -23.5q-45 0 -71 18t-48 70l-318 651h-2v-731h-121zM188 954q5 60 40 100t94 40q16 0 30.5 -3.5t36 -11.5t27.5 -10q65 -25 82 -25q56 0 63 58h62q-6 -51 -39 -92 q-40 -47 -86 -47q-33 0 -107 24q-6 2 -16.5 6t-19 6.5t-15.5 4.5q-21 8 -39 8q-17 0 -32.5 -18.5t-18.5 -39.5h-62z" />
<glyph unicode="&#xd2;" horiz-adv-x="991" d="M29 446q0 192 139 328q139 133 328 133q188 0 327 -133q140 -140 140 -328q0 -94 -37.5 -178.5t-102.5 -148.5q-136 -133 -327 -133q-192 0 -328 133q-139 133 -139 327zM154 446q0 -144 98 -245q98 -105 244 -105q145 0 243 105q99 102 99 245q0 144 -99 246 q-96 103 -243 103q-148 0 -244 -103q-98 -101 -98 -246zM328 1124h137l115 -182h-86z" />
<glyph unicode="&#xd3;" horiz-adv-x="991" d="M29 446q0 192 139 328q139 133 328 133q188 0 327 -133q140 -140 140 -328q0 -94 -37.5 -178.5t-102.5 -148.5q-136 -133 -327 -133q-192 0 -328 133q-139 133 -139 327zM154 446q0 -144 98 -245q98 -105 244 -105q145 0 243 105q99 102 99 245q0 144 -99 246 q-96 103 -243 103q-148 0 -244 -103q-98 -101 -98 -246zM412 942l114 182h138l-166 -182h-86z" />
<glyph unicode="&#xd4;" horiz-adv-x="991" d="M29 446q0 192 139 328q139 133 328 133q188 0 327 -133q140 -140 140 -328q0 -94 -37.5 -178.5t-102.5 -148.5q-136 -133 -327 -133q-192 0 -328 133q-139 133 -139 327zM154 446q0 -144 98 -245q98 -105 244 -105q145 0 243 105q99 102 99 245q0 144 -99 246 q-96 103 -243 103q-148 0 -244 -103q-98 -101 -98 -246zM309 942l127 182h119l127 -182h-102l-84 121l-84 -121h-103z" />
<glyph unicode="&#xd5;" horiz-adv-x="991" d="M29 446q0 192 139 328q139 133 328 133q188 0 327 -133q140 -140 140 -328q0 -94 -37.5 -178.5t-102.5 -148.5q-136 -133 -327 -133q-192 0 -328 133q-139 133 -139 327zM154 446q0 -144 98 -245q98 -105 244 -105q145 0 243 105q99 102 99 245q0 144 -99 246 q-96 103 -243 103q-148 0 -244 -103q-98 -101 -98 -246zM279 954q5 60 39.5 100t93.5 40q12 0 26 -3t22.5 -5.5t24 -8.5t21.5 -8q65 -25 82 -25q56 0 63 58h62q-7 -57 -39 -92q-40 -47 -86 -47q-33 0 -107 24q-6 2 -16.5 6t-19 6.5t-15.5 4.5q-21 8 -37 8q-18 0 -34 -18.5 t-19 -39.5h-61z" />
<glyph unicode="&#xd6;" horiz-adv-x="991" d="M29 446q0 192 139 328q139 133 328 133q188 0 327 -133q140 -140 140 -328q0 -94 -37.5 -178.5t-102.5 -148.5q-136 -133 -327 -133q-192 0 -328 133q-139 133 -139 327zM154 446q0 -144 98 -245q98 -105 244 -105q145 0 243 105q99 102 99 245q0 144 -99 246 q-96 103 -243 103q-148 0 -244 -103q-98 -101 -98 -246zM322 1022q0 31 20 51.5t51 20.5q32 0 52 -20.5t20 -51.5q0 -32 -20 -52t-52 -20q-31 0 -51 20t-20 52zM526 1022q0 31 20 51.5t52 20.5q31 0 51.5 -20.5t20.5 -51.5q0 -32 -20.5 -52t-51.5 -20q-32 0 -52 20t-20 52z " />
<glyph unicode="&#xd7;" horiz-adv-x="763" d="M76 70l235 235l-235 236l71 71l236 -237l235 237l70 -71l-235 -236l235 -235l-70 -70l-235 236l-236 -236z" />
<glyph unicode="&#xd8;" horiz-adv-x="991" d="M-12 -14l155 159q-114 127 -114 301q0 192 139 328q139 133 328 133q163 0 290 -102l99 102h119l-156 -159q115 -135 115 -302q0 -94 -37.5 -178.5t-102.5 -148.5q-136 -133 -327 -133q-161 0 -291 100l-99 -100h-118zM154 446q0 -121 71 -217l482 494q-91 72 -211 72 q-148 0 -244 -103q-98 -101 -98 -246zM285 170q90 -74 211 -74q145 0 243 105q99 102 99 245q0 123 -74 216z" />
<glyph unicode="&#xd9;" d="M59 293v598h119v-586q0 -96 45 -147q46 -62 129 -62q82 0 131 62q45 51 45 147v586h121v-598q0 -126 -86 -219q-85 -88 -211 -88q-127 0 -209 88q-84 87 -84 219zM186 1124h138l114 -182h-86z" />
<glyph unicode="&#xda;" d="M59 293v598h119v-586q0 -96 45 -147q46 -62 129 -62q82 0 131 62q45 51 45 147v586h121v-598q0 -126 -86 -219q-85 -88 -211 -88q-127 0 -209 88q-84 87 -84 219zM270 942l115 182h137l-166 -182h-86z" />
<glyph unicode="&#xdb;" d="M59 293v598h119v-586q0 -96 45 -147q46 -62 129 -62q82 0 131 62q45 51 45 147v586h121v-598q0 -126 -86 -219q-85 -88 -211 -88q-127 0 -209 88q-84 87 -84 219zM168 942l127 182h119l127 -182h-103l-84 121l-84 -121h-102z" />
<glyph unicode="&#xdc;" d="M59 293v598h119v-586q0 -96 45 -147q46 -62 129 -62q82 0 131 62q45 51 45 147v586h121v-598q0 -126 -86 -219q-85 -88 -211 -88q-127 0 -209 88q-84 87 -84 219zM180 1022q0 31 20.5 51.5t51.5 20.5q32 0 52 -20.5t20 -51.5q0 -32 -20 -52t-52 -20q-31 0 -51.5 20 t-20.5 52zM385 1022q0 31 20 51.5t52 20.5q31 0 51 -20.5t20 -51.5q0 -32 -20 -52t-51 -20q-32 0 -52 20t-20 52z" />
<glyph unicode="&#xdd;" horiz-adv-x="636" d="M29 623v268h121v-270q0 -76 45.5 -118t123.5 -42q76 0 122 42.5t46 117.5v270h119v-268q0 -96 -55 -166q-61 -81 -176 -109v-348h-119v348q-115 29 -172 109q-55 70 -55 166zM264 942l115 182h137l-166 -182h-86z" />
<glyph unicode="&#xde;" horiz-adv-x="636" d="M51 0v891h119v-201q58 55 166 55q132 0 215 -86q80 -80 80 -198q0 -117 -74 -201t-190 -84h-150v113h129q69 0 117 45q47 44 47 127q0 78 -48.5 126t-123.5 48q-73 0 -119 -49q-49 -49 -49 -135v-451h-119z" />
<glyph unicode="&#xdf;" horiz-adv-x="778" d="M8 479l29 107h102v69q0 110 66 176q63 60 168 60q103 0 162 -53q57 -51 57 -129q0 -63 -41 -111q-34 -34 -100 -68q136 -53 192 -104q86 -76 86 -195q0 -90 -61 -157q-67 -74 -185 -74h-188v106h172q73 0 112 34t39 93q0 88 -75 142q-36 25 -72 41q-90 35 -125 63 q-20 17 -20 45q0 43 41 66q15 9 36 18q44 20 66 47q10 15 10 43q0 86 -100 86q-64 0 -95.5 -32.5t-31.5 -106.5v-645h-113v479h-131z" />
<glyph unicode="&#xe0;" d="M33 311q0 137 84 224q90 90 231 90t227 -80q82 -79 82 -211v-334h-112v344q0 80 -62 129q-54 45 -137 45q-93 0 -145 -65q-56 -59 -56 -150q0 -86 56 -145q61 -64 145 -64q87 0 154 84v-133q-39 -29 -75.5 -43t-90.5 -14q-128 0 -215 94q-86 96 -86 229zM186 866h138 l114 -180h-86z" />
<glyph unicode="&#xe1;" d="M33 311q0 137 84 224q90 90 231 90t227 -80q82 -79 82 -211v-334h-112v344q0 80 -62 129q-54 45 -137 45q-93 0 -145 -65q-56 -59 -56 -150q0 -86 56 -145q61 -64 145 -64q87 0 154 84v-133q-39 -29 -75.5 -43t-90.5 -14q-128 0 -215 94q-86 96 -86 229zM270 686l115 180 h137l-166 -180h-86z" />
<glyph unicode="&#xe2;" d="M33 311q0 137 84 224q90 90 231 90t227 -80q82 -79 82 -211v-334h-112v344q0 80 -62 129q-54 45 -137 45q-93 0 -145 -65q-56 -59 -56 -150q0 -86 56 -145q61 -64 145 -64q87 0 154 84v-133q-39 -29 -75.5 -43t-90.5 -14q-128 0 -215 94q-86 96 -86 229zM168 686l127 180 h119l127 -180h-103l-84 119l-84 -119h-102z" />
<glyph unicode="&#xe3;" d="M33 311q0 137 84 224q90 90 231 90t227 -80q82 -79 82 -211v-334h-112v344q0 80 -62 129q-54 45 -137 45q-93 0 -145 -65q-56 -59 -56 -150q0 -86 56 -145q61 -64 145 -64q87 0 154 84v-133q-39 -29 -75.5 -43t-90.5 -14q-128 0 -215 94q-86 96 -86 229zM137 696 q5 61 39.5 100.5t93.5 39.5q35 0 95 -25q10 -3 27.5 -10.5t30 -11t23.5 -3.5q28 0 44.5 16t19.5 42h61q-7 -58 -39 -92q-38 -45 -86 -45q-25 0 -106 22q-17 7 -51 16q-24 9 -37 9q-18 0 -34 -18.5t-19 -39.5h-62z" />
<glyph unicode="&#xe4;" d="M33 311q0 137 84 224q90 90 231 90t227 -80q82 -79 82 -211v-334h-112v344q0 80 -62 129q-54 45 -137 45q-93 0 -145 -65q-56 -59 -56 -150q0 -86 56 -145q61 -64 145 -64q87 0 154 84v-133q-39 -29 -75.5 -43t-90.5 -14q-128 0 -215 94q-86 96 -86 229zM180 764 q0 31 20.5 51.5t51.5 20.5q32 0 52 -20.5t20 -51.5t-20 -51.5t-52 -20.5q-31 0 -51.5 20.5t-20.5 51.5zM385 764q0 31 20 51.5t52 20.5q31 0 51 -20.5t20 -51.5t-20 -51.5t-51 -20.5q-32 0 -52 20.5t-20 51.5z" />
<glyph unicode="&#xe5;" d="M33 311q0 137 84 224q90 90 231 90t227 -80q82 -79 82 -211v-334h-112v344q0 80 -62 129q-54 45 -137 45q-93 0 -145 -65q-56 -59 -56 -150q0 -86 56 -145q61 -64 145 -64q87 0 154 84v-133q-39 -29 -75.5 -43t-90.5 -14q-128 0 -215 94q-86 96 -86 229zM223 811 q0 54 39 90q36 39 92 39t92.5 -37.5t36.5 -91.5q0 -56 -36.5 -93.5t-92.5 -37.5q-57 0 -94 37.5t-37 93.5zM285 811q0 -31 19 -50.5t50 -19.5t50.5 19.5t19.5 50.5q0 29 -19.5 48.5t-50.5 19.5q-30 0 -49.5 -19.5t-19.5 -48.5z" />
<glyph unicode="&#xe6;" horiz-adv-x="1132" d="M23 176q0 86 77 150q59 46 170 84q83 24 166 36q-22 36 -66 54t-91 18q-97 0 -193 -55l-51 88q125 74 250 74q181 0 256 -138q25 54 90 95q71 43 151 43q125 0 211 -72q52 -48 101 -147l-414 -173l-41 95l291 121q-54 69 -148 69q-80 0 -137 -63q-53 -63 -53 -144 q0 -91 59 -153q61 -64 152 -64q75 0 131 53q45 40 70 123l102 -45q-37 -115 -115.5 -176t-189.5 -61q-90 0 -161 40t-110 109q-38 -71 -114 -112q-73 -37 -158 -37q-103 0 -164 47q-71 51 -71 141zM139 168q0 -74 117 -74q93 0 158 58q61 55 61 145v55q-66 -10 -123 -26 q-91 -25 -145 -58q-68 -45 -68 -100z" />
<glyph unicode="&#xe7;" horiz-adv-x="495" d="M55 305q0 136 101 227q89 80 206 80h107v-108h-86q-84 0 -145 -49q-66 -53 -66 -150q0 -94 66 -147q65 -52 145 -52h86v-106h-104l-50 -68q30 5 43 5q44 0 73.5 -26t29.5 -69q0 -50 -38.5 -83t-111.5 -33q-65 0 -127 26l23 51q45 -20 84 -20q71 0 71 53q0 21 -15 36 t-46 15q-22 0 -47 -10l-23 27l74 100q-102 20 -172 96q-78 85 -78 205z" />
<glyph unicode="&#xe8;" d="M39 305q0 139 94 230q93 90 223 90q202 0 295 -195l-413 -229l-45 90l301 168q-32 32 -60.5 45.5t-77.5 13.5q-86 0 -145 -59q-55 -58 -55 -154q0 -93 55 -151q60 -60 145 -60q94 0 144 53q41 46 61 138l113 -15q-9 -123 -99 -200q-88 -82 -219 -82q-132 0 -223 88 q-94 91 -94 229zM186 866h138l114 -180h-86z" />
<glyph unicode="&#xe9;" d="M39 305q0 139 94 230q93 90 223 90q202 0 295 -195l-413 -229l-45 90l301 168q-32 32 -60.5 45.5t-77.5 13.5q-86 0 -145 -59q-55 -58 -55 -154q0 -93 55 -151q60 -60 145 -60q94 0 144 53q41 46 61 138l113 -15q-9 -123 -99 -200q-88 -82 -219 -82q-132 0 -223 88 q-94 91 -94 229zM270 686l115 180h137l-166 -180h-86z" />
<glyph unicode="&#xea;" d="M39 305q0 139 94 230q93 90 223 90q202 0 295 -195l-413 -229l-45 90l301 168q-32 32 -60.5 45.5t-77.5 13.5q-86 0 -145 -59q-55 -58 -55 -154q0 -93 55 -151q60 -60 145 -60q94 0 144 53q41 46 61 138l113 -15q-9 -123 -99 -200q-88 -82 -219 -82q-132 0 -223 88 q-94 91 -94 229zM168 686l127 180h119l127 -180h-103l-84 119l-84 -119h-102z" />
<glyph unicode="&#xeb;" d="M39 305q0 139 94 230q93 90 223 90q202 0 295 -195l-413 -229l-45 90l301 168q-32 32 -60.5 45.5t-77.5 13.5q-86 0 -145 -59q-55 -58 -55 -154q0 -93 55 -151q60 -60 145 -60q94 0 144 53q41 46 61 138l113 -15q-9 -123 -99 -200q-88 -82 -219 -82q-132 0 -223 88 q-94 91 -94 229zM180 764q0 31 20.5 51.5t51.5 20.5q32 0 52 -20.5t20 -51.5t-20 -51.5t-52 -20.5q-31 0 -51.5 20.5t-20.5 51.5zM385 764q0 31 20 51.5t52 20.5q31 0 51 -20.5t20 -51.5t-20 -51.5t-51 -20.5q-32 0 -52 20.5t-20 51.5z" />
<glyph unicode="&#xec;" horiz-adv-x="354" d="M8 866h139l115 -180h-88zM121 0v612h112v-612h-112z" />
<glyph unicode="&#xed;" horiz-adv-x="354" d="M92 686l115 180h139l-166 -180h-88zM121 0v612h112v-612h-112z" />
<glyph unicode="&#xee;" horiz-adv-x="354" d="M-8 686l127 180h117l126 -180h-100l-86 119l-84 -119h-100zM121 0v612h112v-612h-112z" />
<glyph unicode="&#xef;" horiz-adv-x="354" d="M4 764q0 31 20 51.5t52 20.5q31 0 51 -20.5t20 -51.5t-20 -51.5t-51 -20.5q-32 0 -52 20.5t-20 51.5zM121 0v612h112v-612h-112zM207 764q0 31 20.5 51.5t51.5 20.5q32 0 51.5 -20.5t19.5 -51.5t-19.5 -51.5t-51.5 -20.5q-31 0 -51.5 20.5t-20.5 51.5z" />
<glyph unicode="&#xf0;" d="M37 305q0 141 96 230q90 90 221 90q6 0 56 -4q3 -6 18 -30t23 -40q24 -53 28 -78h-2q-48 45 -123 45q-87 0 -143 -59q-57 -57 -57 -154q0 -94 57 -151q57 -60 143 -60q89 0 144 64q57 63 57 184q0 101 -51 205q-52 96 -127 168l-135 -70l-62 74l117 59q-64 43 -107 58 l70 71q74 -29 133 -76l131 70l64 -74l-117 -63q84 -78 141 -189q60 -117 60 -233q0 -161 -94 -262q-89 -92 -224 -92q-133 0 -221 88q-96 89 -96 229z" />
<glyph unicode="&#xf1;" horiz-adv-x="636" d="M57 0v356q0 119 76 195q71 74 186 74q113 0 187 -74q74 -77 74 -195v-356h-113v356q0 71 -43 117q-48 45 -105 45q-58 0 -106 -45q-43 -46 -43 -117v-356h-113zM102 696q3 61 38 100.5t93 39.5q35 0 95 -25q10 -3 28 -10.5t30.5 -11t23.5 -3.5q59 0 63 58h62 q-7 -55 -37 -92q-38 -45 -88 -45q-24 0 -105 22q-13 5 -51 16q-24 9 -39 9q-18 0 -33.5 -18.5t-17.5 -39.5h-62z" />
<glyph unicode="&#xf2;" d="M37 305q0 141 96 230q90 90 221 90t224 -90q94 -91 94 -230q0 -138 -94 -229q-91 -88 -224 -88t-221 88q-96 89 -96 229zM154 305q0 -94 57 -151q57 -60 143 -60q87 0 144 60q57 57 57 151q0 97 -57 154q-56 59 -144 59q-87 0 -143 -59q-57 -57 -57 -154zM186 866h138 l114 -180h-86z" />
<glyph unicode="&#xf3;" d="M37 305q0 141 96 230q90 90 221 90t224 -90q94 -91 94 -230q0 -138 -94 -229q-91 -88 -224 -88t-221 88q-96 89 -96 229zM154 305q0 -94 57 -151q57 -60 143 -60q87 0 144 60q57 57 57 151q0 97 -57 154q-56 59 -144 59q-87 0 -143 -59q-57 -57 -57 -154zM270 686 l115 180h137l-166 -180h-86z" />
<glyph unicode="&#xf4;" d="M37 305q0 141 96 230q90 90 221 90t224 -90q94 -91 94 -230q0 -138 -94 -229q-91 -88 -224 -88t-221 88q-96 89 -96 229zM154 305q0 -94 57 -151q57 -60 143 -60q87 0 144 60q57 57 57 151q0 97 -57 154q-56 59 -144 59q-87 0 -143 -59q-57 -57 -57 -154zM168 686 l127 180h119l127 -180h-103l-84 119l-84 -119h-102z" />
<glyph unicode="&#xf5;" d="M37 305q0 141 96 230q90 90 221 90t224 -90q94 -91 94 -230q0 -138 -94 -229q-91 -88 -224 -88t-221 88q-96 89 -96 229zM137 696q5 61 39.5 100.5t93.5 39.5q35 0 95 -25q10 -3 27.5 -10.5t30 -11t23.5 -3.5q28 0 44.5 16t19.5 42h61q-7 -58 -39 -92q-38 -45 -86 -45 q-25 0 -106 22q-17 7 -51 16q-24 9 -37 9q-18 0 -34 -18.5t-19 -39.5h-62zM154 305q0 -94 57 -151q57 -60 143 -60q87 0 144 60q57 57 57 151q0 97 -57 154q-56 59 -144 59q-87 0 -143 -59q-57 -57 -57 -154z" />
<glyph unicode="&#xf6;" d="M37 305q0 141 96 230q90 90 221 90t224 -90q94 -91 94 -230q0 -138 -94 -229q-91 -88 -224 -88t-221 88q-96 89 -96 229zM154 305q0 -94 57 -151q57 -60 143 -60q87 0 144 60q57 57 57 151q0 97 -57 154q-56 59 -144 59q-87 0 -143 -59q-57 -57 -57 -154zM180 764 q0 31 20.5 51.5t51.5 20.5q32 0 52 -20.5t20 -51.5t-20 -51.5t-52 -20.5q-31 0 -51.5 20.5t-20.5 51.5zM385 764q0 31 20 51.5t52 20.5q31 0 51 -20.5t20 -51.5t-20 -51.5t-51 -20.5q-32 0 -52 20.5t-20 51.5z" />
<glyph unicode="&#xf7;" horiz-adv-x="763" d="M76 256v100h612v-100h-612zM295 55q0 36 24 62t64 26q38 0 62 -26.5t24 -61.5q0 -34 -24 -60t-62 -26q-39 0 -63.5 26t-24.5 60zM295 555q0 35 24 60.5t64 25.5q38 0 62 -25.5t24 -60.5t-24 -60.5t-62 -25.5q-40 0 -64 25.5t-24 60.5z" />
<glyph unicode="&#xf8;" d="M-8 -12l114 118q-69 81 -69 199q0 141 96 230q90 90 221 90q107 0 193 -64l61 64h109l-115 -119q70 -82 70 -201q0 -138 -94 -229q-91 -88 -224 -88q-110 0 -192 63l-62 -63h-108zM154 305q0 -67 30 -119l287 295q-49 37 -117 37q-87 0 -143 -59q-57 -57 -57 -154z M238 129q50 -35 116 -35q87 0 144 60q57 57 57 151q0 66 -31 119z" />
<glyph unicode="&#xf9;" horiz-adv-x="636" d="M57 254v358h113v-358q0 -69 43 -115q48 -45 106 -45q57 0 105 45q43 46 43 115v358h113v-358q0 -119 -74 -193q-73 -73 -187 -73q-116 0 -186 73q-76 73 -76 193zM150 866h139l114 -180h-88z" />
<glyph unicode="&#xfa;" horiz-adv-x="636" d="M57 254v358h113v-358q0 -69 43 -115q48 -45 106 -45q57 0 105 45q43 46 43 115v358h113v-358q0 -119 -74 -193q-73 -73 -187 -73q-116 0 -186 73q-76 73 -76 193zM233 686l115 180h139l-165 -180h-89z" />
<glyph unicode="&#xfb;" horiz-adv-x="636" d="M57 254v358h113v-358q0 -69 43 -115q48 -45 106 -45q57 0 105 45q43 46 43 115v358h113v-358q0 -119 -74 -193q-73 -73 -187 -73q-116 0 -186 73q-76 73 -76 193zM133 686l127 180h117l127 -180h-101l-84 119l-86 -119h-100z" />
<glyph unicode="&#xfc;" horiz-adv-x="636" d="M57 254v358h113v-358q0 -69 43 -115q48 -45 106 -45q57 0 105 45q43 46 43 115v358h113v-358q0 -119 -74 -193q-73 -73 -187 -73q-116 0 -186 73q-76 73 -76 193zM145 764q0 31 20 51.5t52 20.5q31 0 51.5 -20.5t20.5 -51.5t-20.5 -51.5t-51.5 -20.5q-32 0 -52 20.5 t-20 51.5zM348 764q0 31 20.5 51.5t51.5 20.5q32 0 52 -20.5t20 -51.5t-20 -51.5t-52 -20.5q-31 0 -51.5 20.5t-20.5 51.5z" />
<glyph unicode="&#xfd;" horiz-adv-x="636" d="M63 244v368h113v-368q0 -66 37 -108t106 -42q68 0 105 42t37 108v368h112v-368q0 -203 -198 -256v-262h-113v262q-199 53 -199 256zM233 686l115 180h139l-165 -180h-89z" />
<glyph unicode="&#xfe;" d="M51 -274v1165h113v-338q87 72 194 72q146 0 234 -101q84 -97 84 -233q0 -127 -88 -215q-85 -88 -207 -88q-98 0 -174 43v116q32 -23 75 -38t80 -15q91 0 146 57.5t55 153.5q0 92 -57 152q-58 61 -148 61q-85 0 -137 -61q-57 -66 -57 -189v-542h-113z" />
<glyph unicode="&#xff;" horiz-adv-x="636" d="M63 244v368h113v-368q0 -66 37 -108t106 -42q68 0 105 42t37 108v368h112v-368q0 -203 -198 -256v-262h-113v262q-199 53 -199 256zM145 764q0 31 20 51.5t52 20.5q31 0 51.5 -20.5t20.5 -51.5t-20.5 -51.5t-51.5 -20.5q-32 0 -52 20.5t-20 51.5zM348 764q0 31 20.5 51.5 t51.5 20.5q32 0 52 -20.5t20 -51.5t-20 -51.5t-52 -20.5q-31 0 -51.5 20.5t-20.5 51.5z" />
<glyph unicode="&#x131;" horiz-adv-x="354" d="M121 0v612h112v-612h-112z" />
<glyph unicode="&#x152;" horiz-adv-x="1273" d="M0 446q0 89 34.5 172.5t94.5 149.5q126 139 301 139q127 0 225 -59q107 -63 156 -176q61 120 166 172q89 47 225 47h58v-111h-35q-147 0 -252 -94q-44 -37 -69 -83t-27 -85h383v-112h-383q6 -123 102 -209q90 -84 211 -84h70v-113h-58q-136 0 -225 47q-108 57 -166 174 q-49 -115 -156 -178q-99 -57 -225 -57q-174 0 -301 137q-129 142 -129 323zM119 446q0 -133 90 -241q91 -109 227 -109q135 0 226 109q90 104 90 241q0 138 -90 242q-89 107 -226 107q-138 0 -227 -107q-90 -108 -90 -242z" />
<glyph unicode="&#x153;" horiz-adv-x="1202" d="M18 305q0 138 95 230q93 90 223 90q82 0 151.5 -38t112.5 -100q61 75 117 103q65 35 160 35q115 0 194 -66q67 -56 107 -162l-433 -186l-40 94l315 137q-26 35 -68.5 55.5t-87.5 20.5q-88 0 -147 -59q-58 -61 -58 -154q0 -79 66 -145q63 -66 139 -66q87 0 136.5 46.5 t72.5 138.5l111 -41q-87 -250 -320 -250q-82 0 -149.5 36.5t-110.5 104.5q-110 -141 -268 -141q-132 0 -223 88q-95 92 -95 229zM135 305q0 -90 58 -151q57 -60 145 -60q90 0 147 60q58 61 58 151q0 93 -58 154q-56 59 -147 59q-89 0 -145 -59q-58 -61 -58 -154z" />
<glyph unicode="&#x160;" horiz-adv-x="636" d="M31 0v113h305q79 0 114 27.5t35 86.5q0 43 -29.5 75t-86.5 63q-53 29 -107 51q-134 60 -192 139q-33 51 -33 113q0 107 69 166q63 57 175 57h284v-111h-301q-50 0 -78 -27t-28 -79q0 -38 29 -66.5t85 -58.5q46 -25 109 -51q134 -63 190 -146q33 -44 33 -114 q0 -108 -65 -173t-181 -65h-327zM162 1124h102l84 -120l84 120h103l-129 -182h-117z" />
<glyph unicode="&#x161;" horiz-adv-x="565" d="M35 0v106h313q74 0 74 60q0 26 -26 43.5t-74 32.5q-34 12 -93 26q-115 34 -163 90q-31 36 -31 88q0 81 54 123.5t155 42.5h264v-108h-283q-41 0 -56 -11.5t-15 -41.5q0 -44 98 -72q74 -21 94 -25q114 -31 164 -92q29 -36 29 -92q0 -83 -52.5 -126.5t-138.5 -43.5h-313z M96 866h103l84 -121l84 121h102l-127 -180h-119z" />
<glyph unicode="&#x178;" horiz-adv-x="636" d="M29 623v268h121v-270q0 -76 45.5 -118t123.5 -42q76 0 122 42.5t46 117.5v270h119v-268q0 -96 -55 -166q-61 -81 -176 -109v-348h-119v348q-115 29 -172 109q-55 70 -55 166zM174 1022q0 31 20.5 51.5t51.5 20.5q32 0 51.5 -20.5t19.5 -51.5q0 -32 -19.5 -52t-51.5 -20 q-31 0 -51.5 20t-20.5 52zM379 1022q0 31 20 51.5t52 20.5q30 0 49.5 -20.5t19.5 -51.5q0 -32 -19 -52t-50 -20q-32 0 -52 20t-20 52z" />
<glyph unicode="&#x17d;" horiz-adv-x="636" d="M14 86q0 27 9.5 53t18 40t28.5 42l401 559h-410v111h431q53 0 78.5 -21.5t25.5 -54.5q0 -67 -51 -137l-400 -565h465v-113h-497q-46 0 -72.5 26t-26.5 60zM162 1124h102l84 -120l84 120h103l-129 -182h-117z" />
<glyph unicode="&#x17e;" horiz-adv-x="495" d="M23 80q0 28 14 54t47 65l250 305h-289v108h297q56 0 86.5 -22t30.5 -60q0 -42 -19 -67l-293 -357h316v-106h-348q-42 0 -67 21t-25 59zM61 866h103l84 -121l84 121h102l-127 -180h-117z" />
<glyph unicode="&#x192;" d="M8 -272l17 112q41 -18 81 -18q56 0 84 35q36 42 50 129l79 452h-161v113h184l27 125q26 118 80.5 174.5t142.5 56.5q45 0 108 -18l-20 -107q-41 13 -72 13q-97 0 -125 -131l-22 -113h176v-113h-195l-82 -454q-26 -143 -81.5 -209t-149.5 -66q-62 0 -121 19z" />
<glyph unicode="&#x3bc;" horiz-adv-x="636" d="M57 -274v886h113v-358q0 -69 43 -115q48 -45 106 -45q57 0 105 45q43 46 43 115v358h113v-358q0 -119 -74 -193q-73 -73 -187 -73q-89 0 -149 45v-307h-113z" />
<glyph unicode="&#x60c;" horiz-adv-x="376" d="M110 47q-25 67 34 160q32 50 85 98l45 -39q-97 -103 -51 -164q25 -31 8.5 -66.5t-57.5 -35.5q-46 0 -64 47z" />
<glyph unicode="&#x61b;" horiz-adv-x="374" d="M102 72q0 29 20.5 49t49.5 20q30 0 51 -20t21 -49t-21.5 -50.5t-50.5 -21.5t-49.5 21.5t-20.5 50.5zM110 385q-26 67 33 161q31 50 84 99l45 -39q-98 -106 -49 -166q25 -31 8 -66.5t-59 -35.5q-45 0 -62 47z" />
<glyph unicode="&#x61f;" horiz-adv-x="589" d="M33 645q0 110 73 186q76 76 181 76q122 0 194 -82q76 -82 76 -200h-121q0 74 -33 118q-42 52 -108 52t-104.5 -44t-38.5 -112q0 -72 45.5 -114t138.5 -42h33v-278h-113v170q-99 18 -162 90q-61 70 -61 180zM233 63q0 32 22 56t56 24t57 -24t23 -56q0 -31 -22.5 -54 t-57.5 -23q-34 0 -56 22.5t-22 54.5z" />
<glyph unicode="&#x621;" horiz-adv-x="755" d="M102 0v127h162q-43 60 -43 131q0 92 67.5 158.5t172.5 66.5q103 0 192 -86l-84 -114q-20 29 -53 46t-67 17q-40 0 -67 -25.5t-28 -78.5q1 -54 42.5 -82t103.5 -33h147v-127h-545z" />
<glyph unicode="&#x622;" horiz-adv-x="331" d="M-90 1042q32 50 79 85.5t99 35.5q29 0 60 -22.5t59.5 -45t52.5 -22.5q54 0 119 109l72 -47q-40 -66 -76 -97t-86 -43q-24 -4 -35 -4q-37 0 -69.5 21t-58.5 42t-46 21q-40 0 -96 -80zM102 0v907h127v-907h-127z" />
<glyph unicode="&#x623;" horiz-adv-x="331" d="M-33 1010v82h131q-34 42 -39 91t15 88.5t62 66t95 26.5q79 0 138 -59l-54 -74q-27 30 -65.5 41t-71 -9t-35.5 -75q3 -84 117 -96h107v-82h-400zM102 0v907h127v-907h-127z" />
<glyph unicode="&#x624;" horiz-adv-x="880" d="M102 330q0 62 20.5 118.5t59.5 102.5t104 73t146 27q93 0 162.5 -32t108 -87t57 -121t18.5 -143q0 -138 -53 -268q-66 -164 -217 -340l-109 88q120 123 185 256q-31 -4 -88 -4q-184 0 -289 88t-105 242zM102 737v82h131q-34 42 -38.5 91t15.5 89t62 66.5t95 26.5 q77 0 137 -60l-53 -74q-27 30 -65.5 41t-71 -9t-35.5 -75q3 -84 116 -96h107v-82h-400zM244 322q0 -58 22 -98.5t60.5 -62t82.5 -31t97 -9.5q40 0 110 8q23 51 23 123q0 49 -11 94.5t-34 86t-63.5 65t-94.5 24.5q-82 0 -137 -58t-55 -142z" />
<glyph unicode="&#x625;" horiz-adv-x="331" d="M-33 -379h131q-34 42 -39 91t15 89t62 66.5t95 26.5q78 0 138 -60l-54 -74q-27 30 -65.5 41t-71 -9t-35.5 -75q3 -84 117 -96h107v-82h-400v82zM102 0v907h127v-907h-127z" />
<glyph unicode="&#x626;" horiz-adv-x="1366" d="M102 330q0 127 79 215t206 98v-127q-66 -12 -112 -68t-46 -124q0 -75 57 -135t132 -60h389v262q0 98 74 173t172 75h211v-639h-129v512h-82q-43 0 -81 -36.5t-38 -84.5v-391h-516q-135 0 -225.5 95.5t-90.5 234.5zM102 737v82h131q-34 42 -38.5 91t15.5 89t62 66.5 t95 26.5q77 0 137 -60l-53 -74q-27 30 -65.5 41t-71 -9t-35.5 -75q3 -84 116 -96h107v-82h-400z" />
<glyph unicode="&#x627;" horiz-adv-x="331" d="M102 0v907h127v-907h-127z" />
<glyph unicode="&#x628;" horiz-adv-x="1363" d="M102 330q0 129 79.5 215.5t205.5 97.5v-127q-68 -12 -113 -68.5t-45 -123.5q0 -77 54.5 -136t134.5 -59h717v510h127v-639h-844q-138 0 -227 95t-89 235zM676 -174q0 29 21.5 50.5t50.5 21.5q30 0 50.5 -21t20.5 -51q0 -31 -20 -51.5t-51 -20.5q-30 0 -51 21t-21 51z" />
<glyph unicode="&#x629;" horiz-adv-x="856" d="M102 326q0 131 97.5 231t226.5 100h6q131 0 226.5 -96.5t95.5 -226.5v-8q0 -134 -97 -230t-231 -96q-133 0 -228.5 96.5t-95.5 229.5zM238 328q0 -74 54 -132.5t136 -58.5q80 0 138.5 58t58.5 133q0 74 -61 134t-138 60q-79 0 -133.5 -60t-54.5 -134zM272 809 q0 29 21.5 50.5t50.5 21.5q30 0 51 -21t21 -51q0 -31 -20.5 -51.5t-51.5 -20.5q-30 0 -51 21t-21 51zM457 809q0 29 21 50.5t50 21.5q30 0 51 -21t21 -51q0 -31 -20.5 -51.5t-51.5 -20.5q-30 0 -50.5 20.5t-20.5 51.5z" />
<glyph unicode="&#x62a;" horiz-adv-x="1363" d="M102 330q0 129 79.5 215.5t205.5 97.5v-127q-68 -12 -113 -68.5t-45 -123.5q0 -77 54.5 -136t134.5 -59h717v510h127v-639h-844q-138 0 -227 95t-89 235zM563 584q0 29 21.5 50t50.5 21q31 0 51.5 -20.5t20.5 -50.5q0 -31 -20.5 -51.5t-51.5 -20.5q-30 0 -51 21t-21 51z M748 584q0 29 21 50t50 21q31 0 51.5 -20.5t20.5 -50.5q0 -31 -20.5 -51.5t-51.5 -20.5q-29 0 -50 21t-21 51z" />
<glyph unicode="&#x62b;" horiz-adv-x="1394" d="M102 330q0 129 79.5 215.5t205.5 97.5v-127q-68 -12 -113 -68.5t-45 -123.5q0 -77 54.5 -136t134.5 -59h717v510h127v-639h-844q-138 0 -227 95t-89 235zM567 584q0 29 21.5 50t50.5 21q31 0 51.5 -20.5t20.5 -50.5q0 -31 -20.5 -51.5t-51.5 -20.5q-30 0 -51 21t-21 51z M659 727q0 29 21.5 50.5t50.5 21.5q30 0 51 -21t21 -51q0 -31 -20.5 -51.5t-51.5 -20.5q-30 0 -51 21t-21 51zM752 584q0 29 21 50t50 21q31 0 51.5 -20.5t20.5 -50.5q0 -31 -20.5 -51.5t-51.5 -20.5q-29 0 -50 21t-21 51z" />
<glyph unicode="&#x62c;" horiz-adv-x="1134" d="M102 -178q0 159 93 231q95 76 258 76h440q0 187 -131 328q-100 100 -230 100q-109 0 -213 -68l-73 103q136 92 286 92q186 0 320 -137q154 -152 174 -389q6 -82 6 -158h-543q-120 0 -192 -47q-61 -41 -61 -139q0 -88 45 -142h-154q-25 77 -25 150zM492 -254q0 29 21 50.5 t50 21.5q30 0 51 -21t21 -51q0 -31 -20.5 -51.5t-51.5 -20.5q-29 0 -50 21t-21 51z" />
<glyph unicode="&#x62d;" horiz-adv-x="1134" d="M102 -178q0 159 93 231q95 76 258 76h440q0 187 -131 328q-100 100 -230 100q-109 0 -213 -68l-73 103q136 92 286 92q186 0 320 -137q154 -152 174 -389q6 -82 6 -158h-543q-120 0 -192 -47q-61 -41 -61 -139q0 -88 45 -142h-154q-25 77 -25 150z" />
<glyph unicode="&#x62e;" horiz-adv-x="1134" d="M102 -178q0 159 93 231q95 76 258 76h440q0 187 -131 328q-100 100 -230 100q-109 0 -213 -68l-73 103q136 92 286 92q186 0 320 -137q154 -152 174 -389q6 -82 6 -158h-543q-120 0 -192 -47q-61 -41 -61 -139q0 -88 45 -142h-154q-25 77 -25 150zM473 850 q0 29 21.5 50.5t50.5 21.5q30 0 50.5 -21t20.5 -51q0 -31 -20 -51.5t-51 -20.5q-30 0 -51 21t-21 51z" />
<glyph unicode="&#x62f;" horiz-adv-x="899" d="M102 0v127h555q-2 103 -32 181.5t-79.5 125t-110 69.5t-130.5 23q-75 0 -158 -22v123q91 30 181 30q98 0 181 -39t147.5 -116.5t102 -206t38.5 -295.5h-695z" />
<glyph unicode="&#x630;" horiz-adv-x="899" d="M102 0v127h555q-2 103 -32 181.5t-79.5 125t-110 69.5t-130.5 23q-75 0 -158 -22v123q91 30 181 30q98 0 181 -39t147.5 -116.5t102 -206t38.5 -295.5h-695zM219 850q0 29 21.5 50.5t50.5 21.5q30 0 50.5 -21t20.5 -51q0 -31 -20 -51.5t-51 -20.5q-30 0 -51 21t-21 51z " />
<glyph unicode="&#x631;" horiz-adv-x="464" d="M0 -256q225 274 225 565q0 168 -73 330h149q61 -168 61 -344q0 -375 -251 -635z" />
<glyph unicode="&#x632;" horiz-adv-x="464" d="M0 -256q225 274 225 565q0 168 -73 330h149q61 -168 61 -344q0 -375 -251 -635zM102 809q0 29 21.5 50.5t50.5 21.5q30 0 51 -21t21 -51q0 -31 -20.5 -51.5t-51.5 -20.5q-30 0 -51 21t-21 51z" />
<glyph unicode="&#x633;" horiz-adv-x="1800" d="M102 35q0 111 51 204t154 152l68 -115q-68 -43 -105 -110t-37 -139q0 -101 74 -180.5t197 -79.5q106 0 187 82.5t81 187.5v592h129v-383q0 -57 38 -97t93 -40q57 0 97 40t40 97v383h127v-383q0 -54 42 -95.5t96 -41.5t95.5 40t41.5 97v383h127v-398q0 -104 -80 -184 t-184 -80q-60 0 -105 22.5t-98 71.5q-78 -94 -199 -94q-39 0 -66.5 8.5t-66.5 30.5q-15 -156 -130 -264.5t-271 -108.5q-91 0 -167.5 34t-125.5 91t-76 128.5t-27 148.5z" />
<glyph unicode="&#x634;" horiz-adv-x="1800" d="M102 35q0 111 51 204t154 152l68 -115q-68 -43 -105 -110t-37 -139q0 -101 74 -180.5t197 -79.5q106 0 187 82.5t81 187.5v592h129v-383q0 -57 38 -97t93 -40q57 0 97 40t40 97v383h127v-383q0 -54 42 -95.5t96 -41.5t95.5 40t41.5 97v383h127v-398q0 -104 -80 -184 t-184 -80q-60 0 -105 22.5t-98 71.5q-78 -94 -199 -94q-39 0 -66.5 8.5t-66.5 30.5q-15 -156 -130 -264.5t-271 -108.5q-91 0 -167.5 34t-125.5 91t-76 128.5t-27 148.5zM1069 809q0 29 21.5 50.5t50.5 21.5q30 0 50.5 -21t20.5 -51q0 -31 -20 -51.5t-51 -20.5q-30 0 -51 21 t-21 51zM1161 952q0 29 21.5 50.5t50.5 21.5q30 0 51 -21t21 -51q0 -31 -20.5 -51t-51.5 -20q-30 0 -51 20.5t-21 50.5zM1253 809q0 29 21.5 50.5t50.5 21.5q30 0 51 -21t21 -51q0 -31 -20.5 -51.5t-51.5 -20.5q-30 0 -51 21t-21 51z" />
<glyph unicode="&#x635;" horiz-adv-x="1953" d="M102 45q0 109 51 202t154 154l66 -118q-69 -42 -106.5 -109.5t-37.5 -140.5q0 -102 74.5 -179t198.5 -77q107 0 188.5 80t81.5 188v594h119v-279q73 139 188.5 217t266.5 78q70 0 132 -14.5t109 -40.5t87 -61.5t67.5 -77.5t50 -89t33.5 -95.5t19.5 -97t7 -94t-4.5 -85.5 h-956v-29q-28 -140 -140 -234.5t-257 -94.5q-90 0 -165.5 34t-124 90.5t-75.5 128.5t-27 150zM979 129h731q13 157 -100 279t-269 122q-101 0 -188.5 -56t-135 -149.5t-38.5 -195.5z" />
<glyph unicode="&#x636;" horiz-adv-x="1953" d="M102 45q0 109 51 202t154 154l66 -118q-69 -42 -106.5 -109.5t-37.5 -140.5q0 -102 74.5 -179t198.5 -77q107 0 188.5 80t81.5 188v594h119v-279q73 139 188.5 217t266.5 78q70 0 132 -14.5t109 -40.5t87 -61.5t67.5 -77.5t50 -89t33.5 -95.5t19.5 -97t7 -94t-4.5 -85.5 h-956v-29q-28 -140 -140 -234.5t-257 -94.5q-90 0 -165.5 34t-124 90.5t-75.5 128.5t-27 150zM979 129h731q13 157 -100 279t-269 122q-101 0 -188.5 -56t-135 -149.5t-38.5 -195.5zM1284 809q0 29 21.5 50.5t50.5 21.5q30 0 50.5 -21t20.5 -51q0 -31 -20 -51.5t-51 -20.5 q-30 0 -51 21t-21 51z" />
<glyph unicode="&#x637;" horiz-adv-x="1431" d="M102 0v129h217v778h130v-424q131 172 368 172q72 0 135 -15t111 -41t89 -62.5t68.5 -79t50 -89.5t33.5 -95.5t19 -96.5t6.5 -92.5t-4.5 -83.5h-1223zM457 129h731q9 102 -41 195t-139 148.5t-191 55.5q-101 0 -188 -55.5t-134 -148.5t-38 -195z" />
<glyph unicode="&#x638;" horiz-adv-x="1431" d="M102 0v129h217v778h130v-424q131 172 368 172q72 0 135 -15t111 -41t89 -62.5t68.5 -79t50 -89.5t33.5 -95.5t19 -96.5t6.5 -92.5t-4.5 -83.5h-1223zM457 129h731q9 102 -41 195t-139 148.5t-191 55.5q-101 0 -188 -55.5t-134 -148.5t-38 -195zM754 809q0 29 21 50.5 t50 21.5q30 0 51 -21t21 -51q0 -31 -20.5 -51.5t-51.5 -20.5q-29 0 -50 20.5t-21 51.5z" />
<glyph unicode="&#x639;" horiz-adv-x="1042" d="M102 -176q0 132 68 203q64 83 225 110q-44 64 -58 137t9.5 148t85.5 129q110 95 238.5 93.5t234.5 -93.5l-76 -105q-78 78 -165 78q-89 0 -142 -58t-51 -135.5t57 -131.5q64 -70 179 -70h233v-129h-453q-48 0 -89.5 -9.5t-79 -30.5t-59 -61t-21.5 -94q0 -77 45 -131h-152 q-29 72 -29 150z" />
<glyph unicode="&#x63a;" horiz-adv-x="1042" d="M102 -176q0 132 68 203q64 83 225 110q-44 64 -58 137t9.5 148t85.5 129q110 95 238.5 93.5t234.5 -93.5l-76 -105q-78 78 -165 78q-89 0 -142 -58t-51 -135.5t57 -131.5q64 -70 179 -70h233v-129h-453q-48 0 -89.5 -9.5t-79 -30.5t-59 -61t-21.5 -94q0 -77 45 -131h-152 q-29 72 -29 150zM590 809q0 29 21.5 50.5t50.5 21.5q30 0 50.5 -21t20.5 -51q0 -31 -20 -51.5t-51 -20.5q-30 0 -51 21t-21 51z" />
<glyph unicode="&#x640;" horiz-adv-x="233" d="M-20 0v129h253v-129h-253z" />
<glyph unicode="&#x641;" horiz-adv-x="1566" d="M102 328q0 130 79.5 217t205.5 98v-129q-68 -12 -113 -67t-45 -123q0 -77 54.5 -136t134.5 -59h430q-64 93 -64 197q0 131 92 225t232 94q139 0 232.5 -94.5t93.5 -224.5q0 -78 -39 -152l2 2q-54 -93 -124.5 -134.5t-166.5 -41.5h-688q-135 0 -225.5 95t-90.5 233z M928 324q0 -76 52 -135.5t128 -59.5t130 59.5t54 135.5q0 70 -55 134t-129 64q-73 0 -126.5 -64t-53.5 -134zM1032 809q0 29 21.5 50.5t50.5 21.5q30 0 51 -21t21 -51q0 -31 -20.5 -51.5t-51.5 -20.5q-30 0 -51 21t-21 51z" />
<glyph unicode="&#x642;" horiz-adv-x="1536" d="M102 328q0 130 79.5 217t205.5 98v-129q-68 -12 -113 -67t-45 -123q0 -77 54.5 -136t134.5 -59h430q-64 93 -64 197q0 131 92 225t232 94q139 0 232.5 -94.5t93.5 -224.5q0 -78 -39 -152l2 2q-54 -93 -124.5 -134.5t-166.5 -41.5h-688q-135 0 -225.5 95t-90.5 233z M928 324q0 -76 52 -135.5t128 -59.5t130 59.5t54 135.5q0 70 -55 134t-129 64q-73 0 -126.5 -64t-53.5 -134zM944 809q0 29 21.5 50.5t50.5 21.5q30 0 50.5 -21t20.5 -51q0 -31 -20 -51.5t-51 -20.5q-30 0 -51 21t-21 51zM1128 809q0 29 21.5 50.5t50.5 21.5q30 0 51 -21 t21 -51q0 -31 -20.5 -51.5t-51.5 -20.5q-30 0 -51 21t-21 51z" />
<glyph unicode="&#x643;" horiz-adv-x="1363" d="M102 328q0 129 78.5 215.5t204.5 97.5v-127q-68 -12 -113 -67.5t-45 -124.5q0 -77 56.5 -135t132.5 -58h719v778h127v-907h-846q-137 0 -225.5 94.5t-88.5 233.5zM553 514v82h131q-34 42 -39 91t15 88.5t62 66t95 26.5q78 0 137 -59l-53 -74q-27 30 -65.5 41t-71 -9 t-35.5 -75q3 -84 117 -96h106v-82h-399z" />
<glyph unicode="&#x644;" horiz-adv-x="1009" d="M102 47q0 112 57 208t156 153l68 -121q-49 -36 -76.5 -63t-49 -73.5t-21.5 -103.5q0 -106 82 -188t188 -82q108 0 191 80.5t83 189.5v868h127v-864q0 -166 -116.5 -283.5t-284.5 -117.5q-165 0 -284.5 115t-119.5 282z" />
<glyph unicode="&#x645;" horiz-adv-x="1064" d="M102 70q0 147 72 280.5t198 216t271 82.5q89 0 163.5 -48.5t115.5 -124t41 -157.5q0 -85 -41 -147q-29 -61 -105 -116.5t-174 -55.5q-141 0 -232.5 101.5t-84.5 256.5q-88 -152 -88 -295q0 -159 106 -315h-151q-91 165 -91 322zM453 322q0 -75 57.5 -135t132.5 -60 q73 0 132 62t59 133q0 76 -57 138t-134 62q-79 0 -134.5 -61t-55.5 -139z" />
<glyph unicode="&#x646;" horiz-adv-x="1101" d="M102 236q0 120 60.5 224.5t177.5 166.5l45 -101q-72 -38 -116 -121t-44 -174q0 -118 81 -207t239 -102q130 5 224.5 92.5t94.5 218.5v406h135v-426q-8 -172 -137.5 -300t-302.5 -128h-14q-103 2 -188.5 41.5t-140 103.5t-84.5 143t-30 163zM528 588q0 29 21.5 50t50.5 21 q30 0 51 -20.5t21 -50.5q0 -31 -20.5 -51.5t-51.5 -20.5q-30 0 -51 21t-21 51z" />
<glyph unicode="&#x647;" horiz-adv-x="856" d="M102 326q0 131 97.5 231t226.5 100h6q131 0 226.5 -96.5t95.5 -226.5v-8q0 -134 -97 -230t-231 -96q-133 0 -228.5 96.5t-95.5 229.5zM238 328q0 -74 54 -132.5t136 -58.5q80 0 138.5 58t58.5 133q0 74 -61 134t-138 60q-79 0 -133.5 -60t-54.5 -134z" />
<glyph unicode="&#x648;" horiz-adv-x="880" d="M102 330q0 62 20.5 118.5t59.5 102.5t104 73t146 27q93 0 162.5 -32t108 -87t57 -121t18.5 -143q0 -138 -53 -268q-66 -164 -217 -340l-109 88q120 123 185 256q-31 -4 -88 -4q-184 0 -289 88t-105 242zM244 322q0 -58 22 -98.5t60.5 -62t82.5 -31t97 -9.5q40 0 110 8 q23 51 23 123q0 49 -11 94.5t-34 86t-63.5 65t-94.5 24.5q-82 0 -137 -58t-55 -142z" />
<glyph unicode="&#x649;" horiz-adv-x="1366" d="M102 330q0 127 79 215t206 98v-127q-66 -12 -112 -68t-46 -124q0 -75 57 -135t132 -60h389v262q0 98 74 173t172 75h211v-639h-129v512h-82q-43 0 -81 -36.5t-38 -84.5v-391h-516q-135 0 -225.5 95.5t-90.5 234.5z" />
<glyph unicode="&#x64a;" horiz-adv-x="1366" d="M102 330q0 127 79 215t206 98v-127q-66 -12 -112 -68t-46 -124q0 -75 57 -135t132 -60h389v262q0 98 74 173t172 75h211v-639h-129v512h-82q-43 0 -81 -36.5t-38 -84.5v-391h-516q-135 0 -225.5 95.5t-90.5 234.5zM610 -174q0 29 21.5 50.5t50.5 21.5q30 0 51 -21t21 -51 q0 -31 -20.5 -51.5t-51.5 -20.5q-30 0 -51 21t-21 51zM795 -174q0 29 21 50.5t50 21.5q30 0 51 -21t21 -51q0 -31 -20.5 -51.5t-51.5 -20.5q-30 0 -50.5 21t-20.5 51z" />
<glyph unicode="&#x64b;" horiz-adv-x="0" d="M-193 59l357 174l31 -57l-359 -176zM-193 236l359 174l29 -60l-355 -174z" />
<glyph unicode="&#x64c;" horiz-adv-x="0" d="M-299 193l57 28l68 -133l98 49q-37 21 -58.5 56t-21.5 79q0 65 45 110.5t111 45.5q64 0 110 -46t46 -110q0 -50 -29.5 -90t-75.5 -55v-2l-254 -125zM-92 276q0 -38 27 -64t63 -26q37 0 63.5 26.5t26.5 63.5t-26.5 64t-63.5 27q-36 0 -63 -27.5t-27 -63.5z" />
<glyph unicode="&#x64d;" horiz-adv-x="0" d="M-193 -176l359 176l29 -59l-355 -177zM-193 -350l357 174l31 -60l-359 -174z" />
<glyph unicode="&#x64e;" horiz-adv-x="0" d="M-193 59l357 174l31 -57l-359 -176z" />
<glyph unicode="&#x64f;" horiz-adv-x="0" d="M-193 59l117 58q-37 21 -58.5 56t-21.5 79q0 65 45 110.5t111 45.5q64 0 110 -46t46 -110q0 -50 -29.5 -90.5t-75.5 -55.5v-2l-211 -104zM-92 256q0 -38 27 -64t63 -26q37 0 63.5 26.5t26.5 63.5t-26.5 63.5t-63.5 26.5q-36 0 -63 -27t-27 -63z" />
<glyph unicode="&#x650;" horiz-adv-x="0" d="M-193 -176l359 176l29 -59l-355 -177z" />
<glyph unicode="&#x651;" horiz-adv-x="0" d="M-206 241.5q-3 37.5 1 49.5v4h64q-10 -170 43 -170q66 0 63 217h64q-5 -170 63 -170q50 0 43 217h64l1 -17q0 -16 -0.5 -29.5t-1 -37.5t-3.5 -44t-7.5 -44t-13 -42t-19.5 -33.5t-27 -24t-36 -8.5q-55 0 -88 53q-13 -44 -39 -72.5t-63 -28.5q-41 0 -67 31.5t-32 71.5 t-9 77.5z" />
<glyph unicode="&#x652;" horiz-adv-x="0" d="M-156 217q0 65 45 110.5t111 45.5q64 0 110 -45.5t46 -110.5t-46 -110.5t-110 -45.5q-66 0 -111 45.5t-45 110.5zM-92 221q0 -38 27 -64t63 -26q37 0 63.5 26.5t26.5 63.5t-26.5 63.5t-63.5 26.5q-36 0 -63 -27t-27 -63z" />
<glyph unicode="&#x660;" d="M43 313v265q0 150 94 241q88 88 217 88q128 0 219 -88q93 -93 93 -241v-265q0 -145 -93 -241q-89 -86 -219 -86q-131 0 -217 86q-94 94 -94 241zM172 313q0 -100 47 -154.5t135 -54.5t135.5 54.5t47.5 154.5v265q0 100 -47.5 154t-135.5 54t-135 -54t-47 -154v-265z" />
<glyph unicode="&#x661;" d="M141 780l33 111h250v-891h-123v780h-160z" />
<glyph unicode="&#x662;" d="M41 94q0 35 18 56q18 18 62 53l313 246q96 76 96 176q0 74 -49 123q-50 47 -125 47q-86 0 -134 -51.5t-48 -137.5q0 -67 53 -114q48 -48 115 -54l-104 -82q-90 32 -137.5 101t-47.5 166q0 124 97 208q88 76 219 76q117 0 202 -82q82 -82 82 -200q0 -100 -57 -179 q-41 -58 -145 -137l-250 -194v-2h448v-113h-489q-58 0 -88.5 24.5t-30.5 69.5z" />
<glyph unicode="&#x663;" d="M57 0v113h295q85 0 131 49q45 45 45 119q0 67 -55.5 109t-153.5 42h-139v90l281 258h-383v111h385q127 0 127 -96q0 -38 -31 -78q-16 -19 -35 -35q-1 -1 -41 -35l-121 -102q125 0 207 -72q82 -69 82 -188q0 -128 -76 -207q-75 -78 -190 -78h-328z" />
<glyph unicode="&#x664;" d="M12 281q0 5 0.5 9.5t2 9.5t2.5 8.5t4 10t4.5 9.5t5.5 10.5t5.5 10.5t7 12t7.5 12l287 518h133l-321 -572h266v383l112 193l9 12q2 0 2 -18v-570h133v-112h-133v-207h-123v207h-318q-41 0 -63.5 19.5t-22.5 54.5z" />
<glyph unicode="&#x665;" d="M72 0v113h290q82 0 125 42.5t43 114.5q0 82 -47 124t-151 42h-223v455h466v-111h-344v-233h109q149 0 231 -70q88 -73 88 -209q0 -110 -71 -184q-74 -84 -193 -84h-323z" />
<glyph unicode="&#x666;" d="M31 301q0 87 35 152q19 43 81 131l218 307h147l-279 -389q-42 -59 -59 -99q-20 -50 -20 -112q0 -78 59 -137q58 -58 139 -58q83 0 142 62q61 61 61 143q0 109 -72 168q-65 56 -178 53l70 103q144 -6 227 -95q76 -88 76 -227q0 -127 -94 -221q-96 -96 -236 -96 q-135 0 -225 90q-92 92 -92 225z" />
<glyph unicode="&#x667;" d="M55 780v111h449q71 0 104 -21.5t33 -68.5q0 -34 -23 -88q-28 -53 -53 -117l-264 -596h-141l350 780h-455z" />
<glyph unicode="&#x668;" d="M37 268q0 148 143 236q-45 45 -61 78q-23 45 -23 104q0 91 70 152q76 69 188 69q113 0 181 -59q73 -57 73 -162q0 -102 -80 -182q144 -75 144 -236q0 -117 -82 -196q-86 -86 -236 -86q-146 0 -235 86q-82 79 -82 196zM166 268q0 -77 52 -124.5t136 -47.5t135.5 47.5 t51.5 124.5q0 78 -51 125t-136 47t-136.5 -47t-51.5 -125zM225 674q0 -52 35 -86.5t92 -34.5q56 0 90.5 34.5t34.5 86.5t-34.5 86.5t-90.5 34.5q-57 0 -92 -34.5t-35 -86.5z" />
<glyph unicode="&#x669;" d="M31 588q0 129 94 223q99 96 233 96q65 0 124.5 -24t101.5 -66q94 -94 94 -227q0 -78 -33 -152q-24 -48 -84 -129l-217 -309h-147l276 389q47 64 62 100q20 58 20 111q0 80 -57 137q-58 58 -142 58q-80 0 -143 -60q-59 -59 -59 -143q0 -109 69 -168q63 -55 180 -55 l-71 -101q-142 0 -226 94q-75 84 -75 226z" />
<glyph unicode="&#x2000;" horiz-adv-x="717" />
<glyph unicode="&#x2001;" horiz-adv-x="1434" />
<glyph unicode="&#x2002;" horiz-adv-x="717" />
<glyph unicode="&#x2003;" horiz-adv-x="1434" />
<glyph unicode="&#x2004;" horiz-adv-x="478" />
<glyph unicode="&#x2005;" horiz-adv-x="358" />
<glyph unicode="&#x2006;" horiz-adv-x="239" />
<glyph unicode="&#x2007;" horiz-adv-x="239" />
<glyph unicode="&#x2008;" horiz-adv-x="179" />
<glyph unicode="&#x2009;" horiz-adv-x="286" />
<glyph unicode="&#x200a;" horiz-adv-x="79" />
<glyph unicode="&#x2010;" horiz-adv-x="354" d="M35 254v102h284v-102h-284z" />
<glyph unicode="&#x2011;" horiz-adv-x="354" d="M35 254v102h284v-102h-284z" />
<glyph unicode="&#x2012;" horiz-adv-x="354" d="M35 254v102h284v-102h-284z" />
<glyph unicode="&#x2013;" horiz-adv-x="636" d="M0 264v82h637v-82h-637z" />
<glyph unicode="&#x2014;" horiz-adv-x="1273" d="M0 264v82h1274v-82h-1274z" />
<glyph unicode="&#x2018;" horiz-adv-x="282" d="M59 891h107l45 -256h-94z" />
<glyph unicode="&#x2019;" horiz-adv-x="282" d="M72 635l45 256h106l-57 -256h-94z" />
<glyph unicode="&#x201a;" horiz-adv-x="282" d="M45 -129l47 256h107l-60 -256h-94z" />
<glyph unicode="&#x201c;" horiz-adv-x="495" d="M53 891h107l47 -256h-94zM289 891h106l47 -256h-94z" />
<glyph unicode="&#x201d;" horiz-adv-x="495" d="M53 635l47 256h107l-60 -256h-94zM289 635l47 256h106l-59 -256h-94z" />
<glyph unicode="&#x201e;" horiz-adv-x="495" d="M53 -129l47 256h107l-60 -256h-94zM289 -129l47 256h106l-59 -256h-94z" />
<glyph unicode="&#x2020;" horiz-adv-x="636" d="M82 545v123l209 -39l-33 262h121l-33 -262l209 39v-123l-209 39l35 -215q-9 -30 -23 -183q-16 -138 -16 -260v-96h-47v96q0 122 -16 260q-14 153 -23 183l35 215z" />
<glyph unicode="&#x2021;" horiz-adv-x="636" d="M82 53v123l209 -39l-35 223l35 224l-209 -39v123l209 -39l-35 262h125l-35 -262l209 39v-123l-209 39l35 -224l-35 -223l209 39v-123l-209 39l35 -262h-125l35 262z" />
<glyph unicode="&#x2022;" horiz-adv-x="636" d="M96 446q0 94 64 158q66 66 159 66q92 0 158 -66q64 -64 64 -158q0 -96 -64 -157q-66 -66 -158 -66q-93 0 -159 66q-64 61 -64 157z" />
<glyph unicode="&#x2026;" horiz-adv-x="1273" d="M137 68q0 31 22.5 53t53.5 22t53.5 -22t22.5 -53q0 -32 -22.5 -54t-53.5 -22t-53.5 22t-22.5 54zM561 68q0 31 22.5 53t53.5 22t53.5 -22t22.5 -53q0 -32 -22.5 -54t-53.5 -22t-53.5 22t-22.5 54zM985 68q0 31 22.5 53t53.5 22t53.5 -22t22.5 -53q0 -32 -22.5 -54 t-53.5 -22t-53.5 22t-22.5 54z" />
<glyph unicode="&#x202f;" horiz-adv-x="286" />
<glyph unicode="&#x2030;" horiz-adv-x="1273" d="M-14 698q0 90 65 152q64 57 144 57q81 0 145 -57q63 -60 63 -152q0 -91 -63 -151q-61 -58 -145 -58q-83 0 -144 58q-65 62 -65 151zM86 -14l592 921h78l-592 -921h-78zM86 698q0 -48 32 -79t77 -31t77.5 31t32.5 79t-32 78.5t-78 30.5t-77.5 -30.5t-31.5 -78.5zM426 195 q0 88 66 151q64 57 143 57q85 0 145 -57q64 -61 64 -151q0 -91 -64 -152q-57 -57 -145 -57q-83 0 -143 57q-66 63 -66 152zM526 195q0 -48 32 -79.5t77 -31.5q47 0 78.5 31t31.5 80q0 47 -32 77.5t-78 30.5q-45 0 -77 -31t-32 -77zM881 195q0 89 65 151q60 57 144 57 q81 0 145 -57q63 -63 63 -151q0 -89 -63 -152q-60 -57 -145 -57q-87 0 -144 57q-65 62 -65 152zM979 195q0 -48 33 -79.5t78 -31.5t76.5 31t31.5 80q0 47 -31.5 77.5t-76.5 30.5t-78 -31t-33 -77z" />
<glyph unicode="&#x2039;" horiz-adv-x="423" d="M88 305l158 197h96l-158 -197l166 -196h-96z" />
<glyph unicode="&#x203a;" horiz-adv-x="423" d="M74 109l166 196l-158 197h96l158 -197l-166 -196h-96z" />
<glyph unicode="&#x205f;" horiz-adv-x="358" />
<glyph unicode="&#x20ac;" d="M43 313v107h80v12q-2 4 -2 14v25q0 4 1 12.5t1 12.5h-80v106h109q51 127 159 205q117 84 277 84h94v-111h-82q-105 0 -189 -48.5t-128 -129.5h258v-106h-291q-4 -32 -4 -50q0 -10 2 -14v-12h293v-107h-273q37 -96 125 -151q76 -49 162 -49h127v-113h-127q-149 0 -264 88 q-114 85 -152 225h-96z" />
<glyph unicode="&#x2122;" horiz-adv-x="1261" d="M70 811v80h422v-80h-158v-444h-107v444h-157zM588 367v524h160l143 -371l143 371h158v-524h-107v413h-2l-157 -413h-72l-156 413h-2v-413h-108z" />
<glyph unicode="&#xe000;" horiz-adv-x="614" d="M0 0v614h614v-614h-614z" />
<glyph horiz-adv-x="1363" d="M102 330q0 129 79.5 215.5t205.5 97.5v-127q-68 -12 -113 -68.5t-45 -123.5q0 -77 54.5 -136t134.5 -59h717v510h127v-639h-844q-138 0 -227 95t-89 235z" />
<glyph horiz-adv-x="1370" d="M102 330q0 129 79.5 215.5t205.5 97.5v-127q-68 -12 -113 -68.5t-45 -123.5q0 -77 54.5 -136t134.5 -59h717v510h127v-510h108v-129h-952q-138 0 -227 95t-89 235z" />
<glyph horiz-adv-x="1536" d="M102 328q0 130 79.5 217t205.5 98v-129q-68 -12 -113 -67t-45 -123q0 -77 54.5 -136t134.5 -59h430q-64 93 -64 197q0 131 92 225t232 94q139 0 232.5 -94.5t93.5 -224.5q0 -78 -39 -152l2 2q-54 -93 -124.5 -134.5t-166.5 -41.5h-688q-135 0 -225.5 95t-90.5 233z M928 324q0 -76 52 -135.5t128 -59.5t130 59.5t54 135.5q0 70 -55 134t-129 64q-73 0 -126.5 -64t-53.5 -134z" />
<glyph horiz-adv-x="1542" d="M102 328q0 130 79.5 217t205.5 98v-129q-68 -12 -113 -67t-45 -123q0 -77 54.5 -136t134.5 -59h430q-64 93 -64 197q0 131 92 225t232 94q139 0 232.5 -94.5t93.5 -224.5q0 -99 -66 -197h174v-129h-1124q-135 0 -225.5 95t-90.5 233zM928 324q0 -76 52 -135.5t128 -59.5 t130 59.5t54 135.5q0 70 -55 134t-129 64q-73 0 -126.5 -64t-53.5 -134z" />
<glyph horiz-adv-x="536" d="M-2 47q32 50 79 85.5t99 35.5q29 0 60 -22.5t59.5 -45t52.5 -22.5q54 0 119 108l72 -47q-40 -65 -76 -96t-86 -43q-24 -4 -35 -4q-37 0 -69.5 21t-58.5 42t-46 21q-40 0 -96 -80z" />
<glyph horiz-adv-x="327" d="M0 72q0 29 21.5 50t50.5 21q30 0 50.5 -20.5t20.5 -50.5q0 -31 -20 -51.5t-51 -20.5q-30 0 -51 21t-21 51zM92 215q0 29 21.5 50.5t50.5 21.5q30 0 51 -21t21 -51q0 -31 -20.5 -51.5t-51.5 -20.5q-30 0 -51 21t-21 51zM184 72q0 29 21.5 50t50.5 21q30 0 51 -20.5 t21 -50.5q0 -31 -20.5 -51.5t-51.5 -20.5q-30 0 -51 21t-21 51z" />
<glyph horiz-adv-x="327" d="M0 72q0 29 21.5 50t50.5 21q30 0 50.5 -20.5t20.5 -50.5q0 -31 -20 -51.5t-51 -20.5q-30 0 -51 21t-21 51zM184 72q0 29 21.5 50t50.5 21q30 0 51 -20.5t21 -50.5q0 -31 -20.5 -51.5t-51.5 -20.5q-30 0 -51 21t-21 51z" />
<glyph horiz-adv-x="948" d="M-20 0v129h282q-63 91 -63 197q0 131 91 225t232 94q138 0 231 -94.5t93 -224.5q0 -82 -37 -152v2q-53 -93 -123 -134.5t-166 -41.5h-540zM340 324q0 -76 53 -135.5t129 -59.5q75 0 129 60t54 135q0 70 -54.5 134t-128.5 64t-128 -64t-54 -134z" />
<glyph horiz-adv-x="956" d="M-20 0v129h282q-63 91 -63 197q0 131 91 225t232 94q138 0 231 -94.5t93 -224.5q0 -97 -64 -197h174v-129h-976zM340 324q0 -76 53 -135.5t129 -59.5q75 0 129 60t54 135q0 70 -54.5 134t-128.5 64t-128 -64t-54 -134z" />
<glyph horiz-adv-x="401" d="M0 0v82h131q-34 42 -39 91t15 88.5t62 66t95 26.5q78 0 137 -59l-53 -74q-27 30 -65.5 41t-71 -9t-35.5 -75q3 -84 117 -96h106v-82h-399z" />
<glyph horiz-adv-x="143" d="M0 72q0 29 21.5 50t50.5 21q30 0 50.5 -20.5t20.5 -50.5q0 -31 -20 -51.5t-51 -20.5q-30 0 -51 21t-21 51z" />
</font>
</defs>
</svg>
