<?xml version="1.0" standalone="no"?>
<!DOCTYPE svg PUBLIC "-//W3C//DTD SVG 1.1//EN" "http://www.w3.org/Graphics/SVG/1.1/DTD/svg11.dtd" >
<svg xmlns="http://www.w3.org/2000/svg">
<metadata>
Generated by SVGconv.
Copyright   : Copyright  2009 ParaType Ltd. All rights reserved.
Designer    : A.Korolkova, O.Umpeleva, V.Yefimov
Foundry     : ParaType Ltd
Foundry URL : http://www.paratype.com
</metadata>
<defs>
<font id="PTSans-BoldItalic" horiz-adv-x="513" >
<font-face units-per-em="1000" ascent="1018" descent="276" />
<missing-glyph horiz-adv-x="750" />
<glyph unicode="&#13;" horiz-adv-x="253" />
<glyph unicode="&#32;" horiz-adv-x="253" />
<glyph unicode="&#33;" horiz-adv-x="283" d="M217 700h128l-70 -329l-59 -163h-78l9 163zM74 66q0 35 22 55.5q22 20.5 58 20.5q37 0 59 -20.5q22 -20.5 22 -55.5q0 -35 -22 -56q-22 -21 -59 -21q-36 0 -58 21t-22 56z" />
<glyph unicode="&#34;" horiz-adv-x="354" d="M115 700h108l-79 -216h-75zM256 700h108l-79 -216l-75 0z" />
<glyph unicode="&#35;" horiz-adv-x="545" d="M318 205h-89l-36 -154h-107l36 154h-74l22 97h75l25 106h-72l22 97h73l35 144h107l-35 -144h89l35 144h107l-35 -144h72l-25 -97h-70l-25 -106h69l-24 -97h-68l-36 -154h-107zM252 302h89l25 106l-89 0z" />
<glyph unicode="&#36;" horiz-adv-x="545" d="M192 -10q-52 7 -84 23q-32 16 -49 30l47 97q14 -10 42.5 -23q28.5 -13 66.5 -20l47 221q-23 15 -45 32.5q-22 17.5 -39.5 40q-17.5 22.5 -28 51q-10.5 28.5 -10.5 66.5q0 48 16.5 84q16.5 36 45 61q28.5 25 65.5 39q37 14 79 19l20 89h99l-19 -90q38 -5 67 -14.5q29 -9.5 50 -20.5l-50 -102q-14 8 -38 16q-24 8 -53 13l-43 -203q23 -16 46 -34q23 -18 41 -41.5q18 -23.5 29 -53q11 -29.5 11 -67.5q0 -48 -16 -85.5q-16 -37.5 -44.5 -64.5q-28.5 -27 -68 -43q-39.5 -16 -86.5 -21l-18 -89h-99zM272 94q53 4 78 31q25 27 25 63q0 32 -18 54q-18 22 -45 42zM364 606q-48 -2 -71.5 -25q-23.5 -23 -23.5 -57q0 -29 16.5 -49.5q16.5 -20.5 42.5 -40.5z" />
<glyph unicode="&#37;" horiz-adv-x="804" d="M54 499q0 54 18.5 94q18.5 40 48.5 66.5q30 26.5 66.5 39.5q36.5 13 72.5 13q66 0 100.5 -30.5q34.5 -30.5 34.5 -89.5q0 -57 -17 -98.5q-17 -41.5 -46 -68.5q-29 -27 -66.5 -40q-37.5 -13 -77.5 -13q-62 0 -98 34.5q-36 34.5 -36 92.5zt0 0zM164 505q-1 -22 10 -35.5q11 -13.5 32 -13.5q33 0 56 34.5q23 34.5 23 88.5q0 49 -43 49q-17 0 -31 -10q-14 -10 -25 -26.5q-11 -16.5 -17 -39q-6 -22.5 -5 -47.5zt0 0zM420 127q0 54 18.5 94q18.5 40 48.5 66.5q30 26.5 66.5 39.5q36.5 13 72.5 13q66 0 100.5 -30.5q34.5 -30.5 34.5 -89.5q0 -57 -17 -98.5q-17 -41.5 -46 -68.5q-29 -27 -66.5 -40q-37.5 -13 -77.5 -13q-62 0 -98 34.5q-36 34.5 -36 92.5zt0 0zM530 133q-1 -22 10 -35.5q11 -13.5 32 -13.5q33 0 56 34.5q23 34.5 23 88.5q0 49 -43 49q-17 0 -31 -10q-14 -10 -25 -26.5q-11 -16.5 -17 -39q-6 -22.5 -5 -47.5zt0 0zM656 714l73 -66l-576 -662l-73 69z" />
<glyph unicode="&#38;" horiz-adv-x="783" d="M73 162q0 46 18.5 87q18.5 41 49 75q30.5 34 69 61.5q38.5 27.5 79.5 47.5q-17 33 -21.5 60q-4.5 27 -4.5 54q0 33 11 63q11 30 35 53q24 23 61 37q37 14 88 14q40 0 65.5 -10q25.5 -10 40.5 -26.5q15 -16.5 20.5 -37q5.5 -20.5 5.5 -40.5q0 -51 -40.5 -97.5q-40.5 -46.5 -115.5 -87.5q22 -54 45.5 -99q23.5 -45 55.5 -89q26 25 52 62.5q26 37.5 48 76.5l79 -50q-10 -18 -25 -39.5q-15 -21.5 -31.5 -43.5q-16.5 -22 -33 -41.5q-16.5 -19.5 -29.5 -33.5q24 -29 52.5 -54.5q28.5 -25.5 56.5 -37.5l-87 -96q-15 6 -31 17.5q-16 11.5 -31.5 25q-15.5 13.5 -29.5 28.5q-14 15 -24 29q-43 -33 -99.5 -58.5q-56.5 -25.5 -131.5 -25.5q-46 0 -82.5 13.5q-36.5 13.5 -62 37q-25.5 23.5 -39 55.5q-13.5 32 -13.5 70zt0 0zM443 149q-37 53 -66 105.5q-29 52.5 -48 99.5q-59 -40 -92.5 -80.5q-33.5 -40.5 -33.5 -87.5q0 -42 27 -66q27 -24 80 -24q38 0 74.5 16.5q36.5 16.5 58.5 36.5zt0 0zM384 553q0 -22 3.5 -37.5q3.5 -15.5 14.5 -39.5q42 25 65 49q23 24 23 51q0 19 -9 30q-9 11 -34 11q-31 0 -47 -19t-16 -45z" />
<glyph unicode="&#39;" horiz-adv-x="218" d="M137 700h108l-79 -216l-75 0z" />
<glyph unicode="&#40;" horiz-adv-x="310" d="M157 -218q-29 38 -47 77.5q-18 39.5 -29 78.5q-11 39 -15 76.5q-4 37.5 -4 72.5q0 96 23 186.5q23 90.5 61.5 171q38.5 80.5 89.5 148.5q51 68 107 119l64 -54q-47 -52 -87.5 -116.5q-40.5 -64.5 -70.5 -137.5q-30 -73 -47.5 -151.5q-17.5 -78.5 -17.5 -158.5q0 -63 9 -124.5q9 -61.5 41 -133.5z" />
<glyph unicode="&#41;" horiz-adv-x="310" d="M183 711q45 -60 65.5 -135.5q20.5 -75.5 20.5 -166.5q0 -96 -22.5 -187q-22.5 -91 -61 -172q-38.5 -81 -89 -150q-50.5 -69 -106.5 -120l-67 55q45 50 86 115.5q41 65.5 71.5 139.5q30.5 74 48.5 152q18 78 18 153q0 83 -12 146.5q-12 63.5 -39 113.5z" />
<glyph unicode="&#42;" horiz-adv-x="356" d="M182 731l28 -46l15 -59l15 55l28 49l63 -35l-30 -52l-47 -43l64 16h57v-73h-54l-61 16l50 -47l25 -42l-64 -37l-27 46l-20 64l-13 -58l-29 -49l-65 37l30 49l45 37l-55 -16h-59v74h59l59 -17l-50 44l-28 50z" />
<glyph unicode="&#43;" horiz-adv-x="505" d="M58 394h162v169h117v-169h163v-112h-163v-171h-117v171l-162 0z" />
<glyph unicode="&#44;" horiz-adv-x="226" d="M60 -5q-17 1 -32 17q-15 16 -15 42q0 40 25.5 62q25.5 22 60.5 22q35 0 52 -22.5q17 -22.5 17 -51.5v-2q-1 -49 -20 -85.5q-19 -36.5 -45.5 -62q-26.5 -25.5 -55 -41q-28.5 -15.5 -47.5 -21.5l-26 54q29 11 53 36t33 53z" />
<glyph unicode="&#45;" horiz-adv-x="343" d="M81 340h239l-25 -104l-239 0z" />
<glyph unicode="&#46;" horiz-adv-x="251" d="M33 66q0 35 22 55.5q22 20.5 58 20.5q37 0 59 -20.5q22 -20.5 22 -55.5q0 -35 -22 -56q-22 -21 -59 -21q-36 0 -58 21t-22 56z" />
<glyph unicode="&#47;" horiz-adv-x="388" d="M432 712l86 -46l-510 -808l-85 48z" />
<glyph unicode="&#48;" horiz-adv-x="545" d="M55 229q0 104 23.5 192.5q23.5 88.5 65.5 153.5q42 65 99.5 102q57.5 37 125.5 37q39 0 73.5 -12q34.5 -12 60.5 -40q26 -28 41 -75q15 -47 15 -116q0 -93 -21.5 -180.5q-21.5 -87.5 -62 -155q-40.5 -67.5 -99 -108.5q-58.5 -41 -131.5 -41q-49 0 -85 19q-36 19 -59 51.5q-23 32.5 -34.5 77q-11.5 44.5 -11.5 95.5zt0 0zM179 230q0 -41 7 -67q7 -26 18.5 -41q11.5 -15 27.5 -20.5q16 -5.5 34 -5.5q35 0 65.5 33q30.5 33 53.5 86q23 53 36.5 119.5q13.5 66.5 13.5 134.5q0 31 -3.5 56q-3.5 25 -13 42.5q-9.5 17.5 -25.5 27q-16 9.5 -41 9.5q-33 0 -64 -31q-31 -31 -55.5 -82.5q-24.5 -51.5 -39 -119.5t-14.5 -141z" />
<glyph unicode="&#49;" horiz-adv-x="545" d="M81 110h132l85 395l28 68l-58 -59l-97 -62l-39 77l257 183h70l-128 -602h129l-23 -110l-379 0z" />
<glyph unicode="&#50;" horiz-adv-x="545" d="M540 560q0 -56 -26 -113.5q-26 -57.5 -66 -112.5q-40 -55 -88 -104q-48 -49 -91 -88l-59 -41v-5l70 14h179l-23 -110h-400l14 67q28 26 66 61.5q38 35.5 79 76q41 40.5 80.5 84q39.5 43.5 70.5 85.5q31 42 50.5 81q19.5 39 19.5 71q0 33 -17 54q-17 21 -65 21q-31 0 -63.5 -14.5q-32.5 -14.5 -64.5 -37.5l-30 94q48 35 96.5 53q48.5 18 112.5 18q74 0 114.5 -42.5t40.5 -111.5z" />
<glyph unicode="&#51;" horiz-adv-x="545" d="M193 389l147 165l64 45l-76 -9h-159l24 110h363l-15 -71l-171 -190l-48 -27v-5l40 6q20 -2 42.5 -12q22.5 -10 41.5 -29.5q19 -19.5 31.5 -50q12.5 -30.5 12.5 -74.5q0 -57 -18.5 -105q-18.5 -48 -55.5 -82.5q-37 -34.5 -92 -54q-55 -19.5 -127 -19.5q-43 0 -87 8q-44 8 -69 23l57 111q20 -13 49 -21q29 -8 67 -8q39 0 67.5 11q28.5 11 47.5 29q19 18 28 41.5q9 23.5 9 47.5q0 48 -25.5 70q-25.5 22 -92.5 22l-70 0z" />
<glyph unicode="&#52;" horiz-adv-x="545" d="M535 195h-105l-41 -195h-115l41 195h-287l15 74l393 436h102l-86 -407h105zM370 452l26 84h-3l-48 -72l-126 -135l-55 -38l62 7l111 0z" />
<glyph unicode="&#53;" horiz-adv-x="545" d="M201 99q42 0 72 12q30 12 49.5 32q19.5 20 29 46q9.5 26 9.5 55q0 50 -30.5 71q-30.5 21 -101.5 21l-77 -3l77 367h327l-25 -122h-220l-29 -138l37 4q40 0 70.5 -13q30.5 -13 51.5 -36q21 -23 32 -55q11 -32 11 -69q0 -138 -78 -211.5q-78 -73.5 -224 -73.5q-20 0 -41 2.5q-21 2.5 -40.5 6.5q-19.5 4 -36 9.5q-16.5 5.5 -28.5 11.5l56 106q20 -10 45.5 -16.5t63.5 -6.5z" />
<glyph unicode="&#54;" horiz-adv-x="545" d="M516 255q0 -54 -16 -103q-16 -49 -48.5 -85.5q-32.5 -36.5 -81.5 -58.5q-49 -22 -114 -22q-32 0 -66.5 11.5q-34.5 11.5 -63 38q-28.5 26.5 -46.5 69.5q-18 43 -18 106q0 102 38 190.5q38 88.5 100.5 155q62.5 66.5 142.5 107.5q80 41 165 50l7 -103q-50 -8 -98 -28.5q-48 -20.5 -89.5 -52q-41.5 -31.5 -73.5 -71.5q-32 -40 -49 -86q27 29 66.5 44q39.5 15 81.5 15q77 0 120 -48.5q43 -48.5 43 -128.5zt0 0zM394 232q0 40 -20.5 65q-20.5 25 -68.5 25q-38 0 -71 -17q-33 -17 -50 -43q-2 -10 -3.5 -22.5q-1.5 -12.5 -1.5 -20.5q0 -54 22.5 -88.5q22.5 -34.5 69.5 -34.5q57 0 90 38t33 98z" />
<glyph unicode="&#55;" horiz-adv-x="545" d="M62 0l329 539l51 49l-58 -10h-235l25 122h430l-8 -38l-405 -662z" />
<glyph unicode="&#56;" horiz-adv-x="545" d="M54 153q0 38 13 70.5q13 32.5 35 59q22 26.5 51 46.5q29 20 61 32q-14 13 -26.5 26.5q-12.5 13.5 -22 30.5q-9.5 17 -15 39.5q-5.5 22.5 -5.5 52.5q0 49 18.5 87.5q18.5 38.5 50.5 64q32 25.5 74 39q42 13.5 89 13.5q84 0 128 -43.5q44 -43.5 44 -111.5q0 -35 -11.5 -63.5q-11.5 -28.5 -31 -52.5q-19.5 -24 -45 -43.5q-25.5 -19.5 -53.5 -34.5q45 -35 64.5 -74.5q19.5 -39.5 19.5 -85.5q0 -51 -18.5 -91.5q-18.5 -40.5 -51.5 -69q-33 -28.5 -79 -43.5q-46 -15 -101 -15q-39 0 -73.5 11q-34.5 11 -60 32q-25.5 21 -40 52q-14.5 31 -14.5 72zt0 0zM374 190q0 23 -7.5 41q-7.5 18 -20 32.5q-12.5 14.5 -29.5 27q-17 12.5 -35 23.5q-51 -26 -81 -60.5q-30 -34.5 -30 -76.5q0 -35 21 -58q21 -23 69 -23q22 0 42.5 6q20.5 6 36.5 17.5q16 11.5 25 29q9 17.5 9 41.5zt0 0zM263 511q0 -35 22 -59.5q22 -24.5 56 -44.5q18 13 34 28q16 15 28.5 31q12.5 16 20 33q7.5 17 7.5 33q0 36 -18 54q-18 18 -51 18q-42 0 -70.5 -24t-28.5 -69z" />
<glyph unicode="&#57;" horiz-adv-x="545" d="M99 456q0 60 20 108q20 48 55.5 81q35.5 33 83 51q47.5 18 103.5 18q42 0 78 -13q36 -13 62.5 -40.5q26.5 -27.5 42 -69q15.5 -41.5 15.5 -98.5q0 -80 -20.5 -147.5q-20.5 -67.5 -55 -122.5q-34.5 -55 -80 -98q-45.5 -43 -95.5 -73q-50 -30 -101.5 -46.5q-51.5 -16.5 -97.5 -19.5l-6 102q55 10 103.5 31.5q48.5 21.5 87.5 51q39 29.5 67.5 66q28.5 36.5 44.5 75.5q-29 -23 -63 -34.5q-34 -11.5 -82 -11.5q-28 0 -57 10.5q-29 10.5 -52 33q-23 22.5 -38 59q-15 36.5 -15 87.5zt0 0zM221 475q0 -29 7.5 -48q7.5 -19 20.5 -31q13 -12 28.5 -17q15.5 -5 32.5 -5q38 0 71 12q33 12 52 32q3 11 5.5 31q2.5 20 2.5 29q0 57 -22.5 92.5q-22.5 35.5 -73.5 35.5q-24 0 -46 -7.5q-22 -7.5 -39.5 -23.5q-17.5 -16 -28 -41t-10.5 -59z" />
<glyph unicode="&#58;" horiz-adv-x="314" d="M90 66q0 35 22 55.5q22 20.5 58 20.5q37 0 59 -20.5q22 -20.5 22 -55.5q0 -35 -22 -56q-22 -21 -59 -21q-36 0 -58 21q-22 21 -22 56zt0 0zM165 428q0 35 22 55.5q22 20.5 58 20.5q37 0 59 -20.5q22 -20.5 22 -55.5q0 -35 -22 -56q-22 -21 -59 -21q-36 0 -58 21t-22 56z" />
<glyph unicode="&#59;" horiz-adv-x="307" d="M138 -5q-17 1 -32 17q-15 16 -15 42q0 40 25.5 62q25.5 22 60.5 22q35 0 52 -22.5q17 -22.5 17 -51.5v-2q-1 -49 -20 -85.5q-19 -36.5 -45.5 -62q-26.5 -25.5 -55 -41q-28.5 -15.5 -47.5 -21.5l-26 54q29 11 53 36q24 25 33 53zt0 0zM158 428q0 35 22 55.5q22 20.5 58 20.5q37 0 59 -20.5q22 -20.5 22 -55.5q0 -35 -22 -56q-22 -21 -59 -21q-36 0 -58 21t-22 56z" />
<glyph unicode="&#60;" horiz-adv-x="505" d="M51 285v70l386 231l57 -90l-224 -139l-91 -35l90 -31l230 -137l-57 -90z" />
<glyph unicode="&#61;" horiz-adv-x="505" d="M58 490h442v-112h-442zM58 298h442v-112l-442 0z" />
<glyph unicode="&#62;" horiz-adv-x="505" d="M508 365v-70l-387 -231l-56 91l223 138l91 36l-90 30l-229 138l56 89z" />
<glyph unicode="&#63;" horiz-adv-x="430" d="M127 208q6 54 24.5 92.5q18.5 38.5 43 67q24.5 28.5 52 50q27.5 21.5 50 41.5q22.5 20 37.5 41q15 21 15 49q0 27 -15.5 42q-15.5 15 -55.5 15q-31 0 -68 -13.5q-37 -13.5 -65 -32.5l-31 94q41 25 89 42.5q48 17.5 117 17.5q84 0 123 -35.5q39 -35.5 39 -95.5q0 -53 -16 -89.5q-16 -36.5 -41 -64q-25 -27.5 -55 -49q-30 -21.5 -57.5 -45.5q-27.5 -24 -49.5 -54q-22 -30 -30 -73zM82 66q0 35 22 55.5q22 20.5 58 20.5q37 0 59 -20.5q22 -20.5 22 -55.5q0 -35 -22 -56q-22 -21 -59 -21q-36 0 -58 21t-22 56z" />
<glyph unicode="&#64;" horiz-adv-x="1059" d="M706 484h70l-49 -271q-2 -12 -3 -22.5q-1 -10.5 -1 -18.5q0 -48 37 -48q26 0 51.5 12q25.5 12 45.5 37q20 25 32 63q12 38 12 90q0 75 -25 128.5q-25 53.5 -68.5 88q-43.5 34.5 -102.5 50.5q-59 16 -126 16q-78 0 -145.5 -28q-67.5 -28 -117 -77.5q-49.5 -49.5 -77.5 -117q-28 -67.5 -28 -146.5q0 -78 23.5 -140q23.5 -62 69 -106q45.5 -44 112 -67.5q66.5 -23.5 152.5 -23.5q29 0 66 7.5q37 7.5 67 21.5l31 -96q-42 -20 -84 -28q-42 -8 -97 -8q-98 0 -180.5 28q-82.5 28 -142.5 83q-60 55 -94 136.5q-34 81.5 -34 188.5q0 109 39 197q39 88 105 150q66 62 153 95.5q87 33.5 184 33.5q92 0 171 -26.5q79 -26.5 137 -76q58 -49.5 91 -121q33 -71.5 33 -162.5q0 -64 -23 -120q-23 -56 -62 -97q-39 -41 -91.5 -65q-52.5 -24 -112.5 -24q-25 0 -46.5 5.5q-21.5 5.5 -36.5 18.5q-15 13 -22 34q-7 21 -4 52l-4 0q-15 -21 -32 -41q-17 -20 -38 -35.5q-21 -15.5 -46 -24.5q-25 -9 -55 -9q-25 0 -46.5 10.5q-21.5 10.5 -37.5 29.5q-16 19 -25.5 46q-9.5 27 -9.5 60q0 62 20 120.5q20 58.5 54 103.5q34 45 79.5 72.5q45.5 27.5 96.5 27.5q35 0 59 -10.5q24 -10.5 45 -27.5zM643 363q-14 11 -28 17.5q-14 6.5 -34 6.5q-30 0 -55.5 -17.5q-25.5 -17.5 -44 -44.5q-18.5 -27 -29 -60.5q-10.5 -33.5 -10.5 -65.5q0 -33 14 -54.5q14 -21.5 47 -21.5q14 0 30 8.5q16 8.5 31 23q15 14.5 28.5 32.5q13.5 18 24.5 38z" />
<glyph unicode="&#65;" horiz-adv-x="582" d="M387 155h-204l-83 -155h-138l389 705h96l91 -705h-131zM240 265h142l-16 156l1 110h-5l-40 -111z" />
<glyph unicode="&#66;" horiz-adv-x="568" d="M166 695q19 3 43 6q24 3 51 5q27 2 55.5 3q28.5 1 55.5 1q46 0 85.5 -9.5q39.5 -9.5 68 -29.5q28.5 -20 45 -51.5q16.5 -31.5 16.5 -75.5q0 -33 -11 -63.5q-11 -30.5 -31.5 -54.5q-20.5 -24 -49 -40q-28.5 -16 -64.5 -21l0 -5q19 -4 38 -14.5q19 -10.5 34 -27q15 -16.5 24 -39q9 -22.5 9 -50.5q0 -64 -25 -109.5q-25 -45.5 -67 -74q-42 -28.5 -98 -42q-56 -13.5 -118 -13.5q-16 0 -41.5 0q-25.5 0 -54.5 1.5q-29 1.5 -58 4.5q-29 3 -53 9zM167 109q4 -2 14.5 -3q10.5 -1 23 -1.5q12.5 -0.5 25.5 -1q13 -0.5 22 -0.5q25 0 51.5 6q26.5 6 48 20q21.5 14 35.5 36q14 22 14 54q0 25 -11 41q-11 16 -29 25.5q-18 9.5 -41.5 13q-23.5 3.5 -48.5 3.5h-64zM230 406h43q14 0 33 0.5q19 0.5 32 2.5q18 3 38.5 10q20.5 7 37 20q16.5 13 27.5 33q11 20 11 50q0 43 -28.5 59q-28.5 16 -72.5 16q-26 0 -48 -1q-22 -1 -34 -3z" />
<glyph unicode="&#67;" horiz-adv-x="537" d="M483 29q-67 -43 -164 -43q-66 0 -115 22q-49 22 -81.5 61q-32.5 39 -48.5 91q-16 52 -16 112q0 118 33 201.5q33 83.5 87 137q54 53.5 123.5 78.5q69.5 25 142.5 25q57 0 97.5 -8.5q40.5 -8.5 63.5 -19.5l-51 -116q-20 11 -48 16.5q-28 5.5 -71 5.5q-51 0 -95 -21q-44 -21 -76 -60q-32 -39 -50.5 -95q-18.5 -56 -18.5 -127q0 -85 42.5 -133q42.5 -48 113.5 -48q45 0 74.5 9.5q29.5 9.5 55.5 23.5z" />
<glyph unicode="&#68;" horiz-adv-x="620" d="M168 700q21 3 46 5q25 2 46.5 3q21.5 1 37.5 1q9 0 25.5 0.5q16.5 0.5 36.5 0.5q61 0 111 -15.5q50 -15.5 85.5 -47.5q35.5 -32 55 -82q19.5 -50 19.5 -119q0 -44 -7.5 -94.5q-7.5 -50.5 -25.5 -101.5q-18 -51 -49.5 -98q-31.5 -47 -79 -83q-47.5 -36 -114 -58q-66.5 -22 -154.5 -22q-15 0 -30 0.5q-15 0.5 -21 0.5q-20 1 -44.5 2.5q-24.5 1.5 -49 3q-24.5 1.5 -36.5 3.5zM174 114q4 -1 12.5 -1.5q8.5 -0.5 18.5 -1q10 -0.5 19 -0.5q9 0 14 0q70 0 119 31.5q49 31.5 79.5 79q30.5 47.5 44 103q13.5 55.5 13.5 103.5q0 80 -33.5 120q-33.5 40 -111.5 40q-20 0 -42 -1q-22 -1 -34 -3z" />
<glyph unicode="&#69;" horiz-adv-x="503" d="M168 700h130h264l-26 -122h-264l-35 -163h241l-27 -122h-239l-37 -171h269l-25 -122h-269l-130 0z" />
<glyph unicode="&#70;" horiz-adv-x="489" d="M168 700h130h264l-26 -122h-264l-37 -173h243l-25 -122h-243l-60 -283l-130 0z" />
<glyph unicode="&#71;" horiz-adv-x="585" d="M369 365h210l-66 -312q-45 -35 -94.5 -51q-49.5 -16 -106.5 -16q-55 0 -101.5 19q-46.5 19 -80.5 55q-34 36 -53 89q-19 53 -19 121q0 115 31.5 199q31.5 84 85.5 138.5q54 54.5 126 80.5q72 26 152 26q57 0 101.5 -9.5q44.5 -9.5 67.5 -19.5l-52 -115q-21 10 -52.5 16q-31.5 6 -76.5 6q-53 0 -98 -20q-45 -20 -78 -59q-33 -39 -51.5 -96.5q-18.5 -57.5 -18.5 -131.5q0 -83 39 -130q39 -47 105 -47q49 0 86 25l28 133l-102 16z" />
<glyph unicode="&#72;" horiz-adv-x="624" d="M455 293h-243l-62 -293h-130l148 700h130l-60 -285h243l60 285h130l-148 -700l-130 0z" />
<glyph unicode="&#73;" horiz-adv-x="278" d="M183 700h129l-148 -700l-129 0z" />
<glyph unicode="&#74;" horiz-adv-x="324" d="M239 700h130l-109 -512q-9 -42 -23 -78.5q-14 -36.5 -37 -63.5q-23 -27 -57.5 -42.5q-34.5 -15.5 -83.5 -15.5q-28 0 -59 6q-31 6 -51 17l50 112q23 -13 54 -13q21 0 35 8.5q14 8.5 23.5 23.5q9.5 15 15.5 35.5q6 20.5 12 45.5z" />
<glyph unicode="&#75;" horiz-adv-x="593" d="M260 299h-47l-63 -299h-130l148 700h130l-66 -310l31 11l237 299h156l-252 -297l-60 -35l44 -39l152 -329l-145 0z" />
<glyph unicode="&#76;" horiz-adv-x="495" d="M441 0h-291h-130l148 700h130l-123 -578l291 0z" />
<glyph unicode="&#77;" horiz-adv-x="767" d="M613 363l44 138h-6l-66 -113l-197 -259h-41l-94 262l-18 110h-5l-10 -137l-77 -364h-123l148 700h115l105 -320l13 -80h5l46 82l236 318h125l-148 -700l-129 0z" />
<glyph unicode="&#78;" horiz-adv-x="631" d="M267 366l-33 112h-5l-9 -112l-77 -366h-123l150 705h90l172 -374l31 -109h6l7 109l79 369h123l-150 -705l-90 0z" />
<glyph unicode="&#79;" horiz-adv-x="644" d="M58 262q0 93 25.5 175.5q25.5 82.5 72.5 144q47 61.5 113.5 97q66.5 35.5 148.5 35.5q54 0 97.5 -16q43.5 -16 74 -49.5q30.5 -33.5 47.5 -84.5q17 -51 17 -121q0 -94 -25.5 -177q-25.5 -83 -72 -145.5q-46.5 -62.5 -111 -98.5q-64.5 -36 -142.5 -36q-118 0 -181 69.5q-63 69.5 -64 206.5zt0 0zM195 266q0 -72 27.5 -115q27.5 -43 90.5 -43q46 0 83.5 27.5q37.5 27.5 64.5 74q27 46.5 41.5 106.5q14.5 60 14.5 125q0 79 -31 115q-31 36 -85 36q-45 0 -82.5 -26q-37.5 -26 -65 -70.5q-27.5 -44.5 -43 -104t-15.5 -125.5z" />
<glyph unicode="&#80;" horiz-adv-x="550" d="M167 693q42 8 89.5 12.5q47.5 4.5 95.5 4.5q51 0 94.5 -11.5q43.5 -11.5 76 -35.5q32.5 -24 50.5 -61.5q18 -37.5 18 -89.5q0 -78 -27 -130.5q-27 -52.5 -71.5 -85q-44.5 -32.5 -101.5 -46q-57 -13.5 -116 -13.5q-5 0 -15.5 0q-10.5 0 -22 0.5q-11.5 0.5 -22 1.5q-10.5 1 -15.5 2l-50 -241h-130zM226 359q4 -1 11 -2q7 -1 15.5 -1.5q8.5 -0.5 16 -0.5q7.5 0 11.5 0q34 0 65.5 7.5q31.5 7.5 55.5 24q24 16.5 38.5 43.5q14.5 27 14.5 66q0 29 -9.5 48q-9.5 19 -25.5 29.5q-16 10.5 -37.5 14.5q-21.5 4 -45.5 4q-18 0 -34.5 -1.5q-16.5 -1.5 -27.5 -3.5z" />
<glyph unicode="&#81;" horiz-adv-x="644" d="M58 262q0 93 25.5 175.5q25.5 82.5 72.5 144q47 61.5 113.5 97q66.5 35.5 148.5 35.5q54 0 97.5 -16q43.5 -16 74 -49.5q30.5 -33.5 47.5 -84.5q17 -51 17 -121q0 -94 -25.5 -177q-25.5 -83 -72 -145.5q-46.5 -62.5 -111 -98.5q-64.5 -36 -142.5 -36q-118 0 -181 69.5q-63 69.5 -64 206.5zt0 0zM195 266q0 -72 27.5 -115q27.5 -43 90.5 -43q46 0 83.5 27.5q37.5 27.5 64.5 74q27 46.5 41.5 106.5q14.5 60 14.5 125q0 79 -31 115q-31 36 -85 36q-45 0 -82.5 -26q-37.5 -26 -65 -70.5q-27.5 -44.5 -43 -104q-15.5 -59.5 -15.5 -125.5zt0 0zM627 -202q-48 -13 -95 -13q-48 0 -92 10.5q-44 10.5 -84.5 22.5q-40.5 12 -77.5 22.5q-37 10.5 -73 10.5q-23 0 -45 -6l25 118q28 6 56 6q40 0 77.5 -10q37.5 -10 76 -21.5q38.5 -11.5 79.5 -21.5q41 -10 88 -10q21 0 43.5 2.5q22.5 2.5 46.5 8.5z" />
<glyph unicode="&#82;" horiz-adv-x="584" d="M167 693q48 9 97 13q49 4 88 4q46 0 87 -11q41 -11 71 -33.5q30 -22.5 47.5 -58q17.5 -35.5 17.5 -83.5q0 -55 -16.5 -95.5q-16.5 -40.5 -43.5 -68q-27 -27.5 -61.5 -43q-34.5 -15.5 -70.5 -20.5l39 -31l97 -266h-144l-96 274l-69 13l-60 -287h-130zM230 380h53q29 0 57 5.5q28 5.5 49.5 20q21.5 14.5 35 38.5q13.5 24 13.5 61q0 34 -23 58.5q-23 24.5 -74 24.5q-20 0 -37.5 -1.5q-17.5 -1.5 -29.5 -3.5z" />
<glyph unicode="&#83;" horiz-adv-x="510" d="M502 559q-19 12 -56 24.5q-37 12.5 -82 12.5q-23 0 -45 -4.5q-22 -4.5 -39 -14.5q-17 -10 -27 -26q-10 -16 -10 -38q0 -29 18 -49q18 -20 45.5 -37.5q27.5 -17.5 59 -35.5q31.5 -18 59 -42q27.5 -24 45.5 -57.5q18 -33.5 18 -82.5q0 -59 -20.5 -101.5q-20.5 -42.5 -58 -69.5q-37.5 -27 -90 -39.5q-52.5 -12.5 -116.5 -12.5q-35 0 -66.5 4q-31.5 4 -58.5 10q-27 6 -47.5 13.5q-20.5 7.5 -32.5 14.5l67 116q10 -6 26 -13q16 -7 36.5 -13q20.5 -6 44.5 -10q24 -4 48 -4q28 0 53 4.5q25 4.5 43.5 15q18.5 10.5 29 26.5q10.5 16 10.5 40q0 27 -18 46q-18 19 -45.5 36q-27.5 17 -59 35.5q-31.5 18.5 -59 43.5q-27.5 25 -45.5 60.5q-18 35.5 -18 86.5q0 58 20.5 99q20.5 41 55.5 67q35 26 82 38q47 12 101 12q29 0 58 -3q29 -3 55 -8.5q26 -5.5 48 -13q22 -7.5 37 -16.5z" />
<glyph unicode="&#84;" horiz-adv-x="547" d="M614 578h-194l-123 -578h-129l122 578h-194l26 122l517 0z" />
<glyph unicode="&#85;" horiz-adv-x="602" d="M531 700h122l-95 -452q-15 -72 -39 -121.5q-24 -49.5 -58 -80.5q-34 -31 -80 -44.5q-46 -13.5 -106 -13.5q-58 0 -98 13.5q-40 13.5 -65.5 38.5q-25.5 25 -37 59q-11.5 34 -11.5 75q0 20 2.5 41q2.5 21 7.5 44l94 441h129l-92 -440q-8 -38 -8 -62q0 -48 25 -68q25 -20 73 -20q60 0 93 35q33 35 50 113z" />
<glyph unicode="&#86;" horiz-adv-x="579" d="M288 290l-7 -119h4l44 119l216 410h146l-395 -705h-94l-101 705l142 0z" />
<glyph unicode="&#87;" horiz-adv-x="826" d="M249 310l-14 -124h5l39 126l198 388h88l29 -390l-13 -124h5l40 126l164 388h140l-333 -705h-91l-37 389l8 107h-6l-38 -108l-199 -388h-91l-34 705l137 0z" />
<glyph unicode="&#88;" horiz-adv-x="608" d="M256 357l-113 343h141l60 -202l10 -71l37 71l149 202h156l-263 -338l125 -362h-139l-72 216l-12 74l-40 -74l-161 -216l-158 0z" />
<glyph unicode="&#89;" horiz-adv-x="569" d="M231 260l-125 440h144l65 -263l-2 -74h4l31 76l175 261h149l-311 -439l-55 -261l-129 0z" />
<glyph unicode="&#90;" horiz-adv-x="518" d="M15 122l360 416l58 40h-321l25 122h461l-25 -122l-362 -419l-56 -37h321l-26 -122l-461 0z" />
<glyph unicode="&#91;" horiz-adv-x="314" d="M198 700h223l-22 -109h-105l-151 -711h105l-24 -110l-222 0z" />
<glyph unicode="&#92;" horiz-adv-x="424" d="M472 -95l-101 -45l-335 808l103 43z" />
<glyph unicode="&#93;" horiz-adv-x="314" d="M145 -230h-223l24 110h105l150 711h-105l22 109l224 0z" />
<glyph unicode="&#94;" horiz-adv-x="505" d="M266 705h70l185 -292h-131l-71 122l-22 70l-25 -71l-77 -121l-125 0z" />
<glyph unicode="&#95;" horiz-adv-x="444" d="M-46 -117h444v-107l-444 0z" />
<glyph unicode="&#96;" horiz-adv-x="274" d="M305 566h-69l-91 124l7 30l129 0z" />
<glyph unicode="&#97;" horiz-adv-x="503" d="M444 200q-8 -38 -11.5 -77q-3.5 -39 -3.5 -74q0 -14 0.5 -26.5q0.5 -12.5 1.5 -23.5l-91 0l-14 86h-4q-11 -18 -28.5 -35.5q-17.5 -17.5 -38.5 -32q-21 -14.5 -44.5 -23q-23.5 -8.5 -48.5 -8.5q-66 0 -97.5 43q-31.5 43 -31.5 115q0 73 18.5 140q18.5 67 57.5 118q39 51 98.5 81.5q59.5 30.5 141.5 30.5q35 0 76.5 -6.5q41.5 -6.5 80.5 -17.5zM209 89q18 0 34 7.5q16 7.5 29.5 19.5q13.5 12 24 26q10.5 14 18.5 26l50 233q-11 5 -25.5 7.5q-14.5 2.5 -28.5 2.5q-36 0 -64 -21.5q-28 -21.5 -47.5 -56q-19.5 -34.5 -29.5 -78q-10 -43.5 -10 -87.5q0 -32 10.5 -55.5t38.5 -23.5z" />
<glyph unicode="&#98;" horiz-adv-x="512" d="M164 700h123l-62 -288h4q13 18 30 35.5q17 17.5 37.5 32q20.5 14.5 44.5 23.5q24 9 53 9q54 0 81 -38q27 -38 27 -101q0 -95 -26.5 -167q-26.5 -72 -69.5 -120.5q-43 -48.5 -97 -73q-54 -24.5 -109 -24.5q-61 0 -107.5 11.5q-46.5 11.5 -70.5 28.5zM160 105q11 -8 27 -11q16 -3 35 -3q25 0 52 16.5q27 16.5 49.5 48.5q22.5 32 37 78.5q14.5 46.5 14.5 105.5q0 69 -40 69q-20 0 -39.5 -11q-19.5 -11 -37.5 -27.5q-18 -16.5 -32.5 -35.5q-14.5 -19 -23.5 -36z" />
<glyph unicode="&#99;" horiz-adv-x="412" d="M393 387q-19 11 -39.5 15q-20.5 4 -44.5 4q-27 0 -52.5 -17.5q-25.5 -17.5 -46 -46q-20.5 -28.5 -32.5 -66.5q-12 -38 -12 -78q0 -51 22 -77.5q22 -26.5 58 -26.5q30 0 55.5 9.5q25.5 9.5 45.5 21.5l23 -84q-32 -24 -74.5 -39.5q-42.5 -15.5 -84.5 -15.5q-48 0 -81.5 14q-33.5 14 -54.5 38q-21 24 -31 55q-10 31 -10 65q0 84 24 150q24 66 63.5 111.5q39.5 45.5 90 70q50.5 24.5 103.5 24.5q47 0 74.5 -9q27.5 -9 49.5 -20z" />
<glyph unicode="&#100;" horiz-adv-x="507" d="M442 176q-9 -42 -13 -78q-4 -36 -4 -68q0 -8 0 -15.5q0 -7.5 1 -15.5l-84 0l-14 86h-4q-11 -18 -28.5 -35.5q-17.5 -17.5 -38.5 -32q-21 -14.5 -44.5 -23q-23.5 -8.5 -46.5 -8.5q-62 0 -95.5 44q-33.5 44 -33.5 121q0 70 19 135q19 65 53.5 115.5q34.5 50.5 84 80.5q49.5 30 109.5 30q29 0 48 -3.5q19 -3.5 36 -11.5l43 203h123zM365 394q-12 8 -27.5 11.5q-15.5 3.5 -41.5 3.5q-30 0 -54.5 -20.5q-24.5 -20.5 -41.5 -55q-17 -34.5 -26.5 -79.5q-9.5 -45 -9.5 -94q0 -29 13 -50q13 -21 37 -21q15 0 30.5 7.5q15.5 7.5 29 19.5q13.5 12 25 26q11.5 14 18.5 26z" />
<glyph unicode="&#101;" horiz-adv-x="466" d="M402 48q-31 -26 -80 -44q-49 -18 -114 -18q-81 0 -127.5 47.5q-46.5 47.5 -46.5 132.5q0 80 25 144.5q25 64.5 65.5 109.5q40.5 45 91.5 69.5q51 24.5 102 24.5q41 0 70.5 -10.5q29.5 -10.5 48.5 -29q19 -18.5 28 -42.5q9 -24 9 -51q0 -41 -21 -72q-21 -31 -58.5 -51.5q-37.5 -20.5 -90.5 -31q-53 -10.5 -116 -10.5q-8 0 -15 0.5q-7 0.5 -15 0.5q-2 -12 -3 -21.5q-1 -9.5 -1 -17.5q0 -45 23.5 -67q23.5 -22 66.5 -22q44 0 79 13q35 13 53 26zM176 295q28 0 59.5 2q31.5 2 58.5 9.5q27 7.5 45 22q18 14.5 18 39.5q0 15 -11 30.5q-11 15.5 -46 15.5q-44 0 -76.5 -34t-47.5 -85z" />
<glyph unicode="&#102;" horiz-adv-x="294" d="M246 397l-74 -431q-6 -37 -17 -68.5q-11 -31.5 -30.5 -55q-19.5 -23.5 -49.5 -37q-30 -13.5 -74 -13.5q-36 0 -70.5 5.5q-34.5 5.5 -59.5 22.5l34 91q17 -7 34 -9q17 -2 43 -2q32 0 49.5 25.5q17.5 25.5 26.5 82.5l63 389h-70l22 103h64l13 67q7 37 18 64.5q11 27.5 29.5 46q18.5 18.5 45 27.5q26.5 9 65.5 9q16 0 36.5 -1.5q20.5 -1.5 40.5 -5q20 -3.5 39 -8.5q19 -5 34 -12l-29 -91q-23 9 -47 12q-24 3 -47 3q-32 0 -46.5 -19q-14.5 -19 -20.5 -59l-6 -33h100l-20 -103z" />
<glyph unicode="&#103;" horiz-adv-x="505" d="M407 0q-13 -59 -35 -99.5q-22 -40.5 -52.5 -65.5q-30.5 -25 -70 -36q-39.5 -11 -87.5 -11q-35 0 -62.5 5q-27.5 5 -48.5 12q-21 7 -36.5 14.5q-15.5 7.5 -24.5 13.5l46 91q9 -4 21 -9.5q12 -5.5 27.5 -11q15.5 -5.5 36 -9q20.5 -3.5 47.5 -3.5q50 0 79.5 31q29.5 31 42.5 85l19 78h-4q-23 -36 -62.5 -64.5q-39.5 -28.5 -89.5 -28.5q-54 0 -87.5 40.5q-33.5 40.5 -33.5 108.5q0 77 22 144.5q22 67.5 61.5 118q39.5 50.5 93.5 79.5q54 29 119 29q61 0 106.5 -10.5q45.5 -10.5 73.5 -23.5zM371 399q-11 6 -28 8q-17 2 -34 2q-32 0 -59.5 -19q-27.5 -19 -47.5 -52q-20 -33 -31.5 -77.5q-11.5 -44.5 -11.5 -95.5q0 -32 13.5 -51q13.5 -19 35.5 -19q17 0 35 10.5q18 10.5 34.5 26.5q16.5 16 29.5 35.5q13 19.5 21 36.5z" />
<glyph unicode="&#104;" horiz-adv-x="528" d="M309 0l60 284q10 44 10 73q0 26 -10 37.5q-10 11.5 -31 11.5q-19 0 -40 -12q-21 -12 -40 -30q-19 -18 -34.5 -38.5q-15.5 -20.5 -23.5 -37.5l-59 -288h-123l148 700h123l-63 -288h4q13 16 31.5 34q18.5 18 41 33q22.5 15 49 25q26.5 10 57.5 10q48 0 74.5 -24q26.5 -24 26.5 -85q0 -37 -12 -94l-66 -311z" />
<glyph unicode="&#105;" horiz-adv-x="256" d="M133 500h123l-106 -500h-123zM151 642q0 33 21.5 51q21.5 18 54.5 18q32 0 54.5 -18q22.5 -18 22.5 -51q0 -32 -22.5 -50.5q-22.5 -18.5 -54.5 -18.5q-33 0 -54.5 18.5t-21.5 50.5z" />
<glyph unicode="&#106;" horiz-adv-x="244" d="M123 500h124l-111 -521q-19 -90 -64 -137.5q-45 -47.5 -122 -47.5q-31 0 -62 7l24 106q25 -2 43 4.5q18 6.5 30.5 20.5q12.5 14 21 35.5q8.5 21.5 14.5 48.5zM140 642q0 33 21.5 51q21.5 18 54.5 18q32 0 54.5 -18q22.5 -18 22.5 -51q0 -32 -22.5 -50.5q-22.5 -18.5 -54.5 -18.5q-33 0 -54.5 18.5t-21.5 50.5z" />
<glyph unicode="&#107;" horiz-adv-x="465" d="M224 207h-40l-43 -207h-123l148 700h123l-88 -413l37 13l141 200h137l-149 -201l-60 -38l45 -38l76 -223l-132 0z" />
<glyph unicode="&#108;" horiz-adv-x="272" d="M168 148q-6 -29 0.5 -43q6.5 -14 21.5 -14q28 0 53 11l-3 -89q-18 -11 -52 -18q-34 -7 -67 -7q-43 0 -65.5 16.5q-22.5 16.5 -22.5 61.5q0 23 6 53l123 581l123 0z" />
<glyph unicode="&#109;" horiz-adv-x="767" d="M283 0l57 272q6 28 9.5 49.5q3.5 21.5 3.5 38.5q0 46 -35 46q-17 0 -34 -9q-17 -9 -31.5 -23q-14.5 -14 -27 -30.5q-12.5 -16.5 -20.5 -31.5l-64 -312h-123l106 500h96l-6 -88h4q15 16 32.5 34q17.5 18 39.5 33q22 15 49 25q27 10 59 10q40 0 60.5 -29q20.5 -29 18.5 -77q15 19 34.5 38q19.5 19 42 34q22.5 15 48 24.5q25.5 9.5 52.5 9.5q46 0 70.5 -21.5q24.5 -21.5 24.5 -80.5q0 -43 -15 -112l-63 -300h-123l59 281q5 23 8 43q3 20 3 35q0 23 -8.5 35q-8.5 12 -28.5 12q-16 0 -32.5 -9.5q-16.5 -9.5 -31.5 -24q-15 -14.5 -27.5 -31.5q-12.5 -17 -19.5 -32l-64 -309z" />
<glyph unicode="&#110;" horiz-adv-x="521" d="M299 0l66 310q6 28 6 49q0 22 -9 34.5q-9 12.5 -33 12.5q-18 0 -36 -9q-18 -9 -34 -24q-16 -15 -30 -33.5q-14 -18.5 -24 -37.5l-64 -302h-123l106 500h93l-5 -88h4q13 16 30.5 34q17.5 18 40.5 33q23 15 51.5 25q28.5 10 64.5 10q45 0 72 -24.5q27 -24.5 27 -81.5q0 -15 -1.5 -32q-1.5 -17 -6.5 -37l-72 -339z" />
<glyph unicode="&#111;" horiz-adv-x="496" d="M34 162q0 79 22.5 144q22.5 65 60 111q37.5 46 87 71.5q49.5 25.5 103.5 25.5q48 0 81 -15q33 -15 53.5 -40q20.5 -25 29.5 -57q9 -32 9 -66q0 -78 -22 -142.5q-22 -64.5 -59 -110.5q-37 -46 -86 -71.5q-49 -25.5 -103 -25.5q-47 0 -80 15.5q-33 15.5 -54.5 40.5q-21.5 25 -31.5 56.5q-10 31.5 -10 63.5zt0 0zM161 179q0 -90 65 -90q24 0 47 21q23 21 41 55q18 34 28.5 77q10.5 43 10.5 86q0 40 -13.5 61.5q-13.5 21.5 -50.5 21.5q-24 0 -47 -20q-23 -20 -41 -52.5q-18 -32.5 -29 -74.5t-11 -85z" />
<glyph unicode="&#112;" horiz-adv-x="506" d="M122 500h91l-5 -88h4q14 19 32 37.5q18 18.5 40 32.5q22 14 47 23q25 9 54 9q51 0 82 -35q31 -35 31 -110q0 -85 -22.5 -155.5q-22.5 -70.5 -60 -121q-37.5 -50.5 -88 -78.5q-50.5 -28 -105.5 -28q-26 0 -49 5q-23 5 -34 13l-43 -204h-122zM160 106q25 -17 56 -17q31 0 59 21q28 21 49.5 56q21.5 35 34 81.5q12.5 46.5 12.5 97.5q0 29 -13.5 47.5q-13.5 18.5 -36.5 18.5q-18 0 -35 -9q-17 -9 -32 -22.5q-15 -13.5 -27 -30.5q-12 -17 -21 -33z" />
<glyph unicode="&#113;" horiz-adv-x="501" d="M356 -200h-120l61 278h-4q-10 -17 -24.5 -33q-14.5 -16 -33 -29.5q-18.5 -13.5 -40.5 -21.5q-22 -8 -47 -8q-33 0 -55.5 12.5q-22.5 12.5 -36.5 34q-14 21.5 -20.5 49q-6.5 27.5 -6.5 57.5q0 76 24.5 144q24.5 68 67 119q42.5 51 99 80.5q56.5 29.5 119.5 29.5q48 0 93.5 -10.5q45.5 -10.5 70.5 -24.5zM364 399q-14 6 -29 8q-15 2 -30 2q-30 0 -57.5 -21.5q-27.5 -21.5 -47.5 -57q-20 -35.5 -32 -81.5q-12 -46 -12 -94q0 -31 11.5 -48.5q11.5 -17.5 31.5 -17.5q19 0 38 11.5q19 11.5 35.5 29q16.5 17.5 30 38q13.5 20.5 21.5 38.5z" />
<glyph unicode="&#114;" horiz-adv-x="343" d="M215 500l1 -88h4q22 40 53.5 68q31.5 28 79.5 28q21 0 50 -8l-31 -107q-10 3 -19 5q-9 2 -19 2q-41 0 -75.5 -26.5q-34.5 -26.5 -52.5 -61.5l-65 -312h-123l106 500z" />
<glyph unicode="&#115;" horiz-adv-x="396" d="M38 117q20 -11 51.5 -19.5q31.5 -8.5 66.5 -8.5q35 0 53.5 13.5q18.5 13.5 19.5 41.5q0 20 -12 34.5q-12 14.5 -30.5 27.5q-18.5 13 -39.5 26.5q-21 13.5 -39.5 31q-18.5 17.5 -30.5 41.5q-12 24 -12 58q0 33 13 61q13 28 36.5 48q23.5 20 57 31q33.5 11 75.5 11q58 0 96 -8.5q38 -8.5 60 -21.5l-34 -94q-20 9 -48.5 15q-28.5 6 -59.5 6q-32 0 -50.5 -11q-18.5 -11 -18.5 -35q0 -16 12 -28.5q12 -12.5 30.5 -25.5q18.5 -13 39.5 -26.5q21 -13.5 39.5 -32.5q18.5 -19 30.5 -43.5q12 -24.5 12 -58.5q0 -83 -54 -123.5q-54 -40.5 -144 -40.5q-51 0 -93.5 9.5q-42.5 9.5 -65.5 23.5z" />
<glyph unicode="&#116;" horiz-adv-x="320" d="M64 500h65l20 94l131 37l-28 -131h117l-23 -103h-116l-49 -226q-6 -27 -6 -44q0 -22 10 -30q10 -8 30 -8q19 0 34.5 4q15.5 4 32.5 13l0 -92q-11 -6 -26.5 -11.5q-15.5 -5.5 -33.5 -9q-18 -3.5 -37 -5.5q-19 -2 -35 -2q-51 0 -78.5 23.5q-27.5 23.5 -27.5 71.5q0 10 1.5 21q1.5 11 3.5 23l58 272l-67 0z" />
<glyph unicode="&#117;" horiz-adv-x="512" d="M241 500l-65 -309q-6 -30 -6 -50q0 -20 8 -31q8 -11 28 -11q17 0 34.5 8.5q17.5 8.5 33.5 22q16 13.5 29.5 30q13.5 16.5 22.5 32.5l64 308h123l-63 -300q-5 -20 -8.5 -47q-3.5 -27 -6.5 -55.5q-3 -28.5 -4 -54.5q-1 -26 0 -43l-99 0l-5 90h-4q-14 -19 -32.5 -37.5q-18.5 -18.5 -41 -33.5q-22.5 -15 -49 -24q-26.5 -9 -56.5 -9q-47 0 -76 23.5q-29 23.5 -29 86.5q0 37 10 81l69 323z" />
<glyph unicode="&#118;" horiz-adv-x="448" d="M209 238l2 -77h3l30 79l137 260h139l-306 -505h-76l-98 505l136 0z" />
<glyph unicode="&#119;" horiz-adv-x="678" d="M445 500l32 -256l-1 -83h5l30 84l116 255h120l-255 -505h-91l-35 280v63h-4l-26 -64l-150 -279h-94l-46 505h126l16 -251l-6 -89h5l34 90l132 250z" />
<glyph unicode="&#120;" horiz-adv-x="496" d="M166 256l-90 244h139l38 -107l13 -70l44 70l87 107h143l-195 -240l100 -260h-136l-48 120l-15 74l-45 -74l-99 -120l-143 0z" />
<glyph unicode="&#121;" horiz-adv-x="452" d="M216 219l1 -78h6l27 79l136 280h131l-240 -449q-30 -56 -56.5 -103q-26.5 -47 -53.5 -81q-27 -34 -56 -53q-29 -19 -62 -19q-44 0 -66 15l33 98q6 -3 12.5 -4q6.5 -1 12.5 -1q24 0 49 23q25 23 50 74l-94 500l141 0z" />
<glyph unicode="&#122;" horiz-adv-x="435" d="M9 108l225 239l71 45h-236l24 108h372l-23 -108l-230 -243l-64 -41h234l-23 -108l-372 0z" />
<glyph unicode="&#123;" horiz-adv-x="356" d="M122 96q11 51 -4.5 70q-15.5 19 -52.5 19l22 100q36 0 60 20.5q24 20.5 33 64.5l44 209q11 54 42 88q31 34 85 34h114l-23 -110h-48q-26 0 -40.5 -14q-14.5 -14 -21.5 -46l-41 -195q-9 -44 -34 -66.5q-25 -22.5 -52 -27.5l-2 -10q25 -4 39.5 -30q14.5 -26 5.5 -68l-41 -194q-7 -32 2 -46q9 -14 36 -14h47l-24 -110h-114q-50 0 -69 31.5q-19 31.5 -6 89.5z" />
<glyph unicode="&#124;" horiz-adv-x="232" d="M94 700h106v-830l-106 0z" />
<glyph unicode="&#125;" horiz-adv-x="356" d="M266 375q-11 -51 5 -70q16 -19 53 -19l-21 -100q-76 0 -94 -85l-45 -209q-11 -54 -43.5 -88q-32.5 -34 -86.5 -34h-110l24 110h48q25 0 39 13.5q14 13.5 21 46.5l42 195q9 44 33.5 66.5q24.5 22.5 52.5 27.5l3 10q-26 4 -41 30q-15 26 -6 68l41 194q7 31 -1.5 45.5q-8.5 14.5 -35.5 14.5h-46l22 110h113q50 0 69.5 -31.5q19.5 -31.5 7.5 -89.5z" />
<glyph unicode="&#126;" horiz-adv-x="505" d="M45 378q47 38 84.5 52.5q37.5 14.5 69.5 14.5q29 0 54 -8.5q25 -8.5 48 -18q23 -9.5 45.5 -18q22.5 -8.5 45.5 -8.5q18 0 37 6q19 6 40 23l47 -103q-36 -27 -66 -38q-30 -11 -56 -11q-28 0 -52 9q-24 9 -46.5 20q-22.5 11 -45.5 20q-23 9 -49 9q-24 0 -51.5 -10.5q-27.5 -10.5 -60.5 -38.5z" />
<glyph unicode="&#160;" horiz-adv-x="253" />
<glyph unicode="&#161;" horiz-adv-x="279" d="M117 -200h-127l69 329l59 162h78l-9 -162zM100 435q0 35 22 55.5q22 20.5 58 20.5q37 0 59 -20.5q22 -20.5 22 -55.5q0 -35 -22 -56q-22 -21 -59 -21q-36 0 -58 21t-22 56z" />
<glyph unicode="&#162;" horiz-adv-x="545" d="M447 41q-21 -17 -51.5 -29.5q-30.5 -12.5 -62.5 -18.5l-19 -93h-115l19 91q-33 7 -57 23q-24 16 -39 38.5q-15 22.5 -22 49.5q-7 27 -7 56q0 75 19 135.5q19 60.5 51.5 105.5q32.5 45 75.5 73q43 28 90 37l19 91h115l-20 -92q46 -9 72 -23l-45 -98q-11 6 -25.5 10q-14.5 4 -30.5 6l-65 -305q22 5 41.5 12q19.5 7 32.5 15zM327 398q-22 -9 -42.5 -27q-20.5 -18 -36 -44q-15.5 -26 -25 -58.5q-9.5 -32.5 -9.5 -70.5q0 -42 14 -65q14 -23 36 -32z" />
<glyph unicode="&#163;" horiz-adv-x="545" d="M113 399h70q-5 20 -9 43.5q-4 23.5 -4 55.5q0 56 21.5 97q21.5 41 57.5 67.5q36 26.5 82 39q46 12.5 95 12.5q45 0 85.5 -9.5q40.5 -9.5 63.5 -25.5l-42 -97q-17 9 -46.5 16.5q-29.5 7.5 -69.5 7.5q-24 0 -46.5 -8.5q-22.5 -8.5 -39 -24.5q-16.5 -16 -26.5 -38q-10 -22 -10 -50q0 -29 4 -48.5q4 -19.5 10 -37.5l140 0l-23 -103h-95q0 -4 0.5 -6.5q0.5 -2.5 0.5 -6.5q0 -50 -21 -91q-21 -41 -46 -63l-47 -30l-1 -6l67 15h218l-24 -108h-448l24 109h2q30 1 57.5 14q27.5 13 48.5 35.5q21 22.5 33.5 52.5q12.5 30 12.5 65q0 5 0 10q0 5 -1 10l-117 0z" />
<glyph unicode="&#164;" horiz-adv-x="545" d="M117 622l78 -77l19 -37q20 15 47.5 22.5q27.5 7.5 57.5 7.5q29 0 57.5 -7.5q28.5 -7.5 47.5 -21.5l20 36l78 77l77 -80l-77 -78l-38 -16q15 -21 21 -47.5q6 -26.5 6 -55.5q0 -30 -6.5 -56.5q-6.5 -26.5 -20.5 -44.5l38 -16l77 -78l-77 -80l-78 77l-18 37q-19 -14 -48.5 -22q-29.5 -8 -58.5 -8q-30 0 -57.5 7.5q-27.5 7.5 -47.5 21.5l-19 -36l-78 -77l-76 80l77 78l36 17q-12 21 -19 45.5q-7 24.5 -7 54.5q0 29 7.5 54q7.5 25 19.5 48l-37 17l-77 78zM237 346q0 -38 23 -62q23 -24 60 -24q37 0 59.5 24q22.5 24 22.5 62q0 36 -22.5 61q-22.5 25 -59.5 25q-37 0 -60 -25t-23 -61z" />
<glyph unicode="&#165;" horiz-adv-x="545" d="M112 337h85l-103 363h152l67 -263l-3 -74h5l30 76l173 261h142l-257 -363h87l-17 -80h-125l-12 -57h125l-17 -80h-125l-25 -120h-130l25 120h-124l17 80h124l12 57l-123 0z" />
<glyph unicode="&#166;" horiz-adv-x="227" d="M60 213h107v-343h-107zM167 357h-107v343l107 0z" />
<glyph unicode="&#167;" horiz-adv-x="505" d="M85 123q20 -11 50.5 -22.5q30.5 -11.5 71.5 -11.5q35 0 56 13.5q21 13.5 21 37.5q0 16 -15.5 27q-15.5 11 -38.5 21q-23 10 -50.5 21.5q-27.5 11.5 -50.5 27.5q-23 16 -38.5 39.5q-15.5 23.5 -15.5 58.5q0 45 24 76.5q24 31.5 56 54.5l48 16q-22 16 -33 38.5q-11 22.5 -12 47.5q0 30 14.5 57q14.5 27 40.5 46.5q26 19.5 62.5 31q36.5 11.5 79.5 11.5q56 0 93 -11.5q37 -11.5 63 -25.5l-37 -95q-20 11 -53.5 20q-33.5 9 -66.5 9q-35 0 -54 -14.5q-19 -14.5 -19 -37.5q0 -17 15.5 -27.5q15.5 -10.5 38.5 -19q23 -8.5 50 -17.5q27 -9 50 -24q23 -15 38.5 -38.5q15.5 -23.5 15.5 -59.5q0 -48 -24.5 -82.5q-24.5 -34.5 -54.5 -55.5l-51 -16q23 -16 34 -36.5q11 -20.5 10 -52.5q-1 -69 -55 -106.5q-54 -37.5 -143 -37.5q-55 0 -97 13.5q-42 13.5 -66 30.5zM297 270q23 12 44 32q21 20 21 48q0 17 -6 28q-6 11 -18 20q-12 9 -31 16.5q-19 7.5 -44 16.5q-22 -12 -41.5 -32q-19.5 -20 -19.5 -48q0 -31 22.5 -48t72.5 -33z" />
<glyph unicode="&#168;" horiz-adv-x="472" d="M163 651q0 33 18.5 51.5q18.5 18.5 47.5 18.5q29 0 47.5 -18.5q18.5 -18.5 18.5 -51.5q0 -32 -18.5 -50q-18.5 -18 -47.5 -18q-29 0 -47.5 18q-18.5 18 -18.5 50zt0 0zM371 652q0 32 18.5 50.5q18.5 18.5 47.5 18.5q29 0 47.5 -18.5q18.5 -18.5 18.5 -50.5q0 -32 -18.5 -50.5q-18.5 -18.5 -47.5 -18.5q-29 0 -47.5 18.5t-18.5 50.5z" />
<glyph unicode="&#169;" horiz-adv-x="836" d="M80 290q0 83 28 149.5q28 66.5 76.5 113.5q48.5 47 114.5 72.5q66 25.5 142 25.5q76 0 141.5 -25.5q65.5 -25.5 114.5 -72.5q49 -47 77 -113.5q28 -66.5 28 -149.5q0 -83 -28 -149.5q-28 -66.5 -77 -113.5q-49 -47 -114.5 -72.5q-65.5 -25.5 -141.5 -25.5q-83 0 -150 25.5q-67 25.5 -114 72.5q-47 47 -72 113.5q-25 66.5 -25 149.5zt0 0zM177 290q0 -62 20 -112q20 -50 55 -84.5q35 -34.5 83.5 -53q48.5 -18.5 105.5 -18.5q57 0 105.5 18.5q48.5 18.5 84 53q35.5 34.5 55 84.5q19.5 50 19.5 112q0 62 -19.5 112q-19.5 50 -55 84.5q-35.5 34.5 -84 53q-48.5 18.5 -105.5 18.5q-57 0 -105.5 -18.5q-48.5 -18.5 -83.5 -53q-35 -34.5 -55 -84.5q-20 -50 -20 -112zt0 0zM566 131q-22 -14 -55.5 -22.5q-33.5 -8.5 -71.5 -8.5q-81 0 -123.5 51q-42.5 51 -42.5 139q0 91 45.5 140.5q45.5 49.5 120.5 49.5q37 0 65.5 -8.5q28.5 -8.5 54.5 -23.5l-32 -86q-18 9 -32.5 12q-14.5 3 -28.5 3q-29 0 -46 -19.5q-17 -19.5 -17 -67.5q0 -42 18 -64.5q18 -22.5 52 -22.5q19 0 34 3.5q15 3.5 30 11.5z" />
<glyph unicode="&#170;" horiz-adv-x="401" d="M121 674q28 14 72 24q44 10 101 10q60 0 84.5 -25q24.5 -25 24.5 -62q0 -25 -7 -56.5q-7 -31.5 -15.5 -64.5q-8.5 -33 -15 -64.5q-6.5 -31.5 -6.5 -55.5l-90 0l-3 46h-3q-14 -17 -41 -33.5q-27 -16.5 -69 -16.5q-23 0 -40.5 7q-17.5 7 -29 19q-11.5 12 -17.5 27.5q-6 15.5 -6 31.5q0 34 15 56.5q15 22.5 40 36.5q25 14 58 20q33 6 69 6q12 0 24 -0.5q12 -0.5 24 -1.5q8 25 -1 40.5q-9 15.5 -42 15.5q-38 0 -64.5 -7q-26.5 -7 -47.5 -15zM277 524q-8 1 -16.5 1.5q-8.5 0.5 -16.5 0.5q-30 0 -51 -9q-21 -9 -21 -33q0 -13 7.5 -21.5q7.5 -8.5 21.5 -8.5q30 0 44.5 11.5q14.5 11.5 24.5 23.5z" />
<glyph unicode="&#171;" horiz-adv-x="465" d="M216 261l192 216l57 -58l-104 -122l-52 -37l33 -37l56 -121l-75 -54zM31 259l200 230l63 -64l-109 -126l-60 -37l39 -39l60 -126l-77 -59z" />
<glyph unicode="&#172;" horiz-adv-x="527" d="M66 412h442v-226h-120v114l-322 0z" />
<glyph unicode="&#173;" horiz-adv-x="343" d="M81 340h239l-25 -104l-239 0z" />
<glyph unicode="&#174;" horiz-adv-x="693" d="M117 451q0 67 22.5 119.5q22.5 52.5 61 88.5q38.5 36 90 55q51.5 19 108.5 19q59 0 110.5 -19q51.5 -19 90 -55q38.5 -36 60.5 -88.5q22 -52.5 22 -119.5q0 -68 -22.5 -120.5q-22.5 -52.5 -61.5 -88.5q-39 -36 -90.5 -54.5q-51.5 -18.5 -108.5 -18.5q-59 0 -110.5 18.5q-51.5 18.5 -89.5 54.5q-38 36 -60 88.5q-22 52.5 -22 120.5zt0 0zM211 451q0 -48 15 -84q15 -36 41 -60q26 -24 60 -36q34 -12 72 -12q40 0 74.5 11.5q34.5 11.5 60 35.5q25.5 24 40 60q14.5 36 14.5 85q0 48 -15 84q-15 36 -41 60q-26 24 -60.5 36q-34.5 12 -72.5 12q-42 0 -76.5 -13q-34.5 -13 -59.5 -38q-25 -25 -38.5 -60.5q-13.5 -35.5 -13.5 -80.5zt0 0zM296 581q16 5 45 7.5q29 2.5 55 2.5q42 0 72 -17.5q30 -17.5 30 -60.5q0 -32 -20.5 -49q-20.5 -17 -50.5 -19l28 -14l65 -109h-61l-63 104l-48 15v-119h-52zM385 546q-11 0 -21 -0.5q-10 -0.5 -16 -3.5l0 -71h34q29 0 45 9q16 9 16 31q0 35 -58 35z" />
<glyph unicode="&#175;" horiz-adv-x="421" d="M157 658h308l-19 -92l-308 0z" />
<glyph unicode="&#176;" horiz-adv-x="437" d="M121 548q0 37 13 67.5q13 30.5 35.5 52.5q22.5 22 52.5 34q30 12 63 12q34 0 64.5 -11q30.5 -11 53 -32.5q22.5 -21.5 35.5 -52.5q13 -31 13 -70q0 -39 -13 -69.5q-13 -30.5 -35.5 -51.5q-22.5 -21 -53 -32q-30.5 -11 -64.5 -11q-33 0 -63 11q-30 11 -52.5 32q-22.5 21 -35.5 51.5q-13 30.5 -13 69.5zt0 0zM221 548q0 -32 19 -50.5q19 -18.5 46 -18.5q27 0 46 18.5q19 18.5 19 50.5q0 32 -19 51.5q-19 19.5 -46 19.5q-27 0 -46 -19.5t-19 -51.5z" />
<glyph unicode="&#177;" horiz-adv-x="505" d="M58 517h162v165h117v-165h162v-112h-162v-106h-117v106h-162zM58 253h441v-112l-441 0z" />
<glyph unicode="&#178;" horiz-adv-x="402" d="M446 707q-1 -60 -37.5 -110q-36.5 -50 -101.5 -98l-50 -25v-4l57 11h101l-22 -101h-297l16 71q29 18 67 44q38 26 71.5 55q33.5 29 56.5 59.5q23 30.5 24 57.5q0 18 -9.5 28q-9.5 10 -35.5 10q-26 0 -51 -9q-25 -9 -44 -19l-14 90q37 21 76.5 30.5q39.5 9.5 73.5 9.5q57 0 88 -26t31 -74z" />
<glyph unicode="&#179;" horiz-adv-x="402" d="M227 468q49 0 70 18.5q21 18.5 20 41.5q0 21 -14 30q-14 9 -63 10l-41 0l8 38l85 81l46 24l-56 -6h-108l21 95h269l-14 -62l-102 -93l-35 -17v-5l27 3q37 -2 61 -26q24 -24 24 -63q0 -42 -15.5 -73q-15.5 -31 -42.5 -51q-27 -20 -64 -30q-37 -10 -80 -10q-36 0 -67.5 6.5q-31.5 6.5 -51.5 17.5l40 90q40 -19 83 -19z" />
<glyph unicode="&#180;" horiz-adv-x="267" d="M210 720h125l-6 -30l-133 -124l-69 0z" />
<glyph unicode="&#181;" horiz-adv-x="542" d="M238 500l-59 -273q-7 -31 -7 -59q0 -35 16 -53.5q16 -18.5 51 -18.5q45 0 76 24q31 24 51 65l68 315h123l-72 -337q-8 -41 -14.5 -82.5q-6.5 -41.5 -5.5 -80.5l-90 0l-17 74h-3q-24 -35 -60.5 -60.5q-36.5 -25.5 -86.5 -25.5q-38 0 -56 17q-18 17 -26 43l-5 0l-4 -115l-28 -133h-123l148 700z" />
<glyph unicode="&#182;" horiz-adv-x="538" d="M399 700h106v-830h-106zM214 294q-33 0 -61 16.5q-28 16.5 -48.5 45q-20.5 28.5 -31.5 65q-11 36.5 -11 77.5q0 40 13 76.5q13 36.5 37 64.5q24 28 58 44.5q34 16.5 76 16.5h74v-830l-106 0z" />
<glyph unicode="&#183;" horiz-adv-x="253" d="M73 316q0 35 22 55.5q22 20.5 58 20.5q37 0 59 -20.5q22 -20.5 22 -55.5q0 -35 -22 -56q-22 -21 -59 -21q-36 0 -58 21t-22 56z" />
<glyph unicode="&#184;" horiz-adv-x="284" d="M112 -43q34 -2 52 -21q18 -19 18 -48q0 -26 -11.5 -45q-11.5 -19 -31 -31.5q-19.5 -12.5 -46 -18.5q-26.5 -6 -56.5 -6q-38 0 -77 9l20 48q51 -5 70 6q19 11 19 25q0 32 -78 30l75 95l79 0z" />
<glyph unicode="&#185;" horiz-adv-x="402" d="M140 480h93l35 164l19 46l-35 -32l-63 -37l-34 73l175 113h82l-70 -327h83l-21 -100l-285 0z" />
<glyph unicode="&#186;" horiz-adv-x="399" d="M60 499q0 54 18.5 94q18.5 40 48.5 66.5q30 26.5 66.5 39.5q36.5 13 72.5 13q66 0 100.5 -30.5q34.5 -30.5 34.5 -89.5q0 -57 -17 -98.5q-17 -41.5 -46 -68.5q-29 -27 -66.5 -40q-37.5 -13 -77.5 -13q-62 0 -98 34.5q-36 34.5 -36 92.5zt0 0zM170 505q-1 -22 10 -35.5q11 -13.5 32 -13.5q33 0 56 34.5q23 34.5 23 88.5q0 49 -43 49q-17 0 -31 -10q-14 -10 -25 -26.5q-11 -16.5 -17 -39t-5 -47.5z" />
<glyph unicode="&#187;" horiz-adv-x="465" d="M280 270l-191 -220l-58 57l104 123l52 37l-35 38l-55 121l76 53zM465 268l-200 -230l-63 63l109 126l57 43l-37 39l-62 124l85 56z" />
<glyph unicode="&#188;" horiz-adv-x="840" d="M618 715l85 -50l-430 -679l-86 53zM766 78h-72l-17 -78h-96l17 78h-196l14 67l265 283h87l-55 -261h72zM635 253l17 53h-5l-31 -49l-60 -66l-41 -32l52 8h50zM230 544l20 46l-36 -32l-63 -36l-37 75l179 110h81l-91 -427l-109 0z" />
<glyph unicode="&#189;" horiz-adv-x="862" d="M619 715l85 -50l-430 -679l-86 53zM824 327q-1 -60 -37.5 -110q-36.5 -50 -101.5 -98l-50 -25v-4l57 11h101l-22 -101h-297l16 71q29 18 67 44q38 26 71.5 55q33.5 29 56.5 59.5q23 30.5 24 57.5q0 18 -9.5 28q-9.5 10 -35.5 10q-26 0 -51 -9q-25 -9 -44 -19l-14 90q37 21 76.5 30.5q39.5 9.5 73.5 9.5q57 0 88 -26q31 -26 31 -74zt0 0zM230 544l20 46l-36 -32l-63 -36l-37 75l179 110h81l-91 -427l-109 0z" />
<glyph unicode="&#190;" horiz-adv-x="864" d="M643 715l85 -50l-430 -679l-86 53zM791 78h-72l-17 -78h-96l17 78h-196l14 67l265 283h87l-55 -261h72zM660 253l17 53h-5l-31 -49l-60 -66l-41 -32l52 8h50zM187 368q49 0 70 18.5q21 18.5 20 41.5q0 21 -14 30q-14 9 -63 10l-41 0l8 38l85 81l46 24l-56 -6h-108l21 95h269l-14 -62l-102 -93l-35 -17v-5l27 3q37 -2 61 -26q24 -24 24 -63q0 -42 -15.5 -73q-15.5 -31 -42.5 -51q-27 -20 -64 -30q-37 -10 -80 -10q-36 0 -67.5 6.5q-31.5 6.5 -51.5 17.5l40 90q40 -19 83 -19z" />
<glyph unicode="&#191;" horiz-adv-x="430" d="M332 293q-6 -53 -24.5 -91.5q-18.5 -38.5 -43 -67q-24.5 -28.5 -52 -50q-27.5 -21.5 -50 -41.5q-22.5 -20 -37.5 -41q-15 -21 -15 -49q0 -27 15.5 -42q15.5 -15 55.5 -15q31 0 68 13.5q37 13.5 66 32.5l30 -94q-41 -26 -89 -43q-48 -17 -117 -17q-84 0 -123 35.5q-39 35.5 -39 95.5q0 53 16 89q16 36 41 63.5q25 27.5 55.5 49.5q30.5 22 58 46q27.5 24 49 53.5q21.5 29.5 29.5 72.5zM213 435q0 35 22 55.5q22 20.5 58 20.5q37 0 59 -20.5q22 -20.5 22 -55.5q0 -35 -22 -56q-22 -21 -59 -21q-36 0 -58 21t-22 56z" />
<glyph unicode="&#192;" horiz-adv-x="582" d="M387 155h-204l-83 -155h-138l389 705h96l91 -705h-131zM240 265h142l-16 156l1 110h-5l-40 -111zM491 752h-90l-131 88l6 30l140 0z" />
<glyph unicode="&#193;" horiz-adv-x="582" d="M387 155h-204l-83 -155h-138l389 705h96l91 -705h-131zM240 265h142l-16 156l1 110h-5l-40 -111zM441 870h157l-6 -30l-172 -88l-104 0z" />
<glyph unicode="&#194;" horiz-adv-x="582" d="M387 155h-204l-83 -155h-138l389 705h96l91 -705h-131zM240 265h142l-16 156l1 110h-5l-40 -111zM388 870h87l101 -93l-8 -39h-88l-45 41l-13 34l-27 -33l-67 -42h-94l9 40z" />
<glyph unicode="&#195;" horiz-adv-x="582" d="M387 155h-204l-83 -155h-138l389 705h96l91 -705h-131zM240 265h142l-16 156l1 110h-5l-40 -111zM240 800q38 35 69 48q31 13 58 13q21 0 40.5 -5.5q19.5 -5.5 38 -12q18.5 -6.5 36 -12q17.5 -5.5 35.5 -5.5q15 0 30 5q15 5 31 19l10 -67q-33 -27 -60 -37q-27 -10 -51 -10q-21 0 -39.5 5.5q-18.5 5.5 -36.5 11.5q-18 6 -35.5 11.5q-17.5 5.5 -36.5 5.5q-18 0 -37.5 -7q-19.5 -7 -42.5 -26z" />
<glyph unicode="&#196;" horiz-adv-x="582" d="M387 155h-204l-83 -155h-138l389 705h96l91 -705h-131zM240 265h142l-16 156l1 110h-5l-40 -111zM246 798q0 29 20 43.5q20 14.5 52 14.5q32 0 52 -14.5q20 -14.5 20 -43.5q0 -29 -20 -43q-20 -14 -52 -14q-32 0 -52 14q-20 14 -20 43zt0 0zM450 798q0 29 20 43.5q20 14.5 52 14.5q32 0 52 -14.5q20 -14.5 20 -43.5q0 -29 -20 -43q-20 -14 -52 -14q-32 0 -52 14t-20 43z" />
<glyph unicode="&#197;" horiz-adv-x="582" d="M286 771q0 18 6 34.5q6 16.5 20.5 29q14.5 12.5 39 19.5q24.5 7 62.5 7q70 0 99 -24q29 -24 29 -66q0 -32 -20.5 -55.5q-20.5 -23.5 -72.5 -29.5l89 -686h-131l-20 155h-204l-83 -155h-138l382 693q-32 11 -45 31q-13 20 -13 47zt0 0zM382 265l-16 156l1 110h-5l-40 -111l-82 -155zM370 771q0 -31 44 -31q25 0 35 8q10 8 10 23q0 33 -45 33q-44 0 -44 -33z" />
<glyph unicode="&#198;" horiz-adv-x="826" d="M449 530l-44 -94l-116 -155h114l52 249zM379 170h-171l-128 -170h-146l547 700h133h271l-26 -122h-264l-35 -163h241l-26 -122h-240l-36 -171h269l-26 -122h-261l-138 0z" />
<glyph unicode="&#199;" horiz-adv-x="537" d="M483 29q-65 -42 -157 -43l-22 -29q34 -2 52 -20.5q18 -18.5 18 -47.5q0 -26 -11.5 -45q-11.5 -19 -31 -31.5q-19.5 -12.5 -46 -18.5q-26.5 -6 -56.5 -6q-38 0 -77 9l20 48q51 -5 70 6q19 11 19 25q0 17 -20 23.5q-20 6.5 -58 5.5l69 88q-49 10 -85.5 35.5q-36.5 25.5 -60.5 62.5q-24 37 -36 83q-12 46 -12 98q0 118 33 201.5q33 83.5 87 137q54 53.5 123.5 78.5q69.5 25 142.5 25q57 0 97.5 -8.5q40.5 -8.5 63.5 -19.5l-51 -116q-20 11 -48 16.5q-28 5.5 -71 5.5q-51 0 -95 -21q-44 -21 -76 -60q-32 -39 -50.5 -95q-18.5 -56 -18.5 -127q0 -85 42.5 -133q42.5 -48 113.5 -48q45 0 74.5 9.5q29.5 9.5 55.5 23.5z" />
<glyph unicode="&#200;" horiz-adv-x="503" d="M168 700h130h264l-26 -122h-264l-35 -163h241l-27 -122h-239l-37 -171h269l-25 -122h-269h-130zM452 752h-90l-131 88l6 30l140 0z" />
<glyph unicode="&#201;" horiz-adv-x="503" d="M168 700h130h264l-26 -122h-264l-35 -163h241l-27 -122h-239l-37 -171h269l-25 -122h-269h-130zM423 870h157l-6 -30l-172 -88l-104 0z" />
<glyph unicode="&#202;" horiz-adv-x="503" d="M168 700h130h264l-26 -122h-264l-35 -163h241l-27 -122h-239l-37 -171h269l-25 -122h-269h-130zM359 870h87l101 -93l-8 -39h-88l-45 41l-13 34l-27 -33l-67 -42h-94l9 40z" />
<glyph unicode="&#203;" horiz-adv-x="503" d="M168 700h130h264l-26 -122h-264l-35 -163h241l-27 -122h-239l-37 -171h269l-25 -122h-269h-130zM210 798q0 29 20 43.5q20 14.5 52 14.5q32 0 52 -14.5q20 -14.5 20 -43.5q0 -29 -20 -43q-20 -14 -52 -14q-32 0 -52 14q-20 14 -20 43zt0 0zM414 798q0 29 20 43.5q20 14.5 52 14.5q32 0 52 -14.5q20 -14.5 20 -43.5q0 -29 -20 -43q-20 -14 -52 -14q-32 0 -52 14t-20 43z" />
<glyph unicode="&#204;" horiz-adv-x="278" d="M183 700h129l-148 -700h-129zM333 752h-90l-131 88l6 30l140 0z" />
<glyph unicode="&#205;" horiz-adv-x="278" d="M183 700h129l-148 -700h-129zM303 870h157l-6 -30l-172 -88l-104 0z" />
<glyph unicode="&#206;" horiz-adv-x="278" d="M183 700h129l-148 -700h-129zM240 870h87l101 -93l-8 -39h-88l-45 41l-13 34l-27 -33l-67 -42h-94l9 40z" />
<glyph unicode="&#207;" horiz-adv-x="278" d="M183 700h129l-148 -700h-129zM91 798q0 29 20 43.5q20 14.5 52 14.5q32 0 52 -14.5q20 -14.5 20 -43.5q0 -29 -20 -43q-20 -14 -52 -14q-32 0 -52 14q-20 14 -20 43zt0 0zM295 798q0 29 20 43.5q20 14.5 52 14.5q32 0 52 -14.5q20 -14.5 20 -43.5q0 -29 -20 -43q-20 -14 -52 -14q-32 0 -52 14t-20 43z" />
<glyph unicode="&#208;" horiz-adv-x="640" d="M40 401h85l63 299q21 3 46 5q25 2 47.5 3q22.5 1 36.5 1q10 0 26 0.5q16 0.5 35 0.5q62 0 112 -15.5q50 -15.5 85.5 -47.5q35.5 -32 55 -82q19.5 -50 19.5 -119q0 -44 -7.5 -94.5q-7.5 -50.5 -25.5 -101.5q-18 -51 -49.5 -98q-31.5 -47 -79 -83q-47.5 -36 -114 -58q-66.5 -22 -154.5 -22q-15 0 -29 0.5q-14 0.5 -22 0.5q-18 1 -43.5 2.5q-25.5 1.5 -50 3q-24.5 1.5 -36.5 3.5l68 322h-85zM254 401h132l-17 -80h-132l-43 -207q4 -1 12.5 -1.5q8.5 -0.5 18.5 -1q10 -0.5 19 -0.5q9 0 14 0q70 0 119 31.5q49 31.5 79.5 79q30.5 47.5 44 103q13.5 55.5 13.5 103.5q0 80 -33.5 120q-33.5 40 -112.5 40q-19 0 -41 -1q-22 -1 -34 -3z" />
<glyph unicode="&#209;" horiz-adv-x="631" d="M267 366l-33 112h-5l-9 -112l-77 -366h-123l150 705h90l172 -374l31 -109h6l7 109l79 369h123l-150 -705h-90zM259 800q38 35 69 48q31 13 58 13q21 0 40.5 -5.5q19.5 -5.5 38 -12q18.5 -6.5 36 -12q17.5 -5.5 35.5 -5.5q15 0 30 5q15 5 31 19l10 -67q-33 -27 -60 -37q-27 -10 -51 -10q-21 0 -39.5 5.5q-18.5 5.5 -36.5 11.5q-18 6 -35.5 11.5q-17.5 5.5 -36.5 5.5q-18 0 -37.5 -7q-19.5 -7 -42.5 -26z" />
<glyph unicode="&#210;" horiz-adv-x="644" d="M58 262q0 93 25.5 175.5q25.5 82.5 72.5 144q47 61.5 113.5 97q66.5 35.5 148.5 35.5q54 0 97.5 -16q43.5 -16 74 -49.5q30.5 -33.5 47.5 -84.5q17 -51 17 -121q0 -94 -25.5 -177q-25.5 -83 -72 -145.5q-46.5 -62.5 -111 -98.5q-64.5 -36 -142.5 -36q-118 0 -181 69.5q-63 69.5 -64 206.5zt0 0zM195 266q0 -72 27.5 -115q27.5 -43 90.5 -43q46 0 83.5 27.5q37.5 27.5 64.5 74q27 46.5 41.5 106.5q14.5 60 14.5 125q0 79 -31 115q-31 36 -85 36q-45 0 -82.5 -26q-37.5 -26 -65 -70.5q-27.5 -44.5 -43 -104q-15.5 -59.5 -15.5 -125.5zt0 0zM511 752h-90l-131 88l6 30l140 0z" />
<glyph unicode="&#211;" horiz-adv-x="644" d="M58 262q0 93 25.5 175.5q25.5 82.5 72.5 144q47 61.5 113.5 97q66.5 35.5 148.5 35.5q54 0 97.5 -16q43.5 -16 74 -49.5q30.5 -33.5 47.5 -84.5q17 -51 17 -121q0 -94 -25.5 -177q-25.5 -83 -72 -145.5q-46.5 -62.5 -111 -98.5q-64.5 -36 -142.5 -36q-118 0 -181 69.5q-63 69.5 -64 206.5zt0 0zM195 266q0 -72 27.5 -115q27.5 -43 90.5 -43q46 0 83.5 27.5q37.5 27.5 64.5 74q27 46.5 41.5 106.5q14.5 60 14.5 125q0 79 -31 115q-31 36 -85 36q-45 0 -82.5 -26q-37.5 -26 -65 -70.5q-27.5 -44.5 -43 -104q-15.5 -59.5 -15.5 -125.5zt0 0zM491 870h157l-6 -30l-172 -88l-104 0z" />
<glyph unicode="&#212;" horiz-adv-x="644" d="M58 262q0 93 25.5 175.5q25.5 82.5 72.5 144q47 61.5 113.5 97q66.5 35.5 148.5 35.5q54 0 97.5 -16q43.5 -16 74 -49.5q30.5 -33.5 47.5 -84.5q17 -51 17 -121q0 -94 -25.5 -177q-25.5 -83 -72 -145.5q-46.5 -62.5 -111 -98.5q-64.5 -36 -142.5 -36q-118 0 -181 69.5q-63 69.5 -64 206.5zt0 0zM195 266q0 -72 27.5 -115q27.5 -43 90.5 -43q46 0 83.5 27.5q37.5 27.5 64.5 74q27 46.5 41.5 106.5q14.5 60 14.5 125q0 79 -31 115q-31 36 -85 36q-45 0 -82.5 -26q-37.5 -26 -65 -70.5q-27.5 -44.5 -43 -104q-15.5 -59.5 -15.5 -125.5zt0 0zM423 870h87l101 -93l-8 -39h-88l-45 41l-13 34l-27 -33l-67 -42h-94l9 40z" />
<glyph unicode="&#213;" horiz-adv-x="644" d="M58 262q0 93 25.5 175.5q25.5 82.5 72.5 144q47 61.5 113.5 97q66.5 35.5 148.5 35.5q54 0 97.5 -16q43.5 -16 74 -49.5q30.5 -33.5 47.5 -84.5q17 -51 17 -121q0 -94 -25.5 -177q-25.5 -83 -72 -145.5q-46.5 -62.5 -111 -98.5q-64.5 -36 -142.5 -36q-118 0 -181 69.5q-63 69.5 -64 206.5zt0 0zM195 266q0 -72 27.5 -115q27.5 -43 90.5 -43q46 0 83.5 27.5q37.5 27.5 64.5 74q27 46.5 41.5 106.5q14.5 60 14.5 125q0 79 -31 115q-31 36 -85 36q-45 0 -82.5 -26q-37.5 -26 -65 -70.5q-27.5 -44.5 -43 -104q-15.5 -59.5 -15.5 -125.5zt0 0zM268 800q38 35 69 48q31 13 58 13q21 0 40.5 -5.5q19.5 -5.5 38 -12q18.5 -6.5 36 -12q17.5 -5.5 35.5 -5.5q15 0 30 5q15 5 31 19l10 -67q-33 -27 -60 -37q-27 -10 -51 -10q-21 0 -39.5 5.5q-18.5 5.5 -36.5 11.5q-18 6 -35.5 11.5q-17.5 5.5 -36.5 5.5q-18 0 -37.5 -7q-19.5 -7 -42.5 -26z" />
<glyph unicode="&#214;" horiz-adv-x="644" d="M58 262q0 93 25.5 175.5q25.5 82.5 72.5 144q47 61.5 113.5 97q66.5 35.5 148.5 35.5q54 0 97.5 -16q43.5 -16 74 -49.5q30.5 -33.5 47.5 -84.5q17 -51 17 -121q0 -94 -25.5 -177q-25.5 -83 -72 -145.5q-46.5 -62.5 -111 -98.5q-64.5 -36 -142.5 -36q-118 0 -181 69.5q-63 69.5 -64 206.5zt0 0zM195 266q0 -72 27.5 -115q27.5 -43 90.5 -43q46 0 83.5 27.5q37.5 27.5 64.5 74q27 46.5 41.5 106.5q14.5 60 14.5 125q0 79 -31 115q-31 36 -85 36q-45 0 -82.5 -26q-37.5 -26 -65 -70.5q-27.5 -44.5 -43 -104q-15.5 -59.5 -15.5 -125.5zt0 0zM270 798q0 29 20 43.5q20 14.5 52 14.5q32 0 52 -14.5q20 -14.5 20 -43.5q0 -29 -20 -43q-20 -14 -52 -14q-32 0 -52 14q-20 14 -20 43zt0 0zM474 798q0 29 20 43.5q20 14.5 52 14.5q32 0 52 -14.5q20 -14.5 20 -43.5q0 -29 -20 -43q-20 -14 -52 -14q-32 0 -52 14t-20 43z" />
<glyph unicode="&#215;" horiz-adv-x="505" d="M146 547l131 -130l130 130l79 -81l-130 -127l130 -129l-79 -82l-130 131l-132 -132l-79 81l131 131l-129 127z" />
<glyph unicode="&#216;" horiz-adv-x="644" d="M58 262q0 93 25.5 175.5q25.5 82.5 72.5 144q47 61.5 113.5 97q66.5 35.5 148.5 35.5q86 0 142 -40l27 32l72 -62l-37 -45q15 -30 23.5 -69q8.5 -39 8.5 -87q0 -94 -25.5 -177q-25.5 -83 -72 -145.5q-46.5 -62.5 -111 -98.5q-64.5 -36 -142.5 -36q-90 0 -149 41l-27 -32l-70 64l34 42q-16 32 -24.5 72q-8.5 40 -8.5 89zt0 0zM474 568q-29 24 -73 24q-45 0 -82.5 -26q-37.5 -26 -65 -70.5q-27.5 -44.5 -43 -104q-15.5 -59.5 -15.5 -125.5q0 -10 0 -19q0 -9 2 -18zM239 132q28 -24 74 -24q46 0 83.5 27.5q37.5 27.5 64.5 74q27 46.5 41.5 106.5q14.5 60 14.5 125q0 8 0 14.5q0 6.5 -1 13.5z" />
<glyph unicode="&#217;" horiz-adv-x="602" d="M531 700h122l-95 -452q-15 -72 -39 -121.5q-24 -49.5 -58 -80.5q-34 -31 -80 -44.5q-46 -13.5 -106 -13.5q-58 0 -98 13.5q-40 13.5 -65.5 38.5q-25.5 25 -37 59q-11.5 34 -11.5 75q0 20 2.5 41q2.5 21 7.5 44l94 441h129l-92 -440q-8 -38 -8 -62q0 -48 25 -68q25 -20 73 -20q60 0 93 35q33 35 50 113zM489 752h-90l-131 88l6 30l140 0z" />
<glyph unicode="&#218;" horiz-adv-x="602" d="M531 700h122l-95 -452q-15 -72 -39 -121.5q-24 -49.5 -58 -80.5q-34 -31 -80 -44.5q-46 -13.5 -106 -13.5q-58 0 -98 13.5q-40 13.5 -65.5 38.5q-25.5 25 -37 59q-11.5 34 -11.5 75q0 20 2.5 41q2.5 21 7.5 44l94 441h129l-92 -440q-8 -38 -8 -62q0 -48 25 -68q25 -20 73 -20q60 0 93 35q33 35 50 113zM487 870h157l-6 -30l-172 -88l-104 0z" />
<glyph unicode="&#219;" horiz-adv-x="602" d="M531 700h122l-95 -452q-15 -72 -39 -121.5q-24 -49.5 -58 -80.5q-34 -31 -80 -44.5q-46 -13.5 -106 -13.5q-58 0 -98 13.5q-40 13.5 -65.5 38.5q-25.5 25 -37 59q-11.5 34 -11.5 75q0 20 2.5 41q2.5 21 7.5 44l94 441h129l-92 -440q-8 -38 -8 -62q0 -48 25 -68q25 -20 73 -20q60 0 93 35q33 35 50 113zM409 870h87l101 -93l-8 -39h-88l-45 41l-13 34l-27 -33l-67 -42h-94l9 40z" />
<glyph unicode="&#220;" horiz-adv-x="602" d="M531 700h122l-95 -452q-15 -72 -39 -121.5q-24 -49.5 -58 -80.5q-34 -31 -80 -44.5q-46 -13.5 -106 -13.5q-58 0 -98 13.5q-40 13.5 -65.5 38.5q-25.5 25 -37 59q-11.5 34 -11.5 75q0 20 2.5 41q2.5 21 7.5 44l94 441h129l-92 -440q-8 -38 -8 -62q0 -48 25 -68q25 -20 73 -20q60 0 93 35q33 35 50 113zM256 798q0 29 20 43.5q20 14.5 52 14.5q32 0 52 -14.5q20 -14.5 20 -43.5q0 -29 -20 -43q-20 -14 -52 -14q-32 0 -52 14q-20 14 -20 43zt0 0zM460 798q0 29 20 43.5q20 14.5 52 14.5q32 0 52 -14.5q20 -14.5 20 -43.5q0 -29 -20 -43q-20 -14 -52 -14q-32 0 -52 14t-20 43z" />
<glyph unicode="&#221;" horiz-adv-x="569" d="M231 260l-125 440h144l65 -263l-2 -74h4l31 76l175 261h149l-311 -439l-55 -261h-129zM451 870h157l-6 -30l-172 -88l-104 0z" />
<glyph unicode="&#222;" horiz-adv-x="550" d="M169 700h129l-15 -71q13 1 26 1q13 0 26 0q51 0 94.5 -11.5q43.5 -11.5 76 -35.5q32.5 -24 50.5 -61.5q18 -37.5 18 -89.5q0 -78 -27 -130.5q-27 -52.5 -71.5 -85q-44.5 -32.5 -101.5 -46q-57 -13.5 -116 -13.5q-5 0 -15.5 0q-10.5 0 -22 0.5q-11.5 0.5 -22 1q-10.5 0.5 -15.5 1.5l-33 -160h-130zM257 507q-12 -58 -24 -114q-12 -56 -24 -113q4 -1 11 -2q7 -1 15.5 -1.5q8.5 -0.5 16 -1q7.5 -0.5 11.5 -0.5q34 0 65.5 7q31.5 7 55.5 23.5q24 16.5 38.5 43.5q14.5 27 14.5 66q0 30 -9.5 48.5q-9.5 18.5 -25.5 29.5q-16 11 -37.5 15q-21.5 4 -45.5 4q-18 0 -34.5 -1.5t-27.5 -3.5z" />
<glyph unicode="&#223;" horiz-adv-x="608" d="M153 528q12 57 35 92q23 35 55 54.5q32 19.5 72 26.5q40 7 87 7q51 0 86 -11q35 -11 57 -29.5q22 -18.5 32 -43q10 -24.5 10 -52.5q0 -35 -11.5 -60q-11.5 -25 -28.5 -43q-17 -18 -37.5 -31q-20.5 -13 -37.5 -25q-17 -12 -28.5 -25q-11.5 -13 -11.5 -30q0 -17 11.5 -28q11.5 -11 28.5 -20q17 -9 37.5 -19q20.5 -10 37.5 -25.5q17 -15.5 28.5 -39q11.5 -23.5 11.5 -59.5q0 -39 -17.5 -72.5q-17.5 -33.5 -48 -57.5q-30.5 -24 -72 -37.5q-41.5 -13.5 -89.5 -13.5q-41 0 -81 11.5q-40 11.5 -65 28.5l56 97q21 -13 44.5 -23q23.5 -10 57.5 -10q15 0 30 5q15 5 27 14q12 9 19.5 22.5q7.5 13.5 7.5 30.5q0 19 -11.5 31.5q-11.5 12.5 -29 22.5q-17.5 10 -38 20.5q-20.5 10.5 -38 25q-17.5 14.5 -29 35.5q-11.5 21 -11.5 53q0 29 11.5 50.5q11.5 21.5 29 37.5q17.5 16 37.5 28.5q20 12.5 37.5 24.5q17.5 12 29 25.5q11.5 13.5 11.5 31.5q0 23 -18 37.5q-18 14.5 -52 14.5q-48 0 -77 -26.5q-29 -26.5 -40 -85.5l-89 -488q-9 -51 -21 -90q-12 -39 -32.5 -65q-20.5 -26 -50.5 -39.5q-30 -13.5 -74 -13.5q-36 0 -70.5 5.5q-34.5 5.5 -59.5 22.5l34 91q17 -7 34 -9q17 -2 43 -2q32 0 49.5 25q17.5 25 25.5 75l71 398h-82l20 102h81l6 28z" />
<glyph unicode="&#224;" horiz-adv-x="503" d="M444 200q-8 -38 -11.5 -77q-3.5 -39 -3.5 -74q0 -14 0.5 -26.5q0.5 -12.5 1.5 -23.5l-91 0l-14 86h-4q-11 -18 -28.5 -35.5q-17.5 -17.5 -38.5 -32q-21 -14.5 -44.5 -23q-23.5 -8.5 -48.5 -8.5q-66 0 -97.5 43q-31.5 43 -31.5 115q0 73 18.5 140q18.5 67 57.5 118q39 51 98.5 81.5q59.5 30.5 141.5 30.5q35 0 76.5 -6.5q41.5 -6.5 80.5 -17.5zM209 89q18 0 34 7.5q16 7.5 29.5 19.5q13.5 12 24 26q10.5 14 18.5 26l50 233q-11 5 -25.5 7.5q-14.5 2.5 -28.5 2.5q-36 0 -64 -21.5q-28 -21.5 -47.5 -56q-19.5 -34.5 -29.5 -78q-10 -43.5 -10 -87.5q0 -32 10.5 -55.5q10.5 -23.5 38.5 -23.5zt0 0zM387 566h-69l-91 124l7 30l129 0z" />
<glyph unicode="&#225;" horiz-adv-x="503" d="M444 200q-8 -38 -11.5 -77q-3.5 -39 -3.5 -74q0 -14 0.5 -26.5q0.5 -12.5 1.5 -23.5l-91 0l-14 86h-4q-11 -18 -28.5 -35.5q-17.5 -17.5 -38.5 -32q-21 -14.5 -44.5 -23q-23.5 -8.5 -48.5 -8.5q-66 0 -97.5 43q-31.5 43 -31.5 115q0 73 18.5 140q18.5 67 57.5 118q39 51 98.5 81.5q59.5 30.5 141.5 30.5q35 0 76.5 -6.5q41.5 -6.5 80.5 -17.5zM209 89q18 0 34 7.5q16 7.5 29.5 19.5q13.5 12 24 26q10.5 14 18.5 26l50 233q-11 5 -25.5 7.5q-14.5 2.5 -28.5 2.5q-36 0 -64 -21.5q-28 -21.5 -47.5 -56q-19.5 -34.5 -29.5 -78q-10 -43.5 -10 -87.5q0 -32 10.5 -55.5q10.5 -23.5 38.5 -23.5zt0 0zM381 720h125l-6 -30l-133 -124l-69 0z" />
<glyph unicode="&#226;" horiz-adv-x="503" d="M444 200q-8 -38 -11.5 -77q-3.5 -39 -3.5 -74q0 -14 0.5 -26.5q0.5 -12.5 1.5 -23.5l-91 0l-14 86h-4q-11 -18 -28.5 -35.5q-17.5 -17.5 -38.5 -32q-21 -14.5 -44.5 -23q-23.5 -8.5 -48.5 -8.5q-66 0 -97.5 43q-31.5 43 -31.5 115q0 73 18.5 140q18.5 67 57.5 118q39 51 98.5 81.5q59.5 30.5 141.5 30.5q35 0 76.5 -6.5q41.5 -6.5 80.5 -17.5zM209 89q18 0 34 7.5q16 7.5 29.5 19.5q13.5 12 24 26q10.5 14 18.5 26l50 233q-11 5 -25.5 7.5q-14.5 2.5 -28.5 2.5q-36 0 -64 -21.5q-28 -21.5 -47.5 -56q-19.5 -34.5 -29.5 -78q-10 -43.5 -10 -87.5q0 -32 10.5 -55.5q10.5 -23.5 38.5 -23.5zt0 0zM345 732h82l67 -182h-96l-24 66l-4 49l-27 -49l-57 -66l-97 0z" />
<glyph unicode="&#227;" horiz-adv-x="503" d="M444 200q-8 -38 -11.5 -77q-3.5 -39 -3.5 -74q0 -14 0.5 -26.5q0.5 -12.5 1.5 -23.5l-91 0l-14 86h-4q-11 -18 -28.5 -35.5q-17.5 -17.5 -38.5 -32q-21 -14.5 -44.5 -23q-23.5 -8.5 -48.5 -8.5q-66 0 -97.5 43q-31.5 43 -31.5 115q0 73 18.5 140q18.5 67 57.5 118q39 51 98.5 81.5q59.5 30.5 141.5 30.5q35 0 76.5 -6.5q41.5 -6.5 80.5 -17.5zM209 89q18 0 34 7.5q16 7.5 29.5 19.5q13.5 12 24 26q10.5 14 18.5 26l50 233q-11 5 -25.5 7.5q-14.5 2.5 -28.5 2.5q-36 0 -64 -21.5q-28 -21.5 -47.5 -56q-19.5 -34.5 -29.5 -78q-10 -43.5 -10 -87.5q0 -32 10.5 -55.5q10.5 -23.5 38.5 -23.5zt0 0zM196 658q35 37 61.5 51q26.5 14 48.5 14q18 0 33.5 -7q15.5 -7 31 -15q15.5 -8 31 -15q15.5 -7 33.5 -7q14 0 30.5 6q16.5 6 36.5 21l4 -70q-32 -32 -57 -44.5q-25 -12.5 -46 -12.5q-18 0 -34 6.5q-16 6.5 -32 14.5q-16 8 -32 14.5q-16 6.5 -34 6.5q-15 0 -33 -6q-18 -6 -38 -22z" />
<glyph unicode="&#228;" horiz-adv-x="503" d="M444 200q-8 -38 -11.5 -77q-3.5 -39 -3.5 -74q0 -14 0.5 -26.5q0.5 -12.5 1.5 -23.5l-91 0l-14 86h-4q-11 -18 -28.5 -35.5q-17.5 -17.5 -38.5 -32q-21 -14.5 -44.5 -23q-23.5 -8.5 -48.5 -8.5q-66 0 -97.5 43q-31.5 43 -31.5 115q0 73 18.5 140q18.5 67 57.5 118q39 51 98.5 81.5q59.5 30.5 141.5 30.5q35 0 76.5 -6.5q41.5 -6.5 80.5 -17.5zM209 89q18 0 34 7.5q16 7.5 29.5 19.5q13.5 12 24 26q10.5 14 18.5 26l50 233q-11 5 -25.5 7.5q-14.5 2.5 -28.5 2.5q-36 0 -64 -21.5q-28 -21.5 -47.5 -56q-19.5 -34.5 -29.5 -78q-10 -43.5 -10 -87.5q0 -32 10.5 -55.5q10.5 -23.5 38.5 -23.5zt0 0zM170 651q0 33 18.5 51.5q18.5 18.5 47.5 18.5q29 0 47.5 -18.5q18.5 -18.5 18.5 -51.5q0 -32 -18.5 -50q-18.5 -18 -47.5 -18q-29 0 -47.5 18q-18.5 18 -18.5 50zt0 0zM378 652q0 32 18.5 50.5q18.5 18.5 47.5 18.5q29 0 47.5 -18.5q18.5 -18.5 18.5 -50.5q0 -32 -18.5 -50.5q-18.5 -18.5 -47.5 -18.5q-29 0 -47.5 18.5t-18.5 50.5z" />
<glyph unicode="&#229;" horiz-adv-x="503" d="M444 200q-8 -38 -11.5 -77q-3.5 -39 -3.5 -74q0 -14 0.5 -26.5q0.5 -12.5 1.5 -23.5l-91 0l-14 86h-4q-11 -18 -28.5 -35.5q-17.5 -17.5 -38.5 -32q-21 -14.5 -44.5 -23q-23.5 -8.5 -48.5 -8.5q-66 0 -97.5 43q-31.5 43 -31.5 115q0 73 18.5 140q18.5 67 57.5 118q39 51 98.5 81.5q59.5 30.5 141.5 30.5q35 0 76.5 -6.5q41.5 -6.5 80.5 -17.5zM209 89q18 0 34 7.5q16 7.5 29.5 19.5q13.5 12 24 26q10.5 14 18.5 26l50 233q-11 5 -25.5 7.5q-14.5 2.5 -28.5 2.5q-36 0 -64 -21.5q-28 -21.5 -47.5 -56q-19.5 -34.5 -29.5 -78q-10 -43.5 -10 -87.5q0 -32 10.5 -55.5q10.5 -23.5 38.5 -23.5zt0 0zM254 647q0 42 28.5 69q28.5 27 82.5 27q51 0 81 -24.5q30 -24.5 30 -71.5q0 -39 -29.5 -66.5q-29.5 -27.5 -81.5 -27.5q-53 0 -82 25.5q-29 25.5 -29 68.5zt0 0zM326 647q0 -16 11.5 -24.5q11.5 -8.5 27.5 -8.5q17 0 28 8q11 8 11 25q0 17 -11.5 25.5q-11.5 8.5 -27.5 8.5q-16 0 -27.5 -8t-11.5 -26z" />
<glyph unicode="&#230;" horiz-adv-x="744" d="M312 223q-8 1 -16.5 1q-8.5 0 -16.5 0q-57 0 -96 -18.5q-39 -18.5 -39 -57.5q0 -27 14 -39q14 -12 37 -12q18 0 34.5 7.5q16.5 7.5 30.5 18q14 10.5 25 22q11 11.5 18 20.5zM315 77q-32 -36 -74 -60.5q-42 -24.5 -99 -24.5q-33 0 -56.5 10.5q-23.5 10.5 -38.5 28q-15 17.5 -22.5 40.5q-7.5 23 -7.5 47q0 49 22 84q22 35 60 57q38 22 88 32.5q50 10.5 107 10.5q8 0 16.5 0q8.5 0 16.5 -1q11 38 11 59q0 24 -15 35.5q-15 11.5 -51 11.5q-33 0 -70 -8q-37 -8 -69 -21l-18 93q41 20 94.5 29.5q53.5 9.5 103.5 9.5q46 0 78 -14.5q32 -14.5 45 -45.5q29 31 72.5 47.5q43.5 16.5 88.5 16.5q42 0 71.5 -9.5q29.5 -9.5 48 -26.5q18.5 -17 27 -39.5q8.5 -22.5 8.5 -49.5q0 -56 -26.5 -90q-26.5 -34 -71.5 -53.5q-45 -19.5 -104 -26.5q-59 -7 -123 -7q-1 -8 -1.5 -15.5q-0.5 -7.5 -0.5 -14.5q0 -45 23 -69q23 -24 76 -24q38 0 71.5 10.5q33.5 10.5 53.5 22.5l23 -86q-34 -24 -85.5 -37q-51.5 -13 -102.5 -13q-66 0 -106.5 24q-40.5 24 -57.5 67zM447 292q32 0 65 1.5q33 1.5 60 9q27 7.5 44 23q17 15.5 17 42.5q0 17 -12 31.5q-12 14.5 -45 14.5q-53 0 -83.5 -35.5t-45.5 -86.5z" />
<glyph unicode="&#231;" horiz-adv-x="412" d="M370 41q-26 -19 -58 -33q-32 -14 -66 -19l-24 -32q34 -2 52 -20.5q18 -18.5 18 -47.5q0 -26 -11.5 -45q-11.5 -19 -31 -31.5q-19.5 -12.5 -46 -18.5q-26.5 -6 -56.5 -6q-38 0 -77 9l20 48q51 -5 70 6q19 11 19 25q0 17 -20 23.5q-20 6.5 -58 5.5l66 85q-36 6 -61 21.5q-25 15.5 -41 38q-16 22.5 -23.5 50.5q-7.5 28 -7.5 58q0 84 24 150q24 66 63.5 111.5q39.5 45.5 90 70q50.5 24.5 103.5 24.5q47 0 74.5 -9q27.5 -9 49.5 -20l-46 -98q-19 11 -39.5 15q-20.5 4 -44.5 4q-27 0 -52.5 -17.5q-25.5 -17.5 -46 -46q-20.5 -28.5 -32.5 -66.5q-12 -38 -12 -78q0 -51 22 -77.5q22 -26.5 58 -26.5q30 0 55.5 9.5q25.5 9.5 45.5 21.5z" />
<glyph unicode="&#232;" horiz-adv-x="466" d="M402 48q-31 -26 -80 -44q-49 -18 -114 -18q-81 0 -127.5 47.5q-46.5 47.5 -46.5 132.5q0 80 25 144.5q25 64.5 65.5 109.5q40.5 45 91.5 69.5q51 24.5 102 24.5q41 0 70.5 -10.5q29.5 -10.5 48.5 -29q19 -18.5 28 -42.5q9 -24 9 -51q0 -41 -21 -72q-21 -31 -58.5 -51.5q-37.5 -20.5 -90.5 -31q-53 -10.5 -116 -10.5q-8 0 -15 0.5q-7 0.5 -15 0.5q-2 -12 -3 -21.5q-1 -9.5 -1 -17.5q0 -45 23.5 -67q23.5 -22 66.5 -22q44 0 79 13q35 13 53 26zM176 295q28 0 59.5 2q31.5 2 58.5 9.5q27 7.5 45 22q18 14.5 18 39.5q0 15 -11 30.5q-11 15.5 -46 15.5q-44 0 -76.5 -34q-32.5 -34 -47.5 -85zt0 0zM367 566h-69l-91 124l7 30l129 0z" />
<glyph unicode="&#233;" horiz-adv-x="466" d="M402 48q-31 -26 -80 -44q-49 -18 -114 -18q-81 0 -127.5 47.5q-46.5 47.5 -46.5 132.5q0 80 25 144.5q25 64.5 65.5 109.5q40.5 45 91.5 69.5q51 24.5 102 24.5q41 0 70.5 -10.5q29.5 -10.5 48.5 -29q19 -18.5 28 -42.5q9 -24 9 -51q0 -41 -21 -72q-21 -31 -58.5 -51.5q-37.5 -20.5 -90.5 -31q-53 -10.5 -116 -10.5q-8 0 -15 0.5q-7 0.5 -15 0.5q-2 -12 -3 -21.5q-1 -9.5 -1 -17.5q0 -45 23.5 -67q23.5 -22 66.5 -22q44 0 79 13q35 13 53 26zM176 295q28 0 59.5 2q31.5 2 58.5 9.5q27 7.5 45 22q18 14.5 18 39.5q0 15 -11 30.5q-11 15.5 -46 15.5q-44 0 -76.5 -34q-32.5 -34 -47.5 -85zt0 0zM365 720h125l-6 -30l-133 -124l-69 0z" />
<glyph unicode="&#234;" horiz-adv-x="466" d="M402 48q-31 -26 -80 -44q-49 -18 -114 -18q-81 0 -127.5 47.5q-46.5 47.5 -46.5 132.5q0 80 25 144.5q25 64.5 65.5 109.5q40.5 45 91.5 69.5q51 24.5 102 24.5q41 0 70.5 -10.5q29.5 -10.5 48.5 -29q19 -18.5 28 -42.5q9 -24 9 -51q0 -41 -21 -72q-21 -31 -58.5 -51.5q-37.5 -20.5 -90.5 -31q-53 -10.5 -116 -10.5q-8 0 -15 0.5q-7 0.5 -15 0.5q-2 -12 -3 -21.5q-1 -9.5 -1 -17.5q0 -45 23.5 -67q23.5 -22 66.5 -22q44 0 79 13q35 13 53 26zM176 295q28 0 59.5 2q31.5 2 58.5 9.5q27 7.5 45 22q18 14.5 18 39.5q0 15 -11 30.5q-11 15.5 -46 15.5q-44 0 -76.5 -34q-32.5 -34 -47.5 -85zt0 0zM322 732h82l67 -182h-96l-24 66l-4 49l-27 -49l-57 -66l-97 0z" />
<glyph unicode="&#235;" horiz-adv-x="466" d="M402 48q-31 -26 -80 -44q-49 -18 -114 -18q-81 0 -127.5 47.5q-46.5 47.5 -46.5 132.5q0 80 25 144.5q25 64.5 65.5 109.5q40.5 45 91.5 69.5q51 24.5 102 24.5q41 0 70.5 -10.5q29.5 -10.5 48.5 -29q19 -18.5 28 -42.5q9 -24 9 -51q0 -41 -21 -72q-21 -31 -58.5 -51.5q-37.5 -20.5 -90.5 -31q-53 -10.5 -116 -10.5q-8 0 -15 0.5q-7 0.5 -15 0.5q-2 -12 -3 -21.5q-1 -9.5 -1 -17.5q0 -45 23.5 -67q23.5 -22 66.5 -22q44 0 79 13q35 13 53 26zM176 295q28 0 59.5 2q31.5 2 58.5 9.5q27 7.5 45 22q18 14.5 18 39.5q0 15 -11 30.5q-11 15.5 -46 15.5q-44 0 -76.5 -34q-32.5 -34 -47.5 -85zt0 0zM163 651q0 33 18.5 51.5q18.5 18.5 47.5 18.5q29 0 47.5 -18.5q18.5 -18.5 18.5 -51.5q0 -32 -18.5 -50q-18.5 -18 -47.5 -18q-29 0 -47.5 18q-18.5 18 -18.5 50zt0 0zM371 652q0 32 18.5 50.5q18.5 18.5 47.5 18.5q29 0 47.5 -18.5q18.5 -18.5 18.5 -50.5q0 -32 -18.5 -50.5q-18.5 -18.5 -47.5 -18.5q-29 0 -47.5 18.5t-18.5 50.5z" />
<glyph unicode="&#236;" horiz-adv-x="256" d="M133 500h123l-106 -500h-123zM264 566h-69l-91 124l7 30l129 0z" />
<glyph unicode="&#237;" horiz-adv-x="256" d="M133 500h123l-106 -500h-123zM237 720h125l-6 -30l-133 -124l-69 0z" />
<glyph unicode="&#238;" horiz-adv-x="256" d="M133 500h123l-106 -500h-123zM203 732h82l67 -182h-96l-24 66l-4 49l-27 -49l-57 -66l-97 0z" />
<glyph unicode="&#239;" horiz-adv-x="256" d="M133 500h123l-106 -500h-123zM54 651q0 33 18.5 51.5q18.5 18.5 47.5 18.5q29 0 47.5 -18.5q18.5 -18.5 18.5 -51.5q0 -32 -18.5 -50q-18.5 -18 -47.5 -18q-29 0 -47.5 18q-18.5 18 -18.5 50zt0 0zM262 652q0 32 18.5 50.5q18.5 18.5 47.5 18.5q29 0 47.5 -18.5q18.5 -18.5 18.5 -50.5q0 -32 -18.5 -50.5q-18.5 -18.5 -47.5 -18.5q-29 0 -47.5 18.5t-18.5 50.5z" />
<glyph unicode="&#240;" horiz-adv-x="508" d="M262 592l70 29q-18 18 -39.5 31q-21.5 13 -44.5 21l97 41q45 -17 82 -54l73 30l28 -54l-64 -27q17 -31 27 -69q10 -38 10 -83q0 -123 -23.5 -212q-23.5 -89 -63.5 -146.5q-40 -57.5 -92.5 -85q-52.5 -27.5 -110.5 -27.5q-80 0 -127 47.5q-47 47.5 -47 138.5q0 70 20.5 130q20.5 60 55 104q34.5 44 80 68.5q45.5 24.5 96.5 24.5q69 0 101 -38q2 32 -4 58.5q-6 26.5 -17 49.5l-75 -31zM164 177q0 -42 16.5 -65q16.5 -23 45.5 -23q39 0 66.5 28q27.5 28 44.5 68.5q17 40.5 25 86.5q8 46 7 81q-8 20 -26.5 32q-18.5 12 -44.5 12q-30 0 -54.5 -19q-24.5 -19 -42 -50q-17.5 -31 -27.5 -70.5t-10 -80.5z" />
<glyph unicode="&#241;" horiz-adv-x="521" d="M294 0l66 310q6 28 6 49q0 22 -9 34.5q-9 12.5 -33 12.5q-18 0 -36 -9q-18 -9 -34 -24q-16 -15 -30 -33.5q-14 -18.5 -24 -37.5l-64 -302h-123l106 500h93l-5 -88h4q13 16 30.5 34q17.5 18 40.5 33q23 15 51.5 25q28.5 10 64.5 10q45 0 72 -24.5q27 -24.5 27 -81.5q0 -15 -1.5 -32q-1.5 -17 -6.5 -37l-72 -339zM202 658q35 37 61.5 51q26.5 14 48.5 14q18 0 33.5 -7q15.5 -7 31 -15q15.5 -8 31 -15q15.5 -7 33.5 -7q14 0 30.5 6q16.5 6 36.5 21l4 -70q-32 -32 -57 -44.5q-25 -12.5 -46 -12.5q-18 0 -34 6.5q-16 6.5 -32 14.5q-16 8 -32 14.5q-16 6.5 -34 6.5q-15 0 -33 -6q-18 -6 -38 -22z" />
<glyph unicode="&#242;" horiz-adv-x="496" d="M34 162q0 79 22.5 144q22.5 65 60 111q37.5 46 87 71.5q49.5 25.5 103.5 25.5q48 0 81 -15q33 -15 53.5 -40q20.5 -25 29.5 -57q9 -32 9 -66q0 -78 -22 -142.5q-22 -64.5 -59 -110.5q-37 -46 -86 -71.5q-49 -25.5 -103 -25.5q-47 0 -80 15.5q-33 15.5 -54.5 40.5q-21.5 25 -31.5 56.5q-10 31.5 -10 63.5zt0 0zM161 179q0 -90 65 -90q24 0 47 21q23 21 41 55q18 34 28.5 77q10.5 43 10.5 86q0 40 -13.5 61.5q-13.5 21.5 -50.5 21.5q-24 0 -47 -20q-23 -20 -41 -52.5q-18 -32.5 -29 -74.5q-11 -42 -11 -85zt0 0zM375 566h-69l-91 124l7 30l129 0z" />
<glyph unicode="&#243;" horiz-adv-x="496" d="M34 162q0 79 22.5 144q22.5 65 60 111q37.5 46 87 71.5q49.5 25.5 103.5 25.5q48 0 81 -15q33 -15 53.5 -40q20.5 -25 29.5 -57q9 -32 9 -66q0 -78 -22 -142.5q-22 -64.5 -59 -110.5q-37 -46 -86 -71.5q-49 -25.5 -103 -25.5q-47 0 -80 15.5q-33 15.5 -54.5 40.5q-21.5 25 -31.5 56.5q-10 31.5 -10 63.5zt0 0zM161 179q0 -90 65 -90q24 0 47 21q23 21 41 55q18 34 28.5 77q10.5 43 10.5 86q0 40 -13.5 61.5q-13.5 21.5 -50.5 21.5q-24 0 -47 -20q-23 -20 -41 -52.5q-18 -32.5 -29 -74.5q-11 -42 -11 -85zt0 0zM363 720h125l-6 -30l-133 -124l-69 0z" />
<glyph unicode="&#244;" horiz-adv-x="496" d="M34 162q0 79 22.5 144q22.5 65 60 111q37.5 46 87 71.5q49.5 25.5 103.5 25.5q48 0 81 -15q33 -15 53.5 -40q20.5 -25 29.5 -57q9 -32 9 -66q0 -78 -22 -142.5q-22 -64.5 -59 -110.5q-37 -46 -86 -71.5q-49 -25.5 -103 -25.5q-47 0 -80 15.5q-33 15.5 -54.5 40.5q-21.5 25 -31.5 56.5q-10 31.5 -10 63.5zt0 0zM161 179q0 -90 65 -90q24 0 47 21q23 21 41 55q18 34 28.5 77q10.5 43 10.5 86q0 40 -13.5 61.5q-13.5 21.5 -50.5 21.5q-24 0 -47 -20q-23 -20 -41 -52.5q-18 -32.5 -29 -74.5q-11 -42 -11 -85zt0 0zM319 732h82l67 -182h-96l-24 66l-4 49l-27 -49l-57 -66l-97 0z" />
<glyph unicode="&#245;" horiz-adv-x="496" d="M34 162q0 79 22.5 144q22.5 65 60 111q37.5 46 87 71.5q49.5 25.5 103.5 25.5q48 0 81 -15q33 -15 53.5 -40q20.5 -25 29.5 -57q9 -32 9 -66q0 -78 -22 -142.5q-22 -64.5 -59 -110.5q-37 -46 -86 -71.5q-49 -25.5 -103 -25.5q-47 0 -80 15.5q-33 15.5 -54.5 40.5q-21.5 25 -31.5 56.5q-10 31.5 -10 63.5zt0 0zM161 179q0 -90 65 -90q24 0 47 21q23 21 41 55q18 34 28.5 77q10.5 43 10.5 86q0 40 -13.5 61.5q-13.5 21.5 -50.5 21.5q-24 0 -47 -20q-23 -20 -41 -52.5q-18 -32.5 -29 -74.5q-11 -42 -11 -85zt0 0zM178 658q35 37 61.5 51q26.5 14 48.5 14q18 0 33.5 -7q15.5 -7 31 -15q15.5 -8 31 -15q15.5 -7 33.5 -7q14 0 30.5 6q16.5 6 36.5 21l4 -70q-32 -32 -57 -44.5q-25 -12.5 -46 -12.5q-18 0 -34 6.5q-16 6.5 -32 14.5q-16 8 -32 14.5q-16 6.5 -34 6.5q-15 0 -33 -6q-18 -6 -38 -22z" />
<glyph unicode="&#246;" horiz-adv-x="496" d="M34 162q0 79 22.5 144q22.5 65 60 111q37.5 46 87 71.5q49.5 25.5 103.5 25.5q48 0 81 -15q33 -15 53.5 -40q20.5 -25 29.5 -57q9 -32 9 -66q0 -78 -22 -142.5q-22 -64.5 -59 -110.5q-37 -46 -86 -71.5q-49 -25.5 -103 -25.5q-47 0 -80 15.5q-33 15.5 -54.5 40.5q-21.5 25 -31.5 56.5q-10 31.5 -10 63.5zt0 0zM161 179q0 -90 65 -90q24 0 47 21q23 21 41 55q18 34 28.5 77q10.5 43 10.5 86q0 40 -13.5 61.5q-13.5 21.5 -50.5 21.5q-24 0 -47 -20q-23 -20 -41 -52.5q-18 -32.5 -29 -74.5q-11 -42 -11 -85zt0 0zM162 651q0 33 18.5 51.5q18.5 18.5 47.5 18.5q29 0 47.5 -18.5q18.5 -18.5 18.5 -51.5q0 -32 -18.5 -50q-18.5 -18 -47.5 -18q-29 0 -47.5 18q-18.5 18 -18.5 50zt0 0zM370 652q0 32 18.5 50.5q18.5 18.5 47.5 18.5q29 0 47.5 -18.5q18.5 -18.5 18.5 -50.5q0 -32 -18.5 -50.5q-18.5 -18.5 -47.5 -18.5q-29 0 -47.5 18.5t-18.5 50.5z" />
<glyph unicode="&#247;" horiz-adv-x="505" d="M58 394h442v-112h-442zM199 534q0 35 22 55.5q22 20.5 58 20.5q37 0 59 -20.5q22 -20.5 22 -55.5q0 -35 -22 -56q-22 -21 -59 -21q-36 0 -58 21q-22 21 -22 56zt0 0zM199 139q0 35 22 55.5q22 20.5 58 20.5q37 0 59 -20.5q22 -20.5 22 -55.5q0 -35 -22 -56q-22 -21 -59 -21q-36 0 -58 21t-22 56z" />
<glyph unicode="&#248;" horiz-adv-x="496" d="M34 162q0 79 22.5 144q22.5 65 60 111q37.5 46 87 71.5q49.5 25.5 103.5 25.5q32 0 57 -7q25 -7 44 -19l34 38l64 -59l-42 -47q16 -38 16 -84q0 -78 -22 -142.5q-22 -64.5 -59 -110.5q-37 -46 -86 -71.5q-49 -25.5 -103 -25.5q-34 0 -60.5 8.5q-26.5 8.5 -46.5 22.5l-37 -41l-66 60l47 54q-13 33 -13 72zt0 0zM176 114q16 -25 50 -25q23 0 45 19.5q22 19.5 39.5 51q17.5 31.5 29 71.5q11.5 40 13.5 81zM337 392q-16 19 -48 19q-23 0 -45 -18.5q-22 -18.5 -39.5 -48.5q-17.5 -30 -29.5 -69q-12 -39 -14 -81z" />
<glyph unicode="&#249;" horiz-adv-x="512" d="M241 500l-65 -309q-6 -30 -6 -50q0 -20 8 -31q8 -11 28 -11q17 0 34.5 8.5q17.5 8.5 33.5 22q16 13.5 29.5 30q13.5 16.5 22.5 32.5l64 308h123l-63 -300q-5 -20 -8.5 -47q-3.5 -27 -6.5 -55.5q-3 -28.5 -4 -54.5q-1 -26 0 -43l-99 0l-5 90h-4q-14 -19 -32.5 -37.5q-18.5 -18.5 -41 -33.5q-22.5 -15 -49 -24q-26.5 -9 -56.5 -9q-47 0 -76 23.5q-29 23.5 -29 86.5q0 37 10 81l69 323zM372 566h-69l-91 124l7 30l129 0z" />
<glyph unicode="&#250;" horiz-adv-x="512" d="M241 500l-65 -309q-6 -30 -6 -50q0 -20 8 -31q8 -11 28 -11q17 0 34.5 8.5q17.5 8.5 33.5 22q16 13.5 29.5 30q13.5 16.5 22.5 32.5l64 308h123l-63 -300q-5 -20 -8.5 -47q-3.5 -27 -6.5 -55.5q-3 -28.5 -4 -54.5q-1 -26 0 -43l-99 0l-5 90h-4q-14 -19 -32.5 -37.5q-18.5 -18.5 -41 -33.5q-22.5 -15 -49 -24q-26.5 -9 -56.5 -9q-47 0 -76 23.5q-29 23.5 -29 86.5q0 37 10 81l69 323zM351 720h125l-6 -30l-133 -124l-69 0z" />
<glyph unicode="&#251;" horiz-adv-x="512" d="M241 500l-65 -309q-6 -30 -6 -50q0 -20 8 -31q8 -11 28 -11q17 0 34.5 8.5q17.5 8.5 33.5 22q16 13.5 29.5 30q13.5 16.5 22.5 32.5l64 308h123l-63 -300q-5 -20 -8.5 -47q-3.5 -27 -6.5 -55.5q-3 -28.5 -4 -54.5q-1 -26 0 -43l-99 0l-5 90h-4q-14 -19 -32.5 -37.5q-18.5 -18.5 -41 -33.5q-22.5 -15 -49 -24q-26.5 -9 -56.5 -9q-47 0 -76 23.5q-29 23.5 -29 86.5q0 37 10 81l69 323zM325 732h82l67 -182h-96l-24 66l-4 49l-27 -49l-57 -66l-97 0z" />
<glyph unicode="&#252;" horiz-adv-x="512" d="M241 500l-65 -309q-6 -30 -6 -50q0 -20 8 -31q8 -11 28 -11q17 0 34.5 8.5q17.5 8.5 33.5 22q16 13.5 29.5 30q13.5 16.5 22.5 32.5l64 308h123l-63 -300q-5 -20 -8.5 -47q-3.5 -27 -6.5 -55.5q-3 -28.5 -4 -54.5q-1 -26 0 -43l-99 0l-5 90h-4q-14 -19 -32.5 -37.5q-18.5 -18.5 -41 -33.5q-22.5 -15 -49 -24q-26.5 -9 -56.5 -9q-47 0 -76 23.5q-29 23.5 -29 86.5q0 37 10 81l69 323zM172 651q0 33 18.5 51.5q18.5 18.5 47.5 18.5q29 0 47.5 -18.5q18.5 -18.5 18.5 -51.5q0 -32 -18.5 -50q-18.5 -18 -47.5 -18q-29 0 -47.5 18q-18.5 18 -18.5 50zt0 0zM380 652q0 32 18.5 50.5q18.5 18.5 47.5 18.5q29 0 47.5 -18.5q18.5 -18.5 18.5 -50.5q0 -32 -18.5 -50.5q-18.5 -18.5 -47.5 -18.5q-29 0 -47.5 18.5t-18.5 50.5z" />
<glyph unicode="&#253;" horiz-adv-x="452" d="M216 219l1 -78h6l27 79l136 280h131l-240 -449q-30 -56 -56.5 -103q-26.5 -47 -53.5 -81q-27 -34 -56 -53q-29 -19 -62 -19q-44 0 -66 15l33 98q6 -3 12.5 -4q6.5 -1 12.5 -1q24 0 49 23q25 23 50 74l-94 500h141zM330 720h125l-6 -30l-133 -124l-69 0z" />
<glyph unicode="&#254;" horiz-adv-x="506" d="M165 700h123l-62 -268h4q12 16 27 31q15 15 34 26q19 11 42 18q23 7 52 7q51 0 82 -35q31 -35 31 -110q0 -85 -22.5 -155.5q-22.5 -70.5 -60 -121q-37.5 -50.5 -88 -78.5q-50.5 -28 -105.5 -28q-26 0 -49 5q-23 5 -34 13l-43 -204h-122zM160 106q25 -17 56 -17q31 0 58.5 21q27.5 21 48 56q20.5 35 32.5 81.5q12 46.5 12 97.5q0 29 -11.5 47.5q-11.5 18.5 -34.5 18.5q-18 0 -35 -9q-17 -9 -32 -22.5q-15 -13.5 -27 -30.5q-12 -17 -21 -33z" />
<glyph unicode="&#255;" horiz-adv-x="452" d="M216 219l1 -78h6l27 79l136 280h131l-240 -449q-30 -56 -56.5 -103q-26.5 -47 -53.5 -81q-27 -34 -56 -53q-29 -19 -62 -19q-44 0 -66 15l33 98q6 -3 12.5 -4q6.5 -1 12.5 -1q24 0 49 23q25 23 50 74l-94 500h141zM130 651q0 33 18.5 51.5q18.5 18.5 47.5 18.5q29 0 47.5 -18.5q18.5 -18.5 18.5 -51.5q0 -32 -18.5 -50q-18.5 -18 -47.5 -18q-29 0 -47.5 18q-18.5 18 -18.5 50zt0 0zM338 652q0 32 18.5 50.5q18.5 18.5 47.5 18.5q29 0 47.5 -18.5q18.5 -18.5 18.5 -50.5q0 -32 -18.5 -50.5q-18.5 -18.5 -47.5 -18.5q-29 0 -47.5 18.5t-18.5 50.5z" />
<glyph unicode="&#256;" horiz-adv-x="582" d="M387 155h-204l-83 -155h-138l389 705h96l91 -705h-131zM240 265h142l-16 156l1 110h-5l-40 -111zM261 856h327l-19 -89l-326 0z" />
<glyph unicode="&#257;" horiz-adv-x="503" d="M444 200q-8 -38 -11.5 -77q-3.5 -39 -3.5 -74q0 -14 0.5 -26.5q0.5 -12.5 1.5 -23.5l-91 0l-14 86h-4q-11 -18 -28.5 -35.5q-17.5 -17.5 -38.5 -32q-21 -14.5 -44.5 -23q-23.5 -8.5 -48.5 -8.5q-66 0 -97.5 43q-31.5 43 -31.5 115q0 73 18.5 140q18.5 67 57.5 118q39 51 98.5 81.5q59.5 30.5 141.5 30.5q35 0 76.5 -6.5q41.5 -6.5 80.5 -17.5zM209 89q18 0 34 7.5q16 7.5 29.5 19.5q13.5 12 24 26q10.5 14 18.5 26l50 233q-11 5 -25.5 7.5q-14.5 2.5 -28.5 2.5q-36 0 -64 -21.5q-28 -21.5 -47.5 -56q-19.5 -34.5 -29.5 -78q-10 -43.5 -10 -87.5q0 -32 10.5 -55.5q10.5 -23.5 38.5 -23.5zt0 0zM200 658h308l-19 -92l-308 0z" />
<glyph unicode="&#258;" horiz-adv-x="582" d="M387 155h-204l-83 -155h-138l389 705h96l91 -705h-131zM240 265h142l-16 156l1 110h-5l-40 -111zM295 875q18 -26 44 -40q26 -14 65 -14q55 0 92 15q37 15 65 39l49 -32q-17 -30 -40 -51.5q-23 -21.5 -50 -35q-27 -13.5 -57.5 -20q-30.5 -6.5 -61.5 -6.5q-26 0 -50.5 7.5q-24.5 7.5 -45 22q-20.5 14.5 -36 34.5q-15.5 20 -22.5 44z" />
<glyph unicode="&#259;" horiz-adv-x="503" d="M444 200q-8 -38 -11.5 -77q-3.5 -39 -3.5 -74q0 -14 0.5 -26.5q0.5 -12.5 1.5 -23.5l-91 0l-14 86h-4q-11 -18 -28.5 -35.5q-17.5 -17.5 -38.5 -32q-21 -14.5 -44.5 -23q-23.5 -8.5 -48.5 -8.5q-66 0 -97.5 43q-31.5 43 -31.5 115q0 73 18.5 140q18.5 67 57.5 118q39 51 98.5 81.5q59.5 30.5 141.5 30.5q35 0 76.5 -6.5q41.5 -6.5 80.5 -17.5zM209 89q18 0 34 7.5q16 7.5 29.5 19.5q13.5 12 24 26q10.5 14 18.5 26l50 233q-11 5 -25.5 7.5q-14.5 2.5 -28.5 2.5q-36 0 -64 -21.5q-28 -21.5 -47.5 -56q-19.5 -34.5 -29.5 -78q-10 -43.5 -10 -87.5q0 -32 10.5 -55.5q10.5 -23.5 38.5 -23.5zt0 0zM274 720q21 -59 84 -59q39 0 70.5 15.5q31.5 15.5 52.5 43.5l51 -27q-8 -24 -25.5 -47.5q-17.5 -23.5 -42 -41.5q-24.5 -18 -55.5 -29q-31 -11 -64 -11q-62 0 -99 33.5q-37 33.5 -39 90.5z" />
<glyph unicode="&#260;" horiz-adv-x="582" d="M387 155h-204l-83 -155h-138l389 705h96l91 -705h-21q-32 -12 -53.5 -31.5q-21.5 -19.5 -21.5 -48.5q0 -34 38 -34q14 0 38 8l5 -62q-18 -13 -49.5 -23q-31.5 -10 -64.5 -10q-48 0 -71.5 22q-23.5 22 -23.5 56q0 24 9 43.5q9 19.5 24 34.5q15 15 34.5 26q19.5 11 40.5 19l-15 0zM240 265h142l-16 156l1 110h-5l-40 -111z" />
<glyph unicode="&#261;" horiz-adv-x="503" d="M444 200q-8 -38 -11.5 -77q-3.5 -39 -3.5 -74q0 -14 0.5 -26.5q0.5 -12.5 1.5 -23.5l-21 0q-31 -12 -52 -31q-21 -19 -21 -50q1 -31 37 -33q16 0 39 9l6 -62q-19 -13 -50.5 -23.5q-31.5 -10.5 -64.5 -10.5q-48 0 -71.5 22q-23.5 22 -23.5 56q0 26 11 47q11 21 29.5 37q18.5 16 42 27q23.5 11 47.5 18l-13 80h-4q-11 -18 -28.5 -35.5q-17.5 -17.5 -38.5 -32q-21 -14.5 -44.5 -23q-23.5 -8.5 -48.5 -8.5q-64 0 -96.5 43q-32.5 43 -32.5 115q0 73 19 140q19 67 57.5 118q38.5 51 98 81.5q59.5 30.5 141.5 30.5q35 0 76.5 -6.5q41.5 -6.5 80.5 -17.5zM365 402q-11 5 -25.5 7.5q-14.5 2.5 -28.5 2.5q-37 -1 -64.5 -22q-27.5 -21 -47 -56q-19.5 -35 -29.5 -78.5q-10 -43.5 -10 -87.5q0 -32 11 -55.5q11 -23.5 38 -23.5q18 0 34 7.5q16 7.5 29.5 19.5q13.5 12 24 26q10.5 14 18.5 26z" />
<glyph unicode="&#262;" horiz-adv-x="537" d="M483 29q-67 -43 -164 -43q-66 0 -115 22q-49 22 -81.5 61q-32.5 39 -48.5 91q-16 52 -16 112q0 118 33 201.5q33 83.5 87 137q54 53.5 123.5 78.5q69.5 25 142.5 25q57 0 97.5 -8.5q40.5 -8.5 63.5 -19.5l-51 -116q-20 11 -48 16.5q-28 5.5 -71 5.5q-51 0 -95 -21q-44 -21 -76 -60q-32 -39 -50.5 -95q-18.5 -56 -18.5 -127q0 -85 42.5 -133q42.5 -48 113.5 -48q45 0 74.5 9.5q29.5 9.5 55.5 23.5zM498 870h157l-6 -30l-172 -88l-104 0z" />
<glyph unicode="&#263;" horiz-adv-x="412" d="M393 387q-19 11 -39.5 15q-20.5 4 -44.5 4q-27 0 -52.5 -17.5q-25.5 -17.5 -46 -46q-20.5 -28.5 -32.5 -66.5q-12 -38 -12 -78q0 -51 22 -77.5q22 -26.5 58 -26.5q30 0 55.5 9.5q25.5 9.5 45.5 21.5l23 -84q-32 -24 -74.5 -39.5q-42.5 -15.5 -84.5 -15.5q-48 0 -81.5 14q-33.5 14 -54.5 38q-21 24 -31 55q-10 31 -10 65q0 84 24 150q24 66 63.5 111.5q39.5 45.5 90 70q50.5 24.5 103.5 24.5q47 0 74.5 -9q27.5 -9 49.5 -20zM349 720h125l-6 -30l-133 -124l-69 0z" />
<glyph unicode="&#264;" horiz-adv-x="537" d="M483 29q-67 -43 -164 -43q-66 0 -115 22q-49 22 -81.5 61q-32.5 39 -48.5 91q-16 52 -16 112q0 118 33 201.5q33 83.5 87 137q54 53.5 123.5 78.5q69.5 25 142.5 25q57 0 97.5 -8.5q40.5 -8.5 63.5 -19.5l-51 -116q-20 11 -48 16.5q-28 5.5 -71 5.5q-51 0 -95 -21q-44 -21 -76 -60q-32 -39 -50.5 -95q-18.5 -56 -18.5 -127q0 -85 42.5 -133q42.5 -48 113.5 -48q45 0 74.5 9.5q29.5 9.5 55.5 23.5zM424 870h87l101 -93l-8 -39h-88l-45 41l-13 34l-27 -33l-67 -42h-94l9 40z" />
<glyph unicode="&#265;" horiz-adv-x="412" d="M393 387q-19 11 -39.5 15q-20.5 4 -44.5 4q-27 0 -52.5 -17.5q-25.5 -17.5 -46 -46q-20.5 -28.5 -32.5 -66.5q-12 -38 -12 -78q0 -51 22 -77.5q22 -26.5 58 -26.5q30 0 55.5 9.5q25.5 9.5 45.5 21.5l23 -84q-32 -24 -74.5 -39.5q-42.5 -15.5 -84.5 -15.5q-48 0 -81.5 14q-33.5 14 -54.5 38q-21 24 -31 55q-10 31 -10 65q0 84 24 150q24 66 63.5 111.5q39.5 45.5 90 70q50.5 24.5 103.5 24.5q47 0 74.5 -9q27.5 -9 49.5 -20zM306 732h82l67 -182h-96l-24 66l-4 49l-27 -49l-57 -66l-97 0z" />
<glyph unicode="&#268;" horiz-adv-x="537" d="M483 29q-67 -43 -164 -43q-66 0 -115 22q-49 22 -81.5 61q-32.5 39 -48.5 91q-16 52 -16 112q0 118 33 201.5q33 83.5 87 137q54 53.5 123.5 78.5q69.5 25 142.5 25q57 0 97.5 -8.5q40.5 -8.5 63.5 -19.5l-51 -116q-20 11 -48 16.5q-28 5.5 -71 5.5q-51 0 -95 -21q-44 -21 -76 -60q-32 -39 -50.5 -95q-18.5 -56 -18.5 -127q0 -85 42.5 -133q42.5 -48 113.5 -48q45 0 74.5 9.5q29.5 9.5 55.5 23.5zM483 737h-84l-101 94l8 39h92l41 -45l12 -30l25 29l64 46h98l-8 -40z" />
<glyph unicode="&#269;" horiz-adv-x="412" d="M393 387q-19 11 -39.5 15q-20.5 4 -44.5 4q-27 0 -52.5 -17.5q-25.5 -17.5 -46 -46q-20.5 -28.5 -32.5 -66.5q-12 -38 -12 -78q0 -51 22 -77.5q22 -26.5 58 -26.5q30 0 55.5 9.5q25.5 9.5 45.5 21.5l23 -84q-32 -24 -74.5 -39.5q-42.5 -15.5 -84.5 -15.5q-48 0 -81.5 14q-33.5 14 -54.5 38q-21 24 -31 55q-10 31 -10 65q0 84 24 150q24 66 63.5 111.5q39.5 45.5 90 70q50.5 24.5 103.5 24.5q47 0 74.5 -9q27.5 -9 49.5 -20zM346 550h-87l-70 182h103l23 -66l5 -49l28 49l56 66l98 0z" />
<glyph unicode="&#270;" horiz-adv-x="620" d="M168 700q21 3 46 5q25 2 46.5 3q21.5 1 37.5 1q9 0 25.5 0.5q16.5 0.5 36.5 0.5q61 0 111 -15.5q50 -15.5 85.5 -47.5q35.5 -32 55 -82q19.5 -50 19.5 -119q0 -44 -7.5 -94.5q-7.5 -50.5 -25.5 -101.5q-18 -51 -49.5 -98q-31.5 -47 -79 -83q-47.5 -36 -114 -58q-66.5 -22 -154.5 -22q-15 0 -30 0.5q-15 0.5 -21 0.5q-20 1 -44.5 2.5q-24.5 1.5 -49 3q-24.5 1.5 -36.5 3.5zM174 114q4 -1 12.5 -1.5q8.5 -0.5 18.5 -1q10 -0.5 19 -0.5q9 0 14 0q70 0 119 31.5q49 31.5 79.5 79q30.5 47.5 44 103q13.5 55.5 13.5 103.5q0 80 -33.5 120q-33.5 40 -111.5 40q-20 0 -42 -1q-22 -1 -34 -3zM428 737h-84l-101 94l8 39h92l41 -45l12 -30l25 29l64 46h98l-8 -40z" />
<glyph unicode="&#271;" horiz-adv-x="507" d="M442 176q-9 -42 -13 -78q-4 -36 -4 -68q0 -8 0 -15.5q0 -7.5 1 -15.5l-84 0l-14 86h-4q-11 -18 -28.5 -35.5q-17.5 -17.5 -38.5 -32q-21 -14.5 -44.5 -23q-23.5 -8.5 -46.5 -8.5q-62 0 -95.5 44q-33.5 44 -33.5 121q0 70 19 135q19 65 53.5 115.5q34.5 50.5 84 80.5q49.5 30 109.5 30q29 0 48 -3.5q19 -3.5 36 -11.5l43 203h123zM365 394q-12 8 -27.5 11.5q-15.5 3.5 -41.5 3.5q-30 0 -54.5 -20.5q-24.5 -20.5 -41.5 -55q-17 -34.5 -26.5 -79.5q-9.5 -45 -9.5 -94q0 -29 13 -50q13 -21 37 -21q15 0 30.5 7.5q15.5 7.5 29 19.5q13.5 12 25 26q11.5 14 18.5 26zM717 700q-8 -29 -24 -60.5q-16 -31.5 -35 -60q-19 -28.5 -38.5 -51q-19.5 -22.5 -32.5 -32.5l-47 31q24 36 41.5 81.5q17.5 45.5 27.5 91.5z" />
<glyph unicode="&#272;" horiz-adv-x="640" d="M40 401h85l63 299q21 3 46 5q25 2 47.5 3q22.5 1 36.5 1q10 0 26 0.5q16 0.5 35 0.5q62 0 112 -15.5q50 -15.5 85.5 -47.5q35.5 -32 55 -82q19.5 -50 19.5 -119q0 -44 -7.5 -94.5q-7.5 -50.5 -25.5 -101.5q-18 -51 -49.5 -98q-31.5 -47 -79 -83q-47.5 -36 -114 -58q-66.5 -22 -154.5 -22q-15 0 -29 0.5q-14 0.5 -22 0.5q-18 1 -43.5 2.5q-25.5 1.5 -50 3q-24.5 1.5 -36.5 3.5l68 322h-85zM254 401h132l-17 -80h-132l-43 -207q4 -1 12.5 -1.5q8.5 -0.5 18.5 -1q10 -0.5 19 -0.5q9 0 14 0q70 0 119 31.5q49 31.5 79.5 79q30.5 47.5 44 103q13.5 55.5 13.5 103.5q0 80 -33.5 120q-33.5 40 -112.5 40q-19 0 -41 -1q-22 -1 -34 -3z" />
<glyph unicode="&#273;" horiz-adv-x="507" d="M540 641h103l-17 -80h-103l-81 -385q-9 -42 -13 -78q-4 -36 -4 -68q0 -8 0 -15.5q0 -7.5 1 -15.5l-84 0l-14 86h-4q-11 -18 -28.5 -35.5q-17.5 -17.5 -38.5 -32q-21 -14.5 -44.5 -23q-23.5 -8.5 -46.5 -8.5q-62 0 -95.5 44q-33.5 44 -33.5 121q0 70 19 135q19 65 53.5 115.5q34.5 50.5 84 80.5q49.5 30 109.5 30q29 0 48 -3.5q19 -3.5 36 -11.5l13 64h-109l17 80h109l13 59h123zM365 394q-12 8 -27.5 11.5q-15.5 3.5 -41.5 3.5q-30 0 -54.5 -20.5q-24.5 -20.5 -41.5 -55q-17 -34.5 -26.5 -79.5q-9.5 -45 -9.5 -94q0 -29 13 -50q13 -21 37 -21q15 0 30.5 7.5q15.5 7.5 29 19.5q13.5 12 25 26q11.5 14 18.5 26z" />
<glyph unicode="&#274;" horiz-adv-x="503" d="M168 700h130h264l-26 -122h-264l-35 -163h241l-27 -122h-239l-37 -171h269l-25 -122h-269h-130zM226 856h327l-19 -89l-326 0z" />
<glyph unicode="&#275;" horiz-adv-x="466" d="M402 48q-31 -26 -80 -44q-49 -18 -114 -18q-81 0 -127.5 47.5q-46.5 47.5 -46.5 132.5q0 80 25 144.5q25 64.5 65.5 109.5q40.5 45 91.5 69.5q51 24.5 102 24.5q41 0 70.5 -10.5q29.5 -10.5 48.5 -29q19 -18.5 28 -42.5q9 -24 9 -51q0 -41 -21 -72q-21 -31 -58.5 -51.5q-37.5 -20.5 -90.5 -31q-53 -10.5 -116 -10.5q-8 0 -15 0.5q-7 0.5 -15 0.5q-2 -12 -3 -21.5q-1 -9.5 -1 -17.5q0 -45 23.5 -67q23.5 -22 66.5 -22q44 0 79 13q35 13 53 26zM176 295q28 0 59.5 2q31.5 2 58.5 9.5q27 7.5 45 22q18 14.5 18 39.5q0 15 -11 30.5q-11 15.5 -46 15.5q-44 0 -76.5 -34q-32.5 -34 -47.5 -85zt0 0zM188 658h308l-19 -92l-308 0z" />
<glyph unicode="&#278;" horiz-adv-x="503" d="M168 700h130h264l-26 -122h-264l-35 -163h241l-27 -122h-239l-37 -171h269l-25 -122h-269h-130zM307 798q0 31 24 46q24 15 59 15q33 0 58 -15q25 -15 25 -46q0 -30 -24 -45.5q-24 -15.5 -59 -15.5q-35 0 -59 15t-24 46z" />
<glyph unicode="&#279;" horiz-adv-x="466" d="M402 48q-31 -26 -80 -44q-49 -18 -114 -18q-81 0 -127.5 47.5q-46.5 47.5 -46.5 132.5q0 80 25 144.5q25 64.5 65.5 109.5q40.5 45 91.5 69.5q51 24.5 102 24.5q41 0 70.5 -10.5q29.5 -10.5 48.5 -29q19 -18.5 28 -42.5q9 -24 9 -51q0 -41 -21 -72q-21 -31 -58.5 -51.5q-37.5 -20.5 -90.5 -31q-53 -10.5 -116 -10.5q-8 0 -15 0.5q-7 0.5 -15 0.5q-2 -12 -3 -21.5q-1 -9.5 -1 -17.5q0 -45 23.5 -67q23.5 -22 66.5 -22q44 0 79 13q35 13 53 26zM176 295q28 0 59.5 2q31.5 2 58.5 9.5q27 7.5 45 22q18 14.5 18 39.5q0 15 -11 30.5q-11 15.5 -46 15.5q-44 0 -76.5 -34q-32.5 -34 -47.5 -85zt0 0zM270 642q0 33 21.5 51q21.5 18 54.5 18q32 0 54.5 -18q22.5 -18 22.5 -51q0 -32 -22.5 -50.5q-22.5 -18.5 -54.5 -18.5q-33 0 -54.5 18.5t-21.5 50.5z" />
<glyph unicode="&#280;" horiz-adv-x="503" d="M168 700h130h264l-26 -122h-264l-35 -163h241l-27 -122h-239l-37 -171h269l-25 -122h-20q-32 -12 -53.5 -31.5q-21.5 -19.5 -21.5 -48.5q0 -34 38 -34q14 0 38 8l5 -62q-18 -13 -49.5 -23q-31.5 -10 -64.5 -10q-48 0 -71.5 22q-23.5 22 -23.5 56q0 24 9 43.5q9 19.5 24 34.5q15 15 34.5 26q19.5 11 40.5 19l-154 0l-130 0z" />
<glyph unicode="&#281;" horiz-adv-x="466" d="M402 48q-32 -27 -78 -43q-26 -16 -43 -38q-17 -22 -17 -47q0 -11 4 -20q4 -9 13 -13q9 -4 23 -2.5q14 1.5 34 11.5l5 -62q-9 -6 -22 -12.5q-13 -6.5 -28.5 -11.5q-15.5 -5 -33 -8.5q-17.5 -3.5 -33.5 -3.5q-51 0 -71.5 22q-20.5 22 -20.5 56q0 34 24 62q24 28 58 48l-8 0q-81 0 -127.5 47.5q-46.5 47.5 -46.5 132.5q0 80 25 144.5q25 64.5 65.5 109.5q40.5 45 91.5 69.5q51 24.5 102 24.5q41 0 70.5 -10.5q29.5 -10.5 48.5 -29q19 -18.5 28 -42.5q9 -24 9 -51q0 -43 -23.5 -75q-23.5 -32 -64 -52.5q-40.5 -20.5 -100 -30q-59.5 -9.5 -128.5 -6.5q-2 -12 -3 -21.5q-1 -9.5 -1 -17.5q0 -45 23.5 -67q23.5 -22 66.5 -22q44 0 79 13q35 13 53 26zM300 414q-44 0 -76.5 -34q-32.5 -34 -47.5 -85q28 0 59.5 2q31.5 2 58.5 9.5q27 7.5 45 22q18 14.5 18 39.5q0 15 -11 30.5t-46 15.5z" />
<glyph unicode="&#282;" horiz-adv-x="503" d="M168 700h130h264l-26 -122h-264l-35 -163h241l-27 -122h-239l-37 -171h269l-25 -122h-269h-130zM407 737h-84l-101 94l8 39h92l41 -45l12 -30l25 29l64 46h98l-8 -40z" />
<glyph unicode="&#283;" horiz-adv-x="466" d="M402 48q-31 -26 -80 -44q-49 -18 -114 -18q-81 0 -127.5 47.5q-46.5 47.5 -46.5 132.5q0 80 25 144.5q25 64.5 65.5 109.5q40.5 45 91.5 69.5q51 24.5 102 24.5q41 0 70.5 -10.5q29.5 -10.5 48.5 -29q19 -18.5 28 -42.5q9 -24 9 -51q0 -41 -21 -72q-21 -31 -58.5 -51.5q-37.5 -20.5 -90.5 -31q-53 -10.5 -116 -10.5q-8 0 -15 0.5q-7 0.5 -15 0.5q-2 -12 -3 -21.5q-1 -9.5 -1 -17.5q0 -45 23.5 -67q23.5 -22 66.5 -22q44 0 79 13q35 13 53 26zM176 295q28 0 59.5 2q31.5 2 58.5 9.5q27 7.5 45 22q18 14.5 18 39.5q0 15 -11 30.5q-11 15.5 -46 15.5q-44 0 -76.5 -34q-32.5 -34 -47.5 -85zt0 0zM362 550h-87l-70 182h103l23 -66l5 -49l28 49l56 66l98 0z" />
<glyph unicode="&#284;" horiz-adv-x="585" d="M369 365h210l-66 -312q-45 -35 -94.5 -51q-49.5 -16 -106.5 -16q-55 0 -101.5 19q-46.5 19 -80.5 55q-34 36 -53 89q-19 53 -19 121q0 115 31.5 199q31.5 84 85.5 138.5q54 54.5 126 80.5q72 26 152 26q57 0 101.5 -9.5q44.5 -9.5 67.5 -19.5l-52 -115q-21 10 -52.5 16q-31.5 6 -76.5 6q-53 0 -98 -20q-45 -20 -78 -59q-33 -39 -51.5 -96.5q-18.5 -57.5 -18.5 -131.5q0 -83 39 -130q39 -47 105 -47q49 0 86 25l28 133l-102 16zM439 870h87l101 -93l-8 -39h-88l-45 41l-13 34l-27 -33l-67 -42h-94l9 40z" />
<glyph unicode="&#285;" horiz-adv-x="505" d="M407 0q-13 -59 -35 -99.5q-22 -40.5 -52.5 -65.5q-30.5 -25 -70 -36q-39.5 -11 -87.5 -11q-35 0 -62.5 5q-27.5 5 -48.5 12q-21 7 -36.5 14.5q-15.5 7.5 -24.5 13.5l46 91q9 -4 21 -9.5q12 -5.5 27.5 -11q15.5 -5.5 36 -9q20.5 -3.5 47.5 -3.5q50 0 79.5 31q29.5 31 42.5 85l19 78h-4q-23 -36 -62.5 -64.5q-39.5 -28.5 -89.5 -28.5q-54 0 -87.5 40.5q-33.5 40.5 -33.5 108.5q0 77 22 144.5q22 67.5 61.5 118q39.5 50.5 93.5 79.5q54 29 119 29q61 0 106.5 -10.5q45.5 -10.5 73.5 -23.5zM371 399q-11 6 -28 8q-17 2 -34 2q-32 0 -59.5 -19q-27.5 -19 -47.5 -52q-20 -33 -31.5 -77.5q-11.5 -44.5 -11.5 -95.5q0 -32 13.5 -51q13.5 -19 35.5 -19q17 0 35 10.5q18 10.5 34.5 26.5q16.5 16 29.5 35.5q13 19.5 21 36.5zM338 732h82l67 -182h-96l-24 66l-4 49l-27 -49l-57 -66l-97 0z" />
<glyph unicode="&#286;" horiz-adv-x="585" d="M369 365h210l-66 -312q-45 -35 -94.5 -51q-49.5 -16 -106.5 -16q-55 0 -101.5 19q-46.5 19 -80.5 55q-34 36 -53 89q-19 53 -19 121q0 115 31.5 199q31.5 84 85.5 138.5q54 54.5 126 80.5q72 26 152 26q57 0 101.5 -9.5q44.5 -9.5 67.5 -19.5l-52 -115q-21 10 -52.5 16q-31.5 6 -76.5 6q-53 0 -98 -20q-45 -20 -78 -59q-33 -39 -51.5 -96.5q-18.5 -57.5 -18.5 -131.5q0 -83 39 -130q39 -47 105 -47q49 0 86 25l28 133l-102 16zM339 875q18 -26 44 -40q26 -14 65 -14q55 0 92 15q37 15 65 39l49 -32q-17 -30 -40 -51.5q-23 -21.5 -50 -35q-27 -13.5 -57.5 -20q-30.5 -6.5 -61.5 -6.5q-26 0 -50.5 7.5q-24.5 7.5 -45 22q-20.5 14.5 -36 34.5q-15.5 20 -22.5 44z" />
<glyph unicode="&#287;" horiz-adv-x="505" d="M407 0q-13 -59 -35 -99.5q-22 -40.5 -52.5 -65.5q-30.5 -25 -70 -36q-39.5 -11 -87.5 -11q-35 0 -62.5 5q-27.5 5 -48.5 12q-21 7 -36.5 14.5q-15.5 7.5 -24.5 13.5l46 91q9 -4 21 -9.5q12 -5.5 27.5 -11q15.5 -5.5 36 -9q20.5 -3.5 47.5 -3.5q50 0 79.5 31q29.5 31 42.5 85l19 78h-4q-23 -36 -62.5 -64.5q-39.5 -28.5 -89.5 -28.5q-54 0 -87.5 40.5q-33.5 40.5 -33.5 108.5q0 77 22 144.5q22 67.5 61.5 118q39.5 50.5 93.5 79.5q54 29 119 29q61 0 106.5 -10.5q45.5 -10.5 73.5 -23.5zM371 399q-11 6 -28 8q-17 2 -34 2q-32 0 -59.5 -19q-27.5 -19 -47.5 -52q-20 -33 -31.5 -77.5q-11.5 -44.5 -11.5 -95.5q0 -32 13.5 -51q13.5 -19 35.5 -19q17 0 35 10.5q18 10.5 34.5 26.5q16.5 16 29.5 35.5q13 19.5 21 36.5zM259 720q21 -59 84 -59q39 0 70.5 15.5q31.5 15.5 52.5 43.5l51 -27q-8 -24 -25.5 -47.5q-17.5 -23.5 -42 -41.5q-24.5 -18 -55.5 -29q-31 -11 -64 -11q-62 0 -99 33.5q-37 33.5 -39 90.5z" />
<glyph unicode="&#290;" horiz-adv-x="585" d="M369 365h210l-66 -312q-45 -35 -94.5 -51q-49.5 -16 -106.5 -16q-55 0 -101.5 19q-46.5 19 -80.5 55q-34 36 -53 89q-19 53 -19 121q0 115 31.5 199q31.5 84 85.5 138.5q54 54.5 126 80.5q72 26 152 26q57 0 101.5 -9.5q44.5 -9.5 67.5 -19.5l-52 -115q-21 10 -52.5 16q-31.5 6 -76.5 6q-53 0 -98 -20q-45 -20 -78 -59q-33 -39 -51.5 -96.5q-18.5 -57.5 -18.5 -131.5q0 -83 39 -130q39 -47 105 -47q49 0 86 25l28 133l-102 16zM221 -113q0 17 6.5 30q6.5 13 17 22q10.5 9 23.5 14q13 5 27 5q35 0 49.5 -19q14.5 -19 13.5 -51q0 -36 -14 -63.5q-14 -27.5 -34.5 -47.5q-20.5 -20 -42.5 -32.5q-22 -12.5 -38 -17.5l-21 54q16 7 31.5 19.5q15.5 12.5 23.5 32.5q-19 3 -30.5 16.5t-11.5 37.5z" />
<glyph unicode="&#291;" horiz-adv-x="505" d="M407 0q-13 -59 -35 -99.5q-22 -40.5 -52.5 -65.5q-30.5 -25 -70 -36q-39.5 -11 -87.5 -11q-35 0 -62.5 5q-27.5 5 -48.5 12q-21 7 -36.5 14.5q-15.5 7.5 -24.5 13.5l46 91q9 -4 21 -9.5q12 -5.5 27.5 -11q15.5 -5.5 36 -9q20.5 -3.5 47.5 -3.5q50 0 79.5 31q29.5 31 42.5 85l19 78h-4q-23 -36 -62.5 -64.5q-39.5 -28.5 -89.5 -28.5q-54 0 -87.5 40.5q-33.5 40.5 -33.5 108.5q0 77 22 144.5q22 67.5 61.5 118q39.5 50.5 93.5 79.5q54 29 119 29q61 0 106.5 -10.5q45.5 -10.5 73.5 -23.5zM371 399q-11 6 -28 8q-17 2 -34 2q-32 0 -59.5 -19q-27.5 -19 -47.5 -52q-20 -33 -31.5 -77.5q-11.5 -44.5 -11.5 -95.5q0 -32 13.5 -51q13.5 -19 35.5 -19q17 0 35 10.5q18 10.5 34.5 26.5q16.5 16 29.5 35.5q13 19.5 21 36.5zM416 622q0 -17 -6.5 -30q-6.5 -13 -17 -22q-10.5 -9 -23.5 -14q-13 -5 -27 -5q-35 0 -49.5 19q-14.5 19 -13.5 51q0 36 14 63.5q14 27.5 34.5 47.5q20.5 20 42.5 32.5q22 12.5 38 17.5l21 -54q-16 -7 -31.5 -19.5q-15.5 -12.5 -23.5 -32.5q19 -3 30.5 -16.5t11.5 -37.5z" />
<glyph unicode="&#292;" horiz-adv-x="624" d="M455 293h-243l-62 -293h-130l148 700h130l-60 -285h243l60 285h130l-148 -700h-130zM424 870h87l101 -93l-8 -39h-88l-45 41l-13 34l-27 -33l-67 -42h-94l9 40z" />
<glyph unicode="&#293;" horiz-adv-x="528" d="M309 0l60 284q10 44 10 73q0 26 -10 37.5q-10 11.5 -31 11.5q-19 0 -40 -12q-21 -12 -40 -30q-19 -18 -34.5 -38.5q-15.5 -20.5 -23.5 -37.5l-59 -288h-123l148 700h123l-63 -288h4q13 16 31.5 34q18.5 18 41 33q22.5 15 49 25q26.5 10 57.5 10q48 0 74.5 -24q26.5 -24 26.5 -85q0 -37 -12 -94l-66 -311zM221 870h87l101 -93l-8 -39h-88l-45 41l-13 34l-27 -33l-67 -42h-94l9 40z" />
<glyph unicode="&#294;" horiz-adv-x="656" d="M92 598h70l22 102h130l-22 -102h243l22 102h130l-22 -102h72l-17 -82h-72l-109 -516h-130l62 293h-243l-62 -293h-130l109 516h-70zM497 415l21 101h-243l-21 -101z" />
<glyph unicode="&#295;" horiz-adv-x="528" d="M84 641h69l13 59h123l-13 -59h155l-17 -80h-156l-32 -149h4q13 16 31.5 34q18.5 18 41 33q22.5 15 49 25q26.5 10 57.5 10q48 0 74.5 -24q26.5 -24 26.5 -85q0 -37 -12 -94l-66 -311h-123l60 284q10 44 10 73q0 26 -10 37.5q-10 11.5 -31 11.5q-19 0 -40 -12q-21 -12 -40 -30q-19 -18 -34.5 -38.5q-15.5 -20.5 -23.5 -37.5l-59 -288h-123l118 561l-69 0z" />
<glyph unicode="&#298;" horiz-adv-x="278" d="M183 700h129l-148 -700h-129zM111 856h327l-19 -89l-326 0z" />
<glyph unicode="&#299;" horiz-adv-x="256" d="M133 500h123l-106 -500h-123zM74 658h308l-19 -92l-308 0z" />
<glyph unicode="&#302;" horiz-adv-x="278" d="M183 700h129l-148 -700h-14q-26 -13 -44.5 -32.5q-18.5 -19.5 -18.5 -46.5q0 -16 9.5 -25.5q9.5 -9.5 27.5 -9.5q16 0 39 9l5 -62q-18 -13 -49.5 -23.5q-31.5 -10.5 -64.5 -10.5q-48 0 -71.5 22q-23.5 22 -23.5 56q0 23 9 42q9 19 24 34.5q15 15.5 34 27q19 11.5 39 19.5l-30 0z" />
<glyph unicode="&#303;" horiz-adv-x="257" d="M133 500h123l-106 -500h-10q-26 -15 -44 -37.5q-18 -22.5 -18 -46.5q0 -20 16.5 -30q16.5 -10 57.5 10l6 -62q-9 -6 -22 -12.5q-13 -6.5 -28.5 -11.5q-15.5 -5 -33 -8.5q-17.5 -3.5 -33.5 -3.5q-53 0 -72 20.5q-19 20.5 -19 53.5q0 20 8.5 39q8.5 19 23.5 35.5q15 16.5 34.5 30.5q19.5 14 41.5 23l-31 0zM150 642q0 33 21.5 51q21.5 18 54.5 18q32 0 54.5 -18q22.5 -18 22.5 -51q0 -32 -22.5 -50.5q-22.5 -18.5 -54.5 -18.5q-33 0 -54.5 18.5t-21.5 50.5z" />
<glyph unicode="&#304;" horiz-adv-x="278" d="M183 700h129l-148 -700h-129zM183 798q0 31 24 46q24 15 59 15q33 0 58 -15q25 -15 25 -46q0 -30 -24 -45.5q-24 -15.5 -59 -15.5q-35 0 -59 15t-24 46z" />
<glyph unicode="&#305;" horiz-adv-x="256" d="M133 500h123l-106 -500l-123 0z" />
<glyph unicode="&#308;" horiz-adv-x="324" d="M239 700h130l-109 -512q-9 -42 -23 -78.5q-14 -36.5 -37 -63.5q-23 -27 -57.5 -42.5q-34.5 -15.5 -83.5 -15.5q-28 0 -59 6q-31 6 -51 17l50 112q23 -13 54 -13q21 0 35 8.5q14 8.5 23.5 23.5q9.5 15 15.5 35.5q6 20.5 12 45.5zM295 870h87l101 -93l-8 -39h-88l-45 41l-13 34l-27 -33l-67 -42h-94l9 40z" />
<glyph unicode="&#309;" horiz-adv-x="244" d="M123 500h124l-111 -521q-19 -90 -64 -137.5q-45 -47.5 -122 -47.5q-31 0 -62 7l24 106q25 -2 43 4.5q18 6.5 30.5 20.5q12.5 14 21 35.5q8.5 21.5 14.5 48.5zM197 732h82l67 -182h-96l-24 66l-4 49l-27 -49l-57 -66l-97 0z" />
<glyph unicode="&#310;" horiz-adv-x="593" d="M260 299h-47l-63 -299h-130l148 700h130l-66 -310l31 11l237 299h156l-252 -297l-60 -35l44 -39l152 -329h-145zM151 -113q0 17 6.5 30q6.5 13 17 22q10.5 9 23.5 14q13 5 27 5q35 0 49.5 -19q14.5 -19 13.5 -51q0 -36 -14 -63.5q-14 -27.5 -34.5 -47.5q-20.5 -20 -42.5 -32.5q-22 -12.5 -38 -17.5l-21 54q16 7 31.5 19.5q15.5 12.5 23.5 32.5q-19 3 -30.5 16.5t-11.5 37.5z" />
<glyph unicode="&#311;" horiz-adv-x="465" d="M224 207h-40l-43 -207h-123l148 700h123l-88 -413l37 13l141 200h137l-149 -201l-60 -38l45 -38l76 -223h-132zM109 -113q0 17 6.5 30q6.5 13 17 22q10.5 9 23.5 14q13 5 27 5q35 0 49.5 -19q14.5 -19 13.5 -51q0 -36 -14 -63.5q-14 -27.5 -34.5 -47.5q-20.5 -20 -42.5 -32.5q-22 -12.5 -38 -17.5l-21 54q16 7 31.5 19.5q15.5 12.5 23.5 32.5q-19 3 -30.5 16.5t-11.5 37.5z" />
<glyph unicode="&#313;" horiz-adv-x="495" d="M441 0h-291h-130l148 700h130l-123 -578h291zM311 870h157l-6 -30l-172 -88l-104 0z" />
<glyph unicode="&#314;" horiz-adv-x="272" d="M168 148q-6 -29 0.5 -43q6.5 -14 21.5 -14q28 0 53 11l-3 -89q-18 -11 -52 -18q-34 -7 -67 -7q-43 0 -65.5 16.5q-22.5 16.5 -22.5 61.5q0 23 6 53l123 581h123zM299 870h157l-6 -30l-172 -88l-104 0z" />
<glyph unicode="&#315;" horiz-adv-x="495" d="M441 0h-291h-130l148 700h130l-123 -578h291zM126 -113q0 17 6.5 30q6.5 13 17 22q10.5 9 23.5 14q13 5 27 5q35 0 49.5 -19q14.5 -19 13.5 -51q0 -36 -14 -63.5q-14 -27.5 -34.5 -47.5q-20.5 -20 -42.5 -32.5q-22 -12.5 -38 -17.5l-21 54q16 7 31.5 19.5q15.5 12.5 23.5 32.5q-19 3 -30.5 16.5t-11.5 37.5z" />
<glyph unicode="&#316;" horiz-adv-x="272" d="M168 148q-6 -29 0.5 -43q6.5 -14 21.5 -14q28 0 53 11l-3 -89q-18 -11 -52 -18q-34 -7 -67 -7q-43 0 -65.5 16.5q-22.5 16.5 -22.5 61.5q0 23 6 53l123 581h123zM27 -113q0 17 6.5 30q6.5 13 17 22q10.5 9 23.5 14q13 5 27 5q35 0 49.5 -19q14.5 -19 13.5 -51q0 -36 -14 -63.5q-14 -27.5 -34.5 -47.5q-20.5 -20 -42.5 -32.5q-22 -12.5 -38 -17.5l-21 54q16 7 31.5 19.5q15.5 12.5 23.5 32.5q-19 3 -30.5 16.5t-11.5 37.5z" />
<glyph unicode="&#317;" horiz-adv-x="495" d="M441 0h-291h-130l148 700h130l-123 -578h291zM551 700q-8 -29 -24 -60.5q-16 -31.5 -35 -60q-19 -28.5 -38.5 -51q-19.5 -22.5 -32.5 -32.5l-47 31q24 36 41.5 81.5q17.5 45.5 27.5 91.5z" />
<glyph unicode="&#318;" horiz-adv-x="272" d="M168 148q-6 -29 0.5 -43q6.5 -14 21.5 -14q28 0 53 11l-3 -89q-18 -11 -52 -18q-34 -7 -67 -7q-43 0 -65.5 16.5q-22.5 16.5 -22.5 61.5q0 23 6 53l123 581h123zM452 700q-8 -29 -24 -60.5q-16 -31.5 -35 -60q-19 -28.5 -38.5 -51q-19.5 -22.5 -32.5 -32.5l-47 31q24 36 41.5 81.5q17.5 45.5 27.5 91.5z" />
<glyph unicode="&#321;" horiz-adv-x="500" d="M29 318l72 44l72 338h130l-53 -246l112 68l-27 -125l-111 -67l-44 -208h291l-25 -122h-288h-133l51 241l-73 -44z" />
<glyph unicode="&#322;" horiz-adv-x="272" d="M4 307l86 52l72 341h123l-54 -254l106 65l-27 -125l-105 -63l-37 -175q-6 -29 0.5 -43q6.5 -14 21.5 -14q28 0 53 11l-3 -89q-18 -11 -52 -18q-34 -7 -67 -7q-43 0 -65.5 16.5q-22.5 16.5 -22.5 61.5q0 23 6 53l25 119l-86 -52z" />
<glyph unicode="&#323;" horiz-adv-x="631" d="M267 366l-33 112h-5l-9 -112l-77 -366h-123l150 705h90l172 -374l31 -109h6l7 109l79 369h123l-150 -705h-90zM489 870h157l-6 -30l-172 -88l-104 0z" />
<glyph unicode="&#324;" horiz-adv-x="521" d="M294 0l66 310q6 28 6 49q0 22 -9 34.5q-9 12.5 -33 12.5q-18 0 -36 -9q-18 -9 -34 -24q-16 -15 -30 -33.5q-14 -18.5 -24 -37.5l-64 -302h-123l106 500h93l-5 -88h4q13 16 30.5 34q17.5 18 40.5 33q23 15 51.5 25q28.5 10 64.5 10q45 0 72 -24.5q27 -24.5 27 -81.5q0 -15 -1.5 -32q-1.5 -17 -6.5 -37l-72 -339zM380 720h125l-6 -30l-133 -124l-69 0z" />
<glyph unicode="&#325;" horiz-adv-x="631" d="M267 366l-33 112h-5l-9 -112l-77 -366h-123l150 705h90l172 -374l31 -109h6l7 109l79 369h123l-150 -705h-90zM181 -113q0 17 6.5 30q6.5 13 17 22q10.5 9 23.5 14q13 5 27 5q35 0 49.5 -19q14.5 -19 13.5 -51q0 -36 -14 -63.5q-14 -27.5 -34.5 -47.5q-20.5 -20 -42.5 -32.5q-22 -12.5 -38 -17.5l-21 54q16 7 31.5 19.5q15.5 12.5 23.5 32.5q-19 3 -30.5 16.5t-11.5 37.5z" />
<glyph unicode="&#326;" horiz-adv-x="521" d="M294 0l66 310q6 28 6 49q0 22 -9 34.5q-9 12.5 -33 12.5q-18 0 -36 -9q-18 -9 -34 -24q-16 -15 -30 -33.5q-14 -18.5 -24 -37.5l-64 -302h-123l106 500h93l-5 -88h4q13 16 30.5 34q17.5 18 40.5 33q23 15 51.5 25q28.5 10 64.5 10q45 0 72 -24.5q27 -24.5 27 -81.5q0 -15 -1.5 -32q-1.5 -17 -6.5 -37l-72 -339zM128 -113q0 17 6.5 30q6.5 13 17 22q10.5 9 23.5 14q13 5 27 5q35 0 49.5 -19q14.5 -19 13.5 -51q0 -36 -14 -63.5q-14 -27.5 -34.5 -47.5q-20.5 -20 -42.5 -32.5q-22 -12.5 -38 -17.5l-21 54q16 7 31.5 19.5q15.5 12.5 23.5 32.5q-19 3 -30.5 16.5t-11.5 37.5z" />
<glyph unicode="&#327;" horiz-adv-x="631" d="M267 366l-33 112h-5l-9 -112l-77 -366h-123l150 705h90l172 -374l31 -109h6l7 109l79 369h123l-150 -705h-90zM469 737h-84l-101 94l8 39h92l41 -45l12 -30l25 29l64 46h98l-8 -40z" />
<glyph unicode="&#328;" horiz-adv-x="521" d="M294 0l66 310q6 28 6 49q0 22 -9 34.5q-9 12.5 -33 12.5q-18 0 -36 -9q-18 -9 -34 -24q-16 -15 -30 -33.5q-14 -18.5 -24 -37.5l-64 -302h-123l106 500h93l-5 -88h4q13 16 30.5 34q17.5 18 40.5 33q23 15 51.5 25q28.5 10 64.5 10q45 0 72 -24.5q27 -24.5 27 -81.5q0 -15 -1.5 -32q-1.5 -17 -6.5 -37l-72 -339zM377 550h-87l-70 182h103l23 -66l5 -49l28 49l56 66l98 0z" />
</font>
</defs>
</svg>
